<?xml version="1.0" encoding="us-ascii" standalone="no"?><svg xmlns="http://www.w3.org/2000/svg" xmlns:xlink="http://www.w3.org/1999/xlink" contentStyleType="text/css" height="1536px" preserveAspectRatio="none" style="width:1100px;height:1536px;background:#FFFFFF;" version="1.1" viewBox="0 0 1100 1536" width="1100px" zoomAndPan="magnify"><defs/><g><text fill="#000000" font-family="sans-serif" font-size="14" font-weight="bold" lengthAdjust="spacing" textLength="271" x="407.5" y="23.5352">Class Diagram - Register a candidate</text><!--cluster presentation--><g id="cluster_presentation"><path d="M539.5,43.4883 L631.5,43.4883 A3.75,3.75 0 0 1 634,45.9883 L641,65.9766 L902.5,65.9766 A2.5,2.5 0 0 1 905,68.4766 L905,221.9883 A2.5,2.5 0 0 1 902.5,224.4883 L539.5,224.4883 A2.5,2.5 0 0 1 537,221.9883 L537,45.9883 A2.5,2.5 0 0 1 539.5,43.4883 " fill="none" style="stroke:#000000;stroke-width:1.5;"/><line style="stroke:#000000;stroke-width:1.5;" x1="537" x2="641" y1="65.9766" y2="65.9766"/><text fill="#000000" font-family="sans-serif" font-size="14" font-weight="bold" lengthAdjust="spacing" textLength="91" x="541" y="59.0234">presentation</text></g><!--cluster application--><g id="cluster_application"><path d="M418.5,294.4883 L499.5,294.4883 A3.75,3.75 0 0 1 502,296.9883 L509,316.9766 L1024.5,316.9766 A2.5,2.5 0 0 1 1027,319.4766 L1027,892.9883 A2.5,2.5 0 0 1 1024.5,895.4883 L418.5,895.4883 A2.5,2.5 0 0 1 416,892.9883 L416,296.9883 A2.5,2.5 0 0 1 418.5,294.4883 " fill="none" style="stroke:#000000;stroke-width:1.5;"/><line style="stroke:#000000;stroke-width:1.5;" x1="416" x2="509" y1="316.9766" y2="316.9766"/><text fill="#000000" font-family="sans-serif" font-size="14" font-weight="bold" lengthAdjust="spacing" textLength="80" x="420" y="310.0234">application</text></g><!--cluster repositories--><g id="cluster_repositories"><path d="M674.5,1323.4883 L762.5,1323.4883 A3.75,3.75 0 0 1 765,1325.9883 L772,1345.9766 L1090.5,1345.9766 A2.5,2.5 0 0 1 1093,1348.4766 L1093,1452.9883 A2.5,2.5 0 0 1 1090.5,1455.4883 L674.5,1455.4883 A2.5,2.5 0 0 1 672,1452.9883 L672,1325.9883 A2.5,2.5 0 0 1 674.5,1323.4883 " fill="none" style="stroke:#000000;stroke-width:1.5;"/><line style="stroke:#000000;stroke-width:1.5;" x1="672" x2="772" y1="1345.9766" y2="1345.9766"/><text fill="#000000" font-family="sans-serif" font-size="14" font-weight="bold" lengthAdjust="spacing" textLength="87" x="676" y="1339.0234">repositories</text></g><!--cluster domain--><g id="cluster_domain"><path d="M8.5,1249.4883 L63.5,1249.4883 A3.75,3.75 0 0 1 66,1251.9883 L73,1271.9766 L397.5,1271.9766 A2.5,2.5 0 0 1 400,1274.4766 L400,1526.9883 A2.5,2.5 0 0 1 397.5,1529.4883 L8.5,1529.4883 A2.5,2.5 0 0 1 6,1526.9883 L6,1251.9883 A2.5,2.5 0 0 1 8.5,1249.4883 " fill="none" style="stroke:#000000;stroke-width:1.5;"/><line style="stroke:#000000;stroke-width:1.5;" x1="6" x2="73" y1="1271.9766" y2="1271.9766"/><text fill="#000000" font-family="sans-serif" font-size="14" font-weight="bold" lengthAdjust="spacing" textLength="54" x="10" y="1265.0234">domain</text></g><!--cluster services--><g id="cluster_services"><path d="M21.5,965.4883 L80.5,965.4883 A3.75,3.75 0 0 1 83,967.9883 L90,987.9766 L953.5,987.9766 A2.5,2.5 0 0 1 956,990.4766 L956,1176.9883 A2.5,2.5 0 0 1 953.5,1179.4883 L21.5,1179.4883 A2.5,2.5 0 0 1 19,1176.9883 L19,967.9883 A2.5,2.5 0 0 1 21.5,965.4883 " fill="none" style="stroke:#000000;stroke-width:1.5;"/><line style="stroke:#000000;stroke-width:1.5;" x1="19" x2="90" y1="987.9766" y2="987.9766"/><text fill="#000000" font-family="sans-serif" font-size="14" font-weight="bold" lengthAdjust="spacing" textLength="58" x="23" y="981.0234">services</text></g><!--class ChangeProcessStatusUI--><g id="elem_ChangeProcessStatusUI"><rect codeLine="16" fill="#FFFFFF" height="130.4414" id="ChangeProcessStatusUI" rx="2.5" ry="2.5" style="stroke:#000000;stroke-width:0.5;" width="336" x="553" y="78.4883"/><ellipse cx="636.25" cy="94.4883" fill="#ADD1B2" rx="11" ry="11" style="stroke:#181818;stroke-width:1.0;"/><path d="M639.2231,100.1313 Q638.6421,100.4302 638.0029,100.5796 Q637.3638,100.729 636.6582,100.729 Q634.1514,100.729 632.8315,99.0771 Q631.5117,97.4253 631.5117,94.3042 Q631.5117,91.1748 632.8315,89.5229 Q634.1514,87.8711 636.6582,87.8711 Q637.3638,87.8711 638.0112,88.0205 Q638.6587,88.1699 639.2231,88.4688 L639.2231,91.1914 Q638.5923,90.6104 637.9988,90.3406 Q637.4053,90.0708 636.7744,90.0708 Q635.4297,90.0708 634.7449,91.1375 Q634.0601,92.2041 634.0601,94.3042 Q634.0601,96.396 634.7449,97.4626 Q635.4297,98.5293 636.7744,98.5293 Q637.4053,98.5293 637.9988,98.2595 Q638.5923,97.9897 639.2231,97.4087 Z " fill="#000000"/><text fill="#000000" font-family="sans-serif" font-size="14" lengthAdjust="spacing" textLength="161" x="656.75" y="99.7793">ChangeProcessStatusUI</text><line style="stroke:#000000;stroke-width:0.5;" x1="554" x2="888" y1="110.4883" y2="110.4883"/><line style="stroke:#000000;stroke-width:0.5;" x1="554" x2="888" y1="118.4883" y2="118.4883"/><ellipse cx="564" cy="132.2324" fill="#84BE84" rx="3" ry="3" style="stroke:#038048;stroke-width:1.0;"/><text fill="#000000" font-family="sans-serif" font-size="14" lengthAdjust="spacing" textLength="65" x="573" y="136.0234">doShow()</text><ellipse cx="564" cy="148.7207" fill="#84BE84" rx="3" ry="3" style="stroke:#038048;stroke-width:1.0;"/><text fill="#000000" font-family="sans-serif" font-size="14" lengthAdjust="spacing" textLength="69" x="573" y="152.5117">headline()</text><ellipse cx="564" cy="165.209" fill="#84BE84" rx="3" ry="3" style="stroke:#038048;stroke-width:1.0;"/><text fill="#000000" font-family="sans-serif" font-size="14" lengthAdjust="spacing" textLength="91" x="573" y="169">selectStatus()</text><ellipse cx="564" cy="181.6973" fill="#84BE84" rx="3" ry="3" style="stroke:#038048;stroke-width:1.0;"/><text fill="#000000" font-family="sans-serif" font-size="14" lengthAdjust="spacing" textLength="310" x="573" y="185.4883">changeProcessStatus(processStatus ,process)</text><ellipse cx="564" cy="198.1855" fill="#84BE84" rx="3" ry="3" style="stroke:#038048;stroke-width:1.0;"/><text fill="#000000" font-family="sans-serif" font-size="14" lengthAdjust="spacing" textLength="294" x="573" y="201.9766">changeProcessState(processState ,process)</text></g><!--class ChangeProcessStatusController--><g id="elem_ChangeProcessStatusController"><rect codeLine="26" fill="#FFFFFF" height="97.4648" id="ChangeProcessStatusController" rx="2.5" ry="2.5" style="stroke:#000000;stroke-width:0.5;" width="336" x="553" y="329.4883"/><ellipse cx="608.25" cy="345.4883" fill="#ADD1B2" rx="11" ry="11" style="stroke:#181818;stroke-width:1.0;"/><path d="M611.2231,351.1313 Q610.6421,351.4302 610.0029,351.5796 Q609.3638,351.729 608.6582,351.729 Q606.1514,351.729 604.8315,350.0771 Q603.5117,348.4253 603.5117,345.3042 Q603.5117,342.1748 604.8315,340.5229 Q606.1514,338.8711 608.6582,338.8711 Q609.3638,338.8711 610.0112,339.0205 Q610.6587,339.1699 611.2231,339.4688 L611.2231,342.1914 Q610.5923,341.6104 609.9988,341.3406 Q609.4053,341.0708 608.7744,341.0708 Q607.4297,341.0708 606.7449,342.1375 Q606.0601,343.2041 606.0601,345.3042 Q606.0601,347.396 606.7449,348.4626 Q607.4297,349.5293 608.7744,349.5293 Q609.4053,349.5293 609.9988,349.2595 Q610.5923,348.9897 611.2231,348.4087 Z " fill="#000000"/><text fill="#000000" font-family="sans-serif" font-size="14" lengthAdjust="spacing" textLength="217" x="628.75" y="350.7793">ChangeProcessStatusController</text><line style="stroke:#000000;stroke-width:0.5;" x1="554" x2="888" y1="361.4883" y2="361.4883"/><line style="stroke:#000000;stroke-width:0.5;" x1="554" x2="888" y1="369.4883" y2="369.4883"/><ellipse cx="564" cy="383.2324" fill="#84BE84" rx="3" ry="3" style="stroke:#038048;stroke-width:1.0;"/><text fill="#000000" font-family="sans-serif" font-size="14" lengthAdjust="spacing" textLength="130" x="573" y="387.0234">selectJobOpening()</text><ellipse cx="564" cy="399.7207" fill="#84BE84" rx="3" ry="3" style="stroke:#038048;stroke-width:1.0;"/><text fill="#000000" font-family="sans-serif" font-size="14" lengthAdjust="spacing" textLength="310" x="573" y="403.5117">changeProcessStatus(processStatus ,process)</text><ellipse cx="564" cy="416.209" fill="#84BE84" rx="3" ry="3" style="stroke:#038048;stroke-width:1.0;"/><text fill="#000000" font-family="sans-serif" font-size="14" lengthAdjust="spacing" textLength="294" x="573" y="420">changeProcessState(processState ,process)</text></g><!--class ChangeProcessStateController--><g id="elem_ChangeProcessStateController"><rect codeLine="31" fill="#FFFFFF" height="64.4883" id="ChangeProcessStateController" rx="2.5" ry="2.5" style="stroke:#000000;stroke-width:0.5;" width="320" x="691" y="563.9883"/><ellipse cx="742.25" cy="579.9883" fill="#ADD1B2" rx="11" ry="11" style="stroke:#181818;stroke-width:1.0;"/><path d="M745.2231,585.6313 Q744.6421,585.9302 744.0029,586.0796 Q743.3638,586.229 742.6582,586.229 Q740.1514,586.229 738.8315,584.5771 Q737.5117,582.9253 737.5117,579.8042 Q737.5117,576.6748 738.8315,575.0229 Q740.1514,573.3711 742.6582,573.3711 Q743.3638,573.3711 744.0112,573.5205 Q744.6587,573.6699 745.2231,573.9688 L745.2231,576.6914 Q744.5923,576.1104 743.9988,575.8406 Q743.4053,575.5708 742.7744,575.5708 Q741.4297,575.5708 740.7449,576.6375 Q740.0601,577.7041 740.0601,579.8042 Q740.0601,581.896 740.7449,582.9626 Q741.4297,584.0293 742.7744,584.0293 Q743.4053,584.0293 743.9988,583.7595 Q744.5923,583.4897 745.2231,582.9087 Z " fill="#000000"/><text fill="#000000" font-family="sans-serif" font-size="14" lengthAdjust="spacing" textLength="209" x="762.75" y="585.2793">ChangeProcessStateController</text><line style="stroke:#000000;stroke-width:0.5;" x1="692" x2="1010" y1="595.9883" y2="595.9883"/><line style="stroke:#000000;stroke-width:0.5;" x1="692" x2="1010" y1="603.9883" y2="603.9883"/><ellipse cx="702" cy="617.7324" fill="#84BE84" rx="3" ry="3" style="stroke:#038048;stroke-width:1.0;"/><text fill="#000000" font-family="sans-serif" font-size="14" lengthAdjust="spacing" textLength="294" x="711" y="621.5234">changeProcessState(processState ,process)</text></g><!--class SelectJobOpeningController--><g id="elem_SelectJobOpeningController"><rect codeLine="34" fill="#FFFFFF" height="97.4648" id="SelectJobOpeningController" rx="2.5" ry="2.5" style="stroke:#000000;stroke-width:0.5;" width="223" x="432.5" y="547.4883"/><ellipse cx="447.5" cy="563.4883" fill="#ADD1B2" rx="11" ry="11" style="stroke:#181818;stroke-width:1.0;"/><path d="M450.4731,569.1313 Q449.8921,569.4302 449.2529,569.5796 Q448.6138,569.729 447.9082,569.729 Q445.4014,569.729 444.0815,568.0771 Q442.7617,566.4253 442.7617,563.3042 Q442.7617,560.1748 444.0815,558.5229 Q445.4014,556.8711 447.9082,556.8711 Q448.6138,556.8711 449.2612,557.0205 Q449.9087,557.1699 450.4731,557.4688 L450.4731,560.1914 Q449.8423,559.6104 449.2488,559.3406 Q448.6553,559.0708 448.0244,559.0708 Q446.6797,559.0708 445.9949,560.1375 Q445.3101,561.2041 445.3101,563.3042 Q445.3101,565.396 445.9949,566.4626 Q446.6797,567.5293 448.0244,567.5293 Q448.6553,567.5293 449.2488,567.2595 Q449.8423,566.9897 450.4731,566.4087 Z " fill="#000000"/><text fill="#000000" font-family="sans-serif" font-size="14" lengthAdjust="spacing" textLength="191" x="461.5" y="568.7793">SelectJobOpeningController</text><line style="stroke:#000000;stroke-width:0.5;" x1="433.5" x2="654.5" y1="579.4883" y2="579.4883"/><line style="stroke:#000000;stroke-width:0.5;" x1="433.5" x2="654.5" y1="587.4883" y2="587.4883"/><ellipse cx="443.5" cy="601.2324" fill="#84BE84" rx="3" ry="3" style="stroke:#038048;stroke-width:1.0;"/><text fill="#000000" font-family="sans-serif" font-size="14" lengthAdjust="spacing" textLength="130" x="452.5" y="605.0234">selectJobOpening()</text><ellipse cx="443.5" cy="617.7207" fill="#84BE84" rx="3" ry="3" style="stroke:#038048;stroke-width:1.0;"/><text fill="#000000" font-family="sans-serif" font-size="14" lengthAdjust="spacing" textLength="186" x="452.5" y="621.5117">selectJobOpeningAnalysis()</text><ellipse cx="443.5" cy="634.209" fill="#84BE84" rx="3" ry="3" style="stroke:#038048;stroke-width:1.0;"/><text fill="#000000" font-family="sans-serif" font-size="14" lengthAdjust="spacing" textLength="111" x="452.5" y="638">selectorPart(list)</text></g><!--class ListJobOpeningController--><g id="elem_ListJobOpeningController"><rect codeLine="39" fill="#FFFFFF" height="113.9531" id="ListJobOpeningController" rx="2.5" ry="2.5" style="stroke:#000000;stroke-width:0.5;" width="339" x="438.5" y="765.4883"/><ellipse cx="516.75" cy="781.4883" fill="#ADD1B2" rx="11" ry="11" style="stroke:#181818;stroke-width:1.0;"/><path d="M519.7231,787.1313 Q519.1421,787.4302 518.5029,787.5796 Q517.8638,787.729 517.1582,787.729 Q514.6514,787.729 513.3315,786.0771 Q512.0117,784.4253 512.0117,781.3042 Q512.0117,778.1748 513.3315,776.5229 Q514.6514,774.8711 517.1582,774.8711 Q517.8638,774.8711 518.5112,775.0205 Q519.1587,775.1699 519.7231,775.4688 L519.7231,778.1914 Q519.0923,777.6104 518.4988,777.3406 Q517.9053,777.0708 517.2744,777.0708 Q515.9297,777.0708 515.2449,778.1375 Q514.5601,779.2041 514.5601,781.3042 Q514.5601,783.396 515.2449,784.4626 Q515.9297,785.5293 517.2744,785.5293 Q517.9053,785.5293 518.4988,785.2595 Q519.0923,784.9897 519.7231,784.4087 Z " fill="#000000"/><text fill="#000000" font-family="sans-serif" font-size="14" lengthAdjust="spacing" textLength="174" x="537.25" y="786.7793">ListJobOpeningController</text><line style="stroke:#000000;stroke-width:0.5;" x1="439.5" x2="776.5" y1="797.4883" y2="797.4883"/><line style="stroke:#000000;stroke-width:0.5;" x1="439.5" x2="776.5" y1="805.4883" y2="805.4883"/><ellipse cx="449.5" cy="819.2324" fill="#84BE84" rx="3" ry="3" style="stroke:#038048;stroke-width:1.0;"/><text fill="#000000" font-family="sans-serif" font-size="14" lengthAdjust="spacing" textLength="134" x="458.5" y="823.0234">showJobOpenings()</text><ellipse cx="449.5" cy="835.7207" fill="#84BE84" rx="3" ry="3" style="stroke:#038048;stroke-width:1.0;"/><text fill="#000000" font-family="sans-serif" font-size="14" lengthAdjust="spacing" textLength="190" x="458.5" y="839.5117">showJobOpeningsAnalysis()</text><ellipse cx="449.5" cy="852.209" fill="#84BE84" rx="3" ry="3" style="stroke:#038048;stroke-width:1.0;"/><text fill="#000000" font-family="sans-serif" font-size="14" lengthAdjust="spacing" textLength="114" x="458.5" y="856">allJobOpenings()</text><ellipse cx="449.5" cy="868.6973" fill="#84BE84" rx="3" ry="3" style="stroke:#038048;stroke-width:1.0;"/><text fill="#000000" font-family="sans-serif" font-size="14" lengthAdjust="spacing" textLength="313" x="458.5" y="872.4883">findJobOpeningByJobReference(jobReference)</text></g><!--class JobOpeningRepository--><g id="elem_JobOpeningRepository"><rect codeLine="48" fill="#FFFFFF" height="64.4883" id="JobOpeningRepository" rx="2.5" ry="2.5" style="stroke:#000000;stroke-width:0.5;" width="186" x="688" y="1366.9883"/><ellipse cx="703" cy="1382.9883" fill="#B4A7E5" rx="11" ry="11" style="stroke:#181818;stroke-width:1.0;"/><path d="M698.9277,1378.7534 L698.9277,1376.5952 L706.3071,1376.5952 L706.3071,1378.7534 L703.8418,1378.7534 L703.8418,1386.8301 L706.3071,1386.8301 L706.3071,1388.9883 L698.9277,1388.9883 L698.9277,1386.8301 L701.3931,1386.8301 L701.3931,1378.7534 Z " fill="#000000"/><text fill="#000000" font-family="sans-serif" font-size="14" font-style="italic" lengthAdjust="spacing" textLength="154" x="717" y="1388.2793">JobOpeningRepository</text><line style="stroke:#000000;stroke-width:0.5;" x1="689" x2="873" y1="1398.9883" y2="1398.9883"/><line style="stroke:#000000;stroke-width:0.5;" x1="689" x2="873" y1="1406.9883" y2="1406.9883"/><ellipse cx="699" cy="1420.7324" fill="#84BE84" rx="3" ry="3" style="stroke:#038048;stroke-width:1.0;"/><text fill="#000000" font-family="sans-serif" font-size="14" lengthAdjust="spacing" textLength="114" x="708" y="1424.5234">allJobOpenings()</text></g><!--class ProcessRepository--><g id="elem_ProcessRepository"><rect codeLine="52" fill="#FFFFFF" height="80.9766" id="ProcessRepository" rx="2.5" ry="2.5" style="stroke:#000000;stroke-width:0.5;" width="167" x="909.5" y="1358.4883"/><ellipse cx="929" cy="1374.4883" fill="#B4A7E5" rx="11" ry="11" style="stroke:#181818;stroke-width:1.0;"/><path d="M924.9277,1370.2534 L924.9277,1368.0952 L932.3071,1368.0952 L932.3071,1370.2534 L929.8418,1370.2534 L929.8418,1378.3301 L932.3071,1378.3301 L932.3071,1380.4883 L924.9277,1380.4883 L924.9277,1378.3301 L927.3931,1378.3301 L927.3931,1370.2534 Z " fill="#000000"/><text fill="#000000" font-family="sans-serif" font-size="14" font-style="italic" lengthAdjust="spacing" textLength="125" x="944" y="1379.7793">ProcessRepository</text><line style="stroke:#000000;stroke-width:0.5;" x1="910.5" x2="1075.5" y1="1390.4883" y2="1390.4883"/><line style="stroke:#000000;stroke-width:0.5;" x1="910.5" x2="1075.5" y1="1398.4883" y2="1398.4883"/><ellipse cx="920.5" cy="1412.2324" fill="#84BE84" rx="3" ry="3" style="stroke:#038048;stroke-width:1.0;"/><text fill="#000000" font-family="sans-serif" font-size="14" lengthAdjust="spacing" textLength="93" x="929.5" y="1416.0234">allProcesses()</text><ellipse cx="920.5" cy="1428.7207" fill="#84BE84" rx="3" ry="3" style="stroke:#038048;stroke-width:1.0;"/><text fill="#000000" font-family="sans-serif" font-size="14" lengthAdjust="spacing" textLength="141" x="929.5" y="1432.5117">ofIdentity(Integer id)</text></g><!--class Process--><g id="elem_Process"><rect codeLine="59" fill="#FFFFFF" height="229.3711" id="Process" rx="2.5" ry="2.5" style="stroke:#000000;stroke-width:0.5;" width="362" x="22" y="1284.4883"/><ellipse cx="172.75" cy="1300.4883" fill="#ADD1B2" rx="11" ry="11" style="stroke:#181818;stroke-width:1.0;"/><path d="M175.7231,1306.1313 Q175.1421,1306.4302 174.5029,1306.5796 Q173.8638,1306.729 173.1582,1306.729 Q170.6514,1306.729 169.3315,1305.0771 Q168.0117,1303.4253 168.0117,1300.3042 Q168.0117,1297.1748 169.3315,1295.5229 Q170.6514,1293.8711 173.1582,1293.8711 Q173.8638,1293.8711 174.5112,1294.0205 Q175.1587,1294.1699 175.7231,1294.4688 L175.7231,1297.1914 Q175.0923,1296.6104 174.4988,1296.3406 Q173.9053,1296.0708 173.2744,1296.0708 Q171.9297,1296.0708 171.2449,1297.1375 Q170.5601,1298.2041 170.5601,1300.3042 Q170.5601,1302.396 171.2449,1303.4626 Q171.9297,1304.5293 173.2744,1304.5293 Q173.9053,1304.5293 174.4988,1304.2595 Q175.0923,1303.9897 175.7231,1303.4087 Z " fill="#000000"/><text fill="#000000" font-family="sans-serif" font-size="14" lengthAdjust="spacing" textLength="52" x="193.25" y="1305.7793">Process</text><line style="stroke:#000000;stroke-width:0.5;" x1="23" x2="383" y1="1316.4883" y2="1316.4883"/><line style="stroke:#000000;stroke-width:0.5;" x1="23" x2="383" y1="1324.4883" y2="1324.4883"/><ellipse cx="33" cy="1338.2324" fill="#84BE84" rx="3" ry="3" style="stroke:#038048;stroke-width:1.0;"/><text fill="#000000" font-family="sans-serif" font-size="14" lengthAdjust="spacing" textLength="336" x="42" y="1342.0234">Process(processState,processDate,processStatus)</text><ellipse cx="33" cy="1354.7207" fill="#84BE84" rx="3" ry="3" style="stroke:#038048;stroke-width:1.0;"/><text fill="#000000" font-family="sans-serif" font-size="14" lengthAdjust="spacing" textLength="62" x="42" y="1358.5117">Process()</text><ellipse cx="33" cy="1371.209" fill="#84BE84" rx="3" ry="3" style="stroke:#038048;stroke-width:1.0;"/><text fill="#000000" font-family="sans-serif" font-size="14" lengthAdjust="spacing" textLength="100" x="42" y="1375">sameAs(other)</text><ellipse cx="33" cy="1387.6973" fill="#84BE84" rx="3" ry="3" style="stroke:#038048;stroke-width:1.0;"/><text fill="#000000" font-family="sans-serif" font-size="14" lengthAdjust="spacing" textLength="125" x="42" y="1391.4883">compareTo(other)</text><ellipse cx="33" cy="1404.1855" fill="#84BE84" rx="3" ry="3" style="stroke:#038048;stroke-width:1.0;"/><text fill="#000000" font-family="sans-serif" font-size="14" lengthAdjust="spacing" textLength="61" x="42" y="1407.9766">identity()</text><ellipse cx="33" cy="1420.6738" fill="#84BE84" rx="3" ry="3" style="stroke:#038048;stroke-width:1.0;"/><text fill="#000000" font-family="sans-serif" font-size="14" lengthAdjust="spacing" textLength="97" x="42" y="1424.4648">processState()</text><ellipse cx="33" cy="1437.1621" fill="#84BE84" rx="3" ry="3" style="stroke:#038048;stroke-width:1.0;"/><text fill="#000000" font-family="sans-serif" font-size="14" lengthAdjust="spacing" textLength="105" x="42" y="1440.9531">processStatus()</text><ellipse cx="33" cy="1453.6504" fill="#84BE84" rx="3" ry="3" style="stroke:#038048;stroke-width:1.0;"/><text fill="#000000" font-family="sans-serif" font-size="14" lengthAdjust="spacing" textLength="94" x="42" y="1457.4414">processDate()</text><ellipse cx="33" cy="1470.1387" fill="#84BE84" rx="3" ry="3" style="stroke:#038048;stroke-width:1.0;"/><text fill="#000000" font-family="sans-serif" font-size="14" lengthAdjust="spacing" textLength="249" x="42" y="1473.9297">changeProcessStatus(processStatus)</text><ellipse cx="33" cy="1486.627" fill="#84BE84" rx="3" ry="3" style="stroke:#038048;stroke-width:1.0;"/><text fill="#000000" font-family="sans-serif" font-size="14" lengthAdjust="spacing" textLength="233" x="42" y="1490.418">changeProcessState(processState)</text><ellipse cx="33" cy="1503.1152" fill="#84BE84" rx="3" ry="3" style="stroke:#038048;stroke-width:1.0;"/><text fill="#000000" font-family="sans-serif" font-size="14" lengthAdjust="spacing" textLength="65" x="42" y="1506.9063">toString()</text></g><!--class JobOpeningService--><g id="elem_JobOpeningService"><rect codeLine="75" fill="#FFFFFF" height="163.418" id="JobOpeningService" rx="2.5" ry="2.5" style="stroke:#000000;stroke-width:0.5;" width="534" x="406" y="1000.4883"/><ellipse cx="604.25" cy="1016.4883" fill="#ADD1B2" rx="11" ry="11" style="stroke:#181818;stroke-width:1.0;"/><path d="M607.2231,1022.1313 Q606.6421,1022.4302 606.0029,1022.5796 Q605.3638,1022.729 604.6582,1022.729 Q602.1514,1022.729 600.8315,1021.0771 Q599.5117,1019.4253 599.5117,1016.3042 Q599.5117,1013.1748 600.8315,1011.5229 Q602.1514,1009.8711 604.6582,1009.8711 Q605.3638,1009.8711 606.0112,1010.0205 Q606.6587,1010.1699 607.2231,1010.4688 L607.2231,1013.1914 Q606.5923,1012.6104 605.9988,1012.3406 Q605.4053,1012.0708 604.7744,1012.0708 Q603.4297,1012.0708 602.7449,1013.1375 Q602.0601,1014.2041 602.0601,1016.3042 Q602.0601,1018.396 602.7449,1019.4626 Q603.4297,1020.5293 604.7744,1020.5293 Q605.4053,1020.5293 605.9988,1020.2595 Q606.5923,1019.9897 607.2231,1019.4087 Z " fill="#000000"/><text fill="#000000" font-family="sans-serif" font-size="14" lengthAdjust="spacing" textLength="129" x="624.75" y="1021.7793">JobOpeningService</text><line style="stroke:#000000;stroke-width:0.5;" x1="407" x2="939" y1="1032.4883" y2="1032.4883"/><line style="stroke:#000000;stroke-width:0.5;" x1="407" x2="939" y1="1040.4883" y2="1040.4883"/><ellipse cx="417" cy="1054.2324" fill="#84BE84" rx="3" ry="3" style="stroke:#038048;stroke-width:1.0;"/><text fill="#000000" font-family="sans-serif" font-size="14" lengthAdjust="spacing" textLength="508" x="426" y="1058.0234">registerJobOpening(jobReference, description, vacanciesNumber, address,</text><text fill="#000000" font-family="sans-serif" font-size="14" lengthAdjust="spacing" textLength="322" x="426" y="1074.5117">mode, contractType, titleOrFunction, company)</text><text fill="#000000" font-family="sans-serif" font-size="14" lengthAdjust="spacing" textLength="4" x="426" y="1091">&#160;</text><ellipse cx="417" cy="1103.6973" fill="#84BE84" rx="3" ry="3" style="stroke:#038048;stroke-width:1.0;"/><text fill="#000000" font-family="sans-serif" font-size="14" lengthAdjust="spacing" textLength="208" x="426" y="1107.4883">findJobOpening(jobReference)</text><ellipse cx="417" cy="1120.1855" fill="#84BE84" rx="3" ry="3" style="stroke:#038048;stroke-width:1.0;"/><text fill="#000000" font-family="sans-serif" font-size="14" lengthAdjust="spacing" textLength="477" x="426" y="1123.9766">updateJobRequirements(jobReference, jobRequirementsSpecification)</text><ellipse cx="417" cy="1136.6738" fill="#84BE84" rx="3" ry="3" style="stroke:#038048;stroke-width:1.0;"/><text fill="#000000" font-family="sans-serif" font-size="14" lengthAdjust="spacing" textLength="227" x="426" y="1140.4648">verifyJobReference(jobReference)</text><ellipse cx="417" cy="1153.1621" fill="#84BE84" rx="3" ry="3" style="stroke:#038048;stroke-width:1.0;"/><text fill="#000000" font-family="sans-serif" font-size="14" lengthAdjust="spacing" textLength="114" x="426" y="1156.9531">allJobOpenings()</text></g><!--class ProcessService--><g id="elem_ProcessService"><rect codeLine="86" fill="#FFFFFF" height="130.4414" id="ProcessService" rx="2.5" ry="2.5" style="stroke:#000000;stroke-width:0.5;" width="336" x="35" y="1016.9883"/><ellipse cx="148.75" cy="1032.9883" fill="#ADD1B2" rx="11" ry="11" style="stroke:#181818;stroke-width:1.0;"/><path d="M151.7231,1038.6313 Q151.1421,1038.9302 150.5029,1039.0796 Q149.8638,1039.229 149.1582,1039.229 Q146.6514,1039.229 145.3315,1037.5771 Q144.0117,1035.9253 144.0117,1032.8042 Q144.0117,1029.6748 145.3315,1028.0229 Q146.6514,1026.3711 149.1582,1026.3711 Q149.8638,1026.3711 150.5112,1026.5205 Q151.1587,1026.6699 151.7231,1026.9688 L151.7231,1029.6914 Q151.0923,1029.1104 150.4988,1028.8406 Q149.9053,1028.5708 149.2744,1028.5708 Q147.9297,1028.5708 147.2449,1029.6375 Q146.5601,1030.7041 146.5601,1032.8042 Q146.5601,1034.896 147.2449,1035.9626 Q147.9297,1037.0293 149.2744,1037.0293 Q149.9053,1037.0293 150.4988,1036.7595 Q151.0923,1036.4897 151.7231,1035.9087 Z " fill="#000000"/><text fill="#000000" font-family="sans-serif" font-size="14" lengthAdjust="spacing" textLength="100" x="169.25" y="1038.2793">ProcessService</text><line style="stroke:#000000;stroke-width:0.5;" x1="36" x2="370" y1="1048.9883" y2="1048.9883"/><line style="stroke:#000000;stroke-width:0.5;" x1="36" x2="370" y1="1056.9883" y2="1056.9883"/><ellipse cx="46" cy="1070.7324" fill="#84BE84" rx="3" ry="3" style="stroke:#038048;stroke-width:1.0;"/><text fill="#000000" font-family="sans-serif" font-size="14" lengthAdjust="spacing" textLength="202" x="55" y="1074.5234">registerProcess(processState)</text><ellipse cx="46" cy="1087.2207" fill="#84BE84" rx="3" ry="3" style="stroke:#038048;stroke-width:1.0;"/><text fill="#000000" font-family="sans-serif" font-size="14" lengthAdjust="spacing" textLength="131" x="55" y="1091.0117">findProcessByID(id)</text><ellipse cx="46" cy="1103.709" fill="#84BE84" rx="3" ry="3" style="stroke:#038048;stroke-width:1.0;"/><text fill="#000000" font-family="sans-serif" font-size="14" lengthAdjust="spacing" textLength="93" x="55" y="1107.5">allProcesses()</text><ellipse cx="46" cy="1120.1973" fill="#84BE84" rx="3" ry="3" style="stroke:#038048;stroke-width:1.0;"/><text fill="#000000" font-family="sans-serif" font-size="14" lengthAdjust="spacing" textLength="310" x="55" y="1123.9883">changeProcessStatus(processStatus, process)</text><ellipse cx="46" cy="1136.6855" fill="#84BE84" rx="3" ry="3" style="stroke:#038048;stroke-width:1.0;"/><text fill="#000000" font-family="sans-serif" font-size="14" lengthAdjust="spacing" textLength="294" x="55" y="1140.4766">changeProcessState(processState, process)</text></g><!--link ChangeProcessStatusUI to ChangeProcessStatusController--><g id="link_ChangeProcessStatusUI_ChangeProcessStatusController"><path codeLine="95" d="M721,208.9483 C721,246.9783 721,288.3083 721,323.0383 " fill="none" id="ChangeProcessStatusUI-to-ChangeProcessStatusController" style="stroke:#000000;stroke-width:1.0;"/><polygon fill="#000000" points="721,329.0383,725,320.0383,721,324.0383,717,320.0383,721,329.0383" style="stroke:#000000;stroke-width:1.0;"/></g><!--link ChangeProcessStatusController to SelectJobOpeningController--><g id="link_ChangeProcessStatusController_SelectJobOpeningController"><path codeLine="97" d="M681.72,426.9283 C652.39,462.7183 616.2828,506.7773 586.9728,542.5473 " fill="none" id="ChangeProcessStatusController-to-SelectJobOpeningController" style="stroke:#000000;stroke-width:1.0;"/><polygon fill="#000000" points="583.17,547.1883,591.9682,542.762,586.339,543.3208,585.7802,537.6916,583.17,547.1883" style="stroke:#000000;stroke-width:1.0;"/></g><!--link ChangeProcessStatusController to ChangeProcessStateController--><g id="link_ChangeProcessStatusController_ChangeProcessStateController"><path codeLine="98" d="M749.85,426.9283 C774.91,468.5583 807.3861,522.5175 828.9861,558.4075 " fill="none" id="ChangeProcessStatusController-to-ChangeProcessStateController" style="stroke:#000000;stroke-width:1.0;"/><polygon fill="#000000" points="832.08,563.5483,830.8663,553.7745,829.5017,559.2643,824.0119,557.8997,832.08,563.5483" style="stroke:#000000;stroke-width:1.0;"/></g><!--link ChangeProcessStatusController to ProcessRepository--><g id="link_ChangeProcessStatusController_ProcessRepository"><path codeLine="99" d="M889.49,418.3283 C976.23,449.6483 1064,503.8583 1064,594.9883 C1064,594.9883 1064,594.9883 1064,1082.9883 C1064,1184.1783 1030.6939,1293.6093 1009.8739,1352.6993 " fill="none" id="ChangeProcessStatusController-to-ProcessRepository" style="stroke:#000000;stroke-width:1.0;"/><polygon fill="#000000" points="1007.88,1358.3583,1014.6435,1351.1991,1009.5416,1353.6424,1007.0982,1348.5405,1007.88,1358.3583" style="stroke:#000000;stroke-width:1.0;"/></g><!--link ChangeProcessStatusController to ProcessService--><g id="link_ChangeProcessStatusController_ProcessService"><path codeLine="100" d="M552.6,396.4983 C432.06,419.4583 291,472.4983 291,594.9883 C291,594.9883 291,594.9883 291,823.4883 C291,892.1083 265.2739,960.3528 240.7639,1011.2328 " fill="none" id="ChangeProcessStatusController-to-ProcessService" style="stroke:#000000;stroke-width:1.0;"/><polygon fill="#000000" points="238.16,1016.6383,245.6696,1010.266,240.33,1012.1337,238.4623,1006.7941,238.16,1016.6383" style="stroke:#000000;stroke-width:1.0;"/></g><!--link ChangeProcessStateController to ProcessRepository--><g id="link_ChangeProcessStateController_ProcessRepository"><path codeLine="102" d="M887.2,628.3683 C929.27,668.5183 993,742.3983 993,821.4883 C993,821.4883 993,821.4883 993,1082.9883 C993,1181.9683 993,1292.4583 993,1352.2083 " fill="none" id="ChangeProcessStateController-to-ProcessRepository" style="stroke:#000000;stroke-width:1.0;"/><polygon fill="#000000" points="993,1358.2083,997,1349.2083,993,1353.2083,989,1349.2083,993,1358.2083" style="stroke:#000000;stroke-width:1.0;"/></g><!--link ChangeProcessStateController to ProcessService--><g id="link_ChangeProcessStateController_ProcessService"><path codeLine="103" d="M855.92,628.0283 C863.85,690.2583 871.57,830.5483 795,903.4883 C729.1,966.2683 474.21,925.4983 389,957.4883 C351.44,971.5883 318.7479,991.0127 287.2879,1013.2727 " fill="none" id="ChangeProcessStateController-to-ProcessService" style="stroke:#000000;stroke-width:1.0;"/><polygon fill="#000000" points="282.39,1016.7383,292.0473,1014.8052,286.4716,1013.8503,287.4265,1008.2746,282.39,1016.7383" style="stroke:#000000;stroke-width:1.0;"/></g><!--link SelectJobOpeningController to ListJobOpeningController--><g id="link_SelectJobOpeningController_ListJobOpeningController"><path codeLine="105" d="M557.65,644.8783 C567.71,680.1583 579.7741,722.4884 590.3541,759.5784 " fill="none" id="SelectJobOpeningController-to-ListJobOpeningController" style="stroke:#000000;stroke-width:1.0;"/><polygon fill="#000000" points="592,765.3483,593.3778,755.5963,590.6284,760.5401,585.6846,757.7908,592,765.3483" style="stroke:#000000;stroke-width:1.0;"/></g><!--link ListJobOpeningController to JobOpeningService--><g id="link_ListJobOpeningController_JobOpeningService"><path codeLine="107" d="M622.18,879.6783 C631.07,914.8983 641.2108,955.0609 651.0908,994.1809 " fill="none" id="ListJobOpeningController-to-JobOpeningService" style="stroke:#000000;stroke-width:1.0;"/><polygon fill="#000000" points="652.56,999.9983,654.2344,990.2928,651.3357,995.1505,646.478,992.2517,652.56,999.9983" style="stroke:#000000;stroke-width:1.0;"/></g><!--link JobOpeningService to JobOpeningRepository--><g id="link_JobOpeningService_JobOpeningRepository"><path codeLine="109" d="M700.67,1163.6983 C723.36,1229.8683 752.304,1314.3026 768.364,1361.1426 " fill="none" id="JobOpeningService-to-JobOpeningRepository" style="stroke:#000000;stroke-width:1.0;"/><polygon fill="#000000" points="770.31,1366.8183,771.1748,1357.0075,768.6883,1362.0886,763.6072,1359.6021,770.31,1366.8183" style="stroke:#000000;stroke-width:1.0;"/></g><!--link ProcessService to Process--><g id="link_ProcessService_Process"><path codeLine="111" d="M203,1147.1083 C203,1186.5083 203,1232.0983 203,1278.2483 " fill="none" id="ProcessService-to-Process" style="stroke:#000000;stroke-width:1.0;"/><polygon fill="#000000" points="203,1284.2483,207,1275.2483,203,1279.2483,199,1275.2483,203,1284.2483" style="stroke:#000000;stroke-width:1.0;"/></g><!--SRC=[nLN9Rjim4BtpAuXSeg3oeK3F1M8R0LmKJM2bw9aXHn8JYbH9se4QvDzBBOv8BNQSItYIPkFCSDwyI_F4PKaqAR3W4cnL0bRQvWfT2aWjjWfhdkKMCww1MguaGgZteO8OWryGTcT9w5EcrKwobH9Aupyvjz1ehhLMpwrmAPnLQwuq0psKtYXffsG9_mVuwpVqYj0zjmBmnQgvUir9LYUom5l8kB6WCS6KICOPiN21KEcYaCpPbneCI4lg6YwwbDlqLpcH6TnfHS6On5dipEzDPr6VBvYf95VFqPKdoe6mkcE1q81mJMf310ewlY8g_JySTxz7lS1tWe7FQzsSjt99MGfEtrVjoZLOAo5Syrv6rVnG3xSbI2wpJwZeIDema_N7hqW6zNwaBKFbjIIYCjnC62bzHxIDX9lQSIu_dVHq9cueUwF17Q5kCWyYn9nxoYNhTSlAVMyX1GsIGlJe_KpDdePI6UuAv60EmyUbmsPAAE0-xFPWLmLbJQRbueTXkXUUZz4PG5YOIZVChG5kgsZZOcMkfPnD5S5KGVW0Ert8uAPE5WpPOSRMtdUBYgi9p-3PI07N9b8s1nq0HnLkuyAz6glueHvVw6SpfnZiA2_dyv1-1i1zKwiIgtlyXDqteFUSzkFJzhyVYwJL1o-XEmRmeEbFQemP6AfvMU_46E-9emdg9lJNhdW07MF2cAC84xz5h4-Xc7EaDVu8jVUE7cDiQmAwrJSxITjGpUF8wWhD0cW2CgtPhgnvga7NtvsZsCAzfHca_HXgan8eJxlTxiVQW-RfAQJEGCp7M33hnnezDVh39TBPBAlDEZe0xGH4JmvSZC-dbe5FCstJnBzOBBuVPyb9Jsz7Dn7csUGztiVexZt-e-ruXbFtv1DLmWUkWLEt7A7TndwE2X6Q9Sd6RxGi41hlZu6bLmWQ0C3F7Vq7]--></g></svg>