<?xml version="1.0" encoding="us-ascii" standalone="no"?><svg xmlns="http://www.w3.org/2000/svg" xmlns:xlink="http://www.w3.org/1999/xlink" contentStyleType="text/css" height="990px" preserveAspectRatio="none" style="width:878px;height:990px;background:#FFFFFF;" version="1.1" viewBox="0 0 878 990" width="878px" zoomAndPan="magnify"><defs/><g><text fill="#000000" font-family="sans-serif" font-size="14" font-weight="bold" lengthAdjust="spacing" textLength="268" x="298" y="23.5352">Domain Model - Ranking Candidates</text><!--cluster Job Opening Aggregate--><g id="cluster_Job Opening Aggregate"><rect fill="none" height="535" rx="2.5" ry="2.5" style="stroke:#000000;stroke-width:1.5;" width="606" x="7" y="44.4883"/><text fill="#000000" font-family="sans-serif" font-size="14" font-weight="bold" lengthAdjust="spacing" textLength="168" x="226" y="60.0234">Job Opening Aggregate</text></g><!--cluster Process Aggregate--><g id="cluster_Process Aggregate"><rect fill="none" height="381" rx="2.5" ry="2.5" style="stroke:#000000;stroke-width:1.5;" width="663" x="209" y="603.4883"/><text fill="#000000" font-family="sans-serif" font-size="14" font-weight="bold" lengthAdjust="spacing" textLength="133" x="474" y="619.0234">Process Aggregate</text></g><!--class JobOpening--><g id="elem_JobOpening"><rect codeLine="25" fill="#F0FFFF" height="62.7539" id="JobOpening" rx="2.5" ry="2.5" style="stroke:#000000;stroke-width:0.5;" width="113" x="23" y="326.9883"/><ellipse cx="38" cy="354.3652" fill="#ADD1B2" rx="11" ry="11" style="stroke:#181818;stroke-width:1.0;"/><path d="M42.1143,360.3652 L34.3945,360.3652 L34.3945,347.9722 L42.1143,347.9722 L42.1143,350.1304 L36.8433,350.1304 L36.8433,352.8032 L41.6162,352.8032 L41.6162,354.9614 L36.8433,354.9614 L36.8433,358.207 L42.1143,358.207 Z " fill="#000000"/><text fill="#000000" font-family="sans-serif" font-size="12" font-style="italic" lengthAdjust="spacing" textLength="43" x="71" y="343.5898">&#171;entity&#187;</text><text fill="#000000" font-family="sans-serif" font-size="12" font-style="italic" lengthAdjust="spacing" textLength="35" x="75" y="357.7227">&#171;root&#187;</text><text fill="#000000" font-family="sans-serif" font-size="14" lengthAdjust="spacing" textLength="81" x="52" y="373.7891">JobOpening</text><line style="stroke:#000000;stroke-width:0.5;" x1="24" x2="135" y1="381.7422" y2="381.7422"/></g><g id="elem_GMN18"><path d="M398,380.4883 L398,398.8583 L327.44,398.8683 L398,406.8583 L398,436.4199 A0,0 0 0 0 398,436.4199 L597,436.4199 A0,0 0 0 0 597,436.4199 L597,390.4883 L587,380.4883 L398,380.4883 A0,0 0 0 0 398,380.4883 " fill="#FEFFDD" style="stroke:#181818;stroke-width:0.5;"/><path d="M587,380.4883 L587,390.4883 L597,390.4883 L587,380.4883 " fill="#FEFFDD" style="stroke:#181818;stroke-width:0.5;"/><text fill="#000000" font-family="sans-serif" font-size="13" lengthAdjust="spacing" textLength="178" x="404" y="398.0566">Can be one of the following:</text><text fill="#000000" font-family="sans-serif" font-size="13" lengthAdjust="spacing" textLength="69" x="404" y="413.3672">- full-time</text><text fill="#000000" font-family="sans-serif" font-size="13" lengthAdjust="spacing" textLength="73" x="404" y="428.6777">- part-time</text></g><g id="elem_GMN21"><path d="M398,273.9883 L398,310.6883 L327.44,318.3683 L398,318.6883 L398,345.2305 A0,0 0 0 0 398,345.2305 L597,345.2305 A0,0 0 0 0 597,345.2305 L597,283.9883 L587,273.9883 L398,273.9883 A0,0 0 0 0 398,273.9883 " fill="#FEFFDD" style="stroke:#181818;stroke-width:0.5;"/><path d="M587,273.9883 L587,283.9883 L597,283.9883 L587,273.9883 " fill="#FEFFDD" style="stroke:#181818;stroke-width:0.5;"/><text fill="#000000" font-family="sans-serif" font-size="13" lengthAdjust="spacing" textLength="178" x="404" y="291.5566">Can be one of the following:</text><text fill="#000000" font-family="sans-serif" font-size="13" lengthAdjust="spacing" textLength="56" x="404" y="306.8672">- remote</text><text fill="#000000" font-family="sans-serif" font-size="13" lengthAdjust="spacing" textLength="52" x="404" y="322.1777">- hybrid</text><text fill="#000000" font-family="sans-serif" font-size="13" lengthAdjust="spacing" textLength="51" x="404" y="337.4883">- onsite</text></g><!--entity JobReference--><g id="elem_JobReference"><rect fill="#F0FFDD" height="38.9766" rx="2.5" ry="2.5" style="stroke:#000000;stroke-width:0.5;" width="120" x="207" y="523.9883"/><text fill="#000000" font-family="sans-serif" font-size="14" font-style="italic" lengthAdjust="spacing" textLength="100" x="217" y="540.5234">&#171;Value Object&#187;</text><text fill="#000000" font-family="sans-serif" font-size="14" lengthAdjust="spacing" textLength="90" x="222" y="557.0117">JobReference</text></g><!--entity TitleOrFunction--><g id="elem_TitleOrFunction"><rect fill="#F0FFDD" height="38.9766" rx="2.5" ry="2.5" style="stroke:#000000;stroke-width:0.5;" width="127" x="203.5" y="449.9883"/><text fill="#000000" font-family="sans-serif" font-size="14" font-style="italic" lengthAdjust="spacing" textLength="100" x="217" y="466.5234">&#171;Value Object&#187;</text><text fill="#000000" font-family="sans-serif" font-size="14" lengthAdjust="spacing" textLength="107" x="213.5" y="483.0117">TitleOrFunction</text></g><!--entity ContractType--><g id="elem_ContractType"><rect fill="#F0FFDD" height="38.9766" rx="2.5" ry="2.5" style="stroke:#000000;stroke-width:0.5;" width="120" x="207" y="375.9883"/><text fill="#000000" font-family="sans-serif" font-size="14" font-style="italic" lengthAdjust="spacing" textLength="100" x="217" y="392.5234">&#171;Value Object&#187;</text><text fill="#000000" font-family="sans-serif" font-size="14" lengthAdjust="spacing" textLength="92" x="221" y="409.0117">ContractType</text></g><!--entity Mode--><g id="elem_Mode"><rect fill="#F0FFDD" height="38.9766" rx="2.5" ry="2.5" style="stroke:#000000;stroke-width:0.5;" width="120" x="207" y="301.9883"/><text fill="#000000" font-family="sans-serif" font-size="14" font-style="italic" lengthAdjust="spacing" textLength="100" x="217" y="318.5234">&#171;Value Object&#187;</text><text fill="#000000" font-family="sans-serif" font-size="14" lengthAdjust="spacing" textLength="38" x="248" y="335.0117">Mode</text></g><!--entity Address--><g id="elem_Address"><rect fill="#F0FFDD" height="38.9766" rx="2.5" ry="2.5" style="stroke:#000000;stroke-width:0.5;" width="120" x="207" y="227.9883"/><text fill="#000000" font-family="sans-serif" font-size="14" font-style="italic" lengthAdjust="spacing" textLength="100" x="217" y="244.5234">&#171;Value Object&#187;</text><text fill="#000000" font-family="sans-serif" font-size="14" lengthAdjust="spacing" textLength="56" x="239" y="261.0117">Address</text></g><!--entity VacanciesNumber--><g id="elem_VacanciesNumber"><rect fill="#F0FFDD" height="38.9766" rx="2.5" ry="2.5" style="stroke:#000000;stroke-width:0.5;" width="142" x="196" y="153.9883"/><text fill="#000000" font-family="sans-serif" font-size="14" font-style="italic" lengthAdjust="spacing" textLength="100" x="217" y="170.5234">&#171;Value Object&#187;</text><text fill="#000000" font-family="sans-serif" font-size="14" lengthAdjust="spacing" textLength="122" x="206" y="187.0117">VacanciesNumber</text></g><!--entity Description--><g id="elem_Description"><rect fill="#F0FFDD" height="38.9766" rx="2.5" ry="2.5" style="stroke:#000000;stroke-width:0.5;" width="120" x="207" y="79.9883"/><text fill="#000000" font-family="sans-serif" font-size="14" font-style="italic" lengthAdjust="spacing" textLength="100" x="217" y="96.5234">&#171;Value Object&#187;</text><text fill="#000000" font-family="sans-serif" font-size="14" lengthAdjust="spacing" textLength="78" x="228" y="113.0117">Description</text></g><!--class Process--><g id="elem_Process"><rect codeLine="66" fill="#F0FFFF" height="62.7539" id="Process" rx="2.5" ry="2.5" style="stroke:#000000;stroke-width:0.5;" width="84" x="225" y="691.9883"/><ellipse cx="240" cy="719.3652" fill="#ADD1B2" rx="11" ry="11" style="stroke:#181818;stroke-width:1.0;"/><path d="M244.1143,725.3652 L236.3945,725.3652 L236.3945,712.9722 L244.1143,712.9722 L244.1143,715.1304 L238.8433,715.1304 L238.8433,717.8032 L243.6162,717.8032 L243.6162,719.9614 L238.8433,719.9614 L238.8433,723.207 L244.1143,723.207 Z " fill="#000000"/><text fill="#000000" font-family="sans-serif" font-size="12" font-style="italic" lengthAdjust="spacing" textLength="43" x="258.5" y="708.5898">&#171;entity&#187;</text><text fill="#000000" font-family="sans-serif" font-size="12" font-style="italic" lengthAdjust="spacing" textLength="35" x="262.5" y="722.7227">&#171;root&#187;</text><text fill="#000000" font-family="sans-serif" font-size="14" lengthAdjust="spacing" textLength="52" x="254" y="738.7891">Process</text><line style="stroke:#000000;stroke-width:0.5;" x1="226" x2="308" y1="746.7422" y2="746.7422"/></g><g id="elem_GMN32"><path d="M657,729.4883 L657,772.6483 L557.78,772.7983 L657,780.6483 L657,831.3516 A0,0 0 0 0 657,831.3516 L856,831.3516 A0,0 0 0 0 856,831.3516 L856,739.4883 L846,729.4883 L657,729.4883 A0,0 0 0 0 657,729.4883 " fill="#FEFFDD" style="stroke:#181818;stroke-width:0.5;"/><path d="M846,729.4883 L846,739.4883 L856,739.4883 L846,729.4883 " fill="#FEFFDD" style="stroke:#181818;stroke-width:0.5;"/><text fill="#000000" font-family="sans-serif" font-size="13" lengthAdjust="spacing" textLength="178" x="663" y="747.0566">Can be one of the following:</text><text fill="#000000" font-family="sans-serif" font-size="13" lengthAdjust="spacing" textLength="140" x="663" y="762.3672">- applicationStartDate</text><text fill="#000000" font-family="sans-serif" font-size="13" lengthAdjust="spacing" textLength="131" x="663" y="777.6777">- ScreeningStartDate</text><text fill="#000000" font-family="sans-serif" font-size="13" lengthAdjust="spacing" textLength="134" x="663" y="792.9883">- InterviewsStartDate</text><text fill="#000000" font-family="sans-serif" font-size="13" lengthAdjust="spacing" textLength="123" x="663" y="808.2988">- AnalysisStartDate</text><text fill="#000000" font-family="sans-serif" font-size="13" lengthAdjust="spacing" textLength="109" x="663" y="823.6094">- ResultStartDate</text></g><g id="elem_GMN35"><path d="M657,866.4883 L657,901.5783 L557.78,893.6383 L657,909.5783 L657,968.3516 A0,0 0 0 0 657,968.3516 L856,968.3516 A0,0 0 0 0 856,968.3516 L856,876.4883 L846,866.4883 L657,866.4883 A0,0 0 0 0 657,866.4883 " fill="#FEFFDD" style="stroke:#181818;stroke-width:0.5;"/><path d="M846,866.4883 L846,876.4883 L856,876.4883 L846,866.4883 " fill="#FEFFDD" style="stroke:#181818;stroke-width:0.5;"/><text fill="#000000" font-family="sans-serif" font-size="13" lengthAdjust="spacing" textLength="178" x="663" y="884.0566">Can be one of the following:</text><text fill="#000000" font-family="sans-serif" font-size="13" lengthAdjust="spacing" textLength="84" x="663" y="899.3672">- Application</text><text fill="#000000" font-family="sans-serif" font-size="13" lengthAdjust="spacing" textLength="73" x="663" y="914.6777">- Screening</text><text fill="#000000" font-family="sans-serif" font-size="13" lengthAdjust="spacing" textLength="76" x="663" y="929.9883">- Interviews</text><text fill="#000000" font-family="sans-serif" font-size="13" lengthAdjust="spacing" textLength="65" x="663" y="945.2988">- Analysis</text><text fill="#000000" font-family="sans-serif" font-size="13" lengthAdjust="spacing" textLength="51" x="663" y="960.6094">- Result</text></g><g id="elem_GMN38"><path d="M657,638.4883 L657,666.3283 L557.78,674.1783 L657,674.3283 L657,694.4199 A0,0 0 0 0 657,694.4199 L856,694.4199 A0,0 0 0 0 856,694.4199 L856,648.4883 L846,638.4883 L657,638.4883 A0,0 0 0 0 657,638.4883 " fill="#FEFFDD" style="stroke:#181818;stroke-width:0.5;"/><path d="M846,638.4883 L846,648.4883 L856,648.4883 L846,638.4883 " fill="#FEFFDD" style="stroke:#181818;stroke-width:0.5;"/><text fill="#000000" font-family="sans-serif" font-size="13" lengthAdjust="spacing" textLength="178" x="663" y="656.0566">Can be one of the following:</text><text fill="#000000" font-family="sans-serif" font-size="13" lengthAdjust="spacing" textLength="45" x="663" y="671.3672">- Open</text><text fill="#000000" font-family="sans-serif" font-size="13" lengthAdjust="spacing" textLength="47" x="663" y="686.6777">- Close</text></g><!--entity ProcessState--><g id="elem_ProcessState"><rect fill="#F0FFDD" height="38.9766" rx="2.5" ry="2.5" style="stroke:#000000;stroke-width:0.5;" width="120" x="437.5" y="866.9883"/><text fill="#000000" font-family="sans-serif" font-size="14" font-style="italic" lengthAdjust="spacing" textLength="100" x="447.5" y="883.5234">&#171;Value Object&#187;</text><text fill="#000000" font-family="sans-serif" font-size="14" lengthAdjust="spacing" textLength="86" x="454.5" y="900.0117">ProcessState</text></g><!--entity ProcessDate--><g id="elem_ProcessDate"><rect fill="#F0FFDD" height="38.9766" rx="2.5" ry="2.5" style="stroke:#000000;stroke-width:0.5;" width="120" x="437.5" y="750.9883"/><text fill="#000000" font-family="sans-serif" font-size="14" font-style="italic" lengthAdjust="spacing" textLength="100" x="447.5" y="767.5234">&#171;Value Object&#187;</text><text fill="#000000" font-family="sans-serif" font-size="14" lengthAdjust="spacing" textLength="83" x="456" y="784.0117">ProcessDate</text></g><!--entity ProcessStatus--><g id="elem_ProcessStatus"><rect fill="#F0FFDD" height="38.9766" rx="2.5" ry="2.5" style="stroke:#000000;stroke-width:0.5;" width="120" x="437.5" y="656.9883"/><text fill="#000000" font-family="sans-serif" font-size="14" font-style="italic" lengthAdjust="spacing" textLength="100" x="447.5" y="673.5234">&#171;Value Object&#187;</text><text fill="#000000" font-family="sans-serif" font-size="14" lengthAdjust="spacing" textLength="94" x="450.5" y="690.0117">ProcessStatus</text></g><!--link JobOpening to JobReference--><g id="link_JobOpening_JobReference"><path codeLine="42" d="M99.6,390.2883 C120.24,422.6383 155.65,472.6883 196,506.4883 C203.69,512.9283 207.4473,515.7904 216.3773,520.7604 " fill="none" id="JobOpening-to-JobReference" style="stroke:#808080;stroke-width:1.0;"/><polygon fill="#808080" points="221.62,523.6783,215.7011,515.8064,217.2511,521.2467,211.8107,522.7967,221.62,523.6783" style="stroke:#808080;stroke-width:1.0;"/></g><!--link JobOpening to TitleOrFunction--><g id="link_JobOpening_TitleOrFunction"><path codeLine="43" d="M128.27,390.3583 C148.86,403.7683 173.37,419.2883 196,432.4883 C205.86,438.2383 211.3766,441.3422 221.5066,446.7022 " fill="none" id="JobOpening-to-TitleOrFunction" style="stroke:#808080;stroke-width:1.0;"/><polygon fill="#808080" points="226.81,449.5083,220.7257,441.7635,222.3905,447.1698,216.9842,448.8347,226.81,449.5083" style="stroke:#808080;stroke-width:1.0;"/></g><!--link JobOpening to ContractType--><g id="link_JobOpening_ContractType"><path codeLine="44" d="M136.41,369.6383 C158.6,374.0683 178.2558,377.9851 200.7758,382.4751 " fill="none" id="JobOpening-to-ContractType" style="stroke:#808080;stroke-width:1.0;"/><polygon fill="#808080" points="206.66,383.6483,198.6158,377.9657,201.7565,382.6706,197.0516,385.8113,206.66,383.6483" style="stroke:#808080;stroke-width:1.0;"/></g><!--link JobOpening to Mode--><g id="link_JobOpening_Mode"><path codeLine="45" d="M136.41,347.3383 C158.6,342.9083 178.2558,338.9915 200.7758,334.5015 " fill="none" id="JobOpening-to-Mode" style="stroke:#808080;stroke-width:1.0;"/><polygon fill="#808080" points="206.66,333.3283,197.0516,331.1653,201.7565,334.3059,198.6158,339.0108,206.66,333.3283" style="stroke:#808080;stroke-width:1.0;"/></g><!--link JobOpening to Address--><g id="link_JobOpening_Address"><path codeLine="46" d="M128.27,326.6183 C148.86,313.2083 173.37,297.6883 196,284.4883 C205.86,278.7383 211.3766,275.6344 221.5066,270.2744 " fill="none" id="JobOpening-to-Address" style="stroke:#808080;stroke-width:1.0;"/><polygon fill="#808080" points="226.81,267.4683,216.9842,268.1419,222.3905,269.8067,220.7257,275.213,226.81,267.4683" style="stroke:#808080;stroke-width:1.0;"/></g><!--link JobOpening to VacanciesNumber--><g id="link_JobOpening_VacanciesNumber"><path codeLine="47" d="M99.6,326.6883 C120.24,294.3383 155.65,244.2883 196,210.4883 C203.69,204.0483 207.4473,201.1861 216.3773,196.2161 " fill="none" id="JobOpening-to-VacanciesNumber" style="stroke:#808080;stroke-width:1.0;"/><polygon fill="#808080" points="221.62,193.2983,211.8107,194.1799,217.2511,195.7298,215.7011,201.1702,221.62,193.2983" style="stroke:#808080;stroke-width:1.0;"/></g><!--link JobOpening to Description--><g id="link_JobOpening_Description"><path codeLine="48" d="M90.16,326.8583 C105.79,280.1483 140.58,192.2783 196,136.4883 C202.59,129.8583 205.4426,127.1705 213.6726,122.3505 " fill="none" id="JobOpening-to-Description" style="stroke:#808080;stroke-width:1.0;"/><polygon fill="#808080" points="218.85,119.3183,209.0624,120.415,214.5355,121.8451,213.1054,127.3182,218.85,119.3183" style="stroke:#808080;stroke-width:1.0;"/></g><!--link Process to ProcessState--><g id="link_Process_ProcessState"><path codeLine="75" d="M309.38,753.0083 C355.55,785.9383 424.0853,834.8341 463.8453,863.1941 " fill="none" id="Process-to-ProcessState" style="stroke:#808080;stroke-width:1.0;"/><polygon fill="#808080" points="468.73,866.6783,463.7257,858.1955,464.6594,863.7748,459.0801,864.7085,468.73,866.6783" style="stroke:#808080;stroke-width:1.0;"/></g><!--link Process to ProcessDate--><g id="link_Process_ProcessDate"><path codeLine="76" d="M309.38,731.9983 C345.13,739.3583 391.3531,748.8589 431.4931,757.1189 " fill="none" id="Process-to-ProcessDate" style="stroke:#808080;stroke-width:1.0;"/><polygon fill="#808080" points="437.37,758.3283,429.3609,752.5964,432.4726,757.3205,427.7485,760.4322,437.37,758.3283" style="stroke:#808080;stroke-width:1.0;"/></g><!--link Process to ProcessStatus--><g id="link_Process_ProcessStatus"><path codeLine="77" d="M309.38,714.9783 C345.13,707.6183 391.3531,698.1176 431.4931,689.8576 " fill="none" id="Process-to-ProcessStatus" style="stroke:#808080;stroke-width:1.0;"/><polygon fill="#808080" points="437.37,688.6483,427.7485,686.5444,432.4726,689.6561,429.3609,694.3802,437.37,688.6483" style="stroke:#808080;stroke-width:1.0;"/></g><!--link JobOpening to Process--><g id="link_JobOpening_Process"><path codeLine="104" d="M96.64,390.2383 C131.72,459.2683 211.8815,616.9995 247.0515,686.1995 " fill="none" id="JobOpening-to-Process" style="stroke:#808080;stroke-width:1.0;"/><polygon fill="#808080" points="249.77,691.5483,249.2582,681.7127,247.5046,687.0909,242.1264,685.3374,249.77,691.5483" style="stroke:#808080;stroke-width:1.0;"/></g><!--SRC=[fLJ1Zjem4BtdAonwZjHpXI858bPKT460zcxYIN1nx6Zi5A7L_dlj11OdU2cekI3cFS_CUvxndZCW5PYzOZeIK1XY545UxWrX724tNCaesd8ZW8moLL4koI_5G92OhAayS5cIAPMCCsf0Zw98sr1DaLOa5rHhyXuH-oru0GikOQAG0KwLK4WoYeU9QA1FeFcXHDL8rf7IrMendwRR-VArvGtnRxFlC_krM8geZbsuH3XrVA_WJjZ3qOVVOsqZj8IDELbzJYwLfO2U2ehiZeWN193_ho3BXWgSEoyX5PEBYdFlPFHJxSYo1kdk8YsjzDBUnUWz0ccuEH4BNz3nk8iboNYCIfaaYThyhKZBMqC12387otoZzcx8SlVRkf8aPmi-hlHs9fOuQsGx90-Sc2ffaEPcUweVAU36x05QoXY27RH_CzzeJcNEGRysrGxmWHCPw1nvVLzV- -EP7CT9pyiGFZ0lHF7T2k7Edb3yx4S86XWGedYAEs5I6JW_2AguRSfzTl_93eYIu2Xc3wHGGgYZpVdZanIJeX4YDhm2BsPtp5nZ85bRBrJvK-xZ9Mr-XChbyoBxqmuvyoDAQcw63VZxjKALkmaBxDO5khjOPzB6sACF3DsPdZt5TicRsoNepUYbMNVFVazVWTaThAiNkgZXuIScXDQru3brmsVpe-dbYCacTu-jFHC2vz80_k5mr24qbLISD0zYQz2DC7tatYJUMFU4mlIgC2Gig2SWuwRxPvfkzBDTkmV2-piLIWzikdq5_M69_W80]--></g></svg>