<?xml version="1.0" encoding="us-ascii" standalone="no"?><svg xmlns="http://www.w3.org/2000/svg" xmlns:xlink="http://www.w3.org/1999/xlink" contentStyleType="text/css" height="831px" preserveAspectRatio="none" style="width:1651px;height:831px;background:#FFFFFF;" version="1.1" viewBox="0 0 1651 831" width="1651.2px" zoomAndPan="magnify"><defs/><g><rect fill="#FFFFFF" height="707.2395" style="stroke:#181818;stroke-width:0.6;" width="6" x="39.9" y="56.3859"/><rect fill="#FFFFFF" height="333.5402" style="stroke:#181818;stroke-width:0.6;" width="6" x="221.1" y="78.3586"/><rect fill="#FFFFFF" height="334.1402" style="stroke:#181818;stroke-width:0.6;" width="6" x="221.1" y="429.4852"/><rect fill="#FFFFFF" height="289.1813" style="stroke:#181818;stroke-width:0.6;" width="6" x="422.7" y="95.9449"/><rect fill="#FFFFFF" height="123.1043" style="stroke:#181818;stroke-width:0.6;" width="6" x="422.7" y="447.0715"/><rect fill="#FFFFFF" height="158.277" style="stroke:#181818;stroke-width:0.6;" width="6" x="422.7" y="587.7621"/><rect fill="#FFFFFF" height="254.0086" style="stroke:#181818;stroke-width:0.6;" width="6" x="559.5" y="113.5313"/><rect fill="#FFFFFF" height="108.518" style="stroke:#181818;stroke-width:0.6;" width="6" x="562.5" y="241.4355"/><rect fill="#FFFFFF" height="87.9316" style="stroke:#181818;stroke-width:0.6;" width="6" x="762.3" y="131.1176"/><rect fill="#FFFFFF" height="87.9316" style="stroke:#181818;stroke-width:0.6;" width="6" x="762.3" y="262.0219"/><rect fill="#FFFFFF" height="52.759" style="stroke:#181818;stroke-width:0.6;" width="6" x="924.9" y="148.7039"/><rect fill="#FFFFFF" height="52.759" style="stroke:#181818;stroke-width:0.6;" width="6" x="924.9" y="279.6082"/><rect fill="#FFFFFF" height="17.5863" style="stroke:#181818;stroke-width:0.6;" width="6" x="1092.9" y="166.2902"/><rect fill="#FFFFFF" height="17.5863" style="stroke:#181818;stroke-width:0.6;" width="6" x="1092.9" y="297.1945"/><rect fill="#FFFFFF" height="123.1043" style="stroke:#181818;stroke-width:0.6;" width="6" x="1213.8" y="605.3484"/><rect fill="#FFFFFF" height="52.759" style="stroke:#181818;stroke-width:0.6;" width="6" x="1371.6" y="464.6578"/><rect fill="#FFFFFF" height="52.759" style="stroke:#181818;stroke-width:0.6;" width="6" x="1371.6" y="622.9348"/><rect fill="#FFFFFF" height="17.5863" style="stroke:#181818;stroke-width:0.6;" width="6" x="1539" y="482.2441"/><rect fill="#FFFFFF" height="17.5863" style="stroke:#181818;stroke-width:0.6;" width="6" x="1539" y="640.5211"/><rect fill="#FFFFFF" height="17.5863" style="stroke:#181818;stroke-width:0.6;" width="6" x="1608.6" y="535.0031"/><rect fill="#FFFFFF" height="17.5863" style="stroke:#181818;stroke-width:0.6;" width="6" x="1608.6" y="693.2801"/><line style="stroke:#181818;stroke-width:0.3;stroke-dasharray:5.0,5.0;" x1="42.6" x2="42.6" y1="50.3859" y2="774.4254"/><line style="stroke:#181818;stroke-width:0.3;stroke-dasharray:5.0,5.0;" x1="223.8" x2="223.8" y1="50.3859" y2="774.4254"/><line style="stroke:#181818;stroke-width:0.3;stroke-dasharray:5.0,5.0;" x1="425.4" x2="425.4" y1="50.3859" y2="774.4254"/><line style="stroke:#181818;stroke-width:0.3;stroke-dasharray:5.0,5.0;" x1="562.2" x2="562.2" y1="50.3859" y2="774.4254"/><line style="stroke:#181818;stroke-width:0.3;stroke-dasharray:5.0,5.0;" x1="765.3" x2="765.3" y1="50.3859" y2="774.4254"/><line style="stroke:#181818;stroke-width:0.3;stroke-dasharray:5.0,5.0;" x1="927.6" x2="927.6" y1="50.3859" y2="774.4254"/><line style="stroke:#181818;stroke-width:0.3;stroke-dasharray:5.0,5.0;" x1="1095.9" x2="1095.9" y1="50.3859" y2="774.4254"/><line style="stroke:#181818;stroke-width:0.3;stroke-dasharray:5.0,5.0;" x1="1216.5" x2="1216.5" y1="50.3859" y2="774.4254"/><line style="stroke:#181818;stroke-width:0.3;stroke-dasharray:5.0,5.0;" x1="1374.6" x2="1374.6" y1="50.3859" y2="774.4254"/><line style="stroke:#181818;stroke-width:0.3;stroke-dasharray:5.0,5.0;" x1="1541.7" x2="1541.7" y1="50.3859" y2="774.4254"/><line style="stroke:#181818;stroke-width:0.3;stroke-dasharray:5.0,5.0;" x1="1611.3" x2="1611.3" y1="50.3859" y2="774.4254"/><text fill="#000000" font-family="sans-serif" font-size="8.4" lengthAdjust="spacing" textLength="76.2" x="3" y="48.6141">CustomerManager</text><ellipse cx="42.9" cy="9.593" fill="#E2E2F0" rx="4.8" ry="4.8" style="stroke:#181818;stroke-width:0.3;"/><path d="M42.9,14.393 L42.9,30.593 M35.1,19.193 L50.7,19.193 M42.9,30.593 L35.1,39.593 M42.9,30.593 L50.7,39.593 " fill="none" style="stroke:#181818;stroke-width:0.3;"/><text fill="#000000" font-family="sans-serif" font-size="8.4" lengthAdjust="spacing" textLength="76.2" x="3" y="781.9465">CustomerManager</text><ellipse cx="42.9" cy="788.8184" fill="#E2E2F0" rx="4.8" ry="4.8" style="stroke:#181818;stroke-width:0.3;"/><path d="M42.9,793.6184 L42.9,809.8184 M35.1,798.4184 L50.7,798.4184 M42.9,809.8184 L35.1,818.8184 M42.9,809.8184 L50.7,818.8184 " fill="none" style="stroke:#181818;stroke-width:0.3;"/><rect fill="#E2E2F0" height="28.1859" rx="1.5" ry="1.5" style="stroke:#181818;stroke-width:0.3;" width="105" x="171.6" y="21.6"/><text fill="#000000" font-family="sans-serif" font-size="8.4" font-style="italic" lengthAdjust="spacing" textLength="60.6" x="193.8" y="33.9211">&#171;presentation&#187;</text><text fill="#000000" font-family="sans-serif" font-size="8.4" lengthAdjust="spacing" textLength="96.6" x="175.8" y="43.8141">ChangeProcessStatusUI</text><rect fill="#E2E2F0" height="28.1859" rx="1.5" ry="1.5" style="stroke:#181818;stroke-width:0.3;" width="105" x="171.6" y="773.8254"/><text fill="#000000" font-family="sans-serif" font-size="8.4" font-style="italic" lengthAdjust="spacing" textLength="60.6" x="193.8" y="786.1465">&#171;presentation&#187;</text><text fill="#000000" font-family="sans-serif" font-size="8.4" lengthAdjust="spacing" textLength="96.6" x="175.8" y="796.0395">ChangeProcessStatusUI</text><rect fill="#E2E2F0" height="28.1859" rx="1.5" ry="1.5" style="stroke:#181818;stroke-width:0.3;" width="138.6" x="356.4" y="21.6"/><text fill="#000000" font-family="sans-serif" font-size="8.4" font-style="italic" lengthAdjust="spacing" textLength="48.6" x="401.4" y="33.9211">&#171;controller&#187;</text><text fill="#000000" font-family="sans-serif" font-size="8.4" lengthAdjust="spacing" textLength="130.2" x="360.6" y="43.8141">ChangeProcessStatusController</text><rect fill="#E2E2F0" height="28.1859" rx="1.5" ry="1.5" style="stroke:#181818;stroke-width:0.3;" width="138.6" x="356.4" y="773.8254"/><text fill="#000000" font-family="sans-serif" font-size="8.4" font-style="italic" lengthAdjust="spacing" textLength="48.6" x="401.4" y="786.1465">&#171;controller&#187;</text><text fill="#000000" font-family="sans-serif" font-size="8.4" lengthAdjust="spacing" textLength="130.2" x="360.6" y="796.0395">ChangeProcessStatusController</text><rect fill="#E2E2F0" height="28.1859" rx="1.5" ry="1.5" style="stroke:#181818;stroke-width:0.3;" width="123" x="501" y="21.6"/><text fill="#000000" font-family="sans-serif" font-size="8.4" font-style="italic" lengthAdjust="spacing" textLength="48.6" x="538.2" y="33.9211">&#171;controller&#187;</text><text fill="#000000" font-family="sans-serif" font-size="8.4" lengthAdjust="spacing" textLength="114.6" x="505.2" y="43.8141">SelectJobOpeningController</text><rect fill="#E2E2F0" height="28.1859" rx="1.5" ry="1.5" style="stroke:#181818;stroke-width:0.3;" width="123" x="501" y="773.8254"/><text fill="#000000" font-family="sans-serif" font-size="8.4" font-style="italic" lengthAdjust="spacing" textLength="48.6" x="538.2" y="786.1465">&#171;controller&#187;</text><text fill="#000000" font-family="sans-serif" font-size="8.4" lengthAdjust="spacing" textLength="114.6" x="505.2" y="796.0395">SelectJobOpeningController</text><rect fill="#E2E2F0" height="28.1859" rx="1.5" ry="1.5" style="stroke:#181818;stroke-width:0.3;" width="112.8" x="708.9" y="21.6"/><text fill="#000000" font-family="sans-serif" font-size="8.4" font-style="italic" lengthAdjust="spacing" textLength="48.6" x="741" y="33.9211">&#171;controller&#187;</text><text fill="#000000" font-family="sans-serif" font-size="8.4" lengthAdjust="spacing" textLength="104.4" x="713.1" y="43.8141">ListJobOpeningController</text><rect fill="#E2E2F0" height="28.1859" rx="1.5" ry="1.5" style="stroke:#181818;stroke-width:0.3;" width="112.8" x="708.9" y="773.8254"/><text fill="#000000" font-family="sans-serif" font-size="8.4" font-style="italic" lengthAdjust="spacing" textLength="48.6" x="741" y="786.1465">&#171;controller&#187;</text><text fill="#000000" font-family="sans-serif" font-size="8.4" lengthAdjust="spacing" textLength="104.4" x="713.1" y="796.0395">ListJobOpeningController</text><rect fill="#E2E2F0" height="28.1859" rx="1.5" ry="1.5" style="stroke:#181818;stroke-width:0.3;" width="85.8" x="885" y="21.6"/><text fill="#000000" font-family="sans-serif" font-size="8.4" font-style="italic" lengthAdjust="spacing" textLength="36.6" x="909.6" y="33.9211">&#171;service&#187;</text><text fill="#000000" font-family="sans-serif" font-size="8.4" lengthAdjust="spacing" textLength="77.4" x="889.2" y="43.8141">JobOpeningService</text><rect fill="#E2E2F0" height="28.1859" rx="1.5" ry="1.5" style="stroke:#181818;stroke-width:0.3;" width="85.8" x="885" y="773.8254"/><text fill="#000000" font-family="sans-serif" font-size="8.4" font-style="italic" lengthAdjust="spacing" textLength="36.6" x="909.6" y="786.1465">&#171;service&#187;</text><text fill="#000000" font-family="sans-serif" font-size="8.4" lengthAdjust="spacing" textLength="77.4" x="889.2" y="796.0395">JobOpeningService</text><text fill="#000000" font-family="sans-serif" font-size="8.4" font-style="italic" lengthAdjust="spacing" textLength="50.4" x="1068.9" y="38.7211">&#171;repository&#187;</text><text fill="#000000" font-family="sans-serif" font-size="8.4" lengthAdjust="spacing" textLength="92.4" x="1047.9" y="48.6141">JobOpeningRepository</text><path d="M1085.1,9 C1085.1,3 1095.9,3 1095.9,3 C1095.9,3 1106.7,3 1106.7,9 L1106.7,24.6 C1106.7,30.6 1095.9,30.6 1095.9,30.6 C1095.9,30.6 1085.1,30.6 1085.1,24.6 L1085.1,9 " fill="#E2E2F0" style="stroke:#181818;stroke-width:0.8999999999999999;"/><path d="M1085.1,9 C1085.1,15 1095.9,15 1095.9,15 C1095.9,15 1106.7,15 1106.7,9 " fill="none" style="stroke:#181818;stroke-width:0.8999999999999999;"/><text fill="#000000" font-family="sans-serif" font-size="8.4" font-style="italic" lengthAdjust="spacing" textLength="50.4" x="1068.9" y="781.9465">&#171;repository&#187;</text><text fill="#000000" font-family="sans-serif" font-size="8.4" lengthAdjust="spacing" textLength="92.4" x="1047.9" y="791.8395">JobOpeningRepository</text><path d="M1085.1,799.6113 C1085.1,793.6113 1095.9,793.6113 1095.9,793.6113 C1095.9,793.6113 1106.7,793.6113 1106.7,799.6113 L1106.7,815.2113 C1106.7,821.2113 1095.9,821.2113 1095.9,821.2113 C1095.9,821.2113 1085.1,821.2113 1085.1,815.2113 L1085.1,799.6113 " fill="#E2E2F0" style="stroke:#181818;stroke-width:0.8999999999999999;"/><path d="M1085.1,799.6113 C1085.1,805.6113 1095.9,805.6113 1095.9,805.6113 C1095.9,805.6113 1106.7,805.6113 1106.7,799.6113 " fill="none" style="stroke:#181818;stroke-width:0.8999999999999999;"/><rect fill="#E2E2F0" height="28.1859" rx="1.5" ry="1.5" style="stroke:#181818;stroke-width:0.3;" width="133.8" x="1149.9" y="21.6"/><text fill="#000000" font-family="sans-serif" font-size="8.4" font-style="italic" lengthAdjust="spacing" textLength="48.6" x="1192.5" y="33.9211">&#171;controller&#187;</text><text fill="#000000" font-family="sans-serif" font-size="8.4" lengthAdjust="spacing" textLength="125.4" x="1154.1" y="43.8141">ChangeProcessStateController</text><rect fill="#E2E2F0" height="28.1859" rx="1.5" ry="1.5" style="stroke:#181818;stroke-width:0.3;" width="133.8" x="1149.9" y="773.8254"/><text fill="#000000" font-family="sans-serif" font-size="8.4" font-style="italic" lengthAdjust="spacing" textLength="48.6" x="1192.5" y="786.1465">&#171;controller&#187;</text><text fill="#000000" font-family="sans-serif" font-size="8.4" lengthAdjust="spacing" textLength="125.4" x="1154.1" y="796.0395">ChangeProcessStateController</text><rect fill="#E2E2F0" height="28.1859" rx="1.5" ry="1.5" style="stroke:#181818;stroke-width:0.3;" width="68.4" x="1340.4" y="21.6"/><text fill="#000000" font-family="sans-serif" font-size="8.4" font-style="italic" lengthAdjust="spacing" textLength="36.6" x="1356.3" y="33.9211">&#171;service&#187;</text><text fill="#000000" font-family="sans-serif" font-size="8.4" lengthAdjust="spacing" textLength="60" x="1344.6" y="43.8141">ProcessService</text><rect fill="#E2E2F0" height="28.1859" rx="1.5" ry="1.5" style="stroke:#181818;stroke-width:0.3;" width="68.4" x="1340.4" y="773.8254"/><text fill="#000000" font-family="sans-serif" font-size="8.4" font-style="italic" lengthAdjust="spacing" textLength="36.6" x="1356.3" y="786.1465">&#171;service&#187;</text><text fill="#000000" font-family="sans-serif" font-size="8.4" lengthAdjust="spacing" textLength="60" x="1344.6" y="796.0395">ProcessService</text><rect fill="#E2E2F0" height="28.1859" rx="1.5" ry="1.5" style="stroke:#181818;stroke-width:0.3;" width="48.6" x="1517.7" y="21.6"/><text fill="#000000" font-family="sans-serif" font-size="8.4" font-style="italic" lengthAdjust="spacing" textLength="40.2" x="1521.9" y="33.9211">&#171;process&#187;</text><text fill="#000000" font-family="sans-serif" font-size="8.4" lengthAdjust="spacing" textLength="31.2" x="1526.4" y="43.8141">Process</text><rect fill="#E2E2F0" height="28.1859" rx="1.5" ry="1.5" style="stroke:#181818;stroke-width:0.3;" width="48.6" x="1517.7" y="773.8254"/><text fill="#000000" font-family="sans-serif" font-size="8.4" font-style="italic" lengthAdjust="spacing" textLength="40.2" x="1521.9" y="786.1465">&#171;process&#187;</text><text fill="#000000" font-family="sans-serif" font-size="8.4" lengthAdjust="spacing" textLength="31.2" x="1526.4" y="796.0395">Process</text><text fill="#000000" font-family="sans-serif" font-size="8.4" font-style="italic" lengthAdjust="spacing" textLength="50.4" x="1584.6" y="38.7211">&#171;repository&#187;</text><text fill="#000000" font-family="sans-serif" font-size="8.4" lengthAdjust="spacing" textLength="75" x="1572.3" y="48.6141">ProcessRepository</text><path d="M1600.8,9 C1600.8,3 1611.6,3 1611.6,3 C1611.6,3 1622.4,3 1622.4,9 L1622.4,24.6 C1622.4,30.6 1611.6,30.6 1611.6,30.6 C1611.6,30.6 1600.8,30.6 1600.8,24.6 L1600.8,9 " fill="#E2E2F0" style="stroke:#181818;stroke-width:0.8999999999999999;"/><path d="M1600.8,9 C1600.8,15 1611.6,15 1611.6,15 C1611.6,15 1622.4,15 1622.4,9 " fill="none" style="stroke:#181818;stroke-width:0.8999999999999999;"/><text fill="#000000" font-family="sans-serif" font-size="8.4" font-style="italic" lengthAdjust="spacing" textLength="50.4" x="1584.6" y="781.9465">&#171;repository&#187;</text><text fill="#000000" font-family="sans-serif" font-size="8.4" lengthAdjust="spacing" textLength="75" x="1572.3" y="791.8395">ProcessRepository</text><path d="M1600.8,799.6113 C1600.8,793.6113 1611.6,793.6113 1611.6,793.6113 C1611.6,793.6113 1622.4,793.6113 1622.4,799.6113 L1622.4,815.2113 C1622.4,821.2113 1611.6,821.2113 1611.6,821.2113 C1611.6,821.2113 1600.8,821.2113 1600.8,815.2113 L1600.8,799.6113 " fill="#E2E2F0" style="stroke:#181818;stroke-width:0.8999999999999999;"/><path d="M1600.8,799.6113 C1600.8,805.6113 1611.6,805.6113 1611.6,805.6113 C1611.6,805.6113 1622.4,805.6113 1622.4,799.6113 " fill="none" style="stroke:#181818;stroke-width:0.8999999999999999;"/><rect fill="#FFFFFF" height="707.2395" style="stroke:#181818;stroke-width:0.6;" width="6" x="39.9" y="56.3859"/><rect fill="#FFFFFF" height="333.5402" style="stroke:#181818;stroke-width:0.6;" width="6" x="221.1" y="78.3586"/><rect fill="#FFFFFF" height="334.1402" style="stroke:#181818;stroke-width:0.6;" width="6" x="221.1" y="429.4852"/><rect fill="#FFFFFF" height="289.1813" style="stroke:#181818;stroke-width:0.6;" width="6" x="422.7" y="95.9449"/><rect fill="#FFFFFF" height="123.1043" style="stroke:#181818;stroke-width:0.6;" width="6" x="422.7" y="447.0715"/><rect fill="#FFFFFF" height="158.277" style="stroke:#181818;stroke-width:0.6;" width="6" x="422.7" y="587.7621"/><rect fill="#FFFFFF" height="254.0086" style="stroke:#181818;stroke-width:0.6;" width="6" x="559.5" y="113.5313"/><rect fill="#FFFFFF" height="108.518" style="stroke:#181818;stroke-width:0.6;" width="6" x="562.5" y="241.4355"/><rect fill="#FFFFFF" height="87.9316" style="stroke:#181818;stroke-width:0.6;" width="6" x="762.3" y="131.1176"/><rect fill="#FFFFFF" height="87.9316" style="stroke:#181818;stroke-width:0.6;" width="6" x="762.3" y="262.0219"/><rect fill="#FFFFFF" height="52.759" style="stroke:#181818;stroke-width:0.6;" width="6" x="924.9" y="148.7039"/><rect fill="#FFFFFF" height="52.759" style="stroke:#181818;stroke-width:0.6;" width="6" x="924.9" y="279.6082"/><rect fill="#FFFFFF" height="17.5863" style="stroke:#181818;stroke-width:0.6;" width="6" x="1092.9" y="166.2902"/><rect fill="#FFFFFF" height="17.5863" style="stroke:#181818;stroke-width:0.6;" width="6" x="1092.9" y="297.1945"/><rect fill="#FFFFFF" height="123.1043" style="stroke:#181818;stroke-width:0.6;" width="6" x="1213.8" y="605.3484"/><rect fill="#FFFFFF" height="52.759" style="stroke:#181818;stroke-width:0.6;" width="6" x="1371.6" y="464.6578"/><rect fill="#FFFFFF" height="52.759" style="stroke:#181818;stroke-width:0.6;" width="6" x="1371.6" y="622.9348"/><rect fill="#FFFFFF" height="17.5863" style="stroke:#181818;stroke-width:0.6;" width="6" x="1539" y="482.2441"/><rect fill="#FFFFFF" height="17.5863" style="stroke:#181818;stroke-width:0.6;" width="6" x="1539" y="640.5211"/><rect fill="#FFFFFF" height="17.5863" style="stroke:#181818;stroke-width:0.6;" width="6" x="1608.6" y="535.0031"/><rect fill="#FFFFFF" height="17.5863" style="stroke:#181818;stroke-width:0.6;" width="6" x="1608.6" y="693.2801"/><polygon fill="#181818" points="213.9,75.9586,219.9,78.3586,213.9,80.7586,216.3,78.3586" style="stroke:#181818;stroke-width:0.6;"/><line style="stroke:#181818;stroke-width:0.6;" x1="45.9" x2="217.5" y1="78.3586" y2="78.3586"/><text fill="#000000" font-family="sans-serif" font-size="7.8" font-weight="bold" lengthAdjust="spacing" textLength="5.4" x="50.1" y="70.9201">1</text><text fill="#000000" font-family="sans-serif" font-size="7.8" lengthAdjust="spacing" textLength="81.6" x="57.9" y="66.327">asks to change phase</text><text fill="#000000" font-family="sans-serif" font-size="7.8" lengthAdjust="spacing" textLength="87.6" x="57.9" y="75.5133">status of a job opening</text><polygon fill="#181818" points="415.5,93.5449,421.5,95.9449,415.5,98.3449,417.9,95.9449" style="stroke:#181818;stroke-width:0.6;"/><line style="stroke:#181818;stroke-width:0.6;" x1="227.1" x2="419.1" y1="95.9449" y2="95.9449"/><text fill="#000000" font-family="sans-serif" font-size="7.8" font-weight="bold" lengthAdjust="spacing" textLength="5.4" x="231.3" y="93.0996">2</text><text fill="#000000" font-family="sans-serif" font-size="7.8" lengthAdjust="spacing" textLength="70.8" x="239.1" y="93.0996">selectJobOpening()</text><polygon fill="#181818" points="552.3,111.1313,558.3,113.5313,552.3,115.9312,554.7,113.5313" style="stroke:#181818;stroke-width:0.6;"/><line style="stroke:#181818;stroke-width:0.6;" x1="428.7" x2="555.9" y1="113.5313" y2="113.5313"/><text fill="#000000" font-family="sans-serif" font-size="7.8" font-weight="bold" lengthAdjust="spacing" textLength="5.4" x="432.9" y="110.6859">3</text><text fill="#000000" font-family="sans-serif" font-size="7.8" lengthAdjust="spacing" textLength="70.8" x="440.7" y="110.6859">selectJobOpening()</text><polygon fill="#181818" points="755.1,128.7176,761.1,131.1176,755.1,133.5176,757.5,131.1176" style="stroke:#181818;stroke-width:0.6;"/><line style="stroke:#181818;stroke-width:0.6;" x1="565.5" x2="758.7" y1="131.1176" y2="131.1176"/><text fill="#000000" font-family="sans-serif" font-size="7.8" font-weight="bold" lengthAdjust="spacing" textLength="5.4" x="569.7" y="128.2723">4</text><text fill="#000000" font-family="sans-serif" font-size="7.8" lengthAdjust="spacing" textLength="72.6" x="577.5" y="128.2723">showJobOpenings()</text><polygon fill="#181818" points="917.7,146.3039,923.7,148.7039,917.7,151.1039,920.1,148.7039" style="stroke:#181818;stroke-width:0.6;"/><line style="stroke:#181818;stroke-width:0.6;" x1="768.3" x2="921.3" y1="148.7039" y2="148.7039"/><text fill="#000000" font-family="sans-serif" font-size="7.8" font-weight="bold" lengthAdjust="spacing" textLength="5.4" x="772.5" y="145.8586">5</text><text fill="#000000" font-family="sans-serif" font-size="7.8" lengthAdjust="spacing" textLength="61.8" x="780.3" y="145.8586">allJobOpenings()</text><polygon fill="#181818" points="1085.7,163.8902,1091.7,166.2902,1085.7,168.6902,1088.1,166.2902" style="stroke:#181818;stroke-width:0.6;"/><line style="stroke:#181818;stroke-width:0.6;" x1="930.9" x2="1089.3" y1="166.2902" y2="166.2902"/><text fill="#000000" font-family="sans-serif" font-size="7.8" font-weight="bold" lengthAdjust="spacing" textLength="5.4" x="935.1" y="163.4449">6</text><text fill="#000000" font-family="sans-serif" font-size="7.8" lengthAdjust="spacing" textLength="30" x="942.9" y="163.4449">findAll()</text><polygon fill="#181818" points="937.5,181.4766,931.5,183.8766,937.5,186.2766,935.1,183.8766" style="stroke:#181818;stroke-width:0.6;"/><line style="stroke:#181818;stroke-width:0.6;stroke-dasharray:2.0,2.0;" x1="933.9" x2="1095.3" y1="183.8766" y2="183.8766"/><text fill="#000000" font-family="sans-serif" font-size="7.8" font-weight="bold" lengthAdjust="spacing" textLength="5.4" x="941.1" y="181.0313">7</text><text fill="#000000" font-family="sans-serif" font-size="7.8" lengthAdjust="spacing" textLength="134.4" x="948.9" y="181.0313">Iterable&lt;JobOpening&gt; jobOpenings</text><polygon fill="#181818" points="774.9,199.0629,768.9,201.4629,774.9,203.8629,772.5,201.4629" style="stroke:#181818;stroke-width:0.6;"/><line style="stroke:#181818;stroke-width:0.6;stroke-dasharray:2.0,2.0;" x1="771.3" x2="927.3" y1="201.4629" y2="201.4629"/><text fill="#000000" font-family="sans-serif" font-size="7.8" font-weight="bold" lengthAdjust="spacing" textLength="5.4" x="778.5" y="198.6176">8</text><text fill="#000000" font-family="sans-serif" font-size="7.8" lengthAdjust="spacing" textLength="134.4" x="786.3" y="198.6176">Iterable&lt;JobOpening&gt; jobOpenings</text><polygon fill="#181818" points="572.1,216.6492,566.1,219.0492,572.1,221.4492,569.7,219.0492" style="stroke:#181818;stroke-width:0.6;"/><line style="stroke:#181818;stroke-width:0.6;stroke-dasharray:2.0,2.0;" x1="568.5" x2="764.7" y1="219.0492" y2="219.0492"/><text fill="#000000" font-family="sans-serif" font-size="7.8" font-weight="bold" lengthAdjust="spacing" textLength="5.4" x="575.7" y="216.2039">9</text><text fill="#000000" font-family="sans-serif" font-size="7.8" lengthAdjust="spacing" textLength="134.4" x="583.5" y="216.2039">Iterable&lt;JobOpening&gt; jobOpenings</text><line style="stroke:#181818;stroke-width:0.6;" x1="565.5" x2="593.7" y1="233.6355" y2="233.6355"/><line style="stroke:#181818;stroke-width:0.6;" x1="593.7" x2="593.7" y1="233.6355" y2="241.4355"/><line style="stroke:#181818;stroke-width:0.6;" x1="569.1" x2="593.7" y1="241.4355" y2="241.4355"/><polygon fill="#181818" points="575.1,239.0355,569.1,241.4355,575.1,243.8355,572.7,241.4355" style="stroke:#181818;stroke-width:0.6;"/><text fill="#000000" font-family="sans-serif" font-size="7.8" font-weight="bold" lengthAdjust="spacing" textLength="10.8" x="572.7" y="230.7902">10</text><text fill="#000000" font-family="sans-serif" font-size="7.8" lengthAdjust="spacing" textLength="133.2" x="585.9" y="230.7902">selectorPart(List&lt;JobOpening&gt; list)</text><polygon fill="#181818" points="755.1,259.6219,761.1,262.0219,755.1,264.4219,757.5,262.0219" style="stroke:#181818;stroke-width:0.6;"/><line style="stroke:#181818;stroke-width:0.6;" x1="568.5" x2="758.7" y1="262.0219" y2="262.0219"/><text fill="#000000" font-family="sans-serif" font-size="7.8" font-weight="bold" lengthAdjust="spacing" textLength="10.8" x="572.7" y="259.1766">11</text><text fill="#000000" font-family="sans-serif" font-size="7.8" lengthAdjust="spacing" textLength="169.2" x="585.9" y="259.1766">findJobOpeningByJobReference(jobReference)</text><polygon fill="#181818" points="917.7,277.2082,923.7,279.6082,917.7,282.0082,920.1,279.6082" style="stroke:#181818;stroke-width:0.6;"/><line style="stroke:#181818;stroke-width:0.6;" x1="768.3" x2="921.3" y1="279.6082" y2="279.6082"/><text fill="#000000" font-family="sans-serif" font-size="7.8" font-weight="bold" lengthAdjust="spacing" textLength="10.8" x="772.5" y="276.7629">12</text><text fill="#000000" font-family="sans-serif" font-size="7.8" lengthAdjust="spacing" textLength="112.2" x="785.7" y="276.7629">findJobOpening(jobReference)</text><polygon fill="#181818" points="1085.7,294.7945,1091.7,297.1945,1085.7,299.5945,1088.1,297.1945" style="stroke:#181818;stroke-width:0.6;"/><line style="stroke:#181818;stroke-width:0.6;" x1="930.9" x2="1089.3" y1="297.1945" y2="297.1945"/><text fill="#000000" font-family="sans-serif" font-size="7.8" font-weight="bold" lengthAdjust="spacing" textLength="10.8" x="935.1" y="294.3492">13</text><text fill="#000000" font-family="sans-serif" font-size="7.8" lengthAdjust="spacing" textLength="30" x="948.3" y="294.3492">findAll()</text><polygon fill="#181818" points="937.5,312.3809,931.5,314.7809,937.5,317.1809,935.1,314.7809" style="stroke:#181818;stroke-width:0.6;"/><line style="stroke:#181818;stroke-width:0.6;stroke-dasharray:2.0,2.0;" x1="933.9" x2="1095.3" y1="314.7809" y2="314.7809"/><text fill="#000000" font-family="sans-serif" font-size="7.8" font-weight="bold" lengthAdjust="spacing" textLength="10.8" x="941.1" y="311.9355">14</text><text fill="#000000" font-family="sans-serif" font-size="7.8" lengthAdjust="spacing" textLength="134.4" x="954.3" y="311.9355">Iterable&lt;JobOpening&gt; jobOpenings</text><polygon fill="#181818" points="774.9,329.9672,768.9,332.3672,774.9,334.7672,772.5,332.3672" style="stroke:#181818;stroke-width:0.6;"/><line style="stroke:#181818;stroke-width:0.6;stroke-dasharray:2.0,2.0;" x1="771.3" x2="927.3" y1="332.3672" y2="332.3672"/><text fill="#000000" font-family="sans-serif" font-size="7.8" font-weight="bold" lengthAdjust="spacing" textLength="10.8" x="778.5" y="329.5219">15</text><text fill="#000000" font-family="sans-serif" font-size="7.8" lengthAdjust="spacing" textLength="45" x="791.7" y="329.5219">job opening</text><polygon fill="#181818" points="572.1,347.5535,566.1,349.9535,572.1,352.3535,569.7,349.9535" style="stroke:#181818;stroke-width:0.6;"/><line style="stroke:#181818;stroke-width:0.6;stroke-dasharray:2.0,2.0;" x1="568.5" x2="764.7" y1="349.9535" y2="349.9535"/><text fill="#000000" font-family="sans-serif" font-size="7.8" font-weight="bold" lengthAdjust="spacing" textLength="10.8" x="575.7" y="347.1082">16</text><text fill="#000000" font-family="sans-serif" font-size="7.8" lengthAdjust="spacing" textLength="45" x="588.9" y="347.1082">job opening</text><polygon fill="#181818" points="435.3,365.1398,429.3,367.5398,435.3,369.9398,432.9,367.5398" style="stroke:#181818;stroke-width:0.6;"/><line style="stroke:#181818;stroke-width:0.6;stroke-dasharray:2.0,2.0;" x1="431.7" x2="561.9" y1="367.5398" y2="367.5398"/><text fill="#000000" font-family="sans-serif" font-size="7.8" font-weight="bold" lengthAdjust="spacing" textLength="10.8" x="438.9" y="364.6945">17</text><text fill="#000000" font-family="sans-serif" font-size="7.8" lengthAdjust="spacing" textLength="45" x="452.1" y="364.6945">job opening</text><polygon fill="#181818" points="233.7,382.7262,227.7,385.1262,233.7,387.5262,231.3,385.1262" style="stroke:#181818;stroke-width:0.6;"/><line style="stroke:#181818;stroke-width:0.6;stroke-dasharray:2.0,2.0;" x1="230.1" x2="425.1" y1="385.1262" y2="385.1262"/><text fill="#000000" font-family="sans-serif" font-size="7.8" font-weight="bold" lengthAdjust="spacing" textLength="10.8" x="237.3" y="382.2809">18</text><text fill="#000000" font-family="sans-serif" font-size="7.8" lengthAdjust="spacing" textLength="45" x="250.5" y="382.2809">job opening</text><polygon fill="#181818" points="52.5,409.4988,46.5,411.8988,52.5,414.2988,50.1,411.8988" style="stroke:#181818;stroke-width:0.6;"/><line style="stroke:#181818;stroke-width:0.6;" x1="48.9" x2="223.5" y1="411.8988" y2="411.8988"/><text fill="#000000" font-family="sans-serif" font-size="7.8" font-weight="bold" lengthAdjust="spacing" textLength="10.8" x="56.1" y="404.4604">19</text><text fill="#000000" font-family="sans-serif" font-size="7.8" lengthAdjust="spacing" textLength="97.2" x="69.3" y="399.8672">shows job opening status</text><text fill="#000000" font-family="sans-serif" font-size="7.8" lengthAdjust="spacing" textLength="113.4" x="69.3" y="409.0535">and asks if it wants to change</text><polygon fill="#181818" points="213.9,427.0852,219.9,429.4852,213.9,431.8852,216.3,429.4852" style="stroke:#181818;stroke-width:0.6;"/><line style="stroke:#181818;stroke-width:0.6;" x1="45.9" x2="217.5" y1="429.4852" y2="429.4852"/><text fill="#000000" font-family="sans-serif" font-size="7.8" font-weight="bold" lengthAdjust="spacing" textLength="10.8" x="50.1" y="426.6398">20</text><text fill="#000000" font-family="sans-serif" font-size="7.8" lengthAdjust="spacing" textLength="150.6" x="63.3" y="426.6398">selects if it wants to go back or forward</text><polygon fill="#181818" points="415.5,444.6715,421.5,447.0715,415.5,449.4715,417.9,447.0715" style="stroke:#181818;stroke-width:0.6;"/><line style="stroke:#181818;stroke-width:0.6;" x1="227.1" x2="419.1" y1="447.0715" y2="447.0715"/><text fill="#000000" font-family="sans-serif" font-size="7.8" font-weight="bold" lengthAdjust="spacing" textLength="10.8" x="231.3" y="444.2262">21</text><text fill="#000000" font-family="sans-serif" font-size="7.8" lengthAdjust="spacing" textLength="171" x="244.5" y="444.2262">changeProcessStatus(processStatus,process);</text><polygon fill="#181818" points="1364.4,462.2578,1370.4,464.6578,1364.4,467.0578,1366.8,464.6578" style="stroke:#181818;stroke-width:0.6;"/><line style="stroke:#181818;stroke-width:0.6;" x1="428.7" x2="1368" y1="464.6578" y2="464.6578"/><text fill="#000000" font-family="sans-serif" font-size="7.8" font-weight="bold" lengthAdjust="spacing" textLength="10.8" x="432.9" y="461.8125">22</text><text fill="#000000" font-family="sans-serif" font-size="7.8" lengthAdjust="spacing" textLength="136.8" x="446.1" y="461.8125">changeProcessStatus(processStatus)</text><polygon fill="#181818" points="1531.8,479.8441,1537.8,482.2441,1531.8,484.6441,1534.2,482.2441" style="stroke:#181818;stroke-width:0.6;"/><line style="stroke:#181818;stroke-width:0.6;" x1="1377.6" x2="1535.4" y1="482.2441" y2="482.2441"/><text fill="#000000" font-family="sans-serif" font-size="7.8" font-weight="bold" lengthAdjust="spacing" textLength="10.8" x="1381.8" y="479.3988">23</text><text fill="#000000" font-family="sans-serif" font-size="7.8" lengthAdjust="spacing" textLength="136.8" x="1395" y="479.3988">changeProcessStatus(processStatus)</text><polygon fill="#181818" points="1384.2,497.4305,1378.2,499.8305,1384.2,502.2305,1381.8,499.8305" style="stroke:#181818;stroke-width:0.6;"/><line style="stroke:#181818;stroke-width:0.6;stroke-dasharray:2.0,2.0;" x1="1380.6" x2="1541.4" y1="499.8305" y2="499.8305"/><text fill="#000000" font-family="sans-serif" font-size="7.8" font-weight="bold" lengthAdjust="spacing" textLength="10.8" x="1387.8" y="496.9852">24</text><text fill="#000000" font-family="sans-serif" font-size="7.8" lengthAdjust="spacing" textLength="15" x="1401" y="496.9852">true</text><polygon fill="#181818" points="435.3,515.0168,429.3,517.4168,435.3,519.8168,432.9,517.4168" style="stroke:#181818;stroke-width:0.6;"/><line style="stroke:#181818;stroke-width:0.6;stroke-dasharray:2.0,2.0;" x1="431.7" x2="1374" y1="517.4168" y2="517.4168"/><text fill="#000000" font-family="sans-serif" font-size="7.8" font-weight="bold" lengthAdjust="spacing" textLength="10.8" x="438.9" y="514.5715">25</text><text fill="#000000" font-family="sans-serif" font-size="7.8" lengthAdjust="spacing" textLength="15" x="452.1" y="514.5715">true</text><polygon fill="#181818" points="1601.4,532.6031,1607.4,535.0031,1601.4,537.4031,1603.8,535.0031" style="stroke:#181818;stroke-width:0.6;"/><line style="stroke:#181818;stroke-width:0.6;" x1="428.7" x2="1605" y1="535.0031" y2="535.0031"/><text fill="#000000" font-family="sans-serif" font-size="7.8" font-weight="bold" lengthAdjust="spacing" textLength="10.8" x="432.9" y="532.1578">26</text><text fill="#000000" font-family="sans-serif" font-size="7.8" lengthAdjust="spacing" textLength="51" x="446.1" y="532.1578">save(process)</text><polygon fill="#181818" points="435.3,550.1895,429.3,552.5895,435.3,554.9895,432.9,552.5895" style="stroke:#181818;stroke-width:0.6;"/><line style="stroke:#181818;stroke-width:0.6;stroke-dasharray:2.0,2.0;" x1="431.7" x2="1611" y1="552.5895" y2="552.5895"/><text fill="#000000" font-family="sans-serif" font-size="7.8" font-weight="bold" lengthAdjust="spacing" textLength="10.8" x="438.9" y="549.7441">27</text><text fill="#000000" font-family="sans-serif" font-size="7.8" lengthAdjust="spacing" textLength="15" x="452.1" y="549.7441">true</text><polygon fill="#181818" points="233.7,567.7758,227.7,570.1758,233.7,572.5758,231.3,570.1758" style="stroke:#181818;stroke-width:0.6;"/><line style="stroke:#181818;stroke-width:0.6;stroke-dasharray:2.0,2.0;" x1="230.1" x2="425.1" y1="570.1758" y2="570.1758"/><text fill="#000000" font-family="sans-serif" font-size="7.8" font-weight="bold" lengthAdjust="spacing" textLength="10.8" x="237.3" y="567.3305">28</text><text fill="#000000" font-family="sans-serif" font-size="7.8" lengthAdjust="spacing" textLength="83.4" x="250.5" y="567.3305">process status altered</text><polygon fill="#181818" points="415.5,585.3621,421.5,587.7621,415.5,590.1621,417.9,587.7621" style="stroke:#181818;stroke-width:0.6;"/><line style="stroke:#181818;stroke-width:0.6;" x1="227.1" x2="419.1" y1="587.7621" y2="587.7621"/><text fill="#000000" font-family="sans-serif" font-size="7.8" font-weight="bold" lengthAdjust="spacing" textLength="10.8" x="231.3" y="584.9168">29</text><text fill="#000000" font-family="sans-serif" font-size="7.8" lengthAdjust="spacing" textLength="159" x="244.5" y="584.9168">changeProcessState(processState,process)</text><polygon fill="#181818" points="1206.6,602.9484,1212.6,605.3484,1206.6,607.7484,1209,605.3484" style="stroke:#181818;stroke-width:0.6;"/><line style="stroke:#181818;stroke-width:0.6;" x1="428.7" x2="1210.2" y1="605.3484" y2="605.3484"/><text fill="#000000" font-family="sans-serif" font-size="7.8" font-weight="bold" lengthAdjust="spacing" textLength="10.8" x="432.9" y="602.5031">30</text><text fill="#000000" font-family="sans-serif" font-size="7.8" lengthAdjust="spacing" textLength="159" x="446.1" y="602.5031">changeProcessState(processState,process)</text><polygon fill="#181818" points="1364.4,620.5348,1370.4,622.9348,1364.4,625.3348,1366.8,622.9348" style="stroke:#181818;stroke-width:0.6;"/><line style="stroke:#181818;stroke-width:0.6;" x1="1219.8" x2="1368" y1="622.9348" y2="622.9348"/><text fill="#000000" font-family="sans-serif" font-size="7.8" font-weight="bold" lengthAdjust="spacing" textLength="10.8" x="1224" y="620.0895">31</text><text fill="#000000" font-family="sans-serif" font-size="7.8" lengthAdjust="spacing" textLength="127.2" x="1237.2" y="620.0895">changeProcessState(processState)</text><polygon fill="#181818" points="1531.8,638.1211,1537.8,640.5211,1531.8,642.9211,1534.2,640.5211" style="stroke:#181818;stroke-width:0.6;"/><line style="stroke:#181818;stroke-width:0.6;" x1="1377.6" x2="1535.4" y1="640.5211" y2="640.5211"/><text fill="#000000" font-family="sans-serif" font-size="7.8" font-weight="bold" lengthAdjust="spacing" textLength="10.8" x="1381.8" y="637.6758">32</text><text fill="#000000" font-family="sans-serif" font-size="7.8" lengthAdjust="spacing" textLength="127.2" x="1395" y="637.6758">changeProcessState(processState)</text><polygon fill="#181818" points="1384.2,655.7074,1378.2,658.1074,1384.2,660.5074,1381.8,658.1074" style="stroke:#181818;stroke-width:0.6;"/><line style="stroke:#181818;stroke-width:0.6;stroke-dasharray:2.0,2.0;" x1="1380.6" x2="1541.4" y1="658.1074" y2="658.1074"/><text fill="#000000" font-family="sans-serif" font-size="7.8" font-weight="bold" lengthAdjust="spacing" textLength="10.8" x="1387.8" y="655.2621">33</text><text fill="#000000" font-family="sans-serif" font-size="7.8" lengthAdjust="spacing" textLength="15" x="1401" y="655.2621">true</text><polygon fill="#181818" points="1226.4,673.2937,1220.4,675.6938,1226.4,678.0938,1224,675.6938" style="stroke:#181818;stroke-width:0.6;"/><line style="stroke:#181818;stroke-width:0.6;stroke-dasharray:2.0,2.0;" x1="1222.8" x2="1374" y1="675.6938" y2="675.6938"/><text fill="#000000" font-family="sans-serif" font-size="7.8" font-weight="bold" lengthAdjust="spacing" textLength="10.8" x="1230" y="672.8484">34</text><text fill="#000000" font-family="sans-serif" font-size="7.8" lengthAdjust="spacing" textLength="15" x="1243.2" y="672.8484">true</text><polygon fill="#181818" points="1601.4,690.8801,1607.4,693.2801,1601.4,695.6801,1603.8,693.2801" style="stroke:#181818;stroke-width:0.6;"/><line style="stroke:#181818;stroke-width:0.6;" x1="1219.8" x2="1605" y1="693.2801" y2="693.2801"/><text fill="#000000" font-family="sans-serif" font-size="7.8" font-weight="bold" lengthAdjust="spacing" textLength="10.8" x="1224" y="690.4348">35</text><text fill="#000000" font-family="sans-serif" font-size="7.8" lengthAdjust="spacing" textLength="51" x="1237.2" y="690.4348">save(process)</text><polygon fill="#181818" points="1226.4,708.4664,1220.4,710.8664,1226.4,713.2664,1224,710.8664" style="stroke:#181818;stroke-width:0.6;"/><line style="stroke:#181818;stroke-width:0.6;stroke-dasharray:2.0,2.0;" x1="1222.8" x2="1611" y1="710.8664" y2="710.8664"/><text fill="#000000" font-family="sans-serif" font-size="7.8" font-weight="bold" lengthAdjust="spacing" textLength="10.8" x="1230" y="708.0211">36</text><text fill="#000000" font-family="sans-serif" font-size="7.8" lengthAdjust="spacing" textLength="15" x="1243.2" y="708.0211">true</text><polygon fill="#181818" points="435.3,726.0527,429.3,728.4527,435.3,730.8527,432.9,728.4527" style="stroke:#181818;stroke-width:0.6;"/><line style="stroke:#181818;stroke-width:0.6;stroke-dasharray:2.0,2.0;" x1="431.7" x2="1216.2" y1="728.4527" y2="728.4527"/><text fill="#000000" font-family="sans-serif" font-size="7.8" font-weight="bold" lengthAdjust="spacing" textLength="10.8" x="438.9" y="725.6074">37</text><text fill="#000000" font-family="sans-serif" font-size="7.8" lengthAdjust="spacing" textLength="78.6" x="452.1" y="725.6074">process state altered</text><polygon fill="#181818" points="233.7,743.6391,227.7,746.0391,233.7,748.4391,231.3,746.0391" style="stroke:#181818;stroke-width:0.6;"/><line style="stroke:#181818;stroke-width:0.6;stroke-dasharray:2.0,2.0;" x1="230.1" x2="425.1" y1="746.0391" y2="746.0391"/><text fill="#000000" font-family="sans-serif" font-size="7.8" font-weight="bold" lengthAdjust="spacing" textLength="10.8" x="237.3" y="743.1938">38</text><text fill="#000000" font-family="sans-serif" font-size="7.8" lengthAdjust="spacing" textLength="78.6" x="250.5" y="743.1938">process state altered</text><polygon fill="#181818" points="49.5,761.2254,43.5,763.6254,49.5,766.0254,47.1,763.6254" style="stroke:#181818;stroke-width:0.6;"/><line style="stroke:#181818;stroke-width:0.6;stroke-dasharray:2.0,2.0;" x1="45.9" x2="223.5" y1="763.6254" y2="763.6254"/><text fill="#000000" font-family="sans-serif" font-size="7.8" font-weight="bold" lengthAdjust="spacing" textLength="10.8" x="53.1" y="760.7801">39</text><text fill="#000000" font-family="sans-serif" font-size="7.8" lengthAdjust="spacing" textLength="103.8" x="66.3" y="760.7801">operation success message</text><!--SRC=[lPZBRgCm58RtUGelKwbvWKuKQIQhZZgQgj7ikZ5mahWbDh9Dehxz60Z1u0isISeYmc3x_tmvlq_0fMIqF2J0PpESIiRHkXII7O3_mHJlgiS5vfAafC1KelKUqnsySfQ241k9PId-FQFbik0WWAeoONIr6ckoPbHobkV0LTFqKXWqt40EgVpDahy5K49tOQrUY8XkqzNV03-I55HbqTofcXcMEC42j6flK311r6nzgPhyKXWREOJXj2qiB9PgzUpNTphh-QKRj5vkSbHGveeZTGqUeiNAiVXF28jFWIH3QVqU5ViAu9sAkWPYMuJH1qiGQ-QkxhtJjlNP4DGKLaaxYpQvJqWCDi_yuTAdJxlhesDmS6XoYiUpMRqmFI1t9tsQwl88AXnd52YOFJjrhyI0fSVZwiMagIwdfk8n8qnjcpptS_HOZ1xi4DLbYlK8j9XuGbj2ivzvxb1t47Gzk27w89hcmZ4Tpn8uJd9OTYzNLToq4-HKoc0YecMU_5jd4g8Lpxk6xeqq5cZHW1fS-6RtXrw04p3-gdnyNYdsI7Frm1EECVPmbKLKGT6z-lMbxjzW2nne2lCFhJ0Iit7-CSL3-gG1R5CzvVQ-SgMtV9-_NEKnatncc2tSnbQkivOnfX0dyRIvrT4Va1gvHZA1PYGjykICDWWD830rSwU7W-orINk4BelE-UaxnJHhSbYoHKIYaqgkjNnsDexMPgmHENDp41YIEuOId7uYzJzio_W9y-nxqkNKV3ylzDBZkVJmuxvvzE2_Jm2P8vVkTsG6qK2eauxNjEdQBQYLMDX6Ada9FejmzZmSIi1w6rgcZdNcGjUlTnOAV8Hs_lohvJjHp9vlD52Nw7HpEu-rTHYSgwCNihluN6nSWxwHuT5ObRi4jVT3o0H8FoZupaulIf3_zE76dS2RaqIvq9Xok0zDyw9GFmhr9F17QeGjHQnie3F5kbE4GqqQja_RF_80bz3z2Wox6hCik7rsw0UAyq-7TrgJH9KQyleRDX9bMXCSr0yEJWBr6eEFgly1]--></g></svg>