<?xml version="1.0" encoding="us-ascii" standalone="no"?><svg xmlns="http://www.w3.org/2000/svg" xmlns:xlink="http://www.w3.org/1999/xlink" contentStyleType="text/css" height="1151px" preserveAspectRatio="none" style="width:2350px;height:1151px;background:#FFFFFF;" version="1.1" viewBox="0 0 2350 1151" width="2350px" zoomAndPan="magnify"><defs/><g><rect fill="#FFFFFF" height="944.248" style="stroke:#181818;stroke-width:1.0;" width="10" x="66.5" y="93.9766"/><rect fill="#FFFFFF" height="497.2793" style="stroke:#181818;stroke-width:1.0;" width="10" x="368.5" y="130.5977"/><rect fill="#FFFFFF" height="381.0371" style="stroke:#181818;stroke-width:1.0;" width="10" x="368.5" y="657.1875"/><rect fill="#FFFFFF" height="423.3477" style="stroke:#181818;stroke-width:1.0;" width="10" x="568.5" y="159.9082"/><rect fill="#FFFFFF" height="180.8633" style="stroke:#181818;stroke-width:1.0;" width="10" x="573.5" y="373.082"/><rect fill="#FFFFFF" height="146.5527" style="stroke:#181818;stroke-width:1.0;" width="10" x="906.5" y="189.2188"/><rect fill="#FFFFFF" height="146.5527" style="stroke:#181818;stroke-width:1.0;" width="10" x="906.5" y="407.3926"/><rect fill="#FFFFFF" height="87.9316" style="stroke:#181818;stroke-width:1.0;" width="10" x="1177.5" y="218.5293"/><rect fill="#FFFFFF" height="87.9316" style="stroke:#181818;stroke-width:1.0;" width="10" x="1177.5" y="436.7031"/><rect fill="#FFFFFF" height="29.3105" style="stroke:#181818;stroke-width:1.0;" width="10" x="1457.5" y="247.8398"/><rect fill="#FFFFFF" height="29.3105" style="stroke:#181818;stroke-width:1.0;" width="10" x="1457.5" y="466.0137"/><rect fill="#FFFFFF" height="146.5527" style="stroke:#181818;stroke-width:1.0;" width="10" x="1663" y="686.498"/><rect fill="#FFFFFF" height="146.5527" style="stroke:#181818;stroke-width:1.0;" width="10" x="1900" y="862.3613"/><rect fill="#FFFFFF" height="29.3105" style="stroke:#181818;stroke-width:1.0;" width="10" x="2163" y="715.8086"/><rect fill="#FFFFFF" height="29.3105" style="stroke:#181818;stroke-width:1.0;" width="10" x="2163" y="891.6719"/><rect fill="#FFFFFF" height="29.3105" style="stroke:#181818;stroke-width:1.0;" width="10" x="2279" y="774.4297"/><rect fill="#FFFFFF" height="29.3105" style="stroke:#181818;stroke-width:1.0;" width="10" x="2279" y="950.293"/><line style="stroke:#181818;stroke-width:0.5;stroke-dasharray:5.0,5.0;" x1="71" x2="71" y1="83.9766" y2="1056.2246"/><line style="stroke:#181818;stroke-width:0.5;stroke-dasharray:5.0,5.0;" x1="373" x2="373" y1="83.9766" y2="1056.2246"/><line style="stroke:#181818;stroke-width:0.5;stroke-dasharray:5.0,5.0;" x1="573" x2="573" y1="83.9766" y2="1056.2246"/><line style="stroke:#181818;stroke-width:0.5;stroke-dasharray:5.0,5.0;" x1="911.5" x2="911.5" y1="83.9766" y2="1056.2246"/><line style="stroke:#181818;stroke-width:0.5;stroke-dasharray:5.0,5.0;" x1="1182" x2="1182" y1="83.9766" y2="1056.2246"/><line style="stroke:#181818;stroke-width:0.5;stroke-dasharray:5.0,5.0;" x1="1462.5" x2="1462.5" y1="83.9766" y2="1056.2246"/><line style="stroke:#181818;stroke-width:0.5;stroke-dasharray:5.0,5.0;" x1="1667.5" x2="1667.5" y1="83.9766" y2="1056.2246"/><line style="stroke:#181818;stroke-width:0.5;stroke-dasharray:5.0,5.0;" x1="1904.5" x2="1904.5" y1="83.9766" y2="1056.2246"/><line style="stroke:#181818;stroke-width:0.5;stroke-dasharray:5.0,5.0;" x1="2167.5" x2="2167.5" y1="83.9766" y2="1056.2246"/><line style="stroke:#181818;stroke-width:0.5;stroke-dasharray:5.0,5.0;" x1="2283.5" x2="2283.5" y1="83.9766" y2="1056.2246"/><text fill="#000000" font-family="sans-serif" font-size="14" lengthAdjust="spacing" textLength="127" x="5" y="81.0234">CustomerManager</text><ellipse cx="71.5" cy="15.9883" fill="#E2E2F0" rx="8" ry="8" style="stroke:#181818;stroke-width:0.5;"/><path d="M71.5,23.9883 L71.5,50.9883 M58.5,31.9883 L84.5,31.9883 M71.5,50.9883 L58.5,65.9883 M71.5,50.9883 L84.5,65.9883 " fill="none" style="stroke:#181818;stroke-width:0.5;"/><text fill="#000000" font-family="sans-serif" font-size="14" lengthAdjust="spacing" textLength="127" x="5" y="1068.7598">CustomerManager</text><ellipse cx="71.5" cy="1080.2129" fill="#E2E2F0" rx="8" ry="8" style="stroke:#181818;stroke-width:0.5;"/><path d="M71.5,1088.2129 L71.5,1115.2129 M58.5,1096.2129 L84.5,1096.2129 M71.5,1115.2129 L58.5,1130.2129 M71.5,1115.2129 L84.5,1130.2129 " fill="none" style="stroke:#181818;stroke-width:0.5;"/><rect fill="#E2E2F0" height="46.9766" rx="2.5" ry="2.5" style="stroke:#181818;stroke-width:0.5;" width="175" x="286" y="36"/><text fill="#000000" font-family="sans-serif" font-size="14" font-style="italic" lengthAdjust="spacing" textLength="101" x="323" y="56.5352">&#171;presentation&#187;</text><text fill="#000000" font-family="sans-serif" font-size="14" lengthAdjust="spacing" textLength="161" x="293" y="73.0234">ChangeProcessStatusUI</text><rect fill="#E2E2F0" height="46.9766" rx="2.5" ry="2.5" style="stroke:#181818;stroke-width:0.5;" width="175" x="286" y="1055.2246"/><text fill="#000000" font-family="sans-serif" font-size="14" font-style="italic" lengthAdjust="spacing" textLength="101" x="323" y="1075.7598">&#171;presentation&#187;</text><text fill="#000000" font-family="sans-serif" font-size="14" lengthAdjust="spacing" textLength="161" x="293" y="1092.248">ChangeProcessStatusUI</text><rect fill="#E2E2F0" height="46.9766" rx="2.5" ry="2.5" style="stroke:#181818;stroke-width:0.5;" width="205" x="471" y="36"/><text fill="#000000" font-family="sans-serif" font-size="14" font-style="italic" lengthAdjust="spacing" textLength="81" x="533" y="56.5352">&#171;controller&#187;</text><text fill="#000000" font-family="sans-serif" font-size="14" lengthAdjust="spacing" textLength="191" x="478" y="73.0234">SelectJobOpeningController</text><rect fill="#E2E2F0" height="46.9766" rx="2.5" ry="2.5" style="stroke:#181818;stroke-width:0.5;" width="205" x="471" y="1055.2246"/><text fill="#000000" font-family="sans-serif" font-size="14" font-style="italic" lengthAdjust="spacing" textLength="81" x="533" y="1075.7598">&#171;controller&#187;</text><text fill="#000000" font-family="sans-serif" font-size="14" lengthAdjust="spacing" textLength="191" x="478" y="1092.248">SelectJobOpeningController</text><rect fill="#E2E2F0" height="46.9766" rx="2.5" ry="2.5" style="stroke:#181818;stroke-width:0.5;" width="188" x="817.5" y="36"/><text fill="#000000" font-family="sans-serif" font-size="14" font-style="italic" lengthAdjust="spacing" textLength="81" x="871" y="56.5352">&#171;controller&#187;</text><text fill="#000000" font-family="sans-serif" font-size="14" lengthAdjust="spacing" textLength="174" x="824.5" y="73.0234">ListJobOpeningController</text><rect fill="#E2E2F0" height="46.9766" rx="2.5" ry="2.5" style="stroke:#181818;stroke-width:0.5;" width="188" x="817.5" y="1055.2246"/><text fill="#000000" font-family="sans-serif" font-size="14" font-style="italic" lengthAdjust="spacing" textLength="81" x="871" y="1075.7598">&#171;controller&#187;</text><text fill="#000000" font-family="sans-serif" font-size="14" lengthAdjust="spacing" textLength="174" x="824.5" y="1092.248">ListJobOpeningController</text><rect fill="#E2E2F0" height="46.9766" rx="2.5" ry="2.5" style="stroke:#181818;stroke-width:0.5;" width="143" x="1111" y="36"/><text fill="#000000" font-family="sans-serif" font-size="14" font-style="italic" lengthAdjust="spacing" textLength="61" x="1152" y="56.5352">&#171;service&#187;</text><text fill="#000000" font-family="sans-serif" font-size="14" lengthAdjust="spacing" textLength="129" x="1118" y="73.0234">JobOpeningService</text><rect fill="#E2E2F0" height="46.9766" rx="2.5" ry="2.5" style="stroke:#181818;stroke-width:0.5;" width="143" x="1111" y="1055.2246"/><text fill="#000000" font-family="sans-serif" font-size="14" font-style="italic" lengthAdjust="spacing" textLength="61" x="1152" y="1075.7598">&#171;service&#187;</text><text fill="#000000" font-family="sans-serif" font-size="14" lengthAdjust="spacing" textLength="129" x="1118" y="1092.248">JobOpeningService</text><text fill="#000000" font-family="sans-serif" font-size="14" font-style="italic" lengthAdjust="spacing" textLength="84" x="1417.5" y="64.5352">&#171;repository&#187;</text><text fill="#000000" font-family="sans-serif" font-size="14" lengthAdjust="spacing" textLength="154" x="1382.5" y="81.0234">JobOpeningRepository</text><path d="M1444.5,15 C1444.5,5 1462.5,5 1462.5,5 C1462.5,5 1480.5,5 1480.5,15 L1480.5,41 C1480.5,51 1462.5,51 1462.5,51 C1462.5,51 1444.5,51 1444.5,41 L1444.5,15 " fill="#E2E2F0" style="stroke:#181818;stroke-width:1.5;"/><path d="M1444.5,15 C1444.5,25 1462.5,25 1462.5,25 C1462.5,25 1480.5,25 1480.5,15 " fill="none" style="stroke:#181818;stroke-width:1.5;"/><text fill="#000000" font-family="sans-serif" font-size="14" font-style="italic" lengthAdjust="spacing" textLength="84" x="1417.5" y="1068.7598">&#171;repository&#187;</text><text fill="#000000" font-family="sans-serif" font-size="14" lengthAdjust="spacing" textLength="154" x="1382.5" y="1085.248">JobOpeningRepository</text><path d="M1444.5,1098.2012 C1444.5,1088.2012 1462.5,1088.2012 1462.5,1088.2012 C1462.5,1088.2012 1480.5,1088.2012 1480.5,1098.2012 L1480.5,1124.2012 C1480.5,1134.2012 1462.5,1134.2012 1462.5,1134.2012 C1462.5,1134.2012 1444.5,1134.2012 1444.5,1124.2012 L1444.5,1098.2012 " fill="#E2E2F0" style="stroke:#181818;stroke-width:1.5;"/><path d="M1444.5,1098.2012 C1444.5,1108.2012 1462.5,1108.2012 1462.5,1108.2012 C1462.5,1108.2012 1480.5,1108.2012 1480.5,1098.2012 " fill="none" style="stroke:#181818;stroke-width:1.5;"/><rect fill="#E2E2F0" height="46.9766" rx="2.5" ry="2.5" style="stroke:#181818;stroke-width:0.5;" width="231" x="1552.5" y="36"/><text fill="#000000" font-family="sans-serif" font-size="14" font-style="italic" lengthAdjust="spacing" textLength="81" x="1627.5" y="56.5352">&#171;controller&#187;</text><text fill="#000000" font-family="sans-serif" font-size="14" lengthAdjust="spacing" textLength="217" x="1559.5" y="73.0234">ChangeProcessStatusController</text><rect fill="#E2E2F0" height="46.9766" rx="2.5" ry="2.5" style="stroke:#181818;stroke-width:0.5;" width="231" x="1552.5" y="1055.2246"/><text fill="#000000" font-family="sans-serif" font-size="14" font-style="italic" lengthAdjust="spacing" textLength="81" x="1627.5" y="1075.7598">&#171;controller&#187;</text><text fill="#000000" font-family="sans-serif" font-size="14" lengthAdjust="spacing" textLength="217" x="1559.5" y="1092.248">ChangeProcessStatusController</text><rect fill="#E2E2F0" height="46.9766" rx="2.5" ry="2.5" style="stroke:#181818;stroke-width:0.5;" width="223" x="1793.5" y="36"/><text fill="#000000" font-family="sans-serif" font-size="14" font-style="italic" lengthAdjust="spacing" textLength="81" x="1864.5" y="56.5352">&#171;controller&#187;</text><text fill="#000000" font-family="sans-serif" font-size="14" lengthAdjust="spacing" textLength="209" x="1800.5" y="73.0234">ChangeProcessStateController</text><rect fill="#E2E2F0" height="46.9766" rx="2.5" ry="2.5" style="stroke:#181818;stroke-width:0.5;" width="223" x="1793.5" y="1055.2246"/><text fill="#000000" font-family="sans-serif" font-size="14" font-style="italic" lengthAdjust="spacing" textLength="81" x="1864.5" y="1075.7598">&#171;controller&#187;</text><text fill="#000000" font-family="sans-serif" font-size="14" lengthAdjust="spacing" textLength="209" x="1800.5" y="1092.248">ChangeProcessStateController</text><rect fill="#E2E2F0" height="46.9766" rx="2.5" ry="2.5" style="stroke:#181818;stroke-width:0.5;" width="81" x="2127.5" y="36"/><text fill="#000000" font-family="sans-serif" font-size="14" font-style="italic" lengthAdjust="spacing" textLength="67" x="2134.5" y="56.5352">&#171;process&#187;</text><text fill="#000000" font-family="sans-serif" font-size="14" lengthAdjust="spacing" textLength="52" x="2142" y="73.0234">Process</text><rect fill="#E2E2F0" height="46.9766" rx="2.5" ry="2.5" style="stroke:#181818;stroke-width:0.5;" width="81" x="2127.5" y="1055.2246"/><text fill="#000000" font-family="sans-serif" font-size="14" font-style="italic" lengthAdjust="spacing" textLength="67" x="2134.5" y="1075.7598">&#171;process&#187;</text><text fill="#000000" font-family="sans-serif" font-size="14" lengthAdjust="spacing" textLength="52" x="2142" y="1092.248">Process</text><text fill="#000000" font-family="sans-serif" font-size="14" font-style="italic" lengthAdjust="spacing" textLength="84" x="2239" y="64.5352">&#171;repository&#187;</text><text fill="#000000" font-family="sans-serif" font-size="14" lengthAdjust="spacing" textLength="125" x="2218.5" y="81.0234">ProcessRepository</text><path d="M2266,15 C2266,5 2284,5 2284,5 C2284,5 2302,5 2302,15 L2302,41 C2302,51 2284,51 2284,51 C2284,51 2266,51 2266,41 L2266,15 " fill="#E2E2F0" style="stroke:#181818;stroke-width:1.5;"/><path d="M2266,15 C2266,25 2284,25 2284,25 C2284,25 2302,25 2302,15 " fill="none" style="stroke:#181818;stroke-width:1.5;"/><text fill="#000000" font-family="sans-serif" font-size="14" font-style="italic" lengthAdjust="spacing" textLength="84" x="2239" y="1068.7598">&#171;repository&#187;</text><text fill="#000000" font-family="sans-serif" font-size="14" lengthAdjust="spacing" textLength="125" x="2218.5" y="1085.248">ProcessRepository</text><path d="M2266,1098.2012 C2266,1088.2012 2284,1088.2012 2284,1088.2012 C2284,1088.2012 2302,1088.2012 2302,1098.2012 L2302,1124.2012 C2302,1134.2012 2284,1134.2012 2284,1134.2012 C2284,1134.2012 2266,1134.2012 2266,1124.2012 L2266,1098.2012 " fill="#E2E2F0" style="stroke:#181818;stroke-width:1.5;"/><path d="M2266,1098.2012 C2266,1108.2012 2284,1108.2012 2284,1108.2012 C2284,1108.2012 2302,1108.2012 2302,1098.2012 " fill="none" style="stroke:#181818;stroke-width:1.5;"/><rect fill="#FFFFFF" height="944.248" style="stroke:#181818;stroke-width:1.0;" width="10" x="66.5" y="93.9766"/><rect fill="#FFFFFF" height="497.2793" style="stroke:#181818;stroke-width:1.0;" width="10" x="368.5" y="130.5977"/><rect fill="#FFFFFF" height="381.0371" style="stroke:#181818;stroke-width:1.0;" width="10" x="368.5" y="657.1875"/><rect fill="#FFFFFF" height="423.3477" style="stroke:#181818;stroke-width:1.0;" width="10" x="568.5" y="159.9082"/><rect fill="#FFFFFF" height="180.8633" style="stroke:#181818;stroke-width:1.0;" width="10" x="573.5" y="373.082"/><rect fill="#FFFFFF" height="146.5527" style="stroke:#181818;stroke-width:1.0;" width="10" x="906.5" y="189.2188"/><rect fill="#FFFFFF" height="146.5527" style="stroke:#181818;stroke-width:1.0;" width="10" x="906.5" y="407.3926"/><rect fill="#FFFFFF" height="87.9316" style="stroke:#181818;stroke-width:1.0;" width="10" x="1177.5" y="218.5293"/><rect fill="#FFFFFF" height="87.9316" style="stroke:#181818;stroke-width:1.0;" width="10" x="1177.5" y="436.7031"/><rect fill="#FFFFFF" height="29.3105" style="stroke:#181818;stroke-width:1.0;" width="10" x="1457.5" y="247.8398"/><rect fill="#FFFFFF" height="29.3105" style="stroke:#181818;stroke-width:1.0;" width="10" x="1457.5" y="466.0137"/><rect fill="#FFFFFF" height="146.5527" style="stroke:#181818;stroke-width:1.0;" width="10" x="1663" y="686.498"/><rect fill="#FFFFFF" height="146.5527" style="stroke:#181818;stroke-width:1.0;" width="10" x="1900" y="862.3613"/><rect fill="#FFFFFF" height="29.3105" style="stroke:#181818;stroke-width:1.0;" width="10" x="2163" y="715.8086"/><rect fill="#FFFFFF" height="29.3105" style="stroke:#181818;stroke-width:1.0;" width="10" x="2163" y="891.6719"/><rect fill="#FFFFFF" height="29.3105" style="stroke:#181818;stroke-width:1.0;" width="10" x="2279" y="774.4297"/><rect fill="#FFFFFF" height="29.3105" style="stroke:#181818;stroke-width:1.0;" width="10" x="2279" y="950.293"/><polygon fill="#181818" points="356.5,126.5977,366.5,130.5977,356.5,134.5977,360.5,130.5977" style="stroke:#181818;stroke-width:1.0;"/><line style="stroke:#181818;stroke-width:1.0;" x1="76.5" x2="362.5" y1="130.5977" y2="130.5977"/><text fill="#000000" font-family="sans-serif" font-size="13" font-weight="bold" lengthAdjust="spacing" textLength="9" x="83.5" y="118.2002">1</text><text fill="#000000" font-family="sans-serif" font-size="13" lengthAdjust="spacing" textLength="136" x="96.5" y="110.5449">asks to change phase</text><text fill="#000000" font-family="sans-serif" font-size="13" lengthAdjust="spacing" textLength="146" x="96.5" y="125.8555">status of a job opening</text><polygon fill="#181818" points="556.5,155.9082,566.5,159.9082,556.5,163.9082,560.5,159.9082" style="stroke:#181818;stroke-width:1.0;"/><line style="stroke:#181818;stroke-width:1.0;" x1="378.5" x2="562.5" y1="159.9082" y2="159.9082"/><text fill="#000000" font-family="sans-serif" font-size="13" font-weight="bold" lengthAdjust="spacing" textLength="9" x="385.5" y="155.166">2</text><text fill="#000000" font-family="sans-serif" font-size="13" lengthAdjust="spacing" textLength="118" x="398.5" y="155.166">selectJobOpening()</text><polygon fill="#181818" points="894.5,185.2188,904.5,189.2188,894.5,193.2188,898.5,189.2188" style="stroke:#181818;stroke-width:1.0;"/><line style="stroke:#181818;stroke-width:1.0;" x1="578.5" x2="900.5" y1="189.2188" y2="189.2188"/><text fill="#000000" font-family="sans-serif" font-size="13" font-weight="bold" lengthAdjust="spacing" textLength="9" x="585.5" y="184.4766">3</text><text fill="#000000" font-family="sans-serif" font-size="13" lengthAdjust="spacing" textLength="121" x="598.5" y="184.4766">showJobOpenings()</text><polygon fill="#181818" points="1165.5,214.5293,1175.5,218.5293,1165.5,222.5293,1169.5,218.5293" style="stroke:#181818;stroke-width:1.0;"/><line style="stroke:#181818;stroke-width:1.0;" x1="916.5" x2="1171.5" y1="218.5293" y2="218.5293"/><text fill="#000000" font-family="sans-serif" font-size="13" font-weight="bold" lengthAdjust="spacing" textLength="9" x="923.5" y="213.7871">4</text><text fill="#000000" font-family="sans-serif" font-size="13" lengthAdjust="spacing" textLength="103" x="936.5" y="213.7871">allJobOpenings()</text><polygon fill="#181818" points="1445.5,243.8398,1455.5,247.8398,1445.5,251.8398,1449.5,247.8398" style="stroke:#181818;stroke-width:1.0;"/><line style="stroke:#181818;stroke-width:1.0;" x1="1187.5" x2="1451.5" y1="247.8398" y2="247.8398"/><text fill="#000000" font-family="sans-serif" font-size="13" font-weight="bold" lengthAdjust="spacing" textLength="9" x="1194.5" y="243.0977">5</text><text fill="#000000" font-family="sans-serif" font-size="13" lengthAdjust="spacing" textLength="50" x="1207.5" y="243.0977">findAll()</text><polygon fill="#181818" points="1198.5,273.1504,1188.5,277.1504,1198.5,281.1504,1194.5,277.1504" style="stroke:#181818;stroke-width:1.0;"/><line style="stroke:#181818;stroke-width:1.0;stroke-dasharray:2.0,2.0;" x1="1192.5" x2="1461.5" y1="277.1504" y2="277.1504"/><text fill="#000000" font-family="sans-serif" font-size="13" font-weight="bold" lengthAdjust="spacing" textLength="9" x="1204.5" y="272.4082">6</text><text fill="#000000" font-family="sans-serif" font-size="13" lengthAdjust="spacing" textLength="224" x="1217.5" y="272.4082">Iterable&lt;JobOpening&gt; jobOpenings</text><polygon fill="#181818" points="927.5,302.4609,917.5,306.4609,927.5,310.4609,923.5,306.4609" style="stroke:#181818;stroke-width:1.0;"/><line style="stroke:#181818;stroke-width:1.0;stroke-dasharray:2.0,2.0;" x1="921.5" x2="1181.5" y1="306.4609" y2="306.4609"/><text fill="#000000" font-family="sans-serif" font-size="13" font-weight="bold" lengthAdjust="spacing" textLength="9" x="933.5" y="301.7188">7</text><text fill="#000000" font-family="sans-serif" font-size="13" lengthAdjust="spacing" textLength="224" x="946.5" y="301.7188">Iterable&lt;JobOpening&gt; jobOpenings</text><polygon fill="#181818" points="589.5,331.7715,579.5,335.7715,589.5,339.7715,585.5,335.7715" style="stroke:#181818;stroke-width:1.0;"/><line style="stroke:#181818;stroke-width:1.0;stroke-dasharray:2.0,2.0;" x1="583.5" x2="910.5" y1="335.7715" y2="335.7715"/><text fill="#000000" font-family="sans-serif" font-size="13" font-weight="bold" lengthAdjust="spacing" textLength="9" x="595.5" y="331.0293">8</text><text fill="#000000" font-family="sans-serif" font-size="13" lengthAdjust="spacing" textLength="224" x="608.5" y="331.0293">Iterable&lt;JobOpening&gt; jobOpenings</text><line style="stroke:#181818;stroke-width:1.0;" x1="578.5" x2="625.5" y1="360.082" y2="360.082"/><line style="stroke:#181818;stroke-width:1.0;" x1="625.5" x2="625.5" y1="360.082" y2="373.082"/><line style="stroke:#181818;stroke-width:1.0;" x1="584.5" x2="625.5" y1="373.082" y2="373.082"/><polygon fill="#181818" points="594.5,369.082,584.5,373.082,594.5,377.082,590.5,373.082" style="stroke:#181818;stroke-width:1.0;"/><text fill="#000000" font-family="sans-serif" font-size="13" font-weight="bold" lengthAdjust="spacing" textLength="9" x="590.5" y="355.3398">9</text><text fill="#000000" font-family="sans-serif" font-size="13" lengthAdjust="spacing" textLength="222" x="603.5" y="355.3398">selectorPart(List&lt;JobOpening&gt; list)</text><polygon fill="#181818" points="894.5,403.3926,904.5,407.3926,894.5,411.3926,898.5,407.3926" style="stroke:#181818;stroke-width:1.0;"/><line style="stroke:#181818;stroke-width:1.0;" x1="583.5" x2="900.5" y1="407.3926" y2="407.3926"/><text fill="#000000" font-family="sans-serif" font-size="13" font-weight="bold" lengthAdjust="spacing" textLength="18" x="590.5" y="402.6504">10</text><text fill="#000000" font-family="sans-serif" font-size="13" lengthAdjust="spacing" textLength="282" x="612.5" y="402.6504">findJobOpeningByJobReference(jobReference)</text><polygon fill="#181818" points="1165.5,432.7031,1175.5,436.7031,1165.5,440.7031,1169.5,436.7031" style="stroke:#181818;stroke-width:1.0;"/><line style="stroke:#181818;stroke-width:1.0;" x1="916.5" x2="1171.5" y1="436.7031" y2="436.7031"/><text fill="#000000" font-family="sans-serif" font-size="13" font-weight="bold" lengthAdjust="spacing" textLength="18" x="923.5" y="431.9609">11</text><text fill="#000000" font-family="sans-serif" font-size="13" lengthAdjust="spacing" textLength="187" x="945.5" y="431.9609">findJobOpening(jobReference)</text><polygon fill="#181818" points="1445.5,462.0137,1455.5,466.0137,1445.5,470.0137,1449.5,466.0137" style="stroke:#181818;stroke-width:1.0;"/><line style="stroke:#181818;stroke-width:1.0;" x1="1187.5" x2="1451.5" y1="466.0137" y2="466.0137"/><text fill="#000000" font-family="sans-serif" font-size="13" font-weight="bold" lengthAdjust="spacing" textLength="18" x="1194.5" y="461.2715">12</text><text fill="#000000" font-family="sans-serif" font-size="13" lengthAdjust="spacing" textLength="50" x="1216.5" y="461.2715">findAll()</text><polygon fill="#181818" points="1198.5,491.3242,1188.5,495.3242,1198.5,499.3242,1194.5,495.3242" style="stroke:#181818;stroke-width:1.0;"/><line style="stroke:#181818;stroke-width:1.0;stroke-dasharray:2.0,2.0;" x1="1192.5" x2="1461.5" y1="495.3242" y2="495.3242"/><text fill="#000000" font-family="sans-serif" font-size="13" font-weight="bold" lengthAdjust="spacing" textLength="18" x="1204.5" y="490.582">13</text><text fill="#000000" font-family="sans-serif" font-size="13" lengthAdjust="spacing" textLength="224" x="1226.5" y="490.582">Iterable&lt;JobOpening&gt; jobOpenings</text><polygon fill="#181818" points="927.5,520.6348,917.5,524.6348,927.5,528.6348,923.5,524.6348" style="stroke:#181818;stroke-width:1.0;"/><line style="stroke:#181818;stroke-width:1.0;stroke-dasharray:2.0,2.0;" x1="921.5" x2="1181.5" y1="524.6348" y2="524.6348"/><text fill="#000000" font-family="sans-serif" font-size="13" font-weight="bold" lengthAdjust="spacing" textLength="18" x="933.5" y="519.8926">14</text><text fill="#000000" font-family="sans-serif" font-size="13" lengthAdjust="spacing" textLength="75" x="955.5" y="519.8926">job opening</text><polygon fill="#181818" points="589.5,549.9453,579.5,553.9453,589.5,557.9453,585.5,553.9453" style="stroke:#181818;stroke-width:1.0;"/><line style="stroke:#181818;stroke-width:1.0;stroke-dasharray:2.0,2.0;" x1="583.5" x2="910.5" y1="553.9453" y2="553.9453"/><text fill="#000000" font-family="sans-serif" font-size="13" font-weight="bold" lengthAdjust="spacing" textLength="18" x="595.5" y="549.2031">15</text><text fill="#000000" font-family="sans-serif" font-size="13" lengthAdjust="spacing" textLength="75" x="617.5" y="549.2031">job opening</text><polygon fill="#181818" points="389.5,579.2559,379.5,583.2559,389.5,587.2559,385.5,583.2559" style="stroke:#181818;stroke-width:1.0;"/><line style="stroke:#181818;stroke-width:1.0;stroke-dasharray:2.0,2.0;" x1="383.5" x2="572.5" y1="583.2559" y2="583.2559"/><text fill="#000000" font-family="sans-serif" font-size="13" font-weight="bold" lengthAdjust="spacing" textLength="18" x="395.5" y="578.5137">16</text><text fill="#000000" font-family="sans-serif" font-size="13" lengthAdjust="spacing" textLength="77" x="417.5" y="578.5137">job Opening</text><polygon fill="#181818" points="87.5,623.877,77.5,627.877,87.5,631.877,83.5,627.877" style="stroke:#181818;stroke-width:1.0;"/><line style="stroke:#181818;stroke-width:1.0;" x1="81.5" x2="372.5" y1="627.877" y2="627.877"/><text fill="#000000" font-family="sans-serif" font-size="13" font-weight="bold" lengthAdjust="spacing" textLength="18" x="93.5" y="615.4795">17</text><text fill="#000000" font-family="sans-serif" font-size="13" lengthAdjust="spacing" textLength="162" x="115.5" y="607.8242">shows job opening status</text><text fill="#000000" font-family="sans-serif" font-size="13" lengthAdjust="spacing" textLength="189" x="115.5" y="623.1348">and asks if it wants to change</text><polygon fill="#181818" points="356.5,653.1875,366.5,657.1875,356.5,661.1875,360.5,657.1875" style="stroke:#181818;stroke-width:1.0;"/><line style="stroke:#181818;stroke-width:1.0;" x1="76.5" x2="362.5" y1="657.1875" y2="657.1875"/><text fill="#000000" font-family="sans-serif" font-size="13" font-weight="bold" lengthAdjust="spacing" textLength="18" x="83.5" y="652.4453">18</text><text fill="#000000" font-family="sans-serif" font-size="13" lengthAdjust="spacing" textLength="251" x="105.5" y="652.4453">selects if it wants to go back or forward</text><polygon fill="#181818" points="1651,682.498,1661,686.498,1651,690.498,1655,686.498" style="stroke:#181818;stroke-width:1.0;"/><line style="stroke:#181818;stroke-width:1.0;" x1="378.5" x2="1657" y1="686.498" y2="686.498"/><text fill="#000000" font-family="sans-serif" font-size="13" font-weight="bold" lengthAdjust="spacing" textLength="18" x="385.5" y="681.7559">19</text><text fill="#000000" font-family="sans-serif" font-size="13" lengthAdjust="spacing" textLength="285" x="407.5" y="681.7559">changeProcessStatus(processStatus,process);</text><polygon fill="#181818" points="2151,711.8086,2161,715.8086,2151,719.8086,2155,715.8086" style="stroke:#181818;stroke-width:1.0;"/><line style="stroke:#181818;stroke-width:1.0;" x1="1673" x2="2157" y1="715.8086" y2="715.8086"/><text fill="#000000" font-family="sans-serif" font-size="13" font-weight="bold" lengthAdjust="spacing" textLength="18" x="1680" y="711.0664">20</text><text fill="#000000" font-family="sans-serif" font-size="13" lengthAdjust="spacing" textLength="228" x="1702" y="711.0664">changeProcessStatus(processStatus)</text><polygon fill="#181818" points="1684,741.1191,1674,745.1191,1684,749.1191,1680,745.1191" style="stroke:#181818;stroke-width:1.0;"/><line style="stroke:#181818;stroke-width:1.0;stroke-dasharray:2.0,2.0;" x1="1678" x2="2167" y1="745.1191" y2="745.1191"/><text fill="#000000" font-family="sans-serif" font-size="13" font-weight="bold" lengthAdjust="spacing" textLength="18" x="1690" y="740.377">21</text><text fill="#000000" font-family="sans-serif" font-size="13" lengthAdjust="spacing" textLength="25" x="1712" y="740.377">true</text><polygon fill="#181818" points="2267,770.4297,2277,774.4297,2267,778.4297,2271,774.4297" style="stroke:#181818;stroke-width:1.0;"/><line style="stroke:#181818;stroke-width:1.0;" x1="1673" x2="2273" y1="774.4297" y2="774.4297"/><text fill="#000000" font-family="sans-serif" font-size="13" font-weight="bold" lengthAdjust="spacing" textLength="18" x="1680" y="769.6875">22</text><text fill="#000000" font-family="sans-serif" font-size="13" lengthAdjust="spacing" textLength="85" x="1702" y="769.6875">save(process)</text><polygon fill="#181818" points="1684,799.7402,1674,803.7402,1684,807.7402,1680,803.7402" style="stroke:#181818;stroke-width:1.0;"/><line style="stroke:#181818;stroke-width:1.0;stroke-dasharray:2.0,2.0;" x1="1678" x2="2283" y1="803.7402" y2="803.7402"/><text fill="#000000" font-family="sans-serif" font-size="13" font-weight="bold" lengthAdjust="spacing" textLength="18" x="1690" y="798.998">23</text><text fill="#000000" font-family="sans-serif" font-size="13" lengthAdjust="spacing" textLength="25" x="1712" y="798.998">true</text><polygon fill="#181818" points="389.5,829.0508,379.5,833.0508,389.5,837.0508,385.5,833.0508" style="stroke:#181818;stroke-width:1.0;"/><line style="stroke:#181818;stroke-width:1.0;stroke-dasharray:2.0,2.0;" x1="383.5" x2="1667" y1="833.0508" y2="833.0508"/><text fill="#000000" font-family="sans-serif" font-size="13" font-weight="bold" lengthAdjust="spacing" textLength="18" x="395.5" y="828.3086">24</text><text fill="#000000" font-family="sans-serif" font-size="13" lengthAdjust="spacing" textLength="139" x="417.5" y="828.3086">process status altered</text><polygon fill="#181818" points="1888,858.3613,1898,862.3613,1888,866.3613,1892,862.3613" style="stroke:#181818;stroke-width:1.0;"/><line style="stroke:#181818;stroke-width:1.0;" x1="378.5" x2="1894" y1="862.3613" y2="862.3613"/><text fill="#000000" font-family="sans-serif" font-size="13" font-weight="bold" lengthAdjust="spacing" textLength="18" x="385.5" y="857.6191">25</text><text fill="#000000" font-family="sans-serif" font-size="13" lengthAdjust="spacing" textLength="265" x="407.5" y="857.6191">changeProcessState(processState,process)</text><polygon fill="#181818" points="2151,887.6719,2161,891.6719,2151,895.6719,2155,891.6719" style="stroke:#181818;stroke-width:1.0;"/><line style="stroke:#181818;stroke-width:1.0;" x1="1910" x2="2157" y1="891.6719" y2="891.6719"/><text fill="#000000" font-family="sans-serif" font-size="13" font-weight="bold" lengthAdjust="spacing" textLength="18" x="1917" y="886.9297">26</text><text fill="#000000" font-family="sans-serif" font-size="13" lengthAdjust="spacing" textLength="212" x="1939" y="886.9297">changeProcessState(processState)</text><polygon fill="#181818" points="1921,916.9824,1911,920.9824,1921,924.9824,1917,920.9824" style="stroke:#181818;stroke-width:1.0;"/><line style="stroke:#181818;stroke-width:1.0;stroke-dasharray:2.0,2.0;" x1="1915" x2="2167" y1="920.9824" y2="920.9824"/><text fill="#000000" font-family="sans-serif" font-size="13" font-weight="bold" lengthAdjust="spacing" textLength="18" x="1927" y="916.2402">27</text><text fill="#000000" font-family="sans-serif" font-size="13" lengthAdjust="spacing" textLength="25" x="1949" y="916.2402">true</text><polygon fill="#181818" points="2267,946.293,2277,950.293,2267,954.293,2271,950.293" style="stroke:#181818;stroke-width:1.0;"/><line style="stroke:#181818;stroke-width:1.0;" x1="1910" x2="2273" y1="950.293" y2="950.293"/><text fill="#000000" font-family="sans-serif" font-size="13" font-weight="bold" lengthAdjust="spacing" textLength="18" x="1917" y="945.5508">28</text><text fill="#000000" font-family="sans-serif" font-size="13" lengthAdjust="spacing" textLength="85" x="1939" y="945.5508">save(process)</text><polygon fill="#181818" points="1921,975.6035,1911,979.6035,1921,983.6035,1917,979.6035" style="stroke:#181818;stroke-width:1.0;"/><line style="stroke:#181818;stroke-width:1.0;stroke-dasharray:2.0,2.0;" x1="1915" x2="2283" y1="979.6035" y2="979.6035"/><text fill="#000000" font-family="sans-serif" font-size="13" font-weight="bold" lengthAdjust="spacing" textLength="18" x="1927" y="974.8613">29</text><text fill="#000000" font-family="sans-serif" font-size="13" lengthAdjust="spacing" textLength="25" x="1949" y="974.8613">true</text><polygon fill="#181818" points="389.5,1004.9141,379.5,1008.9141,389.5,1012.9141,385.5,1008.9141" style="stroke:#181818;stroke-width:1.0;"/><line style="stroke:#181818;stroke-width:1.0;stroke-dasharray:2.0,2.0;" x1="383.5" x2="1904" y1="1008.9141" y2="1008.9141"/><text fill="#000000" font-family="sans-serif" font-size="13" font-weight="bold" lengthAdjust="spacing" textLength="18" x="395.5" y="1004.1719">30</text><text fill="#000000" font-family="sans-serif" font-size="13" lengthAdjust="spacing" textLength="131" x="417.5" y="1004.1719">process state altered</text><polygon fill="#181818" points="82.5,1034.2246,72.5,1038.2246,82.5,1042.2246,78.5,1038.2246" style="stroke:#181818;stroke-width:1.0;"/><line style="stroke:#181818;stroke-width:1.0;stroke-dasharray:2.0,2.0;" x1="76.5" x2="372.5" y1="1038.2246" y2="1038.2246"/><text fill="#000000" font-family="sans-serif" font-size="13" font-weight="bold" lengthAdjust="spacing" textLength="18" x="88.5" y="1033.4824">31</text><text fill="#000000" font-family="sans-serif" font-size="13" lengthAdjust="spacing" textLength="173" x="110.5" y="1033.4824">operation success message</text><!--SRC=[pLXDR-8m4BtpAtoaKla3B4BQvTHLLwsAzjQBamoGDjYHxO3wxtVo0R7Zs3WXkzeSK1nxvhsntun7q49nLXmZ4BCPZHKNP5D8nOyWVb56z-Ndd0gLncbEcIAR0sLxU1Ky1YctYgf2_duYgrKkG0B3SShPUcsOR263MFtaqKiEB6Nx3MTAy2m3WNRnTT2nUaxbO9js_HR4AOq15ylw3LScLD68Ij2MlK7EPOf1V-5ASHrqtFR47CR7CeGmkyQYsjRgJMVVJBgfL-UOdX3DFag2J-SZMQmTfxeaL7vAeZY9gtcI7qe2xqnMAmZV4Ke-U4HulPkLznQxpsVDe6BH2ubSF79P4jcPd3zS7Lw1tGvQzFBn024Df_wGn86VsocfSJ1uk3oOBCh7YOKyR4tZiMIP6z_WO5dRuELZWnZ8cjQMP9Uov7kMzQ0wa5lhVd2JW8QrS8J_f43GA8DLExakTNZPa5wK14PGwzaNlpG6K-kbvJmhjr1k9SuWOXgfC17xKoaWexbunVetBz4CXXb-SAHNQ9hVbUgbsDkf7r_u_WOx4C1Yc7ze0qyEXjU1CRN0P7Y3qvZQC6rzkAD6_9iwCRfMZAeNtTlpll9mNudmSGcf28xrKrp7dXQbPFtIOJqGtTcAT3kb-kgN-awHfXTwPvGbTR-KxaYgo1aREQrtcdLuURgZ0VrPNJmjo3qd4Oq_2JRpEoxEL2JJj6R-HdZPX6hCptDzzDYC7hxPRPlNkIaLFmyaUccW0oWvRfV6miwnY-j5m7ueKO0hBNe1GWCp2gwa9xZ4v8_6Ly9ipnD5w0Az4Qj7zKsibzIZ6TPvIFgoFr1JuO87lzv1rnOyMeVY9WR1MeTWgPji9XKwJAnp-Cza3dzDvJ12v318uvQK7FBklU3mMXFLdpX45d55u8W_E3cR1LvX-ehEtmz_0000]--></g></svg>