<?xml version="1.0" encoding="us-ascii" standalone="no"?><svg xmlns="http://www.w3.org/2000/svg" xmlns:xlink="http://www.w3.org/1999/xlink" contentStyleType="text/css" height="863px" preserveAspectRatio="none" style="width:557px;height:863px;background:#FFFFFF;" version="1.1" viewBox="0 0 557 863" width="557px" zoomAndPan="magnify"><defs/><g><text fill="#000000" font-family="sans-serif" font-size="14" font-weight="bold" lengthAdjust="spacing" textLength="283" x="130" y="25.1074">Class Diagram - Most Referenced Words</text><!--cluster presentation--><g id="cluster_presentation"><path d="M157.5,45.6348 L248.5,45.6348 A3.75,3.75 0 0 1 251,48.1348 L258,70.2559 L398.5,70.2559 A2.5,2.5 0 0 1 401,72.7559 L401,200.1348 A2.5,2.5 0 0 1 398.5,202.6348 L157.5,202.6348 A2.5,2.5 0 0 1 155,200.1348 L155,48.1348 A2.5,2.5 0 0 1 157.5,45.6348 " fill="none" style="stroke:#000000;stroke-width:1.5;"/><line style="stroke:#000000;stroke-width:1.5;" x1="155" x2="258" y1="70.2559" y2="70.2559"/><text fill="#000000" font-family="sans-serif" font-size="14" font-weight="bold" lengthAdjust="spacing" textLength="90" x="159" y="62.7422">presentation</text></g><!--cluster controller--><g id="cluster_controller"><path d="M116.5,226.6348 L186.5,226.6348 A3.75,3.75 0 0 1 189,229.1348 L196,251.2559 L439.5,251.2559 A2.5,2.5 0 0 1 442,253.7559 L442,455.1348 A2.5,2.5 0 0 1 439.5,457.6348 L116.5,457.6348 A2.5,2.5 0 0 1 114,455.1348 L114,229.1348 A2.5,2.5 0 0 1 116.5,226.6348 " fill="none" style="stroke:#000000;stroke-width:1.5;"/><line style="stroke:#000000;stroke-width:1.5;" x1="114" x2="196" y1="251.2559" y2="251.2559"/><text fill="#000000" font-family="sans-serif" font-size="14" font-weight="bold" lengthAdjust="spacing" textLength="69" x="118" y="243.7422">controller</text></g><!--cluster services--><g id="cluster_services"><path d="M8.5,481.6348 L70.5,481.6348 A3.75,3.75 0 0 1 73,484.1348 L80,506.2559 L547.5,506.2559 A2.5,2.5 0 0 1 550,508.7559 L550,692.1348 A2.5,2.5 0 0 1 547.5,694.6348 L8.5,694.6348 A2.5,2.5 0 0 1 6,692.1348 L6,484.1348 A2.5,2.5 0 0 1 8.5,481.6348 " fill="none" style="stroke:#000000;stroke-width:1.5;"/><line style="stroke:#000000;stroke-width:1.5;" x1="6" x2="80" y1="506.2559" y2="506.2559"/><text fill="#000000" font-family="sans-serif" font-size="14" font-weight="bold" lengthAdjust="spacing" textLength="61" x="10" y="498.7422">services</text></g><!--cluster repositories--><g id="cluster_repositories"><path d="M178.5,718.6348 L265.5,718.6348 A3.75,3.75 0 0 1 268,721.1348 L275,743.2559 L377.5,743.2559 A2.5,2.5 0 0 1 380,745.7559 L380,854.1348 A2.5,2.5 0 0 1 377.5,856.6348 L178.5,856.6348 A2.5,2.5 0 0 1 176,854.1348 L176,721.1348 A2.5,2.5 0 0 1 178.5,718.6348 " fill="none" style="stroke:#000000;stroke-width:1.5;"/><line style="stroke:#000000;stroke-width:1.5;" x1="176" x2="275" y1="743.2559" y2="743.2559"/><text fill="#000000" font-family="sans-serif" font-size="14" font-weight="bold" lengthAdjust="spacing" textLength="86" x="180" y="735.7422">repositories</text></g><!--class MostReferencedWordsUI--><g id="elem_MostReferencedWordsUI"><rect codeLine="12" fill="#FFFFFF" height="103.8633" id="MostReferencedWordsUI" rx="2.5" ry="2.5" style="stroke:#000000;stroke-width:0.5;" width="213" x="171.5" y="82.6348"/><ellipse cx="197.3" cy="98.6348" fill="#ADD1B2" rx="11" ry="11" style="stroke:#181818;stroke-width:1.0;"/><path d="M200.0656,94.5098 Q200.2219,94.291 200.4094,94.1816 Q200.5969,94.0723 200.8156,94.0723 Q201.1906,94.0723 201.425,94.3379 Q201.6594,94.5879 201.6594,95.1973 L201.6594,96.6504 Q201.6594,97.2598 201.425,97.5254 Q201.1906,97.791 200.8156,97.791 Q200.4719,97.791 200.2688,97.5879 Q200.0656,97.4004 199.9563,96.8848 Q199.9094,96.5254 199.7219,96.3379 Q199.3938,95.9629 198.7844,95.7441 Q198.175,95.5254 197.55,95.5254 Q196.7844,95.5254 196.1438,95.8535 Q195.5188,96.1816 195.0188,96.9316 Q194.5344,97.6816 194.5344,98.7129 L194.5344,99.8066 Q194.5344,101.041 195.425,101.8691 Q196.3156,102.6816 197.9094,102.6816 Q198.8469,102.6816 199.5031,102.4316 Q199.8938,102.2754 200.3156,101.8379 Q200.5813,101.5723 200.7219,101.4941 Q200.8781,101.416 201.0813,101.416 Q201.4094,101.416 201.6594,101.6816 Q201.925,101.9316 201.925,102.2754 Q201.925,102.6191 201.5813,103.0254 Q201.0813,103.6035 200.2844,103.9316 Q199.2063,104.3848 197.9094,104.3848 Q196.3938,104.3848 195.1906,103.7598 Q194.2063,103.2598 193.5188,102.1973 Q192.8313,101.1191 192.8313,99.8379 L192.8313,98.6816 Q192.8313,97.3535 193.4406,96.2129 Q194.0656,95.0566 195.1594,94.4473 Q196.2531,93.8223 197.4875,93.8223 Q198.2219,93.8223 198.8625,93.9941 Q199.5188,94.1504 200.0656,94.5098 Z " fill="#000000"/><text fill="#000000" font-family="sans-serif" font-size="14" lengthAdjust="spacing" textLength="157" x="213.7" y="104.4316">MostReferencedWordsUI</text><line style="stroke:#000000;stroke-width:0.5;" x1="172.5" x2="383.5" y1="114.6348" y2="114.6348"/><line style="stroke:#000000;stroke-width:0.5;" x1="172.5" x2="383.5" y1="122.6348" y2="122.6348"/><ellipse cx="182.5" cy="137.4453" fill="#84BE84" rx="3" ry="3" style="stroke:#038048;stroke-width:1.0;"/><text fill="#000000" font-family="sans-serif" font-size="14" lengthAdjust="spacing" textLength="60" x="191.5" y="141.7422">doShow()</text><ellipse cx="182.5" cy="156.0664" fill="#84BE84" rx="3" ry="3" style="stroke:#038048;stroke-width:1.0;"/><text fill="#000000" font-family="sans-serif" font-size="14" lengthAdjust="spacing" textLength="187" x="191.5" y="160.3633">selectCandidate(applications)</text><ellipse cx="182.5" cy="174.6875" fill="#84BE84" rx="3" ry="3" style="stroke:#038048;stroke-width:1.0;"/><text fill="#000000" font-family="sans-serif" font-size="14" lengthAdjust="spacing" textLength="64" x="191.5" y="178.9844">headline()</text></g><!--class MostReferencedWordsController--><g id="elem_MostReferencedWordsController"><rect codeLine="20" fill="#FFFFFF" height="178.3477" id="MostReferencedWordsController" rx="2.5" ry="2.5" style="stroke:#000000;stroke-width:0.5;" width="296" x="130" y="263.6348"/><ellipse cx="170.65" cy="279.6348" fill="#ADD1B2" rx="11" ry="11" style="stroke:#181818;stroke-width:1.0;"/><path d="M173.4156,275.5098 Q173.5719,275.291 173.7594,275.1816 Q173.9469,275.0723 174.1656,275.0723 Q174.5406,275.0723 174.775,275.3379 Q175.0094,275.5879 175.0094,276.1973 L175.0094,277.6504 Q175.0094,278.2598 174.775,278.5254 Q174.5406,278.791 174.1656,278.791 Q173.8219,278.791 173.6188,278.5879 Q173.4156,278.4004 173.3063,277.8848 Q173.2594,277.5254 173.0719,277.3379 Q172.7438,276.9629 172.1344,276.7441 Q171.525,276.5254 170.9,276.5254 Q170.1344,276.5254 169.4938,276.8535 Q168.8688,277.1816 168.3688,277.9316 Q167.8844,278.6816 167.8844,279.7129 L167.8844,280.8066 Q167.8844,282.041 168.775,282.8691 Q169.6656,283.6816 171.2594,283.6816 Q172.1969,283.6816 172.8531,283.4316 Q173.2438,283.2754 173.6656,282.8379 Q173.9313,282.5723 174.0719,282.4941 Q174.2281,282.416 174.4313,282.416 Q174.7594,282.416 175.0094,282.6816 Q175.275,282.9316 175.275,283.2754 Q175.275,283.6191 174.9313,284.0254 Q174.4313,284.6035 173.6344,284.9316 Q172.5563,285.3848 171.2594,285.3848 Q169.7438,285.3848 168.5406,284.7598 Q167.5563,284.2598 166.8688,283.1973 Q166.1813,282.1191 166.1813,280.8379 L166.1813,279.6816 Q166.1813,278.3535 166.7906,277.2129 Q167.4156,276.0566 168.5094,275.4473 Q169.6031,274.8223 170.8375,274.8223 Q171.5719,274.8223 172.2125,274.9941 Q172.8688,275.1504 173.4156,275.5098 Z " fill="#000000"/><text fill="#000000" font-family="sans-serif" font-size="14" lengthAdjust="spacing" textLength="207" x="190.35" y="285.4316">MostReferencedWordsController</text><line style="stroke:#000000;stroke-width:0.5;" x1="131" x2="425" y1="295.6348" y2="295.6348"/><line style="stroke:#000000;stroke-width:0.5;" x1="131" x2="425" y1="303.6348" y2="303.6348"/><ellipse cx="141" cy="318.4453" fill="#84BE84" rx="3" ry="3" style="stroke:#038048;stroke-width:1.0;"/><text fill="#000000" font-family="sans-serif" font-size="14" lengthAdjust="spacing" textLength="226" x="150" y="322.7422">findCustomerManagerApplications()</text><ellipse cx="141" cy="337.0664" fill="#84BE84" rx="3" ry="3" style="stroke:#038048;stroke-width:1.0;"/><text fill="#000000" font-family="sans-serif" font-size="14" lengthAdjust="spacing" textLength="243" x="150" y="341.3633">getCandidateFiles(selectedCandidate)</text><ellipse cx="141" cy="355.6875" fill="#84BE84" rx="3" ry="3" style="stroke:#038048;stroke-width:1.0;"/><text fill="#000000" font-family="sans-serif" font-size="14" lengthAdjust="spacing" textLength="270" x="150" y="359.9844">findMostReferencedWords(candidateFiles)</text><ellipse cx="141" cy="374.3086" fill="#84BE84" rx="3" ry="3" style="stroke:#038048;stroke-width:1.0;"/><text fill="#000000" font-family="sans-serif" font-size="14" lengthAdjust="spacing" textLength="187" x="150" y="378.6055">countWordsFile(file, fileLines)</text><ellipse cx="141" cy="392.9297" fill="#84BE84" rx="3" ry="3" style="stroke:#038048;stroke-width:1.0;"/><text fill="#000000" font-family="sans-serif" font-size="14" lengthAdjust="spacing" textLength="140" x="150" y="397.2266">isWord(possibleWord)</text><ellipse cx="141" cy="411.5508" fill="#84BE84" rx="3" ry="3" style="stroke:#038048;stroke-width:1.0;"/><text fill="#000000" font-family="sans-serif" font-size="14" lengthAdjust="spacing" textLength="80" x="150" y="415.8477">readFile(file)</text><ellipse cx="141" cy="430.1719" fill="#84BE84" rx="3" ry="3" style="stroke:#038048;stroke-width:1.0;"/><text fill="#000000" font-family="sans-serif" font-size="14" lengthAdjust="spacing" textLength="160" x="150" y="434.4688">sortMap(totalWordCount)</text></g><!--class ApplicationService--><g id="elem_ApplicationService"><rect codeLine="32" fill="#FFFFFF" height="159.7266" id="ApplicationService" rx="2.5" ry="2.5" style="stroke:#000000;stroke-width:0.5;" width="512" x="22" y="518.6348"/><ellipse cx="215.75" cy="534.6348" fill="#ADD1B2" rx="11" ry="11" style="stroke:#181818;stroke-width:1.0;"/><path d="M218.5156,530.5098 Q218.6719,530.291 218.8594,530.1816 Q219.0469,530.0723 219.2656,530.0723 Q219.6406,530.0723 219.875,530.3379 Q220.1094,530.5879 220.1094,531.1973 L220.1094,532.6504 Q220.1094,533.2598 219.875,533.5254 Q219.6406,533.791 219.2656,533.791 Q218.9219,533.791 218.7188,533.5879 Q218.5156,533.4004 218.4063,532.8848 Q218.3594,532.5254 218.1719,532.3379 Q217.8438,531.9629 217.2344,531.7441 Q216.625,531.5254 216,531.5254 Q215.2344,531.5254 214.5938,531.8535 Q213.9688,532.1816 213.4688,532.9316 Q212.9844,533.6816 212.9844,534.7129 L212.9844,535.8066 Q212.9844,537.041 213.875,537.8691 Q214.7656,538.6816 216.3594,538.6816 Q217.2969,538.6816 217.9531,538.4316 Q218.3438,538.2754 218.7656,537.8379 Q219.0313,537.5723 219.1719,537.4941 Q219.3281,537.416 219.5313,537.416 Q219.8594,537.416 220.1094,537.6816 Q220.375,537.9316 220.375,538.2754 Q220.375,538.6191 220.0313,539.0254 Q219.5313,539.6035 218.7344,539.9316 Q217.6563,540.3848 216.3594,540.3848 Q214.8438,540.3848 213.6406,539.7598 Q212.6563,539.2598 211.9688,538.1973 Q211.2813,537.1191 211.2813,535.8379 L211.2813,534.6816 Q211.2813,533.3535 211.8906,532.2129 Q212.5156,531.0566 213.6094,530.4473 Q214.7031,529.8223 215.9375,529.8223 Q216.6719,529.8223 217.3125,529.9941 Q217.9688,530.1504 218.5156,530.5098 Z " fill="#000000"/><text fill="#000000" font-family="sans-serif" font-size="14" lengthAdjust="spacing" textLength="116" x="236.25" y="540.4316">ApplicationService</text><line style="stroke:#000000;stroke-width:0.5;" x1="23" x2="533" y1="550.6348" y2="550.6348"/><line style="stroke:#000000;stroke-width:0.5;" x1="23" x2="533" y1="558.6348" y2="558.6348"/><ellipse cx="33" cy="573.4453" fill="#84BE84" rx="3" ry="3" style="stroke:#038048;stroke-width:1.0;"/><text fill="#000000" font-family="sans-serif" font-size="14" lengthAdjust="spacing" textLength="486" x="42" y="577.7422">registerApplication(rank, applicationFiles, jobReference, candidate, operator)</text><ellipse cx="33" cy="592.0664" fill="#84BE84" rx="3" ry="3" style="stroke:#038048;stroke-width:1.0;"/><text fill="#000000" font-family="sans-serif" font-size="14" lengthAdjust="spacing" textLength="210" x="42" y="596.3633">findApplicationById(applicationID)</text><ellipse cx="33" cy="610.6875" fill="#84BE84" rx="3" ry="3" style="stroke:#038048;stroke-width:1.0;"/><text fill="#000000" font-family="sans-serif" font-size="14" lengthAdjust="spacing" textLength="100" x="42" y="614.9844">allApplications()</text><ellipse cx="33" cy="629.3086" fill="#84BE84" rx="3" ry="3" style="stroke:#038048;stroke-width:1.0;"/><text fill="#000000" font-family="sans-serif" font-size="14" lengthAdjust="spacing" textLength="280" x="42" y="633.6055">findApplicationsForJobOpening(jobOpening)</text><ellipse cx="33" cy="647.9297" fill="#84BE84" rx="3" ry="3" style="stroke:#038048;stroke-width:1.0;"/><text fill="#000000" font-family="sans-serif" font-size="14" lengthAdjust="spacing" textLength="191" x="42" y="652.2266">updateRank(rank, application)</text><ellipse cx="33" cy="666.5508" fill="#84BE84" rx="3" ry="3" style="stroke:#038048;stroke-width:1.0;"/><text fill="#000000" font-family="sans-serif" font-size="14" lengthAdjust="spacing" textLength="140" x="42" y="670.8477">applicationsByCM(cm)</text></g><!--class ApplicationRepository--><g id="elem_ApplicationRepository"><rect codeLine="43" fill="#FFFFFF" height="85.2422" id="ApplicationRepository" rx="2.5" ry="2.5" style="stroke:#000000;stroke-width:0.5;" width="172" x="192" y="755.6348"/><ellipse cx="208.35" cy="771.6348" fill="#B4A7E5" rx="11" ry="11" style="stroke:#181818;stroke-width:1.0;"/><path d="M209.3031,768.2754 L209.3031,774.9316 L211.0219,774.9316 Q211.6313,774.9316 211.8969,775.166 Q212.1625,775.4004 212.1625,775.791 Q212.1625,776.166 211.8969,776.4004 Q211.6313,776.6348 211.0219,776.6348 L205.8813,776.6348 Q205.2719,776.6348 205.0063,776.4004 Q204.7406,776.166 204.7406,775.7754 Q204.7406,775.4004 205.0063,775.166 Q205.2719,774.9316 205.8813,774.9316 L207.6,774.9316 L207.6,768.2754 L205.8813,768.2754 Q205.2719,768.2754 205.0063,768.041 Q204.7406,767.8066 204.7406,767.416 Q204.7406,767.041 205.0063,766.8066 Q205.2719,766.5723 205.8813,766.5723 L211.0219,766.5723 Q211.6313,766.5723 211.8969,766.8066 Q212.1625,767.041 212.1625,767.416 Q212.1625,767.8066 211.8969,768.041 Q211.6313,768.2754 211.0219,768.2754 L209.3031,768.2754 Z " fill="#000000"/><text fill="#000000" font-family="sans-serif" font-size="14" font-style="italic" lengthAdjust="spacing" textLength="137" x="222.65" y="777.4316">ApplicationRepository</text><line style="stroke:#000000;stroke-width:0.5;" x1="193" x2="363" y1="787.6348" y2="787.6348"/><line style="stroke:#000000;stroke-width:0.5;" x1="193" x2="363" y1="795.6348" y2="795.6348"/><ellipse cx="203" cy="810.4453" fill="#84BE84" rx="3" ry="3" style="stroke:#038048;stroke-width:1.0;"/><text fill="#000000" font-family="sans-serif" font-size="14" lengthAdjust="spacing" textLength="100" x="212" y="814.7422">allApplications()</text><ellipse cx="203" cy="829.0664" fill="#84BE84" rx="3" ry="3" style="stroke:#038048;stroke-width:1.0;"/><text fill="#000000" font-family="sans-serif" font-size="14" lengthAdjust="spacing" textLength="146" x="212" y="833.3633">ofIdentity(applicationId)</text></g><!--link MostReferencedWordsUI to MostReferencedWordsController--><g id="link_MostReferencedWordsUI_MostReferencedWordsController"><path codeLine="49" d="M278,186.8248 C278,209.6548 278,231.2148 278,257.2148 " fill="none" id="MostReferencedWordsUI-to-MostReferencedWordsController" style="stroke:#000000;stroke-width:1.0;"/><polygon fill="#000000" points="278,263.2148,282,254.2148,278,258.2148,274,254.2148,278,263.2148" style="stroke:#000000;stroke-width:1.0;"/></g><!--link MostReferencedWordsController to ApplicationService--><g id="link_MostReferencedWordsController_ApplicationService"><path codeLine="50" d="M278,441.7248 C278,466.8448 278,488.0448 278,512.5848 " fill="none" id="MostReferencedWordsController-to-ApplicationService" style="stroke:#000000;stroke-width:1.0;"/><polygon fill="#000000" points="278,518.5848,282,509.5848,278,513.5848,274,509.5848,278,518.5848" style="stroke:#000000;stroke-width:1.0;"/></g><!--link ApplicationService to ApplicationRepository--><g id="link_ApplicationService_ApplicationRepository"><path codeLine="51" d="M278,678.8248 C278,705.1248 278,727.3348 278,749.6248 " fill="none" id="ApplicationService-to-ApplicationRepository" style="stroke:#000000;stroke-width:1.0;"/><polygon fill="#000000" points="278,755.6248,282,746.6248,278,750.6248,274,746.6248,278,755.6248" style="stroke:#000000;stroke-width:1.0;"/></g><!--SRC=[XLF1ZjiW5BpxAr1Eh9eSAlLSQUDLf5IDAYMjzapWsM53UEX1kagh_VU2dJhWTLCEo7xC3FC6y4TjdI1nOj88xzdlYiMn5FBO4fwjgj4WiUU33j2jF1BXQrzSceZguKWAQ5nTeGrJjPt-1UpZf-gjghxhO83Dwcxh9otQP6J1DkW3sq8315Q2OizHty-goaKPqKQ28_1WWmWQxUpgkVUVg3TcH_onlYBI-C0KxWxuoX-oaWS3CjJ2Agr402wSCrfswZx77K0eeorSoM-fXS6JZAqH6WFqNqVr02sSDJhcVVO1Jq0ROQCgFMPE2iijtFokj07F-oP03UM7aVI44IuBZPmXu-c73fIMU1EdEKlprnX0WTG-mRX3x_NUGFh9boc6DaWKgIE5ZN0yO10ciUgqvLIq7kYdbk3BOBDiTZsWI9EWrJuK4N8IzZXdsV5sRS_P2-w7PEPi26NEq069W3JECXDTNjOglp7hfnmiZFdd6Ow4_0hf2-w_ER3Qjlnb-CmvPvUCRMCVxvifzirqbvTwm-LfAbc2U6mwDgXlwMeRKsj4Z3Cpj_qBl1GXtsiFcxMAZrI7In6FodnClzR5ulFzLrFTVrE9__voL1FtPOIyDLdz0G00]--></g></svg>