<?xml version="1.0" encoding="us-ascii" standalone="no"?><svg xmlns="http://www.w3.org/2000/svg" xmlns:xlink="http://www.w3.org/1999/xlink" contentStyleType="text/css" height="758px" preserveAspectRatio="none" style="width:1153px;height:758px;background:#FFFFFF;" version="1.1" viewBox="0 0 1153 758" width="1153px" zoomAndPan="magnify"><defs/><g><rect fill="#FFFFFF" height="543.2383" style="stroke:#181818;stroke-width:1.0;" width="10" x="61.5" y="98.2422"/><rect fill="#FFFFFF" height="219.0371" style="stroke:#181818;stroke-width:1.0;" width="10" x="339.5" y="138.8242"/><rect fill="#FFFFFF" height="252.3281" style="stroke:#181818;stroke-width:1.0;" width="10" x="339.5" y="389.1523"/><rect fill="#FFFFFF" height="156.4551" style="stroke:#181818;stroke-width:1.0;" width="10" x="630.5" y="170.1152"/><rect fill="#FFFFFF" height="31.291" style="stroke:#181818;stroke-width:1.0;" width="10" x="630.5" y="420.4434"/><rect fill="#FFFFFF" height="127.1641" style="stroke:#181818;stroke-width:1.0;" width="10" x="630.5" y="483.0254"/><rect fill="#FFFFFF" height="93.873" style="stroke:#181818;stroke-width:1.0;" width="10" x="828.5" y="201.4063"/><rect fill="#FFFFFF" height="31.291" style="stroke:#181818;stroke-width:1.0;" width="10" x="979.5" y="232.6973"/><rect fill="#FFFFFF" height="31.291" style="stroke:#181818;stroke-width:1.0;" width="10" x="1096.5" y="540.6074"/><rect fill="none" height="81.873" style="stroke:#000000;stroke-width:1.5;" width="632" x="515" y="498.0254"/><line style="stroke:#181818;stroke-width:0.5;stroke-dasharray:5.0,5.0;" x1="66" x2="66" y1="88.2422" y2="659.4805"/><line style="stroke:#181818;stroke-width:0.5;stroke-dasharray:5.0,5.0;" x1="344" x2="344" y1="88.2422" y2="659.4805"/><line style="stroke:#181818;stroke-width:0.5;stroke-dasharray:5.0,5.0;" x1="635" x2="635" y1="88.2422" y2="659.4805"/><line style="stroke:#181818;stroke-width:0.5;stroke-dasharray:5.0,5.0;" x1="833.5" x2="833.5" y1="88.2422" y2="659.4805"/><line style="stroke:#181818;stroke-width:0.5;stroke-dasharray:5.0,5.0;" x1="984" x2="984" y1="88.2422" y2="659.4805"/><line style="stroke:#181818;stroke-width:0.5;stroke-dasharray:5.0,5.0;" x1="1101" x2="1101" y1="88.2422" y2="659.4805"/><text fill="#000000" font-family="sans-serif" font-size="14" lengthAdjust="spacing" textLength="117" x="5" y="84.7285">CustomerManager</text><ellipse cx="66.5" cy="18.1211" fill="#E2E2F0" rx="8" ry="8" style="stroke:#181818;stroke-width:0.5;"/><path d="M66.5,26.1211 L66.5,53.1211 M53.5,34.1211 L79.5,34.1211 M66.5,53.1211 L53.5,68.1211 M66.5,53.1211 L79.5,68.1211 " fill="none" style="stroke:#181818;stroke-width:0.5;"/><text fill="#000000" font-family="sans-serif" font-size="14" lengthAdjust="spacing" textLength="117" x="5" y="673.5879">CustomerManager</text><ellipse cx="66.5" cy="685.6016" fill="#E2E2F0" rx="8" ry="8" style="stroke:#181818;stroke-width:0.5;"/><path d="M66.5,693.6016 L66.5,720.6016 M53.5,701.6016 L79.5,701.6016 M66.5,720.6016 L53.5,735.6016 M66.5,720.6016 L79.5,735.6016 " fill="none" style="stroke:#181818;stroke-width:0.5;"/><rect fill="#E2E2F0" height="51.2422" rx="2.5" ry="2.5" style="stroke:#181818;stroke-width:0.5;" width="171" x="259" y="36"/><text fill="#000000" font-family="sans-serif" font-size="14" font-style="italic" lengthAdjust="spacing" textLength="95" x="297" y="58.1074">&#171;presentation&#187;</text><text fill="#000000" font-family="sans-serif" font-size="14" lengthAdjust="spacing" textLength="157" x="266" y="76.7285">MostReferencedWordsUI</text><rect fill="#E2E2F0" height="51.2422" rx="2.5" ry="2.5" style="stroke:#181818;stroke-width:0.5;" width="171" x="259" y="658.4805"/><text fill="#000000" font-family="sans-serif" font-size="14" font-style="italic" lengthAdjust="spacing" textLength="95" x="297" y="680.5879">&#171;presentation&#187;</text><text fill="#000000" font-family="sans-serif" font-size="14" lengthAdjust="spacing" textLength="157" x="266" y="699.209">MostReferencedWordsUI</text><rect fill="#E2E2F0" height="51.2422" rx="2.5" ry="2.5" style="stroke:#181818;stroke-width:0.5;" width="221" x="525" y="36"/><text fill="#000000" font-family="sans-serif" font-size="14" font-style="italic" lengthAdjust="spacing" textLength="75" x="598" y="58.1074">&#171;controller&#187;</text><text fill="#000000" font-family="sans-serif" font-size="14" lengthAdjust="spacing" textLength="207" x="532" y="76.7285">MostReferencedWordsController</text><rect fill="#E2E2F0" height="51.2422" rx="2.5" ry="2.5" style="stroke:#181818;stroke-width:0.5;" width="221" x="525" y="658.4805"/><text fill="#000000" font-family="sans-serif" font-size="14" font-style="italic" lengthAdjust="spacing" textLength="75" x="598" y="680.5879">&#171;controller&#187;</text><text fill="#000000" font-family="sans-serif" font-size="14" lengthAdjust="spacing" textLength="207" x="532" y="699.209">MostReferencedWordsController</text><rect fill="#E2E2F0" height="51.2422" rx="2.5" ry="2.5" style="stroke:#181818;stroke-width:0.5;" width="130" x="768.5" y="36"/><text fill="#000000" font-family="sans-serif" font-size="14" font-style="italic" lengthAdjust="spacing" textLength="60" x="803.5" y="58.1074">&#171;service&#187;</text><text fill="#000000" font-family="sans-serif" font-size="14" lengthAdjust="spacing" textLength="116" x="775.5" y="76.7285">ApplicationService</text><rect fill="#E2E2F0" height="51.2422" rx="2.5" ry="2.5" style="stroke:#181818;stroke-width:0.5;" width="130" x="768.5" y="658.4805"/><text fill="#000000" font-family="sans-serif" font-size="14" font-style="italic" lengthAdjust="spacing" textLength="60" x="803.5" y="680.5879">&#171;service&#187;</text><text fill="#000000" font-family="sans-serif" font-size="14" lengthAdjust="spacing" textLength="116" x="775.5" y="699.209">ApplicationService</text><text fill="#000000" font-family="sans-serif" font-size="14" font-style="italic" lengthAdjust="spacing" textLength="79" x="942" y="66.1074">&#171;repository&#187;</text><text fill="#000000" font-family="sans-serif" font-size="14" lengthAdjust="spacing" textLength="137" x="913" y="84.7285">ApplicationRepository</text><path d="M966.5,15 C966.5,5 984.5,5 984.5,5 C984.5,5 1002.5,5 1002.5,15 L1002.5,41 C1002.5,51 984.5,51 984.5,51 C984.5,51 966.5,51 966.5,41 L966.5,15 " fill="#E2E2F0" style="stroke:#181818;stroke-width:1.5;"/><path d="M966.5,15 C966.5,25 984.5,25 984.5,25 C984.5,25 1002.5,25 1002.5,15 " fill="none" style="stroke:#181818;stroke-width:1.5;"/><text fill="#000000" font-family="sans-serif" font-size="14" font-style="italic" lengthAdjust="spacing" textLength="79" x="942" y="673.5879">&#171;repository&#187;</text><text fill="#000000" font-family="sans-serif" font-size="14" lengthAdjust="spacing" textLength="137" x="913" y="692.209">ApplicationRepository</text><path d="M966.5,705.7227 C966.5,695.7227 984.5,695.7227 984.5,695.7227 C984.5,695.7227 1002.5,695.7227 1002.5,705.7227 L1002.5,731.7227 C1002.5,741.7227 984.5,741.7227 984.5,741.7227 C984.5,741.7227 966.5,741.7227 966.5,731.7227 L966.5,705.7227 " fill="#E2E2F0" style="stroke:#181818;stroke-width:1.5;"/><path d="M966.5,705.7227 C966.5,715.7227 984.5,715.7227 984.5,715.7227 C984.5,715.7227 1002.5,715.7227 1002.5,705.7227 " fill="none" style="stroke:#181818;stroke-width:1.5;"/><rect fill="#E2E2F0" height="51.2422" rx="2.5" ry="2.5" style="stroke:#181818;stroke-width:0.5;" width="71" x="1066" y="36"/><text fill="#000000" font-family="sans-serif" font-size="14" font-style="italic" lengthAdjust="spacing" textLength="57" x="1073" y="58.1074">&#171;thread&#187;</text><text fill="#000000" font-family="sans-serif" font-size="14" lengthAdjust="spacing" textLength="46" x="1078.5" y="76.7285">Thread</text><rect fill="#E2E2F0" height="51.2422" rx="2.5" ry="2.5" style="stroke:#181818;stroke-width:0.5;" width="71" x="1066" y="658.4805"/><text fill="#000000" font-family="sans-serif" font-size="14" font-style="italic" lengthAdjust="spacing" textLength="57" x="1073" y="680.5879">&#171;thread&#187;</text><text fill="#000000" font-family="sans-serif" font-size="14" lengthAdjust="spacing" textLength="46" x="1078.5" y="699.209">Thread</text><rect fill="#FFFFFF" height="543.2383" style="stroke:#181818;stroke-width:1.0;" width="10" x="61.5" y="98.2422"/><rect fill="#FFFFFF" height="219.0371" style="stroke:#181818;stroke-width:1.0;" width="10" x="339.5" y="138.8242"/><rect fill="#FFFFFF" height="252.3281" style="stroke:#181818;stroke-width:1.0;" width="10" x="339.5" y="389.1523"/><rect fill="#FFFFFF" height="156.4551" style="stroke:#181818;stroke-width:1.0;" width="10" x="630.5" y="170.1152"/><rect fill="#FFFFFF" height="31.291" style="stroke:#181818;stroke-width:1.0;" width="10" x="630.5" y="420.4434"/><rect fill="#FFFFFF" height="127.1641" style="stroke:#181818;stroke-width:1.0;" width="10" x="630.5" y="483.0254"/><rect fill="#FFFFFF" height="93.873" style="stroke:#181818;stroke-width:1.0;" width="10" x="828.5" y="201.4063"/><rect fill="#FFFFFF" height="31.291" style="stroke:#181818;stroke-width:1.0;" width="10" x="979.5" y="232.6973"/><rect fill="#FFFFFF" height="31.291" style="stroke:#181818;stroke-width:1.0;" width="10" x="1096.5" y="540.6074"/><polygon fill="#181818" points="327.5,134.8242,337.5,138.8242,327.5,142.8242,331.5,138.8242" style="stroke:#181818;stroke-width:1.0;"/><line style="stroke:#181818;stroke-width:1.0;" x1="71.5" x2="333.5" y1="138.8242" y2="138.8242"/><text fill="#000000" font-family="sans-serif" font-size="13" font-weight="bold" lengthAdjust="spacing" textLength="7" x="78.5" y="124.916">1</text><text fill="#000000" font-family="sans-serif" font-size="13" lengthAdjust="spacing" textLength="201" x="89.5" y="116.2705">asks to check the most referenced</text><text fill="#000000" font-family="sans-serif" font-size="13" lengthAdjust="spacing" textLength="135" x="89.5" y="133.5615">words in candidate files</text><polygon fill="#181818" points="618.5,166.1152,628.5,170.1152,618.5,174.1152,622.5,170.1152" style="stroke:#181818;stroke-width:1.0;"/><line style="stroke:#181818;stroke-width:1.0;" x1="349.5" x2="624.5" y1="170.1152" y2="170.1152"/><text fill="#000000" font-family="sans-serif" font-size="13" font-weight="bold" lengthAdjust="spacing" textLength="7" x="356.5" y="164.8525">2</text><text fill="#000000" font-family="sans-serif" font-size="13" lengthAdjust="spacing" textLength="205" x="367.5" y="164.8525">findCustomerManagerApplications()</text><polygon fill="#181818" points="816.5,197.4063,826.5,201.4063,816.5,205.4063,820.5,201.4063" style="stroke:#181818;stroke-width:1.0;"/><line style="stroke:#181818;stroke-width:1.0;" x1="640.5" x2="822.5" y1="201.4063" y2="201.4063"/><text fill="#000000" font-family="sans-serif" font-size="13" font-weight="bold" lengthAdjust="spacing" textLength="7" x="647.5" y="196.1436">3</text><text fill="#000000" font-family="sans-serif" font-size="13" lengthAdjust="spacing" textLength="158" x="658.5" y="196.1436">applicationsByCM(session)</text><polygon fill="#181818" points="967.5,228.6973,977.5,232.6973,967.5,236.6973,971.5,232.6973" style="stroke:#181818;stroke-width:1.0;"/><line style="stroke:#181818;stroke-width:1.0;" x1="838.5" x2="973.5" y1="232.6973" y2="232.6973"/><text fill="#000000" font-family="sans-serif" font-size="13" font-weight="bold" lengthAdjust="spacing" textLength="7" x="845.5" y="227.4346">4</text><text fill="#000000" font-family="sans-serif" font-size="13" lengthAdjust="spacing" textLength="43" x="856.5" y="227.4346">findAll()</text><polygon fill="#181818" points="849.5,259.9883,839.5,263.9883,849.5,267.9883,845.5,263.9883" style="stroke:#181818;stroke-width:1.0;"/><line style="stroke:#181818;stroke-width:1.0;stroke-dasharray:2.0,2.0;" x1="843.5" x2="983.5" y1="263.9883" y2="263.9883"/><text fill="#000000" font-family="sans-serif" font-size="13" font-weight="bold" lengthAdjust="spacing" textLength="7" x="855.5" y="258.7256">5</text><text fill="#000000" font-family="sans-serif" font-size="13" lengthAdjust="spacing" textLength="106" x="866.5" y="258.7256">return applications</text><polygon fill="#181818" points="651.5,291.2793,641.5,295.2793,651.5,299.2793,647.5,295.2793" style="stroke:#181818;stroke-width:1.0;"/><line style="stroke:#181818;stroke-width:1.0;stroke-dasharray:2.0,2.0;" x1="645.5" x2="832.5" y1="295.2793" y2="295.2793"/><text fill="#000000" font-family="sans-serif" font-size="13" font-weight="bold" lengthAdjust="spacing" textLength="7" x="657.5" y="290.0166">6</text><text fill="#000000" font-family="sans-serif" font-size="13" lengthAdjust="spacing" textLength="106" x="668.5" y="290.0166">return applications</text><polygon fill="#181818" points="360.5,322.5703,350.5,326.5703,360.5,330.5703,356.5,326.5703" style="stroke:#181818;stroke-width:1.0;"/><line style="stroke:#181818;stroke-width:1.0;stroke-dasharray:2.0,2.0;" x1="354.5" x2="634.5" y1="326.5703" y2="326.5703"/><text fill="#000000" font-family="sans-serif" font-size="13" font-weight="bold" lengthAdjust="spacing" textLength="7" x="366.5" y="321.3076">7</text><text fill="#000000" font-family="sans-serif" font-size="13" lengthAdjust="spacing" textLength="106" x="377.5" y="321.3076">return applications</text><polygon fill="#181818" points="82.5,353.8613,72.5,357.8613,82.5,361.8613,78.5,357.8613" style="stroke:#181818;stroke-width:1.0;"/><line style="stroke:#181818;stroke-width:1.0;stroke-dasharray:2.0,2.0;" x1="76.5" x2="343.5" y1="357.8613" y2="357.8613"/><text fill="#000000" font-family="sans-serif" font-size="13" font-weight="bold" lengthAdjust="spacing" textLength="7" x="88.5" y="352.5986">8</text><text fill="#000000" font-family="sans-serif" font-size="13" lengthAdjust="spacing" textLength="233" x="99.5" y="352.5986">lists applications and asks to select one</text><polygon fill="#181818" points="327.5,385.1523,337.5,389.1523,327.5,393.1523,331.5,389.1523" style="stroke:#181818;stroke-width:1.0;"/><line style="stroke:#181818;stroke-width:1.0;" x1="71.5" x2="333.5" y1="389.1523" y2="389.1523"/><text fill="#000000" font-family="sans-serif" font-size="13" font-weight="bold" lengthAdjust="spacing" textLength="7" x="78.5" y="383.8896">9</text><text fill="#000000" font-family="sans-serif" font-size="13" lengthAdjust="spacing" textLength="67" x="89.5" y="383.8896">selects one</text><polygon fill="#181818" points="618.5,416.4434,628.5,420.4434,618.5,424.4434,622.5,420.4434" style="stroke:#181818;stroke-width:1.0;"/><line style="stroke:#181818;stroke-width:1.0;" x1="349.5" x2="624.5" y1="420.4434" y2="420.4434"/><text fill="#000000" font-family="sans-serif" font-size="13" font-weight="bold" lengthAdjust="spacing" textLength="14" x="356.5" y="415.1807">10</text><text fill="#000000" font-family="sans-serif" font-size="13" lengthAdjust="spacing" textLength="219" x="374.5" y="415.1807">getCandidateFiles(selectedCandidate)</text><polygon fill="#181818" points="360.5,447.7344,350.5,451.7344,360.5,455.7344,356.5,451.7344" style="stroke:#181818;stroke-width:1.0;"/><line style="stroke:#181818;stroke-width:1.0;stroke-dasharray:2.0,2.0;" x1="354.5" x2="634.5" y1="451.7344" y2="451.7344"/><text fill="#000000" font-family="sans-serif" font-size="13" font-weight="bold" lengthAdjust="spacing" textLength="14" x="366.5" y="446.4717">11</text><text fill="#000000" font-family="sans-serif" font-size="13" lengthAdjust="spacing" textLength="120" x="384.5" y="446.4717">return candidate files</text><polygon fill="#181818" points="618.5,479.0254,628.5,483.0254,618.5,487.0254,622.5,483.0254" style="stroke:#181818;stroke-width:1.0;"/><line style="stroke:#181818;stroke-width:1.0;stroke-dasharray:2.0,2.0;" x1="349.5" x2="624.5" y1="483.0254" y2="483.0254"/><text fill="#000000" font-family="sans-serif" font-size="13" font-weight="bold" lengthAdjust="spacing" textLength="14" x="356.5" y="477.7627">12</text><text fill="#000000" font-family="sans-serif" font-size="13" lengthAdjust="spacing" textLength="244" x="374.5" y="477.7627">findMostReferencedWords(candidateFiles)</text><path d="M515,498.0254 L588,498.0254 L588,507.3164 L578,517.3164 L515,517.3164 L515,498.0254 " fill="#EEEEEE" style="stroke:#000000;stroke-width:1.5;"/><rect fill="none" height="81.873" style="stroke:#000000;stroke-width:1.5;" width="632" x="515" y="498.0254"/><text fill="#000000" font-family="sans-serif" font-size="13" font-weight="bold" lengthAdjust="spacing" textLength="28" x="530" y="513.0537">loop</text><text fill="#000000" font-family="sans-serif" font-size="11" font-weight="bold" lengthAdjust="spacing" textLength="73" x="603" y="511.8955">[for each file]</text><polygon fill="#181818" points="1084.5,536.6074,1094.5,540.6074,1084.5,544.6074,1088.5,540.6074" style="stroke:#181818;stroke-width:1.0;"/><line style="stroke:#181818;stroke-width:1.0;" x1="640.5" x2="1090.5" y1="540.6074" y2="540.6074"/><text fill="#000000" font-family="sans-serif" font-size="13" font-weight="bold" lengthAdjust="spacing" textLength="14" x="647.5" y="535.3447">13</text><text fill="#000000" font-family="sans-serif" font-size="13" lengthAdjust="spacing" textLength="74" x="665.5" y="535.3447">new Thread()</text><polygon fill="#181818" points="651.5,567.8984,641.5,571.8984,651.5,575.8984,647.5,571.8984" style="stroke:#181818;stroke-width:1.0;"/><line style="stroke:#181818;stroke-width:1.0;stroke-dasharray:2.0,2.0;" x1="645.5" x2="1100.5" y1="571.8984" y2="571.8984"/><text fill="#000000" font-family="sans-serif" font-size="13" font-weight="bold" lengthAdjust="spacing" textLength="14" x="657.5" y="566.6357">14</text><text fill="#000000" font-family="sans-serif" font-size="13" lengthAdjust="spacing" textLength="170" x="675.5" y="566.6357">countWordsFile(file, fileLines)</text><polygon fill="#181818" points="360.5,606.1895,350.5,610.1895,360.5,614.1895,356.5,610.1895" style="stroke:#181818;stroke-width:1.0;"/><line style="stroke:#181818;stroke-width:1.0;stroke-dasharray:2.0,2.0;" x1="354.5" x2="634.5" y1="610.1895" y2="610.1895"/><text fill="#000000" font-family="sans-serif" font-size="13" font-weight="bold" lengthAdjust="spacing" textLength="14" x="366.5" y="604.9268">15</text><text fill="#000000" font-family="sans-serif" font-size="13" lengthAdjust="spacing" textLength="168" x="384.5" y="604.9268">return most referenced words</text><polygon fill="#181818" points="77.5,637.4805,67.5,641.4805,77.5,645.4805,73.5,641.4805" style="stroke:#181818;stroke-width:1.0;"/><line style="stroke:#181818;stroke-width:1.0;stroke-dasharray:2.0,2.0;" x1="71.5" x2="343.5" y1="641.4805" y2="641.4805"/><text fill="#000000" font-family="sans-serif" font-size="13" font-weight="bold" lengthAdjust="spacing" textLength="14" x="83.5" y="636.2178">16</text><text fill="#000000" font-family="sans-serif" font-size="13" lengthAdjust="spacing" textLength="216" x="101.5" y="636.2178">display top 20 most referenced words</text><!--SRC=[lLR1Rjim3BtxAtXqW1KOTWoA05s00GEMIxTXbrrKYMc4Af8XqItozwFin95jEKw0TZfP4iNtI95F5ZKvM- -Vq1U5aEGyhEj0Rez-8wnuZikLyAIbheGbsBX0ZxX5ZrQY-kEy2h-_m_rzvJ6W9K7QsTLgxiZQMVBE6FHyL7OJFjWx-L1LHil6vq_qhreYcuVsYssL8F4a0gPsZrYve3cC0vlwRZBq_6ldKIWseUOZRdFm-bKGZkC77eD5k5jDf6898hm480ToX_85Q8UmPqlmdIdyjM_H6hG5AQpIAi9kjS7GO7LCiWWjdpZo1FBCaeml6SggGK192aEvw20kKJcxF5EQe9MWCxtCjNBM4W9V3-jD6J04dYnwlZi-Onzz4d5aSFheIR6qINamfboC_EH0pqV7k0Fi1ELkAdgFL7lRIyB8hS9RYUGIS4Lvp9794ybUmqmjNEYYIoGI0bVMvKIhCFwmiPTWTA3G0mPkqgwj0ngK1CvYCS_brAuto4VhFtG07wu6pqZhamfzYo9KjXHGTSiVAWZpHP0JoVUkWsiqCsDJobxgRaxKoRmmpbMmvUUNOzerSTwegiSdRGaMtuwJSa8yszsnNXnTN9CEwMfBpNACkunyFpMiVsYRfc5mJKVaTBT0RguO_JiNpV3HRPxS_oGXIeVAY0FBHGLVFb-WCgyUYSNmn-GV]--></g></svg>