<?xml version="1.0" encoding="us-ascii" standalone="no"?><svg xmlns="http://www.w3.org/2000/svg" xmlns:xlink="http://www.w3.org/1999/xlink" contentStyleType="text/css" height="439.2px" preserveAspectRatio="none" style="width:682px;height:439px;background:#FFFFFF;" version="1.1" viewBox="0 0 682 439" width="682.8px" zoomAndPan="magnify"><defs/><g><text fill="#000000" font-family="sans-serif" font-size="5.6" font-weight="bold" lengthAdjust="spacing" textLength="107.2" x="285" y="9.4141">Domain Model - Ranking Candidates</text><!--cluster Job Opening Aggregate--><g id="cluster_Job Opening Aggregate"><rect fill="none" height="213.2" rx="1" ry="1" style="stroke:#000000;stroke-width:0.6000000000000001;" width="252.4" x="155.6" y="17.7953"/><text fill="#000000" font-family="sans-serif" font-size="5.6" font-weight="bold" lengthAdjust="spacing" textLength="67.2" x="248.2" y="24.0094">Job Opening Aggregate</text></g><!--cluster JobInterview Aggregate--><g id="cluster_JobInterview Aggregate"><rect fill="none" height="124.4" rx="1" ry="1" style="stroke:#000000;stroke-width:0.6000000000000001;" width="198.4" x="478.6" y="71.3953"/><text fill="#000000" font-family="sans-serif" font-size="5.6" font-weight="bold" lengthAdjust="spacing" textLength="67.6" x="544" y="77.6094">JobInterview Aggregate</text></g><!--cluster Application Aggregate--><g id="cluster_Application Aggregate"><rect fill="none" height="124.4" rx="1" ry="1" style="stroke:#000000;stroke-width:0.6000000000000001;" width="355.2" x="240.8" y="280.1953"/><text fill="#000000" font-family="sans-serif" font-size="5.6" font-weight="bold" lengthAdjust="spacing" textLength="64" x="386.4" y="286.4094">Application Aggregate</text></g><!--cluster Candidate Aggregate--><g id="cluster_Candidate Aggregate"><rect fill="none" height="65.2" rx="1" ry="1" style="stroke:#000000;stroke-width:0.6000000000000001;" width="199" x="481.4" y="205.3953"/><text fill="#000000" font-family="sans-serif" font-size="5.6" font-weight="bold" lengthAdjust="spacing" textLength="60" x="550.9" y="211.6094">Candidate Aggregate</text></g><!--cluster Customer Manager Aggregate--><g id="cluster_Customer Manager Aggregate"><rect fill="none" height="45.2" rx="1" ry="1" style="stroke:#000000;stroke-width:0.6000000000000001;" width="92" x="2.8" y="131.3953"/><text fill="#000000" font-family="sans-serif" font-size="5.6" font-weight="bold" lengthAdjust="spacing" textLength="85.6" x="6" y="137.6094">Customer Manager Aggregate</text></g><!--class JobOpening--><g id="elem_JobOpening"><rect codeLine="25" fill="#F0FFFF" height="25.1016" id="JobOpening" rx="1" ry="1" style="stroke:#000000;stroke-width:0.20000000000000004;" width="45.2" x="162" y="145.2433"/><ellipse cx="168" cy="156.1941" fill="#ADD1B2" rx="4.4" ry="4.4" style="stroke:#181818;stroke-width:0.4000000000000001;"/><path d="M169.6457,158.5941 L166.5578,158.5941 L166.5578,153.6369 L169.6457,153.6369 L169.6457,154.5001 L167.5373,154.5001 L167.5373,155.5693 L169.4465,155.5693 L169.4465,156.4326 L167.5373,156.4326 L167.5373,157.7308 L169.6457,157.7308 Z " fill="#000000"/><text fill="#000000" font-family="sans-serif" font-size="4.8" font-style="italic" lengthAdjust="spacing" textLength="17.2" x="181.2" y="151.8839">&#171;entity&#187;</text><text fill="#000000" font-family="sans-serif" font-size="4.8" font-style="italic" lengthAdjust="spacing" textLength="14" x="182.8" y="157.5371">&#171;root&#187;</text><text fill="#000000" font-family="sans-serif" font-size="5.6" lengthAdjust="spacing" textLength="32.4" x="173.6" y="163.9636">JobOpening</text><line style="stroke:#000000;stroke-width:0.20000000000000004;" x1="162.4" x2="206.8" y1="167.1449" y2="167.1449"/></g><g id="elem_GMN18"><path d="M322,153.8113 L322,160.2993 L293.36,159.6593 L322,163.4993 L322,176.184 A0,0 0 0 0 322,176.184 L401.6,176.184 A0,0 0 0 0 401.6,176.184 L401.6,157.8113 L397.6,153.8113 L322,153.8113 A0,0 0 0 0 322,153.8113 " fill="#FEFFDD" style="stroke:#181818;stroke-width:0.20000000000000004;"/><path d="M397.6,153.8113 L397.6,157.8113 L401.6,157.8113 L397.6,153.8113 " fill="#FEFFDD" style="stroke:#181818;stroke-width:0.20000000000000004;"/><text fill="#000000" font-family="sans-serif" font-size="5.2" lengthAdjust="spacing" textLength="71.2" x="324.4" y="160.8387">Can be one of the following:</text><text fill="#000000" font-family="sans-serif" font-size="5.2" lengthAdjust="spacing" textLength="27.6" x="324.4" y="166.9629">- full-time</text><text fill="#000000" font-family="sans-serif" font-size="5.2" lengthAdjust="spacing" textLength="29.2" x="324.4" y="173.0871">- part-time</text></g><g id="elem_GMN21"><path d="M322,111.1473 L322,124.9993 L293.36,127.4713 L322,128.1993 L322,139.6442 A0,0 0 0 0 322,139.6442 L401.6,139.6442 A0,0 0 0 0 401.6,139.6442 L401.6,115.1473 L397.6,111.1473 L322,111.1473 A0,0 0 0 0 322,111.1473 " fill="#FEFFDD" style="stroke:#181818;stroke-width:0.20000000000000004;"/><path d="M397.6,111.1473 L397.6,115.1473 L401.6,115.1473 L397.6,111.1473 " fill="#FEFFDD" style="stroke:#181818;stroke-width:0.20000000000000004;"/><text fill="#000000" font-family="sans-serif" font-size="5.2" lengthAdjust="spacing" textLength="71.2" x="324.4" y="118.1747">Can be one of the following:</text><text fill="#000000" font-family="sans-serif" font-size="5.2" lengthAdjust="spacing" textLength="22.4" x="324.4" y="124.2989">- remote</text><text fill="#000000" font-family="sans-serif" font-size="5.2" lengthAdjust="spacing" textLength="20.8" x="324.4" y="130.4231">- hybrid</text><text fill="#000000" font-family="sans-serif" font-size="5.2" lengthAdjust="spacing" textLength="20.4" x="324.4" y="136.5473">- onsite</text></g><!--entity JobReference--><g id="elem_JobReference"><rect fill="#F0FFDD" height="15.5906" rx="1" ry="1" style="stroke:#000000;stroke-width:0.20000000000000004;" width="48" x="245.2" y="209.1993"/><text fill="#000000" font-family="sans-serif" font-size="5.6" font-style="italic" lengthAdjust="spacing" textLength="40" x="249.2" y="215.8134">&#171;Value Object&#187;</text><text fill="#000000" font-family="sans-serif" font-size="5.6" lengthAdjust="spacing" textLength="36" x="251.2" y="222.4087">JobReference</text></g><!--entity TitleOrFunction--><g id="elem_TitleOrFunction"><rect fill="#F0FFDD" height="15.5906" rx="1" ry="1" style="stroke:#000000;stroke-width:0.20000000000000004;" width="50.8" x="243.8" y="179.5993"/><text fill="#000000" font-family="sans-serif" font-size="5.6" font-style="italic" lengthAdjust="spacing" textLength="40" x="249.2" y="186.2134">&#171;Value Object&#187;</text><text fill="#000000" font-family="sans-serif" font-size="5.6" lengthAdjust="spacing" textLength="42.8" x="247.8" y="192.8087">TitleOrFunction</text></g><!--entity ContractType--><g id="elem_ContractType"><rect fill="#F0FFDD" height="15.5906" rx="1" ry="1" style="stroke:#000000;stroke-width:0.20000000000000004;" width="48" x="245.2" y="149.9993"/><text fill="#000000" font-family="sans-serif" font-size="5.6" font-style="italic" lengthAdjust="spacing" textLength="40" x="249.2" y="156.6134">&#171;Value Object&#187;</text><text fill="#000000" font-family="sans-serif" font-size="5.6" lengthAdjust="spacing" textLength="36.8" x="250.8" y="163.2087">ContractType</text></g><!--entity Mode--><g id="elem_Mode"><rect fill="#F0FFDD" height="15.5906" rx="1" ry="1" style="stroke:#000000;stroke-width:0.20000000000000004;" width="48" x="245.2" y="120.3993"/><text fill="#000000" font-family="sans-serif" font-size="5.6" font-style="italic" lengthAdjust="spacing" textLength="40" x="249.2" y="127.0134">&#171;Value Object&#187;</text><text fill="#000000" font-family="sans-serif" font-size="5.6" lengthAdjust="spacing" textLength="15.2" x="261.6" y="133.6087">Mode</text></g><!--entity Address--><g id="elem_Address"><rect fill="#F0FFDD" height="15.5906" rx="1" ry="1" style="stroke:#000000;stroke-width:0.20000000000000004;" width="48" x="245.2" y="90.7993"/><text fill="#000000" font-family="sans-serif" font-size="5.6" font-style="italic" lengthAdjust="spacing" textLength="40" x="249.2" y="97.4134">&#171;Value Object&#187;</text><text fill="#000000" font-family="sans-serif" font-size="5.6" lengthAdjust="spacing" textLength="22.4" x="258" y="104.0087">Address</text></g><!--entity VacanciesNumber--><g id="elem_VacanciesNumber"><rect fill="#F0FFDD" height="15.5906" rx="1" ry="1" style="stroke:#000000;stroke-width:0.20000000000000004;" width="56.8" x="240.8" y="61.1993"/><text fill="#000000" font-family="sans-serif" font-size="5.6" font-style="italic" lengthAdjust="spacing" textLength="40" x="249.2" y="67.8134">&#171;Value Object&#187;</text><text fill="#000000" font-family="sans-serif" font-size="5.6" lengthAdjust="spacing" textLength="48.8" x="244.8" y="74.4087">VacanciesNumber</text></g><!--entity Description--><g id="elem_Description"><rect fill="#F0FFDD" height="15.5906" rx="1" ry="1" style="stroke:#000000;stroke-width:0.20000000000000004;" width="48" x="245.2" y="31.5993"/><text fill="#000000" font-family="sans-serif" font-size="5.6" font-style="italic" lengthAdjust="spacing" textLength="40" x="249.2" y="38.2134">&#171;Value Object&#187;</text><text fill="#000000" font-family="sans-serif" font-size="5.6" lengthAdjust="spacing" textLength="31.2" x="253.6" y="44.8087">Description</text></g><!--class JobInterview--><g id="elem_JobInterview"><rect codeLine="68" fill="#F0FFFF" height="25.1016" id="JobInterview" rx="1" ry="1" style="stroke:#000000;stroke-width:0.20000000000000004;" width="46.4" x="485" y="139.6433"/><ellipse cx="491" cy="150.5941" fill="#ADD1B2" rx="4.4" ry="4.4" style="stroke:#181818;stroke-width:0.4000000000000001;"/><path d="M492.6457,152.9941 L489.5578,152.9941 L489.5578,148.0369 L492.6457,148.0369 L492.6457,148.9001 L490.5373,148.9001 L490.5373,149.9693 L492.4465,149.9693 L492.4465,150.8326 L490.5373,150.8326 L490.5373,152.1308 L492.6457,152.1308 Z " fill="#000000"/><text fill="#000000" font-family="sans-serif" font-size="4.8" font-style="italic" lengthAdjust="spacing" textLength="17.2" x="504.8" y="146.2839">&#171;entity&#187;</text><text fill="#000000" font-family="sans-serif" font-size="4.8" font-style="italic" lengthAdjust="spacing" textLength="14" x="506.4" y="151.9371">&#171;root&#187;</text><text fill="#000000" font-family="sans-serif" font-size="5.6" lengthAdjust="spacing" textLength="33.6" x="496.6" y="158.3636">JobInterview</text><line style="stroke:#000000;stroke-width:0.20000000000000004;" x1="485.4" x2="531" y1="161.5449" y2="161.5449"/></g><!--entity InterviewResults--><g id="elem_InterviewResults"><rect fill="#F0FFDD" height="15.5906" rx="1" ry="1" style="stroke:#000000;stroke-width:0.20000000000000004;" width="52.4" x="618.2" y="173.9993"/><text fill="#000000" font-family="sans-serif" font-size="5.6" font-style="italic" lengthAdjust="spacing" textLength="40" x="624.4" y="180.6134">&#171;Value Object&#187;</text><text fill="#000000" font-family="sans-serif" font-size="5.6" lengthAdjust="spacing" textLength="44.4" x="622.2" y="187.2087">InterviewResults</text></g><!--entity Score--><g id="elem_Score"><rect fill="#F0FFDD" height="15.5906" rx="1" ry="1" style="stroke:#000000;stroke-width:0.20000000000000004;" width="48" x="620.4" y="144.3993"/><text fill="#000000" font-family="sans-serif" font-size="5.6" font-style="italic" lengthAdjust="spacing" textLength="40" x="624.4" y="151.0134">&#171;Value Object&#187;</text><text fill="#000000" font-family="sans-serif" font-size="5.6" lengthAdjust="spacing" textLength="15.2" x="636.8" y="157.6087">Score</text></g><!--entity InterviewTime--><g id="elem_InterviewTime"><rect fill="#F0FFDD" height="15.5906" rx="1" ry="1" style="stroke:#000000;stroke-width:0.20000000000000004;" width="48" x="620.4" y="114.7993"/><text fill="#000000" font-family="sans-serif" font-size="5.6" font-style="italic" lengthAdjust="spacing" textLength="40" x="624.4" y="121.4134">&#171;Value Object&#187;</text><text fill="#000000" font-family="sans-serif" font-size="5.6" lengthAdjust="spacing" textLength="38.4" x="625.2" y="128.0087">InterviewTime</text></g><!--entity InterviewDate--><g id="elem_InterviewDate"><rect fill="#F0FFDD" height="15.5906" rx="1" ry="1" style="stroke:#000000;stroke-width:0.20000000000000004;" width="48" x="620.4" y="85.1993"/><text fill="#000000" font-family="sans-serif" font-size="5.6" font-style="italic" lengthAdjust="spacing" textLength="40" x="624.4" y="91.8134">&#171;Value Object&#187;</text><text fill="#000000" font-family="sans-serif" font-size="5.6" lengthAdjust="spacing" textLength="37.2" x="625.8" y="98.4087">InterviewDate</text></g><!--class Application--><g id="elem_Application"><rect codeLine="87" fill="#F0FFFF" height="25.1016" id="Application" rx="1" ry="1" style="stroke:#000000;stroke-width:0.20000000000000004;" width="44" x="247.2" y="294.0433"/><ellipse cx="253.2" cy="304.9941" fill="#ADD1B2" rx="4.4" ry="4.4" style="stroke:#181818;stroke-width:0.4000000000000001;"/><path d="M254.8457,307.3941 L251.7578,307.3941 L251.7578,302.4369 L254.8457,302.4369 L254.8457,303.3001 L252.7373,303.3001 L252.7373,304.3693 L254.6465,304.3693 L254.6465,305.2326 L252.7373,305.2326 L252.7373,306.5308 L254.8457,306.5308 Z " fill="#000000"/><text fill="#000000" font-family="sans-serif" font-size="4.8" font-style="italic" lengthAdjust="spacing" textLength="17.2" x="265.8" y="300.6839">&#171;entity&#187;</text><text fill="#000000" font-family="sans-serif" font-size="4.8" font-style="italic" lengthAdjust="spacing" textLength="14" x="267.4" y="306.3371">&#171;root&#187;</text><text fill="#000000" font-family="sans-serif" font-size="5.6" lengthAdjust="spacing" textLength="31.2" x="258.8" y="312.7636">Application</text><line style="stroke:#000000;stroke-width:0.20000000000000004;" x1="247.6" x2="290.8" y1="315.9449" y2="315.9449"/></g><g id="elem_GMN44"><path d="M468.4,314.8833 L468.4,338.4073 L385.916,356.3033 L468.4,341.6073 L468.4,349.5044 A0,0 0 0 0 468.4,349.5044 L548,349.5044 A0,0 0 0 0 548,349.5044 L548,318.8833 L544,314.8833 L468.4,314.8833 A0,0 0 0 0 468.4,314.8833 " fill="#FEFFDD" style="stroke:#181818;stroke-width:0.20000000000000004;"/><path d="M544,314.8833 L544,318.8833 L548,318.8833 L544,314.8833 " fill="#FEFFDD" style="stroke:#181818;stroke-width:0.20000000000000004;"/><text fill="#000000" font-family="sans-serif" font-size="5.2" lengthAdjust="spacing" textLength="71.2" x="470.8" y="321.9107">Can be one of the following:</text><text fill="#000000" font-family="sans-serif" font-size="5.2" lengthAdjust="spacing" textLength="30.4" x="470.8" y="328.0349">- submitted</text><text fill="#000000" font-family="sans-serif" font-size="5.2" lengthAdjust="spacing" textLength="25.2" x="470.8" y="334.1591">- pending</text><text fill="#000000" font-family="sans-serif" font-size="5.2" lengthAdjust="spacing" textLength="27.2" x="470.8" y="340.2833">- accepted</text><text fill="#000000" font-family="sans-serif" font-size="5.2" lengthAdjust="spacing" textLength="26" x="470.8" y="346.4075">- declined</text></g><g id="elem_GMN47"><path d="M426.8,363.6833 L426.8,384.7393 L387.728,388.9113 L426.8,387.9393 L426.8,398.3044 A0,0 0 0 0 426.8,398.3044 L589.6,398.3044 A0,0 0 0 0 589.6,398.3044 L589.6,367.6833 L585.6,363.6833 L426.8,363.6833 A0,0 0 0 0 426.8,363.6833 " fill="#FEFFDD" style="stroke:#181818;stroke-width:0.20000000000000004;"/><path d="M585.6,363.6833 L585.6,367.6833 L589.6,367.6833 L585.6,363.6833 " fill="#FEFFDD" style="stroke:#181818;stroke-width:0.20000000000000004;"/><text fill="#000000" font-family="sans-serif" font-size="5.2" lengthAdjust="spacing" textLength="71.2" x="429.2" y="370.7107">Can be one of the following:</text><text fill="#000000" font-family="sans-serif" font-size="5.2" lengthAdjust="spacing" textLength="101.6" x="429.2" y="376.8349">- text file with the contents of the email</text><text fill="#000000" font-family="sans-serif" font-size="5.2" lengthAdjust="spacing" textLength="99.2" x="429.2" y="382.9591">- file for each file attached to the email</text><text fill="#000000" font-family="sans-serif" font-size="5.2" lengthAdjust="spacing" textLength="154.4" x="429.2" y="389.0833">- text file with the contents of each file attached to the email</text><text fill="#000000" font-family="sans-serif" font-size="5.2" lengthAdjust="spacing" textLength="141.6" x="429.2" y="395.2075">- text file with the data of the application and candidate</text></g><!--entity ApplicationFiles--><g id="elem_ApplicationFiles"><rect fill="#F0FFDD" height="15.5906" rx="1" ry="1" style="stroke:#000000;stroke-width:0.20000000000000004;" width="51.6" x="336" y="382.7993"/><text fill="#000000" font-family="sans-serif" font-size="5.6" font-style="italic" lengthAdjust="spacing" textLength="40" x="341.8" y="389.4134">&#171;Value Object&#187;</text><text fill="#000000" font-family="sans-serif" font-size="5.6" lengthAdjust="spacing" textLength="43.6" x="340" y="396.0087">ApplicationFiles</text></g><!--entity Status--><g id="elem_Status"><rect fill="#F0FFDD" height="15.5906" rx="1" ry="1" style="stroke:#000000;stroke-width:0.20000000000000004;" width="48" x="337.8" y="353.1993"/><text fill="#000000" font-family="sans-serif" font-size="5.6" font-style="italic" lengthAdjust="spacing" textLength="40" x="341.8" y="359.8134">&#171;Value Object&#187;</text><text fill="#000000" font-family="sans-serif" font-size="5.6" lengthAdjust="spacing" textLength="16.8" x="353.4" y="366.4087">Status</text></g><!--entity SubmissionDate--><g id="elem_SubmissionDate"><rect fill="#F0FFDD" height="15.5906" rx="1" ry="1" style="stroke:#000000;stroke-width:0.20000000000000004;" width="52" x="335.8" y="323.5993"/><text fill="#000000" font-family="sans-serif" font-size="5.6" font-style="italic" lengthAdjust="spacing" textLength="40" x="341.8" y="330.2134">&#171;Value Object&#187;</text><text fill="#000000" font-family="sans-serif" font-size="5.6" lengthAdjust="spacing" textLength="44" x="339.8" y="336.8087">SubmissionDate</text></g><!--entity Rank--><g id="elem_Rank"><rect fill="#F0FFDD" height="15.5906" rx="1" ry="1" style="stroke:#000000;stroke-width:0.20000000000000004;" width="48" x="337.8" y="293.9993"/><text fill="#000000" font-family="sans-serif" font-size="5.6" font-style="italic" lengthAdjust="spacing" textLength="40" x="341.8" y="300.6134">&#171;Value Object&#187;</text><text fill="#000000" font-family="sans-serif" font-size="5.6" lengthAdjust="spacing" textLength="13.6" x="355" y="307.2087">Rank</text></g><!--class Candidate--><g id="elem_Candidate"><rect codeLine="122" fill="#F0FFFF" height="25.1016" id="Candidate" rx="1" ry="1" style="stroke:#000000;stroke-width:0.20000000000000004;" width="40.8" x="487.8" y="239.2433"/><ellipse cx="493.8" cy="250.1941" fill="#ADD1B2" rx="4.4" ry="4.4" style="stroke:#181818;stroke-width:0.4000000000000001;"/><path d="M495.4457,252.5941 L492.3578,252.5941 L492.3578,247.6369 L495.4457,247.6369 L495.4457,248.5001 L493.3373,248.5001 L493.3373,249.5693 L495.2465,249.5693 L495.2465,250.4326 L493.3373,250.4326 L493.3373,251.7308 L495.4457,251.7308 Z " fill="#000000"/><text fill="#000000" font-family="sans-serif" font-size="4.8" font-style="italic" lengthAdjust="spacing" textLength="17.2" x="504.8" y="245.8839">&#171;entity&#187;</text><text fill="#000000" font-family="sans-serif" font-size="4.8" font-style="italic" lengthAdjust="spacing" textLength="14" x="506.4" y="251.5371">&#171;root&#187;</text><text fill="#000000" font-family="sans-serif" font-size="5.6" lengthAdjust="spacing" textLength="28" x="499.4" y="257.9636">Candidate</text><line style="stroke:#000000;stroke-width:0.20000000000000004;" x1="488.2" x2="528.2" y1="261.1449" y2="261.1449"/></g><!--entity Curriculum--><g id="elem_Curriculum"><rect fill="#F0FFDD" height="15.5906" rx="1" ry="1" style="stroke:#000000;stroke-width:0.20000000000000004;" width="48" x="620.4" y="248.7993"/><text fill="#000000" font-family="sans-serif" font-size="5.6" font-style="italic" lengthAdjust="spacing" textLength="40" x="624.4" y="255.4134">&#171;Value Object&#187;</text><text fill="#000000" font-family="sans-serif" font-size="5.6" lengthAdjust="spacing" textLength="30.8" x="629" y="262.0087">Curriculum</text></g><!--entity TelephoneNumber--><g id="elem_TelephoneNumber"><rect fill="#F0FFDD" height="15.5906" rx="1" ry="1" style="stroke:#000000;stroke-width:0.20000000000000004;" width="59.2" x="614.8" y="219.1993"/><text fill="#000000" font-family="sans-serif" font-size="5.6" font-style="italic" lengthAdjust="spacing" textLength="40" x="624.4" y="225.8134">&#171;Value Object&#187;</text><text fill="#000000" font-family="sans-serif" font-size="5.6" lengthAdjust="spacing" textLength="51.2" x="618.8" y="232.4087">TelephoneNumber</text></g><!--class CustomerManager--><g id="elem_CustomerManager"><rect codeLine="135" fill="#F0FFFF" height="25.1016" id="CustomerManager" rx="1" ry="1" style="stroke:#000000;stroke-width:0.20000000000000004;" width="63.6" x="16.8" y="145.2433"/><ellipse cx="22.8" cy="156.1941" fill="#ADD1B2" rx="4.4" ry="4.4" style="stroke:#181818;stroke-width:0.4000000000000001;"/><path d="M24.4457,158.5941 L21.3578,158.5941 L21.3578,153.6369 L24.4457,153.6369 L24.4457,154.5001 L22.3373,154.5001 L22.3373,155.5693 L24.2465,155.5693 L24.2465,156.4326 L22.3373,156.4326 L22.3373,157.7308 L24.4457,157.7308 Z " fill="#000000"/><text fill="#000000" font-family="sans-serif" font-size="4.8" font-style="italic" lengthAdjust="spacing" textLength="17.2" x="45.2" y="151.8839">&#171;entity&#187;</text><text fill="#000000" font-family="sans-serif" font-size="4.8" font-style="italic" lengthAdjust="spacing" textLength="14" x="46.8" y="157.5371">&#171;root&#187;</text><text fill="#000000" font-family="sans-serif" font-size="5.6" lengthAdjust="spacing" textLength="50.8" x="28.4" y="163.9636">CustomerManager</text><line style="stroke:#000000;stroke-width:0.20000000000000004;" x1="17.2" x2="80" y1="167.1449" y2="167.1449"/></g><!--class Customer--><g id="elem_Customer"><rect fill="#F0FFFF" height="16" id="Customer" rx="1" ry="1" style="stroke:#000000;stroke-width:0.20000000000000004;" width="39.6" x="342" y="412.1953"/><ellipse cx="348" cy="418.5953" fill="#ADD1B2" rx="4.4" ry="4.4" style="stroke:#181818;stroke-width:0.4000000000000001;"/><path d="M349.1893,420.8525 Q348.9568,420.9721 348.7012,421.0318 Q348.4455,421.0916 348.1633,421.0916 Q347.1605,421.0916 346.6326,420.4309 Q346.1047,419.7701 346.1047,418.5217 Q346.1047,417.2699 346.6326,416.6092 Q347.1605,415.9484 348.1633,415.9484 Q348.4455,415.9484 348.7045,416.0082 Q348.9635,416.068 349.1893,416.1875 L349.1893,417.2766 Q348.9369,417.0441 348.6995,416.9362 Q348.4621,416.8283 348.2098,416.8283 Q347.6719,416.8283 347.3979,417.255 Q347.124,417.6816 347.124,418.5217 Q347.124,419.3584 347.3979,419.7851 Q347.6719,420.2117 348.2098,420.2117 Q348.4621,420.2117 348.6995,420.1038 Q348.9369,419.9959 349.1893,419.7635 Z " fill="#000000"/><text fill="#000000" font-family="sans-serif" font-size="5.6" lengthAdjust="spacing" textLength="26.8" x="353.6" y="420.7117">Customer</text><line style="stroke:#000000;stroke-width:0.20000000000000004;" x1="342.4" x2="381.2" y1="424.9953" y2="424.9953"/></g><!--link JobOpening to JobReference--><g id="link_JobOpening_JobReference"><path codeLine="42" d="M198.084,170.5073 C208.296,179.9953 223.132,192.8793 237.6,202.1953 C241.48,204.6953 243.6928,205.9795 247.9048,208.0235 " fill="none" id="JobOpening-to-JobReference" style="stroke:#808080;stroke-width:0.4000000000000001;"/><polygon fill="#808080" points="250.064,209.0713,247.5238,206.0601,248.2647,208.1981,246.1267,208.9391,250.064,209.0713" style="stroke:#808080;stroke-width:0.4000000000000001;"/></g><!--link JobOpening to TitleOrFunction--><g id="link_JobOpening_TitleOrFunction"><path codeLine="43" d="M207.348,165.6873 C219.372,169.9353 231.901,174.364 243.961,178.624 " fill="none" id="JobOpening-to-TitleOrFunction" style="stroke:#808080;stroke-width:0.4000000000000001;"/><polygon fill="#808080" points="246.224,179.4233,243.3625,176.7156,244.3382,178.7572,242.2966,179.7329,246.224,179.4233" style="stroke:#808080;stroke-width:0.4000000000000001;"/></g><!--link JobOpening to ContractType--><g id="link_JobOpening_ContractType"><path codeLine="44" d="M207.348,157.7953 C218.984,157.7953 230.812,157.7953 242.648,157.7953 " fill="none" id="JobOpening-to-ContractType" style="stroke:#808080;stroke-width:0.4000000000000001;"/><polygon fill="#808080" points="245.048,157.7953,241.448,156.1953,243.048,157.7953,241.448,159.3953,245.048,157.7953" style="stroke:#808080;stroke-width:0.4000000000000001;"/></g><!--link JobOpening to Mode--><g id="link_JobOpening_Mode"><path codeLine="45" d="M207.348,149.9033 C219.372,145.6553 231.901,141.2307 243.961,136.9707 " fill="none" id="JobOpening-to-Mode" style="stroke:#808080;stroke-width:0.4000000000000001;"/><polygon fill="#808080" points="246.224,136.1713,242.2966,135.8617,244.3382,136.8374,243.3625,138.879,246.224,136.1713" style="stroke:#808080;stroke-width:0.4000000000000001;"/></g><!--link JobOpening to Address--><g id="link_JobOpening_Address"><path codeLine="46" d="M198.084,145.0873 C208.296,135.5953 223.132,122.7113 237.6,113.3953 C241.48,110.8953 243.6928,109.6111 247.9048,107.5671 " fill="none" id="JobOpening-to-Address" style="stroke:#808080;stroke-width:0.4000000000000001;"/><polygon fill="#808080" points="250.064,106.5193,246.1267,106.6516,248.2647,107.3925,247.5238,109.5305,250.064,106.5193" style="stroke:#808080;stroke-width:0.4000000000000001;"/></g><!--link JobOpening to VacanciesNumber--><g id="link_JobOpening_VacanciesNumber"><path codeLine="47" d="M191.34,145.1673 C199.936,129.1113 216.648,101.3673 237.6,83.7953 C240.724,81.1753 242.2587,80.0106 245.9587,78.0866 " fill="none" id="JobOpening-to-VacanciesNumber" style="stroke:#808080;stroke-width:0.4000000000000001;"/><polygon fill="#808080" points="248.088,76.9793,244.1559,77.2206,246.3136,77.902,245.6322,80.0597,248.088,76.9793" style="stroke:#808080;stroke-width:0.4000000000000001;"/></g><!--link JobOpening to Description--><g id="link_JobOpening_Description"><path codeLine="48" d="M188.46,145.1793 C194.88,123.8913 210.5,80.5793 237.6,54.1953 C240.348,51.5193 241.5675,50.409 245.0115,48.521 " fill="none" id="JobOpening-to-Description" style="stroke:#808080;stroke-width:0.4000000000000001;"/><polygon fill="#808080" points="247.116,47.3673,243.1901,47.6948,245.3622,48.3287,244.7284,50.5009,247.116,47.3673" style="stroke:#808080;stroke-width:0.4000000000000001;"/></g><!--link JobInterview to InterviewResults--><g id="link_JobInterview_InterviewResults"><path codeLine="79" d="M531.568,157.2153 C555.524,162.4553 590.6593,170.1349 615.6793,175.6029 " fill="none" id="JobInterview-to-InterviewResults" style="stroke:#808080;stroke-width:0.4000000000000001;"/><polygon fill="#808080" points="618.024,176.1153,614.8486,173.7836,616.0701,175.6883,614.1654,176.9098,618.024,176.1153" style="stroke:#808080;stroke-width:0.4000000000000001;"/></g><!--link JobInterview to Score--><g id="link_JobInterview_Score"><path codeLine="80" d="M531.568,152.1953 C556.24,152.1953 592.86,152.1953 617.836,152.1953 " fill="none" id="JobInterview-to-Score" style="stroke:#808080;stroke-width:0.4000000000000001;"/><polygon fill="#808080" points="620.236,152.1953,616.636,150.5953,618.236,152.1953,616.636,153.7953,620.236,152.1953" style="stroke:#808080;stroke-width:0.4000000000000001;"/></g><!--link JobInterview to InterviewTime--><g id="link_JobInterview_InterviewTime"><path codeLine="81" d="M531.568,147.1753 C556.24,141.7793 592.9154,133.7639 617.8914,128.3039 " fill="none" id="JobInterview-to-InterviewTime" style="stroke:#808080;stroke-width:0.4000000000000001;"/><polygon fill="#808080" points="620.236,127.7913,616.3774,126.9971,618.2821,128.2184,617.0608,130.1232,620.236,127.7913" style="stroke:#808080;stroke-width:0.4000000000000001;"/></g><!--link JobInterview to InterviewDate--><g id="link_JobInterview_InterviewDate"><path codeLine="82" d="M531.568,142.1513 C558.164,130.5233 599.2329,112.5686 623.6089,101.9126 " fill="none" id="JobInterview-to-InterviewDate" style="stroke:#808080;stroke-width:0.4000000000000001;"/><polygon fill="#808080" points="625.808,100.9513,621.8685,100.9273,623.9755,101.7524,623.1503,103.8593,625.808,100.9513" style="stroke:#808080;stroke-width:0.4000000000000001;"/></g><!--link Application to ApplicationFiles--><g id="link_Application_ApplicationFiles"><path codeLine="98" d="M276.264,319.3193 C284.904,334.6873 301.348,360.3873 322,375.7953 C326.128,378.8753 328.7551,380.464 333.6071,382.476 " fill="none" id="Application-to-ApplicationFiles" style="stroke:#808080;stroke-width:0.4000000000000001;"/><polygon fill="#808080" points="335.824,383.3953,333.1115,380.5384,333.9765,382.6292,331.8857,383.4943,335.824,383.3953" style="stroke:#808080;stroke-width:0.4000000000000001;"/></g><!--link Application to Status--><g id="link_Application_Status"><path codeLine="99" d="M284.06,319.3353 C294.168,327.7713 308.264,338.6353 322,346.1953 C326.896,348.8913 330.1458,350.4331 335.4378,352.4811 " fill="none" id="Application-to-Status" style="stroke:#808080;stroke-width:0.4000000000000001;"/><polygon fill="#808080" points="337.676,353.3473,334.8961,350.5559,335.8108,352.6255,333.7412,353.5402,337.676,353.3473" style="stroke:#808080;stroke-width:0.4000000000000001;"/></g><!--link Application to SubmissionDate--><g id="link_Application_SubmissionDate"><path codeLine="100" d="M291.356,312.4713 C304.664,316.0673 319.439,320.0618 333.411,323.8338 " fill="none" id="Application-to-SubmissionDate" style="stroke:#808080;stroke-width:0.4000000000000001;"/><polygon fill="#808080" points="335.728,324.4593,332.6694,321.9763,333.7971,323.938,331.8354,325.0657,335.728,324.4593" style="stroke:#808080;stroke-width:0.4000000000000001;"/></g><!--link Application to Rank--><g id="link_Application_Rank"><path codeLine="101" d="M291.356,305.4593 C305.3,304.7273 321.0033,303.9086 335.3113,303.1606 " fill="none" id="Application-to-Rank" style="stroke:#808080;stroke-width:0.4000000000000001;"/><polygon fill="#808080" points="337.708,303.0353,334.0294,301.6254,335.7107,303.1397,334.1964,304.8211,337.708,303.0353" style="stroke:#808080;stroke-width:0.4000000000000001;"/></g><!--link Candidate to Curriculum--><g id="link_Candidate_Curriculum"><path codeLine="129" d="M528.724,252.5073 C553.144,253.3753 591.8695,254.7463 617.8295,255.6663 " fill="none" id="Candidate-to-Curriculum" style="stroke:#808080;stroke-width:0.4000000000000001;"/><polygon fill="#808080" points="620.228,255.7513,616.6869,254.0248,618.2293,255.6805,616.5736,257.2228,620.228,255.7513" style="stroke:#808080;stroke-width:0.4000000000000001;"/></g><!--link Candidate to TelephoneNumber--><g id="link_Candidate_TelephoneNumber"><path codeLine="130" d="M528.724,248.1113 C551.452,243.9473 586.2792,237.5675 612.2552,232.8115 " fill="none" id="Candidate-to-TelephoneNumber" style="stroke:#808080;stroke-width:0.4000000000000001;"/><polygon fill="#808080" points="614.616,232.3793,610.7867,231.4538,612.6487,232.7395,611.363,234.6015,614.616,232.3793" style="stroke:#808080;stroke-width:0.4000000000000001;"/></g><!--link Application to JobInterview--><g id="link_Application_JobInterview"><path codeLine="139" d="M283.98,293.8993 C294.108,285.4033 308.26,274.3873 322,266.5953 C359.132,245.5393 376.416,255.7353 411.2,230.9953 C419.828,224.8593 419.056,220.2153 426.8,212.9953 C446.48,194.6513 469.5867,177.8737 486.5907,166.2497 " fill="none" id="Application-to-JobInterview" style="stroke:#808080;stroke-width:0.4000000000000001;"/><polygon fill="#808080" points="488.572,164.8953,484.6971,165.6061,486.9209,166.024,486.503,168.2478,488.572,164.8953" style="stroke:#808080;stroke-width:0.4000000000000001;"/><text fill="#000000" font-family="sans-serif" font-size="5.2" lengthAdjust="spacing" textLength="3.2" x="283.4984" y="289.7024">1</text><text fill="#000000" font-family="sans-serif" font-size="5.2" lengthAdjust="spacing" textLength="3.2" x="481.3254" y="172.9275">1</text></g><!--reverse link JobOpening to Application--><g id="link_JobOpening_Application"><path codeLine="140" d="M193.3217,172.5745 C209.1537,200.6865 245.856,265.8593 261.672,293.9393 " fill="none" id="JobOpening-backto-Application" style="stroke:#808080;stroke-width:0.4000000000000001;"/><polygon fill="#808080" points="192.144,170.4833,192.5164,174.4052,193.1254,172.226,195.3047,172.8349,192.144,170.4833" style="stroke:#808080;stroke-width:0.4000000000000001;"/><text fill="#000000" font-family="sans-serif" font-size="5.2" lengthAdjust="spacing" textLength="8.8" x="219.6" y="217.6227">has</text><text fill="#000000" font-family="sans-serif" font-size="5.2" lengthAdjust="spacing" textLength="3.2" x="190.1142" y="178.6117">1</text><text fill="#000000" font-family="sans-serif" font-size="5.2" lengthAdjust="spacing" textLength="4" x="253.9419" y="289.7507">N</text></g><!--link Application to Candidate--><g id="link_Application_Candidate"><path codeLine="141" d="M291.376,297.4993 C300.688,293.8593 311.756,289.8593 322,286.9953 C381.204,270.4433 450.8271,259.6075 485.2311,254.7995 " fill="none" id="Application-to-Candidate" style="stroke:#808080;stroke-width:0.4000000000000001;"/><polygon fill="#808080" points="487.608,254.4673,483.8212,253.381,485.6272,254.7441,484.2641,256.5502,487.608,254.4673" style="stroke:#808080;stroke-width:0.4000000000000001;"/><text fill="#000000" font-family="sans-serif" font-size="5.2" lengthAdjust="spacing" textLength="4" x="294.4736" y="301.7537">N</text><text fill="#000000" font-family="sans-serif" font-size="5.2" lengthAdjust="spacing" textLength="3.2" x="481.426" y="260.2653">1</text></g><!--link CustomerManager to JobOpening--><g id="link_CustomerManager_JobOpening"><path codeLine="142" d="M80.528,157.7953 C105.456,157.7953 137.244,157.7953 159.428,157.7953 " fill="none" id="CustomerManager-to-JobOpening" style="stroke:#808080;stroke-width:0.4000000000000001;"/><polygon fill="#808080" points="161.828,157.7953,158.228,156.1953,159.828,157.7953,158.228,159.3953,161.828,157.7953" style="stroke:#808080;stroke-width:0.4000000000000001;"/><text fill="#000000" font-family="sans-serif" font-size="5.2" lengthAdjust="spacing" textLength="22.4" x="114" y="156.4227">manages</text><text fill="#000000" font-family="sans-serif" font-size="5.2" lengthAdjust="spacing" textLength="3.2" x="83.6189" y="163.1051">1</text><text fill="#000000" font-family="sans-serif" font-size="5.2" lengthAdjust="spacing" textLength="4" x="154.8089" y="163.196">N</text></g><!--link JobOpening to Customer--><g id="link_JobOpening_Customer"><path codeLine="143" d="M185.676,170.4433 C188.448,217.1753 200.624,379.0553 237.6,411.3953 C266.428,436.6113 312.5609,431.5524 339.5049,425.8004 " fill="none" id="JobOpening-to-Customer" style="stroke:#808080;stroke-width:0.4000000000000001;"/><polygon fill="#808080" points="341.852,425.2993,337.9973,424.4862,339.8961,425.7169,338.6654,427.6156,341.852,425.2993" style="stroke:#808080;stroke-width:0.4000000000000001;"/><text fill="#000000" font-family="sans-serif" font-size="5.2" lengthAdjust="spacing" textLength="26.8" x="255.8" y="410.0227">associated</text><text fill="#000000" font-family="sans-serif" font-size="5.2" lengthAdjust="spacing" textLength="4" x="181.4941" y="178.5638">N</text><text fill="#000000" font-family="sans-serif" font-size="5.2" lengthAdjust="spacing" textLength="3.2" x="335.6218" y="431.475">1</text></g><!--SRC=[fLPDR-8m4BtdLrZPCzBk5I4a2gBggeMgHRqRUv9uwzYHuooBglxt7ISGd60WLRa0Csy-tdXcx4nm83dOJFCoaf1OOZKn8iqiuS80iqAhADe8Au742vrJeSYJvY39YBnGzIvKIkPKSS6fXJAEeX951JKq9qpIiYGV4S7FeqZWKIYuquQ3cMkf3LbGytudA-W2A7jFZQuKRq2pv-V7X_biyx1UrRY-_iVovn8_jMvcZDurujJ0li5x0RSIZQDFFyS29JI5Lxj7VeukLQc43Wjg-1KIzmP0VP_1Oj5duAfp7s9nTsHno9t4l_MMh0jGxYncAL9FyIpYZmYK5NPFK7tKJYQDR3gTJ8pMTZgDQlyrISIzG08650D4lb4y6xBU_i6gJAU74doUu7LFhCsoKdMJ3B2OQsKDPNQpBuO4S6qs03RZt00sscta6sLKCG7bgigtO0POBA1aHXJN-TLVNf57escdbY5zhtWXY5-jaDwL9oG_r2EawXKW1F4ODyIKjd1O23evJyfzSFx95eXMu20s0v9eAVKEVOvRq8WabPGZAtBmP3XZzYG3nUjueSWjtU4XqR-1tFdp9Db-QmJt9LgLmlOJm6FjJjY3ic3-2jXT6B6J_jAGDItLubwWhAIzsBU7DcoCNfasC0ZPkjzWKRzciK1ALooQxmvJrp1zFXTWDODRBZPjSrp6k2oZplgR5OKKZDP36ZWRNtrr_td0fP1mVZ9dw-7LKbiDmLNRN9GbEWxM-0plBjQBgEQYy4ZLGz_BFGXgqWshEXa68Iwfq61wNh-m34eNq5hW_ZB0yKEO9w6CGT45SM0IRrb-Ss44I_A532tyioH1Ix8JDgjn3BSVDb1vj0Dy3ab_mpbqWdSqK9Or_wYr-1kuUrQ5J6v4-POZV9BHOwhKEqryhc6V7Tvivtkl7QpsNHSQgvFowb3DAsC4gsIL3tbIW8GYmuEvS45tHk2KG7rRjd42ofxVUhcVM5QbrJb6Uw8A1IP8ze0vGaAKqQa_Cl6l66DZSFV3NsUHT-CwtMGq8l6An9s16vECbbr_AyzVIo_gPtOAkuhzktrCyXfHTi9tV1xhC2RuRjTCK3TuKVGV]--></g></svg>