<?xml version="1.0" encoding="us-ascii" standalone="no"?><svg xmlns="http://www.w3.org/2000/svg" xmlns:xlink="http://www.w3.org/1999/xlink" contentStyleType="text/css" height="756px" preserveAspectRatio="none" style="width:906px;height:756px;background:#FFFFFF;" version="1.1" viewBox="0 0 906 756" width="906px" zoomAndPan="magnify"><defs/><g><rect fill="#FFFFFF" height="541.2383" style="stroke:#181818;stroke-width:1.0;" width="10" x="61.5" y="98.2422"/><rect fill="#FFFFFF" height="31.291" style="stroke:#181818;stroke-width:1.0;" width="10" x="336.5" y="121.5332"/><rect fill="#FFFFFF" height="156.4551" style="stroke:#181818;stroke-width:1.0;" width="10" x="336.5" y="184.1152"/><rect fill="#FFFFFF" height="267.6191" style="stroke:#181818;stroke-width:1.0;" width="10" x="336.5" y="371.8613"/><rect fill="#FFFFFF" height="93.873" style="stroke:#181818;stroke-width:1.0;" width="10" x="628.5" y="215.4063"/><rect fill="#FFFFFF" height="31.291" style="stroke:#181818;stroke-width:1.0;" width="10" x="628.5" y="403.1523"/><rect fill="#FFFFFF" height="93.873" style="stroke:#181818;stroke-width:1.0;" width="10" x="628.5" y="514.3164"/><rect fill="#FFFFFF" height="31.291" style="stroke:#181818;stroke-width:1.0;" width="10" x="824.5" y="246.6973"/><rect fill="#FFFFFF" height="31.291" style="stroke:#181818;stroke-width:1.0;" width="10" x="824.5" y="545.6074"/><line style="stroke:#181818;stroke-width:0.5;stroke-dasharray:5.0,5.0;" x1="66" x2="66" y1="88.2422" y2="657.4805"/><line style="stroke:#181818;stroke-width:0.5;stroke-dasharray:5.0,5.0;" x1="341" x2="341" y1="88.2422" y2="657.4805"/><line style="stroke:#181818;stroke-width:0.5;stroke-dasharray:5.0,5.0;" x1="633" x2="633" y1="88.2422" y2="657.4805"/><line style="stroke:#181818;stroke-width:0.5;stroke-dasharray:5.0,5.0;" x1="829" x2="829" y1="88.2422" y2="657.4805"/><text fill="#000000" font-family="sans-serif" font-size="14" lengthAdjust="spacing" textLength="117" x="5" y="84.7285">CustomerManager</text><ellipse cx="66.5" cy="18.1211" fill="#E2E2F0" rx="8" ry="8" style="stroke:#181818;stroke-width:0.5;"/><path d="M66.5,26.1211 L66.5,53.1211 M53.5,34.1211 L79.5,34.1211 M66.5,53.1211 L53.5,68.1211 M66.5,53.1211 L79.5,68.1211 " fill="none" style="stroke:#181818;stroke-width:0.5;"/><text fill="#000000" font-family="sans-serif" font-size="14" lengthAdjust="spacing" textLength="117" x="5" y="671.5879">CustomerManager</text><ellipse cx="66.5" cy="683.6016" fill="#E2E2F0" rx="8" ry="8" style="stroke:#181818;stroke-width:0.5;"/><path d="M66.5,691.6016 L66.5,718.6016 M53.5,699.6016 L79.5,699.6016 M66.5,718.6016 L53.5,733.6016 M66.5,718.6016 L79.5,733.6016 " fill="none" style="stroke:#181818;stroke-width:0.5;"/><rect fill="#E2E2F0" height="51.2422" rx="2.5" ry="2.5" style="stroke:#181818;stroke-width:0.5;" width="141" x="271" y="36"/><text fill="#000000" font-family="sans-serif" font-size="14" font-style="italic" lengthAdjust="spacing" textLength="95" x="294" y="58.1074">&#171;presentation&#187;</text><text fill="#000000" font-family="sans-serif" font-size="14" lengthAdjust="spacing" textLength="127" x="278" y="76.7285">UploadResponsesUI</text><rect fill="#E2E2F0" height="51.2422" rx="2.5" ry="2.5" style="stroke:#181818;stroke-width:0.5;" width="141" x="271" y="656.4805"/><text fill="#000000" font-family="sans-serif" font-size="14" font-style="italic" lengthAdjust="spacing" textLength="95" x="294" y="678.5879">&#171;presentation&#187;</text><text fill="#000000" font-family="sans-serif" font-size="14" lengthAdjust="spacing" textLength="127" x="278" y="697.209">UploadResponsesUI</text><rect fill="#E2E2F0" height="51.2422" rx="2.5" ry="2.5" style="stroke:#181818;stroke-width:0.5;" width="191" x="538" y="36"/><text fill="#000000" font-family="sans-serif" font-size="14" font-style="italic" lengthAdjust="spacing" textLength="75" x="596" y="58.1074">&#171;controller&#187;</text><text fill="#000000" font-family="sans-serif" font-size="14" lengthAdjust="spacing" textLength="177" x="545" y="76.7285">UploadResponsesController</text><rect fill="#E2E2F0" height="51.2422" rx="2.5" ry="2.5" style="stroke:#181818;stroke-width:0.5;" width="191" x="538" y="656.4805"/><text fill="#000000" font-family="sans-serif" font-size="14" font-style="italic" lengthAdjust="spacing" textLength="75" x="596" y="678.5879">&#171;controller&#187;</text><text fill="#000000" font-family="sans-serif" font-size="14" lengthAdjust="spacing" textLength="177" x="545" y="697.209">UploadResponsesController</text><text fill="#000000" font-family="sans-serif" font-size="14" font-style="italic" lengthAdjust="spacing" textLength="79" x="787" y="66.1074">&#171;repository&#187;</text><text fill="#000000" font-family="sans-serif" font-size="14" lengthAdjust="spacing" textLength="145" x="754" y="84.7285">JobInterviewRepository</text><path d="M811.5,15 C811.5,5 829.5,5 829.5,5 C829.5,5 847.5,5 847.5,15 L847.5,41 C847.5,51 829.5,51 829.5,51 C829.5,51 811.5,51 811.5,41 L811.5,15 " fill="#E2E2F0" style="stroke:#181818;stroke-width:1.5;"/><path d="M811.5,15 C811.5,25 829.5,25 829.5,25 C829.5,25 847.5,25 847.5,15 " fill="none" style="stroke:#181818;stroke-width:1.5;"/><text fill="#000000" font-family="sans-serif" font-size="14" font-style="italic" lengthAdjust="spacing" textLength="79" x="787" y="671.5879">&#171;repository&#187;</text><text fill="#000000" font-family="sans-serif" font-size="14" lengthAdjust="spacing" textLength="145" x="754" y="690.209">JobInterviewRepository</text><path d="M811.5,703.7227 C811.5,693.7227 829.5,693.7227 829.5,693.7227 C829.5,693.7227 847.5,693.7227 847.5,703.7227 L847.5,729.7227 C847.5,739.7227 829.5,739.7227 829.5,739.7227 C829.5,739.7227 811.5,739.7227 811.5,729.7227 L811.5,703.7227 " fill="#E2E2F0" style="stroke:#181818;stroke-width:1.5;"/><path d="M811.5,703.7227 C811.5,713.7227 829.5,713.7227 829.5,713.7227 C829.5,713.7227 847.5,713.7227 847.5,703.7227 " fill="none" style="stroke:#181818;stroke-width:1.5;"/><rect fill="#FFFFFF" height="541.2383" style="stroke:#181818;stroke-width:1.0;" width="10" x="61.5" y="98.2422"/><rect fill="#FFFFFF" height="31.291" style="stroke:#181818;stroke-width:1.0;" width="10" x="336.5" y="121.5332"/><rect fill="#FFFFFF" height="156.4551" style="stroke:#181818;stroke-width:1.0;" width="10" x="336.5" y="184.1152"/><rect fill="#FFFFFF" height="267.6191" style="stroke:#181818;stroke-width:1.0;" width="10" x="336.5" y="371.8613"/><rect fill="#FFFFFF" height="93.873" style="stroke:#181818;stroke-width:1.0;" width="10" x="628.5" y="215.4063"/><rect fill="#FFFFFF" height="31.291" style="stroke:#181818;stroke-width:1.0;" width="10" x="628.5" y="403.1523"/><rect fill="#FFFFFF" height="93.873" style="stroke:#181818;stroke-width:1.0;" width="10" x="628.5" y="514.3164"/><rect fill="#FFFFFF" height="31.291" style="stroke:#181818;stroke-width:1.0;" width="10" x="824.5" y="246.6973"/><rect fill="#FFFFFF" height="31.291" style="stroke:#181818;stroke-width:1.0;" width="10" x="824.5" y="545.6074"/><polygon fill="#181818" points="324.5,117.5332,334.5,121.5332,324.5,125.5332,328.5,121.5332" style="stroke:#181818;stroke-width:1.0;"/><line style="stroke:#181818;stroke-width:1.0;" x1="71.5" x2="330.5" y1="121.5332" y2="121.5332"/><text fill="#000000" font-family="sans-serif" font-size="13" font-weight="bold" lengthAdjust="spacing" textLength="7" x="78.5" y="116.2705">1</text><text fill="#000000" font-family="sans-serif" font-size="13" lengthAdjust="spacing" textLength="209" x="89.5" y="116.2705">asks to upload candidate responses</text><polygon fill="#181818" points="82.5,148.8242,72.5,152.8242,82.5,156.8242,78.5,152.8242" style="stroke:#181818;stroke-width:1.0;"/><line style="stroke:#181818;stroke-width:1.0;" x1="76.5" x2="340.5" y1="152.8242" y2="152.8242"/><text fill="#000000" font-family="sans-serif" font-size="13" font-weight="bold" lengthAdjust="spacing" textLength="7" x="88.5" y="147.5615">2</text><text fill="#000000" font-family="sans-serif" font-size="13" lengthAdjust="spacing" textLength="138" x="99.5" y="147.5615">requests job interview id</text><polygon fill="#181818" points="324.5,180.1152,334.5,184.1152,324.5,188.1152,328.5,184.1152" style="stroke:#181818;stroke-width:1.0;"/><line style="stroke:#181818;stroke-width:1.0;" x1="71.5" x2="330.5" y1="184.1152" y2="184.1152"/><text fill="#000000" font-family="sans-serif" font-size="13" font-weight="bold" lengthAdjust="spacing" textLength="7" x="78.5" y="178.8525">3</text><text fill="#000000" font-family="sans-serif" font-size="13" lengthAdjust="spacing" textLength="53" x="89.5" y="178.8525">inserts id</text><polygon fill="#181818" points="616.5,211.4063,626.5,215.4063,616.5,219.4063,620.5,215.4063" style="stroke:#181818;stroke-width:1.0;"/><line style="stroke:#181818;stroke-width:1.0;" x1="346.5" x2="622.5" y1="215.4063" y2="215.4063"/><text fill="#000000" font-family="sans-serif" font-size="13" font-weight="bold" lengthAdjust="spacing" textLength="7" x="353.5" y="210.1436">4</text><text fill="#000000" font-family="sans-serif" font-size="13" lengthAdjust="spacing" textLength="183" x="364.5" y="210.1436">findInterviewByID(jobInterviewID)</text><polygon fill="#181818" points="812.5,242.6973,822.5,246.6973,812.5,250.6973,816.5,246.6973" style="stroke:#181818;stroke-width:1.0;"/><line style="stroke:#181818;stroke-width:1.0;" x1="638.5" x2="818.5" y1="246.6973" y2="246.6973"/><text fill="#000000" font-family="sans-serif" font-size="13" font-weight="bold" lengthAdjust="spacing" textLength="7" x="645.5" y="241.4346">5</text><text fill="#000000" font-family="sans-serif" font-size="13" lengthAdjust="spacing" textLength="138" x="656.5" y="241.4346">ofIdentity(jobInterviewID)</text><polygon fill="#181818" points="649.5,273.9883,639.5,277.9883,649.5,281.9883,645.5,277.9883" style="stroke:#181818;stroke-width:1.0;"/><line style="stroke:#181818;stroke-width:1.0;stroke-dasharray:2.0,2.0;" x1="643.5" x2="828.5" y1="277.9883" y2="277.9883"/><text fill="#000000" font-family="sans-serif" font-size="13" font-weight="bold" lengthAdjust="spacing" textLength="7" x="655.5" y="272.7256">6</text><text fill="#000000" font-family="sans-serif" font-size="13" lengthAdjust="spacing" textLength="66" x="666.5" y="272.7256">jobInterview</text><polygon fill="#181818" points="357.5,305.2793,347.5,309.2793,357.5,313.2793,353.5,309.2793" style="stroke:#181818;stroke-width:1.0;"/><line style="stroke:#181818;stroke-width:1.0;stroke-dasharray:2.0,2.0;" x1="351.5" x2="632.5" y1="309.2793" y2="309.2793"/><text fill="#000000" font-family="sans-serif" font-size="13" font-weight="bold" lengthAdjust="spacing" textLength="7" x="363.5" y="304.0166">7</text><text fill="#000000" font-family="sans-serif" font-size="13" lengthAdjust="spacing" textLength="66" x="374.5" y="304.0166">jobInterview</text><polygon fill="#181818" points="82.5,336.5703,72.5,340.5703,82.5,344.5703,78.5,340.5703" style="stroke:#181818;stroke-width:1.0;"/><line style="stroke:#181818;stroke-width:1.0;stroke-dasharray:2.0,2.0;" x1="76.5" x2="340.5" y1="340.5703" y2="340.5703"/><text fill="#000000" font-family="sans-serif" font-size="13" font-weight="bold" lengthAdjust="spacing" textLength="7" x="88.5" y="335.3076">8</text><text fill="#000000" font-family="sans-serif" font-size="13" lengthAdjust="spacing" textLength="99" x="99.5" y="335.3076">requests file path</text><polygon fill="#181818" points="324.5,367.8613,334.5,371.8613,324.5,375.8613,328.5,371.8613" style="stroke:#181818;stroke-width:1.0;"/><line style="stroke:#181818;stroke-width:1.0;" x1="71.5" x2="330.5" y1="371.8613" y2="371.8613"/><text fill="#000000" font-family="sans-serif" font-size="13" font-weight="bold" lengthAdjust="spacing" textLength="7" x="78.5" y="366.5986">9</text><text fill="#000000" font-family="sans-serif" font-size="13" lengthAdjust="spacing" textLength="88" x="89.5" y="366.5986">inserts file path</text><polygon fill="#181818" points="616.5,399.1523,626.5,403.1523,616.5,407.1523,620.5,403.1523" style="stroke:#181818;stroke-width:1.0;"/><line style="stroke:#181818;stroke-width:1.0;" x1="346.5" x2="622.5" y1="403.1523" y2="403.1523"/><text fill="#000000" font-family="sans-serif" font-size="13" font-weight="bold" lengthAdjust="spacing" textLength="14" x="353.5" y="397.8896">10</text><text fill="#000000" font-family="sans-serif" font-size="13" lengthAdjust="spacing" textLength="79" x="371.5" y="397.8896">readFile(path)</text><polygon fill="#181818" points="357.5,430.4434,347.5,434.4434,357.5,438.4434,353.5,434.4434" style="stroke:#181818;stroke-width:1.0;"/><line style="stroke:#181818;stroke-width:1.0;stroke-dasharray:2.0,2.0;" x1="351.5" x2="632.5" y1="434.4434" y2="434.4434"/><text fill="#000000" font-family="sans-serif" font-size="13" font-weight="bold" lengthAdjust="spacing" textLength="14" x="363.5" y="429.1807">11</text><text fill="#000000" font-family="sans-serif" font-size="13" lengthAdjust="spacing" textLength="60" x="381.5" y="429.1807">responses</text><polygon fill="#181818" points="82.5,479.0254,72.5,483.0254,82.5,487.0254,78.5,483.0254" style="stroke:#181818;stroke-width:1.0;"/><line style="stroke:#181818;stroke-width:1.0;stroke-dasharray:2.0,2.0;" x1="76.5" x2="335.5" y1="483.0254" y2="483.0254"/><text fill="#000000" font-family="sans-serif" font-size="13" font-weight="bold" lengthAdjust="spacing" textLength="14" x="88.5" y="469.1172">12</text><text fill="#000000" font-family="sans-serif" font-size="13" lengthAdjust="spacing" textLength="219" x="106.5" y="460.4717">shows interview score for the selected</text><text fill="#000000" font-family="sans-serif" font-size="13" lengthAdjust="spacing" textLength="174" x="106.5" y="477.7627">application and asks to rank it</text><polygon fill="#181818" points="616.5,510.3164,626.5,514.3164,616.5,518.3164,620.5,514.3164" style="stroke:#181818;stroke-width:1.0;"/><line style="stroke:#181818;stroke-width:1.0;" x1="346.5" x2="622.5" y1="514.3164" y2="514.3164"/><text fill="#000000" font-family="sans-serif" font-size="13" font-weight="bold" lengthAdjust="spacing" textLength="14" x="353.5" y="509.0537">13</text><text fill="#000000" font-family="sans-serif" font-size="13" lengthAdjust="spacing" textLength="245" x="371.5" y="509.0537">uploadResponses(responses, jobInterview)</text><polygon fill="#181818" points="812.5,541.6074,822.5,545.6074,812.5,549.6074,816.5,545.6074" style="stroke:#181818;stroke-width:1.0;"/><line style="stroke:#181818;stroke-width:1.0;" x1="638.5" x2="818.5" y1="545.6074" y2="545.6074"/><text fill="#000000" font-family="sans-serif" font-size="13" font-weight="bold" lengthAdjust="spacing" textLength="14" x="645.5" y="540.3447">14</text><text fill="#000000" font-family="sans-serif" font-size="13" lengthAdjust="spacing" textLength="149" x="663.5" y="540.3447">save(updatedJobInterview)</text><polygon fill="#181818" points="649.5,572.8984,639.5,576.8984,649.5,580.8984,645.5,576.8984" style="stroke:#181818;stroke-width:1.0;"/><line style="stroke:#181818;stroke-width:1.0;stroke-dasharray:2.0,2.0;" x1="643.5" x2="828.5" y1="576.8984" y2="576.8984"/><text fill="#000000" font-family="sans-serif" font-size="13" font-weight="bold" lengthAdjust="spacing" textLength="14" x="655.5" y="571.6357">15</text><text fill="#000000" font-family="sans-serif" font-size="13" lengthAdjust="spacing" textLength="119" x="673.5" y="571.6357">successful operation</text><polygon fill="#181818" points="357.5,604.1895,347.5,608.1895,357.5,612.1895,353.5,608.1895" style="stroke:#181818;stroke-width:1.0;"/><line style="stroke:#181818;stroke-width:1.0;stroke-dasharray:2.0,2.0;" x1="351.5" x2="632.5" y1="608.1895" y2="608.1895"/><text fill="#000000" font-family="sans-serif" font-size="13" font-weight="bold" lengthAdjust="spacing" textLength="14" x="363.5" y="602.9268">16</text><text fill="#000000" font-family="sans-serif" font-size="13" lengthAdjust="spacing" textLength="119" x="381.5" y="602.9268">successful operation</text><polygon fill="#181818" points="77.5,635.4805,67.5,639.4805,77.5,643.4805,73.5,639.4805" style="stroke:#181818;stroke-width:1.0;"/><line style="stroke:#181818;stroke-width:1.0;stroke-dasharray:2.0,2.0;" x1="71.5" x2="340.5" y1="639.4805" y2="639.4805"/><text fill="#000000" font-family="sans-serif" font-size="13" font-weight="bold" lengthAdjust="spacing" textLength="14" x="83.5" y="634.2178">17</text><text fill="#000000" font-family="sans-serif" font-size="13" lengthAdjust="spacing" textLength="147" x="101.5" y="634.2178">shows success message</text><!--SRC=[lLR1Jkim4BptA_PO9FY12lK0w4b1UXSaRboszkRLaDf-tdLH_vvDW92qIQb0gGzH7DipizxHA9Wb-BnPKPhDq4X8S9jPmeRIN_Juh_uSCOapBg8NU8nLGFj078DduiS2hgzZ8YOlA2xuvVBOzjlW9OMgegJ7J3lHGpEBWYjaWlkmAhnGsZfwVQ0OsAcedUvFxQJUhrhT5eKEvOAElOzmjHnGlW3a5mO9a9irCEYjipLe-jpMeBLS1nZlRFKuX5VEVHaB1VwVYONXEQp0VTO9pZP0bhwZEh4mfsz9MJvmVrp0UFyMK3flsqxTx8gx-NEdTSNTHGizHly5zoLZG4g7LIMD-6C1eIoisj39RbH8JymmK5z9FKO8hxwvdgw67cQdoQT8E78P8yqVP1wtrb0N1inmtCwbgmWYodeQ7_VX9x5p8hH_b6PUqqpYtP4Q-rapNQzu7LwvapbiGY8eDV5bJS1KaH6oyEGnnigP9iv14x5DoOJ-1PpyuevpVstUbdxPC-svauDnI_CSw-ItzuCwpXaSd8qXvZ9N42AbfW_d3P2Z2gOqvmSnRFIX2oTaIMTr_qVW3G00]--></g></svg>