<?xml version="1.0" encoding="us-ascii" standalone="no"?><svg xmlns="http://www.w3.org/2000/svg" xmlns:xlink="http://www.w3.org/1999/xlink" contentStyleType="text/css" height="708px" preserveAspectRatio="none" style="width:880px;height:708px;background:#FFFFFF;" version="1.1" viewBox="0 0 880 708" width="880px" zoomAndPan="magnify"><defs/><g><rect fill="#FFFFFF" height="492.6563" style="stroke:#181818;stroke-width:1.0;" width="10" x="61.5" y="98.2422"/><rect fill="#FFFFFF" height="31.291" style="stroke:#181818;stroke-width:1.0;" width="10" x="310.5" y="121.5332"/><rect fill="#FFFFFF" height="156.4551" style="stroke:#181818;stroke-width:1.0;" width="10" x="310.5" y="184.1152"/><rect fill="#FFFFFF" height="219.0371" style="stroke:#181818;stroke-width:1.0;" width="10" x="310.5" y="371.8613"/><rect fill="#FFFFFF" height="93.873" style="stroke:#181818;stroke-width:1.0;" width="10" x="602.5" y="215.4063"/><rect fill="#FFFFFF" height="31.291" style="stroke:#181818;stroke-width:1.0;" width="10" x="602.5" y="403.1523"/><rect fill="#FFFFFF" height="93.873" style="stroke:#181818;stroke-width:1.0;" width="10" x="602.5" y="465.7344"/><rect fill="#FFFFFF" height="31.291" style="stroke:#181818;stroke-width:1.0;" width="10" x="798.5" y="246.6973"/><rect fill="#FFFFFF" height="31.291" style="stroke:#181818;stroke-width:1.0;" width="10" x="798.5" y="497.0254"/><line style="stroke:#181818;stroke-width:0.5;stroke-dasharray:5.0,5.0;" x1="66" x2="66" y1="88.2422" y2="608.8984"/><line style="stroke:#181818;stroke-width:0.5;stroke-dasharray:5.0,5.0;" x1="315" x2="315" y1="88.2422" y2="608.8984"/><line style="stroke:#181818;stroke-width:0.5;stroke-dasharray:5.0,5.0;" x1="607" x2="607" y1="88.2422" y2="608.8984"/><line style="stroke:#181818;stroke-width:0.5;stroke-dasharray:5.0,5.0;" x1="803" x2="803" y1="88.2422" y2="608.8984"/><text fill="#000000" font-family="sans-serif" font-size="14" lengthAdjust="spacing" textLength="117" x="5" y="84.7285">CustomerManager</text><ellipse cx="66.5" cy="18.1211" fill="#E2E2F0" rx="8" ry="8" style="stroke:#181818;stroke-width:0.5;"/><path d="M66.5,26.1211 L66.5,53.1211 M53.5,34.1211 L79.5,34.1211 M66.5,53.1211 L53.5,68.1211 M66.5,53.1211 L79.5,68.1211 " fill="none" style="stroke:#181818;stroke-width:0.5;"/><text fill="#000000" font-family="sans-serif" font-size="14" lengthAdjust="spacing" textLength="117" x="5" y="623.0059">CustomerManager</text><ellipse cx="66.5" cy="635.0195" fill="#E2E2F0" rx="8" ry="8" style="stroke:#181818;stroke-width:0.5;"/><path d="M66.5,643.0195 L66.5,670.0195 M53.5,651.0195 L79.5,651.0195 M66.5,670.0195 L53.5,685.0195 M66.5,670.0195 L79.5,685.0195 " fill="none" style="stroke:#181818;stroke-width:0.5;"/><rect fill="#E2E2F0" height="51.2422" rx="2.5" ry="2.5" style="stroke:#181818;stroke-width:0.5;" width="141" x="245" y="36"/><text fill="#000000" font-family="sans-serif" font-size="14" font-style="italic" lengthAdjust="spacing" textLength="95" x="268" y="58.1074">&#171;presentation&#187;</text><text fill="#000000" font-family="sans-serif" font-size="14" lengthAdjust="spacing" textLength="127" x="252" y="76.7285">UploadResponsesUI</text><rect fill="#E2E2F0" height="51.2422" rx="2.5" ry="2.5" style="stroke:#181818;stroke-width:0.5;" width="141" x="245" y="607.8984"/><text fill="#000000" font-family="sans-serif" font-size="14" font-style="italic" lengthAdjust="spacing" textLength="95" x="268" y="630.0059">&#171;presentation&#187;</text><text fill="#000000" font-family="sans-serif" font-size="14" lengthAdjust="spacing" textLength="127" x="252" y="648.627">UploadResponsesUI</text><rect fill="#E2E2F0" height="51.2422" rx="2.5" ry="2.5" style="stroke:#181818;stroke-width:0.5;" width="191" x="512" y="36"/><text fill="#000000" font-family="sans-serif" font-size="14" font-style="italic" lengthAdjust="spacing" textLength="75" x="570" y="58.1074">&#171;controller&#187;</text><text fill="#000000" font-family="sans-serif" font-size="14" lengthAdjust="spacing" textLength="177" x="519" y="76.7285">UploadResponsesController</text><rect fill="#E2E2F0" height="51.2422" rx="2.5" ry="2.5" style="stroke:#181818;stroke-width:0.5;" width="191" x="512" y="607.8984"/><text fill="#000000" font-family="sans-serif" font-size="14" font-style="italic" lengthAdjust="spacing" textLength="75" x="570" y="630.0059">&#171;controller&#187;</text><text fill="#000000" font-family="sans-serif" font-size="14" lengthAdjust="spacing" textLength="177" x="519" y="648.627">UploadResponsesController</text><text fill="#000000" font-family="sans-serif" font-size="14" font-style="italic" lengthAdjust="spacing" textLength="79" x="761" y="66.1074">&#171;repository&#187;</text><text fill="#000000" font-family="sans-serif" font-size="14" lengthAdjust="spacing" textLength="145" x="728" y="84.7285">JobInterviewRepository</text><path d="M785.5,15 C785.5,5 803.5,5 803.5,5 C803.5,5 821.5,5 821.5,15 L821.5,41 C821.5,51 803.5,51 803.5,51 C803.5,51 785.5,51 785.5,41 L785.5,15 " fill="#E2E2F0" style="stroke:#181818;stroke-width:1.5;"/><path d="M785.5,15 C785.5,25 803.5,25 803.5,25 C803.5,25 821.5,25 821.5,15 " fill="none" style="stroke:#181818;stroke-width:1.5;"/><text fill="#000000" font-family="sans-serif" font-size="14" font-style="italic" lengthAdjust="spacing" textLength="79" x="761" y="623.0059">&#171;repository&#187;</text><text fill="#000000" font-family="sans-serif" font-size="14" lengthAdjust="spacing" textLength="145" x="728" y="641.627">JobInterviewRepository</text><path d="M785.5,655.1406 C785.5,645.1406 803.5,645.1406 803.5,645.1406 C803.5,645.1406 821.5,645.1406 821.5,655.1406 L821.5,681.1406 C821.5,691.1406 803.5,691.1406 803.5,691.1406 C803.5,691.1406 785.5,691.1406 785.5,681.1406 L785.5,655.1406 " fill="#E2E2F0" style="stroke:#181818;stroke-width:1.5;"/><path d="M785.5,655.1406 C785.5,665.1406 803.5,665.1406 803.5,665.1406 C803.5,665.1406 821.5,665.1406 821.5,655.1406 " fill="none" style="stroke:#181818;stroke-width:1.5;"/><rect fill="#FFFFFF" height="492.6563" style="stroke:#181818;stroke-width:1.0;" width="10" x="61.5" y="98.2422"/><rect fill="#FFFFFF" height="31.291" style="stroke:#181818;stroke-width:1.0;" width="10" x="310.5" y="121.5332"/><rect fill="#FFFFFF" height="156.4551" style="stroke:#181818;stroke-width:1.0;" width="10" x="310.5" y="184.1152"/><rect fill="#FFFFFF" height="219.0371" style="stroke:#181818;stroke-width:1.0;" width="10" x="310.5" y="371.8613"/><rect fill="#FFFFFF" height="93.873" style="stroke:#181818;stroke-width:1.0;" width="10" x="602.5" y="215.4063"/><rect fill="#FFFFFF" height="31.291" style="stroke:#181818;stroke-width:1.0;" width="10" x="602.5" y="403.1523"/><rect fill="#FFFFFF" height="93.873" style="stroke:#181818;stroke-width:1.0;" width="10" x="602.5" y="465.7344"/><rect fill="#FFFFFF" height="31.291" style="stroke:#181818;stroke-width:1.0;" width="10" x="798.5" y="246.6973"/><rect fill="#FFFFFF" height="31.291" style="stroke:#181818;stroke-width:1.0;" width="10" x="798.5" y="497.0254"/><polygon fill="#181818" points="298.5,117.5332,308.5,121.5332,298.5,125.5332,302.5,121.5332" style="stroke:#181818;stroke-width:1.0;"/><line style="stroke:#181818;stroke-width:1.0;" x1="71.5" x2="304.5" y1="121.5332" y2="121.5332"/><text fill="#000000" font-family="sans-serif" font-size="13" font-weight="bold" lengthAdjust="spacing" textLength="7" x="78.5" y="116.2705">1</text><text fill="#000000" font-family="sans-serif" font-size="13" lengthAdjust="spacing" textLength="209" x="89.5" y="116.2705">asks to upload candidate responses</text><polygon fill="#181818" points="82.5,148.8242,72.5,152.8242,82.5,156.8242,78.5,152.8242" style="stroke:#181818;stroke-width:1.0;"/><line style="stroke:#181818;stroke-width:1.0;" x1="76.5" x2="314.5" y1="152.8242" y2="152.8242"/><text fill="#000000" font-family="sans-serif" font-size="13" font-weight="bold" lengthAdjust="spacing" textLength="7" x="88.5" y="147.5615">2</text><text fill="#000000" font-family="sans-serif" font-size="13" lengthAdjust="spacing" textLength="138" x="99.5" y="147.5615">requests job interview id</text><polygon fill="#181818" points="298.5,180.1152,308.5,184.1152,298.5,188.1152,302.5,184.1152" style="stroke:#181818;stroke-width:1.0;"/><line style="stroke:#181818;stroke-width:1.0;" x1="71.5" x2="304.5" y1="184.1152" y2="184.1152"/><text fill="#000000" font-family="sans-serif" font-size="13" font-weight="bold" lengthAdjust="spacing" textLength="7" x="78.5" y="178.8525">3</text><text fill="#000000" font-family="sans-serif" font-size="13" lengthAdjust="spacing" textLength="53" x="89.5" y="178.8525">inserts id</text><polygon fill="#181818" points="590.5,211.4063,600.5,215.4063,590.5,219.4063,594.5,215.4063" style="stroke:#181818;stroke-width:1.0;"/><line style="stroke:#181818;stroke-width:1.0;" x1="320.5" x2="596.5" y1="215.4063" y2="215.4063"/><text fill="#000000" font-family="sans-serif" font-size="13" font-weight="bold" lengthAdjust="spacing" textLength="7" x="327.5" y="210.1436">4</text><text fill="#000000" font-family="sans-serif" font-size="13" lengthAdjust="spacing" textLength="183" x="338.5" y="210.1436">findInterviewByID(jobInterviewID)</text><polygon fill="#181818" points="786.5,242.6973,796.5,246.6973,786.5,250.6973,790.5,246.6973" style="stroke:#181818;stroke-width:1.0;"/><line style="stroke:#181818;stroke-width:1.0;" x1="612.5" x2="792.5" y1="246.6973" y2="246.6973"/><text fill="#000000" font-family="sans-serif" font-size="13" font-weight="bold" lengthAdjust="spacing" textLength="7" x="619.5" y="241.4346">5</text><text fill="#000000" font-family="sans-serif" font-size="13" lengthAdjust="spacing" textLength="138" x="630.5" y="241.4346">ofIdentity(jobInterviewID)</text><polygon fill="#181818" points="623.5,273.9883,613.5,277.9883,623.5,281.9883,619.5,277.9883" style="stroke:#181818;stroke-width:1.0;"/><line style="stroke:#181818;stroke-width:1.0;stroke-dasharray:2.0,2.0;" x1="617.5" x2="802.5" y1="277.9883" y2="277.9883"/><text fill="#000000" font-family="sans-serif" font-size="13" font-weight="bold" lengthAdjust="spacing" textLength="7" x="629.5" y="272.7256">6</text><text fill="#000000" font-family="sans-serif" font-size="13" lengthAdjust="spacing" textLength="66" x="640.5" y="272.7256">jobInterview</text><polygon fill="#181818" points="331.5,305.2793,321.5,309.2793,331.5,313.2793,327.5,309.2793" style="stroke:#181818;stroke-width:1.0;"/><line style="stroke:#181818;stroke-width:1.0;stroke-dasharray:2.0,2.0;" x1="325.5" x2="606.5" y1="309.2793" y2="309.2793"/><text fill="#000000" font-family="sans-serif" font-size="13" font-weight="bold" lengthAdjust="spacing" textLength="7" x="337.5" y="304.0166">7</text><text fill="#000000" font-family="sans-serif" font-size="13" lengthAdjust="spacing" textLength="66" x="348.5" y="304.0166">jobInterview</text><polygon fill="#181818" points="82.5,336.5703,72.5,340.5703,82.5,344.5703,78.5,340.5703" style="stroke:#181818;stroke-width:1.0;"/><line style="stroke:#181818;stroke-width:1.0;stroke-dasharray:2.0,2.0;" x1="76.5" x2="314.5" y1="340.5703" y2="340.5703"/><text fill="#000000" font-family="sans-serif" font-size="13" font-weight="bold" lengthAdjust="spacing" textLength="7" x="88.5" y="335.3076">8</text><text fill="#000000" font-family="sans-serif" font-size="13" lengthAdjust="spacing" textLength="99" x="99.5" y="335.3076">requests file path</text><polygon fill="#181818" points="298.5,367.8613,308.5,371.8613,298.5,375.8613,302.5,371.8613" style="stroke:#181818;stroke-width:1.0;"/><line style="stroke:#181818;stroke-width:1.0;" x1="71.5" x2="304.5" y1="371.8613" y2="371.8613"/><text fill="#000000" font-family="sans-serif" font-size="13" font-weight="bold" lengthAdjust="spacing" textLength="7" x="78.5" y="366.5986">9</text><text fill="#000000" font-family="sans-serif" font-size="13" lengthAdjust="spacing" textLength="88" x="89.5" y="366.5986">inserts file path</text><polygon fill="#181818" points="590.5,399.1523,600.5,403.1523,590.5,407.1523,594.5,403.1523" style="stroke:#181818;stroke-width:1.0;"/><line style="stroke:#181818;stroke-width:1.0;" x1="320.5" x2="596.5" y1="403.1523" y2="403.1523"/><text fill="#000000" font-family="sans-serif" font-size="13" font-weight="bold" lengthAdjust="spacing" textLength="14" x="327.5" y="397.8896">10</text><text fill="#000000" font-family="sans-serif" font-size="13" lengthAdjust="spacing" textLength="79" x="345.5" y="397.8896">readFile(path)</text><polygon fill="#181818" points="331.5,430.4434,321.5,434.4434,331.5,438.4434,327.5,434.4434" style="stroke:#181818;stroke-width:1.0;"/><line style="stroke:#181818;stroke-width:1.0;stroke-dasharray:2.0,2.0;" x1="325.5" x2="606.5" y1="434.4434" y2="434.4434"/><text fill="#000000" font-family="sans-serif" font-size="13" font-weight="bold" lengthAdjust="spacing" textLength="14" x="337.5" y="429.1807">11</text><text fill="#000000" font-family="sans-serif" font-size="13" lengthAdjust="spacing" textLength="60" x="355.5" y="429.1807">responses</text><polygon fill="#181818" points="590.5,461.7344,600.5,465.7344,590.5,469.7344,594.5,465.7344" style="stroke:#181818;stroke-width:1.0;"/><line style="stroke:#181818;stroke-width:1.0;" x1="320.5" x2="596.5" y1="465.7344" y2="465.7344"/><text fill="#000000" font-family="sans-serif" font-size="13" font-weight="bold" lengthAdjust="spacing" textLength="14" x="327.5" y="460.4717">12</text><text fill="#000000" font-family="sans-serif" font-size="13" lengthAdjust="spacing" textLength="245" x="345.5" y="460.4717">uploadResponses(responses, jobInterview)</text><polygon fill="#181818" points="786.5,493.0254,796.5,497.0254,786.5,501.0254,790.5,497.0254" style="stroke:#181818;stroke-width:1.0;"/><line style="stroke:#181818;stroke-width:1.0;" x1="612.5" x2="792.5" y1="497.0254" y2="497.0254"/><text fill="#000000" font-family="sans-serif" font-size="13" font-weight="bold" lengthAdjust="spacing" textLength="14" x="619.5" y="491.7627">13</text><text fill="#000000" font-family="sans-serif" font-size="13" lengthAdjust="spacing" textLength="149" x="637.5" y="491.7627">save(updatedJobInterview)</text><polygon fill="#181818" points="623.5,524.3164,613.5,528.3164,623.5,532.3164,619.5,528.3164" style="stroke:#181818;stroke-width:1.0;"/><line style="stroke:#181818;stroke-width:1.0;stroke-dasharray:2.0,2.0;" x1="617.5" x2="802.5" y1="528.3164" y2="528.3164"/><text fill="#000000" font-family="sans-serif" font-size="13" font-weight="bold" lengthAdjust="spacing" textLength="14" x="629.5" y="523.0537">14</text><text fill="#000000" font-family="sans-serif" font-size="13" lengthAdjust="spacing" textLength="119" x="647.5" y="523.0537">successful operation</text><polygon fill="#181818" points="331.5,555.6074,321.5,559.6074,331.5,563.6074,327.5,559.6074" style="stroke:#181818;stroke-width:1.0;"/><line style="stroke:#181818;stroke-width:1.0;stroke-dasharray:2.0,2.0;" x1="325.5" x2="606.5" y1="559.6074" y2="559.6074"/><text fill="#000000" font-family="sans-serif" font-size="13" font-weight="bold" lengthAdjust="spacing" textLength="14" x="337.5" y="554.3447">15</text><text fill="#000000" font-family="sans-serif" font-size="13" lengthAdjust="spacing" textLength="119" x="355.5" y="554.3447">successful operation</text><polygon fill="#181818" points="77.5,586.8984,67.5,590.8984,77.5,594.8984,73.5,590.8984" style="stroke:#181818;stroke-width:1.0;"/><line style="stroke:#181818;stroke-width:1.0;stroke-dasharray:2.0,2.0;" x1="71.5" x2="314.5" y1="590.8984" y2="590.8984"/><text fill="#000000" font-family="sans-serif" font-size="13" font-weight="bold" lengthAdjust="spacing" textLength="14" x="83.5" y="585.6357">16</text><text fill="#000000" font-family="sans-serif" font-size="13" lengthAdjust="spacing" textLength="147" x="101.5" y="585.6357">shows success message</text><!--SRC=[lLNBRi8m4Bpp5NjCfV834U9GKALKwWM93zZ4cs8QRDThW_ZxEca92IG1LGq-HF5hPjOxQwDtMlbTIdOomSnf2mlFJk_8lgF2ZtBOe7KoamQLWxKfD8eLiT6AYTS9p6R64fDowAHMy_dGyeLMpkgY81ksPNKdR9e8T9WY4xpfD56Ex5xIOKL6imoYZc6zhJlb-g1Lxj7HjLm8xM8GflCEvJ4WVp8u3RwQWmoLaA84jQTb5LhDTONnmrQsQ_Z0UIaZ3i1VdjWnR7KAyXGdI5412Rf5TMTWClpPmFAB- -S0-lCNGowLg3FrSaoMqRQHkcJvL4FtqP_XpZ8wf3HOWwGUVyIWyqG46qftx1NI4jCDr5PIjXx2wOtZQMfeOJQIV8-4WSFeINudSx-rkhBGOOPXE-Uo833eDkFuk0q_YfqjeNWDD559CuftUs9itpN_aglXI7rxBge5FBUiy-ZwPTnJv4rv_ugtJXsFB5_sMKRCkIz06xBLu_ROCXvKC4uvyqOV-4GCk_094tTKT6FsyZd-1W00]--></g></svg>