<?xml version="1.0" encoding="us-ascii" standalone="no"?><svg xmlns="http://www.w3.org/2000/svg" xmlns:xlink="http://www.w3.org/1999/xlink" contentStyleType="text/css" height="414px" preserveAspectRatio="none" style="width:532px;height:414px;background:#FFFFFF;" version="1.1" viewBox="0 0 532 414" width="532px" zoomAndPan="magnify"><defs/><g><text fill="#000000" font-family="sans-serif" font-size="14" font-weight="bold" lengthAdjust="spacing" textLength="504" x="10" y="30.1074">System Sequence Diagram (SSD) - Uploading a Text File with Responses</text><rect fill="#FFFFFF" height="179.7461" style="stroke:#181818;stroke-width:1.0;" width="10" x="106.75" y="133.2422"/><rect fill="#FFFFFF" height="31.291" style="stroke:#181818;stroke-width:1.0;" width="10" x="439.75" y="156.5332"/><rect fill="#FFFFFF" height="31.291" style="stroke:#181818;stroke-width:1.0;" width="10" x="439.75" y="219.1152"/><rect fill="#FFFFFF" height="31.291" style="stroke:#181818;stroke-width:1.0;" width="10" x="439.75" y="281.6973"/><line style="stroke:#181818;stroke-width:0.5;stroke-dasharray:5.0,5.0;" x1="111.25" x2="111.25" y1="123.2422" y2="330.9883"/><line style="stroke:#181818;stroke-width:0.5;stroke-dasharray:5.0,5.0;" x1="444.75" x2="444.75" y1="123.2422" y2="330.9883"/><text fill="#000000" font-family="sans-serif" font-size="14" lengthAdjust="spacing" textLength="121" x="48.25" y="119.7285">Customer Manager</text><ellipse cx="111.75" cy="53.1211" fill="#E3E3E3" rx="8" ry="8" style="stroke:#181818;stroke-width:0.5;"/><path d="M111.75,61.1211 L111.75,88.1211 M98.75,69.1211 L124.75,69.1211 M111.75,88.1211 L98.75,103.1211 M111.75,88.1211 L124.75,103.1211 " fill="none" style="stroke:#181818;stroke-width:0.5;"/><text fill="#000000" font-family="sans-serif" font-size="14" lengthAdjust="spacing" textLength="121" x="48.25" y="345.0957">Customer Manager</text><ellipse cx="111.75" cy="357.1094" fill="#E3E3E3" rx="8" ry="8" style="stroke:#181818;stroke-width:0.5;"/><path d="M111.75,365.1094 L111.75,392.1094 M98.75,373.1094 L124.75,373.1094 M111.75,392.1094 L98.75,407.1094 M111.75,392.1094 L124.75,407.1094 " fill="none" style="stroke:#181818;stroke-width:0.5;"/><rect fill="#E3E3E3" height="32.6211" rx="2.5" ry="2.5" style="stroke:#181818;stroke-width:0.5;" width="64" x="412.75" y="89.6211"/><text fill="#000000" font-family="sans-serif" font-size="14" lengthAdjust="spacing" textLength="50" x="419.75" y="111.7285">:System</text><rect fill="#E3E3E3" height="32.6211" rx="2.5" ry="2.5" style="stroke:#181818;stroke-width:0.5;" width="64" x="412.75" y="329.9883"/><text fill="#000000" font-family="sans-serif" font-size="14" lengthAdjust="spacing" textLength="50" x="419.75" y="352.0957">:System</text><rect fill="#FFFFFF" height="179.7461" style="stroke:#181818;stroke-width:1.0;" width="10" x="106.75" y="133.2422"/><rect fill="#FFFFFF" height="31.291" style="stroke:#181818;stroke-width:1.0;" width="10" x="439.75" y="156.5332"/><rect fill="#FFFFFF" height="31.291" style="stroke:#181818;stroke-width:1.0;" width="10" x="439.75" y="219.1152"/><rect fill="#FFFFFF" height="31.291" style="stroke:#181818;stroke-width:1.0;" width="10" x="439.75" y="281.6973"/><polygon fill="#181818" points="427.75,152.5332,437.75,156.5332,427.75,160.5332,431.75,156.5332" style="stroke:#181818;stroke-width:1.0;"/><line style="stroke:#181818;stroke-width:1.0;" x1="116.75" x2="433.75" y1="156.5332" y2="156.5332"/><text fill="#000000" font-family="sans-serif" font-size="13" font-weight="bold" lengthAdjust="spacing" textLength="7" x="123.75" y="151.2705">1</text><text fill="#000000" font-family="sans-serif" font-size="13" lengthAdjust="spacing" textLength="293" x="134.75" y="151.2705">asks to upload a text file with candidate responses</text><polygon fill="#181818" points="127.75,183.8242,117.75,187.8242,127.75,191.8242,123.75,187.8242" style="stroke:#181818;stroke-width:1.0;"/><line style="stroke:#181818;stroke-width:1.0;stroke-dasharray:2.0,2.0;" x1="121.75" x2="443.75" y1="187.8242" y2="187.8242"/><text fill="#000000" font-family="sans-serif" font-size="13" font-weight="bold" lengthAdjust="spacing" textLength="7" x="133.75" y="182.5615">2</text><text fill="#000000" font-family="sans-serif" font-size="13" lengthAdjust="spacing" textLength="160" x="144.75" y="182.5615">requests the job interview id</text><polygon fill="#181818" points="427.75,215.1152,437.75,219.1152,427.75,223.1152,431.75,219.1152" style="stroke:#181818;stroke-width:1.0;"/><line style="stroke:#181818;stroke-width:1.0;" x1="116.75" x2="433.75" y1="219.1152" y2="219.1152"/><text fill="#000000" font-family="sans-serif" font-size="13" font-weight="bold" lengthAdjust="spacing" textLength="7" x="123.75" y="213.8525">3</text><text fill="#000000" font-family="sans-serif" font-size="13" lengthAdjust="spacing" textLength="157" x="134.75" y="213.8525">provides the job interview id</text><polygon fill="#181818" points="127.75,246.4063,117.75,250.4063,127.75,254.4063,123.75,250.4063" style="stroke:#181818;stroke-width:1.0;"/><line style="stroke:#181818;stroke-width:1.0;stroke-dasharray:2.0,2.0;" x1="121.75" x2="443.75" y1="250.4063" y2="250.4063"/><text fill="#000000" font-family="sans-serif" font-size="13" font-weight="bold" lengthAdjust="spacing" textLength="7" x="133.75" y="245.1436">4</text><text fill="#000000" font-family="sans-serif" font-size="13" lengthAdjust="spacing" textLength="118" x="144.75" y="245.1436">requests the text file</text><polygon fill="#181818" points="427.75,277.6973,437.75,281.6973,427.75,285.6973,431.75,281.6973" style="stroke:#181818;stroke-width:1.0;"/><line style="stroke:#181818;stroke-width:1.0;" x1="116.75" x2="433.75" y1="281.6973" y2="281.6973"/><text fill="#000000" font-family="sans-serif" font-size="13" font-weight="bold" lengthAdjust="spacing" textLength="7" x="123.75" y="276.4346">5</text><text fill="#000000" font-family="sans-serif" font-size="13" lengthAdjust="spacing" textLength="113" x="134.75" y="276.4346">uploads the text file</text><polygon fill="#181818" points="122.75,308.9883,112.75,312.9883,122.75,316.9883,118.75,312.9883" style="stroke:#181818;stroke-width:1.0;"/><line style="stroke:#181818;stroke-width:1.0;stroke-dasharray:2.0,2.0;" x1="116.75" x2="443.75" y1="312.9883" y2="312.9883"/><text fill="#000000" font-family="sans-serif" font-size="13" font-weight="bold" lengthAdjust="spacing" textLength="7" x="128.75" y="307.7256">6</text><text fill="#000000" font-family="sans-serif" font-size="13" lengthAdjust="spacing" textLength="166" x="139.75" y="307.7256">confirms the upload success</text><!--SRC=[bP7FRi8m38VlUGgBqtRW1JXCca2xiSEwFO19JElH9YLsOBpzqXGgfB5_ELd9pv-_9B9ZtsF43hhWWsrYw0Wq9Z8odVHeTrXJfQUM899Lz7Lx7P06NJYohs6BhP0nofgZrKcKEgXedyXRWXLZFSJlgcfr3tDuwzk0RcX3UAKFXIVENKVM1bv8-k25n1XC6dpgDXHpRJL4c2sJQFQCi4QVnU8CK62vVdmssKVPSezUOROO1ShfM1O27r1fZ1l8QwXW_d3HNUJuJa03fEANvNIGsqvo5hrZDq3Yf3c09lPbMDdDwqoUvo5bs28tvZSHpMCQWlUm0VPAyS1q17QbpT4Nt4tPFeO3E_g1T9FpkzLqwN_fZ6zsY_1t3HlybcCtGiwV8CbQ4ldEvMghVEmd]--></g></svg>