<?xml version="1.0" encoding="us-ascii" standalone="no"?><svg xmlns="http://www.w3.org/2000/svg" xmlns:xlink="http://www.w3.org/1999/xlink" contentStyleType="text/css" height="2163px" preserveAspectRatio="none" style="width:2535px;height:2163px;background:#FFFFFF;" version="1.1" viewBox="0 0 2535 2163" width="2535px" zoomAndPan="magnify"><defs/><g><text fill="#000000" font-family="sans-serif" font-size="14" font-weight="bold" lengthAdjust="spacing" textLength="100" x="1210.5" y="25.1074">Domain Model</text><!--cluster Customer Aggregate--><g id="cluster_Customer Aggregate"><rect fill="none" height="123" rx="2.5" ry="2.5" style="stroke:#000000;stroke-width:1.5;" width="550" x="1474.5" y="1245.6211"/><text fill="#000000" font-family="sans-serif" font-size="14" font-weight="bold" lengthAdjust="spacing" textLength="145" x="1677" y="1262.7285">Customer Aggregate</text></g><!--cluster Candidate Aggregate--><g id="cluster_Candidate Aggregate"><rect fill="none" height="175" rx="2.5" ry="2.5" style="stroke:#000000;stroke-width:1.5;" width="463.5" x="1885.5" y="1392.6211"/><text fill="#000000" font-family="sans-serif" font-size="14" font-weight="bold" lengthAdjust="spacing" textLength="148" x="2043.25" y="1409.7285">Candidate Aggregate</text></g><!--cluster Job Requirements Specification Aggregate--><g id="cluster_Job Requirements Specification Aggregate"><rect fill="none" height="123" rx="2.5" ry="2.5" style="stroke:#000000;stroke-width:1.5;" width="447" x="550" y="784.6211"/><text fill="#000000" font-family="sans-serif" font-size="14" font-weight="bold" lengthAdjust="spacing" textLength="301" x="623" y="801.7285">Job Requirements Specification Aggregate</text></g><!--cluster Job Opening Aggregate--><g id="cluster_Job Opening Aggregate"><rect fill="none" height="565" rx="2.5" ry="2.5" style="stroke:#000000;stroke-width:1.5;" width="604.5" x="1038.5" y="482.6211"/><text fill="#000000" font-family="sans-serif" font-size="14" font-weight="bold" lengthAdjust="spacing" textLength="167" x="1257.25" y="499.7285">Job Opening Aggregate</text></g><!--cluster User Aggregate--><g id="cluster_User Aggregate"><rect fill="none" height="331" rx="2.5" ry="2.5" style="stroke:#000000;stroke-width:1.5;" width="316" x="2213" y="1722.6211"/><text fill="#000000" font-family="sans-serif" font-size="14" font-weight="bold" lengthAdjust="spacing" textLength="110" x="2316" y="1739.7285">User Aggregate</text></g><!--cluster JobInterview Aggregate--><g id="cluster_JobInterview Aggregate"><rect fill="none" height="331" rx="2.5" ry="2.5" style="stroke:#000000;stroke-width:1.5;" width="462" x="1879.5" y="532.6211"/><text fill="#000000" font-family="sans-serif" font-size="14" font-weight="bold" lengthAdjust="spacing" textLength="169" x="2026" y="549.7285">JobInterview Aggregate</text></g><!--cluster Process Aggregate--><g id="cluster_Process Aggregate"><rect fill="none" height="350" rx="2.5" ry="2.5" style="stroke:#000000;stroke-width:1.5;" width="794.5" x="1261.5" y="46.6211"/><text fill="#000000" font-family="sans-serif" font-size="14" font-weight="bold" lengthAdjust="spacing" textLength="134" x="1591.75" y="63.7285">Process Aggregate</text></g><!--cluster Application Aggregate--><g id="cluster_Application Aggregate"><rect fill="none" height="331" rx="2.5" ry="2.5" style="stroke:#000000;stroke-width:1.5;" width="896.5" x="1252.5" y="1635.6211"/><text fill="#000000" font-family="sans-serif" font-size="14" font-weight="bold" lengthAdjust="spacing" textLength="155" x="1623.25" y="1652.7285">Application Aggregate</text></g><!--cluster Interview Model Aggregate--><g id="cluster_Interview Model Aggregate"><rect fill="none" height="123" rx="2.5" ry="2.5" style="stroke:#000000;stroke-width:1.5;" width="339" x="844" y="1071.6211"/><text fill="#000000" font-family="sans-serif" font-size="14" font-weight="bold" lengthAdjust="spacing" textLength="191" x="918" y="1088.7285">Interview Model Aggregate</text></g><!--cluster Language Engineer Aggregate--><g id="cluster_Language Engineer Aggregate"><rect fill="none" height="123" rx="2.5" ry="2.5" style="stroke:#000000;stroke-width:1.5;" width="230" x="7" y="1071.6211"/><text fill="#000000" font-family="sans-serif" font-size="14" font-weight="bold" lengthAdjust="spacing" textLength="214" x="15" y="1088.7285">Language Engineer Aggregate</text></g><!--cluster Admin Aggregate--><g id="cluster_Admin Aggregate"><rect fill="none" height="123" rx="2.5" ry="2.5" style="stroke:#000000;stroke-width:1.5;" width="136" x="54" y="1351.6211"/><text fill="#000000" font-family="sans-serif" font-size="14" font-weight="bold" lengthAdjust="spacing" textLength="120" x="62" y="1368.7285">Admin Aggregate</text></g><!--cluster Customer Manager Aggregate--><g id="cluster_Customer Manager Aggregate"><rect fill="none" height="123" rx="2.5" ry="2.5" style="stroke:#000000;stroke-width:1.5;" width="227" x="563.5" y="1351.6211"/><text fill="#000000" font-family="sans-serif" font-size="14" font-weight="bold" lengthAdjust="spacing" textLength="211" x="571.5" y="1368.7285">Customer Manager Aggregate</text></g><!--cluster Operator Aggregate--><g id="cluster_Operator Aggregate"><rect fill="none" height="123" rx="2.5" ry="2.5" style="stroke:#000000;stroke-width:1.5;" width="156" x="845" y="1827.6211"/><text fill="#000000" font-family="sans-serif" font-size="14" font-weight="bold" lengthAdjust="spacing" textLength="140" x="853" y="1844.7285">Operator Aggregate</text></g><!--cluster ANTLR Service Aggregate--><g id="cluster_ANTLR Service Aggregate"><rect fill="none" height="123" rx="2.5" ry="2.5" style="stroke:#000000;stroke-width:1.5;" width="196" x="270" y="907.6211"/><text fill="#000000" font-family="sans-serif" font-size="14" font-weight="bold" lengthAdjust="spacing" textLength="180" x="278" y="924.7285">ANTLR Service Aggregate</text></g><!--cluster Company Aggregate--><g id="cluster_Company Aggregate"><rect fill="none" height="175" rx="2.5" ry="2.5" style="stroke:#000000;stroke-width:1.5;" width="457" x="1888" y="1000.6211"/><text fill="#000000" font-family="sans-serif" font-size="14" font-weight="bold" lengthAdjust="spacing" textLength="141" x="2046" y="1017.7285">Company Aggregate</text></g><!--class Customer--><g id="elem_Customer"><rect codeLine="27" fill="#F0FFFF" height="68.543" id="Customer" rx="2.5" ry="2.5" style="stroke:#000000;stroke-width:0.5;" width="93" x="1490.5" y="1283.1211"/><ellipse cx="1505.5" cy="1313.3926" fill="#ADD1B2" rx="11" ry="11" style="stroke:#181818;stroke-width:1.0;"/><path d="M1504.3594,1314.1895 L1504.3594,1316.6895 L1508.6875,1316.6895 L1508.6875,1315.7676 Q1508.6875,1315.1582 1508.9219,1314.8926 Q1509.1719,1314.627 1509.5469,1314.627 Q1509.9219,1314.627 1510.1563,1314.8926 Q1510.3906,1315.1582 1510.3906,1315.7676 L1510.3906,1318.3926 L1502.3906,1318.3926 Q1501.7656,1318.3926 1501.5,1318.1582 Q1501.25,1317.9238 1501.25,1317.5332 Q1501.25,1317.1582 1501.5156,1316.9238 Q1501.7813,1316.6895 1502.3906,1316.6895 L1502.6563,1316.6895 L1502.6563,1310.0332 L1502.3906,1310.0332 Q1501.7656,1310.0332 1501.5,1309.7988 Q1501.25,1309.5645 1501.25,1309.1738 Q1501.25,1308.7988 1501.5,1308.5645 Q1501.7656,1308.3301 1502.3906,1308.3301 L1510.0156,1308.3301 L1510.0156,1310.9238 Q1510.0156,1311.5332 1509.7813,1311.7988 Q1509.5625,1312.0488 1509.1719,1312.0488 Q1508.7969,1312.0488 1508.5625,1311.7988 Q1508.3281,1311.5332 1508.3281,1310.9238 L1508.3281,1310.0332 L1504.3594,1310.0332 L1504.3594,1312.4863 L1505.8438,1312.4863 Q1505.8438,1311.8301 1505.9688,1311.6426 Q1506.2344,1311.2363 1506.7031,1311.2363 Q1507.0781,1311.2363 1507.3125,1311.502 Q1507.5469,1311.752 1507.5469,1312.3613 L1507.5469,1314.3301 Q1507.5469,1314.877 1507.4219,1315.0645 Q1507.1563,1315.4551 1506.7031,1315.4551 Q1506.2344,1315.4551 1505.9688,1315.0488 Q1505.8438,1314.8613 1505.8438,1314.1895 L1504.3594,1314.1895 Z " fill="#000000"/><text fill="#000000" font-family="sans-serif" font-size="12" font-style="italic" lengthAdjust="spacing" textLength="43" x="1528.5" y="1301.0703">&#171;entity&#187;</text><text fill="#000000" font-family="sans-serif" font-size="12" font-style="italic" lengthAdjust="spacing" textLength="35" x="1532.5" y="1317.0313">&#171;root&#187;</text><text fill="#000000" font-family="sans-serif" font-size="14" lengthAdjust="spacing" textLength="61" x="1519.5" y="1335.1504">Customer</text><line style="stroke:#000000;stroke-width:0.5;" x1="1491.5" x2="1582.5" y1="1343.6641" y2="1343.6641"/></g><!--entity EmailAddress--><g id="elem_EmailAddress"><rect fill="#F0FFDD" height="43.2422" rx="2.5" ry="2.5" style="stroke:#000000;stroke-width:0.5;" width="117" x="1891.5" y="1296.1211"/><text fill="#000000" font-family="sans-serif" font-size="14" font-style="italic" lengthAdjust="spacing" textLength="97" x="1901.5" y="1314.2285">&#171;Value Object&#187;</text><text fill="#000000" font-family="sans-serif" font-size="14" lengthAdjust="spacing" textLength="86" x="1907" y="1332.8496">EmailAddress</text></g><!--class Candidate--><g id="elem_Candidate"><rect codeLine="36" fill="#F0FFFF" height="68.543" id="Candidate" rx="2.5" ry="2.5" style="stroke:#000000;stroke-width:0.5;" width="97" x="1901.5" y="1479.1211"/><ellipse cx="1916.5" cy="1509.3926" fill="#ADD1B2" rx="11" ry="11" style="stroke:#181818;stroke-width:1.0;"/><path d="M1915.3594,1510.1895 L1915.3594,1512.6895 L1919.6875,1512.6895 L1919.6875,1511.7676 Q1919.6875,1511.1582 1919.9219,1510.8926 Q1920.1719,1510.627 1920.5469,1510.627 Q1920.9219,1510.627 1921.1563,1510.8926 Q1921.3906,1511.1582 1921.3906,1511.7676 L1921.3906,1514.3926 L1913.3906,1514.3926 Q1912.7656,1514.3926 1912.5,1514.1582 Q1912.25,1513.9238 1912.25,1513.5332 Q1912.25,1513.1582 1912.5156,1512.9238 Q1912.7813,1512.6895 1913.3906,1512.6895 L1913.6563,1512.6895 L1913.6563,1506.0332 L1913.3906,1506.0332 Q1912.7656,1506.0332 1912.5,1505.7988 Q1912.25,1505.5645 1912.25,1505.1738 Q1912.25,1504.7988 1912.5,1504.5645 Q1912.7656,1504.3301 1913.3906,1504.3301 L1921.0156,1504.3301 L1921.0156,1506.9238 Q1921.0156,1507.5332 1920.7813,1507.7988 Q1920.5625,1508.0488 1920.1719,1508.0488 Q1919.7969,1508.0488 1919.5625,1507.7988 Q1919.3281,1507.5332 1919.3281,1506.9238 L1919.3281,1506.0332 L1915.3594,1506.0332 L1915.3594,1508.4863 L1916.8438,1508.4863 Q1916.8438,1507.8301 1916.9688,1507.6426 Q1917.2344,1507.2363 1917.7031,1507.2363 Q1918.0781,1507.2363 1918.3125,1507.502 Q1918.5469,1507.752 1918.5469,1508.3613 L1918.5469,1510.3301 Q1918.5469,1510.877 1918.4219,1511.0645 Q1918.1563,1511.4551 1917.7031,1511.4551 Q1917.2344,1511.4551 1916.9688,1511.0488 Q1916.8438,1510.8613 1916.8438,1510.1895 L1915.3594,1510.1895 Z " fill="#000000"/><text fill="#000000" font-family="sans-serif" font-size="12" font-style="italic" lengthAdjust="spacing" textLength="43" x="1941.5" y="1497.0703">&#171;entity&#187;</text><text fill="#000000" font-family="sans-serif" font-size="12" font-style="italic" lengthAdjust="spacing" textLength="35" x="1945.5" y="1513.0313">&#171;root&#187;</text><text fill="#000000" font-family="sans-serif" font-size="14" lengthAdjust="spacing" textLength="65" x="1930.5" y="1531.1504">Candidate</text><line style="stroke:#000000;stroke-width:0.5;" x1="1902.5" x2="1997.5" y1="1539.6641" y2="1539.6641"/></g><!--entity Curriculum--><g id="elem_Curriculum"><rect fill="#F0FFDD" height="43.2422" rx="2.5" ry="2.5" style="stroke:#000000;stroke-width:0.5;" width="117" x="2206" y="1508.1211"/><text fill="#000000" font-family="sans-serif" font-size="14" font-style="italic" lengthAdjust="spacing" textLength="97" x="2216" y="1526.2285">&#171;Value Object&#187;</text><text fill="#000000" font-family="sans-serif" font-size="14" lengthAdjust="spacing" textLength="68" x="2230.5" y="1544.8496">Curriculum</text></g><!--entity TelephoneNumber--><g id="elem_TelephoneNumber"><rect fill="#F0FFDD" height="43.2422" rx="2.5" ry="2.5" style="stroke:#000000;stroke-width:0.5;" width="137" x="2196" y="1430.1211"/><text fill="#000000" font-family="sans-serif" font-size="14" font-style="italic" lengthAdjust="spacing" textLength="97" x="2216" y="1448.2285">&#171;Value Object&#187;</text><text fill="#000000" font-family="sans-serif" font-size="14" lengthAdjust="spacing" textLength="117" x="2206" y="1466.8496">TelephoneNumber</text></g><!--class JobRequirementsSpecification--><g id="elem_JobRequirementsSpecification"><rect codeLine="48" fill="#F0FFFF" height="68.543" id="JobRequirementsSpecification" rx="2.5" ry="2.5" style="stroke:#000000;stroke-width:0.5;" width="222" x="566" y="822.1211"/><ellipse cx="581" cy="852.3926" fill="#ADD1B2" rx="11" ry="11" style="stroke:#181818;stroke-width:1.0;"/><path d="M579.8594,853.1895 L579.8594,855.6895 L584.1875,855.6895 L584.1875,854.7676 Q584.1875,854.1582 584.4219,853.8926 Q584.6719,853.627 585.0469,853.627 Q585.4219,853.627 585.6563,853.8926 Q585.8906,854.1582 585.8906,854.7676 L585.8906,857.3926 L577.8906,857.3926 Q577.2656,857.3926 577,857.1582 Q576.75,856.9238 576.75,856.5332 Q576.75,856.1582 577.0156,855.9238 Q577.2813,855.6895 577.8906,855.6895 L578.1563,855.6895 L578.1563,849.0332 L577.8906,849.0332 Q577.2656,849.0332 577,848.7988 Q576.75,848.5645 576.75,848.1738 Q576.75,847.7988 577,847.5645 Q577.2656,847.3301 577.8906,847.3301 L585.5156,847.3301 L585.5156,849.9238 Q585.5156,850.5332 585.2813,850.7988 Q585.0625,851.0488 584.6719,851.0488 Q584.2969,851.0488 584.0625,850.7988 Q583.8281,850.5332 583.8281,849.9238 L583.8281,849.0332 L579.8594,849.0332 L579.8594,851.4863 L581.3438,851.4863 Q581.3438,850.8301 581.4688,850.6426 Q581.7344,850.2363 582.2031,850.2363 Q582.5781,850.2363 582.8125,850.502 Q583.0469,850.752 583.0469,851.3613 L583.0469,853.3301 Q583.0469,853.877 582.9219,854.0645 Q582.6563,854.4551 582.2031,854.4551 Q581.7344,854.4551 581.4688,854.0488 Q581.3438,853.8613 581.3438,853.1895 L579.8594,853.1895 Z " fill="#000000"/><text fill="#000000" font-family="sans-serif" font-size="12" font-style="italic" lengthAdjust="spacing" textLength="43" x="668.5" y="840.0703">&#171;entity&#187;</text><text fill="#000000" font-family="sans-serif" font-size="12" font-style="italic" lengthAdjust="spacing" textLength="35" x="672.5" y="856.0312">&#171;root&#187;</text><text fill="#000000" font-family="sans-serif" font-size="14" lengthAdjust="spacing" textLength="190" x="595" y="874.1504">JobRequirementsSpecification</text><line style="stroke:#000000;stroke-width:0.5;" x1="567" x2="787" y1="882.6641" y2="882.6641"/></g><!--entity Requirements--><g id="elem_Requirements"><rect fill="#F0FFDD" height="43.2422" rx="2.5" ry="2.5" style="stroke:#000000;stroke-width:0.5;" width="117" x="864" y="835.1211"/><text fill="#000000" font-family="sans-serif" font-size="14" font-style="italic" lengthAdjust="spacing" textLength="97" x="874" y="853.2285">&#171;Value Object&#187;</text><text fill="#000000" font-family="sans-serif" font-size="14" lengthAdjust="spacing" textLength="88" x="878.5" y="871.8496">Requirements</text></g><!--class JobOpening--><g id="elem_JobOpening"><rect codeLine="58" fill="#F0FFFF" height="68.543" id="JobOpening" rx="2.5" ry="2.5" style="stroke:#000000;stroke-width:0.5;" width="108" x="1054.5" y="788.1211"/><ellipse cx="1069.5" cy="818.3926" fill="#ADD1B2" rx="11" ry="11" style="stroke:#181818;stroke-width:1.0;"/><path d="M1068.3594,819.1895 L1068.3594,821.6895 L1072.6875,821.6895 L1072.6875,820.7676 Q1072.6875,820.1582 1072.9219,819.8926 Q1073.1719,819.627 1073.5469,819.627 Q1073.9219,819.627 1074.1563,819.8926 Q1074.3906,820.1582 1074.3906,820.7676 L1074.3906,823.3926 L1066.3906,823.3926 Q1065.7656,823.3926 1065.5,823.1582 Q1065.25,822.9238 1065.25,822.5332 Q1065.25,822.1582 1065.5156,821.9238 Q1065.7813,821.6895 1066.3906,821.6895 L1066.6563,821.6895 L1066.6563,815.0332 L1066.3906,815.0332 Q1065.7656,815.0332 1065.5,814.7988 Q1065.25,814.5645 1065.25,814.1738 Q1065.25,813.7988 1065.5,813.5645 Q1065.7656,813.3301 1066.3906,813.3301 L1074.0156,813.3301 L1074.0156,815.9238 Q1074.0156,816.5332 1073.7813,816.7988 Q1073.5625,817.0488 1073.1719,817.0488 Q1072.7969,817.0488 1072.5625,816.7988 Q1072.3281,816.5332 1072.3281,815.9238 L1072.3281,815.0332 L1068.3594,815.0332 L1068.3594,817.4863 L1069.8438,817.4863 Q1069.8438,816.8301 1069.9688,816.6426 Q1070.2344,816.2363 1070.7031,816.2363 Q1071.0781,816.2363 1071.3125,816.502 Q1071.5469,816.752 1071.5469,817.3613 L1071.5469,819.3301 Q1071.5469,819.877 1071.4219,820.0645 Q1071.1563,820.4551 1070.7031,820.4551 Q1070.2344,820.4551 1069.9688,820.0488 Q1069.8438,819.8613 1069.8438,819.1895 L1068.3594,819.1895 Z " fill="#000000"/><text fill="#000000" font-family="sans-serif" font-size="12" font-style="italic" lengthAdjust="spacing" textLength="43" x="1100" y="806.0703">&#171;entity&#187;</text><text fill="#000000" font-family="sans-serif" font-size="12" font-style="italic" lengthAdjust="spacing" textLength="35" x="1104" y="822.0312">&#171;root&#187;</text><text fill="#000000" font-family="sans-serif" font-size="14" lengthAdjust="spacing" textLength="76" x="1083.5" y="840.1504">JobOpening</text><line style="stroke:#000000;stroke-width:0.5;" x1="1055.5" x2="1161.5" y1="848.6641" y2="848.6641"/></g><g id="elem_GMN32"><path d="M1447,921.6211 L1447,939.9511 L1377.6,937.2211 L1447,947.9511 L1447,983.4941 A0,0 0 0 0 1447,983.4941 L1627,983.4941 A0,0 0 0 0 1627,983.4941 L1627,931.6211 L1617,921.6211 L1447,921.6211 A0,0 0 0 0 1447,921.6211 " fill="#FEFFDD" style="stroke:#181818;stroke-width:0.5;"/><path d="M1617,921.6211 L1617,931.6211 L1627,931.6211 L1617,921.6211 " fill="#FEFFDD" style="stroke:#181818;stroke-width:0.5;"/><text fill="#000000" font-family="sans-serif" font-size="13" lengthAdjust="spacing" textLength="159" x="1453" y="940.6494">Can be one of the following:</text><text fill="#000000" font-family="sans-serif" font-size="13" lengthAdjust="spacing" textLength="53" x="1453" y="957.9404">- full-time</text><text fill="#000000" font-family="sans-serif" font-size="13" lengthAdjust="spacing" textLength="59" x="1453" y="975.2314">- part-time</text></g><g id="elem_GMN35"><path d="M1447,807.1211 L1447,845.5111 L1377.6,851.7611 L1447,853.5111 L1447,886.2852 A0,0 0 0 0 1447,886.2852 L1627,886.2852 A0,0 0 0 0 1627,886.2852 L1627,817.1211 L1617,807.1211 L1447,807.1211 A0,0 0 0 0 1447,807.1211 " fill="#FEFFDD" style="stroke:#181818;stroke-width:0.5;"/><path d="M1617,807.1211 L1617,817.1211 L1627,817.1211 L1617,807.1211 " fill="#FEFFDD" style="stroke:#181818;stroke-width:0.5;"/><text fill="#000000" font-family="sans-serif" font-size="13" lengthAdjust="spacing" textLength="159" x="1453" y="826.1494">Can be one of the following:</text><text fill="#000000" font-family="sans-serif" font-size="13" lengthAdjust="spacing" textLength="48" x="1453" y="843.4404">- remote</text><text fill="#000000" font-family="sans-serif" font-size="13" lengthAdjust="spacing" textLength="43" x="1453" y="860.7314">- hybrid</text><text fill="#000000" font-family="sans-serif" font-size="13" lengthAdjust="spacing" textLength="43" x="1453" y="878.0225">- onsite</text></g><!--entity JobReference--><g id="elem_JobReference"><rect fill="#F0FFDD" height="43.2422" rx="2.5" ry="2.5" style="stroke:#000000;stroke-width:0.5;" width="117" x="1260.5" y="520.1211"/><text fill="#000000" font-family="sans-serif" font-size="14" font-style="italic" lengthAdjust="spacing" textLength="97" x="1270.5" y="538.2285">&#171;Value Object&#187;</text><text fill="#000000" font-family="sans-serif" font-size="14" lengthAdjust="spacing" textLength="88" x="1275" y="556.8496">JobReference</text></g><!--entity TitleOrFunction--><g id="elem_TitleOrFunction"><rect fill="#F0FFDD" height="43.2422" rx="2.5" ry="2.5" style="stroke:#000000;stroke-width:0.5;" width="118" x="1260" y="988.1211"/><text fill="#000000" font-family="sans-serif" font-size="14" font-style="italic" lengthAdjust="spacing" textLength="97" x="1270.5" y="1006.2285">&#171;Value Object&#187;</text><text fill="#000000" font-family="sans-serif" font-size="14" lengthAdjust="spacing" textLength="98" x="1270" y="1024.8496">TitleOrFunction</text></g><!--entity ContractType--><g id="elem_ContractType"><rect fill="#F0FFDD" height="43.2422" rx="2.5" ry="2.5" style="stroke:#000000;stroke-width:0.5;" width="117" x="1260.5" y="910.1211"/><text fill="#000000" font-family="sans-serif" font-size="14" font-style="italic" lengthAdjust="spacing" textLength="97" x="1270.5" y="928.2285">&#171;Value Object&#187;</text><text fill="#000000" font-family="sans-serif" font-size="14" lengthAdjust="spacing" textLength="86" x="1276" y="946.8496">ContractType</text></g><!--entity Mode--><g id="elem_Mode"><rect fill="#F0FFDD" height="43.2422" rx="2.5" ry="2.5" style="stroke:#000000;stroke-width:0.5;" width="117" x="1260.5" y="832.1211"/><text fill="#000000" font-family="sans-serif" font-size="14" font-style="italic" lengthAdjust="spacing" textLength="97" x="1270.5" y="850.2285">&#171;Value Object&#187;</text><text fill="#000000" font-family="sans-serif" font-size="14" lengthAdjust="spacing" textLength="35" x="1301.5" y="868.8496">Mode</text></g><!--entity Address--><g id="elem_Address"><rect fill="#F0FFDD" height="43.2422" rx="2.5" ry="2.5" style="stroke:#000000;stroke-width:0.5;" width="117" x="1260.5" y="754.1211"/><text fill="#000000" font-family="sans-serif" font-size="14" font-style="italic" lengthAdjust="spacing" textLength="97" x="1270.5" y="772.2285">&#171;Value Object&#187;</text><text fill="#000000" font-family="sans-serif" font-size="14" lengthAdjust="spacing" textLength="52" x="1293" y="790.8496">Address</text></g><!--entity VacanciesNumber--><g id="elem_VacanciesNumber"><rect fill="#F0FFDD" height="43.2422" rx="2.5" ry="2.5" style="stroke:#000000;stroke-width:0.5;" width="134" x="1252" y="676.1211"/><text fill="#000000" font-family="sans-serif" font-size="14" font-style="italic" lengthAdjust="spacing" textLength="97" x="1270.5" y="694.2285">&#171;Value Object&#187;</text><text fill="#000000" font-family="sans-serif" font-size="14" lengthAdjust="spacing" textLength="114" x="1262" y="712.8496">VacanciesNumber</text></g><!--entity Description--><g id="elem_Description"><rect fill="#F0FFDD" height="43.2422" rx="2.5" ry="2.5" style="stroke:#000000;stroke-width:0.5;" width="117" x="1260.5" y="598.1211"/><text fill="#000000" font-family="sans-serif" font-size="14" font-style="italic" lengthAdjust="spacing" textLength="97" x="1270.5" y="616.2285">&#171;Value Object&#187;</text><text fill="#000000" font-family="sans-serif" font-size="14" lengthAdjust="spacing" textLength="71" x="1283.5" y="634.8496">Description</text></g><!--class User--><g id="elem_User"><rect codeLine="99" fill="#F0FFFF" height="68.543" id="User" rx="2.5" ry="2.5" style="stroke:#000000;stroke-width:0.5;" width="71" x="2229" y="1882.1211"/><ellipse cx="2244" cy="1912.3926" fill="#ADD1B2" rx="11" ry="11" style="stroke:#181818;stroke-width:1.0;"/><path d="M2242.8594,1913.1895 L2242.8594,1915.6895 L2247.1875,1915.6895 L2247.1875,1914.7676 Q2247.1875,1914.1582 2247.4219,1913.8926 Q2247.6719,1913.627 2248.0469,1913.627 Q2248.4219,1913.627 2248.6563,1913.8926 Q2248.8906,1914.1582 2248.8906,1914.7676 L2248.8906,1917.3926 L2240.8906,1917.3926 Q2240.2656,1917.3926 2240,1917.1582 Q2239.75,1916.9238 2239.75,1916.5332 Q2239.75,1916.1582 2240.0156,1915.9238 Q2240.2813,1915.6895 2240.8906,1915.6895 L2241.1563,1915.6895 L2241.1563,1909.0332 L2240.8906,1909.0332 Q2240.2656,1909.0332 2240,1908.7988 Q2239.75,1908.5645 2239.75,1908.1738 Q2239.75,1907.7988 2240,1907.5645 Q2240.2656,1907.3301 2240.8906,1907.3301 L2248.5156,1907.3301 L2248.5156,1909.9238 Q2248.5156,1910.5332 2248.2813,1910.7988 Q2248.0625,1911.0488 2247.6719,1911.0488 Q2247.2969,1911.0488 2247.0625,1910.7988 Q2246.8281,1910.5332 2246.8281,1909.9238 L2246.8281,1909.0332 L2242.8594,1909.0332 L2242.8594,1911.4863 L2244.3438,1911.4863 Q2244.3438,1910.8301 2244.4688,1910.6426 Q2244.7344,1910.2363 2245.2031,1910.2363 Q2245.5781,1910.2363 2245.8125,1910.502 Q2246.0469,1910.752 2246.0469,1911.3613 L2246.0469,1913.3301 Q2246.0469,1913.877 2245.9219,1914.0645 Q2245.6563,1914.4551 2245.2031,1914.4551 Q2244.7344,1914.4551 2244.4688,1914.0488 Q2244.3438,1913.8613 2244.3438,1913.1895 L2242.8594,1913.1895 Z " fill="#000000"/><text fill="#000000" font-family="sans-serif" font-size="12" font-style="italic" lengthAdjust="spacing" textLength="43" x="2256" y="1900.0703">&#171;entity&#187;</text><text fill="#000000" font-family="sans-serif" font-size="12" font-style="italic" lengthAdjust="spacing" textLength="35" x="2260" y="1916.0313">&#171;root&#187;</text><text fill="#000000" font-family="sans-serif" font-size="14" lengthAdjust="spacing" textLength="29" x="2263" y="1934.1504">User</text><line style="stroke:#000000;stroke-width:0.5;" x1="2230" x2="2299" y1="1942.6641" y2="1942.6641"/></g><!--entity UserEmail--><g id="elem_UserEmail"><rect fill="#F0FFDD" height="43.2422" rx="2.5" ry="2.5" style="stroke:#000000;stroke-width:0.5;" width="117" x="2396" y="1994.1211"/><text fill="#000000" font-family="sans-serif" font-size="14" font-style="italic" lengthAdjust="spacing" textLength="97" x="2406" y="2012.2285">&#171;Value Object&#187;</text><text fill="#000000" font-family="sans-serif" font-size="14" lengthAdjust="spacing" textLength="63" x="2423" y="2030.8496">UserEmail</text></g><!--entity UserName--><g id="elem_UserName"><rect fill="#F0FFDD" height="43.2422" rx="2.5" ry="2.5" style="stroke:#000000;stroke-width:0.5;" width="117" x="2396" y="1916.1211"/><text fill="#000000" font-family="sans-serif" font-size="14" font-style="italic" lengthAdjust="spacing" textLength="97" x="2406" y="1934.2285">&#171;Value Object&#187;</text><text fill="#000000" font-family="sans-serif" font-size="14" lengthAdjust="spacing" textLength="65" x="2422" y="1952.8496">UserName</text></g><!--entity UserPassword--><g id="elem_UserPassword"><rect fill="#F0FFDD" height="43.2422" rx="2.5" ry="2.5" style="stroke:#000000;stroke-width:0.5;" width="117" x="2396" y="1838.1211"/><text fill="#000000" font-family="sans-serif" font-size="14" font-style="italic" lengthAdjust="spacing" textLength="97" x="2406" y="1856.2285">&#171;Value Object&#187;</text><text fill="#000000" font-family="sans-serif" font-size="14" lengthAdjust="spacing" textLength="90" x="2409.5" y="1874.8496">UserPassword</text></g><!--entity Username--><g id="elem_Username"><rect fill="#F0FFDD" height="43.2422" rx="2.5" ry="2.5" style="stroke:#000000;stroke-width:0.5;" width="117" x="2396" y="1760.1211"/><text fill="#000000" font-family="sans-serif" font-size="14" font-style="italic" lengthAdjust="spacing" textLength="97" x="2406" y="1778.2285">&#171;Value Object&#187;</text><text fill="#000000" font-family="sans-serif" font-size="14" lengthAdjust="spacing" textLength="64" x="2422.5" y="1796.8496">Username</text></g><!--class JobInterview--><g id="elem_JobInterview"><rect codeLine="118" fill="#F0FFFF" height="68.543" id="JobInterview" rx="2.5" ry="2.5" style="stroke:#000000;stroke-width:0.5;" width="109" x="1895.5" y="682.1211"/><ellipse cx="1910.5" cy="712.3926" fill="#ADD1B2" rx="11" ry="11" style="stroke:#181818;stroke-width:1.0;"/><path d="M1909.3594,713.1895 L1909.3594,715.6895 L1913.6875,715.6895 L1913.6875,714.7676 Q1913.6875,714.1582 1913.9219,713.8926 Q1914.1719,713.627 1914.5469,713.627 Q1914.9219,713.627 1915.1563,713.8926 Q1915.3906,714.1582 1915.3906,714.7676 L1915.3906,717.3926 L1907.3906,717.3926 Q1906.7656,717.3926 1906.5,717.1582 Q1906.25,716.9238 1906.25,716.5332 Q1906.25,716.1582 1906.5156,715.9238 Q1906.7813,715.6895 1907.3906,715.6895 L1907.6563,715.6895 L1907.6563,709.0332 L1907.3906,709.0332 Q1906.7656,709.0332 1906.5,708.7988 Q1906.25,708.5645 1906.25,708.1738 Q1906.25,707.7988 1906.5,707.5645 Q1906.7656,707.3301 1907.3906,707.3301 L1915.0156,707.3301 L1915.0156,709.9238 Q1915.0156,710.5332 1914.7813,710.7988 Q1914.5625,711.0488 1914.1719,711.0488 Q1913.7969,711.0488 1913.5625,710.7988 Q1913.3281,710.5332 1913.3281,709.9238 L1913.3281,709.0332 L1909.3594,709.0332 L1909.3594,711.4863 L1910.8438,711.4863 Q1910.8438,710.8301 1910.9688,710.6426 Q1911.2344,710.2363 1911.7031,710.2363 Q1912.0781,710.2363 1912.3125,710.502 Q1912.5469,710.752 1912.5469,711.3613 L1912.5469,713.3301 Q1912.5469,713.877 1912.4219,714.0645 Q1912.1563,714.4551 1911.7031,714.4551 Q1911.2344,714.4551 1910.9688,714.0488 Q1910.8438,713.8613 1910.8438,713.1895 L1909.3594,713.1895 Z " fill="#000000"/><text fill="#000000" font-family="sans-serif" font-size="12" font-style="italic" lengthAdjust="spacing" textLength="43" x="1941.5" y="700.0703">&#171;entity&#187;</text><text fill="#000000" font-family="sans-serif" font-size="12" font-style="italic" lengthAdjust="spacing" textLength="35" x="1945.5" y="716.0312">&#171;root&#187;</text><text fill="#000000" font-family="sans-serif" font-size="14" lengthAdjust="spacing" textLength="77" x="1924.5" y="734.1504">JobInterview</text><line style="stroke:#000000;stroke-width:0.5;" x1="1896.5" x2="2003.5" y1="742.6641" y2="742.6641"/></g><!--entity InterviewResults--><g id="elem_InterviewResults"><rect fill="#F0FFDD" height="43.2422" rx="2.5" ry="2.5" style="stroke:#000000;stroke-width:0.5;" width="122" x="2203.5" y="804.1211"/><text fill="#000000" font-family="sans-serif" font-size="14" font-style="italic" lengthAdjust="spacing" textLength="97" x="2216" y="822.2285">&#171;Value Object&#187;</text><text fill="#000000" font-family="sans-serif" font-size="14" lengthAdjust="spacing" textLength="102" x="2213.5" y="840.8496">InterviewResults</text></g><!--entity Score--><g id="elem_Score"><rect fill="#F0FFDD" height="43.2422" rx="2.5" ry="2.5" style="stroke:#000000;stroke-width:0.5;" width="117" x="2206" y="726.1211"/><text fill="#000000" font-family="sans-serif" font-size="14" font-style="italic" lengthAdjust="spacing" textLength="97" x="2216" y="744.2285">&#171;Value Object&#187;</text><text fill="#000000" font-family="sans-serif" font-size="14" lengthAdjust="spacing" textLength="37" x="2246" y="762.8496">Score</text></g><!--entity InterviewTime--><g id="elem_InterviewTime"><rect fill="#F0FFDD" height="43.2422" rx="2.5" ry="2.5" style="stroke:#000000;stroke-width:0.5;" width="117" x="2206" y="648.1211"/><text fill="#000000" font-family="sans-serif" font-size="14" font-style="italic" lengthAdjust="spacing" textLength="97" x="2216" y="666.2285">&#171;Value Object&#187;</text><text fill="#000000" font-family="sans-serif" font-size="14" lengthAdjust="spacing" textLength="86" x="2221.5" y="684.8496">InterviewTime</text></g><!--entity InterviewDate--><g id="elem_InterviewDate"><rect fill="#F0FFDD" height="43.2422" rx="2.5" ry="2.5" style="stroke:#000000;stroke-width:0.5;" width="117" x="2206" y="570.1211"/><text fill="#000000" font-family="sans-serif" font-size="14" font-style="italic" lengthAdjust="spacing" textLength="97" x="2216" y="588.2285">&#171;Value Object&#187;</text><text fill="#000000" font-family="sans-serif" font-size="14" lengthAdjust="spacing" textLength="85" x="2222" y="606.8496">InterviewDate</text></g><!--class Process--><g id="elem_Process"><rect codeLine="137" fill="#F0FFFF" height="68.543" id="Process" rx="2.5" ry="2.5" style="stroke:#000000;stroke-width:0.5;" width="83" x="1277.5" y="289.1211"/><ellipse cx="1292.5" cy="319.3926" fill="#ADD1B2" rx="11" ry="11" style="stroke:#181818;stroke-width:1.0;"/><path d="M1291.3594,320.1895 L1291.3594,322.6895 L1295.6875,322.6895 L1295.6875,321.7676 Q1295.6875,321.1582 1295.9219,320.8926 Q1296.1719,320.627 1296.5469,320.627 Q1296.9219,320.627 1297.1563,320.8926 Q1297.3906,321.1582 1297.3906,321.7676 L1297.3906,324.3926 L1289.3906,324.3926 Q1288.7656,324.3926 1288.5,324.1582 Q1288.25,323.9238 1288.25,323.5332 Q1288.25,323.1582 1288.5156,322.9238 Q1288.7813,322.6895 1289.3906,322.6895 L1289.6563,322.6895 L1289.6563,316.0332 L1289.3906,316.0332 Q1288.7656,316.0332 1288.5,315.7988 Q1288.25,315.5645 1288.25,315.1738 Q1288.25,314.7988 1288.5,314.5645 Q1288.7656,314.3301 1289.3906,314.3301 L1297.0156,314.3301 L1297.0156,316.9238 Q1297.0156,317.5332 1296.7813,317.7988 Q1296.5625,318.0488 1296.1719,318.0488 Q1295.7969,318.0488 1295.5625,317.7988 Q1295.3281,317.5332 1295.3281,316.9238 L1295.3281,316.0332 L1291.3594,316.0332 L1291.3594,318.4863 L1292.8438,318.4863 Q1292.8438,317.8301 1292.9688,317.6426 Q1293.2344,317.2363 1293.7031,317.2363 Q1294.0781,317.2363 1294.3125,317.502 Q1294.5469,317.752 1294.5469,318.3613 L1294.5469,320.3301 Q1294.5469,320.877 1294.4219,321.0645 Q1294.1563,321.4551 1293.7031,321.4551 Q1293.2344,321.4551 1292.9688,321.0488 Q1292.8438,320.8613 1292.8438,320.1895 L1291.3594,320.1895 Z " fill="#000000"/><text fill="#000000" font-family="sans-serif" font-size="12" font-style="italic" lengthAdjust="spacing" textLength="43" x="1310.5" y="307.0703">&#171;entity&#187;</text><text fill="#000000" font-family="sans-serif" font-size="12" font-style="italic" lengthAdjust="spacing" textLength="35" x="1314.5" y="323.0312">&#171;root&#187;</text><text fill="#000000" font-family="sans-serif" font-size="14" lengthAdjust="spacing" textLength="51" x="1306.5" y="341.1504">Process</text><line style="stroke:#000000;stroke-width:0.5;" x1="1278.5" x2="1359.5" y1="349.6641" y2="349.6641"/></g><g id="elem_GMN64"><path d="M1860,83.6211 L1860,163.1811 L1595.58,195.4611 L1860,171.1811 L1860,231.9492 A0,0 0 0 0 1860,231.9492 L2040,231.9492 A0,0 0 0 0 2040,231.9492 L2040,93.6211 L2030,83.6211 L1860,83.6211 A0,0 0 0 0 1860,83.6211 " fill="#FEFFDD" style="stroke:#181818;stroke-width:0.5;"/><path d="M2030,83.6211 L2030,93.6211 L2040,93.6211 L2030,83.6211 " fill="#FEFFDD" style="stroke:#181818;stroke-width:0.5;"/><text fill="#000000" font-family="sans-serif" font-size="13" lengthAdjust="spacing" textLength="159" x="1866" y="102.6494">Can be one of the following:</text><text fill="#000000" font-family="sans-serif" font-size="13" lengthAdjust="spacing" textLength="121" x="1866" y="119.9404">- ScreeningStartDate</text><text fill="#000000" font-family="sans-serif" font-size="13" lengthAdjust="spacing" textLength="116" x="1866" y="137.2314">- ScreeningEndDate</text><text fill="#000000" font-family="sans-serif" font-size="13" lengthAdjust="spacing" textLength="119" x="1866" y="154.5225">- InterviewsStartDate</text><text fill="#000000" font-family="sans-serif" font-size="13" lengthAdjust="spacing" textLength="114" x="1866" y="171.8135">- InterviewsEndDate</text><text fill="#000000" font-family="sans-serif" font-size="13" lengthAdjust="spacing" textLength="113" x="1866" y="189.1045">- AnalysisStartDate</text><text fill="#000000" font-family="sans-serif" font-size="13" lengthAdjust="spacing" textLength="108" x="1866" y="206.3955">- AnalysisEndDate</text><text fill="#000000" font-family="sans-serif" font-size="13" lengthAdjust="spacing" textLength="72" x="1866" y="223.6865">- ResultDate</text></g><g id="elem_GMN67"><path d="M1860,266.6211 L1860,319.6211 L1595.58,323.6211 L1860,327.6211 L1860,380.3672 A0,0 0 0 0 1860,380.3672 L2040,380.3672 A0,0 0 0 0 2040,380.3672 L2040,276.6211 L2030,266.6211 L1860,266.6211 A0,0 0 0 0 1860,266.6211 " fill="#FEFFDD" style="stroke:#181818;stroke-width:0.5;"/><path d="M2030,266.6211 L2030,276.6211 L2040,276.6211 L2030,266.6211 " fill="#FEFFDD" style="stroke:#181818;stroke-width:0.5;"/><text fill="#000000" font-family="sans-serif" font-size="13" lengthAdjust="spacing" textLength="159" x="1866" y="285.6494">Can be one of the following:</text><text fill="#000000" font-family="sans-serif" font-size="13" lengthAdjust="spacing" textLength="72" x="1866" y="302.9404">- Application</text><text fill="#000000" font-family="sans-serif" font-size="13" lengthAdjust="spacing" textLength="66" x="1866" y="320.2314">- Screening</text><text fill="#000000" font-family="sans-serif" font-size="13" lengthAdjust="spacing" textLength="64" x="1866" y="337.5225">- Interviews</text><text fill="#000000" font-family="sans-serif" font-size="13" lengthAdjust="spacing" textLength="58" x="1866" y="354.8135">- Analysis</text><text fill="#000000" font-family="sans-serif" font-size="13" lengthAdjust="spacing" textLength="45" x="1866" y="372.1045">- Result</text></g><!--entity ProcessState--><g id="elem_ProcessState"><rect fill="#F0FFDD" height="43.2422" rx="2.5" ry="2.5" style="stroke:#000000;stroke-width:0.5;" width="117" x="1478.5" y="302.1211"/><text fill="#000000" font-family="sans-serif" font-size="14" font-style="italic" lengthAdjust="spacing" textLength="97" x="1488.5" y="320.2285">&#171;Value Object&#187;</text><text fill="#000000" font-family="sans-serif" font-size="14" lengthAdjust="spacing" textLength="84" x="1495" y="338.8496">ProcessState</text></g><!--entity ProcessDate--><g id="elem_ProcessDate"><rect fill="#F0FFDD" height="43.2422" rx="2.5" ry="2.5" style="stroke:#000000;stroke-width:0.5;" width="117" x="1478.5" y="180.1211"/><text fill="#000000" font-family="sans-serif" font-size="14" font-style="italic" lengthAdjust="spacing" textLength="97" x="1488.5" y="198.2285">&#171;Value Object&#187;</text><text fill="#000000" font-family="sans-serif" font-size="14" lengthAdjust="spacing" textLength="81" x="1496.5" y="216.8496">ProcessDate</text></g><!--class Application--><g id="elem_Application"><rect codeLine="170" fill="#F0FFFF" height="68.543" id="Application" rx="2.5" ry="2.5" style="stroke:#000000;stroke-width:0.5;" width="101" x="1268.5" y="1702.1211"/><ellipse cx="1283.5" cy="1732.3926" fill="#ADD1B2" rx="11" ry="11" style="stroke:#181818;stroke-width:1.0;"/><path d="M1282.3594,1733.1895 L1282.3594,1735.6895 L1286.6875,1735.6895 L1286.6875,1734.7676 Q1286.6875,1734.1582 1286.9219,1733.8926 Q1287.1719,1733.627 1287.5469,1733.627 Q1287.9219,1733.627 1288.1563,1733.8926 Q1288.3906,1734.1582 1288.3906,1734.7676 L1288.3906,1737.3926 L1280.3906,1737.3926 Q1279.7656,1737.3926 1279.5,1737.1582 Q1279.25,1736.9238 1279.25,1736.5332 Q1279.25,1736.1582 1279.5156,1735.9238 Q1279.7813,1735.6895 1280.3906,1735.6895 L1280.6563,1735.6895 L1280.6563,1729.0332 L1280.3906,1729.0332 Q1279.7656,1729.0332 1279.5,1728.7988 Q1279.25,1728.5645 1279.25,1728.1738 Q1279.25,1727.7988 1279.5,1727.5645 Q1279.7656,1727.3301 1280.3906,1727.3301 L1288.0156,1727.3301 L1288.0156,1729.9238 Q1288.0156,1730.5332 1287.7813,1730.7988 Q1287.5625,1731.0488 1287.1719,1731.0488 Q1286.7969,1731.0488 1286.5625,1730.7988 Q1286.3281,1730.5332 1286.3281,1729.9238 L1286.3281,1729.0332 L1282.3594,1729.0332 L1282.3594,1731.4863 L1283.8438,1731.4863 Q1283.8438,1730.8301 1283.9688,1730.6426 Q1284.2344,1730.2363 1284.7031,1730.2363 Q1285.0781,1730.2363 1285.3125,1730.502 Q1285.5469,1730.752 1285.5469,1731.3613 L1285.5469,1733.3301 Q1285.5469,1733.877 1285.4219,1734.0645 Q1285.1563,1734.4551 1284.7031,1734.4551 Q1284.2344,1734.4551 1283.9688,1734.0488 Q1283.8438,1733.8613 1283.8438,1733.1895 L1282.3594,1733.1895 Z " fill="#000000"/><text fill="#000000" font-family="sans-serif" font-size="12" font-style="italic" lengthAdjust="spacing" textLength="43" x="1310.5" y="1720.0703">&#171;entity&#187;</text><text fill="#000000" font-family="sans-serif" font-size="12" font-style="italic" lengthAdjust="spacing" textLength="35" x="1314.5" y="1736.0313">&#171;root&#187;</text><text fill="#000000" font-family="sans-serif" font-size="14" lengthAdjust="spacing" textLength="69" x="1297.5" y="1754.1504">Application</text><line style="stroke:#000000;stroke-width:0.5;" x1="1269.5" x2="1368.5" y1="1762.6641" y2="1762.6641"/></g><g id="elem_GMN80"><path d="M1860,1723.6211 L1860,1784.7811 L1595.58,1839.5511 L1860,1792.7811 L1860,1820.0762 A0,0 0 0 0 1860,1820.0762 L2040,1820.0762 A0,0 0 0 0 2040,1820.0762 L2040,1733.6211 L2030,1723.6211 L1860,1723.6211 A0,0 0 0 0 1860,1723.6211 " fill="#FEFFDD" style="stroke:#181818;stroke-width:0.5;"/><path d="M2030,1723.6211 L2030,1733.6211 L2040,1733.6211 L2030,1723.6211 " fill="#FEFFDD" style="stroke:#181818;stroke-width:0.5;"/><text fill="#000000" font-family="sans-serif" font-size="13" lengthAdjust="spacing" textLength="159" x="1866" y="1742.6494">Can be one of the following:</text><text fill="#000000" font-family="sans-serif" font-size="13" lengthAdjust="spacing" textLength="65" x="1866" y="1759.9404">- submitted</text><text fill="#000000" font-family="sans-serif" font-size="13" lengthAdjust="spacing" textLength="53" x="1866" y="1777.2314">- pending</text><text fill="#000000" font-family="sans-serif" font-size="13" lengthAdjust="spacing" textLength="61" x="1866" y="1794.5225">- accepted</text><text fill="#000000" font-family="sans-serif" font-size="13" lengthAdjust="spacing" textLength="56" x="1866" y="1811.8135">- declined</text></g><g id="elem_GMN83"><path d="M1767,1854.6211 L1767,1910.1411 L1596.89,1924.9011 L1767,1918.1411 L1767,1951.0762 A0,0 0 0 0 1767,1951.0762 L2133,1951.0762 A0,0 0 0 0 2133,1951.0762 L2133,1864.6211 L2123,1854.6211 L1767,1854.6211 A0,0 0 0 0 1767,1854.6211 " fill="#FEFFDD" style="stroke:#181818;stroke-width:0.5;"/><path d="M2123,1854.6211 L2123,1864.6211 L2133,1864.6211 L2123,1854.6211 " fill="#FEFFDD" style="stroke:#181818;stroke-width:0.5;"/><text fill="#000000" font-family="sans-serif" font-size="13" lengthAdjust="spacing" textLength="159" x="1773" y="1873.6494">Can be one of the following:</text><text fill="#000000" font-family="sans-serif" font-size="13" lengthAdjust="spacing" textLength="224" x="1773" y="1890.9404">- text file with the contents of the email</text><text fill="#000000" font-family="sans-serif" font-size="13" lengthAdjust="spacing" textLength="220" x="1773" y="1908.2314">- file for each file attached to the email</text><text fill="#000000" font-family="sans-serif" font-size="13" lengthAdjust="spacing" textLength="345" x="1773" y="1925.5225">- text file with the contents of each file attached to the email</text><text fill="#000000" font-family="sans-serif" font-size="13" lengthAdjust="spacing" textLength="315" x="1773" y="1942.8135">- text file with the data of the application and candidate</text></g><!--entity ApplicationFiles--><g id="elem_ApplicationFiles"><rect fill="#F0FFDD" height="43.2422" rx="2.5" ry="2.5" style="stroke:#000000;stroke-width:0.5;" width="119" x="1477.5" y="1907.1211"/><text fill="#000000" font-family="sans-serif" font-size="14" font-style="italic" lengthAdjust="spacing" textLength="97" x="1488.5" y="1925.2285">&#171;Value Object&#187;</text><text fill="#000000" font-family="sans-serif" font-size="14" lengthAdjust="spacing" textLength="99" x="1487.5" y="1943.8496">ApplicationFiles</text></g><!--entity Status--><g id="elem_Status"><rect fill="#F0FFDD" height="43.2422" rx="2.5" ry="2.5" style="stroke:#000000;stroke-width:0.5;" width="117" x="1478.5" y="1829.1211"/><text fill="#000000" font-family="sans-serif" font-size="14" font-style="italic" lengthAdjust="spacing" textLength="97" x="1488.5" y="1847.2285">&#171;Value Object&#187;</text><text fill="#000000" font-family="sans-serif" font-size="14" lengthAdjust="spacing" textLength="40" x="1517" y="1865.8496">Status</text></g><!--entity SubmissionDate--><g id="elem_SubmissionDate"><rect fill="#F0FFDD" height="43.2422" rx="2.5" ry="2.5" style="stroke:#000000;stroke-width:0.5;" width="122" x="1476" y="1751.1211"/><text fill="#000000" font-family="sans-serif" font-size="14" font-style="italic" lengthAdjust="spacing" textLength="97" x="1488.5" y="1769.2285">&#171;Value Object&#187;</text><text fill="#000000" font-family="sans-serif" font-size="14" lengthAdjust="spacing" textLength="102" x="1486" y="1787.8496">SubmissionDate</text></g><!--entity Rank--><g id="elem_Rank"><rect fill="#F0FFDD" height="43.2422" rx="2.5" ry="2.5" style="stroke:#000000;stroke-width:0.5;" width="117" x="1478.5" y="1673.1211"/><text fill="#000000" font-family="sans-serif" font-size="14" font-style="italic" lengthAdjust="spacing" textLength="97" x="1488.5" y="1691.2285">&#171;Value Object&#187;</text><text fill="#000000" font-family="sans-serif" font-size="14" lengthAdjust="spacing" textLength="33" x="1520.5" y="1709.8496">Rank</text></g><!--class InterviewModel--><g id="elem_InterviewModel"><rect codeLine="205" fill="#F0FFFF" height="68.543" id="InterviewModel" rx="2.5" ry="2.5" style="stroke:#000000;stroke-width:0.5;" width="125" x="860" y="1109.1211"/><ellipse cx="875" cy="1139.3926" fill="#ADD1B2" rx="11" ry="11" style="stroke:#181818;stroke-width:1.0;"/><path d="M873.8594,1140.1895 L873.8594,1142.6895 L878.1875,1142.6895 L878.1875,1141.7676 Q878.1875,1141.1582 878.4219,1140.8926 Q878.6719,1140.627 879.0469,1140.627 Q879.4219,1140.627 879.6563,1140.8926 Q879.8906,1141.1582 879.8906,1141.7676 L879.8906,1144.3926 L871.8906,1144.3926 Q871.2656,1144.3926 871,1144.1582 Q870.75,1143.9238 870.75,1143.5332 Q870.75,1143.1582 871.0156,1142.9238 Q871.2813,1142.6895 871.8906,1142.6895 L872.1563,1142.6895 L872.1563,1136.0332 L871.8906,1136.0332 Q871.2656,1136.0332 871,1135.7988 Q870.75,1135.5645 870.75,1135.1738 Q870.75,1134.7988 871,1134.5645 Q871.2656,1134.3301 871.8906,1134.3301 L879.5156,1134.3301 L879.5156,1136.9238 Q879.5156,1137.5332 879.2813,1137.7988 Q879.0625,1138.0488 878.6719,1138.0488 Q878.2969,1138.0488 878.0625,1137.7988 Q877.8281,1137.5332 877.8281,1136.9238 L877.8281,1136.0332 L873.8594,1136.0332 L873.8594,1138.4863 L875.3438,1138.4863 Q875.3438,1137.8301 875.4688,1137.6426 Q875.7344,1137.2363 876.2031,1137.2363 Q876.5781,1137.2363 876.8125,1137.502 Q877.0469,1137.752 877.0469,1138.3613 L877.0469,1140.3301 Q877.0469,1140.877 876.9219,1141.0645 Q876.6563,1141.4551 876.2031,1141.4551 Q875.7344,1141.4551 875.4688,1141.0488 Q875.3438,1140.8613 875.3438,1140.1895 L873.8594,1140.1895 Z " fill="#000000"/><text fill="#000000" font-family="sans-serif" font-size="12" font-style="italic" lengthAdjust="spacing" textLength="43" x="914" y="1127.0703">&#171;entity&#187;</text><text fill="#000000" font-family="sans-serif" font-size="12" font-style="italic" lengthAdjust="spacing" textLength="35" x="918" y="1143.0312">&#171;root&#187;</text><text fill="#000000" font-family="sans-serif" font-size="14" lengthAdjust="spacing" textLength="93" x="889" y="1161.1504">InterviewModel</text><line style="stroke:#000000;stroke-width:0.5;" x1="861" x2="984" y1="1169.6641" y2="1169.6641"/></g><!--entity Plugin--><g id="elem_Plugin"><rect fill="#F0FFDD" height="43.2422" rx="2.5" ry="2.5" style="stroke:#000000;stroke-width:0.5;" width="117" x="1050" y="1122.1211"/><text fill="#000000" font-family="sans-serif" font-size="14" font-style="italic" lengthAdjust="spacing" textLength="97" x="1060" y="1140.2285">&#171;Value Object&#187;</text><text fill="#000000" font-family="sans-serif" font-size="14" lengthAdjust="spacing" textLength="39" x="1089" y="1158.8496">Plugin</text></g><!--class LanguageEngineer--><g id="elem_LanguageEngineer"><rect codeLine="215" fill="#F0FFFF" height="68.543" id="LanguageEngineer" rx="2.5" ry="2.5" style="stroke:#000000;stroke-width:0.5;" width="153" x="45" y="1109.1211"/><ellipse cx="60" cy="1139.3926" fill="#ADD1B2" rx="11" ry="11" style="stroke:#181818;stroke-width:1.0;"/><path d="M58.8594,1140.1895 L58.8594,1142.6895 L63.1875,1142.6895 L63.1875,1141.7676 Q63.1875,1141.1582 63.4219,1140.8926 Q63.6719,1140.627 64.0469,1140.627 Q64.4219,1140.627 64.6563,1140.8926 Q64.8906,1141.1582 64.8906,1141.7676 L64.8906,1144.3926 L56.8906,1144.3926 Q56.2656,1144.3926 56,1144.1582 Q55.75,1143.9238 55.75,1143.5332 Q55.75,1143.1582 56.0156,1142.9238 Q56.2813,1142.6895 56.8906,1142.6895 L57.1563,1142.6895 L57.1563,1136.0332 L56.8906,1136.0332 Q56.2656,1136.0332 56,1135.7988 Q55.75,1135.5645 55.75,1135.1738 Q55.75,1134.7988 56,1134.5645 Q56.2656,1134.3301 56.8906,1134.3301 L64.5156,1134.3301 L64.5156,1136.9238 Q64.5156,1137.5332 64.2813,1137.7988 Q64.0625,1138.0488 63.6719,1138.0488 Q63.2969,1138.0488 63.0625,1137.7988 Q62.8281,1137.5332 62.8281,1136.9238 L62.8281,1136.0332 L58.8594,1136.0332 L58.8594,1138.4863 L60.3438,1138.4863 Q60.3438,1137.8301 60.4688,1137.6426 Q60.7344,1137.2363 61.2031,1137.2363 Q61.5781,1137.2363 61.8125,1137.502 Q62.0469,1137.752 62.0469,1138.3613 L62.0469,1140.3301 Q62.0469,1140.877 61.9219,1141.0645 Q61.6563,1141.4551 61.2031,1141.4551 Q60.7344,1141.4551 60.4688,1141.0488 Q60.3438,1140.8613 60.3438,1140.1895 L58.8594,1140.1895 Z " fill="#000000"/><text fill="#000000" font-family="sans-serif" font-size="12" font-style="italic" lengthAdjust="spacing" textLength="43" x="113" y="1127.0703">&#171;entity&#187;</text><text fill="#000000" font-family="sans-serif" font-size="12" font-style="italic" lengthAdjust="spacing" textLength="35" x="117" y="1143.0312">&#171;root&#187;</text><text fill="#000000" font-family="sans-serif" font-size="14" lengthAdjust="spacing" textLength="121" x="74" y="1161.1504">LanguageEngineer</text><line style="stroke:#000000;stroke-width:0.5;" x1="46" x2="197" y1="1169.6641" y2="1169.6641"/></g><!--class Admin--><g id="elem_Admin"><rect codeLine="220" fill="#F0FFFF" height="68.543" id="Admin" rx="2.5" ry="2.5" style="stroke:#000000;stroke-width:0.5;" width="71" x="86" y="1389.1211"/><ellipse cx="101" cy="1419.3926" fill="#ADD1B2" rx="11" ry="11" style="stroke:#181818;stroke-width:1.0;"/><path d="M99.8594,1420.1895 L99.8594,1422.6895 L104.1875,1422.6895 L104.1875,1421.7676 Q104.1875,1421.1582 104.4219,1420.8926 Q104.6719,1420.627 105.0469,1420.627 Q105.4219,1420.627 105.6563,1420.8926 Q105.8906,1421.1582 105.8906,1421.7676 L105.8906,1424.3926 L97.8906,1424.3926 Q97.2656,1424.3926 97,1424.1582 Q96.75,1423.9238 96.75,1423.5332 Q96.75,1423.1582 97.0156,1422.9238 Q97.2813,1422.6895 97.8906,1422.6895 L98.1563,1422.6895 L98.1563,1416.0332 L97.8906,1416.0332 Q97.2656,1416.0332 97,1415.7988 Q96.75,1415.5645 96.75,1415.1738 Q96.75,1414.7988 97,1414.5645 Q97.2656,1414.3301 97.8906,1414.3301 L105.5156,1414.3301 L105.5156,1416.9238 Q105.5156,1417.5332 105.2813,1417.7988 Q105.0625,1418.0488 104.6719,1418.0488 Q104.2969,1418.0488 104.0625,1417.7988 Q103.8281,1417.5332 103.8281,1416.9238 L103.8281,1416.0332 L99.8594,1416.0332 L99.8594,1418.4863 L101.3438,1418.4863 Q101.3438,1417.8301 101.4688,1417.6426 Q101.7344,1417.2363 102.2031,1417.2363 Q102.5781,1417.2363 102.8125,1417.502 Q103.0469,1417.752 103.0469,1418.3613 L103.0469,1420.3301 Q103.0469,1420.877 102.9219,1421.0645 Q102.6563,1421.4551 102.2031,1421.4551 Q101.7344,1421.4551 101.4688,1421.0488 Q101.3438,1420.8613 101.3438,1420.1895 L99.8594,1420.1895 Z " fill="#000000"/><text fill="#000000" font-family="sans-serif" font-size="12" font-style="italic" lengthAdjust="spacing" textLength="43" x="113" y="1407.0703">&#171;entity&#187;</text><text fill="#000000" font-family="sans-serif" font-size="12" font-style="italic" lengthAdjust="spacing" textLength="35" x="117" y="1423.0313">&#171;root&#187;</text><text fill="#000000" font-family="sans-serif" font-size="14" lengthAdjust="spacing" textLength="39" x="115" y="1441.1504">Admin</text><line style="stroke:#000000;stroke-width:0.5;" x1="87" x2="156" y1="1449.6641" y2="1449.6641"/></g><!--class CustomerManager--><g id="elem_CustomerManager"><rect codeLine="225" fill="#F0FFFF" height="68.543" id="CustomerManager" rx="2.5" ry="2.5" style="stroke:#000000;stroke-width:0.5;" width="149" x="602.5" y="1389.1211"/><ellipse cx="617.5" cy="1419.3926" fill="#ADD1B2" rx="11" ry="11" style="stroke:#181818;stroke-width:1.0;"/><path d="M616.3594,1420.1895 L616.3594,1422.6895 L620.6875,1422.6895 L620.6875,1421.7676 Q620.6875,1421.1582 620.9219,1420.8926 Q621.1719,1420.627 621.5469,1420.627 Q621.9219,1420.627 622.1563,1420.8926 Q622.3906,1421.1582 622.3906,1421.7676 L622.3906,1424.3926 L614.3906,1424.3926 Q613.7656,1424.3926 613.5,1424.1582 Q613.25,1423.9238 613.25,1423.5332 Q613.25,1423.1582 613.5156,1422.9238 Q613.7813,1422.6895 614.3906,1422.6895 L614.6563,1422.6895 L614.6563,1416.0332 L614.3906,1416.0332 Q613.7656,1416.0332 613.5,1415.7988 Q613.25,1415.5645 613.25,1415.1738 Q613.25,1414.7988 613.5,1414.5645 Q613.7656,1414.3301 614.3906,1414.3301 L622.0156,1414.3301 L622.0156,1416.9238 Q622.0156,1417.5332 621.7813,1417.7988 Q621.5625,1418.0488 621.1719,1418.0488 Q620.7969,1418.0488 620.5625,1417.7988 Q620.3281,1417.5332 620.3281,1416.9238 L620.3281,1416.0332 L616.3594,1416.0332 L616.3594,1418.4863 L617.8438,1418.4863 Q617.8438,1417.8301 617.9688,1417.6426 Q618.2344,1417.2363 618.7031,1417.2363 Q619.0781,1417.2363 619.3125,1417.502 Q619.5469,1417.752 619.5469,1418.3613 L619.5469,1420.3301 Q619.5469,1420.877 619.4219,1421.0645 Q619.1563,1421.4551 618.7031,1421.4551 Q618.2344,1421.4551 617.9688,1421.0488 Q617.8438,1420.8613 617.8438,1420.1895 L616.3594,1420.1895 Z " fill="#000000"/><text fill="#000000" font-family="sans-serif" font-size="12" font-style="italic" lengthAdjust="spacing" textLength="43" x="668.5" y="1407.0703">&#171;entity&#187;</text><text fill="#000000" font-family="sans-serif" font-size="12" font-style="italic" lengthAdjust="spacing" textLength="35" x="672.5" y="1423.0313">&#171;root&#187;</text><text fill="#000000" font-family="sans-serif" font-size="14" lengthAdjust="spacing" textLength="117" x="631.5" y="1441.1504">CustomerManager</text><line style="stroke:#000000;stroke-width:0.5;" x1="603.5" x2="750.5" y1="1449.6641" y2="1449.6641"/></g><!--class Operator--><g id="elem_Operator"><rect codeLine="230" fill="#F0FFFF" height="68.543" id="Operator" rx="2.5" ry="2.5" style="stroke:#000000;stroke-width:0.5;" width="89" x="878" y="1865.1211"/><ellipse cx="893" cy="1895.3926" fill="#ADD1B2" rx="11" ry="11" style="stroke:#181818;stroke-width:1.0;"/><path d="M891.8594,1896.1895 L891.8594,1898.6895 L896.1875,1898.6895 L896.1875,1897.7676 Q896.1875,1897.1582 896.4219,1896.8926 Q896.6719,1896.627 897.0469,1896.627 Q897.4219,1896.627 897.6563,1896.8926 Q897.8906,1897.1582 897.8906,1897.7676 L897.8906,1900.3926 L889.8906,1900.3926 Q889.2656,1900.3926 889,1900.1582 Q888.75,1899.9238 888.75,1899.5332 Q888.75,1899.1582 889.0156,1898.9238 Q889.2813,1898.6895 889.8906,1898.6895 L890.1563,1898.6895 L890.1563,1892.0332 L889.8906,1892.0332 Q889.2656,1892.0332 889,1891.7988 Q888.75,1891.5645 888.75,1891.1738 Q888.75,1890.7988 889,1890.5645 Q889.2656,1890.3301 889.8906,1890.3301 L897.5156,1890.3301 L897.5156,1892.9238 Q897.5156,1893.5332 897.2813,1893.7988 Q897.0625,1894.0488 896.6719,1894.0488 Q896.2969,1894.0488 896.0625,1893.7988 Q895.8281,1893.5332 895.8281,1892.9238 L895.8281,1892.0332 L891.8594,1892.0332 L891.8594,1894.4863 L893.3438,1894.4863 Q893.3438,1893.8301 893.4688,1893.6426 Q893.7344,1893.2363 894.2031,1893.2363 Q894.5781,1893.2363 894.8125,1893.502 Q895.0469,1893.752 895.0469,1894.3613 L895.0469,1896.3301 Q895.0469,1896.877 894.9219,1897.0645 Q894.6563,1897.4551 894.2031,1897.4551 Q893.7344,1897.4551 893.4688,1897.0488 Q893.3438,1896.8613 893.3438,1896.1895 L891.8594,1896.1895 Z " fill="#000000"/><text fill="#000000" font-family="sans-serif" font-size="12" font-style="italic" lengthAdjust="spacing" textLength="43" x="914" y="1883.0703">&#171;entity&#187;</text><text fill="#000000" font-family="sans-serif" font-size="12" font-style="italic" lengthAdjust="spacing" textLength="35" x="918" y="1899.0313">&#171;root&#187;</text><text fill="#000000" font-family="sans-serif" font-size="14" lengthAdjust="spacing" textLength="57" x="907" y="1917.1504">Operator</text><line style="stroke:#000000;stroke-width:0.5;" x1="879" x2="966" y1="1925.6641" y2="1925.6641"/></g><!--class ANTLR--><g id="elem_ANTLR"><rect codeLine="235" fill="#F0FFFF" height="68.543" id="ANTLR" rx="2.5" ry="2.5" style="stroke:#000000;stroke-width:0.5;" width="77" x="329" y="945.1211"/><ellipse cx="344" cy="975.3926" fill="#ADD1B2" rx="11" ry="11" style="stroke:#181818;stroke-width:1.0;"/><path d="M342.8594,976.1895 L342.8594,978.6895 L347.1875,978.6895 L347.1875,977.7676 Q347.1875,977.1582 347.4219,976.8926 Q347.6719,976.627 348.0469,976.627 Q348.4219,976.627 348.6563,976.8926 Q348.8906,977.1582 348.8906,977.7676 L348.8906,980.3926 L340.8906,980.3926 Q340.2656,980.3926 340,980.1582 Q339.75,979.9238 339.75,979.5332 Q339.75,979.1582 340.0156,978.9238 Q340.2813,978.6895 340.8906,978.6895 L341.1563,978.6895 L341.1563,972.0332 L340.8906,972.0332 Q340.2656,972.0332 340,971.7988 Q339.75,971.5645 339.75,971.1738 Q339.75,970.7988 340,970.5645 Q340.2656,970.3301 340.8906,970.3301 L348.5156,970.3301 L348.5156,972.9238 Q348.5156,973.5332 348.2813,973.7988 Q348.0625,974.0488 347.6719,974.0488 Q347.2969,974.0488 347.0625,973.7988 Q346.8281,973.5332 346.8281,972.9238 L346.8281,972.0332 L342.8594,972.0332 L342.8594,974.4863 L344.3438,974.4863 Q344.3438,973.8301 344.4688,973.6426 Q344.7344,973.2363 345.2031,973.2363 Q345.5781,973.2363 345.8125,973.502 Q346.0469,973.752 346.0469,974.3613 L346.0469,976.3301 Q346.0469,976.877 345.9219,977.0645 Q345.6563,977.4551 345.2031,977.4551 Q344.7344,977.4551 344.4688,977.0488 Q344.3438,976.8613 344.3438,976.1895 L342.8594,976.1895 Z " fill="#000000"/><text fill="#000000" font-family="sans-serif" font-size="12" font-style="italic" lengthAdjust="spacing" textLength="43" x="359" y="963.0703">&#171;entity&#187;</text><text fill="#000000" font-family="sans-serif" font-size="12" font-style="italic" lengthAdjust="spacing" textLength="35" x="363" y="979.0312">&#171;root&#187;</text><text fill="#000000" font-family="sans-serif" font-size="14" lengthAdjust="spacing" textLength="45" x="358" y="997.1504">ANTLR</text><line style="stroke:#000000;stroke-width:0.5;" x1="330" x2="405" y1="1005.6641" y2="1005.6641"/></g><!--class Company--><g id="elem_Company"><rect codeLine="240" fill="#F0FFFF" height="68.543" id="Company" rx="2.5" ry="2.5" style="stroke:#000000;stroke-width:0.5;" width="92" x="1904" y="1089.1211"/><ellipse cx="1919" cy="1119.3926" fill="#ADD1B2" rx="11" ry="11" style="stroke:#181818;stroke-width:1.0;"/><path d="M1917.8594,1120.1895 L1917.8594,1122.6895 L1922.1875,1122.6895 L1922.1875,1121.7676 Q1922.1875,1121.1582 1922.4219,1120.8926 Q1922.6719,1120.627 1923.0469,1120.627 Q1923.4219,1120.627 1923.6563,1120.8926 Q1923.8906,1121.1582 1923.8906,1121.7676 L1923.8906,1124.3926 L1915.8906,1124.3926 Q1915.2656,1124.3926 1915,1124.1582 Q1914.75,1123.9238 1914.75,1123.5332 Q1914.75,1123.1582 1915.0156,1122.9238 Q1915.2813,1122.6895 1915.8906,1122.6895 L1916.1563,1122.6895 L1916.1563,1116.0332 L1915.8906,1116.0332 Q1915.2656,1116.0332 1915,1115.7988 Q1914.75,1115.5645 1914.75,1115.1738 Q1914.75,1114.7988 1915,1114.5645 Q1915.2656,1114.3301 1915.8906,1114.3301 L1923.5156,1114.3301 L1923.5156,1116.9238 Q1923.5156,1117.5332 1923.2813,1117.7988 Q1923.0625,1118.0488 1922.6719,1118.0488 Q1922.2969,1118.0488 1922.0625,1117.7988 Q1921.8281,1117.5332 1921.8281,1116.9238 L1921.8281,1116.0332 L1917.8594,1116.0332 L1917.8594,1118.4863 L1919.3438,1118.4863 Q1919.3438,1117.8301 1919.4688,1117.6426 Q1919.7344,1117.2363 1920.2031,1117.2363 Q1920.5781,1117.2363 1920.8125,1117.502 Q1921.0469,1117.752 1921.0469,1118.3613 L1921.0469,1120.3301 Q1921.0469,1120.877 1920.9219,1121.0645 Q1920.6563,1121.4551 1920.2031,1121.4551 Q1919.7344,1121.4551 1919.4688,1121.0488 Q1919.3438,1120.8613 1919.3438,1120.1895 L1917.8594,1120.1895 Z " fill="#000000"/><text fill="#000000" font-family="sans-serif" font-size="12" font-style="italic" lengthAdjust="spacing" textLength="43" x="1941.5" y="1107.0703">&#171;entity&#187;</text><text fill="#000000" font-family="sans-serif" font-size="12" font-style="italic" lengthAdjust="spacing" textLength="35" x="1945.5" y="1123.0312">&#171;root&#187;</text><text fill="#000000" font-family="sans-serif" font-size="14" lengthAdjust="spacing" textLength="60" x="1933" y="1141.1504">Company</text><line style="stroke:#000000;stroke-width:0.5;" x1="1905" x2="1995" y1="1149.6641" y2="1149.6641"/></g><!--entity CompanyName--><g id="elem_CompanyName"><rect fill="#F0FFDD" height="43.2422" rx="2.5" ry="2.5" style="stroke:#000000;stroke-width:0.5;" width="117" x="2206" y="1116.1211"/><text fill="#000000" font-family="sans-serif" font-size="14" font-style="italic" lengthAdjust="spacing" textLength="97" x="2216" y="1134.2285">&#171;Value Object&#187;</text><text fill="#000000" font-family="sans-serif" font-size="14" lengthAdjust="spacing" textLength="96" x="2216.5" y="1152.8496">CompanyName</text></g><!--entity CompanyNumber--><g id="elem_CompanyNumber"><rect fill="#F0FFDD" height="43.2422" rx="2.5" ry="2.5" style="stroke:#000000;stroke-width:0.5;" width="129" x="2200" y="1038.1211"/><text fill="#000000" font-family="sans-serif" font-size="14" font-style="italic" lengthAdjust="spacing" textLength="97" x="2216" y="1056.2285">&#171;Value Object&#187;</text><text fill="#000000" font-family="sans-serif" font-size="14" lengthAdjust="spacing" textLength="109" x="2210" y="1074.8496">CompanyNumber</text></g><!--link Customer to EmailAddress--><g id="link_Customer_EmailAddress"><path codeLine="32" d="M1583.55,1317.6211 C1658.8,1317.6211 1802.9,1317.6211 1885.39,1317.6211 " fill="none" id="Customer-to-EmailAddress" style="stroke:#808080;stroke-width:1.0;"/><polygon fill="#808080" points="1891.39,1317.6211,1882.39,1313.6211,1886.39,1317.6211,1882.39,1321.6211,1891.39,1317.6211" style="stroke:#808080;stroke-width:1.0;"/></g><!--link Candidate to Curriculum--><g id="link_Candidate_Curriculum"><path codeLine="43" d="M1998.8,1516.0711 C2054.46,1518.9211 2140.3379,1523.3142 2199.8879,1526.3642 " fill="none" id="Candidate-to-Curriculum" style="stroke:#808080;stroke-width:1.0;"/><polygon fill="#808080" points="2205.88,1526.6711,2197.0964,1522.216,2200.8865,1526.4153,2196.6872,1530.2055,2205.88,1526.6711" style="stroke:#808080;stroke-width:1.0;"/></g><!--link Candidate to TelephoneNumber--><g id="link_Candidate_TelephoneNumber"><path codeLine="44" d="M1998.8,1504.1411 C2051.38,1493.7111 2130.3947,1478.0286 2189.8247,1466.2386 " fill="none" id="Candidate-to-TelephoneNumber" style="stroke:#808080;stroke-width:1.0;"/><polygon fill="#808080" points="2195.71,1465.0711,2186.1037,1462.8989,2190.8056,1466.0441,2187.6604,1470.746,2195.71,1465.0711" style="stroke:#808080;stroke-width:1.0;"/></g><!--link JobRequirementsSpecification to Requirements--><g id="link_JobRequirementsSpecification_Requirements"><path codeLine="53" d="M788.35,856.6211 C814.4,856.6211 835.15,856.6211 857.77,856.6211 " fill="none" id="JobRequirementsSpecification-to-Requirements" style="stroke:#808080;stroke-width:1.0;"/><polygon fill="#808080" points="863.77,856.6211,854.77,852.6211,858.77,856.6211,854.77,860.6211,863.77,856.6211" style="stroke:#808080;stroke-width:1.0;"/></g><!--link JobOpening to JobReference--><g id="link_JobOpening_JobReference"><path codeLine="75" d="M1121.61,787.7411 C1140.79,736.7611 1182.46,641.3811 1244.5,580.6211 C1251.31,573.9511 1254.3378,571.1891 1262.7278,566.2191 " fill="none" id="JobOpening-to-JobReference" style="stroke:#808080;stroke-width:1.0;"/><polygon fill="#808080" points="1267.89,563.1611,1258.108,564.3066,1263.5881,565.7094,1262.1853,571.1895,1267.89,563.1611" style="stroke:#808080;stroke-width:1.0;"/></g><!--link JobOpening to TitleOrFunction--><g id="link_JobOpening_TitleOrFunction"><path codeLine="76" d="M1135.34,857.2011 C1160.61,889.3911 1201.49,937.2711 1244.5,970.6211 C1252.72,977.0011 1256.8837,979.9596 1266.1637,985.1096 " fill="none" id="JobOpening-to-TitleOrFunction" style="stroke:#808080;stroke-width:1.0;"/><polygon fill="#808080" points="1271.41,988.0211,1265.4816,980.1564,1267.0381,985.5949,1261.5996,987.1514,1271.41,988.0211" style="stroke:#808080;stroke-width:1.0;"/></g><!--link JobOpening to ContractType--><g id="link_JobOpening_ContractType"><path codeLine="77" d="M1162.65,850.4111 C1198.12,868.9511 1238.7628,890.2014 1271.4728,907.3014 " fill="none" id="JobOpening-to-ContractType" style="stroke:#808080;stroke-width:1.0;"/><polygon fill="#808080" points="1276.79,910.0811,1270.6673,902.3667,1272.359,907.7647,1266.961,909.4563,1276.79,910.0811" style="stroke:#808080;stroke-width:1.0;"/></g><!--link JobOpening to Mode--><g id="link_JobOpening_Mode"><path codeLine="78" d="M1162.65,830.5211 C1192.45,834.9611 1223.7253,839.6083 1254.2453,844.1483 " fill="none" id="JobOpening-to-Mode" style="stroke:#808080;stroke-width:1.0;"/><polygon fill="#808080" points="1260.18,845.0311,1251.8665,839.7504,1255.2344,844.2954,1250.6894,847.6633,1260.18,845.0311" style="stroke:#808080;stroke-width:1.0;"/></g><!--link JobOpening to Address--><g id="link_JobOpening_Address"><path codeLine="79" d="M1162.65,810.6411 C1192.45,803.9211 1223.8069,796.8605 1254.3269,789.9805 " fill="none" id="JobOpening-to-Address" style="stroke:#808080;stroke-width:1.0;"/><polygon fill="#808080" points="1260.18,788.6611,1250.5207,786.7382,1255.3024,789.7606,1252.2799,794.5423,1260.18,788.6611" style="stroke:#808080;stroke-width:1.0;"/></g><!--link JobOpening to VacanciesNumber--><g id="link_JobOpening_VacanciesNumber"><path codeLine="80" d="M1161.8,787.9411 C1186.58,771.8611 1216.77,752.7811 1244.5,736.6211 C1254.61,730.7311 1260.3833,727.4799 1270.7933,721.9399 " fill="none" id="JobOpening-to-VacanciesNumber" style="stroke:#808080;stroke-width:1.0;"/><polygon fill="#808080" points="1276.09,719.1211,1266.2658,719.8182,1271.6761,721.4701,1270.0242,726.8804,1276.09,719.1211" style="stroke:#808080;stroke-width:1.0;"/></g><!--link JobOpening to Description--><g id="link_JobOpening_Description"><path codeLine="81" d="M1132.02,787.8111 C1156.46,752.0511 1198.23,696.4211 1244.5,658.6211 C1252.33,652.2211 1256.141,649.3535 1265.151,644.2835 " fill="none" id="JobOpening-to-Description" style="stroke:#808080;stroke-width:1.0;"/><polygon fill="#808080" points="1270.38,641.3411,1260.5749,642.2687,1266.0225,643.7931,1264.4981,649.2407,1270.38,641.3411" style="stroke:#808080;stroke-width:1.0;"/></g><!--link User to UserEmail--><g id="link_User_UserEmail"><path codeLine="110" d="M2300.42,1935.0111 C2332.17,1951.7311 2373.7314,1973.615 2407.2414,1991.265 " fill="none" id="User-to-UserEmail" style="stroke:#808080;stroke-width:1.0;"/><polygon fill="#808080" points="2412.55,1994.0611,2406.4511,1986.3278,2408.1261,1991.731,2402.723,1993.406,2412.55,1994.0611" style="stroke:#808080;stroke-width:1.0;"/></g><!--link User to UserName--><g id="link_User_UserName"><path codeLine="111" d="M2300.42,1920.5211 C2327.18,1923.5111 2358.717,1927.0358 2389.907,1930.5158 " fill="none" id="User-to-UserName" style="stroke:#808080;stroke-width:1.0;"/><polygon fill="#808080" points="2395.87,1931.1811,2387.369,1926.2078,2390.9008,1930.6267,2386.482,1934.1585,2395.87,1931.1811" style="stroke:#808080;stroke-width:1.0;"/></g><!--link User to Username--><g id="link_User_Username"><path codeLine="112" d="M2300.13,1890.5911 C2326.28,1871.0711 2363.15,1843.8311 2396,1820.6211 C2404.08,1814.9111 2407.9166,1812.2323 2416.1466,1806.6423 " fill="none" id="User-to-Username" style="stroke:#808080;stroke-width:1.0;"/><polygon fill="#808080" points="2421.11,1803.2711,2411.4175,1805.019,2416.9739,1806.0804,2415.9125,1811.6368,2421.11,1803.2711" style="stroke:#808080;stroke-width:1.0;"/></g><!--link User to UserPassword--><g id="link_User_UserPassword"><path codeLine="113" d="M2300.42,1906.0311 C2327.18,1897.9211 2358.9378,1888.2909 2390.1278,1878.8409 " fill="none" id="User-to-UserPassword" style="stroke:#808080;stroke-width:1.0;"/><polygon fill="#808080" points="2395.87,1877.1011,2386.0968,1875.8826,2391.0848,1878.5509,2388.4165,1883.5389,2395.87,1877.1011" style="stroke:#808080;stroke-width:1.0;"/></g><!--link JobInterview to InterviewResults--><g id="link_JobInterview_InterviewResults"><path codeLine="129" d="M2004.72,735.3611 C2059.95,754.6211 2140.125,782.5844 2197.615,802.6444 " fill="none" id="JobInterview-to-InterviewResults" style="stroke:#808080;stroke-width:1.0;"/><polygon fill="#808080" points="2203.28,804.6211,2196.1002,797.8793,2198.5591,802.9738,2193.4646,805.4327,2203.28,804.6211" style="stroke:#808080;stroke-width:1.0;"/></g><!--link JobInterview to Score--><g id="link_JobInterview_Score"><path codeLine="130" d="M2004.72,721.9511 C2060.83,727.5211 2142.5394,735.618 2200.0194,741.328 " fill="none" id="JobInterview-to-Score" style="stroke:#808080;stroke-width:1.0;"/><polygon fill="#808080" points="2205.99,741.9211,2197.4295,737.051,2201.0145,741.4268,2196.6387,745.0118,2205.99,741.9211" style="stroke:#808080;stroke-width:1.0;"/></g><!--link JobInterview to InterviewTime--><g id="link_JobInterview_InterviewTime"><path codeLine="131" d="M2004.72,708.5411 C2060.83,700.1011 2142.5768,687.814 2200.0568,679.164 " fill="none" id="JobInterview-to-InterviewTime" style="stroke:#808080;stroke-width:1.0;"/><polygon fill="#808080" points="2205.99,678.2711,2196.495,675.6549,2201.0457,679.0152,2197.6855,683.5659,2205.99,678.2711" style="stroke:#808080;stroke-width:1.0;"/></g><!--link JobInterview to InterviewDate--><g id="link_JobInterview_InterviewDate"><path codeLine="132" d="M2004.72,695.1311 C2062.05,672.2011 2146.7693,638.3199 2204.1293,615.3699 " fill="none" id="JobInterview-to-InterviewDate" style="stroke:#808080;stroke-width:1.0;"/><polygon fill="#808080" points="2209.7,613.1411,2199.8581,612.7706,2205.0578,614.9985,2202.8299,620.1981,2209.7,613.1411" style="stroke:#808080;stroke-width:1.0;"/></g><!--link Process to ProcessState--><g id="link_Process_ProcessState"><path codeLine="144" d="M1360.63,323.6211 C1393.87,323.6211 1435.29,323.6211 1472.44,323.6211 " fill="none" id="Process-to-ProcessState" style="stroke:#808080;stroke-width:1.0;"/><polygon fill="#808080" points="1478.44,323.6211,1469.44,319.6211,1473.44,323.6211,1469.44,327.6211,1478.44,323.6211" style="stroke:#808080;stroke-width:1.0;"/></g><!--link Process to ProcessDate--><g id="link_Process_ProcessDate"><path codeLine="145" d="M1360.63,300.6711 C1399.98,278.4511 1453.9756,247.9516 1492.5056,226.1916 " fill="none" id="Process-to-ProcessDate" style="stroke:#808080;stroke-width:1.0;"/><polygon fill="#808080" points="1497.73,223.2411,1487.9264,224.1839,1493.3763,225.6999,1491.8604,231.1498,1497.73,223.2411" style="stroke:#808080;stroke-width:1.0;"/></g><!--link Application to ApplicationFiles--><g id="link_Application_ApplicationFiles"><path codeLine="181" d="M1341.78,1771.3311 C1364.54,1805.2611 1403.02,1856.5011 1447,1889.6211 C1456.16,1896.5211 1461.3282,1899.9202 1471.9182,1904.9902 " fill="none" id="Application-to-ApplicationFiles" style="stroke:#808080;stroke-width:1.0;"/><polygon fill="#808080" points="1477.33,1907.5811,1470.9396,1900.0869,1472.8202,1905.422,1467.4851,1907.3026,1477.33,1907.5811" style="stroke:#808080;stroke-width:1.0;"/></g><!--link Application to Status--><g id="link_Application_Status"><path codeLine="182" d="M1369.59,1767.7911 C1392.74,1781.8511 1420.9,1798.2611 1447,1811.6211 C1458.71,1817.6211 1466.0642,1821.1509 1478.2542,1826.5509 " fill="none" id="Application-to-Status" style="stroke:#808080;stroke-width:1.0;"/><polygon fill="#808080" points="1483.74,1828.9811,1477.1313,1821.6786,1479.1685,1826.956,1473.8911,1828.9931,1483.74,1828.9811" style="stroke:#808080;stroke-width:1.0;"/></g><!--link Application to SubmissionDate--><g id="link_Application_SubmissionDate"><path codeLine="183" d="M1369.55,1744.8811 C1401.19,1750.1511 1436.4818,1756.0336 1469.9818,1761.6236 " fill="none" id="Application-to-SubmissionDate" style="stroke:#808080;stroke-width:1.0;"/><polygon fill="#808080" points="1475.9,1762.6111,1467.6811,1757.1843,1470.9682,1761.7881,1466.3644,1765.0752,1475.9,1762.6111" style="stroke:#808080;stroke-width:1.0;"/></g><!--link Application to Rank--><g id="link_Application_Rank"><path codeLine="184" d="M1369.55,1726.9911 C1401.94,1720.6911 1438.4602,1713.5857 1472.3702,1706.9957 " fill="none" id="Application-to-Rank" style="stroke:#808080;stroke-width:1.0;"/><polygon fill="#808080" points="1478.26,1705.8511,1468.6622,1703.6415,1473.3518,1706.8049,1470.1884,1711.4946,1478.26,1705.8511" style="stroke:#808080;stroke-width:1.0;"/></g><!--link InterviewModel to Plugin--><g id="link_InterviewModel_Plugin"><path codeLine="210" d="M985.03,1143.6211 C1005.92,1143.6211 1023.18,1143.6211 1043.77,1143.6211 " fill="none" id="InterviewModel-to-Plugin" style="stroke:#808080;stroke-width:1.0;"/><polygon fill="#808080" points="1049.77,1143.6211,1040.77,1139.6211,1044.77,1143.6211,1040.77,1147.6211,1049.77,1143.6211" style="stroke:#808080;stroke-width:1.0;"/></g><!--link Company to CompanyName--><g id="link_Company_CompanyName"><path codeLine="247" d="M1996.11,1125.6411 C2051.46,1128.1211 2139.416,1132.0626 2199.926,1134.7726 " fill="none" id="Company-to-CompanyName" style="stroke:#808080;stroke-width:1.0;"/><polygon fill="#808080" points="2205.92,1135.0411,2197.108,1130.6424,2200.925,1134.8174,2196.75,1138.6344,2205.92,1135.0411" style="stroke:#808080;stroke-width:1.0;"/></g><!--link Company to CompanyNumber--><g id="link_Company_CompanyNumber"><path codeLine="248" d="M1996.11,1114.3811 C2049.6,1103.4311 2133.2619,1086.2945 2193.8319,1073.8945 " fill="none" id="Company-to-CompanyNumber" style="stroke:#808080;stroke-width:1.0;"/><polygon fill="#808080" points="2199.71,1072.6911,2190.0906,1070.5774,2194.8116,1073.6939,2191.6951,1078.4149,2199.71,1072.6911" style="stroke:#808080;stroke-width:1.0;"/></g><!--reverse link JobOpening to Application--><g id="link_JobOpening_Application"><path codeLine="251" d="M1123.8995,863.2186 C1141.6295,914.2386 1172.14,1006.7811 1191,1092.6211 C1196.49,1117.6111 1194.68,1124.4111 1199,1149.6211 C1235.14,1360.4911 1290.06,1611.5811 1310.22,1702.0211 " fill="none" id="JobOpening-backto-Application" style="stroke:#808080;stroke-width:1.0;"/><polygon fill="#808080" points="1121.93,857.5511,1121.1059,867.3654,1123.5713,862.274,1128.6627,864.7394,1121.93,857.5511" style="stroke:#808080;stroke-width:1.0;"/><text fill="#000000" font-family="sans-serif" font-size="13" lengthAdjust="spacing" textLength="21" x="1200" y="1145.6494">has</text><text fill="#000000" font-family="sans-serif" font-size="13" lengthAdjust="spacing" textLength="7" x="1116.5126" y="878.5607">1</text><text fill="#000000" font-family="sans-serif" font-size="13" lengthAdjust="spacing" textLength="9" x="1294.3073" y="1690.9048">N</text></g><!--link JobOpening to Customer--><g id="link_JobOpening_Customer"><path codeLine="252" d="M1123.91,857.4811 C1145.5,907.2711 1189.65,1000.1811 1244.5,1067.6211 C1318.64,1158.7911 1423.965,1239.4513 1485.445,1283.0313 " fill="none" id="JobOpening-to-Customer" style="stroke:#808080;stroke-width:1.0;"/><polygon fill="#808080" points="1490.34,1286.5011,1485.3108,1278.0331,1486.2609,1283.6096,1480.6844,1284.5597,1490.34,1286.5011" style="stroke:#808080;stroke-width:1.0;"/><text fill="#000000" font-family="sans-serif" font-size="13" lengthAdjust="spacing" textLength="63" x="1287.5" y="1063.6494">associated</text><text fill="#000000" font-family="sans-serif" font-size="13" lengthAdjust="spacing" textLength="9" x="1127.2076" y="878.7529">N</text><text fill="#000000" font-family="sans-serif" font-size="13" lengthAdjust="spacing" textLength="7" x="1475.3458" y="1296.984">1</text></g><!--link JobOpening to Process--><g id="link_JobOpening_Process"><path codeLine="253" d="M1115.5,788.1011 C1129.47,713.8911 1168.87,535.3111 1244.5,404.6211 C1254.11,388.0211 1263.4305,376.2545 1276.2205,362.8345 " fill="none" id="JobOpening-to-Process" style="stroke:#808080;stroke-width:1.0;"/><polygon fill="#808080" points="1280.36,358.4911,1271.2552,362.2465,1276.9104,362.1106,1277.0464,367.7658,1280.36,358.4911" style="stroke:#808080;stroke-width:1.0;"/></g><!--link Application to Candidate--><g id="link_Application_Candidate"><path codeLine="255" d="M1366.97,1701.9911 C1390.16,1686.1411 1419.08,1668.1511 1447,1655.6211 C1606.28,1584.1611 1804.3984,1540.9462 1895.4884,1523.3962 " fill="none" id="Application-to-Candidate" style="stroke:#808080;stroke-width:1.0;"/><polygon fill="#808080" points="1901.38,1522.2611,1891.7858,1520.036,1896.4703,1523.207,1893.2993,1527.8915,1901.38,1522.2611" style="stroke:#808080;stroke-width:1.0;"/><text fill="#000000" font-family="sans-serif" font-size="13" lengthAdjust="spacing" textLength="9" x="1366.2565" y="1690.8691">N</text><text fill="#000000" font-family="sans-serif" font-size="13" lengthAdjust="spacing" textLength="7" x="1886.3991" y="1538.9712">1</text></g><!--link Application to JobInterview--><g id="link_Application_JobInterview"><path codeLine="256" d="M1323.57,1702.0311 C1333.11,1621.2011 1364.31,1415.5211 1447,1266.6211 C1511.58,1150.3311 1561.16,1145.7211 1651,1047.6211 C1749.18,940.4211 1859.8772,816.6397 1913.8772,756.0697 " fill="none" id="Application-to-JobInterview" style="stroke:#808080;stroke-width:1.0;"/><polygon fill="#808080" points="1917.87,751.5911,1908.8951,755.6471,1914.5427,755.3232,1914.8665,760.9708,1917.87,751.5911" style="stroke:#808080;stroke-width:1.0;"/><text fill="#000000" font-family="sans-serif" font-size="13" lengthAdjust="spacing" textLength="7" x="1316.774" y="1690.9167">1</text><text fill="#000000" font-family="sans-serif" font-size="13" lengthAdjust="spacing" textLength="7" x="1905.1915" y="772.6071">1</text></g><!--reverse link JobRequirementsSpecification to JobOpening--><g id="link_JobRequirementsSpecification_JobOpening"><path codeLine="258" d="M794.1679,824.5592 C810.0579,821.1692 820.43,819.5111 836,817.6211 C912.33,808.3411 932.14,815.6711 1009,817.6211 C1023.72,818.0011 1039.67,818.6811 1054.35,819.4311 " fill="none" id="JobRequirementsSpecification-backto-JobOpening" style="stroke:#808080;stroke-width:1.0;"/><polygon fill="#808080" points="788.3,825.8111,797.9365,827.8452,793.19,824.7679,796.2673,820.0213,788.3,825.8111" style="stroke:#808080;stroke-width:1.0;"/><text fill="#000000" font-family="sans-serif" font-size="13" lengthAdjust="spacing" textLength="63" x="891" y="809.6494">associated</text><text fill="#000000" font-family="sans-serif" font-size="13" lengthAdjust="spacing" textLength="7" x="796.0131" y="838.3656">1</text><text fill="#000000" font-family="sans-serif" font-size="13" lengthAdjust="spacing" textLength="9" x="1037.4689" y="834.2232">N</text></g><!--link Admin to Customer--><g id="link_Admin_Customer"><path codeLine="260" d="M157.22,1397.6911 C202.78,1366.3111 286.37,1317.6211 366.5,1317.6211 C366.5,1317.6211 366.5,1317.6211 1320,1317.6211 C1378.88,1317.6211 1440.78,1317.6211 1484.49,1317.6211 " fill="none" id="Admin-to-Customer" style="stroke:#808080;stroke-width:1.0;"/><polygon fill="#808080" points="1490.49,1317.6211,1481.49,1313.6211,1485.49,1317.6211,1481.49,1321.6211,1490.49,1317.6211" style="stroke:#808080;stroke-width:1.0;"/><text fill="#000000" font-family="sans-serif" font-size="13" lengthAdjust="spacing" textLength="53" x="896" y="1313.6494">manages</text><text fill="#000000" font-family="sans-serif" font-size="13" lengthAdjust="spacing" textLength="7" x="164.9414" y="1408.3615">1</text><text fill="#000000" font-family="sans-serif" font-size="13" lengthAdjust="spacing" textLength="9" x="1473.3603" y="1333.0637">N</text></g><!--link Admin to CustomerManager--><g id="link_Admin_CustomerManager"><path codeLine="261" d="M157.12,1423.6211 C245.52,1423.6211 475.07,1423.6211 596.04,1423.6211 " fill="none" id="Admin-to-CustomerManager" style="stroke:#808080;stroke-width:1.0;"/><polygon fill="#808080" points="602.04,1423.6211,593.04,1419.6211,597.04,1423.6211,593.04,1427.6211,602.04,1423.6211" style="stroke:#808080;stroke-width:1.0;"/><text fill="#000000" font-family="sans-serif" font-size="13" lengthAdjust="spacing" textLength="53" x="341" y="1419.6494">manages</text><text fill="#000000" font-family="sans-serif" font-size="13" lengthAdjust="spacing" textLength="7" x="165.1885" y="1439.4797">1</text><text fill="#000000" font-family="sans-serif" font-size="13" lengthAdjust="spacing" textLength="9" x="585.4665" y="1438.4952">N</text></g><!--link CustomerManager to JobOpening--><g id="link_CustomerManager_JobOpening"><path codeLine="263" d="M689.78,1389.0111 C712.15,1326.2311 764.96,1190.9511 836,1092.6211 C898.41,1006.2511 933.9,1002.2211 1009,926.6211 C1031.61,903.8611 1052.3436,882.0151 1071.4236,861.5951 " fill="none" id="CustomerManager-to-JobOpening" style="stroke:#808080;stroke-width:1.0;"/><polygon fill="#808080" points="1075.52,857.2111,1066.4528,861.0563,1072.1064,860.8645,1072.2982,866.5181,1075.52,857.2111" style="stroke:#808080;stroke-width:1.0;"/><text fill="#000000" font-family="sans-serif" font-size="13" lengthAdjust="spacing" textLength="53" x="896" y="922.6494">manages</text><text fill="#000000" font-family="sans-serif" font-size="13" lengthAdjust="spacing" textLength="7" x="684.549" y="1377.8929">1</text><text fill="#000000" font-family="sans-serif" font-size="13" lengthAdjust="spacing" textLength="9" x="1060.0781" y="878.7098">N</text></g><!--link CustomerManager to Customer--><g id="link_CustomerManager_Customer"><path codeLine="264" d="M751.77,1419.4811 C800.04,1417.1211 864.5,1414.6211 921.5,1414.6211 C921.5,1414.6211 921.5,1414.6211 1320,1414.6211 C1383.1,1414.6211 1443.1939,1383.0735 1485.1939,1355.1435 " fill="none" id="CustomerManager-to-Customer" style="stroke:#808080;stroke-width:1.0;"/><polygon fill="#808080" points="1490.19,1351.8211,1480.4808,1353.474,1486.0265,1354.5898,1484.9107,1360.1355,1490.19,1351.8211" style="stroke:#808080;stroke-width:1.0;"/><text fill="#000000" font-family="sans-serif" font-size="13" lengthAdjust="spacing" textLength="50" x="1083.5" y="1410.6494">registers</text><text fill="#000000" font-family="sans-serif" font-size="13" lengthAdjust="spacing" textLength="7" x="759.4747" y="1433.9754">1</text><text fill="#000000" font-family="sans-serif" font-size="13" lengthAdjust="spacing" textLength="9" x="1473.6538" y="1372.1759">N</text></g><!--link Operator to Application--><g id="link_Operator_Application"><path codeLine="266" d="M967.23,1881.5611 C1041.15,1851.0111 1184.8248,1791.6524 1262.6548,1759.4924 " fill="none" id="Operator-to-Application" style="stroke:#808080;stroke-width:1.0;"/><polygon fill="#808080" points="1268.2,1757.2011,1258.3546,1756.9413,1263.579,1759.1105,1261.4097,1764.3349,1268.2,1757.2011" style="stroke:#808080;stroke-width:1.0;"/><text fill="#000000" font-family="sans-serif" font-size="13" lengthAdjust="spacing" textLength="50" x="1083.5" y="1787.6494">registers</text><text fill="#000000" font-family="sans-serif" font-size="13" lengthAdjust="spacing" textLength="7" x="974.9167" y="1894.1254">1</text><text fill="#000000" font-family="sans-serif" font-size="13" lengthAdjust="spacing" textLength="9" x="1251.4234" y="1775.3714">N</text></g><!--link LanguageEngineer to JobRequirementsSpecification--><g id="link_LanguageEngineer_JobRequirementsSpecification"><path codeLine="268" d="M134.83,1109.0311 C154.04,1060.4711 195.9,973.0611 262,928.6211 C351.9,868.1711 470.8109,853.7362 559.8609,852.1762 " fill="none" id="LanguageEngineer-to-JobRequirementsSpecification" style="stroke:#808080;stroke-width:1.0;"/><polygon fill="#808080" points="565.86,852.0711,556.7913,848.2293,560.8608,852.1587,556.9314,856.2281,565.86,852.0711" style="stroke:#808080;stroke-width:1.0;"/><text fill="#000000" font-family="sans-serif" font-size="13" lengthAdjust="spacing" textLength="43" x="346" y="855.6494">creates</text><text fill="#000000" font-family="sans-serif" font-size="13" lengthAdjust="spacing" textLength="7" x="129.7038" y="1097.9167">1</text><text fill="#000000" font-family="sans-serif" font-size="13" lengthAdjust="spacing" textLength="9" x="549.0904" y="866.3899">N</text></g><!--link LanguageEngineer to InterviewModel--><g id="link_LanguageEngineer_InterviewModel"><path codeLine="269" d="M198.03,1143.6211 C355.28,1143.6211 709.22,1143.6211 853.76,1143.6211 " fill="none" id="LanguageEngineer-to-InterviewModel" style="stroke:#808080;stroke-width:1.0;"/><polygon fill="#808080" points="859.76,1143.6211,850.76,1139.6211,854.76,1143.6211,850.76,1147.6211,859.76,1143.6211" style="stroke:#808080;stroke-width:1.0;"/><text fill="#000000" font-family="sans-serif" font-size="13" lengthAdjust="spacing" textLength="43" x="491.5" y="1139.6494">creates</text><text fill="#000000" font-family="sans-serif" font-size="13" lengthAdjust="spacing" textLength="7" x="205.908" y="1158.523">1</text><text fill="#000000" font-family="sans-serif" font-size="13" lengthAdjust="spacing" textLength="9" x="842.9854" y="1158.6755">N</text></g><!--reverse link InterviewModel to JobInterview--><g id="link_InterviewModel_JobInterview"><path codeLine="271" d="M990.2107,1119.8377 C999.6407,1114.0377 1003.08,1109.8511 1009,1100.6211 C1044.84,1044.7511 1002.98,564.0311 1030.5,503.6211 C1049.92,460.9911 1060.65,431.6211 1107.5,431.6211 C1107.5,431.6211 1107.5,431.6211 1538,431.6211 C1711.88,431.6211 1865.21,606.0111 1923.75,681.9611 " fill="none" id="InterviewModel-backto-JobInterview" style="stroke:#808080;stroke-width:1.0;"/><polygon fill="#808080" points="985.1,1122.9811,994.8616,1121.6732,989.3589,1120.3616,990.6705,1114.8589,985.1,1122.9811" style="stroke:#808080;stroke-width:1.0;"/><text fill="#000000" font-family="sans-serif" font-size="13" lengthAdjust="spacing" textLength="28" x="1305" y="427.6494">uses</text><text fill="#000000" font-family="sans-serif" font-size="13" lengthAdjust="spacing" textLength="7" x="993.1559" y="1135.5754">1</text><text fill="#000000" font-family="sans-serif" font-size="13" lengthAdjust="spacing" textLength="9" x="1908.8883" y="670.8333">N</text></g><!--link ANTLR to JobRequirementsSpecification--><g id="link_ANTLR_JobRequirementsSpecification"><path codeLine="273" d="M406.21,964.5411 C451.59,946.3911 523.6592,917.5596 584.0292,893.4096 " fill="none" id="ANTLR-to-JobRequirementsSpecification" style="stroke:#808080;stroke-width:1.0;"/><polygon fill="#808080" points="589.6,891.1811,579.7581,890.81,584.9577,893.0382,582.7295,898.2377,589.6,891.1811" style="stroke:#808080;stroke-width:1.0;"/><text fill="#000000" font-family="sans-serif" font-size="13" lengthAdjust="spacing" textLength="60" x="483" y="909.6494">processes</text></g><!--link ANTLR to InterviewModel--><g id="link_ANTLR_InterviewModel"><path codeLine="274" d="M406.08,990.7711 C499.79,1018.5611 738.8277,1089.445 854.0677,1123.625 " fill="none" id="ANTLR-to-InterviewModel" style="stroke:#808080;stroke-width:1.0;"/><polygon fill="#808080" points="859.82,1125.3311,852.3289,1118.937,855.0264,1123.9093,850.0541,1126.6068,859.82,1125.3311" style="stroke:#808080;stroke-width:1.0;"/><text fill="#000000" font-family="sans-serif" font-size="13" lengthAdjust="spacing" textLength="60" x="647" y="1028.6494">processes</text></g><!--link Admin to User--><g id="link_Admin_User"><path codeLine="276" d="M126.49,1458.4911 C143.95,1602.9211 219.45,2146.6211 366.5,2146.6211 C366.5,2146.6211 366.5,2146.6211 1951,2146.6211 C2044.81,2146.6211 2081.36,2156.1111 2157,2100.6211 C2208.04,2063.1811 2236.5288,1999.0015 2251.0688,1956.9615 " fill="none" id="Admin-to-User" style="stroke:#808080;stroke-width:1.0;"/><polygon fill="#808080" points="2253.03,1951.2911,2246.3079,1958.4893,2251.3957,1956.0165,2253.8685,1961.1042,2253.03,1951.2911" style="stroke:#808080;stroke-width:1.0;"/><text fill="#000000" font-family="sans-serif" font-size="13" lengthAdjust="spacing" textLength="53" x="1082" y="2142.6494">manages</text></g><!--link CustomerManager to User--><g id="link_CustomerManager_User"><path codeLine="278" d="M683.15,1458.1611 C704.15,1592.7511 788.61,2074.6211 921.5,2074.6211 C921.5,2074.6211 921.5,2074.6211 1951,2074.6211 C2044.71,2074.6211 2075.44,2075.7811 2157,2029.6211 C2190.9,2010.4311 2216.8429,1981.6983 2236.1629,1956.1283 " fill="none" id="CustomerManager-to-User" style="stroke:#808080;stroke-width:1.0;"/><polygon fill="#808080" points="2239.78,1951.3411,2231.163,1956.1105,2236.7658,1955.3304,2237.5459,1960.9332,2239.78,1951.3411" style="stroke:#808080;stroke-width:1.0;"/></g><!--link Operator to User--><g id="link_Operator_User"><path codeLine="280" d="M958.92,1934.2511 C993.74,1964.5111 1049.89,2003.6211 1107.5,2003.6211 C1107.5,2003.6211 1107.5,2003.6211 1951,2003.6211 C2044.02,2003.6211 2068.37,1994.8511 2157,1966.6211 C2181.91,1958.6911 2203.2079,1948.9422 2223.5979,1938.4222 " fill="none" id="Operator-to-User" style="stroke:#808080;stroke-width:1.0;"/><polygon fill="#808080" points="2228.93,1935.6711,2219.0978,1936.2429,2224.4866,1937.9636,2222.7658,1943.3524,2228.93,1935.6711" style="stroke:#808080;stroke-width:1.0;"/></g><!--link LanguageEngineer to User--><g id="link_LanguageEngineer_User"><path codeLine="282" d="M182.03,1178.1511 C230.16,1202.8011 300.53,1231.6211 366.5,1231.6211 C366.5,1231.6211 366.5,1231.6211 829,1231.6211 C976.61,1231.6211 2050.03,1164.9111 2157,1266.6211 C2205.88,1313.1011 2185.26,1501.0411 2196,1567.6211 C2214.68,1683.3811 2241.5642,1813.6818 2254.8342,1876.2018 " fill="none" id="LanguageEngineer-to-User" style="stroke:#808080;stroke-width:1.0;"/><polygon fill="#808080" points="2256.08,1882.0711,2258.1242,1872.4367,2255.0419,1877.1801,2250.2985,1874.0977,2256.08,1882.0711" style="stroke:#808080;stroke-width:1.0;"/></g><!--link Customer to User--><g id="link_Customer_User"><path codeLine="284" d="M1559.64,1352.4611 C1595.62,1407.2711 1673.13,1513.0211 1767,1567.6211 C1920.69,1657.0111 2021.39,1541.6511 2157,1656.6211 C2226.21,1715.2911 2250.1799,1820.0275 2258.5999,1876.1575 " fill="none" id="Customer-to-User" style="stroke:#808080;stroke-width:1.0;"/><polygon fill="#808080" points="2259.49,1882.0911,2262.1106,1872.5973,2258.7483,1877.1464,2254.1991,1873.7841,2259.49,1882.0911" style="stroke:#808080;stroke-width:1.0;"/></g><!--link Customer to Company--><g id="link_Customer_Company"><path codeLine="285" d="M1583.55,1296.1211 C1662.77,1258.7311 1819.524,1184.7421 1898.444,1147.4921 " fill="none" id="Customer-to-Company" style="stroke:#808080;stroke-width:1.0;"/><polygon fill="#808080" points="1903.87,1144.9311,1894.0237,1145.1553,1899.3484,1147.0653,1897.4384,1152.39,1903.87,1144.9311" style="stroke:#808080;stroke-width:1.0;"/><polygon fill="#000000" points="1659.4784,1219.4008,1668.9125,1218.1978,1666.4036,1212.8822,1659.4784,1219.4008" style="stroke:#000000;stroke-width:1.0;"/><text fill="#000000" font-family="sans-serif" font-size="13" lengthAdjust="spacing" textLength="63" x="1673" y="1222.6494">associated</text><text fill="#000000" font-family="sans-serif" font-size="13" lengthAdjust="spacing" textLength="9" x="1591.367" y="1308.2161">N</text><text fill="#000000" font-family="sans-serif" font-size="13" lengthAdjust="spacing" textLength="7" x="1888.9602" y="1163.77">1</text></g><!--link Candidate to User--><g id="link_Candidate_User"><path codeLine="287" d="M1998.54,1514.3411 C2045.85,1517.7611 2117.03,1530.7011 2157,1575.6211 C2170.5,1590.8011 2160,1600.9311 2165,1620.6211 C2189.45,1716.9511 2227.3384,1821.6587 2248.0384,1876.4187 " fill="none" id="Candidate-to-User" style="stroke:#808080;stroke-width:1.0;"/><polygon fill="#808080" points="2250.16,1882.0311,2250.7193,1872.1981,2248.392,1877.3541,2243.2361,1875.0269,2250.16,1882.0311" style="stroke:#808080;stroke-width:1.0;"/></g><!--SRC=[fLXDR-Cs4BthLn3keIS3tMjW673YP94YwmI9ktTQ6jji95AbgAR6OlzxXwH4aH8bETXSaioy-NZ3uP3KcML02b1daLL93aT5b22IdSwAP4n2gfZWoU_LE-CbbRGWEUEWBYKG8T4cIVPCvK0MMr5GniataK6-I98Ed-QqgiYFXE3F4pl24zhV2fc1l1Eva6HBvVjjNaC8eEdxIOgQPnQqUNbvUhpRx1-VTmRNr__syCS3_XZTHahnOSKd2HUBzm8USZHEVlevbYYX9tXJ5wIYELD-oY5WGMKsGUAh1E2_pc2xxJFGrVaQOt7RiaYQvCdYhgwKA01ZdP3uYIfO_4Y0AwOknEbMAojPhrShAOHQhnFZsn2ynpNCDrac0PTijVfESLt8y-5lhCXwRTd_j73dRxbS1sOwfIuZoZEMOIBHb9noCgUxMagMrdbT338YRKeEl8SSohFWiAkBWs4xnS4be4bqSIBAdj-0v9_YG5xXdnetIu4yAl9MGigEBALwwyIOeuLl4E8dYn74cIGt6KDJyhN9WD1p2PpnqqZshNOoLvF14IJm5AvPEZr7dkL3pTEc3dCMTu8hILErrzDe7gv7qnMmiVOV8h_JbFAKGJNIR4EBBLIfPEKqltRvsYBhnV9h6TFtYXU3-DMAwNLvOl9sNqTKlGB481vZIumBt5BsU177OLBDrYC7F5yuQ8Ww0pcAF1SVwFF6WPRaMEVvKh42F1aEQzN9W6ScNYooetjzIFIF-qNxyoJdoq6op9S8NZ7LJy3VNtzLyHbjv9DRIYFCiBsYrpHsHmku4lg2f_G7dYzNmZbwdkvWmqQtW4jwADRv3QKyAcqJ7CogHwv0_ilWOsHOTVgnsbfQ3lSALPshqGdGbC8QlQL2mbL8vtxFYazQREqXEMPXVmTCTT7wV4PWXi6SYxtRPkCOdMMuE2zIf7gKHjQbLKssUmDwKnFyVmxWsqcq-TL6r_dxGSQKbjfmYFZgJqwljrHV6L68WQKAF7ZAUvxrLAxSLSomqmujDvpcbuf5xLhTqCesZnDEZTH19JzHZarPvitj95Q7ACL8_eF49yQm5pBMeRvwiaizu0FBOVnUrWqDh51z3Qu-5Aogq76qfmVuLyhVfs-5FYbpkFToZu9ikd5La64KefEATOldzHDzKkc0Ia7c7_gulc6Fq3I5CWHbaEgNQpRRnT6IV2931VyfSaHByi7KsU1IlEMO6tjZ1-uqR6uo6dt4HntGz6p_eqhXtv3fntZCP2RABpd2LmzjKwNUQkAB2FkiUHPDRApkV31V0sARoq4iOleKoEiJcxilznoQsMtimjIUy65Vwx_kEUeWVWzhGGuJIo-O95d1uZF4AERCtLlw6-Kec7o_jv0vdtW7brI9q9TTCkFFwMUvxVPFh-HD5pU5CMyMDCjJ52Nb5yy92Roq-kdF0HOKlTb6NeWMVCt7W2QuVIgv6ACwznsWz-XPV5cGrN995Zko26RX3JdJmIjgiLkWLtIhpLmVt12ywugKqNQ4UHR-jMGuqqD_mLuDO5yyc7-Zk-BRGKDmQM9vYGL9suYc-xjOku1YOJgvcaEs3TyP1D-VMdLW6sJbnvcqydB3zcGLbgG9vZPBW0yNjsSoc27z1CSBV4FmreDLhAvmr1jxdMbiAFPNhflJDwIkMYExbzr7X_4iIzk4xH8sPlwBe4sgGtghlMmVTZChwt2zjGZ5WpBrpBplbQqy4DkDq-oRPhlx7KrMiM-6ni__]--></g></svg>