<?xml version="1.0" encoding="us-ascii" standalone="no"?><svg xmlns="http://www.w3.org/2000/svg" xmlns:xlink="http://www.w3.org/1999/xlink" contentStyleType="text/css" height="3077px" preserveAspectRatio="none" style="width:2574px;height:3077px;background:#FFFFFF;" version="1.1" viewBox="0 0 2574 3077" width="2574px" zoomAndPan="magnify"><defs/><g><text fill="#000000" font-family="sans-serif" font-size="14" font-weight="bold" lengthAdjust="spacing" textLength="100" x="1230" y="25.1074">Domain Model</text><!--cluster Customer Aggregate--><g id="cluster_Customer Aggregate"><rect fill="none" height="123" rx="2.5" ry="2.5" style="stroke:#000000;stroke-width:1.5;" width="550" x="1513.5" y="1788.6211"/><text fill="#000000" font-family="sans-serif" font-size="14" font-weight="bold" lengthAdjust="spacing" textLength="145" x="1716" y="1805.7285">Customer Aggregate</text></g><!--cluster Candidate Aggregate--><g id="cluster_Candidate Aggregate"><rect fill="none" height="175" rx="2.5" ry="2.5" style="stroke:#000000;stroke-width:1.5;" width="463.5" x="1924.5" y="2134.6211"/><text fill="#000000" font-family="sans-serif" font-size="14" font-weight="bold" lengthAdjust="spacing" textLength="148" x="2082.25" y="2151.7285">Candidate Aggregate</text></g><!--cluster Job Requirements Specification Aggregate--><g id="cluster_Job Requirements Specification Aggregate"><rect fill="none" height="253" rx="2.5" ry="2.5" style="stroke:#000000;stroke-width:1.5;" width="672" x="550" y="46.6211"/><text fill="#000000" font-family="sans-serif" font-size="14" font-weight="bold" lengthAdjust="spacing" textLength="301" x="735.5" y="63.7285">Job Requirements Specification Aggregate</text></g><!--cluster Job Opening Aggregate--><g id="cluster_Job Opening Aggregate"><rect fill="none" height="565" rx="2.5" ry="2.5" style="stroke:#000000;stroke-width:1.5;" width="617" x="1065" y="470.6211"/><text fill="#000000" font-family="sans-serif" font-size="14" font-weight="bold" lengthAdjust="spacing" textLength="167" x="1290" y="487.7285">Job Opening Aggregate</text></g><!--cluster User Aggregate--><g id="cluster_User Aggregate"><rect fill="none" height="331" rx="2.5" ry="2.5" style="stroke:#000000;stroke-width:1.5;" width="316" x="2252" y="2690.6211"/><text fill="#000000" font-family="sans-serif" font-size="14" font-weight="bold" lengthAdjust="spacing" textLength="110" x="2355" y="2707.7285">User Aggregate</text></g><!--cluster JobInterview Aggregate--><g id="cluster_JobInterview Aggregate"><rect fill="none" height="331" rx="2.5" ry="2.5" style="stroke:#000000;stroke-width:1.5;" width="462" x="1918.5" y="2333.6211"/><text fill="#000000" font-family="sans-serif" font-size="14" font-weight="bold" lengthAdjust="spacing" textLength="169" x="2065" y="2350.7285">JobInterview Aggregate</text></g><!--cluster Process Aggregate--><g id="cluster_Process Aggregate"><rect fill="none" height="350" rx="2.5" ry="2.5" style="stroke:#000000;stroke-width:1.5;" width="794.5" x="1300.5" y="1059.6211"/><text fill="#000000" font-family="sans-serif" font-size="14" font-weight="bold" lengthAdjust="spacing" textLength="134" x="1630.75" y="1076.7285">Process Aggregate</text></g><!--cluster Application Aggregate--><g id="cluster_Application Aggregate"><rect fill="none" height="331" rx="2.5" ry="2.5" style="stroke:#000000;stroke-width:1.5;" width="896.5" x="1291.5" y="1433.6211"/><text fill="#000000" font-family="sans-serif" font-size="14" font-weight="bold" lengthAdjust="spacing" textLength="155" x="1662.25" y="1450.7285">Application Aggregate</text></g><!--cluster Interview Model Aggregate--><g id="cluster_Interview Model Aggregate"><rect fill="none" height="123" rx="2.5" ry="2.5" style="stroke:#000000;stroke-width:1.5;" width="365.5" x="844" y="323.6211"/><text fill="#000000" font-family="sans-serif" font-size="14" font-weight="bold" lengthAdjust="spacing" textLength="191" x="931.25" y="340.7285">Interview Model Aggregate</text></g><!--cluster Language Engineer Aggregate--><g id="cluster_Language Engineer Aggregate"><rect fill="none" height="123" rx="2.5" ry="2.5" style="stroke:#000000;stroke-width:1.5;" width="230" x="7" y="323.6211"/><text fill="#000000" font-family="sans-serif" font-size="14" font-weight="bold" lengthAdjust="spacing" textLength="214" x="15" y="340.7285">Language Engineer Aggregate</text></g><!--cluster Admin Aggregate--><g id="cluster_Admin Aggregate"><rect fill="none" height="123" rx="2.5" ry="2.5" style="stroke:#000000;stroke-width:1.5;" width="136" x="54" y="2567.6211"/><text fill="#000000" font-family="sans-serif" font-size="14" font-weight="bold" lengthAdjust="spacing" textLength="120" x="62" y="2584.7285">Admin Aggregate</text></g><!--cluster Customer Manager Aggregate--><g id="cluster_Customer Manager Aggregate"><rect fill="none" height="123" rx="2.5" ry="2.5" style="stroke:#000000;stroke-width:1.5;" width="227" x="563.5" y="2673.6211"/><text fill="#000000" font-family="sans-serif" font-size="14" font-weight="bold" lengthAdjust="spacing" textLength="211" x="571.5" y="2690.7285">Customer Manager Aggregate</text></g><!--cluster Operator Aggregate--><g id="cluster_Operator Aggregate"><rect fill="none" height="123" rx="2.5" ry="2.5" style="stroke:#000000;stroke-width:1.5;" width="156" x="845" y="2948.6211"/><text fill="#000000" font-family="sans-serif" font-size="14" font-weight="bold" lengthAdjust="spacing" textLength="140" x="853" y="2965.7285">Operator Aggregate</text></g><!--cluster ANTLR Service Aggregate--><g id="cluster_ANTLR Service Aggregate"><rect fill="none" height="123" rx="2.5" ry="2.5" style="stroke:#000000;stroke-width:1.5;" width="196" x="270" y="2762.6211"/><text fill="#000000" font-family="sans-serif" font-size="14" font-weight="bold" lengthAdjust="spacing" textLength="180" x="278" y="2779.7285">ANTLR Service Aggregate</text></g><!--cluster Company Aggregate--><g id="cluster_Company Aggregate"><rect fill="none" height="175" rx="2.5" ry="2.5" style="stroke:#000000;stroke-width:1.5;" width="457" x="1927" y="1935.6211"/><text fill="#000000" font-family="sans-serif" font-size="14" font-weight="bold" lengthAdjust="spacing" textLength="141" x="2085" y="1952.7285">Company Aggregate</text></g><!--class Customer--><g id="elem_Customer"><rect codeLine="27" fill="#F0FFFF" height="68.543" id="Customer" rx="2.5" ry="2.5" style="stroke:#000000;stroke-width:0.5;" width="93" x="1529.5" y="1826.1211"/><ellipse cx="1544.5" cy="1856.3926" fill="#ADD1B2" rx="11" ry="11" style="stroke:#181818;stroke-width:1.0;"/><path d="M1543.3594,1857.1895 L1543.3594,1859.6895 L1547.6875,1859.6895 L1547.6875,1858.7676 Q1547.6875,1858.1582 1547.9219,1857.8926 Q1548.1719,1857.627 1548.5469,1857.627 Q1548.9219,1857.627 1549.1563,1857.8926 Q1549.3906,1858.1582 1549.3906,1858.7676 L1549.3906,1861.3926 L1541.3906,1861.3926 Q1540.7656,1861.3926 1540.5,1861.1582 Q1540.25,1860.9238 1540.25,1860.5332 Q1540.25,1860.1582 1540.5156,1859.9238 Q1540.7813,1859.6895 1541.3906,1859.6895 L1541.6563,1859.6895 L1541.6563,1853.0332 L1541.3906,1853.0332 Q1540.7656,1853.0332 1540.5,1852.7988 Q1540.25,1852.5645 1540.25,1852.1738 Q1540.25,1851.7988 1540.5,1851.5645 Q1540.7656,1851.3301 1541.3906,1851.3301 L1549.0156,1851.3301 L1549.0156,1853.9238 Q1549.0156,1854.5332 1548.7813,1854.7988 Q1548.5625,1855.0488 1548.1719,1855.0488 Q1547.7969,1855.0488 1547.5625,1854.7988 Q1547.3281,1854.5332 1547.3281,1853.9238 L1547.3281,1853.0332 L1543.3594,1853.0332 L1543.3594,1855.4863 L1544.8438,1855.4863 Q1544.8438,1854.8301 1544.9688,1854.6426 Q1545.2344,1854.2363 1545.7031,1854.2363 Q1546.0781,1854.2363 1546.3125,1854.502 Q1546.5469,1854.752 1546.5469,1855.3613 L1546.5469,1857.3301 Q1546.5469,1857.877 1546.4219,1858.0645 Q1546.1563,1858.4551 1545.7031,1858.4551 Q1545.2344,1858.4551 1544.9688,1858.0488 Q1544.8438,1857.8613 1544.8438,1857.1895 L1543.3594,1857.1895 Z " fill="#000000"/><text fill="#000000" font-family="sans-serif" font-size="12" font-style="italic" lengthAdjust="spacing" textLength="43" x="1567.5" y="1844.0703">&#171;entity&#187;</text><text fill="#000000" font-family="sans-serif" font-size="12" font-style="italic" lengthAdjust="spacing" textLength="35" x="1571.5" y="1860.0313">&#171;root&#187;</text><text fill="#000000" font-family="sans-serif" font-size="14" lengthAdjust="spacing" textLength="61" x="1558.5" y="1878.1504">Customer</text><line style="stroke:#000000;stroke-width:0.5;" x1="1530.5" x2="1621.5" y1="1886.6641" y2="1886.6641"/></g><!--entity EmailAddress--><g id="elem_EmailAddress"><rect fill="#F0FFDD" height="43.2422" rx="2.5" ry="2.5" style="stroke:#000000;stroke-width:0.5;" width="117" x="1930.5" y="1839.1211"/><text fill="#000000" font-family="sans-serif" font-size="14" font-style="italic" lengthAdjust="spacing" textLength="97" x="1940.5" y="1857.2285">&#171;Value Object&#187;</text><text fill="#000000" font-family="sans-serif" font-size="14" lengthAdjust="spacing" textLength="86" x="1946" y="1875.8496">EmailAddress</text></g><!--class Candidate--><g id="elem_Candidate"><rect codeLine="36" fill="#F0FFFF" height="68.543" id="Candidate" rx="2.5" ry="2.5" style="stroke:#000000;stroke-width:0.5;" width="97" x="1940.5" y="2224.1211"/><ellipse cx="1955.5" cy="2254.3926" fill="#ADD1B2" rx="11" ry="11" style="stroke:#181818;stroke-width:1.0;"/><path d="M1954.3594,2255.1895 L1954.3594,2257.6895 L1958.6875,2257.6895 L1958.6875,2256.7676 Q1958.6875,2256.1582 1958.9219,2255.8926 Q1959.1719,2255.627 1959.5469,2255.627 Q1959.9219,2255.627 1960.1563,2255.8926 Q1960.3906,2256.1582 1960.3906,2256.7676 L1960.3906,2259.3926 L1952.3906,2259.3926 Q1951.7656,2259.3926 1951.5,2259.1582 Q1951.25,2258.9238 1951.25,2258.5332 Q1951.25,2258.1582 1951.5156,2257.9238 Q1951.7813,2257.6895 1952.3906,2257.6895 L1952.6563,2257.6895 L1952.6563,2251.0332 L1952.3906,2251.0332 Q1951.7656,2251.0332 1951.5,2250.7988 Q1951.25,2250.5645 1951.25,2250.1738 Q1951.25,2249.7988 1951.5,2249.5645 Q1951.7656,2249.3301 1952.3906,2249.3301 L1960.0156,2249.3301 L1960.0156,2251.9238 Q1960.0156,2252.5332 1959.7813,2252.7988 Q1959.5625,2253.0488 1959.1719,2253.0488 Q1958.7969,2253.0488 1958.5625,2252.7988 Q1958.3281,2252.5332 1958.3281,2251.9238 L1958.3281,2251.0332 L1954.3594,2251.0332 L1954.3594,2253.4863 L1955.8438,2253.4863 Q1955.8438,2252.8301 1955.9688,2252.6426 Q1956.2344,2252.2363 1956.7031,2252.2363 Q1957.0781,2252.2363 1957.3125,2252.502 Q1957.5469,2252.752 1957.5469,2253.3613 L1957.5469,2255.3301 Q1957.5469,2255.877 1957.4219,2256.0645 Q1957.1563,2256.4551 1956.7031,2256.4551 Q1956.2344,2256.4551 1955.9688,2256.0488 Q1955.8438,2255.8613 1955.8438,2255.1895 L1954.3594,2255.1895 Z " fill="#000000"/><text fill="#000000" font-family="sans-serif" font-size="12" font-style="italic" lengthAdjust="spacing" textLength="43" x="1980.5" y="2242.0703">&#171;entity&#187;</text><text fill="#000000" font-family="sans-serif" font-size="12" font-style="italic" lengthAdjust="spacing" textLength="35" x="1984.5" y="2258.0313">&#171;root&#187;</text><text fill="#000000" font-family="sans-serif" font-size="14" lengthAdjust="spacing" textLength="65" x="1969.5" y="2276.1504">Candidate</text><line style="stroke:#000000;stroke-width:0.5;" x1="1941.5" x2="2036.5" y1="2284.6641" y2="2284.6641"/></g><!--entity Curriculum--><g id="elem_Curriculum"><rect fill="#F0FFDD" height="43.2422" rx="2.5" ry="2.5" style="stroke:#000000;stroke-width:0.5;" width="117" x="2245" y="2250.1211"/><text fill="#000000" font-family="sans-serif" font-size="14" font-style="italic" lengthAdjust="spacing" textLength="97" x="2255" y="2268.2285">&#171;Value Object&#187;</text><text fill="#000000" font-family="sans-serif" font-size="14" lengthAdjust="spacing" textLength="68" x="2269.5" y="2286.8496">Curriculum</text></g><!--entity TelephoneNumber--><g id="elem_TelephoneNumber"><rect fill="#F0FFDD" height="43.2422" rx="2.5" ry="2.5" style="stroke:#000000;stroke-width:0.5;" width="137" x="2235" y="2172.1211"/><text fill="#000000" font-family="sans-serif" font-size="14" font-style="italic" lengthAdjust="spacing" textLength="97" x="2255" y="2190.2285">&#171;Value Object&#187;</text><text fill="#000000" font-family="sans-serif" font-size="14" lengthAdjust="spacing" textLength="117" x="2245" y="2208.8496">TelephoneNumber</text></g><!--class JobRequirementsSpecification--><g id="elem_JobRequirementsSpecification"><rect codeLine="48" fill="#F0FFFF" height="68.543" id="JobRequirementsSpecification" rx="2.5" ry="2.5" style="stroke:#000000;stroke-width:0.5;" width="222" x="566" y="214.1211"/><ellipse cx="581" cy="244.3926" fill="#ADD1B2" rx="11" ry="11" style="stroke:#181818;stroke-width:1.0;"/><path d="M579.8594,245.1895 L579.8594,247.6895 L584.1875,247.6895 L584.1875,246.7676 Q584.1875,246.1582 584.4219,245.8926 Q584.6719,245.627 585.0469,245.627 Q585.4219,245.627 585.6563,245.8926 Q585.8906,246.1582 585.8906,246.7676 L585.8906,249.3926 L577.8906,249.3926 Q577.2656,249.3926 577,249.1582 Q576.75,248.9238 576.75,248.5332 Q576.75,248.1582 577.0156,247.9238 Q577.2813,247.6895 577.8906,247.6895 L578.1563,247.6895 L578.1563,241.0332 L577.8906,241.0332 Q577.2656,241.0332 577,240.7988 Q576.75,240.5645 576.75,240.1738 Q576.75,239.7988 577,239.5645 Q577.2656,239.3301 577.8906,239.3301 L585.5156,239.3301 L585.5156,241.9238 Q585.5156,242.5332 585.2813,242.7988 Q585.0625,243.0488 584.6719,243.0488 Q584.2969,243.0488 584.0625,242.7988 Q583.8281,242.5332 583.8281,241.9238 L583.8281,241.0332 L579.8594,241.0332 L579.8594,243.4863 L581.3438,243.4863 Q581.3438,242.8301 581.4688,242.6426 Q581.7344,242.2363 582.2031,242.2363 Q582.5781,242.2363 582.8125,242.502 Q583.0469,242.752 583.0469,243.3613 L583.0469,245.3301 Q583.0469,245.877 582.9219,246.0645 Q582.6563,246.4551 582.2031,246.4551 Q581.7344,246.4551 581.4688,246.0488 Q581.3438,245.8613 581.3438,245.1895 L579.8594,245.1895 Z " fill="#000000"/><text fill="#000000" font-family="sans-serif" font-size="12" font-style="italic" lengthAdjust="spacing" textLength="43" x="668.5" y="232.0703">&#171;entity&#187;</text><text fill="#000000" font-family="sans-serif" font-size="12" font-style="italic" lengthAdjust="spacing" textLength="35" x="672.5" y="248.0313">&#171;root&#187;</text><text fill="#000000" font-family="sans-serif" font-size="14" lengthAdjust="spacing" textLength="190" x="595" y="266.1504">JobRequirementsSpecification</text><line style="stroke:#000000;stroke-width:0.5;" x1="567" x2="787" y1="274.6641" y2="274.6641"/></g><!--class Requirements--><g id="elem_Requirements"><rect codeLine="50" fill="#F0FFFF" height="52.582" id="Requirements" rx="2.5" ry="2.5" style="stroke:#000000;stroke-width:0.5;" width="120" x="862.5" y="182.1211"/><ellipse cx="877.5" cy="204.4121" fill="#ADD1B2" rx="11" ry="11" style="stroke:#181818;stroke-width:1.0;"/><path d="M876.3594,205.209 L876.3594,207.709 L880.6875,207.709 L880.6875,206.7871 Q880.6875,206.1777 880.9219,205.9121 Q881.1719,205.6465 881.5469,205.6465 Q881.9219,205.6465 882.1563,205.9121 Q882.3906,206.1777 882.3906,206.7871 L882.3906,209.4121 L874.3906,209.4121 Q873.7656,209.4121 873.5,209.1777 Q873.25,208.9434 873.25,208.5527 Q873.25,208.1777 873.5156,207.9434 Q873.7813,207.709 874.3906,207.709 L874.6563,207.709 L874.6563,201.0527 L874.3906,201.0527 Q873.7656,201.0527 873.5,200.8184 Q873.25,200.584 873.25,200.1934 Q873.25,199.8184 873.5,199.584 Q873.7656,199.3496 874.3906,199.3496 L882.0156,199.3496 L882.0156,201.9434 Q882.0156,202.5527 881.7813,202.8184 Q881.5625,203.0684 881.1719,203.0684 Q880.7969,203.0684 880.5625,202.8184 Q880.3281,202.5527 880.3281,201.9434 L880.3281,201.0527 L876.3594,201.0527 L876.3594,203.5059 L877.8438,203.5059 Q877.8438,202.8496 877.9688,202.6621 Q878.2344,202.2559 878.7031,202.2559 Q879.0781,202.2559 879.3125,202.5215 Q879.5469,202.7715 879.5469,203.3809 L879.5469,205.3496 Q879.5469,205.8965 879.4219,206.084 Q879.1563,206.4746 878.7031,206.4746 Q878.2344,206.4746 877.9688,206.0684 Q877.8438,205.8809 877.8438,205.209 L876.3594,205.209 Z " fill="#000000"/><text fill="#000000" font-family="sans-serif" font-size="12" font-style="italic" lengthAdjust="spacing" textLength="43" x="914" y="200.0703">&#171;entity&#187;</text><text fill="#000000" font-family="sans-serif" font-size="14" lengthAdjust="spacing" textLength="88" x="891.5" y="218.1895">Requirements</text><line style="stroke:#000000;stroke-width:0.5;" x1="863.5" x2="981.5" y1="226.7031" y2="226.7031"/></g><!--entity YearsOfExperience--><g id="elem_YearsOfExperience"><rect fill="#F0FFDD" height="43.2422" rx="2.5" ry="2.5" style="stroke:#000000;stroke-width:0.5;" width="142" x="1064" y="240.1211"/><text fill="#000000" font-family="sans-serif" font-size="14" font-style="italic" lengthAdjust="spacing" textLength="93" x="1088.5" y="258.2285">&#171;ValueObject&#187;</text><text fill="#000000" font-family="sans-serif" font-size="14" lengthAdjust="spacing" textLength="122" x="1074" y="276.8496">YearsOfExperience</text></g><!--entity AcademicDegree--><g id="elem_AcademicDegree"><rect fill="#F0FFDD" height="43.2422" rx="2.5" ry="2.5" style="stroke:#000000;stroke-width:0.5;" width="128" x="1071" y="162.1211"/><text fill="#000000" font-family="sans-serif" font-size="14" font-style="italic" lengthAdjust="spacing" textLength="93" x="1088.5" y="180.2285">&#171;ValueObject&#187;</text><text fill="#000000" font-family="sans-serif" font-size="14" lengthAdjust="spacing" textLength="108" x="1081" y="198.8496">AcademicDegree</text></g><!--entity Skills--><g id="elem_Skills"><rect fill="#F0FFDD" height="43.2422" rx="2.5" ry="2.5" style="stroke:#000000;stroke-width:0.5;" width="113" x="1078.5" y="84.1211"/><text fill="#000000" font-family="sans-serif" font-size="14" font-style="italic" lengthAdjust="spacing" textLength="93" x="1088.5" y="102.2285">&#171;ValueObject&#187;</text><text fill="#000000" font-family="sans-serif" font-size="14" lengthAdjust="spacing" textLength="32" x="1119" y="120.8496">Skills</text></g><!--class JobOpening--><g id="elem_JobOpening"><rect codeLine="68" fill="#F0FFFF" height="68.543" id="JobOpening" rx="2.5" ry="2.5" style="stroke:#000000;stroke-width:0.5;" width="108" x="1081" y="865.1211"/><ellipse cx="1096" cy="895.3926" fill="#ADD1B2" rx="11" ry="11" style="stroke:#181818;stroke-width:1.0;"/><path d="M1094.8594,896.1895 L1094.8594,898.6895 L1099.1875,898.6895 L1099.1875,897.7676 Q1099.1875,897.1582 1099.4219,896.8926 Q1099.6719,896.627 1100.0469,896.627 Q1100.4219,896.627 1100.6563,896.8926 Q1100.8906,897.1582 1100.8906,897.7676 L1100.8906,900.3926 L1092.8906,900.3926 Q1092.2656,900.3926 1092,900.1582 Q1091.75,899.9238 1091.75,899.5332 Q1091.75,899.1582 1092.0156,898.9238 Q1092.2813,898.6895 1092.8906,898.6895 L1093.1563,898.6895 L1093.1563,892.0332 L1092.8906,892.0332 Q1092.2656,892.0332 1092,891.7988 Q1091.75,891.5645 1091.75,891.1738 Q1091.75,890.7988 1092,890.5645 Q1092.2656,890.3301 1092.8906,890.3301 L1100.5156,890.3301 L1100.5156,892.9238 Q1100.5156,893.5332 1100.2813,893.7988 Q1100.0625,894.0488 1099.6719,894.0488 Q1099.2969,894.0488 1099.0625,893.7988 Q1098.8281,893.5332 1098.8281,892.9238 L1098.8281,892.0332 L1094.8594,892.0332 L1094.8594,894.4863 L1096.3438,894.4863 Q1096.3438,893.8301 1096.4688,893.6426 Q1096.7344,893.2363 1097.2031,893.2363 Q1097.5781,893.2363 1097.8125,893.502 Q1098.0469,893.752 1098.0469,894.3613 L1098.0469,896.3301 Q1098.0469,896.877 1097.9219,897.0645 Q1097.6563,897.4551 1097.2031,897.4551 Q1096.7344,897.4551 1096.4688,897.0488 Q1096.3438,896.8613 1096.3438,896.1895 L1094.8594,896.1895 Z " fill="#000000"/><text fill="#000000" font-family="sans-serif" font-size="12" font-style="italic" lengthAdjust="spacing" textLength="43" x="1126.5" y="883.0703">&#171;entity&#187;</text><text fill="#000000" font-family="sans-serif" font-size="12" font-style="italic" lengthAdjust="spacing" textLength="35" x="1130.5" y="899.0313">&#171;root&#187;</text><text fill="#000000" font-family="sans-serif" font-size="14" lengthAdjust="spacing" textLength="76" x="1110" y="917.1504">JobOpening</text><line style="stroke:#000000;stroke-width:0.5;" x1="1082" x2="1188" y1="925.6641" y2="925.6641"/></g><g id="elem_GMN38"><path d="M1486,665.6211 L1486,688.0811 L1416.6,688.5511 L1486,696.0811 L1486,727.4941 A0,0 0 0 0 1486,727.4941 L1666,727.4941 A0,0 0 0 0 1666,727.4941 L1666,675.6211 L1656,665.6211 L1486,665.6211 A0,0 0 0 0 1486,665.6211 " fill="#FEFFDD" style="stroke:#181818;stroke-width:0.5;"/><path d="M1656,665.6211 L1656,675.6211 L1666,675.6211 L1656,665.6211 " fill="#FEFFDD" style="stroke:#181818;stroke-width:0.5;"/><text fill="#000000" font-family="sans-serif" font-size="13" lengthAdjust="spacing" textLength="159" x="1492" y="684.6494">Can be one of the following:</text><text fill="#000000" font-family="sans-serif" font-size="13" lengthAdjust="spacing" textLength="53" x="1492" y="701.9404">- full-time</text><text fill="#000000" font-family="sans-serif" font-size="13" lengthAdjust="spacing" textLength="59" x="1492" y="719.2314">- part-time</text></g><g id="elem_GMN41"><path d="M1486,551.1211 L1486,593.6411 L1416.6,603.0911 L1486,601.6411 L1486,630.2852 A0,0 0 0 0 1486,630.2852 L1666,630.2852 A0,0 0 0 0 1666,630.2852 L1666,561.1211 L1656,551.1211 L1486,551.1211 A0,0 0 0 0 1486,551.1211 " fill="#FEFFDD" style="stroke:#181818;stroke-width:0.5;"/><path d="M1656,551.1211 L1656,561.1211 L1666,561.1211 L1656,551.1211 " fill="#FEFFDD" style="stroke:#181818;stroke-width:0.5;"/><text fill="#000000" font-family="sans-serif" font-size="13" lengthAdjust="spacing" textLength="159" x="1492" y="570.1494">Can be one of the following:</text><text fill="#000000" font-family="sans-serif" font-size="13" lengthAdjust="spacing" textLength="48" x="1492" y="587.4404">- remote</text><text fill="#000000" font-family="sans-serif" font-size="13" lengthAdjust="spacing" textLength="43" x="1492" y="604.7314">- hybrid</text><text fill="#000000" font-family="sans-serif" font-size="13" lengthAdjust="spacing" textLength="43" x="1492" y="622.0225">- onsite</text></g><!--entity JobReference--><g id="elem_JobReference"><rect fill="#F0FFDD" height="43.2422" rx="2.5" ry="2.5" style="stroke:#000000;stroke-width:0.5;" width="117" x="1299.5" y="820.1211"/><text fill="#000000" font-family="sans-serif" font-size="14" font-style="italic" lengthAdjust="spacing" textLength="97" x="1309.5" y="838.2285">&#171;Value Object&#187;</text><text fill="#000000" font-family="sans-serif" font-size="14" lengthAdjust="spacing" textLength="88" x="1314" y="856.8496">JobReference</text></g><!--entity TitleOrFunction--><g id="elem_TitleOrFunction"><rect fill="#F0FFDD" height="43.2422" rx="2.5" ry="2.5" style="stroke:#000000;stroke-width:0.5;" width="118" x="1299" y="742.1211"/><text fill="#000000" font-family="sans-serif" font-size="14" font-style="italic" lengthAdjust="spacing" textLength="97" x="1309.5" y="760.2285">&#171;Value Object&#187;</text><text fill="#000000" font-family="sans-serif" font-size="14" lengthAdjust="spacing" textLength="98" x="1309" y="778.8496">TitleOrFunction</text></g><!--entity ContractType--><g id="elem_ContractType"><rect fill="#F0FFDD" height="43.2422" rx="2.5" ry="2.5" style="stroke:#000000;stroke-width:0.5;" width="117" x="1299.5" y="664.1211"/><text fill="#000000" font-family="sans-serif" font-size="14" font-style="italic" lengthAdjust="spacing" textLength="97" x="1309.5" y="682.2285">&#171;Value Object&#187;</text><text fill="#000000" font-family="sans-serif" font-size="14" lengthAdjust="spacing" textLength="86" x="1315" y="700.8496">ContractType</text></g><!--entity Mode--><g id="elem_Mode"><rect fill="#F0FFDD" height="43.2422" rx="2.5" ry="2.5" style="stroke:#000000;stroke-width:0.5;" width="117" x="1299.5" y="586.1211"/><text fill="#000000" font-family="sans-serif" font-size="14" font-style="italic" lengthAdjust="spacing" textLength="97" x="1309.5" y="604.2285">&#171;Value Object&#187;</text><text fill="#000000" font-family="sans-serif" font-size="14" lengthAdjust="spacing" textLength="35" x="1340.5" y="622.8496">Mode</text></g><!--entity Address--><g id="elem_Address"><rect fill="#F0FFDD" height="43.2422" rx="2.5" ry="2.5" style="stroke:#000000;stroke-width:0.5;" width="117" x="1299.5" y="508.1211"/><text fill="#000000" font-family="sans-serif" font-size="14" font-style="italic" lengthAdjust="spacing" textLength="97" x="1309.5" y="526.2285">&#171;Value Object&#187;</text><text fill="#000000" font-family="sans-serif" font-size="14" lengthAdjust="spacing" textLength="52" x="1332" y="544.8496">Address</text></g><!--entity VacanciesNumber--><g id="elem_VacanciesNumber"><rect fill="#F0FFDD" height="43.2422" rx="2.5" ry="2.5" style="stroke:#000000;stroke-width:0.5;" width="134" x="1291" y="976.1211"/><text fill="#000000" font-family="sans-serif" font-size="14" font-style="italic" lengthAdjust="spacing" textLength="97" x="1309.5" y="994.2285">&#171;Value Object&#187;</text><text fill="#000000" font-family="sans-serif" font-size="14" lengthAdjust="spacing" textLength="114" x="1301" y="1012.8496">VacanciesNumber</text></g><!--entity Description--><g id="elem_Description"><rect fill="#F0FFDD" height="43.2422" rx="2.5" ry="2.5" style="stroke:#000000;stroke-width:0.5;" width="117" x="1299.5" y="898.1211"/><text fill="#000000" font-family="sans-serif" font-size="14" font-style="italic" lengthAdjust="spacing" textLength="97" x="1309.5" y="916.2285">&#171;Value Object&#187;</text><text fill="#000000" font-family="sans-serif" font-size="14" lengthAdjust="spacing" textLength="71" x="1322.5" y="934.8496">Description</text></g><!--class User--><g id="elem_User"><rect codeLine="109" fill="#F0FFFF" height="68.543" id="User" rx="2.5" ry="2.5" style="stroke:#000000;stroke-width:0.5;" width="71" x="2268" y="2804.1211"/><ellipse cx="2283" cy="2834.3926" fill="#ADD1B2" rx="11" ry="11" style="stroke:#181818;stroke-width:1.0;"/><path d="M2281.8594,2835.1895 L2281.8594,2837.6895 L2286.1875,2837.6895 L2286.1875,2836.7676 Q2286.1875,2836.1582 2286.4219,2835.8926 Q2286.6719,2835.627 2287.0469,2835.627 Q2287.4219,2835.627 2287.6563,2835.8926 Q2287.8906,2836.1582 2287.8906,2836.7676 L2287.8906,2839.3926 L2279.8906,2839.3926 Q2279.2656,2839.3926 2279,2839.1582 Q2278.75,2838.9238 2278.75,2838.5332 Q2278.75,2838.1582 2279.0156,2837.9238 Q2279.2813,2837.6895 2279.8906,2837.6895 L2280.1563,2837.6895 L2280.1563,2831.0332 L2279.8906,2831.0332 Q2279.2656,2831.0332 2279,2830.7988 Q2278.75,2830.5645 2278.75,2830.1738 Q2278.75,2829.7988 2279,2829.5645 Q2279.2656,2829.3301 2279.8906,2829.3301 L2287.5156,2829.3301 L2287.5156,2831.9238 Q2287.5156,2832.5332 2287.2813,2832.7988 Q2287.0625,2833.0488 2286.6719,2833.0488 Q2286.2969,2833.0488 2286.0625,2832.7988 Q2285.8281,2832.5332 2285.8281,2831.9238 L2285.8281,2831.0332 L2281.8594,2831.0332 L2281.8594,2833.4863 L2283.3438,2833.4863 Q2283.3438,2832.8301 2283.4688,2832.6426 Q2283.7344,2832.2363 2284.2031,2832.2363 Q2284.5781,2832.2363 2284.8125,2832.502 Q2285.0469,2832.752 2285.0469,2833.3613 L2285.0469,2835.3301 Q2285.0469,2835.877 2284.9219,2836.0645 Q2284.6563,2836.4551 2284.2031,2836.4551 Q2283.7344,2836.4551 2283.4688,2836.0488 Q2283.3438,2835.8613 2283.3438,2835.1895 L2281.8594,2835.1895 Z " fill="#000000"/><text fill="#000000" font-family="sans-serif" font-size="12" font-style="italic" lengthAdjust="spacing" textLength="43" x="2295" y="2822.0703">&#171;entity&#187;</text><text fill="#000000" font-family="sans-serif" font-size="12" font-style="italic" lengthAdjust="spacing" textLength="35" x="2299" y="2838.0313">&#171;root&#187;</text><text fill="#000000" font-family="sans-serif" font-size="14" lengthAdjust="spacing" textLength="29" x="2302" y="2856.1504">User</text><line style="stroke:#000000;stroke-width:0.5;" x1="2269" x2="2338" y1="2864.6641" y2="2864.6641"/></g><!--entity UserEmail--><g id="elem_UserEmail"><rect fill="#F0FFDD" height="43.2422" rx="2.5" ry="2.5" style="stroke:#000000;stroke-width:0.5;" width="117" x="2435" y="2962.1211"/><text fill="#000000" font-family="sans-serif" font-size="14" font-style="italic" lengthAdjust="spacing" textLength="97" x="2445" y="2980.2285">&#171;Value Object&#187;</text><text fill="#000000" font-family="sans-serif" font-size="14" lengthAdjust="spacing" textLength="63" x="2462" y="2998.8496">UserEmail</text></g><!--entity UserName--><g id="elem_UserName"><rect fill="#F0FFDD" height="43.2422" rx="2.5" ry="2.5" style="stroke:#000000;stroke-width:0.5;" width="117" x="2435" y="2884.1211"/><text fill="#000000" font-family="sans-serif" font-size="14" font-style="italic" lengthAdjust="spacing" textLength="97" x="2445" y="2902.2285">&#171;Value Object&#187;</text><text fill="#000000" font-family="sans-serif" font-size="14" lengthAdjust="spacing" textLength="65" x="2461" y="2920.8496">UserName</text></g><!--entity UserPassword--><g id="elem_UserPassword"><rect fill="#F0FFDD" height="43.2422" rx="2.5" ry="2.5" style="stroke:#000000;stroke-width:0.5;" width="117" x="2435" y="2806.1211"/><text fill="#000000" font-family="sans-serif" font-size="14" font-style="italic" lengthAdjust="spacing" textLength="97" x="2445" y="2824.2285">&#171;Value Object&#187;</text><text fill="#000000" font-family="sans-serif" font-size="14" lengthAdjust="spacing" textLength="90" x="2448.5" y="2842.8496">UserPassword</text></g><!--entity Username--><g id="elem_Username"><rect fill="#F0FFDD" height="43.2422" rx="2.5" ry="2.5" style="stroke:#000000;stroke-width:0.5;" width="117" x="2435" y="2728.1211"/><text fill="#000000" font-family="sans-serif" font-size="14" font-style="italic" lengthAdjust="spacing" textLength="97" x="2445" y="2746.2285">&#171;Value Object&#187;</text><text fill="#000000" font-family="sans-serif" font-size="14" lengthAdjust="spacing" textLength="64" x="2461.5" y="2764.8496">Username</text></g><!--class JobInterview--><g id="elem_JobInterview"><rect codeLine="128" fill="#F0FFFF" height="68.543" id="JobInterview" rx="2.5" ry="2.5" style="stroke:#000000;stroke-width:0.5;" width="109" x="1934.5" y="2508.1211"/><ellipse cx="1949.5" cy="2538.3926" fill="#ADD1B2" rx="11" ry="11" style="stroke:#181818;stroke-width:1.0;"/><path d="M1948.3594,2539.1895 L1948.3594,2541.6895 L1952.6875,2541.6895 L1952.6875,2540.7676 Q1952.6875,2540.1582 1952.9219,2539.8926 Q1953.1719,2539.627 1953.5469,2539.627 Q1953.9219,2539.627 1954.1563,2539.8926 Q1954.3906,2540.1582 1954.3906,2540.7676 L1954.3906,2543.3926 L1946.3906,2543.3926 Q1945.7656,2543.3926 1945.5,2543.1582 Q1945.25,2542.9238 1945.25,2542.5332 Q1945.25,2542.1582 1945.5156,2541.9238 Q1945.7813,2541.6895 1946.3906,2541.6895 L1946.6563,2541.6895 L1946.6563,2535.0332 L1946.3906,2535.0332 Q1945.7656,2535.0332 1945.5,2534.7988 Q1945.25,2534.5645 1945.25,2534.1738 Q1945.25,2533.7988 1945.5,2533.5645 Q1945.7656,2533.3301 1946.3906,2533.3301 L1954.0156,2533.3301 L1954.0156,2535.9238 Q1954.0156,2536.5332 1953.7813,2536.7988 Q1953.5625,2537.0488 1953.1719,2537.0488 Q1952.7969,2537.0488 1952.5625,2536.7988 Q1952.3281,2536.5332 1952.3281,2535.9238 L1952.3281,2535.0332 L1948.3594,2535.0332 L1948.3594,2537.4863 L1949.8438,2537.4863 Q1949.8438,2536.8301 1949.9688,2536.6426 Q1950.2344,2536.2363 1950.7031,2536.2363 Q1951.0781,2536.2363 1951.3125,2536.502 Q1951.5469,2536.752 1951.5469,2537.3613 L1951.5469,2539.3301 Q1951.5469,2539.877 1951.4219,2540.0645 Q1951.1563,2540.4551 1950.7031,2540.4551 Q1950.2344,2540.4551 1949.9688,2540.0488 Q1949.8438,2539.8613 1949.8438,2539.1895 L1948.3594,2539.1895 Z " fill="#000000"/><text fill="#000000" font-family="sans-serif" font-size="12" font-style="italic" lengthAdjust="spacing" textLength="43" x="1980.5" y="2526.0703">&#171;entity&#187;</text><text fill="#000000" font-family="sans-serif" font-size="12" font-style="italic" lengthAdjust="spacing" textLength="35" x="1984.5" y="2542.0313">&#171;root&#187;</text><text fill="#000000" font-family="sans-serif" font-size="14" lengthAdjust="spacing" textLength="77" x="1963.5" y="2560.1504">JobInterview</text><line style="stroke:#000000;stroke-width:0.5;" x1="1935.5" x2="2042.5" y1="2568.6641" y2="2568.6641"/></g><!--entity InterviewResults--><g id="elem_InterviewResults"><rect fill="#F0FFDD" height="43.2422" rx="2.5" ry="2.5" style="stroke:#000000;stroke-width:0.5;" width="122" x="2242.5" y="2449.1211"/><text fill="#000000" font-family="sans-serif" font-size="14" font-style="italic" lengthAdjust="spacing" textLength="97" x="2255" y="2467.2285">&#171;Value Object&#187;</text><text fill="#000000" font-family="sans-serif" font-size="14" lengthAdjust="spacing" textLength="102" x="2252.5" y="2485.8496">InterviewResults</text></g><!--entity Score--><g id="elem_Score"><rect fill="#F0FFDD" height="43.2422" rx="2.5" ry="2.5" style="stroke:#000000;stroke-width:0.5;" width="117" x="2245" y="2371.1211"/><text fill="#000000" font-family="sans-serif" font-size="14" font-style="italic" lengthAdjust="spacing" textLength="97" x="2255" y="2389.2285">&#171;Value Object&#187;</text><text fill="#000000" font-family="sans-serif" font-size="14" lengthAdjust="spacing" textLength="37" x="2285" y="2407.8496">Score</text></g><!--entity InterviewTime--><g id="elem_InterviewTime"><rect fill="#F0FFDD" height="43.2422" rx="2.5" ry="2.5" style="stroke:#000000;stroke-width:0.5;" width="117" x="2245" y="2605.1211"/><text fill="#000000" font-family="sans-serif" font-size="14" font-style="italic" lengthAdjust="spacing" textLength="97" x="2255" y="2623.2285">&#171;Value Object&#187;</text><text fill="#000000" font-family="sans-serif" font-size="14" lengthAdjust="spacing" textLength="86" x="2260.5" y="2641.8496">InterviewTime</text></g><!--entity InterviewDate--><g id="elem_InterviewDate"><rect fill="#F0FFDD" height="43.2422" rx="2.5" ry="2.5" style="stroke:#000000;stroke-width:0.5;" width="117" x="2245" y="2527.1211"/><text fill="#000000" font-family="sans-serif" font-size="14" font-style="italic" lengthAdjust="spacing" textLength="97" x="2255" y="2545.2285">&#171;Value Object&#187;</text><text fill="#000000" font-family="sans-serif" font-size="14" lengthAdjust="spacing" textLength="85" x="2261" y="2563.8496">InterviewDate</text></g><!--class Process--><g id="elem_Process"><rect codeLine="147" fill="#F0FFFF" height="68.543" id="Process" rx="2.5" ry="2.5" style="stroke:#000000;stroke-width:0.5;" width="83" x="1316.5" y="1136.1211"/><ellipse cx="1331.5" cy="1166.3926" fill="#ADD1B2" rx="11" ry="11" style="stroke:#181818;stroke-width:1.0;"/><path d="M1330.3594,1167.1895 L1330.3594,1169.6895 L1334.6875,1169.6895 L1334.6875,1168.7676 Q1334.6875,1168.1582 1334.9219,1167.8926 Q1335.1719,1167.627 1335.5469,1167.627 Q1335.9219,1167.627 1336.1563,1167.8926 Q1336.3906,1168.1582 1336.3906,1168.7676 L1336.3906,1171.3926 L1328.3906,1171.3926 Q1327.7656,1171.3926 1327.5,1171.1582 Q1327.25,1170.9238 1327.25,1170.5332 Q1327.25,1170.1582 1327.5156,1169.9238 Q1327.7813,1169.6895 1328.3906,1169.6895 L1328.6563,1169.6895 L1328.6563,1163.0332 L1328.3906,1163.0332 Q1327.7656,1163.0332 1327.5,1162.7988 Q1327.25,1162.5645 1327.25,1162.1738 Q1327.25,1161.7988 1327.5,1161.5645 Q1327.7656,1161.3301 1328.3906,1161.3301 L1336.0156,1161.3301 L1336.0156,1163.9238 Q1336.0156,1164.5332 1335.7813,1164.7988 Q1335.5625,1165.0488 1335.1719,1165.0488 Q1334.7969,1165.0488 1334.5625,1164.7988 Q1334.3281,1164.5332 1334.3281,1163.9238 L1334.3281,1163.0332 L1330.3594,1163.0332 L1330.3594,1165.4863 L1331.8438,1165.4863 Q1331.8438,1164.8301 1331.9688,1164.6426 Q1332.2344,1164.2363 1332.7031,1164.2363 Q1333.0781,1164.2363 1333.3125,1164.502 Q1333.5469,1164.752 1333.5469,1165.3613 L1333.5469,1167.3301 Q1333.5469,1167.877 1333.4219,1168.0645 Q1333.1563,1168.4551 1332.7031,1168.4551 Q1332.2344,1168.4551 1331.9688,1168.0488 Q1331.8438,1167.8613 1331.8438,1167.1895 L1330.3594,1167.1895 Z " fill="#000000"/><text fill="#000000" font-family="sans-serif" font-size="12" font-style="italic" lengthAdjust="spacing" textLength="43" x="1349.5" y="1154.0703">&#171;entity&#187;</text><text fill="#000000" font-family="sans-serif" font-size="12" font-style="italic" lengthAdjust="spacing" textLength="35" x="1353.5" y="1170.0313">&#171;root&#187;</text><text fill="#000000" font-family="sans-serif" font-size="14" lengthAdjust="spacing" textLength="51" x="1345.5" y="1188.1504">Process</text><line style="stroke:#000000;stroke-width:0.5;" x1="1317.5" x2="1398.5" y1="1196.6641" y2="1196.6641"/></g><g id="elem_GMN70"><path d="M1899,1096.6211 L1899,1166.6211 L1634.58,1170.6211 L1899,1174.6211 L1899,1244.9492 A0,0 0 0 0 1899,1244.9492 L2079,1244.9492 A0,0 0 0 0 2079,1244.9492 L2079,1106.6211 L2069,1096.6211 L1899,1096.6211 A0,0 0 0 0 1899,1096.6211 " fill="#FEFFDD" style="stroke:#181818;stroke-width:0.5;"/><path d="M2069,1096.6211 L2069,1106.6211 L2079,1106.6211 L2069,1096.6211 " fill="#FEFFDD" style="stroke:#181818;stroke-width:0.5;"/><text fill="#000000" font-family="sans-serif" font-size="13" lengthAdjust="spacing" textLength="159" x="1905" y="1115.6494">Can be one of the following:</text><text fill="#000000" font-family="sans-serif" font-size="13" lengthAdjust="spacing" textLength="121" x="1905" y="1132.9404">- ScreeningStartDate</text><text fill="#000000" font-family="sans-serif" font-size="13" lengthAdjust="spacing" textLength="116" x="1905" y="1150.2314">- ScreeningEndDate</text><text fill="#000000" font-family="sans-serif" font-size="13" lengthAdjust="spacing" textLength="119" x="1905" y="1167.5225">- InterviewsStartDate</text><text fill="#000000" font-family="sans-serif" font-size="13" lengthAdjust="spacing" textLength="114" x="1905" y="1184.8135">- InterviewsEndDate</text><text fill="#000000" font-family="sans-serif" font-size="13" lengthAdjust="spacing" textLength="113" x="1905" y="1202.1045">- AnalysisStartDate</text><text fill="#000000" font-family="sans-serif" font-size="13" lengthAdjust="spacing" textLength="108" x="1905" y="1219.3955">- AnalysisEndDate</text><text fill="#000000" font-family="sans-serif" font-size="13" lengthAdjust="spacing" textLength="72" x="1905" y="1236.6865">- ResultDate</text></g><g id="elem_GMN73"><path d="M1899,1279.6211 L1899,1318.2911 L1634.58,1279.8711 L1899,1326.2911 L1899,1393.3672 A0,0 0 0 0 1899,1393.3672 L2079,1393.3672 A0,0 0 0 0 2079,1393.3672 L2079,1289.6211 L2069,1279.6211 L1899,1279.6211 A0,0 0 0 0 1899,1279.6211 " fill="#FEFFDD" style="stroke:#181818;stroke-width:0.5;"/><path d="M2069,1279.6211 L2069,1289.6211 L2079,1289.6211 L2069,1279.6211 " fill="#FEFFDD" style="stroke:#181818;stroke-width:0.5;"/><text fill="#000000" font-family="sans-serif" font-size="13" lengthAdjust="spacing" textLength="159" x="1905" y="1298.6494">Can be one of the following:</text><text fill="#000000" font-family="sans-serif" font-size="13" lengthAdjust="spacing" textLength="72" x="1905" y="1315.9404">- Application</text><text fill="#000000" font-family="sans-serif" font-size="13" lengthAdjust="spacing" textLength="66" x="1905" y="1333.2314">- Screening</text><text fill="#000000" font-family="sans-serif" font-size="13" lengthAdjust="spacing" textLength="64" x="1905" y="1350.5225">- Interviews</text><text fill="#000000" font-family="sans-serif" font-size="13" lengthAdjust="spacing" textLength="58" x="1905" y="1367.8135">- Analysis</text><text fill="#000000" font-family="sans-serif" font-size="13" lengthAdjust="spacing" textLength="45" x="1905" y="1385.1045">- Result</text></g><!--entity ProcessState--><g id="elem_ProcessState"><rect fill="#F0FFDD" height="43.2422" rx="2.5" ry="2.5" style="stroke:#000000;stroke-width:0.5;" width="117" x="1517.5" y="1249.1211"/><text fill="#000000" font-family="sans-serif" font-size="14" font-style="italic" lengthAdjust="spacing" textLength="97" x="1527.5" y="1267.2285">&#171;Value Object&#187;</text><text fill="#000000" font-family="sans-serif" font-size="14" lengthAdjust="spacing" textLength="84" x="1534" y="1285.8496">ProcessState</text></g><!--entity ProcessDate--><g id="elem_ProcessDate"><rect fill="#F0FFDD" height="43.2422" rx="2.5" ry="2.5" style="stroke:#000000;stroke-width:0.5;" width="117" x="1517.5" y="1149.1211"/><text fill="#000000" font-family="sans-serif" font-size="14" font-style="italic" lengthAdjust="spacing" textLength="97" x="1527.5" y="1167.2285">&#171;Value Object&#187;</text><text fill="#000000" font-family="sans-serif" font-size="14" lengthAdjust="spacing" textLength="81" x="1535.5" y="1185.8496">ProcessDate</text></g><!--class Application--><g id="elem_Application"><rect codeLine="180" fill="#F0FFFF" height="68.543" id="Application" rx="2.5" ry="2.5" style="stroke:#000000;stroke-width:0.5;" width="101" x="1307.5" y="1659.1211"/><ellipse cx="1322.5" cy="1689.3926" fill="#ADD1B2" rx="11" ry="11" style="stroke:#181818;stroke-width:1.0;"/><path d="M1321.3594,1690.1895 L1321.3594,1692.6895 L1325.6875,1692.6895 L1325.6875,1691.7676 Q1325.6875,1691.1582 1325.9219,1690.8926 Q1326.1719,1690.627 1326.5469,1690.627 Q1326.9219,1690.627 1327.1563,1690.8926 Q1327.3906,1691.1582 1327.3906,1691.7676 L1327.3906,1694.3926 L1319.3906,1694.3926 Q1318.7656,1694.3926 1318.5,1694.1582 Q1318.25,1693.9238 1318.25,1693.5332 Q1318.25,1693.1582 1318.5156,1692.9238 Q1318.7813,1692.6895 1319.3906,1692.6895 L1319.6563,1692.6895 L1319.6563,1686.0332 L1319.3906,1686.0332 Q1318.7656,1686.0332 1318.5,1685.7988 Q1318.25,1685.5645 1318.25,1685.1738 Q1318.25,1684.7988 1318.5,1684.5645 Q1318.7656,1684.3301 1319.3906,1684.3301 L1327.0156,1684.3301 L1327.0156,1686.9238 Q1327.0156,1687.5332 1326.7813,1687.7988 Q1326.5625,1688.0488 1326.1719,1688.0488 Q1325.7969,1688.0488 1325.5625,1687.7988 Q1325.3281,1687.5332 1325.3281,1686.9238 L1325.3281,1686.0332 L1321.3594,1686.0332 L1321.3594,1688.4863 L1322.8438,1688.4863 Q1322.8438,1687.8301 1322.9688,1687.6426 Q1323.2344,1687.2363 1323.7031,1687.2363 Q1324.0781,1687.2363 1324.3125,1687.502 Q1324.5469,1687.752 1324.5469,1688.3613 L1324.5469,1690.3301 Q1324.5469,1690.877 1324.4219,1691.0645 Q1324.1563,1691.4551 1323.7031,1691.4551 Q1323.2344,1691.4551 1322.9688,1691.0488 Q1322.8438,1690.8613 1322.8438,1690.1895 L1321.3594,1690.1895 Z " fill="#000000"/><text fill="#000000" font-family="sans-serif" font-size="12" font-style="italic" lengthAdjust="spacing" textLength="43" x="1349.5" y="1677.0703">&#171;entity&#187;</text><text fill="#000000" font-family="sans-serif" font-size="12" font-style="italic" lengthAdjust="spacing" textLength="35" x="1353.5" y="1693.0313">&#171;root&#187;</text><text fill="#000000" font-family="sans-serif" font-size="14" lengthAdjust="spacing" textLength="69" x="1336.5" y="1711.1504">Application</text><line style="stroke:#000000;stroke-width:0.5;" x1="1308.5" x2="1407.5" y1="1719.6641" y2="1719.6641"/></g><g id="elem_GMN86"><path d="M1899,1470.6211 L1899,1508.9711 L1634.58,1496.2611 L1899,1516.9711 L1899,1567.0762 A0,0 0 0 0 1899,1567.0762 L2079,1567.0762 A0,0 0 0 0 2079,1567.0762 L2079,1480.6211 L2069,1470.6211 L1899,1470.6211 A0,0 0 0 0 1899,1470.6211 " fill="#FEFFDD" style="stroke:#181818;stroke-width:0.5;"/><path d="M2069,1470.6211 L2069,1480.6211 L2079,1480.6211 L2069,1470.6211 " fill="#FEFFDD" style="stroke:#181818;stroke-width:0.5;"/><text fill="#000000" font-family="sans-serif" font-size="13" lengthAdjust="spacing" textLength="159" x="1905" y="1489.6494">Can be one of the following:</text><text fill="#000000" font-family="sans-serif" font-size="13" lengthAdjust="spacing" textLength="65" x="1905" y="1506.9404">- submitted</text><text fill="#000000" font-family="sans-serif" font-size="13" lengthAdjust="spacing" textLength="53" x="1905" y="1524.2314">- pending</text><text fill="#000000" font-family="sans-serif" font-size="13" lengthAdjust="spacing" textLength="61" x="1905" y="1541.5225">- accepted</text><text fill="#000000" font-family="sans-serif" font-size="13" lengthAdjust="spacing" textLength="56" x="1905" y="1558.8135">- declined</text></g><g id="elem_GMN89"><path d="M1806,1601.6211 L1806,1610.6211 L1635.89,1581.9411 L1806,1618.6211 L1806,1698.0762 A0,0 0 0 0 1806,1698.0762 L2172,1698.0762 A0,0 0 0 0 2172,1698.0762 L2172,1611.6211 L2162,1601.6211 L1806,1601.6211 A0,0 0 0 0 1806,1601.6211 " fill="#FEFFDD" style="stroke:#181818;stroke-width:0.5;"/><path d="M2162,1601.6211 L2162,1611.6211 L2172,1611.6211 L2162,1601.6211 " fill="#FEFFDD" style="stroke:#181818;stroke-width:0.5;"/><text fill="#000000" font-family="sans-serif" font-size="13" lengthAdjust="spacing" textLength="159" x="1812" y="1620.6494">Can be one of the following:</text><text fill="#000000" font-family="sans-serif" font-size="13" lengthAdjust="spacing" textLength="224" x="1812" y="1637.9404">- text file with the contents of the email</text><text fill="#000000" font-family="sans-serif" font-size="13" lengthAdjust="spacing" textLength="220" x="1812" y="1655.2314">- file for each file attached to the email</text><text fill="#000000" font-family="sans-serif" font-size="13" lengthAdjust="spacing" textLength="345" x="1812" y="1672.5225">- text file with the contents of each file attached to the email</text><text fill="#000000" font-family="sans-serif" font-size="13" lengthAdjust="spacing" textLength="315" x="1812" y="1689.8135">- text file with the data of the application and candidate</text></g><!--entity ApplicationFiles--><g id="elem_ApplicationFiles"><rect fill="#F0FFDD" height="43.2422" rx="2.5" ry="2.5" style="stroke:#000000;stroke-width:0.5;" width="119" x="1516.5" y="1549.1211"/><text fill="#000000" font-family="sans-serif" font-size="14" font-style="italic" lengthAdjust="spacing" textLength="97" x="1527.5" y="1567.2285">&#171;Value Object&#187;</text><text fill="#000000" font-family="sans-serif" font-size="14" lengthAdjust="spacing" textLength="99" x="1526.5" y="1585.8496">ApplicationFiles</text></g><!--entity Status--><g id="elem_Status"><rect fill="#F0FFDD" height="43.2422" rx="2.5" ry="2.5" style="stroke:#000000;stroke-width:0.5;" width="117" x="1517.5" y="1471.1211"/><text fill="#000000" font-family="sans-serif" font-size="14" font-style="italic" lengthAdjust="spacing" textLength="97" x="1527.5" y="1489.2285">&#171;Value Object&#187;</text><text fill="#000000" font-family="sans-serif" font-size="14" lengthAdjust="spacing" textLength="40" x="1556" y="1507.8496">Status</text></g><!--entity SubmissionDate--><g id="elem_SubmissionDate"><rect fill="#F0FFDD" height="43.2422" rx="2.5" ry="2.5" style="stroke:#000000;stroke-width:0.5;" width="122" x="1515" y="1705.1211"/><text fill="#000000" font-family="sans-serif" font-size="14" font-style="italic" lengthAdjust="spacing" textLength="97" x="1527.5" y="1723.2285">&#171;Value Object&#187;</text><text fill="#000000" font-family="sans-serif" font-size="14" lengthAdjust="spacing" textLength="102" x="1525" y="1741.8496">SubmissionDate</text></g><!--entity Rank--><g id="elem_Rank"><rect fill="#F0FFDD" height="43.2422" rx="2.5" ry="2.5" style="stroke:#000000;stroke-width:0.5;" width="117" x="1517.5" y="1627.1211"/><text fill="#000000" font-family="sans-serif" font-size="14" font-style="italic" lengthAdjust="spacing" textLength="97" x="1527.5" y="1645.2285">&#171;Value Object&#187;</text><text fill="#000000" font-family="sans-serif" font-size="14" lengthAdjust="spacing" textLength="33" x="1559.5" y="1663.8496">Rank</text></g><!--class InterviewModel--><g id="elem_InterviewModel"><rect codeLine="215" fill="#F0FFFF" height="68.543" id="InterviewModel" rx="2.5" ry="2.5" style="stroke:#000000;stroke-width:0.5;" width="125" x="860" y="361.1211"/><ellipse cx="875" cy="391.3926" fill="#ADD1B2" rx="11" ry="11" style="stroke:#181818;stroke-width:1.0;"/><path d="M873.8594,392.1895 L873.8594,394.6895 L878.1875,394.6895 L878.1875,393.7676 Q878.1875,393.1582 878.4219,392.8926 Q878.6719,392.627 879.0469,392.627 Q879.4219,392.627 879.6563,392.8926 Q879.8906,393.1582 879.8906,393.7676 L879.8906,396.3926 L871.8906,396.3926 Q871.2656,396.3926 871,396.1582 Q870.75,395.9238 870.75,395.5332 Q870.75,395.1582 871.0156,394.9238 Q871.2813,394.6895 871.8906,394.6895 L872.1563,394.6895 L872.1563,388.0332 L871.8906,388.0332 Q871.2656,388.0332 871,387.7988 Q870.75,387.5645 870.75,387.1738 Q870.75,386.7988 871,386.5645 Q871.2656,386.3301 871.8906,386.3301 L879.5156,386.3301 L879.5156,388.9238 Q879.5156,389.5332 879.2813,389.7988 Q879.0625,390.0488 878.6719,390.0488 Q878.2969,390.0488 878.0625,389.7988 Q877.8281,389.5332 877.8281,388.9238 L877.8281,388.0332 L873.8594,388.0332 L873.8594,390.4863 L875.3438,390.4863 Q875.3438,389.8301 875.4688,389.6426 Q875.7344,389.2363 876.2031,389.2363 Q876.5781,389.2363 876.8125,389.502 Q877.0469,389.752 877.0469,390.3613 L877.0469,392.3301 Q877.0469,392.877 876.9219,393.0645 Q876.6563,393.4551 876.2031,393.4551 Q875.7344,393.4551 875.4688,393.0488 Q875.3438,392.8613 875.3438,392.1895 L873.8594,392.1895 Z " fill="#000000"/><text fill="#000000" font-family="sans-serif" font-size="12" font-style="italic" lengthAdjust="spacing" textLength="43" x="914" y="379.0703">&#171;entity&#187;</text><text fill="#000000" font-family="sans-serif" font-size="12" font-style="italic" lengthAdjust="spacing" textLength="35" x="918" y="395.0313">&#171;root&#187;</text><text fill="#000000" font-family="sans-serif" font-size="14" lengthAdjust="spacing" textLength="93" x="889" y="413.1504">InterviewModel</text><line style="stroke:#000000;stroke-width:0.5;" x1="861" x2="984" y1="421.6641" y2="421.6641"/></g><!--entity Plugin--><g id="elem_Plugin"><rect fill="#F0FFDD" height="43.2422" rx="2.5" ry="2.5" style="stroke:#000000;stroke-width:0.5;" width="117" x="1076.5" y="374.1211"/><text fill="#000000" font-family="sans-serif" font-size="14" font-style="italic" lengthAdjust="spacing" textLength="97" x="1086.5" y="392.2285">&#171;Value Object&#187;</text><text fill="#000000" font-family="sans-serif" font-size="14" lengthAdjust="spacing" textLength="39" x="1115.5" y="410.8496">Plugin</text></g><!--class LanguageEngineer--><g id="elem_LanguageEngineer"><rect codeLine="225" fill="#F0FFFF" height="68.543" id="LanguageEngineer" rx="2.5" ry="2.5" style="stroke:#000000;stroke-width:0.5;" width="153" x="45" y="361.1211"/><ellipse cx="60" cy="391.3926" fill="#ADD1B2" rx="11" ry="11" style="stroke:#181818;stroke-width:1.0;"/><path d="M58.8594,392.1895 L58.8594,394.6895 L63.1875,394.6895 L63.1875,393.7676 Q63.1875,393.1582 63.4219,392.8926 Q63.6719,392.627 64.0469,392.627 Q64.4219,392.627 64.6563,392.8926 Q64.8906,393.1582 64.8906,393.7676 L64.8906,396.3926 L56.8906,396.3926 Q56.2656,396.3926 56,396.1582 Q55.75,395.9238 55.75,395.5332 Q55.75,395.1582 56.0156,394.9238 Q56.2813,394.6895 56.8906,394.6895 L57.1563,394.6895 L57.1563,388.0332 L56.8906,388.0332 Q56.2656,388.0332 56,387.7988 Q55.75,387.5645 55.75,387.1738 Q55.75,386.7988 56,386.5645 Q56.2656,386.3301 56.8906,386.3301 L64.5156,386.3301 L64.5156,388.9238 Q64.5156,389.5332 64.2813,389.7988 Q64.0625,390.0488 63.6719,390.0488 Q63.2969,390.0488 63.0625,389.7988 Q62.8281,389.5332 62.8281,388.9238 L62.8281,388.0332 L58.8594,388.0332 L58.8594,390.4863 L60.3438,390.4863 Q60.3438,389.8301 60.4688,389.6426 Q60.7344,389.2363 61.2031,389.2363 Q61.5781,389.2363 61.8125,389.502 Q62.0469,389.752 62.0469,390.3613 L62.0469,392.3301 Q62.0469,392.877 61.9219,393.0645 Q61.6563,393.4551 61.2031,393.4551 Q60.7344,393.4551 60.4688,393.0488 Q60.3438,392.8613 60.3438,392.1895 L58.8594,392.1895 Z " fill="#000000"/><text fill="#000000" font-family="sans-serif" font-size="12" font-style="italic" lengthAdjust="spacing" textLength="43" x="113" y="379.0703">&#171;entity&#187;</text><text fill="#000000" font-family="sans-serif" font-size="12" font-style="italic" lengthAdjust="spacing" textLength="35" x="117" y="395.0313">&#171;root&#187;</text><text fill="#000000" font-family="sans-serif" font-size="14" lengthAdjust="spacing" textLength="121" x="74" y="413.1504">LanguageEngineer</text><line style="stroke:#000000;stroke-width:0.5;" x1="46" x2="197" y1="421.6641" y2="421.6641"/></g><!--class Admin--><g id="elem_Admin"><rect codeLine="230" fill="#F0FFFF" height="68.543" id="Admin" rx="2.5" ry="2.5" style="stroke:#000000;stroke-width:0.5;" width="71" x="86" y="2605.1211"/><ellipse cx="101" cy="2635.3926" fill="#ADD1B2" rx="11" ry="11" style="stroke:#181818;stroke-width:1.0;"/><path d="M99.8594,2636.1895 L99.8594,2638.6895 L104.1875,2638.6895 L104.1875,2637.7676 Q104.1875,2637.1582 104.4219,2636.8926 Q104.6719,2636.627 105.0469,2636.627 Q105.4219,2636.627 105.6563,2636.8926 Q105.8906,2637.1582 105.8906,2637.7676 L105.8906,2640.3926 L97.8906,2640.3926 Q97.2656,2640.3926 97,2640.1582 Q96.75,2639.9238 96.75,2639.5332 Q96.75,2639.1582 97.0156,2638.9238 Q97.2813,2638.6895 97.8906,2638.6895 L98.1563,2638.6895 L98.1563,2632.0332 L97.8906,2632.0332 Q97.2656,2632.0332 97,2631.7988 Q96.75,2631.5645 96.75,2631.1738 Q96.75,2630.7988 97,2630.5645 Q97.2656,2630.3301 97.8906,2630.3301 L105.5156,2630.3301 L105.5156,2632.9238 Q105.5156,2633.5332 105.2813,2633.7988 Q105.0625,2634.0488 104.6719,2634.0488 Q104.2969,2634.0488 104.0625,2633.7988 Q103.8281,2633.5332 103.8281,2632.9238 L103.8281,2632.0332 L99.8594,2632.0332 L99.8594,2634.4863 L101.3438,2634.4863 Q101.3438,2633.8301 101.4688,2633.6426 Q101.7344,2633.2363 102.2031,2633.2363 Q102.5781,2633.2363 102.8125,2633.502 Q103.0469,2633.752 103.0469,2634.3613 L103.0469,2636.3301 Q103.0469,2636.877 102.9219,2637.0645 Q102.6563,2637.4551 102.2031,2637.4551 Q101.7344,2637.4551 101.4688,2637.0488 Q101.3438,2636.8613 101.3438,2636.1895 L99.8594,2636.1895 Z " fill="#000000"/><text fill="#000000" font-family="sans-serif" font-size="12" font-style="italic" lengthAdjust="spacing" textLength="43" x="113" y="2623.0703">&#171;entity&#187;</text><text fill="#000000" font-family="sans-serif" font-size="12" font-style="italic" lengthAdjust="spacing" textLength="35" x="117" y="2639.0313">&#171;root&#187;</text><text fill="#000000" font-family="sans-serif" font-size="14" lengthAdjust="spacing" textLength="39" x="115" y="2657.1504">Admin</text><line style="stroke:#000000;stroke-width:0.5;" x1="87" x2="156" y1="2665.6641" y2="2665.6641"/></g><!--class CustomerManager--><g id="elem_CustomerManager"><rect codeLine="235" fill="#F0FFFF" height="68.543" id="CustomerManager" rx="2.5" ry="2.5" style="stroke:#000000;stroke-width:0.5;" width="149" x="602.5" y="2711.1211"/><ellipse cx="617.5" cy="2741.3926" fill="#ADD1B2" rx="11" ry="11" style="stroke:#181818;stroke-width:1.0;"/><path d="M616.3594,2742.1895 L616.3594,2744.6895 L620.6875,2744.6895 L620.6875,2743.7676 Q620.6875,2743.1582 620.9219,2742.8926 Q621.1719,2742.627 621.5469,2742.627 Q621.9219,2742.627 622.1563,2742.8926 Q622.3906,2743.1582 622.3906,2743.7676 L622.3906,2746.3926 L614.3906,2746.3926 Q613.7656,2746.3926 613.5,2746.1582 Q613.25,2745.9238 613.25,2745.5332 Q613.25,2745.1582 613.5156,2744.9238 Q613.7813,2744.6895 614.3906,2744.6895 L614.6563,2744.6895 L614.6563,2738.0332 L614.3906,2738.0332 Q613.7656,2738.0332 613.5,2737.7988 Q613.25,2737.5645 613.25,2737.1738 Q613.25,2736.7988 613.5,2736.5645 Q613.7656,2736.3301 614.3906,2736.3301 L622.0156,2736.3301 L622.0156,2738.9238 Q622.0156,2739.5332 621.7813,2739.7988 Q621.5625,2740.0488 621.1719,2740.0488 Q620.7969,2740.0488 620.5625,2739.7988 Q620.3281,2739.5332 620.3281,2738.9238 L620.3281,2738.0332 L616.3594,2738.0332 L616.3594,2740.4863 L617.8438,2740.4863 Q617.8438,2739.8301 617.9688,2739.6426 Q618.2344,2739.2363 618.7031,2739.2363 Q619.0781,2739.2363 619.3125,2739.502 Q619.5469,2739.752 619.5469,2740.3613 L619.5469,2742.3301 Q619.5469,2742.877 619.4219,2743.0645 Q619.1563,2743.4551 618.7031,2743.4551 Q618.2344,2743.4551 617.9688,2743.0488 Q617.8438,2742.8613 617.8438,2742.1895 L616.3594,2742.1895 Z " fill="#000000"/><text fill="#000000" font-family="sans-serif" font-size="12" font-style="italic" lengthAdjust="spacing" textLength="43" x="668.5" y="2729.0703">&#171;entity&#187;</text><text fill="#000000" font-family="sans-serif" font-size="12" font-style="italic" lengthAdjust="spacing" textLength="35" x="672.5" y="2745.0313">&#171;root&#187;</text><text fill="#000000" font-family="sans-serif" font-size="14" lengthAdjust="spacing" textLength="117" x="631.5" y="2763.1504">CustomerManager</text><line style="stroke:#000000;stroke-width:0.5;" x1="603.5" x2="750.5" y1="2771.6641" y2="2771.6641"/></g><!--class Operator--><g id="elem_Operator"><rect codeLine="240" fill="#F0FFFF" height="68.543" id="Operator" rx="2.5" ry="2.5" style="stroke:#000000;stroke-width:0.5;" width="89" x="878" y="2986.1211"/><ellipse cx="893" cy="3016.3926" fill="#ADD1B2" rx="11" ry="11" style="stroke:#181818;stroke-width:1.0;"/><path d="M891.8594,3017.1895 L891.8594,3019.6895 L896.1875,3019.6895 L896.1875,3018.7676 Q896.1875,3018.1582 896.4219,3017.8926 Q896.6719,3017.627 897.0469,3017.627 Q897.4219,3017.627 897.6563,3017.8926 Q897.8906,3018.1582 897.8906,3018.7676 L897.8906,3021.3926 L889.8906,3021.3926 Q889.2656,3021.3926 889,3021.1582 Q888.75,3020.9238 888.75,3020.5332 Q888.75,3020.1582 889.0156,3019.9238 Q889.2813,3019.6895 889.8906,3019.6895 L890.1563,3019.6895 L890.1563,3013.0332 L889.8906,3013.0332 Q889.2656,3013.0332 889,3012.7988 Q888.75,3012.5645 888.75,3012.1738 Q888.75,3011.7988 889,3011.5645 Q889.2656,3011.3301 889.8906,3011.3301 L897.5156,3011.3301 L897.5156,3013.9238 Q897.5156,3014.5332 897.2813,3014.7988 Q897.0625,3015.0488 896.6719,3015.0488 Q896.2969,3015.0488 896.0625,3014.7988 Q895.8281,3014.5332 895.8281,3013.9238 L895.8281,3013.0332 L891.8594,3013.0332 L891.8594,3015.4863 L893.3438,3015.4863 Q893.3438,3014.8301 893.4688,3014.6426 Q893.7344,3014.2363 894.2031,3014.2363 Q894.5781,3014.2363 894.8125,3014.502 Q895.0469,3014.752 895.0469,3015.3613 L895.0469,3017.3301 Q895.0469,3017.877 894.9219,3018.0645 Q894.6563,3018.4551 894.2031,3018.4551 Q893.7344,3018.4551 893.4688,3018.0488 Q893.3438,3017.8613 893.3438,3017.1895 L891.8594,3017.1895 Z " fill="#000000"/><text fill="#000000" font-family="sans-serif" font-size="12" font-style="italic" lengthAdjust="spacing" textLength="43" x="914" y="3004.0703">&#171;entity&#187;</text><text fill="#000000" font-family="sans-serif" font-size="12" font-style="italic" lengthAdjust="spacing" textLength="35" x="918" y="3020.0313">&#171;root&#187;</text><text fill="#000000" font-family="sans-serif" font-size="14" lengthAdjust="spacing" textLength="57" x="907" y="3038.1504">Operator</text><line style="stroke:#000000;stroke-width:0.5;" x1="879" x2="966" y1="3046.6641" y2="3046.6641"/></g><!--class ANTLR--><g id="elem_ANTLR"><rect codeLine="245" fill="#F0FFFF" height="68.543" id="ANTLR" rx="2.5" ry="2.5" style="stroke:#000000;stroke-width:0.5;" width="77" x="329" y="2800.1211"/><ellipse cx="344" cy="2830.3926" fill="#ADD1B2" rx="11" ry="11" style="stroke:#181818;stroke-width:1.0;"/><path d="M342.8594,2831.1895 L342.8594,2833.6895 L347.1875,2833.6895 L347.1875,2832.7676 Q347.1875,2832.1582 347.4219,2831.8926 Q347.6719,2831.627 348.0469,2831.627 Q348.4219,2831.627 348.6563,2831.8926 Q348.8906,2832.1582 348.8906,2832.7676 L348.8906,2835.3926 L340.8906,2835.3926 Q340.2656,2835.3926 340,2835.1582 Q339.75,2834.9238 339.75,2834.5332 Q339.75,2834.1582 340.0156,2833.9238 Q340.2813,2833.6895 340.8906,2833.6895 L341.1563,2833.6895 L341.1563,2827.0332 L340.8906,2827.0332 Q340.2656,2827.0332 340,2826.7988 Q339.75,2826.5645 339.75,2826.1738 Q339.75,2825.7988 340,2825.5645 Q340.2656,2825.3301 340.8906,2825.3301 L348.5156,2825.3301 L348.5156,2827.9238 Q348.5156,2828.5332 348.2813,2828.7988 Q348.0625,2829.0488 347.6719,2829.0488 Q347.2969,2829.0488 347.0625,2828.7988 Q346.8281,2828.5332 346.8281,2827.9238 L346.8281,2827.0332 L342.8594,2827.0332 L342.8594,2829.4863 L344.3438,2829.4863 Q344.3438,2828.8301 344.4688,2828.6426 Q344.7344,2828.2363 345.2031,2828.2363 Q345.5781,2828.2363 345.8125,2828.502 Q346.0469,2828.752 346.0469,2829.3613 L346.0469,2831.3301 Q346.0469,2831.877 345.9219,2832.0645 Q345.6563,2832.4551 345.2031,2832.4551 Q344.7344,2832.4551 344.4688,2832.0488 Q344.3438,2831.8613 344.3438,2831.1895 L342.8594,2831.1895 Z " fill="#000000"/><text fill="#000000" font-family="sans-serif" font-size="12" font-style="italic" lengthAdjust="spacing" textLength="43" x="359" y="2818.0703">&#171;entity&#187;</text><text fill="#000000" font-family="sans-serif" font-size="12" font-style="italic" lengthAdjust="spacing" textLength="35" x="363" y="2834.0313">&#171;root&#187;</text><text fill="#000000" font-family="sans-serif" font-size="14" lengthAdjust="spacing" textLength="45" x="358" y="2852.1504">ANTLR</text><line style="stroke:#000000;stroke-width:0.5;" x1="330" x2="405" y1="2860.6641" y2="2860.6641"/></g><!--class Company--><g id="elem_Company"><rect codeLine="250" fill="#F0FFFF" height="68.543" id="Company" rx="2.5" ry="2.5" style="stroke:#000000;stroke-width:0.5;" width="92" x="1943" y="1973.1211"/><ellipse cx="1958" cy="2003.3926" fill="#ADD1B2" rx="11" ry="11" style="stroke:#181818;stroke-width:1.0;"/><path d="M1956.8594,2004.1895 L1956.8594,2006.6895 L1961.1875,2006.6895 L1961.1875,2005.7676 Q1961.1875,2005.1582 1961.4219,2004.8926 Q1961.6719,2004.627 1962.0469,2004.627 Q1962.4219,2004.627 1962.6563,2004.8926 Q1962.8906,2005.1582 1962.8906,2005.7676 L1962.8906,2008.3926 L1954.8906,2008.3926 Q1954.2656,2008.3926 1954,2008.1582 Q1953.75,2007.9238 1953.75,2007.5332 Q1953.75,2007.1582 1954.0156,2006.9238 Q1954.2813,2006.6895 1954.8906,2006.6895 L1955.1563,2006.6895 L1955.1563,2000.0332 L1954.8906,2000.0332 Q1954.2656,2000.0332 1954,1999.7988 Q1953.75,1999.5645 1953.75,1999.1738 Q1953.75,1998.7988 1954,1998.5645 Q1954.2656,1998.3301 1954.8906,1998.3301 L1962.5156,1998.3301 L1962.5156,2000.9238 Q1962.5156,2001.5332 1962.2813,2001.7988 Q1962.0625,2002.0488 1961.6719,2002.0488 Q1961.2969,2002.0488 1961.0625,2001.7988 Q1960.8281,2001.5332 1960.8281,2000.9238 L1960.8281,2000.0332 L1956.8594,2000.0332 L1956.8594,2002.4863 L1958.3438,2002.4863 Q1958.3438,2001.8301 1958.4688,2001.6426 Q1958.7344,2001.2363 1959.2031,2001.2363 Q1959.5781,2001.2363 1959.8125,2001.502 Q1960.0469,2001.752 1960.0469,2002.3613 L1960.0469,2004.3301 Q1960.0469,2004.877 1959.9219,2005.0645 Q1959.6563,2005.4551 1959.2031,2005.4551 Q1958.7344,2005.4551 1958.4688,2005.0488 Q1958.3438,2004.8613 1958.3438,2004.1895 L1956.8594,2004.1895 Z " fill="#000000"/><text fill="#000000" font-family="sans-serif" font-size="12" font-style="italic" lengthAdjust="spacing" textLength="43" x="1980.5" y="1991.0703">&#171;entity&#187;</text><text fill="#000000" font-family="sans-serif" font-size="12" font-style="italic" lengthAdjust="spacing" textLength="35" x="1984.5" y="2007.0313">&#171;root&#187;</text><text fill="#000000" font-family="sans-serif" font-size="14" lengthAdjust="spacing" textLength="60" x="1972" y="2025.1504">Company</text><line style="stroke:#000000;stroke-width:0.5;" x1="1944" x2="2034" y1="2033.6641" y2="2033.6641"/></g><!--entity CompanyName--><g id="elem_CompanyName"><rect fill="#F0FFDD" height="43.2422" rx="2.5" ry="2.5" style="stroke:#000000;stroke-width:0.5;" width="117" x="2245" y="2051.1211"/><text fill="#000000" font-family="sans-serif" font-size="14" font-style="italic" lengthAdjust="spacing" textLength="97" x="2255" y="2069.2285">&#171;Value Object&#187;</text><text fill="#000000" font-family="sans-serif" font-size="14" lengthAdjust="spacing" textLength="96" x="2255.5" y="2087.8496">CompanyName</text></g><!--entity CompanyNumber--><g id="elem_CompanyNumber"><rect fill="#F0FFDD" height="43.2422" rx="2.5" ry="2.5" style="stroke:#000000;stroke-width:0.5;" width="129" x="2239" y="1973.1211"/><text fill="#000000" font-family="sans-serif" font-size="14" font-style="italic" lengthAdjust="spacing" textLength="97" x="2255" y="1991.2285">&#171;Value Object&#187;</text><text fill="#000000" font-family="sans-serif" font-size="14" lengthAdjust="spacing" textLength="109" x="2249" y="2009.8496">CompanyNumber</text></g><!--link Customer to EmailAddress--><g id="link_Customer_EmailAddress"><path codeLine="32" d="M1622.55,1860.6211 C1697.8,1860.6211 1841.9,1860.6211 1924.39,1860.6211 " fill="none" id="Customer-to-EmailAddress" style="stroke:#808080;stroke-width:1.0;"/><polygon fill="#808080" points="1930.39,1860.6211,1921.39,1856.6211,1925.39,1860.6211,1921.39,1864.6211,1930.39,1860.6211" style="stroke:#808080;stroke-width:1.0;"/></g><!--link Candidate to Curriculum--><g id="link_Candidate_Curriculum"><path codeLine="43" d="M2037.8,2260.6111 C2093.46,2262.9211 2179.3352,2266.5024 2238.8852,2268.9724 " fill="none" id="Candidate-to-Curriculum" style="stroke:#808080;stroke-width:1.0;"/><polygon fill="#808080" points="2244.88,2269.2211,2236.0535,2264.8516,2239.8843,2269.0139,2235.722,2272.8447,2244.88,2269.2211" style="stroke:#808080;stroke-width:1.0;"/></g><!--link Candidate to TelephoneNumber--><g id="link_Candidate_TelephoneNumber"><path codeLine="44" d="M2037.8,2248.6811 C2090.38,2237.7411 2169.4057,2221.3028 2228.8357,2208.9428 " fill="none" id="Candidate-to-TelephoneNumber" style="stroke:#808080;stroke-width:1.0;"/><polygon fill="#808080" points="2234.71,2207.7211,2225.0841,2205.6375,2229.8147,2208.7392,2226.713,2213.4699,2234.71,2207.7211" style="stroke:#808080;stroke-width:1.0;"/></g><!--link Requirements to YearsOfExperience--><g id="link_Requirements_YearsOfExperience"><path codeLine="59" d="M982.7,223.5211 C1007.87,229.8611 1031.6019,235.8349 1057.8719,242.4549 " fill="none" id="Requirements-to-YearsOfExperience" style="stroke:#808080;stroke-width:1.0;"/><polygon fill="#808080" points="1063.69,243.9211,1055.9403,237.8431,1058.8416,242.6993,1053.9854,245.6006,1063.69,243.9211" style="stroke:#808080;stroke-width:1.0;"/></g><!--link Requirements to AcademicDegree--><g id="link_Requirements_AcademicDegree"><path codeLine="60" d="M982.7,201.5911 C1010.18,198.3311 1036.9219,195.1486 1064.8819,191.8286 " fill="none" id="Requirements-to-AcademicDegree" style="stroke:#808080;stroke-width:1.0;"/><polygon fill="#808080" points="1070.84,191.1211,1061.4311,188.2102,1065.8749,191.7107,1062.3744,196.1544,1070.84,191.1211" style="stroke:#808080;stroke-width:1.0;"/></g><!--link Requirements to Skills--><g id="link_Requirements_Skills"><path codeLine="61" d="M977.71,182.0911 C1012.55,165.0511 1051.8405,145.8181 1084.5005,129.8381 " fill="none" id="Requirements-to-Skills" style="stroke:#808080;stroke-width:1.0;"/><polygon fill="#808080" points="1089.89,127.2011,1080.0478,127.5636,1085.3988,129.3986,1083.5638,134.7495,1089.89,127.2011" style="stroke:#808080;stroke-width:1.0;"/></g><!--link JobRequirementsSpecification to Requirements--><g id="link_JobRequirementsSpecification_Requirements"><path codeLine="63" d="M788.35,230.4911 C813.9,226.3011 834.1893,222.9633 856.5393,219.2933 " fill="none" id="JobRequirementsSpecification-to-Requirements" style="stroke:#808080;stroke-width:1.0;"/><polygon fill="#808080" points="862.46,218.3211,852.9308,215.8323,857.5261,219.1313,854.2271,223.7266,862.46,218.3211" style="stroke:#808080;stroke-width:1.0;"/></g><!--link JobOpening to JobReference--><g id="link_JobOpening_JobReference"><path codeLine="85" d="M1189.22,885.6511 C1222.42,876.9411 1259.3664,867.2436 1293.4064,858.3136 " fill="none" id="JobOpening-to-JobReference" style="stroke:#808080;stroke-width:1.0;"/><polygon fill="#808080" points="1299.21,856.7911,1289.4896,855.2058,1294.3737,858.0599,1291.5196,862.9439,1299.21,856.7911" style="stroke:#808080;stroke-width:1.0;"/></g><!--link JobOpening to TitleOrFunction--><g id="link_JobOpening_TitleOrFunction"><path codeLine="86" d="M1186.11,864.9811 C1214.31,845.9211 1250.41,822.2211 1283.5,802.6211 C1293.44,796.7311 1299.0552,793.5333 1309.3552,788.0433 " fill="none" id="JobOpening-to-TitleOrFunction" style="stroke:#808080;stroke-width:1.0;"/><polygon fill="#808080" points="1314.65,785.2211,1304.8263,785.9245,1310.2376,787.5729,1308.5892,792.9843,1314.65,785.2211" style="stroke:#808080;stroke-width:1.0;"/></g><!--link JobOpening to ContractType--><g id="link_JobOpening_ContractType"><path codeLine="87" d="M1159.08,864.9611 C1185.68,826.9611 1232.33,765.9311 1283.5,724.6211 C1291.48,718.1811 1295.4554,715.2434 1304.5954,710.1234 " fill="none" id="JobOpening-to-ContractType" style="stroke:#808080;stroke-width:1.0;"/><polygon fill="#808080" points="1309.83,707.1911,1300.0232,708.0998,1305.4678,709.6347,1303.9329,715.0793,1309.83,707.1911" style="stroke:#808080;stroke-width:1.0;"/></g><!--link JobOpening to Mode--><g id="link_JobOpening_Mode"><path codeLine="88" d="M1148.95,864.9311 C1170.12,812.1111 1216.59,710.9111 1283.5,646.6211 C1290.38,640.0111 1293.4219,637.2691 1301.8319,632.3091 " fill="none" id="JobOpening-to-Mode" style="stroke:#808080;stroke-width:1.0;"/><polygon fill="#808080" points="1307,629.2611,1297.2158,630.3877,1302.6932,631.8011,1301.2798,637.2786,1307,629.2611" style="stroke:#808080;stroke-width:1.0;"/></g><!--link JobOpening to Address--><g id="link_JobOpening_Address"><path codeLine="89" d="M1143.47,864.9711 C1159.1,799.6911 1200.85,657.1411 1283.5,568.6211 C1289.81,561.8611 1292.4398,559.179 1300.5098,554.249 " fill="none" id="JobOpening-to-Address" style="stroke:#808080;stroke-width:1.0;"/><polygon fill="#808080" points="1305.63,551.1211,1295.8645,552.3995,1301.3632,553.7277,1300.035,559.2264,1305.63,551.1211" style="stroke:#808080;stroke-width:1.0;"/></g><!--link JobOpening to VacanciesNumber--><g id="link_JobOpening_VacanciesNumber"><path codeLine="90" d="M1189.22,923.2211 C1225.49,939.3011 1267.665,958.009 1302.915,973.639 " fill="none" id="JobOpening-to-VacanciesNumber" style="stroke:#808080;stroke-width:1.0;"/><polygon fill="#808080" points="1308.4,976.0711,1301.7939,968.7663,1303.8292,974.0444,1298.5511,976.0797,1308.4,976.0711" style="stroke:#808080;stroke-width:1.0;"/></g><!--link JobOpening to Description--><g id="link_JobOpening_Description"><path codeLine="91" d="M1189.22,904.4411 C1222.42,907.4411 1259.1944,910.7704 1293.2344,913.8504 " fill="none" id="JobOpening-to-Description" style="stroke:#808080;stroke-width:1.0;"/><polygon fill="#808080" points="1299.21,914.3911,1290.6071,909.5963,1294.2303,913.9405,1289.8862,917.5638,1299.21,914.3911" style="stroke:#808080;stroke-width:1.0;"/></g><!--link User to UserEmail--><g id="link_User_UserEmail"><path codeLine="120" d="M2339.02,2868.0211 C2364.96,2889.7811 2401.62,2919.8111 2435,2944.6211 C2442.84,2950.4511 2446.5198,2953.1152 2454.6598,2958.6552 " fill="none" id="User-to-UserEmail" style="stroke:#808080;stroke-width:1.0;"/><polygon fill="#808080" points="2459.62,2962.0311,2454.4303,2953.6605,2455.4865,2959.2179,2449.9291,2960.2741,2459.62,2962.0311" style="stroke:#808080;stroke-width:1.0;"/></g><!--link User to UserName--><g id="link_User_UserName"><path codeLine="121" d="M2339.42,2851.0711 C2366.18,2860.6011 2398.0279,2871.9578 2429.2179,2883.0678 " fill="none" id="User-to-UserName" style="stroke:#808080;stroke-width:1.0;"/><polygon fill="#808080" points="2434.87,2885.0811,2427.734,2878.293,2430.1599,2883.4033,2425.0496,2885.8292,2434.87,2885.0811" style="stroke:#808080;stroke-width:1.0;"/></g><!--link User to Username--><g id="link_User_Username"><path codeLine="122" d="M2339.42,2822.0911 C2369.68,2807.7611 2408.2673,2789.499 2441.3373,2773.839 " fill="none" id="User-to-Username" style="stroke:#808080;stroke-width:1.0;"/><polygon fill="#808080" points="2446.76,2771.2711,2436.914,2771.5078,2442.2411,2773.411,2440.3378,2778.7381,2446.76,2771.2711" style="stroke:#808080;stroke-width:1.0;"/></g><!--link User to UserPassword--><g id="link_User_UserPassword"><path codeLine="123" d="M2339.42,2836.5811 C2366.18,2835.0111 2397.6903,2833.1725 2428.8803,2831.3425 " fill="none" id="User-to-UserPassword" style="stroke:#808080;stroke-width:1.0;"/><polygon fill="#808080" points="2434.87,2830.9911,2425.6512,2827.5251,2429.8786,2831.284,2426.1197,2835.5114,2434.87,2830.9911" style="stroke:#808080;stroke-width:1.0;"/></g><!--link JobInterview to InterviewResults--><g id="link_JobInterview_InterviewResults"><path codeLine="139" d="M2043.72,2530.2411 C2098.95,2517.5211 2178.9433,2499.0886 2236.4333,2485.8386 " fill="none" id="JobInterview-to-InterviewResults" style="stroke:#808080;stroke-width:1.0;"/><polygon fill="#808080" points="2242.28,2484.4911,2232.6116,2482.6146,2237.4077,2485.614,2234.4083,2490.4102,2242.28,2484.4911" style="stroke:#808080;stroke-width:1.0;"/></g><!--link JobInterview to Score--><g id="link_JobInterview_Score"><path codeLine="140" d="M2043.72,2516.8311 C2104.1,2487.8511 2195.6409,2443.9075 2252.1609,2416.7775 " fill="none" id="JobInterview-to-Score" style="stroke:#808080;stroke-width:1.0;"/><polygon fill="#808080" points="2257.57,2414.1811,2247.7254,2414.4696,2253.0624,2416.3448,2251.1873,2421.6818,2257.57,2414.1811" style="stroke:#808080;stroke-width:1.0;"/></g><!--link JobInterview to InterviewTime--><g id="link_JobInterview_InterviewTime"><path codeLine="141" d="M2043.72,2557.0611 C2099.83,2572.1411 2181.7157,2594.1536 2239.1957,2609.6036 " fill="none" id="JobInterview-to-InterviewTime" style="stroke:#808080;stroke-width:1.0;"/><polygon fill="#808080" points="2244.99,2611.1611,2237.3368,2604.962,2240.1614,2609.8632,2235.2602,2612.6878,2244.99,2611.1611" style="stroke:#808080;stroke-width:1.0;"/></g><!--link JobInterview to InterviewDate--><g id="link_JobInterview_InterviewDate"><path codeLine="142" d="M2043.72,2543.6511 C2099.83,2544.7311 2181.5111,2546.2952 2238.9911,2547.4052 " fill="none" id="JobInterview-to-InterviewDate" style="stroke:#808080;stroke-width:1.0;"/><polygon fill="#808080" points="2244.99,2547.5211,2236.0689,2543.3481,2239.9909,2547.4246,2235.9144,2551.3466,2244.99,2547.5211" style="stroke:#808080;stroke-width:1.0;"/></g><!--link Process to ProcessState--><g id="link_Process_ProcessState"><path codeLine="154" d="M1399.63,1189.4311 C1436.29,1206.4011 1484.7555,1228.8397 1523.1055,1246.5997 " fill="none" id="Process-to-ProcessState" style="stroke:#808080;stroke-width:1.0;"/><polygon fill="#808080" points="1528.55,1249.1211,1522.0641,1241.7094,1524.0129,1247.02,1518.7023,1248.9687,1528.55,1249.1211" style="stroke:#808080;stroke-width:1.0;"/></g><!--link Process to ProcessDate--><g id="link_Process_ProcessDate"><path codeLine="155" d="M1399.63,1170.6211 C1432.87,1170.6211 1474.29,1170.6211 1511.44,1170.6211 " fill="none" id="Process-to-ProcessDate" style="stroke:#808080;stroke-width:1.0;"/><polygon fill="#808080" points="1517.44,1170.6211,1508.44,1166.6211,1512.44,1170.6211,1508.44,1174.6211,1517.44,1170.6211" style="stroke:#808080;stroke-width:1.0;"/></g><!--link Application to ApplicationFiles--><g id="link_Application_ApplicationFiles"><path codeLine="191" d="M1406.94,1659.1011 C1430.22,1643.0711 1458.95,1624.3511 1486,1609.6211 C1497.26,1603.4911 1504.2015,1600.0078 1516.0915,1594.6978 " fill="none" id="Application-to-ApplicationFiles" style="stroke:#808080;stroke-width:1.0;"/><polygon fill="#808080" points="1521.57,1592.2511,1511.7212,1592.2688,1517.0046,1594.29,1514.9834,1599.5734,1521.57,1592.2511" style="stroke:#808080;stroke-width:1.0;"/></g><!--link Application to Status--><g id="link_Application_Status"><path codeLine="192" d="M1379.08,1658.8111 C1401.3,1622.8811 1440.1,1567.2011 1486,1531.6211 C1495.33,1524.3811 1500.8027,1520.7703 1511.6827,1515.5903 " fill="none" id="Application-to-Status" style="stroke:#808080;stroke-width:1.0;"/><polygon fill="#808080" points="1517.1,1513.0111,1507.2545,1513.2684,1512.5855,1515.1604,1510.6935,1520.4915,1517.1,1513.0111" style="stroke:#808080;stroke-width:1.0;"/></g><!--link Application to SubmissionDate--><g id="link_Application_SubmissionDate"><path codeLine="193" d="M1408.55,1701.1911 C1440.19,1706.0211 1475.4689,1711.4146 1508.9689,1716.5346 " fill="none" id="Application-to-SubmissionDate" style="stroke:#808080;stroke-width:1.0;"/><polygon fill="#808080" points="1514.9,1717.4411,1506.6076,1712.1273,1509.9574,1716.6857,1505.399,1720.0354,1514.9,1717.4411" style="stroke:#808080;stroke-width:1.0;"/></g><!--link Application to Rank--><g id="link_Application_Rank"><path codeLine="194" d="M1408.55,1683.3011 C1440.94,1676.5511 1477.476,1668.9341 1511.386,1661.8741 " fill="none" id="Application-to-Rank" style="stroke:#808080;stroke-width:1.0;"/><polygon fill="#808080" points="1517.26,1660.6511,1507.6336,1658.5695,1512.365,1661.6702,1509.2642,1666.4016,1517.26,1660.6511" style="stroke:#808080;stroke-width:1.0;"/></g><!--link InterviewModel to Plugin--><g id="link_InterviewModel_Plugin"><path codeLine="220" d="M985.23,395.6211 C1013.99,395.6211 1042,395.6211 1070.23,395.6211 " fill="none" id="InterviewModel-to-Plugin" style="stroke:#808080;stroke-width:1.0;"/><polygon fill="#808080" points="1076.23,395.6211,1067.23,391.6211,1071.23,395.6211,1067.23,399.6211,1076.23,395.6211" style="stroke:#808080;stroke-width:1.0;"/></g><!--link Company to CompanyName--><g id="link_Company_CompanyName"><path codeLine="257" d="M2035.11,2017.0011 C2090.46,2028.5211 2178.5356,2046.8398 2239.0456,2059.4198 " fill="none" id="Company-to-CompanyName" style="stroke:#808080;stroke-width:1.0;"/><polygon fill="#808080" points="2244.92,2060.6411,2236.9226,2054.8929,2240.0247,2059.6234,2235.2942,2062.7254,2244.92,2060.6411" style="stroke:#808080;stroke-width:1.0;"/></g><!--link Company to CompanyNumber--><g id="link_Company_CompanyNumber"><path codeLine="258" d="M2035.11,2005.7411 C2088.6,2003.5211 2172.1452,2000.0405 2232.7152,1997.5205 " fill="none" id="Company-to-CompanyNumber" style="stroke:#808080;stroke-width:1.0;"/><polygon fill="#808080" points="2238.71,1997.2711,2229.5515,1993.6487,2233.7143,1997.4789,2229.8841,2001.6418,2238.71,1997.2711" style="stroke:#808080;stroke-width:1.0;"/></g><!--reverse link JobOpening to Application--><g id="link_JobOpening_Application"><path codeLine="261" d="M1147.249,940.0313 C1183.639,1070.7613 1310.84,1527.7711 1347.31,1658.8111 " fill="none" id="JobOpening-backto-Application" style="stroke:#808080;stroke-width:1.0;"/><polygon fill="#808080" points="1145.64,934.2511,1144.2,943.9941,1146.9808,939.068,1151.907,941.8488,1145.64,934.2511" style="stroke:#808080;stroke-width:1.0;"/><text fill="#000000" font-family="sans-serif" font-size="13" lengthAdjust="spacing" textLength="21" x="1239" y="1269.6494">has</text><text fill="#000000" font-family="sans-serif" font-size="13" lengthAdjust="spacing" textLength="7" x="1139.8672" y="955.7567">1</text><text fill="#000000" font-family="sans-serif" font-size="13" lengthAdjust="spacing" textLength="9" x="1331.1406" y="1647.9231">N</text></g><!--link JobOpening to Customer--><g id="link_JobOpening_Customer"><path codeLine="262" d="M1136.93,934.5011 C1141.57,1082.3511 1166.92,1655.6711 1283.5,1783.6211 C1346.78,1853.0711 1458.6301,1863.0061 1523.4201,1862.7361 " fill="none" id="JobOpening-to-Customer" style="stroke:#808080;stroke-width:1.0;"/><polygon fill="#808080" points="1529.42,1862.7111,1520.4034,1858.7486,1524.42,1862.7319,1520.4367,1866.7486,1529.42,1862.7111" style="stroke:#808080;stroke-width:1.0;"/><text fill="#000000" font-family="sans-serif" font-size="13" lengthAdjust="spacing" textLength="63" x="1326.5" y="1779.6494">associated</text><text fill="#000000" font-family="sans-serif" font-size="13" lengthAdjust="spacing" textLength="9" x="1127.5043" y="955.7762">N</text><text fill="#000000" font-family="sans-serif" font-size="13" lengthAdjust="spacing" textLength="7" x="1514.4385" y="1878.4868">1</text></g><!--link JobOpening to Process--><g id="link_JobOpening_Process"><path codeLine="263" d="M1164.21,934.2211 C1206.57,986.1611 1282.3482,1079.0811 1324.8082,1131.1511 " fill="none" id="JobOpening-to-Process" style="stroke:#808080;stroke-width:1.0;"/><polygon fill="#808080" points="1328.6,1135.8011,1326.0123,1126.2983,1325.4402,1131.9261,1319.8123,1131.354,1328.6,1135.8011" style="stroke:#808080;stroke-width:1.0;"/></g><!--link Application to Candidate--><g id="link_Application_Candidate"><path codeLine="265" d="M1373.46,1728.3911 C1393.7,1774.1511 1433.93,1855.3611 1486,1911.6211 C1626.51,2063.4411 1839.3688,2182.7783 1935.0188,2232.1683 " fill="none" id="Application-to-Candidate" style="stroke:#808080;stroke-width:1.0;"/><polygon fill="#808080" points="1940.35,2234.9211,1934.1884,2227.2377,1935.9073,2232.6271,1930.5179,2234.346,1940.35,2234.9211" style="stroke:#808080;stroke-width:1.0;"/><text fill="#000000" font-family="sans-serif" font-size="13" lengthAdjust="spacing" textLength="9" x="1366.2753" y="1749.648">N</text><text fill="#000000" font-family="sans-serif" font-size="13" lengthAdjust="spacing" textLength="7" x="1925.3645" y="2246.6792">1</text></g><!--link Application to JobInterview--><g id="link_Application_JobInterview"><path codeLine="266" d="M1363.84,1728.3611 C1375.22,1800.7711 1408.73,1971.0411 1486,2090.6211 C1609,2280.9711 1827.3494,2438.2106 1929.4594,2505.4706 " fill="none" id="Application-to-JobInterview" style="stroke:#808080;stroke-width:1.0;"/><polygon fill="#808080" points="1934.47,2508.7711,1929.1544,2500.4799,1930.2945,2506.0207,1924.7537,2507.1607,1934.47,2508.7711" style="stroke:#808080;stroke-width:1.0;"/><text fill="#000000" font-family="sans-serif" font-size="13" lengthAdjust="spacing" textLength="7" x="1357.2276" y="1749.613">1</text><text fill="#000000" font-family="sans-serif" font-size="13" lengthAdjust="spacing" textLength="7" x="1919.6722" y="2519.4433">1</text></g><!--reverse link JobRequirementsSpecification to JobOpening--><g id="link_JobRequirementsSpecification_JobOpening"><path codeLine="268" d="M705.6323,288.0754 C784.5323,400.7154 1030.38,751.6811 1109.59,864.7711 " fill="none" id="JobRequirementsSpecification-backto-JobOpening" style="stroke:#808080;stroke-width:1.0;"/><polygon fill="#808080" points="702.19,283.1611,704.0772,292.8274,705.0586,287.2564,710.6297,288.2377,702.19,283.1611" style="stroke:#808080;stroke-width:1.0;"/><text fill="#000000" font-family="sans-serif" font-size="13" lengthAdjust="spacing" textLength="63" x="891" y="471.6494">associated</text><text fill="#000000" font-family="sans-serif" font-size="13" lengthAdjust="spacing" textLength="7" x="698.918" y="304.6512">1</text><text fill="#000000" font-family="sans-serif" font-size="13" lengthAdjust="spacing" textLength="9" x="1095.0753" y="853.8757">N</text></g><!--link Admin to Customer--><g id="link_Admin_Customer"><path codeLine="270" d="M157.14,2622.7911 C203.62,2601.8011 289.29,2568.6211 366.5,2568.6211 C366.5,2568.6211 366.5,2568.6211 1359,2568.6211 C1501.49,2568.6211 1558.6581,2043.3666 1571.5481,1901.2266 " fill="none" id="Admin-to-Customer" style="stroke:#808080;stroke-width:1.0;"/><polygon fill="#808080" points="1572.09,1895.2511,1567.2935,1903.8531,1571.6384,1900.2307,1575.2608,1904.5756,1572.09,1895.2511" style="stroke:#808080;stroke-width:1.0;"/><text fill="#000000" font-family="sans-serif" font-size="13" lengthAdjust="spacing" textLength="53" x="896" y="2564.6494">manages</text><text fill="#000000" font-family="sans-serif" font-size="13" lengthAdjust="spacing" textLength="7" x="165.2126" y="2635.1785">1</text><text fill="#000000" font-family="sans-serif" font-size="13" lengthAdjust="spacing" textLength="9" x="1561.6445" y="1916.7567">N</text></g><!--link Admin to CustomerManager--><g id="link_Admin_CustomerManager"><path codeLine="271" d="M157.02,2652.5311 C184.98,2662.5511 225.57,2676.1211 262,2684.6211 C379.62,2712.0611 513.1041,2728.9425 596.4341,2737.8625 " fill="none" id="Admin-to-CustomerManager" style="stroke:#808080;stroke-width:1.0;"/><polygon fill="#808080" points="602.4,2738.5011,593.8769,2733.5659,597.4284,2737.9689,593.0254,2741.5204,602.4,2738.5011" style="stroke:#808080;stroke-width:1.0;"/><text fill="#000000" font-family="sans-serif" font-size="13" lengthAdjust="spacing" textLength="53" x="341" y="2680.6494">manages</text><text fill="#000000" font-family="sans-serif" font-size="13" lengthAdjust="spacing" textLength="7" x="165.0679" y="2671.0524">1</text><text fill="#000000" font-family="sans-serif" font-size="13" lengthAdjust="spacing" textLength="9" x="585.6136" y="2752.7021">N</text></g><!--link CustomerManager to JobOpening--><g id="link_CustomerManager_JobOpening"><path codeLine="273" d="M751.64,2742.4511 C829.16,2734.7911 948.19,2709.9111 1009,2630.6211 C1116.04,2491.0511 1131.7598,1171.9909 1133.6998,940.1509 " fill="none" id="CustomerManager-to-JobOpening" style="stroke:#808080;stroke-width:1.0;"/><polygon fill="#808080" points="1133.75,934.1511,1129.6748,943.1173,1133.7082,939.1509,1137.6746,943.1842,1133.75,934.1511" style="stroke:#808080;stroke-width:1.0;"/><text fill="#000000" font-family="sans-serif" font-size="13" lengthAdjust="spacing" textLength="53" x="896" y="2626.6494">manages</text><text fill="#000000" font-family="sans-serif" font-size="13" lengthAdjust="spacing" textLength="7" x="759.6982" y="2757.0676">1</text><text fill="#000000" font-family="sans-serif" font-size="13" lengthAdjust="spacing" textLength="9" x="1123.7617" y="955.6395">N</text></g><!--link CustomerManager to Customer--><g id="link_CustomerManager_Customer"><path codeLine="274" d="M751.63,2761.9111 C859.57,2782.5311 1065.74,2809.4111 1230,2756.6211 C1347.66,2718.8111 1390.9,2699.6711 1456,2594.6211 C1530.29,2474.7411 1564.0704,2030.7784 1572.4804,1901.5284 " fill="none" id="CustomerManager-to-Customer" style="stroke:#808080;stroke-width:1.0;"/><polygon fill="#808080" points="1572.87,1895.5411,1568.2941,1904.2624,1572.5453,1900.5305,1576.2772,1904.7818,1572.87,1895.5411" style="stroke:#808080;stroke-width:1.0;"/><text fill="#000000" font-family="sans-serif" font-size="13" lengthAdjust="spacing" textLength="50" x="1110" y="2752.6494">registers</text><text fill="#000000" font-family="sans-serif" font-size="13" lengthAdjust="spacing" textLength="7" x="759.6872" y="2778.5345">1</text><text fill="#000000" font-family="sans-serif" font-size="13" lengthAdjust="spacing" textLength="9" x="1573.0969" y="1916.8228">N</text></g><!--link Operator to Application--><g id="link_Operator_Application"><path codeLine="276" d="M967.05,3012.3211 C1036.36,2996.5511 1170.04,2955.0911 1230,2861.6211 C1362.73,2654.6911 1175.4,1977.4211 1283.5,1756.6211 C1289.12,1745.1511 1293.4467,1738.9841 1302.9867,1730.2841 " fill="none" id="Operator-to-Application" style="stroke:#808080;stroke-width:1.0;"/><polygon fill="#808080" points="1307.42,1726.2411,1298.0747,1729.35,1303.7256,1729.6102,1303.4653,1735.2611,1307.42,1726.2411" style="stroke:#808080;stroke-width:1.0;"/><text fill="#000000" font-family="sans-serif" font-size="13" lengthAdjust="spacing" textLength="50" x="1110" y="2857.6494">registers</text><text fill="#000000" font-family="sans-serif" font-size="13" lengthAdjust="spacing" textLength="7" x="975.0083" y="3026.4445">1</text><text fill="#000000" font-family="sans-serif" font-size="13" lengthAdjust="spacing" textLength="9" x="1290.3301" y="1746.3638">N</text></g><!--link LanguageEngineer to JobRequirementsSpecification--><g id="link_LanguageEngineer_JobRequirementsSpecification"><path codeLine="278" d="M198.26,372.5811 C270.78,350.8411 383.42,317.9011 482,292.6211 C509.1,285.6711 532.6198,280.0433 560.1098,273.7833 " fill="none" id="LanguageEngineer-to-JobRequirementsSpecification" style="stroke:#808080;stroke-width:1.0;"/><polygon fill="#808080" points="565.96,272.4511,556.2965,270.5493,561.0848,273.5613,558.0728,278.3496,565.96,272.4511" style="stroke:#808080;stroke-width:1.0;"/><text fill="#000000" font-family="sans-serif" font-size="13" lengthAdjust="spacing" textLength="43" x="346" y="291.6494">creates</text><text fill="#000000" font-family="sans-serif" font-size="13" lengthAdjust="spacing" textLength="7" x="205.9098" y="385.2592">1</text><text fill="#000000" font-family="sans-serif" font-size="13" lengthAdjust="spacing" textLength="9" x="548.8361" y="288.7789">N</text></g><!--link LanguageEngineer to InterviewModel--><g id="link_LanguageEngineer_InterviewModel"><path codeLine="279" d="M198.03,395.6211 C355.28,395.6211 709.22,395.6211 853.76,395.6211 " fill="none" id="LanguageEngineer-to-InterviewModel" style="stroke:#808080;stroke-width:1.0;"/><polygon fill="#808080" points="859.76,395.6211,850.76,391.6211,854.76,395.6211,850.76,399.6211,859.76,395.6211" style="stroke:#808080;stroke-width:1.0;"/><text fill="#000000" font-family="sans-serif" font-size="13" lengthAdjust="spacing" textLength="43" x="491.5" y="391.6494">creates</text><text fill="#000000" font-family="sans-serif" font-size="13" lengthAdjust="spacing" textLength="7" x="205.908" y="410.523">1</text><text fill="#000000" font-family="sans-serif" font-size="13" lengthAdjust="spacing" textLength="9" x="842.9854" y="410.6755">N</text></g><!--reverse link InterviewModel to JobInterview--><g id="link_InterviewModel_JobInterview"><path codeLine="281" d="M990.2048,427.4842 C999.4848,434.3042 1003.08,438.9311 1009,448.6211 C1077.27,560.2811 1035.7,906.4811 1057,1035.6211 C1155.52,1633.0211 1053.28,1905.1311 1486,2328.6211 C1616.17,2456.0211 1833.94,2512.7611 1934.33,2533.1211 " fill="none" id="InterviewModel-backto-JobInterview" style="stroke:#808080;stroke-width:1.0;"/><polygon fill="#808080" points="985.37,423.9311,990.2534,432.484,989.399,426.8921,994.9909,426.0376,985.37,423.9311" style="stroke:#808080;stroke-width:1.0;"/><text fill="#000000" font-family="sans-serif" font-size="13" lengthAdjust="spacing" textLength="28" x="1344" y="2083.6494">uses</text><text fill="#000000" font-family="sans-serif" font-size="13" lengthAdjust="spacing" textLength="7" x="993.044" y="442.2588">1</text><text fill="#000000" font-family="sans-serif" font-size="13" lengthAdjust="spacing" textLength="9" x="1917.379" y="2547.0653">N</text></g><!--link ANTLR to JobRequirementsSpecification--><g id="link_ANTLR_JobRequirementsSpecification"><path codeLine="283" d="M406.06,2817.3911 C430.29,2804.0411 459.84,2783.0111 474,2754.6211 C488.79,2724.9711 465.82,397.5411 482,368.6211 C495.92,343.7411 550.236,311.6479 599.766,285.9079 " fill="none" id="ANTLR-to-JobRequirementsSpecification" style="stroke:#808080;stroke-width:1.0;"/><polygon fill="#808080" points="605.09,283.1411,595.2595,283.742,600.6533,285.4468,598.9486,290.8406,605.09,283.1411" style="stroke:#808080;stroke-width:1.0;"/><text fill="#000000" font-family="sans-serif" font-size="13" lengthAdjust="spacing" textLength="60" x="483" y="315.6494">processes</text></g><!--link ANTLR to InterviewModel--><g id="link_ANTLR_InterviewModel"><path codeLine="284" d="M406.27,2847.6711 C490.47,2874.1011 694.33,2922.7811 798.5,2815.6211 C890.17,2721.3211 771.12,563.0211 836,448.6211 C841.77,438.4411 845.5318,433.4959 855.0918,426.5259 " fill="none" id="ANTLR-to-InterviewModel" style="stroke:#808080;stroke-width:1.0;"/><polygon fill="#808080" points="859.94,422.9911,850.3111,425.0611,855.8998,425.9367,855.0241,431.5254,859.94,422.9911" style="stroke:#808080;stroke-width:1.0;"/><text fill="#000000" font-family="sans-serif" font-size="13" lengthAdjust="spacing" textLength="60" x="647" y="2811.6494">processes</text></g><!--link Admin to User--><g id="link_Admin_User"><path codeLine="286" d="M157.23,2639.8311 C276.26,2640.8211 678.57,2646.5011 1009,2678.6211 C1222.4,2699.3611 1273.84,2719.6911 1486,2750.6211 C1628.12,2771.3411 1663.3,2779.4211 1806,2795.6211 C1979.01,2815.2611 2180.8546,2830.1828 2261.8446,2835.8428 " fill="none" id="Admin-to-User" style="stroke:#808080;stroke-width:1.0;"/><polygon fill="#808080" points="2267.83,2836.2611,2259.1308,2831.6434,2262.8422,2835.9125,2258.573,2839.6239,2267.83,2836.2611" style="stroke:#808080;stroke-width:1.0;"/><text fill="#000000" font-family="sans-serif" font-size="13" lengthAdjust="spacing" textLength="53" x="1108.5" y="2679.6494">manages</text></g><!--link CustomerManager to User--><g id="link_CustomerManager_User"><path codeLine="288" d="M751.56,2772.1311 C777.9,2780.7611 808,2789.6411 836,2795.6211 C1431.83,2922.8311 1601.68,2951.5311 2205,2866.6211 C2226.28,2863.6311 2243.715,2858.9893 2262.105,2852.9993 " fill="none" id="CustomerManager-to-User" style="stroke:#808080;stroke-width:1.0;"/><polygon fill="#808080" points="2267.81,2851.1411,2258.0137,2850.1251,2263.0558,2852.6896,2260.4913,2857.7318,2267.81,2851.1411" style="stroke:#808080;stroke-width:1.0;"/></g><!--link Operator to User--><g id="link_Operator_User"><path codeLine="290" d="M967.24,3029.5411 C1009.67,3037.4011 1075.97,3047.6211 1134,3047.6211 C1134,3047.6211 1134,3047.6211 1990,3047.6211 C2114.01,3047.6211 2222.2355,2937.0976 2271.7755,2877.7376 " fill="none" id="Operator-to-User" style="stroke:#808080;stroke-width:1.0;"/><polygon fill="#808080" points="2275.62,2873.1311,2266.7823,2877.4779,2272.4163,2876.9699,2272.9243,2882.6039,2275.62,2873.1311" style="stroke:#808080;stroke-width:1.0;"/></g><!--link LanguageEngineer to User--><g id="link_LanguageEngineer_User"><path codeLine="292" d="M122.75,430.3311 C125.18,703.5011 149.39,2496.6211 366.5,2496.6211 C366.5,2496.6211 366.5,2496.6211 829,2496.6211 C1008.39,2496.6211 1055.25,2502.0611 1230,2542.6211 C1494.69,2604.0611 1541.25,2686.4311 1806,2747.6211 C1975.95,2786.9011 2027.61,2746.1111 2196,2791.6211 C2220.97,2798.3711 2242.2198,2807.4653 2262.5998,2817.5253 " fill="none" id="LanguageEngineer-to-User" style="stroke:#808080;stroke-width:1.0;"/><polygon fill="#808080" points="2267.98,2820.1811,2261.6802,2812.6106,2263.4965,2817.9679,2258.1391,2819.7842,2267.98,2820.1811" style="stroke:#808080;stroke-width:1.0;"/></g><!--link Customer to User--><g id="link_Customer_User"><path codeLine="294" d="M1582.07,1895.4911 C1603.15,2035.6511 1688.28,2555.7011 1806,2664.6211 C1935.81,2784.7311 2037.85,2664.4511 2196,2743.6211 C2225.47,2758.3711 2248.9193,2779.0989 2268.6393,2799.7789 " fill="none" id="Customer-to-User" style="stroke:#808080;stroke-width:1.0;"/><polygon fill="#808080" points="2272.78,2804.1211,2269.4638,2794.8473,2269.3295,2800.5026,2263.6742,2800.3682,2272.78,2804.1211" style="stroke:#808080;stroke-width:1.0;"/></g><!--link Customer to Company--><g id="link_Customer_Company"><path codeLine="295" d="M1622.55,1876.9111 C1701.77,1905.2411 1858.3006,1961.2303 1937.2206,1989.4603 " fill="none" id="Customer-to-Company" style="stroke:#808080;stroke-width:1.0;"/><polygon fill="#808080" points="1942.87,1991.4811,1935.743,1984.6836,1938.1621,1989.7971,1933.0486,1992.2161,1942.87,1991.4811" style="stroke:#808080;stroke-width:1.0;"/><polygon fill="#000000" points="1698.2921,1893.5827,1705.819,1899.3961,1707.7986,1893.8617,1698.2921,1893.5827" style="stroke:#000000;stroke-width:1.0;"/><text fill="#000000" font-family="sans-serif" font-size="13" lengthAdjust="spacing" textLength="63" x="1712" y="1900.6494">associated</text><text fill="#000000" font-family="sans-serif" font-size="13" lengthAdjust="spacing" textLength="9" x="1630.367" y="1894.7927">N</text><text fill="#000000" font-family="sans-serif" font-size="13" lengthAdjust="spacing" textLength="7" x="1927.9602" y="2004.3514">1</text></g><!--link Candidate to User--><g id="link_Candidate_User"><path codeLine="297" d="M2037.7,2267.0511 C2085.85,2278.2411 2158.35,2302.9711 2196,2354.6211 C2236.9,2410.7311 2217.98,2597.3111 2235,2664.6211 C2247.59,2714.4111 2267.9903,2763.7829 2283.5903,2798.3229 " fill="none" id="Candidate-to-User" style="stroke:#808080;stroke-width:1.0;"/><polygon fill="#808080" points="2286.06,2803.7911,2286.0009,2793.9424,2284.0019,2799.2343,2278.71,2797.2353,2286.06,2803.7911" style="stroke:#808080;stroke-width:1.0;"/></g><!--SRC=[fLXDR-Cs4BthLn3keIS3tMjW673YP94YwmInkq2FD3MssKYaIb7D6elyzmv5YI8bIdQmljZcl9bvCnmEFquy1PA3FicqJ38uQA8bKVnuqYJb2fZcKYI_bszS55JHd6HSW3uNGAH2dIJPSPq1cQrbJhaWtsGAsIn9EZpBQ5cIdmd1pnC_m1FgtqgLWhgJcLHaJTNRRLP12A3ixQXa9L8BMhsyF3tUhNQFpviQrvV_zl370tvgsKef-Mw7ZmhE5kyvt6Ued7pu70iSeKVOwZE6OcAcufX140LLwKGGNnM0-FK8rkj-12OxNsDHtBPH90rvChkhIYrpG5z73Fn8DSn-9Y0qrsVYP8k57Lak5mibfLukazfs7U0zpc6sIbC5E6MBnNUAyqAUz_zWHfPB6_s7XJjxy_aoK3EKEaPKf3n58b5AJZZ9wQvIYhCgg_818z9ISk0TP52Sf81DbU_hQATYS0HC49sVYB1dDmZoJxadh_1lXOibnpXAiYs0yGDdr2oTMEIeuIk4-B5aDBg1fmvhCIuFVmDLvVFX_aS1YeDWq6OYJ4INFQUvOZI5dBCr8EthrRPlFClAARZx6KHWaZiWEmuDsOtZB1thSpBR1knBay7KFXSWk3YEp6ChdIpXci41b3yHKqLiEkgpUgW4QohYaiQT55fHfdUcBr-6coPz1Moi4GoHtocZWd4eHvRTK6CD9LEyc8wldRusoMQo_5p6vBtanI1-jc9oavxOUDlX8g9U0c8GBs8Rc93ONEn6Amz3KaqJ8dlSQGKOY3u1ESWia-zeyyQ1vkHGPTbSynoyCTosT3S68gtznJoxSAztYVPnlHXxtiZfl5SyzKUaABdk4_3NrrzbVBUgnoUNb47KsyuLjMQm6vh3bT0NFA-yuqvx9LoWvUaAhgCn9U183uSDl-6eY8ws10Uzwb5eKFznU1zfLfryBBSsB8TxXRBAz6W7Q3S1kmCmgU0gf3E_u_adDTRsk32cOR-3I4tI-l6CmEe8BfdOkMKsZZ4imybvKPAPLXgPbrOqMUuDQAidulyOmDUJwFghzMxu-qx6X3QqOHFnnP_iNbjc3iyuY8wL3YnumdkHzaGktMLCiPCEDLU2PkUIH_LQsL3B5eyRd6gfWqn-8XsheiYQqqai3z4G8_m7n2VQiESoLg6-UB9AFU03ps3y2j4r3SnGTGskskUyBD5mjAO7-5SgtgOF_tvGzURUunu5MRfnKS0m2Z6aOjNYMVr4dPJ6eTQG-fi-pczO8vGnA49G2ipSuTEBLHnDoISOQlYXoG4roJlNfnh7y9HJ7z8RFN2xONEICUW3Nc-1ifFzHxN6tv2QPucOoWKllsG8xt-qfKgzsSIx8TPPSq6SM5ZT_b2_YyGMbuDOnFGka5L7Vkcyt3DOz-vQBwJsHCMnCh_k1SeWVWvhGGuJenTqaZJdyHvI2owfkrU5RrJWmEHBHWkvP1FFu8fg6ThoBjHEVZ6spUxfbMnDSXcCMREWYt7AlA3Yx1aXWPLMFlqmOa7HastaXcZ1rpoBDCxjLSdv69Mv5v7UfMVsPKOMypcPRSWiw8Ktv4G7jwZPPePMqQnHStLmG_2iAncdRGlpDFnZoR2dX_Q2jHh0ldWm_qHtnTj14-2yzkKH2qXRZtNrTxusGOXvNSdb9MHRy9r2y1BNYWFTW9NlPrBBuuRboKjCIUFCBPO07qvkJsNGG_e4nnDyG_3KWraihp3KQtkTQgmfzcUkwzCtf2fR9RkMtQF3ECl25c4xXOsQVoDeINL8RxRdxSNkmimwN6ykmk51cdfgtijjEnuCsuNJh9jckViLJHQnrzFQply0]--></g></svg>