<?xml version="1.0" encoding="us-ascii" standalone="no"?><svg xmlns="http://www.w3.org/2000/svg" xmlns:xlink="http://www.w3.org/1999/xlink" contentStyleType="text/css" height="1075px" preserveAspectRatio="none" style="width:1889px;height:1075px;background:#FFFFFF;" version="1.1" viewBox="0 0 1889 1075" width="1889px" zoomAndPan="magnify"><defs/><g><text fill="#000000" font-family="sans-serif" font-size="14" font-weight="bold" lengthAdjust="spacing" textLength="257" x="809" y="25.1074">Class Diagram - Register a candidate</text><!--cluster presentation--><g id="cluster_presentation"><path d="M820.5,45.6348 L911.5,45.6348 A3.75,3.75 0 0 1 914,48.1348 L921,70.2559 L1129.5,70.2559 A2.5,2.5 0 0 1 1132,72.7559 L1132,256.1348 A2.5,2.5 0 0 1 1129.5,258.6348 L820.5,258.6348 A2.5,2.5 0 0 1 818,256.1348 L818,48.1348 A2.5,2.5 0 0 1 820.5,45.6348 " fill="none" style="stroke:#000000;stroke-width:1.5;"/><line style="stroke:#000000;stroke-width:1.5;" x1="818" x2="921" y1="70.2559" y2="70.2559"/><text fill="#000000" font-family="sans-serif" font-size="14" font-weight="bold" lengthAdjust="spacing" textLength="90" x="822" y="62.7422">presentation</text></g><!--cluster application--><g id="cluster_application"><path d="M809.5,291.6348 L887.5,291.6348 A3.75,3.75 0 0 1 890,294.1348 L897,316.2559 L1140.5,316.2559 A2.5,2.5 0 0 1 1143,318.7559 L1143,464.1348 A2.5,2.5 0 0 1 1140.5,466.6348 L809.5,466.6348 A2.5,2.5 0 0 1 807,464.1348 L807,294.1348 A2.5,2.5 0 0 1 809.5,291.6348 " fill="none" style="stroke:#000000;stroke-width:1.5;"/><line style="stroke:#000000;stroke-width:1.5;" x1="807" x2="897" y1="316.2559" y2="316.2559"/><text fill="#000000" font-family="sans-serif" font-size="14" font-weight="bold" lengthAdjust="spacing" textLength="77" x="811" y="308.7422">application</text></g><!--cluster repositories--><g id="cluster_repositories"><path d="M665.5,499.6348 L752.5,499.6348 A3.75,3.75 0 0 1 755,502.1348 L762,524.2559 L1290.5,524.2559 A2.5,2.5 0 0 1 1293,526.7559 L1293,635.1348 A2.5,2.5 0 0 1 1290.5,637.6348 L665.5,637.6348 A2.5,2.5 0 0 1 663,635.1348 L663,502.1348 A2.5,2.5 0 0 1 665.5,499.6348 " fill="none" style="stroke:#000000;stroke-width:1.5;"/><line style="stroke:#000000;stroke-width:1.5;" x1="663" x2="762" y1="524.2559" y2="524.2559"/><text fill="#000000" font-family="sans-serif" font-size="14" font-weight="bold" lengthAdjust="spacing" textLength="86" x="667" y="516.7422">repositories</text></g><!--cluster domain--><g id="cluster_domain"><path d="M8.5,688.6348 L60.5,688.6348 A3.75,3.75 0 0 1 63,691.1348 L70,713.2559 L1879.5,713.2559 A2.5,2.5 0 0 1 1882,715.7559 L1882,1066.1348 A2.5,2.5 0 0 1 1879.5,1068.6348 L8.5,1068.6348 A2.5,2.5 0 0 1 6,1066.1348 L6,691.1348 A2.5,2.5 0 0 1 8.5,688.6348 " fill="none" style="stroke:#000000;stroke-width:1.5;"/><line style="stroke:#000000;stroke-width:1.5;" x1="6" x2="70" y1="713.2559" y2="713.2559"/><text fill="#000000" font-family="sans-serif" font-size="14" font-weight="bold" lengthAdjust="spacing" textLength="51" x="10" y="705.7422">domain</text></g><!--class RankCandidatesUI--><g id="elem_RankCandidatesUI"><rect codeLine="12" fill="#FFFFFF" height="159.7266" id="RankCandidatesUI" rx="2.5" ry="2.5" style="stroke:#000000;stroke-width:0.5;" width="282" x="834" y="82.6348"/><ellipse cx="912.25" cy="98.6348" fill="#ADD1B2" rx="11" ry="11" style="stroke:#181818;stroke-width:1.0;"/><path d="M915.0156,94.5098 Q915.1719,94.291 915.3594,94.1816 Q915.5469,94.0723 915.7656,94.0723 Q916.1406,94.0723 916.375,94.3379 Q916.6094,94.5879 916.6094,95.1973 L916.6094,96.6504 Q916.6094,97.2598 916.375,97.5254 Q916.1406,97.791 915.7656,97.791 Q915.4219,97.791 915.2188,97.5879 Q915.0156,97.4004 914.9063,96.8848 Q914.8594,96.5254 914.6719,96.3379 Q914.3438,95.9629 913.7344,95.7441 Q913.125,95.5254 912.5,95.5254 Q911.7344,95.5254 911.0938,95.8535 Q910.4688,96.1816 909.9688,96.9316 Q909.4844,97.6816 909.4844,98.7129 L909.4844,99.8066 Q909.4844,101.041 910.375,101.8691 Q911.2656,102.6816 912.8594,102.6816 Q913.7969,102.6816 914.4531,102.4316 Q914.8438,102.2754 915.2656,101.8379 Q915.5313,101.5723 915.6719,101.4941 Q915.8281,101.416 916.0313,101.416 Q916.3594,101.416 916.6094,101.6816 Q916.875,101.9316 916.875,102.2754 Q916.875,102.6191 916.5313,103.0254 Q916.0313,103.6035 915.2344,103.9316 Q914.1563,104.3848 912.8594,104.3848 Q911.3438,104.3848 910.1406,103.7598 Q909.1563,103.2598 908.4688,102.1973 Q907.7813,101.1191 907.7813,99.8379 L907.7813,98.6816 Q907.7813,97.3535 908.3906,96.2129 Q909.0156,95.0566 910.1094,94.4473 Q911.2031,93.8223 912.4375,93.8223 Q913.1719,93.8223 913.8125,93.9941 Q914.4688,94.1504 915.0156,94.5098 Z " fill="#000000"/><text fill="#000000" font-family="sans-serif" font-size="14" lengthAdjust="spacing" textLength="117" x="932.75" y="104.4316">RankCandidatesUI</text><line style="stroke:#000000;stroke-width:0.5;" x1="835" x2="1115" y1="114.6348" y2="114.6348"/><line style="stroke:#000000;stroke-width:0.5;" x1="835" x2="1115" y1="122.6348" y2="122.6348"/><ellipse cx="845" cy="137.4453" fill="#84BE84" rx="3" ry="3" style="stroke:#038048;stroke-width:1.0;"/><text fill="#000000" font-family="sans-serif" font-size="14" lengthAdjust="spacing" textLength="60" x="854" y="141.7422">doShow()</text><ellipse cx="845" cy="156.0664" fill="#84BE84" rx="3" ry="3" style="stroke:#038048;stroke-width:1.0;"/><text fill="#000000" font-family="sans-serif" font-size="14" lengthAdjust="spacing" textLength="64" x="854" y="160.3633">headline()</text><ellipse cx="845" cy="174.6875" fill="#84BE84" rx="3" ry="3" style="stroke:#038048;stroke-width:1.0;"/><text fill="#000000" font-family="sans-serif" font-size="14" lengthAdjust="spacing" textLength="123" x="854" y="178.9844">selectJobOpening()</text><ellipse cx="845" cy="193.3086" fill="#84BE84" rx="3" ry="3" style="stroke:#038048;stroke-width:1.0;"/><text fill="#000000" font-family="sans-serif" font-size="14" lengthAdjust="spacing" textLength="245" x="854" y="197.6055">selectApplication(selectedJobOpening)</text><ellipse cx="845" cy="211.9297" fill="#84BE84" rx="3" ry="3" style="stroke:#038048;stroke-width:1.0;"/><text fill="#000000" font-family="sans-serif" font-size="14" lengthAdjust="spacing" textLength="256" x="854" y="216.2266">getLastJobInterview(selectedApplication)</text><ellipse cx="845" cy="230.5508" fill="#84BE84" rx="3" ry="3" style="stroke:#038048;stroke-width:1.0;"/><text fill="#000000" font-family="sans-serif" font-size="14" lengthAdjust="spacing" textLength="245" x="854" y="234.8477">updateRank(rank, selectedApplication)</text></g><!--class RankCandidatesController--><g id="elem_RankCandidatesController"><rect codeLine="23" fill="#FFFFFF" height="122.4844" id="RankCandidatesController" rx="2.5" ry="2.5" style="stroke:#000000;stroke-width:0.5;" width="303" x="823.5" y="328.6348"/><ellipse cx="887.25" cy="344.6348" fill="#ADD1B2" rx="11" ry="11" style="stroke:#181818;stroke-width:1.0;"/><path d="M890.0156,340.5098 Q890.1719,340.291 890.3594,340.1816 Q890.5469,340.0723 890.7656,340.0723 Q891.1406,340.0723 891.375,340.3379 Q891.6094,340.5879 891.6094,341.1973 L891.6094,342.6504 Q891.6094,343.2598 891.375,343.5254 Q891.1406,343.791 890.7656,343.791 Q890.4219,343.791 890.2188,343.5879 Q890.0156,343.4004 889.9063,342.8848 Q889.8594,342.5254 889.6719,342.3379 Q889.3438,341.9629 888.7344,341.7441 Q888.125,341.5254 887.5,341.5254 Q886.7344,341.5254 886.0938,341.8535 Q885.4688,342.1816 884.9688,342.9316 Q884.4844,343.6816 884.4844,344.7129 L884.4844,345.8066 Q884.4844,347.041 885.375,347.8691 Q886.2656,348.6816 887.8594,348.6816 Q888.7969,348.6816 889.4531,348.4316 Q889.8438,348.2754 890.2656,347.8379 Q890.5313,347.5723 890.6719,347.4941 Q890.8281,347.416 891.0313,347.416 Q891.3594,347.416 891.6094,347.6816 Q891.875,347.9316 891.875,348.2754 Q891.875,348.6191 891.5313,349.0254 Q891.0313,349.6035 890.2344,349.9316 Q889.1563,350.3848 887.8594,350.3848 Q886.3438,350.3848 885.1406,349.7598 Q884.1563,349.2598 883.4688,348.1973 Q882.7813,347.1191 882.7813,345.8379 L882.7813,344.6816 Q882.7813,343.3535 883.3906,342.2129 Q884.0156,341.0566 885.1094,340.4473 Q886.2031,339.8223 887.4375,339.8223 Q888.1719,339.8223 888.8125,339.9941 Q889.4688,340.1504 890.0156,340.5098 Z " fill="#000000"/><text fill="#000000" font-family="sans-serif" font-size="14" lengthAdjust="spacing" textLength="167" x="907.75" y="350.4316">RankCandidatesController</text><line style="stroke:#000000;stroke-width:0.5;" x1="824.5" x2="1125.5" y1="360.6348" y2="360.6348"/><line style="stroke:#000000;stroke-width:0.5;" x1="824.5" x2="1125.5" y1="368.6348" y2="368.6348"/><ellipse cx="834.5" cy="383.4453" fill="#84BE84" rx="3" ry="3" style="stroke:#038048;stroke-width:1.0;"/><text fill="#000000" font-family="sans-serif" font-size="14" lengthAdjust="spacing" textLength="128" x="843.5" y="387.7422">getAllJobOpenings()</text><ellipse cx="834.5" cy="402.0664" fill="#84BE84" rx="3" ry="3" style="stroke:#038048;stroke-width:1.0;"/><text fill="#000000" font-family="sans-serif" font-size="14" lengthAdjust="spacing" textLength="277" x="843.5" y="406.3633">getApplicationsForJobOpening(jobOpening)</text><ellipse cx="834.5" cy="420.6875" fill="#84BE84" rx="3" ry="3" style="stroke:#038048;stroke-width:1.0;"/><text fill="#000000" font-family="sans-serif" font-size="14" lengthAdjust="spacing" textLength="251" x="843.5" y="424.9844">getInterviewsForApplication(application)</text><ellipse cx="834.5" cy="439.3086" fill="#84BE84" rx="3" ry="3" style="stroke:#038048;stroke-width:1.0;"/><text fill="#000000" font-family="sans-serif" font-size="14" lengthAdjust="spacing" textLength="191" x="843.5" y="443.6055">updateRank(rank, application)</text></g><!--class ApplicationRepository--><g id="elem_ApplicationRepository"><rect codeLine="32" fill="#FFFFFF" height="85.2422" id="ApplicationRepository" rx="2.5" ry="2.5" style="stroke:#000000;stroke-width:0.5;" width="172" x="679" y="536.6348"/><ellipse cx="695.35" cy="552.6348" fill="#B4A7E5" rx="11" ry="11" style="stroke:#181818;stroke-width:1.0;"/><path d="M696.3031,549.2754 L696.3031,555.9316 L698.0219,555.9316 Q698.6313,555.9316 698.8969,556.166 Q699.1625,556.4004 699.1625,556.791 Q699.1625,557.166 698.8969,557.4004 Q698.6313,557.6348 698.0219,557.6348 L692.8813,557.6348 Q692.2719,557.6348 692.0063,557.4004 Q691.7406,557.166 691.7406,556.7754 Q691.7406,556.4004 692.0063,556.166 Q692.2719,555.9316 692.8813,555.9316 L694.6,555.9316 L694.6,549.2754 L692.8813,549.2754 Q692.2719,549.2754 692.0063,549.041 Q691.7406,548.8066 691.7406,548.416 Q691.7406,548.041 692.0063,547.8066 Q692.2719,547.5723 692.8813,547.5723 L698.0219,547.5723 Q698.6313,547.5723 698.8969,547.8066 Q699.1625,548.041 699.1625,548.416 Q699.1625,548.8066 698.8969,549.041 Q698.6313,549.2754 698.0219,549.2754 L696.3031,549.2754 Z " fill="#000000"/><text fill="#000000" font-family="sans-serif" font-size="14" font-style="italic" lengthAdjust="spacing" textLength="137" x="709.65" y="558.4316">ApplicationRepository</text><line style="stroke:#000000;stroke-width:0.5;" x1="680" x2="850" y1="568.6348" y2="568.6348"/><line style="stroke:#000000;stroke-width:0.5;" x1="680" x2="850" y1="576.6348" y2="576.6348"/><ellipse cx="690" cy="591.4453" fill="#84BE84" rx="3" ry="3" style="stroke:#038048;stroke-width:1.0;"/><text fill="#000000" font-family="sans-serif" font-size="14" lengthAdjust="spacing" textLength="100" x="699" y="595.7422">allApplications()</text><ellipse cx="690" cy="610.0664" fill="#84BE84" rx="3" ry="3" style="stroke:#038048;stroke-width:1.0;"/><text fill="#000000" font-family="sans-serif" font-size="14" lengthAdjust="spacing" textLength="146" x="699" y="614.3633">ofIdentity(applicationId)</text></g><!--class JobOpeningRepository--><g id="elem_JobOpeningRepository"><rect codeLine="37" fill="#FFFFFF" height="85.2422" id="JobOpeningRepository" rx="2.5" ry="2.5" style="stroke:#000000;stroke-width:0.5;" width="178" x="886" y="536.6348"/><ellipse cx="901.45" cy="552.6348" fill="#B4A7E5" rx="11" ry="11" style="stroke:#181818;stroke-width:1.0;"/><path d="M902.4031,549.2754 L902.4031,555.9316 L904.1219,555.9316 Q904.7313,555.9316 904.9969,556.166 Q905.2625,556.4004 905.2625,556.791 Q905.2625,557.166 904.9969,557.4004 Q904.7313,557.6348 904.1219,557.6348 L898.9813,557.6348 Q898.3719,557.6348 898.1063,557.4004 Q897.8406,557.166 897.8406,556.7754 Q897.8406,556.4004 898.1063,556.166 Q898.3719,555.9316 898.9813,555.9316 L900.7,555.9316 L900.7,549.2754 L898.9813,549.2754 Q898.3719,549.2754 898.1063,549.041 Q897.8406,548.8066 897.8406,548.416 Q897.8406,548.041 898.1063,547.8066 Q898.3719,547.5723 898.9813,547.5723 L904.1219,547.5723 Q904.7313,547.5723 904.9969,547.8066 Q905.2625,548.041 905.2625,548.416 Q905.2625,548.8066 904.9969,549.041 Q904.7313,549.2754 904.1219,549.2754 L902.4031,549.2754 Z " fill="#000000"/><text fill="#000000" font-family="sans-serif" font-size="14" font-style="italic" lengthAdjust="spacing" textLength="145" x="915.55" y="558.4316">JobOpeningRepository</text><line style="stroke:#000000;stroke-width:0.5;" x1="887" x2="1063" y1="568.6348" y2="568.6348"/><line style="stroke:#000000;stroke-width:0.5;" x1="887" x2="1063" y1="576.6348" y2="576.6348"/><ellipse cx="897" cy="591.4453" fill="#84BE84" rx="3" ry="3" style="stroke:#038048;stroke-width:1.0;"/><text fill="#000000" font-family="sans-serif" font-size="14" lengthAdjust="spacing" textLength="107" x="906" y="595.7422">allJobOpenings()</text><ellipse cx="897" cy="610.0664" fill="#84BE84" rx="3" ry="3" style="stroke:#038048;stroke-width:1.0;"/><text fill="#000000" font-family="sans-serif" font-size="14" lengthAdjust="spacing" textLength="152" x="906" y="614.3633">ofIdentity(jobReference)</text></g><!--class JobInterviewRepository--><g id="elem_JobInterviewRepository"><rect codeLine="42" fill="#FFFFFF" height="66.6211" id="JobInterviewRepository" rx="2.5" ry="2.5" style="stroke:#000000;stroke-width:0.5;" width="178" x="1099" y="545.6348"/><ellipse cx="1114" cy="561.6348" fill="#B4A7E5" rx="11" ry="11" style="stroke:#181818;stroke-width:1.0;"/><path d="M1114.9531,558.2754 L1114.9531,564.9316 L1116.6719,564.9316 Q1117.2813,564.9316 1117.5469,565.166 Q1117.8125,565.4004 1117.8125,565.791 Q1117.8125,566.166 1117.5469,566.4004 Q1117.2813,566.6348 1116.6719,566.6348 L1111.5313,566.6348 Q1110.9219,566.6348 1110.6563,566.4004 Q1110.3906,566.166 1110.3906,565.7754 Q1110.3906,565.4004 1110.6563,565.166 Q1110.9219,564.9316 1111.5313,564.9316 L1113.25,564.9316 L1113.25,558.2754 L1111.5313,558.2754 Q1110.9219,558.2754 1110.6563,558.041 Q1110.3906,557.8066 1110.3906,557.416 Q1110.3906,557.041 1110.6563,556.8066 Q1110.9219,556.5723 1111.5313,556.5723 L1116.6719,556.5723 Q1117.2813,556.5723 1117.5469,556.8066 Q1117.8125,557.041 1117.8125,557.416 Q1117.8125,557.8066 1117.5469,558.041 Q1117.2813,558.2754 1116.6719,558.2754 L1114.9531,558.2754 Z " fill="#000000"/><text fill="#000000" font-family="sans-serif" font-size="14" font-style="italic" lengthAdjust="spacing" textLength="146" x="1128" y="567.4316">JobInterviewRepository</text><line style="stroke:#000000;stroke-width:0.5;" x1="1100" x2="1276" y1="577.6348" y2="577.6348"/><line style="stroke:#000000;stroke-width:0.5;" x1="1100" x2="1276" y1="585.6348" y2="585.6348"/><ellipse cx="1110" cy="600.4453" fill="#84BE84" rx="3" ry="3" style="stroke:#038048;stroke-width:1.0;"/><text fill="#000000" font-family="sans-serif" font-size="14" lengthAdjust="spacing" textLength="86" x="1119" y="604.7422">allInterviews()</text></g><!--class Application--><g id="elem_Application"><rect codeLine="48" fill="#FFFFFF" height="327.3164" id="Application" rx="2.5" ry="2.5" style="stroke:#000000;stroke-width:0.5;" width="539" x="22.5" y="725.6348"/><ellipse cx="253.25" cy="741.6348" fill="#ADD1B2" rx="11" ry="11" style="stroke:#181818;stroke-width:1.0;"/><path d="M256.0156,737.5098 Q256.1719,737.291 256.3594,737.1816 Q256.5469,737.0723 256.7656,737.0723 Q257.1406,737.0723 257.375,737.3379 Q257.6094,737.5879 257.6094,738.1973 L257.6094,739.6504 Q257.6094,740.2598 257.375,740.5254 Q257.1406,740.791 256.7656,740.791 Q256.4219,740.791 256.2188,740.5879 Q256.0156,740.4004 255.9063,739.8848 Q255.8594,739.5254 255.6719,739.3379 Q255.3438,738.9629 254.7344,738.7441 Q254.125,738.5254 253.5,738.5254 Q252.7344,738.5254 252.0938,738.8535 Q251.4688,739.1816 250.9688,739.9316 Q250.4844,740.6816 250.4844,741.7129 L250.4844,742.8066 Q250.4844,744.041 251.375,744.8691 Q252.2656,745.6816 253.8594,745.6816 Q254.7969,745.6816 255.4531,745.4316 Q255.8438,745.2754 256.2656,744.8379 Q256.5313,744.5723 256.6719,744.4941 Q256.8281,744.416 257.0313,744.416 Q257.3594,744.416 257.6094,744.6816 Q257.875,744.9316 257.875,745.2754 Q257.875,745.6191 257.5313,746.0254 Q257.0313,746.6035 256.2344,746.9316 Q255.1563,747.3848 253.8594,747.3848 Q252.3438,747.3848 251.1406,746.7598 Q250.1563,746.2598 249.4688,745.1973 Q248.7813,744.1191 248.7813,742.8379 L248.7813,741.6816 Q248.7813,740.3535 249.3906,739.2129 Q250.0156,738.0566 251.1094,737.4473 Q252.2031,736.8223 253.4375,736.8223 Q254.1719,736.8223 254.8125,736.9941 Q255.4688,737.1504 256.0156,737.5098 Z " fill="#000000"/><text fill="#000000" font-family="sans-serif" font-size="14" lengthAdjust="spacing" textLength="69" x="273.75" y="747.4316">Application</text><line style="stroke:#000000;stroke-width:0.5;" x1="23.5" x2="560.5" y1="757.6348" y2="757.6348"/><line style="stroke:#000000;stroke-width:0.5;" x1="23.5" x2="560.5" y1="765.6348" y2="765.6348"/><ellipse cx="33.5" cy="780.4453" fill="#84BE84" rx="3" ry="3" style="stroke:#038048;stroke-width:1.0;"/><text fill="#000000" font-family="sans-serif" font-size="14" lengthAdjust="spacing" textLength="513" x="42.5" y="784.7422">Application(rank, createdOn, applicationFiles, jobReference, candidate, operator)</text><ellipse cx="33.5" cy="799.0664" fill="#84BE84" rx="3" ry="3" style="stroke:#038048;stroke-width:1.0;"/><text fill="#000000" font-family="sans-serif" font-size="14" lengthAdjust="spacing" textLength="162" x="42.5" y="803.3633">sameAs(otherApplication)</text><ellipse cx="33.5" cy="817.6875" fill="#84BE84" rx="3" ry="3" style="stroke:#038048;stroke-width:1.0;"/><text fill="#000000" font-family="sans-serif" font-size="14" lengthAdjust="spacing" textLength="154" x="42.5" y="821.9844">equals(otherApplication)</text><ellipse cx="33.5" cy="836.3086" fill="#84BE84" rx="3" ry="3" style="stroke:#038048;stroke-width:1.0;"/><text fill="#000000" font-family="sans-serif" font-size="14" lengthAdjust="spacing" textLength="75" x="42.5" y="840.6055">hashCode()</text><ellipse cx="33.5" cy="854.9297" fill="#84BE84" rx="3" ry="3" style="stroke:#038048;stroke-width:1.0;"/><text fill="#000000" font-family="sans-serif" font-size="14" lengthAdjust="spacing" textLength="184" x="42.5" y="859.2266">compareTo(otherApplication)</text><ellipse cx="33.5" cy="873.5508" fill="#84BE84" rx="3" ry="3" style="stroke:#038048;stroke-width:1.0;"/><text fill="#000000" font-family="sans-serif" font-size="14" lengthAdjust="spacing" textLength="55" x="42.5" y="877.8477">identity()</text><ellipse cx="33.5" cy="892.1719" fill="#84BE84" rx="3" ry="3" style="stroke:#038048;stroke-width:1.0;"/><text fill="#000000" font-family="sans-serif" font-size="14" lengthAdjust="spacing" textLength="38" x="42.5" y="896.4688">rank()</text><ellipse cx="33.5" cy="910.793" fill="#84BE84" rx="3" ry="3" style="stroke:#038048;stroke-width:1.0;"/><text fill="#000000" font-family="sans-serif" font-size="14" lengthAdjust="spacing" textLength="110" x="42.5" y="915.0898">submissionDate()</text><ellipse cx="33.5" cy="929.4141" fill="#84BE84" rx="3" ry="3" style="stroke:#038048;stroke-width:1.0;"/><text fill="#000000" font-family="sans-serif" font-size="14" lengthAdjust="spacing" textLength="48" x="42.5" y="933.7109">status()</text><ellipse cx="33.5" cy="948.0352" fill="#84BE84" rx="3" ry="3" style="stroke:#038048;stroke-width:1.0;"/><text fill="#000000" font-family="sans-serif" font-size="14" lengthAdjust="spacing" textLength="61" x="42.5" y="952.332">dataFile()</text><ellipse cx="33.5" cy="966.6563" fill="#84BE84" rx="3" ry="3" style="stroke:#038048;stroke-width:1.0;"/><text fill="#000000" font-family="sans-serif" font-size="14" lengthAdjust="spacing" textLength="64" x="42.5" y="970.9531">operator()</text><ellipse cx="33.5" cy="985.2773" fill="#84BE84" rx="3" ry="3" style="stroke:#038048;stroke-width:1.0;"/><text fill="#000000" font-family="sans-serif" font-size="14" lengthAdjust="spacing" textLength="72" x="42.5" y="989.5742">candidate()</text><ellipse cx="33.5" cy="1003.8984" fill="#84BE84" rx="3" ry="3" style="stroke:#038048;stroke-width:1.0;"/><text fill="#000000" font-family="sans-serif" font-size="14" lengthAdjust="spacing" textLength="95" x="42.5" y="1008.1953">jobReference()</text><ellipse cx="33.5" cy="1022.5195" fill="#84BE84" rx="3" ry="3" style="stroke:#038048;stroke-width:1.0;"/><text fill="#000000" font-family="sans-serif" font-size="14" lengthAdjust="spacing" textLength="115" x="42.5" y="1026.8164">updateRank(rank)</text><ellipse cx="33.5" cy="1041.1406" fill="#84BE84" rx="3" ry="3" style="stroke:#038048;stroke-width:1.0;"/><text fill="#000000" font-family="sans-serif" font-size="14" lengthAdjust="spacing" textLength="59" x="42.5" y="1045.4375">toString()</text></g><!--class JobOpening--><g id="elem_JobOpening"><rect codeLine="66" fill="#FFFFFF" height="252.832" id="JobOpening" rx="2.5" ry="2.5" style="stroke:#000000;stroke-width:0.5;" width="756" x="597" y="762.6348"/><ellipse cx="932.75" cy="778.6348" fill="#ADD1B2" rx="11" ry="11" style="stroke:#181818;stroke-width:1.0;"/><path d="M935.5156,774.5098 Q935.6719,774.291 935.8594,774.1816 Q936.0469,774.0723 936.2656,774.0723 Q936.6406,774.0723 936.875,774.3379 Q937.1094,774.5879 937.1094,775.1973 L937.1094,776.6504 Q937.1094,777.2598 936.875,777.5254 Q936.6406,777.791 936.2656,777.791 Q935.9219,777.791 935.7188,777.5879 Q935.5156,777.4004 935.4063,776.8848 Q935.3594,776.5254 935.1719,776.3379 Q934.8438,775.9629 934.2344,775.7441 Q933.625,775.5254 933,775.5254 Q932.2344,775.5254 931.5938,775.8535 Q930.9688,776.1816 930.4688,776.9316 Q929.9844,777.6816 929.9844,778.7129 L929.9844,779.8066 Q929.9844,781.041 930.875,781.8691 Q931.7656,782.6816 933.3594,782.6816 Q934.2969,782.6816 934.9531,782.4316 Q935.3438,782.2754 935.7656,781.8379 Q936.0313,781.5723 936.1719,781.4941 Q936.3281,781.416 936.5313,781.416 Q936.8594,781.416 937.1094,781.6816 Q937.375,781.9316 937.375,782.2754 Q937.375,782.6191 937.0313,783.0254 Q936.5313,783.6035 935.7344,783.9316 Q934.6563,784.3848 933.3594,784.3848 Q931.8438,784.3848 930.6406,783.7598 Q929.6563,783.2598 928.9688,782.1973 Q928.2813,781.1191 928.2813,779.8379 L928.2813,778.6816 Q928.2813,777.3535 928.8906,776.2129 Q929.5156,775.0566 930.6094,774.4473 Q931.7031,773.8223 932.9375,773.8223 Q933.6719,773.8223 934.3125,773.9941 Q934.9688,774.1504 935.5156,774.5098 Z " fill="#000000"/><text fill="#000000" font-family="sans-serif" font-size="14" lengthAdjust="spacing" textLength="76" x="953.25" y="784.4316">JobOpening</text><line style="stroke:#000000;stroke-width:0.5;" x1="598" x2="1352" y1="794.6348" y2="794.6348"/><line style="stroke:#000000;stroke-width:0.5;" x1="598" x2="1352" y1="802.6348" y2="802.6348"/><ellipse cx="608" cy="817.4453" fill="#84BE84" rx="3" ry="3" style="stroke:#038048;stroke-width:1.0;"/><text fill="#000000" font-family="sans-serif" font-size="14" lengthAdjust="spacing" textLength="730" x="617" y="821.7422">JobOpening(jobReference, description, vacanciesNumber, address, mode, contractType, titleOrFunction, Company)</text><ellipse cx="608" cy="836.0664" fill="#84BE84" rx="3" ry="3" style="stroke:#038048;stroke-width:1.0;"/><text fill="#000000" font-family="sans-serif" font-size="14" lengthAdjust="spacing" textLength="55" x="617" y="840.3633">identity()</text><ellipse cx="608" cy="854.6875" fill="#84BE84" rx="3" ry="3" style="stroke:#038048;stroke-width:1.0;"/><text fill="#000000" font-family="sans-serif" font-size="14" lengthAdjust="spacing" textLength="169" x="617" y="858.9844">sameAs(otherJobOpening)</text><ellipse cx="608" cy="873.3086" fill="#84BE84" rx="3" ry="3" style="stroke:#038048;stroke-width:1.0;"/><text fill="#000000" font-family="sans-serif" font-size="14" lengthAdjust="spacing" textLength="95" x="617" y="877.6055">jobReference()</text><ellipse cx="608" cy="891.9297" fill="#84BE84" rx="3" ry="3" style="stroke:#038048;stroke-width:1.0;"/><text fill="#000000" font-family="sans-serif" font-size="14" lengthAdjust="spacing" textLength="79" x="617" y="896.2266">description()</text><ellipse cx="608" cy="910.5508" fill="#84BE84" rx="3" ry="3" style="stroke:#038048;stroke-width:1.0;"/><text fill="#000000" font-family="sans-serif" font-size="14" lengthAdjust="spacing" textLength="122" x="617" y="914.8477">vacanciesNumber()</text><ellipse cx="608" cy="929.1719" fill="#84BE84" rx="3" ry="3" style="stroke:#038048;stroke-width:1.0;"/><text fill="#000000" font-family="sans-serif" font-size="14" lengthAdjust="spacing" textLength="61" x="617" y="933.4688">address()</text><ellipse cx="608" cy="947.793" fill="#84BE84" rx="3" ry="3" style="stroke:#038048;stroke-width:1.0;"/><text fill="#000000" font-family="sans-serif" font-size="14" lengthAdjust="spacing" textLength="45" x="617" y="952.0898">mode()</text><ellipse cx="608" cy="966.4141" fill="#84BE84" rx="3" ry="3" style="stroke:#038048;stroke-width:1.0;"/><text fill="#000000" font-family="sans-serif" font-size="14" lengthAdjust="spacing" textLength="93" x="617" y="970.7109">contractType()</text><ellipse cx="608" cy="985.0352" fill="#84BE84" rx="3" ry="3" style="stroke:#038048;stroke-width:1.0;"/><text fill="#000000" font-family="sans-serif" font-size="14" lengthAdjust="spacing" textLength="103" x="617" y="989.332">titleOrFunction()</text><ellipse cx="608" cy="1003.6563" fill="#84BE84" rx="3" ry="3" style="stroke:#038048;stroke-width:1.0;"/><text fill="#000000" font-family="sans-serif" font-size="14" lengthAdjust="spacing" textLength="67" x="617" y="1007.9531">company()</text></g><!--class JobInterview--><g id="elem_JobInterview"><rect codeLine="80" fill="#FFFFFF" height="271.4531" id="JobInterview" rx="2.5" ry="2.5" style="stroke:#000000;stroke-width:0.5;" width="477" x="1388.5" y="753.6348"/><ellipse cx="1584.25" cy="769.6348" fill="#ADD1B2" rx="11" ry="11" style="stroke:#181818;stroke-width:1.0;"/><path d="M1587.0156,765.5098 Q1587.1719,765.291 1587.3594,765.1816 Q1587.5469,765.0723 1587.7656,765.0723 Q1588.1406,765.0723 1588.375,765.3379 Q1588.6094,765.5879 1588.6094,766.1973 L1588.6094,767.6504 Q1588.6094,768.2598 1588.375,768.5254 Q1588.1406,768.791 1587.7656,768.791 Q1587.4219,768.791 1587.2188,768.5879 Q1587.0156,768.4004 1586.9063,767.8848 Q1586.8594,767.5254 1586.6719,767.3379 Q1586.3438,766.9629 1585.7344,766.7441 Q1585.125,766.5254 1584.5,766.5254 Q1583.7344,766.5254 1583.0938,766.8535 Q1582.4688,767.1816 1581.9688,767.9316 Q1581.4844,768.6816 1581.4844,769.7129 L1581.4844,770.8066 Q1581.4844,772.041 1582.375,772.8691 Q1583.2656,773.6816 1584.8594,773.6816 Q1585.7969,773.6816 1586.4531,773.4316 Q1586.8438,773.2754 1587.2656,772.8379 Q1587.5313,772.5723 1587.6719,772.4941 Q1587.8281,772.416 1588.0313,772.416 Q1588.3594,772.416 1588.6094,772.6816 Q1588.875,772.9316 1588.875,773.2754 Q1588.875,773.6191 1588.5313,774.0254 Q1588.0313,774.6035 1587.2344,774.9316 Q1586.1563,775.3848 1584.8594,775.3848 Q1583.3438,775.3848 1582.1406,774.7598 Q1581.1563,774.2598 1580.4688,773.1973 Q1579.7813,772.1191 1579.7813,770.8379 L1579.7813,769.6816 Q1579.7813,768.3535 1580.3906,767.2129 Q1581.0156,766.0566 1582.1094,765.4473 Q1583.2031,764.8223 1584.4375,764.8223 Q1585.1719,764.8223 1585.8125,764.9941 Q1586.4688,765.1504 1587.0156,765.5098 Z " fill="#000000"/><text fill="#000000" font-family="sans-serif" font-size="14" lengthAdjust="spacing" textLength="77" x="1604.75" y="775.4316">JobInterview</text><line style="stroke:#000000;stroke-width:0.5;" x1="1389.5" x2="1864.5" y1="785.6348" y2="785.6348"/><line style="stroke:#000000;stroke-width:0.5;" x1="1389.5" x2="1864.5" y1="793.6348" y2="793.6348"/><ellipse cx="1399.5" cy="808.4453" fill="#84BE84" rx="3" ry="3" style="stroke:#038048;stroke-width:1.0;"/><text fill="#000000" font-family="sans-serif" font-size="14" lengthAdjust="spacing" textLength="451" x="1408.5" y="812.7422">JobInterview(createdOn, time, score, result, application, interviewModel)</text><ellipse cx="1399.5" cy="827.0664" fill="#84BE84" rx="3" ry="3" style="stroke:#038048;stroke-width:1.0;"/><text fill="#000000" font-family="sans-serif" font-size="14" lengthAdjust="spacing" textLength="55" x="1408.5" y="831.3633">identity()</text><ellipse cx="1399.5" cy="845.6875" fill="#84BE84" rx="3" ry="3" style="stroke:#038048;stroke-width:1.0;"/><text fill="#000000" font-family="sans-serif" font-size="14" lengthAdjust="spacing" textLength="77" x="1408.5" y="849.9844">createdOn()</text><ellipse cx="1399.5" cy="864.3086" fill="#84BE84" rx="3" ry="3" style="stroke:#038048;stroke-width:1.0;"/><text fill="#000000" font-family="sans-serif" font-size="14" lengthAdjust="spacing" textLength="36" x="1408.5" y="868.6055">time()</text><ellipse cx="1399.5" cy="882.9297" fill="#84BE84" rx="3" ry="3" style="stroke:#038048;stroke-width:1.0;"/><text fill="#000000" font-family="sans-serif" font-size="14" lengthAdjust="spacing" textLength="45" x="1408.5" y="887.2266">score()</text><ellipse cx="1399.5" cy="901.5508" fill="#84BE84" rx="3" ry="3" style="stroke:#038048;stroke-width:1.0;"/><text fill="#000000" font-family="sans-serif" font-size="14" lengthAdjust="spacing" textLength="45" x="1408.5" y="905.8477">result()</text><ellipse cx="1399.5" cy="920.1719" fill="#84BE84" rx="3" ry="3" style="stroke:#038048;stroke-width:1.0;"/><text fill="#000000" font-family="sans-serif" font-size="14" lengthAdjust="spacing" textLength="78" x="1408.5" y="924.4688">application()</text><ellipse cx="1399.5" cy="938.793" fill="#84BE84" rx="3" ry="3" style="stroke:#038048;stroke-width:1.0;"/><text fill="#000000" font-family="sans-serif" font-size="14" lengthAdjust="spacing" textLength="103" x="1408.5" y="943.0898">interviewModel()</text><ellipse cx="1399.5" cy="957.4141" fill="#84BE84" rx="3" ry="3" style="stroke:#038048;stroke-width:1.0;"/><text fill="#000000" font-family="sans-serif" font-size="14" lengthAdjust="spacing" textLength="310" x="1408.5" y="961.7109">changeInterviewModel(interviewModelToChange)</text><ellipse cx="1399.5" cy="976.0352" fill="#84BE84" rx="3" ry="3" style="stroke:#038048;stroke-width:1.0;"/><text fill="#000000" font-family="sans-serif" font-size="14" lengthAdjust="spacing" textLength="75" x="1408.5" y="980.332">hashCode()</text><ellipse cx="1399.5" cy="994.6563" fill="#84BE84" rx="3" ry="3" style="stroke:#038048;stroke-width:1.0;"/><text fill="#000000" font-family="sans-serif" font-size="14" lengthAdjust="spacing" textLength="134" x="1408.5" y="998.9531">sameAs(otherObject)</text><ellipse cx="1399.5" cy="1013.2773" fill="#84BE84" rx="3" ry="3" style="stroke:#038048;stroke-width:1.0;"/><text fill="#000000" font-family="sans-serif" font-size="14" lengthAdjust="spacing" textLength="126" x="1408.5" y="1017.5742">equals(jobInterview)</text></g><!--link RankCandidatesUI to RankCandidatesController--><g id="link_RankCandidatesUI_RankCandidatesController"><path codeLine="96" d="M975,242.6448 C975,270.8848 975,296.2148 975,322.5948 " fill="none" id="RankCandidatesUI-to-RankCandidatesController" style="stroke:#000000;stroke-width:1.0;"/><polygon fill="#000000" points="975,328.5948,979,319.5948,975,323.5948,971,319.5948,975,328.5948" style="stroke:#000000;stroke-width:1.0;"/></g><!--link RankCandidatesController to ApplicationRepository--><g id="link_RankCandidatesController_ApplicationRepository"><path codeLine="98" d="M907.69,450.7348 C876.38,478.6948 844.386,507.2591 816.156,532.4591 " fill="none" id="RankCandidatesController-to-ApplicationRepository" style="stroke:#000000;stroke-width:1.0;"/><polygon fill="#000000" points="811.68,536.4548,821.0578,533.4454,815.41,533.1251,815.7303,527.4773,811.68,536.4548" style="stroke:#000000;stroke-width:1.0;"/></g><!--link RankCandidatesController to JobOpeningRepository--><g id="link_RankCandidatesController_JobOpeningRepository"><path codeLine="99" d="M975,450.7348 C975,478.6948 975,505.2548 975,530.4548 " fill="none" id="RankCandidatesController-to-JobOpeningRepository" style="stroke:#000000;stroke-width:1.0;"/><polygon fill="#000000" points="975,536.4548,979,527.4548,975,531.4548,971,527.4548,975,536.4548" style="stroke:#000000;stroke-width:1.0;"/></g><!--link RankCandidatesController to JobInterviewRepository--><g id="link_RankCandidatesController_JobInterviewRepository"><path codeLine="100" d="M1043.27,450.7348 C1078.93,482.1148 1116.6667,515.3399 1146.2767,541.4099 " fill="none" id="RankCandidatesController-to-JobInterviewRepository" style="stroke:#000000;stroke-width:1.0;"/><polygon fill="#000000" points="1150.78,545.3748,1146.6683,536.4252,1147.0273,542.0707,1141.3818,542.4296,1150.78,545.3748" style="stroke:#000000;stroke-width:1.0;"/></g><!--link ApplicationRepository to Application--><g id="link_ApplicationRepository_Application"><path codeLine="102" d="M683.14,621.7348 C650.51,639.0548 612.96,659.9248 580,680.6348 C557.56,694.7348 539.4942,706.5601 516.7042,722.1301 " fill="none" id="ApplicationRepository-to-Application" style="stroke:#000000;stroke-width:1.0;"/><polygon fill="#000000" points="511.75,725.5148,521.4377,723.7405,515.8785,722.6942,516.9248,717.135,511.75,725.5148" style="stroke:#000000;stroke-width:1.0;"/><text fill="#000000" font-family="sans-serif" font-size="13" lengthAdjust="spacing" textLength="36" x="625" y="668.6631">stores</text></g><!--link JobOpeningRepository to JobOpening--><g id="link_JobOpeningRepository_JobOpening"><path codeLine="103" d="M975,621.6748 C975,657.8748 975,706.3248 975,756.5748 " fill="none" id="JobOpeningRepository-to-JobOpening" style="stroke:#000000;stroke-width:1.0;"/><polygon fill="#000000" points="975,762.5748,979,753.5748,975,757.5748,971,753.5748,975,762.5748" style="stroke:#000000;stroke-width:1.0;"/><text fill="#000000" font-family="sans-serif" font-size="13" lengthAdjust="spacing" textLength="36" x="976" y="668.6631">stores</text></g><!--link JobInterviewRepository to JobInterview--><g id="link_JobInterviewRepository_JobInterview"><path codeLine="104" d="M1254.03,612.7448 C1289.59,631.2048 1333.69,655.5648 1371,680.6348 C1404,702.8148 1433.2442,724.5225 1465.2042,749.8025 " fill="none" id="JobInterviewRepository-to-JobInterview" style="stroke:#000000;stroke-width:1.0;"/><polygon fill="#000000" points="1469.91,753.5248,1465.3328,744.8042,1465.9885,750.4229,1460.3698,751.0786,1469.91,753.5248" style="stroke:#000000;stroke-width:1.0;"/><text fill="#000000" font-family="sans-serif" font-size="13" lengthAdjust="spacing" textLength="36" x="1357" y="668.6631">stores</text></g><!--SRC=[ZLR1Rjim3BtxAuIUF2mv3DXfXm6fYm0PjWL8C-oiIAojLfOyIMwH5VttKN4IYwwTB8S4fKZnlKUHh7zIfk6ErqnexZrxpHX-RhbuAfrjZIoijexzhbI0myd2EVlI6MyrUdNkrabmG-lIcZ1ckrT_WNtwdBrbsLO53UocEAI-KxoCGEPi0wNo0HpZJ70ZbUG1RhAimLjuYVwD0mycyA2ikJb2xk1lk7agJY7-r-fu63yVcRJtbNt9FoIc2hZKoW0nUj0WmZUxMpTWb2b73XTDevKu0CWx2yW-8FKl8NpdFjwsCaZfMS7BEIAv9GrfcuW-KiaTVitOfFzR5F4i2- -FBwbIO0sSrHhrVQL05rht97m-e95azqlh4dqUfvYVASU0L3F-dypvPSOE6kjLi4w1Fr5MCUS35y2IX9kJuvvmvbgdh0XZ-x2I-CXKsATeL_A4Ov2ibsCwrvIuIIgKSWCFuC08cCvqrdKwLozzFgQSj3LNWsUII45kImlNbKKum3h9jI4LMYeDViPI2hE-WMVCDk0uOYNjn6jO-Do62jn4Ey2VbklBBXNtLM4bRMDXQvniiBKNGzL9-TGOMTAkRtUryXvZxv0AFS8vrD9w8bqUnQ15FhAd64_g46kgO7wXFzAZOE-3wuVLyTLqXUtV7QahxU2aPXAySAg9KitOCqUG0XliPrllm675fSJvYuMkKN4iS1mdN8Jjli6_GfpeQxTiZUZ2YrW5ixygUVeGnYVff2e9N68V82TdHnB4Lhz_GJqrSZ1W-VxPcVr47SvjEQn4lnsIvWggHaszi0v_46-h0-cuMJSMOjWF1A-lgdo-Uq2d7hpfc95sn24vbJ0P2oGnWKJJLzoKiA8Er7zhYuFJrVPE7ynwzuWBScHeF2R29cFmtRy9y_dNoIqvT4_sPmmRtJANGyPsnTM8aPcVPUChRW2BVS4XXGNrsUYIeeY8yzYU6SBf0_u1]--></g></svg>