<?xml version="1.0" encoding="us-ascii" standalone="no"?><svg xmlns="http://www.w3.org/2000/svg" xmlns:xlink="http://www.w3.org/1999/xlink" contentStyleType="text/css" height="1692.9px" preserveAspectRatio="none" style="width:1278px;height:1692px;background:#FFFFFF;" version="1.1" viewBox="0 0 1278 1692" width="1278px" zoomAndPan="magnify"><defs/><g><text fill="#000000" font-family="sans-serif" font-size="12.6" font-weight="bold" lengthAdjust="spacing" textLength="227.7" x="518.85" y="22.5967">Domain Model - Ranking Candidates</text><!--cluster Job Opening Aggregate--><g id="cluster_Job Opening Aggregate"><path d="M7.65,41.0713 L158.85,41.0713 A3.375,3.375 0 0 1 161.1,43.3213 L167.4,63.2303 L541.35,63.2303 A2.25,2.25 0 0 1 543.6,65.4803 L543.6,547.3213 A2.25,2.25 0 0 1 541.35,549.5713 L7.65,549.5713 A2.25,2.25 0 0 1 5.4,547.3213 L5.4,43.3213 A2.25,2.25 0 0 1 7.65,41.0713 " fill="none" style="stroke:#000000;stroke-width:1.35;"/><line style="stroke:#000000;stroke-width:1.35;" x1="5.4" x2="167.4" y1="63.2303" y2="63.2303"/><text fill="#000000" font-family="sans-serif" font-size="12.6" font-weight="bold" lengthAdjust="spacing" textLength="150.3" x="9" y="56.468">Job Opening Aggregate</text></g><!--cluster JobInterview Aggregate--><g id="cluster_JobInterview Aggregate"><path d="M689.4,890.6713 L842.4,890.6713 A3.375,3.375 0 0 1 844.65,892.9213 L850.95,912.8303 L1100.7,912.8303 A2.25,2.25 0 0 1 1102.95,915.0803 L1102.95,1186.3213 A2.25,2.25 0 0 1 1100.7,1188.5713 L689.4,1188.5713 A2.25,2.25 0 0 1 687.15,1186.3213 L687.15,892.9213 A2.25,2.25 0 0 1 689.4,890.6713 " fill="none" style="stroke:#000000;stroke-width:1.35;"/><line style="stroke:#000000;stroke-width:1.35;" x1="687.15" x2="850.95" y1="912.8303" y2="912.8303"/><text fill="#000000" font-family="sans-serif" font-size="12.6" font-weight="bold" lengthAdjust="spacing" textLength="152.1" x="690.75" y="906.068">JobInterview Aggregate</text></g><!--cluster Application Aggregate--><g id="cluster_Application Aggregate"><path d="M194.4,571.1713 L334.8,571.1713 A3.375,3.375 0 0 1 337.05,573.4213 L343.35,593.3303 L927.45,593.3303 A2.25,2.25 0 0 1 929.7,595.5803 L929.7,866.8213 A2.25,2.25 0 0 1 927.45,869.0713 L194.4,869.0713 A2.25,2.25 0 0 1 192.15,866.8213 L192.15,573.4213 A2.25,2.25 0 0 1 194.4,571.1713 " fill="none" style="stroke:#000000;stroke-width:1.35;"/><line style="stroke:#000000;stroke-width:1.35;" x1="192.15" x2="343.35" y1="593.3303" y2="593.3303"/><text fill="#000000" font-family="sans-serif" font-size="12.6" font-weight="bold" lengthAdjust="spacing" textLength="139.5" x="195.75" y="586.568">Application Aggregate</text></g><!--cluster Candidate Aggregate--><g id="cluster_Candidate Aggregate"><path d="M694.8,1210.1713 L828.9,1210.1713 A3.375,3.375 0 0 1 831.15,1212.4213 L837.45,1232.3303 L1107.45,1232.3303 A2.25,2.25 0 0 1 1109.7,1234.5803 L1109.7,1365.4213 A2.25,2.25 0 0 1 1107.45,1367.6713 L694.8,1367.6713 A2.25,2.25 0 0 1 692.55,1365.4213 L692.55,1212.4213 A2.25,2.25 0 0 1 694.8,1210.1713 " fill="none" style="stroke:#000000;stroke-width:1.35;"/><line style="stroke:#000000;stroke-width:1.35;" x1="692.55" x2="837.45" y1="1232.3303" y2="1232.3303"/><text fill="#000000" font-family="sans-serif" font-size="12.6" font-weight="bold" lengthAdjust="spacing" textLength="133.2" x="696.15" y="1225.568">Candidate Aggregate</text></g><!--cluster User Aggregate--><g id="cluster_User Aggregate"><path d="M989.55,1389.2713 L1089.45,1389.2713 A3.375,3.375 0 0 1 1091.7,1391.5213 L1098,1411.4303 L1269.45,1411.4303 A2.25,2.25 0 0 1 1271.7,1413.6803 L1271.7,1684.9213 A2.25,2.25 0 0 1 1269.45,1687.1713 L989.55,1687.1713 A2.25,2.25 0 0 1 987.3,1684.9213 L987.3,1391.5213 A2.25,2.25 0 0 1 989.55,1389.2713 " fill="none" style="stroke:#000000;stroke-width:1.35;"/><line style="stroke:#000000;stroke-width:1.35;" x1="987.3" x2="1098" y1="1411.4303" y2="1411.4303"/><text fill="#000000" font-family="sans-serif" font-size="12.6" font-weight="bold" lengthAdjust="spacing" textLength="99" x="990.9" y="1404.668">User Aggregate</text></g><!--class JobOpening--><g id="elem_JobOpening"><rect codeLine="15" fill="#F0FFFF" height="61.6887" id="JobOpening" rx="2.25" ry="2.25" style="stroke:#000000;stroke-width:0.45;" width="97.2" x="19.8" y="308.8213"/><ellipse cx="33.3" cy="336.0656" fill="#ADD1B2" rx="9.9" ry="9.9" style="stroke:#181818;stroke-width:0.9;"/><path d="M32.2734,336.7828 L32.2734,339.0328 L36.1688,339.0328 L36.1688,338.2031 Q36.1688,337.6547 36.3797,337.4156 Q36.6047,337.1766 36.9422,337.1766 Q37.2797,337.1766 37.4906,337.4156 Q37.7016,337.6547 37.7016,338.2031 L37.7016,340.5656 L30.5016,340.5656 Q29.9391,340.5656 29.7,340.3547 Q29.475,340.1438 29.475,339.7922 Q29.475,339.4547 29.7141,339.2438 Q29.9531,339.0328 30.5016,339.0328 L30.7406,339.0328 L30.7406,333.0422 L30.5016,333.0422 Q29.9391,333.0422 29.7,332.8313 Q29.475,332.6203 29.475,332.2688 Q29.475,331.9313 29.7,331.7203 Q29.9391,331.5094 30.5016,331.5094 L37.3641,331.5094 L37.3641,333.8438 Q37.3641,334.3922 37.1531,334.6313 Q36.9563,334.8563 36.6047,334.8563 Q36.2672,334.8563 36.0563,334.6313 Q35.8453,334.3922 35.8453,333.8438 L35.8453,333.0422 L32.2734,333.0422 L32.2734,335.25 L33.6094,335.25 Q33.6094,334.6594 33.7219,334.4906 Q33.9609,334.125 34.3828,334.125 Q34.7203,334.125 34.9313,334.3641 Q35.1422,334.5891 35.1422,335.1375 L35.1422,336.9094 Q35.1422,337.4016 35.0297,337.5703 Q34.7906,337.9219 34.3828,337.9219 Q33.9609,337.9219 33.7219,337.5563 Q33.6094,337.3875 33.6094,336.7828 L32.2734,336.7828 Z " fill="#000000"/><text fill="#000000" font-family="sans-serif" font-size="10.8" font-style="italic" lengthAdjust="spacing" textLength="38.7" x="60.75" y="324.9756">&#171;entity&#187;</text><text fill="#000000" font-family="sans-serif" font-size="10.8" font-style="italic" lengthAdjust="spacing" textLength="31.5" x="64.35" y="339.3404">&#171;root&#187;</text><text fill="#000000" font-family="sans-serif" font-size="12.6" lengthAdjust="spacing" textLength="68.4" x="45.9" y="355.6477">JobOpening</text><line style="stroke:#000000;stroke-width:0.45;" x1="20.7" x2="116.1" y1="363.31" y2="363.31"/></g><g id="elem_GMN18"><path d="M367.2,356.9713 L367.2,377.1853 L304.74,377.6083 L367.2,384.3853 L367.2,412.657 A0,0 0 0 0 367.2,412.657 L529.2,412.657 A0,0 0 0 0 529.2,412.657 L529.2,365.9713 L520.2,356.9713 L367.2,356.9713 A0,0 0 0 0 367.2,356.9713 " fill="#FEFFDD" style="stroke:#181818;stroke-width:0.45;"/><path d="M520.2,356.9713 L520.2,365.9713 L529.2,365.9713 L520.2,356.9713 " fill="#FEFFDD" style="stroke:#181818;stroke-width:0.45;"/><text fill="#000000" font-family="sans-serif" font-size="11.7" lengthAdjust="spacing" textLength="143.1" x="372.6" y="374.0968">Can be one of the following:</text><text fill="#000000" font-family="sans-serif" font-size="11.7" lengthAdjust="spacing" textLength="47.7" x="372.6" y="389.6587">- full-time</text><text fill="#000000" font-family="sans-serif" font-size="11.7" lengthAdjust="spacing" textLength="53.1" x="372.6" y="405.2206">- part-time</text></g><g id="elem_GMN21"><path d="M367.2,253.9213 L367.2,292.1893 L304.74,300.6943 L367.2,299.3893 L367.2,325.1689 A0,0 0 0 0 367.2,325.1689 L529.2,325.1689 A0,0 0 0 0 529.2,325.1689 L529.2,262.9213 L520.2,253.9213 L367.2,253.9213 A0,0 0 0 0 367.2,253.9213 " fill="#FEFFDD" style="stroke:#181818;stroke-width:0.45;"/><path d="M520.2,253.9213 L520.2,262.9213 L529.2,262.9213 L520.2,253.9213 " fill="#FEFFDD" style="stroke:#181818;stroke-width:0.45;"/><text fill="#000000" font-family="sans-serif" font-size="11.7" lengthAdjust="spacing" textLength="143.1" x="372.6" y="271.0468">Can be one of the following:</text><text fill="#000000" font-family="sans-serif" font-size="11.7" lengthAdjust="spacing" textLength="43.2" x="372.6" y="286.6087">- remote</text><text fill="#000000" font-family="sans-serif" font-size="11.7" lengthAdjust="spacing" textLength="38.7" x="372.6" y="302.1706">- hybrid</text><text fill="#000000" font-family="sans-serif" font-size="11.7" lengthAdjust="spacing" textLength="38.7" x="372.6" y="317.7325">- onsite</text></g><!--entity JobReference--><g id="elem_JobReference"><rect fill="#F1F1F1" height="38.918" rx="2.25" ry="2.25" style="stroke:#181818;stroke-width:0.45;" width="105.3" x="199.35" y="496.0213"/><text fill="#000000" font-family="sans-serif" font-size="12.6" font-style="italic" lengthAdjust="spacing" textLength="87.3" x="208.35" y="512.318">&#171;Value Object&#187;</text><text fill="#000000" font-family="sans-serif" font-size="12.6" lengthAdjust="spacing" textLength="79.2" x="212.4" y="529.077">JobReference</text></g><!--entity TitleOrFunction--><g id="elem_TitleOrFunction"><rect fill="#F1F1F1" height="38.918" rx="2.25" ry="2.25" style="stroke:#181818;stroke-width:0.45;" width="106.2" x="198.9" y="425.8213"/><text fill="#000000" font-family="sans-serif" font-size="12.6" font-style="italic" lengthAdjust="spacing" textLength="87.3" x="208.35" y="442.118">&#171;Value Object&#187;</text><text fill="#000000" font-family="sans-serif" font-size="12.6" lengthAdjust="spacing" textLength="88.2" x="207.9" y="458.877">TitleOrFunction</text></g><!--entity ContractType--><g id="elem_ContractType"><rect fill="#F1F1F1" height="38.918" rx="2.25" ry="2.25" style="stroke:#181818;stroke-width:0.45;" width="105.3" x="199.35" y="355.6213"/><text fill="#000000" font-family="sans-serif" font-size="12.6" font-style="italic" lengthAdjust="spacing" textLength="87.3" x="208.35" y="371.918">&#171;Value Object&#187;</text><text fill="#000000" font-family="sans-serif" font-size="12.6" lengthAdjust="spacing" textLength="77.4" x="213.3" y="388.677">ContractType</text></g><!--entity Mode--><g id="elem_Mode"><rect fill="#F1F1F1" height="38.918" rx="2.25" ry="2.25" style="stroke:#181818;stroke-width:0.45;" width="105.3" x="199.35" y="285.4213"/><text fill="#000000" font-family="sans-serif" font-size="12.6" font-style="italic" lengthAdjust="spacing" textLength="87.3" x="208.35" y="301.718">&#171;Value Object&#187;</text><text fill="#000000" font-family="sans-serif" font-size="12.6" lengthAdjust="spacing" textLength="31.5" x="236.25" y="318.477">Mode</text></g><!--entity Address--><g id="elem_Address"><rect fill="#F1F1F1" height="38.918" rx="2.25" ry="2.25" style="stroke:#181818;stroke-width:0.45;" width="105.3" x="199.35" y="215.2213"/><text fill="#000000" font-family="sans-serif" font-size="12.6" font-style="italic" lengthAdjust="spacing" textLength="87.3" x="208.35" y="231.518">&#171;Value Object&#187;</text><text fill="#000000" font-family="sans-serif" font-size="12.6" lengthAdjust="spacing" textLength="46.8" x="228.6" y="248.277">Address</text></g><!--entity VacanciesNumber--><g id="elem_VacanciesNumber"><rect fill="#F1F1F1" height="38.918" rx="2.25" ry="2.25" style="stroke:#181818;stroke-width:0.45;" width="120.6" x="191.7" y="145.0213"/><text fill="#000000" font-family="sans-serif" font-size="12.6" font-style="italic" lengthAdjust="spacing" textLength="87.3" x="208.35" y="161.318">&#171;Value Object&#187;</text><text fill="#000000" font-family="sans-serif" font-size="12.6" lengthAdjust="spacing" textLength="102.6" x="200.7" y="178.077">VacanciesNumber</text></g><!--entity Description--><g id="elem_Description"><rect fill="#F1F1F1" height="38.918" rx="2.25" ry="2.25" style="stroke:#181818;stroke-width:0.45;" width="105.3" x="199.35" y="74.8213"/><text fill="#000000" font-family="sans-serif" font-size="12.6" font-style="italic" lengthAdjust="spacing" textLength="87.3" x="208.35" y="91.118">&#171;Value Object&#187;</text><text fill="#000000" font-family="sans-serif" font-size="12.6" lengthAdjust="spacing" textLength="63.9" x="220.05" y="107.877">Description</text></g><!--class JobInterview--><g id="elem_JobInterview"><rect codeLine="56" fill="#F0FFFF" height="61.6887" id="JobInterview" rx="2.25" ry="2.25" style="stroke:#000000;stroke-width:0.45;" width="98.1" x="701.55" y="982.9213"/><ellipse cx="715.05" cy="1010.1656" fill="#ADD1B2" rx="9.9" ry="9.9" style="stroke:#181818;stroke-width:0.9;"/><path d="M714.0234,1010.8828 L714.0234,1013.1328 L717.9188,1013.1328 L717.9188,1012.3031 Q717.9188,1011.7547 718.1297,1011.5156 Q718.3547,1011.2766 718.6922,1011.2766 Q719.0297,1011.2766 719.2406,1011.5156 Q719.4516,1011.7547 719.4516,1012.3031 L719.4516,1014.6656 L712.2516,1014.6656 Q711.6891,1014.6656 711.45,1014.4547 Q711.225,1014.2438 711.225,1013.8922 Q711.225,1013.5547 711.4641,1013.3438 Q711.7031,1013.1328 712.2516,1013.1328 L712.4906,1013.1328 L712.4906,1007.1422 L712.2516,1007.1422 Q711.6891,1007.1422 711.45,1006.9313 Q711.225,1006.7203 711.225,1006.3688 Q711.225,1006.0313 711.45,1005.8203 Q711.6891,1005.6094 712.2516,1005.6094 L719.1141,1005.6094 L719.1141,1007.9438 Q719.1141,1008.4922 718.9031,1008.7313 Q718.7063,1008.9563 718.3547,1008.9563 Q718.0172,1008.9563 717.8063,1008.7313 Q717.5953,1008.4922 717.5953,1007.9438 L717.5953,1007.1422 L714.0234,1007.1422 L714.0234,1009.35 L715.3594,1009.35 Q715.3594,1008.7594 715.4719,1008.5906 Q715.7109,1008.225 716.1328,1008.225 Q716.4703,1008.225 716.6813,1008.4641 Q716.8922,1008.6891 716.8922,1009.2375 L716.8922,1011.0094 Q716.8922,1011.5016 716.7797,1011.6703 Q716.5406,1012.0219 716.1328,1012.0219 Q715.7109,1012.0219 715.4719,1011.6563 Q715.3594,1011.4875 715.3594,1010.8828 L714.0234,1010.8828 Z " fill="#000000"/><text fill="#000000" font-family="sans-serif" font-size="10.8" font-style="italic" lengthAdjust="spacing" textLength="38.7" x="742.95" y="999.0756">&#171;entity&#187;</text><text fill="#000000" font-family="sans-serif" font-size="10.8" font-style="italic" lengthAdjust="spacing" textLength="31.5" x="746.55" y="1013.4404">&#171;root&#187;</text><text fill="#000000" font-family="sans-serif" font-size="12.6" lengthAdjust="spacing" textLength="69.3" x="727.65" y="1029.7477">JobInterview</text><line style="stroke:#000000;stroke-width:0.45;" x1="702.45" x2="798.75" y1="1037.41" y2="1037.41"/></g><!--entity InterviewResults--><g id="elem_InterviewResults"><rect fill="#F1F1F1" height="38.918" rx="2.25" ry="2.25" style="stroke:#181818;stroke-width:0.45;" width="109.8" x="978.75" y="1135.0213"/><text fill="#000000" font-family="sans-serif" font-size="12.6" font-style="italic" lengthAdjust="spacing" textLength="87.3" x="990" y="1151.318">&#171;Value Object&#187;</text><text fill="#000000" font-family="sans-serif" font-size="12.6" lengthAdjust="spacing" textLength="91.8" x="987.75" y="1168.077">InterviewResults</text></g><!--entity Score--><g id="elem_Score"><rect fill="#F1F1F1" height="38.918" rx="2.25" ry="2.25" style="stroke:#181818;stroke-width:0.45;" width="105.3" x="981" y="1064.8213"/><text fill="#000000" font-family="sans-serif" font-size="12.6" font-style="italic" lengthAdjust="spacing" textLength="87.3" x="990" y="1081.118">&#171;Value Object&#187;</text><text fill="#000000" font-family="sans-serif" font-size="12.6" lengthAdjust="spacing" textLength="33.3" x="1017" y="1097.877">Score</text></g><!--entity InterviewTime--><g id="elem_InterviewTime"><rect fill="#F1F1F1" height="38.918" rx="2.25" ry="2.25" style="stroke:#181818;stroke-width:0.45;" width="105.3" x="981" y="994.6213"/><text fill="#000000" font-family="sans-serif" font-size="12.6" font-style="italic" lengthAdjust="spacing" textLength="87.3" x="990" y="1010.918">&#171;Value Object&#187;</text><text fill="#000000" font-family="sans-serif" font-size="12.6" lengthAdjust="spacing" textLength="77.4" x="994.95" y="1027.677">InterviewTime</text></g><!--entity InterviewDate--><g id="elem_InterviewDate"><rect fill="#F1F1F1" height="38.918" rx="2.25" ry="2.25" style="stroke:#181818;stroke-width:0.45;" width="105.3" x="981" y="924.4213"/><text fill="#000000" font-family="sans-serif" font-size="12.6" font-style="italic" lengthAdjust="spacing" textLength="87.3" x="990" y="940.718">&#171;Value Object&#187;</text><text fill="#000000" font-family="sans-serif" font-size="12.6" lengthAdjust="spacing" textLength="76.5" x="995.4" y="957.477">InterviewDate</text></g><!--class Application--><g id="elem_Application"><rect codeLine="75" fill="#F0FFFF" height="61.6887" id="Application" rx="2.25" ry="2.25" style="stroke:#000000;stroke-width:0.45;" width="90.9" x="206.55" y="733.6213"/><ellipse cx="220.05" cy="760.8656" fill="#ADD1B2" rx="9.9" ry="9.9" style="stroke:#181818;stroke-width:0.9;"/><path d="M219.0234,761.5828 L219.0234,763.8328 L222.9188,763.8328 L222.9188,763.0031 Q222.9188,762.4547 223.1297,762.2156 Q223.3547,761.9766 223.6922,761.9766 Q224.0297,761.9766 224.2406,762.2156 Q224.4516,762.4547 224.4516,763.0031 L224.4516,765.3656 L217.2516,765.3656 Q216.6891,765.3656 216.45,765.1547 Q216.225,764.9438 216.225,764.5922 Q216.225,764.2547 216.4641,764.0438 Q216.7031,763.8328 217.2516,763.8328 L217.4906,763.8328 L217.4906,757.8422 L217.2516,757.8422 Q216.6891,757.8422 216.45,757.6313 Q216.225,757.4203 216.225,757.0688 Q216.225,756.7313 216.45,756.5203 Q216.6891,756.3094 217.2516,756.3094 L224.1141,756.3094 L224.1141,758.6438 Q224.1141,759.1922 223.9031,759.4313 Q223.7063,759.6563 223.3547,759.6563 Q223.0172,759.6563 222.8063,759.4313 Q222.5953,759.1922 222.5953,758.6438 L222.5953,757.8422 L219.0234,757.8422 L219.0234,760.05 L220.3594,760.05 Q220.3594,759.4594 220.4719,759.2906 Q220.7109,758.925 221.1328,758.925 Q221.4703,758.925 221.6813,759.1641 Q221.8922,759.3891 221.8922,759.9375 L221.8922,761.7094 Q221.8922,762.2016 221.7797,762.3703 Q221.5406,762.7219 221.1328,762.7219 Q220.7109,762.7219 220.4719,762.3563 Q220.3594,762.1875 220.3594,761.5828 L219.0234,761.5828 Z " fill="#000000"/><text fill="#000000" font-family="sans-serif" font-size="10.8" font-style="italic" lengthAdjust="spacing" textLength="38.7" x="244.35" y="749.7756">&#171;entity&#187;</text><text fill="#000000" font-family="sans-serif" font-size="10.8" font-style="italic" lengthAdjust="spacing" textLength="31.5" x="247.95" y="764.1404">&#171;root&#187;</text><text fill="#000000" font-family="sans-serif" font-size="12.6" lengthAdjust="spacing" textLength="62.1" x="232.65" y="780.4477">Application</text><line style="stroke:#000000;stroke-width:0.45;" x1="207.45" x2="296.55" y1="788.11" y2="788.11"/></g><g id="elem_GMN44"><path d="M669.6,650.3713 L669.6,708.9433 L501.12,752.3683 L669.6,716.1433 L669.6,737.1809 A0,0 0 0 0 669.6,737.1809 L831.6,737.1809 A0,0 0 0 0 831.6,737.1809 L831.6,659.3713 L822.6,650.3713 L669.6,650.3713 A0,0 0 0 0 669.6,650.3713 " fill="#FEFFDD" style="stroke:#181818;stroke-width:0.45;"/><path d="M822.6,650.3713 L822.6,659.3713 L831.6,659.3713 L822.6,650.3713 " fill="#FEFFDD" style="stroke:#181818;stroke-width:0.45;"/><text fill="#000000" font-family="sans-serif" font-size="11.7" lengthAdjust="spacing" textLength="143.1" x="675" y="667.4968">Can be one of the following:</text><text fill="#000000" font-family="sans-serif" font-size="11.7" lengthAdjust="spacing" textLength="58.5" x="675" y="683.0587">- submitted</text><text fill="#000000" font-family="sans-serif" font-size="11.7" lengthAdjust="spacing" textLength="47.7" x="675" y="698.6206">- pending</text><text fill="#000000" font-family="sans-serif" font-size="11.7" lengthAdjust="spacing" textLength="54.9" x="675" y="714.1825">- accepted</text><text fill="#000000" font-family="sans-serif" font-size="11.7" lengthAdjust="spacing" textLength="50.4" x="675" y="729.7444">- declined</text></g><g id="elem_GMN47"><path d="M585.9,768.2713 L585.9,820.6243 L501.804,830.7673 L585.9,827.8243 L585.9,855.0809 A0,0 0 0 0 585.9,855.0809 L915.3,855.0809 A0,0 0 0 0 915.3,855.0809 L915.3,777.2713 L906.3,768.2713 L585.9,768.2713 A0,0 0 0 0 585.9,768.2713 " fill="#FEFFDD" style="stroke:#181818;stroke-width:0.45;"/><path d="M906.3,768.2713 L906.3,777.2713 L915.3,777.2713 L906.3,768.2713 " fill="#FEFFDD" style="stroke:#181818;stroke-width:0.45;"/><text fill="#000000" font-family="sans-serif" font-size="11.7" lengthAdjust="spacing" textLength="143.1" x="591.3" y="785.3968">Can be one of the following:</text><text fill="#000000" font-family="sans-serif" font-size="11.7" lengthAdjust="spacing" textLength="201.6" x="591.3" y="800.9587">- text file with the contents of the email</text><text fill="#000000" font-family="sans-serif" font-size="11.7" lengthAdjust="spacing" textLength="198" x="591.3" y="816.5206">- file for each file attached to the email</text><text fill="#000000" font-family="sans-serif" font-size="11.7" lengthAdjust="spacing" textLength="310.5" x="591.3" y="832.0825">- text file with the contents of each file attached to the email</text><text fill="#000000" font-family="sans-serif" font-size="11.7" lengthAdjust="spacing" textLength="283.5" x="591.3" y="847.6444">- text file with the data of the application and candidate</text></g><!--entity ApplicationFiles--><g id="elem_ApplicationFiles"><rect fill="#F1F1F1" height="38.918" rx="2.25" ry="2.25" style="stroke:#181818;stroke-width:0.45;" width="107.1" x="394.65" y="815.5213"/><text fill="#000000" font-family="sans-serif" font-size="12.6" font-style="italic" lengthAdjust="spacing" textLength="87.3" x="404.55" y="831.818">&#171;Value Object&#187;</text><text fill="#000000" font-family="sans-serif" font-size="12.6" lengthAdjust="spacing" textLength="89.1" x="403.65" y="848.577">ApplicationFiles</text></g><!--entity Status--><g id="elem_Status"><rect fill="#F1F1F1" height="38.918" rx="2.25" ry="2.25" style="stroke:#181818;stroke-width:0.45;" width="105.3" x="395.55" y="745.3213"/><text fill="#000000" font-family="sans-serif" font-size="12.6" font-style="italic" lengthAdjust="spacing" textLength="87.3" x="404.55" y="761.618">&#171;Value Object&#187;</text><text fill="#000000" font-family="sans-serif" font-size="12.6" lengthAdjust="spacing" textLength="36" x="430.2" y="778.377">Status</text></g><!--entity SubmissionDate--><g id="elem_SubmissionDate"><rect fill="#F1F1F1" height="38.918" rx="2.25" ry="2.25" style="stroke:#181818;stroke-width:0.45;" width="109.8" x="393.3" y="675.1213"/><text fill="#000000" font-family="sans-serif" font-size="12.6" font-style="italic" lengthAdjust="spacing" textLength="87.3" x="404.55" y="691.418">&#171;Value Object&#187;</text><text fill="#000000" font-family="sans-serif" font-size="12.6" lengthAdjust="spacing" textLength="91.8" x="402.3" y="708.177">SubmissionDate</text></g><!--entity Rank--><g id="elem_Rank"><rect fill="#F1F1F1" height="38.918" rx="2.25" ry="2.25" style="stroke:#181818;stroke-width:0.45;" width="105.3" x="395.55" y="604.9213"/><text fill="#000000" font-family="sans-serif" font-size="12.6" font-style="italic" lengthAdjust="spacing" textLength="87.3" x="404.55" y="621.218">&#171;Value Object&#187;</text><text fill="#000000" font-family="sans-serif" font-size="12.6" lengthAdjust="spacing" textLength="29.7" x="433.35" y="637.977">Rank</text></g><!--class Candidate--><g id="elem_Candidate"><rect codeLine="110" fill="#F0FFFF" height="61.6887" id="Candidate" rx="2.25" ry="2.25" style="stroke:#000000;stroke-width:0.45;" width="87.3" x="706.95" y="1267.3213"/><ellipse cx="720.45" cy="1294.5656" fill="#ADD1B2" rx="9.9" ry="9.9" style="stroke:#181818;stroke-width:0.9;"/><path d="M719.4234,1295.2828 L719.4234,1297.5328 L723.3188,1297.5328 L723.3188,1296.7031 Q723.3188,1296.1547 723.5297,1295.9156 Q723.7547,1295.6766 724.0922,1295.6766 Q724.4297,1295.6766 724.6406,1295.9156 Q724.8516,1296.1547 724.8516,1296.7031 L724.8516,1299.0656 L717.6516,1299.0656 Q717.0891,1299.0656 716.85,1298.8547 Q716.625,1298.6438 716.625,1298.2922 Q716.625,1297.9547 716.8641,1297.7438 Q717.1031,1297.5328 717.6516,1297.5328 L717.8906,1297.5328 L717.8906,1291.5422 L717.6516,1291.5422 Q717.0891,1291.5422 716.85,1291.3313 Q716.625,1291.1203 716.625,1290.7688 Q716.625,1290.4313 716.85,1290.2203 Q717.0891,1290.0094 717.6516,1290.0094 L724.5141,1290.0094 L724.5141,1292.3438 Q724.5141,1292.8922 724.3031,1293.1313 Q724.1063,1293.3563 723.7547,1293.3563 Q723.4172,1293.3563 723.2063,1293.1313 Q722.9953,1292.8922 722.9953,1292.3438 L722.9953,1291.5422 L719.4234,1291.5422 L719.4234,1293.75 L720.7594,1293.75 Q720.7594,1293.1594 720.8719,1292.9906 Q721.1109,1292.625 721.5328,1292.625 Q721.8703,1292.625 722.0813,1292.8641 Q722.2922,1293.0891 722.2922,1293.6375 L722.2922,1295.4094 Q722.2922,1295.9016 722.1797,1296.0703 Q721.9406,1296.4219 721.5328,1296.4219 Q721.1109,1296.4219 720.8719,1296.0563 Q720.7594,1295.8875 720.7594,1295.2828 L719.4234,1295.2828 Z " fill="#000000"/><text fill="#000000" font-family="sans-serif" font-size="10.8" font-style="italic" lengthAdjust="spacing" textLength="38.7" x="742.95" y="1283.4756">&#171;entity&#187;</text><text fill="#000000" font-family="sans-serif" font-size="10.8" font-style="italic" lengthAdjust="spacing" textLength="31.5" x="746.55" y="1297.8404">&#171;root&#187;</text><text fill="#000000" font-family="sans-serif" font-size="12.6" lengthAdjust="spacing" textLength="58.5" x="733.05" y="1314.1477">Candidate</text><line style="stroke:#000000;stroke-width:0.45;" x1="707.85" x2="793.35" y1="1321.81" y2="1321.81"/></g><!--entity Curriculum--><g id="elem_Curriculum"><rect fill="#F1F1F1" height="38.918" rx="2.25" ry="2.25" style="stroke:#181818;stroke-width:0.45;" width="105.3" x="981" y="1314.1213"/><text fill="#000000" font-family="sans-serif" font-size="12.6" font-style="italic" lengthAdjust="spacing" textLength="87.3" x="990" y="1330.418">&#171;Value Object&#187;</text><text fill="#000000" font-family="sans-serif" font-size="12.6" lengthAdjust="spacing" textLength="61.2" x="1003.05" y="1347.177">Curriculum</text></g><!--entity TelephoneNumber--><g id="elem_TelephoneNumber"><rect fill="#F1F1F1" height="38.918" rx="2.25" ry="2.25" style="stroke:#181818;stroke-width:0.45;" width="123.3" x="972" y="1243.9213"/><text fill="#000000" font-family="sans-serif" font-size="12.6" font-style="italic" lengthAdjust="spacing" textLength="87.3" x="990" y="1260.218">&#171;Value Object&#187;</text><text fill="#000000" font-family="sans-serif" font-size="12.6" lengthAdjust="spacing" textLength="105.3" x="981" y="1276.977">TelephoneNumber</text></g><!--class User--><g id="elem_User"><rect codeLine="122" fill="#F0FFFF" height="61.6887" id="User" rx="2.25" ry="2.25" style="stroke:#000000;stroke-width:0.45;" width="63.9" x="1001.7" y="1481.5213"/><ellipse cx="1015.2" cy="1508.7656" fill="#ADD1B2" rx="9.9" ry="9.9" style="stroke:#181818;stroke-width:0.9;"/><path d="M1014.1734,1509.4828 L1014.1734,1511.7328 L1018.0688,1511.7328 L1018.0688,1510.9031 Q1018.0688,1510.3547 1018.2797,1510.1156 Q1018.5047,1509.8766 1018.8422,1509.8766 Q1019.1797,1509.8766 1019.3906,1510.1156 Q1019.6016,1510.3547 1019.6016,1510.9031 L1019.6016,1513.2656 L1012.4016,1513.2656 Q1011.8391,1513.2656 1011.6,1513.0547 Q1011.375,1512.8438 1011.375,1512.4922 Q1011.375,1512.1547 1011.6141,1511.9438 Q1011.8531,1511.7328 1012.4016,1511.7328 L1012.6406,1511.7328 L1012.6406,1505.7422 L1012.4016,1505.7422 Q1011.8391,1505.7422 1011.6,1505.5313 Q1011.375,1505.3203 1011.375,1504.9688 Q1011.375,1504.6313 1011.6,1504.4203 Q1011.8391,1504.2094 1012.4016,1504.2094 L1019.2641,1504.2094 L1019.2641,1506.5438 Q1019.2641,1507.0922 1019.0531,1507.3313 Q1018.8563,1507.5563 1018.5047,1507.5563 Q1018.1672,1507.5563 1017.9563,1507.3313 Q1017.7453,1507.0922 1017.7453,1506.5438 L1017.7453,1505.7422 L1014.1734,1505.7422 L1014.1734,1507.95 L1015.5094,1507.95 Q1015.5094,1507.3594 1015.6219,1507.1906 Q1015.8609,1506.825 1016.2828,1506.825 Q1016.6203,1506.825 1016.8313,1507.0641 Q1017.0422,1507.2891 1017.0422,1507.8375 L1017.0422,1509.6094 Q1017.0422,1510.1016 1016.9297,1510.2703 Q1016.6906,1510.6219 1016.2828,1510.6219 Q1015.8609,1510.6219 1015.6219,1510.2563 Q1015.5094,1510.0875 1015.5094,1509.4828 L1014.1734,1509.4828 Z " fill="#000000"/><text fill="#000000" font-family="sans-serif" font-size="10.8" font-style="italic" lengthAdjust="spacing" textLength="38.7" x="1026" y="1497.6756">&#171;entity&#187;</text><text fill="#000000" font-family="sans-serif" font-size="10.8" font-style="italic" lengthAdjust="spacing" textLength="31.5" x="1029.6" y="1512.0404">&#171;root&#187;</text><text fill="#000000" font-family="sans-serif" font-size="12.6" lengthAdjust="spacing" textLength="26.1" x="1032.3" y="1528.3477">User</text><line style="stroke:#000000;stroke-width:0.45;" x1="1002.6" x2="1064.7" y1="1536.01" y2="1536.01"/></g><!--entity UserEmail--><g id="elem_UserEmail"><rect fill="#F1F1F1" height="38.918" rx="2.25" ry="2.25" style="stroke:#181818;stroke-width:0.45;" width="105.3" x="1152" y="1633.6213"/><text fill="#000000" font-family="sans-serif" font-size="12.6" font-style="italic" lengthAdjust="spacing" textLength="87.3" x="1161" y="1649.918">&#171;Value Object&#187;</text><text fill="#000000" font-family="sans-serif" font-size="12.6" lengthAdjust="spacing" textLength="56.7" x="1176.3" y="1666.677">UserEmail</text></g><!--entity UserName--><g id="elem_UserName"><rect fill="#F1F1F1" height="38.918" rx="2.25" ry="2.25" style="stroke:#181818;stroke-width:0.45;" width="105.3" x="1152" y="1563.4213"/><text fill="#000000" font-family="sans-serif" font-size="12.6" font-style="italic" lengthAdjust="spacing" textLength="87.3" x="1161" y="1579.718">&#171;Value Object&#187;</text><text fill="#000000" font-family="sans-serif" font-size="12.6" lengthAdjust="spacing" textLength="58.5" x="1175.4" y="1596.477">UserName</text></g><!--entity UserPassword--><g id="elem_UserPassword"><rect fill="#F1F1F1" height="38.918" rx="2.25" ry="2.25" style="stroke:#181818;stroke-width:0.45;" width="105.3" x="1152" y="1493.2213"/><text fill="#000000" font-family="sans-serif" font-size="12.6" font-style="italic" lengthAdjust="spacing" textLength="87.3" x="1161" y="1509.518">&#171;Value Object&#187;</text><text fill="#000000" font-family="sans-serif" font-size="12.6" lengthAdjust="spacing" textLength="81" x="1164.15" y="1526.277">UserPassword</text></g><!--entity Username--><g id="elem_Username"><rect fill="#F1F1F1" height="38.918" rx="2.25" ry="2.25" style="stroke:#181818;stroke-width:0.45;" width="105.3" x="1152" y="1423.0213"/><text fill="#000000" font-family="sans-serif" font-size="12.6" font-style="italic" lengthAdjust="spacing" textLength="87.3" x="1161" y="1439.318">&#171;Value Object&#187;</text><text fill="#000000" font-family="sans-serif" font-size="12.6" lengthAdjust="spacing" textLength="57.6" x="1175.85" y="1456.077">Username</text></g><!--link JobOpening to JobReference--><g id="link_JobOpening_JobReference"><path codeLine="32" d="M89.577,371.1013 C110.646,401.7463 145.935,448.4113 184.95,480.2713 C192.096,486.1123 195.6661,488.772 203.8831,493.38 " fill="none" id="JobOpening-to-JobReference" style="stroke:#808080;stroke-width:0.9;"/><polygon fill="#808080" points="208.593,496.0213,203.2889,488.9194,204.668,493.8202,199.7672,495.1993,208.593,496.0213" style="stroke:#808080;stroke-width:0.9;"/></g><!--link JobOpening to TitleOrFunction--><g id="link_JobOpening_TitleOrFunction"><path codeLine="33" d="M117.045,369.6973 C137.754,382.4143 162.387,397.2463 184.95,410.0713 C194.103,415.2733 199.326,418.1634 208.695,423.1494 " fill="none" id="JobOpening-to-TitleOrFunction" style="stroke:#808080;stroke-width:0.9;"/><polygon fill="#808080" points="213.462,425.6863,208.0028,418.703,209.4895,423.5722,204.6203,425.0589,213.462,425.6863" style="stroke:#808080;stroke-width:0.9;"/></g><!--link JobOpening to ContractType--><g id="link_JobOpening_ContractType"><path codeLine="34" d="M117.063,349.0963 C142.317,353.9653 168.0377,358.9365 193.8857,363.9225 " fill="none" id="JobOpening-to-ContractType" style="stroke:#808080;stroke-width:0.9;"/><polygon fill="#808080" points="199.188,364.9453,191.9165,359.8763,194.7695,364.093,190.5528,366.9459,199.188,364.9453" style="stroke:#808080;stroke-width:0.9;"/></g><!--link JobOpening to Mode--><g id="link_JobOpening_Mode"><path codeLine="35" d="M117.063,330.6463 C142.317,325.7773 168.0377,320.8061 193.8857,315.8201 " fill="none" id="JobOpening-to-Mode" style="stroke:#808080;stroke-width:0.9;"/><polygon fill="#808080" points="199.188,314.7973,190.5528,312.7966,194.7695,315.6496,191.9165,319.8663,199.188,314.7973" style="stroke:#808080;stroke-width:0.9;"/></g><!--link JobOpening to Address--><g id="link_JobOpening_Address"><path codeLine="36" d="M117.045,310.0453 C137.754,297.3283 162.387,282.4963 184.95,269.6713 C194.103,264.4693 199.326,261.5792 208.695,256.5932 " fill="none" id="JobOpening-to-Address" style="stroke:#808080;stroke-width:0.9;"/><polygon fill="#808080" points="213.462,254.0563,204.6203,254.6836,209.4895,256.1704,208.0028,261.0396,213.462,254.0563" style="stroke:#808080;stroke-width:0.9;"/></g><!--link JobOpening to VacanciesNumber--><g id="link_JobOpening_VacanciesNumber"><path codeLine="37" d="M89.577,308.6413 C110.646,277.9963 145.935,231.3313 184.95,199.4713 C192.096,193.6303 195.6661,190.9706 203.8831,186.3626 " fill="none" id="JobOpening-to-VacanciesNumber" style="stroke:#808080;stroke-width:0.9;"/><polygon fill="#808080" points="208.593,183.7213,199.7672,184.5433,204.668,185.9224,203.2889,190.8232,208.593,183.7213" style="stroke:#808080;stroke-width:0.9;"/></g><!--link JobOpening to Description--><g id="link_JobOpening_Description"><path codeLine="38" d="M79.821,308.7763 C96.219,264.2263 131.625,181.8313 184.95,129.2713 C190.971,123.3403 193.5586,120.9197 200.9926,116.4917 " fill="none" id="JobOpening-to-Description" style="stroke:#808080;stroke-width:0.9;"/><polygon fill="#808080" points="205.632,113.7283,196.8307,114.7805,201.7659,116.0311,200.5152,120.9663,205.632,113.7283" style="stroke:#808080;stroke-width:0.9;"/></g><!--link JobInterview to InterviewResults--><g id="link_JobInterview_InterviewResults"><path codeLine="67" d="M799.848,1038.1093 C854.658,1065.4693 938.1345,1107.1394 988.7955,1132.4294 " fill="none" id="JobInterview-to-InterviewResults" style="stroke:#808080;stroke-width:0.9;"/><polygon fill="#808080" points="993.627,1134.8413,987.9877,1128.0025,989.6008,1132.8314,984.7719,1134.4445,993.627,1134.8413" style="stroke:#808080;stroke-width:0.9;"/></g><!--link JobInterview to Score--><g id="link_JobInterview_Score"><path codeLine="68" d="M799.848,1026.0403 C850.347,1038.6403 924.0196,1057.0342 975.7516,1069.9402 " fill="none" id="JobInterview-to-Score" style="stroke:#808080;stroke-width:0.9;"/><polygon fill="#808080" points="980.991,1071.2473,974.0033,1065.7937,976.6248,1070.158,972.2605,1072.7796,980.991,1071.2473" style="stroke:#808080;stroke-width:0.9;"/></g><!--link JobInterview to InterviewTime--><g id="link_JobInterview_InterviewTime"><path codeLine="69" d="M799.848,1013.9713 C850.347,1013.9713 923.859,1013.9713 975.591,1013.9713 " fill="none" id="JobInterview-to-InterviewTime" style="stroke:#808080;stroke-width:0.9;"/><polygon fill="#808080" points="980.991,1013.9713,972.891,1010.3713,976.491,1013.9713,972.891,1017.5713,980.991,1013.9713" style="stroke:#808080;stroke-width:0.9;"/></g><!--link JobInterview to InterviewDate--><g id="link_JobInterview_InterviewDate"><path codeLine="70" d="M799.848,1001.9023 C850.347,989.3023 924.0196,970.9084 975.7516,958.0024 " fill="none" id="JobInterview-to-InterviewDate" style="stroke:#808080;stroke-width:0.9;"/><polygon fill="#808080" points="980.991,956.6953,972.2605,955.163,976.6248,957.7846,974.0033,962.1489,980.991,956.6953" style="stroke:#808080;stroke-width:0.9;"/></g><!--link Application to ApplicationFiles--><g id="link_Application_ApplicationFiles"><path codeLine="86" d="M297.495,780.7723 C326.421,791.2213 359.1511,803.04 389.5531,814.02 " fill="none" id="Application-to-ApplicationFiles" style="stroke:#808080;stroke-width:0.9;"/><polygon fill="#808080" points="394.632,815.8543,388.2365,809.7169,390.3996,814.3257,385.7908,816.4888,394.632,815.8543" style="stroke:#808080;stroke-width:0.9;"/></g><!--link Application to Status--><g id="link_Application_Status"><path codeLine="87" d="M297.495,764.6713 C326.646,764.6713 359.415,764.6713 389.934,764.6713 " fill="none" id="Application-to-Status" style="stroke:#808080;stroke-width:0.9;"/><polygon fill="#808080" points="395.334,764.6713,387.234,761.0713,390.834,764.6713,387.234,768.2713,395.334,764.6713" style="stroke:#808080;stroke-width:0.9;"/></g><!--link Application to SubmissionDate--><g id="link_Application_SubmissionDate"><path codeLine="88" d="M297.495,748.5703 C326.088,738.2473 358.2779,726.617 388.4909,715.709 " fill="none" id="Application-to-SubmissionDate" style="stroke:#808080;stroke-width:0.9;"/><polygon fill="#808080" points="393.57,713.8753,384.7288,713.2398,389.3374,715.4034,387.1738,720.012,393.57,713.8753" style="stroke:#808080;stroke-width:0.9;"/></g><!--link Application to Rank--><g id="link_Application_Rank"><path codeLine="89" d="M281.169,733.5673 C303.021,710.8603 334.899,680.4763 367.2,659.3713 C376.101,653.5573 381.2187,650.5721 391.0827,646.0001 " fill="none" id="Application-to-Rank" style="stroke:#808080;stroke-width:0.9;"/><polygon fill="#808080" points="395.982,643.7293,387.1191,643.8694,391.8992,645.6217,390.1469,650.4018,395.982,643.7293" style="stroke:#808080;stroke-width:0.9;"/></g><!--link Candidate to Curriculum--><g id="link_Candidate_Curriculum"><path codeLine="117" d="M794.52,1303.7443 C844.614,1309.9903 921.9385,1319.6447 975.5335,1326.3317 " fill="none" id="Candidate-to-Curriculum" style="stroke:#808080;stroke-width:0.9;"/><polygon fill="#808080" points="980.892,1327.0003,973.3,1322.4251,976.4266,1326.4431,972.4086,1329.5697,980.892,1327.0003" style="stroke:#808080;stroke-width:0.9;"/></g><!--link Candidate to TelephoneNumber--><g id="link_Candidate_TelephoneNumber"><path codeLine="118" d="M794.52,1292.9983 C841.842,1287.0943 912.8936,1278.2323 966.3806,1271.5543 " fill="none" id="Candidate-to-TelephoneNumber" style="stroke:#808080;stroke-width:0.9;"/><polygon fill="#808080" points="971.739,1270.8853,963.2554,1268.3165,967.2737,1271.4428,964.1474,1275.4611,971.739,1270.8853" style="stroke:#808080;stroke-width:0.9;"/></g><!--link User to UserEmail--><g id="link_User_UserEmail"><path codeLine="133" d="M1065.699,1542.6043 C1088.802,1564.3573 1121.472,1594.0033 1152,1617.8713 C1158.84,1623.2173 1162.0017,1625.6108 1169.2467,1630.5518 " fill="none" id="User-to-UserEmail" style="stroke:#808080;stroke-width:0.9;"/><polygon fill="#808080" points="1173.708,1633.5943,1169.0444,1626.0563,1169.9903,1631.0588,1164.9877,1632.0047,1173.708,1633.5943" style="stroke:#808080;stroke-width:0.9;"/></g><!--link User to UserName--><g id="link_User_UserName"><path codeLine="134" d="M1065.978,1525.6123 C1091.493,1536.1963 1122.874,1549.2206 1151.845,1561.2356 " fill="none" id="User-to-UserName" style="stroke:#808080;stroke-width:0.9;"/><polygon fill="#808080" points="1156.833,1563.3043,1150.73,1556.8759,1152.6763,1561.5804,1147.9718,1563.5267,1156.833,1563.3043" style="stroke:#808080;stroke-width:0.9;"/></g><!--link User to Username--><g id="link_User_Username"><path codeLine="135" d="M1065.978,1499.5303 C1091.493,1488.9463 1122.874,1475.922 1151.845,1463.907 " fill="none" id="User-to-Username" style="stroke:#808080;stroke-width:0.9;"/><polygon fill="#808080" points="1156.833,1461.8383,1147.9718,1461.6159,1152.6763,1463.5622,1150.73,1468.2667,1156.833,1461.8383" style="stroke:#808080;stroke-width:0.9;"/></g><!--link User to UserPassword--><g id="link_User_UserPassword"><path codeLine="136" d="M1065.978,1512.5713 C1090.062,1512.5713 1118.412,1512.5713 1146.483,1512.5713 " fill="none" id="User-to-UserPassword" style="stroke:#808080;stroke-width:0.9;"/><polygon fill="#808080" points="1151.883,1512.5713,1143.783,1508.9713,1147.383,1512.5713,1143.783,1516.1713,1151.883,1512.5713" style="stroke:#808080;stroke-width:0.9;"/></g><!--link Application to JobInterview--><g id="link_Application_JobInterview"><path codeLine="140" d="M280.395,795.7933 C302.094,818.8153 334.125,849.5863 367.2,869.9713 C477.9,938.1823 620.8877,981.159 696.1817,1000.851 " fill="none" id="Application-to-JobInterview" style="stroke:#808080;stroke-width:0.9;"/><polygon fill="#808080" points="701.406,1002.2173,694.4805,996.6849,697.0524,1001.0787,692.6587,1003.6506,701.406,1002.2173" style="stroke:#808080;stroke-width:0.9;"/><text fill="#000000" font-family="sans-serif" font-size="11.7" lengthAdjust="spacing" textLength="6.3" x="278.434" y="815.1406">1</text><text fill="#000000" font-family="sans-serif" font-size="11.7" lengthAdjust="spacing" textLength="6.3" x="688.0723" y="1014.3365">1</text></g><!--reverse link JobOpening to Application--><g id="link_JobOpening_Application"><path codeLine="141" d="M84.79,376.0746 C118.414,454.6266 204.075,654.7813 237.708,733.3873 " fill="none" id="JobOpening-backto-Application" style="stroke:#808080;stroke-width:0.9;"/><polygon fill="#808080" points="82.665,371.1103,82.5429,379.9734,84.4358,375.2472,89.162,377.1401,82.665,371.1103" style="stroke:#808080;stroke-width:0.9;"/><text fill="#000000" font-family="sans-serif" font-size="11.7" lengthAdjust="spacing" textLength="18.9" x="144.9" y="523.4968">has</text><text fill="#000000" font-family="sans-serif" font-size="11.7" lengthAdjust="spacing" textLength="6.3" x="78.2059" y="390.2325">1</text><text fill="#000000" font-family="sans-serif" font-size="11.7" lengthAdjust="spacing" textLength="8.1" x="222.2943" y="723.5964">N</text></g><!--link Application to Candidate--><g id="link_Application_Candidate"><path codeLine="142" d="M267.939,795.9823 C287.964,836.2933 325.719,907.6993 367.2,962.6713 C451.368,1074.2263 478.665,1098.9673 585.9,1188.5713 C624.519,1220.8363 668.1905,1249.4343 702.3005,1270.3323 " fill="none" id="Application-to-Candidate" style="stroke:#808080;stroke-width:0.9;"/><polygon fill="#808080" points="706.905,1273.1533,701.8789,1265.852,703.0679,1270.8024,698.1175,1271.9914,706.905,1273.1533" style="stroke:#808080;stroke-width:0.9;"/><text fill="#000000" font-family="sans-serif" font-size="11.7" lengthAdjust="spacing" textLength="8.1" x="261.8081" y="815.1164">N</text><text fill="#000000" font-family="sans-serif" font-size="11.7" lengthAdjust="spacing" textLength="6.3" x="693.4319" y="1283.1402">1</text></g><!--link Candidate to User--><g id="link_Candidate_User"><path codeLine="143" d="M792.396,1329.5203 C849.069,1372.6843 945.9783,1446.4792 997.0803,1485.4042 " fill="none" id="Candidate-to-User" style="stroke:#808080;stroke-width:0.9;"/><polygon fill="#808080" points="1001.376,1488.6763,997.1138,1480.9043,997.7962,1485.9495,992.751,1486.6319,1001.376,1488.6763" style="stroke:#808080;stroke-width:0.9;"/></g><!--SRC=[fLPVRzem47_Ffx3OCzBsMY4a2aFgr47LihuR-qAyEdRaE6EewdVVsO7W10TIBIz9xdxtttU-J70WETXCypAHa5fYDJ5Ybrd2XG5cXLP9iX5M0XajT4w58Zyr1qd6v9cgDw5sP4uL5vnQA4T9KYAfe8RcX4bQbkGz8VWyYXGUXO9xRJYOkPRQa0KrR_UoWZQ0ihUTqPNYDMZszFJuC9zj7jOhZ-loloo_Bl7nl9anUb-JTmOEDJumk9Ked7maIO5lkiE0VkWjMHUWN1Ip7GhjC8hHUmBA2diWo3vn9vEQDfrE9aPhEvqcNZ-ZXZlSCwHWG350v2l5gCXw-nlJDvqUC_1nXljihisoKZwz0oJcMbb3cTqSYY46N846m6QS6y0ItKQ-KaOL4r2kgdmBPe340afcH74zFlyAaZmUJrkvZF4xoOj1mcp5-2uzCVen7p5M9m4nI11n7PZI5ewjfDDBfzo3dKEsGBG21x4Pa5HBgVUeywu1ZKbQIJcs8eU0XZrcppHGtDkBMMx27MuIzHl8dRw0aXssHl2GebKfRDU1JdyzA0lcZu1zJuET-NqjLX-e1lSCPILjxwaz7i9Qw8Lf0uEGZVeDflHp4WiCwOf4_Mv5wevBDvuUc8_WbefDSpJwCSxBTd5cHI45exv58xK9sLUdNm1S2WcNbRaO3Y-Msce8hjhceYnHSJJ75tXt8VMYwYiY2CgtVCVtAAXsDyvgUHY5EATYRHbe_SGeA9r1Qu67em2R3s41XJ86HHl4WKcyN_dDSH5DoISyjF3NaXGboLxOpECOpZuyGEL93d2DaE5yS-WKRsYWBAl_gBNu3Toj8p6H6rR-In6kClJaAWsgYMiEdhFZhdDbwZNxKAojpiohJJMlZ16iabK-PA402KM6XUcvdbijS7R0tvMDdGYpexSLvAyI3KNYy_IheJd4TrU50P4vx8hcC13wX1ld7ZU-WN25cgyl9puQbuh6wKkoy- -IggBKauF-m8IJOlHjX214kOzmYYV1ck5ua_6OZ5Par9epToIZPLlVAj3NL3LfrzTvbFm3]--></g></svg>