<?xml version="1.0" encoding="us-ascii" standalone="no"?><svg xmlns="http://www.w3.org/2000/svg" xmlns:xlink="http://www.w3.org/1999/xlink" contentStyleType="text/css" height="1881px" preserveAspectRatio="none" style="width:1420px;height:1881px;background:#FFFFFF;" version="1.1" viewBox="0 0 1420 1881" width="1420px" zoomAndPan="magnify"><defs/><g><text fill="#000000" font-family="sans-serif" font-size="14" font-weight="bold" lengthAdjust="spacing" textLength="253" x="576.5" y="25.1074">Domain Model - Ranking Candidates</text><!--cluster Job Opening Aggregate--><g id="cluster_Job Opening Aggregate"><rect fill="none" height="565" rx="2.5" ry="2.5" style="stroke:#000000;stroke-width:1.5;" width="598" x="7" y="46.6211"/><text fill="#000000" font-family="sans-serif" font-size="14" font-weight="bold" lengthAdjust="spacing" textLength="167" x="222.5" y="63.7285">Job Opening Aggregate</text></g><!--cluster JobInterview Aggregate--><g id="cluster_JobInterview Aggregate"><rect fill="none" height="331" rx="2.5" ry="2.5" style="stroke:#000000;stroke-width:1.5;" width="462" x="764.5" y="990.6211"/><text fill="#000000" font-family="sans-serif" font-size="14" font-weight="bold" lengthAdjust="spacing" textLength="169" x="911" y="1007.7285">JobInterview Aggregate</text></g><!--cluster Application Aggregate--><g id="cluster_Application Aggregate"><rect fill="none" height="331" rx="2.5" ry="2.5" style="stroke:#000000;stroke-width:1.5;" width="819.5" x="214.5" y="635.6211"/><text fill="#000000" font-family="sans-serif" font-size="14" font-weight="bold" lengthAdjust="spacing" textLength="155" x="546.75" y="652.7285">Application Aggregate</text></g><!--cluster Candidate Aggregate--><g id="cluster_Candidate Aggregate"><rect fill="none" height="175" rx="2.5" ry="2.5" style="stroke:#000000;stroke-width:1.5;" width="463.5" x="770.5" y="1345.6211"/><text fill="#000000" font-family="sans-serif" font-size="14" font-weight="bold" lengthAdjust="spacing" textLength="148" x="928.25" y="1362.7285">Candidate Aggregate</text></g><!--cluster User Aggregate--><g id="cluster_User Aggregate"><rect fill="none" height="331" rx="2.5" ry="2.5" style="stroke:#000000;stroke-width:1.5;" width="316" x="1098" y="1544.6211"/><text fill="#000000" font-family="sans-serif" font-size="14" font-weight="bold" lengthAdjust="spacing" textLength="110" x="1201" y="1561.7285">User Aggregate</text></g><!--class JobOpening--><g id="elem_JobOpening"><rect codeLine="25" fill="#F0FFFF" height="68.543" id="JobOpening" rx="2.5" ry="2.5" style="stroke:#000000;stroke-width:0.5;" width="108" x="23" y="344.1211"/><ellipse cx="38" cy="374.3926" fill="#ADD1B2" rx="11" ry="11" style="stroke:#181818;stroke-width:1.0;"/><path d="M36.8594,375.1895 L36.8594,377.6895 L41.1875,377.6895 L41.1875,376.7676 Q41.1875,376.1582 41.4219,375.8926 Q41.6719,375.627 42.0469,375.627 Q42.4219,375.627 42.6563,375.8926 Q42.8906,376.1582 42.8906,376.7676 L42.8906,379.3926 L34.8906,379.3926 Q34.2656,379.3926 34,379.1582 Q33.75,378.9238 33.75,378.5332 Q33.75,378.1582 34.0156,377.9238 Q34.2813,377.6895 34.8906,377.6895 L35.1563,377.6895 L35.1563,371.0332 L34.8906,371.0332 Q34.2656,371.0332 34,370.7988 Q33.75,370.5645 33.75,370.1738 Q33.75,369.7988 34,369.5645 Q34.2656,369.3301 34.8906,369.3301 L42.5156,369.3301 L42.5156,371.9238 Q42.5156,372.5332 42.2813,372.7988 Q42.0625,373.0488 41.6719,373.0488 Q41.2969,373.0488 41.0625,372.7988 Q40.8281,372.5332 40.8281,371.9238 L40.8281,371.0332 L36.8594,371.0332 L36.8594,373.4863 L38.3438,373.4863 Q38.3438,372.8301 38.4688,372.6426 Q38.7344,372.2363 39.2031,372.2363 Q39.5781,372.2363 39.8125,372.502 Q40.0469,372.752 40.0469,373.3613 L40.0469,375.3301 Q40.0469,375.877 39.9219,376.0645 Q39.6563,376.4551 39.2031,376.4551 Q38.7344,376.4551 38.4688,376.0488 Q38.3438,375.8613 38.3438,375.1895 L36.8594,375.1895 Z " fill="#000000"/><text fill="#000000" font-family="sans-serif" font-size="12" font-style="italic" lengthAdjust="spacing" textLength="43" x="68.5" y="362.0703">&#171;entity&#187;</text><text fill="#000000" font-family="sans-serif" font-size="12" font-style="italic" lengthAdjust="spacing" textLength="35" x="72.5" y="378.0313">&#171;root&#187;</text><text fill="#000000" font-family="sans-serif" font-size="14" lengthAdjust="spacing" textLength="76" x="52" y="396.1504">JobOpening</text><line style="stroke:#000000;stroke-width:0.5;" x1="24" x2="130" y1="404.6641" y2="404.6641"/></g><g id="elem_GMN18"><path d="M409,397.6211 L409,420.0811 L339.6,420.5511 L409,428.0811 L409,459.4941 A0,0 0 0 0 409,459.4941 L589,459.4941 A0,0 0 0 0 589,459.4941 L589,407.6211 L579,397.6211 L409,397.6211 A0,0 0 0 0 409,397.6211 " fill="#FEFFDD" style="stroke:#181818;stroke-width:0.5;"/><path d="M579,397.6211 L579,407.6211 L589,407.6211 L579,397.6211 " fill="#FEFFDD" style="stroke:#181818;stroke-width:0.5;"/><text fill="#000000" font-family="sans-serif" font-size="13" lengthAdjust="spacing" textLength="159" x="415" y="416.6494">Can be one of the following:</text><text fill="#000000" font-family="sans-serif" font-size="13" lengthAdjust="spacing" textLength="53" x="415" y="433.9404">- full-time</text><text fill="#000000" font-family="sans-serif" font-size="13" lengthAdjust="spacing" textLength="59" x="415" y="451.2314">- part-time</text></g><g id="elem_GMN21"><path d="M409,283.1211 L409,325.6411 L339.6,335.0911 L409,333.6411 L409,362.2852 A0,0 0 0 0 409,362.2852 L589,362.2852 A0,0 0 0 0 589,362.2852 L589,293.1211 L579,283.1211 L409,283.1211 A0,0 0 0 0 409,283.1211 " fill="#FEFFDD" style="stroke:#181818;stroke-width:0.5;"/><path d="M579,283.1211 L579,293.1211 L589,293.1211 L579,283.1211 " fill="#FEFFDD" style="stroke:#181818;stroke-width:0.5;"/><text fill="#000000" font-family="sans-serif" font-size="13" lengthAdjust="spacing" textLength="159" x="415" y="302.1494">Can be one of the following:</text><text fill="#000000" font-family="sans-serif" font-size="13" lengthAdjust="spacing" textLength="48" x="415" y="319.4404">- remote</text><text fill="#000000" font-family="sans-serif" font-size="13" lengthAdjust="spacing" textLength="43" x="415" y="336.7314">- hybrid</text><text fill="#000000" font-family="sans-serif" font-size="13" lengthAdjust="spacing" textLength="43" x="415" y="354.0225">- onsite</text></g><!--entity JobReference--><g id="elem_JobReference"><rect fill="#F0FFDD" height="43.2422" rx="2.5" ry="2.5" style="stroke:#000000;stroke-width:0.5;" width="117" x="222.5" y="552.1211"/><text fill="#000000" font-family="sans-serif" font-size="14" font-style="italic" lengthAdjust="spacing" textLength="97" x="232.5" y="570.2285">&#171;Value Object&#187;</text><text fill="#000000" font-family="sans-serif" font-size="14" lengthAdjust="spacing" textLength="88" x="237" y="588.8496">JobReference</text></g><!--entity TitleOrFunction--><g id="elem_TitleOrFunction"><rect fill="#F0FFDD" height="43.2422" rx="2.5" ry="2.5" style="stroke:#000000;stroke-width:0.5;" width="118" x="222" y="474.1211"/><text fill="#000000" font-family="sans-serif" font-size="14" font-style="italic" lengthAdjust="spacing" textLength="97" x="232.5" y="492.2285">&#171;Value Object&#187;</text><text fill="#000000" font-family="sans-serif" font-size="14" lengthAdjust="spacing" textLength="98" x="232" y="510.8496">TitleOrFunction</text></g><!--entity ContractType--><g id="elem_ContractType"><rect fill="#F0FFDD" height="43.2422" rx="2.5" ry="2.5" style="stroke:#000000;stroke-width:0.5;" width="117" x="222.5" y="396.1211"/><text fill="#000000" font-family="sans-serif" font-size="14" font-style="italic" lengthAdjust="spacing" textLength="97" x="232.5" y="414.2285">&#171;Value Object&#187;</text><text fill="#000000" font-family="sans-serif" font-size="14" lengthAdjust="spacing" textLength="86" x="238" y="432.8496">ContractType</text></g><!--entity Mode--><g id="elem_Mode"><rect fill="#F0FFDD" height="43.2422" rx="2.5" ry="2.5" style="stroke:#000000;stroke-width:0.5;" width="117" x="222.5" y="318.1211"/><text fill="#000000" font-family="sans-serif" font-size="14" font-style="italic" lengthAdjust="spacing" textLength="97" x="232.5" y="336.2285">&#171;Value Object&#187;</text><text fill="#000000" font-family="sans-serif" font-size="14" lengthAdjust="spacing" textLength="35" x="263.5" y="354.8496">Mode</text></g><!--entity Address--><g id="elem_Address"><rect fill="#F0FFDD" height="43.2422" rx="2.5" ry="2.5" style="stroke:#000000;stroke-width:0.5;" width="117" x="222.5" y="240.1211"/><text fill="#000000" font-family="sans-serif" font-size="14" font-style="italic" lengthAdjust="spacing" textLength="97" x="232.5" y="258.2285">&#171;Value Object&#187;</text><text fill="#000000" font-family="sans-serif" font-size="14" lengthAdjust="spacing" textLength="52" x="255" y="276.8496">Address</text></g><!--entity VacanciesNumber--><g id="elem_VacanciesNumber"><rect fill="#F0FFDD" height="43.2422" rx="2.5" ry="2.5" style="stroke:#000000;stroke-width:0.5;" width="134" x="214" y="162.1211"/><text fill="#000000" font-family="sans-serif" font-size="14" font-style="italic" lengthAdjust="spacing" textLength="97" x="232.5" y="180.2285">&#171;Value Object&#187;</text><text fill="#000000" font-family="sans-serif" font-size="14" lengthAdjust="spacing" textLength="114" x="224" y="198.8496">VacanciesNumber</text></g><!--entity Description--><g id="elem_Description"><rect fill="#F0FFDD" height="43.2422" rx="2.5" ry="2.5" style="stroke:#000000;stroke-width:0.5;" width="117" x="222.5" y="84.1211"/><text fill="#000000" font-family="sans-serif" font-size="14" font-style="italic" lengthAdjust="spacing" textLength="97" x="232.5" y="102.2285">&#171;Value Object&#187;</text><text fill="#000000" font-family="sans-serif" font-size="14" lengthAdjust="spacing" textLength="71" x="245.5" y="120.8496">Description</text></g><!--class JobInterview--><g id="elem_JobInterview"><rect codeLine="66" fill="#F0FFFF" height="68.543" id="JobInterview" rx="2.5" ry="2.5" style="stroke:#000000;stroke-width:0.5;" width="109" x="780.5" y="1093.1211"/><ellipse cx="795.5" cy="1123.3926" fill="#ADD1B2" rx="11" ry="11" style="stroke:#181818;stroke-width:1.0;"/><path d="M794.3594,1124.1895 L794.3594,1126.6895 L798.6875,1126.6895 L798.6875,1125.7676 Q798.6875,1125.1582 798.9219,1124.8926 Q799.1719,1124.627 799.5469,1124.627 Q799.9219,1124.627 800.1563,1124.8926 Q800.3906,1125.1582 800.3906,1125.7676 L800.3906,1128.3926 L792.3906,1128.3926 Q791.7656,1128.3926 791.5,1128.1582 Q791.25,1127.9238 791.25,1127.5332 Q791.25,1127.1582 791.5156,1126.9238 Q791.7813,1126.6895 792.3906,1126.6895 L792.6563,1126.6895 L792.6563,1120.0332 L792.3906,1120.0332 Q791.7656,1120.0332 791.5,1119.7988 Q791.25,1119.5645 791.25,1119.1738 Q791.25,1118.7988 791.5,1118.5645 Q791.7656,1118.3301 792.3906,1118.3301 L800.0156,1118.3301 L800.0156,1120.9238 Q800.0156,1121.5332 799.7813,1121.7988 Q799.5625,1122.0488 799.1719,1122.0488 Q798.7969,1122.0488 798.5625,1121.7988 Q798.3281,1121.5332 798.3281,1120.9238 L798.3281,1120.0332 L794.3594,1120.0332 L794.3594,1122.4863 L795.8438,1122.4863 Q795.8438,1121.8301 795.9688,1121.6426 Q796.2344,1121.2363 796.7031,1121.2363 Q797.0781,1121.2363 797.3125,1121.502 Q797.5469,1121.752 797.5469,1122.3613 L797.5469,1124.3301 Q797.5469,1124.877 797.4219,1125.0645 Q797.1563,1125.4551 796.7031,1125.4551 Q796.2344,1125.4551 795.9688,1125.0488 Q795.8438,1124.8613 795.8438,1124.1895 L794.3594,1124.1895 Z " fill="#000000"/><text fill="#000000" font-family="sans-serif" font-size="12" font-style="italic" lengthAdjust="spacing" textLength="43" x="826.5" y="1111.0703">&#171;entity&#187;</text><text fill="#000000" font-family="sans-serif" font-size="12" font-style="italic" lengthAdjust="spacing" textLength="35" x="830.5" y="1127.0313">&#171;root&#187;</text><text fill="#000000" font-family="sans-serif" font-size="14" lengthAdjust="spacing" textLength="77" x="809.5" y="1145.1504">JobInterview</text><line style="stroke:#000000;stroke-width:0.5;" x1="781.5" x2="888.5" y1="1153.6641" y2="1153.6641"/></g><!--entity InterviewResults--><g id="elem_InterviewResults"><rect fill="#F0FFDD" height="43.2422" rx="2.5" ry="2.5" style="stroke:#000000;stroke-width:0.5;" width="122" x="1088.5" y="1262.1211"/><text fill="#000000" font-family="sans-serif" font-size="14" font-style="italic" lengthAdjust="spacing" textLength="97" x="1101" y="1280.2285">&#171;Value Object&#187;</text><text fill="#000000" font-family="sans-serif" font-size="14" lengthAdjust="spacing" textLength="102" x="1098.5" y="1298.8496">InterviewResults</text></g><!--entity Score--><g id="elem_Score"><rect fill="#F0FFDD" height="43.2422" rx="2.5" ry="2.5" style="stroke:#000000;stroke-width:0.5;" width="117" x="1091" y="1184.1211"/><text fill="#000000" font-family="sans-serif" font-size="14" font-style="italic" lengthAdjust="spacing" textLength="97" x="1101" y="1202.2285">&#171;Value Object&#187;</text><text fill="#000000" font-family="sans-serif" font-size="14" lengthAdjust="spacing" textLength="37" x="1131" y="1220.8496">Score</text></g><!--entity InterviewTime--><g id="elem_InterviewTime"><rect fill="#F0FFDD" height="43.2422" rx="2.5" ry="2.5" style="stroke:#000000;stroke-width:0.5;" width="117" x="1091" y="1106.1211"/><text fill="#000000" font-family="sans-serif" font-size="14" font-style="italic" lengthAdjust="spacing" textLength="97" x="1101" y="1124.2285">&#171;Value Object&#187;</text><text fill="#000000" font-family="sans-serif" font-size="14" lengthAdjust="spacing" textLength="86" x="1106.5" y="1142.8496">InterviewTime</text></g><!--entity InterviewDate--><g id="elem_InterviewDate"><rect fill="#F0FFDD" height="43.2422" rx="2.5" ry="2.5" style="stroke:#000000;stroke-width:0.5;" width="117" x="1091" y="1028.1211"/><text fill="#000000" font-family="sans-serif" font-size="14" font-style="italic" lengthAdjust="spacing" textLength="97" x="1101" y="1046.2285">&#171;Value Object&#187;</text><text fill="#000000" font-family="sans-serif" font-size="14" lengthAdjust="spacing" textLength="85" x="1107" y="1064.8496">InterviewDate</text></g><!--class Application--><g id="elem_Application"><rect codeLine="85" fill="#F0FFFF" height="68.543" id="Application" rx="2.5" ry="2.5" style="stroke:#000000;stroke-width:0.5;" width="101" x="230.5" y="816.1211"/><ellipse cx="245.5" cy="846.3926" fill="#ADD1B2" rx="11" ry="11" style="stroke:#181818;stroke-width:1.0;"/><path d="M244.3594,847.1895 L244.3594,849.6895 L248.6875,849.6895 L248.6875,848.7676 Q248.6875,848.1582 248.9219,847.8926 Q249.1719,847.627 249.5469,847.627 Q249.9219,847.627 250.1563,847.8926 Q250.3906,848.1582 250.3906,848.7676 L250.3906,851.3926 L242.3906,851.3926 Q241.7656,851.3926 241.5,851.1582 Q241.25,850.9238 241.25,850.5332 Q241.25,850.1582 241.5156,849.9238 Q241.7813,849.6895 242.3906,849.6895 L242.6563,849.6895 L242.6563,843.0332 L242.3906,843.0332 Q241.7656,843.0332 241.5,842.7988 Q241.25,842.5645 241.25,842.1738 Q241.25,841.7988 241.5,841.5645 Q241.7656,841.3301 242.3906,841.3301 L250.0156,841.3301 L250.0156,843.9238 Q250.0156,844.5332 249.7813,844.7988 Q249.5625,845.0488 249.1719,845.0488 Q248.7969,845.0488 248.5625,844.7988 Q248.3281,844.5332 248.3281,843.9238 L248.3281,843.0332 L244.3594,843.0332 L244.3594,845.4863 L245.8438,845.4863 Q245.8438,844.8301 245.9688,844.6426 Q246.2344,844.2363 246.7031,844.2363 Q247.0781,844.2363 247.3125,844.502 Q247.5469,844.752 247.5469,845.3613 L247.5469,847.3301 Q247.5469,847.877 247.4219,848.0645 Q247.1563,848.4551 246.7031,848.4551 Q246.2344,848.4551 245.9688,848.0488 Q245.8438,847.8613 245.8438,847.1895 L244.3594,847.1895 Z " fill="#000000"/><text fill="#000000" font-family="sans-serif" font-size="12" font-style="italic" lengthAdjust="spacing" textLength="43" x="272.5" y="834.0703">&#171;entity&#187;</text><text fill="#000000" font-family="sans-serif" font-size="12" font-style="italic" lengthAdjust="spacing" textLength="35" x="276.5" y="850.0313">&#171;root&#187;</text><text fill="#000000" font-family="sans-serif" font-size="14" lengthAdjust="spacing" textLength="69" x="259.5" y="868.1504">Application</text><line style="stroke:#000000;stroke-width:0.5;" x1="231.5" x2="330.5" y1="876.6641" y2="876.6641"/></g><g id="elem_GMN44"><path d="M745,723.6211 L745,788.7011 L557.8,836.9511 L745,796.7011 L745,820.0762 A0,0 0 0 0 745,820.0762 L925,820.0762 A0,0 0 0 0 925,820.0762 L925,733.6211 L915,723.6211 L745,723.6211 A0,0 0 0 0 745,723.6211 " fill="#FEFFDD" style="stroke:#181818;stroke-width:0.5;"/><path d="M915,723.6211 L915,733.6211 L925,733.6211 L915,723.6211 " fill="#FEFFDD" style="stroke:#181818;stroke-width:0.5;"/><text fill="#000000" font-family="sans-serif" font-size="13" lengthAdjust="spacing" textLength="159" x="751" y="742.6494">Can be one of the following:</text><text fill="#000000" font-family="sans-serif" font-size="13" lengthAdjust="spacing" textLength="65" x="751" y="759.9404">- submitted</text><text fill="#000000" font-family="sans-serif" font-size="13" lengthAdjust="spacing" textLength="53" x="751" y="777.2314">- pending</text><text fill="#000000" font-family="sans-serif" font-size="13" lengthAdjust="spacing" textLength="61" x="751" y="794.5225">- accepted</text><text fill="#000000" font-family="sans-serif" font-size="13" lengthAdjust="spacing" textLength="56" x="751" y="811.8135">- declined</text></g><g id="elem_GMN47"><path d="M652,854.6211 L652,912.7911 L558.56,924.0611 L652,920.7911 L652,951.0762 A0,0 0 0 0 652,951.0762 L1018,951.0762 A0,0 0 0 0 1018,951.0762 L1018,864.6211 L1008,854.6211 L652,854.6211 A0,0 0 0 0 652,854.6211 " fill="#FEFFDD" style="stroke:#181818;stroke-width:0.5;"/><path d="M1008,854.6211 L1008,864.6211 L1018,864.6211 L1008,854.6211 " fill="#FEFFDD" style="stroke:#181818;stroke-width:0.5;"/><text fill="#000000" font-family="sans-serif" font-size="13" lengthAdjust="spacing" textLength="159" x="658" y="873.6494">Can be one of the following:</text><text fill="#000000" font-family="sans-serif" font-size="13" lengthAdjust="spacing" textLength="224" x="658" y="890.9404">- text file with the contents of the email</text><text fill="#000000" font-family="sans-serif" font-size="13" lengthAdjust="spacing" textLength="220" x="658" y="908.2314">- file for each file attached to the email</text><text fill="#000000" font-family="sans-serif" font-size="13" lengthAdjust="spacing" textLength="345" x="658" y="925.5225">- text file with the contents of each file attached to the email</text><text fill="#000000" font-family="sans-serif" font-size="13" lengthAdjust="spacing" textLength="315" x="658" y="942.8135">- text file with the data of the application and candidate</text></g><!--entity ApplicationFiles--><g id="elem_ApplicationFiles"><rect fill="#F0FFDD" height="43.2422" rx="2.5" ry="2.5" style="stroke:#000000;stroke-width:0.5;" width="119" x="439.5" y="907.1211"/><text fill="#000000" font-family="sans-serif" font-size="14" font-style="italic" lengthAdjust="spacing" textLength="97" x="450.5" y="925.2285">&#171;Value Object&#187;</text><text fill="#000000" font-family="sans-serif" font-size="14" lengthAdjust="spacing" textLength="99" x="449.5" y="943.8496">ApplicationFiles</text></g><!--entity Status--><g id="elem_Status"><rect fill="#F0FFDD" height="43.2422" rx="2.5" ry="2.5" style="stroke:#000000;stroke-width:0.5;" width="117" x="440.5" y="829.1211"/><text fill="#000000" font-family="sans-serif" font-size="14" font-style="italic" lengthAdjust="spacing" textLength="97" x="450.5" y="847.2285">&#171;Value Object&#187;</text><text fill="#000000" font-family="sans-serif" font-size="14" lengthAdjust="spacing" textLength="40" x="479" y="865.8496">Status</text></g><!--entity SubmissionDate--><g id="elem_SubmissionDate"><rect fill="#F0FFDD" height="43.2422" rx="2.5" ry="2.5" style="stroke:#000000;stroke-width:0.5;" width="122" x="438" y="751.1211"/><text fill="#000000" font-family="sans-serif" font-size="14" font-style="italic" lengthAdjust="spacing" textLength="97" x="450.5" y="769.2285">&#171;Value Object&#187;</text><text fill="#000000" font-family="sans-serif" font-size="14" lengthAdjust="spacing" textLength="102" x="448" y="787.8496">SubmissionDate</text></g><!--entity Rank--><g id="elem_Rank"><rect fill="#F0FFDD" height="43.2422" rx="2.5" ry="2.5" style="stroke:#000000;stroke-width:0.5;" width="117" x="440.5" y="673.1211"/><text fill="#000000" font-family="sans-serif" font-size="14" font-style="italic" lengthAdjust="spacing" textLength="97" x="450.5" y="691.2285">&#171;Value Object&#187;</text><text fill="#000000" font-family="sans-serif" font-size="14" lengthAdjust="spacing" textLength="33" x="482.5" y="709.8496">Rank</text></g><!--class Candidate--><g id="elem_Candidate"><rect codeLine="120" fill="#F0FFFF" height="68.543" id="Candidate" rx="2.5" ry="2.5" style="stroke:#000000;stroke-width:0.5;" width="97" x="786.5" y="1409.1211"/><ellipse cx="801.5" cy="1439.3926" fill="#ADD1B2" rx="11" ry="11" style="stroke:#181818;stroke-width:1.0;"/><path d="M800.3594,1440.1895 L800.3594,1442.6895 L804.6875,1442.6895 L804.6875,1441.7676 Q804.6875,1441.1582 804.9219,1440.8926 Q805.1719,1440.627 805.5469,1440.627 Q805.9219,1440.627 806.1563,1440.8926 Q806.3906,1441.1582 806.3906,1441.7676 L806.3906,1444.3926 L798.3906,1444.3926 Q797.7656,1444.3926 797.5,1444.1582 Q797.25,1443.9238 797.25,1443.5332 Q797.25,1443.1582 797.5156,1442.9238 Q797.7813,1442.6895 798.3906,1442.6895 L798.6563,1442.6895 L798.6563,1436.0332 L798.3906,1436.0332 Q797.7656,1436.0332 797.5,1435.7988 Q797.25,1435.5645 797.25,1435.1738 Q797.25,1434.7988 797.5,1434.5645 Q797.7656,1434.3301 798.3906,1434.3301 L806.0156,1434.3301 L806.0156,1436.9238 Q806.0156,1437.5332 805.7813,1437.7988 Q805.5625,1438.0488 805.1719,1438.0488 Q804.7969,1438.0488 804.5625,1437.7988 Q804.3281,1437.5332 804.3281,1436.9238 L804.3281,1436.0332 L800.3594,1436.0332 L800.3594,1438.4863 L801.8438,1438.4863 Q801.8438,1437.8301 801.9688,1437.6426 Q802.2344,1437.2363 802.7031,1437.2363 Q803.0781,1437.2363 803.3125,1437.502 Q803.5469,1437.752 803.5469,1438.3613 L803.5469,1440.3301 Q803.5469,1440.877 803.4219,1441.0645 Q803.1563,1441.4551 802.7031,1441.4551 Q802.2344,1441.4551 801.9688,1441.0488 Q801.8438,1440.8613 801.8438,1440.1895 L800.3594,1440.1895 Z " fill="#000000"/><text fill="#000000" font-family="sans-serif" font-size="12" font-style="italic" lengthAdjust="spacing" textLength="43" x="826.5" y="1427.0703">&#171;entity&#187;</text><text fill="#000000" font-family="sans-serif" font-size="12" font-style="italic" lengthAdjust="spacing" textLength="35" x="830.5" y="1443.0313">&#171;root&#187;</text><text fill="#000000" font-family="sans-serif" font-size="14" lengthAdjust="spacing" textLength="65" x="815.5" y="1461.1504">Candidate</text><line style="stroke:#000000;stroke-width:0.5;" x1="787.5" x2="882.5" y1="1469.6641" y2="1469.6641"/></g><!--entity Curriculum--><g id="elem_Curriculum"><rect fill="#F0FFDD" height="43.2422" rx="2.5" ry="2.5" style="stroke:#000000;stroke-width:0.5;" width="117" x="1091" y="1461.1211"/><text fill="#000000" font-family="sans-serif" font-size="14" font-style="italic" lengthAdjust="spacing" textLength="97" x="1101" y="1479.2285">&#171;Value Object&#187;</text><text fill="#000000" font-family="sans-serif" font-size="14" lengthAdjust="spacing" textLength="68" x="1115.5" y="1497.8496">Curriculum</text></g><!--entity TelephoneNumber--><g id="elem_TelephoneNumber"><rect fill="#F0FFDD" height="43.2422" rx="2.5" ry="2.5" style="stroke:#000000;stroke-width:0.5;" width="137" x="1081" y="1383.1211"/><text fill="#000000" font-family="sans-serif" font-size="14" font-style="italic" lengthAdjust="spacing" textLength="97" x="1101" y="1401.2285">&#171;Value Object&#187;</text><text fill="#000000" font-family="sans-serif" font-size="14" lengthAdjust="spacing" textLength="117" x="1091" y="1419.8496">TelephoneNumber</text></g><!--class User--><g id="elem_User"><rect codeLine="132" fill="#F0FFFF" height="68.543" id="User" rx="2.5" ry="2.5" style="stroke:#000000;stroke-width:0.5;" width="71" x="1114" y="1647.1211"/><ellipse cx="1129" cy="1677.3926" fill="#ADD1B2" rx="11" ry="11" style="stroke:#181818;stroke-width:1.0;"/><path d="M1127.8594,1678.1895 L1127.8594,1680.6895 L1132.1875,1680.6895 L1132.1875,1679.7676 Q1132.1875,1679.1582 1132.4219,1678.8926 Q1132.6719,1678.627 1133.0469,1678.627 Q1133.4219,1678.627 1133.6563,1678.8926 Q1133.8906,1679.1582 1133.8906,1679.7676 L1133.8906,1682.3926 L1125.8906,1682.3926 Q1125.2656,1682.3926 1125,1682.1582 Q1124.75,1681.9238 1124.75,1681.5332 Q1124.75,1681.1582 1125.0156,1680.9238 Q1125.2813,1680.6895 1125.8906,1680.6895 L1126.1563,1680.6895 L1126.1563,1674.0332 L1125.8906,1674.0332 Q1125.2656,1674.0332 1125,1673.7988 Q1124.75,1673.5645 1124.75,1673.1738 Q1124.75,1672.7988 1125,1672.5645 Q1125.2656,1672.3301 1125.8906,1672.3301 L1133.5156,1672.3301 L1133.5156,1674.9238 Q1133.5156,1675.5332 1133.2813,1675.7988 Q1133.0625,1676.0488 1132.6719,1676.0488 Q1132.2969,1676.0488 1132.0625,1675.7988 Q1131.8281,1675.5332 1131.8281,1674.9238 L1131.8281,1674.0332 L1127.8594,1674.0332 L1127.8594,1676.4863 L1129.3438,1676.4863 Q1129.3438,1675.8301 1129.4688,1675.6426 Q1129.7344,1675.2363 1130.2031,1675.2363 Q1130.5781,1675.2363 1130.8125,1675.502 Q1131.0469,1675.752 1131.0469,1676.3613 L1131.0469,1678.3301 Q1131.0469,1678.877 1130.9219,1679.0645 Q1130.6563,1679.4551 1130.2031,1679.4551 Q1129.7344,1679.4551 1129.4688,1679.0488 Q1129.3438,1678.8613 1129.3438,1678.1895 L1127.8594,1678.1895 Z " fill="#000000"/><text fill="#000000" font-family="sans-serif" font-size="12" font-style="italic" lengthAdjust="spacing" textLength="43" x="1141" y="1665.0703">&#171;entity&#187;</text><text fill="#000000" font-family="sans-serif" font-size="12" font-style="italic" lengthAdjust="spacing" textLength="35" x="1145" y="1681.0313">&#171;root&#187;</text><text fill="#000000" font-family="sans-serif" font-size="14" lengthAdjust="spacing" textLength="29" x="1148" y="1699.1504">User</text><line style="stroke:#000000;stroke-width:0.5;" x1="1115" x2="1184" y1="1707.6641" y2="1707.6641"/></g><!--entity UserEmail--><g id="elem_UserEmail"><rect fill="#F0FFDD" height="43.2422" rx="2.5" ry="2.5" style="stroke:#000000;stroke-width:0.5;" width="117" x="1281" y="1816.1211"/><text fill="#000000" font-family="sans-serif" font-size="14" font-style="italic" lengthAdjust="spacing" textLength="97" x="1291" y="1834.2285">&#171;Value Object&#187;</text><text fill="#000000" font-family="sans-serif" font-size="14" lengthAdjust="spacing" textLength="63" x="1308" y="1852.8496">UserEmail</text></g><!--entity UserName--><g id="elem_UserName"><rect fill="#F0FFDD" height="43.2422" rx="2.5" ry="2.5" style="stroke:#000000;stroke-width:0.5;" width="117" x="1281" y="1738.1211"/><text fill="#000000" font-family="sans-serif" font-size="14" font-style="italic" lengthAdjust="spacing" textLength="97" x="1291" y="1756.2285">&#171;Value Object&#187;</text><text fill="#000000" font-family="sans-serif" font-size="14" lengthAdjust="spacing" textLength="65" x="1307" y="1774.8496">UserName</text></g><!--entity UserPassword--><g id="elem_UserPassword"><rect fill="#F0FFDD" height="43.2422" rx="2.5" ry="2.5" style="stroke:#000000;stroke-width:0.5;" width="117" x="1281" y="1660.1211"/><text fill="#000000" font-family="sans-serif" font-size="14" font-style="italic" lengthAdjust="spacing" textLength="97" x="1291" y="1678.2285">&#171;Value Object&#187;</text><text fill="#000000" font-family="sans-serif" font-size="14" lengthAdjust="spacing" textLength="90" x="1294.5" y="1696.8496">UserPassword</text></g><!--entity Username--><g id="elem_Username"><rect fill="#F0FFDD" height="43.2422" rx="2.5" ry="2.5" style="stroke:#000000;stroke-width:0.5;" width="117" x="1281" y="1582.1211"/><text fill="#000000" font-family="sans-serif" font-size="14" font-style="italic" lengthAdjust="spacing" textLength="97" x="1291" y="1600.2285">&#171;Value Object&#187;</text><text fill="#000000" font-family="sans-serif" font-size="14" lengthAdjust="spacing" textLength="64" x="1307.5" y="1618.8496">Username</text></g><!--link JobOpening to JobReference--><g id="link_JobOpening_JobReference"><path codeLine="42" d="M100.53,413.3211 C123.94,447.3711 163.15,499.2211 206.5,534.6211 C214.44,541.1111 218.4067,544.0663 227.5367,549.1863 " fill="none" id="JobOpening-to-JobReference" style="stroke:#808080;stroke-width:1.0;"/><polygon fill="#808080" points="232.77,552.1211,226.8766,544.2301,228.4089,549.6755,222.9636,551.2078,232.77,552.1211" style="stroke:#808080;stroke-width:1.0;"/></g><!--link JobOpening to TitleOrFunction--><g id="link_JobOpening_TitleOrFunction"><path codeLine="43" d="M131.05,411.7611 C154.06,425.8911 181.43,442.3711 206.5,456.6211 C216.67,462.4011 222.4733,465.6123 232.8833,471.1523 " fill="none" id="JobOpening-to-TitleOrFunction" style="stroke:#808080;stroke-width:1.0;"/><polygon fill="#808080" points="238.18,473.9711,232.1142,466.2118,233.7661,471.6221,228.3558,473.274,238.18,473.9711" style="stroke:#808080;stroke-width:1.0;"/></g><!--link JobOpening to ContractType--><g id="link_JobOpening_ContractType"><path codeLine="44" d="M131.07,388.8711 C159.13,394.2811 187.7086,399.8047 216.4286,405.3447 " fill="none" id="JobOpening-to-ContractType" style="stroke:#808080;stroke-width:1.0;"/><polygon fill="#808080" points="222.32,406.4811,214.2405,400.8489,217.4105,405.5341,212.7253,408.704,222.32,406.4811" style="stroke:#808080;stroke-width:1.0;"/></g><!--link JobOpening to Mode--><g id="link_JobOpening_Mode"><path codeLine="45" d="M131.07,368.3711 C159.13,362.9611 187.7086,357.4375 216.4286,351.8975 " fill="none" id="JobOpening-to-Mode" style="stroke:#808080;stroke-width:1.0;"/><polygon fill="#808080" points="222.32,350.7611,212.7253,348.5381,217.4105,351.7081,214.2405,356.3933,222.32,350.7611" style="stroke:#808080;stroke-width:1.0;"/></g><!--link JobOpening to Address--><g id="link_JobOpening_Address"><path codeLine="46" d="M131.05,345.4811 C154.06,331.3511 181.43,314.8711 206.5,300.6211 C216.67,294.8411 222.4733,291.6299 232.8833,286.0899 " fill="none" id="JobOpening-to-Address" style="stroke:#808080;stroke-width:1.0;"/><polygon fill="#808080" points="238.18,283.2711,228.3558,283.9682,233.7661,285.6201,232.1142,291.0304,238.18,283.2711" style="stroke:#808080;stroke-width:1.0;"/></g><!--link JobOpening to VacanciesNumber--><g id="link_JobOpening_VacanciesNumber"><path codeLine="47" d="M100.53,343.9211 C123.94,309.8711 163.15,258.0211 206.5,222.6211 C214.44,216.1311 218.4067,213.1759 227.5367,208.0559 " fill="none" id="JobOpening-to-VacanciesNumber" style="stroke:#808080;stroke-width:1.0;"/><polygon fill="#808080" points="232.77,205.1211,222.9636,206.0344,228.4089,207.5667,226.8766,213.0121,232.77,205.1211" style="stroke:#808080;stroke-width:1.0;"/></g><!--link JobOpening to Description--><g id="link_JobOpening_Description"><path codeLine="48" d="M89.69,344.0711 C107.91,294.5711 147.25,203.0211 206.5,144.6211 C213.19,138.0311 216.0652,135.3415 224.3252,130.4215 " fill="none" id="JobOpening-to-Description" style="stroke:#808080;stroke-width:1.0;"/><polygon fill="#808080" points="229.48,127.3511,219.7008,128.5202,225.1843,129.9098,223.7947,135.3933,229.48,127.3511" style="stroke:#808080;stroke-width:1.0;"/></g><!--link JobInterview to InterviewResults--><g id="link_JobInterview_InterviewResults"><path codeLine="77" d="M889.72,1154.4411 C950.62,1184.8411 1043.3717,1231.1412 1099.6617,1259.2412 " fill="none" id="JobInterview-to-InterviewResults" style="stroke:#808080;stroke-width:1.0;"/><polygon fill="#808080" points="1105.03,1261.9211,1098.7641,1254.3225,1100.5564,1259.6879,1095.191,1261.4802,1105.03,1261.9211" style="stroke:#808080;stroke-width:1.0;"/></g><!--link JobInterview to Score--><g id="link_JobInterview_Score"><path codeLine="78" d="M889.72,1141.0311 C945.83,1155.0311 1027.6884,1175.4687 1085.1684,1189.8087 " fill="none" id="JobInterview-to-Score" style="stroke:#808080;stroke-width:1.0;"/><polygon fill="#808080" points="1090.99,1191.2611,1083.2259,1185.2015,1086.1387,1190.0508,1081.2894,1192.9636,1090.99,1191.2611" style="stroke:#808080;stroke-width:1.0;"/></g><!--link JobInterview to InterviewTime--><g id="link_JobInterview_InterviewTime"><path codeLine="79" d="M889.72,1127.6211 C945.83,1127.6211 1027.51,1127.6211 1084.99,1127.6211 " fill="none" id="JobInterview-to-InterviewTime" style="stroke:#808080;stroke-width:1.0;"/><polygon fill="#808080" points="1090.99,1127.6211,1081.99,1123.6211,1085.99,1127.6211,1081.99,1131.6211,1090.99,1127.6211" style="stroke:#808080;stroke-width:1.0;"/></g><!--link JobInterview to InterviewDate--><g id="link_JobInterview_InterviewDate"><path codeLine="80" d="M889.72,1114.2111 C945.83,1100.2111 1027.6884,1079.7734 1085.1684,1065.4334 " fill="none" id="JobInterview-to-InterviewDate" style="stroke:#808080;stroke-width:1.0;"/><polygon fill="#808080" points="1090.99,1063.9811,1081.2894,1062.2786,1086.1387,1065.1914,1083.2259,1070.0407,1090.99,1063.9811" style="stroke:#808080;stroke-width:1.0;"/></g><!--link Application to ApplicationFiles--><g id="link_Application_ApplicationFiles"><path codeLine="96" d="M331.55,868.5111 C363.69,880.1211 400.0568,893.253 433.8368,905.453 " fill="none" id="Application-to-ApplicationFiles" style="stroke:#808080;stroke-width:1.0;"/><polygon fill="#808080" points="439.48,907.4911,432.3739,900.6718,434.7773,905.7927,429.6564,908.1961,439.48,907.4911" style="stroke:#808080;stroke-width:1.0;"/></g><!--link Application to Status--><g id="link_Application_Status"><path codeLine="97" d="M331.55,850.6211 C363.94,850.6211 400.35,850.6211 434.26,850.6211 " fill="none" id="Application-to-Status" style="stroke:#808080;stroke-width:1.0;"/><polygon fill="#808080" points="440.26,850.6211,431.26,846.6211,435.26,850.6211,431.26,854.6211,440.26,850.6211" style="stroke:#808080;stroke-width:1.0;"/></g><!--link Application to SubmissionDate--><g id="link_Application_SubmissionDate"><path codeLine="98" d="M331.55,832.7311 C363.32,821.2611 399.0865,808.3386 432.6565,796.2186 " fill="none" id="Application-to-SubmissionDate" style="stroke:#808080;stroke-width:1.0;"/><polygon fill="#808080" points="438.3,794.1811,428.4765,793.475,433.5971,795.879,431.1931,800.9996,438.3,794.1811" style="stroke:#808080;stroke-width:1.0;"/></g><!--link Application to Rank--><g id="link_Application_Rank"><path codeLine="99" d="M313.41,816.0611 C337.69,790.8311 373.11,757.0711 409,733.6211 C418.89,727.1611 424.5763,723.8443 435.5363,718.7643 " fill="none" id="Application-to-Rank" style="stroke:#808080;stroke-width:1.0;"/><polygon fill="#808080" points="440.98,716.2411,431.1324,716.3967,436.4436,718.3437,434.4966,723.655,440.98,716.2411" style="stroke:#808080;stroke-width:1.0;"/></g><!--link Candidate to Curriculum--><g id="link_Candidate_Curriculum"><path codeLine="127" d="M883.8,1449.5911 C939.46,1456.5311 1025.3762,1467.2582 1084.9262,1474.6882 " fill="none" id="Candidate-to-Curriculum" style="stroke:#808080;stroke-width:1.0;"/><polygon fill="#808080" points="1090.88,1475.4311,1082.4445,1470.3476,1085.9185,1474.812,1081.454,1478.286,1090.88,1475.4311" style="stroke:#808080;stroke-width:1.0;"/></g><!--link Candidate to TelephoneNumber--><g id="link_Candidate_TelephoneNumber"><path codeLine="128" d="M883.8,1437.6511 C936.38,1431.0911 1015.3262,1421.2444 1074.7562,1413.8244 " fill="none" id="Candidate-to-TelephoneNumber" style="stroke:#808080;stroke-width:1.0;"/><polygon fill="#808080" points="1080.71,1413.0811,1071.2838,1410.2269,1075.7485,1413.7005,1072.2749,1418.1653,1080.71,1413.0811" style="stroke:#808080;stroke-width:1.0;"/></g><!--link User to UserEmail--><g id="link_User_UserEmail"><path codeLine="143" d="M1185.11,1714.9911 C1210.78,1739.1611 1247.08,1772.1011 1281,1798.6211 C1288.6,1804.5611 1292.113,1807.2205 1300.163,1812.7105 " fill="none" id="User-to-UserEmail" style="stroke:#808080;stroke-width:1.0;"/><polygon fill="#808080" points="1305.12,1816.0911,1299.9383,1807.7156,1300.9892,1813.2739,1295.4308,1814.3249,1305.12,1816.0911" style="stroke:#808080;stroke-width:1.0;"/></g><!--link User to UserName--><g id="link_User_UserName"><path codeLine="144" d="M1185.42,1696.1111 C1213.77,1707.8711 1248.6377,1722.3426 1280.8277,1735.6926 " fill="none" id="User-to-UserName" style="stroke:#808080;stroke-width:1.0;"/><polygon fill="#808080" points="1286.37,1737.9911,1279.5889,1730.8485,1281.7514,1736.0757,1276.5242,1738.2382,1286.37,1737.9911" style="stroke:#808080;stroke-width:1.0;"/></g><!--link User to Username--><g id="link_User_Username"><path codeLine="145" d="M1185.42,1667.1311 C1213.77,1655.3711 1248.6377,1640.8996 1280.8277,1627.5496 " fill="none" id="User-to-Username" style="stroke:#808080;stroke-width:1.0;"/><polygon fill="#808080" points="1286.37,1625.2511,1276.5242,1625.004,1281.7514,1627.1665,1279.5889,1632.3937,1286.37,1625.2511" style="stroke:#808080;stroke-width:1.0;"/></g><!--link User to UserPassword--><g id="link_User_UserPassword"><path codeLine="146" d="M1185.42,1681.6211 C1212.18,1681.6211 1243.68,1681.6211 1274.87,1681.6211 " fill="none" id="User-to-UserPassword" style="stroke:#808080;stroke-width:1.0;"/><polygon fill="#808080" points="1280.87,1681.6211,1271.87,1677.6211,1275.87,1681.6211,1271.87,1685.6211,1280.87,1681.6211" style="stroke:#808080;stroke-width:1.0;"/></g><!--link Application to JobInterview--><g id="link_Application_JobInterview"><path codeLine="150" d="M312.55,885.2011 C336.66,910.7811 372.25,944.9711 409,967.6211 C532,1043.4111 690.8752,1091.1629 774.5352,1113.0429 " fill="none" id="Application-to-JobInterview" style="stroke:#808080;stroke-width:1.0;"/><polygon fill="#808080" points="780.34,1114.5611,772.645,1108.414,775.5027,1113.296,770.6208,1116.1537,780.34,1114.5611" style="stroke:#808080;stroke-width:1.0;"/><text fill="#000000" font-family="sans-serif" font-size="13" lengthAdjust="spacing" textLength="7" x="310.3711" y="906.6981">1</text><text fill="#000000" font-family="sans-serif" font-size="13" lengthAdjust="spacing" textLength="7" x="765.5248" y="1128.0269">1</text></g><!--reverse link JobOpening to Application--><g id="link_JobOpening_Application"><path codeLine="151" d="M95.2111,418.847 C132.5711,506.127 227.75,728.5211 265.12,815.8611 " fill="none" id="JobOpening-backto-Application" style="stroke:#808080;stroke-width:1.0;"/><polygon fill="#808080" points="92.85,413.3311,92.7143,423.179,94.8176,417.9277,100.0689,420.0309,92.85,413.3311" style="stroke:#808080;stroke-width:1.0;"/><text fill="#000000" font-family="sans-serif" font-size="13" lengthAdjust="spacing" textLength="21" x="162" y="582.6494">has</text><text fill="#000000" font-family="sans-serif" font-size="13" lengthAdjust="spacing" textLength="7" x="87.8955" y="434.578">1</text><text fill="#000000" font-family="sans-serif" font-size="13" lengthAdjust="spacing" textLength="9" x="247.9937" y="804.9823">N</text></g><!--link Application to Candidate--><g id="link_Application_Candidate"><path codeLine="152" d="M298.71,885.4111 C320.96,930.2011 362.91,1009.5411 409,1070.6211 C502.52,1194.5711 532.85,1222.0611 652,1321.6211 C694.91,1357.4711 743.4338,1389.2466 781.3338,1412.4666 " fill="none" id="Application-to-Candidate" style="stroke:#808080;stroke-width:1.0;"/><polygon fill="#808080" points="786.45,1415.6011,780.8654,1407.4886,782.1865,1412.989,776.6861,1414.3101,786.45,1415.6011" style="stroke:#808080;stroke-width:1.0;"/><text fill="#000000" font-family="sans-serif" font-size="13" lengthAdjust="spacing" textLength="9" x="291.8979" y="906.6713">N</text><text fill="#000000" font-family="sans-serif" font-size="13" lengthAdjust="spacing" textLength="7" x="771.4798" y="1426.6977">1</text></g><!--link Candidate to User--><g id="link_Candidate_User"><path codeLine="153" d="M881.44,1478.2311 C944.41,1526.1911 1052.087,1608.1854 1108.867,1651.4354 " fill="none" id="Candidate-to-User" style="stroke:#808080;stroke-width:1.0;"/><polygon fill="#808080" points="1113.64,1655.0711,1108.9042,1646.4356,1109.6625,1652.0414,1104.0567,1652.7996,1113.64,1655.0711" style="stroke:#808080;stroke-width:1.0;"/></g><!--SRC=[fLRVRzem47xFNs5bpqZRQuMGA8ogKqUhbktTn9V4gsD7ZZE6glxlEpiGd612gl82t7q-ttU_V3bdG0emkM9L920rn2YYUPORmhY6n70besZ3ZG0IBrL1kIG_5GD19kIPobSkCxAWad563LHn55KeAgcc1Ka4hIho5X7yFF0K7hY4MwKPw8KIIfCbrQ-teeOkW2QlcLQrP0re_lJqSB-OR-uVrmxNrtzPVLtXn-dcMgjT8yuqx1kyT-5MuE7etVUnH0dDuCNiaP-bIsKceCE2QZP0uau3oCypM2xx36nqxa8iReyi3hwJ-8VQaiSIfCt5F4Fg6UOYVej06cxs1DL7xNJQo6QpwLGhPMQpoDbt917t32bea0aWyZV5t937xH-Cocns2C7x2Uvgub6lQkcAPCI9XP96qyHizkMO2soPZO3D6TE0XNOT-PicL2OSgdLTR46FEB64Aj6y7ERdlhmWJoQpJYn3-bxmGX0_MY6z3Kz8VeX7IDKBG0ZYCMw8IMNWC11KUkwK_M3_aoqG9S52J0uaLKAe7TgyQK4JajP2J0mlm9DXZvcJ32HpzuLkRkcElnBjQoYiFK-IxxUQCr-YPCLDtu5UVzrB0_elXzs51ZlfBxLOKr0jxXcgMfYBLNiemkRGIw8qZ4AsvZSOqe-TM2AbWHFDTuUfBPS-dmimn-2QYKrR6fSnrijkSkPbANX2NOi6SkEh1wUV1rnn0UUPEHiEBuQQUWoktXQygj1mCCPdUFkiNaGrpuH7ohLyp_SWg74thEfu68HOfq9jwLdzm2Yex8N60FD70JOVmZm9JH8eko06YS0tbbqT5y6GVC130_yCIV4asN6JEro2imyBg3gU0ro6X3_VB3h55nfeaZV_g37u6vXTga97hjpoAKEuaD6ZgzJB9YvhM6U7ZMrWwhLRNQYjJih1fbhKMlEa5dKnPg400MMEYRdmF7TQuEI0UolRUmBAdjqEoLyLNXJWv-I3r2pYkyt226OMkwO5Z8G-uTwymurl95oYvU7bnB6neMYTFXTR_ywbCYWzEkWAnfyKyRSOGOYoF_mf7dbhXjLD9nCIhqdScJCt9ATLrzxQizTcDUhcrteK_GS0]--></g></svg>