<?xml version="1.0" encoding="us-ascii" standalone="no"?><svg xmlns="http://www.w3.org/2000/svg" xmlns:xlink="http://www.w3.org/1999/xlink" contentStyleType="text/css" height="1296px" preserveAspectRatio="none" style="width:1785px;height:1296px;background:#FFFFFF;" version="1.1" viewBox="0 0 1785 1296" width="1785px" zoomAndPan="magnify"><defs/><g><rect fill="#FFFFFF" height="1089.1855" style="stroke:#181818;stroke-width:1.0;" width="10" x="76.5" y="98.2422"/><rect fill="#FFFFFF" height="281.6191" style="stroke:#181818;stroke-width:1.0;" width="10" x="358.5" y="121.5332"/><rect fill="#FFFFFF" height="487.6563" style="stroke:#181818;stroke-width:1.0;" width="10" x="358.5" y="434.4434"/><rect fill="#FFFFFF" height="219.0371" style="stroke:#181818;stroke-width:1.0;" width="10" x="358.5" y="953.3906"/><rect fill="#FFFFFF" height="219.0371" style="stroke:#181818;stroke-width:1.0;" width="10" x="708.5" y="152.8242"/><rect fill="#FFFFFF" height="156.4551" style="stroke:#181818;stroke-width:1.0;" width="10" x="708.5" y="465.7344"/><rect fill="#FFFFFF" height="193.7461" style="stroke:#181818;stroke-width:1.0;" width="10" x="708.5" y="679.7715"/><rect fill="#FFFFFF" height="156.4551" style="stroke:#181818;stroke-width:1.0;" width="10" x="708.5" y="984.6816"/><rect fill="#FFFFFF" height="93.873" style="stroke:#181818;stroke-width:1.0;" width="10" x="933.5" y="184.1152"/><rect fill="#FFFFFF" height="31.291" style="stroke:#181818;stroke-width:1.0;" width="10" x="933.5" y="309.2793"/><rect fill="#FFFFFF" height="93.873" style="stroke:#181818;stroke-width:1.0;" width="10" x="1077" y="497.0254"/><rect fill="#FFFFFF" height="93.873" style="stroke:#181818;stroke-width:1.0;" width="10" x="1077" y="1015.9727"/><rect fill="#FFFFFF" height="93.873" style="stroke:#181818;stroke-width:1.0;" width="10" x="1221" y="748.3535"/><rect fill="#FFFFFF" height="31.291" style="stroke:#181818;stroke-width:1.0;" width="10" x="1375" y="215.4063"/><rect fill="#FFFFFF" height="31.291" style="stroke:#181818;stroke-width:1.0;" width="10" x="1531.5" y="528.3164"/><rect fill="#FFFFFF" height="31.291" style="stroke:#181818;stroke-width:1.0;" width="10" x="1531.5" y="1047.2637"/><rect fill="#FFFFFF" height="31.291" style="stroke:#181818;stroke-width:1.0;" width="10" x="1688.5" y="779.6445"/><rect fill="none" height="543.2383" style="stroke:#000000;stroke-width:1.5;" width="1769" x="10" y="637.1895"/><line style="stroke:#181818;stroke-width:0.5;stroke-dasharray:5.0,5.0;" x1="81" x2="81" y1="88.2422" y2="1197.4277"/><line style="stroke:#181818;stroke-width:0.5;stroke-dasharray:5.0,5.0;" x1="363" x2="363" y1="88.2422" y2="1197.4277"/><line style="stroke:#181818;stroke-width:0.5;stroke-dasharray:5.0,5.0;" x1="713" x2="713" y1="88.2422" y2="1197.4277"/><line style="stroke:#181818;stroke-width:0.5;stroke-dasharray:5.0,5.0;" x1="938" x2="938" y1="88.2422" y2="1197.4277"/><line style="stroke:#181818;stroke-width:0.5;stroke-dasharray:5.0,5.0;" x1="1082" x2="1082" y1="88.2422" y2="1197.4277"/><line style="stroke:#181818;stroke-width:0.5;stroke-dasharray:5.0,5.0;" x1="1226" x2="1226" y1="88.2422" y2="1197.4277"/><line style="stroke:#181818;stroke-width:0.5;stroke-dasharray:5.0,5.0;" x1="1380" x2="1380" y1="88.2422" y2="1197.4277"/><line style="stroke:#181818;stroke-width:0.5;stroke-dasharray:5.0,5.0;" x1="1536" x2="1536" y1="88.2422" y2="1197.4277"/><line style="stroke:#181818;stroke-width:0.5;stroke-dasharray:5.0,5.0;" x1="1693" x2="1693" y1="88.2422" y2="1197.4277"/><text fill="#000000" font-family="sans-serif" font-size="14" lengthAdjust="spacing" textLength="117" x="20" y="84.7285">CustomerManager</text><ellipse cx="81.5" cy="18.1211" fill="#E2E2F0" rx="8" ry="8" style="stroke:#181818;stroke-width:0.5;"/><path d="M81.5,26.1211 L81.5,53.1211 M68.5,34.1211 L94.5,34.1211 M81.5,53.1211 L68.5,68.1211 M81.5,53.1211 L94.5,68.1211 " fill="none" style="stroke:#181818;stroke-width:0.5;"/><text fill="#000000" font-family="sans-serif" font-size="14" lengthAdjust="spacing" textLength="117" x="20" y="1211.5352">CustomerManager</text><ellipse cx="81.5" cy="1223.5488" fill="#E2E2F0" rx="8" ry="8" style="stroke:#181818;stroke-width:0.5;"/><path d="M81.5,1231.5488 L81.5,1258.5488 M68.5,1239.5488 L94.5,1239.5488 M81.5,1258.5488 L68.5,1273.5488 M81.5,1258.5488 L94.5,1273.5488 " fill="none" style="stroke:#181818;stroke-width:0.5;"/><rect fill="#E2E2F0" height="51.2422" rx="2.5" ry="2.5" style="stroke:#181818;stroke-width:0.5;" width="131" x="298" y="36"/><text fill="#000000" font-family="sans-serif" font-size="14" font-style="italic" lengthAdjust="spacing" textLength="95" x="316" y="58.1074">&#171;presentation&#187;</text><text fill="#000000" font-family="sans-serif" font-size="14" lengthAdjust="spacing" textLength="117" x="305" y="76.7285">RankCandidatesUI</text><rect fill="#E2E2F0" height="51.2422" rx="2.5" ry="2.5" style="stroke:#181818;stroke-width:0.5;" width="131" x="298" y="1196.4277"/><text fill="#000000" font-family="sans-serif" font-size="14" font-style="italic" lengthAdjust="spacing" textLength="95" x="316" y="1218.5352">&#171;presentation&#187;</text><text fill="#000000" font-family="sans-serif" font-size="14" lengthAdjust="spacing" textLength="117" x="305" y="1237.1563">RankCandidatesUI</text><rect fill="#E2E2F0" height="51.2422" rx="2.5" ry="2.5" style="stroke:#181818;stroke-width:0.5;" width="181" x="623" y="36"/><text fill="#000000" font-family="sans-serif" font-size="14" font-style="italic" lengthAdjust="spacing" textLength="75" x="676" y="58.1074">&#171;controller&#187;</text><text fill="#000000" font-family="sans-serif" font-size="14" lengthAdjust="spacing" textLength="167" x="630" y="76.7285">RankCandidatesController</text><rect fill="#E2E2F0" height="51.2422" rx="2.5" ry="2.5" style="stroke:#181818;stroke-width:0.5;" width="181" x="623" y="1196.4277"/><text fill="#000000" font-family="sans-serif" font-size="14" font-style="italic" lengthAdjust="spacing" textLength="75" x="676" y="1218.5352">&#171;controller&#187;</text><text fill="#000000" font-family="sans-serif" font-size="14" lengthAdjust="spacing" textLength="167" x="630" y="1237.1563">RankCandidatesController</text><rect fill="#E2E2F0" height="51.2422" rx="2.5" ry="2.5" style="stroke:#181818;stroke-width:0.5;" width="137" x="870" y="36"/><text fill="#000000" font-family="sans-serif" font-size="14" font-style="italic" lengthAdjust="spacing" textLength="60" x="908.5" y="58.1074">&#171;service&#187;</text><text fill="#000000" font-family="sans-serif" font-size="14" lengthAdjust="spacing" textLength="123" x="877" y="76.7285">JobOpeningService</text><rect fill="#E2E2F0" height="51.2422" rx="2.5" ry="2.5" style="stroke:#181818;stroke-width:0.5;" width="137" x="870" y="1196.4277"/><text fill="#000000" font-family="sans-serif" font-size="14" font-style="italic" lengthAdjust="spacing" textLength="60" x="908.5" y="1218.5352">&#171;service&#187;</text><text fill="#000000" font-family="sans-serif" font-size="14" lengthAdjust="spacing" textLength="123" x="877" y="1237.1563">JobOpeningService</text><rect fill="#E2E2F0" height="51.2422" rx="2.5" ry="2.5" style="stroke:#181818;stroke-width:0.5;" width="130" x="1017" y="36"/><text fill="#000000" font-family="sans-serif" font-size="14" font-style="italic" lengthAdjust="spacing" textLength="60" x="1052" y="58.1074">&#171;service&#187;</text><text fill="#000000" font-family="sans-serif" font-size="14" lengthAdjust="spacing" textLength="116" x="1024" y="76.7285">ApplicationService</text><rect fill="#E2E2F0" height="51.2422" rx="2.5" ry="2.5" style="stroke:#181818;stroke-width:0.5;" width="130" x="1017" y="1196.4277"/><text fill="#000000" font-family="sans-serif" font-size="14" font-style="italic" lengthAdjust="spacing" textLength="60" x="1052" y="1218.5352">&#171;service&#187;</text><text fill="#000000" font-family="sans-serif" font-size="14" lengthAdjust="spacing" textLength="116" x="1024" y="1237.1563">ApplicationService</text><rect fill="#E2E2F0" height="51.2422" rx="2.5" ry="2.5" style="stroke:#181818;stroke-width:0.5;" width="138" x="1157" y="36"/><text fill="#000000" font-family="sans-serif" font-size="14" font-style="italic" lengthAdjust="spacing" textLength="60" x="1196" y="58.1074">&#171;service&#187;</text><text fill="#000000" font-family="sans-serif" font-size="14" lengthAdjust="spacing" textLength="124" x="1164" y="76.7285">JobInterviewService</text><rect fill="#E2E2F0" height="51.2422" rx="2.5" ry="2.5" style="stroke:#181818;stroke-width:0.5;" width="138" x="1157" y="1196.4277"/><text fill="#000000" font-family="sans-serif" font-size="14" font-style="italic" lengthAdjust="spacing" textLength="60" x="1196" y="1218.5352">&#171;service&#187;</text><text fill="#000000" font-family="sans-serif" font-size="14" lengthAdjust="spacing" textLength="124" x="1164" y="1237.1563">JobInterviewService</text><text fill="#000000" font-family="sans-serif" font-size="14" font-style="italic" lengthAdjust="spacing" textLength="79" x="1337.5" y="66.1074">&#171;repository&#187;</text><text fill="#000000" font-family="sans-serif" font-size="14" lengthAdjust="spacing" textLength="144" x="1305" y="84.7285">JobOpeningRepository</text><path d="M1362,15 C1362,5 1380,5 1380,5 C1380,5 1398,5 1398,15 L1398,41 C1398,51 1380,51 1380,51 C1380,51 1362,51 1362,41 L1362,15 " fill="#E2E2F0" style="stroke:#181818;stroke-width:1.5;"/><path d="M1362,15 C1362,25 1380,25 1380,25 C1380,25 1398,25 1398,15 " fill="none" style="stroke:#181818;stroke-width:1.5;"/><text fill="#000000" font-family="sans-serif" font-size="14" font-style="italic" lengthAdjust="spacing" textLength="79" x="1337.5" y="1211.5352">&#171;repository&#187;</text><text fill="#000000" font-family="sans-serif" font-size="14" lengthAdjust="spacing" textLength="144" x="1305" y="1230.1563">JobOpeningRepository</text><path d="M1362,1243.6699 C1362,1233.6699 1380,1233.6699 1380,1233.6699 C1380,1233.6699 1398,1233.6699 1398,1243.6699 L1398,1269.6699 C1398,1279.6699 1380,1279.6699 1380,1279.6699 C1380,1279.6699 1362,1279.6699 1362,1269.6699 L1362,1243.6699 " fill="#E2E2F0" style="stroke:#181818;stroke-width:1.5;"/><path d="M1362,1243.6699 C1362,1253.6699 1380,1253.6699 1380,1253.6699 C1380,1253.6699 1398,1253.6699 1398,1243.6699 " fill="none" style="stroke:#181818;stroke-width:1.5;"/><text fill="#000000" font-family="sans-serif" font-size="14" font-style="italic" lengthAdjust="spacing" textLength="79" x="1494" y="66.1074">&#171;repository&#187;</text><text fill="#000000" font-family="sans-serif" font-size="14" lengthAdjust="spacing" textLength="137" x="1465" y="84.7285">ApplicationRepository</text><path d="M1518.5,15 C1518.5,5 1536.5,5 1536.5,5 C1536.5,5 1554.5,5 1554.5,15 L1554.5,41 C1554.5,51 1536.5,51 1536.5,51 C1536.5,51 1518.5,51 1518.5,41 L1518.5,15 " fill="#E2E2F0" style="stroke:#181818;stroke-width:1.5;"/><path d="M1518.5,15 C1518.5,25 1536.5,25 1536.5,25 C1536.5,25 1554.5,25 1554.5,15 " fill="none" style="stroke:#181818;stroke-width:1.5;"/><text fill="#000000" font-family="sans-serif" font-size="14" font-style="italic" lengthAdjust="spacing" textLength="79" x="1494" y="1211.5352">&#171;repository&#187;</text><text fill="#000000" font-family="sans-serif" font-size="14" lengthAdjust="spacing" textLength="137" x="1465" y="1230.1563">ApplicationRepository</text><path d="M1518.5,1243.6699 C1518.5,1233.6699 1536.5,1233.6699 1536.5,1233.6699 C1536.5,1233.6699 1554.5,1233.6699 1554.5,1243.6699 L1554.5,1269.6699 C1554.5,1279.6699 1536.5,1279.6699 1536.5,1279.6699 C1536.5,1279.6699 1518.5,1279.6699 1518.5,1269.6699 L1518.5,1243.6699 " fill="#E2E2F0" style="stroke:#181818;stroke-width:1.5;"/><path d="M1518.5,1243.6699 C1518.5,1253.6699 1536.5,1253.6699 1536.5,1253.6699 C1536.5,1253.6699 1554.5,1253.6699 1554.5,1243.6699 " fill="none" style="stroke:#181818;stroke-width:1.5;"/><text fill="#000000" font-family="sans-serif" font-size="14" font-style="italic" lengthAdjust="spacing" textLength="79" x="1651" y="66.1074">&#171;repository&#187;</text><text fill="#000000" font-family="sans-serif" font-size="14" lengthAdjust="spacing" textLength="145" x="1618" y="84.7285">JobInterviewRepository</text><path d="M1675.5,15 C1675.5,5 1693.5,5 1693.5,5 C1693.5,5 1711.5,5 1711.5,15 L1711.5,41 C1711.5,51 1693.5,51 1693.5,51 C1693.5,51 1675.5,51 1675.5,41 L1675.5,15 " fill="#E2E2F0" style="stroke:#181818;stroke-width:1.5;"/><path d="M1675.5,15 C1675.5,25 1693.5,25 1693.5,25 C1693.5,25 1711.5,25 1711.5,15 " fill="none" style="stroke:#181818;stroke-width:1.5;"/><text fill="#000000" font-family="sans-serif" font-size="14" font-style="italic" lengthAdjust="spacing" textLength="79" x="1651" y="1211.5352">&#171;repository&#187;</text><text fill="#000000" font-family="sans-serif" font-size="14" lengthAdjust="spacing" textLength="145" x="1618" y="1230.1563">JobInterviewRepository</text><path d="M1675.5,1243.6699 C1675.5,1233.6699 1693.5,1233.6699 1693.5,1233.6699 C1693.5,1233.6699 1711.5,1233.6699 1711.5,1243.6699 L1711.5,1269.6699 C1711.5,1279.6699 1693.5,1279.6699 1693.5,1279.6699 C1693.5,1279.6699 1675.5,1279.6699 1675.5,1269.6699 L1675.5,1243.6699 " fill="#E2E2F0" style="stroke:#181818;stroke-width:1.5;"/><path d="M1675.5,1243.6699 C1675.5,1253.6699 1693.5,1253.6699 1693.5,1253.6699 C1693.5,1253.6699 1711.5,1253.6699 1711.5,1243.6699 " fill="none" style="stroke:#181818;stroke-width:1.5;"/><rect fill="#FFFFFF" height="1089.1855" style="stroke:#181818;stroke-width:1.0;" width="10" x="76.5" y="98.2422"/><rect fill="#FFFFFF" height="281.6191" style="stroke:#181818;stroke-width:1.0;" width="10" x="358.5" y="121.5332"/><rect fill="#FFFFFF" height="487.6563" style="stroke:#181818;stroke-width:1.0;" width="10" x="358.5" y="434.4434"/><rect fill="#FFFFFF" height="219.0371" style="stroke:#181818;stroke-width:1.0;" width="10" x="358.5" y="953.3906"/><rect fill="#FFFFFF" height="219.0371" style="stroke:#181818;stroke-width:1.0;" width="10" x="708.5" y="152.8242"/><rect fill="#FFFFFF" height="156.4551" style="stroke:#181818;stroke-width:1.0;" width="10" x="708.5" y="465.7344"/><rect fill="#FFFFFF" height="193.7461" style="stroke:#181818;stroke-width:1.0;" width="10" x="708.5" y="679.7715"/><rect fill="#FFFFFF" height="156.4551" style="stroke:#181818;stroke-width:1.0;" width="10" x="708.5" y="984.6816"/><rect fill="#FFFFFF" height="93.873" style="stroke:#181818;stroke-width:1.0;" width="10" x="933.5" y="184.1152"/><rect fill="#FFFFFF" height="31.291" style="stroke:#181818;stroke-width:1.0;" width="10" x="933.5" y="309.2793"/><rect fill="#FFFFFF" height="93.873" style="stroke:#181818;stroke-width:1.0;" width="10" x="1077" y="497.0254"/><rect fill="#FFFFFF" height="93.873" style="stroke:#181818;stroke-width:1.0;" width="10" x="1077" y="1015.9727"/><rect fill="#FFFFFF" height="93.873" style="stroke:#181818;stroke-width:1.0;" width="10" x="1221" y="748.3535"/><rect fill="#FFFFFF" height="31.291" style="stroke:#181818;stroke-width:1.0;" width="10" x="1375" y="215.4063"/><rect fill="#FFFFFF" height="31.291" style="stroke:#181818;stroke-width:1.0;" width="10" x="1531.5" y="528.3164"/><rect fill="#FFFFFF" height="31.291" style="stroke:#181818;stroke-width:1.0;" width="10" x="1531.5" y="1047.2637"/><rect fill="#FFFFFF" height="31.291" style="stroke:#181818;stroke-width:1.0;" width="10" x="1688.5" y="779.6445"/><polygon fill="#181818" points="346.5,117.5332,356.5,121.5332,346.5,125.5332,350.5,121.5332" style="stroke:#181818;stroke-width:1.0;"/><line style="stroke:#181818;stroke-width:1.0;" x1="86.5" x2="352.5" y1="121.5332" y2="121.5332"/><text fill="#000000" font-family="sans-serif" font-size="13" font-weight="bold" lengthAdjust="spacing" textLength="7" x="93.5" y="116.2705">1</text><text fill="#000000" font-family="sans-serif" font-size="13" lengthAdjust="spacing" textLength="139" x="104.5" y="116.2705">asks to rank candidates</text><polygon fill="#181818" points="696.5,148.8242,706.5,152.8242,696.5,156.8242,700.5,152.8242" style="stroke:#181818;stroke-width:1.0;"/><line style="stroke:#181818;stroke-width:1.0;" x1="368.5" x2="702.5" y1="152.8242" y2="152.8242"/><text fill="#000000" font-family="sans-serif" font-size="13" font-weight="bold" lengthAdjust="spacing" textLength="7" x="375.5" y="147.5615">2</text><text fill="#000000" font-family="sans-serif" font-size="13" lengthAdjust="spacing" textLength="118" x="386.5" y="147.5615">findAllJobOpenings()</text><polygon fill="#181818" points="921.5,180.1152,931.5,184.1152,921.5,188.1152,925.5,184.1152" style="stroke:#181818;stroke-width:1.0;"/><line style="stroke:#181818;stroke-width:1.0;" x1="718.5" x2="927.5" y1="184.1152" y2="184.1152"/><text fill="#000000" font-family="sans-serif" font-size="13" font-weight="bold" lengthAdjust="spacing" textLength="7" x="725.5" y="178.8525">3</text><text fill="#000000" font-family="sans-serif" font-size="13" lengthAdjust="spacing" textLength="118" x="736.5" y="178.8525">findAllJobOpenings()</text><polygon fill="#181818" points="1363,211.4063,1373,215.4063,1363,219.4063,1367,215.4063" style="stroke:#181818;stroke-width:1.0;"/><line style="stroke:#181818;stroke-width:1.0;" x1="943.5" x2="1369" y1="215.4063" y2="215.4063"/><text fill="#000000" font-family="sans-serif" font-size="13" font-weight="bold" lengthAdjust="spacing" textLength="7" x="950.5" y="210.1436">4</text><text fill="#000000" font-family="sans-serif" font-size="13" lengthAdjust="spacing" textLength="43" x="961.5" y="210.1436">findAll()</text><polygon fill="#181818" points="954.5,242.6973,944.5,246.6973,954.5,250.6973,950.5,246.6973" style="stroke:#181818;stroke-width:1.0;"/><line style="stroke:#181818;stroke-width:1.0;stroke-dasharray:2.0,2.0;" x1="948.5" x2="1379" y1="246.6973" y2="246.6973"/><text fill="#000000" font-family="sans-serif" font-size="13" font-weight="bold" lengthAdjust="spacing" textLength="7" x="960.5" y="241.4346">5</text><text fill="#000000" font-family="sans-serif" font-size="13" lengthAdjust="spacing" textLength="72" x="971.5" y="241.4346">jobOpenings</text><polygon fill="#181818" points="729.5,273.9883,719.5,277.9883,729.5,281.9883,725.5,277.9883" style="stroke:#181818;stroke-width:1.0;"/><line style="stroke:#181818;stroke-width:1.0;stroke-dasharray:2.0,2.0;" x1="723.5" x2="937.5" y1="277.9883" y2="277.9883"/><text fill="#000000" font-family="sans-serif" font-size="13" font-weight="bold" lengthAdjust="spacing" textLength="7" x="735.5" y="272.7256">6</text><text fill="#000000" font-family="sans-serif" font-size="13" lengthAdjust="spacing" textLength="72" x="746.5" y="272.7256">jobOpenings</text><polygon fill="#181818" points="921.5,305.2793,931.5,309.2793,921.5,313.2793,925.5,309.2793" style="stroke:#181818;stroke-width:1.0;"/><line style="stroke:#181818;stroke-width:1.0;" x1="718.5" x2="927.5" y1="309.2793" y2="309.2793"/><text fill="#000000" font-family="sans-serif" font-size="13" font-weight="bold" lengthAdjust="spacing" textLength="7" x="725.5" y="304.0166">7</text><text fill="#000000" font-family="sans-serif" font-size="13" lengthAdjust="spacing" textLength="185" x="736.5" y="304.0166">filterAnalysisState(jobOpenings)</text><polygon fill="#181818" points="729.5,336.5703,719.5,340.5703,729.5,344.5703,725.5,340.5703" style="stroke:#181818;stroke-width:1.0;"/><line style="stroke:#181818;stroke-width:1.0;stroke-dasharray:2.0,2.0;" x1="723.5" x2="937.5" y1="340.5703" y2="340.5703"/><text fill="#000000" font-family="sans-serif" font-size="13" font-weight="bold" lengthAdjust="spacing" textLength="7" x="735.5" y="335.3076">8</text><text fill="#000000" font-family="sans-serif" font-size="13" lengthAdjust="spacing" textLength="113" x="746.5" y="335.3076">filteredJobOpenings</text><polygon fill="#181818" points="379.5,367.8613,369.5,371.8613,379.5,375.8613,375.5,371.8613" style="stroke:#181818;stroke-width:1.0;"/><line style="stroke:#181818;stroke-width:1.0;stroke-dasharray:2.0,2.0;" x1="373.5" x2="712.5" y1="371.8613" y2="371.8613"/><text fill="#000000" font-family="sans-serif" font-size="13" font-weight="bold" lengthAdjust="spacing" textLength="7" x="385.5" y="366.5986">9</text><text fill="#000000" font-family="sans-serif" font-size="13" lengthAdjust="spacing" textLength="113" x="396.5" y="366.5986">filteredJobOpenings</text><polygon fill="#181818" points="97.5,399.1523,87.5,403.1523,97.5,407.1523,93.5,403.1523" style="stroke:#181818;stroke-width:1.0;"/><line style="stroke:#181818;stroke-width:1.0;" x1="91.5" x2="362.5" y1="403.1523" y2="403.1523"/><text fill="#000000" font-family="sans-serif" font-size="13" font-weight="bold" lengthAdjust="spacing" textLength="14" x="103.5" y="397.8896">10</text><text fill="#000000" font-family="sans-serif" font-size="13" lengthAdjust="spacing" textLength="230" x="121.5" y="397.8896">lists job opening and asks to select one</text><polygon fill="#181818" points="346.5,430.4434,356.5,434.4434,346.5,438.4434,350.5,434.4434" style="stroke:#181818;stroke-width:1.0;"/><line style="stroke:#181818;stroke-width:1.0;" x1="86.5" x2="352.5" y1="434.4434" y2="434.4434"/><text fill="#000000" font-family="sans-serif" font-size="13" font-weight="bold" lengthAdjust="spacing" textLength="14" x="93.5" y="429.1807">11</text><text fill="#000000" font-family="sans-serif" font-size="13" lengthAdjust="spacing" textLength="112" x="111.5" y="429.1807">selects job opening</text><polygon fill="#181818" points="696.5,461.7344,706.5,465.7344,696.5,469.7344,700.5,465.7344" style="stroke:#181818;stroke-width:1.0;"/><line style="stroke:#181818;stroke-width:1.0;" x1="368.5" x2="702.5" y1="465.7344" y2="465.7344"/><text fill="#000000" font-family="sans-serif" font-size="13" font-weight="bold" lengthAdjust="spacing" textLength="14" x="375.5" y="460.4717">12</text><text fill="#000000" font-family="sans-serif" font-size="13" lengthAdjust="spacing" textLength="303" x="393.5" y="460.4717">findApplicationsForJobOpening(selectedJobOpening)</text><polygon fill="#181818" points="1065,493.0254,1075,497.0254,1065,501.0254,1069,497.0254" style="stroke:#181818;stroke-width:1.0;"/><line style="stroke:#181818;stroke-width:1.0;" x1="718.5" x2="1071" y1="497.0254" y2="497.0254"/><text fill="#000000" font-family="sans-serif" font-size="13" font-weight="bold" lengthAdjust="spacing" textLength="14" x="725.5" y="491.7627">13</text><text fill="#000000" font-family="sans-serif" font-size="13" lengthAdjust="spacing" textLength="229" x="743.5" y="491.7627">findByJobOpening(selectedJobOpening)</text><polygon fill="#181818" points="1519.5,524.3164,1529.5,528.3164,1519.5,532.3164,1523.5,528.3164" style="stroke:#181818;stroke-width:1.0;"/><line style="stroke:#181818;stroke-width:1.0;" x1="1087" x2="1525.5" y1="528.3164" y2="528.3164"/><text fill="#000000" font-family="sans-serif" font-size="13" font-weight="bold" lengthAdjust="spacing" textLength="14" x="1094" y="523.0537">14</text><text fill="#000000" font-family="sans-serif" font-size="13" lengthAdjust="spacing" textLength="229" x="1112" y="523.0537">findByJobOpening(selectedJobOpening)</text><polygon fill="#181818" points="1098,555.6074,1088,559.6074,1098,563.6074,1094,559.6074" style="stroke:#181818;stroke-width:1.0;"/><line style="stroke:#181818;stroke-width:1.0;stroke-dasharray:2.0,2.0;" x1="1092" x2="1535.5" y1="559.6074" y2="559.6074"/><text fill="#000000" font-family="sans-serif" font-size="13" font-weight="bold" lengthAdjust="spacing" textLength="14" x="1104" y="554.3447">15</text><text fill="#000000" font-family="sans-serif" font-size="13" lengthAdjust="spacing" textLength="69" x="1122" y="554.3447">applications</text><polygon fill="#181818" points="729.5,586.8984,719.5,590.8984,729.5,594.8984,725.5,590.8984" style="stroke:#181818;stroke-width:1.0;"/><line style="stroke:#181818;stroke-width:1.0;stroke-dasharray:2.0,2.0;" x1="723.5" x2="1081" y1="590.8984" y2="590.8984"/><text fill="#000000" font-family="sans-serif" font-size="13" font-weight="bold" lengthAdjust="spacing" textLength="14" x="735.5" y="585.6357">16</text><text fill="#000000" font-family="sans-serif" font-size="13" lengthAdjust="spacing" textLength="69" x="753.5" y="585.6357">applications</text><polygon fill="#181818" points="379.5,618.1895,369.5,622.1895,379.5,626.1895,375.5,622.1895" style="stroke:#181818;stroke-width:1.0;"/><line style="stroke:#181818;stroke-width:1.0;stroke-dasharray:2.0,2.0;" x1="373.5" x2="712.5" y1="622.1895" y2="622.1895"/><text fill="#000000" font-family="sans-serif" font-size="13" font-weight="bold" lengthAdjust="spacing" textLength="14" x="385.5" y="616.9268">17</text><text fill="#000000" font-family="sans-serif" font-size="13" lengthAdjust="spacing" textLength="69" x="403.5" y="616.9268">applications</text><path d="M10,637.1895 L83,637.1895 L83,646.4805 L73,656.4805 L10,656.4805 L10,637.1895 " fill="#EEEEEE" style="stroke:#000000;stroke-width:1.5;"/><rect fill="none" height="543.2383" style="stroke:#000000;stroke-width:1.5;" width="1769" x="10" y="637.1895"/><text fill="#000000" font-family="sans-serif" font-size="13" font-weight="bold" lengthAdjust="spacing" textLength="28" x="25" y="652.2178">loop</text><text fill="#000000" font-family="sans-serif" font-size="11" font-weight="bold" lengthAdjust="spacing" textLength="167" x="98" y="651.0596">[while ranking all applications]</text><polygon fill="#181818" points="696.5,675.7715,706.5,679.7715,696.5,683.7715,700.5,679.7715" style="stroke:#181818;stroke-width:1.0;"/><line style="stroke:#181818;stroke-width:1.0;" x1="368.5" x2="702.5" y1="679.7715" y2="679.7715"/><text fill="#000000" font-family="sans-serif" font-size="13" font-weight="bold" lengthAdjust="spacing" textLength="14" x="375.5" y="674.5088">18</text><text fill="#000000" font-family="sans-serif" font-size="13" lengthAdjust="spacing" textLength="226" x="393.5" y="674.5088">findLastJobInterview(currentApplication)</text><path d="M723,692.7715 L723,719.7715 L1228,719.7715 L1228,702.7715 L1218,692.7715 L723,692.7715 " fill="#FEFFDD" style="stroke:#181818;stroke-width:0.5;"/><path d="M1218,692.7715 L1218,702.7715 L1228,702.7715 L1218,692.7715 " fill="#FEFFDD" style="stroke:#181818;stroke-width:0.5;"/><text fill="#000000" font-family="sans-serif" font-size="13" lengthAdjust="spacing" textLength="484" x="729" y="711.7998">The application might not have interviews but the customer manager can still rank it.</text><polygon fill="#181818" points="1209,744.3535,1219,748.3535,1209,752.3535,1213,748.3535" style="stroke:#181818;stroke-width:1.0;"/><line style="stroke:#181818;stroke-width:1.0;" x1="718.5" x2="1215" y1="748.3535" y2="748.3535"/><text fill="#000000" font-family="sans-serif" font-size="13" font-weight="bold" lengthAdjust="spacing" textLength="14" x="725.5" y="743.0908">19</text><text fill="#000000" font-family="sans-serif" font-size="13" lengthAdjust="spacing" textLength="212" x="743.5" y="743.0908">findByApplication(currentApplication)</text><polygon fill="#181818" points="1676.5,775.6445,1686.5,779.6445,1676.5,783.6445,1680.5,779.6445" style="stroke:#181818;stroke-width:1.0;"/><line style="stroke:#181818;stroke-width:1.0;" x1="1231" x2="1682.5" y1="779.6445" y2="779.6445"/><text fill="#000000" font-family="sans-serif" font-size="13" font-weight="bold" lengthAdjust="spacing" textLength="14" x="1238" y="774.3818">20</text><text fill="#000000" font-family="sans-serif" font-size="13" lengthAdjust="spacing" textLength="212" x="1256" y="774.3818">findByApplication(currentApplication)</text><polygon fill="#181818" points="1242,806.9355,1232,810.9355,1242,814.9355,1238,810.9355" style="stroke:#181818;stroke-width:1.0;"/><line style="stroke:#181818;stroke-width:1.0;stroke-dasharray:2.0,2.0;" x1="1236" x2="1692.5" y1="810.9355" y2="810.9355"/><text fill="#000000" font-family="sans-serif" font-size="13" font-weight="bold" lengthAdjust="spacing" textLength="14" x="1248" y="805.6729">21</text><text fill="#000000" font-family="sans-serif" font-size="13" lengthAdjust="spacing" textLength="49" x="1266" y="805.6729">interview</text><polygon fill="#181818" points="729.5,838.2266,719.5,842.2266,729.5,846.2266,725.5,842.2266" style="stroke:#181818;stroke-width:1.0;"/><line style="stroke:#181818;stroke-width:1.0;stroke-dasharray:2.0,2.0;" x1="723.5" x2="1225" y1="842.2266" y2="842.2266"/><text fill="#000000" font-family="sans-serif" font-size="13" font-weight="bold" lengthAdjust="spacing" textLength="14" x="735.5" y="836.9639">22</text><text fill="#000000" font-family="sans-serif" font-size="13" lengthAdjust="spacing" textLength="49" x="753.5" y="836.9639">interview</text><polygon fill="#181818" points="379.5,869.5176,369.5,873.5176,379.5,877.5176,375.5,873.5176" style="stroke:#181818;stroke-width:1.0;"/><line style="stroke:#181818;stroke-width:1.0;stroke-dasharray:2.0,2.0;" x1="373.5" x2="712.5" y1="873.5176" y2="873.5176"/><text fill="#000000" font-family="sans-serif" font-size="13" font-weight="bold" lengthAdjust="spacing" textLength="14" x="385.5" y="868.2549">23</text><text fill="#000000" font-family="sans-serif" font-size="13" lengthAdjust="spacing" textLength="49" x="403.5" y="868.2549">interview</text><polygon fill="#181818" points="97.5,918.0996,87.5,922.0996,97.5,926.0996,93.5,922.0996" style="stroke:#181818;stroke-width:1.0;"/><line style="stroke:#181818;stroke-width:1.0;stroke-dasharray:2.0,2.0;" x1="91.5" x2="362.5" y1="922.0996" y2="922.0996"/><text fill="#000000" font-family="sans-serif" font-size="13" font-weight="bold" lengthAdjust="spacing" textLength="14" x="103.5" y="908.1914">24</text><text fill="#000000" font-family="sans-serif" font-size="13" lengthAdjust="spacing" textLength="210" x="121.5" y="899.5459">shows interview score for the current</text><text fill="#000000" font-family="sans-serif" font-size="13" lengthAdjust="spacing" textLength="174" x="121.5" y="916.8369">application and asks to rank it</text><polygon fill="#181818" points="346.5,949.3906,356.5,953.3906,346.5,957.3906,350.5,953.3906" style="stroke:#181818;stroke-width:1.0;"/><line style="stroke:#181818;stroke-width:1.0;" x1="86.5" x2="352.5" y1="953.3906" y2="953.3906"/><text fill="#000000" font-family="sans-serif" font-size="13" font-weight="bold" lengthAdjust="spacing" textLength="14" x="93.5" y="948.1279">25</text><text fill="#000000" font-family="sans-serif" font-size="13" lengthAdjust="spacing" textLength="120" x="111.5" y="948.1279">ranks the application</text><polygon fill="#181818" points="696.5,980.6816,706.5,984.6816,696.5,988.6816,700.5,984.6816" style="stroke:#181818;stroke-width:1.0;"/><line style="stroke:#181818;stroke-width:1.0;" x1="368.5" x2="702.5" y1="984.6816" y2="984.6816"/><text fill="#000000" font-family="sans-serif" font-size="13" font-weight="bold" lengthAdjust="spacing" textLength="14" x="375.5" y="979.4189">26</text><text fill="#000000" font-family="sans-serif" font-size="13" lengthAdjust="spacing" textLength="223" x="393.5" y="979.4189">updateRank(rank, selectedApplication)</text><polygon fill="#181818" points="1065,1011.9727,1075,1015.9727,1065,1019.9727,1069,1015.9727" style="stroke:#181818;stroke-width:1.0;"/><line style="stroke:#181818;stroke-width:1.0;" x1="718.5" x2="1071" y1="1015.9727" y2="1015.9727"/><text fill="#000000" font-family="sans-serif" font-size="13" font-weight="bold" lengthAdjust="spacing" textLength="14" x="725.5" y="1010.71">27</text><text fill="#000000" font-family="sans-serif" font-size="13" lengthAdjust="spacing" textLength="147" x="743.5" y="1010.71">save(selectedApplication)</text><polygon fill="#181818" points="1519.5,1043.2637,1529.5,1047.2637,1519.5,1051.2637,1523.5,1047.2637" style="stroke:#181818;stroke-width:1.0;"/><line style="stroke:#181818;stroke-width:1.0;" x1="1087" x2="1525.5" y1="1047.2637" y2="1047.2637"/><text fill="#000000" font-family="sans-serif" font-size="13" font-weight="bold" lengthAdjust="spacing" textLength="14" x="1094" y="1042.001">28</text><text fill="#000000" font-family="sans-serif" font-size="13" lengthAdjust="spacing" textLength="147" x="1112" y="1042.001">save(selectedApplication)</text><polygon fill="#181818" points="1098,1074.5547,1088,1078.5547,1098,1082.5547,1094,1078.5547" style="stroke:#181818;stroke-width:1.0;"/><line style="stroke:#181818;stroke-width:1.0;stroke-dasharray:2.0,2.0;" x1="1092" x2="1535.5" y1="1078.5547" y2="1078.5547"/><text fill="#000000" font-family="sans-serif" font-size="13" font-weight="bold" lengthAdjust="spacing" textLength="14" x="1104" y="1073.292">29</text><text fill="#000000" font-family="sans-serif" font-size="13" lengthAdjust="spacing" textLength="119" x="1122" y="1073.292">successful operation</text><polygon fill="#181818" points="729.5,1105.8457,719.5,1109.8457,729.5,1113.8457,725.5,1109.8457" style="stroke:#181818;stroke-width:1.0;"/><line style="stroke:#181818;stroke-width:1.0;stroke-dasharray:2.0,2.0;" x1="723.5" x2="1081" y1="1109.8457" y2="1109.8457"/><text fill="#000000" font-family="sans-serif" font-size="13" font-weight="bold" lengthAdjust="spacing" textLength="14" x="735.5" y="1104.583">30</text><text fill="#000000" font-family="sans-serif" font-size="13" lengthAdjust="spacing" textLength="119" x="753.5" y="1104.583">successful operation</text><polygon fill="#181818" points="379.5,1137.1367,369.5,1141.1367,379.5,1145.1367,375.5,1141.1367" style="stroke:#181818;stroke-width:1.0;"/><line style="stroke:#181818;stroke-width:1.0;stroke-dasharray:2.0,2.0;" x1="373.5" x2="712.5" y1="1141.1367" y2="1141.1367"/><text fill="#000000" font-family="sans-serif" font-size="13" font-weight="bold" lengthAdjust="spacing" textLength="14" x="385.5" y="1135.874">31</text><text fill="#000000" font-family="sans-serif" font-size="13" lengthAdjust="spacing" textLength="119" x="403.5" y="1135.874">successful operation</text><polygon fill="#181818" points="97.5,1168.4277,87.5,1172.4277,97.5,1176.4277,93.5,1172.4277" style="stroke:#181818;stroke-width:1.0;"/><line style="stroke:#181818;stroke-width:1.0;stroke-dasharray:2.0,2.0;" x1="91.5" x2="362.5" y1="1172.4277" y2="1172.4277"/><text fill="#000000" font-family="sans-serif" font-size="13" font-weight="bold" lengthAdjust="spacing" textLength="14" x="103.5" y="1167.165">32</text><text fill="#000000" font-family="sans-serif" font-size="13" lengthAdjust="spacing" textLength="147" x="121.5" y="1167.165">shows success message</text><!--SRC=[lPZDRjim3CVlVWeUCs3P0nH5WIp0W1OR1hJRRHV5KHArYcI8Segy_IWxiMLB_aWJDuUYiId-_YRDZvRbLgjyl-8cILXgjO5bZbRlkVd55DkwonapLgGYOyh2CrDlIwRMOiqinx-FS7-V6OvSMMQ5LWyFFTPBhQpHKd93fzBg2vrf77hIgzyPLq9jNxWvY9IJDPQ_jTmliaoAj00FcPBJHsNTBVuUiqr88Linv1x-cMSQ1ONaIAQc-aBMbR6dO8IrBwBRtAL172XWOIQ0FgsBC7y8at873DyGh0P3jo2jxXKUAl_jSoN0VGAF0SLBvXriX5elfAn3XxClbQyENEsWnePe3qCImbTZWDtW1wURuE8J4XfOBsiLkONhOjP78zWcsgFCEvxwjNxSqDkQNyYFF7L_mhlmKN8qsfUdMLBbB1IJHnJuGks6ppmLLwJy8yzVgk7hfmdZ42_iFh977QwrM8ctUyiTI84MNRf1bpIW8rLtGIvvQa4hdlJopwrbNEyglJQeK_QjkeNZ3stgkCvA7Nwe9sbgaIbMAlj-72cc8IXq5xxp4MHJID3dBjBIfMUe1SO5pBjYnBpC9JqzSAI2M53wNvzE0N7uJUe_oXnL-5Bh3DvtGl9YAoXgMSgcmsiAwIT3wsyuipGtXXP3BmANr8yV9AN9qeZjZdhDPjoHFplkFnhiYzFa27Rim46SLIAiSWkMhDDJSuBzgJlHsWHe1SMesAA4_TOWS6g4JjX5SorOGi_bvKMfDt3jyTPs61tk0RKb9bBkb-Zfr3HKy1qQvfsngjAMzEyyenH40zF_diVv7UoRr7j8l7BAHySyxZHLGiK2JBNXiA6_1ilAAF8F_vHVKVuYS2gGMsu1pYKMU0ywqHwGP-wQCvWvx5SuJxWFzgxhPZzIWvhrAfXuu8yJy4bJ7lCqvOYRNBfbqDIlmMTF-q4X4qxzNlPq3U64XJtze1l3vUrcejipaiGpQ_yRupy0]--></g></svg>