<?xml version="1.0" encoding="us-ascii" standalone="no"?><svg xmlns="http://www.w3.org/2000/svg" xmlns:xlink="http://www.w3.org/1999/xlink" contentStyleType="text/css" height="983px" preserveAspectRatio="none" style="width:1278px;height:983px;background:#FFFFFF;" version="1.1" viewBox="0 0 1278 983" width="1278px" zoomAndPan="magnify"><defs/><g><rect fill="#FFFFFF" height="776.2754" style="stroke:#181818;stroke-width:1.0;" width="10" x="76.5" y="98.2422"/><rect fill="#FFFFFF" height="156.4551" style="stroke:#181818;stroke-width:1.0;" width="10" x="351.5" y="121.5332"/><rect fill="#FFFFFF" height="362.4922" style="stroke:#181818;stroke-width:1.0;" width="10" x="351.5" y="309.2793"/><rect fill="#FFFFFF" height="156.4551" style="stroke:#181818;stroke-width:1.0;" width="10" x="351.5" y="703.0625"/><rect fill="#FFFFFF" height="93.873" style="stroke:#181818;stroke-width:1.0;" width="10" x="692.5" y="152.8242"/><rect fill="#FFFFFF" height="93.873" style="stroke:#181818;stroke-width:1.0;" width="10" x="692.5" y="340.5703"/><rect fill="#FFFFFF" height="131.1641" style="stroke:#181818;stroke-width:1.0;" width="10" x="692.5" y="492.0254"/><rect fill="#FFFFFF" height="93.873" style="stroke:#181818;stroke-width:1.0;" width="10" x="692.5" y="734.3535"/><rect fill="#FFFFFF" height="31.291" style="stroke:#181818;stroke-width:1.0;" width="10" x="868" y="184.1152"/><rect fill="#FFFFFF" height="31.291" style="stroke:#181818;stroke-width:1.0;" width="10" x="1024.5" y="371.8613"/><rect fill="#FFFFFF" height="31.291" style="stroke:#181818;stroke-width:1.0;" width="10" x="1024.5" y="765.6445"/><rect fill="#FFFFFF" height="31.291" style="stroke:#181818;stroke-width:1.0;" width="10" x="1181.5" y="560.6074"/><rect fill="none" height="418.0742" style="stroke:#000000;stroke-width:1.5;" width="1262" x="10" y="449.4434"/><line style="stroke:#181818;stroke-width:0.5;stroke-dasharray:5.0,5.0;" x1="81" x2="81" y1="88.2422" y2="884.5176"/><line style="stroke:#181818;stroke-width:0.5;stroke-dasharray:5.0,5.0;" x1="356" x2="356" y1="88.2422" y2="884.5176"/><line style="stroke:#181818;stroke-width:0.5;stroke-dasharray:5.0,5.0;" x1="697" x2="697" y1="88.2422" y2="884.5176"/><line style="stroke:#181818;stroke-width:0.5;stroke-dasharray:5.0,5.0;" x1="873" x2="873" y1="88.2422" y2="884.5176"/><line style="stroke:#181818;stroke-width:0.5;stroke-dasharray:5.0,5.0;" x1="1029" x2="1029" y1="88.2422" y2="884.5176"/><line style="stroke:#181818;stroke-width:0.5;stroke-dasharray:5.0,5.0;" x1="1186" x2="1186" y1="88.2422" y2="884.5176"/><text fill="#000000" font-family="sans-serif" font-size="14" lengthAdjust="spacing" textLength="117" x="20" y="84.7285">CustomerManager</text><ellipse cx="81.5" cy="18.1211" fill="#E2E2F0" rx="8" ry="8" style="stroke:#181818;stroke-width:0.5;"/><path d="M81.5,26.1211 L81.5,53.1211 M68.5,34.1211 L94.5,34.1211 M81.5,53.1211 L68.5,68.1211 M81.5,53.1211 L94.5,68.1211 " fill="none" style="stroke:#181818;stroke-width:0.5;"/><text fill="#000000" font-family="sans-serif" font-size="14" lengthAdjust="spacing" textLength="117" x="20" y="898.625">CustomerManager</text><ellipse cx="81.5" cy="910.6387" fill="#E2E2F0" rx="8" ry="8" style="stroke:#181818;stroke-width:0.5;"/><path d="M81.5,918.6387 L81.5,945.6387 M68.5,926.6387 L94.5,926.6387 M81.5,945.6387 L68.5,960.6387 M81.5,945.6387 L94.5,960.6387 " fill="none" style="stroke:#181818;stroke-width:0.5;"/><rect fill="#E2E2F0" height="51.2422" rx="2.5" ry="2.5" style="stroke:#181818;stroke-width:0.5;" width="131" x="291" y="36"/><text fill="#000000" font-family="sans-serif" font-size="14" font-style="italic" lengthAdjust="spacing" textLength="95" x="309" y="58.1074">&#171;presentation&#187;</text><text fill="#000000" font-family="sans-serif" font-size="14" lengthAdjust="spacing" textLength="117" x="298" y="76.7285">RankCandidatesUI</text><rect fill="#E2E2F0" height="51.2422" rx="2.5" ry="2.5" style="stroke:#181818;stroke-width:0.5;" width="131" x="291" y="883.5176"/><text fill="#000000" font-family="sans-serif" font-size="14" font-style="italic" lengthAdjust="spacing" textLength="95" x="309" y="905.625">&#171;presentation&#187;</text><text fill="#000000" font-family="sans-serif" font-size="14" lengthAdjust="spacing" textLength="117" x="298" y="924.2461">RankCandidatesUI</text><rect fill="#E2E2F0" height="51.2422" rx="2.5" ry="2.5" style="stroke:#181818;stroke-width:0.5;" width="181" x="607" y="36"/><text fill="#000000" font-family="sans-serif" font-size="14" font-style="italic" lengthAdjust="spacing" textLength="75" x="660" y="58.1074">&#171;controller&#187;</text><text fill="#000000" font-family="sans-serif" font-size="14" lengthAdjust="spacing" textLength="167" x="614" y="76.7285">RankCandidatesController</text><rect fill="#E2E2F0" height="51.2422" rx="2.5" ry="2.5" style="stroke:#181818;stroke-width:0.5;" width="181" x="607" y="883.5176"/><text fill="#000000" font-family="sans-serif" font-size="14" font-style="italic" lengthAdjust="spacing" textLength="75" x="660" y="905.625">&#171;controller&#187;</text><text fill="#000000" font-family="sans-serif" font-size="14" lengthAdjust="spacing" textLength="167" x="614" y="924.2461">RankCandidatesController</text><text fill="#000000" font-family="sans-serif" font-size="14" font-style="italic" lengthAdjust="spacing" textLength="79" x="830.5" y="66.1074">&#171;repository&#187;</text><text fill="#000000" font-family="sans-serif" font-size="14" lengthAdjust="spacing" textLength="144" x="798" y="84.7285">JobOpeningRepository</text><path d="M855,15 C855,5 873,5 873,5 C873,5 891,5 891,15 L891,41 C891,51 873,51 873,51 C873,51 855,51 855,41 L855,15 " fill="#E2E2F0" style="stroke:#181818;stroke-width:1.5;"/><path d="M855,15 C855,25 873,25 873,25 C873,25 891,25 891,15 " fill="none" style="stroke:#181818;stroke-width:1.5;"/><text fill="#000000" font-family="sans-serif" font-size="14" font-style="italic" lengthAdjust="spacing" textLength="79" x="830.5" y="898.625">&#171;repository&#187;</text><text fill="#000000" font-family="sans-serif" font-size="14" lengthAdjust="spacing" textLength="144" x="798" y="917.2461">JobOpeningRepository</text><path d="M855,930.7598 C855,920.7598 873,920.7598 873,920.7598 C873,920.7598 891,920.7598 891,930.7598 L891,956.7598 C891,966.7598 873,966.7598 873,966.7598 C873,966.7598 855,966.7598 855,956.7598 L855,930.7598 " fill="#E2E2F0" style="stroke:#181818;stroke-width:1.5;"/><path d="M855,930.7598 C855,940.7598 873,940.7598 873,940.7598 C873,940.7598 891,940.7598 891,930.7598 " fill="none" style="stroke:#181818;stroke-width:1.5;"/><text fill="#000000" font-family="sans-serif" font-size="14" font-style="italic" lengthAdjust="spacing" textLength="79" x="987" y="66.1074">&#171;repository&#187;</text><text fill="#000000" font-family="sans-serif" font-size="14" lengthAdjust="spacing" textLength="137" x="958" y="84.7285">ApplicationRepository</text><path d="M1011.5,15 C1011.5,5 1029.5,5 1029.5,5 C1029.5,5 1047.5,5 1047.5,15 L1047.5,41 C1047.5,51 1029.5,51 1029.5,51 C1029.5,51 1011.5,51 1011.5,41 L1011.5,15 " fill="#E2E2F0" style="stroke:#181818;stroke-width:1.5;"/><path d="M1011.5,15 C1011.5,25 1029.5,25 1029.5,25 C1029.5,25 1047.5,25 1047.5,15 " fill="none" style="stroke:#181818;stroke-width:1.5;"/><text fill="#000000" font-family="sans-serif" font-size="14" font-style="italic" lengthAdjust="spacing" textLength="79" x="987" y="898.625">&#171;repository&#187;</text><text fill="#000000" font-family="sans-serif" font-size="14" lengthAdjust="spacing" textLength="137" x="958" y="917.2461">ApplicationRepository</text><path d="M1011.5,930.7598 C1011.5,920.7598 1029.5,920.7598 1029.5,920.7598 C1029.5,920.7598 1047.5,920.7598 1047.5,930.7598 L1047.5,956.7598 C1047.5,966.7598 1029.5,966.7598 1029.5,966.7598 C1029.5,966.7598 1011.5,966.7598 1011.5,956.7598 L1011.5,930.7598 " fill="#E2E2F0" style="stroke:#181818;stroke-width:1.5;"/><path d="M1011.5,930.7598 C1011.5,940.7598 1029.5,940.7598 1029.5,940.7598 C1029.5,940.7598 1047.5,940.7598 1047.5,930.7598 " fill="none" style="stroke:#181818;stroke-width:1.5;"/><text fill="#000000" font-family="sans-serif" font-size="14" font-style="italic" lengthAdjust="spacing" textLength="79" x="1144" y="66.1074">&#171;repository&#187;</text><text fill="#000000" font-family="sans-serif" font-size="14" lengthAdjust="spacing" textLength="145" x="1111" y="84.7285">JobInterviewRepository</text><path d="M1168.5,15 C1168.5,5 1186.5,5 1186.5,5 C1186.5,5 1204.5,5 1204.5,15 L1204.5,41 C1204.5,51 1186.5,51 1186.5,51 C1186.5,51 1168.5,51 1168.5,41 L1168.5,15 " fill="#E2E2F0" style="stroke:#181818;stroke-width:1.5;"/><path d="M1168.5,15 C1168.5,25 1186.5,25 1186.5,25 C1186.5,25 1204.5,25 1204.5,15 " fill="none" style="stroke:#181818;stroke-width:1.5;"/><text fill="#000000" font-family="sans-serif" font-size="14" font-style="italic" lengthAdjust="spacing" textLength="79" x="1144" y="898.625">&#171;repository&#187;</text><text fill="#000000" font-family="sans-serif" font-size="14" lengthAdjust="spacing" textLength="145" x="1111" y="917.2461">JobInterviewRepository</text><path d="M1168.5,930.7598 C1168.5,920.7598 1186.5,920.7598 1186.5,920.7598 C1186.5,920.7598 1204.5,920.7598 1204.5,930.7598 L1204.5,956.7598 C1204.5,966.7598 1186.5,966.7598 1186.5,966.7598 C1186.5,966.7598 1168.5,966.7598 1168.5,956.7598 L1168.5,930.7598 " fill="#E2E2F0" style="stroke:#181818;stroke-width:1.5;"/><path d="M1168.5,930.7598 C1168.5,940.7598 1186.5,940.7598 1186.5,940.7598 C1186.5,940.7598 1204.5,940.7598 1204.5,930.7598 " fill="none" style="stroke:#181818;stroke-width:1.5;"/><rect fill="#FFFFFF" height="776.2754" style="stroke:#181818;stroke-width:1.0;" width="10" x="76.5" y="98.2422"/><rect fill="#FFFFFF" height="156.4551" style="stroke:#181818;stroke-width:1.0;" width="10" x="351.5" y="121.5332"/><rect fill="#FFFFFF" height="362.4922" style="stroke:#181818;stroke-width:1.0;" width="10" x="351.5" y="309.2793"/><rect fill="#FFFFFF" height="156.4551" style="stroke:#181818;stroke-width:1.0;" width="10" x="351.5" y="703.0625"/><rect fill="#FFFFFF" height="93.873" style="stroke:#181818;stroke-width:1.0;" width="10" x="692.5" y="152.8242"/><rect fill="#FFFFFF" height="93.873" style="stroke:#181818;stroke-width:1.0;" width="10" x="692.5" y="340.5703"/><rect fill="#FFFFFF" height="131.1641" style="stroke:#181818;stroke-width:1.0;" width="10" x="692.5" y="492.0254"/><rect fill="#FFFFFF" height="93.873" style="stroke:#181818;stroke-width:1.0;" width="10" x="692.5" y="734.3535"/><rect fill="#FFFFFF" height="31.291" style="stroke:#181818;stroke-width:1.0;" width="10" x="868" y="184.1152"/><rect fill="#FFFFFF" height="31.291" style="stroke:#181818;stroke-width:1.0;" width="10" x="1024.5" y="371.8613"/><rect fill="#FFFFFF" height="31.291" style="stroke:#181818;stroke-width:1.0;" width="10" x="1024.5" y="765.6445"/><rect fill="#FFFFFF" height="31.291" style="stroke:#181818;stroke-width:1.0;" width="10" x="1181.5" y="560.6074"/><polygon fill="#181818" points="339.5,117.5332,349.5,121.5332,339.5,125.5332,343.5,121.5332" style="stroke:#181818;stroke-width:1.0;"/><line style="stroke:#181818;stroke-width:1.0;" x1="86.5" x2="345.5" y1="121.5332" y2="121.5332"/><text fill="#000000" font-family="sans-serif" font-size="13" font-weight="bold" lengthAdjust="spacing" textLength="7" x="93.5" y="116.2705">1</text><text fill="#000000" font-family="sans-serif" font-size="13" lengthAdjust="spacing" textLength="139" x="104.5" y="116.2705">asks to rank candidates</text><polygon fill="#181818" points="680.5,148.8242,690.5,152.8242,680.5,156.8242,684.5,152.8242" style="stroke:#181818;stroke-width:1.0;"/><line style="stroke:#181818;stroke-width:1.0;" x1="361.5" x2="686.5" y1="152.8242" y2="152.8242"/><text fill="#000000" font-family="sans-serif" font-size="13" font-weight="bold" lengthAdjust="spacing" textLength="7" x="368.5" y="147.5615">2</text><text fill="#000000" font-family="sans-serif" font-size="13" lengthAdjust="spacing" textLength="116" x="379.5" y="147.5615">getAllJobOpenings()</text><polygon fill="#181818" points="856,180.1152,866,184.1152,856,188.1152,860,184.1152" style="stroke:#181818;stroke-width:1.0;"/><line style="stroke:#181818;stroke-width:1.0;" x1="702.5" x2="862" y1="184.1152" y2="184.1152"/><text fill="#000000" font-family="sans-serif" font-size="13" font-weight="bold" lengthAdjust="spacing" textLength="7" x="709.5" y="178.8525">3</text><text fill="#000000" font-family="sans-serif" font-size="13" lengthAdjust="spacing" textLength="43" x="720.5" y="178.8525">findAll()</text><polygon fill="#181818" points="713.5,211.4063,703.5,215.4063,713.5,219.4063,709.5,215.4063" style="stroke:#181818;stroke-width:1.0;"/><line style="stroke:#181818;stroke-width:1.0;stroke-dasharray:2.0,2.0;" x1="707.5" x2="872" y1="215.4063" y2="215.4063"/><text fill="#000000" font-family="sans-serif" font-size="13" font-weight="bold" lengthAdjust="spacing" textLength="7" x="719.5" y="210.1436">4</text><text fill="#000000" font-family="sans-serif" font-size="13" lengthAdjust="spacing" textLength="72" x="730.5" y="210.1436">jobOpenings</text><polygon fill="#181818" points="372.5,242.6973,362.5,246.6973,372.5,250.6973,368.5,246.6973" style="stroke:#181818;stroke-width:1.0;"/><line style="stroke:#181818;stroke-width:1.0;stroke-dasharray:2.0,2.0;" x1="366.5" x2="696.5" y1="246.6973" y2="246.6973"/><text fill="#000000" font-family="sans-serif" font-size="13" font-weight="bold" lengthAdjust="spacing" textLength="7" x="378.5" y="241.4346">5</text><text fill="#000000" font-family="sans-serif" font-size="13" lengthAdjust="spacing" textLength="72" x="389.5" y="241.4346">jobOpenings</text><polygon fill="#181818" points="97.5,273.9883,87.5,277.9883,97.5,281.9883,93.5,277.9883" style="stroke:#181818;stroke-width:1.0;"/><line style="stroke:#181818;stroke-width:1.0;" x1="91.5" x2="355.5" y1="277.9883" y2="277.9883"/><text fill="#000000" font-family="sans-serif" font-size="13" font-weight="bold" lengthAdjust="spacing" textLength="7" x="103.5" y="272.7256">6</text><text fill="#000000" font-family="sans-serif" font-size="13" lengthAdjust="spacing" textLength="230" x="114.5" y="272.7256">lists job opening and asks to select one</text><polygon fill="#181818" points="339.5,305.2793,349.5,309.2793,339.5,313.2793,343.5,309.2793" style="stroke:#181818;stroke-width:1.0;"/><line style="stroke:#181818;stroke-width:1.0;" x1="86.5" x2="345.5" y1="309.2793" y2="309.2793"/><text fill="#000000" font-family="sans-serif" font-size="13" font-weight="bold" lengthAdjust="spacing" textLength="7" x="93.5" y="304.0166">7</text><text fill="#000000" font-family="sans-serif" font-size="13" lengthAdjust="spacing" textLength="112" x="104.5" y="304.0166">selects job opening</text><polygon fill="#181818" points="680.5,336.5703,690.5,340.5703,680.5,344.5703,684.5,340.5703" style="stroke:#181818;stroke-width:1.0;"/><line style="stroke:#181818;stroke-width:1.0;" x1="361.5" x2="686.5" y1="340.5703" y2="340.5703"/><text fill="#000000" font-family="sans-serif" font-size="13" font-weight="bold" lengthAdjust="spacing" textLength="7" x="368.5" y="335.3076">8</text><text fill="#000000" font-family="sans-serif" font-size="13" lengthAdjust="spacing" textLength="301" x="379.5" y="335.3076">getApplicationsForJobOpening(selectedJobOpening)</text><polygon fill="#181818" points="1012.5,367.8613,1022.5,371.8613,1012.5,375.8613,1016.5,371.8613" style="stroke:#181818;stroke-width:1.0;"/><line style="stroke:#181818;stroke-width:1.0;" x1="702.5" x2="1018.5" y1="371.8613" y2="371.8613"/><text fill="#000000" font-family="sans-serif" font-size="13" font-weight="bold" lengthAdjust="spacing" textLength="7" x="709.5" y="366.5986">9</text><text fill="#000000" font-family="sans-serif" font-size="13" lengthAdjust="spacing" textLength="229" x="720.5" y="366.5986">findByJobOpening(selectedJobOpening)</text><polygon fill="#181818" points="713.5,399.1523,703.5,403.1523,713.5,407.1523,709.5,403.1523" style="stroke:#181818;stroke-width:1.0;"/><line style="stroke:#181818;stroke-width:1.0;stroke-dasharray:2.0,2.0;" x1="707.5" x2="1028.5" y1="403.1523" y2="403.1523"/><text fill="#000000" font-family="sans-serif" font-size="13" font-weight="bold" lengthAdjust="spacing" textLength="14" x="719.5" y="397.8896">10</text><text fill="#000000" font-family="sans-serif" font-size="13" lengthAdjust="spacing" textLength="69" x="737.5" y="397.8896">applications</text><polygon fill="#181818" points="372.5,430.4434,362.5,434.4434,372.5,438.4434,368.5,434.4434" style="stroke:#181818;stroke-width:1.0;"/><line style="stroke:#181818;stroke-width:1.0;stroke-dasharray:2.0,2.0;" x1="366.5" x2="696.5" y1="434.4434" y2="434.4434"/><text fill="#000000" font-family="sans-serif" font-size="13" font-weight="bold" lengthAdjust="spacing" textLength="14" x="378.5" y="429.1807">11</text><text fill="#000000" font-family="sans-serif" font-size="13" lengthAdjust="spacing" textLength="69" x="396.5" y="429.1807">applications</text><path d="M10,449.4434 L83,449.4434 L83,458.7344 L73,468.7344 L10,468.7344 L10,449.4434 " fill="#EEEEEE" style="stroke:#000000;stroke-width:1.5;"/><rect fill="none" height="418.0742" style="stroke:#000000;stroke-width:1.5;" width="1262" x="10" y="449.4434"/><text fill="#000000" font-family="sans-serif" font-size="13" font-weight="bold" lengthAdjust="spacing" textLength="28" x="25" y="464.4717">loop</text><text fill="#000000" font-family="sans-serif" font-size="11" font-weight="bold" lengthAdjust="spacing" textLength="167" x="98" y="463.3135">[while ranking all applications]</text><polygon fill="#181818" points="680.5,488.0254,690.5,492.0254,680.5,496.0254,684.5,492.0254" style="stroke:#181818;stroke-width:1.0;"/><line style="stroke:#181818;stroke-width:1.0;" x1="361.5" x2="686.5" y1="492.0254" y2="492.0254"/><text fill="#000000" font-family="sans-serif" font-size="13" font-weight="bold" lengthAdjust="spacing" textLength="14" x="368.5" y="486.7627">12</text><text fill="#000000" font-family="sans-serif" font-size="13" lengthAdjust="spacing" textLength="224" x="386.5" y="486.7627">getLastJobInterview(currentApplication)</text><path d="M707,505.0254 L707,532.0254 L1212,532.0254 L1212,515.0254 L1202,505.0254 L707,505.0254 " fill="#FEFFDD" style="stroke:#181818;stroke-width:0.5;"/><path d="M1202,505.0254 L1202,515.0254 L1212,515.0254 L1202,505.0254 " fill="#FEFFDD" style="stroke:#181818;stroke-width:0.5;"/><text fill="#000000" font-family="sans-serif" font-size="13" lengthAdjust="spacing" textLength="484" x="713" y="524.0537">The application might not have interviews but the customer manager can still rank it.</text><polygon fill="#181818" points="1169.5,556.6074,1179.5,560.6074,1169.5,564.6074,1173.5,560.6074" style="stroke:#181818;stroke-width:1.0;"/><line style="stroke:#181818;stroke-width:1.0;" x1="702.5" x2="1175.5" y1="560.6074" y2="560.6074"/><text fill="#000000" font-family="sans-serif" font-size="13" font-weight="bold" lengthAdjust="spacing" textLength="14" x="709.5" y="555.3447">13</text><text fill="#000000" font-family="sans-serif" font-size="13" lengthAdjust="spacing" textLength="212" x="727.5" y="555.3447">findByApplication(currentApplication)</text><polygon fill="#181818" points="713.5,587.8984,703.5,591.8984,713.5,595.8984,709.5,591.8984" style="stroke:#181818;stroke-width:1.0;"/><line style="stroke:#181818;stroke-width:1.0;stroke-dasharray:2.0,2.0;" x1="707.5" x2="1185.5" y1="591.8984" y2="591.8984"/><text fill="#000000" font-family="sans-serif" font-size="13" font-weight="bold" lengthAdjust="spacing" textLength="14" x="719.5" y="586.6357">14</text><text fill="#000000" font-family="sans-serif" font-size="13" lengthAdjust="spacing" textLength="49" x="737.5" y="586.6357">interview</text><polygon fill="#181818" points="372.5,619.1895,362.5,623.1895,372.5,627.1895,368.5,623.1895" style="stroke:#181818;stroke-width:1.0;"/><line style="stroke:#181818;stroke-width:1.0;stroke-dasharray:2.0,2.0;" x1="366.5" x2="696.5" y1="623.1895" y2="623.1895"/><text fill="#000000" font-family="sans-serif" font-size="13" font-weight="bold" lengthAdjust="spacing" textLength="14" x="378.5" y="617.9268">15</text><text fill="#000000" font-family="sans-serif" font-size="13" lengthAdjust="spacing" textLength="49" x="396.5" y="617.9268">interview</text><polygon fill="#181818" points="97.5,667.7715,87.5,671.7715,97.5,675.7715,93.5,671.7715" style="stroke:#181818;stroke-width:1.0;"/><line style="stroke:#181818;stroke-width:1.0;stroke-dasharray:2.0,2.0;" x1="91.5" x2="355.5" y1="671.7715" y2="671.7715"/><text fill="#000000" font-family="sans-serif" font-size="13" font-weight="bold" lengthAdjust="spacing" textLength="14" x="103.5" y="657.8633">16</text><text fill="#000000" font-family="sans-serif" font-size="13" lengthAdjust="spacing" textLength="210" x="121.5" y="649.2178">shows interview score for the current</text><text fill="#000000" font-family="sans-serif" font-size="13" lengthAdjust="spacing" textLength="174" x="121.5" y="666.5088">application and asks to rank it</text><polygon fill="#181818" points="339.5,699.0625,349.5,703.0625,339.5,707.0625,343.5,703.0625" style="stroke:#181818;stroke-width:1.0;"/><line style="stroke:#181818;stroke-width:1.0;" x1="86.5" x2="345.5" y1="703.0625" y2="703.0625"/><text fill="#000000" font-family="sans-serif" font-size="13" font-weight="bold" lengthAdjust="spacing" textLength="14" x="93.5" y="697.7998">17</text><text fill="#000000" font-family="sans-serif" font-size="13" lengthAdjust="spacing" textLength="120" x="111.5" y="697.7998">ranks the application</text><polygon fill="#181818" points="680.5,730.3535,690.5,734.3535,680.5,738.3535,684.5,734.3535" style="stroke:#181818;stroke-width:1.0;"/><line style="stroke:#181818;stroke-width:1.0;" x1="361.5" x2="686.5" y1="734.3535" y2="734.3535"/><text fill="#000000" font-family="sans-serif" font-size="13" font-weight="bold" lengthAdjust="spacing" textLength="14" x="368.5" y="729.0908">18</text><text fill="#000000" font-family="sans-serif" font-size="13" lengthAdjust="spacing" textLength="223" x="386.5" y="729.0908">updateRank(rank, selectedApplication)</text><polygon fill="#181818" points="1012.5,761.6445,1022.5,765.6445,1012.5,769.6445,1016.5,765.6445" style="stroke:#181818;stroke-width:1.0;"/><line style="stroke:#181818;stroke-width:1.0;" x1="702.5" x2="1018.5" y1="765.6445" y2="765.6445"/><text fill="#000000" font-family="sans-serif" font-size="13" font-weight="bold" lengthAdjust="spacing" textLength="14" x="709.5" y="760.3818">19</text><text fill="#000000" font-family="sans-serif" font-size="13" lengthAdjust="spacing" textLength="147" x="727.5" y="760.3818">save(selectedApplication)</text><polygon fill="#181818" points="713.5,792.9355,703.5,796.9355,713.5,800.9355,709.5,796.9355" style="stroke:#181818;stroke-width:1.0;"/><line style="stroke:#181818;stroke-width:1.0;stroke-dasharray:2.0,2.0;" x1="707.5" x2="1028.5" y1="796.9355" y2="796.9355"/><text fill="#000000" font-family="sans-serif" font-size="13" font-weight="bold" lengthAdjust="spacing" textLength="14" x="719.5" y="791.6729">20</text><text fill="#000000" font-family="sans-serif" font-size="13" lengthAdjust="spacing" textLength="119" x="737.5" y="791.6729">successful operation</text><polygon fill="#181818" points="372.5,824.2266,362.5,828.2266,372.5,832.2266,368.5,828.2266" style="stroke:#181818;stroke-width:1.0;"/><line style="stroke:#181818;stroke-width:1.0;stroke-dasharray:2.0,2.0;" x1="366.5" x2="696.5" y1="828.2266" y2="828.2266"/><text fill="#000000" font-family="sans-serif" font-size="13" font-weight="bold" lengthAdjust="spacing" textLength="14" x="378.5" y="822.9639">21</text><text fill="#000000" font-family="sans-serif" font-size="13" lengthAdjust="spacing" textLength="119" x="396.5" y="822.9639">successful operation</text><polygon fill="#181818" points="97.5,855.5176,87.5,859.5176,97.5,863.5176,93.5,859.5176" style="stroke:#181818;stroke-width:1.0;"/><line style="stroke:#181818;stroke-width:1.0;stroke-dasharray:2.0,2.0;" x1="91.5" x2="355.5" y1="859.5176" y2="859.5176"/><text fill="#000000" font-family="sans-serif" font-size="13" font-weight="bold" lengthAdjust="spacing" textLength="14" x="103.5" y="854.2549">22</text><text fill="#000000" font-family="sans-serif" font-size="13" lengthAdjust="spacing" textLength="147" x="121.5" y="854.2549">shows success message</text><!--SRC=[lPV1Rjim38RlUGeUFM3T0mH5W2x0W0uh2XJRRHT5PXAjYcI8Seg-_IWxiULOSUnbgGy1B5FyQEhNBqUKtffojq8tcmdfhODbITxkq3q98pPXk13EAwaAOJoy2FEw52PNkV18lnxX_hvmI6YyyCgQnM8WUccDTrPhT3nBDZSyPyRFnKeGmdUxUYxGABDvmSAIueBUETerDnpT13yKXLQo0e-8vjIFngFRAtmx7nwQeFPSRhyFmDV98Dmj-YsPWw1N0c_1yIEGpRCgGvF_T5uD25SlOuyIjN8E6_GFMhUTe-nJa-eChPtVKllaYC8L99Tc3cjbSiP7p0utDQlB35SozztmQ_zfNxYJByS9yFCld5xP53G2NkvoQcrFHJK7hSXJW86jQS1J6baHQfGUhC7P8F-egN6YhRDsg3SKRBjrwPjrxK9bTHcOjqCtKNFQEsevVtqVMK-dfcJ6ljJJu0jQ5r6xpebz17-gsfFOKNBNrXRmjbKQAnEi5AnrD-4LylaXoCT-didIEJw4eXvCKKtS8sCvqgdDbZVOUjoKdrkCtmnsrMnE15knHr37AWbMfGVFqVAm8s5ts99yI01vnIsgpWpbltG8oBi_53R5h5E7tL7VKPy6MtTgvOcSIJDFiIz8lEdIW9bVn4yLU1zwfPadtPosbjU-OG59wn3M_ArLQw7gF_msiOPYlpz8ud-QVKX95Jw2tiZkooACXO0iO3_3qLB_SRTUxV74kp8RBEB3Z9rAAP5eNUfmvhfs6Jx6u0VnjziA1opi-8SVN1PsyBzmfF0_1JpxWVuN]--></g></svg>