<?xml version="1.0" encoding="us-ascii" standalone="no"?><svg xmlns="http://www.w3.org/2000/svg" xmlns:xlink="http://www.w3.org/1999/xlink" contentStyleType="text/css" height="1013px" preserveAspectRatio="none" style="width:1258px;height:1013px;background:#FFFFFF;" version="1.1" viewBox="0 0 1258 1013" width="1258px" zoomAndPan="magnify"><defs/><g><rect fill="#FFFFFF" height="797.5664" style="stroke:#181818;stroke-width:1.0;" width="10" x="61.5" y="98.2422"/><rect fill="#FFFFFF" height="156.4551" style="stroke:#181818;stroke-width:1.0;" width="10" x="346.5" y="121.5332"/><rect fill="#FFFFFF" height="156.4551" style="stroke:#181818;stroke-width:1.0;" width="10" x="346.5" y="309.2793"/><rect fill="#FFFFFF" height="211.0371" style="stroke:#181818;stroke-width:1.0;" width="10" x="346.5" y="497.0254"/><rect fill="#FFFFFF" height="156.4551" style="stroke:#181818;stroke-width:1.0;" width="10" x="346.5" y="739.3535"/><rect fill="#FFFFFF" height="93.873" style="stroke:#181818;stroke-width:1.0;" width="10" x="687.5" y="152.8242"/><rect fill="#FFFFFF" height="93.873" style="stroke:#181818;stroke-width:1.0;" width="10" x="687.5" y="340.5703"/><rect fill="#FFFFFF" height="131.1641" style="stroke:#181818;stroke-width:1.0;" width="10" x="687.5" y="528.3164"/><rect fill="#FFFFFF" height="93.873" style="stroke:#181818;stroke-width:1.0;" width="10" x="687.5" y="770.6445"/><rect fill="#FFFFFF" height="31.291" style="stroke:#181818;stroke-width:1.0;" width="10" x="863" y="184.1152"/><rect fill="#FFFFFF" height="31.291" style="stroke:#181818;stroke-width:1.0;" width="10" x="1019.5" y="371.8613"/><rect fill="#FFFFFF" height="31.291" style="stroke:#181818;stroke-width:1.0;" width="10" x="1019.5" y="801.9355"/><rect fill="#FFFFFF" height="31.291" style="stroke:#181818;stroke-width:1.0;" width="10" x="1176.5" y="596.8984"/><line style="stroke:#181818;stroke-width:0.5;stroke-dasharray:5.0,5.0;" x1="66" x2="66" y1="88.2422" y2="913.8086"/><line style="stroke:#181818;stroke-width:0.5;stroke-dasharray:5.0,5.0;" x1="351" x2="351" y1="88.2422" y2="913.8086"/><line style="stroke:#181818;stroke-width:0.5;stroke-dasharray:5.0,5.0;" x1="692" x2="692" y1="88.2422" y2="913.8086"/><line style="stroke:#181818;stroke-width:0.5;stroke-dasharray:5.0,5.0;" x1="868" x2="868" y1="88.2422" y2="913.8086"/><line style="stroke:#181818;stroke-width:0.5;stroke-dasharray:5.0,5.0;" x1="1024" x2="1024" y1="88.2422" y2="913.8086"/><line style="stroke:#181818;stroke-width:0.5;stroke-dasharray:5.0,5.0;" x1="1181" x2="1181" y1="88.2422" y2="913.8086"/><text fill="#000000" font-family="sans-serif" font-size="14" lengthAdjust="spacing" textLength="117" x="5" y="84.7285">CustomerManager</text><ellipse cx="66.5" cy="18.1211" fill="#E2E2F0" rx="8" ry="8" style="stroke:#181818;stroke-width:0.5;"/><path d="M66.5,26.1211 L66.5,53.1211 M53.5,34.1211 L79.5,34.1211 M66.5,53.1211 L53.5,68.1211 M66.5,53.1211 L79.5,68.1211 " fill="none" style="stroke:#181818;stroke-width:0.5;"/><text fill="#000000" font-family="sans-serif" font-size="14" lengthAdjust="spacing" textLength="117" x="5" y="927.916">CustomerManager</text><ellipse cx="66.5" cy="939.9297" fill="#E2E2F0" rx="8" ry="8" style="stroke:#181818;stroke-width:0.5;"/><path d="M66.5,947.9297 L66.5,974.9297 M53.5,955.9297 L79.5,955.9297 M66.5,974.9297 L53.5,989.9297 M66.5,974.9297 L79.5,989.9297 " fill="none" style="stroke:#181818;stroke-width:0.5;"/><rect fill="#E2E2F0" height="51.2422" rx="2.5" ry="2.5" style="stroke:#181818;stroke-width:0.5;" width="131" x="286" y="36"/><text fill="#000000" font-family="sans-serif" font-size="14" font-style="italic" lengthAdjust="spacing" textLength="95" x="304" y="58.1074">&#171;presentation&#187;</text><text fill="#000000" font-family="sans-serif" font-size="14" lengthAdjust="spacing" textLength="117" x="293" y="76.7285">RankCandidatesUI</text><rect fill="#E2E2F0" height="51.2422" rx="2.5" ry="2.5" style="stroke:#181818;stroke-width:0.5;" width="131" x="286" y="912.8086"/><text fill="#000000" font-family="sans-serif" font-size="14" font-style="italic" lengthAdjust="spacing" textLength="95" x="304" y="934.916">&#171;presentation&#187;</text><text fill="#000000" font-family="sans-serif" font-size="14" lengthAdjust="spacing" textLength="117" x="293" y="953.5371">RankCandidatesUI</text><rect fill="#E2E2F0" height="51.2422" rx="2.5" ry="2.5" style="stroke:#181818;stroke-width:0.5;" width="181" x="602" y="36"/><text fill="#000000" font-family="sans-serif" font-size="14" font-style="italic" lengthAdjust="spacing" textLength="75" x="655" y="58.1074">&#171;controller&#187;</text><text fill="#000000" font-family="sans-serif" font-size="14" lengthAdjust="spacing" textLength="167" x="609" y="76.7285">RankCandidatesController</text><rect fill="#E2E2F0" height="51.2422" rx="2.5" ry="2.5" style="stroke:#181818;stroke-width:0.5;" width="181" x="602" y="912.8086"/><text fill="#000000" font-family="sans-serif" font-size="14" font-style="italic" lengthAdjust="spacing" textLength="75" x="655" y="934.916">&#171;controller&#187;</text><text fill="#000000" font-family="sans-serif" font-size="14" lengthAdjust="spacing" textLength="167" x="609" y="953.5371">RankCandidatesController</text><text fill="#000000" font-family="sans-serif" font-size="14" font-style="italic" lengthAdjust="spacing" textLength="79" x="825.5" y="66.1074">&#171;repository&#187;</text><text fill="#000000" font-family="sans-serif" font-size="14" lengthAdjust="spacing" textLength="144" x="793" y="84.7285">JobOpeningRepository</text><path d="M850,15 C850,5 868,5 868,5 C868,5 886,5 886,15 L886,41 C886,51 868,51 868,51 C868,51 850,51 850,41 L850,15 " fill="#E2E2F0" style="stroke:#181818;stroke-width:1.5;"/><path d="M850,15 C850,25 868,25 868,25 C868,25 886,25 886,15 " fill="none" style="stroke:#181818;stroke-width:1.5;"/><text fill="#000000" font-family="sans-serif" font-size="14" font-style="italic" lengthAdjust="spacing" textLength="79" x="825.5" y="927.916">&#171;repository&#187;</text><text fill="#000000" font-family="sans-serif" font-size="14" lengthAdjust="spacing" textLength="144" x="793" y="946.5371">JobOpeningRepository</text><path d="M850,960.0508 C850,950.0508 868,950.0508 868,950.0508 C868,950.0508 886,950.0508 886,960.0508 L886,986.0508 C886,996.0508 868,996.0508 868,996.0508 C868,996.0508 850,996.0508 850,986.0508 L850,960.0508 " fill="#E2E2F0" style="stroke:#181818;stroke-width:1.5;"/><path d="M850,960.0508 C850,970.0508 868,970.0508 868,970.0508 C868,970.0508 886,970.0508 886,960.0508 " fill="none" style="stroke:#181818;stroke-width:1.5;"/><text fill="#000000" font-family="sans-serif" font-size="14" font-style="italic" lengthAdjust="spacing" textLength="79" x="982" y="66.1074">&#171;repository&#187;</text><text fill="#000000" font-family="sans-serif" font-size="14" lengthAdjust="spacing" textLength="137" x="953" y="84.7285">ApplicationRepository</text><path d="M1006.5,15 C1006.5,5 1024.5,5 1024.5,5 C1024.5,5 1042.5,5 1042.5,15 L1042.5,41 C1042.5,51 1024.5,51 1024.5,51 C1024.5,51 1006.5,51 1006.5,41 L1006.5,15 " fill="#E2E2F0" style="stroke:#181818;stroke-width:1.5;"/><path d="M1006.5,15 C1006.5,25 1024.5,25 1024.5,25 C1024.5,25 1042.5,25 1042.5,15 " fill="none" style="stroke:#181818;stroke-width:1.5;"/><text fill="#000000" font-family="sans-serif" font-size="14" font-style="italic" lengthAdjust="spacing" textLength="79" x="982" y="927.916">&#171;repository&#187;</text><text fill="#000000" font-family="sans-serif" font-size="14" lengthAdjust="spacing" textLength="137" x="953" y="946.5371">ApplicationRepository</text><path d="M1006.5,960.0508 C1006.5,950.0508 1024.5,950.0508 1024.5,950.0508 C1024.5,950.0508 1042.5,950.0508 1042.5,960.0508 L1042.5,986.0508 C1042.5,996.0508 1024.5,996.0508 1024.5,996.0508 C1024.5,996.0508 1006.5,996.0508 1006.5,986.0508 L1006.5,960.0508 " fill="#E2E2F0" style="stroke:#181818;stroke-width:1.5;"/><path d="M1006.5,960.0508 C1006.5,970.0508 1024.5,970.0508 1024.5,970.0508 C1024.5,970.0508 1042.5,970.0508 1042.5,960.0508 " fill="none" style="stroke:#181818;stroke-width:1.5;"/><text fill="#000000" font-family="sans-serif" font-size="14" font-style="italic" lengthAdjust="spacing" textLength="79" x="1139" y="66.1074">&#171;repository&#187;</text><text fill="#000000" font-family="sans-serif" font-size="14" lengthAdjust="spacing" textLength="145" x="1106" y="84.7285">JobInterviewRepository</text><path d="M1163.5,15 C1163.5,5 1181.5,5 1181.5,5 C1181.5,5 1199.5,5 1199.5,15 L1199.5,41 C1199.5,51 1181.5,51 1181.5,51 C1181.5,51 1163.5,51 1163.5,41 L1163.5,15 " fill="#E2E2F0" style="stroke:#181818;stroke-width:1.5;"/><path d="M1163.5,15 C1163.5,25 1181.5,25 1181.5,25 C1181.5,25 1199.5,25 1199.5,15 " fill="none" style="stroke:#181818;stroke-width:1.5;"/><text fill="#000000" font-family="sans-serif" font-size="14" font-style="italic" lengthAdjust="spacing" textLength="79" x="1139" y="927.916">&#171;repository&#187;</text><text fill="#000000" font-family="sans-serif" font-size="14" lengthAdjust="spacing" textLength="145" x="1106" y="946.5371">JobInterviewRepository</text><path d="M1163.5,960.0508 C1163.5,950.0508 1181.5,950.0508 1181.5,950.0508 C1181.5,950.0508 1199.5,950.0508 1199.5,960.0508 L1199.5,986.0508 C1199.5,996.0508 1181.5,996.0508 1181.5,996.0508 C1181.5,996.0508 1163.5,996.0508 1163.5,986.0508 L1163.5,960.0508 " fill="#E2E2F0" style="stroke:#181818;stroke-width:1.5;"/><path d="M1163.5,960.0508 C1163.5,970.0508 1181.5,970.0508 1181.5,970.0508 C1181.5,970.0508 1199.5,970.0508 1199.5,960.0508 " fill="none" style="stroke:#181818;stroke-width:1.5;"/><rect fill="#FFFFFF" height="797.5664" style="stroke:#181818;stroke-width:1.0;" width="10" x="61.5" y="98.2422"/><rect fill="#FFFFFF" height="156.4551" style="stroke:#181818;stroke-width:1.0;" width="10" x="346.5" y="121.5332"/><rect fill="#FFFFFF" height="156.4551" style="stroke:#181818;stroke-width:1.0;" width="10" x="346.5" y="309.2793"/><rect fill="#FFFFFF" height="211.0371" style="stroke:#181818;stroke-width:1.0;" width="10" x="346.5" y="497.0254"/><rect fill="#FFFFFF" height="156.4551" style="stroke:#181818;stroke-width:1.0;" width="10" x="346.5" y="739.3535"/><rect fill="#FFFFFF" height="93.873" style="stroke:#181818;stroke-width:1.0;" width="10" x="687.5" y="152.8242"/><rect fill="#FFFFFF" height="93.873" style="stroke:#181818;stroke-width:1.0;" width="10" x="687.5" y="340.5703"/><rect fill="#FFFFFF" height="131.1641" style="stroke:#181818;stroke-width:1.0;" width="10" x="687.5" y="528.3164"/><rect fill="#FFFFFF" height="93.873" style="stroke:#181818;stroke-width:1.0;" width="10" x="687.5" y="770.6445"/><rect fill="#FFFFFF" height="31.291" style="stroke:#181818;stroke-width:1.0;" width="10" x="863" y="184.1152"/><rect fill="#FFFFFF" height="31.291" style="stroke:#181818;stroke-width:1.0;" width="10" x="1019.5" y="371.8613"/><rect fill="#FFFFFF" height="31.291" style="stroke:#181818;stroke-width:1.0;" width="10" x="1019.5" y="801.9355"/><rect fill="#FFFFFF" height="31.291" style="stroke:#181818;stroke-width:1.0;" width="10" x="1176.5" y="596.8984"/><polygon fill="#181818" points="334.5,117.5332,344.5,121.5332,334.5,125.5332,338.5,121.5332" style="stroke:#181818;stroke-width:1.0;"/><line style="stroke:#181818;stroke-width:1.0;" x1="71.5" x2="340.5" y1="121.5332" y2="121.5332"/><text fill="#000000" font-family="sans-serif" font-size="13" font-weight="bold" lengthAdjust="spacing" textLength="7" x="78.5" y="116.2705">1</text><text fill="#000000" font-family="sans-serif" font-size="13" lengthAdjust="spacing" textLength="139" x="89.5" y="116.2705">asks to rank candidates</text><polygon fill="#181818" points="675.5,148.8242,685.5,152.8242,675.5,156.8242,679.5,152.8242" style="stroke:#181818;stroke-width:1.0;"/><line style="stroke:#181818;stroke-width:1.0;" x1="356.5" x2="681.5" y1="152.8242" y2="152.8242"/><text fill="#000000" font-family="sans-serif" font-size="13" font-weight="bold" lengthAdjust="spacing" textLength="7" x="363.5" y="147.5615">2</text><text fill="#000000" font-family="sans-serif" font-size="13" lengthAdjust="spacing" textLength="116" x="374.5" y="147.5615">getAllJobOpenings()</text><polygon fill="#181818" points="851,180.1152,861,184.1152,851,188.1152,855,184.1152" style="stroke:#181818;stroke-width:1.0;"/><line style="stroke:#181818;stroke-width:1.0;" x1="697.5" x2="857" y1="184.1152" y2="184.1152"/><text fill="#000000" font-family="sans-serif" font-size="13" font-weight="bold" lengthAdjust="spacing" textLength="7" x="704.5" y="178.8525">3</text><text fill="#000000" font-family="sans-serif" font-size="13" lengthAdjust="spacing" textLength="43" x="715.5" y="178.8525">findAll()</text><polygon fill="#181818" points="708.5,211.4063,698.5,215.4063,708.5,219.4063,704.5,215.4063" style="stroke:#181818;stroke-width:1.0;"/><line style="stroke:#181818;stroke-width:1.0;stroke-dasharray:2.0,2.0;" x1="702.5" x2="867" y1="215.4063" y2="215.4063"/><text fill="#000000" font-family="sans-serif" font-size="13" font-weight="bold" lengthAdjust="spacing" textLength="7" x="714.5" y="210.1436">4</text><text fill="#000000" font-family="sans-serif" font-size="13" lengthAdjust="spacing" textLength="72" x="725.5" y="210.1436">jobOpenings</text><polygon fill="#181818" points="367.5,242.6973,357.5,246.6973,367.5,250.6973,363.5,246.6973" style="stroke:#181818;stroke-width:1.0;"/><line style="stroke:#181818;stroke-width:1.0;stroke-dasharray:2.0,2.0;" x1="361.5" x2="691.5" y1="246.6973" y2="246.6973"/><text fill="#000000" font-family="sans-serif" font-size="13" font-weight="bold" lengthAdjust="spacing" textLength="7" x="373.5" y="241.4346">5</text><text fill="#000000" font-family="sans-serif" font-size="13" lengthAdjust="spacing" textLength="72" x="384.5" y="241.4346">jobOpenings</text><polygon fill="#181818" points="82.5,273.9883,72.5,277.9883,82.5,281.9883,78.5,277.9883" style="stroke:#181818;stroke-width:1.0;"/><line style="stroke:#181818;stroke-width:1.0;" x1="76.5" x2="350.5" y1="277.9883" y2="277.9883"/><text fill="#000000" font-family="sans-serif" font-size="13" font-weight="bold" lengthAdjust="spacing" textLength="7" x="88.5" y="272.7256">6</text><text fill="#000000" font-family="sans-serif" font-size="13" lengthAdjust="spacing" textLength="230" x="99.5" y="272.7256">lists job opening and asks to select one</text><polygon fill="#181818" points="334.5,305.2793,344.5,309.2793,334.5,313.2793,338.5,309.2793" style="stroke:#181818;stroke-width:1.0;"/><line style="stroke:#181818;stroke-width:1.0;" x1="71.5" x2="340.5" y1="309.2793" y2="309.2793"/><text fill="#000000" font-family="sans-serif" font-size="13" font-weight="bold" lengthAdjust="spacing" textLength="7" x="78.5" y="304.0166">7</text><text fill="#000000" font-family="sans-serif" font-size="13" lengthAdjust="spacing" textLength="112" x="89.5" y="304.0166">selects job opening</text><polygon fill="#181818" points="675.5,336.5703,685.5,340.5703,675.5,344.5703,679.5,340.5703" style="stroke:#181818;stroke-width:1.0;"/><line style="stroke:#181818;stroke-width:1.0;" x1="356.5" x2="681.5" y1="340.5703" y2="340.5703"/><text fill="#000000" font-family="sans-serif" font-size="13" font-weight="bold" lengthAdjust="spacing" textLength="7" x="363.5" y="335.3076">8</text><text fill="#000000" font-family="sans-serif" font-size="13" lengthAdjust="spacing" textLength="301" x="374.5" y="335.3076">getApplicationsForJobOpening(selectedJobOpening)</text><polygon fill="#181818" points="1007.5,367.8613,1017.5,371.8613,1007.5,375.8613,1011.5,371.8613" style="stroke:#181818;stroke-width:1.0;"/><line style="stroke:#181818;stroke-width:1.0;" x1="697.5" x2="1013.5" y1="371.8613" y2="371.8613"/><text fill="#000000" font-family="sans-serif" font-size="13" font-weight="bold" lengthAdjust="spacing" textLength="7" x="704.5" y="366.5986">9</text><text fill="#000000" font-family="sans-serif" font-size="13" lengthAdjust="spacing" textLength="229" x="715.5" y="366.5986">findByJobOpening(selectedJobOpening)</text><polygon fill="#181818" points="708.5,399.1523,698.5,403.1523,708.5,407.1523,704.5,403.1523" style="stroke:#181818;stroke-width:1.0;"/><line style="stroke:#181818;stroke-width:1.0;stroke-dasharray:2.0,2.0;" x1="702.5" x2="1023.5" y1="403.1523" y2="403.1523"/><text fill="#000000" font-family="sans-serif" font-size="13" font-weight="bold" lengthAdjust="spacing" textLength="14" x="714.5" y="397.8896">10</text><text fill="#000000" font-family="sans-serif" font-size="13" lengthAdjust="spacing" textLength="69" x="732.5" y="397.8896">applications</text><polygon fill="#181818" points="367.5,430.4434,357.5,434.4434,367.5,438.4434,363.5,434.4434" style="stroke:#181818;stroke-width:1.0;"/><line style="stroke:#181818;stroke-width:1.0;stroke-dasharray:2.0,2.0;" x1="361.5" x2="691.5" y1="434.4434" y2="434.4434"/><text fill="#000000" font-family="sans-serif" font-size="13" font-weight="bold" lengthAdjust="spacing" textLength="14" x="373.5" y="429.1807">11</text><text fill="#000000" font-family="sans-serif" font-size="13" lengthAdjust="spacing" textLength="69" x="391.5" y="429.1807">applications</text><polygon fill="#181818" points="82.5,461.7344,72.5,465.7344,82.5,469.7344,78.5,465.7344" style="stroke:#181818;stroke-width:1.0;"/><line style="stroke:#181818;stroke-width:1.0;stroke-dasharray:2.0,2.0;" x1="76.5" x2="350.5" y1="465.7344" y2="465.7344"/><text fill="#000000" font-family="sans-serif" font-size="13" font-weight="bold" lengthAdjust="spacing" textLength="14" x="88.5" y="460.4717">12</text><text fill="#000000" font-family="sans-serif" font-size="13" lengthAdjust="spacing" textLength="233" x="106.5" y="460.4717">lists applications and asks to select one</text><polygon fill="#181818" points="334.5,493.0254,344.5,497.0254,334.5,501.0254,338.5,497.0254" style="stroke:#181818;stroke-width:1.0;"/><line style="stroke:#181818;stroke-width:1.0;" x1="71.5" x2="340.5" y1="497.0254" y2="497.0254"/><text fill="#000000" font-family="sans-serif" font-size="13" font-weight="bold" lengthAdjust="spacing" textLength="14" x="78.5" y="491.7627">13</text><text fill="#000000" font-family="sans-serif" font-size="13" lengthAdjust="spacing" textLength="108" x="96.5" y="491.7627">selects application</text><polygon fill="#181818" points="675.5,524.3164,685.5,528.3164,675.5,532.3164,679.5,528.3164" style="stroke:#181818;stroke-width:1.0;"/><line style="stroke:#181818;stroke-width:1.0;" x1="356.5" x2="681.5" y1="528.3164" y2="528.3164"/><text fill="#000000" font-family="sans-serif" font-size="13" font-weight="bold" lengthAdjust="spacing" textLength="14" x="363.5" y="523.0537">14</text><text fill="#000000" font-family="sans-serif" font-size="13" lengthAdjust="spacing" textLength="278" x="381.5" y="523.0537">getInterviewsForApplication(selectedApplication)</text><path d="M702,541.3164 L702,568.3164 L1207,568.3164 L1207,551.3164 L1197,541.3164 L702,541.3164 " fill="#FEFFDD" style="stroke:#181818;stroke-width:0.5;"/><path d="M1197,541.3164 L1197,551.3164 L1207,551.3164 L1197,541.3164 " fill="#FEFFDD" style="stroke:#181818;stroke-width:0.5;"/><text fill="#000000" font-family="sans-serif" font-size="13" lengthAdjust="spacing" textLength="484" x="708" y="560.3447">The application might not have interviews but the customer manager can still rank it.</text><polygon fill="#181818" points="1164.5,592.8984,1174.5,596.8984,1164.5,600.8984,1168.5,596.8984" style="stroke:#181818;stroke-width:1.0;"/><line style="stroke:#181818;stroke-width:1.0;" x1="697.5" x2="1170.5" y1="596.8984" y2="596.8984"/><text fill="#000000" font-family="sans-serif" font-size="13" font-weight="bold" lengthAdjust="spacing" textLength="14" x="704.5" y="591.6357">15</text><text fill="#000000" font-family="sans-serif" font-size="13" lengthAdjust="spacing" textLength="221" x="722.5" y="591.6357">findByApplication(selectedApplication)</text><polygon fill="#181818" points="708.5,624.1895,698.5,628.1895,708.5,632.1895,704.5,628.1895" style="stroke:#181818;stroke-width:1.0;"/><line style="stroke:#181818;stroke-width:1.0;stroke-dasharray:2.0,2.0;" x1="702.5" x2="1180.5" y1="628.1895" y2="628.1895"/><text fill="#000000" font-family="sans-serif" font-size="13" font-weight="bold" lengthAdjust="spacing" textLength="14" x="714.5" y="622.9268">16</text><text fill="#000000" font-family="sans-serif" font-size="13" lengthAdjust="spacing" textLength="56" x="732.5" y="622.9268">interviews</text><polygon fill="#181818" points="367.5,655.4805,357.5,659.4805,367.5,663.4805,363.5,659.4805" style="stroke:#181818;stroke-width:1.0;"/><line style="stroke:#181818;stroke-width:1.0;stroke-dasharray:2.0,2.0;" x1="361.5" x2="691.5" y1="659.4805" y2="659.4805"/><text fill="#000000" font-family="sans-serif" font-size="13" font-weight="bold" lengthAdjust="spacing" textLength="14" x="373.5" y="654.2178">17</text><text fill="#000000" font-family="sans-serif" font-size="13" lengthAdjust="spacing" textLength="56" x="391.5" y="654.2178">interviews</text><polygon fill="#181818" points="82.5,704.0625,72.5,708.0625,82.5,712.0625,78.5,708.0625" style="stroke:#181818;stroke-width:1.0;"/><line style="stroke:#181818;stroke-width:1.0;stroke-dasharray:2.0,2.0;" x1="76.5" x2="350.5" y1="708.0625" y2="708.0625"/><text fill="#000000" font-family="sans-serif" font-size="13" font-weight="bold" lengthAdjust="spacing" textLength="14" x="88.5" y="694.1543">18</text><text fill="#000000" font-family="sans-serif" font-size="13" lengthAdjust="spacing" textLength="219" x="106.5" y="685.5088">shows interview score for the selected</text><text fill="#000000" font-family="sans-serif" font-size="13" lengthAdjust="spacing" textLength="174" x="106.5" y="702.7998">application and asks to rank it</text><polygon fill="#181818" points="334.5,735.3535,344.5,739.3535,334.5,743.3535,338.5,739.3535" style="stroke:#181818;stroke-width:1.0;"/><line style="stroke:#181818;stroke-width:1.0;" x1="71.5" x2="340.5" y1="739.3535" y2="739.3535"/><text fill="#000000" font-family="sans-serif" font-size="13" font-weight="bold" lengthAdjust="spacing" textLength="14" x="78.5" y="734.0908">19</text><text fill="#000000" font-family="sans-serif" font-size="13" lengthAdjust="spacing" textLength="120" x="96.5" y="734.0908">ranks the application</text><polygon fill="#181818" points="675.5,766.6445,685.5,770.6445,675.5,774.6445,679.5,770.6445" style="stroke:#181818;stroke-width:1.0;"/><line style="stroke:#181818;stroke-width:1.0;" x1="356.5" x2="681.5" y1="770.6445" y2="770.6445"/><text fill="#000000" font-family="sans-serif" font-size="13" font-weight="bold" lengthAdjust="spacing" textLength="14" x="363.5" y="765.3818">20</text><text fill="#000000" font-family="sans-serif" font-size="13" lengthAdjust="spacing" textLength="223" x="381.5" y="765.3818">updateRank(rank, selectedApplication)</text><polygon fill="#181818" points="1007.5,797.9355,1017.5,801.9355,1007.5,805.9355,1011.5,801.9355" style="stroke:#181818;stroke-width:1.0;"/><line style="stroke:#181818;stroke-width:1.0;" x1="697.5" x2="1013.5" y1="801.9355" y2="801.9355"/><text fill="#000000" font-family="sans-serif" font-size="13" font-weight="bold" lengthAdjust="spacing" textLength="14" x="704.5" y="796.6729">21</text><text fill="#000000" font-family="sans-serif" font-size="13" lengthAdjust="spacing" textLength="147" x="722.5" y="796.6729">save(selectedApplication)</text><polygon fill="#181818" points="708.5,829.2266,698.5,833.2266,708.5,837.2266,704.5,833.2266" style="stroke:#181818;stroke-width:1.0;"/><line style="stroke:#181818;stroke-width:1.0;stroke-dasharray:2.0,2.0;" x1="702.5" x2="1023.5" y1="833.2266" y2="833.2266"/><text fill="#000000" font-family="sans-serif" font-size="13" font-weight="bold" lengthAdjust="spacing" textLength="14" x="714.5" y="827.9639">22</text><text fill="#000000" font-family="sans-serif" font-size="13" lengthAdjust="spacing" textLength="119" x="732.5" y="827.9639">successful operation</text><polygon fill="#181818" points="367.5,860.5176,357.5,864.5176,367.5,868.5176,363.5,864.5176" style="stroke:#181818;stroke-width:1.0;"/><line style="stroke:#181818;stroke-width:1.0;stroke-dasharray:2.0,2.0;" x1="361.5" x2="691.5" y1="864.5176" y2="864.5176"/><text fill="#000000" font-family="sans-serif" font-size="13" font-weight="bold" lengthAdjust="spacing" textLength="14" x="373.5" y="859.2549">23</text><text fill="#000000" font-family="sans-serif" font-size="13" lengthAdjust="spacing" textLength="119" x="391.5" y="859.2549">successful operation</text><polygon fill="#181818" points="77.5,891.8086,67.5,895.8086,77.5,899.8086,73.5,895.8086" style="stroke:#181818;stroke-width:1.0;"/><line style="stroke:#181818;stroke-width:1.0;stroke-dasharray:2.0,2.0;" x1="71.5" x2="350.5" y1="895.8086" y2="895.8086"/><text fill="#000000" font-family="sans-serif" font-size="13" font-weight="bold" lengthAdjust="spacing" textLength="14" x="83.5" y="890.5459">24</text><text fill="#000000" font-family="sans-serif" font-size="13" lengthAdjust="spacing" textLength="147" x="101.5" y="890.5459">shows success message</text><!--SRC=[lPTHYzim3CVV-odqsC5k7w0SXLjXS8CnEBQtlRYEslekiOFbTDotdzoqZfEuQKANoqEXjgoVBFrLfQ9oHbV55krY8QGp5ZOLELEW_I6qsFlbKbYdf2g5Tl0YzDj6w4nbmY7zVeR7nz8YeNR2AQFNwm7hZT7EcZn7owTa-C9d5hmlje8GlfljpnArqliNB0qf3kYThMtumjR1-AaiSoLFu17MxFfPExH7XN-lc_iag2E7syy3yDDPX8TrFoKh4FH6u0nOtW8PzauUWl_kkHhWdvx77YLAvGhsw9xolCaSBJy5LrTepVc6sYT758uWMPeLx9JE61ynMzpKgJRJFqdV3yFNVcqktFANuGJuzGkdAvk2Hi3RMKxLjYkg5UIA77aOc9e6V2J8YZ17wS1eN0poBveQ9zhQQuiwes2RrgLlnZQ5MjPXODOipQBcz6z7BUUlxoFZQSMKzDYNUXfyG-iYIjSriO_WJrLx4dkdt0Vq7kC-KF0HTZx1Xz7ZvHwLAkWhMfiY-BYysh2bLVi3fsetxiYl0yRtX-9qcXt1GHmHL8WQjfK3nzRod5iepidb-GRaL9xNuqwvBoq2SXrzO5FcJ6fENrfpTEwwOoZXD3c8Kl0RxTcaQM0ItUHFxSu4TOxUf8FXyWSOa3GMOSTlYbuEbnB07nthAExUiop-P-jwbtJYpz-yLUdNlC7IOp_3dHrxzuWYxim9qfzpBb4b9HBjgjo_CjYc31ypdmRny_N26Gi5V_36RM57czr_5Vy0]--></g></svg>