<?xml version="1.0" encoding="us-ascii" standalone="no"?><svg xmlns="http://www.w3.org/2000/svg" xmlns:xlink="http://www.w3.org/1999/xlink" contentStyleType="text/css" height="464px" preserveAspectRatio="none" style="width:497px;height:464px;background:#FFFFFF;" version="1.1" viewBox="0 0 497 464" width="497px" zoomAndPan="magnify"><defs/><g><text fill="#000000" font-family="sans-serif" font-size="14" font-weight="bold" lengthAdjust="spacing" textLength="379" x="60.75" y="30.1074">System Sequence Diagram (SSD) - Ranking candidates</text><rect fill="#FFFFFF" height="238.3281" style="stroke:#181818;stroke-width:1.0;" width="10" x="78.5" y="133.2422"/><rect fill="#FFFFFF" height="31.291" style="stroke:#181818;stroke-width:1.0;" width="10" x="444.5" y="156.5332"/><rect fill="#FFFFFF" height="74.873" style="stroke:#181818;stroke-width:1.0;" width="10" x="444.5" y="219.1152"/><rect fill="#FFFFFF" height="31.291" style="stroke:#181818;stroke-width:1.0;" width="10" x="444.5" y="325.2793"/><rect fill="none" height="130.4551" style="stroke:#000000;stroke-width:1.5;" width="481.5" x="10" y="234.1152"/><line style="stroke:#181818;stroke-width:0.5;stroke-dasharray:5.0,5.0;" x1="83" x2="83" y1="123.2422" y2="381.5703"/><line style="stroke:#181818;stroke-width:0.5;stroke-dasharray:5.0,5.0;" x1="449.5" x2="449.5" y1="123.2422" y2="381.5703"/><text fill="#000000" font-family="sans-serif" font-size="14" lengthAdjust="spacing" textLength="121" x="20" y="119.7285">Customer Manager</text><ellipse cx="83.5" cy="53.1211" fill="#E3E3E3" rx="8" ry="8" style="stroke:#181818;stroke-width:0.5;"/><path d="M83.5,61.1211 L83.5,88.1211 M70.5,69.1211 L96.5,69.1211 M83.5,88.1211 L70.5,103.1211 M83.5,88.1211 L96.5,103.1211 " fill="none" style="stroke:#181818;stroke-width:0.5;"/><text fill="#000000" font-family="sans-serif" font-size="14" lengthAdjust="spacing" textLength="121" x="20" y="395.6777">Customer Manager</text><ellipse cx="83.5" cy="407.6914" fill="#E3E3E3" rx="8" ry="8" style="stroke:#181818;stroke-width:0.5;"/><path d="M83.5,415.6914 L83.5,442.6914 M70.5,423.6914 L96.5,423.6914 M83.5,442.6914 L70.5,457.6914 M83.5,442.6914 L96.5,457.6914 " fill="none" style="stroke:#181818;stroke-width:0.5;"/><rect fill="#E3E3E3" height="32.6211" rx="2.5" ry="2.5" style="stroke:#181818;stroke-width:0.5;" width="64" x="417.5" y="89.6211"/><text fill="#000000" font-family="sans-serif" font-size="14" lengthAdjust="spacing" textLength="50" x="424.5" y="111.7285">:System</text><rect fill="#E3E3E3" height="32.6211" rx="2.5" ry="2.5" style="stroke:#181818;stroke-width:0.5;" width="64" x="417.5" y="380.5703"/><text fill="#000000" font-family="sans-serif" font-size="14" lengthAdjust="spacing" textLength="50" x="424.5" y="402.6777">:System</text><rect fill="#FFFFFF" height="238.3281" style="stroke:#181818;stroke-width:1.0;" width="10" x="78.5" y="133.2422"/><rect fill="#FFFFFF" height="31.291" style="stroke:#181818;stroke-width:1.0;" width="10" x="444.5" y="156.5332"/><rect fill="#FFFFFF" height="74.873" style="stroke:#181818;stroke-width:1.0;" width="10" x="444.5" y="219.1152"/><rect fill="#FFFFFF" height="31.291" style="stroke:#181818;stroke-width:1.0;" width="10" x="444.5" y="325.2793"/><polygon fill="#181818" points="432.5,152.5332,442.5,156.5332,432.5,160.5332,436.5,156.5332" style="stroke:#181818;stroke-width:1.0;"/><line style="stroke:#181818;stroke-width:1.0;" x1="88.5" x2="438.5" y1="156.5332" y2="156.5332"/><text fill="#000000" font-family="sans-serif" font-size="13" font-weight="bold" lengthAdjust="spacing" textLength="7" x="95.5" y="151.2705">1</text><text fill="#000000" font-family="sans-serif" font-size="13" lengthAdjust="spacing" textLength="234" x="106.5" y="151.2705">asks to rank candidates of a job opening</text><polygon fill="#181818" points="99.5,183.8242,89.5,187.8242,99.5,191.8242,95.5,187.8242" style="stroke:#181818;stroke-width:1.0;"/><line style="stroke:#181818;stroke-width:1.0;stroke-dasharray:2.0,2.0;" x1="93.5" x2="448.5" y1="187.8242" y2="187.8242"/><text fill="#000000" font-family="sans-serif" font-size="13" font-weight="bold" lengthAdjust="spacing" textLength="7" x="105.5" y="182.5615">2</text><text fill="#000000" font-family="sans-serif" font-size="13" lengthAdjust="spacing" textLength="230" x="116.5" y="182.5615">lists job opening and asks to select one</text><polygon fill="#181818" points="432.5,215.1152,442.5,219.1152,432.5,223.1152,436.5,219.1152" style="stroke:#181818;stroke-width:1.0;"/><line style="stroke:#181818;stroke-width:1.0;" x1="88.5" x2="438.5" y1="219.1152" y2="219.1152"/><text fill="#000000" font-family="sans-serif" font-size="13" font-weight="bold" lengthAdjust="spacing" textLength="7" x="95.5" y="213.8525">3</text><text fill="#000000" font-family="sans-serif" font-size="13" lengthAdjust="spacing" textLength="112" x="106.5" y="213.8525">selects job opening</text><path d="M10,234.1152 L83,234.1152 L83,243.4063 L73,253.4063 L10,253.4063 L10,234.1152 " fill="#EEEEEE" style="stroke:#000000;stroke-width:1.5;"/><rect fill="none" height="130.4551" style="stroke:#000000;stroke-width:1.5;" width="481.5" x="10" y="234.1152"/><text fill="#000000" font-family="sans-serif" font-size="13" font-weight="bold" lengthAdjust="spacing" textLength="28" x="25" y="249.1436">loop</text><text fill="#000000" font-family="sans-serif" font-size="11" font-weight="bold" lengthAdjust="spacing" textLength="167" x="98" y="247.9854">[while ranking all applications]</text><polygon fill="#181818" points="99.5,289.9883,89.5,293.9883,99.5,297.9883,95.5,293.9883" style="stroke:#181818;stroke-width:1.0;"/><line style="stroke:#181818;stroke-width:1.0;stroke-dasharray:2.0,2.0;" x1="93.5" x2="448.5" y1="293.9883" y2="293.9883"/><text fill="#000000" font-family="sans-serif" font-size="13" font-weight="bold" lengthAdjust="spacing" textLength="7" x="105.5" y="280.0801">4</text><text fill="#000000" font-family="sans-serif" font-size="13" lengthAdjust="spacing" textLength="321" x="116.5" y="271.4346">lists one of the applications for the selected job opening</text><text fill="#000000" font-family="sans-serif" font-size="13" lengthAdjust="spacing" textLength="193" x="120.5" y="288.7256">and the score of the last interview</text><polygon fill="#181818" points="432.5,321.2793,442.5,325.2793,432.5,329.2793,436.5,325.2793" style="stroke:#181818;stroke-width:1.0;"/><line style="stroke:#181818;stroke-width:1.0;" x1="88.5" x2="438.5" y1="325.2793" y2="325.2793"/><text fill="#000000" font-family="sans-serif" font-size="13" font-weight="bold" lengthAdjust="spacing" textLength="7" x="95.5" y="320.0166">5</text><text fill="#000000" font-family="sans-serif" font-size="13" lengthAdjust="spacing" textLength="120" x="106.5" y="320.0166">ranks the application</text><polygon fill="#181818" points="99.5,352.5703,89.5,356.5703,99.5,360.5703,95.5,356.5703" style="stroke:#181818;stroke-width:1.0;"/><line style="stroke:#181818;stroke-width:1.0;stroke-dasharray:2.0,2.0;" x1="93.5" x2="448.5" y1="356.5703" y2="356.5703"/><text fill="#000000" font-family="sans-serif" font-size="13" font-weight="bold" lengthAdjust="spacing" textLength="7" x="105.5" y="351.3076">6</text><text fill="#000000" font-family="sans-serif" font-size="13" lengthAdjust="spacing" textLength="215" x="116.5" y="351.3076">displays operation success message</text><!--SRC=[bP8zRiCm38LtdOB8r0wvG8O2HRAcGxrsOMJ6LYrBhaWdoErBoOdX_WH5DGY2I3v-Zn9tBWoOi8S-XcZR57i2IICPdYC3sWuRgkJY2H9PmT3uPGAtMCUp2mqSqJCP8quqjRgmK0yLVOmKBC7EOPFJ7wfgzmXhUCNGvIABeNOr2h4nE4eCOt-Wf6ShCS5gEx8eLO8z1iL8Aq26xVxvnMXtSTOD60HMcwbTYKx7ek1EAZob6z2LJx1-ki5jDBrZa0X9QHOe48-0y1uF40SAYbcgPy5RXtAhwogtLkNIOGFUiV1I05HxxiRaTP0G0nM5cdue_mexbV7VN3x60Swjoozs7JDw3pWCtbaK5mFFx7VXbIwFGLhwKWX7VPPyET5GlSHv2yLd2TkOPW6FBE22K3evEl_BT3R0tob-jttVKUruy7ZXp9cA0l1eBJ53hvj-h3jCf6xoD8rPnCf_-WG0]--></g></svg>