<?xml version="1.0" encoding="us-ascii" standalone="no"?><svg xmlns="http://www.w3.org/2000/svg" xmlns:xlink="http://www.w3.org/1999/xlink" contentStyleType="text/css" height="525px" preserveAspectRatio="none" style="width:484px;height:525px;background:#FFFFFF;" version="1.1" viewBox="0 0 484 525" width="484.8px" zoomAndPan="magnify"><defs/><g><!--cluster actors--><g id="cluster_actors"><rect fill="none" height="142.8" rx="1.5" ry="1.5" style="stroke:#000000;stroke-width:0.6;" width="131.4" x="4.2" y="240"/><text fill="#000000" font-family="sans-serif" font-size="8.4" font-weight="bold" lengthAdjust="spacing" textLength="61.8" x="39" y="249.3211">System Actors</text></g><!--cluster usecases--><g id="cluster_usecases"><rect fill="none" height="517.2" rx="1.5" ry="1.5" style="stroke:#000000;stroke-width:0.6;" width="328.8" x="152.4" y="4.2"/><text fill="#000000" font-family="sans-serif" font-size="8.4" font-weight="bold" lengthAdjust="spacing" textLength="43.8" x="294.9" y="13.5211">Use Cases</text></g><!--entity Human Resources Manager--><g id="elem_Human Resources Manager"><ellipse cx="69.9" cy="266.1" fill="#F1F1F1" rx="4.8" ry="4.8" style="stroke:#181818;stroke-width:0.3;"/><path d="M69.9,270.9 L69.9,287.1 M62.1,275.7 L77.7,275.7 M69.9,287.1 L62.1,296.1 M69.9,287.1 L77.7,296.1 " fill="none" style="stroke:#181818;stroke-width:0.3;"/><text fill="#000000" font-family="sans-serif" font-size="8.4" lengthAdjust="spacing" textLength="112.2" x="13.8" y="305.1211">Human Resources Manager</text></g><!--entity Fleet Manager--><g id="elem_Fleet Manager"><ellipse cx="69.9" cy="332.7" fill="#F1F1F1" rx="4.8" ry="4.8" style="stroke:#181818;stroke-width:0.3;"/><path d="M69.9,337.5 L69.9,353.7 M62.1,342.3 L77.7,342.3 M69.9,353.7 L62.1,362.7 M69.9,353.7 L77.7,362.7 " fill="none" style="stroke:#181818;stroke-width:0.3;"/><text fill="#000000" font-family="sans-serif" font-size="8.4" lengthAdjust="spacing" textLength="58.2" x="40.8" y="371.7211">Fleet Manager</text></g><g id="elem_UC1"><ellipse cx="316.7877" cy="52.8575" fill="#F1F1F1" rx="131.0877" ry="27.6575" style="stroke:#181818;stroke-width:0.3;"/><text fill="#000000" font-family="sans-serif" font-size="8.4" lengthAdjust="spacing" textLength="246.6" x="193.4877" y="54.8321">UC1: Register skills that may be appointed to a collaborator.</text></g><g id="elem_UC2"><ellipse cx="316.6619" cy="113.3124" fill="#F1F1F1" rx="52.3619" ry="11.9124" style="stroke:#181818;stroke-width:0.3;"/><text fill="#000000" font-family="sans-serif" font-size="8.4" lengthAdjust="spacing" textLength="81" x="276.1619" y="115.287">UC2: Register a job.</text></g><g id="elem_UC3"><ellipse cx="316.7134" cy="178.7827" fill="#F1F1F1" rx="154.7134" ry="32.3827" style="stroke:#181818;stroke-width:0.3;"/><text fill="#000000" font-family="sans-serif" font-size="8.4" lengthAdjust="spacing" textLength="294.6" x="169.4134" y="180.7573">UC3: Register a collaborator with a job and fundamental characteristics.</text></g><g id="elem_UC4"><ellipse cx="316.7223" cy="255.5245" fill="#F1F1F1" rx="107.9223" ry="23.0245" style="stroke:#181818;stroke-width:0.3;"/><text fill="#000000" font-family="sans-serif" font-size="8.4" lengthAdjust="spacing" textLength="199.2" x="217.1223" y="257.4991">UC4: Assign one or more skills to a collaborator.</text></g><g id="elem_UC5"><ellipse cx="316.888" cy="321.6176" fill="#F1F1F1" rx="102.388" ry="21.9176" style="stroke:#181818;stroke-width:0.3;"/><text fill="#000000" font-family="sans-serif" font-size="8.4" lengthAdjust="spacing" textLength="187.8" x="222.988" y="323.5922">UC5: Generate a team proposal automatically.</text></g><g id="elem_UC6"><ellipse cx="316.7211" cy="378.0442" fill="#F1F1F1" rx="59.0211" ry="13.2442" style="stroke:#181818;stroke-width:0.3;"/><text fill="#000000" font-family="sans-serif" font-size="8.4" lengthAdjust="spacing" textLength="96" x="268.7211" y="380.0188">UC6: Register a vehicle.</text></g><g id="elem_UC7"><ellipse cx="316.8428" cy="430.2086" fill="#F1F1F1" rx="81.3428" ry="17.7086" style="stroke:#181818;stroke-width:0.3;"/><text fill="#000000" font-family="sans-serif" font-size="8.4" lengthAdjust="spacing" textLength="144" x="244.8428" y="432.1832">UC7: Register a vehicle&#8217;s check-up.</text></g><g id="elem_UC8"><ellipse cx="316.6829" cy="490.2366" fill="#F1F1F1" rx="99.4829" ry="21.3366" style="stroke:#181818;stroke-width:0.3;"/><text fill="#000000" font-family="sans-serif" font-size="8.4" lengthAdjust="spacing" textLength="181.8" x="225.7829" y="492.2112">UC8: List the vehicles needing the check-up.</text></g><!--link Human Resources Manager to UC1--><g id="link_Human Resources Manager_UC1"><path d="M72.816,260.772 C78.204,219.972 95.376,135.108 147.6,90.6 C161.814,78.486 175.6589,71.1468 193.6589,65.2848 " fill="none" id="Human Resources Manager-to-UC1" style="stroke:#181818;stroke-width:0.6;"/><polygon fill="#181818" points="197.082,64.17,191.2042,63.5601,194.2295,65.099,192.6906,68.1242,197.082,64.17" style="stroke:#181818;stroke-width:0.6;"/></g><!--link Human Resources Manager to UC2--><g id="link_Human Resources Manager_UC2"><path d="M75.402,260.85 C83.862,227.328 104.604,165.714 147.6,135.6 C182.724,111 228.6683,107.0381 264.9623,108.3281 " fill="none" id="Human Resources Manager-to-UC2" style="stroke:#181818;stroke-width:0.6;"/><polygon fill="#181818" points="268.56,108.456,263.2487,105.8657,265.5619,108.3494,263.0782,110.6627,268.56,108.456" style="stroke:#181818;stroke-width:0.6;"/></g><!--link Human Resources Manager to UC3--><g id="link_Human Resources Manager_UC3"><path d="M93.816,260.718 C108.228,247.626 127.728,231.93 147.6,222 C164.7,213.462 180.187,207.5337 199.021,201.8997 " fill="none" id="Human Resources Manager-to-UC3" style="stroke:#181818;stroke-width:0.6;"/><polygon fill="#181818" points="202.47,200.868,196.6087,200.1163,199.5958,201.7278,197.9843,204.7149,202.47,200.868" style="stroke:#181818;stroke-width:0.6;"/></g><!--link Human Resources Manager to UC4--><g id="link_Human Resources Manager_UC4"><path d="M126.252,277.398 C154.29,274.182 185.4714,270.602 217.5594,266.924 " fill="none" id="Human Resources Manager-to-UC4" style="stroke:#181818;stroke-width:0.6;"/><polygon fill="#181818" points="221.136,266.514,215.4978,264.7445,218.1555,266.8556,216.0444,269.5133,221.136,266.514" style="stroke:#181818;stroke-width:0.6;"/></g><!--link Human Resources Manager to UC5--><g id="link_Human Resources Manager_UC5"><path d="M126.252,292.38 C157.824,297.234 194.3699,302.8545 229.5839,308.2725 " fill="none" id="Human Resources Manager-to-UC5" style="stroke:#181818;stroke-width:0.6;"/><polygon fill="#181818" points="233.142,308.82,228.1698,305.6267,230.1769,308.3638,227.4398,310.3709,233.142,308.82" style="stroke:#181818;stroke-width:0.6;"/></g><!--link Fleet Manager to UC6--><g id="link_Fleet Manager_UC6"><path d="M99.168,353.622 C139.356,358.134 209.5845,366.0242 259.8585,371.6702 " fill="none" id="Fleet Manager-to-UC6" style="stroke:#181818;stroke-width:0.6;"/><polygon fill="#181818" points="263.436,372.072,258.3376,369.0843,260.4547,371.7372,257.8019,373.8544,263.436,372.072" style="stroke:#181818;stroke-width:0.6;"/></g><!--link Fleet Manager to UC7--><g id="link_Fleet Manager_UC7"><path d="M99.102,373.458 C112.986,383.532 130.362,394.578 147.6,401.4 C176.802,412.956 207.0766,419.3819 236.7526,423.5279 " fill="none" id="Fleet Manager-to-UC7" style="stroke:#181818;stroke-width:0.6;"/><polygon fill="#181818" points="240.318,424.026,235.302,420.9019,237.3469,423.6109,234.6379,425.6557,240.318,424.026" style="stroke:#181818;stroke-width:0.6;"/></g><!--link Fleet Manager to UC8--><g id="link_Fleet Manager_UC8"><path d="M80.436,373.422 C92.526,398.508 115.374,437.808 147.6,458.4 C169.062,472.116 191.456,479.5508 216.476,484.2548 " fill="none" id="Fleet Manager-to-UC8" style="stroke:#181818;stroke-width:0.6;"/><polygon fill="#181818" points="220.014,484.92,215.1504,481.5636,217.0657,484.3657,214.2635,486.2809,220.014,484.92" style="stroke:#181818;stroke-width:0.6;"/></g><!--SRC=[ZPF1RjD048Rl-nIZN7mA4acQL3bKAg700OH4nOtBU3ssjrdlMBjhIa2LU0rUZoTXRCTfOj4sFaJUpFz_E__iEWbRushqM475ZdNfkIA8lY7rMAbHRx6WsxYp19vqH5TOKicZ8fIOyRrn1UHe0waZyq7_Iu4yRzXdv3TisKDg1QmUb4gYYOB-6WWsA3zl3HQjz-O7LhNif2pb4IA3DqKP8JCjrB1Jwa27oUqkHAhWMaVsOG8O0BjNw3Vk5Z3vq5Jeu0i5Rhoc09_GIJG_ETQyiqJnj9BiIvzzWSxyn7RtR-v6kkCTKRVRi6W3gSHnf7sxdBV9VC_fsWEJaOicDvH1saG8qLZRrns3PgSzYRsHKMYPHr09kGnQv4dYOLvzMb5tuZxkVYMYpUkrv2sCJCU3d8kr0MA94IhSGKg0TSt6HMb51eookxMOiaVfyrK75i8OEJj28jnnEYXdO-NyH7aCXtiJozuDAF7oncLOoLpGWYxbxcZnYD7eCD3dO_fY3TSXcC81Em9XLkpf4FAfE8invc8DxycHY6GS4Aczyvvh3j8ADf4hEM-Drku6miMOi3o9-PrAeoqDwkLOlVgV-k_lFq62azvEctgmhiRMopLy5AES80t608ueQp- -ziynuL9rY2SlFaodLuSZVaarEqirFqkrE4lLJthqIUvhosTggsTgCf87zGy0]--></g></svg>