<?xml version="1.0" encoding="us-ascii" standalone="no"?><svg xmlns="http://www.w3.org/2000/svg" xmlns:xlink="http://www.w3.org/1999/xlink" contentStyleType="text/css" height="707.4px" preserveAspectRatio="none" style="width:1065px;height:707px;background:#FFFFFF;" version="1.1" viewBox="0 0 1065 707" width="1065px" zoomAndPan="magnify"><defs/><g><text fill="#000000" font-family="sans-serif" font-size="8.4" font-weight="bold" lengthAdjust="spacing" textLength="63" x="496.8" y="14.1211">Domain Model</text><!--cluster Job Requirements Specification Aggregate--><g id="cluster_Job Requirements Specification Aggregate"><rect fill="none" height="142.2" rx="1.5" ry="1.5" style="stroke:#000000;stroke-width:0.8999999999999999;" width="441" x="338.4" y="26.693"/><text fill="#000000" font-family="sans-serif" font-size="8.4" font-weight="bold" lengthAdjust="spacing" textLength="182.4" x="467.7" y="36.0141">Job Requirements Specification Aggregate</text></g><!--cluster Job Opening Aggregate--><g id="cluster_Job Opening Aggregate"><rect fill="none" height="319.8" rx="1.5" ry="1.5" style="stroke:#000000;stroke-width:0.8999999999999999;" width="437.4" x="561.6" y="183.293"/><text fill="#000000" font-family="sans-serif" font-size="8.4" font-weight="bold" lengthAdjust="spacing" textLength="100.8" x="729.9" y="192.6141">Job Opening Aggregate</text></g><!--cluster User Aggregate--><g id="cluster_User Aggregate"><rect fill="none" height="186.6" rx="1.5" ry="1.5" style="stroke:#000000;stroke-width:0.8999999999999999;" width="339.3" x="125.1" y="192.893"/><text fill="#000000" font-family="sans-serif" font-size="8.4" font-weight="bold" lengthAdjust="spacing" textLength="66" x="261.75" y="202.2141">User Aggregate</text></g><!--cluster Application Aggregate--><g id="cluster_Application Aggregate"><rect fill="none" height="186.6" rx="1.5" ry="1.5" style="stroke:#000000;stroke-width:0.8999999999999999;" width="498.9" x="562.5" y="517.493"/><text fill="#000000" font-family="sans-serif" font-size="8.4" font-weight="bold" lengthAdjust="spacing" textLength="96" x="763.95" y="526.8141">Application Aggregate</text></g><!--cluster Candidate Aggregate--><g id="cluster_Candidate Aggregate"><rect fill="none" height="97.8" rx="1.5" ry="1.5" style="stroke:#000000;stroke-width:0.8999999999999999;" width="205.8" x="4.2" y="395.693"/><text fill="#000000" font-family="sans-serif" font-size="8.4" font-weight="bold" lengthAdjust="spacing" textLength="90" x="62.1" y="405.0141">Candidate Aggregate</text></g><!--class JobRequirementsSpecification--><g id="elem_JobRequirementsSpecification"><rect codeLine="27" fill="#F0FFFF" height="37.6523" id="JobRequirementsSpecification" rx="1.5" ry="1.5" style="stroke:#000000;stroke-width:0.3;" width="141.6" x="348" y="121.865"/><ellipse cx="357" cy="138.2911" fill="#ADD1B2" rx="6.6" ry="6.6" style="stroke:#181818;stroke-width:0.6;"/><path d="M359.4686,141.8911 L354.8367,141.8911 L354.8367,134.4553 L359.4686,134.4553 L359.4686,135.7502 L356.306,135.7502 L356.306,137.3539 L359.1697,137.3539 L359.1697,138.6489 L356.306,138.6489 L356.306,140.5962 L359.4686,140.5962 Z " fill="#000000"/><text fill="#000000" font-family="sans-serif" font-size="7.2" font-style="italic" lengthAdjust="spacing" textLength="25.8" x="413.7" y="131.8259">&#171;entity&#187;</text><text fill="#000000" font-family="sans-serif" font-size="7.2" font-style="italic" lengthAdjust="spacing" textLength="21" x="416.1" y="140.3056">&#171;root&#187;</text><text fill="#000000" font-family="sans-serif" font-size="8.4" lengthAdjust="spacing" textLength="122.4" x="365.4" y="149.9454">JobRequirementsSpecification</text><line style="stroke:#000000;stroke-width:0.3;" x1="348.6" x2="489" y1="154.7173" y2="154.7173"/></g><!--class Requirements--><g id="elem_Requirements"><rect codeLine="29" fill="#F0FFFF" height="29.1727" id="Requirements" rx="1.5" ry="1.5" style="stroke:#000000;stroke-width:0.3;" width="76.2" x="567" y="102.707"/><ellipse cx="576" cy="114.8933" fill="#ADD1B2" rx="6.6" ry="6.6" style="stroke:#181818;stroke-width:0.6;"/><path d="M578.4686,118.4933 L573.8367,118.4933 L573.8367,111.0575 L578.4686,111.0575 L578.4686,112.3524 L575.306,112.3524 L575.306,113.9561 L578.1697,113.9561 L578.1697,115.251 L575.306,115.251 L575.306,117.1984 L578.4686,117.1984 Z " fill="#000000"/><text fill="#000000" font-family="sans-serif" font-size="7.2" font-style="italic" lengthAdjust="spacing" textLength="25.8" x="600" y="112.6679">&#171;entity&#187;</text><text fill="#000000" font-family="sans-serif" font-size="8.4" lengthAdjust="spacing" textLength="57" x="584.4" y="122.3078">Requirements</text><line style="stroke:#000000;stroke-width:0.3;" x1="567.6" x2="642.6" y1="127.0796" y2="127.0796"/></g><!--entity YearsOfExperience--><g id="elem_YearsOfExperience"><rect fill="#F0FFDD" height="23.3859" rx="1.5" ry="1.5" style="stroke:#000000;stroke-width:0.3;" width="90" x="679.8" y="136.199"/><text fill="#000000" font-family="sans-serif" font-size="8.4" font-style="italic" lengthAdjust="spacing" textLength="57.6" x="696" y="146.1201">&#171;ValueObject&#187;</text><text fill="#000000" font-family="sans-serif" font-size="8.4" lengthAdjust="spacing" textLength="78" x="685.8" y="156.013">YearsOfExperience</text></g><!--entity AcademicDegree--><g id="elem_AcademicDegree"><rect fill="#F0FFDD" height="23.3859" rx="1.5" ry="1.5" style="stroke:#000000;stroke-width:0.3;" width="81" x="684.3" y="91.799"/><text fill="#000000" font-family="sans-serif" font-size="8.4" font-style="italic" lengthAdjust="spacing" textLength="57.6" x="696" y="101.7201">&#171;ValueObject&#187;</text><text fill="#000000" font-family="sans-serif" font-size="8.4" lengthAdjust="spacing" textLength="69" x="690.3" y="111.613">AcademicDegree</text></g><!--entity Skills--><g id="elem_Skills"><rect fill="#F0FFDD" height="23.3859" rx="1.5" ry="1.5" style="stroke:#000000;stroke-width:0.3;" width="69.6" x="690" y="47.399"/><text fill="#000000" font-family="sans-serif" font-size="8.4" font-style="italic" lengthAdjust="spacing" textLength="57.6" x="696" y="57.3201">&#171;ValueObject&#187;</text><text fill="#000000" font-family="sans-serif" font-size="8.4" lengthAdjust="spacing" textLength="21" x="714.3" y="67.213">Skills</text></g><!--class JobOpening--><g id="elem_JobOpening"><rect codeLine="47" fill="#F0FFFF" height="37.6523" id="JobOpening" rx="1.5" ry="1.5" style="stroke:#000000;stroke-width:0.3;" width="67.8" x="571.2" y="352.265"/><ellipse cx="580.2" cy="368.6911" fill="#ADD1B2" rx="6.6" ry="6.6" style="stroke:#181818;stroke-width:0.6;"/><path d="M582.6686,372.2911 L578.0367,372.2911 L578.0367,364.8553 L582.6686,364.8553 L582.6686,366.1502 L579.506,366.1502 L579.506,367.7539 L582.3697,367.7539 L582.3697,369.0489 L579.506,369.0489 L579.506,370.9962 L582.6686,370.9962 Z " fill="#000000"/><text fill="#000000" font-family="sans-serif" font-size="7.2" font-style="italic" lengthAdjust="spacing" textLength="25.8" x="600" y="362.2259">&#171;entity&#187;</text><text fill="#000000" font-family="sans-serif" font-size="7.2" font-style="italic" lengthAdjust="spacing" textLength="21" x="602.4" y="370.7056">&#171;root&#187;</text><text fill="#000000" font-family="sans-serif" font-size="8.4" lengthAdjust="spacing" textLength="48.6" x="588.6" y="380.3454">JobOpening</text><line style="stroke:#000000;stroke-width:0.3;" x1="571.8" x2="638.4" y1="385.1173" y2="385.1173"/></g><g id="elem_GMN28"><path d="M870,382.511 L870,395.141 L760.884,394.337 L870,399.941 L870,416.07 A0,0 0 0 0 870,416.07 L989.4,416.07 A0,0 0 0 0 989.4,416.07 L989.4,388.511 L983.4,382.511 L870,382.511 A0,0 0 0 0 870,382.511 " fill="#FEFFDD" style="stroke:#181818;stroke-width:0.3;"/><path d="M983.4,382.511 L983.4,388.511 L989.4,388.511 L983.4,382.511 " fill="#FEFFDD" style="stroke:#181818;stroke-width:0.3;"/><text fill="#000000" font-family="sans-serif" font-size="7.8" lengthAdjust="spacing" textLength="106.8" x="873.6" y="393.052">Can be one of the following:</text><text fill="#000000" font-family="sans-serif" font-size="7.8" lengthAdjust="spacing" textLength="41.4" x="873.6" y="402.2383">- full-time</text><text fill="#000000" font-family="sans-serif" font-size="7.8" lengthAdjust="spacing" textLength="43.8" x="873.6" y="411.4246">- part-time</text></g><g id="elem_GMN31"><path d="M870,318.521 L870,340.115 L760.884,347.327 L870,344.915 L870,361.2663 A0,0 0 0 0 870,361.2663 L989.4,361.2663 A0,0 0 0 0 989.4,361.2663 L989.4,324.521 L983.4,318.521 L870,318.521 A0,0 0 0 0 870,318.521 " fill="#FEFFDD" style="stroke:#181818;stroke-width:0.3;"/><path d="M983.4,318.521 L983.4,324.521 L989.4,324.521 L983.4,318.521 " fill="#FEFFDD" style="stroke:#181818;stroke-width:0.3;"/><text fill="#000000" font-family="sans-serif" font-size="7.8" lengthAdjust="spacing" textLength="106.8" x="873.6" y="329.062">Can be one of the following:</text><text fill="#000000" font-family="sans-serif" font-size="7.8" lengthAdjust="spacing" textLength="33.6" x="873.6" y="338.2483">- remote</text><text fill="#000000" font-family="sans-serif" font-size="7.8" lengthAdjust="spacing" textLength="31.2" x="873.6" y="347.4346">- hybrid</text><text fill="#000000" font-family="sans-serif" font-size="7.8" lengthAdjust="spacing" textLength="30.6" x="873.6" y="356.621">- onsite</text></g><!--entity JobReference--><g id="elem_JobReference"><rect fill="#F0FFDD" height="23.3859" rx="1.5" ry="1.5" style="stroke:#000000;stroke-width:0.3;" width="72" x="688.8" y="470.399"/><text fill="#000000" font-family="sans-serif" font-size="8.4" font-style="italic" lengthAdjust="spacing" textLength="60" x="694.8" y="480.3201">&#171;Value Object&#187;</text><text fill="#000000" font-family="sans-serif" font-size="8.4" lengthAdjust="spacing" textLength="54" x="697.8" y="490.213">JobReference</text></g><!--entity TitleOrFunction--><g id="elem_TitleOrFunction"><rect fill="#F0FFDD" height="23.3859" rx="1.5" ry="1.5" style="stroke:#000000;stroke-width:0.3;" width="76.2" x="686.7" y="425.999"/><text fill="#000000" font-family="sans-serif" font-size="8.4" font-style="italic" lengthAdjust="spacing" textLength="60" x="694.8" y="435.9201">&#171;Value Object&#187;</text><text fill="#000000" font-family="sans-serif" font-size="8.4" lengthAdjust="spacing" textLength="64.2" x="692.7" y="445.813">TitleOrFunction</text></g><!--entity ContractType--><g id="elem_ContractType"><rect fill="#F0FFDD" height="23.3859" rx="1.5" ry="1.5" style="stroke:#000000;stroke-width:0.3;" width="72" x="688.8" y="381.599"/><text fill="#000000" font-family="sans-serif" font-size="8.4" font-style="italic" lengthAdjust="spacing" textLength="60" x="694.8" y="391.5201">&#171;Value Object&#187;</text><text fill="#000000" font-family="sans-serif" font-size="8.4" lengthAdjust="spacing" textLength="55.2" x="697.2" y="401.413">ContractType</text></g><!--entity Mode--><g id="elem_Mode"><rect fill="#F0FFDD" height="23.3859" rx="1.5" ry="1.5" style="stroke:#000000;stroke-width:0.3;" width="72" x="688.8" y="337.199"/><text fill="#000000" font-family="sans-serif" font-size="8.4" font-style="italic" lengthAdjust="spacing" textLength="60" x="694.8" y="347.1201">&#171;Value Object&#187;</text><text fill="#000000" font-family="sans-serif" font-size="8.4" lengthAdjust="spacing" textLength="22.8" x="713.4" y="357.013">Mode</text></g><!--entity Address--><g id="elem_Address"><rect fill="#F0FFDD" height="23.3859" rx="1.5" ry="1.5" style="stroke:#000000;stroke-width:0.3;" width="72" x="688.8" y="292.799"/><text fill="#000000" font-family="sans-serif" font-size="8.4" font-style="italic" lengthAdjust="spacing" textLength="60" x="694.8" y="302.7201">&#171;Value Object&#187;</text><text fill="#000000" font-family="sans-serif" font-size="8.4" lengthAdjust="spacing" textLength="33.6" x="708" y="312.613">Address</text></g><!--entity VacanciesNumber--><g id="elem_VacanciesNumber"><rect fill="#F0FFDD" height="23.3859" rx="1.5" ry="1.5" style="stroke:#000000;stroke-width:0.3;" width="85.2" x="682.2" y="248.399"/><text fill="#000000" font-family="sans-serif" font-size="8.4" font-style="italic" lengthAdjust="spacing" textLength="60" x="694.8" y="258.3201">&#171;Value Object&#187;</text><text fill="#000000" font-family="sans-serif" font-size="8.4" lengthAdjust="spacing" textLength="73.2" x="688.2" y="268.213">VacanciesNumber</text></g><!--entity Description--><g id="elem_Description"><rect fill="#F0FFDD" height="23.3859" rx="1.5" ry="1.5" style="stroke:#000000;stroke-width:0.3;" width="72" x="688.8" y="203.999"/><text fill="#000000" font-family="sans-serif" font-size="8.4" font-style="italic" lengthAdjust="spacing" textLength="60" x="694.8" y="213.9201">&#171;Value Object&#187;</text><text fill="#000000" font-family="sans-serif" font-size="8.4" lengthAdjust="spacing" textLength="46.8" x="701.4" y="223.813">Description</text></g><!--class User--><g id="elem_User"><rect codeLine="88" fill="#F0FFFF" height="37.6523" id="User" rx="1.5" ry="1.5" style="stroke:#000000;stroke-width:0.3;" width="42.6" x="134.7" y="313.865"/><ellipse cx="143.7" cy="330.2911" fill="#ADD1B2" rx="6.6" ry="6.6" style="stroke:#181818;stroke-width:0.6;"/><path d="M146.1686,333.8911 L141.5367,333.8911 L141.5367,326.4553 L146.1686,326.4553 L146.1686,327.7502 L143.006,327.7502 L143.006,329.3539 L145.8697,329.3539 L145.8697,330.6489 L143.006,330.6489 L143.006,332.5962 L146.1686,332.5962 Z " fill="#000000"/><text fill="#000000" font-family="sans-serif" font-size="7.2" font-style="italic" lengthAdjust="spacing" textLength="25.8" x="150.9" y="323.8259">&#171;entity&#187;</text><text fill="#000000" font-family="sans-serif" font-size="7.2" font-style="italic" lengthAdjust="spacing" textLength="21" x="153.3" y="332.3056">&#171;root&#187;</text><text fill="#000000" font-family="sans-serif" font-size="8.4" lengthAdjust="spacing" textLength="18.6" x="154.5" y="341.9454">User</text><line style="stroke:#000000;stroke-width:0.3;" x1="135.3" x2="176.7" y1="346.7173" y2="346.7173"/></g><!--entity UserEmail--><g id="elem_UserEmail"><rect fill="#F0FFDD" height="23.3859" rx="1.5" ry="1.5" style="stroke:#000000;stroke-width:0.3;" width="72" x="382.8" y="346.799"/><text fill="#000000" font-family="sans-serif" font-size="8.4" font-style="italic" lengthAdjust="spacing" textLength="60" x="388.8" y="356.7201">&#171;Value Object&#187;</text><text fill="#000000" font-family="sans-serif" font-size="8.4" lengthAdjust="spacing" textLength="40.8" x="398.4" y="366.613">UserEmail</text></g><!--entity UserName--><g id="elem_UserName"><rect fill="#F0FFDD" height="23.3859" rx="1.5" ry="1.5" style="stroke:#000000;stroke-width:0.3;" width="72" x="382.8" y="302.399"/><text fill="#000000" font-family="sans-serif" font-size="8.4" font-style="italic" lengthAdjust="spacing" textLength="60" x="388.8" y="312.3201">&#171;Value Object&#187;</text><text fill="#000000" font-family="sans-serif" font-size="8.4" lengthAdjust="spacing" textLength="42" x="397.8" y="322.213">UserName</text></g><!--entity UserPassword--><g id="elem_UserPassword"><rect fill="#F0FFDD" height="23.3859" rx="1.5" ry="1.5" style="stroke:#000000;stroke-width:0.3;" width="72" x="382.8" y="257.999"/><text fill="#000000" font-family="sans-serif" font-size="8.4" font-style="italic" lengthAdjust="spacing" textLength="60" x="388.8" y="267.9201">&#171;Value Object&#187;</text><text fill="#000000" font-family="sans-serif" font-size="8.4" lengthAdjust="spacing" textLength="57.6" x="390" y="277.813">UserPassword</text></g><!--entity Username--><g id="elem_Username"><rect fill="#F0FFDD" height="23.3859" rx="1.5" ry="1.5" style="stroke:#000000;stroke-width:0.3;" width="72" x="382.8" y="213.599"/><text fill="#000000" font-family="sans-serif" font-size="8.4" font-style="italic" lengthAdjust="spacing" textLength="60" x="388.8" y="223.5201">&#171;Value Object&#187;</text><text fill="#000000" font-family="sans-serif" font-size="8.4" lengthAdjust="spacing" textLength="41.4" x="398.1" y="233.413">Username</text></g><!--class Application--><g id="elem_Application"><rect codeLine="107" fill="#F0FFFF" height="37.6523" id="Application" rx="1.5" ry="1.5" style="stroke:#000000;stroke-width:0.3;" width="66" x="572.1" y="538.265"/><ellipse cx="581.1" cy="554.6911" fill="#ADD1B2" rx="6.6" ry="6.6" style="stroke:#181818;stroke-width:0.6;"/><path d="M583.5686,558.2911 L578.9367,558.2911 L578.9367,550.8553 L583.5686,550.8553 L583.5686,552.1502 L580.406,552.1502 L580.406,553.7539 L583.2697,553.7539 L583.2697,555.0489 L580.406,555.0489 L580.406,556.9962 L583.5686,556.9962 Z " fill="#000000"/><text fill="#000000" font-family="sans-serif" font-size="7.2" font-style="italic" lengthAdjust="spacing" textLength="25.8" x="600" y="548.2259">&#171;entity&#187;</text><text fill="#000000" font-family="sans-serif" font-size="7.2" font-style="italic" lengthAdjust="spacing" textLength="21" x="602.4" y="556.7056">&#171;root&#187;</text><text fill="#000000" font-family="sans-serif" font-size="8.4" lengthAdjust="spacing" textLength="46.8" x="589.5" y="566.3454">Application</text><line style="stroke:#000000;stroke-width:0.3;" x1="572.7" x2="637.5" y1="571.1173" y2="571.1173"/></g><g id="elem_GMN54"><path d="M870,569.525 L870,605.687 L760.884,631.169 L870,610.487 L870,621.4566 A0,0 0 0 0 870,621.4566 L989.4,621.4566 A0,0 0 0 0 989.4,621.4566 L989.4,575.525 L983.4,569.525 L870,569.525 A0,0 0 0 0 870,569.525 " fill="#FEFFDD" style="stroke:#181818;stroke-width:0.3;"/><path d="M983.4,569.525 L983.4,575.525 L989.4,575.525 L983.4,569.525 " fill="#FEFFDD" style="stroke:#181818;stroke-width:0.3;"/><text fill="#000000" font-family="sans-serif" font-size="7.8" lengthAdjust="spacing" textLength="106.8" x="873.6" y="580.066">Can be one of the following:</text><text fill="#000000" font-family="sans-serif" font-size="7.8" lengthAdjust="spacing" textLength="45.6" x="873.6" y="589.2523">- submitted</text><text fill="#000000" font-family="sans-serif" font-size="7.8" lengthAdjust="spacing" textLength="37.8" x="873.6" y="598.4386">- pending</text><text fill="#000000" font-family="sans-serif" font-size="7.8" lengthAdjust="spacing" textLength="40.8" x="873.6" y="607.625">- accepted</text><text fill="#000000" font-family="sans-serif" font-size="7.8" lengthAdjust="spacing" textLength="39" x="873.6" y="616.8113">- declined</text></g><g id="elem_GMN57"><path d="M807.6,642.725 L807.6,674.897 L763.716,680.387 L807.6,679.697 L807.6,694.6566 A0,0 0 0 0 807.6,694.6566 L1051.8,694.6566 A0,0 0 0 0 1051.8,694.6566 L1051.8,648.725 L1045.8,642.725 L807.6,642.725 A0,0 0 0 0 807.6,642.725 " fill="#FEFFDD" style="stroke:#181818;stroke-width:0.3;"/><path d="M1045.8,642.725 L1045.8,648.725 L1051.8,648.725 L1045.8,642.725 " fill="#FEFFDD" style="stroke:#181818;stroke-width:0.3;"/><text fill="#000000" font-family="sans-serif" font-size="7.8" lengthAdjust="spacing" textLength="106.8" x="811.2" y="653.266">Can be one of the following:</text><text fill="#000000" font-family="sans-serif" font-size="7.8" lengthAdjust="spacing" textLength="152.4" x="811.2" y="662.4523">- text file with the contents of the email</text><text fill="#000000" font-family="sans-serif" font-size="7.8" lengthAdjust="spacing" textLength="148.8" x="811.2" y="671.6386">- file for each file attached to the email</text><text fill="#000000" font-family="sans-serif" font-size="7.8" lengthAdjust="spacing" textLength="231.6" x="811.2" y="680.825">- text file with the contents of each file attached to the email</text><text fill="#000000" font-family="sans-serif" font-size="7.8" lengthAdjust="spacing" textLength="212.4" x="811.2" y="690.0113">- text file with the data of the application and candidate</text></g><!--entity ApplicationFiles--><g id="elem_ApplicationFiles"><rect fill="#F0FFDD" height="23.3859" rx="1.5" ry="1.5" style="stroke:#000000;stroke-width:0.3;" width="77.4" x="686.1" y="671.399"/><text fill="#000000" font-family="sans-serif" font-size="8.4" font-style="italic" lengthAdjust="spacing" textLength="60" x="694.8" y="681.3201">&#171;Value Object&#187;</text><text fill="#000000" font-family="sans-serif" font-size="8.4" lengthAdjust="spacing" textLength="65.4" x="692.1" y="691.213">ApplicationFiles</text></g><!--entity Status--><g id="elem_Status"><rect fill="#F0FFDD" height="23.3859" rx="1.5" ry="1.5" style="stroke:#000000;stroke-width:0.3;" width="72" x="688.8" y="626.999"/><text fill="#000000" font-family="sans-serif" font-size="8.4" font-style="italic" lengthAdjust="spacing" textLength="60" x="694.8" y="636.9201">&#171;Value Object&#187;</text><text fill="#000000" font-family="sans-serif" font-size="8.4" lengthAdjust="spacing" textLength="25.2" x="712.2" y="646.813">Status</text></g><!--entity SubmissionDate--><g id="elem_SubmissionDate"><rect fill="#F0FFDD" height="23.3859" rx="1.5" ry="1.5" style="stroke:#000000;stroke-width:0.3;" width="78" x="685.8" y="582.599"/><text fill="#000000" font-family="sans-serif" font-size="8.4" font-style="italic" lengthAdjust="spacing" textLength="60" x="694.8" y="592.5201">&#171;Value Object&#187;</text><text fill="#000000" font-family="sans-serif" font-size="8.4" lengthAdjust="spacing" textLength="66" x="691.8" y="602.413">SubmissionDate</text></g><!--entity Rank--><g id="elem_Rank"><rect fill="#F0FFDD" height="23.3859" rx="1.5" ry="1.5" style="stroke:#000000;stroke-width:0.3;" width="72" x="688.8" y="538.199"/><text fill="#000000" font-family="sans-serif" font-size="8.4" font-style="italic" lengthAdjust="spacing" textLength="60" x="694.8" y="548.1201">&#171;Value Object&#187;</text><text fill="#000000" font-family="sans-serif" font-size="8.4" lengthAdjust="spacing" textLength="20.4" x="714.6" y="558.013">Rank</text></g><!--class Candidate--><g id="elem_Candidate"><rect codeLine="142" fill="#F0FFFF" height="37.6523" id="Candidate" rx="1.5" ry="1.5" style="stroke:#000000;stroke-width:0.3;" width="61.2" x="13.8" y="431.465"/><ellipse cx="22.8" cy="447.8911" fill="#ADD1B2" rx="6.6" ry="6.6" style="stroke:#181818;stroke-width:0.6;"/><path d="M25.2686,451.4911 L20.6367,451.4911 L20.6367,444.0553 L25.2686,444.0553 L25.2686,445.3502 L22.106,445.3502 L22.106,446.9539 L24.9697,446.9539 L24.9697,448.2489 L22.106,448.2489 L22.106,450.1962 L25.2686,450.1962 Z " fill="#000000"/><text fill="#000000" font-family="sans-serif" font-size="7.2" font-style="italic" lengthAdjust="spacing" textLength="25.8" x="39.3" y="441.4259">&#171;entity&#187;</text><text fill="#000000" font-family="sans-serif" font-size="7.2" font-style="italic" lengthAdjust="spacing" textLength="21" x="41.7" y="449.9056">&#171;root&#187;</text><text fill="#000000" font-family="sans-serif" font-size="8.4" lengthAdjust="spacing" textLength="42" x="31.2" y="459.5454">Candidate</text><line style="stroke:#000000;stroke-width:0.3;" x1="14.4" x2="74.4" y1="464.3173" y2="464.3173"/></g><!--entity Curriculum--><g id="elem_Curriculum"><rect fill="#F0FFDD" height="23.3859" rx="1.5" ry="1.5" style="stroke:#000000;stroke-width:0.3;" width="72" x="120" y="460.799"/><text fill="#000000" font-family="sans-serif" font-size="8.4" font-style="italic" lengthAdjust="spacing" textLength="60" x="126" y="470.7201">&#171;Value Object&#187;</text><text fill="#000000" font-family="sans-serif" font-size="8.4" lengthAdjust="spacing" textLength="46.2" x="132.9" y="480.613">Curriculum</text></g><!--entity TelephoneNumber--><g id="elem_TelephoneNumber"><rect fill="#F0FFDD" height="23.3859" rx="1.5" ry="1.5" style="stroke:#000000;stroke-width:0.3;" width="88.8" x="111.6" y="416.399"/><text fill="#000000" font-family="sans-serif" font-size="8.4" font-style="italic" lengthAdjust="spacing" textLength="60" x="126" y="426.3201">&#171;Value Object&#187;</text><text fill="#000000" font-family="sans-serif" font-size="8.4" lengthAdjust="spacing" textLength="76.8" x="117.6" y="436.213">TelephoneNumber</text></g><!--link Requirements to YearsOfExperience--><g id="link_Requirements_YearsOfExperience"><path codeLine="38" d="M643.356,127.019 C654.876,129.995 664.1761,132.3959 676.1101,135.4739 " fill="none" id="Requirements-to-YearsOfExperience" style="stroke:#808080;stroke-width:0.6;"/><polygon fill="#808080" points="679.596,136.373,674.9665,132.7004,676.6911,135.6237,673.7677,137.3483,679.596,136.373" style="stroke:#808080;stroke-width:0.6;"/></g><!--link Requirements to AcademicDegree--><g id="link_Requirements_AcademicDegree"><path codeLine="39" d="M643.356,112.907 C656.37,111.395 667.4161,110.1073 680.6101,108.5713 " fill="none" id="Requirements-to-AcademicDegree" style="stroke:#808080;stroke-width:0.6;"/><polygon fill="#808080" points="684.186,108.155,678.5447,106.3955,681.2061,108.5019,679.0998,111.1633,684.186,108.155" style="stroke:#808080;stroke-width:0.6;"/></g><!--link Requirements to Skills--><g id="link_Requirements_Skills"><path codeLine="40" d="M635.91,102.455 C655.728,92.723 678.0682,81.745 696.5902,72.655 " fill="none" id="Requirements-to-Skills" style="stroke:#808080;stroke-width:0.6;"/><polygon fill="#808080" points="699.822,71.069,693.917,71.2935,697.1288,72.3907,696.0317,75.6026,699.822,71.069" style="stroke:#808080;stroke-width:0.6;"/></g><!--link JobRequirementsSpecification to Requirements--><g id="link_JobRequirementsSpecification_Requirements"><path codeLine="42" d="M489.642,131.813 C515.826,128.501 540.9644,125.3224 563.1344,122.5204 " fill="none" id="JobRequirementsSpecification-to-Requirements" style="stroke:#808080;stroke-width:0.6;"/><polygon fill="#808080" points="566.706,122.069,561.0477,120.365,563.7297,122.4451,561.6496,125.1271,566.706,122.069" style="stroke:#808080;stroke-width:0.6;"/></g><!--link JobOpening to JobReference--><g id="link_JobOpening_JobReference"><path codeLine="64" d="M618.018,390.053 C631.398,409.505 654.294,439.703 679.8,459.893 C684.666,463.745 687.123,465.5011 692.721,468.4591 " fill="none" id="JobOpening-to-JobReference" style="stroke:#808080;stroke-width:0.6;"/><polygon fill="#808080" points="695.904,470.141,692.2508,465.4962,693.2515,468.7394,690.0083,469.7401,695.904,470.141" style="stroke:#808080;stroke-width:0.6;"/></g><!--link JobOpening to TitleOrFunction--><g id="link_JobOpening_TitleOrFunction"><path codeLine="65" d="M636.402,390.203 C649.62,398.243 665.334,407.561 679.8,415.493 C686.148,418.973 689.8893,420.9486 696.3813,424.2006 " fill="none" id="JobOpening-to-TitleOrFunction" style="stroke:#808080;stroke-width:0.6;"/><polygon fill="#808080" points="699.6,425.813,695.8468,421.2486,696.9177,424.4693,693.697,425.5403,699.6,425.813" style="stroke:#808080;stroke-width:0.6;"/></g><!--link JobOpening to ContractType--><g id="link_JobOpening_ContractType"><path codeLine="66" d="M639.18,377.363 C654.582,380.249 669.3256,383.012 684.9856,385.946 " fill="none" id="JobOpening-to-ContractType" style="stroke:#808080;stroke-width:0.6;"/><polygon fill="#808080" points="688.524,386.609,683.6583,383.2556,685.5753,386.0565,682.7744,387.9735,688.524,386.609" style="stroke:#808080;stroke-width:0.6;"/></g><!--link JobOpening to Mode--><g id="link_JobOpening_Mode"><path codeLine="67" d="M639.18,364.823 C654.582,361.937 669.3256,359.1739 684.9856,356.2399 " fill="none" id="JobOpening-to-Mode" style="stroke:#808080;stroke-width:0.6;"/><polygon fill="#808080" points="688.524,355.577,682.7744,354.2124,685.5753,356.1294,683.6583,358.9303,688.524,355.577" style="stroke:#808080;stroke-width:0.6;"/></g><!--link JobOpening to Address--><g id="link_JobOpening_Address"><path codeLine="68" d="M636.402,351.983 C649.62,343.943 665.334,334.625 679.8,326.693 C686.148,323.213 689.8893,321.2373 696.3813,317.9853 " fill="none" id="JobOpening-to-Address" style="stroke:#808080;stroke-width:0.6;"/><polygon fill="#808080" points="699.6,316.373,693.697,316.6457,696.9177,317.7166,695.8468,320.9373,699.6,316.373" style="stroke:#808080;stroke-width:0.6;"/></g><!--link JobOpening to VacanciesNumber--><g id="link_JobOpening_VacanciesNumber"><path codeLine="69" d="M618.018,352.133 C631.398,332.681 654.294,302.483 679.8,282.293 C684.666,278.441 687.123,276.6849 692.721,273.7269 " fill="none" id="JobOpening-to-VacanciesNumber" style="stroke:#808080;stroke-width:0.6;"/><polygon fill="#808080" points="695.904,272.045,690.0083,272.4458,693.2515,273.4465,692.2508,276.6898,695.904,272.045" style="stroke:#808080;stroke-width:0.6;"/></g><!--link JobOpening to Description--><g id="link_JobOpening_Description"><path codeLine="70" d="M612.144,352.019 C622.482,323.879 645.192,271.007 679.8,237.893 C683.97,233.903 685.8622,232.2346 691.0102,229.3546 " fill="none" id="JobOpening-to-Description" style="stroke:#808080;stroke-width:0.6;"/><polygon fill="#808080" points="694.152,227.597,688.2676,228.1389,691.5339,229.0617,690.6111,232.3279,694.152,227.597" style="stroke:#808080;stroke-width:0.6;"/></g><!--link User to UserEmail--><g id="link_User_UserEmail"><path codeLine="99" d="M177.564,334.763 C222.246,339.167 323.6754,349.1696 379.0314,354.6296 " fill="none" id="User-to-UserEmail" style="stroke:#808080;stroke-width:0.6;"/><polygon fill="#808080" points="382.614,354.983,377.4757,352.0645,379.6285,354.6885,377.0045,356.8413,382.614,354.983" style="stroke:#808080;stroke-width:0.6;"/></g><!--link User to UserName--><g id="link_User_UserName"><path codeLine="100" d="M177.564,331.205 C222.246,328.025 323.6671,320.8163 379.0231,316.8803 " fill="none" id="User-to-UserName" style="stroke:#808080;stroke-width:0.6;"/><polygon fill="#808080" points="382.614,316.625,377.0574,314.614,379.6216,316.8377,377.3978,319.4019,382.614,316.625" style="stroke:#808080;stroke-width:0.6;"/></g><!--link User to Username--><g id="link_User_Username"><path codeLine="101" d="M177.456,321.413 C189.66,314.903 205.41,306.653 219.6,299.693 C269.634,275.153 281.118,266.237 333.6,247.493 C349.404,241.847 363.8303,237.8052 379.0943,234.0492 " fill="none" id="User-to-Username" style="stroke:#808080;stroke-width:0.6;"/><polygon fill="#808080" points="382.59,233.189,376.773,232.1488,379.6769,233.9058,377.9199,236.8097,382.59,233.189" style="stroke:#808080;stroke-width:0.6;"/></g><!--link User to UserPassword--><g id="link_User_UserPassword"><path codeLine="102" d="M177.564,327.641 C222.246,316.883 323.7581,292.4359 379.1141,279.1039 " fill="none" id="User-to-UserPassword" style="stroke:#808080;stroke-width:0.6;"/><polygon fill="#808080" points="382.614,278.261,376.8022,277.1921,379.6974,278.9634,377.9261,281.8586,382.614,278.261" style="stroke:#808080;stroke-width:0.6;"/></g><!--link Application to ApplicationFiles--><g id="link_Application_ApplicationFiles"><path codeLine="118" d="M615.48,576.083 C627.9,598.685 651.186,636.437 679.8,660.893 C684.384,664.811 686.6146,666.5416 692.0386,669.4636 " fill="none" id="Application-to-ApplicationFiles" style="stroke:#808080;stroke-width:0.6;"/><polygon fill="#808080" points="695.208,671.171,691.5922,666.497,692.5669,669.7481,689.3157,670.7228,695.208,671.171" style="stroke:#808080;stroke-width:0.6;"/></g><!--link Application to Status--><g id="link_Application_Status"><path codeLine="119" d="M626.994,576.179 C641.328,588.509 660.99,604.445 679.8,616.493 C685.536,620.165 688.7436,622.062 694.8876,625.17 " fill="none" id="Application-to-Status" style="stroke:#808080;stroke-width:0.6;"/><polygon fill="#808080" points="698.1,626.795,694.3648,622.2159,695.423,625.4408,692.1981,626.499,698.1,626.795" style="stroke:#808080;stroke-width:0.6;"/></g><!--link Application to SubmissionDate--><g id="link_Application_SubmissionDate"><path codeLine="120" d="M638.394,567.359 C653.19,572.003 667.3413,576.4446 682.7253,581.2746 " fill="none" id="Application-to-SubmissionDate" style="stroke:#808080;stroke-width:0.6;"/><polygon fill="#808080" points="686.16,582.353,681.7269,578.4456,683.2978,581.4543,680.289,583.0252,686.16,582.353" style="stroke:#808080;stroke-width:0.6;"/></g><!--link Application to Rank--><g id="link_Application_Rank"><path codeLine="121" d="M638.394,555.107 C654.012,554.159 669.1447,553.2377 685.1107,552.2657 " fill="none" id="Application-to-Rank" style="stroke:#808080;stroke-width:0.6;"/><polygon fill="#808080" points="688.704,552.047,683.1681,549.9795,685.7095,552.2293,683.4598,554.7707,688.704,552.047" style="stroke:#808080;stroke-width:0.6;"/></g><!--link Candidate to Curriculum--><g id="link_Candidate_Curriculum"><path codeLine="149" d="M75.168,456.359 C88.956,459.131 101.8605,461.7278 116.2545,464.6198 " fill="none" id="Candidate-to-Curriculum" style="stroke:#808080;stroke-width:0.6;"/><polygon fill="#808080" points="119.784,465.329,114.9626,461.9123,116.8428,464.738,114.017,466.6183,119.784,465.329" style="stroke:#808080;stroke-width:0.6;"/></g><!--link Candidate to TelephoneNumber--><g id="link_Candidate_TelephoneNumber"><path codeLine="150" d="M75.168,444.227 C86.34,441.983 95.7165,440.094 107.8725,437.652 " fill="none" id="Candidate-to-TelephoneNumber" style="stroke:#808080;stroke-width:0.6;"/><polygon fill="#808080" points="111.402,436.943,105.6351,435.6535,108.4608,437.5338,106.5805,440.3595,111.402,436.943" style="stroke:#808080;stroke-width:0.6;"/></g><!--reverse link JobOpening to Application--><g id="link_JobOpening_Application"><path codeLine="153" d="M605.1,393.557 C605.1,429.173 605.1,502.325 605.1,538.061 " fill="none" id="JobOpening-backto-Application" style="stroke:#808080;stroke-width:0.6;"/><polygon fill="#808080" points="605.1,389.957,602.7,395.357,605.1,392.957,607.5,395.357,605.1,389.957" style="stroke:#808080;stroke-width:0.6;"/><text fill="#000000" font-family="sans-serif" font-size="7.8" lengthAdjust="spacing" textLength="13.2" x="591.6" y="467.134">has</text><text fill="#000000" font-family="sans-serif" font-size="7.8" lengthAdjust="spacing" textLength="4.8" x="599.805" y="402.3364">1</text><text fill="#000000" font-family="sans-serif" font-size="7.8" lengthAdjust="spacing" textLength="6" x="595.8338" y="531.7681">N</text></g><!--link Application to Candidate--><g id="link_Application_Candidate"><path codeLine="154" d="M571.86,558.029 C491.046,559.289 276.27,556.103 111.6,494.693 C95.844,488.819 82.9858,480.7372 70.7638,471.5692 " fill="none" id="Application-to-Candidate" style="stroke:#808080;stroke-width:0.6;"/><polygon fill="#808080" points="67.884,469.409,70.7636,474.5692,70.2839,471.2092,73.6439,470.7294,67.884,469.409" style="stroke:#808080;stroke-width:0.6;"/><text fill="#000000" font-family="sans-serif" font-size="7.8" lengthAdjust="spacing" textLength="6" x="561.2168" y="566.2786">N</text><text fill="#000000" font-family="sans-serif" font-size="7.8" lengthAdjust="spacing" textLength="4.8" x="67.1031" y="481.4699">1</text></g><!--reverse link JobRequirementsSpecification to JobOpening--><g id="link_JobRequirementsSpecification_JobOpening"><path codeLine="155" d="M445.8683,162.1018 C460.1123,174.1318 475.41,188.081 489.6,204.293 C532.908,253.775 574.254,319.967 593.394,352.055 " fill="none" id="JobRequirementsSpecification-backto-JobOpening" style="stroke:#808080;stroke-width:0.6;"/><polygon fill="#808080" points="443.118,159.779,445.6949,165.0968,445.41,161.7147,448.7921,161.4297,443.118,159.779" style="stroke:#808080;stroke-width:0.6;"/><text fill="#000000" font-family="sans-serif" font-size="7.8" lengthAdjust="spacing" textLength="40.2" x="508.2" y="228.034">associated</text><text fill="#000000" font-family="sans-serif" font-size="7.8" lengthAdjust="spacing" textLength="4.8" x="442.4961" y="171.8342">1</text><text fill="#000000" font-family="sans-serif" font-size="7.8" lengthAdjust="spacing" textLength="6" x="584.3609" y="345.7609">N</text></g><!--link User to JobOpening--><g id="link_User_JobOpening"><path codeLine="156" d="M177.564,339.995 C189.804,344.231 205.554,349.631 219.6,354.293 C270.102,371.057 281.028,382.661 333.6,390.893 C402.096,401.621 420.516,396.803 489.6,390.893 C517.23,388.529 544.6673,383.7398 567.4793,379.1318 " fill="none" id="User-to-JobOpening" style="stroke:#808080;stroke-width:0.6;"/><polygon fill="#808080" points="571.008,378.419,565.2397,377.1357,568.0674,379.013,566.1901,381.8407,571.008,378.419" style="stroke:#808080;stroke-width:0.6;"/><polygon fill="#000000" points="366.885,386.1857,361.6612,383.8892,361.309,387.3983,366.885,386.1857" style="stroke:#000000;stroke-width:0.6;"/><text fill="#000000" font-family="sans-serif" font-size="7.8" lengthAdjust="spacing" textLength="106.8" x="369.3" y="388.834">Customer Manager manages</text><text fill="#000000" font-family="sans-serif" font-size="7.8" lengthAdjust="spacing" textLength="4.8" x="182.1321" y="349.8038">1</text><text fill="#000000" font-family="sans-serif" font-size="7.8" lengthAdjust="spacing" textLength="6" x="560.4874" y="387.4129">N</text></g><!--link User to Application--><g id="link_User_Application"><path codeLine="158" d="M172.14,351.563 C184.032,365.069 201.426,382.943 219.6,395.093 C351.63,483.389 402.624,472.037 549,533.693 C556.422,536.819 561.0787,538.7807 568.6087,541.9547 " fill="none" id="User-to-Application" style="stroke:#808080;stroke-width:0.6;"/><polygon fill="#808080" points="571.926,543.353,567.8822,539.044,569.1616,542.1877,566.0178,543.4671,571.926,543.353" style="stroke:#808080;stroke-width:0.6;"/><polygon fill="#000000" points="385.8043,454.3848,381.6755,450.4459,380.1488,453.6251,385.8043,454.3848" style="stroke:#000000;stroke-width:0.6;"/><text fill="#000000" font-family="sans-serif" font-size="7.8" lengthAdjust="spacing" textLength="68.4" x="388.5" y="456.034">Operator registers</text><text fill="#000000" font-family="sans-serif" font-size="7.8" lengthAdjust="spacing" textLength="4.8" x="170.1739" y="363.9436">1</text><text fill="#000000" font-family="sans-serif" font-size="7.8" lengthAdjust="spacing" textLength="6" x="561.2912" y="549.7223">N</text></g><!--link User to JobRequirementsSpecification--><g id="link_User_JobRequirementsSpecification"><path codeLine="160" d="M173.58,313.721 C185.754,300.635 202.89,283.223 219.6,269.693 C273.834,225.767 340.3478,185.1795 381.1118,161.5995 " fill="none" id="User-to-JobRequirementsSpecification" style="stroke:#808080;stroke-width:0.6;"/><polygon fill="#808080" points="384.228,159.797,378.352,160.4234,381.6312,161.2991,380.7554,164.5783,384.228,159.797" style="stroke:#808080;stroke-width:0.6;"/><polygon fill="#000000" points="225.0196,189.1126,219.6,190.8988,221.685,193.7432,225.0196,189.1126" style="stroke:#000000;stroke-width:0.6;"/><text fill="#000000" font-family="sans-serif" font-size="7.8" lengthAdjust="spacing" textLength="100.2" x="228" y="193.834">Language Engineer creates</text><text fill="#000000" font-family="sans-serif" font-size="7.8" lengthAdjust="spacing" textLength="4.8" x="171.9109" y="307.4405">1</text><text fill="#000000" font-family="sans-serif" font-size="7.8" lengthAdjust="spacing" textLength="6" x="371.0658" y="171.8556">N</text></g><!--link Candidate to User--><g id="link_Candidate_User"><path codeLine="161" d="M62.736,431.399 C83.28,409.517 114.4577,376.3033 135.0617,354.3613 " fill="none" id="Candidate-to-User" style="stroke:#808080;stroke-width:0.6;"/><polygon fill="#808080" points="137.526,351.737,132.08,354.0306,135.4724,353.9239,135.5791,357.3164,137.526,351.737" style="stroke:#808080;stroke-width:0.6;"/></g><!--SRC=[fLV1RkCu3BtxAmJlOKy1Tgz5421Dsi4CEaanxGwmHqMYRKraoIl9w0H5_tqfEN5ant4y65-Ia8_a8obIJY4ua19SeRbD96IEE4sCo0j7k330dD0g-TFkXQgeeIMHGe4xL42qGPiaUHLE0adNkgH2aQ-QWqoJv8ndabfBtXE2pvF8u0djxxNXO5PQQaFMrEplPGrT06NxtEXQyGQqV7v- -hnQldxURWAkh__ZyQz7V89kQOn-QyIvWKE3ZmBk91ed7p772YKqXnTtm5HypbJb4ZfPKCD7alXa0DJlPx1UzpFmrVaqbCNzAOlaI9waN_IEV8F_QknQ2SfPyb814vbWrFUGB7CiHquTfEy9geKx4BI83Rhu-Rn1BHRpkT7QBHP9O76qxKGwOnkCVqB9_WLgx3Px-5c14Q0O8FGxnNPlTp-mpel5Uul_w5ek6ULG2hO6f3tTx6KlfBHZyFPh9uFPR759zZgqo-uwhg7Jn1ojjWV7siJtjjFQRGLAgFnA7q_QQrqBnGaCCZ1n8yYfHiVZ_N66Xz7UciTQiUE9k6MnqiePojohNn2tuNvRJ80jEJTWxGJaTygeOWBifYvtO2POhC4o8whn_4xjEnNPDokkvP2-LxmXI5oj8Rqlpv3yM8yXLQy0Gv0euoOnfHqSDxxEBadvPqKLsU7AL-0XhW2IQIdr6_gyQq4pajLIpfme8PBX_dHd6IWUuWr5RjET7XBzuxnuVv6aEEoCuB54AojSdq0yN_zOF2m3WnNaeoFb4GzuzSa9PyrZDxI4YT1dl3ZVSELFX2lqF7w2GpR-2BIaByMUtwLK3KfF1BkrN5QL7BbpOlLePIFWev1mEVuNLNXnrDLJSFMk5DQYupLIkut_HjN-AggviQEameJsk0-26hh3gWx3GOWdDJH5aTTVc5ph0pe7F9vSd1M4HHBA65HT40VctmZvpUaUBCalC7Jmqv4CBScRS4N0CLnLuQOzsa5xf8_hoACpV5a2oehc5tKElmFtBxb39ZUY_9OZJXqzKQLHDobM3RSs5voEBgdL2JCqLcVbw52jQcC4gsLTJhd_GK9LO6EktAQT4JWJ25TR6sT0sVFhaupkgFJlbCndCv9kIDevzNUae3Q99Uac3GwzIHiY6NtFEdjFuulnZk0kqqnGVxh3alF0MN3UHwvgwtI9aAzKOMCCASEd9LZeIzDk1kZ5K8T74lidh0FJjshZNK_XZZpX_vFQdua7bUFmeJ4pWDIziswflMVyZ_0_]--></g></svg>