<?xml version="1.0" encoding="us-ascii" standalone="no"?><svg xmlns="http://www.w3.org/2000/svg" xmlns:xlink="http://www.w3.org/1999/xlink" contentStyleType="text/css" height="1140px" preserveAspectRatio="none" style="width:1226px;height:1140px;background:#FFFFFF;" version="1.1" viewBox="0 0 1226 1140" width="1226px" zoomAndPan="magnify"><defs/><g><text fill="#000000" font-family="sans-serif" font-size="14" font-weight="bold" lengthAdjust="spacing" textLength="105" x="553.5" y="23.5352">Domain Model</text><!--cluster Job Opening Aggregate--><g id="cluster_Job Opening Aggregate"><rect fill="none" height="533" rx="2.5" ry="2.5" style="stroke:#000000;stroke-width:1.5;" width="631" x="327" y="44.4883"/><text fill="#000000" font-family="sans-serif" font-size="14" font-weight="bold" lengthAdjust="spacing" textLength="168" x="558.5" y="60.0234">Job Opening Aggregate</text></g><!--cluster Application Aggregate--><g id="cluster_Application Aggregate"><rect fill="none" height="533" rx="2.5" ry="2.5" style="stroke:#000000;stroke-width:1.5;" width="680" x="540" y="601.4883"/><text fill="#000000" font-family="sans-serif" font-size="14" font-weight="bold" lengthAdjust="spacing" textLength="160" x="800" y="617.0234">Application Aggregate</text></g><!--cluster Customer Manager Aggregate--><g id="cluster_Customer Manager Aggregate"><rect fill="none" height="113" rx="2.5" ry="2.5" style="stroke:#000000;stroke-width:1.5;" width="230" x="7" y="291.4883"/><text fill="#000000" font-family="sans-serif" font-size="14" font-weight="bold" lengthAdjust="spacing" textLength="214" x="15" y="307.0234">Customer Manager Aggregate</text></g><!--class JobOpening--><g id="elem_JobOpening"><rect codeLine="28" fill="#F0FFFF" height="62.7539" id="JobOpening" rx="2.5" ry="2.5" style="stroke:#000000;stroke-width:0.5;" width="113" x="343" y="326.1083"/><ellipse cx="358" cy="353.4852" fill="#ADD1B2" rx="11" ry="11" style="stroke:#181818;stroke-width:1.0;"/><path d="M362.1143,359.4852 L354.3945,359.4852 L354.3945,347.0922 L362.1143,347.0922 L362.1143,349.2504 L356.8433,349.2504 L356.8433,351.9232 L361.6162,351.9232 L361.6162,354.0814 L356.8433,354.0814 L356.8433,357.327 L362.1143,357.327 Z " fill="#000000"/><text fill="#000000" font-family="sans-serif" font-size="12" font-style="italic" lengthAdjust="spacing" textLength="43" x="391" y="342.7098">&#171;entity&#187;</text><text fill="#000000" font-family="sans-serif" font-size="12" font-style="italic" lengthAdjust="spacing" textLength="35" x="395" y="356.8427">&#171;root&#187;</text><text fill="#000000" font-family="sans-serif" font-size="14" lengthAdjust="spacing" textLength="81" x="372" y="372.9091">JobOpening</text><line style="stroke:#000000;stroke-width:0.5;" x1="344" x2="455" y1="380.8622" y2="380.8622"/></g><g id="elem_GMN18"><path d="M743,376.5183 L743,396.1883 L671.4,397.0783 L743,404.1883 L743,432.4499 A0,0 0 0 0 743,432.4499 L942,432.4499 A0,0 0 0 0 942,432.4499 L942,386.5183 L932,376.5183 L743,376.5183 A0,0 0 0 0 743,376.5183 " fill="#FEFFDD" style="stroke:#181818;stroke-width:0.5;"/><path d="M932,376.5183 L932,386.5183 L942,386.5183 L932,376.5183 " fill="#FEFFDD" style="stroke:#181818;stroke-width:0.5;"/><text fill="#000000" font-family="sans-serif" font-size="13" lengthAdjust="spacing" textLength="178" x="749" y="394.0866">Can be one of the following:</text><text fill="#000000" font-family="sans-serif" font-size="13" lengthAdjust="spacing" textLength="69" x="749" y="409.3972">- full-time</text><text fill="#000000" font-family="sans-serif" font-size="13" lengthAdjust="spacing" textLength="73" x="749" y="424.7077">- part-time</text></g><g id="elem_GMN21"><path d="M743,269.8683 L743,307.9383 L671.4,316.6083 L743,315.9383 L743,341.1105 A0,0 0 0 0 743,341.1105 L942,341.1105 A0,0 0 0 0 942,341.1105 L942,279.8683 L932,269.8683 L743,269.8683 A0,0 0 0 0 743,269.8683 " fill="#FEFFDD" style="stroke:#181818;stroke-width:0.5;"/><path d="M932,269.8683 L932,279.8683 L942,279.8683 L932,269.8683 " fill="#FEFFDD" style="stroke:#181818;stroke-width:0.5;"/><text fill="#000000" font-family="sans-serif" font-size="13" lengthAdjust="spacing" textLength="178" x="749" y="287.4366">Can be one of the following:</text><text fill="#000000" font-family="sans-serif" font-size="13" lengthAdjust="spacing" textLength="56" x="749" y="302.7472">- remote</text><text fill="#000000" font-family="sans-serif" font-size="13" lengthAdjust="spacing" textLength="52" x="749" y="318.0577">- hybrid</text><text fill="#000000" font-family="sans-serif" font-size="13" lengthAdjust="spacing" textLength="51" x="749" y="333.3683">- onsite</text></g><!--entity JobReference--><g id="elem_JobReference"><rect fill="#F0FFDD" height="38.9766" rx="2.5" ry="2.5" style="stroke:#000000;stroke-width:0.5;" width="120" x="551" y="522.9983"/><text fill="#000000" font-family="sans-serif" font-size="14" font-style="italic" lengthAdjust="spacing" textLength="100" x="561" y="539.5334">&#171;Value Object&#187;</text><text fill="#000000" font-family="sans-serif" font-size="14" lengthAdjust="spacing" textLength="90" x="566" y="556.0217">JobReference</text></g><!--entity TitleOrFunction--><g id="elem_TitleOrFunction"><rect fill="#F0FFDD" height="38.9766" rx="2.5" ry="2.5" style="stroke:#000000;stroke-width:0.5;" width="127" x="547.5" y="448.9983"/><text fill="#000000" font-family="sans-serif" font-size="14" font-style="italic" lengthAdjust="spacing" textLength="100" x="561" y="465.5334">&#171;Value Object&#187;</text><text fill="#000000" font-family="sans-serif" font-size="14" lengthAdjust="spacing" textLength="107" x="557.5" y="482.0217">TitleOrFunction</text></g><!--entity ContractType--><g id="elem_ContractType"><rect fill="#F0FFDD" height="38.9766" rx="2.5" ry="2.5" style="stroke:#000000;stroke-width:0.5;" width="120" x="551" y="374.9983"/><text fill="#000000" font-family="sans-serif" font-size="14" font-style="italic" lengthAdjust="spacing" textLength="100" x="561" y="391.5334">&#171;Value Object&#187;</text><text fill="#000000" font-family="sans-serif" font-size="14" lengthAdjust="spacing" textLength="92" x="565" y="408.0217">ContractType</text></g><!--entity Mode--><g id="elem_Mode"><rect fill="#F0FFDD" height="38.9766" rx="2.5" ry="2.5" style="stroke:#000000;stroke-width:0.5;" width="120" x="551" y="300.9983"/><text fill="#000000" font-family="sans-serif" font-size="14" font-style="italic" lengthAdjust="spacing" textLength="100" x="561" y="317.5334">&#171;Value Object&#187;</text><text fill="#000000" font-family="sans-serif" font-size="14" lengthAdjust="spacing" textLength="38" x="592" y="334.0217">Mode</text></g><!--entity Address--><g id="elem_Address"><rect fill="#F0FFDD" height="38.9766" rx="2.5" ry="2.5" style="stroke:#000000;stroke-width:0.5;" width="120" x="551" y="226.9983"/><text fill="#000000" font-family="sans-serif" font-size="14" font-style="italic" lengthAdjust="spacing" textLength="100" x="561" y="243.5334">&#171;Value Object&#187;</text><text fill="#000000" font-family="sans-serif" font-size="14" lengthAdjust="spacing" textLength="56" x="583" y="260.0217">Address</text></g><!--entity VacanciesNumber--><g id="elem_VacanciesNumber"><rect fill="#F0FFDD" height="38.9766" rx="2.5" ry="2.5" style="stroke:#000000;stroke-width:0.5;" width="142" x="540" y="152.9983"/><text fill="#000000" font-family="sans-serif" font-size="14" font-style="italic" lengthAdjust="spacing" textLength="100" x="561" y="169.5334">&#171;Value Object&#187;</text><text fill="#000000" font-family="sans-serif" font-size="14" lengthAdjust="spacing" textLength="122" x="550" y="186.0217">VacanciesNumber</text></g><!--entity Description--><g id="elem_Description"><rect fill="#F0FFDD" height="38.9766" rx="2.5" ry="2.5" style="stroke:#000000;stroke-width:0.5;" width="120" x="551" y="78.9983"/><text fill="#000000" font-family="sans-serif" font-size="14" font-style="italic" lengthAdjust="spacing" textLength="100" x="561" y="95.5334">&#171;Value Object&#187;</text><text fill="#000000" font-family="sans-serif" font-size="14" lengthAdjust="spacing" textLength="78" x="572" y="112.0217">Description</text></g><!--class Application--><g id="elem_Application"><rect codeLine="68" fill="#F0FFFF" height="62.7539" id="Application" rx="2.5" ry="2.5" style="stroke:#000000;stroke-width:0.5;" width="110" x="556" y="809.1083"/><ellipse cx="571" cy="836.4852" fill="#ADD1B2" rx="11" ry="11" style="stroke:#181818;stroke-width:1.0;"/><path d="M575.1143,842.4852 L567.3945,842.4852 L567.3945,830.0922 L575.1143,830.0922 L575.1143,832.2504 L569.8433,832.2504 L569.8433,834.9232 L574.6162,834.9232 L574.6162,837.0814 L569.8433,837.0814 L569.8433,840.327 L575.1143,840.327 Z " fill="#000000"/><text fill="#000000" font-family="sans-serif" font-size="12" font-style="italic" lengthAdjust="spacing" textLength="43" x="602.5" y="825.7098">&#171;entity&#187;</text><text fill="#000000" font-family="sans-serif" font-size="12" font-style="italic" lengthAdjust="spacing" textLength="35" x="606.5" y="839.8427">&#171;root&#187;</text><text fill="#000000" font-family="sans-serif" font-size="14" lengthAdjust="spacing" textLength="78" x="585" y="855.9091">Application</text><line style="stroke:#000000;stroke-width:0.5;" x1="557" x2="665" y1="863.8622" y2="863.8622"/></g><g id="elem_GMN40"><path d="M1005,760.2083 L1005,799.4883 L902.82,803.4883 L1005,807.4883 L1005,846.761 A0,0 0 0 0 1005,846.761 L1204,846.761 A0,0 0 0 0 1204,846.761 L1204,770.2083 L1194,760.2083 L1005,760.2083 A0,0 0 0 0 1005,760.2083 " fill="#FEFFDD" style="stroke:#181818;stroke-width:0.5;"/><path d="M1194,760.2083 L1194,770.2083 L1204,770.2083 L1194,760.2083 " fill="#FEFFDD" style="stroke:#181818;stroke-width:0.5;"/><text fill="#000000" font-family="sans-serif" font-size="13" lengthAdjust="spacing" textLength="178" x="1011" y="777.7766">Can be one of the following:</text><text fill="#000000" font-family="sans-serif" font-size="13" lengthAdjust="spacing" textLength="76" x="1011" y="793.0872">- submitted</text><text fill="#000000" font-family="sans-serif" font-size="13" lengthAdjust="spacing" textLength="63" x="1011" y="808.3977">- pending</text><text fill="#000000" font-family="sans-serif" font-size="13" lengthAdjust="spacing" textLength="68" x="1011" y="823.7083">- accepted</text><text fill="#000000" font-family="sans-serif" font-size="13" lengthAdjust="spacing" textLength="65" x="1011" y="839.0188">- declined</text></g><!--entity EmailContentFile--><g id="elem_EmailContentFile"><rect fill="#F0FFDD" height="38.9766" rx="2.5" ry="2.5" style="stroke:#000000;stroke-width:0.5;" width="136" x="774.5" y="1079.9983"/><text fill="#000000" font-family="sans-serif" font-size="14" font-style="italic" lengthAdjust="spacing" textLength="100" x="792.5" y="1096.5334">&#171;Value Object&#187;</text><text fill="#000000" font-family="sans-serif" font-size="14" lengthAdjust="spacing" textLength="116" x="784.5" y="1113.0217">EmailContentFile</text></g><!--entity EmailFilesAttached--><g id="elem_EmailFilesAttached"><rect fill="#F0FFDD" height="38.9766" rx="2.5" ry="2.5" style="stroke:#000000;stroke-width:0.5;" width="149" x="768" y="1005.9983"/><text fill="#000000" font-family="sans-serif" font-size="14" font-style="italic" lengthAdjust="spacing" textLength="100" x="792.5" y="1022.5334">&#171;Value Object&#187;</text><text fill="#000000" font-family="sans-serif" font-size="14" lengthAdjust="spacing" textLength="129" x="778" y="1039.0217">EmailFilesAttached</text></g><!--entity FilesAttachedContent--><g id="elem_FilesAttachedContent"><rect fill="#F0FFDD" height="38.9766" rx="2.5" ry="2.5" style="stroke:#000000;stroke-width:0.5;" width="167" x="759" y="931.9983"/><text fill="#000000" font-family="sans-serif" font-size="14" font-style="italic" lengthAdjust="spacing" textLength="100" x="792.5" y="948.5334">&#171;Value Object&#187;</text><text fill="#000000" font-family="sans-serif" font-size="14" lengthAdjust="spacing" textLength="147" x="769" y="965.0217">FilesAttachedContent</text></g><!--entity ApplicationDataFile--><g id="elem_ApplicationDataFile"><rect fill="#F0FFDD" height="38.9766" rx="2.5" ry="2.5" style="stroke:#000000;stroke-width:0.5;" width="153" x="766" y="857.9983"/><text fill="#000000" font-family="sans-serif" font-size="14" font-style="italic" lengthAdjust="spacing" textLength="100" x="792.5" y="874.5334">&#171;Value Object&#187;</text><text fill="#000000" font-family="sans-serif" font-size="14" lengthAdjust="spacing" textLength="133" x="776" y="891.0217">ApplicationDataFile</text></g><!--entity Status--><g id="elem_Status"><rect fill="#F0FFDD" height="38.9766" rx="2.5" ry="2.5" style="stroke:#000000;stroke-width:0.5;" width="120" x="782.5" y="783.9983"/><text fill="#000000" font-family="sans-serif" font-size="14" font-style="italic" lengthAdjust="spacing" textLength="100" x="792.5" y="800.5334">&#171;Value Object&#187;</text><text fill="#000000" font-family="sans-serif" font-size="14" lengthAdjust="spacing" textLength="42" x="821.5" y="817.0217">Status</text></g><!--entity SubmissionDate--><g id="elem_SubmissionDate"><rect fill="#F0FFDD" height="38.9766" rx="2.5" ry="2.5" style="stroke:#000000;stroke-width:0.5;" width="130" x="777.5" y="709.9983"/><text fill="#000000" font-family="sans-serif" font-size="14" font-style="italic" lengthAdjust="spacing" textLength="100" x="792.5" y="726.5334">&#171;Value Object&#187;</text><text fill="#000000" font-family="sans-serif" font-size="14" lengthAdjust="spacing" textLength="110" x="787.5" y="743.0217">SubmissionDate</text></g><!--entity Rank--><g id="elem_Rank"><rect fill="#F0FFDD" height="38.9766" rx="2.5" ry="2.5" style="stroke:#000000;stroke-width:0.5;" width="120" x="782.5" y="635.9983"/><text fill="#000000" font-family="sans-serif" font-size="14" font-style="italic" lengthAdjust="spacing" textLength="100" x="792.5" y="652.5334">&#171;Value Object&#187;</text><text fill="#000000" font-family="sans-serif" font-size="14" lengthAdjust="spacing" textLength="34" x="825.5" y="669.0217">Rank</text></g><!--class CustomerManager--><g id="elem_CustomerManager"><rect codeLine="105" fill="#F0FFFF" height="62.7539" id="CustomerManager" rx="2.5" ry="2.5" style="stroke:#000000;stroke-width:0.5;" width="159" x="42" y="326.1083"/><ellipse cx="57" cy="353.4852" fill="#ADD1B2" rx="11" ry="11" style="stroke:#181818;stroke-width:1.0;"/><path d="M61.1143,359.4852 L53.3945,359.4852 L53.3945,347.0922 L61.1143,347.0922 L61.1143,349.2504 L55.8433,349.2504 L55.8433,351.9232 L60.6162,351.9232 L60.6162,354.0814 L55.8433,354.0814 L55.8433,357.327 L61.1143,357.327 Z " fill="#000000"/><text fill="#000000" font-family="sans-serif" font-size="12" font-style="italic" lengthAdjust="spacing" textLength="43" x="113" y="342.7098">&#171;entity&#187;</text><text fill="#000000" font-family="sans-serif" font-size="12" font-style="italic" lengthAdjust="spacing" textLength="35" x="117" y="356.8427">&#171;root&#187;</text><text fill="#000000" font-family="sans-serif" font-size="14" lengthAdjust="spacing" textLength="127" x="71" y="372.9091">CustomerManager</text><line style="stroke:#000000;stroke-width:0.5;" x1="43" x2="200" y1="380.8622" y2="380.8622"/></g><!--link JobOpening to JobReference--><g id="link_JobOpening_JobReference"><path codeLine="45" d="M422.65,389.1783 C446.63,421.6783 487.46,472.0683 532,505.4883 C540.63,511.9683 545.2156,515.0406 555.0556,519.9706 " fill="none" id="JobOpening-to-JobReference" style="stroke:#808080;stroke-width:1.0;"/><polygon fill="#808080" points="560.42,522.6583,554.1652,515.0506,555.9497,520.4186,550.5817,522.2031,560.42,522.6583" style="stroke:#808080;stroke-width:1.0;"/></g><!--link JobOpening to TitleOrFunction--><g id="link_JobOpening_TitleOrFunction"><path codeLine="46" d="M455.06,389.3183 C478.53,402.7183 506.41,418.2383 532,431.4883 C543.18,437.2783 550.0013,440.672 561.4013,446.092 " fill="none" id="JobOpening-to-TitleOrFunction" style="stroke:#808080;stroke-width:1.0;"/><polygon fill="#808080" points="566.82,448.6683,560.4094,441.1914,562.3044,446.5214,556.9744,448.4164,566.82,448.6683" style="stroke:#808080;stroke-width:1.0;"/></g><!--link JobOpening to ContractType--><g id="link_JobOpening_ContractType"><path codeLine="47" d="M456.37,367.3583 C485.46,372.4883 515.1212,377.7359 544.7112,382.9559 " fill="none" id="JobOpening-to-ContractType" style="stroke:#808080;stroke-width:1.0;"/><polygon fill="#808080" points="550.62,383.9983,542.4518,378.4956,545.696,383.1296,541.0619,386.3739,550.62,383.9983" style="stroke:#808080;stroke-width:1.0;"/></g><!--link JobOpening to Mode--><g id="link_JobOpening_Mode"><path codeLine="48" d="M456.37,347.6183 C485.46,342.4883 515.1212,337.2407 544.7112,332.0207 " fill="none" id="JobOpening-to-Mode" style="stroke:#808080;stroke-width:1.0;"/><polygon fill="#808080" points="550.62,330.9783,541.0619,328.6027,545.696,331.8469,542.4518,336.481,550.62,330.9783" style="stroke:#808080;stroke-width:1.0;"/></g><!--link JobOpening to Address--><g id="link_JobOpening_Address"><path codeLine="49" d="M455.06,325.6583 C478.53,312.2583 506.41,296.7383 532,283.4883 C543.18,277.6983 550.0013,274.3046 561.4013,268.8846 " fill="none" id="JobOpening-to-Address" style="stroke:#808080;stroke-width:1.0;"/><polygon fill="#808080" points="566.82,266.3083,556.9744,266.5602,562.3044,268.4552,560.4094,273.7852,566.82,266.3083" style="stroke:#808080;stroke-width:1.0;"/></g><!--link JobOpening to VacanciesNumber--><g id="link_JobOpening_VacanciesNumber"><path codeLine="50" d="M422.65,325.7983 C446.63,293.2983 487.46,242.9083 532,209.4883 C540.63,203.0083 545.2156,199.9359 555.0556,195.0059 " fill="none" id="JobOpening-to-VacanciesNumber" style="stroke:#808080;stroke-width:1.0;"/><polygon fill="#808080" points="560.42,192.3183,550.5817,192.7735,555.9497,194.558,554.1652,199.926,560.42,192.3183" style="stroke:#808080;stroke-width:1.0;"/></g><!--link JobOpening to Description--><g id="link_JobOpening_Description"><path codeLine="51" d="M412.17,325.9483 C430.94,278.9683 471.93,190.2783 532,135.4883 C539.31,128.8183 542.7402,125.9698 551.6702,121.1898 " fill="none" id="JobOpening-to-Description" style="stroke:#808080;stroke-width:1.0;"/><polygon fill="#808080" points="556.96,118.3583,547.1375,119.079,552.5518,120.7179,550.9129,126.1321,556.96,118.3583" style="stroke:#808080;stroke-width:1.0;"/></g><!--link Application to EmailContentFile--><g id="link_Application_EmailContentFile"><path codeLine="85" d="M622.87,872.2883 C640.73,919.9983 680.63,1010.1083 743,1062.4883 C752.09,1070.1283 757.4355,1073.8351 768.5255,1078.7551 " fill="none" id="Application-to-EmailContentFile" style="stroke:#808080;stroke-width:1.0;"/><polygon fill="#808080" points="774.01,1081.1883,767.4054,1073.8822,769.4396,1079.1606,764.1611,1081.1949,774.01,1081.1883" style="stroke:#808080;stroke-width:1.0;"/></g><!--link Application to EmailFilesAttached--><g id="link_Application_EmailFilesAttached"><path codeLine="86" d="M633.06,872.3383 C656.42,905.4483 696.93,956.7783 743,988.4883 C752.71,995.1683 758.2498,998.4773 769.3798,1003.2173 " fill="none" id="Application-to-EmailFilesAttached" style="stroke:#808080;stroke-width:1.0;"/><polygon fill="#808080" points="774.9,1005.5683,768.1869,998.3617,770.2998,1003.6092,765.0523,1005.722,774.9,1005.5683" style="stroke:#808080;stroke-width:1.0;"/></g><!--link Application to FilesAttachedContent--><g id="link_Application_FilesAttachedContent"><path codeLine="87" d="M663.92,872.2783 C687.6,886.1183 716.25,901.9983 743,914.4883 C755.99,920.5583 764.6718,924.2457 778.2418,929.4057 " fill="none" id="Application-to-FilesAttachedContent" style="stroke:#808080;stroke-width:1.0;"/><polygon fill="#808080" points="783.85,931.5383,776.8593,924.6007,779.1765,929.7612,774.016,932.0783,783.85,931.5383" style="stroke:#808080;stroke-width:1.0;"/></g><!--link Application to ApplicationDataFile--><g id="link_Application_ApplicationDataFile"><path codeLine="88" d="M666.39,849.2583 C696.08,854.0483 727.3865,859.0929 759.8765,864.3329 " fill="none" id="Application-to-ApplicationDataFile" style="stroke:#808080;stroke-width:1.0;"/><polygon fill="#808080" points="765.8,865.2883,757.5517,859.9063,760.8638,864.4922,756.2779,867.8042,765.8,865.2883" style="stroke:#808080;stroke-width:1.0;"/></g><!--link Application to Status--><g id="link_Application_Status"><path codeLine="89" d="M666.39,831.7183 C701.25,826.0983 740.5766,819.7638 776.3466,813.9938 " fill="none" id="Application-to-Status" style="stroke:#808080;stroke-width:1.0;"/><polygon fill="#808080" points="782.27,813.0383,772.7479,810.5226,777.3338,813.8345,774.0219,818.4205,782.27,813.0383" style="stroke:#808080;stroke-width:1.0;"/></g><!--link Application to SubmissionDate--><g id="link_Application_SubmissionDate"><path codeLine="90" d="M663.92,808.6983 C687.6,794.8583 716.25,778.9783 743,766.4883 C755.99,760.4183 764.6718,756.7308 778.2418,751.5708 " fill="none" id="Application-to-SubmissionDate" style="stroke:#808080;stroke-width:1.0;"/><polygon fill="#808080" points="783.85,749.4383,774.016,748.8983,779.1765,751.2154,776.8593,756.3759,783.85,749.4383" style="stroke:#808080;stroke-width:1.0;"/></g><!--link Application to Rank--><g id="link_Application_Rank"><path codeLine="91" d="M633.06,808.6383 C656.42,775.5283 696.93,724.1983 743,692.4883 C754.81,684.3583 763.0522,679.9237 776.5522,674.6437 " fill="none" id="Application-to-Rank" style="stroke:#808080;stroke-width:1.0;"/><polygon fill="#808080" points="782.14,672.4583,772.3013,672.0113,777.4835,674.2795,775.2152,679.4617,782.14,672.4583" style="stroke:#808080;stroke-width:1.0;"/></g><!--link CustomerManager to JobOpening--><g id="link_CustomerManager_JobOpening"><path codeLine="109" d="M201.22,357.4883 C246.47,357.4883 296.22,357.4883 336.9,357.4883 " fill="none" id="CustomerManager-to-JobOpening" style="stroke:#808080;stroke-width:1.0;"/><polygon fill="#808080" points="342.9,357.4883,333.9,353.4883,337.9,357.4883,333.9,361.4883,342.9,357.4883" style="stroke:#808080;stroke-width:1.0;"/><text fill="#000000" font-family="sans-serif" font-size="13" lengthAdjust="spacing" textLength="56" x="254" y="354.0566">manages</text><text fill="#000000" font-family="sans-serif" font-size="13" lengthAdjust="spacing" textLength="8" x="208.9379" y="370.7626">1</text><text fill="#000000" font-family="sans-serif" font-size="13" lengthAdjust="spacing" textLength="10" x="325.0075" y="371.0379">N</text></g><!--reverse link JobOpening to Application--><g id="link_JobOpening_Application"><path codeLine="111" d="M416.6375,394.6828 C454.5975,482.2028 558.18,721.0283 596.2,808.6783 " fill="none" id="JobOpening-backto-Application" style="stroke:#808080;stroke-width:1.0;"/><polygon fill="#808080" points="414.25,389.1783,414.1615,399.0267,416.2396,393.7654,421.5009,395.8434,414.25,389.1783" style="stroke:#808080;stroke-width:1.0;"/><text fill="#000000" font-family="sans-serif" font-size="13" lengthAdjust="spacing" textLength="22" x="487" y="553.0566">has</text><text fill="#000000" font-family="sans-serif" font-size="13" lengthAdjust="spacing" textLength="8" x="408.3664" y="409.4933">1</text><text fill="#000000" font-family="sans-serif" font-size="13" lengthAdjust="spacing" textLength="10" x="577.7038" y="798.1716">N</text></g><!--SRC=[fPR1RkCW48RlVWhaFUmfqkwrYYovoQRggasgjkeTmyHcWy62iQgeohils4c37TfwjLmYpNm3_7zcI2h1WTI0bUOsaR15WfeOKLP8k330K6YLVBSxeHfgQ4saK83x1eWshYP9dWLA8EbIrrGeSgyvo3H9pZoJr5hobX2txiGMxbpzjJOSp49BRSYIcjsrR648KBOhZMuLxw7yuU7kTf4_tsxM7JVEVrlzMBdLvN9Zz6iVBWtiUpuui92kE3c4TsnSX9RmX7idnMkcgfGmK44D_qJ4ZG5G_wzWkHmhyExSn5HSdrGaoV7s9Fsj2x9fG0bLahnquakAaBube53WdhZqAJkVzx4icy-DrfXbINT29zDnZx050ug18r-e-tR8flZZVCcoemc7CzurmCQiMjNroeIAXLPeACDdtqPVuxwd9c0vvmPSgtrDlb165HDWrsrTW9bGiGJBZ6W-rzTz12RFPjd0orX-P5uC2TsAvRqziVZHZrXgP40C2HJtmfH6EBuBUdjvARyML972FGmAF88LaAsMKh-wFQ_UeHdPjbBEKDGGnDoKuJa6YdVdnKv-bplzIBU_WThl5qIgVM443oDQMO7Z2npEuvKtZHICTaqG6Qym_Uby_N8lfVG6EcObv9JUxaeyQtD4oYhW5qKNDGFyUDpNLO6A9KKQlTz5qHDIREq4hYrgOMs_zuHz7wdQVKZrJsLWkc_RiRSVGmDxebZCm2WOyIpAzJR5KmDdeeWt8pOGmQx_C8JM7uW8F1n2r_OE2oAKCMY640Vc_mBmYpa9VeWMhKLTkvVrdYeNCB5nEJ4d93OoRjCnblvCEpVITHe-MLUaxW1xyGhxWlbivWf8El3qYbJK9dy1]--></g></svg>