<?xml version="1.0" encoding="us-ascii" standalone="no"?><svg xmlns="http://www.w3.org/2000/svg" xmlns:xlink="http://www.w3.org/1999/xlink" contentStyleType="text/css" height="700px" preserveAspectRatio="none" style="width:2424px;height:700px;background:#FFFFFF;" version="1.1" viewBox="0 0 2424 700" width="2424px" zoomAndPan="magnify"><defs/><g><rect fill="#FFFFFF" height="534.5141" style="stroke:#181818;stroke-width:0.8000000000000002;" width="8" x="53.2" y="75.1813"/><rect fill="#FFFFFF" height="164.1391" style="stroke:#181818;stroke-width:0.8000000000000002;" width="8" x="433.2" y="92.2297"/><rect fill="#FFFFFF" height="337.0781" style="stroke:#181818;stroke-width:0.8000000000000002;" width="8" x="433.2" y="279.8172"/><rect fill="#FFFFFF" height="117.2422" style="stroke:#181818;stroke-width:0.8000000000000002;" width="8" x="603.6" y="115.6781"/><rect fill="#FFFFFF" height="117.2422" style="stroke:#181818;stroke-width:0.8000000000000002;" width="8" x="802.8" y="303.2656"/><rect fill="#FFFFFF" height="23.4484" style="stroke:#181818;stroke-width:0.8000000000000002;" width="8" x="1022.8" y="463.4047"/><rect fill="#FFFFFF" height="82.3453" style="stroke:#181818;stroke-width:0.8000000000000002;" width="8" x="1022.8" y="510.3016"/><rect fill="#FFFFFF" height="70.3453" style="stroke:#181818;stroke-width:0.8000000000000002;" width="8" x="1567.6" y="139.1266"/><rect fill="#FFFFFF" height="70.3453" style="stroke:#181818;stroke-width:0.8000000000000002;" width="8" x="1688.8" y="326.7141"/><rect fill="#FFFFFF" height="23.4484" style="stroke:#181818;stroke-width:0.8000000000000002;" width="8" x="1941.6" y="162.575"/><rect fill="#FFFFFF" height="23.4484" style="stroke:#181818;stroke-width:0.8000000000000002;" width="8" x="2076.4" y="350.1625"/><rect fill="#FFFFFF" height="23.4484" style="stroke:#181818;stroke-width:0.8000000000000002;" width="8" x="2346.4" y="533.75"/><rect fill="none" height="154.5391" style="stroke:#000000;stroke-width:1.2000000000000002;" width="2070.4" x="348.8" y="432.5078"/><line style="stroke:#181818;stroke-width:0.4000000000000001;stroke-dasharray:5.0,5.0;" x1="56.8" x2="56.8" y1="67.1813" y2="624.0953"/><line style="stroke:#181818;stroke-width:0.4000000000000001;stroke-dasharray:5.0,5.0;" x1="436.8" x2="436.8" y1="67.1813" y2="624.0953"/><line style="stroke:#181818;stroke-width:0.4000000000000001;stroke-dasharray:5.0,5.0;" x1="607.2" x2="607.2" y1="67.1813" y2="624.0953"/><line style="stroke:#181818;stroke-width:0.4000000000000001;stroke-dasharray:5.0,5.0;" x1="806.4" x2="806.4" y1="67.1813" y2="624.0953"/><line style="stroke:#181818;stroke-width:0.4000000000000001;stroke-dasharray:5.0,5.0;" x1="1026.4" x2="1026.4" y1="67.1813" y2="624.0953"/><line style="stroke:#181818;stroke-width:0.4000000000000001;stroke-dasharray:5.0,5.0;" x1="1242.4" x2="1242.4" y1="67.1813" y2="624.0953"/><line style="stroke:#181818;stroke-width:0.4000000000000001;stroke-dasharray:5.0,5.0;" x1="1431.2" x2="1431.2" y1="67.1813" y2="624.0953"/><line style="stroke:#181818;stroke-width:0.4000000000000001;stroke-dasharray:5.0,5.0;" x1="1571.2" x2="1571.2" y1="67.1813" y2="624.0953"/><line style="stroke:#181818;stroke-width:0.4000000000000001;stroke-dasharray:5.0,5.0;" x1="1692.8" x2="1692.8" y1="67.1813" y2="624.0953"/><line style="stroke:#181818;stroke-width:0.4000000000000001;stroke-dasharray:5.0,5.0;" x1="1815.2" x2="1815.2" y1="67.1813" y2="624.0953"/><line style="stroke:#181818;stroke-width:0.4000000000000001;stroke-dasharray:5.0,5.0;" x1="1945.6" x2="1945.6" y1="67.1813" y2="624.0953"/><line style="stroke:#181818;stroke-width:0.4000000000000001;stroke-dasharray:5.0,5.0;" x1="2080" x2="2080" y1="67.1813" y2="624.0953"/><line style="stroke:#181818;stroke-width:0.4000000000000001;stroke-dasharray:5.0,5.0;" x1="2216" x2="2216" y1="67.1813" y2="624.0953"/><line style="stroke:#181818;stroke-width:0.4000000000000001;stroke-dasharray:5.0,5.0;" x1="2350.4" x2="2350.4" y1="67.1813" y2="624.0953"/><text fill="#000000" font-family="sans-serif" font-size="11.2" lengthAdjust="spacing" textLength="101.6" x="4" y="64.8188">CustomerManager</text><ellipse cx="57.2" cy="12.7906" fill="#E2E2F0" rx="6.4" ry="6.4" style="stroke:#181818;stroke-width:0.4000000000000001;"/><path d="M57.2,19.1906 L57.2,40.7906 M46.8,25.5906 L67.6,25.5906 M57.2,40.7906 L46.8,52.7906 M57.2,40.7906 L67.6,52.7906 " fill="none" style="stroke:#181818;stroke-width:0.4000000000000001;"/><text fill="#000000" font-family="sans-serif" font-size="11.2" lengthAdjust="spacing" textLength="101.6" x="4" y="634.1234">CustomerManager</text><ellipse cx="57.2" cy="643.2859" fill="#E2E2F0" rx="6.4" ry="6.4" style="stroke:#181818;stroke-width:0.4000000000000001;"/><path d="M57.2,649.6859 L57.2,671.2859 M46.8,656.0859 L67.6,656.0859 M57.2,671.2859 L46.8,683.2859 M57.2,671.2859 L67.6,683.2859 " fill="none" style="stroke:#181818;stroke-width:0.4000000000000001;"/><rect fill="#E2E2F0" height="37.5813" rx="2" ry="2" style="stroke:#181818;stroke-width:0.4000000000000001;" width="160.8" x="356.8" y="28.8"/><text fill="#000000" font-family="sans-serif" font-size="11.2" font-style="italic" lengthAdjust="spacing" textLength="80.8" x="396.8" y="45.2281">&#171;presentation&#187;</text><text fill="#000000" font-family="sans-serif" font-size="11.2" lengthAdjust="spacing" textLength="149.6" x="362.4" y="58.4188">VerificationRequirementsUI</text><rect fill="#E2E2F0" height="37.5813" rx="2" ry="2" style="stroke:#181818;stroke-width:0.4000000000000001;" width="160.8" x="356.8" y="623.2953"/><text fill="#000000" font-family="sans-serif" font-size="11.2" font-style="italic" lengthAdjust="spacing" textLength="80.8" x="396.8" y="639.7234">&#171;presentation&#187;</text><text fill="#000000" font-family="sans-serif" font-size="11.2" lengthAdjust="spacing" textLength="149.6" x="362.4" y="652.9141">VerificationRequirementsUI</text><rect fill="#E2E2F0" height="37.5813" rx="2" ry="2" style="stroke:#181818;stroke-width:0.4000000000000001;" width="164" x="525.6" y="28.8"/><text fill="#000000" font-family="sans-serif" font-size="11.2" font-style="italic" lengthAdjust="spacing" textLength="64.8" x="575.2" y="45.2281">&#171;controller&#187;</text><text fill="#000000" font-family="sans-serif" font-size="11.2" lengthAdjust="spacing" textLength="152.8" x="531.2" y="58.4188">SelectJobOpeningController</text><rect fill="#E2E2F0" height="37.5813" rx="2" ry="2" style="stroke:#181818;stroke-width:0.4000000000000001;" width="164" x="525.6" y="623.2953"/><text fill="#000000" font-family="sans-serif" font-size="11.2" font-style="italic" lengthAdjust="spacing" textLength="64.8" x="575.2" y="639.7234">&#171;controller&#187;</text><text fill="#000000" font-family="sans-serif" font-size="11.2" lengthAdjust="spacing" textLength="152.8" x="531.2" y="652.9141">SelectJobOpeningController</text><rect fill="#E2E2F0" height="37.5813" rx="2" ry="2" style="stroke:#181818;stroke-width:0.4000000000000001;" width="218.4" x="697.6" y="28.8"/><text fill="#000000" font-family="sans-serif" font-size="11.2" font-style="italic" lengthAdjust="spacing" textLength="64.8" x="774.4" y="45.2281">&#171;controller&#187;</text><text fill="#000000" font-family="sans-serif" font-size="11.2" lengthAdjust="spacing" textLength="207.2" x="703.2" y="58.4188">ListJobOpeningApplicationsController</text><rect fill="#E2E2F0" height="37.5813" rx="2" ry="2" style="stroke:#181818;stroke-width:0.4000000000000001;" width="218.4" x="697.6" y="623.2953"/><text fill="#000000" font-family="sans-serif" font-size="11.2" font-style="italic" lengthAdjust="spacing" textLength="64.8" x="774.4" y="639.7234">&#171;controller&#187;</text><text fill="#000000" font-family="sans-serif" font-size="11.2" lengthAdjust="spacing" textLength="207.2" x="703.2" y="652.9141">ListJobOpeningApplicationsController</text><rect fill="#E2E2F0" height="37.5813" rx="2" ry="2" style="stroke:#181818;stroke-width:0.4000000000000001;" width="205.6" x="924" y="28.8"/><text fill="#000000" font-family="sans-serif" font-size="11.2" font-style="italic" lengthAdjust="spacing" textLength="64.8" x="994.4" y="45.2281">&#171;controller&#187;</text><text fill="#000000" font-family="sans-serif" font-size="11.2" lengthAdjust="spacing" textLength="194.4" x="929.6" y="58.4188">VerificationRequirementsController</text><rect fill="#E2E2F0" height="37.5813" rx="2" ry="2" style="stroke:#181818;stroke-width:0.4000000000000001;" width="205.6" x="924" y="623.2953"/><text fill="#000000" font-family="sans-serif" font-size="11.2" font-style="italic" lengthAdjust="spacing" textLength="64.8" x="994.4" y="639.7234">&#171;controller&#187;</text><text fill="#000000" font-family="sans-serif" font-size="11.2" lengthAdjust="spacing" textLength="194.4" x="929.6" y="652.9141">VerificationRequirementsController</text><rect fill="#E2E2F0" height="37.5813" rx="2" ry="2" style="stroke:#181818;stroke-width:0.4000000000000001;" width="210.4" x="1137.6" y="28.8"/><text fill="#000000" font-family="sans-serif" font-size="11.2" font-style="italic" lengthAdjust="spacing" textLength="64.8" x="1210.4" y="45.2281">&#171;controller&#187;</text><text fill="#000000" font-family="sans-serif" font-size="11.2" lengthAdjust="spacing" textLength="199.2" x="1143.2" y="58.4188">ChangeJobInterviewStatusController</text><rect fill="#E2E2F0" height="37.5813" rx="2" ry="2" style="stroke:#181818;stroke-width:0.4000000000000001;" width="210.4" x="1137.6" y="623.2953"/><text fill="#000000" font-family="sans-serif" font-size="11.2" font-style="italic" lengthAdjust="spacing" textLength="64.8" x="1210.4" y="639.7234">&#171;controller&#187;</text><text fill="#000000" font-family="sans-serif" font-size="11.2" lengthAdjust="spacing" textLength="199.2" x="1143.2" y="652.9141">ChangeJobInterviewStatusController</text><rect fill="#E2E2F0" height="37.5813" rx="2" ry="2" style="stroke:#181818;stroke-width:0.4000000000000001;" width="150.4" x="1356" y="28.8"/><text fill="#000000" font-family="sans-serif" font-size="11.2" font-style="italic" lengthAdjust="spacing" textLength="64.8" x="1398.8" y="45.2281">&#171;controller&#187;</text><text fill="#000000" font-family="sans-serif" font-size="11.2" lengthAdjust="spacing" textLength="139.2" x="1361.6" y="58.4188">ListJobOpeningController</text><rect fill="#E2E2F0" height="37.5813" rx="2" ry="2" style="stroke:#181818;stroke-width:0.4000000000000001;" width="150.4" x="1356" y="623.2953"/><text fill="#000000" font-family="sans-serif" font-size="11.2" font-style="italic" lengthAdjust="spacing" textLength="64.8" x="1398.8" y="639.7234">&#171;controller&#187;</text><text fill="#000000" font-family="sans-serif" font-size="11.2" lengthAdjust="spacing" textLength="139.2" x="1361.6" y="652.9141">ListJobOpeningController</text><rect fill="#E2E2F0" height="37.5813" rx="2" ry="2" style="stroke:#181818;stroke-width:0.4000000000000001;" width="114.4" x="1514.4" y="28.8"/><text fill="#000000" font-family="sans-serif" font-size="11.2" font-style="italic" lengthAdjust="spacing" textLength="48.8" x="1547.2" y="45.2281">&#171;service&#187;</text><text fill="#000000" font-family="sans-serif" font-size="11.2" lengthAdjust="spacing" textLength="103.2" x="1520" y="58.4188">JobOpeningService</text><rect fill="#E2E2F0" height="37.5813" rx="2" ry="2" style="stroke:#181818;stroke-width:0.4000000000000001;" width="114.4" x="1514.4" y="623.2953"/><text fill="#000000" font-family="sans-serif" font-size="11.2" font-style="italic" lengthAdjust="spacing" textLength="48.8" x="1547.2" y="639.7234">&#171;service&#187;</text><text fill="#000000" font-family="sans-serif" font-size="11.2" lengthAdjust="spacing" textLength="103.2" x="1520" y="652.9141">JobOpeningService</text><rect fill="#E2E2F0" height="37.5813" rx="2" ry="2" style="stroke:#181818;stroke-width:0.4000000000000001;" width="112" x="1636.8" y="28.8"/><text fill="#000000" font-family="sans-serif" font-size="11.2" font-style="italic" lengthAdjust="spacing" textLength="48.8" x="1668.4" y="45.2281">&#171;service&#187;</text><text fill="#000000" font-family="sans-serif" font-size="11.2" lengthAdjust="spacing" textLength="100.8" x="1642.4" y="58.4188">ApplicationService</text><rect fill="#E2E2F0" height="37.5813" rx="2" ry="2" style="stroke:#181818;stroke-width:0.4000000000000001;" width="112" x="1636.8" y="623.2953"/><text fill="#000000" font-family="sans-serif" font-size="11.2" font-style="italic" lengthAdjust="spacing" textLength="48.8" x="1668.4" y="639.7234">&#171;service&#187;</text><text fill="#000000" font-family="sans-serif" font-size="11.2" lengthAdjust="spacing" textLength="100.8" x="1642.4" y="652.9141">ApplicationService</text><rect fill="#E2E2F0" height="37.5813" rx="2" ry="2" style="stroke:#181818;stroke-width:0.4000000000000001;" width="116.8" x="1756.8" y="28.8"/><text fill="#000000" font-family="sans-serif" font-size="11.2" font-style="italic" lengthAdjust="spacing" textLength="48.8" x="1790.8" y="45.2281">&#171;service&#187;</text><text fill="#000000" font-family="sans-serif" font-size="11.2" lengthAdjust="spacing" textLength="105.6" x="1762.4" y="58.4188">JobInterviewService</text><rect fill="#E2E2F0" height="37.5813" rx="2" ry="2" style="stroke:#181818;stroke-width:0.4000000000000001;" width="116.8" x="1756.8" y="623.2953"/><text fill="#000000" font-family="sans-serif" font-size="11.2" font-style="italic" lengthAdjust="spacing" textLength="48.8" x="1790.8" y="639.7234">&#171;service&#187;</text><text fill="#000000" font-family="sans-serif" font-size="11.2" lengthAdjust="spacing" textLength="105.6" x="1762.4" y="652.9141">JobInterviewService</text><text fill="#000000" font-family="sans-serif" font-size="11.2" font-style="italic" lengthAdjust="spacing" textLength="67.2" x="1909.6" y="51.6281">&#171;repository&#187;</text><text fill="#000000" font-family="sans-serif" font-size="11.2" lengthAdjust="spacing" textLength="123.2" x="1881.6" y="64.8188">JobOpeningRepository</text><path d="M1931.2,12 C1931.2,4 1945.6,4 1945.6,4 C1945.6,4 1960,4 1960,12 L1960,32.8 C1960,40.8 1945.6,40.8 1945.6,40.8 C1945.6,40.8 1931.2,40.8 1931.2,32.8 L1931.2,12 " fill="#E2E2F0" style="stroke:#181818;stroke-width:1.2000000000000002;"/><path d="M1931.2,12 C1931.2,20 1945.6,20 1945.6,20 C1945.6,20 1960,20 1960,12 " fill="none" style="stroke:#181818;stroke-width:1.2000000000000002;"/><text fill="#000000" font-family="sans-serif" font-size="11.2" font-style="italic" lengthAdjust="spacing" textLength="67.2" x="1909.6" y="634.1234">&#171;repository&#187;</text><text fill="#000000" font-family="sans-serif" font-size="11.2" lengthAdjust="spacing" textLength="123.2" x="1881.6" y="647.3141">JobOpeningRepository</text><path d="M1931.2,657.6766 C1931.2,649.6766 1945.6,649.6766 1945.6,649.6766 C1945.6,649.6766 1960,649.6766 1960,657.6766 L1960,678.4766 C1960,686.4766 1945.6,686.4766 1945.6,686.4766 C1945.6,686.4766 1931.2,686.4766 1931.2,678.4766 L1931.2,657.6766 " fill="#E2E2F0" style="stroke:#181818;stroke-width:1.2000000000000002;"/><path d="M1931.2,657.6766 C1931.2,665.6766 1945.6,665.6766 1945.6,665.6766 C1945.6,665.6766 1960,665.6766 1960,657.6766 " fill="none" style="stroke:#181818;stroke-width:1.2000000000000002;"/><text fill="#000000" font-family="sans-serif" font-size="11.2" font-style="italic" lengthAdjust="spacing" textLength="67.2" x="2044.4" y="51.6281">&#171;repository&#187;</text><text fill="#000000" font-family="sans-serif" font-size="11.2" lengthAdjust="spacing" textLength="120.8" x="2017.6" y="64.8188">ApplicationRepository</text><path d="M2066,12 C2066,4 2080.4,4 2080.4,4 C2080.4,4 2094.8,4 2094.8,12 L2094.8,32.8 C2094.8,40.8 2080.4,40.8 2080.4,40.8 C2080.4,40.8 2066,40.8 2066,32.8 L2066,12 " fill="#E2E2F0" style="stroke:#181818;stroke-width:1.2000000000000002;"/><path d="M2066,12 C2066,20 2080.4,20 2080.4,20 C2080.4,20 2094.8,20 2094.8,12 " fill="none" style="stroke:#181818;stroke-width:1.2000000000000002;"/><text fill="#000000" font-family="sans-serif" font-size="11.2" font-style="italic" lengthAdjust="spacing" textLength="67.2" x="2044.4" y="634.1234">&#171;repository&#187;</text><text fill="#000000" font-family="sans-serif" font-size="11.2" lengthAdjust="spacing" textLength="120.8" x="2017.6" y="647.3141">ApplicationRepository</text><path d="M2066,657.6766 C2066,649.6766 2080.4,649.6766 2080.4,649.6766 C2080.4,649.6766 2094.8,649.6766 2094.8,657.6766 L2094.8,678.4766 C2094.8,686.4766 2080.4,686.4766 2080.4,686.4766 C2080.4,686.4766 2066,686.4766 2066,678.4766 L2066,657.6766 " fill="#E2E2F0" style="stroke:#181818;stroke-width:1.2000000000000002;"/><path d="M2066,657.6766 C2066,665.6766 2080.4,665.6766 2080.4,665.6766 C2080.4,665.6766 2094.8,665.6766 2094.8,657.6766 " fill="none" style="stroke:#181818;stroke-width:1.2000000000000002;"/><text fill="#000000" font-family="sans-serif" font-size="11.2" font-style="italic" lengthAdjust="spacing" textLength="67.2" x="2180.4" y="51.6281">&#171;repository&#187;</text><text fill="#000000" font-family="sans-serif" font-size="11.2" lengthAdjust="spacing" textLength="125.6" x="2151.2" y="64.8188">JobInterviewRepository</text><path d="M2202,12 C2202,4 2216.4,4 2216.4,4 C2216.4,4 2230.8,4 2230.8,12 L2230.8,32.8 C2230.8,40.8 2216.4,40.8 2216.4,40.8 C2216.4,40.8 2202,40.8 2202,32.8 L2202,12 " fill="#E2E2F0" style="stroke:#181818;stroke-width:1.2000000000000002;"/><path d="M2202,12 C2202,20 2216.4,20 2216.4,20 C2216.4,20 2230.8,20 2230.8,12 " fill="none" style="stroke:#181818;stroke-width:1.2000000000000002;"/><text fill="#000000" font-family="sans-serif" font-size="11.2" font-style="italic" lengthAdjust="spacing" textLength="67.2" x="2180.4" y="634.1234">&#171;repository&#187;</text><text fill="#000000" font-family="sans-serif" font-size="11.2" lengthAdjust="spacing" textLength="125.6" x="2151.2" y="647.3141">JobInterviewRepository</text><path d="M2202,657.6766 C2202,649.6766 2216.4,649.6766 2216.4,649.6766 C2216.4,649.6766 2230.8,649.6766 2230.8,657.6766 L2230.8,678.4766 C2230.8,686.4766 2216.4,686.4766 2216.4,686.4766 C2216.4,686.4766 2202,686.4766 2202,678.4766 L2202,657.6766 " fill="#E2E2F0" style="stroke:#181818;stroke-width:1.2000000000000002;"/><path d="M2202,657.6766 C2202,665.6766 2216.4,665.6766 2216.4,665.6766 C2216.4,665.6766 2230.8,665.6766 2230.8,657.6766 " fill="none" style="stroke:#181818;stroke-width:1.2000000000000002;"/><rect fill="#E2E2F0" height="24.3906" rx="2" ry="2" style="stroke:#181818;stroke-width:0.4000000000000001;" width="121.6" x="2289.6" y="41.9906"/><text fill="#000000" font-family="sans-serif" font-size="11.2" lengthAdjust="spacing" textLength="110.4" x="2295.2" y="58.4188">RequirementsPlugin</text><rect fill="#E2E2F0" height="24.3906" rx="2" ry="2" style="stroke:#181818;stroke-width:0.4000000000000001;" width="121.6" x="2289.6" y="623.2953"/><text fill="#000000" font-family="sans-serif" font-size="11.2" lengthAdjust="spacing" textLength="110.4" x="2295.2" y="639.7234">RequirementsPlugin</text><rect fill="#FFFFFF" height="534.5141" style="stroke:#181818;stroke-width:0.8000000000000002;" width="8" x="53.2" y="75.1813"/><rect fill="#FFFFFF" height="164.1391" style="stroke:#181818;stroke-width:0.8000000000000002;" width="8" x="433.2" y="92.2297"/><rect fill="#FFFFFF" height="337.0781" style="stroke:#181818;stroke-width:0.8000000000000002;" width="8" x="433.2" y="279.8172"/><rect fill="#FFFFFF" height="117.2422" style="stroke:#181818;stroke-width:0.8000000000000002;" width="8" x="603.6" y="115.6781"/><rect fill="#FFFFFF" height="117.2422" style="stroke:#181818;stroke-width:0.8000000000000002;" width="8" x="802.8" y="303.2656"/><rect fill="#FFFFFF" height="23.4484" style="stroke:#181818;stroke-width:0.8000000000000002;" width="8" x="1022.8" y="463.4047"/><rect fill="#FFFFFF" height="82.3453" style="stroke:#181818;stroke-width:0.8000000000000002;" width="8" x="1022.8" y="510.3016"/><rect fill="#FFFFFF" height="70.3453" style="stroke:#181818;stroke-width:0.8000000000000002;" width="8" x="1567.6" y="139.1266"/><rect fill="#FFFFFF" height="70.3453" style="stroke:#181818;stroke-width:0.8000000000000002;" width="8" x="1688.8" y="326.7141"/><rect fill="#FFFFFF" height="23.4484" style="stroke:#181818;stroke-width:0.8000000000000002;" width="8" x="1941.6" y="162.575"/><rect fill="#FFFFFF" height="23.4484" style="stroke:#181818;stroke-width:0.8000000000000002;" width="8" x="2076.4" y="350.1625"/><rect fill="#FFFFFF" height="23.4484" style="stroke:#181818;stroke-width:0.8000000000000002;" width="8" x="2346.4" y="533.75"/><polygon fill="#181818" points="423.6,89.0297,431.6,92.2297,423.6,95.4297,426.8,92.2297" style="stroke:#181818;stroke-width:0.8000000000000002;"/><line style="stroke:#181818;stroke-width:0.8000000000000002;" x1="61.2" x2="428.4" y1="92.2297" y2="92.2297"/><text fill="#000000" font-family="sans-serif" font-size="10.4" font-weight="bold" lengthAdjust="spacing" textLength="7.2" x="66.8" y="88.4359">1</text><text fill="#000000" font-family="sans-serif" font-size="10.4" lengthAdjust="spacing" textLength="305.6" x="77.2" y="88.4359">asks to verify requirements of applications for a job opening</text><polygon fill="#181818" points="594,112.4781,602,115.6781,594,118.8781,597.2,115.6781" style="stroke:#181818;stroke-width:0.8000000000000002;"/><line style="stroke:#181818;stroke-width:0.8000000000000002;" x1="441.2" x2="598.8" y1="115.6781" y2="115.6781"/><text fill="#000000" font-family="sans-serif" font-size="10.4" font-weight="bold" lengthAdjust="spacing" textLength="7.2" x="446.8" y="111.8844">2</text><text fill="#000000" font-family="sans-serif" font-size="10.4" lengthAdjust="spacing" textLength="94.4" x="457.2" y="111.8844">selectJobOpening()</text><polygon fill="#181818" points="1558,135.9266,1566,139.1266,1558,142.3266,1561.2,139.1266" style="stroke:#181818;stroke-width:0.8000000000000002;"/><line style="stroke:#181818;stroke-width:0.8000000000000002;stroke-dasharray:2.0,2.0;" x1="611.6" x2="1562.8" y1="139.1266" y2="139.1266"/><text fill="#000000" font-family="sans-serif" font-size="10.4" font-weight="bold" lengthAdjust="spacing" textLength="7.2" x="617.2" y="135.3328">3</text><text fill="#000000" font-family="sans-serif" font-size="10.4" lengthAdjust="spacing" textLength="82.4" x="627.6" y="135.3328">allJobOpenings()</text><polygon fill="#181818" points="1932,159.375,1940,162.575,1932,165.775,1935.2,162.575" style="stroke:#181818;stroke-width:0.8000000000000002;"/><line style="stroke:#181818;stroke-width:0.8000000000000002;" x1="1575.6" x2="1936.8" y1="162.575" y2="162.575"/><text fill="#000000" font-family="sans-serif" font-size="10.4" font-weight="bold" lengthAdjust="spacing" textLength="7.2" x="1581.2" y="158.7813">4</text><text fill="#000000" font-family="sans-serif" font-size="10.4" lengthAdjust="spacing" textLength="40" x="1591.6" y="158.7813">findAll()</text><polygon fill="#181818" points="1584.4,182.8234,1576.4,186.0234,1584.4,189.2234,1581.2,186.0234" style="stroke:#181818;stroke-width:0.8000000000000002;"/><line style="stroke:#181818;stroke-width:0.8000000000000002;stroke-dasharray:2.0,2.0;" x1="1579.6" x2="1944.8" y1="186.0234" y2="186.0234"/><text fill="#000000" font-family="sans-serif" font-size="10.4" font-weight="bold" lengthAdjust="spacing" textLength="7.2" x="1589.2" y="182.2297">5</text><text fill="#000000" font-family="sans-serif" font-size="10.4" lengthAdjust="spacing" textLength="113.6" x="1599.6" y="182.2297">list of all job openings</text><polygon fill="#181818" points="620.4,206.2719,612.4,209.4719,620.4,212.6719,617.2,209.4719" style="stroke:#181818;stroke-width:0.8000000000000002;"/><line style="stroke:#181818;stroke-width:0.8000000000000002;stroke-dasharray:2.0,2.0;" x1="615.6" x2="1570.8" y1="209.4719" y2="209.4719"/><text fill="#000000" font-family="sans-serif" font-size="10.4" font-weight="bold" lengthAdjust="spacing" textLength="7.2" x="625.2" y="205.6781">6</text><text fill="#000000" font-family="sans-serif" font-size="10.4" lengthAdjust="spacing" textLength="113.6" x="635.6" y="205.6781">list of all job openings</text><polygon fill="#181818" points="450,229.7203,442,232.9203,450,236.1203,446.8,232.9203" style="stroke:#181818;stroke-width:0.8000000000000002;"/><line style="stroke:#181818;stroke-width:0.8000000000000002;stroke-dasharray:2.0,2.0;" x1="445.2" x2="606.8" y1="232.9203" y2="232.9203"/><text fill="#000000" font-family="sans-serif" font-size="10.4" font-weight="bold" lengthAdjust="spacing" textLength="7.2" x="454.8" y="229.1266">7</text><text fill="#000000" font-family="sans-serif" font-size="10.4" lengthAdjust="spacing" textLength="113.6" x="465.2" y="229.1266">list of all job openings</text><polygon fill="#181818" points="70,253.1688,62,256.3688,70,259.5688,66.8,256.3688" style="stroke:#181818;stroke-width:0.8000000000000002;"/><line style="stroke:#181818;stroke-width:0.8000000000000002;stroke-dasharray:2.0,2.0;" x1="65.2" x2="436.4" y1="256.3688" y2="256.3688"/><text fill="#000000" font-family="sans-serif" font-size="10.4" font-weight="bold" lengthAdjust="spacing" textLength="7.2" x="74.8" y="252.575">8</text><text fill="#000000" font-family="sans-serif" font-size="10.4" lengthAdjust="spacing" textLength="200.8" x="85.2" y="252.575">lists job opening and asks to select one</text><polygon fill="#181818" points="423.6,276.6172,431.6,279.8172,423.6,283.0172,426.8,279.8172" style="stroke:#181818;stroke-width:0.8000000000000002;"/><line style="stroke:#181818;stroke-width:0.8000000000000002;" x1="61.2" x2="428.4" y1="279.8172" y2="279.8172"/><text fill="#000000" font-family="sans-serif" font-size="10.4" font-weight="bold" lengthAdjust="spacing" textLength="7.2" x="66.8" y="276.0234">9</text><text fill="#000000" font-family="sans-serif" font-size="10.4" lengthAdjust="spacing" textLength="98.4" x="77.2" y="276.0234">selects job opening</text><polygon fill="#181818" points="793.2,300.0656,801.2,303.2656,793.2,306.4656,796.4,303.2656" style="stroke:#181818;stroke-width:0.8000000000000002;"/><line style="stroke:#181818;stroke-width:0.8000000000000002;" x1="441.2" x2="798" y1="303.2656" y2="303.2656"/><text fill="#000000" font-family="sans-serif" font-size="10.4" font-weight="bold" lengthAdjust="spacing" textLength="14.4" x="446.8" y="299.4719">10</text><text fill="#000000" font-family="sans-serif" font-size="10.4" lengthAdjust="spacing" textLength="281.6" x="464.4" y="299.4719">allApplicationsOfJobOpening(jobOpening.jobReference()</text><polygon fill="#181818" points="1679.2,323.5141,1687.2,326.7141,1679.2,329.9141,1682.4,326.7141" style="stroke:#181818;stroke-width:0.8000000000000002;"/><line style="stroke:#181818;stroke-width:0.8000000000000002;" x1="810.8" x2="1684" y1="326.7141" y2="326.7141"/><text fill="#000000" font-family="sans-serif" font-size="10.4" font-weight="bold" lengthAdjust="spacing" textLength="14.4" x="816.4" y="322.9203">11</text><text fill="#000000" font-family="sans-serif" font-size="10.4" lengthAdjust="spacing" textLength="81.6" x="834" y="322.9203">allApplications()</text><polygon fill="#181818" points="2066.8,346.9625,2074.8,350.1625,2066.8,353.3625,2070,350.1625" style="stroke:#181818;stroke-width:0.8000000000000002;"/><line style="stroke:#181818;stroke-width:0.8000000000000002;" x1="1696.8" x2="2071.6" y1="350.1625" y2="350.1625"/><text fill="#000000" font-family="sans-serif" font-size="10.4" font-weight="bold" lengthAdjust="spacing" textLength="14.4" x="1702.4" y="346.3688">12</text><text fill="#000000" font-family="sans-serif" font-size="10.4" lengthAdjust="spacing" textLength="81.6" x="1720" y="346.3688">allApplications()</text><polygon fill="#181818" points="1705.6,370.4109,1697.6,373.6109,1705.6,376.8109,1702.4,373.6109" style="stroke:#181818;stroke-width:0.8000000000000002;"/><line style="stroke:#181818;stroke-width:0.8000000000000002;stroke-dasharray:2.0,2.0;" x1="1700.8" x2="2079.6" y1="373.6109" y2="373.6109"/><text fill="#000000" font-family="sans-serif" font-size="10.4" font-weight="bold" lengthAdjust="spacing" textLength="14.4" x="1710.4" y="369.8172">13</text><text fill="#000000" font-family="sans-serif" font-size="10.4" lengthAdjust="spacing" textLength="189.6" x="1728" y="369.8172">Iterable&lt;Application&gt; allApplications</text><polygon fill="#181818" points="819.6,393.8594,811.6,397.0594,819.6,400.2594,816.4,397.0594" style="stroke:#181818;stroke-width:0.8000000000000002;"/><line style="stroke:#181818;stroke-width:0.8000000000000002;stroke-dasharray:2.0,2.0;" x1="814.8" x2="1692" y1="397.0594" y2="397.0594"/><text fill="#000000" font-family="sans-serif" font-size="10.4" font-weight="bold" lengthAdjust="spacing" textLength="14.4" x="824.4" y="393.2656">14</text><text fill="#000000" font-family="sans-serif" font-size="10.4" lengthAdjust="spacing" textLength="189.6" x="842" y="393.2656">Iterable&lt;Application&gt; allApplications</text><polygon fill="#181818" points="450,417.3078,442,420.5078,450,423.7078,446.8,420.5078" style="stroke:#181818;stroke-width:0.8000000000000002;"/><line style="stroke:#181818;stroke-width:0.8000000000000002;stroke-dasharray:2.0,2.0;" x1="445.2" x2="806" y1="420.5078" y2="420.5078"/><text fill="#000000" font-family="sans-serif" font-size="10.4" font-weight="bold" lengthAdjust="spacing" textLength="14.4" x="454.8" y="416.7141">15</text><text fill="#000000" font-family="sans-serif" font-size="10.4" lengthAdjust="spacing" textLength="188.8" x="472.4" y="416.7141">Iterable&lt;Application&gt; applicationList</text><path d="M348.8,432.5078 L408,432.5078 L408,438.3563 L400,446.3563 L348.8,446.3563 L348.8,432.5078 " fill="#EEEEEE" style="stroke:#000000;stroke-width:1.2000000000000002;"/><rect fill="none" height="154.5391" style="stroke:#000000;stroke-width:1.2000000000000002;" width="2070.4" x="348.8" y="432.5078"/><text fill="#000000" font-family="sans-serif" font-size="10.4" font-weight="bold" lengthAdjust="spacing" textLength="23.2" x="360.8" y="443.3625">loop</text><text fill="#000000" font-family="sans-serif" font-size="8.8" font-weight="bold" lengthAdjust="spacing" textLength="96" x="420" y="442.6156">[for each application]</text><polygon fill="#181818" points="1013.2,460.2047,1021.2,463.4047,1013.2,466.6047,1016.4,463.4047" style="stroke:#181818;stroke-width:0.8000000000000002;"/><line style="stroke:#181818;stroke-width:0.8000000000000002;" x1="441.2" x2="1018" y1="463.4047" y2="463.4047"/><text fill="#000000" font-family="sans-serif" font-size="10.4" font-weight="bold" lengthAdjust="spacing" textLength="14.4" x="446.8" y="459.6109">16</text><text fill="#000000" font-family="sans-serif" font-size="10.4" lengthAdjust="spacing" textLength="323.2" x="464.4" y="459.6109">mapCandidate(candidateRequirements.candidateRequirements())</text><polygon fill="#181818" points="450,483.6531,442,486.8531,450,490.0531,446.8,486.8531" style="stroke:#181818;stroke-width:0.8000000000000002;"/><line style="stroke:#181818;stroke-width:0.8000000000000002;stroke-dasharray:2.0,2.0;" x1="445.2" x2="1026" y1="486.8531" y2="486.8531"/><text fill="#000000" font-family="sans-serif" font-size="10.4" font-weight="bold" lengthAdjust="spacing" textLength="14.4" x="454.8" y="483.0594">17</text><text fill="#000000" font-family="sans-serif" font-size="10.4" lengthAdjust="spacing" textLength="88.8" x="472.4" y="483.0594">map of Candidate</text><polygon fill="#181818" points="1013.2,507.1016,1021.2,510.3016,1013.2,513.5016,1016.4,510.3016" style="stroke:#181818;stroke-width:0.8000000000000002;"/><line style="stroke:#181818;stroke-width:0.8000000000000002;" x1="441.2" x2="1018" y1="510.3016" y2="510.3016"/><text fill="#000000" font-family="sans-serif" font-size="10.4" font-weight="bold" lengthAdjust="spacing" textLength="14.4" x="446.8" y="506.5078">18</text><text fill="#000000" font-family="sans-serif" font-size="10.4" lengthAdjust="spacing" textLength="232.8" x="464.4" y="506.5078">pluginRequirements(path, clientRequirements)</text><polygon fill="#181818" points="2336.8,530.55,2344.8,533.75,2336.8,536.95,2340,533.75" style="stroke:#181818;stroke-width:0.8000000000000002;"/><line style="stroke:#181818;stroke-width:0.8000000000000002;" x1="1030.8" x2="2341.6" y1="533.75" y2="533.75"/><text fill="#000000" font-family="sans-serif" font-size="10.4" font-weight="bold" lengthAdjust="spacing" textLength="14.4" x="1036.4" y="529.9563">19</text><text fill="#000000" font-family="sans-serif" font-size="10.4" lengthAdjust="spacing" textLength="232.8" x="1054" y="529.9563">pluginRequirements(path, clientRequirements)</text><polygon fill="#181818" points="1039.6,553.9984,1031.6,557.1984,1039.6,560.3984,1036.4,557.1984" style="stroke:#181818;stroke-width:0.8000000000000002;"/><line style="stroke:#181818;stroke-width:0.8000000000000002;stroke-dasharray:2.0,2.0;" x1="1034.8" x2="2349.6" y1="557.1984" y2="557.1984"/><text fill="#000000" font-family="sans-serif" font-size="10.4" font-weight="bold" lengthAdjust="spacing" textLength="14.4" x="1044.4" y="553.4047">20</text><text fill="#000000" font-family="sans-serif" font-size="10.4" lengthAdjust="spacing" textLength="139.2" x="1062" y="553.4047">result(accepted or declined)</text><polygon fill="#181818" points="450,577.4469,442,580.6469,450,583.8469,446.8,580.6469" style="stroke:#181818;stroke-width:0.8000000000000002;"/><line style="stroke:#181818;stroke-width:0.8000000000000002;stroke-dasharray:2.0,2.0;" x1="445.2" x2="1022" y1="580.6469" y2="580.6469"/><text fill="#000000" font-family="sans-serif" font-size="10.4" font-weight="bold" lengthAdjust="spacing" textLength="14.4" x="454.8" y="576.8531">21</text><text fill="#000000" font-family="sans-serif" font-size="10.4" lengthAdjust="spacing" textLength="139.2" x="472.4" y="576.8531">result(accepted or declined)</text><polygon fill="#181818" points="66,606.4953,58,609.6953,66,612.8953,62.8,609.6953" style="stroke:#181818;stroke-width:0.8000000000000002;"/><line style="stroke:#181818;stroke-width:0.8000000000000002;stroke-dasharray:2.0,2.0;" x1="61.2" x2="432.4" y1="609.6953" y2="609.6953"/><text fill="#000000" font-family="sans-serif" font-size="10.4" font-weight="bold" lengthAdjust="spacing" textLength="14.4" x="70.8" y="605.9016">22</text><text fill="#000000" font-family="sans-serif" font-size="10.4" lengthAdjust="spacing" textLength="335.2" x="88.4" y="605.9016">display list of result of all applications of the selected job opening</text><!--SRC=[lLV1ZjiW4BtdApWcKhCV44MHLZcbQhMhHEsTsEE4BG4AE5N-lcCxQuEDRTnDroTWPdYFuGrWcbifyiiHz6n64oirsUR6oWlexrJGKp6igBOiOOeAItw2PXbBg6LIxE5tpZHSG5ZpOqVMQwN1OASqRZOpF_8071BxLHvV50WcJbifh9QSWyR8fEvWd1lrZPaFnZmhnU-4JLnytnhZehTdAaw0-3jXGLyP_3bWHdBpsFLwGKt0eK1C0BrDrMfDxoHZpDLRGS1tbb9BZzI00xy79Gr34TtGLTSTzAwT7GOHtYw9VlT2kEnABNIrI-vVoq2Mco4fhmWrlmonabmBfnlHZft8Z517L2J3eg7aJHw9hDBGmDR4-i4Qvm52I7UWVbR4j8ppHO13_moDSzCglW7C9LBgwWuJntapR88yEc6DJtT63yQHm8faJAJFd8z0D24X56V2y88GXsD9bdlEkRl9ffalXSd0zVB6TlOVqJkP7TdAmMAOn256PKDAHpBjOgqO61URK97MHLgfdqW1GKP3jJVrNAYWJBVQ7rZfKVTNMMckxILpol-jRZvXSmyPQ109OArqIYK6pJyLelZXEWANJOUrmyXZrOtrEHHVO7uVrJikXe7xm4DLtCEXTPO4Lx_3kumUEQmTwwPDhGFaQBc7scmiB_6oYgCOoJ6uTt7w6Ql47fvDfu09dWTnYkTIgl9gny2pEszi6KSy8rVaGjKMZpA6BnwO9-yjr_qfE3fVB2QyCgQSmLFs0DaNzqAzWad7xzIB8JAZYkSdvfddYjhp5v9mXZtNy1aft13NybgI-pZBxfoDKm1l6Piy_87BkPtJ905b8IKe_nIGae1q4TpS8IAFKDWm8H3fVvLSy2sICgCulTMleehY-_l8-pF0CNk6-wC1sNklXl9pIBV_NVu2]--></g></svg>