<?xml version="1.0" encoding="us-ascii" standalone="no"?><svg xmlns="http://www.w3.org/2000/svg" xmlns:xlink="http://www.w3.org/1999/xlink" contentStyleType="text/css" height="749.6px" preserveAspectRatio="none" style="width:796px;height:749px;background:#FFFFFF;" version="1.1" viewBox="0 0 796 749" width="796px" zoomAndPan="magnify"><defs/><g><text fill="#000000" font-family="sans-serif" font-size="11.2" font-weight="bold" lengthAdjust="spacing" textLength="84" x="350.4" y="18.8281">Domain Model</text><!--cluster Customer Manager Aggregate--><g id="cluster_Customer Manager Aggregate"><rect fill="none" height="92" rx="2" ry="2" style="stroke:#000000;stroke-width:1.2000000000000002;" width="382.8" x="36.4" y="35.5906"/><text fill="#000000" font-family="sans-serif" font-size="11.2" font-weight="bold" lengthAdjust="spacing" textLength="171.2" x="142.2" y="48.0188">Customer Manager Aggregate</text></g><!--cluster Job Requirements Specification Aggregate--><g id="cluster_Job Requirements Specification Aggregate"><rect fill="none" height="92" rx="2" ry="2" style="stroke:#000000;stroke-width:1.2000000000000002;" width="413.6" x="5.6" y="653.1906"/><text fill="#000000" font-family="sans-serif" font-size="11.2" font-weight="bold" lengthAdjust="spacing" textLength="243.2" x="90.8" y="665.6188">Job Requirements Specification Aggregate</text></g><!--cluster Job Opening Aggregate--><g id="cluster_Job Opening Aggregate"><rect fill="none" height="487.2" rx="2" ry="2" style="stroke:#000000;stroke-width:1.2000000000000002;" width="490.8" x="300.4" y="146.7906"/><text fill="#000000" font-family="sans-serif" font-size="11.2" font-weight="bold" lengthAdjust="spacing" textLength="134.4" x="478.6" y="159.2188">Job Opening Aggregate</text></g><!--class CustomerManager--><g id="elem_CustomerManager"><rect codeLine="27" fill="#F0FFFF" height="50.2031" id="CustomerManager" rx="2" ry="2" style="stroke:#000000;stroke-width:0.4000000000000001;" width="127.2" x="49.2" y="63.9906"/><ellipse cx="61.2" cy="85.8922" fill="#ADD1B2" rx="8.8" ry="8.8" style="stroke:#181818;stroke-width:0.8000000000000002;"/><path d="M64.4914,90.6922 L58.3156,90.6922 L58.3156,80.7777 L64.4914,80.7777 L64.4914,82.5043 L60.2746,82.5043 L60.2746,84.6426 L64.093,84.6426 L64.093,86.3691 L60.2746,86.3691 L60.2746,88.9656 L64.4914,88.9656 Z " fill="#000000"/><text fill="#000000" font-family="sans-serif" font-size="9.6" font-style="italic" lengthAdjust="spacing" textLength="34.4" x="106" y="77.2719">&#171;entity&#187;</text><text fill="#000000" font-family="sans-serif" font-size="9.6" font-style="italic" lengthAdjust="spacing" textLength="28" x="109.2" y="88.5781">&#171;root&#187;</text><text fill="#000000" font-family="sans-serif" font-size="11.2" lengthAdjust="spacing" textLength="101.6" x="72.4" y="101.4313">CustomerManager</text><line style="stroke:#000000;stroke-width:0.4000000000000001;" x1="50" x2="175.6" y1="107.7938" y2="107.7938"/></g><!--entity loginManager--><g id="elem_loginManager"><rect fill="#F0FFDD" height="31.1813" rx="2" ry="2" style="stroke:#000000;stroke-width:0.4000000000000001;" width="96" x="310.4" y="73.5906"/><text fill="#000000" font-family="sans-serif" font-size="11.2" font-style="italic" lengthAdjust="spacing" textLength="80" x="318.4" y="86.8188">&#171;Value Object&#187;</text><text fill="#000000" font-family="sans-serif" font-size="11.2" lengthAdjust="spacing" textLength="76" x="320.4" y="100.0094">loginManager</text></g><!--class JobRequirementsSpecification--><g id="elem_JobRequirementsSpecification"><rect codeLine="36" fill="#F0FFFF" height="50.2031" id="JobRequirementsSpecification" rx="2" ry="2" style="stroke:#000000;stroke-width:0.4000000000000001;" width="188.8" x="18.4" y="681.5906"/><ellipse cx="30.4" cy="703.4922" fill="#ADD1B2" rx="8.8" ry="8.8" style="stroke:#181818;stroke-width:0.8000000000000002;"/><path d="M33.6914,708.2922 L27.5156,708.2922 L27.5156,698.3777 L33.6914,698.3777 L33.6914,700.1043 L29.4746,700.1043 L29.4746,702.2426 L33.293,702.2426 L33.293,703.9691 L29.4746,703.9691 L29.4746,706.5656 L33.6914,706.5656 Z " fill="#000000"/><text fill="#000000" font-family="sans-serif" font-size="9.6" font-style="italic" lengthAdjust="spacing" textLength="34.4" x="106" y="694.8719">&#171;entity&#187;</text><text fill="#000000" font-family="sans-serif" font-size="9.6" font-style="italic" lengthAdjust="spacing" textLength="28" x="109.2" y="706.1781">&#171;root&#187;</text><text fill="#000000" font-family="sans-serif" font-size="11.2" lengthAdjust="spacing" textLength="163.2" x="41.6" y="719.0313">JobRequirementsSpecification</text><line style="stroke:#000000;stroke-width:0.4000000000000001;" x1="19.2" x2="206.4" y1="725.3938" y2="725.3938"/></g><!--entity Requirements--><g id="elem_Requirements"><rect fill="#F0FFDD" height="31.1813" rx="2" ry="2" style="stroke:#000000;stroke-width:0.4000000000000001;" width="96" x="310.4" y="691.1906"/><text fill="#000000" font-family="sans-serif" font-size="11.2" font-style="italic" lengthAdjust="spacing" textLength="80" x="318.4" y="704.4188">&#171;Value Object&#187;</text><text fill="#000000" font-family="sans-serif" font-size="11.2" lengthAdjust="spacing" textLength="76" x="320.4" y="717.6094">Requirements</text></g><!--class JobOpening--><g id="elem_JobOpening"><rect codeLine="46" fill="#F0FFFF" height="50.2031" id="JobOpening" rx="2" ry="2" style="stroke:#000000;stroke-width:0.4000000000000001;" width="90.4" x="313.2" y="372.7906"/><ellipse cx="325.2" cy="394.6922" fill="#ADD1B2" rx="8.8" ry="8.8" style="stroke:#181818;stroke-width:0.8000000000000002;"/><path d="M328.4914,399.4922 L322.3156,399.4922 L322.3156,389.5777 L328.4914,389.5777 L328.4914,391.3043 L324.2746,391.3043 L324.2746,393.4426 L328.093,393.4426 L328.093,395.1691 L324.2746,395.1691 L324.2746,397.7656 L328.4914,397.7656 Z " fill="#000000"/><text fill="#000000" font-family="sans-serif" font-size="9.6" font-style="italic" lengthAdjust="spacing" textLength="34.4" x="351.6" y="386.0719">&#171;entity&#187;</text><text fill="#000000" font-family="sans-serif" font-size="9.6" font-style="italic" lengthAdjust="spacing" textLength="28" x="354.8" y="397.3781">&#171;root&#187;</text><text fill="#000000" font-family="sans-serif" font-size="11.2" lengthAdjust="spacing" textLength="64.8" x="336.4" y="410.2313">JobOpening</text><line style="stroke:#000000;stroke-width:0.4000000000000001;" x1="314" x2="402.8" y1="416.5938" y2="416.5938"/></g><g id="elem_GMN28"><path d="M619.2,478.7906 L619.2,491.7986 L561.92,490.5186 L619.2,498.1986 L619.2,523.5359 A0,0 0 0 0 619.2,523.5359 L778.4,523.5359 A0,0 0 0 0 778.4,523.5359 L778.4,486.7906 L770.4,478.7906 L619.2,478.7906 A0,0 0 0 0 619.2,478.7906 " fill="#FEFFDD" style="stroke:#181818;stroke-width:0.4000000000000001;"/><path d="M770.4,478.7906 L770.4,486.7906 L778.4,486.7906 L770.4,478.7906 " fill="#FEFFDD" style="stroke:#181818;stroke-width:0.4000000000000001;"/><text fill="#000000" font-family="sans-serif" font-size="10.4" lengthAdjust="spacing" textLength="142.4" x="624" y="492.8453">Can be one of the following:</text><text fill="#000000" font-family="sans-serif" font-size="10.4" lengthAdjust="spacing" textLength="55.2" x="624" y="505.0938">- full-time</text><text fill="#000000" font-family="sans-serif" font-size="10.4" lengthAdjust="spacing" textLength="58.4" x="624" y="517.3422">- part-time</text></g><g id="elem_GMN31"><path d="M619.2,393.5906 L619.2,421.1986 L561.92,426.1426 L619.2,427.5986 L619.2,450.5844 A0,0 0 0 0 619.2,450.5844 L778.4,450.5844 A0,0 0 0 0 778.4,450.5844 L778.4,401.5906 L770.4,393.5906 L619.2,393.5906 A0,0 0 0 0 619.2,393.5906 " fill="#FEFFDD" style="stroke:#181818;stroke-width:0.4000000000000001;"/><path d="M770.4,393.5906 L770.4,401.5906 L778.4,401.5906 L770.4,393.5906 " fill="#FEFFDD" style="stroke:#181818;stroke-width:0.4000000000000001;"/><text fill="#000000" font-family="sans-serif" font-size="10.4" lengthAdjust="spacing" textLength="142.4" x="624" y="407.6453">Can be one of the following:</text><text fill="#000000" font-family="sans-serif" font-size="10.4" lengthAdjust="spacing" textLength="44.8" x="624" y="419.8938">- remote</text><text fill="#000000" font-family="sans-serif" font-size="10.4" lengthAdjust="spacing" textLength="41.6" x="624" y="432.1422">- hybrid</text><text fill="#000000" font-family="sans-serif" font-size="10.4" lengthAdjust="spacing" textLength="40.8" x="624" y="444.3906">- onsite</text></g><g id="elem_GMN34"><path d="M619.2,174.7906 L619.2,201.7186 L561.92,197.2066 L619.2,208.1186 L619.2,256.2813 A0,0 0 0 0 619.2,256.2813 L778.4,256.2813 A0,0 0 0 0 778.4,256.2813 L778.4,182.7906 L770.4,174.7906 L619.2,174.7906 A0,0 0 0 0 619.2,174.7906 " fill="#FEFFDD" style="stroke:#181818;stroke-width:0.4000000000000001;"/><path d="M770.4,174.7906 L770.4,182.7906 L778.4,182.7906 L770.4,174.7906 " fill="#FEFFDD" style="stroke:#181818;stroke-width:0.4000000000000001;"/><text fill="#000000" font-family="sans-serif" font-size="10.4" lengthAdjust="spacing" textLength="142.4" x="624" y="188.8453">Can be one of the following:</text><text fill="#000000" font-family="sans-serif" font-size="10.4" lengthAdjust="spacing" textLength="67.2" x="624" y="201.0938">- Application</text><text fill="#000000" font-family="sans-serif" font-size="10.4" lengthAdjust="spacing" textLength="58.4" x="624" y="213.3422">- Screening</text><text fill="#000000" font-family="sans-serif" font-size="10.4" lengthAdjust="spacing" textLength="60.8" x="624" y="225.5906">- Interviews</text><text fill="#000000" font-family="sans-serif" font-size="10.4" lengthAdjust="spacing" textLength="52" x="624" y="237.8391">- Analysis</text><text fill="#000000" font-family="sans-serif" font-size="10.4" lengthAdjust="spacing" textLength="40.8" x="624" y="250.0875">- Result</text></g><!--entity JobReference--><g id="elem_JobReference"><rect fill="#F0FFDD" height="31.1813" rx="2" ry="2" style="stroke:#000000;stroke-width:0.4000000000000001;" width="96" x="465.6" y="589.5906"/><text fill="#000000" font-family="sans-serif" font-size="11.2" font-style="italic" lengthAdjust="spacing" textLength="80" x="473.6" y="602.8188">&#171;Value Object&#187;</text><text fill="#000000" font-family="sans-serif" font-size="11.2" lengthAdjust="spacing" textLength="72" x="477.6" y="616.0094">JobReference</text></g><!--entity TitleOrFunction--><g id="elem_TitleOrFunction"><rect fill="#F0FFDD" height="31.1813" rx="2" ry="2" style="stroke:#000000;stroke-width:0.4000000000000001;" width="101.6" x="462.8" y="530.3906"/><text fill="#000000" font-family="sans-serif" font-size="11.2" font-style="italic" lengthAdjust="spacing" textLength="80" x="473.6" y="543.6188">&#171;Value Object&#187;</text><text fill="#000000" font-family="sans-serif" font-size="11.2" lengthAdjust="spacing" textLength="85.6" x="470.8" y="556.8094">TitleOrFunction</text></g><!--entity ContractType--><g id="elem_ContractType"><rect fill="#F0FFDD" height="31.1813" rx="2" ry="2" style="stroke:#000000;stroke-width:0.4000000000000001;" width="96" x="465.6" y="471.1906"/><text fill="#000000" font-family="sans-serif" font-size="11.2" font-style="italic" lengthAdjust="spacing" textLength="80" x="473.6" y="484.4188">&#171;Value Object&#187;</text><text fill="#000000" font-family="sans-serif" font-size="11.2" lengthAdjust="spacing" textLength="73.6" x="476.8" y="497.6094">ContractType</text></g><!--entity Mode--><g id="elem_Mode"><rect fill="#F0FFDD" height="31.1813" rx="2" ry="2" style="stroke:#000000;stroke-width:0.4000000000000001;" width="96" x="465.6" y="411.9906"/><text fill="#000000" font-family="sans-serif" font-size="11.2" font-style="italic" lengthAdjust="spacing" textLength="80" x="473.6" y="425.2188">&#171;Value Object&#187;</text><text fill="#000000" font-family="sans-serif" font-size="11.2" lengthAdjust="spacing" textLength="30.4" x="498.4" y="438.4094">Mode</text></g><!--entity Address--><g id="elem_Address"><rect fill="#F0FFDD" height="31.1813" rx="2" ry="2" style="stroke:#000000;stroke-width:0.4000000000000001;" width="96" x="465.6" y="352.7906"/><text fill="#000000" font-family="sans-serif" font-size="11.2" font-style="italic" lengthAdjust="spacing" textLength="80" x="473.6" y="366.0188">&#171;Value Object&#187;</text><text fill="#000000" font-family="sans-serif" font-size="11.2" lengthAdjust="spacing" textLength="44.8" x="491.2" y="379.2094">Address</text></g><!--entity VacanciesNumber--><g id="elem_VacanciesNumber"><rect fill="#F0FFDD" height="31.1813" rx="2" ry="2" style="stroke:#000000;stroke-width:0.4000000000000001;" width="113.6" x="456.8" y="293.5906"/><text fill="#000000" font-family="sans-serif" font-size="11.2" font-style="italic" lengthAdjust="spacing" textLength="80" x="473.6" y="306.8188">&#171;Value Object&#187;</text><text fill="#000000" font-family="sans-serif" font-size="11.2" lengthAdjust="spacing" textLength="97.6" x="464.8" y="320.0094">VacanciesNumber</text></g><!--entity Description--><g id="elem_Description"><rect fill="#F0FFDD" height="31.1813" rx="2" ry="2" style="stroke:#000000;stroke-width:0.4000000000000001;" width="96" x="465.6" y="234.3906"/><text fill="#000000" font-family="sans-serif" font-size="11.2" font-style="italic" lengthAdjust="spacing" textLength="80" x="473.6" y="247.6188">&#171;Value Object&#187;</text><text fill="#000000" font-family="sans-serif" font-size="11.2" lengthAdjust="spacing" textLength="62.4" x="482.4" y="260.8094">Description</text></g><!--entity ProcessState--><g id="elem_ProcessState"><rect fill="#F0FFDD" height="31.1813" rx="2" ry="2" style="stroke:#000000;stroke-width:0.4000000000000001;" width="96" x="465.6" y="175.1906"/><text fill="#000000" font-family="sans-serif" font-size="11.2" font-style="italic" lengthAdjust="spacing" textLength="80" x="473.6" y="188.4188">&#171;Value Object&#187;</text><text fill="#000000" font-family="sans-serif" font-size="11.2" lengthAdjust="spacing" textLength="68.8" x="479.2" y="201.6094">ProcessState</text></g><!--link CustomerManager to loginManager--><g id="link_CustomerManager_loginManager"><path codeLine="32" d="M176.752,89.1906 C218.408,89.1906 267.296,89.1906 305.328,89.1906 " fill="none" id="CustomerManager-to-loginManager" style="stroke:#808080;stroke-width:0.8000000000000002;"/><polygon fill="#808080" points="310.128,89.1906,302.928,85.9906,306.128,89.1906,302.928,92.3906,310.128,89.1906" style="stroke:#808080;stroke-width:0.8000000000000002;"/></g><!--link JobRequirementsSpecification to Requirements--><g id="link_JobRequirementsSpecification_Requirements"><path codeLine="41" d="M207.584,706.7906 C242.624,706.7906 276.128,706.7906 305.256,706.7906 " fill="none" id="JobRequirementsSpecification-to-Requirements" style="stroke:#808080;stroke-width:0.8000000000000002;"/><polygon fill="#808080" points="310.056,706.7906,302.856,703.5906,306.056,706.7906,302.856,709.9906,310.056,706.7906" style="stroke:#808080;stroke-width:0.8000000000000002;"/></g><!--link JobOpening to JobReference--><g id="link_JobOpening_JobReference"><path codeLine="65" d="M367.736,423.2866 C381.416,460.6386 411.408,530.9266 456.8,575.5906 C462.128,580.8386 464.4386,582.9628 471.0306,586.8108 " fill="none" id="JobOpening-to-JobReference" style="stroke:#808080;stroke-width:0.8000000000000002;"/><polygon fill="#808080" points="475.176,589.2306,470.5711,582.8373,471.7215,587.2141,467.3447,588.3645,475.176,589.2306" style="stroke:#808080;stroke-width:0.8000000000000002;"/></g><!--link JobOpening to TitleOrFunction--><g id="link_JobOpening_TitleOrFunction"><path codeLine="66" d="M375.648,423.3666 C393.336,449.2066 423.448,489.2146 456.8,516.3906 C463.024,521.4626 466.0507,523.7179 473.2027,527.6859 " fill="none" id="JobOpening-to-TitleOrFunction" style="stroke:#808080;stroke-width:0.8000000000000002;"/><polygon fill="#808080" points="477.4,530.0146,472.6565,523.7234,473.9023,528.074,469.5516,529.3198,477.4,530.0146" style="stroke:#808080;stroke-width:0.8000000000000002;"/></g><!--link JobOpening to ContractType--><g id="link_JobOpening_ContractType"><path codeLine="67" d="M399.96,423.4466 C417.336,434.1106 437.92,446.4866 456.8,457.1906 C464.832,461.7426 469.3799,464.2604 477.5719,468.5884 " fill="none" id="JobOpening-to-ContractType" style="stroke:#808080;stroke-width:0.8000000000000002;"/><polygon fill="#808080" points="481.816,470.8306,476.9447,464.6379,478.2793,468.9621,473.955,470.2967,481.816,470.8306" style="stroke:#808080;stroke-width:0.8000000000000002;"/></g><!--link JobOpening to Mode--><g id="link_JobOpening_Mode"><path codeLine="68" d="M403.832,406.5906 C423.144,410.3106 441.055,413.7611 460.663,417.5451 " fill="none" id="JobOpening-to-Mode" style="stroke:#808080;stroke-width:0.8000000000000002;"/><polygon fill="#808080" points="465.376,418.4546,458.9128,413.9483,461.4485,417.6967,457.7001,420.2324,465.376,418.4546" style="stroke:#808080;stroke-width:0.8000000000000002;"/></g><!--link JobOpening to Address--><g id="link_JobOpening_Address"><path codeLine="69" d="M403.832,389.3906 C423.144,385.6706 441.055,382.2202 460.663,378.4362 " fill="none" id="JobOpening-to-Address" style="stroke:#808080;stroke-width:0.8000000000000002;"/><polygon fill="#808080" points="465.376,377.5266,457.7001,375.7489,461.4485,378.2846,458.9128,382.033,465.376,377.5266" style="stroke:#808080;stroke-width:0.8000000000000002;"/></g><!--link JobOpening to VacanciesNumber--><g id="link_JobOpening_VacanciesNumber"><path codeLine="70" d="M399.96,372.5346 C417.336,361.8706 437.92,349.4946 456.8,338.7906 C464.832,334.2386 469.3799,331.7209 477.5719,327.3929 " fill="none" id="JobOpening-to-VacanciesNumber" style="stroke:#808080;stroke-width:0.8000000000000002;"/><polygon fill="#808080" points="481.816,325.1506,473.955,325.6846,478.2793,327.0192,476.9447,331.3434,481.816,325.1506" style="stroke:#808080;stroke-width:0.8000000000000002;"/></g><!--link JobOpening to Description--><g id="link_JobOpening_Description"><path codeLine="71" d="M375.648,372.6146 C393.336,346.7746 423.448,306.7666 456.8,279.5906 C463.024,274.5186 466.0507,272.2633 473.2027,268.2953 " fill="none" id="JobOpening-to-Description" style="stroke:#808080;stroke-width:0.8000000000000002;"/><polygon fill="#808080" points="477.4,265.9666,469.5516,266.6615,473.9023,267.9072,472.6565,272.2579,477.4,265.9666" style="stroke:#808080;stroke-width:0.8000000000000002;"/></g><!--link JobOpening to ProcessState--><g id="link_JobOpening_ProcessState"><path codeLine="72" d="M367.736,372.6946 C381.416,335.3426 411.408,265.0546 456.8,220.3906 C462.128,215.1426 464.4386,213.0185 471.0306,209.1705 " fill="none" id="JobOpening-to-ProcessState" style="stroke:#808080;stroke-width:0.8000000000000002;"/><polygon fill="#808080" points="475.176,206.7506,467.3447,207.6168,471.7215,208.7672,470.5711,213.144,475.176,206.7506" style="stroke:#808080;stroke-width:0.8000000000000002;"/></g><!--link CustomerManager to JobOpening--><g id="link_CustomerManager_JobOpening"><path codeLine="96" d="M133.776,114.7266 C179.672,172.8146 288.5043,310.5443 334.4243,368.6643 " fill="none" id="CustomerManager-to-JobOpening" style="stroke:#808080;stroke-width:0.8000000000000002;"/><polygon fill="#808080" points="337.4,372.4306,335.4473,364.7973,334.9202,369.292,330.4255,368.765,337.4,372.4306" style="stroke:#808080;stroke-width:0.8000000000000002;"/><text fill="#000000" font-family="sans-serif" font-size="10.4" lengthAdjust="spacing" textLength="44" x="236.8" y="240.8453">registers</text><text fill="#000000" font-family="sans-serif" font-size="10.4" lengthAdjust="spacing" textLength="6.4" x="130.6535" y="130.6368">1</text><text fill="#000000" font-family="sans-serif" font-size="10.4" lengthAdjust="spacing" textLength="8" x="324.2438" y="364.022">N</text></g><!--reverse link JobRequirementsSpecification to JobOpening--><g id="link_JobRequirementsSpecification_JobOpening"><path codeLine="97" d="M136.7518,677.4884 C182.6478,619.4004 291.48,481.6706 337.4,423.5506 " fill="none" id="JobRequirementsSpecification-backto-JobOpening" style="stroke:#808080;stroke-width:0.8000000000000002;"/><polygon fill="#808080" points="133.776,681.2546,140.7505,677.5891,136.2558,678.1161,135.7288,673.6214,133.776,681.2546" style="stroke:#808080;stroke-width:0.8000000000000002;"/><text fill="#000000" font-family="sans-serif" font-size="10.4" lengthAdjust="spacing" textLength="53.6" x="232" y="487.2453">associated</text><text fill="#000000" font-family="sans-serif" font-size="10.4" lengthAdjust="spacing" textLength="6.4" x="131.0423" y="672.8509">1</text><text fill="#000000" font-family="sans-serif" font-size="10.4" lengthAdjust="spacing" textLength="8" x="324.7906" y="439.4652">N</text></g><!--SRC=[fLLDRzim3BthLmZUOIS3sxK83AG9KdH8cw8fUfTbsj4YIvuahp2A_lTHTkBAZfC6c8xauyTxegYTo82Mu7OwiqH2xgZJr8XYvsWc370dj2BVxLweYXbMKYaKkAO2gWt64F8Yd0GQBNN9XA8FEWCP4VA9vv9PIzy9nRCMEQmn_bQR3Cn2IsteafdzhQnX261yNnXTgwm3pP-UrlUB-Slzvh75ZVtVLZzMU5hVt1ZzrfaB0qs73mgc4eF9HzXZXHPMmDOrICLpPggGC631J7Q1n9q1KF_FOBaSC_3gt4snk3so88VcQRIehTCb6Fh051gmPe425Cn1z4v0EU4QUiGS8RDPvqYIsSnexPA4jALQlb8NGdqYNnbU4zsalr6W93ceyT7XntdZE1c44sorR_INJkap_Abnl4eiR-cs0YvomPaVjgcsCI8C6E8lSXZK6NCOKF3dOXtFAVHwJaDIcmgKKCKP1aVlnNxR3d8me3YSrxo7jwzlOrQruWSjlefOQEKCu-x5l-6luVv1Nm6RPva1Qwz0lZBE51TW7-iolJHNVSGIB3UYkfBVaz4SEzawbF-BeGtknDzjAFsKVwJr52GKTyhlrPoo7-IRSetqce840asvGqKwuagZDjsEr_bfq-s3PegckEGLU8ZR0SsrbFeDazxqe9ZcjPIn4oK4DjoOxjC6AclhJLNkvRY-9ER7v-Vp1PPTangHXHQjh72Z1axh3vIXmRckbRRIlAhaOKECF5lkVmKC6TdlbGFpLy2R7QTIJ3PMZCtFO6lfUcFFvypgZNv6xRL7Zr4u2JUeMo4ibkx7xFogypbcSNoQ0_zopGNAbP5_]--></g></svg>