<?xml version="1.0" encoding="us-ascii" standalone="no"?><svg xmlns="http://www.w3.org/2000/svg" xmlns:xlink="http://www.w3.org/1999/xlink" contentStyleType="text/css" height="377px" preserveAspectRatio="none" style="width:1045px;height:377px;background:#FFFFFF;" version="1.1" viewBox="0 0 1045 377" width="1045px" zoomAndPan="magnify"><defs/><g><!--cluster ui--><g id="cluster_ui"><path d="M8.5,90 L23.5,90 A3.75,3.75 0 0 1 26,92.5 L33,112.4883 L211.5,112.4883 A2.5,2.5 0 0 1 214,114.9883 L214,302.5 A2.5,2.5 0 0 1 211.5,305 L8.5,305 A2.5,2.5 0 0 1 6,302.5 L6,92.5 A2.5,2.5 0 0 1 8.5,90 " fill="none" style="stroke:#000000;stroke-width:1.5;"/><line style="stroke:#000000;stroke-width:1.5;" x1="6" x2="33" y1="112.4883" y2="112.4883"/><text fill="#000000" font-family="sans-serif" font-size="14" font-weight="bold" lengthAdjust="spacing" textLength="14" x="10" y="105.5352">ui</text></g><!--cluster authz--><g id="cluster_authz"><path d="M281.5,6 L322.5,6 A3.75,3.75 0 0 1 325,8.5 L332,28.4883 L1035.5,28.4883 A2.5,2.5 0 0 1 1038,30.9883 L1038,367.5 A2.5,2.5 0 0 1 1035.5,370 L281.5,370 A2.5,2.5 0 0 1 279,367.5 L279,8.5 A2.5,2.5 0 0 1 281.5,6 " fill="none" style="stroke:#000000;stroke-width:1.5;"/><line style="stroke:#000000;stroke-width:1.5;" x1="279" x2="332" y1="28.4883" y2="28.4883"/><text fill="#000000" font-family="sans-serif" font-size="14" font-weight="bold" lengthAdjust="spacing" textLength="40" x="283" y="21.5352">authz</text></g><!--cluster application--><g id="cluster_application"><path d="M305.5,131 L386.5,131 A3.75,3.75 0 0 1 389,133.5 L396,153.4883 L495.5,153.4883 A2.5,2.5 0 0 1 498,155.9883 L498,261.5 A2.5,2.5 0 0 1 495.5,264 L305.5,264 A2.5,2.5 0 0 1 303,261.5 L303,133.5 A2.5,2.5 0 0 1 305.5,131 " fill="none" style="stroke:#000000;stroke-width:1.5;"/><line style="stroke:#000000;stroke-width:1.5;" x1="303" x2="396" y1="153.4883" y2="153.4883"/><text fill="#000000" font-family="sans-serif" font-size="14" font-weight="bold" lengthAdjust="spacing" textLength="80" x="307" y="146.5352">application</text></g><!--cluster user--><g id="cluster_user"><path d="M589.5,49 L621.5,49 A3.75,3.75 0 0 1 624,51.5 L631,71.4883 L1011.5,71.4883 A2.5,2.5 0 0 1 1014,73.9883 L1014,343.5 A2.5,2.5 0 0 1 1011.5,346 L589.5,346 A2.5,2.5 0 0 1 587,343.5 L587,51.5 A2.5,2.5 0 0 1 589.5,49 " fill="none" style="stroke:#000000;stroke-width:1.5;"/><line style="stroke:#000000;stroke-width:1.5;" x1="587" x2="631" y1="71.4883" y2="71.4883"/><text fill="#000000" font-family="sans-serif" font-size="14" font-weight="bold" lengthAdjust="spacing" textLength="31" x="591" y="64.5352">user</text></g><!--class ListBackofficeUsersUI--><g id="elem_ListBackofficeUsersUI"><rect codeLine="5" fill="#F1F1F1" height="163.418" id="ListBackofficeUsersUI" rx="2.5" ry="2.5" style="stroke:#181818;stroke-width:0.5;" width="176" x="22" y="125.5"/><ellipse cx="37" cy="141.5" fill="#ADD1B2" rx="11" ry="11" style="stroke:#181818;stroke-width:1.0;"/><path d="M39.9731,147.1431 Q39.3921,147.4419 38.7529,147.5913 Q38.1138,147.7407 37.4082,147.7407 Q34.9014,147.7407 33.5815,146.0889 Q32.2617,144.437 32.2617,141.3159 Q32.2617,138.1865 33.5815,136.5347 Q34.9014,134.8828 37.4082,134.8828 Q38.1138,134.8828 38.7612,135.0322 Q39.4087,135.1816 39.9731,135.4805 L39.9731,138.2031 Q39.3423,137.6221 38.7488,137.3523 Q38.1553,137.0825 37.5244,137.0825 Q36.1797,137.0825 35.4949,138.1492 Q34.8101,139.2158 34.8101,141.3159 Q34.8101,143.4077 35.4949,144.4744 Q36.1797,145.541 37.5244,145.541 Q38.1553,145.541 38.7488,145.2712 Q39.3423,145.0015 39.9731,144.4204 Z " fill="#000000"/><text fill="#000000" font-family="sans-serif" font-size="14" lengthAdjust="spacing" textLength="144" x="51" y="146.791">ListBackofficeUsersUI</text><line style="stroke:#181818;stroke-width:0.5;" x1="23" x2="197" y1="157.5" y2="157.5"/><line style="stroke:#181818;stroke-width:0.5;" x1="23" x2="197" y1="165.5" y2="165.5"/><ellipse cx="33" cy="179.2441" fill="#84BE84" rx="3" ry="3" style="stroke:#038048;stroke-width:1.0;"/><text fill="#000000" font-family="sans-serif" font-size="14" lengthAdjust="spacing" textLength="72" x="42" y="183.0352">elements()</text><ellipse cx="33" cy="195.7324" fill="#84BE84" rx="3" ry="3" style="stroke:#038048;stroke-width:1.0;"/><text fill="#000000" font-family="sans-serif" font-size="14" lengthAdjust="spacing" textLength="69" x="42" y="199.5234">headline()</text><ellipse cx="33" cy="212.2207" fill="#84BE84" rx="3" ry="3" style="stroke:#038048;stroke-width:1.0;"/><text fill="#000000" font-family="sans-serif" font-size="14" lengthAdjust="spacing" textLength="111" x="42" y="216.0117">emptyMessage()</text><ellipse cx="33" cy="228.709" fill="#84BE84" rx="3" ry="3" style="stroke:#038048;stroke-width:1.0;"/><text fill="#000000" font-family="sans-serif" font-size="14" lengthAdjust="spacing" textLength="111" x="42" y="232.5">elementPrinter()</text><ellipse cx="33" cy="245.1973" fill="#84BE84" rx="3" ry="3" style="stroke:#038048;stroke-width:1.0;"/><text fill="#000000" font-family="sans-serif" font-size="14" lengthAdjust="spacing" textLength="104" x="42" y="248.9883">elementName()</text><ellipse cx="33" cy="261.6855" fill="#84BE84" rx="3" ry="3" style="stroke:#038048;stroke-width:1.0;"/><text fill="#000000" font-family="sans-serif" font-size="14" lengthAdjust="spacing" textLength="79" x="42" y="265.4766">listHeader()</text><ellipse cx="33" cy="278.1738" fill="#84BE84" rx="3" ry="3" style="stroke:#038048;stroke-width:1.0;"/><text fill="#000000" font-family="sans-serif" font-size="14" lengthAdjust="spacing" textLength="65" x="42" y="281.9648">doShow()</text></g><!--class ListUsersController--><g id="elem_ListUsersController"><rect codeLine="17" fill="#F1F1F1" height="80.9766" id="ListUsersController" rx="2.5" ry="2.5" style="stroke:#181818;stroke-width:0.5;" width="163" x="319" y="166.5"/><ellipse cx="334" cy="182.5" fill="#ADD1B2" rx="11" ry="11" style="stroke:#181818;stroke-width:1.0;"/><path d="M336.9731,188.1431 Q336.3921,188.4419 335.7529,188.5913 Q335.1138,188.7407 334.4082,188.7407 Q331.9014,188.7407 330.5815,187.0889 Q329.2617,185.437 329.2617,182.3159 Q329.2617,179.1865 330.5815,177.5347 Q331.9014,175.8828 334.4082,175.8828 Q335.1138,175.8828 335.7612,176.0322 Q336.4087,176.1816 336.9731,176.4805 L336.9731,179.2031 Q336.3423,178.6221 335.7488,178.3523 Q335.1553,178.0825 334.5244,178.0825 Q333.1797,178.0825 332.4949,179.1492 Q331.8101,180.2158 331.8101,182.3159 Q331.8101,184.4077 332.4949,185.4744 Q333.1797,186.541 334.5244,186.541 Q335.1553,186.541 335.7488,186.2712 Q336.3423,186.0015 336.9731,185.4204 Z " fill="#000000"/><text fill="#000000" font-family="sans-serif" font-size="14" lengthAdjust="spacing" textLength="131" x="348" y="187.791">ListUsersController</text><line style="stroke:#181818;stroke-width:0.5;" x1="320" x2="481" y1="198.5" y2="198.5"/><line style="stroke:#181818;stroke-width:0.5;" x1="320" x2="481" y1="206.5" y2="206.5"/><ellipse cx="330" cy="220.2441" fill="#84BE84" rx="3" ry="3" style="stroke:#038048;stroke-width:1.0;"/><text fill="#000000" font-family="sans-serif" font-size="14" lengthAdjust="spacing" textLength="64" x="339" y="224.0352">allUsers()</text><ellipse cx="330" cy="236.7324" fill="#84BE84" rx="3" ry="3" style="stroke:#038048;stroke-width:1.0;"/><text fill="#000000" font-family="sans-serif" font-size="14" lengthAdjust="spacing" textLength="133" x="339" y="240.5234">allBackofficeUsers()</text></g><!--class UserManagementService--><g id="elem_UserManagementService"><rect codeLine="24" fill="#F1F1F1" height="245.8594" id="UserManagementService" rx="2.5" ry="2.5" style="stroke:#181818;stroke-width:0.5;" width="395" x="603" y="84"/><ellipse cx="712.25" cy="100" fill="#ADD1B2" rx="11" ry="11" style="stroke:#181818;stroke-width:1.0;"/><path d="M715.2231,105.6431 Q714.6421,105.9419 714.0029,106.0913 Q713.3638,106.2407 712.6582,106.2407 Q710.1514,106.2407 708.8315,104.5889 Q707.5117,102.937 707.5117,99.8159 Q707.5117,96.6865 708.8315,95.0347 Q710.1514,93.3828 712.6582,93.3828 Q713.3638,93.3828 714.0112,93.5322 Q714.6587,93.6816 715.2231,93.9805 L715.2231,96.7031 Q714.5923,96.1221 713.9988,95.8523 Q713.4053,95.5825 712.7744,95.5825 Q711.4297,95.5825 710.7449,96.6492 Q710.0601,97.7158 710.0601,99.8159 Q710.0601,101.9077 710.7449,102.9744 Q711.4297,104.041 712.7744,104.041 Q713.4053,104.041 713.9988,103.7712 Q714.5923,103.5015 715.2231,102.9204 Z " fill="#000000"/><text fill="#000000" font-family="sans-serif" font-size="14" lengthAdjust="spacing" textLength="168" x="732.75" y="105.291">UserManagementService</text><line style="stroke:#181818;stroke-width:0.5;" x1="604" x2="997" y1="116" y2="116"/><line style="stroke:#181818;stroke-width:0.5;" x1="604" x2="997" y1="124" y2="124"/><ellipse cx="614" cy="137.7441" fill="#84BE84" rx="3" ry="3" style="stroke:#038048;stroke-width:1.0;"/><text fill="#000000" font-family="sans-serif" font-size="14" lengthAdjust="spacing" textLength="355" x="623" y="141.5352">UserManagementService(userRepo, policy, encoder)</text><ellipse cx="614" cy="154.2324" fill="#84BE84" rx="3" ry="3" style="stroke:#038048;stroke-width:1.0;"/><text fill="#000000" font-family="sans-serif" font-size="14" lengthAdjust="spacing" textLength="296" x="623" y="158.0234">registerNewUser( username,  rawPassword,</text><text fill="#000000" font-family="sans-serif" font-size="14" lengthAdjust="spacing" textLength="316" x="623" y="174.5117">firstName,  lastName,  email, roles, createdOn)</text><ellipse cx="614" cy="187.209" fill="#84BE84" rx="3" ry="3" style="stroke:#038048;stroke-width:1.0;"/><text fill="#000000" font-family="sans-serif" font-size="14" lengthAdjust="spacing" textLength="296" x="623" y="191">registerNewUser( username,  rawPassword,</text><text fill="#000000" font-family="sans-serif" font-size="14" lengthAdjust="spacing" textLength="237" x="623" y="207.4883">firstName,  lastName,  email, roles)</text><ellipse cx="614" cy="220.1855" fill="#84BE84" rx="3" ry="3" style="stroke:#038048;stroke-width:1.0;"/><text fill="#000000" font-family="sans-serif" font-size="14" lengthAdjust="spacing" textLength="369" x="623" y="223.9766">registerUser(username, password, name, email, roles)</text><ellipse cx="614" cy="236.6738" fill="#84BE84" rx="3" ry="3" style="stroke:#038048;stroke-width:1.0;"/><text fill="#000000" font-family="sans-serif" font-size="14" lengthAdjust="spacing" textLength="87" x="623" y="240.4648">activeUsers()</text><ellipse cx="614" cy="253.1621" fill="#84BE84" rx="3" ry="3" style="stroke:#038048;stroke-width:1.0;"/><text fill="#000000" font-family="sans-serif" font-size="14" lengthAdjust="spacing" textLength="126" x="623" y="256.9531">deactivatedUsers()</text><ellipse cx="614" cy="269.6504" fill="#84BE84" rx="3" ry="3" style="stroke:#038048;stroke-width:1.0;"/><text fill="#000000" font-family="sans-serif" font-size="14" lengthAdjust="spacing" textLength="64" x="623" y="273.4414">allUsers()</text><ellipse cx="614" cy="286.1387" fill="#84BE84" rx="3" ry="3" style="stroke:#038048;stroke-width:1.0;"/><text fill="#000000" font-family="sans-serif" font-size="14" lengthAdjust="spacing" textLength="120" x="623" y="289.9297">userOfIdentity(id)</text><ellipse cx="614" cy="302.627" fill="#84BE84" rx="3" ry="3" style="stroke:#038048;stroke-width:1.0;"/><text fill="#000000" font-family="sans-serif" font-size="14" lengthAdjust="spacing" textLength="140" x="623" y="306.418">deactivateUser(user)</text><ellipse cx="614" cy="319.1152" fill="#84BE84" rx="3" ry="3" style="stroke:#038048;stroke-width:1.0;"/><text fill="#000000" font-family="sans-serif" font-size="14" lengthAdjust="spacing" textLength="123" x="623" y="322.9063">activateUser(user)</text></g><!--link ListBackofficeUsersUI to ListUsersController--><g id="link_ListBackofficeUsersUI_ListUsersController"><path codeLine="40" d="M198.34,207 C236.65,207 275.34,207 312.85,207 " fill="none" id="ListBackofficeUsersUI-to-ListUsersController" style="stroke:#181818;stroke-width:1.0;"/><polygon fill="#181818" points="318.85,207,309.85,203,313.85,207,309.85,211,318.85,207" style="stroke:#181818;stroke-width:1.0;"/></g><!--link ListUsersController to UserManagementService--><g id="link_ListUsersController_UserManagementService"><path codeLine="42" d="M482.04,207 C517.13,207 553.96,207 596.65,207 " fill="none" id="ListUsersController-to-UserManagementService" style="stroke:#181818;stroke-width:1.0;"/><polygon fill="#181818" points="602.65,207,593.65,203,597.65,207,593.65,211,602.65,207" style="stroke:#181818;stroke-width:1.0;"/></g><!--SRC=[jLDDRy8m3BtdLrXSrcdbB-omNOOqFZJ43uXQbqQaIUG4gWxnt-S4A1HwNNDfdkttdbttnU-KSP9a0reP39r3i1HgApHM0O85KjiwGAa8Yw2i4SB9OYUt29EzcXn5eQNtyAry-63SLfKgSEEH_6O6Hm7yl05gRD04dxrUW1fb6ULw01iNkZbwpyGty5os8cK2qYEyaCqjLRF-5vFUfPLsNTkMhoS-lMUv3_Klsxu1pcbLoDZQe9lKmwSrWQpMI7qlKkiKwdKOUEZyedatA4PxyfWobuO3iOirqe7hUlhHQ1O9Vj3P79nbjrqEQ0hBtLvD46xPCz82syYGGQmmFA4SW6IxOk7MKfcdz4gHJ-FZ85kwlc8ZbSw1-qMVGq4e0vPByryIZxo9zCRfhdnmle-LIjx80mu_Hua9ZTwVljCGY5hBQbRod5NeCbK-K_IU1eh3m2cTyHzWEfs-ZssJ46Chbh975q28Fm00]--></g></svg>