<?xml version="1.0" encoding="us-ascii" standalone="no"?><svg xmlns="http://www.w3.org/2000/svg" xmlns:xlink="http://www.w3.org/1999/xlink" contentStyleType="text/css" height="702px" preserveAspectRatio="none" style="width:1265px;height:702px;background:#FFFFFF;" version="1.1" viewBox="0 0 1265 702" width="1265.4px" zoomAndPan="magnify"><defs/><g><text fill="#000000" font-family="sans-serif" font-size="8.4" font-weight="bold" lengthAdjust="spacing" textLength="162.6" x="547.2" y="14.1211">Class Diagram - Register a candidate</text><!--cluster presentation--><g id="cluster_presentation"><path d="M438.3,26.093 L493.5,26.093 A2.25,2.25 0 0 1 495,27.593 L499.2,39.5859 L603.3,39.5859 A1.5,1.5 0 0 1 604.8,41.0859 L604.8,103.793 A1.5,1.5 0 0 1 603.3,105.293 L438.3,105.293 A1.5,1.5 0 0 1 436.8,103.793 L436.8,27.593 A1.5,1.5 0 0 1 438.3,26.093 " fill="none" style="stroke:#000000;stroke-width:0.8999999999999999;"/><line style="stroke:#000000;stroke-width:0.8999999999999999;" x1="436.8" x2="499.2" y1="39.5859" y2="39.5859"/><text fill="#000000" font-family="sans-serif" font-size="8.4" font-weight="bold" lengthAdjust="spacing" textLength="54.6" x="439.2" y="35.4141">presentation</text></g><!--cluster application--><g id="cluster_application"><path d="M159.3,119.693 L207.9,119.693 A2.25,2.25 0 0 1 209.4,121.193 L213.6,133.1859 L866.7,133.1859 A1.5,1.5 0 0 1 868.2,134.6859 L868.2,331.193 A1.5,1.5 0 0 1 866.7,332.693 L159.3,332.693 A1.5,1.5 0 0 1 157.8,331.193 L157.8,121.193 A1.5,1.5 0 0 1 159.3,119.693 " fill="none" style="stroke:#000000;stroke-width:0.8999999999999999;"/><line style="stroke:#000000;stroke-width:0.8999999999999999;" x1="157.8" x2="213.6" y1="133.1859" y2="133.1859"/><text fill="#000000" font-family="sans-serif" font-size="8.4" font-weight="bold" lengthAdjust="spacing" textLength="48" x="160.2" y="129.0141">application</text></g><!--cluster repositories--><g id="cluster_repositories"><path d="M324.9,618.893 L377.7,618.893 A2.25,2.25 0 0 1 379.2,620.393 L383.4,632.3859 L584.1,632.3859 A1.5,1.5 0 0 1 585.6,633.8859 L585.6,696.593 A1.5,1.5 0 0 1 584.1,698.093 L324.9,698.093 A1.5,1.5 0 0 1 323.4,696.593 L323.4,620.393 A1.5,1.5 0 0 1 324.9,618.893 " fill="none" style="stroke:#000000;stroke-width:0.8999999999999999;"/><line style="stroke:#000000;stroke-width:0.8999999999999999;" x1="323.4" x2="383.4" y1="632.3859" y2="632.3859"/><text fill="#000000" font-family="sans-serif" font-size="8.4" font-weight="bold" lengthAdjust="spacing" textLength="52.2" x="325.8" y="628.2141">repositories</text></g><!--cluster domain--><g id="cluster_domain"><path d="M742.5,347.093 L775.5,347.093 A2.25,2.25 0 0 1 777,348.593 L781.2,360.5859 L1259.7,360.5859 A1.5,1.5 0 0 1 1261.2,362.0859 L1261.2,602.993 A1.5,1.5 0 0 1 1259.7,604.493 L742.5,604.493 A1.5,1.5 0 0 1 741,602.993 L741,348.593 A1.5,1.5 0 0 1 742.5,347.093 " fill="none" style="stroke:#000000;stroke-width:0.8999999999999999;"/><line style="stroke:#000000;stroke-width:0.8999999999999999;" x1="741" x2="781.2" y1="360.5859" y2="360.5859"/><text fill="#000000" font-family="sans-serif" font-size="8.4" font-weight="bold" lengthAdjust="spacing" textLength="32.4" x="743.4" y="356.4141">domain</text></g><!--cluster services--><g id="cluster_services"><path d="M5.1,416.393 L40.5,416.393 A2.25,2.25 0 0 1 42,417.893 L46.2,429.8859 L695.1,429.8859 A1.5,1.5 0 0 1 696.6,431.3859 L696.6,533.693 A1.5,1.5 0 0 1 695.1,535.193 L5.1,535.193 A1.5,1.5 0 0 1 3.6,533.693 L3.6,417.893 A1.5,1.5 0 0 1 5.1,416.393 " fill="none" style="stroke:#000000;stroke-width:0.8999999999999999;"/><line style="stroke:#000000;stroke-width:0.8999999999999999;" x1="3.6" x2="46.2" y1="429.8859" y2="429.8859"/><text fill="#000000" font-family="sans-serif" font-size="8.4" font-weight="bold" lengthAdjust="spacing" textLength="34.8" x="6" y="425.7141">services</text></g><!--class UploadRequirementsAnswersUI--><g id="elem_UploadRequirementsAnswersUI"><rect codeLine="12" fill="#FFFFFF" height="48.5859" id="UploadRequirementsAnswersUI" rx="1.5" ry="1.5" style="stroke:#000000;stroke-width:0.3;" width="148.8" x="446.4" y="47.093"/><ellipse cx="455.4" cy="56.693" fill="#ADD1B2" rx="6.6" ry="6.6" style="stroke:#181818;stroke-width:0.6;"/><path d="M457.1839,60.0788 Q456.8353,60.2581 456.4518,60.3478 Q456.0683,60.4374 455.6449,60.4374 Q454.1408,60.4374 453.3489,59.4463 Q452.557,58.4552 452.557,56.5825 Q452.557,54.7049 453.3489,53.7138 Q454.1408,52.7227 455.6449,52.7227 Q456.0683,52.7227 456.4567,52.8123 Q456.8452,52.902 457.1839,53.0813 L457.1839,54.7148 Q456.8054,54.3662 456.4493,54.2043 Q456.0932,54.0425 455.7146,54.0425 Q454.9078,54.0425 454.4969,54.6825 Q454.086,55.3225 454.086,56.5825 Q454.086,57.8376 454.4969,58.4776 Q454.9078,59.1176 455.7146,59.1176 Q456.0932,59.1176 456.4493,58.9557 Q456.8054,58.7938 457.1839,58.4452 Z " fill="#000000"/><text fill="#000000" font-family="sans-serif" font-size="8.4" lengthAdjust="spacing" textLength="129.6" x="463.8" y="59.8676">UploadRequirementsAnswersUI</text><line style="stroke:#000000;stroke-width:0.3;" x1="447" x2="594.6" y1="66.293" y2="66.293"/><line style="stroke:#000000;stroke-width:0.3;" x1="447" x2="594.6" y1="71.093" y2="71.093"/><ellipse cx="453" cy="79.3395" fill="#84BE84" rx="1.8" ry="1.8" style="stroke:#038048;stroke-width:0.6;"/><text fill="#000000" font-family="sans-serif" font-size="8.4" lengthAdjust="spacing" textLength="39" x="458.4" y="81.6141">doShow()</text><ellipse cx="453" cy="89.2324" fill="#84BE84" rx="1.8" ry="1.8" style="stroke:#038048;stroke-width:0.6;"/><text fill="#000000" font-family="sans-serif" font-size="8.4" lengthAdjust="spacing" textLength="41.4" x="458.4" y="91.507">headline()</text></g><!--class GenerateRequirementsAnswersTemplateController--><g id="elem_GenerateRequirementsAnswersTemplateController"><rect codeLine="19" fill="#FFFFFF" height="38.693" id="GenerateRequirementsAnswersTemplateController" rx="1.5" ry="1.5" style="stroke:#000000;stroke-width:0.3;" width="228.6" x="167.7" y="160.493"/><ellipse cx="176.7" cy="170.093" fill="#ADD1B2" rx="6.6" ry="6.6" style="stroke:#181818;stroke-width:0.6;"/><path d="M178.4839,173.4788 Q178.1353,173.6581 177.7518,173.7478 Q177.3683,173.8374 176.9449,173.8374 Q175.4408,173.8374 174.6489,172.8463 Q173.857,171.8552 173.857,169.9825 Q173.857,168.1049 174.6489,167.1138 Q175.4408,166.1227 176.9449,166.1227 Q177.3683,166.1227 177.7567,166.2123 Q178.1452,166.302 178.4839,166.4813 L178.4839,168.1148 Q178.1054,167.7662 177.7493,167.6043 Q177.3932,167.4425 177.0146,167.4425 Q176.2078,167.4425 175.7969,168.0825 Q175.386,168.7225 175.386,169.9825 Q175.386,171.2376 175.7969,171.8776 Q176.2078,172.5176 177.0146,172.5176 Q177.3932,172.5176 177.7493,172.3557 Q178.1054,172.1938 178.4839,171.8452 Z " fill="#000000"/><text fill="#000000" font-family="sans-serif" font-size="8.4" lengthAdjust="spacing" textLength="209.4" x="185.1" y="173.2676">GenerateRequirementsAnswersTemplateController</text><line style="stroke:#000000;stroke-width:0.3;" x1="168.3" x2="395.7" y1="179.693" y2="179.693"/><line style="stroke:#000000;stroke-width:0.3;" x1="168.3" x2="395.7" y1="184.493" y2="184.493"/><ellipse cx="174.3" cy="192.7395" fill="#84BE84" rx="1.8" ry="1.8" style="stroke:#038048;stroke-width:0.6;"/><text fill="#000000" font-family="sans-serif" font-size="8.4" lengthAdjust="spacing" textLength="174" x="179.7" y="195.0141">findAllJobOpeningsWithJobRequirements()</text></g><!--class UploadRequirementsAnswersController--><g id="elem_UploadRequirementsAnswersController"><rect codeLine="22" fill="#FFFFFF" height="48.5859" id="UploadRequirementsAnswersController" rx="1.5" ry="1.5" style="stroke:#000000;stroke-width:0.3;" width="213" x="645.3" y="155.393"/><ellipse cx="668.07" cy="164.993" fill="#ADD1B2" rx="6.6" ry="6.6" style="stroke:#181818;stroke-width:0.6;"/><path d="M669.8539,168.3788 Q669.5053,168.5581 669.1218,168.6478 Q668.7383,168.7374 668.3149,168.7374 Q666.8108,168.7374 666.0189,167.7463 Q665.227,166.7552 665.227,164.8825 Q665.227,163.0049 666.0189,162.0138 Q666.8108,161.0227 668.3149,161.0227 Q668.7383,161.0227 669.1267,161.1123 Q669.5152,161.202 669.8539,161.3813 L669.8539,163.0148 Q669.4754,162.6662 669.1193,162.5043 Q668.7632,162.3425 668.3846,162.3425 Q667.5778,162.3425 667.1669,162.9825 Q666.756,163.6225 666.756,164.8825 Q666.756,166.1376 667.1669,166.7776 Q667.5778,167.4176 668.3846,167.4176 Q668.7632,167.4176 669.1193,167.2557 Q669.4754,167.0938 669.8539,166.7452 Z " fill="#000000"/><text fill="#000000" font-family="sans-serif" font-size="8.4" lengthAdjust="spacing" textLength="163.2" x="679.53" y="168.1676">UploadRequirementsAnswersController</text><line style="stroke:#000000;stroke-width:0.3;" x1="645.9" x2="857.7" y1="174.593" y2="174.593"/><line style="stroke:#000000;stroke-width:0.3;" x1="645.9" x2="857.7" y1="179.393" y2="179.393"/><ellipse cx="651.9" cy="187.6395" fill="#84BE84" rx="1.8" ry="1.8" style="stroke:#038048;stroke-width:0.6;"/><text fill="#000000" font-family="sans-serif" font-size="8.4" lengthAdjust="spacing" textLength="57.6" x="657.3" y="189.9141">readFile(path)</text><ellipse cx="651.9" cy="197.5324" fill="#84BE84" rx="1.8" ry="1.8" style="stroke:#038048;stroke-width:0.6;"/><text fill="#000000" font-family="sans-serif" font-size="8.4" lengthAdjust="spacing" textLength="197.4" x="657.3" y="199.807">uploadRequirements(requirements, application)</text></g><!--class ListJobOpeningApplicationsController--><g id="elem_ListJobOpeningApplicationsController"><rect codeLine="26" fill="#FFFFFF" height="78.2648" id="ListJobOpeningApplicationsController" rx="1.5" ry="1.5" style="stroke:#000000;stroke-width:0.3;" width="206.4" x="417.6" y="140.693"/><ellipse cx="440.91" cy="150.293" fill="#ADD1B2" rx="6.6" ry="6.6" style="stroke:#181818;stroke-width:0.6;"/><path d="M442.6939,153.6788 Q442.3453,153.8581 441.9618,153.9478 Q441.5783,154.0374 441.1549,154.0374 Q439.6508,154.0374 438.8589,153.0463 Q438.067,152.0552 438.067,150.1825 Q438.067,148.3049 438.8589,147.3138 Q439.6508,146.3227 441.1549,146.3227 Q441.5783,146.3227 441.9667,146.4123 Q442.3552,146.502 442.6939,146.6813 L442.6939,148.3148 Q442.3154,147.9662 441.9593,147.8043 Q441.6032,147.6425 441.2246,147.6425 Q440.4178,147.6425 440.0069,148.2825 Q439.596,148.9225 439.596,150.1825 Q439.596,151.4376 440.0069,152.0776 Q440.4178,152.7176 441.2246,152.7176 Q441.6032,152.7176 441.9593,152.5557 Q442.3154,152.3938 442.6939,152.0452 Z " fill="#000000"/><text fill="#000000" font-family="sans-serif" font-size="8.4" lengthAdjust="spacing" textLength="155.4" x="452.49" y="153.4676">ListJobOpeningApplicationsController</text><line style="stroke:#000000;stroke-width:0.3;" x1="418.2" x2="623.4" y1="159.893" y2="159.893"/><line style="stroke:#000000;stroke-width:0.3;" x1="418.2" x2="623.4" y1="164.693" y2="164.693"/><ellipse cx="424.2" cy="172.9395" fill="#84BE84" rx="1.8" ry="1.8" style="stroke:#038048;stroke-width:0.6;"/><text fill="#000000" font-family="sans-serif" font-size="8.4" lengthAdjust="spacing" textLength="178.8" x="429.6" y="175.2141">allApplicationsOfJobOpening(jobReference)</text><ellipse cx="424.2" cy="182.8324" fill="#84BE84" rx="1.8" ry="1.8" style="stroke:#038048;stroke-width:0.6;"/><text fill="#000000" font-family="sans-serif" font-size="8.4" lengthAdjust="spacing" textLength="190.8" x="429.6" y="185.107">showApplicationsOfJobOpening(jobReference)</text><ellipse cx="424.2" cy="192.7254" fill="#84BE84" rx="1.8" ry="1.8" style="stroke:#038048;stroke-width:0.6;"/><text fill="#000000" font-family="sans-serif" font-size="8.4" lengthAdjust="spacing" textLength="76.2" x="429.6" y="195">selectApplication()</text><ellipse cx="424.2" cy="202.6184" fill="#84BE84" rx="1.8" ry="1.8" style="stroke:#038048;stroke-width:0.6;"/><text fill="#000000" font-family="sans-serif" font-size="8.4" lengthAdjust="spacing" textLength="124.8" x="429.6" y="204.893">findJobOpening(jobReference)</text><ellipse cx="424.2" cy="212.5113" fill="#84BE84" rx="1.8" ry="1.8" style="stroke:#038048;stroke-width:0.6;"/><text fill="#000000" font-family="sans-serif" font-size="8.4" lengthAdjust="spacing" textLength="94.2" x="429.6" y="214.7859">findApplicationByID(id)</text></g><!--class ListJobOpeningController--><g id="elem_ListJobOpeningController"><rect codeLine="33" fill="#FFFFFF" height="68.3719" id="ListJobOpeningController" rx="1.5" ry="1.5" style="stroke:#000000;stroke-width:0.3;" width="203.4" x="173.7" y="254.693"/><ellipse cx="220.65" cy="264.293" fill="#ADD1B2" rx="6.6" ry="6.6" style="stroke:#181818;stroke-width:0.6;"/><path d="M222.4339,267.6788 Q222.0853,267.8581 221.7018,267.9478 Q221.3183,268.0374 220.8949,268.0374 Q219.3908,268.0374 218.5989,267.0463 Q217.807,266.0552 217.807,264.1825 Q217.807,262.3049 218.5989,261.3138 Q219.3908,260.3227 220.8949,260.3227 Q221.3183,260.3227 221.7067,260.4123 Q222.0952,260.502 222.4339,260.6813 L222.4339,262.3148 Q222.0554,261.9662 221.6993,261.8043 Q221.3432,261.6425 220.9646,261.6425 Q220.1578,261.6425 219.7469,262.2825 Q219.336,262.9225 219.336,264.1825 Q219.336,265.4376 219.7469,266.0776 Q220.1578,266.7176 220.9646,266.7176 Q221.3432,266.7176 221.6993,266.5557 Q222.0554,266.3938 222.4339,266.0452 Z " fill="#000000"/><text fill="#000000" font-family="sans-serif" font-size="8.4" lengthAdjust="spacing" textLength="104.4" x="232.95" y="267.4676">ListJobOpeningController</text><line style="stroke:#000000;stroke-width:0.3;" x1="174.3" x2="376.5" y1="273.893" y2="273.893"/><line style="stroke:#000000;stroke-width:0.3;" x1="174.3" x2="376.5" y1="278.693" y2="278.693"/><ellipse cx="180.3" cy="286.9395" fill="#84BE84" rx="1.8" ry="1.8" style="stroke:#038048;stroke-width:0.6;"/><text fill="#000000" font-family="sans-serif" font-size="8.4" lengthAdjust="spacing" textLength="80.4" x="185.7" y="289.2141">showJobOpenings()</text><ellipse cx="180.3" cy="296.8324" fill="#84BE84" rx="1.8" ry="1.8" style="stroke:#038048;stroke-width:0.6;"/><text fill="#000000" font-family="sans-serif" font-size="8.4" lengthAdjust="spacing" textLength="114" x="185.7" y="299.107">showJobOpeningsAnalysis()</text><ellipse cx="180.3" cy="306.7254" fill="#84BE84" rx="1.8" ry="1.8" style="stroke:#038048;stroke-width:0.6;"/><text fill="#000000" font-family="sans-serif" font-size="8.4" lengthAdjust="spacing" textLength="68.4" x="185.7" y="309">allJobOpenings()</text><ellipse cx="180.3" cy="316.6184" fill="#84BE84" rx="1.8" ry="1.8" style="stroke:#038048;stroke-width:0.6;"/><text fill="#000000" font-family="sans-serif" font-size="8.4" lengthAdjust="spacing" textLength="187.8" x="185.7" y="318.893">findJobOpeningByJobReference(jobReference)</text></g><!--class JobOpeningRepository--><g id="elem_JobOpeningRepository"><rect codeLine="42" fill="#FFFFFF" height="38.693" id="JobOpeningRepository" rx="1.5" ry="1.5" style="stroke:#000000;stroke-width:0.3;" width="111.6" x="333" y="644.993"/><ellipse cx="342" cy="654.593" fill="#B4A7E5" rx="6.6" ry="6.6" style="stroke:#181818;stroke-width:0.6;"/><path d="M339.5566,652.0521 L339.5566,650.7571 L343.9843,650.7571 L343.9843,652.0521 L342.5051,652.0521 L342.5051,656.898 L343.9843,656.898 L343.9843,658.193 L339.5566,658.193 L339.5566,656.898 L341.0358,656.898 L341.0358,652.0521 Z " fill="#000000"/><text fill="#000000" font-family="sans-serif" font-size="8.4" font-style="italic" lengthAdjust="spacing" textLength="92.4" x="350.4" y="657.7676">JobOpeningRepository</text><line style="stroke:#000000;stroke-width:0.3;" x1="333.6" x2="444" y1="664.193" y2="664.193"/><line style="stroke:#000000;stroke-width:0.3;" x1="333.6" x2="444" y1="668.993" y2="668.993"/><ellipse cx="339.6" cy="677.2395" fill="#84BE84" rx="1.8" ry="1.8" style="stroke:#038048;stroke-width:0.6;"/><text fill="#000000" font-family="sans-serif" font-size="8.4" lengthAdjust="spacing" textLength="68.4" x="345" y="679.5141">allJobOpenings()</text></g><!--class ApplicationRepository--><g id="elem_ApplicationRepository"><rect codeLine="46" fill="#FFFFFF" height="48.5859" id="ApplicationRepository" rx="1.5" ry="1.5" style="stroke:#000000;stroke-width:0.3;" width="109.8" x="465.9" y="639.893"/><ellipse cx="474.9" cy="649.493" fill="#B4A7E5" rx="6.6" ry="6.6" style="stroke:#181818;stroke-width:0.6;"/><path d="M472.4566,646.9521 L472.4566,645.6571 L476.8843,645.6571 L476.8843,646.9521 L475.4051,646.9521 L475.4051,651.798 L476.8843,651.798 L476.8843,653.093 L472.4566,653.093 L472.4566,651.798 L473.9358,651.798 L473.9358,646.9521 Z " fill="#000000"/><text fill="#000000" font-family="sans-serif" font-size="8.4" font-style="italic" lengthAdjust="spacing" textLength="90.6" x="483.3" y="652.6676">ApplicationRepository</text><line style="stroke:#000000;stroke-width:0.3;" x1="466.5" x2="575.1" y1="659.093" y2="659.093"/><line style="stroke:#000000;stroke-width:0.3;" x1="466.5" x2="575.1" y1="663.893" y2="663.893"/><ellipse cx="472.5" cy="672.1395" fill="#84BE84" rx="1.8" ry="1.8" style="stroke:#038048;stroke-width:0.6;"/><text fill="#000000" font-family="sans-serif" font-size="8.4" lengthAdjust="spacing" textLength="66.6" x="477.9" y="674.4141">allApplications()</text><ellipse cx="472.5" cy="682.0324" fill="#84BE84" rx="1.8" ry="1.8" style="stroke:#038048;stroke-width:0.6;"/><text fill="#000000" font-family="sans-serif" font-size="8.4" lengthAdjust="spacing" textLength="84.6" x="477.9" y="684.307">ofIdentity(Integer id)</text></g><!--class Application--><g id="elem_Application"><rect codeLine="53" fill="#FFFFFF" height="226.6594" id="Application" rx="1.5" ry="1.5" style="stroke:#000000;stroke-width:0.3;" width="261.6" x="750.6" y="368.093"/><ellipse cx="855.45" cy="377.693" fill="#ADD1B2" rx="6.6" ry="6.6" style="stroke:#181818;stroke-width:0.6;"/><path d="M857.2339,381.0788 Q856.8853,381.2581 856.5018,381.3478 Q856.1183,381.4374 855.6949,381.4374 Q854.1908,381.4374 853.3989,380.4463 Q852.607,379.4552 852.607,377.5825 Q852.607,375.7049 853.3989,374.7138 Q854.1908,373.7227 855.6949,373.7227 Q856.1183,373.7227 856.5067,373.8123 Q856.8952,373.902 857.2339,374.0813 L857.2339,375.7148 Q856.8554,375.3662 856.4993,375.2043 Q856.1432,375.0425 855.7646,375.0425 Q854.9578,375.0425 854.5469,375.6825 Q854.136,376.3225 854.136,377.5825 Q854.136,378.8376 854.5469,379.4776 Q854.9578,380.1176 855.7646,380.1176 Q856.1432,380.1176 856.4993,379.9557 Q856.8554,379.7938 857.2339,379.4452 Z " fill="#000000"/><text fill="#000000" font-family="sans-serif" font-size="8.4" lengthAdjust="spacing" textLength="46.8" x="867.75" y="380.8676">Application</text><line style="stroke:#000000;stroke-width:0.3;" x1="751.2" x2="1011.6" y1="387.293" y2="387.293"/><line style="stroke:#000000;stroke-width:0.3;" x1="751.2" x2="1011.6" y1="392.093" y2="392.093"/><ellipse cx="757.2" cy="400.3395" fill="#84BE84" rx="1.8" ry="1.8" style="stroke:#038048;stroke-width:0.6;"/><text fill="#000000" font-family="sans-serif" font-size="8.4" lengthAdjust="spacing" textLength="246" x="762.6" y="402.6141">Application(rank, createdOn, applicationFiles, jobReference,</text><text fill="#000000" font-family="sans-serif" font-size="8.4" lengthAdjust="spacing" textLength="84" x="762.6" y="412.507">candidate, operator)</text><ellipse cx="757.2" cy="420.1254" fill="#84BE84" rx="1.8" ry="1.8" style="stroke:#038048;stroke-width:0.6;"/><text fill="#000000" font-family="sans-serif" font-size="8.4" lengthAdjust="spacing" textLength="52.8" x="762.6" y="422.4">Application()</text><ellipse cx="757.2" cy="430.0184" fill="#84BE84" rx="1.8" ry="1.8" style="stroke:#038048;stroke-width:0.6;"/><text fill="#000000" font-family="sans-serif" font-size="8.4" lengthAdjust="spacing" textLength="60" x="762.6" y="432.293">sameAs(other)</text><ellipse cx="757.2" cy="439.9113" fill="#84BE84" rx="1.8" ry="1.8" style="stroke:#038048;stroke-width:0.6;"/><text fill="#000000" font-family="sans-serif" font-size="8.4" lengthAdjust="spacing" textLength="55.2" x="762.6" y="442.1859">equals(other)</text><ellipse cx="757.2" cy="449.8043" fill="#84BE84" rx="1.8" ry="1.8" style="stroke:#038048;stroke-width:0.6;"/><text fill="#000000" font-family="sans-serif" font-size="8.4" lengthAdjust="spacing" textLength="47.4" x="762.6" y="452.0789">hashCode()</text><ellipse cx="757.2" cy="459.6973" fill="#84BE84" rx="1.8" ry="1.8" style="stroke:#038048;stroke-width:0.6;"/><text fill="#000000" font-family="sans-serif" font-size="8.4" lengthAdjust="spacing" textLength="75" x="762.6" y="461.9719">compareTo(other)</text><ellipse cx="757.2" cy="469.5902" fill="#84BE84" rx="1.8" ry="1.8" style="stroke:#038048;stroke-width:0.6;"/><text fill="#000000" font-family="sans-serif" font-size="8.4" lengthAdjust="spacing" textLength="36.6" x="762.6" y="471.8648">identity()</text><ellipse cx="757.2" cy="479.4832" fill="#84BE84" rx="1.8" ry="1.8" style="stroke:#038048;stroke-width:0.6;"/><text fill="#000000" font-family="sans-serif" font-size="8.4" lengthAdjust="spacing" textLength="24.6" x="762.6" y="481.7578">rank()</text><ellipse cx="757.2" cy="489.3762" fill="#84BE84" rx="1.8" ry="1.8" style="stroke:#038048;stroke-width:0.6;"/><text fill="#000000" font-family="sans-serif" font-size="8.4" lengthAdjust="spacing" textLength="71.4" x="762.6" y="491.6508">submissionDate()</text><ellipse cx="757.2" cy="499.2691" fill="#84BE84" rx="1.8" ry="1.8" style="stroke:#038048;stroke-width:0.6;"/><text fill="#000000" font-family="sans-serif" font-size="8.4" lengthAdjust="spacing" textLength="30.6" x="762.6" y="501.5438">status()</text><ellipse cx="757.2" cy="509.1621" fill="#84BE84" rx="1.8" ry="1.8" style="stroke:#038048;stroke-width:0.6;"/><text fill="#000000" font-family="sans-serif" font-size="8.4" lengthAdjust="spacing" textLength="38.4" x="762.6" y="511.4367">dataFile()</text><ellipse cx="757.2" cy="519.0551" fill="#84BE84" rx="1.8" ry="1.8" style="stroke:#038048;stroke-width:0.6;"/><text fill="#000000" font-family="sans-serif" font-size="8.4" lengthAdjust="spacing" textLength="42" x="762.6" y="521.3297">operator()</text><ellipse cx="757.2" cy="528.948" fill="#84BE84" rx="1.8" ry="1.8" style="stroke:#038048;stroke-width:0.6;"/><text fill="#000000" font-family="sans-serif" font-size="8.4" lengthAdjust="spacing" textLength="46.2" x="762.6" y="531.2227">candidate()</text><ellipse cx="757.2" cy="538.841" fill="#84BE84" rx="1.8" ry="1.8" style="stroke:#038048;stroke-width:0.6;"/><text fill="#000000" font-family="sans-serif" font-size="8.4" lengthAdjust="spacing" textLength="60" x="762.6" y="541.1156">jobReference()</text><ellipse cx="757.2" cy="548.734" fill="#84BE84" rx="1.8" ry="1.8" style="stroke:#038048;stroke-width:0.6;"/><text fill="#000000" font-family="sans-serif" font-size="8.4" lengthAdjust="spacing" textLength="103.2" x="762.6" y="551.0086">candidateRequirements()</text><ellipse cx="757.2" cy="558.627" fill="#84BE84" rx="1.8" ry="1.8" style="stroke:#038048;stroke-width:0.6;"/><text fill="#000000" font-family="sans-serif" font-size="8.4" lengthAdjust="spacing" textLength="73.8" x="762.6" y="560.9016">updateRank(rank)</text><ellipse cx="757.2" cy="568.5199" fill="#84BE84" rx="1.8" ry="1.8" style="stroke:#038048;stroke-width:0.6;"/><text fill="#000000" font-family="sans-serif" font-size="8.4" lengthAdjust="spacing" textLength="85.8" x="762.6" y="570.7945">changeStatus(status)</text><ellipse cx="757.2" cy="578.4129" fill="#84BE84" rx="1.8" ry="1.8" style="stroke:#038048;stroke-width:0.6;"/><text fill="#000000" font-family="sans-serif" font-size="8.4" lengthAdjust="spacing" textLength="39" x="762.6" y="580.6875">toString()</text><ellipse cx="757.2" cy="588.3059" fill="#84BE84" rx="1.8" ry="1.8" style="stroke:#038048;stroke-width:0.6;"/><text fill="#000000" font-family="sans-serif" font-size="8.4" lengthAdjust="spacing" textLength="231" x="762.6" y="590.5805">uploadCandidateRequirements(candidateRequirements)</text></g><!--class CandidateRequirements--><g id="elem_CandidateRequirements"><rect codeLine="76" fill="#FFFFFF" height="88.1578" id="CandidateRequirements" rx="1.5" ry="1.5" style="stroke:#000000;stroke-width:0.3;" width="217.8" x="1033.5" y="437.393"/><ellipse cx="1090.35" cy="446.993" fill="#ADD1B2" rx="6.6" ry="6.6" style="stroke:#181818;stroke-width:0.6;"/><path d="M1092.1339,450.3788 Q1091.7853,450.5581 1091.4018,450.6478 Q1091.0183,450.7374 1090.5949,450.7374 Q1089.0908,450.7374 1088.2989,449.7463 Q1087.507,448.7552 1087.507,446.8825 Q1087.507,445.0049 1088.2989,444.0138 Q1089.0908,443.0227 1090.5949,443.0227 Q1091.0183,443.0227 1091.4067,443.1123 Q1091.7952,443.202 1092.1339,443.3812 L1092.1339,445.0148 Q1091.7554,444.6662 1091.3993,444.5043 Q1091.0432,444.3425 1090.6646,444.3425 Q1089.8578,444.3425 1089.4469,444.9825 Q1089.036,445.6225 1089.036,446.8825 Q1089.036,448.1376 1089.4469,448.7776 Q1089.8578,449.4176 1090.6646,449.4176 Q1091.0432,449.4176 1091.3993,449.2557 Q1091.7554,449.0938 1092.1339,448.7452 Z " fill="#000000"/><text fill="#000000" font-family="sans-serif" font-size="8.4" lengthAdjust="spacing" textLength="99" x="1102.65" y="450.1676">CandidateRequirements</text><line style="stroke:#000000;stroke-width:0.3;" x1="1034.1" x2="1250.7" y1="456.593" y2="456.593"/><line style="stroke:#000000;stroke-width:0.3;" x1="1034.1" x2="1250.7" y1="461.393" y2="461.393"/><ellipse cx="1040.1" cy="469.6395" fill="#84BE84" rx="1.8" ry="1.8" style="stroke:#038048;stroke-width:0.6;"/><text fill="#000000" font-family="sans-serif" font-size="8.4" lengthAdjust="spacing" textLength="202.2" x="1045.5" y="471.9141">CandidateRequirements(candidateRequirements)</text><ellipse cx="1040.1" cy="479.5324" fill="#84BE84" rx="1.8" ry="1.8" style="stroke:#038048;stroke-width:0.6;"/><text fill="#000000" font-family="sans-serif" font-size="8.4" lengthAdjust="spacing" textLength="105" x="1045.5" y="481.807">CandidateRequirements()</text><ellipse cx="1040.1" cy="489.4254" fill="#84BE84" rx="1.8" ry="1.8" style="stroke:#038048;stroke-width:0.6;"/><text fill="#000000" font-family="sans-serif" font-size="8.4" lengthAdjust="spacing" textLength="55.2" x="1045.5" y="491.7">equals(other)</text><ellipse cx="1040.1" cy="499.3184" fill="#84BE84" rx="1.8" ry="1.8" style="stroke:#038048;stroke-width:0.6;"/><text fill="#000000" font-family="sans-serif" font-size="8.4" lengthAdjust="spacing" textLength="47.4" x="1045.5" y="501.593">hashCode()</text><ellipse cx="1040.1" cy="509.2113" fill="#84BE84" rx="1.8" ry="1.8" style="stroke:#038048;stroke-width:0.6;"/><text fill="#000000" font-family="sans-serif" font-size="8.4" lengthAdjust="spacing" textLength="39" x="1045.5" y="511.4859">toString()</text><ellipse cx="1040.1" cy="519.1043" fill="#84BE84" rx="1.8" ry="1.8" style="stroke:#038048;stroke-width:0.6;"/><text fill="#000000" font-family="sans-serif" font-size="8.4" lengthAdjust="spacing" textLength="103.2" x="1045.5" y="521.3789">candidateRequirements()</text></g><!--class JobOpeningService--><g id="elem_JobOpeningService"><rect codeLine="87" fill="#FFFFFF" height="88.1578" id="JobOpeningService" rx="1.5" ry="1.5" style="stroke:#000000;stroke-width:0.3;" width="320.4" x="13.2" y="437.393"/><ellipse cx="132.15" cy="446.993" fill="#ADD1B2" rx="6.6" ry="6.6" style="stroke:#181818;stroke-width:0.6;"/><path d="M133.9339,450.3788 Q133.5853,450.5581 133.2018,450.6478 Q132.8183,450.7374 132.3949,450.7374 Q130.8908,450.7374 130.0989,449.7463 Q129.307,448.7552 129.307,446.8825 Q129.307,445.0049 130.0989,444.0138 Q130.8908,443.0227 132.3949,443.0227 Q132.8183,443.0227 133.2067,443.1123 Q133.5952,443.202 133.9339,443.3812 L133.9339,445.0148 Q133.5554,444.6662 133.1993,444.5043 Q132.8432,444.3425 132.4646,444.3425 Q131.6578,444.3425 131.2469,444.9825 Q130.836,445.6225 130.836,446.8825 Q130.836,448.1376 131.2469,448.7776 Q131.6578,449.4176 132.4646,449.4176 Q132.8432,449.4176 133.1993,449.2557 Q133.5554,449.0938 133.9339,448.7452 Z " fill="#000000"/><text fill="#000000" font-family="sans-serif" font-size="8.4" lengthAdjust="spacing" textLength="77.4" x="144.45" y="450.1676">JobOpeningService</text><line style="stroke:#000000;stroke-width:0.3;" x1="13.8" x2="333" y1="456.593" y2="456.593"/><line style="stroke:#000000;stroke-width:0.3;" x1="13.8" x2="333" y1="461.393" y2="461.393"/><ellipse cx="19.8" cy="469.6395" fill="#84BE84" rx="1.8" ry="1.8" style="stroke:#038048;stroke-width:0.6;"/><text fill="#000000" font-family="sans-serif" font-size="8.4" lengthAdjust="spacing" textLength="304.8" x="25.2" y="471.9141">registerJobOpening(jobReference, description, vacanciesNumber, address,</text><text fill="#000000" font-family="sans-serif" font-size="8.4" lengthAdjust="spacing" textLength="193.2" x="25.2" y="481.807">mode, contractType, titleOrFunction, company)</text><ellipse cx="19.8" cy="489.4254" fill="#84BE84" rx="1.8" ry="1.8" style="stroke:#038048;stroke-width:0.6;"/><text fill="#000000" font-family="sans-serif" font-size="8.4" lengthAdjust="spacing" textLength="124.8" x="25.2" y="491.7">findJobOpening(jobReference)</text><ellipse cx="19.8" cy="499.3184" fill="#84BE84" rx="1.8" ry="1.8" style="stroke:#038048;stroke-width:0.6;"/><text fill="#000000" font-family="sans-serif" font-size="8.4" lengthAdjust="spacing" textLength="286.2" x="25.2" y="501.593">updateJobRequirements(jobReference, jobRequirementsSpecification)</text><ellipse cx="19.8" cy="509.2113" fill="#84BE84" rx="1.8" ry="1.8" style="stroke:#038048;stroke-width:0.6;"/><text fill="#000000" font-family="sans-serif" font-size="8.4" lengthAdjust="spacing" textLength="136.2" x="25.2" y="511.4859">verifyJobReference(jobReference)</text><ellipse cx="19.8" cy="519.1043" fill="#84BE84" rx="1.8" ry="1.8" style="stroke:#038048;stroke-width:0.6;"/><text fill="#000000" font-family="sans-serif" font-size="8.4" lengthAdjust="spacing" textLength="68.4" x="25.2" y="521.3789">allJobOpenings()</text></g><!--class ApplicationService--><g id="elem_ApplicationService"><rect codeLine="96" fill="#FFFFFF" height="88.1578" id="ApplicationService" rx="1.5" ry="1.5" style="stroke:#000000;stroke-width:0.3;" width="332.4" x="354.6" y="437.393"/><ellipse cx="480.45" cy="446.993" fill="#ADD1B2" rx="6.6" ry="6.6" style="stroke:#181818;stroke-width:0.6;"/><path d="M482.2339,450.3788 Q481.8853,450.5581 481.5018,450.6478 Q481.1183,450.7374 480.6949,450.7374 Q479.1908,450.7374 478.3989,449.7463 Q477.607,448.7552 477.607,446.8825 Q477.607,445.0049 478.3989,444.0138 Q479.1908,443.0227 480.6949,443.0227 Q481.1183,443.0227 481.5067,443.1123 Q481.8952,443.202 482.2339,443.3812 L482.2339,445.0148 Q481.8554,444.6662 481.4993,444.5043 Q481.1432,444.3425 480.7646,444.3425 Q479.9578,444.3425 479.5469,444.9825 Q479.136,445.6225 479.136,446.8825 Q479.136,448.1376 479.5469,448.7776 Q479.9578,449.4176 480.7646,449.4176 Q481.1432,449.4176 481.4993,449.2557 Q481.8554,449.0938 482.2339,448.7452 Z " fill="#000000"/><text fill="#000000" font-family="sans-serif" font-size="8.4" lengthAdjust="spacing" textLength="75.6" x="492.75" y="450.1676">ApplicationService</text><line style="stroke:#000000;stroke-width:0.3;" x1="355.2" x2="686.4" y1="456.593" y2="456.593"/><line style="stroke:#000000;stroke-width:0.3;" x1="355.2" x2="686.4" y1="461.393" y2="461.393"/><ellipse cx="361.2" cy="469.6395" fill="#84BE84" rx="1.8" ry="1.8" style="stroke:#038048;stroke-width:0.6;"/><text fill="#000000" font-family="sans-serif" font-size="8.4" lengthAdjust="spacing" textLength="316.8" x="366.6" y="471.9141">registerApplication(rank, applicationFiles, jobReference, candidate, operator)</text><ellipse cx="361.2" cy="479.5324" fill="#84BE84" rx="1.8" ry="1.8" style="stroke:#038048;stroke-width:0.6;"/><text fill="#000000" font-family="sans-serif" font-size="8.4" lengthAdjust="spacing" textLength="139.8" x="366.6" y="481.807">findApplicationById(applicationID)</text><ellipse cx="361.2" cy="489.4254" fill="#84BE84" rx="1.8" ry="1.8" style="stroke:#038048;stroke-width:0.6;"/><text fill="#000000" font-family="sans-serif" font-size="8.4" lengthAdjust="spacing" textLength="66.6" x="366.6" y="491.7">allApplications()</text><ellipse cx="361.2" cy="499.3184" fill="#84BE84" rx="1.8" ry="1.8" style="stroke:#038048;stroke-width:0.6;"/><text fill="#000000" font-family="sans-serif" font-size="8.4" lengthAdjust="spacing" textLength="184.2" x="366.6" y="501.593">findApplicationsForJobOpening(jobOpening)</text><ellipse cx="361.2" cy="509.2113" fill="#84BE84" rx="1.8" ry="1.8" style="stroke:#038048;stroke-width:0.6;"/><text fill="#000000" font-family="sans-serif" font-size="8.4" lengthAdjust="spacing" textLength="124.2" x="366.6" y="511.4859">updateRank(rank, application)</text><ellipse cx="361.2" cy="519.1043" fill="#84BE84" rx="1.8" ry="1.8" style="stroke:#038048;stroke-width:0.6;"/><text fill="#000000" font-family="sans-serif" font-size="8.4" lengthAdjust="spacing" textLength="90" x="366.6" y="521.3789">applicationsByCM(cm)</text></g><!--link UploadRequirementsAnswersUI to GenerateRequirementsAnswersTemplateController--><g id="link_UploadRequirementsAnswersUI_GenerateRequirementsAnswersTemplateController"><path codeLine="106" d="M453.738,95.945 C438.378,101.825 422.214,108.323 407.4,114.893 C375.876,128.873 344.2049,145.2225 319.2689,158.6265 " fill="none" id="UploadRequirementsAnswersUI-to-GenerateRequirementsAnswersTemplateController" style="stroke:#000000;stroke-width:0.6;"/><polygon fill="#000000" points="316.098,160.331,321.9907,159.8882,318.7404,158.9106,319.7181,155.6603,316.098,160.331" style="stroke:#000000;stroke-width:0.6;"/></g><!--link GenerateRequirementsAnswersTemplateController to ListJobOpeningController--><g id="link_GenerateRequirementsAnswersTemplateController_ListJobOpeningController"><path codeLine="108" d="M280.848,199.103 C279.918,214.337 278.8056,232.5837 277.6896,250.8417 " fill="none" id="GenerateRequirementsAnswersTemplateController-to-ListJobOpeningController" style="stroke:#000000;stroke-width:0.6;"/><polygon fill="#000000" points="277.47,254.435,280.195,249.1915,277.653,251.4406,275.4039,248.8986,277.47,254.435" style="stroke:#000000;stroke-width:0.6;"/></g><!--link ListJobOpeningController to JobOpeningService--><g id="link_ListJobOpeningController_JobOpeningService"><path codeLine="110" d="M257.4,323.273 C240.498,354.983 216.8167,399.4158 198.3847,434.0118 " fill="none" id="ListJobOpeningController-to-JobOpeningService" style="stroke:#000000;stroke-width:0.6;"/><polygon fill="#000000" points="196.692,437.189,201.3493,433.5517,198.1026,434.5413,197.113,431.2947,196.692,437.189" style="stroke:#000000;stroke-width:0.6;"/></g><!--link JobOpeningService to JobOpeningRepository--><g id="link_JobOpeningService_JobOpeningRepository"><path codeLine="112" d="M225.27,525.797 C270.33,563.771 330.6668,614.6115 363.7688,642.4995 " fill="none" id="JobOpeningService-to-JobOpeningRepository" style="stroke:#000000;stroke-width:0.6;"/><polygon fill="#000000" points="366.522,644.819,363.9386,639.5043,364.2277,642.886,360.8459,643.1752,366.522,644.819" style="stroke:#000000;stroke-width:0.6;"/></g><!--link UploadRequirementsAnswersUI to ListJobOpeningApplicationsController--><g id="link_UploadRequirementsAnswersUI_ListJobOpeningApplicationsController"><path codeLine="114" d="M520.8,95.759 C520.8,108.887 520.8,121.913 520.8,136.859 " fill="none" id="UploadRequirementsAnswersUI-to-ListJobOpeningApplicationsController" style="stroke:#000000;stroke-width:0.6;"/><polygon fill="#000000" points="520.8,140.459,523.2,135.059,520.8,137.459,518.4,135.059,520.8,140.459" style="stroke:#000000;stroke-width:0.6;"/></g><!--link ListJobOpeningApplicationsController to ApplicationService--><g id="link_ListJobOpeningApplicationsController_ApplicationService"><path codeLine="116" d="M520.8,218.975 C520.8,275.027 520.8,374.933 520.8,433.649 " fill="none" id="ListJobOpeningApplicationsController-to-ApplicationService" style="stroke:#000000;stroke-width:0.6;"/><polygon fill="#000000" points="520.8,437.249,523.2,431.849,520.8,434.249,518.4,431.849,520.8,437.249" style="stroke:#000000;stroke-width:0.6;"/></g><!--link ApplicationService to ApplicationRepository--><g id="link_ApplicationService_ApplicationRepository"><path codeLine="118" d="M520.8,525.797 C520.8,561.569 520.8,607.211 520.8,636.119 " fill="none" id="ApplicationService-to-ApplicationRepository" style="stroke:#000000;stroke-width:0.6;"/><polygon fill="#000000" points="520.8,639.719,523.2,634.319,520.8,636.719,518.4,634.319,520.8,639.719" style="stroke:#000000;stroke-width:0.6;"/></g><!--link UploadRequirementsAnswersUI to UploadRequirementsAnswersController--><g id="link_UploadRequirementsAnswersUI_UploadRequirementsAnswersController"><path codeLine="120" d="M589.266,95.957 C604.428,101.759 620.292,108.227 634.8,114.893 C661.008,126.941 686.2769,140.6663 708.5249,153.4223 " fill="none" id="UploadRequirementsAnswersUI-to-UploadRequirementsAnswersController" style="stroke:#000000;stroke-width:0.6;"/><polygon fill="#000000" points="711.648,155.213,708.1571,150.445,709.0454,153.7208,705.7696,154.6091,711.648,155.213" style="stroke:#000000;stroke-width:0.6;"/></g><!--link UploadRequirementsAnswersController to CandidateRequirements--><g id="link_UploadRequirementsAnswersController_CandidateRequirements"><path codeLine="122" d="M802.182,204.173 C859.128,232.523 952.998,283.445 1023,342.293 C1056.366,370.343 1086.0742,405.3053 1108.4962,434.3513 " fill="none" id="UploadRequirementsAnswersController-to-CandidateRequirements" style="stroke:#000000;stroke-width:0.6;"/><polygon fill="#000000" points="1110.696,437.201,1109.2961,431.4599,1108.8628,434.8262,1105.4965,434.393,1110.696,437.201" style="stroke:#000000;stroke-width:0.6;"/></g><!--link UploadRequirementsAnswersController to Application--><g id="link_UploadRequirementsAnswersController_Application"><path codeLine="124" d="M762.078,204.131 C777.3,239.435 805.4008,304.6191 831.2728,364.6311 " fill="none" id="UploadRequirementsAnswersController-to-Application" style="stroke:#000000;stroke-width:0.6;"/><polygon fill="#000000" points="832.698,367.937,832.7641,362.028,831.5103,365.1821,828.3563,363.9283,832.698,367.937" style="stroke:#000000;stroke-width:0.6;"/></g><!--link UploadRequirementsAnswersController to ApplicationRepository--><g id="link_UploadRequirementsAnswersController_ApplicationRepository"><path codeLine="126" d="M750.234,204.071 C744.402,289.565 722.922,578.015 696.6,609.293 C667.134,644.303 619.177,656.7307 579.499,661.2367 " fill="none" id="UploadRequirementsAnswersController-to-ApplicationRepository" style="stroke:#000000;stroke-width:0.6;"/><polygon fill="#000000" points="575.922,661.643,581.5583,663.4183,578.9028,661.3045,581.0167,658.649,575.922,661.643" style="stroke:#000000;stroke-width:0.6;"/></g><!--SRC=[dLR9Rjim4BthAuYSPDGv5EYvW1UuSD3MGEmWPuOSMKmeKYNf16gHV-_GiYDIYvVuP973D-_DHjeNeKfgQ46OfDQIVmd1tvIobwtHEyLdMcf37dFXOBypCKQ_rOjJYLQrkJOSJ7jrePNhMrkBlq2-ValUasGZd0HoCzkxdWkwzKHkoJriXNLW22MCAYuuTN2J92MYq2tQbmOiA4UTqEhcGBcc_r1AJVaz_Da90mNQs8coRs3im_9WvtzV2DVhNB-bes0f1ygbK71OVFVyFZpIifI2zJZy0GeCqkjnkO6YbBWrGyr6IubwGWgPK7mYvPr-MfMWXDhQH-5o_0oXFiXS8770Zq5T2o4XBQdBGy6x3b1gWeyn2KHtQVp433NS9utf40ygPMYrofhJwRDNdO41nI2aQ359rny22Sm5nw8q-x1V0BBFJWCnhPRpLF1pOHYGxcK4UKv7mtiJHMLbHMn3ep8v8MTQtGLwUiJ5LMsWr5OuRGJOOraBXOsNKGQaWRq_sbNjZ7Pf8NuC4qHn62TCSgHFPqkErIXSbIuHSekHRT8GQk6weABLd05gv32i3KFLovWmx187VAMYglTjWtqGXd7y0RDtSvnEOw9BFmUq6GtuYN9E2vZOLBiS8dliFYfxrdDgyvdc484mNU3WXetksejZoC95BpHciNigXBL8ReuAuYsShRiu4QYIxiT8b9s3w9ZOCIZHQXZ4VlEUkNSSLFjjpz-BY0xdL6rXNTEjMOVRJg-TyMtUdNkpNhUzPAB2hYkhztHKOrVZdphswIBf3S2fYCTDPS6y2jOCXrfyq_JhUhzrtzINzy2G7HCEbXbH-guOarUAR1ZEdz-xuWaCjX_dUBlRkCyAr8LDwgShPMvJbVZb_DjXPHOxnMgeVKEewXF3lYwmzjKRitwETzSbC955jsEDzGf6PEV6yFdvsHbWfqBTdMTdXjYvmTMz_NWQG2xdeml7Tml8BdIhBWv_JxHxpplau3V0dLQpNoahWXe-zHAylVr-tSCjIQvxvta7Go-391byC_XZdUPAacw_nORDjNfUzYNFjZR3WSUTX-iMQ9Bq56tBz1h25pntJu14T16jTxnUSJuGyRbJeVJaFm00]--></g></svg>