<?xml version="1.0" encoding="us-ascii" standalone="no"?><svg xmlns="http://www.w3.org/2000/svg" xmlns:xlink="http://www.w3.org/1999/xlink" contentStyleType="text/css" height="444.4px" preserveAspectRatio="none" style="width:613px;height:444px;background:#FFFFFF;" version="1.1" viewBox="0 0 613 444" width="613.2px" zoomAndPan="magnify"><defs/><g><text fill="#000000" font-family="sans-serif" font-size="5.6" font-weight="bold" lengthAdjust="spacing" textLength="142.4" x="232.6" y="9.4141">Domain Model - Upload Candidate Requirements</text><!--cluster Job Opening Aggregate--><g id="cluster_Job Opening Aggregate"><rect fill="none" height="214" rx="1" ry="1" style="stroke:#000000;stroke-width:0.6000000000000001;" width="269.2" x="153.6" y="228.1953"/><text fill="#000000" font-family="sans-serif" font-size="5.6" font-weight="bold" lengthAdjust="spacing" textLength="67.2" x="254.6" y="234.4094">Job Opening Aggregate</text></g><!--cluster Application Aggregate--><g id="cluster_Application Aggregate"><rect fill="none" height="125.2" rx="1" ry="1" style="stroke:#000000;stroke-width:0.6000000000000001;" width="355.2" x="255.6" y="17.7953"/><text fill="#000000" font-family="sans-serif" font-size="5.6" font-weight="bold" lengthAdjust="spacing" textLength="64" x="401.2" y="24.0094">Application Aggregate</text></g><!--cluster Operator Aggregate--><g id="cluster_Operator Aggregate"><rect fill="none" height="46" rx="1" ry="1" style="stroke:#000000;stroke-width:0.6000000000000001;" width="62.8" x="151.4" y="84.5953"/><text fill="#000000" font-family="sans-serif" font-size="5.6" font-weight="bold" lengthAdjust="spacing" textLength="56.8" x="154.4" y="90.8094">Operator Aggregate</text></g><!--cluster Job Requirements Specification Aggregate--><g id="cluster_Job Requirements Specification Aggregate"><rect fill="none" height="46" rx="1" ry="1" style="stroke:#000000;stroke-width:0.6000000000000001;" width="211.6" x="2.8" y="172.5953"/><text fill="#000000" font-family="sans-serif" font-size="5.6" font-weight="bold" lengthAdjust="spacing" textLength="121.6" x="47.8" y="178.8094">Job Requirements Specification Aggregate</text></g><!--cluster Candidate Aggregate--><g id="cluster_Candidate Aggregate"><rect fill="none" height="66" rx="1" ry="1" style="stroke:#000000;stroke-width:0.6000000000000001;" width="209.2" x="349.8" y="152.5953"/><text fill="#000000" font-family="sans-serif" font-size="5.6" font-weight="bold" lengthAdjust="spacing" textLength="60" x="424.4" y="158.8094">Candidate Aggregate</text></g><!--class JobOpening--><g id="elem_JobOpening"><rect codeLine="25" fill="#F0FFFF" height="25.1016" id="JobOpening" rx="1" ry="1" style="stroke:#000000;stroke-width:0.20000000000000004;" width="45.2" x="160" y="296.7953"/><ellipse cx="166" cy="307.7461" fill="#ADD1B2" rx="4.4" ry="4.4" style="stroke:#181818;stroke-width:0.4000000000000001;"/><path d="M167.6457,310.1461 L164.5578,310.1461 L164.5578,305.1889 L167.6457,305.1889 L167.6457,306.0521 L165.5373,306.0521 L165.5373,307.1213 L167.4465,307.1213 L167.4465,307.9846 L165.5373,307.9846 L165.5373,309.2828 L167.6457,309.2828 Z " fill="#000000"/><text fill="#000000" font-family="sans-serif" font-size="4.8" font-style="italic" lengthAdjust="spacing" textLength="17.2" x="179.2" y="303.4359">&#171;entity&#187;</text><text fill="#000000" font-family="sans-serif" font-size="4.8" font-style="italic" lengthAdjust="spacing" textLength="14" x="180.8" y="309.0891">&#171;root&#187;</text><text fill="#000000" font-family="sans-serif" font-size="5.6" lengthAdjust="spacing" textLength="32.4" x="171.6" y="315.5156">JobOpening</text><line style="stroke:#000000;stroke-width:0.20000000000000004;" x1="160.4" x2="204.8" y1="318.6969" y2="318.6969"/></g><g id="elem_GMN18"><path d="M336.8,361.3953 L336.8,369.2753 L308.16,369.6313 L336.8,372.4753 L336.8,383.768 A0,0 0 0 0 336.8,383.768 L416.4,383.768 A0,0 0 0 0 416.4,383.768 L416.4,365.3953 L412.4,361.3953 L336.8,361.3953 A0,0 0 0 0 336.8,361.3953 " fill="#FEFFDD" style="stroke:#181818;stroke-width:0.20000000000000004;"/><path d="M412.4,361.3953 L412.4,365.3953 L416.4,365.3953 L412.4,361.3953 " fill="#FEFFDD" style="stroke:#181818;stroke-width:0.20000000000000004;"/><text fill="#000000" font-family="sans-serif" font-size="5.2" lengthAdjust="spacing" textLength="71.2" x="339.2" y="368.4227">Can be one of the following:</text><text fill="#000000" font-family="sans-serif" font-size="5.2" lengthAdjust="spacing" textLength="27.6" x="339.2" y="374.5469">- full-time</text><text fill="#000000" font-family="sans-serif" font-size="5.2" lengthAdjust="spacing" textLength="29.2" x="339.2" y="380.6711">- part-time</text></g><g id="elem_GMN21"><path d="M336.8,318.7953 L336.8,333.9753 L308.16,337.4433 L336.8,337.1753 L336.8,347.2922 A0,0 0 0 0 336.8,347.2922 L416.4,347.2922 A0,0 0 0 0 416.4,347.2922 L416.4,322.7953 L412.4,318.7953 L336.8,318.7953 A0,0 0 0 0 336.8,318.7953 " fill="#FEFFDD" style="stroke:#181818;stroke-width:0.20000000000000004;"/><path d="M412.4,318.7953 L412.4,322.7953 L416.4,322.7953 L412.4,318.7953 " fill="#FEFFDD" style="stroke:#181818;stroke-width:0.20000000000000004;"/><text fill="#000000" font-family="sans-serif" font-size="5.2" lengthAdjust="spacing" textLength="71.2" x="339.2" y="325.8227">Can be one of the following:</text><text fill="#000000" font-family="sans-serif" font-size="5.2" lengthAdjust="spacing" textLength="22.4" x="339.2" y="331.9469">- remote</text><text fill="#000000" font-family="sans-serif" font-size="5.2" lengthAdjust="spacing" textLength="20.8" x="339.2" y="338.0711">- hybrid</text><text fill="#000000" font-family="sans-serif" font-size="5.2" lengthAdjust="spacing" textLength="20.4" x="339.2" y="344.1953">- onsite</text></g><!--entity JobReference--><g id="elem_JobReference"><rect fill="#F0FFDD" height="15.5906" rx="1" ry="1" style="stroke:#000000;stroke-width:0.20000000000000004;" width="48" x="260" y="419.9953"/><text fill="#000000" font-family="sans-serif" font-size="5.6" font-style="italic" lengthAdjust="spacing" textLength="40" x="264" y="426.6094">&#171;Value Object&#187;</text><text fill="#000000" font-family="sans-serif" font-size="5.6" lengthAdjust="spacing" textLength="36" x="266" y="433.2047">JobReference</text></g><!--entity TitleOrFunction--><g id="elem_TitleOrFunction"><rect fill="#F0FFDD" height="15.5906" rx="1" ry="1" style="stroke:#000000;stroke-width:0.20000000000000004;" width="50.8" x="258.6" y="390.3953"/><text fill="#000000" font-family="sans-serif" font-size="5.6" font-style="italic" lengthAdjust="spacing" textLength="40" x="264" y="397.0094">&#171;Value Object&#187;</text><text fill="#000000" font-family="sans-serif" font-size="5.6" lengthAdjust="spacing" textLength="42.8" x="262.6" y="403.6047">TitleOrFunction</text></g><!--entity ContractType--><g id="elem_ContractType"><rect fill="#F0FFDD" height="15.5906" rx="1" ry="1" style="stroke:#000000;stroke-width:0.20000000000000004;" width="48" x="260" y="360.7953"/><text fill="#000000" font-family="sans-serif" font-size="5.6" font-style="italic" lengthAdjust="spacing" textLength="40" x="264" y="367.4094">&#171;Value Object&#187;</text><text fill="#000000" font-family="sans-serif" font-size="5.6" lengthAdjust="spacing" textLength="36.8" x="265.6" y="374.0047">ContractType</text></g><!--entity Mode--><g id="elem_Mode"><rect fill="#F0FFDD" height="15.5906" rx="1" ry="1" style="stroke:#000000;stroke-width:0.20000000000000004;" width="48" x="260" y="331.1953"/><text fill="#000000" font-family="sans-serif" font-size="5.6" font-style="italic" lengthAdjust="spacing" textLength="40" x="264" y="337.8094">&#171;Value Object&#187;</text><text fill="#000000" font-family="sans-serif" font-size="5.6" lengthAdjust="spacing" textLength="15.2" x="276.4" y="344.4047">Mode</text></g><!--entity Address--><g id="elem_Address"><rect fill="#F0FFDD" height="15.5906" rx="1" ry="1" style="stroke:#000000;stroke-width:0.20000000000000004;" width="48" x="260" y="301.5953"/><text fill="#000000" font-family="sans-serif" font-size="5.6" font-style="italic" lengthAdjust="spacing" textLength="40" x="264" y="308.2094">&#171;Value Object&#187;</text><text fill="#000000" font-family="sans-serif" font-size="5.6" lengthAdjust="spacing" textLength="22.4" x="272.8" y="314.8047">Address</text></g><!--entity VacanciesNumber--><g id="elem_VacanciesNumber"><rect fill="#F0FFDD" height="15.5906" rx="1" ry="1" style="stroke:#000000;stroke-width:0.20000000000000004;" width="56.8" x="255.6" y="271.9953"/><text fill="#000000" font-family="sans-serif" font-size="5.6" font-style="italic" lengthAdjust="spacing" textLength="40" x="264" y="278.6094">&#171;Value Object&#187;</text><text fill="#000000" font-family="sans-serif" font-size="5.6" lengthAdjust="spacing" textLength="48.8" x="259.6" y="285.2047">VacanciesNumber</text></g><!--entity Description--><g id="elem_Description"><rect fill="#F0FFDD" height="15.5906" rx="1" ry="1" style="stroke:#000000;stroke-width:0.20000000000000004;" width="48" x="260" y="242.3953"/><text fill="#000000" font-family="sans-serif" font-size="5.6" font-style="italic" lengthAdjust="spacing" textLength="40" x="264" y="249.0094">&#171;Value Object&#187;</text><text fill="#000000" font-family="sans-serif" font-size="5.6" lengthAdjust="spacing" textLength="31.2" x="268.4" y="255.6047">Description</text></g><!--class Application--><g id="elem_Application"><rect codeLine="66" fill="#F0FFFF" height="25.1016" id="Application" rx="1" ry="1" style="stroke:#000000;stroke-width:0.20000000000000004;" width="44" x="262" y="98.7953"/><ellipse cx="268" cy="109.7461" fill="#ADD1B2" rx="4.4" ry="4.4" style="stroke:#181818;stroke-width:0.4000000000000001;"/><path d="M269.6457,112.1461 L266.5578,112.1461 L266.5578,107.1889 L269.6457,107.1889 L269.6457,108.0521 L267.5373,108.0521 L267.5373,109.1213 L269.4465,109.1213 L269.4465,109.9846 L267.5373,109.9846 L267.5373,111.2828 L269.6457,111.2828 Z " fill="#000000"/><text fill="#000000" font-family="sans-serif" font-size="4.8" font-style="italic" lengthAdjust="spacing" textLength="17.2" x="280.6" y="105.4359">&#171;entity&#187;</text><text fill="#000000" font-family="sans-serif" font-size="4.8" font-style="italic" lengthAdjust="spacing" textLength="14" x="282.2" y="111.0891">&#171;root&#187;</text><text fill="#000000" font-family="sans-serif" font-size="5.6" lengthAdjust="spacing" textLength="31.2" x="273.6" y="117.5156">Application</text><line style="stroke:#000000;stroke-width:0.20000000000000004;" x1="262.4" x2="305.6" y1="120.6969" y2="120.6969"/></g><g id="elem_GMN34"><path d="M483.2,52.7953 L483.2,76.4073 L400.716,94.3033 L483.2,79.6073 L483.2,87.4164 A0,0 0 0 0 483.2,87.4164 L562.8,87.4164 A0,0 0 0 0 562.8,87.4164 L562.8,56.7953 L558.8,52.7953 L483.2,52.7953 A0,0 0 0 0 483.2,52.7953 " fill="#FEFFDD" style="stroke:#181818;stroke-width:0.20000000000000004;"/><path d="M558.8,52.7953 L558.8,56.7953 L562.8,56.7953 L558.8,52.7953 " fill="#FEFFDD" style="stroke:#181818;stroke-width:0.20000000000000004;"/><text fill="#000000" font-family="sans-serif" font-size="5.2" lengthAdjust="spacing" textLength="71.2" x="485.6" y="59.8227">Can be one of the following:</text><text fill="#000000" font-family="sans-serif" font-size="5.2" lengthAdjust="spacing" textLength="30.4" x="485.6" y="65.9469">- submitted</text><text fill="#000000" font-family="sans-serif" font-size="5.2" lengthAdjust="spacing" textLength="25.2" x="485.6" y="72.0711">- pending</text><text fill="#000000" font-family="sans-serif" font-size="5.2" lengthAdjust="spacing" textLength="27.2" x="485.6" y="78.1953">- accepted</text><text fill="#000000" font-family="sans-serif" font-size="5.2" lengthAdjust="spacing" textLength="26" x="485.6" y="84.3195">- declined</text></g><g id="elem_GMN37"><path d="M441.6,101.5953 L441.6,122.7393 L402.528,126.9113 L441.6,125.9393 L441.6,136.2164 A0,0 0 0 0 441.6,136.2164 L604.4,136.2164 A0,0 0 0 0 604.4,136.2164 L604.4,105.5953 L600.4,101.5953 L441.6,101.5953 A0,0 0 0 0 441.6,101.5953 " fill="#FEFFDD" style="stroke:#181818;stroke-width:0.20000000000000004;"/><path d="M600.4,101.5953 L600.4,105.5953 L604.4,105.5953 L600.4,101.5953 " fill="#FEFFDD" style="stroke:#181818;stroke-width:0.20000000000000004;"/><text fill="#000000" font-family="sans-serif" font-size="5.2" lengthAdjust="spacing" textLength="71.2" x="444" y="108.6227">Can be one of the following:</text><text fill="#000000" font-family="sans-serif" font-size="5.2" lengthAdjust="spacing" textLength="101.6" x="444" y="114.7469">- text file with the contents of the email</text><text fill="#000000" font-family="sans-serif" font-size="5.2" lengthAdjust="spacing" textLength="99.2" x="444" y="120.8711">- file for each file attached to the email</text><text fill="#000000" font-family="sans-serif" font-size="5.2" lengthAdjust="spacing" textLength="154.4" x="444" y="126.9953">- text file with the contents of each file attached to the email</text><text fill="#000000" font-family="sans-serif" font-size="5.2" lengthAdjust="spacing" textLength="141.6" x="444" y="133.1195">- text file with the data of the application and candidate</text></g><!--entity ApplicationFiles--><g id="elem_ApplicationFiles"><rect fill="#F0FFDD" height="15.5906" rx="1" ry="1" style="stroke:#000000;stroke-width:0.20000000000000004;" width="51.6" x="350.8" y="120.7953"/><text fill="#000000" font-family="sans-serif" font-size="5.6" font-style="italic" lengthAdjust="spacing" textLength="40" x="356.6" y="127.4094">&#171;Value Object&#187;</text><text fill="#000000" font-family="sans-serif" font-size="5.6" lengthAdjust="spacing" textLength="43.6" x="354.8" y="134.0047">ApplicationFiles</text></g><!--entity Status--><g id="elem_Status"><rect fill="#F0FFDD" height="15.5906" rx="1" ry="1" style="stroke:#000000;stroke-width:0.20000000000000004;" width="48" x="352.6" y="91.1953"/><text fill="#000000" font-family="sans-serif" font-size="5.6" font-style="italic" lengthAdjust="spacing" textLength="40" x="356.6" y="97.8094">&#171;Value Object&#187;</text><text fill="#000000" font-family="sans-serif" font-size="5.6" lengthAdjust="spacing" textLength="16.8" x="368.2" y="104.4047">Status</text></g><!--entity SubmissionDate--><g id="elem_SubmissionDate"><rect fill="#F0FFDD" height="15.5906" rx="1" ry="1" style="stroke:#000000;stroke-width:0.20000000000000004;" width="52" x="350.6" y="61.5953"/><text fill="#000000" font-family="sans-serif" font-size="5.6" font-style="italic" lengthAdjust="spacing" textLength="40" x="356.6" y="68.2094">&#171;Value Object&#187;</text><text fill="#000000" font-family="sans-serif" font-size="5.6" lengthAdjust="spacing" textLength="44" x="354.6" y="74.8047">SubmissionDate</text></g><!--entity Rank--><g id="elem_Rank"><rect fill="#F0FFDD" height="15.5906" rx="1" ry="1" style="stroke:#000000;stroke-width:0.20000000000000004;" width="48" x="352.6" y="31.9953"/><text fill="#000000" font-family="sans-serif" font-size="5.6" font-style="italic" lengthAdjust="spacing" textLength="40" x="356.6" y="38.6094">&#171;Value Object&#187;</text><text fill="#000000" font-family="sans-serif" font-size="5.6" lengthAdjust="spacing" textLength="13.6" x="369.8" y="45.2047">Rank</text></g><!--class Operator--><g id="elem_Operator"><rect codeLine="101" fill="#F0FFFF" height="25.1016" id="Operator" rx="1" ry="1" style="stroke:#000000;stroke-width:0.20000000000000004;" width="37.6" x="163.8" y="98.7953"/><ellipse cx="169.8" cy="109.7461" fill="#ADD1B2" rx="4.4" ry="4.4" style="stroke:#181818;stroke-width:0.4000000000000001;"/><path d="M171.4457,112.1461 L168.3578,112.1461 L168.3578,107.1889 L171.4457,107.1889 L171.4457,108.0521 L169.3373,108.0521 L169.3373,109.1213 L171.2465,109.1213 L171.2465,109.9846 L169.3373,109.9846 L169.3373,111.2828 L171.4457,111.2828 Z " fill="#000000"/><text fill="#000000" font-family="sans-serif" font-size="4.8" font-style="italic" lengthAdjust="spacing" textLength="17.2" x="179.2" y="105.4359">&#171;entity&#187;</text><text fill="#000000" font-family="sans-serif" font-size="4.8" font-style="italic" lengthAdjust="spacing" textLength="14" x="180.8" y="111.0891">&#171;root&#187;</text><text fill="#000000" font-family="sans-serif" font-size="5.6" lengthAdjust="spacing" textLength="24.8" x="175.4" y="117.5156">Operator</text><line style="stroke:#000000;stroke-width:0.20000000000000004;" x1="164.2" x2="201" y1="120.6969" y2="120.6969"/></g><!--class JobRequirementsSpecification--><g id="elem_JobRequirementsSpecification"><rect codeLine="106" fill="#F0FFFF" height="25.1016" id="JobRequirementsSpecification" rx="1" ry="1" style="stroke:#000000;stroke-width:0.20000000000000004;" width="94.4" x="9.2" y="186.7953"/><ellipse cx="15.2" cy="197.7461" fill="#ADD1B2" rx="4.4" ry="4.4" style="stroke:#181818;stroke-width:0.4000000000000001;"/><path d="M16.8457,200.1461 L13.7578,200.1461 L13.7578,195.1889 L16.8457,195.1889 L16.8457,196.0521 L14.7373,196.0521 L14.7373,197.1213 L16.6465,197.1213 L16.6465,197.9846 L14.7373,197.9846 L14.7373,199.2828 L16.8457,199.2828 Z " fill="#000000"/><text fill="#000000" font-family="sans-serif" font-size="4.8" font-style="italic" lengthAdjust="spacing" textLength="17.2" x="53" y="193.4359">&#171;entity&#187;</text><text fill="#000000" font-family="sans-serif" font-size="4.8" font-style="italic" lengthAdjust="spacing" textLength="14" x="54.6" y="199.0891">&#171;root&#187;</text><text fill="#000000" font-family="sans-serif" font-size="5.6" lengthAdjust="spacing" textLength="81.6" x="20.8" y="205.5156">JobRequirementsSpecification</text><line style="stroke:#000000;stroke-width:0.20000000000000004;" x1="9.6" x2="103.2" y1="208.6969" y2="208.6969"/></g><!--class Requirements--><g id="elem_Requirements"><rect codeLine="108" fill="#F0FFFF" height="19.4484" id="Requirements" rx="1" ry="1" style="stroke:#000000;stroke-width:0.20000000000000004;" width="50.8" x="157.2" y="189.5953"/><ellipse cx="163.2" cy="197.7195" fill="#ADD1B2" rx="4.4" ry="4.4" style="stroke:#181818;stroke-width:0.4000000000000001;"/><path d="M164.8457,200.1195 L161.7578,200.1195 L161.7578,195.1623 L164.8457,195.1623 L164.8457,196.0256 L162.7373,196.0256 L162.7373,197.0947 L164.6465,197.0947 L164.6465,197.958 L162.7373,197.958 L162.7373,199.2563 L164.8457,199.2563 Z " fill="#000000"/><text fill="#000000" font-family="sans-serif" font-size="4.8" font-style="italic" lengthAdjust="spacing" textLength="17.2" x="179.2" y="196.2359">&#171;entity&#187;</text><text fill="#000000" font-family="sans-serif" font-size="5.6" lengthAdjust="spacing" textLength="38" x="168.8" y="202.6625">Requirements</text><line style="stroke:#000000;stroke-width:0.20000000000000004;" x1="157.6" x2="207.6" y1="205.8438" y2="205.8438"/></g><!--class Candidate--><g id="elem_Candidate"><rect codeLine="116" fill="#F0FFFF" height="25.1016" id="Candidate" rx="1" ry="1" style="stroke:#000000;stroke-width:0.20000000000000004;" width="40.8" x="356.2" y="166.7953"/><ellipse cx="362.2" cy="177.7461" fill="#ADD1B2" rx="4.4" ry="4.4" style="stroke:#181818;stroke-width:0.4000000000000001;"/><path d="M363.8457,180.1461 L360.7578,180.1461 L360.7578,175.1889 L363.8457,175.1889 L363.8457,176.0521 L361.7373,176.0521 L361.7373,177.1213 L363.6465,177.1213 L363.6465,177.9846 L361.7373,177.9846 L361.7373,179.2828 L363.8457,179.2828 Z " fill="#000000"/><text fill="#000000" font-family="sans-serif" font-size="4.8" font-style="italic" lengthAdjust="spacing" textLength="17.2" x="373.2" y="173.4359">&#171;entity&#187;</text><text fill="#000000" font-family="sans-serif" font-size="4.8" font-style="italic" lengthAdjust="spacing" textLength="14" x="374.8" y="179.0891">&#171;root&#187;</text><text fill="#000000" font-family="sans-serif" font-size="5.6" lengthAdjust="spacing" textLength="28" x="367.8" y="185.5156">Candidate</text><line style="stroke:#000000;stroke-width:0.20000000000000004;" x1="356.6" x2="396.6" y1="188.6969" y2="188.6969"/></g><!--entity Curriculum--><g id="elem_Curriculum"><rect fill="#F0FFDD" height="15.5906" rx="1" ry="1" style="stroke:#000000;stroke-width:0.20000000000000004;" width="48" x="499" y="196.3953"/><text fill="#000000" font-family="sans-serif" font-size="5.6" font-style="italic" lengthAdjust="spacing" textLength="40" x="503" y="203.0094">&#171;Value Object&#187;</text><text fill="#000000" font-family="sans-serif" font-size="5.6" lengthAdjust="spacing" textLength="30.8" x="507.6" y="209.6047">Curriculum</text></g><!--entity TelephoneNumber--><g id="elem_TelephoneNumber"><rect fill="#F0FFDD" height="15.5906" rx="1" ry="1" style="stroke:#000000;stroke-width:0.20000000000000004;" width="59.2" x="493.4" y="166.7953"/><text fill="#000000" font-family="sans-serif" font-size="5.6" font-style="italic" lengthAdjust="spacing" textLength="40" x="503" y="173.4094">&#171;Value Object&#187;</text><text fill="#000000" font-family="sans-serif" font-size="5.6" lengthAdjust="spacing" textLength="51.2" x="497.4" y="180.0047">TelephoneNumber</text></g><!--link JobOpening to JobReference--><g id="link_JobOpening_JobReference"><path codeLine="42" d="M188.08,322.1553 C197.452,344.0553 219.556,388.7753 252.4,412.9953 C255.876,415.5553 257.7182,416.7723 261.6542,418.7443 " fill="none" id="JobOpening-to-JobReference" style="stroke:#808080;stroke-width:0.4000000000000001;"/><polygon fill="#808080" points="263.8,419.8193,261.2981,416.7762,262.0119,418.9234,259.8647,419.6372,263.8,419.8193" style="stroke:#808080;stroke-width:0.4000000000000001;"/></g><!--link JobOpening to TitleOrFunction--><g id="link_JobOpening_TitleOrFunction"><path codeLine="43" d="M192.304,322.1513 C204.56,338.2153 227.496,365.8353 252.4,383.3953 C256.024,385.9513 258.0123,387.2042 262.0603,389.2042 " fill="none" id="JobOpening-to-TitleOrFunction" style="stroke:#808080;stroke-width:0.4000000000000001;"/><polygon fill="#808080" points="264.212,390.2673,261.6932,387.2382,262.4189,389.3814,260.2757,390.1071,264.212,390.2673" style="stroke:#808080;stroke-width:0.4000000000000001;"/></g><!--link JobOpening to ContractType--><g id="link_JobOpening_ContractType"><path codeLine="44" d="M201.46,322.1113 C215.224,331.3673 234.636,343.9513 252.4,353.7953 C256.648,356.1473 259.1661,357.4614 263.5821,359.5694 " fill="none" id="JobOpening-to-ContractType" style="stroke:#808080;stroke-width:0.4000000000000001;"/><polygon fill="#808080" points="265.748,360.6033,263.1884,357.6085,263.9431,359.7417,261.8099,360.4964,265.748,360.6033" style="stroke:#808080;stroke-width:0.4000000000000001;"/></g><!--link JobOpening to Mode--><g id="link_JobOpening_Mode"><path codeLine="45" d="M205.328,315.9633 C221.536,320.7353 241.1215,326.4982 257.6335,331.3542 " fill="none" id="JobOpening-to-Mode" style="stroke:#808080;stroke-width:0.4000000000000001;"/><polygon fill="#808080" points="259.936,332.0313,256.9337,329.4806,258.0173,331.467,256.0308,332.5506,259.936,332.0313" style="stroke:#808080;stroke-width:0.4000000000000001;"/></g><!--link JobOpening to Address--><g id="link_JobOpening_Address"><path codeLine="46" d="M205.328,309.3953 C221.536,309.3953 241.024,309.3953 257.536,309.3953 " fill="none" id="JobOpening-to-Address" style="stroke:#808080;stroke-width:0.4000000000000001;"/><polygon fill="#808080" points="259.936,309.3953,256.336,307.7953,257.936,309.3953,256.336,310.9953,259.936,309.3953" style="stroke:#808080;stroke-width:0.4000000000000001;"/></g><!--link JobOpening to VacanciesNumber--><g id="link_JobOpening_VacanciesNumber"><path codeLine="47" d="M205.328,302.8273 C220.436,298.3793 238.1776,293.1609 254.2016,288.4449 " fill="none" id="JobOpening-to-VacanciesNumber" style="stroke:#808080;stroke-width:0.4000000000000001;"/><polygon fill="#808080" points="256.504,287.7673,252.5987,287.2488,254.5854,288.332,253.5022,290.3186,256.504,287.7673" style="stroke:#808080;stroke-width:0.4000000000000001;"/></g><!--link JobOpening to Description--><g id="link_JobOpening_Description"><path codeLine="48" d="M201.46,296.6793 C215.224,287.4233 234.636,274.8393 252.4,264.9953 C256.648,262.6433 259.1661,261.3292 263.5821,259.2212 " fill="none" id="JobOpening-to-Description" style="stroke:#808080;stroke-width:0.4000000000000001;"/><polygon fill="#808080" points="265.748,258.1873,261.8099,258.2942,263.9431,259.0489,263.1884,261.1821,265.748,258.1873" style="stroke:#808080;stroke-width:0.4000000000000001;"/></g><!--link Application to ApplicationFiles--><g id="link_Application_ApplicationFiles"><path codeLine="77" d="M306.156,115.4713 C319.516,117.9753 334.3331,120.7492 348.3331,123.3732 " fill="none" id="Application-to-ApplicationFiles" style="stroke:#808080;stroke-width:0.4000000000000001;"/><polygon fill="#808080" points="350.692,123.8153,347.4484,121.5795,348.7262,123.4469,346.8589,124.7247,350.692,123.8153" style="stroke:#808080;stroke-width:0.4000000000000001;"/></g><!--link Application to Status--><g id="link_Application_Status"><path codeLine="78" d="M306.156,108.4553 C320.1,106.5713 335.8216,104.4485 350.1296,102.5165 " fill="none" id="Application-to-Status" style="stroke:#808080;stroke-width:0.4000000000000001;"/><polygon fill="#808080" points="352.508,102.1953,348.7263,101.0914,350.526,102.4629,349.1545,104.2627,352.508,102.1953" style="stroke:#808080;stroke-width:0.4000000000000001;"/></g><!--link Application to SubmissionDate--><g id="link_Application_SubmissionDate"><path codeLine="79" d="M306.168,99.3553 C315.48,94.3993 326.548,88.7633 336.8,84.1953 C342.14,81.8153 345.7432,80.3284 351.2632,78.2404 " fill="none" id="Application-to-SubmissionDate" style="stroke:#808080;stroke-width:0.4000000000000001;"/><polygon fill="#808080" points="353.508,77.3913,349.5748,77.1685,351.6374,78.0989,350.7069,80.1615,353.508,77.3913" style="stroke:#808080;stroke-width:0.4000000000000001;"/></g><!--link Application to Rank--><g id="link_Application_Rank"><path codeLine="80" d="M293.38,98.5993 C302.876,85.8953 318.936,66.6193 336.8,54.5953 C341.528,51.4113 344.7969,49.6697 350.1649,47.5697 " fill="none" id="Application-to-Rank" style="stroke:#808080;stroke-width:0.4000000000000001;"/><polygon fill="#808080" points="352.4,46.6953,348.4645,46.5168,350.5375,47.424,349.6303,49.4969,352.4,46.6953" style="stroke:#808080;stroke-width:0.4000000000000001;"/></g><!--link JobRequirementsSpecification to Requirements--><g id="link_JobRequirementsSpecification_Requirements"><path codeLine="110" d="M103.672,199.3953 C121.76,199.3953 139.328,199.3953 154.6,199.3953 " fill="none" id="JobRequirementsSpecification-to-Requirements" style="stroke:#808080;stroke-width:0.4000000000000001;"/><polygon fill="#808080" points="157,199.3953,153.4,197.7953,155,199.3953,153.4,200.9953,157,199.3953" style="stroke:#808080;stroke-width:0.4000000000000001;"/></g><!--link Candidate to Curriculum--><g id="link_Candidate_Curriculum"><path codeLine="123" d="M397.092,182.8193 C423.696,187.3473 468.1661,194.9243 496.4861,199.7483 " fill="none" id="Candidate-to-Curriculum" style="stroke:#808080;stroke-width:0.4000000000000001;"/><polygon fill="#808080" points="498.852,200.1513,495.5718,197.9695,496.8804,199.8155,495.0344,201.1241,498.852,200.1513" style="stroke:#808080;stroke-width:0.4000000000000001;"/></g><!--link Candidate to TelephoneNumber--><g id="link_Candidate_TelephoneNumber"><path codeLine="124" d="M397.092,178.7313 C422.016,177.9113 462.3093,176.5822 490.8893,175.6422 " fill="none" id="Candidate-to-TelephoneNumber" style="stroke:#808080;stroke-width:0.4000000000000001;"/><polygon fill="#808080" points="493.288,175.5633,489.6373,174.0825,491.2891,175.6291,489.7425,177.2808,493.288,175.5633" style="stroke:#808080;stroke-width:0.4000000000000001;"/></g><!--reverse link JobOpening to Application--><g id="link_JobOpening_Application"><path codeLine="127" d="M190.5351,294.5676 C208.6831,258.8476 258.98,159.8513 277.144,124.1033 " fill="none" id="JobOpening-backto-Application" style="stroke:#808080;stroke-width:0.4000000000000001;"/><polygon fill="#808080" points="189.448,296.7073,192.5051,294.2225,190.3539,294.9242,189.6522,292.7731,189.448,296.7073" style="stroke:#808080;stroke-width:0.4000000000000001;"/><text fill="#000000" font-family="sans-serif" font-size="5.2" lengthAdjust="spacing" textLength="8.8" x="227.8" y="191.6227">has</text><text fill="#000000" font-family="sans-serif" font-size="5.2" lengthAdjust="spacing" textLength="3.2" x="187.3304" y="292.522">1</text><text fill="#000000" font-family="sans-serif" font-size="5.2" lengthAdjust="spacing" textLength="4" x="269.7033" y="132.1462">N</text></g><!--reverse link JobRequirementsSpecification to JobOpening--><g id="link_JobRequirementsSpecification_JobOpening"><path codeLine="128" d="M73.1122,213.702 C97.2242,234.854 143.476,275.4273 167.628,296.6153 " fill="none" id="JobRequirementsSpecification-backto-JobOpening" style="stroke:#808080;stroke-width:0.4000000000000001;"/><polygon fill="#808080" points="71.308,212.1193,72.9591,215.6961,72.8115,213.4382,75.0694,213.2906,71.308,212.1193" style="stroke:#808080;stroke-width:0.4000000000000001;"/><text fill="#000000" font-family="sans-serif" font-size="5.2" lengthAdjust="spacing" textLength="26.8" x="116" y="250.0227">associated</text><text fill="#000000" font-family="sans-serif" font-size="5.2" lengthAdjust="spacing" textLength="3.2" x="70.6448" y="220.1653">1</text><text fill="#000000" font-family="sans-serif" font-size="5.2" lengthAdjust="spacing" textLength="4" x="160.1275" y="292.411">N</text></g><!--link Operator to Application--><g id="link_Operator_Application"><path codeLine="129" d="M201.568,111.3953 C218.6,111.3953 241.436,111.3953 259.416,111.3953 " fill="none" id="Operator-to-Application" style="stroke:#808080;stroke-width:0.4000000000000001;"/><polygon fill="#808080" points="261.816,111.3953,258.216,109.7953,259.816,111.3953,258.216,112.9953,261.816,111.3953" style="stroke:#808080;stroke-width:0.4000000000000001;"/><text fill="#000000" font-family="sans-serif" font-size="5.2" lengthAdjust="spacing" textLength="22" x="221.2" y="110.0227">registers</text><text fill="#000000" font-family="sans-serif" font-size="5.2" lengthAdjust="spacing" textLength="3.2" x="204.5889" y="116.8796">1</text><text fill="#000000" font-family="sans-serif" font-size="5.2" lengthAdjust="spacing" textLength="4" x="254.8686" y="116.8018">N</text></g><!--link Application to Candidate--><g id="link_Application_Candidate"><path codeLine="130" d="M301.668,124.1873 C318.08,136.3433 340.6955,153.0947 357.0835,165.2347 " fill="none" id="Application-to-Candidate" style="stroke:#808080;stroke-width:0.4000000000000001;"/><polygon fill="#808080" points="359.012,166.6633,357.0717,163.2347,357.4049,165.4728,355.1669,165.8061,359.012,166.6633" style="stroke:#808080;stroke-width:0.4000000000000001;"/><text fill="#000000" font-family="sans-serif" font-size="5.2" lengthAdjust="spacing" textLength="4" x="300.5568" y="132.1468">N</text><text fill="#000000" font-family="sans-serif" font-size="5.2" lengthAdjust="spacing" textLength="3.2" x="351.8545" y="162.4689">1</text></g><!--SRC=[fLPBR-8m4BxdLrZPCzBk5I4a2gBggbkgjjkxiIU95yVEEewwgEf_tx43n0dcKJMN5iytZsyy3nU20od15fhNYOJC4gk94NbX2HS6c1LQ9ScBi198kj0b5OhyqXma6P7VbTIKapbLN71gWJp1tmQLIb2sJfEatWXLKKDBmYIjQ_AU4FpkHGRtGi6DDXpCN4jjo8AQpOrie0-WR9CRtIZUWcQFZ_TtyzdBtUh1uuRoRyllI_oyR6QCVckFSmFR5XyuN4jKJZx262iyeJaysorITSofoYNqM533pv2uDG3gwmmMYo43bvtR68kRFOjTx2JzgTTaLO4IAYUp7AddU2_fUu8t8koMe7WldKpQi-bqCZ5Qs-aqyVOzISGzGGO650D4lbAy6x9Q_y6iJAUx57nqS5yUAxDibA-NApJcMbb3cNtPLjSuS1Lt1Mp6kG4ijCl8LygeOWBgXwPSWxb2Om4rCw8wpy__2P8y6arxkOp91ycBGS9inUGkFR7pNJvYea42Of20SKjCQUpnTZRex3Wez-4i86iWMe63s098fgNKRsXpV02DIDP8ERAYXE0CUynsPw2uznVpVA1xlKkqZtF9sGjEYktQ21wUQ5KBEmmWxAzPLKd1gA-2I7-5uhCD5W2NGi9noHxLtxEbjha6rwnBKTTeUE56yaNy4rMRawXs4WMaV5KDOe-2sd3Zebw4KOWBAdRpWTLFL5lj75eBFAmsl5-41IUKCQZw80vCuXZd5oiocf9FH6ZXdoKPQf8tOGkFOzXURe_kzG1NhmnRoA4pN090MT7-ejRY_y3T2e-fNF3o9KEu_-a-L1hS9huDiCvs3uGpZOM3nr3hTcJGLItSTzP17ckhuGOCto7akG8ciZDDwmTqfz37d-hYdMxFKuSzB8BJXdsP1rBFegFHFQeY4NV2iqDctXWZM2ERyfeT3XAg0Wlrn4RiZOGk0B-U3duYme7Tv7X9fZzICXcDIFf0qjua69E2rfSpsUcdeTanmJUdPeBkU_fGGax1XUOK-lumqQAsO8u7byDw7TGz44oI_m00]--></g></svg>