<?xml version="1.0" encoding="us-ascii" standalone="no"?><svg xmlns="http://www.w3.org/2000/svg" xmlns:xlink="http://www.w3.org/1999/xlink" contentStyleType="text/css" height="742.8px" preserveAspectRatio="none" style="width:1759px;height:742px;background:#FFFFFF;" version="1.1" viewBox="0 0 1759 742" width="1759.2px" zoomAndPan="magnify"><defs/><g><rect fill="#FFFFFF" height="618.9211" style="stroke:#181818;stroke-width:0.6;" width="6" x="20.4" y="56.3859"/><rect fill="#FFFFFF" height="167.4633" style="stroke:#181818;stroke-width:0.6;" width="6" x="261" y="69.1723"/><rect fill="#FFFFFF" height="157.677" style="stroke:#181818;stroke-width:0.6;" width="6" x="261" y="254.2219"/><rect fill="#FFFFFF" height="17.5863" style="stroke:#181818;stroke-width:0.6;" width="6" x="261" y="429.4852"/><rect fill="#FFFFFF" height="210.6492" style="stroke:#181818;stroke-width:0.6;" width="6" x="261" y="464.6578"/><rect fill="#FFFFFF" height="123.1043" style="stroke:#181818;stroke-width:0.6;" width="6" x="444.9" y="86.7586"/><rect fill="#FFFFFF" height="87.9316" style="stroke:#181818;stroke-width:0.6;" width="6" x="616.2" y="104.3449"/><rect fill="#FFFFFF" height="52.759" style="stroke:#181818;stroke-width:0.6;" width="6" x="721.5" y="121.9312"/><rect fill="#FFFFFF" height="17.5863" style="stroke:#181818;stroke-width:0.6;" width="6" x="818.4" y="139.5176"/><rect fill="#FFFFFF" height="113.318" style="stroke:#181818;stroke-width:0.6;" width="6" x="954.3" y="271.8082"/><rect fill="#FFFFFF" height="73.3453" style="stroke:#181818;stroke-width:0.6;" width="6" x="957.3" y="294.1945"/><rect fill="#FFFFFF" height="52.759" style="stroke:#181818;stroke-width:0.6;" width="6" x="1144.5" y="314.7809"/><rect fill="#FFFFFF" height="17.5863" style="stroke:#181818;stroke-width:0.6;" width="6" x="1278.3" y="482.2441"/><rect fill="#FFFFFF" height="140.3039" style="stroke:#181818;stroke-width:0.6;" width="6" x="1278.3" y="517.4168"/><rect fill="#FFFFFF" height="28.7859" style="stroke:#181818;stroke-width:0.6;" width="6" x="1527.3" y="541.0031"/><rect fill="#FFFFFF" height="17.5863" style="stroke:#181818;stroke-width:0.6;" width="6" x="1637.4" y="332.3672"/><rect fill="#FFFFFF" height="17.5863" style="stroke:#181818;stroke-width:0.6;" width="6" x="1637.4" y="622.548"/><rect fill="#FFFFFF" height="17.5863" style="stroke:#181818;stroke-width:0.6;" width="6" x="1721.7" y="587.3754"/><line style="stroke:#181818;stroke-width:0.3;stroke-dasharray:5.0,5.0;" x1="23.4" x2="23.4" y1="50.3859" y2="686.107"/><line style="stroke:#181818;stroke-width:0.3;stroke-dasharray:5.0,5.0;" x1="264" x2="264" y1="50.3859" y2="686.107"/><line style="stroke:#181818;stroke-width:0.3;stroke-dasharray:5.0,5.0;" x1="447.6" x2="447.6" y1="50.3859" y2="686.107"/><line style="stroke:#181818;stroke-width:0.3;stroke-dasharray:5.0,5.0;" x1="619.2" x2="619.2" y1="50.3859" y2="686.107"/><line style="stroke:#181818;stroke-width:0.3;stroke-dasharray:5.0,5.0;" x1="724.2" x2="724.2" y1="50.3859" y2="686.107"/><line style="stroke:#181818;stroke-width:0.3;stroke-dasharray:5.0,5.0;" x1="821.4" x2="821.4" y1="50.3859" y2="686.107"/><line style="stroke:#181818;stroke-width:0.3;stroke-dasharray:5.0,5.0;" x1="957" x2="957" y1="50.3859" y2="686.107"/><line style="stroke:#181818;stroke-width:0.3;stroke-dasharray:5.0,5.0;" x1="1147.5" x2="1147.5" y1="50.3859" y2="686.107"/><line style="stroke:#181818;stroke-width:0.3;stroke-dasharray:5.0,5.0;" x1="1281.3" x2="1281.3" y1="50.3859" y2="686.107"/><line style="stroke:#181818;stroke-width:0.3;stroke-dasharray:5.0,5.0;" x1="1530.3" x2="1530.3" y1="545.6098" y2="686.107"/><line style="stroke:#181818;stroke-width:0.3;stroke-dasharray:5.0,5.0;" x1="1640.1" x2="1640.1" y1="50.3859" y2="686.107"/><line style="stroke:#181818;stroke-width:0.3;stroke-dasharray:5.0,5.0;" x1="1724.7" x2="1724.7" y1="50.3859" y2="686.107"/><text fill="#000000" font-family="sans-serif" font-size="8.4" lengthAdjust="spacing" textLength="37.2" x="3" y="48.6141">Operator</text><ellipse cx="23.4" cy="9.593" fill="#E2E2F0" rx="4.8" ry="4.8" style="stroke:#181818;stroke-width:0.3;"/><path d="M23.4,14.393 L23.4,30.593 M15.6,19.193 L31.2,19.193 M23.4,30.593 L15.6,39.593 M23.4,30.593 L31.2,39.593 " fill="none" style="stroke:#181818;stroke-width:0.3;"/><text fill="#000000" font-family="sans-serif" font-size="8.4" lengthAdjust="spacing" textLength="37.2" x="3" y="693.6281">Operator</text><ellipse cx="23.4" cy="700.5" fill="#E2E2F0" rx="4.8" ry="4.8" style="stroke:#181818;stroke-width:0.3;"/><path d="M23.4,705.3 L23.4,721.5 M15.6,710.1 L31.2,710.1 M23.4,721.5 L15.6,730.5 M23.4,721.5 L31.2,730.5 " fill="none" style="stroke:#181818;stroke-width:0.3;"/><rect fill="#E2E2F0" height="28.1859" rx="1.5" ry="1.5" style="stroke:#181818;stroke-width:0.3;" width="138" x="195" y="21.6"/><text fill="#000000" font-family="sans-serif" font-size="8.4" font-style="italic" lengthAdjust="spacing" textLength="60.6" x="233.7" y="33.9211">&#171;presentation&#187;</text><text fill="#000000" font-family="sans-serif" font-size="8.4" lengthAdjust="spacing" textLength="129.6" x="199.2" y="43.8141">UploadRequirementsAnswersUI</text><rect fill="#E2E2F0" height="28.1859" rx="1.5" ry="1.5" style="stroke:#181818;stroke-width:0.3;" width="138" x="195" y="685.507"/><text fill="#000000" font-family="sans-serif" font-size="8.4" font-style="italic" lengthAdjust="spacing" textLength="60.6" x="233.7" y="697.8281">&#171;presentation&#187;</text><text fill="#000000" font-family="sans-serif" font-size="8.4" lengthAdjust="spacing" textLength="129.6" x="199.2" y="707.7211">UploadRequirementsAnswersUI</text><rect fill="#E2E2F0" height="28.1859" rx="1.5" ry="1.5" style="stroke:#181818;stroke-width:0.3;" width="217.8" x="339" y="21.6"/><text fill="#000000" font-family="sans-serif" font-size="8.4" font-style="italic" lengthAdjust="spacing" textLength="48.6" x="423.6" y="33.9211">&#171;controller&#187;</text><text fill="#000000" font-family="sans-serif" font-size="8.4" lengthAdjust="spacing" textLength="209.4" x="343.2" y="43.8141">GenerateRequirementsAnswersTemplateController</text><rect fill="#E2E2F0" height="28.1859" rx="1.5" ry="1.5" style="stroke:#181818;stroke-width:0.3;" width="217.8" x="339" y="685.507"/><text fill="#000000" font-family="sans-serif" font-size="8.4" font-style="italic" lengthAdjust="spacing" textLength="48.6" x="423.6" y="697.8281">&#171;controller&#187;</text><text fill="#000000" font-family="sans-serif" font-size="8.4" lengthAdjust="spacing" textLength="209.4" x="343.2" y="707.7211">GenerateRequirementsAnswersTemplateController</text><rect fill="#E2E2F0" height="28.1859" rx="1.5" ry="1.5" style="stroke:#181818;stroke-width:0.3;" width="112.8" x="562.8" y="21.6"/><text fill="#000000" font-family="sans-serif" font-size="8.4" font-style="italic" lengthAdjust="spacing" textLength="48.6" x="594.9" y="33.9211">&#171;controller&#187;</text><text fill="#000000" font-family="sans-serif" font-size="8.4" lengthAdjust="spacing" textLength="104.4" x="567" y="43.8141">ListJobOpeningController</text><rect fill="#E2E2F0" height="28.1859" rx="1.5" ry="1.5" style="stroke:#181818;stroke-width:0.3;" width="112.8" x="562.8" y="685.507"/><text fill="#000000" font-family="sans-serif" font-size="8.4" font-style="italic" lengthAdjust="spacing" textLength="48.6" x="594.9" y="697.8281">&#171;controller&#187;</text><text fill="#000000" font-family="sans-serif" font-size="8.4" lengthAdjust="spacing" textLength="104.4" x="567" y="707.7211">ListJobOpeningController</text><rect fill="#E2E2F0" height="28.1859" rx="1.5" ry="1.5" style="stroke:#181818;stroke-width:0.3;" width="85.8" x="681.6" y="21.6"/><text fill="#000000" font-family="sans-serif" font-size="8.4" font-style="italic" lengthAdjust="spacing" textLength="36.6" x="706.2" y="33.9211">&#171;service&#187;</text><text fill="#000000" font-family="sans-serif" font-size="8.4" lengthAdjust="spacing" textLength="77.4" x="685.8" y="43.8141">JobOpeningService</text><rect fill="#E2E2F0" height="28.1859" rx="1.5" ry="1.5" style="stroke:#181818;stroke-width:0.3;" width="85.8" x="681.6" y="685.507"/><text fill="#000000" font-family="sans-serif" font-size="8.4" font-style="italic" lengthAdjust="spacing" textLength="36.6" x="706.2" y="697.8281">&#171;service&#187;</text><text fill="#000000" font-family="sans-serif" font-size="8.4" lengthAdjust="spacing" textLength="77.4" x="685.8" y="707.7211">JobOpeningService</text><text fill="#000000" font-family="sans-serif" font-size="8.4" font-style="italic" lengthAdjust="spacing" textLength="50.4" x="794.4" y="38.7211">&#171;repository&#187;</text><text fill="#000000" font-family="sans-serif" font-size="8.4" lengthAdjust="spacing" textLength="92.4" x="773.4" y="48.6141">JobOpeningRepository</text><path d="M810.6,9 C810.6,3 821.4,3 821.4,3 C821.4,3 832.2,3 832.2,9 L832.2,24.6 C832.2,30.6 821.4,30.6 821.4,30.6 C821.4,30.6 810.6,30.6 810.6,24.6 L810.6,9 " fill="#E2E2F0" style="stroke:#181818;stroke-width:0.8999999999999999;"/><path d="M810.6,9 C810.6,15 821.4,15 821.4,15 C821.4,15 832.2,15 832.2,9 " fill="none" style="stroke:#181818;stroke-width:0.8999999999999999;"/><text fill="#000000" font-family="sans-serif" font-size="8.4" font-style="italic" lengthAdjust="spacing" textLength="50.4" x="794.4" y="693.6281">&#171;repository&#187;</text><text fill="#000000" font-family="sans-serif" font-size="8.4" lengthAdjust="spacing" textLength="92.4" x="773.4" y="703.5211">JobOpeningRepository</text><path d="M810.6,711.293 C810.6,705.293 821.4,705.293 821.4,705.293 C821.4,705.293 832.2,705.293 832.2,711.293 L832.2,726.893 C832.2,732.893 821.4,732.893 821.4,732.893 C821.4,732.893 810.6,732.893 810.6,726.893 L810.6,711.293 " fill="#E2E2F0" style="stroke:#181818;stroke-width:0.8999999999999999;"/><path d="M810.6,711.293 C810.6,717.293 821.4,717.293 821.4,717.293 C821.4,717.293 832.2,717.293 832.2,711.293 " fill="none" style="stroke:#181818;stroke-width:0.8999999999999999;"/><rect fill="#E2E2F0" height="28.1859" rx="1.5" ry="1.5" style="stroke:#181818;stroke-width:0.3;" width="163.8" x="875.4" y="21.6"/><text fill="#000000" font-family="sans-serif" font-size="8.4" font-style="italic" lengthAdjust="spacing" textLength="48.6" x="933" y="33.9211">&#171;controller&#187;</text><text fill="#000000" font-family="sans-serif" font-size="8.4" lengthAdjust="spacing" textLength="155.4" x="879.6" y="43.8141">ListJobOpeningApplicationsController</text><rect fill="#E2E2F0" height="28.1859" rx="1.5" ry="1.5" style="stroke:#181818;stroke-width:0.3;" width="163.8" x="875.4" y="685.507"/><text fill="#000000" font-family="sans-serif" font-size="8.4" font-style="italic" lengthAdjust="spacing" textLength="48.6" x="933" y="697.8281">&#171;controller&#187;</text><text fill="#000000" font-family="sans-serif" font-size="8.4" lengthAdjust="spacing" textLength="155.4" x="879.6" y="707.7211">ListJobOpeningApplicationsController</text><rect fill="#E2E2F0" height="28.1859" rx="1.5" ry="1.5" style="stroke:#181818;stroke-width:0.3;" width="84" x="1105.5" y="21.6"/><text fill="#000000" font-family="sans-serif" font-size="8.4" font-style="italic" lengthAdjust="spacing" textLength="36.6" x="1129.2" y="33.9211">&#171;service&#187;</text><text fill="#000000" font-family="sans-serif" font-size="8.4" lengthAdjust="spacing" textLength="75.6" x="1109.7" y="43.8141">ApplicationService</text><rect fill="#E2E2F0" height="28.1859" rx="1.5" ry="1.5" style="stroke:#181818;stroke-width:0.3;" width="84" x="1105.5" y="685.507"/><text fill="#000000" font-family="sans-serif" font-size="8.4" font-style="italic" lengthAdjust="spacing" textLength="36.6" x="1129.2" y="697.8281">&#171;service&#187;</text><text fill="#000000" font-family="sans-serif" font-size="8.4" lengthAdjust="spacing" textLength="75.6" x="1109.7" y="707.7211">ApplicationService</text><rect fill="#E2E2F0" height="28.1859" rx="1.5" ry="1.5" style="stroke:#181818;stroke-width:0.3;" width="171.6" x="1195.5" y="21.6"/><text fill="#000000" font-family="sans-serif" font-size="8.4" font-style="italic" lengthAdjust="spacing" textLength="48.6" x="1257" y="33.9211">&#171;controller&#187;</text><text fill="#000000" font-family="sans-serif" font-size="8.4" lengthAdjust="spacing" textLength="163.2" x="1199.7" y="43.8141">UploadRequirementsAnswersController</text><rect fill="#E2E2F0" height="28.1859" rx="1.5" ry="1.5" style="stroke:#181818;stroke-width:0.3;" width="171.6" x="1195.5" y="685.507"/><text fill="#000000" font-family="sans-serif" font-size="8.4" font-style="italic" lengthAdjust="spacing" textLength="48.6" x="1257" y="697.8281">&#171;controller&#187;</text><text fill="#000000" font-family="sans-serif" font-size="8.4" lengthAdjust="spacing" textLength="163.2" x="1199.7" y="707.7211">UploadRequirementsAnswersController</text><rect fill="#E2E2F0" height="28.1859" rx="1.5" ry="1.5" style="stroke:#181818;stroke-width:0.3;" width="114" x="1473.3" y="685.507"/><text fill="#000000" font-family="sans-serif" font-size="8.4" font-style="italic" lengthAdjust="spacing" textLength="105.6" x="1477.5" y="697.8281">&#171;candidateRequirements&#187;</text><text fill="#000000" font-family="sans-serif" font-size="8.4" lengthAdjust="spacing" textLength="99" x="1480.8" y="707.7211">CandidateRequirements</text><text fill="#000000" font-family="sans-serif" font-size="8.4" font-style="italic" lengthAdjust="spacing" textLength="50.4" x="1613.4" y="38.7211">&#171;repository&#187;</text><text fill="#000000" font-family="sans-serif" font-size="8.4" lengthAdjust="spacing" textLength="90.6" x="1593.3" y="48.6141">ApplicationRepository</text><path d="M1629.6,9 C1629.6,3 1640.4,3 1640.4,3 C1640.4,3 1651.2,3 1651.2,9 L1651.2,24.6 C1651.2,30.6 1640.4,30.6 1640.4,30.6 C1640.4,30.6 1629.6,30.6 1629.6,24.6 L1629.6,9 " fill="#E2E2F0" style="stroke:#181818;stroke-width:0.8999999999999999;"/><path d="M1629.6,9 C1629.6,15 1640.4,15 1640.4,15 C1640.4,15 1651.2,15 1651.2,9 " fill="none" style="stroke:#181818;stroke-width:0.8999999999999999;"/><text fill="#000000" font-family="sans-serif" font-size="8.4" font-style="italic" lengthAdjust="spacing" textLength="50.4" x="1613.4" y="693.6281">&#171;repository&#187;</text><text fill="#000000" font-family="sans-serif" font-size="8.4" lengthAdjust="spacing" textLength="90.6" x="1593.3" y="703.5211">ApplicationRepository</text><path d="M1629.6,711.293 C1629.6,705.293 1640.4,705.293 1640.4,705.293 C1640.4,705.293 1651.2,705.293 1651.2,711.293 L1651.2,726.893 C1651.2,732.893 1640.4,732.893 1640.4,732.893 C1640.4,732.893 1629.6,732.893 1629.6,726.893 L1629.6,711.293 " fill="#E2E2F0" style="stroke:#181818;stroke-width:0.8999999999999999;"/><path d="M1629.6,711.293 C1629.6,717.293 1640.4,717.293 1640.4,717.293 C1640.4,717.293 1651.2,717.293 1651.2,711.293 " fill="none" style="stroke:#181818;stroke-width:0.8999999999999999;"/><rect fill="#E2E2F0" height="28.1859" rx="1.5" ry="1.5" style="stroke:#181818;stroke-width:0.3;" width="62.4" x="1693.5" y="21.6"/><text fill="#000000" font-family="sans-serif" font-size="8.4" font-style="italic" lengthAdjust="spacing" textLength="54" x="1697.7" y="33.9211">&#171;application&#187;</text><text fill="#000000" font-family="sans-serif" font-size="8.4" lengthAdjust="spacing" textLength="46.8" x="1701.3" y="43.8141">Application</text><rect fill="#E2E2F0" height="28.1859" rx="1.5" ry="1.5" style="stroke:#181818;stroke-width:0.3;" width="62.4" x="1693.5" y="685.507"/><text fill="#000000" font-family="sans-serif" font-size="8.4" font-style="italic" lengthAdjust="spacing" textLength="54" x="1697.7" y="697.8281">&#171;application&#187;</text><text fill="#000000" font-family="sans-serif" font-size="8.4" lengthAdjust="spacing" textLength="46.8" x="1701.3" y="707.7211">Application</text><rect fill="#FFFFFF" height="618.9211" style="stroke:#181818;stroke-width:0.6;" width="6" x="20.4" y="56.3859"/><rect fill="#FFFFFF" height="167.4633" style="stroke:#181818;stroke-width:0.6;" width="6" x="261" y="69.1723"/><rect fill="#FFFFFF" height="157.677" style="stroke:#181818;stroke-width:0.6;" width="6" x="261" y="254.2219"/><rect fill="#FFFFFF" height="17.5863" style="stroke:#181818;stroke-width:0.6;" width="6" x="261" y="429.4852"/><rect fill="#FFFFFF" height="210.6492" style="stroke:#181818;stroke-width:0.6;" width="6" x="261" y="464.6578"/><rect fill="#FFFFFF" height="123.1043" style="stroke:#181818;stroke-width:0.6;" width="6" x="444.9" y="86.7586"/><rect fill="#FFFFFF" height="87.9316" style="stroke:#181818;stroke-width:0.6;" width="6" x="616.2" y="104.3449"/><rect fill="#FFFFFF" height="52.759" style="stroke:#181818;stroke-width:0.6;" width="6" x="721.5" y="121.9312"/><rect fill="#FFFFFF" height="17.5863" style="stroke:#181818;stroke-width:0.6;" width="6" x="818.4" y="139.5176"/><rect fill="#FFFFFF" height="113.318" style="stroke:#181818;stroke-width:0.6;" width="6" x="954.3" y="271.8082"/><rect fill="#FFFFFF" height="73.3453" style="stroke:#181818;stroke-width:0.6;" width="6" x="957.3" y="294.1945"/><rect fill="#FFFFFF" height="52.759" style="stroke:#181818;stroke-width:0.6;" width="6" x="1144.5" y="314.7809"/><rect fill="#FFFFFF" height="17.5863" style="stroke:#181818;stroke-width:0.6;" width="6" x="1278.3" y="482.2441"/><rect fill="#FFFFFF" height="140.3039" style="stroke:#181818;stroke-width:0.6;" width="6" x="1278.3" y="517.4168"/><rect fill="#FFFFFF" height="28.7859" style="stroke:#181818;stroke-width:0.6;" width="6" x="1527.3" y="541.0031"/><rect fill="#FFFFFF" height="17.5863" style="stroke:#181818;stroke-width:0.6;" width="6" x="1637.4" y="332.3672"/><rect fill="#FFFFFF" height="17.5863" style="stroke:#181818;stroke-width:0.6;" width="6" x="1637.4" y="622.548"/><rect fill="#FFFFFF" height="17.5863" style="stroke:#181818;stroke-width:0.6;" width="6" x="1721.7" y="587.3754"/><polygon fill="#181818" points="253.8,66.7723,259.8,69.1723,253.8,71.5723,256.2,69.1723" style="stroke:#181818;stroke-width:0.6;"/><line style="stroke:#181818;stroke-width:0.6;" x1="26.4" x2="257.4" y1="69.1723" y2="69.1723"/><text fill="#000000" font-family="sans-serif" font-size="7.8" font-weight="bold" lengthAdjust="spacing" textLength="5.4" x="30.6" y="66.327">1</text><text fill="#000000" font-family="sans-serif" font-size="7.8" lengthAdjust="spacing" textLength="147" x="38.4" y="66.327">asks to upload candidate requirements</text><polygon fill="#181818" points="437.7,84.3586,443.7,86.7586,437.7,89.1586,440.1,86.7586" style="stroke:#181818;stroke-width:0.6;"/><line style="stroke:#181818;stroke-width:0.6;" x1="267" x2="441.3" y1="86.7586" y2="86.7586"/><text fill="#000000" font-family="sans-serif" font-size="7.8" font-weight="bold" lengthAdjust="spacing" textLength="5.4" x="271.2" y="83.9133">2</text><text fill="#000000" font-family="sans-serif" font-size="7.8" lengthAdjust="spacing" textLength="158.4" x="279" y="83.9133">findAllJobOpeningsWithJobRequirements()</text><polygon fill="#181818" points="609,101.9449,615,104.3449,609,106.7449,611.4,104.3449" style="stroke:#181818;stroke-width:0.6;"/><line style="stroke:#181818;stroke-width:0.6;" x1="450.9" x2="612.6" y1="104.3449" y2="104.3449"/><text fill="#000000" font-family="sans-serif" font-size="7.8" font-weight="bold" lengthAdjust="spacing" textLength="5.4" x="455.1" y="101.4996">3</text><text fill="#000000" font-family="sans-serif" font-size="7.8" lengthAdjust="spacing" textLength="61.8" x="462.9" y="101.4996">allJobOpenings()</text><polygon fill="#181818" points="714.3,119.5313,720.3,121.9312,714.3,124.3313,716.7,121.9312" style="stroke:#181818;stroke-width:0.6;"/><line style="stroke:#181818;stroke-width:0.6;" x1="622.2" x2="717.9" y1="121.9312" y2="121.9312"/><text fill="#000000" font-family="sans-serif" font-size="7.8" font-weight="bold" lengthAdjust="spacing" textLength="5.4" x="626.4" y="119.0859">4</text><text fill="#000000" font-family="sans-serif" font-size="7.8" lengthAdjust="spacing" textLength="61.8" x="634.2" y="119.0859">allJobOpenings()</text><polygon fill="#181818" points="811.2,137.1176,817.2,139.5176,811.2,141.9176,813.6,139.5176" style="stroke:#181818;stroke-width:0.6;"/><line style="stroke:#181818;stroke-width:0.6;" x1="727.5" x2="814.8" y1="139.5176" y2="139.5176"/><text fill="#000000" font-family="sans-serif" font-size="7.8" font-weight="bold" lengthAdjust="spacing" textLength="5.4" x="731.7" y="136.6723">5</text><text fill="#000000" font-family="sans-serif" font-size="7.8" lengthAdjust="spacing" textLength="30" x="739.5" y="136.6723">findAll()</text><polygon fill="#181818" points="734.1,154.7039,728.1,157.1039,734.1,159.5039,731.7,157.1039" style="stroke:#181818;stroke-width:0.6;"/><line style="stroke:#181818;stroke-width:0.6;stroke-dasharray:2.0,2.0;" x1="730.5" x2="820.8" y1="157.1039" y2="157.1039"/><text fill="#000000" font-family="sans-serif" font-size="7.8" font-weight="bold" lengthAdjust="spacing" textLength="5.4" x="737.7" y="154.2586">6</text><text fill="#000000" font-family="sans-serif" font-size="7.8" lengthAdjust="spacing" textLength="57" x="745.5" y="154.2586">allJobOpenings</text><polygon fill="#181818" points="628.8,172.2902,622.8,174.6902,628.8,177.0902,626.4,174.6902" style="stroke:#181818;stroke-width:0.6;"/><line style="stroke:#181818;stroke-width:0.6;stroke-dasharray:2.0,2.0;" x1="625.2" x2="723.9" y1="174.6902" y2="174.6902"/><text fill="#000000" font-family="sans-serif" font-size="7.8" font-weight="bold" lengthAdjust="spacing" textLength="5.4" x="632.4" y="171.8449">7</text><text fill="#000000" font-family="sans-serif" font-size="7.8" lengthAdjust="spacing" textLength="57" x="640.2" y="171.8449">allJobOpenings</text><polygon fill="#181818" points="457.5,189.8766,451.5,192.2766,457.5,194.6766,455.1,192.2766" style="stroke:#181818;stroke-width:0.6;"/><line style="stroke:#181818;stroke-width:0.6;" x1="453.9" x2="618.6" y1="192.2766" y2="192.2766"/><text fill="#000000" font-family="sans-serif" font-size="7.8" font-weight="bold" lengthAdjust="spacing" textLength="5.4" x="461.1" y="189.4313">8</text><text fill="#000000" font-family="sans-serif" font-size="7.8" lengthAdjust="spacing" textLength="57" x="468.9" y="189.4313">allJobOpenings</text><polygon fill="#181818" points="273.6,207.4629,267.6,209.8629,273.6,212.2629,271.2,209.8629" style="stroke:#181818;stroke-width:0.6;"/><line style="stroke:#181818;stroke-width:0.6;stroke-dasharray:2.0,2.0;" x1="270" x2="447.3" y1="209.8629" y2="209.8629"/><text fill="#000000" font-family="sans-serif" font-size="7.8" font-weight="bold" lengthAdjust="spacing" textLength="5.4" x="277.2" y="207.0176">9</text><text fill="#000000" font-family="sans-serif" font-size="7.8" lengthAdjust="spacing" textLength="116.4" x="285" y="207.0176">jobOpeningsWithRequirements</text><polygon fill="#181818" points="33,234.2355,27,236.6355,33,239.0355,30.6,236.6355" style="stroke:#181818;stroke-width:0.6;"/><line style="stroke:#181818;stroke-width:0.6;stroke-dasharray:2.0,2.0;" x1="29.4" x2="263.4" y1="236.6355" y2="236.6355"/><text fill="#000000" font-family="sans-serif" font-size="7.8" font-weight="bold" lengthAdjust="spacing" textLength="10.8" x="36.6" y="229.1971">10</text><text fill="#000000" font-family="sans-serif" font-size="7.8" lengthAdjust="spacing" textLength="142.2" x="49.8" y="224.6039">lists job Openings With Requirements</text><text fill="#000000" font-family="sans-serif" font-size="7.8" lengthAdjust="spacing" textLength="84.6" x="52.2" y="233.7902">and asks to select one</text><polygon fill="#181818" points="253.8,251.8219,259.8,254.2219,253.8,256.6219,256.2,254.2219" style="stroke:#181818;stroke-width:0.6;"/><line style="stroke:#181818;stroke-width:0.6;" x1="26.4" x2="257.4" y1="254.2219" y2="254.2219"/><text fill="#000000" font-family="sans-serif" font-size="7.8" font-weight="bold" lengthAdjust="spacing" textLength="10.8" x="30.6" y="251.3766">11</text><text fill="#000000" font-family="sans-serif" font-size="7.8" lengthAdjust="spacing" textLength="75" x="43.8" y="251.3766">selects job Opening</text><polygon fill="#181818" points="947.1,269.4082,953.1,271.8082,947.1,274.2082,949.5,271.8082" style="stroke:#181818;stroke-width:0.6;"/><line style="stroke:#181818;stroke-width:0.6;" x1="267" x2="950.7" y1="271.8082" y2="271.8082"/><text fill="#000000" font-family="sans-serif" font-size="7.8" font-weight="bold" lengthAdjust="spacing" textLength="10.8" x="271.2" y="268.9629">12</text><text fill="#000000" font-family="sans-serif" font-size="7.8" lengthAdjust="spacing" textLength="173.4" x="284.4" y="268.9629">showApplicationsOfJobOpening(jobReference)</text><line style="stroke:#181818;stroke-width:0.6;" x1="960.3" x2="988.5" y1="286.3945" y2="286.3945"/><line style="stroke:#181818;stroke-width:0.6;" x1="988.5" x2="988.5" y1="286.3945" y2="294.1945"/><line style="stroke:#181818;stroke-width:0.6;" x1="963.9" x2="988.5" y1="294.1945" y2="294.1945"/><polygon fill="#181818" points="969.9,291.7945,963.9,294.1945,969.9,296.5945,967.5,294.1945" style="stroke:#181818;stroke-width:0.6;"/><text fill="#000000" font-family="sans-serif" font-size="7.8" font-weight="bold" lengthAdjust="spacing" textLength="10.8" x="967.5" y="283.5492">13</text><text fill="#000000" font-family="sans-serif" font-size="7.8" lengthAdjust="spacing" textLength="162.6" x="980.7" y="283.5492">allApplicationsOfJobOpening(jobReference)</text><polygon fill="#181818" points="1137.3,312.3809,1143.3,314.7809,1137.3,317.1809,1139.7,314.7809" style="stroke:#181818;stroke-width:0.6;"/><line style="stroke:#181818;stroke-width:0.6;" x1="963.3" x2="1140.9" y1="314.7809" y2="314.7809"/><text fill="#000000" font-family="sans-serif" font-size="7.8" font-weight="bold" lengthAdjust="spacing" textLength="10.8" x="967.5" y="311.9355">14</text><text fill="#000000" font-family="sans-serif" font-size="7.8" lengthAdjust="spacing" textLength="61.2" x="980.7" y="311.9355">allApplications()</text><polygon fill="#181818" points="1630.2,329.9672,1636.2,332.3672,1630.2,334.7672,1632.6,332.3672" style="stroke:#181818;stroke-width:0.6;"/><line style="stroke:#181818;stroke-width:0.6;" x1="1150.5" x2="1633.8" y1="332.3672" y2="332.3672"/><text fill="#000000" font-family="sans-serif" font-size="7.8" font-weight="bold" lengthAdjust="spacing" textLength="10.8" x="1154.7" y="329.5219">15</text><text fill="#000000" font-family="sans-serif" font-size="7.8" lengthAdjust="spacing" textLength="61.2" x="1167.9" y="329.5219">allApplications()</text><polygon fill="#181818" points="1157.1,347.5535,1151.1,349.9535,1157.1,352.3535,1154.7,349.9535" style="stroke:#181818;stroke-width:0.6;"/><line style="stroke:#181818;stroke-width:0.6;stroke-dasharray:2.0,2.0;" x1="1153.5" x2="1639.8" y1="349.9535" y2="349.9535"/><text fill="#000000" font-family="sans-serif" font-size="7.8" font-weight="bold" lengthAdjust="spacing" textLength="10.8" x="1160.7" y="347.1082">16</text><text fill="#000000" font-family="sans-serif" font-size="7.8" lengthAdjust="spacing" textLength="56.4" x="1173.9" y="347.1082">allApplications</text><polygon fill="#181818" points="966.9,365.1398,960.9,367.5398,966.9,369.9398,964.5,367.5398" style="stroke:#181818;stroke-width:0.6;"/><line style="stroke:#181818;stroke-width:0.6;stroke-dasharray:2.0,2.0;" x1="963.3" x2="1146.9" y1="367.5398" y2="367.5398"/><text fill="#000000" font-family="sans-serif" font-size="7.8" font-weight="bold" lengthAdjust="spacing" textLength="10.8" x="970.5" y="364.6945">17</text><text fill="#000000" font-family="sans-serif" font-size="7.8" lengthAdjust="spacing" textLength="109.2" x="983.7" y="364.6945">allApplicationsOfJobOpening</text><polygon fill="#181818" points="273.6,382.7262,267.6,385.1262,273.6,387.5262,271.2,385.1262" style="stroke:#181818;stroke-width:0.6;"/><line style="stroke:#181818;stroke-width:0.6;stroke-dasharray:2.0,2.0;" x1="270" x2="956.7" y1="385.1262" y2="385.1262"/><text fill="#000000" font-family="sans-serif" font-size="7.8" font-weight="bold" lengthAdjust="spacing" textLength="10.8" x="277.2" y="382.2809">18</text><text fill="#000000" font-family="sans-serif" font-size="7.8" lengthAdjust="spacing" textLength="99" x="290.4" y="382.2809">applicationsOfJobOpening</text><polygon fill="#181818" points="33,409.4988,27,411.8988,33,414.2988,30.6,411.8988" style="stroke:#181818;stroke-width:0.6;"/><line style="stroke:#181818;stroke-width:0.6;stroke-dasharray:2.0,2.0;" x1="29.4" x2="263.4" y1="411.8988" y2="411.8988"/><text fill="#000000" font-family="sans-serif" font-size="7.8" font-weight="bold" lengthAdjust="spacing" textLength="10.8" x="36.6" y="404.4604">19</text><text fill="#000000" font-family="sans-serif" font-size="7.8" lengthAdjust="spacing" textLength="122.4" x="49.8" y="399.8672">lists applications of job opening</text><text fill="#000000" font-family="sans-serif" font-size="7.8" lengthAdjust="spacing" textLength="84.6" x="52.2" y="409.0535">and asks to select one</text><polygon fill="#181818" points="253.8,427.0852,259.8,429.4852,253.8,431.8852,256.2,429.4852" style="stroke:#181818;stroke-width:0.6;"/><line style="stroke:#181818;stroke-width:0.6;" x1="26.4" x2="257.4" y1="429.4852" y2="429.4852"/><text fill="#000000" font-family="sans-serif" font-size="7.8" font-weight="bold" lengthAdjust="spacing" textLength="10.8" x="30.6" y="426.6398">20</text><text fill="#000000" font-family="sans-serif" font-size="7.8" lengthAdjust="spacing" textLength="70.8" x="43.8" y="426.6398">selects application</text><polygon fill="#181818" points="33,444.6715,27,447.0715,33,449.4715,30.6,447.0715" style="stroke:#181818;stroke-width:0.6;"/><line style="stroke:#181818;stroke-width:0.6;stroke-dasharray:2.0,2.0;" x1="29.4" x2="263.4" y1="447.0715" y2="447.0715"/><text fill="#000000" font-family="sans-serif" font-size="7.8" font-weight="bold" lengthAdjust="spacing" textLength="10.8" x="36.6" y="444.2262">21</text><text fill="#000000" font-family="sans-serif" font-size="7.8" lengthAdjust="spacing" textLength="207" x="49.8" y="444.2262">asks to enter the path to the file with the requirements</text><polygon fill="#181818" points="253.8,462.2578,259.8,464.6578,253.8,467.0578,256.2,464.6578" style="stroke:#181818;stroke-width:0.6;"/><line style="stroke:#181818;stroke-width:0.6;" x1="26.4" x2="257.4" y1="464.6578" y2="464.6578"/><text fill="#000000" font-family="sans-serif" font-size="7.8" font-weight="bold" lengthAdjust="spacing" textLength="10.8" x="30.6" y="461.8125">22</text><text fill="#000000" font-family="sans-serif" font-size="7.8" lengthAdjust="spacing" textLength="57" x="43.8" y="461.8125">enters the path</text><polygon fill="#181818" points="1271.1,479.8441,1277.1,482.2441,1271.1,484.6441,1273.5,482.2441" style="stroke:#181818;stroke-width:0.6;"/><line style="stroke:#181818;stroke-width:0.6;" x1="267" x2="1274.7" y1="482.2441" y2="482.2441"/><text fill="#000000" font-family="sans-serif" font-size="7.8" font-weight="bold" lengthAdjust="spacing" textLength="10.8" x="271.2" y="479.3988">23</text><text fill="#000000" font-family="sans-serif" font-size="7.8" lengthAdjust="spacing" textLength="51" x="284.4" y="479.3988">readFile(path)</text><polygon fill="#181818" points="273.6,497.4305,267.6,499.8305,273.6,502.2305,271.2,499.8305" style="stroke:#181818;stroke-width:0.6;"/><line style="stroke:#181818;stroke-width:0.6;stroke-dasharray:2.0,2.0;" x1="270" x2="1280.7" y1="499.8305" y2="499.8305"/><text fill="#000000" font-family="sans-serif" font-size="7.8" font-weight="bold" lengthAdjust="spacing" textLength="10.8" x="277.2" y="496.9852">24</text><text fill="#000000" font-family="sans-serif" font-size="7.8" lengthAdjust="spacing" textLength="72.6" x="290.4" y="496.9852">listOfRequirements</text><polygon fill="#181818" points="1271.1,515.0168,1277.1,517.4168,1271.1,519.8168,1273.5,517.4168" style="stroke:#181818;stroke-width:0.6;"/><line style="stroke:#181818;stroke-width:0.6;" x1="267" x2="1274.7" y1="517.4168" y2="517.4168"/><text fill="#000000" font-family="sans-serif" font-size="7.8" font-weight="bold" lengthAdjust="spacing" textLength="10.8" x="271.2" y="514.5715">25</text><text fill="#000000" font-family="sans-serif" font-size="7.8" lengthAdjust="spacing" textLength="217.2" x="284.4" y="514.5715">uploadRequirements(candidateRequirements, application)</text><polygon fill="#181818" points="1466.1,532.6031,1472.1,535.0031,1466.1,537.4031,1468.5,535.0031" style="stroke:#181818;stroke-width:0.6;"/><line style="stroke:#181818;stroke-width:0.6;" x1="1284.3" x2="1469.7" y1="535.0031" y2="535.0031"/><text fill="#000000" font-family="sans-serif" font-size="7.8" font-weight="bold" lengthAdjust="spacing" textLength="10.8" x="1288.5" y="532.1578">26</text><text fill="#000000" font-family="sans-serif" font-size="7.8" lengthAdjust="spacing" textLength="161.4" x="1301.7" y="532.1578">new CandidateRequirements(requirements)</text><rect fill="#E2E2F0" height="28.1859" rx="1.5" ry="1.5" style="stroke:#181818;stroke-width:0.3;" width="114" x="1473.3" y="522.2168"/><text fill="#000000" font-family="sans-serif" font-size="8.4" font-style="italic" lengthAdjust="spacing" textLength="105.6" x="1477.5" y="534.5379">&#171;candidateRequirements&#187;</text><text fill="#000000" font-family="sans-serif" font-size="8.4" lengthAdjust="spacing" textLength="99" x="1480.8" y="544.4309">CandidateRequirements</text><polygon fill="#181818" points="1290.9,567.3891,1284.9,569.7891,1290.9,572.1891,1288.5,569.7891" style="stroke:#181818;stroke-width:0.6;"/><line style="stroke:#181818;stroke-width:0.6;stroke-dasharray:2.0,2.0;" x1="1287.3" x2="1529.7" y1="569.7891" y2="569.7891"/><text fill="#000000" font-family="sans-serif" font-size="7.8" font-weight="bold" lengthAdjust="spacing" textLength="10.8" x="1294.5" y="566.9438">27</text><text fill="#000000" font-family="sans-serif" font-size="7.8" lengthAdjust="spacing" textLength="88.2" x="1307.7" y="566.9438">candidateRequirements</text><polygon fill="#181818" points="1714.5,584.9754,1720.5,587.3754,1714.5,589.7754,1716.9,587.3754" style="stroke:#181818;stroke-width:0.6;"/><line style="stroke:#181818;stroke-width:0.6;" x1="1284.3" x2="1718.1" y1="587.3754" y2="587.3754"/><text fill="#000000" font-family="sans-serif" font-size="7.8" font-weight="bold" lengthAdjust="spacing" textLength="10.8" x="1288.5" y="584.5301">28</text><text fill="#000000" font-family="sans-serif" font-size="7.8" lengthAdjust="spacing" textLength="208.2" x="1301.7" y="584.5301">uploadCandidateRequirements(candidateRequirements)</text><polygon fill="#181818" points="1290.9,602.5617,1284.9,604.9617,1290.9,607.3617,1288.5,604.9617" style="stroke:#181818;stroke-width:0.6;"/><line style="stroke:#181818;stroke-width:0.6;stroke-dasharray:2.0,2.0;" x1="1287.3" x2="1724.1" y1="604.9617" y2="604.9617"/><text fill="#000000" font-family="sans-serif" font-size="7.8" font-weight="bold" lengthAdjust="spacing" textLength="10.8" x="1294.5" y="602.1164">29</text><text fill="#000000" font-family="sans-serif" font-size="7.8" lengthAdjust="spacing" textLength="42" x="1307.7" y="602.1164">application</text><polygon fill="#181818" points="1630.2,620.148,1636.2,622.548,1630.2,624.948,1632.6,622.548" style="stroke:#181818;stroke-width:0.6;"/><line style="stroke:#181818;stroke-width:0.6;" x1="1284.3" x2="1633.8" y1="622.548" y2="622.548"/><text fill="#000000" font-family="sans-serif" font-size="7.8" font-weight="bold" lengthAdjust="spacing" textLength="10.8" x="1288.5" y="619.7027">30</text><text fill="#000000" font-family="sans-serif" font-size="7.8" lengthAdjust="spacing" textLength="63.6" x="1301.7" y="619.7027">save(application)</text><polygon fill="#181818" points="1290.9,637.7344,1284.9,640.1344,1290.9,642.5344,1288.5,640.1344" style="stroke:#181818;stroke-width:0.6;"/><line style="stroke:#181818;stroke-width:0.6;stroke-dasharray:2.0,2.0;" x1="1287.3" x2="1639.8" y1="640.1344" y2="640.1344"/><text fill="#000000" font-family="sans-serif" font-size="7.8" font-weight="bold" lengthAdjust="spacing" textLength="10.8" x="1294.5" y="637.2891">31</text><text fill="#000000" font-family="sans-serif" font-size="7.8" lengthAdjust="spacing" textLength="15" x="1307.7" y="637.2891">true</text><polygon fill="#181818" points="273.6,655.3207,267.6,657.7207,273.6,660.1207,271.2,657.7207" style="stroke:#181818;stroke-width:0.6;"/><line style="stroke:#181818;stroke-width:0.6;stroke-dasharray:2.0,2.0;" x1="270" x2="1280.7" y1="657.7207" y2="657.7207"/><text fill="#000000" font-family="sans-serif" font-size="7.8" font-weight="bold" lengthAdjust="spacing" textLength="10.8" x="277.2" y="654.8754">32</text><text fill="#000000" font-family="sans-serif" font-size="7.8" lengthAdjust="spacing" textLength="42" x="290.4" y="654.8754">application</text><polygon fill="#181818" points="30,672.907,24,675.307,30,677.707,27.6,675.307" style="stroke:#181818;stroke-width:0.6;"/><line style="stroke:#181818;stroke-width:0.6;stroke-dasharray:2.0,2.0;" x1="26.4" x2="263.4" y1="675.307" y2="675.307"/><text fill="#000000" font-family="sans-serif" font-size="7.8" font-weight="bold" lengthAdjust="spacing" textLength="10.8" x="33.6" y="672.4617">33</text><text fill="#000000" font-family="sans-serif" font-size="7.8" lengthAdjust="spacing" textLength="102" x="46.8" y="672.4617">displays operation success</text><!--SRC=[nPZHRjiW58Rl_HHSPjNo0b4LgQgqQTMaIDsgtUo6sYSBdGiUu4Pz-nqInOOOx4FgRhuoDl1_70u_sBorIhRFZw2BWfTMQRPfG7EyAOg6QojAqN1fsKDJArxTmvzMQ7W6QSsDD7lGvk4BkxvkD1XyngrGShqE6du6wVg3IDFlyDpK-EfMIQjLNOF6higkSDRHLs7idNf4F2daBrgRllutq2-Y1AniZdTOi-AMFt833A- -vZqqoWWCm2jMrbrXbEQcQMfH7ePlQ6HUYnWQAVGqfLikAr6TpO1h47lkHyL3JCSaDIYin_kIg-ZIIxoWdfTXBlAd4bkkHxDinRZvRPXLh3tKOjq0cFOQ7Fhif4OwFAgxQqmLeV8oUCMsGbOtTTrdX_aXx0wBVWUB3vry1vibrEExAuyH1vLSJHZcWDq33M1J7OHSxafA8SPmWKxe1mo3raFnS6sVH09bBxcxoOke9fJxrd7nfBaiISEFzbd11I2HAEJaGK62ICx3M1BaBh0HC0-Abg2P2sVIevx2LNz_xanda1Sk-L77GiREKrUinZ0OXyLENCo1iM0tO3ybGpVj7DP03QLbIa9n1Znfg7GxFue4R1dcJNLlqaQDC3krzrzkjdsZnPFpxYrea2L4V9iY4MOT2OeEZmiYa_sD_3bZY9nq1iHZ9Zzi7_UtY4we7lZyD40AWcBuSTKbCHfJdfy14mlAB7bLqFXECqRowFbMplHHScfO5qDcMxEFmjJsO8VggFLVRTdZcljC7ORXD3giX7DdTy0QZXiKFd7tMr43sxiTovK69_ttYS41nNGiytzJKBxfLZXQNdt2yIySH6JZ8VGIhXwAxFJYSNcxsKuTRRBWPWbNEwYrY7xaVlHp-v-5THt_4h-wGd89-_ZRXP_mYUqxsd2u7SJ_0op9qOs6CcNi12PYqFn_2gSfZeSg2fY8cTVhC5A-93q-vtuvlZ6-DHR1OSRm5rX4S_gIGqpwy48BXDKj59SVNURngDXil8ivXNjP9Gn-jBqQjuFhOmQPjYp1vErMNhtkPzbV]--></g></svg>