<?xml version="1.0" encoding="us-ascii" standalone="no"?><svg xmlns="http://www.w3.org/2000/svg" xmlns:xlink="http://www.w3.org/1999/xlink" contentStyleType="text/css" height="1217.6px" preserveAspectRatio="none" style="width:1387px;height:1217px;background:#FFFFFF;" version="1.1" viewBox="0 0 1387 1217" width="1387.2px" zoomAndPan="magnify"><defs/><g><text fill="#000000" font-family="sans-serif" font-size="11.2" font-weight="bold" lengthAdjust="spacing" textLength="321.6" x="527.2" y="20.0859">Class Diagram - Uploading Responses for a Job Interview</text><!--cluster presentation--><g id="cluster_presentation"><path d="M715.6,36.5078 L788.4,36.5078 A3,3 0 0 1 790.4,38.5078 L796,56.2047 L865.2,56.2047 A2,2 0 0 1 867.2,58.2047 L867.2,144.9078 A2,2 0 0 1 865.2,146.9078 L715.6,146.9078 A2,2 0 0 1 713.6,144.9078 L713.6,38.5078 A2,2 0 0 1 715.6,36.5078 " fill="none" style="stroke:#000000;stroke-width:1.2000000000000002;"/><line style="stroke:#000000;stroke-width:1.2000000000000002;" x1="713.6" x2="796" y1="56.2047" y2="56.2047"/><text fill="#000000" font-family="sans-serif" font-size="11.2" font-weight="bold" lengthAdjust="spacing" textLength="72" x="716.8" y="50.1938">presentation</text></g><!--cluster application--><g id="cluster_application"><path d="M660.4,173.3078 L722.8,173.3078 A3,3 0 0 1 724.8,175.3078 L730.4,193.0047 L920.4,193.0047 A2,2 0 0 1 922.4,195.0047 L922.4,311.3078 A2,2 0 0 1 920.4,313.3078 L660.4,313.3078 A2,2 0 0 1 658.4,311.3078 L658.4,175.3078 A2,2 0 0 1 660.4,173.3078 " fill="none" style="stroke:#000000;stroke-width:1.2000000000000002;"/><line style="stroke:#000000;stroke-width:1.2000000000000002;" x1="658.4" x2="730.4" y1="193.0047" y2="193.0047"/><text fill="#000000" font-family="sans-serif" font-size="11.2" font-weight="bold" lengthAdjust="spacing" textLength="61.6" x="661.6" y="186.9938">application</text></g><!--cluster plugin--><g id="cluster_plugin"><path d="M943.6,188.1078 L979.6,188.1078 A3,3 0 0 1 981.6,190.1078 L987.2,207.8047 L1173.2,207.8047 A2,2 0 0 1 1175.2,209.8047 L1175.2,296.5078 A2,2 0 0 1 1173.2,298.5078 L943.6,298.5078 A2,2 0 0 1 941.6,296.5078 L941.6,190.1078 A2,2 0 0 1 943.6,188.1078 " fill="none" style="stroke:#000000;stroke-width:1.2000000000000002;"/><line style="stroke:#000000;stroke-width:1.2000000000000002;" x1="941.6" x2="987.2" y1="207.8047" y2="207.8047"/><text fill="#000000" font-family="sans-serif" font-size="11.2" font-weight="bold" lengthAdjust="spacing" textLength="35.2" x="944.8" y="201.7938">plugin</text></g><!--cluster services--><g id="cluster_services"><path d="M660.4,339.7078 L710,339.7078 A3,3 0 0 1 712,341.7078 L717.6,359.4047 L920.4,359.4047 A2,2 0 0 1 922.4,361.4047 L922.4,463.3078 A2,2 0 0 1 920.4,465.3078 L660.4,465.3078 A2,2 0 0 1 658.4,463.3078 L658.4,341.7078 A2,2 0 0 1 660.4,339.7078 " fill="none" style="stroke:#000000;stroke-width:1.2000000000000002;"/><line style="stroke:#000000;stroke-width:1.2000000000000002;" x1="658.4" x2="717.6" y1="359.4047" y2="359.4047"/><text fill="#000000" font-family="sans-serif" font-size="11.2" font-weight="bold" lengthAdjust="spacing" textLength="48.8" x="661.6" y="353.3938">services</text></g><!--cluster repositories--><g id="cluster_repositories"><path d="M708.4,491.7078 L778,491.7078 A3,3 0 0 1 780,493.7078 L785.6,511.4047 L872.4,511.4047 A2,2 0 0 1 874.4,513.4047 L874.4,585.7078 A2,2 0 0 1 872.4,587.7078 L708.4,587.7078 A2,2 0 0 1 706.4,585.7078 L706.4,493.7078 A2,2 0 0 1 708.4,491.7078 " fill="none" style="stroke:#000000;stroke-width:1.2000000000000002;"/><line style="stroke:#000000;stroke-width:1.2000000000000002;" x1="706.4" x2="785.6" y1="511.4047" y2="511.4047"/><text fill="#000000" font-family="sans-serif" font-size="11.2" font-weight="bold" lengthAdjust="spacing" textLength="68.8" x="709.6" y="505.3938">repositories</text></g><!--cluster domain--><g id="cluster_domain"><path d="M6.8,628.5078 L48.4,628.5078 A3,3 0 0 1 50.4,630.5078 L56,648.2047 L1379.6,648.2047 A2,2 0 0 1 1381.6,650.2047 L1381.6,1210.5078 A2,2 0 0 1 1379.6,1212.5078 L6.8,1212.5078 A2,2 0 0 1 4.8,1210.5078 L4.8,630.5078 A2,2 0 0 1 6.8,628.5078 " fill="none" style="stroke:#000000;stroke-width:1.2000000000000002;"/><line style="stroke:#000000;stroke-width:1.2000000000000002;" x1="4.8" x2="56" y1="648.2047" y2="648.2047"/><text fill="#000000" font-family="sans-serif" font-size="11.2" font-weight="bold" lengthAdjust="spacing" textLength="40.8" x="8" y="642.1938">domain</text></g><!--cluster jobInterview--><g id="cluster_jobInterview"><path d="M466.8,982.9078 L538,982.9078 A3,3 0 0 1 540,984.9078 L545.6,1002.6047 L1360.4,1002.6047 A2,2 0 0 1 1362.4,1004.6047 L1362.4,1136.1078 A2,2 0 0 1 1360.4,1138.1078 L466.8,1138.1078 A2,2 0 0 1 464.8,1136.1078 L464.8,984.9078 A2,2 0 0 1 466.8,982.9078 " fill="none" style="stroke:#000000;stroke-width:1.2000000000000002;"/><line style="stroke:#000000;stroke-width:1.2000000000000002;" x1="464.8" x2="545.6" y1="1002.6047" y2="1002.6047"/><text fill="#000000" font-family="sans-serif" font-size="11.2" font-weight="bold" lengthAdjust="spacing" textLength="70.4" x="468" y="996.5938">jobInterview</text></g><!--class UploadResponsesUI--><g id="elem_UploadResponsesUI"><rect codeLine="12" fill="#FFFFFF" height="68.1938" id="UploadResponsesUI" rx="2" ry="2" style="stroke:#000000;stroke-width:0.4000000000000001;" width="127.2" x="726.8" y="66.1078"/><ellipse cx="738.8" cy="78.9078" fill="#ADD1B2" rx="8.8" ry="8.8" style="stroke:#181818;stroke-width:0.8000000000000002;"/><path d="M741.0125,75.6078 Q741.1375,75.4328 741.2875,75.3453 Q741.4375,75.2578 741.6125,75.2578 Q741.9125,75.2578 742.1,75.4703 Q742.2875,75.6703 742.2875,76.1578 L742.2875,77.3203 Q742.2875,77.8078 742.1,78.0203 Q741.9125,78.2328 741.6125,78.2328 Q741.3375,78.2328 741.175,78.0703 Q741.0125,77.9203 740.925,77.5078 Q740.8875,77.2203 740.7375,77.0703 Q740.475,76.7703 739.9875,76.5953 Q739.5,76.4203 739,76.4203 Q738.3875,76.4203 737.875,76.6828 Q737.375,76.9453 736.975,77.5453 Q736.5875,78.1453 736.5875,78.9703 L736.5875,79.8453 Q736.5875,80.8328 737.3,81.4953 Q738.0125,82.1453 739.2875,82.1453 Q740.0375,82.1453 740.5625,81.9453 Q740.875,81.8203 741.2125,81.4703 Q741.425,81.2578 741.5375,81.1953 Q741.6625,81.1328 741.825,81.1328 Q742.0875,81.1328 742.2875,81.3453 Q742.5,81.5453 742.5,81.8203 Q742.5,82.0953 742.225,82.4203 Q741.825,82.8828 741.1875,83.1453 Q740.325,83.5078 739.2875,83.5078 Q738.075,83.5078 737.1125,83.0078 Q736.325,82.6078 735.775,81.7578 Q735.225,80.8953 735.225,79.8703 L735.225,78.9453 Q735.225,77.8828 735.7125,76.9703 Q736.2125,76.0453 737.0875,75.5578 Q737.9625,75.0578 738.95,75.0578 Q739.5375,75.0578 740.05,75.1953 Q740.575,75.3203 741.0125,75.6078 Z " fill="#000000"/><text fill="#000000" font-family="sans-serif" font-size="11.2" lengthAdjust="spacing" textLength="101.6" x="750" y="83.5453">UploadResponsesUI</text><line style="stroke:#000000;stroke-width:0.4000000000000001;" x1="727.6" x2="853.2" y1="91.7078" y2="91.7078"/><line style="stroke:#000000;stroke-width:0.4000000000000001;" x1="727.6" x2="853.2" y1="98.1078" y2="98.1078"/><ellipse cx="735.6" cy="109.9563" fill="#84BE84" rx="2.4" ry="2.4" style="stroke:#038048;stroke-width:0.8000000000000002;"/><text fill="#000000" font-family="sans-serif" font-size="11.2" lengthAdjust="spacing" textLength="48" x="742.8" y="113.3938">doShow()</text><ellipse cx="735.6" cy="124.8531" fill="#84BE84" rx="2.4" ry="2.4" style="stroke:#038048;stroke-width:0.8000000000000002;"/><text fill="#000000" font-family="sans-serif" font-size="11.2" lengthAdjust="spacing" textLength="51.2" x="742.8" y="128.2906">headline()</text></g><!--class UploadResponsesController--><g id="elem_UploadResponsesController"><rect codeLine="19" fill="#FFFFFF" height="97.9875" id="UploadResponsesController" rx="2" ry="2" style="stroke:#000000;stroke-width:0.4000000000000001;" width="238.4" x="671.2" y="202.9078"/><ellipse cx="716.2" cy="215.7078" fill="#ADD1B2" rx="8.8" ry="8.8" style="stroke:#181818;stroke-width:0.8000000000000002;"/><path d="M718.4125,212.4078 Q718.5375,212.2328 718.6875,212.1453 Q718.8375,212.0578 719.0125,212.0578 Q719.3125,212.0578 719.5,212.2703 Q719.6875,212.4703 719.6875,212.9578 L719.6875,214.1203 Q719.6875,214.6078 719.5,214.8203 Q719.3125,215.0328 719.0125,215.0328 Q718.7375,215.0328 718.575,214.8703 Q718.4125,214.7203 718.325,214.3078 Q718.2875,214.0203 718.1375,213.8703 Q717.875,213.5703 717.3875,213.3953 Q716.9,213.2203 716.4,213.2203 Q715.7875,213.2203 715.275,213.4828 Q714.775,213.7453 714.375,214.3453 Q713.9875,214.9453 713.9875,215.7703 L713.9875,216.6453 Q713.9875,217.6328 714.7,218.2953 Q715.4125,218.9453 716.6875,218.9453 Q717.4375,218.9453 717.9625,218.7453 Q718.275,218.6203 718.6125,218.2703 Q718.825,218.0578 718.9375,217.9953 Q719.0625,217.9328 719.225,217.9328 Q719.4875,217.9328 719.6875,218.1453 Q719.9,218.3453 719.9,218.6203 Q719.9,218.8953 719.625,219.2203 Q719.225,219.6828 718.5875,219.9453 Q717.725,220.3078 716.6875,220.3078 Q715.475,220.3078 714.5125,219.8078 Q713.725,219.4078 713.175,218.5578 Q712.625,217.6953 712.625,216.6703 L712.625,215.7453 Q712.625,214.6828 713.1125,213.7703 Q713.6125,212.8453 714.4875,212.3578 Q715.3625,211.8578 716.35,211.8578 Q716.9375,211.8578 717.45,211.9953 Q717.975,212.1203 718.4125,212.4078 Z " fill="#000000"/><text fill="#000000" font-family="sans-serif" font-size="11.2" lengthAdjust="spacing" textLength="141.6" x="732.6" y="220.3453">UploadResponsesController</text><line style="stroke:#000000;stroke-width:0.4000000000000001;" x1="672" x2="908.8" y1="228.5078" y2="228.5078"/><line style="stroke:#000000;stroke-width:0.4000000000000001;" x1="672" x2="908.8" y1="234.9078" y2="234.9078"/><ellipse cx="680" cy="246.7563" fill="#84BE84" rx="2.4" ry="2.4" style="stroke:#038048;stroke-width:0.8000000000000002;"/><text fill="#000000" font-family="sans-serif" font-size="11.2" lengthAdjust="spacing" textLength="187.2" x="687.2" y="250.1938">findAllInterviewsWithModelAssigned()</text><ellipse cx="680" cy="261.6531" fill="#84BE84" rx="2.4" ry="2.4" style="stroke:#038048;stroke-width:0.8000000000000002;"/><text fill="#000000" font-family="sans-serif" font-size="11.2" lengthAdjust="spacing" textLength="125.6" x="687.2" y="265.0906">retrieveResponses(path)</text><ellipse cx="680" cy="276.55" fill="#84BE84" rx="2.4" ry="2.4" style="stroke:#038048;stroke-width:0.8000000000000002;"/><text fill="#000000" font-family="sans-serif" font-size="11.2" lengthAdjust="spacing" textLength="148" x="687.2" y="279.9875">findInterviewByID(interviewID)</text><ellipse cx="680" cy="291.4469" fill="#84BE84" rx="2.4" ry="2.4" style="stroke:#038048;stroke-width:0.8000000000000002;"/><text fill="#000000" font-family="sans-serif" font-size="11.2" lengthAdjust="spacing" textLength="217.6" x="687.2" y="294.8844">uploadResponses(responses, jobInterview)</text></g><!--class InterviewPlugin--><g id="elem_InterviewPlugin"><rect codeLine="28" fill="#FFFFFF" height="68.1938" id="InterviewPlugin" rx="2" ry="2" style="stroke:#000000;stroke-width:0.4000000000000001;" width="207.2" x="954.8" y="217.7078"/><ellipse cx="1017.4" cy="230.5078" fill="#ADD1B2" rx="8.8" ry="8.8" style="stroke:#181818;stroke-width:0.8000000000000002;"/><path d="M1019.6125,227.2078 Q1019.7375,227.0328 1019.8875,226.9453 Q1020.0375,226.8578 1020.2125,226.8578 Q1020.5125,226.8578 1020.7,227.0703 Q1020.8875,227.2703 1020.8875,227.7578 L1020.8875,228.9203 Q1020.8875,229.4078 1020.7,229.6203 Q1020.5125,229.8328 1020.2125,229.8328 Q1019.9375,229.8328 1019.775,229.6703 Q1019.6125,229.5203 1019.525,229.1078 Q1019.4875,228.8203 1019.3375,228.6703 Q1019.075,228.3703 1018.5875,228.1953 Q1018.1,228.0203 1017.6,228.0203 Q1016.9875,228.0203 1016.475,228.2828 Q1015.975,228.5453 1015.575,229.1453 Q1015.1875,229.7453 1015.1875,230.5703 L1015.1875,231.4453 Q1015.1875,232.4328 1015.9,233.0953 Q1016.6125,233.7453 1017.8875,233.7453 Q1018.6375,233.7453 1019.1625,233.5453 Q1019.475,233.4203 1019.8125,233.0703 Q1020.025,232.8578 1020.1375,232.7953 Q1020.2625,232.7328 1020.425,232.7328 Q1020.6875,232.7328 1020.8875,232.9453 Q1021.1,233.1453 1021.1,233.4203 Q1021.1,233.6953 1020.825,234.0203 Q1020.425,234.4828 1019.7875,234.7453 Q1018.925,235.1078 1017.8875,235.1078 Q1016.675,235.1078 1015.7125,234.6078 Q1014.925,234.2078 1014.375,233.3578 Q1013.825,232.4953 1013.825,231.4703 L1013.825,230.5453 Q1013.825,229.4828 1014.3125,228.5703 Q1014.8125,227.6453 1015.6875,227.1578 Q1016.5625,226.6578 1017.55,226.6578 Q1018.1375,226.6578 1018.65,226.7953 Q1019.175,226.9203 1019.6125,227.2078 Z " fill="#000000"/><text fill="#000000" font-family="sans-serif" font-size="11.2" lengthAdjust="spacing" textLength="75.2" x="1033.8" y="235.1453">InterviewPlugin</text><line style="stroke:#000000;stroke-width:0.4000000000000001;" x1="955.6" x2="1161.2" y1="243.3078" y2="243.3078"/><line style="stroke:#000000;stroke-width:0.4000000000000001;" x1="955.6" x2="1161.2" y1="249.7078" y2="249.7078"/><ellipse cx="963.6" cy="261.5563" fill="#84BE84" rx="2.4" ry="2.4" style="stroke:#038048;stroke-width:0.8000000000000002;"/><text fill="#000000" font-family="sans-serif" font-size="11.2" lengthAdjust="spacing" textLength="186.4" x="970.8" y="264.9938">grammarChecker(path, cResponses)</text><ellipse cx="963.6" cy="276.4531" fill="#84BE84" rx="2.4" ry="2.4" style="stroke:#038048;stroke-width:0.8000000000000002;"/><text fill="#000000" font-family="sans-serif" font-size="11.2" lengthAdjust="spacing" textLength="111.2" x="970.8" y="279.8906">retrieveAnswers(path)</text></g><!--class JobInterviewService--><g id="elem_JobInterviewService"><rect codeLine="35" fill="#FFFFFF" height="83.0906" id="JobInterviewService" rx="2" ry="2" style="stroke:#000000;stroke-width:0.4000000000000001;" width="238.4" x="671.2" y="369.3078"/><ellipse cx="737.4" cy="382.1078" fill="#ADD1B2" rx="8.8" ry="8.8" style="stroke:#181818;stroke-width:0.8000000000000002;"/><path d="M739.6125,378.8078 Q739.7375,378.6328 739.8875,378.5453 Q740.0375,378.4578 740.2125,378.4578 Q740.5125,378.4578 740.7,378.6703 Q740.8875,378.8703 740.8875,379.3578 L740.8875,380.5203 Q740.8875,381.0078 740.7,381.2203 Q740.5125,381.4328 740.2125,381.4328 Q739.9375,381.4328 739.775,381.2703 Q739.6125,381.1203 739.525,380.7078 Q739.4875,380.4203 739.3375,380.2703 Q739.075,379.9703 738.5875,379.7953 Q738.1,379.6203 737.6,379.6203 Q736.9875,379.6203 736.475,379.8828 Q735.975,380.1453 735.575,380.7453 Q735.1875,381.3453 735.1875,382.1703 L735.1875,383.0453 Q735.1875,384.0328 735.9,384.6953 Q736.6125,385.3453 737.8875,385.3453 Q738.6375,385.3453 739.1625,385.1453 Q739.475,385.0203 739.8125,384.6703 Q740.025,384.4578 740.1375,384.3953 Q740.2625,384.3328 740.425,384.3328 Q740.6875,384.3328 740.8875,384.5453 Q741.1,384.7453 741.1,385.0203 Q741.1,385.2953 740.825,385.6203 Q740.425,386.0828 739.7875,386.3453 Q738.925,386.7078 737.8875,386.7078 Q736.675,386.7078 735.7125,386.2078 Q734.925,385.8078 734.375,384.9578 Q733.825,384.0953 733.825,383.0703 L733.825,382.1453 Q733.825,381.0828 734.3125,380.1703 Q734.8125,379.2453 735.6875,378.7578 Q736.5625,378.2578 737.55,378.2578 Q738.1375,378.2578 738.65,378.3953 Q739.175,378.5203 739.6125,378.8078 Z " fill="#000000"/><text fill="#000000" font-family="sans-serif" font-size="11.2" lengthAdjust="spacing" textLength="99.2" x="753.8" y="386.7453">JobInterviewService</text><line style="stroke:#000000;stroke-width:0.4000000000000001;" x1="672" x2="908.8" y1="394.9078" y2="394.9078"/><line style="stroke:#000000;stroke-width:0.4000000000000001;" x1="672" x2="908.8" y1="401.3078" y2="401.3078"/><ellipse cx="680" cy="413.1563" fill="#84BE84" rx="2.4" ry="2.4" style="stroke:#038048;stroke-width:0.8000000000000002;"/><text fill="#000000" font-family="sans-serif" font-size="11.2" lengthAdjust="spacing" textLength="187.2" x="687.2" y="416.5938">findAllInterviewsWithModelAssigned()</text><ellipse cx="680" cy="428.0531" fill="#84BE84" rx="2.4" ry="2.4" style="stroke:#038048;stroke-width:0.8000000000000002;"/><text fill="#000000" font-family="sans-serif" font-size="11.2" lengthAdjust="spacing" textLength="177.6" x="687.2" y="431.4906">findJobInterviewById(jobInterviewId)</text><ellipse cx="680" cy="442.95" fill="#84BE84" rx="2.4" ry="2.4" style="stroke:#038048;stroke-width:0.8000000000000002;"/><text fill="#000000" font-family="sans-serif" font-size="11.2" lengthAdjust="spacing" textLength="217.6" x="687.2" y="446.3875">uploadResponses(responses, jobInterview)</text></g><!--class JobInterviewRepository--><g id="elem_JobInterviewRepository"><rect codeLine="43" fill="#FFFFFF" height="53.2969" id="JobInterviewRepository" rx="2" ry="2" style="stroke:#000000;stroke-width:0.4000000000000001;" width="142.4" x="719.2" y="521.3078"/><ellipse cx="731.2" cy="534.1078" fill="#B4A7E5" rx="8.8" ry="8.8" style="stroke:#181818;stroke-width:0.8000000000000002;"/><path d="M731.9625,531.4203 L731.9625,536.7453 L733.3375,536.7453 Q733.825,536.7453 734.0375,536.9328 Q734.25,537.1203 734.25,537.4328 Q734.25,537.7328 734.0375,537.9203 Q733.825,538.1078 733.3375,538.1078 L729.225,538.1078 Q728.7375,538.1078 728.525,537.9203 Q728.3125,537.7328 728.3125,537.4203 Q728.3125,537.1203 728.525,536.9328 Q728.7375,536.7453 729.225,536.7453 L730.6,536.7453 L730.6,531.4203 L729.225,531.4203 Q728.7375,531.4203 728.525,531.2328 Q728.3125,531.0453 728.3125,530.7328 Q728.3125,530.4328 728.525,530.2453 Q728.7375,530.0578 729.225,530.0578 L733.3375,530.0578 Q733.825,530.0578 734.0375,530.2453 Q734.25,530.4328 734.25,530.7328 Q734.25,531.0453 734.0375,531.2328 Q733.825,531.4203 733.3375,531.4203 L731.9625,531.4203 Z " fill="#000000"/><text fill="#000000" font-family="sans-serif" font-size="11.2" font-style="italic" lengthAdjust="spacing" textLength="116.8" x="742.4" y="538.7453">JobInterviewRepository</text><line style="stroke:#000000;stroke-width:0.4000000000000001;" x1="720" x2="860.8" y1="546.9078" y2="546.9078"/><line style="stroke:#000000;stroke-width:0.4000000000000001;" x1="720" x2="860.8" y1="553.3078" y2="553.3078"/><ellipse cx="728" cy="565.1563" fill="#84BE84" rx="2.4" ry="2.4" style="stroke:#038048;stroke-width:0.8000000000000002;"/><text fill="#000000" font-family="sans-serif" font-size="11.2" lengthAdjust="spacing" textLength="68.8" x="735.2" y="568.5938">allInterviews()</text></g><!--class JobInterview--><g id="elem_JobInterview"><rect codeLine="49" fill="#FFFFFF" height="217.1625" id="JobInterview" rx="2" ry="2" style="stroke:#000000;stroke-width:0.4000000000000001;" width="381.6" x="599.6" y="658.1078"/><ellipse cx="756.2" cy="670.9078" fill="#ADD1B2" rx="8.8" ry="8.8" style="stroke:#181818;stroke-width:0.8000000000000002;"/><path d="M758.4125,667.6078 Q758.5375,667.4328 758.6875,667.3453 Q758.8375,667.2578 759.0125,667.2578 Q759.3125,667.2578 759.5,667.4703 Q759.6875,667.6703 759.6875,668.1578 L759.6875,669.3203 Q759.6875,669.8078 759.5,670.0203 Q759.3125,670.2328 759.0125,670.2328 Q758.7375,670.2328 758.575,670.0703 Q758.4125,669.9203 758.325,669.5078 Q758.2875,669.2203 758.1375,669.0703 Q757.875,668.7703 757.3875,668.5953 Q756.9,668.4203 756.4,668.4203 Q755.7875,668.4203 755.275,668.6828 Q754.775,668.9453 754.375,669.5453 Q753.9875,670.1453 753.9875,670.9703 L753.9875,671.8453 Q753.9875,672.8328 754.7,673.4953 Q755.4125,674.1453 756.6875,674.1453 Q757.4375,674.1453 757.9625,673.9453 Q758.275,673.8203 758.6125,673.4703 Q758.825,673.2578 758.9375,673.1953 Q759.0625,673.1328 759.225,673.1328 Q759.4875,673.1328 759.6875,673.3453 Q759.9,673.5453 759.9,673.8203 Q759.9,674.0953 759.625,674.4203 Q759.225,674.8828 758.5875,675.1453 Q757.725,675.5078 756.6875,675.5078 Q755.475,675.5078 754.5125,675.0078 Q753.725,674.6078 753.175,673.7578 Q752.625,672.8953 752.625,671.8703 L752.625,670.9453 Q752.625,669.8828 753.1125,668.9703 Q753.6125,668.0453 754.4875,667.5578 Q755.3625,667.0578 756.35,667.0578 Q756.9375,667.0578 757.45,667.1953 Q757.975,667.3203 758.4125,667.6078 Z " fill="#000000"/><text fill="#000000" font-family="sans-serif" font-size="11.2" lengthAdjust="spacing" textLength="61.6" x="772.6" y="675.5453">JobInterview</text><line style="stroke:#000000;stroke-width:0.4000000000000001;" x1="600.4" x2="980.4" y1="683.7078" y2="683.7078"/><line style="stroke:#000000;stroke-width:0.4000000000000001;" x1="600.4" x2="980.4" y1="690.1078" y2="690.1078"/><ellipse cx="608.4" cy="701.9563" fill="#84BE84" rx="2.4" ry="2.4" style="stroke:#038048;stroke-width:0.8000000000000002;"/><text fill="#000000" font-family="sans-serif" font-size="11.2" lengthAdjust="spacing" textLength="360.8" x="615.6" y="705.3938">JobInterview(createdOn, time, score, result, application, interviewModel)</text><ellipse cx="608.4" cy="716.8531" fill="#84BE84" rx="2.4" ry="2.4" style="stroke:#038048;stroke-width:0.8000000000000002;"/><text fill="#000000" font-family="sans-serif" font-size="11.2" lengthAdjust="spacing" textLength="44" x="615.6" y="720.2906">identity()</text><ellipse cx="608.4" cy="731.75" fill="#84BE84" rx="2.4" ry="2.4" style="stroke:#038048;stroke-width:0.8000000000000002;"/><text fill="#000000" font-family="sans-serif" font-size="11.2" lengthAdjust="spacing" textLength="61.6" x="615.6" y="735.1875">createdOn()</text><ellipse cx="608.4" cy="746.6469" fill="#84BE84" rx="2.4" ry="2.4" style="stroke:#038048;stroke-width:0.8000000000000002;"/><text fill="#000000" font-family="sans-serif" font-size="11.2" lengthAdjust="spacing" textLength="28.8" x="615.6" y="750.0844">time()</text><ellipse cx="608.4" cy="761.5438" fill="#84BE84" rx="2.4" ry="2.4" style="stroke:#038048;stroke-width:0.8000000000000002;"/><text fill="#000000" font-family="sans-serif" font-size="11.2" lengthAdjust="spacing" textLength="36" x="615.6" y="764.9813">score()</text><ellipse cx="608.4" cy="776.4406" fill="#84BE84" rx="2.4" ry="2.4" style="stroke:#038048;stroke-width:0.8000000000000002;"/><text fill="#000000" font-family="sans-serif" font-size="11.2" lengthAdjust="spacing" textLength="36" x="615.6" y="779.8781">result()</text><ellipse cx="608.4" cy="791.3375" fill="#84BE84" rx="2.4" ry="2.4" style="stroke:#038048;stroke-width:0.8000000000000002;"/><text fill="#000000" font-family="sans-serif" font-size="11.2" lengthAdjust="spacing" textLength="62.4" x="615.6" y="794.775">application()</text><ellipse cx="608.4" cy="806.2344" fill="#84BE84" rx="2.4" ry="2.4" style="stroke:#038048;stroke-width:0.8000000000000002;"/><text fill="#000000" font-family="sans-serif" font-size="11.2" lengthAdjust="spacing" textLength="82.4" x="615.6" y="809.6719">interviewModel()</text><ellipse cx="608.4" cy="821.1313" fill="#84BE84" rx="2.4" ry="2.4" style="stroke:#038048;stroke-width:0.8000000000000002;"/><text fill="#000000" font-family="sans-serif" font-size="11.2" lengthAdjust="spacing" textLength="248" x="615.6" y="824.5688">changeInterviewModel(interviewModelToChange)</text><ellipse cx="608.4" cy="836.0281" fill="#84BE84" rx="2.4" ry="2.4" style="stroke:#038048;stroke-width:0.8000000000000002;"/><text fill="#000000" font-family="sans-serif" font-size="11.2" lengthAdjust="spacing" textLength="60" x="615.6" y="839.4656">hashCode()</text><ellipse cx="608.4" cy="850.925" fill="#84BE84" rx="2.4" ry="2.4" style="stroke:#038048;stroke-width:0.8000000000000002;"/><text fill="#000000" font-family="sans-serif" font-size="11.2" lengthAdjust="spacing" textLength="107.2" x="615.6" y="854.3625">sameAs(otherObject)</text><ellipse cx="608.4" cy="865.8219" fill="#84BE84" rx="2.4" ry="2.4" style="stroke:#038048;stroke-width:0.8000000000000002;"/><text fill="#000000" font-family="sans-serif" font-size="11.2" lengthAdjust="spacing" textLength="100.8" x="615.6" y="869.2594">equals(jobInterview)</text></g><!--class Application--><g id="elem_Application"><rect codeLine="64" fill="#FFFFFF" height="261.8531" id="Application" rx="2" ry="2" style="stroke:#000000;stroke-width:0.4000000000000001;" width="431.2" x="18" y="938.1078"/><ellipse cx="202.6" cy="950.9078" fill="#ADD1B2" rx="8.8" ry="8.8" style="stroke:#181818;stroke-width:0.8000000000000002;"/><path d="M204.8125,947.6078 Q204.9375,947.4328 205.0875,947.3453 Q205.2375,947.2578 205.4125,947.2578 Q205.7125,947.2578 205.9,947.4703 Q206.0875,947.6703 206.0875,948.1578 L206.0875,949.3203 Q206.0875,949.8078 205.9,950.0203 Q205.7125,950.2328 205.4125,950.2328 Q205.1375,950.2328 204.975,950.0703 Q204.8125,949.9203 204.725,949.5078 Q204.6875,949.2203 204.5375,949.0703 Q204.275,948.7703 203.7875,948.5953 Q203.3,948.4203 202.8,948.4203 Q202.1875,948.4203 201.675,948.6828 Q201.175,948.9453 200.775,949.5453 Q200.3875,950.1453 200.3875,950.9703 L200.3875,951.8453 Q200.3875,952.8328 201.1,953.4953 Q201.8125,954.1453 203.0875,954.1453 Q203.8375,954.1453 204.3625,953.9453 Q204.675,953.8203 205.0125,953.4703 Q205.225,953.2578 205.3375,953.1953 Q205.4625,953.1328 205.625,953.1328 Q205.8875,953.1328 206.0875,953.3453 Q206.3,953.5453 206.3,953.8203 Q206.3,954.0953 206.025,954.4203 Q205.625,954.8828 204.9875,955.1453 Q204.125,955.5078 203.0875,955.5078 Q201.875,955.5078 200.9125,955.0078 Q200.125,954.6078 199.575,953.7578 Q199.025,952.8953 199.025,951.8703 L199.025,950.9453 Q199.025,949.8828 199.5125,948.9703 Q200.0125,948.0453 200.8875,947.5578 Q201.7625,947.0578 202.75,947.0578 Q203.3375,947.0578 203.85,947.1953 Q204.375,947.3203 204.8125,947.6078 Z " fill="#000000"/><text fill="#000000" font-family="sans-serif" font-size="11.2" lengthAdjust="spacing" textLength="55.2" x="219" y="955.5453">Application</text><line style="stroke:#000000;stroke-width:0.4000000000000001;" x1="18.8" x2="448.4" y1="963.7078" y2="963.7078"/><line style="stroke:#000000;stroke-width:0.4000000000000001;" x1="18.8" x2="448.4" y1="970.1078" y2="970.1078"/><ellipse cx="26.8" cy="981.9563" fill="#84BE84" rx="2.4" ry="2.4" style="stroke:#038048;stroke-width:0.8000000000000002;"/><text fill="#000000" font-family="sans-serif" font-size="11.2" lengthAdjust="spacing" textLength="410.4" x="34" y="985.3938">Application(rank, createdOn, applicationFiles, jobReference, candidate, operator)</text><ellipse cx="26.8" cy="996.8531" fill="#84BE84" rx="2.4" ry="2.4" style="stroke:#038048;stroke-width:0.8000000000000002;"/><text fill="#000000" font-family="sans-serif" font-size="11.2" lengthAdjust="spacing" textLength="129.6" x="34" y="1000.2906">sameAs(otherApplication)</text><ellipse cx="26.8" cy="1011.75" fill="#84BE84" rx="2.4" ry="2.4" style="stroke:#038048;stroke-width:0.8000000000000002;"/><text fill="#000000" font-family="sans-serif" font-size="11.2" lengthAdjust="spacing" textLength="123.2" x="34" y="1015.1875">equals(otherApplication)</text><ellipse cx="26.8" cy="1026.6469" fill="#84BE84" rx="2.4" ry="2.4" style="stroke:#038048;stroke-width:0.8000000000000002;"/><text fill="#000000" font-family="sans-serif" font-size="11.2" lengthAdjust="spacing" textLength="60" x="34" y="1030.0844">hashCode()</text><ellipse cx="26.8" cy="1041.5438" fill="#84BE84" rx="2.4" ry="2.4" style="stroke:#038048;stroke-width:0.8000000000000002;"/><text fill="#000000" font-family="sans-serif" font-size="11.2" lengthAdjust="spacing" textLength="147.2" x="34" y="1044.9813">compareTo(otherApplication)</text><ellipse cx="26.8" cy="1056.4406" fill="#84BE84" rx="2.4" ry="2.4" style="stroke:#038048;stroke-width:0.8000000000000002;"/><text fill="#000000" font-family="sans-serif" font-size="11.2" lengthAdjust="spacing" textLength="44" x="34" y="1059.8781">identity()</text><ellipse cx="26.8" cy="1071.3375" fill="#84BE84" rx="2.4" ry="2.4" style="stroke:#038048;stroke-width:0.8000000000000002;"/><text fill="#000000" font-family="sans-serif" font-size="11.2" lengthAdjust="spacing" textLength="30.4" x="34" y="1074.775">rank()</text><ellipse cx="26.8" cy="1086.2344" fill="#84BE84" rx="2.4" ry="2.4" style="stroke:#038048;stroke-width:0.8000000000000002;"/><text fill="#000000" font-family="sans-serif" font-size="11.2" lengthAdjust="spacing" textLength="88" x="34" y="1089.6719">submissionDate()</text><ellipse cx="26.8" cy="1101.1313" fill="#84BE84" rx="2.4" ry="2.4" style="stroke:#038048;stroke-width:0.8000000000000002;"/><text fill="#000000" font-family="sans-serif" font-size="11.2" lengthAdjust="spacing" textLength="38.4" x="34" y="1104.5688">status()</text><ellipse cx="26.8" cy="1116.0281" fill="#84BE84" rx="2.4" ry="2.4" style="stroke:#038048;stroke-width:0.8000000000000002;"/><text fill="#000000" font-family="sans-serif" font-size="11.2" lengthAdjust="spacing" textLength="48.8" x="34" y="1119.4656">dataFile()</text><ellipse cx="26.8" cy="1130.925" fill="#84BE84" rx="2.4" ry="2.4" style="stroke:#038048;stroke-width:0.8000000000000002;"/><text fill="#000000" font-family="sans-serif" font-size="11.2" lengthAdjust="spacing" textLength="51.2" x="34" y="1134.3625">operator()</text><ellipse cx="26.8" cy="1145.8219" fill="#84BE84" rx="2.4" ry="2.4" style="stroke:#038048;stroke-width:0.8000000000000002;"/><text fill="#000000" font-family="sans-serif" font-size="11.2" lengthAdjust="spacing" textLength="57.6" x="34" y="1149.2594">candidate()</text><ellipse cx="26.8" cy="1160.7188" fill="#84BE84" rx="2.4" ry="2.4" style="stroke:#038048;stroke-width:0.8000000000000002;"/><text fill="#000000" font-family="sans-serif" font-size="11.2" lengthAdjust="spacing" textLength="76" x="34" y="1164.1563">jobReference()</text><ellipse cx="26.8" cy="1175.6156" fill="#84BE84" rx="2.4" ry="2.4" style="stroke:#038048;stroke-width:0.8000000000000002;"/><text fill="#000000" font-family="sans-serif" font-size="11.2" lengthAdjust="spacing" textLength="92" x="34" y="1179.0531">updateRank(rank)</text><ellipse cx="26.8" cy="1190.5125" fill="#84BE84" rx="2.4" ry="2.4" style="stroke:#038048;stroke-width:0.8000000000000002;"/><text fill="#000000" font-family="sans-serif" font-size="11.2" lengthAdjust="spacing" textLength="47.2" x="34" y="1193.95">toString()</text></g><!--class InterviewModel--><g id="elem_InterviewModel"><rect codeLine="83" fill="#FFFFFF" height="112.8844" id="InterviewModel" rx="2" ry="2" style="stroke:#000000;stroke-width:0.4000000000000001;" width="152" x="477.6" y="1012.5078"/><ellipse cx="513" cy="1025.3078" fill="#ADD1B2" rx="8.8" ry="8.8" style="stroke:#181818;stroke-width:0.8000000000000002;"/><path d="M515.2125,1022.0078 Q515.3375,1021.8328 515.4875,1021.7453 Q515.6375,1021.6578 515.8125,1021.6578 Q516.1125,1021.6578 516.3,1021.8703 Q516.4875,1022.0703 516.4875,1022.5578 L516.4875,1023.7203 Q516.4875,1024.2078 516.3,1024.4203 Q516.1125,1024.6328 515.8125,1024.6328 Q515.5375,1024.6328 515.375,1024.4703 Q515.2125,1024.3203 515.125,1023.9078 Q515.0875,1023.6203 514.9375,1023.4703 Q514.675,1023.1703 514.1875,1022.9953 Q513.7,1022.8203 513.2,1022.8203 Q512.5875,1022.8203 512.075,1023.0828 Q511.575,1023.3453 511.175,1023.9453 Q510.7875,1024.5453 510.7875,1025.3703 L510.7875,1026.2453 Q510.7875,1027.2328 511.5,1027.8953 Q512.2125,1028.5453 513.4875,1028.5453 Q514.2375,1028.5453 514.7625,1028.3453 Q515.075,1028.2203 515.4125,1027.8703 Q515.625,1027.6578 515.7375,1027.5953 Q515.8625,1027.5328 516.025,1027.5328 Q516.2875,1027.5328 516.4875,1027.7453 Q516.7,1027.9453 516.7,1028.2203 Q516.7,1028.4953 516.425,1028.8203 Q516.025,1029.2828 515.3875,1029.5453 Q514.525,1029.9078 513.4875,1029.9078 Q512.275,1029.9078 511.3125,1029.4078 Q510.525,1029.0078 509.975,1028.1578 Q509.425,1027.2953 509.425,1026.2703 L509.425,1025.3453 Q509.425,1024.2828 509.9125,1023.3703 Q510.4125,1022.4453 511.2875,1021.9578 Q512.1625,1021.4578 513.15,1021.4578 Q513.7375,1021.4578 514.25,1021.5953 Q514.775,1021.7203 515.2125,1022.0078 Z " fill="#000000"/><text fill="#000000" font-family="sans-serif" font-size="11.2" lengthAdjust="spacing" textLength="74.4" x="529.4" y="1029.9453">InterviewModel</text><line style="stroke:#000000;stroke-width:0.4000000000000001;" x1="478.4" x2="628.8" y1="1038.1078" y2="1038.1078"/><line style="stroke:#000000;stroke-width:0.4000000000000001;" x1="478.4" x2="628.8" y1="1044.5078" y2="1044.5078"/><ellipse cx="486.4" cy="1056.3563" fill="#84BE84" rx="2.4" ry="2.4" style="stroke:#038048;stroke-width:0.8000000000000002;"/><text fill="#000000" font-family="sans-serif" font-size="11.2" lengthAdjust="spacing" textLength="131.2" x="493.6" y="1059.7938">InterviewModel(questions)</text><ellipse cx="486.4" cy="1071.2531" fill="#84BE84" rx="2.4" ry="2.4" style="stroke:#038048;stroke-width:0.8000000000000002;"/><text fill="#000000" font-family="sans-serif" font-size="11.2" lengthAdjust="spacing" textLength="56.8" x="493.6" y="1074.6906">questions()</text><ellipse cx="486.4" cy="1086.15" fill="#84BE84" rx="2.4" ry="2.4" style="stroke:#038048;stroke-width:0.8000000000000002;"/><text fill="#000000" font-family="sans-serif" font-size="11.2" lengthAdjust="spacing" textLength="60" x="493.6" y="1089.5875">hashCode()</text><ellipse cx="486.4" cy="1101.0469" fill="#84BE84" rx="2.4" ry="2.4" style="stroke:#038048;stroke-width:0.8000000000000002;"/><text fill="#000000" font-family="sans-serif" font-size="11.2" lengthAdjust="spacing" textLength="107.2" x="493.6" y="1104.4844">sameAs(otherObject)</text><ellipse cx="486.4" cy="1115.9438" fill="#84BE84" rx="2.4" ry="2.4" style="stroke:#038048;stroke-width:0.8000000000000002;"/><text fill="#000000" font-family="sans-serif" font-size="11.2" lengthAdjust="spacing" textLength="116" x="493.6" y="1119.3813">equals(interviewModel)</text></g><!--class InterviewAnswers--><g id="elem_InterviewAnswers"><rect codeLine="91" fill="#FFFFFF" height="112.8844" id="InterviewAnswers" rx="2" ry="2" style="stroke:#000000;stroke-width:0.4000000000000001;" width="152" x="657.6" y="1012.5078"/><ellipse cx="687.6" cy="1025.3078" fill="#ADD1B2" rx="8.8" ry="8.8" style="stroke:#181818;stroke-width:0.8000000000000002;"/><path d="M689.8125,1022.0078 Q689.9375,1021.8328 690.0875,1021.7453 Q690.2375,1021.6578 690.4125,1021.6578 Q690.7125,1021.6578 690.9,1021.8703 Q691.0875,1022.0703 691.0875,1022.5578 L691.0875,1023.7203 Q691.0875,1024.2078 690.9,1024.4203 Q690.7125,1024.6328 690.4125,1024.6328 Q690.1375,1024.6328 689.975,1024.4703 Q689.8125,1024.3203 689.725,1023.9078 Q689.6875,1023.6203 689.5375,1023.4703 Q689.275,1023.1703 688.7875,1022.9953 Q688.3,1022.8203 687.8,1022.8203 Q687.1875,1022.8203 686.675,1023.0828 Q686.175,1023.3453 685.775,1023.9453 Q685.3875,1024.5453 685.3875,1025.3703 L685.3875,1026.2453 Q685.3875,1027.2328 686.1,1027.8953 Q686.8125,1028.5453 688.0875,1028.5453 Q688.8375,1028.5453 689.3625,1028.3453 Q689.675,1028.2203 690.0125,1027.8703 Q690.225,1027.6578 690.3375,1027.5953 Q690.4625,1027.5328 690.625,1027.5328 Q690.8875,1027.5328 691.0875,1027.7453 Q691.3,1027.9453 691.3,1028.2203 Q691.3,1028.4953 691.025,1028.8203 Q690.625,1029.2828 689.9875,1029.5453 Q689.125,1029.9078 688.0875,1029.9078 Q686.875,1029.9078 685.9125,1029.4078 Q685.125,1029.0078 684.575,1028.1578 Q684.025,1027.2953 684.025,1026.2703 L684.025,1025.3453 Q684.025,1024.2828 684.5125,1023.3703 Q685.0125,1022.4453 685.8875,1021.9578 Q686.7625,1021.4578 687.75,1021.4578 Q688.3375,1021.4578 688.85,1021.5953 Q689.375,1021.7203 689.8125,1022.0078 Z " fill="#000000"/><text fill="#000000" font-family="sans-serif" font-size="11.2" lengthAdjust="spacing" textLength="86.4" x="702.8" y="1029.9453">InterviewAnswers</text><line style="stroke:#000000;stroke-width:0.4000000000000001;" x1="658.4" x2="808.8" y1="1038.1078" y2="1038.1078"/><line style="stroke:#000000;stroke-width:0.4000000000000001;" x1="658.4" x2="808.8" y1="1044.5078" y2="1044.5078"/><ellipse cx="666.4" cy="1056.3563" fill="#84BE84" rx="2.4" ry="2.4" style="stroke:#038048;stroke-width:0.8000000000000002;"/><text fill="#000000" font-family="sans-serif" font-size="11.2" lengthAdjust="spacing" textLength="131.2" x="673.6" y="1059.7938">InterviewModel(questions)</text><ellipse cx="666.4" cy="1071.2531" fill="#84BE84" rx="2.4" ry="2.4" style="stroke:#038048;stroke-width:0.8000000000000002;"/><text fill="#000000" font-family="sans-serif" font-size="11.2" lengthAdjust="spacing" textLength="56.8" x="673.6" y="1074.6906">questions()</text><ellipse cx="666.4" cy="1086.15" fill="#84BE84" rx="2.4" ry="2.4" style="stroke:#038048;stroke-width:0.8000000000000002;"/><text fill="#000000" font-family="sans-serif" font-size="11.2" lengthAdjust="spacing" textLength="60" x="673.6" y="1089.5875">hashCode()</text><ellipse cx="666.4" cy="1101.0469" fill="#84BE84" rx="2.4" ry="2.4" style="stroke:#038048;stroke-width:0.8000000000000002;"/><text fill="#000000" font-family="sans-serif" font-size="11.2" lengthAdjust="spacing" textLength="107.2" x="673.6" y="1104.4844">sameAs(otherObject)</text><ellipse cx="666.4" cy="1115.9438" fill="#84BE84" rx="2.4" ry="2.4" style="stroke:#038048;stroke-width:0.8000000000000002;"/><text fill="#000000" font-family="sans-serif" font-size="11.2" lengthAdjust="spacing" textLength="116" x="673.6" y="1119.3813">equals(interviewModel)</text></g><!--class Result--><g id="elem_Result"><rect codeLine="99" fill="#FFFFFF" height="112.8844" id="Result" rx="2" ry="2" style="stroke:#000000;stroke-width:0.4000000000000001;" width="152" x="837.6" y="1012.5078"/><ellipse cx="894.2" cy="1025.3078" fill="#ADD1B2" rx="8.8" ry="8.8" style="stroke:#181818;stroke-width:0.8000000000000002;"/><path d="M896.4125,1022.0078 Q896.5375,1021.8328 896.6875,1021.7453 Q896.8375,1021.6578 897.0125,1021.6578 Q897.3125,1021.6578 897.5,1021.8703 Q897.6875,1022.0703 897.6875,1022.5578 L897.6875,1023.7203 Q897.6875,1024.2078 897.5,1024.4203 Q897.3125,1024.6328 897.0125,1024.6328 Q896.7375,1024.6328 896.575,1024.4703 Q896.4125,1024.3203 896.325,1023.9078 Q896.2875,1023.6203 896.1375,1023.4703 Q895.875,1023.1703 895.3875,1022.9953 Q894.9,1022.8203 894.4,1022.8203 Q893.7875,1022.8203 893.275,1023.0828 Q892.775,1023.3453 892.375,1023.9453 Q891.9875,1024.5453 891.9875,1025.3703 L891.9875,1026.2453 Q891.9875,1027.2328 892.7,1027.8953 Q893.4125,1028.5453 894.6875,1028.5453 Q895.4375,1028.5453 895.9625,1028.3453 Q896.275,1028.2203 896.6125,1027.8703 Q896.825,1027.6578 896.9375,1027.5953 Q897.0625,1027.5328 897.225,1027.5328 Q897.4875,1027.5328 897.6875,1027.7453 Q897.9,1027.9453 897.9,1028.2203 Q897.9,1028.4953 897.625,1028.8203 Q897.225,1029.2828 896.5875,1029.5453 Q895.725,1029.9078 894.6875,1029.9078 Q893.475,1029.9078 892.5125,1029.4078 Q891.725,1029.0078 891.175,1028.1578 Q890.625,1027.2953 890.625,1026.2703 L890.625,1025.3453 Q890.625,1024.2828 891.1125,1023.3703 Q891.6125,1022.4453 892.4875,1021.9578 Q893.3625,1021.4578 894.35,1021.4578 Q894.9375,1021.4578 895.45,1021.5953 Q895.975,1021.7203 896.4125,1022.0078 Z " fill="#000000"/><text fill="#000000" font-family="sans-serif" font-size="11.2" lengthAdjust="spacing" textLength="32" x="910.6" y="1029.9453">Result</text><line style="stroke:#000000;stroke-width:0.4000000000000001;" x1="838.4" x2="988.8" y1="1038.1078" y2="1038.1078"/><line style="stroke:#000000;stroke-width:0.4000000000000001;" x1="838.4" x2="988.8" y1="1044.5078" y2="1044.5078"/><ellipse cx="846.4" cy="1056.3563" fill="#84BE84" rx="2.4" ry="2.4" style="stroke:#038048;stroke-width:0.8000000000000002;"/><text fill="#000000" font-family="sans-serif" font-size="11.2" lengthAdjust="spacing" textLength="131.2" x="853.6" y="1059.7938">InterviewModel(questions)</text><ellipse cx="846.4" cy="1071.2531" fill="#84BE84" rx="2.4" ry="2.4" style="stroke:#038048;stroke-width:0.8000000000000002;"/><text fill="#000000" font-family="sans-serif" font-size="11.2" lengthAdjust="spacing" textLength="56.8" x="853.6" y="1074.6906">questions()</text><ellipse cx="846.4" cy="1086.15" fill="#84BE84" rx="2.4" ry="2.4" style="stroke:#038048;stroke-width:0.8000000000000002;"/><text fill="#000000" font-family="sans-serif" font-size="11.2" lengthAdjust="spacing" textLength="60" x="853.6" y="1089.5875">hashCode()</text><ellipse cx="846.4" cy="1101.0469" fill="#84BE84" rx="2.4" ry="2.4" style="stroke:#038048;stroke-width:0.8000000000000002;"/><text fill="#000000" font-family="sans-serif" font-size="11.2" lengthAdjust="spacing" textLength="107.2" x="853.6" y="1104.4844">sameAs(otherObject)</text><ellipse cx="846.4" cy="1115.9438" fill="#84BE84" rx="2.4" ry="2.4" style="stroke:#038048;stroke-width:0.8000000000000002;"/><text fill="#000000" font-family="sans-serif" font-size="11.2" lengthAdjust="spacing" textLength="116" x="853.6" y="1119.3813">equals(interviewModel)</text></g><!--class Score--><g id="elem_Score"><rect codeLine="107" fill="#FFFFFF" height="112.8844" id="Score" rx="2" ry="2" style="stroke:#000000;stroke-width:0.4000000000000001;" width="152" x="1017.6" y="1012.5078"/><ellipse cx="1075.4" cy="1025.3078" fill="#ADD1B2" rx="8.8" ry="8.8" style="stroke:#181818;stroke-width:0.8000000000000002;"/><path d="M1077.6125,1022.0078 Q1077.7375,1021.8328 1077.8875,1021.7453 Q1078.0375,1021.6578 1078.2125,1021.6578 Q1078.5125,1021.6578 1078.7,1021.8703 Q1078.8875,1022.0703 1078.8875,1022.5578 L1078.8875,1023.7203 Q1078.8875,1024.2078 1078.7,1024.4203 Q1078.5125,1024.6328 1078.2125,1024.6328 Q1077.9375,1024.6328 1077.775,1024.4703 Q1077.6125,1024.3203 1077.525,1023.9078 Q1077.4875,1023.6203 1077.3375,1023.4703 Q1077.075,1023.1703 1076.5875,1022.9953 Q1076.1,1022.8203 1075.6,1022.8203 Q1074.9875,1022.8203 1074.475,1023.0828 Q1073.975,1023.3453 1073.575,1023.9453 Q1073.1875,1024.5453 1073.1875,1025.3703 L1073.1875,1026.2453 Q1073.1875,1027.2328 1073.9,1027.8953 Q1074.6125,1028.5453 1075.8875,1028.5453 Q1076.6375,1028.5453 1077.1625,1028.3453 Q1077.475,1028.2203 1077.8125,1027.8703 Q1078.025,1027.6578 1078.1375,1027.5953 Q1078.2625,1027.5328 1078.425,1027.5328 Q1078.6875,1027.5328 1078.8875,1027.7453 Q1079.1,1027.9453 1079.1,1028.2203 Q1079.1,1028.4953 1078.825,1028.8203 Q1078.425,1029.2828 1077.7875,1029.5453 Q1076.925,1029.9078 1075.8875,1029.9078 Q1074.675,1029.9078 1073.7125,1029.4078 Q1072.925,1029.0078 1072.375,1028.1578 Q1071.825,1027.2953 1071.825,1026.2703 L1071.825,1025.3453 Q1071.825,1024.2828 1072.3125,1023.3703 Q1072.8125,1022.4453 1073.6875,1021.9578 Q1074.5625,1021.4578 1075.55,1021.4578 Q1076.1375,1021.4578 1076.65,1021.5953 Q1077.175,1021.7203 1077.6125,1022.0078 Z " fill="#000000"/><text fill="#000000" font-family="sans-serif" font-size="11.2" lengthAdjust="spacing" textLength="29.6" x="1091.8" y="1029.9453">Score</text><line style="stroke:#000000;stroke-width:0.4000000000000001;" x1="1018.4" x2="1168.8" y1="1038.1078" y2="1038.1078"/><line style="stroke:#000000;stroke-width:0.4000000000000001;" x1="1018.4" x2="1168.8" y1="1044.5078" y2="1044.5078"/><ellipse cx="1026.4" cy="1056.3563" fill="#84BE84" rx="2.4" ry="2.4" style="stroke:#038048;stroke-width:0.8000000000000002;"/><text fill="#000000" font-family="sans-serif" font-size="11.2" lengthAdjust="spacing" textLength="131.2" x="1033.6" y="1059.7938">InterviewModel(questions)</text><ellipse cx="1026.4" cy="1071.2531" fill="#84BE84" rx="2.4" ry="2.4" style="stroke:#038048;stroke-width:0.8000000000000002;"/><text fill="#000000" font-family="sans-serif" font-size="11.2" lengthAdjust="spacing" textLength="56.8" x="1033.6" y="1074.6906">questions()</text><ellipse cx="1026.4" cy="1086.15" fill="#84BE84" rx="2.4" ry="2.4" style="stroke:#038048;stroke-width:0.8000000000000002;"/><text fill="#000000" font-family="sans-serif" font-size="11.2" lengthAdjust="spacing" textLength="60" x="1033.6" y="1089.5875">hashCode()</text><ellipse cx="1026.4" cy="1101.0469" fill="#84BE84" rx="2.4" ry="2.4" style="stroke:#038048;stroke-width:0.8000000000000002;"/><text fill="#000000" font-family="sans-serif" font-size="11.2" lengthAdjust="spacing" textLength="107.2" x="1033.6" y="1104.4844">sameAs(otherObject)</text><ellipse cx="1026.4" cy="1115.9438" fill="#84BE84" rx="2.4" ry="2.4" style="stroke:#038048;stroke-width:0.8000000000000002;"/><text fill="#000000" font-family="sans-serif" font-size="11.2" lengthAdjust="spacing" textLength="116" x="1033.6" y="1119.3813">equals(interviewModel)</text></g><!--class Time--><g id="elem_Time"><rect codeLine="115" fill="#FFFFFF" height="112.8844" id="Time" rx="2" ry="2" style="stroke:#000000;stroke-width:0.4000000000000001;" width="152" x="1197.6" y="1012.5078"/><ellipse cx="1257.8" cy="1025.3078" fill="#ADD1B2" rx="8.8" ry="8.8" style="stroke:#181818;stroke-width:0.8000000000000002;"/><path d="M1260.0125,1022.0078 Q1260.1375,1021.8328 1260.2875,1021.7453 Q1260.4375,1021.6578 1260.6125,1021.6578 Q1260.9125,1021.6578 1261.1,1021.8703 Q1261.2875,1022.0703 1261.2875,1022.5578 L1261.2875,1023.7203 Q1261.2875,1024.2078 1261.1,1024.4203 Q1260.9125,1024.6328 1260.6125,1024.6328 Q1260.3375,1024.6328 1260.175,1024.4703 Q1260.0125,1024.3203 1259.925,1023.9078 Q1259.8875,1023.6203 1259.7375,1023.4703 Q1259.475,1023.1703 1258.9875,1022.9953 Q1258.5,1022.8203 1258,1022.8203 Q1257.3875,1022.8203 1256.875,1023.0828 Q1256.375,1023.3453 1255.975,1023.9453 Q1255.5875,1024.5453 1255.5875,1025.3703 L1255.5875,1026.2453 Q1255.5875,1027.2328 1256.3,1027.8953 Q1257.0125,1028.5453 1258.2875,1028.5453 Q1259.0375,1028.5453 1259.5625,1028.3453 Q1259.875,1028.2203 1260.2125,1027.8703 Q1260.425,1027.6578 1260.5375,1027.5953 Q1260.6625,1027.5328 1260.825,1027.5328 Q1261.0875,1027.5328 1261.2875,1027.7453 Q1261.5,1027.9453 1261.5,1028.2203 Q1261.5,1028.4953 1261.225,1028.8203 Q1260.825,1029.2828 1260.1875,1029.5453 Q1259.325,1029.9078 1258.2875,1029.9078 Q1257.075,1029.9078 1256.1125,1029.4078 Q1255.325,1029.0078 1254.775,1028.1578 Q1254.225,1027.2953 1254.225,1026.2703 L1254.225,1025.3453 Q1254.225,1024.2828 1254.7125,1023.3703 Q1255.2125,1022.4453 1256.0875,1021.9578 Q1256.9625,1021.4578 1257.95,1021.4578 Q1258.5375,1021.4578 1259.05,1021.5953 Q1259.575,1021.7203 1260.0125,1022.0078 Z " fill="#000000"/><text fill="#000000" font-family="sans-serif" font-size="11.2" lengthAdjust="spacing" textLength="24.8" x="1274.2" y="1029.9453">Time</text><line style="stroke:#000000;stroke-width:0.4000000000000001;" x1="1198.4" x2="1348.8" y1="1038.1078" y2="1038.1078"/><line style="stroke:#000000;stroke-width:0.4000000000000001;" x1="1198.4" x2="1348.8" y1="1044.5078" y2="1044.5078"/><ellipse cx="1206.4" cy="1056.3563" fill="#84BE84" rx="2.4" ry="2.4" style="stroke:#038048;stroke-width:0.8000000000000002;"/><text fill="#000000" font-family="sans-serif" font-size="11.2" lengthAdjust="spacing" textLength="131.2" x="1213.6" y="1059.7938">InterviewModel(questions)</text><ellipse cx="1206.4" cy="1071.2531" fill="#84BE84" rx="2.4" ry="2.4" style="stroke:#038048;stroke-width:0.8000000000000002;"/><text fill="#000000" font-family="sans-serif" font-size="11.2" lengthAdjust="spacing" textLength="56.8" x="1213.6" y="1074.6906">questions()</text><ellipse cx="1206.4" cy="1086.15" fill="#84BE84" rx="2.4" ry="2.4" style="stroke:#038048;stroke-width:0.8000000000000002;"/><text fill="#000000" font-family="sans-serif" font-size="11.2" lengthAdjust="spacing" textLength="60" x="1213.6" y="1089.5875">hashCode()</text><ellipse cx="1206.4" cy="1101.0469" fill="#84BE84" rx="2.4" ry="2.4" style="stroke:#038048;stroke-width:0.8000000000000002;"/><text fill="#000000" font-family="sans-serif" font-size="11.2" lengthAdjust="spacing" textLength="107.2" x="1213.6" y="1104.4844">sameAs(otherObject)</text><ellipse cx="1206.4" cy="1115.9438" fill="#84BE84" rx="2.4" ry="2.4" style="stroke:#038048;stroke-width:0.8000000000000002;"/><text fill="#000000" font-family="sans-serif" font-size="11.2" lengthAdjust="spacing" textLength="116" x="1213.6" y="1119.3813">equals(interviewModel)</text></g><!--link UploadResponsesUI to UploadResponsesController--><g id="link_UploadResponsesUI_UploadResponsesController"><path codeLine="125" d="M790.4,134.1958 C790.4,154.3078 790.4,175.4838 790.4,197.8278 " fill="none" id="UploadResponsesUI-to-UploadResponsesController" style="stroke:#000000;stroke-width:0.8000000000000002;"/><polygon fill="#000000" points="790.4,202.6278,793.6,195.4278,790.4,198.6278,787.2,195.4278,790.4,202.6278" style="stroke:#000000;stroke-width:0.8000000000000002;"/></g><!--link UploadResponsesController to JobInterviewService--><g id="link_UploadResponsesController_JobInterviewService"><path codeLine="127" d="M790.4,300.6518 C790.4,322.5558 790.4,343.4038 790.4,364.3718 " fill="none" id="UploadResponsesController-to-JobInterviewService" style="stroke:#000000;stroke-width:0.8000000000000002;"/><polygon fill="#000000" points="790.4,369.1718,793.6,361.9718,790.4,365.1718,787.2,361.9718,790.4,369.1718" style="stroke:#000000;stroke-width:0.8000000000000002;"/></g><!--link UploadResponsesController to InterviewPlugin--><g id="link_UploadResponsesController_InterviewPlugin"><path codeLine="128" d="M909.744,251.7078 C924.744,251.7078 934.944,251.7078 949.944,251.7078 " fill="none" id="UploadResponsesController-to-InterviewPlugin" style="stroke:#000000;stroke-width:0.8000000000000002;"/><polygon fill="#000000" points="954.744,251.7078,947.544,248.5078,950.744,251.7078,947.544,254.9078,954.744,251.7078" style="stroke:#000000;stroke-width:0.8000000000000002;"/></g><!--link JobInterviewService to JobInterviewRepository--><g id="link_JobInterviewService_JobInterviewRepository"><path codeLine="130" d="M790.4,452.7638 C790.4,474.9798 790.4,496.9558 790.4,516.3318 " fill="none" id="JobInterviewService-to-JobInterviewRepository" style="stroke:#000000;stroke-width:0.8000000000000002;"/><polygon fill="#000000" points="790.4,521.1318,793.6,513.9318,790.4,517.1318,787.2,513.9318,790.4,521.1318" style="stroke:#000000;stroke-width:0.8000000000000002;"/></g><!--link JobInterviewRepository to JobInterview--><g id="link_JobInterviewRepository_JobInterview"><path codeLine="132" d="M790.4,575.0598 C790.4,596.0598 790.4,622.2598 790.4,653.1878 " fill="none" id="JobInterviewRepository-to-JobInterview" style="stroke:#000000;stroke-width:0.8000000000000002;"/><polygon fill="#000000" points="790.4,657.9878,793.6,650.7878,790.4,653.9878,787.2,650.7878,790.4,657.9878" style="stroke:#000000;stroke-width:0.8000000000000002;"/><text fill="#000000" font-family="sans-serif" font-size="10.4" lengthAdjust="spacing" textLength="28.8" x="791.2" y="612.5305">stores</text></g><!--link JobInterview to Application--><g id="link_JobInterview_Application"><path codeLine="134" d="M599.44,866.2918 C555.112,889.6038 508.2,914.5318 464.8,938.1078 C459.744,940.8518 458.8331,941.3366 453.6811,944.1606 " fill="none" id="JobInterview-to-Application" style="stroke:#000000;stroke-width:0.8000000000000002;"/><polygon fill="#000000" points="449.472,946.4678,457.3238,945.8131,452.9796,944.5452,454.2476,940.2009,449.472,946.4678" style="stroke:#000000;stroke-width:0.8000000000000002;"/><text fill="#000000" font-family="sans-serif" font-size="10.4" lengthAdjust="spacing" textLength="62.4" x="536" y="910.9305">associated to</text></g><!--link JobInterview to InterviewModel--><g id="link_JobInterview_InterviewModel"><path codeLine="135" d="M695.2,875.0518 C677.792,895.6838 660.064,917.3318 644,938.1078 C625.672,961.8118 609.275,984.936 593.371,1008.224 " fill="none" id="JobInterview-to-InterviewModel" style="stroke:#000000;stroke-width:0.8000000000000002;"/><polygon fill="#000000" points="590.664,1012.1878,597.3671,1008.0467,592.9198,1008.8846,592.082,1004.4374,590.664,1012.1878" style="stroke:#000000;stroke-width:0.8000000000000002;"/><text fill="#000000" font-family="sans-serif" font-size="10.4" lengthAdjust="spacing" textLength="16.8" x="675.2" y="910.9305">has</text></g><!--link JobInterview to InterviewAnswers--><g id="link_JobInterview_InterviewAnswers"><path codeLine="136" d="M770.056,875.0518 C761.288,921.4998 752.2907,969.1352 745.0267,1007.5992 " fill="none" id="JobInterview-to-InterviewAnswers" style="stroke:#000000;stroke-width:0.8000000000000002;"/><polygon fill="#000000" points="744.136,1012.3158,748.6165,1005.8347,744.8783,1008.3853,742.3277,1004.647,744.136,1012.3158" style="stroke:#000000;stroke-width:0.8000000000000002;"/><text fill="#000000" font-family="sans-serif" font-size="10.4" lengthAdjust="spacing" textLength="16.8" x="765.6" y="910.9305">has</text></g><!--link JobInterview to Result--><g id="link_JobInterview_Result"><path codeLine="137" d="M834.528,875.0518 C853.552,921.4998 873.1809,969.4099 888.9329,1007.8739 " fill="none" id="JobInterview-to-Result" style="stroke:#000000;stroke-width:0.8000000000000002;"/><polygon fill="#000000" points="890.752,1012.3158,890.9847,1004.4402,889.2361,1008.6142,885.0621,1006.8656,890.752,1012.3158" style="stroke:#000000;stroke-width:0.8000000000000002;"/><text fill="#000000" font-family="sans-serif" font-size="10.4" lengthAdjust="spacing" textLength="16.8" x="848.8" y="910.9305">has</text></g><!--link JobInterview to Score--><g id="link_JobInterview_Score"><path codeLine="138" d="M937.08,875.0758 C960.512,894.9318 983.696,916.3078 1004,938.1078 C1024.92,960.5718 1042.0732,984.2425 1057.6892,1008.2825 " fill="none" id="JobInterview-to-Score" style="stroke:#000000;stroke-width:0.8000000000000002;"/><polygon fill="#000000" points="1060.304,1012.3078,1059.0654,1004.5267,1058.125,1008.9534,1053.6983,1008.013,1060.304,1012.3078" style="stroke:#000000;stroke-width:0.8000000000000002;"/><text fill="#000000" font-family="sans-serif" font-size="10.4" lengthAdjust="spacing" textLength="16.8" x="978.4" y="910.9305">has</text></g><!--link JobInterview to Time--><g id="link_JobInterview_Time"><path codeLine="139" d="M981.384,825.4758 C1050.008,852.4678 1124.96,889.5398 1184,938.1078 C1208.664,958.3958 1226.947,983.0332 1242.259,1008.3372 " fill="none" id="JobInterview-to-Time" style="stroke:#000000;stroke-width:0.8000000000000002;"/><polygon fill="#000000" points="1244.744,1012.4438,1243.7542,1004.6271,1242.6731,1009.0216,1238.2787,1007.9405,1244.744,1012.4438" style="stroke:#000000;stroke-width:0.8000000000000002;"/><text fill="#000000" font-family="sans-serif" font-size="10.4" lengthAdjust="spacing" textLength="16.8" x="1147.2" y="910.9305">has</text></g><!--SRC=[rLPDR-8m4BtdLrYSKcrwM6bFFLIYe4fKMdK5L3sRU4XSZ9tQJb5trV- -TXBIiHFQIhiNk03pyMRUp7Xii-EoefhkIIweCUHFGjpdXkQxGgjQifaIIfF7abjeD5EjrQ4LtWXdrPehpK37qbibxPXinNy3-VuZUKkIDRS2o6JMX9vpMlX4Bib39HHbN1Pa2QPIqe0XMuT3oPtQa8Mqe5yu72P9KZbWMZY8IeC1QQdbIauw5YsZ5gm7UbXqMl_vHfXQbUgGNY1H2PG9Bg4Jllb4-pYqgWJFFmypSqIr4W9q46xB9PiAqLCmZzoMFnK3CJM65n9Oa8e6gpcyG0-RLjIM5n5WZtRpkfYd_FXlCSU6TPXVge-_ClAaDZt46ETAr0MFwFOElnfbGD9tSK_rh8Hy1xf9EIDv7tgCu5IQ0sXCBqp1-60vc329EvJughNubsfxSmpfoibIN9m5-qyLrL0fmwrot7jAJT-sr570EIoFbgy1CufPZGugKtiQDmq31t1OaUOQg0LsBpDY-HuoOdAbtPVZLmkR4NG4Cj9FMrDMN1xEt7dazZKeSOyTI7sOGD14Z4w23nw8K1w1F4mf35zIMS0YD0ZjrshM60KRWPfovfHXZdGFKvCgMuA-tpn1Rh4MdcigJ3es2AWXqtSAg1yj0jAbcifTHb1Z4FTRBhgHMy8MDCZSzIgdad7ch3EYAj3K3T15X8_pHx5Yiux8PsOZ9UfAhlRkVe6r-XHYP62wtZls0w6fDtlkJh6ISqTpg7PNGMq6ObSIwWisK1ohDCp_MCc11bTyeAmhxxFqcVlqOxLLAxVuP87yki7e3p0UdGcQZcZ_DaCx69ven9zhCBxa9iwZLwHVRkX7Sn-CpAdLq14TuTBT0kVDPjbiglFciFBxzxmfhDsTScOC-ajy-6IzlBm-_S8SEA37ftSSUIPzv74TF-wIPEoX5IE_lrH2U_I2YLt8bTlJRj9CwD7OuQlnYhYEgfpxsy-jpg5nj0slV9i-i3hkcHDstGa-eMtFnWbbCtMjxYy0]--></g></svg>