<?xml version="1.0" encoding="us-ascii" standalone="no"?><svg xmlns="http://www.w3.org/2000/svg" xmlns:xlink="http://www.w3.org/1999/xlink" contentStyleType="text/css" height="1051.2px" preserveAspectRatio="none" style="width:1387px;height:1051px;background:#FFFFFF;" version="1.1" viewBox="0 0 1387 1051" width="1387.2px" zoomAndPan="magnify"><defs/><g><text fill="#000000" font-family="sans-serif" font-size="11.2" font-weight="bold" lengthAdjust="spacing" textLength="321.6" x="527.2" y="20.0859">Class Diagram - Uploading Responses for a Job Interview</text><!--cluster presentation--><g id="cluster_presentation"><path d="M715.6,36.5078 L788.4,36.5078 A3,3 0 0 1 790.4,38.5078 L796,56.2047 L865.2,56.2047 A2,2 0 0 1 867.2,58.2047 L867.2,144.9078 A2,2 0 0 1 865.2,146.9078 L715.6,146.9078 A2,2 0 0 1 713.6,144.9078 L713.6,38.5078 A2,2 0 0 1 715.6,36.5078 " fill="none" style="stroke:#000000;stroke-width:1.2000000000000002;"/><line style="stroke:#000000;stroke-width:1.2000000000000002;" x1="713.6" x2="796" y1="56.2047" y2="56.2047"/><text fill="#000000" font-family="sans-serif" font-size="11.2" font-weight="bold" lengthAdjust="spacing" textLength="72" x="716.8" y="50.1938">presentation</text></g><!--cluster application--><g id="cluster_application"><path d="M660.4,173.3078 L722.8,173.3078 A3,3 0 0 1 724.8,175.3078 L730.4,193.0047 L920.4,193.0047 A2,2 0 0 1 922.4,195.0047 L922.4,296.9078 A2,2 0 0 1 920.4,298.9078 L660.4,298.9078 A2,2 0 0 1 658.4,296.9078 L658.4,175.3078 A2,2 0 0 1 660.4,173.3078 " fill="none" style="stroke:#000000;stroke-width:1.2000000000000002;"/><line style="stroke:#000000;stroke-width:1.2000000000000002;" x1="658.4" x2="730.4" y1="193.0047" y2="193.0047"/><text fill="#000000" font-family="sans-serif" font-size="11.2" font-weight="bold" lengthAdjust="spacing" textLength="61.6" x="661.6" y="186.9938">application</text></g><!--cluster repositories--><g id="cluster_repositories"><path d="M708.4,325.3078 L778,325.3078 A3,3 0 0 1 780,327.3078 L785.6,345.0047 L872.4,345.0047 A2,2 0 0 1 874.4,347.0047 L874.4,419.3078 A2,2 0 0 1 872.4,421.3078 L708.4,421.3078 A2,2 0 0 1 706.4,419.3078 L706.4,327.3078 A2,2 0 0 1 708.4,325.3078 " fill="none" style="stroke:#000000;stroke-width:1.2000000000000002;"/><line style="stroke:#000000;stroke-width:1.2000000000000002;" x1="706.4" x2="785.6" y1="345.0047" y2="345.0047"/><text fill="#000000" font-family="sans-serif" font-size="11.2" font-weight="bold" lengthAdjust="spacing" textLength="68.8" x="709.6" y="338.9938">repositories</text></g><!--cluster domain--><g id="cluster_domain"><path d="M6.8,462.1078 L48.4,462.1078 A3,3 0 0 1 50.4,464.1078 L56,481.8047 L1379.6,481.8047 A2,2 0 0 1 1381.6,483.8047 L1381.6,1044.1078 A2,2 0 0 1 1379.6,1046.1078 L6.8,1046.1078 A2,2 0 0 1 4.8,1044.1078 L4.8,464.1078 A2,2 0 0 1 6.8,462.1078 " fill="none" style="stroke:#000000;stroke-width:1.2000000000000002;"/><line style="stroke:#000000;stroke-width:1.2000000000000002;" x1="4.8" x2="56" y1="481.8047" y2="481.8047"/><text fill="#000000" font-family="sans-serif" font-size="11.2" font-weight="bold" lengthAdjust="spacing" textLength="40.8" x="8" y="475.7938">domain</text></g><!--cluster jobInterview--><g id="cluster_jobInterview"><path d="M466.8,816.5078 L538,816.5078 A3,3 0 0 1 540,818.5078 L545.6,836.2047 L1360.4,836.2047 A2,2 0 0 1 1362.4,838.2047 L1362.4,969.7078 A2,2 0 0 1 1360.4,971.7078 L466.8,971.7078 A2,2 0 0 1 464.8,969.7078 L464.8,818.5078 A2,2 0 0 1 466.8,816.5078 " fill="none" style="stroke:#000000;stroke-width:1.2000000000000002;"/><line style="stroke:#000000;stroke-width:1.2000000000000002;" x1="464.8" x2="545.6" y1="836.2047" y2="836.2047"/><text fill="#000000" font-family="sans-serif" font-size="11.2" font-weight="bold" lengthAdjust="spacing" textLength="70.4" x="468" y="830.1938">jobInterview</text></g><!--class UploadResponsesUI--><g id="elem_UploadResponsesUI"><rect codeLine="12" fill="#FFFFFF" height="68.1938" id="UploadResponsesUI" rx="2" ry="2" style="stroke:#000000;stroke-width:0.4000000000000001;" width="127.2" x="726.8" y="66.1078"/><ellipse cx="738.8" cy="78.9078" fill="#ADD1B2" rx="8.8" ry="8.8" style="stroke:#181818;stroke-width:0.8000000000000002;"/><path d="M741.0125,75.6078 Q741.1375,75.4328 741.2875,75.3453 Q741.4375,75.2578 741.6125,75.2578 Q741.9125,75.2578 742.1,75.4703 Q742.2875,75.6703 742.2875,76.1578 L742.2875,77.3203 Q742.2875,77.8078 742.1,78.0203 Q741.9125,78.2328 741.6125,78.2328 Q741.3375,78.2328 741.175,78.0703 Q741.0125,77.9203 740.925,77.5078 Q740.8875,77.2203 740.7375,77.0703 Q740.475,76.7703 739.9875,76.5953 Q739.5,76.4203 739,76.4203 Q738.3875,76.4203 737.875,76.6828 Q737.375,76.9453 736.975,77.5453 Q736.5875,78.1453 736.5875,78.9703 L736.5875,79.8453 Q736.5875,80.8328 737.3,81.4953 Q738.0125,82.1453 739.2875,82.1453 Q740.0375,82.1453 740.5625,81.9453 Q740.875,81.8203 741.2125,81.4703 Q741.425,81.2578 741.5375,81.1953 Q741.6625,81.1328 741.825,81.1328 Q742.0875,81.1328 742.2875,81.3453 Q742.5,81.5453 742.5,81.8203 Q742.5,82.0953 742.225,82.4203 Q741.825,82.8828 741.1875,83.1453 Q740.325,83.5078 739.2875,83.5078 Q738.075,83.5078 737.1125,83.0078 Q736.325,82.6078 735.775,81.7578 Q735.225,80.8953 735.225,79.8703 L735.225,78.9453 Q735.225,77.8828 735.7125,76.9703 Q736.2125,76.0453 737.0875,75.5578 Q737.9625,75.0578 738.95,75.0578 Q739.5375,75.0578 740.05,75.1953 Q740.575,75.3203 741.0125,75.6078 Z " fill="#000000"/><text fill="#000000" font-family="sans-serif" font-size="11.2" lengthAdjust="spacing" textLength="101.6" x="750" y="83.5453">UploadResponsesUI</text><line style="stroke:#000000;stroke-width:0.4000000000000001;" x1="727.6" x2="853.2" y1="91.7078" y2="91.7078"/><line style="stroke:#000000;stroke-width:0.4000000000000001;" x1="727.6" x2="853.2" y1="98.1078" y2="98.1078"/><ellipse cx="735.6" cy="109.9563" fill="#84BE84" rx="2.4" ry="2.4" style="stroke:#038048;stroke-width:0.8000000000000002;"/><text fill="#000000" font-family="sans-serif" font-size="11.2" lengthAdjust="spacing" textLength="48" x="742.8" y="113.3938">doShow()</text><ellipse cx="735.6" cy="124.8531" fill="#84BE84" rx="2.4" ry="2.4" style="stroke:#038048;stroke-width:0.8000000000000002;"/><text fill="#000000" font-family="sans-serif" font-size="11.2" lengthAdjust="spacing" textLength="51.2" x="742.8" y="128.2906">headline()</text></g><!--class UploadResponsesController--><g id="elem_UploadResponsesController"><rect codeLine="19" fill="#FFFFFF" height="83.0906" id="UploadResponsesController" rx="2" ry="2" style="stroke:#000000;stroke-width:0.4000000000000001;" width="238.4" x="671.2" y="202.9078"/><ellipse cx="716.2" cy="215.7078" fill="#ADD1B2" rx="8.8" ry="8.8" style="stroke:#181818;stroke-width:0.8000000000000002;"/><path d="M718.4125,212.4078 Q718.5375,212.2328 718.6875,212.1453 Q718.8375,212.0578 719.0125,212.0578 Q719.3125,212.0578 719.5,212.2703 Q719.6875,212.4703 719.6875,212.9578 L719.6875,214.1203 Q719.6875,214.6078 719.5,214.8203 Q719.3125,215.0328 719.0125,215.0328 Q718.7375,215.0328 718.575,214.8703 Q718.4125,214.7203 718.325,214.3078 Q718.2875,214.0203 718.1375,213.8703 Q717.875,213.5703 717.3875,213.3953 Q716.9,213.2203 716.4,213.2203 Q715.7875,213.2203 715.275,213.4828 Q714.775,213.7453 714.375,214.3453 Q713.9875,214.9453 713.9875,215.7703 L713.9875,216.6453 Q713.9875,217.6328 714.7,218.2953 Q715.4125,218.9453 716.6875,218.9453 Q717.4375,218.9453 717.9625,218.7453 Q718.275,218.6203 718.6125,218.2703 Q718.825,218.0578 718.9375,217.9953 Q719.0625,217.9328 719.225,217.9328 Q719.4875,217.9328 719.6875,218.1453 Q719.9,218.3453 719.9,218.6203 Q719.9,218.8953 719.625,219.2203 Q719.225,219.6828 718.5875,219.9453 Q717.725,220.3078 716.6875,220.3078 Q715.475,220.3078 714.5125,219.8078 Q713.725,219.4078 713.175,218.5578 Q712.625,217.6953 712.625,216.6703 L712.625,215.7453 Q712.625,214.6828 713.1125,213.7703 Q713.6125,212.8453 714.4875,212.3578 Q715.3625,211.8578 716.35,211.8578 Q716.9375,211.8578 717.45,211.9953 Q717.975,212.1203 718.4125,212.4078 Z " fill="#000000"/><text fill="#000000" font-family="sans-serif" font-size="11.2" lengthAdjust="spacing" textLength="141.6" x="732.6" y="220.3453">UploadResponsesController</text><line style="stroke:#000000;stroke-width:0.4000000000000001;" x1="672" x2="908.8" y1="228.5078" y2="228.5078"/><line style="stroke:#000000;stroke-width:0.4000000000000001;" x1="672" x2="908.8" y1="234.9078" y2="234.9078"/><ellipse cx="680" cy="246.7563" fill="#84BE84" rx="2.4" ry="2.4" style="stroke:#038048;stroke-width:0.8000000000000002;"/><text fill="#000000" font-family="sans-serif" font-size="11.2" lengthAdjust="spacing" textLength="72" x="687.2" y="250.1938">readFile(path)</text><ellipse cx="680" cy="261.6531" fill="#84BE84" rx="2.4" ry="2.4" style="stroke:#038048;stroke-width:0.8000000000000002;"/><text fill="#000000" font-family="sans-serif" font-size="11.2" lengthAdjust="spacing" textLength="148" x="687.2" y="265.0906">findInterviewByID(interviewID)</text><ellipse cx="680" cy="276.55" fill="#84BE84" rx="2.4" ry="2.4" style="stroke:#038048;stroke-width:0.8000000000000002;"/><text fill="#000000" font-family="sans-serif" font-size="11.2" lengthAdjust="spacing" textLength="217.6" x="687.2" y="279.9875">uploadResponses(responses, jobInterview)</text></g><!--class JobInterviewRepository--><g id="elem_JobInterviewRepository"><rect codeLine="27" fill="#FFFFFF" height="53.2969" id="JobInterviewRepository" rx="2" ry="2" style="stroke:#000000;stroke-width:0.4000000000000001;" width="142.4" x="719.2" y="354.9078"/><ellipse cx="731.2" cy="367.7078" fill="#B4A7E5" rx="8.8" ry="8.8" style="stroke:#181818;stroke-width:0.8000000000000002;"/><path d="M731.9625,365.0203 L731.9625,370.3453 L733.3375,370.3453 Q733.825,370.3453 734.0375,370.5328 Q734.25,370.7203 734.25,371.0328 Q734.25,371.3328 734.0375,371.5203 Q733.825,371.7078 733.3375,371.7078 L729.225,371.7078 Q728.7375,371.7078 728.525,371.5203 Q728.3125,371.3328 728.3125,371.0203 Q728.3125,370.7203 728.525,370.5328 Q728.7375,370.3453 729.225,370.3453 L730.6,370.3453 L730.6,365.0203 L729.225,365.0203 Q728.7375,365.0203 728.525,364.8328 Q728.3125,364.6453 728.3125,364.3328 Q728.3125,364.0328 728.525,363.8453 Q728.7375,363.6578 729.225,363.6578 L733.3375,363.6578 Q733.825,363.6578 734.0375,363.8453 Q734.25,364.0328 734.25,364.3328 Q734.25,364.6453 734.0375,364.8328 Q733.825,365.0203 733.3375,365.0203 L731.9625,365.0203 Z " fill="#000000"/><text fill="#000000" font-family="sans-serif" font-size="11.2" font-style="italic" lengthAdjust="spacing" textLength="116.8" x="742.4" y="372.3453">JobInterviewRepository</text><line style="stroke:#000000;stroke-width:0.4000000000000001;" x1="720" x2="860.8" y1="380.5078" y2="380.5078"/><line style="stroke:#000000;stroke-width:0.4000000000000001;" x1="720" x2="860.8" y1="386.9078" y2="386.9078"/><ellipse cx="728" cy="398.7563" fill="#84BE84" rx="2.4" ry="2.4" style="stroke:#038048;stroke-width:0.8000000000000002;"/><text fill="#000000" font-family="sans-serif" font-size="11.2" lengthAdjust="spacing" textLength="68.8" x="735.2" y="402.1938">allInterviews()</text></g><!--class JobInterview--><g id="elem_JobInterview"><rect codeLine="33" fill="#FFFFFF" height="217.1625" id="JobInterview" rx="2" ry="2" style="stroke:#000000;stroke-width:0.4000000000000001;" width="381.6" x="599.6" y="491.7078"/><ellipse cx="756.2" cy="504.5078" fill="#ADD1B2" rx="8.8" ry="8.8" style="stroke:#181818;stroke-width:0.8000000000000002;"/><path d="M758.4125,501.2078 Q758.5375,501.0328 758.6875,500.9453 Q758.8375,500.8578 759.0125,500.8578 Q759.3125,500.8578 759.5,501.0703 Q759.6875,501.2703 759.6875,501.7578 L759.6875,502.9203 Q759.6875,503.4078 759.5,503.6203 Q759.3125,503.8328 759.0125,503.8328 Q758.7375,503.8328 758.575,503.6703 Q758.4125,503.5203 758.325,503.1078 Q758.2875,502.8203 758.1375,502.6703 Q757.875,502.3703 757.3875,502.1953 Q756.9,502.0203 756.4,502.0203 Q755.7875,502.0203 755.275,502.2828 Q754.775,502.5453 754.375,503.1453 Q753.9875,503.7453 753.9875,504.5703 L753.9875,505.4453 Q753.9875,506.4328 754.7,507.0953 Q755.4125,507.7453 756.6875,507.7453 Q757.4375,507.7453 757.9625,507.5453 Q758.275,507.4203 758.6125,507.0703 Q758.825,506.8578 758.9375,506.7953 Q759.0625,506.7328 759.225,506.7328 Q759.4875,506.7328 759.6875,506.9453 Q759.9,507.1453 759.9,507.4203 Q759.9,507.6953 759.625,508.0203 Q759.225,508.4828 758.5875,508.7453 Q757.725,509.1078 756.6875,509.1078 Q755.475,509.1078 754.5125,508.6078 Q753.725,508.2078 753.175,507.3578 Q752.625,506.4953 752.625,505.4703 L752.625,504.5453 Q752.625,503.4828 753.1125,502.5703 Q753.6125,501.6453 754.4875,501.1578 Q755.3625,500.6578 756.35,500.6578 Q756.9375,500.6578 757.45,500.7953 Q757.975,500.9203 758.4125,501.2078 Z " fill="#000000"/><text fill="#000000" font-family="sans-serif" font-size="11.2" lengthAdjust="spacing" textLength="61.6" x="772.6" y="509.1453">JobInterview</text><line style="stroke:#000000;stroke-width:0.4000000000000001;" x1="600.4" x2="980.4" y1="517.3078" y2="517.3078"/><line style="stroke:#000000;stroke-width:0.4000000000000001;" x1="600.4" x2="980.4" y1="523.7078" y2="523.7078"/><ellipse cx="608.4" cy="535.5563" fill="#84BE84" rx="2.4" ry="2.4" style="stroke:#038048;stroke-width:0.8000000000000002;"/><text fill="#000000" font-family="sans-serif" font-size="11.2" lengthAdjust="spacing" textLength="360.8" x="615.6" y="538.9938">JobInterview(createdOn, time, score, result, application, interviewModel)</text><ellipse cx="608.4" cy="550.4531" fill="#84BE84" rx="2.4" ry="2.4" style="stroke:#038048;stroke-width:0.8000000000000002;"/><text fill="#000000" font-family="sans-serif" font-size="11.2" lengthAdjust="spacing" textLength="44" x="615.6" y="553.8906">identity()</text><ellipse cx="608.4" cy="565.35" fill="#84BE84" rx="2.4" ry="2.4" style="stroke:#038048;stroke-width:0.8000000000000002;"/><text fill="#000000" font-family="sans-serif" font-size="11.2" lengthAdjust="spacing" textLength="61.6" x="615.6" y="568.7875">createdOn()</text><ellipse cx="608.4" cy="580.2469" fill="#84BE84" rx="2.4" ry="2.4" style="stroke:#038048;stroke-width:0.8000000000000002;"/><text fill="#000000" font-family="sans-serif" font-size="11.2" lengthAdjust="spacing" textLength="28.8" x="615.6" y="583.6844">time()</text><ellipse cx="608.4" cy="595.1438" fill="#84BE84" rx="2.4" ry="2.4" style="stroke:#038048;stroke-width:0.8000000000000002;"/><text fill="#000000" font-family="sans-serif" font-size="11.2" lengthAdjust="spacing" textLength="36" x="615.6" y="598.5813">score()</text><ellipse cx="608.4" cy="610.0406" fill="#84BE84" rx="2.4" ry="2.4" style="stroke:#038048;stroke-width:0.8000000000000002;"/><text fill="#000000" font-family="sans-serif" font-size="11.2" lengthAdjust="spacing" textLength="36" x="615.6" y="613.4781">result()</text><ellipse cx="608.4" cy="624.9375" fill="#84BE84" rx="2.4" ry="2.4" style="stroke:#038048;stroke-width:0.8000000000000002;"/><text fill="#000000" font-family="sans-serif" font-size="11.2" lengthAdjust="spacing" textLength="62.4" x="615.6" y="628.375">application()</text><ellipse cx="608.4" cy="639.8344" fill="#84BE84" rx="2.4" ry="2.4" style="stroke:#038048;stroke-width:0.8000000000000002;"/><text fill="#000000" font-family="sans-serif" font-size="11.2" lengthAdjust="spacing" textLength="82.4" x="615.6" y="643.2719">interviewModel()</text><ellipse cx="608.4" cy="654.7313" fill="#84BE84" rx="2.4" ry="2.4" style="stroke:#038048;stroke-width:0.8000000000000002;"/><text fill="#000000" font-family="sans-serif" font-size="11.2" lengthAdjust="spacing" textLength="248" x="615.6" y="658.1688">changeInterviewModel(interviewModelToChange)</text><ellipse cx="608.4" cy="669.6281" fill="#84BE84" rx="2.4" ry="2.4" style="stroke:#038048;stroke-width:0.8000000000000002;"/><text fill="#000000" font-family="sans-serif" font-size="11.2" lengthAdjust="spacing" textLength="60" x="615.6" y="673.0656">hashCode()</text><ellipse cx="608.4" cy="684.525" fill="#84BE84" rx="2.4" ry="2.4" style="stroke:#038048;stroke-width:0.8000000000000002;"/><text fill="#000000" font-family="sans-serif" font-size="11.2" lengthAdjust="spacing" textLength="107.2" x="615.6" y="687.9625">sameAs(otherObject)</text><ellipse cx="608.4" cy="699.4219" fill="#84BE84" rx="2.4" ry="2.4" style="stroke:#038048;stroke-width:0.8000000000000002;"/><text fill="#000000" font-family="sans-serif" font-size="11.2" lengthAdjust="spacing" textLength="100.8" x="615.6" y="702.8594">equals(jobInterview)</text></g><!--class Application--><g id="elem_Application"><rect codeLine="48" fill="#FFFFFF" height="261.8531" id="Application" rx="2" ry="2" style="stroke:#000000;stroke-width:0.4000000000000001;" width="431.2" x="18" y="771.7078"/><ellipse cx="202.6" cy="784.5078" fill="#ADD1B2" rx="8.8" ry="8.8" style="stroke:#181818;stroke-width:0.8000000000000002;"/><path d="M204.8125,781.2078 Q204.9375,781.0328 205.0875,780.9453 Q205.2375,780.8578 205.4125,780.8578 Q205.7125,780.8578 205.9,781.0703 Q206.0875,781.2703 206.0875,781.7578 L206.0875,782.9203 Q206.0875,783.4078 205.9,783.6203 Q205.7125,783.8328 205.4125,783.8328 Q205.1375,783.8328 204.975,783.6703 Q204.8125,783.5203 204.725,783.1078 Q204.6875,782.8203 204.5375,782.6703 Q204.275,782.3703 203.7875,782.1953 Q203.3,782.0203 202.8,782.0203 Q202.1875,782.0203 201.675,782.2828 Q201.175,782.5453 200.775,783.1453 Q200.3875,783.7453 200.3875,784.5703 L200.3875,785.4453 Q200.3875,786.4328 201.1,787.0953 Q201.8125,787.7453 203.0875,787.7453 Q203.8375,787.7453 204.3625,787.5453 Q204.675,787.4203 205.0125,787.0703 Q205.225,786.8578 205.3375,786.7953 Q205.4625,786.7328 205.625,786.7328 Q205.8875,786.7328 206.0875,786.9453 Q206.3,787.1453 206.3,787.4203 Q206.3,787.6953 206.025,788.0203 Q205.625,788.4828 204.9875,788.7453 Q204.125,789.1078 203.0875,789.1078 Q201.875,789.1078 200.9125,788.6078 Q200.125,788.2078 199.575,787.3578 Q199.025,786.4953 199.025,785.4703 L199.025,784.5453 Q199.025,783.4828 199.5125,782.5703 Q200.0125,781.6453 200.8875,781.1578 Q201.7625,780.6578 202.75,780.6578 Q203.3375,780.6578 203.85,780.7953 Q204.375,780.9203 204.8125,781.2078 Z " fill="#000000"/><text fill="#000000" font-family="sans-serif" font-size="11.2" lengthAdjust="spacing" textLength="55.2" x="219" y="789.1453">Application</text><line style="stroke:#000000;stroke-width:0.4000000000000001;" x1="18.8" x2="448.4" y1="797.3078" y2="797.3078"/><line style="stroke:#000000;stroke-width:0.4000000000000001;" x1="18.8" x2="448.4" y1="803.7078" y2="803.7078"/><ellipse cx="26.8" cy="815.5563" fill="#84BE84" rx="2.4" ry="2.4" style="stroke:#038048;stroke-width:0.8000000000000002;"/><text fill="#000000" font-family="sans-serif" font-size="11.2" lengthAdjust="spacing" textLength="410.4" x="34" y="818.9938">Application(rank, createdOn, applicationFiles, jobReference, candidate, operator)</text><ellipse cx="26.8" cy="830.4531" fill="#84BE84" rx="2.4" ry="2.4" style="stroke:#038048;stroke-width:0.8000000000000002;"/><text fill="#000000" font-family="sans-serif" font-size="11.2" lengthAdjust="spacing" textLength="129.6" x="34" y="833.8906">sameAs(otherApplication)</text><ellipse cx="26.8" cy="845.35" fill="#84BE84" rx="2.4" ry="2.4" style="stroke:#038048;stroke-width:0.8000000000000002;"/><text fill="#000000" font-family="sans-serif" font-size="11.2" lengthAdjust="spacing" textLength="123.2" x="34" y="848.7875">equals(otherApplication)</text><ellipse cx="26.8" cy="860.2469" fill="#84BE84" rx="2.4" ry="2.4" style="stroke:#038048;stroke-width:0.8000000000000002;"/><text fill="#000000" font-family="sans-serif" font-size="11.2" lengthAdjust="spacing" textLength="60" x="34" y="863.6844">hashCode()</text><ellipse cx="26.8" cy="875.1438" fill="#84BE84" rx="2.4" ry="2.4" style="stroke:#038048;stroke-width:0.8000000000000002;"/><text fill="#000000" font-family="sans-serif" font-size="11.2" lengthAdjust="spacing" textLength="147.2" x="34" y="878.5813">compareTo(otherApplication)</text><ellipse cx="26.8" cy="890.0406" fill="#84BE84" rx="2.4" ry="2.4" style="stroke:#038048;stroke-width:0.8000000000000002;"/><text fill="#000000" font-family="sans-serif" font-size="11.2" lengthAdjust="spacing" textLength="44" x="34" y="893.4781">identity()</text><ellipse cx="26.8" cy="904.9375" fill="#84BE84" rx="2.4" ry="2.4" style="stroke:#038048;stroke-width:0.8000000000000002;"/><text fill="#000000" font-family="sans-serif" font-size="11.2" lengthAdjust="spacing" textLength="30.4" x="34" y="908.375">rank()</text><ellipse cx="26.8" cy="919.8344" fill="#84BE84" rx="2.4" ry="2.4" style="stroke:#038048;stroke-width:0.8000000000000002;"/><text fill="#000000" font-family="sans-serif" font-size="11.2" lengthAdjust="spacing" textLength="88" x="34" y="923.2719">submissionDate()</text><ellipse cx="26.8" cy="934.7313" fill="#84BE84" rx="2.4" ry="2.4" style="stroke:#038048;stroke-width:0.8000000000000002;"/><text fill="#000000" font-family="sans-serif" font-size="11.2" lengthAdjust="spacing" textLength="38.4" x="34" y="938.1688">status()</text><ellipse cx="26.8" cy="949.6281" fill="#84BE84" rx="2.4" ry="2.4" style="stroke:#038048;stroke-width:0.8000000000000002;"/><text fill="#000000" font-family="sans-serif" font-size="11.2" lengthAdjust="spacing" textLength="48.8" x="34" y="953.0656">dataFile()</text><ellipse cx="26.8" cy="964.525" fill="#84BE84" rx="2.4" ry="2.4" style="stroke:#038048;stroke-width:0.8000000000000002;"/><text fill="#000000" font-family="sans-serif" font-size="11.2" lengthAdjust="spacing" textLength="51.2" x="34" y="967.9625">operator()</text><ellipse cx="26.8" cy="979.4219" fill="#84BE84" rx="2.4" ry="2.4" style="stroke:#038048;stroke-width:0.8000000000000002;"/><text fill="#000000" font-family="sans-serif" font-size="11.2" lengthAdjust="spacing" textLength="57.6" x="34" y="982.8594">candidate()</text><ellipse cx="26.8" cy="994.3188" fill="#84BE84" rx="2.4" ry="2.4" style="stroke:#038048;stroke-width:0.8000000000000002;"/><text fill="#000000" font-family="sans-serif" font-size="11.2" lengthAdjust="spacing" textLength="76" x="34" y="997.7563">jobReference()</text><ellipse cx="26.8" cy="1009.2156" fill="#84BE84" rx="2.4" ry="2.4" style="stroke:#038048;stroke-width:0.8000000000000002;"/><text fill="#000000" font-family="sans-serif" font-size="11.2" lengthAdjust="spacing" textLength="92" x="34" y="1012.6531">updateRank(rank)</text><ellipse cx="26.8" cy="1024.1125" fill="#84BE84" rx="2.4" ry="2.4" style="stroke:#038048;stroke-width:0.8000000000000002;"/><text fill="#000000" font-family="sans-serif" font-size="11.2" lengthAdjust="spacing" textLength="47.2" x="34" y="1027.55">toString()</text></g><!--class InterviewModel--><g id="elem_InterviewModel"><rect codeLine="67" fill="#FFFFFF" height="112.8844" id="InterviewModel" rx="2" ry="2" style="stroke:#000000;stroke-width:0.4000000000000001;" width="152" x="477.6" y="846.1078"/><ellipse cx="513" cy="858.9078" fill="#ADD1B2" rx="8.8" ry="8.8" style="stroke:#181818;stroke-width:0.8000000000000002;"/><path d="M515.2125,855.6078 Q515.3375,855.4328 515.4875,855.3453 Q515.6375,855.2578 515.8125,855.2578 Q516.1125,855.2578 516.3,855.4703 Q516.4875,855.6703 516.4875,856.1578 L516.4875,857.3203 Q516.4875,857.8078 516.3,858.0203 Q516.1125,858.2328 515.8125,858.2328 Q515.5375,858.2328 515.375,858.0703 Q515.2125,857.9203 515.125,857.5078 Q515.0875,857.2203 514.9375,857.0703 Q514.675,856.7703 514.1875,856.5953 Q513.7,856.4203 513.2,856.4203 Q512.5875,856.4203 512.075,856.6828 Q511.575,856.9453 511.175,857.5453 Q510.7875,858.1453 510.7875,858.9703 L510.7875,859.8453 Q510.7875,860.8328 511.5,861.4953 Q512.2125,862.1453 513.4875,862.1453 Q514.2375,862.1453 514.7625,861.9453 Q515.075,861.8203 515.4125,861.4703 Q515.625,861.2578 515.7375,861.1953 Q515.8625,861.1328 516.025,861.1328 Q516.2875,861.1328 516.4875,861.3453 Q516.7,861.5453 516.7,861.8203 Q516.7,862.0953 516.425,862.4203 Q516.025,862.8828 515.3875,863.1453 Q514.525,863.5078 513.4875,863.5078 Q512.275,863.5078 511.3125,863.0078 Q510.525,862.6078 509.975,861.7578 Q509.425,860.8953 509.425,859.8703 L509.425,858.9453 Q509.425,857.8828 509.9125,856.9703 Q510.4125,856.0453 511.2875,855.5578 Q512.1625,855.0578 513.15,855.0578 Q513.7375,855.0578 514.25,855.1953 Q514.775,855.3203 515.2125,855.6078 Z " fill="#000000"/><text fill="#000000" font-family="sans-serif" font-size="11.2" lengthAdjust="spacing" textLength="74.4" x="529.4" y="863.5453">InterviewModel</text><line style="stroke:#000000;stroke-width:0.4000000000000001;" x1="478.4" x2="628.8" y1="871.7078" y2="871.7078"/><line style="stroke:#000000;stroke-width:0.4000000000000001;" x1="478.4" x2="628.8" y1="878.1078" y2="878.1078"/><ellipse cx="486.4" cy="889.9563" fill="#84BE84" rx="2.4" ry="2.4" style="stroke:#038048;stroke-width:0.8000000000000002;"/><text fill="#000000" font-family="sans-serif" font-size="11.2" lengthAdjust="spacing" textLength="131.2" x="493.6" y="893.3938">InterviewModel(questions)</text><ellipse cx="486.4" cy="904.8531" fill="#84BE84" rx="2.4" ry="2.4" style="stroke:#038048;stroke-width:0.8000000000000002;"/><text fill="#000000" font-family="sans-serif" font-size="11.2" lengthAdjust="spacing" textLength="56.8" x="493.6" y="908.2906">questions()</text><ellipse cx="486.4" cy="919.75" fill="#84BE84" rx="2.4" ry="2.4" style="stroke:#038048;stroke-width:0.8000000000000002;"/><text fill="#000000" font-family="sans-serif" font-size="11.2" lengthAdjust="spacing" textLength="60" x="493.6" y="923.1875">hashCode()</text><ellipse cx="486.4" cy="934.6469" fill="#84BE84" rx="2.4" ry="2.4" style="stroke:#038048;stroke-width:0.8000000000000002;"/><text fill="#000000" font-family="sans-serif" font-size="11.2" lengthAdjust="spacing" textLength="107.2" x="493.6" y="938.0844">sameAs(otherObject)</text><ellipse cx="486.4" cy="949.5438" fill="#84BE84" rx="2.4" ry="2.4" style="stroke:#038048;stroke-width:0.8000000000000002;"/><text fill="#000000" font-family="sans-serif" font-size="11.2" lengthAdjust="spacing" textLength="116" x="493.6" y="952.9813">equals(interviewModel)</text></g><!--class InterviewAnswers--><g id="elem_InterviewAnswers"><rect codeLine="75" fill="#FFFFFF" height="112.8844" id="InterviewAnswers" rx="2" ry="2" style="stroke:#000000;stroke-width:0.4000000000000001;" width="152" x="657.6" y="846.1078"/><ellipse cx="687.6" cy="858.9078" fill="#ADD1B2" rx="8.8" ry="8.8" style="stroke:#181818;stroke-width:0.8000000000000002;"/><path d="M689.8125,855.6078 Q689.9375,855.4328 690.0875,855.3453 Q690.2375,855.2578 690.4125,855.2578 Q690.7125,855.2578 690.9,855.4703 Q691.0875,855.6703 691.0875,856.1578 L691.0875,857.3203 Q691.0875,857.8078 690.9,858.0203 Q690.7125,858.2328 690.4125,858.2328 Q690.1375,858.2328 689.975,858.0703 Q689.8125,857.9203 689.725,857.5078 Q689.6875,857.2203 689.5375,857.0703 Q689.275,856.7703 688.7875,856.5953 Q688.3,856.4203 687.8,856.4203 Q687.1875,856.4203 686.675,856.6828 Q686.175,856.9453 685.775,857.5453 Q685.3875,858.1453 685.3875,858.9703 L685.3875,859.8453 Q685.3875,860.8328 686.1,861.4953 Q686.8125,862.1453 688.0875,862.1453 Q688.8375,862.1453 689.3625,861.9453 Q689.675,861.8203 690.0125,861.4703 Q690.225,861.2578 690.3375,861.1953 Q690.4625,861.1328 690.625,861.1328 Q690.8875,861.1328 691.0875,861.3453 Q691.3,861.5453 691.3,861.8203 Q691.3,862.0953 691.025,862.4203 Q690.625,862.8828 689.9875,863.1453 Q689.125,863.5078 688.0875,863.5078 Q686.875,863.5078 685.9125,863.0078 Q685.125,862.6078 684.575,861.7578 Q684.025,860.8953 684.025,859.8703 L684.025,858.9453 Q684.025,857.8828 684.5125,856.9703 Q685.0125,856.0453 685.8875,855.5578 Q686.7625,855.0578 687.75,855.0578 Q688.3375,855.0578 688.85,855.1953 Q689.375,855.3203 689.8125,855.6078 Z " fill="#000000"/><text fill="#000000" font-family="sans-serif" font-size="11.2" lengthAdjust="spacing" textLength="86.4" x="702.8" y="863.5453">InterviewAnswers</text><line style="stroke:#000000;stroke-width:0.4000000000000001;" x1="658.4" x2="808.8" y1="871.7078" y2="871.7078"/><line style="stroke:#000000;stroke-width:0.4000000000000001;" x1="658.4" x2="808.8" y1="878.1078" y2="878.1078"/><ellipse cx="666.4" cy="889.9563" fill="#84BE84" rx="2.4" ry="2.4" style="stroke:#038048;stroke-width:0.8000000000000002;"/><text fill="#000000" font-family="sans-serif" font-size="11.2" lengthAdjust="spacing" textLength="131.2" x="673.6" y="893.3938">InterviewModel(questions)</text><ellipse cx="666.4" cy="904.8531" fill="#84BE84" rx="2.4" ry="2.4" style="stroke:#038048;stroke-width:0.8000000000000002;"/><text fill="#000000" font-family="sans-serif" font-size="11.2" lengthAdjust="spacing" textLength="56.8" x="673.6" y="908.2906">questions()</text><ellipse cx="666.4" cy="919.75" fill="#84BE84" rx="2.4" ry="2.4" style="stroke:#038048;stroke-width:0.8000000000000002;"/><text fill="#000000" font-family="sans-serif" font-size="11.2" lengthAdjust="spacing" textLength="60" x="673.6" y="923.1875">hashCode()</text><ellipse cx="666.4" cy="934.6469" fill="#84BE84" rx="2.4" ry="2.4" style="stroke:#038048;stroke-width:0.8000000000000002;"/><text fill="#000000" font-family="sans-serif" font-size="11.2" lengthAdjust="spacing" textLength="107.2" x="673.6" y="938.0844">sameAs(otherObject)</text><ellipse cx="666.4" cy="949.5438" fill="#84BE84" rx="2.4" ry="2.4" style="stroke:#038048;stroke-width:0.8000000000000002;"/><text fill="#000000" font-family="sans-serif" font-size="11.2" lengthAdjust="spacing" textLength="116" x="673.6" y="952.9813">equals(interviewModel)</text></g><!--class Result--><g id="elem_Result"><rect codeLine="83" fill="#FFFFFF" height="112.8844" id="Result" rx="2" ry="2" style="stroke:#000000;stroke-width:0.4000000000000001;" width="152" x="837.6" y="846.1078"/><ellipse cx="894.2" cy="858.9078" fill="#ADD1B2" rx="8.8" ry="8.8" style="stroke:#181818;stroke-width:0.8000000000000002;"/><path d="M896.4125,855.6078 Q896.5375,855.4328 896.6875,855.3453 Q896.8375,855.2578 897.0125,855.2578 Q897.3125,855.2578 897.5,855.4703 Q897.6875,855.6703 897.6875,856.1578 L897.6875,857.3203 Q897.6875,857.8078 897.5,858.0203 Q897.3125,858.2328 897.0125,858.2328 Q896.7375,858.2328 896.575,858.0703 Q896.4125,857.9203 896.325,857.5078 Q896.2875,857.2203 896.1375,857.0703 Q895.875,856.7703 895.3875,856.5953 Q894.9,856.4203 894.4,856.4203 Q893.7875,856.4203 893.275,856.6828 Q892.775,856.9453 892.375,857.5453 Q891.9875,858.1453 891.9875,858.9703 L891.9875,859.8453 Q891.9875,860.8328 892.7,861.4953 Q893.4125,862.1453 894.6875,862.1453 Q895.4375,862.1453 895.9625,861.9453 Q896.275,861.8203 896.6125,861.4703 Q896.825,861.2578 896.9375,861.1953 Q897.0625,861.1328 897.225,861.1328 Q897.4875,861.1328 897.6875,861.3453 Q897.9,861.5453 897.9,861.8203 Q897.9,862.0953 897.625,862.4203 Q897.225,862.8828 896.5875,863.1453 Q895.725,863.5078 894.6875,863.5078 Q893.475,863.5078 892.5125,863.0078 Q891.725,862.6078 891.175,861.7578 Q890.625,860.8953 890.625,859.8703 L890.625,858.9453 Q890.625,857.8828 891.1125,856.9703 Q891.6125,856.0453 892.4875,855.5578 Q893.3625,855.0578 894.35,855.0578 Q894.9375,855.0578 895.45,855.1953 Q895.975,855.3203 896.4125,855.6078 Z " fill="#000000"/><text fill="#000000" font-family="sans-serif" font-size="11.2" lengthAdjust="spacing" textLength="32" x="910.6" y="863.5453">Result</text><line style="stroke:#000000;stroke-width:0.4000000000000001;" x1="838.4" x2="988.8" y1="871.7078" y2="871.7078"/><line style="stroke:#000000;stroke-width:0.4000000000000001;" x1="838.4" x2="988.8" y1="878.1078" y2="878.1078"/><ellipse cx="846.4" cy="889.9563" fill="#84BE84" rx="2.4" ry="2.4" style="stroke:#038048;stroke-width:0.8000000000000002;"/><text fill="#000000" font-family="sans-serif" font-size="11.2" lengthAdjust="spacing" textLength="131.2" x="853.6" y="893.3938">InterviewModel(questions)</text><ellipse cx="846.4" cy="904.8531" fill="#84BE84" rx="2.4" ry="2.4" style="stroke:#038048;stroke-width:0.8000000000000002;"/><text fill="#000000" font-family="sans-serif" font-size="11.2" lengthAdjust="spacing" textLength="56.8" x="853.6" y="908.2906">questions()</text><ellipse cx="846.4" cy="919.75" fill="#84BE84" rx="2.4" ry="2.4" style="stroke:#038048;stroke-width:0.8000000000000002;"/><text fill="#000000" font-family="sans-serif" font-size="11.2" lengthAdjust="spacing" textLength="60" x="853.6" y="923.1875">hashCode()</text><ellipse cx="846.4" cy="934.6469" fill="#84BE84" rx="2.4" ry="2.4" style="stroke:#038048;stroke-width:0.8000000000000002;"/><text fill="#000000" font-family="sans-serif" font-size="11.2" lengthAdjust="spacing" textLength="107.2" x="853.6" y="938.0844">sameAs(otherObject)</text><ellipse cx="846.4" cy="949.5438" fill="#84BE84" rx="2.4" ry="2.4" style="stroke:#038048;stroke-width:0.8000000000000002;"/><text fill="#000000" font-family="sans-serif" font-size="11.2" lengthAdjust="spacing" textLength="116" x="853.6" y="952.9813">equals(interviewModel)</text></g><!--class Score--><g id="elem_Score"><rect codeLine="91" fill="#FFFFFF" height="112.8844" id="Score" rx="2" ry="2" style="stroke:#000000;stroke-width:0.4000000000000001;" width="152" x="1017.6" y="846.1078"/><ellipse cx="1075.4" cy="858.9078" fill="#ADD1B2" rx="8.8" ry="8.8" style="stroke:#181818;stroke-width:0.8000000000000002;"/><path d="M1077.6125,855.6078 Q1077.7375,855.4328 1077.8875,855.3453 Q1078.0375,855.2578 1078.2125,855.2578 Q1078.5125,855.2578 1078.7,855.4703 Q1078.8875,855.6703 1078.8875,856.1578 L1078.8875,857.3203 Q1078.8875,857.8078 1078.7,858.0203 Q1078.5125,858.2328 1078.2125,858.2328 Q1077.9375,858.2328 1077.775,858.0703 Q1077.6125,857.9203 1077.525,857.5078 Q1077.4875,857.2203 1077.3375,857.0703 Q1077.075,856.7703 1076.5875,856.5953 Q1076.1,856.4203 1075.6,856.4203 Q1074.9875,856.4203 1074.475,856.6828 Q1073.975,856.9453 1073.575,857.5453 Q1073.1875,858.1453 1073.1875,858.9703 L1073.1875,859.8453 Q1073.1875,860.8328 1073.9,861.4953 Q1074.6125,862.1453 1075.8875,862.1453 Q1076.6375,862.1453 1077.1625,861.9453 Q1077.475,861.8203 1077.8125,861.4703 Q1078.025,861.2578 1078.1375,861.1953 Q1078.2625,861.1328 1078.425,861.1328 Q1078.6875,861.1328 1078.8875,861.3453 Q1079.1,861.5453 1079.1,861.8203 Q1079.1,862.0953 1078.825,862.4203 Q1078.425,862.8828 1077.7875,863.1453 Q1076.925,863.5078 1075.8875,863.5078 Q1074.675,863.5078 1073.7125,863.0078 Q1072.925,862.6078 1072.375,861.7578 Q1071.825,860.8953 1071.825,859.8703 L1071.825,858.9453 Q1071.825,857.8828 1072.3125,856.9703 Q1072.8125,856.0453 1073.6875,855.5578 Q1074.5625,855.0578 1075.55,855.0578 Q1076.1375,855.0578 1076.65,855.1953 Q1077.175,855.3203 1077.6125,855.6078 Z " fill="#000000"/><text fill="#000000" font-family="sans-serif" font-size="11.2" lengthAdjust="spacing" textLength="29.6" x="1091.8" y="863.5453">Score</text><line style="stroke:#000000;stroke-width:0.4000000000000001;" x1="1018.4" x2="1168.8" y1="871.7078" y2="871.7078"/><line style="stroke:#000000;stroke-width:0.4000000000000001;" x1="1018.4" x2="1168.8" y1="878.1078" y2="878.1078"/><ellipse cx="1026.4" cy="889.9563" fill="#84BE84" rx="2.4" ry="2.4" style="stroke:#038048;stroke-width:0.8000000000000002;"/><text fill="#000000" font-family="sans-serif" font-size="11.2" lengthAdjust="spacing" textLength="131.2" x="1033.6" y="893.3938">InterviewModel(questions)</text><ellipse cx="1026.4" cy="904.8531" fill="#84BE84" rx="2.4" ry="2.4" style="stroke:#038048;stroke-width:0.8000000000000002;"/><text fill="#000000" font-family="sans-serif" font-size="11.2" lengthAdjust="spacing" textLength="56.8" x="1033.6" y="908.2906">questions()</text><ellipse cx="1026.4" cy="919.75" fill="#84BE84" rx="2.4" ry="2.4" style="stroke:#038048;stroke-width:0.8000000000000002;"/><text fill="#000000" font-family="sans-serif" font-size="11.2" lengthAdjust="spacing" textLength="60" x="1033.6" y="923.1875">hashCode()</text><ellipse cx="1026.4" cy="934.6469" fill="#84BE84" rx="2.4" ry="2.4" style="stroke:#038048;stroke-width:0.8000000000000002;"/><text fill="#000000" font-family="sans-serif" font-size="11.2" lengthAdjust="spacing" textLength="107.2" x="1033.6" y="938.0844">sameAs(otherObject)</text><ellipse cx="1026.4" cy="949.5438" fill="#84BE84" rx="2.4" ry="2.4" style="stroke:#038048;stroke-width:0.8000000000000002;"/><text fill="#000000" font-family="sans-serif" font-size="11.2" lengthAdjust="spacing" textLength="116" x="1033.6" y="952.9813">equals(interviewModel)</text></g><!--class Time--><g id="elem_Time"><rect codeLine="99" fill="#FFFFFF" height="112.8844" id="Time" rx="2" ry="2" style="stroke:#000000;stroke-width:0.4000000000000001;" width="152" x="1197.6" y="846.1078"/><ellipse cx="1257.8" cy="858.9078" fill="#ADD1B2" rx="8.8" ry="8.8" style="stroke:#181818;stroke-width:0.8000000000000002;"/><path d="M1260.0125,855.6078 Q1260.1375,855.4328 1260.2875,855.3453 Q1260.4375,855.2578 1260.6125,855.2578 Q1260.9125,855.2578 1261.1,855.4703 Q1261.2875,855.6703 1261.2875,856.1578 L1261.2875,857.3203 Q1261.2875,857.8078 1261.1,858.0203 Q1260.9125,858.2328 1260.6125,858.2328 Q1260.3375,858.2328 1260.175,858.0703 Q1260.0125,857.9203 1259.925,857.5078 Q1259.8875,857.2203 1259.7375,857.0703 Q1259.475,856.7703 1258.9875,856.5953 Q1258.5,856.4203 1258,856.4203 Q1257.3875,856.4203 1256.875,856.6828 Q1256.375,856.9453 1255.975,857.5453 Q1255.5875,858.1453 1255.5875,858.9703 L1255.5875,859.8453 Q1255.5875,860.8328 1256.3,861.4953 Q1257.0125,862.1453 1258.2875,862.1453 Q1259.0375,862.1453 1259.5625,861.9453 Q1259.875,861.8203 1260.2125,861.4703 Q1260.425,861.2578 1260.5375,861.1953 Q1260.6625,861.1328 1260.825,861.1328 Q1261.0875,861.1328 1261.2875,861.3453 Q1261.5,861.5453 1261.5,861.8203 Q1261.5,862.0953 1261.225,862.4203 Q1260.825,862.8828 1260.1875,863.1453 Q1259.325,863.5078 1258.2875,863.5078 Q1257.075,863.5078 1256.1125,863.0078 Q1255.325,862.6078 1254.775,861.7578 Q1254.225,860.8953 1254.225,859.8703 L1254.225,858.9453 Q1254.225,857.8828 1254.7125,856.9703 Q1255.2125,856.0453 1256.0875,855.5578 Q1256.9625,855.0578 1257.95,855.0578 Q1258.5375,855.0578 1259.05,855.1953 Q1259.575,855.3203 1260.0125,855.6078 Z " fill="#000000"/><text fill="#000000" font-family="sans-serif" font-size="11.2" lengthAdjust="spacing" textLength="24.8" x="1274.2" y="863.5453">Time</text><line style="stroke:#000000;stroke-width:0.4000000000000001;" x1="1198.4" x2="1348.8" y1="871.7078" y2="871.7078"/><line style="stroke:#000000;stroke-width:0.4000000000000001;" x1="1198.4" x2="1348.8" y1="878.1078" y2="878.1078"/><ellipse cx="1206.4" cy="889.9563" fill="#84BE84" rx="2.4" ry="2.4" style="stroke:#038048;stroke-width:0.8000000000000002;"/><text fill="#000000" font-family="sans-serif" font-size="11.2" lengthAdjust="spacing" textLength="131.2" x="1213.6" y="893.3938">InterviewModel(questions)</text><ellipse cx="1206.4" cy="904.8531" fill="#84BE84" rx="2.4" ry="2.4" style="stroke:#038048;stroke-width:0.8000000000000002;"/><text fill="#000000" font-family="sans-serif" font-size="11.2" lengthAdjust="spacing" textLength="56.8" x="1213.6" y="908.2906">questions()</text><ellipse cx="1206.4" cy="919.75" fill="#84BE84" rx="2.4" ry="2.4" style="stroke:#038048;stroke-width:0.8000000000000002;"/><text fill="#000000" font-family="sans-serif" font-size="11.2" lengthAdjust="spacing" textLength="60" x="1213.6" y="923.1875">hashCode()</text><ellipse cx="1206.4" cy="934.6469" fill="#84BE84" rx="2.4" ry="2.4" style="stroke:#038048;stroke-width:0.8000000000000002;"/><text fill="#000000" font-family="sans-serif" font-size="11.2" lengthAdjust="spacing" textLength="107.2" x="1213.6" y="938.0844">sameAs(otherObject)</text><ellipse cx="1206.4" cy="949.5438" fill="#84BE84" rx="2.4" ry="2.4" style="stroke:#038048;stroke-width:0.8000000000000002;"/><text fill="#000000" font-family="sans-serif" font-size="11.2" lengthAdjust="spacing" textLength="116" x="1213.6" y="952.9813">equals(interviewModel)</text></g><!--link UploadResponsesUI to UploadResponsesController--><g id="link_UploadResponsesUI_UploadResponsesController"><path codeLine="109" d="M790.4,134.3878 C790.4,154.8358 790.4,176.3158 790.4,197.9958 " fill="none" id="UploadResponsesUI-to-UploadResponsesController" style="stroke:#000000;stroke-width:0.8000000000000002;"/><polygon fill="#000000" points="790.4,202.7958,793.6,195.5958,790.4,198.7958,787.2,195.5958,790.4,202.7958" style="stroke:#000000;stroke-width:0.8000000000000002;"/></g><!--link UploadResponsesController to JobInterviewRepository--><g id="link_UploadResponsesController_JobInterviewRepository"><path codeLine="111" d="M790.4,286.3638 C790.4,308.5798 790.4,330.5558 790.4,349.9318 " fill="none" id="UploadResponsesController-to-JobInterviewRepository" style="stroke:#000000;stroke-width:0.8000000000000002;"/><polygon fill="#000000" points="790.4,354.7318,793.6,347.5318,790.4,350.7318,787.2,347.5318,790.4,354.7318" style="stroke:#000000;stroke-width:0.8000000000000002;"/></g><!--link JobInterviewRepository to JobInterview--><g id="link_JobInterviewRepository_JobInterview"><path codeLine="113" d="M790.4,408.6598 C790.4,429.6598 790.4,455.8598 790.4,486.7878 " fill="none" id="JobInterviewRepository-to-JobInterview" style="stroke:#000000;stroke-width:0.8000000000000002;"/><polygon fill="#000000" points="790.4,491.5878,793.6,484.3878,790.4,487.5878,787.2,484.3878,790.4,491.5878" style="stroke:#000000;stroke-width:0.8000000000000002;"/><text fill="#000000" font-family="sans-serif" font-size="10.4" lengthAdjust="spacing" textLength="28.8" x="791.2" y="446.1305">stores</text></g><!--link JobInterview to Application--><g id="link_JobInterview_Application"><path codeLine="115" d="M599.44,699.8918 C555.112,723.2038 508.2,748.1318 464.8,771.7078 C459.744,774.4518 458.8331,774.9366 453.6811,777.7606 " fill="none" id="JobInterview-to-Application" style="stroke:#000000;stroke-width:0.8000000000000002;"/><polygon fill="#000000" points="449.472,780.0678,457.3238,779.4131,452.9796,778.1452,454.2476,773.8009,449.472,780.0678" style="stroke:#000000;stroke-width:0.8000000000000002;"/><text fill="#000000" font-family="sans-serif" font-size="10.4" lengthAdjust="spacing" textLength="62.4" x="536" y="744.5305">associated to</text></g><!--link JobInterview to InterviewModel--><g id="link_JobInterview_InterviewModel"><path codeLine="116" d="M695.2,708.6518 C677.792,729.2838 660.064,750.9318 644,771.7078 C625.672,795.4118 609.275,818.536 593.371,841.824 " fill="none" id="JobInterview-to-InterviewModel" style="stroke:#000000;stroke-width:0.8000000000000002;"/><polygon fill="#000000" points="590.664,845.7878,597.3671,841.6467,592.9198,842.4846,592.082,838.0374,590.664,845.7878" style="stroke:#000000;stroke-width:0.8000000000000002;"/><text fill="#000000" font-family="sans-serif" font-size="10.4" lengthAdjust="spacing" textLength="16.8" x="675.2" y="744.5305">has</text></g><!--link JobInterview to InterviewAnswers--><g id="link_JobInterview_InterviewAnswers"><path codeLine="117" d="M770.056,708.6518 C761.288,755.0998 752.2907,802.7352 745.0267,841.1992 " fill="none" id="JobInterview-to-InterviewAnswers" style="stroke:#000000;stroke-width:0.8000000000000002;"/><polygon fill="#000000" points="744.136,845.9158,748.6165,839.4347,744.8783,841.9853,742.3277,838.247,744.136,845.9158" style="stroke:#000000;stroke-width:0.8000000000000002;"/><text fill="#000000" font-family="sans-serif" font-size="10.4" lengthAdjust="spacing" textLength="16.8" x="765.6" y="744.5305">has</text></g><!--link JobInterview to Result--><g id="link_JobInterview_Result"><path codeLine="118" d="M834.528,708.6518 C853.552,755.0998 873.1809,803.0099 888.9329,841.4739 " fill="none" id="JobInterview-to-Result" style="stroke:#000000;stroke-width:0.8000000000000002;"/><polygon fill="#000000" points="890.752,845.9158,890.9847,838.0402,889.2361,842.2142,885.0621,840.4656,890.752,845.9158" style="stroke:#000000;stroke-width:0.8000000000000002;"/><text fill="#000000" font-family="sans-serif" font-size="10.4" lengthAdjust="spacing" textLength="16.8" x="848.8" y="744.5305">has</text></g><!--link JobInterview to Score--><g id="link_JobInterview_Score"><path codeLine="119" d="M937.08,708.6758 C960.512,728.5318 983.696,749.9078 1004,771.7078 C1024.92,794.1718 1042.0732,817.8425 1057.6892,841.8825 " fill="none" id="JobInterview-to-Score" style="stroke:#000000;stroke-width:0.8000000000000002;"/><polygon fill="#000000" points="1060.304,845.9078,1059.0654,838.1267,1058.125,842.5534,1053.6983,841.613,1060.304,845.9078" style="stroke:#000000;stroke-width:0.8000000000000002;"/><text fill="#000000" font-family="sans-serif" font-size="10.4" lengthAdjust="spacing" textLength="16.8" x="978.4" y="744.5305">has</text></g><!--link JobInterview to Time--><g id="link_JobInterview_Time"><path codeLine="120" d="M981.384,659.0758 C1050.008,686.0678 1124.96,723.1398 1184,771.7078 C1208.664,791.9958 1226.947,816.6332 1242.259,841.9372 " fill="none" id="JobInterview-to-Time" style="stroke:#000000;stroke-width:0.8000000000000002;"/><polygon fill="#000000" points="1244.744,846.0438,1243.7542,838.2271,1242.6731,842.6216,1238.2787,841.5405,1244.744,846.0438" style="stroke:#000000;stroke-width:0.8000000000000002;"/><text fill="#000000" font-family="sans-serif" font-size="10.4" lengthAdjust="spacing" textLength="16.8" x="1147.2" y="744.5305">has</text></g><!--SRC=[rLPDZzem4BtdLrYSiceuLEg9GoKMj1ALgfM0LSyc6OWNuydQJX6jzhztdA_QILZsIYwGcV7ClEUNiSrHg89hVcAfvCQmln6Zvv6dnuF6KcKBbAZPhrnOg3nphV5S6nybHTNXg3FGVUiJAZjcsuW_mBv-YzwZQ2ki13PPLAMNWXzS8rFsKaZacL07jWPJe39Ws9xoSFO3TsobBEZV0iwJA2eeCJzGYaA30MMv5QWc3OeQKPsiI_IoQhpk-S8otEHuZXyyKmuyaq91OtntZNPrU558aTukio2W6gK47PJJbFj9I8WBRdE_w5weh0FsU5ajOz6-hPP-O1dMYNNxBs6lkEjIZFMkeK0ZB6e1fcs-ghBdAJXgkzNhDl8ITC-bx4BCA3qPdhZeCUCd3jBvZZWbQYnapofXLfmWOIP5JJ-4hvGsOHxn2Uku-OaPI9yUaP4AXBq4Ezhb3gokJ62eAWQMkdXWyle8x65BOVcSgmEime0mVekBAYZG8JVvWfnXZ_m4SnEZpK4_xruXjRuNtaekJJmc16z3vlyXUFjHP_1yiURgc31lOppiJiIrvDQm1mqgfRrAkSf4Hj49mm8q9m4zzFBx_Nkr-c4Da5jX8nGrbEE9fXfiyMQA4S4qUq_e1qPJxax26Cgp99X3DmsWqWpCH0clllg-esLfs7_BvC3ZCpvmbeLRitQTk_RxReiRgsciUkiQONGVi2-TYQUEMZcXXWVYwKdyhGJZA3VzFZf7_EaD_KZtWMIkZOO6w0YMkJ9dqEQ-qQohINNV63Pk_jutX2sTANU6e3l4XnUbwVJxzNlDO85tvN4Bn-yJKNJbdj5VmcOqJKaF9bnHnVa7s8mHxvWATqRHW1i6zsRMp97vGLGx3Qx4DT_P5M-ju2lEIXkrxny0]--></g></svg>