<?xml version="1.0" encoding="us-ascii" standalone="no"?><svg xmlns="http://www.w3.org/2000/svg" xmlns:xlink="http://www.w3.org/1999/xlink" contentStyleType="text/css" height="762px" preserveAspectRatio="none" style="width:1251px;height:762px;background:#FFFFFF;" version="1.1" viewBox="0 0 1251 762" width="1251px" zoomAndPan="magnify"><defs/><g><text fill="#000000" font-family="sans-serif" font-size="14" font-weight="bold" lengthAdjust="spacing" textLength="506" x="365.5" y="25.1074">Domain Model - Uploading a Text File with Responses to a Job Interview</text><!--cluster JobInterview Aggregate--><g id="cluster_JobInterview Aggregate"><rect fill="none" height="331" rx="2.5" ry="2.5" style="stroke:#000000;stroke-width:1.5;" width="324" x="921" y="46.6211"/><text fill="#000000" font-family="sans-serif" font-size="14" font-weight="bold" lengthAdjust="spacing" textLength="169" x="998.5" y="63.7285">JobInterview Aggregate</text></g><!--cluster Candidate Aggregate--><g id="cluster_Candidate Aggregate"><rect fill="none" height="175" rx="2.5" ry="2.5" style="stroke:#000000;stroke-width:1.5;" width="359" x="7" y="466.6211"/><text fill="#000000" font-family="sans-serif" font-size="14" font-weight="bold" lengthAdjust="spacing" textLength="148" x="112.5" y="483.7285">Candidate Aggregate</text></g><!--cluster User Aggregate--><g id="cluster_User Aggregate"><rect fill="none" height="331" rx="2.5" ry="2.5" style="stroke:#000000;stroke-width:1.5;" width="308" x="580" y="425.6211"/><text fill="#000000" font-family="sans-serif" font-size="14" font-weight="bold" lengthAdjust="spacing" textLength="110" x="679" y="442.7285">User Aggregate</text></g><!--cluster Interview Model Aggregate--><g id="cluster_Interview Model Aggregate"><rect fill="none" height="123" rx="2.5" ry="2.5" style="stroke:#000000;stroke-width:1.5;" width="335" x="553" y="235.6211"/><text fill="#000000" font-family="sans-serif" font-size="14" font-weight="bold" lengthAdjust="spacing" textLength="191" x="625" y="252.7285">Interview Model Aggregate</text></g><!--cluster ANTLR Service Aggregate--><g id="cluster_ANTLR Service Aggregate"><rect fill="none" height="123" rx="2.5" ry="2.5" style="stroke:#000000;stroke-width:1.5;" width="196" x="184" y="172.6211"/><text fill="#000000" font-family="sans-serif" font-size="14" font-weight="bold" lengthAdjust="spacing" textLength="180" x="192" y="189.7285">ANTLR Service Aggregate</text></g><!--cluster Language Engineer Aggregate--><g id="cluster_Language Engineer Aggregate"><rect fill="none" height="123" rx="2.5" ry="2.5" style="stroke:#000000;stroke-width:1.5;" width="230" x="167" y="319.6211"/><text fill="#000000" font-family="sans-serif" font-size="14" font-weight="bold" lengthAdjust="spacing" textLength="214" x="175" y="336.7285">Language Engineer Aggregate</text></g><!--class JobInterview--><g id="elem_JobInterview"><rect codeLine="25" fill="#F0FFFF" height="68.543" id="JobInterview" rx="2.5" ry="2.5" style="stroke:#000000;stroke-width:0.5;" width="109" x="937" y="188.1211"/><ellipse cx="952" cy="218.3926" fill="#ADD1B2" rx="11" ry="11" style="stroke:#181818;stroke-width:1.0;"/><path d="M950.8594,219.1895 L950.8594,221.6895 L955.1875,221.6895 L955.1875,220.7676 Q955.1875,220.1582 955.4219,219.8926 Q955.6719,219.627 956.0469,219.627 Q956.4219,219.627 956.6563,219.8926 Q956.8906,220.1582 956.8906,220.7676 L956.8906,223.3926 L948.8906,223.3926 Q948.2656,223.3926 948,223.1582 Q947.75,222.9238 947.75,222.5332 Q947.75,222.1582 948.0156,221.9238 Q948.2813,221.6895 948.8906,221.6895 L949.1563,221.6895 L949.1563,215.0332 L948.8906,215.0332 Q948.2656,215.0332 948,214.7988 Q947.75,214.5645 947.75,214.1738 Q947.75,213.7988 948,213.5645 Q948.2656,213.3301 948.8906,213.3301 L956.5156,213.3301 L956.5156,215.9238 Q956.5156,216.5332 956.2813,216.7988 Q956.0625,217.0488 955.6719,217.0488 Q955.2969,217.0488 955.0625,216.7988 Q954.8281,216.5332 954.8281,215.9238 L954.8281,215.0332 L950.8594,215.0332 L950.8594,217.4863 L952.3438,217.4863 Q952.3438,216.8301 952.4688,216.6426 Q952.7344,216.2363 953.2031,216.2363 Q953.5781,216.2363 953.8125,216.502 Q954.0469,216.752 954.0469,217.3613 L954.0469,219.3301 Q954.0469,219.877 953.9219,220.0645 Q953.6563,220.4551 953.2031,220.4551 Q952.7344,220.4551 952.4688,220.0488 Q952.3438,219.8613 952.3438,219.1895 L950.8594,219.1895 Z " fill="#000000"/><text fill="#000000" font-family="sans-serif" font-size="12" font-style="italic" lengthAdjust="spacing" textLength="43" x="983" y="206.0703">&#171;entity&#187;</text><text fill="#000000" font-family="sans-serif" font-size="12" font-style="italic" lengthAdjust="spacing" textLength="35" x="987" y="222.0313">&#171;root&#187;</text><text fill="#000000" font-family="sans-serif" font-size="14" lengthAdjust="spacing" textLength="77" x="966" y="240.1504">JobInterview</text><line style="stroke:#000000;stroke-width:0.5;" x1="938" x2="1045" y1="248.6641" y2="248.6641"/></g><!--entity InterviewResults--><g id="elem_InterviewResults"><rect fill="#F0FFDD" height="43.2422" rx="2.5" ry="2.5" style="stroke:#000000;stroke-width:0.5;" width="122" x="1107" y="318.1211"/><text fill="#000000" font-family="sans-serif" font-size="14" font-style="italic" lengthAdjust="spacing" textLength="97" x="1119.5" y="336.2285">&#171;Value Object&#187;</text><text fill="#000000" font-family="sans-serif" font-size="14" lengthAdjust="spacing" textLength="102" x="1117" y="354.8496">InterviewResults</text></g><!--entity Score--><g id="elem_Score"><rect fill="#F0FFDD" height="43.2422" rx="2.5" ry="2.5" style="stroke:#000000;stroke-width:0.5;" width="117" x="1109.5" y="240.1211"/><text fill="#000000" font-family="sans-serif" font-size="14" font-style="italic" lengthAdjust="spacing" textLength="97" x="1119.5" y="258.2285">&#171;Value Object&#187;</text><text fill="#000000" font-family="sans-serif" font-size="14" lengthAdjust="spacing" textLength="37" x="1149.5" y="276.8496">Score</text></g><!--entity InterviewTime--><g id="elem_InterviewTime"><rect fill="#F0FFDD" height="43.2422" rx="2.5" ry="2.5" style="stroke:#000000;stroke-width:0.5;" width="117" x="1109.5" y="162.1211"/><text fill="#000000" font-family="sans-serif" font-size="14" font-style="italic" lengthAdjust="spacing" textLength="97" x="1119.5" y="180.2285">&#171;Value Object&#187;</text><text fill="#000000" font-family="sans-serif" font-size="14" lengthAdjust="spacing" textLength="86" x="1125" y="198.8496">InterviewTime</text></g><!--entity InterviewDate--><g id="elem_InterviewDate"><rect fill="#F0FFDD" height="43.2422" rx="2.5" ry="2.5" style="stroke:#000000;stroke-width:0.5;" width="117" x="1109.5" y="84.1211"/><text fill="#000000" font-family="sans-serif" font-size="14" font-style="italic" lengthAdjust="spacing" textLength="97" x="1119.5" y="102.2285">&#171;Value Object&#187;</text><text fill="#000000" font-family="sans-serif" font-size="14" lengthAdjust="spacing" textLength="85" x="1125.5" y="120.8496">InterviewDate</text></g><!--class Candidate--><g id="elem_Candidate"><rect codeLine="44" fill="#F0FFFF" height="68.543" id="Candidate" rx="2.5" ry="2.5" style="stroke:#000000;stroke-width:0.5;" width="97" x="23" y="556.1211"/><ellipse cx="38" cy="586.3926" fill="#ADD1B2" rx="11" ry="11" style="stroke:#181818;stroke-width:1.0;"/><path d="M36.8594,587.1895 L36.8594,589.6895 L41.1875,589.6895 L41.1875,588.7676 Q41.1875,588.1582 41.4219,587.8926 Q41.6719,587.627 42.0469,587.627 Q42.4219,587.627 42.6563,587.8926 Q42.8906,588.1582 42.8906,588.7676 L42.8906,591.3926 L34.8906,591.3926 Q34.2656,591.3926 34,591.1582 Q33.75,590.9238 33.75,590.5332 Q33.75,590.1582 34.0156,589.9238 Q34.2813,589.6895 34.8906,589.6895 L35.1563,589.6895 L35.1563,583.0332 L34.8906,583.0332 Q34.2656,583.0332 34,582.7988 Q33.75,582.5645 33.75,582.1738 Q33.75,581.7988 34,581.5645 Q34.2656,581.3301 34.8906,581.3301 L42.5156,581.3301 L42.5156,583.9238 Q42.5156,584.5332 42.2813,584.7988 Q42.0625,585.0488 41.6719,585.0488 Q41.2969,585.0488 41.0625,584.7988 Q40.8281,584.5332 40.8281,583.9238 L40.8281,583.0332 L36.8594,583.0332 L36.8594,585.4863 L38.3438,585.4863 Q38.3438,584.8301 38.4688,584.6426 Q38.7344,584.2363 39.2031,584.2363 Q39.5781,584.2363 39.8125,584.502 Q40.0469,584.752 40.0469,585.3613 L40.0469,587.3301 Q40.0469,587.877 39.9219,588.0645 Q39.6563,588.4551 39.2031,588.4551 Q38.7344,588.4551 38.4688,588.0488 Q38.3438,587.8613 38.3438,587.1895 L36.8594,587.1895 Z " fill="#000000"/><text fill="#000000" font-family="sans-serif" font-size="12" font-style="italic" lengthAdjust="spacing" textLength="43" x="63" y="574.0703">&#171;entity&#187;</text><text fill="#000000" font-family="sans-serif" font-size="12" font-style="italic" lengthAdjust="spacing" textLength="35" x="67" y="590.0313">&#171;root&#187;</text><text fill="#000000" font-family="sans-serif" font-size="14" lengthAdjust="spacing" textLength="65" x="52" y="608.1504">Candidate</text><line style="stroke:#000000;stroke-width:0.5;" x1="24" x2="119" y1="616.6641" y2="616.6641"/></g><!--entity Curriculum--><g id="elem_Curriculum"><rect fill="#F0FFDD" height="43.2422" rx="2.5" ry="2.5" style="stroke:#000000;stroke-width:0.5;" width="117" x="223" y="582.1211"/><text fill="#000000" font-family="sans-serif" font-size="14" font-style="italic" lengthAdjust="spacing" textLength="97" x="233" y="600.2285">&#171;Value Object&#187;</text><text fill="#000000" font-family="sans-serif" font-size="14" lengthAdjust="spacing" textLength="68" x="247.5" y="618.8496">Curriculum</text></g><!--entity TelephoneNumber--><g id="elem_TelephoneNumber"><rect fill="#F0FFDD" height="43.2422" rx="2.5" ry="2.5" style="stroke:#000000;stroke-width:0.5;" width="137" x="213" y="504.1211"/><text fill="#000000" font-family="sans-serif" font-size="14" font-style="italic" lengthAdjust="spacing" textLength="97" x="233" y="522.2285">&#171;Value Object&#187;</text><text fill="#000000" font-family="sans-serif" font-size="14" lengthAdjust="spacing" textLength="117" x="223" y="540.8496">TelephoneNumber</text></g><!--class User--><g id="elem_User"><rect codeLine="56" fill="#F0FFFF" height="68.543" id="User" rx="2.5" ry="2.5" style="stroke:#000000;stroke-width:0.5;" width="71" x="596" y="567.1211"/><ellipse cx="611" cy="597.3926" fill="#ADD1B2" rx="11" ry="11" style="stroke:#181818;stroke-width:1.0;"/><path d="M609.8594,598.1895 L609.8594,600.6895 L614.1875,600.6895 L614.1875,599.7676 Q614.1875,599.1582 614.4219,598.8926 Q614.6719,598.627 615.0469,598.627 Q615.4219,598.627 615.6563,598.8926 Q615.8906,599.1582 615.8906,599.7676 L615.8906,602.3926 L607.8906,602.3926 Q607.2656,602.3926 607,602.1582 Q606.75,601.9238 606.75,601.5332 Q606.75,601.1582 607.0156,600.9238 Q607.2813,600.6895 607.8906,600.6895 L608.1563,600.6895 L608.1563,594.0332 L607.8906,594.0332 Q607.2656,594.0332 607,593.7988 Q606.75,593.5645 606.75,593.1738 Q606.75,592.7988 607,592.5645 Q607.2656,592.3301 607.8906,592.3301 L615.5156,592.3301 L615.5156,594.9238 Q615.5156,595.5332 615.2813,595.7988 Q615.0625,596.0488 614.6719,596.0488 Q614.2969,596.0488 614.0625,595.7988 Q613.8281,595.5332 613.8281,594.9238 L613.8281,594.0332 L609.8594,594.0332 L609.8594,596.4863 L611.3438,596.4863 Q611.3438,595.8301 611.4688,595.6426 Q611.7344,595.2363 612.2031,595.2363 Q612.5781,595.2363 612.8125,595.502 Q613.0469,595.752 613.0469,596.3613 L613.0469,598.3301 Q613.0469,598.877 612.9219,599.0645 Q612.6563,599.4551 612.2031,599.4551 Q611.7344,599.4551 611.4688,599.0488 Q611.3438,598.8613 611.3438,598.1895 L609.8594,598.1895 Z " fill="#000000"/><text fill="#000000" font-family="sans-serif" font-size="12" font-style="italic" lengthAdjust="spacing" textLength="43" x="623" y="585.0703">&#171;entity&#187;</text><text fill="#000000" font-family="sans-serif" font-size="12" font-style="italic" lengthAdjust="spacing" textLength="35" x="627" y="601.0313">&#171;root&#187;</text><text fill="#000000" font-family="sans-serif" font-size="14" lengthAdjust="spacing" textLength="29" x="630" y="619.1504">User</text><line style="stroke:#000000;stroke-width:0.5;" x1="597" x2="666" y1="627.6641" y2="627.6641"/></g><!--entity UserEmail--><g id="elem_UserEmail"><rect fill="#F0FFDD" height="43.2422" rx="2.5" ry="2.5" style="stroke:#000000;stroke-width:0.5;" width="117" x="755" y="697.1211"/><text fill="#000000" font-family="sans-serif" font-size="14" font-style="italic" lengthAdjust="spacing" textLength="97" x="765" y="715.2285">&#171;Value Object&#187;</text><text fill="#000000" font-family="sans-serif" font-size="14" lengthAdjust="spacing" textLength="63" x="782" y="733.8496">UserEmail</text></g><!--entity UserName--><g id="elem_UserName"><rect fill="#F0FFDD" height="43.2422" rx="2.5" ry="2.5" style="stroke:#000000;stroke-width:0.5;" width="117" x="755" y="619.1211"/><text fill="#000000" font-family="sans-serif" font-size="14" font-style="italic" lengthAdjust="spacing" textLength="97" x="765" y="637.2285">&#171;Value Object&#187;</text><text fill="#000000" font-family="sans-serif" font-size="14" lengthAdjust="spacing" textLength="65" x="781" y="655.8496">UserName</text></g><!--entity UserPassword--><g id="elem_UserPassword"><rect fill="#F0FFDD" height="43.2422" rx="2.5" ry="2.5" style="stroke:#000000;stroke-width:0.5;" width="117" x="755" y="541.1211"/><text fill="#000000" font-family="sans-serif" font-size="14" font-style="italic" lengthAdjust="spacing" textLength="97" x="765" y="559.2285">&#171;Value Object&#187;</text><text fill="#000000" font-family="sans-serif" font-size="14" lengthAdjust="spacing" textLength="90" x="768.5" y="577.8496">UserPassword</text></g><!--entity Username--><g id="elem_Username"><rect fill="#F0FFDD" height="43.2422" rx="2.5" ry="2.5" style="stroke:#000000;stroke-width:0.5;" width="117" x="755" y="463.1211"/><text fill="#000000" font-family="sans-serif" font-size="14" font-style="italic" lengthAdjust="spacing" textLength="97" x="765" y="481.2285">&#171;Value Object&#187;</text><text fill="#000000" font-family="sans-serif" font-size="14" lengthAdjust="spacing" textLength="64" x="781.5" y="499.8496">Username</text></g><!--class InterviewModel--><g id="elem_InterviewModel"><rect codeLine="75" fill="#F0FFFF" height="68.543" id="InterviewModel" rx="2.5" ry="2.5" style="stroke:#000000;stroke-width:0.5;" width="125" x="569" y="273.1211"/><ellipse cx="584" cy="303.3926" fill="#ADD1B2" rx="11" ry="11" style="stroke:#181818;stroke-width:1.0;"/><path d="M582.8594,304.1895 L582.8594,306.6895 L587.1875,306.6895 L587.1875,305.7676 Q587.1875,305.1582 587.4219,304.8926 Q587.6719,304.627 588.0469,304.627 Q588.4219,304.627 588.6563,304.8926 Q588.8906,305.1582 588.8906,305.7676 L588.8906,308.3926 L580.8906,308.3926 Q580.2656,308.3926 580,308.1582 Q579.75,307.9238 579.75,307.5332 Q579.75,307.1582 580.0156,306.9238 Q580.2813,306.6895 580.8906,306.6895 L581.1563,306.6895 L581.1563,300.0332 L580.8906,300.0332 Q580.2656,300.0332 580,299.7988 Q579.75,299.5645 579.75,299.1738 Q579.75,298.7988 580,298.5645 Q580.2656,298.3301 580.8906,298.3301 L588.5156,298.3301 L588.5156,300.9238 Q588.5156,301.5332 588.2813,301.7988 Q588.0625,302.0488 587.6719,302.0488 Q587.2969,302.0488 587.0625,301.7988 Q586.8281,301.5332 586.8281,300.9238 L586.8281,300.0332 L582.8594,300.0332 L582.8594,302.4863 L584.3438,302.4863 Q584.3438,301.8301 584.4688,301.6426 Q584.7344,301.2363 585.2031,301.2363 Q585.5781,301.2363 585.8125,301.502 Q586.0469,301.752 586.0469,302.3613 L586.0469,304.3301 Q586.0469,304.877 585.9219,305.0645 Q585.6563,305.4551 585.2031,305.4551 Q584.7344,305.4551 584.4688,305.0488 Q584.3438,304.8613 584.3438,304.1895 L582.8594,304.1895 Z " fill="#000000"/><text fill="#000000" font-family="sans-serif" font-size="12" font-style="italic" lengthAdjust="spacing" textLength="43" x="623" y="291.0703">&#171;entity&#187;</text><text fill="#000000" font-family="sans-serif" font-size="12" font-style="italic" lengthAdjust="spacing" textLength="35" x="627" y="307.0313">&#171;root&#187;</text><text fill="#000000" font-family="sans-serif" font-size="14" lengthAdjust="spacing" textLength="93" x="598" y="325.1504">InterviewModel</text><line style="stroke:#000000;stroke-width:0.5;" x1="570" x2="693" y1="333.6641" y2="333.6641"/></g><!--entity Plugin--><g id="elem_Plugin"><rect fill="#F0FFDD" height="43.2422" rx="2.5" ry="2.5" style="stroke:#000000;stroke-width:0.5;" width="117" x="755" y="293.1211"/><text fill="#000000" font-family="sans-serif" font-size="14" font-style="italic" lengthAdjust="spacing" textLength="97" x="765" y="311.2285">&#171;Value Object&#187;</text><text fill="#000000" font-family="sans-serif" font-size="14" lengthAdjust="spacing" textLength="39" x="794" y="329.8496">Plugin</text></g><!--class ANTLR--><g id="elem_ANTLR"><rect codeLine="85" fill="#F0FFFF" height="68.543" id="ANTLR" rx="2.5" ry="2.5" style="stroke:#000000;stroke-width:0.5;" width="77" x="243" y="210.1211"/><ellipse cx="258" cy="240.3926" fill="#ADD1B2" rx="11" ry="11" style="stroke:#181818;stroke-width:1.0;"/><path d="M256.8594,241.1895 L256.8594,243.6895 L261.1875,243.6895 L261.1875,242.7676 Q261.1875,242.1582 261.4219,241.8926 Q261.6719,241.627 262.0469,241.627 Q262.4219,241.627 262.6563,241.8926 Q262.8906,242.1582 262.8906,242.7676 L262.8906,245.3926 L254.8906,245.3926 Q254.2656,245.3926 254,245.1582 Q253.75,244.9238 253.75,244.5332 Q253.75,244.1582 254.0156,243.9238 Q254.2813,243.6895 254.8906,243.6895 L255.1563,243.6895 L255.1563,237.0332 L254.8906,237.0332 Q254.2656,237.0332 254,236.7988 Q253.75,236.5645 253.75,236.1738 Q253.75,235.7988 254,235.5645 Q254.2656,235.3301 254.8906,235.3301 L262.5156,235.3301 L262.5156,237.9238 Q262.5156,238.5332 262.2813,238.7988 Q262.0625,239.0488 261.6719,239.0488 Q261.2969,239.0488 261.0625,238.7988 Q260.8281,238.5332 260.8281,237.9238 L260.8281,237.0332 L256.8594,237.0332 L256.8594,239.4863 L258.3438,239.4863 Q258.3438,238.8301 258.4688,238.6426 Q258.7344,238.2363 259.2031,238.2363 Q259.5781,238.2363 259.8125,238.502 Q260.0469,238.752 260.0469,239.3613 L260.0469,241.3301 Q260.0469,241.877 259.9219,242.0645 Q259.6563,242.4551 259.2031,242.4551 Q258.7344,242.4551 258.4688,242.0488 Q258.3438,241.8613 258.3438,241.1895 L256.8594,241.1895 Z " fill="#000000"/><text fill="#000000" font-family="sans-serif" font-size="12" font-style="italic" lengthAdjust="spacing" textLength="43" x="273" y="228.0703">&#171;entity&#187;</text><text fill="#000000" font-family="sans-serif" font-size="12" font-style="italic" lengthAdjust="spacing" textLength="35" x="277" y="244.0313">&#171;root&#187;</text><text fill="#000000" font-family="sans-serif" font-size="14" lengthAdjust="spacing" textLength="45" x="272" y="262.1504">ANTLR</text><line style="stroke:#000000;stroke-width:0.5;" x1="244" x2="319" y1="270.6641" y2="270.6641"/></g><!--class LanguageEngineer--><g id="elem_LanguageEngineer"><rect codeLine="90" fill="#F0FFFF" height="68.543" id="LanguageEngineer" rx="2.5" ry="2.5" style="stroke:#000000;stroke-width:0.5;" width="153" x="205" y="357.1211"/><ellipse cx="220" cy="387.3926" fill="#ADD1B2" rx="11" ry="11" style="stroke:#181818;stroke-width:1.0;"/><path d="M218.8594,388.1895 L218.8594,390.6895 L223.1875,390.6895 L223.1875,389.7676 Q223.1875,389.1582 223.4219,388.8926 Q223.6719,388.627 224.0469,388.627 Q224.4219,388.627 224.6563,388.8926 Q224.8906,389.1582 224.8906,389.7676 L224.8906,392.3926 L216.8906,392.3926 Q216.2656,392.3926 216,392.1582 Q215.75,391.9238 215.75,391.5332 Q215.75,391.1582 216.0156,390.9238 Q216.2813,390.6895 216.8906,390.6895 L217.1563,390.6895 L217.1563,384.0332 L216.8906,384.0332 Q216.2656,384.0332 216,383.7988 Q215.75,383.5645 215.75,383.1738 Q215.75,382.7988 216,382.5645 Q216.2656,382.3301 216.8906,382.3301 L224.5156,382.3301 L224.5156,384.9238 Q224.5156,385.5332 224.2813,385.7988 Q224.0625,386.0488 223.6719,386.0488 Q223.2969,386.0488 223.0625,385.7988 Q222.8281,385.5332 222.8281,384.9238 L222.8281,384.0332 L218.8594,384.0332 L218.8594,386.4863 L220.3438,386.4863 Q220.3438,385.8301 220.4688,385.6426 Q220.7344,385.2363 221.2031,385.2363 Q221.5781,385.2363 221.8125,385.502 Q222.0469,385.752 222.0469,386.3613 L222.0469,388.3301 Q222.0469,388.877 221.9219,389.0645 Q221.6563,389.4551 221.2031,389.4551 Q220.7344,389.4551 220.4688,389.0488 Q220.3438,388.8613 220.3438,388.1895 L218.8594,388.1895 Z " fill="#000000"/><text fill="#000000" font-family="sans-serif" font-size="12" font-style="italic" lengthAdjust="spacing" textLength="43" x="273" y="375.0703">&#171;entity&#187;</text><text fill="#000000" font-family="sans-serif" font-size="12" font-style="italic" lengthAdjust="spacing" textLength="35" x="277" y="391.0313">&#171;root&#187;</text><text fill="#000000" font-family="sans-serif" font-size="14" lengthAdjust="spacing" textLength="121" x="234" y="409.1504">LanguageEngineer</text><line style="stroke:#000000;stroke-width:0.5;" x1="206" x2="357" y1="417.6641" y2="417.6641"/></g><!--link JobInterview to InterviewResults--><g id="link_JobInterview_InterviewResults"><path codeLine="36" d="M1042.79,257.2211 C1062.72,270.8411 1085.87,286.5611 1107,300.6211 C1115.58,306.3311 1119.8815,309.1679 1128.5615,314.8179 " fill="none" id="JobInterview-to-InterviewResults" style="stroke:#808080;stroke-width:1.0;"/><polygon fill="#808080" points="1133.59,318.0911,1128.2293,309.829,1129.3995,315.3634,1123.8651,316.5337,1133.59,318.0911" style="stroke:#808080;stroke-width:1.0;"/></g><!--link JobInterview to Score--><g id="link_JobInterview_Score"><path codeLine="37" d="M1046.28,234.6411 C1066.31,239.1211 1083.2546,242.9019 1103.6046,247.4519 " fill="none" id="JobInterview-to-Score" style="stroke:#808080;stroke-width:1.0;"/><polygon fill="#808080" points="1109.46,248.7611,1101.5497,242.8937,1104.5805,247.6701,1099.8041,250.7009,1109.46,248.7611" style="stroke:#808080;stroke-width:1.0;"/></g><!--link JobInterview to InterviewTime--><g id="link_JobInterview_InterviewTime"><path codeLine="38" d="M1046.28,210.6011 C1066.31,206.1211 1083.2546,202.3403 1103.6046,197.7903 " fill="none" id="JobInterview-to-InterviewTime" style="stroke:#808080;stroke-width:1.0;"/><polygon fill="#808080" points="1109.46,196.4811,1099.8041,194.5413,1104.5805,197.5721,1101.5497,202.3485,1109.46,196.4811" style="stroke:#808080;stroke-width:1.0;"/></g><!--link JobInterview to InterviewDate--><g id="link_JobInterview_InterviewDate"><path codeLine="39" d="M1042.79,188.0211 C1062.72,174.4011 1085.87,158.6811 1107,144.6211 C1115.58,138.9111 1119.8815,136.0743 1128.5615,130.4243 " fill="none" id="JobInterview-to-InterviewDate" style="stroke:#808080;stroke-width:1.0;"/><polygon fill="#808080" points="1133.59,127.1511,1123.8651,128.7085,1129.3995,129.8787,1128.2293,135.4132,1133.59,127.1511" style="stroke:#808080;stroke-width:1.0;"/></g><!--link Candidate to Curriculum--><g id="link_Candidate_Curriculum"><path codeLine="51" d="M120.22,593.6011 C150.68,595.5111 184.3816,597.618 216.6416,599.628 " fill="none" id="Candidate-to-Curriculum" style="stroke:#808080;stroke-width:1.0;"/><polygon fill="#808080" points="222.63,600.0011,213.8962,595.4492,217.6397,599.6902,213.3987,603.4337,222.63,600.0011" style="stroke:#808080;stroke-width:1.0;"/></g><!--link Candidate to TelephoneNumber--><g id="link_Candidate_TelephoneNumber"><path codeLine="52" d="M120.22,575.7111 C147.69,567.1211 176.9235,557.9919 207.1735,548.5319 " fill="none" id="Candidate-to-TelephoneNumber" style="stroke:#808080;stroke-width:1.0;"/><polygon fill="#808080" points="212.9,546.7411,203.1163,545.6097,208.1279,548.2335,205.5041,553.245,212.9,546.7411" style="stroke:#808080;stroke-width:1.0;"/></g><!--link User to UserEmail--><g id="link_User_UserEmail"><path codeLine="67" d="M667.21,624.1811 C699.59,645.2311 742.5392,673.1514 774.3892,693.8514 " fill="none" id="User-to-UserEmail" style="stroke:#808080;stroke-width:1.0;"/><polygon fill="#808080" points="779.42,697.1211,774.0535,688.8627,775.2276,694.3964,769.694,695.5705,779.42,697.1211" style="stroke:#808080;stroke-width:1.0;"/></g><!--link User to UserName--><g id="link_User_UserName"><path codeLine="68" d="M667.21,609.1411 C692.03,614.5211 720.1564,620.6092 749.0164,626.8692 " fill="none" id="User-to-UserName" style="stroke:#808080;stroke-width:1.0;"/><polygon fill="#808080" points="754.88,628.1411,746.9325,622.3242,749.9936,627.0812,745.2366,630.1424,754.88,628.1411" style="stroke:#808080;stroke-width:1.0;"/></g><!--link User to Username--><g id="link_User_Username"><path codeLine="69" d="M667.21,579.0611 C699.59,558.0111 742.5392,530.0907 774.3892,509.3907 " fill="none" id="User-to-Username" style="stroke:#808080;stroke-width:1.0;"/><polygon fill="#808080" points="779.42,506.1211,769.694,507.6717,775.2276,508.8458,774.0535,514.3795,779.42,506.1211" style="stroke:#808080;stroke-width:1.0;"/></g><!--link User to UserPassword--><g id="link_User_UserPassword"><path codeLine="70" d="M667.21,594.1011 C692.03,588.7211 720.1564,582.633 749.0164,576.373 " fill="none" id="User-to-UserPassword" style="stroke:#808080;stroke-width:1.0;"/><polygon fill="#808080" points="754.88,575.1011,745.2366,573.0998,749.9936,576.161,746.9325,580.918,754.88,575.1011" style="stroke:#808080;stroke-width:1.0;"/></g><!--link InterviewModel to Plugin--><g id="link_InterviewModel_Plugin"><path codeLine="80" d="M694.19,310.0211 C713.84,310.7811 729.4846,311.3856 748.8346,312.1456 " fill="none" id="InterviewModel-to-Plugin" style="stroke:#808080;stroke-width:1.0;"/><polygon fill="#808080" points="754.83,312.3811,745.9939,308.031,749.8339,312.1849,745.6799,316.0248,754.83,312.3811" style="stroke:#808080;stroke-width:1.0;"/></g><!--link Candidate to User--><g id="link_Candidate_User"><path codeLine="94" d="M119.78,625.2511 C131.98,632.3911 145.49,638.8711 159,642.6211 C317.55,686.6111 510.8147,638.4208 589.9647,614.5908 " fill="none" id="Candidate-to-User" style="stroke:#808080;stroke-width:1.0;"/><polygon fill="#808080" points="595.71,612.8611,585.939,611.6255,590.9223,614.3025,588.2453,619.2859,595.71,612.8611" style="stroke:#808080;stroke-width:1.0;"/></g><!--reverse link InterviewModel to JobInterview--><g id="link_InterviewModel_JobInterview"><path codeLine="95" d="M699.8938,289.5693 C719.3438,284.4693 735.14,280.4511 755,275.6211 C817.1,260.5311 888.79,244.6111 936.6,234.2011 " fill="none" id="InterviewModel-backto-JobInterview" style="stroke:#808080;stroke-width:1.0;"/><polygon fill="#808080" points="694.09,291.0911,703.8102,292.6776,698.9265,289.8229,701.7812,284.9392,694.09,291.0911" style="stroke:#808080;stroke-width:1.0;"/><text fill="#000000" font-family="sans-serif" font-size="13" lengthAdjust="spacing" textLength="28" x="799.5" y="239.6494">uses</text><text fill="#000000" font-family="sans-serif" font-size="13" lengthAdjust="spacing" textLength="7" x="702.1447" y="304.1863">1</text><text fill="#000000" font-family="sans-serif" font-size="13" lengthAdjust="spacing" textLength="9" x="919.9894" y="250.8501">N</text></g><!--link ANTLR to InterviewModel--><g id="link_ANTLR_InterviewModel"><path codeLine="96" d="M320.07,251.4211 C379.74,262.2211 490.866,282.3422 562.946,295.3922 " fill="none" id="ANTLR-to-InterviewModel" style="stroke:#808080;stroke-width:1.0;"/><polygon fill="#808080" points="568.85,296.4611,560.7066,290.9217,563.93,295.5703,559.2814,298.7937,568.85,296.4611" style="stroke:#808080;stroke-width:1.0;"/><text fill="#000000" font-family="sans-serif" font-size="13" lengthAdjust="spacing" textLength="60" x="445" y="270.6494">processes</text></g><!--link LanguageEngineer to InterviewModel--><g id="link_LanguageEngineer_InterviewModel"><path codeLine="97" d="M358.01,373.3911 C421.08,358.1711 504.0575,338.1387 562.9375,323.9287 " fill="none" id="LanguageEngineer-to-InterviewModel" style="stroke:#808080;stroke-width:1.0;"/><polygon fill="#808080" points="568.77,322.5211,559.0828,320.7442,563.9095,323.6941,560.9596,328.5209,568.77,322.5211" style="stroke:#808080;stroke-width:1.0;"/><text fill="#000000" font-family="sans-serif" font-size="13" lengthAdjust="spacing" textLength="43" x="453.5" y="334.6494">creates</text><text fill="#000000" font-family="sans-serif" font-size="13" lengthAdjust="spacing" textLength="7" x="365.886" y="386.4984">1</text><text fill="#000000" font-family="sans-serif" font-size="13" lengthAdjust="spacing" textLength="9" x="551.9965" y="339.2983">N</text></g><!--link LanguageEngineer to User--><g id="link_LanguageEngineer_User"><path codeLine="98" d="M339.97,426.3011 C412.75,470.2211 530.7332,541.4106 590.5932,577.5406 " fill="none" id="LanguageEngineer-to-User" style="stroke:#808080;stroke-width:1.0;"/><polygon fill="#808080" points="595.73,580.6411,590.0917,572.5658,591.4493,578.0574,585.9578,579.415,595.73,580.6411" style="stroke:#808080;stroke-width:1.0;"/></g><!--SRC=[fLLDRzim3BtxLn3UES1sBG83-MYA35aQDExkYiqwMcJ9aELbGP7_FifgxFWhpJ1V592Fr7ianUnvZ92YsQiuzmI-6J0AD4_s1cAkCJ9SISyBkH48_bobZ4lueM8KC8BNJ2WMSva0Wn3_65XmGXsvsSCBvfcIEUOs7OFlQWTBQL3_vdZqFIy_S9anpLA81CjpUFU0lXL_mnMNE5KwHZrJGccOCtsOYWAR01OT4gqA6JlGPBDPBMUJSFcyBd5j_vV5rmLzfM-YjJewSwBnvF1N5-u41NldQuuPMLY2MtCYUROcJ2O26ogOZc-8UDA8ylyLpETj1ROwJtqgfXSL7zp1fnPK7O19GjeJPj1_zr0QRaxGy8_7pXe4ux5MoWI1LrxXX5Ouwd8XJ4xmdunw1C-xNrIT8FWe1PolWhQHqdWNiaeVylGV8-OawKQ4EnjAHwEWesS0LYhuB8Nb_1d6ilGQpPan6VFOak_fJEqSQajPX5cXDOyAKQH35JZNu105PdibSLsaEzITY4j0UTG4h8pwdXvdAsz3v6jE5_NeA-qtfLd48wqUSOSoYrspuS5fGJUqVexqSEw4IyeyY2oFKeqjHKMwQxRykbRPQxqGR0vCFLbk6VUKjO8unCq2RqIHq6A_hQoLq19qSKrgatMuUe6jXKRDURP9FiWvK1-dwrGhMhI5_VKewHhi7vyBgC8CPBqUr4jnlPOc_viFO_A2l_QR3_W12letynplKUCvkz07oBIACBUe3YMRjmooUJk1aKQYrHDMy_mB]--></g></svg>