<?xml version="1.0" encoding="us-ascii" standalone="no"?><svg xmlns="http://www.w3.org/2000/svg" xmlns:xlink="http://www.w3.org/1999/xlink" contentStyleType="text/css" height="950px" preserveAspectRatio="none" style="width:1536px;height:950px;background:#FFFFFF;" version="1.1" viewBox="0 0 1536 950" width="1536px" zoomAndPan="magnify"><defs/><g><!--cluster ui--><g id="cluster_ui"><path d="M8.5,38.97 L23.5,38.97 A3.75,3.75 0 0 1 26,41.47 L33,61.4583 L231.5,61.4583 A2.5,2.5 0 0 1 234,63.9583 L234,250.89 A2.5,2.5 0 0 1 231.5,253.39 L8.5,253.39 A2.5,2.5 0 0 1 6,250.89 L6,41.47 A2.5,2.5 0 0 1 8.5,38.97 " fill="none" style="stroke:#000000;stroke-width:1.5;"/><line style="stroke:#000000;stroke-width:1.5;" x1="6" x2="33" y1="61.4583" y2="61.4583"/><text fill="#000000" font-family="sans-serif" font-size="14" font-weight="bold" lengthAdjust="spacing" textLength="14" x="10" y="54.5052">ui</text></g><!--cluster Candidates--><g id="cluster_Candidates"><path d="M260.5,45.44 L341.5,45.44 A3.75,3.75 0 0 1 344,47.94 L351,67.9283 L921.5,67.9283 A2.5,2.5 0 0 1 924,70.4283 L924,940.68 A2.5,2.5 0 0 1 921.5,943.18 L260.5,943.18 A2.5,2.5 0 0 1 258,940.68 L258,47.94 A2.5,2.5 0 0 1 260.5,45.44 " fill="none" style="stroke:#000000;stroke-width:1.5;"/><line style="stroke:#000000;stroke-width:1.5;" x1="258" x2="351" y1="67.9283" y2="67.9283"/><text fill="#000000" font-family="sans-serif" font-size="14" font-weight="bold" lengthAdjust="spacing" textLength="80" x="262" y="60.9752">Candidates</text></g><!--cluster application--><g id="cluster_application"><path d="M576.5,88.44 L657.5,88.44 A3.75,3.75 0 0 1 660,90.94 L667,110.9283 L855.5,110.9283 A2.5,2.5 0 0 1 858,113.4283 L858,201.43 A2.5,2.5 0 0 1 855.5,203.93 L576.5,203.93 A2.5,2.5 0 0 1 574,201.43 L574,90.94 A2.5,2.5 0 0 1 576.5,88.44 " fill="none" style="stroke:#000000;stroke-width:1.5;"/><line style="stroke:#000000;stroke-width:1.5;" x1="574" x2="667" y1="110.9283" y2="110.9283"/><text fill="#000000" font-family="sans-serif" font-size="14" font-weight="bold" lengthAdjust="spacing" textLength="80" x="578" y="103.9752">application</text></g><!--cluster domain--><g id="cluster_domain"><path d="M516.5,638.81 L571.5,638.81 A3.75,3.75 0 0 1 574,641.31 L581,661.2983 L897.5,661.2983 A2.5,2.5 0 0 1 900,663.7983 L900,916.68 A2.5,2.5 0 0 1 897.5,919.18 L516.5,919.18 A2.5,2.5 0 0 1 514,916.68 L514,641.31 A2.5,2.5 0 0 1 516.5,638.81 " fill="none" style="stroke:#000000;stroke-width:1.5;"/><line style="stroke:#000000;stroke-width:1.5;" x1="514" x2="581" y1="661.2983" y2="661.2983"/><text fill="#000000" font-family="sans-serif" font-size="14" font-weight="bold" lengthAdjust="spacing" textLength="54" x="518" y="654.3452">domain</text></g><!--cluster repositories--><g id="cluster_repositories"><path d="M284.5,721.25 L372.5,721.25 A3.75,3.75 0 0 1 375,723.75 L382,743.7383 L487.5,743.7383 A2.5,2.5 0 0 1 490,746.2383 L490,834.24 A2.5,2.5 0 0 1 487.5,836.74 L284.5,836.74 A2.5,2.5 0 0 1 282,834.24 L282,723.75 A2.5,2.5 0 0 1 284.5,721.25 " fill="none" style="stroke:#000000;stroke-width:1.5;"/><line style="stroke:#000000;stroke-width:1.5;" x1="282" x2="382" y1="743.7383" y2="743.7383"/><text fill="#000000" font-family="sans-serif" font-size="14" font-weight="bold" lengthAdjust="spacing" textLength="87" x="286" y="736.7852">repositories</text></g><!--cluster services--><g id="cluster_services"><path d="M367.5,482.83 L426.5,482.83 A3.75,3.75 0 0 1 429,485.33 L436,505.3183 L650.5,505.3183 A2.5,2.5 0 0 1 653,507.8183 L653,612.31 A2.5,2.5 0 0 1 650.5,614.81 L367.5,614.81 A2.5,2.5 0 0 1 365,612.31 L365,485.33 A2.5,2.5 0 0 1 367.5,482.83 " fill="none" style="stroke:#000000;stroke-width:1.5;"/><line style="stroke:#000000;stroke-width:1.5;" x1="365" x2="436" y1="505.3183" y2="505.3183"/><text fill="#000000" font-family="sans-serif" font-size="14" font-weight="bold" lengthAdjust="spacing" textLength="58" x="369" y="498.3652">services</text></g><!--cluster authz--><g id="cluster_authz"><path d="M950.5,310.37 L991.5,310.37 A3.75,3.75 0 0 1 994,312.87 L1001,332.8583 L1441.5,332.8583 A2.5,2.5 0 0 1 1444,335.3583 L1444,456.33 A2.5,2.5 0 0 1 1441.5,458.83 L950.5,458.83 A2.5,2.5 0 0 1 948,456.33 L948,312.87 A2.5,2.5 0 0 1 950.5,310.37 " fill="none" style="stroke:#000000;stroke-width:1.5;"/><line style="stroke:#000000;stroke-width:1.5;" x1="948" x2="1001" y1="332.8583" y2="332.8583"/><text fill="#000000" font-family="sans-serif" font-size="14" font-weight="bold" lengthAdjust="spacing" textLength="40" x="952" y="325.9052">authz</text></g><!--cluster Persistence--><g id="cluster_Persistence"><path d="M950.5,6 L1033.5,6 A3.75,3.75 0 0 1 1036,8.5 L1043,28.4883 L1526.5,28.4883 A2.5,2.5 0 0 1 1529,30.9883 L1529,283.87 A2.5,2.5 0 0 1 1526.5,286.37 L950.5,286.37 A2.5,2.5 0 0 1 948,283.87 L948,8.5 A2.5,2.5 0 0 1 950.5,6 " fill="none" style="stroke:#000000;stroke-width:1.5;"/><line style="stroke:#000000;stroke-width:1.5;" x1="948" x2="1043" y1="28.4883" y2="28.4883"/><text fill="#000000" font-family="sans-serif" font-size="14" font-weight="bold" lengthAdjust="spacing" textLength="82" x="952" y="21.5352">Persistence</text></g><!--class DisplayCandidateDataUI--><g id="elem_DisplayCandidateDataUI"><rect codeLine="5" fill="#F1F1F1" height="163.418" id="DisplayCandidateDataUI" rx="2.5" ry="2.5" style="stroke:#181818;stroke-width:0.5;" width="196" x="22" y="73.97"/><ellipse cx="37" cy="89.97" fill="#ADD1B2" rx="11" ry="11" style="stroke:#181818;stroke-width:1.0;"/><path d="M39.9731,95.6131 Q39.3921,95.9119 38.7529,96.0613 Q38.1138,96.2107 37.4082,96.2107 Q34.9014,96.2107 33.5815,94.5589 Q32.2617,92.907 32.2617,89.7859 Q32.2617,86.6565 33.5815,85.0047 Q34.9014,83.3528 37.4082,83.3528 Q38.1138,83.3528 38.7612,83.5022 Q39.4087,83.6516 39.9731,83.9505 L39.9731,86.6731 Q39.3423,86.0921 38.7488,85.8223 Q38.1553,85.5525 37.5244,85.5525 Q36.1797,85.5525 35.4949,86.6192 Q34.8101,87.6858 34.8101,89.7859 Q34.8101,91.8777 35.4949,92.9444 Q36.1797,94.011 37.5244,94.011 Q38.1553,94.011 38.7488,93.7412 Q39.3423,93.4715 39.9731,92.8904 Z " fill="#000000"/><text fill="#000000" font-family="sans-serif" font-size="14" lengthAdjust="spacing" textLength="164" x="51" y="95.261">DisplayCandidateDataUI</text><line style="stroke:#181818;stroke-width:0.5;" x1="23" x2="217" y1="105.97" y2="105.97"/><line style="stroke:#181818;stroke-width:0.5;" x1="23" x2="217" y1="113.97" y2="113.97"/><ellipse cx="33" cy="127.7141" fill="#84BE84" rx="3" ry="3" style="stroke:#038048;stroke-width:1.0;"/><text fill="#000000" font-family="sans-serif" font-size="14" lengthAdjust="spacing" textLength="69" x="42" y="131.5052">headline()</text><ellipse cx="33" cy="144.2024" fill="#84BE84" rx="3" ry="3" style="stroke:#038048;stroke-width:1.0;"/><text fill="#000000" font-family="sans-serif" font-size="14" lengthAdjust="spacing" textLength="111" x="42" y="147.9934">emptyMessage()</text><ellipse cx="33" cy="160.6907" fill="#84BE84" rx="3" ry="3" style="stroke:#038048;stroke-width:1.0;"/><text fill="#000000" font-family="sans-serif" font-size="14" lengthAdjust="spacing" textLength="72" x="42" y="164.4817">elements()</text><ellipse cx="33" cy="177.179" fill="#84BE84" rx="3" ry="3" style="stroke:#038048;stroke-width:1.0;"/><text fill="#000000" font-family="sans-serif" font-size="14" lengthAdjust="spacing" textLength="111" x="42" y="180.97">elementPrinter()</text><ellipse cx="33" cy="193.6673" fill="#84BE84" rx="3" ry="3" style="stroke:#038048;stroke-width:1.0;"/><text fill="#000000" font-family="sans-serif" font-size="14" lengthAdjust="spacing" textLength="104" x="42" y="197.4583">elementName()</text><ellipse cx="33" cy="210.1555" fill="#84BE84" rx="3" ry="3" style="stroke:#038048;stroke-width:1.0;"/><text fill="#000000" font-family="sans-serif" font-size="14" lengthAdjust="spacing" textLength="79" x="42" y="213.9466">listHeader()</text><ellipse cx="33" cy="226.6438" fill="#84BE84" rx="3" ry="3" style="stroke:#038048;stroke-width:1.0;"/><text fill="#000000" font-family="sans-serif" font-size="14" lengthAdjust="spacing" textLength="65" x="42" y="230.4348">doShow()</text></g><!--class DisplayCandidateDataController--><g id="elem_DisplayCandidateDataController"><rect codeLine="20" fill="#F1F1F1" height="64.4883" id="DisplayCandidateDataController" rx="2.5" ry="2.5" style="stroke:#181818;stroke-width:0.5;" width="252" x="590" y="123.44"/><ellipse cx="605" cy="139.44" fill="#ADD1B2" rx="11" ry="11" style="stroke:#181818;stroke-width:1.0;"/><path d="M607.9731,145.0831 Q607.3921,145.3819 606.7529,145.5313 Q606.1138,145.6807 605.4082,145.6807 Q602.9014,145.6807 601.5815,144.0289 Q600.2617,142.377 600.2617,139.2559 Q600.2617,136.1265 601.5815,134.4747 Q602.9014,132.8228 605.4082,132.8228 Q606.1138,132.8228 606.7612,132.9722 Q607.4087,133.1216 607.9731,133.4205 L607.9731,136.1431 Q607.3423,135.5621 606.7488,135.2923 Q606.1553,135.0225 605.5244,135.0225 Q604.1797,135.0225 603.4949,136.0892 Q602.8101,137.1558 602.8101,139.2559 Q602.8101,141.3477 603.4949,142.4144 Q604.1797,143.481 605.5244,143.481 Q606.1553,143.481 606.7488,143.2112 Q607.3423,142.9415 607.9731,142.3604 Z " fill="#000000"/><text fill="#000000" font-family="sans-serif" font-size="14" lengthAdjust="spacing" textLength="220" x="619" y="144.731">DisplayCandidateDataController</text><line style="stroke:#181818;stroke-width:0.5;" x1="591" x2="841" y1="155.44" y2="155.44"/><line style="stroke:#181818;stroke-width:0.5;" x1="591" x2="841" y1="163.44" y2="163.44"/><ellipse cx="601" cy="177.1841" fill="#84BE84" rx="3" ry="3" style="stroke:#038048;stroke-width:1.0;"/><text fill="#000000" font-family="sans-serif" font-size="14" lengthAdjust="spacing" textLength="103" x="610" y="180.9752">allCandidates()</text></g><!--class Candidate--><g id="elem_Candidate"><rect codeLine="26" fill="#F1F1F1" height="229.3711" id="Candidate" rx="2.5" ry="2.5" style="stroke:#181818;stroke-width:0.5;" width="354" x="530" y="673.81"/><ellipse cx="667.75" cy="689.81" fill="#ADD1B2" rx="11" ry="11" style="stroke:#181818;stroke-width:1.0;"/><path d="M670.7231,695.4531 Q670.1421,695.7519 669.5029,695.9013 Q668.8638,696.0507 668.1582,696.0507 Q665.6514,696.0507 664.3315,694.3989 Q663.0117,692.747 663.0117,689.6259 Q663.0117,686.4965 664.3315,684.8447 Q665.6514,683.1928 668.1582,683.1928 Q668.8638,683.1928 669.5112,683.3422 Q670.1587,683.4916 670.7231,683.7905 L670.7231,686.5131 Q670.0923,685.9321 669.4988,685.6623 Q668.9053,685.3925 668.2744,685.3925 Q666.9297,685.3925 666.2449,686.4592 Q665.5601,687.5258 665.5601,689.6259 Q665.5601,691.7177 666.2449,692.7844 Q666.9297,693.851 668.2744,693.851 Q668.9053,693.851 669.4988,693.5812 Q670.0923,693.3115 670.7231,692.7304 Z " fill="#000000"/><text fill="#000000" font-family="sans-serif" font-size="14" lengthAdjust="spacing" textLength="70" x="688.25" y="695.101">Candidate</text><line style="stroke:#181818;stroke-width:0.5;" x1="531" x2="883" y1="705.81" y2="705.81"/><rect fill="none" height="6" style="stroke:#C82930;stroke-width:1.0;" width="6" x="538" y="716.5541"/><text fill="#000000" font-family="sans-serif" font-size="14" lengthAdjust="spacing" textLength="65" x="550" y="723.3452">User user</text><rect fill="none" height="6" style="stroke:#C82930;stroke-width:1.0;" width="6" x="538" y="733.0424"/><text fill="#000000" font-family="sans-serif" font-size="14" lengthAdjust="spacing" textLength="155" x="550" y="739.8334">Curriculum curriculum</text><rect fill="none" height="6" style="stroke:#C82930;stroke-width:1.0;" width="6" x="538" y="749.5307"/><text fill="#000000" font-family="sans-serif" font-size="14" lengthAdjust="spacing" textLength="256" x="550" y="756.3217">TelephoneNumber telephoneNumber</text><line style="stroke:#181818;stroke-width:0.5;" x1="531" x2="883" y1="763.2748" y2="763.2748"/><ellipse cx="541" cy="777.019" fill="#84BE84" rx="3" ry="3" style="stroke:#038048;stroke-width:1.0;"/><text fill="#000000" font-family="sans-serif" font-size="14" lengthAdjust="spacing" textLength="328" x="550" y="780.81">Candidate( user, telephoneNumber, curriculum)</text><ellipse cx="541" cy="793.5073" fill="#84BE84" rx="3" ry="3" style="stroke:#038048;stroke-width:1.0;"/><text fill="#000000" font-family="sans-serif" font-size="14" lengthAdjust="spacing" textLength="80" x="550" y="797.2983">Candidate()</text><ellipse cx="541" cy="809.9955" fill="#84BE84" rx="3" ry="3" style="stroke:#038048;stroke-width:1.0;"/><text fill="#000000" font-family="sans-serif" font-size="14" lengthAdjust="spacing" textLength="40" x="550" y="813.7866">user()</text><ellipse cx="541" cy="826.4838" fill="#84BE84" rx="3" ry="3" style="stroke:#038048;stroke-width:1.0;"/><text fill="#000000" font-family="sans-serif" font-size="14" lengthAdjust="spacing" textLength="84" x="550" y="830.2748">curriculum()</text><ellipse cx="541" cy="842.9721" fill="#84BE84" rx="3" ry="3" style="stroke:#038048;stroke-width:1.0;"/><text fill="#000000" font-family="sans-serif" font-size="14" lengthAdjust="spacing" textLength="61" x="550" y="846.7631">identity()</text><ellipse cx="541" cy="859.4604" fill="#84BE84" rx="3" ry="3" style="stroke:#038048;stroke-width:1.0;"/><text fill="#000000" font-family="sans-serif" font-size="14" lengthAdjust="spacing" textLength="104" x="550" y="863.2514">sameAs (other)</text><ellipse cx="541" cy="875.9487" fill="#84BE84" rx="3" ry="3" style="stroke:#038048;stroke-width:1.0;"/><text fill="#000000" font-family="sans-serif" font-size="14" lengthAdjust="spacing" textLength="64" x="550" y="879.7397">equals(o)</text><ellipse cx="541" cy="892.437" fill="#84BE84" rx="3" ry="3" style="stroke:#038048;stroke-width:1.0;"/><text fill="#000000" font-family="sans-serif" font-size="14" lengthAdjust="spacing" textLength="65" x="550" y="896.228">toString()</text></g><!--class CandidateRepository--><g id="elem_CandidateRepository"><rect codeLine="45" fill="#F1F1F1" height="64.4883" id="CandidateRepository" rx="2.5" ry="2.5" style="stroke:#181818;stroke-width:0.5;" width="175" x="298.5" y="756.25"/><ellipse cx="313.5" cy="772.25" fill="#ADD1B2" rx="11" ry="11" style="stroke:#181818;stroke-width:1.0;"/><path d="M316.4731,777.8931 Q315.8921,778.1919 315.2529,778.3413 Q314.6138,778.4907 313.9082,778.4907 Q311.4014,778.4907 310.0815,776.8389 Q308.7617,775.187 308.7617,772.0659 Q308.7617,768.9365 310.0815,767.2847 Q311.4014,765.6328 313.9082,765.6328 Q314.6138,765.6328 315.2612,765.7822 Q315.9087,765.9316 316.4731,766.2305 L316.4731,768.9531 Q315.8423,768.3721 315.2488,768.1023 Q314.6553,767.8325 314.0244,767.8325 Q312.6797,767.8325 311.9949,768.8992 Q311.3101,769.9658 311.3101,772.0659 Q311.3101,774.1577 311.9949,775.2244 Q312.6797,776.291 314.0244,776.291 Q314.6553,776.291 315.2488,776.0212 Q315.8423,775.7515 316.4731,775.1704 Z " fill="#000000"/><text fill="#000000" font-family="sans-serif" font-size="14" lengthAdjust="spacing" textLength="143" x="327.5" y="777.541">CandidateRepository</text><line style="stroke:#181818;stroke-width:0.5;" x1="299.5" x2="472.5" y1="788.25" y2="788.25"/><line style="stroke:#181818;stroke-width:0.5;" x1="299.5" x2="472.5" y1="796.25" y2="796.25"/><ellipse cx="309.5" cy="809.9941" fill="#84BE84" rx="3" ry="3" style="stroke:#038048;stroke-width:1.0;"/><text fill="#000000" font-family="sans-serif" font-size="14" lengthAdjust="spacing" textLength="103" x="318.5" y="813.7852">allCandidates()</text></g><!--class CandidateService--><g id="elem_CandidateService"><rect codeLine="52" fill="#F1F1F1" height="80.9766" id="CandidateService" rx="2.5" ry="2.5" style="stroke:#181818;stroke-width:0.5;" width="257" x="380.5" y="517.83"/><ellipse cx="445.75" cy="533.83" fill="#ADD1B2" rx="11" ry="11" style="stroke:#181818;stroke-width:1.0;"/><path d="M448.7231,539.4731 Q448.1421,539.7719 447.5029,539.9213 Q446.8638,540.0707 446.1582,540.0707 Q443.6514,540.0707 442.3315,538.4189 Q441.0117,536.767 441.0117,533.6459 Q441.0117,530.5165 442.3315,528.8647 Q443.6514,527.2128 446.1582,527.2128 Q446.8638,527.2128 447.5112,527.3622 Q448.1587,527.5116 448.7231,527.8105 L448.7231,530.5331 Q448.0923,529.9521 447.4988,529.6823 Q446.9053,529.4125 446.2744,529.4125 Q444.9297,529.4125 444.2449,530.4792 Q443.5601,531.5458 443.5601,533.6459 Q443.5601,535.7377 444.2449,536.8044 Q444.9297,537.871 446.2744,537.871 Q446.9053,537.871 447.4988,537.6012 Q448.0923,537.3315 448.7231,536.7504 Z " fill="#000000"/><text fill="#000000" font-family="sans-serif" font-size="14" lengthAdjust="spacing" textLength="118" x="466.25" y="539.121">CandidateService</text><line style="stroke:#181818;stroke-width:0.5;" x1="381.5" x2="636.5" y1="549.83" y2="549.83"/><line style="stroke:#181818;stroke-width:0.5;" x1="381.5" x2="636.5" y1="557.83" y2="557.83"/><ellipse cx="391.5" cy="571.5741" fill="#84BE84" rx="3" ry="3" style="stroke:#038048;stroke-width:1.0;"/><text fill="#000000" font-family="sans-serif" font-size="14" lengthAdjust="spacing" textLength="231" x="400.5" y="575.3652">findCandidate(telephoneNumber)</text><ellipse cx="391.5" cy="588.0624" fill="#84BE84" rx="3" ry="3" style="stroke:#038048;stroke-width:1.0;"/><text fill="#000000" font-family="sans-serif" font-size="14" lengthAdjust="spacing" textLength="103" x="400.5" y="591.8534">allCandidates()</text></g><!--class AuthorizationService--><g id="elem_AuthorizationService"><rect codeLine="62" fill="#F1F1F1" height="97.4648" id="AuthorizationService" rx="2.5" ry="2.5" style="stroke:#181818;stroke-width:0.5;" width="465" x="963.5" y="345.37"/><ellipse cx="1120.25" cy="361.37" fill="#ADD1B2" rx="11" ry="11" style="stroke:#181818;stroke-width:1.0;"/><path d="M1123.2231,367.0131 Q1122.6421,367.3119 1122.0029,367.4613 Q1121.3638,367.6107 1120.6582,367.6107 Q1118.1514,367.6107 1116.8315,365.9589 Q1115.5117,364.307 1115.5117,361.1859 Q1115.5117,358.0565 1116.8315,356.4047 Q1118.1514,354.7528 1120.6582,354.7528 Q1121.3638,354.7528 1122.0112,354.9022 Q1122.6587,355.0516 1123.2231,355.3505 L1123.2231,358.0731 Q1122.5923,357.4921 1121.9988,357.2223 Q1121.4053,356.9525 1120.7744,356.9525 Q1119.4297,356.9525 1118.7449,358.0192 Q1118.0601,359.0858 1118.0601,361.1859 Q1118.0601,363.2777 1118.7449,364.3444 Q1119.4297,365.411 1120.7744,365.411 Q1121.4053,365.411 1121.9988,365.1412 Q1122.5923,364.8715 1123.2231,364.2904 Z " fill="#000000"/><text fill="#000000" font-family="sans-serif" font-size="14" lengthAdjust="spacing" textLength="143" x="1140.75" y="366.661">AuthorizationService</text><line style="stroke:#181818;stroke-width:0.5;" x1="964.5" x2="1427.5" y1="377.37" y2="377.37"/><line style="stroke:#181818;stroke-width:0.5;" x1="964.5" x2="1427.5" y1="385.37" y2="385.37"/><ellipse cx="974.5" cy="399.1141" fill="#84BE84" rx="3" ry="3" style="stroke:#038048;stroke-width:1.0;"/><text fill="#000000" font-family="sans-serif" font-size="14" lengthAdjust="spacing" textLength="151" x="983.5" y="402.9052">authorizationService()</text><ellipse cx="974.5" cy="423.8466" fill="#84BE84" rx="3" ry="3" style="stroke:#038048;stroke-width:1.0;"/><text fill="#000000" font-family="sans-serif" font-size="14" lengthAdjust="spacing" textLength="241" x="983.5" y="419.3934">ensureAuthenticatedUserHasAnyOf</text><text fill="#000000" font-family="sans-serif" font-size="14" lengthAdjust="spacing" textLength="439" x="983.5" y="435.8817">(Jobs4URoles.CUSTOMER_MANAGER, Jobs4URoles.POWER_USER)</text></g><!--class PersistenceContext--><g id="elem_PersistenceContext"><rect codeLine="71" fill="#F1F1F1" height="80.9766" id="PersistenceContext" rx="2.5" ry="2.5" style="stroke:#181818;stroke-width:0.5;" width="168" x="964" y="115.19"/><ellipse cx="980.8" cy="131.19" fill="#ADD1B2" rx="11" ry="11" style="stroke:#181818;stroke-width:1.0;"/><path d="M983.7731,136.8331 Q983.1921,137.1319 982.5529,137.2813 Q981.9138,137.4307 981.2082,137.4307 Q978.7014,137.4307 977.3815,135.7789 Q976.0617,134.127 976.0617,131.0059 Q976.0617,127.8765 977.3815,126.2247 Q978.7014,124.5728 981.2082,124.5728 Q981.9138,124.5728 982.5612,124.7222 Q983.2087,124.8716 983.7731,125.1705 L983.7731,127.8931 Q983.1423,127.3121 982.5488,127.0423 Q981.9553,126.7725 981.3244,126.7725 Q979.9797,126.7725 979.2949,127.8392 Q978.6101,128.9058 978.6101,131.0059 Q978.6101,133.0977 979.2949,134.1644 Q979.9797,135.231 981.3244,135.231 Q981.9553,135.231 982.5488,134.9612 Q983.1423,134.6915 983.7731,134.1104 Z " fill="#000000"/><text fill="#000000" font-family="sans-serif" font-size="14" lengthAdjust="spacing" textLength="132" x="995.2" y="136.481">PersistenceContext</text><line style="stroke:#181818;stroke-width:0.5;" x1="965" x2="1131" y1="147.19" y2="147.19"/><line style="stroke:#181818;stroke-width:0.5;" x1="965" x2="1131" y1="155.19" y2="155.19"/><ellipse cx="975" cy="168.9341" fill="#84BE84" rx="3" ry="3" style="stroke:#038048;stroke-width:1.0;"/><text fill="#000000" font-family="sans-serif" font-size="14" lengthAdjust="spacing" textLength="92" x="984" y="172.7252">repositories()</text><ellipse cx="975" cy="185.4224" fill="#84BE84" rx="3" ry="3" style="stroke:#038048;stroke-width:1.0;"/><text fill="#000000" font-family="sans-serif" font-size="14" lengthAdjust="spacing" textLength="142" x="984" y="189.2134">PersistenceContext()</text></g><!--class RepositoryFactory--><g id="elem_RepositoryFactory"><rect codeLine="76" fill="#F1F1F1" height="229.3711" id="RepositoryFactory" rx="2.5" ry="2.5" style="stroke:#181818;stroke-width:0.5;" width="346" x="1167" y="41"/><ellipse cx="1274.25" cy="57" fill="#ADD1B2" rx="11" ry="11" style="stroke:#181818;stroke-width:1.0;"/><path d="M1277.2231,62.6431 Q1276.6421,62.9419 1276.0029,63.0913 Q1275.3638,63.2407 1274.6582,63.2407 Q1272.1514,63.2407 1270.8315,61.5889 Q1269.5117,59.937 1269.5117,56.8159 Q1269.5117,53.6865 1270.8315,52.0347 Q1272.1514,50.3828 1274.6582,50.3828 Q1275.3638,50.3828 1276.0112,50.5322 Q1276.6587,50.6816 1277.2231,50.9805 L1277.2231,53.7031 Q1276.5923,53.1221 1275.9988,52.8523 Q1275.4053,52.5825 1274.7744,52.5825 Q1273.4297,52.5825 1272.7449,53.6492 Q1272.0601,54.7158 1272.0601,56.8159 Q1272.0601,58.9077 1272.7449,59.9744 Q1273.4297,61.041 1274.7744,61.041 Q1275.4053,61.041 1275.9988,60.7712 Q1276.5923,60.5015 1277.2231,59.9204 Z " fill="#000000"/><text fill="#000000" font-family="sans-serif" font-size="14" lengthAdjust="spacing" textLength="123" x="1294.75" y="62.291">RepositoryFactory</text><line style="stroke:#181818;stroke-width:0.5;" x1="1168" x2="1512" y1="73" y2="73"/><line style="stroke:#181818;stroke-width:0.5;" x1="1168" x2="1512" y1="81" y2="81"/><ellipse cx="1178" cy="94.7441" fill="#84BE84" rx="3" ry="3" style="stroke:#038048;stroke-width:1.0;"/><text fill="#000000" font-family="sans-serif" font-size="14" lengthAdjust="spacing" textLength="186" x="1187" y="98.5352">newTransactionalContext()</text><ellipse cx="1178" cy="111.2324" fill="#84BE84" rx="3" ry="3" style="stroke:#038048;stroke-width:1.0;"/><text fill="#000000" font-family="sans-serif" font-size="14" lengthAdjust="spacing" textLength="248" x="1187" y="115.0234">users(TransactionalContext autoTx)</text><ellipse cx="1178" cy="127.7207" fill="#84BE84" rx="3" ry="3" style="stroke:#038048;stroke-width:1.0;"/><text fill="#000000" font-family="sans-serif" font-size="14" lengthAdjust="spacing" textLength="47" x="1187" y="131.5117">users()</text><ellipse cx="1178" cy="144.209" fill="#84BE84" rx="3" ry="3" style="stroke:#038048;stroke-width:1.0;"/><text fill="#000000" font-family="sans-serif" font-size="14" lengthAdjust="spacing" textLength="313" x="1187" y="148">customerUsers(TransactionalContext autoTx)</text><ellipse cx="1178" cy="160.6973" fill="#84BE84" rx="3" ry="3" style="stroke:#038048;stroke-width:1.0;"/><text fill="#000000" font-family="sans-serif" font-size="14" lengthAdjust="spacing" textLength="112" x="1187" y="164.4883">customerUsers()</text><ellipse cx="1178" cy="177.1855" fill="#84BE84" rx="3" ry="3" style="stroke:#038048;stroke-width:1.0;"/><text fill="#000000" font-family="sans-serif" font-size="14" lengthAdjust="spacing" textLength="320" x="1187" y="180.9766">signupRequests(TransactionalContext autoTx)</text><ellipse cx="1178" cy="193.6738" fill="#84BE84" rx="3" ry="3" style="stroke:#038048;stroke-width:1.0;"/><text fill="#000000" font-family="sans-serif" font-size="14" lengthAdjust="spacing" textLength="119" x="1187" y="197.4648">signupRequests()</text><ellipse cx="1178" cy="210.1621" fill="#84BE84" rx="3" ry="3" style="stroke:#038048;stroke-width:1.0;"/><text fill="#000000" font-family="sans-serif" font-size="14" lengthAdjust="spacing" textLength="299" x="1187" y="213.9531">jobOpenings(TransactionalContext autoTx)</text><ellipse cx="1178" cy="226.6504" fill="#84BE84" rx="3" ry="3" style="stroke:#038048;stroke-width:1.0;"/><text fill="#000000" font-family="sans-serif" font-size="14" lengthAdjust="spacing" textLength="98" x="1187" y="230.4414">jobOpenings()</text><ellipse cx="1178" cy="243.1387" fill="#84BE84" rx="3" ry="3" style="stroke:#038048;stroke-width:1.0;"/><text fill="#000000" font-family="sans-serif" font-size="14" lengthAdjust="spacing" textLength="294" x="1187" y="246.9297">applications(TransactionalContext autoTx)</text><ellipse cx="1178" cy="259.627" fill="#84BE84" rx="3" ry="3" style="stroke:#038048;stroke-width:1.0;"/><text fill="#000000" font-family="sans-serif" font-size="14" lengthAdjust="spacing" textLength="93" x="1187" y="263.418">applications()</text></g><!--link DisplayCandidateDataUI to DisplayCandidateDataController--><g id="link_DisplayCandidateDataUI_DisplayCandidateDataController"><path codeLine="102" d="M218.42,156.18 C320,156.18 472.85,156.18 583.66,156.18 " fill="none" id="DisplayCandidateDataUI-to-DisplayCandidateDataController" style="stroke:#181818;stroke-width:1.0;"/><polygon fill="#181818" points="589.66,156.18,580.66,152.18,584.66,156.18,580.66,160.18,589.66,156.18" style="stroke:#181818;stroke-width:1.0;"/></g><!--link DisplayCandidateDataController to PersistenceContext--><g id="link_DisplayCandidateDataController_PersistenceContext"><path codeLine="103" d="M842.46,156.18 C882.96,156.18 920.79,156.18 957.53,156.18 " fill="none" id="DisplayCandidateDataController-to-PersistenceContext" style="stroke:#181818;stroke-width:1.0;"/><polygon fill="#181818" points="963.53,156.18,954.53,152.18,958.53,156.18,954.53,160.18,963.53,156.18" style="stroke:#181818;stroke-width:1.0;"/></g><!--link PersistenceContext to RepositoryFactory--><g id="link_PersistenceContext_RepositoryFactory"><path codeLine="104" d="M1132.46,156.18 C1143.41,156.18 1148.92,156.18 1160.68,156.18 " fill="none" id="PersistenceContext-to-RepositoryFactory" style="stroke:#181818;stroke-width:1.0;"/><polygon fill="#181818" points="1166.68,156.18,1157.68,152.18,1161.68,156.18,1157.68,160.18,1166.68,156.18" style="stroke:#181818;stroke-width:1.0;"/></g><!--link DisplayCandidateDataController to AuthorizationService--><g id="link_DisplayCandidateDataController_AuthorizationService"><path codeLine="105" d="M739.75,188.34 C739.75,253.66 739.75,394.18 739.75,394.18 C739.75,394.18 844.71,394.18 957.2,394.18 " fill="none" id="DisplayCandidateDataController-to-AuthorizationService" style="stroke:#181818;stroke-width:1.0;"/><polygon fill="#181818" points="963.2,394.18,954.2,390.18,958.2,394.18,954.2,398.18,963.2,394.18" style="stroke:#181818;stroke-width:1.0;"/></g><!--link DisplayCandidateDataController to CandidateService--><g id="link_DisplayCandidateDataController_CandidateService"><path codeLine="106" d="M613.75,188.29 C613.75,261.21 613.75,431.33 613.75,511.43 " fill="none" id="DisplayCandidateDataController-to-CandidateService" style="stroke:#181818;stroke-width:1.0;"/><polygon fill="#181818" points="613.75,517.43,617.75,508.43,613.75,512.43,609.75,508.43,613.75,517.43" style="stroke:#181818;stroke-width:1.0;"/></g><!--link CandidateService to CandidateRepository--><g id="link_CandidateService_CandidateRepository"><path codeLine="107" d="M427,599.21 C427,643.9 427,708.63 427,749.8 " fill="none" id="CandidateService-to-CandidateRepository" style="stroke:#181818;stroke-width:1.0;"/><polygon fill="#181818" points="427,755.8,431,746.8,427,750.8,423,746.8,427,755.8" style="stroke:#181818;stroke-width:1.0;"/></g><!--link CandidateRepository to Candidate--><g id="link_CandidateRepository_Candidate"><path codeLine="108" d="M473.71,789.18 C491.26,789.18 504.27,789.18 523.61,789.18 " fill="none" id="CandidateRepository-to-Candidate" style="stroke:#181818;stroke-width:1.0;"/><polygon fill="#181818" points="529.61,789.18,520.61,785.18,524.61,789.18,520.61,793.18,529.61,789.18" style="stroke:#181818;stroke-width:1.0;"/></g><!--SRC=[ZLHDZzem4BtdLrYSG6LxwhaIOdUxhSI70b4lbQeXcINkEhPhEztDelxtJe3O8QG0I0ZFp7lpzMpxmgK60mKJNAAhD39bNAuYfpHpYcsKSwfW6JUOEgva56b8Ns2BhEIxA1LWBRldLWkefY0pde73Ut2GVDr5Z3uVM8wGrTp3qT60XNRL3Aqbbc0KMA1qjcjO6YuTcgvv3aN02cxT4sLfXMLgbQjNElwbRwXvu6kq0xPhsK5hmLEeEnnSQckgf3DA23HDUo1486qIUjvC5S1bdUl0wKCFy3kMM3Iif9_ZULeQmzDIb0LB_T-ZRqtDwrn9d9V5Xc3kz1mTA_8vXdlYSJTkt68UdM4QImtrXm3m9fxH6hYhlC7IIYQM3PNBqVXr_Iv1sA5gpawj76rqIwZEf0ngPRbJXjDkQ3MTUSMDkxeuUERvgFm_FEtbMXrS3T4pbrdelpEiqN-o7TAr6u3IvUzXqnCwKZFlUqrrCaAFBoXSsj9W3Qy7J9h4h1R94zY9h1RFF-JmczhOJqci1DgFqsIrNimUuf-poNpovI4UixPtkVXEhcJr49_DUud6qhr1cUB-AXogRbbhgUEROqtHxGNvOi_ZzviuieMbFKBQtft4rxK1QM7_fe08s20-E-mBgMUdrc-dWK6cbXuhDCcjy5E0LpBVobB7f5sqxYQU3g8n_rARXKP9Uh-9fHtkTHSUffiuJkARvozy-fzgTlVvociNNNRN1ETIY7hKH85dghXAJg2-wtGTHy3khO-wXfEWK5lKOsFjqEWV]--></g></svg>