<?xml version="1.0" encoding="us-ascii" standalone="no"?><svg xmlns="http://www.w3.org/2000/svg" xmlns:xlink="http://www.w3.org/1999/xlink" contentStyleType="text/css" height="667px" preserveAspectRatio="none" style="width:1489px;height:667px;background:#FFFFFF;" version="1.1" viewBox="0 0 1489 667" width="1489px" zoomAndPan="magnify"><defs/><g><rect fill="#FFFFFF" height="460.9688" style="stroke:#181818;stroke-width:1.0;" width="10" x="68.5" y="93.9766"/><rect fill="#FFFFFF" height="263.7949" style="stroke:#181818;stroke-width:1.0;" width="10" x="478.5" y="115.2871"/><rect fill="#FFFFFF" height="146.5527" style="stroke:#181818;stroke-width:1.0;" width="10" x="478.5" y="408.3926"/><rect fill="#FFFFFF" height="205.1738" style="stroke:#181818;stroke-width:1.0;" width="10" x="708.5" y="144.5977"/><rect fill="#FFFFFF" height="87.9316" style="stroke:#181818;stroke-width:1.0;" width="10" x="708.5" y="437.7031"/><rect fill="#FFFFFF" height="29.3105" style="stroke:#181818;stroke-width:1.0;" width="10" x="979.5" y="173.9082"/><rect fill="#FFFFFF" height="87.9316" style="stroke:#181818;stroke-width:1.0;" width="10" x="1134" y="232.5293"/><rect fill="#FFFFFF" height="29.3105" style="stroke:#181818;stroke-width:1.0;" width="10" x="1288" y="261.8398"/><rect fill="#FFFFFF" height="29.3105" style="stroke:#181818;stroke-width:1.0;" width="10" x="1425.5" y="467.0137"/><line style="stroke:#181818;stroke-width:0.5;stroke-dasharray:5.0,5.0;" x1="73" x2="73" y1="83.9766" y2="572.9453"/><line style="stroke:#181818;stroke-width:0.5;stroke-dasharray:5.0,5.0;" x1="483.5" x2="483.5" y1="83.9766" y2="572.9453"/><line style="stroke:#181818;stroke-width:0.5;stroke-dasharray:5.0,5.0;" x1="713.5" x2="713.5" y1="83.9766" y2="572.9453"/><line style="stroke:#181818;stroke-width:0.5;stroke-dasharray:5.0,5.0;" x1="984" x2="984" y1="83.9766" y2="572.9453"/><line style="stroke:#181818;stroke-width:0.5;stroke-dasharray:5.0,5.0;" x1="1139" x2="1139" y1="83.9766" y2="572.9453"/><line style="stroke:#181818;stroke-width:0.5;stroke-dasharray:5.0,5.0;" x1="1292.5" x2="1292.5" y1="83.9766" y2="572.9453"/><line style="stroke:#181818;stroke-width:0.5;stroke-dasharray:5.0,5.0;" x1="1430.5" x2="1430.5" y1="83.9766" y2="572.9453"/><text fill="#000000" font-family="sans-serif" font-size="14" lengthAdjust="spacing" textLength="131" x="5" y="81.0234">Customer Manager</text><ellipse cx="73.5" cy="15.9883" fill="#E3E3E3" rx="8" ry="8" style="stroke:#181818;stroke-width:0.5;"/><path d="M73.5,23.9883 L73.5,50.9883 M60.5,31.9883 L86.5,31.9883 M73.5,50.9883 L60.5,65.9883 M73.5,50.9883 L86.5,65.9883 " fill="none" style="stroke:#181818;stroke-width:0.5;"/><text fill="#000000" font-family="sans-serif" font-size="14" lengthAdjust="spacing" textLength="131" x="5" y="585.4805">Customer Manager</text><ellipse cx="73.5" cy="596.9336" fill="#E3E3E3" rx="8" ry="8" style="stroke:#181818;stroke-width:0.5;"/><path d="M73.5,604.9336 L73.5,631.9336 M60.5,612.9336 L86.5,612.9336 M73.5,631.9336 L60.5,646.9336 M73.5,631.9336 L86.5,646.9336 " fill="none" style="stroke:#181818;stroke-width:0.5;"/><rect fill="#E3E3E3" height="46.9766" rx="2.5" ry="2.5" style="stroke:#181818;stroke-width:0.5;" width="192" x="387.5" y="36"/><text fill="#000000" font-family="sans-serif" font-size="14" font-style="italic" lengthAdjust="spacing" textLength="101" x="433" y="56.5352">&#171;presentation&#187;</text><text fill="#000000" font-family="sans-serif" font-size="14" lengthAdjust="spacing" textLength="178" x="394.5" y="73.0234">DisplaysCandidatesDataUI</text><rect fill="#E3E3E3" height="46.9766" rx="2.5" ry="2.5" style="stroke:#181818;stroke-width:0.5;" width="192" x="387.5" y="571.9453"/><text fill="#000000" font-family="sans-serif" font-size="14" font-style="italic" lengthAdjust="spacing" textLength="101" x="433" y="592.4805">&#171;presentation&#187;</text><text fill="#000000" font-family="sans-serif" font-size="14" lengthAdjust="spacing" textLength="178" x="394.5" y="608.9688">DisplaysCandidatesDataUI</text><rect fill="#E3E3E3" height="46.9766" rx="2.5" ry="2.5" style="stroke:#181818;stroke-width:0.5;" width="248" x="589.5" y="36"/><text fill="#000000" font-family="sans-serif" font-size="14" font-style="italic" lengthAdjust="spacing" textLength="81" x="673" y="56.5352">&#171;controller&#187;</text><text fill="#000000" font-family="sans-serif" font-size="14" lengthAdjust="spacing" textLength="234" x="596.5" y="73.0234">DisplaysCandidatesDataController</text><rect fill="#E3E3E3" height="46.9766" rx="2.5" ry="2.5" style="stroke:#181818;stroke-width:0.5;" width="248" x="589.5" y="571.9453"/><text fill="#000000" font-family="sans-serif" font-size="14" font-style="italic" lengthAdjust="spacing" textLength="81" x="673" y="592.4805">&#171;controller&#187;</text><text fill="#000000" font-family="sans-serif" font-size="14" lengthAdjust="spacing" textLength="234" x="596.5" y="608.9688">DisplaysCandidatesDataController</text><rect fill="#E3E3E3" height="46.9766" rx="2.5" ry="2.5" style="stroke:#181818;stroke-width:0.5;" width="157" x="906" y="36"/><text fill="#000000" font-family="sans-serif" font-size="14" font-style="italic" lengthAdjust="spacing" textLength="61" x="954" y="56.5352">&#171;service&#187;</text><text fill="#000000" font-family="sans-serif" font-size="14" lengthAdjust="spacing" textLength="143" x="913" y="73.0234">AuthorizationService</text><rect fill="#E3E3E3" height="46.9766" rx="2.5" ry="2.5" style="stroke:#181818;stroke-width:0.5;" width="157" x="906" y="571.9453"/><text fill="#000000" font-family="sans-serif" font-size="14" font-style="italic" lengthAdjust="spacing" textLength="61" x="954" y="592.4805">&#171;service&#187;</text><text fill="#000000" font-family="sans-serif" font-size="14" lengthAdjust="spacing" textLength="143" x="913" y="608.9688">AuthorizationService</text><rect fill="#E3E3E3" height="46.9766" rx="2.5" ry="2.5" style="stroke:#181818;stroke-width:0.5;" width="132" x="1073" y="36"/><text fill="#000000" font-family="sans-serif" font-size="14" font-style="italic" lengthAdjust="spacing" textLength="61" x="1108.5" y="56.5352">&#171;service&#187;</text><text fill="#000000" font-family="sans-serif" font-size="14" lengthAdjust="spacing" textLength="118" x="1080" y="73.0234">CandidateService</text><rect fill="#E3E3E3" height="46.9766" rx="2.5" ry="2.5" style="stroke:#181818;stroke-width:0.5;" width="132" x="1073" y="571.9453"/><text fill="#000000" font-family="sans-serif" font-size="14" font-style="italic" lengthAdjust="spacing" textLength="61" x="1108.5" y="592.4805">&#171;service&#187;</text><text fill="#000000" font-family="sans-serif" font-size="14" lengthAdjust="spacing" textLength="118" x="1080" y="608.9688">CandidateService</text><text fill="#000000" font-family="sans-serif" font-size="14" font-style="italic" lengthAdjust="spacing" textLength="84" x="1248" y="64.5352">&#171;repository&#187;</text><text fill="#000000" font-family="sans-serif" font-size="14" lengthAdjust="spacing" textLength="143" x="1218.5" y="81.0234">CandidateRepository</text><path d="M1275,15 C1275,5 1293,5 1293,5 C1293,5 1311,5 1311,15 L1311,41 C1311,51 1293,51 1293,51 C1293,51 1275,51 1275,41 L1275,15 " fill="#E3E3E3" style="stroke:#181818;stroke-width:1.5;"/><path d="M1275,15 C1275,25 1293,25 1293,25 C1293,25 1311,25 1311,15 " fill="none" style="stroke:#181818;stroke-width:1.5;"/><text fill="#000000" font-family="sans-serif" font-size="14" font-style="italic" lengthAdjust="spacing" textLength="84" x="1248" y="585.4805">&#171;repository&#187;</text><text fill="#000000" font-family="sans-serif" font-size="14" lengthAdjust="spacing" textLength="143" x="1218.5" y="601.9688">CandidateRepository</text><path d="M1275,614.9219 C1275,604.9219 1293,604.9219 1293,604.9219 C1293,604.9219 1311,604.9219 1311,614.9219 L1311,640.9219 C1311,650.9219 1293,650.9219 1293,650.9219 C1293,650.9219 1275,650.9219 1275,640.9219 L1275,614.9219 " fill="#E3E3E3" style="stroke:#181818;stroke-width:1.5;"/><path d="M1275,614.9219 C1275,624.9219 1293,624.9219 1293,624.9219 C1293,624.9219 1311,624.9219 1311,614.9219 " fill="none" style="stroke:#181818;stroke-width:1.5;"/><rect fill="#E3E3E3" height="46.9766" rx="2.5" ry="2.5" style="stroke:#181818;stroke-width:0.5;" width="106" x="1377.5" y="36"/><text fill="#000000" font-family="sans-serif" font-size="14" font-style="italic" lengthAdjust="spacing" textLength="92" x="1384.5" y="56.5352">&#171;systemUser&#187;</text><text fill="#000000" font-family="sans-serif" font-size="14" lengthAdjust="spacing" textLength="79" x="1391" y="73.0234">SystemUser</text><rect fill="#E3E3E3" height="46.9766" rx="2.5" ry="2.5" style="stroke:#181818;stroke-width:0.5;" width="106" x="1377.5" y="571.9453"/><text fill="#000000" font-family="sans-serif" font-size="14" font-style="italic" lengthAdjust="spacing" textLength="92" x="1384.5" y="592.4805">&#171;systemUser&#187;</text><text fill="#000000" font-family="sans-serif" font-size="14" lengthAdjust="spacing" textLength="79" x="1391" y="608.9688">SystemUser</text><rect fill="#FFFFFF" height="460.9688" style="stroke:#181818;stroke-width:1.0;" width="10" x="68.5" y="93.9766"/><rect fill="#FFFFFF" height="263.7949" style="stroke:#181818;stroke-width:1.0;" width="10" x="478.5" y="115.2871"/><rect fill="#FFFFFF" height="146.5527" style="stroke:#181818;stroke-width:1.0;" width="10" x="478.5" y="408.3926"/><rect fill="#FFFFFF" height="205.1738" style="stroke:#181818;stroke-width:1.0;" width="10" x="708.5" y="144.5977"/><rect fill="#FFFFFF" height="87.9316" style="stroke:#181818;stroke-width:1.0;" width="10" x="708.5" y="437.7031"/><rect fill="#FFFFFF" height="29.3105" style="stroke:#181818;stroke-width:1.0;" width="10" x="979.5" y="173.9082"/><rect fill="#FFFFFF" height="87.9316" style="stroke:#181818;stroke-width:1.0;" width="10" x="1134" y="232.5293"/><rect fill="#FFFFFF" height="29.3105" style="stroke:#181818;stroke-width:1.0;" width="10" x="1288" y="261.8398"/><rect fill="#FFFFFF" height="29.3105" style="stroke:#181818;stroke-width:1.0;" width="10" x="1425.5" y="467.0137"/><polygon fill="#181818" points="466.5,111.2871,476.5,115.2871,466.5,119.2871,470.5,115.2871" style="stroke:#181818;stroke-width:1.0;"/><line style="stroke:#181818;stroke-width:1.0;" x1="78.5" x2="472.5" y1="115.2871" y2="115.2871"/><text fill="#000000" font-family="sans-serif" font-size="13" font-weight="bold" lengthAdjust="spacing" textLength="9" x="85.5" y="110.5449">1</text><text fill="#000000" font-family="sans-serif" font-size="13" lengthAdjust="spacing" textLength="172" x="98.5" y="110.5449">asks a list of all candidates</text><polygon fill="#181818" points="696.5,140.5977,706.5,144.5977,696.5,148.5977,700.5,144.5977" style="stroke:#181818;stroke-width:1.0;"/><line style="stroke:#181818;stroke-width:1.0;" x1="488.5" x2="702.5" y1="144.5977" y2="144.5977"/><text fill="#000000" font-family="sans-serif" font-size="13" font-weight="bold" lengthAdjust="spacing" textLength="9" x="495.5" y="139.8555">2</text><text fill="#000000" font-family="sans-serif" font-size="13" lengthAdjust="spacing" textLength="172" x="508.5" y="139.8555">asks a list of all candidates</text><polygon fill="#181818" points="967.5,169.9082,977.5,173.9082,967.5,177.9082,971.5,173.9082" style="stroke:#181818;stroke-width:1.0;"/><line style="stroke:#181818;stroke-width:1.0;" x1="718.5" x2="973.5" y1="173.9082" y2="173.9082"/><text fill="#000000" font-family="sans-serif" font-size="13" font-weight="bold" lengthAdjust="spacing" textLength="9" x="725.5" y="169.166">3</text><text fill="#000000" font-family="sans-serif" font-size="13" lengthAdjust="spacing" textLength="229" x="738.5" y="169.166">ensureAuthenticatedUserHasAnyOf()</text><polygon fill="#181818" points="729.5,199.2188,719.5,203.2188,729.5,207.2188,725.5,203.2188" style="stroke:#181818;stroke-width:1.0;"/><line style="stroke:#181818;stroke-width:1.0;stroke-dasharray:2.0,2.0;" x1="723.5" x2="983.5" y1="203.2188" y2="203.2188"/><text fill="#000000" font-family="sans-serif" font-size="13" font-weight="bold" lengthAdjust="spacing" textLength="9" x="735.5" y="198.4766">4</text><text fill="#000000" font-family="sans-serif" font-size="13" lengthAdjust="spacing" textLength="67" x="748.5" y="198.4766">return true</text><polygon fill="#181818" points="1122,228.5293,1132,232.5293,1122,236.5293,1126,232.5293" style="stroke:#181818;stroke-width:1.0;"/><line style="stroke:#181818;stroke-width:1.0;" x1="718.5" x2="1128" y1="232.5293" y2="232.5293"/><text fill="#000000" font-family="sans-serif" font-size="13" font-weight="bold" lengthAdjust="spacing" textLength="9" x="725.5" y="227.7871">5</text><text fill="#000000" font-family="sans-serif" font-size="13" lengthAdjust="spacing" textLength="93" x="738.5" y="227.7871">allCandidates()</text><polygon fill="#181818" points="1276,257.8398,1286,261.8398,1276,265.8398,1280,261.8398" style="stroke:#181818;stroke-width:1.0;"/><line style="stroke:#181818;stroke-width:1.0;" x1="1144" x2="1282" y1="261.8398" y2="261.8398"/><text fill="#000000" font-family="sans-serif" font-size="13" font-weight="bold" lengthAdjust="spacing" textLength="9" x="1151" y="257.0977">6</text><text fill="#000000" font-family="sans-serif" font-size="13" lengthAdjust="spacing" textLength="93" x="1164" y="257.0977">allCandidates()</text><polygon fill="#181818" points="1155,287.1504,1145,291.1504,1155,295.1504,1151,291.1504" style="stroke:#181818;stroke-width:1.0;"/><line style="stroke:#181818;stroke-width:1.0;stroke-dasharray:2.0,2.0;" x1="1149" x2="1292" y1="291.1504" y2="291.1504"/><text fill="#000000" font-family="sans-serif" font-size="13" font-weight="bold" lengthAdjust="spacing" textLength="9" x="1161" y="286.4082">7</text><text fill="#000000" font-family="sans-serif" font-size="13" lengthAdjust="spacing" textLength="107" x="1174" y="286.4082">listAllCandidates</text><polygon fill="#181818" points="729.5,316.4609,719.5,320.4609,729.5,324.4609,725.5,320.4609" style="stroke:#181818;stroke-width:1.0;"/><line style="stroke:#181818;stroke-width:1.0;stroke-dasharray:2.0,2.0;" x1="723.5" x2="1138" y1="320.4609" y2="320.4609"/><text fill="#000000" font-family="sans-serif" font-size="13" font-weight="bold" lengthAdjust="spacing" textLength="9" x="735.5" y="315.7188">8</text><text fill="#000000" font-family="sans-serif" font-size="13" lengthAdjust="spacing" textLength="107" x="748.5" y="315.7188">listAllCandidates</text><polygon fill="#181818" points="499.5,345.7715,489.5,349.7715,499.5,353.7715,495.5,349.7715" style="stroke:#181818;stroke-width:1.0;"/><line style="stroke:#181818;stroke-width:1.0;stroke-dasharray:2.0,2.0;" x1="493.5" x2="712.5" y1="349.7715" y2="349.7715"/><text fill="#000000" font-family="sans-serif" font-size="13" font-weight="bold" lengthAdjust="spacing" textLength="9" x="505.5" y="345.0293">9</text><text fill="#000000" font-family="sans-serif" font-size="13" lengthAdjust="spacing" textLength="107" x="518.5" y="345.0293">listAllCandidates</text><polygon fill="#181818" points="89.5,375.082,79.5,379.082,89.5,383.082,85.5,379.082" style="stroke:#181818;stroke-width:1.0;"/><line style="stroke:#181818;stroke-width:1.0;stroke-dasharray:2.0,2.0;" x1="83.5" x2="482.5" y1="379.082" y2="379.082"/><text fill="#000000" font-family="sans-serif" font-size="13" font-weight="bold" lengthAdjust="spacing" textLength="18" x="95.5" y="374.3398">10</text><text fill="#000000" font-family="sans-serif" font-size="13" lengthAdjust="spacing" textLength="354" x="117.5" y="374.3398">show listAllCandidates and asks to select one candidate</text><polygon fill="#181818" points="466.5,404.3926,476.5,408.3926,466.5,412.3926,470.5,408.3926" style="stroke:#181818;stroke-width:1.0;"/><line style="stroke:#181818;stroke-width:1.0;" x1="78.5" x2="472.5" y1="408.3926" y2="408.3926"/><text fill="#000000" font-family="sans-serif" font-size="13" font-weight="bold" lengthAdjust="spacing" textLength="18" x="85.5" y="403.6504">11</text><text fill="#000000" font-family="sans-serif" font-size="13" lengthAdjust="spacing" textLength="113" x="107.5" y="403.6504">select a candidate</text><polygon fill="#181818" points="696.5,433.7031,706.5,437.7031,696.5,441.7031,700.5,437.7031" style="stroke:#181818;stroke-width:1.0;"/><line style="stroke:#181818;stroke-width:1.0;" x1="488.5" x2="702.5" y1="437.7031" y2="437.7031"/><text fill="#000000" font-family="sans-serif" font-size="13" font-weight="bold" lengthAdjust="spacing" textLength="18" x="495.5" y="432.9609">12</text><text fill="#000000" font-family="sans-serif" font-size="13" lengthAdjust="spacing" textLength="145" x="517.5" y="432.9609">get all candidate's data</text><polygon fill="#181818" points="1413.5,463.0137,1423.5,467.0137,1413.5,471.0137,1417.5,467.0137" style="stroke:#181818;stroke-width:1.0;"/><line style="stroke:#181818;stroke-width:1.0;" x1="718.5" x2="1419.5" y1="467.0137" y2="467.0137"/><text fill="#000000" font-family="sans-serif" font-size="13" font-weight="bold" lengthAdjust="spacing" textLength="18" x="725.5" y="462.2715">13</text><text fill="#000000" font-family="sans-serif" font-size="13" lengthAdjust="spacing" textLength="35" x="747.5" y="462.2715">user()</text><polygon fill="#181818" points="729.5,492.3242,719.5,496.3242,729.5,500.3242,725.5,496.3242" style="stroke:#181818;stroke-width:1.0;"/><line style="stroke:#181818;stroke-width:1.0;stroke-dasharray:2.0,2.0;" x1="723.5" x2="1429.5" y1="496.3242" y2="496.3242"/><text fill="#000000" font-family="sans-serif" font-size="13" font-weight="bold" lengthAdjust="spacing" textLength="18" x="735.5" y="491.582">14</text><text fill="#000000" font-family="sans-serif" font-size="13" lengthAdjust="spacing" textLength="121" x="757.5" y="491.582">all candidate's data</text><polygon fill="#181818" points="499.5,521.6348,489.5,525.6348,499.5,529.6348,495.5,525.6348" style="stroke:#181818;stroke-width:1.0;"/><line style="stroke:#181818;stroke-width:1.0;stroke-dasharray:2.0,2.0;" x1="493.5" x2="712.5" y1="525.6348" y2="525.6348"/><text fill="#000000" font-family="sans-serif" font-size="13" font-weight="bold" lengthAdjust="spacing" textLength="18" x="505.5" y="520.8926">15</text><text fill="#000000" font-family="sans-serif" font-size="13" lengthAdjust="spacing" textLength="121" x="527.5" y="520.8926">all candidate's data</text><polygon fill="#181818" points="84.5,550.9453,74.5,554.9453,84.5,558.9453,80.5,554.9453" style="stroke:#181818;stroke-width:1.0;"/><line style="stroke:#181818;stroke-width:1.0;stroke-dasharray:2.0,2.0;" x1="78.5" x2="482.5" y1="554.9453" y2="554.9453"/><text fill="#000000" font-family="sans-serif" font-size="13" font-weight="bold" lengthAdjust="spacing" textLength="18" x="90.5" y="550.2031">16</text><text fill="#000000" font-family="sans-serif" font-size="13" lengthAdjust="spacing" textLength="170" x="112.5" y="550.2031">display all candidate's data</text><!--SRC=[hPN1Rjim38RlVWgYbsw7l80H10ZSmtOm1Ype0p0s4mkH9KEKsxfFFwdfBCrL5gUk3u4La_z7KIJ59w4wDDX2gvMk6gDR0cjwodZyqc5rmYFjx20935KMrL761jnWhP-5Ei819LEMOM-rwjizcIoxRqHDSD3QxlLBXfNL1kwAdgqZ6IXHEMbp1yXGb9dJiw8I7IeB3u8xYGCNg6fHeoL-G8kFFs6zxWmnAOjMQBNPpF0gjB96I-c8wtKrBYQ-szusseZNDzqTcITHaRFdyzl4U0Ia3Dt_k4UcOFMREit2RNvmXcPSJ4Ht0rjg7_ajJXuNpYhpgHDFJiddAOFtfoXXjRcSgjpbzSI080LRq0T0AQ4QhOBEA7v9AfXUX5qC9Ch-LmKK9Ay55i5TWCaZpe4KzuRyHrTMedA-jS_x3-Ij6duTldrF19QI2cP9q6fUYWpPtgXp6uw2DSqapqd3X-BD_K44Z-I6fqvH5KxbOaHK-JTHWby258ckqlln1RQDQSbKpgFTU7uteZznWl_l-NdyfOtbEzwdldH4RlJpHooujtE_MmrCqbqTe1M5VhyXhdW2NHrwxonCaMPo5awv8zb_HzizWxyK5WsuMQqThf0SUlSRDrc01gleQtJxpAdq_CeEepDDuPPM-MpuLnPwVRPO2lTLzlU9HqAP_G40]--></g></svg>