<?xml version="1.0" encoding="us-ascii" standalone="no"?><svg xmlns="http://www.w3.org/2000/svg" xmlns:xlink="http://www.w3.org/1999/xlink" contentStyleType="text/css" height="832.8px" preserveAspectRatio="none" style="width:580px;height:832px;background:#FFFFFF;" version="1.1" viewBox="0 0 580 832" width="580.8px" zoomAndPan="magnify"><defs/><g><text fill="#000000" font-family="sans-serif" font-size="5.6" font-weight="bold" lengthAdjust="spacing" textLength="58" x="258.6" y="10.043">Domain Model - 2002</text><!--cluster Operator Aggregate--><g id="cluster_Operator Aggregate"><rect fill="none" height="49.2" rx="1" ry="1" style="stroke:#000000;stroke-width:0.6000000000000001;" width="62.4" x="2.8" y="163.0484"/><text fill="#000000" font-family="sans-serif" font-size="5.6" font-weight="bold" lengthAdjust="spacing" textLength="56" x="6" y="169.8914">Operator Aggregate</text></g><!--cluster User Aggregate--><g id="cluster_User Aggregate"><rect fill="none" height="132.4" rx="1" ry="1" style="stroke:#000000;stroke-width:0.6000000000000001;" width="142" x="436.4" y="18.6484"/><text fill="#000000" font-family="sans-serif" font-size="5.6" font-weight="bold" lengthAdjust="spacing" textLength="44" x="485.4" y="25.4914">User Aggregate</text></g><!--cluster Candidate Aggregate--><g id="cluster_Candidate Aggregate"><rect fill="none" height="49.2" rx="1" ry="1" style="stroke:#000000;stroke-width:0.6000000000000001;" width="140.2" x="346.6" y="160.6484"/><text fill="#000000" font-family="sans-serif" font-size="5.6" font-weight="bold" lengthAdjust="spacing" textLength="59.2" x="387.1" y="167.4914">Candidate Aggregate</text></g><!--cluster Application Aggregate--><g id="cluster_Application Aggregate"><rect fill="none" height="226" rx="1" ry="1" style="stroke:#000000;stroke-width:0.6000000000000001;" width="253.4" x="161.4" y="219.4484"/><text fill="#000000" font-family="sans-serif" font-size="5.6" font-weight="bold" lengthAdjust="spacing" textLength="62" x="257.1" y="226.2914">Application Aggregate</text></g><!--cluster Job Opening Aggregate--><g id="cluster_Job Opening Aggregate"><rect fill="none" height="226" rx="1" ry="1" style="stroke:#000000;stroke-width:0.6000000000000001;" width="239.2" x="78.4" y="455.0484"/><text fill="#000000" font-family="sans-serif" font-size="5.6" font-weight="bold" lengthAdjust="spacing" textLength="66.8" x="164.6" y="461.8914">Job Opening Aggregate</text></g><!--cluster Process Aggregate--><g id="cluster_Process Aggregate"><rect fill="none" height="140" rx="1" ry="1" style="stroke:#000000;stroke-width:0.6000000000000001;" width="249.8" x="165" y="690.6484"/><text fill="#000000" font-family="sans-serif" font-size="5.6" font-weight="bold" lengthAdjust="spacing" textLength="53.6" x="263.1" y="697.4914">Process Aggregate</text></g><!--class Operator--><g id="elem_Operator"><rect codeLine="26" fill="#F0FFFF" height="27.4172" id="Operator" rx="1" ry="1" style="stroke:#000000;stroke-width:0.20000000000000004;" width="35.6" x="16" y="178.0484"/><ellipse cx="22" cy="190.157" fill="#ADD1B2" rx="4.4" ry="4.4" style="stroke:#181818;stroke-width:0.4000000000000001;"/><path d="M21.5438,190.4758 L21.5438,191.4758 L23.275,191.4758 L23.275,191.107 Q23.275,190.8633 23.3688,190.757 Q23.4688,190.6508 23.6188,190.6508 Q23.7688,190.6508 23.8625,190.757 Q23.9563,190.8633 23.9563,191.107 L23.9563,192.157 L20.7563,192.157 Q20.5063,192.157 20.4,192.0633 Q20.3,191.9695 20.3,191.8133 Q20.3,191.6633 20.4063,191.5695 Q20.5125,191.4758 20.7563,191.4758 L20.8625,191.4758 L20.8625,188.8133 L20.7563,188.8133 Q20.5063,188.8133 20.4,188.7195 Q20.3,188.6258 20.3,188.4695 Q20.3,188.3195 20.4,188.2258 Q20.5063,188.132 20.7563,188.132 L23.8063,188.132 L23.8063,189.1695 Q23.8063,189.4133 23.7125,189.5195 Q23.625,189.6195 23.4688,189.6195 Q23.3188,189.6195 23.225,189.5195 Q23.1313,189.4133 23.1313,189.1695 L23.1313,188.8133 L21.5438,188.8133 L21.5438,189.7945 L22.1375,189.7945 Q22.1375,189.532 22.1875,189.457 Q22.2938,189.2945 22.4813,189.2945 Q22.6313,189.2945 22.725,189.4008 Q22.8188,189.5008 22.8188,189.7445 L22.8188,190.532 Q22.8188,190.7508 22.7688,190.8258 Q22.6625,190.982 22.4813,190.982 Q22.2938,190.982 22.1875,190.8195 Q22.1375,190.7445 22.1375,190.4758 L21.5438,190.4758 Z " fill="#000000"/><text fill="#000000" font-family="sans-serif" font-size="4.8" font-style="italic" lengthAdjust="spacing" textLength="17.2" x="30.4" y="185.2281">&#171;entity&#187;</text><text fill="#000000" font-family="sans-serif" font-size="4.8" font-style="italic" lengthAdjust="spacing" textLength="14" x="32" y="191.6125">&#171;root&#187;</text><text fill="#000000" font-family="sans-serif" font-size="5.6" lengthAdjust="spacing" textLength="22.8" x="27.6" y="198.8602">Operator</text><line style="stroke:#000000;stroke-width:0.20000000000000004;" x1="16.4" x2="51.2" y1="202.2656" y2="202.2656"/></g><!--class User--><g id="elem_User"><rect codeLine="31" fill="#F0FFFF" height="27.4172" id="User" rx="1" ry="1" style="stroke:#000000;stroke-width:0.20000000000000004;" width="28.4" x="442.8" y="104.0484"/><ellipse cx="448.8" cy="116.157" fill="#ADD1B2" rx="4.4" ry="4.4" style="stroke:#181818;stroke-width:0.4000000000000001;"/><path d="M448.3438,116.4758 L448.3438,117.4758 L450.075,117.4758 L450.075,117.107 Q450.075,116.8633 450.1688,116.757 Q450.2688,116.6508 450.4188,116.6508 Q450.5688,116.6508 450.6625,116.757 Q450.7563,116.8633 450.7563,117.107 L450.7563,118.157 L447.5563,118.157 Q447.3063,118.157 447.2,118.0633 Q447.1,117.9695 447.1,117.8133 Q447.1,117.6633 447.2063,117.5695 Q447.3125,117.4758 447.5563,117.4758 L447.6625,117.4758 L447.6625,114.8133 L447.5563,114.8133 Q447.3063,114.8133 447.2,114.7195 Q447.1,114.6258 447.1,114.4695 Q447.1,114.3195 447.2,114.2258 Q447.3063,114.132 447.5563,114.132 L450.6063,114.132 L450.6063,115.1695 Q450.6063,115.4133 450.5125,115.5195 Q450.425,115.6195 450.2688,115.6195 Q450.1188,115.6195 450.025,115.5195 Q449.9313,115.4133 449.9313,115.1695 L449.9313,114.8133 L448.3438,114.8133 L448.3438,115.7945 L448.9375,115.7945 Q448.9375,115.532 448.9875,115.457 Q449.0938,115.2945 449.2813,115.2945 Q449.4313,115.2945 449.525,115.4008 Q449.6188,115.5008 449.6188,115.7445 L449.6188,116.532 Q449.6188,116.7508 449.5688,116.8258 Q449.4625,116.982 449.2813,116.982 Q449.0938,116.982 448.9875,116.8195 Q448.9375,116.7445 448.9375,116.4758 L448.3438,116.4758 Z " fill="#000000"/><text fill="#000000" font-family="sans-serif" font-size="4.8" font-style="italic" lengthAdjust="spacing" textLength="17.2" x="453.6" y="111.2281">&#171;entity&#187;</text><text fill="#000000" font-family="sans-serif" font-size="4.8" font-style="italic" lengthAdjust="spacing" textLength="14" x="455.2" y="117.6125">&#171;root&#187;</text><text fill="#000000" font-family="sans-serif" font-size="5.6" lengthAdjust="spacing" textLength="11.6" x="456.4" y="124.8602">User</text><line style="stroke:#000000;stroke-width:0.20000000000000004;" x1="443.2" x2="470.8" y1="128.2656" y2="128.2656"/></g><!--entity UserEmail--><g id="elem_UserEmail"><rect fill="#F0FFDD" height="17.2969" rx="1" ry="1" style="stroke:#000000;stroke-width:0.20000000000000004;" width="46.8" x="515.4" y="127.2484"/><text fill="#000000" font-family="sans-serif" font-size="5.6" font-style="italic" lengthAdjust="spacing" textLength="38.8" x="519.4" y="134.4914">&#171;Value Object&#187;</text><text fill="#000000" font-family="sans-serif" font-size="5.6" lengthAdjust="spacing" textLength="25.2" x="526.2" y="141.9398">UserEmail</text></g><!--entity UserName--><g id="elem_UserName"><rect fill="#F0FFDD" height="17.2969" rx="1" ry="1" style="stroke:#000000;stroke-width:0.20000000000000004;" width="46.8" x="515.4" y="96.0484"/><text fill="#000000" font-family="sans-serif" font-size="5.6" font-style="italic" lengthAdjust="spacing" textLength="38.8" x="519.4" y="103.2914">&#171;Value Object&#187;</text><text fill="#000000" font-family="sans-serif" font-size="5.6" lengthAdjust="spacing" textLength="26" x="525.8" y="110.7398">UserName</text></g><!--entity UserPassword--><g id="elem_UserPassword"><rect fill="#F0FFDD" height="17.2969" rx="1" ry="1" style="stroke:#000000;stroke-width:0.20000000000000004;" width="46.8" x="515.4" y="64.8484"/><text fill="#000000" font-family="sans-serif" font-size="5.6" font-style="italic" lengthAdjust="spacing" textLength="38.8" x="519.4" y="72.0914">&#171;Value Object&#187;</text><text fill="#000000" font-family="sans-serif" font-size="5.6" lengthAdjust="spacing" textLength="36" x="520.8" y="79.5398">UserPassword</text></g><!--entity UserTelephoneNumber--><g id="elem_UserTelephoneNumber"><rect fill="#F0FFDD" height="17.2969" rx="1" ry="1" style="stroke:#000000;stroke-width:0.20000000000000004;" width="66.4" x="505.6" y="33.6484"/><text fill="#000000" font-family="sans-serif" font-size="5.6" font-style="italic" lengthAdjust="spacing" textLength="38.8" x="519.4" y="40.8914">&#171;Value Object&#187;</text><text fill="#000000" font-family="sans-serif" font-size="5.6" lengthAdjust="spacing" textLength="58.4" x="509.6" y="48.3398">UserTelephoneNumber</text></g><!--class Candidate--><g id="elem_Candidate"><rect codeLine="50" fill="#F0FFFF" height="27.4172" id="Candidate" rx="1" ry="1" style="stroke:#000000;stroke-width:0.20000000000000004;" width="38.8" x="353" y="175.6484"/><ellipse cx="359" cy="187.757" fill="#ADD1B2" rx="4.4" ry="4.4" style="stroke:#181818;stroke-width:0.4000000000000001;"/><path d="M358.5438,188.0758 L358.5438,189.0758 L360.275,189.0758 L360.275,188.707 Q360.275,188.4633 360.3688,188.357 Q360.4688,188.2508 360.6188,188.2508 Q360.7688,188.2508 360.8625,188.357 Q360.9563,188.4633 360.9563,188.707 L360.9563,189.757 L357.7563,189.757 Q357.5063,189.757 357.4,189.6633 Q357.3,189.5695 357.3,189.4133 Q357.3,189.2633 357.4063,189.1695 Q357.5125,189.0758 357.7563,189.0758 L357.8625,189.0758 L357.8625,186.4133 L357.7563,186.4133 Q357.5063,186.4133 357.4,186.3195 Q357.3,186.2258 357.3,186.0695 Q357.3,185.9195 357.4,185.8258 Q357.5063,185.732 357.7563,185.732 L360.8063,185.732 L360.8063,186.7695 Q360.8063,187.0133 360.7125,187.1195 Q360.625,187.2195 360.4688,187.2195 Q360.3188,187.2195 360.225,187.1195 Q360.1313,187.0133 360.1313,186.7695 L360.1313,186.4133 L358.5438,186.4133 L358.5438,187.3945 L359.1375,187.3945 Q359.1375,187.132 359.1875,187.057 Q359.2938,186.8945 359.4813,186.8945 Q359.6313,186.8945 359.725,187.0008 Q359.8188,187.1008 359.8188,187.3445 L359.8188,188.132 Q359.8188,188.3508 359.7688,188.4258 Q359.6625,188.582 359.4813,188.582 Q359.2938,188.582 359.1875,188.4195 Q359.1375,188.3445 359.1375,188.0758 L358.5438,188.0758 Z " fill="#000000"/><text fill="#000000" font-family="sans-serif" font-size="4.8" font-style="italic" lengthAdjust="spacing" textLength="17.2" x="369" y="182.8281">&#171;entity&#187;</text><text fill="#000000" font-family="sans-serif" font-size="4.8" font-style="italic" lengthAdjust="spacing" textLength="14" x="370.6" y="189.2125">&#171;root&#187;</text><text fill="#000000" font-family="sans-serif" font-size="5.6" lengthAdjust="spacing" textLength="26" x="364.6" y="196.4602">Candidate</text><line style="stroke:#000000;stroke-width:0.20000000000000004;" x1="353.4" x2="391.4" y1="199.8656" y2="199.8656"/></g><!--entity Curriculum--><g id="elem_Curriculum"><rect fill="#F0FFDD" height="17.2969" rx="1" ry="1" style="stroke:#000000;stroke-width:0.20000000000000004;" width="46.8" x="433.6" y="180.8484"/><text fill="#000000" font-family="sans-serif" font-size="5.6" font-style="italic" lengthAdjust="spacing" textLength="38.8" x="437.6" y="188.0914">&#171;Value Object&#187;</text><text fill="#000000" font-family="sans-serif" font-size="5.6" lengthAdjust="spacing" textLength="27.2" x="443.4" y="195.5398">Curriculum</text></g><!--class Application--><g id="elem_Application"><rect codeLine="60" fill="#F0FFFF" height="27.4172" id="Application" rx="1" ry="1" style="stroke:#000000;stroke-width:0.20000000000000004;" width="40.4" x="167.8" y="307.2484"/><ellipse cx="173.8" cy="319.357" fill="#ADD1B2" rx="4.4" ry="4.4" style="stroke:#181818;stroke-width:0.4000000000000001;"/><path d="M173.3438,319.6758 L173.3438,320.6758 L175.075,320.6758 L175.075,320.307 Q175.075,320.0633 175.1688,319.957 Q175.2688,319.8508 175.4188,319.8508 Q175.5688,319.8508 175.6625,319.957 Q175.7563,320.0633 175.7563,320.307 L175.7563,321.357 L172.5563,321.357 Q172.3063,321.357 172.2,321.2633 Q172.1,321.1695 172.1,321.0133 Q172.1,320.8633 172.2063,320.7695 Q172.3125,320.6758 172.5563,320.6758 L172.6625,320.6758 L172.6625,318.0133 L172.5563,318.0133 Q172.3063,318.0133 172.2,317.9195 Q172.1,317.8258 172.1,317.6695 Q172.1,317.5195 172.2,317.4258 Q172.3063,317.332 172.5563,317.332 L175.6063,317.332 L175.6063,318.3695 Q175.6063,318.6133 175.5125,318.7195 Q175.425,318.8195 175.2688,318.8195 Q175.1188,318.8195 175.025,318.7195 Q174.9313,318.6133 174.9313,318.3695 L174.9313,318.0133 L173.3438,318.0133 L173.3438,318.9945 L173.9375,318.9945 Q173.9375,318.732 173.9875,318.657 Q174.0938,318.4945 174.2813,318.4945 Q174.4313,318.4945 174.525,318.6008 Q174.6188,318.7008 174.6188,318.9445 L174.6188,319.732 Q174.6188,319.9508 174.5688,320.0258 Q174.4625,320.182 174.2813,320.182 Q174.0938,320.182 173.9875,320.0195 Q173.9375,319.9445 173.9375,319.6758 L173.3438,319.6758 Z " fill="#000000"/><text fill="#000000" font-family="sans-serif" font-size="4.8" font-style="italic" lengthAdjust="spacing" textLength="17.2" x="184.6" y="314.4281">&#171;entity&#187;</text><text fill="#000000" font-family="sans-serif" font-size="4.8" font-style="italic" lengthAdjust="spacing" textLength="14" x="186.2" y="320.8125">&#171;root&#187;</text><text fill="#000000" font-family="sans-serif" font-size="5.6" lengthAdjust="spacing" textLength="27.6" x="179.4" y="328.0602">Application</text><line style="stroke:#000000;stroke-width:0.20000000000000004;" x1="168.2" x2="207.8" y1="331.4656" y2="331.4656"/></g><g id="elem_GMN34"><path d="M336.4,286.2484 L336.4,303.8484 L298.692,305.4484 L336.4,307.0484 L336.4,324.8305 A0,0 0 0 0 336.4,324.8305 L408.4,324.8305 A0,0 0 0 0 408.4,324.8305 L408.4,290.2484 L404.4,286.2484 L336.4,286.2484 A0,0 0 0 0 336.4,286.2484 " fill="#FEFFDD" style="stroke:#181818;stroke-width:0.20000000000000004;"/><path d="M404.4,286.2484 L404.4,290.2484 L408.4,290.2484 L404.4,286.2484 " fill="#FEFFDD" style="stroke:#181818;stroke-width:0.20000000000000004;"/><text fill="#000000" font-family="sans-serif" font-size="5.2" lengthAdjust="spacing" textLength="63.6" x="338.8" y="293.8598">Can be one of the following:</text><text fill="#000000" font-family="sans-serif" font-size="5.2" lengthAdjust="spacing" textLength="26" x="338.8" y="300.7762">- submitted</text><text fill="#000000" font-family="sans-serif" font-size="5.2" lengthAdjust="spacing" textLength="21.2" x="338.8" y="307.6926">- pending</text><text fill="#000000" font-family="sans-serif" font-size="5.2" lengthAdjust="spacing" textLength="24.4" x="338.8" y="314.609">- accepted</text><text fill="#000000" font-family="sans-serif" font-size="5.2" lengthAdjust="spacing" textLength="22.4" x="338.8" y="321.5254">- declined</text></g><!--entity EmailContentFile--><g id="elem_EmailContentFile"><rect fill="#F0FFDD" height="17.2969" rx="1" ry="1" style="stroke:#000000;stroke-width:0.20000000000000004;" width="50.8" x="249.8" y="421.6484"/><text fill="#000000" font-family="sans-serif" font-size="5.6" font-style="italic" lengthAdjust="spacing" textLength="38.8" x="255.8" y="428.8914">&#171;Value Object&#187;</text><text fill="#000000" font-family="sans-serif" font-size="5.6" lengthAdjust="spacing" textLength="42.8" x="253.8" y="436.3398">EmailContentFile</text></g><!--entity EmailFilesAttached--><g id="elem_EmailFilesAttached"><rect fill="#F0FFDD" height="17.2969" rx="1" ry="1" style="stroke:#000000;stroke-width:0.20000000000000004;" width="56" x="247.2" y="390.4484"/><text fill="#000000" font-family="sans-serif" font-size="5.6" font-style="italic" lengthAdjust="spacing" textLength="38.8" x="255.8" y="397.6914">&#171;Value Object&#187;</text><text fill="#000000" font-family="sans-serif" font-size="5.6" lengthAdjust="spacing" textLength="48" x="251.2" y="405.1398">EmailFilesAttached</text></g><!--entity FilesAttachedContent--><g id="elem_FilesAttachedContent"><rect fill="#F0FFDD" height="17.2969" rx="1" ry="1" style="stroke:#000000;stroke-width:0.20000000000000004;" width="62.4" x="244" y="359.2484"/><text fill="#000000" font-family="sans-serif" font-size="5.6" font-style="italic" lengthAdjust="spacing" textLength="38.8" x="255.8" y="366.4914">&#171;Value Object&#187;</text><text fill="#000000" font-family="sans-serif" font-size="5.6" lengthAdjust="spacing" textLength="54.4" x="248" y="373.9398">FilesAttachedContent</text></g><!--entity ApplicationDataFile--><g id="elem_ApplicationDataFile"><rect fill="#F0FFDD" height="17.2969" rx="1" ry="1" style="stroke:#000000;stroke-width:0.20000000000000004;" width="56.8" x="246.8" y="328.0484"/><text fill="#000000" font-family="sans-serif" font-size="5.6" font-style="italic" lengthAdjust="spacing" textLength="38.8" x="255.8" y="335.2914">&#171;Value Object&#187;</text><text fill="#000000" font-family="sans-serif" font-size="5.6" lengthAdjust="spacing" textLength="48.8" x="250.8" y="342.7398">ApplicationDataFile</text></g><!--entity Status--><g id="elem_Status"><rect fill="#F0FFDD" height="17.2969" rx="1" ry="1" style="stroke:#000000;stroke-width:0.20000000000000004;" width="46.8" x="251.8" y="296.8484"/><text fill="#000000" font-family="sans-serif" font-size="5.6" font-style="italic" lengthAdjust="spacing" textLength="38.8" x="255.8" y="304.0914">&#171;Value Object&#187;</text><text fill="#000000" font-family="sans-serif" font-size="5.6" lengthAdjust="spacing" textLength="16" x="267.2" y="311.5398">Status</text></g><!--entity SubmissionDate--><g id="elem_SubmissionDate"><rect fill="#F0FFDD" height="17.2969" rx="1" ry="1" style="stroke:#000000;stroke-width:0.20000000000000004;" width="48.8" x="250.8" y="265.6484"/><text fill="#000000" font-family="sans-serif" font-size="5.6" font-style="italic" lengthAdjust="spacing" textLength="38.8" x="255.8" y="272.8914">&#171;Value Object&#187;</text><text fill="#000000" font-family="sans-serif" font-size="5.6" lengthAdjust="spacing" textLength="40.8" x="254.8" y="280.3398">SubmissionDate</text></g><!--entity Rank--><g id="elem_Rank"><rect fill="#F0FFDD" height="17.2969" rx="1" ry="1" style="stroke:#000000;stroke-width:0.20000000000000004;" width="46.8" x="251.8" y="234.4484"/><text fill="#000000" font-family="sans-serif" font-size="5.6" font-style="italic" lengthAdjust="spacing" textLength="38.8" x="255.8" y="241.6914">&#171;Value Object&#187;</text><text fill="#000000" font-family="sans-serif" font-size="5.6" lengthAdjust="spacing" textLength="13.2" x="268.6" y="249.1398">Rank</text></g><!--class JobOpening--><g id="elem_JobOpening"><rect codeLine="96" fill="#F0FFFF" height="27.4172" id="JobOpening" rx="1" ry="1" style="stroke:#000000;stroke-width:0.20000000000000004;" width="43.2" x="84.8" y="558.4484"/><ellipse cx="90.8" cy="570.557" fill="#ADD1B2" rx="4.4" ry="4.4" style="stroke:#181818;stroke-width:0.4000000000000001;"/><path d="M90.3438,570.8758 L90.3438,571.8758 L92.075,571.8758 L92.075,571.507 Q92.075,571.2633 92.1688,571.157 Q92.2688,571.0508 92.4188,571.0508 Q92.5688,571.0508 92.6625,571.157 Q92.7563,571.2633 92.7563,571.507 L92.7563,572.557 L89.5563,572.557 Q89.3063,572.557 89.2,572.4633 Q89.1,572.3695 89.1,572.2133 Q89.1,572.0633 89.2063,571.9695 Q89.3125,571.8758 89.5563,571.8758 L89.6625,571.8758 L89.6625,569.2133 L89.5563,569.2133 Q89.3063,569.2133 89.2,569.1195 Q89.1,569.0258 89.1,568.8695 Q89.1,568.7195 89.2,568.6258 Q89.3063,568.532 89.5563,568.532 L92.6063,568.532 L92.6063,569.5695 Q92.6063,569.8133 92.5125,569.9195 Q92.425,570.0195 92.2688,570.0195 Q92.1188,570.0195 92.025,569.9195 Q91.9313,569.8133 91.9313,569.5695 L91.9313,569.2133 L90.3438,569.2133 L90.3438,570.1945 L90.9375,570.1945 Q90.9375,569.932 90.9875,569.857 Q91.0938,569.6945 91.2813,569.6945 Q91.4313,569.6945 91.525,569.8008 Q91.6188,569.9008 91.6188,570.1445 L91.6188,570.932 Q91.6188,571.1508 91.5688,571.2258 Q91.4625,571.382 91.2813,571.382 Q91.0938,571.382 90.9875,571.2195 Q90.9375,571.1445 90.9375,570.8758 L90.3438,570.8758 Z " fill="#000000"/><text fill="#000000" font-family="sans-serif" font-size="4.8" font-style="italic" lengthAdjust="spacing" textLength="17.2" x="103" y="565.6281">&#171;entity&#187;</text><text fill="#000000" font-family="sans-serif" font-size="4.8" font-style="italic" lengthAdjust="spacing" textLength="14" x="104.6" y="572.0125">&#171;root&#187;</text><text fill="#000000" font-family="sans-serif" font-size="5.6" lengthAdjust="spacing" textLength="30.4" x="96.4" y="579.2602">JobOpening</text><line style="stroke:#000000;stroke-width:0.20000000000000004;" x1="85.2" x2="127.6" y1="582.6656" y2="582.6656"/></g><g id="elem_GMN53"><path d="M239.2,595.4484 L239.2,604.4324 L211.44,604.6204 L239.2,607.6324 L239.2,620.1977 A0,0 0 0 0 239.2,620.1977 L311.2,620.1977 A0,0 0 0 0 311.2,620.1977 L311.2,599.4484 L307.2,595.4484 L239.2,595.4484 A0,0 0 0 0 239.2,595.4484 " fill="#FEFFDD" style="stroke:#181818;stroke-width:0.20000000000000004;"/><path d="M307.2,595.4484 L307.2,599.4484 L311.2,599.4484 L307.2,595.4484 " fill="#FEFFDD" style="stroke:#181818;stroke-width:0.20000000000000004;"/><text fill="#000000" font-family="sans-serif" font-size="5.2" lengthAdjust="spacing" textLength="63.6" x="241.6" y="603.0598">Can be one of the following:</text><text fill="#000000" font-family="sans-serif" font-size="5.2" lengthAdjust="spacing" textLength="21.2" x="241.6" y="609.9762">- full-time</text><text fill="#000000" font-family="sans-serif" font-size="5.2" lengthAdjust="spacing" textLength="23.6" x="241.6" y="616.8926">- part-time</text></g><g id="elem_GMN56"><path d="M239.2,549.6484 L239.2,566.6564 L211.44,570.4364 L239.2,569.8564 L239.2,581.3141 A0,0 0 0 0 239.2,581.3141 L311.2,581.3141 A0,0 0 0 0 311.2,581.3141 L311.2,553.6484 L307.2,549.6484 L239.2,549.6484 A0,0 0 0 0 239.2,549.6484 " fill="#FEFFDD" style="stroke:#181818;stroke-width:0.20000000000000004;"/><path d="M307.2,549.6484 L307.2,553.6484 L311.2,553.6484 L307.2,549.6484 " fill="#FEFFDD" style="stroke:#181818;stroke-width:0.20000000000000004;"/><text fill="#000000" font-family="sans-serif" font-size="5.2" lengthAdjust="spacing" textLength="63.6" x="241.6" y="557.2598">Can be one of the following:</text><text fill="#000000" font-family="sans-serif" font-size="5.2" lengthAdjust="spacing" textLength="19.2" x="241.6" y="564.1762">- remote</text><text fill="#000000" font-family="sans-serif" font-size="5.2" lengthAdjust="spacing" textLength="17.2" x="241.6" y="571.0926">- hybrid</text><text fill="#000000" font-family="sans-serif" font-size="5.2" lengthAdjust="spacing" textLength="17.2" x="241.6" y="578.009">- onsite</text></g><!--entity JobReference--><g id="elem_JobReference"><rect fill="#F0FFDD" height="17.2969" rx="1" ry="1" style="stroke:#000000;stroke-width:0.20000000000000004;" width="46.8" x="164.6" y="657.2484"/><text fill="#000000" font-family="sans-serif" font-size="5.6" font-style="italic" lengthAdjust="spacing" textLength="38.8" x="168.6" y="664.4914">&#171;Value Object&#187;</text><text fill="#000000" font-family="sans-serif" font-size="5.6" lengthAdjust="spacing" textLength="35.2" x="170.4" y="671.9398">JobReference</text></g><!--entity TitleOrFunction--><g id="elem_TitleOrFunction"><rect fill="#F0FFDD" height="17.2969" rx="1" ry="1" style="stroke:#000000;stroke-width:0.20000000000000004;" width="47.2" x="164.4" y="626.0484"/><text fill="#000000" font-family="sans-serif" font-size="5.6" font-style="italic" lengthAdjust="spacing" textLength="38.8" x="168.6" y="633.2914">&#171;Value Object&#187;</text><text fill="#000000" font-family="sans-serif" font-size="5.6" lengthAdjust="spacing" textLength="39.2" x="168.4" y="640.7398">TitleOrFunction</text></g><!--entity ContractType--><g id="elem_ContractType"><rect fill="#F0FFDD" height="17.2969" rx="1" ry="1" style="stroke:#000000;stroke-width:0.20000000000000004;" width="46.8" x="164.6" y="594.8484"/><text fill="#000000" font-family="sans-serif" font-size="5.6" font-style="italic" lengthAdjust="spacing" textLength="38.8" x="168.6" y="602.0914">&#171;Value Object&#187;</text><text fill="#000000" font-family="sans-serif" font-size="5.6" lengthAdjust="spacing" textLength="34.4" x="170.8" y="609.5398">ContractType</text></g><!--entity Mode--><g id="elem_Mode"><rect fill="#F0FFDD" height="17.2969" rx="1" ry="1" style="stroke:#000000;stroke-width:0.20000000000000004;" width="46.8" x="164.6" y="563.6484"/><text fill="#000000" font-family="sans-serif" font-size="5.6" font-style="italic" lengthAdjust="spacing" textLength="38.8" x="168.6" y="570.8914">&#171;Value Object&#187;</text><text fill="#000000" font-family="sans-serif" font-size="5.6" lengthAdjust="spacing" textLength="14" x="181" y="578.3398">Mode</text></g><!--entity Address--><g id="elem_Address"><rect fill="#F0FFDD" height="17.2969" rx="1" ry="1" style="stroke:#000000;stroke-width:0.20000000000000004;" width="46.8" x="164.6" y="532.4484"/><text fill="#000000" font-family="sans-serif" font-size="5.6" font-style="italic" lengthAdjust="spacing" textLength="38.8" x="168.6" y="539.6914">&#171;Value Object&#187;</text><text fill="#000000" font-family="sans-serif" font-size="5.6" lengthAdjust="spacing" textLength="20.8" x="177.6" y="547.1398">Address</text></g><!--entity VacanciesNumber--><g id="elem_VacanciesNumber"><rect fill="#F0FFDD" height="17.2969" rx="1" ry="1" style="stroke:#000000;stroke-width:0.20000000000000004;" width="53.6" x="161.2" y="501.2484"/><text fill="#000000" font-family="sans-serif" font-size="5.6" font-style="italic" lengthAdjust="spacing" textLength="38.8" x="168.6" y="508.4914">&#171;Value Object&#187;</text><text fill="#000000" font-family="sans-serif" font-size="5.6" lengthAdjust="spacing" textLength="45.6" x="165.2" y="515.9398">VacanciesNumber</text></g><!--entity Description--><g id="elem_Description"><rect fill="#F0FFDD" height="17.2969" rx="1" ry="1" style="stroke:#000000;stroke-width:0.20000000000000004;" width="46.8" x="164.6" y="470.0484"/><text fill="#000000" font-family="sans-serif" font-size="5.6" font-style="italic" lengthAdjust="spacing" textLength="38.8" x="168.6" y="477.2914">&#171;Value Object&#187;</text><text fill="#000000" font-family="sans-serif" font-size="5.6" lengthAdjust="spacing" textLength="28.4" x="173.8" y="484.7398">Description</text></g><!--class Process--><g id="elem_Process"><rect codeLine="137" fill="#F0FFFF" height="27.4172" id="Process" rx="1" ry="1" style="stroke:#000000;stroke-width:0.20000000000000004;" width="33.2" x="171.4" y="721.2484"/><ellipse cx="177.4" cy="733.357" fill="#ADD1B2" rx="4.4" ry="4.4" style="stroke:#181818;stroke-width:0.4000000000000001;"/><path d="M176.9438,733.6758 L176.9438,734.6758 L178.675,734.6758 L178.675,734.307 Q178.675,734.0633 178.7688,733.957 Q178.8688,733.8508 179.0188,733.8508 Q179.1688,733.8508 179.2625,733.957 Q179.3563,734.0633 179.3563,734.307 L179.3563,735.357 L176.1563,735.357 Q175.9063,735.357 175.8,735.2633 Q175.7,735.1695 175.7,735.0133 Q175.7,734.8633 175.8063,734.7695 Q175.9125,734.6758 176.1563,734.6758 L176.2625,734.6758 L176.2625,732.0133 L176.1563,732.0133 Q175.9063,732.0133 175.8,731.9195 Q175.7,731.8258 175.7,731.6695 Q175.7,731.5195 175.8,731.4258 Q175.9063,731.332 176.1563,731.332 L179.2063,731.332 L179.2063,732.3695 Q179.2063,732.6133 179.1125,732.7195 Q179.025,732.8195 178.8688,732.8195 Q178.7188,732.8195 178.625,732.7195 Q178.5313,732.6133 178.5313,732.3695 L178.5313,732.0133 L176.9438,732.0133 L176.9438,732.9945 L177.5375,732.9945 Q177.5375,732.732 177.5875,732.657 Q177.6938,732.4945 177.8813,732.4945 Q178.0313,732.4945 178.125,732.6008 Q178.2188,732.7008 178.2188,732.9445 L178.2188,733.732 Q178.2188,733.9508 178.1688,734.0258 Q178.0625,734.182 177.8813,734.182 Q177.6938,734.182 177.5875,734.0195 Q177.5375,733.9445 177.5375,733.6758 L176.9438,733.6758 Z " fill="#000000"/><text fill="#000000" font-family="sans-serif" font-size="4.8" font-style="italic" lengthAdjust="spacing" textLength="17.2" x="184.6" y="728.4281">&#171;entity&#187;</text><text fill="#000000" font-family="sans-serif" font-size="4.8" font-style="italic" lengthAdjust="spacing" textLength="14" x="186.2" y="734.8125">&#171;root&#187;</text><text fill="#000000" font-family="sans-serif" font-size="5.6" lengthAdjust="spacing" textLength="20.4" x="183" y="742.0602">Process</text><line style="stroke:#000000;stroke-width:0.20000000000000004;" x1="171.8" x2="204.2" y1="745.4656" y2="745.4656"/></g><g id="elem_GMN65"><path d="M336.4,705.4484 L336.4,733.4484 L298.692,735.0484 L336.4,736.6484 L336.4,764.7797 A0,0 0 0 0 336.4,764.7797 L408.4,764.7797 A0,0 0 0 0 408.4,764.7797 L408.4,709.4484 L404.4,705.4484 L336.4,705.4484 A0,0 0 0 0 336.4,705.4484 " fill="#FEFFDD" style="stroke:#181818;stroke-width:0.20000000000000004;"/><path d="M404.4,705.4484 L404.4,709.4484 L408.4,709.4484 L404.4,705.4484 " fill="#FEFFDD" style="stroke:#181818;stroke-width:0.20000000000000004;"/><text fill="#000000" font-family="sans-serif" font-size="5.2" lengthAdjust="spacing" textLength="63.6" x="338.8" y="713.0598">Can be one of the following:</text><text fill="#000000" font-family="sans-serif" font-size="5.2" lengthAdjust="spacing" textLength="48.4" x="338.8" y="719.9762">- ScreeningStartDate</text><text fill="#000000" font-family="sans-serif" font-size="5.2" lengthAdjust="spacing" textLength="46.4" x="338.8" y="726.8926">- ScreeningEndDate</text><text fill="#000000" font-family="sans-serif" font-size="5.2" lengthAdjust="spacing" textLength="47.6" x="338.8" y="733.809">- InterviewsStartDate</text><text fill="#000000" font-family="sans-serif" font-size="5.2" lengthAdjust="spacing" textLength="45.6" x="338.8" y="740.7254">- InterviewsEndDate</text><text fill="#000000" font-family="sans-serif" font-size="5.2" lengthAdjust="spacing" textLength="45.2" x="338.8" y="747.6418">- AnalysisStartDate</text><text fill="#000000" font-family="sans-serif" font-size="5.2" lengthAdjust="spacing" textLength="43.2" x="338.8" y="754.5582">- AnalysisEndDate</text><text fill="#000000" font-family="sans-serif" font-size="5.2" lengthAdjust="spacing" textLength="28.8" x="338.8" y="761.4746">- ResultDate</text></g><g id="elem_GMN68"><path d="M336.4,778.6484 L336.4,790.0684 L298.692,781.3724 L336.4,793.2684 L336.4,824.1469 A0,0 0 0 0 336.4,824.1469 L408.4,824.1469 A0,0 0 0 0 408.4,824.1469 L408.4,782.6484 L404.4,778.6484 L336.4,778.6484 A0,0 0 0 0 336.4,778.6484 " fill="#FEFFDD" style="stroke:#181818;stroke-width:0.20000000000000004;"/><path d="M404.4,778.6484 L404.4,782.6484 L408.4,782.6484 L404.4,778.6484 " fill="#FEFFDD" style="stroke:#181818;stroke-width:0.20000000000000004;"/><text fill="#000000" font-family="sans-serif" font-size="5.2" lengthAdjust="spacing" textLength="63.6" x="338.8" y="786.2598">Can be one of the following:</text><text fill="#000000" font-family="sans-serif" font-size="5.2" lengthAdjust="spacing" textLength="28.8" x="338.8" y="793.1762">- Application</text><text fill="#000000" font-family="sans-serif" font-size="5.2" lengthAdjust="spacing" textLength="26.4" x="338.8" y="800.0926">- Screening</text><text fill="#000000" font-family="sans-serif" font-size="5.2" lengthAdjust="spacing" textLength="25.6" x="338.8" y="807.009">- Interviews</text><text fill="#000000" font-family="sans-serif" font-size="5.2" lengthAdjust="spacing" textLength="23.2" x="338.8" y="813.9254">- Analysis</text><text fill="#000000" font-family="sans-serif" font-size="5.2" lengthAdjust="spacing" textLength="18" x="338.8" y="820.8418">- Result</text></g><!--entity ProcessState--><g id="elem_ProcessState"><rect fill="#F0FFDD" height="17.2969" rx="1" ry="1" style="stroke:#000000;stroke-width:0.20000000000000004;" width="46.8" x="251.8" y="766.4484"/><text fill="#000000" font-family="sans-serif" font-size="5.6" font-style="italic" lengthAdjust="spacing" textLength="38.8" x="255.8" y="773.6914">&#171;Value Object&#187;</text><text fill="#000000" font-family="sans-serif" font-size="5.6" lengthAdjust="spacing" textLength="33.6" x="258.4" y="781.1398">ProcessState</text></g><!--entity ProcessDate--><g id="elem_ProcessDate"><rect fill="#F0FFDD" height="17.2969" rx="1" ry="1" style="stroke:#000000;stroke-width:0.20000000000000004;" width="46.8" x="251.8" y="726.4484"/><text fill="#000000" font-family="sans-serif" font-size="5.6" font-style="italic" lengthAdjust="spacing" textLength="38.8" x="255.8" y="733.6914">&#171;Value Object&#187;</text><text fill="#000000" font-family="sans-serif" font-size="5.6" lengthAdjust="spacing" textLength="32.4" x="259" y="741.1398">ProcessDate</text></g><!--link User to UserEmail--><g id="link_User_UserEmail"><path codeLine="42" d="M471.324,120.9444 C483.4,123.6284 498.7812,127.0436 512.9772,130.1996 " fill="none" id="User-to-UserEmail" style="stroke:#808080;stroke-width:0.4000000000000001;"/><polygon fill="#808080" points="515.32,130.7204,512.153,128.3773,513.3677,130.2864,511.4586,131.501,515.32,130.7204" style="stroke:#808080;stroke-width:0.4000000000000001;"/></g><!--link User to UserName--><g id="link_User_UserName"><path codeLine="43" d="M471.324,115.5804 C483.4,113.6124 498.7553,111.1109 512.9513,108.7949 " fill="none" id="User-to-UserName" style="stroke:#808080;stroke-width:0.4000000000000001;"/><polygon fill="#808080" points="515.32,108.4084,511.5093,107.409,513.3461,108.7305,512.0246,110.5672,515.32,108.4084" style="stroke:#808080;stroke-width:0.4000000000000001;"/></g><!--link User to UserTelephoneNumber--><g id="link_User_UserTelephoneNumber"><path codeLine="44" d="M465.9,103.9564 C474.56,90.7284 489.04,70.9404 505.6,57.8484 C508.916,55.2284 510.61,54.0184 514.454,52.0224 " fill="none" id="User-to-UserTelephoneNumber" style="stroke:#808080;stroke-width:0.4000000000000001;"/><polygon fill="#808080" points="516.584,50.9164,512.6517,51.1554,514.809,51.8381,514.1264,53.9954,516.584,50.9164" style="stroke:#808080;stroke-width:0.4000000000000001;"/></g><!--link User to UserPassword--><g id="link_User_UserPassword"><path codeLine="45" d="M471.224,109.1124 C480.752,103.2124 493.78,95.3724 505.6,89.0484 C510.048,86.6684 512.7545,85.2871 517.3505,83.0911 " fill="none" id="User-to-UserPassword" style="stroke:#808080;stroke-width:0.4000000000000001;"/><polygon fill="#808080" points="519.516,82.0564,515.5779,82.1648,517.7114,82.9187,516.9575,85.0521,519.516,82.0564" style="stroke:#808080;stroke-width:0.4000000000000001;"/></g><!--link Candidate to Curriculum--><g id="link_Candidate_Curriculum"><path codeLine="55" d="M391.816,189.4484 C404.176,189.4484 417.972,189.4484 431.08,189.4484 " fill="none" id="Candidate-to-Curriculum" style="stroke:#808080;stroke-width:0.4000000000000001;"/><polygon fill="#808080" points="433.48,189.4484,429.88,187.8484,431.48,189.4484,429.88,191.0484,433.48,189.4484" style="stroke:#808080;stroke-width:0.4000000000000001;"/></g><!--link Application to EmailContentFile--><g id="link_Application_EmailContentFile"><path codeLine="77" d="M192.696,334.9444 C199.536,355.0004 214.696,392.1284 239.2,414.6484 C242.28,417.4804 243.8262,418.7461 247.6302,420.7221 " fill="none" id="Application-to-EmailContentFile" style="stroke:#808080;stroke-width:0.4000000000000001;"/><polygon fill="#808080" points="249.76,421.8284,247.3029,418.7491,247.9852,420.9065,245.8278,421.5888,249.76,421.8284" style="stroke:#808080;stroke-width:0.4000000000000001;"/></g><!--link Application to EmailFilesAttached--><g id="link_Application_EmailFilesAttached"><path codeLine="78" d="M196.884,334.9524 C205.916,348.7924 221.356,369.8764 239.2,383.4484 C242.692,386.1044 244.5468,387.3645 248.5908,389.3365 " fill="none" id="Application-to-EmailFilesAttached" style="stroke:#808080;stroke-width:0.4000000000000001;"/><polygon fill="#808080" points="250.748,390.3884,248.2135,387.3724,248.9503,389.5118,246.8109,390.2487,250.748,390.3884" style="stroke:#808080;stroke-width:0.4000000000000001;"/></g><!--link Application to FilesAttachedContent--><g id="link_Application_FilesAttachedContent"><path codeLine="79" d="M208.3,334.1484 C217.528,339.9964 228.744,346.7804 239.2,352.2484 C243.804,354.6564 246.6661,356.0554 251.4821,358.1914 " fill="none" id="Application-to-FilesAttachedContent" style="stroke:#808080;stroke-width:0.4000000000000001;"/><polygon fill="#808080" points="253.676,359.1644,251.0338,356.2423,251.8478,358.3536,249.7365,359.1675,253.676,359.1644" style="stroke:#808080;stroke-width:0.4000000000000001;"/></g><!--link Application to ApplicationDataFile--><g id="link_Application_ApplicationDataFile"><path codeLine="80" d="M208.22,324.6284 C219.632,326.6884 231.7903,328.8815 244.3583,331.1535 " fill="none" id="Application-to-ApplicationDataFile" style="stroke:#808080;stroke-width:0.4000000000000001;"/><polygon fill="#808080" points="246.72,331.5804,243.462,329.3655,244.7519,331.2247,242.8928,332.5145,246.72,331.5804" style="stroke:#808080;stroke-width:0.4000000000000001;"/></g><!--link Application to Status--><g id="link_Application_Status"><path codeLine="81" d="M208.22,317.4684 C221.176,315.1324 235.7783,312.4954 249.3423,310.0434 " fill="none" id="Application-to-Status" style="stroke:#808080;stroke-width:0.4000000000000001;"/><polygon fill="#808080" points="251.704,309.6164,247.8768,308.6824,249.7359,309.9722,248.446,311.8313,251.704,309.6164" style="stroke:#808080;stroke-width:0.4000000000000001;"/></g><!--link Application to SubmissionDate--><g id="link_Application_SubmissionDate"><path codeLine="82" d="M208.3,307.9484 C217.528,302.1004 228.744,295.3164 239.2,289.8484 C243.804,287.4404 246.6661,286.0415 251.4821,283.9055 " fill="none" id="Application-to-SubmissionDate" style="stroke:#808080;stroke-width:0.4000000000000001;"/><polygon fill="#808080" points="253.676,282.9324,249.7365,282.9294,251.8478,283.7433,251.0338,285.8546,253.676,282.9324" style="stroke:#808080;stroke-width:0.4000000000000001;"/></g><!--link Application to Rank--><g id="link_Application_Rank"><path codeLine="83" d="M196.884,307.1444 C205.916,293.3044 221.356,272.2204 239.2,258.6484 C242.96,255.7884 245.1556,254.357 249.5156,252.289 " fill="none" id="Application-to-Rank" style="stroke:#808080;stroke-width:0.4000000000000001;"/><polygon fill="#808080" points="251.684,251.2604,247.7457,251.3576,249.877,252.1175,249.117,254.2488,251.684,251.2604" style="stroke:#808080;stroke-width:0.4000000000000001;"/></g><!--link JobOpening to JobReference--><g id="link_JobOpening_JobReference"><path codeLine="113" d="M113.252,586.1644 C121.64,603.0564 137.684,631.5884 158.2,650.2484 C161.108,652.8924 162.4663,654.0312 165.9463,656.0432 " fill="none" id="JobOpening-to-JobReference" style="stroke:#808080;stroke-width:0.4000000000000001;"/><polygon fill="#808080" points="168.024,657.2444,165.7082,654.0574,166.2926,656.2434,164.1066,656.8277,168.024,657.2444" style="stroke:#808080;stroke-width:0.4000000000000001;"/></g><!--link JobOpening to TitleOrFunction--><g id="link_JobOpening_TitleOrFunction"><path codeLine="114" d="M120.068,586.0604 C130.004,595.9604 144.236,609.2204 158.2,619.0484 C161.744,621.5444 163.6281,622.7649 167.5001,624.8729 " fill="none" id="JobOpening-to-TitleOrFunction" style="stroke:#808080;stroke-width:0.4000000000000001;"/><polygon fill="#808080" points="169.608,626.0204,167.2112,622.8938,167.8514,625.0641,165.6812,625.7043,169.608,626.0204" style="stroke:#808080;stroke-width:0.4000000000000001;"/></g><!--link JobOpening to ContractType--><g id="link_JobOpening_ContractType"><path codeLine="115" d="M128.028,580.4444 C139.484,584.8684 151.3773,589.4593 163.0013,593.9513 " fill="none" id="JobOpening-to-ContractType" style="stroke:#808080;stroke-width:0.4000000000000001;"/><polygon fill="#808080" points="165.24,594.8164,162.4588,592.0263,163.3745,594.0955,161.3053,595.0112,165.24,594.8164" style="stroke:#808080;stroke-width:0.4000000000000001;"/></g><!--link JobOpening to Mode--><g id="link_JobOpening_Mode"><path codeLine="116" d="M128.028,572.2484 C139.252,572.2484 150.64,572.2484 162.128,572.2484 " fill="none" id="JobOpening-to-Mode" style="stroke:#808080;stroke-width:0.4000000000000001;"/><polygon fill="#808080" points="164.528,572.2484,160.928,570.6484,162.528,572.2484,160.928,573.8484,164.528,572.2484" style="stroke:#808080;stroke-width:0.4000000000000001;"/></g><!--link JobOpening to Address--><g id="link_JobOpening_Address"><path codeLine="117" d="M128.028,564.0524 C139.484,559.6284 151.3773,555.0375 163.0013,550.5455 " fill="none" id="JobOpening-to-Address" style="stroke:#808080;stroke-width:0.4000000000000001;"/><polygon fill="#808080" points="165.24,549.6804,161.3053,549.4857,163.3745,550.4014,162.4588,552.4705,165.24,549.6804" style="stroke:#808080;stroke-width:0.4000000000000001;"/></g><!--link JobOpening to VacanciesNumber--><g id="link_JobOpening_VacanciesNumber"><path codeLine="118" d="M120.068,558.4364 C130.004,548.5364 144.236,535.2764 158.2,525.4484 C161.744,522.9524 163.6281,521.732 167.5001,519.624 " fill="none" id="JobOpening-to-VacanciesNumber" style="stroke:#808080;stroke-width:0.4000000000000001;"/><polygon fill="#808080" points="169.608,518.4764,165.6812,518.7925,167.8514,519.4327,167.2112,521.603,169.608,518.4764" style="stroke:#808080;stroke-width:0.4000000000000001;"/></g><!--link JobOpening to Description--><g id="link_JobOpening_Description"><path codeLine="119" d="M113.252,558.3324 C121.64,541.4404 137.684,512.9084 158.2,494.2484 C161.108,491.6044 162.4663,490.4657 165.9463,488.4537 " fill="none" id="JobOpening-to-Description" style="stroke:#808080;stroke-width:0.4000000000000001;"/><polygon fill="#808080" points="168.024,487.2524,164.1066,487.6692,166.2926,488.2535,165.7082,490.4395,168.024,487.2524" style="stroke:#808080;stroke-width:0.4000000000000001;"/></g><!--link Process to ProcessState--><g id="link_Process_ProcessState"><path codeLine="144" d="M204.652,742.5724 C219.316,749.3604 238.7022,758.3359 254.0422,765.4399 " fill="none" id="Process-to-ProcessState" style="stroke:#808080;stroke-width:0.4000000000000001;"/><polygon fill="#808080" points="256.22,766.4484,253.6257,763.4837,254.4052,765.608,252.2809,766.3875,256.22,766.4484" style="stroke:#808080;stroke-width:0.4000000000000001;"/></g><!--link Process to ProcessDate--><g id="link_Process_ProcessDate"><path codeLine="145" d="M204.652,735.0484 C217.948,735.0484 234.516,735.0484 249.376,735.0484 " fill="none" id="Process-to-ProcessDate" style="stroke:#808080;stroke-width:0.4000000000000001;"/><polygon fill="#808080" points="251.776,735.0484,248.176,733.4484,249.776,735.0484,248.176,736.6484,251.776,735.0484" style="stroke:#808080;stroke-width:0.4000000000000001;"/></g><!--reverse link JobOpening to Application--><g id="link_JobOpening_Application"><path codeLine="169" d="M111.9947,556.0997 C126.1187,512.1797 169.048,378.7284 183.156,334.8684 " fill="none" id="JobOpening-backto-Application" style="stroke:#808080;stroke-width:0.4000000000000001;"/><polygon fill="#808080" points="111.26,558.3844,113.8853,555.4471,111.8723,556.4805,110.8389,554.4675,111.26,558.3844" style="stroke:#808080;stroke-width:0.4000000000000001;"/><text fill="#000000" font-family="sans-serif" font-size="5.2" lengthAdjust="spacing" textLength="8.4" x="140.4" y="445.0598">has</text><text fill="#000000" font-family="sans-serif" font-size="5.2" lengthAdjust="spacing" textLength="2.8" x="109.1196" y="553.9333">1</text><text fill="#000000" font-family="sans-serif" font-size="5.2" lengthAdjust="spacing" textLength="3.6" x="176.6766" y="343.4652">N</text></g><!--link JobOpening to Process--><g id="link_JobOpening_Process"><path codeLine="170" d="M113.04,586.1124 C122.472,606.9044 141.076,647.3364 158.2,681.0484 C165.208,694.8484 172.5421,708.2449 178.5941,719.0849 " fill="none" id="JobOpening-to-Process" style="stroke:#808080;stroke-width:0.4000000000000001;"/><polygon fill="#808080" points="179.764,721.1804,179.4061,717.2572,178.7891,719.4342,176.6121,718.8171,179.764,721.1804" style="stroke:#808080;stroke-width:0.4000000000000001;"/></g><!--link Application to Candidate--><g id="link_Application_Candidate"><path codeLine="171" d="M192.152,307.2164 C198.432,286.7204 213.024,248.4484 239.2,227.4484 C272.964,200.3604 322.7437,192.7723 350.5797,190.5403 " fill="none" id="Application-to-Candidate" style="stroke:#808080;stroke-width:0.4000000000000001;"/><polygon fill="#808080" points="352.972,190.3484,349.2556,189.0413,350.9784,190.5083,349.5114,192.2311,352.972,190.3484" style="stroke:#808080;stroke-width:0.4000000000000001;"/><text fill="#000000" font-family="sans-serif" font-size="5.2" lengthAdjust="spacing" textLength="3.6" x="189.0004" y="302.7714">N</text><text fill="#000000" font-family="sans-serif" font-size="5.2" lengthAdjust="spacing" textLength="2.8" x="346.9827" y="196.6411">1</text></g><!--link Operator to User--><g id="link_Operator_User"><path codeLine="172" d="M44.16,177.9764 C56.664,162.3324 79.696,139.0484 106,139.0484 C106,139.0484 106,139.0484 372.8,139.0484 C398.088,139.0484 424.1508,130.7231 440.5428,124.4431 " fill="none" id="Operator-to-User" style="stroke:#808080;stroke-width:0.4000000000000001;"/><polygon fill="#808080" points="442.784,123.5844,438.8499,123.3783,440.9164,124.3,439.9947,126.3665,442.784,123.5844" style="stroke:#808080;stroke-width:0.4000000000000001;"/></g><!--link Candidate to User--><g id="link_Candidate_User"><path codeLine="173" d="M390.132,175.5764 C399.532,167.9684 411.304,158.3084 421.6,149.4484 C428.676,143.3604 434.6139,138.0447 440.9979,132.2287 " fill="none" id="Candidate-to-User" style="stroke:#808080;stroke-width:0.4000000000000001;"/><polygon fill="#808080" points="442.772,130.6124,439.0333,131.8541,441.2935,131.9594,441.1883,134.2196,442.772,130.6124" style="stroke:#808080;stroke-width:0.4000000000000001;"/></g><!--link Operator to Application--><g id="link_Operator_Application"><path codeLine="174" d="M50.616,205.6764 C80.104,230.5084 139.8644,280.8422 169.3484,305.6782 " fill="none" id="Operator-to-Application" style="stroke:#808080;stroke-width:0.4000000000000001;"/><polygon fill="#808080" points="171.184,307.2244,169.4615,303.6814,169.6544,305.9359,167.3999,306.1289,171.184,307.2244" style="stroke:#808080;stroke-width:0.4000000000000001;"/><text fill="#000000" font-family="sans-serif" font-size="5.2" lengthAdjust="spacing" textLength="20" x="96.4" y="225.8598">registers</text><text fill="#000000" font-family="sans-serif" font-size="5.2" lengthAdjust="spacing" textLength="2.8" x="50.4656" y="214.2745">1</text><text fill="#000000" font-family="sans-serif" font-size="5.2" lengthAdjust="spacing" textLength="3.6" x="164.0353" y="302.781">N</text></g><!--SRC=[fLPTRzem57tFhx2oXpqXTNsi41A5KdNg0BLixyQv91wE7TdE49hwtsSd8N4I4rAD5wHxplqwljTEGYD0AUX4H2fWSD182oHfd6WKKGb4Ky63h-f8UOObJX6Z7FGv0oIayGc27TKCKBWKAQOS_H0HC3H1ztTtzs4GD6w4OQNGtm2PtoizmAi9yoXa178Xc91eYUNnaUNG9c1oZAN8ULIIvjljwyjYldlPh0jU5_-okbkPNu7DfHIdqXnBE9Ty9-6U6UVWmwqnCnOSmxi-cuviwvZ735fTO1aDDF4i0VZ_Tx1STZkmwZpxkdYyT57LZi9D1X9hcoesVSTOGrWM35nJVKOrFfsMbjbiEfL2wDaiQ0NwgQ0Tf0fGs7tEDaaXa6KycN5WXlOBcqD5c_rl8-TiLcdtqUQkSGeZgLipHIVJ_qZw3XXaYU2mpjDzKVOLh-Alw6mocJKDzCssrhwrawTFkDJTbdY1UKGZewvFvmOS57kHIqb9plBqHdTDF5jKuzOkQPvbZ19ijzvNb0iFbbN8jn1S6ywAiZ7dMxXOhffhZKa2_LFk-RJeLRhRNauNIwonjxwUqxl6EbSZUFa-fKgLiKV4VSFyU9LLNWIEwFRikjfU9xNayT9y0dg97isyl58cFzHInaknOfHDSs74AzyXSN2ZLhECzkO9uc11dG0w2CR4YVBueIPDaB89jQvQBsqPc3NWiMF1X43M9aL0x3iNLHTdL5JJNfJlOc_lKcvY-HR5m1TqS4yCxmqE886JCJjIlBORkSevgNRmbeSzKuc9tjat-pRTFk0ZQFCeag3K2EOlJ30d5DIjAxZsM88YacR3_HL_ZiXsU5mjVNX7F1_5LSk7MtbyzaeF7zGHm4TnElODVw-eJwp08MTiecaAxWfWgHjRCzxzp7MxurEQ-19IeS6r9EUzf95h4LnH3GFxjPM2s0dpxDO56boiYcGlZZ43NT6NW-pYxvBT7foRv1fOt7KURLtuauVwJko7fZ6Qn5At8ZZW4uywq8kvtkKV2YVbSspGlkUSOtPMrEjtmVfURw1orj279gsdv2VaS1uHdmxU5ZtrzmhlJsTdTyDl8PfE9YXSex3rb3sW1FSk0tSeUezVk0uDRWWsPlsfLj3gB_RBnwJdSwusrsGRfmouxjPczeag8uGA_W40]--></g></svg>