<?xml version="1.0" encoding="us-ascii" standalone="no"?><svg xmlns="http://www.w3.org/2000/svg" xmlns:xlink="http://www.w3.org/1999/xlink" contentStyleType="text/css" height="510px" preserveAspectRatio="none" style="width:1458px;height:510px;background:#FFFFFF;" version="1.1" viewBox="0 0 1458 510" width="1458px" zoomAndPan="magnify"><defs/><g><!--cluster ui--><g id="cluster_ui"><path d="M8.5,128 L23.5,128 A3.75,3.75 0 0 1 26,130.5 L33,150.4883 L399.5,150.4883 A2.5,2.5 0 0 1 402,152.9883 L402,324.5 A2.5,2.5 0 0 1 399.5,327 L8.5,327 A2.5,2.5 0 0 1 6,324.5 L6,130.5 A2.5,2.5 0 0 1 8.5,128 " fill="none" style="stroke:#000000;stroke-width:1.5;"/><line style="stroke:#000000;stroke-width:1.5;" x1="6" x2="33" y1="150.4883" y2="150.4883"/><text fill="#000000" font-family="sans-serif" font-size="14" font-weight="bold" lengthAdjust="spacing" textLength="14" x="10" y="143.5352">ui</text></g><!--cluster authz--><g id="cluster_authz"><path d="M469.5,6 L510.5,6 A3.75,3.75 0 0 1 513,8.5 L520,28.4883 L1448.5,28.4883 A2.5,2.5 0 0 1 1451,30.9883 L1451,500.5 A2.5,2.5 0 0 1 1448.5,503 L469.5,503 A2.5,2.5 0 0 1 467,500.5 L467,8.5 A2.5,2.5 0 0 1 469.5,6 " fill="none" style="stroke:#000000;stroke-width:1.5;"/><line style="stroke:#000000;stroke-width:1.5;" x1="467" x2="520" y1="28.4883" y2="28.4883"/><text fill="#000000" font-family="sans-serif" font-size="14" font-weight="bold" lengthAdjust="spacing" textLength="40" x="471" y="21.5352">authz</text></g><!--cluster application--><g id="cluster_application"><path d="M493.5,112 L574.5,112 A3.75,3.75 0 0 1 577,114.5 L584,134.4883 L908.5,134.4883 A2.5,2.5 0 0 1 911,136.9883 L911,340.5 A2.5,2.5 0 0 1 908.5,343 L493.5,343 A2.5,2.5 0 0 1 491,340.5 L491,114.5 A2.5,2.5 0 0 1 493.5,112 " fill="none" style="stroke:#000000;stroke-width:1.5;"/><line style="stroke:#000000;stroke-width:1.5;" x1="491" x2="584" y1="134.4883" y2="134.4883"/><text fill="#000000" font-family="sans-serif" font-size="14" font-weight="bold" lengthAdjust="spacing" textLength="80" x="495" y="127.5352">application</text></g><!--cluster user--><g id="cluster_user"><path d="M1002.5,49 L1034.5,49 A3.75,3.75 0 0 1 1037,51.5 L1044,71.4883 L1424.5,71.4883 A2.5,2.5 0 0 1 1427,73.9883 L1427,476.5 A2.5,2.5 0 0 1 1424.5,479 L1002.5,479 A2.5,2.5 0 0 1 1000,476.5 L1000,51.5 A2.5,2.5 0 0 1 1002.5,49 " fill="none" style="stroke:#000000;stroke-width:1.5;"/><line style="stroke:#000000;stroke-width:1.5;" x1="1000" x2="1044" y1="71.4883" y2="71.4883"/><text fill="#000000" font-family="sans-serif" font-size="14" font-weight="bold" lengthAdjust="spacing" textLength="31" x="1004" y="64.5352">user</text></g><!--class AddUserUI--><g id="elem_AddUserUI"><rect codeLine="5" fill="#F1F1F1" height="146.9297" id="AddUserUI" rx="2.5" ry="2.5" style="stroke:#181818;stroke-width:0.5;" width="364" x="22" y="163.5"/><ellipse cx="163.25" cy="179.5" fill="#ADD1B2" rx="11" ry="11" style="stroke:#181818;stroke-width:1.0;"/><path d="M166.2231,185.1431 Q165.6421,185.4419 165.0029,185.5913 Q164.3638,185.7407 163.6582,185.7407 Q161.1514,185.7407 159.8315,184.0889 Q158.5117,182.437 158.5117,179.3159 Q158.5117,176.1865 159.8315,174.5347 Q161.1514,172.8828 163.6582,172.8828 Q164.3638,172.8828 165.0112,173.0322 Q165.6587,173.1816 166.2231,173.4805 L166.2231,176.2031 Q165.5923,175.6221 164.9988,175.3523 Q164.4053,175.0825 163.7744,175.0825 Q162.4297,175.0825 161.7449,176.1492 Q161.0601,177.2158 161.0601,179.3159 Q161.0601,181.4077 161.7449,182.4744 Q162.4297,183.541 163.7744,183.541 Q164.4053,183.541 164.9988,183.2712 Q165.5923,183.0015 166.2231,182.4204 Z " fill="#000000"/><text fill="#000000" font-family="sans-serif" font-size="14" lengthAdjust="spacing" textLength="73" x="183.75" y="184.791">AddUserUI</text><line style="stroke:#181818;stroke-width:0.5;" x1="23" x2="385" y1="195.5" y2="195.5"/><line style="stroke:#181818;stroke-width:0.5;" x1="23" x2="385" y1="203.5" y2="203.5"/><ellipse cx="33" cy="217.2441" fill="#84BE84" rx="3" ry="3" style="stroke:#038048;stroke-width:1.0;"/><text fill="#000000" font-family="sans-serif" font-size="14" lengthAdjust="spacing" textLength="65" x="42" y="221.0352">doShow()</text><ellipse cx="33" cy="233.7324" fill="#84BE84" rx="3" ry="3" style="stroke:#038048;stroke-width:1.0;"/><text fill="#000000" font-family="sans-serif" font-size="14" lengthAdjust="spacing" textLength="150" x="42" y="237.5234">showRoles(roleTypes)</text><ellipse cx="33" cy="250.2207" fill="#84BE84" rx="3" ry="3" style="stroke:#038048;stroke-width:1.0;"/><text fill="#000000" font-family="sans-serif" font-size="14" lengthAdjust="spacing" textLength="187" x="42" y="254.0117">buildRolesMenu(roleTypes)</text><ellipse cx="33" cy="266.709" fill="#84BE84" rx="3" ry="3" style="stroke:#038048;stroke-width:1.0;"/><text fill="#000000" font-family="sans-serif" font-size="14" lengthAdjust="spacing" textLength="338" x="42" y="270.5">buildCustomerManagerAvailableRoles(roleTypes)</text><ellipse cx="33" cy="283.1973" fill="#84BE84" rx="3" ry="3" style="stroke:#038048;stroke-width:1.0;"/><text fill="#000000" font-family="sans-serif" font-size="14" lengthAdjust="spacing" textLength="273" x="42" y="286.9883">buildOperatorAvailableRoles(roleTypes)</text><ellipse cx="33" cy="299.6855" fill="#84BE84" rx="3" ry="3" style="stroke:#038048;stroke-width:1.0;"/><text fill="#000000" font-family="sans-serif" font-size="14" lengthAdjust="spacing" textLength="69" x="42" y="303.4766">headline()</text></g><!--class AddUserController--><g id="elem_AddUserController"><rect codeLine="16" fill="#F1F1F1" height="179.9063" id="AddUserController" rx="2.5" ry="2.5" style="stroke:#181818;stroke-width:0.5;" width="388" x="507" y="147"/><ellipse cx="632.25" cy="163" fill="#ADD1B2" rx="11" ry="11" style="stroke:#181818;stroke-width:1.0;"/><path d="M635.2231,168.6431 Q634.6421,168.9419 634.0029,169.0913 Q633.3638,169.2407 632.6582,169.2407 Q630.1514,169.2407 628.8315,167.5889 Q627.5117,165.937 627.5117,162.8159 Q627.5117,159.6865 628.8315,158.0347 Q630.1514,156.3828 632.6582,156.3828 Q633.3638,156.3828 634.0112,156.5322 Q634.6587,156.6816 635.2231,156.9805 L635.2231,159.7031 Q634.5923,159.1221 633.9988,158.8523 Q633.4053,158.5825 632.7744,158.5825 Q631.4297,158.5825 630.7449,159.6492 Q630.0601,160.7158 630.0601,162.8159 Q630.0601,164.9077 630.7449,165.9744 Q631.4297,167.041 632.7744,167.041 Q633.4053,167.041 633.9988,166.7712 Q634.5923,166.5015 635.2231,165.9204 Z " fill="#000000"/><text fill="#000000" font-family="sans-serif" font-size="14" lengthAdjust="spacing" textLength="129" x="652.75" y="168.291">AddUserController</text><line style="stroke:#181818;stroke-width:0.5;" x1="508" x2="894" y1="179" y2="179"/><line style="stroke:#181818;stroke-width:0.5;" x1="508" x2="894" y1="187" y2="187"/><ellipse cx="518" cy="200.7441" fill="#84BE84" rx="3" ry="3" style="stroke:#038048;stroke-width:1.0;"/><text fill="#000000" font-family="sans-serif" font-size="14" lengthAdjust="spacing" textLength="183" x="527" y="204.5352">passwordGenerator(name)</text><ellipse cx="518" cy="217.2324" fill="#84BE84" rx="3" ry="3" style="stroke:#038048;stroke-width:1.0;"/><text fill="#000000" font-family="sans-serif" font-size="14" lengthAdjust="spacing" textLength="282" x="527" y="221.0234">addUser(username, password, firstName,</text><text fill="#000000" font-family="sans-serif" font-size="14" lengthAdjust="spacing" textLength="362" x="527" y="237.5117">lastName, email, roles, CurrentTimeCalendars.now())</text><ellipse cx="518" cy="250.209" fill="#84BE84" rx="3" ry="3" style="stroke:#038048;stroke-width:1.0;"/><text fill="#000000" font-family="sans-serif" font-size="14" lengthAdjust="spacing" textLength="208" x="527" y="254">addUser(username, password,</text><text fill="#000000" font-family="sans-serif" font-size="14" lengthAdjust="spacing" textLength="229" x="527" y="270.4883">firstName, lastName, email, roles)</text><ellipse cx="518" cy="283.1855" fill="#84BE84" rx="3" ry="3" style="stroke:#038048;stroke-width:1.0;"/><text fill="#000000" font-family="sans-serif" font-size="14" lengthAdjust="spacing" textLength="303" x="527" y="286.9766">registerNewUser(name,password,email,role)</text><ellipse cx="518" cy="299.6738" fill="#84BE84" rx="3" ry="3" style="stroke:#038048;stroke-width:1.0;"/><text fill="#000000" font-family="sans-serif" font-size="14" lengthAdjust="spacing" textLength="102" x="527" y="303.4648">getRoleTypes()</text><ellipse cx="518" cy="316.1621" fill="#84BE84" rx="3" ry="3" style="stroke:#038048;stroke-width:1.0;"/><text fill="#000000" font-family="sans-serif" font-size="14" lengthAdjust="spacing" textLength="87" x="527" y="319.9531">getAllRoles()</text></g><!--class UserManagementService--><g id="elem_UserManagementService"><rect codeLine="30" fill="#F1F1F1" height="245.8594" id="UserManagementService" rx="2.5" ry="2.5" style="stroke:#181818;stroke-width:0.5;" width="395" x="1016" y="217"/><ellipse cx="1125.25" cy="233" fill="#ADD1B2" rx="11" ry="11" style="stroke:#181818;stroke-width:1.0;"/><path d="M1128.2231,238.6431 Q1127.6421,238.9419 1127.0029,239.0913 Q1126.3638,239.2407 1125.6582,239.2407 Q1123.1514,239.2407 1121.8315,237.5889 Q1120.5117,235.937 1120.5117,232.8159 Q1120.5117,229.6865 1121.8315,228.0347 Q1123.1514,226.3828 1125.6582,226.3828 Q1126.3638,226.3828 1127.0112,226.5322 Q1127.6587,226.6816 1128.2231,226.9805 L1128.2231,229.7031 Q1127.5923,229.1221 1126.9988,228.8523 Q1126.4053,228.5825 1125.7744,228.5825 Q1124.4297,228.5825 1123.7449,229.6492 Q1123.0601,230.7158 1123.0601,232.8159 Q1123.0601,234.9077 1123.7449,235.9744 Q1124.4297,237.041 1125.7744,237.041 Q1126.4053,237.041 1126.9988,236.7712 Q1127.5923,236.5015 1128.2231,235.9204 Z " fill="#000000"/><text fill="#000000" font-family="sans-serif" font-size="14" lengthAdjust="spacing" textLength="168" x="1145.75" y="238.291">UserManagementService</text><line style="stroke:#181818;stroke-width:0.5;" x1="1017" x2="1410" y1="249" y2="249"/><line style="stroke:#181818;stroke-width:0.5;" x1="1017" x2="1410" y1="257" y2="257"/><ellipse cx="1027" cy="270.7441" fill="#84BE84" rx="3" ry="3" style="stroke:#038048;stroke-width:1.0;"/><text fill="#000000" font-family="sans-serif" font-size="14" lengthAdjust="spacing" textLength="355" x="1036" y="274.5352">UserManagementService(userRepo, policy, encoder)</text><ellipse cx="1027" cy="287.2324" fill="#84BE84" rx="3" ry="3" style="stroke:#038048;stroke-width:1.0;"/><text fill="#000000" font-family="sans-serif" font-size="14" lengthAdjust="spacing" textLength="296" x="1036" y="291.0234">registerNewUser( username,  rawPassword,</text><text fill="#000000" font-family="sans-serif" font-size="14" lengthAdjust="spacing" textLength="316" x="1036" y="307.5117">firstName,  lastName,  email, roles, createdOn)</text><ellipse cx="1027" cy="320.209" fill="#84BE84" rx="3" ry="3" style="stroke:#038048;stroke-width:1.0;"/><text fill="#000000" font-family="sans-serif" font-size="14" lengthAdjust="spacing" textLength="296" x="1036" y="324">registerNewUser( username,  rawPassword,</text><text fill="#000000" font-family="sans-serif" font-size="14" lengthAdjust="spacing" textLength="237" x="1036" y="340.4883">firstName,  lastName,  email, roles)</text><ellipse cx="1027" cy="353.1855" fill="#84BE84" rx="3" ry="3" style="stroke:#038048;stroke-width:1.0;"/><text fill="#000000" font-family="sans-serif" font-size="14" lengthAdjust="spacing" textLength="369" x="1036" y="356.9766">registerUser(username, password, name, email, roles)</text><ellipse cx="1027" cy="369.6738" fill="#84BE84" rx="3" ry="3" style="stroke:#038048;stroke-width:1.0;"/><text fill="#000000" font-family="sans-serif" font-size="14" lengthAdjust="spacing" textLength="87" x="1036" y="373.4648">activeUsers()</text><ellipse cx="1027" cy="386.1621" fill="#84BE84" rx="3" ry="3" style="stroke:#038048;stroke-width:1.0;"/><text fill="#000000" font-family="sans-serif" font-size="14" lengthAdjust="spacing" textLength="126" x="1036" y="389.9531">deactivatedUsers()</text><ellipse cx="1027" cy="402.6504" fill="#84BE84" rx="3" ry="3" style="stroke:#038048;stroke-width:1.0;"/><text fill="#000000" font-family="sans-serif" font-size="14" lengthAdjust="spacing" textLength="64" x="1036" y="406.4414">allUsers()</text><ellipse cx="1027" cy="419.1387" fill="#84BE84" rx="3" ry="3" style="stroke:#038048;stroke-width:1.0;"/><text fill="#000000" font-family="sans-serif" font-size="14" lengthAdjust="spacing" textLength="120" x="1036" y="422.9297">userOfIdentity(id)</text><ellipse cx="1027" cy="435.627" fill="#84BE84" rx="3" ry="3" style="stroke:#038048;stroke-width:1.0;"/><text fill="#000000" font-family="sans-serif" font-size="14" lengthAdjust="spacing" textLength="140" x="1036" y="439.418">deactivateUser(user)</text><ellipse cx="1027" cy="452.1152" fill="#84BE84" rx="3" ry="3" style="stroke:#038048;stroke-width:1.0;"/><text fill="#000000" font-family="sans-serif" font-size="14" lengthAdjust="spacing" textLength="123" x="1036" y="455.9063">activateUser(user)</text></g><!--class Jobs4UPasswordPolicy--><g id="elem_Jobs4UPasswordPolicy"><rect codeLine="45" fill="#F1F1F1" height="97.4648" id="Jobs4UPasswordPolicy" rx="2.5" ry="2.5" style="stroke:#181818;stroke-width:0.5;" width="210" x="1108.5" y="84.5"/><ellipse cx="1135.2" cy="100.5" fill="#ADD1B2" rx="11" ry="11" style="stroke:#181818;stroke-width:1.0;"/><path d="M1138.1731,106.1431 Q1137.5921,106.4419 1136.9529,106.5913 Q1136.3138,106.7407 1135.6082,106.7407 Q1133.1014,106.7407 1131.7815,105.0889 Q1130.4617,103.437 1130.4617,100.3159 Q1130.4617,97.1865 1131.7815,95.5347 Q1133.1014,93.8828 1135.6082,93.8828 Q1136.3138,93.8828 1136.9612,94.0322 Q1137.6087,94.1816 1138.1731,94.4805 L1138.1731,97.2031 Q1137.5423,96.6221 1136.9488,96.3523 Q1136.3553,96.0825 1135.7244,96.0825 Q1134.3797,96.0825 1133.6949,97.1492 Q1133.0101,98.2158 1133.0101,100.3159 Q1133.0101,102.4077 1133.6949,103.4744 Q1134.3797,104.541 1135.7244,104.541 Q1136.3553,104.541 1136.9488,104.2712 Q1137.5423,104.0015 1138.1731,103.4204 Z " fill="#000000"/><text fill="#000000" font-family="sans-serif" font-size="14" lengthAdjust="spacing" textLength="152" x="1151.8" y="105.791">Jobs4UPasswordPolicy</text><line style="stroke:#181818;stroke-width:0.5;" x1="1109.5" x2="1317.5" y1="116.5" y2="116.5"/><line style="stroke:#181818;stroke-width:0.5;" x1="1109.5" x2="1317.5" y1="124.5" y2="124.5"/><ellipse cx="1119.5" cy="138.2441" fill="#84BE84" rx="3" ry="3" style="stroke:#038048;stroke-width:1.0;"/><text fill="#000000" font-family="sans-serif" font-size="14" lengthAdjust="spacing" textLength="184" x="1128.5" y="142.0352">isSatisfiedBy(rawPassword)</text><ellipse cx="1119.5" cy="154.7324" fill="#84BE84" rx="3" ry="3" style="stroke:#038048;stroke-width:1.0;"/><text fill="#000000" font-family="sans-serif" font-size="14" lengthAdjust="spacing" textLength="183" x="1128.5" y="158.5234">passwordGenerator(name)</text><ellipse cx="1119.5" cy="171.2207" fill="#84BE84" rx="3" ry="3" style="stroke:#038048;stroke-width:1.0;"/><text fill="#000000" font-family="sans-serif" font-size="14" lengthAdjust="spacing" textLength="158" x="1128.5" y="175.0117">strength(rawPassword)</text></g><!--link AddUserUI to AddUserController--><g id="link_AddUserUI_AddUserController"><path codeLine="55" d="M386.16,237 C425.36,237 460.95,237 500.6,237 " fill="none" id="AddUserUI-to-AddUserController" style="stroke:#181818;stroke-width:1.0;"/><polygon fill="#181818" points="506.6,237,497.6,233,501.6,237,497.6,241,506.6,237" style="stroke:#181818;stroke-width:1.0;"/></g><!--link AddUserController to Jobs4UPasswordPolicy--><g id="link_AddUserController_Jobs4UPasswordPolicy"><path codeLine="57" d="M895.36,197.61 C967.61,182.89 1041.0107,167.9374 1102.2407,155.4674 " fill="none" id="AddUserController-to-Jobs4UPasswordPolicy" style="stroke:#181818;stroke-width:1.0;"/><polygon fill="#181818" points="1108.12,154.27,1098.5028,152.1465,1103.2206,155.2678,1100.0993,159.9856,1108.12,154.27" style="stroke:#181818;stroke-width:1.0;"/></g><!--link AddUserController to UserManagementService--><g id="link_AddUserController_UserManagementService"><path codeLine="59" d="M895.36,276.01 C934.73,283.96 970.3086,291.133 1009.7986,299.103 " fill="none" id="AddUserController-to-UserManagementService" style="stroke:#181818;stroke-width:1.0;"/><polygon fill="#181818" points="1015.68,300.29,1007.6492,294.5885,1010.7788,299.3008,1006.0665,302.4304,1015.68,300.29" style="stroke:#181818;stroke-width:1.0;"/></g><!--SRC=[jLJBRjim4BphAmXVgY1sJpqNS7meKY1nOCSVi1RN4X6A59QK3JVelsT9HQ_OIdEf10ZWlcPdbgjlxaMP2WXAePL1VwvGMFA5JJGUlF1MaCeBBwGYpBoo9aago5uWHp6hrKoy9fa6vyHIofr3sjspHV1pAwJT5lQKthmV7HysLgDBYR_FZEDQrxvMMaRV0vfwmh-gdRSbqWCO1gVb4PI6lSRFQguh9F3sdy6YG921FdVxbz-E8TI- -3Dx7HYgIgiCWX0Nt5VMU2wjaJeDAdQVBCbVQ9fEKWCbjh3GvAKrVu9ztiNFnK6Hyu_168CPfpa9B9dBN0GERYvMDH4Q_wnAN8568u7STnDa_m98ZEY19a3QGeIvSXxf4K-nO2pMrMeoGa8RdwFVj4Ad0-DIwsOCZTR3-yHbUrK3I3FiaXbkaOugmqxPgzv8SeELPPAMvtHc9YQp4ccAXEXb4GIdfobf1jfyc41621xbslmlY8zr9w-CcHmTyEOUCIJsav0OhQ7tiGEq7Xi2rlfmBrbdvS-fafSbkfv6Y6C7ZxePx6-xTpzshGvFSL3TN9NRydQvWq9vTqu7UjryQQMSvtN8VJ7EZFSiNBN-BxLOB7vUBcuNCTZb67cjvydWgtSpUGC0]--></g></svg>