<?xml version="1.0" encoding="us-ascii" standalone="no"?><svg xmlns="http://www.w3.org/2000/svg" xmlns:xlink="http://www.w3.org/1999/xlink" contentStyleType="text/css" height="406.4px" preserveAspectRatio="none" style="width:1496px;height:406px;background:#FFFFFF;" version="1.1" viewBox="0 0 1496 406" width="1496px" zoomAndPan="magnify"><defs/><g><!--class AddUserUI--><g id="elem_AddUserUI"><rect codeLine="4" fill="#F1F1F1" height="117.5438" id="AddUserUI" rx="2" ry="2" style="stroke:#181818;stroke-width:0.4000000000000001;" width="291.2" x="5.6" y="84.8"/><ellipse cx="118.6" cy="97.6" fill="#ADD1B2" rx="8.8" ry="8.8" style="stroke:#181818;stroke-width:0.8000000000000002;"/><path d="M120.9785,102.1145 Q120.5137,102.3535 120.0023,102.473 Q119.491,102.5926 118.9266,102.5926 Q116.9211,102.5926 115.8652,101.2711 Q114.8094,99.9496 114.8094,97.4527 Q114.8094,94.9492 115.8652,93.6277 Q116.9211,92.3063 118.9266,92.3063 Q119.491,92.3063 120.009,92.4258 Q120.527,92.5453 120.9785,92.7844 L120.9785,94.9625 Q120.4738,94.4977 119.999,94.2818 Q119.5242,94.066 119.0195,94.066 Q117.9438,94.066 117.3959,94.9193 Q116.848,95.7727 116.848,97.4527 Q116.848,99.1262 117.3959,99.9795 Q117.9438,100.8328 119.0195,100.8328 Q119.5242,100.8328 119.999,100.617 Q120.4738,100.4012 120.9785,99.9363 Z " fill="#000000"/><text fill="#000000" font-family="sans-serif" font-size="11.2" lengthAdjust="spacing" textLength="58.4" x="135" y="101.8328">AddUserUI</text><line style="stroke:#181818;stroke-width:0.4000000000000001;" x1="6.4" x2="296" y1="110.4" y2="110.4"/><line style="stroke:#181818;stroke-width:0.4000000000000001;" x1="6.4" x2="296" y1="116.8" y2="116.8"/><ellipse cx="14.4" cy="127.7953" fill="#84BE84" rx="2.4" ry="2.4" style="stroke:#038048;stroke-width:0.8000000000000002;"/><text fill="#000000" font-family="sans-serif" font-size="11.2" lengthAdjust="spacing" textLength="52" x="21.6" y="130.8281">doShow()</text><ellipse cx="14.4" cy="140.9859" fill="#84BE84" rx="2.4" ry="2.4" style="stroke:#038048;stroke-width:0.8000000000000002;"/><text fill="#000000" font-family="sans-serif" font-size="11.2" lengthAdjust="spacing" textLength="120" x="21.6" y="144.0188">showRoles(roleTypes)</text><ellipse cx="14.4" cy="154.1766" fill="#84BE84" rx="2.4" ry="2.4" style="stroke:#038048;stroke-width:0.8000000000000002;"/><text fill="#000000" font-family="sans-serif" font-size="11.2" lengthAdjust="spacing" textLength="149.6" x="21.6" y="157.2094">buildRolesMenu(roleTypes)</text><ellipse cx="14.4" cy="167.3672" fill="#84BE84" rx="2.4" ry="2.4" style="stroke:#038048;stroke-width:0.8000000000000002;"/><text fill="#000000" font-family="sans-serif" font-size="11.2" lengthAdjust="spacing" textLength="270.4" x="21.6" y="170.4">buildCustomerManagerAvailableRoles(roleTypes)</text><ellipse cx="14.4" cy="180.5578" fill="#84BE84" rx="2.4" ry="2.4" style="stroke:#038048;stroke-width:0.8000000000000002;"/><text fill="#000000" font-family="sans-serif" font-size="11.2" lengthAdjust="spacing" textLength="218.4" x="21.6" y="183.5906">buildOperatorAvailableRoles(roleTypes)</text><ellipse cx="14.4" cy="193.7484" fill="#84BE84" rx="2.4" ry="2.4" style="stroke:#038048;stroke-width:0.8000000000000002;"/><text fill="#000000" font-family="sans-serif" font-size="11.2" lengthAdjust="spacing" textLength="55.2" x="21.6" y="196.7813">headline()</text></g><!--class AddUserController--><g id="elem_AddUserController"><rect codeLine="13" fill="#F1F1F1" height="143.925" id="AddUserController" rx="2" ry="2" style="stroke:#181818;stroke-width:0.4000000000000001;" width="310.4" x="393.6" y="71.6"/><ellipse cx="493.8" cy="84.4" fill="#ADD1B2" rx="8.8" ry="8.8" style="stroke:#181818;stroke-width:0.8000000000000002;"/><path d="M496.1785,88.9145 Q495.7137,89.1535 495.2023,89.273 Q494.691,89.3926 494.1266,89.3926 Q492.1211,89.3926 491.0652,88.0711 Q490.0094,86.7496 490.0094,84.2527 Q490.0094,81.7492 491.0652,80.4277 Q492.1211,79.1063 494.1266,79.1063 Q494.691,79.1063 495.209,79.2258 Q495.727,79.3453 496.1785,79.5844 L496.1785,81.7625 Q495.6738,81.2977 495.199,81.0818 Q494.7242,80.866 494.2195,80.866 Q493.1438,80.866 492.5959,81.7193 Q492.048,82.5727 492.048,84.2527 Q492.048,85.9262 492.5959,86.7795 Q493.1438,87.6328 494.2195,87.6328 Q494.7242,87.6328 495.199,87.417 Q495.6738,87.2012 496.1785,86.7363 Z " fill="#000000"/><text fill="#000000" font-family="sans-serif" font-size="11.2" lengthAdjust="spacing" textLength="103.2" x="510.2" y="88.6328">AddUserController</text><line style="stroke:#181818;stroke-width:0.4000000000000001;" x1="394.4" x2="703.2" y1="97.2" y2="97.2"/><line style="stroke:#181818;stroke-width:0.4000000000000001;" x1="394.4" x2="703.2" y1="103.6" y2="103.6"/><ellipse cx="402.4" cy="114.5953" fill="#84BE84" rx="2.4" ry="2.4" style="stroke:#038048;stroke-width:0.8000000000000002;"/><text fill="#000000" font-family="sans-serif" font-size="11.2" lengthAdjust="spacing" textLength="146.4" x="409.6" y="117.6281">passwordGenerator(name)</text><ellipse cx="402.4" cy="127.7859" fill="#84BE84" rx="2.4" ry="2.4" style="stroke:#038048;stroke-width:0.8000000000000002;"/><text fill="#000000" font-family="sans-serif" font-size="11.2" lengthAdjust="spacing" textLength="225.6" x="409.6" y="130.8188">addUser(username, password, firstName,</text><text fill="#000000" font-family="sans-serif" font-size="11.2" lengthAdjust="spacing" textLength="289.6" x="409.6" y="144.0094">lastName, email, roles, CurrentTimeCalendars.now())</text><ellipse cx="402.4" cy="154.1672" fill="#84BE84" rx="2.4" ry="2.4" style="stroke:#038048;stroke-width:0.8000000000000002;"/><text fill="#000000" font-family="sans-serif" font-size="11.2" lengthAdjust="spacing" textLength="166.4" x="409.6" y="157.2">addUser(username, password,</text><text fill="#000000" font-family="sans-serif" font-size="11.2" lengthAdjust="spacing" textLength="183.2" x="409.6" y="170.3906">firstName, lastName, email, roles)</text><ellipse cx="402.4" cy="180.5484" fill="#84BE84" rx="2.4" ry="2.4" style="stroke:#038048;stroke-width:0.8000000000000002;"/><text fill="#000000" font-family="sans-serif" font-size="11.2" lengthAdjust="spacing" textLength="242.4" x="409.6" y="183.5813">registerNewUser(name,password,email,role)</text><ellipse cx="402.4" cy="193.7391" fill="#84BE84" rx="2.4" ry="2.4" style="stroke:#038048;stroke-width:0.8000000000000002;"/><text fill="#000000" font-family="sans-serif" font-size="11.2" lengthAdjust="spacing" textLength="81.6" x="409.6" y="196.7719">getRoleTypes()</text><ellipse cx="402.4" cy="206.9297" fill="#84BE84" rx="2.4" ry="2.4" style="stroke:#038048;stroke-width:0.8000000000000002;"/><text fill="#000000" font-family="sans-serif" font-size="11.2" lengthAdjust="spacing" textLength="69.6" x="409.6" y="209.9625">getAllRoles()</text></g><!--class Jobs4UPasswordPolicy--><g id="elem_Jobs4UPasswordPolicy"><rect codeLine="24" fill="#F1F1F1" height="77.9719" id="Jobs4UPasswordPolicy" rx="2" ry="2" style="stroke:#181818;stroke-width:0.4000000000000001;" width="168" x="874.8" y="5.6"/><ellipse cx="896.16" cy="18.4" fill="#ADD1B2" rx="8.8" ry="8.8" style="stroke:#181818;stroke-width:0.8000000000000002;"/><path d="M898.5385,22.9145 Q898.0737,23.1535 897.5623,23.273 Q897.051,23.3926 896.4866,23.3926 Q894.4811,23.3926 893.4252,22.0711 Q892.3694,20.7496 892.3694,18.2527 Q892.3694,15.7492 893.4252,14.4277 Q894.4811,13.1063 896.4866,13.1063 Q897.051,13.1063 897.569,13.2258 Q898.087,13.3453 898.5385,13.5844 L898.5385,15.7625 Q898.0338,15.2977 897.559,15.0818 Q897.0842,14.866 896.5795,14.866 Q895.5038,14.866 894.9559,15.7193 Q894.408,16.5727 894.408,18.2527 Q894.408,19.9262 894.9559,20.7795 Q895.5038,21.6328 896.5795,21.6328 Q897.0842,21.6328 897.559,21.417 Q898.0338,21.2012 898.5385,20.7363 Z " fill="#000000"/><text fill="#000000" font-family="sans-serif" font-size="11.2" lengthAdjust="spacing" textLength="121.6" x="909.44" y="22.6328">Jobs4UPasswordPolicy</text><line style="stroke:#181818;stroke-width:0.4000000000000001;" x1="875.6" x2="1042" y1="31.2" y2="31.2"/><line style="stroke:#181818;stroke-width:0.4000000000000001;" x1="875.6" x2="1042" y1="37.6" y2="37.6"/><ellipse cx="883.6" cy="48.5953" fill="#84BE84" rx="2.4" ry="2.4" style="stroke:#038048;stroke-width:0.8000000000000002;"/><text fill="#000000" font-family="sans-serif" font-size="11.2" lengthAdjust="spacing" textLength="147.2" x="890.8" y="51.6281">isSatisfiedBy(rawPassword)</text><ellipse cx="883.6" cy="61.7859" fill="#84BE84" rx="2.4" ry="2.4" style="stroke:#038048;stroke-width:0.8000000000000002;"/><text fill="#000000" font-family="sans-serif" font-size="11.2" lengthAdjust="spacing" textLength="146.4" x="890.8" y="64.8188">passwordGenerator(name)</text><ellipse cx="883.6" cy="74.9766" fill="#84BE84" rx="2.4" ry="2.4" style="stroke:#038048;stroke-width:0.8000000000000002;"/><text fill="#000000" font-family="sans-serif" font-size="11.2" lengthAdjust="spacing" textLength="126.4" x="890.8" y="78.0094">strength(rawPassword)</text></g><!--class RepositoryFactory--><g id="elem_RepositoryFactory"><rect codeLine="30" fill="#F1F1F1" height="183.4969" id="RepositoryFactory" rx="2" ry="2" style="stroke:#181818;stroke-width:0.4000000000000001;" width="276.8" x="1213.6" y="52"/><ellipse cx="1299.4" cy="64.8" fill="#B4A7E5" rx="8.8" ry="8.8" style="stroke:#181818;stroke-width:0.8000000000000002;"/><path d="M1296.1422,61.4121 L1296.1422,59.6855 L1302.0457,59.6855 L1302.0457,61.4121 L1300.0734,61.4121 L1300.0734,67.8734 L1302.0457,67.8734 L1302.0457,69.6 L1296.1422,69.6 L1296.1422,67.8734 L1298.1145,67.8734 L1298.1145,61.4121 Z " fill="#000000"/><text fill="#000000" font-family="sans-serif" font-size="11.2" font-style="italic" lengthAdjust="spacing" textLength="98.4" x="1315.8" y="69.0328">RepositoryFactory</text><line style="stroke:#181818;stroke-width:0.4000000000000001;" x1="1214.4" x2="1489.6" y1="77.6" y2="77.6"/><line style="stroke:#181818;stroke-width:0.4000000000000001;" x1="1214.4" x2="1489.6" y1="84" y2="84"/><ellipse cx="1222.4" cy="94.9953" fill="#84BE84" rx="2.4" ry="2.4" style="stroke:#038048;stroke-width:0.8000000000000002;"/><text fill="#000000" font-family="sans-serif" font-size="11.2" lengthAdjust="spacing" textLength="148.8" x="1229.6" y="98.0281">newTransactionalContext()</text><ellipse cx="1222.4" cy="108.1859" fill="#84BE84" rx="2.4" ry="2.4" style="stroke:#038048;stroke-width:0.8000000000000002;"/><text fill="#000000" font-family="sans-serif" font-size="11.2" lengthAdjust="spacing" textLength="198.4" x="1229.6" y="111.2188">users(TransactionalContext autoTx)</text><ellipse cx="1222.4" cy="121.3766" fill="#84BE84" rx="2.4" ry="2.4" style="stroke:#038048;stroke-width:0.8000000000000002;"/><text fill="#000000" font-family="sans-serif" font-size="11.2" lengthAdjust="spacing" textLength="37.6" x="1229.6" y="124.4094">users()</text><ellipse cx="1222.4" cy="134.5672" fill="#84BE84" rx="2.4" ry="2.4" style="stroke:#038048;stroke-width:0.8000000000000002;"/><text fill="#000000" font-family="sans-serif" font-size="11.2" lengthAdjust="spacing" textLength="250.4" x="1229.6" y="137.6">customerUsers(TransactionalContext autoTx)</text><ellipse cx="1222.4" cy="147.7578" fill="#84BE84" rx="2.4" ry="2.4" style="stroke:#038048;stroke-width:0.8000000000000002;"/><text fill="#000000" font-family="sans-serif" font-size="11.2" lengthAdjust="spacing" textLength="89.6" x="1229.6" y="150.7906">customerUsers()</text><ellipse cx="1222.4" cy="160.9484" fill="#84BE84" rx="2.4" ry="2.4" style="stroke:#038048;stroke-width:0.8000000000000002;"/><text fill="#000000" font-family="sans-serif" font-size="11.2" lengthAdjust="spacing" textLength="256" x="1229.6" y="163.9813">signupRequests(TransactionalContext autoTx)</text><ellipse cx="1222.4" cy="174.1391" fill="#84BE84" rx="2.4" ry="2.4" style="stroke:#038048;stroke-width:0.8000000000000002;"/><text fill="#000000" font-family="sans-serif" font-size="11.2" lengthAdjust="spacing" textLength="95.2" x="1229.6" y="177.1719">signupRequests()</text><ellipse cx="1222.4" cy="187.3297" fill="#84BE84" rx="2.4" ry="2.4" style="stroke:#038048;stroke-width:0.8000000000000002;"/><text fill="#000000" font-family="sans-serif" font-size="11.2" lengthAdjust="spacing" textLength="239.2" x="1229.6" y="190.3625">jobOpenings(TransactionalContext autoTx)</text><ellipse cx="1222.4" cy="200.5203" fill="#84BE84" rx="2.4" ry="2.4" style="stroke:#038048;stroke-width:0.8000000000000002;"/><text fill="#000000" font-family="sans-serif" font-size="11.2" lengthAdjust="spacing" textLength="78.4" x="1229.6" y="203.5531">jobOpenings()</text><ellipse cx="1222.4" cy="213.7109" fill="#84BE84" rx="2.4" ry="2.4" style="stroke:#038048;stroke-width:0.8000000000000002;"/><text fill="#000000" font-family="sans-serif" font-size="11.2" lengthAdjust="spacing" textLength="235.2" x="1229.6" y="216.7438">applications(TransactionalContext autoTx)</text><ellipse cx="1222.4" cy="226.9016" fill="#84BE84" rx="2.4" ry="2.4" style="stroke:#038048;stroke-width:0.8000000000000002;"/><text fill="#000000" font-family="sans-serif" font-size="11.2" lengthAdjust="spacing" textLength="74.4" x="1229.6" y="229.9344">applications()</text></g><!--class PersistenceContext--><g id="elem_PersistenceContext"><rect codeLine="44" fill="#F1F1F1" height="64.7813" id="PersistenceContext" rx="2" ry="2" style="stroke:#181818;stroke-width:0.4000000000000001;" width="134.4" x="891.6" y="111.2"/><ellipse cx="905.04" cy="124" fill="#ADD1B2" rx="8.8" ry="8.8" style="stroke:#181818;stroke-width:0.8000000000000002;"/><path d="M907.4185,128.5145 Q906.9537,128.7535 906.4423,128.873 Q905.931,128.9926 905.3666,128.9926 Q903.3611,128.9926 902.3052,127.6711 Q901.2494,126.3496 901.2494,123.8527 Q901.2494,121.3492 902.3052,120.0277 Q903.3611,118.7063 905.3666,118.7063 Q905.931,118.7063 906.449,118.8258 Q906.967,118.9453 907.4185,119.1844 L907.4185,121.3625 Q906.9138,120.8977 906.439,120.6818 Q905.9642,120.466 905.4595,120.466 Q904.3838,120.466 903.8359,121.3193 Q903.288,122.1727 903.288,123.8527 Q903.288,125.5262 903.8359,126.3795 Q904.3838,127.2328 905.4595,127.2328 Q905.9642,127.2328 906.439,127.017 Q906.9138,126.8012 907.4185,126.3363 Z " fill="#000000"/><text fill="#000000" font-family="sans-serif" font-size="11.2" lengthAdjust="spacing" textLength="105.6" x="916.56" y="128.2328">PersistenceContext</text><line style="stroke:#181818;stroke-width:0.4000000000000001;" x1="892.4" x2="1025.2" y1="136.8" y2="136.8"/><line style="stroke:#181818;stroke-width:0.4000000000000001;" x1="892.4" x2="1025.2" y1="143.2" y2="143.2"/><ellipse cx="900.4" cy="154.1953" fill="#84BE84" rx="2.4" ry="2.4" style="stroke:#038048;stroke-width:0.8000000000000002;"/><text fill="#000000" font-family="sans-serif" font-size="11.2" lengthAdjust="spacing" textLength="73.6" x="907.6" y="157.2281">repositories()</text><ellipse cx="900.4" cy="167.3859" fill="#84BE84" rx="2.4" ry="2.4" style="stroke:#038048;stroke-width:0.8000000000000002;"/><text fill="#000000" font-family="sans-serif" font-size="11.2" lengthAdjust="spacing" textLength="113.6" x="907.6" y="170.4188">PersistenceContext()</text></g><!--class UserManagementService--><g id="elem_UserManagementService"><rect codeLine="49" fill="#F1F1F1" height="196.6875" id="UserManagementService" rx="2" ry="2" style="stroke:#181818;stroke-width:0.4000000000000001;" width="316" x="800.8" y="204.4"/><ellipse cx="888.2" cy="217.2" fill="#ADD1B2" rx="8.8" ry="8.8" style="stroke:#181818;stroke-width:0.8000000000000002;"/><path d="M890.5785,221.7145 Q890.1137,221.9535 889.6023,222.073 Q889.091,222.1926 888.5266,222.1926 Q886.5211,222.1926 885.4652,220.8711 Q884.4094,219.5496 884.4094,217.0527 Q884.4094,214.5492 885.4652,213.2277 Q886.5211,211.9063 888.5266,211.9063 Q889.091,211.9063 889.609,212.0258 Q890.127,212.1453 890.5785,212.3844 L890.5785,214.5625 Q890.0738,214.0977 889.599,213.8818 Q889.1242,213.666 888.6195,213.666 Q887.5438,213.666 886.9959,214.5193 Q886.448,215.3727 886.448,217.0527 Q886.448,218.7262 886.9959,219.5795 Q887.5438,220.4328 888.6195,220.4328 Q889.1242,220.4328 889.599,220.217 Q890.0738,220.0012 890.5785,219.5363 Z " fill="#000000"/><text fill="#000000" font-family="sans-serif" font-size="11.2" lengthAdjust="spacing" textLength="134.4" x="904.6" y="221.4328">UserManagementService</text><line style="stroke:#181818;stroke-width:0.4000000000000001;" x1="801.6" x2="1116" y1="230" y2="230"/><line style="stroke:#181818;stroke-width:0.4000000000000001;" x1="801.6" x2="1116" y1="236.4" y2="236.4"/><ellipse cx="809.6" cy="247.3953" fill="#84BE84" rx="2.4" ry="2.4" style="stroke:#038048;stroke-width:0.8000000000000002;"/><text fill="#000000" font-family="sans-serif" font-size="11.2" lengthAdjust="spacing" textLength="284" x="816.8" y="250.4281">UserManagementService(userRepo, policy, encoder)</text><ellipse cx="809.6" cy="260.5859" fill="#84BE84" rx="2.4" ry="2.4" style="stroke:#038048;stroke-width:0.8000000000000002;"/><text fill="#000000" font-family="sans-serif" font-size="11.2" lengthAdjust="spacing" textLength="236.8" x="816.8" y="263.6188">registerNewUser( username,  rawPassword,</text><text fill="#000000" font-family="sans-serif" font-size="11.2" lengthAdjust="spacing" textLength="252.8" x="816.8" y="276.8094">firstName,  lastName,  email, roles, createdOn)</text><ellipse cx="809.6" cy="286.9672" fill="#84BE84" rx="2.4" ry="2.4" style="stroke:#038048;stroke-width:0.8000000000000002;"/><text fill="#000000" font-family="sans-serif" font-size="11.2" lengthAdjust="spacing" textLength="236.8" x="816.8" y="290">registerNewUser( username,  rawPassword,</text><text fill="#000000" font-family="sans-serif" font-size="11.2" lengthAdjust="spacing" textLength="189.6" x="816.8" y="303.1906">firstName,  lastName,  email, roles)</text><ellipse cx="809.6" cy="313.3484" fill="#84BE84" rx="2.4" ry="2.4" style="stroke:#038048;stroke-width:0.8000000000000002;"/><text fill="#000000" font-family="sans-serif" font-size="11.2" lengthAdjust="spacing" textLength="295.2" x="816.8" y="316.3813">registerUser(username, password, name, email, roles)</text><ellipse cx="809.6" cy="326.5391" fill="#84BE84" rx="2.4" ry="2.4" style="stroke:#038048;stroke-width:0.8000000000000002;"/><text fill="#000000" font-family="sans-serif" font-size="11.2" lengthAdjust="spacing" textLength="69.6" x="816.8" y="329.5719">activeUsers()</text><ellipse cx="809.6" cy="339.7297" fill="#84BE84" rx="2.4" ry="2.4" style="stroke:#038048;stroke-width:0.8000000000000002;"/><text fill="#000000" font-family="sans-serif" font-size="11.2" lengthAdjust="spacing" textLength="100.8" x="816.8" y="342.7625">deactivatedUsers()</text><ellipse cx="809.6" cy="352.9203" fill="#84BE84" rx="2.4" ry="2.4" style="stroke:#038048;stroke-width:0.8000000000000002;"/><text fill="#000000" font-family="sans-serif" font-size="11.2" lengthAdjust="spacing" textLength="51.2" x="816.8" y="355.9531">allUsers()</text><ellipse cx="809.6" cy="366.1109" fill="#84BE84" rx="2.4" ry="2.4" style="stroke:#038048;stroke-width:0.8000000000000002;"/><text fill="#000000" font-family="sans-serif" font-size="11.2" lengthAdjust="spacing" textLength="96" x="816.8" y="369.1438">userOfIdentity(id)</text><ellipse cx="809.6" cy="379.3016" fill="#84BE84" rx="2.4" ry="2.4" style="stroke:#038048;stroke-width:0.8000000000000002;"/><text fill="#000000" font-family="sans-serif" font-size="11.2" lengthAdjust="spacing" textLength="112" x="816.8" y="382.3344">deactivateUser(user)</text><ellipse cx="809.6" cy="392.4922" fill="#84BE84" rx="2.4" ry="2.4" style="stroke:#038048;stroke-width:0.8000000000000002;"/><text fill="#000000" font-family="sans-serif" font-size="11.2" lengthAdjust="spacing" textLength="98.4" x="816.8" y="395.525">activateUser(user)</text></g><!--link AddUserUI to AddUserController--><g id="link_AddUserUI_AddUserController"><path codeLine="65" d="M296.928,143.6 C328.288,143.6 356.76,143.6 388.48,143.6 " fill="none" id="AddUserUI-to-AddUserController" style="stroke:#181818;stroke-width:0.8000000000000002;"/><polygon fill="#181818" points="393.28,143.6,386.08,140.4,389.28,143.6,386.08,146.8,393.28,143.6" style="stroke:#181818;stroke-width:0.8000000000000002;"/></g><!--link AddUserController to Jobs4UPasswordPolicy--><g id="link_AddUserController_Jobs4UPasswordPolicy"><path codeLine="67" d="M704.288,106.024 C762.088,91.984 820.8476,77.7168 869.8316,65.8208 " fill="none" id="AddUserController-to-Jobs4UPasswordPolicy" style="stroke:#181818;stroke-width:0.8000000000000002;"/><polygon fill="#181818" points="874.496,64.688,866.7442,63.2776,870.609,65.632,868.2546,69.4968,874.496,64.688" style="stroke:#181818;stroke-width:0.8000000000000002;"/></g><!--link AddUserController to UserManagementService--><g id="link_AddUserController_UserManagementService"><path codeLine="69" d="M704.288,203.904 C735.784,216.176 764.48,227.3601 796.072,239.6801 " fill="none" id="AddUserController-to-UserManagementService" style="stroke:#181818;stroke-width:0.8000000000000002;"/><polygon fill="#181818" points="800.544,241.424,794.9987,235.8268,796.8173,239.9707,792.6734,241.7894,800.544,241.424" style="stroke:#181818;stroke-width:0.8000000000000002;"/></g><!--link AddUserController to PersistenceContext--><g id="link_AddUserController_PersistenceContext"><path codeLine="71" d="M704.288,143.6 C768.968,143.6 835.904,143.6 886.552,143.6 " fill="none" id="AddUserController-to-PersistenceContext" style="stroke:#181818;stroke-width:0.8000000000000002;"/><polygon fill="#181818" points="891.352,143.6,884.152,140.4,887.352,143.6,884.152,146.8,891.352,143.6" style="stroke:#181818;stroke-width:0.8000000000000002;"/></g><!--link PersistenceContext to RepositoryFactory--><g id="link_PersistenceContext_RepositoryFactory"><path codeLine="73" d="M1026.248,143.6 C1077.392,143.6 1144.96,143.6 1208.424,143.6 " fill="none" id="PersistenceContext-to-RepositoryFactory" style="stroke:#181818;stroke-width:0.8000000000000002;"/><polygon fill="#181818" points="1213.224,143.6,1206.024,140.4,1209.224,143.6,1206.024,146.8,1213.224,143.6" style="stroke:#181818;stroke-width:0.8000000000000002;"/></g><!--SRC=[jLLDZzem4BtdL_ZMh0fxwhaIHUfgLze5yV43XdW8RXqxjHrOjEf_xzWX9Y6apQKSG9vvyyOpVZDyiZ-5Ai50mQHGwCubCctSGISIzuuvpOp83uvnOJ1pGgiaoIHOosQSRosQxJFxI1XzFZEkrmTzIXykHqk7bPPeKqFV6oAsZMjN2Sc3xnLLDU2VLzRf0iqhACZHp8uW9Ema_erpKQ81f_y9PWS4xkkbs_w-gMYkbQC0YIPMLfBxf0r_GbNpfmeARCYWZaih-lBsISHFs5uOwzwyCO0fJtrYMD0D9ypVp4xOl386bTk80kSWKN4mzb7vPev84X3NH0D96YA3kR0EpHkU0c4WYrnrX0zey3cwLTE-j6MSILatjzN15xspNxRB2zbIIv6TOnE5NOCJTY-GVpkd1auDxc5KbwsZ3kNkq8sar49HDNl8aAsmr5PGuFaxPFudvbPusXXG5eA4GVetndSNw_5TjUaz28FAwSrx5zYSiej4jsF3km6nD96hgbpXhmgj6yLp4z6OV-WTJO0IAX_5qeP7dPKblHhui54S7NnB2aigqEjCPTW4VaG5Nfv9j1JLnxVPVB_gFL3GcApH70MzTqDurnicnIk29YK8aSP1PPgZ6Pe4TfqjrX9PRxvQ0tOpnfb1SCWNwd-bkEKTt3jgSFxzSnwnAq2EmUhltdM0b5s3pxNOFtFgit3dLF0-HRnJ9sFNGG-RNFz0fjFfr_xsZOZMGWx8Urjc47nN6uFelWgJv8wI0xQtRP8_]--></g></svg>