<?xml version="1.0" encoding="us-ascii" standalone="no"?><svg xmlns="http://www.w3.org/2000/svg" xmlns:xlink="http://www.w3.org/1999/xlink" contentStyleType="text/css" height="363px" preserveAspectRatio="none" style="width:649px;height:363px;background:#FFFFFF;" version="1.1" viewBox="0 0 649 363" width="649px" zoomAndPan="magnify"><defs/><g><text fill="#000000" font-family="sans-serif" font-size="14" font-weight="bold" lengthAdjust="spacing" textLength="105" x="265" y="23.5352">Domain Model</text><!--cluster Admin Aggregate--><g id="cluster_Admin Aggregate"><rect fill="none" height="115" rx="2.5" ry="2.5" style="stroke:#000000;stroke-width:1.5;" width="141" x="7" y="143.4883"/><text fill="#000000" font-family="sans-serif" font-size="14" font-weight="bold" lengthAdjust="spacing" textLength="125" x="15" y="159.0234">Admin Aggregate</text></g><!--cluster User Aggregate--><g id="cluster_User Aggregate"><rect fill="none" height="313" rx="2.5" ry="2.5" style="stroke:#000000;stroke-width:1.5;" width="343" x="300" y="44.4883"/><text fill="#000000" font-family="sans-serif" font-size="14" font-weight="bold" lengthAdjust="spacing" textLength="110" x="416.5" y="60.0234">User Aggregate</text></g><!--class Admin--><g id="elem_Admin"><rect codeLine="27" fill="#F0FFFF" height="62.7539" id="Admin" rx="2.5" ry="2.5" style="stroke:#000000;stroke-width:0.5;" width="77" x="39" y="178.9883"/><ellipse cx="54" cy="206.3652" fill="#ADD1B2" rx="11" ry="11" style="stroke:#181818;stroke-width:1.0;"/><path d="M58.1143,212.3652 L50.3945,212.3652 L50.3945,199.9722 L58.1143,199.9722 L58.1143,202.1304 L52.8433,202.1304 L52.8433,204.8032 L57.6162,204.8032 L57.6162,206.9614 L52.8433,206.9614 L52.8433,210.207 L58.1143,210.207 Z " fill="#000000"/><text fill="#000000" font-family="sans-serif" font-size="12" font-style="italic" lengthAdjust="spacing" textLength="43" x="69" y="195.5898">&#171;entity&#187;</text><text fill="#000000" font-family="sans-serif" font-size="12" font-style="italic" lengthAdjust="spacing" textLength="35" x="73" y="209.7227">&#171;root&#187;</text><text fill="#000000" font-family="sans-serif" font-size="14" lengthAdjust="spacing" textLength="45" x="68" y="225.7891">Admin</text><line style="stroke:#000000;stroke-width:0.5;" x1="40" x2="115" y1="233.7422" y2="233.7422"/></g><!--class User--><g id="elem_User"><rect codeLine="31" fill="#F0FFFF" height="62.7539" id="User" rx="2.5" ry="2.5" style="stroke:#000000;stroke-width:0.5;" width="71" x="316" y="178.9883"/><ellipse cx="331" cy="206.3652" fill="#ADD1B2" rx="11" ry="11" style="stroke:#181818;stroke-width:1.0;"/><path d="M335.1143,212.3652 L327.3945,212.3652 L327.3945,199.9722 L335.1143,199.9722 L335.1143,202.1304 L329.8433,202.1304 L329.8433,204.8032 L334.6162,204.8032 L334.6162,206.9614 L329.8433,206.9614 L329.8433,210.207 L335.1143,210.207 Z " fill="#000000"/><text fill="#000000" font-family="sans-serif" font-size="12" font-style="italic" lengthAdjust="spacing" textLength="43" x="343" y="195.5898">&#171;entity&#187;</text><text fill="#000000" font-family="sans-serif" font-size="12" font-style="italic" lengthAdjust="spacing" textLength="35" x="347" y="209.7227">&#171;root&#187;</text><text fill="#000000" font-family="sans-serif" font-size="14" lengthAdjust="spacing" textLength="31" x="349" y="225.7891">User</text><line style="stroke:#000000;stroke-width:0.5;" x1="317" x2="386" y1="233.7422" y2="233.7422"/></g><!--entity UserEmail--><g id="elem_UserEmail"><rect fill="#F0FFDD" height="38.9766" rx="2.5" ry="2.5" style="stroke:#000000;stroke-width:0.5;" width="120" x="477.5" y="301.9883"/><text fill="#000000" font-family="sans-serif" font-size="14" font-style="italic" lengthAdjust="spacing" textLength="100" x="487.5" y="318.5234">&#171;Value Object&#187;</text><text fill="#000000" font-family="sans-serif" font-size="14" lengthAdjust="spacing" textLength="68" x="503.5" y="335.0117">UserEmail</text></g><!--entity UserName--><g id="elem_UserName"><rect fill="#F0FFDD" height="38.9766" rx="2.5" ry="2.5" style="stroke:#000000;stroke-width:0.5;" width="120" x="477.5" y="227.9883"/><text fill="#000000" font-family="sans-serif" font-size="14" font-style="italic" lengthAdjust="spacing" textLength="100" x="487.5" y="244.5234">&#171;Value Object&#187;</text><text fill="#000000" font-family="sans-serif" font-size="14" lengthAdjust="spacing" textLength="70" x="502.5" y="261.0117">UserName</text></g><!--entity UserPassword--><g id="elem_UserPassword"><rect fill="#F0FFDD" height="38.9766" rx="2.5" ry="2.5" style="stroke:#000000;stroke-width:0.5;" width="120" x="477.5" y="153.9883"/><text fill="#000000" font-family="sans-serif" font-size="14" font-style="italic" lengthAdjust="spacing" textLength="100" x="487.5" y="170.5234">&#171;Value Object&#187;</text><text fill="#000000" font-family="sans-serif" font-size="14" lengthAdjust="spacing" textLength="96" x="489.5" y="187.0117">UserPassword</text></g><!--entity UserTelephoneNumber--><g id="elem_UserTelephoneNumber"><rect fill="#F0FFDD" height="38.9766" rx="2.5" ry="2.5" style="stroke:#000000;stroke-width:0.5;" width="179" x="448" y="79.9883"/><text fill="#000000" font-family="sans-serif" font-size="14" font-style="italic" lengthAdjust="spacing" textLength="100" x="487.5" y="96.5234">&#171;Value Object&#187;</text><text fill="#000000" font-family="sans-serif" font-size="14" lengthAdjust="spacing" textLength="159" x="458" y="113.0117">UserTelephoneNumber</text></g><!--link User to UserEmail--><g id="link_User_UserEmail"><path codeLine="42" d="M387.19,240.9483 C404.65,255.3283 426.62,272.0283 448,284.4883 C458.79,290.7783 465.3508,294.1817 477.0108,299.2117 " fill="none" id="User-to-UserEmail" style="stroke:#808080;stroke-width:1.0;"/><polygon fill="#808080" points="482.52,301.5883,475.8406,294.3505,477.929,299.6078,472.6717,301.6962,482.52,301.5883" style="stroke:#808080;stroke-width:1.0;"/></g><!--link User to UserName--><g id="link_User_UserName"><path codeLine="43" d="M387.11,217.4483 C412.41,222.5383 441.4578,228.3751 471.1878,234.3551 " fill="none" id="User-to-UserName" style="stroke:#808080;stroke-width:1.0;"/><polygon fill="#808080" points="477.07,235.5383,469.0355,229.8421,472.1682,234.5523,467.4579,237.685,477.07,235.5383" style="stroke:#808080;stroke-width:1.0;"/></g><!--link User to UserTelephoneNumber--><g id="link_User_UserTelephoneNumber"><path codeLine="44" d="M387.19,180.0283 C404.65,165.6483 426.62,148.9483 448,136.4883 C458.79,130.1983 465.3508,126.7949 477.0108,121.7649 " fill="none" id="User-to-UserTelephoneNumber" style="stroke:#808080;stroke-width:1.0;"/><polygon fill="#808080" points="482.52,119.3883,472.6717,119.2804,477.929,121.3688,475.8406,126.626,482.52,119.3883" style="stroke:#808080;stroke-width:1.0;"/></g><!--link User to UserPassword--><g id="link_User_UserPassword"><path codeLine="45" d="M387.11,203.5283 C412.41,198.4383 441.4578,192.6014 471.1878,186.6214 " fill="none" id="User-to-UserPassword" style="stroke:#808080;stroke-width:1.0;"/><polygon fill="#808080" points="477.07,185.4383,467.4579,183.2916,472.1682,186.4243,469.0355,191.1345,477.07,185.4383" style="stroke:#808080;stroke-width:1.0;"/></g><!--link Admin to User--><g id="link_Admin_User"><path codeLine="47" d="M116.32,210.4883 C169.16,210.4883 258.35,210.4883 309.58,210.4883 " fill="none" id="Admin-to-User" style="stroke:#808080;stroke-width:1.0;"/><polygon fill="#808080" points="315.58,210.4883,306.58,206.4883,310.58,210.4883,306.58,214.4883,315.58,210.4883" style="stroke:#808080;stroke-width:1.0;"/><text fill="#000000" font-family="sans-serif" font-size="13" lengthAdjust="spacing" textLength="56" x="196" y="207.0566">manages</text></g><!--SRC=[fP9FQy904CNl-oc6zD2Jq7C9WMYg25Q5sjvNTqosRdR3P4M2-DqxIRJ-BqBticJcFVRzPf9fXP2ZpvmgXS6b1- -0T9fvK9fmuRMpuhbSQLj8aZaORT5N1O8ZzWWnqzuW18dBfRRmxXIQG8YZVc5aMS9M09-HNkA8_Lr72gddZ2D89AswPetd0hbOfUJMLhMYU3eT3NlnR3WPDxhB_bF_fS-dwSL4RjEMKyAgrPyyE3Ti5hlJZ0LNP8eVlcAKcbdQrE0PXIJr1yI04Et_2PBaag2Upk0MHVT08VRX8OXLpXk8KwPEfSTWAz1wxIje6s7OVaPH699pFee4-t_TdoNIBNDJl-Mj4pLZgHLll7t3iY_9guJ9_9k764NxYUtEjMEPuuFIAVyx6wP-K3v3WqNcB8xN-Ro9VSVLN0rPfnCT0QxBTTRhwiKxru93Rj46R1VGENHV8PUMXrx-0000]--></g></svg>