<?xml version="1.0" encoding="us-ascii" standalone="no"?><svg xmlns="http://www.w3.org/2000/svg" xmlns:xlink="http://www.w3.org/1999/xlink" contentStyleType="text/css" height="1119px" preserveAspectRatio="none" style="width:1003px;height:1119px;background:#FFFFFF;" version="1.1" viewBox="0 0 1003 1119" width="1003px" zoomAndPan="magnify"><defs/><g><text fill="#000000" font-family="sans-serif" font-size="14" font-weight="bold" lengthAdjust="spacing" textLength="145" x="422" y="25.1074">Domain Model - 1009</text><!--cluster Customer Manager Aggregate--><g id="cluster_Customer Manager Aggregate"><rect fill="none" height="175" rx="2.5" ry="2.5" style="stroke:#000000;stroke-width:1.5;" width="515.5" x="43.5" y="46.6211"/><text fill="#000000" font-family="sans-serif" font-size="14" font-weight="bold" lengthAdjust="spacing" textLength="211" x="195.75" y="63.7285">Customer Manager Aggregate</text></g><!--cluster Job Opening Aggregate--><g id="cluster_Job Opening Aggregate"><rect fill="none" height="721" rx="2.5" ry="2.5" style="stroke:#000000;stroke-width:1.5;" width="610.5" x="386.5" y="245.6211"/><text fill="#000000" font-family="sans-serif" font-size="14" font-weight="bold" lengthAdjust="spacing" textLength="167" x="608.25" y="262.7285">Job Opening Aggregate</text></g><!--cluster Job Requirements Specification Aggregate--><g id="cluster_Job Requirements Specification Aggregate"><rect fill="none" height="123" rx="2.5" ry="2.5" style="stroke:#000000;stroke-width:1.5;" width="524" x="7" y="990.6211"/><text fill="#000000" font-family="sans-serif" font-size="14" font-weight="bold" lengthAdjust="spacing" textLength="301" x="118.5" y="1007.7285">Job Requirements Specification Aggregate</text></g><!--class CustomerManager--><g id="elem_CustomerManager"><rect codeLine="26" fill="#F0FFFF" height="68.543" id="CustomerManager" rx="2.5" ry="2.5" style="stroke:#000000;stroke-width:0.5;" width="149" x="59.5" y="136.1211"/><ellipse cx="74.5" cy="166.3926" fill="#ADD1B2" rx="11" ry="11" style="stroke:#181818;stroke-width:1.0;"/><path d="M73.3594,167.1895 L73.3594,169.6895 L77.6875,169.6895 L77.6875,168.7676 Q77.6875,168.1582 77.9219,167.8926 Q78.1719,167.627 78.5469,167.627 Q78.9219,167.627 79.1563,167.8926 Q79.3906,168.1582 79.3906,168.7676 L79.3906,171.3926 L71.3906,171.3926 Q70.7656,171.3926 70.5,171.1582 Q70.25,170.9238 70.25,170.5332 Q70.25,170.1582 70.5156,169.9238 Q70.7813,169.6895 71.3906,169.6895 L71.6563,169.6895 L71.6563,163.0332 L71.3906,163.0332 Q70.7656,163.0332 70.5,162.7988 Q70.25,162.5645 70.25,162.1738 Q70.25,161.7988 70.5,161.5645 Q70.7656,161.3301 71.3906,161.3301 L79.0156,161.3301 L79.0156,163.9238 Q79.0156,164.5332 78.7813,164.7988 Q78.5625,165.0488 78.1719,165.0488 Q77.7969,165.0488 77.5625,164.7988 Q77.3281,164.5332 77.3281,163.9238 L77.3281,163.0332 L73.3594,163.0332 L73.3594,165.4863 L74.8438,165.4863 Q74.8438,164.8301 74.9688,164.6426 Q75.2344,164.2363 75.7031,164.2363 Q76.0781,164.2363 76.3125,164.502 Q76.5469,164.752 76.5469,165.3613 L76.5469,167.3301 Q76.5469,167.877 76.4219,168.0645 Q76.1563,168.4551 75.7031,168.4551 Q75.2344,168.4551 74.9688,168.0488 Q74.8438,167.8613 74.8438,167.1895 L73.3594,167.1895 Z " fill="#000000"/><text fill="#000000" font-family="sans-serif" font-size="12" font-style="italic" lengthAdjust="spacing" textLength="43" x="125.5" y="154.0703">&#171;entity&#187;</text><text fill="#000000" font-family="sans-serif" font-size="12" font-style="italic" lengthAdjust="spacing" textLength="35" x="129.5" y="170.0313">&#171;root&#187;</text><text fill="#000000" font-family="sans-serif" font-size="14" lengthAdjust="spacing" textLength="117" x="88.5" y="188.1504">CustomerManager</text><line style="stroke:#000000;stroke-width:0.5;" x1="60.5" x2="207.5" y1="196.6641" y2="196.6641"/></g><!--entity CustomerManagerEmail--><g id="elem_CustomerManagerEmail"><rect fill="#F0FFDD" height="43.2422" rx="2.5" ry="2.5" style="stroke:#000000;stroke-width:0.5;" width="171" x="371" y="162.1211"/><text fill="#000000" font-family="sans-serif" font-size="14" font-style="italic" lengthAdjust="spacing" textLength="97" x="408" y="180.2285">&#171;Value Object&#187;</text><text fill="#000000" font-family="sans-serif" font-size="14" lengthAdjust="spacing" textLength="151" x="381" y="198.8496">CustomerManagerEmail</text></g><!--entity CustomerManagerName--><g id="elem_CustomerManagerName"><rect fill="#F0FFDD" height="43.2422" rx="2.5" ry="2.5" style="stroke:#000000;stroke-width:0.5;" width="173" x="370" y="84.1211"/><text fill="#000000" font-family="sans-serif" font-size="14" font-style="italic" lengthAdjust="spacing" textLength="97" x="408" y="102.2285">&#171;Value Object&#187;</text><text fill="#000000" font-family="sans-serif" font-size="14" lengthAdjust="spacing" textLength="153" x="380" y="120.8496">CustomerManagerName</text></g><!--class JobOpening--><g id="elem_JobOpening"><rect codeLine="38" fill="#F0FFFF" height="68.543" id="JobOpening" rx="2.5" ry="2.5" style="stroke:#000000;stroke-width:0.5;" width="108" x="402.5" y="582.1211"/><ellipse cx="417.5" cy="612.3926" fill="#ADD1B2" rx="11" ry="11" style="stroke:#181818;stroke-width:1.0;"/><path d="M416.3594,613.1895 L416.3594,615.6895 L420.6875,615.6895 L420.6875,614.7676 Q420.6875,614.1582 420.9219,613.8926 Q421.1719,613.627 421.5469,613.627 Q421.9219,613.627 422.1563,613.8926 Q422.3906,614.1582 422.3906,614.7676 L422.3906,617.3926 L414.3906,617.3926 Q413.7656,617.3926 413.5,617.1582 Q413.25,616.9238 413.25,616.5332 Q413.25,616.1582 413.5156,615.9238 Q413.7813,615.6895 414.3906,615.6895 L414.6563,615.6895 L414.6563,609.0332 L414.3906,609.0332 Q413.7656,609.0332 413.5,608.7988 Q413.25,608.5645 413.25,608.1738 Q413.25,607.7988 413.5,607.5645 Q413.7656,607.3301 414.3906,607.3301 L422.0156,607.3301 L422.0156,609.9238 Q422.0156,610.5332 421.7813,610.7988 Q421.5625,611.0488 421.1719,611.0488 Q420.7969,611.0488 420.5625,610.7988 Q420.3281,610.5332 420.3281,609.9238 L420.3281,609.0332 L416.3594,609.0332 L416.3594,611.4863 L417.8438,611.4863 Q417.8438,610.8301 417.9688,610.6426 Q418.2344,610.2363 418.7031,610.2363 Q419.0781,610.2363 419.3125,610.502 Q419.5469,610.752 419.5469,611.3613 L419.5469,613.3301 Q419.5469,613.877 419.4219,614.0645 Q419.1563,614.4551 418.7031,614.4551 Q418.2344,614.4551 417.9688,614.0488 Q417.8438,613.8613 417.8438,613.1895 L416.3594,613.1895 Z " fill="#000000"/><text fill="#000000" font-family="sans-serif" font-size="12" font-style="italic" lengthAdjust="spacing" textLength="43" x="448" y="600.0703">&#171;entity&#187;</text><text fill="#000000" font-family="sans-serif" font-size="12" font-style="italic" lengthAdjust="spacing" textLength="35" x="452" y="616.0313">&#171;root&#187;</text><text fill="#000000" font-family="sans-serif" font-size="14" lengthAdjust="spacing" textLength="76" x="431.5" y="634.1504">JobOpening</text><line style="stroke:#000000;stroke-width:0.5;" x1="403.5" x2="509.5" y1="642.6641" y2="642.6641"/></g><g id="elem_GMN28"><path d="M801,762.6211 L801,780.9511 L731.6,778.2211 L801,788.9511 L801,824.4941 A0,0 0 0 0 801,824.4941 L981,824.4941 A0,0 0 0 0 981,824.4941 L981,772.6211 L971,762.6211 L801,762.6211 A0,0 0 0 0 801,762.6211 " fill="#FEFFDD" style="stroke:#181818;stroke-width:0.5;"/><path d="M971,762.6211 L971,772.6211 L981,772.6211 L971,762.6211 " fill="#FEFFDD" style="stroke:#181818;stroke-width:0.5;"/><text fill="#000000" font-family="sans-serif" font-size="13" lengthAdjust="spacing" textLength="159" x="807" y="781.6494">Can be one of the following:</text><text fill="#000000" font-family="sans-serif" font-size="13" lengthAdjust="spacing" textLength="53" x="807" y="798.9404">- full-time</text><text fill="#000000" font-family="sans-serif" font-size="13" lengthAdjust="spacing" textLength="59" x="807" y="816.2314">- part-time</text></g><g id="elem_GMN31"><path d="M801,648.1211 L801,686.5111 L731.6,692.7511 L801,694.5111 L801,727.2852 A0,0 0 0 0 801,727.2852 L981,727.2852 A0,0 0 0 0 981,727.2852 L981,658.1211 L971,648.1211 L801,648.1211 A0,0 0 0 0 801,648.1211 " fill="#FEFFDD" style="stroke:#181818;stroke-width:0.5;"/><path d="M971,648.1211 L971,658.1211 L981,658.1211 L971,648.1211 " fill="#FEFFDD" style="stroke:#181818;stroke-width:0.5;"/><text fill="#000000" font-family="sans-serif" font-size="13" lengthAdjust="spacing" textLength="159" x="807" y="667.1494">Can be one of the following:</text><text fill="#000000" font-family="sans-serif" font-size="13" lengthAdjust="spacing" textLength="48" x="807" y="684.4404">- remote</text><text fill="#000000" font-family="sans-serif" font-size="13" lengthAdjust="spacing" textLength="43" x="807" y="701.7314">- hybrid</text><text fill="#000000" font-family="sans-serif" font-size="13" lengthAdjust="spacing" textLength="43" x="807" y="719.0225">- onsite</text></g><g id="elem_GMN34"><path d="M801,282.6211 L801,331.1511 L731.6,318.4911 L801,339.1511 L801,430.9492 A0,0 0 0 0 801,430.9492 L981,430.9492 A0,0 0 0 0 981,430.9492 L981,292.6211 L971,282.6211 L801,282.6211 A0,0 0 0 0 801,282.6211 " fill="#FEFFDD" style="stroke:#181818;stroke-width:0.5;"/><path d="M971,282.6211 L971,292.6211 L981,292.6211 L971,282.6211 " fill="#FEFFDD" style="stroke:#181818;stroke-width:0.5;"/><text fill="#000000" font-family="sans-serif" font-size="13" lengthAdjust="spacing" textLength="159" x="807" y="301.6494">Can be one of the following:</text><text fill="#000000" font-family="sans-serif" font-size="13" lengthAdjust="spacing" textLength="121" x="807" y="318.9404">- ScreeningStartDate</text><text fill="#000000" font-family="sans-serif" font-size="13" lengthAdjust="spacing" textLength="116" x="807" y="336.2314">- ScreeningEndDate</text><text fill="#000000" font-family="sans-serif" font-size="13" lengthAdjust="spacing" textLength="119" x="807" y="353.5225">- InterviewsStartDate</text><text fill="#000000" font-family="sans-serif" font-size="13" lengthAdjust="spacing" textLength="114" x="807" y="370.8135">- InterviewsEndDate</text><text fill="#000000" font-family="sans-serif" font-size="13" lengthAdjust="spacing" textLength="113" x="807" y="388.1045">- AnalysisStartDate</text><text fill="#000000" font-family="sans-serif" font-size="13" lengthAdjust="spacing" textLength="108" x="807" y="405.3955">- AnalysisEndDate</text><text fill="#000000" font-family="sans-serif" font-size="13" lengthAdjust="spacing" textLength="72" x="807" y="422.6865">- ResultDate</text></g><g id="elem_GMN37"><path d="M801,465.6211 L801,579.3672 L981,579.3672 L981,475.6211 L971,465.6211 L801,465.6211 " fill="#FEFFDD" style="stroke:#181818;stroke-width:0.5;"/><path d="M971,465.6211 L971,475.6211 L981,475.6211 L971,465.6211 " fill="#FEFFDD" style="stroke:#181818;stroke-width:1.0;"/><text fill="#000000" font-family="sans-serif" font-size="13" lengthAdjust="spacing" textLength="159" x="807" y="484.6494">Can be one of the following:</text><text fill="#000000" font-family="sans-serif" font-size="13" lengthAdjust="spacing" textLength="72" x="807" y="501.9404">- Application</text><text fill="#000000" font-family="sans-serif" font-size="13" lengthAdjust="spacing" textLength="66" x="807" y="519.2314">- Screening</text><text fill="#000000" font-family="sans-serif" font-size="13" lengthAdjust="spacing" textLength="64" x="807" y="536.5225">- Interviews</text><text fill="#000000" font-family="sans-serif" font-size="13" lengthAdjust="spacing" textLength="58" x="807" y="553.8135">- Analysis</text><text fill="#000000" font-family="sans-serif" font-size="13" lengthAdjust="spacing" textLength="45" x="807" y="571.1045">- Result</text></g><!--entity JobReference--><g id="elem_JobReference"><rect fill="#F0FFDD" height="43.2422" rx="2.5" ry="2.5" style="stroke:#000000;stroke-width:0.5;" width="117" x="614.5" y="907.1211"/><text fill="#000000" font-family="sans-serif" font-size="14" font-style="italic" lengthAdjust="spacing" textLength="97" x="624.5" y="925.2285">&#171;Value Object&#187;</text><text fill="#000000" font-family="sans-serif" font-size="14" lengthAdjust="spacing" textLength="88" x="629" y="943.8496">JobReference</text></g><!--entity TitleOrFunction--><g id="elem_TitleOrFunction"><rect fill="#F0FFDD" height="43.2422" rx="2.5" ry="2.5" style="stroke:#000000;stroke-width:0.5;" width="118" x="614" y="829.1211"/><text fill="#000000" font-family="sans-serif" font-size="14" font-style="italic" lengthAdjust="spacing" textLength="97" x="624.5" y="847.2285">&#171;Value Object&#187;</text><text fill="#000000" font-family="sans-serif" font-size="14" lengthAdjust="spacing" textLength="98" x="624" y="865.8496">TitleOrFunction</text></g><!--entity ContractType--><g id="elem_ContractType"><rect fill="#F0FFDD" height="43.2422" rx="2.5" ry="2.5" style="stroke:#000000;stroke-width:0.5;" width="117" x="614.5" y="751.1211"/><text fill="#000000" font-family="sans-serif" font-size="14" font-style="italic" lengthAdjust="spacing" textLength="97" x="624.5" y="769.2285">&#171;Value Object&#187;</text><text fill="#000000" font-family="sans-serif" font-size="14" lengthAdjust="spacing" textLength="86" x="630" y="787.8496">ContractType</text></g><!--entity Mode--><g id="elem_Mode"><rect fill="#F0FFDD" height="43.2422" rx="2.5" ry="2.5" style="stroke:#000000;stroke-width:0.5;" width="117" x="614.5" y="673.1211"/><text fill="#000000" font-family="sans-serif" font-size="14" font-style="italic" lengthAdjust="spacing" textLength="97" x="624.5" y="691.2285">&#171;Value Object&#187;</text><text fill="#000000" font-family="sans-serif" font-size="14" lengthAdjust="spacing" textLength="35" x="655.5" y="709.8496">Mode</text></g><!--entity Address--><g id="elem_Address"><rect fill="#F0FFDD" height="43.2422" rx="2.5" ry="2.5" style="stroke:#000000;stroke-width:0.5;" width="117" x="614.5" y="595.1211"/><text fill="#000000" font-family="sans-serif" font-size="14" font-style="italic" lengthAdjust="spacing" textLength="97" x="624.5" y="613.2285">&#171;Value Object&#187;</text><text fill="#000000" font-family="sans-serif" font-size="14" lengthAdjust="spacing" textLength="52" x="647" y="631.8496">Address</text></g><!--entity VacanciesNumber--><g id="elem_VacanciesNumber"><rect fill="#F0FFDD" height="43.2422" rx="2.5" ry="2.5" style="stroke:#000000;stroke-width:0.5;" width="134" x="606" y="517.1211"/><text fill="#000000" font-family="sans-serif" font-size="14" font-style="italic" lengthAdjust="spacing" textLength="97" x="624.5" y="535.2285">&#171;Value Object&#187;</text><text fill="#000000" font-family="sans-serif" font-size="14" lengthAdjust="spacing" textLength="114" x="616" y="553.8496">VacanciesNumber</text></g><!--entity Description--><g id="elem_Description"><rect fill="#F0FFDD" height="43.2422" rx="2.5" ry="2.5" style="stroke:#000000;stroke-width:0.5;" width="117" x="614.5" y="439.1211"/><text fill="#000000" font-family="sans-serif" font-size="14" font-style="italic" lengthAdjust="spacing" textLength="97" x="624.5" y="457.2285">&#171;Value Object&#187;</text><text fill="#000000" font-family="sans-serif" font-size="14" lengthAdjust="spacing" textLength="71" x="637.5" y="475.8496">Description</text></g><!--entity ProcessState--><g id="elem_ProcessState"><rect fill="#F0FFDD" height="43.2422" rx="2.5" ry="2.5" style="stroke:#000000;stroke-width:0.5;" width="117" x="614.5" y="361.1211"/><text fill="#000000" font-family="sans-serif" font-size="14" font-style="italic" lengthAdjust="spacing" textLength="97" x="624.5" y="379.2285">&#171;Value Object&#187;</text><text fill="#000000" font-family="sans-serif" font-size="14" lengthAdjust="spacing" textLength="84" x="631" y="397.8496">ProcessState</text></g><!--entity ProcessDate--><g id="elem_ProcessDate"><rect fill="#F0FFDD" height="43.2422" rx="2.5" ry="2.5" style="stroke:#000000;stroke-width:0.5;" width="117" x="614.5" y="283.1211"/><text fill="#000000" font-family="sans-serif" font-size="14" font-style="italic" lengthAdjust="spacing" textLength="97" x="624.5" y="301.2285">&#171;Value Object&#187;</text><text fill="#000000" font-family="sans-serif" font-size="14" lengthAdjust="spacing" textLength="81" x="632.5" y="319.8496">ProcessDate</text></g><!--class JobRequirementsSpecification--><g id="elem_JobRequirementsSpecification"><rect codeLine="104" fill="#F0FFFF" height="68.543" id="JobRequirementsSpecification" rx="2.5" ry="2.5" style="stroke:#000000;stroke-width:0.5;" width="222" x="23" y="1028.1211"/><ellipse cx="38" cy="1058.3926" fill="#ADD1B2" rx="11" ry="11" style="stroke:#181818;stroke-width:1.0;"/><path d="M36.8594,1059.1895 L36.8594,1061.6895 L41.1875,1061.6895 L41.1875,1060.7676 Q41.1875,1060.1582 41.4219,1059.8926 Q41.6719,1059.627 42.0469,1059.627 Q42.4219,1059.627 42.6563,1059.8926 Q42.8906,1060.1582 42.8906,1060.7676 L42.8906,1063.3926 L34.8906,1063.3926 Q34.2656,1063.3926 34,1063.1582 Q33.75,1062.9238 33.75,1062.5332 Q33.75,1062.1582 34.0156,1061.9238 Q34.2813,1061.6895 34.8906,1061.6895 L35.1563,1061.6895 L35.1563,1055.0332 L34.8906,1055.0332 Q34.2656,1055.0332 34,1054.7988 Q33.75,1054.5645 33.75,1054.1738 Q33.75,1053.7988 34,1053.5645 Q34.2656,1053.3301 34.8906,1053.3301 L42.5156,1053.3301 L42.5156,1055.9238 Q42.5156,1056.5332 42.2813,1056.7988 Q42.0625,1057.0488 41.6719,1057.0488 Q41.2969,1057.0488 41.0625,1056.7988 Q40.8281,1056.5332 40.8281,1055.9238 L40.8281,1055.0332 L36.8594,1055.0332 L36.8594,1057.4863 L38.3438,1057.4863 Q38.3438,1056.8301 38.4688,1056.6426 Q38.7344,1056.2363 39.2031,1056.2363 Q39.5781,1056.2363 39.8125,1056.502 Q40.0469,1056.752 40.0469,1057.3613 L40.0469,1059.3301 Q40.0469,1059.877 39.9219,1060.0645 Q39.6563,1060.4551 39.2031,1060.4551 Q38.7344,1060.4551 38.4688,1060.0488 Q38.3438,1059.8613 38.3438,1059.1895 L36.8594,1059.1895 Z " fill="#000000"/><text fill="#000000" font-family="sans-serif" font-size="12" font-style="italic" lengthAdjust="spacing" textLength="43" x="125.5" y="1046.0703">&#171;entity&#187;</text><text fill="#000000" font-family="sans-serif" font-size="12" font-style="italic" lengthAdjust="spacing" textLength="35" x="129.5" y="1062.0313">&#171;root&#187;</text><text fill="#000000" font-family="sans-serif" font-size="14" lengthAdjust="spacing" textLength="190" x="52" y="1080.1504">JobRequirementsSpecification</text><line style="stroke:#000000;stroke-width:0.5;" x1="24" x2="244" y1="1088.6641" y2="1088.6641"/></g><!--entity Requirements--><g id="elem_Requirements"><rect fill="#F0FFDD" height="43.2422" rx="2.5" ry="2.5" style="stroke:#000000;stroke-width:0.5;" width="117" x="398" y="1041.1211"/><text fill="#000000" font-family="sans-serif" font-size="14" font-style="italic" lengthAdjust="spacing" textLength="97" x="408" y="1059.2285">&#171;Value Object&#187;</text><text fill="#000000" font-family="sans-serif" font-size="14" lengthAdjust="spacing" textLength="88" x="412.5" y="1077.8496">Requirements</text></g><!--link CustomerManager to CustomerManagerEmail--><g id="link_CustomerManager_CustomerManagerEmail"><path codeLine="33" d="M208.53,173.6011 C256.95,175.5711 314.4949,177.8977 364.9949,179.9477 " fill="none" id="CustomerManager-to-CustomerManagerEmail" style="stroke:#808080;stroke-width:1.0;"/><polygon fill="#808080" points="370.99,180.1911,362.1596,175.8293,365.9941,179.9883,361.8352,183.8228,370.99,180.1911" style="stroke:#808080;stroke-width:1.0;"/></g><!--link CustomerManager to CustomerManagerName--><g id="link_CustomerManager_CustomerManagerName"><path codeLine="34" d="M208.53,155.7111 C256.58,145.9611 313.6399,134.3944 363.9499,124.1844 " fill="none" id="CustomerManager-to-CustomerManagerName" style="stroke:#808080;stroke-width:1.0;"/><polygon fill="#808080" points="369.83,122.9911,360.2142,120.861,364.9299,123.9855,361.8053,128.7012,369.83,122.9911" style="stroke:#808080;stroke-width:1.0;"/></g><!--link JobOpening to JobReference--><g id="link_JobOpening_JobReference"><path codeLine="59" d="M469.44,651.4011 C490,707.2111 536.68,817.8011 606,889.6211 C612.28,896.1311 614.8474,898.6897 622.6174,903.6997 " fill="none" id="JobOpening-to-JobReference" style="stroke:#808080;stroke-width:1.0;"/><polygon fill="#808080" points="627.66,906.9511,622.2637,898.7122,623.4578,904.2416,617.9284,905.4357,627.66,906.9511" style="stroke:#808080;stroke-width:1.0;"/></g><!--link JobOpening to TitleOrFunction--><g id="link_JobOpening_TitleOrFunction"><path codeLine="60" d="M477.99,651.2111 C503.91,692.9211 551.78,763.4111 606,811.6211 C613.16,817.9911 616.41,820.7004 624.72,825.8504 " fill="none" id="JobOpening-to-TitleOrFunction" style="stroke:#808080;stroke-width:1.0;"/><polygon fill="#808080" points="629.82,829.0111,624.2771,820.8701,625.57,826.3772,620.0629,827.6701,629.82,829.0111" style="stroke:#808080;stroke-width:1.0;"/></g><!--link JobOpening to ContractType--><g id="link_JobOpening_ContractType"><path codeLine="61" d="M498.3,651.1811 C527.52,675.3311 568.22,707.7511 606,733.6211 C614.67,739.5611 619.1241,742.4824 628.2641,747.9224 " fill="none" id="JobOpening-to-ContractType" style="stroke:#808080;stroke-width:1.0;"/><polygon fill="#808080" points="633.42,750.9911,627.732,742.9508,629.1234,748.4338,623.6404,749.8253,633.42,750.9911" style="stroke:#808080;stroke-width:1.0;"/></g><!--link JobOpening to Mode--><g id="link_JobOpening_Mode"><path codeLine="62" d="M510.52,635.9011 C542.03,647.3611 576.3815,659.8499 608.6815,671.5999 " fill="none" id="JobOpening-to-Mode" style="stroke:#808080;stroke-width:1.0;"/><polygon fill="#808080" points="614.32,673.6511,607.2297,666.8154,609.6212,671.9418,604.4948,674.3334,614.32,673.6511" style="stroke:#808080;stroke-width:1.0;"/></g><!--link JobOpening to Address--><g id="link_JobOpening_Address"><path codeLine="63" d="M510.52,616.6211 C542.03,616.6211 576.02,616.6211 608.32,616.6211 " fill="none" id="JobOpening-to-Address" style="stroke:#808080;stroke-width:1.0;"/><polygon fill="#808080" points="614.32,616.6211,605.32,612.6211,609.32,616.6211,605.32,620.6211,614.32,616.6211" style="stroke:#808080;stroke-width:1.0;"/></g><!--link JobOpening to VacanciesNumber--><g id="link_JobOpening_VacanciesNumber"><path codeLine="64" d="M510.52,597.3411 C541.54,586.0611 575.1214,573.852 607.1514,562.202 " fill="none" id="JobOpening-to-VacanciesNumber" style="stroke:#808080;stroke-width:1.0;"/><polygon fill="#808080" points="612.79,560.1511,602.9648,559.4683,608.0912,561.8602,605.6993,566.9865,612.79,560.1511" style="stroke:#808080;stroke-width:1.0;"/></g><!--link JobOpening to Description--><g id="link_JobOpening_Description"><path codeLine="65" d="M498.3,582.0611 C527.52,557.9111 568.22,525.4911 606,499.6211 C614.67,493.6811 619.1241,490.7598 628.2641,485.3198 " fill="none" id="JobOpening-to-Description" style="stroke:#808080;stroke-width:1.0;"/><polygon fill="#808080" points="633.42,482.2511,623.6404,483.4169,629.1234,484.8083,627.732,490.2914,633.42,482.2511" style="stroke:#808080;stroke-width:1.0;"/></g><!--link JobOpening to ProcessState--><g id="link_JobOpening_ProcessState"><path codeLine="66" d="M477.99,582.0311 C503.91,540.3211 551.78,469.8311 606,421.6211 C613.16,415.2511 616.41,412.5418 624.72,407.3918 " fill="none" id="JobOpening-to-ProcessState" style="stroke:#808080;stroke-width:1.0;"/><polygon fill="#808080" points="629.82,404.2311,620.0629,405.5721,625.57,406.865,624.2771,412.3721,629.82,404.2311" style="stroke:#808080;stroke-width:1.0;"/></g><!--link JobOpening to ProcessDate--><g id="link_JobOpening_ProcessDate"><path codeLine="67" d="M469.44,581.8411 C490,526.0311 536.68,415.4411 606,343.6211 C612.28,337.1111 614.8474,334.5525 622.6174,329.5425 " fill="none" id="JobOpening-to-ProcessDate" style="stroke:#808080;stroke-width:1.0;"/><polygon fill="#808080" points="627.66,326.2911,617.9284,327.8065,623.4578,329.0006,622.2637,334.53,627.66,326.2911" style="stroke:#808080;stroke-width:1.0;"/></g><!--link ProcessState to GMN37--><g id="link_ProcessState_GMN37"><path d="M711.58,404.3111 C720.93,409.8511 730.88,415.8611 740,421.6211 C761.9,435.4511 785.26,450.8511 806.87,465.3811 " fill="none" id="ProcessState-GMN37" style="stroke:#808080;stroke-width:1.0;stroke-dasharray:7.0,7.0;"/></g><!--link JobRequirementsSpecification to Requirements--><g id="link_JobRequirementsSpecification_Requirements"><path codeLine="109" d="M245.3,1062.6211 C296.54,1062.6211 349.36,1062.6211 391.72,1062.6211 " fill="none" id="JobRequirementsSpecification-to-Requirements" style="stroke:#808080;stroke-width:1.0;"/><polygon fill="#808080" points="397.72,1062.6211,388.72,1058.6211,392.72,1062.6211,388.72,1066.6211,397.72,1062.6211" style="stroke:#808080;stroke-width:1.0;"/></g><!--reverse link JobRequirementsSpecification to JobOpening--><g id="link_JobRequirementsSpecification_JobOpening"><path codeLine="113" d="M163.3817,1023.1189 C223.1717,939.9289 370.86,734.4011 430.63,651.2211 " fill="none" id="JobRequirementsSpecification-backto-JobOpening" style="stroke:#808080;stroke-width:1.0;"/><polygon fill="#808080" points="159.88,1027.9911,168.3807,1023.0173,162.7981,1023.931,161.8844,1018.3484,159.88,1027.9911" style="stroke:#808080;stroke-width:1.0;"/><text fill="#000000" font-family="sans-serif" font-size="13" lengthAdjust="spacing" textLength="63" x="276" y="782.6494">associated</text><text fill="#000000" font-family="sans-serif" font-size="13" lengthAdjust="spacing" textLength="7" x="157.1462" y="1016.8691">1</text><text fill="#000000" font-family="sans-serif" font-size="13" lengthAdjust="spacing" textLength="9" x="416.4102" y="672.7215">N</text></g><!--link CustomerManager to JobOpening--><g id="link_CustomerManager_JobOpening"><path codeLine="114" d="M159.88,205.2511 C219.67,288.4411 367.3588,493.9686 427.1288,577.1486 " fill="none" id="CustomerManager-to-JobOpening" style="stroke:#808080;stroke-width:1.0;"/><polygon fill="#808080" points="430.63,582.0211,428.6265,572.3782,427.7123,577.9607,422.1298,577.0464,430.63,582.0211" style="stroke:#808080;stroke-width:1.0;"/><text fill="#000000" font-family="sans-serif" font-size="13" lengthAdjust="spacing" textLength="53" x="281" y="363.6494">manages</text><text fill="#000000" font-family="sans-serif" font-size="13" lengthAdjust="spacing" textLength="7" x="156.7266" y="226.7567">1</text><text fill="#000000" font-family="sans-serif" font-size="13" lengthAdjust="spacing" textLength="9" x="415.8407" y="570.9048">N</text></g><!--SRC=[fLPDJ-Cm4BtxLrZPmvuYmN5H5QbGGAnAYoZYxZgJr5l7pZhEeWhnttUSjjG9JfhL-X9fvit7U_ROsOWKQ05sezEAICWijPeQaMyiJOK1ReLMv7kr5QfaXXLK2WLsLmBL1cC8UH5M0erckc12qKUTWgGnlRou-14HSWhZabKLVISKrrnaCCSqrzgaO6wqr8REcDbUonhQ0CQtkT6rIlUWwTFJ_E5c-lAmN3Iuhl_RtSKThiOtDKQ_xSsvWTqUxnLSImmc7twF9LfO3YkxGqQEEbEvX1OBPj814lS6GFq_Wzcioy2fSnzYSNraSUYTHZTrPNK1XZuoXGOicIF_d5c8tWaeA-oE7Z57o6IoToJ9P6Aqjab2caeDtGxu5lTPOiGhmzsYo_Klr2b93g9yz8OjM07zKSsdsrKS9y7YOy6kP4kQdtfDboKeeVAGAkW-UWS5GTmpP610SHWXH3CWItDNgsQMnaYdbJMCsnStPkVXRkP6mAPfQW1dy3pobN6ck81gKHVhvdYSYvX1nOqeH_9xCffZ9okBye-7pmRHpSVRGNSU_8qA-Jix4uBuMn7oE-r3zeFO8LT7tH34apFazlKRy3l1zheeZTBjxtITVUNKp1DJT8sNkW87iHkWcPPIls7EgqzGJBDQojYA0ZmRNetsP0ELDlL2bJ_L6byIyniej0NVijcjZKXzYrQLiESRy9MXNzQuXhogA-ukV7JZLXZRazM3tQgq5_IWB9W_0jwguMGdt52sgM9oLuapkOweeKpFKDNob6A4kgTp-S_2OajbAGLddqS_e2Bf4uI4sP4GeJQPxYln3Bzh_Fafy1MewAe4Bh93KpqFXn_GnWy-9QqwtRkjTRKTnho_ZXjytqiSgS68w3AYapYcqIBoRv0hYdzgcWkac9BkC-jYNAKlCKK3gCXV]--></g></svg>