<?xml version="1.0" encoding="us-ascii" standalone="no"?><svg xmlns="http://www.w3.org/2000/svg" xmlns:xlink="http://www.w3.org/1999/xlink" contentStyleType="text/css" height="696.8px" preserveAspectRatio="none" style="width:1617px;height:696px;background:#FFFFFF;" version="1.1" viewBox="0 0 1617 696" width="1617.6px" zoomAndPan="magnify"><defs/><g><!--class SelectInterviewModelUI--><g id="elem_SelectInterviewModelUI"><rect codeLine="4" fill="#F1F1F1" height="157.1156" id="SelectInterviewModelUI" rx="2" ry="2" style="stroke:#181818;stroke-width:0.4000000000000001;" width="268" x="742.8" y="5.6"/><ellipse cx="810.2" cy="18.4" fill="#ADD1B2" rx="8.8" ry="8.8" style="stroke:#181818;stroke-width:0.8000000000000002;"/><path d="M812.5785,22.9145 Q812.1137,23.1535 811.6023,23.273 Q811.091,23.3926 810.5266,23.3926 Q808.5211,23.3926 807.4652,22.0711 Q806.4094,20.7496 806.4094,18.2527 Q806.4094,15.7492 807.4652,14.4277 Q808.5211,13.1063 810.5266,13.1063 Q811.091,13.1063 811.609,13.2258 Q812.127,13.3453 812.5785,13.5844 L812.5785,15.7625 Q812.0738,15.2977 811.599,15.0818 Q811.1242,14.866 810.6195,14.866 Q809.5438,14.866 808.9959,15.7193 Q808.448,16.5727 808.448,18.2527 Q808.448,19.9262 808.9959,20.7795 Q809.5438,21.6328 810.6195,21.6328 Q811.1242,21.6328 811.599,21.417 Q812.0738,21.2012 812.5785,20.7363 Z " fill="#000000"/><text fill="#000000" font-family="sans-serif" font-size="11.2" lengthAdjust="spacing" textLength="126.4" x="826.6" y="22.6328">SelectInterviewModelUI</text><line style="stroke:#181818;stroke-width:0.4000000000000001;" x1="743.6" x2="1010" y1="31.2" y2="31.2"/><line style="stroke:#181818;stroke-width:0.4000000000000001;" x1="743.6" x2="1010" y1="37.6" y2="37.6"/><ellipse cx="751.6" cy="48.5953" fill="#84BE84" rx="2.4" ry="2.4" style="stroke:#038048;stroke-width:0.8000000000000002;"/><text fill="#000000" font-family="sans-serif" font-size="11.2" lengthAdjust="spacing" textLength="52" x="758.8" y="51.6281">doShow()</text><ellipse cx="751.6" cy="61.7859" fill="#84BE84" rx="2.4" ry="2.4" style="stroke:#038048;stroke-width:0.8000000000000002;"/><text fill="#000000" font-family="sans-serif" font-size="11.2" lengthAdjust="spacing" textLength="107.2" x="758.8" y="64.8188">showJobOpenings()</text><ellipse cx="751.6" cy="74.9766" fill="#84BE84" rx="2.4" ry="2.4" style="stroke:#038048;stroke-width:0.8000000000000002;"/><text fill="#000000" font-family="sans-serif" font-size="11.2" lengthAdjust="spacing" textLength="104" x="758.8" y="78.0094">selectJobOpening()</text><ellipse cx="751.6" cy="88.1672" fill="#84BE84" rx="2.4" ry="2.4" style="stroke:#038048;stroke-width:0.8000000000000002;"/><text fill="#000000" font-family="sans-serif" font-size="11.2" lengthAdjust="spacing" textLength="247.2" x="758.8" y="91.2">showApplicationsOfJobOpening(jobOpening)</text><ellipse cx="751.6" cy="101.3578" fill="#84BE84" rx="2.4" ry="2.4" style="stroke:#038048;stroke-width:0.8000000000000002;"/><text fill="#000000" font-family="sans-serif" font-size="11.2" lengthAdjust="spacing" textLength="101.6" x="758.8" y="104.3906">selectApplication()</text><ellipse cx="751.6" cy="114.5484" fill="#84BE84" rx="2.4" ry="2.4" style="stroke:#038048;stroke-width:0.8000000000000002;"/><text fill="#000000" font-family="sans-serif" font-size="11.2" lengthAdjust="spacing" textLength="228" x="758.8" y="117.5813">showInterviewsOfApplication(application)</text><ellipse cx="751.6" cy="127.7391" fill="#84BE84" rx="2.4" ry="2.4" style="stroke:#038048;stroke-width:0.8000000000000002;"/><text fill="#000000" font-family="sans-serif" font-size="11.2" lengthAdjust="spacing" textLength="106.4" x="758.8" y="130.7719">selectJobInterview()</text><ellipse cx="751.6" cy="140.9297" fill="#84BE84" rx="2.4" ry="2.4" style="stroke:#038048;stroke-width:0.8000000000000002;"/><text fill="#000000" font-family="sans-serif" font-size="11.2" lengthAdjust="spacing" textLength="122.4" x="758.8" y="143.9625">selectInterviewModel()</text><ellipse cx="751.6" cy="154.1203" fill="#84BE84" rx="2.4" ry="2.4" style="stroke:#038048;stroke-width:0.8000000000000002;"/><text fill="#000000" font-family="sans-serif" font-size="11.2" lengthAdjust="spacing" textLength="55.2" x="758.8" y="157.1531">headline()</text></g><!--class ListJobOpeningController--><g id="elem_ListJobOpeningController"><rect codeLine="16" fill="#F1F1F1" height="64.7813" id="ListJobOpeningController" rx="2" ry="2" style="stroke:#181818;stroke-width:0.4000000000000001;" width="271.2" x="266.8" y="356"/><ellipse cx="329.4" cy="368.8" fill="#ADD1B2" rx="8.8" ry="8.8" style="stroke:#181818;stroke-width:0.8000000000000002;"/><path d="M331.7785,373.3145 Q331.3137,373.5535 330.8023,373.673 Q330.291,373.7926 329.7266,373.7926 Q327.7211,373.7926 326.6652,372.4711 Q325.6094,371.1496 325.6094,368.6527 Q325.6094,366.1492 326.6652,364.8277 Q327.7211,363.5063 329.7266,363.5063 Q330.291,363.5063 330.809,363.6258 Q331.327,363.7453 331.7785,363.9844 L331.7785,366.1625 Q331.2738,365.6977 330.799,365.4818 Q330.3242,365.266 329.8195,365.266 Q328.7438,365.266 328.1959,366.1193 Q327.648,366.9727 327.648,368.6527 Q327.648,370.3262 328.1959,371.1795 Q328.7438,372.0328 329.8195,372.0328 Q330.3242,372.0328 330.799,371.817 Q331.2738,371.6012 331.7785,371.1363 Z " fill="#000000"/><text fill="#000000" font-family="sans-serif" font-size="11.2" lengthAdjust="spacing" textLength="139.2" x="345.8" y="373.0328">ListJobOpeningController</text><line style="stroke:#181818;stroke-width:0.4000000000000001;" x1="267.6" x2="537.2" y1="381.6" y2="381.6"/><line style="stroke:#181818;stroke-width:0.4000000000000001;" x1="267.6" x2="537.2" y1="388" y2="388"/><ellipse cx="275.6" cy="398.9953" fill="#84BE84" rx="2.4" ry="2.4" style="stroke:#038048;stroke-width:0.8000000000000002;"/><text fill="#000000" font-family="sans-serif" font-size="11.2" lengthAdjust="spacing" textLength="85.6" x="282.8" y="402.0281">allJobOpening()</text><ellipse cx="275.6" cy="412.1859" fill="#84BE84" rx="2.4" ry="2.4" style="stroke:#038048;stroke-width:0.8000000000000002;"/><text fill="#000000" font-family="sans-serif" font-size="11.2" lengthAdjust="spacing" textLength="250.4" x="282.8" y="415.2188">findJobOpeningByJobReference(jobReference)</text></g><!--class ListJobOpeningApplicationsController--><g id="elem_ListJobOpeningApplicationsController"><rect codeLine="21" fill="#F1F1F1" height="77.9719" id="ListJobOpeningApplicationsController" rx="2" ry="2" style="stroke:#181818;stroke-width:0.4000000000000001;" width="334.4" x="566.4" y="349.6"/><ellipse cx="626.6" cy="362.4" fill="#ADD1B2" rx="8.8" ry="8.8" style="stroke:#181818;stroke-width:0.8000000000000002;"/><path d="M628.9785,366.9145 Q628.5137,367.1535 628.0023,367.273 Q627.491,367.3926 626.9266,367.3926 Q624.9211,367.3926 623.8652,366.0711 Q622.8094,364.7496 622.8094,362.2527 Q622.8094,359.7492 623.8652,358.4277 Q624.9211,357.1063 626.9266,357.1063 Q627.491,357.1063 628.009,357.2258 Q628.527,357.3453 628.9785,357.5844 L628.9785,359.7625 Q628.4738,359.2977 627.999,359.0818 Q627.5242,358.866 627.0195,358.866 Q625.9438,358.866 625.3959,359.7193 Q624.848,360.5727 624.848,362.2527 Q624.848,363.9262 625.3959,364.7795 Q625.9438,365.6328 627.0195,365.6328 Q627.5242,365.6328 627.999,365.417 Q628.4738,365.2012 628.9785,364.7363 Z " fill="#000000"/><text fill="#000000" font-family="sans-serif" font-size="11.2" lengthAdjust="spacing" textLength="207.2" x="643" y="366.6328">ListJobOpeningApplicationsController</text><line style="stroke:#181818;stroke-width:0.4000000000000001;" x1="567.2" x2="900" y1="375.2" y2="375.2"/><line style="stroke:#181818;stroke-width:0.4000000000000001;" x1="567.2" x2="900" y1="381.6" y2="381.6"/><ellipse cx="575.2" cy="392.5953" fill="#84BE84" rx="2.4" ry="2.4" style="stroke:#038048;stroke-width:0.8000000000000002;"/><text fill="#000000" font-family="sans-serif" font-size="11.2" lengthAdjust="spacing" textLength="313.6" x="582.4" y="395.6281">allApplicationsOfJobOpening(JobReference jobReference)</text><ellipse cx="575.2" cy="405.7859" fill="#84BE84" rx="2.4" ry="2.4" style="stroke:#038048;stroke-width:0.8000000000000002;"/><text fill="#000000" font-family="sans-serif" font-size="11.2" lengthAdjust="spacing" textLength="241.6" x="582.4" y="408.8188">findJobOpening(JobReference jobReference)</text><ellipse cx="575.2" cy="418.9766" fill="#84BE84" rx="2.4" ry="2.4" style="stroke:#038048;stroke-width:0.8000000000000002;"/><text fill="#000000" font-family="sans-serif" font-size="11.2" lengthAdjust="spacing" textLength="143.2" x="582.4" y="422.0094">findApplicationByID(int id)</text></g><!--class ListJobInterviewsApplicationController--><g id="elem_ListJobInterviewsApplicationController"><rect codeLine="27" fill="#F1F1F1" height="64.7813" id="ListJobInterviewsApplicationController" rx="2" ry="2" style="stroke:#181818;stroke-width:0.4000000000000001;" width="316" x="929.2" y="356"/><ellipse cx="979" cy="368.8" fill="#ADD1B2" rx="8.8" ry="8.8" style="stroke:#181818;stroke-width:0.8000000000000002;"/><path d="M981.3785,373.3145 Q980.9137,373.5535 980.4023,373.673 Q979.891,373.7926 979.3266,373.7926 Q977.3211,373.7926 976.2652,372.4711 Q975.2094,371.1496 975.2094,368.6527 Q975.2094,366.1492 976.2652,364.8277 Q977.3211,363.5063 979.3266,363.5063 Q979.891,363.5063 980.409,363.6258 Q980.927,363.7453 981.3785,363.9844 L981.3785,366.1625 Q980.8738,365.6977 980.399,365.4818 Q979.9242,365.266 979.4195,365.266 Q978.3438,365.266 977.7959,366.1193 Q977.248,366.9727 977.248,368.6527 Q977.248,370.3262 977.7959,371.1795 Q978.3438,372.0328 979.4195,372.0328 Q979.9242,372.0328 980.399,371.817 Q980.8738,371.6012 981.3785,371.1363 Z " fill="#000000"/><text fill="#000000" font-family="sans-serif" font-size="11.2" lengthAdjust="spacing" textLength="209.6" x="995.4" y="373.0328">ListJobInterviewsApplicationController</text><line style="stroke:#181818;stroke-width:0.4000000000000001;" x1="930" x2="1244.4" y1="381.6" y2="381.6"/><line style="stroke:#181818;stroke-width:0.4000000000000001;" x1="930" x2="1244.4" y1="388" y2="388"/><ellipse cx="938" cy="398.9953" fill="#84BE84" rx="2.4" ry="2.4" style="stroke:#038048;stroke-width:0.8000000000000002;"/><text fill="#000000" font-family="sans-serif" font-size="11.2" lengthAdjust="spacing" textLength="295.2" x="945.2" y="402.0281">allJobInterviewsOfApplication(Application application)</text><ellipse cx="938" cy="412.1859" fill="#84BE84" rx="2.4" ry="2.4" style="stroke:#038048;stroke-width:0.8000000000000002;"/><text fill="#000000" font-family="sans-serif" font-size="11.2" lengthAdjust="spacing" textLength="202.4" x="945.2" y="415.2188">findJobInterviewById(Integer identity)</text></g><!--class ListInterviewModelsController--><g id="elem_ListInterviewModelsController"><rect codeLine="32" fill="#F1F1F1" height="77.9719" id="ListInterviewModelsController" rx="2" ry="2" style="stroke:#181818;stroke-width:0.4000000000000001;" width="294.4" x="1184.8" y="217.2"/><ellipse cx="1247" cy="230" fill="#ADD1B2" rx="8.8" ry="8.8" style="stroke:#181818;stroke-width:0.8000000000000002;"/><path d="M1249.3785,234.5145 Q1248.9137,234.7535 1248.4023,234.873 Q1247.891,234.9926 1247.3266,234.9926 Q1245.3211,234.9926 1244.2652,233.6711 Q1243.2094,232.3496 1243.2094,229.8527 Q1243.2094,227.3492 1244.2652,226.0277 Q1245.3211,224.7063 1247.3266,224.7063 Q1247.891,224.7063 1248.409,224.8258 Q1248.927,224.9453 1249.3785,225.1844 L1249.3785,227.3625 Q1248.8738,226.8977 1248.399,226.6818 Q1247.9242,226.466 1247.4195,226.466 Q1246.3438,226.466 1245.7959,227.3193 Q1245.248,228.1727 1245.248,229.8527 Q1245.248,231.5262 1245.7959,232.3795 Q1246.3438,233.2328 1247.4195,233.2328 Q1247.9242,233.2328 1248.399,233.017 Q1248.8738,232.8012 1249.3785,232.3363 Z " fill="#000000"/><text fill="#000000" font-family="sans-serif" font-size="11.2" lengthAdjust="spacing" textLength="163.2" x="1263.4" y="234.2328">ListInterviewModelsController</text><line style="stroke:#181818;stroke-width:0.4000000000000001;" x1="1185.6" x2="1478.4" y1="242.8" y2="242.8"/><line style="stroke:#181818;stroke-width:0.4000000000000001;" x1="1185.6" x2="1478.4" y1="249.2" y2="249.2"/><ellipse cx="1193.6" cy="260.1953" fill="#84BE84" rx="2.4" ry="2.4" style="stroke:#038048;stroke-width:0.8000000000000002;"/><text fill="#000000" font-family="sans-serif" font-size="11.2" lengthAdjust="spacing" textLength="109.6" x="1200.8" y="263.2281">allInterviewModels()</text><ellipse cx="1193.6" cy="273.3859" fill="#84BE84" rx="2.4" ry="2.4" style="stroke:#038048;stroke-width:0.8000000000000002;"/><text fill="#000000" font-family="sans-serif" font-size="11.2" lengthAdjust="spacing" textLength="180" x="1200.8" y="276.4188">importInterviewModel(Path path)</text><ellipse cx="1193.6" cy="286.5766" fill="#84BE84" rx="2.4" ry="2.4" style="stroke:#038048;stroke-width:0.8000000000000002;"/><text fill="#000000" font-family="sans-serif" font-size="11.2" lengthAdjust="spacing" textLength="273.6" x="1200.8" y="289.6094">extractInterviewModelFromFile(List&lt;String&gt; data)</text></g><!--class SelectInterviewModelController--><g id="elem_SelectInterviewModelController"><rect codeLine="38" fill="#F1F1F1" height="91.1625" id="SelectInterviewModelController" rx="2" ry="2" style="stroke:#181818;stroke-width:0.4000000000000001;" width="336" x="708.8" y="210.4"/><ellipse cx="787.8" cy="223.2" fill="#ADD1B2" rx="8.8" ry="8.8" style="stroke:#181818;stroke-width:0.8000000000000002;"/><path d="M790.1785,227.7145 Q789.7137,227.9535 789.2023,228.073 Q788.691,228.1926 788.1266,228.1926 Q786.1211,228.1926 785.0652,226.8711 Q784.0094,225.5496 784.0094,223.0527 Q784.0094,220.5492 785.0652,219.2277 Q786.1211,217.9063 788.1266,217.9063 Q788.691,217.9063 789.209,218.0258 Q789.727,218.1453 790.1785,218.3844 L790.1785,220.5625 Q789.6738,220.0977 789.199,219.8818 Q788.7242,219.666 788.2195,219.666 Q787.1438,219.666 786.5959,220.5193 Q786.048,221.3727 786.048,223.0527 Q786.048,224.7262 786.5959,225.5795 Q787.1438,226.4328 788.2195,226.4328 Q788.7242,226.4328 789.199,226.217 Q789.6738,226.0012 790.1785,225.5363 Z " fill="#000000"/><text fill="#000000" font-family="sans-serif" font-size="11.2" lengthAdjust="spacing" textLength="171.2" x="804.2" y="227.4328">SelectInterviewModelController</text><line style="stroke:#181818;stroke-width:0.4000000000000001;" x1="709.6" x2="1044" y1="236" y2="236"/><line style="stroke:#181818;stroke-width:0.4000000000000001;" x1="709.6" x2="1044" y1="242.4" y2="242.4"/><ellipse cx="717.6" cy="253.3953" fill="#84BE84" rx="2.4" ry="2.4" style="stroke:#038048;stroke-width:0.8000000000000002;"/><text fill="#000000" font-family="sans-serif" font-size="11.2" lengthAdjust="spacing" textLength="107.2" x="724.8" y="256.4281">showJobOpenings()</text><ellipse cx="717.6" cy="266.5859" fill="#84BE84" rx="2.4" ry="2.4" style="stroke:#038048;stroke-width:0.8000000000000002;"/><text fill="#000000" font-family="sans-serif" font-size="11.2" lengthAdjust="spacing" textLength="315.2" x="724.8" y="269.6188">showApplicationsOfJobOpening(JobOpening jobOpening)</text><ellipse cx="717.6" cy="279.7766" fill="#84BE84" rx="2.4" ry="2.4" style="stroke:#038048;stroke-width:0.8000000000000002;"/><text fill="#000000" font-family="sans-serif" font-size="11.2" lengthAdjust="spacing" textLength="293.6" x="724.8" y="282.8094">showInterviewsOfApplication(Application application)</text><ellipse cx="717.6" cy="292.9672" fill="#84BE84" rx="2.4" ry="2.4" style="stroke:#038048;stroke-width:0.8000000000000002;"/><text fill="#000000" font-family="sans-serif" font-size="11.2" lengthAdjust="spacing" textLength="167.2" x="724.8" y="296">listAndSelectInterviewModels()</text></g><!--class JobOpeningService--><g id="elem_JobOpeningService"><rect codeLine="45" fill="#F1F1F1" height="104.3531" id="JobOpeningService" rx="2" ry="2" style="stroke:#181818;stroke-width:0.4000000000000001;" width="595.2" x="5.6" y="475.2"/><ellipse cx="248.2" cy="488" fill="#ADD1B2" rx="8.8" ry="8.8" style="stroke:#181818;stroke-width:0.8000000000000002;"/><path d="M250.5785,492.5145 Q250.1137,492.7535 249.6023,492.873 Q249.091,492.9926 248.5266,492.9926 Q246.5211,492.9926 245.4652,491.6711 Q244.4094,490.3496 244.4094,487.8527 Q244.4094,485.3492 245.4652,484.0277 Q246.5211,482.7063 248.5266,482.7063 Q249.091,482.7063 249.609,482.8258 Q250.127,482.9453 250.5785,483.1844 L250.5785,485.3625 Q250.0738,484.8977 249.599,484.6818 Q249.1242,484.466 248.6195,484.466 Q247.5438,484.466 246.9959,485.3193 Q246.448,486.1727 246.448,487.8527 Q246.448,489.5262 246.9959,490.3795 Q247.5438,491.2328 248.6195,491.2328 Q249.1242,491.2328 249.599,491.017 Q250.0738,490.8012 250.5785,490.3363 Z " fill="#000000"/><text fill="#000000" font-family="sans-serif" font-size="11.2" lengthAdjust="spacing" textLength="103.2" x="264.6" y="492.2328">JobOpeningService</text><line style="stroke:#181818;stroke-width:0.4000000000000001;" x1="6.4" x2="600" y1="500.8" y2="500.8"/><line style="stroke:#181818;stroke-width:0.4000000000000001;" x1="6.4" x2="600" y1="507.2" y2="507.2"/><ellipse cx="14.4" cy="524.7906" fill="#84BE84" rx="2.4" ry="2.4" style="stroke:#038048;stroke-width:0.8000000000000002;"/><text fill="#000000" font-family="sans-serif" font-size="11.2" lengthAdjust="spacing" textLength="571.2" x="21.6" y="521.2281">registerJobOpening(JobReference jobReference, String description, int vacanciesNumber, String address,</text><text fill="#000000" font-family="sans-serif" font-size="11.2" lengthAdjust="spacing" textLength="459.2" x="24.8" y="534.4188">Mode mode, ContractType contractType, String titleOrFunction, Company company)</text><ellipse cx="14.4" cy="544.5766" fill="#84BE84" rx="2.4" ry="2.4" style="stroke:#038048;stroke-width:0.8000000000000002;"/><text fill="#000000" font-family="sans-serif" font-size="11.2" lengthAdjust="spacing" textLength="241.6" x="21.6" y="547.6094">findJobOpening(JobReference jobReference)</text><ellipse cx="14.4" cy="557.7672" fill="#84BE84" rx="2.4" ry="2.4" style="stroke:#038048;stroke-width:0.8000000000000002;"/><text fill="#000000" font-family="sans-serif" font-size="11.2" lengthAdjust="spacing" textLength="256.8" x="21.6" y="560.8">verifyJobReference(JobReference jobReference)</text><ellipse cx="14.4" cy="570.9578" fill="#84BE84" rx="2.4" ry="2.4" style="stroke:#038048;stroke-width:0.8000000000000002;"/><text fill="#000000" font-family="sans-serif" font-size="11.2" lengthAdjust="spacing" textLength="91.2" x="21.6" y="573.9906">allJobOpenings()</text></g><!--class ApplicationService--><g id="elem_ApplicationService"><rect codeLine="52" fill="#F1F1F1" height="91.1625" id="ApplicationService" rx="2" ry="2" style="stroke:#181818;stroke-width:0.4000000000000001;" width="408" x="628.8" y="481.6"/><ellipse cx="779" cy="494.4" fill="#ADD1B2" rx="8.8" ry="8.8" style="stroke:#181818;stroke-width:0.8000000000000002;"/><path d="M781.3785,498.9145 Q780.9137,499.1535 780.4023,499.273 Q779.891,499.3926 779.3266,499.3926 Q777.3211,499.3926 776.2652,498.0711 Q775.2094,496.7496 775.2094,494.2527 Q775.2094,491.7492 776.2652,490.4277 Q777.3211,489.1063 779.3266,489.1063 Q779.891,489.1063 780.409,489.2258 Q780.927,489.3453 781.3785,489.5844 L781.3785,491.7625 Q780.8738,491.2977 780.399,491.0818 Q779.9242,490.866 779.4195,490.866 Q778.3438,490.866 777.7959,491.7193 Q777.248,492.5727 777.248,494.2527 Q777.248,495.9262 777.7959,496.7795 Q778.3438,497.6328 779.4195,497.6328 Q779.9242,497.6328 780.399,497.417 Q780.8738,497.2012 781.3785,496.7363 Z " fill="#000000"/><text fill="#000000" font-family="sans-serif" font-size="11.2" lengthAdjust="spacing" textLength="100.8" x="795.4" y="498.6328">ApplicationService</text><line style="stroke:#181818;stroke-width:0.4000000000000001;" x1="629.6" x2="1036" y1="507.2" y2="507.2"/><line style="stroke:#181818;stroke-width:0.4000000000000001;" x1="629.6" x2="1036" y1="513.6" y2="513.6"/><ellipse cx="637.6" cy="531.1906" fill="#84BE84" rx="2.4" ry="2.4" style="stroke:#038048;stroke-width:0.8000000000000002;"/><text fill="#000000" font-family="sans-serif" font-size="11.2" lengthAdjust="spacing" textLength="295.2" x="644.8" y="527.6281">registerApplication(Rank rank, String applicationFiles,</text><text fill="#000000" font-family="sans-serif" font-size="11.2" lengthAdjust="spacing" textLength="384" x="648" y="540.8188">JobOpening jobReference, Candidate candidate, SystemUser operator)</text><ellipse cx="637.6" cy="550.9766" fill="#84BE84" rx="2.4" ry="2.4" style="stroke:#038048;stroke-width:0.8000000000000002;"/><text fill="#000000" font-family="sans-serif" font-size="11.2" lengthAdjust="spacing" textLength="204" x="644.8" y="554.0094">findApplicationById(int applicationID)</text><ellipse cx="637.6" cy="564.1672" fill="#84BE84" rx="2.4" ry="2.4" style="stroke:#038048;stroke-width:0.8000000000000002;"/><text fill="#000000" font-family="sans-serif" font-size="11.2" lengthAdjust="spacing" textLength="88.8" x="644.8" y="567.2">allApplications()</text></g><!--class JobInterviewService--><g id="elem_JobInterviewService"><rect codeLine="58" fill="#F1F1F1" height="77.9719" id="JobInterviewService" rx="2" ry="2" style="stroke:#181818;stroke-width:0.4000000000000001;" width="352" x="1064.8" y="488.4"/><ellipse cx="1184.6" cy="501.2" fill="#ADD1B2" rx="8.8" ry="8.8" style="stroke:#181818;stroke-width:0.8000000000000002;"/><path d="M1186.9785,505.7145 Q1186.5137,505.9535 1186.0023,506.073 Q1185.491,506.1926 1184.9266,506.1926 Q1182.9211,506.1926 1181.8652,504.8711 Q1180.8094,503.5496 1180.8094,501.0527 Q1180.8094,498.5492 1181.8652,497.2277 Q1182.9211,495.9063 1184.9266,495.9063 Q1185.491,495.9063 1186.009,496.0258 Q1186.527,496.1453 1186.9785,496.3844 L1186.9785,498.5625 Q1186.4738,498.0977 1185.999,497.8818 Q1185.5242,497.666 1185.0195,497.666 Q1183.9438,497.666 1183.3959,498.5193 Q1182.848,499.3727 1182.848,501.0527 Q1182.848,502.7262 1183.3959,503.5795 Q1183.9438,504.4328 1185.0195,504.4328 Q1185.5242,504.4328 1185.999,504.217 Q1186.4738,504.0012 1186.9785,503.5363 Z " fill="#000000"/><text fill="#000000" font-family="sans-serif" font-size="11.2" lengthAdjust="spacing" textLength="105.6" x="1201" y="505.4328">JobInterviewService</text><line style="stroke:#181818;stroke-width:0.4000000000000001;" x1="1065.6" x2="1416" y1="514" y2="514"/><line style="stroke:#181818;stroke-width:0.4000000000000001;" x1="1065.6" x2="1416" y1="520.4" y2="520.4"/><ellipse cx="1073.6" cy="537.9906" fill="#84BE84" rx="2.4" ry="2.4" style="stroke:#038048;stroke-width:0.8000000000000002;"/><text fill="#000000" font-family="sans-serif" font-size="11.2" lengthAdjust="spacing" textLength="328" x="1080.8" y="534.4281">registerJobInterview(Calendar createdOn, int time, int score,</text><text fill="#000000" font-family="sans-serif" font-size="11.2" lengthAdjust="spacing" textLength="200.8" x="1084" y="547.6188">String result,Application application)</text><ellipse cx="1073.6" cy="557.7766" fill="#84BE84" rx="2.4" ry="2.4" style="stroke:#038048;stroke-width:0.8000000000000002;"/><text fill="#000000" font-family="sans-serif" font-size="11.2" lengthAdjust="spacing" textLength="93.6" x="1080.8" y="560.8094">allJobInterviews()</text></g><!--class JobInterviewRepository--><g id="elem_JobInterviewRepository"><rect codeLine="62" fill="#F1F1F1" height="51.5906" id="JobInterviewRepository" rx="2" ry="2" style="stroke:#181818;stroke-width:0.4000000000000001;" width="151.2" x="1165.2" y="634"/><ellipse cx="1177.2" cy="646.8" fill="#ADD1B2" rx="8.8" ry="8.8" style="stroke:#181818;stroke-width:0.8000000000000002;"/><path d="M1179.5785,651.3145 Q1179.1137,651.5535 1178.6023,651.673 Q1178.091,651.7926 1177.5266,651.7926 Q1175.5211,651.7926 1174.4652,650.4711 Q1173.4094,649.1496 1173.4094,646.6527 Q1173.4094,644.1492 1174.4652,642.8277 Q1175.5211,641.5063 1177.5266,641.5063 Q1178.091,641.5063 1178.609,641.6258 Q1179.127,641.7453 1179.5785,641.9844 L1179.5785,644.1625 Q1179.0738,643.6977 1178.599,643.4818 Q1178.1242,643.266 1177.6195,643.266 Q1176.5438,643.266 1175.9959,644.1193 Q1175.448,644.9727 1175.448,646.6527 Q1175.448,648.3262 1175.9959,649.1795 Q1176.5438,650.0328 1177.6195,650.0328 Q1178.1242,650.0328 1178.599,649.817 Q1179.0738,649.6012 1179.5785,649.1363 Z " fill="#000000"/><text fill="#000000" font-family="sans-serif" font-size="11.2" lengthAdjust="spacing" textLength="125.6" x="1188.4" y="651.0328">JobInterviewRepository</text><line style="stroke:#181818;stroke-width:0.4000000000000001;" x1="1166" x2="1315.6" y1="659.6" y2="659.6"/><line style="stroke:#181818;stroke-width:0.4000000000000001;" x1="1166" x2="1315.6" y1="666" y2="666"/><ellipse cx="1174" cy="676.9953" fill="#84BE84" rx="2.4" ry="2.4" style="stroke:#038048;stroke-width:0.8000000000000002;"/><text fill="#000000" font-family="sans-serif" font-size="11.2" lengthAdjust="spacing" textLength="93.6" x="1181.2" y="680.0281">allJobInterviews()</text></g><!--class ApplicationRepository--><g id="elem_ApplicationRepository"><rect codeLine="66" fill="#F1F1F1" height="64.7813" id="ApplicationRepository" rx="2" ry="2" style="stroke:#181818;stroke-width:0.4000000000000001;" width="146.4" x="759.6" y="627.2"/><ellipse cx="771.6" cy="640" fill="#ADD1B2" rx="8.8" ry="8.8" style="stroke:#181818;stroke-width:0.8000000000000002;"/><path d="M773.9785,644.5145 Q773.5137,644.7535 773.0023,644.873 Q772.491,644.9926 771.9266,644.9926 Q769.9211,644.9926 768.8652,643.6711 Q767.8094,642.3496 767.8094,639.8527 Q767.8094,637.3492 768.8652,636.0277 Q769.9211,634.7063 771.9266,634.7063 Q772.491,634.7063 773.009,634.8258 Q773.527,634.9453 773.9785,635.1844 L773.9785,637.3625 Q773.4738,636.8977 772.999,636.6818 Q772.5242,636.466 772.0195,636.466 Q770.9438,636.466 770.3959,637.3193 Q769.848,638.1727 769.848,639.8527 Q769.848,641.5262 770.3959,642.3795 Q770.9438,643.2328 772.0195,643.2328 Q772.5242,643.2328 772.999,643.017 Q773.4738,642.8012 773.9785,642.3363 Z " fill="#000000"/><text fill="#000000" font-family="sans-serif" font-size="11.2" lengthAdjust="spacing" textLength="120.8" x="782.8" y="644.2328">ApplicationRepository</text><line style="stroke:#181818;stroke-width:0.4000000000000001;" x1="760.4" x2="905.2" y1="652.8" y2="652.8"/><line style="stroke:#181818;stroke-width:0.4000000000000001;" x1="760.4" x2="905.2" y1="659.2" y2="659.2"/><ellipse cx="768.4" cy="670.1953" fill="#84BE84" rx="2.4" ry="2.4" style="stroke:#038048;stroke-width:0.8000000000000002;"/><text fill="#000000" font-family="sans-serif" font-size="11.2" lengthAdjust="spacing" textLength="112.8" x="775.6" y="673.2281">ofIdentity(Integer id)</text><ellipse cx="768.4" cy="683.3859" fill="#84BE84" rx="2.4" ry="2.4" style="stroke:#038048;stroke-width:0.8000000000000002;"/><text fill="#000000" font-family="sans-serif" font-size="11.2" lengthAdjust="spacing" textLength="88.8" x="775.6" y="686.4188">allApplications()</text></g><!--class JobOpeningRepository--><g id="elem_JobOpeningRepository"><rect codeLine="71" fill="#F1F1F1" height="64.7813" id="JobOpeningRepository" rx="2" ry="2" style="stroke:#181818;stroke-width:0.4000000000000001;" width="166.4" x="220" y="627.2"/><ellipse cx="239.92" cy="640" fill="#ADD1B2" rx="8.8" ry="8.8" style="stroke:#181818;stroke-width:0.8000000000000002;"/><path d="M242.2985,644.5145 Q241.8337,644.7535 241.3223,644.873 Q240.811,644.9926 240.2466,644.9926 Q238.2411,644.9926 237.1852,643.6711 Q236.1294,642.3496 236.1294,639.8527 Q236.1294,637.3492 237.1852,636.0277 Q238.2411,634.7063 240.2466,634.7063 Q240.811,634.7063 241.329,634.8258 Q241.847,634.9453 242.2985,635.1844 L242.2985,637.3625 Q241.7938,636.8977 241.319,636.6818 Q240.8442,636.466 240.3395,636.466 Q239.2638,636.466 238.7159,637.3193 Q238.168,638.1727 238.168,639.8527 Q238.168,641.5262 238.7159,642.3795 Q239.2638,643.2328 240.3395,643.2328 Q240.8442,643.2328 241.319,643.017 Q241.7938,642.8012 242.2985,642.3363 Z " fill="#000000"/><text fill="#000000" font-family="sans-serif" font-size="11.2" lengthAdjust="spacing" textLength="123.2" x="252.88" y="644.2328">JobOpeningRepository</text><line style="stroke:#181818;stroke-width:0.4000000000000001;" x1="220.8" x2="385.6" y1="652.8" y2="652.8"/><line style="stroke:#181818;stroke-width:0.4000000000000001;" x1="220.8" x2="385.6" y1="659.2" y2="659.2"/><ellipse cx="228.8" cy="670.1953" fill="#84BE84" rx="2.4" ry="2.4" style="stroke:#038048;stroke-width:0.8000000000000002;"/><text fill="#000000" font-family="sans-serif" font-size="11.2" lengthAdjust="spacing" textLength="145.6" x="236" y="673.2281">ofIdentity(JobReference id)</text><ellipse cx="228.8" cy="683.3859" fill="#84BE84" rx="2.4" ry="2.4" style="stroke:#038048;stroke-width:0.8000000000000002;"/><text fill="#000000" font-family="sans-serif" font-size="11.2" lengthAdjust="spacing" textLength="91.2" x="236" y="686.4188">allJobOpenings()</text></g><!--class InterviewService--><g id="elem_InterviewService"><rect codeLine="76" fill="#F1F1F1" height="64.7813" id="InterviewService" rx="2" ry="2" style="stroke:#181818;stroke-width:0.4000000000000001;" width="229.6" x="1343.6" y="356"/><ellipse cx="1411" cy="368.8" fill="#ADD1B2" rx="8.8" ry="8.8" style="stroke:#181818;stroke-width:0.8000000000000002;"/><path d="M1413.3785,373.3145 Q1412.9137,373.5535 1412.4023,373.673 Q1411.891,373.7926 1411.3266,373.7926 Q1409.3211,373.7926 1408.2652,372.4711 Q1407.2094,371.1496 1407.2094,368.6527 Q1407.2094,366.1492 1408.2652,364.8277 Q1409.3211,363.5063 1411.3266,363.5063 Q1411.891,363.5063 1412.409,363.6258 Q1412.927,363.7453 1413.3785,363.9844 L1413.3785,366.1625 Q1412.8738,365.6977 1412.399,365.4818 Q1411.9242,365.266 1411.4195,365.266 Q1410.3438,365.266 1409.7959,366.1193 Q1409.248,366.9727 1409.248,368.6527 Q1409.248,370.3262 1409.7959,371.1795 Q1410.3438,372.0328 1411.4195,372.0328 Q1411.9242,372.0328 1412.399,371.817 Q1412.8738,371.6012 1413.3785,371.1363 Z " fill="#000000"/><text fill="#000000" font-family="sans-serif" font-size="11.2" lengthAdjust="spacing" textLength="88" x="1427.4" y="373.0328">InterviewService</text><line style="stroke:#181818;stroke-width:0.4000000000000001;" x1="1344.4" x2="1572.4" y1="381.6" y2="381.6"/><line style="stroke:#181818;stroke-width:0.4000000000000001;" x1="1344.4" x2="1572.4" y1="388" y2="388"/><ellipse cx="1352.4" cy="398.9953" fill="#84BE84" rx="2.4" ry="2.4" style="stroke:#038048;stroke-width:0.8000000000000002;"/><text fill="#000000" font-family="sans-serif" font-size="11.2" lengthAdjust="spacing" textLength="109.6" x="1359.6" y="402.0281">allInterviewModels()</text><ellipse cx="1352.4" cy="412.1859" fill="#84BE84" rx="2.4" ry="2.4" style="stroke:#038048;stroke-width:0.8000000000000002;"/><text fill="#000000" font-family="sans-serif" font-size="11.2" lengthAdjust="spacing" textLength="208.8" x="1359.6" y="415.2188">registerJobRequirement(String model)</text></g><!--class InterviewModelRepository--><g id="elem_InterviewModelRepository"><rect codeLine="81" fill="#F1F1F1" height="64.7813" id="InterviewModelRepository" rx="2" ry="2" style="stroke:#181818;stroke-width:0.4000000000000001;" width="167.2" x="1445.2" y="494.8"/><ellipse cx="1457.2" cy="507.6" fill="#ADD1B2" rx="8.8" ry="8.8" style="stroke:#181818;stroke-width:0.8000000000000002;"/><path d="M1459.5785,512.1145 Q1459.1137,512.3535 1458.6023,512.473 Q1458.091,512.5926 1457.5266,512.5926 Q1455.5211,512.5926 1454.4652,511.2711 Q1453.4094,509.9496 1453.4094,507.4527 Q1453.4094,504.9492 1454.4652,503.6277 Q1455.5211,502.3063 1457.5266,502.3063 Q1458.091,502.3063 1458.609,502.4258 Q1459.127,502.5453 1459.5785,502.7844 L1459.5785,504.9625 Q1459.0738,504.4977 1458.599,504.2818 Q1458.1242,504.066 1457.6195,504.066 Q1456.5438,504.066 1455.9959,504.9193 Q1455.448,505.7727 1455.448,507.4527 Q1455.448,509.1262 1455.9959,509.9795 Q1456.5438,510.8328 1457.6195,510.8328 Q1458.1242,510.8328 1458.599,510.617 Q1459.0738,510.4012 1459.5785,509.9363 Z " fill="#000000"/><text fill="#000000" font-family="sans-serif" font-size="11.2" lengthAdjust="spacing" textLength="141.6" x="1468.4" y="511.8328">InterviewModelRepository</text><line style="stroke:#181818;stroke-width:0.4000000000000001;" x1="1446" x2="1611.6" y1="520.4" y2="520.4"/><line style="stroke:#181818;stroke-width:0.4000000000000001;" x1="1446" x2="1611.6" y1="526.8" y2="526.8"/><ellipse cx="1454" cy="537.7953" fill="#84BE84" rx="2.4" ry="2.4" style="stroke:#038048;stroke-width:0.8000000000000002;"/><text fill="#000000" font-family="sans-serif" font-size="11.2" lengthAdjust="spacing" textLength="109.6" x="1461.2" y="540.8281">allInterviewModels()</text><ellipse cx="1454" cy="550.9859" fill="#84BE84" rx="2.4" ry="2.4" style="stroke:#038048;stroke-width:0.8000000000000002;"/><text fill="#000000" font-family="sans-serif" font-size="11.2" lengthAdjust="spacing" textLength="112.8" x="1461.2" y="554.0188">ofIdentity(Integer id)</text></g><!--link SelectInterviewModelUI to ListJobOpeningController--><g id="link_SelectInterviewModelUI_ListJobOpeningController"><path codeLine="86" d="M742.656,58.4 C588.696,58.4 357.2,58.4 357.2,58.4 C357.2,58.4 357.2,267.8 357.2,351.056 " fill="none" id="SelectInterviewModelUI-to-ListJobOpeningController" style="stroke:#181818;stroke-width:0.8000000000000002;"/><polygon fill="#181818" points="357.2,355.856,360.4,348.656,357.2,351.856,354,348.656,357.2,355.856" style="stroke:#181818;stroke-width:0.8000000000000002;"/></g><!--link SelectInterviewModelUI to ListJobOpeningApplicationsController--><g id="link_SelectInterviewModelUI_ListJobOpeningApplicationsController"><path codeLine="87" d="M742.52,110.4 C687.992,110.4 637.6,110.4 637.6,110.4 C637.6,110.4 637.6,268.144 637.6,344.656 " fill="none" id="SelectInterviewModelUI-to-ListJobOpeningApplicationsController" style="stroke:#181818;stroke-width:0.8000000000000002;"/><polygon fill="#181818" points="637.6,349.456,640.8,342.256,637.6,345.456,634.4,342.256,637.6,349.456" style="stroke:#181818;stroke-width:0.8000000000000002;"/></g><!--link SelectInterviewModelUI to ListJobInterviewsApplicationController--><g id="link_SelectInterviewModelUI_ListJobInterviewsApplicationController"><path codeLine="88" d="M1011.104,110.4 C1065.088,110.4 1114.8,110.4 1114.8,110.4 C1114.8,110.4 1114.8,277.408 1114.8,350.896 " fill="none" id="SelectInterviewModelUI-to-ListJobInterviewsApplicationController" style="stroke:#181818;stroke-width:0.8000000000000002;"/><polygon fill="#181818" points="1114.8,355.696,1118,348.496,1114.8,351.696,1111.6,348.496,1114.8,355.696" style="stroke:#181818;stroke-width:0.8000000000000002;"/></g><!--link SelectInterviewModelUI to ListInterviewModelsController--><g id="link_SelectInterviewModelUI_ListInterviewModelsController"><path codeLine="89" d="M1010.912,58.4 C1145.184,58.4 1332,58.4 1332,58.4 C1332,58.4 1332,154.576 1332,212.16 " fill="none" id="SelectInterviewModelUI-to-ListInterviewModelsController" style="stroke:#181818;stroke-width:0.8000000000000002;"/><polygon fill="#181818" points="1332,216.96,1335.2,209.76,1332,212.96,1328.8,209.76,1332,216.96" style="stroke:#181818;stroke-width:0.8000000000000002;"/></g><!--link SelectInterviewModelUI to SelectInterviewModelController--><g id="link_SelectInterviewModelUI_SelectInterviewModelController"><path codeLine="90" d="M876.8,162.704 C876.8,178.976 876.8,190.808 876.8,205.432 " fill="none" id="SelectInterviewModelUI-to-SelectInterviewModelController" style="stroke:#181818;stroke-width:0.8000000000000002;"/><polygon fill="#181818" points="876.8,210.232,880,203.032,876.8,206.232,873.6,203.032,876.8,210.232" style="stroke:#181818;stroke-width:0.8000000000000002;"/></g><!--link ListJobOpeningController to JobOpeningService--><g id="link_ListJobOpeningController_JobOpeningService"><path codeLine="92" d="M402.4,420.944 C402.4,437.048 402.4,452.088 402.4,470.24 " fill="none" id="ListJobOpeningController-to-JobOpeningService" style="stroke:#181818;stroke-width:0.8000000000000002;"/><polygon fill="#181818" points="402.4,475.04,405.6,467.84,402.4,471.04,399.2,467.84,402.4,475.04" style="stroke:#181818;stroke-width:0.8000000000000002;"/></g><!--link JobOpeningService to JobOpeningRepository--><g id="link_JobOpeningService_JobOpeningRepository"><path codeLine="93" d="M303.2,579.528 C303.2,595.576 303.2,607.96 303.2,622.28 " fill="none" id="JobOpeningService-to-JobOpeningRepository" style="stroke:#181818;stroke-width:0.8000000000000002;"/><polygon fill="#181818" points="303.2,627.08,306.4,619.88,303.2,623.08,300,619.88,303.2,627.08" style="stroke:#181818;stroke-width:0.8000000000000002;"/></g><!--link ListJobOpeningApplicationsController to JobOpeningService--><g id="link_ListJobOpeningApplicationsController_JobOpeningService"><path codeLine="94" d="M583.6,427.432 C583.6,442.184 583.6,454.424 583.6,470.192 " fill="none" id="ListJobOpeningApplicationsController-to-JobOpeningService" style="stroke:#181818;stroke-width:0.8000000000000002;"/><polygon fill="#181818" points="583.6,474.992,586.8,467.792,583.6,470.992,580.4,467.792,583.6,474.992" style="stroke:#181818;stroke-width:0.8000000000000002;"/></g><!--link ListJobOpeningApplicationsController to ApplicationService--><g id="link_ListJobOpeningApplicationsController_ApplicationService"><path codeLine="95" d="M764.8,427.432 C764.8,444.192 764.8,459.088 764.8,476.544 " fill="none" id="ListJobOpeningApplicationsController-to-ApplicationService" style="stroke:#181818;stroke-width:0.8000000000000002;"/><polygon fill="#181818" points="764.8,481.344,768,474.144,764.8,477.344,761.6,474.144,764.8,481.344" style="stroke:#181818;stroke-width:0.8000000000000002;"/></g><!--link ApplicationService to ApplicationRepository--><g id="link_ApplicationService_ApplicationRepository"><path codeLine="96" d="M832.8,573.136 C832.8,590.84 832.8,605.88 832.8,622.08 " fill="none" id="ApplicationService-to-ApplicationRepository" style="stroke:#181818;stroke-width:0.8000000000000002;"/><polygon fill="#181818" points="832.8,626.88,836,619.68,832.8,622.88,829.6,619.68,832.8,626.88" style="stroke:#181818;stroke-width:0.8000000000000002;"/></g><!--link ListJobInterviewsApplicationController to ApplicationService--><g id="link_ListJobInterviewsApplicationController_ApplicationService"><path codeLine="98" d="M983,420.944 C983,438.968 983,456.872 983,476.664 " fill="none" id="ListJobInterviewsApplicationController-to-ApplicationService" style="stroke:#181818;stroke-width:0.8000000000000002;"/><polygon fill="#181818" points="983,481.464,986.2,474.264,983,477.464,979.8,474.264,983,481.464" style="stroke:#181818;stroke-width:0.8000000000000002;"/></g><!--link ListJobInterviewsApplicationController to JobInterviewService--><g id="link_ListJobInterviewsApplicationController_JobInterviewService"><path codeLine="99" d="M1155,420.944 C1155,441.056 1155,462.184 1155,483.392 " fill="none" id="ListJobInterviewsApplicationController-to-JobInterviewService" style="stroke:#181818;stroke-width:0.8000000000000002;"/><polygon fill="#181818" points="1155,488.192,1158.2,480.992,1155,484.192,1151.8,480.992,1155,488.192" style="stroke:#181818;stroke-width:0.8000000000000002;"/></g><!--link JobInterviewService to JobInterviewRepository--><g id="link_JobInterviewService_JobInterviewRepository"><path codeLine="101" d="M1240.8,566.208 C1240.8,587.944 1240.8,609.624 1240.8,628.824 " fill="none" id="JobInterviewService-to-JobInterviewRepository" style="stroke:#181818;stroke-width:0.8000000000000002;"/><polygon fill="#181818" points="1240.8,633.624,1244,626.424,1240.8,629.624,1237.6,626.424,1240.8,633.624" style="stroke:#181818;stroke-width:0.8000000000000002;"/></g><!--link ListInterviewModelsController to InterviewService--><g id="link_ListInterviewModelsController_InterviewService"><path codeLine="103" d="M1411.4,295.008 C1411.4,314.304 1411.4,332.536 1411.4,350.896 " fill="none" id="ListInterviewModelsController-to-InterviewService" style="stroke:#181818;stroke-width:0.8000000000000002;"/><polygon fill="#181818" points="1411.4,355.696,1414.6,348.496,1411.4,351.696,1408.2,348.496,1411.4,355.696" style="stroke:#181818;stroke-width:0.8000000000000002;"/></g><!--link InterviewService to InterviewModelRepository--><g id="link_InterviewService_InterviewModelRepository"><path codeLine="105" d="M1509.2,420.944 C1509.2,443.136 1509.2,467.616 1509.2,489.824 " fill="none" id="InterviewService-to-InterviewModelRepository" style="stroke:#181818;stroke-width:0.8000000000000002;"/><polygon fill="#181818" points="1509.2,494.624,1512.4,487.424,1509.2,490.624,1506,487.424,1509.2,494.624" style="stroke:#181818;stroke-width:0.8000000000000002;"/></g><!--link SelectInterviewModelController to ListJobOpeningController--><g id="link_SelectInterviewModelController_ListJobOpeningController"><path codeLine="107" d="M708.4,256 C588.16,256 447.6,256 447.6,256 C447.6,256 447.6,311.664 447.6,350.872 " fill="none" id="SelectInterviewModelController-to-ListJobOpeningController" style="stroke:#181818;stroke-width:0.8000000000000002;"/><polygon fill="#181818" points="447.6,355.672,450.8,348.472,447.6,351.672,444.4,348.472,447.6,355.672" style="stroke:#181818;stroke-width:0.8000000000000002;"/></g><!--link SelectInterviewModelController to ListJobOpeningApplicationsController--><g id="link_SelectInterviewModelController_ListJobOpeningApplicationsController"><path codeLine="108" d="M804.8,301.936 C804.8,317.392 804.8,329.688 804.8,344.568 " fill="none" id="SelectInterviewModelController-to-ListJobOpeningApplicationsController" style="stroke:#181818;stroke-width:0.8000000000000002;"/><polygon fill="#181818" points="804.8,349.368,808,342.168,804.8,345.368,801.6,342.168,804.8,349.368" style="stroke:#181818;stroke-width:0.8000000000000002;"/></g><!--link SelectInterviewModelController to ListJobInterviewsApplicationController--><g id="link_SelectInterviewModelController_ListJobInterviewsApplicationController"><path codeLine="109" d="M987,301.936 C987,319.64 987,334.68 987,350.88 " fill="none" id="SelectInterviewModelController-to-ListJobInterviewsApplicationController" style="stroke:#181818;stroke-width:0.8000000000000002;"/><polygon fill="#181818" points="987,355.68,990.2,348.48,987,351.68,983.8,348.48,987,355.68" style="stroke:#181818;stroke-width:0.8000000000000002;"/></g><!--SRC=[dLRDRjim3BxxANHRYgLlC1HeKnH8iIr3ijvsKIqcqIfBdgIaCuQz-oZ7iILRSfpbu4WsoO_y-2EPDovBgcb119TWgnA8qdQliWy2jfPOHJJVxIrXN4DkkP9PbWjg3Dc0m1TBQK4VERn_KGp4ovByoGZ-FXAcDdlrFhjfjWOtp-frLOBaScUwzxMLxakWS5-MWkVKePhLrXFwsIv3Evv2OAZr4ituChHR3nngTNg-XX6t7_T0cMCGN_mzK_IP6o-qXP9MAo50joHH8IAXRxbatUk72jThs886cOCBlTqaeNpYuh19Qdqm4eB5l9icxw4zLCl76PUMS3PqlykJfv7aBPLLRqqY6Mu2QBNH8pPpknqYS0RISblrV0kJdk2q9zJcanSbjbIlRhvHkoSbFivIyDjgsY-l9wsA9ovWvfpujB4QARyZZ5hgEHZhn8Y7oHOSwxHkII9DDz9Q5v8WC9vxoMAk6x-5EloD4y4QEuUZOOSsG4-fnJavKKSOc5ppqdao9wuAZpIdCkTWlXwALz2j86LCWp5pyaCIvnKfy34dDQsOfUzkJkRUfbN4uX6mqay7cPzG5geegQnGklx_tpOwWkRRS1HSr0d6Iq2hbvqKhtuorrI-4OsFZf_kgwlF4r5XiNZiBwXa7AiMEJklq5A5CCMBmH9L9MXgbKxF35RF30zr-NWJdsQzwcbhQwH-kb6_e08aevha6j19jchAnF82JYkJAmrrj0qJM2O7OUSNwhq_iMelXqwkeLI68nDLSjObqXZHLDjbCysyyJQDjIQDuqQ3-Wii9wekcOkHuUcbQGs_3dWBAH1-rf3lkbB446ehSJPJI0cwq7RYgdDxUvSyugVhnC_g2VeN3ijB5f97sfZY-56JPSaRZrCUpF9iEDr3kIw1sQGBJXnbikfmAcQHGTcJz7pC9bvZ4bXNQ4S6MvR5fbrVkEzj-cBZD8SOKO1KryKxfuTnLGUDwbxHIN4xbpeg-mS0]--></g></svg>