<?xml version="1.0" encoding="us-ascii" standalone="no"?><svg xmlns="http://www.w3.org/2000/svg" xmlns:xlink="http://www.w3.org/1999/xlink" contentStyleType="text/css" height="1024.8px" preserveAspectRatio="none" style="width:1441px;height:1024px;background:#FFFFFF;" version="1.1" viewBox="0 0 1441 1024" width="1441.6px" zoomAndPan="magnify"><defs/><g><text fill="#000000" font-family="sans-serif" font-size="11.2" font-weight="bold" lengthAdjust="spacing" textLength="84" x="673.2" y="18.8281">Domain Model</text><!--cluster JobInterview Aggregate--><g id="cluster_JobInterview Aggregate"><rect fill="none" height="250.4" rx="2" ry="2" style="stroke:#000000;stroke-width:1.2000000000000002;" width="390" x="1046.8" y="769.9906"/><text fill="#000000" font-family="sans-serif" font-size="11.2" font-weight="bold" lengthAdjust="spacing" textLength="135.2" x="1174.2" y="782.4188">JobInterview Aggregate</text></g><!--cluster Job Opening Aggregate--><g id="cluster_Job Opening Aggregate"><rect fill="none" height="428" rx="2" ry="2" style="stroke:#000000;stroke-width:1.2000000000000002;" width="504.8" x="400.8" y="35.5906"/><text fill="#000000" font-family="sans-serif" font-size="11.2" font-weight="bold" lengthAdjust="spacing" textLength="134.4" x="586" y="48.0188">Job Opening Aggregate</text></g><!--cluster Application Aggregate--><g id="cluster_Application Aggregate"><rect fill="none" height="250.4" rx="2" ry="2" style="stroke:#000000;stroke-width:1.2000000000000002;" width="710.4" x="571.2" y="482.7906"/><text fill="#000000" font-family="sans-serif" font-size="11.2" font-weight="bold" lengthAdjust="spacing" textLength="128" x="862.4" y="495.2188">Application Aggregate</text></g><!--cluster Interview Model Aggregate--><g id="cluster_Interview Model Aggregate"><rect fill="none" height="92" rx="2" ry="2" style="stroke:#000000;stroke-width:1.2000000000000002;" width="313.2" x="560.8" y="789.9906"/><text fill="#000000" font-family="sans-serif" font-size="11.2" font-weight="bold" lengthAdjust="spacing" textLength="155.2" x="639.8" y="802.4188">Interview Model Aggregate</text></g><!--cluster Customer Manager Aggregate--><g id="cluster_Customer Manager Aggregate"><rect fill="none" height="92" rx="2" ry="2" style="stroke:#000000;stroke-width:1.2000000000000002;" width="184" x="5.6" y="233.1906"/><text fill="#000000" font-family="sans-serif" font-size="11.2" font-weight="bold" lengthAdjust="spacing" textLength="171.2" x="12" y="245.6188">Customer Manager Aggregate</text></g><!--cluster ANTLR Service Aggregate--><g id="cluster_ANTLR Service Aggregate"><rect fill="none" height="92" rx="2" ry="2" style="stroke:#000000;stroke-width:1.2000000000000002;" width="158.4" x="216" y="789.9906"/><text fill="#000000" font-family="sans-serif" font-size="11.2" font-weight="bold" lengthAdjust="spacing" textLength="145.6" x="222.4" y="802.4188">ANTLR Service Aggregate</text></g><!--class JobInterview--><g id="elem_JobInterview"><rect codeLine="26" fill="#F0FFFF" height="50.2031" id="JobInterview" rx="2" ry="2" style="stroke:#000000;stroke-width:0.4000000000000001;" width="92.8" x="1059.6" y="861.5906"/><ellipse cx="1071.6" cy="883.4922" fill="#ADD1B2" rx="8.8" ry="8.8" style="stroke:#181818;stroke-width:0.8000000000000002;"/><path d="M1074.8914,888.2922 L1068.7156,888.2922 L1068.7156,878.3777 L1074.8914,878.3777 L1074.8914,880.1043 L1070.6746,880.1043 L1070.6746,882.2426 L1074.493,882.2426 L1074.493,883.9691 L1070.6746,883.9691 L1070.6746,886.5656 L1074.8914,886.5656 Z " fill="#000000"/><text fill="#000000" font-family="sans-serif" font-size="9.6" font-style="italic" lengthAdjust="spacing" textLength="34.4" x="1099.2" y="874.8719">&#171;entity&#187;</text><text fill="#000000" font-family="sans-serif" font-size="9.6" font-style="italic" lengthAdjust="spacing" textLength="28" x="1102.4" y="886.1781">&#171;root&#187;</text><text fill="#000000" font-family="sans-serif" font-size="11.2" lengthAdjust="spacing" textLength="67.2" x="1082.8" y="899.0313">JobInterview</text><line style="stroke:#000000;stroke-width:0.4000000000000001;" x1="1060.4" x2="1151.6" y1="905.3938" y2="905.3938"/></g><!--entity InterviewResults--><g id="elem_InterviewResults"><rect fill="#F0FFDD" height="31.1813" rx="2" ry="2" style="stroke:#000000;stroke-width:0.4000000000000001;" width="104.8" x="1319.2" y="975.9906"/><text fill="#000000" font-family="sans-serif" font-size="11.2" font-style="italic" lengthAdjust="spacing" textLength="80" x="1331.6" y="989.2188">&#171;Value Object&#187;</text><text fill="#000000" font-family="sans-serif" font-size="11.2" lengthAdjust="spacing" textLength="88.8" x="1327.2" y="1002.4094">InterviewResults</text></g><!--entity Score--><g id="elem_Score"><rect fill="#F0FFDD" height="31.1813" rx="2" ry="2" style="stroke:#000000;stroke-width:0.4000000000000001;" width="96" x="1323.6" y="916.7906"/><text fill="#000000" font-family="sans-serif" font-size="11.2" font-style="italic" lengthAdjust="spacing" textLength="80" x="1331.6" y="930.0188">&#171;Value Object&#187;</text><text fill="#000000" font-family="sans-serif" font-size="11.2" lengthAdjust="spacing" textLength="30.4" x="1356.4" y="943.2094">Score</text></g><!--entity InterviewTime--><g id="elem_InterviewTime"><rect fill="#F0FFDD" height="31.1813" rx="2" ry="2" style="stroke:#000000;stroke-width:0.4000000000000001;" width="96" x="1323.6" y="857.5906"/><text fill="#000000" font-family="sans-serif" font-size="11.2" font-style="italic" lengthAdjust="spacing" textLength="80" x="1331.6" y="870.8188">&#171;Value Object&#187;</text><text fill="#000000" font-family="sans-serif" font-size="11.2" lengthAdjust="spacing" textLength="76.8" x="1333.2" y="884.0094">InterviewTime</text></g><!--entity InterviewDate--><g id="elem_InterviewDate"><rect fill="#F0FFDD" height="31.1813" rx="2" ry="2" style="stroke:#000000;stroke-width:0.4000000000000001;" width="96" x="1323.6" y="798.3906"/><text fill="#000000" font-family="sans-serif" font-size="11.2" font-style="italic" lengthAdjust="spacing" textLength="80" x="1331.6" y="811.6188">&#171;Value Object&#187;</text><text fill="#000000" font-family="sans-serif" font-size="11.2" lengthAdjust="spacing" textLength="74.4" x="1334.4" y="824.8094">InterviewDate</text></g><!--class JobOpening--><g id="elem_JobOpening"><rect codeLine="45" fill="#F0FFFF" height="50.2031" id="JobOpening" rx="2" ry="2" style="stroke:#000000;stroke-width:0.4000000000000001;" width="90.4" x="413.6" y="261.5906"/><ellipse cx="425.6" cy="283.4922" fill="#ADD1B2" rx="8.8" ry="8.8" style="stroke:#181818;stroke-width:0.8000000000000002;"/><path d="M428.8914,288.2922 L422.7156,288.2922 L422.7156,278.3777 L428.8914,278.3777 L428.8914,280.1043 L424.6746,280.1043 L424.6746,282.2426 L428.493,282.2426 L428.493,283.9691 L424.6746,283.9691 L424.6746,286.5656 L428.8914,286.5656 Z " fill="#000000"/><text fill="#000000" font-family="sans-serif" font-size="9.6" font-style="italic" lengthAdjust="spacing" textLength="34.4" x="452" y="274.8719">&#171;entity&#187;</text><text fill="#000000" font-family="sans-serif" font-size="9.6" font-style="italic" lengthAdjust="spacing" textLength="28" x="455.2" y="286.1781">&#171;root&#187;</text><text fill="#000000" font-family="sans-serif" font-size="11.2" lengthAdjust="spacing" textLength="64.8" x="436.8" y="299.0313">JobOpening</text><line style="stroke:#000000;stroke-width:0.4000000000000001;" x1="414.4" x2="503.2" y1="305.3938" y2="305.3938"/></g><g id="elem_GMN28"><path d="M733.6,301.9906 L733.6,317.7506 L676.32,318.4626 L733.6,324.1506 L733.6,346.7359 A0,0 0 0 0 733.6,346.7359 L892.8,346.7359 A0,0 0 0 0 892.8,346.7359 L892.8,309.9906 L884.8,301.9906 L733.6,301.9906 A0,0 0 0 0 733.6,301.9906 " fill="#FEFFDD" style="stroke:#181818;stroke-width:0.4000000000000001;"/><path d="M884.8,301.9906 L884.8,309.9906 L892.8,309.9906 L884.8,301.9906 " fill="#FEFFDD" style="stroke:#181818;stroke-width:0.4000000000000001;"/><text fill="#000000" font-family="sans-serif" font-size="10.4" lengthAdjust="spacing" textLength="142.4" x="738.4" y="316.0453">Can be one of the following:</text><text fill="#000000" font-family="sans-serif" font-size="10.4" lengthAdjust="spacing" textLength="55.2" x="738.4" y="328.2938">- full-time</text><text fill="#000000" font-family="sans-serif" font-size="10.4" lengthAdjust="spacing" textLength="58.4" x="738.4" y="340.5422">- part-time</text></g><g id="elem_GMN31"><path d="M733.6,216.7906 L733.6,247.1506 L676.32,254.0866 L733.6,253.5506 L733.6,273.7844 A0,0 0 0 0 733.6,273.7844 L892.8,273.7844 A0,0 0 0 0 892.8,273.7844 L892.8,224.7906 L884.8,216.7906 L733.6,216.7906 A0,0 0 0 0 733.6,216.7906 " fill="#FEFFDD" style="stroke:#181818;stroke-width:0.4000000000000001;"/><path d="M884.8,216.7906 L884.8,224.7906 L892.8,224.7906 L884.8,216.7906 " fill="#FEFFDD" style="stroke:#181818;stroke-width:0.4000000000000001;"/><text fill="#000000" font-family="sans-serif" font-size="10.4" lengthAdjust="spacing" textLength="142.4" x="738.4" y="230.8453">Can be one of the following:</text><text fill="#000000" font-family="sans-serif" font-size="10.4" lengthAdjust="spacing" textLength="44.8" x="738.4" y="243.0938">- remote</text><text fill="#000000" font-family="sans-serif" font-size="10.4" lengthAdjust="spacing" textLength="41.6" x="738.4" y="255.3422">- hybrid</text><text fill="#000000" font-family="sans-serif" font-size="10.4" lengthAdjust="spacing" textLength="40.8" x="738.4" y="267.5906">- onsite</text></g><!--entity JobReference--><g id="elem_JobReference"><rect fill="#F0FFDD" height="31.1813" rx="2" ry="2" style="stroke:#000000;stroke-width:0.4000000000000001;" width="96" x="580" y="419.1906"/><text fill="#000000" font-family="sans-serif" font-size="11.2" font-style="italic" lengthAdjust="spacing" textLength="80" x="588" y="432.4188">&#171;Value Object&#187;</text><text fill="#000000" font-family="sans-serif" font-size="11.2" lengthAdjust="spacing" textLength="72" x="592" y="445.6094">JobReference</text></g><!--entity TitleOrFunction--><g id="elem_TitleOrFunction"><rect fill="#F0FFDD" height="31.1813" rx="2" ry="2" style="stroke:#000000;stroke-width:0.4000000000000001;" width="101.6" x="577.2" y="359.9906"/><text fill="#000000" font-family="sans-serif" font-size="11.2" font-style="italic" lengthAdjust="spacing" textLength="80" x="588" y="373.2188">&#171;Value Object&#187;</text><text fill="#000000" font-family="sans-serif" font-size="11.2" lengthAdjust="spacing" textLength="85.6" x="585.2" y="386.4094">TitleOrFunction</text></g><!--entity ContractType--><g id="elem_ContractType"><rect fill="#F0FFDD" height="31.1813" rx="2" ry="2" style="stroke:#000000;stroke-width:0.4000000000000001;" width="96" x="580" y="300.7906"/><text fill="#000000" font-family="sans-serif" font-size="11.2" font-style="italic" lengthAdjust="spacing" textLength="80" x="588" y="314.0188">&#171;Value Object&#187;</text><text fill="#000000" font-family="sans-serif" font-size="11.2" lengthAdjust="spacing" textLength="73.6" x="591.2" y="327.2094">ContractType</text></g><!--entity Mode--><g id="elem_Mode"><rect fill="#F0FFDD" height="31.1813" rx="2" ry="2" style="stroke:#000000;stroke-width:0.4000000000000001;" width="96" x="580" y="241.5906"/><text fill="#000000" font-family="sans-serif" font-size="11.2" font-style="italic" lengthAdjust="spacing" textLength="80" x="588" y="254.8188">&#171;Value Object&#187;</text><text fill="#000000" font-family="sans-serif" font-size="11.2" lengthAdjust="spacing" textLength="30.4" x="612.8" y="268.0094">Mode</text></g><!--entity Address--><g id="elem_Address"><rect fill="#F0FFDD" height="31.1813" rx="2" ry="2" style="stroke:#000000;stroke-width:0.4000000000000001;" width="96" x="580" y="182.3906"/><text fill="#000000" font-family="sans-serif" font-size="11.2" font-style="italic" lengthAdjust="spacing" textLength="80" x="588" y="195.6188">&#171;Value Object&#187;</text><text fill="#000000" font-family="sans-serif" font-size="11.2" lengthAdjust="spacing" textLength="44.8" x="605.6" y="208.8094">Address</text></g><!--entity VacanciesNumber--><g id="elem_VacanciesNumber"><rect fill="#F0FFDD" height="31.1813" rx="2" ry="2" style="stroke:#000000;stroke-width:0.4000000000000001;" width="113.6" x="571.2" y="123.1906"/><text fill="#000000" font-family="sans-serif" font-size="11.2" font-style="italic" lengthAdjust="spacing" textLength="80" x="588" y="136.4188">&#171;Value Object&#187;</text><text fill="#000000" font-family="sans-serif" font-size="11.2" lengthAdjust="spacing" textLength="97.6" x="579.2" y="149.6094">VacanciesNumber</text></g><!--entity Description--><g id="elem_Description"><rect fill="#F0FFDD" height="31.1813" rx="2" ry="2" style="stroke:#000000;stroke-width:0.4000000000000001;" width="96" x="580" y="63.9906"/><text fill="#000000" font-family="sans-serif" font-size="11.2" font-style="italic" lengthAdjust="spacing" textLength="80" x="588" y="77.2188">&#171;Value Object&#187;</text><text fill="#000000" font-family="sans-serif" font-size="11.2" lengthAdjust="spacing" textLength="62.4" x="596.8" y="90.4094">Description</text></g><!--class Application--><g id="elem_Application"><rect codeLine="87" fill="#F0FFFF" height="50.2031" id="Application" rx="2" ry="2" style="stroke:#000000;stroke-width:0.4000000000000001;" width="88" x="584" y="603.9906"/><ellipse cx="596" cy="625.8922" fill="#ADD1B2" rx="8.8" ry="8.8" style="stroke:#181818;stroke-width:0.8000000000000002;"/><path d="M599.2914,630.6922 L593.1156,630.6922 L593.1156,620.7777 L599.2914,620.7777 L599.2914,622.5043 L595.0746,622.5043 L595.0746,624.6426 L598.893,624.6426 L598.893,626.3691 L595.0746,626.3691 L595.0746,628.9656 L599.2914,628.9656 Z " fill="#000000"/><text fill="#000000" font-family="sans-serif" font-size="9.6" font-style="italic" lengthAdjust="spacing" textLength="34.4" x="621.2" y="617.2719">&#171;entity&#187;</text><text fill="#000000" font-family="sans-serif" font-size="9.6" font-style="italic" lengthAdjust="spacing" textLength="28" x="624.4" y="628.5781">&#171;root&#187;</text><text fill="#000000" font-family="sans-serif" font-size="11.2" lengthAdjust="spacing" textLength="62.4" x="607.2" y="641.4313">Application</text><line style="stroke:#000000;stroke-width:0.4000000000000001;" x1="584.8" x2="671.2" y1="647.7938" y2="647.7938"/></g><g id="elem_GMN44"><path d="M1026.4,552.7906 L1026.4,600.0146 L861.432,635.8066 L1026.4,606.4146 L1026.4,622.0328 A0,0 0 0 0 1026.4,622.0328 L1185.6,622.0328 A0,0 0 0 0 1185.6,622.0328 L1185.6,560.7906 L1177.6,552.7906 L1026.4,552.7906 A0,0 0 0 0 1026.4,552.7906 " fill="#FEFFDD" style="stroke:#181818;stroke-width:0.4000000000000001;"/><path d="M1177.6,552.7906 L1177.6,560.7906 L1185.6,560.7906 L1177.6,552.7906 " fill="#FEFFDD" style="stroke:#181818;stroke-width:0.4000000000000001;"/><text fill="#000000" font-family="sans-serif" font-size="10.4" lengthAdjust="spacing" textLength="142.4" x="1031.2" y="566.8453">Can be one of the following:</text><text fill="#000000" font-family="sans-serif" font-size="10.4" lengthAdjust="spacing" textLength="60.8" x="1031.2" y="579.0938">- submitted</text><text fill="#000000" font-family="sans-serif" font-size="10.4" lengthAdjust="spacing" textLength="50.4" x="1031.2" y="591.3422">- pending</text><text fill="#000000" font-family="sans-serif" font-size="10.4" lengthAdjust="spacing" textLength="54.4" x="1031.2" y="603.5906">- accepted</text><text fill="#000000" font-family="sans-serif" font-size="10.4" lengthAdjust="spacing" textLength="52" x="1031.2" y="615.8391">- declined</text></g><g id="elem_GMN47"><path d="M943.2,650.3906 L943.2,692.6786 L865.056,701.0226 L943.2,699.0786 L943.2,719.6328 A0,0 0 0 0 943.2,719.6328 L1268.8,719.6328 A0,0 0 0 0 1268.8,719.6328 L1268.8,658.3906 L1260.8,650.3906 L943.2,650.3906 A0,0 0 0 0 943.2,650.3906 " fill="#FEFFDD" style="stroke:#181818;stroke-width:0.4000000000000001;"/><path d="M1260.8,650.3906 L1260.8,658.3906 L1268.8,658.3906 L1260.8,650.3906 " fill="#FEFFDD" style="stroke:#181818;stroke-width:0.4000000000000001;"/><text fill="#000000" font-family="sans-serif" font-size="10.4" lengthAdjust="spacing" textLength="142.4" x="948" y="664.4453">Can be one of the following:</text><text fill="#000000" font-family="sans-serif" font-size="10.4" lengthAdjust="spacing" textLength="203.2" x="948" y="676.6938">- text file with the contents of the email</text><text fill="#000000" font-family="sans-serif" font-size="10.4" lengthAdjust="spacing" textLength="198.4" x="948" y="688.9422">- file for each file attached to the email</text><text fill="#000000" font-family="sans-serif" font-size="10.4" lengthAdjust="spacing" textLength="308.8" x="948" y="701.1906">- text file with the contents of each file attached to the email</text><text fill="#000000" font-family="sans-serif" font-size="10.4" lengthAdjust="spacing" textLength="283.2" x="948" y="713.4391">- text file with the data of the application and candidate</text></g><!--entity ApplicationFiles--><g id="elem_ApplicationFiles"><rect fill="#F0FFDD" height="31.1813" rx="2" ry="2" style="stroke:#000000;stroke-width:0.4000000000000001;" width="103.2" x="761.6" y="688.7906"/><text fill="#000000" font-family="sans-serif" font-size="11.2" font-style="italic" lengthAdjust="spacing" textLength="80" x="773.2" y="702.0188">&#171;Value Object&#187;</text><text fill="#000000" font-family="sans-serif" font-size="11.2" lengthAdjust="spacing" textLength="87.2" x="769.6" y="715.2094">ApplicationFiles</text></g><!--entity Status--><g id="elem_Status"><rect fill="#F0FFDD" height="31.1813" rx="2" ry="2" style="stroke:#000000;stroke-width:0.4000000000000001;" width="96" x="765.2" y="629.5906"/><text fill="#000000" font-family="sans-serif" font-size="11.2" font-style="italic" lengthAdjust="spacing" textLength="80" x="773.2" y="642.8188">&#171;Value Object&#187;</text><text fill="#000000" font-family="sans-serif" font-size="11.2" lengthAdjust="spacing" textLength="33.6" x="796.4" y="656.0094">Status</text></g><!--entity SubmissionDate--><g id="elem_SubmissionDate"><rect fill="#F0FFDD" height="31.1813" rx="2" ry="2" style="stroke:#000000;stroke-width:0.4000000000000001;" width="104" x="761.2" y="570.3906"/><text fill="#000000" font-family="sans-serif" font-size="11.2" font-style="italic" lengthAdjust="spacing" textLength="80" x="773.2" y="583.6188">&#171;Value Object&#187;</text><text fill="#000000" font-family="sans-serif" font-size="11.2" lengthAdjust="spacing" textLength="88" x="769.2" y="596.8094">SubmissionDate</text></g><!--entity Rank--><g id="elem_Rank"><rect fill="#F0FFDD" height="31.1813" rx="2" ry="2" style="stroke:#000000;stroke-width:0.4000000000000001;" width="96" x="765.2" y="511.1906"/><text fill="#000000" font-family="sans-serif" font-size="11.2" font-style="italic" lengthAdjust="spacing" textLength="80" x="773.2" y="524.4188">&#171;Value Object&#187;</text><text fill="#000000" font-family="sans-serif" font-size="11.2" lengthAdjust="spacing" textLength="27.2" x="799.6" y="537.6094">Rank</text></g><!--class InterviewModel--><g id="elem_InterviewModel"><rect codeLine="122" fill="#F0FFFF" height="50.2031" id="InterviewModel" rx="2" ry="2" style="stroke:#000000;stroke-width:0.4000000000000001;" width="108.8" x="573.6" y="818.3906"/><ellipse cx="585.6" cy="840.2922" fill="#ADD1B2" rx="8.8" ry="8.8" style="stroke:#181818;stroke-width:0.8000000000000002;"/><path d="M588.8914,845.0922 L582.7156,845.0922 L582.7156,835.1777 L588.8914,835.1777 L588.8914,836.9043 L584.6746,836.9043 L584.6746,839.0426 L588.493,839.0426 L588.493,840.7691 L584.6746,840.7691 L584.6746,843.3656 L588.8914,843.3656 Z " fill="#000000"/><text fill="#000000" font-family="sans-serif" font-size="9.6" font-style="italic" lengthAdjust="spacing" textLength="34.4" x="621.2" y="831.6719">&#171;entity&#187;</text><text fill="#000000" font-family="sans-serif" font-size="9.6" font-style="italic" lengthAdjust="spacing" textLength="28" x="624.4" y="842.9781">&#171;root&#187;</text><text fill="#000000" font-family="sans-serif" font-size="11.2" lengthAdjust="spacing" textLength="83.2" x="596.8" y="855.8313">InterviewModel</text><line style="stroke:#000000;stroke-width:0.4000000000000001;" x1="574.4" x2="681.6" y1="862.1938" y2="862.1938"/></g><!--entity Plugin--><g id="elem_Plugin"><rect fill="#F0FFDD" height="31.1813" rx="2" ry="2" style="stroke:#000000;stroke-width:0.4000000000000001;" width="96" x="765.2" y="818.3906"/><text fill="#000000" font-family="sans-serif" font-size="11.2" font-style="italic" lengthAdjust="spacing" textLength="80" x="773.2" y="831.6188">&#171;Value Object&#187;</text><text fill="#000000" font-family="sans-serif" font-size="11.2" lengthAdjust="spacing" textLength="34.4" x="796" y="844.8094">Plugin</text></g><!--class CustomerManager--><g id="elem_CustomerManager"><rect codeLine="133" fill="#F0FFFF" height="50.2031" id="CustomerManager" rx="2" ry="2" style="stroke:#000000;stroke-width:0.4000000000000001;" width="127.2" x="33.6" y="261.5906"/><ellipse cx="45.6" cy="283.4922" fill="#ADD1B2" rx="8.8" ry="8.8" style="stroke:#181818;stroke-width:0.8000000000000002;"/><path d="M48.8914,288.2922 L42.7156,288.2922 L42.7156,278.3777 L48.8914,278.3777 L48.8914,280.1043 L44.6746,280.1043 L44.6746,282.2426 L48.493,282.2426 L48.493,283.9691 L44.6746,283.9691 L44.6746,286.5656 L48.8914,286.5656 Z " fill="#000000"/><text fill="#000000" font-family="sans-serif" font-size="9.6" font-style="italic" lengthAdjust="spacing" textLength="34.4" x="90.4" y="274.8719">&#171;entity&#187;</text><text fill="#000000" font-family="sans-serif" font-size="9.6" font-style="italic" lengthAdjust="spacing" textLength="28" x="93.6" y="286.1781">&#171;root&#187;</text><text fill="#000000" font-family="sans-serif" font-size="11.2" lengthAdjust="spacing" textLength="101.6" x="56.8" y="299.0313">CustomerManager</text><line style="stroke:#000000;stroke-width:0.4000000000000001;" x1="34.4" x2="160" y1="305.3938" y2="305.3938"/></g><!--class ANTLR--><g id="elem_ANTLR"><rect codeLine="138" fill="#F0FFFF" height="50.2031" id="ANTLR" rx="2" ry="2" style="stroke:#000000;stroke-width:0.4000000000000001;" width="61.6" x="264" y="818.3906"/><ellipse cx="276" cy="840.2922" fill="#ADD1B2" rx="8.8" ry="8.8" style="stroke:#181818;stroke-width:0.8000000000000002;"/><path d="M279.2914,845.0922 L273.1156,845.0922 L273.1156,835.1777 L279.2914,835.1777 L279.2914,836.9043 L275.0746,836.9043 L275.0746,839.0426 L278.893,839.0426 L278.893,840.7691 L275.0746,840.7691 L275.0746,843.3656 L279.2914,843.3656 Z " fill="#000000"/><text fill="#000000" font-family="sans-serif" font-size="9.6" font-style="italic" lengthAdjust="spacing" textLength="34.4" x="288" y="831.6719">&#171;entity&#187;</text><text fill="#000000" font-family="sans-serif" font-size="9.6" font-style="italic" lengthAdjust="spacing" textLength="28" x="291.2" y="842.9781">&#171;root&#187;</text><text fill="#000000" font-family="sans-serif" font-size="11.2" lengthAdjust="spacing" textLength="36" x="287.2" y="855.8313">ANTLR</text><line style="stroke:#000000;stroke-width:0.4000000000000001;" x1="264.8" x2="324.8" y1="862.1938" y2="862.1938"/></g><!--link JobInterview to InterviewResults--><g id="link_JobInterview_InterviewResults"><path codeLine="37" d="M1152.784,905.0466 C1203.016,924.9826 1278.2105,954.836 1326.0665,973.828 " fill="none" id="JobInterview-to-InterviewResults" style="stroke:#808080;stroke-width:0.8000000000000002;"/><polygon fill="#808080" points="1330.528,975.5986,1325.0161,969.9684,1326.8101,974.1231,1322.6554,975.9171,1330.528,975.5986" style="stroke:#808080;stroke-width:0.8000000000000002;"/></g><!--link JobInterview to Score--><g id="link_JobInterview_Score"><path codeLine="38" d="M1152.784,894.7346 C1200.576,902.9906 1270.278,915.0301 1318.614,923.3741 " fill="none" id="JobInterview-to-Score" style="stroke:#808080;stroke-width:0.8000000000000002;"/><polygon fill="#808080" points="1323.344,924.1906,1316.7933,919.8125,1319.4023,923.5102,1315.7046,926.1192,1323.344,924.1906" style="stroke:#808080;stroke-width:0.8000000000000002;"/></g><!--link JobInterview to InterviewTime--><g id="link_JobInterview_InterviewTime"><path codeLine="39" d="M1152.784,884.4226 C1200.576,881.9586 1270.2143,878.3734 1318.5503,875.8854 " fill="none" id="JobInterview-to-InterviewTime" style="stroke:#808080;stroke-width:0.8000000000000002;"/><polygon fill="#808080" points="1323.344,875.6386,1315.989,872.813,1319.3493,875.8442,1316.318,879.2045,1323.344,875.6386" style="stroke:#808080;stroke-width:0.8000000000000002;"/></g><!--link JobInterview to InterviewDate--><g id="link_JobInterview_InterviewDate"><path codeLine="40" d="M1152.784,874.1106 C1200.576,860.9346 1270.3807,841.6825 1318.7167,828.3545 " fill="none" id="JobInterview-to-InterviewDate" style="stroke:#808080;stroke-width:0.8000000000000002;"/><polygon fill="#808080" points="1323.344,827.0786,1315.5524,825.9076,1319.4879,828.1419,1317.2536,832.0774,1323.344,827.0786" style="stroke:#808080;stroke-width:0.8000000000000002;"/></g><!--link JobOpening to JobReference--><g id="link_JobOpening_JobReference"><path codeLine="62" d="M474.424,312.1506 C490.968,338.5426 519.992,379.5266 554.4,405.1906 C562.056,410.9026 566.5815,413.7535 575.4935,417.7135 " fill="none" id="JobOpening-to-JobReference" style="stroke:#808080;stroke-width:0.8000000000000002;"/><polygon fill="#808080" points="579.88,419.6626,574.5997,413.8147,576.2246,418.0384,572.0009,419.6633,579.88,419.6626" style="stroke:#808080;stroke-width:0.8000000000000002;"/></g><!--link JobOpening to TitleOrFunction--><g id="link_JobOpening_TitleOrFunction"><path codeLine="63" d="M497.24,312.3826 C514.296,323.4306 534.96,336.0626 554.4,345.9906 C564,350.8946 570.1685,353.7655 580.2485,357.9095 " fill="none" id="JobOpening-to-TitleOrFunction" style="stroke:#808080;stroke-width:0.8000000000000002;"/><polygon fill="#808080" points="584.688,359.7346,579.2455,354.0373,580.9884,358.2137,576.812,359.9566,584.688,359.7346" style="stroke:#808080;stroke-width:0.8000000000000002;"/></g><!--link JobOpening to ContractType--><g id="link_JobOpening_ContractType"><path codeLine="64" d="M504.296,294.6866 C527.568,298.7906 551.297,302.9887 574.969,307.1647 " fill="none" id="JobOpening-to-ContractType" style="stroke:#808080;stroke-width:0.8000000000000002;"/><polygon fill="#808080" points="579.696,307.9986,573.1614,303.5964,575.7568,307.3037,572.0496,309.8991,579.696,307.9986" style="stroke:#808080;stroke-width:0.8000000000000002;"/></g><!--link JobOpening to Mode--><g id="link_JobOpening_Mode"><path codeLine="65" d="M504.296,278.8946 C527.568,274.7906 551.297,270.5925 574.969,266.4165 " fill="none" id="JobOpening-to-Mode" style="stroke:#808080;stroke-width:0.8000000000000002;"/><polygon fill="#808080" points="579.696,265.5826,572.0496,263.6821,575.7568,266.2775,573.1614,269.9848,579.696,265.5826" style="stroke:#808080;stroke-width:0.8000000000000002;"/></g><!--link JobOpening to Address--><g id="link_JobOpening_Address"><path codeLine="66" d="M497.24,261.1986 C514.296,250.1506 534.96,237.5186 554.4,227.5906 C564,222.6866 570.1685,219.8157 580.2485,215.6717 " fill="none" id="JobOpening-to-Address" style="stroke:#808080;stroke-width:0.8000000000000002;"/><polygon fill="#808080" points="584.688,213.8466,576.812,213.6247,580.9884,215.3676,579.2455,219.544,584.688,213.8466" style="stroke:#808080;stroke-width:0.8000000000000002;"/></g><!--link JobOpening to VacanciesNumber--><g id="link_JobOpening_VacanciesNumber"><path codeLine="67" d="M474.424,261.4306 C490.968,235.0386 519.992,194.0546 554.4,168.3906 C561.512,163.0866 565.3398,160.565 573.6038,156.781 " fill="none" id="JobOpening-to-VacanciesNumber" style="stroke:#808080;stroke-width:0.8000000000000002;"/><polygon fill="#808080" points="577.968,154.7826,570.0894,154.8706,574.3311,156.4479,572.7539,160.6896,577.968,154.7826" style="stroke:#808080;stroke-width:0.8000000000000002;"/></g><!--link JobOpening to Description--><g id="link_JobOpening_Description"><path codeLine="68" d="M467.04,261.2066 C479.32,223.1746 507.272,151.6546 554.4,109.1906 C561.696,102.6146 566.2727,99.3727 575.3687,95.2687 " fill="none" id="JobOpening-to-Description" style="stroke:#808080;stroke-width:0.8000000000000002;"/><polygon fill="#808080" points="579.744,93.2946,571.865,93.3389,576.0979,94.9397,574.4971,99.1726,579.744,93.2946" style="stroke:#808080;stroke-width:0.8000000000000002;"/></g><!--link Application to ApplicationFiles--><g id="link_Application_ApplicationFiles"><path codeLine="98" d="M672.184,648.6626 C690.976,656.9346 713.28,666.5586 733.6,674.7906 C744.912,679.3746 752.7313,682.4208 764.1953,686.7328 " fill="none" id="Application-to-ApplicationFiles" style="stroke:#808080;stroke-width:0.8000000000000002;"/><polygon fill="#808080" points="768.688,688.4226,763.0755,682.8927,764.9441,687.0144,760.8224,688.883,768.688,688.4226" style="stroke:#808080;stroke-width:0.8000000000000002;"/></g><!--link Application to Status--><g id="link_Application_Status"><path codeLine="99" d="M672.312,632.9826 C700.2,635.4146 731.6182,638.1495 760.2342,640.6455 " fill="none" id="Application-to-Status" style="stroke:#808080;stroke-width:0.8000000000000002;"/><polygon fill="#808080" points="765.016,641.0626,758.1213,637.2491,761.0311,640.715,757.5652,643.6249,765.016,641.0626" style="stroke:#808080;stroke-width:0.8000000000000002;"/></g><!--link Application to SubmissionDate--><g id="link_Application_SubmissionDate"><path codeLine="100" d="M672.312,618.9506 C698.928,612.6866 728.4396,605.7462 756.3836,599.1702 " fill="none" id="Application-to-SubmissionDate" style="stroke:#808080;stroke-width:0.8000000000000002;"/><polygon fill="#808080" points="761.056,598.0706,753.3144,596.605,757.1624,598.9869,754.7805,602.8348,761.056,598.0706" style="stroke:#808080;stroke-width:0.8000000000000002;"/></g><!--link Application to Rank--><g id="link_Application_Rank"><path codeLine="101" d="M660.976,603.7186 C681.064,588.6226 707.904,569.8786 733.6,556.3906 C743.432,551.2306 749.8985,548.2563 760.4185,544.1923 " fill="none" id="Application-to-Rank" style="stroke:#808080;stroke-width:0.8000000000000002;"/><polygon fill="#808080" points="764.896,542.4626,757.0266,542.0722,761.1647,543.9041,759.3329,548.0422,764.896,542.4626" style="stroke:#808080;stroke-width:0.8000000000000002;"/></g><!--link InterviewModel to Plugin--><g id="link_InterviewModel_Plugin"><path codeLine="127" d="M682.648,840.7746 C708.672,839.4146 734.8546,838.0502 760.0066,836.7302 " fill="none" id="InterviewModel-to-Plugin" style="stroke:#808080;stroke-width:0.8000000000000002;"/><polygon fill="#808080" points="764.8,836.4786,757.4422,833.6604,760.8055,836.6883,757.7776,840.0516,764.8,836.4786" style="stroke:#808080;stroke-width:0.8000000000000002;"/></g><!--link Application to JobInterview--><g id="link_Application_JobInterview"><path codeLine="144" d="M649.128,654.7826 C668.696,678.0386 700.192,711.9746 733.6,733.9906 C804.888,780.9586 833.032,772.7586 912,805.1906 C962.52,825.9426 1015.7536,848.5056 1054.8336,865.1936 " fill="none" id="Application-to-JobInterview" style="stroke:#808080;stroke-width:0.8000000000000002;"/><polygon fill="#808080" points="1059.248,867.0786,1053.8831,861.3082,1055.5694,865.5078,1051.3698,867.194,1059.248,867.0786" style="stroke:#808080;stroke-width:0.8000000000000002;"/><text fill="#000000" font-family="sans-serif" font-size="10.4" lengthAdjust="spacing" textLength="6.4" x="646.0335" y="670.7031">1</text><text fill="#000000" font-family="sans-serif" font-size="10.4" lengthAdjust="spacing" textLength="6.4" x="1046.7601" y="875.4893">1</text></g><!--reverse link InterviewModel to JobInterview--><g id="link_InterviewModel_JobInterview"><path codeLine="146" d="M687.2995,865.5986 C703.4195,870.8546 716.744,874.3266 733.6,877.1906 C849.56,896.8626 988.744,893.3906 1059.32,889.7586 " fill="none" id="InterviewModel-backto-JobInterview" style="stroke:#808080;stroke-width:0.8000000000000002;"/><polygon fill="#808080" points="682.736,864.1106,688.5893,869.3849,686.539,865.3506,690.5733,863.3002,682.736,864.1106" style="stroke:#808080;stroke-width:0.8000000000000002;"/><text fill="#000000" font-family="sans-serif" font-size="10.4" lengthAdjust="spacing" textLength="23.2" x="801.6" y="874.4453">uses</text><text fill="#000000" font-family="sans-serif" font-size="10.4" lengthAdjust="spacing" textLength="6.4" x="688.7107" y="876.9231">1</text><text fill="#000000" font-family="sans-serif" font-size="10.4" lengthAdjust="spacing" textLength="8" x="1045.1434" y="900.9334">N</text></g><!--link ANTLR to InterviewModel--><g id="link_ANTLR_InterviewModel"><path codeLine="148" d="M325.904,843.5906 C382.024,843.5906 498,843.5906 568.408,843.5906 " fill="none" id="ANTLR-to-InterviewModel" style="stroke:#808080;stroke-width:0.8000000000000002;"/><polygon fill="#808080" points="573.208,843.5906,566.008,840.3906,569.208,843.5906,566.008,846.7906,573.208,843.5906" style="stroke:#808080;stroke-width:0.8000000000000002;"/><text fill="#000000" font-family="sans-serif" font-size="10.4" lengthAdjust="spacing" textLength="50.4" x="433.6" y="840.8453">processes</text></g><!--link CustomerManager to JobOpening--><g id="link_CustomerManager_JobOpening"><path codeLine="150" d="M161.12,286.7906 C233.408,286.7906 345.216,286.7906 408.64,286.7906 " fill="none" id="CustomerManager-to-JobOpening" style="stroke:#808080;stroke-width:0.8000000000000002;"/><polygon fill="#808080" points="413.44,286.7906,406.24,283.5906,409.44,286.7906,406.24,289.9906,413.44,286.7906" style="stroke:#808080;stroke-width:0.8000000000000002;"/><text fill="#000000" font-family="sans-serif" font-size="10.4" lengthAdjust="spacing" textLength="44.8" x="272.4" y="284.0453">manages</text><text fill="#000000" font-family="sans-serif" font-size="10.4" lengthAdjust="spacing" textLength="6.4" x="167.0979" y="297.3995">1</text><text fill="#000000" font-family="sans-serif" font-size="10.4" lengthAdjust="spacing" textLength="8" x="399.1158" y="297.6426">N</text></g><!--reverse link JobOpening to Application--><g id="link_JobOpening_Application"><path codeLine="152" d="M474.1742,316.5579 C505.2382,380.0219 583.736,540.4066 614.768,603.7986 " fill="none" id="JobOpening-backto-Application" style="stroke:#808080;stroke-width:0.8000000000000002;"/><polygon fill="#808080" points="472.064,312.2466,472.3552,320.1203,473.8225,315.8393,478.1035,317.3067,472.064,312.2466" style="stroke:#808080;stroke-width:0.8000000000000002;"/><text fill="#000000" font-family="sans-serif" font-size="10.4" lengthAdjust="spacing" textLength="17.6" x="528.8" y="424.8453">has</text><text fill="#000000" font-family="sans-serif" font-size="10.4" lengthAdjust="spacing" textLength="6.4" x="467.5825" y="328.3401">1</text><text fill="#000000" font-family="sans-serif" font-size="10.4" lengthAdjust="spacing" textLength="8" x="599.6839" y="595.4246">N</text></g><!--SRC=[fPPDR-8m48Rl-HKMUzWJqkuL8IGAekgAGWLexoOUWXV7ZcndMLJrl-yu9k04yr4rbrBxcV6yundRMyw0v62tYfb4mCOIguZcsTOInZMabYkPV3SxBWkgQKu4bs0F1H2bqIP9LjmA89snoYcNv5Kn49qaEVEfeCQGzuJWD-KRcABzaz8Cz4W9fScOwjsJAA49q7INQLLAvg7XszlqPJHSlSnd5TUU_pRvCS6lcXjghVP-EDDmy7omu5gWSV8HnbZW2CrWQGyenMccCXFGK44rko7YMGF8hoiOZziAN7QUOogUQXN7s4ddbrg_I0lwBuSz6MQeFQCMEky9ICljWJJc-tq_EXZq-refEnWarH9Uw8bRW2c5DOZ_fhX7PBx-WzaP38wf81-1qJ9L6XuYJ-vNFF-anHWbtR3mVnjAkzt1XPuhMANWdWiNypt6HPcqDuVC2v1SPbVsffwzjZDL7f1Rm0OqoFHg6ZxEUDMRSpqfPTN63rYCbBIQfdRbElm-xjhz0Mp8c0PZ7Y1_qvJAb8EPbVaQz0CMOp2fviLjVSbnl-eakzqASncRRoKlXeJPYisxzCJ6Z_c8JRKI44C2nLwOLDWK_iXMcykWt3UYagpnp9RW4Bi5ib52g3twx9sWBjcKGdJjgSAhCJm0xNaC9AlMYwryalluakXVG-xy1IFRmrfp5eueQRXj1u3RUcwmOL48djAg328D5axVxB00d701bpLxKO1BIstv25UkSsuCEeuUOXVyWihTLShV4u6eggnQiKSX7svygX5X5751nRO-yFg9SZDkGMk1XUM66unOC4BJ58ecn21rxn1sjoIZAVb4X1R-MR91IxBdTbjnAVON5f2fxG0VFYBi8KTly8e6ccxzVzHQ_0tCFQrY9dTM-P8ZHYsjGwN1RbBC6XurZ3CQwwnJOvslkEfj5skk4-A9c_tr9igCtpkfMmvTuNcxLjEFIcDLZjV4AvKue6F1rKoDnA8BzGvdg-c2BDtwUCU63dsE_75IGLTSNJPdvsS7HQ0AzoDyDaJbEgYFEEdCcZJfaT9W3Nl_LGZTnhl3s_T8eLMAzqkDjbDm3iSlK5ykFP9NXBcuBuyXeG7fD9Jro9QQv3y0]--></g></svg>