<?xml version="1.0" encoding="us-ascii" standalone="no"?><svg xmlns="http://www.w3.org/2000/svg" xmlns:xlink="http://www.w3.org/1999/xlink" contentStyleType="text/css" height="411px" preserveAspectRatio="none" style="width:612px;height:411px;background:#FFFFFF;" version="1.1" viewBox="0 0 612 411" width="612px" zoomAndPan="magnify"><defs/><g><text fill="#000000" font-family="sans-serif" font-size="14" font-weight="bold" lengthAdjust="spacing" textLength="363" x="123.75" y="28.5352">System Sequence Diagram (SSD) - Alternative One</text><rect fill="#FFFFFF" height="192.1738" style="stroke:#181818;stroke-width:1.0;" width="10" x="68.5" y="128.9766"/><rect fill="#FFFFFF" height="44.6211" style="stroke:#181818;stroke-width:1.0;" width="10" x="566.5" y="150.2871"/><rect fill="#FFFFFF" height="29.3105" style="stroke:#181818;stroke-width:1.0;" width="10" x="566.5" y="224.2188"/><rect fill="#FFFFFF" height="29.3105" style="stroke:#181818;stroke-width:1.0;" width="10" x="566.5" y="282.8398"/><line style="stroke:#181818;stroke-width:0.5;stroke-dasharray:5.0,5.0;" x1="73" x2="73" y1="118.9766" y2="330.1504"/><line style="stroke:#181818;stroke-width:0.5;stroke-dasharray:5.0,5.0;" x1="571.5" x2="571.5" y1="118.9766" y2="330.1504"/><text fill="#000000" font-family="sans-serif" font-size="14" lengthAdjust="spacing" textLength="131" x="5" y="116.0234">Customer Manager</text><ellipse cx="73.5" cy="50.9883" fill="#E3E3E3" rx="8" ry="8" style="stroke:#181818;stroke-width:0.5;"/><path d="M73.5,58.9883 L73.5,85.9883 M60.5,66.9883 L86.5,66.9883 M73.5,85.9883 L60.5,100.9883 M73.5,85.9883 L86.5,100.9883 " fill="none" style="stroke:#181818;stroke-width:0.5;"/><text fill="#000000" font-family="sans-serif" font-size="14" lengthAdjust="spacing" textLength="131" x="5" y="342.6855">Customer Manager</text><ellipse cx="73.5" cy="354.1387" fill="#E3E3E3" rx="8" ry="8" style="stroke:#181818;stroke-width:0.5;"/><path d="M73.5,362.1387 L73.5,389.1387 M60.5,370.1387 L86.5,370.1387 M73.5,389.1387 L60.5,404.1387 M73.5,389.1387 L86.5,404.1387 " fill="none" style="stroke:#181818;stroke-width:0.5;"/><rect fill="#E3E3E3" height="30.4883" rx="2.5" ry="2.5" style="stroke:#181818;stroke-width:0.5;" width="70" x="536.5" y="87.4883"/><text fill="#000000" font-family="sans-serif" font-size="14" lengthAdjust="spacing" textLength="56" x="543.5" y="108.0234">: System</text><rect fill="#E3E3E3" height="30.4883" rx="2.5" ry="2.5" style="stroke:#181818;stroke-width:0.5;" width="70" x="536.5" y="329.1504"/><text fill="#000000" font-family="sans-serif" font-size="14" lengthAdjust="spacing" textLength="56" x="543.5" y="349.6855">: System</text><rect fill="#FFFFFF" height="192.1738" style="stroke:#181818;stroke-width:1.0;" width="10" x="68.5" y="128.9766"/><rect fill="#FFFFFF" height="44.6211" style="stroke:#181818;stroke-width:1.0;" width="10" x="566.5" y="150.2871"/><rect fill="#FFFFFF" height="29.3105" style="stroke:#181818;stroke-width:1.0;" width="10" x="566.5" y="224.2188"/><rect fill="#FFFFFF" height="29.3105" style="stroke:#181818;stroke-width:1.0;" width="10" x="566.5" y="282.8398"/><polygon fill="#181818" points="554.5,146.2871,564.5,150.2871,554.5,154.2871,558.5,150.2871" style="stroke:#181818;stroke-width:1.0;"/><line style="stroke:#181818;stroke-width:1.0;" x1="78.5" x2="560.5" y1="150.2871" y2="150.2871"/><text fill="#000000" font-family="sans-serif" font-size="13" font-weight="bold" lengthAdjust="spacing" textLength="9" x="85.5" y="145.5449">1</text><text fill="#000000" font-family="sans-serif" font-size="13" lengthAdjust="spacing" textLength="219" x="98.5" y="145.5449">asks to register a new Job Opening</text><polygon fill="#181818" points="89.5,190.9082,79.5,194.9082,89.5,198.9082,85.5,194.9082" style="stroke:#181818;stroke-width:1.0;"/><line style="stroke:#181818;stroke-width:1.0;stroke-dasharray:2.0,2.0;" x1="83.5" x2="570.5" y1="194.9082" y2="194.9082"/><text fill="#000000" font-family="sans-serif" font-size="13" font-weight="bold" lengthAdjust="spacing" textLength="9" x="95.5" y="182.5107">2</text><text fill="#000000" font-family="sans-serif" font-size="13" lengthAdjust="spacing" textLength="451" x="108.5" y="174.8555">requests job opening details (Description, VacanciesNumber, Company,</text><text fill="#000000" font-family="sans-serif" font-size="13" lengthAdjust="spacing" textLength="384" x="112.5" y="190.166">Address, Mode, ContractType, TitleOrFunction, JobReference)</text><polygon fill="#181818" points="554.5,220.2188,564.5,224.2188,554.5,228.2188,558.5,224.2188" style="stroke:#181818;stroke-width:1.0;"/><line style="stroke:#181818;stroke-width:1.0;" x1="78.5" x2="560.5" y1="224.2188" y2="224.2188"/><text fill="#000000" font-family="sans-serif" font-size="13" font-weight="bold" lengthAdjust="spacing" textLength="9" x="85.5" y="219.4766">3</text><text fill="#000000" font-family="sans-serif" font-size="13" lengthAdjust="spacing" textLength="178" x="98.5" y="219.4766">submits Job Opening details</text><polygon fill="#181818" points="89.5,249.5293,79.5,253.5293,89.5,257.5293,85.5,253.5293" style="stroke:#181818;stroke-width:1.0;"/><line style="stroke:#181818;stroke-width:1.0;stroke-dasharray:2.0,2.0;" x1="83.5" x2="570.5" y1="253.5293" y2="253.5293"/><text fill="#000000" font-family="sans-serif" font-size="13" font-weight="bold" lengthAdjust="spacing" textLength="9" x="95.5" y="248.7871">4</text><text fill="#000000" font-family="sans-serif" font-size="13" lengthAdjust="spacing" textLength="440" x="108.5" y="248.7871">shows all details for the new job opening request and asks to confirm</text><polygon fill="#181818" points="554.5,278.8398,564.5,282.8398,554.5,286.8398,558.5,282.8398" style="stroke:#181818;stroke-width:1.0;"/><line style="stroke:#181818;stroke-width:1.0;" x1="78.5" x2="560.5" y1="282.8398" y2="282.8398"/><text fill="#000000" font-family="sans-serif" font-size="13" font-weight="bold" lengthAdjust="spacing" textLength="9" x="85.5" y="278.0977">5</text><text fill="#000000" font-family="sans-serif" font-size="13" lengthAdjust="spacing" textLength="130" x="98.5" y="278.0977">confirms all the data</text><polygon fill="#181818" points="89.5,308.1504,79.5,312.1504,89.5,316.1504,85.5,312.1504" style="stroke:#181818;stroke-width:1.0;"/><line style="stroke:#181818;stroke-width:1.0;stroke-dasharray:2.0,2.0;" x1="83.5" x2="570.5" y1="312.1504" y2="312.1504"/><text fill="#000000" font-family="sans-serif" font-size="13" font-weight="bold" lengthAdjust="spacing" textLength="9" x="95.5" y="307.4082">6</text><text fill="#000000" font-family="sans-serif" font-size="13" lengthAdjust="spacing" textLength="170" x="108.5" y="307.4082">displays operation success</text><!--SRC=[bP71QkD038RlVWgHKml92-ImK19wM4W3TTdJNfGPnPd6rdWbkS5lNzbEJDWk2vs36LlIh-__hUV4BGesq6JEuIIv8J3fgD2vqc8uOqMbzJM1K33aghvlq1F6V4bSmH5hfQAmPDvQzchKG4b_Ek90i4rO3UqFPRbzX1KyrKR2QEc3OCy-Xfrbxfe3YT-3PO75fbDp984TiZF80b1XiojyiQMGMcI3nVgwQYnErr4WVQ2HTuEVeXYUVb_zk86jlVsiODbDLSa_2I0mNU1dFi2-9NP7uzGiTTE6wLnrLYxfmckNSQTg2kyka2S1Y6IOQeM7BMcGr5hAl8HV69138dqP_IvXanitqoz_Cpp5AAIwX5sED5JOn17U-jRVtePez_BSSPYK7FQLZYH3n8yZMQH_0l_bNRj3avprpkoDzR-clxZMKxueO5tFLe_-v-n4OvRtKLpp0UGuHnyo7vCqtm2_JamhXpKH3R-779EsDVOwa0aEENeS8NZeyyXNbay0]--></g></svg>