<?xml version="1.0" encoding="us-ascii" standalone="no"?><svg xmlns="http://www.w3.org/2000/svg" xmlns:xlink="http://www.w3.org/1999/xlink" contentStyleType="text/css" height="1102px" preserveAspectRatio="none" style="width:1140px;height:1102px;background:#FFFFFF;" version="1.1" viewBox="0 0 1140 1102" width="1140px" zoomAndPan="magnify"><defs/><g><!--class CreateJobOpeningUI--><g id="elem_CreateJobOpeningUI"><rect codeLine="4" fill="#F1F1F1" height="163.418" id="CreateJobOpeningUI" rx="2.5" ry="2.5" style="stroke:#181818;stroke-width:0.5;" width="374" x="188.5" y="7"/><ellipse cx="301.25" cy="23" fill="#ADD1B2" rx="11" ry="11" style="stroke:#181818;stroke-width:1.0;"/><path d="M304.2231,28.6431 Q303.6421,28.9419 303.0029,29.0913 Q302.3638,29.2407 301.6582,29.2407 Q299.1514,29.2407 297.8315,27.5889 Q296.5117,25.937 296.5117,22.8159 Q296.5117,19.6865 297.8315,18.0347 Q299.1514,16.3828 301.6582,16.3828 Q302.3638,16.3828 303.0112,16.5322 Q303.6587,16.6816 304.2231,16.9805 L304.2231,19.7031 Q303.5923,19.1221 302.9988,18.8523 Q302.4053,18.5825 301.7744,18.5825 Q300.4297,18.5825 299.7449,19.6492 Q299.0601,20.7158 299.0601,22.8159 Q299.0601,24.9077 299.7449,25.9744 Q300.4297,27.041 301.7744,27.041 Q302.4053,27.041 302.9988,26.7712 Q303.5923,26.5015 304.2231,25.9204 Z " fill="#000000"/><text fill="#000000" font-family="sans-serif" font-size="14" lengthAdjust="spacing" textLength="140" x="321.75" y="28.291">CreateJobOpeningUI</text><line style="stroke:#181818;stroke-width:0.5;" x1="189.5" x2="561.5" y1="39" y2="39"/><line style="stroke:#181818;stroke-width:0.5;" x1="189.5" x2="561.5" y1="47" y2="47"/><ellipse cx="199.5" cy="60.7441" fill="#84BE84" rx="3" ry="3" style="stroke:#038048;stroke-width:1.0;"/><text fill="#000000" font-family="sans-serif" font-size="14" lengthAdjust="spacing" textLength="65" x="208.5" y="64.5352">doShow()</text><ellipse cx="199.5" cy="77.2324" fill="#84BE84" rx="3" ry="3" style="stroke:#038048;stroke-width:1.0;"/><text fill="#000000" font-family="sans-serif" font-size="14" lengthAdjust="spacing" textLength="91" x="208.5" y="81.0234">showModes()</text><ellipse cx="199.5" cy="93.7207" fill="#84BE84" rx="3" ry="3" style="stroke:#038048;stroke-width:1.0;"/><text fill="#000000" font-family="sans-serif" font-size="14" lengthAdjust="spacing" textLength="145" x="208.5" y="97.5117">showContractTypes()</text><ellipse cx="199.5" cy="110.209" fill="#84BE84" rx="3" ry="3" style="stroke:#038048;stroke-width:1.0;"/><text fill="#000000" font-family="sans-serif" font-size="14" lengthAdjust="spacing" textLength="291" x="208.5" y="114">addJobOpening(jobReference, description,</text><text fill="#000000" font-family="sans-serif" font-size="14" lengthAdjust="spacing" textLength="344" x="208.5" y="130.4883">vacanciesNumber, address, modes, contractTypes,</text><text fill="#000000" font-family="sans-serif" font-size="14" lengthAdjust="spacing" textLength="108" x="208.5" y="146.9766">titleOrFunction)</text><ellipse cx="199.5" cy="159.6738" fill="#84BE84" rx="3" ry="3" style="stroke:#038048;stroke-width:1.0;"/><text fill="#000000" font-family="sans-serif" font-size="14" lengthAdjust="spacing" textLength="69" x="208.5" y="163.4648">headline()</text></g><!--class CreateJobOpeningController--><g id="elem_CreateJobOpeningController"><rect codeLine="13" fill="#F1F1F1" height="146.9297" id="CreateJobOpeningController" rx="2.5" ry="2.5" style="stroke:#181818;stroke-width:0.5;" width="374" x="188.5" y="205"/><ellipse cx="273.25" cy="221" fill="#ADD1B2" rx="11" ry="11" style="stroke:#181818;stroke-width:1.0;"/><path d="M276.2231,226.6431 Q275.6421,226.9419 275.0029,227.0913 Q274.3638,227.2407 273.6582,227.2407 Q271.1514,227.2407 269.8315,225.5889 Q268.5117,223.937 268.5117,220.8159 Q268.5117,217.6865 269.8315,216.0347 Q271.1514,214.3828 273.6582,214.3828 Q274.3638,214.3828 275.0112,214.5322 Q275.6587,214.6816 276.2231,214.9805 L276.2231,217.7031 Q275.5923,217.1221 274.9988,216.8523 Q274.4053,216.5825 273.7744,216.5825 Q272.4297,216.5825 271.7449,217.6492 Q271.0601,218.7158 271.0601,220.8159 Q271.0601,222.9077 271.7449,223.9744 Q272.4297,225.041 273.7744,225.041 Q274.4053,225.041 274.9988,224.7712 Q275.5923,224.5015 276.2231,223.9204 Z " fill="#000000"/><text fill="#000000" font-family="sans-serif" font-size="14" lengthAdjust="spacing" textLength="196" x="293.75" y="226.291">CreateJobOpeningController</text><line style="stroke:#181818;stroke-width:0.5;" x1="189.5" x2="561.5" y1="237" y2="237"/><line style="stroke:#181818;stroke-width:0.5;" x1="189.5" x2="561.5" y1="245" y2="245"/><ellipse cx="199.5" cy="258.7441" fill="#84BE84" rx="3" ry="3" style="stroke:#038048;stroke-width:1.0;"/><text fill="#000000" font-family="sans-serif" font-size="14" lengthAdjust="spacing" textLength="92" x="208.5" y="262.5352">repositories()</text><ellipse cx="199.5" cy="275.2324" fill="#84BE84" rx="3" ry="3" style="stroke:#038048;stroke-width:1.0;"/><text fill="#000000" font-family="sans-serif" font-size="14" lengthAdjust="spacing" textLength="84" x="208.5" y="279.0234">companies()</text><ellipse cx="199.5" cy="291.7207" fill="#84BE84" rx="3" ry="3" style="stroke:#038048;stroke-width:1.0;"/><text fill="#000000" font-family="sans-serif" font-size="14" lengthAdjust="spacing" textLength="254" x="208.5" y="295.5117">findCompanyByCode(companyName)</text><ellipse cx="199.5" cy="308.209" fill="#84BE84" rx="3" ry="3" style="stroke:#038048;stroke-width:1.0;"/><text fill="#000000" font-family="sans-serif" font-size="14" lengthAdjust="spacing" textLength="291" x="208.5" y="312">addJobOpening(jobReference, description,</text><text fill="#000000" font-family="sans-serif" font-size="14" lengthAdjust="spacing" textLength="344" x="208.5" y="328.4883">vacanciesNumber, address, modes, contractTypes,</text><text fill="#000000" font-family="sans-serif" font-size="14" lengthAdjust="spacing" textLength="108" x="208.5" y="344.9766">titleOrFunction)</text></g><!--class JobOpening--><g id="elem_JobOpening"><rect codeLine="21" fill="#F1F1F1" height="361.2773" id="JobOpening" rx="2.5" ry="2.5" style="stroke:#181818;stroke-width:0.5;" width="374" x="188.5" y="635"/><ellipse cx="330.75" cy="651" fill="#ADD1B2" rx="11" ry="11" style="stroke:#181818;stroke-width:1.0;"/><path d="M333.7231,656.6431 Q333.1421,656.9419 332.5029,657.0913 Q331.8638,657.2407 331.1582,657.2407 Q328.6514,657.2407 327.3315,655.5889 Q326.0117,653.937 326.0117,650.8159 Q326.0117,647.6865 327.3315,646.0347 Q328.6514,644.3828 331.1582,644.3828 Q331.8638,644.3828 332.5112,644.5322 Q333.1587,644.6816 333.7231,644.9805 L333.7231,647.7031 Q333.0923,647.1221 332.4988,646.8523 Q331.9053,646.5825 331.2744,646.5825 Q329.9297,646.5825 329.2449,647.6492 Q328.5601,648.7158 328.5601,650.8159 Q328.5601,652.9077 329.2449,653.9744 Q329.9297,655.041 331.2744,655.041 Q331.9053,655.041 332.4988,654.7712 Q333.0923,654.5015 333.7231,653.9204 Z " fill="#000000"/><text fill="#000000" font-family="sans-serif" font-size="14" lengthAdjust="spacing" textLength="81" x="351.25" y="656.291">JobOpening</text><line style="stroke:#181818;stroke-width:0.5;" x1="189.5" x2="561.5" y1="667" y2="667"/><rect fill="none" height="6" style="stroke:#C82930;stroke-width:1.0;" width="6" x="196.5" y="677.7441"/><text fill="#000000" font-family="sans-serif" font-size="14" lengthAdjust="spacing" textLength="159" x="208.5" y="684.5352">Description description</text><rect fill="none" height="6" style="stroke:#C82930;stroke-width:1.0;" width="6" x="196.5" y="694.2324"/><text fill="#000000" font-family="sans-serif" font-size="14" lengthAdjust="spacing" textLength="246" x="208.5" y="701.0234">VacanciesNumber vacanciesNumber</text><rect fill="none" height="6" style="stroke:#C82930;stroke-width:1.0;" width="6" x="196.5" y="710.7207"/><text fill="#000000" font-family="sans-serif" font-size="14" lengthAdjust="spacing" textLength="114" x="208.5" y="717.5117">Address address</text><rect fill="none" height="6" style="stroke:#C82930;stroke-width:1.0;" width="6" x="196.5" y="727.209"/><text fill="#000000" font-family="sans-serif" font-size="14" lengthAdjust="spacing" textLength="81" x="208.5" y="734">Mode mode</text><rect fill="none" height="6" style="stroke:#C82930;stroke-width:1.0;" width="6" x="196.5" y="743.6973"/><text fill="#000000" font-family="sans-serif" font-size="14" lengthAdjust="spacing" textLength="185" x="208.5" y="750.4883">ContractType contractType</text><rect fill="none" height="6" style="stroke:#C82930;stroke-width:1.0;" width="6" x="196.5" y="760.1855"/><text fill="#000000" font-family="sans-serif" font-size="14" lengthAdjust="spacing" textLength="214" x="208.5" y="766.9766">TitleOrFunction titleOrFunction</text><rect fill="none" height="6" style="stroke:#C82930;stroke-width:1.0;" width="6" x="196.5" y="776.6738"/><text fill="#000000" font-family="sans-serif" font-size="14" lengthAdjust="spacing" textLength="184" x="208.5" y="783.4648">JobReference jobReference</text><line style="stroke:#181818;stroke-width:0.5;" x1="189.5" x2="561.5" y1="790.418" y2="790.418"/><ellipse cx="199.5" cy="804.1621" fill="#84BE84" rx="3" ry="3" style="stroke:#038048;stroke-width:1.0;"/><text fill="#000000" font-family="sans-serif" font-size="14" lengthAdjust="spacing" textLength="265" x="208.5" y="807.9531">JobOpening(jobReference, description,</text><text fill="#000000" font-family="sans-serif" font-size="14" lengthAdjust="spacing" textLength="344" x="208.5" y="824.4414">vacanciesNumber, address, modes, contractTypes,</text><text fill="#000000" font-family="sans-serif" font-size="14" lengthAdjust="spacing" textLength="108" x="208.5" y="840.9297">titleOrFunction)</text><ellipse cx="199.5" cy="853.627" fill="#84BE84" rx="3" ry="3" style="stroke:#038048;stroke-width:1.0;"/><text fill="#000000" font-family="sans-serif" font-size="14" lengthAdjust="spacing" textLength="61" x="208.5" y="857.418">identity()</text><ellipse cx="199.5" cy="870.1152" fill="#84BE84" rx="3" ry="3" style="stroke:#038048;stroke-width:1.0;"/><text fill="#000000" font-family="sans-serif" font-size="14" lengthAdjust="spacing" textLength="105" x="208.5" y="873.9063">sameAs(object)</text><ellipse cx="199.5" cy="886.6035" fill="#84BE84" rx="3" ry="3" style="stroke:#038048;stroke-width:1.0;"/><text fill="#000000" font-family="sans-serif" font-size="14" lengthAdjust="spacing" textLength="100" x="208.5" y="890.3945">jobReference()</text><ellipse cx="199.5" cy="903.0918" fill="#84BE84" rx="3" ry="3" style="stroke:#038048;stroke-width:1.0;"/><text fill="#000000" font-family="sans-serif" font-size="14" lengthAdjust="spacing" textLength="87" x="208.5" y="906.8828">description()</text><ellipse cx="199.5" cy="919.5801" fill="#84BE84" rx="3" ry="3" style="stroke:#038048;stroke-width:1.0;"/><text fill="#000000" font-family="sans-serif" font-size="14" lengthAdjust="spacing" textLength="130" x="208.5" y="923.3711">vacanciesNumber()</text><ellipse cx="199.5" cy="936.0684" fill="#84BE84" rx="3" ry="3" style="stroke:#038048;stroke-width:1.0;"/><text fill="#000000" font-family="sans-serif" font-size="14" lengthAdjust="spacing" textLength="64" x="208.5" y="939.8594">address()</text><ellipse cx="199.5" cy="952.5566" fill="#84BE84" rx="3" ry="3" style="stroke:#038048;stroke-width:1.0;"/><text fill="#000000" font-family="sans-serif" font-size="14" lengthAdjust="spacing" textLength="49" x="208.5" y="956.3477">mode()</text><ellipse cx="199.5" cy="969.0449" fill="#84BE84" rx="3" ry="3" style="stroke:#038048;stroke-width:1.0;"/><text fill="#000000" font-family="sans-serif" font-size="14" lengthAdjust="spacing" textLength="99" x="208.5" y="972.8359">contractType()</text><ellipse cx="199.5" cy="985.5332" fill="#84BE84" rx="3" ry="3" style="stroke:#038048;stroke-width:1.0;"/><text fill="#000000" font-family="sans-serif" font-size="14" lengthAdjust="spacing" textLength="113" x="208.5" y="989.3242">titleOrFunction()</text></g><!--class JobOpeningRepository--><g id="elem_JobOpeningRepository"><rect codeLine="43" fill="#F1F1F1" height="64.4883" id="JobOpeningRepository" rx="2.5" ry="2.5" style="stroke:#181818;stroke-width:0.5;" width="186" x="282.5" y="1031.5"/><ellipse cx="297.5" cy="1047.5" fill="#ADD1B2" rx="11" ry="11" style="stroke:#181818;stroke-width:1.0;"/><path d="M300.4731,1053.1431 Q299.8921,1053.4419 299.2529,1053.5913 Q298.6138,1053.7407 297.9082,1053.7407 Q295.4014,1053.7407 294.0815,1052.0889 Q292.7617,1050.437 292.7617,1047.3159 Q292.7617,1044.1865 294.0815,1042.5347 Q295.4014,1040.8828 297.9082,1040.8828 Q298.6138,1040.8828 299.2612,1041.0322 Q299.9087,1041.1816 300.4731,1041.4805 L300.4731,1044.2031 Q299.8423,1043.6221 299.2488,1043.3523 Q298.6553,1043.0825 298.0244,1043.0825 Q296.6797,1043.0825 295.9949,1044.1492 Q295.3101,1045.2158 295.3101,1047.3159 Q295.3101,1049.4077 295.9949,1050.4744 Q296.6797,1051.541 298.0244,1051.541 Q298.6553,1051.541 299.2488,1051.2712 Q299.8423,1051.0015 300.4731,1050.4204 Z " fill="#000000"/><text fill="#000000" font-family="sans-serif" font-size="14" lengthAdjust="spacing" textLength="154" x="311.5" y="1052.791">JobOpeningRepository</text><line style="stroke:#181818;stroke-width:0.5;" x1="283.5" x2="467.5" y1="1063.5" y2="1063.5"/><line style="stroke:#181818;stroke-width:0.5;" x1="283.5" x2="467.5" y1="1071.5" y2="1071.5"/><ellipse cx="293.5" cy="1085.2441" fill="#84BE84" rx="3" ry="3" style="stroke:#038048;stroke-width:1.0;"/><text fill="#000000" font-family="sans-serif" font-size="14" lengthAdjust="spacing" textLength="114" x="302.5" y="1089.0352">allJobOpenings()</text></g><!--class JobOpeningService--><g id="elem_JobOpeningService"><rect codeLine="47" fill="#F1F1F1" height="97.4648" id="JobOpeningService" rx="2.5" ry="2.5" style="stroke:#181818;stroke-width:0.5;" width="472" x="139.5" y="387"/><ellipse cx="306.75" cy="403" fill="#ADD1B2" rx="11" ry="11" style="stroke:#181818;stroke-width:1.0;"/><path d="M309.7231,408.6431 Q309.1421,408.9419 308.5029,409.0913 Q307.8638,409.2407 307.1582,409.2407 Q304.6514,409.2407 303.3315,407.5889 Q302.0117,405.937 302.0117,402.8159 Q302.0117,399.6865 303.3315,398.0347 Q304.6514,396.3828 307.1582,396.3828 Q307.8638,396.3828 308.5112,396.5322 Q309.1587,396.6816 309.7231,396.9805 L309.7231,399.7031 Q309.0923,399.1221 308.4988,398.8523 Q307.9053,398.5825 307.2744,398.5825 Q305.9297,398.5825 305.2449,399.6492 Q304.5601,400.7158 304.5601,402.8159 Q304.5601,404.9077 305.2449,405.9744 Q305.9297,407.041 307.2744,407.041 Q307.9053,407.041 308.4988,406.7712 Q309.0923,406.5015 309.7231,405.9204 Z " fill="#000000"/><text fill="#000000" font-family="sans-serif" font-size="14" lengthAdjust="spacing" textLength="129" x="327.25" y="408.291">JobOpeningService</text><line style="stroke:#181818;stroke-width:0.5;" x1="140.5" x2="610.5" y1="419" y2="419"/><line style="stroke:#181818;stroke-width:0.5;" x1="140.5" x2="610.5" y1="427" y2="427"/><ellipse cx="150.5" cy="440.7441" fill="#84BE84" rx="3" ry="3" style="stroke:#038048;stroke-width:1.0;"/><text fill="#000000" font-family="sans-serif" font-size="14" lengthAdjust="spacing" textLength="446" x="159.5" y="444.5352">registerJobOpening(jobReference, description, vacanciesNumber,</text><text fill="#000000" font-family="sans-serif" font-size="14" lengthAdjust="spacing" textLength="318" x="159.5" y="461.0234">address, mode, contractType, titleOrFunction);</text><ellipse cx="150.5" cy="473.7207" fill="#84BE84" rx="3" ry="3" style="stroke:#038048;stroke-width:1.0;"/><text fill="#000000" font-family="sans-serif" font-size="14" lengthAdjust="spacing" textLength="114" x="159.5" y="477.5117">allJobOpenings()</text></g><!--class JobOpeningBuilder--><g id="elem_JobOpeningBuilder"><rect codeLine="53" fill="#F1F1F1" height="80.9766" id="JobOpeningBuilder" rx="2.5" ry="2.5" style="stroke:#181818;stroke-width:0.5;" width="703" x="24" y="519"/><ellipse cx="306.75" cy="535" fill="#ADD1B2" rx="11" ry="11" style="stroke:#181818;stroke-width:1.0;"/><path d="M309.7231,540.6431 Q309.1421,540.9419 308.5029,541.0913 Q307.8638,541.2407 307.1582,541.2407 Q304.6514,541.2407 303.3315,539.5889 Q302.0117,537.937 302.0117,534.8159 Q302.0117,531.6865 303.3315,530.0347 Q304.6514,528.3828 307.1582,528.3828 Q307.8638,528.3828 308.5112,528.5322 Q309.1587,528.6816 309.7231,528.9805 L309.7231,531.7031 Q309.0923,531.1221 308.4988,530.8523 Q307.9053,530.5825 307.2744,530.5825 Q305.9297,530.5825 305.2449,531.6492 Q304.5601,532.7158 304.5601,534.8159 Q304.5601,536.9077 305.2449,537.9744 Q305.9297,539.041 307.2744,539.041 Q307.9053,539.041 308.4988,538.7712 Q309.0923,538.5015 309.7231,537.9204 Z " fill="#000000"/><text fill="#000000" font-family="sans-serif" font-size="14" lengthAdjust="spacing" textLength="129" x="327.25" y="540.291">JobOpeningBuilder</text><line style="stroke:#181818;stroke-width:0.5;" x1="25" x2="726" y1="551" y2="551"/><line style="stroke:#181818;stroke-width:0.5;" x1="25" x2="726" y1="559" y2="559"/><ellipse cx="35" cy="572.7441" fill="#84BE84" rx="3" ry="3" style="stroke:#038048;stroke-width:1.0;"/><text fill="#000000" font-family="sans-serif" font-size="14" lengthAdjust="spacing" textLength="677" x="44" y="576.5352">withAll(jobReference, description, vacanciesNumber, address, mode, contractType, titleOrFunction)</text><ellipse cx="35" cy="589.2324" fill="#84BE84" rx="3" ry="3" style="stroke:#038048;stroke-width:1.0;"/><text fill="#000000" font-family="sans-serif" font-size="14" lengthAdjust="spacing" textLength="45" x="44" y="593.0234">build()</text></g><!--class PersistenceContext--><g id="elem_PersistenceContext"><rect codeLine="59" fill="#F1F1F1" height="80.9766" id="PersistenceContext" rx="2.5" ry="2.5" style="stroke:#181818;stroke-width:0.5;" width="168" x="876" y="238"/><ellipse cx="892.8" cy="254" fill="#ADD1B2" rx="11" ry="11" style="stroke:#181818;stroke-width:1.0;"/><path d="M895.7731,259.6431 Q895.1921,259.9419 894.5529,260.0913 Q893.9138,260.2407 893.2082,260.2407 Q890.7014,260.2407 889.3815,258.5889 Q888.0617,256.937 888.0617,253.8159 Q888.0617,250.6865 889.3815,249.0347 Q890.7014,247.3828 893.2082,247.3828 Q893.9138,247.3828 894.5612,247.5322 Q895.2087,247.6816 895.7731,247.9805 L895.7731,250.7031 Q895.1423,250.1221 894.5488,249.8523 Q893.9553,249.5825 893.3244,249.5825 Q891.9797,249.5825 891.2949,250.6492 Q890.6101,251.7158 890.6101,253.8159 Q890.6101,255.9077 891.2949,256.9744 Q891.9797,258.041 893.3244,258.041 Q893.9553,258.041 894.5488,257.7712 Q895.1423,257.5015 895.7731,256.9204 Z " fill="#000000"/><text fill="#000000" font-family="sans-serif" font-size="14" lengthAdjust="spacing" textLength="132" x="907.2" y="259.291">PersistenceContext</text><line style="stroke:#181818;stroke-width:0.5;" x1="877" x2="1043" y1="270" y2="270"/><line style="stroke:#181818;stroke-width:0.5;" x1="877" x2="1043" y1="278" y2="278"/><ellipse cx="887" cy="291.7441" fill="#84BE84" rx="3" ry="3" style="stroke:#038048;stroke-width:1.0;"/><text fill="#000000" font-family="sans-serif" font-size="14" lengthAdjust="spacing" textLength="92" x="896" y="295.5352">repositories()</text><ellipse cx="887" cy="308.2324" fill="#84BE84" rx="3" ry="3" style="stroke:#038048;stroke-width:1.0;"/><text fill="#000000" font-family="sans-serif" font-size="14" lengthAdjust="spacing" textLength="142" x="896" y="312.0234">PersistenceContext()</text></g><!--class RepositoryFactory--><g id="elem_RepositoryFactory"><rect codeLine="64" fill="#F1F1F1" height="229.3711" id="RepositoryFactory" rx="2.5" ry="2.5" style="stroke:#181818;stroke-width:0.5;" width="346" x="787" y="354"/><ellipse cx="894.25" cy="370" fill="#B4A7E5" rx="11" ry="11" style="stroke:#181818;stroke-width:1.0;"/><path d="M890.1777,365.7651 L890.1777,363.6069 L897.5571,363.6069 L897.5571,365.7651 L895.0918,365.7651 L895.0918,373.8418 L897.5571,373.8418 L897.5571,376 L890.1777,376 L890.1777,373.8418 L892.6431,373.8418 L892.6431,365.7651 Z " fill="#000000"/><text fill="#000000" font-family="sans-serif" font-size="14" font-style="italic" lengthAdjust="spacing" textLength="123" x="914.75" y="375.291">RepositoryFactory</text><line style="stroke:#181818;stroke-width:0.5;" x1="788" x2="1132" y1="386" y2="386"/><line style="stroke:#181818;stroke-width:0.5;" x1="788" x2="1132" y1="394" y2="394"/><ellipse cx="798" cy="407.7441" fill="#84BE84" rx="3" ry="3" style="stroke:#038048;stroke-width:1.0;"/><text fill="#000000" font-family="sans-serif" font-size="14" lengthAdjust="spacing" textLength="186" x="807" y="411.5352">newTransactionalContext()</text><ellipse cx="798" cy="424.2324" fill="#84BE84" rx="3" ry="3" style="stroke:#038048;stroke-width:1.0;"/><text fill="#000000" font-family="sans-serif" font-size="14" lengthAdjust="spacing" textLength="248" x="807" y="428.0234">users(TransactionalContext autoTx)</text><ellipse cx="798" cy="440.7207" fill="#84BE84" rx="3" ry="3" style="stroke:#038048;stroke-width:1.0;"/><text fill="#000000" font-family="sans-serif" font-size="14" lengthAdjust="spacing" textLength="47" x="807" y="444.5117">users()</text><ellipse cx="798" cy="457.209" fill="#84BE84" rx="3" ry="3" style="stroke:#038048;stroke-width:1.0;"/><text fill="#000000" font-family="sans-serif" font-size="14" lengthAdjust="spacing" textLength="313" x="807" y="461">customerUsers(TransactionalContext autoTx)</text><ellipse cx="798" cy="473.6973" fill="#84BE84" rx="3" ry="3" style="stroke:#038048;stroke-width:1.0;"/><text fill="#000000" font-family="sans-serif" font-size="14" lengthAdjust="spacing" textLength="112" x="807" y="477.4883">customerUsers()</text><ellipse cx="798" cy="490.1855" fill="#84BE84" rx="3" ry="3" style="stroke:#038048;stroke-width:1.0;"/><text fill="#000000" font-family="sans-serif" font-size="14" lengthAdjust="spacing" textLength="320" x="807" y="493.9766">signupRequests(TransactionalContext autoTx)</text><ellipse cx="798" cy="506.6738" fill="#84BE84" rx="3" ry="3" style="stroke:#038048;stroke-width:1.0;"/><text fill="#000000" font-family="sans-serif" font-size="14" lengthAdjust="spacing" textLength="119" x="807" y="510.4648">signupRequests()</text><ellipse cx="798" cy="523.1621" fill="#84BE84" rx="3" ry="3" style="stroke:#038048;stroke-width:1.0;"/><text fill="#000000" font-family="sans-serif" font-size="14" lengthAdjust="spacing" textLength="299" x="807" y="526.9531">jobOpenings(TransactionalContext autoTx)</text><ellipse cx="798" cy="539.6504" fill="#84BE84" rx="3" ry="3" style="stroke:#038048;stroke-width:1.0;"/><text fill="#000000" font-family="sans-serif" font-size="14" lengthAdjust="spacing" textLength="98" x="807" y="543.4414">jobOpenings()</text><ellipse cx="798" cy="556.1387" fill="#84BE84" rx="3" ry="3" style="stroke:#038048;stroke-width:1.0;"/><text fill="#000000" font-family="sans-serif" font-size="14" lengthAdjust="spacing" textLength="294" x="807" y="559.9297">applications(TransactionalContext autoTx)</text><ellipse cx="798" cy="572.627" fill="#84BE84" rx="3" ry="3" style="stroke:#038048;stroke-width:1.0;"/><text fill="#000000" font-family="sans-serif" font-size="14" lengthAdjust="spacing" textLength="93" x="807" y="576.418">applications()</text></g><!--link CreateJobOpeningUI to CreateJobOpeningController--><g id="link_CreateJobOpeningUI_CreateJobOpeningController"><path codeLine="79" d="M376,170.46 C376,181.8 376,187.41 376,198.6 " fill="none" id="CreateJobOpeningUI-to-CreateJobOpeningController" style="stroke:#181818;stroke-width:1.0;"/><polygon fill="#181818" points="376,204.6,380,195.6,376,199.6,372,195.6,376,204.6" style="stroke:#181818;stroke-width:1.0;"/></g><!--link CreateJobOpeningController to PersistenceContext--><g id="link_CreateJobOpeningController_PersistenceContext"><path codeLine="81" d="M562.85,278.5 C668.03,278.5 788.12,278.5 869.57,278.5 " fill="none" id="CreateJobOpeningController-to-PersistenceContext" style="stroke:#181818;stroke-width:1.0;"/><polygon fill="#181818" points="875.57,278.5,866.57,274.5,870.57,278.5,866.57,282.5,875.57,278.5" style="stroke:#181818;stroke-width:1.0;"/></g><!--link CreateJobOpeningController to JobOpeningService--><g id="link_CreateJobOpeningController_JobOpeningService"><path codeLine="83" d="M376,352.4 C376,364.01 376,369.76 376,380.62 " fill="none" id="CreateJobOpeningController-to-JobOpeningService" style="stroke:#181818;stroke-width:1.0;"/><polygon fill="#181818" points="376,386.62,380,377.62,376,381.62,372,377.62,376,386.62" style="stroke:#181818;stroke-width:1.0;"/></g><!--link JobOpeningService to JobOpeningRepository--><g id="link_JobOpeningService_JobOpeningRepository"><path codeLine="85" d="M139.14,435.5 C66.84,435.5 6,435.5 6,435.5 C6,435.5 6,1063.5 6,1063.5 C6,1063.5 166.8,1063.5 276.26,1063.5 " fill="none" id="JobOpeningService-to-JobOpeningRepository" style="stroke:#181818;stroke-width:1.0;"/><polygon fill="#181818" points="282.26,1063.5,273.26,1059.5,277.26,1063.5,273.26,1067.5,282.26,1063.5" style="stroke:#181818;stroke-width:1.0;"/></g><!--link JobOpeningService to JobOpeningBuilder--><g id="link_JobOpeningService_JobOpeningBuilder"><path codeLine="87" d="M376,484.15 C376,495.55 376,501.58 376,512.6 " fill="none" id="JobOpeningService-to-JobOpeningBuilder" style="stroke:#181818;stroke-width:1.0;"/><polygon fill="#181818" points="376,518.6,380,509.6,376,513.6,372,509.6,376,518.6" style="stroke:#181818;stroke-width:1.0;"/></g><!--link JobOpeningBuilder to JobOpening--><g id="link_JobOpeningBuilder_JobOpening"><path codeLine="89" d="M376,600.35 C376,610.58 376,616.23 376,628.69 " fill="none" id="JobOpeningBuilder-to-JobOpening" style="stroke:#181818;stroke-width:1.0;"/><polygon fill="#181818" points="376,634.69,380,625.69,376,629.69,372,625.69,376,634.69" style="stroke:#181818;stroke-width:1.0;"/></g><!--link PersistenceContext to RepositoryFactory--><g id="link_PersistenceContext_RepositoryFactory"><path codeLine="91" d="M960,319.26 C960,329.73 960,335.52 960,347.76 " fill="none" id="PersistenceContext-to-RepositoryFactory" style="stroke:#181818;stroke-width:1.0;"/><polygon fill="#181818" points="960,353.76,964,344.76,960,348.76,956,344.76,960,353.76" style="stroke:#181818;stroke-width:1.0;"/></g><!--SRC=[nLLVRziW47_dK_3egiudc5GfpLHfbTPEQRgdlM3x4fDXy00tjQPzzu4nCTXUvaYJvYTpzxkxt_q3zPtocaXIOKOvwBO6BAGk1MAmrrWBBEcXrBYW4d9D1KSePqGfl950D3oAxBa6JldXzHF-YR3vRd4XNafnIcxwepA7pw805KasWcj9Shqp4GSDAOh1PN8KsHRs887da6BZ8PUqjYJI3lv6Si9p2kgfgJAGgRMMe5IAAniknNaO8yNVkAQQmRDyQ7YNIn-r15BOv0sBNtzAhwCh60DvJbD2BHJLGj8WWLnKDU6XP4zviUcaxNsxCSGIXscVI0N_A-zpdaDKbzSAVnp2XQ6TyciSUap5WTQEZgVbX7O2Edxk6BO_uklKkvWm7YNWG8z1cN1OCuIweYwkwByPf5jC2x2QDkdFodHuhHAH7StkzBAGYSS5VBneHCcBUsB-QEdv_v2Zbure9hEDt_evRi-ZJHWRz6hUx0Na6pM57zRXG9K6kQZgav9tJgAonrLFnxdSVBY2wtr3MH6ixedgSitODGIl8zV7oMnSHwddz0MaicKo0UqAmBk-V9zCySuTDVzoJqpzX_Oz63fX5pcSTf9mHJfEX0qEdBvHndao1y6aqMBt7WFFLroZjAX0lYurZmtEZm0zyARUmey6b5xaPsJXnSUW-mky7ADXwMUehXdDYJLRv2F2k_REl8UhkmlFoDGYU69MndJQ-SicTzFTH6YwhX5kc9s_GliL2d5-go8SGZCZRX2JCKM_0G00]--></g></svg>