<?xml version="1.0" encoding="us-ascii" standalone="no"?><svg xmlns="http://www.w3.org/2000/svg" xmlns:xlink="http://www.w3.org/1999/xlink" contentStyleType="text/css" height="295.2px" preserveAspectRatio="none" style="width:1701px;height:295px;background:#FFFFFF;" version="1.1" viewBox="0 0 1701 295" width="1701.6px" zoomAndPan="magnify"><defs/><g><!--cluster ui--><g id="cluster_ui"><path d="M5.1,88.8 L14.1,88.8 A2.25,2.25 0 0 1 15.6,90.3 L19.8,102.293 L245.7,102.293 A1.5,1.5 0 0 1 247.2,103.793 L247.2,215.7 A1.5,1.5 0 0 1 245.7,217.2 L5.1,217.2 A1.5,1.5 0 0 1 3.6,215.7 L3.6,90.3 A1.5,1.5 0 0 1 5.1,88.8 " fill="none" style="stroke:#000000;stroke-width:0.8999999999999999;"/><line style="stroke:#000000;stroke-width:0.8999999999999999;" x1="3.6" x2="19.8" y1="102.293" y2="102.293"/><text fill="#000000" font-family="sans-serif" font-size="8.4" font-weight="bold" lengthAdjust="spacing" textLength="8.4" x="6" y="98.1211">ui</text></g><!--cluster jobOpening--><g id="cluster_jobOpening"><path d="M263.1,3.6 L314.1,3.6 A2.25,2.25 0 0 1 315.6,5.1 L319.8,17.093 L1695.9,17.093 A1.5,1.5 0 0 1 1697.4,18.593 L1697.4,289.5 A1.5,1.5 0 0 1 1695.9,291 L263.1,291 A1.5,1.5 0 0 1 261.6,289.5 L261.6,5.1 A1.5,1.5 0 0 1 263.1,3.6 " fill="none" style="stroke:#000000;stroke-width:0.8999999999999999;"/><line style="stroke:#000000;stroke-width:0.8999999999999999;" x1="261.6" x2="319.8" y1="17.093" y2="17.093"/><text fill="#000000" font-family="sans-serif" font-size="8.4" font-weight="bold" lengthAdjust="spacing" textLength="50.4" x="264" y="12.9211">jobOpening</text></g><!--cluster application--><g id="cluster_application"><path d="M1440.9,93.6 L1489.5,93.6 A2.25,2.25 0 0 1 1491,95.1 L1495.2,107.093 L1681.5,107.093 A1.5,1.5 0 0 1 1683,108.593 L1683,210.9 A1.5,1.5 0 0 1 1681.5,212.4 L1440.9,212.4 A1.5,1.5 0 0 1 1439.4,210.9 L1439.4,95.1 A1.5,1.5 0 0 1 1440.9,93.6 " fill="none" style="stroke:#000000;stroke-width:0.8999999999999999;"/><line style="stroke:#000000;stroke-width:0.8999999999999999;" x1="1439.4" x2="1495.2" y1="107.093" y2="107.093"/><text fill="#000000" font-family="sans-serif" font-size="8.4" font-weight="bold" lengthAdjust="spacing" textLength="48" x="1441.8" y="102.9211">application</text></g><!--cluster domain--><g id="cluster_domain"><path d="M739.5,29.4 L772.5,29.4 A2.25,2.25 0 0 1 774,30.9 L778.2,42.893 L1423.5,42.893 A1.5,1.5 0 0 1 1425,44.393 L1425,275.1 A1.5,1.5 0 0 1 1423.5,276.6 L739.5,276.6 A1.5,1.5 0 0 1 738,275.1 L738,30.9 A1.5,1.5 0 0 1 739.5,29.4 " fill="none" style="stroke:#000000;stroke-width:0.8999999999999999;"/><line style="stroke:#000000;stroke-width:0.8999999999999999;" x1="738" x2="778.2" y1="42.893" y2="42.893"/><text fill="#000000" font-family="sans-serif" font-size="8.4" font-weight="bold" lengthAdjust="spacing" textLength="32.4" x="740.4" y="38.7211">domain</text></g><!--cluster repositories--><g id="cluster_repositories"><path d="M594.3,118.5 L647.1,118.5 A2.25,2.25 0 0 1 648.6,120 L652.8,131.993 L722.1,131.993 A1.5,1.5 0 0 1 723.6,133.493 L723.6,186 A1.5,1.5 0 0 1 722.1,187.5 L594.3,187.5 A1.5,1.5 0 0 1 592.8,186 L592.8,120 A1.5,1.5 0 0 1 594.3,118.5 " fill="none" style="stroke:#000000;stroke-width:0.8999999999999999;"/><line style="stroke:#000000;stroke-width:0.8999999999999999;" x1="592.8" x2="652.8" y1="131.993" y2="131.993"/><text fill="#000000" font-family="sans-serif" font-size="8.4" font-weight="bold" lengthAdjust="spacing" textLength="52.2" x="595.2" y="127.8211">repositories</text></g><!--cluster services--><g id="cluster_services"><path d="M277.5,108.6 L312.9,108.6 A2.25,2.25 0 0 1 314.4,110.1 L318.6,122.093 L576.9,122.093 A1.5,1.5 0 0 1 578.4,123.593 L578.4,195.9 A1.5,1.5 0 0 1 576.9,197.4 L277.5,197.4 A1.5,1.5 0 0 1 276,195.9 L276,110.1 A1.5,1.5 0 0 1 277.5,108.6 " fill="none" style="stroke:#000000;stroke-width:0.8999999999999999;"/><line style="stroke:#000000;stroke-width:0.8999999999999999;" x1="276" x2="318.6" y1="122.093" y2="122.093"/><text fill="#000000" font-family="sans-serif" font-size="8.4" font-weight="bold" lengthAdjust="spacing" textLength="34.8" x="278.4" y="117.9211">services</text></g><!--class CreateJobOpeningUI--><g id="elem_CreateJobOpeningUI"><rect codeLine="5" fill="#F1F1F1" height="98.0508" id="CreateJobOpeningUI" rx="1.5" ry="1.5" style="stroke:#181818;stroke-width:0.3;" width="224.4" x="13.2" y="109.8"/><ellipse cx="80.85" cy="119.4" fill="#ADD1B2" rx="6.6" ry="6.6" style="stroke:#181818;stroke-width:0.6;"/><path d="M82.6339,122.7858 Q82.2853,122.9651 81.9018,123.0548 Q81.5183,123.1444 81.0949,123.1444 Q79.5908,123.1444 78.7989,122.1533 Q78.007,121.1622 78.007,119.2896 Q78.007,117.4119 78.7989,116.4208 Q79.5908,115.4297 81.0949,115.4297 Q81.5183,115.4297 81.9067,115.5193 Q82.2952,115.609 82.6339,115.7883 L82.6339,117.4219 Q82.2554,117.0732 81.8993,116.9114 Q81.5432,116.7495 81.1646,116.7495 Q80.3578,116.7495 79.9469,117.3895 Q79.536,118.0295 79.536,119.2896 Q79.536,120.5446 79.9469,121.1846 Q80.3578,121.8246 81.1646,121.8246 Q81.5432,121.8246 81.8993,121.6627 Q82.2554,121.5009 82.6339,121.1522 Z " fill="#000000"/><text fill="#000000" font-family="sans-serif" font-size="8.4" lengthAdjust="spacing" textLength="84" x="93.15" y="122.5746">CreateJobOpeningUI</text><line style="stroke:#181818;stroke-width:0.3;" x1="13.8" x2="237" y1="129" y2="129"/><line style="stroke:#181818;stroke-width:0.3;" x1="13.8" x2="237" y1="133.8" y2="133.8"/><ellipse cx="19.8" cy="142.0465" fill="#84BE84" rx="1.8" ry="1.8" style="stroke:#038048;stroke-width:0.6;"/><text fill="#000000" font-family="sans-serif" font-size="8.4" lengthAdjust="spacing" textLength="39" x="25.2" y="144.3211">doShow()</text><ellipse cx="19.8" cy="151.9395" fill="#84BE84" rx="1.8" ry="1.8" style="stroke:#038048;stroke-width:0.6;"/><text fill="#000000" font-family="sans-serif" font-size="8.4" lengthAdjust="spacing" textLength="54.6" x="25.2" y="154.2141">showModes()</text><ellipse cx="19.8" cy="161.8324" fill="#84BE84" rx="1.8" ry="1.8" style="stroke:#038048;stroke-width:0.6;"/><text fill="#000000" font-family="sans-serif" font-size="8.4" lengthAdjust="spacing" textLength="87" x="25.2" y="164.107">showContractTypes()</text><ellipse cx="19.8" cy="171.7254" fill="#84BE84" rx="1.8" ry="1.8" style="stroke:#038048;stroke-width:0.6;"/><text fill="#000000" font-family="sans-serif" font-size="8.4" lengthAdjust="spacing" textLength="174.6" x="25.2" y="174">addJobOpening(jobReference, description,</text><text fill="#000000" font-family="sans-serif" font-size="8.4" lengthAdjust="spacing" textLength="206.4" x="25.2" y="183.893">vacanciesNumber, address, modes, contractTypes,</text><text fill="#000000" font-family="sans-serif" font-size="8.4" lengthAdjust="spacing" textLength="64.8" x="25.2" y="193.7859">titleOrFunction)</text><ellipse cx="19.8" cy="201.4043" fill="#84BE84" rx="1.8" ry="1.8" style="stroke:#038048;stroke-width:0.6;"/><text fill="#000000" font-family="sans-serif" font-size="8.4" lengthAdjust="spacing" textLength="41.4" x="25.2" y="203.6789">headline()</text></g><!--class CreateJobOpeningController--><g id="elem_CreateJobOpeningController"><rect codeLine="17" fill="#F1F1F1" height="88.1578" id="CreateJobOpeningController" rx="1.5" ry="1.5" style="stroke:#181818;stroke-width:0.3;" width="224.4" x="1449" y="114.6"/><ellipse cx="1499.85" cy="124.2" fill="#ADD1B2" rx="6.6" ry="6.6" style="stroke:#181818;stroke-width:0.6;"/><path d="M1501.6339,127.5858 Q1501.2853,127.7651 1500.9018,127.8548 Q1500.5183,127.9444 1500.0949,127.9444 Q1498.5908,127.9444 1497.7989,126.9533 Q1497.007,125.9622 1497.007,124.0896 Q1497.007,122.2119 1497.7989,121.2208 Q1498.5908,120.2297 1500.0949,120.2297 Q1500.5183,120.2297 1500.9067,120.3193 Q1501.2952,120.409 1501.6339,120.5883 L1501.6339,122.2219 Q1501.2554,121.8732 1500.8993,121.7114 Q1500.5432,121.5495 1500.1646,121.5495 Q1499.3578,121.5495 1498.9469,122.1895 Q1498.536,122.8295 1498.536,124.0896 Q1498.536,125.3446 1498.9469,125.9846 Q1499.3578,126.6246 1500.1646,126.6246 Q1500.5432,126.6246 1500.8993,126.4627 Q1501.2554,126.3009 1501.6339,125.9522 Z " fill="#000000"/><text fill="#000000" font-family="sans-serif" font-size="8.4" lengthAdjust="spacing" textLength="117.6" x="1512.15" y="127.3746">CreateJobOpeningController</text><line style="stroke:#181818;stroke-width:0.3;" x1="1449.6" x2="1672.8" y1="133.8" y2="133.8"/><line style="stroke:#181818;stroke-width:0.3;" x1="1449.6" x2="1672.8" y1="138.6" y2="138.6"/><ellipse cx="1455.6" cy="146.8465" fill="#84BE84" rx="1.8" ry="1.8" style="stroke:#038048;stroke-width:0.6;"/><text fill="#000000" font-family="sans-serif" font-size="8.4" lengthAdjust="spacing" textLength="55.2" x="1461" y="149.1211">repositories()</text><ellipse cx="1455.6" cy="156.7395" fill="#84BE84" rx="1.8" ry="1.8" style="stroke:#038048;stroke-width:0.6;"/><text fill="#000000" font-family="sans-serif" font-size="8.4" lengthAdjust="spacing" textLength="50.4" x="1461" y="159.0141">companies()</text><ellipse cx="1455.6" cy="166.6324" fill="#84BE84" rx="1.8" ry="1.8" style="stroke:#038048;stroke-width:0.6;"/><text fill="#000000" font-family="sans-serif" font-size="8.4" lengthAdjust="spacing" textLength="152.4" x="1461" y="168.907">findCompanyByCode(companyName)</text><ellipse cx="1455.6" cy="176.5254" fill="#84BE84" rx="1.8" ry="1.8" style="stroke:#038048;stroke-width:0.6;"/><text fill="#000000" font-family="sans-serif" font-size="8.4" lengthAdjust="spacing" textLength="174.6" x="1461" y="178.8">addJobOpening(jobReference, description,</text><text fill="#000000" font-family="sans-serif" font-size="8.4" lengthAdjust="spacing" textLength="206.4" x="1461" y="188.693">vacanciesNumber, address, modes, contractTypes,</text><text fill="#000000" font-family="sans-serif" font-size="8.4" lengthAdjust="spacing" textLength="64.8" x="1461" y="198.5859">titleOrFunction)</text></g><!--class JobOpening--><g id="elem_JobOpening"><rect codeLine="27" fill="#F1F1F1" height="216.7664" id="JobOpening" rx="1.5" ry="1.5" style="stroke:#181818;stroke-width:0.3;" width="224.4" x="1191" y="50.4"/><ellipse cx="1276.35" cy="60" fill="#ADD1B2" rx="6.6" ry="6.6" style="stroke:#181818;stroke-width:0.6;"/><path d="M1278.1339,63.3858 Q1277.7853,63.5651 1277.4018,63.6548 Q1277.0183,63.7444 1276.5949,63.7444 Q1275.0908,63.7444 1274.2989,62.7533 Q1273.507,61.7622 1273.507,59.8896 Q1273.507,58.0119 1274.2989,57.0208 Q1275.0908,56.0297 1276.5949,56.0297 Q1277.0183,56.0297 1277.4067,56.1193 Q1277.7952,56.209 1278.1339,56.3883 L1278.1339,58.0219 Q1277.7554,57.6732 1277.3993,57.5114 Q1277.0432,57.3495 1276.6646,57.3495 Q1275.8578,57.3495 1275.4469,57.9895 Q1275.036,58.6295 1275.036,59.8896 Q1275.036,61.1446 1275.4469,61.7846 Q1275.8578,62.4246 1276.6646,62.4246 Q1277.0432,62.4246 1277.3993,62.2627 Q1277.7554,62.1009 1278.1339,61.7522 Z " fill="#000000"/><text fill="#000000" font-family="sans-serif" font-size="8.4" lengthAdjust="spacing" textLength="48.6" x="1288.65" y="63.1746">JobOpening</text><line style="stroke:#181818;stroke-width:0.3;" x1="1191.6" x2="1414.8" y1="69.6" y2="69.6"/><rect fill="none" height="3.6" style="stroke:#C82930;stroke-width:0.6;" width="3.6" x="1195.8" y="76.0465"/><text fill="#000000" font-family="sans-serif" font-size="8.4" lengthAdjust="spacing" textLength="95.4" x="1203" y="80.1211">Description description</text><rect fill="none" height="3.6" style="stroke:#C82930;stroke-width:0.6;" width="3.6" x="1195.8" y="85.9395"/><text fill="#000000" font-family="sans-serif" font-size="8.4" lengthAdjust="spacing" textLength="147.6" x="1203" y="90.0141">VacanciesNumber vacanciesNumber</text><rect fill="none" height="3.6" style="stroke:#C82930;stroke-width:0.6;" width="3.6" x="1195.8" y="95.8324"/><text fill="#000000" font-family="sans-serif" font-size="8.4" lengthAdjust="spacing" textLength="68.4" x="1203" y="99.907">Address address</text><rect fill="none" height="3.6" style="stroke:#C82930;stroke-width:0.6;" width="3.6" x="1195.8" y="105.7254"/><text fill="#000000" font-family="sans-serif" font-size="8.4" lengthAdjust="spacing" textLength="48.6" x="1203" y="109.8">Mode mode</text><rect fill="none" height="3.6" style="stroke:#C82930;stroke-width:0.6;" width="3.6" x="1195.8" y="115.6184"/><text fill="#000000" font-family="sans-serif" font-size="8.4" lengthAdjust="spacing" textLength="111" x="1203" y="119.693">ContractType contractType</text><rect fill="none" height="3.6" style="stroke:#C82930;stroke-width:0.6;" width="3.6" x="1195.8" y="125.5113"/><text fill="#000000" font-family="sans-serif" font-size="8.4" lengthAdjust="spacing" textLength="128.4" x="1203" y="129.5859">TitleOrFunction titleOrFunction</text><rect fill="none" height="3.6" style="stroke:#C82930;stroke-width:0.6;" width="3.6" x="1195.8" y="135.4043"/><text fill="#000000" font-family="sans-serif" font-size="8.4" lengthAdjust="spacing" textLength="110.4" x="1203" y="139.4789">JobReference jobReference</text><line style="stroke:#181818;stroke-width:0.3;" x1="1191.6" x2="1414.8" y1="143.6508" y2="143.6508"/><ellipse cx="1197.6" cy="151.8973" fill="#84BE84" rx="1.8" ry="1.8" style="stroke:#038048;stroke-width:0.6;"/><text fill="#000000" font-family="sans-serif" font-size="8.4" lengthAdjust="spacing" textLength="159" x="1203" y="154.1719">JobOpening(jobReference, description,</text><text fill="#000000" font-family="sans-serif" font-size="8.4" lengthAdjust="spacing" textLength="206.4" x="1203" y="164.0648">vacanciesNumber, address, modes, contractTypes,</text><text fill="#000000" font-family="sans-serif" font-size="8.4" lengthAdjust="spacing" textLength="64.8" x="1203" y="173.9578">titleOrFunction)</text><ellipse cx="1197.6" cy="181.5762" fill="#84BE84" rx="1.8" ry="1.8" style="stroke:#038048;stroke-width:0.6;"/><text fill="#000000" font-family="sans-serif" font-size="8.4" lengthAdjust="spacing" textLength="36.6" x="1203" y="183.8508">identity()</text><ellipse cx="1197.6" cy="191.4691" fill="#84BE84" rx="1.8" ry="1.8" style="stroke:#038048;stroke-width:0.6;"/><text fill="#000000" font-family="sans-serif" font-size="8.4" lengthAdjust="spacing" textLength="63" x="1203" y="193.7438">sameAs(object)</text><ellipse cx="1197.6" cy="201.3621" fill="#84BE84" rx="1.8" ry="1.8" style="stroke:#038048;stroke-width:0.6;"/><text fill="#000000" font-family="sans-serif" font-size="8.4" lengthAdjust="spacing" textLength="60" x="1203" y="203.6367">jobReference()</text><ellipse cx="1197.6" cy="211.2551" fill="#84BE84" rx="1.8" ry="1.8" style="stroke:#038048;stroke-width:0.6;"/><text fill="#000000" font-family="sans-serif" font-size="8.4" lengthAdjust="spacing" textLength="52.2" x="1203" y="213.5297">description()</text><ellipse cx="1197.6" cy="221.148" fill="#84BE84" rx="1.8" ry="1.8" style="stroke:#038048;stroke-width:0.6;"/><text fill="#000000" font-family="sans-serif" font-size="8.4" lengthAdjust="spacing" textLength="78" x="1203" y="223.4227">vacanciesNumber()</text><ellipse cx="1197.6" cy="231.041" fill="#84BE84" rx="1.8" ry="1.8" style="stroke:#038048;stroke-width:0.6;"/><text fill="#000000" font-family="sans-serif" font-size="8.4" lengthAdjust="spacing" textLength="38.4" x="1203" y="233.3156">address()</text><ellipse cx="1197.6" cy="240.934" fill="#84BE84" rx="1.8" ry="1.8" style="stroke:#038048;stroke-width:0.6;"/><text fill="#000000" font-family="sans-serif" font-size="8.4" lengthAdjust="spacing" textLength="29.4" x="1203" y="243.2086">mode()</text><ellipse cx="1197.6" cy="250.827" fill="#84BE84" rx="1.8" ry="1.8" style="stroke:#038048;stroke-width:0.6;"/><text fill="#000000" font-family="sans-serif" font-size="8.4" lengthAdjust="spacing" textLength="59.4" x="1203" y="253.1016">contractType()</text><ellipse cx="1197.6" cy="260.7199" fill="#84BE84" rx="1.8" ry="1.8" style="stroke:#038048;stroke-width:0.6;"/><text fill="#000000" font-family="sans-serif" font-size="8.4" lengthAdjust="spacing" textLength="67.8" x="1203" y="262.9945">titleOrFunction()</text></g><!--class JobOpeningBuilder--><g id="elem_JobOpeningBuilder"><rect codeLine="50" fill="#F1F1F1" height="48.5859" id="JobOpeningBuilder" rx="1.5" ry="1.5" style="stroke:#181818;stroke-width:0.3;" width="421.8" x="747.9" y="134.4"/><ellipse cx="917.55" cy="144" fill="#ADD1B2" rx="6.6" ry="6.6" style="stroke:#181818;stroke-width:0.6;"/><path d="M919.3339,147.3858 Q918.9853,147.5651 918.6018,147.6548 Q918.2183,147.7444 917.7949,147.7444 Q916.2908,147.7444 915.4989,146.7533 Q914.707,145.7622 914.707,143.8896 Q914.707,142.0119 915.4989,141.0208 Q916.2908,140.0297 917.7949,140.0297 Q918.2183,140.0297 918.6067,140.1193 Q918.9952,140.209 919.3339,140.3883 L919.3339,142.0219 Q918.9554,141.6732 918.5993,141.5114 Q918.2432,141.3495 917.8646,141.3495 Q917.0578,141.3495 916.6469,141.9895 Q916.236,142.6295 916.236,143.8896 Q916.236,145.1446 916.6469,145.7846 Q917.0578,146.4246 917.8646,146.4246 Q918.2432,146.4246 918.5993,146.2627 Q918.9554,146.1009 919.3339,145.7522 Z " fill="#000000"/><text fill="#000000" font-family="sans-serif" font-size="8.4" lengthAdjust="spacing" textLength="77.4" x="929.85" y="147.1746">JobOpeningBuilder</text><line style="stroke:#181818;stroke-width:0.3;" x1="748.5" x2="1169.1" y1="153.6" y2="153.6"/><line style="stroke:#181818;stroke-width:0.3;" x1="748.5" x2="1169.1" y1="158.4" y2="158.4"/><ellipse cx="754.5" cy="166.6465" fill="#84BE84" rx="1.8" ry="1.8" style="stroke:#038048;stroke-width:0.6;"/><text fill="#000000" font-family="sans-serif" font-size="8.4" lengthAdjust="spacing" textLength="406.2" x="759.9" y="168.9211">withAll(jobReference, description, vacanciesNumber, address, mode, contractType, titleOrFunction)</text><ellipse cx="754.5" cy="176.5395" fill="#84BE84" rx="1.8" ry="1.8" style="stroke:#038048;stroke-width:0.6;"/><text fill="#000000" font-family="sans-serif" font-size="8.4" lengthAdjust="spacing" textLength="27" x="759.9" y="178.8141">build()</text></g><!--class JobOpeningRepository--><g id="elem_JobOpeningRepository"><rect codeLine="57" fill="#F1F1F1" height="38.693" id="JobOpeningRepository" rx="1.5" ry="1.5" style="stroke:#181818;stroke-width:0.3;" width="111.6" x="602.4" y="139.5"/><ellipse cx="611.4" cy="149.1" fill="#B4A7E5" rx="6.6" ry="6.6" style="stroke:#181818;stroke-width:0.6;"/><path d="M608.9566,146.5591 L608.9566,145.2642 L613.3843,145.2642 L613.3843,146.5591 L611.9051,146.5591 L611.9051,151.4051 L613.3843,151.4051 L613.3843,152.7 L608.9566,152.7 L608.9566,151.4051 L610.4358,151.4051 L610.4358,146.5591 Z " fill="#000000"/><text fill="#000000" font-family="sans-serif" font-size="8.4" font-style="italic" lengthAdjust="spacing" textLength="92.4" x="619.8" y="152.2746">JobOpeningRepository</text><line style="stroke:#181818;stroke-width:0.3;" x1="603" x2="713.4" y1="158.7" y2="158.7"/><line style="stroke:#181818;stroke-width:0.3;" x1="603" x2="713.4" y1="163.5" y2="163.5"/><ellipse cx="609" cy="171.7465" fill="#84BE84" rx="1.8" ry="1.8" style="stroke:#038048;stroke-width:0.6;"/><text fill="#000000" font-family="sans-serif" font-size="8.4" lengthAdjust="spacing" textLength="68.4" x="614.4" y="174.0211">allJobOpenings()</text></g><!--class JobOpeningService--><g id="elem_JobOpeningService"><rect codeLine="63" fill="#F1F1F1" height="58.4789" id="JobOpeningService" rx="1.5" ry="1.5" style="stroke:#181818;stroke-width:0.3;" width="283.2" x="285.6" y="129.6"/><ellipse cx="385.95" cy="139.2" fill="#ADD1B2" rx="6.6" ry="6.6" style="stroke:#181818;stroke-width:0.6;"/><path d="M387.7339,142.5858 Q387.3853,142.7651 387.0018,142.8548 Q386.6183,142.9444 386.1949,142.9444 Q384.6908,142.9444 383.8989,141.9533 Q383.107,140.9622 383.107,139.0896 Q383.107,137.2119 383.8989,136.2208 Q384.6908,135.2297 386.1949,135.2297 Q386.6183,135.2297 387.0067,135.3193 Q387.3952,135.409 387.7339,135.5883 L387.7339,137.2219 Q387.3554,136.8732 386.9993,136.7114 Q386.6432,136.5495 386.2646,136.5495 Q385.4578,136.5495 385.0469,137.1895 Q384.636,137.8295 384.636,139.0896 Q384.636,140.3446 385.0469,140.9846 Q385.4578,141.6246 386.2646,141.6246 Q386.6432,141.6246 386.9993,141.4627 Q387.3554,141.3009 387.7339,140.9522 Z " fill="#000000"/><text fill="#000000" font-family="sans-serif" font-size="8.4" lengthAdjust="spacing" textLength="77.4" x="398.25" y="142.3746">JobOpeningService</text><line style="stroke:#181818;stroke-width:0.3;" x1="286.2" x2="568.2" y1="148.8" y2="148.8"/><line style="stroke:#181818;stroke-width:0.3;" x1="286.2" x2="568.2" y1="153.6" y2="153.6"/><ellipse cx="292.2" cy="161.8465" fill="#84BE84" rx="1.8" ry="1.8" style="stroke:#038048;stroke-width:0.6;"/><text fill="#000000" font-family="sans-serif" font-size="8.4" lengthAdjust="spacing" textLength="267.6" x="297.6" y="164.1211">registerJobOpening(jobReference, description, vacanciesNumber,</text><text fill="#000000" font-family="sans-serif" font-size="8.4" lengthAdjust="spacing" textLength="190.8" x="297.6" y="174.0141">address, mode, contractType, titleOrFunction);</text><ellipse cx="292.2" cy="181.6324" fill="#84BE84" rx="1.8" ry="1.8" style="stroke:#038048;stroke-width:0.6;"/><text fill="#000000" font-family="sans-serif" font-size="8.4" lengthAdjust="spacing" textLength="68.4" x="297.6" y="183.907">allJobOpenings()</text></g><!--link CreateJobOpeningUI to CreateJobOpeningController--><g id="link_CreateJobOpeningUI_CreateJobOpeningController"><path codeLine="73" d="M125.4,207.9 C125.4,242.034 125.4,281.4 125.4,281.4 C125.4,281.4 1598.598,281.4 1598.598,281.4 C1598.598,281.4 1598.598,241.746 1598.598,206.598 " fill="none" id="CreateJobOpeningUI-to-CreateJobOpeningController" style="stroke:#181818;stroke-width:0.6;"/><polygon fill="#181818" points="1598.598,202.998,1596.198,208.398,1598.598,205.998,1600.998,208.398,1598.598,202.998" style="stroke:#181818;stroke-width:0.6;"/></g><!--link CreateJobOpeningController to JobOpeningService--><g id="link_CreateJobOpeningController_JobOpeningService"><path codeLine="75" d="M1523.802,203.022 C1523.802,235.596 1523.802,274.2 1523.802,274.2 C1523.802,274.2 427.2,274.2 427.2,274.2 C427.2,274.2 427.2,225.66 427.2,191.448 " fill="none" id="CreateJobOpeningController-to-JobOpeningService" style="stroke:#181818;stroke-width:0.6;"/><polygon fill="#181818" points="427.2,187.848,424.8,193.248,427.2,190.848,429.6,193.248,427.2,187.848" style="stroke:#181818;stroke-width:0.6;"/></g><!--link JobOpeningService to JobOpeningRepository--><g id="link_JobOpeningService_JobOpeningRepository"><path codeLine="77" d="M569.052,159 C580.62,159 588.21,159 598.53,159 " fill="none" id="JobOpeningService-to-JobOpeningRepository" style="stroke:#181818;stroke-width:0.6;"/><polygon fill="#181818" points="602.13,159,596.73,156.6,599.13,159,596.73,161.4,602.13,159" style="stroke:#181818;stroke-width:0.6;"/></g><!--link JobOpeningService to JobOpeningBuilder--><g id="link_JobOpeningService_JobOpeningBuilder"><path codeLine="79" d="M568.962,180.6 C623.784,180.6 684.09,180.6 744.102,180.6 " fill="none" id="JobOpeningService-to-JobOpeningBuilder" style="stroke:#181818;stroke-width:0.6;"/><polygon fill="#181818" points="747.702,180.6,742.302,178.2,744.702,180.6,742.302,183,747.702,180.6" style="stroke:#181818;stroke-width:0.6;"/></g><!--link JobOpeningBuilder to JobOpening--><g id="link_JobOpeningBuilder_JobOpening"><path codeLine="81" d="M1169.802,159 C1176.912,159 1180.332,159 1187.202,159 " fill="none" id="JobOpeningBuilder-to-JobOpening" style="stroke:#181818;stroke-width:0.6;"/><polygon fill="#181818" points="1190.802,159,1185.402,156.6,1187.802,159,1185.402,161.4,1190.802,159" style="stroke:#181818;stroke-width:0.6;"/></g><!--SRC=[nPHHQzim4CVVzIcElCoZxYSO3DACmGfjeUtsj1TPliINofAHb1PJzjqdMNOiso7jOD24G7Htadx_lqwoJwGQRdWDaXIwja7GnbMQVPAuTU0q6DfL3aeoA1nfnLZ3nHFV8QmEj7fbGd9hOMEGExpMnLs3YjJkvmzuPU0_5r3gXqg_P9_xeVM36rsYdKGsMZd3XNlq06E6b-MuPBRNnJrkqQ0Ic8DVGHXg0bBUbJzpmPKWjBU7ka2JXza6hSsX3jlb8D8zSlYj73c9T-RxGNNA-bqhv6NmmbFyyT-ZslsHPEMrZN7UD9843ok4n6a_EdrQIZH7NmmssfBJXXB5GjSDLsbaIwhSTD7sgjru9LciQMzvZHzbL31cTA3KDQT4_8WInLx2jv4XvOd9NrEUELyiMaV6WJK6Gnzrq76ODj54H4m_JbN0J5KikawyWzH8nZgdtstp_sd72w0IGwRD-h7rnxwscIxs_ZxsiPHag4juXj0CQGZtOCCmu0t_KyOXDiFihWbRdFpLWMIPTFiBkMejvHdJtd1iQbWEfoyl567Vo9JStVIkXJubvT1ikJ_YaVX-g6cFq5pACM-pUTzRDCyauefp_Gynbzps7Lc_wRlwPs55jyW_sV7bh8JmE_5aNtuzyt0jPoIFcf-vqCxOqev9tUZucwLzEwLrGuTDwXZx2m00]--></g></svg>