<?xml version="1.0" encoding="us-ascii" standalone="no"?><svg xmlns="http://www.w3.org/2000/svg" xmlns:xlink="http://www.w3.org/1999/xlink" contentStyleType="text/css" height="994px" preserveAspectRatio="none" style="width:2210px;height:994px;background:#FFFFFF;" version="1.1" viewBox="0 0 2210 994" width="2210px" zoomAndPan="magnify"><defs/><g><rect fill="#FFFFFF" height="787.3164" style="stroke:#181818;stroke-width:1.0;" width="10" x="68.5" y="93.9766"/><rect fill="#FFFFFF" height="29.3105" style="stroke:#181818;stroke-width:1.0;" width="10" x="519.5" y="115.2871"/><rect fill="#FFFFFF" height="263.7949" style="stroke:#181818;stroke-width:1.0;" width="10" x="519.5" y="189.2188"/><rect fill="#FFFFFF" height="398.9688" style="stroke:#181818;stroke-width:1.0;" width="10" x="519.5" y="482.3242"/><rect fill="#FFFFFF" height="205.1738" style="stroke:#181818;stroke-width:1.0;" width="10" x="690" y="218.5293"/><rect fill="#FFFFFF" height="309.7266" style="stroke:#181818;stroke-width:1.0;" width="10" x="888.5" y="542.2559"/><rect fill="#FFFFFF" height="29.3105" style="stroke:#181818;stroke-width:1.0;" width="10" x="1073.5" y="247.8398"/><rect fill="#FFFFFF" height="87.9316" style="stroke:#181818;stroke-width:1.0;" width="10" x="1225.5" y="306.4609"/><rect fill="#FFFFFF" height="29.3105" style="stroke:#181818;stroke-width:1.0;" width="10" x="1377.5" y="335.7715"/><rect fill="#FFFFFF" height="235.7949" style="stroke:#181818;stroke-width:1.0;" width="10" x="1531" y="586.877"/><rect fill="#FFFFFF" height="118.5527" style="stroke:#181818;stroke-width:1.0;" width="10" x="1684" y="616.1875"/><rect fill="#FFFFFF" height="29.3105" style="stroke:#181818;stroke-width:1.0;" width="10" x="1980" y="676.1191"/><rect fill="#FFFFFF" height="29.3105" style="stroke:#181818;stroke-width:1.0;" width="10" x="2124.5" y="764.0508"/><line style="stroke:#181818;stroke-width:0.5;stroke-dasharray:5.0,5.0;" x1="73" x2="73" y1="83.9766" y2="899.293"/><line style="stroke:#181818;stroke-width:0.5;stroke-dasharray:5.0,5.0;" x1="524" x2="524" y1="83.9766" y2="899.293"/><line style="stroke:#181818;stroke-width:0.5;stroke-dasharray:5.0,5.0;" x1="695" x2="695" y1="83.9766" y2="899.293"/><line style="stroke:#181818;stroke-width:0.5;stroke-dasharray:5.0,5.0;" x1="893" x2="893" y1="83.9766" y2="899.293"/><line style="stroke:#181818;stroke-width:0.5;stroke-dasharray:5.0,5.0;" x1="1078" x2="1078" y1="83.9766" y2="899.293"/><line style="stroke:#181818;stroke-width:0.5;stroke-dasharray:5.0,5.0;" x1="1230" x2="1230" y1="83.9766" y2="899.293"/><line style="stroke:#181818;stroke-width:0.5;stroke-dasharray:5.0,5.0;" x1="1382.5" x2="1382.5" y1="83.9766" y2="899.293"/><line style="stroke:#181818;stroke-width:0.5;stroke-dasharray:5.0,5.0;" x1="1535.5" x2="1535.5" y1="83.9766" y2="899.293"/><line style="stroke:#181818;stroke-width:0.5;stroke-dasharray:5.0,5.0;" x1="1688.5" x2="1688.5" y1="83.9766" y2="899.293"/><line style="stroke:#181818;stroke-width:0.5;stroke-dasharray:5.0,5.0;" x1="1984.5" x2="1984.5" y1="83.9766" y2="899.293"/><line style="stroke:#181818;stroke-width:0.5;stroke-dasharray:5.0,5.0;" x1="2129.5" x2="2129.5" y1="83.9766" y2="899.293"/><text fill="#000000" font-family="sans-serif" font-size="14" lengthAdjust="spacing" textLength="131" x="5" y="81.0234">Customer Manager</text><ellipse cx="73.5" cy="15.9883" fill="#E2E2F0" rx="8" ry="8" style="stroke:#181818;stroke-width:0.5;"/><path d="M73.5,23.9883 L73.5,50.9883 M60.5,31.9883 L86.5,31.9883 M73.5,50.9883 L60.5,65.9883 M73.5,50.9883 L86.5,65.9883 " fill="none" style="stroke:#181818;stroke-width:0.5;"/><text fill="#000000" font-family="sans-serif" font-size="14" lengthAdjust="spacing" textLength="131" x="5" y="911.8281">Customer Manager</text><ellipse cx="73.5" cy="923.2813" fill="#E2E2F0" rx="8" ry="8" style="stroke:#181818;stroke-width:0.5;"/><path d="M73.5,931.2813 L73.5,958.2813 M60.5,939.2813 L86.5,939.2813 M73.5,958.2813 L60.5,973.2813 M73.5,958.2813 L86.5,973.2813 " fill="none" style="stroke:#181818;stroke-width:0.5;"/><rect fill="#E2E2F0" height="46.9766" rx="2.5" ry="2.5" style="stroke:#181818;stroke-width:0.5;" width="137" x="456" y="36"/><text fill="#000000" font-family="sans-serif" font-size="14" font-style="italic" lengthAdjust="spacing" textLength="101" x="474" y="56.5352">&#171;presentation&#187;</text><text fill="#000000" font-family="sans-serif" font-size="14" lengthAdjust="spacing" textLength="123" x="463" y="73.0234">AddJobOpeningUI</text><rect fill="#E2E2F0" height="46.9766" rx="2.5" ry="2.5" style="stroke:#181818;stroke-width:0.5;" width="137" x="456" y="898.293"/><text fill="#000000" font-family="sans-serif" font-size="14" font-style="italic" lengthAdjust="spacing" textLength="101" x="474" y="918.8281">&#171;presentation&#187;</text><text fill="#000000" font-family="sans-serif" font-size="14" lengthAdjust="spacing" textLength="123" x="463" y="935.3164">AddJobOpeningUI</text><rect fill="#E2E2F0" height="46.9766" rx="2.5" ry="2.5" style="stroke:#181818;stroke-width:0.5;" width="184" x="603" y="36"/><text fill="#000000" font-family="sans-serif" font-size="14" font-style="italic" lengthAdjust="spacing" textLength="90" x="650" y="56.5352">&#171;application&#187;</text><text fill="#000000" font-family="sans-serif" font-size="14" lengthAdjust="spacing" textLength="170" x="610" y="73.0234">ListCompaniesController</text><rect fill="#E2E2F0" height="46.9766" rx="2.5" ry="2.5" style="stroke:#181818;stroke-width:0.5;" width="184" x="603" y="898.293"/><text fill="#000000" font-family="sans-serif" font-size="14" font-style="italic" lengthAdjust="spacing" textLength="90" x="650" y="918.8281">&#171;application&#187;</text><text fill="#000000" font-family="sans-serif" font-size="14" lengthAdjust="spacing" textLength="170" x="610" y="935.3164">ListCompaniesController</text><rect fill="#E2E2F0" height="46.9766" rx="2.5" ry="2.5" style="stroke:#181818;stroke-width:0.5;" width="193" x="797" y="36"/><text fill="#000000" font-family="sans-serif" font-size="14" font-style="italic" lengthAdjust="spacing" textLength="90" x="848.5" y="56.5352">&#171;application&#187;</text><text fill="#000000" font-family="sans-serif" font-size="14" lengthAdjust="spacing" textLength="179" x="804" y="73.0234">AddJobOpeningController</text><rect fill="#E2E2F0" height="46.9766" rx="2.5" ry="2.5" style="stroke:#181818;stroke-width:0.5;" width="193" x="797" y="898.293"/><text fill="#000000" font-family="sans-serif" font-size="14" font-style="italic" lengthAdjust="spacing" textLength="90" x="848.5" y="918.8281">&#171;application&#187;</text><text fill="#000000" font-family="sans-serif" font-size="14" lengthAdjust="spacing" textLength="179" x="804" y="935.3164">AddJobOpeningController</text><rect fill="#E2E2F0" height="46.9766" rx="2.5" ry="2.5" style="stroke:#181818;stroke-width:0.5;" width="157" x="1000" y="36"/><text fill="#000000" font-family="sans-serif" font-size="14" font-style="italic" lengthAdjust="spacing" textLength="61" x="1048" y="56.5352">&#171;service&#187;</text><text fill="#000000" font-family="sans-serif" font-size="14" lengthAdjust="spacing" textLength="143" x="1007" y="73.0234">AuthorizationService</text><rect fill="#E2E2F0" height="46.9766" rx="2.5" ry="2.5" style="stroke:#181818;stroke-width:0.5;" width="157" x="1000" y="898.293"/><text fill="#000000" font-family="sans-serif" font-size="14" font-style="italic" lengthAdjust="spacing" textLength="61" x="1048" y="918.8281">&#171;service&#187;</text><text fill="#000000" font-family="sans-serif" font-size="14" lengthAdjust="spacing" textLength="143" x="1007" y="935.3164">AuthorizationService</text><rect fill="#E2E2F0" height="46.9766" rx="2.5" ry="2.5" style="stroke:#181818;stroke-width:0.5;" width="127" x="1167" y="36"/><text fill="#000000" font-family="sans-serif" font-size="14" font-style="italic" lengthAdjust="spacing" textLength="61" x="1200" y="56.5352">&#171;service&#187;</text><text fill="#000000" font-family="sans-serif" font-size="14" lengthAdjust="spacing" textLength="113" x="1174" y="73.0234">CompanyService</text><rect fill="#E2E2F0" height="46.9766" rx="2.5" ry="2.5" style="stroke:#181818;stroke-width:0.5;" width="127" x="1167" y="898.293"/><text fill="#000000" font-family="sans-serif" font-size="14" font-style="italic" lengthAdjust="spacing" textLength="61" x="1200" y="918.8281">&#171;service&#187;</text><text fill="#000000" font-family="sans-serif" font-size="14" lengthAdjust="spacing" textLength="113" x="1174" y="935.3164">CompanyService</text><text fill="#000000" font-family="sans-serif" font-size="14" font-style="italic" lengthAdjust="spacing" textLength="90" x="1334.5" y="64.5352">&#171;application&#187;</text><text fill="#000000" font-family="sans-serif" font-size="14" lengthAdjust="spacing" textLength="138" x="1310.5" y="81.0234">CompanyRepository</text><path d="M1364.5,15 C1364.5,5 1382.5,5 1382.5,5 C1382.5,5 1400.5,5 1400.5,15 L1400.5,41 C1400.5,51 1382.5,51 1382.5,51 C1382.5,51 1364.5,51 1364.5,41 L1364.5,15 " fill="#E2E2F0" style="stroke:#181818;stroke-width:1.5;"/><path d="M1364.5,15 C1364.5,25 1382.5,25 1382.5,25 C1382.5,25 1400.5,25 1400.5,15 " fill="none" style="stroke:#181818;stroke-width:1.5;"/><text fill="#000000" font-family="sans-serif" font-size="14" font-style="italic" lengthAdjust="spacing" textLength="90" x="1334.5" y="911.8281">&#171;application&#187;</text><text fill="#000000" font-family="sans-serif" font-size="14" lengthAdjust="spacing" textLength="138" x="1310.5" y="928.3164">CompanyRepository</text><path d="M1364.5,941.2695 C1364.5,931.2695 1382.5,931.2695 1382.5,931.2695 C1382.5,931.2695 1400.5,931.2695 1400.5,941.2695 L1400.5,967.2695 C1400.5,977.2695 1382.5,977.2695 1382.5,977.2695 C1382.5,977.2695 1364.5,977.2695 1364.5,967.2695 L1364.5,941.2695 " fill="#E2E2F0" style="stroke:#181818;stroke-width:1.5;"/><path d="M1364.5,941.2695 C1364.5,951.2695 1382.5,951.2695 1382.5,951.2695 C1382.5,951.2695 1400.5,951.2695 1400.5,941.2695 " fill="none" style="stroke:#181818;stroke-width:1.5;"/><rect fill="#E2E2F0" height="46.9766" rx="2.5" ry="2.5" style="stroke:#181818;stroke-width:0.5;" width="143" x="1464.5" y="36"/><text fill="#000000" font-family="sans-serif" font-size="14" font-style="italic" lengthAdjust="spacing" textLength="61" x="1505.5" y="56.5352">&#171;service&#187;</text><text fill="#000000" font-family="sans-serif" font-size="14" lengthAdjust="spacing" textLength="129" x="1471.5" y="73.0234">JobOpeningService</text><rect fill="#E2E2F0" height="46.9766" rx="2.5" ry="2.5" style="stroke:#181818;stroke-width:0.5;" width="143" x="1464.5" y="898.293"/><text fill="#000000" font-family="sans-serif" font-size="14" font-style="italic" lengthAdjust="spacing" textLength="61" x="1505.5" y="918.8281">&#171;service&#187;</text><text fill="#000000" font-family="sans-serif" font-size="14" lengthAdjust="spacing" textLength="129" x="1471.5" y="935.3164">JobOpeningService</text><rect fill="#E2E2F0" height="46.9766" rx="2.5" ry="2.5" style="stroke:#181818;stroke-width:0.5;" width="143" x="1617.5" y="36"/><text fill="#000000" font-family="sans-serif" font-size="14" font-style="italic" lengthAdjust="spacing" textLength="63" x="1657.5" y="56.5352">&#171;builder&#187;</text><text fill="#000000" font-family="sans-serif" font-size="14" lengthAdjust="spacing" textLength="129" x="1624.5" y="73.0234">JobOpeningBuilder</text><rect fill="#E2E2F0" height="46.9766" rx="2.5" ry="2.5" style="stroke:#181818;stroke-width:0.5;" width="143" x="1617.5" y="898.293"/><text fill="#000000" font-family="sans-serif" font-size="14" font-style="italic" lengthAdjust="spacing" textLength="63" x="1657.5" y="918.8281">&#171;builder&#187;</text><text fill="#000000" font-family="sans-serif" font-size="14" lengthAdjust="spacing" textLength="129" x="1624.5" y="935.3164">JobOpeningBuilder</text><rect fill="#E2E2F0" height="46.9766" rx="2.5" ry="2.5" style="stroke:#181818;stroke-width:0.5;" width="109" x="1930.5" y="36"/><text fill="#000000" font-family="sans-serif" font-size="14" font-style="italic" lengthAdjust="spacing" textLength="95" x="1937.5" y="56.5352">&#171;JobOpening&#187;</text><text fill="#000000" font-family="sans-serif" font-size="14" lengthAdjust="spacing" textLength="81" x="1944.5" y="73.0234">JobOpening</text><rect fill="#E2E2F0" height="46.9766" rx="2.5" ry="2.5" style="stroke:#181818;stroke-width:0.5;" width="109" x="1930.5" y="898.293"/><text fill="#000000" font-family="sans-serif" font-size="14" font-style="italic" lengthAdjust="spacing" textLength="95" x="1937.5" y="918.8281">&#171;JobOpening&#187;</text><text fill="#000000" font-family="sans-serif" font-size="14" lengthAdjust="spacing" textLength="81" x="1944.5" y="935.3164">JobOpening</text><text fill="#000000" font-family="sans-serif" font-size="14" font-style="italic" lengthAdjust="spacing" textLength="84" x="2084.5" y="64.5352">&#171;repository&#187;</text><text fill="#000000" font-family="sans-serif" font-size="14" lengthAdjust="spacing" textLength="154" x="2049.5" y="81.0234">JobOpeningRepository</text><path d="M2111.5,15 C2111.5,5 2129.5,5 2129.5,5 C2129.5,5 2147.5,5 2147.5,15 L2147.5,41 C2147.5,51 2129.5,51 2129.5,51 C2129.5,51 2111.5,51 2111.5,41 L2111.5,15 " fill="#E2E2F0" style="stroke:#181818;stroke-width:1.5;"/><path d="M2111.5,15 C2111.5,25 2129.5,25 2129.5,25 C2129.5,25 2147.5,25 2147.5,15 " fill="none" style="stroke:#181818;stroke-width:1.5;"/><text fill="#000000" font-family="sans-serif" font-size="14" font-style="italic" lengthAdjust="spacing" textLength="84" x="2084.5" y="911.8281">&#171;repository&#187;</text><text fill="#000000" font-family="sans-serif" font-size="14" lengthAdjust="spacing" textLength="154" x="2049.5" y="928.3164">JobOpeningRepository</text><path d="M2111.5,941.2695 C2111.5,931.2695 2129.5,931.2695 2129.5,931.2695 C2129.5,931.2695 2147.5,931.2695 2147.5,941.2695 L2147.5,967.2695 C2147.5,977.2695 2129.5,977.2695 2129.5,977.2695 C2129.5,977.2695 2111.5,977.2695 2111.5,967.2695 L2111.5,941.2695 " fill="#E2E2F0" style="stroke:#181818;stroke-width:1.5;"/><path d="M2111.5,941.2695 C2111.5,951.2695 2129.5,951.2695 2129.5,951.2695 C2129.5,951.2695 2147.5,951.2695 2147.5,941.2695 " fill="none" style="stroke:#181818;stroke-width:1.5;"/><rect fill="#FFFFFF" height="787.3164" style="stroke:#181818;stroke-width:1.0;" width="10" x="68.5" y="93.9766"/><rect fill="#FFFFFF" height="29.3105" style="stroke:#181818;stroke-width:1.0;" width="10" x="519.5" y="115.2871"/><rect fill="#FFFFFF" height="263.7949" style="stroke:#181818;stroke-width:1.0;" width="10" x="519.5" y="189.2188"/><rect fill="#FFFFFF" height="398.9688" style="stroke:#181818;stroke-width:1.0;" width="10" x="519.5" y="482.3242"/><rect fill="#FFFFFF" height="205.1738" style="stroke:#181818;stroke-width:1.0;" width="10" x="690" y="218.5293"/><rect fill="#FFFFFF" height="309.7266" style="stroke:#181818;stroke-width:1.0;" width="10" x="888.5" y="542.2559"/><rect fill="#FFFFFF" height="29.3105" style="stroke:#181818;stroke-width:1.0;" width="10" x="1073.5" y="247.8398"/><rect fill="#FFFFFF" height="87.9316" style="stroke:#181818;stroke-width:1.0;" width="10" x="1225.5" y="306.4609"/><rect fill="#FFFFFF" height="29.3105" style="stroke:#181818;stroke-width:1.0;" width="10" x="1377.5" y="335.7715"/><rect fill="#FFFFFF" height="235.7949" style="stroke:#181818;stroke-width:1.0;" width="10" x="1531" y="586.877"/><rect fill="#FFFFFF" height="118.5527" style="stroke:#181818;stroke-width:1.0;" width="10" x="1684" y="616.1875"/><rect fill="#FFFFFF" height="29.3105" style="stroke:#181818;stroke-width:1.0;" width="10" x="1980" y="676.1191"/><rect fill="#FFFFFF" height="29.3105" style="stroke:#181818;stroke-width:1.0;" width="10" x="2124.5" y="764.0508"/><polygon fill="#181818" points="507.5,111.2871,517.5,115.2871,507.5,119.2871,511.5,115.2871" style="stroke:#181818;stroke-width:1.0;"/><line style="stroke:#181818;stroke-width:1.0;" x1="78.5" x2="513.5" y1="115.2871" y2="115.2871"/><text fill="#000000" font-family="sans-serif" font-size="13" font-weight="bold" lengthAdjust="spacing" textLength="9" x="85.5" y="110.5449">1</text><text fill="#000000" font-family="sans-serif" font-size="13" lengthAdjust="spacing" textLength="129" x="98.5" y="110.5449">add new JobOpening</text><polygon fill="#181818" points="89.5,140.5977,79.5,144.5977,89.5,148.5977,85.5,144.5977" style="stroke:#181818;stroke-width:1.0;"/><line style="stroke:#181818;stroke-width:1.0;stroke-dasharray:2.0,2.0;" x1="83.5" x2="523.5" y1="144.5977" y2="144.5977"/><text fill="#000000" font-family="sans-serif" font-size="13" font-weight="bold" lengthAdjust="spacing" textLength="9" x="95.5" y="139.8555">2</text><text fill="#000000" font-family="sans-serif" font-size="13" lengthAdjust="spacing" textLength="240" x="108.5" y="139.8555">asks for the JobOpening's information</text><polygon fill="#181818" points="507.5,185.2188,517.5,189.2188,507.5,193.2188,511.5,189.2188" style="stroke:#181818;stroke-width:1.0;"/><line style="stroke:#181818;stroke-width:1.0;" x1="78.5" x2="513.5" y1="189.2188" y2="189.2188"/><text fill="#000000" font-family="sans-serif" font-size="13" font-weight="bold" lengthAdjust="spacing" textLength="9" x="85.5" y="176.8213">3</text><text fill="#000000" font-family="sans-serif" font-size="13" lengthAdjust="spacing" textLength="256" x="98.5" y="169.166">Description, VacanciesNumber, Address,</text><text fill="#000000" font-family="sans-serif" font-size="13" lengthAdjust="spacing" textLength="406" x="98.5" y="184.4766">Mode, ContractType, TitleOrFunction, JobReference, ProcessDate</text><polygon fill="#181818" points="678,214.5293,688,218.5293,678,222.5293,682,218.5293" style="stroke:#181818;stroke-width:1.0;"/><line style="stroke:#181818;stroke-width:1.0;" x1="529.5" x2="684" y1="218.5293" y2="218.5293"/><text fill="#000000" font-family="sans-serif" font-size="13" font-weight="bold" lengthAdjust="spacing" textLength="9" x="536.5" y="213.7871">4</text><text fill="#000000" font-family="sans-serif" font-size="13" lengthAdjust="spacing" textLength="93" x="549.5" y="213.7871">allCompanies()</text><polygon fill="#181818" points="1061.5,243.8398,1071.5,247.8398,1061.5,251.8398,1065.5,247.8398" style="stroke:#181818;stroke-width:1.0;"/><line style="stroke:#181818;stroke-width:1.0;" x1="700" x2="1067.5" y1="247.8398" y2="247.8398"/><text fill="#000000" font-family="sans-serif" font-size="13" font-weight="bold" lengthAdjust="spacing" textLength="9" x="707" y="243.0977">5</text><text fill="#000000" font-family="sans-serif" font-size="13" lengthAdjust="spacing" textLength="221" x="720" y="243.0977">ensureAuthenticatedUserHasAnyOf</text><polygon fill="#181818" points="711,273.1504,701,277.1504,711,281.1504,707,277.1504" style="stroke:#181818;stroke-width:1.0;"/><line style="stroke:#181818;stroke-width:1.0;stroke-dasharray:2.0,2.0;" x1="705" x2="1077.5" y1="277.1504" y2="277.1504"/><text fill="#000000" font-family="sans-serif" font-size="13" font-weight="bold" lengthAdjust="spacing" textLength="9" x="717" y="272.4082">6</text><text fill="#000000" font-family="sans-serif" font-size="13" lengthAdjust="spacing" textLength="25" x="730" y="272.4082">true</text><polygon fill="#181818" points="1213.5,302.4609,1223.5,306.4609,1213.5,310.4609,1217.5,306.4609" style="stroke:#181818;stroke-width:1.0;"/><line style="stroke:#181818;stroke-width:1.0;" x1="700" x2="1219.5" y1="306.4609" y2="306.4609"/><text fill="#000000" font-family="sans-serif" font-size="13" font-weight="bold" lengthAdjust="spacing" textLength="9" x="707" y="301.7188">7</text><text fill="#000000" font-family="sans-serif" font-size="13" lengthAdjust="spacing" textLength="93" x="720" y="301.7188">allCompanies()</text><polygon fill="#181818" points="1365.5,331.7715,1375.5,335.7715,1365.5,339.7715,1369.5,335.7715" style="stroke:#181818;stroke-width:1.0;"/><line style="stroke:#181818;stroke-width:1.0;" x1="1235.5" x2="1371.5" y1="335.7715" y2="335.7715"/><text fill="#000000" font-family="sans-serif" font-size="13" font-weight="bold" lengthAdjust="spacing" textLength="9" x="1242.5" y="331.0293">8</text><text fill="#000000" font-family="sans-serif" font-size="13" lengthAdjust="spacing" textLength="93" x="1255.5" y="331.0293">allCompanies()</text><polygon fill="#181818" points="1246.5,361.082,1236.5,365.082,1246.5,369.082,1242.5,365.082" style="stroke:#181818;stroke-width:1.0;"/><line style="stroke:#181818;stroke-width:1.0;stroke-dasharray:2.0,2.0;" x1="1240.5" x2="1381.5" y1="365.082" y2="365.082"/><text fill="#000000" font-family="sans-serif" font-size="13" font-weight="bold" lengthAdjust="spacing" textLength="9" x="1252.5" y="360.3398">9</text><text fill="#000000" font-family="sans-serif" font-size="13" lengthAdjust="spacing" textLength="105" x="1265.5" y="360.3398">listOfCompanies</text><polygon fill="#181818" points="711,390.3926,701,394.3926,711,398.3926,707,394.3926" style="stroke:#181818;stroke-width:1.0;"/><line style="stroke:#181818;stroke-width:1.0;stroke-dasharray:2.0,2.0;" x1="705" x2="1229.5" y1="394.3926" y2="394.3926"/><text fill="#000000" font-family="sans-serif" font-size="13" font-weight="bold" lengthAdjust="spacing" textLength="18" x="717" y="389.6504">10</text><text fill="#000000" font-family="sans-serif" font-size="13" lengthAdjust="spacing" textLength="105" x="739" y="389.6504">listOfCompanies</text><polygon fill="#181818" points="540.5,419.7031,530.5,423.7031,540.5,427.7031,536.5,423.7031" style="stroke:#181818;stroke-width:1.0;"/><line style="stroke:#181818;stroke-width:1.0;stroke-dasharray:2.0,2.0;" x1="534.5" x2="694" y1="423.7031" y2="423.7031"/><text fill="#000000" font-family="sans-serif" font-size="13" font-weight="bold" lengthAdjust="spacing" textLength="18" x="546.5" y="418.9609">11</text><text fill="#000000" font-family="sans-serif" font-size="13" lengthAdjust="spacing" textLength="105" x="568.5" y="418.9609">listOfCompanies</text><polygon fill="#181818" points="89.5,449.0137,79.5,453.0137,89.5,457.0137,85.5,453.0137" style="stroke:#181818;stroke-width:1.0;"/><line style="stroke:#181818;stroke-width:1.0;stroke-dasharray:2.0,2.0;" x1="83.5" x2="523.5" y1="453.0137" y2="453.0137"/><text fill="#000000" font-family="sans-serif" font-size="13" font-weight="bold" lengthAdjust="spacing" textLength="18" x="95.5" y="448.2715">12</text><text fill="#000000" font-family="sans-serif" font-size="13" lengthAdjust="spacing" textLength="395" x="117.5" y="448.2715">displays allCompanies listOfCompanies and asks to select one</text><polygon fill="#181818" points="507.5,478.3242,517.5,482.3242,507.5,486.3242,511.5,482.3242" style="stroke:#181818;stroke-width:1.0;"/><line style="stroke:#181818;stroke-width:1.0;" x1="78.5" x2="513.5" y1="482.3242" y2="482.3242"/><text fill="#000000" font-family="sans-serif" font-size="13" font-weight="bold" lengthAdjust="spacing" textLength="18" x="85.5" y="477.582">13</text><text fill="#000000" font-family="sans-serif" font-size="13" lengthAdjust="spacing" textLength="105" x="107.5" y="477.582">selects company</text><polygon fill="#181818" points="876.5,538.2559,886.5,542.2559,876.5,546.2559,880.5,542.2559" style="stroke:#181818;stroke-width:1.0;"/><line style="stroke:#181818;stroke-width:1.0;" x1="529.5" x2="882.5" y1="542.2559" y2="542.2559"/><text fill="#000000" font-family="sans-serif" font-size="13" font-weight="bold" lengthAdjust="spacing" textLength="18" x="536.5" y="522.2031">14</text><text fill="#000000" font-family="sans-serif" font-size="13" lengthAdjust="spacing" textLength="294" x="558.5" y="506.8926">addJobOpening(description, vacanciesNumber,</text><text fill="#000000" font-family="sans-serif" font-size="13" lengthAdjust="spacing" textLength="289" x="562.5" y="522.2031">address, mode, contractType, titleOrFunction,</text><text fill="#000000" font-family="sans-serif" font-size="13" lengthAdjust="spacing" textLength="171" x="562.5" y="537.5137">jobReference, processDate)</text><polygon fill="#181818" points="1519,582.877,1529,586.877,1519,590.877,1523,586.877" style="stroke:#181818;stroke-width:1.0;"/><line style="stroke:#181818;stroke-width:1.0;" x1="898.5" x2="1525" y1="586.877" y2="586.877"/><text fill="#000000" font-family="sans-serif" font-size="13" font-weight="bold" lengthAdjust="spacing" textLength="18" x="905.5" y="574.4795">15</text><text fill="#000000" font-family="sans-serif" font-size="13" lengthAdjust="spacing" textLength="408" x="927.5" y="566.8242">registerJobOpening(jobReference, description, vacanciesNumber,</text><text fill="#000000" font-family="sans-serif" font-size="13" lengthAdjust="spacing" textLength="289" x="927.5" y="582.1348">address, mode, contractType, titleOrFunction)</text><polygon fill="#181818" points="1672,612.1875,1682,616.1875,1672,620.1875,1676,616.1875" style="stroke:#181818;stroke-width:1.0;"/><line style="stroke:#181818;stroke-width:1.0;" x1="1541" x2="1678" y1="616.1875" y2="616.1875"/><text fill="#000000" font-family="sans-serif" font-size="13" font-weight="bold" lengthAdjust="spacing" textLength="18" x="1548" y="611.4453">16</text><text fill="#000000" font-family="sans-serif" font-size="13" lengthAdjust="spacing" textLength="40" x="1570" y="611.4453">build()</text><polygon fill="#181818" points="1968,672.1191,1978,676.1191,1968,680.1191,1972,676.1191" style="stroke:#181818;stroke-width:1.0;"/><line style="stroke:#181818;stroke-width:1.0;" x1="1694" x2="1974" y1="676.1191" y2="676.1191"/><text fill="#000000" font-family="sans-serif" font-size="13" font-weight="bold" lengthAdjust="spacing" textLength="18" x="1701" y="656.0664">17</text><text fill="#000000" font-family="sans-serif" font-size="13" lengthAdjust="spacing" textLength="241" x="1723" y="640.7559">JobOpening(jobReference, description,</text><text fill="#000000" font-family="sans-serif" font-size="13" lengthAdjust="spacing" textLength="215" x="1723" y="656.0664">vacanciesNumber, address, mode,</text><text fill="#000000" font-family="sans-serif" font-size="13" lengthAdjust="spacing" textLength="189" x="1723" y="671.377">contractType, titleOrFunction)</text><polygon fill="#181818" points="1705,701.4297,1695,705.4297,1705,709.4297,1701,705.4297" style="stroke:#181818;stroke-width:1.0;"/><line style="stroke:#181818;stroke-width:1.0;stroke-dasharray:2.0,2.0;" x1="1699" x2="1984" y1="705.4297" y2="705.4297"/><text fill="#000000" font-family="sans-serif" font-size="13" font-weight="bold" lengthAdjust="spacing" textLength="18" x="1711" y="700.6875">18</text><text fill="#000000" font-family="sans-serif" font-size="13" lengthAdjust="spacing" textLength="73" x="1733" y="700.6875">jobOpening</text><polygon fill="#181818" points="1552,730.7402,1542,734.7402,1552,738.7402,1548,734.7402" style="stroke:#181818;stroke-width:1.0;"/><line style="stroke:#181818;stroke-width:1.0;stroke-dasharray:2.0,2.0;" x1="1546" x2="1688" y1="734.7402" y2="734.7402"/><text fill="#000000" font-family="sans-serif" font-size="13" font-weight="bold" lengthAdjust="spacing" textLength="18" x="1558" y="729.998">19</text><text fill="#000000" font-family="sans-serif" font-size="13" lengthAdjust="spacing" textLength="73" x="1580" y="729.998">jobOpening</text><polygon fill="#181818" points="2112.5,760.0508,2122.5,764.0508,2112.5,768.0508,2116.5,764.0508" style="stroke:#181818;stroke-width:1.0;"/><line style="stroke:#181818;stroke-width:1.0;" x1="1541" x2="2118.5" y1="764.0508" y2="764.0508"/><text fill="#000000" font-family="sans-serif" font-size="13" font-weight="bold" lengthAdjust="spacing" textLength="18" x="1548" y="759.3086">20</text><text fill="#000000" font-family="sans-serif" font-size="13" lengthAdjust="spacing" textLength="109" x="1570" y="759.3086">save(JobOpening)</text><polygon fill="#181818" points="1552,789.3613,1542,793.3613,1552,797.3613,1548,793.3613" style="stroke:#181818;stroke-width:1.0;"/><line style="stroke:#181818;stroke-width:1.0;stroke-dasharray:2.0,2.0;" x1="1546" x2="2128.5" y1="793.3613" y2="793.3613"/><text fill="#000000" font-family="sans-serif" font-size="13" font-weight="bold" lengthAdjust="spacing" textLength="18" x="1558" y="788.6191">21</text><text fill="#000000" font-family="sans-serif" font-size="13" lengthAdjust="spacing" textLength="67" x="1580" y="788.6191">return true</text><polygon fill="#181818" points="909.5,818.6719,899.5,822.6719,909.5,826.6719,905.5,822.6719" style="stroke:#181818;stroke-width:1.0;"/><line style="stroke:#181818;stroke-width:1.0;stroke-dasharray:2.0,2.0;" x1="903.5" x2="1535" y1="822.6719" y2="822.6719"/><text fill="#000000" font-family="sans-serif" font-size="13" font-weight="bold" lengthAdjust="spacing" textLength="18" x="915.5" y="817.9297">22</text><text fill="#000000" font-family="sans-serif" font-size="13" lengthAdjust="spacing" textLength="73" x="937.5" y="817.9297">jobOpening</text><polygon fill="#181818" points="540.5,847.9824,530.5,851.9824,540.5,855.9824,536.5,851.9824" style="stroke:#181818;stroke-width:1.0;"/><line style="stroke:#181818;stroke-width:1.0;stroke-dasharray:2.0,2.0;" x1="534.5" x2="892.5" y1="851.9824" y2="851.9824"/><text fill="#000000" font-family="sans-serif" font-size="13" font-weight="bold" lengthAdjust="spacing" textLength="18" x="546.5" y="847.2402">23</text><text fill="#000000" font-family="sans-serif" font-size="13" lengthAdjust="spacing" textLength="73" x="568.5" y="847.2402">JobOpening</text><polygon fill="#181818" points="84.5,877.293,74.5,881.293,84.5,885.293,80.5,881.293" style="stroke:#181818;stroke-width:1.0;"/><line style="stroke:#181818;stroke-width:1.0;stroke-dasharray:2.0,2.0;" x1="78.5" x2="523.5" y1="881.293" y2="881.293"/><text fill="#000000" font-family="sans-serif" font-size="13" font-weight="bold" lengthAdjust="spacing" textLength="18" x="90.5" y="876.5508">24</text><text fill="#000000" font-family="sans-serif" font-size="13" lengthAdjust="spacing" textLength="168" x="112.5" y="876.5508">shows operation's success</text><!--SRC=[fLRTRjem5BxFKrYz6PNW1H12wgYchHfZwjfTSMES0xWBjcKxLEpfTvBG93PsSBjS9V4vt_d_ZcbffIWF6z1Pbb5cfIOtYz9OUG1DbbJG7UWRGWrPB3D5jUMCAoeikSlp1xbPAH1Sx9w_aTbCQJ0WBBLSYldS4VxEZLt80xvpC0ifh9P5WVYp6LMgu2oaunX8rIdjNch-jpxx1Vh86Q22QTuyuSQXKqWifvPkg062prdi4PGq7DDp6lIWS_cQ-KxoSycBl8viqxn59L6a-_3yx0uSLtNxWV9LWVcHMgYgcMLrU4iocVlLd1AQvqJ0Qm-r4Q-U5iJJQYJynfWW_6A9YEQF8LjiBxk77kmdGxZ0tuSwcvsH78RD1FqcKt8FXcckAh0n-KqP5GnxxaVTuUDA7hlKZCbQB6KEOr8t5bfwEYdyUkAsW9N-KWhM023u8sn1Ws1u_5DBXjhtwDI7ip6F3GDcg2ZQ_wFRW8M8PYCPcx4gIw6nc88mfORg3AUswcR8dx5Llr9p9qwhRIZ20Cuvp925oL2mLfSGhdRKo424tYmdvDBLEFUKYzBXzYOg7RfJSj1xM9EGvmL6kTgs5e8v6hQGaF_tsKchGd0SKwmCjdMOJX0vvqOLz6ISUlZs21LvmpnM4WC5C4kaW2IQUHCPf9i6qn3MP2fh5Jv43P6TLzDnTp3A-nntz3bkBIhnXkOEDSanX-IiJtAeyEBmdEfuxlOQqGtMgzSULNWNot5ADEomOg1xqRc-N8lrFQ66WhdmgP6vtEEE_-ULFINrnXuD0v-5VU2tjUy0OqkbfM8jBfBXfM8j_YCPlhFrt0NYVmdS3tep5GTiem_tHJ9k9Bd1gdLyYODBZp3gZeQpuHDjyAurYNMuBRM8xxiKAtr6Zt94SihSpHsPrp2TFmpRI6U6FfERlNmrH2hGzSx76w4fMKL0wRT1VszLjzj_]--></g></svg>