<?xml version="1.0" encoding="us-ascii" standalone="no"?><svg xmlns="http://www.w3.org/2000/svg" xmlns:xlink="http://www.w3.org/1999/xlink" contentStyleType="text/css" height="1109px" preserveAspectRatio="none" style="width:2745px;height:1109px;background:#FFFFFF;" version="1.1" viewBox="0 0 2745 1109" width="2745px" zoomAndPan="magnify"><defs/><g><rect fill="#FFFFFF" height="902.627" style="stroke:#181818;stroke-width:1.0;" width="10" x="66.5" y="93.9766"/><rect fill="#FFFFFF" height="263.7949" style="stroke:#181818;stroke-width:1.0;" width="10" x="541.5" y="115.2871"/><rect fill="#FFFFFF" height="597.2109" style="stroke:#181818;stroke-width:1.0;" width="10" x="541.5" y="408.3926"/><rect fill="#FFFFFF" height="205.1738" style="stroke:#181818;stroke-width:1.0;" width="10" x="1003.5" y="144.5977"/><rect fill="#FFFFFF" height="205.1738" style="stroke:#181818;stroke-width:1.0;" width="10" x="1003.5" y="437.7031"/><rect fill="#FFFFFF" height="29.3105" style="stroke:#181818;stroke-width:1.0;" width="10" x="1003.5" y="696.498"/><rect fill="#FFFFFF" height="87.9316" style="stroke:#181818;stroke-width:1.0;" width="10" x="1003.5" y="755.1191"/><rect fill="#FFFFFF" height="29.3105" style="stroke:#181818;stroke-width:1.0;" width="10" x="1003.5" y="872.3613"/><rect fill="#FFFFFF" height="146.5527" style="stroke:#181818;stroke-width:1.0;" width="10" x="1244.5" y="173.9082"/><rect fill="#FFFFFF" height="146.5527" style="stroke:#181818;stroke-width:1.0;" width="10" x="1493.5" y="467.0137"/><rect fill="#FFFFFF" height="29.3105" style="stroke:#181818;stroke-width:1.0;" width="10" x="1771.5" y="901.6719"/><rect fill="#FFFFFF" height="29.3105" style="stroke:#181818;stroke-width:1.0;" width="10" x="1989" y="784.4297"/><rect fill="#FFFFFF" height="87.9316" style="stroke:#181818;stroke-width:1.0;" width="10" x="2146.5" y="203.2188"/><rect fill="#FFFFFF" height="87.9316" style="stroke:#181818;stroke-width:1.0;" width="10" x="2298" y="496.3242"/><rect fill="#FFFFFF" height="29.3105" style="stroke:#181818;stroke-width:1.0;" width="10" x="2298" y="930.9824"/><rect fill="#FFFFFF" height="29.3105" style="stroke:#181818;stroke-width:1.0;" width="10" x="2458" y="232.5293"/><rect fill="#FFFFFF" height="29.3105" style="stroke:#181818;stroke-width:1.0;" width="10" x="2646" y="525.6348"/><rect fill="none" height="310.416" style="stroke:#000000;stroke-width:1.5;" width="2303.5" x="436" y="657.877"/><line style="stroke:#181818;stroke-width:0.5;stroke-dasharray:5.0,5.0;" x1="71" x2="71" y1="83.9766" y2="1014.6035"/><line style="stroke:#181818;stroke-width:0.5;stroke-dasharray:5.0,5.0;" x1="546" x2="546" y1="83.9766" y2="1014.6035"/><line style="stroke:#181818;stroke-width:0.5;stroke-dasharray:5.0,5.0;" x1="1008" x2="1008" y1="83.9766" y2="1014.6035"/><line style="stroke:#181818;stroke-width:0.5;stroke-dasharray:5.0,5.0;" x1="1249" x2="1249" y1="83.9766" y2="1014.6035"/><line style="stroke:#181818;stroke-width:0.5;stroke-dasharray:5.0,5.0;" x1="1498" x2="1498" y1="83.9766" y2="1014.6035"/><line style="stroke:#181818;stroke-width:0.5;stroke-dasharray:5.0,5.0;" x1="1776" x2="1776" y1="83.9766" y2="1014.6035"/><line style="stroke:#181818;stroke-width:0.5;stroke-dasharray:5.0,5.0;" x1="1994" x2="1994" y1="83.9766" y2="1014.6035"/><line style="stroke:#181818;stroke-width:0.5;stroke-dasharray:5.0,5.0;" x1="2151" x2="2151" y1="83.9766" y2="1014.6035"/><line style="stroke:#181818;stroke-width:0.5;stroke-dasharray:5.0,5.0;" x1="2303" x2="2303" y1="83.9766" y2="1014.6035"/><line style="stroke:#181818;stroke-width:0.5;stroke-dasharray:5.0,5.0;" x1="2463" x2="2463" y1="83.9766" y2="1014.6035"/><line style="stroke:#181818;stroke-width:0.5;stroke-dasharray:5.0,5.0;" x1="2650.5" x2="2650.5" y1="83.9766" y2="1014.6035"/><text fill="#000000" font-family="sans-serif" font-size="14" lengthAdjust="spacing" textLength="127" x="5" y="81.0234">CustomerManager</text><ellipse cx="71.5" cy="15.9883" fill="#E2E2F0" rx="8" ry="8" style="stroke:#181818;stroke-width:0.5;"/><path d="M71.5,23.9883 L71.5,50.9883 M58.5,31.9883 L84.5,31.9883 M71.5,50.9883 L58.5,65.9883 M71.5,50.9883 L84.5,65.9883 " fill="none" style="stroke:#181818;stroke-width:0.5;"/><text fill="#000000" font-family="sans-serif" font-size="14" lengthAdjust="spacing" textLength="127" x="5" y="1027.1387">CustomerManager</text><ellipse cx="71.5" cy="1038.5918" fill="#E2E2F0" rx="8" ry="8" style="stroke:#181818;stroke-width:0.5;"/><path d="M71.5,1046.5918 L71.5,1073.5918 M58.5,1054.5918 L84.5,1054.5918 M71.5,1073.5918 L58.5,1088.5918 M71.5,1073.5918 L84.5,1088.5918 " fill="none" style="stroke:#181818;stroke-width:0.5;"/><rect fill="#E2E2F0" height="46.9766" rx="2.5" ry="2.5" style="stroke:#181818;stroke-width:0.5;" width="201" x="446" y="36"/><text fill="#000000" font-family="sans-serif" font-size="14" font-style="italic" lengthAdjust="spacing" textLength="101" x="496" y="56.5352">&#171;presentation&#187;</text><text fill="#000000" font-family="sans-serif" font-size="14" lengthAdjust="spacing" textLength="187" x="453" y="73.0234">VerificationRequirementsUI</text><rect fill="#E2E2F0" height="46.9766" rx="2.5" ry="2.5" style="stroke:#181818;stroke-width:0.5;" width="201" x="446" y="1013.6035"/><text fill="#000000" font-family="sans-serif" font-size="14" font-style="italic" lengthAdjust="spacing" textLength="101" x="496" y="1034.1387">&#171;presentation&#187;</text><text fill="#000000" font-family="sans-serif" font-size="14" lengthAdjust="spacing" textLength="187" x="453" y="1050.627">VerificationRequirementsUI</text><rect fill="#E2E2F0" height="46.9766" rx="2.5" ry="2.5" style="stroke:#181818;stroke-width:0.5;" width="257" x="880" y="36"/><text fill="#000000" font-family="sans-serif" font-size="14" font-style="italic" lengthAdjust="spacing" textLength="81" x="968" y="56.5352">&#171;controller&#187;</text><text fill="#000000" font-family="sans-serif" font-size="14" lengthAdjust="spacing" textLength="243" x="887" y="73.0234">VerificationRequirementsController</text><rect fill="#E2E2F0" height="46.9766" rx="2.5" ry="2.5" style="stroke:#181818;stroke-width:0.5;" width="257" x="880" y="1013.6035"/><text fill="#000000" font-family="sans-serif" font-size="14" font-style="italic" lengthAdjust="spacing" textLength="81" x="968" y="1034.1387">&#171;controller&#187;</text><text fill="#000000" font-family="sans-serif" font-size="14" lengthAdjust="spacing" textLength="243" x="887" y="1050.627">VerificationRequirementsController</text><rect fill="#E2E2F0" height="46.9766" rx="2.5" ry="2.5" style="stroke:#181818;stroke-width:0.5;" width="205" x="1147" y="36"/><text fill="#000000" font-family="sans-serif" font-size="14" font-style="italic" lengthAdjust="spacing" textLength="81" x="1209" y="56.5352">&#171;controller&#187;</text><text fill="#000000" font-family="sans-serif" font-size="14" lengthAdjust="spacing" textLength="191" x="1154" y="73.0234">SelectJobOpeningController</text><rect fill="#E2E2F0" height="46.9766" rx="2.5" ry="2.5" style="stroke:#181818;stroke-width:0.5;" width="205" x="1147" y="1013.6035"/><text fill="#000000" font-family="sans-serif" font-size="14" font-style="italic" lengthAdjust="spacing" textLength="81" x="1209" y="1034.1387">&#171;controller&#187;</text><text fill="#000000" font-family="sans-serif" font-size="14" lengthAdjust="spacing" textLength="191" x="1154" y="1050.627">SelectJobOpeningController</text><rect fill="#E2E2F0" height="46.9766" rx="2.5" ry="2.5" style="stroke:#181818;stroke-width:0.5;" width="273" x="1362" y="36"/><text fill="#000000" font-family="sans-serif" font-size="14" font-style="italic" lengthAdjust="spacing" textLength="81" x="1458" y="56.5352">&#171;controller&#187;</text><text fill="#000000" font-family="sans-serif" font-size="14" lengthAdjust="spacing" textLength="259" x="1369" y="73.0234">ListJobOpeningApplicationsController</text><rect fill="#E2E2F0" height="46.9766" rx="2.5" ry="2.5" style="stroke:#181818;stroke-width:0.5;" width="273" x="1362" y="1013.6035"/><text fill="#000000" font-family="sans-serif" font-size="14" font-style="italic" lengthAdjust="spacing" textLength="81" x="1458" y="1034.1387">&#171;controller&#187;</text><text fill="#000000" font-family="sans-serif" font-size="14" lengthAdjust="spacing" textLength="259" x="1369" y="1050.627">ListJobOpeningApplicationsController</text><rect fill="#E2E2F0" height="46.9766" rx="2.5" ry="2.5" style="stroke:#181818;stroke-width:0.5;" width="263" x="1645" y="36"/><text fill="#000000" font-family="sans-serif" font-size="14" font-style="italic" lengthAdjust="spacing" textLength="81" x="1736" y="56.5352">&#171;controller&#187;</text><text fill="#000000" font-family="sans-serif" font-size="14" lengthAdjust="spacing" textLength="249" x="1652" y="73.0234">ChangeJobInterviewStatusController</text><rect fill="#E2E2F0" height="46.9766" rx="2.5" ry="2.5" style="stroke:#181818;stroke-width:0.5;" width="263" x="1645" y="1013.6035"/><text fill="#000000" font-family="sans-serif" font-size="14" font-style="italic" lengthAdjust="spacing" textLength="81" x="1736" y="1034.1387">&#171;controller&#187;</text><text fill="#000000" font-family="sans-serif" font-size="14" lengthAdjust="spacing" textLength="249" x="1652" y="1050.627">ChangeJobInterviewStatusController</text><rect fill="#E2E2F0" height="46.9766" rx="2.5" ry="2.5" style="stroke:#181818;stroke-width:0.5;" width="152" x="1918" y="36"/><text fill="#000000" font-family="sans-serif" font-size="14" font-style="italic" lengthAdjust="spacing" textLength="44" x="1972" y="56.5352">&#171;core&#187;</text><text fill="#000000" font-family="sans-serif" font-size="14" lengthAdjust="spacing" textLength="138" x="1925" y="73.0234">RequirementsPlugin</text><rect fill="#E2E2F0" height="46.9766" rx="2.5" ry="2.5" style="stroke:#181818;stroke-width:0.5;" width="152" x="1918" y="1013.6035"/><text fill="#000000" font-family="sans-serif" font-size="14" font-style="italic" lengthAdjust="spacing" textLength="44" x="1972" y="1034.1387">&#171;core&#187;</text><text fill="#000000" font-family="sans-serif" font-size="14" lengthAdjust="spacing" textLength="138" x="1925" y="1050.627">RequirementsPlugin</text><rect fill="#E2E2F0" height="46.9766" rx="2.5" ry="2.5" style="stroke:#181818;stroke-width:0.5;" width="143" x="2080" y="36"/><text fill="#000000" font-family="sans-serif" font-size="14" font-style="italic" lengthAdjust="spacing" textLength="61" x="2121" y="56.5352">&#171;service&#187;</text><text fill="#000000" font-family="sans-serif" font-size="14" lengthAdjust="spacing" textLength="129" x="2087" y="73.0234">JobOpeningService</text><rect fill="#E2E2F0" height="46.9766" rx="2.5" ry="2.5" style="stroke:#181818;stroke-width:0.5;" width="143" x="2080" y="1013.6035"/><text fill="#000000" font-family="sans-serif" font-size="14" font-style="italic" lengthAdjust="spacing" textLength="61" x="2121" y="1034.1387">&#171;service&#187;</text><text fill="#000000" font-family="sans-serif" font-size="14" lengthAdjust="spacing" textLength="129" x="2087" y="1050.627">JobOpeningService</text><rect fill="#E2E2F0" height="46.9766" rx="2.5" ry="2.5" style="stroke:#181818;stroke-width:0.5;" width="140" x="2233" y="36"/><text fill="#000000" font-family="sans-serif" font-size="14" font-style="italic" lengthAdjust="spacing" textLength="61" x="2272.5" y="56.5352">&#171;service&#187;</text><text fill="#000000" font-family="sans-serif" font-size="14" lengthAdjust="spacing" textLength="126" x="2240" y="73.0234">ApplicationService</text><rect fill="#E2E2F0" height="46.9766" rx="2.5" ry="2.5" style="stroke:#181818;stroke-width:0.5;" width="140" x="2233" y="1013.6035"/><text fill="#000000" font-family="sans-serif" font-size="14" font-style="italic" lengthAdjust="spacing" textLength="61" x="2272.5" y="1034.1387">&#171;service&#187;</text><text fill="#000000" font-family="sans-serif" font-size="14" lengthAdjust="spacing" textLength="126" x="2240" y="1050.627">ApplicationService</text><text fill="#000000" font-family="sans-serif" font-size="14" font-style="italic" lengthAdjust="spacing" textLength="84" x="2418" y="64.5352">&#171;repository&#187;</text><text fill="#000000" font-family="sans-serif" font-size="14" lengthAdjust="spacing" textLength="154" x="2383" y="81.0234">JobOpeningRepository</text><path d="M2445,15 C2445,5 2463,5 2463,5 C2463,5 2481,5 2481,15 L2481,41 C2481,51 2463,51 2463,51 C2463,51 2445,51 2445,41 L2445,15 " fill="#E2E2F0" style="stroke:#181818;stroke-width:1.5;"/><path d="M2445,15 C2445,25 2463,25 2463,25 C2463,25 2481,25 2481,15 " fill="none" style="stroke:#181818;stroke-width:1.5;"/><text fill="#000000" font-family="sans-serif" font-size="14" font-style="italic" lengthAdjust="spacing" textLength="84" x="2418" y="1027.1387">&#171;repository&#187;</text><text fill="#000000" font-family="sans-serif" font-size="14" lengthAdjust="spacing" textLength="154" x="2383" y="1043.627">JobOpeningRepository</text><path d="M2445,1056.5801 C2445,1046.5801 2463,1046.5801 2463,1046.5801 C2463,1046.5801 2481,1046.5801 2481,1056.5801 L2481,1082.5801 C2481,1092.5801 2463,1092.5801 2463,1092.5801 C2463,1092.5801 2445,1092.5801 2445,1082.5801 L2445,1056.5801 " fill="#E2E2F0" style="stroke:#181818;stroke-width:1.5;"/><path d="M2445,1056.5801 C2445,1066.5801 2463,1066.5801 2463,1066.5801 C2463,1066.5801 2481,1066.5801 2481,1056.5801 " fill="none" style="stroke:#181818;stroke-width:1.5;"/><text fill="#000000" font-family="sans-serif" font-size="14" font-style="italic" lengthAdjust="spacing" textLength="84" x="2606" y="64.5352">&#171;repository&#187;</text><text fill="#000000" font-family="sans-serif" font-size="14" lengthAdjust="spacing" textLength="151" x="2572.5" y="81.0234">ApplicationRepository</text><path d="M2633,15 C2633,5 2651,5 2651,5 C2651,5 2669,5 2669,15 L2669,41 C2669,51 2651,51 2651,51 C2651,51 2633,51 2633,41 L2633,15 " fill="#E2E2F0" style="stroke:#181818;stroke-width:1.5;"/><path d="M2633,15 C2633,25 2651,25 2651,25 C2651,25 2669,25 2669,15 " fill="none" style="stroke:#181818;stroke-width:1.5;"/><text fill="#000000" font-family="sans-serif" font-size="14" font-style="italic" lengthAdjust="spacing" textLength="84" x="2606" y="1027.1387">&#171;repository&#187;</text><text fill="#000000" font-family="sans-serif" font-size="14" lengthAdjust="spacing" textLength="151" x="2572.5" y="1043.627">ApplicationRepository</text><path d="M2633,1056.5801 C2633,1046.5801 2651,1046.5801 2651,1046.5801 C2651,1046.5801 2669,1046.5801 2669,1056.5801 L2669,1082.5801 C2669,1092.5801 2651,1092.5801 2651,1092.5801 C2651,1092.5801 2633,1092.5801 2633,1082.5801 L2633,1056.5801 " fill="#E2E2F0" style="stroke:#181818;stroke-width:1.5;"/><path d="M2633,1056.5801 C2633,1066.5801 2651,1066.5801 2651,1066.5801 C2651,1066.5801 2669,1066.5801 2669,1056.5801 " fill="none" style="stroke:#181818;stroke-width:1.5;"/><rect fill="#FFFFFF" height="902.627" style="stroke:#181818;stroke-width:1.0;" width="10" x="66.5" y="93.9766"/><rect fill="#FFFFFF" height="263.7949" style="stroke:#181818;stroke-width:1.0;" width="10" x="541.5" y="115.2871"/><rect fill="#FFFFFF" height="597.2109" style="stroke:#181818;stroke-width:1.0;" width="10" x="541.5" y="408.3926"/><rect fill="#FFFFFF" height="205.1738" style="stroke:#181818;stroke-width:1.0;" width="10" x="1003.5" y="144.5977"/><rect fill="#FFFFFF" height="205.1738" style="stroke:#181818;stroke-width:1.0;" width="10" x="1003.5" y="437.7031"/><rect fill="#FFFFFF" height="29.3105" style="stroke:#181818;stroke-width:1.0;" width="10" x="1003.5" y="696.498"/><rect fill="#FFFFFF" height="87.9316" style="stroke:#181818;stroke-width:1.0;" width="10" x="1003.5" y="755.1191"/><rect fill="#FFFFFF" height="29.3105" style="stroke:#181818;stroke-width:1.0;" width="10" x="1003.5" y="872.3613"/><rect fill="#FFFFFF" height="146.5527" style="stroke:#181818;stroke-width:1.0;" width="10" x="1244.5" y="173.9082"/><rect fill="#FFFFFF" height="146.5527" style="stroke:#181818;stroke-width:1.0;" width="10" x="1493.5" y="467.0137"/><rect fill="#FFFFFF" height="29.3105" style="stroke:#181818;stroke-width:1.0;" width="10" x="1771.5" y="901.6719"/><rect fill="#FFFFFF" height="29.3105" style="stroke:#181818;stroke-width:1.0;" width="10" x="1989" y="784.4297"/><rect fill="#FFFFFF" height="87.9316" style="stroke:#181818;stroke-width:1.0;" width="10" x="2146.5" y="203.2188"/><rect fill="#FFFFFF" height="87.9316" style="stroke:#181818;stroke-width:1.0;" width="10" x="2298" y="496.3242"/><rect fill="#FFFFFF" height="29.3105" style="stroke:#181818;stroke-width:1.0;" width="10" x="2298" y="930.9824"/><rect fill="#FFFFFF" height="29.3105" style="stroke:#181818;stroke-width:1.0;" width="10" x="2458" y="232.5293"/><rect fill="#FFFFFF" height="29.3105" style="stroke:#181818;stroke-width:1.0;" width="10" x="2646" y="525.6348"/><polygon fill="#181818" points="529.5,111.2871,539.5,115.2871,529.5,119.2871,533.5,115.2871" style="stroke:#181818;stroke-width:1.0;"/><line style="stroke:#181818;stroke-width:1.0;" x1="76.5" x2="535.5" y1="115.2871" y2="115.2871"/><text fill="#000000" font-family="sans-serif" font-size="13" font-weight="bold" lengthAdjust="spacing" textLength="9" x="83.5" y="110.5449">1</text><text fill="#000000" font-family="sans-serif" font-size="13" lengthAdjust="spacing" textLength="382" x="96.5" y="110.5449">asks to verify requirements of applications for a job opening</text><polygon fill="#181818" points="991.5,140.5977,1001.5,144.5977,991.5,148.5977,995.5,144.5977" style="stroke:#181818;stroke-width:1.0;"/><line style="stroke:#181818;stroke-width:1.0;" x1="551.5" x2="997.5" y1="144.5977" y2="144.5977"/><text fill="#000000" font-family="sans-serif" font-size="13" font-weight="bold" lengthAdjust="spacing" textLength="9" x="558.5" y="139.8555">2</text><text fill="#000000" font-family="sans-serif" font-size="13" lengthAdjust="spacing" textLength="118" x="571.5" y="139.8555">selectJobOpening()</text><polygon fill="#181818" points="1232.5,169.9082,1242.5,173.9082,1232.5,177.9082,1236.5,173.9082" style="stroke:#181818;stroke-width:1.0;"/><line style="stroke:#181818;stroke-width:1.0;" x1="1013.5" x2="1238.5" y1="173.9082" y2="173.9082"/><text fill="#000000" font-family="sans-serif" font-size="13" font-weight="bold" lengthAdjust="spacing" textLength="9" x="1020.5" y="169.166">3</text><text fill="#000000" font-family="sans-serif" font-size="13" lengthAdjust="spacing" textLength="118" x="1033.5" y="169.166">selectJobOpening()</text><polygon fill="#181818" points="2134.5,199.2188,2144.5,203.2188,2134.5,207.2188,2138.5,203.2188" style="stroke:#181818;stroke-width:1.0;"/><line style="stroke:#181818;stroke-width:1.0;stroke-dasharray:2.0,2.0;" x1="1254.5" x2="2140.5" y1="203.2188" y2="203.2188"/><text fill="#000000" font-family="sans-serif" font-size="13" font-weight="bold" lengthAdjust="spacing" textLength="9" x="1261.5" y="198.4766">4</text><text fill="#000000" font-family="sans-serif" font-size="13" lengthAdjust="spacing" textLength="103" x="1274.5" y="198.4766">allJobOpenings()</text><polygon fill="#181818" points="2446,228.5293,2456,232.5293,2446,236.5293,2450,232.5293" style="stroke:#181818;stroke-width:1.0;"/><line style="stroke:#181818;stroke-width:1.0;" x1="2156.5" x2="2452" y1="232.5293" y2="232.5293"/><text fill="#000000" font-family="sans-serif" font-size="13" font-weight="bold" lengthAdjust="spacing" textLength="9" x="2163.5" y="227.7871">5</text><text fill="#000000" font-family="sans-serif" font-size="13" lengthAdjust="spacing" textLength="50" x="2176.5" y="227.7871">findAll()</text><polygon fill="#181818" points="2167.5,257.8398,2157.5,261.8398,2167.5,265.8398,2163.5,261.8398" style="stroke:#181818;stroke-width:1.0;"/><line style="stroke:#181818;stroke-width:1.0;stroke-dasharray:2.0,2.0;" x1="2161.5" x2="2462" y1="261.8398" y2="261.8398"/><text fill="#000000" font-family="sans-serif" font-size="13" font-weight="bold" lengthAdjust="spacing" textLength="9" x="2173.5" y="257.0977">6</text><text fill="#000000" font-family="sans-serif" font-size="13" lengthAdjust="spacing" textLength="142" x="2186.5" y="257.0977">list of all job openings</text><polygon fill="#181818" points="1265.5,287.1504,1255.5,291.1504,1265.5,295.1504,1261.5,291.1504" style="stroke:#181818;stroke-width:1.0;"/><line style="stroke:#181818;stroke-width:1.0;stroke-dasharray:2.0,2.0;" x1="1259.5" x2="2150.5" y1="291.1504" y2="291.1504"/><text fill="#000000" font-family="sans-serif" font-size="13" font-weight="bold" lengthAdjust="spacing" textLength="9" x="1271.5" y="286.4082">7</text><text fill="#000000" font-family="sans-serif" font-size="13" lengthAdjust="spacing" textLength="142" x="1284.5" y="286.4082">list of all job openings</text><polygon fill="#181818" points="1024.5,316.4609,1014.5,320.4609,1024.5,324.4609,1020.5,320.4609" style="stroke:#181818;stroke-width:1.0;"/><line style="stroke:#181818;stroke-width:1.0;stroke-dasharray:2.0,2.0;" x1="1018.5" x2="1248.5" y1="320.4609" y2="320.4609"/><text fill="#000000" font-family="sans-serif" font-size="13" font-weight="bold" lengthAdjust="spacing" textLength="9" x="1030.5" y="315.7188">8</text><text fill="#000000" font-family="sans-serif" font-size="13" lengthAdjust="spacing" textLength="142" x="1043.5" y="315.7188">list of all job openings</text><polygon fill="#181818" points="562.5,345.7715,552.5,349.7715,562.5,353.7715,558.5,349.7715" style="stroke:#181818;stroke-width:1.0;"/><line style="stroke:#181818;stroke-width:1.0;stroke-dasharray:2.0,2.0;" x1="556.5" x2="1007.5" y1="349.7715" y2="349.7715"/><text fill="#000000" font-family="sans-serif" font-size="13" font-weight="bold" lengthAdjust="spacing" textLength="9" x="568.5" y="345.0293">9</text><text fill="#000000" font-family="sans-serif" font-size="13" lengthAdjust="spacing" textLength="142" x="581.5" y="345.0293">list of all job openings</text><polygon fill="#181818" points="87.5,375.082,77.5,379.082,87.5,383.082,83.5,379.082" style="stroke:#181818;stroke-width:1.0;"/><line style="stroke:#181818;stroke-width:1.0;stroke-dasharray:2.0,2.0;" x1="81.5" x2="545.5" y1="379.082" y2="379.082"/><text fill="#000000" font-family="sans-serif" font-size="13" font-weight="bold" lengthAdjust="spacing" textLength="18" x="93.5" y="374.3398">10</text><text fill="#000000" font-family="sans-serif" font-size="13" lengthAdjust="spacing" textLength="251" x="115.5" y="374.3398">lists job opening and asks to select one</text><polygon fill="#181818" points="529.5,404.3926,539.5,408.3926,529.5,412.3926,533.5,408.3926" style="stroke:#181818;stroke-width:1.0;"/><line style="stroke:#181818;stroke-width:1.0;" x1="76.5" x2="535.5" y1="408.3926" y2="408.3926"/><text fill="#000000" font-family="sans-serif" font-size="13" font-weight="bold" lengthAdjust="spacing" textLength="18" x="83.5" y="403.6504">11</text><text fill="#000000" font-family="sans-serif" font-size="13" lengthAdjust="spacing" textLength="123" x="105.5" y="403.6504">selects job opening</text><polygon fill="#181818" points="991.5,433.7031,1001.5,437.7031,991.5,441.7031,995.5,437.7031" style="stroke:#181818;stroke-width:1.0;"/><line style="stroke:#181818;stroke-width:1.0;" x1="551.5" x2="997.5" y1="437.7031" y2="437.7031"/><text fill="#000000" font-family="sans-serif" font-size="13" font-weight="bold" lengthAdjust="spacing" textLength="18" x="558.5" y="432.9609">12</text><text fill="#000000" font-family="sans-serif" font-size="13" lengthAdjust="spacing" textLength="411" x="580.5" y="432.9609">allApplicationsOfJobOpeningReceived(jobOpening.jobReference())</text><polygon fill="#181818" points="1481.5,463.0137,1491.5,467.0137,1481.5,471.0137,1485.5,467.0137" style="stroke:#181818;stroke-width:1.0;"/><line style="stroke:#181818;stroke-width:1.0;" x1="1013.5" x2="1487.5" y1="467.0137" y2="467.0137"/><text fill="#000000" font-family="sans-serif" font-size="13" font-weight="bold" lengthAdjust="spacing" textLength="18" x="1020.5" y="462.2715">13</text><text fill="#000000" font-family="sans-serif" font-size="13" lengthAdjust="spacing" textLength="411" x="1042.5" y="462.2715">allApplicationsOfJobOpeningReceived(jobOpening.jobReference())</text><polygon fill="#181818" points="2286,492.3242,2296,496.3242,2286,500.3242,2290,496.3242" style="stroke:#181818;stroke-width:1.0;"/><line style="stroke:#181818;stroke-width:1.0;" x1="1503.5" x2="2292" y1="496.3242" y2="496.3242"/><text fill="#000000" font-family="sans-serif" font-size="13" font-weight="bold" lengthAdjust="spacing" textLength="18" x="1510.5" y="491.582">14</text><text fill="#000000" font-family="sans-serif" font-size="13" lengthAdjust="spacing" textLength="102" x="1532.5" y="491.582">allApplications()</text><polygon fill="#181818" points="2634,521.6348,2644,525.6348,2634,529.6348,2638,525.6348" style="stroke:#181818;stroke-width:1.0;"/><line style="stroke:#181818;stroke-width:1.0;" x1="2308" x2="2640" y1="525.6348" y2="525.6348"/><text fill="#000000" font-family="sans-serif" font-size="13" font-weight="bold" lengthAdjust="spacing" textLength="18" x="2315" y="520.8926">15</text><text fill="#000000" font-family="sans-serif" font-size="13" lengthAdjust="spacing" textLength="102" x="2337" y="520.8926">allApplications()</text><polygon fill="#181818" points="2319,550.9453,2309,554.9453,2319,558.9453,2315,554.9453" style="stroke:#181818;stroke-width:1.0;"/><line style="stroke:#181818;stroke-width:1.0;stroke-dasharray:2.0,2.0;" x1="2313" x2="2650" y1="554.9453" y2="554.9453"/><text fill="#000000" font-family="sans-serif" font-size="13" font-weight="bold" lengthAdjust="spacing" textLength="18" x="2325" y="550.2031">16</text><text fill="#000000" font-family="sans-serif" font-size="13" lengthAdjust="spacing" textLength="292" x="2347" y="550.2031">Iterable&lt;Application&gt; allApplicationsReceived</text><polygon fill="#181818" points="1514.5,580.2559,1504.5,584.2559,1514.5,588.2559,1510.5,584.2559" style="stroke:#181818;stroke-width:1.0;"/><line style="stroke:#181818;stroke-width:1.0;stroke-dasharray:2.0,2.0;" x1="1508.5" x2="2302" y1="584.2559" y2="584.2559"/><text fill="#000000" font-family="sans-serif" font-size="13" font-weight="bold" lengthAdjust="spacing" textLength="18" x="1520.5" y="579.5137">17</text><text fill="#000000" font-family="sans-serif" font-size="13" lengthAdjust="spacing" textLength="292" x="1542.5" y="579.5137">Iterable&lt;Application&gt; allApplicationsReceived</text><polygon fill="#181818" points="1024.5,609.5664,1014.5,613.5664,1024.5,617.5664,1020.5,613.5664" style="stroke:#181818;stroke-width:1.0;"/><line style="stroke:#181818;stroke-width:1.0;stroke-dasharray:2.0,2.0;" x1="1018.5" x2="1497.5" y1="613.5664" y2="613.5664"/><text fill="#000000" font-family="sans-serif" font-size="13" font-weight="bold" lengthAdjust="spacing" textLength="18" x="1030.5" y="608.8242">18</text><text fill="#000000" font-family="sans-serif" font-size="13" lengthAdjust="spacing" textLength="291" x="1052.5" y="608.8242">Iterable&lt;Application&gt; applicationListReceived</text><polygon fill="#181818" points="562.5,638.877,552.5,642.877,562.5,646.877,558.5,642.877" style="stroke:#181818;stroke-width:1.0;"/><line style="stroke:#181818;stroke-width:1.0;stroke-dasharray:2.0,2.0;" x1="556.5" x2="1007.5" y1="642.877" y2="642.877"/><text fill="#000000" font-family="sans-serif" font-size="13" font-weight="bold" lengthAdjust="spacing" textLength="18" x="568.5" y="638.1348">19</text><text fill="#000000" font-family="sans-serif" font-size="13" lengthAdjust="spacing" textLength="291" x="590.5" y="638.1348">Iterable&lt;Application&gt; applicationListReceived</text><path d="M436,657.877 L510,657.877 L510,665.1875 L500,675.1875 L436,675.1875 L436,657.877 " fill="#EEEEEE" style="stroke:#000000;stroke-width:1.5;"/><rect fill="none" height="310.416" style="stroke:#000000;stroke-width:1.5;" width="2303.5" x="436" y="657.877"/><text fill="#000000" font-family="sans-serif" font-size="13" font-weight="bold" lengthAdjust="spacing" textLength="29" x="451" y="671.4453">loop</text><text fill="#000000" font-family="sans-serif" font-size="11" font-weight="bold" lengthAdjust="spacing" textLength="120" x="525" y="670.5117">[for each application]</text><polygon fill="#181818" points="991.5,692.498,1001.5,696.498,991.5,700.498,995.5,696.498" style="stroke:#181818;stroke-width:1.0;"/><line style="stroke:#181818;stroke-width:1.0;" x1="551.5" x2="997.5" y1="696.498" y2="696.498"/><text fill="#000000" font-family="sans-serif" font-size="13" font-weight="bold" lengthAdjust="spacing" textLength="18" x="558.5" y="691.7559">20</text><text fill="#000000" font-family="sans-serif" font-size="13" lengthAdjust="spacing" textLength="404" x="580.5" y="691.7559">mapCandidate(candidateRequirements.candidateRequirements())</text><polygon fill="#181818" points="562.5,721.8086,552.5,725.8086,562.5,729.8086,558.5,725.8086" style="stroke:#181818;stroke-width:1.0;"/><line style="stroke:#181818;stroke-width:1.0;stroke-dasharray:2.0,2.0;" x1="556.5" x2="1007.5" y1="725.8086" y2="725.8086"/><text fill="#000000" font-family="sans-serif" font-size="13" font-weight="bold" lengthAdjust="spacing" textLength="18" x="568.5" y="721.0664">21</text><text fill="#000000" font-family="sans-serif" font-size="13" lengthAdjust="spacing" textLength="111" x="590.5" y="721.0664">map of Candidate</text><polygon fill="#181818" points="991.5,751.1191,1001.5,755.1191,991.5,759.1191,995.5,755.1191" style="stroke:#181818;stroke-width:1.0;"/><line style="stroke:#181818;stroke-width:1.0;" x1="551.5" x2="997.5" y1="755.1191" y2="755.1191"/><text fill="#000000" font-family="sans-serif" font-size="13" font-weight="bold" lengthAdjust="spacing" textLength="18" x="558.5" y="750.377">22</text><text fill="#000000" font-family="sans-serif" font-size="13" lengthAdjust="spacing" textLength="291" x="580.5" y="750.377">pluginRequirements(path, clientRequirements)</text><polygon fill="#181818" points="1977,780.4297,1987,784.4297,1977,788.4297,1981,784.4297" style="stroke:#181818;stroke-width:1.0;"/><line style="stroke:#181818;stroke-width:1.0;" x1="1013.5" x2="1983" y1="784.4297" y2="784.4297"/><text fill="#000000" font-family="sans-serif" font-size="13" font-weight="bold" lengthAdjust="spacing" textLength="18" x="1020.5" y="779.6875">23</text><text fill="#000000" font-family="sans-serif" font-size="13" lengthAdjust="spacing" textLength="288" x="1042.5" y="779.6875">checkRequirements(path, clientRequirements)</text><polygon fill="#181818" points="1024.5,809.7402,1014.5,813.7402,1024.5,817.7402,1020.5,813.7402" style="stroke:#181818;stroke-width:1.0;"/><line style="stroke:#181818;stroke-width:1.0;stroke-dasharray:2.0,2.0;" x1="1018.5" x2="1993" y1="813.7402" y2="813.7402"/><text fill="#000000" font-family="sans-serif" font-size="13" font-weight="bold" lengthAdjust="spacing" textLength="18" x="1030.5" y="808.998">24</text><text fill="#000000" font-family="sans-serif" font-size="13" lengthAdjust="spacing" textLength="174" x="1052.5" y="808.998">result(accepted or declined)</text><polygon fill="#181818" points="562.5,839.0508,552.5,843.0508,562.5,847.0508,558.5,843.0508" style="stroke:#181818;stroke-width:1.0;"/><line style="stroke:#181818;stroke-width:1.0;stroke-dasharray:2.0,2.0;" x1="556.5" x2="1007.5" y1="843.0508" y2="843.0508"/><text fill="#000000" font-family="sans-serif" font-size="13" font-weight="bold" lengthAdjust="spacing" textLength="18" x="568.5" y="838.3086">25</text><text fill="#000000" font-family="sans-serif" font-size="13" lengthAdjust="spacing" textLength="174" x="590.5" y="838.3086">result(accepted or declined)</text><polygon fill="#181818" points="991.5,868.3613,1001.5,872.3613,991.5,876.3613,995.5,872.3613" style="stroke:#181818;stroke-width:1.0;"/><line style="stroke:#181818;stroke-width:1.0;" x1="551.5" x2="997.5" y1="872.3613" y2="872.3613"/><text fill="#000000" font-family="sans-serif" font-size="13" font-weight="bold" lengthAdjust="spacing" textLength="18" x="558.5" y="867.6191">26</text><text fill="#000000" font-family="sans-serif" font-size="13" lengthAdjust="spacing" textLength="372" x="580.5" y="867.6191">changeJobInterviewStatus(statusFinal, applicationToVerify);</text><polygon fill="#181818" points="1759.5,897.6719,1769.5,901.6719,1759.5,905.6719,1763.5,901.6719" style="stroke:#181818;stroke-width:1.0;"/><line style="stroke:#181818;stroke-width:1.0;" x1="1008.5" x2="1765.5" y1="901.6719" y2="901.6719"/><text fill="#000000" font-family="sans-serif" font-size="13" font-weight="bold" lengthAdjust="spacing" textLength="18" x="1015.5" y="896.9297">27</text><text fill="#000000" font-family="sans-serif" font-size="13" lengthAdjust="spacing" textLength="596" x="1037.5" y="896.9297">verificationRequirementsController.changeJobInterviewStatus(statusFinal, applicationToVerify);</text><polygon fill="#181818" points="2286,926.9824,2296,930.9824,2286,934.9824,2290,930.9824" style="stroke:#181818;stroke-width:1.0;"/><line style="stroke:#181818;stroke-width:1.0;" x1="1776.5" x2="2292" y1="930.9824" y2="930.9824"/><text fill="#000000" font-family="sans-serif" font-size="13" font-weight="bold" lengthAdjust="spacing" textLength="18" x="1783.5" y="926.2402">28</text><text fill="#000000" font-family="sans-serif" font-size="13" lengthAdjust="spacing" textLength="281" x="1805.5" y="926.2402">updateStatus(applicationStatus, application);</text><polygon fill="#181818" points="2639,956.293,2649,960.293,2639,964.293,2643,960.293" style="stroke:#181818;stroke-width:1.0;"/><line style="stroke:#181818;stroke-width:1.0;" x1="2303" x2="2645" y1="960.293" y2="960.293"/><text fill="#000000" font-family="sans-serif" font-size="13" font-weight="bold" lengthAdjust="spacing" textLength="18" x="2310" y="955.5508">29</text><text fill="#000000" font-family="sans-serif" font-size="13" lengthAdjust="spacing" textLength="106" x="2332" y="955.5508">save(application)</text><polygon fill="#181818" points="82.5,992.6035,72.5,996.6035,82.5,1000.6035,78.5,996.6035" style="stroke:#181818;stroke-width:1.0;"/><line style="stroke:#181818;stroke-width:1.0;stroke-dasharray:2.0,2.0;" x1="76.5" x2="540.5" y1="996.6035" y2="996.6035"/><text fill="#000000" font-family="sans-serif" font-size="13" font-weight="bold" lengthAdjust="spacing" textLength="18" x="88.5" y="991.8613">30</text><text fill="#000000" font-family="sans-serif" font-size="13" lengthAdjust="spacing" textLength="419" x="110.5" y="991.8613">display list of result of all applications of the selected job opening</text><!--SRC=[lLZTRjiW5BxFKt2PI6qV8AiYLP4cjThKATrsJ_19Gak00SwKjz-ndThOnZRkKlic0SxFTpY7Zn-QEYNJunRCR4QPKuQiK-lK4SntAka-wzRKECwufjAHts3uZZFgk98R-9Do0qUGplvw9FVtse35HZwuMiKfhfLqHWa11Wsmij5KVm41p3sfxRC6oUM-MytN-iQjf_EWjRWWi77wwmELUq0BZzA1EN7u-uBHfR6W_JX_Y7JFPIvk81EiILOWNp8_353G5lyQaBmWGgApX3gwfHOyanlGod9CxHb5JTb0wLBOizejdTK7Fr47xH8XbwynG6vNVHMp9DI-MU8KEML2PsAySQ9sX7eP8pkiJKfUrPQe8gxARGcisrabt0Ee1swLyYMnZMASBqP0gGmDG_Bg3A7rh858JDqMi1vByUphyNMBKDhrYhaKekgsGVyjjKgcRR7cnglA9TbncJm8CU2YKWbvyGo60q8_0kaZBqCX_BgpbRq4HZikmnlAw0UzjsPs89KHjJSIIr-LZQdu8V8O1UeQop5Z20JL9Ba2YVKn42gJajoAfKcKX578CiuQowU5AzjcoKaPiY03VxjztldBWm4_GJ9_BRlkyEy6Tc10CfWlfg7JgCF19qGIuxTEnb58CQB0sQ257qdJDrsYQklMCMHVm7xTQusb-nrtEG-HPmU61eK7et_4SnlT2hZtHbTDQEzvR3dqLca7nDdG_CGNsZYeaLY3kOohfzYbte6xQcJkshWzlEDMn3MsZl_77CD7GYcT7rjHxU1RlohL7gbUutR3yJ0FS_R-pnU_2_PEmxD3cK3qsHvUHl2fctVaZEhyhbQRAqtTuOOmmR7b3qopLGKkaal23i3UFWooRR8I2hYBPWC3DXLkJXa3xI0XMFq982G9oIAOspuWroYmqO0cBZRMySOmj_dFLowfkF79uwVAxPuNNoQflU4ta6LnVU-rT7ULCCTbgJKvmw5uBnd3JpzTPuvKPqHs2S-BgEYf1Od11MABm3dg_3RYt8PN27e27tLuaOJSWKncqz-z4cwreEVoDbYiz_TxOUq52VlS0IwN9AI2sYqf__maDDwu_W40]--></g></svg>