<?xml version="1.0" encoding="us-ascii" standalone="no"?><svg xmlns="http://www.w3.org/2000/svg" xmlns:xlink="http://www.w3.org/1999/xlink" contentStyleType="text/css" height="609px" preserveAspectRatio="none" style="width:513px;height:609px;background:#FFFFFF;" version="1.1" viewBox="0 0 513 609" width="513px" zoomAndPan="magnify"><defs/><g><text fill="#000000" font-family="sans-serif" font-size="14" font-weight="bold" lengthAdjust="spacing" textLength="273" x="121.25" y="30.1074">System Sequence Diagram (SSD) - 2002</text><rect fill="#FFFFFF" height="383.7832" style="stroke:#181818;stroke-width:1.0;" width="10" x="46.5" y="133.2422"/><rect fill="#FFFFFF" height="31.291" style="stroke:#181818;stroke-width:1.0;" width="10" x="457.5" y="156.5332"/><rect fill="#FFFFFF" height="57.582" style="stroke:#181818;stroke-width:1.0;" width="10" x="457.5" y="219.1152"/><rect fill="#FFFFFF" height="31.291" style="stroke:#181818;stroke-width:1.0;" width="10" x="457.5" y="307.9883"/><rect fill="#FFFFFF" height="65.873" style="stroke:#181818;stroke-width:1.0;" width="10" x="457.5" y="372.5703"/><rect fill="#FFFFFF" height="31.291" style="stroke:#181818;stroke-width:1.0;" width="10" x="457.5" y="469.7344"/><rect fill="none" height="274.9102" style="stroke:#000000;stroke-width:1.5;" width="496.5" x="10" y="234.1152"/><line style="stroke:#181818;stroke-width:0.5;stroke-dasharray:5.0,5.0;" x1="51" x2="51" y1="123.2422" y2="526.0254"/><line style="stroke:#181818;stroke-width:0.5;stroke-dasharray:5.0,5.0;" x1="462.5" x2="462.5" y1="123.2422" y2="526.0254"/><text fill="#000000" font-family="sans-serif" font-size="14" lengthAdjust="spacing" textLength="57" x="20" y="119.7285">Operator</text><ellipse cx="51.5" cy="53.1211" fill="#E3E3E3" rx="8" ry="8" style="stroke:#181818;stroke-width:0.5;"/><path d="M51.5,61.1211 L51.5,88.1211 M38.5,69.1211 L64.5,69.1211 M51.5,88.1211 L38.5,103.1211 M51.5,88.1211 L64.5,103.1211 " fill="none" style="stroke:#181818;stroke-width:0.5;"/><text fill="#000000" font-family="sans-serif" font-size="14" lengthAdjust="spacing" textLength="57" x="20" y="540.1328">Operator</text><ellipse cx="51.5" cy="552.1465" fill="#E3E3E3" rx="8" ry="8" style="stroke:#181818;stroke-width:0.5;"/><path d="M51.5,560.1465 L51.5,587.1465 M38.5,568.1465 L64.5,568.1465 M51.5,587.1465 L38.5,602.1465 M51.5,587.1465 L64.5,602.1465 " fill="none" style="stroke:#181818;stroke-width:0.5;"/><rect fill="#E3E3E3" height="32.6211" rx="2.5" ry="2.5" style="stroke:#181818;stroke-width:0.5;" width="68" x="428.5" y="89.6211"/><text fill="#000000" font-family="sans-serif" font-size="14" lengthAdjust="spacing" textLength="54" x="435.5" y="111.7285">: System</text><rect fill="#E3E3E3" height="32.6211" rx="2.5" ry="2.5" style="stroke:#181818;stroke-width:0.5;" width="68" x="428.5" y="525.0254"/><text fill="#000000" font-family="sans-serif" font-size="14" lengthAdjust="spacing" textLength="54" x="435.5" y="547.1328">: System</text><rect fill="#FFFFFF" height="383.7832" style="stroke:#181818;stroke-width:1.0;" width="10" x="46.5" y="133.2422"/><rect fill="#FFFFFF" height="31.291" style="stroke:#181818;stroke-width:1.0;" width="10" x="457.5" y="156.5332"/><rect fill="#FFFFFF" height="57.582" style="stroke:#181818;stroke-width:1.0;" width="10" x="457.5" y="219.1152"/><rect fill="#FFFFFF" height="31.291" style="stroke:#181818;stroke-width:1.0;" width="10" x="457.5" y="307.9883"/><rect fill="#FFFFFF" height="65.873" style="stroke:#181818;stroke-width:1.0;" width="10" x="457.5" y="372.5703"/><rect fill="#FFFFFF" height="31.291" style="stroke:#181818;stroke-width:1.0;" width="10" x="457.5" y="469.7344"/><polygon fill="#181818" points="445.5,152.5332,455.5,156.5332,445.5,160.5332,449.5,156.5332" style="stroke:#181818;stroke-width:1.0;"/><line style="stroke:#181818;stroke-width:1.0;" x1="56.5" x2="451.5" y1="156.5332" y2="156.5332"/><text fill="#000000" font-family="sans-serif" font-size="13" font-weight="bold" lengthAdjust="spacing" textLength="7" x="63.5" y="151.2705">1</text><text fill="#000000" font-family="sans-serif" font-size="13" lengthAdjust="spacing" textLength="360" x="74.5" y="151.2705">Asks to register an application of a candidate for a job opening</text><polygon fill="#181818" points="67.5,183.8242,57.5,187.8242,67.5,191.8242,63.5,187.8242" style="stroke:#181818;stroke-width:1.0;"/><line style="stroke:#181818;stroke-width:1.0;stroke-dasharray:2.0,2.0;" x1="61.5" x2="461.5" y1="187.8242" y2="187.8242"/><text fill="#000000" font-family="sans-serif" font-size="13" font-weight="bold" lengthAdjust="spacing" textLength="7" x="73.5" y="182.5615">2</text><text fill="#000000" font-family="sans-serif" font-size="13" lengthAdjust="spacing" textLength="303" x="84.5" y="182.5615">Asks for the Applications Email Bot's generated files</text><polygon fill="#181818" points="445.5,215.1152,455.5,219.1152,445.5,223.1152,449.5,219.1152" style="stroke:#181818;stroke-width:1.0;"/><line style="stroke:#181818;stroke-width:1.0;" x1="56.5" x2="451.5" y1="219.1152" y2="219.1152"/><text fill="#000000" font-family="sans-serif" font-size="13" font-weight="bold" lengthAdjust="spacing" textLength="7" x="63.5" y="213.8525">3</text><text fill="#000000" font-family="sans-serif" font-size="13" lengthAdjust="spacing" textLength="153" x="74.5" y="213.8525">Imports the requested files</text><path d="M10,234.1152 L71,234.1152 L71,243.4063 L61,253.4063 L10,253.4063 L10,234.1152 " fill="#EEEEEE" style="stroke:#000000;stroke-width:1.5;"/><rect fill="none" height="274.9102" style="stroke:#000000;stroke-width:1.5;" width="496.5" x="10" y="234.1152"/><text fill="#000000" font-family="sans-serif" font-size="13" font-weight="bold" lengthAdjust="spacing" textLength="16" x="25" y="249.1436">alt</text><text fill="#000000" font-family="sans-serif" font-size="11" font-weight="bold" lengthAdjust="spacing" textLength="279" x="86" y="247.9854">[the candidate is already registered in the system]</text><polygon fill="#181818" points="67.5,272.6973,57.5,276.6973,67.5,280.6973,63.5,276.6973" style="stroke:#181818;stroke-width:1.0;"/><line style="stroke:#181818;stroke-width:1.0;stroke-dasharray:2.0,2.0;" x1="61.5" x2="461.5" y1="276.6973" y2="276.6973"/><text fill="#000000" font-family="sans-serif" font-size="13" font-weight="bold" lengthAdjust="spacing" textLength="7" x="73.5" y="271.4346">4</text><text fill="#000000" font-family="sans-serif" font-size="13" lengthAdjust="spacing" textLength="305" x="84.5" y="271.4346">Shows the application data and asks for confirmation</text><polygon fill="#181818" points="445.5,303.9883,455.5,307.9883,445.5,311.9883,449.5,307.9883" style="stroke:#181818;stroke-width:1.0;"/><line style="stroke:#181818;stroke-width:1.0;" x1="56.5" x2="451.5" y1="307.9883" y2="307.9883"/><text fill="#000000" font-family="sans-serif" font-size="13" font-weight="bold" lengthAdjust="spacing" textLength="7" x="63.5" y="302.7256">5</text><text fill="#000000" font-family="sans-serif" font-size="13" lengthAdjust="spacing" textLength="102" x="74.5" y="302.7256">Confirms the data</text><polygon fill="#181818" points="67.5,335.2793,57.5,339.2793,67.5,343.2793,63.5,339.2793" style="stroke:#181818;stroke-width:1.0;"/><line style="stroke:#181818;stroke-width:1.0;stroke-dasharray:2.0,2.0;" x1="61.5" x2="461.5" y1="339.2793" y2="339.2793"/><text fill="#000000" font-family="sans-serif" font-size="13" font-weight="bold" lengthAdjust="spacing" textLength="7" x="73.5" y="334.0166">6</text><text fill="#000000" font-family="sans-serif" font-size="13" lengthAdjust="spacing" textLength="160" x="84.5" y="334.0166">Displays operation success</text><line style="stroke:#000000;stroke-width:1.0;stroke-dasharray:2.0,2.0;" x1="10" x2="506.5" y1="348.2793" y2="348.2793"/><polygon fill="#181818" points="445.5,368.5703,455.5,372.5703,445.5,376.5703,449.5,372.5703" style="stroke:#181818;stroke-width:1.0;"/><line style="stroke:#181818;stroke-width:1.0;stroke-dasharray:2.0,2.0;" x1="56.5" x2="451.5" y1="372.5703" y2="372.5703"/><text fill="#000000" font-family="sans-serif" font-size="13" font-weight="bold" lengthAdjust="spacing" textLength="7" x="63.5" y="367.3076">7</text><text fill="#000000" font-family="sans-serif" font-size="13" lengthAdjust="spacing" textLength="174" x="74.5" y="367.3076">Asks to register the candidate</text><polygon fill="#181818" points="67.5,434.4434,57.5,438.4434,67.5,442.4434,63.5,438.4434" style="stroke:#181818;stroke-width:1.0;"/><line style="stroke:#181818;stroke-width:1.0;stroke-dasharray:2.0,2.0;" x1="61.5" x2="461.5" y1="438.4434" y2="438.4434"/><text fill="#000000" font-family="sans-serif" font-size="13" font-weight="bold" lengthAdjust="spacing" textLength="7" x="73.5" y="415.8896">8</text><text fill="#000000" font-family="sans-serif" font-size="13" lengthAdjust="spacing" textLength="352" x="84.5" y="398.5986">Registers the candidate using the data present in the text file</text><text fill="#000000" font-family="sans-serif" font-size="13" lengthAdjust="spacing" textLength="362" x="84.5" y="415.8896">with the data of the application and candidate generated by the</text><text fill="#000000" font-family="sans-serif" font-size="13" lengthAdjust="spacing" textLength="310" x="84.5" y="433.1807">Applications Email Bot and asks for data confirmation</text><polygon fill="#181818" points="445.5,465.7344,455.5,469.7344,445.5,473.7344,449.5,469.7344" style="stroke:#181818;stroke-width:1.0;"/><line style="stroke:#181818;stroke-width:1.0;stroke-dasharray:2.0,2.0;" x1="56.5" x2="451.5" y1="469.7344" y2="469.7344"/><text fill="#000000" font-family="sans-serif" font-size="13" font-weight="bold" lengthAdjust="spacing" textLength="7" x="63.5" y="464.4717">9</text><text fill="#000000" font-family="sans-serif" font-size="13" lengthAdjust="spacing" textLength="102" x="74.5" y="464.4717">Confirms the data</text><polygon fill="#181818" points="67.5,497.0254,57.5,501.0254,67.5,505.0254,63.5,501.0254" style="stroke:#181818;stroke-width:1.0;"/><line style="stroke:#181818;stroke-width:1.0;stroke-dasharray:2.0,2.0;" x1="61.5" x2="461.5" y1="501.0254" y2="501.0254"/><text fill="#000000" font-family="sans-serif" font-size="13" font-weight="bold" lengthAdjust="spacing" textLength="14" x="73.5" y="495.7627">10</text><text fill="#000000" font-family="sans-serif" font-size="13" lengthAdjust="spacing" textLength="160" x="91.5" y="495.7627">Displays operation success</text><!--SRC=[bLCzZzim3DtrAuWiROS0XnjlA71jEdJAeLvlOMJQriMML95kwdzVINRiI-2cZIT1fDu77yr7Opq6xA1prkack8v0Ga-Avuf7VSIQ2XbQWa1QqDRj-mPki7GdOskei6LIIep4rc9WeGuA-jcJrGGxWtLg_rWKkq-mXSU7XqUbi1Td- -v08Pwrk02RlQU0yRG1PDY_gCWYHXkFLc3pDE7cudZC3yql54hT2kAtVu7jvxE29tZc8uEugBusyIe0Ma3lMwDHZBFWAa3GQ4jJ9fGgga1uSmTmdcmqbZ5daZChJDz4iusCaNTYInZI43mlD0pVEZGjV77oWQ4ccsnI2PLfYJDQIUiaLtQ-Tzu5uOmVqdZv4cPTAhQINom-3SVBG5WEysGYZh6vZV_XicZSQPJmVf8H5-DqovZED0JjR6L2bylgbiihar_7ToD5WhqlX9rXt-B0AS8mQkDUQsA-AOBo0f_btDoXYrcg-zJzc43uAf6UqszqTWm-45FS-YaIeT-IOuPNUpBIB8rnWQ-JI24imCks7ORS-chND_Col0p-FmccszMnhSUuEgsvS6UUyxk_PMfBzGS0]--></g></svg>