<?xml version="1.0" encoding="us-ascii" standalone="no"?><svg xmlns="http://www.w3.org/2000/svg" xmlns:xlink="http://www.w3.org/1999/xlink" contentStyleType="text/css" height="1155.6px" preserveAspectRatio="none" style="width:1267px;height:1155px;background:#FFFFFF;" version="1.1" viewBox="0 0 1267 1155" width="1267.2px" zoomAndPan="magnify"><defs/><g><text fill="#000000" font-family="sans-serif" font-size="12.6" font-weight="bold" lengthAdjust="spacing" textLength="231.3" x="511.65" y="22.5967">Class Diagram - Notifying Candidates</text><!--cluster presentation--><g id="cluster_presentation"><path d="M508.05,41.0713 L589.95,41.0713 A3.375,3.375 0 0 1 592.2,43.3213 L598.5,63.2303 L786.15,63.2303 A2.25,2.25 0 0 1 788.4,65.4803 L788.4,230.5213 A2.25,2.25 0 0 1 786.15,232.7713 L508.05,232.7713 A2.25,2.25 0 0 1 505.8,230.5213 L505.8,43.3213 A2.25,2.25 0 0 1 508.05,41.0713 " fill="none" style="stroke:#000000;stroke-width:1.35;"/><line style="stroke:#000000;stroke-width:1.35;" x1="505.8" x2="598.5" y1="63.2303" y2="63.2303"/><text fill="#000000" font-family="sans-serif" font-size="12.6" font-weight="bold" lengthAdjust="spacing" textLength="81" x="509.4" y="56.468">presentation</text></g><!--cluster application--><g id="cluster_application"><path d="M489.15,262.4713 L559.35,262.4713 A3.375,3.375 0 0 1 561.6,264.7213 L567.9,284.6303 L805.05,284.6303 A2.25,2.25 0 0 1 807.3,286.8803 L807.3,401.5213 A2.25,2.25 0 0 1 805.05,403.7713 L489.15,403.7713 A2.25,2.25 0 0 1 486.9,401.5213 L486.9,264.7213 A2.25,2.25 0 0 1 489.15,262.4713 " fill="none" style="stroke:#000000;stroke-width:1.35;"/><line style="stroke:#000000;stroke-width:1.35;" x1="486.9" x2="567.9" y1="284.6303" y2="284.6303"/><text fill="#000000" font-family="sans-serif" font-size="12.6" font-weight="bold" lengthAdjust="spacing" textLength="69.3" x="490.5" y="277.868">application</text></g><!--cluster services--><g id="cluster_services"><path d="M20.25,433.4713 L76.05,433.4713 A3.375,3.375 0 0 1 78.3,435.7213 L84.6,455.6303 L1258.65,455.6303 A2.25,2.25 0 0 1 1260.9,457.8803 L1260.9,605.8213 A2.25,2.25 0 0 1 1258.65,608.0713 L20.25,608.0713 A2.25,2.25 0 0 1 18,605.8213 L18,435.7213 A2.25,2.25 0 0 1 20.25,433.4713 " fill="none" style="stroke:#000000;stroke-width:1.35;"/><line style="stroke:#000000;stroke-width:1.35;" x1="18" x2="84.6" y1="455.6303" y2="455.6303"/><text fill="#000000" font-family="sans-serif" font-size="12.6" font-weight="bold" lengthAdjust="spacing" textLength="54.9" x="21.6" y="448.868">services</text></g><!--cluster repositories--><g id="cluster_repositories"><path d="M173.25,637.7713 L251.55,637.7713 A3.375,3.375 0 0 1 253.8,640.0213 L260.1,659.9303 L352.35,659.9303 A2.25,2.25 0 0 1 354.6,662.1803 L354.6,759.7213 A2.25,2.25 0 0 1 352.35,761.9713 L173.25,761.9713 A2.25,2.25 0 0 1 171,759.7213 L171,640.0213 A2.25,2.25 0 0 1 173.25,637.7713 " fill="none" style="stroke:#000000;stroke-width:1.35;"/><line style="stroke:#000000;stroke-width:1.35;" x1="171" x2="260.1" y1="659.9303" y2="659.9303"/><text fill="#000000" font-family="sans-serif" font-size="12.6" font-weight="bold" lengthAdjust="spacing" textLength="77.4" x="174.6" y="653.168">repositories</text></g><!--cluster domain--><g id="cluster_domain"><path d="M7.65,807.8713 L54.45,807.8713 A3.375,3.375 0 0 1 56.7,810.1213 L63,830.0303 L517.95,830.0303 A2.25,2.25 0 0 1 520.2,832.2803 L520.2,1147.6213 A2.25,2.25 0 0 1 517.95,1149.8713 L7.65,1149.8713 A2.25,2.25 0 0 1 5.4,1147.6213 L5.4,810.1213 A2.25,2.25 0 0 1 7.65,807.8713 " fill="none" style="stroke:#000000;stroke-width:1.35;"/><line style="stroke:#000000;stroke-width:1.35;" x1="5.4" x2="63" y1="830.0303" y2="830.0303"/><text fill="#000000" font-family="sans-serif" font-size="12.6" font-weight="bold" lengthAdjust="spacing" textLength="45.9" x="9" y="823.268">domain</text></g><!--class NotifyCandidatesUI--><g id="elem_NotifyCandidatesUI"><rect codeLine="12" fill="#FFFFFF" height="143.7539" id="NotifyCandidatesUI" rx="2.25" ry="2.25" style="stroke:#000000;stroke-width:0.45;" width="253.8" x="520.2" y="74.3713"/><ellipse cx="589.725" cy="88.7713" fill="#ADD1B2" rx="9.9" ry="9.9" style="stroke:#181818;stroke-width:0.9;"/><path d="M592.2141,85.0588 Q592.3547,84.8619 592.5234,84.7635 Q592.6922,84.665 592.8891,84.665 Q593.2266,84.665 593.4375,84.9041 Q593.6484,85.1291 593.6484,85.6775 L593.6484,86.9854 Q593.6484,87.5338 593.4375,87.7729 Q593.2266,88.0119 592.8891,88.0119 Q592.5797,88.0119 592.3969,87.8291 Q592.2141,87.6604 592.1156,87.1963 Q592.0734,86.8729 591.9047,86.7041 Q591.6094,86.3666 591.0609,86.1697 Q590.5125,85.9729 589.95,85.9729 Q589.2609,85.9729 588.6844,86.2682 Q588.1219,86.5635 587.6719,87.2385 Q587.2359,87.9135 587.2359,88.8416 L587.2359,89.826 Q587.2359,90.9369 588.0375,91.6822 Q588.8391,92.4135 590.2734,92.4135 Q591.1172,92.4135 591.7078,92.1885 Q592.0594,92.0479 592.4391,91.6541 Q592.6781,91.415 592.8047,91.3447 Q592.9453,91.2744 593.1281,91.2744 Q593.4234,91.2744 593.6484,91.5135 Q593.8875,91.7385 593.8875,92.0479 Q593.8875,92.3572 593.5781,92.7229 Q593.1281,93.2432 592.4109,93.5385 Q591.4406,93.9463 590.2734,93.9463 Q588.9094,93.9463 587.8266,93.3838 Q586.9406,92.9338 586.3219,91.9775 Q585.7031,91.0072 585.7031,89.8541 L585.7031,88.8135 Q585.7031,87.6182 586.2516,86.5916 Q586.8141,85.551 587.7984,85.0025 Q588.7828,84.44 589.8938,84.44 Q590.5547,84.44 591.1313,84.5947 Q591.7219,84.7354 592.2141,85.0588 Z " fill="#000000"/><text fill="#000000" font-family="sans-serif" font-size="12.6" lengthAdjust="spacing" textLength="107.1" x="608.175" y="93.9885">NotifyCandidatesUI</text><line style="stroke:#000000;stroke-width:0.45;" x1="521.1" x2="773.1" y1="103.1713" y2="103.1713"/><line style="stroke:#000000;stroke-width:0.45;" x1="521.1" x2="773.1" y1="110.3713" y2="110.3713"/><ellipse cx="530.1" cy="123.7008" fill="#84BE84" rx="2.7" ry="2.7" style="stroke:#038048;stroke-width:0.9;"/><text fill="#000000" font-family="sans-serif" font-size="12.6" lengthAdjust="spacing" textLength="54" x="538.2" y="127.568">doShow()</text><ellipse cx="530.1" cy="140.4598" fill="#84BE84" rx="2.7" ry="2.7" style="stroke:#038048;stroke-width:0.9;"/><text fill="#000000" font-family="sans-serif" font-size="12.6" lengthAdjust="spacing" textLength="57.6" x="538.2" y="144.327">headline()</text><ellipse cx="530.1" cy="157.2188" fill="#84BE84" rx="2.7" ry="2.7" style="stroke:#038048;stroke-width:0.9;"/><text fill="#000000" font-family="sans-serif" font-size="12.6" lengthAdjust="spacing" textLength="110.7" x="538.2" y="161.0859">selectJobOpening()</text><ellipse cx="530.1" cy="173.9777" fill="#84BE84" rx="2.7" ry="2.7" style="stroke:#038048;stroke-width:0.9;"/><text fill="#000000" font-family="sans-serif" font-size="12.6" lengthAdjust="spacing" textLength="220.5" x="538.2" y="177.8449">selectApplication(selectedJobOpening)</text><ellipse cx="530.1" cy="190.7367" fill="#84BE84" rx="2.7" ry="2.7" style="stroke:#038048;stroke-width:0.9;"/><text fill="#000000" font-family="sans-serif" font-size="12.6" lengthAdjust="spacing" textLength="230.4" x="538.2" y="194.6039">getLastJobInterview(selectedApplication)</text><ellipse cx="530.1" cy="207.4957" fill="#84BE84" rx="2.7" ry="2.7" style="stroke:#038048;stroke-width:0.9;"/><text fill="#000000" font-family="sans-serif" font-size="12.6" lengthAdjust="spacing" textLength="220.5" x="538.2" y="211.3629">updateRank(rank, selectedApplication)</text></g><!--class NotifyCandidatesController--><g id="elem_NotifyCandidatesController"><rect codeLine="23" fill="#FFFFFF" height="93.477" id="NotifyCandidatesController" rx="2.25" ry="2.25" style="stroke:#000000;stroke-width:0.45;" width="291.6" x="501.3" y="295.7713"/><ellipse cx="567.225" cy="310.1713" fill="#ADD1B2" rx="9.9" ry="9.9" style="stroke:#181818;stroke-width:0.9;"/><path d="M569.7141,306.4588 Q569.8547,306.2619 570.0234,306.1635 Q570.1922,306.065 570.3891,306.065 Q570.7266,306.065 570.9375,306.3041 Q571.1484,306.5291 571.1484,307.0775 L571.1484,308.3854 Q571.1484,308.9338 570.9375,309.1729 Q570.7266,309.4119 570.3891,309.4119 Q570.0797,309.4119 569.8969,309.2291 Q569.7141,309.0604 569.6156,308.5963 Q569.5734,308.2729 569.4047,308.1041 Q569.1094,307.7666 568.5609,307.5697 Q568.0125,307.3729 567.45,307.3729 Q566.7609,307.3729 566.1844,307.6682 Q565.6219,307.9635 565.1719,308.6385 Q564.7359,309.3135 564.7359,310.2416 L564.7359,311.226 Q564.7359,312.3369 565.5375,313.0822 Q566.3391,313.8135 567.7734,313.8135 Q568.6172,313.8135 569.2078,313.5885 Q569.5594,313.4479 569.9391,313.0541 Q570.1781,312.815 570.3047,312.7447 Q570.4453,312.6744 570.6281,312.6744 Q570.9234,312.6744 571.1484,312.9135 Q571.3875,313.1385 571.3875,313.4479 Q571.3875,313.7572 571.0781,314.1229 Q570.6281,314.6432 569.9109,314.9385 Q568.9406,315.3463 567.7734,315.3463 Q566.4094,315.3463 565.3266,314.7838 Q564.4406,314.3338 563.8219,313.3775 Q563.2031,312.4072 563.2031,311.2541 L563.2031,310.2135 Q563.2031,309.0182 563.7516,307.9916 Q564.3141,306.951 565.2984,306.4025 Q566.2828,305.84 567.3938,305.84 Q568.0547,305.84 568.6313,305.9947 Q569.2219,306.1354 569.7141,306.4588 Z " fill="#000000"/><text fill="#000000" font-family="sans-serif" font-size="12.6" lengthAdjust="spacing" textLength="152.1" x="585.675" y="315.3885">NotifyCandidatesController</text><line style="stroke:#000000;stroke-width:0.45;" x1="502.2" x2="792" y1="324.5713" y2="324.5713"/><line style="stroke:#000000;stroke-width:0.45;" x1="502.2" x2="792" y1="331.7713" y2="331.7713"/><ellipse cx="511.2" cy="345.1008" fill="#84BE84" rx="2.7" ry="2.7" style="stroke:#038048;stroke-width:0.9;"/><text fill="#000000" font-family="sans-serif" font-size="12.6" lengthAdjust="spacing" textLength="112.5" x="519.3" y="348.968">showJobOpenings()</text><ellipse cx="511.2" cy="361.8598" fill="#84BE84" rx="2.7" ry="2.7" style="stroke:#038048;stroke-width:0.9;"/><text fill="#000000" font-family="sans-serif" font-size="12.6" lengthAdjust="spacing" textLength="90" x="519.3" y="365.727">allJobOpening()</text><ellipse cx="511.2" cy="378.6188" fill="#84BE84" rx="2.7" ry="2.7" style="stroke:#038048;stroke-width:0.9;"/><text fill="#000000" font-family="sans-serif" font-size="12.6" lengthAdjust="spacing" textLength="268.2" x="519.3" y="382.4859">findJobOpeningByJobReference(jobReference)</text></g><!--class ApplicationService--><g id="elem_ApplicationService"><rect codeLine="31" fill="#FFFFFF" height="126.9949" id="ApplicationService" rx="2.25" ry="2.25" style="stroke:#000000;stroke-width:0.45;" width="460.8" x="32.4" y="466.7713"/><ellipse cx="206.775" cy="481.1713" fill="#ADD1B2" rx="9.9" ry="9.9" style="stroke:#181818;stroke-width:0.9;"/><path d="M209.2641,477.4588 Q209.4047,477.2619 209.5734,477.1635 Q209.7422,477.065 209.9391,477.065 Q210.2766,477.065 210.4875,477.3041 Q210.6984,477.5291 210.6984,478.0775 L210.6984,479.3854 Q210.6984,479.9338 210.4875,480.1729 Q210.2766,480.4119 209.9391,480.4119 Q209.6297,480.4119 209.4469,480.2291 Q209.2641,480.0604 209.1656,479.5963 Q209.1234,479.2729 208.9547,479.1041 Q208.6594,478.7666 208.1109,478.5697 Q207.5625,478.3729 207,478.3729 Q206.3109,478.3729 205.7344,478.6682 Q205.1719,478.9635 204.7219,479.6385 Q204.2859,480.3135 204.2859,481.2416 L204.2859,482.226 Q204.2859,483.3369 205.0875,484.0822 Q205.8891,484.8135 207.3234,484.8135 Q208.1672,484.8135 208.7578,484.5885 Q209.1094,484.4479 209.4891,484.0541 Q209.7281,483.815 209.8547,483.7447 Q209.9953,483.6744 210.1781,483.6744 Q210.4734,483.6744 210.6984,483.9135 Q210.9375,484.1385 210.9375,484.4479 Q210.9375,484.7572 210.6281,485.1229 Q210.1781,485.6432 209.4609,485.9385 Q208.4906,486.3463 207.3234,486.3463 Q205.9594,486.3463 204.8766,485.7838 Q203.9906,485.3338 203.3719,484.3775 Q202.7531,483.4072 202.7531,482.2541 L202.7531,481.2135 Q202.7531,480.0182 203.3016,478.9916 Q203.8641,477.951 204.8484,477.4025 Q205.8328,476.84 206.9438,476.84 Q207.6047,476.84 208.1813,476.9947 Q208.7719,477.1354 209.2641,477.4588 Z " fill="#000000"/><text fill="#000000" font-family="sans-serif" font-size="12.6" lengthAdjust="spacing" textLength="104.4" x="225.225" y="486.3885">ApplicationService</text><line style="stroke:#000000;stroke-width:0.45;" x1="33.3" x2="492.3" y1="495.5713" y2="495.5713"/><line style="stroke:#000000;stroke-width:0.45;" x1="33.3" x2="492.3" y1="502.7713" y2="502.7713"/><ellipse cx="42.3" cy="516.1008" fill="#84BE84" rx="2.7" ry="2.7" style="stroke:#038048;stroke-width:0.9;"/><text fill="#000000" font-family="sans-serif" font-size="12.6" lengthAdjust="spacing" textLength="437.4" x="50.4" y="519.968">registerApplication(rank, applicationFiles, jobReference, candidate, operator)</text><ellipse cx="42.3" cy="532.8598" fill="#84BE84" rx="2.7" ry="2.7" style="stroke:#038048;stroke-width:0.9;"/><text fill="#000000" font-family="sans-serif" font-size="12.6" lengthAdjust="spacing" textLength="189" x="50.4" y="536.727">findApplicationById(applicationID)</text><ellipse cx="42.3" cy="549.6188" fill="#84BE84" rx="2.7" ry="2.7" style="stroke:#038048;stroke-width:0.9;"/><text fill="#000000" font-family="sans-serif" font-size="12.6" lengthAdjust="spacing" textLength="90" x="50.4" y="553.4859">allApplications()</text><ellipse cx="42.3" cy="566.3777" fill="#84BE84" rx="2.7" ry="2.7" style="stroke:#038048;stroke-width:0.9;"/><text fill="#000000" font-family="sans-serif" font-size="12.6" lengthAdjust="spacing" textLength="252" x="50.4" y="570.2449">findApplicationsForJobOpening(jobOpening)</text><ellipse cx="42.3" cy="583.1367" fill="#84BE84" rx="2.7" ry="2.7" style="stroke:#038048;stroke-width:0.9;"/><text fill="#000000" font-family="sans-serif" font-size="12.6" lengthAdjust="spacing" textLength="171.9" x="50.4" y="587.0039">updateRank(rank, application)</text></g><!--class EmailService--><g id="elem_EmailService"><rect codeLine="39" fill="#FFFFFF" height="126.9949" id="EmailService" rx="2.25" ry="2.25" style="stroke:#000000;stroke-width:0.45;" width="720.9" x="525.15" y="466.7713"/><ellipse cx="845.325" cy="481.1713" fill="#ADD1B2" rx="9.9" ry="9.9" style="stroke:#181818;stroke-width:0.9;"/><path d="M847.8141,477.4588 Q847.9547,477.2619 848.1234,477.1635 Q848.2922,477.065 848.4891,477.065 Q848.8266,477.065 849.0375,477.3041 Q849.2484,477.5291 849.2484,478.0775 L849.2484,479.3854 Q849.2484,479.9338 849.0375,480.1729 Q848.8266,480.4119 848.4891,480.4119 Q848.1797,480.4119 847.9969,480.2291 Q847.8141,480.0604 847.7156,479.5963 Q847.6734,479.2729 847.5047,479.1041 Q847.2094,478.7666 846.6609,478.5697 Q846.1125,478.3729 845.55,478.3729 Q844.8609,478.3729 844.2844,478.6682 Q843.7219,478.9635 843.2719,479.6385 Q842.8359,480.3135 842.8359,481.2416 L842.8359,482.226 Q842.8359,483.3369 843.6375,484.0822 Q844.4391,484.8135 845.8734,484.8135 Q846.7172,484.8135 847.3078,484.5885 Q847.6594,484.4479 848.0391,484.0541 Q848.2781,483.815 848.4047,483.7447 Q848.5453,483.6744 848.7281,483.6744 Q849.0234,483.6744 849.2484,483.9135 Q849.4875,484.1385 849.4875,484.4479 Q849.4875,484.7572 849.1781,485.1229 Q848.7281,485.6432 848.0109,485.9385 Q847.0406,486.3463 845.8734,486.3463 Q844.5094,486.3463 843.4266,485.7838 Q842.5406,485.3338 841.9219,484.3775 Q841.3031,483.4072 841.3031,482.2541 L841.3031,481.2135 Q841.3031,480.0182 841.8516,478.9916 Q842.4141,477.951 843.3984,477.4025 Q844.3828,476.84 845.4938,476.84 Q846.1547,476.84 846.7313,476.9947 Q847.3219,477.1354 847.8141,477.4588 Z " fill="#000000"/><text fill="#000000" font-family="sans-serif" font-size="12.6" lengthAdjust="spacing" textLength="72.9" x="863.775" y="486.3885">EmailService</text><line style="stroke:#000000;stroke-width:0.45;" x1="526.05" x2="1245.15" y1="495.5713" y2="495.5713"/><line style="stroke:#000000;stroke-width:0.45;" x1="526.05" x2="1245.15" y1="502.7713" y2="502.7713"/><ellipse cx="535.05" cy="516.1008" fill="#84BE84" rx="2.7" ry="2.7" style="stroke:#038048;stroke-width:0.9;"/><text fill="#000000" font-family="sans-serif" font-size="12.6" lengthAdjust="spacing" textLength="697.5" x="543.15" y="519.968">registerJobOpening(jobReference, description, vacanciesNumber, address, mode, contractType, titleOrFunction, company)</text><ellipse cx="535.05" cy="532.8598" fill="#84BE84" rx="2.7" ry="2.7" style="stroke:#038048;stroke-width:0.9;"/><text fill="#000000" font-family="sans-serif" font-size="12.6" lengthAdjust="spacing" textLength="174.6" x="543.15" y="536.727">findJobOpening(jobReference)</text><ellipse cx="535.05" cy="549.6188" fill="#84BE84" rx="2.7" ry="2.7" style="stroke:#038048;stroke-width:0.9;"/><text fill="#000000" font-family="sans-serif" font-size="12.6" lengthAdjust="spacing" textLength="399.6" x="543.15" y="553.4859">updateJobRequirements(jobReference, jobRequirementsSpecification)</text><ellipse cx="535.05" cy="566.3777" fill="#84BE84" rx="2.7" ry="2.7" style="stroke:#038048;stroke-width:0.9;"/><text fill="#000000" font-family="sans-serif" font-size="12.6" lengthAdjust="spacing" textLength="195.3" x="543.15" y="570.2449">verifyJobReference(jobReference)</text><ellipse cx="535.05" cy="583.1367" fill="#84BE84" rx="2.7" ry="2.7" style="stroke:#038048;stroke-width:0.9;"/><text fill="#000000" font-family="sans-serif" font-size="12.6" lengthAdjust="spacing" textLength="96.3" x="543.15" y="587.0039">allJobOpenings()</text></g><!--class ApplicationRepository--><g id="elem_ApplicationRepository"><rect codeLine="49" fill="#FFFFFF" height="76.718" id="ApplicationRepository" rx="2.25" ry="2.25" style="stroke:#000000;stroke-width:0.45;" width="154.8" x="185.4" y="671.0713"/><ellipse cx="200.115" cy="685.4713" fill="#B4A7E5" rx="9.9" ry="9.9" style="stroke:#181818;stroke-width:0.9;"/><path d="M200.9728,682.4479 L200.9728,688.4385 L202.5197,688.4385 Q203.0681,688.4385 203.3072,688.6494 Q203.5463,688.8604 203.5463,689.2119 Q203.5463,689.5494 203.3072,689.7604 Q203.0681,689.9713 202.5197,689.9713 L197.8931,689.9713 Q197.3447,689.9713 197.1056,689.7604 Q196.8666,689.5494 196.8666,689.1979 Q196.8666,688.8604 197.1056,688.6494 Q197.3447,688.4385 197.8931,688.4385 L199.44,688.4385 L199.44,682.4479 L197.8931,682.4479 Q197.3447,682.4479 197.1056,682.2369 Q196.8666,682.026 196.8666,681.6744 Q196.8666,681.3369 197.1056,681.126 Q197.3447,680.915 197.8931,680.915 L202.5197,680.915 Q203.0681,680.915 203.3072,681.126 Q203.5463,681.3369 203.5463,681.6744 Q203.5463,682.026 203.3072,682.2369 Q203.0681,682.4479 202.5197,682.4479 L200.9728,682.4479 Z " fill="#000000"/><text fill="#000000" font-family="sans-serif" font-size="12.6" font-style="italic" lengthAdjust="spacing" textLength="123.3" x="212.985" y="690.6885">ApplicationRepository</text><line style="stroke:#000000;stroke-width:0.45;" x1="186.3" x2="339.3" y1="699.8713" y2="699.8713"/><line style="stroke:#000000;stroke-width:0.45;" x1="186.3" x2="339.3" y1="707.0713" y2="707.0713"/><ellipse cx="195.3" cy="720.4008" fill="#84BE84" rx="2.7" ry="2.7" style="stroke:#038048;stroke-width:0.9;"/><text fill="#000000" font-family="sans-serif" font-size="12.6" lengthAdjust="spacing" textLength="90" x="203.4" y="724.268">allApplications()</text><ellipse cx="195.3" cy="737.1598" fill="#84BE84" rx="2.7" ry="2.7" style="stroke:#038048;stroke-width:0.9;"/><text fill="#000000" font-family="sans-serif" font-size="12.6" lengthAdjust="spacing" textLength="131.4" x="203.4" y="741.027">ofIdentity(applicationId)</text></g><!--class Application--><g id="elem_Application"><rect codeLine="56" fill="#FFFFFF" height="294.5848" id="Application" rx="2.25" ry="2.25" style="stroke:#000000;stroke-width:0.45;" width="485.1" x="20.25" y="841.1713"/><ellipse cx="227.925" cy="855.5713" fill="#ADD1B2" rx="9.9" ry="9.9" style="stroke:#181818;stroke-width:0.9;"/><path d="M230.4141,851.8588 Q230.5547,851.6619 230.7234,851.5635 Q230.8922,851.465 231.0891,851.465 Q231.4266,851.465 231.6375,851.7041 Q231.8484,851.9291 231.8484,852.4775 L231.8484,853.7854 Q231.8484,854.3338 231.6375,854.5729 Q231.4266,854.8119 231.0891,854.8119 Q230.7797,854.8119 230.5969,854.6291 Q230.4141,854.4604 230.3156,853.9963 Q230.2734,853.6729 230.1047,853.5041 Q229.8094,853.1666 229.2609,852.9697 Q228.7125,852.7729 228.15,852.7729 Q227.4609,852.7729 226.8844,853.0682 Q226.3219,853.3635 225.8719,854.0385 Q225.4359,854.7135 225.4359,855.6416 L225.4359,856.626 Q225.4359,857.7369 226.2375,858.4822 Q227.0391,859.2135 228.4734,859.2135 Q229.3172,859.2135 229.9078,858.9885 Q230.2594,858.8479 230.6391,858.4541 Q230.8781,858.215 231.0047,858.1447 Q231.1453,858.0744 231.3281,858.0744 Q231.6234,858.0744 231.8484,858.3135 Q232.0875,858.5385 232.0875,858.8479 Q232.0875,859.1572 231.7781,859.5229 Q231.3281,860.0432 230.6109,860.3385 Q229.6406,860.7463 228.4734,860.7463 Q227.1094,860.7463 226.0266,860.1838 Q225.1406,859.7338 224.5219,858.7775 Q223.9031,857.8072 223.9031,856.6541 L223.9031,855.6135 Q223.9031,854.4182 224.4516,853.3916 Q225.0141,852.351 225.9984,851.8025 Q226.9828,851.24 228.0938,851.24 Q228.7547,851.24 229.3313,851.3947 Q229.9219,851.5354 230.4141,851.8588 Z " fill="#000000"/><text fill="#000000" font-family="sans-serif" font-size="12.6" lengthAdjust="spacing" textLength="62.1" x="246.375" y="860.7885">Application</text><line style="stroke:#000000;stroke-width:0.45;" x1="21.15" x2="504.45" y1="869.9713" y2="869.9713"/><line style="stroke:#000000;stroke-width:0.45;" x1="21.15" x2="504.45" y1="877.1713" y2="877.1713"/><ellipse cx="30.15" cy="890.5008" fill="#84BE84" rx="2.7" ry="2.7" style="stroke:#038048;stroke-width:0.9;"/><text fill="#000000" font-family="sans-serif" font-size="12.6" lengthAdjust="spacing" textLength="461.7" x="38.25" y="894.368">Application(rank, createdOn, applicationFiles, jobReference, candidate, operator)</text><ellipse cx="30.15" cy="907.2598" fill="#84BE84" rx="2.7" ry="2.7" style="stroke:#038048;stroke-width:0.9;"/><text fill="#000000" font-family="sans-serif" font-size="12.6" lengthAdjust="spacing" textLength="145.8" x="38.25" y="911.127">sameAs(otherApplication)</text><ellipse cx="30.15" cy="924.0188" fill="#84BE84" rx="2.7" ry="2.7" style="stroke:#038048;stroke-width:0.9;"/><text fill="#000000" font-family="sans-serif" font-size="12.6" lengthAdjust="spacing" textLength="138.6" x="38.25" y="927.8859">equals(otherApplication)</text><ellipse cx="30.15" cy="940.7777" fill="#84BE84" rx="2.7" ry="2.7" style="stroke:#038048;stroke-width:0.9;"/><text fill="#000000" font-family="sans-serif" font-size="12.6" lengthAdjust="spacing" textLength="67.5" x="38.25" y="944.6449">hashCode()</text><ellipse cx="30.15" cy="957.5367" fill="#84BE84" rx="2.7" ry="2.7" style="stroke:#038048;stroke-width:0.9;"/><text fill="#000000" font-family="sans-serif" font-size="12.6" lengthAdjust="spacing" textLength="165.6" x="38.25" y="961.4039">compareTo(otherApplication)</text><ellipse cx="30.15" cy="974.2957" fill="#84BE84" rx="2.7" ry="2.7" style="stroke:#038048;stroke-width:0.9;"/><text fill="#000000" font-family="sans-serif" font-size="12.6" lengthAdjust="spacing" textLength="49.5" x="38.25" y="978.1629">identity()</text><ellipse cx="30.15" cy="991.0547" fill="#84BE84" rx="2.7" ry="2.7" style="stroke:#038048;stroke-width:0.9;"/><text fill="#000000" font-family="sans-serif" font-size="12.6" lengthAdjust="spacing" textLength="34.2" x="38.25" y="994.9219">rank()</text><ellipse cx="30.15" cy="1007.8137" fill="#84BE84" rx="2.7" ry="2.7" style="stroke:#038048;stroke-width:0.9;"/><text fill="#000000" font-family="sans-serif" font-size="12.6" lengthAdjust="spacing" textLength="99" x="38.25" y="1011.6809">submissionDate()</text><ellipse cx="30.15" cy="1024.5727" fill="#84BE84" rx="2.7" ry="2.7" style="stroke:#038048;stroke-width:0.9;"/><text fill="#000000" font-family="sans-serif" font-size="12.6" lengthAdjust="spacing" textLength="43.2" x="38.25" y="1028.4398">status()</text><ellipse cx="30.15" cy="1041.3316" fill="#84BE84" rx="2.7" ry="2.7" style="stroke:#038048;stroke-width:0.9;"/><text fill="#000000" font-family="sans-serif" font-size="12.6" lengthAdjust="spacing" textLength="54.9" x="38.25" y="1045.1988">dataFile()</text><ellipse cx="30.15" cy="1058.0906" fill="#84BE84" rx="2.7" ry="2.7" style="stroke:#038048;stroke-width:0.9;"/><text fill="#000000" font-family="sans-serif" font-size="12.6" lengthAdjust="spacing" textLength="57.6" x="38.25" y="1061.9578">operator()</text><ellipse cx="30.15" cy="1074.8496" fill="#84BE84" rx="2.7" ry="2.7" style="stroke:#038048;stroke-width:0.9;"/><text fill="#000000" font-family="sans-serif" font-size="12.6" lengthAdjust="spacing" textLength="64.8" x="38.25" y="1078.7168">candidate()</text><ellipse cx="30.15" cy="1091.6086" fill="#84BE84" rx="2.7" ry="2.7" style="stroke:#038048;stroke-width:0.9;"/><text fill="#000000" font-family="sans-serif" font-size="12.6" lengthAdjust="spacing" textLength="85.5" x="38.25" y="1095.4758">jobReference()</text><ellipse cx="30.15" cy="1108.3676" fill="#84BE84" rx="2.7" ry="2.7" style="stroke:#038048;stroke-width:0.9;"/><text fill="#000000" font-family="sans-serif" font-size="12.6" lengthAdjust="spacing" textLength="103.5" x="38.25" y="1112.2348">updateRank(rank)</text><ellipse cx="30.15" cy="1125.1266" fill="#84BE84" rx="2.7" ry="2.7" style="stroke:#038048;stroke-width:0.9;"/><text fill="#000000" font-family="sans-serif" font-size="12.6" lengthAdjust="spacing" textLength="53.1" x="38.25" y="1128.9938">toString()</text></g><!--link NotifyCandidatesUI to NotifyCandidatesController--><g id="link_NotifyCandidatesUI_NotifyCandidatesController"><path codeLine="75" d="M647.1,218.5513 C647.1,244.2373 647.1,267.1243 647.1,290.1013 " fill="none" id="NotifyCandidatesUI-to-NotifyCandidatesController" style="stroke:#000000;stroke-width:0.9;"/><polygon fill="#000000" points="647.1,295.5013,650.7,287.4013,647.1,291.0013,643.5,287.4013,647.1,295.5013" style="stroke:#000000;stroke-width:0.9;"/></g><!--link NotifyCandidatesController to ApplicationService--><g id="link_NotifyCandidatesController_ApplicationService"><path codeLine="77" d="M552.105,389.4073 C503.874,412.7353 449.4164,439.0764 397.0814,464.3844 " fill="none" id="NotifyCandidatesController-to-ApplicationService" style="stroke:#000000;stroke-width:0.9;"/><polygon fill="#000000" points="392.22,466.7353,401.0794,466.4499,396.2712,464.7762,397.9449,459.968,392.22,466.7353" style="stroke:#000000;stroke-width:0.9;"/></g><!--link NotifyCandidatesController to EmailService--><g id="link_NotifyCandidatesController_EmailService"><path codeLine="78" d="M706.059,389.4073 C735.993,412.7353 768.5434,438.1083 801.0244,463.4163 " fill="none" id="NotifyCandidatesController-to-EmailService" style="stroke:#000000;stroke-width:0.9;"/><polygon fill="#000000" points="805.284,466.7353,801.1072,458.9171,801.7343,463.9695,796.6819,464.5966,805.284,466.7353" style="stroke:#000000;stroke-width:0.9;"/></g><!--link ApplicationService to ApplicationRepository--><g id="link_ApplicationService_ApplicationRepository"><path codeLine="80" d="M262.8,593.8783 C262.8,619.6813 262.8,643.2883 262.8,665.6533 " fill="none" id="ApplicationService-to-ApplicationRepository" style="stroke:#000000;stroke-width:0.9;"/><polygon fill="#000000" points="262.8,671.0533,266.4,662.9533,262.8,666.5533,259.2,662.9533,262.8,671.0533" style="stroke:#000000;stroke-width:0.9;"/></g><!--link ApplicationRepository to Application--><g id="link_ApplicationRepository_Application"><path codeLine="82" d="M262.8,747.6073 C262.8,772.2853 262.8,800.9773 262.8,835.7173 " fill="none" id="ApplicationRepository-to-Application" style="stroke:#000000;stroke-width:0.9;"/><polygon fill="#000000" points="262.8,841.1173,266.4,833.0173,262.8,836.6173,259.2,833.0173,262.8,841.1173" style="stroke:#000000;stroke-width:0.9;"/><text fill="#000000" font-family="sans-serif" font-size="11.7" lengthAdjust="spacing" textLength="32.4" x="263.7" y="789.8968">stores</text></g><!--SRC=[fLN1Rjim3BtxAuIUF2mz3DXfXm5DiW0PXXPeEkoiI4p2LfOyIcxX3VttKN5IIudZ7kP345CaHRxtIFidjBKaMGbbfFVYRo7ucKhrj2NNM3rpnf7ujSC0-vCR8lVI6QU6lJftHnherBfmDWpPLlW7nAVFnMjHF60m8Avc-wldABUna6jnwm9kMhHRCPDMevO1_5LHr9n5Rjc_9l1WWmpexDMXvAxyBhAF-hay7CVdez1kjNClvOV4j0Ef3Lh8Z1uCgF3ThUzgi5p7mE5DNHjK-nBApWAw3qZzjn1-I1-pBMq0UaPuUOj8igGXJHshlvVsgIJ-cOYB_gyHnZTWP7yyZikCUI1d3526ZsTq-YPyrhOqvW8W6xH9wzEM_z_31WYiWl8nUHagsKT45FERrPlqkUeSiZe9jkWPovI43gW4WGKQy1EH5Z0HwWZ1HBWQI0P7fwqaIQVjKfT9okNy1974rvSZYVp2KOBUuw1GpbYNvsmd67sh99enTF8B4n0qU4LOnxmJyImP4uNWRvjg3SItQitpnSXLJaV4ebIa2WzjpMyXJkmTBHghkd3bgbhQzh8U1XIGjhiNo-y62IeUQNzIwMD-kgf1uMPWO9w1MD_l26z0nqVISaqIrCuZImDxNMAStOrag1DQxu-ERKR0c33SPgcv5Gnj9YmzL8TsJB6zE1dPdUUZe0WONtrd_tiglApWnfSkxBAHIrsO96d6NNRIxsOigGoElNm87jneA1uXIusnotmnD-iAlUVOERUI7_77eic9u7Pb12Ddvz1zNkCHdSoQ8bYEZ75w5DmgKBy-zsmFVBAkhx-EREppa6IRnz3pvVbUHBfAYc9W-PwaxNMVUIVZS18WlZ05ZjTAyGy0]--></g></svg>