<?xml version="1.0" encoding="us-ascii" standalone="no"?><svg xmlns="http://www.w3.org/2000/svg" xmlns:xlink="http://www.w3.org/1999/xlink" contentStyleType="text/css" height="1086.4px" preserveAspectRatio="none" style="width:850px;height:1086px;background:#FFFFFF;" version="1.1" viewBox="0 0 850 1086" width="850.4px" zoomAndPan="magnify"><defs/><g><text fill="#000000" font-family="sans-serif" font-size="11.2" font-weight="bold" lengthAdjust="spacing" textLength="205.6" x="316.8" y="20.0859">Class Diagram - Notifying Candidates</text><!--cluster presentation--><g id="cluster_presentation"><path d="M353.2,36.5078 L426,36.5078 A3,3 0 0 1 428,38.5078 L433.6,56.2047 L544.4,56.2047 A2,2 0 0 1 546.4,58.2047 L546.4,174.5078 A2,2 0 0 1 544.4,176.5078 L353.2,176.5078 A2,2 0 0 1 351.2,174.5078 L351.2,38.5078 A2,2 0 0 1 353.2,36.5078 " fill="none" style="stroke:#000000;stroke-width:1.2000000000000002;"/><line style="stroke:#000000;stroke-width:1.2000000000000002;" x1="351.2" x2="433.6" y1="56.2047" y2="56.2047"/><text fill="#000000" font-family="sans-serif" font-size="11.2" font-weight="bold" lengthAdjust="spacing" textLength="72" x="354.4" y="50.1938">presentation</text></g><!--cluster application--><g id="cluster_application"><path d="M318.8,202.9078 L381.2,202.9078 A3,3 0 0 1 383.2,204.9078 L388.8,222.6047 L578.8,222.6047 A2,2 0 0 1 580.8,224.6047 L580.8,356.1078 A2,2 0 0 1 578.8,358.1078 L318.8,358.1078 A2,2 0 0 1 316.8,356.1078 L316.8,204.9078 A2,2 0 0 1 318.8,202.9078 " fill="none" style="stroke:#000000;stroke-width:1.2000000000000002;"/><line style="stroke:#000000;stroke-width:1.2000000000000002;" x1="316.8" x2="388.8" y1="222.6047" y2="222.6047"/><text fill="#000000" font-family="sans-serif" font-size="11.2" font-weight="bold" lengthAdjust="spacing" textLength="61.6" x="320" y="216.5938">application</text></g><!--cluster services--><g id="cluster_services"><path d="M18,384.5078 L67.6,384.5078 A3,3 0 0 1 69.6,386.5078 L75.2,404.2047 L715.6,404.2047 A2,2 0 0 1 717.6,406.2047 L717.6,537.7078 A2,2 0 0 1 715.6,539.7078 L18,539.7078 A2,2 0 0 1 16,537.7078 L16,386.5078 A2,2 0 0 1 18,384.5078 " fill="none" style="stroke:#000000;stroke-width:1.2000000000000002;"/><line style="stroke:#000000;stroke-width:1.2000000000000002;" x1="16" x2="75.2" y1="404.2047" y2="404.2047"/><text fill="#000000" font-family="sans-serif" font-size="11.2" font-weight="bold" lengthAdjust="spacing" textLength="48.8" x="19.2" y="398.1938">services</text></g><!--cluster repositories--><g id="cluster_repositories"><path d="M154,596.1078 L223.6,596.1078 A3,3 0 0 1 225.6,598.1078 L231.2,615.8047 L313.2,615.8047 A2,2 0 0 1 315.2,617.8047 L315.2,704.5078 A2,2 0 0 1 313.2,706.5078 L154,706.5078 A2,2 0 0 1 152,704.5078 L152,598.1078 A2,2 0 0 1 154,596.1078 " fill="none" style="stroke:#000000;stroke-width:1.2000000000000002;"/><line style="stroke:#000000;stroke-width:1.2000000000000002;" x1="152" x2="231.2" y1="615.8047" y2="615.8047"/><text fill="#000000" font-family="sans-serif" font-size="11.2" font-weight="bold" lengthAdjust="spacing" textLength="68.8" x="155.2" y="609.7938">repositories</text></g><!--cluster domain--><g id="cluster_domain"><path d="M6.8,777.3078 L48.4,777.3078 A3,3 0 0 1 50.4,779.3078 L56,797.0047 L694.8,797.0047 A2,2 0 0 1 696.8,799.0047 L696.8,1079.3078 A2,2 0 0 1 694.8,1081.3078 L6.8,1081.3078 A2,2 0 0 1 4.8,1079.3078 L4.8,779.3078 A2,2 0 0 1 6.8,777.3078 " fill="none" style="stroke:#000000;stroke-width:1.2000000000000002;"/><line style="stroke:#000000;stroke-width:1.2000000000000002;" x1="4.8" x2="56" y1="797.0047" y2="797.0047"/><text fill="#000000" font-family="sans-serif" font-size="11.2" font-weight="bold" lengthAdjust="spacing" textLength="40.8" x="8" y="790.9938">domain</text></g><!--cluster protocol--><g id="cluster_protocol"><path d="M634,566.1078 L682,566.1078 A3,3 0 0 1 684,568.1078 L689.6,585.8047 L842.8,585.8047 A2,2 0 0 1 844.8,587.8047 L844.8,734.5078 A2,2 0 0 1 842.8,736.5078 L634,736.5078 A2,2 0 0 1 632,734.5078 L632,568.1078 A2,2 0 0 1 634,566.1078 " fill="none" style="stroke:#000000;stroke-width:1.2000000000000002;"/><line style="stroke:#000000;stroke-width:1.2000000000000002;" x1="632" x2="689.6" y1="585.8047" y2="585.8047"/><text fill="#000000" font-family="sans-serif" font-size="11.2" font-weight="bold" lengthAdjust="spacing" textLength="47.2" x="635.2" y="579.7938">protocol</text></g><!--class NotifyCandidatesUI--><g id="elem_NotifyCandidatesUI"><rect codeLine="12" fill="#FFFFFF" height="97.9875" id="NotifyCandidatesUI" rx="2" ry="2" style="stroke:#000000;stroke-width:0.4000000000000001;" width="169.6" x="364" y="66.1078"/><ellipse cx="397.96" cy="78.9078" fill="#ADD1B2" rx="8.8" ry="8.8" style="stroke:#181818;stroke-width:0.8000000000000002;"/><path d="M400.1725,75.6078 Q400.2975,75.4328 400.4475,75.3453 Q400.5975,75.2578 400.7725,75.2578 Q401.0725,75.2578 401.26,75.4703 Q401.4475,75.6703 401.4475,76.1578 L401.4475,77.3203 Q401.4475,77.8078 401.26,78.0203 Q401.0725,78.2328 400.7725,78.2328 Q400.4975,78.2328 400.335,78.0703 Q400.1725,77.9203 400.085,77.5078 Q400.0475,77.2203 399.8975,77.0703 Q399.635,76.7703 399.1475,76.5953 Q398.66,76.4203 398.16,76.4203 Q397.5475,76.4203 397.035,76.6828 Q396.535,76.9453 396.135,77.5453 Q395.7475,78.1453 395.7475,78.9703 L395.7475,79.8453 Q395.7475,80.8328 396.46,81.4953 Q397.1725,82.1453 398.4475,82.1453 Q399.1975,82.1453 399.7225,81.9453 Q400.035,81.8203 400.3725,81.4703 Q400.585,81.2578 400.6975,81.1953 Q400.8225,81.1328 400.985,81.1328 Q401.2475,81.1328 401.4475,81.3453 Q401.66,81.5453 401.66,81.8203 Q401.66,82.0953 401.385,82.4203 Q400.985,82.8828 400.3475,83.1453 Q399.485,83.5078 398.4475,83.5078 Q397.235,83.5078 396.2725,83.0078 Q395.485,82.6078 394.935,81.7578 Q394.385,80.8953 394.385,79.8703 L394.385,78.9453 Q394.385,77.8828 394.8725,76.9703 Q395.3725,76.0453 396.2475,75.5578 Q397.1225,75.0578 398.11,75.0578 Q398.6975,75.0578 399.21,75.1953 Q399.735,75.3203 400.1725,75.6078 Z " fill="#000000"/><text fill="#000000" font-family="sans-serif" font-size="11.2" lengthAdjust="spacing" textLength="95.2" x="414.04" y="83.5453">NotifyCandidatesUI</text><line style="stroke:#000000;stroke-width:0.4000000000000001;" x1="364.8" x2="532.8" y1="91.7078" y2="91.7078"/><line style="stroke:#000000;stroke-width:0.4000000000000001;" x1="364.8" x2="532.8" y1="98.1078" y2="98.1078"/><ellipse cx="372.8" cy="109.9563" fill="#84BE84" rx="2.4" ry="2.4" style="stroke:#038048;stroke-width:0.8000000000000002;"/><text fill="#000000" font-family="sans-serif" font-size="11.2" lengthAdjust="spacing" textLength="48" x="380" y="113.3938">doShow()</text><ellipse cx="372.8" cy="124.8531" fill="#84BE84" rx="2.4" ry="2.4" style="stroke:#038048;stroke-width:0.8000000000000002;"/><text fill="#000000" font-family="sans-serif" font-size="11.2" lengthAdjust="spacing" textLength="51.2" x="380" y="128.2906">headline()</text><ellipse cx="372.8" cy="139.75" fill="#84BE84" rx="2.4" ry="2.4" style="stroke:#038048;stroke-width:0.8000000000000002;"/><text fill="#000000" font-family="sans-serif" font-size="11.2" lengthAdjust="spacing" textLength="124" x="380" y="143.1875">buildSubject(application)</text><ellipse cx="372.8" cy="154.6469" fill="#84BE84" rx="2.4" ry="2.4" style="stroke:#038048;stroke-width:0.8000000000000002;"/><text fill="#000000" font-family="sans-serif" font-size="11.2" lengthAdjust="spacing" textLength="148.8" x="380" y="158.0844">buildBody(application, status)</text></g><!--class NotifyCandidatesController--><g id="elem_NotifyCandidatesController"><rect codeLine="21" fill="#FFFFFF" height="112.8844" id="NotifyCandidatesController" rx="2" ry="2" style="stroke:#000000;stroke-width:0.4000000000000001;" width="238.4" x="329.6" y="232.5078"/><ellipse cx="377.8" cy="245.3078" fill="#ADD1B2" rx="8.8" ry="8.8" style="stroke:#181818;stroke-width:0.8000000000000002;"/><path d="M380.0125,242.0078 Q380.1375,241.8328 380.2875,241.7453 Q380.4375,241.6578 380.6125,241.6578 Q380.9125,241.6578 381.1,241.8703 Q381.2875,242.0703 381.2875,242.5578 L381.2875,243.7203 Q381.2875,244.2078 381.1,244.4203 Q380.9125,244.6328 380.6125,244.6328 Q380.3375,244.6328 380.175,244.4703 Q380.0125,244.3203 379.925,243.9078 Q379.8875,243.6203 379.7375,243.4703 Q379.475,243.1703 378.9875,242.9953 Q378.5,242.8203 378,242.8203 Q377.3875,242.8203 376.875,243.0828 Q376.375,243.3453 375.975,243.9453 Q375.5875,244.5453 375.5875,245.3703 L375.5875,246.2453 Q375.5875,247.2328 376.3,247.8953 Q377.0125,248.5453 378.2875,248.5453 Q379.0375,248.5453 379.5625,248.3453 Q379.875,248.2203 380.2125,247.8703 Q380.425,247.6578 380.5375,247.5953 Q380.6625,247.5328 380.825,247.5328 Q381.0875,247.5328 381.2875,247.7453 Q381.5,247.9453 381.5,248.2203 Q381.5,248.4953 381.225,248.8203 Q380.825,249.2828 380.1875,249.5453 Q379.325,249.9078 378.2875,249.9078 Q377.075,249.9078 376.1125,249.4078 Q375.325,249.0078 374.775,248.1578 Q374.225,247.2953 374.225,246.2703 L374.225,245.3453 Q374.225,244.2828 374.7125,243.3703 Q375.2125,242.4453 376.0875,241.9578 Q376.9625,241.4578 377.95,241.4578 Q378.5375,241.4578 379.05,241.5953 Q379.575,241.7203 380.0125,242.0078 Z " fill="#000000"/><text fill="#000000" font-family="sans-serif" font-size="11.2" lengthAdjust="spacing" textLength="135.2" x="394.2" y="249.9453">NotifyCandidatesController</text><line style="stroke:#000000;stroke-width:0.4000000000000001;" x1="330.4" x2="567.2" y1="258.1078" y2="258.1078"/><line style="stroke:#000000;stroke-width:0.4000000000000001;" x1="330.4" x2="567.2" y1="264.5078" y2="264.5078"/><ellipse cx="338.4" cy="276.3563" fill="#84BE84" rx="2.4" ry="2.4" style="stroke:#038048;stroke-width:0.8000000000000002;"/><text fill="#000000" font-family="sans-serif" font-size="11.2" lengthAdjust="spacing" textLength="128.8" x="345.6" y="279.7938">findApplicationsToNotify()</text><ellipse cx="338.4" cy="291.2531" fill="#84BE84" rx="2.4" ry="2.4" style="stroke:#038048;stroke-width:0.8000000000000002;"/><text fill="#000000" font-family="sans-serif" font-size="11.2" lengthAdjust="spacing" textLength="160" x="345.6" y="294.6906">findCandidateEmail(application)</text><ellipse cx="338.4" cy="306.15" fill="#84BE84" rx="2.4" ry="2.4" style="stroke:#038048;stroke-width:0.8000000000000002;"/><text fill="#000000" font-family="sans-serif" font-size="11.2" lengthAdjust="spacing" textLength="179.2" x="345.6" y="309.5875">checkApplicationStatus(application)</text><ellipse cx="338.4" cy="321.0469" fill="#84BE84" rx="2.4" ry="2.4" style="stroke:#038048;stroke-width:0.8000000000000002;"/><text fill="#000000" font-family="sans-serif" font-size="11.2" lengthAdjust="spacing" textLength="217.6" x="345.6" y="324.4844">createEmail(candidateEmail, subject, body)</text><ellipse cx="338.4" cy="335.9438" fill="#84BE84" rx="2.4" ry="2.4" style="stroke:#038048;stroke-width:0.8000000000000002;"/><text fill="#000000" font-family="sans-serif" font-size="11.2" lengthAdjust="spacing" textLength="97.6" x="345.6" y="339.3813">sendEmails(emails)</text></g><!--class ApplicationService--><g id="elem_ApplicationService"><rect codeLine="31" fill="#FFFFFF" height="112.8844" id="ApplicationService" rx="2" ry="2" style="stroke:#000000;stroke-width:0.4000000000000001;" width="409.6" x="28.8" y="414.1078"/><ellipse cx="183.8" cy="426.9078" fill="#ADD1B2" rx="8.8" ry="8.8" style="stroke:#181818;stroke-width:0.8000000000000002;"/><path d="M186.0125,423.6078 Q186.1375,423.4328 186.2875,423.3453 Q186.4375,423.2578 186.6125,423.2578 Q186.9125,423.2578 187.1,423.4703 Q187.2875,423.6703 187.2875,424.1578 L187.2875,425.3203 Q187.2875,425.8078 187.1,426.0203 Q186.9125,426.2328 186.6125,426.2328 Q186.3375,426.2328 186.175,426.0703 Q186.0125,425.9203 185.925,425.5078 Q185.8875,425.2203 185.7375,425.0703 Q185.475,424.7703 184.9875,424.5953 Q184.5,424.4203 184,424.4203 Q183.3875,424.4203 182.875,424.6828 Q182.375,424.9453 181.975,425.5453 Q181.5875,426.1453 181.5875,426.9703 L181.5875,427.8453 Q181.5875,428.8328 182.3,429.4953 Q183.0125,430.1453 184.2875,430.1453 Q185.0375,430.1453 185.5625,429.9453 Q185.875,429.8203 186.2125,429.4703 Q186.425,429.2578 186.5375,429.1953 Q186.6625,429.1328 186.825,429.1328 Q187.0875,429.1328 187.2875,429.3453 Q187.5,429.5453 187.5,429.8203 Q187.5,430.0953 187.225,430.4203 Q186.825,430.8828 186.1875,431.1453 Q185.325,431.5078 184.2875,431.5078 Q183.075,431.5078 182.1125,431.0078 Q181.325,430.6078 180.775,429.7578 Q180.225,428.8953 180.225,427.8703 L180.225,426.9453 Q180.225,425.8828 180.7125,424.9703 Q181.2125,424.0453 182.0875,423.5578 Q182.9625,423.0578 183.95,423.0578 Q184.5375,423.0578 185.05,423.1953 Q185.575,423.3203 186.0125,423.6078 Z " fill="#000000"/><text fill="#000000" font-family="sans-serif" font-size="11.2" lengthAdjust="spacing" textLength="92.8" x="200.2" y="431.5453">ApplicationService</text><line style="stroke:#000000;stroke-width:0.4000000000000001;" x1="29.6" x2="437.6" y1="439.7078" y2="439.7078"/><line style="stroke:#000000;stroke-width:0.4000000000000001;" x1="29.6" x2="437.6" y1="446.1078" y2="446.1078"/><ellipse cx="37.6" cy="457.9563" fill="#84BE84" rx="2.4" ry="2.4" style="stroke:#038048;stroke-width:0.8000000000000002;"/><text fill="#000000" font-family="sans-serif" font-size="11.2" lengthAdjust="spacing" textLength="388.8" x="44.8" y="461.3938">registerApplication(rank, applicationFiles, jobReference, candidate, operator)</text><ellipse cx="37.6" cy="472.8531" fill="#84BE84" rx="2.4" ry="2.4" style="stroke:#038048;stroke-width:0.8000000000000002;"/><text fill="#000000" font-family="sans-serif" font-size="11.2" lengthAdjust="spacing" textLength="168" x="44.8" y="476.2906">findApplicationById(applicationID)</text><ellipse cx="37.6" cy="487.75" fill="#84BE84" rx="2.4" ry="2.4" style="stroke:#038048;stroke-width:0.8000000000000002;"/><text fill="#000000" font-family="sans-serif" font-size="11.2" lengthAdjust="spacing" textLength="80" x="44.8" y="491.1875">allApplications()</text><ellipse cx="37.6" cy="502.6469" fill="#84BE84" rx="2.4" ry="2.4" style="stroke:#038048;stroke-width:0.8000000000000002;"/><text fill="#000000" font-family="sans-serif" font-size="11.2" lengthAdjust="spacing" textLength="224" x="44.8" y="506.0844">findApplicationsForJobOpening(jobOpening)</text><ellipse cx="37.6" cy="517.5438" fill="#84BE84" rx="2.4" ry="2.4" style="stroke:#038048;stroke-width:0.8000000000000002;"/><text fill="#000000" font-family="sans-serif" font-size="11.2" lengthAdjust="spacing" textLength="152.8" x="44.8" y="520.9813">updateRank(rank, application)</text></g><!--class EmailService--><g id="elem_EmailService"><rect codeLine="39" fill="#FFFFFF" height="68.1938" id="EmailService" rx="2" ry="2" style="stroke:#000000;stroke-width:0.4000000000000001;" width="238.4" x="466.4" y="436.5078"/><ellipse cx="549.8" cy="449.3078" fill="#ADD1B2" rx="8.8" ry="8.8" style="stroke:#181818;stroke-width:0.8000000000000002;"/><path d="M552.0125,446.0078 Q552.1375,445.8328 552.2875,445.7453 Q552.4375,445.6578 552.6125,445.6578 Q552.9125,445.6578 553.1,445.8703 Q553.2875,446.0703 553.2875,446.5578 L553.2875,447.7203 Q553.2875,448.2078 553.1,448.4203 Q552.9125,448.6328 552.6125,448.6328 Q552.3375,448.6328 552.175,448.4703 Q552.0125,448.3203 551.925,447.9078 Q551.8875,447.6203 551.7375,447.4703 Q551.475,447.1703 550.9875,446.9953 Q550.5,446.8203 550,446.8203 Q549.3875,446.8203 548.875,447.0828 Q548.375,447.3453 547.975,447.9453 Q547.5875,448.5453 547.5875,449.3703 L547.5875,450.2453 Q547.5875,451.2328 548.3,451.8953 Q549.0125,452.5453 550.2875,452.5453 Q551.0375,452.5453 551.5625,452.3453 Q551.875,452.2203 552.2125,451.8703 Q552.425,451.6578 552.5375,451.5953 Q552.6625,451.5328 552.825,451.5328 Q553.0875,451.5328 553.2875,451.7453 Q553.5,451.9453 553.5,452.2203 Q553.5,452.4953 553.225,452.8203 Q552.825,453.2828 552.1875,453.5453 Q551.325,453.9078 550.2875,453.9078 Q549.075,453.9078 548.1125,453.4078 Q547.325,453.0078 546.775,452.1578 Q546.225,451.2953 546.225,450.2703 L546.225,449.3453 Q546.225,448.2828 546.7125,447.3703 Q547.2125,446.4453 548.0875,445.9578 Q548.9625,445.4578 549.95,445.4578 Q550.5375,445.4578 551.05,445.5953 Q551.575,445.7203 552.0125,446.0078 Z " fill="#000000"/><text fill="#000000" font-family="sans-serif" font-size="11.2" lengthAdjust="spacing" textLength="64.8" x="566.2" y="453.9453">EmailService</text><line style="stroke:#000000;stroke-width:0.4000000000000001;" x1="467.2" x2="704" y1="462.1078" y2="462.1078"/><line style="stroke:#000000;stroke-width:0.4000000000000001;" x1="467.2" x2="704" y1="468.5078" y2="468.5078"/><ellipse cx="475.2" cy="480.3563" fill="#84BE84" rx="2.4" ry="2.4" style="stroke:#038048;stroke-width:0.8000000000000002;"/><text fill="#000000" font-family="sans-serif" font-size="11.2" lengthAdjust="spacing" textLength="217.6" x="482.4" y="483.7938">createEmail(candidateEmail, subject, body)</text><ellipse cx="475.2" cy="495.2531" fill="#84BE84" rx="2.4" ry="2.4" style="stroke:#038048;stroke-width:0.8000000000000002;"/><text fill="#000000" font-family="sans-serif" font-size="11.2" lengthAdjust="spacing" textLength="109.6" x="482.4" y="498.6906">sendAllEmails(emails)</text></g><!--class ApplicationRepository--><g id="elem_ApplicationRepository"><rect codeLine="46" fill="#FFFFFF" height="68.1938" id="ApplicationRepository" rx="2" ry="2" style="stroke:#000000;stroke-width:0.4000000000000001;" width="137.6" x="164.8" y="625.7078"/><ellipse cx="177.88" cy="638.5078" fill="#B4A7E5" rx="8.8" ry="8.8" style="stroke:#181818;stroke-width:0.8000000000000002;"/><path d="M178.6425,635.8203 L178.6425,641.1453 L180.0175,641.1453 Q180.505,641.1453 180.7175,641.3328 Q180.93,641.5203 180.93,641.8328 Q180.93,642.1328 180.7175,642.3203 Q180.505,642.5078 180.0175,642.5078 L175.905,642.5078 Q175.4175,642.5078 175.205,642.3203 Q174.9925,642.1328 174.9925,641.8203 Q174.9925,641.5203 175.205,641.3328 Q175.4175,641.1453 175.905,641.1453 L177.28,641.1453 L177.28,635.8203 L175.905,635.8203 Q175.4175,635.8203 175.205,635.6328 Q174.9925,635.4453 174.9925,635.1328 Q174.9925,634.8328 175.205,634.6453 Q175.4175,634.4578 175.905,634.4578 L180.0175,634.4578 Q180.505,634.4578 180.7175,634.6453 Q180.93,634.8328 180.93,635.1328 Q180.93,635.4453 180.7175,635.6328 Q180.505,635.8203 180.0175,635.8203 L178.6425,635.8203 Z " fill="#000000"/><text fill="#000000" font-family="sans-serif" font-size="11.2" font-style="italic" lengthAdjust="spacing" textLength="109.6" x="189.32" y="643.1453">ApplicationRepository</text><line style="stroke:#000000;stroke-width:0.4000000000000001;" x1="165.6" x2="301.6" y1="651.3078" y2="651.3078"/><line style="stroke:#000000;stroke-width:0.4000000000000001;" x1="165.6" x2="301.6" y1="657.7078" y2="657.7078"/><ellipse cx="173.6" cy="669.5563" fill="#84BE84" rx="2.4" ry="2.4" style="stroke:#038048;stroke-width:0.8000000000000002;"/><text fill="#000000" font-family="sans-serif" font-size="11.2" lengthAdjust="spacing" textLength="80" x="180.8" y="672.9938">allApplications()</text><ellipse cx="173.6" cy="684.4531" fill="#84BE84" rx="2.4" ry="2.4" style="stroke:#038048;stroke-width:0.8000000000000002;"/><text fill="#000000" font-family="sans-serif" font-size="11.2" lengthAdjust="spacing" textLength="116.8" x="180.8" y="687.8906">ofIdentity(applicationId)</text></g><!--class Application--><g id="elem_Application"><rect codeLine="53" fill="#FFFFFF" height="261.8531" id="Application" rx="2" ry="2" style="stroke:#000000;stroke-width:0.4000000000000001;" width="431.2" x="18" y="806.9078"/><ellipse cx="202.6" cy="819.7078" fill="#ADD1B2" rx="8.8" ry="8.8" style="stroke:#181818;stroke-width:0.8000000000000002;"/><path d="M204.8125,816.4078 Q204.9375,816.2328 205.0875,816.1453 Q205.2375,816.0578 205.4125,816.0578 Q205.7125,816.0578 205.9,816.2703 Q206.0875,816.4703 206.0875,816.9578 L206.0875,818.1203 Q206.0875,818.6078 205.9,818.8203 Q205.7125,819.0328 205.4125,819.0328 Q205.1375,819.0328 204.975,818.8703 Q204.8125,818.7203 204.725,818.3078 Q204.6875,818.0203 204.5375,817.8703 Q204.275,817.5703 203.7875,817.3953 Q203.3,817.2203 202.8,817.2203 Q202.1875,817.2203 201.675,817.4828 Q201.175,817.7453 200.775,818.3453 Q200.3875,818.9453 200.3875,819.7703 L200.3875,820.6453 Q200.3875,821.6328 201.1,822.2953 Q201.8125,822.9453 203.0875,822.9453 Q203.8375,822.9453 204.3625,822.7453 Q204.675,822.6203 205.0125,822.2703 Q205.225,822.0578 205.3375,821.9953 Q205.4625,821.9328 205.625,821.9328 Q205.8875,821.9328 206.0875,822.1453 Q206.3,822.3453 206.3,822.6203 Q206.3,822.8953 206.025,823.2203 Q205.625,823.6828 204.9875,823.9453 Q204.125,824.3078 203.0875,824.3078 Q201.875,824.3078 200.9125,823.8078 Q200.125,823.4078 199.575,822.5578 Q199.025,821.6953 199.025,820.6703 L199.025,819.7453 Q199.025,818.6828 199.5125,817.7703 Q200.0125,816.8453 200.8875,816.3578 Q201.7625,815.8578 202.75,815.8578 Q203.3375,815.8578 203.85,815.9953 Q204.375,816.1203 204.8125,816.4078 Z " fill="#000000"/><text fill="#000000" font-family="sans-serif" font-size="11.2" lengthAdjust="spacing" textLength="55.2" x="219" y="824.3453">Application</text><line style="stroke:#000000;stroke-width:0.4000000000000001;" x1="18.8" x2="448.4" y1="832.5078" y2="832.5078"/><line style="stroke:#000000;stroke-width:0.4000000000000001;" x1="18.8" x2="448.4" y1="838.9078" y2="838.9078"/><ellipse cx="26.8" cy="850.7563" fill="#84BE84" rx="2.4" ry="2.4" style="stroke:#038048;stroke-width:0.8000000000000002;"/><text fill="#000000" font-family="sans-serif" font-size="11.2" lengthAdjust="spacing" textLength="410.4" x="34" y="854.1938">Application(rank, createdOn, applicationFiles, jobReference, candidate, operator)</text><ellipse cx="26.8" cy="865.6531" fill="#84BE84" rx="2.4" ry="2.4" style="stroke:#038048;stroke-width:0.8000000000000002;"/><text fill="#000000" font-family="sans-serif" font-size="11.2" lengthAdjust="spacing" textLength="129.6" x="34" y="869.0906">sameAs(otherApplication)</text><ellipse cx="26.8" cy="880.55" fill="#84BE84" rx="2.4" ry="2.4" style="stroke:#038048;stroke-width:0.8000000000000002;"/><text fill="#000000" font-family="sans-serif" font-size="11.2" lengthAdjust="spacing" textLength="123.2" x="34" y="883.9875">equals(otherApplication)</text><ellipse cx="26.8" cy="895.4469" fill="#84BE84" rx="2.4" ry="2.4" style="stroke:#038048;stroke-width:0.8000000000000002;"/><text fill="#000000" font-family="sans-serif" font-size="11.2" lengthAdjust="spacing" textLength="60" x="34" y="898.8844">hashCode()</text><ellipse cx="26.8" cy="910.3438" fill="#84BE84" rx="2.4" ry="2.4" style="stroke:#038048;stroke-width:0.8000000000000002;"/><text fill="#000000" font-family="sans-serif" font-size="11.2" lengthAdjust="spacing" textLength="147.2" x="34" y="913.7813">compareTo(otherApplication)</text><ellipse cx="26.8" cy="925.2406" fill="#84BE84" rx="2.4" ry="2.4" style="stroke:#038048;stroke-width:0.8000000000000002;"/><text fill="#000000" font-family="sans-serif" font-size="11.2" lengthAdjust="spacing" textLength="44" x="34" y="928.6781">identity()</text><ellipse cx="26.8" cy="940.1375" fill="#84BE84" rx="2.4" ry="2.4" style="stroke:#038048;stroke-width:0.8000000000000002;"/><text fill="#000000" font-family="sans-serif" font-size="11.2" lengthAdjust="spacing" textLength="30.4" x="34" y="943.575">rank()</text><ellipse cx="26.8" cy="955.0344" fill="#84BE84" rx="2.4" ry="2.4" style="stroke:#038048;stroke-width:0.8000000000000002;"/><text fill="#000000" font-family="sans-serif" font-size="11.2" lengthAdjust="spacing" textLength="88" x="34" y="958.4719">submissionDate()</text><ellipse cx="26.8" cy="969.9313" fill="#84BE84" rx="2.4" ry="2.4" style="stroke:#038048;stroke-width:0.8000000000000002;"/><text fill="#000000" font-family="sans-serif" font-size="11.2" lengthAdjust="spacing" textLength="38.4" x="34" y="973.3688">status()</text><ellipse cx="26.8" cy="984.8281" fill="#84BE84" rx="2.4" ry="2.4" style="stroke:#038048;stroke-width:0.8000000000000002;"/><text fill="#000000" font-family="sans-serif" font-size="11.2" lengthAdjust="spacing" textLength="48.8" x="34" y="988.2656">dataFile()</text><ellipse cx="26.8" cy="999.725" fill="#84BE84" rx="2.4" ry="2.4" style="stroke:#038048;stroke-width:0.8000000000000002;"/><text fill="#000000" font-family="sans-serif" font-size="11.2" lengthAdjust="spacing" textLength="51.2" x="34" y="1003.1625">operator()</text><ellipse cx="26.8" cy="1014.6219" fill="#84BE84" rx="2.4" ry="2.4" style="stroke:#038048;stroke-width:0.8000000000000002;"/><text fill="#000000" font-family="sans-serif" font-size="11.2" lengthAdjust="spacing" textLength="57.6" x="34" y="1018.0594">candidate()</text><ellipse cx="26.8" cy="1029.5188" fill="#84BE84" rx="2.4" ry="2.4" style="stroke:#038048;stroke-width:0.8000000000000002;"/><text fill="#000000" font-family="sans-serif" font-size="11.2" lengthAdjust="spacing" textLength="76" x="34" y="1032.9563">jobReference()</text><ellipse cx="26.8" cy="1044.4156" fill="#84BE84" rx="2.4" ry="2.4" style="stroke:#038048;stroke-width:0.8000000000000002;"/><text fill="#000000" font-family="sans-serif" font-size="11.2" lengthAdjust="spacing" textLength="92" x="34" y="1047.8531">updateRank(rank)</text><ellipse cx="26.8" cy="1059.3125" fill="#84BE84" rx="2.4" ry="2.4" style="stroke:#038048;stroke-width:0.8000000000000002;"/><text fill="#000000" font-family="sans-serif" font-size="11.2" lengthAdjust="spacing" textLength="47.2" x="34" y="1062.75">toString()</text></g><!--class Email--><g id="elem_Email"><rect codeLine="71" fill="#FFFFFF" height="97.9875" id="Email" rx="2" ry="2" style="stroke:#000000;stroke-width:0.4000000000000001;" width="206.4" x="477.6" y="888.9078"/><ellipse cx="563.8" cy="901.7078" fill="#ADD1B2" rx="8.8" ry="8.8" style="stroke:#181818;stroke-width:0.8000000000000002;"/><path d="M566.0125,898.4078 Q566.1375,898.2328 566.2875,898.1453 Q566.4375,898.0578 566.6125,898.0578 Q566.9125,898.0578 567.1,898.2703 Q567.2875,898.4703 567.2875,898.9578 L567.2875,900.1203 Q567.2875,900.6078 567.1,900.8203 Q566.9125,901.0328 566.6125,901.0328 Q566.3375,901.0328 566.175,900.8703 Q566.0125,900.7203 565.925,900.3078 Q565.8875,900.0203 565.7375,899.8703 Q565.475,899.5703 564.9875,899.3953 Q564.5,899.2203 564,899.2203 Q563.3875,899.2203 562.875,899.4828 Q562.375,899.7453 561.975,900.3453 Q561.5875,900.9453 561.5875,901.7703 L561.5875,902.6453 Q561.5875,903.6328 562.3,904.2953 Q563.0125,904.9453 564.2875,904.9453 Q565.0375,904.9453 565.5625,904.7453 Q565.875,904.6203 566.2125,904.2703 Q566.425,904.0578 566.5375,903.9953 Q566.6625,903.9328 566.825,903.9328 Q567.0875,903.9328 567.2875,904.1453 Q567.5,904.3453 567.5,904.6203 Q567.5,904.8953 567.225,905.2203 Q566.825,905.6828 566.1875,905.9453 Q565.325,906.3078 564.2875,906.3078 Q563.075,906.3078 562.1125,905.8078 Q561.325,905.4078 560.775,904.5578 Q560.225,903.6953 560.225,902.6703 L560.225,901.7453 Q560.225,900.6828 560.7125,899.7703 Q561.2125,898.8453 562.0875,898.3578 Q562.9625,897.8578 563.95,897.8578 Q564.5375,897.8578 565.05,897.9953 Q565.575,898.1203 566.0125,898.4078 Z " fill="#000000"/><text fill="#000000" font-family="sans-serif" font-size="11.2" lengthAdjust="spacing" textLength="27.2" x="580.2" y="906.3453">Email</text><line style="stroke:#000000;stroke-width:0.4000000000000001;" x1="478.4" x2="683.2" y1="914.5078" y2="914.5078"/><line style="stroke:#000000;stroke-width:0.4000000000000001;" x1="478.4" x2="683.2" y1="920.9078" y2="920.9078"/><ellipse cx="486.4" cy="932.7563" fill="#84BE84" rx="2.4" ry="2.4" style="stroke:#038048;stroke-width:0.8000000000000002;"/><text fill="#000000" font-family="sans-serif" font-size="11.2" lengthAdjust="spacing" textLength="185.6" x="493.6" y="936.1938">Email(candidateEmail, subject, body)</text><ellipse cx="486.4" cy="947.6531" fill="#84BE84" rx="2.4" ry="2.4" style="stroke:#038048;stroke-width:0.8000000000000002;"/><text fill="#000000" font-family="sans-serif" font-size="11.2" lengthAdjust="spacing" textLength="84.8" x="493.6" y="951.0906">candidateEmail()</text><ellipse cx="486.4" cy="962.55" fill="#84BE84" rx="2.4" ry="2.4" style="stroke:#038048;stroke-width:0.8000000000000002;"/><text fill="#000000" font-family="sans-serif" font-size="11.2" lengthAdjust="spacing" textLength="44" x="493.6" y="965.9875">subject()</text><ellipse cx="486.4" cy="977.4469" fill="#84BE84" rx="2.4" ry="2.4" style="stroke:#038048;stroke-width:0.8000000000000002;"/><text fill="#000000" font-family="sans-serif" font-size="11.2" lengthAdjust="spacing" textLength="32.8" x="493.6" y="980.8844">body()</text></g><!--class Jobs4UProtocol--><g id="elem_Jobs4UProtocol"><rect codeLine="80" fill="#FFFFFF" height="127.7813" id="Jobs4UProtocol" rx="2" ry="2" style="stroke:#000000;stroke-width:0.4000000000000001;" width="187.2" x="644.8" y="595.7078"/><ellipse cx="695.8" cy="608.5078" fill="#ADD1B2" rx="8.8" ry="8.8" style="stroke:#181818;stroke-width:0.8000000000000002;"/><path d="M698.0125,605.2078 Q698.1375,605.0328 698.2875,604.9453 Q698.4375,604.8578 698.6125,604.8578 Q698.9125,604.8578 699.1,605.0703 Q699.2875,605.2703 699.2875,605.7578 L699.2875,606.9203 Q699.2875,607.4078 699.1,607.6203 Q698.9125,607.8328 698.6125,607.8328 Q698.3375,607.8328 698.175,607.6703 Q698.0125,607.5203 697.925,607.1078 Q697.8875,606.8203 697.7375,606.6703 Q697.475,606.3703 696.9875,606.1953 Q696.5,606.0203 696,606.0203 Q695.3875,606.0203 694.875,606.2828 Q694.375,606.5453 693.975,607.1453 Q693.5875,607.7453 693.5875,608.5703 L693.5875,609.4453 Q693.5875,610.4328 694.3,611.0953 Q695.0125,611.7453 696.2875,611.7453 Q697.0375,611.7453 697.5625,611.5453 Q697.875,611.4203 698.2125,611.0703 Q698.425,610.8578 698.5375,610.7953 Q698.6625,610.7328 698.825,610.7328 Q699.0875,610.7328 699.2875,610.9453 Q699.5,611.1453 699.5,611.4203 Q699.5,611.6953 699.225,612.0203 Q698.825,612.4828 698.1875,612.7453 Q697.325,613.1078 696.2875,613.1078 Q695.075,613.1078 694.1125,612.6078 Q693.325,612.2078 692.775,611.3578 Q692.225,610.4953 692.225,609.4703 L692.225,608.5453 Q692.225,607.4828 692.7125,606.5703 Q693.2125,605.6453 694.0875,605.1578 Q694.9625,604.6578 695.95,604.6578 Q696.5375,604.6578 697.05,604.7953 Q697.575,604.9203 698.0125,605.2078 Z " fill="#000000"/><text fill="#000000" font-family="sans-serif" font-size="11.2" lengthAdjust="spacing" textLength="78.4" x="712.2" y="613.1453">Jobs4UProtocol</text><line style="stroke:#000000;stroke-width:0.4000000000000001;" x1="645.6" x2="831.2" y1="621.3078" y2="621.3078"/><line style="stroke:#000000;stroke-width:0.4000000000000001;" x1="645.6" x2="831.2" y1="627.7078" y2="627.7078"/><ellipse cx="653.6" cy="639.5563" fill="#84BE84" rx="2.4" ry="2.4" style="stroke:#038048;stroke-width:0.8000000000000002;"/><text fill="#000000" font-family="sans-serif" font-size="11.2" lengthAdjust="spacing" textLength="87.2" x="660.8" y="642.9938">sendCommTest()</text><ellipse cx="653.6" cy="654.4531" fill="#84BE84" rx="2.4" ry="2.4" style="stroke:#038048;stroke-width:0.8000000000000002;"/><text fill="#000000" font-family="sans-serif" font-size="11.2" lengthAdjust="spacing" textLength="51.2" x="660.8" y="657.8906">sendAck()</text><ellipse cx="653.6" cy="669.35" fill="#84BE84" rx="2.4" ry="2.4" style="stroke:#038048;stroke-width:0.8000000000000002;"/><text fill="#000000" font-family="sans-serif" font-size="11.2" lengthAdjust="spacing" textLength="48" x="660.8" y="672.7875">sendErr()</text><ellipse cx="653.6" cy="684.2469" fill="#84BE84" rx="2.4" ry="2.4" style="stroke:#038048;stroke-width:0.8000000000000002;"/><text fill="#000000" font-family="sans-serif" font-size="11.2" lengthAdjust="spacing" textLength="88.8" x="660.8" y="687.6844">sendDisconnect()</text><ellipse cx="653.6" cy="699.1438" fill="#84BE84" rx="2.4" ry="2.4" style="stroke:#038048;stroke-width:0.8000000000000002;"/><text fill="#000000" font-family="sans-serif" font-size="11.2" lengthAdjust="spacing" textLength="136.8" x="660.8" y="702.5813">sendAuth(email, password)</text><ellipse cx="653.6" cy="714.0406" fill="#84BE84" rx="2.4" ry="2.4" style="stroke:#038048;stroke-width:0.8000000000000002;"/><text fill="#000000" font-family="sans-serif" font-size="11.2" lengthAdjust="spacing" textLength="166.4" x="660.8" y="717.4781">sendEmail(toWho, subject, body)</text></g><!--link NotifyCandidatesUI to NotifyCandidatesController--><g id="link_NotifyCandidatesUI_NotifyCandidatesController"><path codeLine="90" d="M448.8,163.7318 C448.8,185.0518 448.8,205.4758 448.8,227.6198 " fill="none" id="NotifyCandidatesUI-to-NotifyCandidatesController" style="stroke:#000000;stroke-width:0.8000000000000002;"/><polygon fill="#000000" points="448.8,232.4198,452,225.2198,448.8,228.4198,445.6,225.2198,448.8,232.4198" style="stroke:#000000;stroke-width:0.8000000000000002;"/></g><!--link NotifyCandidatesController to ApplicationService--><g id="link_NotifyCandidatesController_ApplicationService"><path codeLine="92" d="M382.184,345.4278 C356.136,367.2118 330.01,389.0684 303.954,410.8604 " fill="none" id="NotifyCandidatesController-to-ApplicationService" style="stroke:#000000;stroke-width:0.8000000000000002;"/><polygon fill="#000000" points="300.272,413.9398,307.8479,411.7753,303.3403,411.3736,303.742,406.866,300.272,413.9398" style="stroke:#000000;stroke-width:0.8000000000000002;"/></g><!--link NotifyCandidatesController to EmailService--><g id="link_NotifyCandidatesController_EmailService"><path codeLine="93" d="M491.144,345.4278 C513.824,375.2678 538.0873,407.1985 557.4553,432.6785 " fill="none" id="NotifyCandidatesController-to-EmailService" style="stroke:#000000;stroke-width:0.8000000000000002;"/><polygon fill="#000000" points="560.36,436.4998,558.5505,428.8313,557.9394,433.3154,553.4554,432.7043,560.36,436.4998" style="stroke:#000000;stroke-width:0.8000000000000002;"/></g><!--link ApplicationService to ApplicationRepository--><g id="link_ApplicationService_ApplicationRepository"><path codeLine="95" d="M233.6,527.0838 C233.6,559.1638 233.6,593.5798 233.6,620.8678 " fill="none" id="ApplicationService-to-ApplicationRepository" style="stroke:#000000;stroke-width:0.8000000000000002;"/><polygon fill="#000000" points="233.6,625.6678,236.8,618.4678,233.6,621.6678,230.4,618.4678,233.6,625.6678" style="stroke:#000000;stroke-width:0.8000000000000002;"/></g><!--link EmailService to Email--><g id="link_EmailService_Email"><path codeLine="96" d="M585.256,504.7958 C584.416,586.1158 582.3215,789.4681 581.3455,884.0441 " fill="none" id="EmailService-to-Email" style="stroke:#000000;stroke-width:0.8000000000000002;"/><polygon fill="#000000" points="581.296,888.8438,584.5701,881.6772,581.3373,884.844,578.1705,881.6112,581.296,888.8438" style="stroke:#000000;stroke-width:0.8000000000000002;"/><text fill="#000000" font-family="sans-serif" font-size="10.4" lengthAdjust="spacing" textLength="34.4" x="584.8" y="664.1305">creates</text></g><!--link EmailService to Jobs4UProtocol--><g id="link_EmailService_Jobs4UProtocol"><path codeLine="97" d="M612.744,504.6278 C633.24,529.7958 658.9448,561.362 683.7688,591.842 " fill="none" id="EmailService-to-Jobs4UProtocol" style="stroke:#000000;stroke-width:0.8000000000000002;"/><polygon fill="#000000" points="686.8,595.5638,684.7344,587.9603,684.274,592.4623,679.772,592.0019,686.8,595.5638" style="stroke:#000000;stroke-width:0.8000000000000002;"/></g><!--link ApplicationRepository to Application--><g id="link_ApplicationRepository_Application"><path codeLine="99" d="M233.6,693.8518 C233.6,722.2758 233.6,760.2678 233.6,802.0598 " fill="none" id="ApplicationRepository-to-Application" style="stroke:#000000;stroke-width:0.8000000000000002;"/><polygon fill="#000000" points="233.6,806.8598,236.8,799.6598,233.6,802.8598,230.4,799.6598,233.6,806.8598" style="stroke:#000000;stroke-width:0.8000000000000002;"/><text fill="#000000" font-family="sans-serif" font-size="10.4" lengthAdjust="spacing" textLength="28.8" x="234.4" y="761.3305">stores</text></g><!--SRC=[fLN9Rjim4BthAuYS55Gv5CYfXm9U4i0zD8Nj86UQ75kqAOvAKWtS8l_UaUI5j6G5QNMnCNmpVFDceTifKtBB2oOqTuxzIHXzOovs6ukLaHFKQDbBhZmq9oDhyRKrZZMXMZXQ2VRI-eZ6zzaMwZUmp_V9Mv8ibTV0RYRDrLF5DpMHE_OTlLhlbTcm2JTIIUx1tIH9IL7uXl2b1GV6Sw_Gt1mej_HRpxFNy-nmN7-VcCH5Zg_fRM3AWKkj34J6LQMqN5IhBGYVyhBKIZINTJ1ZbFiGa357j2hN0j_g74-i0zWmwGc9P55hi17vjJ9oT8xXbjWwHinhq2dIGy6LliPVv21sGRn5G_mgsi8fe8ZYKygjK1bRaHgX4nL9DXYNGlFJ9ui3-qi9Ad2aIKYi1KHQMDWevy46iDHoiyjOmFzHQN0Ps-9g3ckmO0Hax4G-OrY2vHxjxNMHn_kP32MPJKCmrpeiI3eGo3sY_OQhfn8CzNMwFVqDVQgo9ZQdFBh97AKBD6gaxLFdduirqlhTUbaeqIcIJPrhfWpLOis9Hf3o_0ZSH-I6HCFrJD9WAnyDrKpsyP185CtLhedkxBP9Av5yCl_TCOuNC78f-Zngnn02FokkXo4vT_a4PRo611Qqcs69WwxgA5behBEC35JtGZb7lbDA9Jvg9pyqKRgy5YEkpY7xcEDHdSWQAfWEj7Xuv77XRJqSrrezAka7kpi6NYhJxFbekTTxlQ_hIeiU1UguxsYotVtpZyDPnBCUgmaMnH9SV4KpRsBNiJrOsx5DbHDep2NB9aJbytPQCrOIbrTwYtjtSEhn9STUYPeKUvxEkxkl0uzJroLuk6hNxWv_poFSQ4dIymPSX3slc2HQXgTOxCjXqbqN41SjkYvONHStKa17Teht5m00]--></g></svg>