<?xml version="1.0" encoding="us-ascii" standalone="no"?><svg xmlns="http://www.w3.org/2000/svg" xmlns:xlink="http://www.w3.org/1999/xlink" contentStyleType="text/css" height="1190px" preserveAspectRatio="none" style="width:1275px;height:1190px;background:#FFFFFF;" version="1.1" viewBox="0 0 1275 1190" width="1275px" zoomAndPan="magnify"><defs/><g><rect fill="#FFFFFF" height="967.6523" style="stroke:#181818;stroke-width:1.0;" width="10" x="76.5" y="98.2422"/><rect fill="#FFFFFF" height="944.3613" style="stroke:#181818;stroke-width:1.0;" width="10" x="332.5" y="121.5332"/><rect fill="#FFFFFF" height="156.4551" style="stroke:#181818;stroke-width:1.0;" width="10" x="631.5" y="152.8242"/><rect fill="#FFFFFF" height="31.291" style="stroke:#181818;stroke-width:1.0;" width="10" x="631.5" y="398.1523"/><rect fill="#FFFFFF" height="31.291" style="stroke:#181818;stroke-width:1.0;" width="10" x="631.5" y="460.7344"/><rect fill="#FFFFFF" height="93.873" style="stroke:#181818;stroke-width:1.0;" width="10" x="631.5" y="523.3164"/><rect fill="#FFFFFF" height="379.123" style="stroke:#181818;stroke-width:1.0;" width="10" x="631.5" y="655.4805"/><rect fill="#FFFFFF" height="93.873" style="stroke:#181818;stroke-width:1.0;" width="10" x="798" y="184.1152"/><rect fill="#FFFFFF" height="31.291" style="stroke:#181818;stroke-width:1.0;" width="10" x="930.5" y="554.6074"/><rect fill="#FFFFFF" height="316.541" style="stroke:#181818;stroke-width:1.0;" width="10" x="930.5" y="686.7715"/><rect fill="#FFFFFF" height="31.291" style="stroke:#181818;stroke-width:1.0;" width="10" x="1059.5" y="215.4063"/><rect fill="#FFFFFF" height="199.377" style="stroke:#181818;stroke-width:1.0;" width="10" x="1197" y="772.6445"/><rect fill="none" height="269.6191" style="stroke:#000000;stroke-width:1.5;" width="732" x="261" y="355.5703"/><rect fill="none" height="286.25" style="stroke:#000000;stroke-width:1.5;" width="1258" x="10" y="787.6445"/><line style="stroke:#181818;stroke-width:0.5;stroke-dasharray:5.0,5.0;" x1="81" x2="81" y1="88.2422" y2="1090.8945"/><line style="stroke:#181818;stroke-width:0.5;stroke-dasharray:5.0,5.0;" x1="337" x2="337" y1="88.2422" y2="1090.8945"/><line style="stroke:#181818;stroke-width:0.5;stroke-dasharray:5.0,5.0;" x1="636" x2="636" y1="88.2422" y2="1090.8945"/><line style="stroke:#181818;stroke-width:0.5;stroke-dasharray:5.0,5.0;" x1="803" x2="803" y1="88.2422" y2="1090.8945"/><line style="stroke:#181818;stroke-width:0.5;stroke-dasharray:5.0,5.0;" x1="935" x2="935" y1="88.2422" y2="1090.8945"/><line style="stroke:#181818;stroke-width:0.5;stroke-dasharray:5.0,5.0;" x1="1064" x2="1064" y1="88.2422" y2="1090.8945"/><line style="stroke:#181818;stroke-width:0.5;stroke-dasharray:5.0,5.0;" x1="1202" x2="1202" y1="88.2422" y2="1090.8945"/><text fill="#000000" font-family="sans-serif" font-size="14" lengthAdjust="spacing" textLength="117" x="20" y="84.7285">CustomerManager</text><ellipse cx="81.5" cy="18.1211" fill="#E2E2F0" rx="8" ry="8" style="stroke:#181818;stroke-width:0.5;"/><path d="M81.5,26.1211 L81.5,53.1211 M68.5,34.1211 L94.5,34.1211 M81.5,53.1211 L68.5,68.1211 M81.5,53.1211 L94.5,68.1211 " fill="none" style="stroke:#181818;stroke-width:0.5;"/><text fill="#000000" font-family="sans-serif" font-size="14" lengthAdjust="spacing" textLength="117" x="20" y="1105.002">CustomerManager</text><ellipse cx="81.5" cy="1117.0156" fill="#E2E2F0" rx="8" ry="8" style="stroke:#181818;stroke-width:0.5;"/><path d="M81.5,1125.0156 L81.5,1152.0156 M68.5,1133.0156 L94.5,1133.0156 M81.5,1152.0156 L68.5,1167.0156 M81.5,1152.0156 L94.5,1167.0156 " fill="none" style="stroke:#181818;stroke-width:0.5;"/><rect fill="#E2E2F0" height="51.2422" rx="2.5" ry="2.5" style="stroke:#181818;stroke-width:0.5;" width="133" x="271" y="36"/><text fill="#000000" font-family="sans-serif" font-size="14" font-style="italic" lengthAdjust="spacing" textLength="95" x="290" y="58.1074">&#171;presentation&#187;</text><text fill="#000000" font-family="sans-serif" font-size="14" lengthAdjust="spacing" textLength="119" x="278" y="76.7285">NotifyCandidatesUI</text><rect fill="#E2E2F0" height="51.2422" rx="2.5" ry="2.5" style="stroke:#181818;stroke-width:0.5;" width="133" x="271" y="1089.8945"/><text fill="#000000" font-family="sans-serif" font-size="14" font-style="italic" lengthAdjust="spacing" textLength="95" x="290" y="1112.002">&#171;presentation&#187;</text><text fill="#000000" font-family="sans-serif" font-size="14" lengthAdjust="spacing" textLength="119" x="278" y="1130.623">NotifyCandidatesUI</text><rect fill="#E2E2F0" height="51.2422" rx="2.5" ry="2.5" style="stroke:#181818;stroke-width:0.5;" width="183" x="545" y="36"/><text fill="#000000" font-family="sans-serif" font-size="14" font-style="italic" lengthAdjust="spacing" textLength="75" x="599" y="58.1074">&#171;controller&#187;</text><text fill="#000000" font-family="sans-serif" font-size="14" lengthAdjust="spacing" textLength="169" x="552" y="76.7285">NotifyCandidatesController</text><rect fill="#E2E2F0" height="51.2422" rx="2.5" ry="2.5" style="stroke:#181818;stroke-width:0.5;" width="183" x="545" y="1089.8945"/><text fill="#000000" font-family="sans-serif" font-size="14" font-style="italic" lengthAdjust="spacing" textLength="75" x="599" y="1112.002">&#171;controller&#187;</text><text fill="#000000" font-family="sans-serif" font-size="14" lengthAdjust="spacing" textLength="169" x="552" y="1130.623">NotifyCandidatesController</text><rect fill="#E2E2F0" height="51.2422" rx="2.5" ry="2.5" style="stroke:#181818;stroke-width:0.5;" width="130" x="738" y="36"/><text fill="#000000" font-family="sans-serif" font-size="14" font-style="italic" lengthAdjust="spacing" textLength="60" x="773" y="58.1074">&#171;service&#187;</text><text fill="#000000" font-family="sans-serif" font-size="14" lengthAdjust="spacing" textLength="116" x="745" y="76.7285">ApplicationService</text><rect fill="#E2E2F0" height="51.2422" rx="2.5" ry="2.5" style="stroke:#181818;stroke-width:0.5;" width="130" x="738" y="1089.8945"/><text fill="#000000" font-family="sans-serif" font-size="14" font-style="italic" lengthAdjust="spacing" textLength="60" x="773" y="1112.002">&#171;service&#187;</text><text fill="#000000" font-family="sans-serif" font-size="14" lengthAdjust="spacing" textLength="116" x="745" y="1130.623">ApplicationService</text><rect fill="#E2E2F0" height="51.2422" rx="2.5" ry="2.5" style="stroke:#181818;stroke-width:0.5;" width="95" x="888" y="36"/><text fill="#000000" font-family="sans-serif" font-size="14" font-style="italic" lengthAdjust="spacing" textLength="60" x="905.5" y="58.1074">&#171;service&#187;</text><text fill="#000000" font-family="sans-serif" font-size="14" lengthAdjust="spacing" textLength="81" x="895" y="76.7285">EmailService</text><rect fill="#E2E2F0" height="51.2422" rx="2.5" ry="2.5" style="stroke:#181818;stroke-width:0.5;" width="95" x="888" y="1089.8945"/><text fill="#000000" font-family="sans-serif" font-size="14" font-style="italic" lengthAdjust="spacing" textLength="60" x="905.5" y="1112.002">&#171;service&#187;</text><text fill="#000000" font-family="sans-serif" font-size="14" lengthAdjust="spacing" textLength="81" x="895" y="1130.623">EmailService</text><text fill="#000000" font-family="sans-serif" font-size="14" font-style="italic" lengthAdjust="spacing" textLength="79" x="1022" y="66.1074">&#171;repository&#187;</text><text fill="#000000" font-family="sans-serif" font-size="14" lengthAdjust="spacing" textLength="137" x="993" y="84.7285">ApplicationRepository</text><path d="M1046.5,15 C1046.5,5 1064.5,5 1064.5,5 C1064.5,5 1082.5,5 1082.5,15 L1082.5,41 C1082.5,51 1064.5,51 1064.5,51 C1064.5,51 1046.5,51 1046.5,41 L1046.5,15 " fill="#E2E2F0" style="stroke:#181818;stroke-width:1.5;"/><path d="M1046.5,15 C1046.5,25 1064.5,25 1064.5,25 C1064.5,25 1082.5,25 1082.5,15 " fill="none" style="stroke:#181818;stroke-width:1.5;"/><text fill="#000000" font-family="sans-serif" font-size="14" font-style="italic" lengthAdjust="spacing" textLength="79" x="1022" y="1105.002">&#171;repository&#187;</text><text fill="#000000" font-family="sans-serif" font-size="14" lengthAdjust="spacing" textLength="137" x="993" y="1123.623">ApplicationRepository</text><path d="M1046.5,1137.1367 C1046.5,1127.1367 1064.5,1127.1367 1064.5,1127.1367 C1064.5,1127.1367 1082.5,1127.1367 1082.5,1137.1367 L1082.5,1163.1367 C1082.5,1173.1367 1064.5,1173.1367 1064.5,1173.1367 C1064.5,1173.1367 1046.5,1173.1367 1046.5,1163.1367 L1046.5,1137.1367 " fill="#E2E2F0" style="stroke:#181818;stroke-width:1.5;"/><path d="M1046.5,1137.1367 C1046.5,1147.1367 1064.5,1147.1367 1064.5,1147.1367 C1064.5,1147.1367 1082.5,1147.1367 1082.5,1137.1367 " fill="none" style="stroke:#181818;stroke-width:1.5;"/><rect fill="#E2E2F0" height="51.2422" rx="2.5" ry="2.5" style="stroke:#181818;stroke-width:0.5;" width="112" x="1146" y="36"/><text fill="#000000" font-family="sans-serif" font-size="14" font-style="italic" lengthAdjust="spacing" textLength="67" x="1168.5" y="58.1074">&#171;protocol&#187;</text><text fill="#000000" font-family="sans-serif" font-size="14" lengthAdjust="spacing" textLength="98" x="1153" y="76.7285">Jobs4UProtocol</text><rect fill="#E2E2F0" height="51.2422" rx="2.5" ry="2.5" style="stroke:#181818;stroke-width:0.5;" width="112" x="1146" y="1089.8945"/><text fill="#000000" font-family="sans-serif" font-size="14" font-style="italic" lengthAdjust="spacing" textLength="67" x="1168.5" y="1112.002">&#171;protocol&#187;</text><text fill="#000000" font-family="sans-serif" font-size="14" lengthAdjust="spacing" textLength="98" x="1153" y="1130.623">Jobs4UProtocol</text><rect fill="#FFFFFF" height="967.6523" style="stroke:#181818;stroke-width:1.0;" width="10" x="76.5" y="98.2422"/><rect fill="#FFFFFF" height="944.3613" style="stroke:#181818;stroke-width:1.0;" width="10" x="332.5" y="121.5332"/><rect fill="#FFFFFF" height="156.4551" style="stroke:#181818;stroke-width:1.0;" width="10" x="631.5" y="152.8242"/><rect fill="#FFFFFF" height="31.291" style="stroke:#181818;stroke-width:1.0;" width="10" x="631.5" y="398.1523"/><rect fill="#FFFFFF" height="31.291" style="stroke:#181818;stroke-width:1.0;" width="10" x="631.5" y="460.7344"/><rect fill="#FFFFFF" height="93.873" style="stroke:#181818;stroke-width:1.0;" width="10" x="631.5" y="523.3164"/><rect fill="#FFFFFF" height="379.123" style="stroke:#181818;stroke-width:1.0;" width="10" x="631.5" y="655.4805"/><rect fill="#FFFFFF" height="93.873" style="stroke:#181818;stroke-width:1.0;" width="10" x="798" y="184.1152"/><rect fill="#FFFFFF" height="31.291" style="stroke:#181818;stroke-width:1.0;" width="10" x="930.5" y="554.6074"/><rect fill="#FFFFFF" height="316.541" style="stroke:#181818;stroke-width:1.0;" width="10" x="930.5" y="686.7715"/><rect fill="#FFFFFF" height="31.291" style="stroke:#181818;stroke-width:1.0;" width="10" x="1059.5" y="215.4063"/><rect fill="#FFFFFF" height="199.377" style="stroke:#181818;stroke-width:1.0;" width="10" x="1197" y="772.6445"/><polygon fill="#181818" points="320.5,117.5332,330.5,121.5332,320.5,125.5332,324.5,121.5332" style="stroke:#181818;stroke-width:1.0;"/><line style="stroke:#181818;stroke-width:1.0;" x1="86.5" x2="326.5" y1="121.5332" y2="121.5332"/><text fill="#000000" font-family="sans-serif" font-size="13" font-weight="bold" lengthAdjust="spacing" textLength="7" x="93.5" y="116.2705">1</text><text fill="#000000" font-family="sans-serif" font-size="13" lengthAdjust="spacing" textLength="139" x="104.5" y="116.2705">asks to rank candidates</text><polygon fill="#181818" points="619.5,148.8242,629.5,152.8242,619.5,156.8242,623.5,152.8242" style="stroke:#181818;stroke-width:1.0;"/><line style="stroke:#181818;stroke-width:1.0;" x1="342.5" x2="625.5" y1="152.8242" y2="152.8242"/><text fill="#000000" font-family="sans-serif" font-size="13" font-weight="bold" lengthAdjust="spacing" textLength="7" x="349.5" y="147.5615">2</text><text fill="#000000" font-family="sans-serif" font-size="13" lengthAdjust="spacing" textLength="146" x="360.5" y="147.5615">findApplicationsToNotify()</text><polygon fill="#181818" points="786,180.1152,796,184.1152,786,188.1152,790,184.1152" style="stroke:#181818;stroke-width:1.0;"/><line style="stroke:#181818;stroke-width:1.0;" x1="641.5" x2="792" y1="184.1152" y2="184.1152"/><text fill="#000000" font-family="sans-serif" font-size="13" font-weight="bold" lengthAdjust="spacing" textLength="7" x="648.5" y="178.8525">3</text><text fill="#000000" font-family="sans-serif" font-size="13" lengthAdjust="spacing" textLength="92" x="659.5" y="178.8525">allApplications()</text><polygon fill="#181818" points="1047.5,211.4063,1057.5,215.4063,1047.5,219.4063,1051.5,215.4063" style="stroke:#181818;stroke-width:1.0;"/><line style="stroke:#181818;stroke-width:1.0;" x1="808" x2="1053.5" y1="215.4063" y2="215.4063"/><text fill="#000000" font-family="sans-serif" font-size="13" font-weight="bold" lengthAdjust="spacing" textLength="7" x="815" y="210.1436">4</text><text fill="#000000" font-family="sans-serif" font-size="13" lengthAdjust="spacing" textLength="43" x="826" y="210.1436">findAll()</text><polygon fill="#181818" points="819,242.6973,809,246.6973,819,250.6973,815,246.6973" style="stroke:#181818;stroke-width:1.0;"/><line style="stroke:#181818;stroke-width:1.0;stroke-dasharray:2.0,2.0;" x1="813" x2="1063.5" y1="246.6973" y2="246.6973"/><text fill="#000000" font-family="sans-serif" font-size="13" font-weight="bold" lengthAdjust="spacing" textLength="7" x="825" y="241.4346">5</text><text fill="#000000" font-family="sans-serif" font-size="13" lengthAdjust="spacing" textLength="69" x="836" y="241.4346">applications</text><polygon fill="#181818" points="652.5,273.9883,642.5,277.9883,652.5,281.9883,648.5,277.9883" style="stroke:#181818;stroke-width:1.0;"/><line style="stroke:#181818;stroke-width:1.0;stroke-dasharray:2.0,2.0;" x1="646.5" x2="802" y1="277.9883" y2="277.9883"/><text fill="#000000" font-family="sans-serif" font-size="13" font-weight="bold" lengthAdjust="spacing" textLength="7" x="658.5" y="272.7256">6</text><text fill="#000000" font-family="sans-serif" font-size="13" lengthAdjust="spacing" textLength="69" x="669.5" y="272.7256">applications</text><polygon fill="#181818" points="353.5,305.2793,343.5,309.2793,353.5,313.2793,349.5,309.2793" style="stroke:#181818;stroke-width:1.0;"/><line style="stroke:#181818;stroke-width:1.0;stroke-dasharray:2.0,2.0;" x1="347.5" x2="635.5" y1="309.2793" y2="309.2793"/><text fill="#000000" font-family="sans-serif" font-size="13" font-weight="bold" lengthAdjust="spacing" textLength="7" x="359.5" y="304.0166">7</text><text fill="#000000" font-family="sans-serif" font-size="13" lengthAdjust="spacing" textLength="69" x="370.5" y="304.0166">applications</text><polygon fill="#181818" points="97.5,336.5703,87.5,340.5703,97.5,344.5703,93.5,340.5703" style="stroke:#181818;stroke-width:1.0;"/><line style="stroke:#181818;stroke-width:1.0;stroke-dasharray:2.0,2.0;" x1="91.5" x2="331.5" y1="340.5703" y2="340.5703"/><text fill="#000000" font-family="sans-serif" font-size="13" font-weight="bold" lengthAdjust="spacing" textLength="7" x="103.5" y="335.3076">8</text><text fill="#000000" font-family="sans-serif" font-size="13" lengthAdjust="spacing" textLength="211" x="114.5" y="335.3076">shows how many emails will be sent</text><path d="M261,355.5703 L334,355.5703 L334,364.8613 L324,374.8613 L261,374.8613 L261,355.5703 " fill="#EEEEEE" style="stroke:#000000;stroke-width:1.5;"/><rect fill="none" height="269.6191" style="stroke:#000000;stroke-width:1.5;" width="732" x="261" y="355.5703"/><text fill="#000000" font-family="sans-serif" font-size="13" font-weight="bold" lengthAdjust="spacing" textLength="28" x="276" y="370.5986">loop</text><text fill="#000000" font-family="sans-serif" font-size="11" font-weight="bold" lengthAdjust="spacing" textLength="86" x="349" y="369.4404">[for each email]</text><polygon fill="#181818" points="619.5,394.1523,629.5,398.1523,619.5,402.1523,623.5,398.1523" style="stroke:#181818;stroke-width:1.0;"/><line style="stroke:#181818;stroke-width:1.0;" x1="342.5" x2="625.5" y1="398.1523" y2="398.1523"/><text fill="#000000" font-family="sans-serif" font-size="13" font-weight="bold" lengthAdjust="spacing" textLength="7" x="349.5" y="392.8896">9</text><text fill="#000000" font-family="sans-serif" font-size="13" lengthAdjust="spacing" textLength="181" x="360.5" y="392.8896">findCandidateEmail(application)</text><polygon fill="#181818" points="353.5,425.4434,343.5,429.4434,353.5,433.4434,349.5,429.4434" style="stroke:#181818;stroke-width:1.0;"/><line style="stroke:#181818;stroke-width:1.0;stroke-dasharray:2.0,2.0;" x1="347.5" x2="635.5" y1="429.4434" y2="429.4434"/><text fill="#000000" font-family="sans-serif" font-size="13" font-weight="bold" lengthAdjust="spacing" textLength="14" x="359.5" y="424.1807">10</text><text fill="#000000" font-family="sans-serif" font-size="13" lengthAdjust="spacing" textLength="89" x="377.5" y="424.1807">candidateEmail</text><polygon fill="#181818" points="619.5,456.7344,629.5,460.7344,619.5,464.7344,623.5,460.7344" style="stroke:#181818;stroke-width:1.0;"/><line style="stroke:#181818;stroke-width:1.0;" x1="342.5" x2="625.5" y1="460.7344" y2="460.7344"/><text fill="#000000" font-family="sans-serif" font-size="13" font-weight="bold" lengthAdjust="spacing" textLength="14" x="349.5" y="455.4717">11</text><text fill="#000000" font-family="sans-serif" font-size="13" lengthAdjust="spacing" textLength="207" x="367.5" y="455.4717">checkApplicationStatus(application)</text><polygon fill="#181818" points="353.5,488.0254,343.5,492.0254,353.5,496.0254,349.5,492.0254" style="stroke:#181818;stroke-width:1.0;"/><line style="stroke:#181818;stroke-width:1.0;stroke-dasharray:2.0,2.0;" x1="347.5" x2="635.5" y1="492.0254" y2="492.0254"/><text fill="#000000" font-family="sans-serif" font-size="13" font-weight="bold" lengthAdjust="spacing" textLength="14" x="359.5" y="486.7627">12</text><text fill="#000000" font-family="sans-serif" font-size="13" lengthAdjust="spacing" textLength="100" x="377.5" y="486.7627">applicationStatus</text><polygon fill="#181818" points="619.5,519.3164,629.5,523.3164,619.5,527.3164,623.5,523.3164" style="stroke:#181818;stroke-width:1.0;"/><line style="stroke:#181818;stroke-width:1.0;" x1="342.5" x2="625.5" y1="523.3164" y2="523.3164"/><text fill="#000000" font-family="sans-serif" font-size="13" font-weight="bold" lengthAdjust="spacing" textLength="14" x="349.5" y="518.0537">13</text><text fill="#000000" font-family="sans-serif" font-size="13" lengthAdjust="spacing" textLength="252" x="367.5" y="518.0537">createEmail(candidateEmail, subject, body)</text><polygon fill="#181818" points="918.5,550.6074,928.5,554.6074,918.5,558.6074,922.5,554.6074" style="stroke:#181818;stroke-width:1.0;"/><line style="stroke:#181818;stroke-width:1.0;" x1="641.5" x2="924.5" y1="554.6074" y2="554.6074"/><text fill="#000000" font-family="sans-serif" font-size="13" font-weight="bold" lengthAdjust="spacing" textLength="14" x="648.5" y="549.3447">14</text><text fill="#000000" font-family="sans-serif" font-size="13" lengthAdjust="spacing" textLength="252" x="666.5" y="549.3447">createEmail(candidateEmail, subject, body)</text><polygon fill="#181818" points="652.5,581.8984,642.5,585.8984,652.5,589.8984,648.5,585.8984" style="stroke:#181818;stroke-width:1.0;"/><line style="stroke:#181818;stroke-width:1.0;stroke-dasharray:2.0,2.0;" x1="646.5" x2="934.5" y1="585.8984" y2="585.8984"/><text fill="#000000" font-family="sans-serif" font-size="13" font-weight="bold" lengthAdjust="spacing" textLength="14" x="658.5" y="580.6357">15</text><text fill="#000000" font-family="sans-serif" font-size="13" lengthAdjust="spacing" textLength="31" x="676.5" y="580.6357">email</text><polygon fill="#181818" points="353.5,613.1895,343.5,617.1895,353.5,621.1895,349.5,617.1895" style="stroke:#181818;stroke-width:1.0;"/><line style="stroke:#181818;stroke-width:1.0;stroke-dasharray:2.0,2.0;" x1="347.5" x2="635.5" y1="617.1895" y2="617.1895"/><text fill="#000000" font-family="sans-serif" font-size="13" font-weight="bold" lengthAdjust="spacing" textLength="14" x="359.5" y="611.9268">16</text><text fill="#000000" font-family="sans-serif" font-size="13" lengthAdjust="spacing" textLength="31" x="377.5" y="611.9268">email</text><polygon fill="#181818" points="619.5,651.4805,629.5,655.4805,619.5,659.4805,623.5,655.4805" style="stroke:#181818;stroke-width:1.0;"/><line style="stroke:#181818;stroke-width:1.0;" x1="342.5" x2="625.5" y1="655.4805" y2="655.4805"/><text fill="#000000" font-family="sans-serif" font-size="13" font-weight="bold" lengthAdjust="spacing" textLength="14" x="349.5" y="650.2178">17</text><text fill="#000000" font-family="sans-serif" font-size="13" lengthAdjust="spacing" textLength="158" x="367.5" y="650.2178">sendEmails(emailsToSend)</text><polygon fill="#181818" points="918.5,682.7715,928.5,686.7715,918.5,690.7715,922.5,686.7715" style="stroke:#181818;stroke-width:1.0;"/><line style="stroke:#181818;stroke-width:1.0;" x1="641.5" x2="924.5" y1="686.7715" y2="686.7715"/><text fill="#000000" font-family="sans-serif" font-size="13" font-weight="bold" lengthAdjust="spacing" textLength="14" x="648.5" y="681.5088">18</text><text fill="#000000" font-family="sans-serif" font-size="13" lengthAdjust="spacing" textLength="173" x="666.5" y="681.5088">sendAllEmails(emailsToSend)</text><path d="M945,699.7715 L945,743.7715 L1237,743.7715 L1237,709.7715 L1227,699.7715 L945,699.7715 " fill="#FEFFDD" style="stroke:#181818;stroke-width:0.5;"/><path d="M1227,699.7715 L1227,709.7715 L1237,709.7715 L1227,699.7715 " fill="#FEFFDD" style="stroke:#181818;stroke-width:0.5;"/><text fill="#000000" font-family="sans-serif" font-size="13" lengthAdjust="spacing" textLength="270" x="951" y="718.7998">All emails are sent through the FollowUpServer</text><text fill="#000000" font-family="sans-serif" font-size="13" lengthAdjust="spacing" textLength="271" x="951" y="736.0908">which is accessed through the Jobs4UProtocol</text><polygon fill="#181818" points="1185,768.6445,1195,772.6445,1185,776.6445,1189,772.6445" style="stroke:#181818;stroke-width:1.0;"/><line style="stroke:#181818;stroke-width:1.0;" x1="940.5" x2="1191" y1="772.6445" y2="772.6445"/><text fill="#000000" font-family="sans-serif" font-size="13" font-weight="bold" lengthAdjust="spacing" textLength="14" x="947.5" y="767.3818">19</text><text fill="#000000" font-family="sans-serif" font-size="13" lengthAdjust="spacing" textLength="193" x="965.5" y="767.3818">sendEmail(toWho, subject, body)</text><path d="M10,787.6445 L71,787.6445 L71,796.9355 L61,806.9355 L10,806.9355 L10,787.6445 " fill="#EEEEEE" style="stroke:#000000;stroke-width:1.5;"/><rect fill="none" height="286.25" style="stroke:#000000;stroke-width:1.5;" width="1258" x="10" y="787.6445"/><text fill="#000000" font-family="sans-serif" font-size="13" font-weight="bold" lengthAdjust="spacing" textLength="16" x="25" y="802.6729">alt</text><text fill="#000000" font-family="sans-serif" font-size="11" font-weight="bold" lengthAdjust="spacing" textLength="112" x="86" y="801.5146">[return is ACK code]</text><polygon fill="#181818" points="951.5,826.2266,941.5,830.2266,951.5,834.2266,947.5,830.2266" style="stroke:#181818;stroke-width:1.0;"/><line style="stroke:#181818;stroke-width:1.0;stroke-dasharray:2.0,2.0;" x1="945.5" x2="1196" y1="830.2266" y2="830.2266"/><text fill="#000000" font-family="sans-serif" font-size="13" font-weight="bold" lengthAdjust="spacing" textLength="14" x="957.5" y="824.9639">20</text><text fill="#000000" font-family="sans-serif" font-size="13" lengthAdjust="spacing" textLength="122" x="975.5" y="824.9639">successfull operation</text><polygon fill="#181818" points="652.5,857.5176,642.5,861.5176,652.5,865.5176,648.5,861.5176" style="stroke:#181818;stroke-width:1.0;"/><line style="stroke:#181818;stroke-width:1.0;stroke-dasharray:2.0,2.0;" x1="646.5" x2="929.5" y1="861.5176" y2="861.5176"/><text fill="#000000" font-family="sans-serif" font-size="13" font-weight="bold" lengthAdjust="spacing" textLength="14" x="658.5" y="856.2549">21</text><text fill="#000000" font-family="sans-serif" font-size="13" lengthAdjust="spacing" textLength="122" x="676.5" y="856.2549">successfull operation</text><polygon fill="#181818" points="353.5,888.8086,343.5,892.8086,353.5,896.8086,349.5,892.8086" style="stroke:#181818;stroke-width:1.0;"/><line style="stroke:#181818;stroke-width:1.0;stroke-dasharray:2.0,2.0;" x1="347.5" x2="630.5" y1="892.8086" y2="892.8086"/><text fill="#000000" font-family="sans-serif" font-size="13" font-weight="bold" lengthAdjust="spacing" textLength="14" x="359.5" y="887.5459">22</text><text fill="#000000" font-family="sans-serif" font-size="13" lengthAdjust="spacing" textLength="122" x="377.5" y="887.5459">successfull operation</text><polygon fill="#181818" points="97.5,920.0996,87.5,924.0996,97.5,928.0996,93.5,924.0996" style="stroke:#181818;stroke-width:1.0;"/><line style="stroke:#181818;stroke-width:1.0;stroke-dasharray:2.0,2.0;" x1="91.5" x2="331.5" y1="924.0996" y2="924.0996"/><text fill="#000000" font-family="sans-serif" font-size="13" font-weight="bold" lengthAdjust="spacing" textLength="14" x="103.5" y="918.8369">23</text><text fill="#000000" font-family="sans-serif" font-size="13" lengthAdjust="spacing" textLength="147" x="121.5" y="918.8369">shows operation success</text><line style="stroke:#000000;stroke-width:1.0;stroke-dasharray:2.0,2.0;" x1="10" x2="1268" y1="933.0996" y2="933.0996"/><text fill="#000000" font-family="sans-serif" font-size="11" font-weight="bold" lengthAdjust="spacing" textLength="109" x="15" y="944.9697">[return is ERR code]</text><polygon fill="#181818" points="951.5,968.0215,941.5,972.0215,951.5,976.0215,947.5,972.0215" style="stroke:#181818;stroke-width:1.0;"/><line style="stroke:#181818;stroke-width:1.0;stroke-dasharray:2.0,2.0;" x1="945.5" x2="1201" y1="972.0215" y2="972.0215"/><text fill="#000000" font-family="sans-serif" font-size="13" font-weight="bold" lengthAdjust="spacing" textLength="14" x="957.5" y="966.7588">24</text><text fill="#000000" font-family="sans-serif" font-size="13" lengthAdjust="spacing" textLength="127" x="975.5" y="966.7588">could not send emails</text><polygon fill="#181818" points="652.5,999.3125,642.5,1003.3125,652.5,1007.3125,648.5,1003.3125" style="stroke:#181818;stroke-width:1.0;"/><line style="stroke:#181818;stroke-width:1.0;stroke-dasharray:2.0,2.0;" x1="646.5" x2="934.5" y1="1003.3125" y2="1003.3125"/><text fill="#000000" font-family="sans-serif" font-size="13" font-weight="bold" lengthAdjust="spacing" textLength="14" x="658.5" y="998.0498">25</text><text fill="#000000" font-family="sans-serif" font-size="13" lengthAdjust="spacing" textLength="127" x="676.5" y="998.0498">could not send emails</text><polygon fill="#181818" points="353.5,1030.6035,343.5,1034.6035,353.5,1038.6035,349.5,1034.6035" style="stroke:#181818;stroke-width:1.0;"/><line style="stroke:#181818;stroke-width:1.0;stroke-dasharray:2.0,2.0;" x1="347.5" x2="635.5" y1="1034.6035" y2="1034.6035"/><text fill="#000000" font-family="sans-serif" font-size="13" font-weight="bold" lengthAdjust="spacing" textLength="14" x="359.5" y="1029.3408">26</text><text fill="#000000" font-family="sans-serif" font-size="13" lengthAdjust="spacing" textLength="127" x="377.5" y="1029.3408">could not send emails</text><polygon fill="#181818" points="92.5,1061.8945,82.5,1065.8945,92.5,1069.8945,88.5,1065.8945" style="stroke:#181818;stroke-width:1.0;"/><line style="stroke:#181818;stroke-width:1.0;stroke-dasharray:2.0,2.0;" x1="86.5" x2="336.5" y1="1065.8945" y2="1065.8945"/><text fill="#000000" font-family="sans-serif" font-size="13" font-weight="bold" lengthAdjust="spacing" textLength="14" x="98.5" y="1060.6318">27</text><text fill="#000000" font-family="sans-serif" font-size="13" lengthAdjust="spacing" textLength="124" x="116.5" y="1060.6318">shows operation error</text><!--SRC=[lLV1Rjim3BtxAtZCWEQsKr44A88Es8ODGzjWPqLMQgsAQ4XoW_pzABjr95cEswIj3uajKtoFZnGbiyQXRhPhOOg2SOS6berrk1Nc5zFimG_Np3Z9PSsqWz_ev6Q_PBgK9NF2hhx3rLLjX1NQCITHBnP7xPUedK6bXA5vl7-WMT6qwxfMahSExuHvaboGkUtk4eIRBPCgPrGG85ipAq9ljw96AodCFTcQ_Y75_u5h-tNrnw13ZgeDiRlrXYIJVA9WXae1NSaWp1SvqIw1sKSB3i4m_GYyVzVww166CpiGVsMyPh02mIzX8tKPY67liJEVVUczZa8V71qev6W4W4GdaqWANQcGHO0UCHZEZP7zbV4VemO9VuvVgGHm3FGmTOYRO0Seyz6eWv07_ahnLWQvoAVoFqeX3vzL_LY-HsizXnjWlgRMSkLEUEbokmHRuSu2_S2MwJq8tnyixAHIi1RW6rLHACGQDjJiY4FLcPoziFfNRKUQ1J6ViRfELPn7PDvJymabU2NuOrX3j2qqzftKEBFsEYwVAOOHVJt46Ra0swp_2UukO8tb_iFwRxGxdaGe8XMw6nPg13RPZ4HKcKb2ne5EgG5noY8GkWJV9ywg06etPHkBdNMDw1xlQEYpyktXQSCxok18WZNIa94FbGFSnE_8wqjhPQPhg-0gWyr3HVy2lX4btArgRqyXx2f9ZLQICUV2Mb56nl5ngrNUGqyKs28zfWLopnp-hJ0jwjvHCNu0IBWKJ3ammZL6U_hNov_0iGngCk4mpoIXQMFUD2GPriAqlUZWu6shPiBPAQlZZIudDjxUmujVMacA3k473MzkRnCDmsjQJuwDQWkaJVTp5HuxKQKfFQzlJSD_M1yx3lsn1wf3NeKnQ8e9HF-b4hmUV2fv_hIqYly0]--></g></svg>