<?xml version="1.0" encoding="us-ascii" standalone="no"?><svg xmlns="http://www.w3.org/2000/svg" xmlns:xlink="http://www.w3.org/1999/xlink" contentStyleType="text/css" height="903px" preserveAspectRatio="none" style="width:1125px;height:903px;background:#FFFFFF;" version="1.1" viewBox="0 0 1125 903" width="1125px" zoomAndPan="magnify"><defs/><g><rect fill="#FFFFFF" height="688.4023" style="stroke:#181818;stroke-width:1.0;" width="10" x="61.5" y="98.2422"/><rect fill="#FFFFFF" height="665.1113" style="stroke:#181818;stroke-width:1.0;" width="10" x="317.5" y="121.5332"/><rect fill="#FFFFFF" height="156.4551" style="stroke:#181818;stroke-width:1.0;" width="10" x="616.5" y="152.8242"/><rect fill="#FFFFFF" height="31.291" style="stroke:#181818;stroke-width:1.0;" width="10" x="616.5" y="398.1523"/><rect fill="#FFFFFF" height="31.291" style="stroke:#181818;stroke-width:1.0;" width="10" x="616.5" y="460.7344"/><rect fill="#FFFFFF" height="93.873" style="stroke:#181818;stroke-width:1.0;" width="10" x="616.5" y="523.3164"/><rect fill="#FFFFFF" height="99.873" style="stroke:#181818;stroke-width:1.0;" width="10" x="616.5" y="655.4805"/><rect fill="#FFFFFF" height="93.873" style="stroke:#181818;stroke-width:1.0;" width="10" x="783" y="184.1152"/><rect fill="#FFFFFF" height="31.291" style="stroke:#181818;stroke-width:1.0;" width="10" x="915.5" y="554.6074"/><rect fill="#FFFFFF" height="34.291" style="stroke:#181818;stroke-width:1.0;" width="10" x="915.5" y="689.7715"/><rect fill="#FFFFFF" height="31.291" style="stroke:#181818;stroke-width:1.0;" width="10" x="1044.5" y="215.4063"/><rect fill="none" height="269.6191" style="stroke:#000000;stroke-width:1.5;" width="732" x="246" y="355.5703"/><line style="stroke:#181818;stroke-width:0.5;stroke-dasharray:5.0,5.0;" x1="66" x2="66" y1="88.2422" y2="804.6445"/><line style="stroke:#181818;stroke-width:0.5;stroke-dasharray:5.0,5.0;" x1="322" x2="322" y1="88.2422" y2="804.6445"/><line style="stroke:#181818;stroke-width:0.5;stroke-dasharray:5.0,5.0;" x1="621" x2="621" y1="88.2422" y2="804.6445"/><line style="stroke:#181818;stroke-width:0.5;stroke-dasharray:5.0,5.0;" x1="788" x2="788" y1="88.2422" y2="804.6445"/><line style="stroke:#181818;stroke-width:0.5;stroke-dasharray:5.0,5.0;" x1="920" x2="920" y1="88.2422" y2="804.6445"/><line style="stroke:#181818;stroke-width:0.5;stroke-dasharray:5.0,5.0;" x1="1049" x2="1049" y1="88.2422" y2="804.6445"/><text fill="#000000" font-family="sans-serif" font-size="14" lengthAdjust="spacing" textLength="117" x="5" y="84.7285">CustomerManager</text><ellipse cx="66.5" cy="18.1211" fill="#E2E2F0" rx="8" ry="8" style="stroke:#181818;stroke-width:0.5;"/><path d="M66.5,26.1211 L66.5,53.1211 M53.5,34.1211 L79.5,34.1211 M66.5,53.1211 L53.5,68.1211 M66.5,53.1211 L79.5,68.1211 " fill="none" style="stroke:#181818;stroke-width:0.5;"/><text fill="#000000" font-family="sans-serif" font-size="14" lengthAdjust="spacing" textLength="117" x="5" y="818.752">CustomerManager</text><ellipse cx="66.5" cy="830.7656" fill="#E2E2F0" rx="8" ry="8" style="stroke:#181818;stroke-width:0.5;"/><path d="M66.5,838.7656 L66.5,865.7656 M53.5,846.7656 L79.5,846.7656 M66.5,865.7656 L53.5,880.7656 M66.5,865.7656 L79.5,880.7656 " fill="none" style="stroke:#181818;stroke-width:0.5;"/><rect fill="#E2E2F0" height="51.2422" rx="2.5" ry="2.5" style="stroke:#181818;stroke-width:0.5;" width="133" x="256" y="36"/><text fill="#000000" font-family="sans-serif" font-size="14" font-style="italic" lengthAdjust="spacing" textLength="95" x="275" y="58.1074">&#171;presentation&#187;</text><text fill="#000000" font-family="sans-serif" font-size="14" lengthAdjust="spacing" textLength="119" x="263" y="76.7285">NotifyCandidatesUI</text><rect fill="#E2E2F0" height="51.2422" rx="2.5" ry="2.5" style="stroke:#181818;stroke-width:0.5;" width="133" x="256" y="803.6445"/><text fill="#000000" font-family="sans-serif" font-size="14" font-style="italic" lengthAdjust="spacing" textLength="95" x="275" y="825.752">&#171;presentation&#187;</text><text fill="#000000" font-family="sans-serif" font-size="14" lengthAdjust="spacing" textLength="119" x="263" y="844.373">NotifyCandidatesUI</text><rect fill="#E2E2F0" height="51.2422" rx="2.5" ry="2.5" style="stroke:#181818;stroke-width:0.5;" width="183" x="530" y="36"/><text fill="#000000" font-family="sans-serif" font-size="14" font-style="italic" lengthAdjust="spacing" textLength="75" x="584" y="58.1074">&#171;controller&#187;</text><text fill="#000000" font-family="sans-serif" font-size="14" lengthAdjust="spacing" textLength="169" x="537" y="76.7285">NotifyCandidatesController</text><rect fill="#E2E2F0" height="51.2422" rx="2.5" ry="2.5" style="stroke:#181818;stroke-width:0.5;" width="183" x="530" y="803.6445"/><text fill="#000000" font-family="sans-serif" font-size="14" font-style="italic" lengthAdjust="spacing" textLength="75" x="584" y="825.752">&#171;controller&#187;</text><text fill="#000000" font-family="sans-serif" font-size="14" lengthAdjust="spacing" textLength="169" x="537" y="844.373">NotifyCandidatesController</text><rect fill="#E2E2F0" height="51.2422" rx="2.5" ry="2.5" style="stroke:#181818;stroke-width:0.5;" width="130" x="723" y="36"/><text fill="#000000" font-family="sans-serif" font-size="14" font-style="italic" lengthAdjust="spacing" textLength="60" x="758" y="58.1074">&#171;service&#187;</text><text fill="#000000" font-family="sans-serif" font-size="14" lengthAdjust="spacing" textLength="116" x="730" y="76.7285">ApplicationService</text><rect fill="#E2E2F0" height="51.2422" rx="2.5" ry="2.5" style="stroke:#181818;stroke-width:0.5;" width="130" x="723" y="803.6445"/><text fill="#000000" font-family="sans-serif" font-size="14" font-style="italic" lengthAdjust="spacing" textLength="60" x="758" y="825.752">&#171;service&#187;</text><text fill="#000000" font-family="sans-serif" font-size="14" lengthAdjust="spacing" textLength="116" x="730" y="844.373">ApplicationService</text><rect fill="#E2E2F0" height="51.2422" rx="2.5" ry="2.5" style="stroke:#181818;stroke-width:0.5;" width="95" x="873" y="36"/><text fill="#000000" font-family="sans-serif" font-size="14" font-style="italic" lengthAdjust="spacing" textLength="60" x="890.5" y="58.1074">&#171;service&#187;</text><text fill="#000000" font-family="sans-serif" font-size="14" lengthAdjust="spacing" textLength="81" x="880" y="76.7285">EmailService</text><rect fill="#E2E2F0" height="51.2422" rx="2.5" ry="2.5" style="stroke:#181818;stroke-width:0.5;" width="95" x="873" y="803.6445"/><text fill="#000000" font-family="sans-serif" font-size="14" font-style="italic" lengthAdjust="spacing" textLength="60" x="890.5" y="825.752">&#171;service&#187;</text><text fill="#000000" font-family="sans-serif" font-size="14" lengthAdjust="spacing" textLength="81" x="880" y="844.373">EmailService</text><text fill="#000000" font-family="sans-serif" font-size="14" font-style="italic" lengthAdjust="spacing" textLength="79" x="1007" y="66.1074">&#171;repository&#187;</text><text fill="#000000" font-family="sans-serif" font-size="14" lengthAdjust="spacing" textLength="137" x="978" y="84.7285">ApplicationRepository</text><path d="M1031.5,15 C1031.5,5 1049.5,5 1049.5,5 C1049.5,5 1067.5,5 1067.5,15 L1067.5,41 C1067.5,51 1049.5,51 1049.5,51 C1049.5,51 1031.5,51 1031.5,41 L1031.5,15 " fill="#E2E2F0" style="stroke:#181818;stroke-width:1.5;"/><path d="M1031.5,15 C1031.5,25 1049.5,25 1049.5,25 C1049.5,25 1067.5,25 1067.5,15 " fill="none" style="stroke:#181818;stroke-width:1.5;"/><text fill="#000000" font-family="sans-serif" font-size="14" font-style="italic" lengthAdjust="spacing" textLength="79" x="1007" y="818.752">&#171;repository&#187;</text><text fill="#000000" font-family="sans-serif" font-size="14" lengthAdjust="spacing" textLength="137" x="978" y="837.373">ApplicationRepository</text><path d="M1031.5,850.8867 C1031.5,840.8867 1049.5,840.8867 1049.5,840.8867 C1049.5,840.8867 1067.5,840.8867 1067.5,850.8867 L1067.5,876.8867 C1067.5,886.8867 1049.5,886.8867 1049.5,886.8867 C1049.5,886.8867 1031.5,886.8867 1031.5,876.8867 L1031.5,850.8867 " fill="#E2E2F0" style="stroke:#181818;stroke-width:1.5;"/><path d="M1031.5,850.8867 C1031.5,860.8867 1049.5,860.8867 1049.5,860.8867 C1049.5,860.8867 1067.5,860.8867 1067.5,850.8867 " fill="none" style="stroke:#181818;stroke-width:1.5;"/><rect fill="#FFFFFF" height="688.4023" style="stroke:#181818;stroke-width:1.0;" width="10" x="61.5" y="98.2422"/><rect fill="#FFFFFF" height="665.1113" style="stroke:#181818;stroke-width:1.0;" width="10" x="317.5" y="121.5332"/><rect fill="#FFFFFF" height="156.4551" style="stroke:#181818;stroke-width:1.0;" width="10" x="616.5" y="152.8242"/><rect fill="#FFFFFF" height="31.291" style="stroke:#181818;stroke-width:1.0;" width="10" x="616.5" y="398.1523"/><rect fill="#FFFFFF" height="31.291" style="stroke:#181818;stroke-width:1.0;" width="10" x="616.5" y="460.7344"/><rect fill="#FFFFFF" height="93.873" style="stroke:#181818;stroke-width:1.0;" width="10" x="616.5" y="523.3164"/><rect fill="#FFFFFF" height="99.873" style="stroke:#181818;stroke-width:1.0;" width="10" x="616.5" y="655.4805"/><rect fill="#FFFFFF" height="93.873" style="stroke:#181818;stroke-width:1.0;" width="10" x="783" y="184.1152"/><rect fill="#FFFFFF" height="31.291" style="stroke:#181818;stroke-width:1.0;" width="10" x="915.5" y="554.6074"/><rect fill="#FFFFFF" height="34.291" style="stroke:#181818;stroke-width:1.0;" width="10" x="915.5" y="689.7715"/><rect fill="#FFFFFF" height="31.291" style="stroke:#181818;stroke-width:1.0;" width="10" x="1044.5" y="215.4063"/><polygon fill="#181818" points="305.5,117.5332,315.5,121.5332,305.5,125.5332,309.5,121.5332" style="stroke:#181818;stroke-width:1.0;"/><line style="stroke:#181818;stroke-width:1.0;" x1="71.5" x2="311.5" y1="121.5332" y2="121.5332"/><text fill="#000000" font-family="sans-serif" font-size="13" font-weight="bold" lengthAdjust="spacing" textLength="7" x="78.5" y="116.2705">1</text><text fill="#000000" font-family="sans-serif" font-size="13" lengthAdjust="spacing" textLength="139" x="89.5" y="116.2705">asks to rank candidates</text><polygon fill="#181818" points="604.5,148.8242,614.5,152.8242,604.5,156.8242,608.5,152.8242" style="stroke:#181818;stroke-width:1.0;"/><line style="stroke:#181818;stroke-width:1.0;" x1="327.5" x2="610.5" y1="152.8242" y2="152.8242"/><text fill="#000000" font-family="sans-serif" font-size="13" font-weight="bold" lengthAdjust="spacing" textLength="7" x="334.5" y="147.5615">2</text><text fill="#000000" font-family="sans-serif" font-size="13" lengthAdjust="spacing" textLength="146" x="345.5" y="147.5615">findApplicationsToNotify()</text><polygon fill="#181818" points="771,180.1152,781,184.1152,771,188.1152,775,184.1152" style="stroke:#181818;stroke-width:1.0;"/><line style="stroke:#181818;stroke-width:1.0;" x1="626.5" x2="777" y1="184.1152" y2="184.1152"/><text fill="#000000" font-family="sans-serif" font-size="13" font-weight="bold" lengthAdjust="spacing" textLength="7" x="633.5" y="178.8525">3</text><text fill="#000000" font-family="sans-serif" font-size="13" lengthAdjust="spacing" textLength="92" x="644.5" y="178.8525">allApplications()</text><polygon fill="#181818" points="1032.5,211.4063,1042.5,215.4063,1032.5,219.4063,1036.5,215.4063" style="stroke:#181818;stroke-width:1.0;"/><line style="stroke:#181818;stroke-width:1.0;" x1="793" x2="1038.5" y1="215.4063" y2="215.4063"/><text fill="#000000" font-family="sans-serif" font-size="13" font-weight="bold" lengthAdjust="spacing" textLength="7" x="800" y="210.1436">4</text><text fill="#000000" font-family="sans-serif" font-size="13" lengthAdjust="spacing" textLength="43" x="811" y="210.1436">findAll()</text><polygon fill="#181818" points="804,242.6973,794,246.6973,804,250.6973,800,246.6973" style="stroke:#181818;stroke-width:1.0;"/><line style="stroke:#181818;stroke-width:1.0;stroke-dasharray:2.0,2.0;" x1="798" x2="1048.5" y1="246.6973" y2="246.6973"/><text fill="#000000" font-family="sans-serif" font-size="13" font-weight="bold" lengthAdjust="spacing" textLength="7" x="810" y="241.4346">5</text><text fill="#000000" font-family="sans-serif" font-size="13" lengthAdjust="spacing" textLength="69" x="821" y="241.4346">applications</text><polygon fill="#181818" points="637.5,273.9883,627.5,277.9883,637.5,281.9883,633.5,277.9883" style="stroke:#181818;stroke-width:1.0;"/><line style="stroke:#181818;stroke-width:1.0;stroke-dasharray:2.0,2.0;" x1="631.5" x2="787" y1="277.9883" y2="277.9883"/><text fill="#000000" font-family="sans-serif" font-size="13" font-weight="bold" lengthAdjust="spacing" textLength="7" x="643.5" y="272.7256">6</text><text fill="#000000" font-family="sans-serif" font-size="13" lengthAdjust="spacing" textLength="69" x="654.5" y="272.7256">applications</text><polygon fill="#181818" points="338.5,305.2793,328.5,309.2793,338.5,313.2793,334.5,309.2793" style="stroke:#181818;stroke-width:1.0;"/><line style="stroke:#181818;stroke-width:1.0;stroke-dasharray:2.0,2.0;" x1="332.5" x2="620.5" y1="309.2793" y2="309.2793"/><text fill="#000000" font-family="sans-serif" font-size="13" font-weight="bold" lengthAdjust="spacing" textLength="7" x="344.5" y="304.0166">7</text><text fill="#000000" font-family="sans-serif" font-size="13" lengthAdjust="spacing" textLength="69" x="355.5" y="304.0166">applications</text><polygon fill="#181818" points="82.5,336.5703,72.5,340.5703,82.5,344.5703,78.5,340.5703" style="stroke:#181818;stroke-width:1.0;"/><line style="stroke:#181818;stroke-width:1.0;stroke-dasharray:2.0,2.0;" x1="76.5" x2="316.5" y1="340.5703" y2="340.5703"/><text fill="#000000" font-family="sans-serif" font-size="13" font-weight="bold" lengthAdjust="spacing" textLength="7" x="88.5" y="335.3076">8</text><text fill="#000000" font-family="sans-serif" font-size="13" lengthAdjust="spacing" textLength="211" x="99.5" y="335.3076">shows how many emails will be sent</text><path d="M246,355.5703 L319,355.5703 L319,364.8613 L309,374.8613 L246,374.8613 L246,355.5703 " fill="#EEEEEE" style="stroke:#000000;stroke-width:1.5;"/><rect fill="none" height="269.6191" style="stroke:#000000;stroke-width:1.5;" width="732" x="246" y="355.5703"/><text fill="#000000" font-family="sans-serif" font-size="13" font-weight="bold" lengthAdjust="spacing" textLength="28" x="261" y="370.5986">loop</text><text fill="#000000" font-family="sans-serif" font-size="11" font-weight="bold" lengthAdjust="spacing" textLength="86" x="334" y="369.4404">[for each email]</text><polygon fill="#181818" points="604.5,394.1523,614.5,398.1523,604.5,402.1523,608.5,398.1523" style="stroke:#181818;stroke-width:1.0;"/><line style="stroke:#181818;stroke-width:1.0;" x1="327.5" x2="610.5" y1="398.1523" y2="398.1523"/><text fill="#000000" font-family="sans-serif" font-size="13" font-weight="bold" lengthAdjust="spacing" textLength="7" x="334.5" y="392.8896">9</text><text fill="#000000" font-family="sans-serif" font-size="13" lengthAdjust="spacing" textLength="181" x="345.5" y="392.8896">findCandidateEmail(application)</text><polygon fill="#181818" points="338.5,425.4434,328.5,429.4434,338.5,433.4434,334.5,429.4434" style="stroke:#181818;stroke-width:1.0;"/><line style="stroke:#181818;stroke-width:1.0;stroke-dasharray:2.0,2.0;" x1="332.5" x2="620.5" y1="429.4434" y2="429.4434"/><text fill="#000000" font-family="sans-serif" font-size="13" font-weight="bold" lengthAdjust="spacing" textLength="14" x="344.5" y="424.1807">10</text><text fill="#000000" font-family="sans-serif" font-size="13" lengthAdjust="spacing" textLength="89" x="362.5" y="424.1807">candidateEmail</text><polygon fill="#181818" points="604.5,456.7344,614.5,460.7344,604.5,464.7344,608.5,460.7344" style="stroke:#181818;stroke-width:1.0;"/><line style="stroke:#181818;stroke-width:1.0;" x1="327.5" x2="610.5" y1="460.7344" y2="460.7344"/><text fill="#000000" font-family="sans-serif" font-size="13" font-weight="bold" lengthAdjust="spacing" textLength="14" x="334.5" y="455.4717">11</text><text fill="#000000" font-family="sans-serif" font-size="13" lengthAdjust="spacing" textLength="207" x="352.5" y="455.4717">checkApplicationStatus(application)</text><polygon fill="#181818" points="338.5,488.0254,328.5,492.0254,338.5,496.0254,334.5,492.0254" style="stroke:#181818;stroke-width:1.0;"/><line style="stroke:#181818;stroke-width:1.0;stroke-dasharray:2.0,2.0;" x1="332.5" x2="620.5" y1="492.0254" y2="492.0254"/><text fill="#000000" font-family="sans-serif" font-size="13" font-weight="bold" lengthAdjust="spacing" textLength="14" x="344.5" y="486.7627">12</text><text fill="#000000" font-family="sans-serif" font-size="13" lengthAdjust="spacing" textLength="100" x="362.5" y="486.7627">applicationStatus</text><polygon fill="#181818" points="604.5,519.3164,614.5,523.3164,604.5,527.3164,608.5,523.3164" style="stroke:#181818;stroke-width:1.0;"/><line style="stroke:#181818;stroke-width:1.0;" x1="327.5" x2="610.5" y1="523.3164" y2="523.3164"/><text fill="#000000" font-family="sans-serif" font-size="13" font-weight="bold" lengthAdjust="spacing" textLength="14" x="334.5" y="518.0537">13</text><text fill="#000000" font-family="sans-serif" font-size="13" lengthAdjust="spacing" textLength="252" x="352.5" y="518.0537">createEmail(candidateEmail, subject, body)</text><polygon fill="#181818" points="903.5,550.6074,913.5,554.6074,903.5,558.6074,907.5,554.6074" style="stroke:#181818;stroke-width:1.0;"/><line style="stroke:#181818;stroke-width:1.0;" x1="626.5" x2="909.5" y1="554.6074" y2="554.6074"/><text fill="#000000" font-family="sans-serif" font-size="13" font-weight="bold" lengthAdjust="spacing" textLength="14" x="633.5" y="549.3447">14</text><text fill="#000000" font-family="sans-serif" font-size="13" lengthAdjust="spacing" textLength="252" x="651.5" y="549.3447">createEmail(candidateEmail, subject, body)</text><polygon fill="#181818" points="637.5,581.8984,627.5,585.8984,637.5,589.8984,633.5,585.8984" style="stroke:#181818;stroke-width:1.0;"/><line style="stroke:#181818;stroke-width:1.0;stroke-dasharray:2.0,2.0;" x1="631.5" x2="919.5" y1="585.8984" y2="585.8984"/><text fill="#000000" font-family="sans-serif" font-size="13" font-weight="bold" lengthAdjust="spacing" textLength="14" x="643.5" y="580.6357">15</text><text fill="#000000" font-family="sans-serif" font-size="13" lengthAdjust="spacing" textLength="31" x="661.5" y="580.6357">email</text><polygon fill="#181818" points="338.5,613.1895,328.5,617.1895,338.5,621.1895,334.5,617.1895" style="stroke:#181818;stroke-width:1.0;"/><line style="stroke:#181818;stroke-width:1.0;stroke-dasharray:2.0,2.0;" x1="332.5" x2="620.5" y1="617.1895" y2="617.1895"/><text fill="#000000" font-family="sans-serif" font-size="13" font-weight="bold" lengthAdjust="spacing" textLength="14" x="344.5" y="611.9268">16</text><text fill="#000000" font-family="sans-serif" font-size="13" lengthAdjust="spacing" textLength="31" x="362.5" y="611.9268">email</text><polygon fill="#181818" points="604.5,651.4805,614.5,655.4805,604.5,659.4805,608.5,655.4805" style="stroke:#181818;stroke-width:1.0;"/><line style="stroke:#181818;stroke-width:1.0;" x1="327.5" x2="610.5" y1="655.4805" y2="655.4805"/><text fill="#000000" font-family="sans-serif" font-size="13" font-weight="bold" lengthAdjust="spacing" textLength="14" x="334.5" y="650.2178">17</text><text fill="#000000" font-family="sans-serif" font-size="13" lengthAdjust="spacing" textLength="158" x="352.5" y="650.2178">sendEmails(emailsToSend)</text><polygon fill="#181818" points="903.5,685.7715,913.5,689.7715,903.5,693.7715,907.5,689.7715" style="stroke:#181818;stroke-width:1.0;"/><line style="stroke:#181818;stroke-width:1.0;" x1="626.5" x2="909.5" y1="689.7715" y2="689.7715"/><text fill="#000000" font-family="sans-serif" font-size="13" font-weight="bold" lengthAdjust="spacing" textLength="14" x="633.5" y="684.5088">18</text><text fill="#000000" font-family="sans-serif" font-size="13" lengthAdjust="spacing" textLength="173" x="651.5" y="684.5088">sendAllEmails(emailsToSend)</text><path d="M930,668.4805 L930,695.4805 L1118,695.4805 L1118,678.4805 L1108,668.4805 L930,668.4805 " fill="#FEFFDD" style="stroke:#181818;stroke-width:0.5;"/><path d="M1108,668.4805 L1108,678.4805 L1118,678.4805 L1108,668.4805 " fill="#FEFFDD" style="stroke:#181818;stroke-width:0.5;"/><text fill="#000000" font-family="sans-serif" font-size="13" lengthAdjust="spacing" textLength="167" x="936" y="687.5088">send through follow up server</text><polygon fill="#181818" points="637.5,720.0625,627.5,724.0625,637.5,728.0625,633.5,724.0625" style="stroke:#181818;stroke-width:1.0;"/><line style="stroke:#181818;stroke-width:1.0;stroke-dasharray:2.0,2.0;" x1="631.5" x2="919.5" y1="724.0625" y2="724.0625"/><text fill="#000000" font-family="sans-serif" font-size="13" font-weight="bold" lengthAdjust="spacing" textLength="14" x="643.5" y="718.7998">19</text><text fill="#000000" font-family="sans-serif" font-size="13" lengthAdjust="spacing" textLength="122" x="661.5" y="718.7998">successfull operation</text><polygon fill="#181818" points="338.5,751.3535,328.5,755.3535,338.5,759.3535,334.5,755.3535" style="stroke:#181818;stroke-width:1.0;"/><line style="stroke:#181818;stroke-width:1.0;stroke-dasharray:2.0,2.0;" x1="332.5" x2="620.5" y1="755.3535" y2="755.3535"/><text fill="#000000" font-family="sans-serif" font-size="13" font-weight="bold" lengthAdjust="spacing" textLength="14" x="344.5" y="750.0908">20</text><text fill="#000000" font-family="sans-serif" font-size="13" lengthAdjust="spacing" textLength="122" x="362.5" y="750.0908">successfull operation</text><polygon fill="#181818" points="77.5,782.6445,67.5,786.6445,77.5,790.6445,73.5,786.6445" style="stroke:#181818;stroke-width:1.0;"/><line style="stroke:#181818;stroke-width:1.0;stroke-dasharray:2.0,2.0;" x1="71.5" x2="321.5" y1="786.6445" y2="786.6445"/><text fill="#000000" font-family="sans-serif" font-size="13" font-weight="bold" lengthAdjust="spacing" textLength="14" x="83.5" y="781.3818">21</text><text fill="#000000" font-family="sans-serif" font-size="13" lengthAdjust="spacing" textLength="147" x="101.5" y="781.3818">shows operation success</text><!--SRC=[lPPBRjim48RtEiKiNI2vW14OA8mkkcWNJNe0YXfRh6cIu2E1Rz-XrCgaHDcjbLWBmvA6y_tpu50iUAt2iKPRLOnxRM4RdDT7jD-OOllus33h1HU6AG_VjHUxqvQfHZJCe_lv5PwUZ4M7oZCljDfiBjfljV9MIucMrl7XXbPbopuR8mNl73wZVHKSoTpr_qQ4BqScPCce8Y2hcSFKsmyqsWaAyqIsThY9vXIzU2MDqmG0NQE7yBWfvM8Dp1qSU0sMgGFmuLtdOo1CL_QGU1My5bX97jUm4wf9OdGlkZTVVHgypgBFZiuIIZ8I8Cafr8T2bp9LaT0p1TErEJbU1VyvDQdZd_Yb707deEUbK-w8dL0UPwDEGfxuQ_1_5PGYlrR_MGbbV37hb-ezs-ibRiBybruhjJlnnjjj3QxLRmxe1uvCdG3ZjdVm9gI46Y7EdwgIMXlOqGmZ3MrlidXZ3Q-wGRDAObwmksxDEC_4l6VEhsI2jyWFQG_Hj0_kdRAniFTwBVTCXiMX7_AAF80BzI_a_W5gtPm-RFvcXzvDWZ9HgRjfesQmgyC8iyuS5MGUT4iFu2sR05K3SKuiwW0QDqqNYrlrW-X5FzEZUzKxukd0kwXWli3Z-YfD5bRiMryy3oCCV6jrsBSqNAMa4HmCn0yj2c9i7OsZmuLTv0BdwDmkq7ZN1cstqU_JLPVH7tky3Ro_AgehpFZbcBmUVxh-1W00]--></g></svg>