<?xml version="1.0" encoding="us-ascii" standalone="no"?><svg xmlns="http://www.w3.org/2000/svg" xmlns:xlink="http://www.w3.org/1999/xlink" contentStyleType="text/css" height="377px" preserveAspectRatio="none" style="width:1034px;height:377px;background:#FFFFFF;" version="1.1" viewBox="0 0 1034 377" width="1034px" zoomAndPan="magnify"><defs/><g><!--cluster ui--><g id="cluster_ui"><path d="M8.5,131 L23.5,131 A3.75,3.75 0 0 1 26,133.5 L33,153.4883 L166.5,153.4883 A2.5,2.5 0 0 1 169,155.9883 L169,261.5 A2.5,2.5 0 0 1 166.5,264 L8.5,264 A2.5,2.5 0 0 1 6,261.5 L6,133.5 A2.5,2.5 0 0 1 8.5,131 " fill="none" style="stroke:#000000;stroke-width:1.5;"/><line style="stroke:#000000;stroke-width:1.5;" x1="6" x2="33" y1="153.4883" y2="153.4883"/><text fill="#000000" font-family="sans-serif" font-size="14" font-weight="bold" lengthAdjust="spacing" textLength="14" x="10" y="146.5352">ui</text></g><!--cluster authz--><g id="cluster_authz"><path d="M236.5,6 L277.5,6 A3.75,3.75 0 0 1 280,8.5 L287,28.4883 L1024.5,28.4883 A2.5,2.5 0 0 1 1027,30.9883 L1027,367.5 A2.5,2.5 0 0 1 1024.5,370 L236.5,370 A2.5,2.5 0 0 1 234,367.5 L234,8.5 A2.5,2.5 0 0 1 236.5,6 " fill="none" style="stroke:#000000;stroke-width:1.5;"/><line style="stroke:#000000;stroke-width:1.5;" x1="234" x2="287" y1="28.4883" y2="28.4883"/><text fill="#000000" font-family="sans-serif" font-size="14" font-weight="bold" lengthAdjust="spacing" textLength="40" x="238" y="21.5352">authz</text></g><!--cluster application--><g id="cluster_application"><path d="M260.5,131 L341.5,131 A3.75,3.75 0 0 1 344,133.5 L351,153.4883 L484.5,153.4883 A2.5,2.5 0 0 1 487,155.9883 L487,261.5 A2.5,2.5 0 0 1 484.5,264 L260.5,264 A2.5,2.5 0 0 1 258,261.5 L258,133.5 A2.5,2.5 0 0 1 260.5,131 " fill="none" style="stroke:#000000;stroke-width:1.5;"/><line style="stroke:#000000;stroke-width:1.5;" x1="258" x2="351" y1="153.4883" y2="153.4883"/><text fill="#000000" font-family="sans-serif" font-size="14" font-weight="bold" lengthAdjust="spacing" textLength="80" x="262" y="146.5352">application</text></g><!--cluster user--><g id="cluster_user"><path d="M578.5,49 L610.5,49 A3.75,3.75 0 0 1 613,51.5 L620,71.4883 L1000.5,71.4883 A2.5,2.5 0 0 1 1003,73.9883 L1003,343.5 A2.5,2.5 0 0 1 1000.5,346 L578.5,346 A2.5,2.5 0 0 1 576,343.5 L576,51.5 A2.5,2.5 0 0 1 578.5,49 " fill="none" style="stroke:#000000;stroke-width:1.5;"/><line style="stroke:#000000;stroke-width:1.5;" x1="576" x2="620" y1="71.4883" y2="71.4883"/><text fill="#000000" font-family="sans-serif" font-size="14" font-weight="bold" lengthAdjust="spacing" textLength="31" x="580" y="64.5352">user</text></g><!--class ActivateUserUI--><g id="elem_ActivateUserUI"><rect codeLine="4" fill="#F1F1F1" height="80.9766" id="ActivateUserUI" rx="2.5" ry="2.5" style="stroke:#181818;stroke-width:0.5;" width="131" x="22" y="166.5"/><ellipse cx="37" cy="182.5" fill="#ADD1B2" rx="11" ry="11" style="stroke:#181818;stroke-width:1.0;"/><path d="M39.9731,188.1431 Q39.3921,188.4419 38.7529,188.5913 Q38.1138,188.7407 37.4082,188.7407 Q34.9014,188.7407 33.5815,187.0889 Q32.2617,185.437 32.2617,182.3159 Q32.2617,179.1865 33.5815,177.5347 Q34.9014,175.8828 37.4082,175.8828 Q38.1138,175.8828 38.7612,176.0322 Q39.4087,176.1816 39.9731,176.4805 L39.9731,179.2031 Q39.3423,178.6221 38.7488,178.3523 Q38.1553,178.0825 37.5244,178.0825 Q36.1797,178.0825 35.4949,179.1492 Q34.8101,180.2158 34.8101,182.3159 Q34.8101,184.4077 35.4949,185.4744 Q36.1797,186.541 37.5244,186.541 Q38.1553,186.541 38.7488,186.2712 Q39.3423,186.0015 39.9731,185.4204 Z " fill="#000000"/><text fill="#000000" font-family="sans-serif" font-size="14" lengthAdjust="spacing" textLength="99" x="51" y="187.791">ActivateUserUI</text><line style="stroke:#181818;stroke-width:0.5;" x1="23" x2="152" y1="198.5" y2="198.5"/><line style="stroke:#181818;stroke-width:0.5;" x1="23" x2="152" y1="206.5" y2="206.5"/><ellipse cx="33" cy="220.2441" fill="#84BE84" rx="3" ry="3" style="stroke:#038048;stroke-width:1.0;"/><text fill="#000000" font-family="sans-serif" font-size="14" lengthAdjust="spacing" textLength="65" x="42" y="224.0352">doShow()</text><ellipse cx="33" cy="236.7324" fill="#84BE84" rx="3" ry="3" style="stroke:#038048;stroke-width:1.0;"/><text fill="#000000" font-family="sans-serif" font-size="14" lengthAdjust="spacing" textLength="69" x="42" y="240.5234">headline()</text></g><!--class ActivateUserController--><g id="elem_ActivateUserController"><rect codeLine="12" fill="#F1F1F1" height="80.9766" id="ActivateUserController" rx="2.5" ry="2.5" style="stroke:#181818;stroke-width:0.5;" width="197" x="274" y="166.5"/><ellipse cx="293.5" cy="182.5" fill="#ADD1B2" rx="11" ry="11" style="stroke:#181818;stroke-width:1.0;"/><path d="M296.4731,188.1431 Q295.8921,188.4419 295.2529,188.5913 Q294.6138,188.7407 293.9082,188.7407 Q291.4014,188.7407 290.0815,187.0889 Q288.7617,185.437 288.7617,182.3159 Q288.7617,179.1865 290.0815,177.5347 Q291.4014,175.8828 293.9082,175.8828 Q294.6138,175.8828 295.2612,176.0322 Q295.9087,176.1816 296.4731,176.4805 L296.4731,179.2031 Q295.8423,178.6221 295.2488,178.3523 Q294.6553,178.0825 294.0244,178.0825 Q292.6797,178.0825 291.9949,179.1492 Q291.3101,180.2158 291.3101,182.3159 Q291.3101,184.4077 291.9949,185.4744 Q292.6797,186.541 294.0244,186.541 Q294.6553,186.541 295.2488,186.2712 Q295.8423,186.0015 296.4731,185.4204 Z " fill="#000000"/><text fill="#000000" font-family="sans-serif" font-size="14" lengthAdjust="spacing" textLength="155" x="308.5" y="187.791">ActivateUserController</text><line style="stroke:#181818;stroke-width:0.5;" x1="275" x2="470" y1="198.5" y2="198.5"/><line style="stroke:#181818;stroke-width:0.5;" x1="275" x2="470" y1="206.5" y2="206.5"/><ellipse cx="285" cy="220.2441" fill="#84BE84" rx="3" ry="3" style="stroke:#038048;stroke-width:1.0;"/><text fill="#000000" font-family="sans-serif" font-size="14" lengthAdjust="spacing" textLength="126" x="294" y="224.0352">deactivatedUsers()</text><ellipse cx="285" cy="236.7324" fill="#84BE84" rx="3" ry="3" style="stroke:#038048;stroke-width:1.0;"/><text fill="#000000" font-family="sans-serif" font-size="14" lengthAdjust="spacing" textLength="171" x="294" y="240.5234">activateUser(systemUser)</text></g><!--class UserManagementService--><g id="elem_UserManagementService"><rect codeLine="19" fill="#F1F1F1" height="245.8594" id="UserManagementService" rx="2.5" ry="2.5" style="stroke:#181818;stroke-width:0.5;" width="395" x="592" y="84"/><ellipse cx="701.25" cy="100" fill="#ADD1B2" rx="11" ry="11" style="stroke:#181818;stroke-width:1.0;"/><path d="M704.2231,105.6431 Q703.6421,105.9419 703.0029,106.0913 Q702.3638,106.2407 701.6582,106.2407 Q699.1514,106.2407 697.8315,104.5889 Q696.5117,102.937 696.5117,99.8159 Q696.5117,96.6865 697.8315,95.0347 Q699.1514,93.3828 701.6582,93.3828 Q702.3638,93.3828 703.0112,93.5322 Q703.6587,93.6816 704.2231,93.9805 L704.2231,96.7031 Q703.5923,96.1221 702.9988,95.8523 Q702.4053,95.5825 701.7744,95.5825 Q700.4297,95.5825 699.7449,96.6492 Q699.0601,97.7158 699.0601,99.8159 Q699.0601,101.9077 699.7449,102.9744 Q700.4297,104.041 701.7744,104.041 Q702.4053,104.041 702.9988,103.7712 Q703.5923,103.5015 704.2231,102.9204 Z " fill="#000000"/><text fill="#000000" font-family="sans-serif" font-size="14" lengthAdjust="spacing" textLength="168" x="721.75" y="105.291">UserManagementService</text><line style="stroke:#181818;stroke-width:0.5;" x1="593" x2="986" y1="116" y2="116"/><line style="stroke:#181818;stroke-width:0.5;" x1="593" x2="986" y1="124" y2="124"/><ellipse cx="603" cy="137.7441" fill="#84BE84" rx="3" ry="3" style="stroke:#038048;stroke-width:1.0;"/><text fill="#000000" font-family="sans-serif" font-size="14" lengthAdjust="spacing" textLength="355" x="612" y="141.5352">UserManagementService(userRepo, policy, encoder)</text><ellipse cx="603" cy="154.2324" fill="#84BE84" rx="3" ry="3" style="stroke:#038048;stroke-width:1.0;"/><text fill="#000000" font-family="sans-serif" font-size="14" lengthAdjust="spacing" textLength="296" x="612" y="158.0234">registerNewUser( username,  rawPassword,</text><text fill="#000000" font-family="sans-serif" font-size="14" lengthAdjust="spacing" textLength="316" x="612" y="174.5117">firstName,  lastName,  email, roles, createdOn)</text><ellipse cx="603" cy="187.209" fill="#84BE84" rx="3" ry="3" style="stroke:#038048;stroke-width:1.0;"/><text fill="#000000" font-family="sans-serif" font-size="14" lengthAdjust="spacing" textLength="296" x="612" y="191">registerNewUser( username,  rawPassword,</text><text fill="#000000" font-family="sans-serif" font-size="14" lengthAdjust="spacing" textLength="237" x="612" y="207.4883">firstName,  lastName,  email, roles)</text><ellipse cx="603" cy="220.1855" fill="#84BE84" rx="3" ry="3" style="stroke:#038048;stroke-width:1.0;"/><text fill="#000000" font-family="sans-serif" font-size="14" lengthAdjust="spacing" textLength="369" x="612" y="223.9766">registerUser(username, password, name, email, roles)</text><ellipse cx="603" cy="236.6738" fill="#84BE84" rx="3" ry="3" style="stroke:#038048;stroke-width:1.0;"/><text fill="#000000" font-family="sans-serif" font-size="14" lengthAdjust="spacing" textLength="87" x="612" y="240.4648">activeUsers()</text><ellipse cx="603" cy="253.1621" fill="#84BE84" rx="3" ry="3" style="stroke:#038048;stroke-width:1.0;"/><text fill="#000000" font-family="sans-serif" font-size="14" lengthAdjust="spacing" textLength="126" x="612" y="256.9531">deactivatedUsers()</text><ellipse cx="603" cy="269.6504" fill="#84BE84" rx="3" ry="3" style="stroke:#038048;stroke-width:1.0;"/><text fill="#000000" font-family="sans-serif" font-size="14" lengthAdjust="spacing" textLength="64" x="612" y="273.4414">allUsers()</text><ellipse cx="603" cy="286.1387" fill="#84BE84" rx="3" ry="3" style="stroke:#038048;stroke-width:1.0;"/><text fill="#000000" font-family="sans-serif" font-size="14" lengthAdjust="spacing" textLength="120" x="612" y="289.9297">userOfIdentity(id)</text><ellipse cx="603" cy="302.627" fill="#84BE84" rx="3" ry="3" style="stroke:#038048;stroke-width:1.0;"/><text fill="#000000" font-family="sans-serif" font-size="14" lengthAdjust="spacing" textLength="140" x="612" y="306.418">deactivateUser(user)</text><ellipse cx="603" cy="319.1152" fill="#84BE84" rx="3" ry="3" style="stroke:#038048;stroke-width:1.0;"/><text fill="#000000" font-family="sans-serif" font-size="14" lengthAdjust="spacing" textLength="123" x="612" y="322.9063">activateUser(user)</text></g><!--link ActivateUserUI to ActivateUserController--><g id="link_ActivateUserUI_ActivateUserController"><path codeLine="37" d="M153.43,207 C189,207 227.82,207 267.55,207 " fill="none" id="ActivateUserUI-to-ActivateUserController" style="stroke:#181818;stroke-width:1.0;"/><polygon fill="#181818" points="273.55,207,264.55,203,268.55,207,264.55,211,273.55,207" style="stroke:#181818;stroke-width:1.0;"/></g><!--link ActivateUserController to UserManagementService--><g id="link_ActivateUserController_UserManagementService"><path codeLine="39" d="M471.32,207 C507.51,207 543.94,207 585.78,207 " fill="none" id="ActivateUserController-to-UserManagementService" style="stroke:#181818;stroke-width:1.0;"/><polygon fill="#181818" points="591.78,207,582.78,203,586.78,207,582.78,211,591.78,207" style="stroke:#181818;stroke-width:1.0;"/></g><!--SRC=[jP9BRiCW48Rtd6AKJLtLkKAbggiisbIDSe0HJ68K30XmB3VgtJiuYPs7ioniO1x_Dp3p57VQUWnOWz6MKkS9N4YL4uOs2PA3eBTL0gK3oQIT5Hxb3hS4iqRF3a8QZ17UsBN7HEj8ORs0Wm1UBw3Sgd9jyNowLeGgGzZmotjKmYPLFpDE6otU6oqn0xFzdlBkR0hE60eZZV0Ke7947BXuaLV4BYQgy_6sYePj8on7VA1bJqqshIZijQI1DUajii8tULU2Trn-Lm9PwLH67TC2RJNZmoUrVJ6GCopML084RByOtBgWoZvyeqDCdqSdbtG-KetQbC2FfrY239GVlBJ_XRZLxKL7JN_MW-DzAhN_VxhkoUDc6NDjoApbPg7udtNg2gtk9OQQ9ZlU3BtcRekRKPtFvwyF1kiwzcBW-fp92H3Y3m00]--></g></svg>