<?xml version="1.0" encoding="us-ascii" standalone="no"?><svg xmlns="http://www.w3.org/2000/svg" xmlns:xlink="http://www.w3.org/1999/xlink" contentStyleType="text/css" height="450px" preserveAspectRatio="none" style="width:1446px;height:450px;background:#FFFFFF;" version="1.1" viewBox="0 0 1446 450" width="1446px" zoomAndPan="magnify"><defs/><g><!--class ActivateUserUI--><g id="elem_ActivateUserUI"><rect codeLine="4" fill="#F1F1F1" height="80.9766" id="ActivateUserUI" rx="2.5" ry="2.5" style="stroke:#181818;stroke-width:0.5;" width="131" x="7" y="245"/><ellipse cx="22" cy="261" fill="#ADD1B2" rx="11" ry="11" style="stroke:#181818;stroke-width:1.0;"/><path d="M24.9731,266.6431 Q24.3921,266.9419 23.7529,267.0913 Q23.1138,267.2407 22.4082,267.2407 Q19.9014,267.2407 18.5815,265.5889 Q17.2617,263.937 17.2617,260.8159 Q17.2617,257.6865 18.5815,256.0347 Q19.9014,254.3828 22.4082,254.3828 Q23.1138,254.3828 23.7612,254.5322 Q24.4087,254.6816 24.9731,254.9805 L24.9731,257.7031 Q24.3423,257.1221 23.7488,256.8523 Q23.1553,256.5825 22.5244,256.5825 Q21.1797,256.5825 20.4949,257.6492 Q19.8101,258.7158 19.8101,260.8159 Q19.8101,262.9077 20.4949,263.9744 Q21.1797,265.041 22.5244,265.041 Q23.1553,265.041 23.7488,264.7712 Q24.3423,264.5015 24.9731,263.9204 Z " fill="#000000"/><text fill="#000000" font-family="sans-serif" font-size="14" lengthAdjust="spacing" textLength="99" x="36" y="266.291">ActivateUserUI</text><line style="stroke:#181818;stroke-width:0.5;" x1="8" x2="137" y1="277" y2="277"/><line style="stroke:#181818;stroke-width:0.5;" x1="8" x2="137" y1="285" y2="285"/><ellipse cx="18" cy="298.7441" fill="#84BE84" rx="3" ry="3" style="stroke:#038048;stroke-width:1.0;"/><text fill="#000000" font-family="sans-serif" font-size="14" lengthAdjust="spacing" textLength="65" x="27" y="302.5352">doShow()</text><ellipse cx="18" cy="315.2324" fill="#84BE84" rx="3" ry="3" style="stroke:#038048;stroke-width:1.0;"/><text fill="#000000" font-family="sans-serif" font-size="14" lengthAdjust="spacing" textLength="69" x="27" y="319.0234">headline()</text></g><!--class ActivateUserController--><g id="elem_ActivateUserController"><rect codeLine="9" fill="#F1F1F1" height="80.9766" id="ActivateUserController" rx="2.5" ry="2.5" style="stroke:#181818;stroke-width:0.5;" width="197" x="259" y="245"/><ellipse cx="278.5" cy="261" fill="#ADD1B2" rx="11" ry="11" style="stroke:#181818;stroke-width:1.0;"/><path d="M281.4731,266.6431 Q280.8921,266.9419 280.2529,267.0913 Q279.6138,267.2407 278.9082,267.2407 Q276.4014,267.2407 275.0815,265.5889 Q273.7617,263.937 273.7617,260.8159 Q273.7617,257.6865 275.0815,256.0347 Q276.4014,254.3828 278.9082,254.3828 Q279.6138,254.3828 280.2612,254.5322 Q280.9087,254.6816 281.4731,254.9805 L281.4731,257.7031 Q280.8423,257.1221 280.2488,256.8523 Q279.6553,256.5825 279.0244,256.5825 Q277.6797,256.5825 276.9949,257.6492 Q276.3101,258.7158 276.3101,260.8159 Q276.3101,262.9077 276.9949,263.9744 Q277.6797,265.041 279.0244,265.041 Q279.6553,265.041 280.2488,264.7712 Q280.8423,264.5015 281.4731,263.9204 Z " fill="#000000"/><text fill="#000000" font-family="sans-serif" font-size="14" lengthAdjust="spacing" textLength="155" x="293.5" y="266.291">ActivateUserController</text><line style="stroke:#181818;stroke-width:0.5;" x1="260" x2="455" y1="277" y2="277"/><line style="stroke:#181818;stroke-width:0.5;" x1="260" x2="455" y1="285" y2="285"/><ellipse cx="270" cy="298.7441" fill="#84BE84" rx="3" ry="3" style="stroke:#038048;stroke-width:1.0;"/><text fill="#000000" font-family="sans-serif" font-size="14" lengthAdjust="spacing" textLength="126" x="279" y="302.5352">deactivatedUsers()</text><ellipse cx="270" cy="315.2324" fill="#84BE84" rx="3" ry="3" style="stroke:#038048;stroke-width:1.0;"/><text fill="#000000" font-family="sans-serif" font-size="14" lengthAdjust="spacing" textLength="171" x="279" y="319.0234">activateUser(systemUser)</text></g><!--class RepositoryFactory--><g id="elem_RepositoryFactory"><rect codeLine="14" fill="#F1F1F1" height="229.3711" id="RepositoryFactory" rx="2.5" ry="2.5" style="stroke:#181818;stroke-width:0.5;" width="346" x="1093" y="7"/><ellipse cx="1200.25" cy="23" fill="#B4A7E5" rx="11" ry="11" style="stroke:#181818;stroke-width:1.0;"/><path d="M1196.1777,18.7651 L1196.1777,16.6069 L1203.5571,16.6069 L1203.5571,18.7651 L1201.0918,18.7651 L1201.0918,26.8418 L1203.5571,26.8418 L1203.5571,29 L1196.1777,29 L1196.1777,26.8418 L1198.6431,26.8418 L1198.6431,18.7651 Z " fill="#000000"/><text fill="#000000" font-family="sans-serif" font-size="14" font-style="italic" lengthAdjust="spacing" textLength="123" x="1220.75" y="28.291">RepositoryFactory</text><line style="stroke:#181818;stroke-width:0.5;" x1="1094" x2="1438" y1="39" y2="39"/><line style="stroke:#181818;stroke-width:0.5;" x1="1094" x2="1438" y1="47" y2="47"/><ellipse cx="1104" cy="60.7441" fill="#84BE84" rx="3" ry="3" style="stroke:#038048;stroke-width:1.0;"/><text fill="#000000" font-family="sans-serif" font-size="14" lengthAdjust="spacing" textLength="186" x="1113" y="64.5352">newTransactionalContext()</text><ellipse cx="1104" cy="77.2324" fill="#84BE84" rx="3" ry="3" style="stroke:#038048;stroke-width:1.0;"/><text fill="#000000" font-family="sans-serif" font-size="14" lengthAdjust="spacing" textLength="248" x="1113" y="81.0234">users(TransactionalContext autoTx)</text><ellipse cx="1104" cy="93.7207" fill="#84BE84" rx="3" ry="3" style="stroke:#038048;stroke-width:1.0;"/><text fill="#000000" font-family="sans-serif" font-size="14" lengthAdjust="spacing" textLength="47" x="1113" y="97.5117">users()</text><ellipse cx="1104" cy="110.209" fill="#84BE84" rx="3" ry="3" style="stroke:#038048;stroke-width:1.0;"/><text fill="#000000" font-family="sans-serif" font-size="14" lengthAdjust="spacing" textLength="313" x="1113" y="114">customerUsers(TransactionalContext autoTx)</text><ellipse cx="1104" cy="126.6973" fill="#84BE84" rx="3" ry="3" style="stroke:#038048;stroke-width:1.0;"/><text fill="#000000" font-family="sans-serif" font-size="14" lengthAdjust="spacing" textLength="112" x="1113" y="130.4883">customerUsers()</text><ellipse cx="1104" cy="143.1855" fill="#84BE84" rx="3" ry="3" style="stroke:#038048;stroke-width:1.0;"/><text fill="#000000" font-family="sans-serif" font-size="14" lengthAdjust="spacing" textLength="320" x="1113" y="146.9766">signupRequests(TransactionalContext autoTx)</text><ellipse cx="1104" cy="159.6738" fill="#84BE84" rx="3" ry="3" style="stroke:#038048;stroke-width:1.0;"/><text fill="#000000" font-family="sans-serif" font-size="14" lengthAdjust="spacing" textLength="119" x="1113" y="163.4648">signupRequests()</text><ellipse cx="1104" cy="176.1621" fill="#84BE84" rx="3" ry="3" style="stroke:#038048;stroke-width:1.0;"/><text fill="#000000" font-family="sans-serif" font-size="14" lengthAdjust="spacing" textLength="299" x="1113" y="179.9531">jobOpenings(TransactionalContext autoTx)</text><ellipse cx="1104" cy="192.6504" fill="#84BE84" rx="3" ry="3" style="stroke:#038048;stroke-width:1.0;"/><text fill="#000000" font-family="sans-serif" font-size="14" lengthAdjust="spacing" textLength="98" x="1113" y="196.4414">jobOpenings()</text><ellipse cx="1104" cy="209.1387" fill="#84BE84" rx="3" ry="3" style="stroke:#038048;stroke-width:1.0;"/><text fill="#000000" font-family="sans-serif" font-size="14" lengthAdjust="spacing" textLength="294" x="1113" y="212.9297">applications(TransactionalContext autoTx)</text><ellipse cx="1104" cy="225.627" fill="#84BE84" rx="3" ry="3" style="stroke:#038048;stroke-width:1.0;"/><text fill="#000000" font-family="sans-serif" font-size="14" lengthAdjust="spacing" textLength="93" x="1113" y="229.418">applications()</text></g><!--class PersistenceContext--><g id="elem_PersistenceContext"><rect codeLine="28" fill="#F1F1F1" height="80.9766" id="PersistenceContext" rx="2.5" ry="2.5" style="stroke:#181818;stroke-width:0.5;" width="168" x="690.5" y="81"/><ellipse cx="707.3" cy="97" fill="#ADD1B2" rx="11" ry="11" style="stroke:#181818;stroke-width:1.0;"/><path d="M710.2731,102.6431 Q709.6921,102.9419 709.0529,103.0913 Q708.4138,103.2407 707.7082,103.2407 Q705.2014,103.2407 703.8815,101.5889 Q702.5617,99.937 702.5617,96.8159 Q702.5617,93.6865 703.8815,92.0347 Q705.2014,90.3828 707.7082,90.3828 Q708.4138,90.3828 709.0612,90.5322 Q709.7087,90.6816 710.2731,90.9805 L710.2731,93.7031 Q709.6423,93.1221 709.0488,92.8523 Q708.4553,92.5825 707.8244,92.5825 Q706.4797,92.5825 705.7949,93.6492 Q705.1101,94.7158 705.1101,96.8159 Q705.1101,98.9077 705.7949,99.9744 Q706.4797,101.041 707.8244,101.041 Q708.4553,101.041 709.0488,100.7712 Q709.6423,100.5015 710.2731,99.9204 Z " fill="#000000"/><text fill="#000000" font-family="sans-serif" font-size="14" lengthAdjust="spacing" textLength="132" x="721.7" y="102.291">PersistenceContext</text><line style="stroke:#181818;stroke-width:0.5;" x1="691.5" x2="857.5" y1="113" y2="113"/><line style="stroke:#181818;stroke-width:0.5;" x1="691.5" x2="857.5" y1="121" y2="121"/><ellipse cx="701.5" cy="134.7441" fill="#84BE84" rx="3" ry="3" style="stroke:#038048;stroke-width:1.0;"/><text fill="#000000" font-family="sans-serif" font-size="14" lengthAdjust="spacing" textLength="92" x="710.5" y="138.5352">repositories()</text><ellipse cx="701.5" cy="151.2324" fill="#84BE84" rx="3" ry="3" style="stroke:#038048;stroke-width:1.0;"/><text fill="#000000" font-family="sans-serif" font-size="14" lengthAdjust="spacing" textLength="142" x="710.5" y="155.0234">PersistenceContext()</text></g><!--class UserManagementService--><g id="elem_UserManagementService"><rect codeLine="33" fill="#F1F1F1" height="245.8594" id="UserManagementService" rx="2.5" ry="2.5" style="stroke:#181818;stroke-width:0.5;" width="395" x="577" y="197.5"/><ellipse cx="686.25" cy="213.5" fill="#ADD1B2" rx="11" ry="11" style="stroke:#181818;stroke-width:1.0;"/><path d="M689.2231,219.1431 Q688.6421,219.4419 688.0029,219.5913 Q687.3638,219.7407 686.6582,219.7407 Q684.1514,219.7407 682.8315,218.0889 Q681.5117,216.437 681.5117,213.3159 Q681.5117,210.1865 682.8315,208.5347 Q684.1514,206.8828 686.6582,206.8828 Q687.3638,206.8828 688.0112,207.0322 Q688.6587,207.1816 689.2231,207.4805 L689.2231,210.2031 Q688.5923,209.6221 687.9988,209.3523 Q687.4053,209.0825 686.7744,209.0825 Q685.4297,209.0825 684.7449,210.1492 Q684.0601,211.2158 684.0601,213.3159 Q684.0601,215.4077 684.7449,216.4744 Q685.4297,217.541 686.7744,217.541 Q687.4053,217.541 687.9988,217.2712 Q688.5923,217.0015 689.2231,216.4204 Z " fill="#000000"/><text fill="#000000" font-family="sans-serif" font-size="14" lengthAdjust="spacing" textLength="168" x="706.75" y="218.791">UserManagementService</text><line style="stroke:#181818;stroke-width:0.5;" x1="578" x2="971" y1="229.5" y2="229.5"/><line style="stroke:#181818;stroke-width:0.5;" x1="578" x2="971" y1="237.5" y2="237.5"/><ellipse cx="588" cy="251.2441" fill="#84BE84" rx="3" ry="3" style="stroke:#038048;stroke-width:1.0;"/><text fill="#000000" font-family="sans-serif" font-size="14" lengthAdjust="spacing" textLength="355" x="597" y="255.0352">UserManagementService(userRepo, policy, encoder)</text><ellipse cx="588" cy="267.7324" fill="#84BE84" rx="3" ry="3" style="stroke:#038048;stroke-width:1.0;"/><text fill="#000000" font-family="sans-serif" font-size="14" lengthAdjust="spacing" textLength="296" x="597" y="271.5234">registerNewUser( username,  rawPassword,</text><text fill="#000000" font-family="sans-serif" font-size="14" lengthAdjust="spacing" textLength="316" x="597" y="288.0117">firstName,  lastName,  email, roles, createdOn)</text><ellipse cx="588" cy="300.709" fill="#84BE84" rx="3" ry="3" style="stroke:#038048;stroke-width:1.0;"/><text fill="#000000" font-family="sans-serif" font-size="14" lengthAdjust="spacing" textLength="296" x="597" y="304.5">registerNewUser( username,  rawPassword,</text><text fill="#000000" font-family="sans-serif" font-size="14" lengthAdjust="spacing" textLength="237" x="597" y="320.9883">firstName,  lastName,  email, roles)</text><ellipse cx="588" cy="333.6855" fill="#84BE84" rx="3" ry="3" style="stroke:#038048;stroke-width:1.0;"/><text fill="#000000" font-family="sans-serif" font-size="14" lengthAdjust="spacing" textLength="369" x="597" y="337.4766">registerUser(username, password, name, email, roles)</text><ellipse cx="588" cy="350.1738" fill="#84BE84" rx="3" ry="3" style="stroke:#038048;stroke-width:1.0;"/><text fill="#000000" font-family="sans-serif" font-size="14" lengthAdjust="spacing" textLength="87" x="597" y="353.9648">activeUsers()</text><ellipse cx="588" cy="366.6621" fill="#84BE84" rx="3" ry="3" style="stroke:#038048;stroke-width:1.0;"/><text fill="#000000" font-family="sans-serif" font-size="14" lengthAdjust="spacing" textLength="126" x="597" y="370.4531">deactivatedUsers()</text><ellipse cx="588" cy="383.1504" fill="#84BE84" rx="3" ry="3" style="stroke:#038048;stroke-width:1.0;"/><text fill="#000000" font-family="sans-serif" font-size="14" lengthAdjust="spacing" textLength="64" x="597" y="386.9414">allUsers()</text><ellipse cx="588" cy="399.6387" fill="#84BE84" rx="3" ry="3" style="stroke:#038048;stroke-width:1.0;"/><text fill="#000000" font-family="sans-serif" font-size="14" lengthAdjust="spacing" textLength="120" x="597" y="403.4297">userOfIdentity(id)</text><ellipse cx="588" cy="416.127" fill="#84BE84" rx="3" ry="3" style="stroke:#038048;stroke-width:1.0;"/><text fill="#000000" font-family="sans-serif" font-size="14" lengthAdjust="spacing" textLength="140" x="597" y="419.918">deactivateUser(user)</text><ellipse cx="588" cy="432.6152" fill="#84BE84" rx="3" ry="3" style="stroke:#038048;stroke-width:1.0;"/><text fill="#000000" font-family="sans-serif" font-size="14" lengthAdjust="spacing" textLength="123" x="597" y="436.4063">activateUser(user)</text></g><!--link ActivateUserUI to ActivateUserController--><g id="link_ActivateUserUI_ActivateUserController"><path codeLine="50" d="M138.43,285.5 C174,285.5 212.82,285.5 252.55,285.5 " fill="none" id="ActivateUserUI-to-ActivateUserController" style="stroke:#181818;stroke-width:1.0;"/><polygon fill="#181818" points="258.55,285.5,249.55,281.5,253.55,285.5,249.55,289.5,258.55,285.5" style="stroke:#181818;stroke-width:1.0;"/></g><!--link ActivateUserController to UserManagementService--><g id="link_ActivateUserController_UserManagementService"><path codeLine="52" d="M456.32,293.75 C492.51,296.8 528.9612,299.8756 570.8012,303.4056 " fill="none" id="ActivateUserController-to-UserManagementService" style="stroke:#181818;stroke-width:1.0;"/><polygon fill="#181818" points="576.78,303.91,568.1481,299.1675,571.7977,303.4896,567.4756,307.1392,576.78,303.91" style="stroke:#181818;stroke-width:1.0;"/></g><!--link ActivateUserController to PersistenceContext--><g id="link_ActivateUserController_PersistenceContext"><path codeLine="54" d="M436.08,244.57 C477.26,223.78 529.13,199.06 577,180.5 C613.53,166.34 649.1803,155.0964 684.5403,145.0064 " fill="none" id="ActivateUserController-to-PersistenceContext" style="stroke:#181818;stroke-width:1.0;"/><polygon fill="#181818" points="690.31,143.36,680.5579,141.9831,685.5019,144.732,682.753,149.676,690.31,143.36" style="stroke:#181818;stroke-width:1.0;"/></g><!--link PersistenceContext to RepositoryFactory--><g id="link_PersistenceContext_RepositoryFactory"><path codeLine="57" d="M858.81,121.5 C922.74,121.5 1007.2,121.5 1086.53,121.5 " fill="none" id="PersistenceContext-to-RepositoryFactory" style="stroke:#181818;stroke-width:1.0;"/><polygon fill="#181818" points="1092.53,121.5,1083.53,117.5,1087.53,121.5,1083.53,125.5,1092.53,121.5" style="stroke:#181818;stroke-width:1.0;"/></g><!--SRC=[jPJFJkGm3CRlVGhVTj1sNW498Qt4OHd4dmSmhQUJ9Ks2ur8gnBjl4aYddIbeBlJI9ls-dvtOoI__f8n3nXQqCYI38x0iErjesWg81LRDJg1MJ9KeQugYqkWzN8JH2mezUEA7AtWh83o_eRPtEzklpZw7Ey8wSiF4-vBpqXfXgpNnda3uAQYZmeyidFXMVl12RVnCP6M4U8iLmIqvwvLO7lu4GtYDO4FzFQFncDQ1EiQcLndvNOgs907inDw_peLvL7LUR1isuLJxt91dlMfCvsxfkICl9t4E77dwdttSE3BAD2THfl9nfvtJgi9eEuanqqygVHCMg4ATJ4NPc8l1kKoAzd6FzLDQtA-_QB2XbepS4R-eKEyCNFoxYgMA7L62io75eOG0jtNicfn74oFoDVMfhr9n3RPK0Z3sDo5mRxakatohsClrny-GKlwa5fKk8VGn-H8gfjYx6_DJ8Gwv2Rfdkio3Z_6IDHqbcZVWr-TEw_b4ZBNPNjLXdvKCArKV8yQS5WzlbuzjKHnS8-lr-loB2sAkdLmSoRDO_kyjnzqMybbesIG-kbQA_m00]--></g></svg>