<?xml version="1.0" encoding="us-ascii" standalone="no"?><svg xmlns="http://www.w3.org/2000/svg" xmlns:xlink="http://www.w3.org/1999/xlink" contentStyleType="text/css" height="1195px" preserveAspectRatio="none" style="width:1082px;height:1195px;background:#FFFFFF;" version="1.1" viewBox="0 0 1082 1195" width="1082px" zoomAndPan="magnify"><defs/><g><!--class AddUserUI--><g id="elem_AddUserUI"><rect codeLine="4" fill="#F1F1F1" height="146.9297" id="AddUserUI" rx="2.5" ry="2.5" style="stroke:#181818;stroke-width:0.5;" width="364" x="19" y="15"/><ellipse cx="160.25" cy="31" fill="#ADD1B2" rx="11" ry="11" style="stroke:#181818;stroke-width:1.0;"/><path d="M163.2231,36.6431 Q162.6421,36.9419 162.0029,37.0913 Q161.3638,37.2407 160.6582,37.2407 Q158.1514,37.2407 156.8315,35.5889 Q155.5117,33.937 155.5117,30.8159 Q155.5117,27.6865 156.8315,26.0347 Q158.1514,24.3828 160.6582,24.3828 Q161.3638,24.3828 162.0112,24.5322 Q162.6587,24.6816 163.2231,24.9805 L163.2231,27.7031 Q162.5923,27.1221 161.9988,26.8523 Q161.4053,26.5825 160.7744,26.5825 Q159.4297,26.5825 158.7449,27.6492 Q158.0601,28.7158 158.0601,30.8159 Q158.0601,32.9077 158.7449,33.9744 Q159.4297,35.041 160.7744,35.041 Q161.4053,35.041 161.9988,34.7712 Q162.5923,34.5015 163.2231,33.9204 Z " fill="#000000"/><text fill="#000000" font-family="sans-serif" font-size="14" lengthAdjust="spacing" textLength="73" x="180.75" y="36.291">AddUserUI</text><line style="stroke:#181818;stroke-width:0.5;" x1="20" x2="382" y1="47" y2="47"/><line style="stroke:#181818;stroke-width:0.5;" x1="20" x2="382" y1="55" y2="55"/><ellipse cx="30" cy="68.7441" fill="#84BE84" rx="3" ry="3" style="stroke:#038048;stroke-width:1.0;"/><text fill="#000000" font-family="sans-serif" font-size="14" lengthAdjust="spacing" textLength="65" x="39" y="72.5352">doShow()</text><ellipse cx="30" cy="85.2324" fill="#84BE84" rx="3" ry="3" style="stroke:#038048;stroke-width:1.0;"/><text fill="#000000" font-family="sans-serif" font-size="14" lengthAdjust="spacing" textLength="150" x="39" y="89.0234">showRoles(roleTypes)</text><ellipse cx="30" cy="101.7207" fill="#84BE84" rx="3" ry="3" style="stroke:#038048;stroke-width:1.0;"/><text fill="#000000" font-family="sans-serif" font-size="14" lengthAdjust="spacing" textLength="187" x="39" y="105.5117">buildRolesMenu(roleTypes)</text><ellipse cx="30" cy="118.209" fill="#84BE84" rx="3" ry="3" style="stroke:#038048;stroke-width:1.0;"/><text fill="#000000" font-family="sans-serif" font-size="14" lengthAdjust="spacing" textLength="338" x="39" y="122">buildCustomerManagerAvailableRoles(roleTypes)</text><ellipse cx="30" cy="134.6973" fill="#84BE84" rx="3" ry="3" style="stroke:#038048;stroke-width:1.0;"/><text fill="#000000" font-family="sans-serif" font-size="14" lengthAdjust="spacing" textLength="273" x="39" y="138.4883">buildOperatorAvailableRoles(roleTypes)</text><ellipse cx="30" cy="151.1855" fill="#84BE84" rx="3" ry="3" style="stroke:#038048;stroke-width:1.0;"/><text fill="#000000" font-family="sans-serif" font-size="14" lengthAdjust="spacing" textLength="69" x="39" y="154.9766">headline()</text></g><!--class ActivateUserUI--><g id="elem_ActivateUserUI"><rect codeLine="13" fill="#F1F1F1" height="80.9766" id="ActivateUserUI" rx="2.5" ry="2.5" style="stroke:#181818;stroke-width:0.5;" width="131" x="463.5" y="48"/><ellipse cx="478.5" cy="64" fill="#ADD1B2" rx="11" ry="11" style="stroke:#181818;stroke-width:1.0;"/><path d="M481.4731,69.6431 Q480.8921,69.9419 480.2529,70.0913 Q479.6138,70.2407 478.9082,70.2407 Q476.4014,70.2407 475.0815,68.5889 Q473.7617,66.937 473.7617,63.8159 Q473.7617,60.6865 475.0815,59.0347 Q476.4014,57.3828 478.9082,57.3828 Q479.6138,57.3828 480.2612,57.5322 Q480.9087,57.6816 481.4731,57.9805 L481.4731,60.7031 Q480.8423,60.1221 480.2488,59.8523 Q479.6553,59.5825 479.0244,59.5825 Q477.6797,59.5825 476.9949,60.6492 Q476.3101,61.7158 476.3101,63.8159 Q476.3101,65.9077 476.9949,66.9744 Q477.6797,68.041 479.0244,68.041 Q479.6553,68.041 480.2488,67.7712 Q480.8423,67.5015 481.4731,66.9204 Z " fill="#000000"/><text fill="#000000" font-family="sans-serif" font-size="14" lengthAdjust="spacing" textLength="99" x="492.5" y="69.291">ActivateUserUI</text><line style="stroke:#181818;stroke-width:0.5;" x1="464.5" x2="593.5" y1="80" y2="80"/><line style="stroke:#181818;stroke-width:0.5;" x1="464.5" x2="593.5" y1="88" y2="88"/><ellipse cx="474.5" cy="101.7441" fill="#84BE84" rx="3" ry="3" style="stroke:#038048;stroke-width:1.0;"/><text fill="#000000" font-family="sans-serif" font-size="14" lengthAdjust="spacing" textLength="65" x="483.5" y="105.5352">doShow()</text><ellipse cx="474.5" cy="118.2324" fill="#84BE84" rx="3" ry="3" style="stroke:#038048;stroke-width:1.0;"/><text fill="#000000" font-family="sans-serif" font-size="14" lengthAdjust="spacing" textLength="69" x="483.5" y="122.0234">headline()</text></g><!--class DeactivateUserUI--><g id="elem_DeactivateUserUI"><rect codeLine="18" fill="#F1F1F1" height="80.9766" id="DeactivateUserUI" rx="2.5" ry="2.5" style="stroke:#181818;stroke-width:0.5;" width="147" x="894.5" y="48"/><ellipse cx="909.5" cy="64" fill="#ADD1B2" rx="11" ry="11" style="stroke:#181818;stroke-width:1.0;"/><path d="M912.4731,69.6431 Q911.8921,69.9419 911.2529,70.0913 Q910.6138,70.2407 909.9082,70.2407 Q907.4014,70.2407 906.0815,68.5889 Q904.7617,66.937 904.7617,63.8159 Q904.7617,60.6865 906.0815,59.0347 Q907.4014,57.3828 909.9082,57.3828 Q910.6138,57.3828 911.2612,57.5322 Q911.9087,57.6816 912.4731,57.9805 L912.4731,60.7031 Q911.8423,60.1221 911.2488,59.8523 Q910.6553,59.5825 910.0244,59.5825 Q908.6797,59.5825 907.9949,60.6492 Q907.3101,61.7158 907.3101,63.8159 Q907.3101,65.9077 907.9949,66.9744 Q908.6797,68.041 910.0244,68.041 Q910.6553,68.041 911.2488,67.7712 Q911.8423,67.5015 912.4731,66.9204 Z " fill="#000000"/><text fill="#000000" font-family="sans-serif" font-size="14" lengthAdjust="spacing" textLength="115" x="923.5" y="69.291">DeactivateUserUI</text><line style="stroke:#181818;stroke-width:0.5;" x1="895.5" x2="1040.5" y1="80" y2="80"/><line style="stroke:#181818;stroke-width:0.5;" x1="895.5" x2="1040.5" y1="88" y2="88"/><ellipse cx="905.5" cy="101.7441" fill="#84BE84" rx="3" ry="3" style="stroke:#038048;stroke-width:1.0;"/><text fill="#000000" font-family="sans-serif" font-size="14" lengthAdjust="spacing" textLength="65" x="914.5" y="105.5352">doShow()</text><ellipse cx="905.5" cy="118.2324" fill="#84BE84" rx="3" ry="3" style="stroke:#038048;stroke-width:1.0;"/><text fill="#000000" font-family="sans-serif" font-size="14" lengthAdjust="spacing" textLength="69" x="914.5" y="122.0234">headline()</text></g><!--class ListBackofficeUsersUI--><g id="elem_ListBackofficeUsersUI"><rect codeLine="23" fill="#F1F1F1" height="163.418" id="ListBackofficeUsersUI" rx="2.5" ry="2.5" style="stroke:#181818;stroke-width:0.5;" width="176" x="656" y="7"/><ellipse cx="671" cy="23" fill="#ADD1B2" rx="11" ry="11" style="stroke:#181818;stroke-width:1.0;"/><path d="M673.9731,28.6431 Q673.3921,28.9419 672.7529,29.0913 Q672.1138,29.2407 671.4082,29.2407 Q668.9014,29.2407 667.5815,27.5889 Q666.2617,25.937 666.2617,22.8159 Q666.2617,19.6865 667.5815,18.0347 Q668.9014,16.3828 671.4082,16.3828 Q672.1138,16.3828 672.7612,16.5322 Q673.4087,16.6816 673.9731,16.9805 L673.9731,19.7031 Q673.3423,19.1221 672.7488,18.8523 Q672.1553,18.5825 671.5244,18.5825 Q670.1797,18.5825 669.4949,19.6492 Q668.8101,20.7158 668.8101,22.8159 Q668.8101,24.9077 669.4949,25.9744 Q670.1797,27.041 671.5244,27.041 Q672.1553,27.041 672.7488,26.7712 Q673.3423,26.5015 673.9731,25.9204 Z " fill="#000000"/><text fill="#000000" font-family="sans-serif" font-size="14" lengthAdjust="spacing" textLength="144" x="685" y="28.291">ListBackofficeUsersUI</text><line style="stroke:#181818;stroke-width:0.5;" x1="657" x2="831" y1="39" y2="39"/><line style="stroke:#181818;stroke-width:0.5;" x1="657" x2="831" y1="47" y2="47"/><ellipse cx="667" cy="60.7441" fill="#84BE84" rx="3" ry="3" style="stroke:#038048;stroke-width:1.0;"/><text fill="#000000" font-family="sans-serif" font-size="14" lengthAdjust="spacing" textLength="72" x="676" y="64.5352">elements()</text><ellipse cx="667" cy="77.2324" fill="#84BE84" rx="3" ry="3" style="stroke:#038048;stroke-width:1.0;"/><text fill="#000000" font-family="sans-serif" font-size="14" lengthAdjust="spacing" textLength="69" x="676" y="81.0234">headline()</text><ellipse cx="667" cy="93.7207" fill="#84BE84" rx="3" ry="3" style="stroke:#038048;stroke-width:1.0;"/><text fill="#000000" font-family="sans-serif" font-size="14" lengthAdjust="spacing" textLength="111" x="676" y="97.5117">emptyMessage()</text><ellipse cx="667" cy="110.209" fill="#84BE84" rx="3" ry="3" style="stroke:#038048;stroke-width:1.0;"/><text fill="#000000" font-family="sans-serif" font-size="14" lengthAdjust="spacing" textLength="111" x="676" y="114">elementPrinter()</text><ellipse cx="667" cy="126.6973" fill="#84BE84" rx="3" ry="3" style="stroke:#038048;stroke-width:1.0;"/><text fill="#000000" font-family="sans-serif" font-size="14" lengthAdjust="spacing" textLength="104" x="676" y="130.4883">elementName()</text><ellipse cx="667" cy="143.1855" fill="#84BE84" rx="3" ry="3" style="stroke:#038048;stroke-width:1.0;"/><text fill="#000000" font-family="sans-serif" font-size="14" lengthAdjust="spacing" textLength="79" x="676" y="146.9766">listHeader()</text><ellipse cx="667" cy="159.6738" fill="#84BE84" rx="3" ry="3" style="stroke:#038048;stroke-width:1.0;"/><text fill="#000000" font-family="sans-serif" font-size="14" lengthAdjust="spacing" textLength="65" x="676" y="163.4648">doShow()</text></g><!--class AddUserController--><g id="elem_AddUserController"><rect codeLine="33" fill="#F1F1F1" height="179.9063" id="AddUserController" rx="2.5" ry="2.5" style="stroke:#181818;stroke-width:0.5;" width="388" x="7" y="291"/><ellipse cx="132.25" cy="307" fill="#ADD1B2" rx="11" ry="11" style="stroke:#181818;stroke-width:1.0;"/><path d="M135.2231,312.6431 Q134.6421,312.9419 134.0029,313.0913 Q133.3638,313.2407 132.6582,313.2407 Q130.1514,313.2407 128.8315,311.5889 Q127.5117,309.937 127.5117,306.8159 Q127.5117,303.6865 128.8315,302.0347 Q130.1514,300.3828 132.6582,300.3828 Q133.3638,300.3828 134.0112,300.5322 Q134.6587,300.6816 135.2231,300.9805 L135.2231,303.7031 Q134.5923,303.1221 133.9988,302.8523 Q133.4053,302.5825 132.7744,302.5825 Q131.4297,302.5825 130.7449,303.6492 Q130.0601,304.7158 130.0601,306.8159 Q130.0601,308.9077 130.7449,309.9744 Q131.4297,311.041 132.7744,311.041 Q133.4053,311.041 133.9988,310.7712 Q134.5923,310.5015 135.2231,309.9204 Z " fill="#000000"/><text fill="#000000" font-family="sans-serif" font-size="14" lengthAdjust="spacing" textLength="129" x="152.75" y="312.291">AddUserController</text><line style="stroke:#181818;stroke-width:0.5;" x1="8" x2="394" y1="323" y2="323"/><line style="stroke:#181818;stroke-width:0.5;" x1="8" x2="394" y1="331" y2="331"/><ellipse cx="18" cy="344.7441" fill="#84BE84" rx="3" ry="3" style="stroke:#038048;stroke-width:1.0;"/><text fill="#000000" font-family="sans-serif" font-size="14" lengthAdjust="spacing" textLength="183" x="27" y="348.5352">passwordGenerator(name)</text><ellipse cx="18" cy="361.2324" fill="#84BE84" rx="3" ry="3" style="stroke:#038048;stroke-width:1.0;"/><text fill="#000000" font-family="sans-serif" font-size="14" lengthAdjust="spacing" textLength="282" x="27" y="365.0234">addUser(username, password, firstName,</text><text fill="#000000" font-family="sans-serif" font-size="14" lengthAdjust="spacing" textLength="362" x="27" y="381.5117">lastName, email, roles, CurrentTimeCalendars.now())</text><ellipse cx="18" cy="394.209" fill="#84BE84" rx="3" ry="3" style="stroke:#038048;stroke-width:1.0;"/><text fill="#000000" font-family="sans-serif" font-size="14" lengthAdjust="spacing" textLength="208" x="27" y="398">addUser(username, password,</text><text fill="#000000" font-family="sans-serif" font-size="14" lengthAdjust="spacing" textLength="229" x="27" y="414.4883">firstName, lastName, email, roles)</text><ellipse cx="18" cy="427.1855" fill="#84BE84" rx="3" ry="3" style="stroke:#038048;stroke-width:1.0;"/><text fill="#000000" font-family="sans-serif" font-size="14" lengthAdjust="spacing" textLength="303" x="27" y="430.9766">registerNewUser(name,password,email,role)</text><ellipse cx="18" cy="443.6738" fill="#84BE84" rx="3" ry="3" style="stroke:#038048;stroke-width:1.0;"/><text fill="#000000" font-family="sans-serif" font-size="14" lengthAdjust="spacing" textLength="102" x="27" y="447.4648">getRoleTypes()</text><ellipse cx="18" cy="460.1621" fill="#84BE84" rx="3" ry="3" style="stroke:#038048;stroke-width:1.0;"/><text fill="#000000" font-family="sans-serif" font-size="14" lengthAdjust="spacing" textLength="87" x="27" y="463.9531">getAllRoles()</text></g><!--class ActivateUserController--><g id="elem_ActivateUserController"><rect codeLine="44" fill="#F1F1F1" height="80.9766" id="ActivateUserController" rx="2.5" ry="2.5" style="stroke:#181818;stroke-width:0.5;" width="197" x="430.5" y="340.5"/><ellipse cx="450" cy="356.5" fill="#ADD1B2" rx="11" ry="11" style="stroke:#181818;stroke-width:1.0;"/><path d="M452.9731,362.1431 Q452.3921,362.4419 451.7529,362.5913 Q451.1138,362.7407 450.4082,362.7407 Q447.9014,362.7407 446.5815,361.0889 Q445.2617,359.437 445.2617,356.3159 Q445.2617,353.1865 446.5815,351.5347 Q447.9014,349.8828 450.4082,349.8828 Q451.1138,349.8828 451.7612,350.0322 Q452.4087,350.1816 452.9731,350.4805 L452.9731,353.2031 Q452.3423,352.6221 451.7488,352.3523 Q451.1553,352.0825 450.5244,352.0825 Q449.1797,352.0825 448.4949,353.1492 Q447.8101,354.2158 447.8101,356.3159 Q447.8101,358.4077 448.4949,359.4744 Q449.1797,360.541 450.5244,360.541 Q451.1553,360.541 451.7488,360.2712 Q452.3423,360.0015 452.9731,359.4204 Z " fill="#000000"/><text fill="#000000" font-family="sans-serif" font-size="14" lengthAdjust="spacing" textLength="155" x="465" y="361.791">ActivateUserController</text><line style="stroke:#181818;stroke-width:0.5;" x1="431.5" x2="626.5" y1="372.5" y2="372.5"/><line style="stroke:#181818;stroke-width:0.5;" x1="431.5" x2="626.5" y1="380.5" y2="380.5"/><ellipse cx="441.5" cy="394.2441" fill="#84BE84" rx="3" ry="3" style="stroke:#038048;stroke-width:1.0;"/><text fill="#000000" font-family="sans-serif" font-size="14" lengthAdjust="spacing" textLength="126" x="450.5" y="398.0352">deactivatedUsers()</text><ellipse cx="441.5" cy="410.7324" fill="#84BE84" rx="3" ry="3" style="stroke:#038048;stroke-width:1.0;"/><text fill="#000000" font-family="sans-serif" font-size="14" lengthAdjust="spacing" textLength="171" x="450.5" y="414.5234">activateUser(systemUser)</text></g><!--class DeactivateController--><g id="elem_DeactivateController"><rect codeLine="49" fill="#F1F1F1" height="80.9766" id="DeactivateController" rx="2.5" ry="2.5" style="stroke:#181818;stroke-width:0.5;" width="214" x="861" y="340.5"/><ellipse cx="894.9" cy="356.5" fill="#ADD1B2" rx="11" ry="11" style="stroke:#181818;stroke-width:1.0;"/><path d="M897.8731,362.1431 Q897.2921,362.4419 896.6529,362.5913 Q896.0138,362.7407 895.3082,362.7407 Q892.8014,362.7407 891.4815,361.0889 Q890.1617,359.437 890.1617,356.3159 Q890.1617,353.1865 891.4815,351.5347 Q892.8014,349.8828 895.3082,349.8828 Q896.0138,349.8828 896.6612,350.0322 Q897.3087,350.1816 897.8731,350.4805 L897.8731,353.2031 Q897.2423,352.6221 896.6488,352.3523 Q896.0553,352.0825 895.4244,352.0825 Q894.0797,352.0825 893.3949,353.1492 Q892.7101,354.2158 892.7101,356.3159 Q892.7101,358.4077 893.3949,359.4744 Q894.0797,360.541 895.4244,360.541 Q896.0553,360.541 896.6488,360.2712 Q897.2423,360.0015 897.8731,359.4204 Z " fill="#000000"/><text fill="#000000" font-family="sans-serif" font-size="14" lengthAdjust="spacing" textLength="140" x="913.1" y="361.791">DeactivateController</text><line style="stroke:#181818;stroke-width:0.5;" x1="862" x2="1074" y1="372.5" y2="372.5"/><line style="stroke:#181818;stroke-width:0.5;" x1="862" x2="1074" y1="380.5" y2="380.5"/><ellipse cx="872" cy="394.2441" fill="#84BE84" rx="3" ry="3" style="stroke:#038048;stroke-width:1.0;"/><text fill="#000000" font-family="sans-serif" font-size="14" lengthAdjust="spacing" textLength="87" x="881" y="398.0352">activeUsers()</text><ellipse cx="872" cy="410.7324" fill="#84BE84" rx="3" ry="3" style="stroke:#038048;stroke-width:1.0;"/><text fill="#000000" font-family="sans-serif" font-size="14" lengthAdjust="spacing" textLength="188" x="881" y="414.5234">deactivateUser(systemUser)</text></g><!--class ListUsersController--><g id="elem_ListUsersController"><rect codeLine="54" fill="#F1F1F1" height="80.9766" id="ListUsersController" rx="2.5" ry="2.5" style="stroke:#181818;stroke-width:0.5;" width="163" x="662.5" y="340.5"/><ellipse cx="677.5" cy="356.5" fill="#ADD1B2" rx="11" ry="11" style="stroke:#181818;stroke-width:1.0;"/><path d="M680.4731,362.1431 Q679.8921,362.4419 679.2529,362.5913 Q678.6138,362.7407 677.9082,362.7407 Q675.4014,362.7407 674.0815,361.0889 Q672.7617,359.437 672.7617,356.3159 Q672.7617,353.1865 674.0815,351.5347 Q675.4014,349.8828 677.9082,349.8828 Q678.6138,349.8828 679.2612,350.0322 Q679.9087,350.1816 680.4731,350.4805 L680.4731,353.2031 Q679.8423,352.6221 679.2488,352.3523 Q678.6553,352.0825 678.0244,352.0825 Q676.6797,352.0825 675.9949,353.1492 Q675.3101,354.2158 675.3101,356.3159 Q675.3101,358.4077 675.9949,359.4744 Q676.6797,360.541 678.0244,360.541 Q678.6553,360.541 679.2488,360.2712 Q679.8423,360.0015 680.4731,359.4204 Z " fill="#000000"/><text fill="#000000" font-family="sans-serif" font-size="14" lengthAdjust="spacing" textLength="131" x="691.5" y="361.791">ListUsersController</text><line style="stroke:#181818;stroke-width:0.5;" x1="663.5" x2="824.5" y1="372.5" y2="372.5"/><line style="stroke:#181818;stroke-width:0.5;" x1="663.5" x2="824.5" y1="380.5" y2="380.5"/><ellipse cx="673.5" cy="394.2441" fill="#84BE84" rx="3" ry="3" style="stroke:#038048;stroke-width:1.0;"/><text fill="#000000" font-family="sans-serif" font-size="14" lengthAdjust="spacing" textLength="64" x="682.5" y="398.0352">allUsers()</text><ellipse cx="673.5" cy="410.7324" fill="#84BE84" rx="3" ry="3" style="stroke:#038048;stroke-width:1.0;"/><text fill="#000000" font-family="sans-serif" font-size="14" lengthAdjust="spacing" textLength="133" x="682.5" y="414.5234">allBackofficeUsers()</text></g><!--class Jobs4UPasswordPolicy--><g id="elem_Jobs4UPasswordPolicy"><rect codeLine="59" fill="#F1F1F1" height="97.4648" id="Jobs4UPasswordPolicy" rx="2.5" ry="2.5" style="stroke:#181818;stroke-width:0.5;" width="210" x="86" y="666.5"/><ellipse cx="112.7" cy="682.5" fill="#ADD1B2" rx="11" ry="11" style="stroke:#181818;stroke-width:1.0;"/><path d="M115.6731,688.1431 Q115.0921,688.4419 114.4529,688.5913 Q113.8138,688.7407 113.1082,688.7407 Q110.6014,688.7407 109.2815,687.0889 Q107.9617,685.437 107.9617,682.3159 Q107.9617,679.1865 109.2815,677.5347 Q110.6014,675.8828 113.1082,675.8828 Q113.8138,675.8828 114.4612,676.0322 Q115.1087,676.1816 115.6731,676.4805 L115.6731,679.2031 Q115.0423,678.6221 114.4488,678.3523 Q113.8553,678.0825 113.2244,678.0825 Q111.8797,678.0825 111.1949,679.1492 Q110.5101,680.2158 110.5101,682.3159 Q110.5101,684.4077 111.1949,685.4744 Q111.8797,686.541 113.2244,686.541 Q113.8553,686.541 114.4488,686.2712 Q115.0423,686.0015 115.6731,685.4204 Z " fill="#000000"/><text fill="#000000" font-family="sans-serif" font-size="14" lengthAdjust="spacing" textLength="152" x="129.3" y="687.791">Jobs4UPasswordPolicy</text><line style="stroke:#181818;stroke-width:0.5;" x1="87" x2="295" y1="698.5" y2="698.5"/><line style="stroke:#181818;stroke-width:0.5;" x1="87" x2="295" y1="706.5" y2="706.5"/><ellipse cx="97" cy="720.2441" fill="#84BE84" rx="3" ry="3" style="stroke:#038048;stroke-width:1.0;"/><text fill="#000000" font-family="sans-serif" font-size="14" lengthAdjust="spacing" textLength="184" x="106" y="724.0352">isSatisfiedBy(rawPassword)</text><ellipse cx="97" cy="736.7324" fill="#84BE84" rx="3" ry="3" style="stroke:#038048;stroke-width:1.0;"/><text fill="#000000" font-family="sans-serif" font-size="14" lengthAdjust="spacing" textLength="183" x="106" y="740.5234">passwordGenerator(name)</text><ellipse cx="97" cy="753.2207" fill="#84BE84" rx="3" ry="3" style="stroke:#038048;stroke-width:1.0;"/><text fill="#000000" font-family="sans-serif" font-size="14" lengthAdjust="spacing" textLength="158" x="106" y="757.0117">strength(rawPassword)</text></g><!--class RepositoryFactory--><g id="elem_RepositoryFactory"><rect codeLine="65" fill="#F1F1F1" height="229.3711" id="RepositoryFactory" rx="2.5" ry="2.5" style="stroke:#181818;stroke-width:0.5;" width="346" x="673" y="959"/><ellipse cx="780.25" cy="975" fill="#B4A7E5" rx="11" ry="11" style="stroke:#181818;stroke-width:1.0;"/><path d="M776.1777,970.7651 L776.1777,968.6069 L783.5571,968.6069 L783.5571,970.7651 L781.0918,970.7651 L781.0918,978.8418 L783.5571,978.8418 L783.5571,981 L776.1777,981 L776.1777,978.8418 L778.6431,978.8418 L778.6431,970.7651 Z " fill="#000000"/><text fill="#000000" font-family="sans-serif" font-size="14" font-style="italic" lengthAdjust="spacing" textLength="123" x="800.75" y="980.291">RepositoryFactory</text><line style="stroke:#181818;stroke-width:0.5;" x1="674" x2="1018" y1="991" y2="991"/><line style="stroke:#181818;stroke-width:0.5;" x1="674" x2="1018" y1="999" y2="999"/><ellipse cx="684" cy="1012.7441" fill="#84BE84" rx="3" ry="3" style="stroke:#038048;stroke-width:1.0;"/><text fill="#000000" font-family="sans-serif" font-size="14" lengthAdjust="spacing" textLength="186" x="693" y="1016.5352">newTransactionalContext()</text><ellipse cx="684" cy="1029.2324" fill="#84BE84" rx="3" ry="3" style="stroke:#038048;stroke-width:1.0;"/><text fill="#000000" font-family="sans-serif" font-size="14" lengthAdjust="spacing" textLength="248" x="693" y="1033.0234">users(TransactionalContext autoTx)</text><ellipse cx="684" cy="1045.7207" fill="#84BE84" rx="3" ry="3" style="stroke:#038048;stroke-width:1.0;"/><text fill="#000000" font-family="sans-serif" font-size="14" lengthAdjust="spacing" textLength="47" x="693" y="1049.5117">users()</text><ellipse cx="684" cy="1062.209" fill="#84BE84" rx="3" ry="3" style="stroke:#038048;stroke-width:1.0;"/><text fill="#000000" font-family="sans-serif" font-size="14" lengthAdjust="spacing" textLength="313" x="693" y="1066">customerUsers(TransactionalContext autoTx)</text><ellipse cx="684" cy="1078.6973" fill="#84BE84" rx="3" ry="3" style="stroke:#038048;stroke-width:1.0;"/><text fill="#000000" font-family="sans-serif" font-size="14" lengthAdjust="spacing" textLength="112" x="693" y="1082.4883">customerUsers()</text><ellipse cx="684" cy="1095.1855" fill="#84BE84" rx="3" ry="3" style="stroke:#038048;stroke-width:1.0;"/><text fill="#000000" font-family="sans-serif" font-size="14" lengthAdjust="spacing" textLength="320" x="693" y="1098.9766">signupRequests(TransactionalContext autoTx)</text><ellipse cx="684" cy="1111.6738" fill="#84BE84" rx="3" ry="3" style="stroke:#038048;stroke-width:1.0;"/><text fill="#000000" font-family="sans-serif" font-size="14" lengthAdjust="spacing" textLength="119" x="693" y="1115.4648">signupRequests()</text><ellipse cx="684" cy="1128.1621" fill="#84BE84" rx="3" ry="3" style="stroke:#038048;stroke-width:1.0;"/><text fill="#000000" font-family="sans-serif" font-size="14" lengthAdjust="spacing" textLength="299" x="693" y="1131.9531">jobOpenings(TransactionalContext autoTx)</text><ellipse cx="684" cy="1144.6504" fill="#84BE84" rx="3" ry="3" style="stroke:#038048;stroke-width:1.0;"/><text fill="#000000" font-family="sans-serif" font-size="14" lengthAdjust="spacing" textLength="98" x="693" y="1148.4414">jobOpenings()</text><ellipse cx="684" cy="1161.1387" fill="#84BE84" rx="3" ry="3" style="stroke:#038048;stroke-width:1.0;"/><text fill="#000000" font-family="sans-serif" font-size="14" lengthAdjust="spacing" textLength="294" x="693" y="1164.9297">applications(TransactionalContext autoTx)</text><ellipse cx="684" cy="1177.627" fill="#84BE84" rx="3" ry="3" style="stroke:#038048;stroke-width:1.0;"/><text fill="#000000" font-family="sans-serif" font-size="14" lengthAdjust="spacing" textLength="93" x="693" y="1181.418">applications()</text></g><!--class PersistenceContext--><g id="elem_PersistenceContext"><rect codeLine="79" fill="#F1F1F1" height="80.9766" id="PersistenceContext" rx="2.5" ry="2.5" style="stroke:#181818;stroke-width:0.5;" width="168" x="762" y="674.5"/><ellipse cx="778.8" cy="690.5" fill="#ADD1B2" rx="11" ry="11" style="stroke:#181818;stroke-width:1.0;"/><path d="M781.7731,696.1431 Q781.1921,696.4419 780.5529,696.5913 Q779.9138,696.7407 779.2082,696.7407 Q776.7014,696.7407 775.3815,695.0889 Q774.0617,693.437 774.0617,690.3159 Q774.0617,687.1865 775.3815,685.5347 Q776.7014,683.8828 779.2082,683.8828 Q779.9138,683.8828 780.5612,684.0322 Q781.2087,684.1816 781.7731,684.4805 L781.7731,687.2031 Q781.1423,686.6221 780.5488,686.3523 Q779.9553,686.0825 779.3244,686.0825 Q777.9797,686.0825 777.2949,687.1492 Q776.6101,688.2158 776.6101,690.3159 Q776.6101,692.4077 777.2949,693.4744 Q777.9797,694.541 779.3244,694.541 Q779.9553,694.541 780.5488,694.2712 Q781.1423,694.0015 781.7731,693.4204 Z " fill="#000000"/><text fill="#000000" font-family="sans-serif" font-size="14" lengthAdjust="spacing" textLength="132" x="793.2" y="695.791">PersistenceContext</text><line style="stroke:#181818;stroke-width:0.5;" x1="763" x2="929" y1="706.5" y2="706.5"/><line style="stroke:#181818;stroke-width:0.5;" x1="763" x2="929" y1="714.5" y2="714.5"/><ellipse cx="773" cy="728.2441" fill="#84BE84" rx="3" ry="3" style="stroke:#038048;stroke-width:1.0;"/><text fill="#000000" font-family="sans-serif" font-size="14" lengthAdjust="spacing" textLength="92" x="782" y="732.0352">repositories()</text><ellipse cx="773" cy="744.7324" fill="#84BE84" rx="3" ry="3" style="stroke:#038048;stroke-width:1.0;"/><text fill="#000000" font-family="sans-serif" font-size="14" lengthAdjust="spacing" textLength="142" x="782" y="748.5234">PersistenceContext()</text></g><!--class UserManagementService--><g id="elem_UserManagementService"><rect codeLine="84" fill="#F1F1F1" height="245.8594" id="UserManagementService" rx="2.5" ry="2.5" style="stroke:#181818;stroke-width:0.5;" width="395" x="331.5" y="592"/><ellipse cx="440.75" cy="608" fill="#ADD1B2" rx="11" ry="11" style="stroke:#181818;stroke-width:1.0;"/><path d="M443.7231,613.6431 Q443.1421,613.9419 442.5029,614.0913 Q441.8638,614.2407 441.1582,614.2407 Q438.6514,614.2407 437.3315,612.5889 Q436.0117,610.937 436.0117,607.8159 Q436.0117,604.6865 437.3315,603.0347 Q438.6514,601.3828 441.1582,601.3828 Q441.8638,601.3828 442.5112,601.5322 Q443.1587,601.6816 443.7231,601.9805 L443.7231,604.7031 Q443.0923,604.1221 442.4988,603.8523 Q441.9053,603.5825 441.2744,603.5825 Q439.9297,603.5825 439.2449,604.6492 Q438.5601,605.7158 438.5601,607.8159 Q438.5601,609.9077 439.2449,610.9744 Q439.9297,612.041 441.2744,612.041 Q441.9053,612.041 442.4988,611.7712 Q443.0923,611.5015 443.7231,610.9204 Z " fill="#000000"/><text fill="#000000" font-family="sans-serif" font-size="14" lengthAdjust="spacing" textLength="168" x="461.25" y="613.291">UserManagementService</text><line style="stroke:#181818;stroke-width:0.5;" x1="332.5" x2="725.5" y1="624" y2="624"/><line style="stroke:#181818;stroke-width:0.5;" x1="332.5" x2="725.5" y1="632" y2="632"/><ellipse cx="342.5" cy="645.7441" fill="#84BE84" rx="3" ry="3" style="stroke:#038048;stroke-width:1.0;"/><text fill="#000000" font-family="sans-serif" font-size="14" lengthAdjust="spacing" textLength="355" x="351.5" y="649.5352">UserManagementService(userRepo, policy, encoder)</text><ellipse cx="342.5" cy="662.2324" fill="#84BE84" rx="3" ry="3" style="stroke:#038048;stroke-width:1.0;"/><text fill="#000000" font-family="sans-serif" font-size="14" lengthAdjust="spacing" textLength="296" x="351.5" y="666.0234">registerNewUser( username,  rawPassword,</text><text fill="#000000" font-family="sans-serif" font-size="14" lengthAdjust="spacing" textLength="316" x="351.5" y="682.5117">firstName,  lastName,  email, roles, createdOn)</text><ellipse cx="342.5" cy="695.209" fill="#84BE84" rx="3" ry="3" style="stroke:#038048;stroke-width:1.0;"/><text fill="#000000" font-family="sans-serif" font-size="14" lengthAdjust="spacing" textLength="296" x="351.5" y="699">registerNewUser( username,  rawPassword,</text><text fill="#000000" font-family="sans-serif" font-size="14" lengthAdjust="spacing" textLength="237" x="351.5" y="715.4883">firstName,  lastName,  email, roles)</text><ellipse cx="342.5" cy="728.1855" fill="#84BE84" rx="3" ry="3" style="stroke:#038048;stroke-width:1.0;"/><text fill="#000000" font-family="sans-serif" font-size="14" lengthAdjust="spacing" textLength="369" x="351.5" y="731.9766">registerUser(username, password, name, email, roles)</text><ellipse cx="342.5" cy="744.6738" fill="#84BE84" rx="3" ry="3" style="stroke:#038048;stroke-width:1.0;"/><text fill="#000000" font-family="sans-serif" font-size="14" lengthAdjust="spacing" textLength="87" x="351.5" y="748.4648">activeUsers()</text><ellipse cx="342.5" cy="761.1621" fill="#84BE84" rx="3" ry="3" style="stroke:#038048;stroke-width:1.0;"/><text fill="#000000" font-family="sans-serif" font-size="14" lengthAdjust="spacing" textLength="126" x="351.5" y="764.9531">deactivatedUsers()</text><ellipse cx="342.5" cy="777.6504" fill="#84BE84" rx="3" ry="3" style="stroke:#038048;stroke-width:1.0;"/><text fill="#000000" font-family="sans-serif" font-size="14" lengthAdjust="spacing" textLength="64" x="351.5" y="781.4414">allUsers()</text><ellipse cx="342.5" cy="794.1387" fill="#84BE84" rx="3" ry="3" style="stroke:#038048;stroke-width:1.0;"/><text fill="#000000" font-family="sans-serif" font-size="14" lengthAdjust="spacing" textLength="120" x="351.5" y="797.9297">userOfIdentity(id)</text><ellipse cx="342.5" cy="810.627" fill="#84BE84" rx="3" ry="3" style="stroke:#038048;stroke-width:1.0;"/><text fill="#000000" font-family="sans-serif" font-size="14" lengthAdjust="spacing" textLength="140" x="351.5" y="814.418">deactivateUser(user)</text><ellipse cx="342.5" cy="827.1152" fill="#84BE84" rx="3" ry="3" style="stroke:#038048;stroke-width:1.0;"/><text fill="#000000" font-family="sans-serif" font-size="14" lengthAdjust="spacing" textLength="123" x="351.5" y="830.9063">activateUser(user)</text></g><!--link AddUserUI to AddUserController--><g id="link_AddUserUI_AddUserController"><path codeLine="100" d="M201,162.31 C201,201.32 201,243.53 201,284.75 " fill="none" id="AddUserUI-to-AddUserController" style="stroke:#181818;stroke-width:1.0;"/><polygon fill="#181818" points="201,290.75,205,281.75,201,285.75,197,281.75,201,290.75" style="stroke:#181818;stroke-width:1.0;"/></g><!--link AddUserController to Jobs4UPasswordPolicy--><g id="link_AddUserController_Jobs4UPasswordPolicy"><path codeLine="102" d="M191,471.39 C191,534.17 191,609.41 191,660.37 " fill="none" id="AddUserController-to-Jobs4UPasswordPolicy" style="stroke:#181818;stroke-width:1.0;"/><polygon fill="#181818" points="191,666.37,195,657.37,191,661.37,187,657.37,191,666.37" style="stroke:#181818;stroke-width:1.0;"/></g><!--link AddUserController to UserManagementService--><g id="link_AddUserController_UserManagementService"><path codeLine="104" d="M363.25,471.39 C363.25,508.38 363.25,545.78 363.25,585.62 " fill="none" id="AddUserController-to-UserManagementService" style="stroke:#181818;stroke-width:1.0;"/><polygon fill="#181818" points="363.25,591.62,367.25,582.62,363.25,586.62,359.25,582.62,363.25,591.62" style="stroke:#181818;stroke-width:1.0;"/></g><!--link AddUserController to PersistenceContext--><g id="link_AddUserController_PersistenceContext"><path codeLine="106" d="M395.5,455 C562.97,455 777.88,455 777.88,455 C777.88,455 777.88,594.87 777.88,668.09 " fill="none" id="AddUserController-to-PersistenceContext" style="stroke:#181818;stroke-width:1.0;"/><polygon fill="#181818" points="777.88,674.09,781.88,665.09,777.88,669.09,773.88,665.09,777.88,674.09" style="stroke:#181818;stroke-width:1.0;"/></g><!--link ActivateUserUI to ActivateUserController--><g id="link_ActivateUserUI_ActivateUserController"><path codeLine="109" d="M529,129.48 C529,185.29 529,278.63 529,334.3 " fill="none" id="ActivateUserUI-to-ActivateUserController" style="stroke:#181818;stroke-width:1.0;"/><polygon fill="#181818" points="529,340.3,533,331.3,529,335.3,525,331.3,529,340.3" style="stroke:#181818;stroke-width:1.0;"/></g><!--link ActivateUserController to UserManagementService--><g id="link_ActivateUserController_UserManagementService"><path codeLine="112" d="M561.83,421.95 C561.83,464.11 561.83,525.88 561.83,585.64 " fill="none" id="ActivateUserController-to-UserManagementService" style="stroke:#181818;stroke-width:1.0;"/><polygon fill="#181818" points="561.83,591.64,565.83,582.64,561.83,586.64,557.83,582.64,561.83,591.64" style="stroke:#181818;stroke-width:1.0;"/></g><!--link ActivateUserController to PersistenceContext--><g id="link_ActivateUserController_PersistenceContext"><path codeLine="114" d="M496.17,421.82 C496.17,430.96 496.17,438 496.17,438 C496.17,438 793.75,438 793.75,438 C793.75,438 793.75,591.08 793.75,668.13 " fill="none" id="ActivateUserController-to-PersistenceContext" style="stroke:#181818;stroke-width:1.0;"/><polygon fill="#181818" points="793.75,674.13,797.75,665.13,793.75,669.13,789.75,665.13,793.75,674.13" style="stroke:#181818;stroke-width:1.0;"/></g><!--link DeactivateUserUI to DeactivateController--><g id="link_DeactivateUserUI_DeactivateController"><path codeLine="117" d="M968,129.48 C968,185.29 968,278.63 968,334.3 " fill="none" id="DeactivateUserUI-to-DeactivateController" style="stroke:#181818;stroke-width:1.0;"/><polygon fill="#181818" points="968,340.3,972,331.3,968,335.3,964,331.3,968,340.3" style="stroke:#181818;stroke-width:1.0;"/></g><!--link DeactivateController to UserManagementService--><g id="link_DeactivateController_UserManagementService"><path codeLine="120" d="M884,421.93 C884,493.53 884,634 884,634 C884,634 814.26,634 732.74,634 " fill="none" id="DeactivateController-to-UserManagementService" style="stroke:#181818;stroke-width:1.0;"/><polygon fill="#181818" points="726.74,634,735.74,638,731.74,634,735.74,630,726.74,634" style="stroke:#181818;stroke-width:1.0;"/></g><!--link DeactivateController to PersistenceContext--><g id="link_DeactivateController_PersistenceContext"><path codeLine="122" d="M907,421.95 C907,486.23 907,604.07 907,668.23 " fill="none" id="DeactivateController-to-PersistenceContext" style="stroke:#181818;stroke-width:1.0;"/><polygon fill="#181818" points="907,674.23,911,665.23,907,669.23,903,665.23,907,674.23" style="stroke:#181818;stroke-width:1.0;"/></g><!--link ListBackofficeUsersUI to ListUsersController--><g id="link_ListBackofficeUsersUI_ListUsersController"><path codeLine="125" d="M744,170.37 C744,225.63 744,290.22 744,334.02 " fill="none" id="ListBackofficeUsersUI-to-ListUsersController" style="stroke:#181818;stroke-width:1.0;"/><polygon fill="#181818" points="744,340.02,748,331.02,744,335.02,740,331.02,744,340.02" style="stroke:#181818;stroke-width:1.0;"/></g><!--link ListUsersController to UserManagementService--><g id="link_ListUsersController_UserManagementService"><path codeLine="128" d="M694.5,421.95 C694.5,464.11 694.5,525.88 694.5,585.64 " fill="none" id="ListUsersController-to-UserManagementService" style="stroke:#181818;stroke-width:1.0;"/><polygon fill="#181818" points="694.5,591.64,698.5,582.64,694.5,586.64,690.5,582.64,694.5,591.64" style="stroke:#181818;stroke-width:1.0;"/></g><!--link ListUsersController to PersistenceContext--><g id="link_ListUsersController_PersistenceContext"><path codeLine="130" d="M809.62,421.95 C809.62,486.23 809.62,604.07 809.62,668.23 " fill="none" id="ListUsersController-to-PersistenceContext" style="stroke:#181818;stroke-width:1.0;"/><polygon fill="#181818" points="809.62,674.23,813.62,665.23,809.62,669.23,805.62,665.23,809.62,674.23" style="stroke:#181818;stroke-width:1.0;"/></g><!--link PersistenceContext to RepositoryFactory--><g id="link_PersistenceContext_RepositoryFactory"><path codeLine="133" d="M846,755.78 C846,804.78 846,883.07 846,952.53 " fill="none" id="PersistenceContext-to-RepositoryFactory" style="stroke:#181818;stroke-width:1.0;"/><polygon fill="#181818" points="846,958.53,850,949.53,846,953.53,842,949.53,846,958.53" style="stroke:#181818;stroke-width:1.0;"/></g><!--SRC=[jLRBRjim4BpxAtYhWjezzLmWST4sHPCOZlq1jBYIsL2aIb9nX23_tYLblIb7A50VR8kSdTqbXqEP9ovpgcb619TWono8qlQe5Xy499POHJHFZvOmhY6sNCd58XRK67BDsDw0tj-IrmN1pqV2rEDHdQAhywF1XwqIO2ADtpjaDlNKeU22-RaxaCN4_BemLcMWxwYaAUZhPye5FGYunFcGWwPMlGicHw3CDOpLlZKTON_FrCBbjaAHNu7-S-mlRkmDZPzKal3OnviE0GZ8G5eJeZWZijoMTs0CBb8xM8LjD9SMz73udcOjL63-7qZQWJLLlmqsUwsanRKKe9i2Svm-ASs-WwoMFfB8NZFHAYugyCkDBnlyaYHS6r_AqeCnJ_M47U7cBOdRDBCawq9hh7d7CrXJ0P9HRJv9LzwC91xH9ff8KXDfI74nGD_3oHDwieQhYd01DJu5kwsL5NK6huMeT3SXhi0oiaP1lfUMhYkio9HONkR-1iKNuFLJqATay3wfKwMF2d4ACQXHY862kvt_L0VpURyvB-D62HwN3HStZzHoat1WDsMawQd6NStIbx6eZTGU-v6Oski-eJ6GBUJAS0mils7R-DFabd3QQIeDzRv6XMiLNcpJLk4x2K48BQpQlVI1zLDyzgtztF1-GDCQJsMHR-5F0SREuXb4rCE_rG5jKNAPpcBfmfiDpdFSDUh2Pd7qy1qfRB11Ty9a37NWQtFspjl4EsTfZE-okVMgBWTdQe-Wdr5-3M5mrdk4KmHwX1SY6e6C5NFQ3ti0QLs5T4GsSfQEjGmCBDRWZlM3_5yfXhoJZYiddU-oJR3HSUyFk5mFoIt3TUQsZ3YRS9h2jEiScC2DNRHl5QlLwilutcaG7L_oo93BJ8A3sfX4ZrNe2krV-5MrGOyVWEVMSY4aMD3e7SH3GvT33popdEc0O37XbngF3zmivu3XVNEfdabyi9o0xtZmw6vO_0K0]--></g></svg>