<?xml version="1.0" encoding="us-ascii" standalone="no"?><svg xmlns="http://www.w3.org/2000/svg" xmlns:xlink="http://www.w3.org/1999/xlink" contentStyleType="text/css" height="290.4px" preserveAspectRatio="none" style="width:519px;height:290px;background:#FFFFFF;" version="1.1" viewBox="0 0 519 290" width="519.2px" zoomAndPan="magnify"><defs/><g><text fill="#000000" font-family="sans-serif" font-size="11.2" font-weight="bold" lengthAdjust="spacing" textLength="84" x="212" y="18.8281">Domain Model</text><!--cluster Admin Aggregate--><g id="cluster_Admin Aggregate"><rect fill="none" height="92" rx="2" ry="2" style="stroke:#000000;stroke-width:1.2000000000000002;" width="112.8" x="5.6" y="114.7906"/><text fill="#000000" font-family="sans-serif" font-size="11.2" font-weight="bold" lengthAdjust="spacing" textLength="100" x="12" y="127.2188">Admin Aggregate</text></g><!--cluster User Aggregate--><g id="cluster_User Aggregate"><rect fill="none" height="250.4" rx="2" ry="2" style="stroke:#000000;stroke-width:1.2000000000000002;" width="274.4" x="240" y="35.5906"/><text fill="#000000" font-family="sans-serif" font-size="11.2" font-weight="bold" lengthAdjust="spacing" textLength="88" x="333.2" y="48.0188">User Aggregate</text></g><!--class Admin--><g id="elem_Admin"><rect codeLine="27" fill="#F0FFFF" height="50.2031" id="Admin" rx="2" ry="2" style="stroke:#000000;stroke-width:0.4000000000000001;" width="61.6" x="31.2" y="143.1906"/><ellipse cx="43.2" cy="165.0922" fill="#ADD1B2" rx="8.8" ry="8.8" style="stroke:#181818;stroke-width:0.8000000000000002;"/><path d="M46.4914,169.8922 L40.3156,169.8922 L40.3156,159.9777 L46.4914,159.9777 L46.4914,161.7043 L42.2746,161.7043 L42.2746,163.8426 L46.093,163.8426 L46.093,165.5691 L42.2746,165.5691 L42.2746,168.1656 L46.4914,168.1656 Z " fill="#000000"/><text fill="#000000" font-family="sans-serif" font-size="9.6" font-style="italic" lengthAdjust="spacing" textLength="34.4" x="55.2" y="156.4719">&#171;entity&#187;</text><text fill="#000000" font-family="sans-serif" font-size="9.6" font-style="italic" lengthAdjust="spacing" textLength="28" x="58.4" y="167.7781">&#171;root&#187;</text><text fill="#000000" font-family="sans-serif" font-size="11.2" lengthAdjust="spacing" textLength="36" x="54.4" y="180.6313">Admin</text><line style="stroke:#000000;stroke-width:0.4000000000000001;" x1="32" x2="92" y1="186.9938" y2="186.9938"/></g><!--class User--><g id="elem_User"><rect codeLine="31" fill="#F0FFFF" height="50.2031" id="User" rx="2" ry="2" style="stroke:#000000;stroke-width:0.4000000000000001;" width="56.8" x="252.8" y="143.1906"/><ellipse cx="264.8" cy="165.0922" fill="#ADD1B2" rx="8.8" ry="8.8" style="stroke:#181818;stroke-width:0.8000000000000002;"/><path d="M268.0914,169.8922 L261.9156,169.8922 L261.9156,159.9777 L268.0914,159.9777 L268.0914,161.7043 L263.8746,161.7043 L263.8746,163.8426 L267.693,163.8426 L267.693,165.5691 L263.8746,165.5691 L263.8746,168.1656 L268.0914,168.1656 Z " fill="#000000"/><text fill="#000000" font-family="sans-serif" font-size="9.6" font-style="italic" lengthAdjust="spacing" textLength="34.4" x="274.4" y="156.4719">&#171;entity&#187;</text><text fill="#000000" font-family="sans-serif" font-size="9.6" font-style="italic" lengthAdjust="spacing" textLength="28" x="277.6" y="167.7781">&#171;root&#187;</text><text fill="#000000" font-family="sans-serif" font-size="11.2" lengthAdjust="spacing" textLength="24.8" x="279.2" y="180.6313">User</text><line style="stroke:#000000;stroke-width:0.4000000000000001;" x1="253.6" x2="308.8" y1="186.9938" y2="186.9938"/></g><!--entity UserEmail--><g id="elem_UserEmail"><rect fill="#F0FFDD" height="31.1813" rx="2" ry="2" style="stroke:#000000;stroke-width:0.4000000000000001;" width="96" x="382" y="241.5906"/><text fill="#000000" font-family="sans-serif" font-size="11.2" font-style="italic" lengthAdjust="spacing" textLength="80" x="390" y="254.8188">&#171;Value Object&#187;</text><text fill="#000000" font-family="sans-serif" font-size="11.2" lengthAdjust="spacing" textLength="54.4" x="402.8" y="268.0094">UserEmail</text></g><!--entity UserName--><g id="elem_UserName"><rect fill="#F0FFDD" height="31.1813" rx="2" ry="2" style="stroke:#000000;stroke-width:0.4000000000000001;" width="96" x="382" y="182.3906"/><text fill="#000000" font-family="sans-serif" font-size="11.2" font-style="italic" lengthAdjust="spacing" textLength="80" x="390" y="195.6188">&#171;Value Object&#187;</text><text fill="#000000" font-family="sans-serif" font-size="11.2" lengthAdjust="spacing" textLength="56" x="402" y="208.8094">UserName</text></g><!--entity UserPassword--><g id="elem_UserPassword"><rect fill="#F0FFDD" height="31.1813" rx="2" ry="2" style="stroke:#000000;stroke-width:0.4000000000000001;" width="96" x="382" y="123.1906"/><text fill="#000000" font-family="sans-serif" font-size="11.2" font-style="italic" lengthAdjust="spacing" textLength="80" x="390" y="136.4188">&#171;Value Object&#187;</text><text fill="#000000" font-family="sans-serif" font-size="11.2" lengthAdjust="spacing" textLength="76.8" x="391.6" y="149.6094">UserPassword</text></g><!--entity UserTelephoneNumber--><g id="elem_UserTelephoneNumber"><rect fill="#F0FFDD" height="31.1813" rx="2" ry="2" style="stroke:#000000;stroke-width:0.4000000000000001;" width="143.2" x="358.4" y="63.9906"/><text fill="#000000" font-family="sans-serif" font-size="11.2" font-style="italic" lengthAdjust="spacing" textLength="80" x="390" y="77.2188">&#171;Value Object&#187;</text><text fill="#000000" font-family="sans-serif" font-size="11.2" lengthAdjust="spacing" textLength="127.2" x="366.4" y="90.4094">UserTelephoneNumber</text></g><!--link User to UserEmail--><g id="link_User_UserEmail"><path codeLine="42" d="M309.752,192.7586 C323.72,204.2626 341.296,217.6226 358.4,227.5906 C367.032,232.6226 372.2806,235.3453 381.6086,239.3693 " fill="none" id="User-to-UserEmail" style="stroke:#808080;stroke-width:0.8000000000000002;"/><polygon fill="#808080" points="386.016,241.2706,380.6725,235.4804,382.3432,239.6862,378.1374,241.3569,386.016,241.2706" style="stroke:#808080;stroke-width:0.8000000000000002;"/></g><!--link User to UserName--><g id="link_User_UserName"><path codeLine="43" d="M309.688,173.9586 C329.928,178.0306 353.1663,182.7001 376.9503,187.4841 " fill="none" id="User-to-UserName" style="stroke:#808080;stroke-width:0.8000000000000002;"/><polygon fill="#808080" points="381.656,188.4306,375.2284,183.8737,377.7345,187.6418,373.9664,190.148,381.656,188.4306" style="stroke:#808080;stroke-width:0.8000000000000002;"/></g><!--link User to UserTelephoneNumber--><g id="link_User_UserTelephoneNumber"><path codeLine="44" d="M309.752,144.0226 C323.72,132.5186 341.296,119.1586 358.4,109.1906 C367.032,104.1586 372.2806,101.4359 381.6086,97.4119 " fill="none" id="User-to-UserTelephoneNumber" style="stroke:#808080;stroke-width:0.8000000000000002;"/><polygon fill="#808080" points="386.016,95.5106,378.1374,95.4243,382.3432,97.095,380.6725,101.3008,386.016,95.5106" style="stroke:#808080;stroke-width:0.8000000000000002;"/></g><!--link User to UserPassword--><g id="link_User_UserPassword"><path codeLine="45" d="M309.688,162.8226 C329.928,158.7506 353.1663,154.0812 376.9503,149.2972 " fill="none" id="User-to-UserPassword" style="stroke:#808080;stroke-width:0.8000000000000002;"/><polygon fill="#808080" points="381.656,148.3506,373.9664,146.6333,377.7345,149.1394,375.2284,152.9076,381.656,148.3506" style="stroke:#808080;stroke-width:0.8000000000000002;"/></g><!--link Admin to User--><g id="link_Admin_User"><path codeLine="47" d="M93.056,168.3906 C135.328,168.3906 206.68,168.3906 247.664,168.3906 " fill="none" id="Admin-to-User" style="stroke:#808080;stroke-width:0.8000000000000002;"/><polygon fill="#808080" points="252.464,168.3906,245.264,165.1906,248.464,168.3906,245.264,171.5906,252.464,168.3906" style="stroke:#808080;stroke-width:0.8000000000000002;"/><text fill="#000000" font-family="sans-serif" font-size="10.4" lengthAdjust="spacing" textLength="44.8" x="156.8" y="165.6453">manages</text></g><!--SRC=[fP9FQy904CNl-oc6zD2Jq7C9WMYg25Q5sjvNTqosRdR3P4M2-DqxIRJ-BqBticJcFVRzPf9fXP2ZpvmgXS6b1- -0T9fvK9fmuRMpuhbSQLj8aZaORT5N1O8ZzWWnqzuW18dBfRRmxXIQG8YZVc5aMS9M09-HNkA8_Lr72gddZ2D89AswPetd0hbOfUJMLhMYU3eT3NlnR3WPDxhB_bF_fS-dwSL4RjEMKyAgrPyyE3Ti5hlJZ0LNP8eVlcAKcbdQrE0PXIJr1yI04Et_2PBaag2Upk0MHVT08VRX8OXLpXk8KwPEfSTWAz1wxIje6s7OVaPH699pFee4-t_TdoNIBNDJl-Mj4pLZgHLll7t3iY_9guJ9_9k764NxYUtEjMEPuuFIAVyx6wP-K3v3WqNcB8xN-Ro9VSVLN0rPfnCT0QxBTTRhwiKxru93Rj46R1VGENHV8PUMXrx-0000]--></g></svg>