<?xml version="1.0" encoding="us-ascii" standalone="no"?><svg xmlns="http://www.w3.org/2000/svg" xmlns:xlink="http://www.w3.org/1999/xlink" contentStyleType="text/css" height="592px" preserveAspectRatio="none" style="width:1430px;height:592px;background:#FFFFFF;" version="1.1" viewBox="0 0 1430 592" width="1430px" zoomAndPan="magnify"><defs/><g><rect fill="#FFFFFF" height="402.3477" style="stroke:#181818;stroke-width:1.0;" width="10" x="50.5" y="91.4883"/><rect fill="#FFFFFF" height="29.3105" style="stroke:#181818;stroke-width:1.0;" width="10" x="387.5" y="112.7988"/><rect fill="#FFFFFF" height="322.416" style="stroke:#181818;stroke-width:1.0;" width="10" x="387.5" y="171.4199"/><rect fill="#FFFFFF" height="263.7949" style="stroke:#181818;stroke-width:1.0;" width="10" x="602.5" y="200.7305"/><rect fill="#FFFFFF" height="29.3105" style="stroke:#181818;stroke-width:1.0;" width="10" x="904.5" y="230.041"/><rect fill="#FFFFFF" height="146.5527" style="stroke:#181818;stroke-width:1.0;" width="10" x="1084" y="288.6621"/><rect fill="#FFFFFF" height="29.3105" style="stroke:#181818;stroke-width:1.0;" width="10" x="1244" y="376.5938"/><rect fill="#FFFFFF" height="29.3105" style="stroke:#181818;stroke-width:1.0;" width="10" x="1366" y="317.9727"/><line style="stroke:#181818;stroke-width:0.5;stroke-dasharray:5.0,5.0;" x1="55" x2="55" y1="81.4883" y2="511.8359"/><line style="stroke:#181818;stroke-width:0.5;stroke-dasharray:5.0,5.0;" x1="392" x2="392" y1="81.4883" y2="511.8359"/><line style="stroke:#181818;stroke-width:0.5;stroke-dasharray:5.0,5.0;" x1="607" x2="607" y1="81.4883" y2="511.8359"/><line style="stroke:#181818;stroke-width:0.5;stroke-dasharray:5.0,5.0;" x1="909" x2="909" y1="81.4883" y2="511.8359"/><line style="stroke:#181818;stroke-width:0.5;stroke-dasharray:5.0,5.0;" x1="1089" x2="1089" y1="81.4883" y2="511.8359"/><line style="stroke:#181818;stroke-width:0.5;stroke-dasharray:5.0,5.0;" x1="1249" x2="1249" y1="81.4883" y2="511.8359"/><line style="stroke:#181818;stroke-width:0.5;stroke-dasharray:5.0,5.0;" x1="1371" x2="1371" y1="81.4883" y2="511.8359"/><text fill="#000000" font-family="sans-serif" font-size="14" lengthAdjust="spacing" textLength="95" x="5" y="78.5352">Administrator</text><ellipse cx="55.5" cy="13.5" fill="#E2E2F0" rx="8" ry="8" style="stroke:#181818;stroke-width:0.5;"/><path d="M55.5,21.5 L55.5,48.5 M42.5,29.5 L68.5,29.5 M55.5,48.5 L42.5,63.5 M55.5,48.5 L68.5,63.5 " fill="none" style="stroke:#181818;stroke-width:0.5;"/><text fill="#000000" font-family="sans-serif" font-size="14" lengthAdjust="spacing" textLength="95" x="5" y="524.3711">Administrator</text><ellipse cx="55.5" cy="535.8242" fill="#E2E2F0" rx="8" ry="8" style="stroke:#181818;stroke-width:0.5;"/><path d="M55.5,543.8242 L55.5,570.8242 M42.5,551.8242 L68.5,551.8242 M55.5,570.8242 L42.5,585.8242 M55.5,570.8242 L68.5,585.8242 " fill="none" style="stroke:#181818;stroke-width:0.5;"/><rect fill="#E2E2F0" height="46.9766" rx="2.5" ry="2.5" style="stroke:#181818;stroke-width:0.5;" width="129" x="328" y="33.5117"/><text fill="#000000" font-family="sans-serif" font-size="14" font-style="italic" lengthAdjust="spacing" textLength="101" x="342" y="54.0469">&#171;presentation&#187;</text><text fill="#000000" font-family="sans-serif" font-size="14" lengthAdjust="spacing" textLength="115" x="335" y="70.5352">DeactivateUserUI</text><rect fill="#E2E2F0" height="46.9766" rx="2.5" ry="2.5" style="stroke:#181818;stroke-width:0.5;" width="129" x="328" y="510.8359"/><text fill="#000000" font-family="sans-serif" font-size="14" font-style="italic" lengthAdjust="spacing" textLength="101" x="342" y="531.3711">&#171;presentation&#187;</text><text fill="#000000" font-family="sans-serif" font-size="14" lengthAdjust="spacing" textLength="115" x="335" y="547.8594">DeactivateUserUI</text><rect fill="#E2E2F0" height="46.9766" rx="2.5" ry="2.5" style="stroke:#181818;stroke-width:0.5;" width="185" x="515" y="33.5117"/><text fill="#000000" font-family="sans-serif" font-size="14" font-style="italic" lengthAdjust="spacing" textLength="90" x="562.5" y="54.0469">&#171;application&#187;</text><text fill="#000000" font-family="sans-serif" font-size="14" lengthAdjust="spacing" textLength="171" x="522" y="70.5352">DeactivateUserController</text><rect fill="#E2E2F0" height="46.9766" rx="2.5" ry="2.5" style="stroke:#181818;stroke-width:0.5;" width="185" x="515" y="510.8359"/><text fill="#000000" font-family="sans-serif" font-size="14" font-style="italic" lengthAdjust="spacing" textLength="90" x="562.5" y="531.3711">&#171;application&#187;</text><text fill="#000000" font-family="sans-serif" font-size="14" lengthAdjust="spacing" textLength="171" x="522" y="547.8594">DeactivateUserController</text><rect fill="#E2E2F0" height="46.9766" rx="2.5" ry="2.5" style="stroke:#181818;stroke-width:0.5;" width="157" x="831" y="33.5117"/><text fill="#000000" font-family="sans-serif" font-size="14" font-style="italic" lengthAdjust="spacing" textLength="61" x="879" y="54.0469">&#171;service&#187;</text><text fill="#000000" font-family="sans-serif" font-size="14" lengthAdjust="spacing" textLength="143" x="838" y="70.5352">AuthorizationService</text><rect fill="#E2E2F0" height="46.9766" rx="2.5" ry="2.5" style="stroke:#181818;stroke-width:0.5;" width="157" x="831" y="510.8359"/><text fill="#000000" font-family="sans-serif" font-size="14" font-style="italic" lengthAdjust="spacing" textLength="61" x="879" y="531.3711">&#171;service&#187;</text><text fill="#000000" font-family="sans-serif" font-size="14" lengthAdjust="spacing" textLength="143" x="838" y="547.8594">AuthorizationService</text><rect fill="#E2E2F0" height="46.9766" rx="2.5" ry="2.5" style="stroke:#181818;stroke-width:0.5;" width="182" x="998" y="33.5117"/><text fill="#000000" font-family="sans-serif" font-size="14" font-style="italic" lengthAdjust="spacing" textLength="61" x="1058.5" y="54.0469">&#171;service&#187;</text><text fill="#000000" font-family="sans-serif" font-size="14" lengthAdjust="spacing" textLength="168" x="1005" y="70.5352">UserManagementService</text><rect fill="#E2E2F0" height="46.9766" rx="2.5" ry="2.5" style="stroke:#181818;stroke-width:0.5;" width="182" x="998" y="510.8359"/><text fill="#000000" font-family="sans-serif" font-size="14" font-style="italic" lengthAdjust="spacing" textLength="61" x="1058.5" y="531.3711">&#171;service&#187;</text><text fill="#000000" font-family="sans-serif" font-size="14" lengthAdjust="spacing" textLength="168" x="1005" y="547.8594">UserManagementService</text><rect fill="#E2E2F0" height="46.9766" rx="2.5" ry="2.5" style="stroke:#181818;stroke-width:0.5;" width="118" x="1190" y="33.5117"/><text fill="#000000" font-family="sans-serif" font-size="14" font-style="italic" lengthAdjust="spacing" textLength="84" x="1207" y="54.0469">&#171;repository&#187;</text><text fill="#000000" font-family="sans-serif" font-size="14" lengthAdjust="spacing" textLength="104" x="1197" y="70.5352">UserRepository</text><rect fill="#E2E2F0" height="46.9766" rx="2.5" ry="2.5" style="stroke:#181818;stroke-width:0.5;" width="118" x="1190" y="510.8359"/><text fill="#000000" font-family="sans-serif" font-size="14" font-style="italic" lengthAdjust="spacing" textLength="84" x="1207" y="531.3711">&#171;repository&#187;</text><text fill="#000000" font-family="sans-serif" font-size="14" lengthAdjust="spacing" textLength="104" x="1197" y="547.8594">UserRepository</text><rect fill="#E2E2F0" height="46.9766" rx="2.5" ry="2.5" style="stroke:#181818;stroke-width:0.5;" width="106" x="1318" y="33.5117"/><text fill="#000000" font-family="sans-serif" font-size="14" font-style="italic" lengthAdjust="spacing" textLength="92" x="1325" y="54.0469">&#171;systemUser&#187;</text><text fill="#000000" font-family="sans-serif" font-size="14" lengthAdjust="spacing" textLength="79" x="1331.5" y="70.5352">SystemUser</text><rect fill="#E2E2F0" height="46.9766" rx="2.5" ry="2.5" style="stroke:#181818;stroke-width:0.5;" width="106" x="1318" y="510.8359"/><text fill="#000000" font-family="sans-serif" font-size="14" font-style="italic" lengthAdjust="spacing" textLength="92" x="1325" y="531.3711">&#171;systemUser&#187;</text><text fill="#000000" font-family="sans-serif" font-size="14" lengthAdjust="spacing" textLength="79" x="1331.5" y="547.8594">SystemUser</text><rect fill="#FFFFFF" height="402.3477" style="stroke:#181818;stroke-width:1.0;" width="10" x="50.5" y="91.4883"/><rect fill="#FFFFFF" height="29.3105" style="stroke:#181818;stroke-width:1.0;" width="10" x="387.5" y="112.7988"/><rect fill="#FFFFFF" height="322.416" style="stroke:#181818;stroke-width:1.0;" width="10" x="387.5" y="171.4199"/><rect fill="#FFFFFF" height="263.7949" style="stroke:#181818;stroke-width:1.0;" width="10" x="602.5" y="200.7305"/><rect fill="#FFFFFF" height="29.3105" style="stroke:#181818;stroke-width:1.0;" width="10" x="904.5" y="230.041"/><rect fill="#FFFFFF" height="146.5527" style="stroke:#181818;stroke-width:1.0;" width="10" x="1084" y="288.6621"/><rect fill="#FFFFFF" height="29.3105" style="stroke:#181818;stroke-width:1.0;" width="10" x="1244" y="376.5938"/><rect fill="#FFFFFF" height="29.3105" style="stroke:#181818;stroke-width:1.0;" width="10" x="1366" y="317.9727"/><polygon fill="#181818" points="375.5,108.7988,385.5,112.7988,375.5,116.7988,379.5,112.7988" style="stroke:#181818;stroke-width:1.0;"/><line style="stroke:#181818;stroke-width:1.0;" x1="60.5" x2="381.5" y1="112.7988" y2="112.7988"/><text fill="#000000" font-family="sans-serif" font-size="13" font-weight="bold" lengthAdjust="spacing" textLength="9" x="67.5" y="108.0566">1</text><text fill="#000000" font-family="sans-serif" font-size="13" lengthAdjust="spacing" textLength="141" x="80.5" y="108.0566">deactivate systemUser</text><polygon fill="#181818" points="71.5,138.1094,61.5,142.1094,71.5,146.1094,67.5,142.1094" style="stroke:#181818;stroke-width:1.0;"/><line style="stroke:#181818;stroke-width:1.0;stroke-dasharray:2.0,2.0;" x1="65.5" x2="391.5" y1="142.1094" y2="142.1094"/><text fill="#000000" font-family="sans-serif" font-size="13" font-weight="bold" lengthAdjust="spacing" textLength="9" x="77.5" y="137.3672">2</text><text fill="#000000" font-family="sans-serif" font-size="13" lengthAdjust="spacing" textLength="290" x="90.5" y="137.3672">asks to select which systemUser to deactivate</text><polygon fill="#181818" points="375.5,167.4199,385.5,171.4199,375.5,175.4199,379.5,171.4199" style="stroke:#181818;stroke-width:1.0;"/><line style="stroke:#181818;stroke-width:1.0;" x1="60.5" x2="381.5" y1="171.4199" y2="171.4199"/><text fill="#000000" font-family="sans-serif" font-size="13" font-weight="bold" lengthAdjust="spacing" textLength="9" x="67.5" y="166.6777">3</text><text fill="#000000" font-family="sans-serif" font-size="13" lengthAdjust="spacing" textLength="121" x="80.5" y="166.6777">selects systemUser</text><polygon fill="#181818" points="590.5,196.7305,600.5,200.7305,590.5,204.7305,594.5,200.7305" style="stroke:#181818;stroke-width:1.0;"/><line style="stroke:#181818;stroke-width:1.0;" x1="397.5" x2="596.5" y1="200.7305" y2="200.7305"/><text fill="#000000" font-family="sans-serif" font-size="13" font-weight="bold" lengthAdjust="spacing" textLength="9" x="404.5" y="195.9883">4</text><text fill="#000000" font-family="sans-serif" font-size="13" lengthAdjust="spacing" textLength="173" x="417.5" y="195.9883">deactivateUser(systemUser)</text><polygon fill="#181818" points="892.5,226.041,902.5,230.041,892.5,234.041,896.5,230.041" style="stroke:#181818;stroke-width:1.0;"/><line style="stroke:#181818;stroke-width:1.0;" x1="612.5" x2="898.5" y1="230.041" y2="230.041"/><text fill="#000000" font-family="sans-serif" font-size="13" font-weight="bold" lengthAdjust="spacing" textLength="9" x="619.5" y="225.2988">5</text><text fill="#000000" font-family="sans-serif" font-size="13" lengthAdjust="spacing" textLength="260" x="632.5" y="225.2988">ensureAuthenticatedUserHasAnyOf(roles)</text><polygon fill="#181818" points="623.5,255.3516,613.5,259.3516,623.5,263.3516,619.5,259.3516" style="stroke:#181818;stroke-width:1.0;"/><line style="stroke:#181818;stroke-width:1.0;stroke-dasharray:2.0,2.0;" x1="617.5" x2="908.5" y1="259.3516" y2="259.3516"/><text fill="#000000" font-family="sans-serif" font-size="13" font-weight="bold" lengthAdjust="spacing" textLength="9" x="629.5" y="254.6094">6</text><text fill="#000000" font-family="sans-serif" font-size="13" lengthAdjust="spacing" textLength="25" x="642.5" y="254.6094">true</text><polygon fill="#181818" points="1072,284.6621,1082,288.6621,1072,292.6621,1076,288.6621" style="stroke:#181818;stroke-width:1.0;"/><line style="stroke:#181818;stroke-width:1.0;" x1="612.5" x2="1078" y1="288.6621" y2="288.6621"/><text fill="#000000" font-family="sans-serif" font-size="13" font-weight="bold" lengthAdjust="spacing" textLength="9" x="619.5" y="283.9199">7</text><text fill="#000000" font-family="sans-serif" font-size="13" lengthAdjust="spacing" textLength="173" x="632.5" y="283.9199">deactivateUser(systemUser)</text><polygon fill="#181818" points="1354,313.9727,1364,317.9727,1354,321.9727,1358,317.9727" style="stroke:#181818;stroke-width:1.0;"/><line style="stroke:#181818;stroke-width:1.0;" x1="1094" x2="1360" y1="317.9727" y2="317.9727"/><text fill="#000000" font-family="sans-serif" font-size="13" font-weight="bold" lengthAdjust="spacing" textLength="9" x="1101" y="313.2305">8</text><text fill="#000000" font-family="sans-serif" font-size="13" lengthAdjust="spacing" textLength="148" x="1114" y="313.2305">deactivate(currentTime)</text><polygon fill="#181818" points="1105,343.2832,1095,347.2832,1105,351.2832,1101,347.2832" style="stroke:#181818;stroke-width:1.0;"/><line style="stroke:#181818;stroke-width:1.0;stroke-dasharray:2.0,2.0;" x1="1099" x2="1370" y1="347.2832" y2="347.2832"/><text fill="#000000" font-family="sans-serif" font-size="13" font-weight="bold" lengthAdjust="spacing" textLength="9" x="1111" y="342.541">9</text><text fill="#000000" font-family="sans-serif" font-size="13" lengthAdjust="spacing" textLength="92" x="1124" y="342.541">return success</text><polygon fill="#181818" points="1232,372.5938,1242,376.5938,1232,380.5938,1236,376.5938" style="stroke:#181818;stroke-width:1.0;"/><line style="stroke:#181818;stroke-width:1.0;" x1="1094" x2="1238" y1="376.5938" y2="376.5938"/><text fill="#000000" font-family="sans-serif" font-size="13" font-weight="bold" lengthAdjust="spacing" textLength="18" x="1101" y="371.8516">10</text><text fill="#000000" font-family="sans-serif" font-size="13" lengthAdjust="spacing" textLength="109" x="1123" y="371.8516">save(systemUser)</text><polygon fill="#181818" points="1105,401.9043,1095,405.9043,1105,409.9043,1101,405.9043" style="stroke:#181818;stroke-width:1.0;"/><line style="stroke:#181818;stroke-width:1.0;stroke-dasharray:2.0,2.0;" x1="1099" x2="1248" y1="405.9043" y2="405.9043"/><text fill="#000000" font-family="sans-serif" font-size="13" font-weight="bold" lengthAdjust="spacing" textLength="18" x="1111" y="401.1621">11</text><text fill="#000000" font-family="sans-serif" font-size="13" lengthAdjust="spacing" textLength="73" x="1133" y="401.1621">systemUser</text><polygon fill="#181818" points="623.5,431.2148,613.5,435.2148,623.5,439.2148,619.5,435.2148" style="stroke:#181818;stroke-width:1.0;"/><line style="stroke:#181818;stroke-width:1.0;stroke-dasharray:2.0,2.0;" x1="617.5" x2="1088" y1="435.2148" y2="435.2148"/><text fill="#000000" font-family="sans-serif" font-size="13" font-weight="bold" lengthAdjust="spacing" textLength="18" x="629.5" y="430.4727">12</text><text fill="#000000" font-family="sans-serif" font-size="13" lengthAdjust="spacing" textLength="73" x="651.5" y="430.4727">systemUser</text><polygon fill="#181818" points="408.5,460.5254,398.5,464.5254,408.5,468.5254,404.5,464.5254" style="stroke:#181818;stroke-width:1.0;"/><line style="stroke:#181818;stroke-width:1.0;stroke-dasharray:2.0,2.0;" x1="402.5" x2="606.5" y1="464.5254" y2="464.5254"/><text fill="#000000" font-family="sans-serif" font-size="13" font-weight="bold" lengthAdjust="spacing" textLength="18" x="414.5" y="459.7832">13</text><text fill="#000000" font-family="sans-serif" font-size="13" lengthAdjust="spacing" textLength="73" x="436.5" y="459.7832">systemUser</text><polygon fill="#181818" points="66.5,489.8359,56.5,493.8359,66.5,497.8359,62.5,493.8359" style="stroke:#181818;stroke-width:1.0;"/><line style="stroke:#181818;stroke-width:1.0;stroke-dasharray:2.0,2.0;" x1="60.5" x2="391.5" y1="493.8359" y2="493.8359"/><text fill="#000000" font-family="sans-serif" font-size="13" font-weight="bold" lengthAdjust="spacing" textLength="18" x="72.5" y="489.0938">14</text><text fill="#000000" font-family="sans-serif" font-size="13" lengthAdjust="spacing" textLength="168" x="94.5" y="489.0938">shows operation's success</text><!--SRC=[hLJ1JiCm3BttAt9ZE_G7fghI10Su82J6FY1aXaQqIMMdcyRNawomj9tRTH8zDR7zdktuMJREcgPw1qoIH2fdKQntbJQQ74f_If9QejDArz8uyG3UHU-bWoq1Rfz4bjK81CP9fwt9ymdlUsiSsh84p39PrwLMNCowSOL5_NsoRG3tMe5deVPlu1nWdwMHdr3v5AvvRuxae0enmULyO31VeRQaVVL7xuddmsoyvA_kOIyJuR_UdKZpYwwknEvy8o9m6ns-it4OsRfSl5BgINgiAo7fYuIpWg04vSIXqAheS0LJJ28oTnBZkMSKrrBI_rIMZqvPjul1ieXyowk44OOZZjQG03UoAm666eHWywCPPXrs8VHHqjeSNpuMFXw8IuI3- -qjfurqiWKE6_xrnbccIcK5TsEZMOpMZzUpvurIwv8jL8Fe7Tzq1SjBeirWlZfwJSThGN0D6a6DKa34zcu8F9fsVvVuoPTxcD6T61BnEojf8dbEKft4ny2Pv2UdQWRDo0kF3nU_AgQ9Rj4ijmQ5PoZiWOIj0KzAkAF9b-Utqb1QlPt_0m00]--></g></svg>