<?xml version="1.0" encoding="us-ascii" standalone="no"?><svg xmlns="http://www.w3.org/2000/svg" xmlns:xlink="http://www.w3.org/1999/xlink" contentStyleType="text/css" height="755px" preserveAspectRatio="none" style="width:607px;height:755px;background:#FFFFFF;" version="1.1" viewBox="0 0 607 755" width="607px" zoomAndPan="magnify"><defs/><g><text fill="#000000" font-family="sans-serif" font-size="14" font-weight="bold" lengthAdjust="spacing" textLength="363" x="123.75" y="28.5352">System Sequence Diagram (SSD) - Alternative One</text><rect fill="#FFFFFF" height="536.5898" style="stroke:#181818;stroke-width:1.0;" width="10" x="83.5" y="128.9766"/><rect fill="#FFFFFF" height="29.3105" style="stroke:#181818;stroke-width:1.0;" width="10" x="551.5" y="174.5977"/><rect fill="#FFFFFF" height="29.3105" style="stroke:#181818;stroke-width:1.0;" width="10" x="551.5" y="233.2188"/><rect fill="#FFFFFF" height="29.3105" style="stroke:#181818;stroke-width:1.0;" width="10" x="551.5" y="323.1504"/><rect fill="#FFFFFF" height="29.3105" style="stroke:#181818;stroke-width:1.0;" width="10" x="551.5" y="381.7715"/><rect fill="#FFFFFF" height="29.3105" style="stroke:#181818;stroke-width:1.0;" width="10" x="551.5" y="471.7031"/><rect fill="#FFFFFF" height="29.3105" style="stroke:#181818;stroke-width:1.0;" width="10" x="551.5" y="530.3242"/><rect fill="#FFFFFF" height="29.3105" style="stroke:#181818;stroke-width:1.0;" width="10" x="551.5" y="620.2559"/><rect fill="none" height="134.5527" style="stroke:#000000;stroke-width:1.5;" width="591.5" x="10" y="135.9766"/><rect fill="none" height="134.5527" style="stroke:#000000;stroke-width:1.5;" width="591.5" x="10" y="284.5293"/><rect fill="none" height="134.5527" style="stroke:#000000;stroke-width:1.5;" width="591.5" x="10" y="433.082"/><rect fill="none" height="75.9316" style="stroke:#000000;stroke-width:1.5;" width="591.5" x="10" y="581.6348"/><line style="stroke:#181818;stroke-width:0.5;stroke-dasharray:5.0,5.0;" x1="88" x2="88" y1="118.9766" y2="674.5664"/><line style="stroke:#181818;stroke-width:0.5;stroke-dasharray:5.0,5.0;" x1="556.5" x2="556.5" y1="118.9766" y2="674.5664"/><text fill="#000000" font-family="sans-serif" font-size="14" lengthAdjust="spacing" textLength="131" x="20" y="116.0234">Customer Manager</text><ellipse cx="88.5" cy="50.9883" fill="#E3E3E3" rx="8" ry="8" style="stroke:#181818;stroke-width:0.5;"/><path d="M88.5,58.9883 L88.5,85.9883 M75.5,66.9883 L101.5,66.9883 M88.5,85.9883 L75.5,100.9883 M88.5,85.9883 L101.5,100.9883 " fill="none" style="stroke:#181818;stroke-width:0.5;"/><text fill="#000000" font-family="sans-serif" font-size="14" lengthAdjust="spacing" textLength="131" x="20" y="687.1016">Customer Manager</text><ellipse cx="88.5" cy="698.5547" fill="#E3E3E3" rx="8" ry="8" style="stroke:#181818;stroke-width:0.5;"/><path d="M88.5,706.5547 L88.5,733.5547 M75.5,714.5547 L101.5,714.5547 M88.5,733.5547 L75.5,748.5547 M88.5,733.5547 L101.5,748.5547 " fill="none" style="stroke:#181818;stroke-width:0.5;"/><rect fill="#E3E3E3" height="30.4883" rx="2.5" ry="2.5" style="stroke:#181818;stroke-width:0.5;" width="70" x="521.5" y="87.4883"/><text fill="#000000" font-family="sans-serif" font-size="14" lengthAdjust="spacing" textLength="56" x="528.5" y="108.0234">: System</text><rect fill="#E3E3E3" height="30.4883" rx="2.5" ry="2.5" style="stroke:#181818;stroke-width:0.5;" width="70" x="521.5" y="673.5664"/><text fill="#000000" font-family="sans-serif" font-size="14" lengthAdjust="spacing" textLength="56" x="528.5" y="694.1016">: System</text><rect fill="#FFFFFF" height="536.5898" style="stroke:#181818;stroke-width:1.0;" width="10" x="83.5" y="128.9766"/><rect fill="#FFFFFF" height="29.3105" style="stroke:#181818;stroke-width:1.0;" width="10" x="551.5" y="174.5977"/><rect fill="#FFFFFF" height="29.3105" style="stroke:#181818;stroke-width:1.0;" width="10" x="551.5" y="233.2188"/><rect fill="#FFFFFF" height="29.3105" style="stroke:#181818;stroke-width:1.0;" width="10" x="551.5" y="323.1504"/><rect fill="#FFFFFF" height="29.3105" style="stroke:#181818;stroke-width:1.0;" width="10" x="551.5" y="381.7715"/><rect fill="#FFFFFF" height="29.3105" style="stroke:#181818;stroke-width:1.0;" width="10" x="551.5" y="471.7031"/><rect fill="#FFFFFF" height="29.3105" style="stroke:#181818;stroke-width:1.0;" width="10" x="551.5" y="530.3242"/><rect fill="#FFFFFF" height="29.3105" style="stroke:#181818;stroke-width:1.0;" width="10" x="551.5" y="620.2559"/><path d="M10,135.9766 L72,135.9766 L72,143.2871 L62,153.2871 L10,153.2871 L10,135.9766 " fill="#EEEEEE" style="stroke:#000000;stroke-width:1.5;"/><rect fill="none" height="134.5527" style="stroke:#000000;stroke-width:1.5;" width="591.5" x="10" y="135.9766"/><text fill="#000000" font-family="sans-serif" font-size="13" font-weight="bold" lengthAdjust="spacing" textLength="17" x="25" y="149.5449">alt</text><text fill="#000000" font-family="sans-serif" font-size="11" font-weight="bold" lengthAdjust="spacing" textLength="96" x="87" y="148.6113">[option add user]</text><polygon fill="#181818" points="539.5,170.5977,549.5,174.5977,539.5,178.5977,543.5,174.5977" style="stroke:#181818;stroke-width:1.0;"/><line style="stroke:#181818;stroke-width:1.0;" x1="93.5" x2="545.5" y1="174.5977" y2="174.5977"/><text fill="#000000" font-family="sans-serif" font-size="13" font-weight="bold" lengthAdjust="spacing" textLength="9" x="100.5" y="169.8555">1</text><text fill="#000000" font-family="sans-serif" font-size="13" lengthAdjust="spacing" textLength="169" x="113.5" y="169.8555">asks to register a new user</text><polygon fill="#181818" points="104.5,199.9082,94.5,203.9082,104.5,207.9082,100.5,203.9082" style="stroke:#181818;stroke-width:1.0;"/><line style="stroke:#181818;stroke-width:1.0;stroke-dasharray:2.0,2.0;" x1="98.5" x2="555.5" y1="203.9082" y2="203.9082"/><text fill="#000000" font-family="sans-serif" font-size="13" font-weight="bold" lengthAdjust="spacing" textLength="9" x="110.5" y="199.166">2</text><text fill="#000000" font-family="sans-serif" font-size="13" lengthAdjust="spacing" textLength="421" x="123.5" y="199.166">requests user's information (Name, TelephoneNumber, Email, Role)</text><polygon fill="#181818" points="539.5,229.2188,549.5,233.2188,539.5,237.2188,543.5,233.2188" style="stroke:#181818;stroke-width:1.0;"/><line style="stroke:#181818;stroke-width:1.0;" x1="93.5" x2="545.5" y1="233.2188" y2="233.2188"/><text fill="#000000" font-family="sans-serif" font-size="13" font-weight="bold" lengthAdjust="spacing" textLength="9" x="100.5" y="228.4766">3</text><text fill="#000000" font-family="sans-serif" font-size="13" lengthAdjust="spacing" textLength="170" x="113.5" y="228.4766">submits user's information</text><polygon fill="#181818" points="104.5,258.5293,94.5,262.5293,104.5,266.5293,100.5,262.5293" style="stroke:#181818;stroke-width:1.0;"/><line style="stroke:#181818;stroke-width:1.0;stroke-dasharray:2.0,2.0;" x1="98.5" x2="555.5" y1="262.5293" y2="262.5293"/><text fill="#000000" font-family="sans-serif" font-size="13" font-weight="bold" lengthAdjust="spacing" textLength="9" x="110.5" y="257.7871">4</text><text fill="#000000" font-family="sans-serif" font-size="13" lengthAdjust="spacing" textLength="170" x="123.5" y="257.7871">displays operation success</text><path d="M10,284.5293 L72,284.5293 L72,291.8398 L62,301.8398 L10,301.8398 L10,284.5293 " fill="#EEEEEE" style="stroke:#000000;stroke-width:1.5;"/><rect fill="none" height="134.5527" style="stroke:#000000;stroke-width:1.5;" width="591.5" x="10" y="284.5293"/><text fill="#000000" font-family="sans-serif" font-size="13" font-weight="bold" lengthAdjust="spacing" textLength="17" x="25" y="298.0977">alt</text><text fill="#000000" font-family="sans-serif" font-size="11" font-weight="bold" lengthAdjust="spacing" textLength="119" x="87" y="297.1641">[option activate user]</text><polygon fill="#181818" points="539.5,319.1504,549.5,323.1504,539.5,327.1504,543.5,323.1504" style="stroke:#181818;stroke-width:1.0;"/><line style="stroke:#181818;stroke-width:1.0;" x1="93.5" x2="545.5" y1="323.1504" y2="323.1504"/><text fill="#000000" font-family="sans-serif" font-size="13" font-weight="bold" lengthAdjust="spacing" textLength="9" x="100.5" y="318.4082">5</text><text fill="#000000" font-family="sans-serif" font-size="13" lengthAdjust="spacing" textLength="141" x="113.5" y="318.4082">asks to activate a user</text><polygon fill="#181818" points="104.5,348.4609,94.5,352.4609,104.5,356.4609,100.5,352.4609" style="stroke:#181818;stroke-width:1.0;"/><line style="stroke:#181818;stroke-width:1.0;stroke-dasharray:2.0,2.0;" x1="98.5" x2="555.5" y1="352.4609" y2="352.4609"/><text fill="#000000" font-family="sans-serif" font-size="13" font-weight="bold" lengthAdjust="spacing" textLength="9" x="110.5" y="347.7188">6</text><text fill="#000000" font-family="sans-serif" font-size="13" lengthAdjust="spacing" textLength="199" x="123.5" y="347.7188">asks to select a user to activate</text><polygon fill="#181818" points="539.5,377.7715,549.5,381.7715,539.5,385.7715,543.5,381.7715" style="stroke:#181818;stroke-width:1.0;"/><line style="stroke:#181818;stroke-width:1.0;" x1="93.5" x2="545.5" y1="381.7715" y2="381.7715"/><text fill="#000000" font-family="sans-serif" font-size="13" font-weight="bold" lengthAdjust="spacing" textLength="9" x="100.5" y="377.0293">7</text><text fill="#000000" font-family="sans-serif" font-size="13" lengthAdjust="spacing" textLength="75" x="113.5" y="377.0293">selects user</text><polygon fill="#181818" points="104.5,407.082,94.5,411.082,104.5,415.082,100.5,411.082" style="stroke:#181818;stroke-width:1.0;"/><line style="stroke:#181818;stroke-width:1.0;stroke-dasharray:2.0,2.0;" x1="98.5" x2="555.5" y1="411.082" y2="411.082"/><text fill="#000000" font-family="sans-serif" font-size="13" font-weight="bold" lengthAdjust="spacing" textLength="9" x="110.5" y="406.3398">8</text><text fill="#000000" font-family="sans-serif" font-size="13" lengthAdjust="spacing" textLength="170" x="123.5" y="406.3398">displays operation success</text><path d="M10,433.082 L72,433.082 L72,440.3926 L62,450.3926 L10,450.3926 L10,433.082 " fill="#EEEEEE" style="stroke:#000000;stroke-width:1.5;"/><rect fill="none" height="134.5527" style="stroke:#000000;stroke-width:1.5;" width="591.5" x="10" y="433.082"/><text fill="#000000" font-family="sans-serif" font-size="13" font-weight="bold" lengthAdjust="spacing" textLength="17" x="25" y="446.6504">alt</text><text fill="#000000" font-family="sans-serif" font-size="11" font-weight="bold" lengthAdjust="spacing" textLength="132" x="87" y="445.7168">[option deactivate user]</text><polygon fill="#181818" points="539.5,467.7031,549.5,471.7031,539.5,475.7031,543.5,471.7031" style="stroke:#181818;stroke-width:1.0;"/><line style="stroke:#181818;stroke-width:1.0;" x1="93.5" x2="545.5" y1="471.7031" y2="471.7031"/><text fill="#000000" font-family="sans-serif" font-size="13" font-weight="bold" lengthAdjust="spacing" textLength="9" x="100.5" y="466.9609">9</text><text fill="#000000" font-family="sans-serif" font-size="13" lengthAdjust="spacing" textLength="156" x="113.5" y="466.9609">asks to deactivate a user</text><polygon fill="#181818" points="104.5,497.0137,94.5,501.0137,104.5,505.0137,100.5,501.0137" style="stroke:#181818;stroke-width:1.0;"/><line style="stroke:#181818;stroke-width:1.0;stroke-dasharray:2.0,2.0;" x1="98.5" x2="555.5" y1="501.0137" y2="501.0137"/><text fill="#000000" font-family="sans-serif" font-size="13" font-weight="bold" lengthAdjust="spacing" textLength="18" x="110.5" y="496.2715">10</text><text fill="#000000" font-family="sans-serif" font-size="13" lengthAdjust="spacing" textLength="214" x="132.5" y="496.2715">asks to select a user to deactivate</text><polygon fill="#181818" points="539.5,526.3242,549.5,530.3242,539.5,534.3242,543.5,530.3242" style="stroke:#181818;stroke-width:1.0;"/><line style="stroke:#181818;stroke-width:1.0;" x1="93.5" x2="545.5" y1="530.3242" y2="530.3242"/><text fill="#000000" font-family="sans-serif" font-size="13" font-weight="bold" lengthAdjust="spacing" textLength="18" x="100.5" y="525.582">11</text><text fill="#000000" font-family="sans-serif" font-size="13" lengthAdjust="spacing" textLength="75" x="122.5" y="525.582">selects user</text><polygon fill="#181818" points="104.5,555.6348,94.5,559.6348,104.5,563.6348,100.5,559.6348" style="stroke:#181818;stroke-width:1.0;"/><line style="stroke:#181818;stroke-width:1.0;stroke-dasharray:2.0,2.0;" x1="98.5" x2="555.5" y1="559.6348" y2="559.6348"/><text fill="#000000" font-family="sans-serif" font-size="13" font-weight="bold" lengthAdjust="spacing" textLength="18" x="110.5" y="554.8926">12</text><text fill="#000000" font-family="sans-serif" font-size="13" lengthAdjust="spacing" textLength="170" x="132.5" y="554.8926">displays operation success</text><path d="M10,581.6348 L72,581.6348 L72,588.9453 L62,598.9453 L10,598.9453 L10,581.6348 " fill="#EEEEEE" style="stroke:#000000;stroke-width:1.5;"/><rect fill="none" height="75.9316" style="stroke:#000000;stroke-width:1.5;" width="591.5" x="10" y="581.6348"/><text fill="#000000" font-family="sans-serif" font-size="13" font-weight="bold" lengthAdjust="spacing" textLength="17" x="25" y="595.2031">alt</text><text fill="#000000" font-family="sans-serif" font-size="11" font-weight="bold" lengthAdjust="spacing" textLength="165" x="87" y="594.2695">[option list backOffice users]</text><polygon fill="#181818" points="539.5,616.2559,549.5,620.2559,539.5,624.2559,543.5,620.2559" style="stroke:#181818;stroke-width:1.0;"/><line style="stroke:#181818;stroke-width:1.0;" x1="93.5" x2="545.5" y1="620.2559" y2="620.2559"/><text fill="#000000" font-family="sans-serif" font-size="13" font-weight="bold" lengthAdjust="spacing" textLength="18" x="100.5" y="615.5137">13</text><text fill="#000000" font-family="sans-serif" font-size="13" lengthAdjust="spacing" textLength="199" x="122.5" y="615.5137">asks to list all backOffice users</text><polygon fill="#181818" points="104.5,645.5664,94.5,649.5664,104.5,653.5664,100.5,649.5664" style="stroke:#181818;stroke-width:1.0;"/><line style="stroke:#181818;stroke-width:1.0;stroke-dasharray:2.0,2.0;" x1="98.5" x2="555.5" y1="649.5664" y2="649.5664"/><text fill="#000000" font-family="sans-serif" font-size="13" font-weight="bold" lengthAdjust="spacing" textLength="18" x="110.5" y="644.8242">14</text><text fill="#000000" font-family="sans-serif" font-size="13" lengthAdjust="spacing" textLength="162" x="132.5" y="644.8242">displays backOffice users</text><!--SRC=[rPHDRi9038NtEON5fY311LXKgg1BG6fw0JCnOSJyf6C7nErh4WYqe2AaTj6iHfddzvu_AU6D3HKczE1ZY6QTeYUGL5F6tKs5PeCbvR9t18cCO2ZTfO3NMCIT3IMiq35bcLXHQRvd8GyvVTGK3C7KOdcGz_DyEe0Hl3YX553ibc0HT0nhYQ7sIqfwDX8Jz2OrYrPACCEW7L8Fa64oopHOhB4L1e7U-1ZLNBR7ni1kKUYWpj09n4fi38150JLh1EWpcS7e-LHqhECR1ecwP6drLGA4GBkplFCyXK3x70r6wgMEOvtNbLcucNnYi64LaySclpz7JqDu9qVLEWQQDmiFuTMZTKDuYuu6ZMz1D-E-LUPwwUtDf1yRNrKkB5SEzwoOABLDkJQ6cBkHwq8K2b2qsLV09z4zofqG7oTyyc35QEJeS6dw2CB6W- -N-4De5x9xs2walmdkRFlFq3dzL66f_wZ5QcLDouz_0jWCe7EtXnxVuARDdGK-0G00]--></g></svg>