<?xml version="1.0" encoding="us-ascii" standalone="no"?><svg xmlns="http://www.w3.org/2000/svg" xmlns:xlink="http://www.w3.org/1999/xlink" contentStyleType="text/css" height="794px" preserveAspectRatio="none" style="width:1381px;height:794px;background:#FFFFFF;" version="1.1" viewBox="0 0 1381 794" width="1381px" zoomAndPan="magnify"><defs/><g><!--class AddUserUI--><g id="elem_AddUserUI"><rect codeLine="4" fill="#F1F1F1" height="80.9766" id="AddUserUI" rx="2.5" ry="2.5" style="stroke:#181818;stroke-width:0.5;" width="209" x="67" y="7"/><ellipse cx="130.75" cy="23" fill="#ADD1B2" rx="11" ry="11" style="stroke:#181818;stroke-width:1.0;"/><path d="M133.7231,28.6431 Q133.1421,28.9419 132.5029,29.0913 Q131.8638,29.2407 131.1582,29.2407 Q128.6514,29.2407 127.3315,27.5889 Q126.0117,25.937 126.0117,22.8159 Q126.0117,19.6865 127.3315,18.0347 Q128.6514,16.3828 131.1582,16.3828 Q131.8638,16.3828 132.5112,16.5322 Q133.1587,16.6816 133.7231,16.9805 L133.7231,19.7031 Q133.0923,19.1221 132.4988,18.8523 Q131.9053,18.5825 131.2744,18.5825 Q129.9297,18.5825 129.2449,19.6492 Q128.5601,20.7158 128.5601,22.8159 Q128.5601,24.9077 129.2449,25.9744 Q129.9297,27.041 131.2744,27.041 Q131.9053,27.041 132.4988,26.7712 Q133.0923,26.5015 133.7231,25.9204 Z " fill="#000000"/><text fill="#000000" font-family="sans-serif" font-size="14" lengthAdjust="spacing" textLength="73" x="151.25" y="28.291">AddUserUI</text><line style="stroke:#181818;stroke-width:0.5;" x1="68" x2="275" y1="39" y2="39"/><line style="stroke:#181818;stroke-width:0.5;" x1="68" x2="275" y1="47" y2="47"/><ellipse cx="78" cy="60.7441" fill="#84BE84" rx="3" ry="3" style="stroke:#038048;stroke-width:1.0;"/><text fill="#000000" font-family="sans-serif" font-size="14" lengthAdjust="spacing" textLength="183" x="87" y="64.5352">passwordGenerator(name)</text><ellipse cx="78" cy="77.2324" fill="#84BE84" rx="3" ry="3" style="stroke:#038048;stroke-width:1.0;"/><text fill="#000000" font-family="sans-serif" font-size="14" lengthAdjust="spacing" textLength="67" x="87" y="81.0234">addUser()</text></g><!--class ActivateUserUI--><g id="elem_ActivateUserUI"><rect codeLine="9" fill="#F1F1F1" height="64.4883" id="ActivateUserUI" rx="2.5" ry="2.5" style="stroke:#181818;stroke-width:0.5;" width="197" x="774" y="15.5"/><ellipse cx="818.75" cy="31.5" fill="#ADD1B2" rx="11" ry="11" style="stroke:#181818;stroke-width:1.0;"/><path d="M821.7231,37.1431 Q821.1421,37.4419 820.5029,37.5913 Q819.8638,37.7407 819.1582,37.7407 Q816.6514,37.7407 815.3315,36.0889 Q814.0117,34.437 814.0117,31.3159 Q814.0117,28.1865 815.3315,26.5347 Q816.6514,24.8828 819.1582,24.8828 Q819.8638,24.8828 820.5112,25.0322 Q821.1587,25.1816 821.7231,25.4805 L821.7231,28.2031 Q821.0923,27.6221 820.4988,27.3523 Q819.9053,27.0825 819.2744,27.0825 Q817.9297,27.0825 817.2449,28.1492 Q816.5601,29.2158 816.5601,31.3159 Q816.5601,33.4077 817.2449,34.4744 Q817.9297,35.541 819.2744,35.541 Q819.9053,35.541 820.4988,35.2712 Q821.0923,35.0015 821.7231,34.4204 Z " fill="#000000"/><text fill="#000000" font-family="sans-serif" font-size="14" lengthAdjust="spacing" textLength="99" x="839.25" y="36.791">ActivateUserUI</text><line style="stroke:#181818;stroke-width:0.5;" x1="775" x2="970" y1="47.5" y2="47.5"/><line style="stroke:#181818;stroke-width:0.5;" x1="775" x2="970" y1="55.5" y2="55.5"/><ellipse cx="785" cy="69.2441" fill="#84BE84" rx="3" ry="3" style="stroke:#038048;stroke-width:1.0;"/><text fill="#000000" font-family="sans-serif" font-size="14" lengthAdjust="spacing" textLength="171" x="794" y="73.0352">activateUser(systemUser)</text></g><!--class DeactivateUserUI--><g id="elem_DeactivateUserUI"><rect codeLine="13" fill="#F1F1F1" height="64.4883" id="DeactivateUserUI" rx="2.5" ry="2.5" style="stroke:#181818;stroke-width:0.5;" width="214" x="419.5" y="15.5"/><ellipse cx="464.75" cy="31.5" fill="#ADD1B2" rx="11" ry="11" style="stroke:#181818;stroke-width:1.0;"/><path d="M467.7231,37.1431 Q467.1421,37.4419 466.5029,37.5913 Q465.8638,37.7407 465.1582,37.7407 Q462.6514,37.7407 461.3315,36.0889 Q460.0117,34.437 460.0117,31.3159 Q460.0117,28.1865 461.3315,26.5347 Q462.6514,24.8828 465.1582,24.8828 Q465.8638,24.8828 466.5112,25.0322 Q467.1587,25.1816 467.7231,25.4805 L467.7231,28.2031 Q467.0923,27.6221 466.4988,27.3523 Q465.9053,27.0825 465.2744,27.0825 Q463.9297,27.0825 463.2449,28.1492 Q462.5601,29.2158 462.5601,31.3159 Q462.5601,33.4077 463.2449,34.4744 Q463.9297,35.541 465.2744,35.541 Q465.9053,35.541 466.4988,35.2712 Q467.0923,35.0015 467.7231,34.4204 Z " fill="#000000"/><text fill="#000000" font-family="sans-serif" font-size="14" lengthAdjust="spacing" textLength="115" x="485.25" y="36.791">DeactivateUserUI</text><line style="stroke:#181818;stroke-width:0.5;" x1="420.5" x2="632.5" y1="47.5" y2="47.5"/><line style="stroke:#181818;stroke-width:0.5;" x1="420.5" x2="632.5" y1="55.5" y2="55.5"/><ellipse cx="430.5" cy="69.2441" fill="#84BE84" rx="3" ry="3" style="stroke:#038048;stroke-width:1.0;"/><text fill="#000000" font-family="sans-serif" font-size="14" lengthAdjust="spacing" textLength="188" x="439.5" y="73.0352">deactivateUser(systemUser)</text></g><!--class ListBackofficeUsersUI--><g id="elem_ListBackofficeUsersUI"><rect codeLine="17" fill="#F1F1F1" height="64.4883" id="ListBackofficeUsersUI" rx="2.5" ry="2.5" style="stroke:#181818;stroke-width:0.5;" width="176" x="1130.5" y="15.5"/><ellipse cx="1145.5" cy="31.5" fill="#ADD1B2" rx="11" ry="11" style="stroke:#181818;stroke-width:1.0;"/><path d="M1148.4731,37.1431 Q1147.8921,37.4419 1147.2529,37.5913 Q1146.6138,37.7407 1145.9082,37.7407 Q1143.4014,37.7407 1142.0815,36.0889 Q1140.7617,34.437 1140.7617,31.3159 Q1140.7617,28.1865 1142.0815,26.5347 Q1143.4014,24.8828 1145.9082,24.8828 Q1146.6138,24.8828 1147.2612,25.0322 Q1147.9087,25.1816 1148.4731,25.4805 L1148.4731,28.2031 Q1147.8423,27.6221 1147.2488,27.3523 Q1146.6553,27.0825 1146.0244,27.0825 Q1144.6797,27.0825 1143.9949,28.1492 Q1143.3101,29.2158 1143.3101,31.3159 Q1143.3101,33.4077 1143.9949,34.4744 Q1144.6797,35.541 1146.0244,35.541 Q1146.6553,35.541 1147.2488,35.2712 Q1147.8423,35.0015 1148.4731,34.4204 Z " fill="#000000"/><text fill="#000000" font-family="sans-serif" font-size="14" lengthAdjust="spacing" textLength="144" x="1159.5" y="36.791">ListBackofficeUsersUI</text><line style="stroke:#181818;stroke-width:0.5;" x1="1131.5" x2="1305.5" y1="47.5" y2="47.5"/><line style="stroke:#181818;stroke-width:0.5;" x1="1131.5" x2="1305.5" y1="55.5" y2="55.5"/><ellipse cx="1141.5" cy="69.2441" fill="#84BE84" rx="3" ry="3" style="stroke:#038048;stroke-width:1.0;"/><text fill="#000000" font-family="sans-serif" font-size="14" lengthAdjust="spacing" textLength="72" x="1150.5" y="73.0352">elements()</text></g><!--class AddUserController--><g id="elem_AddUserController"><rect codeLine="21" fill="#F1F1F1" height="97.4648" id="AddUserController" rx="2.5" ry="2.5" style="stroke:#181818;stroke-width:0.5;" width="329" x="7" y="209"/><ellipse cx="102.75" cy="225" fill="#ADD1B2" rx="11" ry="11" style="stroke:#181818;stroke-width:1.0;"/><path d="M105.7231,230.6431 Q105.1421,230.9419 104.5029,231.0913 Q103.8638,231.2407 103.1582,231.2407 Q100.6514,231.2407 99.3315,229.5889 Q98.0117,227.937 98.0117,224.8159 Q98.0117,221.6865 99.3315,220.0347 Q100.6514,218.3828 103.1582,218.3828 Q103.8638,218.3828 104.5112,218.5322 Q105.1587,218.6816 105.7231,218.9805 L105.7231,221.7031 Q105.0923,221.1221 104.4988,220.8523 Q103.9053,220.5825 103.2744,220.5825 Q101.9297,220.5825 101.2449,221.6492 Q100.5601,222.7158 100.5601,224.8159 Q100.5601,226.9077 101.2449,227.9744 Q101.9297,229.041 103.2744,229.041 Q103.9053,229.041 104.4988,228.7712 Q105.0923,228.5015 105.7231,227.9204 Z " fill="#000000"/><text fill="#000000" font-family="sans-serif" font-size="14" lengthAdjust="spacing" textLength="129" x="123.25" y="230.291">AddUserController</text><line style="stroke:#181818;stroke-width:0.5;" x1="8" x2="335" y1="241" y2="241"/><line style="stroke:#181818;stroke-width:0.5;" x1="8" x2="335" y1="249" y2="249"/><ellipse cx="18" cy="262.7441" fill="#84BE84" rx="3" ry="3" style="stroke:#038048;stroke-width:1.0;"/><text fill="#000000" font-family="sans-serif" font-size="14" lengthAdjust="spacing" textLength="183" x="27" y="266.5352">passwordGenerator(name)</text><ellipse cx="18" cy="279.2324" fill="#84BE84" rx="3" ry="3" style="stroke:#038048;stroke-width:1.0;"/><text fill="#000000" font-family="sans-serif" font-size="14" lengthAdjust="spacing" textLength="285" x="27" y="283.0234">ensureAuthenticatedUserHasAnyOf(roles)</text><ellipse cx="18" cy="295.7207" fill="#84BE84" rx="3" ry="3" style="stroke:#038048;stroke-width:1.0;"/><text fill="#000000" font-family="sans-serif" font-size="14" lengthAdjust="spacing" textLength="303" x="27" y="299.5117">registerNewUser(name,password,email,role)</text></g><!--class ActivateUserController--><g id="elem_ActivateUserController"><rect codeLine="27" fill="#F1F1F1" height="80.9766" id="ActivateUserController" rx="2.5" ry="2.5" style="stroke:#181818;stroke-width:0.5;" width="311" x="717" y="217"/><ellipse cx="790.75" cy="233" fill="#ADD1B2" rx="11" ry="11" style="stroke:#181818;stroke-width:1.0;"/><path d="M793.7231,238.6431 Q793.1421,238.9419 792.5029,239.0913 Q791.8638,239.2407 791.1582,239.2407 Q788.6514,239.2407 787.3315,237.5889 Q786.0117,235.937 786.0117,232.8159 Q786.0117,229.6865 787.3315,228.0347 Q788.6514,226.3828 791.1582,226.3828 Q791.8638,226.3828 792.5112,226.5322 Q793.1587,226.6816 793.7231,226.9805 L793.7231,229.7031 Q793.0923,229.1221 792.4988,228.8523 Q791.9053,228.5825 791.2744,228.5825 Q789.9297,228.5825 789.2449,229.6492 Q788.5601,230.7158 788.5601,232.8159 Q788.5601,234.9077 789.2449,235.9744 Q789.9297,237.041 791.2744,237.041 Q791.9053,237.041 792.4988,236.7712 Q793.0923,236.5015 793.7231,235.9204 Z " fill="#000000"/><text fill="#000000" font-family="sans-serif" font-size="14" lengthAdjust="spacing" textLength="155" x="811.25" y="238.291">ActivateUserController</text><line style="stroke:#181818;stroke-width:0.5;" x1="718" x2="1027" y1="249" y2="249"/><line style="stroke:#181818;stroke-width:0.5;" x1="718" x2="1027" y1="257" y2="257"/><ellipse cx="728" cy="270.7441" fill="#84BE84" rx="3" ry="3" style="stroke:#038048;stroke-width:1.0;"/><text fill="#000000" font-family="sans-serif" font-size="14" lengthAdjust="spacing" textLength="285" x="737" y="274.5352">ensureAuthenticatedUserHasAnyOf(roles)</text><ellipse cx="728" cy="287.2324" fill="#84BE84" rx="3" ry="3" style="stroke:#038048;stroke-width:1.0;"/><text fill="#000000" font-family="sans-serif" font-size="14" lengthAdjust="spacing" textLength="171" x="737" y="291.0234">activateUser(systemUser)</text></g><!--class DeactivateController--><g id="elem_DeactivateController"><rect codeLine="32" fill="#F1F1F1" height="80.9766" id="DeactivateController" rx="2.5" ry="2.5" style="stroke:#181818;stroke-width:0.5;" width="311" x="371" y="217"/><ellipse cx="452.25" cy="233" fill="#ADD1B2" rx="11" ry="11" style="stroke:#181818;stroke-width:1.0;"/><path d="M455.2231,238.6431 Q454.6421,238.9419 454.0029,239.0913 Q453.3638,239.2407 452.6582,239.2407 Q450.1514,239.2407 448.8315,237.5889 Q447.5117,235.937 447.5117,232.8159 Q447.5117,229.6865 448.8315,228.0347 Q450.1514,226.3828 452.6582,226.3828 Q453.3638,226.3828 454.0112,226.5322 Q454.6587,226.6816 455.2231,226.9805 L455.2231,229.7031 Q454.5923,229.1221 453.9988,228.8523 Q453.4053,228.5825 452.7744,228.5825 Q451.4297,228.5825 450.7449,229.6492 Q450.0601,230.7158 450.0601,232.8159 Q450.0601,234.9077 450.7449,235.9744 Q451.4297,237.041 452.7744,237.041 Q453.4053,237.041 453.9988,236.7712 Q454.5923,236.5015 455.2231,235.9204 Z " fill="#000000"/><text fill="#000000" font-family="sans-serif" font-size="14" lengthAdjust="spacing" textLength="140" x="472.75" y="238.291">DeactivateController</text><line style="stroke:#181818;stroke-width:0.5;" x1="372" x2="681" y1="249" y2="249"/><line style="stroke:#181818;stroke-width:0.5;" x1="372" x2="681" y1="257" y2="257"/><ellipse cx="382" cy="270.7441" fill="#84BE84" rx="3" ry="3" style="stroke:#038048;stroke-width:1.0;"/><text fill="#000000" font-family="sans-serif" font-size="14" lengthAdjust="spacing" textLength="285" x="391" y="274.5352">ensureAuthenticatedUserHasAnyOf(roles)</text><ellipse cx="382" cy="287.2324" fill="#84BE84" rx="3" ry="3" style="stroke:#038048;stroke-width:1.0;"/><text fill="#000000" font-family="sans-serif" font-size="14" lengthAdjust="spacing" textLength="188" x="391" y="291.0234">deactivateUser(systemUser)</text></g><!--class ListUsersController--><g id="elem_ListUsersController"><rect codeLine="37" fill="#F1F1F1" height="80.9766" id="ListUsersController" rx="2.5" ry="2.5" style="stroke:#181818;stroke-width:0.5;" width="311" x="1063" y="217"/><ellipse cx="1148.75" cy="233" fill="#ADD1B2" rx="11" ry="11" style="stroke:#181818;stroke-width:1.0;"/><path d="M1151.7231,238.6431 Q1151.1421,238.9419 1150.5029,239.0913 Q1149.8638,239.2407 1149.1582,239.2407 Q1146.6514,239.2407 1145.3315,237.5889 Q1144.0117,235.937 1144.0117,232.8159 Q1144.0117,229.6865 1145.3315,228.0347 Q1146.6514,226.3828 1149.1582,226.3828 Q1149.8638,226.3828 1150.5112,226.5322 Q1151.1587,226.6816 1151.7231,226.9805 L1151.7231,229.7031 Q1151.0923,229.1221 1150.4988,228.8523 Q1149.9053,228.5825 1149.2744,228.5825 Q1147.9297,228.5825 1147.2449,229.6492 Q1146.5601,230.7158 1146.5601,232.8159 Q1146.5601,234.9077 1147.2449,235.9744 Q1147.9297,237.041 1149.2744,237.041 Q1149.9053,237.041 1150.4988,236.7712 Q1151.0923,236.5015 1151.7231,235.9204 Z " fill="#000000"/><text fill="#000000" font-family="sans-serif" font-size="14" lengthAdjust="spacing" textLength="131" x="1169.25" y="238.291">ListUsersController</text><line style="stroke:#181818;stroke-width:0.5;" x1="1064" x2="1373" y1="249" y2="249"/><line style="stroke:#181818;stroke-width:0.5;" x1="1064" x2="1373" y1="257" y2="257"/><ellipse cx="1074" cy="270.7441" fill="#84BE84" rx="3" ry="3" style="stroke:#038048;stroke-width:1.0;"/><text fill="#000000" font-family="sans-serif" font-size="14" lengthAdjust="spacing" textLength="285" x="1083" y="274.5352">ensureAuthenticatedUserHasAnyOf(roles)</text><ellipse cx="1074" cy="287.2324" fill="#84BE84" rx="3" ry="3" style="stroke:#038048;stroke-width:1.0;"/><text fill="#000000" font-family="sans-serif" font-size="14" lengthAdjust="spacing" textLength="64" x="1083" y="291.0234">allUsers()</text></g><!--class Jobs4UPasswordPolicy--><g id="elem_Jobs4UPasswordPolicy"><rect codeLine="42" fill="#F1F1F1" height="48" id="Jobs4UPasswordPolicy" rx="2.5" ry="2.5" style="stroke:#181818;stroke-width:0.5;" width="184" x="79.5" y="529"/><ellipse cx="94.5" cy="545" fill="#ADD1B2" rx="11" ry="11" style="stroke:#181818;stroke-width:1.0;"/><path d="M97.4731,550.6431 Q96.8921,550.9419 96.2529,551.0913 Q95.6138,551.2407 94.9082,551.2407 Q92.4014,551.2407 91.0815,549.5889 Q89.7617,547.937 89.7617,544.8159 Q89.7617,541.6865 91.0815,540.0347 Q92.4014,538.3828 94.9082,538.3828 Q95.6138,538.3828 96.2612,538.5322 Q96.9087,538.6816 97.4731,538.9805 L97.4731,541.7031 Q96.8423,541.1221 96.2488,540.8523 Q95.6553,540.5825 95.0244,540.5825 Q93.6797,540.5825 92.9949,541.6492 Q92.3101,542.7158 92.3101,544.8159 Q92.3101,546.9077 92.9949,547.9744 Q93.6797,549.041 95.0244,549.041 Q95.6553,549.041 96.2488,548.7712 Q96.8423,548.5015 97.4731,547.9204 Z " fill="#000000"/><text fill="#000000" font-family="sans-serif" font-size="14" lengthAdjust="spacing" textLength="152" x="108.5" y="550.291">Jobs4UPasswordPolicy</text><line style="stroke:#181818;stroke-width:0.5;" x1="80.5" x2="262.5" y1="561" y2="561"/><line style="stroke:#181818;stroke-width:0.5;" x1="80.5" x2="262.5" y1="569" y2="569"/></g><!--class AuthorizationService--><g id="elem_AuthorizationService"><rect codeLine="44" fill="#F1F1F1" height="48" id="AuthorizationService" rx="2.5" ry="2.5" style="stroke:#181818;stroke-width:0.5;" width="175" x="747" y="529"/><ellipse cx="762" cy="545" fill="#ADD1B2" rx="11" ry="11" style="stroke:#181818;stroke-width:1.0;"/><path d="M764.9731,550.6431 Q764.3921,550.9419 763.7529,551.0913 Q763.1138,551.2407 762.4082,551.2407 Q759.9014,551.2407 758.5815,549.5889 Q757.2617,547.937 757.2617,544.8159 Q757.2617,541.6865 758.5815,540.0347 Q759.9014,538.3828 762.4082,538.3828 Q763.1138,538.3828 763.7612,538.5322 Q764.4087,538.6816 764.9731,538.9805 L764.9731,541.7031 Q764.3423,541.1221 763.7488,540.8523 Q763.1553,540.5825 762.5244,540.5825 Q761.1797,540.5825 760.4949,541.6492 Q759.8101,542.7158 759.8101,544.8159 Q759.8101,546.9077 760.4949,547.9744 Q761.1797,549.041 762.5244,549.041 Q763.1553,549.041 763.7488,548.7712 Q764.3423,548.5015 764.9731,547.9204 Z " fill="#000000"/><text fill="#000000" font-family="sans-serif" font-size="14" lengthAdjust="spacing" textLength="143" x="776" y="550.291">AuthorizationService</text><line style="stroke:#181818;stroke-width:0.5;" x1="748" x2="921" y1="561" y2="561"/><line style="stroke:#181818;stroke-width:0.5;" x1="748" x2="921" y1="569" y2="569"/></g><!--class UserManagementService--><g id="elem_UserManagementService"><rect codeLine="46" fill="#F1F1F1" height="130.4414" id="UserManagementService" rx="2.5" ry="2.5" style="stroke:#181818;stroke-width:0.5;" width="200" x="463.5" y="488"/><ellipse cx="478.5" cy="504" fill="#ADD1B2" rx="11" ry="11" style="stroke:#181818;stroke-width:1.0;"/><path d="M481.4731,509.6431 Q480.8921,509.9419 480.2529,510.0913 Q479.6138,510.2407 478.9082,510.2407 Q476.4014,510.2407 475.0815,508.5889 Q473.7617,506.937 473.7617,503.8159 Q473.7617,500.6865 475.0815,499.0347 Q476.4014,497.3828 478.9082,497.3828 Q479.6138,497.3828 480.2612,497.5322 Q480.9087,497.6816 481.4731,497.9805 L481.4731,500.7031 Q480.8423,500.1221 480.2488,499.8523 Q479.6553,499.5825 479.0244,499.5825 Q477.6797,499.5825 476.9949,500.6492 Q476.3101,501.7158 476.3101,503.8159 Q476.3101,505.9077 476.9949,506.9744 Q477.6797,508.041 479.0244,508.041 Q479.6553,508.041 480.2488,507.7712 Q480.8423,507.5015 481.4731,506.9204 Z " fill="#000000"/><text fill="#000000" font-family="sans-serif" font-size="14" lengthAdjust="spacing" textLength="168" x="492.5" y="509.291">UserManagementService</text><line style="stroke:#181818;stroke-width:0.5;" x1="464.5" x2="662.5" y1="520" y2="520"/><line style="stroke:#181818;stroke-width:0.5;" x1="464.5" x2="662.5" y1="528" y2="528"/><ellipse cx="474.5" cy="541.7441" fill="#84BE84" rx="3" ry="3" style="stroke:#038048;stroke-width:1.0;"/><text fill="#000000" font-family="sans-serif" font-size="14" lengthAdjust="spacing" textLength="45" x="483.5" y="545.5352">build()</text><ellipse cx="474.5" cy="558.2324" fill="#84BE84" rx="3" ry="3" style="stroke:#038048;stroke-width:1.0;"/><text fill="#000000" font-family="sans-serif" font-size="14" lengthAdjust="spacing" textLength="118" x="483.5" y="562.0234">save(systemUser)</text><ellipse cx="474.5" cy="574.7207" fill="#84BE84" rx="3" ry="3" style="stroke:#038048;stroke-width:1.0;"/><text fill="#000000" font-family="sans-serif" font-size="14" lengthAdjust="spacing" textLength="146" x="483.5" y="578.5117">activate(currentTime)</text><ellipse cx="474.5" cy="591.209" fill="#84BE84" rx="3" ry="3" style="stroke:#038048;stroke-width:1.0;"/><text fill="#000000" font-family="sans-serif" font-size="14" lengthAdjust="spacing" textLength="163" x="483.5" y="595">deactivate(currentTime)</text><ellipse cx="474.5" cy="607.6973" fill="#84BE84" rx="3" ry="3" style="stroke:#038048;stroke-width:1.0;"/><text fill="#000000" font-family="sans-serif" font-size="14" lengthAdjust="spacing" textLength="55" x="483.5" y="611.4883">findAll()</text></g><!--class SystemUserBuilder--><g id="elem_SystemUserBuilder"><rect codeLine="54" fill="#F1F1F1" height="48" id="SystemUserBuilder" rx="2.5" ry="2.5" style="stroke:#181818;stroke-width:0.5;" width="159" x="301" y="739"/><ellipse cx="316" cy="755" fill="#ADD1B2" rx="11" ry="11" style="stroke:#181818;stroke-width:1.0;"/><path d="M318.9731,760.6431 Q318.3921,760.9419 317.7529,761.0913 Q317.1138,761.2407 316.4082,761.2407 Q313.9014,761.2407 312.5815,759.5889 Q311.2617,757.937 311.2617,754.8159 Q311.2617,751.6865 312.5815,750.0347 Q313.9014,748.3828 316.4082,748.3828 Q317.1138,748.3828 317.7612,748.5322 Q318.4087,748.6816 318.9731,748.9805 L318.9731,751.7031 Q318.3423,751.1221 317.7488,750.8523 Q317.1553,750.5825 316.5244,750.5825 Q315.1797,750.5825 314.4949,751.6492 Q313.8101,752.7158 313.8101,754.8159 Q313.8101,756.9077 314.4949,757.9744 Q315.1797,759.041 316.5244,759.041 Q317.1553,759.041 317.7488,758.7712 Q318.3423,758.5015 318.9731,757.9204 Z " fill="#000000"/><text fill="#000000" font-family="sans-serif" font-size="14" lengthAdjust="spacing" textLength="127" x="330" y="760.291">SystemUserBuilder</text><line style="stroke:#181818;stroke-width:0.5;" x1="302" x2="459" y1="771" y2="771"/><line style="stroke:#181818;stroke-width:0.5;" x1="302" x2="459" y1="779" y2="779"/></g><!--class UserRepository--><g id="elem_UserRepository"><rect codeLine="56" fill="#F1F1F1" height="48" id="UserRepository" rx="2.5" ry="2.5" style="stroke:#181818;stroke-width:0.5;" width="136" x="495.5" y="739"/><ellipse cx="510.5" cy="755" fill="#ADD1B2" rx="11" ry="11" style="stroke:#181818;stroke-width:1.0;"/><path d="M513.4731,760.6431 Q512.8921,760.9419 512.2529,761.0913 Q511.6138,761.2407 510.9082,761.2407 Q508.4014,761.2407 507.0815,759.5889 Q505.7617,757.937 505.7617,754.8159 Q505.7617,751.6865 507.0815,750.0347 Q508.4014,748.3828 510.9082,748.3828 Q511.6138,748.3828 512.2612,748.5322 Q512.9087,748.6816 513.4731,748.9805 L513.4731,751.7031 Q512.8423,751.1221 512.2488,750.8523 Q511.6553,750.5825 511.0244,750.5825 Q509.6797,750.5825 508.9949,751.6492 Q508.3101,752.7158 508.3101,754.8159 Q508.3101,756.9077 508.9949,757.9744 Q509.6797,759.041 511.0244,759.041 Q511.6553,759.041 512.2488,758.7712 Q512.8423,758.5015 513.4731,757.9204 Z " fill="#000000"/><text fill="#000000" font-family="sans-serif" font-size="14" lengthAdjust="spacing" textLength="104" x="524.5" y="760.291">UserRepository</text><line style="stroke:#181818;stroke-width:0.5;" x1="496.5" x2="630.5" y1="771" y2="771"/><line style="stroke:#181818;stroke-width:0.5;" x1="496.5" x2="630.5" y1="779" y2="779"/></g><!--class SystemUser--><g id="elem_SystemUser"><rect codeLine="58" fill="#F1F1F1" height="48" id="SystemUser" rx="2.5" ry="2.5" style="stroke:#181818;stroke-width:0.5;" width="111" x="667" y="739"/><ellipse cx="682" cy="755" fill="#ADD1B2" rx="11" ry="11" style="stroke:#181818;stroke-width:1.0;"/><path d="M684.9731,760.6431 Q684.3921,760.9419 683.7529,761.0913 Q683.1138,761.2407 682.4082,761.2407 Q679.9014,761.2407 678.5815,759.5889 Q677.2617,757.937 677.2617,754.8159 Q677.2617,751.6865 678.5815,750.0347 Q679.9014,748.3828 682.4082,748.3828 Q683.1138,748.3828 683.7612,748.5322 Q684.4087,748.6816 684.9731,748.9805 L684.9731,751.7031 Q684.3423,751.1221 683.7488,750.8523 Q683.1553,750.5825 682.5244,750.5825 Q681.1797,750.5825 680.4949,751.6492 Q679.8101,752.7158 679.8101,754.8159 Q679.8101,756.9077 680.4949,757.9744 Q681.1797,759.041 682.5244,759.041 Q683.1553,759.041 683.7488,758.7712 Q684.3423,758.5015 684.9731,757.9204 Z " fill="#000000"/><text fill="#000000" font-family="sans-serif" font-size="14" lengthAdjust="spacing" textLength="79" x="696" y="760.291">SystemUser</text><line style="stroke:#181818;stroke-width:0.5;" x1="668" x2="777" y1="771" y2="771"/><line style="stroke:#181818;stroke-width:0.5;" x1="668" x2="777" y1="779" y2="779"/></g><!--link AddUserUI to AddUserController--><g id="link_AddUserUI_AddUserController"><path codeLine="60" d="M171.5,88.49 C171.5,122.98 171.5,166.39 171.5,202.88 " fill="none" id="AddUserUI-to-AddUserController" style="stroke:#181818;stroke-width:1.0;"/><polygon fill="#181818" points="171.5,208.88,175.5,199.88,171.5,203.88,167.5,199.88,171.5,208.88" style="stroke:#181818;stroke-width:1.0;"/></g><!--link AddUserController to Jobs4UPasswordPolicy--><g id="link_AddUserController_Jobs4UPasswordPolicy"><path codeLine="62" d="M171.5,306.3 C171.5,370.23 171.5,473.9 171.5,522.54 " fill="none" id="AddUserController-to-Jobs4UPasswordPolicy" style="stroke:#181818;stroke-width:1.0;"/><polygon fill="#181818" points="171.5,528.54,175.5,519.54,171.5,523.54,167.5,519.54,171.5,528.54" style="stroke:#181818;stroke-width:1.0;"/></g><!--link AddUserController to AuthorizationService--><g id="link_AddUserController_AuthorizationService"><path codeLine="64" d="M336.38,302 C524.18,302 805.33,302 805.33,302 C805.33,302 805.33,460.11 805.33,522.93 " fill="none" id="AddUserController-to-AuthorizationService" style="stroke:#181818;stroke-width:1.0;"/><polygon fill="#181818" points="805.33,528.93,809.33,519.93,805.33,523.93,801.33,519.93,805.33,528.93" style="stroke:#181818;stroke-width:1.0;"/></g><!--link AddUserController to UserManagementService--><g id="link_AddUserController_UserManagementService"><path codeLine="66" d="M318.5,306.29 C318.5,379.43 318.5,509 318.5,509 C318.5,509 389.48,509 457.14,509 " fill="none" id="AddUserController-to-UserManagementService" style="stroke:#181818;stroke-width:1.0;"/><polygon fill="#181818" points="463.14,509,454.14,505,458.14,509,454.14,513,463.14,509" style="stroke:#181818;stroke-width:1.0;"/></g><!--link ActivateUserUI to ActivateUserController--><g id="link_ActivateUserUI_ActivateUserController"><path codeLine="70" d="M872.5,79.85 C872.5,116.67 872.5,170.86 872.5,210.82 " fill="none" id="ActivateUserUI-to-ActivateUserController" style="stroke:#181818;stroke-width:1.0;"/><polygon fill="#181818" points="872.5,216.82,876.5,207.82,872.5,211.82,868.5,207.82,872.5,216.82" style="stroke:#181818;stroke-width:1.0;"/></g><!--link ActivateUserController to AuthorizationService--><g id="link_ActivateUserController_AuthorizationService"><path codeLine="72" d="M863.67,298.28 C863.67,360.66 863.67,471.87 863.67,522.59 " fill="none" id="ActivateUserController-to-AuthorizationService" style="stroke:#181818;stroke-width:1.0;"/><polygon fill="#181818" points="863.67,528.59,867.67,519.59,863.67,523.59,859.67,519.59,863.67,528.59" style="stroke:#181818;stroke-width:1.0;"/></g><!--link ActivateUserController to UserManagementService--><g id="link_ActivateUserController_UserManagementService"><path codeLine="74" d="M732,298.42 C732,368.03 732,502 732,502 C732,502 706.04,502 669.95,502 " fill="none" id="ActivateUserController-to-UserManagementService" style="stroke:#181818;stroke-width:1.0;"/><polygon fill="#181818" points="663.95,502,672.95,506,668.95,502,672.95,498,663.95,502" style="stroke:#181818;stroke-width:1.0;"/></g><!--link DeactivateUserUI to DeactivateController--><g id="link_DeactivateUserUI_DeactivateController"><path codeLine="78" d="M526.5,79.85 C526.5,116.67 526.5,170.86 526.5,210.82 " fill="none" id="DeactivateUserUI-to-DeactivateController" style="stroke:#181818;stroke-width:1.0;"/><polygon fill="#181818" points="526.5,216.82,530.5,207.82,526.5,211.82,522.5,207.82,526.5,216.82" style="stroke:#181818;stroke-width:1.0;"/></g><!--link DeactivateController to AuthorizationService--><g id="link_DeactivateController_AuthorizationService"><path codeLine="80" d="M672,298.28 C672,379.34 672,553 672,553 C672,553 702.3,553 740.59,553 " fill="none" id="DeactivateController-to-AuthorizationService" style="stroke:#181818;stroke-width:1.0;"/><polygon fill="#181818" points="746.59,553,737.59,549,741.59,553,737.59,557,746.59,553" style="stroke:#181818;stroke-width:1.0;"/></g><!--link DeactivateController to UserManagementService--><g id="link_DeactivateController_UserManagementService"><path codeLine="82" d="M563.5,298.28 C563.5,347.2 563.5,423.85 563.5,481.7 " fill="none" id="DeactivateController-to-UserManagementService" style="stroke:#181818;stroke-width:1.0;"/><polygon fill="#181818" points="563.5,487.7,567.5,478.7,563.5,482.7,559.5,478.7,563.5,487.7" style="stroke:#181818;stroke-width:1.0;"/></g><!--link ListBackofficeUsersUI to ListUsersController--><g id="link_ListBackofficeUsersUI_ListUsersController"><path codeLine="86" d="M1218.5,79.85 C1218.5,116.67 1218.5,170.86 1218.5,210.82 " fill="none" id="ListBackofficeUsersUI-to-ListUsersController" style="stroke:#181818;stroke-width:1.0;"/><polygon fill="#181818" points="1218.5,216.82,1222.5,207.82,1218.5,211.82,1214.5,207.82,1218.5,216.82" style="stroke:#181818;stroke-width:1.0;"/></g><!--link ListUsersController to AuthorizationService--><g id="link_ListUsersController_AuthorizationService"><path codeLine="88" d="M1270.33,298.28 C1270.33,379.34 1270.33,553 1270.33,553 C1270.33,553 1055.75,553 928.44,553 " fill="none" id="ListUsersController-to-AuthorizationService" style="stroke:#181818;stroke-width:1.0;"/><polygon fill="#181818" points="922.44,553,931.44,557,927.44,553,931.44,549,922.44,553" style="stroke:#181818;stroke-width:1.0;"/></g><!--link ListUsersController to UserManagementService--><g id="link_ListUsersController_UserManagementService"><path codeLine="90" d="M1166.67,298.46 C1166.67,371.35 1166.67,516 1166.67,516 C1166.67,516 841.29,516 669.78,516 " fill="none" id="ListUsersController-to-UserManagementService" style="stroke:#181818;stroke-width:1.0;"/><polygon fill="#181818" points="663.78,516,672.78,520,668.78,516,672.78,512,663.78,516" style="stroke:#181818;stroke-width:1.0;"/></g><!--link UserManagementService to SystemUserBuilder--><g id="link_UserManagementService_SystemUserBuilder"><path codeLine="94" d="M479.5,618.29 C479.5,679.94 479.5,763 479.5,763 C479.5,763 477.67,763 466.41,763 " fill="none" id="UserManagementService-to-SystemUserBuilder" style="stroke:#181818;stroke-width:1.0;"/><polygon fill="#181818" points="460.41,763,469.41,767,465.41,763,469.41,759,460.41,763" style="stroke:#181818;stroke-width:1.0;"/></g><!--link UserManagementService to UserRepository--><g id="link_UserManagementService_UserRepository"><path codeLine="96" d="M563.5,618.29 C563.5,659.11 563.5,703.31 563.5,732.58 " fill="none" id="UserManagementService-to-UserRepository" style="stroke:#181818;stroke-width:1.0;"/><polygon fill="#181818" points="563.5,738.58,567.5,729.58,563.5,733.58,559.5,729.58,563.5,738.58" style="stroke:#181818;stroke-width:1.0;"/></g><!--link UserManagementService to SystemUser--><g id="link_UserManagementService_SystemUser"><path codeLine="98" d="M663.98,598 C671.95,598 677,598 677,598 C677,598 677,686.76 677,732.65 " fill="none" id="UserManagementService-to-SystemUser" style="stroke:#181818;stroke-width:1.0;"/><polygon fill="#181818" points="677,738.65,681,729.65,677,733.65,673,729.65,677,738.65" style="stroke:#181818;stroke-width:1.0;"/></g><!--SRC=[fLJBReCm4Bpp5RwLgE7MSoNIIdseZwXfFi259R5YRBGsYMZKVwynAOzWKg9mGjxPsTdnhjM6YOmYJGbd0dIH0P6erzAxuf1eeYL1jbfh4ZE4I3CfF2_YL2aInl5I0IwVoDuZvhlEpEbEOlm00f1gYRwWAKog8AtG_iJxgGaCtPPgwBBGrgcl2gKXBNzRUVT0dPan_9_xmfIUqMWZauH55gSQ0k2GWj2g8xBIVIU5HiavuAXkGQWS8Sprsl2no4YoB8zKXQ9uJtn31Ug0HLWPKO1liBEwIvhf7_iKKihujCGFEDTNTaxnSzo-hDBOsx5tSc5Jd5kMzZq-oozrivmVR9rBpgA2x1j73R54zatB2Ly0RirqjC8btIiLT6K7f8vNvRvoncF_K5lHBNIQwzZiHpcYOVXazQWqlZY22HDno7cxaKNDFIlhbWvrP7v09XKpyzXkhqcoXytg1a5msv_n6j6wXy12NJOEersk3gET9dlcEteeAchd2dInO_MSIXaKrNk5BDorBMtiI4ad4WO5kPysc-FOgmf_l6odD0tZ1oMvryRczCRu9Bexs2E9FUyN]--></g></svg>