<?xml version="1.0" encoding="us-ascii" standalone="no"?><svg xmlns="http://www.w3.org/2000/svg" xmlns:xlink="http://www.w3.org/1999/xlink" contentStyleType="text/css" height="492px" preserveAspectRatio="none" style="width:1140px;height:492px;background:#FFFFFF;" version="1.1" viewBox="0 0 1140 492" width="1140px" zoomAndPan="magnify"><defs/><g><rect fill="#FFFFFF" height="285.1055" style="stroke:#181818;stroke-width:1.0;" width="10" x="50.5" y="93.9766"/><rect fill="#FFFFFF" height="263.7949" style="stroke:#181818;stroke-width:1.0;" width="10" x="274.5" y="115.2871"/><rect fill="#FFFFFF" height="205.1738" style="stroke:#181818;stroke-width:1.0;" width="10" x="441.5" y="144.5977"/><rect fill="#FFFFFF" height="29.3105" style="stroke:#181818;stroke-width:1.0;" width="10" x="743.5" y="173.9082"/><rect fill="#FFFFFF" height="87.9316" style="stroke:#181818;stroke-width:1.0;" width="10" x="923" y="232.5293"/><rect fill="#FFFFFF" height="29.3105" style="stroke:#181818;stroke-width:1.0;" width="10" x="1079" y="261.8398"/><line style="stroke:#181818;stroke-width:0.5;stroke-dasharray:5.0,5.0;" x1="55" x2="55" y1="83.9766" y2="397.082"/><line style="stroke:#181818;stroke-width:0.5;stroke-dasharray:5.0,5.0;" x1="279.5" x2="279.5" y1="83.9766" y2="397.082"/><line style="stroke:#181818;stroke-width:0.5;stroke-dasharray:5.0,5.0;" x1="446" x2="446" y1="83.9766" y2="397.082"/><line style="stroke:#181818;stroke-width:0.5;stroke-dasharray:5.0,5.0;" x1="748" x2="748" y1="83.9766" y2="397.082"/><line style="stroke:#181818;stroke-width:0.5;stroke-dasharray:5.0,5.0;" x1="928" x2="928" y1="83.9766" y2="397.082"/><line style="stroke:#181818;stroke-width:0.5;stroke-dasharray:5.0,5.0;" x1="1084" x2="1084" y1="83.9766" y2="397.082"/><text fill="#000000" font-family="sans-serif" font-size="14" lengthAdjust="spacing" textLength="95" x="5" y="81.0234">Administrator</text><ellipse cx="55.5" cy="15.9883" fill="#E2E2F0" rx="8" ry="8" style="stroke:#181818;stroke-width:0.5;"/><path d="M55.5,23.9883 L55.5,50.9883 M42.5,31.9883 L68.5,31.9883 M55.5,50.9883 L42.5,65.9883 M55.5,50.9883 L68.5,65.9883 " fill="none" style="stroke:#181818;stroke-width:0.5;"/><text fill="#000000" font-family="sans-serif" font-size="14" lengthAdjust="spacing" textLength="95" x="5" y="409.6172">Administrator</text><ellipse cx="55.5" cy="421.0703" fill="#E2E2F0" rx="8" ry="8" style="stroke:#181818;stroke-width:0.5;"/><path d="M55.5,429.0703 L55.5,456.0703 M42.5,437.0703 L68.5,437.0703 M55.5,456.0703 L42.5,471.0703 M55.5,456.0703 L68.5,471.0703 " fill="none" style="stroke:#181818;stroke-width:0.5;"/><rect fill="#E2E2F0" height="46.9766" rx="2.5" ry="2.5" style="stroke:#181818;stroke-width:0.5;" width="158" x="200.5" y="36"/><text fill="#000000" font-family="sans-serif" font-size="14" font-style="italic" lengthAdjust="spacing" textLength="101" x="229" y="56.5352">&#171;presentation&#187;</text><text fill="#000000" font-family="sans-serif" font-size="14" lengthAdjust="spacing" textLength="144" x="207.5" y="73.0234">ListBackofficeUsersUI</text><rect fill="#E2E2F0" height="46.9766" rx="2.5" ry="2.5" style="stroke:#181818;stroke-width:0.5;" width="158" x="200.5" y="396.082"/><text fill="#000000" font-family="sans-serif" font-size="14" font-style="italic" lengthAdjust="spacing" textLength="101" x="229" y="416.6172">&#171;presentation&#187;</text><text fill="#000000" font-family="sans-serif" font-size="14" lengthAdjust="spacing" textLength="144" x="207.5" y="433.1055">ListBackofficeUsersUI</text><rect fill="#E2E2F0" height="46.9766" rx="2.5" ry="2.5" style="stroke:#181818;stroke-width:0.5;" width="145" x="374" y="36"/><text fill="#000000" font-family="sans-serif" font-size="14" font-style="italic" lengthAdjust="spacing" textLength="90" x="401.5" y="56.5352">&#171;application&#187;</text><text fill="#000000" font-family="sans-serif" font-size="14" lengthAdjust="spacing" textLength="131" x="381" y="73.0234">ListUsersController</text><rect fill="#E2E2F0" height="46.9766" rx="2.5" ry="2.5" style="stroke:#181818;stroke-width:0.5;" width="145" x="374" y="396.082"/><text fill="#000000" font-family="sans-serif" font-size="14" font-style="italic" lengthAdjust="spacing" textLength="90" x="401.5" y="416.6172">&#171;application&#187;</text><text fill="#000000" font-family="sans-serif" font-size="14" lengthAdjust="spacing" textLength="131" x="381" y="433.1055">ListUsersController</text><rect fill="#E2E2F0" height="46.9766" rx="2.5" ry="2.5" style="stroke:#181818;stroke-width:0.5;" width="157" x="670" y="36"/><text fill="#000000" font-family="sans-serif" font-size="14" font-style="italic" lengthAdjust="spacing" textLength="61" x="718" y="56.5352">&#171;service&#187;</text><text fill="#000000" font-family="sans-serif" font-size="14" lengthAdjust="spacing" textLength="143" x="677" y="73.0234">AuthorizationService</text><rect fill="#E2E2F0" height="46.9766" rx="2.5" ry="2.5" style="stroke:#181818;stroke-width:0.5;" width="157" x="670" y="396.082"/><text fill="#000000" font-family="sans-serif" font-size="14" font-style="italic" lengthAdjust="spacing" textLength="61" x="718" y="416.6172">&#171;service&#187;</text><text fill="#000000" font-family="sans-serif" font-size="14" lengthAdjust="spacing" textLength="143" x="677" y="433.1055">AuthorizationService</text><rect fill="#E2E2F0" height="46.9766" rx="2.5" ry="2.5" style="stroke:#181818;stroke-width:0.5;" width="182" x="837" y="36"/><text fill="#000000" font-family="sans-serif" font-size="14" font-style="italic" lengthAdjust="spacing" textLength="61" x="897.5" y="56.5352">&#171;service&#187;</text><text fill="#000000" font-family="sans-serif" font-size="14" lengthAdjust="spacing" textLength="168" x="844" y="73.0234">UserManagementService</text><rect fill="#E2E2F0" height="46.9766" rx="2.5" ry="2.5" style="stroke:#181818;stroke-width:0.5;" width="182" x="837" y="396.082"/><text fill="#000000" font-family="sans-serif" font-size="14" font-style="italic" lengthAdjust="spacing" textLength="61" x="897.5" y="416.6172">&#171;service&#187;</text><text fill="#000000" font-family="sans-serif" font-size="14" lengthAdjust="spacing" textLength="168" x="844" y="433.1055">UserManagementService</text><text fill="#000000" font-family="sans-serif" font-size="14" font-style="italic" lengthAdjust="spacing" textLength="84" x="1039" y="64.5352">&#171;repository&#187;</text><text fill="#000000" font-family="sans-serif" font-size="14" lengthAdjust="spacing" textLength="104" x="1029" y="81.0234">UserRepository</text><path d="M1066,15 C1066,5 1084,5 1084,5 C1084,5 1102,5 1102,15 L1102,41 C1102,51 1084,51 1084,51 C1084,51 1066,51 1066,41 L1066,15 " fill="#E2E2F0" style="stroke:#181818;stroke-width:1.5;"/><path d="M1066,15 C1066,25 1084,25 1084,25 C1084,25 1102,25 1102,15 " fill="none" style="stroke:#181818;stroke-width:1.5;"/><text fill="#000000" font-family="sans-serif" font-size="14" font-style="italic" lengthAdjust="spacing" textLength="84" x="1039" y="409.6172">&#171;repository&#187;</text><text fill="#000000" font-family="sans-serif" font-size="14" lengthAdjust="spacing" textLength="104" x="1029" y="426.1055">UserRepository</text><path d="M1066,439.0586 C1066,429.0586 1084,429.0586 1084,429.0586 C1084,429.0586 1102,429.0586 1102,439.0586 L1102,465.0586 C1102,475.0586 1084,475.0586 1084,475.0586 C1084,475.0586 1066,475.0586 1066,465.0586 L1066,439.0586 " fill="#E2E2F0" style="stroke:#181818;stroke-width:1.5;"/><path d="M1066,439.0586 C1066,449.0586 1084,449.0586 1084,449.0586 C1084,449.0586 1102,449.0586 1102,439.0586 " fill="none" style="stroke:#181818;stroke-width:1.5;"/><rect fill="#FFFFFF" height="285.1055" style="stroke:#181818;stroke-width:1.0;" width="10" x="50.5" y="93.9766"/><rect fill="#FFFFFF" height="263.7949" style="stroke:#181818;stroke-width:1.0;" width="10" x="274.5" y="115.2871"/><rect fill="#FFFFFF" height="205.1738" style="stroke:#181818;stroke-width:1.0;" width="10" x="441.5" y="144.5977"/><rect fill="#FFFFFF" height="29.3105" style="stroke:#181818;stroke-width:1.0;" width="10" x="743.5" y="173.9082"/><rect fill="#FFFFFF" height="87.9316" style="stroke:#181818;stroke-width:1.0;" width="10" x="923" y="232.5293"/><rect fill="#FFFFFF" height="29.3105" style="stroke:#181818;stroke-width:1.0;" width="10" x="1079" y="261.8398"/><polygon fill="#181818" points="262.5,111.2871,272.5,115.2871,262.5,119.2871,266.5,115.2871" style="stroke:#181818;stroke-width:1.0;"/><line style="stroke:#181818;stroke-width:1.0;" x1="60.5" x2="268.5" y1="115.2871" y2="115.2871"/><text fill="#000000" font-family="sans-serif" font-size="13" font-weight="bold" lengthAdjust="spacing" textLength="9" x="67.5" y="110.5449">1</text><text fill="#000000" font-family="sans-serif" font-size="13" lengthAdjust="spacing" textLength="128" x="80.5" y="110.5449">list backoffice users</text><polygon fill="#181818" points="429.5,140.5977,439.5,144.5977,429.5,148.5977,433.5,144.5977" style="stroke:#181818;stroke-width:1.0;"/><line style="stroke:#181818;stroke-width:1.0;" x1="284.5" x2="435.5" y1="144.5977" y2="144.5977"/><text fill="#000000" font-family="sans-serif" font-size="13" font-weight="bold" lengthAdjust="spacing" textLength="9" x="291.5" y="139.8555">2</text><text fill="#000000" font-family="sans-serif" font-size="13" lengthAdjust="spacing" textLength="65" x="304.5" y="139.8555">elements()</text><polygon fill="#181818" points="731.5,169.9082,741.5,173.9082,731.5,177.9082,735.5,173.9082" style="stroke:#181818;stroke-width:1.0;"/><line style="stroke:#181818;stroke-width:1.0;" x1="451.5" x2="737.5" y1="173.9082" y2="173.9082"/><text fill="#000000" font-family="sans-serif" font-size="13" font-weight="bold" lengthAdjust="spacing" textLength="9" x="458.5" y="169.166">3</text><text fill="#000000" font-family="sans-serif" font-size="13" lengthAdjust="spacing" textLength="260" x="471.5" y="169.166">ensureAuthenticatedUserHasAnyOf(roles)</text><polygon fill="#181818" points="462.5,199.2188,452.5,203.2188,462.5,207.2188,458.5,203.2188" style="stroke:#181818;stroke-width:1.0;"/><line style="stroke:#181818;stroke-width:1.0;stroke-dasharray:2.0,2.0;" x1="456.5" x2="747.5" y1="203.2188" y2="203.2188"/><text fill="#000000" font-family="sans-serif" font-size="13" font-weight="bold" lengthAdjust="spacing" textLength="9" x="468.5" y="198.4766">4</text><text fill="#000000" font-family="sans-serif" font-size="13" lengthAdjust="spacing" textLength="67" x="481.5" y="198.4766">return true</text><polygon fill="#181818" points="911,228.5293,921,232.5293,911,236.5293,915,232.5293" style="stroke:#181818;stroke-width:1.0;"/><line style="stroke:#181818;stroke-width:1.0;" x1="451.5" x2="917" y1="232.5293" y2="232.5293"/><text fill="#000000" font-family="sans-serif" font-size="13" font-weight="bold" lengthAdjust="spacing" textLength="9" x="458.5" y="227.7871">5</text><text fill="#000000" font-family="sans-serif" font-size="13" lengthAdjust="spacing" textLength="58" x="471.5" y="227.7871">allUsers()</text><polygon fill="#181818" points="1067,257.8398,1077,261.8398,1067,265.8398,1071,261.8398" style="stroke:#181818;stroke-width:1.0;"/><line style="stroke:#181818;stroke-width:1.0;" x1="933" x2="1073" y1="261.8398" y2="261.8398"/><text fill="#000000" font-family="sans-serif" font-size="13" font-weight="bold" lengthAdjust="spacing" textLength="9" x="940" y="257.0977">6</text><text fill="#000000" font-family="sans-serif" font-size="13" lengthAdjust="spacing" textLength="50" x="953" y="257.0977">findAll()</text><polygon fill="#181818" points="944,287.1504,934,291.1504,944,295.1504,940,291.1504" style="stroke:#181818;stroke-width:1.0;"/><line style="stroke:#181818;stroke-width:1.0;stroke-dasharray:2.0,2.0;" x1="938" x2="1083" y1="291.1504" y2="291.1504"/><text fill="#000000" font-family="sans-serif" font-size="13" font-weight="bold" lengthAdjust="spacing" textLength="9" x="950" y="286.4082">7</text><text fill="#000000" font-family="sans-serif" font-size="13" lengthAdjust="spacing" textLength="100" x="963" y="286.4082">listSystemUsers</text><polygon fill="#181818" points="462.5,316.4609,452.5,320.4609,462.5,324.4609,458.5,320.4609" style="stroke:#181818;stroke-width:1.0;"/><line style="stroke:#181818;stroke-width:1.0;stroke-dasharray:2.0,2.0;" x1="456.5" x2="927" y1="320.4609" y2="320.4609"/><text fill="#000000" font-family="sans-serif" font-size="13" font-weight="bold" lengthAdjust="spacing" textLength="9" x="468.5" y="315.7188">8</text><text fill="#000000" font-family="sans-serif" font-size="13" lengthAdjust="spacing" textLength="120" x="481.5" y="315.7188">listBackofficeUsers</text><polygon fill="#181818" points="295.5,345.7715,285.5,349.7715,295.5,353.7715,291.5,349.7715" style="stroke:#181818;stroke-width:1.0;"/><line style="stroke:#181818;stroke-width:1.0;stroke-dasharray:2.0,2.0;" x1="289.5" x2="445.5" y1="349.7715" y2="349.7715"/><text fill="#000000" font-family="sans-serif" font-size="13" font-weight="bold" lengthAdjust="spacing" textLength="9" x="301.5" y="345.0293">9</text><text fill="#000000" font-family="sans-serif" font-size="13" lengthAdjust="spacing" textLength="120" x="314.5" y="345.0293">listBackofficeUsers</text><polygon fill="#181818" points="66.5,375.082,56.5,379.082,66.5,383.082,62.5,379.082" style="stroke:#181818;stroke-width:1.0;"/><line style="stroke:#181818;stroke-width:1.0;stroke-dasharray:2.0,2.0;" x1="60.5" x2="278.5" y1="379.082" y2="379.082"/><text fill="#000000" font-family="sans-serif" font-size="13" font-weight="bold" lengthAdjust="spacing" textLength="18" x="72.5" y="374.3398">10</text><text fill="#000000" font-family="sans-serif" font-size="13" lengthAdjust="spacing" textLength="168" x="94.5" y="374.3398">shows operation's success</text><!--SRC=[ZPJ1JiCm38RlVOhS68UzG3LDAbn00Y4nxG6yrcCHQLBPoT1uUf9sMjVEcSYfJNxxg-q_XU2T3UqEgIWAgBqZLJMjjfezGNmhYWx8wrftOBrwYzjFK7-x_LxNk6KathwgrQeZPBGUl7PslRu9wONFpdfonY350EWwesj9NmL_SAH_-xCDqZ62OW0FJpDnIlmE5hwmZNX9tO277J3sqa_i7EjOrIbgwF8IPNtj-WWUv-Mhk2PRQhcM-r0g4xVLxhAlGZeOKgHrGOZXWqxky1avwsEfqFI5y-8nGvb5Z8pvI291wdn4M0w4wIo2qiYmIR4lm9KzVUmNCHvPmalfpksKHhpCrKZe0rdbAU18QV0Vd4oTecbA1SRqOh6NOioWapruveoEAzLUswOo9fj_r8w9hnoxp7zwyjtcn1xRxTHnLstA4OHFpqt2t7epYyeqInp9_Glr7-9TgmlNARbzSgTBnGVtmyfrIBsH7bXng6laF31pW-VsdFnE_W00]--></g></svg>