<?xml version="1.0" encoding="us-ascii" standalone="no"?><svg xmlns="http://www.w3.org/2000/svg" xmlns:xlink="http://www.w3.org/1999/xlink" contentStyleType="text/css" height="380px" preserveAspectRatio="none" style="width:1066px;height:380px;background:#FFFFFF;" version="1.1" viewBox="0 0 1066 380" width="1066.4px" zoomAndPan="magnify"><defs/><g><rect fill="#FFFFFF" height="228.0844" style="stroke:#181818;stroke-width:0.8000000000000002;" width="8" x="40.4" y="73.1906"/><rect fill="#FFFFFF" height="211.0359" style="stroke:#181818;stroke-width:0.8000000000000002;" width="8" x="219.6" y="90.2391"/><rect fill="#FFFFFF" height="164.1391" style="stroke:#181818;stroke-width:0.8000000000000002;" width="8" x="376.4" y="113.6875"/><rect fill="#FFFFFF" height="23.4484" style="stroke:#181818;stroke-width:0.8000000000000002;" width="8" x="618" y="137.1359"/><rect fill="#FFFFFF" height="70.3453" style="stroke:#181818;stroke-width:0.8000000000000002;" width="8" x="761.6" y="184.0328"/><rect fill="#FFFFFF" height="23.4484" style="stroke:#181818;stroke-width:0.8000000000000002;" width="8" x="1010.4" y="207.4813"/><line style="stroke:#181818;stroke-width:0.4000000000000001;stroke-dasharray:5.0,5.0;" x1="44" x2="44" y1="65.1906" y2="315.675"/><line style="stroke:#181818;stroke-width:0.4000000000000001;stroke-dasharray:5.0,5.0;" x1="223.6" x2="223.6" y1="65.1906" y2="315.675"/><line style="stroke:#181818;stroke-width:0.4000000000000001;stroke-dasharray:5.0,5.0;" x1="380.4" x2="380.4" y1="65.1906" y2="315.675"/><line style="stroke:#181818;stroke-width:0.4000000000000001;stroke-dasharray:5.0,5.0;" x1="621.6" x2="621.6" y1="65.1906" y2="315.675"/><line style="stroke:#181818;stroke-width:0.4000000000000001;stroke-dasharray:5.0,5.0;" x1="765.6" x2="765.6" y1="65.1906" y2="315.675"/><line style="stroke:#181818;stroke-width:0.4000000000000001;stroke-dasharray:5.0,5.0;" x1="902.4" x2="902.4" y1="65.1906" y2="315.675"/><line style="stroke:#181818;stroke-width:0.4000000000000001;stroke-dasharray:5.0,5.0;" x1="1014.4" x2="1014.4" y1="65.1906" y2="315.675"/><text fill="#000000" font-family="sans-serif" font-size="11.2" lengthAdjust="spacing" textLength="76" x="4" y="62.8281">Administrator</text><ellipse cx="44.4" cy="10.8" fill="#E2E2F0" rx="6.4" ry="6.4" style="stroke:#181818;stroke-width:0.4000000000000001;"/><path d="M44.4,17.2 L44.4,38.8 M34,23.6 L54.8,23.6 M44.4,38.8 L34,50.8 M44.4,38.8 L54.8,50.8 " fill="none" style="stroke:#181818;stroke-width:0.4000000000000001;"/><text fill="#000000" font-family="sans-serif" font-size="11.2" lengthAdjust="spacing" textLength="76" x="4" y="325.7031">Administrator</text><ellipse cx="44.4" cy="334.8656" fill="#E2E2F0" rx="6.4" ry="6.4" style="stroke:#181818;stroke-width:0.4000000000000001;"/><path d="M44.4,341.2656 L44.4,362.8656 M34,347.6656 L54.8,347.6656 M44.4,362.8656 L34,374.8656 M44.4,362.8656 L54.8,374.8656 " fill="none" style="stroke:#181818;stroke-width:0.4000000000000001;"/><rect fill="#E2E2F0" height="37.5813" rx="2" ry="2" style="stroke:#181818;stroke-width:0.4000000000000001;" width="126.4" x="160.4" y="26.8094"/><text fill="#000000" font-family="sans-serif" font-size="11.2" font-style="italic" lengthAdjust="spacing" textLength="80.8" x="183.2" y="43.2375">&#171;presentation&#187;</text><text fill="#000000" font-family="sans-serif" font-size="11.2" lengthAdjust="spacing" textLength="115.2" x="166" y="56.4281">ListBackofficeUsersUI</text><rect fill="#E2E2F0" height="37.5813" rx="2" ry="2" style="stroke:#181818;stroke-width:0.4000000000000001;" width="126.4" x="160.4" y="314.875"/><text fill="#000000" font-family="sans-serif" font-size="11.2" font-style="italic" lengthAdjust="spacing" textLength="80.8" x="183.2" y="331.3031">&#171;presentation&#187;</text><text fill="#000000" font-family="sans-serif" font-size="11.2" lengthAdjust="spacing" textLength="115.2" x="166" y="344.4938">ListBackofficeUsersUI</text><rect fill="#E2E2F0" height="37.5813" rx="2" ry="2" style="stroke:#181818;stroke-width:0.4000000000000001;" width="171.2" x="294.8" y="26.8094"/><text fill="#000000" font-family="sans-serif" font-size="11.2" font-style="italic" lengthAdjust="spacing" textLength="72" x="344.4" y="43.2375">&#171;application&#187;</text><text fill="#000000" font-family="sans-serif" font-size="11.2" lengthAdjust="spacing" textLength="160" x="300.4" y="56.4281">ListBackofficeUsersController</text><rect fill="#E2E2F0" height="37.5813" rx="2" ry="2" style="stroke:#181818;stroke-width:0.4000000000000001;" width="171.2" x="294.8" y="314.875"/><text fill="#000000" font-family="sans-serif" font-size="11.2" font-style="italic" lengthAdjust="spacing" textLength="72" x="344.4" y="331.3031">&#171;application&#187;</text><text fill="#000000" font-family="sans-serif" font-size="11.2" lengthAdjust="spacing" textLength="160" x="300.4" y="344.4938">ListBackofficeUsersController</text><rect fill="#E2E2F0" height="37.5813" rx="2" ry="2" style="stroke:#181818;stroke-width:0.4000000000000001;" width="125.6" x="559.2" y="26.8094"/><text fill="#000000" font-family="sans-serif" font-size="11.2" font-style="italic" lengthAdjust="spacing" textLength="48.8" x="597.6" y="43.2375">&#171;service&#187;</text><text fill="#000000" font-family="sans-serif" font-size="11.2" lengthAdjust="spacing" textLength="114.4" x="564.8" y="56.4281">AuthorizationService</text><rect fill="#E2E2F0" height="37.5813" rx="2" ry="2" style="stroke:#181818;stroke-width:0.4000000000000001;" width="125.6" x="559.2" y="314.875"/><text fill="#000000" font-family="sans-serif" font-size="11.2" font-style="italic" lengthAdjust="spacing" textLength="48.8" x="597.6" y="331.3031">&#171;service&#187;</text><text fill="#000000" font-family="sans-serif" font-size="11.2" lengthAdjust="spacing" textLength="114.4" x="564.8" y="344.4938">AuthorizationService</text><rect fill="#E2E2F0" height="37.5813" rx="2" ry="2" style="stroke:#181818;stroke-width:0.4000000000000001;" width="145.6" x="692.8" y="26.8094"/><text fill="#000000" font-family="sans-serif" font-size="11.2" font-style="italic" lengthAdjust="spacing" textLength="48.8" x="741.2" y="43.2375">&#171;service&#187;</text><text fill="#000000" font-family="sans-serif" font-size="11.2" lengthAdjust="spacing" textLength="134.4" x="698.4" y="56.4281">UserManagementService</text><rect fill="#E2E2F0" height="37.5813" rx="2" ry="2" style="stroke:#181818;stroke-width:0.4000000000000001;" width="145.6" x="692.8" y="314.875"/><text fill="#000000" font-family="sans-serif" font-size="11.2" font-style="italic" lengthAdjust="spacing" textLength="48.8" x="741.2" y="331.3031">&#171;service&#187;</text><text fill="#000000" font-family="sans-serif" font-size="11.2" lengthAdjust="spacing" textLength="134.4" x="698.4" y="344.4938">UserManagementService</text><rect fill="#E2E2F0" height="37.5813" rx="2" ry="2" style="stroke:#181818;stroke-width:0.4000000000000001;" width="112.8" x="846.4" y="26.8094"/><text fill="#000000" font-family="sans-serif" font-size="11.2" font-style="italic" lengthAdjust="spacing" textLength="73.6" x="866" y="43.2375">&#171;userBuilder&#187;</text><text fill="#000000" font-family="sans-serif" font-size="11.2" lengthAdjust="spacing" textLength="101.6" x="852" y="56.4281">SystemUserBuilder</text><rect fill="#E2E2F0" height="37.5813" rx="2" ry="2" style="stroke:#181818;stroke-width:0.4000000000000001;" width="112.8" x="846.4" y="314.875"/><text fill="#000000" font-family="sans-serif" font-size="11.2" font-style="italic" lengthAdjust="spacing" textLength="73.6" x="866" y="331.3031">&#171;userBuilder&#187;</text><text fill="#000000" font-family="sans-serif" font-size="11.2" lengthAdjust="spacing" textLength="101.6" x="852" y="344.4938">SystemUserBuilder</text><rect fill="#E2E2F0" height="37.5813" rx="2" ry="2" style="stroke:#181818;stroke-width:0.4000000000000001;" width="94.4" x="967.2" y="26.8094"/><text fill="#000000" font-family="sans-serif" font-size="11.2" font-style="italic" lengthAdjust="spacing" textLength="67.2" x="980.8" y="43.2375">&#171;repository&#187;</text><text fill="#000000" font-family="sans-serif" font-size="11.2" lengthAdjust="spacing" textLength="83.2" x="972.8" y="56.4281">UserRepository</text><rect fill="#E2E2F0" height="37.5813" rx="2" ry="2" style="stroke:#181818;stroke-width:0.4000000000000001;" width="94.4" x="967.2" y="314.875"/><text fill="#000000" font-family="sans-serif" font-size="11.2" font-style="italic" lengthAdjust="spacing" textLength="67.2" x="980.8" y="331.3031">&#171;repository&#187;</text><text fill="#000000" font-family="sans-serif" font-size="11.2" lengthAdjust="spacing" textLength="83.2" x="972.8" y="344.4938">UserRepository</text><rect fill="#FFFFFF" height="228.0844" style="stroke:#181818;stroke-width:0.8000000000000002;" width="8" x="40.4" y="73.1906"/><rect fill="#FFFFFF" height="211.0359" style="stroke:#181818;stroke-width:0.8000000000000002;" width="8" x="219.6" y="90.2391"/><rect fill="#FFFFFF" height="164.1391" style="stroke:#181818;stroke-width:0.8000000000000002;" width="8" x="376.4" y="113.6875"/><rect fill="#FFFFFF" height="23.4484" style="stroke:#181818;stroke-width:0.8000000000000002;" width="8" x="618" y="137.1359"/><rect fill="#FFFFFF" height="70.3453" style="stroke:#181818;stroke-width:0.8000000000000002;" width="8" x="761.6" y="184.0328"/><rect fill="#FFFFFF" height="23.4484" style="stroke:#181818;stroke-width:0.8000000000000002;" width="8" x="1010.4" y="207.4813"/><polygon fill="#181818" points="210,87.0391,218,90.2391,210,93.4391,213.2,90.2391" style="stroke:#181818;stroke-width:0.8000000000000002;"/><line style="stroke:#181818;stroke-width:0.8000000000000002;" x1="48.4" x2="214.8" y1="90.2391" y2="90.2391"/><text fill="#000000" font-family="sans-serif" font-size="10.4" font-weight="bold" lengthAdjust="spacing" textLength="7.2" x="54" y="86.4453">1</text><text fill="#000000" font-family="sans-serif" font-size="10.4" lengthAdjust="spacing" textLength="102.4" x="64.4" y="86.4453">list backoffice users</text><polygon fill="#181818" points="366.8,110.4875,374.8,113.6875,366.8,116.8875,370,113.6875" style="stroke:#181818;stroke-width:0.8000000000000002;"/><line style="stroke:#181818;stroke-width:0.8000000000000002;" x1="227.6" x2="371.6" y1="113.6875" y2="113.6875"/><text fill="#000000" font-family="sans-serif" font-size="10.4" font-weight="bold" lengthAdjust="spacing" textLength="7.2" x="233.2" y="109.8938">2</text><text fill="#000000" font-family="sans-serif" font-size="10.4" lengthAdjust="spacing" textLength="52" x="243.6" y="109.8938">elements()</text><polygon fill="#181818" points="608.4,133.9359,616.4,137.1359,608.4,140.3359,611.6,137.1359" style="stroke:#181818;stroke-width:0.8000000000000002;"/><line style="stroke:#181818;stroke-width:0.8000000000000002;" x1="384.4" x2="613.2" y1="137.1359" y2="137.1359"/><text fill="#000000" font-family="sans-serif" font-size="10.4" font-weight="bold" lengthAdjust="spacing" textLength="7.2" x="390" y="133.3422">3</text><text fill="#000000" font-family="sans-serif" font-size="10.4" lengthAdjust="spacing" textLength="208" x="400.4" y="133.3422">ensureAuthenticatedUserHasAnyOf(roles)</text><polygon fill="#181818" points="393.2,157.3844,385.2,160.5844,393.2,163.7844,390,160.5844" style="stroke:#181818;stroke-width:0.8000000000000002;"/><line style="stroke:#181818;stroke-width:0.8000000000000002;stroke-dasharray:2.0,2.0;" x1="388.4" x2="621.2" y1="160.5844" y2="160.5844"/><text fill="#000000" font-family="sans-serif" font-size="10.4" font-weight="bold" lengthAdjust="spacing" textLength="7.2" x="398" y="156.7906">4</text><text fill="#000000" font-family="sans-serif" font-size="10.4" lengthAdjust="spacing" textLength="53.6" x="408.4" y="156.7906">return true</text><polygon fill="#181818" points="752,180.8328,760,184.0328,752,187.2328,755.2,184.0328" style="stroke:#181818;stroke-width:0.8000000000000002;"/><line style="stroke:#181818;stroke-width:0.8000000000000002;" x1="384.4" x2="756.8" y1="184.0328" y2="184.0328"/><text fill="#000000" font-family="sans-serif" font-size="10.4" font-weight="bold" lengthAdjust="spacing" textLength="7.2" x="390" y="180.2391">5</text><text fill="#000000" font-family="sans-serif" font-size="10.4" lengthAdjust="spacing" textLength="46.4" x="400.4" y="180.2391">allUsers()</text><polygon fill="#181818" points="1000.8,204.2813,1008.8,207.4813,1000.8,210.6813,1004,207.4813" style="stroke:#181818;stroke-width:0.8000000000000002;"/><line style="stroke:#181818;stroke-width:0.8000000000000002;" x1="769.6" x2="1005.6" y1="207.4813" y2="207.4813"/><text fill="#000000" font-family="sans-serif" font-size="10.4" font-weight="bold" lengthAdjust="spacing" textLength="7.2" x="775.2" y="203.6875">6</text><text fill="#000000" font-family="sans-serif" font-size="10.4" lengthAdjust="spacing" textLength="40" x="785.6" y="203.6875">findAll()</text><polygon fill="#181818" points="778.4,227.7297,770.4,230.9297,778.4,234.1297,775.2,230.9297" style="stroke:#181818;stroke-width:0.8000000000000002;"/><line style="stroke:#181818;stroke-width:0.8000000000000002;stroke-dasharray:2.0,2.0;" x1="773.6" x2="1013.6" y1="230.9297" y2="230.9297"/><text fill="#000000" font-family="sans-serif" font-size="10.4" font-weight="bold" lengthAdjust="spacing" textLength="7.2" x="783.2" y="227.1359">7</text><text fill="#000000" font-family="sans-serif" font-size="10.4" lengthAdjust="spacing" textLength="80" x="793.6" y="227.1359">listSystemUsers</text><polygon fill="#181818" points="393.2,251.1781,385.2,254.3781,393.2,257.5781,390,254.3781" style="stroke:#181818;stroke-width:0.8000000000000002;"/><line style="stroke:#181818;stroke-width:0.8000000000000002;stroke-dasharray:2.0,2.0;" x1="388.4" x2="764.8" y1="254.3781" y2="254.3781"/><text fill="#000000" font-family="sans-serif" font-size="10.4" font-weight="bold" lengthAdjust="spacing" textLength="7.2" x="398" y="250.5844">8</text><text fill="#000000" font-family="sans-serif" font-size="10.4" lengthAdjust="spacing" textLength="96" x="408.4" y="250.5844">listBackofficeUsers</text><polygon fill="#181818" points="236.4,274.6266,228.4,277.8266,236.4,281.0266,233.2,277.8266" style="stroke:#181818;stroke-width:0.8000000000000002;"/><line style="stroke:#181818;stroke-width:0.8000000000000002;stroke-dasharray:2.0,2.0;" x1="231.6" x2="379.6" y1="277.8266" y2="277.8266"/><text fill="#000000" font-family="sans-serif" font-size="10.4" font-weight="bold" lengthAdjust="spacing" textLength="7.2" x="241.2" y="274.0328">9</text><text fill="#000000" font-family="sans-serif" font-size="10.4" lengthAdjust="spacing" textLength="96" x="251.6" y="274.0328">listBackofficeUsers</text><polygon fill="#181818" points="53.2,298.075,45.2,301.275,53.2,304.475,50,301.275" style="stroke:#181818;stroke-width:0.8000000000000002;"/><line style="stroke:#181818;stroke-width:0.8000000000000002;stroke-dasharray:2.0,2.0;" x1="48.4" x2="222.8" y1="301.275" y2="301.275"/><text fill="#000000" font-family="sans-serif" font-size="10.4" font-weight="bold" lengthAdjust="spacing" textLength="14.4" x="58" y="297.4813">10</text><text fill="#000000" font-family="sans-serif" font-size="10.4" lengthAdjust="spacing" textLength="134.4" x="75.6" y="297.4813">shows operation's success</text><!--SRC=[dLJ1JiCm3BttAt9Z7FO3LJMfum8I4nBJFY1hNHQH9fMT38sl9sd7mePBAt9gacS_z_avqZjhVBi7pB9CLiwYAEjM6KKEPTXbMIVHgKfrqZZn78xNidgtJQCgs14WxPv4KNG81CP9fwnPhQP27gnnQBK6B0hPTLfLN63ftS6Y-kplje3741weQFYw0SUy6sda6xIXZYdqzaGEsXYpzahNW07fqux9_GgT9HNqE0KeNZO1sQkcZjB1hN0YhAiZiLpn2kP2XsEnlvoBM0qDAUAwKB3X0uxl3K-PEf0BqBrcjBYVnvTYHtaJ9F9pZGoqXZn2l0laqG5GnzX7IQKvlJIB40_4bSIbEulDEMOvhG22ysY4Gm-9huOPZ9F_pleo5rBh7ingpiOCEDxcPvxaqLmqojIbrgFv4pOb_k7nvNZfqQbfVeWLR8o1ANswE_htzIZfY6mJRVfxBETm_szCudZ6-RXw8t911_j1mdQ0lU7kI92lAg3PrDylmgsDhvwdBm00]--></g></svg>