<?xml version="1.0" encoding="us-ascii" standalone="no"?><svg xmlns="http://www.w3.org/2000/svg" xmlns:xlink="http://www.w3.org/1999/xlink" contentStyleType="text/css" height="732px" preserveAspectRatio="none" style="width:957px;height:732px;background:#FFFFFF;" version="1.1" viewBox="0 0 957 732" width="957px" zoomAndPan="magnify"><defs/><g><text fill="#000000" font-family="sans-serif" font-size="14" font-weight="bold" lengthAdjust="spacing" textLength="145" x="399" y="25.1074">Domain Model - 1008</text><!--cluster Job Requirements Specification Aggregate--><g id="cluster_Job Requirements Specification Aggregate"><rect fill="none" height="123" rx="2.5" ry="2.5" style="stroke:#000000;stroke-width:1.5;" width="432" x="519" y="84.6211"/><text fill="#000000" font-family="sans-serif" font-size="14" font-weight="bold" lengthAdjust="spacing" textLength="301" x="584.5" y="101.7285">Job Requirements Specification Aggregate</text></g><!--cluster User Aggregate--><g id="cluster_User Aggregate"><rect fill="none" height="331" rx="2.5" ry="2.5" style="stroke:#000000;stroke-width:1.5;" width="387" x="358" y="395.6211"/><text fill="#000000" font-family="sans-serif" font-size="14" font-weight="bold" lengthAdjust="spacing" textLength="110" x="496.5" y="412.7285">User Aggregate</text></g><!--cluster Interview Model Aggregate--><g id="cluster_Interview Model Aggregate"><rect fill="none" height="123" rx="2.5" ry="2.5" style="stroke:#000000;stroke-width:1.5;" width="389.5" x="331" y="248.6211"/><text fill="#000000" font-family="sans-serif" font-size="14" font-weight="bold" lengthAdjust="spacing" textLength="191" x="430.25" y="265.7285">Interview Model Aggregate</text></g><!--cluster Language Engineer Aggregate--><g id="cluster_Language Engineer Aggregate"><rect fill="none" height="123" rx="2.5" ry="2.5" style="stroke:#000000;stroke-width:1.5;" width="230" x="7" y="248.6211"/><text fill="#000000" font-family="sans-serif" font-size="14" font-weight="bold" lengthAdjust="spacing" textLength="214" x="15" y="265.7285">Language Engineer Aggregate</text></g><!--cluster ANTLR Service Aggregate--><g id="cluster_ANTLR Service Aggregate"><rect fill="none" height="123" rx="2.5" ry="2.5" style="stroke:#000000;stroke-width:1.5;" width="196" x="24" y="46.6211"/><text fill="#000000" font-family="sans-serif" font-size="14" font-weight="bold" lengthAdjust="spacing" textLength="180" x="32" y="63.7285">ANTLR Service Aggregate</text></g><!--class JobRequirementsSpecification--><g id="elem_JobRequirementsSpecification"><rect codeLine="26" fill="#F0FFFF" height="68.543" id="JobRequirementsSpecification" rx="2.5" ry="2.5" style="stroke:#000000;stroke-width:0.5;" width="222" x="535" y="122.1211"/><ellipse cx="550" cy="152.3926" fill="#ADD1B2" rx="11" ry="11" style="stroke:#181818;stroke-width:1.0;"/><path d="M548.8594,153.1895 L548.8594,155.6895 L553.1875,155.6895 L553.1875,154.7676 Q553.1875,154.1582 553.4219,153.8926 Q553.6719,153.627 554.0469,153.627 Q554.4219,153.627 554.6563,153.8926 Q554.8906,154.1582 554.8906,154.7676 L554.8906,157.3926 L546.8906,157.3926 Q546.2656,157.3926 546,157.1582 Q545.75,156.9238 545.75,156.5332 Q545.75,156.1582 546.0156,155.9238 Q546.2813,155.6895 546.8906,155.6895 L547.1563,155.6895 L547.1563,149.0332 L546.8906,149.0332 Q546.2656,149.0332 546,148.7988 Q545.75,148.5645 545.75,148.1738 Q545.75,147.7988 546,147.5645 Q546.2656,147.3301 546.8906,147.3301 L554.5156,147.3301 L554.5156,149.9238 Q554.5156,150.5332 554.2813,150.7988 Q554.0625,151.0488 553.6719,151.0488 Q553.2969,151.0488 553.0625,150.7988 Q552.8281,150.5332 552.8281,149.9238 L552.8281,149.0332 L548.8594,149.0332 L548.8594,151.4863 L550.3438,151.4863 Q550.3438,150.8301 550.4688,150.6426 Q550.7344,150.2363 551.2031,150.2363 Q551.5781,150.2363 551.8125,150.502 Q552.0469,150.752 552.0469,151.3613 L552.0469,153.3301 Q552.0469,153.877 551.9219,154.0645 Q551.6563,154.4551 551.2031,154.4551 Q550.7344,154.4551 550.4688,154.0488 Q550.3438,153.8613 550.3438,153.1895 L548.8594,153.1895 Z " fill="#000000"/><text fill="#000000" font-family="sans-serif" font-size="12" font-style="italic" lengthAdjust="spacing" textLength="43" x="637.5" y="140.0703">&#171;entity&#187;</text><text fill="#000000" font-family="sans-serif" font-size="12" font-style="italic" lengthAdjust="spacing" textLength="35" x="641.5" y="156.0313">&#171;root&#187;</text><text fill="#000000" font-family="sans-serif" font-size="14" lengthAdjust="spacing" textLength="190" x="564" y="174.1504">JobRequirementsSpecification</text><line style="stroke:#000000;stroke-width:0.5;" x1="536" x2="756" y1="182.6641" y2="182.6641"/></g><!--entity Requirements--><g id="elem_Requirements"><rect fill="#F0FFDD" height="43.2422" rx="2.5" ry="2.5" style="stroke:#000000;stroke-width:0.5;" width="117" x="818" y="135.1211"/><text fill="#000000" font-family="sans-serif" font-size="14" font-style="italic" lengthAdjust="spacing" textLength="97" x="828" y="153.2285">&#171;Value Object&#187;</text><text fill="#000000" font-family="sans-serif" font-size="14" lengthAdjust="spacing" textLength="88" x="832.5" y="171.8496">Requirements</text></g><!--class User--><g id="elem_User"><rect codeLine="36" fill="#F0FFFF" height="68.543" id="User" rx="2.5" ry="2.5" style="stroke:#000000;stroke-width:0.5;" width="71" x="374" y="498.1211"/><ellipse cx="389" cy="528.3926" fill="#ADD1B2" rx="11" ry="11" style="stroke:#181818;stroke-width:1.0;"/><path d="M387.8594,529.1895 L387.8594,531.6895 L392.1875,531.6895 L392.1875,530.7676 Q392.1875,530.1582 392.4219,529.8926 Q392.6719,529.627 393.0469,529.627 Q393.4219,529.627 393.6563,529.8926 Q393.8906,530.1582 393.8906,530.7676 L393.8906,533.3926 L385.8906,533.3926 Q385.2656,533.3926 385,533.1582 Q384.75,532.9238 384.75,532.5332 Q384.75,532.1582 385.0156,531.9238 Q385.2813,531.6895 385.8906,531.6895 L386.1563,531.6895 L386.1563,525.0332 L385.8906,525.0332 Q385.2656,525.0332 385,524.7988 Q384.75,524.5645 384.75,524.1738 Q384.75,523.7988 385,523.5645 Q385.2656,523.3301 385.8906,523.3301 L393.5156,523.3301 L393.5156,525.9238 Q393.5156,526.5332 393.2813,526.7988 Q393.0625,527.0488 392.6719,527.0488 Q392.2969,527.0488 392.0625,526.7988 Q391.8281,526.5332 391.8281,525.9238 L391.8281,525.0332 L387.8594,525.0332 L387.8594,527.4863 L389.3438,527.4863 Q389.3438,526.8301 389.4688,526.6426 Q389.7344,526.2363 390.2031,526.2363 Q390.5781,526.2363 390.8125,526.502 Q391.0469,526.752 391.0469,527.3613 L391.0469,529.3301 Q391.0469,529.877 390.9219,530.0645 Q390.6563,530.4551 390.2031,530.4551 Q389.7344,530.4551 389.4688,530.0488 Q389.3438,529.8613 389.3438,529.1895 L387.8594,529.1895 Z " fill="#000000"/><text fill="#000000" font-family="sans-serif" font-size="12" font-style="italic" lengthAdjust="spacing" textLength="43" x="401" y="516.0703">&#171;entity&#187;</text><text fill="#000000" font-family="sans-serif" font-size="12" font-style="italic" lengthAdjust="spacing" textLength="35" x="405" y="532.0313">&#171;root&#187;</text><text fill="#000000" font-family="sans-serif" font-size="14" lengthAdjust="spacing" textLength="29" x="408" y="550.1504">User</text><line style="stroke:#000000;stroke-width:0.5;" x1="375" x2="444" y1="558.6641" y2="558.6641"/></g><!--entity UserEmail--><g id="elem_UserEmail"><rect fill="#F0FFDD" height="43.2422" rx="2.5" ry="2.5" style="stroke:#000000;stroke-width:0.5;" width="117" x="587.5" y="511.1211"/><text fill="#000000" font-family="sans-serif" font-size="14" font-style="italic" lengthAdjust="spacing" textLength="97" x="597.5" y="529.2285">&#171;Value Object&#187;</text><text fill="#000000" font-family="sans-serif" font-size="14" lengthAdjust="spacing" textLength="63" x="614.5" y="547.8496">UserEmail</text></g><!--entity UserName--><g id="elem_UserName"><rect fill="#F0FFDD" height="43.2422" rx="2.5" ry="2.5" style="stroke:#000000;stroke-width:0.5;" width="117" x="587.5" y="433.1211"/><text fill="#000000" font-family="sans-serif" font-size="14" font-style="italic" lengthAdjust="spacing" textLength="97" x="597.5" y="451.2285">&#171;Value Object&#187;</text><text fill="#000000" font-family="sans-serif" font-size="14" lengthAdjust="spacing" textLength="65" x="613.5" y="469.8496">UserName</text></g><!--entity UserPassword--><g id="elem_UserPassword"><rect fill="#F0FFDD" height="43.2422" rx="2.5" ry="2.5" style="stroke:#000000;stroke-width:0.5;" width="117" x="587.5" y="667.1211"/><text fill="#000000" font-family="sans-serif" font-size="14" font-style="italic" lengthAdjust="spacing" textLength="97" x="597.5" y="685.2285">&#171;Value Object&#187;</text><text fill="#000000" font-family="sans-serif" font-size="14" lengthAdjust="spacing" textLength="90" x="601" y="703.8496">UserPassword</text></g><!--entity UserTelephoneNumber--><g id="elem_UserTelephoneNumber"><rect fill="#F0FFDD" height="43.2422" rx="2.5" ry="2.5" style="stroke:#000000;stroke-width:0.5;" width="166" x="563" y="589.1211"/><text fill="#000000" font-family="sans-serif" font-size="14" font-style="italic" lengthAdjust="spacing" textLength="97" x="597.5" y="607.2285">&#171;Value Object&#187;</text><text fill="#000000" font-family="sans-serif" font-size="14" lengthAdjust="spacing" textLength="146" x="573" y="625.8496">UserTelephoneNumber</text></g><!--class InterviewModel--><g id="elem_InterviewModel"><rect codeLine="55" fill="#F0FFFF" height="68.543" id="InterviewModel" rx="2.5" ry="2.5" style="stroke:#000000;stroke-width:0.5;" width="125" x="347" y="286.1211"/><ellipse cx="362" cy="316.3926" fill="#ADD1B2" rx="11" ry="11" style="stroke:#181818;stroke-width:1.0;"/><path d="M360.8594,317.1895 L360.8594,319.6895 L365.1875,319.6895 L365.1875,318.7676 Q365.1875,318.1582 365.4219,317.8926 Q365.6719,317.627 366.0469,317.627 Q366.4219,317.627 366.6563,317.8926 Q366.8906,318.1582 366.8906,318.7676 L366.8906,321.3926 L358.8906,321.3926 Q358.2656,321.3926 358,321.1582 Q357.75,320.9238 357.75,320.5332 Q357.75,320.1582 358.0156,319.9238 Q358.2813,319.6895 358.8906,319.6895 L359.1563,319.6895 L359.1563,313.0332 L358.8906,313.0332 Q358.2656,313.0332 358,312.7988 Q357.75,312.5645 357.75,312.1738 Q357.75,311.7988 358,311.5645 Q358.2656,311.3301 358.8906,311.3301 L366.5156,311.3301 L366.5156,313.9238 Q366.5156,314.5332 366.2813,314.7988 Q366.0625,315.0488 365.6719,315.0488 Q365.2969,315.0488 365.0625,314.7988 Q364.8281,314.5332 364.8281,313.9238 L364.8281,313.0332 L360.8594,313.0332 L360.8594,315.4863 L362.3438,315.4863 Q362.3438,314.8301 362.4688,314.6426 Q362.7344,314.2363 363.2031,314.2363 Q363.5781,314.2363 363.8125,314.502 Q364.0469,314.752 364.0469,315.3613 L364.0469,317.3301 Q364.0469,317.877 363.9219,318.0645 Q363.6563,318.4551 363.2031,318.4551 Q362.7344,318.4551 362.4688,318.0488 Q362.3438,317.8613 362.3438,317.1895 L360.8594,317.1895 Z " fill="#000000"/><text fill="#000000" font-family="sans-serif" font-size="12" font-style="italic" lengthAdjust="spacing" textLength="43" x="401" y="304.0703">&#171;entity&#187;</text><text fill="#000000" font-family="sans-serif" font-size="12" font-style="italic" lengthAdjust="spacing" textLength="35" x="405" y="320.0313">&#171;root&#187;</text><text fill="#000000" font-family="sans-serif" font-size="14" lengthAdjust="spacing" textLength="93" x="376" y="338.1504">InterviewModel</text><line style="stroke:#000000;stroke-width:0.5;" x1="348" x2="471" y1="346.6641" y2="346.6641"/></g><!--entity Plugin--><g id="elem_Plugin"><rect fill="#F0FFDD" height="43.2422" rx="2.5" ry="2.5" style="stroke:#000000;stroke-width:0.5;" width="117" x="587.5" y="299.1211"/><text fill="#000000" font-family="sans-serif" font-size="14" font-style="italic" lengthAdjust="spacing" textLength="97" x="597.5" y="317.2285">&#171;Value Object&#187;</text><text fill="#000000" font-family="sans-serif" font-size="14" lengthAdjust="spacing" textLength="39" x="626.5" y="335.8496">Plugin</text></g><!--class LanguageEngineer--><g id="elem_LanguageEngineer"><rect codeLine="65" fill="#F0FFFF" height="68.543" id="LanguageEngineer" rx="2.5" ry="2.5" style="stroke:#000000;stroke-width:0.5;" width="153" x="45" y="286.1211"/><ellipse cx="60" cy="316.3926" fill="#ADD1B2" rx="11" ry="11" style="stroke:#181818;stroke-width:1.0;"/><path d="M58.8594,317.1895 L58.8594,319.6895 L63.1875,319.6895 L63.1875,318.7676 Q63.1875,318.1582 63.4219,317.8926 Q63.6719,317.627 64.0469,317.627 Q64.4219,317.627 64.6563,317.8926 Q64.8906,318.1582 64.8906,318.7676 L64.8906,321.3926 L56.8906,321.3926 Q56.2656,321.3926 56,321.1582 Q55.75,320.9238 55.75,320.5332 Q55.75,320.1582 56.0156,319.9238 Q56.2813,319.6895 56.8906,319.6895 L57.1563,319.6895 L57.1563,313.0332 L56.8906,313.0332 Q56.2656,313.0332 56,312.7988 Q55.75,312.5645 55.75,312.1738 Q55.75,311.7988 56,311.5645 Q56.2656,311.3301 56.8906,311.3301 L64.5156,311.3301 L64.5156,313.9238 Q64.5156,314.5332 64.2813,314.7988 Q64.0625,315.0488 63.6719,315.0488 Q63.2969,315.0488 63.0625,314.7988 Q62.8281,314.5332 62.8281,313.9238 L62.8281,313.0332 L58.8594,313.0332 L58.8594,315.4863 L60.3438,315.4863 Q60.3438,314.8301 60.4688,314.6426 Q60.7344,314.2363 61.2031,314.2363 Q61.5781,314.2363 61.8125,314.502 Q62.0469,314.752 62.0469,315.3613 L62.0469,317.3301 Q62.0469,317.877 61.9219,318.0645 Q61.6563,318.4551 61.2031,318.4551 Q60.7344,318.4551 60.4688,318.0488 Q60.3438,317.8613 60.3438,317.1895 L58.8594,317.1895 Z " fill="#000000"/><text fill="#000000" font-family="sans-serif" font-size="12" font-style="italic" lengthAdjust="spacing" textLength="43" x="113" y="304.0703">&#171;entity&#187;</text><text fill="#000000" font-family="sans-serif" font-size="12" font-style="italic" lengthAdjust="spacing" textLength="35" x="117" y="320.0313">&#171;root&#187;</text><text fill="#000000" font-family="sans-serif" font-size="14" lengthAdjust="spacing" textLength="121" x="74" y="338.1504">LanguageEngineer</text><line style="stroke:#000000;stroke-width:0.5;" x1="46" x2="197" y1="346.6641" y2="346.6641"/></g><!--class ANTLR--><g id="elem_ANTLR"><rect codeLine="69" fill="#F0FFFF" height="68.543" id="ANTLR" rx="2.5" ry="2.5" style="stroke:#000000;stroke-width:0.5;" width="77" x="83" y="84.1211"/><ellipse cx="98" cy="114.3926" fill="#ADD1B2" rx="11" ry="11" style="stroke:#181818;stroke-width:1.0;"/><path d="M96.8594,115.1895 L96.8594,117.6895 L101.1875,117.6895 L101.1875,116.7676 Q101.1875,116.1582 101.4219,115.8926 Q101.6719,115.627 102.0469,115.627 Q102.4219,115.627 102.6563,115.8926 Q102.8906,116.1582 102.8906,116.7676 L102.8906,119.3926 L94.8906,119.3926 Q94.2656,119.3926 94,119.1582 Q93.75,118.9238 93.75,118.5332 Q93.75,118.1582 94.0156,117.9238 Q94.2813,117.6895 94.8906,117.6895 L95.1563,117.6895 L95.1563,111.0332 L94.8906,111.0332 Q94.2656,111.0332 94,110.7988 Q93.75,110.5645 93.75,110.1738 Q93.75,109.7988 94,109.5645 Q94.2656,109.3301 94.8906,109.3301 L102.5156,109.3301 L102.5156,111.9238 Q102.5156,112.5332 102.2813,112.7988 Q102.0625,113.0488 101.6719,113.0488 Q101.2969,113.0488 101.0625,112.7988 Q100.8281,112.5332 100.8281,111.9238 L100.8281,111.0332 L96.8594,111.0332 L96.8594,113.4863 L98.3438,113.4863 Q98.3438,112.8301 98.4688,112.6426 Q98.7344,112.2363 99.2031,112.2363 Q99.5781,112.2363 99.8125,112.502 Q100.0469,112.752 100.0469,113.3613 L100.0469,115.3301 Q100.0469,115.877 99.9219,116.0645 Q99.6563,116.4551 99.2031,116.4551 Q98.7344,116.4551 98.4688,116.0488 Q98.3438,115.8613 98.3438,115.1895 L96.8594,115.1895 Z " fill="#000000"/><text fill="#000000" font-family="sans-serif" font-size="12" font-style="italic" lengthAdjust="spacing" textLength="43" x="113" y="102.0703">&#171;entity&#187;</text><text fill="#000000" font-family="sans-serif" font-size="12" font-style="italic" lengthAdjust="spacing" textLength="35" x="117" y="118.0313">&#171;root&#187;</text><text fill="#000000" font-family="sans-serif" font-size="14" lengthAdjust="spacing" textLength="45" x="112" y="136.1504">ANTLR</text><line style="stroke:#000000;stroke-width:0.5;" x1="84" x2="159" y1="144.6641" y2="144.6641"/></g><!--link JobRequirementsSpecification to Requirements--><g id="link_JobRequirementsSpecification_Requirements"><path codeLine="31" d="M757.23,156.6211 C778.23,156.6211 793.41,156.6211 811.93,156.6211 " fill="none" id="JobRequirementsSpecification-to-Requirements" style="stroke:#808080;stroke-width:1.0;"/><polygon fill="#808080" points="817.93,156.6211,808.93,152.6211,812.93,156.6211,808.93,160.6211,817.93,156.6211" style="stroke:#808080;stroke-width:1.0;"/></g><!--link User to UserEmail--><g id="link_User_UserEmail"><path codeLine="47" d="M445.1,532.6211 C482.43,532.6211 536.5,532.6211 581.06,532.6211 " fill="none" id="User-to-UserEmail" style="stroke:#808080;stroke-width:1.0;"/><polygon fill="#808080" points="587.06,532.6211,578.06,528.6211,582.06,532.6211,578.06,536.6211,587.06,532.6211" style="stroke:#808080;stroke-width:1.0;"/></g><!--link User to UserName--><g id="link_User_UserName"><path codeLine="48" d="M445.11,518.3311 C464.36,510.6011 488.84,501.1311 511,493.6211 C535.78,485.2211 557.7276,478.6079 581.4976,471.8679 " fill="none" id="User-to-UserName" style="stroke:#808080;stroke-width:1.0;"/><polygon fill="#808080" points="587.27,470.2311,577.5202,468.838,582.4596,471.5951,579.7025,476.5345,587.27,470.2311" style="stroke:#808080;stroke-width:1.0;"/></g><!--link User to UserTelephoneNumber--><g id="link_User_UserTelephoneNumber"><path codeLine="49" d="M445.11,546.9111 C464.36,554.6411 488.84,564.1111 511,571.6211 C528.9,577.6811 542.5736,581.9789 560.9436,587.3789 " fill="none" id="User-to-UserTelephoneNumber" style="stroke:#808080;stroke-width:1.0;"/><polygon fill="#808080" points="566.7,589.0711,559.1934,582.6952,561.903,587.661,556.9372,590.3705,566.7,589.0711" style="stroke:#808080;stroke-width:1.0;"/></g><!--link User to UserPassword--><g id="link_User_UserPassword"><path codeLine="50" d="M432.01,567.1411 C450.07,593.3711 478.13,628.4511 511,649.6211 C533.92,664.3811 556.7267,672.3388 581.6467,678.1488 " fill="none" id="User-to-UserPassword" style="stroke:#808080;stroke-width:1.0;"/><polygon fill="#808080" points="587.49,679.5111,579.6333,673.5721,582.6206,678.3758,577.8168,681.3631,587.49,679.5111" style="stroke:#808080;stroke-width:1.0;"/></g><!--link InterviewModel to Plugin--><g id="link_InterviewModel_Plugin"><path codeLine="60" d="M472.11,320.6211 C507.8,320.6211 546.44,320.6211 581.42,320.6211 " fill="none" id="InterviewModel-to-Plugin" style="stroke:#808080;stroke-width:1.0;"/><polygon fill="#808080" points="587.42,320.6211,578.42,316.6211,582.42,320.6211,578.42,324.6211,587.42,320.6211" style="stroke:#808080;stroke-width:1.0;"/></g><!--link ANTLR to JobRequirementsSpecification--><g id="link_ANTLR_JobRequirementsSpecification"><path codeLine="73" d="M160.08,121.3511 C237.47,126.9811 411.2558,139.6259 528.8258,148.1759 " fill="none" id="ANTLR-to-JobRequirementsSpecification" style="stroke:#808080;stroke-width:1.0;"/><polygon fill="#808080" points="534.81,148.6111,526.1238,143.9688,529.8232,148.2484,525.5436,151.9478,534.81,148.6111" style="stroke:#808080;stroke-width:1.0;"/><text fill="#000000" font-family="sans-serif" font-size="13" lengthAdjust="spacing" textLength="60" x="379.5" y="128.6494">processes</text></g><!--link ANTLR to InterviewModel--><g id="link_ANTLR_InterviewModel"><path codeLine="74" d="M160.18,145.2411 C211.38,181.3911 298.0792,242.6296 354.5692,282.5296 " fill="none" id="ANTLR-to-InterviewModel" style="stroke:#808080;stroke-width:1.0;"/><polygon fill="#808080" points="359.47,285.9911,354.4265,277.5316,355.386,283.1065,349.8111,284.066,359.47,285.9911" style="stroke:#808080;stroke-width:1.0;"/><text fill="#000000" font-family="sans-serif" font-size="13" lengthAdjust="spacing" textLength="60" x="254" y="208.6494">processes</text></g><!--link LanguageEngineer to User--><g id="link_LanguageEngineer_User"><path codeLine="76" d="M169.09,355.1511 C226.39,397.6311 317.5201,465.1778 368.8301,503.2178 " fill="none" id="LanguageEngineer-to-User" style="stroke:#808080;stroke-width:1.0;"/><polygon fill="#808080" points="373.65,506.7911,368.8024,498.2178,369.6334,503.8133,364.038,504.6443,373.65,506.7911" style="stroke:#808080;stroke-width:1.0;"/></g><!--link LanguageEngineer to JobRequirementsSpecification--><g id="link_LanguageEngineer_JobRequirementsSpecification"><path codeLine="77" d="M198.2,296.8611 C286.58,269.1211 427.7954,224.7979 528.8854,193.0679 " fill="none" id="LanguageEngineer-to-JobRequirementsSpecification" style="stroke:#808080;stroke-width:1.0;"/><polygon fill="#808080" points="534.61,191.2711,524.8252,190.1499,529.8395,192.7685,527.221,197.7828,534.61,191.2711" style="stroke:#808080;stroke-width:1.0;"/><text fill="#000000" font-family="sans-serif" font-size="13" lengthAdjust="spacing" textLength="43" x="388" y="206.6494">creates</text><text fill="#000000" font-family="sans-serif" font-size="13" lengthAdjust="spacing" textLength="7" x="206.0947" y="309.4241">1</text><text fill="#000000" font-family="sans-serif" font-size="13" lengthAdjust="spacing" textLength="9" x="517.8236" y="208.2237">N</text></g><!--link LanguageEngineer to InterviewModel--><g id="link_LanguageEngineer_InterviewModel"><path codeLine="78" d="M198.02,320.6211 C244.36,320.6211 296.96,320.6211 340.56,320.6211 " fill="none" id="LanguageEngineer-to-InterviewModel" style="stroke:#808080;stroke-width:1.0;"/><polygon fill="#808080" points="346.56,320.6211,337.56,316.6211,341.56,320.6211,337.56,324.6211,346.56,320.6211" style="stroke:#808080;stroke-width:1.0;"/><text fill="#000000" font-family="sans-serif" font-size="13" lengthAdjust="spacing" textLength="43" x="262.5" y="316.6494">creates</text><text fill="#000000" font-family="sans-serif" font-size="13" lengthAdjust="spacing" textLength="7" x="205.897" y="335.523">1</text><text fill="#000000" font-family="sans-serif" font-size="13" lengthAdjust="spacing" textLength="9" x="330.1838" y="335.62">N</text></g><!--SRC=[fLDDRzim3BthLn3kOQS0wQqO30DEqnOPF3TeijqLct6qo98doGk2elzzaXsd_ffROBhO81yVtoEb0qiHSZG7cMh2SM_0I50iEnX8cSB4C2d85traeg2Avi2PG7Ck4AIoDOHicU48tbBcb0duBbFaC8FR-VpE8-IzBE5KQtWbO4_4zXXPceLKAQfxoQM29LN71I-n2w39CLEo56aD2jVhQ7KVRbVFSONhvsyUvu_sLBbGANcgmvd2SurlDTnnMqpUsXeB6w4PRipPEdBMgSWuTbnGbKwOU5A8ulyTB9Tz1suwJsCk5esBYtRmliaTlE3lqkukHs4qR0fCs9ubr6qIminE8wC6lLTYqyoSmLQq2xfutwzHGU3xIaeJ1AGIKKsYqyVtVrAxG7ZU_RAZ2u9wJ6yrVBB7R1Pqg4Z7q0-DQans5P-Kvn0FzbhoWJPen7MmCStnaz2rlSqdkuTFmhV8iJX8WN6PxohP_wYgFfKpDvIhWM7OQHr6Uts6W4PtTyGhOL3zONYwlD-HQLyXDM9oxcjUPanyOB97w0JMTLrfaNs3fVjx43Q7urUX0Lqn8_BQf66yZLvWu_eds25qoYwaDSeRjMh9QewPqprvkRz2eMI2MgE-rWHzzsqG6RXfbZVCUBTUbVLYxoCLYK9hKKzp36GrLNy1]--></g></svg>