<?xml version="1.0" encoding="us-ascii" standalone="no"?><svg xmlns="http://www.w3.org/2000/svg" xmlns:xlink="http://www.w3.org/1999/xlink" contentStyleType="text/css" height="864px" preserveAspectRatio="none" style="width:586px;height:864px;background:#FFFFFF;" version="1.1" viewBox="0 0 586 864" width="586px" zoomAndPan="magnify"><defs/><g><text fill="#000000" font-family="sans-serif" font-size="14" font-weight="bold" lengthAdjust="spacing" textLength="273" x="157.75" y="30.1074">System Sequence Diagram (SSD) - 1008</text><rect fill="#FFFFFF" height="638.7422" style="stroke:#181818;stroke-width:1.0;" width="10" x="90.5" y="133.2422"/><rect fill="#FFFFFF" height="48.582" style="stroke:#181818;stroke-width:1.0;" width="10" x="520.5" y="156.5332"/><rect fill="#FFFFFF" height="57.582" style="stroke:#181818;stroke-width:1.0;" width="10" x="520.5" y="236.4063"/><rect fill="#FFFFFF" height="57.582" style="stroke:#181818;stroke-width:1.0;" width="10" x="520.5" y="325.2793"/><rect fill="#FFFFFF" height="38.291" style="stroke:#181818;stroke-width:1.0;" width="10" x="520.5" y="414.1523"/><rect fill="#FFFFFF" height="122.7949" style="stroke:#181818;stroke-width:1.0;" width="10" x="520.5" y="483.7344"/><rect fill="#FFFFFF" height="38.291" style="stroke:#181818;stroke-width:1.0;" width="10" x="520.5" y="637.8203"/><rect fill="#FFFFFF" height="48.582" style="stroke:#181818;stroke-width:1.0;" width="10" x="520.5" y="707.4023"/><rect fill="none" height="512.5781" style="stroke:#000000;stroke-width:1.5;" width="569.5" x="10" y="251.4063"/><rect fill="none" height="81.873" style="stroke:#000000;stroke-width:1.5;" width="549.5" x="20" y="340.2793"/><rect fill="none" height="81.873" style="stroke:#000000;stroke-width:1.5;" width="549.5" x="20" y="563.9473"/><line style="stroke:#181818;stroke-width:0.5;stroke-dasharray:5.0,5.0;" x1="95" x2="95" y1="123.2422" y2="780.9844"/><line style="stroke:#181818;stroke-width:0.5;stroke-dasharray:5.0,5.0;" x1="525.5" x2="525.5" y1="123.2422" y2="780.9844"/><text fill="#000000" font-family="sans-serif" font-size="14" lengthAdjust="spacing" textLength="125" x="30" y="119.7285">Language Engineer</text><ellipse cx="95.5" cy="53.1211" fill="#E3E3E3" rx="8" ry="8" style="stroke:#181818;stroke-width:0.5;"/><path d="M95.5,61.1211 L95.5,88.1211 M82.5,69.1211 L108.5,69.1211 M95.5,88.1211 L82.5,103.1211 M95.5,88.1211 L108.5,103.1211 " fill="none" style="stroke:#181818;stroke-width:0.5;"/><text fill="#000000" font-family="sans-serif" font-size="14" lengthAdjust="spacing" textLength="125" x="30" y="795.0918">Language Engineer</text><ellipse cx="95.5" cy="807.1055" fill="#E3E3E3" rx="8" ry="8" style="stroke:#181818;stroke-width:0.5;"/><path d="M95.5,815.1055 L95.5,842.1055 M82.5,823.1055 L108.5,823.1055 M95.5,842.1055 L82.5,857.1055 M95.5,842.1055 L108.5,857.1055 " fill="none" style="stroke:#181818;stroke-width:0.5;"/><rect fill="#E3E3E3" height="32.6211" rx="2.5" ry="2.5" style="stroke:#181818;stroke-width:0.5;" width="68" x="491.5" y="89.6211"/><text fill="#000000" font-family="sans-serif" font-size="14" lengthAdjust="spacing" textLength="54" x="498.5" y="111.7285">: System</text><rect fill="#E3E3E3" height="32.6211" rx="2.5" ry="2.5" style="stroke:#181818;stroke-width:0.5;" width="68" x="491.5" y="779.9844"/><text fill="#000000" font-family="sans-serif" font-size="14" lengthAdjust="spacing" textLength="54" x="498.5" y="802.0918">: System</text><rect fill="#FFFFFF" height="638.7422" style="stroke:#181818;stroke-width:1.0;" width="10" x="90.5" y="133.2422"/><rect fill="#FFFFFF" height="48.582" style="stroke:#181818;stroke-width:1.0;" width="10" x="520.5" y="156.5332"/><rect fill="#FFFFFF" height="57.582" style="stroke:#181818;stroke-width:1.0;" width="10" x="520.5" y="236.4063"/><rect fill="#FFFFFF" height="57.582" style="stroke:#181818;stroke-width:1.0;" width="10" x="520.5" y="325.2793"/><rect fill="#FFFFFF" height="38.291" style="stroke:#181818;stroke-width:1.0;" width="10" x="520.5" y="414.1523"/><rect fill="#FFFFFF" height="122.7949" style="stroke:#181818;stroke-width:1.0;" width="10" x="520.5" y="483.7344"/><rect fill="#FFFFFF" height="38.291" style="stroke:#181818;stroke-width:1.0;" width="10" x="520.5" y="637.8203"/><rect fill="#FFFFFF" height="48.582" style="stroke:#181818;stroke-width:1.0;" width="10" x="520.5" y="707.4023"/><polygon fill="#181818" points="508.5,152.5332,518.5,156.5332,508.5,160.5332,512.5,156.5332" style="stroke:#181818;stroke-width:1.0;"/><line style="stroke:#181818;stroke-width:1.0;" x1="100.5" x2="514.5" y1="156.5332" y2="156.5332"/><text fill="#000000" font-family="sans-serif" font-size="13" font-weight="bold" lengthAdjust="spacing" textLength="7" x="107.5" y="151.2705">1</text><text fill="#000000" font-family="sans-serif" font-size="13" lengthAdjust="spacing" textLength="215" x="118.5" y="151.2705">asks to deploy and configure a plugin</text><polygon fill="#181818" points="111.5,201.1152,101.5,205.1152,111.5,209.1152,107.5,205.1152" style="stroke:#181818;stroke-width:1.0;"/><line style="stroke:#181818;stroke-width:1.0;stroke-dasharray:2.0,2.0;" x1="105.5" x2="524.5" y1="205.1152" y2="205.1152"/><text fill="#000000" font-family="sans-serif" font-size="13" font-weight="bold" lengthAdjust="spacing" textLength="7" x="117.5" y="191.207">2</text><text fill="#000000" font-family="sans-serif" font-size="13" lengthAdjust="spacing" textLength="160" x="128.5" y="182.5615">asks if it's a plugin for a Job</text><text fill="#000000" font-family="sans-serif" font-size="13" lengthAdjust="spacing" textLength="294" x="132.5" y="199.8525">Requirement Specification or for an Interview Model</text><polygon fill="#181818" points="508.5,232.4063,518.5,236.4063,508.5,240.4063,512.5,236.4063" style="stroke:#181818;stroke-width:1.0;"/><line style="stroke:#181818;stroke-width:1.0;" x1="100.5" x2="514.5" y1="236.4063" y2="236.4063"/><text fill="#000000" font-family="sans-serif" font-size="13" font-weight="bold" lengthAdjust="spacing" textLength="7" x="107.5" y="231.1436">3</text><text fill="#000000" font-family="sans-serif" font-size="13" lengthAdjust="spacing" textLength="113" x="118.5" y="231.1436">submits the answer</text><path d="M10,251.4063 L71,251.4063 L71,260.6973 L61,270.6973 L10,270.6973 L10,251.4063 " fill="#EEEEEE" style="stroke:#000000;stroke-width:1.5;"/><rect fill="none" height="512.5781" style="stroke:#000000;stroke-width:1.5;" width="569.5" x="10" y="251.4063"/><text fill="#000000" font-family="sans-serif" font-size="13" font-weight="bold" lengthAdjust="spacing" textLength="16" x="25" y="266.4346">alt</text><text fill="#000000" font-family="sans-serif" font-size="11" font-weight="bold" lengthAdjust="spacing" textLength="241" x="86" y="265.2764">[Plugin for a Job Requirement Specification]</text><polygon fill="#181818" points="111.5,289.9883,101.5,293.9883,111.5,297.9883,107.5,293.9883" style="stroke:#181818;stroke-width:1.0;"/><line style="stroke:#181818;stroke-width:1.0;stroke-dasharray:2.0,2.0;" x1="105.5" x2="524.5" y1="293.9883" y2="293.9883"/><text fill="#000000" font-family="sans-serif" font-size="13" font-weight="bold" lengthAdjust="spacing" textLength="7" x="117.5" y="288.7256">4</text><text fill="#000000" font-family="sans-serif" font-size="13" lengthAdjust="spacing" textLength="220" x="128.5" y="288.7256">asks for the name to give to the plugin</text><polygon fill="#181818" points="508.5,321.2793,518.5,325.2793,508.5,329.2793,512.5,325.2793" style="stroke:#181818;stroke-width:1.0;"/><line style="stroke:#181818;stroke-width:1.0;" x1="100.5" x2="514.5" y1="325.2793" y2="325.2793"/><text fill="#000000" font-family="sans-serif" font-size="13" font-weight="bold" lengthAdjust="spacing" textLength="7" x="107.5" y="320.0166">5</text><text fill="#000000" font-family="sans-serif" font-size="13" lengthAdjust="spacing" textLength="151" x="118.5" y="320.0166">submits the plugin's name</text><path d="M20,340.2793 L93,340.2793 L93,349.5703 L83,359.5703 L20,359.5703 L20,340.2793 " fill="#EEEEEE" style="stroke:#000000;stroke-width:1.5;"/><rect fill="none" height="81.873" style="stroke:#000000;stroke-width:1.5;" width="549.5" x="20" y="340.2793"/><text fill="#000000" font-family="sans-serif" font-size="13" font-weight="bold" lengthAdjust="spacing" textLength="28" x="35" y="355.3076">loop</text><text fill="#000000" font-family="sans-serif" font-size="11" font-weight="bold" lengthAdjust="spacing" textLength="359" x="108" y="354.1494">[while the Language Engineer submits requirements to be used]</text><polygon fill="#181818" points="111.5,378.8613,101.5,382.8613,111.5,386.8613,107.5,382.8613" style="stroke:#181818;stroke-width:1.0;"/><line style="stroke:#181818;stroke-width:1.0;stroke-dasharray:2.0,2.0;" x1="105.5" x2="524.5" y1="382.8613" y2="382.8613"/><text fill="#000000" font-family="sans-serif" font-size="13" font-weight="bold" lengthAdjust="spacing" textLength="7" x="117.5" y="377.5986">6</text><text fill="#000000" font-family="sans-serif" font-size="13" lengthAdjust="spacing" textLength="197" x="128.5" y="377.5986">asks for requirements to be added</text><polygon fill="#181818" points="508.5,410.1523,518.5,414.1523,508.5,418.1523,512.5,414.1523" style="stroke:#181818;stroke-width:1.0;"/><line style="stroke:#181818;stroke-width:1.0;" x1="100.5" x2="514.5" y1="414.1523" y2="414.1523"/><text fill="#000000" font-family="sans-serif" font-size="13" font-weight="bold" lengthAdjust="spacing" textLength="7" x="107.5" y="408.8896">7</text><text fill="#000000" font-family="sans-serif" font-size="13" lengthAdjust="spacing" textLength="125" x="118.5" y="408.8896">submits requirements</text><polygon fill="#181818" points="111.5,448.4434,101.5,452.4434,111.5,456.4434,107.5,452.4434" style="stroke:#181818;stroke-width:1.0;"/><line style="stroke:#181818;stroke-width:1.0;stroke-dasharray:2.0,2.0;" x1="105.5" x2="524.5" y1="452.4434" y2="452.4434"/><text fill="#000000" font-family="sans-serif" font-size="13" font-weight="bold" lengthAdjust="spacing" textLength="7" x="117.5" y="447.1807">8</text><text fill="#000000" font-family="sans-serif" font-size="13" lengthAdjust="spacing" textLength="315" x="128.5" y="447.1807">displays all the data inserted and asks for confirmation</text><polygon fill="#181818" points="508.5,479.7344,518.5,483.7344,508.5,487.7344,512.5,483.7344" style="stroke:#181818;stroke-width:1.0;"/><line style="stroke:#181818;stroke-width:1.0;" x1="100.5" x2="514.5" y1="483.7344" y2="483.7344"/><text fill="#000000" font-family="sans-serif" font-size="13" font-weight="bold" lengthAdjust="spacing" textLength="7" x="107.5" y="478.4717">9</text><text fill="#000000" font-family="sans-serif" font-size="13" lengthAdjust="spacing" textLength="117" x="118.5" y="478.4717">confirms all the data</text><polygon fill="#181818" points="111.5,528.3164,101.5,532.3164,111.5,536.3164,107.5,532.3164" style="stroke:#181818;stroke-width:1.0;"/><line style="stroke:#181818;stroke-width:1.0;stroke-dasharray:2.0,2.0;" x1="105.5" x2="519.5" y1="532.3164" y2="532.3164"/><text fill="#000000" font-family="sans-serif" font-size="13" font-weight="bold" lengthAdjust="spacing" textLength="14" x="117.5" y="518.4082">10</text><text fill="#000000" font-family="sans-serif" font-size="13" lengthAdjust="spacing" textLength="340" x="135.5" y="509.7627">generates the template text file with the requirements to be</text><text fill="#000000" font-family="sans-serif" font-size="13" lengthAdjust="spacing" textLength="327" x="135.5" y="527.0537">evaluated and the possible answers for each requirement</text><line style="stroke:#000000;stroke-width:1.0;stroke-dasharray:2.0,2.0;" x1="10" x2="579.5" y1="541.3164" y2="541.3164"/><text fill="#000000" font-family="sans-serif" font-size="11" font-weight="bold" lengthAdjust="spacing" textLength="169" x="15" y="553.1865">[Plugin for an Interview Model]</text><path d="M20,563.9473 L93,563.9473 L93,573.2383 L83,583.2383 L20,583.2383 L20,563.9473 " fill="#EEEEEE" style="stroke:#000000;stroke-width:1.5;"/><rect fill="none" height="81.873" style="stroke:#000000;stroke-width:1.5;" width="549.5" x="20" y="563.9473"/><text fill="#000000" font-family="sans-serif" font-size="13" font-weight="bold" lengthAdjust="spacing" textLength="28" x="35" y="578.9756">loop</text><text fill="#000000" font-family="sans-serif" font-size="11" font-weight="bold" lengthAdjust="spacing" textLength="338" x="108" y="577.8174">[while the Language Engineer submits questions to be used]</text><polygon fill="#181818" points="111.5,602.5293,101.5,606.5293,111.5,610.5293,107.5,606.5293" style="stroke:#181818;stroke-width:1.0;"/><line style="stroke:#181818;stroke-width:1.0;stroke-dasharray:2.0,2.0;" x1="105.5" x2="524.5" y1="606.5293" y2="606.5293"/><text fill="#000000" font-family="sans-serif" font-size="13" font-weight="bold" lengthAdjust="spacing" textLength="14" x="117.5" y="601.2666">11</text><text fill="#000000" font-family="sans-serif" font-size="13" lengthAdjust="spacing" textLength="200" x="135.5" y="601.2666">asks for the questions to be added</text><polygon fill="#181818" points="508.5,633.8203,518.5,637.8203,508.5,641.8203,512.5,637.8203" style="stroke:#181818;stroke-width:1.0;"/><line style="stroke:#181818;stroke-width:1.0;" x1="100.5" x2="514.5" y1="637.8203" y2="637.8203"/><text fill="#000000" font-family="sans-serif" font-size="13" font-weight="bold" lengthAdjust="spacing" textLength="14" x="107.5" y="632.5576">12</text><text fill="#000000" font-family="sans-serif" font-size="13" lengthAdjust="spacing" textLength="106" x="125.5" y="632.5576">submits questions</text><polygon fill="#181818" points="111.5,672.1113,101.5,676.1113,111.5,680.1113,107.5,676.1113" style="stroke:#181818;stroke-width:1.0;"/><line style="stroke:#181818;stroke-width:1.0;stroke-dasharray:2.0,2.0;" x1="105.5" x2="524.5" y1="676.1113" y2="676.1113"/><text fill="#000000" font-family="sans-serif" font-size="13" font-weight="bold" lengthAdjust="spacing" textLength="14" x="117.5" y="670.8486">13</text><text fill="#000000" font-family="sans-serif" font-size="13" lengthAdjust="spacing" textLength="315" x="135.5" y="670.8486">displays all the data inserted and asks for confirmation</text><polygon fill="#181818" points="508.5,703.4023,518.5,707.4023,508.5,711.4023,512.5,707.4023" style="stroke:#181818;stroke-width:1.0;"/><line style="stroke:#181818;stroke-width:1.0;" x1="100.5" x2="514.5" y1="707.4023" y2="707.4023"/><text fill="#000000" font-family="sans-serif" font-size="13" font-weight="bold" lengthAdjust="spacing" textLength="14" x="107.5" y="702.1396">14</text><text fill="#000000" font-family="sans-serif" font-size="13" lengthAdjust="spacing" textLength="117" x="125.5" y="702.1396">confirms all the data</text><polygon fill="#181818" points="111.5,751.9844,101.5,755.9844,111.5,759.9844,107.5,755.9844" style="stroke:#181818;stroke-width:1.0;"/><line style="stroke:#181818;stroke-width:1.0;stroke-dasharray:2.0,2.0;" x1="105.5" x2="524.5" y1="755.9844" y2="755.9844"/><text fill="#000000" font-family="sans-serif" font-size="13" font-weight="bold" lengthAdjust="spacing" textLength="14" x="117.5" y="742.0762">15</text><text fill="#000000" font-family="sans-serif" font-size="13" lengthAdjust="spacing" textLength="321" x="135.5" y="733.4307">generates the template text file with the questions to be</text><text fill="#000000" font-family="sans-serif" font-size="13" lengthAdjust="spacing" textLength="378" x="135.5" y="750.7217">asked in the interview and the possible answers for each question</text><!--SRC=[hLInZjim3Dtz5KIMjaE0wrRSqEaoj4Y1ebwpC3Pj4v4bLwAJvkzBoOwRoyLtoQ5UB9ZautlaiyAEROSUMsYTTKNZNKiWlgSiJ94EYntMbClH47Wg16rjpXD2WwKxiAsXGXCeouH5K_DZ46eXfzyzsOBWYR6EwH_p_EaJBE7pmyENBCDUdEtRBNaz5-8yBDRQeDUEiB8rMoA_00omNcNQJhZW3gt0ud5ia8B3CI7m7eLYTWRwh5Um_7gYygYfkm3YeAJEk2EWBQ5mjkAwzmG8dUcrOogSa4xGC3uZrb9XrwiHaIjW-H0c1AXK1y9tjzrO-AK3O4yjAUkyeu8hBb3OMT2ab6ZXcnNoUwO3_70bcTIifAiSBXI5VjkogAX61TXmq3dEqaSZyFE2u3ozroL7WDZJOdICWvhtwHs_dOtnVX53iGup8izhCSvrS6XOZHQhNdXcmlJ_zANLRmdwGENRwguKObbgvVswpg7c9P6wCSgQfLPow0mUrMV69DKb2WBRG5weJ6wUs2TR-tROvEsCnxBdBUxw8Mgov3LlsAP6bBB4mn-1AgxhmDAas9K1RopjqVHuafCCuKBWhJdPUv2dOffpW762UlqyS_ZBFskWVRDxzEuASOJtMITYNbQ-rpiJJdPr3N3TEV_LEdECRpVFZ7lURPtBuMwiibSTklSOvcdfRvle19MzAbKddFq5]--></g></svg>