<?xml version="1.0" encoding="UTF-8" standalone="no"?><svg xmlns="http://www.w3.org/2000/svg" xmlns:xlink="http://www.w3.org/1999/xlink" contentStyleType="text/css" height="482px" preserveAspectRatio="none" style="width:569px;height:482px;background:#FFFFFF;" version="1.1" viewBox="0 0 569 482" width="569px" zoomAndPan="magnify"><defs/><g><text fill="#000000" font-family="sans-serif" font-size="14" font-weight="bold" lengthAdjust="spacing" textLength="351" x="108.25" y="29.5332">System Sequence Diagram (SSD) - Alternative One</text><rect fill="#FFFFFF" height="260.1641" style="stroke:#181818;stroke-width:1.0;" width="10" x="63.5" y="131.2188"/><rect fill="#FFFFFF" height="46.7031" style="stroke:#181818;stroke-width:1.0;" width="10" x="524.5" y="153.5703"/><rect fill="#FFFFFF" height="30.3516" style="stroke:#181818;stroke-width:1.0;" width="10" x="524.5" y="230.625"/><rect fill="#FFFFFF" height="30.3516" style="stroke:#181818;stroke-width:1.0;" width="10" x="524.5" y="291.3281"/><rect fill="#FFFFFF" height="30.3516" style="stroke:#181818;stroke-width:1.0;" width="10" x="524.5" y="352.0313"/><line style="stroke:#181818;stroke-width:0.5;stroke-dasharray:5.0,5.0;" x1="68" x2="68" y1="121.2188" y2="400.3828"/><line style="stroke:#181818;stroke-width:0.5;stroke-dasharray:5.0,5.0;" x1="529.5" x2="529.5" y1="121.2188" y2="400.3828"/><text fill="#000000" font-family="sans-serif" font-size="14" lengthAdjust="spacing" textLength="121" x="5" y="118.1426">Customer Manager</text><ellipse cx="68.5" cy="52.1094" fill="#E3E3E3" rx="8" ry="8" style="stroke:#181818;stroke-width:0.5;"/><path d="M68.5,60.1094 L68.5,87.1094 M55.5,68.1094 L81.5,68.1094 M68.5,87.1094 L55.5,102.1094 M68.5,87.1094 L81.5,102.1094 " fill="none" style="stroke:#181818;stroke-width:0.5;"/><text fill="#000000" font-family="sans-serif" font-size="14" lengthAdjust="spacing" textLength="121" x="5" y="413.916">Customer Manager</text><ellipse cx="68.5" cy="425.4922" fill="#E3E3E3" rx="8" ry="8" style="stroke:#181818;stroke-width:0.5;"/><path d="M68.5,433.4922 L68.5,460.4922 M55.5,441.4922 L81.5,441.4922 M68.5,460.4922 L55.5,475.4922 M68.5,460.4922 L81.5,475.4922 " fill="none" style="stroke:#181818;stroke-width:0.5;"/><rect fill="#E3E3E3" height="31.6094" rx="2.5" ry="2.5" style="stroke:#181818;stroke-width:0.5;" width="68" x="495.5" y="88.6094"/><text fill="#000000" font-family="sans-serif" font-size="14" lengthAdjust="spacing" textLength="54" x="502.5" y="110.1426">: System</text><rect fill="#E3E3E3" height="31.6094" rx="2.5" ry="2.5" style="stroke:#181818;stroke-width:0.5;" width="68" x="495.5" y="399.3828"/><text fill="#000000" font-family="sans-serif" font-size="14" lengthAdjust="spacing" textLength="54" x="502.5" y="420.916">: System</text><rect fill="#FFFFFF" height="260.1641" style="stroke:#181818;stroke-width:1.0;" width="10" x="63.5" y="131.2188"/><rect fill="#FFFFFF" height="46.7031" style="stroke:#181818;stroke-width:1.0;" width="10" x="524.5" y="153.5703"/><rect fill="#FFFFFF" height="30.3516" style="stroke:#181818;stroke-width:1.0;" width="10" x="524.5" y="230.625"/><rect fill="#FFFFFF" height="30.3516" style="stroke:#181818;stroke-width:1.0;" width="10" x="524.5" y="291.3281"/><rect fill="#FFFFFF" height="30.3516" style="stroke:#181818;stroke-width:1.0;" width="10" x="524.5" y="352.0313"/><polygon fill="#181818" points="512.5,149.5703,522.5,153.5703,512.5,157.5703,516.5,153.5703" style="stroke:#181818;stroke-width:1.0;"/><line style="stroke:#181818;stroke-width:1.0;" x1="73.5" x2="518.5" y1="153.5703" y2="153.5703"/><text fill="#000000" font-family="sans-serif" font-size="13" font-weight="bold" lengthAdjust="spacing" textLength="7" x="80.5" y="148.7139">1</text><text fill="#000000" font-family="sans-serif" font-size="13" lengthAdjust="spacing" textLength="204" x="91.5" y="148.7139">asks to register a new Job Opening</text><polygon fill="#181818" points="84.5,196.2734,74.5,200.2734,84.5,204.2734,80.5,200.2734" style="stroke:#181818;stroke-width:1.0;"/><line style="stroke:#181818;stroke-width:1.0;stroke-dasharray:2.0,2.0;" x1="78.5" x2="528.5" y1="200.2734" y2="200.2734"/><text fill="#000000" font-family="sans-serif" font-size="13" font-weight="bold" lengthAdjust="spacing" textLength="7" x="90.5" y="187.2412">2</text><text fill="#000000" font-family="sans-serif" font-size="13" lengthAdjust="spacing" textLength="416" x="101.5" y="179.0654">requests job opening details (Description, VacanciesNumber, Company,</text><text fill="#000000" font-family="sans-serif" font-size="13" lengthAdjust="spacing" textLength="359" x="105.5" y="195.417">Address, Mode, ContractType, TitleOrFunction, JobReference)</text><polygon fill="#181818" points="512.5,226.625,522.5,230.625,512.5,234.625,516.5,230.625" style="stroke:#181818;stroke-width:1.0;"/><line style="stroke:#181818;stroke-width:1.0;" x1="73.5" x2="518.5" y1="230.625" y2="230.625"/><text fill="#000000" font-family="sans-serif" font-size="13" font-weight="bold" lengthAdjust="spacing" textLength="7" x="80.5" y="225.7686">3</text><text fill="#000000" font-family="sans-serif" font-size="13" lengthAdjust="spacing" textLength="164" x="91.5" y="225.7686">submits Job Opening details</text><polygon fill="#181818" points="84.5,256.9766,74.5,260.9766,84.5,264.9766,80.5,260.9766" style="stroke:#181818;stroke-width:1.0;"/><line style="stroke:#181818;stroke-width:1.0;stroke-dasharray:2.0,2.0;" x1="78.5" x2="528.5" y1="260.9766" y2="260.9766"/><text fill="#000000" font-family="sans-serif" font-size="13" font-weight="bold" lengthAdjust="spacing" textLength="7" x="90.5" y="256.1201">4</text><text fill="#000000" font-family="sans-serif" font-size="13" lengthAdjust="spacing" textLength="350" x="101.5" y="256.1201">requests list of requirements (JobRequirementsSpecification)</text><polygon fill="#181818" points="512.5,287.3281,522.5,291.3281,512.5,295.3281,516.5,291.3281" style="stroke:#181818;stroke-width:1.0;"/><line style="stroke:#181818;stroke-width:1.0;" x1="73.5" x2="518.5" y1="291.3281" y2="291.3281"/><text fill="#000000" font-family="sans-serif" font-size="13" font-weight="bold" lengthAdjust="spacing" textLength="7" x="80.5" y="286.4717">5</text><text fill="#000000" font-family="sans-serif" font-size="13" lengthAdjust="spacing" textLength="224" x="91.5" y="286.4717">submits JobRequirementsSpecification</text><polygon fill="#181818" points="84.5,317.6797,74.5,321.6797,84.5,325.6797,80.5,321.6797" style="stroke:#181818;stroke-width:1.0;"/><line style="stroke:#181818;stroke-width:1.0;stroke-dasharray:2.0,2.0;" x1="78.5" x2="528.5" y1="321.6797" y2="321.6797"/><text fill="#000000" font-family="sans-serif" font-size="13" font-weight="bold" lengthAdjust="spacing" textLength="7" x="90.5" y="316.8232">6</text><text fill="#000000" font-family="sans-serif" font-size="13" lengthAdjust="spacing" textLength="398" x="101.5" y="316.8232">shows all details for the new job opening request and asks to confirm</text><polygon fill="#181818" points="512.5,348.0313,522.5,352.0313,512.5,356.0313,516.5,352.0313" style="stroke:#181818;stroke-width:1.0;"/><line style="stroke:#181818;stroke-width:1.0;" x1="73.5" x2="518.5" y1="352.0313" y2="352.0313"/><text fill="#000000" font-family="sans-serif" font-size="13" font-weight="bold" lengthAdjust="spacing" textLength="7" x="80.5" y="347.1748">7</text><text fill="#000000" font-family="sans-serif" font-size="13" lengthAdjust="spacing" textLength="117" x="91.5" y="347.1748">confirms all the data</text><polygon fill="#181818" points="84.5,378.3828,74.5,382.3828,84.5,386.3828,80.5,382.3828" style="stroke:#181818;stroke-width:1.0;"/><line style="stroke:#181818;stroke-width:1.0;stroke-dasharray:2.0,2.0;" x1="78.5" x2="528.5" y1="382.3828" y2="382.3828"/><text fill="#000000" font-family="sans-serif" font-size="13" font-weight="bold" lengthAdjust="spacing" textLength="7" x="90.5" y="377.5264">8</text><text fill="#000000" font-family="sans-serif" font-size="13" lengthAdjust="spacing" textLength="158" x="101.5" y="377.5264">displays operation success</text><!--SRC=[dPB1Zjf038RlUGgB4ol12t1OQGNgeH95QbPxwiLCdE2IUDAnioXlNoU15BNTIdGEqSHZ__x-6UkPfSM43JHHOZYbs11OwYZJ-QJ5SCQASkjhWaJ1KAhwFa5FMCGBImKbrafPPcoUclTgr41EFpgIGB1Zh8RqPPxldc0DBxLH4ZH-9pY8bs5dKRhcICdtmMA2nRPJSwG4UnHdI0j0XUq-yyR6WLiKWyNcsceydBQZ0B-ZaMU3homRlhvVFz_0Dfv-Lh3efYhsK084eGjyZaSuj2JkQAoQfMxQCAshpjebNNZZCkvKJU6x2yH900eov5fXkICDYLlZA2jumu0IcFJBw7S5szYucNxrJU2bA1Afhc0V2nfEn98ZlFQj_xqELtj8dpe9avB3VgMIqd35JoDPGNy5_isxTiU6dVNEx8trdwO_Tbtx7K8inm0dQaWyk1pvVWNobWAN772W_q_U3_KU0zTJl2XWNSzlLFh8sOd68RX_mwj5G2dccGbHIaxD0mwk5LFBeKs1XeyX5wnjZRqEP6cqxFSIWa_BNF8doqy0]--></g></svg>