<?xml version="1.0" encoding="us-ascii" standalone="no"?><svg xmlns="http://www.w3.org/2000/svg" xmlns:xlink="http://www.w3.org/1999/xlink" contentStyleType="text/css" height="2497px" preserveAspectRatio="none" style="width:3653px;height:2497px;background:#FFFFFF;" version="1.1" viewBox="0 0 3653 2497" width="3653px" zoomAndPan="magnify"><defs/><g><text fill="#000000" font-family="sans-serif" font-size="14" font-weight="bold" lengthAdjust="spacing" textLength="211" x="1714" y="25.1074">CD - State Change Notification</text><!--cluster ui--><g id="cluster_ui"><path d="M1643.5,45.6348 L1657.5,45.6348 A3.75,3.75 0 0 1 1660,48.1348 L1667,70.2559 L1878.5,70.2559 A2.5,2.5 0 0 1 1881,72.7559 L1881,181.1348 A2.5,2.5 0 0 1 1878.5,183.6348 L1643.5,183.6348 A2.5,2.5 0 0 1 1641,181.1348 L1641,48.1348 A2.5,2.5 0 0 1 1643.5,45.6348 " fill="none" style="stroke:#000000;stroke-width:1.5;"/><line style="stroke:#000000;stroke-width:1.5;" x1="1641" x2="1667" y1="70.2559" y2="70.2559"/><text fill="#000000" font-family="sans-serif" font-size="14" font-weight="bold" lengthAdjust="spacing" textLength="13" x="1645" y="62.7422">ui</text></g><!--cluster controller--><g id="cluster_controller"><path d="M1615.5,207.6348 L1685.5,207.6348 A3.75,3.75 0 0 1 1688,210.1348 L1695,232.2559 L1906.5,232.2559 A2.5,2.5 0 0 1 1909,234.7559 L1909,325.1348 A2.5,2.5 0 0 1 1906.5,327.6348 L1615.5,327.6348 A2.5,2.5 0 0 1 1613,325.1348 L1613,210.1348 A2.5,2.5 0 0 1 1615.5,207.6348 " fill="none" style="stroke:#000000;stroke-width:1.5;"/><line style="stroke:#000000;stroke-width:1.5;" x1="1613" x2="1695" y1="232.2559" y2="232.2559"/><text fill="#000000" font-family="sans-serif" font-size="14" font-weight="bold" lengthAdjust="spacing" textLength="69" x="1617" y="224.7422">controller</text></g><!--cluster application--><g id="cluster_application"><path d="M2246.5,916.6348 L2324.5,916.6348 A3.75,3.75 0 0 1 2327,919.1348 L2334,941.2559 L3643.5,941.2559 A2.5,2.5 0 0 1 3646,943.7559 L3646,2193.6348 A2.5,2.5 0 0 1 3643.5,2196.1348 L2246.5,2196.1348 A2.5,2.5 0 0 1 2244,2193.6348 L2244,919.1348 A2.5,2.5 0 0 1 2246.5,916.6348 " fill="none" style="stroke:#000000;stroke-width:1.5;"/><line style="stroke:#000000;stroke-width:1.5;" x1="2244" x2="2334" y1="941.2559" y2="941.2559"/><text fill="#000000" font-family="sans-serif" font-size="14" font-weight="bold" lengthAdjust="spacing" textLength="77" x="2248" y="933.7422">application</text></g><!--cluster domain--><g id="cluster_domain"><path d="M2270.5,1274.6348 L2322.5,1274.6348 A3.75,3.75 0 0 1 2325,1277.1348 L2332,1299.2559 L3307.5,1299.2559 A2.5,2.5 0 0 1 3310,1301.7559 L3310,2169.6348 A2.5,2.5 0 0 1 3307.5,2172.1348 L2270.5,2172.1348 A2.5,2.5 0 0 1 2268,2169.6348 L2268,1277.1348 A2.5,2.5 0 0 1 2270.5,1274.6348 " fill="none" style="stroke:#000000;stroke-width:1.5;"/><line style="stroke:#000000;stroke-width:1.5;" x1="2268" x2="2332" y1="1299.2559" y2="1299.2559"/><text fill="#000000" font-family="sans-serif" font-size="14" font-weight="bold" lengthAdjust="spacing" textLength="51" x="2272" y="1291.7422">domain</text></g><!--cluster service--><g id="cluster_service"><path d="M2586.5,961.6348 L2640.5,961.6348 A3.75,3.75 0 0 1 2643,964.1348 L2650,986.2559 L3303.5,986.2559 A2.5,2.5 0 0 1 3306,988.7559 L3306,1209.1348 A2.5,2.5 0 0 1 3303.5,1211.6348 L2586.5,1211.6348 A2.5,2.5 0 0 1 2584,1209.1348 L2584,964.1348 A2.5,2.5 0 0 1 2586.5,961.6348 " fill="none" style="stroke:#000000;stroke-width:1.5;"/><line style="stroke:#000000;stroke-width:1.5;" x1="2584" x2="2650" y1="986.2559" y2="986.2559"/><text fill="#000000" font-family="sans-serif" font-size="14" font-weight="bold" lengthAdjust="spacing" textLength="53" x="2588" y="978.7422">service</text></g><!--cluster repository--><g id="cluster_repository"><path d="M3336.5,1516.6348 L3409.5,1516.6348 A3.75,3.75 0 0 1 3412,1519.1348 L3419,1541.2559 L3619.5,1541.2559 A2.5,2.5 0 0 1 3622,1543.7559 L3622,1652.1348 A2.5,2.5 0 0 1 3619.5,1654.6348 L3336.5,1654.6348 A2.5,2.5 0 0 1 3334,1652.1348 L3334,1519.1348 A2.5,2.5 0 0 1 3336.5,1516.6348 " fill="none" style="stroke:#000000;stroke-width:1.5;"/><line style="stroke:#000000;stroke-width:1.5;" x1="3334" x2="3419" y1="1541.2559" y2="1541.2559"/><text fill="#000000" font-family="sans-serif" font-size="14" font-weight="bold" lengthAdjust="spacing" textLength="72" x="3338" y="1533.7422">repository</text></g><!--cluster candidate--><g id="cluster_candidate"><path d="M8.5,1443.6348 L78.5,1443.6348 A3.75,3.75 0 0 1 81,1446.1348 L88,1468.2559 L1275.5,1468.2559 A2.5,2.5 0 0 1 1278,1470.7559 L1278,2488.1348 A2.5,2.5 0 0 1 1275.5,2490.6348 L8.5,2490.6348 A2.5,2.5 0 0 1 6,2488.1348 L6,1446.1348 A2.5,2.5 0 0 1 8.5,1443.6348 " fill="none" style="stroke:#000000;stroke-width:1.5;"/><line style="stroke:#000000;stroke-width:1.5;" x1="6" x2="88" y1="1468.2559" y2="1468.2559"/><text fill="#000000" font-family="sans-serif" font-size="14" font-weight="bold" lengthAdjust="spacing" textLength="69" x="10" y="1460.7422">candidate</text></g><!--cluster domain--><g id="cluster_domain"><path d="M456.5,1903.6348 L508.5,1903.6348 A3.75,3.75 0 0 1 511,1906.1348 L518,1928.2559 L1251.5,1928.2559 A2.5,2.5 0 0 1 1254,1930.7559 L1254,2464.1348 A2.5,2.5 0 0 1 1251.5,2466.6348 L456.5,2466.6348 A2.5,2.5 0 0 1 454,2464.1348 L454,1906.1348 A2.5,2.5 0 0 1 456.5,1903.6348 " fill="none" style="stroke:#000000;stroke-width:1.5;"/><line style="stroke:#000000;stroke-width:1.5;" x1="454" x2="518" y1="1928.2559" y2="1928.2559"/><text fill="#000000" font-family="sans-serif" font-size="14" font-weight="bold" lengthAdjust="spacing" textLength="51" x="458" y="1920.7422">domain</text></g><!--cluster service--><g id="cluster_service"><path d="M232.5,1488.6348 L286.5,1488.6348 A3.75,3.75 0 0 1 289,1491.1348 L296,1513.2559 L707.5,1513.2559 A2.5,2.5 0 0 1 710,1515.7559 L710,1680.1348 A2.5,2.5 0 0 1 707.5,1682.6348 L232.5,1682.6348 A2.5,2.5 0 0 1 230,1680.1348 L230,1491.1348 A2.5,2.5 0 0 1 232.5,1488.6348 " fill="none" style="stroke:#000000;stroke-width:1.5;"/><line style="stroke:#000000;stroke-width:1.5;" x1="230" x2="296" y1="1513.2559" y2="1513.2559"/><text fill="#000000" font-family="sans-serif" font-size="14" font-weight="bold" lengthAdjust="spacing" textLength="53" x="234" y="1505.7422">service</text></g><!--cluster repository--><g id="cluster_repository"><path d="M32.5,1987.6348 L105.5,1987.6348 A3.75,3.75 0 0 1 108,1990.1348 L115,2012.2559 L427.5,2012.2559 A2.5,2.5 0 0 1 430,2014.7559 L430,2123.1348 A2.5,2.5 0 0 1 427.5,2125.6348 L32.5,2125.6348 A2.5,2.5 0 0 1 30,2123.1348 L30,1990.1348 A2.5,2.5 0 0 1 32.5,1987.6348 " fill="none" style="stroke:#000000;stroke-width:1.5;"/><line style="stroke:#000000;stroke-width:1.5;" x1="30" x2="115" y1="2012.2559" y2="2012.2559"/><text fill="#000000" font-family="sans-serif" font-size="14" font-weight="bold" lengthAdjust="spacing" textLength="72" x="34" y="2004.7422">repository</text></g><!--cluster notification--><g id="cluster_notification"><path d="M1304.5,351.6348 L1384.5,351.6348 A3.75,3.75 0 0 1 1387,354.1348 L1394,376.2559 L2217.5,376.2559 A2.5,2.5 0 0 1 2220,378.7559 L2220,1722.6348 A2.5,2.5 0 0 1 2217.5,1725.1348 L1304.5,1725.1348 A2.5,2.5 0 0 1 1302,1722.6348 L1302,354.1348 A2.5,2.5 0 0 1 1304.5,351.6348 " fill="none" style="stroke:#000000;stroke-width:1.5;"/><line style="stroke:#000000;stroke-width:1.5;" x1="1302" x2="1394" y1="376.2559" y2="376.2559"/><text fill="#000000" font-family="sans-serif" font-size="14" font-weight="bold" lengthAdjust="spacing" textLength="79" x="1306" y="368.7422">notification</text></g><!--cluster domain--><g id="cluster_domain"><path d="M1328.5,704.6348 L1380.5,704.6348 A3.75,3.75 0 0 1 1383,707.1348 L1390,729.2559 L1745.5,729.2559 A2.5,2.5 0 0 1 1748,731.7559 L1748,1698.6348 A2.5,2.5 0 0 1 1745.5,1701.1348 L1328.5,1701.1348 A2.5,2.5 0 0 1 1326,1698.6348 L1326,707.1348 A2.5,2.5 0 0 1 1328.5,704.6348 " fill="none" style="stroke:#000000;stroke-width:1.5;"/><line style="stroke:#000000;stroke-width:1.5;" x1="1326" x2="1390" y1="729.2559" y2="729.2559"/><text fill="#000000" font-family="sans-serif" font-size="14" font-weight="bold" lengthAdjust="spacing" textLength="51" x="1330" y="721.7422">domain</text></g><!--cluster service--><g id="cluster_service"><path d="M1328.5,396.6348 L1382.5,396.6348 A3.75,3.75 0 0 1 1385,399.1348 L1392,421.2559 L2193.5,421.2559 A2.5,2.5 0 0 1 2196,423.7559 L2196,678.1348 A2.5,2.5 0 0 1 2193.5,680.6348 L1328.5,680.6348 A2.5,2.5 0 0 1 1326,678.1348 L1326,399.1348 A2.5,2.5 0 0 1 1328.5,396.6348 " fill="none" style="stroke:#000000;stroke-width:1.5;"/><line style="stroke:#000000;stroke-width:1.5;" x1="1326" x2="1392" y1="421.2559" y2="421.2559"/><text fill="#000000" font-family="sans-serif" font-size="14" font-weight="bold" lengthAdjust="spacing" textLength="53" x="1330" y="413.7422">service</text></g><!--cluster repository--><g id="cluster_repository"><path d="M1774.5,732.6348 L1847.5,732.6348 A3.75,3.75 0 0 1 1850,735.1348 L1857,757.2559 L2057.5,757.2559 A2.5,2.5 0 0 1 2060,759.7559 L2060,868.1348 A2.5,2.5 0 0 1 2057.5,870.6348 L1774.5,870.6348 A2.5,2.5 0 0 1 1772,868.1348 L1772,735.1348 A2.5,2.5 0 0 1 1774.5,732.6348 " fill="none" style="stroke:#000000;stroke-width:1.5;"/><line style="stroke:#000000;stroke-width:1.5;" x1="1772" x2="1857" y1="757.2559" y2="757.2559"/><text fill="#000000" font-family="sans-serif" font-size="14" font-weight="bold" lengthAdjust="spacing" textLength="72" x="1776" y="749.7422">repository</text></g><!--class ListCandidateNotificationsUI--><g id="elem_ListCandidateNotificationsUI"><rect codeLine="15" fill="#FFFFFF" height="85.2422" id="ListCandidateNotificationsUI" rx="2.5" ry="2.5" style="stroke:#000000;stroke-width:0.5;" width="207" x="1657.5" y="82.6348"/><ellipse cx="1672.5" cy="98.6348" fill="#ADD1B2" rx="11" ry="11" style="stroke:#181818;stroke-width:1.0;"/><path d="M1675.2656,94.5098 Q1675.4219,94.291 1675.6094,94.1816 Q1675.7969,94.0723 1676.0156,94.0723 Q1676.3906,94.0723 1676.625,94.3379 Q1676.8594,94.5879 1676.8594,95.1973 L1676.8594,96.6504 Q1676.8594,97.2598 1676.625,97.5254 Q1676.3906,97.791 1676.0156,97.791 Q1675.6719,97.791 1675.4688,97.5879 Q1675.2656,97.4004 1675.1563,96.8848 Q1675.1094,96.5254 1674.9219,96.3379 Q1674.5938,95.9629 1673.9844,95.7441 Q1673.375,95.5254 1672.75,95.5254 Q1671.9844,95.5254 1671.3438,95.8535 Q1670.7188,96.1816 1670.2188,96.9316 Q1669.7344,97.6816 1669.7344,98.7129 L1669.7344,99.8066 Q1669.7344,101.041 1670.625,101.8691 Q1671.5156,102.6816 1673.1094,102.6816 Q1674.0469,102.6816 1674.7031,102.4316 Q1675.0938,102.2754 1675.5156,101.8379 Q1675.7813,101.5723 1675.9219,101.4941 Q1676.0781,101.416 1676.2813,101.416 Q1676.6094,101.416 1676.8594,101.6816 Q1677.125,101.9316 1677.125,102.2754 Q1677.125,102.6191 1676.7813,103.0254 Q1676.2813,103.6035 1675.4844,103.9316 Q1674.4063,104.3848 1673.1094,104.3848 Q1671.5938,104.3848 1670.3906,103.7598 Q1669.4063,103.2598 1668.7188,102.1973 Q1668.0313,101.1191 1668.0313,99.8379 L1668.0313,98.6816 Q1668.0313,97.3535 1668.6406,96.2129 Q1669.2656,95.0566 1670.3594,94.4473 Q1671.4531,93.8223 1672.6875,93.8223 Q1673.4219,93.8223 1674.0625,93.9941 Q1674.7188,94.1504 1675.2656,94.5098 Z " fill="#000000"/><text fill="#000000" font-family="sans-serif" font-size="14" lengthAdjust="spacing" textLength="175" x="1686.5" y="104.4316">ListCandidateNotificationsUI</text><line style="stroke:#000000;stroke-width:0.5;" x1="1658.5" x2="1863.5" y1="114.6348" y2="114.6348"/><line style="stroke:#000000;stroke-width:0.5;" x1="1658.5" x2="1863.5" y1="122.6348" y2="122.6348"/><ellipse cx="1668.5" cy="137.4453" fill="#84BE84" rx="3" ry="3" style="stroke:#038048;stroke-width:1.0;"/><text fill="#000000" font-family="sans-serif" font-size="14" lengthAdjust="spacing" textLength="113" x="1677.5" y="141.7422">headline() : String</text><ellipse cx="1668.5" cy="156.0664" fill="#84BE84" rx="3" ry="3" style="stroke:#038048;stroke-width:1.0;"/><text fill="#000000" font-family="sans-serif" font-size="14" lengthAdjust="spacing" textLength="123" x="1677.5" y="160.3633">doShow() : boolean</text></g><!--class ListCandidateNotificationsController--><g id="elem_ListCandidateNotificationsController"><rect codeLine="22" fill="#FFFFFF" height="66.6211" id="ListCandidateNotificationsController" rx="2.5" ry="2.5" style="stroke:#000000;stroke-width:0.5;" width="263" x="1629.5" y="244.6348"/><ellipse cx="1647.2" cy="260.6348" fill="#ADD1B2" rx="11" ry="11" style="stroke:#181818;stroke-width:1.0;"/><path d="M1649.9656,256.5098 Q1650.1219,256.291 1650.3094,256.1816 Q1650.4969,256.0723 1650.7156,256.0723 Q1651.0906,256.0723 1651.325,256.3379 Q1651.5594,256.5879 1651.5594,257.1973 L1651.5594,258.6504 Q1651.5594,259.2598 1651.325,259.5254 Q1651.0906,259.791 1650.7156,259.791 Q1650.3719,259.791 1650.1688,259.5879 Q1649.9656,259.4004 1649.8563,258.8848 Q1649.8094,258.5254 1649.6219,258.3379 Q1649.2938,257.9629 1648.6844,257.7441 Q1648.075,257.5254 1647.45,257.5254 Q1646.6844,257.5254 1646.0438,257.8535 Q1645.4188,258.1816 1644.9188,258.9316 Q1644.4344,259.6816 1644.4344,260.7129 L1644.4344,261.8066 Q1644.4344,263.041 1645.325,263.8691 Q1646.2156,264.6816 1647.8094,264.6816 Q1648.7469,264.6816 1649.4031,264.4316 Q1649.7938,264.2754 1650.2156,263.8379 Q1650.4813,263.5723 1650.6219,263.4941 Q1650.7781,263.416 1650.9813,263.416 Q1651.3094,263.416 1651.5594,263.6816 Q1651.825,263.9316 1651.825,264.2754 Q1651.825,264.6191 1651.4813,265.0254 Q1650.9813,265.6035 1650.1844,265.9316 Q1649.1063,266.3848 1647.8094,266.3848 Q1646.2938,266.3848 1645.0906,265.7598 Q1644.1063,265.2598 1643.4188,264.1973 Q1642.7313,263.1191 1642.7313,261.8379 L1642.7313,260.6816 Q1642.7313,259.3535 1643.3406,258.2129 Q1643.9656,257.0566 1645.0594,256.4473 Q1646.1531,255.8223 1647.3875,255.8223 Q1648.1219,255.8223 1648.7625,255.9941 Q1649.4188,256.1504 1649.9656,256.5098 Z " fill="#000000"/><text fill="#000000" font-family="sans-serif" font-size="14" lengthAdjust="spacing" textLength="225" x="1661.8" y="266.4316">ListCandidateNotificationsController</text><line style="stroke:#000000;stroke-width:0.5;" x1="1630.5" x2="1891.5" y1="276.6348" y2="276.6348"/><line style="stroke:#000000;stroke-width:0.5;" x1="1630.5" x2="1891.5" y1="284.6348" y2="284.6348"/><ellipse cx="1640.5" cy="299.4453" fill="#84BE84" rx="3" ry="3" style="stroke:#038048;stroke-width:1.0;"/><text fill="#000000" font-family="sans-serif" font-size="14" lengthAdjust="spacing" textLength="237" x="1649.5" y="303.7422">sendNotifications(email) : List&lt;String&gt;</text></g><!--class Application--><g id="elem_Application"><rect codeLine="29" fill="#FFFFFF" height="569.3906" id="Application" rx="2.5" ry="2.5" style="stroke:#000000;stroke-width:0.5;" width="641" x="2284.5" y="1311.6348"/><ellipse cx="2566.25" cy="1327.6348" fill="#ADD1B2" rx="11" ry="11" style="stroke:#181818;stroke-width:1.0;"/><path d="M2569.0156,1323.5098 Q2569.1719,1323.291 2569.3594,1323.1816 Q2569.5469,1323.0723 2569.7656,1323.0723 Q2570.1406,1323.0723 2570.375,1323.3379 Q2570.6094,1323.5879 2570.6094,1324.1973 L2570.6094,1325.6504 Q2570.6094,1326.2598 2570.375,1326.5254 Q2570.1406,1326.791 2569.7656,1326.791 Q2569.4219,1326.791 2569.2188,1326.5879 Q2569.0156,1326.4004 2568.9063,1325.8848 Q2568.8594,1325.5254 2568.6719,1325.3379 Q2568.3438,1324.9629 2567.7344,1324.7441 Q2567.125,1324.5254 2566.5,1324.5254 Q2565.7344,1324.5254 2565.0938,1324.8535 Q2564.4688,1325.1816 2563.9688,1325.9316 Q2563.4844,1326.6816 2563.4844,1327.7129 L2563.4844,1328.8066 Q2563.4844,1330.041 2564.375,1330.8691 Q2565.2656,1331.6816 2566.8594,1331.6816 Q2567.7969,1331.6816 2568.4531,1331.4316 Q2568.8438,1331.2754 2569.2656,1330.8379 Q2569.5313,1330.5723 2569.6719,1330.4941 Q2569.8281,1330.416 2570.0313,1330.416 Q2570.3594,1330.416 2570.6094,1330.6816 Q2570.875,1330.9316 2570.875,1331.2754 Q2570.875,1331.6191 2570.5313,1332.0254 Q2570.0313,1332.6035 2569.2344,1332.9316 Q2568.1563,1333.3848 2566.8594,1333.3848 Q2565.3438,1333.3848 2564.1406,1332.7598 Q2563.1563,1332.2598 2562.4688,1331.1973 Q2561.7813,1330.1191 2561.7813,1328.8379 L2561.7813,1327.6816 Q2561.7813,1326.3535 2562.3906,1325.2129 Q2563.0156,1324.0566 2564.1094,1323.4473 Q2565.2031,1322.8223 2566.4375,1322.8223 Q2567.1719,1322.8223 2567.8125,1322.9941 Q2568.4688,1323.1504 2569.0156,1323.5098 Z " fill="#000000"/><text fill="#000000" font-family="sans-serif" font-size="14" lengthAdjust="spacing" textLength="69" x="2586.75" y="1333.4316">Application</text><line style="stroke:#000000;stroke-width:0.5;" x1="2285.5" x2="2924.5" y1="1343.6348" y2="1343.6348"/><rect fill="none" height="6" style="stroke:#C82930;stroke-width:1.0;" width="6" x="2292.5" y="1355.4453"/><text fill="#000000" font-family="sans-serif" font-size="14" lengthAdjust="spacing" textLength="108" x="2304.5" y="1362.7422">applicationID : int</text><rect fill="none" height="6" style="stroke:#C82930;stroke-width:1.0;" width="6" x="2292.5" y="1374.0664"/><text fill="#000000" font-family="sans-serif" font-size="14" lengthAdjust="spacing" textLength="73" x="2304.5" y="1381.3633">rank : Rank</text><rect fill="none" height="6" style="stroke:#C82930;stroke-width:1.0;" width="6" x="2292.5" y="1392.6875"/><text fill="#000000" font-family="sans-serif" font-size="14" lengthAdjust="spacing" textLength="142" x="2304.5" y="1399.9844">submissionDate : Date</text><rect fill="none" height="6" style="stroke:#C82930;stroke-width:1.0;" width="6" x="2292.5" y="1411.3086"/><text fill="#000000" font-family="sans-serif" font-size="14" lengthAdjust="spacing" textLength="90" x="2304.5" y="1418.6055">status : Status</text><rect fill="none" height="6" style="stroke:#C82930;stroke-width:1.0;" width="6" x="2292.5" y="1429.9297"/><text fill="#000000" font-family="sans-serif" font-size="14" lengthAdjust="spacing" textLength="161" x="2304.5" y="1437.2266">jobOpening : JobOpening</text><rect fill="none" height="6" style="stroke:#C82930;stroke-width:1.0;" width="6" x="2292.5" y="1448.5508"/><text fill="#000000" font-family="sans-serif" font-size="14" lengthAdjust="spacing" textLength="139" x="2304.5" y="1455.8477">candidate : Candidate</text><rect fill="none" height="6" style="stroke:#C82930;stroke-width:1.0;" width="6" x="2292.5" y="1467.1719"/><text fill="#000000" font-family="sans-serif" font-size="14" lengthAdjust="spacing" textLength="315" x="2304.5" y="1474.4688">candidateRequirements : CandidateRequirements</text><rect fill="none" height="6" style="stroke:#C82930;stroke-width:1.0;" width="6" x="2292.5" y="1485.793"/><text fill="#000000" font-family="sans-serif" font-size="14" lengthAdjust="spacing" textLength="147" x="2304.5" y="1493.0898">applicationFiles : String</text><rect fill="none" height="6" style="stroke:#C82930;stroke-width:1.0;" width="6" x="2292.5" y="1504.4141"/><text fill="#000000" font-family="sans-serif" font-size="14" lengthAdjust="spacing" textLength="141" x="2304.5" y="1511.7109">operator : SystemUser</text><line style="stroke:#000000;stroke-width:0.5;" x1="2285.5" x2="2924.5" y1="1519.2246" y2="1519.2246"/><ellipse cx="2295.5" cy="1534.0352" fill="#84BE84" rx="3" ry="3" style="stroke:#038048;stroke-width:1.0;"/><text fill="#000000" font-family="sans-serif" font-size="14" lengthAdjust="spacing" textLength="615" x="2304.5" y="1538.332">Application(rank, submissionDate, jobOpening, candidate, applicationFiles, operator) : Application</text><text fill="#000000" font-family="sans-serif" font-size="14" lengthAdjust="spacing" textLength="79" x="2304.5" y="1556.9531">Application()</text><ellipse cx="2295.5" cy="1571.2773" fill="#84BE84" rx="3" ry="3" style="stroke:#038048;stroke-width:1.0;"/><text fill="#000000" font-family="sans-serif" font-size="14" lengthAdjust="spacing" textLength="197" x="2304.5" y="1575.5742">sameAs(otherObject) : boolean</text><ellipse cx="2295.5" cy="1589.8984" fill="#84BE84" rx="3" ry="3" style="stroke:#038048;stroke-width:1.0;"/><text fill="#000000" font-family="sans-serif" font-size="14" lengthAdjust="spacing" textLength="189" x="2304.5" y="1594.1953">equals(otherObject) : boolean</text><ellipse cx="2295.5" cy="1608.5195" fill="#84BE84" rx="3" ry="3" style="stroke:#038048;stroke-width:1.0;"/><text fill="#000000" font-family="sans-serif" font-size="14" lengthAdjust="spacing" textLength="102" x="2304.5" y="1612.8164">hashCode() : int</text><ellipse cx="2295.5" cy="1627.1406" fill="#84BE84" rx="3" ry="3" style="stroke:#038048;stroke-width:1.0;"/><text fill="#000000" font-family="sans-serif" font-size="14" lengthAdjust="spacing" textLength="109" x="2304.5" y="1631.4375">compareTo() : int</text><ellipse cx="2295.5" cy="1645.7617" fill="#84BE84" rx="3" ry="3" style="stroke:#038048;stroke-width:1.0;"/><text fill="#000000" font-family="sans-serif" font-size="14" lengthAdjust="spacing" textLength="111" x="2304.5" y="1650.0586">identity() : Integer</text><ellipse cx="2295.5" cy="1664.3828" fill="#84BE84" rx="3" ry="3" style="stroke:#038048;stroke-width:1.0;"/><text fill="#000000" font-family="sans-serif" font-size="14" lengthAdjust="spacing" textLength="83" x="2304.5" y="1668.6797">rank() : Rank</text><ellipse cx="2295.5" cy="1683.0039" fill="#84BE84" rx="3" ry="3" style="stroke:#038048;stroke-width:1.0;"/><text fill="#000000" font-family="sans-serif" font-size="14" lengthAdjust="spacing" textLength="152" x="2304.5" y="1687.3008">submissionDate() : Date</text><ellipse cx="2295.5" cy="1701.625" fill="#84BE84" rx="3" ry="3" style="stroke:#038048;stroke-width:1.0;"/><text fill="#000000" font-family="sans-serif" font-size="14" lengthAdjust="spacing" textLength="100" x="2304.5" y="1705.9219">status() : Status</text><ellipse cx="2295.5" cy="1720.2461" fill="#84BE84" rx="3" ry="3" style="stroke:#038048;stroke-width:1.0;"/><text fill="#000000" font-family="sans-serif" font-size="14" lengthAdjust="spacing" textLength="171" x="2304.5" y="1724.543">jobOpening() : JobOpening</text><ellipse cx="2295.5" cy="1738.8672" fill="#84BE84" rx="3" ry="3" style="stroke:#038048;stroke-width:1.0;"/><text fill="#000000" font-family="sans-serif" font-size="14" lengthAdjust="spacing" textLength="149" x="2304.5" y="1743.1641">candidate() : Candidate</text><ellipse cx="2295.5" cy="1757.4883" fill="#84BE84" rx="3" ry="3" style="stroke:#038048;stroke-width:1.0;"/><text fill="#000000" font-family="sans-serif" font-size="14" lengthAdjust="spacing" textLength="325" x="2304.5" y="1761.7852">candidateRequirements() : CandidateRequirements</text><ellipse cx="2295.5" cy="1776.1094" fill="#84BE84" rx="3" ry="3" style="stroke:#038048;stroke-width:1.0;"/><text fill="#000000" font-family="sans-serif" font-size="14" lengthAdjust="spacing" textLength="157" x="2304.5" y="1780.4063">applicationFiles() : String</text><ellipse cx="2295.5" cy="1794.7305" fill="#84BE84" rx="3" ry="3" style="stroke:#038048;stroke-width:1.0;"/><text fill="#000000" font-family="sans-serif" font-size="14" lengthAdjust="spacing" textLength="151" x="2304.5" y="1799.0273">operator() : SystemUser</text><ellipse cx="2295.5" cy="1813.3516" fill="#84BE84" rx="3" ry="3" style="stroke:#038048;stroke-width:1.0;"/><text fill="#000000" font-family="sans-serif" font-size="14" lengthAdjust="spacing" textLength="135" x="2304.5" y="1817.6484">changeStatus(status)</text><ellipse cx="2295.5" cy="1831.9727" fill="#84BE84" rx="3" ry="3" style="stroke:#038048;stroke-width:1.0;"/><text fill="#000000" font-family="sans-serif" font-size="14" lengthAdjust="spacing" textLength="115" x="2304.5" y="1836.2695">updateRank(rank)</text><ellipse cx="2295.5" cy="1850.5938" fill="#84BE84" rx="3" ry="3" style="stroke:#038048;stroke-width:1.0;"/><text fill="#000000" font-family="sans-serif" font-size="14" lengthAdjust="spacing" textLength="108" x="2304.5" y="1854.8906">toString() : String</text><ellipse cx="2295.5" cy="1869.2148" fill="#84BE84" rx="3" ry="3" style="stroke:#038048;stroke-width:1.0;"/><text fill="#000000" font-family="sans-serif" font-size="14" lengthAdjust="spacing" textLength="356" x="2304.5" y="1873.5117">uploadCandidateRequirements(candidateRequirements)</text></g><g id="elem_GMN9"><path d="M2960.5,1573.6348 L2960.5,1592.6348 L2925.55,1596.6348 L2960.5,1600.6348 L2960.5,1618.2168 A0,0 0 0 0 2960.5,1618.2168 L3293.5,1618.2168 A0,0 0 0 0 3293.5,1618.2168 L3293.5,1583.6348 L3283.5,1573.6348 L2960.5,1573.6348 A0,0 0 0 0 2960.5,1573.6348 " fill="#FEFFDD" style="stroke:#181818;stroke-width:0.5;"/><path d="M3283.5,1573.6348 L3283.5,1583.6348 L3293.5,1583.6348 L3283.5,1573.6348 " fill="#FEFFDD" style="stroke:#181818;stroke-width:0.5;"/><text fill="#000000" font-family="sans-serif" font-size="13" lengthAdjust="spacing" textLength="312" x="2966.5" y="1592.6631">- The SystemUser class is provided by the framework,</text><text fill="#000000" font-family="sans-serif" font-size="13" lengthAdjust="spacing" textLength="232" x="2966.5" y="1609.9541">so that there's no need in representing it</text></g><!--class CandidateRequirements--><g id="elem_CandidateRequirements"><rect codeLine="65" fill="#FFFFFF" height="178.3477" id="CandidateRequirements" rx="2.5" ry="2.5" style="stroke:#000000;stroke-width:0.5;" width="504" x="2284" y="1978.1348"/><ellipse cx="2455.25" cy="1994.1348" fill="#ADD1B2" rx="11" ry="11" style="stroke:#181818;stroke-width:1.0;"/><path d="M2458.0156,1990.0098 Q2458.1719,1989.791 2458.3594,1989.6816 Q2458.5469,1989.5723 2458.7656,1989.5723 Q2459.1406,1989.5723 2459.375,1989.8379 Q2459.6094,1990.0879 2459.6094,1990.6973 L2459.6094,1992.1504 Q2459.6094,1992.7598 2459.375,1993.0254 Q2459.1406,1993.291 2458.7656,1993.291 Q2458.4219,1993.291 2458.2188,1993.0879 Q2458.0156,1992.9004 2457.9063,1992.3848 Q2457.8594,1992.0254 2457.6719,1991.8379 Q2457.3438,1991.4629 2456.7344,1991.2441 Q2456.125,1991.0254 2455.5,1991.0254 Q2454.7344,1991.0254 2454.0938,1991.3535 Q2453.4688,1991.6816 2452.9688,1992.4316 Q2452.4844,1993.1816 2452.4844,1994.2129 L2452.4844,1995.3066 Q2452.4844,1996.541 2453.375,1997.3691 Q2454.2656,1998.1816 2455.8594,1998.1816 Q2456.7969,1998.1816 2457.4531,1997.9316 Q2457.8438,1997.7754 2458.2656,1997.3379 Q2458.5313,1997.0723 2458.6719,1996.9941 Q2458.8281,1996.916 2459.0313,1996.916 Q2459.3594,1996.916 2459.6094,1997.1816 Q2459.875,1997.4316 2459.875,1997.7754 Q2459.875,1998.1191 2459.5313,1998.5254 Q2459.0313,1999.1035 2458.2344,1999.4316 Q2457.1563,1999.8848 2455.8594,1999.8848 Q2454.3438,1999.8848 2453.1406,1999.2598 Q2452.1563,1998.7598 2451.4688,1997.6973 Q2450.7813,1996.6191 2450.7813,1995.3379 L2450.7813,1994.1816 Q2450.7813,1992.8535 2451.3906,1991.7129 Q2452.0156,1990.5566 2453.1094,1989.9473 Q2454.2031,1989.3223 2455.4375,1989.3223 Q2456.1719,1989.3223 2456.8125,1989.4941 Q2457.4688,1989.6504 2458.0156,1990.0098 Z " fill="#000000"/><text fill="#000000" font-family="sans-serif" font-size="14" lengthAdjust="spacing" textLength="153" x="2475.75" y="1999.9316">CandidateRequirements</text><line style="stroke:#000000;stroke-width:0.5;" x1="2285" x2="2787" y1="2010.1348" y2="2010.1348"/><rect fill="none" height="6" style="stroke:#C82930;stroke-width:1.0;" width="6" x="2292" y="2021.9453"/><text fill="#000000" font-family="sans-serif" font-size="14" lengthAdjust="spacing" textLength="237" x="2304" y="2029.2422">candidateRequirements : List&lt;String&gt;</text><line style="stroke:#000000;stroke-width:0.5;" x1="2285" x2="2787" y1="2036.7559" y2="2036.7559"/><ellipse cx="2295" cy="2051.5664" fill="#84BE84" rx="3" ry="3" style="stroke:#038048;stroke-width:1.0;"/><text fill="#000000" font-family="sans-serif" font-size="14" lengthAdjust="spacing" textLength="478" x="2304" y="2055.8633">CandidateRequirements(candidateRequirements) : CandidateRequirements</text><text fill="#000000" font-family="sans-serif" font-size="14" lengthAdjust="spacing" textLength="163" x="2304" y="2074.4844">CandidateRequirements()</text><ellipse cx="2295" cy="2088.8086" fill="#84BE84" rx="3" ry="3" style="stroke:#038048;stroke-width:1.0;"/><text fill="#000000" font-family="sans-serif" font-size="14" lengthAdjust="spacing" textLength="189" x="2304" y="2093.1055">equals(otherObject) : boolean</text><ellipse cx="2295" cy="2107.4297" fill="#84BE84" rx="3" ry="3" style="stroke:#038048;stroke-width:1.0;"/><text fill="#000000" font-family="sans-serif" font-size="14" lengthAdjust="spacing" textLength="247" x="2304" y="2111.7266">candidateRequirements() : List&lt;String&gt;</text><ellipse cx="2295" cy="2126.0508" fill="#84BE84" rx="3" ry="3" style="stroke:#038048;stroke-width:1.0;"/><text fill="#000000" font-family="sans-serif" font-size="14" lengthAdjust="spacing" textLength="102" x="2304" y="2130.3477">hashCode() : int</text><ellipse cx="2295" cy="2144.6719" fill="#84BE84" rx="3" ry="3" style="stroke:#038048;stroke-width:1.0;"/><text fill="#000000" font-family="sans-serif" font-size="14" lengthAdjust="spacing" textLength="108" x="2304" y="2148.9688">toString() : String</text></g><!--class Rank--><g id="elem_Rank"><rect codeLine="75" fill="#FFFFFF" height="178.3477" id="Rank" rx="2.5" ry="2.5" style="stroke:#000000;stroke-width:0.5;" width="215" x="2823.5" y="1978.1348"/><ellipse cx="2910.25" cy="1994.1348" fill="#ADD1B2" rx="11" ry="11" style="stroke:#181818;stroke-width:1.0;"/><path d="M2913.0156,1990.0098 Q2913.1719,1989.791 2913.3594,1989.6816 Q2913.5469,1989.5723 2913.7656,1989.5723 Q2914.1406,1989.5723 2914.375,1989.8379 Q2914.6094,1990.0879 2914.6094,1990.6973 L2914.6094,1992.1504 Q2914.6094,1992.7598 2914.375,1993.0254 Q2914.1406,1993.291 2913.7656,1993.291 Q2913.4219,1993.291 2913.2188,1993.0879 Q2913.0156,1992.9004 2912.9063,1992.3848 Q2912.8594,1992.0254 2912.6719,1991.8379 Q2912.3438,1991.4629 2911.7344,1991.2441 Q2911.125,1991.0254 2910.5,1991.0254 Q2909.7344,1991.0254 2909.0938,1991.3535 Q2908.4688,1991.6816 2907.9688,1992.4316 Q2907.4844,1993.1816 2907.4844,1994.2129 L2907.4844,1995.3066 Q2907.4844,1996.541 2908.375,1997.3691 Q2909.2656,1998.1816 2910.8594,1998.1816 Q2911.7969,1998.1816 2912.4531,1997.9316 Q2912.8438,1997.7754 2913.2656,1997.3379 Q2913.5313,1997.0723 2913.6719,1996.9941 Q2913.8281,1996.916 2914.0313,1996.916 Q2914.3594,1996.916 2914.6094,1997.1816 Q2914.875,1997.4316 2914.875,1997.7754 Q2914.875,1998.1191 2914.5313,1998.5254 Q2914.0313,1999.1035 2913.2344,1999.4316 Q2912.1563,1999.8848 2910.8594,1999.8848 Q2909.3438,1999.8848 2908.1406,1999.2598 Q2907.1563,1998.7598 2906.4688,1997.6973 Q2905.7813,1996.6191 2905.7813,1995.3379 L2905.7813,1994.1816 Q2905.7813,1992.8535 2906.3906,1991.7129 Q2907.0156,1990.5566 2908.1094,1989.9473 Q2909.2031,1989.3223 2910.4375,1989.3223 Q2911.1719,1989.3223 2911.8125,1989.4941 Q2912.4688,1989.6504 2913.0156,1990.0098 Z " fill="#000000"/><text fill="#000000" font-family="sans-serif" font-size="14" lengthAdjust="spacing" textLength="33" x="2930.75" y="1999.9316">Rank</text><line style="stroke:#000000;stroke-width:0.5;" x1="2824.5" x2="3037.5" y1="2010.1348" y2="2010.1348"/><rect fill="none" height="6" style="stroke:#C82930;stroke-width:1.0;" width="6" x="2831.5" y="2021.9453"/><text fill="#000000" font-family="sans-serif" font-size="14" lengthAdjust="spacing" textLength="77" x="2843.5" y="2029.2422">rank : String</text><line style="stroke:#000000;stroke-width:0.5;" x1="2824.5" x2="3037.5" y1="2036.7559" y2="2036.7559"/><ellipse cx="2834.5" cy="2051.5664" fill="#84BE84" rx="3" ry="3" style="stroke:#038048;stroke-width:1.0;"/><text fill="#000000" font-family="sans-serif" font-size="14" lengthAdjust="spacing" textLength="116" x="2843.5" y="2055.8633">Rank(rank) : Rank</text><text fill="#000000" font-family="sans-serif" font-size="14" lengthAdjust="spacing" textLength="43" x="2843.5" y="2074.4844">Rank()</text><ellipse cx="2834.5" cy="2088.8086" fill="#84BE84" rx="3" ry="3" style="stroke:#038048;stroke-width:1.0;"/><text fill="#000000" font-family="sans-serif" font-size="14" lengthAdjust="spacing" textLength="132" x="2843.5" y="2093.1055">isRanked() : boolean</text><ellipse cx="2834.5" cy="2107.4297" fill="#84BE84" rx="3" ry="3" style="stroke:#038048;stroke-width:1.0;"/><text fill="#000000" font-family="sans-serif" font-size="14" lengthAdjust="spacing" textLength="132" x="2843.5" y="2111.7266">valueOf(rank) : Rank</text><ellipse cx="2834.5" cy="2126.0508" fill="#84BE84" rx="3" ry="3" style="stroke:#038048;stroke-width:1.0;"/><text fill="#000000" font-family="sans-serif" font-size="14" lengthAdjust="spacing" textLength="189" x="2843.5" y="2130.3477">equals(otherObject) : boolean</text><ellipse cx="2834.5" cy="2144.6719" fill="#84BE84" rx="3" ry="3" style="stroke:#038048;stroke-width:1.0;"/><text fill="#000000" font-family="sans-serif" font-size="14" lengthAdjust="spacing" textLength="108" x="2843.5" y="2148.9688">toString() : String</text></g><!--class Status--><g id="elem_Status"><rect codeLine="85" fill="#FFFFFF" height="122.4844" id="Status" rx="2.5" ry="2.5" style="stroke:#000000;stroke-width:0.5;" width="90" x="3074" y="2006.1348"/><ellipse cx="3097.1" cy="2022.1348" fill="#EB937F" rx="11" ry="11" style="stroke:#181818;stroke-width:1.0;"/><path d="M3095.9594,2022.9316 L3095.9594,2025.4316 L3100.2875,2025.4316 L3100.2875,2024.5098 Q3100.2875,2023.9004 3100.5219,2023.6348 Q3100.7719,2023.3691 3101.1469,2023.3691 Q3101.5219,2023.3691 3101.7563,2023.6348 Q3101.9906,2023.9004 3101.9906,2024.5098 L3101.9906,2027.1348 L3093.9906,2027.1348 Q3093.3656,2027.1348 3093.1,2026.9004 Q3092.85,2026.666 3092.85,2026.2754 Q3092.85,2025.9004 3093.1156,2025.666 Q3093.3813,2025.4316 3093.9906,2025.4316 L3094.2563,2025.4316 L3094.2563,2018.7754 L3093.9906,2018.7754 Q3093.3656,2018.7754 3093.1,2018.541 Q3092.85,2018.3066 3092.85,2017.916 Q3092.85,2017.541 3093.1,2017.3066 Q3093.3656,2017.0723 3093.9906,2017.0723 L3101.6156,2017.0723 L3101.6156,2019.666 Q3101.6156,2020.2754 3101.3813,2020.541 Q3101.1625,2020.791 3100.7719,2020.791 Q3100.3969,2020.791 3100.1625,2020.541 Q3099.9281,2020.2754 3099.9281,2019.666 L3099.9281,2018.7754 L3095.9594,2018.7754 L3095.9594,2021.2285 L3097.4438,2021.2285 Q3097.4438,2020.5723 3097.5688,2020.3848 Q3097.8344,2019.9785 3098.3031,2019.9785 Q3098.6781,2019.9785 3098.9125,2020.2441 Q3099.1469,2020.4941 3099.1469,2021.1035 L3099.1469,2023.0723 Q3099.1469,2023.6191 3099.0219,2023.8066 Q3098.7563,2024.1973 3098.3031,2024.1973 Q3097.8344,2024.1973 3097.5688,2023.791 Q3097.4438,2023.6035 3097.4438,2022.9316 L3095.9594,2022.9316 Z " fill="#000000"/><text fill="#000000" font-family="sans-serif" font-size="14" lengthAdjust="spacing" textLength="40" x="3112.9" y="2027.9316">Status</text><line style="stroke:#000000;stroke-width:0.5;" x1="3075" x2="3163" y1="2038.1348" y2="2038.1348"/><text fill="#000000" font-family="sans-serif" font-size="14" lengthAdjust="spacing" textLength="78" x="3080" y="2057.2422">SUBMITTED</text><text fill="#000000" font-family="sans-serif" font-size="14" lengthAdjust="spacing" textLength="75" x="3080" y="2075.8633">ACCEPTED</text><text fill="#000000" font-family="sans-serif" font-size="14" lengthAdjust="spacing" textLength="68" x="3080" y="2094.4844">DECLINED</text><text fill="#000000" font-family="sans-serif" font-size="14" lengthAdjust="spacing" textLength="60" x="3080" y="2113.1055">PENDING</text><line style="stroke:#000000;stroke-width:0.5;" x1="3075" x2="3163" y1="2120.6191" y2="2120.6191"/></g><!--class ApplicationService--><g id="elem_ApplicationService"><rect codeLine="94" fill="#FFFFFF" height="196.9688" id="ApplicationService" rx="2.5" ry="2.5" style="stroke:#000000;stroke-width:0.5;" width="689" x="2600.5" y="998.6348"/><ellipse cx="2882.75" cy="1014.6348" fill="#ADD1B2" rx="11" ry="11" style="stroke:#181818;stroke-width:1.0;"/><path d="M2885.5156,1010.5098 Q2885.6719,1010.291 2885.8594,1010.1816 Q2886.0469,1010.0723 2886.2656,1010.0723 Q2886.6406,1010.0723 2886.875,1010.3379 Q2887.1094,1010.5879 2887.1094,1011.1973 L2887.1094,1012.6504 Q2887.1094,1013.2598 2886.875,1013.5254 Q2886.6406,1013.791 2886.2656,1013.791 Q2885.9219,1013.791 2885.7188,1013.5879 Q2885.5156,1013.4004 2885.4063,1012.8848 Q2885.3594,1012.5254 2885.1719,1012.3379 Q2884.8438,1011.9629 2884.2344,1011.7441 Q2883.625,1011.5254 2883,1011.5254 Q2882.2344,1011.5254 2881.5938,1011.8535 Q2880.9688,1012.1816 2880.4688,1012.9316 Q2879.9844,1013.6816 2879.9844,1014.7129 L2879.9844,1015.8066 Q2879.9844,1017.041 2880.875,1017.8691 Q2881.7656,1018.6816 2883.3594,1018.6816 Q2884.2969,1018.6816 2884.9531,1018.4316 Q2885.3438,1018.2754 2885.7656,1017.8379 Q2886.0313,1017.5723 2886.1719,1017.4941 Q2886.3281,1017.416 2886.5313,1017.416 Q2886.8594,1017.416 2887.1094,1017.6816 Q2887.375,1017.9316 2887.375,1018.2754 Q2887.375,1018.6191 2887.0313,1019.0254 Q2886.5313,1019.6035 2885.7344,1019.9316 Q2884.6563,1020.3848 2883.3594,1020.3848 Q2881.8438,1020.3848 2880.6406,1019.7598 Q2879.6563,1019.2598 2878.9688,1018.1973 Q2878.2813,1017.1191 2878.2813,1015.8379 L2878.2813,1014.6816 Q2878.2813,1013.3535 2878.8906,1012.2129 Q2879.5156,1011.0566 2880.6094,1010.4473 Q2881.7031,1009.8223 2882.9375,1009.8223 Q2883.6719,1009.8223 2884.3125,1009.9941 Q2884.9688,1010.1504 2885.5156,1010.5098 Z " fill="#000000"/><text fill="#000000" font-family="sans-serif" font-size="14" lengthAdjust="spacing" textLength="116" x="2903.25" y="1020.4316">ApplicationService</text><line style="stroke:#000000;stroke-width:0.5;" x1="2601.5" x2="3288.5" y1="1030.6348" y2="1030.6348"/><line style="stroke:#000000;stroke-width:0.5;" x1="2601.5" x2="3288.5" y1="1038.6348" y2="1038.6348"/><ellipse cx="2611.5" cy="1053.4453" fill="#84BE84" rx="3" ry="3" style="stroke:#038048;stroke-width:1.0;"/><text fill="#000000" font-family="sans-serif" font-size="14" lengthAdjust="spacing" textLength="663" x="2620.5" y="1057.7422">registerApplication(rank, submissionDate, jobOpening, candidate, applicationFiles, operator) : Application</text><ellipse cx="2611.5" cy="1072.0664" fill="#84BE84" rx="3" ry="3" style="stroke:#038048;stroke-width:1.0;"/><text fill="#000000" font-family="sans-serif" font-size="14" lengthAdjust="spacing" textLength="223" x="2620.5" y="1076.3633">findApplicationByID(id) : Application</text><ellipse cx="2611.5" cy="1090.6875" fill="#84BE84" rx="3" ry="3" style="stroke:#038048;stroke-width:1.0;"/><text fill="#000000" font-family="sans-serif" font-size="14" lengthAdjust="spacing" textLength="244" x="2620.5" y="1094.9844">allApplications() : Iterable&lt;Application&gt;</text><ellipse cx="2611.5" cy="1109.3086" fill="#84BE84" rx="3" ry="3" style="stroke:#038048;stroke-width:1.0;"/><text fill="#000000" font-family="sans-serif" font-size="14" lengthAdjust="spacing" textLength="417" x="2620.5" y="1113.6055">findApplicationForJobOpening(jobOpening) : Iterable&lt;Application&gt;</text><ellipse cx="2611.5" cy="1127.9297" fill="#84BE84" rx="3" ry="3" style="stroke:#038048;stroke-width:1.0;"/><text fill="#000000" font-family="sans-serif" font-size="14" lengthAdjust="spacing" textLength="389" x="2620.5" y="1132.2266">findApplicationByCandidate(candidate) : Iterable&lt;Application&gt;</text><ellipse cx="2611.5" cy="1146.5508" fill="#84BE84" rx="3" ry="3" style="stroke:#038048;stroke-width:1.0;"/><text fill="#000000" font-family="sans-serif" font-size="14" lengthAdjust="spacing" textLength="272" x="2620.5" y="1150.8477">updateRank(rank, application) : Application</text><ellipse cx="2611.5" cy="1165.1719" fill="#84BE84" rx="3" ry="3" style="stroke:#038048;stroke-width:1.0;"/><text fill="#000000" font-family="sans-serif" font-size="14" lengthAdjust="spacing" textLength="373" x="2620.5" y="1169.4688">applicationByCM(customerManager) : Iterable&lt;Application&gt;</text><ellipse cx="2611.5" cy="1183.793" fill="#84BE84" rx="3" ry="3" style="stroke:#038048;stroke-width:1.0;"/><text fill="#000000" font-family="sans-serif" font-size="14" lengthAdjust="spacing" textLength="347" x="2620.5" y="1188.0898">numberOfApplicationsForJobOpening(jobOpening) : int</text></g><!--class ApplicationRepository--><g id="elem_ApplicationRepository"><rect codeLine="107" fill="#FFFFFF" height="85.2422" id="ApplicationRepository" rx="2.5" ry="2.5" style="stroke:#000000;stroke-width:0.5;" width="256" x="3350" y="1553.6348"/><ellipse cx="3405.25" cy="1569.6348" fill="#B4A7E5" rx="11" ry="11" style="stroke:#181818;stroke-width:1.0;"/><path d="M3406.2031,1566.2754 L3406.2031,1572.9316 L3407.9219,1572.9316 Q3408.5313,1572.9316 3408.7969,1573.166 Q3409.0625,1573.4004 3409.0625,1573.791 Q3409.0625,1574.166 3408.7969,1574.4004 Q3408.5313,1574.6348 3407.9219,1574.6348 L3402.7813,1574.6348 Q3402.1719,1574.6348 3401.9063,1574.4004 Q3401.6406,1574.166 3401.6406,1573.7754 Q3401.6406,1573.4004 3401.9063,1573.166 Q3402.1719,1572.9316 3402.7813,1572.9316 L3404.5,1572.9316 L3404.5,1566.2754 L3402.7813,1566.2754 Q3402.1719,1566.2754 3401.9063,1566.041 Q3401.6406,1565.8066 3401.6406,1565.416 Q3401.6406,1565.041 3401.9063,1564.8066 Q3402.1719,1564.5723 3402.7813,1564.5723 L3407.9219,1564.5723 Q3408.5313,1564.5723 3408.7969,1564.8066 Q3409.0625,1565.041 3409.0625,1565.416 Q3409.0625,1565.8066 3408.7969,1566.041 Q3408.5313,1566.2754 3407.9219,1566.2754 L3406.2031,1566.2754 Z " fill="#000000"/><text fill="#000000" font-family="sans-serif" font-size="14" font-style="italic" lengthAdjust="spacing" textLength="137" x="3425.75" y="1575.4316">ApplicationRepository</text><line style="stroke:#000000;stroke-width:0.5;" x1="3351" x2="3605" y1="1585.6348" y2="1585.6348"/><line style="stroke:#000000;stroke-width:0.5;" x1="3351" x2="3605" y1="1593.6348" y2="1593.6348"/><text fill="#000000" font-family="sans-serif" font-size="14" lengthAdjust="spacing" textLength="244" x="3356" y="1612.7422">allApplications() : Iterable&lt;Application&gt;</text><text fill="#000000" font-family="sans-serif" font-size="14" lengthAdjust="spacing" textLength="159" x="3356" y="1631.3633">ofIdentity(id) : Application</text></g><!--class Candidate--><g id="elem_Candidate"><rect codeLine="116" fill="#FFFFFF" height="252.832" id="Candidate" rx="2.5" ry="2.5" style="stroke:#000000;stroke-width:0.5;" width="399" x="470.5" y="1940.6348"/><ellipse cx="633.25" cy="1956.6348" fill="#ADD1B2" rx="11" ry="11" style="stroke:#181818;stroke-width:1.0;"/><path d="M636.0156,1952.5098 Q636.1719,1952.291 636.3594,1952.1816 Q636.5469,1952.0723 636.7656,1952.0723 Q637.1406,1952.0723 637.375,1952.3379 Q637.6094,1952.5879 637.6094,1953.1973 L637.6094,1954.6504 Q637.6094,1955.2598 637.375,1955.5254 Q637.1406,1955.791 636.7656,1955.791 Q636.4219,1955.791 636.2188,1955.5879 Q636.0156,1955.4004 635.9063,1954.8848 Q635.8594,1954.5254 635.6719,1954.3379 Q635.3438,1953.9629 634.7344,1953.7441 Q634.125,1953.5254 633.5,1953.5254 Q632.7344,1953.5254 632.0938,1953.8535 Q631.4688,1954.1816 630.9688,1954.9316 Q630.4844,1955.6816 630.4844,1956.7129 L630.4844,1957.8066 Q630.4844,1959.041 631.375,1959.8691 Q632.2656,1960.6816 633.8594,1960.6816 Q634.7969,1960.6816 635.4531,1960.4316 Q635.8438,1960.2754 636.2656,1959.8379 Q636.5313,1959.5723 636.6719,1959.4941 Q636.8281,1959.416 637.0313,1959.416 Q637.3594,1959.416 637.6094,1959.6816 Q637.875,1959.9316 637.875,1960.2754 Q637.875,1960.6191 637.5313,1961.0254 Q637.0313,1961.6035 636.2344,1961.9316 Q635.1563,1962.3848 633.8594,1962.3848 Q632.3438,1962.3848 631.1406,1961.7598 Q630.1563,1961.2598 629.4688,1960.1973 Q628.7813,1959.1191 628.7813,1957.8379 L628.7813,1956.6816 Q628.7813,1955.3535 629.3906,1954.2129 Q630.0156,1953.0566 631.1094,1952.4473 Q632.2031,1951.8223 633.4375,1951.8223 Q634.1719,1951.8223 634.8125,1951.9941 Q635.4688,1952.1504 636.0156,1952.5098 Z " fill="#000000"/><text fill="#000000" font-family="sans-serif" font-size="14" lengthAdjust="spacing" textLength="65" x="653.75" y="1962.4316">Candidate</text><line style="stroke:#000000;stroke-width:0.5;" x1="471.5" x2="868.5" y1="1972.6348" y2="1972.6348"/><rect fill="none" height="6" style="stroke:#C82930;stroke-width:1.0;" width="6" x="478.5" y="1984.4453"/><text fill="#000000" font-family="sans-serif" font-size="14" lengthAdjust="spacing" textLength="241" x="490.5" y="1991.7422">telephoneNumber : TelephoneNumber</text><rect fill="none" height="6" style="stroke:#C82930;stroke-width:1.0;" width="6" x="478.5" y="2003.0664"/><text fill="#000000" font-family="sans-serif" font-size="14" lengthAdjust="spacing" textLength="145" x="490.5" y="2010.3633">curriculum : Curriculum</text><rect fill="none" height="6" style="stroke:#C82930;stroke-width:1.0;" width="6" x="478.5" y="2021.6875"/><text fill="#000000" font-family="sans-serif" font-size="14" lengthAdjust="spacing" textLength="115" x="490.5" y="2028.9844">user : SystemUser</text><line style="stroke:#000000;stroke-width:0.5;" x1="471.5" x2="868.5" y1="2036.498" y2="2036.498"/><ellipse cx="481.5" cy="2051.3086" fill="#84BE84" rx="3" ry="3" style="stroke:#038048;stroke-width:1.0;"/><text fill="#000000" font-family="sans-serif" font-size="14" lengthAdjust="spacing" textLength="373" x="490.5" y="2055.6055">Candidate(user, telephoneNumber, curriculum) : Candidate</text><text fill="#000000" font-family="sans-serif" font-size="14" lengthAdjust="spacing" textLength="75" x="490.5" y="2074.2266">Candidate()</text><ellipse cx="481.5" cy="2088.5508" fill="#84BE84" rx="3" ry="3" style="stroke:#038048;stroke-width:1.0;"/><text fill="#000000" font-family="sans-serif" font-size="14" lengthAdjust="spacing" textLength="155" x="490.5" y="2092.8477">curriculum() : Curriculum</text><ellipse cx="481.5" cy="2107.1719" fill="#84BE84" rx="3" ry="3" style="stroke:#038048;stroke-width:1.0;"/><text fill="#000000" font-family="sans-serif" font-size="14" lengthAdjust="spacing" textLength="125" x="490.5" y="2111.4688">user() : SystemUser</text><ellipse cx="481.5" cy="2125.793" fill="#84BE84" rx="3" ry="3" style="stroke:#038048;stroke-width:1.0;"/><text fill="#000000" font-family="sans-serif" font-size="14" lengthAdjust="spacing" textLength="153" x="490.5" y="2130.0898">identity() : EmailAddress</text><ellipse cx="481.5" cy="2144.4141" fill="#84BE84" rx="3" ry="3" style="stroke:#038048;stroke-width:1.0;"/><text fill="#000000" font-family="sans-serif" font-size="14" lengthAdjust="spacing" textLength="189" x="490.5" y="2148.7109">equals(otherObject) : boolean</text><ellipse cx="481.5" cy="2163.0352" fill="#84BE84" rx="3" ry="3" style="stroke:#038048;stroke-width:1.0;"/><text fill="#000000" font-family="sans-serif" font-size="14" lengthAdjust="spacing" textLength="197" x="490.5" y="2167.332">sameAs(otherObject) : boolean</text><ellipse cx="481.5" cy="2181.6563" fill="#84BE84" rx="3" ry="3" style="stroke:#038048;stroke-width:1.0;"/><text fill="#000000" font-family="sans-serif" font-size="14" lengthAdjust="spacing" textLength="108" x="490.5" y="2185.9531">toString() : String</text></g><g id="elem_GMN22"><path d="M904.5,2044.6348 L904.5,2063.6348 L869.62,2067.6348 L904.5,2071.6348 L904.5,2089.2168 A0,0 0 0 0 904.5,2089.2168 L1237.5,2089.2168 A0,0 0 0 0 1237.5,2089.2168 L1237.5,2054.6348 L1227.5,2044.6348 L904.5,2044.6348 A0,0 0 0 0 904.5,2044.6348 " fill="#FEFFDD" style="stroke:#181818;stroke-width:0.5;"/><path d="M1227.5,2044.6348 L1227.5,2054.6348 L1237.5,2054.6348 L1227.5,2044.6348 " fill="#FEFFDD" style="stroke:#181818;stroke-width:0.5;"/><text fill="#000000" font-family="sans-serif" font-size="13" lengthAdjust="spacing" textLength="312" x="910.5" y="2063.6631">- The SystemUser class is provided by the framework,</text><text fill="#000000" font-family="sans-serif" font-size="13" lengthAdjust="spacing" textLength="232" x="910.5" y="2080.9541">so that there's no need in representing it</text></g><!--class TelephoneNumber--><g id="elem_TelephoneNumber"><rect codeLine="135" fill="#FFFFFF" height="196.9688" id="TelephoneNumber" rx="2.5" ry="2.5" style="stroke:#000000;stroke-width:0.5;" width="394" x="471" y="2253.6348"/><ellipse cx="605.25" cy="2269.6348" fill="#ADD1B2" rx="11" ry="11" style="stroke:#181818;stroke-width:1.0;"/><path d="M608.0156,2265.5098 Q608.1719,2265.291 608.3594,2265.1816 Q608.5469,2265.0723 608.7656,2265.0723 Q609.1406,2265.0723 609.375,2265.3379 Q609.6094,2265.5879 609.6094,2266.1973 L609.6094,2267.6504 Q609.6094,2268.2598 609.375,2268.5254 Q609.1406,2268.791 608.7656,2268.791 Q608.4219,2268.791 608.2188,2268.5879 Q608.0156,2268.4004 607.9063,2267.8848 Q607.8594,2267.5254 607.6719,2267.3379 Q607.3438,2266.9629 606.7344,2266.7441 Q606.125,2266.5254 605.5,2266.5254 Q604.7344,2266.5254 604.0938,2266.8535 Q603.4688,2267.1816 602.9688,2267.9316 Q602.4844,2268.6816 602.4844,2269.7129 L602.4844,2270.8066 Q602.4844,2272.041 603.375,2272.8691 Q604.2656,2273.6816 605.8594,2273.6816 Q606.7969,2273.6816 607.4531,2273.4316 Q607.8438,2273.2754 608.2656,2272.8379 Q608.5313,2272.5723 608.6719,2272.4941 Q608.8281,2272.416 609.0313,2272.416 Q609.3594,2272.416 609.6094,2272.6816 Q609.875,2272.9316 609.875,2273.2754 Q609.875,2273.6191 609.5313,2274.0254 Q609.0313,2274.6035 608.2344,2274.9316 Q607.1563,2275.3848 605.8594,2275.3848 Q604.3438,2275.3848 603.1406,2274.7598 Q602.1563,2274.2598 601.4688,2273.1973 Q600.7813,2272.1191 600.7813,2270.8379 L600.7813,2269.6816 Q600.7813,2268.3535 601.3906,2267.2129 Q602.0156,2266.0566 603.1094,2265.4473 Q604.2031,2264.8223 605.4375,2264.8223 Q606.1719,2264.8223 606.8125,2264.9941 Q607.4688,2265.1504 608.0156,2265.5098 Z " fill="#000000"/><text fill="#000000" font-family="sans-serif" font-size="14" lengthAdjust="spacing" textLength="117" x="625.75" y="2275.4316">TelephoneNumber</text><line style="stroke:#000000;stroke-width:0.5;" x1="472" x2="864" y1="2285.6348" y2="2285.6348"/><rect fill="none" height="6" style="stroke:#C82930;stroke-width:1.0;" width="6" x="479" y="2297.4453"/><text fill="#000000" font-family="sans-serif" font-size="14" lengthAdjust="spacing" textLength="161" x="491" y="2304.7422">telephoneNumber : String</text><line style="stroke:#000000;stroke-width:0.5;" x1="472" x2="864" y1="2312.2559" y2="2312.2559"/><ellipse cx="482" cy="2327.0664" fill="#84BE84" rx="3" ry="3" style="stroke:#038048;stroke-width:1.0;"/><text fill="#000000" font-family="sans-serif" font-size="14" lengthAdjust="spacing" textLength="368" x="491" y="2331.3633">TelephoneNumber(telephoneNumber) : TelephoneNumber</text><text fill="#000000" font-family="sans-serif" font-size="14" lengthAdjust="spacing" textLength="127" x="491" y="2349.9844">TelephoneNumber()</text><ellipse cx="482" cy="2364.3086" fill="#84BE84" rx="3" ry="3" style="stroke:#038048;stroke-width:1.0;"/><text fill="#000000" font-family="sans-serif" font-size="14" lengthAdjust="spacing" textLength="300" x="491" y="2368.6055">valueOf(telephoneNumber) : TelephoneNumber</text><ellipse cx="482" cy="2382.9297" fill="#84BE84" rx="3" ry="3" style="stroke:#038048;stroke-width:1.0;"/><text fill="#000000" font-family="sans-serif" font-size="14" lengthAdjust="spacing" textLength="189" x="491" y="2387.2266">equals(otherObject) : boolean</text><ellipse cx="482" cy="2401.5508" fill="#84BE84" rx="3" ry="3" style="stroke:#038048;stroke-width:1.0;"/><text fill="#000000" font-family="sans-serif" font-size="14" lengthAdjust="spacing" textLength="102" x="491" y="2405.8477">hashCode() : int</text><ellipse cx="482" cy="2420.1719" fill="#84BE84" rx="3" ry="3" style="stroke:#038048;stroke-width:1.0;"/><text fill="#000000" font-family="sans-serif" font-size="14" lengthAdjust="spacing" textLength="108" x="491" y="2424.4688">toString() : String</text><ellipse cx="482" cy="2438.793" fill="#84BE84" rx="3" ry="3" style="stroke:#038048;stroke-width:1.0;"/><text fill="#000000" font-family="sans-serif" font-size="14" lengthAdjust="spacing" textLength="183" x="491" y="2443.0898">compareTo(otherObject) : int</text></g><!--class Curriculum--><g id="elem_Curriculum"><rect codeLine="146" fill="#FFFFFF" height="159.7266" id="Curriculum" rx="2.5" ry="2.5" style="stroke:#000000;stroke-width:0.5;" width="278" x="900" y="2272.1348"/><ellipse cx="1000.75" cy="2288.1348" fill="#ADD1B2" rx="11" ry="11" style="stroke:#181818;stroke-width:1.0;"/><path d="M1003.5156,2284.0098 Q1003.6719,2283.791 1003.8594,2283.6816 Q1004.0469,2283.5723 1004.2656,2283.5723 Q1004.6406,2283.5723 1004.875,2283.8379 Q1005.1094,2284.0879 1005.1094,2284.6973 L1005.1094,2286.1504 Q1005.1094,2286.7598 1004.875,2287.0254 Q1004.6406,2287.291 1004.2656,2287.291 Q1003.9219,2287.291 1003.7188,2287.0879 Q1003.5156,2286.9004 1003.4063,2286.3848 Q1003.3594,2286.0254 1003.1719,2285.8379 Q1002.8438,2285.4629 1002.2344,2285.2441 Q1001.625,2285.0254 1001,2285.0254 Q1000.2344,2285.0254 999.5938,2285.3535 Q998.9688,2285.6816 998.4688,2286.4316 Q997.9844,2287.1816 997.9844,2288.2129 L997.9844,2289.3066 Q997.9844,2290.541 998.875,2291.3691 Q999.7656,2292.1816 1001.3594,2292.1816 Q1002.2969,2292.1816 1002.9531,2291.9316 Q1003.3438,2291.7754 1003.7656,2291.3379 Q1004.0313,2291.0723 1004.1719,2290.9941 Q1004.3281,2290.916 1004.5313,2290.916 Q1004.8594,2290.916 1005.1094,2291.1816 Q1005.375,2291.4316 1005.375,2291.7754 Q1005.375,2292.1191 1005.0313,2292.5254 Q1004.5313,2293.1035 1003.7344,2293.4316 Q1002.6563,2293.8848 1001.3594,2293.8848 Q999.8438,2293.8848 998.6406,2293.2598 Q997.6563,2292.7598 996.9688,2291.6973 Q996.2813,2290.6191 996.2813,2289.3379 L996.2813,2288.1816 Q996.2813,2286.8535 996.8906,2285.7129 Q997.5156,2284.5566 998.6094,2283.9473 Q999.7031,2283.3223 1000.9375,2283.3223 Q1001.6719,2283.3223 1002.3125,2283.4941 Q1002.9688,2283.6504 1003.5156,2284.0098 Z " fill="#000000"/><text fill="#000000" font-family="sans-serif" font-size="14" lengthAdjust="spacing" textLength="68" x="1021.25" y="2293.9316">Curriculum</text><line style="stroke:#000000;stroke-width:0.5;" x1="901" x2="1177" y1="2304.1348" y2="2304.1348"/><rect fill="none" height="6" style="stroke:#C82930;stroke-width:1.0;" width="6" x="908" y="2315.9453"/><text fill="#000000" font-family="sans-serif" font-size="14" lengthAdjust="spacing" textLength="143" x="920" y="2323.2422">curriculumPath : String</text><line style="stroke:#000000;stroke-width:0.5;" x1="901" x2="1177" y1="2330.7559" y2="2330.7559"/><ellipse cx="911" cy="2345.5664" fill="#84BE84" rx="3" ry="3" style="stroke:#038048;stroke-width:1.0;"/><text fill="#000000" font-family="sans-serif" font-size="14" lengthAdjust="spacing" textLength="252" x="920" y="2349.8633">Curriculum(curriculumPath) : Curriculum</text><text fill="#000000" font-family="sans-serif" font-size="14" lengthAdjust="spacing" textLength="78" x="920" y="2368.4844">Curriculum()</text><ellipse cx="911" cy="2382.8086" fill="#84BE84" rx="3" ry="3" style="stroke:#038048;stroke-width:1.0;"/><text fill="#000000" font-family="sans-serif" font-size="14" lengthAdjust="spacing" textLength="189" x="920" y="2387.1055">equals(otherObject) : boolean</text><ellipse cx="911" cy="2401.4297" fill="#84BE84" rx="3" ry="3" style="stroke:#038048;stroke-width:1.0;"/><text fill="#000000" font-family="sans-serif" font-size="14" lengthAdjust="spacing" textLength="102" x="920" y="2405.7266">hashCode() : int</text><ellipse cx="911" cy="2420.0508" fill="#84BE84" rx="3" ry="3" style="stroke:#038048;stroke-width:1.0;"/><text fill="#000000" font-family="sans-serif" font-size="14" lengthAdjust="spacing" textLength="108" x="920" y="2424.3477">toString() : String</text></g><!--class CandidateService--><g id="elem_CandidateService"><rect codeLine="157" fill="#FFFFFF" height="141.1055" id="CandidateService" rx="2.5" ry="2.5" style="stroke:#000000;stroke-width:0.5;" width="447" x="246.5" y="1525.6348"/><ellipse cx="409.75" cy="1541.6348" fill="#ADD1B2" rx="11" ry="11" style="stroke:#181818;stroke-width:1.0;"/><path d="M412.5156,1537.5098 Q412.6719,1537.291 412.8594,1537.1816 Q413.0469,1537.0723 413.2656,1537.0723 Q413.6406,1537.0723 413.875,1537.3379 Q414.1094,1537.5879 414.1094,1538.1973 L414.1094,1539.6504 Q414.1094,1540.2598 413.875,1540.5254 Q413.6406,1540.791 413.2656,1540.791 Q412.9219,1540.791 412.7188,1540.5879 Q412.5156,1540.4004 412.4063,1539.8848 Q412.3594,1539.5254 412.1719,1539.3379 Q411.8438,1538.9629 411.2344,1538.7441 Q410.625,1538.5254 410,1538.5254 Q409.2344,1538.5254 408.5938,1538.8535 Q407.9688,1539.1816 407.4688,1539.9316 Q406.9844,1540.6816 406.9844,1541.7129 L406.9844,1542.8066 Q406.9844,1544.041 407.875,1544.8691 Q408.7656,1545.6816 410.3594,1545.6816 Q411.2969,1545.6816 411.9531,1545.4316 Q412.3438,1545.2754 412.7656,1544.8379 Q413.0313,1544.5723 413.1719,1544.4941 Q413.3281,1544.416 413.5313,1544.416 Q413.8594,1544.416 414.1094,1544.6816 Q414.375,1544.9316 414.375,1545.2754 Q414.375,1545.6191 414.0313,1546.0254 Q413.5313,1546.6035 412.7344,1546.9316 Q411.6563,1547.3848 410.3594,1547.3848 Q408.8438,1547.3848 407.6406,1546.7598 Q406.6563,1546.2598 405.9688,1545.1973 Q405.2813,1544.1191 405.2813,1542.8379 L405.2813,1541.6816 Q405.2813,1540.3535 405.8906,1539.2129 Q406.5156,1538.0566 407.6094,1537.4473 Q408.7031,1536.8223 409.9375,1536.8223 Q410.6719,1536.8223 411.3125,1536.9941 Q411.9688,1537.1504 412.5156,1537.5098 Z " fill="#000000"/><text fill="#000000" font-family="sans-serif" font-size="14" lengthAdjust="spacing" textLength="112" x="430.25" y="1547.4316">CandidateService</text><line style="stroke:#000000;stroke-width:0.5;" x1="247.5" x2="692.5" y1="1557.6348" y2="1557.6348"/><line style="stroke:#000000;stroke-width:0.5;" x1="247.5" x2="692.5" y1="1565.6348" y2="1565.6348"/><ellipse cx="257.5" cy="1580.4453" fill="#84BE84" rx="3" ry="3" style="stroke:#038048;stroke-width:1.0;"/><text fill="#000000" font-family="sans-serif" font-size="14" lengthAdjust="spacing" textLength="421" x="266.5" y="1584.7422">registerCandidate(user, telephoneNumber, curriculum) : Candidate</text><ellipse cx="257.5" cy="1599.0664" fill="#84BE84" rx="3" ry="3" style="stroke:#038048;stroke-width:1.0;"/><text fill="#000000" font-family="sans-serif" font-size="14" lengthAdjust="spacing" textLength="236" x="266.5" y="1603.3633">allCandidates() : Iterable&lt;Candidate&gt;</text><ellipse cx="257.5" cy="1617.6875" fill="#84BE84" rx="3" ry="3" style="stroke:#038048;stroke-width:1.0;"/><text fill="#000000" font-family="sans-serif" font-size="14" lengthAdjust="spacing" textLength="420" x="266.5" y="1621.9844">findCandidateByTelephoneNumber(telephoneNumber) : Candidate</text><ellipse cx="257.5" cy="1636.3086" fill="#84BE84" rx="3" ry="3" style="stroke:#038048;stroke-width:1.0;"/><text fill="#000000" font-family="sans-serif" font-size="14" lengthAdjust="spacing" textLength="310" x="266.5" y="1640.6055">findCandidateByEmail(emailAddress) : Candidate</text><ellipse cx="257.5" cy="1654.9297" fill="#84BE84" rx="3" ry="3" style="stroke:#038048;stroke-width:1.0;"/><text fill="#000000" font-family="sans-serif" font-size="14" lengthAdjust="spacing" textLength="248" x="266.5" y="1659.2266">findCandidateByUser(user) : Candidate</text></g><!--class CandidateRepository--><g id="elem_CandidateRepository"><rect codeLine="167" fill="#FFFFFF" height="85.2422" id="CandidateRepository" rx="2.5" ry="2.5" style="stroke:#000000;stroke-width:0.5;" width="367" x="46.5" y="2024.6348"/><ellipse cx="159.25" cy="2040.6348" fill="#B4A7E5" rx="11" ry="11" style="stroke:#181818;stroke-width:1.0;"/><path d="M160.2031,2037.2754 L160.2031,2043.9316 L161.9219,2043.9316 Q162.5313,2043.9316 162.7969,2044.166 Q163.0625,2044.4004 163.0625,2044.791 Q163.0625,2045.166 162.7969,2045.4004 Q162.5313,2045.6348 161.9219,2045.6348 L156.7813,2045.6348 Q156.1719,2045.6348 155.9063,2045.4004 Q155.6406,2045.166 155.6406,2044.7754 Q155.6406,2044.4004 155.9063,2044.166 Q156.1719,2043.9316 156.7813,2043.9316 L158.5,2043.9316 L158.5,2037.2754 L156.7813,2037.2754 Q156.1719,2037.2754 155.9063,2037.041 Q155.6406,2036.8066 155.6406,2036.416 Q155.6406,2036.041 155.9063,2035.8066 Q156.1719,2035.5723 156.7813,2035.5723 L161.9219,2035.5723 Q162.5313,2035.5723 162.7969,2035.8066 Q163.0625,2036.041 163.0625,2036.416 Q163.0625,2036.8066 162.7969,2037.041 Q162.5313,2037.2754 161.9219,2037.2754 L160.2031,2037.2754 Z " fill="#000000"/><text fill="#000000" font-family="sans-serif" font-size="14" font-style="italic" lengthAdjust="spacing" textLength="133" x="179.75" y="2046.4316">CandidateRepository</text><line style="stroke:#000000;stroke-width:0.5;" x1="47.5" x2="412.5" y1="2056.6348" y2="2056.6348"/><line style="stroke:#000000;stroke-width:0.5;" x1="47.5" x2="412.5" y1="2064.6348" y2="2064.6348"/><text fill="#000000" font-family="sans-serif" font-size="14" lengthAdjust="spacing" textLength="236" x="52.5" y="2083.7422">allCandidates() : Iterable&lt;Candidate&gt;</text><text fill="#000000" font-family="sans-serif" font-size="14" lengthAdjust="spacing" textLength="355" x="52.5" y="2102.3633">findByTelephoneNumber(telephoneNumber) : Candidate</text></g><!--class Notification--><g id="elem_Notification"><rect codeLine="177" fill="#FFFFFF" height="308.6953" id="Notification" rx="2.5" ry="2.5" style="stroke:#000000;stroke-width:0.5;" width="389" x="1342.5" y="942.6348"/><ellipse cx="1498.25" cy="958.6348" fill="#ADD1B2" rx="11" ry="11" style="stroke:#181818;stroke-width:1.0;"/><path d="M1501.0156,954.5098 Q1501.1719,954.291 1501.3594,954.1816 Q1501.5469,954.0723 1501.7656,954.0723 Q1502.1406,954.0723 1502.375,954.3379 Q1502.6094,954.5879 1502.6094,955.1973 L1502.6094,956.6504 Q1502.6094,957.2598 1502.375,957.5254 Q1502.1406,957.791 1501.7656,957.791 Q1501.4219,957.791 1501.2188,957.5879 Q1501.0156,957.4004 1500.9063,956.8848 Q1500.8594,956.5254 1500.6719,956.3379 Q1500.3438,955.9629 1499.7344,955.7441 Q1499.125,955.5254 1498.5,955.5254 Q1497.7344,955.5254 1497.0938,955.8535 Q1496.4688,956.1816 1495.9688,956.9316 Q1495.4844,957.6816 1495.4844,958.7129 L1495.4844,959.8066 Q1495.4844,961.041 1496.375,961.8691 Q1497.2656,962.6816 1498.8594,962.6816 Q1499.7969,962.6816 1500.4531,962.4316 Q1500.8438,962.2754 1501.2656,961.8379 Q1501.5313,961.5723 1501.6719,961.4941 Q1501.8281,961.416 1502.0313,961.416 Q1502.3594,961.416 1502.6094,961.6816 Q1502.875,961.9316 1502.875,962.2754 Q1502.875,962.6191 1502.5313,963.0254 Q1502.0313,963.6035 1501.2344,963.9316 Q1500.1563,964.3848 1498.8594,964.3848 Q1497.3438,964.3848 1496.1406,963.7598 Q1495.1563,963.2598 1494.4688,962.1973 Q1493.7813,961.1191 1493.7813,959.8379 L1493.7813,958.6816 Q1493.7813,957.3535 1494.3906,956.2129 Q1495.0156,955.0566 1496.1094,954.4473 Q1497.2031,953.8223 1498.4375,953.8223 Q1499.1719,953.8223 1499.8125,953.9941 Q1500.4688,954.1504 1501.0156,954.5098 Z " fill="#000000"/><text fill="#000000" font-family="sans-serif" font-size="14" lengthAdjust="spacing" textLength="69" x="1518.75" y="964.4316">Notification</text><line style="stroke:#000000;stroke-width:0.5;" x1="1343.5" x2="1730.5" y1="974.6348" y2="974.6348"/><rect fill="none" height="6" style="stroke:#C82930;stroke-width:1.0;" width="6" x="1350.5" y="986.4453"/><text fill="#000000" font-family="sans-serif" font-size="14" lengthAdjust="spacing" textLength="38" x="1362.5" y="993.7422">id : int</text><rect fill="none" height="6" style="stroke:#C82930;stroke-width:1.0;" width="6" x="1350.5" y="1005.0664"/><text fill="#000000" font-family="sans-serif" font-size="14" lengthAdjust="spacing" textLength="149" x="1362.5" y="1012.3633">application : Application</text><rect fill="none" height="6" style="stroke:#C82930;stroke-width:1.0;" width="6" x="1350.5" y="1023.6875"/><text fill="#000000" font-family="sans-serif" font-size="14" lengthAdjust="spacing" textLength="126" x="1362.5" y="1030.9844">message : Message</text><rect fill="none" height="6" style="stroke:#C82930;stroke-width:1.0;" width="6" x="1350.5" y="1042.3086"/><text fill="#000000" font-family="sans-serif" font-size="14" lengthAdjust="spacing" textLength="139" x="1362.5" y="1049.6055">candidate : Candidate</text><line style="stroke:#000000;stroke-width:0.5;" x1="1343.5" x2="1730.5" y1="1057.1191" y2="1057.1191"/><text fill="#000000" font-family="sans-serif" font-size="14" lengthAdjust="spacing" textLength="79" x="1362.5" y="1076.2266">Notification()</text><ellipse cx="1353.5" cy="1090.5508" fill="#84BE84" rx="3" ry="3" style="stroke:#038048;stroke-width:1.0;"/><text fill="#000000" font-family="sans-serif" font-size="14" lengthAdjust="spacing" textLength="363" x="1362.5" y="1094.8477">Notification(application, message, candidate) : Notification</text><ellipse cx="1353.5" cy="1109.1719" fill="#84BE84" rx="3" ry="3" style="stroke:#038048;stroke-width:1.0;"/><text fill="#000000" font-family="sans-serif" font-size="14" lengthAdjust="spacing" textLength="111" x="1362.5" y="1113.4688">identity() : Integer</text><ellipse cx="1353.5" cy="1127.793" fill="#84BE84" rx="3" ry="3" style="stroke:#038048;stroke-width:1.0;"/><text fill="#000000" font-family="sans-serif" font-size="14" lengthAdjust="spacing" textLength="159" x="1362.5" y="1132.0898">application() : Application</text><ellipse cx="1353.5" cy="1146.4141" fill="#84BE84" rx="3" ry="3" style="stroke:#038048;stroke-width:1.0;"/><text fill="#000000" font-family="sans-serif" font-size="14" lengthAdjust="spacing" textLength="136" x="1362.5" y="1150.7109">message() : Message</text><ellipse cx="1353.5" cy="1165.0352" fill="#84BE84" rx="3" ry="3" style="stroke:#038048;stroke-width:1.0;"/><text fill="#000000" font-family="sans-serif" font-size="14" lengthAdjust="spacing" textLength="149" x="1362.5" y="1169.332">candidate() : Candidate</text><ellipse cx="1353.5" cy="1183.6563" fill="#84BE84" rx="3" ry="3" style="stroke:#038048;stroke-width:1.0;"/><text fill="#000000" font-family="sans-serif" font-size="14" lengthAdjust="spacing" textLength="189" x="1362.5" y="1187.9531">equals(otherObject) : boolean</text><ellipse cx="1353.5" cy="1202.2773" fill="#84BE84" rx="3" ry="3" style="stroke:#038048;stroke-width:1.0;"/><text fill="#000000" font-family="sans-serif" font-size="14" lengthAdjust="spacing" textLength="197" x="1362.5" y="1206.5742">sameAs(otherObject) : boolean</text><ellipse cx="1353.5" cy="1220.8984" fill="#84BE84" rx="3" ry="3" style="stroke:#038048;stroke-width:1.0;"/><text fill="#000000" font-family="sans-serif" font-size="14" lengthAdjust="spacing" textLength="102" x="1362.5" y="1225.1953">hashCode() : int</text><ellipse cx="1353.5" cy="1239.5195" fill="#84BE84" rx="3" ry="3" style="stroke:#038048;stroke-width:1.0;"/><text fill="#000000" font-family="sans-serif" font-size="14" lengthAdjust="spacing" textLength="108" x="1362.5" y="1243.8164">toString() : String</text></g><!--class Message--><g id="elem_Message"><rect codeLine="193" fill="#FFFFFF" height="178.3477" id="Message" rx="2.5" ry="2.5" style="stroke:#000000;stroke-width:0.5;" width="219" x="1342.5" y="1507.1348"/><ellipse cx="1419.25" cy="1523.1348" fill="#ADD1B2" rx="11" ry="11" style="stroke:#181818;stroke-width:1.0;"/><path d="M1422.0156,1519.0098 Q1422.1719,1518.791 1422.3594,1518.6816 Q1422.5469,1518.5723 1422.7656,1518.5723 Q1423.1406,1518.5723 1423.375,1518.8379 Q1423.6094,1519.0879 1423.6094,1519.6973 L1423.6094,1521.1504 Q1423.6094,1521.7598 1423.375,1522.0254 Q1423.1406,1522.291 1422.7656,1522.291 Q1422.4219,1522.291 1422.2188,1522.0879 Q1422.0156,1521.9004 1421.9063,1521.3848 Q1421.8594,1521.0254 1421.6719,1520.8379 Q1421.3438,1520.4629 1420.7344,1520.2441 Q1420.125,1520.0254 1419.5,1520.0254 Q1418.7344,1520.0254 1418.0938,1520.3535 Q1417.4688,1520.6816 1416.9688,1521.4316 Q1416.4844,1522.1816 1416.4844,1523.2129 L1416.4844,1524.3066 Q1416.4844,1525.541 1417.375,1526.3691 Q1418.2656,1527.1816 1419.8594,1527.1816 Q1420.7969,1527.1816 1421.4531,1526.9316 Q1421.8438,1526.7754 1422.2656,1526.3379 Q1422.5313,1526.0723 1422.6719,1525.9941 Q1422.8281,1525.916 1423.0313,1525.916 Q1423.3594,1525.916 1423.6094,1526.1816 Q1423.875,1526.4316 1423.875,1526.7754 Q1423.875,1527.1191 1423.5313,1527.5254 Q1423.0313,1528.1035 1422.2344,1528.4316 Q1421.1563,1528.8848 1419.8594,1528.8848 Q1418.3438,1528.8848 1417.1406,1528.2598 Q1416.1563,1527.7598 1415.4688,1526.6973 Q1414.7813,1525.6191 1414.7813,1524.3379 L1414.7813,1523.1816 Q1414.7813,1521.8535 1415.3906,1520.7129 Q1416.0156,1519.5566 1417.1094,1518.9473 Q1418.2031,1518.3223 1419.4375,1518.3223 Q1420.1719,1518.3223 1420.8125,1518.4941 Q1421.4688,1518.6504 1422.0156,1519.0098 Z " fill="#000000"/><text fill="#000000" font-family="sans-serif" font-size="14" lengthAdjust="spacing" textLength="57" x="1439.75" y="1528.9316">Message</text><line style="stroke:#000000;stroke-width:0.5;" x1="1343.5" x2="1560.5" y1="1539.1348" y2="1539.1348"/><rect fill="none" height="6" style="stroke:#C82930;stroke-width:1.0;" width="6" x="1350.5" y="1550.9453"/><text fill="#000000" font-family="sans-serif" font-size="14" lengthAdjust="spacing" textLength="106" x="1362.5" y="1558.2422">message : String</text><line style="stroke:#000000;stroke-width:0.5;" x1="1343.5" x2="1560.5" y1="1565.7559" y2="1565.7559"/><ellipse cx="1353.5" cy="1580.5664" fill="#84BE84" rx="3" ry="3" style="stroke:#038048;stroke-width:1.0;"/><text fill="#000000" font-family="sans-serif" font-size="14" lengthAdjust="spacing" textLength="193" x="1362.5" y="1584.8633">Message(message) : Message</text><text fill="#000000" font-family="sans-serif" font-size="14" lengthAdjust="spacing" textLength="67" x="1362.5" y="1603.4844">Message()</text><ellipse cx="1353.5" cy="1617.8086" fill="#84BE84" rx="3" ry="3" style="stroke:#038048;stroke-width:1.0;"/><text fill="#000000" font-family="sans-serif" font-size="14" lengthAdjust="spacing" textLength="185" x="1362.5" y="1622.1055">valueOf(message) : Message</text><ellipse cx="1353.5" cy="1636.4297" fill="#84BE84" rx="3" ry="3" style="stroke:#038048;stroke-width:1.0;"/><text fill="#000000" font-family="sans-serif" font-size="14" lengthAdjust="spacing" textLength="189" x="1362.5" y="1640.7266">equals(otherObject) : boolean</text><ellipse cx="1353.5" cy="1655.0508" fill="#84BE84" rx="3" ry="3" style="stroke:#038048;stroke-width:1.0;"/><text fill="#000000" font-family="sans-serif" font-size="14" lengthAdjust="spacing" textLength="102" x="1362.5" y="1659.3477">hashCode() : int</text><ellipse cx="1353.5" cy="1673.6719" fill="#84BE84" rx="3" ry="3" style="stroke:#038048;stroke-width:1.0;"/><text fill="#000000" font-family="sans-serif" font-size="14" lengthAdjust="spacing" textLength="108" x="1362.5" y="1677.9688">toString() : String</text></g><!--class NotificationBuilder--><g id="elem_NotificationBuilder"><rect codeLine="202" fill="#FFFFFF" height="141.1055" id="NotificationBuilder" rx="2.5" ry="2.5" style="stroke:#000000;stroke-width:0.5;" width="359" x="1357.5" y="741.6348"/><ellipse cx="1476.25" cy="757.6348" fill="#ADD1B2" rx="11" ry="11" style="stroke:#181818;stroke-width:1.0;"/><path d="M1479.0156,753.5098 Q1479.1719,753.291 1479.3594,753.1816 Q1479.5469,753.0723 1479.7656,753.0723 Q1480.1406,753.0723 1480.375,753.3379 Q1480.6094,753.5879 1480.6094,754.1973 L1480.6094,755.6504 Q1480.6094,756.2598 1480.375,756.5254 Q1480.1406,756.791 1479.7656,756.791 Q1479.4219,756.791 1479.2188,756.5879 Q1479.0156,756.4004 1478.9063,755.8848 Q1478.8594,755.5254 1478.6719,755.3379 Q1478.3438,754.9629 1477.7344,754.7441 Q1477.125,754.5254 1476.5,754.5254 Q1475.7344,754.5254 1475.0938,754.8535 Q1474.4688,755.1816 1473.9688,755.9316 Q1473.4844,756.6816 1473.4844,757.7129 L1473.4844,758.8066 Q1473.4844,760.041 1474.375,760.8691 Q1475.2656,761.6816 1476.8594,761.6816 Q1477.7969,761.6816 1478.4531,761.4316 Q1478.8438,761.2754 1479.2656,760.8379 Q1479.5313,760.5723 1479.6719,760.4941 Q1479.8281,760.416 1480.0313,760.416 Q1480.3594,760.416 1480.6094,760.6816 Q1480.875,760.9316 1480.875,761.2754 Q1480.875,761.6191 1480.5313,762.0254 Q1480.0313,762.6035 1479.2344,762.9316 Q1478.1563,763.3848 1476.8594,763.3848 Q1475.3438,763.3848 1474.1406,762.7598 Q1473.1563,762.2598 1472.4688,761.1973 Q1471.7813,760.1191 1471.7813,758.8379 L1471.7813,757.6816 Q1471.7813,756.3535 1472.3906,755.2129 Q1473.0156,754.0566 1474.1094,753.4473 Q1475.2031,752.8223 1476.4375,752.8223 Q1477.1719,752.8223 1477.8125,752.9941 Q1478.4688,753.1504 1479.0156,753.5098 Z " fill="#000000"/><text fill="#000000" font-family="sans-serif" font-size="14" lengthAdjust="spacing" textLength="113" x="1496.75" y="763.4316">NotificationBuilder</text><line style="stroke:#000000;stroke-width:0.5;" x1="1358.5" x2="1715.5" y1="773.6348" y2="773.6348"/><rect fill="none" height="6" style="stroke:#C82930;stroke-width:1.0;" width="6" x="1365.5" y="785.4453"/><text fill="#000000" font-family="sans-serif" font-size="14" lengthAdjust="spacing" textLength="149" x="1377.5" y="792.7422">application : Application</text><rect fill="none" height="6" style="stroke:#C82930;stroke-width:1.0;" width="6" x="1365.5" y="804.0664"/><text fill="#000000" font-family="sans-serif" font-size="14" lengthAdjust="spacing" textLength="126" x="1377.5" y="811.3633">message : Message</text><rect fill="none" height="6" style="stroke:#C82930;stroke-width:1.0;" width="6" x="1365.5" y="822.6875"/><text fill="#000000" font-family="sans-serif" font-size="14" lengthAdjust="spacing" textLength="139" x="1377.5" y="829.9844">candidate : Candidate</text><line style="stroke:#000000;stroke-width:0.5;" x1="1358.5" x2="1715.5" y1="837.498" y2="837.498"/><ellipse cx="1368.5" cy="852.3086" fill="#84BE84" rx="3" ry="3" style="stroke:#038048;stroke-width:1.0;"/><text fill="#000000" font-family="sans-serif" font-size="14" lengthAdjust="spacing" textLength="333" x="1377.5" y="856.6055">withAll(application, message, candidate) : Notification</text><ellipse cx="1368.5" cy="870.9297" fill="#84BE84" rx="3" ry="3" style="stroke:#038048;stroke-width:1.0;"/><text fill="#000000" font-family="sans-serif" font-size="14" lengthAdjust="spacing" textLength="121" x="1377.5" y="875.2266">build() : Notification</text></g><!--class NotificationService--><g id="elem_NotificationService"><rect codeLine="212" fill="#FFFFFF" height="103.8633" id="NotificationService" rx="2.5" ry="2.5" style="stroke:#000000;stroke-width:0.5;" width="837" x="1342.5" y="560.6348"/><ellipse cx="1698.75" cy="576.6348" fill="#ADD1B2" rx="11" ry="11" style="stroke:#181818;stroke-width:1.0;"/><path d="M1701.5156,572.5098 Q1701.6719,572.291 1701.8594,572.1816 Q1702.0469,572.0723 1702.2656,572.0723 Q1702.6406,572.0723 1702.875,572.3379 Q1703.1094,572.5879 1703.1094,573.1973 L1703.1094,574.6504 Q1703.1094,575.2598 1702.875,575.5254 Q1702.6406,575.791 1702.2656,575.791 Q1701.9219,575.791 1701.7188,575.5879 Q1701.5156,575.4004 1701.4063,574.8848 Q1701.3594,574.5254 1701.1719,574.3379 Q1700.8438,573.9629 1700.2344,573.7441 Q1699.625,573.5254 1699,573.5254 Q1698.2344,573.5254 1697.5938,573.8535 Q1696.9688,574.1816 1696.4688,574.9316 Q1695.9844,575.6816 1695.9844,576.7129 L1695.9844,577.8066 Q1695.9844,579.041 1696.875,579.8691 Q1697.7656,580.6816 1699.3594,580.6816 Q1700.2969,580.6816 1700.9531,580.4316 Q1701.3438,580.2754 1701.7656,579.8379 Q1702.0313,579.5723 1702.1719,579.4941 Q1702.3281,579.416 1702.5313,579.416 Q1702.8594,579.416 1703.1094,579.6816 Q1703.375,579.9316 1703.375,580.2754 Q1703.375,580.6191 1703.0313,581.0254 Q1702.5313,581.6035 1701.7344,581.9316 Q1700.6563,582.3848 1699.3594,582.3848 Q1697.8438,582.3848 1696.6406,581.7598 Q1695.6563,581.2598 1694.9688,580.1973 Q1694.2813,579.1191 1694.2813,577.8379 L1694.2813,576.6816 Q1694.2813,575.3535 1694.8906,574.2129 Q1695.5156,573.0566 1696.6094,572.4473 Q1697.7031,571.8223 1698.9375,571.8223 Q1699.6719,571.8223 1700.3125,571.9941 Q1700.9688,572.1504 1701.5156,572.5098 Z " fill="#000000"/><text fill="#000000" font-family="sans-serif" font-size="14" lengthAdjust="spacing" textLength="116" x="1719.25" y="582.4316">NotificationService</text><line style="stroke:#000000;stroke-width:0.5;" x1="1343.5" x2="2178.5" y1="592.6348" y2="592.6348"/><line style="stroke:#000000;stroke-width:0.5;" x1="1343.5" x2="2178.5" y1="600.6348" y2="600.6348"/><ellipse cx="1353.5" cy="615.4453" fill="#84BE84" rx="3" ry="3" style="stroke:#038048;stroke-width:1.0;"/><text fill="#000000" font-family="sans-serif" font-size="14" lengthAdjust="spacing" textLength="811" x="1362.5" y="619.7422">registerNotification(notificationType, notificationStatus, notificationMessage, notificationReceiver, notificationSender) : Notification</text><ellipse cx="1353.5" cy="634.0664" fill="#84BE84" rx="3" ry="3" style="stroke:#038048;stroke-width:1.0;"/><text fill="#000000" font-family="sans-serif" font-size="14" lengthAdjust="spacing" textLength="223" x="1362.5" y="638.3633">findNotificationByID(id) : Notification</text><ellipse cx="1353.5" cy="652.6875" fill="#84BE84" rx="3" ry="3" style="stroke:#038048;stroke-width:1.0;"/><text fill="#000000" font-family="sans-serif" font-size="14" lengthAdjust="spacing" textLength="244" x="1362.5" y="656.9844">allNotifications() : Iterable&lt;Notification&gt;</text></g><!--class CandidateNotificationsService--><g id="elem_CandidateNotificationsService"><rect codeLine="218" fill="#FFFFFF" height="66.6211" id="CandidateNotificationsService" rx="2.5" ry="2.5" style="stroke:#000000;stroke-width:0.5;" width="280" x="1621" y="433.6348"/><ellipse cx="1663" cy="449.6348" fill="#ADD1B2" rx="11" ry="11" style="stroke:#181818;stroke-width:1.0;"/><path d="M1665.7656,445.5098 Q1665.9219,445.291 1666.1094,445.1816 Q1666.2969,445.0723 1666.5156,445.0723 Q1666.8906,445.0723 1667.125,445.3379 Q1667.3594,445.5879 1667.3594,446.1973 L1667.3594,447.6504 Q1667.3594,448.2598 1667.125,448.5254 Q1666.8906,448.791 1666.5156,448.791 Q1666.1719,448.791 1665.9688,448.5879 Q1665.7656,448.4004 1665.6563,447.8848 Q1665.6094,447.5254 1665.4219,447.3379 Q1665.0938,446.9629 1664.4844,446.7441 Q1663.875,446.5254 1663.25,446.5254 Q1662.4844,446.5254 1661.8438,446.8535 Q1661.2188,447.1816 1660.7188,447.9316 Q1660.2344,448.6816 1660.2344,449.7129 L1660.2344,450.8066 Q1660.2344,452.041 1661.125,452.8691 Q1662.0156,453.6816 1663.6094,453.6816 Q1664.5469,453.6816 1665.2031,453.4316 Q1665.5938,453.2754 1666.0156,452.8379 Q1666.2813,452.5723 1666.4219,452.4941 Q1666.5781,452.416 1666.7813,452.416 Q1667.1094,452.416 1667.3594,452.6816 Q1667.625,452.9316 1667.625,453.2754 Q1667.625,453.6191 1667.2813,454.0254 Q1666.7813,454.6035 1665.9844,454.9316 Q1664.9063,455.3848 1663.6094,455.3848 Q1662.0938,455.3848 1660.8906,454.7598 Q1659.9063,454.2598 1659.2188,453.1973 Q1658.5313,452.1191 1658.5313,450.8379 L1658.5313,449.6816 Q1658.5313,448.3535 1659.1406,447.2129 Q1659.7656,446.0566 1660.8594,445.4473 Q1661.9531,444.8223 1663.1875,444.8223 Q1663.9219,444.8223 1664.5625,444.9941 Q1665.2188,445.1504 1665.7656,445.5098 Z " fill="#000000"/><text fill="#000000" font-family="sans-serif" font-size="14" lengthAdjust="spacing" textLength="188" x="1683" y="455.4316">CandidateNotificationsService</text><line style="stroke:#000000;stroke-width:0.5;" x1="1622" x2="1900" y1="465.6348" y2="465.6348"/><line style="stroke:#000000;stroke-width:0.5;" x1="1622" x2="1900" y1="473.6348" y2="473.6348"/><ellipse cx="1632" cy="488.4453" fill="#84BE84" rx="3" ry="3" style="stroke:#038048;stroke-width:1.0;"/><text fill="#000000" font-family="sans-serif" font-size="14" lengthAdjust="spacing" textLength="254" x="1641" y="492.7422">requestNotifications(email) : List&lt;String&gt;</text></g><!--class NotificationRepository--><g id="elem_NotificationRepository"><rect codeLine="224" fill="#FFFFFF" height="85.2422" id="NotificationRepository" rx="2.5" ry="2.5" style="stroke:#000000;stroke-width:0.5;" width="256" x="1788" y="769.6348"/><ellipse cx="1842.75" cy="785.6348" fill="#B4A7E5" rx="11" ry="11" style="stroke:#181818;stroke-width:1.0;"/><path d="M1843.7031,782.2754 L1843.7031,788.9316 L1845.4219,788.9316 Q1846.0313,788.9316 1846.2969,789.166 Q1846.5625,789.4004 1846.5625,789.791 Q1846.5625,790.166 1846.2969,790.4004 Q1846.0313,790.6348 1845.4219,790.6348 L1840.2813,790.6348 Q1839.6719,790.6348 1839.4063,790.4004 Q1839.1406,790.166 1839.1406,789.7754 Q1839.1406,789.4004 1839.4063,789.166 Q1839.6719,788.9316 1840.2813,788.9316 L1842,788.9316 L1842,782.2754 L1840.2813,782.2754 Q1839.6719,782.2754 1839.4063,782.041 Q1839.1406,781.8066 1839.1406,781.416 Q1839.1406,781.041 1839.4063,780.8066 Q1839.6719,780.5723 1840.2813,780.5723 L1845.4219,780.5723 Q1846.0313,780.5723 1846.2969,780.8066 Q1846.5625,781.041 1846.5625,781.416 Q1846.5625,781.8066 1846.2969,782.041 Q1846.0313,782.2754 1845.4219,782.2754 L1843.7031,782.2754 Z " fill="#000000"/><text fill="#000000" font-family="sans-serif" font-size="14" font-style="italic" lengthAdjust="spacing" textLength="138" x="1863.25" y="791.4316">NotificationRepository</text><line style="stroke:#000000;stroke-width:0.5;" x1="1789" x2="2043" y1="801.6348" y2="801.6348"/><line style="stroke:#000000;stroke-width:0.5;" x1="1789" x2="2043" y1="809.6348" y2="809.6348"/><text fill="#000000" font-family="sans-serif" font-size="14" lengthAdjust="spacing" textLength="244" x="1794" y="828.7422">allNotifications() : Iterable&lt;Notification&gt;</text><text fill="#000000" font-family="sans-serif" font-size="14" lengthAdjust="spacing" textLength="159" x="1794" y="847.3633">ofIdentity(id) : Notification</text></g><!--link ListCandidateNotificationsUI to ListCandidateNotificationsController--><g id="link_ListCandidateNotificationsUI_ListCandidateNotificationsController"><path codeLine="231" d="M1761,167.7548 C1761,191.9848 1761,215.8948 1761,238.4648 " fill="none" id="ListCandidateNotificationsUI-to-ListCandidateNotificationsController" style="stroke:#000000;stroke-width:1.0;"/><polygon fill="#000000" points="1761,244.4648,1765,235.4648,1761,239.4648,1757,235.4648,1761,244.4648" style="stroke:#000000;stroke-width:1.0;"/></g><!--link ListCandidateNotificationsController to CandidateNotificationsService--><g id="link_ListCandidateNotificationsController_CandidateNotificationsService"><path codeLine="233" d="M1761,311.9248 C1761,346.2148 1761,393.0148 1761,427.3248 " fill="none" id="ListCandidateNotificationsController-to-CandidateNotificationsService" style="stroke:#000000;stroke-width:1.0;"/><polygon fill="#000000" points="1761,433.3248,1765,424.3248,1761,428.3248,1757,424.3248,1761,433.3248" style="stroke:#000000;stroke-width:1.0;"/></g><!--link CandidateNotificationsService to NotificationService--><g id="link_CandidateNotificationsService_NotificationService"><path codeLine="235" d="M1761,500.8848 C1761,518.5948 1761,534.6848 1761,554.5448 " fill="none" id="CandidateNotificationsService-to-NotificationService" style="stroke:#000000;stroke-width:1.0;"/><polygon fill="#000000" points="1761,560.5448,1765,551.5448,1761,555.5448,1757,551.5448,1761,560.5448" style="stroke:#000000;stroke-width:1.0;"/></g><!--link NotificationService to NotificationRepository--><g id="link_NotificationService_NotificationRepository"><path codeLine="237" d="M1916,664.7948 C1916,697.3448 1916,732.7348 1916,763.3548 " fill="none" id="NotificationService-to-NotificationRepository" style="stroke:#000000;stroke-width:1.0;"/><polygon fill="#000000" points="1916,769.3548,1920,760.3548,1916,764.3548,1912,760.3548,1916,769.3548" style="stroke:#000000;stroke-width:1.0;"/></g><!--link NotificationRepository to Notification--><g id="link_NotificationRepository_Notification"><path codeLine="239" d="M1787.93,812.6348 C1752.71,812.6348 1724,812.6348 1724,812.6348 C1724,812.6348 1724,869.6648 1724,936.3948 " fill="none" id="NotificationRepository-to-Notification" style="stroke:#000000;stroke-width:1.0;"/><polygon fill="#000000" points="1724,942.3948,1728,933.3948,1724,937.3948,1720,933.3948,1724,942.3948" style="stroke:#000000;stroke-width:1.0;"/></g><!--link Notification to Application--><g id="link_Notification_Application"><path codeLine="241" d="M1646.5,1252.0148 C1646.5,1330.5948 1646.5,1409.6348 1646.5,1409.6348 C1646.5,1409.6348 1999.57,1409.6348 2278.17,1409.6348 " fill="none" id="Notification-to-Application" style="stroke:#000000;stroke-width:1.0;"/><polygon fill="#000000" points="2284.17,1409.6348,2275.17,1405.6348,2279.17,1409.6348,2275.17,1413.6348,2284.17,1409.6348" style="stroke:#000000;stroke-width:1.0;"/></g><!--link Notification to Message--><g id="link_Notification_Message"><path codeLine="243" d="M1452,1251.9448 C1452,1335.7948 1452,1430.3948 1452,1501.1148 " fill="none" id="Notification-to-Message" style="stroke:#000000;stroke-width:1.0;"/><polygon fill="#000000" points="1452,1507.1148,1456,1498.1148,1452,1502.1148,1448,1498.1148,1452,1507.1148" style="stroke:#000000;stroke-width:1.0;"/></g><!--link Notification to Candidate--><g id="link_Notification_Candidate"><path codeLine="245" d="M1342.49,1097.6348 C1110.07,1097.6348 752.17,1097.6348 752.17,1097.6348 C752.17,1097.6348 752.17,1671.5948 752.17,1934.3848 " fill="none" id="Notification-to-Candidate" style="stroke:#000000;stroke-width:1.0;"/><polygon fill="#000000" points="752.17,1940.3848,756.17,1931.3848,752.17,1935.3848,748.17,1931.3848,752.17,1940.3848" style="stroke:#000000;stroke-width:1.0;"/></g><!--link NotificationBuilder to Notification--><g id="link_NotificationBuilder_Notification"><path codeLine="247" d="M1537,882.9548 C1537,901.2448 1537,915.6848 1537,936.4648 " fill="none" id="NotificationBuilder-to-Notification" style="stroke:#000000;stroke-width:1.0;"/><polygon fill="#000000" points="1537,942.4648,1541,933.4648,1537,937.4648,1533,933.4648,1537,942.4648" style="stroke:#000000;stroke-width:1.0;"/></g><!--link Application to Rank--><g id="link_Application_Rank"><path codeLine="249" d="M2874.5,1880.6448 C2874.5,1915.7648 2874.5,1943.3548 2874.5,1972.1148 " fill="none" id="Application-to-Rank" style="stroke:#000000;stroke-width:1.0;"/><polygon fill="#000000" points="2874.5,1978.1148,2878.5,1969.1148,2874.5,1973.1148,2870.5,1969.1148,2874.5,1978.1148" style="stroke:#000000;stroke-width:1.0;"/></g><!--link Application to Status--><g id="link_Application_Status"><path codeLine="250" d="M2925.78,1759.6348 C3029.83,1759.6348 3119,1759.6348 3119,1759.6348 C3119,1759.6348 3119,1910.3348 3119,2000.0148 " fill="none" id="Application-to-Status" style="stroke:#000000;stroke-width:1.0;"/><polygon fill="#000000" points="3119,2006.0148,3123,1997.0148,3119,2001.0148,3115,1997.0148,3119,2006.0148" style="stroke:#000000;stroke-width:1.0;"/></g><!--link Application to CandidateRequirements--><g id="link_Application_CandidateRequirements"><path codeLine="251" d="M2536.25,1880.6448 C2536.25,1915.7648 2536.25,1943.3548 2536.25,1972.1148 " fill="none" id="Application-to-CandidateRequirements" style="stroke:#000000;stroke-width:1.0;"/><polygon fill="#000000" points="2536.25,1978.1148,2540.25,1969.1148,2536.25,1973.1148,2532.25,1969.1148,2536.25,1978.1148" style="stroke:#000000;stroke-width:1.0;"/></g><!--link Application to Candidate--><g id="link_Application_Candidate"><path codeLine="252" d="M2284.5,1783.6348 C1768.49,1783.6348 810.83,1783.6348 810.83,1783.6348 C810.83,1783.6348 810.83,1858.8248 810.83,1934.3148 " fill="none" id="Application-to-Candidate" style="stroke:#000000;stroke-width:1.0;"/><polygon fill="#000000" points="810.83,1940.3148,814.83,1931.3148,810.83,1935.3148,806.83,1931.3148,810.83,1940.3148" style="stroke:#000000;stroke-width:1.0;"/></g><!--link Candidate to Curriculum--><g id="link_Candidate_Curriculum"><path codeLine="254" d="M869.75,2175.6348 C957.62,2175.6348 1041.25,2175.6348 1041.25,2175.6348 C1041.25,2175.6348 1041.25,2219.2648 1041.25,2265.8948 " fill="none" id="Candidate-to-Curriculum" style="stroke:#000000;stroke-width:1.0;"/><polygon fill="#000000" points="1041.25,2271.8948,1045.25,2262.8948,1041.25,2266.8948,1037.25,2262.8948,1041.25,2271.8948" style="stroke:#000000;stroke-width:1.0;"/></g><!--link Candidate to TelephoneNumber--><g id="link_Candidate_TelephoneNumber"><path codeLine="255" d="M668,2193.7948 C668,2213.7248 668,2228.0648 668,2247.2348 " fill="none" id="Candidate-to-TelephoneNumber" style="stroke:#000000;stroke-width:1.0;"/><polygon fill="#000000" points="668,2253.2348,672,2244.2348,668,2248.2348,664,2244.2348,668,2253.2348" style="stroke:#000000;stroke-width:1.0;"/></g><!--link CandidateService to CandidateRepository--><g id="link_CandidateService_CandidateRepository"><path codeLine="257" d="M330,1666.6448 C330,1765.8348 330,1937.4848 330,2018.6248 " fill="none" id="CandidateService-to-CandidateRepository" style="stroke:#000000;stroke-width:1.0;"/><polygon fill="#000000" points="330,2024.6248,334,2015.6248,330,2019.6248,326,2015.6248,330,2024.6248" style="stroke:#000000;stroke-width:1.0;"/></g><!--link CandidateService to Candidate--><g id="link_CandidateService_Candidate"><path codeLine="258" d="M582,1666.6448 C582,1738.7648 582,1846.3548 582,1934.1648 " fill="none" id="CandidateService-to-Candidate" style="stroke:#000000;stroke-width:1.0;"/><polygon fill="#000000" points="582,1940.1648,586,1931.1648,582,1935.1648,578,1931.1648,582,1940.1648" style="stroke:#000000;stroke-width:1.0;"/></g><!--link ApplicationService to ApplicationRepository--><g id="link_ApplicationService_ApplicationRepository"><path codeLine="260" d="M3125,1195.7848 C3125,1332.6848 3125,1563.6348 3125,1563.6348 C3125,1563.6348 3242.63,1563.6348 3343.56,1563.6348 " fill="none" id="ApplicationService-to-ApplicationRepository" style="stroke:#000000;stroke-width:1.0;"/><polygon fill="#000000" points="3349.56,1563.6348,3340.56,1559.6348,3344.56,1563.6348,3340.56,1567.6348,3349.56,1563.6348" style="stroke:#000000;stroke-width:1.0;"/></g><!--link ApplicationService to Application--><g id="link_ApplicationService_Application"><path codeLine="261" d="M2763,1195.7248 C2763,1229.8748 2763,1264.0748 2763,1305.5948 " fill="none" id="ApplicationService-to-Application" style="stroke:#000000;stroke-width:1.0;"/><polygon fill="#000000" points="2763,1311.5948,2767,1302.5948,2763,1306.5948,2759,1302.5948,2763,1311.5948" style="stroke:#000000;stroke-width:1.0;"/></g><!--SRC=[rLbBR-Cs4BxhLn1xMGMo3mLw2XO1uaSA5vjaaGTwfYNQuaOMjIILm0totpkKPF4XIfQJxHRrnJPdXZFyEFncH8adcXUOuntAQ4xalY28SPcou7D6DX99XZZTfX8bb9DOKfO7WMXDuWmBWLu319yPZf-sd9LvCcSPu-Ylb4fIIIuvPo_ru2m3hLgTyOHmT_IAvT8tTa__9kYttuEt891KPWJD5sYAxYMMy3F5-PQW6oRfXiQuZh40QmoZdqhwgOwlZlKh5NAEyuGcO6gQYCTLhHUXbE14WH6UeNFmmMc-RIG9kq_PIpM-PYmZEAy4RogkrcCCyNAMPOIFz3nl3GuH298dbaf8TfXcog-QvaiTr8N7EIwAh35glBUYXC4SXr4TrwMsq2BrcI9ZijK2VDDSEXeSvqyWk8ClHoBAzOuA0QOBjKddI7svEh1_fQX0LZySwNUslYr83Wi5ZJ_RFuvMV80Kb5fu-tJko8yIydX7SYbCVNEy7uChcX5XfuJMOmNXM4BYWdml9Daz2i8jdSY4EbJ8JHoK9iQQ9phgIIU8IUjEfOGnhUNGT7VcX2BmZboAaCcKyDlrTpZQRb9hNG07PoDrKopIEKlgi-FcIuHYjWFc80-iHquJs08gzvLubKkoxO2eWAl4dQIB73WhhKxQHKtQDQUxatYHiGcLJa_gHNg3AZL_yaN-vBCjUjClwkoyoqbQyv0HjKPV2iOLMTRB3ciWtDGeYoec1RF2sXLBLhllZwGiCeOJx-f2BnhQ1L3PuMVEu4pNjOTjUdFS_KpHGqgCvJSaHmKgE7k6z4hGUeyWaz462XXvOVnfCZYXOA2DfJBXvBE0i51EO1QQ8quAJeHAMA0eAlkd0JQlbXCurEk5w7KaUNKAWTw0Kw0VbOV-2Sy-m1Fzfs9WNKV8PIWptrpiLNw_-gkPDwdrUV1HJoLryQ123PCax8VX6MSbkTtqJtmQgYCHMERbhg4-6uBxnzdrwk5XkR3ho7o-_EOEBfRphwiRP_3RycQnkld3y6buRXiHE9RFD2P3dSXzhVBgSZ_PGdOG_eiBQOGsD4yCwMo_MeGq6RR1MMO8w-HUGV1udP4lXkHYsDSLuxe2XNfTxvnkjcyFisQ4iNCvfS72ymWOLWJNOLmAoNQ4N-CSSeAF3G0ITmt7O6C2EmIGIHB-P0GIPu920koDV5IT1z_Wc9WhkcirxRHytpwppUhGw_GdqfllyUAmQIFx-tQxNRQJ92D5od9oKu4A8JpO8suXAZcdSPa1Tq3DQFyuMgKWWpsmpZwbEN6Zc1Xk-higFOdBkTgwRh7yOKPLcCETajMABjNZrsMIGBqN7-3dKxhkaLnkjqb-kFxNJPAJbCUps5k-dLb2n-piIFQxvcSzTVp4QN_gizNnnbm_VJd-R9fq2QGzGw-zZF0DoxJFgxOFROE10shOdFqtY9tMkhJdxaZZybFOhsejMf5JSDfnNn_G2cVx4GUYpxipKyMDzGLLmv0d62lwgR3msxohPXjFAxqL-qJuLDJlnAnTWbd4S-DoRx2Er-bbtWMwXv0ctfive-4QQCocQ0VxfToUe-lwrydtQsPmdTDg2OsO9WV7HdkkyBDkSK- -6yBcZTTWFzfuhxHy2nzxk_DlLVyFCrUTECtITCwO6-vbwyOYRDJwy3cezHN28-Q_cCQxfsXMqYmvT1DZJilGIJbsIYBqGcLwcMNlFW4HMgk0Gw_2QQNAD3zIhQp3QrBMmxw0iCsH-ZR17hi-hCySl2CneS-gr5dcqFtL13f008g4hJtKJ-43La3szgiKY-zDqSL03-HzSTE1Jq7teoH2Zdrvy-uQTsD1sblcJbwvzz7KYwxnR3hqKWrDfnUZtdqDJQErgka6ToC81iNL19up40IUmOwoXjhMr-CT4rkn4flyqfKUsAKhqSmIUBZCuzbmL4chwqLti7a7uWxxRuLxjGpOQu5kx6s1-pmKkBspwxr5V5ZHMgsfuRt26Q4S1Fy0]--></g></svg>