<?xml version="1.0" encoding="us-ascii" standalone="no"?><svg xmlns="http://www.w3.org/2000/svg" xmlns:xlink="http://www.w3.org/1999/xlink" contentStyleType="text/css" height="815px" preserveAspectRatio="none" style="width:1469px;height:815px;background:#FFFFFF;" version="1.1" viewBox="0 0 1469 815" width="1469px" zoomAndPan="magnify"><defs/><g><text fill="#000000" font-family="sans-serif" font-size="14" font-weight="bold" lengthAdjust="spacing" textLength="178" x="647" y="30.1074">State Change Notification</text><rect fill="#FFFFFF" height="569.5293" style="stroke:#181818;stroke-width:1.0;" width="10" x="35.5" y="137.8633"/><rect fill="#FFFFFF" height="537.2383" style="stroke:#181818;stroke-width:1.0;" width="10" x="279.5" y="161.1543"/><rect fill="#FFFFFF" height="457.3652" style="stroke:#181818;stroke-width:1.0;" width="10" x="505.5" y="192.4453"/><rect fill="#FFFFFF" height="394.7832" style="stroke:#181818;stroke-width:1.0;" width="10" x="736" y="223.7363"/><rect fill="#FFFFFF" height="48.582" style="stroke:#181818;stroke-width:1.0;" width="10" x="991" y="255.0273"/><rect fill="#FFFFFF" height="93.873" style="stroke:#181818;stroke-width:1.0;" width="10" x="1122" y="334.9004"/><rect fill="#FFFFFF" height="31.291" style="stroke:#181818;stroke-width:1.0;" width="10" x="1268.5" y="366.1914"/><rect fill="#FFFFFF" height="31.291" style="stroke:#181818;stroke-width:1.0;" width="10" x="1399" y="486.3555"/><rect fill="#FFFFFF" height="31.291" style="stroke:#181818;stroke-width:1.0;" width="10" x="1399" y="548.9375"/><rect fill="none" height="144.4551" style="stroke:#000000;stroke-width:1.5;" width="833" x="630" y="443.7734"/><line style="stroke:#181818;stroke-width:0.5;stroke-dasharray:5.0,5.0;" x1="40" x2="40" y1="127.8633" y2="716.3926"/><line style="stroke:#181818;stroke-width:0.5;stroke-dasharray:5.0,5.0;" x1="284" x2="284" y1="127.8633" y2="716.3926"/><line style="stroke:#181818;stroke-width:0.5;stroke-dasharray:5.0,5.0;" x1="510" x2="510" y1="127.8633" y2="716.3926"/><line style="stroke:#181818;stroke-width:0.5;stroke-dasharray:5.0,5.0;" x1="741" x2="741" y1="127.8633" y2="716.3926"/><line style="stroke:#181818;stroke-width:0.5;stroke-dasharray:5.0,5.0;" x1="996" x2="996" y1="127.8633" y2="716.3926"/><line style="stroke:#181818;stroke-width:0.5;stroke-dasharray:5.0,5.0;" x1="1127" x2="1127" y1="127.8633" y2="716.3926"/><line style="stroke:#181818;stroke-width:0.5;stroke-dasharray:5.0,5.0;" x1="1273" x2="1273" y1="127.8633" y2="716.3926"/><line style="stroke:#181818;stroke-width:0.5;stroke-dasharray:5.0,5.0;" x1="1404" x2="1404" y1="127.8633" y2="716.3926"/><text fill="#000000" font-family="sans-serif" font-size="14" lengthAdjust="spacing" textLength="65" x="5" y="124.3496">Candidate</text><ellipse cx="40.5" cy="57.7422" fill="#E2E2F0" rx="8" ry="8" style="stroke:#181818;stroke-width:0.5;"/><path d="M40.5,65.7422 L40.5,92.7422 M27.5,73.7422 L53.5,73.7422 M40.5,92.7422 L27.5,107.7422 M40.5,92.7422 L53.5,107.7422 " fill="none" style="stroke:#181818;stroke-width:0.5;"/><text fill="#000000" font-family="sans-serif" font-size="14" lengthAdjust="spacing" textLength="65" x="5" y="730.5">Candidate</text><ellipse cx="40.5" cy="742.5137" fill="#E2E2F0" rx="8" ry="8" style="stroke:#181818;stroke-width:0.5;"/><path d="M40.5,750.5137 L40.5,777.5137 M27.5,758.5137 L53.5,758.5137 M40.5,777.5137 L27.5,792.5137 M40.5,777.5137 L53.5,792.5137 " fill="none" style="stroke:#181818;stroke-width:0.5;"/><rect fill="#E2E2F0" height="51.2422" rx="2.5" ry="2.5" style="stroke:#181818;stroke-width:0.5;" width="189" x="190" y="75.6211"/><text fill="#000000" font-family="sans-serif" font-size="14" font-style="italic" lengthAdjust="spacing" textLength="95" x="237" y="97.7285">&#171;presentation&#187;</text><text fill="#000000" font-family="sans-serif" font-size="14" lengthAdjust="spacing" textLength="175" x="197" y="116.3496">ListCandidateNotificationsUI</text><rect fill="#E2E2F0" height="51.2422" rx="2.5" ry="2.5" style="stroke:#181818;stroke-width:0.5;" width="189" x="190" y="715.3926"/><text fill="#000000" font-family="sans-serif" font-size="14" font-style="italic" lengthAdjust="spacing" textLength="95" x="237" y="737.5">&#171;presentation&#187;</text><text fill="#000000" font-family="sans-serif" font-size="14" lengthAdjust="spacing" textLength="175" x="197" y="756.1211">ListCandidateNotificationsUI</text><rect fill="#E2E2F0" height="51.2422" rx="2.5" ry="2.5" style="stroke:#181818;stroke-width:0.5;" width="239" x="391" y="75.6211"/><text fill="#000000" font-family="sans-serif" font-size="14" font-style="italic" lengthAdjust="spacing" textLength="75" x="473" y="97.7285">&#171;controller&#187;</text><text fill="#000000" font-family="sans-serif" font-size="14" lengthAdjust="spacing" textLength="225" x="398" y="116.3496">ListCandidateNotificationsController</text><rect fill="#E2E2F0" height="51.2422" rx="2.5" ry="2.5" style="stroke:#181818;stroke-width:0.5;" width="239" x="391" y="715.3926"/><text fill="#000000" font-family="sans-serif" font-size="14" font-style="italic" lengthAdjust="spacing" textLength="75" x="473" y="737.5">&#171;controller&#187;</text><text fill="#000000" font-family="sans-serif" font-size="14" lengthAdjust="spacing" textLength="225" x="398" y="756.1211">ListCandidateNotificationsController</text><rect fill="#E2E2F0" height="51.2422" rx="2.5" ry="2.5" style="stroke:#181818;stroke-width:0.5;" width="202" x="640" y="75.6211"/><text fill="#000000" font-family="sans-serif" font-size="14" font-style="italic" lengthAdjust="spacing" textLength="60" x="711" y="97.7285">&#171;service&#187;</text><text fill="#000000" font-family="sans-serif" font-size="14" lengthAdjust="spacing" textLength="188" x="647" y="116.3496">CandidateNotificationsService</text><rect fill="#E2E2F0" height="51.2422" rx="2.5" ry="2.5" style="stroke:#181818;stroke-width:0.5;" width="202" x="640" y="715.3926"/><text fill="#000000" font-family="sans-serif" font-size="14" font-style="italic" lengthAdjust="spacing" textLength="60" x="711" y="737.5">&#171;service&#187;</text><text fill="#000000" font-family="sans-serif" font-size="14" lengthAdjust="spacing" textLength="188" x="647" y="756.1211">CandidateNotificationsService</text><rect fill="#E2E2F0" height="51.2422" rx="2.5" ry="2.5" style="stroke:#181818;stroke-width:0.5;" width="112" x="940" y="75.6211"/><text fill="#000000" font-family="sans-serif" font-size="14" font-style="italic" lengthAdjust="spacing" textLength="67" x="962.5" y="97.7285">&#171;protocol&#187;</text><text fill="#000000" font-family="sans-serif" font-size="14" lengthAdjust="spacing" textLength="98" x="947" y="116.3496">Jobs4UProtocol</text><rect fill="#E2E2F0" height="51.2422" rx="2.5" ry="2.5" style="stroke:#181818;stroke-width:0.5;" width="112" x="940" y="715.3926"/><text fill="#000000" font-family="sans-serif" font-size="14" font-style="italic" lengthAdjust="spacing" textLength="67" x="962.5" y="737.5">&#171;protocol&#187;</text><text fill="#000000" font-family="sans-serif" font-size="14" lengthAdjust="spacing" textLength="98" x="947" y="756.1211">Jobs4UProtocol</text><rect fill="#E2E2F0" height="51.2422" rx="2.5" ry="2.5" style="stroke:#181818;stroke-width:0.5;" width="130" x="1062" y="75.6211"/><text fill="#000000" font-family="sans-serif" font-size="14" font-style="italic" lengthAdjust="spacing" textLength="60" x="1097" y="97.7285">&#171;service&#187;</text><text fill="#000000" font-family="sans-serif" font-size="14" lengthAdjust="spacing" textLength="116" x="1069" y="116.3496">NotificationService</text><rect fill="#E2E2F0" height="51.2422" rx="2.5" ry="2.5" style="stroke:#181818;stroke-width:0.5;" width="130" x="1062" y="715.3926"/><text fill="#000000" font-family="sans-serif" font-size="14" font-style="italic" lengthAdjust="spacing" textLength="60" x="1097" y="737.5">&#171;service&#187;</text><text fill="#000000" font-family="sans-serif" font-size="14" lengthAdjust="spacing" textLength="116" x="1069" y="756.1211">NotificationService</text><text fill="#000000" font-family="sans-serif" font-size="14" font-style="italic" lengthAdjust="spacing" textLength="79" x="1231" y="105.7285">&#171;repository&#187;</text><text fill="#000000" font-family="sans-serif" font-size="14" lengthAdjust="spacing" textLength="137" x="1202" y="124.3496">NotificationRepository</text><path d="M1255.5,54.6211 C1255.5,44.6211 1273.5,44.6211 1273.5,44.6211 C1273.5,44.6211 1291.5,44.6211 1291.5,54.6211 L1291.5,80.6211 C1291.5,90.6211 1273.5,90.6211 1273.5,90.6211 C1273.5,90.6211 1255.5,90.6211 1255.5,80.6211 L1255.5,54.6211 " fill="#E2E2F0" style="stroke:#181818;stroke-width:1.5;"/><path d="M1255.5,54.6211 C1255.5,64.6211 1273.5,64.6211 1273.5,64.6211 C1273.5,64.6211 1291.5,64.6211 1291.5,54.6211 " fill="none" style="stroke:#181818;stroke-width:1.5;"/><text fill="#000000" font-family="sans-serif" font-size="14" font-style="italic" lengthAdjust="spacing" textLength="79" x="1231" y="730.5">&#171;repository&#187;</text><text fill="#000000" font-family="sans-serif" font-size="14" lengthAdjust="spacing" textLength="137" x="1202" y="749.1211">NotificationRepository</text><path d="M1255.5,762.6348 C1255.5,752.6348 1273.5,752.6348 1273.5,752.6348 C1273.5,752.6348 1291.5,752.6348 1291.5,762.6348 L1291.5,788.6348 C1291.5,798.6348 1273.5,798.6348 1273.5,798.6348 C1273.5,798.6348 1255.5,798.6348 1255.5,788.6348 L1255.5,762.6348 " fill="#E2E2F0" style="stroke:#181818;stroke-width:1.5;"/><path d="M1255.5,762.6348 C1255.5,772.6348 1273.5,772.6348 1273.5,772.6348 C1273.5,772.6348 1291.5,772.6348 1291.5,762.6348 " fill="none" style="stroke:#181818;stroke-width:1.5;"/><rect fill="#E2E2F0" height="51.2422" rx="2.5" ry="2.5" style="stroke:#181818;stroke-width:0.5;" width="98" x="1355" y="75.6211"/><text fill="#000000" font-family="sans-serif" font-size="14" font-style="italic" lengthAdjust="spacing" textLength="84" x="1362" y="97.7285">&#171;application&#187;</text><text fill="#000000" font-family="sans-serif" font-size="14" lengthAdjust="spacing" textLength="69" x="1369.5" y="116.3496">Notification</text><rect fill="#E2E2F0" height="51.2422" rx="2.5" ry="2.5" style="stroke:#181818;stroke-width:0.5;" width="98" x="1355" y="715.3926"/><text fill="#000000" font-family="sans-serif" font-size="14" font-style="italic" lengthAdjust="spacing" textLength="84" x="1362" y="737.5">&#171;application&#187;</text><text fill="#000000" font-family="sans-serif" font-size="14" lengthAdjust="spacing" textLength="69" x="1369.5" y="756.1211">Notification</text><rect fill="#FFFFFF" height="569.5293" style="stroke:#181818;stroke-width:1.0;" width="10" x="35.5" y="137.8633"/><rect fill="#FFFFFF" height="537.2383" style="stroke:#181818;stroke-width:1.0;" width="10" x="279.5" y="161.1543"/><rect fill="#FFFFFF" height="457.3652" style="stroke:#181818;stroke-width:1.0;" width="10" x="505.5" y="192.4453"/><rect fill="#FFFFFF" height="394.7832" style="stroke:#181818;stroke-width:1.0;" width="10" x="736" y="223.7363"/><rect fill="#FFFFFF" height="48.582" style="stroke:#181818;stroke-width:1.0;" width="10" x="991" y="255.0273"/><rect fill="#FFFFFF" height="93.873" style="stroke:#181818;stroke-width:1.0;" width="10" x="1122" y="334.9004"/><rect fill="#FFFFFF" height="31.291" style="stroke:#181818;stroke-width:1.0;" width="10" x="1268.5" y="366.1914"/><rect fill="#FFFFFF" height="31.291" style="stroke:#181818;stroke-width:1.0;" width="10" x="1399" y="486.3555"/><rect fill="#FFFFFF" height="31.291" style="stroke:#181818;stroke-width:1.0;" width="10" x="1399" y="548.9375"/><polygon fill="#181818" points="267.5,157.1543,277.5,161.1543,267.5,165.1543,271.5,161.1543" style="stroke:#181818;stroke-width:1.0;"/><line style="stroke:#181818;stroke-width:1.0;" x1="45.5" x2="273.5" y1="161.1543" y2="161.1543"/><text fill="#000000" font-family="sans-serif" font-size="13" font-weight="bold" lengthAdjust="spacing" textLength="7" x="52.5" y="155.8916">1</text><text fill="#000000" font-family="sans-serif" font-size="13" lengthAdjust="spacing" textLength="189" x="63.5" y="155.8916">asks to list all of his notifications</text><polygon fill="#181818" points="493.5,188.4453,503.5,192.4453,493.5,196.4453,497.5,192.4453" style="stroke:#181818;stroke-width:1.0;"/><line style="stroke:#181818;stroke-width:1.0;" x1="289.5" x2="499.5" y1="192.4453" y2="192.4453"/><text fill="#000000" font-family="sans-serif" font-size="13" font-weight="bold" lengthAdjust="spacing" textLength="7" x="296.5" y="187.1826">2</text><text fill="#000000" font-family="sans-serif" font-size="13" lengthAdjust="spacing" textLength="186" x="307.5" y="187.1826">sendNotificationsRequest(email)</text><polygon fill="#181818" points="724,219.7363,734,223.7363,724,227.7363,728,223.7363" style="stroke:#181818;stroke-width:1.0;"/><line style="stroke:#181818;stroke-width:1.0;" x1="515.5" x2="730" y1="223.7363" y2="223.7363"/><text fill="#000000" font-family="sans-serif" font-size="13" font-weight="bold" lengthAdjust="spacing" textLength="7" x="522.5" y="218.4736">3</text><text fill="#000000" font-family="sans-serif" font-size="13" lengthAdjust="spacing" textLength="153" x="533.5" y="218.4736">requestNotifications(email)</text><polygon fill="#181818" points="979,251.0273,989,255.0273,979,259.0273,983,255.0273" style="stroke:#181818;stroke-width:1.0;"/><line style="stroke:#181818;stroke-width:1.0;" x1="746" x2="985" y1="255.0273" y2="255.0273"/><text fill="#000000" font-family="sans-serif" font-size="13" font-weight="bold" lengthAdjust="spacing" textLength="7" x="753" y="249.7646">4</text><text fill="#000000" font-family="sans-serif" font-size="13" lengthAdjust="spacing" textLength="138" x="764" y="249.7646">sendNotifications(email)</text><polygon fill="#181818" points="757,299.6094,747,303.6094,757,307.6094,753,303.6094" style="stroke:#181818;stroke-width:1.0;"/><line style="stroke:#181818;stroke-width:1.0;stroke-dasharray:2.0,2.0;" x1="751" x2="995" y1="303.6094" y2="303.6094"/><text fill="#000000" font-family="sans-serif" font-size="13" font-weight="bold" lengthAdjust="spacing" textLength="7" x="763" y="289.7012">5</text><text fill="#000000" font-family="sans-serif" font-size="13" lengthAdjust="spacing" textLength="206" x="774" y="281.0557">list of all notifications of a candidate</text><text fill="#000000" font-family="sans-serif" font-size="13" lengthAdjust="spacing" textLength="131" x="778" y="298.3467">and operation success</text><polygon fill="#181818" points="1110,330.9004,1120,334.9004,1110,338.9004,1114,334.9004" style="stroke:#181818;stroke-width:1.0;"/><line style="stroke:#181818;stroke-width:1.0;" x1="746" x2="1116" y1="334.9004" y2="334.9004"/><text fill="#000000" font-family="sans-serif" font-size="13" font-weight="bold" lengthAdjust="spacing" textLength="7" x="753" y="329.6377">6</text><text fill="#000000" font-family="sans-serif" font-size="13" lengthAdjust="spacing" textLength="92" x="764" y="329.6377">allNotifications()</text><polygon fill="#181818" points="1256.5,362.1914,1266.5,366.1914,1256.5,370.1914,1260.5,366.1914" style="stroke:#181818;stroke-width:1.0;"/><line style="stroke:#181818;stroke-width:1.0;" x1="1132" x2="1262.5" y1="366.1914" y2="366.1914"/><text fill="#000000" font-family="sans-serif" font-size="13" font-weight="bold" lengthAdjust="spacing" textLength="7" x="1139" y="360.9287">7</text><text fill="#000000" font-family="sans-serif" font-size="13" lengthAdjust="spacing" textLength="92" x="1150" y="360.9287">allNotifications()</text><polygon fill="#181818" points="1143,393.4824,1133,397.4824,1143,401.4824,1139,397.4824" style="stroke:#181818;stroke-width:1.0;"/><line style="stroke:#181818;stroke-width:1.0;stroke-dasharray:2.0,2.0;" x1="1137" x2="1272.5" y1="397.4824" y2="397.4824"/><text fill="#000000" font-family="sans-serif" font-size="13" font-weight="bold" lengthAdjust="spacing" textLength="7" x="1149" y="392.2197">8</text><text fill="#000000" font-family="sans-serif" font-size="13" lengthAdjust="spacing" textLength="86" x="1160" y="392.2197">all notifications</text><polygon fill="#181818" points="757,424.7734,747,428.7734,757,432.7734,753,428.7734" style="stroke:#181818;stroke-width:1.0;"/><line style="stroke:#181818;stroke-width:1.0;stroke-dasharray:2.0,2.0;" x1="751" x2="1126" y1="428.7734" y2="428.7734"/><text fill="#000000" font-family="sans-serif" font-size="13" font-weight="bold" lengthAdjust="spacing" textLength="7" x="763" y="423.5107">9</text><text fill="#000000" font-family="sans-serif" font-size="13" lengthAdjust="spacing" textLength="86" x="774" y="423.5107">all notifications</text><path d="M630,443.7734 L703,443.7734 L703,453.0645 L693,463.0645 L630,463.0645 L630,443.7734 " fill="#EEEEEE" style="stroke:#000000;stroke-width:1.5;"/><rect fill="none" height="144.4551" style="stroke:#000000;stroke-width:1.5;" width="833" x="630" y="443.7734"/><text fill="#000000" font-family="sans-serif" font-size="13" font-weight="bold" lengthAdjust="spacing" textLength="28" x="645" y="458.8018">loop</text><text fill="#000000" font-family="sans-serif" font-size="11" font-weight="bold" lengthAdjust="spacing" textLength="175" x="718" y="457.6436">[for each notification on the list]</text><polygon fill="#181818" points="1387,482.3555,1397,486.3555,1387,490.3555,1391,486.3555" style="stroke:#181818;stroke-width:1.0;"/><line style="stroke:#181818;stroke-width:1.0;" x1="746" x2="1393" y1="486.3555" y2="486.3555"/><text fill="#000000" font-family="sans-serif" font-size="13" font-weight="bold" lengthAdjust="spacing" textLength="14" x="753" y="481.0928">10</text><text fill="#000000" font-family="sans-serif" font-size="13" lengthAdjust="spacing" textLength="50" x="771" y="481.0928">identity()</text><polygon fill="#181818" points="757,513.6465,747,517.6465,757,521.6465,753,517.6465" style="stroke:#181818;stroke-width:1.0;"/><line style="stroke:#181818;stroke-width:1.0;stroke-dasharray:2.0,2.0;" x1="751" x2="1403" y1="517.6465" y2="517.6465"/><text fill="#000000" font-family="sans-serif" font-size="13" font-weight="bold" lengthAdjust="spacing" textLength="14" x="763" y="512.3838">11</text><text fill="#000000" font-family="sans-serif" font-size="13" lengthAdjust="spacing" textLength="53" x="781" y="512.3838">Integer id</text><polygon fill="#181818" points="1387,544.9375,1397,548.9375,1387,552.9375,1391,548.9375" style="stroke:#181818;stroke-width:1.0;"/><line style="stroke:#181818;stroke-width:1.0;" x1="746" x2="1393" y1="548.9375" y2="548.9375"/><text fill="#000000" font-family="sans-serif" font-size="13" font-weight="bold" lengthAdjust="spacing" textLength="14" x="753" y="543.6748">12</text><text fill="#000000" font-family="sans-serif" font-size="13" lengthAdjust="spacing" textLength="56" x="771" y="543.6748">equals(id)</text><polygon fill="#181818" points="757,576.2285,747,580.2285,757,584.2285,753,580.2285" style="stroke:#181818;stroke-width:1.0;"/><line style="stroke:#181818;stroke-width:1.0;stroke-dasharray:2.0,2.0;" x1="751" x2="1403" y1="580.2285" y2="580.2285"/><text fill="#000000" font-family="sans-serif" font-size="13" font-weight="bold" lengthAdjust="spacing" textLength="14" x="763" y="574.9658">13</text><text fill="#000000" font-family="sans-serif" font-size="13" lengthAdjust="spacing" textLength="59" x="781" y="574.9658">return true</text><polygon fill="#181818" points="526.5,614.5195,516.5,618.5195,526.5,622.5195,522.5,618.5195" style="stroke:#181818;stroke-width:1.0;"/><line style="stroke:#181818;stroke-width:1.0;stroke-dasharray:2.0,2.0;" x1="520.5" x2="740" y1="618.5195" y2="618.5195"/><text fill="#000000" font-family="sans-serif" font-size="13" font-weight="bold" lengthAdjust="spacing" textLength="14" x="532.5" y="613.2568">14</text><text fill="#000000" font-family="sans-serif" font-size="13" lengthAdjust="spacing" textLength="174" x="550.5" y="613.2568">List&lt;Notification&gt; notifications</text><polygon fill="#181818" points="300.5,645.8105,290.5,649.8105,300.5,653.8105,296.5,649.8105" style="stroke:#181818;stroke-width:1.0;"/><line style="stroke:#181818;stroke-width:1.0;stroke-dasharray:2.0,2.0;" x1="294.5" x2="509.5" y1="649.8105" y2="649.8105"/><text fill="#000000" font-family="sans-serif" font-size="13" font-weight="bold" lengthAdjust="spacing" textLength="14" x="306.5" y="644.5479">15</text><text fill="#000000" font-family="sans-serif" font-size="13" lengthAdjust="spacing" textLength="174" x="324.5" y="644.5479">List&lt;Notification&gt; notifications</text><polygon fill="#181818" points="56.5,694.3926,46.5,698.3926,56.5,702.3926,52.5,698.3926" style="stroke:#181818;stroke-width:1.0;"/><line style="stroke:#181818;stroke-width:1.0;stroke-dasharray:2.0,2.0;" x1="50.5" x2="283.5" y1="698.3926" y2="698.3926"/><text fill="#000000" font-family="sans-serif" font-size="13" font-weight="bold" lengthAdjust="spacing" textLength="14" x="62.5" y="684.4844">16</text><text fill="#000000" font-family="sans-serif" font-size="13" lengthAdjust="spacing" textLength="188" x="80.5" y="675.8389">lists all notifications of candidate</text><text fill="#000000" font-family="sans-serif" font-size="13" lengthAdjust="spacing" textLength="183" x="84.5" y="693.1299">and displays operation success</text><!--SRC=[hLMnRkCm3Dtr5HpR8Lid8yYIgOT3SMYlMnT5PXhXL4adqGNozwMTmf4SHrPm1tYGBFBnyP6YP4VETXyx34ByrcGG6dWXIGZRWxJl24-Ez5uhITfP8QGY5s0hRQjRDXB2oq1QQIyjmKyTQJnA_UBh8wpNFc14IyEVpQRIS-ii1MSC1aPGuuRzCu1vvnSCdreXUyRJQkhsm-tYm-kluCWfPmQEf-NKC8MTHUNOSYTZhjSpUXSrAtPaup1kIk1iABqttxlUaYNNdqD1pggFIrXjoh8t8EEV2EJ0i1b8Oy3juQ0ZsDGo2LE24w8Oh4WcgMG3t0XjTlgCVpkCT8SVKflxAZfdm1Aj92pJA_T90-548pkzv5H4IQep6uHPJDfkHexBcBcF41ECLKLoGmTmzVicoAe__0GrDjMR1Lw3ynXEJHaxfJ1obxHubT1YrdDtgEd9v9cdIS-u2367Cu5FBjuD4SvUUP04RLNAOtgb4h5gmeovL9IoFjeect7EmvwdDziTCcVWZmuuzCUDTMGgkkMXhkbuLTOyowhq7YtXEzzOtLxDwtQYVBMbYNUw_Oz40r8NMBtGOO4ftsxevL_aN3z0UxDrUhmfzCF2lAeRdiilpKsS_dMkzyzDMY1e-lQDyyFjOhIrEdeZZt5XnXNVmYy0]--></g></svg>