<?xml version="1.0" encoding="us-ascii" standalone="no"?><svg xmlns="http://www.w3.org/2000/svg" xmlns:xlink="http://www.w3.org/1999/xlink" contentStyleType="text/css" height="1319.4px" preserveAspectRatio="none" style="width:1519px;height:1319px;background:#FFFFFF;" version="1.1" viewBox="0 0 1519 1319" width="1519.8px" zoomAndPan="magnify"><defs/><g><text fill="#000000" font-family="sans-serif" font-size="8.4" font-weight="bold" lengthAdjust="spacing" textLength="60" x="725.7" y="15.0645">Domain Model</text><!--cluster Customer Aggregate--><g id="cluster_Customer Aggregate"><rect fill="none" height="73.8" rx="1.5" ry="1.5" style="stroke:#000000;stroke-width:0.8999999999999999;" width="330" x="883.5" y="768.9727"/><text fill="#000000" font-family="sans-serif" font-size="8.4" font-weight="bold" lengthAdjust="spacing" textLength="87" x="1005" y="779.2371">Customer Aggregate</text></g><!--cluster Candidate Aggregate--><g id="cluster_Candidate Aggregate"><rect fill="none" height="105" rx="1.5" ry="1.5" style="stroke:#000000;stroke-width:0.8999999999999999;" width="278.1" x="1130.1" y="857.1727"/><text fill="#000000" font-family="sans-serif" font-size="8.4" font-weight="bold" lengthAdjust="spacing" textLength="88.8" x="1224.75" y="867.4371">Candidate Aggregate</text></g><!--cluster Job Requirements Specification Aggregate--><g id="cluster_Job Requirements Specification Aggregate"><rect fill="none" height="73.8" rx="1.5" ry="1.5" style="stroke:#000000;stroke-width:0.8999999999999999;" width="269.1" x="330" y="492.3727"/><text fill="#000000" font-family="sans-serif" font-size="8.4" font-weight="bold" lengthAdjust="spacing" textLength="180.6" x="374.25" y="502.6371">Job Requirements Specification Aggregate</text></g><!--cluster Job Opening Aggregate--><g id="cluster_Job Opening Aggregate"><rect fill="none" height="339" rx="1.5" ry="1.5" style="stroke:#000000;stroke-width:0.8999999999999999;" width="362.7" x="621.9" y="311.1727"/><text fill="#000000" font-family="sans-serif" font-size="8.4" font-weight="bold" lengthAdjust="spacing" textLength="100.2" x="753.15" y="321.4371">Job Opening Aggregate</text></g><!--cluster User Aggregate--><g id="cluster_User Aggregate"><rect fill="none" height="198.6" rx="1.5" ry="1.5" style="stroke:#000000;stroke-width:0.8999999999999999;" width="189.6" x="1326.6" y="1055.1727"/><text fill="#000000" font-family="sans-serif" font-size="8.4" font-weight="bold" lengthAdjust="spacing" textLength="66" x="1388.4" y="1065.4371">User Aggregate</text></g><!--cluster JobInterview Aggregate--><g id="cluster_JobInterview Aggregate"><rect fill="none" height="198.6" rx="1.5" ry="1.5" style="stroke:#000000;stroke-width:0.8999999999999999;" width="277.2" x="1126.5" y="341.1727"/><text fill="#000000" font-family="sans-serif" font-size="8.4" font-weight="bold" lengthAdjust="spacing" textLength="101.4" x="1214.4" y="351.4371">JobInterview Aggregate</text></g><!--cluster Process Aggregate--><g id="cluster_Process Aggregate"><rect fill="none" height="231.6" rx="1.5" ry="1.5" style="stroke:#000000;stroke-width:0.8999999999999999;" width="476.7" x="755.7" y="27.9727"/><text fill="#000000" font-family="sans-serif" font-size="8.4" font-weight="bold" lengthAdjust="spacing" textLength="80.4" x="953.85" y="38.2371">Process Aggregate</text></g><!--cluster Application Aggregate--><g id="cluster_Application Aggregate"><rect fill="none" height="198.6" rx="1.5" ry="1.5" style="stroke:#000000;stroke-width:0.8999999999999999;" width="537.9" x="750.3" y="1002.9727"/><text fill="#000000" font-family="sans-serif" font-size="8.4" font-weight="bold" lengthAdjust="spacing" textLength="93" x="972.75" y="1013.2371">Application Aggregate</text></g><!--cluster Interview Model Aggregate--><g id="cluster_Interview Model Aggregate"><rect fill="none" height="73.8" rx="1.5" ry="1.5" style="stroke:#000000;stroke-width:0.8999999999999999;" width="202.2" x="506.4" y="664.5727"/><text fill="#000000" font-family="sans-serif" font-size="8.4" font-weight="bold" lengthAdjust="spacing" textLength="114.6" x="550.2" y="674.8371">Interview Model Aggregate</text></g><!--cluster Language Engineer Aggregate--><g id="cluster_Language Engineer Aggregate"><rect fill="none" height="73.8" rx="1.5" ry="1.5" style="stroke:#000000;stroke-width:0.8999999999999999;" width="138" x="4.2" y="664.5727"/><text fill="#000000" font-family="sans-serif" font-size="8.4" font-weight="bold" lengthAdjust="spacing" textLength="128.4" x="9" y="674.8371">Language Engineer Aggregate</text></g><!--cluster Admin Aggregate--><g id="cluster_Admin Aggregate"><rect fill="none" height="73.8" rx="1.5" ry="1.5" style="stroke:#000000;stroke-width:0.8999999999999999;" width="81.6" x="32.4" y="832.5727"/><text fill="#000000" font-family="sans-serif" font-size="8.4" font-weight="bold" lengthAdjust="spacing" textLength="72" x="37.2" y="842.8371">Admin Aggregate</text></g><!--cluster Customer Manager Aggregate--><g id="cluster_Customer Manager Aggregate"><rect fill="none" height="73.8" rx="1.5" ry="1.5" style="stroke:#000000;stroke-width:0.8999999999999999;" width="136.2" x="338.1" y="832.5727"/><text fill="#000000" font-family="sans-serif" font-size="8.4" font-weight="bold" lengthAdjust="spacing" textLength="126.6" x="342.9" y="842.8371">Customer Manager Aggregate</text></g><!--cluster Operator Aggregate--><g id="cluster_Operator Aggregate"><rect fill="none" height="73.8" rx="1.5" ry="1.5" style="stroke:#000000;stroke-width:0.8999999999999999;" width="93.6" x="507" y="1118.1727"/><text fill="#000000" font-family="sans-serif" font-size="8.4" font-weight="bold" lengthAdjust="spacing" textLength="84" x="511.8" y="1128.4371">Operator Aggregate</text></g><!--cluster ANTLR Service Aggregate--><g id="cluster_ANTLR Service Aggregate"><rect fill="none" height="73.8" rx="1.5" ry="1.5" style="stroke:#000000;stroke-width:0.8999999999999999;" width="117.6" x="162" y="566.1727"/><text fill="#000000" font-family="sans-serif" font-size="8.4" font-weight="bold" lengthAdjust="spacing" textLength="108" x="166.8" y="576.4371">ANTLR Service Aggregate</text></g><!--cluster Company Aggregate--><g id="cluster_Company Aggregate"><rect fill="none" height="105" rx="1.5" ry="1.5" style="stroke:#000000;stroke-width:0.8999999999999999;" width="274.2" x="1131.6" y="621.9727"/><text fill="#000000" font-family="sans-serif" font-size="8.4" font-weight="bold" lengthAdjust="spacing" textLength="84.6" x="1226.4" y="632.2371">Company Aggregate</text></g><!--class Customer--><g id="elem_Customer"><rect codeLine="27" fill="#F0FFFF" height="41.1258" id="Customer" rx="1.5" ry="1.5" style="stroke:#000000;stroke-width:0.3;" width="55.8" x="893.1" y="791.4727"/><ellipse cx="902.1" cy="809.6355" fill="#ADD1B2" rx="6.6" ry="6.6" style="stroke:#181818;stroke-width:0.6;"/><path d="M901.4156,810.1137 L901.4156,811.6137 L904.0125,811.6137 L904.0125,811.0605 Q904.0125,810.6949 904.1531,810.5355 Q904.3031,810.3762 904.5281,810.3762 Q904.7531,810.3762 904.8938,810.5355 Q905.0344,810.6949 905.0344,811.0605 L905.0344,812.6355 L900.2344,812.6355 Q899.8594,812.6355 899.7,812.4949 Q899.55,812.3543 899.55,812.1199 Q899.55,811.8949 899.7094,811.7543 Q899.8688,811.6137 900.2344,811.6137 L900.3938,811.6137 L900.3938,807.6199 L900.2344,807.6199 Q899.8594,807.6199 899.7,807.4793 Q899.55,807.3387 899.55,807.1043 Q899.55,806.8793 899.7,806.7387 Q899.8594,806.598 900.2344,806.598 L904.8094,806.598 L904.8094,808.1543 Q904.8094,808.5199 904.6687,808.6793 Q904.5375,808.8293 904.3031,808.8293 Q904.0781,808.8293 903.9375,808.6793 Q903.7969,808.5199 903.7969,808.1543 L903.7969,807.6199 L901.4156,807.6199 L901.4156,809.0918 L902.3063,809.0918 Q902.3063,808.698 902.3813,808.5855 Q902.5406,808.3418 902.8219,808.3418 Q903.0469,808.3418 903.1875,808.5012 Q903.3281,808.6512 903.3281,809.0168 L903.3281,810.198 Q903.3281,810.5262 903.2531,810.6387 Q903.0938,810.873 902.8219,810.873 Q902.5406,810.873 902.3813,810.6293 Q902.3063,810.5168 902.3063,810.1137 L901.4156,810.1137 Z " fill="#000000"/><text fill="#000000" font-family="sans-serif" font-size="7.2" font-style="italic" lengthAdjust="spacing" textLength="25.8" x="915.9" y="802.2422">&#171;entity&#187;</text><text fill="#000000" font-family="sans-serif" font-size="7.2" font-style="italic" lengthAdjust="spacing" textLength="21" x="918.3" y="811.8188">&#171;root&#187;</text><text fill="#000000" font-family="sans-serif" font-size="8.4" lengthAdjust="spacing" textLength="36.6" x="910.5" y="822.6902">Customer</text><line style="stroke:#000000;stroke-width:0.3;" x1="893.7" x2="948.3" y1="827.7984" y2="827.7984"/></g><!--entity EmailAddress--><g id="elem_EmailAddress"><rect fill="#F0FFDD" height="25.9453" rx="1.5" ry="1.5" style="stroke:#000000;stroke-width:0.3;" width="70.2" x="1133.7" y="799.2727"/><text fill="#000000" font-family="sans-serif" font-size="8.4" font-style="italic" lengthAdjust="spacing" textLength="58.2" x="1139.7" y="810.1371">&#171;Value Object&#187;</text><text fill="#000000" font-family="sans-serif" font-size="8.4" lengthAdjust="spacing" textLength="51.6" x="1143" y="821.3098">EmailAddress</text></g><!--class Candidate--><g id="elem_Candidate"><rect codeLine="36" fill="#F0FFFF" height="41.1258" id="Candidate" rx="1.5" ry="1.5" style="stroke:#000000;stroke-width:0.3;" width="58.2" x="1139.7" y="909.0727"/><ellipse cx="1148.7" cy="927.2355" fill="#ADD1B2" rx="6.6" ry="6.6" style="stroke:#181818;stroke-width:0.6;"/><path d="M1148.0156,927.7137 L1148.0156,929.2137 L1150.6125,929.2137 L1150.6125,928.6605 Q1150.6125,928.2949 1150.7531,928.1355 Q1150.9031,927.9762 1151.1281,927.9762 Q1151.3531,927.9762 1151.4937,928.1355 Q1151.6344,928.2949 1151.6344,928.6605 L1151.6344,930.2355 L1146.8344,930.2355 Q1146.4594,930.2355 1146.3,930.0949 Q1146.15,929.9543 1146.15,929.7199 Q1146.15,929.4949 1146.3094,929.3543 Q1146.4688,929.2137 1146.8344,929.2137 L1146.9937,929.2137 L1146.9937,925.2199 L1146.8344,925.2199 Q1146.4594,925.2199 1146.3,925.0793 Q1146.15,924.9387 1146.15,924.7043 Q1146.15,924.4793 1146.3,924.3387 Q1146.4594,924.198 1146.8344,924.198 L1151.4094,924.198 L1151.4094,925.7543 Q1151.4094,926.1199 1151.2688,926.2793 Q1151.1375,926.4293 1150.9031,926.4293 Q1150.6781,926.4293 1150.5375,926.2793 Q1150.3969,926.1199 1150.3969,925.7543 L1150.3969,925.2199 L1148.0156,925.2199 L1148.0156,926.6918 L1148.9063,926.6918 Q1148.9063,926.298 1148.9813,926.1855 Q1149.1406,925.9418 1149.4219,925.9418 Q1149.6469,925.9418 1149.7875,926.1012 Q1149.9281,926.2512 1149.9281,926.6168 L1149.9281,927.798 Q1149.9281,928.1262 1149.8531,928.2387 Q1149.6938,928.473 1149.4219,928.473 Q1149.1406,928.473 1148.9813,928.2293 Q1148.9063,928.1168 1148.9063,927.7137 L1148.0156,927.7137 Z " fill="#000000"/><text fill="#000000" font-family="sans-serif" font-size="7.2" font-style="italic" lengthAdjust="spacing" textLength="25.8" x="1163.7" y="919.8422">&#171;entity&#187;</text><text fill="#000000" font-family="sans-serif" font-size="7.2" font-style="italic" lengthAdjust="spacing" textLength="21" x="1166.1" y="929.4187">&#171;root&#187;</text><text fill="#000000" font-family="sans-serif" font-size="8.4" lengthAdjust="spacing" textLength="39" x="1157.1" y="940.2902">Candidate</text><line style="stroke:#000000;stroke-width:0.3;" x1="1140.3" x2="1197.3" y1="945.3984" y2="945.3984"/></g><!--entity Curriculum--><g id="elem_Curriculum"><rect fill="#F0FFDD" height="25.9453" rx="1.5" ry="1.5" style="stroke:#000000;stroke-width:0.3;" width="70.2" x="1322.4" y="926.4727"/><text fill="#000000" font-family="sans-serif" font-size="8.4" font-style="italic" lengthAdjust="spacing" textLength="58.2" x="1328.4" y="937.3371">&#171;Value Object&#187;</text><text fill="#000000" font-family="sans-serif" font-size="8.4" lengthAdjust="spacing" textLength="40.8" x="1337.1" y="948.5098">Curriculum</text></g><!--entity TelephoneNumber--><g id="elem_TelephoneNumber"><rect fill="#F0FFDD" height="25.9453" rx="1.5" ry="1.5" style="stroke:#000000;stroke-width:0.3;" width="82.2" x="1316.4" y="879.6727"/><text fill="#000000" font-family="sans-serif" font-size="8.4" font-style="italic" lengthAdjust="spacing" textLength="58.2" x="1328.4" y="890.5371">&#171;Value Object&#187;</text><text fill="#000000" font-family="sans-serif" font-size="8.4" lengthAdjust="spacing" textLength="70.2" x="1322.4" y="901.7098">TelephoneNumber</text></g><!--class JobRequirementsSpecification--><g id="elem_JobRequirementsSpecification"><rect codeLine="48" fill="#F0FFFF" height="41.1258" id="JobRequirementsSpecification" rx="1.5" ry="1.5" style="stroke:#000000;stroke-width:0.3;" width="133.2" x="339.6" y="514.8727"/><ellipse cx="348.6" cy="533.0355" fill="#ADD1B2" rx="6.6" ry="6.6" style="stroke:#181818;stroke-width:0.6;"/><path d="M347.9156,533.5137 L347.9156,535.0137 L350.5125,535.0137 L350.5125,534.4605 Q350.5125,534.0949 350.6531,533.9355 Q350.8031,533.7762 351.0281,533.7762 Q351.2531,533.7762 351.3938,533.9355 Q351.5344,534.0949 351.5344,534.4605 L351.5344,536.0355 L346.7344,536.0355 Q346.3594,536.0355 346.2,535.8949 Q346.05,535.7543 346.05,535.5199 Q346.05,535.2949 346.2094,535.1543 Q346.3688,535.0137 346.7344,535.0137 L346.8938,535.0137 L346.8938,531.0199 L346.7344,531.0199 Q346.3594,531.0199 346.2,530.8793 Q346.05,530.7387 346.05,530.5043 Q346.05,530.2793 346.2,530.1387 Q346.3594,529.998 346.7344,529.998 L351.3094,529.998 L351.3094,531.5543 Q351.3094,531.9199 351.1688,532.0793 Q351.0375,532.2293 350.8031,532.2293 Q350.5781,532.2293 350.4375,532.0793 Q350.2969,531.9199 350.2969,531.5543 L350.2969,531.0199 L347.9156,531.0199 L347.9156,532.4918 L348.8063,532.4918 Q348.8063,532.098 348.8812,531.9855 Q349.0406,531.7418 349.3219,531.7418 Q349.5469,531.7418 349.6875,531.9012 Q349.8281,532.0512 349.8281,532.4168 L349.8281,533.598 Q349.8281,533.9262 349.7531,534.0387 Q349.5938,534.273 349.3219,534.273 Q349.0406,534.273 348.8812,534.0293 Q348.8063,533.9168 348.8063,533.5137 L347.9156,533.5137 Z " fill="#000000"/><text fill="#000000" font-family="sans-serif" font-size="7.2" font-style="italic" lengthAdjust="spacing" textLength="25.8" x="401.1" y="525.6422">&#171;entity&#187;</text><text fill="#000000" font-family="sans-serif" font-size="7.2" font-style="italic" lengthAdjust="spacing" textLength="21" x="403.5" y="535.2187">&#171;root&#187;</text><text fill="#000000" font-family="sans-serif" font-size="8.4" lengthAdjust="spacing" textLength="114" x="357" y="546.0902">JobRequirementsSpecification</text><line style="stroke:#000000;stroke-width:0.3;" x1="340.2" x2="472.2" y1="551.1984" y2="551.1984"/></g><!--class Requirements--><g id="elem_Requirements"><rect codeLine="50" fill="#F0FFFF" height="31.5492" id="Requirements" rx="1.5" ry="1.5" style="stroke:#000000;stroke-width:0.3;" width="72" x="517.5" y="519.6727"/><ellipse cx="526.5" cy="533.0473" fill="#ADD1B2" rx="6.6" ry="6.6" style="stroke:#181818;stroke-width:0.6;"/><path d="M525.8156,533.5254 L525.8156,535.0254 L528.4125,535.0254 L528.4125,534.4723 Q528.4125,534.1066 528.5531,533.9473 Q528.7031,533.7879 528.9281,533.7879 Q529.1531,533.7879 529.2937,533.9473 Q529.4344,534.1066 529.4344,534.4723 L529.4344,536.0473 L524.6344,536.0473 Q524.2594,536.0473 524.1,535.9066 Q523.95,535.766 523.95,535.5316 Q523.95,535.3066 524.1094,535.166 Q524.2688,535.0254 524.6344,535.0254 L524.7937,535.0254 L524.7937,531.0316 L524.6344,531.0316 Q524.2594,531.0316 524.1,530.891 Q523.95,530.7504 523.95,530.516 Q523.95,530.291 524.1,530.1504 Q524.2594,530.0098 524.6344,530.0098 L529.2094,530.0098 L529.2094,531.566 Q529.2094,531.9316 529.0688,532.091 Q528.9375,532.241 528.7031,532.241 Q528.4781,532.241 528.3375,532.091 Q528.1969,531.9316 528.1969,531.566 L528.1969,531.0316 L525.8156,531.0316 L525.8156,532.5035 L526.7063,532.5035 Q526.7063,532.1098 526.7813,531.9973 Q526.9406,531.7535 527.2219,531.7535 Q527.4469,531.7535 527.5875,531.9129 Q527.7281,532.0629 527.7281,532.4285 L527.7281,533.6098 Q527.7281,533.9379 527.6531,534.0504 Q527.4938,534.2848 527.2219,534.2848 Q526.9406,534.2848 526.7813,534.041 Q526.7063,533.9285 526.7063,533.5254 L525.8156,533.5254 Z " fill="#000000"/><text fill="#000000" font-family="sans-serif" font-size="7.2" font-style="italic" lengthAdjust="spacing" textLength="25.8" x="548.4" y="530.4422">&#171;entity&#187;</text><text fill="#000000" font-family="sans-serif" font-size="8.4" lengthAdjust="spacing" textLength="52.8" x="534.9" y="541.3137">Requirements</text><line style="stroke:#000000;stroke-width:0.3;" x1="518.1" x2="588.9" y1="546.4219" y2="546.4219"/></g><!--class JobOpening--><g id="elem_JobOpening"><rect codeLine="57" fill="#F0FFFF" height="41.1258" id="JobOpening" rx="1.5" ry="1.5" style="stroke:#000000;stroke-width:0.3;" width="64.8" x="631.5" y="494.4727"/><ellipse cx="640.5" cy="512.6355" fill="#ADD1B2" rx="6.6" ry="6.6" style="stroke:#181818;stroke-width:0.6;"/><path d="M639.8156,513.1137 L639.8156,514.6137 L642.4125,514.6137 L642.4125,514.0605 Q642.4125,513.6949 642.5531,513.5355 Q642.7031,513.3762 642.9281,513.3762 Q643.1531,513.3762 643.2937,513.5355 Q643.4344,513.6949 643.4344,514.0605 L643.4344,515.6355 L638.6344,515.6355 Q638.2594,515.6355 638.1,515.4949 Q637.95,515.3543 637.95,515.1199 Q637.95,514.8949 638.1094,514.7543 Q638.2688,514.6137 638.6344,514.6137 L638.7937,514.6137 L638.7937,510.6199 L638.6344,510.6199 Q638.2594,510.6199 638.1,510.4793 Q637.95,510.3387 637.95,510.1043 Q637.95,509.8793 638.1,509.7387 Q638.2594,509.598 638.6344,509.598 L643.2094,509.598 L643.2094,511.1543 Q643.2094,511.5199 643.0688,511.6793 Q642.9375,511.8293 642.7031,511.8293 Q642.4781,511.8293 642.3375,511.6793 Q642.1969,511.5199 642.1969,511.1543 L642.1969,510.6199 L639.8156,510.6199 L639.8156,512.0918 L640.7063,512.0918 Q640.7063,511.698 640.7813,511.5855 Q640.9406,511.3418 641.2219,511.3418 Q641.4469,511.3418 641.5875,511.5012 Q641.7281,511.6512 641.7281,512.0168 L641.7281,513.198 Q641.7281,513.5262 641.6531,513.6387 Q641.4938,513.873 641.2219,513.873 Q640.9406,513.873 640.7813,513.6293 Q640.7063,513.5168 640.7063,513.1137 L639.8156,513.1137 Z " fill="#000000"/><text fill="#000000" font-family="sans-serif" font-size="7.2" font-style="italic" lengthAdjust="spacing" textLength="25.8" x="658.8" y="505.2422">&#171;entity&#187;</text><text fill="#000000" font-family="sans-serif" font-size="7.2" font-style="italic" lengthAdjust="spacing" textLength="21" x="661.2" y="514.8187">&#171;root&#187;</text><text fill="#000000" font-family="sans-serif" font-size="8.4" lengthAdjust="spacing" textLength="45.6" x="648.9" y="525.6902">JobOpening</text><line style="stroke:#000000;stroke-width:0.3;" x1="632.1" x2="695.7" y1="530.7984" y2="530.7984"/></g><g id="elem_GMN32"><path d="M867,574.5727 L867,585.5707 L825.36,583.9327 L867,590.3707 L867,611.6965 A0,0 0 0 0 867,611.6965 L975,611.6965 A0,0 0 0 0 975,611.6965 L975,580.5727 L969,574.5727 L867,574.5727 A0,0 0 0 0 867,574.5727 " fill="#FEFFDD" style="stroke:#181818;stroke-width:0.3;"/><path d="M969,574.5727 L969,580.5727 L975,580.5727 L969,574.5727 " fill="#FEFFDD" style="stroke:#181818;stroke-width:0.3;"/><text fill="#000000" font-family="sans-serif" font-size="7.8" lengthAdjust="spacing" textLength="95.4" x="870.6" y="585.9896">Can be one of the following:</text><text fill="#000000" font-family="sans-serif" font-size="7.8" lengthAdjust="spacing" textLength="31.8" x="870.6" y="596.3643">- full-time</text><text fill="#000000" font-family="sans-serif" font-size="7.8" lengthAdjust="spacing" textLength="35.4" x="870.6" y="606.7389">- part-time</text></g><g id="elem_GMN35"><path d="M867,505.8727 L867,528.9067 L825.36,532.6567 L867,533.7067 L867,553.3711 A0,0 0 0 0 867,553.3711 L975,553.3711 A0,0 0 0 0 975,553.3711 L975,511.8727 L969,505.8727 L867,505.8727 A0,0 0 0 0 867,505.8727 " fill="#FEFFDD" style="stroke:#181818;stroke-width:0.3;"/><path d="M969,505.8727 L969,511.8727 L975,511.8727 L969,505.8727 " fill="#FEFFDD" style="stroke:#181818;stroke-width:0.3;"/><text fill="#000000" font-family="sans-serif" font-size="7.8" lengthAdjust="spacing" textLength="95.4" x="870.6" y="517.2896">Can be one of the following:</text><text fill="#000000" font-family="sans-serif" font-size="7.8" lengthAdjust="spacing" textLength="28.8" x="870.6" y="527.6643">- remote</text><text fill="#000000" font-family="sans-serif" font-size="7.8" lengthAdjust="spacing" textLength="25.8" x="870.6" y="538.0389">- hybrid</text><text fill="#000000" font-family="sans-serif" font-size="7.8" lengthAdjust="spacing" textLength="25.8" x="870.6" y="548.4135">- onsite</text></g><!--entity JobReference--><g id="elem_JobReference"><rect fill="#F0FFDD" height="25.9453" rx="1.5" ry="1.5" style="stroke:#000000;stroke-width:0.3;" width="70.2" x="755.1" y="333.6727"/><text fill="#000000" font-family="sans-serif" font-size="8.4" font-style="italic" lengthAdjust="spacing" textLength="58.2" x="761.1" y="344.5371">&#171;Value Object&#187;</text><text fill="#000000" font-family="sans-serif" font-size="8.4" lengthAdjust="spacing" textLength="52.8" x="763.8" y="355.7098">JobReference</text></g><!--entity TitleOrFunction--><g id="elem_TitleOrFunction"><rect fill="#F0FFDD" height="25.9453" rx="1.5" ry="1.5" style="stroke:#000000;stroke-width:0.3;" width="70.8" x="754.8" y="614.4727"/><text fill="#000000" font-family="sans-serif" font-size="8.4" font-style="italic" lengthAdjust="spacing" textLength="58.2" x="761.1" y="625.3371">&#171;Value Object&#187;</text><text fill="#000000" font-family="sans-serif" font-size="8.4" lengthAdjust="spacing" textLength="58.8" x="760.8" y="636.5098">TitleOrFunction</text></g><!--entity ContractType--><g id="elem_ContractType"><rect fill="#F0FFDD" height="25.9453" rx="1.5" ry="1.5" style="stroke:#000000;stroke-width:0.3;" width="70.2" x="755.1" y="567.6727"/><text fill="#000000" font-family="sans-serif" font-size="8.4" font-style="italic" lengthAdjust="spacing" textLength="58.2" x="761.1" y="578.5371">&#171;Value Object&#187;</text><text fill="#000000" font-family="sans-serif" font-size="8.4" lengthAdjust="spacing" textLength="51.6" x="764.4" y="589.7098">ContractType</text></g><!--entity Mode--><g id="elem_Mode"><rect fill="#F0FFDD" height="25.9453" rx="1.5" ry="1.5" style="stroke:#000000;stroke-width:0.3;" width="70.2" x="755.1" y="520.8727"/><text fill="#000000" font-family="sans-serif" font-size="8.4" font-style="italic" lengthAdjust="spacing" textLength="58.2" x="761.1" y="531.7371">&#171;Value Object&#187;</text><text fill="#000000" font-family="sans-serif" font-size="8.4" lengthAdjust="spacing" textLength="21" x="779.7" y="542.9098">Mode</text></g><!--entity Address--><g id="elem_Address"><rect fill="#F0FFDD" height="25.9453" rx="1.5" ry="1.5" style="stroke:#000000;stroke-width:0.3;" width="70.2" x="755.1" y="474.0727"/><text fill="#000000" font-family="sans-serif" font-size="8.4" font-style="italic" lengthAdjust="spacing" textLength="58.2" x="761.1" y="484.9371">&#171;Value Object&#187;</text><text fill="#000000" font-family="sans-serif" font-size="8.4" lengthAdjust="spacing" textLength="31.2" x="774.6" y="496.1098">Address</text></g><!--entity VacanciesNumber--><g id="elem_VacanciesNumber"><rect fill="#F0FFDD" height="25.9453" rx="1.5" ry="1.5" style="stroke:#000000;stroke-width:0.3;" width="80.4" x="750" y="427.2727"/><text fill="#000000" font-family="sans-serif" font-size="8.4" font-style="italic" lengthAdjust="spacing" textLength="58.2" x="761.1" y="438.1371">&#171;Value Object&#187;</text><text fill="#000000" font-family="sans-serif" font-size="8.4" lengthAdjust="spacing" textLength="68.4" x="756" y="449.3098">VacanciesNumber</text></g><!--entity Description--><g id="elem_Description"><rect fill="#F0FFDD" height="25.9453" rx="1.5" ry="1.5" style="stroke:#000000;stroke-width:0.3;" width="70.2" x="755.1" y="380.4727"/><text fill="#000000" font-family="sans-serif" font-size="8.4" font-style="italic" lengthAdjust="spacing" textLength="58.2" x="761.1" y="391.3371">&#171;Value Object&#187;</text><text fill="#000000" font-family="sans-serif" font-size="8.4" lengthAdjust="spacing" textLength="42.6" x="768.9" y="402.5098">Description</text></g><!--class User--><g id="elem_User"><rect codeLine="98" fill="#F0FFFF" height="41.1258" id="User" rx="1.5" ry="1.5" style="stroke:#000000;stroke-width:0.3;" width="42.6" x="1336.2" y="1150.8727"/><ellipse cx="1345.2" cy="1169.0355" fill="#ADD1B2" rx="6.6" ry="6.6" style="stroke:#181818;stroke-width:0.6;"/><path d="M1344.5156,1169.5137 L1344.5156,1171.0137 L1347.1125,1171.0137 L1347.1125,1170.4605 Q1347.1125,1170.0949 1347.2531,1169.9355 Q1347.4031,1169.7762 1347.6281,1169.7762 Q1347.8531,1169.7762 1347.9937,1169.9355 Q1348.1344,1170.0949 1348.1344,1170.4605 L1348.1344,1172.0355 L1343.3344,1172.0355 Q1342.9594,1172.0355 1342.8,1171.8949 Q1342.65,1171.7543 1342.65,1171.5199 Q1342.65,1171.2949 1342.8094,1171.1543 Q1342.9688,1171.0137 1343.3344,1171.0137 L1343.4937,1171.0137 L1343.4937,1167.0199 L1343.3344,1167.0199 Q1342.9594,1167.0199 1342.8,1166.8793 Q1342.65,1166.7387 1342.65,1166.5043 Q1342.65,1166.2793 1342.8,1166.1387 Q1342.9594,1165.998 1343.3344,1165.998 L1347.9094,1165.998 L1347.9094,1167.5543 Q1347.9094,1167.9199 1347.7688,1168.0793 Q1347.6375,1168.2293 1347.4031,1168.2293 Q1347.1781,1168.2293 1347.0375,1168.0793 Q1346.8969,1167.9199 1346.8969,1167.5543 L1346.8969,1167.0199 L1344.5156,1167.0199 L1344.5156,1168.4918 L1345.4063,1168.4918 Q1345.4063,1168.098 1345.4813,1167.9855 Q1345.6406,1167.7418 1345.9219,1167.7418 Q1346.1469,1167.7418 1346.2875,1167.9012 Q1346.4281,1168.0512 1346.4281,1168.4168 L1346.4281,1169.598 Q1346.4281,1169.9262 1346.3531,1170.0387 Q1346.1938,1170.273 1345.9219,1170.273 Q1345.6406,1170.273 1345.4813,1170.0293 Q1345.4063,1169.9168 1345.4063,1169.5137 L1344.5156,1169.5137 Z " fill="#000000"/><text fill="#000000" font-family="sans-serif" font-size="7.2" font-style="italic" lengthAdjust="spacing" textLength="25.8" x="1352.4" y="1161.6422">&#171;entity&#187;</text><text fill="#000000" font-family="sans-serif" font-size="7.2" font-style="italic" lengthAdjust="spacing" textLength="21" x="1354.8" y="1171.2188">&#171;root&#187;</text><text fill="#000000" font-family="sans-serif" font-size="8.4" lengthAdjust="spacing" textLength="17.4" x="1356.6" y="1182.0902">User</text><line style="stroke:#000000;stroke-width:0.3;" x1="1336.8" x2="1378.2" y1="1187.1984" y2="1187.1984"/></g><!--entity UserEmail--><g id="elem_UserEmail"><rect fill="#F0FFDD" height="25.9453" rx="1.5" ry="1.5" style="stroke:#000000;stroke-width:0.3;" width="70.2" x="1436.4" y="1218.0727"/><text fill="#000000" font-family="sans-serif" font-size="8.4" font-style="italic" lengthAdjust="spacing" textLength="58.2" x="1442.4" y="1228.9371">&#171;Value Object&#187;</text><text fill="#000000" font-family="sans-serif" font-size="8.4" lengthAdjust="spacing" textLength="37.8" x="1452.6" y="1240.1098">UserEmail</text></g><!--entity UserName--><g id="elem_UserName"><rect fill="#F0FFDD" height="25.9453" rx="1.5" ry="1.5" style="stroke:#000000;stroke-width:0.3;" width="70.2" x="1436.4" y="1171.2727"/><text fill="#000000" font-family="sans-serif" font-size="8.4" font-style="italic" lengthAdjust="spacing" textLength="58.2" x="1442.4" y="1182.1371">&#171;Value Object&#187;</text><text fill="#000000" font-family="sans-serif" font-size="8.4" lengthAdjust="spacing" textLength="39" x="1452" y="1193.3098">UserName</text></g><!--entity UserPassword--><g id="elem_UserPassword"><rect fill="#F0FFDD" height="25.9453" rx="1.5" ry="1.5" style="stroke:#000000;stroke-width:0.3;" width="70.2" x="1436.4" y="1124.4727"/><text fill="#000000" font-family="sans-serif" font-size="8.4" font-style="italic" lengthAdjust="spacing" textLength="58.2" x="1442.4" y="1135.3371">&#171;Value Object&#187;</text><text fill="#000000" font-family="sans-serif" font-size="8.4" lengthAdjust="spacing" textLength="54" x="1444.5" y="1146.5098">UserPassword</text></g><!--entity Username--><g id="elem_Username"><rect fill="#F0FFDD" height="25.9453" rx="1.5" ry="1.5" style="stroke:#000000;stroke-width:0.3;" width="70.2" x="1436.4" y="1077.6727"/><text fill="#000000" font-family="sans-serif" font-size="8.4" font-style="italic" lengthAdjust="spacing" textLength="58.2" x="1442.4" y="1088.5371">&#171;Value Object&#187;</text><text fill="#000000" font-family="sans-serif" font-size="8.4" lengthAdjust="spacing" textLength="38.4" x="1452.3" y="1099.7098">Username</text></g><!--class JobInterview--><g id="elem_JobInterview"><rect codeLine="117" fill="#F0FFFF" height="41.1258" id="JobInterview" rx="1.5" ry="1.5" style="stroke:#000000;stroke-width:0.3;" width="65.4" x="1136.1" y="430.8727"/><ellipse cx="1145.1" cy="449.0355" fill="#ADD1B2" rx="6.6" ry="6.6" style="stroke:#181818;stroke-width:0.6;"/><path d="M1144.4156,449.5137 L1144.4156,451.0137 L1147.0125,451.0137 L1147.0125,450.4605 Q1147.0125,450.0949 1147.1531,449.9355 Q1147.3031,449.7762 1147.5281,449.7762 Q1147.7531,449.7762 1147.8938,449.9355 Q1148.0344,450.0949 1148.0344,450.4605 L1148.0344,452.0355 L1143.2344,452.0355 Q1142.8594,452.0355 1142.7,451.8949 Q1142.55,451.7543 1142.55,451.5199 Q1142.55,451.2949 1142.7094,451.1543 Q1142.8687,451.0137 1143.2344,451.0137 L1143.3938,451.0137 L1143.3938,447.0199 L1143.2344,447.0199 Q1142.8594,447.0199 1142.7,446.8793 Q1142.55,446.7387 1142.55,446.5043 Q1142.55,446.2793 1142.7,446.1387 Q1142.8594,445.998 1143.2344,445.998 L1147.8094,445.998 L1147.8094,447.5543 Q1147.8094,447.9199 1147.6688,448.0793 Q1147.5375,448.2293 1147.3031,448.2293 Q1147.0781,448.2293 1146.9375,448.0793 Q1146.7969,447.9199 1146.7969,447.5543 L1146.7969,447.0199 L1144.4156,447.0199 L1144.4156,448.4918 L1145.3062,448.4918 Q1145.3062,448.098 1145.3813,447.9855 Q1145.5406,447.7418 1145.8219,447.7418 Q1146.0469,447.7418 1146.1875,447.9012 Q1146.3281,448.0512 1146.3281,448.4168 L1146.3281,449.598 Q1146.3281,449.9262 1146.2531,450.0387 Q1146.0938,450.273 1145.8219,450.273 Q1145.5406,450.273 1145.3813,450.0293 Q1145.3062,449.9168 1145.3062,449.5137 L1144.4156,449.5137 Z " fill="#000000"/><text fill="#000000" font-family="sans-serif" font-size="7.2" font-style="italic" lengthAdjust="spacing" textLength="25.8" x="1163.7" y="441.6422">&#171;entity&#187;</text><text fill="#000000" font-family="sans-serif" font-size="7.2" font-style="italic" lengthAdjust="spacing" textLength="21" x="1166.1" y="451.2187">&#171;root&#187;</text><text fill="#000000" font-family="sans-serif" font-size="8.4" lengthAdjust="spacing" textLength="46.2" x="1153.5" y="462.0902">JobInterview</text><line style="stroke:#000000;stroke-width:0.3;" x1="1136.7" x2="1200.9" y1="467.1984" y2="467.1984"/></g><!--entity InterviewResults--><g id="elem_InterviewResults"><rect fill="#F0FFDD" height="25.9453" rx="1.5" ry="1.5" style="stroke:#000000;stroke-width:0.3;" width="73.2" x="1320.9" y="504.0727"/><text fill="#000000" font-family="sans-serif" font-size="8.4" font-style="italic" lengthAdjust="spacing" textLength="58.2" x="1328.4" y="514.9371">&#171;Value Object&#187;</text><text fill="#000000" font-family="sans-serif" font-size="8.4" lengthAdjust="spacing" textLength="61.2" x="1326.9" y="526.1098">InterviewResults</text></g><!--entity Score--><g id="elem_Score"><rect fill="#F0FFDD" height="25.9453" rx="1.5" ry="1.5" style="stroke:#000000;stroke-width:0.3;" width="70.2" x="1322.4" y="457.2727"/><text fill="#000000" font-family="sans-serif" font-size="8.4" font-style="italic" lengthAdjust="spacing" textLength="58.2" x="1328.4" y="468.1371">&#171;Value Object&#187;</text><text fill="#000000" font-family="sans-serif" font-size="8.4" lengthAdjust="spacing" textLength="22.2" x="1346.4" y="479.3098">Score</text></g><!--entity InterviewTime--><g id="elem_InterviewTime"><rect fill="#F0FFDD" height="25.9453" rx="1.5" ry="1.5" style="stroke:#000000;stroke-width:0.3;" width="70.2" x="1322.4" y="410.4727"/><text fill="#000000" font-family="sans-serif" font-size="8.4" font-style="italic" lengthAdjust="spacing" textLength="58.2" x="1328.4" y="421.3371">&#171;Value Object&#187;</text><text fill="#000000" font-family="sans-serif" font-size="8.4" lengthAdjust="spacing" textLength="51.6" x="1331.7" y="432.5098">InterviewTime</text></g><!--entity InterviewDate--><g id="elem_InterviewDate"><rect fill="#F0FFDD" height="25.9453" rx="1.5" ry="1.5" style="stroke:#000000;stroke-width:0.3;" width="70.2" x="1322.4" y="363.6727"/><text fill="#000000" font-family="sans-serif" font-size="8.4" font-style="italic" lengthAdjust="spacing" textLength="58.2" x="1328.4" y="374.5371">&#171;Value Object&#187;</text><text fill="#000000" font-family="sans-serif" font-size="8.4" lengthAdjust="spacing" textLength="51" x="1332" y="385.7098">InterviewDate</text></g><!--class Process--><g id="elem_Process"><rect codeLine="136" fill="#F0FFFF" height="41.1258" id="Process" rx="1.5" ry="1.5" style="stroke:#000000;stroke-width:0.3;" width="49.8" x="765.3" y="195.0727"/><ellipse cx="774.3" cy="213.2355" fill="#ADD1B2" rx="6.6" ry="6.6" style="stroke:#181818;stroke-width:0.6;"/><path d="M773.6156,213.7137 L773.6156,215.2137 L776.2125,215.2137 L776.2125,214.6605 Q776.2125,214.2949 776.3531,214.1355 Q776.5031,213.9762 776.7281,213.9762 Q776.9531,213.9762 777.0938,214.1355 Q777.2344,214.2949 777.2344,214.6605 L777.2344,216.2355 L772.4344,216.2355 Q772.0594,216.2355 771.9,216.0949 Q771.75,215.9543 771.75,215.7199 Q771.75,215.4949 771.9094,215.3543 Q772.0688,215.2137 772.4344,215.2137 L772.5938,215.2137 L772.5938,211.2199 L772.4344,211.2199 Q772.0594,211.2199 771.9,211.0793 Q771.75,210.9387 771.75,210.7043 Q771.75,210.4793 771.9,210.3387 Q772.0594,210.198 772.4344,210.198 L777.0094,210.198 L777.0094,211.7543 Q777.0094,212.1199 776.8688,212.2793 Q776.7375,212.4293 776.5031,212.4293 Q776.2781,212.4293 776.1375,212.2793 Q775.9969,212.1199 775.9969,211.7543 L775.9969,211.2199 L773.6156,211.2199 L773.6156,212.6918 L774.5063,212.6918 Q774.5063,212.298 774.5813,212.1855 Q774.7406,211.9418 775.0219,211.9418 Q775.2469,211.9418 775.3875,212.1012 Q775.5281,212.2512 775.5281,212.6168 L775.5281,213.798 Q775.5281,214.1262 775.4531,214.2387 Q775.2937,214.473 775.0219,214.473 Q774.7406,214.473 774.5813,214.2293 Q774.5063,214.1168 774.5063,213.7137 L773.6156,213.7137 Z " fill="#000000"/><text fill="#000000" font-family="sans-serif" font-size="7.2" font-style="italic" lengthAdjust="spacing" textLength="25.8" x="785.1" y="205.8422">&#171;entity&#187;</text><text fill="#000000" font-family="sans-serif" font-size="7.2" font-style="italic" lengthAdjust="spacing" textLength="21" x="787.5" y="215.4187">&#171;root&#187;</text><text fill="#000000" font-family="sans-serif" font-size="8.4" lengthAdjust="spacing" textLength="30.6" x="782.7" y="226.2902">Process</text><line style="stroke:#000000;stroke-width:0.3;" x1="765.9" x2="814.5" y1="231.3984" y2="231.3984"/></g><g id="elem_GMN64"><path d="M1114.8,50.4727 L1114.8,109.8787 L956.148,132.7207 L1114.8,114.6787 L1114.8,160.2188 A0,0 0 0 0 1114.8,160.2188 L1222.8,160.2188 A0,0 0 0 0 1222.8,160.2188 L1222.8,56.4727 L1216.8,50.4727 L1114.8,50.4727 A0,0 0 0 0 1114.8,50.4727 " fill="#FEFFDD" style="stroke:#181818;stroke-width:0.3;"/><path d="M1216.8,50.4727 L1216.8,56.4727 L1222.8,56.4727 L1216.8,50.4727 " fill="#FEFFDD" style="stroke:#181818;stroke-width:0.3;"/><text fill="#000000" font-family="sans-serif" font-size="7.8" lengthAdjust="spacing" textLength="95.4" x="1118.4" y="61.8896">Can be one of the following:</text><text fill="#000000" font-family="sans-serif" font-size="7.8" lengthAdjust="spacing" textLength="75" x="1118.4" y="72.2643">- applicationStartDate</text><text fill="#000000" font-family="sans-serif" font-size="7.8" lengthAdjust="spacing" textLength="72" x="1118.4" y="82.6389">- applicationEndDate</text><text fill="#000000" font-family="sans-serif" font-size="7.8" lengthAdjust="spacing" textLength="72.6" x="1118.4" y="93.0135">- ScreeningStartDate</text><text fill="#000000" font-family="sans-serif" font-size="7.8" lengthAdjust="spacing" textLength="69.6" x="1118.4" y="103.3881">- ScreeningEndDate</text><text fill="#000000" font-family="sans-serif" font-size="7.8" lengthAdjust="spacing" textLength="71.4" x="1118.4" y="113.7627">- InterviewsStartDate</text><text fill="#000000" font-family="sans-serif" font-size="7.8" lengthAdjust="spacing" textLength="68.4" x="1118.4" y="124.1373">- InterviewsEndDate</text><text fill="#000000" font-family="sans-serif" font-size="7.8" lengthAdjust="spacing" textLength="67.8" x="1118.4" y="134.5119">- AnalysisStartDate</text><text fill="#000000" font-family="sans-serif" font-size="7.8" lengthAdjust="spacing" textLength="64.8" x="1118.4" y="144.8865">- AnalysisEndDate</text><text fill="#000000" font-family="sans-serif" font-size="7.8" lengthAdjust="spacing" textLength="43.2" x="1118.4" y="155.2611">- ResultDate</text></g><g id="elem_GMN67"><path d="M1114.8,181.5727 L1114.8,213.3727 L956.148,215.7727 L1114.8,218.1727 L1114.8,249.8203 A0,0 0 0 0 1114.8,249.8203 L1222.8,249.8203 A0,0 0 0 0 1222.8,249.8203 L1222.8,187.5727 L1216.8,181.5727 L1114.8,181.5727 A0,0 0 0 0 1114.8,181.5727 " fill="#FEFFDD" style="stroke:#181818;stroke-width:0.3;"/><path d="M1216.8,181.5727 L1216.8,187.5727 L1222.8,187.5727 L1216.8,181.5727 " fill="#FEFFDD" style="stroke:#181818;stroke-width:0.3;"/><text fill="#000000" font-family="sans-serif" font-size="7.8" lengthAdjust="spacing" textLength="95.4" x="1118.4" y="192.9896">Can be one of the following:</text><text fill="#000000" font-family="sans-serif" font-size="7.8" lengthAdjust="spacing" textLength="43.2" x="1118.4" y="203.3643">- Application</text><text fill="#000000" font-family="sans-serif" font-size="7.8" lengthAdjust="spacing" textLength="39.6" x="1118.4" y="213.7389">- Screening</text><text fill="#000000" font-family="sans-serif" font-size="7.8" lengthAdjust="spacing" textLength="38.4" x="1118.4" y="224.1135">- Interviews</text><text fill="#000000" font-family="sans-serif" font-size="7.8" lengthAdjust="spacing" textLength="34.8" x="1118.4" y="234.4881">- Analysis</text><text fill="#000000" font-family="sans-serif" font-size="7.8" lengthAdjust="spacing" textLength="27" x="1118.4" y="244.8627">- Result</text></g><!--entity ProcessState--><g id="elem_ProcessState"><rect fill="#F0FFDD" height="25.9453" rx="1.5" ry="1.5" style="stroke:#000000;stroke-width:0.3;" width="70.2" x="885.9" y="202.8727"/><text fill="#000000" font-family="sans-serif" font-size="8.4" font-style="italic" lengthAdjust="spacing" textLength="58.2" x="891.9" y="213.7371">&#171;Value Object&#187;</text><text fill="#000000" font-family="sans-serif" font-size="8.4" lengthAdjust="spacing" textLength="50.4" x="895.8" y="224.9098">ProcessState</text></g><!--entity ProcessDate--><g id="elem_ProcessDate"><rect fill="#F0FFDD" height="25.9453" rx="1.5" ry="1.5" style="stroke:#000000;stroke-width:0.3;" width="70.2" x="885.9" y="124.2727"/><text fill="#000000" font-family="sans-serif" font-size="8.4" font-style="italic" lengthAdjust="spacing" textLength="58.2" x="891.9" y="135.1371">&#171;Value Object&#187;</text><text fill="#000000" font-family="sans-serif" font-size="8.4" lengthAdjust="spacing" textLength="48.6" x="896.7" y="146.3098">ProcessDate</text></g><!--class Application--><g id="elem_Application"><rect codeLine="171" fill="#F0FFFF" height="41.1258" id="Application" rx="1.5" ry="1.5" style="stroke:#000000;stroke-width:0.3;" width="60.6" x="759.9" y="1042.8727"/><ellipse cx="768.9" cy="1061.0355" fill="#ADD1B2" rx="6.6" ry="6.6" style="stroke:#181818;stroke-width:0.6;"/><path d="M768.2156,1061.5137 L768.2156,1063.0137 L770.8125,1063.0137 L770.8125,1062.4605 Q770.8125,1062.0949 770.9531,1061.9355 Q771.1031,1061.7762 771.3281,1061.7762 Q771.5531,1061.7762 771.6938,1061.9355 Q771.8344,1062.0949 771.8344,1062.4605 L771.8344,1064.0355 L767.0344,1064.0355 Q766.6594,1064.0355 766.5,1063.8949 Q766.35,1063.7543 766.35,1063.5199 Q766.35,1063.2949 766.5094,1063.1543 Q766.6687,1063.0137 767.0344,1063.0137 L767.1938,1063.0137 L767.1938,1059.0199 L767.0344,1059.0199 Q766.6594,1059.0199 766.5,1058.8793 Q766.35,1058.7387 766.35,1058.5043 Q766.35,1058.2793 766.5,1058.1387 Q766.6594,1057.998 767.0344,1057.998 L771.6094,1057.998 L771.6094,1059.5543 Q771.6094,1059.9199 771.4688,1060.0793 Q771.3375,1060.2293 771.1031,1060.2293 Q770.8781,1060.2293 770.7375,1060.0793 Q770.5969,1059.9199 770.5969,1059.5543 L770.5969,1059.0199 L768.2156,1059.0199 L768.2156,1060.4918 L769.1062,1060.4918 Q769.1062,1060.098 769.1813,1059.9855 Q769.3406,1059.7418 769.6219,1059.7418 Q769.8469,1059.7418 769.9875,1059.9012 Q770.1281,1060.0512 770.1281,1060.4168 L770.1281,1061.598 Q770.1281,1061.9262 770.0531,1062.0387 Q769.8938,1062.273 769.6219,1062.273 Q769.3406,1062.273 769.1813,1062.0293 Q769.1062,1061.9168 769.1062,1061.5137 L768.2156,1061.5137 Z " fill="#000000"/><text fill="#000000" font-family="sans-serif" font-size="7.2" font-style="italic" lengthAdjust="spacing" textLength="25.8" x="785.1" y="1053.6422">&#171;entity&#187;</text><text fill="#000000" font-family="sans-serif" font-size="7.2" font-style="italic" lengthAdjust="spacing" textLength="21" x="787.5" y="1063.2188">&#171;root&#187;</text><text fill="#000000" font-family="sans-serif" font-size="8.4" lengthAdjust="spacing" textLength="41.4" x="777.3" y="1074.0902">Application</text><line style="stroke:#000000;stroke-width:0.3;" x1="760.5" x2="819.9" y1="1079.1984" y2="1079.1984"/></g><g id="elem_GMN80"><path d="M1114.8,1055.7727 L1114.8,1092.4687 L956.148,1125.3307 L1114.8,1097.2687 L1114.8,1113.6457 A0,0 0 0 0 1114.8,1113.6457 L1222.8,1113.6457 A0,0 0 0 0 1222.8,1113.6457 L1222.8,1061.7727 L1216.8,1055.7727 L1114.8,1055.7727 A0,0 0 0 0 1114.8,1055.7727 " fill="#FEFFDD" style="stroke:#181818;stroke-width:0.3;"/><path d="M1216.8,1055.7727 L1216.8,1061.7727 L1222.8,1061.7727 L1216.8,1055.7727 " fill="#FEFFDD" style="stroke:#181818;stroke-width:0.3;"/><text fill="#000000" font-family="sans-serif" font-size="7.8" lengthAdjust="spacing" textLength="95.4" x="1118.4" y="1067.1896">Can be one of the following:</text><text fill="#000000" font-family="sans-serif" font-size="7.8" lengthAdjust="spacing" textLength="39" x="1118.4" y="1077.5643">- submitted</text><text fill="#000000" font-family="sans-serif" font-size="7.8" lengthAdjust="spacing" textLength="31.8" x="1118.4" y="1087.9389">- pending</text><text fill="#000000" font-family="sans-serif" font-size="7.8" lengthAdjust="spacing" textLength="36.6" x="1118.4" y="1098.3135">- accepted</text><text fill="#000000" font-family="sans-serif" font-size="7.8" lengthAdjust="spacing" textLength="33.6" x="1118.4" y="1108.6881">- declined</text></g><g id="elem_GMN83"><path d="M1059,1134.3727 L1059,1167.6847 L956.934,1176.5407 L1059,1172.4847 L1059,1192.2457 A0,0 0 0 0 1059,1192.2457 L1278.6,1192.2457 A0,0 0 0 0 1278.6,1192.2457 L1278.6,1140.3727 L1272.6,1134.3727 L1059,1134.3727 A0,0 0 0 0 1059,1134.3727 " fill="#FEFFDD" style="stroke:#181818;stroke-width:0.3;"/><path d="M1272.6,1134.3727 L1272.6,1140.3727 L1278.6,1140.3727 L1272.6,1134.3727 " fill="#FEFFDD" style="stroke:#181818;stroke-width:0.3;"/><text fill="#000000" font-family="sans-serif" font-size="7.8" lengthAdjust="spacing" textLength="95.4" x="1062.6" y="1145.7896">Can be one of the following:</text><text fill="#000000" font-family="sans-serif" font-size="7.8" lengthAdjust="spacing" textLength="134.4" x="1062.6" y="1156.1643">- text file with the contents of the email</text><text fill="#000000" font-family="sans-serif" font-size="7.8" lengthAdjust="spacing" textLength="132" x="1062.6" y="1166.5389">- file for each file attached to the email</text><text fill="#000000" font-family="sans-serif" font-size="7.8" lengthAdjust="spacing" textLength="207" x="1062.6" y="1176.9135">- text file with the contents of each file attached to the email</text><text fill="#000000" font-family="sans-serif" font-size="7.8" lengthAdjust="spacing" textLength="189" x="1062.6" y="1187.2881">- text file with the data of the application and candidate</text></g><!--entity ApplicationFiles--><g id="elem_ApplicationFiles"><rect fill="#F0FFDD" height="25.9453" rx="1.5" ry="1.5" style="stroke:#000000;stroke-width:0.3;" width="71.4" x="885.3" y="1165.8727"/><text fill="#000000" font-family="sans-serif" font-size="8.4" font-style="italic" lengthAdjust="spacing" textLength="58.2" x="891.9" y="1176.7371">&#171;Value Object&#187;</text><text fill="#000000" font-family="sans-serif" font-size="8.4" lengthAdjust="spacing" textLength="59.4" x="891.3" y="1187.9098">ApplicationFiles</text></g><!--entity Status--><g id="elem_Status"><rect fill="#F0FFDD" height="25.9453" rx="1.5" ry="1.5" style="stroke:#000000;stroke-width:0.3;" width="70.2" x="885.9" y="1119.0727"/><text fill="#000000" font-family="sans-serif" font-size="8.4" font-style="italic" lengthAdjust="spacing" textLength="58.2" x="891.9" y="1129.9371">&#171;Value Object&#187;</text><text fill="#000000" font-family="sans-serif" font-size="8.4" lengthAdjust="spacing" textLength="24" x="909" y="1141.1098">Status</text></g><!--entity SubmissionDate--><g id="elem_SubmissionDate"><rect fill="#F0FFDD" height="25.9453" rx="1.5" ry="1.5" style="stroke:#000000;stroke-width:0.3;" width="73.2" x="884.4" y="1072.2727"/><text fill="#000000" font-family="sans-serif" font-size="8.4" font-style="italic" lengthAdjust="spacing" textLength="58.2" x="891.9" y="1083.1371">&#171;Value Object&#187;</text><text fill="#000000" font-family="sans-serif" font-size="8.4" lengthAdjust="spacing" textLength="61.2" x="890.4" y="1094.3098">SubmissionDate</text></g><!--entity Rank--><g id="elem_Rank"><rect fill="#F0FFDD" height="25.9453" rx="1.5" ry="1.5" style="stroke:#000000;stroke-width:0.3;" width="70.2" x="885.9" y="1025.4727"/><text fill="#000000" font-family="sans-serif" font-size="8.4" font-style="italic" lengthAdjust="spacing" textLength="58.2" x="891.9" y="1036.3371">&#171;Value Object&#187;</text><text fill="#000000" font-family="sans-serif" font-size="8.4" lengthAdjust="spacing" textLength="19.8" x="911.1" y="1047.5098">Rank</text></g><!--class InterviewModel--><g id="elem_InterviewModel"><rect codeLine="206" fill="#F0FFFF" height="41.1258" id="InterviewModel" rx="1.5" ry="1.5" style="stroke:#000000;stroke-width:0.3;" width="75" x="516" y="687.0727"/><ellipse cx="525" cy="705.2355" fill="#ADD1B2" rx="6.6" ry="6.6" style="stroke:#181818;stroke-width:0.6;"/><path d="M524.3156,705.7137 L524.3156,707.2137 L526.9125,707.2137 L526.9125,706.6605 Q526.9125,706.2949 527.0531,706.1355 Q527.2031,705.9762 527.4281,705.9762 Q527.6531,705.9762 527.7937,706.1355 Q527.9344,706.2949 527.9344,706.6605 L527.9344,708.2355 L523.1344,708.2355 Q522.7594,708.2355 522.6,708.0949 Q522.45,707.9543 522.45,707.7199 Q522.45,707.4949 522.6094,707.3543 Q522.7688,707.2137 523.1344,707.2137 L523.2937,707.2137 L523.2937,703.2199 L523.1344,703.2199 Q522.7594,703.2199 522.6,703.0793 Q522.45,702.9387 522.45,702.7043 Q522.45,702.4793 522.6,702.3387 Q522.7594,702.198 523.1344,702.198 L527.7094,702.198 L527.7094,703.7543 Q527.7094,704.1199 527.5688,704.2793 Q527.4375,704.4293 527.2031,704.4293 Q526.9781,704.4293 526.8375,704.2793 Q526.6969,704.1199 526.6969,703.7543 L526.6969,703.2199 L524.3156,703.2199 L524.3156,704.6918 L525.2063,704.6918 Q525.2063,704.298 525.2813,704.1855 Q525.4406,703.9418 525.7219,703.9418 Q525.9469,703.9418 526.0875,704.1012 Q526.2281,704.2512 526.2281,704.6168 L526.2281,705.798 Q526.2281,706.1262 526.1531,706.2387 Q525.9938,706.473 525.7219,706.473 Q525.4406,706.473 525.2813,706.2293 Q525.2063,706.1168 525.2063,705.7137 L524.3156,705.7137 Z " fill="#000000"/><text fill="#000000" font-family="sans-serif" font-size="7.2" font-style="italic" lengthAdjust="spacing" textLength="25.8" x="548.4" y="697.8422">&#171;entity&#187;</text><text fill="#000000" font-family="sans-serif" font-size="7.2" font-style="italic" lengthAdjust="spacing" textLength="21" x="550.8" y="707.4187">&#171;root&#187;</text><text fill="#000000" font-family="sans-serif" font-size="8.4" lengthAdjust="spacing" textLength="55.8" x="533.4" y="718.2902">InterviewModel</text><line style="stroke:#000000;stroke-width:0.3;" x1="516.6" x2="590.4" y1="723.3984" y2="723.3984"/></g><!--entity Plugin--><g id="elem_Plugin"><rect fill="#F0FFDD" height="25.9453" rx="1.5" ry="1.5" style="stroke:#000000;stroke-width:0.3;" width="70.2" x="628.8" y="694.8727"/><text fill="#000000" font-family="sans-serif" font-size="8.4" font-style="italic" lengthAdjust="spacing" textLength="58.2" x="634.8" y="705.7371">&#171;Value Object&#187;</text><text fill="#000000" font-family="sans-serif" font-size="8.4" lengthAdjust="spacing" textLength="23.4" x="652.2" y="716.9098">Plugin</text></g><!--class LanguageEngineer--><g id="elem_LanguageEngineer"><rect codeLine="216" fill="#F0FFFF" height="41.1258" id="LanguageEngineer" rx="1.5" ry="1.5" style="stroke:#000000;stroke-width:0.3;" width="91.8" x="27" y="687.0727"/><ellipse cx="36" cy="705.2355" fill="#ADD1B2" rx="6.6" ry="6.6" style="stroke:#181818;stroke-width:0.6;"/><path d="M35.3156,705.7137 L35.3156,707.2137 L37.9125,707.2137 L37.9125,706.6605 Q37.9125,706.2949 38.0531,706.1355 Q38.2031,705.9762 38.4281,705.9762 Q38.6531,705.9762 38.7937,706.1355 Q38.9344,706.2949 38.9344,706.6605 L38.9344,708.2355 L34.1344,708.2355 Q33.7594,708.2355 33.6,708.0949 Q33.45,707.9543 33.45,707.7199 Q33.45,707.4949 33.6094,707.3543 Q33.7688,707.2137 34.1344,707.2137 L34.2937,707.2137 L34.2937,703.2199 L34.1344,703.2199 Q33.7594,703.2199 33.6,703.0793 Q33.45,702.9387 33.45,702.7043 Q33.45,702.4793 33.6,702.3387 Q33.7594,702.198 34.1344,702.198 L38.7094,702.198 L38.7094,703.7543 Q38.7094,704.1199 38.5688,704.2793 Q38.4375,704.4293 38.2031,704.4293 Q37.9781,704.4293 37.8375,704.2793 Q37.6969,704.1199 37.6969,703.7543 L37.6969,703.2199 L35.3156,703.2199 L35.3156,704.6918 L36.2063,704.6918 Q36.2063,704.298 36.2813,704.1855 Q36.4406,703.9418 36.7219,703.9418 Q36.9469,703.9418 37.0875,704.1012 Q37.2281,704.2512 37.2281,704.6168 L37.2281,705.798 Q37.2281,706.1262 37.1531,706.2387 Q36.9938,706.473 36.7219,706.473 Q36.4406,706.473 36.2813,706.2293 Q36.2063,706.1168 36.2063,705.7137 L35.3156,705.7137 Z " fill="#000000"/><text fill="#000000" font-family="sans-serif" font-size="7.2" font-style="italic" lengthAdjust="spacing" textLength="25.8" x="67.8" y="697.8422">&#171;entity&#187;</text><text fill="#000000" font-family="sans-serif" font-size="7.2" font-style="italic" lengthAdjust="spacing" textLength="21" x="70.2" y="707.4187">&#171;root&#187;</text><text fill="#000000" font-family="sans-serif" font-size="8.4" lengthAdjust="spacing" textLength="72.6" x="44.4" y="718.2902">LanguageEngineer</text><line style="stroke:#000000;stroke-width:0.3;" x1="27.6" x2="118.2" y1="723.3984" y2="723.3984"/></g><!--class Admin--><g id="elem_Admin"><rect codeLine="221" fill="#F0FFFF" height="41.1258" id="Admin" rx="1.5" ry="1.5" style="stroke:#000000;stroke-width:0.3;" width="42.6" x="51.6" y="855.0727"/><ellipse cx="60.6" cy="873.2355" fill="#ADD1B2" rx="6.6" ry="6.6" style="stroke:#181818;stroke-width:0.6;"/><path d="M59.9156,873.7137 L59.9156,875.2137 L62.5125,875.2137 L62.5125,874.6605 Q62.5125,874.2949 62.6531,874.1355 Q62.8031,873.9762 63.0281,873.9762 Q63.2531,873.9762 63.3938,874.1355 Q63.5344,874.2949 63.5344,874.6605 L63.5344,876.2355 L58.7344,876.2355 Q58.3594,876.2355 58.2,876.0949 Q58.05,875.9543 58.05,875.7199 Q58.05,875.4949 58.2094,875.3543 Q58.3688,875.2137 58.7344,875.2137 L58.8938,875.2137 L58.8938,871.2199 L58.7344,871.2199 Q58.3594,871.2199 58.2,871.0793 Q58.05,870.9387 58.05,870.7043 Q58.05,870.4793 58.2,870.3387 Q58.3594,870.198 58.7344,870.198 L63.3094,870.198 L63.3094,871.7543 Q63.3094,872.1199 63.1687,872.2793 Q63.0375,872.4293 62.8031,872.4293 Q62.5781,872.4293 62.4375,872.2793 Q62.2969,872.1199 62.2969,871.7543 L62.2969,871.2199 L59.9156,871.2199 L59.9156,872.6918 L60.8063,872.6918 Q60.8063,872.298 60.8812,872.1855 Q61.0406,871.9418 61.3219,871.9418 Q61.5469,871.9418 61.6875,872.1012 Q61.8281,872.2512 61.8281,872.6168 L61.8281,873.798 Q61.8281,874.1262 61.7531,874.2387 Q61.5938,874.473 61.3219,874.473 Q61.0406,874.473 60.8812,874.2293 Q60.8063,874.1168 60.8063,873.7137 L59.9156,873.7137 Z " fill="#000000"/><text fill="#000000" font-family="sans-serif" font-size="7.2" font-style="italic" lengthAdjust="spacing" textLength="25.8" x="67.8" y="865.8422">&#171;entity&#187;</text><text fill="#000000" font-family="sans-serif" font-size="7.2" font-style="italic" lengthAdjust="spacing" textLength="21" x="70.2" y="875.4187">&#171;root&#187;</text><text fill="#000000" font-family="sans-serif" font-size="8.4" lengthAdjust="spacing" textLength="23.4" x="69" y="886.2902">Admin</text><line style="stroke:#000000;stroke-width:0.3;" x1="52.2" x2="93.6" y1="891.3984" y2="891.3984"/></g><!--class CustomerManager--><g id="elem_CustomerManager"><rect codeLine="226" fill="#F0FFFF" height="41.1258" id="CustomerManager" rx="1.5" ry="1.5" style="stroke:#000000;stroke-width:0.3;" width="89.4" x="361.5" y="855.0727"/><ellipse cx="370.5" cy="873.2355" fill="#ADD1B2" rx="6.6" ry="6.6" style="stroke:#181818;stroke-width:0.6;"/><path d="M369.8156,873.7137 L369.8156,875.2137 L372.4125,875.2137 L372.4125,874.6605 Q372.4125,874.2949 372.5531,874.1355 Q372.7031,873.9762 372.9281,873.9762 Q373.1531,873.9762 373.2938,874.1355 Q373.4344,874.2949 373.4344,874.6605 L373.4344,876.2355 L368.6344,876.2355 Q368.2594,876.2355 368.1,876.0949 Q367.95,875.9543 367.95,875.7199 Q367.95,875.4949 368.1094,875.3543 Q368.2688,875.2137 368.6344,875.2137 L368.7938,875.2137 L368.7938,871.2199 L368.6344,871.2199 Q368.2594,871.2199 368.1,871.0793 Q367.95,870.9387 367.95,870.7043 Q367.95,870.4793 368.1,870.3387 Q368.2594,870.198 368.6344,870.198 L373.2094,870.198 L373.2094,871.7543 Q373.2094,872.1199 373.0687,872.2793 Q372.9375,872.4293 372.7031,872.4293 Q372.4781,872.4293 372.3375,872.2793 Q372.1969,872.1199 372.1969,871.7543 L372.1969,871.2199 L369.8156,871.2199 L369.8156,872.6918 L370.7063,872.6918 Q370.7063,872.298 370.7813,872.1855 Q370.9406,871.9418 371.2219,871.9418 Q371.4469,871.9418 371.5875,872.1012 Q371.7281,872.2512 371.7281,872.6168 L371.7281,873.798 Q371.7281,874.1262 371.6531,874.2387 Q371.4938,874.473 371.2219,874.473 Q370.9406,874.473 370.7813,874.2293 Q370.7063,874.1168 370.7063,873.7137 L369.8156,873.7137 Z " fill="#000000"/><text fill="#000000" font-family="sans-serif" font-size="7.2" font-style="italic" lengthAdjust="spacing" textLength="25.8" x="401.1" y="865.8422">&#171;entity&#187;</text><text fill="#000000" font-family="sans-serif" font-size="7.2" font-style="italic" lengthAdjust="spacing" textLength="21" x="403.5" y="875.4187">&#171;root&#187;</text><text fill="#000000" font-family="sans-serif" font-size="8.4" lengthAdjust="spacing" textLength="70.2" x="378.9" y="886.2902">CustomerManager</text><line style="stroke:#000000;stroke-width:0.3;" x1="362.1" x2="450.3" y1="891.3984" y2="891.3984"/></g><!--class Operator--><g id="elem_Operator"><rect codeLine="231" fill="#F0FFFF" height="41.1258" id="Operator" rx="1.5" ry="1.5" style="stroke:#000000;stroke-width:0.3;" width="53.4" x="526.8" y="1140.6727"/><ellipse cx="535.8" cy="1158.8355" fill="#ADD1B2" rx="6.6" ry="6.6" style="stroke:#181818;stroke-width:0.6;"/><path d="M535.1156,1159.3137 L535.1156,1160.8137 L537.7125,1160.8137 L537.7125,1160.2605 Q537.7125,1159.8949 537.8531,1159.7355 Q538.0031,1159.5762 538.2281,1159.5762 Q538.4531,1159.5762 538.5938,1159.7355 Q538.7344,1159.8949 538.7344,1160.2605 L538.7344,1161.8355 L533.9344,1161.8355 Q533.5594,1161.8355 533.4,1161.6949 Q533.25,1161.5543 533.25,1161.3199 Q533.25,1161.0949 533.4094,1160.9543 Q533.5688,1160.8137 533.9344,1160.8137 L534.0938,1160.8137 L534.0938,1156.8199 L533.9344,1156.8199 Q533.5594,1156.8199 533.4,1156.6793 Q533.25,1156.5387 533.25,1156.3043 Q533.25,1156.0793 533.4,1155.9387 Q533.5594,1155.798 533.9344,1155.798 L538.5094,1155.798 L538.5094,1157.3543 Q538.5094,1157.7199 538.3688,1157.8793 Q538.2375,1158.0293 538.0031,1158.0293 Q537.7781,1158.0293 537.6375,1157.8793 Q537.4969,1157.7199 537.4969,1157.3543 L537.4969,1156.8199 L535.1156,1156.8199 L535.1156,1158.2918 L536.0063,1158.2918 Q536.0063,1157.898 536.0813,1157.7855 Q536.2406,1157.5418 536.5219,1157.5418 Q536.7469,1157.5418 536.8875,1157.7012 Q537.0281,1157.8512 537.0281,1158.2168 L537.0281,1159.398 Q537.0281,1159.7262 536.9531,1159.8387 Q536.7937,1160.073 536.5219,1160.073 Q536.2406,1160.073 536.0813,1159.8293 Q536.0063,1159.7168 536.0063,1159.3137 L535.1156,1159.3137 Z " fill="#000000"/><text fill="#000000" font-family="sans-serif" font-size="7.2" font-style="italic" lengthAdjust="spacing" textLength="25.8" x="548.4" y="1151.4422">&#171;entity&#187;</text><text fill="#000000" font-family="sans-serif" font-size="7.2" font-style="italic" lengthAdjust="spacing" textLength="21" x="550.8" y="1161.0188">&#171;root&#187;</text><text fill="#000000" font-family="sans-serif" font-size="8.4" lengthAdjust="spacing" textLength="34.2" x="544.2" y="1171.8902">Operator</text><line style="stroke:#000000;stroke-width:0.3;" x1="527.4" x2="579.6" y1="1176.9984" y2="1176.9984"/></g><!--class ANTLR--><g id="elem_ANTLR"><rect codeLine="236" fill="#F0FFFF" height="41.1258" id="ANTLR" rx="1.5" ry="1.5" style="stroke:#000000;stroke-width:0.3;" width="46.2" x="197.4" y="588.6727"/><ellipse cx="206.4" cy="606.8355" fill="#ADD1B2" rx="6.6" ry="6.6" style="stroke:#181818;stroke-width:0.6;"/><path d="M205.7156,607.3137 L205.7156,608.8137 L208.3125,608.8137 L208.3125,608.2605 Q208.3125,607.8949 208.4531,607.7355 Q208.6031,607.5762 208.8281,607.5762 Q209.0531,607.5762 209.1938,607.7355 Q209.3344,607.8949 209.3344,608.2605 L209.3344,609.8355 L204.5344,609.8355 Q204.1594,609.8355 204,609.6949 Q203.85,609.5543 203.85,609.3199 Q203.85,609.0949 204.0094,608.9543 Q204.1688,608.8137 204.5344,608.8137 L204.6938,608.8137 L204.6938,604.8199 L204.5344,604.8199 Q204.1594,604.8199 204,604.6793 Q203.85,604.5387 203.85,604.3043 Q203.85,604.0793 204,603.9387 Q204.1594,603.798 204.5344,603.798 L209.1094,603.798 L209.1094,605.3543 Q209.1094,605.7199 208.9688,605.8793 Q208.8375,606.0293 208.6031,606.0293 Q208.3781,606.0293 208.2375,605.8793 Q208.0969,605.7199 208.0969,605.3543 L208.0969,604.8199 L205.7156,604.8199 L205.7156,606.2918 L206.6063,606.2918 Q206.6063,605.898 206.6813,605.7855 Q206.8406,605.5418 207.1219,605.5418 Q207.3469,605.5418 207.4875,605.7012 Q207.6281,605.8512 207.6281,606.2168 L207.6281,607.398 Q207.6281,607.7262 207.5531,607.8387 Q207.3937,608.073 207.1219,608.073 Q206.8406,608.073 206.6813,607.8293 Q206.6063,607.7168 206.6063,607.3137 L205.7156,607.3137 Z " fill="#000000"/><text fill="#000000" font-family="sans-serif" font-size="7.2" font-style="italic" lengthAdjust="spacing" textLength="25.8" x="215.4" y="599.4422">&#171;entity&#187;</text><text fill="#000000" font-family="sans-serif" font-size="7.2" font-style="italic" lengthAdjust="spacing" textLength="21" x="217.8" y="609.0187">&#171;root&#187;</text><text fill="#000000" font-family="sans-serif" font-size="8.4" lengthAdjust="spacing" textLength="27" x="214.8" y="619.8902">ANTLR</text><line style="stroke:#000000;stroke-width:0.3;" x1="198" x2="243" y1="624.9984" y2="624.9984"/></g><!--class Company--><g id="elem_Company"><rect codeLine="241" fill="#F0FFFF" height="41.1258" id="Company" rx="1.5" ry="1.5" style="stroke:#000000;stroke-width:0.3;" width="55.2" x="1141.2" y="675.0727"/><ellipse cx="1150.2" cy="693.2355" fill="#ADD1B2" rx="6.6" ry="6.6" style="stroke:#181818;stroke-width:0.6;"/><path d="M1149.5156,693.7137 L1149.5156,695.2137 L1152.1125,695.2137 L1152.1125,694.6605 Q1152.1125,694.2949 1152.2531,694.1355 Q1152.4031,693.9762 1152.6281,693.9762 Q1152.8531,693.9762 1152.9937,694.1355 Q1153.1344,694.2949 1153.1344,694.6605 L1153.1344,696.2355 L1148.3344,696.2355 Q1147.9594,696.2355 1147.8,696.0949 Q1147.65,695.9543 1147.65,695.7199 Q1147.65,695.4949 1147.8094,695.3543 Q1147.9688,695.2137 1148.3344,695.2137 L1148.4937,695.2137 L1148.4937,691.2199 L1148.3344,691.2199 Q1147.9594,691.2199 1147.8,691.0793 Q1147.65,690.9387 1147.65,690.7043 Q1147.65,690.4793 1147.8,690.3387 Q1147.9594,690.198 1148.3344,690.198 L1152.9094,690.198 L1152.9094,691.7543 Q1152.9094,692.1199 1152.7688,692.2793 Q1152.6375,692.4293 1152.4031,692.4293 Q1152.1781,692.4293 1152.0375,692.2793 Q1151.8969,692.1199 1151.8969,691.7543 L1151.8969,691.2199 L1149.5156,691.2199 L1149.5156,692.6918 L1150.4063,692.6918 Q1150.4063,692.298 1150.4813,692.1855 Q1150.6406,691.9418 1150.9219,691.9418 Q1151.1469,691.9418 1151.2875,692.1012 Q1151.4281,692.2512 1151.4281,692.6168 L1151.4281,693.798 Q1151.4281,694.1262 1151.3531,694.2387 Q1151.1938,694.473 1150.9219,694.473 Q1150.6406,694.473 1150.4813,694.2293 Q1150.4063,694.1168 1150.4063,693.7137 L1149.5156,693.7137 Z " fill="#000000"/><text fill="#000000" font-family="sans-serif" font-size="7.2" font-style="italic" lengthAdjust="spacing" textLength="25.8" x="1163.7" y="685.8422">&#171;entity&#187;</text><text fill="#000000" font-family="sans-serif" font-size="7.2" font-style="italic" lengthAdjust="spacing" textLength="21" x="1166.1" y="695.4187">&#171;root&#187;</text><text fill="#000000" font-family="sans-serif" font-size="8.4" lengthAdjust="spacing" textLength="36" x="1158.6" y="706.2902">Company</text><line style="stroke:#000000;stroke-width:0.3;" x1="1141.8" x2="1195.8" y1="711.3984" y2="711.3984"/></g><!--entity CompanyName--><g id="elem_CompanyName"><rect fill="#F0FFDD" height="25.9453" rx="1.5" ry="1.5" style="stroke:#000000;stroke-width:0.3;" width="70.2" x="1322.4" y="691.2727"/><text fill="#000000" font-family="sans-serif" font-size="8.4" font-style="italic" lengthAdjust="spacing" textLength="58.2" x="1328.4" y="702.1371">&#171;Value Object&#187;</text><text fill="#000000" font-family="sans-serif" font-size="8.4" lengthAdjust="spacing" textLength="57.6" x="1328.7" y="713.3098">CompanyName</text></g><!--entity CompanyNumber--><g id="elem_CompanyNumber"><rect fill="#F0FFDD" height="25.9453" rx="1.5" ry="1.5" style="stroke:#000000;stroke-width:0.3;" width="77.4" x="1318.8" y="644.4727"/><text fill="#000000" font-family="sans-serif" font-size="8.4" font-style="italic" lengthAdjust="spacing" textLength="58.2" x="1328.4" y="655.3371">&#171;Value Object&#187;</text><text fill="#000000" font-family="sans-serif" font-size="8.4" lengthAdjust="spacing" textLength="65.4" x="1324.8" y="666.5098">CompanyNumber</text></g><!--link Customer to EmailAddress--><g id="link_Customer_EmailAddress"><path codeLine="32" d="M948.93,812.1727 C994.08,812.1727 1080.54,812.1727 1130.034,812.1727 " fill="none" id="Customer-to-EmailAddress" style="stroke:#808080;stroke-width:0.6;"/><polygon fill="#808080" points="1133.634,812.1727,1128.234,809.7727,1130.634,812.1727,1128.234,814.5727,1133.634,812.1727" style="stroke:#808080;stroke-width:0.6;"/></g><!--link Candidate to Curriculum--><g id="link_Candidate_Curriculum"><path codeLine="43" d="M1198.08,931.2427 C1231.476,932.9527 1283.0027,935.5885 1318.7327,937.4185 " fill="none" id="Candidate-to-Curriculum" style="stroke:#808080;stroke-width:0.6;"/><polygon fill="#808080" points="1322.328,937.6027,1317.0578,934.9296,1319.3319,937.4492,1316.8123,939.7233,1322.328,937.6027" style="stroke:#808080;stroke-width:0.6;"/></g><!--link Candidate to TelephoneNumber--><g id="link_Candidate_TelephoneNumber"><path codeLine="44" d="M1198.08,924.0847 C1229.628,917.8267 1277.0368,908.4172 1312.6948,901.3432 " fill="none" id="Candidate-to-TelephoneNumber" style="stroke:#808080;stroke-width:0.6;"/><polygon fill="#808080" points="1316.226,900.6427,1310.4622,899.3393,1313.2833,901.2264,1311.3962,904.0476,1316.226,900.6427" style="stroke:#808080;stroke-width:0.6;"/></g><!--link JobRequirementsSpecification to Requirements--><g id="link_JobRequirementsSpecification_Requirements"><path codeLine="52" d="M473.01,535.5727 C488.34,535.5727 500.466,535.5727 513.876,535.5727 " fill="none" id="JobRequirementsSpecification-to-Requirements" style="stroke:#808080;stroke-width:0.6;"/><polygon fill="#808080" points="517.476,535.5727,512.076,533.1727,514.476,535.5727,512.076,537.9727,517.476,535.5727" style="stroke:#808080;stroke-width:0.6;"/></g><!--link JobOpening to JobReference--><g id="link_JobOpening_JobReference"><path codeLine="74" d="M671.766,494.2447 C683.274,463.6567 708.276,406.4287 745.5,369.9727 C749.586,365.9707 751.4027,364.3134 756.4367,361.3314 " fill="none" id="JobOpening-to-JobReference" style="stroke:#808080;stroke-width:0.6;"/><polygon fill="#808080" points="759.534,359.4967,753.6648,360.1839,756.9529,361.0256,756.1112,364.3137,759.534,359.4967" style="stroke:#808080;stroke-width:0.6;"/></g><!--link JobOpening to TitleOrFunction--><g id="link_JobOpening_TitleOrFunction"><path codeLine="75" d="M680.004,535.9207 C695.166,555.2347 719.694,583.9627 745.5,603.9727 C750.432,607.8007 752.9302,609.5758 758.4982,612.6658 " fill="none" id="JobOpening-to-TitleOrFunction" style="stroke:#808080;stroke-width:0.6;"/><polygon fill="#808080" points="761.646,614.4127,758.0889,609.6938,759.0229,612.9569,755.7598,613.8909,761.646,614.4127" style="stroke:#808080;stroke-width:0.6;"/></g><!--link JobOpening to ContractType--><g id="link_JobOpening_ContractType"><path codeLine="76" d="M696.39,531.8467 C717.672,542.9707 742.0577,555.7208 761.6837,565.9808 " fill="none" id="JobOpening-to-ContractType" style="stroke:#808080;stroke-width:0.6;"/><polygon fill="#808080" points="764.874,567.6487,761.2004,563.02,762.2154,566.2588,758.9766,567.2738,764.874,567.6487" style="stroke:#808080;stroke-width:0.6;"/></g><!--link JobOpening to Mode--><g id="link_JobOpening_Mode"><path codeLine="77" d="M696.39,519.9127 C714.27,522.5767 733.0352,525.365 751.3472,528.089 " fill="none" id="JobOpening-to-Mode" style="stroke:#808080;stroke-width:0.6;"/><polygon fill="#808080" points="754.908,528.6187,749.9199,525.4502,751.9407,528.1772,749.2136,530.198,754.908,528.6187" style="stroke:#808080;stroke-width:0.6;"/></g><!--link JobOpening to Address--><g id="link_JobOpening_Address"><path codeLine="78" d="M696.39,507.9847 C714.27,503.9527 733.0841,499.7163 751.3961,495.5883 " fill="none" id="JobOpening-to-Address" style="stroke:#808080;stroke-width:0.6;"/><polygon fill="#808080" points="754.908,494.7967,749.1124,493.6429,751.9814,495.4564,750.168,498.3254,754.908,494.7967" style="stroke:#808080;stroke-width:0.6;"/></g><!--link JobOpening to VacanciesNumber--><g id="link_JobOpening_VacanciesNumber"><path codeLine="79" d="M695.88,494.3647 C710.748,484.7167 728.862,473.2687 745.5,463.5727 C751.566,460.0387 755.03,458.0879 761.276,454.7639 " fill="none" id="JobOpening-to-VacanciesNumber" style="stroke:#808080;stroke-width:0.6;"/><polygon fill="#808080" points="764.454,453.0727,758.5595,453.4909,761.8057,454.482,760.8145,457.7282,764.454,453.0727" style="stroke:#808080;stroke-width:0.6;"/></g><!--link JobOpening to Description--><g id="link_JobOpening_Description"><path codeLine="80" d="M678.012,494.2867 C692.676,472.8307 717.738,439.4527 745.5,416.7727 C750.198,412.9327 752.4846,411.2121 757.8906,408.1701 " fill="none" id="JobOpening-to-Description" style="stroke:#808080;stroke-width:0.6;"/><polygon fill="#808080" points="761.028,406.4047,755.145,406.9612,758.4135,407.8759,757.4989,411.1444,761.028,406.4047" style="stroke:#808080;stroke-width:0.6;"/></g><!--link User to UserEmail--><g id="link_User_UserEmail"><path codeLine="109" d="M1379.052,1182.6067 C1398.102,1192.6387 1423.0388,1205.769 1443.1448,1216.359 " fill="none" id="User-to-UserEmail" style="stroke:#808080;stroke-width:0.6;"/><polygon fill="#808080" points="1446.33,1218.0367,1442.6707,1213.3967,1443.6757,1216.6386,1440.4338,1217.6436,1446.33,1218.0367" style="stroke:#808080;stroke-width:0.6;"/></g><!--link User to UserName--><g id="link_User_UserName"><path codeLine="110" d="M1379.052,1173.9127 C1395.108,1175.7067 1414.0302,1177.8215 1432.7442,1179.9095 " fill="none" id="User-to-UserName" style="stroke:#808080;stroke-width:0.6;"/><polygon fill="#808080" points="1436.322,1180.3087,1431.2214,1177.3247,1433.3405,1179.976,1430.6892,1182.0951,1436.322,1180.3087" style="stroke:#808080;stroke-width:0.6;"/></g><!--link User to Username--><g id="link_User_Username"><path codeLine="111" d="M1378.878,1155.9547 C1394.568,1144.2427 1416.69,1127.8987 1436.4,1113.9727 C1441.248,1110.5467 1443.55,1108.9394 1448.488,1105.5854 " fill="none" id="User-to-Username" style="stroke:#808080;stroke-width:0.6;"/><polygon fill="#808080" points="1451.466,1103.5627,1445.6505,1104.6114,1448.9843,1105.2483,1448.3475,1108.5821,1451.466,1103.5627" style="stroke:#808080;stroke-width:0.6;"/></g><!--link User to UserPassword--><g id="link_User_UserPassword"><path codeLine="112" d="M1379.052,1165.2187 C1395.108,1160.3527 1414.1627,1154.5745 1432.8767,1148.9045 " fill="none" id="User-to-UserPassword" style="stroke:#808080;stroke-width:0.6;"/><polygon fill="#808080" points="1436.322,1147.8607,1430.4581,1147.1296,1433.4509,1148.7306,1431.8499,1151.7234,1436.322,1147.8607" style="stroke:#808080;stroke-width:0.6;"/></g><!--link JobInterview to InterviewResults--><g id="link_JobInterview_InterviewResults"><path codeLine="128" d="M1201.632,462.8167 C1234.77,474.3727 1282.875,491.1506 1317.369,503.1866 " fill="none" id="JobInterview-to-InterviewResults" style="stroke:#808080;stroke-width:0.6;"/><polygon fill="#808080" points="1320.768,504.3727,1316.4601,500.3276,1317.9355,503.3843,1314.8788,504.8596,1320.768,504.3727" style="stroke:#808080;stroke-width:0.6;"/></g><!--link JobInterview to Score--><g id="link_JobInterview_Score"><path codeLine="129" d="M1201.632,454.7707 C1235.298,458.1127 1284.3236,462.9708 1318.8116,466.3968 " fill="none" id="JobInterview-to-Score" style="stroke:#808080;stroke-width:0.6;"/><polygon fill="#808080" points="1322.394,466.7527,1317.2577,463.8306,1319.4087,466.4561,1316.7832,468.6071,1322.394,466.7527" style="stroke:#808080;stroke-width:0.6;"/></g><!--link JobInterview to InterviewTime--><g id="link_JobInterview_InterviewTime"><path codeLine="130" d="M1201.632,446.7247 C1235.298,441.6607 1284.3461,434.2884 1318.8341,429.0984 " fill="none" id="JobInterview-to-InterviewTime" style="stroke:#808080;stroke-width:0.6;"/><polygon fill="#808080" points="1322.394,428.5627,1316.697,426.993,1319.4274,429.0091,1317.4113,431.7395,1322.394,428.5627" style="stroke:#808080;stroke-width:0.6;"/></g><!--link JobInterview to InterviewDate--><g id="link_JobInterview_InterviewDate"><path codeLine="131" d="M1201.632,438.6787 C1236.03,424.9207 1286.8616,404.592 1321.2776,390.822 " fill="none" id="JobInterview-to-InterviewDate" style="stroke:#808080;stroke-width:0.6;"/><polygon fill="#808080" points="1324.62,389.4847,1318.7149,389.2624,1321.8347,390.5991,1320.4979,393.7189,1324.62,389.4847" style="stroke:#808080;stroke-width:0.6;"/></g><!--link Process to ProcessState--><g id="link_Process_ProcessState"><path codeLine="143" d="M815.178,215.7727 C835.122,215.7727 859.974,215.7727 882.264,215.7727 " fill="none" id="Process-to-ProcessState" style="stroke:#808080;stroke-width:0.6;"/><polygon fill="#808080" points="885.864,215.7727,880.464,213.3727,882.864,215.7727,880.464,218.1727,885.864,215.7727" style="stroke:#808080;stroke-width:0.6;"/></g><!--link Process to ProcessDate--><g id="link_Process_ProcessDate"><path codeLine="144" d="M815.178,200.9887 C839.298,186.3607 872.7896,166.0451 895.8476,152.0651 " fill="none" id="Process-to-ProcessDate" style="stroke:#808080;stroke-width:0.6;"/><polygon fill="#808080" points="898.926,150.1987,893.0641,150.946,896.3607,151.754,895.5527,155.0505,898.926,150.1987" style="stroke:#808080;stroke-width:0.6;"/></g><!--link Application to ApplicationFiles--><g id="link_Application_ApplicationFiles"><path codeLine="182" d="M803.868,1084.3987 C817.524,1104.7567 840.612,1135.5007 867,1155.3727 C872.496,1159.5127 875.5969,1161.5521 881.9509,1164.5941 " fill="none" id="Application-to-ApplicationFiles" style="stroke:#808080;stroke-width:0.6;"/><polygon fill="#808080" points="885.198,1166.1487,881.3638,1161.6521,882.4921,1164.8532,879.291,1165.9816,885.198,1166.1487" style="stroke:#808080;stroke-width:0.6;"/></g><!--link Application to Status--><g id="link_Application_Status"><path codeLine="183" d="M820.554,1082.2747 C834.444,1090.7107 851.34,1100.5567 867,1108.5727 C874.026,1112.1727 878.4385,1114.2906 885.7525,1117.5306 " fill="none" id="Application-to-Status" style="stroke:#808080;stroke-width:0.6;"/><polygon fill="#808080" points="889.044,1118.9887,885.0788,1114.6072,886.3011,1117.7736,883.1347,1118.9959,889.044,1118.9887" style="stroke:#808080;stroke-width:0.6;"/></g><!--link Application to SubmissionDate--><g id="link_Application_SubmissionDate"><path codeLine="184" d="M820.53,1068.5287 C839.514,1071.6907 860.6891,1075.2201 880.7891,1078.5741 " fill="none" id="Application-to-SubmissionDate" style="stroke:#808080;stroke-width:0.6;"/><polygon fill="#808080" points="884.34,1079.1667,879.4087,1075.9106,881.3809,1078.6729,878.6186,1080.6451,884.34,1079.1667" style="stroke:#808080;stroke-width:0.6;"/></g><!--link Application to Rank--><g id="link_Application_Rank"><path codeLine="185" d="M820.53,1057.7947 C839.964,1054.0147 861.8761,1049.7514 882.2221,1045.7974 " fill="none" id="Application-to-Rank" style="stroke:#808080;stroke-width:0.6;"/><polygon fill="#808080" points="885.756,1045.1107,879.9973,1043.7849,882.8111,1045.683,880.913,1048.4967,885.756,1045.1107" style="stroke:#808080;stroke-width:0.6;"/></g><!--link InterviewModel to Plugin--><g id="link_InterviewModel_Plugin"><path codeLine="211" d="M591.072,707.7727 C603.258,707.7727 613.164,707.7727 625.164,707.7727 " fill="none" id="InterviewModel-to-Plugin" style="stroke:#808080;stroke-width:0.6;"/><polygon fill="#808080" points="628.764,707.7727,623.364,705.3727,625.764,707.7727,623.364,710.1727,628.764,707.7727" style="stroke:#808080;stroke-width:0.6;"/></g><!--link Company to CompanyName--><g id="link_Company_CompanyName"><path codeLine="248" d="M1196.466,696.9847 C1229.676,698.4727 1282.4496,700.8376 1318.7556,702.4636 " fill="none" id="Company-to-CompanyName" style="stroke:#808080;stroke-width:0.6;"/><polygon fill="#808080" points="1322.352,702.6247,1317.0648,699.9855,1319.355,702.4904,1316.85,704.7807,1322.352,702.6247" style="stroke:#808080;stroke-width:0.6;"/></g><!--link Company to CompanyNumber--><g id="link_Company_CompanyNumber"><path codeLine="249" d="M1196.466,690.2287 C1228.56,683.6587 1278.7571,673.3767 1315.0991,665.9367 " fill="none" id="Company-to-CompanyNumber" style="stroke:#808080;stroke-width:0.6;"/><polygon fill="#808080" points="1318.626,665.2147,1312.8544,663.9465,1315.687,665.8163,1313.8171,668.6489,1318.626,665.2147" style="stroke:#808080;stroke-width:0.6;"/></g><!--reverse link JobOpening to Application--><g id="link_JobOpening_Application"><path codeLine="252" d="M673.1397,539.5312 C683.7777,570.1432 702.084,625.6687 713.4,677.1727 C716.694,692.1667 715.608,696.2467 718.2,711.3727 C739.884,837.8947 772.836,988.5487 784.932,1042.8127 " fill="none" id="JobOpening-backto-Application" style="stroke:#808080;stroke-width:0.6;"/><polygon fill="#808080" points="671.958,536.1307,671.4636,542.0192,672.9428,538.9644,675.9976,540.4436,671.958,536.1307" style="stroke:#808080;stroke-width:0.6;"/><text fill="#000000" font-family="sans-serif" font-size="7.8" lengthAdjust="spacing" textLength="12.6" x="718.8" y="708.9896">has</text><text fill="#000000" font-family="sans-serif" font-size="7.8" lengthAdjust="spacing" textLength="4.2" x="668.7076" y="548.7364">1</text><text fill="#000000" font-family="sans-serif" font-size="7.8" lengthAdjust="spacing" textLength="5.4" x="775.3844" y="1036.1429">N</text></g><!--link JobOpening to Customer--><g id="link_JobOpening_Customer"><path codeLine="253" d="M673.146,536.0887 C686.1,565.9627 712.59,621.7087 745.5,662.1727 C789.984,716.8747 853.179,765.2708 890.067,791.4188 " fill="none" id="JobOpening-to-Customer" style="stroke:#808080;stroke-width:0.6;"/><polygon fill="#808080" points="893.004,793.5007,889.9865,788.4199,890.5565,791.7658,887.2106,792.3358,893.004,793.5007" style="stroke:#808080;stroke-width:0.6;"/><text fill="#000000" font-family="sans-serif" font-size="7.8" lengthAdjust="spacing" textLength="37.8" x="771.3" y="659.7896">associated</text><text fill="#000000" font-family="sans-serif" font-size="7.8" lengthAdjust="spacing" textLength="5.4" x="675.1246" y="548.8517">N</text><text fill="#000000" font-family="sans-serif" font-size="7.8" lengthAdjust="spacing" textLength="4.2" x="884.0075" y="799.7904">1</text></g><!--link JobOpening to Process--><g id="link_JobOpening_Process"><path codeLine="254" d="M668.1,494.4607 C676.482,449.9347 700.122,342.7867 745.5,264.3727 C751.266,254.4127 756.8583,247.3527 764.5323,239.3007 " fill="none" id="JobOpening-to-Process" style="stroke:#808080;stroke-width:0.6;"/><polygon fill="#808080" points="767.016,236.6947,761.5531,238.9479,764.9463,238.8663,765.0278,242.2595,767.016,236.6947" style="stroke:#808080;stroke-width:0.6;"/></g><!--link Application to Candidate--><g id="link_Application_Candidate"><path codeLine="256" d="M818.982,1042.7947 C832.896,1033.2847 850.248,1022.4907 867,1014.9727 C962.568,972.0967 1081.439,946.1677 1136.093,935.6377 " fill="none" id="Application-to-Candidate" style="stroke:#808080;stroke-width:0.6;"/><polygon fill="#808080" points="1139.628,934.9567,1133.8715,933.6216,1136.6822,935.5242,1134.7796,938.3349,1139.628,934.9567" style="stroke:#808080;stroke-width:0.6;"/><text fill="#000000" font-family="sans-serif" font-size="7.8" lengthAdjust="spacing" textLength="5.4" x="818.5539" y="1036.1214">N</text><text fill="#000000" font-family="sans-serif" font-size="7.8" lengthAdjust="spacing" textLength="4.2" x="1130.6395" y="944.9827">1</text></g><!--link Application to JobInterview--><g id="link_Application_JobInterview"><path codeLine="257" d="M792.942,1042.8187 C798.666,994.3207 817.386,870.9127 867,781.5727 C905.748,711.7987 935.496,709.0327 989.4,650.1727 C1048.308,585.8527 1114.7263,511.5838 1147.1263,475.2418 " fill="none" id="Application-to-JobInterview" style="stroke:#808080;stroke-width:0.6;"/><polygon fill="#808080" points="1149.522,472.5547,1144.1371,474.9883,1147.5256,474.7939,1147.7199,478.1825,1149.522,472.5547" style="stroke:#808080;stroke-width:0.6;"/><text fill="#000000" font-family="sans-serif" font-size="7.8" lengthAdjust="spacing" textLength="4.2" x="788.8644" y="1036.15">1</text><text fill="#000000" font-family="sans-serif" font-size="7.8" lengthAdjust="spacing" textLength="4.2" x="1141.9149" y="485.1642">1</text></g><!--reverse link JobRequirementsSpecification to JobOpening--><g id="link_JobRequirementsSpecification_JobOpening"><path codeLine="259" d="M475.8614,513.9975 C485.5754,511.6515 492.036,510.4807 501.6,509.1727 C547.308,502.9267 559.326,506.7907 605.4,509.1727 C613.878,509.6107 623.028,510.4087 631.494,511.2787 " fill="none" id="JobRequirementsSpecification-backto-JobOpening" style="stroke:#808080;stroke-width:0.6;"/><polygon fill="#808080" points="472.362,514.8427,478.1745,515.9079,475.2782,514.1384,477.0477,511.242,472.362,514.8427" style="stroke:#808080;stroke-width:0.6;"/><text fill="#000000" font-family="sans-serif" font-size="7.8" lengthAdjust="spacing" textLength="37.8" x="534.6" y="503.7896">associated</text><text fill="#000000" font-family="sans-serif" font-size="7.8" lengthAdjust="spacing" textLength="4.2" x="477.5883" y="522.0802">1</text><text fill="#000000" font-family="sans-serif" font-size="7.8" lengthAdjust="spacing" textLength="5.4" x="621.3766" y="519.8879">N</text></g><!--link Admin to Customer--><g id="link_Admin_Customer"><path codeLine="261" d="M94.332,860.2147 C121.668,841.3867 171.822,812.1727 219.9,812.1727 C219.9,812.1727 219.9,812.1727 790.8,812.1727 C826.128,812.1727 863.268,812.1727 889.494,812.1727 " fill="none" id="Admin-to-Customer" style="stroke:#808080;stroke-width:0.6;"/><polygon fill="#808080" points="893.094,812.1727,887.694,809.7727,890.094,812.1727,887.694,814.5727,893.094,812.1727" style="stroke:#808080;stroke-width:0.6;"/><text fill="#000000" font-family="sans-serif" font-size="7.8" lengthAdjust="spacing" textLength="31.8" x="537.6" y="809.7896">manages</text><text fill="#000000" font-family="sans-serif" font-size="7.8" lengthAdjust="spacing" textLength="4.2" x="98.9649" y="866.6169">1</text><text fill="#000000" font-family="sans-serif" font-size="7.8" lengthAdjust="spacing" textLength="5.4" x="882.8162" y="821.4382">N</text></g><!--link Admin to CustomerManager--><g id="link_Admin_CustomerManager"><path codeLine="262" d="M94.272,875.7727 C147.312,875.7727 285.042,875.7727 357.624,875.7727 " fill="none" id="Admin-to-CustomerManager" style="stroke:#808080;stroke-width:0.6;"/><polygon fill="#808080" points="361.224,875.7727,355.824,873.3727,358.224,875.7727,355.824,878.1727,361.224,875.7727" style="stroke:#808080;stroke-width:0.6;"/><text fill="#000000" font-family="sans-serif" font-size="7.8" lengthAdjust="spacing" textLength="31.8" x="204.6" y="873.3896">manages</text><text fill="#000000" font-family="sans-serif" font-size="7.8" lengthAdjust="spacing" textLength="4.2" x="99.1131" y="885.2878">1</text><text fill="#000000" font-family="sans-serif" font-size="7.8" lengthAdjust="spacing" textLength="5.4" x="351.2799" y="884.6971">N</text></g><!--link CustomerManager to JobOpening--><g id="link_CustomerManager_JobOpening"><path codeLine="264" d="M413.868,855.0067 C427.29,817.3387 458.976,736.1707 501.6,677.1727 C539.046,625.3507 560.568,623.1607 605.4,577.5727 C618.768,563.9827 630.9402,550.9046 642.1302,538.6346 " fill="none" id="CustomerManager-to-JobOpening" style="stroke:#808080;stroke-width:0.6;"/><polygon fill="#808080" points="644.556,535.9747,639.144,538.3474,642.5345,538.1913,642.6906,541.5818,644.556,535.9747" style="stroke:#808080;stroke-width:0.6;"/><text fill="#000000" font-family="sans-serif" font-size="7.8" lengthAdjust="spacing" textLength="31.8" x="537.6" y="575.1896">manages</text><text fill="#000000" font-family="sans-serif" font-size="7.8" lengthAdjust="spacing" textLength="4.2" x="410.7294" y="848.3357">1</text><text fill="#000000" font-family="sans-serif" font-size="7.8" lengthAdjust="spacing" textLength="5.4" x="635.3672" y="548.8821">N</text></g><!--link CustomerManager to Customer--><g id="link_CustomerManager_Customer"><path codeLine="265" d="M451.062,873.2887 C480.024,871.8727 518.7,870.3727 552.9,870.3727 C552.9,870.3727 552.9,870.3727 790.8,870.3727 C828.66,870.3727 864.7163,851.4441 889.9163,834.6861 " fill="none" id="CustomerManager-to-Customer" style="stroke:#808080;stroke-width:0.6;"/><polygon fill="#808080" points="892.914,832.6927,887.0885,833.6844,890.4159,834.3539,889.7464,837.6813,892.914,832.6927" style="stroke:#808080;stroke-width:0.6;"/><text fill="#000000" font-family="sans-serif" font-size="7.8" lengthAdjust="spacing" textLength="30" x="648.9" y="867.9896">registers</text><text fill="#000000" font-family="sans-serif" font-size="7.8" lengthAdjust="spacing" textLength="4.2" x="455.6848" y="881.9853">1</text><text fill="#000000" font-family="sans-serif" font-size="7.8" lengthAdjust="spacing" textLength="5.4" x="882.9923" y="844.9055">N</text></g><!--link Operator to Application--><g id="link_Operator_Application"><path codeLine="267" d="M580.2,1150.5367 C624.33,1132.2067 710.0812,1096.5972 756.5512,1077.3012 " fill="none" id="Operator-to-Application" style="stroke:#808080;stroke-width:0.6;"/><polygon fill="#808080" points="759.876,1075.9207,753.9685,1075.775,757.1054,1077.0711,755.8092,1080.208,759.876,1075.9207" style="stroke:#808080;stroke-width:0.6;"/><text fill="#000000" font-family="sans-serif" font-size="7.8" lengthAdjust="spacing" textLength="30" x="648.9" y="1092.9896">registers</text><text fill="#000000" font-family="sans-serif" font-size="7.8" lengthAdjust="spacing" textLength="4.2" x="584.97" y="1158.0408">1</text><text fill="#000000" font-family="sans-serif" font-size="7.8" lengthAdjust="spacing" textLength="5.4" x="749.6256" y="1086.9333">N</text></g><!--link LanguageEngineer to JobRequirementsSpecification--><g id="link_LanguageEngineer_JobRequirementsSpecification"><path codeLine="269" d="M80.898,687.0187 C92.424,657.8827 117.54,605.4367 157.2,578.7727 C211.14,542.5027 282.4866,533.8417 335.9166,532.9057 " fill="none" id="LanguageEngineer-to-JobRequirementsSpecification" style="stroke:#808080;stroke-width:0.6;"/><polygon fill="#808080" points="339.516,532.8427,334.0748,530.5376,336.5165,532.8952,334.1589,535.3369,339.516,532.8427" style="stroke:#808080;stroke-width:0.6;"/><text fill="#000000" font-family="sans-serif" font-size="7.8" lengthAdjust="spacing" textLength="25.8" x="207.6" y="534.9896">creates</text><text fill="#000000" font-family="sans-serif" font-size="7.8" lengthAdjust="spacing" textLength="4.2" x="77.8223" y="680.35">1</text><text fill="#000000" font-family="sans-serif" font-size="7.8" lengthAdjust="spacing" textLength="5.4" x="329.4543" y="541.434">N</text></g><!--link LanguageEngineer to InterviewModel--><g id="link_LanguageEngineer_InterviewModel"><path codeLine="270" d="M118.818,707.7727 C213.168,707.7727 425.532,707.7727 512.256,707.7727 " fill="none" id="LanguageEngineer-to-InterviewModel" style="stroke:#808080;stroke-width:0.6;"/><polygon fill="#808080" points="515.856,707.7727,510.456,705.3727,512.856,707.7727,510.456,710.1727,515.856,707.7727" style="stroke:#808080;stroke-width:0.6;"/><text fill="#000000" font-family="sans-serif" font-size="7.8" lengthAdjust="spacing" textLength="25.8" x="294.9" y="705.3896">creates</text><text fill="#000000" font-family="sans-serif" font-size="7.8" lengthAdjust="spacing" textLength="4.2" x="123.5448" y="716.7138">1</text><text fill="#000000" font-family="sans-serif" font-size="7.8" lengthAdjust="spacing" textLength="5.4" x="505.7912" y="716.8053">N</text></g><!--reverse link InterviewModel to JobInterview--><g id="link_InterviewModel_JobInterview"><path codeLine="272" d="M594.1399,693.511 C599.7979,690.037 601.854,687.5167 605.4,681.9727 C626.844,648.4207 600.654,360.0367 617.1,323.7727 C628.71,298.1707 635.19,280.5727 663.3,280.5727 C663.3,280.5727 663.3,280.5727 921.6,280.5727 C1025.928,280.5727 1117.926,385.2067 1153.05,430.7767 " fill="none" id="InterviewModel-backto-JobInterview" style="stroke:#808080;stroke-width:0.6;"/><polygon fill="#808080" points="591.072,695.3947,596.9296,694.6144,593.6286,693.8249,594.418,690.5239,591.072,695.3947" style="stroke:#808080;stroke-width:0.6;"/><text fill="#000000" font-family="sans-serif" font-size="7.8" lengthAdjust="spacing" textLength="16.8" x="781.8" y="278.1896">uses</text><text fill="#000000" font-family="sans-serif" font-size="7.8" lengthAdjust="spacing" textLength="4.2" x="595.907" y="702.952">1</text><text fill="#000000" font-family="sans-serif" font-size="7.8" lengthAdjust="spacing" textLength="5.4" x="1144.133" y="424.1">N</text></g><!--link ANTLR to JobRequirementsSpecification--><g id="link_ANTLR_JobRequirementsSpecification"><path codeLine="274" d="M243.726,600.3247 C270.954,589.4347 314.1955,572.1358 350.4175,557.6458 " fill="none" id="ANTLR-to-JobRequirementsSpecification" style="stroke:#808080;stroke-width:0.6;"/><polygon fill="#808080" points="353.76,556.3087,347.8549,556.086,350.9746,557.4229,349.6377,560.5426,353.76,556.3087" style="stroke:#808080;stroke-width:0.6;"/><text fill="#000000" font-family="sans-serif" font-size="7.8" lengthAdjust="spacing" textLength="36" x="289.8" y="567.3896">processes</text></g><!--link ANTLR to InterviewModel--><g id="link_ANTLR_InterviewModel"><path codeLine="275" d="M243.648,616.0627 C299.874,632.7367 443.2966,675.267 512.4406,695.775 " fill="none" id="ANTLR-to-InterviewModel" style="stroke:#808080;stroke-width:0.6;"/><polygon fill="#808080" points="515.892,696.7987,511.3974,692.9622,513.0158,695.9456,510.0325,697.5641,515.892,696.7987" style="stroke:#808080;stroke-width:0.6;"/><text fill="#000000" font-family="sans-serif" font-size="7.8" lengthAdjust="spacing" textLength="36" x="388.2" y="638.7896">processes</text></g><!--link Admin to User--><g id="link_Admin_User"><path codeLine="277" d="M75.894,896.6947 C86.37,983.3527 131.67,1309.5727 219.9,1309.5727 C219.9,1309.5727 219.9,1309.5727 1169.4,1309.5727 C1225.686,1309.5727 1247.616,1315.2667 1293,1281.9727 C1323.624,1259.5087 1340.7173,1221.0009 1349.4413,1195.7769 " fill="none" id="Admin-to-User" style="stroke:#808080;stroke-width:0.6;"/><polygon fill="#808080" points="1350.618,1192.3747,1346.5848,1196.6936,1349.6374,1195.2099,1351.1211,1198.2625,1350.618,1192.3747" style="stroke:#808080;stroke-width:0.6;"/><text fill="#000000" font-family="sans-serif" font-size="7.8" lengthAdjust="spacing" textLength="31.8" x="648" y="1307.1896">manages</text></g><!--link CustomerManager to User--><g id="link_CustomerManager_User"><path codeLine="279" d="M409.89,896.4967 C422.49,977.2507 473.166,1266.3727 552.9,1266.3727 C552.9,1266.3727 552.9,1266.3727 1169.4,1266.3727 C1225.626,1266.3727 1244.064,1267.0687 1293,1239.3727 C1313.34,1227.8587 1328.9058,1210.619 1340.4978,1195.277 " fill="none" id="CustomerManager-to-User" style="stroke:#808080;stroke-width:0.6;"/><polygon fill="#808080" points="1342.668,1192.4047,1337.4978,1195.2663,1340.8595,1194.7982,1341.3275,1198.1599,1342.668,1192.4047" style="stroke:#808080;stroke-width:0.6;"/></g><!--link Operator to User--><g id="link_Operator_User"><path codeLine="281" d="M575.082,1182.1507 C595.716,1200.3067 629.016,1223.7727 663.3,1223.7727 C663.3,1223.7727 663.3,1223.7727 1169.4,1223.7727 C1225.212,1223.7727 1239.822,1218.5107 1293,1201.5727 C1307.946,1196.8147 1320.7247,1190.9653 1332.9587,1184.6533 " fill="none" id="Operator-to-User" style="stroke:#808080;stroke-width:0.6;"/><polygon fill="#808080" points="1336.158,1183.0027,1330.2587,1183.3458,1333.4919,1184.3782,1332.4595,1187.6115,1336.158,1183.0027" style="stroke:#808080;stroke-width:0.6;"/></g><!--link LanguageEngineer to User--><g id="link_LanguageEngineer_User"><path codeLine="283" d="M109.218,728.4907 C138.096,743.2807 180.318,760.5727 219.9,760.5727 C219.9,760.5727 219.9,760.5727 497.4,760.5727 C585.828,760.5727 1228.914,720.6427 1293,781.5727 C1322.328,809.4607 1309.956,922.2247 1316.4,962.1727 C1327.608,1031.6287 1343.7385,1109.8091 1351.7005,1147.3211 " fill="none" id="LanguageEngineer-to-User" style="stroke:#808080;stroke-width:0.6;"/><polygon fill="#808080" points="1352.448,1150.8427,1353.6745,1145.062,1351.8251,1147.908,1348.9791,1146.0586,1352.448,1150.8427" style="stroke:#808080;stroke-width:0.6;"/></g><!--link Customer to User--><g id="link_Customer_User"><path codeLine="285" d="M934.584,833.0767 C956.172,865.9627 1002.678,929.4127 1059,962.1727 C1151.214,1015.8067 1211.634,946.5907 1293,1015.5727 C1334.526,1050.7747 1348.9079,1113.6165 1353.9599,1147.2945 " fill="none" id="Customer-to-User" style="stroke:#808080;stroke-width:0.6;"/><polygon fill="#808080" points="1354.494,1150.8547,1356.0664,1145.1584,1354.049,1147.8879,1351.3195,1145.8704,1354.494,1150.8547" style="stroke:#808080;stroke-width:0.6;"/></g><!--link Customer to Company--><g id="link_Customer_Company"><path codeLine="286" d="M948.93,799.2727 C996.462,776.8387 1090.5144,732.4453 1137.8664,710.0953 " fill="none" id="Customer-to-Company" style="stroke:#808080;stroke-width:0.6;"/><polygon fill="#808080" points="1141.122,708.5587,1135.2142,708.6932,1138.409,709.8392,1137.263,713.034,1141.122,708.5587" style="stroke:#808080;stroke-width:0.6;"/><polygon fill="#000000" points="994.487,753.2405,1000.1475,752.5187,998.6422,749.3293,994.487,753.2405" style="stroke:#000000;stroke-width:0.6;"/><text fill="#000000" font-family="sans-serif" font-size="7.8" lengthAdjust="spacing" textLength="37.8" x="1002.6" y="755.1896">associated</text><text fill="#000000" font-family="sans-serif" font-size="7.8" lengthAdjust="spacing" textLength="5.4" x="953.6202" y="806.5296">N</text><text fill="#000000" font-family="sans-serif" font-size="7.8" lengthAdjust="spacing" textLength="4.2" x="1132.1761" y="719.862">1</text></g><!--link Candidate to User--><g id="link_Candidate_User"><path codeLine="288" d="M1197.924,930.2047 C1226.31,932.2567 1269.018,940.0207 1293,966.9727 C1301.1,976.0807 1294.8,982.1587 1297.8,993.9727 C1312.47,1051.7707 1335.2031,1114.5952 1347.6231,1147.4512 " fill="none" id="Candidate-to-User" style="stroke:#808080;stroke-width:0.6;"/><polygon fill="#808080" points="1348.896,1150.8187,1349.2316,1144.9189,1347.8352,1148.0125,1344.7416,1146.6161,1348.896,1150.8187" style="stroke:#808080;stroke-width:0.6;"/></g><!--SRC=[fLXDR-Cs4BthLn3keIS3tMjW673YP94YwmI9ktTQ6jji95AbgAR6OlzxXwH4aH8bETXSad3UVBpXp93KcML02b1daLL93aT5b22IdSwAP4n2gfZWoU_LE-CbbRGWEUEWBYKG8L4dIVPCvK0MMr5GniataK6-I98Ed-QqgiYFXE3F4pl24-hV2fc1l1Eva6HBvVjjNaC8eEdxIOgQPnQqUNbvUhpRx1-VTmRNb__syCS3_XZPHahnOPTF4YuMxpayvAYS_FHZB765dk1DNP2AvapvAOU01PNP18cl4e3_EeFjjiz0P-ThZCLjoo9fWYUBkxfIeW3qTKBY9wfWyIC1hfYw42TRhUpAUhrQII7KUfqOsuRWFUvXliao2RXbgzLtYlj2dWz_OqRMQyl-fuKxUylbEb3J8NKHKPwn30E9XkI4ap7TrLAojCxhOX0HQKDou3taK9u5XrrT70pRAGuk04sYynCHzkm69FyK1_8A_zJOB0NogCXR2IaxifJgreanHmrV8SIF9QFH3JnrM8kPDAnv-D9amEAv1CxuQIJaLZgvMoQ28qZWALopNtfuFCk7cgSD-JcDEy6LfAdQwn4q3zVpw0hOMCqFaTzfIddAe1gfiA765gfKidAQNxjzRPBrPlcvZCbxoOj1_6p5v3eziVMscIEYNW9Y48-n9SO5zf4zKyHn65JJR-I0Xme73L5d84UHv-83RTuuq98SwpnVAbQ0juOJMdLhm3FZB-RPqRtU9Th7Vj7sl9NpvI1Pvgy8NZ7L3y3lhx-g-60swvCjfH5cmbvHQngxemLS2Nt1e_a33vKhuHmjJrUmOQDBm0KzNDRn3LTvTBKDS32h7ha2-I-3Zv5XrSd7ScjfETmhL7MkHYT0amghz9OA2LSXdVazApwfiRKduvY6_HqmrKdhync16GPp9lQkpSOnEifmSrwaIFKeZUnBAveizmRqfYRu_np0jvDeywlrhkFtdOm9BRNX4F75dvnUj2ppvZX6rr85DWBnFSzwmhTKtp7HO4pJ2OTwRgkgc68d7MfkECql5OlgjRAXbYqyjpWrZWUxy8bKRhfSnV8GfHY9Vn3un0ZtNCQgsnTFLhW7V60vZD-qku636QglmTM7WbKL6exsmm3_Ildxz1tP9sKk1htOeo0RRbmKH1Y5wA1YrU9P_KITLDgXKf3v5mRStx16Q9f26O8oIFLJDvkjucXAFX6XWlyKEQ8c-M3gR70ftf3C1R_H0tUIDhSWZJxYAn1eUhR_KQNmRyZqwpscCkFbbmpXCucseNepZE0J2kkiUKTDD5PtjfZF1x7cSX2Bc3v1ylh4vkxQFODcxXkzCBGdoa-r_kkUempYTxWMv32ny899aXKiFaECO4xTFRw_KOuBam_-5Z9d4-_laYeHslBUdKu-osstVtebRpgvAOnPiw1Pdg8eARzuHaXWfPLFVp-meEYjEFAwjE1hlXuqpkqpo_aObRaF1xq7q-BBWgoMIxBOaKKm2s_8cGvUO8lT0gsYMQtcwk26u3rPf8os8ypJyAyqmvaUsWjwDO1zyM3-RV2AxmuDmQNnvGKM16qzckhlVEq2YeMfv6eEsHPyfn1yi6h5WMuGbUzdKikB3SkJLPYInfbhbW0VRcvFPJ13-W6E9_Y6uAq7irXTOQWtzZhLs53ixrmtfsz8NRLAjfVT1ulnA4jRXEqMDch-Qw8DgaDwkxri7uKpE-jmlRq8bmTfwgbv7pZRzM3PDaxJDqsx-nLDLh6FZCRE_m00]--></g></svg>