<?xml version="1.0" encoding="us-ascii" standalone="no"?><svg xmlns="http://www.w3.org/2000/svg" xmlns:xlink="http://www.w3.org/1999/xlink" contentStyleType="text/css" height="2239px" preserveAspectRatio="none" style="width:2533px;height:2239px;background:#FFFFFF;" version="1.1" viewBox="0 0 2533 2239" width="2533px" zoomAndPan="magnify"><defs/><g><text fill="#000000" font-family="sans-serif" font-size="14" font-weight="bold" lengthAdjust="spacing" textLength="100" x="1209.5" y="25.1074">Domain Model</text><!--cluster Customer Aggregate--><g id="cluster_Customer Aggregate"><rect fill="none" height="123" rx="2.5" ry="2.5" style="stroke:#000000;stroke-width:1.5;" width="550" x="1472.5" y="1321.6211"/><text fill="#000000" font-family="sans-serif" font-size="14" font-weight="bold" lengthAdjust="spacing" textLength="145" x="1675" y="1338.7285">Customer Aggregate</text></g><!--cluster Candidate Aggregate--><g id="cluster_Candidate Aggregate"><rect fill="none" height="175" rx="2.5" ry="2.5" style="stroke:#000000;stroke-width:1.5;" width="463.5" x="1883.5" y="1468.6211"/><text fill="#000000" font-family="sans-serif" font-size="14" font-weight="bold" lengthAdjust="spacing" textLength="148" x="2041.25" y="1485.7285">Candidate Aggregate</text></g><!--cluster Job Requirements Specification Aggregate--><g id="cluster_Job Requirements Specification Aggregate"><rect fill="none" height="123" rx="2.5" ry="2.5" style="stroke:#000000;stroke-width:1.5;" width="448.5" x="550" y="847.6211"/><text fill="#000000" font-family="sans-serif" font-size="14" font-weight="bold" lengthAdjust="spacing" textLength="301" x="623.75" y="864.7285">Job Requirements Specification Aggregate</text></g><!--cluster Job Opening Aggregate--><g id="cluster_Job Opening Aggregate"><rect fill="none" height="565" rx="2.5" ry="2.5" style="stroke:#000000;stroke-width:1.5;" width="604.5" x="1036.5" y="545.6211"/><text fill="#000000" font-family="sans-serif" font-size="14" font-weight="bold" lengthAdjust="spacing" textLength="167" x="1255.25" y="562.7285">Job Opening Aggregate</text></g><!--cluster User Aggregate--><g id="cluster_User Aggregate"><rect fill="none" height="331" rx="2.5" ry="2.5" style="stroke:#000000;stroke-width:1.5;" width="316" x="2211" y="1798.6211"/><text fill="#000000" font-family="sans-serif" font-size="14" font-weight="bold" lengthAdjust="spacing" textLength="110" x="2314" y="1815.7285">User Aggregate</text></g><!--cluster JobInterview Aggregate--><g id="cluster_JobInterview Aggregate"><rect fill="none" height="331" rx="2.5" ry="2.5" style="stroke:#000000;stroke-width:1.5;" width="462" x="1877.5" y="602.6211"/><text fill="#000000" font-family="sans-serif" font-size="14" font-weight="bold" lengthAdjust="spacing" textLength="169" x="2024" y="619.7285">JobInterview Aggregate</text></g><!--cluster Process Aggregate--><g id="cluster_Process Aggregate"><rect fill="none" height="413" rx="2.5" ry="2.5" style="stroke:#000000;stroke-width:1.5;" width="794.5" x="1259.5" y="46.6211"/><text fill="#000000" font-family="sans-serif" font-size="14" font-weight="bold" lengthAdjust="spacing" textLength="134" x="1589.75" y="63.7285">Process Aggregate</text></g><!--cluster Application Aggregate--><g id="cluster_Application Aggregate"><rect fill="none" height="331" rx="2.5" ry="2.5" style="stroke:#000000;stroke-width:1.5;" width="896.5" x="1250.5" y="1711.6211"/><text fill="#000000" font-family="sans-serif" font-size="14" font-weight="bold" lengthAdjust="spacing" textLength="155" x="1621.25" y="1728.7285">Application Aggregate</text></g><!--cluster Interview Model Aggregate--><g id="cluster_Interview Model Aggregate"><rect fill="none" height="123" rx="2.5" ry="2.5" style="stroke:#000000;stroke-width:1.5;" width="337" x="844" y="1134.6211"/><text fill="#000000" font-family="sans-serif" font-size="14" font-weight="bold" lengthAdjust="spacing" textLength="191" x="917" y="1151.7285">Interview Model Aggregate</text></g><!--cluster Language Engineer Aggregate--><g id="cluster_Language Engineer Aggregate"><rect fill="none" height="123" rx="2.5" ry="2.5" style="stroke:#000000;stroke-width:1.5;" width="230" x="7" y="1134.6211"/><text fill="#000000" font-family="sans-serif" font-size="14" font-weight="bold" lengthAdjust="spacing" textLength="214" x="15" y="1151.7285">Language Engineer Aggregate</text></g><!--cluster Admin Aggregate--><g id="cluster_Admin Aggregate"><rect fill="none" height="123" rx="2.5" ry="2.5" style="stroke:#000000;stroke-width:1.5;" width="136" x="54" y="1427.6211"/><text fill="#000000" font-family="sans-serif" font-size="14" font-weight="bold" lengthAdjust="spacing" textLength="120" x="62" y="1444.7285">Admin Aggregate</text></g><!--cluster Customer Manager Aggregate--><g id="cluster_Customer Manager Aggregate"><rect fill="none" height="123" rx="2.5" ry="2.5" style="stroke:#000000;stroke-width:1.5;" width="227" x="563.5" y="1427.6211"/><text fill="#000000" font-family="sans-serif" font-size="14" font-weight="bold" lengthAdjust="spacing" textLength="211" x="571.5" y="1444.7285">Customer Manager Aggregate</text></g><!--cluster Operator Aggregate--><g id="cluster_Operator Aggregate"><rect fill="none" height="123" rx="2.5" ry="2.5" style="stroke:#000000;stroke-width:1.5;" width="156" x="845" y="1903.6211"/><text fill="#000000" font-family="sans-serif" font-size="14" font-weight="bold" lengthAdjust="spacing" textLength="140" x="853" y="1920.7285">Operator Aggregate</text></g><!--cluster ANTLR Service Aggregate--><g id="cluster_ANTLR Service Aggregate"><rect fill="none" height="123" rx="2.5" ry="2.5" style="stroke:#000000;stroke-width:1.5;" width="196" x="270" y="970.6211"/><text fill="#000000" font-family="sans-serif" font-size="14" font-weight="bold" lengthAdjust="spacing" textLength="180" x="278" y="987.7285">ANTLR Service Aggregate</text></g><!--cluster Company Aggregate--><g id="cluster_Company Aggregate"><rect fill="none" height="175" rx="2.5" ry="2.5" style="stroke:#000000;stroke-width:1.5;" width="457" x="1886" y="1076.6211"/><text fill="#000000" font-family="sans-serif" font-size="14" font-weight="bold" lengthAdjust="spacing" textLength="141" x="2044" y="1093.7285">Company Aggregate</text></g><!--class Customer--><g id="elem_Customer"><rect codeLine="27" fill="#F0FFFF" height="68.543" id="Customer" rx="2.5" ry="2.5" style="stroke:#000000;stroke-width:0.5;" width="93" x="1488.5" y="1359.1211"/><ellipse cx="1503.5" cy="1389.3926" fill="#ADD1B2" rx="11" ry="11" style="stroke:#181818;stroke-width:1.0;"/><path d="M1502.3594,1390.1895 L1502.3594,1392.6895 L1506.6875,1392.6895 L1506.6875,1391.7676 Q1506.6875,1391.1582 1506.9219,1390.8926 Q1507.1719,1390.627 1507.5469,1390.627 Q1507.9219,1390.627 1508.1563,1390.8926 Q1508.3906,1391.1582 1508.3906,1391.7676 L1508.3906,1394.3926 L1500.3906,1394.3926 Q1499.7656,1394.3926 1499.5,1394.1582 Q1499.25,1393.9238 1499.25,1393.5332 Q1499.25,1393.1582 1499.5156,1392.9238 Q1499.7813,1392.6895 1500.3906,1392.6895 L1500.6563,1392.6895 L1500.6563,1386.0332 L1500.3906,1386.0332 Q1499.7656,1386.0332 1499.5,1385.7988 Q1499.25,1385.5645 1499.25,1385.1738 Q1499.25,1384.7988 1499.5,1384.5645 Q1499.7656,1384.3301 1500.3906,1384.3301 L1508.0156,1384.3301 L1508.0156,1386.9238 Q1508.0156,1387.5332 1507.7813,1387.7988 Q1507.5625,1388.0488 1507.1719,1388.0488 Q1506.7969,1388.0488 1506.5625,1387.7988 Q1506.3281,1387.5332 1506.3281,1386.9238 L1506.3281,1386.0332 L1502.3594,1386.0332 L1502.3594,1388.4863 L1503.8438,1388.4863 Q1503.8438,1387.8301 1503.9688,1387.6426 Q1504.2344,1387.2363 1504.7031,1387.2363 Q1505.0781,1387.2363 1505.3125,1387.502 Q1505.5469,1387.752 1505.5469,1388.3613 L1505.5469,1390.3301 Q1505.5469,1390.877 1505.4219,1391.0645 Q1505.1563,1391.4551 1504.7031,1391.4551 Q1504.2344,1391.4551 1503.9688,1391.0488 Q1503.8438,1390.8613 1503.8438,1390.1895 L1502.3594,1390.1895 Z " fill="#000000"/><text fill="#000000" font-family="sans-serif" font-size="12" font-style="italic" lengthAdjust="spacing" textLength="43" x="1526.5" y="1377.0703">&#171;entity&#187;</text><text fill="#000000" font-family="sans-serif" font-size="12" font-style="italic" lengthAdjust="spacing" textLength="35" x="1530.5" y="1393.0313">&#171;root&#187;</text><text fill="#000000" font-family="sans-serif" font-size="14" lengthAdjust="spacing" textLength="61" x="1517.5" y="1411.1504">Customer</text><line style="stroke:#000000;stroke-width:0.5;" x1="1489.5" x2="1580.5" y1="1419.6641" y2="1419.6641"/></g><!--entity EmailAddress--><g id="elem_EmailAddress"><rect fill="#F0FFDD" height="43.2422" rx="2.5" ry="2.5" style="stroke:#000000;stroke-width:0.5;" width="117" x="1889.5" y="1372.1211"/><text fill="#000000" font-family="sans-serif" font-size="14" font-style="italic" lengthAdjust="spacing" textLength="97" x="1899.5" y="1390.2285">&#171;Value Object&#187;</text><text fill="#000000" font-family="sans-serif" font-size="14" lengthAdjust="spacing" textLength="86" x="1905" y="1408.8496">EmailAddress</text></g><!--class Candidate--><g id="elem_Candidate"><rect codeLine="36" fill="#F0FFFF" height="68.543" id="Candidate" rx="2.5" ry="2.5" style="stroke:#000000;stroke-width:0.5;" width="97" x="1899.5" y="1555.1211"/><ellipse cx="1914.5" cy="1585.3926" fill="#ADD1B2" rx="11" ry="11" style="stroke:#181818;stroke-width:1.0;"/><path d="M1913.3594,1586.1895 L1913.3594,1588.6895 L1917.6875,1588.6895 L1917.6875,1587.7676 Q1917.6875,1587.1582 1917.9219,1586.8926 Q1918.1719,1586.627 1918.5469,1586.627 Q1918.9219,1586.627 1919.1563,1586.8926 Q1919.3906,1587.1582 1919.3906,1587.7676 L1919.3906,1590.3926 L1911.3906,1590.3926 Q1910.7656,1590.3926 1910.5,1590.1582 Q1910.25,1589.9238 1910.25,1589.5332 Q1910.25,1589.1582 1910.5156,1588.9238 Q1910.7813,1588.6895 1911.3906,1588.6895 L1911.6563,1588.6895 L1911.6563,1582.0332 L1911.3906,1582.0332 Q1910.7656,1582.0332 1910.5,1581.7988 Q1910.25,1581.5645 1910.25,1581.1738 Q1910.25,1580.7988 1910.5,1580.5645 Q1910.7656,1580.3301 1911.3906,1580.3301 L1919.0156,1580.3301 L1919.0156,1582.9238 Q1919.0156,1583.5332 1918.7813,1583.7988 Q1918.5625,1584.0488 1918.1719,1584.0488 Q1917.7969,1584.0488 1917.5625,1583.7988 Q1917.3281,1583.5332 1917.3281,1582.9238 L1917.3281,1582.0332 L1913.3594,1582.0332 L1913.3594,1584.4863 L1914.8438,1584.4863 Q1914.8438,1583.8301 1914.9688,1583.6426 Q1915.2344,1583.2363 1915.7031,1583.2363 Q1916.0781,1583.2363 1916.3125,1583.502 Q1916.5469,1583.752 1916.5469,1584.3613 L1916.5469,1586.3301 Q1916.5469,1586.877 1916.4219,1587.0645 Q1916.1563,1587.4551 1915.7031,1587.4551 Q1915.2344,1587.4551 1914.9688,1587.0488 Q1914.8438,1586.8613 1914.8438,1586.1895 L1913.3594,1586.1895 Z " fill="#000000"/><text fill="#000000" font-family="sans-serif" font-size="12" font-style="italic" lengthAdjust="spacing" textLength="43" x="1939.5" y="1573.0703">&#171;entity&#187;</text><text fill="#000000" font-family="sans-serif" font-size="12" font-style="italic" lengthAdjust="spacing" textLength="35" x="1943.5" y="1589.0313">&#171;root&#187;</text><text fill="#000000" font-family="sans-serif" font-size="14" lengthAdjust="spacing" textLength="65" x="1928.5" y="1607.1504">Candidate</text><line style="stroke:#000000;stroke-width:0.5;" x1="1900.5" x2="1995.5" y1="1615.6641" y2="1615.6641"/></g><!--entity Curriculum--><g id="elem_Curriculum"><rect fill="#F0FFDD" height="43.2422" rx="2.5" ry="2.5" style="stroke:#000000;stroke-width:0.5;" width="117" x="2204" y="1584.1211"/><text fill="#000000" font-family="sans-serif" font-size="14" font-style="italic" lengthAdjust="spacing" textLength="97" x="2214" y="1602.2285">&#171;Value Object&#187;</text><text fill="#000000" font-family="sans-serif" font-size="14" lengthAdjust="spacing" textLength="68" x="2228.5" y="1620.8496">Curriculum</text></g><!--entity TelephoneNumber--><g id="elem_TelephoneNumber"><rect fill="#F0FFDD" height="43.2422" rx="2.5" ry="2.5" style="stroke:#000000;stroke-width:0.5;" width="137" x="2194" y="1506.1211"/><text fill="#000000" font-family="sans-serif" font-size="14" font-style="italic" lengthAdjust="spacing" textLength="97" x="2214" y="1524.2285">&#171;Value Object&#187;</text><text fill="#000000" font-family="sans-serif" font-size="14" lengthAdjust="spacing" textLength="117" x="2204" y="1542.8496">TelephoneNumber</text></g><!--class JobRequirementsSpecification--><g id="elem_JobRequirementsSpecification"><rect codeLine="48" fill="#F0FFFF" height="68.543" id="JobRequirementsSpecification" rx="2.5" ry="2.5" style="stroke:#000000;stroke-width:0.5;" width="222" x="566" y="885.1211"/><ellipse cx="581" cy="915.3926" fill="#ADD1B2" rx="11" ry="11" style="stroke:#181818;stroke-width:1.0;"/><path d="M579.8594,916.1895 L579.8594,918.6895 L584.1875,918.6895 L584.1875,917.7676 Q584.1875,917.1582 584.4219,916.8926 Q584.6719,916.627 585.0469,916.627 Q585.4219,916.627 585.6563,916.8926 Q585.8906,917.1582 585.8906,917.7676 L585.8906,920.3926 L577.8906,920.3926 Q577.2656,920.3926 577,920.1582 Q576.75,919.9238 576.75,919.5332 Q576.75,919.1582 577.0156,918.9238 Q577.2813,918.6895 577.8906,918.6895 L578.1563,918.6895 L578.1563,912.0332 L577.8906,912.0332 Q577.2656,912.0332 577,911.7988 Q576.75,911.5645 576.75,911.1738 Q576.75,910.7988 577,910.5645 Q577.2656,910.3301 577.8906,910.3301 L585.5156,910.3301 L585.5156,912.9238 Q585.5156,913.5332 585.2813,913.7988 Q585.0625,914.0488 584.6719,914.0488 Q584.2969,914.0488 584.0625,913.7988 Q583.8281,913.5332 583.8281,912.9238 L583.8281,912.0332 L579.8594,912.0332 L579.8594,914.4863 L581.3438,914.4863 Q581.3438,913.8301 581.4688,913.6426 Q581.7344,913.2363 582.2031,913.2363 Q582.5781,913.2363 582.8125,913.502 Q583.0469,913.752 583.0469,914.3613 L583.0469,916.3301 Q583.0469,916.877 582.9219,917.0645 Q582.6563,917.4551 582.2031,917.4551 Q581.7344,917.4551 581.4688,917.0488 Q581.3438,916.8613 581.3438,916.1895 L579.8594,916.1895 Z " fill="#000000"/><text fill="#000000" font-family="sans-serif" font-size="12" font-style="italic" lengthAdjust="spacing" textLength="43" x="668.5" y="903.0703">&#171;entity&#187;</text><text fill="#000000" font-family="sans-serif" font-size="12" font-style="italic" lengthAdjust="spacing" textLength="35" x="672.5" y="919.0312">&#171;root&#187;</text><text fill="#000000" font-family="sans-serif" font-size="14" lengthAdjust="spacing" textLength="190" x="595" y="937.1504">JobRequirementsSpecification</text><line style="stroke:#000000;stroke-width:0.5;" x1="567" x2="787" y1="945.6641" y2="945.6641"/></g><!--class Requirements--><g id="elem_Requirements"><rect codeLine="50" fill="#F0FFFF" height="52.582" id="Requirements" rx="2.5" ry="2.5" style="stroke:#000000;stroke-width:0.5;" width="120" x="862.5" y="893.1211"/><ellipse cx="877.5" cy="915.4121" fill="#ADD1B2" rx="11" ry="11" style="stroke:#181818;stroke-width:1.0;"/><path d="M876.3594,916.209 L876.3594,918.709 L880.6875,918.709 L880.6875,917.7871 Q880.6875,917.1777 880.9219,916.9121 Q881.1719,916.6465 881.5469,916.6465 Q881.9219,916.6465 882.1563,916.9121 Q882.3906,917.1777 882.3906,917.7871 L882.3906,920.4121 L874.3906,920.4121 Q873.7656,920.4121 873.5,920.1777 Q873.25,919.9434 873.25,919.5527 Q873.25,919.1777 873.5156,918.9434 Q873.7813,918.709 874.3906,918.709 L874.6563,918.709 L874.6563,912.0527 L874.3906,912.0527 Q873.7656,912.0527 873.5,911.8184 Q873.25,911.584 873.25,911.1934 Q873.25,910.8184 873.5,910.584 Q873.7656,910.3496 874.3906,910.3496 L882.0156,910.3496 L882.0156,912.9434 Q882.0156,913.5527 881.7813,913.8184 Q881.5625,914.0684 881.1719,914.0684 Q880.7969,914.0684 880.5625,913.8184 Q880.3281,913.5527 880.3281,912.9434 L880.3281,912.0527 L876.3594,912.0527 L876.3594,914.5059 L877.8438,914.5059 Q877.8438,913.8496 877.9688,913.6621 Q878.2344,913.2559 878.7031,913.2559 Q879.0781,913.2559 879.3125,913.5215 Q879.5469,913.7715 879.5469,914.3809 L879.5469,916.3496 Q879.5469,916.8965 879.4219,917.084 Q879.1563,917.4746 878.7031,917.4746 Q878.2344,917.4746 877.9688,917.0684 Q877.8438,916.8809 877.8438,916.209 L876.3594,916.209 Z " fill="#000000"/><text fill="#000000" font-family="sans-serif" font-size="12" font-style="italic" lengthAdjust="spacing" textLength="43" x="914" y="911.0703">&#171;entity&#187;</text><text fill="#000000" font-family="sans-serif" font-size="14" lengthAdjust="spacing" textLength="88" x="891.5" y="929.1895">Requirements</text><line style="stroke:#000000;stroke-width:0.5;" x1="863.5" x2="981.5" y1="937.7031" y2="937.7031"/></g><!--class JobOpening--><g id="elem_JobOpening"><rect codeLine="57" fill="#F0FFFF" height="68.543" id="JobOpening" rx="2.5" ry="2.5" style="stroke:#000000;stroke-width:0.5;" width="108" x="1052.5" y="851.1211"/><ellipse cx="1067.5" cy="881.3926" fill="#ADD1B2" rx="11" ry="11" style="stroke:#181818;stroke-width:1.0;"/><path d="M1066.3594,882.1895 L1066.3594,884.6895 L1070.6875,884.6895 L1070.6875,883.7676 Q1070.6875,883.1582 1070.9219,882.8926 Q1071.1719,882.627 1071.5469,882.627 Q1071.9219,882.627 1072.1563,882.8926 Q1072.3906,883.1582 1072.3906,883.7676 L1072.3906,886.3926 L1064.3906,886.3926 Q1063.7656,886.3926 1063.5,886.1582 Q1063.25,885.9238 1063.25,885.5332 Q1063.25,885.1582 1063.5156,884.9238 Q1063.7813,884.6895 1064.3906,884.6895 L1064.6563,884.6895 L1064.6563,878.0332 L1064.3906,878.0332 Q1063.7656,878.0332 1063.5,877.7988 Q1063.25,877.5645 1063.25,877.1738 Q1063.25,876.7988 1063.5,876.5645 Q1063.7656,876.3301 1064.3906,876.3301 L1072.0156,876.3301 L1072.0156,878.9238 Q1072.0156,879.5332 1071.7813,879.7988 Q1071.5625,880.0488 1071.1719,880.0488 Q1070.7969,880.0488 1070.5625,879.7988 Q1070.3281,879.5332 1070.3281,878.9238 L1070.3281,878.0332 L1066.3594,878.0332 L1066.3594,880.4863 L1067.8438,880.4863 Q1067.8438,879.8301 1067.9688,879.6426 Q1068.2344,879.2363 1068.7031,879.2363 Q1069.0781,879.2363 1069.3125,879.502 Q1069.5469,879.752 1069.5469,880.3613 L1069.5469,882.3301 Q1069.5469,882.877 1069.4219,883.0645 Q1069.1563,883.4551 1068.7031,883.4551 Q1068.2344,883.4551 1067.9688,883.0488 Q1067.8438,882.8613 1067.8438,882.1895 L1066.3594,882.1895 Z " fill="#000000"/><text fill="#000000" font-family="sans-serif" font-size="12" font-style="italic" lengthAdjust="spacing" textLength="43" x="1098" y="869.0703">&#171;entity&#187;</text><text fill="#000000" font-family="sans-serif" font-size="12" font-style="italic" lengthAdjust="spacing" textLength="35" x="1102" y="885.0312">&#171;root&#187;</text><text fill="#000000" font-family="sans-serif" font-size="14" lengthAdjust="spacing" textLength="76" x="1081.5" y="903.1504">JobOpening</text><line style="stroke:#000000;stroke-width:0.5;" x1="1053.5" x2="1159.5" y1="911.6641" y2="911.6641"/></g><g id="elem_GMN32"><path d="M1445,984.6211 L1445,1002.9511 L1375.6,1000.2211 L1445,1010.9511 L1445,1046.4941 A0,0 0 0 0 1445,1046.4941 L1625,1046.4941 A0,0 0 0 0 1625,1046.4941 L1625,994.6211 L1615,984.6211 L1445,984.6211 A0,0 0 0 0 1445,984.6211 " fill="#FEFFDD" style="stroke:#181818;stroke-width:0.5;"/><path d="M1615,984.6211 L1615,994.6211 L1625,994.6211 L1615,984.6211 " fill="#FEFFDD" style="stroke:#181818;stroke-width:0.5;"/><text fill="#000000" font-family="sans-serif" font-size="13" lengthAdjust="spacing" textLength="159" x="1451" y="1003.6494">Can be one of the following:</text><text fill="#000000" font-family="sans-serif" font-size="13" lengthAdjust="spacing" textLength="53" x="1451" y="1020.9404">- full-time</text><text fill="#000000" font-family="sans-serif" font-size="13" lengthAdjust="spacing" textLength="59" x="1451" y="1038.2314">- part-time</text></g><g id="elem_GMN35"><path d="M1445,870.1211 L1445,908.5111 L1375.6,914.7611 L1445,916.5111 L1445,949.2852 A0,0 0 0 0 1445,949.2852 L1625,949.2852 A0,0 0 0 0 1625,949.2852 L1625,880.1211 L1615,870.1211 L1445,870.1211 A0,0 0 0 0 1445,870.1211 " fill="#FEFFDD" style="stroke:#181818;stroke-width:0.5;"/><path d="M1615,870.1211 L1615,880.1211 L1625,880.1211 L1615,870.1211 " fill="#FEFFDD" style="stroke:#181818;stroke-width:0.5;"/><text fill="#000000" font-family="sans-serif" font-size="13" lengthAdjust="spacing" textLength="159" x="1451" y="889.1494">Can be one of the following:</text><text fill="#000000" font-family="sans-serif" font-size="13" lengthAdjust="spacing" textLength="48" x="1451" y="906.4404">- remote</text><text fill="#000000" font-family="sans-serif" font-size="13" lengthAdjust="spacing" textLength="43" x="1451" y="923.7314">- hybrid</text><text fill="#000000" font-family="sans-serif" font-size="13" lengthAdjust="spacing" textLength="43" x="1451" y="941.0225">- onsite</text></g><!--entity JobReference--><g id="elem_JobReference"><rect fill="#F0FFDD" height="43.2422" rx="2.5" ry="2.5" style="stroke:#000000;stroke-width:0.5;" width="117" x="1258.5" y="583.1211"/><text fill="#000000" font-family="sans-serif" font-size="14" font-style="italic" lengthAdjust="spacing" textLength="97" x="1268.5" y="601.2285">&#171;Value Object&#187;</text><text fill="#000000" font-family="sans-serif" font-size="14" lengthAdjust="spacing" textLength="88" x="1273" y="619.8496">JobReference</text></g><!--entity TitleOrFunction--><g id="elem_TitleOrFunction"><rect fill="#F0FFDD" height="43.2422" rx="2.5" ry="2.5" style="stroke:#000000;stroke-width:0.5;" width="118" x="1258" y="1051.1211"/><text fill="#000000" font-family="sans-serif" font-size="14" font-style="italic" lengthAdjust="spacing" textLength="97" x="1268.5" y="1069.2285">&#171;Value Object&#187;</text><text fill="#000000" font-family="sans-serif" font-size="14" lengthAdjust="spacing" textLength="98" x="1268" y="1087.8496">TitleOrFunction</text></g><!--entity ContractType--><g id="elem_ContractType"><rect fill="#F0FFDD" height="43.2422" rx="2.5" ry="2.5" style="stroke:#000000;stroke-width:0.5;" width="117" x="1258.5" y="973.1211"/><text fill="#000000" font-family="sans-serif" font-size="14" font-style="italic" lengthAdjust="spacing" textLength="97" x="1268.5" y="991.2285">&#171;Value Object&#187;</text><text fill="#000000" font-family="sans-serif" font-size="14" lengthAdjust="spacing" textLength="86" x="1274" y="1009.8496">ContractType</text></g><!--entity Mode--><g id="elem_Mode"><rect fill="#F0FFDD" height="43.2422" rx="2.5" ry="2.5" style="stroke:#000000;stroke-width:0.5;" width="117" x="1258.5" y="895.1211"/><text fill="#000000" font-family="sans-serif" font-size="14" font-style="italic" lengthAdjust="spacing" textLength="97" x="1268.5" y="913.2285">&#171;Value Object&#187;</text><text fill="#000000" font-family="sans-serif" font-size="14" lengthAdjust="spacing" textLength="35" x="1299.5" y="931.8496">Mode</text></g><!--entity Address--><g id="elem_Address"><rect fill="#F0FFDD" height="43.2422" rx="2.5" ry="2.5" style="stroke:#000000;stroke-width:0.5;" width="117" x="1258.5" y="817.1211"/><text fill="#000000" font-family="sans-serif" font-size="14" font-style="italic" lengthAdjust="spacing" textLength="97" x="1268.5" y="835.2285">&#171;Value Object&#187;</text><text fill="#000000" font-family="sans-serif" font-size="14" lengthAdjust="spacing" textLength="52" x="1291" y="853.8496">Address</text></g><!--entity VacanciesNumber--><g id="elem_VacanciesNumber"><rect fill="#F0FFDD" height="43.2422" rx="2.5" ry="2.5" style="stroke:#000000;stroke-width:0.5;" width="134" x="1250" y="739.1211"/><text fill="#000000" font-family="sans-serif" font-size="14" font-style="italic" lengthAdjust="spacing" textLength="97" x="1268.5" y="757.2285">&#171;Value Object&#187;</text><text fill="#000000" font-family="sans-serif" font-size="14" lengthAdjust="spacing" textLength="114" x="1260" y="775.8496">VacanciesNumber</text></g><!--entity Description--><g id="elem_Description"><rect fill="#F0FFDD" height="43.2422" rx="2.5" ry="2.5" style="stroke:#000000;stroke-width:0.5;" width="117" x="1258.5" y="661.1211"/><text fill="#000000" font-family="sans-serif" font-size="14" font-style="italic" lengthAdjust="spacing" textLength="97" x="1268.5" y="679.2285">&#171;Value Object&#187;</text><text fill="#000000" font-family="sans-serif" font-size="14" lengthAdjust="spacing" textLength="71" x="1281.5" y="697.8496">Description</text></g><!--class User--><g id="elem_User"><rect codeLine="98" fill="#F0FFFF" height="68.543" id="User" rx="2.5" ry="2.5" style="stroke:#000000;stroke-width:0.5;" width="71" x="2227" y="1958.1211"/><ellipse cx="2242" cy="1988.3926" fill="#ADD1B2" rx="11" ry="11" style="stroke:#181818;stroke-width:1.0;"/><path d="M2240.8594,1989.1895 L2240.8594,1991.6895 L2245.1875,1991.6895 L2245.1875,1990.7676 Q2245.1875,1990.1582 2245.4219,1989.8926 Q2245.6719,1989.627 2246.0469,1989.627 Q2246.4219,1989.627 2246.6563,1989.8926 Q2246.8906,1990.1582 2246.8906,1990.7676 L2246.8906,1993.3926 L2238.8906,1993.3926 Q2238.2656,1993.3926 2238,1993.1582 Q2237.75,1992.9238 2237.75,1992.5332 Q2237.75,1992.1582 2238.0156,1991.9238 Q2238.2813,1991.6895 2238.8906,1991.6895 L2239.1563,1991.6895 L2239.1563,1985.0332 L2238.8906,1985.0332 Q2238.2656,1985.0332 2238,1984.7988 Q2237.75,1984.5645 2237.75,1984.1738 Q2237.75,1983.7988 2238,1983.5645 Q2238.2656,1983.3301 2238.8906,1983.3301 L2246.5156,1983.3301 L2246.5156,1985.9238 Q2246.5156,1986.5332 2246.2813,1986.7988 Q2246.0625,1987.0488 2245.6719,1987.0488 Q2245.2969,1987.0488 2245.0625,1986.7988 Q2244.8281,1986.5332 2244.8281,1985.9238 L2244.8281,1985.0332 L2240.8594,1985.0332 L2240.8594,1987.4863 L2242.3438,1987.4863 Q2242.3438,1986.8301 2242.4688,1986.6426 Q2242.7344,1986.2363 2243.2031,1986.2363 Q2243.5781,1986.2363 2243.8125,1986.502 Q2244.0469,1986.752 2244.0469,1987.3613 L2244.0469,1989.3301 Q2244.0469,1989.877 2243.9219,1990.0645 Q2243.6563,1990.4551 2243.2031,1990.4551 Q2242.7344,1990.4551 2242.4688,1990.0488 Q2242.3438,1989.8613 2242.3438,1989.1895 L2240.8594,1989.1895 Z " fill="#000000"/><text fill="#000000" font-family="sans-serif" font-size="12" font-style="italic" lengthAdjust="spacing" textLength="43" x="2254" y="1976.0703">&#171;entity&#187;</text><text fill="#000000" font-family="sans-serif" font-size="12" font-style="italic" lengthAdjust="spacing" textLength="35" x="2258" y="1992.0313">&#171;root&#187;</text><text fill="#000000" font-family="sans-serif" font-size="14" lengthAdjust="spacing" textLength="29" x="2261" y="2010.1504">User</text><line style="stroke:#000000;stroke-width:0.5;" x1="2228" x2="2297" y1="2018.6641" y2="2018.6641"/></g><!--entity UserEmail--><g id="elem_UserEmail"><rect fill="#F0FFDD" height="43.2422" rx="2.5" ry="2.5" style="stroke:#000000;stroke-width:0.5;" width="117" x="2394" y="2070.1211"/><text fill="#000000" font-family="sans-serif" font-size="14" font-style="italic" lengthAdjust="spacing" textLength="97" x="2404" y="2088.2285">&#171;Value Object&#187;</text><text fill="#000000" font-family="sans-serif" font-size="14" lengthAdjust="spacing" textLength="63" x="2421" y="2106.8496">UserEmail</text></g><!--entity UserName--><g id="elem_UserName"><rect fill="#F0FFDD" height="43.2422" rx="2.5" ry="2.5" style="stroke:#000000;stroke-width:0.5;" width="117" x="2394" y="1992.1211"/><text fill="#000000" font-family="sans-serif" font-size="14" font-style="italic" lengthAdjust="spacing" textLength="97" x="2404" y="2010.2285">&#171;Value Object&#187;</text><text fill="#000000" font-family="sans-serif" font-size="14" lengthAdjust="spacing" textLength="65" x="2420" y="2028.8496">UserName</text></g><!--entity UserPassword--><g id="elem_UserPassword"><rect fill="#F0FFDD" height="43.2422" rx="2.5" ry="2.5" style="stroke:#000000;stroke-width:0.5;" width="117" x="2394" y="1914.1211"/><text fill="#000000" font-family="sans-serif" font-size="14" font-style="italic" lengthAdjust="spacing" textLength="97" x="2404" y="1932.2285">&#171;Value Object&#187;</text><text fill="#000000" font-family="sans-serif" font-size="14" lengthAdjust="spacing" textLength="90" x="2407.5" y="1950.8496">UserPassword</text></g><!--entity Username--><g id="elem_Username"><rect fill="#F0FFDD" height="43.2422" rx="2.5" ry="2.5" style="stroke:#000000;stroke-width:0.5;" width="117" x="2394" y="1836.1211"/><text fill="#000000" font-family="sans-serif" font-size="14" font-style="italic" lengthAdjust="spacing" textLength="97" x="2404" y="1854.2285">&#171;Value Object&#187;</text><text fill="#000000" font-family="sans-serif" font-size="14" lengthAdjust="spacing" textLength="64" x="2420.5" y="1872.8496">Username</text></g><!--class JobInterview--><g id="elem_JobInterview"><rect codeLine="117" fill="#F0FFFF" height="68.543" id="JobInterview" rx="2.5" ry="2.5" style="stroke:#000000;stroke-width:0.5;" width="109" x="1893.5" y="752.1211"/><ellipse cx="1908.5" cy="782.3926" fill="#ADD1B2" rx="11" ry="11" style="stroke:#181818;stroke-width:1.0;"/><path d="M1907.3594,783.1895 L1907.3594,785.6895 L1911.6875,785.6895 L1911.6875,784.7676 Q1911.6875,784.1582 1911.9219,783.8926 Q1912.1719,783.627 1912.5469,783.627 Q1912.9219,783.627 1913.1563,783.8926 Q1913.3906,784.1582 1913.3906,784.7676 L1913.3906,787.3926 L1905.3906,787.3926 Q1904.7656,787.3926 1904.5,787.1582 Q1904.25,786.9238 1904.25,786.5332 Q1904.25,786.1582 1904.5156,785.9238 Q1904.7813,785.6895 1905.3906,785.6895 L1905.6563,785.6895 L1905.6563,779.0332 L1905.3906,779.0332 Q1904.7656,779.0332 1904.5,778.7988 Q1904.25,778.5645 1904.25,778.1738 Q1904.25,777.7988 1904.5,777.5645 Q1904.7656,777.3301 1905.3906,777.3301 L1913.0156,777.3301 L1913.0156,779.9238 Q1913.0156,780.5332 1912.7813,780.7988 Q1912.5625,781.0488 1912.1719,781.0488 Q1911.7969,781.0488 1911.5625,780.7988 Q1911.3281,780.5332 1911.3281,779.9238 L1911.3281,779.0332 L1907.3594,779.0332 L1907.3594,781.4863 L1908.8438,781.4863 Q1908.8438,780.8301 1908.9688,780.6426 Q1909.2344,780.2363 1909.7031,780.2363 Q1910.0781,780.2363 1910.3125,780.502 Q1910.5469,780.752 1910.5469,781.3613 L1910.5469,783.3301 Q1910.5469,783.877 1910.4219,784.0645 Q1910.1563,784.4551 1909.7031,784.4551 Q1909.2344,784.4551 1908.9688,784.0488 Q1908.8438,783.8613 1908.8438,783.1895 L1907.3594,783.1895 Z " fill="#000000"/><text fill="#000000" font-family="sans-serif" font-size="12" font-style="italic" lengthAdjust="spacing" textLength="43" x="1939.5" y="770.0703">&#171;entity&#187;</text><text fill="#000000" font-family="sans-serif" font-size="12" font-style="italic" lengthAdjust="spacing" textLength="35" x="1943.5" y="786.0312">&#171;root&#187;</text><text fill="#000000" font-family="sans-serif" font-size="14" lengthAdjust="spacing" textLength="77" x="1922.5" y="804.1504">JobInterview</text><line style="stroke:#000000;stroke-width:0.5;" x1="1894.5" x2="2001.5" y1="812.6641" y2="812.6641"/></g><!--entity InterviewResults--><g id="elem_InterviewResults"><rect fill="#F0FFDD" height="43.2422" rx="2.5" ry="2.5" style="stroke:#000000;stroke-width:0.5;" width="122" x="2201.5" y="874.1211"/><text fill="#000000" font-family="sans-serif" font-size="14" font-style="italic" lengthAdjust="spacing" textLength="97" x="2214" y="892.2285">&#171;Value Object&#187;</text><text fill="#000000" font-family="sans-serif" font-size="14" lengthAdjust="spacing" textLength="102" x="2211.5" y="910.8496">InterviewResults</text></g><!--entity Score--><g id="elem_Score"><rect fill="#F0FFDD" height="43.2422" rx="2.5" ry="2.5" style="stroke:#000000;stroke-width:0.5;" width="117" x="2204" y="796.1211"/><text fill="#000000" font-family="sans-serif" font-size="14" font-style="italic" lengthAdjust="spacing" textLength="97" x="2214" y="814.2285">&#171;Value Object&#187;</text><text fill="#000000" font-family="sans-serif" font-size="14" lengthAdjust="spacing" textLength="37" x="2244" y="832.8496">Score</text></g><!--entity InterviewTime--><g id="elem_InterviewTime"><rect fill="#F0FFDD" height="43.2422" rx="2.5" ry="2.5" style="stroke:#000000;stroke-width:0.5;" width="117" x="2204" y="718.1211"/><text fill="#000000" font-family="sans-serif" font-size="14" font-style="italic" lengthAdjust="spacing" textLength="97" x="2214" y="736.2285">&#171;Value Object&#187;</text><text fill="#000000" font-family="sans-serif" font-size="14" lengthAdjust="spacing" textLength="86" x="2219.5" y="754.8496">InterviewTime</text></g><!--entity InterviewDate--><g id="elem_InterviewDate"><rect fill="#F0FFDD" height="43.2422" rx="2.5" ry="2.5" style="stroke:#000000;stroke-width:0.5;" width="117" x="2204" y="640.1211"/><text fill="#000000" font-family="sans-serif" font-size="14" font-style="italic" lengthAdjust="spacing" textLength="97" x="2214" y="658.2285">&#171;Value Object&#187;</text><text fill="#000000" font-family="sans-serif" font-size="14" lengthAdjust="spacing" textLength="85" x="2220" y="676.8496">InterviewDate</text></g><!--class Process--><g id="elem_Process"><rect codeLine="136" fill="#F0FFFF" height="68.543" id="Process" rx="2.5" ry="2.5" style="stroke:#000000;stroke-width:0.5;" width="83" x="1275.5" y="336.1211"/><ellipse cx="1290.5" cy="366.3926" fill="#ADD1B2" rx="11" ry="11" style="stroke:#181818;stroke-width:1.0;"/><path d="M1289.3594,367.1895 L1289.3594,369.6895 L1293.6875,369.6895 L1293.6875,368.7676 Q1293.6875,368.1582 1293.9219,367.8926 Q1294.1719,367.627 1294.5469,367.627 Q1294.9219,367.627 1295.1563,367.8926 Q1295.3906,368.1582 1295.3906,368.7676 L1295.3906,371.3926 L1287.3906,371.3926 Q1286.7656,371.3926 1286.5,371.1582 Q1286.25,370.9238 1286.25,370.5332 Q1286.25,370.1582 1286.5156,369.9238 Q1286.7813,369.6895 1287.3906,369.6895 L1287.6563,369.6895 L1287.6563,363.0332 L1287.3906,363.0332 Q1286.7656,363.0332 1286.5,362.7988 Q1286.25,362.5645 1286.25,362.1738 Q1286.25,361.7988 1286.5,361.5645 Q1286.7656,361.3301 1287.3906,361.3301 L1295.0156,361.3301 L1295.0156,363.9238 Q1295.0156,364.5332 1294.7813,364.7988 Q1294.5625,365.0488 1294.1719,365.0488 Q1293.7969,365.0488 1293.5625,364.7988 Q1293.3281,364.5332 1293.3281,363.9238 L1293.3281,363.0332 L1289.3594,363.0332 L1289.3594,365.4863 L1290.8438,365.4863 Q1290.8438,364.8301 1290.9688,364.6426 Q1291.2344,364.2363 1291.7031,364.2363 Q1292.0781,364.2363 1292.3125,364.502 Q1292.5469,364.752 1292.5469,365.3613 L1292.5469,367.3301 Q1292.5469,367.877 1292.4219,368.0645 Q1292.1563,368.4551 1291.7031,368.4551 Q1291.2344,368.4551 1290.9688,368.0488 Q1290.8438,367.8613 1290.8438,367.1895 L1289.3594,367.1895 Z " fill="#000000"/><text fill="#000000" font-family="sans-serif" font-size="12" font-style="italic" lengthAdjust="spacing" textLength="43" x="1308.5" y="354.0703">&#171;entity&#187;</text><text fill="#000000" font-family="sans-serif" font-size="12" font-style="italic" lengthAdjust="spacing" textLength="35" x="1312.5" y="370.0312">&#171;root&#187;</text><text fill="#000000" font-family="sans-serif" font-size="14" lengthAdjust="spacing" textLength="51" x="1304.5" y="388.1504">Process</text><line style="stroke:#000000;stroke-width:0.5;" x1="1276.5" x2="1357.5" y1="396.6641" y2="396.6641"/></g><g id="elem_GMN66"><path d="M1858,83.6211 L1858,143.1411 L1593.58,166.4211 L1858,151.1411 L1858,197.3672 A0,0 0 0 0 1858,197.3672 L2038,197.3672 A0,0 0 0 0 2038,197.3672 L2038,93.6211 L2028,83.6211 L1858,83.6211 A0,0 0 0 0 1858,83.6211 " fill="#FEFFDD" style="stroke:#181818;stroke-width:0.5;"/><path d="M2028,83.6211 L2028,93.6211 L2038,93.6211 L2028,83.6211 " fill="#FEFFDD" style="stroke:#181818;stroke-width:0.5;"/><text fill="#000000" font-family="sans-serif" font-size="13" lengthAdjust="spacing" textLength="159" x="1864" y="102.6494">Can be one of the following:</text><text fill="#000000" font-family="sans-serif" font-size="13" lengthAdjust="spacing" textLength="125" x="1864" y="119.9404">- applicationStartDate</text><text fill="#000000" font-family="sans-serif" font-size="13" lengthAdjust="spacing" textLength="121" x="1864" y="137.2314">- ScreeningStartDate</text><text fill="#000000" font-family="sans-serif" font-size="13" lengthAdjust="spacing" textLength="119" x="1864" y="154.5225">- InterviewsStartDate</text><text fill="#000000" font-family="sans-serif" font-size="13" lengthAdjust="spacing" textLength="113" x="1864" y="171.8135">- AnalysisStartDate</text><text fill="#000000" font-family="sans-serif" font-size="13" lengthAdjust="spacing" textLength="100" x="1864" y="189.1045">- ResultStartDate</text></g><g id="elem_GMN69"><path d="M1858,232.6211 L1858,286.9311 L1593.58,294.7811 L1858,294.9311 L1858,346.3672 A0,0 0 0 0 1858,346.3672 L2038,346.3672 A0,0 0 0 0 2038,346.3672 L2038,242.6211 L2028,232.6211 L1858,232.6211 A0,0 0 0 0 1858,232.6211 " fill="#FEFFDD" style="stroke:#181818;stroke-width:0.5;"/><path d="M2028,232.6211 L2028,242.6211 L2038,242.6211 L2028,232.6211 " fill="#FEFFDD" style="stroke:#181818;stroke-width:0.5;"/><text fill="#000000" font-family="sans-serif" font-size="13" lengthAdjust="spacing" textLength="159" x="1864" y="251.6494">Can be one of the following:</text><text fill="#000000" font-family="sans-serif" font-size="13" lengthAdjust="spacing" textLength="72" x="1864" y="268.9404">- Application</text><text fill="#000000" font-family="sans-serif" font-size="13" lengthAdjust="spacing" textLength="66" x="1864" y="286.2314">- Screening</text><text fill="#000000" font-family="sans-serif" font-size="13" lengthAdjust="spacing" textLength="64" x="1864" y="303.5225">- Interviews</text><text fill="#000000" font-family="sans-serif" font-size="13" lengthAdjust="spacing" textLength="58" x="1864" y="320.8135">- Analysis</text><text fill="#000000" font-family="sans-serif" font-size="13" lengthAdjust="spacing" textLength="45" x="1864" y="338.1045">- Result</text></g><g id="elem_GMN72"><path d="M1858,381.6211 L1858,404.9311 L1593.58,398.0011 L1858,412.9311 L1858,443.4941 A0,0 0 0 0 1858,443.4941 L2038,443.4941 A0,0 0 0 0 2038,443.4941 L2038,391.6211 L2028,381.6211 L1858,381.6211 A0,0 0 0 0 1858,381.6211 " fill="#FEFFDD" style="stroke:#181818;stroke-width:0.5;"/><path d="M2028,381.6211 L2028,391.6211 L2038,391.6211 L2028,381.6211 " fill="#FEFFDD" style="stroke:#181818;stroke-width:0.5;"/><text fill="#000000" font-family="sans-serif" font-size="13" lengthAdjust="spacing" textLength="159" x="1864" y="400.6494">Can be one of the following:</text><text fill="#000000" font-family="sans-serif" font-size="13" lengthAdjust="spacing" textLength="39" x="1864" y="417.9404">- Open</text><text fill="#000000" font-family="sans-serif" font-size="13" lengthAdjust="spacing" textLength="41" x="1864" y="435.2314">- Close</text></g><!--entity ProcessState--><g id="elem_ProcessState"><rect fill="#F0FFDD" height="43.2422" rx="2.5" ry="2.5" style="stroke:#000000;stroke-width:0.5;" width="117" x="1476.5" y="274.1211"/><text fill="#000000" font-family="sans-serif" font-size="14" font-style="italic" lengthAdjust="spacing" textLength="97" x="1486.5" y="292.2285">&#171;Value Object&#187;</text><text fill="#000000" font-family="sans-serif" font-size="14" lengthAdjust="spacing" textLength="84" x="1493" y="310.8496">ProcessState</text></g><!--entity ProcessDate--><g id="elem_ProcessDate"><rect fill="#F0FFDD" height="43.2422" rx="2.5" ry="2.5" style="stroke:#000000;stroke-width:0.5;" width="117" x="1476.5" y="149.1211"/><text fill="#000000" font-family="sans-serif" font-size="14" font-style="italic" lengthAdjust="spacing" textLength="97" x="1486.5" y="167.2285">&#171;Value Object&#187;</text><text fill="#000000" font-family="sans-serif" font-size="14" lengthAdjust="spacing" textLength="81" x="1494.5" y="185.8496">ProcessDate</text></g><!--entity ProcessStatus--><g id="elem_ProcessStatus"><rect fill="#F0FFDD" height="43.2422" rx="2.5" ry="2.5" style="stroke:#000000;stroke-width:0.5;" width="117" x="1476.5" y="374.1211"/><text fill="#000000" font-family="sans-serif" font-size="14" font-style="italic" lengthAdjust="spacing" textLength="97" x="1486.5" y="392.2285">&#171;Value Object&#187;</text><text fill="#000000" font-family="sans-serif" font-size="14" lengthAdjust="spacing" textLength="91" x="1489.5" y="410.8496">ProcessStatus</text></g><!--class Application--><g id="elem_Application"><rect codeLine="176" fill="#F0FFFF" height="68.543" id="Application" rx="2.5" ry="2.5" style="stroke:#000000;stroke-width:0.5;" width="101" x="1266.5" y="1778.1211"/><ellipse cx="1281.5" cy="1808.3926" fill="#ADD1B2" rx="11" ry="11" style="stroke:#181818;stroke-width:1.0;"/><path d="M1280.3594,1809.1895 L1280.3594,1811.6895 L1284.6875,1811.6895 L1284.6875,1810.7676 Q1284.6875,1810.1582 1284.9219,1809.8926 Q1285.1719,1809.627 1285.5469,1809.627 Q1285.9219,1809.627 1286.1563,1809.8926 Q1286.3906,1810.1582 1286.3906,1810.7676 L1286.3906,1813.3926 L1278.3906,1813.3926 Q1277.7656,1813.3926 1277.5,1813.1582 Q1277.25,1812.9238 1277.25,1812.5332 Q1277.25,1812.1582 1277.5156,1811.9238 Q1277.7813,1811.6895 1278.3906,1811.6895 L1278.6563,1811.6895 L1278.6563,1805.0332 L1278.3906,1805.0332 Q1277.7656,1805.0332 1277.5,1804.7988 Q1277.25,1804.5645 1277.25,1804.1738 Q1277.25,1803.7988 1277.5,1803.5645 Q1277.7656,1803.3301 1278.3906,1803.3301 L1286.0156,1803.3301 L1286.0156,1805.9238 Q1286.0156,1806.5332 1285.7813,1806.7988 Q1285.5625,1807.0488 1285.1719,1807.0488 Q1284.7969,1807.0488 1284.5625,1806.7988 Q1284.3281,1806.5332 1284.3281,1805.9238 L1284.3281,1805.0332 L1280.3594,1805.0332 L1280.3594,1807.4863 L1281.8438,1807.4863 Q1281.8438,1806.8301 1281.9688,1806.6426 Q1282.2344,1806.2363 1282.7031,1806.2363 Q1283.0781,1806.2363 1283.3125,1806.502 Q1283.5469,1806.752 1283.5469,1807.3613 L1283.5469,1809.3301 Q1283.5469,1809.877 1283.4219,1810.0645 Q1283.1563,1810.4551 1282.7031,1810.4551 Q1282.2344,1810.4551 1281.9688,1810.0488 Q1281.8438,1809.8613 1281.8438,1809.1895 L1280.3594,1809.1895 Z " fill="#000000"/><text fill="#000000" font-family="sans-serif" font-size="12" font-style="italic" lengthAdjust="spacing" textLength="43" x="1308.5" y="1796.0703">&#171;entity&#187;</text><text fill="#000000" font-family="sans-serif" font-size="12" font-style="italic" lengthAdjust="spacing" textLength="35" x="1312.5" y="1812.0313">&#171;root&#187;</text><text fill="#000000" font-family="sans-serif" font-size="14" lengthAdjust="spacing" textLength="69" x="1295.5" y="1830.1504">Application</text><line style="stroke:#000000;stroke-width:0.5;" x1="1267.5" x2="1366.5" y1="1838.6641" y2="1838.6641"/></g><g id="elem_GMN85"><path d="M1858,1748.6211 L1858,1786.9811 L1593.58,1774.2611 L1858,1794.9811 L1858,1845.0762 A0,0 0 0 0 1858,1845.0762 L2038,1845.0762 A0,0 0 0 0 2038,1845.0762 L2038,1758.6211 L2028,1748.6211 L1858,1748.6211 A0,0 0 0 0 1858,1748.6211 " fill="#FEFFDD" style="stroke:#181818;stroke-width:0.5;"/><path d="M2028,1748.6211 L2028,1758.6211 L2038,1758.6211 L2028,1748.6211 " fill="#FEFFDD" style="stroke:#181818;stroke-width:0.5;"/><text fill="#000000" font-family="sans-serif" font-size="13" lengthAdjust="spacing" textLength="159" x="1864" y="1767.6494">Can be one of the following:</text><text fill="#000000" font-family="sans-serif" font-size="13" lengthAdjust="spacing" textLength="65" x="1864" y="1784.9404">- submitted</text><text fill="#000000" font-family="sans-serif" font-size="13" lengthAdjust="spacing" textLength="53" x="1864" y="1802.2314">- pending</text><text fill="#000000" font-family="sans-serif" font-size="13" lengthAdjust="spacing" textLength="61" x="1864" y="1819.5225">- accepted</text><text fill="#000000" font-family="sans-serif" font-size="13" lengthAdjust="spacing" textLength="56" x="1864" y="1836.8135">- declined</text></g><g id="elem_GMN88"><path d="M1765,1879.6211 L1765,1888.6211 L1594.89,1859.9411 L1765,1896.6211 L1765,1976.0762 A0,0 0 0 0 1765,1976.0762 L2131,1976.0762 A0,0 0 0 0 2131,1976.0762 L2131,1889.6211 L2121,1879.6211 L1765,1879.6211 A0,0 0 0 0 1765,1879.6211 " fill="#FEFFDD" style="stroke:#181818;stroke-width:0.5;"/><path d="M2121,1879.6211 L2121,1889.6211 L2131,1889.6211 L2121,1879.6211 " fill="#FEFFDD" style="stroke:#181818;stroke-width:0.5;"/><text fill="#000000" font-family="sans-serif" font-size="13" lengthAdjust="spacing" textLength="159" x="1771" y="1898.6494">Can be one of the following:</text><text fill="#000000" font-family="sans-serif" font-size="13" lengthAdjust="spacing" textLength="224" x="1771" y="1915.9404">- text file with the contents of the email</text><text fill="#000000" font-family="sans-serif" font-size="13" lengthAdjust="spacing" textLength="220" x="1771" y="1933.2314">- file for each file attached to the email</text><text fill="#000000" font-family="sans-serif" font-size="13" lengthAdjust="spacing" textLength="345" x="1771" y="1950.5225">- text file with the contents of each file attached to the email</text><text fill="#000000" font-family="sans-serif" font-size="13" lengthAdjust="spacing" textLength="315" x="1771" y="1967.8135">- text file with the data of the application and candidate</text></g><!--entity ApplicationFiles--><g id="elem_ApplicationFiles"><rect fill="#F0FFDD" height="43.2422" rx="2.5" ry="2.5" style="stroke:#000000;stroke-width:0.5;" width="119" x="1475.5" y="1827.1211"/><text fill="#000000" font-family="sans-serif" font-size="14" font-style="italic" lengthAdjust="spacing" textLength="97" x="1486.5" y="1845.2285">&#171;Value Object&#187;</text><text fill="#000000" font-family="sans-serif" font-size="14" lengthAdjust="spacing" textLength="99" x="1485.5" y="1863.8496">ApplicationFiles</text></g><!--entity Status--><g id="elem_Status"><rect fill="#F0FFDD" height="43.2422" rx="2.5" ry="2.5" style="stroke:#000000;stroke-width:0.5;" width="117" x="1476.5" y="1749.1211"/><text fill="#000000" font-family="sans-serif" font-size="14" font-style="italic" lengthAdjust="spacing" textLength="97" x="1486.5" y="1767.2285">&#171;Value Object&#187;</text><text fill="#000000" font-family="sans-serif" font-size="14" lengthAdjust="spacing" textLength="40" x="1515" y="1785.8496">Status</text></g><!--entity SubmissionDate--><g id="elem_SubmissionDate"><rect fill="#F0FFDD" height="43.2422" rx="2.5" ry="2.5" style="stroke:#000000;stroke-width:0.5;" width="122" x="1474" y="1983.1211"/><text fill="#000000" font-family="sans-serif" font-size="14" font-style="italic" lengthAdjust="spacing" textLength="97" x="1486.5" y="2001.2285">&#171;Value Object&#187;</text><text fill="#000000" font-family="sans-serif" font-size="14" lengthAdjust="spacing" textLength="102" x="1484" y="2019.8496">SubmissionDate</text></g><!--entity Rank--><g id="elem_Rank"><rect fill="#F0FFDD" height="43.2422" rx="2.5" ry="2.5" style="stroke:#000000;stroke-width:0.5;" width="117" x="1476.5" y="1905.1211"/><text fill="#000000" font-family="sans-serif" font-size="14" font-style="italic" lengthAdjust="spacing" textLength="97" x="1486.5" y="1923.2285">&#171;Value Object&#187;</text><text fill="#000000" font-family="sans-serif" font-size="14" lengthAdjust="spacing" textLength="33" x="1518.5" y="1941.8496">Rank</text></g><!--class InterviewModel--><g id="elem_InterviewModel"><rect codeLine="211" fill="#F0FFFF" height="68.543" id="InterviewModel" rx="2.5" ry="2.5" style="stroke:#000000;stroke-width:0.5;" width="125" x="860" y="1172.1211"/><ellipse cx="875" cy="1202.3926" fill="#ADD1B2" rx="11" ry="11" style="stroke:#181818;stroke-width:1.0;"/><path d="M873.8594,1203.1895 L873.8594,1205.6895 L878.1875,1205.6895 L878.1875,1204.7676 Q878.1875,1204.1582 878.4219,1203.8926 Q878.6719,1203.627 879.0469,1203.627 Q879.4219,1203.627 879.6563,1203.8926 Q879.8906,1204.1582 879.8906,1204.7676 L879.8906,1207.3926 L871.8906,1207.3926 Q871.2656,1207.3926 871,1207.1582 Q870.75,1206.9238 870.75,1206.5332 Q870.75,1206.1582 871.0156,1205.9238 Q871.2813,1205.6895 871.8906,1205.6895 L872.1563,1205.6895 L872.1563,1199.0332 L871.8906,1199.0332 Q871.2656,1199.0332 871,1198.7988 Q870.75,1198.5645 870.75,1198.1738 Q870.75,1197.7988 871,1197.5645 Q871.2656,1197.3301 871.8906,1197.3301 L879.5156,1197.3301 L879.5156,1199.9238 Q879.5156,1200.5332 879.2813,1200.7988 Q879.0625,1201.0488 878.6719,1201.0488 Q878.2969,1201.0488 878.0625,1200.7988 Q877.8281,1200.5332 877.8281,1199.9238 L877.8281,1199.0332 L873.8594,1199.0332 L873.8594,1201.4863 L875.3438,1201.4863 Q875.3438,1200.8301 875.4688,1200.6426 Q875.7344,1200.2363 876.2031,1200.2363 Q876.5781,1200.2363 876.8125,1200.502 Q877.0469,1200.752 877.0469,1201.3613 L877.0469,1203.3301 Q877.0469,1203.877 876.9219,1204.0645 Q876.6563,1204.4551 876.2031,1204.4551 Q875.7344,1204.4551 875.4688,1204.0488 Q875.3438,1203.8613 875.3438,1203.1895 L873.8594,1203.1895 Z " fill="#000000"/><text fill="#000000" font-family="sans-serif" font-size="12" font-style="italic" lengthAdjust="spacing" textLength="43" x="914" y="1190.0703">&#171;entity&#187;</text><text fill="#000000" font-family="sans-serif" font-size="12" font-style="italic" lengthAdjust="spacing" textLength="35" x="918" y="1206.0312">&#171;root&#187;</text><text fill="#000000" font-family="sans-serif" font-size="14" lengthAdjust="spacing" textLength="93" x="889" y="1224.1504">InterviewModel</text><line style="stroke:#000000;stroke-width:0.5;" x1="861" x2="984" y1="1232.6641" y2="1232.6641"/></g><!--entity Plugin--><g id="elem_Plugin"><rect fill="#F0FFDD" height="43.2422" rx="2.5" ry="2.5" style="stroke:#000000;stroke-width:0.5;" width="117" x="1048" y="1185.1211"/><text fill="#000000" font-family="sans-serif" font-size="14" font-style="italic" lengthAdjust="spacing" textLength="97" x="1058" y="1203.2285">&#171;Value Object&#187;</text><text fill="#000000" font-family="sans-serif" font-size="14" lengthAdjust="spacing" textLength="39" x="1087" y="1221.8496">Plugin</text></g><!--class LanguageEngineer--><g id="elem_LanguageEngineer"><rect codeLine="221" fill="#F0FFFF" height="68.543" id="LanguageEngineer" rx="2.5" ry="2.5" style="stroke:#000000;stroke-width:0.5;" width="153" x="45" y="1172.1211"/><ellipse cx="60" cy="1202.3926" fill="#ADD1B2" rx="11" ry="11" style="stroke:#181818;stroke-width:1.0;"/><path d="M58.8594,1203.1895 L58.8594,1205.6895 L63.1875,1205.6895 L63.1875,1204.7676 Q63.1875,1204.1582 63.4219,1203.8926 Q63.6719,1203.627 64.0469,1203.627 Q64.4219,1203.627 64.6563,1203.8926 Q64.8906,1204.1582 64.8906,1204.7676 L64.8906,1207.3926 L56.8906,1207.3926 Q56.2656,1207.3926 56,1207.1582 Q55.75,1206.9238 55.75,1206.5332 Q55.75,1206.1582 56.0156,1205.9238 Q56.2813,1205.6895 56.8906,1205.6895 L57.1563,1205.6895 L57.1563,1199.0332 L56.8906,1199.0332 Q56.2656,1199.0332 56,1198.7988 Q55.75,1198.5645 55.75,1198.1738 Q55.75,1197.7988 56,1197.5645 Q56.2656,1197.3301 56.8906,1197.3301 L64.5156,1197.3301 L64.5156,1199.9238 Q64.5156,1200.5332 64.2813,1200.7988 Q64.0625,1201.0488 63.6719,1201.0488 Q63.2969,1201.0488 63.0625,1200.7988 Q62.8281,1200.5332 62.8281,1199.9238 L62.8281,1199.0332 L58.8594,1199.0332 L58.8594,1201.4863 L60.3438,1201.4863 Q60.3438,1200.8301 60.4688,1200.6426 Q60.7344,1200.2363 61.2031,1200.2363 Q61.5781,1200.2363 61.8125,1200.502 Q62.0469,1200.752 62.0469,1201.3613 L62.0469,1203.3301 Q62.0469,1203.877 61.9219,1204.0645 Q61.6563,1204.4551 61.2031,1204.4551 Q60.7344,1204.4551 60.4688,1204.0488 Q60.3438,1203.8613 60.3438,1203.1895 L58.8594,1203.1895 Z " fill="#000000"/><text fill="#000000" font-family="sans-serif" font-size="12" font-style="italic" lengthAdjust="spacing" textLength="43" x="113" y="1190.0703">&#171;entity&#187;</text><text fill="#000000" font-family="sans-serif" font-size="12" font-style="italic" lengthAdjust="spacing" textLength="35" x="117" y="1206.0312">&#171;root&#187;</text><text fill="#000000" font-family="sans-serif" font-size="14" lengthAdjust="spacing" textLength="121" x="74" y="1224.1504">LanguageEngineer</text><line style="stroke:#000000;stroke-width:0.5;" x1="46" x2="197" y1="1232.6641" y2="1232.6641"/></g><!--class Admin--><g id="elem_Admin"><rect codeLine="226" fill="#F0FFFF" height="68.543" id="Admin" rx="2.5" ry="2.5" style="stroke:#000000;stroke-width:0.5;" width="71" x="86" y="1465.1211"/><ellipse cx="101" cy="1495.3926" fill="#ADD1B2" rx="11" ry="11" style="stroke:#181818;stroke-width:1.0;"/><path d="M99.8594,1496.1895 L99.8594,1498.6895 L104.1875,1498.6895 L104.1875,1497.7676 Q104.1875,1497.1582 104.4219,1496.8926 Q104.6719,1496.627 105.0469,1496.627 Q105.4219,1496.627 105.6563,1496.8926 Q105.8906,1497.1582 105.8906,1497.7676 L105.8906,1500.3926 L97.8906,1500.3926 Q97.2656,1500.3926 97,1500.1582 Q96.75,1499.9238 96.75,1499.5332 Q96.75,1499.1582 97.0156,1498.9238 Q97.2813,1498.6895 97.8906,1498.6895 L98.1563,1498.6895 L98.1563,1492.0332 L97.8906,1492.0332 Q97.2656,1492.0332 97,1491.7988 Q96.75,1491.5645 96.75,1491.1738 Q96.75,1490.7988 97,1490.5645 Q97.2656,1490.3301 97.8906,1490.3301 L105.5156,1490.3301 L105.5156,1492.9238 Q105.5156,1493.5332 105.2813,1493.7988 Q105.0625,1494.0488 104.6719,1494.0488 Q104.2969,1494.0488 104.0625,1493.7988 Q103.8281,1493.5332 103.8281,1492.9238 L103.8281,1492.0332 L99.8594,1492.0332 L99.8594,1494.4863 L101.3438,1494.4863 Q101.3438,1493.8301 101.4688,1493.6426 Q101.7344,1493.2363 102.2031,1493.2363 Q102.5781,1493.2363 102.8125,1493.502 Q103.0469,1493.752 103.0469,1494.3613 L103.0469,1496.3301 Q103.0469,1496.877 102.9219,1497.0645 Q102.6563,1497.4551 102.2031,1497.4551 Q101.7344,1497.4551 101.4688,1497.0488 Q101.3438,1496.8613 101.3438,1496.1895 L99.8594,1496.1895 Z " fill="#000000"/><text fill="#000000" font-family="sans-serif" font-size="12" font-style="italic" lengthAdjust="spacing" textLength="43" x="113" y="1483.0703">&#171;entity&#187;</text><text fill="#000000" font-family="sans-serif" font-size="12" font-style="italic" lengthAdjust="spacing" textLength="35" x="117" y="1499.0313">&#171;root&#187;</text><text fill="#000000" font-family="sans-serif" font-size="14" lengthAdjust="spacing" textLength="39" x="115" y="1517.1504">Admin</text><line style="stroke:#000000;stroke-width:0.5;" x1="87" x2="156" y1="1525.6641" y2="1525.6641"/></g><!--class CustomerManager--><g id="elem_CustomerManager"><rect codeLine="231" fill="#F0FFFF" height="68.543" id="CustomerManager" rx="2.5" ry="2.5" style="stroke:#000000;stroke-width:0.5;" width="149" x="602.5" y="1465.1211"/><ellipse cx="617.5" cy="1495.3926" fill="#ADD1B2" rx="11" ry="11" style="stroke:#181818;stroke-width:1.0;"/><path d="M616.3594,1496.1895 L616.3594,1498.6895 L620.6875,1498.6895 L620.6875,1497.7676 Q620.6875,1497.1582 620.9219,1496.8926 Q621.1719,1496.627 621.5469,1496.627 Q621.9219,1496.627 622.1563,1496.8926 Q622.3906,1497.1582 622.3906,1497.7676 L622.3906,1500.3926 L614.3906,1500.3926 Q613.7656,1500.3926 613.5,1500.1582 Q613.25,1499.9238 613.25,1499.5332 Q613.25,1499.1582 613.5156,1498.9238 Q613.7813,1498.6895 614.3906,1498.6895 L614.6563,1498.6895 L614.6563,1492.0332 L614.3906,1492.0332 Q613.7656,1492.0332 613.5,1491.7988 Q613.25,1491.5645 613.25,1491.1738 Q613.25,1490.7988 613.5,1490.5645 Q613.7656,1490.3301 614.3906,1490.3301 L622.0156,1490.3301 L622.0156,1492.9238 Q622.0156,1493.5332 621.7813,1493.7988 Q621.5625,1494.0488 621.1719,1494.0488 Q620.7969,1494.0488 620.5625,1493.7988 Q620.3281,1493.5332 620.3281,1492.9238 L620.3281,1492.0332 L616.3594,1492.0332 L616.3594,1494.4863 L617.8438,1494.4863 Q617.8438,1493.8301 617.9688,1493.6426 Q618.2344,1493.2363 618.7031,1493.2363 Q619.0781,1493.2363 619.3125,1493.502 Q619.5469,1493.752 619.5469,1494.3613 L619.5469,1496.3301 Q619.5469,1496.877 619.4219,1497.0645 Q619.1563,1497.4551 618.7031,1497.4551 Q618.2344,1497.4551 617.9688,1497.0488 Q617.8438,1496.8613 617.8438,1496.1895 L616.3594,1496.1895 Z " fill="#000000"/><text fill="#000000" font-family="sans-serif" font-size="12" font-style="italic" lengthAdjust="spacing" textLength="43" x="668.5" y="1483.0703">&#171;entity&#187;</text><text fill="#000000" font-family="sans-serif" font-size="12" font-style="italic" lengthAdjust="spacing" textLength="35" x="672.5" y="1499.0313">&#171;root&#187;</text><text fill="#000000" font-family="sans-serif" font-size="14" lengthAdjust="spacing" textLength="117" x="631.5" y="1517.1504">CustomerManager</text><line style="stroke:#000000;stroke-width:0.5;" x1="603.5" x2="750.5" y1="1525.6641" y2="1525.6641"/></g><!--class Operator--><g id="elem_Operator"><rect codeLine="236" fill="#F0FFFF" height="68.543" id="Operator" rx="2.5" ry="2.5" style="stroke:#000000;stroke-width:0.5;" width="89" x="878" y="1941.1211"/><ellipse cx="893" cy="1971.3926" fill="#ADD1B2" rx="11" ry="11" style="stroke:#181818;stroke-width:1.0;"/><path d="M891.8594,1972.1895 L891.8594,1974.6895 L896.1875,1974.6895 L896.1875,1973.7676 Q896.1875,1973.1582 896.4219,1972.8926 Q896.6719,1972.627 897.0469,1972.627 Q897.4219,1972.627 897.6563,1972.8926 Q897.8906,1973.1582 897.8906,1973.7676 L897.8906,1976.3926 L889.8906,1976.3926 Q889.2656,1976.3926 889,1976.1582 Q888.75,1975.9238 888.75,1975.5332 Q888.75,1975.1582 889.0156,1974.9238 Q889.2813,1974.6895 889.8906,1974.6895 L890.1563,1974.6895 L890.1563,1968.0332 L889.8906,1968.0332 Q889.2656,1968.0332 889,1967.7988 Q888.75,1967.5645 888.75,1967.1738 Q888.75,1966.7988 889,1966.5645 Q889.2656,1966.3301 889.8906,1966.3301 L897.5156,1966.3301 L897.5156,1968.9238 Q897.5156,1969.5332 897.2813,1969.7988 Q897.0625,1970.0488 896.6719,1970.0488 Q896.2969,1970.0488 896.0625,1969.7988 Q895.8281,1969.5332 895.8281,1968.9238 L895.8281,1968.0332 L891.8594,1968.0332 L891.8594,1970.4863 L893.3438,1970.4863 Q893.3438,1969.8301 893.4688,1969.6426 Q893.7344,1969.2363 894.2031,1969.2363 Q894.5781,1969.2363 894.8125,1969.502 Q895.0469,1969.752 895.0469,1970.3613 L895.0469,1972.3301 Q895.0469,1972.877 894.9219,1973.0645 Q894.6563,1973.4551 894.2031,1973.4551 Q893.7344,1973.4551 893.4688,1973.0488 Q893.3438,1972.8613 893.3438,1972.1895 L891.8594,1972.1895 Z " fill="#000000"/><text fill="#000000" font-family="sans-serif" font-size="12" font-style="italic" lengthAdjust="spacing" textLength="43" x="914" y="1959.0703">&#171;entity&#187;</text><text fill="#000000" font-family="sans-serif" font-size="12" font-style="italic" lengthAdjust="spacing" textLength="35" x="918" y="1975.0313">&#171;root&#187;</text><text fill="#000000" font-family="sans-serif" font-size="14" lengthAdjust="spacing" textLength="57" x="907" y="1993.1504">Operator</text><line style="stroke:#000000;stroke-width:0.5;" x1="879" x2="966" y1="2001.6641" y2="2001.6641"/></g><!--class ANTLR--><g id="elem_ANTLR"><rect codeLine="241" fill="#F0FFFF" height="68.543" id="ANTLR" rx="2.5" ry="2.5" style="stroke:#000000;stroke-width:0.5;" width="77" x="329" y="1008.1211"/><ellipse cx="344" cy="1038.3926" fill="#ADD1B2" rx="11" ry="11" style="stroke:#181818;stroke-width:1.0;"/><path d="M342.8594,1039.1895 L342.8594,1041.6895 L347.1875,1041.6895 L347.1875,1040.7676 Q347.1875,1040.1582 347.4219,1039.8926 Q347.6719,1039.627 348.0469,1039.627 Q348.4219,1039.627 348.6563,1039.8926 Q348.8906,1040.1582 348.8906,1040.7676 L348.8906,1043.3926 L340.8906,1043.3926 Q340.2656,1043.3926 340,1043.1582 Q339.75,1042.9238 339.75,1042.5332 Q339.75,1042.1582 340.0156,1041.9238 Q340.2813,1041.6895 340.8906,1041.6895 L341.1563,1041.6895 L341.1563,1035.0332 L340.8906,1035.0332 Q340.2656,1035.0332 340,1034.7988 Q339.75,1034.5645 339.75,1034.1738 Q339.75,1033.7988 340,1033.5645 Q340.2656,1033.3301 340.8906,1033.3301 L348.5156,1033.3301 L348.5156,1035.9238 Q348.5156,1036.5332 348.2813,1036.7988 Q348.0625,1037.0488 347.6719,1037.0488 Q347.2969,1037.0488 347.0625,1036.7988 Q346.8281,1036.5332 346.8281,1035.9238 L346.8281,1035.0332 L342.8594,1035.0332 L342.8594,1037.4863 L344.3438,1037.4863 Q344.3438,1036.8301 344.4688,1036.6426 Q344.7344,1036.2363 345.2031,1036.2363 Q345.5781,1036.2363 345.8125,1036.502 Q346.0469,1036.752 346.0469,1037.3613 L346.0469,1039.3301 Q346.0469,1039.877 345.9219,1040.0645 Q345.6563,1040.4551 345.2031,1040.4551 Q344.7344,1040.4551 344.4688,1040.0488 Q344.3438,1039.8613 344.3438,1039.1895 L342.8594,1039.1895 Z " fill="#000000"/><text fill="#000000" font-family="sans-serif" font-size="12" font-style="italic" lengthAdjust="spacing" textLength="43" x="359" y="1026.0703">&#171;entity&#187;</text><text fill="#000000" font-family="sans-serif" font-size="12" font-style="italic" lengthAdjust="spacing" textLength="35" x="363" y="1042.0312">&#171;root&#187;</text><text fill="#000000" font-family="sans-serif" font-size="14" lengthAdjust="spacing" textLength="45" x="358" y="1060.1504">ANTLR</text><line style="stroke:#000000;stroke-width:0.5;" x1="330" x2="405" y1="1068.6641" y2="1068.6641"/></g><!--class Company--><g id="elem_Company"><rect codeLine="246" fill="#F0FFFF" height="68.543" id="Company" rx="2.5" ry="2.5" style="stroke:#000000;stroke-width:0.5;" width="92" x="1902" y="1165.1211"/><ellipse cx="1917" cy="1195.3926" fill="#ADD1B2" rx="11" ry="11" style="stroke:#181818;stroke-width:1.0;"/><path d="M1915.8594,1196.1895 L1915.8594,1198.6895 L1920.1875,1198.6895 L1920.1875,1197.7676 Q1920.1875,1197.1582 1920.4219,1196.8926 Q1920.6719,1196.627 1921.0469,1196.627 Q1921.4219,1196.627 1921.6563,1196.8926 Q1921.8906,1197.1582 1921.8906,1197.7676 L1921.8906,1200.3926 L1913.8906,1200.3926 Q1913.2656,1200.3926 1913,1200.1582 Q1912.75,1199.9238 1912.75,1199.5332 Q1912.75,1199.1582 1913.0156,1198.9238 Q1913.2813,1198.6895 1913.8906,1198.6895 L1914.1563,1198.6895 L1914.1563,1192.0332 L1913.8906,1192.0332 Q1913.2656,1192.0332 1913,1191.7988 Q1912.75,1191.5645 1912.75,1191.1738 Q1912.75,1190.7988 1913,1190.5645 Q1913.2656,1190.3301 1913.8906,1190.3301 L1921.5156,1190.3301 L1921.5156,1192.9238 Q1921.5156,1193.5332 1921.2813,1193.7988 Q1921.0625,1194.0488 1920.6719,1194.0488 Q1920.2969,1194.0488 1920.0625,1193.7988 Q1919.8281,1193.5332 1919.8281,1192.9238 L1919.8281,1192.0332 L1915.8594,1192.0332 L1915.8594,1194.4863 L1917.3438,1194.4863 Q1917.3438,1193.8301 1917.4688,1193.6426 Q1917.7344,1193.2363 1918.2031,1193.2363 Q1918.5781,1193.2363 1918.8125,1193.502 Q1919.0469,1193.752 1919.0469,1194.3613 L1919.0469,1196.3301 Q1919.0469,1196.877 1918.9219,1197.0645 Q1918.6563,1197.4551 1918.2031,1197.4551 Q1917.7344,1197.4551 1917.4688,1197.0488 Q1917.3438,1196.8613 1917.3438,1196.1895 L1915.8594,1196.1895 Z " fill="#000000"/><text fill="#000000" font-family="sans-serif" font-size="12" font-style="italic" lengthAdjust="spacing" textLength="43" x="1939.5" y="1183.0703">&#171;entity&#187;</text><text fill="#000000" font-family="sans-serif" font-size="12" font-style="italic" lengthAdjust="spacing" textLength="35" x="1943.5" y="1199.0312">&#171;root&#187;</text><text fill="#000000" font-family="sans-serif" font-size="14" lengthAdjust="spacing" textLength="60" x="1931" y="1217.1504">Company</text><line style="stroke:#000000;stroke-width:0.5;" x1="1903" x2="1993" y1="1225.6641" y2="1225.6641"/></g><!--entity CompanyName--><g id="elem_CompanyName"><rect fill="#F0FFDD" height="43.2422" rx="2.5" ry="2.5" style="stroke:#000000;stroke-width:0.5;" width="117" x="2204" y="1192.1211"/><text fill="#000000" font-family="sans-serif" font-size="14" font-style="italic" lengthAdjust="spacing" textLength="97" x="2214" y="1210.2285">&#171;Value Object&#187;</text><text fill="#000000" font-family="sans-serif" font-size="14" lengthAdjust="spacing" textLength="96" x="2214.5" y="1228.8496">CompanyName</text></g><!--entity CompanyNumber--><g id="elem_CompanyNumber"><rect fill="#F0FFDD" height="43.2422" rx="2.5" ry="2.5" style="stroke:#000000;stroke-width:0.5;" width="129" x="2198" y="1114.1211"/><text fill="#000000" font-family="sans-serif" font-size="14" font-style="italic" lengthAdjust="spacing" textLength="97" x="2214" y="1132.2285">&#171;Value Object&#187;</text><text fill="#000000" font-family="sans-serif" font-size="14" lengthAdjust="spacing" textLength="109" x="2208" y="1150.8496">CompanyNumber</text></g><!--link Customer to EmailAddress--><g id="link_Customer_EmailAddress"><path codeLine="32" d="M1581.55,1393.6211 C1656.8,1393.6211 1800.9,1393.6211 1883.39,1393.6211 " fill="none" id="Customer-to-EmailAddress" style="stroke:#808080;stroke-width:1.0;"/><polygon fill="#808080" points="1889.39,1393.6211,1880.39,1389.6211,1884.39,1393.6211,1880.39,1397.6211,1889.39,1393.6211" style="stroke:#808080;stroke-width:1.0;"/></g><!--link Candidate to Curriculum--><g id="link_Candidate_Curriculum"><path codeLine="43" d="M1996.8,1592.0711 C2052.46,1594.9211 2138.3379,1599.3142 2197.8879,1602.3642 " fill="none" id="Candidate-to-Curriculum" style="stroke:#808080;stroke-width:1.0;"/><polygon fill="#808080" points="2203.88,1602.6711,2195.0964,1598.216,2198.8865,1602.4153,2194.6872,1606.2055,2203.88,1602.6711" style="stroke:#808080;stroke-width:1.0;"/></g><!--link Candidate to TelephoneNumber--><g id="link_Candidate_TelephoneNumber"><path codeLine="44" d="M1996.8,1580.1411 C2049.38,1569.7111 2128.3947,1554.0286 2187.8247,1542.2386 " fill="none" id="Candidate-to-TelephoneNumber" style="stroke:#808080;stroke-width:1.0;"/><polygon fill="#808080" points="2193.71,1541.0711,2184.1037,1538.8989,2188.8056,1542.0441,2185.6604,1546.746,2193.71,1541.0711" style="stroke:#808080;stroke-width:1.0;"/></g><!--link JobRequirementsSpecification to Requirements--><g id="link_JobRequirementsSpecification_Requirements"><path codeLine="52" d="M788.35,919.6211 C813.9,919.6211 834.11,919.6211 856.46,919.6211 " fill="none" id="JobRequirementsSpecification-to-Requirements" style="stroke:#808080;stroke-width:1.0;"/><polygon fill="#808080" points="862.46,919.6211,853.46,915.6211,857.46,919.6211,853.46,923.6211,862.46,919.6211" style="stroke:#808080;stroke-width:1.0;"/></g><!--link JobOpening to JobReference--><g id="link_JobOpening_JobReference"><path codeLine="74" d="M1119.61,850.7411 C1138.79,799.7611 1180.46,704.3811 1242.5,643.6211 C1249.31,636.9511 1252.3378,634.1891 1260.7278,629.2191 " fill="none" id="JobOpening-to-JobReference" style="stroke:#808080;stroke-width:1.0;"/><polygon fill="#808080" points="1265.89,626.1611,1256.108,627.3066,1261.5881,628.7094,1260.1853,634.1895,1265.89,626.1611" style="stroke:#808080;stroke-width:1.0;"/></g><!--link JobOpening to TitleOrFunction--><g id="link_JobOpening_TitleOrFunction"><path codeLine="75" d="M1133.34,920.2011 C1158.61,952.3911 1199.49,1000.2711 1242.5,1033.6211 C1250.72,1040.0011 1254.8837,1042.9596 1264.1637,1048.1096 " fill="none" id="JobOpening-to-TitleOrFunction" style="stroke:#808080;stroke-width:1.0;"/><polygon fill="#808080" points="1269.41,1051.0211,1263.4816,1043.1564,1265.0381,1048.5949,1259.5996,1050.1514,1269.41,1051.0211" style="stroke:#808080;stroke-width:1.0;"/></g><!--link JobOpening to ContractType--><g id="link_JobOpening_ContractType"><path codeLine="76" d="M1160.65,913.4111 C1196.12,931.9511 1236.7628,953.2014 1269.4728,970.3014 " fill="none" id="JobOpening-to-ContractType" style="stroke:#808080;stroke-width:1.0;"/><polygon fill="#808080" points="1274.79,973.0811,1268.6673,965.3667,1270.359,970.7647,1264.961,972.4563,1274.79,973.0811" style="stroke:#808080;stroke-width:1.0;"/></g><!--link JobOpening to Mode--><g id="link_JobOpening_Mode"><path codeLine="77" d="M1160.65,893.5211 C1190.45,897.9611 1221.7253,902.6083 1252.2453,907.1483 " fill="none" id="JobOpening-to-Mode" style="stroke:#808080;stroke-width:1.0;"/><polygon fill="#808080" points="1258.18,908.0311,1249.8665,902.7504,1253.2344,907.2954,1248.6894,910.6633,1258.18,908.0311" style="stroke:#808080;stroke-width:1.0;"/></g><!--link JobOpening to Address--><g id="link_JobOpening_Address"><path codeLine="78" d="M1160.65,873.6411 C1190.45,866.9211 1221.8069,859.8605 1252.3269,852.9805 " fill="none" id="JobOpening-to-Address" style="stroke:#808080;stroke-width:1.0;"/><polygon fill="#808080" points="1258.18,851.6611,1248.5207,849.7382,1253.3024,852.7606,1250.2799,857.5423,1258.18,851.6611" style="stroke:#808080;stroke-width:1.0;"/></g><!--link JobOpening to VacanciesNumber--><g id="link_JobOpening_VacanciesNumber"><path codeLine="79" d="M1159.8,850.9411 C1184.58,834.8611 1214.77,815.7811 1242.5,799.6211 C1252.61,793.7311 1258.3833,790.4799 1268.7933,784.9399 " fill="none" id="JobOpening-to-VacanciesNumber" style="stroke:#808080;stroke-width:1.0;"/><polygon fill="#808080" points="1274.09,782.1211,1264.2658,782.8182,1269.6761,784.4701,1268.0242,789.8804,1274.09,782.1211" style="stroke:#808080;stroke-width:1.0;"/></g><!--link JobOpening to Description--><g id="link_JobOpening_Description"><path codeLine="80" d="M1130.02,850.8111 C1154.46,815.0511 1196.23,759.4211 1242.5,721.6211 C1250.33,715.2211 1254.141,712.3535 1263.151,707.2835 " fill="none" id="JobOpening-to-Description" style="stroke:#808080;stroke-width:1.0;"/><polygon fill="#808080" points="1268.38,704.3411,1258.5749,705.2687,1264.0225,706.7931,1262.4981,712.2407,1268.38,704.3411" style="stroke:#808080;stroke-width:1.0;"/></g><!--link User to UserEmail--><g id="link_User_UserEmail"><path codeLine="109" d="M2298.42,2011.0111 C2330.17,2027.7311 2371.7314,2049.615 2405.2414,2067.265 " fill="none" id="User-to-UserEmail" style="stroke:#808080;stroke-width:1.0;"/><polygon fill="#808080" points="2410.55,2070.0611,2404.4511,2062.3278,2406.1261,2067.731,2400.723,2069.406,2410.55,2070.0611" style="stroke:#808080;stroke-width:1.0;"/></g><!--link User to UserName--><g id="link_User_UserName"><path codeLine="110" d="M2298.42,1996.5211 C2325.18,1999.5111 2356.717,2003.0358 2387.907,2006.5158 " fill="none" id="User-to-UserName" style="stroke:#808080;stroke-width:1.0;"/><polygon fill="#808080" points="2393.87,2007.1811,2385.369,2002.2078,2388.9008,2006.6267,2384.482,2010.1585,2393.87,2007.1811" style="stroke:#808080;stroke-width:1.0;"/></g><!--link User to Username--><g id="link_User_Username"><path codeLine="111" d="M2298.13,1966.5911 C2324.28,1947.0711 2361.15,1919.8311 2394,1896.6211 C2402.08,1890.9111 2405.9166,1888.2323 2414.1466,1882.6423 " fill="none" id="User-to-Username" style="stroke:#808080;stroke-width:1.0;"/><polygon fill="#808080" points="2419.11,1879.2711,2409.4175,1881.019,2414.9739,1882.0804,2413.9125,1887.6368,2419.11,1879.2711" style="stroke:#808080;stroke-width:1.0;"/></g><!--link User to UserPassword--><g id="link_User_UserPassword"><path codeLine="112" d="M2298.42,1982.0311 C2325.18,1973.9211 2356.9378,1964.2909 2388.1278,1954.8409 " fill="none" id="User-to-UserPassword" style="stroke:#808080;stroke-width:1.0;"/><polygon fill="#808080" points="2393.87,1953.1011,2384.0968,1951.8826,2389.0848,1954.5509,2386.4165,1959.5389,2393.87,1953.1011" style="stroke:#808080;stroke-width:1.0;"/></g><!--link JobInterview to InterviewResults--><g id="link_JobInterview_InterviewResults"><path codeLine="128" d="M2002.72,805.3611 C2057.95,824.6211 2138.125,852.5844 2195.615,872.6444 " fill="none" id="JobInterview-to-InterviewResults" style="stroke:#808080;stroke-width:1.0;"/><polygon fill="#808080" points="2201.28,874.6211,2194.1002,867.8793,2196.5591,872.9738,2191.4646,875.4327,2201.28,874.6211" style="stroke:#808080;stroke-width:1.0;"/></g><!--link JobInterview to Score--><g id="link_JobInterview_Score"><path codeLine="129" d="M2002.72,791.9511 C2058.83,797.5211 2140.5394,805.618 2198.0194,811.328 " fill="none" id="JobInterview-to-Score" style="stroke:#808080;stroke-width:1.0;"/><polygon fill="#808080" points="2203.99,811.9211,2195.4295,807.051,2199.0145,811.4268,2194.6387,815.0118,2203.99,811.9211" style="stroke:#808080;stroke-width:1.0;"/></g><!--link JobInterview to InterviewTime--><g id="link_JobInterview_InterviewTime"><path codeLine="130" d="M2002.72,778.5411 C2058.83,770.1011 2140.5768,757.814 2198.0568,749.164 " fill="none" id="JobInterview-to-InterviewTime" style="stroke:#808080;stroke-width:1.0;"/><polygon fill="#808080" points="2203.99,748.2711,2194.495,745.6549,2199.0457,749.0152,2195.6855,753.5659,2203.99,748.2711" style="stroke:#808080;stroke-width:1.0;"/></g><!--link JobInterview to InterviewDate--><g id="link_JobInterview_InterviewDate"><path codeLine="131" d="M2002.72,765.1311 C2060.05,742.2011 2144.7693,708.3199 2202.1293,685.3699 " fill="none" id="JobInterview-to-InterviewDate" style="stroke:#808080;stroke-width:1.0;"/><polygon fill="#808080" points="2207.7,683.1411,2197.8581,682.7706,2203.0578,684.9985,2200.8299,690.1981,2207.7,683.1411" style="stroke:#808080;stroke-width:1.0;"/></g><!--link Process to ProcessState--><g id="link_Process_ProcessState"><path codeLine="145" d="M1358.63,356.5211 C1391.87,344.9711 1433.622,330.4793 1470.772,317.5793 " fill="none" id="Process-to-ProcessState" style="stroke:#808080;stroke-width:1.0;"/><polygon fill="#808080" points="1476.44,315.6111,1466.6259,314.7847,1471.7167,317.2512,1469.2501,322.342,1476.44,315.6111" style="stroke:#808080;stroke-width:1.0;"/></g><!--link Process to ProcessDate--><g id="link_Process_ProcessDate"><path codeLine="146" d="M1355.62,335.7811 C1400.35,294.3811 1469.1771,230.6372 1506.3671,196.2072 " fill="none" id="Process-to-ProcessDate" style="stroke:#808080;stroke-width:1.0;"/><polygon fill="#808080" points="1510.77,192.1311,1501.4483,195.31,1507.1009,195.5279,1506.8831,201.1805,1510.77,192.1311" style="stroke:#808080;stroke-width:1.0;"/></g><!--link Process to ProcessStatus--><g id="link_Process_ProcessStatus"><path codeLine="147" d="M1358.63,375.3211 C1391.87,379.1711 1433.3298,383.9712 1470.4798,388.2712 " fill="none" id="Process-to-ProcessStatus" style="stroke:#808080;stroke-width:1.0;"/><polygon fill="#808080" points="1476.44,388.9611,1467.9596,383.9528,1471.4732,388.3862,1467.0398,391.8998,1476.44,388.9611" style="stroke:#808080;stroke-width:1.0;"/></g><!--link Application to ApplicationFiles--><g id="link_Application_ApplicationFiles"><path codeLine="187" d="M1367.55,1820.8811 C1399.69,1826.2411 1435.7816,1832.2547 1469.5616,1837.8847 " fill="none" id="Application-to-ApplicationFiles" style="stroke:#808080;stroke-width:1.0;"/><polygon fill="#808080" points="1475.48,1838.8711,1467.2601,1833.4459,1470.548,1838.0491,1465.9449,1841.3371,1475.48,1838.8711" style="stroke:#808080;stroke-width:1.0;"/></g><!--link Application to Status--><g id="link_Application_Status"><path codeLine="188" d="M1367.55,1802.9911 C1399.94,1796.6911 1436.4602,1789.5857 1470.3702,1782.9957 " fill="none" id="Application-to-Status" style="stroke:#808080;stroke-width:1.0;"/><polygon fill="#808080" points="1476.26,1781.8511,1466.6622,1779.6415,1471.3518,1782.8049,1468.1884,1787.4946,1476.26,1781.8511" style="stroke:#808080;stroke-width:1.0;"/></g><!--link Application to SubmissionDate--><g id="link_Application_SubmissionDate"><path codeLine="189" d="M1339.78,1847.3311 C1362.54,1881.2611 1401.02,1932.5011 1445,1965.6211 C1453.76,1972.2211 1458.4139,1975.3577 1468.5339,1980.2777 " fill="none" id="Application-to-SubmissionDate" style="stroke:#808080;stroke-width:1.0;"/><polygon fill="#808080" points="1473.93,1982.9011,1467.5848,1975.3686,1469.4333,1980.7149,1464.0869,1982.5634,1473.93,1982.9011" style="stroke:#808080;stroke-width:1.0;"/></g><!--link Application to Rank--><g id="link_Application_Rank"><path codeLine="190" d="M1367.59,1843.7911 C1390.74,1857.8511 1418.9,1874.2611 1445,1887.6211 C1456.71,1893.6211 1464.0642,1897.1509 1476.2542,1902.5509 " fill="none" id="Application-to-Rank" style="stroke:#808080;stroke-width:1.0;"/><polygon fill="#808080" points="1481.74,1904.9811,1475.1313,1897.6786,1477.1685,1902.956,1471.8911,1904.9931,1481.74,1904.9811" style="stroke:#808080;stroke-width:1.0;"/></g><!--link InterviewModel to Plugin--><g id="link_InterviewModel_Plugin"><path codeLine="216" d="M985.12,1206.6211 C1005.43,1206.6211 1021.94,1206.6211 1041.94,1206.6211 " fill="none" id="InterviewModel-to-Plugin" style="stroke:#808080;stroke-width:1.0;"/><polygon fill="#808080" points="1047.94,1206.6211,1038.94,1202.6211,1042.94,1206.6211,1038.94,1210.6211,1047.94,1206.6211" style="stroke:#808080;stroke-width:1.0;"/></g><!--link Company to CompanyName--><g id="link_Company_CompanyName"><path codeLine="253" d="M1994.11,1201.6411 C2049.46,1204.1211 2137.416,1208.0626 2197.926,1210.7726 " fill="none" id="Company-to-CompanyName" style="stroke:#808080;stroke-width:1.0;"/><polygon fill="#808080" points="2203.92,1211.0411,2195.108,1206.6424,2198.925,1210.8174,2194.75,1214.6344,2203.92,1211.0411" style="stroke:#808080;stroke-width:1.0;"/></g><!--link Company to CompanyNumber--><g id="link_Company_CompanyNumber"><path codeLine="254" d="M1994.11,1190.3811 C2047.6,1179.4311 2131.2619,1162.2945 2191.8319,1149.8945 " fill="none" id="Company-to-CompanyNumber" style="stroke:#808080;stroke-width:1.0;"/><polygon fill="#808080" points="2197.71,1148.6911,2188.0906,1146.5774,2192.8116,1149.6939,2189.6951,1154.4149,2197.71,1148.6911" style="stroke:#808080;stroke-width:1.0;"/></g><!--reverse link JobOpening to Application--><g id="link_JobOpening_Application"><path codeLine="257" d="M1121.3301,925.8956 C1138.5601,976.9056 1168.68,1069.8611 1189,1155.6211 C1193.78,1175.8111 1193.24,1181.2111 1197,1201.6211 C1237.5,1421.3511 1290.2,1684.6911 1308.98,1777.8811 " fill="none" id="JobOpening-backto-Application" style="stroke:#808080;stroke-width:1.0;"/><polygon fill="#808080" points="1119.41,920.2111,1118.5005,930.0179,1121.0101,924.9482,1126.0798,927.4578,1119.41,920.2111" style="stroke:#808080;stroke-width:1.0;"/><text fill="#000000" font-family="sans-serif" font-size="13" lengthAdjust="spacing" textLength="21" x="1198" y="1197.6494">has</text><text fill="#000000" font-family="sans-serif" font-size="13" lengthAdjust="spacing" textLength="7" x="1122.2305" y="941.7098">1</text><text fill="#000000" font-family="sans-serif" font-size="13" lengthAdjust="spacing" textLength="9" x="1293.2121" y="1766.7381">N</text></g><!--link JobOpening to Customer--><g id="link_JobOpening_Customer"><path codeLine="258" d="M1122.14,920.2911 C1144.02,969.8611 1188.5,1062.4911 1242.5,1130.6211 C1317.12,1224.7711 1422.3765,1310.3192 1483.6965,1356.7492 " fill="none" id="JobOpening-to-Customer" style="stroke:#808080;stroke-width:1.0;"/><polygon fill="#808080" points="1488.48,1360.3711,1483.7194,1351.7492,1484.4938,1357.3528,1478.8902,1358.1272,1488.48,1360.3711" style="stroke:#808080;stroke-width:1.0;"/><text fill="#000000" font-family="sans-serif" font-size="13" lengthAdjust="spacing" textLength="63" x="1285.5" y="1126.6494">associated</text><text fill="#000000" font-family="sans-serif" font-size="13" lengthAdjust="spacing" textLength="9" x="1115.0547" y="941.8035">N</text><text fill="#000000" font-family="sans-serif" font-size="13" lengthAdjust="spacing" textLength="7" x="1473.5081" y="1370.5145">1</text></g><!--link JobOpening to Process--><g id="link_JobOpening_Process"><path codeLine="259" d="M1114.52,851.0411 C1130.34,777.4511 1172.89,601.1911 1242.5,467.6211 C1254.02,445.5111 1266.7389,427.8234 1281.1989,410.1634 " fill="none" id="JobOpening-to-Process" style="stroke:#808080;stroke-width:1.0;"/><polygon fill="#808080" points="1285,405.5211,1276.2034,409.9505,1281.8324,409.3897,1282.3932,415.0187,1285,405.5211" style="stroke:#808080;stroke-width:1.0;"/></g><!--link Application to Candidate--><g id="link_Application_Candidate"><path codeLine="261" d="M1364.97,1777.9911 C1388.16,1762.1411 1417.08,1744.1511 1445,1731.6211 C1604.28,1660.1611 1802.3984,1616.9462 1893.4884,1599.3962 " fill="none" id="Application-to-Candidate" style="stroke:#808080;stroke-width:1.0;"/><polygon fill="#808080" points="1899.38,1598.2611,1889.7858,1596.036,1894.4703,1599.207,1891.2993,1603.8915,1899.38,1598.2611" style="stroke:#808080;stroke-width:1.0;"/><text fill="#000000" font-family="sans-serif" font-size="13" lengthAdjust="spacing" textLength="9" x="1364.2565" y="1766.8691">N</text><text fill="#000000" font-family="sans-serif" font-size="13" lengthAdjust="spacing" textLength="7" x="1884.3991" y="1614.9712">1</text></g><!--link Application to JobInterview--><g id="link_Application_JobInterview"><path codeLine="262" d="M1321.73,1778.1211 C1331.61,1697.4811 1363.47,1492.1611 1445,1342.6211 C1453.42,1327.1711 1802.5925,944.6303 1911.3925,825.5703 " fill="none" id="Application-to-JobInterview" style="stroke:#808080;stroke-width:1.0;"/><polygon fill="#808080" points="1915.44,821.1411,1906.416,825.0865,1912.0671,824.8321,1912.3215,830.4832,1915.44,821.1411" style="stroke:#808080;stroke-width:1.0;"/><text fill="#000000" font-family="sans-serif" font-size="13" lengthAdjust="spacing" textLength="7" x="1314.9722" y="1766.7574">1</text><text fill="#000000" font-family="sans-serif" font-size="13" lengthAdjust="spacing" textLength="7" x="1902.2422" y="842.6278">1</text></g><!--reverse link JobRequirementsSpecification to JobOpening--><g id="link_JobRequirementsSpecification_JobOpening"><path codeLine="264" d="M793.1023,883.6625 C809.2923,879.7525 820.06,877.8011 836,875.6211 C912.18,865.2111 932.21,871.6511 1009,875.6211 C1023.13,876.3511 1038.38,877.6811 1052.49,879.1311 " fill="none" id="JobRequirementsSpecification-backto-JobOpening" style="stroke:#808080;stroke-width:1.0;"/><polygon fill="#808080" points="787.27,885.0711,796.9575,886.8465,792.1303,883.8973,795.0795,879.0701,787.27,885.0711" style="stroke:#808080;stroke-width:1.0;"/><text fill="#000000" font-family="sans-serif" font-size="13" lengthAdjust="spacing" textLength="63" x="891" y="866.6494">associated</text><text fill="#000000" font-family="sans-serif" font-size="13" lengthAdjust="spacing" textLength="7" x="795.9805" y="897.1336">1</text><text fill="#000000" font-family="sans-serif" font-size="13" lengthAdjust="spacing" textLength="9" x="1035.6277" y="893.4798">N</text></g><!--link Admin to Customer--><g id="link_Admin_Customer"><path codeLine="266" d="M157.22,1473.6911 C202.78,1442.3111 286.37,1393.6211 366.5,1393.6211 C366.5,1393.6211 366.5,1393.6211 1318,1393.6211 C1376.88,1393.6211 1438.78,1393.6211 1482.49,1393.6211 " fill="none" id="Admin-to-Customer" style="stroke:#808080;stroke-width:1.0;"/><polygon fill="#808080" points="1488.49,1393.6211,1479.49,1389.6211,1483.49,1393.6211,1479.49,1397.6211,1488.49,1393.6211" style="stroke:#808080;stroke-width:1.0;"/><text fill="#000000" font-family="sans-serif" font-size="13" lengthAdjust="spacing" textLength="53" x="896" y="1389.6494">manages</text><text fill="#000000" font-family="sans-serif" font-size="13" lengthAdjust="spacing" textLength="7" x="164.9414" y="1484.3615">1</text><text fill="#000000" font-family="sans-serif" font-size="13" lengthAdjust="spacing" textLength="9" x="1471.3603" y="1409.0637">N</text></g><!--link Admin to CustomerManager--><g id="link_Admin_CustomerManager"><path codeLine="267" d="M157.12,1499.6211 C245.52,1499.6211 475.07,1499.6211 596.04,1499.6211 " fill="none" id="Admin-to-CustomerManager" style="stroke:#808080;stroke-width:1.0;"/><polygon fill="#808080" points="602.04,1499.6211,593.04,1495.6211,597.04,1499.6211,593.04,1503.6211,602.04,1499.6211" style="stroke:#808080;stroke-width:1.0;"/><text fill="#000000" font-family="sans-serif" font-size="13" lengthAdjust="spacing" textLength="53" x="341" y="1495.6494">manages</text><text fill="#000000" font-family="sans-serif" font-size="13" lengthAdjust="spacing" textLength="7" x="165.1885" y="1515.4797">1</text><text fill="#000000" font-family="sans-serif" font-size="13" lengthAdjust="spacing" textLength="9" x="585.4665" y="1514.4952">N</text></g><!--link CustomerManager to JobOpening--><g id="link_CustomerManager_JobOpening"><path codeLine="269" d="M689.06,1464.9011 C710.69,1400.1611 762.95,1258.3111 836,1155.6211 C897.77,1068.7911 934.28,1065.6011 1009,989.6211 C1031.28,966.9711 1051.567,945.1744 1070.217,924.7244 " fill="none" id="CustomerManager-to-JobOpening" style="stroke:#808080;stroke-width:1.0;"/><polygon fill="#808080" points="1074.26,920.2911,1065.2399,924.2456,1070.8908,923.9855,1071.1509,929.6363,1074.26,920.2911" style="stroke:#808080;stroke-width:1.0;"/><text fill="#000000" font-family="sans-serif" font-size="13" lengthAdjust="spacing" textLength="53" x="896" y="985.6494">manages</text><text fill="#000000" font-family="sans-serif" font-size="13" lengthAdjust="spacing" textLength="7" x="683.6918" y="1453.7619">1</text><text fill="#000000" font-family="sans-serif" font-size="13" lengthAdjust="spacing" textLength="9" x="1058.9453" y="941.8035">N</text></g><!--link CustomerManager to Customer--><g id="link_CustomerManager_Customer"><path codeLine="270" d="M751.77,1495.4811 C800.04,1493.1211 864.5,1490.6211 921.5,1490.6211 C921.5,1490.6211 921.5,1490.6211 1318,1490.6211 C1381.1,1490.6211 1441.1939,1459.0735 1483.1939,1431.1435 " fill="none" id="CustomerManager-to-Customer" style="stroke:#808080;stroke-width:1.0;"/><polygon fill="#808080" points="1488.19,1427.8211,1478.4808,1429.474,1484.0265,1430.5898,1482.9107,1436.1355,1488.19,1427.8211" style="stroke:#808080;stroke-width:1.0;"/><text fill="#000000" font-family="sans-serif" font-size="13" lengthAdjust="spacing" textLength="50" x="1081.5" y="1486.6494">registers</text><text fill="#000000" font-family="sans-serif" font-size="13" lengthAdjust="spacing" textLength="7" x="759.4747" y="1509.9754">1</text><text fill="#000000" font-family="sans-serif" font-size="13" lengthAdjust="spacing" textLength="9" x="1471.6538" y="1448.1759">N</text></g><!--link Operator to Application--><g id="link_Operator_Application"><path codeLine="272" d="M967,1957.5611 C1040.55,1927.0111 1183.4687,1867.662 1260.9187,1835.502 " fill="none" id="Operator-to-Application" style="stroke:#808080;stroke-width:1.0;"/><polygon fill="#808080" points="1266.46,1833.2011,1256.6141,1832.9583,1261.8423,1835.1185,1259.682,1840.3467,1266.46,1833.2011" style="stroke:#808080;stroke-width:1.0;"/><text fill="#000000" font-family="sans-serif" font-size="13" lengthAdjust="spacing" textLength="50" x="1081.5" y="1861.6494">registers</text><text fill="#000000" font-family="sans-serif" font-size="13" lengthAdjust="spacing" textLength="7" x="974.95" y="1970.068">1</text><text fill="#000000" font-family="sans-serif" font-size="13" lengthAdjust="spacing" textLength="9" x="1249.376" y="1851.5555">N</text></g><!--link LanguageEngineer to JobRequirementsSpecification--><g id="link_LanguageEngineer_JobRequirementsSpecification"><path codeLine="274" d="M134.83,1172.0311 C154.04,1123.4711 195.9,1036.0611 262,991.6211 C351.9,931.1711 470.8109,916.7362 559.8609,915.1762 " fill="none" id="LanguageEngineer-to-JobRequirementsSpecification" style="stroke:#808080;stroke-width:1.0;"/><polygon fill="#808080" points="565.86,915.0711,556.7913,911.2293,560.8608,915.1587,556.9314,919.2281,565.86,915.0711" style="stroke:#808080;stroke-width:1.0;"/><text fill="#000000" font-family="sans-serif" font-size="13" lengthAdjust="spacing" textLength="43" x="346" y="918.6494">creates</text><text fill="#000000" font-family="sans-serif" font-size="13" lengthAdjust="spacing" textLength="7" x="129.7038" y="1160.9167">1</text><text fill="#000000" font-family="sans-serif" font-size="13" lengthAdjust="spacing" textLength="9" x="549.0904" y="929.3899">N</text></g><!--link LanguageEngineer to InterviewModel--><g id="link_LanguageEngineer_InterviewModel"><path codeLine="275" d="M198.03,1206.6211 C355.28,1206.6211 709.22,1206.6211 853.76,1206.6211 " fill="none" id="LanguageEngineer-to-InterviewModel" style="stroke:#808080;stroke-width:1.0;"/><polygon fill="#808080" points="859.76,1206.6211,850.76,1202.6211,854.76,1206.6211,850.76,1210.6211,859.76,1206.6211" style="stroke:#808080;stroke-width:1.0;"/><text fill="#000000" font-family="sans-serif" font-size="13" lengthAdjust="spacing" textLength="43" x="491.5" y="1202.6494">creates</text><text fill="#000000" font-family="sans-serif" font-size="13" lengthAdjust="spacing" textLength="7" x="205.908" y="1221.523">1</text><text fill="#000000" font-family="sans-serif" font-size="13" lengthAdjust="spacing" textLength="9" x="842.9854" y="1221.6755">N</text></g><!--reverse link InterviewModel to JobInterview--><g id="link_InterviewModel_JobInterview"><path codeLine="277" d="M990.2331,1182.8517 C999.6631,1177.0617 1003.09,1172.8611 1009,1163.6211 C1044.74,1107.7011 1001.09,627.0611 1028.5,566.6211 C1047.85,523.9511 1058.65,494.6211 1105.5,494.6211 C1105.5,494.6211 1105.5,494.6211 1536,494.6211 C1711.93,494.6211 1864.97,674.6311 1922.6,751.9811 " fill="none" id="InterviewModel-backto-JobInterview" style="stroke:#808080;stroke-width:1.0;"/><polygon fill="#808080" points="985.12,1185.9911,994.8826,1184.6907,989.3809,1183.3749,990.6967,1177.8732,985.12,1185.9911" style="stroke:#808080;stroke-width:1.0;"/><text fill="#000000" font-family="sans-serif" font-size="13" lengthAdjust="spacing" textLength="28" x="1303" y="490.6494">uses</text><text fill="#000000" font-family="sans-serif" font-size="13" lengthAdjust="spacing" textLength="7" x="993.1784" y="1198.5867">1</text><text fill="#000000" font-family="sans-serif" font-size="13" lengthAdjust="spacing" textLength="9" x="1907.9003" y="740.8571">N</text></g><!--link ANTLR to JobRequirementsSpecification--><g id="link_ANTLR_JobRequirementsSpecification"><path codeLine="279" d="M406.21,1027.5411 C451.59,1009.3911 523.6592,980.5596 584.0292,956.4096 " fill="none" id="ANTLR-to-JobRequirementsSpecification" style="stroke:#808080;stroke-width:1.0;"/><polygon fill="#808080" points="589.6,954.1811,579.7581,953.81,584.9577,956.0382,582.7295,961.2377,589.6,954.1811" style="stroke:#808080;stroke-width:1.0;"/><text fill="#000000" font-family="sans-serif" font-size="13" lengthAdjust="spacing" textLength="60" x="483" y="972.6494">processes</text></g><!--link ANTLR to InterviewModel--><g id="link_ANTLR_InterviewModel"><path codeLine="280" d="M406.08,1053.7711 C499.79,1081.5611 738.8277,1152.445 854.0677,1186.625 " fill="none" id="ANTLR-to-InterviewModel" style="stroke:#808080;stroke-width:1.0;"/><polygon fill="#808080" points="859.82,1188.3311,852.3289,1181.937,855.0264,1186.9093,850.0541,1189.6068,859.82,1188.3311" style="stroke:#808080;stroke-width:1.0;"/><text fill="#000000" font-family="sans-serif" font-size="13" lengthAdjust="spacing" textLength="60" x="647" y="1091.6494">processes</text></g><!--link Admin to User--><g id="link_Admin_User"><path codeLine="282" d="M126.49,1534.4911 C143.95,1678.9211 219.45,2222.6211 366.5,2222.6211 C366.5,2222.6211 366.5,2222.6211 1949,2222.6211 C2042.81,2222.6211 2079.36,2232.1111 2155,2176.6211 C2206.04,2139.1811 2234.5288,2075.0015 2249.0688,2032.9615 " fill="none" id="Admin-to-User" style="stroke:#808080;stroke-width:1.0;"/><polygon fill="#808080" points="2251.03,2027.2911,2244.3079,2034.4893,2249.3957,2032.0165,2251.8685,2037.1042,2251.03,2027.2911" style="stroke:#808080;stroke-width:1.0;"/><text fill="#000000" font-family="sans-serif" font-size="13" lengthAdjust="spacing" textLength="53" x="1080" y="2218.6494">manages</text></g><!--link CustomerManager to User--><g id="link_CustomerManager_User"><path codeLine="284" d="M683.15,1534.1611 C704.15,1668.7511 788.61,2150.6211 921.5,2150.6211 C921.5,2150.6211 921.5,2150.6211 1949,2150.6211 C2042.71,2150.6211 2073.44,2151.7811 2155,2105.6211 C2188.9,2086.4311 2214.8429,2057.6983 2234.1629,2032.1283 " fill="none" id="CustomerManager-to-User" style="stroke:#808080;stroke-width:1.0;"/><polygon fill="#808080" points="2237.78,2027.3411,2229.163,2032.1105,2234.7658,2031.3304,2235.5459,2036.9332,2237.78,2027.3411" style="stroke:#808080;stroke-width:1.0;"/></g><!--link Operator to User--><g id="link_Operator_User"><path codeLine="286" d="M958.47,2010.2511 C992.86,2040.5111 1048.36,2079.6211 1105.5,2079.6211 C1105.5,2079.6211 1105.5,2079.6211 1949,2079.6211 C2042.02,2079.6211 2066.37,2070.8511 2155,2042.6211 C2179.91,2034.6911 2201.2079,2024.9422 2221.5979,2014.4222 " fill="none" id="Operator-to-User" style="stroke:#808080;stroke-width:1.0;"/><polygon fill="#808080" points="2226.93,2011.6711,2217.0978,2012.2429,2222.4866,2013.9636,2220.7658,2019.3524,2226.93,2011.6711" style="stroke:#808080;stroke-width:1.0;"/></g><!--link LanguageEngineer to User--><g id="link_LanguageEngineer_User"><path codeLine="288" d="M182.03,1241.1511 C230.16,1265.8011 300.53,1294.6211 366.5,1294.6211 C366.5,1294.6211 366.5,1294.6211 829,1294.6211 C976.43,1294.6211 2048.16,1241.0411 2155,1342.6211 C2203.88,1389.1011 2183.26,1577.0411 2194,1643.6211 C2212.68,1759.3811 2239.5642,1889.6818 2252.8342,1952.2018 " fill="none" id="LanguageEngineer-to-User" style="stroke:#808080;stroke-width:1.0;"/><polygon fill="#808080" points="2254.08,1958.0711,2256.1242,1948.4367,2253.0419,1953.1801,2248.2985,1950.0977,2254.08,1958.0711" style="stroke:#808080;stroke-width:1.0;"/></g><!--link Customer to User--><g id="link_Customer_User"><path codeLine="290" d="M1557.64,1428.4611 C1593.62,1483.2711 1671.13,1589.0211 1765,1643.6211 C1918.69,1733.0111 2019.39,1617.6511 2155,1732.6211 C2224.21,1791.2911 2248.1799,1896.0275 2256.5999,1952.1575 " fill="none" id="Customer-to-User" style="stroke:#808080;stroke-width:1.0;"/><polygon fill="#808080" points="2257.49,1958.0911,2260.1106,1948.5973,2256.7483,1953.1464,2252.1991,1949.7841,2257.49,1958.0911" style="stroke:#808080;stroke-width:1.0;"/></g><!--link Customer to Company--><g id="link_Customer_Company"><path codeLine="291" d="M1581.55,1372.1211 C1660.77,1334.7311 1817.524,1260.7421 1896.444,1223.4921 " fill="none" id="Customer-to-Company" style="stroke:#808080;stroke-width:1.0;"/><polygon fill="#808080" points="1901.87,1220.9311,1892.0237,1221.1553,1897.3484,1223.0653,1895.4384,1228.39,1901.87,1220.9311" style="stroke:#808080;stroke-width:1.0;"/><polygon fill="#000000" points="1657.4784,1295.4008,1666.9125,1294.1978,1664.4036,1288.8822,1657.4784,1295.4008" style="stroke:#000000;stroke-width:1.0;"/><text fill="#000000" font-family="sans-serif" font-size="13" lengthAdjust="spacing" textLength="63" x="1671" y="1298.6494">associated</text><text fill="#000000" font-family="sans-serif" font-size="13" lengthAdjust="spacing" textLength="9" x="1589.367" y="1384.2161">N</text><text fill="#000000" font-family="sans-serif" font-size="13" lengthAdjust="spacing" textLength="7" x="1886.9602" y="1239.77">1</text></g><!--link Candidate to User--><g id="link_Candidate_User"><path codeLine="293" d="M1996.54,1590.3411 C2043.85,1593.7611 2115.03,1606.7011 2155,1651.6211 C2168.5,1666.8011 2158,1676.9311 2163,1696.6211 C2187.45,1792.9511 2225.3384,1897.6587 2246.0384,1952.4187 " fill="none" id="Candidate-to-User" style="stroke:#808080;stroke-width:1.0;"/><polygon fill="#808080" points="2248.16,1958.0311,2248.7193,1948.1981,2246.392,1953.3541,2241.2361,1951.0269,2248.16,1958.0311" style="stroke:#808080;stroke-width:1.0;"/></g><!--SRC=[fLXDRziu4BthLn3UmvuCRA-6OS2nco95wWI9jtTQ6jlSIAHAKPirYlpt7OeIHKgKPBU-sEQy6SwRuGm_pYm1ae4wYwI8KZWgeWIHx7HM964IOiK4Z_uitXZFgQGPIHa7TSc128awKRHdAWKosugCCaw-YGJIMHIr-3YbHK5-HWG_Z-m8ZwX_9sG2SYDI8ScMohUxj0GVGEEtanGbJmne_Vpy-B1Pxn-UTXMkA__Z_gzx_5IojPJYtGoV95mCtfdmaA9ozE7wcEC8FS6hkY0LpPdoKmeU2ogJ4H9V903_VGRRRPU1ZiwN48kxXaLKEqzccx9G8WESwuJ4JrJ1x6S4N35r8LQsN9gHrMgvb4AerIggR5S4FsCEqtMIIC2KBPVVAUQ5F1t-mOYiLeRzXu5RU_FvobFJBhKUKPwm11q9kcI5epvjIYbPNAPbrlE8D2vPy1vIoC-2mwxC3XNRCGxM0KsYdISWxDZrI7uL1_82FqeibWnv5EGrXvWTMKnrwOIOeuQhuEE7Wb7hUZErM8CPDQnvkDAen-8f1yxuQS3bHZgQhSg38qZWCLoJBzqydkHzoUEQ_9J6Hd0bQQpskWLDmtK_kW8sjERxoEyqfZncK0oiiBx65efOidoSNvE-9iWwMMuiG_9Ey48GDreXkGvFQBmfve2e4u0Gn65iY761TMJs577iErNN6pdWfi91GzGPo56agNX7cmiBcfDZcQPpnJ9mnh13gtOCU5BD5vhPqhr-IhIFzQBjEIFdoq6on1qHl62gwu1RNtyNuSPSZO-Mb4PK7VQAjQQnEvh1bT1dt9hVSLEv4ixHylWAhjZe9M2TxWzh__gZF3ZQEDZhLGzSWVoNmVj0ishbGx4rj2pk1OeoLOCTe0w5KNgDXOIhaDRydcKtQcpDpZYaORuzfZfeNJu3i8h1b8czBRDXZFRIJywp5B5kfO6yDABHvLw3NjK8_uyUV7iJMXil9quuZREQhklJa70x8ZFpXJfIL_c6LaZpFAttThGlbMTZZYdMPrBK2Gbj_egGTCrfUYbOK6RMbIyPQxczqDt0SDqo314ByWdGw7dlEwt_Z3jU5hTwhdT3v-yc5SNOvk0G3TMDAnwj7GTupr8ONk5jAnklX1PN7Z9M56WuM6az_0lbR-FrvPAgZXmTtuCW9nizaUTX4AAT2gtHNyjneITK2XBtA8BvzLScZMF8VL02iRv49vEr4mp93Hug-4-H8sgITwRE5Ix6irTrTQZrmExHzVbAeuzulmGQdyq_gXJ-XaI_2uHK9cRvBKDu0QEDgqw_8tWvmtLMtz162glTjQg7YL1nMOX1ZEzDQNbYKwVuZi5g6wZqVDSUAJ-L-jTdZZ88dmuRaCM4tFCwIPAnS0-f15Fgzbh_ZN8S67rAQ21JDh4NIgg4RykvqLhv9BVT_l65lEhWnZ1apO0cUOeif_pY626UbKO-_Z9XGC7pTk3UQi3Nl4lKaviBd9rZK6QV93fNiTcd6LdEvsIs8pEl5ox8cVRkThFT3AsYMQrcry62u0bSn8msBSpHS4yu_Pxks_DgrODzSc3kEVEA5usQuBoQot7CSzhCMAt-TgwTHp6hLd8nXMmMVAlWFOKrOa_NyygTPrJByGsN9oim9FLajbWyl9_SZaglXtGT70xmWk1P2wDON66eq_PQrL1Jx6QkxTCBKXQDagbb-nGox6Lk5c6JmbhDlQSqJhL89zlpvhevaLcBw-J27-w5gQFcF9qsuzwmAPowRkfoTrSqMOQUBoix_mC0]--></g></svg>