<?xml version="1.0" encoding="us-ascii" standalone="no"?><svg xmlns="http://www.w3.org/2000/svg" xmlns:xlink="http://www.w3.org/1999/xlink" contentStyleType="text/css" height="1941px" preserveAspectRatio="none" style="width:1051px;height:1941px;background:#FFFFFF;" version="1.1" viewBox="0 0 1051 1941" width="1051px" zoomAndPan="magnify"><defs/><g><text fill="#000000" font-family="sans-serif" font-size="14" font-weight="bold" lengthAdjust="spacing" textLength="127" x="455" y="25.1074">Use Case Diagram</text><!--cluster backoffice--><g id="cluster_backoffice"><rect fill="none" height="1889" rx="2.5" ry="2.5" style="stroke:#000000;stroke-width:1.0;" width="870" x="175" y="46.6211"/><text fill="#000000" font-family="sans-serif" font-size="14" font-weight="bold" lengthAdjust="spacing" textLength="50" x="585" y="63.7285">System</text></g><g id="elem_register user of the backoffice"><ellipse cx="609.8048" cy="189.6821" fill="#F1F1F1" rx="113.3048" ry="25.061" style="stroke:#181818;stroke-width:0.5;"/><text fill="#000000" font-family="sans-serif" font-size="14" lengthAdjust="spacing" textLength="188" x="515.8048" y="193.4789">register user of the backoffice</text></g><g id="elem_disable user of the backoffice"><ellipse cx="609.9468" cy="274.4105" fill="#F1F1F1" rx="111.9468" ry="24.7894" style="stroke:#181818;stroke-width:0.5;"/><text fill="#000000" font-family="sans-serif" font-size="14" lengthAdjust="spacing" textLength="185" x="517.4468" y="278.2073">disable user of the backoffice</text></g><g id="elem_enable user of the backoffice"><ellipse cx="610.0435" cy="359.7298" fill="#F1F1F1" rx="111.0435" ry="24.6087" style="stroke:#181818;stroke-width:0.5;"/><text fill="#000000" font-family="sans-serif" font-size="14" lengthAdjust="spacing" textLength="183" x="518.5435" y="363.5267">enable user of the backoffice</text></g><g id="elem_list users of the backoffice"><ellipse cx="610.058" cy="106.5327" fill="#F1F1F1" rx="102.558" ry="22.9116" style="stroke:#181818;stroke-width:0.5;"/><text fill="#000000" font-family="sans-serif" font-size="14" lengthAdjust="spacing" textLength="164" x="527.6827" y="110.4715">list users of the backoffice</text></g><g id="elem_register a customer"><ellipse cx="610.2022" cy="758.5615" fill="#F1F1F1" rx="85.2022" ry="19.4404" style="stroke:#181818;stroke-width:0.5;"/><text fill="#000000" font-family="sans-serif" font-size="14" lengthAdjust="spacing" textLength="122" x="546.2022" y="763.3653">register a customer</text></g><g id="elem_register a job opening"><ellipse cx="610.0732" cy="833.8357" fill="#F1F1F1" rx="91.5732" ry="20.7146" style="stroke:#181818;stroke-width:0.5;"/><text fill="#000000" font-family="sans-serif" font-size="14" lengthAdjust="spacing" textLength="138" x="538.0732" y="838.6394">register a job opening</text></g><g id="elem_register a candidate"><ellipse cx="609.7688" cy="683.3749" fill="#F1F1F1" rx="86.7688" ry="19.7538" style="stroke:#181818;stroke-width:0.5;"/><text fill="#000000" font-family="sans-serif" font-size="14" lengthAdjust="spacing" textLength="126" x="543.7688" y="688.1786">register a candidate</text></g><g id="elem_register an application"><ellipse cx="609.888" cy="440.4987" fill="#F1F1F1" rx="92.388" ry="20.8776" style="stroke:#181818;stroke-width:0.5;"/><text fill="#000000" font-family="sans-serif" font-size="14" lengthAdjust="spacing" textLength="140" x="536.888" y="445.3024">register an application</text></g><g id="elem_list all applications for a job opening"><ellipse cx="609.8162" cy="1215.5843" fill="#F1F1F1" rx="130.3162" ry="28.4632" style="stroke:#181818;stroke-width:0.5;"/><text fill="#000000" font-family="sans-serif" font-size="14" lengthAdjust="spacing" textLength="225" x="497.3162" y="1219.3812">list all applications for a job opening</text></g><g id="elem_display all the personal data of a candidate"><ellipse cx="609.9611" cy="1312.4133" fill="#F1F1F1" rx="151.9611" ry="32.7922" style="stroke:#181818;stroke-width:0.5;"/><text fill="#000000" font-family="sans-serif" font-size="14" lengthAdjust="spacing" textLength="271" x="474.4611" y="1316.2102">display all the personal data of a candidate</text></g><g id="elem_deploy and configure a plugin"><ellipse cx="609.8518" cy="1534.5914" fill="#F1F1F1" rx="112.8518" ry="24.9704" style="stroke:#181818;stroke-width:0.5;"/><text fill="#000000" font-family="sans-serif" font-size="14" lengthAdjust="spacing" textLength="187" x="516.3518" y="1538.3883">deploy and configure a plugin</text></g><g id="elem_select the requirements specifications to be used for a job opening"><ellipse cx="609.9709" cy="1427.7153" fill="#F1F1F1" rx="223.4709" ry="47.0942" style="stroke:#181818;stroke-width:0.5;"/><text fill="#000000" font-family="sans-serif" font-size="14" lengthAdjust="spacing" textLength="419" x="400.4709" y="1431.5121">select the requirements specifications to be used for a job opening</text></g><g id="elem_select the interview model to use for the interviews of a job opening"><ellipse cx="609.9373" cy="936.5086" fill="#F1F1F1" rx="224.9373" ry="47.3875" style="stroke:#181818;stroke-width:0.5;"/><text fill="#000000" font-family="sans-serif" font-size="14" lengthAdjust="spacing" textLength="422" x="398.9373" y="940.3054">select the interview model to use for the interviews of a job opening</text></g><g id="elem_generate and export a template text file to help collect the candidate answers during the interviews"><ellipse cx="609.9267" cy="1085.7064" fill="#F1F1F1" rx="320.9267" ry="66.5853" style="stroke:#181818;stroke-width:0.5;"/><text fill="#000000" font-family="sans-serif" font-size="14" lengthAdjust="spacing" textLength="617" x="301.4267" y="1089.5033">generate and export a template text file to help collect the candidate answers during the interviews</text></g><g id="elem_generate and export a template text file to help collect data fields for candidates of a job opening "><ellipse cx="609.9649" cy="562.5141" fill="#F1F1F1" rx="317.4649" ry="65.893" style="stroke:#181818;stroke-width:0.5;"/><text fill="#000000" font-family="sans-serif" font-size="14" lengthAdjust="spacing" textLength="606" x="304.9649" y="566.3109">generate and export a template text file to help collect data fields for candidates of a job opening</text></g><g id="elem_support and apply authentication and authorization for all its users and functionalities"><ellipse cx="609.9407" cy="1860.5092" fill="#F1F1F1" rx="279.9407" ry="58.3881" style="stroke:#181818;stroke-width:0.5;"/><text fill="#000000" font-family="sans-serif" font-size="14" lengthAdjust="spacing" textLength="534" x="342.9407" y="1864.3061">support and apply authentication and authorization for all its users and functionalities</text></g><g id="elem_process the files produced by the Applications Email Bot, so that they can be imported into the system by initiative of the Operator"><ellipse cx="610.1123" cy="1680.8435" fill="#F1F1F1" rx="419.1123" ry="86.2225" style="stroke:#181818;stroke-width:0.5;"/><text fill="#000000" font-family="sans-serif" font-size="14" lengthAdjust="spacing" textLength="815" x="202.6123" y="1684.6404">process the files produced by the Applications Email Bot, so that they can be imported into the system by initiative of the Operator</text></g><!--entity admin--><g id="elem_admin"><ellipse cx="68.5" cy="201.6211" fill="#F1F1F1" rx="8" ry="8" style="stroke:#181818;stroke-width:0.5;"/><path d="M68.5,209.6211 L68.5,236.6211 M55.5,217.6211 L81.5,217.6211 M68.5,236.6211 L55.5,251.6211 M68.5,236.6211 L81.5,251.6211 " fill="none" style="stroke:#181818;stroke-width:0.5;"/><text fill="#000000" font-family="sans-serif" font-size="14" lengthAdjust="spacing" textLength="39" x="49" y="268.2285">Admin</text></g><!--entity operator--><g id="elem_operator"><ellipse cx="68.5" cy="531.6211" fill="#F1F1F1" rx="8" ry="8" style="stroke:#181818;stroke-width:0.5;"/><path d="M68.5,539.6211 L68.5,566.6211 M55.5,547.6211 L81.5,547.6211 M68.5,566.6211 L55.5,581.6211 M68.5,566.6211 L81.5,581.6211 " fill="none" style="stroke:#181818;stroke-width:0.5;"/><text fill="#000000" font-family="sans-serif" font-size="14" lengthAdjust="spacing" textLength="57" x="40" y="598.2285">Operator</text></g><!--entity customerManager--><g id="elem_customerManager"><ellipse cx="68.5" cy="1054.6211" fill="#F1F1F1" rx="8" ry="8" style="stroke:#181818;stroke-width:0.5;"/><path d="M68.5,1062.6211 L68.5,1089.6211 M55.5,1070.6211 L81.5,1070.6211 M68.5,1089.6211 L55.5,1104.6211 M68.5,1089.6211 L81.5,1104.6211 " fill="none" style="stroke:#181818;stroke-width:0.5;"/><text fill="#000000" font-family="sans-serif" font-size="14" lengthAdjust="spacing" textLength="121" x="8" y="1121.2285">Customer Manager</text></g><!--entity languageEngineer--><g id="elem_languageEngineer"><ellipse cx="68.5" cy="1503.6211" fill="#F1F1F1" rx="8" ry="8" style="stroke:#181818;stroke-width:0.5;"/><path d="M68.5,1511.6211 L68.5,1538.6211 M55.5,1519.6211 L81.5,1519.6211 M68.5,1538.6211 L55.5,1553.6211 M68.5,1538.6211 L81.5,1553.6211 " fill="none" style="stroke:#181818;stroke-width:0.5;"/><text fill="#000000" font-family="sans-serif" font-size="14" lengthAdjust="spacing" textLength="125" x="6" y="1570.2285">Language Engineer</text></g><!--entity productOwner--><g id="elem_productOwner"><ellipse cx="68.5" cy="1739.6211" fill="#F1F1F1" rx="8" ry="8" style="stroke:#181818;stroke-width:0.5;"/><path d="M68.5,1747.6211 L68.5,1774.6211 M55.5,1755.6211 L81.5,1755.6211 M68.5,1774.6211 L55.5,1789.6211 M68.5,1774.6211 L81.5,1789.6211 " fill="none" style="stroke:#181818;stroke-width:0.5;"/><text fill="#000000" font-family="sans-serif" font-size="14" lengthAdjust="spacing" textLength="94" x="21.5" y="1806.2285">Product Owner</text></g><!--link admin to register user of the backoffice--><g id="link_admin_register user of the backoffice"><path d="M88.07,231.1411 C152.6,226.0011 364.3689,209.1176 497.0489,198.5476 " fill="none" id="admin-to-register user of the backoffice" style="stroke:#181818;stroke-width:1.0;"/><polygon fill="#181818" points="503.03,198.0711,493.7408,194.7985,498.0458,198.4682,494.3761,202.7732,503.03,198.0711" style="stroke:#181818;stroke-width:1.0;"/></g><!--link admin to disable user of the backoffice--><g id="link_admin_disable user of the backoffice"><path d="M88.07,234.0711 C152.74,239.1011 365.3081,255.6451 497.9081,265.9751 " fill="none" id="admin-to-disable user of the backoffice" style="stroke:#181818;stroke-width:1.0;"/><polygon fill="#181818" points="503.89,266.4411,495.2279,261.7542,498.9051,266.0528,494.6065,269.73,503.89,266.4411" style="stroke:#181818;stroke-width:1.0;"/></g><!--link admin to enable user of the backoffice--><g id="link_admin_enable user of the backoffice"><path d="M88.18,255.1711 C106.13,275.0811 135.16,303.0011 167,316.6211 C275.11,362.8511 405.262,369.4149 497.692,367.0449 " fill="none" id="admin-to-enable user of the backoffice" style="stroke:#181818;stroke-width:1.0;"/><polygon fill="#181818" points="503.69,366.8911,494.5904,363.1231,498.6916,367.0193,494.7955,371.1205,503.69,366.8911" style="stroke:#181818;stroke-width:1.0;"/></g><!--link admin to list users of the backoffice--><g id="link_admin_list users of the backoffice"><path d="M88.05,209.4811 C105.9,189.0611 134.87,160.4511 167,146.6211 C278.99,98.4111 415.4358,94.2478 507.8758,98.3078 " fill="none" id="admin-to-list users of the backoffice" style="stroke:#181818;stroke-width:1.0;"/><polygon fill="#181818" points="513.87,98.5711,505.0542,94.18,508.8748,98.3517,504.7032,102.1723,513.87,98.5711" style="stroke:#181818;stroke-width:1.0;"/></g><!--link customerManager to register a customer--><g id="link_customerManager_register a customer"><path d="M69.94,1046.1011 C73.01,982.0511 89.25,856.5811 167,795.6211 C278.19,708.4311 451.1864,726.096 543.5864,743.736 " fill="none" id="customerManager-to-register a customer" style="stroke:#181818;stroke-width:1.0;"/><polygon fill="#181818" points="549.48,744.8611,541.3897,739.2444,544.5687,743.9235,539.8896,747.1024,549.48,744.8611" style="stroke:#181818;stroke-width:1.0;"/></g><!--link customerManager to register a job opening--><g id="link_customerManager_register a job opening"><path d="M75.32,1045.9911 C84.91,996.2411 109.12,912.4611 167,871.6211 C278.7,792.8011 442.065,804.0651 535.385,818.9651 " fill="none" id="customerManager-to-register a job opening" style="stroke:#181818;stroke-width:1.0;"/><polygon fill="#181818" points="541.31,819.9111,533.0532,814.5421,536.3725,819.1228,531.7919,822.442,541.31,819.9111" style="stroke:#181818;stroke-width:1.0;"/></g><!--link customerManager to list all applications for a job opening--><g id="link_customerManager_list all applications for a job opening"><path d="M104.63,1125.1711 C121.72,1141.7711 143.61,1159.5311 167,1169.6211 C267.23,1212.8811 385.7,1222.3816 476.99,1222.2216 " fill="none" id="customerManager-to-list all applications for a job opening" style="stroke:#181818;stroke-width:1.0;"/><polygon fill="#181818" points="482.99,1222.2111,473.983,1218.2269,477.99,1222.2199,473.997,1226.2269,482.99,1222.2111" style="stroke:#181818;stroke-width:1.0;"/></g><!--link customerManager to display all the personal data of a candidate--><g id="link_customerManager_display all the personal data of a candidate"><path d="M79.78,1125.1311 C92.77,1166.4911 119.39,1229.7511 167,1261.6211 C257.03,1321.8811 375.0746,1331.657 468.8446,1327.967 " fill="none" id="customerManager-to-display all the personal data of a candidate" style="stroke:#181818;stroke-width:1.0;"/><polygon fill="#181818" points="474.84,1327.7311,465.6897,1324.0881,469.8439,1327.9277,466.0042,1332.0819,474.84,1327.7311" style="stroke:#181818;stroke-width:1.0;"/></g><!--link customerManager to select the requirements specifications to be used for a job opening--><g id="link_customerManager_select the requirements specifications to be used for a job opening"><path d="M71.14,1125.1211 C75.96,1186.2811 94.7,1303.0511 167,1362.6211 C229.93,1414.4711 309.7262,1434.2609 388.9762,1440.0909 " fill="none" id="customerManager-to-select the requirements specifications to be used for a job opening" style="stroke:#181818;stroke-width:1.0;"/><polygon fill="#181818" points="394.96,1440.5311,386.2777,1435.8816,389.9735,1440.1643,385.6908,1443.86,394.96,1440.5311" style="stroke:#181818;stroke-width:1.0;"/></g><!--link customerManager to select the interview model to use for the interviews of a job opening--><g id="link_customerManager_select the interview model to use for the interviews of a job opening"><path d="M105.28,1046.0911 C122.35,1029.7111 144.04,1012.1111 167,1001.6211 C235.25,970.4311 309.0949,954.2734 381.9549,945.3134 " fill="none" id="customerManager-to-select the interview model to use for the interviews of a job opening" style="stroke:#181818;stroke-width:1.0;"/><polygon fill="#181818" points="387.91,944.5811,378.4891,941.7095,382.9474,945.1914,379.4655,949.6497,387.91,944.5811" style="stroke:#181818;stroke-width:1.0;"/></g><!--link customerManager to generate and export a template text file to help collect the candidate answers during the interviews--><g id="link_customerManager_generate and export a template text file to help collect the candidate answers during the interviews"><path d="M129.04,1085.6211 C169.87,1085.6211 221.58,1085.6211 282.9,1085.6211 " fill="none" id="customerManager-to-generate and export a template text file to help collect the candidate answers during the interviews" style="stroke:#181818;stroke-width:1.0;"/><polygon fill="#181818" points="288.9,1085.6211,279.9,1081.6211,283.9,1085.6211,279.9,1089.6211,288.9,1085.6211" style="stroke:#181818;stroke-width:1.0;"/></g><!--link operator to register a candidate--><g id="link_operator_register a candidate"><path d="M97.32,594.6411 C115.23,612.9311 140.13,634.4011 167,645.6211 C285.69,695.1711 431.6299,696.5955 522.9299,691.3455 " fill="none" id="operator-to-register a candidate" style="stroke:#181818;stroke-width:1.0;"/><polygon fill="#181818" points="528.92,691.0011,519.7052,687.5244,523.9282,691.2881,520.1645,695.5112,528.92,691.0011" style="stroke:#181818;stroke-width:1.0;"/></g><!--link operator to register an application--><g id="link_operator_register an application"><path d="M97.24,530.2211 C115.13,511.7111 140.02,489.9811 167,478.6211 C283.42,429.6111 426.079,427.4729 517.889,432.5029 " fill="none" id="operator-to-register an application" style="stroke:#181818;stroke-width:1.0;"/><polygon fill="#181818" points="523.88,432.8311,515.1123,428.3447,518.8875,432.5576,514.6747,436.3328,523.88,432.8311" style="stroke:#181818;stroke-width:1.0;"/></g><!--link operator to generate and export a template text file to help collect data fields for candidates of a job opening --><g id="link_operator_generate and export a template text file to help collect data fields for candidates of a job opening "><path d="M97.37,562.6211 C136.32,562.6211 205.39,562.6211 286.28,562.6211 " fill="none" id="operator-to-generate and export a template text file to help collect data fields for candidates of a job opening " style="stroke:#181818;stroke-width:1.0;"/><polygon fill="#181818" points="292.28,562.6211,283.28,558.6211,287.28,562.6211,283.28,566.6211,292.28,562.6211" style="stroke:#181818;stroke-width:1.0;"/></g><!--link languageEngineer to deploy and configure a plugin--><g id="link_languageEngineer_deploy and configure a plugin"><path d="M131.12,1534.6211 C220.08,1534.6211 379.95,1534.6211 490.94,1534.6211 " fill="none" id="languageEngineer-to-deploy and configure a plugin" style="stroke:#181818;stroke-width:1.0;"/><polygon fill="#181818" points="496.94,1534.6211,487.94,1530.6211,491.94,1534.6211,487.94,1538.6211,496.94,1534.6211" style="stroke:#181818;stroke-width:1.0;"/></g><!--link productOwner to support and apply authentication and authorization for all its users and functionalities--><g id="link_productOwner_support and apply authentication and authorization for all its users and functionalities"><path d="M115.96,1778.3711 C177.18,1788.5811 283.0917,1806.254 384.7817,1823.214 " fill="none" id="productOwner-to-support and apply authentication and authorization for all its users and functionalities" style="stroke:#181818;stroke-width:1.0;"/><polygon fill="#181818" points="390.7,1824.2011,382.4807,1818.775,385.7681,1823.3785,381.1646,1826.666,390.7,1824.2011" style="stroke:#181818;stroke-width:1.0;"/></g><!--link productOwner to process the files produced by the Applications Email Bot, so that they can be imported into the system by initiative of the Operator--><g id="link_productOwner_process the files produced by the Applications Email Bot, so that they can be imported into the system by initiative of the Operator"><path d="M115.96,1762.8711 C156.03,1756.1911 211.8517,1746.8678 278.2517,1735.7978 " fill="none" id="productOwner-to-process the files produced by the Applications Email Bot, so that they can be imported into the system by initiative of the Operator" style="stroke:#181818;stroke-width:1.0;"/><polygon fill="#181818" points="284.17,1734.8111,274.6347,1732.3456,279.2381,1735.6333,275.9503,1740.2367,284.17,1734.8111" style="stroke:#181818;stroke-width:1.0;"/></g><!--SRC=[pLPBRjim4Dtp50DjicckK21riskH0a4FG8iZUHgAP4agZXlqxXrIdyXov2Xe6jGBmnw- -Jy-wIBSaN7IomOQQsovyxP1YBv5yNJYP7adQxoD1utWiOpIr1h5nHCYxAIoUp8rL58751Fd4VyeW3-Vh5VeDrPR3rlDWSLl8JHM4Q85J_KkWgBaGzO88Sl8kE9ADMGAa05a-ZMORnnwoR_oYUt_38URDaJknSDNQRZu3bJsnjusOBzmWIqRuDhKPB07wzuw60VqDszLMqQusPiUwJfBDWWHAVASYky1OIFvwpF9cYTH237E0ehRGuZOPEyjJy5M5PK8Zo8FgGrO9i_2OqsCyydYmLOGTpZ15yTeHK5kEVWgC9hrMCr5P6Hu4JfMBCTXBoD-s6tQcs7Yd0aZZI8but8c0z8vJQLCf7ckTAdr51AWikVJyoITbeVicDfbRWLhf0QkGwOPB9Ubq6dBdaP1QKr5TUkHuKwtpA8PDg1cHkGC7d-spFi6JGmG79PKZTNopTZcJQaN2vz49CF3kIVSyyrMg5CKXkK8HyUXwsSvPeqcNItCFU63ivud2inU7X5R8pv4g8Yvn1bsg1tthSSgnZ6nTzWd1gdM9w4uhk6jKkRzL8HQTKiUqvzs2VFHjQxBmoaJMNY7BHTfOh-7xe1DrjElpfAtmHGXtbbtFHAcQasMBwaf4ivROwqeCOJSVsfXK0zUxlQGhLTJfbutaZIhPlm0mVAnp6CzfCOIAQX9DRClZz9cxv259SKYm_avp3qEjtOKp4vcifZ2vUN7bK8pmQ-HcWbyXTXCqEVb9gDdGZvhOguzQpnE-B_ez2f9MOpoUebP3FLcCh8cmz_AocAEzv6PNCFmhd1Ac-E9B-6UUU0SGzz9ltBc-MjAJw_pZw7iENrjwVVyJpNmDDz_8eRf7VGF]--></g></svg>