<?xml version="1.0" encoding="us-ascii" standalone="no"?><svg xmlns="http://www.w3.org/2000/svg" xmlns:xlink="http://www.w3.org/1999/xlink" contentStyleType="text/css" height="427px" preserveAspectRatio="none" style="width:600px;height:427px;background:#FFFFFF;" version="1.1" viewBox="0 0 600 427" width="600px" zoomAndPan="magnify"><defs/><g><text fill="#000000" font-family="sans-serif" font-size="14" font-weight="bold" lengthAdjust="spacing" textLength="231" x="186.25" y="28.5352">System Sequence Diagram (SSD)</text><rect fill="#FFFFFF" height="208.1738" style="stroke:#181818;stroke-width:1.0;" width="10" x="83.5" y="128.9766"/><rect fill="#FFFFFF" height="29.3105" style="stroke:#181818;stroke-width:1.0;" width="10" x="546.5" y="150.2871"/><rect fill="#FFFFFF" height="29.3105" style="stroke:#181818;stroke-width:1.0;" width="10" x="546.5" y="208.9082"/><rect fill="#FFFFFF" height="29.3105" style="stroke:#181818;stroke-width:1.0;" width="10" x="546.5" y="291.8398"/><rect fill="none" height="75.9316" style="stroke:#000000;stroke-width:1.5;" width="584.5" x="10" y="253.2188"/><line style="stroke:#181818;stroke-width:0.5;stroke-dasharray:5.0,5.0;" x1="88" x2="88" y1="118.9766" y2="346.1504"/><line style="stroke:#181818;stroke-width:0.5;stroke-dasharray:5.0,5.0;" x1="551.5" x2="551.5" y1="118.9766" y2="346.1504"/><text fill="#000000" font-family="sans-serif" font-size="14" lengthAdjust="spacing" textLength="131" x="20" y="116.0234">Customer Manager</text><ellipse cx="88.5" cy="50.9883" fill="#E3E3E3" rx="8" ry="8" style="stroke:#181818;stroke-width:0.5;"/><path d="M88.5,58.9883 L88.5,85.9883 M75.5,66.9883 L101.5,66.9883 M88.5,85.9883 L75.5,100.9883 M88.5,85.9883 L101.5,100.9883 " fill="none" style="stroke:#181818;stroke-width:0.5;"/><text fill="#000000" font-family="sans-serif" font-size="14" lengthAdjust="spacing" textLength="131" x="20" y="358.6855">Customer Manager</text><ellipse cx="88.5" cy="370.1387" fill="#E3E3E3" rx="8" ry="8" style="stroke:#181818;stroke-width:0.5;"/><path d="M88.5,378.1387 L88.5,405.1387 M75.5,386.1387 L101.5,386.1387 M88.5,405.1387 L75.5,420.1387 M88.5,405.1387 L101.5,420.1387 " fill="none" style="stroke:#181818;stroke-width:0.5;"/><rect fill="#E3E3E3" height="30.4883" rx="2.5" ry="2.5" style="stroke:#181818;stroke-width:0.5;" width="66" x="518.5" y="87.4883"/><text fill="#000000" font-family="sans-serif" font-size="14" lengthAdjust="spacing" textLength="52" x="525.5" y="108.0234">:System</text><rect fill="#E3E3E3" height="30.4883" rx="2.5" ry="2.5" style="stroke:#181818;stroke-width:0.5;" width="66" x="518.5" y="345.1504"/><text fill="#000000" font-family="sans-serif" font-size="14" lengthAdjust="spacing" textLength="52" x="525.5" y="365.6855">:System</text><rect fill="#FFFFFF" height="208.1738" style="stroke:#181818;stroke-width:1.0;" width="10" x="83.5" y="128.9766"/><rect fill="#FFFFFF" height="29.3105" style="stroke:#181818;stroke-width:1.0;" width="10" x="546.5" y="150.2871"/><rect fill="#FFFFFF" height="29.3105" style="stroke:#181818;stroke-width:1.0;" width="10" x="546.5" y="208.9082"/><rect fill="#FFFFFF" height="29.3105" style="stroke:#181818;stroke-width:1.0;" width="10" x="546.5" y="291.8398"/><polygon fill="#181818" points="534.5,146.2871,544.5,150.2871,534.5,154.2871,538.5,150.2871" style="stroke:#181818;stroke-width:1.0;"/><line style="stroke:#181818;stroke-width:1.0;" x1="93.5" x2="540.5" y1="150.2871" y2="150.2871"/><text fill="#000000" font-family="sans-serif" font-size="13" font-weight="bold" lengthAdjust="spacing" textLength="9" x="100.5" y="145.5449">1</text><text fill="#000000" font-family="sans-serif" font-size="13" lengthAdjust="spacing" textLength="279" x="113.5" y="145.5449">asks to verify requirements of a job opening</text><polygon fill="#181818" points="104.5,175.5977,94.5,179.5977,104.5,183.5977,100.5,179.5977" style="stroke:#181818;stroke-width:1.0;"/><line style="stroke:#181818;stroke-width:1.0;stroke-dasharray:2.0,2.0;" x1="98.5" x2="550.5" y1="179.5977" y2="179.5977"/><text fill="#000000" font-family="sans-serif" font-size="13" font-weight="bold" lengthAdjust="spacing" textLength="9" x="110.5" y="174.8555">2</text><text fill="#000000" font-family="sans-serif" font-size="13" lengthAdjust="spacing" textLength="184" x="123.5" y="174.8555">shows the list of job opening</text><polygon fill="#181818" points="534.5,204.9082,544.5,208.9082,534.5,212.9082,538.5,208.9082" style="stroke:#181818;stroke-width:1.0;"/><line style="stroke:#181818;stroke-width:1.0;" x1="93.5" x2="540.5" y1="208.9082" y2="208.9082"/><text fill="#000000" font-family="sans-serif" font-size="13" font-weight="bold" lengthAdjust="spacing" textLength="9" x="100.5" y="204.166">3</text><text fill="#000000" font-family="sans-serif" font-size="13" lengthAdjust="spacing" textLength="134" x="113.5" y="204.166">selects a job opening</text><polygon fill="#181818" points="104.5,234.2188,94.5,238.2188,104.5,242.2188,100.5,238.2188" style="stroke:#181818;stroke-width:1.0;"/><line style="stroke:#181818;stroke-width:1.0;stroke-dasharray:2.0,2.0;" x1="98.5" x2="550.5" y1="238.2188" y2="238.2188"/><text fill="#000000" font-family="sans-serif" font-size="13" font-weight="bold" lengthAdjust="spacing" textLength="9" x="110.5" y="233.4766">4</text><text fill="#000000" font-family="sans-serif" font-size="13" lengthAdjust="spacing" textLength="362" x="123.5" y="233.4766">shows the list of applications of the selected job opening</text><path d="M10,253.2188 L84,253.2188 L84,260.5293 L74,270.5293 L10,270.5293 L10,253.2188 " fill="#EEEEEE" style="stroke:#000000;stroke-width:1.5;"/><rect fill="none" height="75.9316" style="stroke:#000000;stroke-width:1.5;" width="584.5" x="10" y="253.2188"/><text fill="#000000" font-family="sans-serif" font-size="13" font-weight="bold" lengthAdjust="spacing" textLength="29" x="25" y="266.7871">loop</text><polygon fill="#181818" points="534.5,287.8398,544.5,291.8398,534.5,295.8398,538.5,291.8398" style="stroke:#181818;stroke-width:1.0;"/><line style="stroke:#181818;stroke-width:1.0;" x1="93.5" x2="540.5" y1="291.8398" y2="291.8398"/><text fill="#000000" font-family="sans-serif" font-size="13" font-weight="bold" lengthAdjust="spacing" textLength="9" x="100.5" y="287.0977">5</text><text fill="#000000" font-family="sans-serif" font-size="13" lengthAdjust="spacing" textLength="129" x="113.5" y="287.0977">selects a application</text><polygon fill="#181818" points="104.5,317.1504,94.5,321.1504,104.5,325.1504,100.5,321.1504" style="stroke:#181818;stroke-width:1.0;"/><line style="stroke:#181818;stroke-width:1.0;stroke-dasharray:2.0,2.0;" x1="98.5" x2="550.5" y1="321.1504" y2="321.1504"/><text fill="#000000" font-family="sans-serif" font-size="13" font-weight="bold" lengthAdjust="spacing" textLength="9" x="110.5" y="316.4082">6</text><text fill="#000000" font-family="sans-serif" font-size="13" lengthAdjust="spacing" textLength="416" x="123.5" y="316.4082">verify the requirements and show the result (accepted or declined)</text><!--SRC=[ZP8zai8m38Lxdq931GKNeDW6MggSG3WYySQnZ2t3vFQh_C2mpEw0Ai_e-RtlnScT2n4Jzj1pODicxWaa5JBviObeEsoeai4J9BA2eV7FWjnYpJSN6ZYZpsICE55fDMIX7Ygw50gMuE2m6UNhgZfiZC4Y74f_egHdAvnWjIzP52314OCcfXLWXltHQ8muwo86WTLkzfrsyt6wxwueD8eDwEoFiFsw4-nKscKGXYibTnwqnAMuH3q5oS1dGFZc4t2ae2Mc-m_3Um8iirXkrLqpTjgTRshT4dYNPJHxjQhfJxCNmanUlsp-5EKz1iRedKLn7AQEusuEeVeJHiyStv0-HNnEkZp1YFFh6J3KKujbauiNMAEr54TW_Jjgiju5gZV_4PCwpDGwFm00]--></g></svg>