<?xml version="1.0" encoding="us-ascii" standalone="no"?><svg xmlns="http://www.w3.org/2000/svg" xmlns:xlink="http://www.w3.org/1999/xlink" contentStyleType="text/css" height="427px" preserveAspectRatio="none" style="width:536px;height:427px;background:#FFFFFF;" version="1.1" viewBox="0 0 536 427" width="536px" zoomAndPan="magnify"><defs/><g><text fill="#000000" font-family="sans-serif" font-size="14" font-weight="bold" lengthAdjust="spacing" textLength="231" x="154.25" y="28.5352">System Sequence Diagram (SSD)</text><rect fill="#FFFFFF" height="208.1738" style="stroke:#181818;stroke-width:1.0;" width="10" x="83.5" y="128.9766"/><rect fill="#FFFFFF" height="29.3105" style="stroke:#181818;stroke-width:1.0;" width="10" x="482.5" y="150.2871"/><rect fill="#FFFFFF" height="119.2422" style="stroke:#181818;stroke-width:1.0;" width="10" x="482.5" y="208.9082"/><rect fill="none" height="75.9316" style="stroke:#000000;stroke-width:1.5;" width="520.5" x="10" y="223.9082"/><line style="stroke:#181818;stroke-width:0.5;stroke-dasharray:5.0,5.0;" x1="88" x2="88" y1="118.9766" y2="346.1504"/><line style="stroke:#181818;stroke-width:0.5;stroke-dasharray:5.0,5.0;" x1="487.5" x2="487.5" y1="118.9766" y2="346.1504"/><text fill="#000000" font-family="sans-serif" font-size="14" lengthAdjust="spacing" textLength="131" x="20" y="116.0234">Customer Manager</text><ellipse cx="88.5" cy="50.9883" fill="#E3E3E3" rx="8" ry="8" style="stroke:#181818;stroke-width:0.5;"/><path d="M88.5,58.9883 L88.5,85.9883 M75.5,66.9883 L101.5,66.9883 M88.5,85.9883 L75.5,100.9883 M88.5,85.9883 L101.5,100.9883 " fill="none" style="stroke:#181818;stroke-width:0.5;"/><text fill="#000000" font-family="sans-serif" font-size="14" lengthAdjust="spacing" textLength="131" x="20" y="358.6855">Customer Manager</text><ellipse cx="88.5" cy="370.1387" fill="#E3E3E3" rx="8" ry="8" style="stroke:#181818;stroke-width:0.5;"/><path d="M88.5,378.1387 L88.5,405.1387 M75.5,386.1387 L101.5,386.1387 M88.5,405.1387 L75.5,420.1387 M88.5,405.1387 L101.5,420.1387 " fill="none" style="stroke:#181818;stroke-width:0.5;"/><rect fill="#E3E3E3" height="30.4883" rx="2.5" ry="2.5" style="stroke:#181818;stroke-width:0.5;" width="66" x="454.5" y="87.4883"/><text fill="#000000" font-family="sans-serif" font-size="14" lengthAdjust="spacing" textLength="52" x="461.5" y="108.0234">:System</text><rect fill="#E3E3E3" height="30.4883" rx="2.5" ry="2.5" style="stroke:#181818;stroke-width:0.5;" width="66" x="454.5" y="345.1504"/><text fill="#000000" font-family="sans-serif" font-size="14" lengthAdjust="spacing" textLength="52" x="461.5" y="365.6855">:System</text><rect fill="#FFFFFF" height="208.1738" style="stroke:#181818;stroke-width:1.0;" width="10" x="83.5" y="128.9766"/><rect fill="#FFFFFF" height="29.3105" style="stroke:#181818;stroke-width:1.0;" width="10" x="482.5" y="150.2871"/><rect fill="#FFFFFF" height="119.2422" style="stroke:#181818;stroke-width:1.0;" width="10" x="482.5" y="208.9082"/><polygon fill="#181818" points="470.5,146.2871,480.5,150.2871,470.5,154.2871,474.5,150.2871" style="stroke:#181818;stroke-width:1.0;"/><line style="stroke:#181818;stroke-width:1.0;" x1="93.5" x2="476.5" y1="150.2871" y2="150.2871"/><text fill="#000000" font-family="sans-serif" font-size="13" font-weight="bold" lengthAdjust="spacing" textLength="9" x="100.5" y="145.5449">1</text><text fill="#000000" font-family="sans-serif" font-size="13" lengthAdjust="spacing" textLength="279" x="113.5" y="145.5449">asks to verify requirements of a job opening</text><polygon fill="#181818" points="104.5,175.5977,94.5,179.5977,104.5,183.5977,100.5,179.5977" style="stroke:#181818;stroke-width:1.0;"/><line style="stroke:#181818;stroke-width:1.0;stroke-dasharray:2.0,2.0;" x1="98.5" x2="486.5" y1="179.5977" y2="179.5977"/><text fill="#000000" font-family="sans-serif" font-size="13" font-weight="bold" lengthAdjust="spacing" textLength="9" x="110.5" y="174.8555">2</text><text fill="#000000" font-family="sans-serif" font-size="13" lengthAdjust="spacing" textLength="184" x="123.5" y="174.8555">shows the list of job opening</text><polygon fill="#181818" points="470.5,204.9082,480.5,208.9082,470.5,212.9082,474.5,208.9082" style="stroke:#181818;stroke-width:1.0;"/><line style="stroke:#181818;stroke-width:1.0;" x1="93.5" x2="476.5" y1="208.9082" y2="208.9082"/><text fill="#000000" font-family="sans-serif" font-size="13" font-weight="bold" lengthAdjust="spacing" textLength="9" x="100.5" y="204.166">3</text><text fill="#000000" font-family="sans-serif" font-size="13" lengthAdjust="spacing" textLength="134" x="113.5" y="204.166">selects a job opening</text><path d="M10,223.9082 L84,223.9082 L84,231.2188 L74,241.2188 L10,241.2188 L10,223.9082 " fill="#EEEEEE" style="stroke:#000000;stroke-width:1.5;"/><rect fill="none" height="75.9316" style="stroke:#000000;stroke-width:1.5;" width="520.5" x="10" y="223.9082"/><text fill="#000000" font-family="sans-serif" font-size="13" font-weight="bold" lengthAdjust="spacing" textLength="29" x="25" y="237.4766">loop</text><text fill="#000000" font-family="sans-serif" font-size="11" font-weight="bold" lengthAdjust="spacing" textLength="277" x="99" y="236.543">[for each application of the selected job opening]</text><polygon fill="#181818" points="470.5,258.5293,480.5,262.5293,470.5,266.5293,474.5,262.5293" style="stroke:#181818;stroke-width:1.0;"/><line style="stroke:#181818;stroke-width:1.0;" x1="93.5" x2="476.5" y1="262.5293" y2="262.5293"/><text fill="#000000" font-family="sans-serif" font-size="13" font-weight="bold" lengthAdjust="spacing" textLength="9" x="100.5" y="257.7871">4</text><text fill="#000000" font-family="sans-serif" font-size="13" lengthAdjust="spacing" textLength="137" x="113.5" y="257.7871">selects an application</text><polygon fill="#181818" points="104.5,287.8398,94.5,291.8398,104.5,295.8398,100.5,291.8398" style="stroke:#181818;stroke-width:1.0;"/><line style="stroke:#181818;stroke-width:1.0;stroke-dasharray:2.0,2.0;" x1="98.5" x2="481.5" y1="291.8398" y2="291.8398"/><text fill="#000000" font-family="sans-serif" font-size="13" font-weight="bold" lengthAdjust="spacing" textLength="9" x="110.5" y="287.0977">5</text><text fill="#000000" font-family="sans-serif" font-size="13" lengthAdjust="spacing" textLength="146" x="123.5" y="287.0977">verify the requirements</text><polygon fill="#181818" points="104.5,324.1504,94.5,328.1504,104.5,332.1504,100.5,328.1504" style="stroke:#181818;stroke-width:1.0;"/><line style="stroke:#181818;stroke-width:1.0;stroke-dasharray:2.0,2.0;" x1="98.5" x2="486.5" y1="328.1504" y2="328.1504"/><text fill="#000000" font-family="sans-serif" font-size="13" font-weight="bold" lengthAdjust="spacing" textLength="9" x="110.5" y="323.4082">6</text><text fill="#000000" font-family="sans-serif" font-size="13" lengthAdjust="spacing" textLength="352" x="123.5" y="323.4082">show the result(accepted or declined) of all applications</text><!--SRC=[ZP4nai8m34Lxdq931GKNeDW6sbGvWN2Kn8jZ6qk1uVOh9u41PjbPLvxnr_jVttno8M760OOOekrp70WaZsJuyPBGdh2ZMcwU89CL39r_5d2FJRowq46BdiaOSQBI-iP20zHq7YbOWeF3hiZNTNtO68EZn30EHyfwjn8phFOZYmR8K65Gnxm2PDXNHct4MPSm2AnsCtTwcw_JlBkWK14RqBElOFjrJx1JwOb18bmek_QcIvn7bscW80on1OJlU8IOAEWIq_m3U7U0vIp8hTBLOwUxnwkYUmBlM0hi7TNGhx2tX4nUc-N_HF4n9cYrBmNtW2bvPr5S3CMz99bPrBoW_ZGDpvXP-hxeKbtXlzHdA3HG8arJvbD7oo2FNjPeBQMIJtTeo7eNgDbC_-3zSn0sdmeivmS0]--></g></svg>