<?xml version="1.0" encoding="us-ascii" standalone="no"?><svg xmlns="http://www.w3.org/2000/svg" xmlns:xlink="http://www.w3.org/1999/xlink" contentStyleType="text/css" height="582px" preserveAspectRatio="none" style="width:1039px;height:582px;background:#FFFFFF;" version="1.1" viewBox="0 0 1039 582" width="1039px" zoomAndPan="magnify"><defs/><g><!--cluster ui--><g id="cluster_ui"><path d="M8.5,81.98 L23.5,81.98 A3.75,3.75 0 0 1 26,84.48 L33,104.4683 L325.5,104.4683 A2.5,2.5 0 0 1 328,106.9683 L328,211.45 A2.5,2.5 0 0 1 325.5,213.95 L8.5,213.95 A2.5,2.5 0 0 1 6,211.45 L6,84.48 A2.5,2.5 0 0 1 8.5,81.98 " fill="none" style="stroke:#000000;stroke-width:1.5;"/><line style="stroke:#000000;stroke-width:1.5;" x1="6" x2="33" y1="104.4683" y2="104.4683"/><text fill="#000000" font-family="sans-serif" font-size="14" font-weight="bold" lengthAdjust="spacing" textLength="14" x="10" y="97.5152">ui</text></g><!--cluster customer--><g id="cluster_customer"><path d="M354.5,6 L422.5,6 A3.75,3.75 0 0 1 425,8.5 L432,28.4883 L1029.5,28.4883 A2.5,2.5 0 0 1 1032,30.9883 L1032,572.8 A2.5,2.5 0 0 1 1029.5,575.3 L354.5,575.3 A2.5,2.5 0 0 1 352,572.8 L352,8.5 A2.5,2.5 0 0 1 354.5,6 " fill="none" style="stroke:#000000;stroke-width:1.5;"/><line style="stroke:#000000;stroke-width:1.5;" x1="352" x2="432" y1="28.4883" y2="28.4883"/><text fill="#000000" font-family="sans-serif" font-size="14" font-weight="bold" lengthAdjust="spacing" textLength="67" x="356" y="21.5352">customer</text></g><!--cluster application--><g id="cluster_application"><path d="M412.5,49 L493.5,49 A3.75,3.75 0 0 1 496,51.5 L503,71.4883 L903.5,71.4883 A2.5,2.5 0 0 1 906,73.9883 L906,244.43 A2.5,2.5 0 0 1 903.5,246.93 L412.5,246.93 A2.5,2.5 0 0 1 410,244.43 L410,51.5 A2.5,2.5 0 0 1 412.5,49 " fill="none" style="stroke:#000000;stroke-width:1.5;"/><line style="stroke:#000000;stroke-width:1.5;" x1="410" x2="503" y1="71.4883" y2="71.4883"/><text fill="#000000" font-family="sans-serif" font-size="14" font-weight="bold" lengthAdjust="spacing" textLength="80" x="414" y="64.5352">application</text></g><!--cluster domain--><g id="cluster_domain"><path d="M378.5,270.93 L433.5,270.93 A3.75,3.75 0 0 1 436,273.43 L443,293.4183 L1005.5,293.4183 A2.5,2.5 0 0 1 1008,295.9183 L1008,548.8 A2.5,2.5 0 0 1 1005.5,551.3 L378.5,551.3 A2.5,2.5 0 0 1 376,548.8 L376,273.43 A2.5,2.5 0 0 1 378.5,270.93 " fill="none" style="stroke:#000000;stroke-width:1.5;"/><line style="stroke:#000000;stroke-width:1.5;" x1="376" x2="443" y1="293.4183" y2="293.4183"/><text fill="#000000" font-family="sans-serif" font-size="14" font-weight="bold" lengthAdjust="spacing" textLength="54" x="380" y="286.4652">domain</text></g><!--class GenerateRequirementsSpecificationUI--><g id="elem_GenerateRequirementsSpecificationUI"><rect codeLine="5" fill="#F1F1F1" height="80.9766" id="GenerateRequirementsSpecificationUI" rx="2.5" ry="2.5" style="stroke:#181818;stroke-width:0.5;" width="290" x="22" y="116.98"/><ellipse cx="37" cy="132.98" fill="#ADD1B2" rx="11" ry="11" style="stroke:#181818;stroke-width:1.0;"/><path d="M39.9731,138.6231 Q39.3921,138.9219 38.7529,139.0713 Q38.1138,139.2207 37.4082,139.2207 Q34.9014,139.2207 33.5815,137.5689 Q32.2617,135.917 32.2617,132.7959 Q32.2617,129.6665 33.5815,128.0147 Q34.9014,126.3628 37.4082,126.3628 Q38.1138,126.3628 38.7612,126.5122 Q39.4087,126.6616 39.9731,126.9605 L39.9731,129.6831 Q39.3423,129.1021 38.7488,128.8323 Q38.1553,128.5625 37.5244,128.5625 Q36.1797,128.5625 35.4949,129.6292 Q34.8101,130.6958 34.8101,132.7959 Q34.8101,134.8877 35.4949,135.9544 Q36.1797,137.021 37.5244,137.021 Q38.1553,137.021 38.7488,136.7512 Q39.3423,136.4815 39.9731,135.9004 Z " fill="#000000"/><text fill="#000000" font-family="sans-serif" font-size="14" lengthAdjust="spacing" textLength="258" x="51" y="138.271">GenerateRequirementsSpecificationUI</text><line style="stroke:#181818;stroke-width:0.5;" x1="23" x2="311" y1="148.98" y2="148.98"/><line style="stroke:#181818;stroke-width:0.5;" x1="23" x2="311" y1="156.98" y2="156.98"/><text fill="#000000" font-family="sans-serif" font-size="14" lengthAdjust="spacing" textLength="76" x="28" y="174.5152">+doShow()</text><text fill="#000000" font-family="sans-serif" font-size="14" lengthAdjust="spacing" textLength="80" x="28" y="191.0034">+headline()</text></g><!--class GenerateRequirementsSpecificationController--><g id="elem_GenerateRequirementsSpecificationController"><rect codeLine="16" fill="#F1F1F1" height="146.9297" id="GenerateRequirementsSpecificationController" rx="2.5" ry="2.5" style="stroke:#181818;stroke-width:0.5;" width="465" x="425.5" y="84"/><ellipse cx="496.75" cy="100" fill="#ADD1B2" rx="11" ry="11" style="stroke:#181818;stroke-width:1.0;"/><path d="M499.7231,105.6431 Q499.1421,105.9419 498.5029,106.0913 Q497.8638,106.2407 497.1582,106.2407 Q494.6514,106.2407 493.3315,104.5889 Q492.0117,102.937 492.0117,99.8159 Q492.0117,96.6865 493.3315,95.0347 Q494.6514,93.3828 497.1582,93.3828 Q497.8638,93.3828 498.5112,93.5322 Q499.1587,93.6816 499.7231,93.9805 L499.7231,96.7031 Q499.0923,96.1221 498.4988,95.8523 Q497.9053,95.5825 497.2744,95.5825 Q495.9297,95.5825 495.2449,96.6492 Q494.5601,97.7158 494.5601,99.8159 Q494.5601,101.9077 495.2449,102.9744 Q495.9297,104.041 497.2744,104.041 Q497.9053,104.041 498.4988,103.7712 Q499.0923,103.5015 499.7231,102.9204 Z " fill="#000000"/><text fill="#000000" font-family="sans-serif" font-size="14" lengthAdjust="spacing" textLength="314" x="517.25" y="105.291">GenerateRequirementsSpecificationController</text><line style="stroke:#181818;stroke-width:0.5;" x1="426.5" x2="889.5" y1="116" y2="116"/><line style="stroke:#181818;stroke-width:0.5;" x1="426.5" x2="889.5" y1="124" y2="124"/><text fill="#000000" font-family="sans-serif" font-size="14" lengthAdjust="spacing" textLength="158" x="431.5" y="141.5352">+getAcademicDegree()</text><text fill="#000000" font-family="sans-serif" font-size="14" lengthAdjust="spacing" textLength="184" x="431.5" y="158.0234">+displayAcademicDegree()</text><text fill="#000000" font-family="sans-serif" font-size="14" lengthAdjust="spacing" textLength="211" x="431.5" y="174.5117">+getProgrammingLanguages()</text><text fill="#000000" font-family="sans-serif" font-size="14" lengthAdjust="spacing" textLength="237" x="431.5" y="191">+displayProgrammingLanguages()</text><text fill="#000000" font-family="sans-serif" font-size="14" lengthAdjust="spacing" textLength="453" x="431.5" y="207.4883">+writeListToFile(List&lt;String&gt; requirementsForFile, String filePath)</text><text fill="#000000" font-family="sans-serif" font-size="14" lengthAdjust="spacing" textLength="300" x="431.5" y="223.9766">+readAndProcessProgrammingLanguages()</text></g><!--class JobRequirementsSpecification--><g id="elem_JobRequirementsSpecification"><rect codeLine="30" fill="#F1F1F1" height="229.3711" id="JobRequirementsSpecification" rx="2.5" ry="2.5" style="stroke:#181818;stroke-width:0.5;" width="601" x="391.5" y="305.93"/><ellipse cx="585.75" cy="321.93" fill="#ADD1B2" rx="11" ry="11" style="stroke:#181818;stroke-width:1.0;"/><path d="M588.7231,327.5731 Q588.1421,327.8719 587.5029,328.0213 Q586.8638,328.1707 586.1582,328.1707 Q583.6514,328.1707 582.3315,326.5189 Q581.0117,324.867 581.0117,321.7459 Q581.0117,318.6165 582.3315,316.9647 Q583.6514,315.3128 586.1582,315.3128 Q586.8638,315.3128 587.5112,315.4622 Q588.1587,315.6116 588.7231,315.9105 L588.7231,318.6331 Q588.0923,318.0521 587.4988,317.7823 Q586.9053,317.5125 586.2744,317.5125 Q584.9297,317.5125 584.2449,318.5792 Q583.5601,319.6458 583.5601,321.7459 Q583.5601,323.8377 584.2449,324.9044 Q584.9297,325.971 586.2744,325.971 Q586.9053,325.971 587.4988,325.7012 Q588.0923,325.4315 588.7231,324.8504 Z " fill="#000000"/><text fill="#000000" font-family="sans-serif" font-size="14" lengthAdjust="spacing" textLength="204" x="606.25" y="327.221">JobRequirementsSpecification</text><line style="stroke:#181818;stroke-width:0.5;" x1="392.5" x2="991.5" y1="337.93" y2="337.93"/><text fill="#000000" font-family="sans-serif" font-size="14" lengthAdjust="spacing" textLength="169" x="397.5" y="355.4652">-Integer idRequirements</text><text fill="#000000" font-family="sans-serif" font-size="14" lengthAdjust="spacing" textLength="199" x="397.5" y="371.9534">-Requirements requirements</text><line style="stroke:#181818;stroke-width:0.5;" x1="392.5" x2="991.5" y1="378.9066" y2="378.9066"/><text fill="#000000" font-family="sans-serif" font-size="14" lengthAdjust="spacing" textLength="589" x="397.5" y="396.4417">+JobRequirementsSpecification(Requirements requirements , Integer idRequirements)</text><text fill="#000000" font-family="sans-serif" font-size="14" lengthAdjust="spacing" textLength="225" x="397.5" y="412.93">+JobRequirementsSpecification()</text><text fill="#000000" font-family="sans-serif" font-size="14" lengthAdjust="spacing" textLength="123" x="397.5" y="429.4183">+equals(Object o)</text><text fill="#000000" font-family="sans-serif" font-size="14" lengthAdjust="spacing" textLength="90" x="397.5" y="445.9066">+hashCode()</text><text fill="#000000" font-family="sans-serif" font-size="14" lengthAdjust="spacing" textLength="159" x="397.5" y="462.3948">+sameAs(Object other)</text><text fill="#000000" font-family="sans-serif" font-size="14" lengthAdjust="spacing" textLength="189" x="397.5" y="478.8831">+compareTo(Integer other)</text><text fill="#000000" font-family="sans-serif" font-size="14" lengthAdjust="spacing" textLength="113" x="397.5" y="495.3714">+requirements()</text><text fill="#000000" font-family="sans-serif" font-size="14" lengthAdjust="spacing" textLength="72" x="397.5" y="511.8597">+identity()</text><text fill="#000000" font-family="sans-serif" font-size="14" lengthAdjust="spacing" textLength="257" x="397.5" y="528.348">+hasIdentity(Integer idRequirements)</text></g><!--link GenerateRequirementsSpecificationUI to GenerateRequirementsSpecificationController--><g id="link_GenerateRequirementsSpecificationUI_GenerateRequirementsSpecificationController"><path codeLine="46" d="M312.29,157.46 C349.87,157.46 381.46,157.46 419.05,157.46 " fill="none" id="GenerateRequirementsSpecificationUI-to-GenerateRequirementsSpecificationController" style="stroke:#181818;stroke-width:1.0;"/><polygon fill="#181818" points="425.05,157.46,416.05,153.46,420.05,157.46,416.05,161.46,425.05,157.46" style="stroke:#181818;stroke-width:1.0;"/></g><!--link GenerateRequirementsSpecificationController to JobRequirementsSpecification--><g id="link_GenerateRequirementsSpecificationController_JobRequirementsSpecification"><path codeLine="48" d="M667.47,231.21 C670.48,254.3 673.1054,274.4602 676.3954,299.7302 " fill="none" id="GenerateRequirementsSpecificationController-to-JobRequirementsSpecification" style="stroke:#181818;stroke-width:1.0;"/><polygon fill="#181818" points="677.17,305.68,679.9746,296.2389,676.5245,300.7218,672.0415,297.2717,677.17,305.68" style="stroke:#181818;stroke-width:1.0;"/></g><!--SRC=[bLFjJkGm3FoVfx3uLNIin0ESa5QSE2r20jt20tWJqnhQk9UuGjoATySfNmLHRcd_n1bxPZHryot77XDsu5lCUQcQU3CehRp4DVyZE7GgFQZ0HbIbWy29lB94vthqjrWJx0syjtNZFFocI0cL_j3VmJexYfhNFNc-Pezbx6grTUu715atSbVjsx4X32r7ikB1tZTQFsHJf6Ja3knv1R3lssUwWkseV2nHaxGjfT51JRhq6AXZ_ulgH3IQ2Ppx5ky_GQp_8abjKNKSwpECzM1cydHg5hzBh7J6MI_bX5kgol7dsgAEzH6aYU4JIQNX09v0kBRY0hKf9CboMiPW8fvodj7w466G3daIqgbiPlFPkWMieb9D2JXCsmoObkySboY_Ogrc9-5WHcx_VvIbmK1iStM-kR5r11aN2NDpBE7fSsNiQFc6QqEfN7lfRDtfKgeNxLTewcsau617rllgcNprKi_PVYZnx_07mE88lhElpdsZ6HR6_bLyxX40]--></g></svg>