<?xml version="1.0" encoding="us-ascii" standalone="no"?><svg xmlns="http://www.w3.org/2000/svg" xmlns:xlink="http://www.w3.org/1999/xlink" contentStyleType="text/css" height="624px" preserveAspectRatio="none" style="width:1240px;height:624px;background:#FFFFFF;" version="1.1" viewBox="0 0 1240 624" width="1240px" zoomAndPan="magnify"><defs/><g><rect fill="#FFFFFF" height="442.6582" style="stroke:#181818;stroke-width:1.0;" width="10" x="49" y="91.4883"/><rect fill="#FFFFFF" height="87.9316" style="stroke:#181818;stroke-width:1.0;" width="10" x="755" y="112.7988"/><rect fill="#FFFFFF" height="112.2422" style="stroke:#181818;stroke-width:1.0;" width="10" x="755" y="230.041"/><rect fill="#FFFFFF" height="36.3105" style="stroke:#181818;stroke-width:1.0;" width="10" x="755" y="371.5938"/><rect fill="#FFFFFF" height="29.3105" style="stroke:#181818;stroke-width:1.0;" width="10" x="755" y="437.2148"/><rect fill="#FFFFFF" height="29.3105" style="stroke:#181818;stroke-width:1.0;" width="10" x="755" y="495.8359"/><rect fill="#FFFFFF" height="29.3105" style="stroke:#181818;stroke-width:1.0;" width="10" x="1065" y="142.1094"/><rect fill="#FFFFFF" height="29.3105" style="stroke:#181818;stroke-width:1.0;" width="10" x="1065" y="259.3516"/><rect fill="none" height="75.9316" style="stroke:#000000;stroke-width:1.5;" width="896" x="10" y="303.6621"/><line style="stroke:#181818;stroke-width:0.5;stroke-dasharray:5.0,5.0;" x1="54" x2="54" y1="81.4883" y2="543.1465"/><line style="stroke:#181818;stroke-width:0.5;stroke-dasharray:5.0,5.0;" x1="760" x2="760" y1="81.4883" y2="543.1465"/><line style="stroke:#181818;stroke-width:0.5;stroke-dasharray:5.0,5.0;" x1="1070" x2="1070" y1="81.4883" y2="543.1465"/><text fill="#000000" font-family="sans-serif" font-size="14" lengthAdjust="spacing" textLength="62" x="20" y="78.5352">Operator</text><ellipse cx="54" cy="13.5" fill="#E3E3E3" rx="8" ry="8" style="stroke:#181818;stroke-width:0.5;"/><path d="M54,21.5 L54,48.5 M41,29.5 L67,29.5 M54,48.5 L41,63.5 M54,48.5 L67,63.5 " fill="none" style="stroke:#181818;stroke-width:0.5;"/><text fill="#000000" font-family="sans-serif" font-size="14" lengthAdjust="spacing" textLength="62" x="20" y="555.6816">Operator</text><ellipse cx="54" cy="567.1348" fill="#E3E3E3" rx="8" ry="8" style="stroke:#181818;stroke-width:0.5;"/><path d="M54,575.1348 L54,602.1348 M41,583.1348 L67,583.1348 M54,602.1348 L41,617.1348 M54,602.1348 L67,617.1348 " fill="none" style="stroke:#181818;stroke-width:0.5;"/><rect fill="#E3E3E3" height="30.4883" rx="2.5" ry="2.5" style="stroke:#181818;stroke-width:0.5;" width="272" x="624" y="50"/><text fill="#000000" font-family="sans-serif" font-size="14" lengthAdjust="spacing" textLength="258" x="631" y="70.5352">GenerateRequirementsSpecificationUI</text><rect fill="#E3E3E3" height="30.4883" rx="2.5" ry="2.5" style="stroke:#181818;stroke-width:0.5;" width="272" x="624" y="542.1465"/><text fill="#000000" font-family="sans-serif" font-size="14" lengthAdjust="spacing" textLength="258" x="631" y="562.6816">GenerateRequirementsSpecificationUI</text><rect fill="#E3E3E3" height="30.4883" rx="2.5" ry="2.5" style="stroke:#181818;stroke-width:0.5;" width="328" x="906" y="50"/><text fill="#000000" font-family="sans-serif" font-size="14" lengthAdjust="spacing" textLength="314" x="913" y="70.5352">GenerateRequirementsSpecificationController</text><rect fill="#E3E3E3" height="30.4883" rx="2.5" ry="2.5" style="stroke:#181818;stroke-width:0.5;" width="328" x="906" y="542.1465"/><text fill="#000000" font-family="sans-serif" font-size="14" lengthAdjust="spacing" textLength="314" x="913" y="562.6816">GenerateRequirementsSpecificationController</text><rect fill="#FFFFFF" height="442.6582" style="stroke:#181818;stroke-width:1.0;" width="10" x="49" y="91.4883"/><rect fill="#FFFFFF" height="87.9316" style="stroke:#181818;stroke-width:1.0;" width="10" x="755" y="112.7988"/><rect fill="#FFFFFF" height="112.2422" style="stroke:#181818;stroke-width:1.0;" width="10" x="755" y="230.041"/><rect fill="#FFFFFF" height="36.3105" style="stroke:#181818;stroke-width:1.0;" width="10" x="755" y="371.5938"/><rect fill="#FFFFFF" height="29.3105" style="stroke:#181818;stroke-width:1.0;" width="10" x="755" y="437.2148"/><rect fill="#FFFFFF" height="29.3105" style="stroke:#181818;stroke-width:1.0;" width="10" x="755" y="495.8359"/><rect fill="#FFFFFF" height="29.3105" style="stroke:#181818;stroke-width:1.0;" width="10" x="1065" y="142.1094"/><rect fill="#FFFFFF" height="29.3105" style="stroke:#181818;stroke-width:1.0;" width="10" x="1065" y="259.3516"/><polygon fill="#181818" points="743,108.7988,753,112.7988,743,116.7988,747,112.7988" style="stroke:#181818;stroke-width:1.0;"/><line style="stroke:#181818;stroke-width:1.0;" x1="59" x2="749" y1="112.7988" y2="112.7988"/><text fill="#000000" font-family="sans-serif" font-size="13" font-weight="bold" lengthAdjust="spacing" textLength="9" x="66" y="108.0566">1</text><text fill="#000000" font-family="sans-serif" font-size="13" lengthAdjust="spacing" textLength="664" x="79" y="108.0566">asks to generate and export a template text file to help collect data fields for candidates of a job opening</text><polygon fill="#181818" points="1053,138.1094,1063,142.1094,1053,146.1094,1057,142.1094" style="stroke:#181818;stroke-width:1.0;"/><line style="stroke:#181818;stroke-width:1.0;" x1="765" x2="1059" y1="142.1094" y2="142.1094"/><text fill="#000000" font-family="sans-serif" font-size="13" font-weight="bold" lengthAdjust="spacing" textLength="9" x="772" y="137.3672">2</text><text fill="#000000" font-family="sans-serif" font-size="13" lengthAdjust="spacing" textLength="158" x="785" y="137.3672">displayAcademicDegree()</text><polygon fill="#181818" points="776,167.4199,766,171.4199,776,175.4199,772,171.4199" style="stroke:#181818;stroke-width:1.0;"/><line style="stroke:#181818;stroke-width:1.0;stroke-dasharray:2.0,2.0;" x1="770" x2="1069" y1="171.4199" y2="171.4199"/><text fill="#000000" font-family="sans-serif" font-size="13" font-weight="bold" lengthAdjust="spacing" textLength="9" x="782" y="166.6777">3</text><text fill="#000000" font-family="sans-serif" font-size="13" lengthAdjust="spacing" textLength="146" x="795" y="166.6777">list of academic degree</text><polygon fill="#181818" points="70,196.7305,60,200.7305,70,204.7305,66,200.7305" style="stroke:#181818;stroke-width:1.0;"/><line style="stroke:#181818;stroke-width:1.0;" x1="64" x2="759" y1="200.7305" y2="200.7305"/><text fill="#000000" font-family="sans-serif" font-size="13" font-weight="bold" lengthAdjust="spacing" textLength="9" x="76" y="195.9883">4</text><text fill="#000000" font-family="sans-serif" font-size="13" lengthAdjust="spacing" textLength="371" x="89" y="195.9883">display all academic degrees and asks to select one degree</text><polygon fill="#181818" points="743,226.041,753,230.041,743,234.041,747,230.041" style="stroke:#181818;stroke-width:1.0;"/><line style="stroke:#181818;stroke-width:1.0;" x1="59" x2="749" y1="230.041" y2="230.041"/><text fill="#000000" font-family="sans-serif" font-size="13" font-weight="bold" lengthAdjust="spacing" textLength="9" x="66" y="225.2988">5</text><text fill="#000000" font-family="sans-serif" font-size="13" lengthAdjust="spacing" textLength="94" x="79" y="225.2988">select a degree</text><polygon fill="#181818" points="1053,255.3516,1063,259.3516,1053,263.3516,1057,259.3516" style="stroke:#181818;stroke-width:1.0;"/><line style="stroke:#181818;stroke-width:1.0;" x1="765" x2="1059" y1="259.3516" y2="259.3516"/><text fill="#000000" font-family="sans-serif" font-size="13" font-weight="bold" lengthAdjust="spacing" textLength="9" x="772" y="254.6094">6</text><text fill="#000000" font-family="sans-serif" font-size="13" lengthAdjust="spacing" textLength="259" x="785" y="254.6094">readAndProcessProgrammingLanguages()</text><polygon fill="#181818" points="776,284.6621,766,288.6621,776,292.6621,772,288.6621" style="stroke:#181818;stroke-width:1.0;"/><line style="stroke:#181818;stroke-width:1.0;stroke-dasharray:2.0,2.0;" x1="770" x2="1069" y1="288.6621" y2="288.6621"/><text fill="#000000" font-family="sans-serif" font-size="13" font-weight="bold" lengthAdjust="spacing" textLength="9" x="782" y="283.9199">7</text><text fill="#000000" font-family="sans-serif" font-size="13" lengthAdjust="spacing" textLength="194" x="795" y="283.9199">list of programming languages</text><path d="M10,303.6621 L84,303.6621 L84,310.9727 L74,320.9727 L10,320.9727 L10,303.6621 " fill="#EEEEEE" style="stroke:#000000;stroke-width:1.5;"/><rect fill="none" height="75.9316" style="stroke:#000000;stroke-width:1.5;" width="896" x="10" y="303.6621"/><text fill="#000000" font-family="sans-serif" font-size="13" font-weight="bold" lengthAdjust="spacing" textLength="29" x="25" y="317.2305">loop</text><polygon fill="#181818" points="70,338.2832,60,342.2832,70,346.2832,66,342.2832" style="stroke:#181818;stroke-width:1.0;"/><line style="stroke:#181818;stroke-width:1.0;stroke-dasharray:2.0,2.0;" x1="64" x2="759" y1="342.2832" y2="342.2832"/><text fill="#000000" font-family="sans-serif" font-size="13" font-weight="bold" lengthAdjust="spacing" textLength="9" x="76" y="337.541">8</text><text fill="#000000" font-family="sans-serif" font-size="13" lengthAdjust="spacing" textLength="500" x="89" y="337.541">display all programming languages and asks to select a programming language</text><polygon fill="#181818" points="743,367.5938,753,371.5938,743,375.5938,747,371.5938" style="stroke:#181818;stroke-width:1.0;"/><line style="stroke:#181818;stroke-width:1.0;" x1="59" x2="749" y1="371.5938" y2="371.5938"/><text fill="#000000" font-family="sans-serif" font-size="13" font-weight="bold" lengthAdjust="spacing" textLength="9" x="66" y="366.8516">9</text><text fill="#000000" font-family="sans-serif" font-size="13" lengthAdjust="spacing" textLength="198" x="79" y="366.8516">select a programming language</text><polygon fill="#181818" points="70,403.9043,60,407.9043,70,411.9043,66,407.9043" style="stroke:#181818;stroke-width:1.0;"/><line style="stroke:#181818;stroke-width:1.0;stroke-dasharray:2.0,2.0;" x1="64" x2="759" y1="407.9043" y2="407.9043"/><text fill="#000000" font-family="sans-serif" font-size="13" font-weight="bold" lengthAdjust="spacing" textLength="18" x="76" y="403.1621">10</text><text fill="#000000" font-family="sans-serif" font-size="13" lengthAdjust="spacing" textLength="206" x="98" y="403.1621">asks to write experience in years</text><polygon fill="#181818" points="743,433.2148,753,437.2148,743,441.2148,747,437.2148" style="stroke:#181818;stroke-width:1.0;"/><line style="stroke:#181818;stroke-width:1.0;" x1="59" x2="749" y1="437.2148" y2="437.2148"/><text fill="#000000" font-family="sans-serif" font-size="13" font-weight="bold" lengthAdjust="spacing" textLength="18" x="66" y="432.4727">11</text><text fill="#000000" font-family="sans-serif" font-size="13" lengthAdjust="spacing" textLength="156" x="88" y="432.4727">write experience in years</text><polygon fill="#181818" points="70,462.5254,60,466.5254,70,470.5254,66,466.5254" style="stroke:#181818;stroke-width:1.0;"/><line style="stroke:#181818;stroke-width:1.0;stroke-dasharray:2.0,2.0;" x1="64" x2="759" y1="466.5254" y2="466.5254"/><text fill="#000000" font-family="sans-serif" font-size="13" font-weight="bold" lengthAdjust="spacing" textLength="18" x="76" y="461.7832">12</text><text fill="#000000" font-family="sans-serif" font-size="13" lengthAdjust="spacing" textLength="153" x="98" y="461.7832">asks to write file's name</text><polygon fill="#181818" points="743,491.8359,753,495.8359,743,499.8359,747,495.8359" style="stroke:#181818;stroke-width:1.0;"/><line style="stroke:#181818;stroke-width:1.0;" x1="59" x2="749" y1="495.8359" y2="495.8359"/><text fill="#000000" font-family="sans-serif" font-size="13" font-weight="bold" lengthAdjust="spacing" textLength="18" x="66" y="491.0938">13</text><text fill="#000000" font-family="sans-serif" font-size="13" lengthAdjust="spacing" textLength="103" x="88" y="491.0938">write file's name</text><polygon fill="#181818" points="70,521.1465,60,525.1465,70,529.1465,66,525.1465" style="stroke:#181818;stroke-width:1.0;"/><line style="stroke:#181818;stroke-width:1.0;stroke-dasharray:2.0,2.0;" x1="64" x2="759" y1="525.1465" y2="525.1465"/><text fill="#000000" font-family="sans-serif" font-size="13" font-weight="bold" lengthAdjust="spacing" textLength="18" x="76" y="520.4043">14</text><text fill="#000000" font-family="sans-serif" font-size="13" lengthAdjust="spacing" textLength="203" x="98" y="520.4043">generate and export the text file</text><!--SRC=[pPL1Rjim44NtEiKWcxIBN22B044A50KAs4ZG0qp8aSoQv33ag8bldv5isMwXe9831z56WZZKV_FvHPQrYmap1WWSsQmo1mB9BLLbFvBGhB6X1zbuWan6C3R-kA2iqFApYmtKw0jL5RR2iGsFbFNP26UuM2JAg4yNW0KMoqfdYZCkOHJuJh4Rf7jwQbscG57AGoBZQcTG7CTVF-RLtt6KpDvt-Xs0-wFLdMe5UYsMS7KpHHIk5NPTG1YQNJLWj40lYRC0Wb18ldihz29GE_L7QrVa4vXEtWXO5DGHyhP0hKOO_O3JbrI0Q_t4Rtu4JXJLlItT7dUAA_sCAPrCQVZWsZLOLxIppQr1Iy6PRzHaeYzVvo8UByGarCC4k9gwIDuLwStSmOBjQRUAbiv8kpLMyxGt3D3xVq5A7veXIONwN72aapc7XPyJv9qi_YNw6RAcR9dGtaQxp6oe5Bqrkgi4_ID-waxJwjPJFcdoO8XUEZ237w3V5q3FdAPRFXR3KQYnBE9ewGVdycs4UG2a_VNUpJTliEKvErNJNPwoesW8N8GDOTwjw2cspFRbFmnd-dF7dUWEjii24SC7XU8DsJCtFNR6o-heS3-j-LS0]--></g></svg>