<?xml version="1.0" encoding="us-ascii" standalone="no"?><svg xmlns="http://www.w3.org/2000/svg" xmlns:xlink="http://www.w3.org/1999/xlink" contentStyleType="text/css" height="575px" preserveAspectRatio="none" style="width:478px;height:575px;background:#FFFFFF;" version="1.1" viewBox="0 0 478 575" width="478px" zoomAndPan="magnify"><defs/><g><text fill="#000000" font-family="sans-serif" font-size="14" font-weight="bold" lengthAdjust="spacing" textLength="231" x="125" y="28.5352">System Sequence Diagram (SSD)</text><rect fill="#FFFFFF" height="356.0371" style="stroke:#181818;stroke-width:1.0;" width="10" x="49" y="128.9766"/><rect fill="#FFFFFF" height="29.3105" style="stroke:#181818;stroke-width:1.0;" width="10" x="424" y="180.9082"/><rect fill="#FFFFFF" height="29.3105" style="stroke:#181818;stroke-width:1.0;" width="10" x="424" y="239.5293"/><rect fill="#FFFFFF" height="29.3105" style="stroke:#181818;stroke-width:1.0;" width="10" x="424" y="388.082"/><rect fill="#FFFFFF" height="29.3105" style="stroke:#181818;stroke-width:1.0;" width="10" x="424" y="446.7031"/><rect fill="none" height="46.6211" style="stroke:#000000;stroke-width:1.5;" width="462" x="10" y="283.8398"/><line style="stroke:#181818;stroke-width:0.5;stroke-dasharray:5.0,5.0;" x1="54" x2="54" y1="118.9766" y2="494.0137"/><line style="stroke:#181818;stroke-width:0.5;stroke-dasharray:5.0,5.0;" x1="429" x2="429" y1="118.9766" y2="494.0137"/><text fill="#000000" font-family="sans-serif" font-size="14" lengthAdjust="spacing" textLength="62" x="20" y="116.0234">Operator</text><ellipse cx="54" cy="50.9883" fill="#E3E3E3" rx="8" ry="8" style="stroke:#181818;stroke-width:0.5;"/><path d="M54,58.9883 L54,85.9883 M41,66.9883 L67,66.9883 M54,85.9883 L41,100.9883 M54,85.9883 L67,100.9883 " fill="none" style="stroke:#181818;stroke-width:0.5;"/><text fill="#000000" font-family="sans-serif" font-size="14" lengthAdjust="spacing" textLength="62" x="20" y="506.5488">Operator</text><ellipse cx="54" cy="518.002" fill="#E3E3E3" rx="8" ry="8" style="stroke:#181818;stroke-width:0.5;"/><path d="M54,526.002 L54,553.002 M41,534.002 L67,534.002 M54,553.002 L41,568.002 M54,553.002 L67,568.002 " fill="none" style="stroke:#181818;stroke-width:0.5;"/><rect fill="#E3E3E3" height="30.4883" rx="2.5" ry="2.5" style="stroke:#181818;stroke-width:0.5;" width="66" x="396" y="87.4883"/><text fill="#000000" font-family="sans-serif" font-size="14" lengthAdjust="spacing" textLength="52" x="403" y="108.0234">:System</text><rect fill="#E3E3E3" height="30.4883" rx="2.5" ry="2.5" style="stroke:#181818;stroke-width:0.5;" width="66" x="396" y="493.0137"/><text fill="#000000" font-family="sans-serif" font-size="14" lengthAdjust="spacing" textLength="52" x="403" y="513.5488">:System</text><rect fill="#FFFFFF" height="356.0371" style="stroke:#181818;stroke-width:1.0;" width="10" x="49" y="128.9766"/><rect fill="#FFFFFF" height="29.3105" style="stroke:#181818;stroke-width:1.0;" width="10" x="424" y="180.9082"/><rect fill="#FFFFFF" height="29.3105" style="stroke:#181818;stroke-width:1.0;" width="10" x="424" y="239.5293"/><rect fill="#FFFFFF" height="29.3105" style="stroke:#181818;stroke-width:1.0;" width="10" x="424" y="388.082"/><rect fill="#FFFFFF" height="29.3105" style="stroke:#181818;stroke-width:1.0;" width="10" x="424" y="446.7031"/><polygon fill="#181818" points="412,176.9082,422,180.9082,412,184.9082,416,180.9082" style="stroke:#181818;stroke-width:1.0;"/><line style="stroke:#181818;stroke-width:1.0;" x1="59" x2="418" y1="180.9082" y2="180.9082"/><text fill="#000000" font-family="sans-serif" font-size="13" font-weight="bold" lengthAdjust="spacing" textLength="9" x="66" y="160.8555">1</text><text fill="#000000" font-family="sans-serif" font-size="13" lengthAdjust="spacing" textLength="227" x="79" y="145.5449">asks to generate a template text file</text><text fill="#000000" font-family="sans-serif" font-size="13" lengthAdjust="spacing" textLength="182" x="83" y="160.8555">to help collect data fields for</text><text fill="#000000" font-family="sans-serif" font-size="13" lengthAdjust="spacing" textLength="175" x="79" y="176.166">candidates of a job opening</text><polygon fill="#181818" points="70,206.2188,60,210.2188,70,214.2188,66,210.2188" style="stroke:#181818;stroke-width:1.0;"/><line style="stroke:#181818;stroke-width:1.0;stroke-dasharray:2.0,2.0;" x1="64" x2="428" y1="210.2188" y2="210.2188"/><text fill="#000000" font-family="sans-serif" font-size="13" font-weight="bold" lengthAdjust="spacing" textLength="9" x="76" y="205.4766">2</text><text fill="#000000" font-family="sans-serif" font-size="13" lengthAdjust="spacing" textLength="157" x="89" y="205.4766">asks to select the degree</text><polygon fill="#181818" points="412,235.5293,422,239.5293,412,243.5293,416,239.5293" style="stroke:#181818;stroke-width:1.0;"/><line style="stroke:#181818;stroke-width:1.0;" x1="59" x2="418" y1="239.5293" y2="239.5293"/><text fill="#000000" font-family="sans-serif" font-size="13" font-weight="bold" lengthAdjust="spacing" textLength="9" x="66" y="234.7871">3</text><text fill="#000000" font-family="sans-serif" font-size="13" lengthAdjust="spacing" textLength="107" x="79" y="234.7871">select the degree</text><polygon fill="#181818" points="70,264.8398,60,268.8398,70,272.8398,66,268.8398" style="stroke:#181818;stroke-width:1.0;"/><line style="stroke:#181818;stroke-width:1.0;stroke-dasharray:2.0,2.0;" x1="64" x2="428" y1="268.8398" y2="268.8398"/><text fill="#000000" font-family="sans-serif" font-size="13" font-weight="bold" lengthAdjust="spacing" textLength="9" x="76" y="264.0977">4</text><text fill="#000000" font-family="sans-serif" font-size="13" lengthAdjust="spacing" textLength="328" x="89" y="264.0977">asks to select  one or more programming languages</text><path d="M10,283.8398 L84,283.8398 L84,291.1504 L74,301.1504 L10,301.1504 L10,283.8398 " fill="#EEEEEE" style="stroke:#000000;stroke-width:1.5;"/><rect fill="none" height="46.6211" style="stroke:#000000;stroke-width:1.5;" width="462" x="10" y="283.8398"/><text fill="#000000" font-family="sans-serif" font-size="13" font-weight="bold" lengthAdjust="spacing" textLength="29" x="25" y="297.4082">loop</text><text fill="#000000" font-family="sans-serif" font-size="11" font-weight="bold" lengthAdjust="spacing" textLength="88" x="99" y="296.4746">[until select -1]</text><polygon fill="#181818" points="417,318.4609,427,322.4609,417,326.4609,421,322.4609" style="stroke:#181818;stroke-width:1.0;"/><line style="stroke:#181818;stroke-width:1.0;" x1="59" x2="423" y1="322.4609" y2="322.4609"/><text fill="#000000" font-family="sans-serif" font-size="13" font-weight="bold" lengthAdjust="spacing" textLength="9" x="66" y="317.7188">5</text><text fill="#000000" font-family="sans-serif" font-size="13" lengthAdjust="spacing" textLength="198" x="79" y="317.7188">select a programming language</text><polygon fill="#181818" points="70,354.7715,60,358.7715,70,362.7715,66,358.7715" style="stroke:#181818;stroke-width:1.0;"/><line style="stroke:#181818;stroke-width:1.0;stroke-dasharray:2.0,2.0;" x1="64" x2="428" y1="358.7715" y2="358.7715"/><text fill="#000000" font-family="sans-serif" font-size="13" font-weight="bold" lengthAdjust="spacing" textLength="9" x="76" y="354.0293">6</text><text fill="#000000" font-family="sans-serif" font-size="13" lengthAdjust="spacing" textLength="206" x="89" y="354.0293">asks to write experience in years</text><polygon fill="#181818" points="412,384.082,422,388.082,412,392.082,416,388.082" style="stroke:#181818;stroke-width:1.0;"/><line style="stroke:#181818;stroke-width:1.0;" x1="59" x2="418" y1="388.082" y2="388.082"/><text fill="#000000" font-family="sans-serif" font-size="13" font-weight="bold" lengthAdjust="spacing" textLength="9" x="66" y="383.3398">7</text><text fill="#000000" font-family="sans-serif" font-size="13" lengthAdjust="spacing" textLength="156" x="79" y="383.3398">write experience in years</text><polygon fill="#181818" points="70,413.3926,60,417.3926,70,421.3926,66,417.3926" style="stroke:#181818;stroke-width:1.0;"/><line style="stroke:#181818;stroke-width:1.0;stroke-dasharray:2.0,2.0;" x1="64" x2="428" y1="417.3926" y2="417.3926"/><text fill="#000000" font-family="sans-serif" font-size="13" font-weight="bold" lengthAdjust="spacing" textLength="9" x="76" y="412.6504">8</text><text fill="#000000" font-family="sans-serif" font-size="13" lengthAdjust="spacing" textLength="153" x="89" y="412.6504">asks to write file's name</text><polygon fill="#181818" points="412,442.7031,422,446.7031,412,450.7031,416,446.7031" style="stroke:#181818;stroke-width:1.0;"/><line style="stroke:#181818;stroke-width:1.0;" x1="59" x2="418" y1="446.7031" y2="446.7031"/><text fill="#000000" font-family="sans-serif" font-size="13" font-weight="bold" lengthAdjust="spacing" textLength="9" x="66" y="441.9609">9</text><text fill="#000000" font-family="sans-serif" font-size="13" lengthAdjust="spacing" textLength="103" x="79" y="441.9609">write file's name</text><polygon fill="#181818" points="70,472.0137,60,476.0137,70,480.0137,66,476.0137" style="stroke:#181818;stroke-width:1.0;"/><line style="stroke:#181818;stroke-width:1.0;" x1="64" x2="428" y1="476.0137" y2="476.0137"/><text fill="#000000" font-family="sans-serif" font-size="13" font-weight="bold" lengthAdjust="spacing" textLength="18" x="76" y="471.2715">10</text><text fill="#000000" font-family="sans-serif" font-size="13" lengthAdjust="spacing" textLength="288" x="98" y="471.2715">generate a text file with collected information</text><!--SRC=[ZLAnLiCm3Dpz5NfTWA43AmCJU_jUrYuYKHDJMpAsGkdV8xS4ABIqdlIiq-aaNTbuJfWnGXIMTiWI2JIFvCfN9c6xmPuQtGM2JAqYz-4de0pOoTPp3siCXPnpwjMmpQueHMZeTIHk2PuyzXL_spHFTyxXgC9ZVAPiSQkIORP8bD6Y6M21nT8Pl_hM9sI5sSE1RvyxXFiw_uPA5Up0tc89yyUfyuD1DmLKe2Ukp0G8baYXXahl2cjlGbTSCGE51As4O2D2XugMfD0LM9kq5RV8dRTlAY1hutcHPv14R7F_q349-rGmDp4cwLj8eJsz3WGTzPbiMntzgVurnOcYFoMNEe8mWGqI9HEaBFKIiTuis3b7ksyvgII891XPVPY8vlVkd40yIUmSSGULwDAUlaLlipSGlPiV_Duxdc57cCirw_gd-Eex7JYgEsuACCQZEvtfU8G-s-cpqP4Z9oDklGwJ1QaptMQzYEg5RUUd9Z-y3m00]--></g></svg>