<?xml version="1.0" encoding="us-ascii" standalone="no"?><svg xmlns="http://www.w3.org/2000/svg" xmlns:xlink="http://www.w3.org/1999/xlink" contentStyleType="text/css" height="733px" preserveAspectRatio="none" style="width:1196px;height:733px;background:#FFFFFF;" version="1.1" viewBox="0 0 1196 733" width="1196px" zoomAndPan="magnify"><defs/><g><text fill="#000000" font-family="sans-serif" font-size="14" font-weight="bold" lengthAdjust="spacing" textLength="279" x="460.5" y="30.1074">Diagrama de componentes e intera&#231;&#245;es</text><rect fill="#FFFFFF" height="499.3652" style="stroke:#181818;stroke-width:1.0;" width="10" x="17.5" y="133.2422"/><rect fill="#FFFFFF" height="458.7832" style="stroke:#181818;stroke-width:1.0;" width="10" x="425.5" y="173.8242"/><rect fill="#FFFFFF" height="31.291" style="stroke:#181818;stroke-width:1.0;" width="10" x="548" y="570.0254"/><rect fill="#FFFFFF" height="31.291" style="stroke:#181818;stroke-width:1.0;" width="10" x="676" y="205.1152"/><rect fill="#FFFFFF" height="271.0371" style="stroke:#181818;stroke-width:1.0;" width="10" x="859" y="267.6973"/><line style="stroke:#181818;stroke-width:0.5;stroke-dasharray:5.0,5.0;" x1="22" x2="22" y1="123.2422" y2="650.6074"/><line style="stroke:#181818;stroke-width:0.5;stroke-dasharray:5.0,5.0;" x1="430" x2="430" y1="123.2422" y2="650.6074"/><line style="stroke:#181818;stroke-width:0.5;stroke-dasharray:5.0,5.0;" x1="553" x2="553" y1="123.2422" y2="650.6074"/><line style="stroke:#181818;stroke-width:0.5;stroke-dasharray:5.0,5.0;" x1="681" x2="681" y1="123.2422" y2="650.6074"/><line style="stroke:#181818;stroke-width:0.5;stroke-dasharray:5.0,5.0;" x1="864" x2="864" y1="123.2422" y2="650.6074"/><text fill="#000000" font-family="sans-serif" font-size="14" lengthAdjust="spacing" textLength="29" x="5" y="119.7285">User</text><ellipse cx="22.5" cy="53.1211" fill="#E2E2F0" rx="8" ry="8" style="stroke:#181818;stroke-width:0.5;"/><path d="M22.5,61.1211 L22.5,88.1211 M9.5,69.1211 L35.5,69.1211 M22.5,88.1211 L9.5,103.1211 M22.5,88.1211 L35.5,103.1211 " fill="none" style="stroke:#181818;stroke-width:0.5;"/><text fill="#000000" font-family="sans-serif" font-size="14" lengthAdjust="spacing" textLength="29" x="5" y="664.7148">User</text><ellipse cx="22.5" cy="676.7285" fill="#E2E2F0" rx="8" ry="8" style="stroke:#181818;stroke-width:0.5;"/><path d="M22.5,684.7285 L22.5,711.7285 M9.5,692.7285 L35.5,692.7285 M22.5,711.7285 L9.5,726.7285 M22.5,711.7285 L35.5,726.7285 " fill="none" style="stroke:#181818;stroke-width:0.5;"/><rect fill="#E2E2F0" height="32.6211" rx="2.5" ry="2.5" style="stroke:#181818;stroke-width:0.5;" width="127" x="367" y="89.6211"/><text fill="#000000" font-family="sans-serif" font-size="14" lengthAdjust="spacing" textLength="113" x="374" y="111.7285">ApplicationFileBot</text><rect fill="#E2E2F0" height="32.6211" rx="2.5" ry="2.5" style="stroke:#181818;stroke-width:0.5;" width="127" x="367" y="649.6074"/><text fill="#000000" font-family="sans-serif" font-size="14" lengthAdjust="spacing" textLength="113" x="374" y="671.7148">ApplicationFileBot</text><rect fill="#E2E2F0" height="32.6211" rx="2.5" ry="2.5" style="stroke:#181818;stroke-width:0.5;" width="98" x="504" y="89.6211"/><text fill="#000000" font-family="sans-serif" font-size="14" lengthAdjust="spacing" textLength="84" x="511" y="111.7285">OutputFolder</text><rect fill="#E2E2F0" height="32.6211" rx="2.5" ry="2.5" style="stroke:#181818;stroke-width:0.5;" width="98" x="504" y="649.6074"/><text fill="#000000" font-family="sans-serif" font-size="14" lengthAdjust="spacing" textLength="84" x="511" y="671.7148">OutputFolder</text><rect fill="#E2E2F0" height="32.6211" rx="2.5" ry="2.5" style="stroke:#181818;stroke-width:0.5;" width="138" x="612" y="89.6211"/><text fill="#000000" font-family="sans-serif" font-size="14" lengthAdjust="spacing" textLength="124" x="619" y="111.7285">ApplicationEmailBot</text><rect fill="#E2E2F0" height="32.6211" rx="2.5" ry="2.5" style="stroke:#181818;stroke-width:0.5;" width="138" x="612" y="649.6074"/><text fill="#000000" font-family="sans-serif" font-size="14" lengthAdjust="spacing" textLength="124" x="619" y="671.7148">ApplicationEmailBot</text><rect fill="#E2E2F0" height="32.6211" rx="2.5" ry="2.5" style="stroke:#181818;stroke-width:0.5;" width="208" x="760" y="89.6211"/><text fill="#000000" font-family="sans-serif" font-size="14" lengthAdjust="spacing" textLength="194" x="767" y="111.7285">ApplicationFileBotProcessTree</text><rect fill="#E2E2F0" height="32.6211" rx="2.5" ry="2.5" style="stroke:#181818;stroke-width:0.5;" width="208" x="760" y="649.6074"/><text fill="#000000" font-family="sans-serif" font-size="14" lengthAdjust="spacing" textLength="194" x="767" y="671.7148">ApplicationFileBotProcessTree</text><rect fill="#FFFFFF" height="499.3652" style="stroke:#181818;stroke-width:1.0;" width="10" x="17.5" y="133.2422"/><rect fill="#FFFFFF" height="458.7832" style="stroke:#181818;stroke-width:1.0;" width="10" x="425.5" y="173.8242"/><rect fill="#FFFFFF" height="31.291" style="stroke:#181818;stroke-width:1.0;" width="10" x="548" y="570.0254"/><rect fill="#FFFFFF" height="31.291" style="stroke:#181818;stroke-width:1.0;" width="10" x="676" y="205.1152"/><rect fill="#FFFFFF" height="271.0371" style="stroke:#181818;stroke-width:1.0;" width="10" x="859" y="267.6973"/><polygon fill="#181818" points="413.5,169.8242,423.5,173.8242,413.5,177.8242,417.5,173.8242" style="stroke:#181818;stroke-width:1.0;"/><line style="stroke:#181818;stroke-width:1.0;" x1="27.5" x2="419.5" y1="173.8242" y2="173.8242"/><text fill="#000000" font-family="sans-serif" font-size="13" font-weight="bold" lengthAdjust="spacing" textLength="7" x="34.5" y="159.916">1</text><text fill="#000000" font-family="sans-serif" font-size="13" lengthAdjust="spacing" textLength="360" x="45.5" y="151.2705">provides the names of the input and output directories, number</text><text fill="#000000" font-family="sans-serif" font-size="13" lengthAdjust="spacing" textLength="368" x="45.5" y="168.5615">of worker children and the time for periodic checking of new files</text><polygon fill="#181818" points="664,201.1152,674,205.1152,664,209.1152,668,205.1152" style="stroke:#181818;stroke-width:1.0;"/><line style="stroke:#181818;stroke-width:1.0;" x1="435.5" x2="670" y1="205.1152" y2="205.1152"/><text fill="#000000" font-family="sans-serif" font-size="13" font-weight="bold" lengthAdjust="spacing" textLength="7" x="442.5" y="199.8525">2</text><text fill="#000000" font-family="sans-serif" font-size="13" lengthAdjust="spacing" textLength="69" x="453.5" y="199.8525">getAllFiles()</text><polygon fill="#181818" points="446.5,232.4063,436.5,236.4063,446.5,240.4063,442.5,236.4063" style="stroke:#181818;stroke-width:1.0;"/><line style="stroke:#181818;stroke-width:1.0;stroke-dasharray:2.0,2.0;" x1="440.5" x2="680" y1="236.4063" y2="236.4063"/><text fill="#000000" font-family="sans-serif" font-size="13" font-weight="bold" lengthAdjust="spacing" textLength="7" x="452.5" y="231.1436">3</text><text fill="#000000" font-family="sans-serif" font-size="13" lengthAdjust="spacing" textLength="41" x="463.5" y="231.1436">allFiles</text><polygon fill="#181818" points="847,263.6973,857,267.6973,847,271.6973,851,267.6973" style="stroke:#181818;stroke-width:1.0;"/><line style="stroke:#181818;stroke-width:1.0;" x1="435.5" x2="853" y1="267.6973" y2="267.6973"/><text fill="#000000" font-family="sans-serif" font-size="13" font-weight="bold" lengthAdjust="spacing" textLength="7" x="442.5" y="262.4346">4</text><text fill="#000000" font-family="sans-serif" font-size="13" lengthAdjust="spacing" textLength="103" x="453.5" y="262.4346">processTheFiles()</text><line style="stroke:#181818;stroke-width:1.0;" x1="869" x2="911" y1="298.9883" y2="298.9883"/><line style="stroke:#181818;stroke-width:1.0;" x1="911" x2="911" y1="298.9883" y2="311.9883"/><line style="stroke:#181818;stroke-width:1.0;" x1="870" x2="911" y1="311.9883" y2="311.9883"/><polygon fill="#181818" points="880,307.9883,870,311.9883,880,315.9883,876,311.9883" style="stroke:#181818;stroke-width:1.0;"/><text fill="#000000" font-family="sans-serif" font-size="13" font-weight="bold" lengthAdjust="spacing" textLength="7" x="876" y="293.7256">5</text><text fill="#000000" font-family="sans-serif" font-size="13" lengthAdjust="spacing" textLength="184" x="887" y="293.7256">processContentEmail(emailFile)</text><line style="stroke:#181818;stroke-width:1.0;" x1="869" x2="911" y1="343.2793" y2="343.2793"/><line style="stroke:#181818;stroke-width:1.0;" x1="911" x2="911" y1="343.2793" y2="356.2793"/><line style="stroke:#181818;stroke-width:1.0;" x1="870" x2="911" y1="356.2793" y2="356.2793"/><polygon fill="#181818" points="880,352.2793,870,356.2793,880,360.2793,876,356.2793" style="stroke:#181818;stroke-width:1.0;"/><text fill="#000000" font-family="sans-serif" font-size="13" font-weight="bold" lengthAdjust="spacing" textLength="7" x="876" y="338.0166">6</text><text fill="#000000" font-family="sans-serif" font-size="13" lengthAdjust="spacing" textLength="221" x="887" y="338.0166">processContentEachFile(contentFiles)</text><line style="stroke:#181818;stroke-width:1.0;" x1="869" x2="911" y1="387.5703" y2="387.5703"/><line style="stroke:#181818;stroke-width:1.0;" x1="911" x2="911" y1="387.5703" y2="400.5703"/><line style="stroke:#181818;stroke-width:1.0;" x1="870" x2="911" y1="400.5703" y2="400.5703"/><polygon fill="#181818" points="880,396.5703,870,400.5703,880,404.5703,876,400.5703" style="stroke:#181818;stroke-width:1.0;"/><text fill="#000000" font-family="sans-serif" font-size="13" font-weight="bold" lengthAdjust="spacing" textLength="7" x="876" y="382.3076">7</text><text fill="#000000" font-family="sans-serif" font-size="13" lengthAdjust="spacing" textLength="302" x="887" y="382.3076">processContentAttachedFiles(contentAttachedFiles)</text><line style="stroke:#181818;stroke-width:1.0;" x1="869" x2="911" y1="431.8613" y2="431.8613"/><line style="stroke:#181818;stroke-width:1.0;" x1="911" x2="911" y1="431.8613" y2="444.8613"/><line style="stroke:#181818;stroke-width:1.0;" x1="870" x2="911" y1="444.8613" y2="444.8613"/><polygon fill="#181818" points="880,440.8613,870,444.8613,880,448.8613,876,444.8613" style="stroke:#181818;stroke-width:1.0;"/><text fill="#000000" font-family="sans-serif" font-size="13" font-weight="bold" lengthAdjust="spacing" textLength="7" x="876" y="426.5986">8</text><text fill="#000000" font-family="sans-serif" font-size="13" lengthAdjust="spacing" textLength="252" x="887" y="426.5986">processCandidateInformation(candidateFile)</text><polygon fill="#181818" points="446.5,472.1523,436.5,476.1523,446.5,480.1523,442.5,476.1523" style="stroke:#181818;stroke-width:1.0;"/><line style="stroke:#181818;stroke-width:1.0;stroke-dasharray:2.0,2.0;" x1="440.5" x2="858" y1="476.1523" y2="476.1523"/><text fill="#000000" font-family="sans-serif" font-size="13" font-weight="bold" lengthAdjust="spacing" textLength="7" x="452.5" y="470.8896">9</text><text fill="#000000" font-family="sans-serif" font-size="13" lengthAdjust="spacing" textLength="86" x="463.5" y="470.8896">return success</text><polygon fill="#181818" points="847,503.4434,857,507.4434,847,511.4434,851,507.4434" style="stroke:#181818;stroke-width:1.0;"/><line style="stroke:#181818;stroke-width:1.0;" x1="435.5" x2="853" y1="507.4434" y2="507.4434"/><text fill="#000000" font-family="sans-serif" font-size="13" font-weight="bold" lengthAdjust="spacing" textLength="14" x="442.5" y="502.1807">10</text><text fill="#000000" font-family="sans-serif" font-size="13" lengthAdjust="spacing" textLength="96" x="460.5" y="502.1807">generateReport()</text><polygon fill="#181818" points="446.5,534.7344,436.5,538.7344,446.5,542.7344,442.5,538.7344" style="stroke:#181818;stroke-width:1.0;"/><line style="stroke:#181818;stroke-width:1.0;stroke-dasharray:2.0,2.0;" x1="440.5" x2="863" y1="538.7344" y2="538.7344"/><text fill="#000000" font-family="sans-serif" font-size="13" font-weight="bold" lengthAdjust="spacing" textLength="14" x="452.5" y="533.4717">11</text><text fill="#000000" font-family="sans-serif" font-size="13" lengthAdjust="spacing" textLength="33" x="470.5" y="533.4717">report</text><polygon fill="#181818" points="536,566.0254,546,570.0254,536,574.0254,540,570.0254" style="stroke:#181818;stroke-width:1.0;"/><line style="stroke:#181818;stroke-width:1.0;" x1="435.5" x2="542" y1="570.0254" y2="570.0254"/><text fill="#000000" font-family="sans-serif" font-size="13" font-weight="bold" lengthAdjust="spacing" textLength="14" x="442.5" y="564.7627">12</text><text fill="#000000" font-family="sans-serif" font-size="13" lengthAdjust="spacing" textLength="72" x="460.5" y="564.7627">saveReport()</text><polygon fill="#181818" points="446.5,597.3164,436.5,601.3164,446.5,605.3164,442.5,601.3164" style="stroke:#181818;stroke-width:1.0;"/><line style="stroke:#181818;stroke-width:1.0;stroke-dasharray:2.0,2.0;" x1="440.5" x2="552" y1="601.3164" y2="601.3164"/><text fill="#000000" font-family="sans-serif" font-size="13" font-weight="bold" lengthAdjust="spacing" textLength="14" x="452.5" y="596.0537">13</text><text fill="#000000" font-family="sans-serif" font-size="13" lengthAdjust="spacing" textLength="59" x="470.5" y="596.0537">return true</text><polygon fill="#181818" points="33.5,628.6074,23.5,632.6074,33.5,636.6074,29.5,632.6074" style="stroke:#181818;stroke-width:1.0;"/><line style="stroke:#181818;stroke-width:1.0;stroke-dasharray:2.0,2.0;" x1="27.5" x2="429.5" y1="632.6074" y2="632.6074"/><text fill="#000000" font-family="sans-serif" font-size="13" font-weight="bold" lengthAdjust="spacing" textLength="14" x="39.5" y="627.3447">14</text><text fill="#000000" font-family="sans-serif" font-size="13" lengthAdjust="spacing" textLength="160" x="57.5" y="627.3447">display operation's success</text><!--SRC=[hLNDRjim3BxxAOXUwWBBSizXGFPJOASDGtVRHPEOcAWiQHALOa-q9zWJzCL6oMqNhqeMRBd8baH-_FYHfYy7vf1MosMmod4UxKljnsN2RncTneKXjOrgx3gLsRiyViNOTJV45k7YxNIdm228K_0E7MC2199dLFS_xdzYkX1VpJx2vrHyWufCce84WtK8bhHYykwQBBxsFBl-a3ballRMYEC1ltUZ8lkdutFSZz5hJEac8bOwj5EC3upA2ejN3IzOGOX-HqQIuW71gL7U_APko0avKCw0hpp1KCIIA65w0PDKyCM9zPsFj_Ak1x8cegi-1O5fHDY8CW4ZUKDQJ53VajkM60xlO2CyqXxXXc1TW_OycKU999ijyjhQOfRwgpRkaw1T2s9nI2Vr0Djr1a-6RVDzNhAf3dKtu57shN8VXpuzzXilNUsuPj9ZMOlrrVa3A3qKirvF-vhm-SEicIKGcabFtJWyPqpfUJ9IhFTE6dwizhr-F3nDnqEj5v5pT92oBhR_sc1RT3Ao63zXy97x_w5J00vz1wSrQ26yF_q4DgdT7hSdwDcCx6O-VnECOyOPpJbMYvKWrccvac6Nv8Vn7NmegedDPVfTWQEfpwxh1Fu5]--></g></svg>