<?xml version="1.0" encoding="us-ascii" standalone="no"?><svg xmlns="http://www.w3.org/2000/svg" xmlns:xlink="http://www.w3.org/1999/xlink" contentStyleType="text/css" height="843.2px" preserveAspectRatio="none" style="width:872px;height:843px;background:#FFFFFF;" version="1.1" viewBox="0 0 872 843" width="872.8px" zoomAndPan="magnify"><defs/><g><text fill="#000000" font-family="sans-serif" font-size="11.2" font-weight="bold" lengthAdjust="spacing" textLength="216.8" x="322.4" y="18.8281">Class Diagram - Register a candidate</text><!--cluster presentation--><g id="cluster_presentation"><path d="M202,34.7906 L275.6,34.7906 A3,3 0 0 1 277.6,36.7906 L283.2,52.7813 L402.8,52.7813 A2,2 0 0 1 404.8,54.7813 L404.8,138.3906 A2,2 0 0 1 402.8,140.3906 L202,140.3906 A2,2 0 0 1 200,138.3906 L200,36.7906 A2,2 0 0 1 202,34.7906 " fill="none" style="stroke:#000000;stroke-width:1.2000000000000002;"/><line style="stroke:#000000;stroke-width:1.2000000000000002;" x1="200" x2="283.2" y1="52.7813" y2="52.7813"/><text fill="#000000" font-family="sans-serif" font-size="11.2" font-weight="bold" lengthAdjust="spacing" textLength="72.8" x="203.2" y="47.2188">presentation</text></g><!--cluster application--><g id="cluster_application"><path d="M179.6,159.5906 L244.4,159.5906 A3,3 0 0 1 246.4,161.5906 L252,177.5813 L425.2,177.5813 A2,2 0 0 1 427.2,179.5813 L427.2,249.5906 A2,2 0 0 1 425.2,251.5906 L179.6,251.5906 A2,2 0 0 1 177.6,249.5906 L177.6,161.5906 A2,2 0 0 1 179.6,159.5906 " fill="none" style="stroke:#000000;stroke-width:1.2000000000000002;"/><line style="stroke:#000000;stroke-width:1.2000000000000002;" x1="177.6" x2="252" y1="177.5813" y2="177.5813"/><text fill="#000000" font-family="sans-serif" font-size="11.2" font-weight="bold" lengthAdjust="spacing" textLength="64" x="180.8" y="172.0188">application</text></g><!--cluster repositories--><g id="cluster_repositories"><path d="M154.8,732.3906 L225.2,732.3906 A3,3 0 0 1 227.2,734.3906 L232.8,750.3813 L323.6,750.3813 A2,2 0 0 1 325.6,752.3813 L325.6,835.9906 A2,2 0 0 1 323.6,837.9906 L154.8,837.9906 A2,2 0 0 1 152.8,835.9906 L152.8,734.3906 A2,2 0 0 1 154.8,732.3906 " fill="none" style="stroke:#000000;stroke-width:1.2000000000000002;"/><line style="stroke:#000000;stroke-width:1.2000000000000002;" x1="152.8" x2="232.8" y1="750.3813" y2="750.3813"/><text fill="#000000" font-family="sans-serif" font-size="11.2" font-weight="bold" lengthAdjust="spacing" textLength="69.6" x="156" y="744.8188">repositories</text></g><!--cluster domain--><g id="cluster_domain"><path d="M494.8,369.9906 L538.8,369.9906 A3,3 0 0 1 540.8,371.9906 L546.4,387.9813 L865.2,387.9813 A2,2 0 0 1 867.2,389.9813 L867.2,711.1906 A2,2 0 0 1 865.2,713.1906 L494.8,713.1906 A2,2 0 0 1 492.8,711.1906 L492.8,371.9906 A2,2 0 0 1 494.8,369.9906 " fill="none" style="stroke:#000000;stroke-width:1.2000000000000002;"/><line style="stroke:#000000;stroke-width:1.2000000000000002;" x1="492.8" x2="546.4" y1="387.9813" y2="387.9813"/><text fill="#000000" font-family="sans-serif" font-size="11.2" font-weight="bold" lengthAdjust="spacing" textLength="43.2" x="496" y="382.4188">domain</text></g><!--cluster services--><g id="cluster_services"><path d="M6.8,270.7906 L54,270.7906 A3,3 0 0 1 56,272.7906 L61.6,288.7813 L471.6,288.7813 A2,2 0 0 1 473.6,290.7813 L473.6,631.9906 A2,2 0 0 1 471.6,633.9906 L6.8,633.9906 A2,2 0 0 1 4.8,631.9906 L4.8,272.7906 A2,2 0 0 1 6.8,270.7906 " fill="none" style="stroke:#000000;stroke-width:1.2000000000000002;"/><line style="stroke:#000000;stroke-width:1.2000000000000002;" x1="4.8" x2="61.6" y1="288.7813" y2="288.7813"/><text fill="#000000" font-family="sans-serif" font-size="11.2" font-weight="bold" lengthAdjust="spacing" textLength="46.4" x="8" y="283.2188">services</text></g><!--class ListCandidateApplicationsUI--><g id="elem_ListCandidateApplicationsUI"><rect codeLine="12" fill="#FFFFFF" height="64.7813" id="ListCandidateApplicationsUI" rx="2" ry="2" style="stroke:#000000;stroke-width:0.4000000000000001;" width="179.2" x="212.8" y="62.7906"/><ellipse cx="224.8" cy="75.5906" fill="#ADD1B2" rx="8.8" ry="8.8" style="stroke:#181818;stroke-width:0.8000000000000002;"/><path d="M227.1785,80.1051 Q226.7137,80.3441 226.2023,80.4637 Q225.691,80.5832 225.1266,80.5832 Q223.1211,80.5832 222.0652,79.2617 Q221.0094,77.9402 221.0094,75.4434 Q221.0094,72.9398 222.0652,71.6184 Q223.1211,70.2969 225.1266,70.2969 Q225.691,70.2969 226.209,70.4164 Q226.727,70.5359 227.1785,70.775 L227.1785,72.9531 Q226.6738,72.4883 226.199,72.2725 Q225.7242,72.0566 225.2195,72.0566 Q224.1438,72.0566 223.5959,72.91 Q223.048,73.7633 223.048,75.4434 Q223.048,77.1168 223.5959,77.9701 Q224.1438,78.8234 225.2195,78.8234 Q225.7242,78.8234 226.199,78.6076 Q226.6738,78.3918 227.1785,77.927 Z " fill="#000000"/><text fill="#000000" font-family="sans-serif" font-size="11.2" lengthAdjust="spacing" textLength="153.6" x="236" y="79.8234">ListCandidateApplicationsUI</text><line style="stroke:#000000;stroke-width:0.4000000000000001;" x1="213.6" x2="391.2" y1="88.3906" y2="88.3906"/><line style="stroke:#000000;stroke-width:0.4000000000000001;" x1="213.6" x2="391.2" y1="94.7906" y2="94.7906"/><ellipse cx="221.6" cy="105.7859" fill="#84BE84" rx="2.4" ry="2.4" style="stroke:#038048;stroke-width:0.8000000000000002;"/><text fill="#000000" font-family="sans-serif" font-size="11.2" lengthAdjust="spacing" textLength="52" x="228.8" y="108.8188">doShow()</text><ellipse cx="221.6" cy="118.9766" fill="#84BE84" rx="2.4" ry="2.4" style="stroke:#038048;stroke-width:0.8000000000000002;"/><text fill="#000000" font-family="sans-serif" font-size="11.2" lengthAdjust="spacing" textLength="55.2" x="228.8" y="122.0094">headline()</text></g><!--class ListCandidateApplicationsController--><g id="elem_ListCandidateApplicationsController"><rect codeLine="19" fill="#FFFFFF" height="51.5906" id="ListCandidateApplicationsController" rx="2" ry="2" style="stroke:#000000;stroke-width:0.4000000000000001;" width="224" x="190.4" y="187.5906"/><ellipse cx="202.4" cy="200.3906" fill="#ADD1B2" rx="8.8" ry="8.8" style="stroke:#181818;stroke-width:0.8000000000000002;"/><path d="M204.7785,204.9051 Q204.3137,205.1441 203.8023,205.2637 Q203.291,205.3832 202.7266,205.3832 Q200.7211,205.3832 199.6652,204.0617 Q198.6094,202.7402 198.6094,200.2434 Q198.6094,197.7398 199.6652,196.4184 Q200.7211,195.0969 202.7266,195.0969 Q203.291,195.0969 203.809,195.2164 Q204.327,195.3359 204.7785,195.575 L204.7785,197.7531 Q204.2738,197.2883 203.799,197.0725 Q203.3242,196.8566 202.8195,196.8566 Q201.7438,196.8566 201.1959,197.71 Q200.648,198.5633 200.648,200.2434 Q200.648,201.9168 201.1959,202.7701 Q201.7438,203.6234 202.8195,203.6234 Q203.3242,203.6234 203.799,203.4076 Q204.2738,203.1918 204.7785,202.727 Z " fill="#000000"/><text fill="#000000" font-family="sans-serif" font-size="11.2" lengthAdjust="spacing" textLength="198.4" x="213.6" y="204.6234">ListCandidateApplicationsController</text><line style="stroke:#000000;stroke-width:0.4000000000000001;" x1="191.2" x2="413.6" y1="213.1906" y2="213.1906"/><line style="stroke:#000000;stroke-width:0.4000000000000001;" x1="191.2" x2="413.6" y1="219.5906" y2="219.5906"/><ellipse cx="199.2" cy="230.5859" fill="#84BE84" rx="2.4" ry="2.4" style="stroke:#038048;stroke-width:0.8000000000000002;"/><text fill="#000000" font-family="sans-serif" font-size="11.2" lengthAdjust="spacing" textLength="176" x="206.4" y="233.6188">sendApplicationsRequest(email)</text></g><!--class ApplicationRepository--><g id="elem_ApplicationRepository"><rect codeLine="25" fill="#FFFFFF" height="64.7813" id="ApplicationRepository" rx="2" ry="2" style="stroke:#000000;stroke-width:0.4000000000000001;" width="146.4" x="166" y="760.3906"/><ellipse cx="178" cy="773.1906" fill="#B4A7E5" rx="8.8" ry="8.8" style="stroke:#181818;stroke-width:0.8000000000000002;"/><path d="M174.7422,769.8027 L174.7422,768.0762 L180.6457,768.0762 L180.6457,769.8027 L178.6734,769.8027 L178.6734,776.2641 L180.6457,776.2641 L180.6457,777.9906 L174.7422,777.9906 L174.7422,776.2641 L176.7145,776.2641 L176.7145,769.8027 Z " fill="#000000"/><text fill="#000000" font-family="sans-serif" font-size="11.2" font-style="italic" lengthAdjust="spacing" textLength="120.8" x="189.2" y="777.4234">ApplicationRepository</text><line style="stroke:#000000;stroke-width:0.4000000000000001;" x1="166.8" x2="311.6" y1="785.9906" y2="785.9906"/><line style="stroke:#000000;stroke-width:0.4000000000000001;" x1="166.8" x2="311.6" y1="792.3906" y2="792.3906"/><ellipse cx="174.8" cy="803.3859" fill="#84BE84" rx="2.4" ry="2.4" style="stroke:#038048;stroke-width:0.8000000000000002;"/><text fill="#000000" font-family="sans-serif" font-size="11.2" lengthAdjust="spacing" textLength="88.8" x="182" y="806.4188">allApplications()</text><ellipse cx="174.8" cy="816.5766" fill="#84BE84" rx="2.4" ry="2.4" style="stroke:#038048;stroke-width:0.8000000000000002;"/><text fill="#000000" font-family="sans-serif" font-size="11.2" lengthAdjust="spacing" textLength="70.4" x="182" y="819.6094">ofIdentity(id)</text></g><!--class Application--><g id="elem_Application"><rect codeLine="32" fill="#FFFFFF" height="302.2125" id="Application" rx="2" ry="2" style="stroke:#000000;stroke-width:0.4000000000000001;" width="348.8" x="505.6" y="397.9906"/><ellipse cx="645.4" cy="410.7906" fill="#ADD1B2" rx="8.8" ry="8.8" style="stroke:#181818;stroke-width:0.8000000000000002;"/><path d="M647.7785,415.3051 Q647.3137,415.5441 646.8023,415.6637 Q646.291,415.7832 645.7266,415.7832 Q643.7211,415.7832 642.6652,414.4617 Q641.6094,413.1402 641.6094,410.6434 Q641.6094,408.1398 642.6652,406.8184 Q643.7211,405.4969 645.7266,405.4969 Q646.291,405.4969 646.809,405.6164 Q647.327,405.7359 647.7785,405.975 L647.7785,408.1531 Q647.2738,407.6883 646.799,407.4725 Q646.3242,407.2566 645.8195,407.2566 Q644.7438,407.2566 644.1959,408.11 Q643.648,408.9633 643.648,410.6434 Q643.648,412.3168 644.1959,413.1701 Q644.7438,414.0234 645.8195,414.0234 Q646.3242,414.0234 646.799,413.8076 Q647.2738,413.5918 647.7785,413.127 Z " fill="#000000"/><text fill="#000000" font-family="sans-serif" font-size="11.2" lengthAdjust="spacing" textLength="62.4" x="661.8" y="415.0234">Application</text><line style="stroke:#000000;stroke-width:0.4000000000000001;" x1="506.4" x2="853.6" y1="423.5906" y2="423.5906"/><line style="stroke:#000000;stroke-width:0.4000000000000001;" x1="506.4" x2="853.6" y1="429.9906" y2="429.9906"/><ellipse cx="514.4" cy="440.9859" fill="#84BE84" rx="2.4" ry="2.4" style="stroke:#038048;stroke-width:0.8000000000000002;"/><text fill="#000000" font-family="sans-serif" font-size="11.2" lengthAdjust="spacing" textLength="328" x="521.6" y="444.0188">Application(rank, createdOn, applicationFiles, jobReference,</text><text fill="#000000" font-family="sans-serif" font-size="11.2" lengthAdjust="spacing" textLength="112" x="521.6" y="457.2094">candidate, operator)</text><ellipse cx="514.4" cy="467.3672" fill="#84BE84" rx="2.4" ry="2.4" style="stroke:#038048;stroke-width:0.8000000000000002;"/><text fill="#000000" font-family="sans-serif" font-size="11.2" lengthAdjust="spacing" textLength="70.4" x="521.6" y="470.4">Application()</text><ellipse cx="514.4" cy="480.5578" fill="#84BE84" rx="2.4" ry="2.4" style="stroke:#038048;stroke-width:0.8000000000000002;"/><text fill="#000000" font-family="sans-serif" font-size="11.2" lengthAdjust="spacing" textLength="80" x="521.6" y="483.5906">sameAs(other)</text><ellipse cx="514.4" cy="493.7484" fill="#84BE84" rx="2.4" ry="2.4" style="stroke:#038048;stroke-width:0.8000000000000002;"/><text fill="#000000" font-family="sans-serif" font-size="11.2" lengthAdjust="spacing" textLength="73.6" x="521.6" y="496.7813">equals(other)</text><ellipse cx="514.4" cy="506.9391" fill="#84BE84" rx="2.4" ry="2.4" style="stroke:#038048;stroke-width:0.8000000000000002;"/><text fill="#000000" font-family="sans-serif" font-size="11.2" lengthAdjust="spacing" textLength="63.2" x="521.6" y="509.9719">hashCode()</text><ellipse cx="514.4" cy="520.1297" fill="#84BE84" rx="2.4" ry="2.4" style="stroke:#038048;stroke-width:0.8000000000000002;"/><text fill="#000000" font-family="sans-serif" font-size="11.2" lengthAdjust="spacing" textLength="100" x="521.6" y="523.1625">compareTo(other)</text><ellipse cx="514.4" cy="533.3203" fill="#84BE84" rx="2.4" ry="2.4" style="stroke:#038048;stroke-width:0.8000000000000002;"/><text fill="#000000" font-family="sans-serif" font-size="11.2" lengthAdjust="spacing" textLength="48.8" x="521.6" y="536.3531">identity()</text><ellipse cx="514.4" cy="546.5109" fill="#84BE84" rx="2.4" ry="2.4" style="stroke:#038048;stroke-width:0.8000000000000002;"/><text fill="#000000" font-family="sans-serif" font-size="11.2" lengthAdjust="spacing" textLength="32.8" x="521.6" y="549.5438">rank()</text><ellipse cx="514.4" cy="559.7016" fill="#84BE84" rx="2.4" ry="2.4" style="stroke:#038048;stroke-width:0.8000000000000002;"/><text fill="#000000" font-family="sans-serif" font-size="11.2" lengthAdjust="spacing" textLength="95.2" x="521.6" y="562.7344">submissionDate()</text><ellipse cx="514.4" cy="572.8922" fill="#84BE84" rx="2.4" ry="2.4" style="stroke:#038048;stroke-width:0.8000000000000002;"/><text fill="#000000" font-family="sans-serif" font-size="11.2" lengthAdjust="spacing" textLength="40.8" x="521.6" y="575.925">status()</text><ellipse cx="514.4" cy="586.0828" fill="#84BE84" rx="2.4" ry="2.4" style="stroke:#038048;stroke-width:0.8000000000000002;"/><text fill="#000000" font-family="sans-serif" font-size="11.2" lengthAdjust="spacing" textLength="51.2" x="521.6" y="589.1156">dataFile()</text><ellipse cx="514.4" cy="599.2734" fill="#84BE84" rx="2.4" ry="2.4" style="stroke:#038048;stroke-width:0.8000000000000002;"/><text fill="#000000" font-family="sans-serif" font-size="11.2" lengthAdjust="spacing" textLength="56" x="521.6" y="602.3063">operator()</text><ellipse cx="514.4" cy="612.4641" fill="#84BE84" rx="2.4" ry="2.4" style="stroke:#038048;stroke-width:0.8000000000000002;"/><text fill="#000000" font-family="sans-serif" font-size="11.2" lengthAdjust="spacing" textLength="61.6" x="521.6" y="615.4969">candidate()</text><ellipse cx="514.4" cy="625.6547" fill="#84BE84" rx="2.4" ry="2.4" style="stroke:#038048;stroke-width:0.8000000000000002;"/><text fill="#000000" font-family="sans-serif" font-size="11.2" lengthAdjust="spacing" textLength="80" x="521.6" y="628.6875">jobReference()</text><ellipse cx="514.4" cy="638.8453" fill="#84BE84" rx="2.4" ry="2.4" style="stroke:#038048;stroke-width:0.8000000000000002;"/><text fill="#000000" font-family="sans-serif" font-size="11.2" lengthAdjust="spacing" textLength="137.6" x="521.6" y="641.8781">candidateRequirements()</text><ellipse cx="514.4" cy="652.0359" fill="#84BE84" rx="2.4" ry="2.4" style="stroke:#038048;stroke-width:0.8000000000000002;"/><text fill="#000000" font-family="sans-serif" font-size="11.2" lengthAdjust="spacing" textLength="98.4" x="521.6" y="655.0688">updateRank(rank)</text><ellipse cx="514.4" cy="665.2266" fill="#84BE84" rx="2.4" ry="2.4" style="stroke:#038048;stroke-width:0.8000000000000002;"/><text fill="#000000" font-family="sans-serif" font-size="11.2" lengthAdjust="spacing" textLength="114.4" x="521.6" y="668.2594">changeStatus(status)</text><ellipse cx="514.4" cy="678.4172" fill="#84BE84" rx="2.4" ry="2.4" style="stroke:#038048;stroke-width:0.8000000000000002;"/><text fill="#000000" font-family="sans-serif" font-size="11.2" lengthAdjust="spacing" textLength="52" x="521.6" y="681.45">toString()</text><ellipse cx="514.4" cy="691.6078" fill="#84BE84" rx="2.4" ry="2.4" style="stroke:#038048;stroke-width:0.8000000000000002;"/><text fill="#000000" font-family="sans-serif" font-size="11.2" lengthAdjust="spacing" textLength="308" x="521.6" y="694.6406">uploadCandidateRequirements(candidateRequirements)</text></g><!--class CandidateApplicationsService--><g id="elem_CandidateApplicationsService"><rect codeLine="57" fill="#FFFFFF" height="51.5906" id="CandidateApplicationsService" rx="2" ry="2" style="stroke:#000000;stroke-width:0.4000000000000001;" width="188" x="208.4" y="298.7906"/><ellipse cx="220.4" cy="311.5906" fill="#ADD1B2" rx="8.8" ry="8.8" style="stroke:#181818;stroke-width:0.8000000000000002;"/><path d="M222.7785,316.1051 Q222.3137,316.3441 221.8023,316.4637 Q221.291,316.5832 220.7266,316.5832 Q218.7211,316.5832 217.6652,315.2617 Q216.6094,313.9402 216.6094,311.4434 Q216.6094,308.9398 217.6652,307.6184 Q218.7211,306.2969 220.7266,306.2969 Q221.291,306.2969 221.809,306.4164 Q222.327,306.5359 222.7785,306.775 L222.7785,308.9531 Q222.2738,308.4883 221.799,308.2725 Q221.3242,308.0566 220.8195,308.0566 Q219.7438,308.0566 219.1959,308.91 Q218.648,309.7633 218.648,311.4434 Q218.648,313.1168 219.1959,313.9701 Q219.7438,314.8234 220.8195,314.8234 Q221.3242,314.8234 221.799,314.6076 Q222.2738,314.3918 222.7785,313.927 Z " fill="#000000"/><text fill="#000000" font-family="sans-serif" font-size="11.2" lengthAdjust="spacing" textLength="162.4" x="231.6" y="315.8234">CandidateApplicationsService</text><line style="stroke:#000000;stroke-width:0.4000000000000001;" x1="209.2" x2="395.6" y1="324.3906" y2="324.3906"/><line style="stroke:#000000;stroke-width:0.4000000000000001;" x1="209.2" x2="395.6" y1="330.7906" y2="330.7906"/><ellipse cx="217.2" cy="341.7859" fill="#84BE84" rx="2.4" ry="2.4" style="stroke:#038048;stroke-width:0.8000000000000002;"/><text fill="#000000" font-family="sans-serif" font-size="11.2" lengthAdjust="spacing" textLength="147.2" x="224.4" y="344.8188">requestApplications(email)</text></g><!--class ApplicationService--><g id="elem_ApplicationService"><rect codeLine="61" fill="#FFFFFF" height="143.925" id="ApplicationService" rx="2" ry="2" style="stroke:#000000;stroke-width:0.4000000000000001;" width="443.2" x="17.6" y="477.1906"/><ellipse cx="185.4" cy="489.9906" fill="#ADD1B2" rx="8.8" ry="8.8" style="stroke:#181818;stroke-width:0.8000000000000002;"/><path d="M187.7785,494.5051 Q187.3137,494.7441 186.8023,494.8637 Q186.291,494.9832 185.7266,494.9832 Q183.7211,494.9832 182.6652,493.6617 Q181.6094,492.3402 181.6094,489.8434 Q181.6094,487.3398 182.6652,486.0184 Q183.7211,484.6969 185.7266,484.6969 Q186.291,484.6969 186.809,484.8164 Q187.327,484.9359 187.7785,485.175 L187.7785,487.3531 Q187.2738,486.8883 186.799,486.6725 Q186.3242,486.4566 185.8195,486.4566 Q184.7438,486.4566 184.1959,487.31 Q183.648,488.1633 183.648,489.8434 Q183.648,491.5168 184.1959,492.3701 Q184.7438,493.2234 185.8195,493.2234 Q186.3242,493.2234 186.799,493.0076 Q187.2738,492.7918 187.7785,492.327 Z " fill="#000000"/><text fill="#000000" font-family="sans-serif" font-size="11.2" lengthAdjust="spacing" textLength="100.8" x="201.8" y="494.2234">ApplicationService</text><line style="stroke:#000000;stroke-width:0.4000000000000001;" x1="18.4" x2="460" y1="502.7906" y2="502.7906"/><line style="stroke:#000000;stroke-width:0.4000000000000001;" x1="18.4" x2="460" y1="509.1906" y2="509.1906"/><ellipse cx="26.4" cy="520.1859" fill="#84BE84" rx="2.4" ry="2.4" style="stroke:#038048;stroke-width:0.8000000000000002;"/><text fill="#000000" font-family="sans-serif" font-size="11.2" lengthAdjust="spacing" textLength="422.4" x="33.6" y="523.2188">registerApplication(rank, applicationFiles, jobReference, candidate, operator)</text><ellipse cx="26.4" cy="533.3766" fill="#84BE84" rx="2.4" ry="2.4" style="stroke:#038048;stroke-width:0.8000000000000002;"/><text fill="#000000" font-family="sans-serif" font-size="11.2" lengthAdjust="spacing" textLength="186.4" x="33.6" y="536.4094">findApplicationById(applicationID)</text><ellipse cx="26.4" cy="546.5672" fill="#84BE84" rx="2.4" ry="2.4" style="stroke:#038048;stroke-width:0.8000000000000002;"/><text fill="#000000" font-family="sans-serif" font-size="11.2" lengthAdjust="spacing" textLength="88.8" x="33.6" y="549.6">allApplications()</text><ellipse cx="26.4" cy="559.7578" fill="#84BE84" rx="2.4" ry="2.4" style="stroke:#038048;stroke-width:0.8000000000000002;"/><text fill="#000000" font-family="sans-serif" font-size="11.2" lengthAdjust="spacing" textLength="245.6" x="33.6" y="562.7906">findApplicationsForJobOpening(jobOpening)</text><ellipse cx="26.4" cy="572.9484" fill="#84BE84" rx="2.4" ry="2.4" style="stroke:#038048;stroke-width:0.8000000000000002;"/><text fill="#000000" font-family="sans-serif" font-size="11.2" lengthAdjust="spacing" textLength="165.6" x="33.6" y="575.9813">updateRank(rank, application)</text><ellipse cx="26.4" cy="586.1391" fill="#84BE84" rx="2.4" ry="2.4" style="stroke:#038048;stroke-width:0.8000000000000002;"/><text fill="#000000" font-family="sans-serif" font-size="11.2" lengthAdjust="spacing" textLength="120" x="33.6" y="589.1719">applicationsByCM(cm)</text><ellipse cx="26.4" cy="599.3297" fill="#84BE84" rx="2.4" ry="2.4" style="stroke:#038048;stroke-width:0.8000000000000002;"/><text fill="#000000" font-family="sans-serif" font-size="11.2" lengthAdjust="spacing" textLength="196" x="33.6" y="602.3625">applicationsByCandidate(candidate)</text><ellipse cx="26.4" cy="612.5203" fill="#84BE84" rx="2.4" ry="2.4" style="stroke:#038048;stroke-width:0.8000000000000002;"/><text fill="#000000" font-family="sans-serif" font-size="11.2" lengthAdjust="spacing" textLength="280" x="33.6" y="615.5531">numberOfApplicationsForJobOpening(jobOpening)</text></g><!--link ListCandidateApplicationsUI to ListCandidateApplicationsController--><g id="link_ListCandidateApplicationsUI_ListCandidateApplicationsController"><path codeLine="73" d="M302.4,127.7986 C302.4,146.5106 302.4,165.0386 302.4,182.4626 " fill="none" id="ListCandidateApplicationsUI-to-ListCandidateApplicationsController" style="stroke:#000000;stroke-width:0.8000000000000002;"/><polygon fill="#000000" points="302.4,187.2626,305.6,180.0626,302.4,183.2626,299.2,180.0626,302.4,187.2626" style="stroke:#000000;stroke-width:0.8000000000000002;"/></g><!--link ListCandidateApplicationsController to CandidateApplicationsService--><g id="link_ListCandidateApplicationsController_CandidateApplicationsService"><path codeLine="75" d="M302.4,239.1346 C302.4,256.9586 302.4,275.9666 302.4,293.7666 " fill="none" id="ListCandidateApplicationsController-to-CandidateApplicationsService" style="stroke:#000000;stroke-width:0.8000000000000002;"/><polygon fill="#000000" points="302.4,298.5666,305.6,291.3666,302.4,294.5666,299.2,291.3666,302.4,298.5666" style="stroke:#000000;stroke-width:0.8000000000000002;"/></g><!--link CandidateApplicationsService to ApplicationService--><g id="link_CandidateApplicationsService_ApplicationService"><path codeLine="77" d="M295.272,350.3586 C286.64,380.8546 273.0277,428.9242 260.7477,472.2922 " fill="none" id="CandidateApplicationsService-to-ApplicationService" style="stroke:#000000;stroke-width:0.8000000000000002;"/><polygon fill="#000000" points="259.44,476.9106,264.4806,470.8548,260.5298,473.0619,258.3227,469.1112,259.44,476.9106" style="stroke:#000000;stroke-width:0.8000000000000002;"/></g><!--link CandidateApplicationsService to Application--><g id="link_CandidateApplicationsService_Application"><path codeLine="79" d="M396.696,337.3906 C422.56,343.0946 449.968,351.4226 473.6,363.5906 C492.312,373.2226 506.7733,382.1254 524.3333,394.9654 " fill="none" id="CandidateApplicationsService-to-Application" style="stroke:#000000;stroke-width:0.8000000000000002;"/><polygon fill="#000000" points="528.208,397.7986,524.2848,390.9657,524.9791,395.4376,520.5072,396.132,528.208,397.7986" style="stroke:#000000;stroke-width:0.8000000000000002;"/></g><!--link ApplicationService to ApplicationRepository--><g id="link_ApplicationService_ApplicationRepository"><path codeLine="81" d="M239.2,621.2866 C239.2,667.3026 239.2,720.1106 239.2,755.2546 " fill="none" id="ApplicationService-to-ApplicationRepository" style="stroke:#000000;stroke-width:0.8000000000000002;"/><polygon fill="#000000" points="239.2,760.0546,242.4,752.8546,239.2,756.0546,236,752.8546,239.2,760.0546" style="stroke:#000000;stroke-width:0.8000000000000002;"/></g><!--SRC=[bLJ1Zjem5BpxAonEGOL3fPuhGLP8LAsGOAkUJVn8l3X-gUrqHQlzzze90HlSBCqfUXxFp7iUsno5QfXcDIqaCuR-8THzIrOSIusjuZbArFH79InqAmkjyRKlBgL3zN3K7FHjTONAfcexyHlenq_aZP1dOINGITv9FmbMUYDpkeLI60kQCbemnGLd5YQ4D8w5bGxVQ32WBBC2rUHikRV_rUtBXosBff6Yw53c-_gCyzy7od5NuMis3KeLC2w5WdFnpVkxAB8hrOE2kUjKevIkYr3O-UOXR0i_Mp0sWve9cLBMqA0H5hK0CqWBvOPpO0NGW6ex04-H89Cor8jQniEQkpaAUye4JubpTBPkEWxO8g6WdcccZZDQQ713uHirey7yLaA2cT4Nt6_X01fK0RCBJISpZ7D6iG7DN4lJV-Y4TSDgM9WCRGKHtWsOoKIzOgRAaKD4Kc3jRWCyuprU3ACAYxxHs4MxhuKnpjoJwo1USe5jumDmNJ8_Z_XKpat7neQXHDLmY6cupvVGK3lliNJRTClUlsyYsbmnLSAkjzkx3fSjxgmMghoXayXudfHDcad5pO3-9Ofhpll09Q_NheT62TJzNOhY7jshT8hJLFqBT1_gTvByNdeF8hh_ozEQPm7b-cdwuDsz8J8hr5zmlsb0-QDvkVoEd7dKJAGRy2vF-RUig4UMBycyj1w2LLllGMyEZtljCZ7saC_ddnzvTqT8WiVPauqbZ93H_Fdjzrdwlqs49D9uWxc-xeIGlm00]--></g></svg>