<?xml version="1.0" encoding="us-ascii" standalone="no"?><svg xmlns="http://www.w3.org/2000/svg" xmlns:xlink="http://www.w3.org/1999/xlink" contentStyleType="text/css" height="479.2px" preserveAspectRatio="none" style="width:289px;height:479px;background:#FFFFFF;" version="1.1" viewBox="0 0 289 479" width="289.6px" zoomAndPan="magnify"><defs/><g><text fill="#000000" font-family="sans-serif" font-size="11.2" font-weight="bold" lengthAdjust="spacing" textLength="267.2" x="8" y="18.8281">Class Diagram - List Candidate's Applications</text><!--cluster presentation--><g id="cluster_presentation"><path d="M46.4,34.7906 L120,34.7906 A3,3 0 0 1 122,36.7906 L127.6,52.7813 L247.2,52.7813 A2,2 0 0 1 249.2,54.7813 L249.2,138.3906 A2,2 0 0 1 247.2,140.3906 L46.4,140.3906 A2,2 0 0 1 44.4,138.3906 L44.4,36.7906 A2,2 0 0 1 46.4,34.7906 " fill="none" style="stroke:#000000;stroke-width:1.2000000000000002;"/><line style="stroke:#000000;stroke-width:1.2000000000000002;" x1="44.4" x2="127.6" y1="52.7813" y2="52.7813"/><text fill="#000000" font-family="sans-serif" font-size="11.2" font-weight="bold" lengthAdjust="spacing" textLength="72.8" x="47.6" y="47.2188">presentation</text></g><!--cluster application--><g id="cluster_application"><path d="M24,159.5906 L88.8,159.5906 A3,3 0 0 1 90.8,161.5906 L96.4,177.5813 L269.6,177.5813 A2,2 0 0 1 271.6,179.5813 L271.6,249.5906 A2,2 0 0 1 269.6,251.5906 L24,251.5906 A2,2 0 0 1 22,249.5906 L22,161.5906 A2,2 0 0 1 24,159.5906 " fill="none" style="stroke:#000000;stroke-width:1.2000000000000002;"/><line style="stroke:#000000;stroke-width:1.2000000000000002;" x1="22" x2="96.4" y1="177.5813" y2="177.5813"/><text fill="#000000" font-family="sans-serif" font-size="11.2" font-weight="bold" lengthAdjust="spacing" textLength="64" x="25.2" y="172.0188">application</text></g><!--cluster services--><g id="cluster_services"><path d="M41.6,270.7906 L88.8,270.7906 A3,3 0 0 1 90.8,272.7906 L96.4,288.7813 L252,288.7813 A2,2 0 0 1 254,290.7813 L254,360.7906 A2,2 0 0 1 252,362.7906 L41.6,362.7906 A2,2 0 0 1 39.6,360.7906 L39.6,272.7906 A2,2 0 0 1 41.6,270.7906 " fill="none" style="stroke:#000000;stroke-width:1.2000000000000002;"/><line style="stroke:#000000;stroke-width:1.2000000000000002;" x1="39.6" x2="96.4" y1="288.7813" y2="288.7813"/><text fill="#000000" font-family="sans-serif" font-size="11.2" font-weight="bold" lengthAdjust="spacing" textLength="46.4" x="42.8" y="283.2188">services</text></g><!--cluster protocol--><g id="cluster_protocol"><path d="M59.2,381.9906 L108,381.9906 A3,3 0 0 1 110,383.9906 L115.6,399.9813 L234.4,399.9813 A2,2 0 0 1 236.4,401.9813 L236.4,471.9906 A2,2 0 0 1 234.4,473.9906 L59.2,473.9906 A2,2 0 0 1 57.2,471.9906 L57.2,383.9906 A2,2 0 0 1 59.2,381.9906 " fill="none" style="stroke:#000000;stroke-width:1.2000000000000002;"/><line style="stroke:#000000;stroke-width:1.2000000000000002;" x1="57.2" x2="115.6" y1="399.9813" y2="399.9813"/><text fill="#000000" font-family="sans-serif" font-size="11.2" font-weight="bold" lengthAdjust="spacing" textLength="48" x="60.4" y="394.4188">protocol</text></g><!--class ListCandidateApplicationsUI--><g id="elem_ListCandidateApplicationsUI"><rect codeLine="12" fill="#FFFFFF" height="64.7813" id="ListCandidateApplicationsUI" rx="2" ry="2" style="stroke:#000000;stroke-width:0.4000000000000001;" width="179.2" x="57.2" y="62.7906"/><ellipse cx="69.2" cy="75.5906" fill="#ADD1B2" rx="8.8" ry="8.8" style="stroke:#181818;stroke-width:0.8000000000000002;"/><path d="M71.5785,80.1051 Q71.1137,80.3441 70.6023,80.4637 Q70.091,80.5832 69.5266,80.5832 Q67.5211,80.5832 66.4652,79.2617 Q65.4094,77.9402 65.4094,75.4434 Q65.4094,72.9398 66.4652,71.6184 Q67.5211,70.2969 69.5266,70.2969 Q70.091,70.2969 70.609,70.4164 Q71.127,70.5359 71.5785,70.775 L71.5785,72.9531 Q71.0738,72.4883 70.599,72.2725 Q70.1242,72.0566 69.6195,72.0566 Q68.5438,72.0566 67.9959,72.91 Q67.448,73.7633 67.448,75.4434 Q67.448,77.1168 67.9959,77.9701 Q68.5438,78.8234 69.6195,78.8234 Q70.1242,78.8234 70.599,78.6076 Q71.0738,78.3918 71.5785,77.927 Z " fill="#000000"/><text fill="#000000" font-family="sans-serif" font-size="11.2" lengthAdjust="spacing" textLength="153.6" x="80.4" y="79.8234">ListCandidateApplicationsUI</text><line style="stroke:#000000;stroke-width:0.4000000000000001;" x1="58" x2="235.6" y1="88.3906" y2="88.3906"/><line style="stroke:#000000;stroke-width:0.4000000000000001;" x1="58" x2="235.6" y1="94.7906" y2="94.7906"/><ellipse cx="66" cy="105.7859" fill="#84BE84" rx="2.4" ry="2.4" style="stroke:#038048;stroke-width:0.8000000000000002;"/><text fill="#000000" font-family="sans-serif" font-size="11.2" lengthAdjust="spacing" textLength="52" x="73.2" y="108.8188">doShow()</text><ellipse cx="66" cy="118.9766" fill="#84BE84" rx="2.4" ry="2.4" style="stroke:#038048;stroke-width:0.8000000000000002;"/><text fill="#000000" font-family="sans-serif" font-size="11.2" lengthAdjust="spacing" textLength="55.2" x="73.2" y="122.0094">headline()</text></g><!--class ListCandidateApplicationsController--><g id="elem_ListCandidateApplicationsController"><rect codeLine="19" fill="#FFFFFF" height="51.5906" id="ListCandidateApplicationsController" rx="2" ry="2" style="stroke:#000000;stroke-width:0.4000000000000001;" width="224" x="34.8" y="187.5906"/><ellipse cx="46.8" cy="200.3906" fill="#ADD1B2" rx="8.8" ry="8.8" style="stroke:#181818;stroke-width:0.8000000000000002;"/><path d="M49.1785,204.9051 Q48.7137,205.1441 48.2023,205.2637 Q47.691,205.3832 47.1266,205.3832 Q45.1211,205.3832 44.0652,204.0617 Q43.0094,202.7402 43.0094,200.2434 Q43.0094,197.7398 44.0652,196.4184 Q45.1211,195.0969 47.1266,195.0969 Q47.691,195.0969 48.209,195.2164 Q48.727,195.3359 49.1785,195.575 L49.1785,197.7531 Q48.6738,197.2883 48.199,197.0725 Q47.7242,196.8566 47.2195,196.8566 Q46.1438,196.8566 45.5959,197.71 Q45.048,198.5633 45.048,200.2434 Q45.048,201.9168 45.5959,202.7701 Q46.1438,203.6234 47.2195,203.6234 Q47.7242,203.6234 48.199,203.4076 Q48.6738,203.1918 49.1785,202.727 Z " fill="#000000"/><text fill="#000000" font-family="sans-serif" font-size="11.2" lengthAdjust="spacing" textLength="198.4" x="58" y="204.6234">ListCandidateApplicationsController</text><line style="stroke:#000000;stroke-width:0.4000000000000001;" x1="35.6" x2="258" y1="213.1906" y2="213.1906"/><line style="stroke:#000000;stroke-width:0.4000000000000001;" x1="35.6" x2="258" y1="219.5906" y2="219.5906"/><ellipse cx="43.6" cy="230.5859" fill="#84BE84" rx="2.4" ry="2.4" style="stroke:#038048;stroke-width:0.8000000000000002;"/><text fill="#000000" font-family="sans-serif" font-size="11.2" lengthAdjust="spacing" textLength="176" x="50.8" y="233.6188">sendApplicationsRequest(email)</text></g><!--class CandidateApplicationsService--><g id="elem_CandidateApplicationsService"><rect codeLine="26" fill="#FFFFFF" height="51.5906" id="CandidateApplicationsService" rx="2" ry="2" style="stroke:#000000;stroke-width:0.4000000000000001;" width="188" x="52.8" y="298.7906"/><ellipse cx="64.8" cy="311.5906" fill="#ADD1B2" rx="8.8" ry="8.8" style="stroke:#181818;stroke-width:0.8000000000000002;"/><path d="M67.1785,316.1051 Q66.7137,316.3441 66.2023,316.4637 Q65.691,316.5832 65.1266,316.5832 Q63.1211,316.5832 62.0652,315.2617 Q61.0094,313.9402 61.0094,311.4434 Q61.0094,308.9398 62.0652,307.6184 Q63.1211,306.2969 65.1266,306.2969 Q65.691,306.2969 66.209,306.4164 Q66.727,306.5359 67.1785,306.775 L67.1785,308.9531 Q66.6738,308.4883 66.199,308.2725 Q65.7242,308.0566 65.2195,308.0566 Q64.1438,308.0566 63.5959,308.91 Q63.048,309.7633 63.048,311.4434 Q63.048,313.1168 63.5959,313.9701 Q64.1438,314.8234 65.2195,314.8234 Q65.7242,314.8234 66.199,314.6076 Q66.6738,314.3918 67.1785,313.927 Z " fill="#000000"/><text fill="#000000" font-family="sans-serif" font-size="11.2" lengthAdjust="spacing" textLength="162.4" x="76" y="315.8234">CandidateApplicationsService</text><line style="stroke:#000000;stroke-width:0.4000000000000001;" x1="53.6" x2="240" y1="324.3906" y2="324.3906"/><line style="stroke:#000000;stroke-width:0.4000000000000001;" x1="53.6" x2="240" y1="330.7906" y2="330.7906"/><ellipse cx="61.6" cy="341.7859" fill="#84BE84" rx="2.4" ry="2.4" style="stroke:#038048;stroke-width:0.8000000000000002;"/><text fill="#000000" font-family="sans-serif" font-size="11.2" lengthAdjust="spacing" textLength="147.2" x="68.8" y="344.8188">requestApplications(email)</text></g><!--class Jobs4UProtocol--><g id="elem_Jobs4UProtocol"><rect codeLine="32" fill="#FFFFFF" height="51.5906" id="Jobs4UProtocol" rx="2" ry="2" style="stroke:#000000;stroke-width:0.4000000000000001;" width="152.8" x="70.4" y="409.9906"/><ellipse cx="101.84" cy="422.7906" fill="#ADD1B2" rx="8.8" ry="8.8" style="stroke:#181818;stroke-width:0.8000000000000002;"/><path d="M104.2185,427.3051 Q103.7537,427.5441 103.2423,427.6637 Q102.731,427.7832 102.1666,427.7832 Q100.1611,427.7832 99.1052,426.4617 Q98.0494,425.1402 98.0494,422.6434 Q98.0494,420.1398 99.1052,418.8184 Q100.1611,417.4969 102.1666,417.4969 Q102.731,417.4969 103.249,417.6164 Q103.767,417.7359 104.2185,417.975 L104.2185,420.1531 Q103.7138,419.6883 103.239,419.4725 Q102.7642,419.2566 102.2595,419.2566 Q101.1838,419.2566 100.6359,420.11 Q100.088,420.9633 100.088,422.6434 Q100.088,424.3168 100.6359,425.1701 Q101.1838,426.0234 102.2595,426.0234 Q102.7642,426.0234 103.239,425.8076 Q103.7138,425.5918 104.2185,425.127 Z " fill="#000000"/><text fill="#000000" font-family="sans-serif" font-size="11.2" lengthAdjust="spacing" textLength="84" x="117.36" y="427.0234">Jobs4UProtocol</text><line style="stroke:#000000;stroke-width:0.4000000000000001;" x1="71.2" x2="222.4" y1="435.5906" y2="435.5906"/><line style="stroke:#000000;stroke-width:0.4000000000000001;" x1="71.2" x2="222.4" y1="441.9906" y2="441.9906"/><ellipse cx="79.2" cy="452.9859" fill="#84BE84" rx="2.4" ry="2.4" style="stroke:#038048;stroke-width:0.8000000000000002;"/><text fill="#000000" font-family="sans-serif" font-size="11.2" lengthAdjust="spacing" textLength="132" x="86.4" y="456.0188">sendApplications(email)</text></g><!--link ListCandidateApplicationsUI to ListCandidateApplicationsController--><g id="link_ListCandidateApplicationsUI_ListCandidateApplicationsController"><path codeLine="37" d="M146.8,127.7986 C146.8,146.5106 146.8,165.0386 146.8,182.4626 " fill="none" id="ListCandidateApplicationsUI-to-ListCandidateApplicationsController" style="stroke:#000000;stroke-width:0.8000000000000002;"/><polygon fill="#000000" points="146.8,187.2626,150,180.0626,146.8,183.2626,143.6,180.0626,146.8,187.2626" style="stroke:#000000;stroke-width:0.8000000000000002;"/></g><!--link ListCandidateApplicationsController to CandidateApplicationsService--><g id="link_ListCandidateApplicationsController_CandidateApplicationsService"><path codeLine="39" d="M146.8,239.1346 C146.8,256.9586 146.8,275.9666 146.8,293.7666 " fill="none" id="ListCandidateApplicationsController-to-CandidateApplicationsService" style="stroke:#000000;stroke-width:0.8000000000000002;"/><polygon fill="#000000" points="146.8,298.5666,150,291.3666,146.8,294.5666,143.6,291.3666,146.8,298.5666" style="stroke:#000000;stroke-width:0.8000000000000002;"/></g><!--link CandidateApplicationsService to Jobs4UProtocol--><g id="link_CandidateApplicationsService_Jobs4UProtocol"><path codeLine="41" d="M146.8,350.3346 C146.8,368.1586 146.8,387.1666 146.8,404.9666 " fill="none" id="CandidateApplicationsService-to-Jobs4UProtocol" style="stroke:#000000;stroke-width:0.8000000000000002;"/><polygon fill="#000000" points="146.8,409.7666,150,402.5666,146.8,405.7666,143.6,402.5666,146.8,409.7666" style="stroke:#000000;stroke-width:0.8000000000000002;"/></g><!--SRC=[ZP51QyCm38Nl_XKcbtMC70Oz3zgCmiOEOrdPsOj58kfQcUokiD7_FZi9hREMK1-bf_T9psw3jbMijh8ooZdvAsHuIrLjQgQTrGKPOldHe8Ukis2cVLzScg3gvSGQ-7zrHTPVgfNu0_9-BWv2lACt8BEYGp-YgkCYkNn1vsMXh4QjFDmukMXRWvNoIDPbGhJ1JjLXi6LmO7tNo8RT-pkYnT4X7Ly_3RhuxgIcig7zx3OfDQ2qGGj3yH0NFHBLoUfAO15EPZ86U0GEU-jKzWPVEt1-1bk59Y6Vq0xu6ojmO-v5PjbBHq3k0Qdi39O4IvugCcFMCtsw-Vfrw4sUSsOzzI5v_d1DVXCcISZHR2eK8IOZY-FZEyCVY3y0]--></g></svg>