<?xml version="1.0" encoding="us-ascii" standalone="no"?><svg xmlns="http://www.w3.org/2000/svg" xmlns:xlink="http://www.w3.org/1999/xlink" contentStyleType="text/css" height="441.6px" preserveAspectRatio="none" style="width:649px;height:441px;background:#FFFFFF;" version="1.1" viewBox="0 0 649 441" width="649.6px" zoomAndPan="magnify"><defs/><g><text fill="#000000" font-family="sans-serif" font-size="11.2" font-weight="bold" lengthAdjust="spacing" textLength="284.8" x="176.8" y="18.8281">Domain Model - Upload Candidate Requirements</text><!--cluster Application Aggregate--><g id="cluster_Application Aggregate"><rect fill="none" height="250.4" rx="2" ry="2" style="stroke:#000000;stroke-width:1.2000000000000002;" width="639.2" x="5.6" y="35.5906"/><text fill="#000000" font-family="sans-serif" font-size="11.2" font-weight="bold" lengthAdjust="spacing" textLength="128" x="261.2" y="48.0188">Application Aggregate</text></g><!--cluster Candidate Aggregate--><g id="cluster_Candidate Aggregate"><rect fill="none" height="132" rx="2" ry="2" style="stroke:#000000;stroke-width:1.2000000000000002;" width="388.4" x="152.8" y="305.1906"/><text fill="#000000" font-family="sans-serif" font-size="11.2" font-weight="bold" lengthAdjust="spacing" textLength="120" x="287" y="317.6188">Candidate Aggregate</text></g><!--class Application--><g id="elem_Application"><rect codeLine="25" fill="#F0FFFF" height="50.2031" id="Application" rx="2" ry="2" style="stroke:#000000;stroke-width:0.4000000000000001;" width="88" x="18.4" y="172.7906"/><ellipse cx="30.4" cy="194.6922" fill="#ADD1B2" rx="8.8" ry="8.8" style="stroke:#181818;stroke-width:0.8000000000000002;"/><path d="M33.6914,199.4922 L27.5156,199.4922 L27.5156,189.5777 L33.6914,189.5777 L33.6914,191.3043 L29.4746,191.3043 L29.4746,193.4426 L33.293,193.4426 L33.293,195.1691 L29.4746,195.1691 L29.4746,197.7656 L33.6914,197.7656 Z " fill="#000000"/><text fill="#000000" font-family="sans-serif" font-size="9.6" font-style="italic" lengthAdjust="spacing" textLength="34.4" x="55.6" y="186.0719">&#171;entity&#187;</text><text fill="#000000" font-family="sans-serif" font-size="9.6" font-style="italic" lengthAdjust="spacing" textLength="28" x="58.8" y="197.3781">&#171;root&#187;</text><text fill="#000000" font-family="sans-serif" font-size="11.2" lengthAdjust="spacing" textLength="62.4" x="41.6" y="210.2313">Application</text><line style="stroke:#000000;stroke-width:0.4000000000000001;" x1="19.2" x2="105.6" y1="216.5938" y2="216.5938"/></g><g id="elem_GMN12"><path d="M389.6,105.5906 L389.6,154.6066 L254.504,187.5586 L389.6,161.0066 L389.6,174.8328 A0,0 0 0 0 389.6,174.8328 L548.8,174.8328 A0,0 0 0 0 548.8,174.8328 L548.8,113.5906 L540.8,105.5906 L389.6,105.5906 A0,0 0 0 0 389.6,105.5906 " fill="#FEFFDD" style="stroke:#181818;stroke-width:0.4000000000000001;"/><path d="M540.8,105.5906 L540.8,113.5906 L548.8,113.5906 L540.8,105.5906 " fill="#FEFFDD" style="stroke:#181818;stroke-width:0.4000000000000001;"/><text fill="#000000" font-family="sans-serif" font-size="10.4" lengthAdjust="spacing" textLength="142.4" x="394.4" y="119.6453">Can be one of the following:</text><text fill="#000000" font-family="sans-serif" font-size="10.4" lengthAdjust="spacing" textLength="60.8" x="394.4" y="131.8938">- submitted</text><text fill="#000000" font-family="sans-serif" font-size="10.4" lengthAdjust="spacing" textLength="50.4" x="394.4" y="144.1422">- pending</text><text fill="#000000" font-family="sans-serif" font-size="10.4" lengthAdjust="spacing" textLength="54.4" x="394.4" y="156.3906">- accepted</text><text fill="#000000" font-family="sans-serif" font-size="10.4" lengthAdjust="spacing" textLength="52" x="394.4" y="168.6391">- declined</text></g><g id="elem_GMN15"><path d="M306.4,203.1906 L306.4,246.7186 L258.184,253.4466 L306.4,253.1186 L306.4,272.4328 A0,0 0 0 0 306.4,272.4328 L632,272.4328 A0,0 0 0 0 632,272.4328 L632,211.1906 L624,203.1906 L306.4,203.1906 A0,0 0 0 0 306.4,203.1906 " fill="#FEFFDD" style="stroke:#181818;stroke-width:0.4000000000000001;"/><path d="M624,203.1906 L624,211.1906 L632,211.1906 L624,203.1906 " fill="#FEFFDD" style="stroke:#181818;stroke-width:0.4000000000000001;"/><text fill="#000000" font-family="sans-serif" font-size="10.4" lengthAdjust="spacing" textLength="142.4" x="311.2" y="217.2453">Can be one of the following:</text><text fill="#000000" font-family="sans-serif" font-size="10.4" lengthAdjust="spacing" textLength="203.2" x="311.2" y="229.4938">- text file with the contents of the email</text><text fill="#000000" font-family="sans-serif" font-size="10.4" lengthAdjust="spacing" textLength="198.4" x="311.2" y="241.7422">- file for each file attached to the email</text><text fill="#000000" font-family="sans-serif" font-size="10.4" lengthAdjust="spacing" textLength="308.8" x="311.2" y="253.9906">- text file with the contents of each file attached to the email</text><text fill="#000000" font-family="sans-serif" font-size="10.4" lengthAdjust="spacing" textLength="283.2" x="311.2" y="266.2391">- text file with the data of the application and candidate</text></g><!--entity ApplicationFiles--><g id="elem_ApplicationFiles"><rect fill="#F0FFDD" height="31.1813" rx="2" ry="2" style="stroke:#000000;stroke-width:0.4000000000000001;" width="103.2" x="154.8" y="241.5906"/><text fill="#000000" font-family="sans-serif" font-size="11.2" font-style="italic" lengthAdjust="spacing" textLength="80" x="166.4" y="254.8188">&#171;Value Object&#187;</text><text fill="#000000" font-family="sans-serif" font-size="11.2" lengthAdjust="spacing" textLength="87.2" x="162.8" y="268.0094">ApplicationFiles</text></g><!--entity Status--><g id="elem_Status"><rect fill="#F0FFDD" height="31.1813" rx="2" ry="2" style="stroke:#000000;stroke-width:0.4000000000000001;" width="96" x="158.4" y="182.3906"/><text fill="#000000" font-family="sans-serif" font-size="11.2" font-style="italic" lengthAdjust="spacing" textLength="80" x="166.4" y="195.6188">&#171;Value Object&#187;</text><text fill="#000000" font-family="sans-serif" font-size="11.2" lengthAdjust="spacing" textLength="33.6" x="189.6" y="208.8094">Status</text></g><!--entity SubmissionDate--><g id="elem_SubmissionDate"><rect fill="#F0FFDD" height="31.1813" rx="2" ry="2" style="stroke:#000000;stroke-width:0.4000000000000001;" width="104" x="154.4" y="123.1906"/><text fill="#000000" font-family="sans-serif" font-size="11.2" font-style="italic" lengthAdjust="spacing" textLength="80" x="166.4" y="136.4188">&#171;Value Object&#187;</text><text fill="#000000" font-family="sans-serif" font-size="11.2" lengthAdjust="spacing" textLength="88" x="162.4" y="149.6094">SubmissionDate</text></g><!--entity Rank--><g id="elem_Rank"><rect fill="#F0FFDD" height="31.1813" rx="2" ry="2" style="stroke:#000000;stroke-width:0.4000000000000001;" width="96" x="158.4" y="63.9906"/><text fill="#000000" font-family="sans-serif" font-size="11.2" font-style="italic" lengthAdjust="spacing" textLength="80" x="166.4" y="77.2188">&#171;Value Object&#187;</text><text fill="#000000" font-family="sans-serif" font-size="11.2" lengthAdjust="spacing" textLength="27.2" x="192.8" y="90.4094">Rank</text></g><!--class Candidate--><g id="elem_Candidate"><rect codeLine="60" fill="#F0FFFF" height="50.2031" id="Candidate" rx="2" ry="2" style="stroke:#000000;stroke-width:0.4000000000000001;" width="81.6" x="165.6" y="333.5906"/><ellipse cx="177.6" cy="355.4922" fill="#ADD1B2" rx="8.8" ry="8.8" style="stroke:#181818;stroke-width:0.8000000000000002;"/><path d="M180.8914,360.2922 L174.7156,360.2922 L174.7156,350.3777 L180.8914,350.3777 L180.8914,352.1043 L176.6746,352.1043 L176.6746,354.2426 L180.493,354.2426 L180.493,355.9691 L176.6746,355.9691 L176.6746,358.5656 L180.8914,358.5656 Z " fill="#000000"/><text fill="#000000" font-family="sans-serif" font-size="9.6" font-style="italic" lengthAdjust="spacing" textLength="34.4" x="199.6" y="346.8719">&#171;entity&#187;</text><text fill="#000000" font-family="sans-serif" font-size="9.6" font-style="italic" lengthAdjust="spacing" textLength="28" x="202.8" y="358.1781">&#171;root&#187;</text><text fill="#000000" font-family="sans-serif" font-size="11.2" lengthAdjust="spacing" textLength="56" x="188.8" y="371.0313">Candidate</text><line style="stroke:#000000;stroke-width:0.4000000000000001;" x1="166.4" x2="246.4" y1="377.3938" y2="377.3938"/></g><!--entity Curriculum--><g id="elem_Curriculum"><rect fill="#F0FFDD" height="31.1813" rx="2" ry="2" style="stroke:#000000;stroke-width:0.4000000000000001;" width="96" x="421.2" y="392.7906"/><text fill="#000000" font-family="sans-serif" font-size="11.2" font-style="italic" lengthAdjust="spacing" textLength="80" x="429.2" y="406.0188">&#171;Value Object&#187;</text><text fill="#000000" font-family="sans-serif" font-size="11.2" lengthAdjust="spacing" textLength="61.6" x="438.4" y="419.2094">Curriculum</text></g><!--entity TelephoneNumber--><g id="elem_TelephoneNumber"><rect fill="#F0FFDD" height="31.1813" rx="2" ry="2" style="stroke:#000000;stroke-width:0.4000000000000001;" width="118.4" x="410" y="333.5906"/><text fill="#000000" font-family="sans-serif" font-size="11.2" font-style="italic" lengthAdjust="spacing" textLength="80" x="429.2" y="346.8188">&#171;Value Object&#187;</text><text fill="#000000" font-family="sans-serif" font-size="11.2" lengthAdjust="spacing" textLength="102.4" x="418" y="360.0094">TelephoneNumber</text></g><!--link Application to ApplicationFiles--><g id="link_Application_ApplicationFiles"><path codeLine="36" d="M106.696,216.0706 C126,224.1026 144.0875,231.6205 162.7595,239.3805 " fill="none" id="Application-to-ApplicationFiles" style="stroke:#808080;stroke-width:0.8000000000000002;"/><polygon fill="#808080" points="167.192,241.2226,161.7714,235.5045,163.4983,239.6875,159.3152,241.4144,167.192,241.2226" style="stroke:#808080;stroke-width:0.8000000000000002;"/></g><!--link Application to Status--><g id="link_Application_Status"><path codeLine="37" d="M106.696,197.9906 C122.976,197.9906 136.736,197.9906 153.352,197.9906 " fill="none" id="Application-to-Status" style="stroke:#808080;stroke-width:0.8000000000000002;"/><polygon fill="#808080" points="158.152,197.9906,150.952,194.7906,154.152,197.9906,150.952,201.1906,158.152,197.9906" style="stroke:#808080;stroke-width:0.8000000000000002;"/></g><!--link Application to SubmissionDate--><g id="link_Application_SubmissionDate"><path codeLine="38" d="M106.696,179.9106 C126,171.8786 144.0875,164.3607 162.7595,156.6007 " fill="none" id="Application-to-SubmissionDate" style="stroke:#808080;stroke-width:0.8000000000000002;"/><polygon fill="#808080" points="167.192,154.7586,159.3152,154.5668,163.4983,156.2937,161.7714,160.4768,167.192,154.7586" style="stroke:#808080;stroke-width:0.8000000000000002;"/></g><!--link Application to Rank--><g id="link_Application_Rank"><path codeLine="39" d="M82.712,172.7106 C98.416,153.5586 121.848,127.5026 146.4,109.1906 C153.216,104.1106 156.7819,101.7022 164.4539,97.7102 " fill="none" id="Application-to-Rank" style="stroke:#808080;stroke-width:0.8000000000000002;"/><polygon fill="#808080" points="168.712,95.4946,160.8478,95.9793,165.1636,97.341,163.802,101.6567,168.712,95.4946" style="stroke:#808080;stroke-width:0.8000000000000002;"/></g><!--link Candidate to Curriculum--><g id="link_Candidate_Curriculum"><path codeLine="67" d="M247.472,367.0786 C265.48,370.7506 286.992,375.0626 306.4,378.7906 C344.864,386.1826 383.8355,393.2944 416.1395,399.0944 " fill="none" id="Candidate-to-Curriculum" style="stroke:#808080;stroke-width:0.8000000000000002;"/><polygon fill="#808080" points="420.864,399.9426,414.3428,395.5206,416.927,399.2358,413.2118,401.8199,420.864,399.9426" style="stroke:#808080;stroke-width:0.8000000000000002;"/></g><!--link Candidate to TelephoneNumber--><g id="link_Candidate_TelephoneNumber"><path codeLine="68" d="M247.44,357.3106 C290.8,355.7186 355.4272,353.3428 404.8832,351.5268 " fill="none" id="Candidate-to-TelephoneNumber" style="stroke:#808080;stroke-width:0.8000000000000002;"/><polygon fill="#808080" points="409.68,351.3506,402.3674,348.417,405.6827,351.4974,402.6023,354.8127,409.68,351.3506" style="stroke:#808080;stroke-width:0.8000000000000002;"/></g><!--link Application to Candidate--><g id="link_Application_Candidate"><path codeLine="71" d="M85.76,223.4706 C112.424,253.5826 153.3372,299.7816 179.9612,329.8376 " fill="none" id="Application-to-Candidate" style="stroke:#808080;stroke-width:0.8000000000000002;"/><polygon fill="#808080" points="183.144,333.4306,180.7652,325.9192,180.4917,330.4364,175.9745,330.1629,183.144,333.4306" style="stroke:#808080;stroke-width:0.8000000000000002;"/><text fill="#000000" font-family="sans-serif" font-size="10.4" lengthAdjust="spacing" textLength="8" x="81.3295" y="239.3705">N</text><text fill="#000000" font-family="sans-serif" font-size="10.4" lengthAdjust="spacing" textLength="6.4" x="171.2875" y="325.0632">1</text></g><!--SRC=[fLHDRzim3BthLn3UES1s7G83-K2B0bbQjDdkYaNRMcJ9asbaGT7_FifkPYLnqmtrAI4VnVVuLMg5K26LJZN2O4v03hmkIWAbFMQadHLYeyaW94jNIMtXcrDeO0BVQ-EaWeMqIYj928_ug-MW2YqrYH3DJjjQUbb1PcJJmBC0_bOwnvMsE7TUeLyuupmifT_DJOkd09dj2kzQgthGxE5XTRUORUxkrntktF_fvlCDVvrlvhtRz-R2uw77HmctXeF5IyonPeiiy8aEB3KebxOmUA92UdL5nAr7j1zNi5oUAmZLkHrJCJ-gUEKEoQokZSvaw1hC2fPUS5-IPy4TqNI0s3sTziOqdKwzSvIcealGgOo0DzfWm-WVaXi4zzkVN9eqxSlmCaGyaQJsNt3jjj9DmmylmyYyYt-KTlScggzK96eoII-uZu9wkkEk4uQZa42gJsuTY-ZtnUNng-7ZpO0jWhCOd5GYvCuOjzUs-FeND84c92H25TbgvAMoHMIHMORrAKXXPdZCUXC7T6p6U8sMv3yO4luco3aIzfhA3fSvIs7FZt78fy548Hqwvo55cPNzFqd4lr654pCMyawM3pt4zqaUgSgectoxUCvU3zXP7UF56exSo5eDpgjBjMYzrrbhskfYeE5YxZTei2wvCUkssgA_lW83WJ2TGvuHvzcxOcI9adNIGPCloH0i_W00]--></g></svg>