<?xml version="1.0" encoding="us-ascii" standalone="no"?><svg xmlns="http://www.w3.org/2000/svg" xmlns:xlink="http://www.w3.org/1999/xlink" contentStyleType="text/css" height="345.6px" preserveAspectRatio="none" style="width:960px;height:345px;background:#FFFFFF;" version="1.1" viewBox="0 0 960 345" width="960px" zoomAndPan="magnify"><defs/><g><rect fill="#FFFFFF" height="193.4359" style="stroke:#181818;stroke-width:0.8000000000000002;" width="8" x="30.4" y="73.1906"/><rect fill="#FFFFFF" height="176.3875" style="stroke:#181818;stroke-width:0.8000000000000002;" width="8" x="265.6" y="90.2391"/><rect fill="#FFFFFF" height="117.2422" style="stroke:#181818;stroke-width:0.8000000000000002;" width="8" x="460.8" y="113.6875"/><rect fill="#FFFFFF" height="70.3453" style="stroke:#181818;stroke-width:0.8000000000000002;" width="8" x="682.4" y="137.1359"/><rect fill="#FFFFFF" height="23.4484" style="stroke:#181818;stroke-width:0.8000000000000002;" width="8" x="904" y="160.5844"/><line style="stroke:#181818;stroke-width:0.4000000000000001;stroke-dasharray:5.0,5.0;" x1="34.4" x2="34.4" y1="65.1906" y2="281.0266"/><line style="stroke:#181818;stroke-width:0.4000000000000001;stroke-dasharray:5.0,5.0;" x1="269.6" x2="269.6" y1="65.1906" y2="281.0266"/><line style="stroke:#181818;stroke-width:0.4000000000000001;stroke-dasharray:5.0,5.0;" x1="464.8" x2="464.8" y1="65.1906" y2="281.0266"/><line style="stroke:#181818;stroke-width:0.4000000000000001;stroke-dasharray:5.0,5.0;" x1="686" x2="686" y1="65.1906" y2="281.0266"/><line style="stroke:#181818;stroke-width:0.4000000000000001;stroke-dasharray:5.0,5.0;" x1="907.6" x2="907.6" y1="65.1906" y2="281.0266"/><text fill="#000000" font-family="sans-serif" font-size="11.2" lengthAdjust="spacing" textLength="56" x="4" y="62.8281">Candidate</text><ellipse cx="34.4" cy="10.8" fill="#E2E2F0" rx="6.4" ry="6.4" style="stroke:#181818;stroke-width:0.4000000000000001;"/><path d="M34.4,17.2 L34.4,38.8 M24,23.6 L44.8,23.6 M34.4,38.8 L24,50.8 M34.4,38.8 L44.8,50.8 " fill="none" style="stroke:#181818;stroke-width:0.4000000000000001;"/><text fill="#000000" font-family="sans-serif" font-size="11.2" lengthAdjust="spacing" textLength="56" x="4" y="291.0547">Candidate</text><ellipse cx="34.4" cy="300.2172" fill="#E2E2F0" rx="6.4" ry="6.4" style="stroke:#181818;stroke-width:0.4000000000000001;"/><path d="M34.4,306.6172 L34.4,328.2172 M24,313.0172 L44.8,313.0172 M34.4,328.2172 L24,340.2172 M34.4,328.2172 L44.8,340.2172 " fill="none" style="stroke:#181818;stroke-width:0.4000000000000001;"/><rect fill="#E2E2F0" height="37.5813" rx="2" ry="2" style="stroke:#181818;stroke-width:0.4000000000000001;" width="164.8" x="187.2" y="26.8094"/><text fill="#000000" font-family="sans-serif" font-size="11.2" font-style="italic" lengthAdjust="spacing" textLength="80.8" x="229.2" y="43.2375">&#171;presentation&#187;</text><text fill="#000000" font-family="sans-serif" font-size="11.2" lengthAdjust="spacing" textLength="153.6" x="192.8" y="56.4281">ListCandidateApplicationsUI</text><rect fill="#E2E2F0" height="37.5813" rx="2" ry="2" style="stroke:#181818;stroke-width:0.4000000000000001;" width="164.8" x="187.2" y="280.2266"/><text fill="#000000" font-family="sans-serif" font-size="11.2" font-style="italic" lengthAdjust="spacing" textLength="80.8" x="229.2" y="296.6547">&#171;presentation&#187;</text><text fill="#000000" font-family="sans-serif" font-size="11.2" lengthAdjust="spacing" textLength="153.6" x="192.8" y="309.8453">ListCandidateApplicationsUI</text><rect fill="#E2E2F0" height="37.5813" rx="2" ry="2" style="stroke:#181818;stroke-width:0.4000000000000001;" width="209.6" x="360" y="26.8094"/><text fill="#000000" font-family="sans-serif" font-size="11.2" font-style="italic" lengthAdjust="spacing" textLength="64.8" x="432.4" y="43.2375">&#171;controller&#187;</text><text fill="#000000" font-family="sans-serif" font-size="11.2" lengthAdjust="spacing" textLength="198.4" x="365.6" y="56.4281">ListCandidateApplicationsController</text><rect fill="#E2E2F0" height="37.5813" rx="2" ry="2" style="stroke:#181818;stroke-width:0.4000000000000001;" width="209.6" x="360" y="280.2266"/><text fill="#000000" font-family="sans-serif" font-size="11.2" font-style="italic" lengthAdjust="spacing" textLength="64.8" x="432.4" y="296.6547">&#171;controller&#187;</text><text fill="#000000" font-family="sans-serif" font-size="11.2" lengthAdjust="spacing" textLength="198.4" x="365.6" y="309.8453">ListCandidateApplicationsController</text><rect fill="#E2E2F0" height="37.5813" rx="2" ry="2" style="stroke:#181818;stroke-width:0.4000000000000001;" width="173.6" x="599.6" y="26.8094"/><text fill="#000000" font-family="sans-serif" font-size="11.2" font-style="italic" lengthAdjust="spacing" textLength="48.8" x="662" y="43.2375">&#171;service&#187;</text><text fill="#000000" font-family="sans-serif" font-size="11.2" lengthAdjust="spacing" textLength="162.4" x="605.2" y="56.4281">CandidateApplicationsService</text><rect fill="#E2E2F0" height="37.5813" rx="2" ry="2" style="stroke:#181818;stroke-width:0.4000000000000001;" width="173.6" x="599.6" y="280.2266"/><text fill="#000000" font-family="sans-serif" font-size="11.2" font-style="italic" lengthAdjust="spacing" textLength="48.8" x="662" y="296.6547">&#171;service&#187;</text><text fill="#000000" font-family="sans-serif" font-size="11.2" lengthAdjust="spacing" textLength="162.4" x="605.2" y="309.8453">CandidateApplicationsService</text><rect fill="#E2E2F0" height="37.5813" rx="2" ry="2" style="stroke:#181818;stroke-width:0.4000000000000001;" width="95.2" x="860.4" y="26.8094"/><text fill="#000000" font-family="sans-serif" font-size="11.2" font-style="italic" lengthAdjust="spacing" textLength="57.6" x="879.2" y="43.2375">&#171;protocol&#187;</text><text fill="#000000" font-family="sans-serif" font-size="11.2" lengthAdjust="spacing" textLength="84" x="866" y="56.4281">Jobs4UProtocol</text><rect fill="#E2E2F0" height="37.5813" rx="2" ry="2" style="stroke:#181818;stroke-width:0.4000000000000001;" width="95.2" x="860.4" y="280.2266"/><text fill="#000000" font-family="sans-serif" font-size="11.2" font-style="italic" lengthAdjust="spacing" textLength="57.6" x="879.2" y="296.6547">&#171;protocol&#187;</text><text fill="#000000" font-family="sans-serif" font-size="11.2" lengthAdjust="spacing" textLength="84" x="866" y="309.8453">Jobs4UProtocol</text><rect fill="#FFFFFF" height="193.4359" style="stroke:#181818;stroke-width:0.8000000000000002;" width="8" x="30.4" y="73.1906"/><rect fill="#FFFFFF" height="176.3875" style="stroke:#181818;stroke-width:0.8000000000000002;" width="8" x="265.6" y="90.2391"/><rect fill="#FFFFFF" height="117.2422" style="stroke:#181818;stroke-width:0.8000000000000002;" width="8" x="460.8" y="113.6875"/><rect fill="#FFFFFF" height="70.3453" style="stroke:#181818;stroke-width:0.8000000000000002;" width="8" x="682.4" y="137.1359"/><rect fill="#FFFFFF" height="23.4484" style="stroke:#181818;stroke-width:0.8000000000000002;" width="8" x="904" y="160.5844"/><polygon fill="#181818" points="256,87.0391,264,90.2391,256,93.4391,259.2,90.2391" style="stroke:#181818;stroke-width:0.8000000000000002;"/><line style="stroke:#181818;stroke-width:0.8000000000000002;" x1="38.4" x2="260.8" y1="90.2391" y2="90.2391"/><text fill="#000000" font-family="sans-serif" font-size="10.4" font-weight="bold" lengthAdjust="spacing" textLength="7.2" x="44" y="86.4453">1</text><text fill="#000000" font-family="sans-serif" font-size="10.4" lengthAdjust="spacing" textLength="201.6" x="54.4" y="86.4453">asks to list all applications of candidate</text><polygon fill="#181818" points="451.2,110.4875,459.2,113.6875,451.2,116.8875,454.4,113.6875" style="stroke:#181818;stroke-width:0.8000000000000002;"/><line style="stroke:#181818;stroke-width:0.8000000000000002;" x1="273.6" x2="456" y1="113.6875" y2="113.6875"/><text fill="#000000" font-family="sans-serif" font-size="10.4" font-weight="bold" lengthAdjust="spacing" textLength="7.2" x="279.2" y="109.8938">2</text><text fill="#000000" font-family="sans-serif" font-size="10.4" lengthAdjust="spacing" textLength="160.8" x="289.6" y="109.8938">sendApplicationsRequest(email)</text><polygon fill="#181818" points="672.8,133.9359,680.8,137.1359,672.8,140.3359,676,137.1359" style="stroke:#181818;stroke-width:0.8000000000000002;"/><line style="stroke:#181818;stroke-width:0.8000000000000002;" x1="468.8" x2="677.6" y1="137.1359" y2="137.1359"/><text fill="#000000" font-family="sans-serif" font-size="10.4" font-weight="bold" lengthAdjust="spacing" textLength="7.2" x="474.4" y="133.3422">3</text><text fill="#000000" font-family="sans-serif" font-size="10.4" lengthAdjust="spacing" textLength="134.4" x="484.8" y="133.3422">requestApplications(email)</text><polygon fill="#181818" points="894.4,157.3844,902.4,160.5844,894.4,163.7844,897.6,160.5844" style="stroke:#181818;stroke-width:0.8000000000000002;"/><line style="stroke:#181818;stroke-width:0.8000000000000002;" x1="690.4" x2="899.2" y1="160.5844" y2="160.5844"/><text fill="#000000" font-family="sans-serif" font-size="10.4" font-weight="bold" lengthAdjust="spacing" textLength="7.2" x="696" y="156.7906">4</text><text fill="#000000" font-family="sans-serif" font-size="10.4" lengthAdjust="spacing" textLength="120.8" x="706.4" y="156.7906">sendApplications(email)</text><polygon fill="#181818" points="699.2,180.8328,691.2,184.0328,699.2,187.2328,696,184.0328" style="stroke:#181818;stroke-width:0.8000000000000002;"/><line style="stroke:#181818;stroke-width:0.8000000000000002;stroke-dasharray:2.0,2.0;" x1="694.4" x2="907.2" y1="184.0328" y2="184.0328"/><text fill="#000000" font-family="sans-serif" font-size="10.4" font-weight="bold" lengthAdjust="spacing" textLength="7.2" x="704" y="180.2391">5</text><text fill="#000000" font-family="sans-serif" font-size="10.4" lengthAdjust="spacing" textLength="184" x="714.4" y="180.2391">list of all applications of a candidate</text><polygon fill="#181818" points="477.6,204.2813,469.6,207.4813,477.6,210.6813,474.4,207.4813" style="stroke:#181818;stroke-width:0.8000000000000002;"/><line style="stroke:#181818;stroke-width:0.8000000000000002;stroke-dasharray:2.0,2.0;" x1="472.8" x2="685.6" y1="207.4813" y2="207.4813"/><text fill="#000000" font-family="sans-serif" font-size="10.4" font-weight="bold" lengthAdjust="spacing" textLength="7.2" x="482.4" y="203.6875">6</text><text fill="#000000" font-family="sans-serif" font-size="10.4" lengthAdjust="spacing" textLength="184" x="492.8" y="203.6875">list of all applications of a candidate</text><polygon fill="#181818" points="282.4,227.7297,274.4,230.9297,282.4,234.1297,279.2,230.9297" style="stroke:#181818;stroke-width:0.8000000000000002;"/><line style="stroke:#181818;stroke-width:0.8000000000000002;stroke-dasharray:2.0,2.0;" x1="277.6" x2="464" y1="230.9297" y2="230.9297"/><text fill="#000000" font-family="sans-serif" font-size="10.4" font-weight="bold" lengthAdjust="spacing" textLength="7.2" x="287.2" y="227.1359">7</text><text fill="#000000" font-family="sans-serif" font-size="10.4" lengthAdjust="spacing" textLength="156.8" x="297.6" y="227.1359">List&lt;Application&gt; applications</text><polygon fill="#181818" points="43.2,263.4266,35.2,266.6266,43.2,269.8266,40,266.6266" style="stroke:#181818;stroke-width:0.8000000000000002;"/><line style="stroke:#181818;stroke-width:0.8000000000000002;stroke-dasharray:2.0,2.0;" x1="38.4" x2="268.8" y1="266.6266" y2="266.6266"/><text fill="#000000" font-family="sans-serif" font-size="10.4" font-weight="bold" lengthAdjust="spacing" textLength="7.2" x="48" y="256.7086">8</text><text fill="#000000" font-family="sans-serif" font-size="10.4" lengthAdjust="spacing" textLength="167.2" x="58.4" y="250.5844">lists all applications of candidate</text><text fill="#000000" font-family="sans-serif" font-size="10.4" lengthAdjust="spacing" textLength="157.6" x="61.6" y="262.8328">and displays operation success</text><!--SRC=[dPIzRiCW481tFyMDxP2jasLPgZArwb2rojRbWgyIAW7AuKXz-u8j4N0iulOcuFu-xWvmz4QFfoEvfa7XZOCzwa4EwAbfB3elXRIeFRn8zadrQAsI0hqqcWzFq7NM4PFsqqdVRtFS6-sTKOfS223IPk6-wlfExYm51J-ULmkdPtFaXyEhCzu8eoQ-UHdiuZNbEGJCRmf1qXPsVVMwBI1_CNW3AbW1AWMOMO3v1952nyWfOoNgp12bbhf6bjMpXT2D8LU-qVT8xE_eX5BTfrotoIvHBuHLoWmZq5RRruARiNBb4h70h8Kh-OgEhYKFS8inkQxQ6al1KqQu9eYooBAxNPLfhC8KhKqMBcOhbu4sWzLBistC_WUQGMxlvgPfk_biexRBJli2kbaX_DEpg3xSlElGni9n_UU03mrX3ODag_0dA2svoGvu589u1ju26t-NjR8tlm00]--></g></svg>