<?xml version="1.0" encoding="us-ascii" standalone="no"?><svg xmlns="http://www.w3.org/2000/svg" xmlns:xlink="http://www.w3.org/1999/xlink" contentStyleType="text/css" height="729px" preserveAspectRatio="none" style="width:1628px;height:729px;background:#FFFFFF;" version="1.1" viewBox="0 0 1628 729" width="1628px" zoomAndPan="magnify"><defs/><g><rect fill="#FFFFFF" height="522.9004" style="stroke:#181818;stroke-width:1.0;" width="10" x="38" y="93.9766"/><rect fill="#FFFFFF" height="501.5898" style="stroke:#181818;stroke-width:1.0;" width="10" x="332" y="115.2871"/><rect fill="#FFFFFF" height="427.6582" style="stroke:#181818;stroke-width:1.0;" width="10" x="584" y="144.5977"/><rect fill="#FFFFFF" height="369.0371" style="stroke:#181818;stroke-width:1.0;" width="10" x="836" y="173.9082"/><rect fill="#FFFFFF" height="44.6211" style="stroke:#181818;stroke-width:1.0;" width="10" x="1117" y="203.2188"/><rect fill="#FFFFFF" height="87.9316" style="stroke:#181818;stroke-width:1.0;" width="10" x="1256.5" y="277.1504"/><rect fill="#FFFFFF" height="29.3105" style="stroke:#181818;stroke-width:1.0;" width="10" x="1415" y="306.4609"/><rect fill="#FFFFFF" height="29.3105" style="stroke:#181818;stroke-width:1.0;" width="10" x="1555.5" y="418.7031"/><rect fill="#FFFFFF" height="29.3105" style="stroke:#181818;stroke-width:1.0;" width="10" x="1555.5" y="477.3242"/><rect fill="none" height="134.5527" style="stroke:#000000;stroke-width:1.5;" width="900" x="722.5" y="380.082"/><line style="stroke:#181818;stroke-width:0.5;stroke-dasharray:5.0,5.0;" x1="43" x2="43" y1="83.9766" y2="634.877"/><line style="stroke:#181818;stroke-width:0.5;stroke-dasharray:5.0,5.0;" x1="337" x2="337" y1="83.9766" y2="634.877"/><line style="stroke:#181818;stroke-width:0.5;stroke-dasharray:5.0,5.0;" x1="589" x2="589" y1="83.9766" y2="634.877"/><line style="stroke:#181818;stroke-width:0.5;stroke-dasharray:5.0,5.0;" x1="840.5" x2="840.5" y1="83.9766" y2="634.877"/><line style="stroke:#181818;stroke-width:0.5;stroke-dasharray:5.0,5.0;" x1="1121.5" x2="1121.5" y1="83.9766" y2="634.877"/><line style="stroke:#181818;stroke-width:0.5;stroke-dasharray:5.0,5.0;" x1="1261.5" x2="1261.5" y1="83.9766" y2="634.877"/><line style="stroke:#181818;stroke-width:0.5;stroke-dasharray:5.0,5.0;" x1="1419.5" x2="1419.5" y1="83.9766" y2="634.877"/><line style="stroke:#181818;stroke-width:0.5;stroke-dasharray:5.0,5.0;" x1="1560.5" x2="1560.5" y1="83.9766" y2="634.877"/><text fill="#000000" font-family="sans-serif" font-size="14" lengthAdjust="spacing" textLength="70" x="5" y="81.0234">Candidate</text><ellipse cx="43" cy="15.9883" fill="#E2E2F0" rx="8" ry="8" style="stroke:#181818;stroke-width:0.5;"/><path d="M43,23.9883 L43,50.9883 M30,31.9883 L56,31.9883 M43,50.9883 L30,65.9883 M43,50.9883 L56,65.9883 " fill="none" style="stroke:#181818;stroke-width:0.5;"/><text fill="#000000" font-family="sans-serif" font-size="14" lengthAdjust="spacing" textLength="70" x="5" y="647.4121">Candidate</text><ellipse cx="43" cy="658.8652" fill="#E2E2F0" rx="8" ry="8" style="stroke:#181818;stroke-width:0.5;"/><path d="M43,666.8652 L43,693.8652 M30,674.8652 L56,674.8652 M43,693.8652 L30,708.8652 M43,693.8652 L56,708.8652 " fill="none" style="stroke:#181818;stroke-width:0.5;"/><rect fill="#E2E2F0" height="46.9766" rx="2.5" ry="2.5" style="stroke:#181818;stroke-width:0.5;" width="206" x="234" y="36"/><text fill="#000000" font-family="sans-serif" font-size="14" font-style="italic" lengthAdjust="spacing" textLength="101" x="286.5" y="56.5352">&#171;presentation&#187;</text><text fill="#000000" font-family="sans-serif" font-size="14" lengthAdjust="spacing" textLength="192" x="241" y="73.0234">ListCandidateApplicationsUI</text><rect fill="#E2E2F0" height="46.9766" rx="2.5" ry="2.5" style="stroke:#181818;stroke-width:0.5;" width="206" x="234" y="633.877"/><text fill="#000000" font-family="sans-serif" font-size="14" font-style="italic" lengthAdjust="spacing" textLength="101" x="286.5" y="654.4121">&#171;presentation&#187;</text><text fill="#000000" font-family="sans-serif" font-size="14" lengthAdjust="spacing" textLength="192" x="241" y="670.9004">ListCandidateApplicationsUI</text><rect fill="#E2E2F0" height="46.9766" rx="2.5" ry="2.5" style="stroke:#181818;stroke-width:0.5;" width="262" x="458" y="36"/><text fill="#000000" font-family="sans-serif" font-size="14" font-style="italic" lengthAdjust="spacing" textLength="81" x="548.5" y="56.5352">&#171;controller&#187;</text><text fill="#000000" font-family="sans-serif" font-size="14" lengthAdjust="spacing" textLength="248" x="465" y="73.0234">ListCandidateApplicationsController</text><rect fill="#E2E2F0" height="46.9766" rx="2.5" ry="2.5" style="stroke:#181818;stroke-width:0.5;" width="262" x="458" y="633.877"/><text fill="#000000" font-family="sans-serif" font-size="14" font-style="italic" lengthAdjust="spacing" textLength="81" x="548.5" y="654.4121">&#171;controller&#187;</text><text fill="#000000" font-family="sans-serif" font-size="14" lengthAdjust="spacing" textLength="248" x="465" y="670.9004">ListCandidateApplicationsController</text><rect fill="#E2E2F0" height="46.9766" rx="2.5" ry="2.5" style="stroke:#181818;stroke-width:0.5;" width="217" x="732.5" y="36"/><text fill="#000000" font-family="sans-serif" font-size="14" font-style="italic" lengthAdjust="spacing" textLength="61" x="810.5" y="56.5352">&#171;service&#187;</text><text fill="#000000" font-family="sans-serif" font-size="14" lengthAdjust="spacing" textLength="203" x="739.5" y="73.0234">CandidateApplicationsService</text><rect fill="#E2E2F0" height="46.9766" rx="2.5" ry="2.5" style="stroke:#181818;stroke-width:0.5;" width="217" x="732.5" y="633.877"/><text fill="#000000" font-family="sans-serif" font-size="14" font-style="italic" lengthAdjust="spacing" textLength="61" x="810.5" y="654.4121">&#171;service&#187;</text><text fill="#000000" font-family="sans-serif" font-size="14" lengthAdjust="spacing" textLength="203" x="739.5" y="670.9004">CandidateApplicationsService</text><rect fill="#E2E2F0" height="46.9766" rx="2.5" ry="2.5" style="stroke:#181818;stroke-width:0.5;" width="119" x="1062.5" y="36"/><text fill="#000000" font-family="sans-serif" font-size="14" font-style="italic" lengthAdjust="spacing" textLength="72" x="1086" y="56.5352">&#171;protocol&#187;</text><text fill="#000000" font-family="sans-serif" font-size="14" lengthAdjust="spacing" textLength="105" x="1069.5" y="73.0234">Jobs4UProtocol</text><rect fill="#E2E2F0" height="46.9766" rx="2.5" ry="2.5" style="stroke:#181818;stroke-width:0.5;" width="119" x="1062.5" y="633.877"/><text fill="#000000" font-family="sans-serif" font-size="14" font-style="italic" lengthAdjust="spacing" textLength="72" x="1086" y="654.4121">&#171;protocol&#187;</text><text fill="#000000" font-family="sans-serif" font-size="14" lengthAdjust="spacing" textLength="105" x="1069.5" y="670.9004">Jobs4UProtocol</text><rect fill="#E2E2F0" height="46.9766" rx="2.5" ry="2.5" style="stroke:#181818;stroke-width:0.5;" width="140" x="1191.5" y="36"/><text fill="#000000" font-family="sans-serif" font-size="14" font-style="italic" lengthAdjust="spacing" textLength="61" x="1231" y="56.5352">&#171;service&#187;</text><text fill="#000000" font-family="sans-serif" font-size="14" lengthAdjust="spacing" textLength="126" x="1198.5" y="73.0234">ApplicationService</text><rect fill="#E2E2F0" height="46.9766" rx="2.5" ry="2.5" style="stroke:#181818;stroke-width:0.5;" width="140" x="1191.5" y="633.877"/><text fill="#000000" font-family="sans-serif" font-size="14" font-style="italic" lengthAdjust="spacing" textLength="61" x="1231" y="654.4121">&#171;service&#187;</text><text fill="#000000" font-family="sans-serif" font-size="14" lengthAdjust="spacing" textLength="126" x="1198.5" y="670.9004">ApplicationService</text><text fill="#000000" font-family="sans-serif" font-size="14" font-style="italic" lengthAdjust="spacing" textLength="84" x="1375" y="64.5352">&#171;repository&#187;</text><text fill="#000000" font-family="sans-serif" font-size="14" lengthAdjust="spacing" textLength="151" x="1341.5" y="81.0234">ApplicationRepository</text><path d="M1402,15 C1402,5 1420,5 1420,5 C1420,5 1438,5 1438,15 L1438,41 C1438,51 1420,51 1420,51 C1420,51 1402,51 1402,41 L1402,15 " fill="#E2E2F0" style="stroke:#181818;stroke-width:1.5;"/><path d="M1402,15 C1402,25 1420,25 1420,25 C1420,25 1438,25 1438,15 " fill="none" style="stroke:#181818;stroke-width:1.5;"/><text fill="#000000" font-family="sans-serif" font-size="14" font-style="italic" lengthAdjust="spacing" textLength="84" x="1375" y="647.4121">&#171;repository&#187;</text><text fill="#000000" font-family="sans-serif" font-size="14" lengthAdjust="spacing" textLength="151" x="1341.5" y="663.9004">ApplicationRepository</text><path d="M1402,676.8535 C1402,666.8535 1420,666.8535 1420,666.8535 C1420,666.8535 1438,666.8535 1438,676.8535 L1438,702.8535 C1438,712.8535 1420,712.8535 1420,712.8535 C1420,712.8535 1402,712.8535 1402,702.8535 L1402,676.8535 " fill="#E2E2F0" style="stroke:#181818;stroke-width:1.5;"/><path d="M1402,676.8535 C1402,686.8535 1420,686.8535 1420,686.8535 C1420,686.8535 1438,686.8535 1438,676.8535 " fill="none" style="stroke:#181818;stroke-width:1.5;"/><rect fill="#E2E2F0" height="46.9766" rx="2.5" ry="2.5" style="stroke:#181818;stroke-width:0.5;" width="104" x="1508.5" y="36"/><text fill="#000000" font-family="sans-serif" font-size="14" font-style="italic" lengthAdjust="spacing" textLength="90" x="1515.5" y="56.5352">&#171;application&#187;</text><text fill="#000000" font-family="sans-serif" font-size="14" lengthAdjust="spacing" textLength="78" x="1521.5" y="73.0234">Application</text><rect fill="#E2E2F0" height="46.9766" rx="2.5" ry="2.5" style="stroke:#181818;stroke-width:0.5;" width="104" x="1508.5" y="633.877"/><text fill="#000000" font-family="sans-serif" font-size="14" font-style="italic" lengthAdjust="spacing" textLength="90" x="1515.5" y="654.4121">&#171;application&#187;</text><text fill="#000000" font-family="sans-serif" font-size="14" lengthAdjust="spacing" textLength="78" x="1521.5" y="670.9004">Application</text><rect fill="#FFFFFF" height="522.9004" style="stroke:#181818;stroke-width:1.0;" width="10" x="38" y="93.9766"/><rect fill="#FFFFFF" height="501.5898" style="stroke:#181818;stroke-width:1.0;" width="10" x="332" y="115.2871"/><rect fill="#FFFFFF" height="427.6582" style="stroke:#181818;stroke-width:1.0;" width="10" x="584" y="144.5977"/><rect fill="#FFFFFF" height="369.0371" style="stroke:#181818;stroke-width:1.0;" width="10" x="836" y="173.9082"/><rect fill="#FFFFFF" height="44.6211" style="stroke:#181818;stroke-width:1.0;" width="10" x="1117" y="203.2188"/><rect fill="#FFFFFF" height="87.9316" style="stroke:#181818;stroke-width:1.0;" width="10" x="1256.5" y="277.1504"/><rect fill="#FFFFFF" height="29.3105" style="stroke:#181818;stroke-width:1.0;" width="10" x="1415" y="306.4609"/><rect fill="#FFFFFF" height="29.3105" style="stroke:#181818;stroke-width:1.0;" width="10" x="1555.5" y="418.7031"/><rect fill="#FFFFFF" height="29.3105" style="stroke:#181818;stroke-width:1.0;" width="10" x="1555.5" y="477.3242"/><polygon fill="#181818" points="320,111.2871,330,115.2871,320,119.2871,324,115.2871" style="stroke:#181818;stroke-width:1.0;"/><line style="stroke:#181818;stroke-width:1.0;" x1="48" x2="326" y1="115.2871" y2="115.2871"/><text fill="#000000" font-family="sans-serif" font-size="13" font-weight="bold" lengthAdjust="spacing" textLength="9" x="55" y="110.5449">1</text><text fill="#000000" font-family="sans-serif" font-size="13" lengthAdjust="spacing" textLength="252" x="68" y="110.5449">asks to list all applications of candidate</text><polygon fill="#181818" points="572,140.5977,582,144.5977,572,148.5977,576,144.5977" style="stroke:#181818;stroke-width:1.0;"/><line style="stroke:#181818;stroke-width:1.0;" x1="342" x2="578" y1="144.5977" y2="144.5977"/><text fill="#000000" font-family="sans-serif" font-size="13" font-weight="bold" lengthAdjust="spacing" textLength="9" x="349" y="139.8555">2</text><text fill="#000000" font-family="sans-serif" font-size="13" lengthAdjust="spacing" textLength="201" x="362" y="139.8555">sendApplicationsRequest(email)</text><polygon fill="#181818" points="824,169.9082,834,173.9082,824,177.9082,828,173.9082" style="stroke:#181818;stroke-width:1.0;"/><line style="stroke:#181818;stroke-width:1.0;" x1="594" x2="830" y1="173.9082" y2="173.9082"/><text fill="#000000" font-family="sans-serif" font-size="13" font-weight="bold" lengthAdjust="spacing" textLength="9" x="601" y="169.166">3</text><text fill="#000000" font-family="sans-serif" font-size="13" lengthAdjust="spacing" textLength="168" x="614" y="169.166">requestApplications(email)</text><polygon fill="#181818" points="1105,199.2188,1115,203.2188,1105,207.2188,1109,203.2188" style="stroke:#181818;stroke-width:1.0;"/><line style="stroke:#181818;stroke-width:1.0;" x1="846" x2="1111" y1="203.2188" y2="203.2188"/><text fill="#000000" font-family="sans-serif" font-size="13" font-weight="bold" lengthAdjust="spacing" textLength="9" x="853" y="198.4766">4</text><text fill="#000000" font-family="sans-serif" font-size="13" lengthAdjust="spacing" textLength="151" x="866" y="198.4766">sendApplications(email)</text><polygon fill="#181818" points="857,243.8398,847,247.8398,857,251.8398,853,247.8398" style="stroke:#181818;stroke-width:1.0;"/><line style="stroke:#181818;stroke-width:1.0;stroke-dasharray:2.0,2.0;" x1="851" x2="1121" y1="247.8398" y2="247.8398"/><text fill="#000000" font-family="sans-serif" font-size="13" font-weight="bold" lengthAdjust="spacing" textLength="9" x="863" y="235.4424">5</text><text fill="#000000" font-family="sans-serif" font-size="13" lengthAdjust="spacing" textLength="230" x="876" y="227.7871">list of all applications of a candidate</text><text fill="#000000" font-family="sans-serif" font-size="13" lengthAdjust="spacing" textLength="141" x="880" y="243.0977">and operation success</text><polygon fill="#181818" points="1244.5,273.1504,1254.5,277.1504,1244.5,281.1504,1248.5,277.1504" style="stroke:#181818;stroke-width:1.0;"/><line style="stroke:#181818;stroke-width:1.0;" x1="846" x2="1250.5" y1="277.1504" y2="277.1504"/><text fill="#000000" font-family="sans-serif" font-size="13" font-weight="bold" lengthAdjust="spacing" textLength="9" x="853" y="272.4082">6</text><text fill="#000000" font-family="sans-serif" font-size="13" lengthAdjust="spacing" textLength="102" x="866" y="272.4082">allApplications()</text><polygon fill="#181818" points="1403,302.4609,1413,306.4609,1403,310.4609,1407,306.4609" style="stroke:#181818;stroke-width:1.0;"/><line style="stroke:#181818;stroke-width:1.0;" x1="1266.5" x2="1409" y1="306.4609" y2="306.4609"/><text fill="#000000" font-family="sans-serif" font-size="13" font-weight="bold" lengthAdjust="spacing" textLength="9" x="1273.5" y="301.7188">7</text><text fill="#000000" font-family="sans-serif" font-size="13" lengthAdjust="spacing" textLength="102" x="1286.5" y="301.7188">allApplications()</text><polygon fill="#181818" points="1277.5,331.7715,1267.5,335.7715,1277.5,339.7715,1273.5,335.7715" style="stroke:#181818;stroke-width:1.0;"/><line style="stroke:#181818;stroke-width:1.0;stroke-dasharray:2.0,2.0;" x1="1271.5" x2="1419" y1="335.7715" y2="335.7715"/><text fill="#000000" font-family="sans-serif" font-size="13" font-weight="bold" lengthAdjust="spacing" textLength="9" x="1283.5" y="331.0293">8</text><text fill="#000000" font-family="sans-serif" font-size="13" lengthAdjust="spacing" textLength="96" x="1296.5" y="331.0293">all applications</text><polygon fill="#181818" points="857,361.082,847,365.082,857,369.082,853,365.082" style="stroke:#181818;stroke-width:1.0;"/><line style="stroke:#181818;stroke-width:1.0;stroke-dasharray:2.0,2.0;" x1="851" x2="1260.5" y1="365.082" y2="365.082"/><text fill="#000000" font-family="sans-serif" font-size="13" font-weight="bold" lengthAdjust="spacing" textLength="9" x="863" y="360.3398">9</text><text fill="#000000" font-family="sans-serif" font-size="13" lengthAdjust="spacing" textLength="96" x="876" y="360.3398">all applications</text><path d="M722.5,380.082 L796.5,380.082 L796.5,387.3926 L786.5,397.3926 L722.5,397.3926 L722.5,380.082 " fill="#EEEEEE" style="stroke:#000000;stroke-width:1.5;"/><rect fill="none" height="134.5527" style="stroke:#000000;stroke-width:1.5;" width="900" x="722.5" y="380.082"/><text fill="#000000" font-family="sans-serif" font-size="13" font-weight="bold" lengthAdjust="spacing" textLength="29" x="737.5" y="393.6504">loop</text><text fill="#000000" font-family="sans-serif" font-size="11" font-weight="bold" lengthAdjust="spacing" textLength="181" x="811.5" y="392.7168">[for each application on the list]</text><polygon fill="#181818" points="1543.5,414.7031,1553.5,418.7031,1543.5,422.7031,1547.5,418.7031" style="stroke:#181818;stroke-width:1.0;"/><line style="stroke:#181818;stroke-width:1.0;" x1="846" x2="1549.5" y1="418.7031" y2="418.7031"/><text fill="#000000" font-family="sans-serif" font-size="13" font-weight="bold" lengthAdjust="spacing" textLength="18" x="853" y="413.9609">10</text><text fill="#000000" font-family="sans-serif" font-size="13" lengthAdjust="spacing" textLength="56" x="875" y="413.9609">identity()</text><polygon fill="#181818" points="857,444.0137,847,448.0137,857,452.0137,853,448.0137" style="stroke:#181818;stroke-width:1.0;"/><line style="stroke:#181818;stroke-width:1.0;stroke-dasharray:2.0,2.0;" x1="851" x2="1559.5" y1="448.0137" y2="448.0137"/><text fill="#000000" font-family="sans-serif" font-size="13" font-weight="bold" lengthAdjust="spacing" textLength="18" x="863" y="443.2715">11</text><text fill="#000000" font-family="sans-serif" font-size="13" lengthAdjust="spacing" textLength="60" x="885" y="443.2715">Integer id</text><polygon fill="#181818" points="1543.5,473.3242,1553.5,477.3242,1543.5,481.3242,1547.5,477.3242" style="stroke:#181818;stroke-width:1.0;"/><line style="stroke:#181818;stroke-width:1.0;" x1="846" x2="1549.5" y1="477.3242" y2="477.3242"/><text fill="#000000" font-family="sans-serif" font-size="13" font-weight="bold" lengthAdjust="spacing" textLength="18" x="853" y="472.582">12</text><text fill="#000000" font-family="sans-serif" font-size="13" lengthAdjust="spacing" textLength="61" x="875" y="472.582">equals(id)</text><polygon fill="#181818" points="857,502.6348,847,506.6348,857,510.6348,853,506.6348" style="stroke:#181818;stroke-width:1.0;"/><line style="stroke:#181818;stroke-width:1.0;stroke-dasharray:2.0,2.0;" x1="851" x2="1559.5" y1="506.6348" y2="506.6348"/><text fill="#000000" font-family="sans-serif" font-size="13" font-weight="bold" lengthAdjust="spacing" textLength="18" x="863" y="501.8926">13</text><text fill="#000000" font-family="sans-serif" font-size="13" lengthAdjust="spacing" textLength="67" x="885" y="501.8926">return true</text><polygon fill="#181818" points="605,538.9453,595,542.9453,605,546.9453,601,542.9453" style="stroke:#181818;stroke-width:1.0;"/><line style="stroke:#181818;stroke-width:1.0;stroke-dasharray:2.0,2.0;" x1="599" x2="840" y1="542.9453" y2="542.9453"/><text fill="#000000" font-family="sans-serif" font-size="13" font-weight="bold" lengthAdjust="spacing" textLength="18" x="611" y="538.2031">14</text><text fill="#000000" font-family="sans-serif" font-size="13" lengthAdjust="spacing" textLength="196" x="633" y="538.2031">List&lt;Application&gt; applications</text><polygon fill="#181818" points="353,568.2559,343,572.2559,353,576.2559,349,572.2559" style="stroke:#181818;stroke-width:1.0;"/><line style="stroke:#181818;stroke-width:1.0;stroke-dasharray:2.0,2.0;" x1="347" x2="588" y1="572.2559" y2="572.2559"/><text fill="#000000" font-family="sans-serif" font-size="13" font-weight="bold" lengthAdjust="spacing" textLength="18" x="359" y="567.5137">15</text><text fill="#000000" font-family="sans-serif" font-size="13" lengthAdjust="spacing" textLength="196" x="381" y="567.5137">List&lt;Application&gt; applications</text><polygon fill="#181818" points="54,612.877,44,616.877,54,620.877,50,616.877" style="stroke:#181818;stroke-width:1.0;"/><line style="stroke:#181818;stroke-width:1.0;stroke-dasharray:2.0,2.0;" x1="48" x2="336" y1="616.877" y2="616.877"/><text fill="#000000" font-family="sans-serif" font-size="13" font-weight="bold" lengthAdjust="spacing" textLength="18" x="60" y="604.4795">16</text><text fill="#000000" font-family="sans-serif" font-size="13" lengthAdjust="spacing" textLength="209" x="82" y="596.8242">lists all applications of candidate</text><text fill="#000000" font-family="sans-serif" font-size="13" lengthAdjust="spacing" textLength="197" x="86" y="612.1348">and displays operation success</text><!--SRC=[lPOzJyCm48Rt_8eROUZ655ML41E80O7OM5pd00iJ6v-3r7_F9H69dRgEAoIY3d5z7uzVNtmMdJTjzxb7LrL2UkFWHhIDQeJ7ghB2UIML5Qs7UqL-chgsLYifl38jFT_2TciT4hP- -6UtAtEyCQrtHcjq741EWuLxqlK9tRUIo7uqlYsSxioUhfuVdF566ZtmZQzi5na6GLCnEQ_O2yBGxX6j8SLA7TZKJOC5GU30Pc8UzGGijFhc9OLQ0p_J43QxhE0r2FeWy0OqMu7G6e8K1EOLv1IwZpnbp4GT6Vedbpf75kne3LmFJJZvY5yTah_0Jw7qvPHhdMoEEXDcAGCCfiqMK0rkn0edbuWHPYvSp1VjQ2evmoqAzLYr54l44qSu9kYVHPRDkYf3MN4LfIfBpBK5BotmEnYBRgnrwgH4eYEC1ek9rpHBVBDr3nh9bb7is3-jMY9Fd3qu2Ke0Ja7COT8S2vOWwoQZHhHjoRZ1bfn1ar9blPvMWT8m9_T76sFXbRiLkxs7aO5__Xs70lvJQJ6qQhYbANyeBAPLlKg4kcqzll71fPf2YVwwI3x-XAOBrVpZ8Xtwpl4-kGvBLxaqusDoA89pbr_SldghRJ2xErs_0N9vToZgNglNW4BAWF2iDfkz28Jx37N_mL7-9lBRBHf5Lei3dMWR9R3zRIKbU_K3]--></g></svg>