<?xml version="1.0" encoding="us-ascii" standalone="no"?><svg xmlns="http://www.w3.org/2000/svg" xmlns:xlink="http://www.w3.org/1999/xlink" contentStyleType="text/css" height="1000px" preserveAspectRatio="none" style="width:1196px;height:1000px;background:#FFFFFF;" version="1.1" viewBox="0 0 1196 1000" width="1196px" zoomAndPan="magnify"><defs/><g><text fill="#000000" font-family="sans-serif" font-size="11.2" font-weight="bold" lengthAdjust="spacing" textLength="284.8" x="450" y="18.8281">Domain Model - Upload Candidate Requirements</text><!--cluster Job Opening Aggregate--><g id="cluster_Job Opening Aggregate"><rect fill="none" height="428" rx="2" ry="2" style="stroke:#000000;stroke-width:1.2000000000000002;" width="512" x="303.2" y="146.7906"/><text fill="#000000" font-family="sans-serif" font-size="11.2" font-weight="bold" lengthAdjust="spacing" textLength="134.4" x="492" y="159.2188">Job Opening Aggregate</text></g><!--cluster Application Aggregate--><g id="cluster_Application Aggregate"><rect fill="none" height="250.4" rx="2" ry="2" style="stroke:#000000;stroke-width:1.2000000000000002;" width="710.4" x="480.8" y="593.9906"/><text fill="#000000" font-family="sans-serif" font-size="11.2" font-weight="bold" lengthAdjust="spacing" textLength="128" x="772" y="606.4188">Application Aggregate</text></g><!--cluster Job Requirements Specification Aggregate--><g id="cluster_Job Requirements Specification Aggregate"><rect fill="none" height="92" rx="2" ry="2" style="stroke:#000000;stroke-width:1.2000000000000002;" width="419.2" x="5.6" y="35.5906"/><text fill="#000000" font-family="sans-serif" font-size="11.2" font-weight="bold" lengthAdjust="spacing" textLength="243.2" x="93.6" y="48.0188">Job Requirements Specification Aggregate</text></g><!--cluster Candidate Aggregate--><g id="cluster_Candidate Aggregate"><rect fill="none" height="132" rx="2" ry="2" style="stroke:#000000;stroke-width:1.2000000000000002;" width="418.4" x="669.2" y="863.5906"/><text fill="#000000" font-family="sans-serif" font-size="11.2" font-weight="bold" lengthAdjust="spacing" textLength="120" x="818.4" y="876.0188">Candidate Aggregate</text></g><!--class JobOpening--><g id="elem_JobOpening"><rect codeLine="25" fill="#F0FFFF" height="50.2031" id="JobOpening" rx="2" ry="2" style="stroke:#000000;stroke-width:0.4000000000000001;" width="90.4" x="316" y="343.1906"/><ellipse cx="328" cy="365.0922" fill="#ADD1B2" rx="8.8" ry="8.8" style="stroke:#181818;stroke-width:0.8000000000000002;"/><path d="M331.2914,369.8922 L325.1156,369.8922 L325.1156,359.9777 L331.2914,359.9777 L331.2914,361.7043 L327.0746,361.7043 L327.0746,363.8426 L330.893,363.8426 L330.893,365.5691 L327.0746,365.5691 L327.0746,368.1656 L331.2914,368.1656 Z " fill="#000000"/><text fill="#000000" font-family="sans-serif" font-size="9.6" font-style="italic" lengthAdjust="spacing" textLength="34.4" x="354.4" y="356.4719">&#171;entity&#187;</text><text fill="#000000" font-family="sans-serif" font-size="9.6" font-style="italic" lengthAdjust="spacing" textLength="28" x="357.6" y="367.7781">&#171;root&#187;</text><text fill="#000000" font-family="sans-serif" font-size="11.2" lengthAdjust="spacing" textLength="64.8" x="339.2" y="380.6313">JobOpening</text><line style="stroke:#000000;stroke-width:0.4000000000000001;" x1="316.8" x2="405.6" y1="386.9938" y2="386.9938"/></g><g id="elem_GMN18"><path d="M643.2,413.1906 L643.2,428.9506 L585.92,429.6626 L643.2,435.3506 L643.2,457.9359 A0,0 0 0 0 643.2,457.9359 L802.4,457.9359 A0,0 0 0 0 802.4,457.9359 L802.4,421.1906 L794.4,413.1906 L643.2,413.1906 A0,0 0 0 0 643.2,413.1906 " fill="#FEFFDD" style="stroke:#181818;stroke-width:0.4000000000000001;"/><path d="M794.4,413.1906 L794.4,421.1906 L802.4,421.1906 L794.4,413.1906 " fill="#FEFFDD" style="stroke:#181818;stroke-width:0.4000000000000001;"/><text fill="#000000" font-family="sans-serif" font-size="10.4" lengthAdjust="spacing" textLength="142.4" x="648" y="427.2453">Can be one of the following:</text><text fill="#000000" font-family="sans-serif" font-size="10.4" lengthAdjust="spacing" textLength="55.2" x="648" y="439.4938">- full-time</text><text fill="#000000" font-family="sans-serif" font-size="10.4" lengthAdjust="spacing" textLength="58.4" x="648" y="451.7422">- part-time</text></g><g id="elem_GMN21"><path d="M643.2,327.9906 L643.2,358.3506 L585.92,365.2866 L643.2,364.7506 L643.2,384.9844 A0,0 0 0 0 643.2,384.9844 L802.4,384.9844 A0,0 0 0 0 802.4,384.9844 L802.4,335.9906 L794.4,327.9906 L643.2,327.9906 A0,0 0 0 0 643.2,327.9906 " fill="#FEFFDD" style="stroke:#181818;stroke-width:0.4000000000000001;"/><path d="M794.4,327.9906 L794.4,335.9906 L802.4,335.9906 L794.4,327.9906 " fill="#FEFFDD" style="stroke:#181818;stroke-width:0.4000000000000001;"/><text fill="#000000" font-family="sans-serif" font-size="10.4" lengthAdjust="spacing" textLength="142.4" x="648" y="342.0453">Can be one of the following:</text><text fill="#000000" font-family="sans-serif" font-size="10.4" lengthAdjust="spacing" textLength="44.8" x="648" y="354.2938">- remote</text><text fill="#000000" font-family="sans-serif" font-size="10.4" lengthAdjust="spacing" textLength="41.6" x="648" y="366.5422">- hybrid</text><text fill="#000000" font-family="sans-serif" font-size="10.4" lengthAdjust="spacing" textLength="40.8" x="648" y="378.7906">- onsite</text></g><!--entity JobReference--><g id="elem_JobReference"><rect fill="#F0FFDD" height="31.1813" rx="2" ry="2" style="stroke:#000000;stroke-width:0.4000000000000001;" width="96" x="489.6" y="530.3906"/><text fill="#000000" font-family="sans-serif" font-size="11.2" font-style="italic" lengthAdjust="spacing" textLength="80" x="497.6" y="543.6188">&#171;Value Object&#187;</text><text fill="#000000" font-family="sans-serif" font-size="11.2" lengthAdjust="spacing" textLength="72" x="501.6" y="556.8094">JobReference</text></g><!--entity TitleOrFunction--><g id="elem_TitleOrFunction"><rect fill="#F0FFDD" height="31.1813" rx="2" ry="2" style="stroke:#000000;stroke-width:0.4000000000000001;" width="101.6" x="486.8" y="471.1906"/><text fill="#000000" font-family="sans-serif" font-size="11.2" font-style="italic" lengthAdjust="spacing" textLength="80" x="497.6" y="484.4188">&#171;Value Object&#187;</text><text fill="#000000" font-family="sans-serif" font-size="11.2" lengthAdjust="spacing" textLength="85.6" x="494.8" y="497.6094">TitleOrFunction</text></g><!--entity ContractType--><g id="elem_ContractType"><rect fill="#F0FFDD" height="31.1813" rx="2" ry="2" style="stroke:#000000;stroke-width:0.4000000000000001;" width="96" x="489.6" y="411.9906"/><text fill="#000000" font-family="sans-serif" font-size="11.2" font-style="italic" lengthAdjust="spacing" textLength="80" x="497.6" y="425.2188">&#171;Value Object&#187;</text><text fill="#000000" font-family="sans-serif" font-size="11.2" lengthAdjust="spacing" textLength="73.6" x="500.8" y="438.4094">ContractType</text></g><!--entity Mode--><g id="elem_Mode"><rect fill="#F0FFDD" height="31.1813" rx="2" ry="2" style="stroke:#000000;stroke-width:0.4000000000000001;" width="96" x="489.6" y="352.7906"/><text fill="#000000" font-family="sans-serif" font-size="11.2" font-style="italic" lengthAdjust="spacing" textLength="80" x="497.6" y="366.0188">&#171;Value Object&#187;</text><text fill="#000000" font-family="sans-serif" font-size="11.2" lengthAdjust="spacing" textLength="30.4" x="522.4" y="379.2094">Mode</text></g><!--entity Address--><g id="elem_Address"><rect fill="#F0FFDD" height="31.1813" rx="2" ry="2" style="stroke:#000000;stroke-width:0.4000000000000001;" width="96" x="489.6" y="293.5906"/><text fill="#000000" font-family="sans-serif" font-size="11.2" font-style="italic" lengthAdjust="spacing" textLength="80" x="497.6" y="306.8188">&#171;Value Object&#187;</text><text fill="#000000" font-family="sans-serif" font-size="11.2" lengthAdjust="spacing" textLength="44.8" x="515.2" y="320.0094">Address</text></g><!--entity VacanciesNumber--><g id="elem_VacanciesNumber"><rect fill="#F0FFDD" height="31.1813" rx="2" ry="2" style="stroke:#000000;stroke-width:0.4000000000000001;" width="113.6" x="480.8" y="234.3906"/><text fill="#000000" font-family="sans-serif" font-size="11.2" font-style="italic" lengthAdjust="spacing" textLength="80" x="497.6" y="247.6188">&#171;Value Object&#187;</text><text fill="#000000" font-family="sans-serif" font-size="11.2" lengthAdjust="spacing" textLength="97.6" x="488.8" y="260.8094">VacanciesNumber</text></g><!--entity Description--><g id="elem_Description"><rect fill="#F0FFDD" height="31.1813" rx="2" ry="2" style="stroke:#000000;stroke-width:0.4000000000000001;" width="96" x="489.6" y="175.1906"/><text fill="#000000" font-family="sans-serif" font-size="11.2" font-style="italic" lengthAdjust="spacing" textLength="80" x="497.6" y="188.4188">&#171;Value Object&#187;</text><text fill="#000000" font-family="sans-serif" font-size="11.2" lengthAdjust="spacing" textLength="62.4" x="506.4" y="201.6094">Description</text></g><!--class Application--><g id="elem_Application"><rect codeLine="66" fill="#F0FFFF" height="50.2031" id="Application" rx="2" ry="2" style="stroke:#000000;stroke-width:0.4000000000000001;" width="88" x="493.6" y="701.5906"/><ellipse cx="505.6" cy="723.4922" fill="#ADD1B2" rx="8.8" ry="8.8" style="stroke:#181818;stroke-width:0.8000000000000002;"/><path d="M508.8914,728.2922 L502.7156,728.2922 L502.7156,718.3777 L508.8914,718.3777 L508.8914,720.1043 L504.6746,720.1043 L504.6746,722.2426 L508.493,722.2426 L508.493,723.9691 L504.6746,723.9691 L504.6746,726.5656 L508.8914,726.5656 Z " fill="#000000"/><text fill="#000000" font-family="sans-serif" font-size="9.6" font-style="italic" lengthAdjust="spacing" textLength="34.4" x="530.8" y="714.8719">&#171;entity&#187;</text><text fill="#000000" font-family="sans-serif" font-size="9.6" font-style="italic" lengthAdjust="spacing" textLength="28" x="534" y="726.1781">&#171;root&#187;</text><text fill="#000000" font-family="sans-serif" font-size="11.2" lengthAdjust="spacing" textLength="62.4" x="516.8" y="739.0313">Application</text><line style="stroke:#000000;stroke-width:0.4000000000000001;" x1="494.4" x2="580.8" y1="745.3938" y2="745.3938"/></g><g id="elem_GMN34"><path d="M936,663.9906 L936,711.2146 L771.032,747.0066 L936,717.6146 L936,733.2328 A0,0 0 0 0 936,733.2328 L1095.2,733.2328 A0,0 0 0 0 1095.2,733.2328 L1095.2,671.9906 L1087.2,663.9906 L936,663.9906 A0,0 0 0 0 936,663.9906 " fill="#FEFFDD" style="stroke:#181818;stroke-width:0.4000000000000001;"/><path d="M1087.2,663.9906 L1087.2,671.9906 L1095.2,671.9906 L1087.2,663.9906 " fill="#FEFFDD" style="stroke:#181818;stroke-width:0.4000000000000001;"/><text fill="#000000" font-family="sans-serif" font-size="10.4" lengthAdjust="spacing" textLength="142.4" x="940.8" y="678.0453">Can be one of the following:</text><text fill="#000000" font-family="sans-serif" font-size="10.4" lengthAdjust="spacing" textLength="60.8" x="940.8" y="690.2938">- submitted</text><text fill="#000000" font-family="sans-serif" font-size="10.4" lengthAdjust="spacing" textLength="50.4" x="940.8" y="702.5422">- pending</text><text fill="#000000" font-family="sans-serif" font-size="10.4" lengthAdjust="spacing" textLength="54.4" x="940.8" y="714.7906">- accepted</text><text fill="#000000" font-family="sans-serif" font-size="10.4" lengthAdjust="spacing" textLength="52" x="940.8" y="727.0391">- declined</text></g><g id="elem_GMN37"><path d="M852.8,761.5906 L852.8,803.8786 L774.656,812.2226 L852.8,810.2786 L852.8,830.8328 A0,0 0 0 0 852.8,830.8328 L1178.4,830.8328 A0,0 0 0 0 1178.4,830.8328 L1178.4,769.5906 L1170.4,761.5906 L852.8,761.5906 A0,0 0 0 0 852.8,761.5906 " fill="#FEFFDD" style="stroke:#181818;stroke-width:0.4000000000000001;"/><path d="M1170.4,761.5906 L1170.4,769.5906 L1178.4,769.5906 L1170.4,761.5906 " fill="#FEFFDD" style="stroke:#181818;stroke-width:0.4000000000000001;"/><text fill="#000000" font-family="sans-serif" font-size="10.4" lengthAdjust="spacing" textLength="142.4" x="857.6" y="775.6453">Can be one of the following:</text><text fill="#000000" font-family="sans-serif" font-size="10.4" lengthAdjust="spacing" textLength="203.2" x="857.6" y="787.8938">- text file with the contents of the email</text><text fill="#000000" font-family="sans-serif" font-size="10.4" lengthAdjust="spacing" textLength="198.4" x="857.6" y="800.1422">- file for each file attached to the email</text><text fill="#000000" font-family="sans-serif" font-size="10.4" lengthAdjust="spacing" textLength="308.8" x="857.6" y="812.3906">- text file with the contents of each file attached to the email</text><text fill="#000000" font-family="sans-serif" font-size="10.4" lengthAdjust="spacing" textLength="283.2" x="857.6" y="824.6391">- text file with the data of the application and candidate</text></g><!--entity ApplicationFiles--><g id="elem_ApplicationFiles"><rect fill="#F0FFDD" height="31.1813" rx="2" ry="2" style="stroke:#000000;stroke-width:0.4000000000000001;" width="103.2" x="671.2" y="799.9906"/><text fill="#000000" font-family="sans-serif" font-size="11.2" font-style="italic" lengthAdjust="spacing" textLength="80" x="682.8" y="813.2188">&#171;Value Object&#187;</text><text fill="#000000" font-family="sans-serif" font-size="11.2" lengthAdjust="spacing" textLength="87.2" x="679.2" y="826.4094">ApplicationFiles</text></g><!--entity Status--><g id="elem_Status"><rect fill="#F0FFDD" height="31.1813" rx="2" ry="2" style="stroke:#000000;stroke-width:0.4000000000000001;" width="96" x="674.8" y="740.7906"/><text fill="#000000" font-family="sans-serif" font-size="11.2" font-style="italic" lengthAdjust="spacing" textLength="80" x="682.8" y="754.0188">&#171;Value Object&#187;</text><text fill="#000000" font-family="sans-serif" font-size="11.2" lengthAdjust="spacing" textLength="33.6" x="706" y="767.2094">Status</text></g><!--entity SubmissionDate--><g id="elem_SubmissionDate"><rect fill="#F0FFDD" height="31.1813" rx="2" ry="2" style="stroke:#000000;stroke-width:0.4000000000000001;" width="104" x="670.8" y="681.5906"/><text fill="#000000" font-family="sans-serif" font-size="11.2" font-style="italic" lengthAdjust="spacing" textLength="80" x="682.8" y="694.8188">&#171;Value Object&#187;</text><text fill="#000000" font-family="sans-serif" font-size="11.2" lengthAdjust="spacing" textLength="88" x="678.8" y="708.0094">SubmissionDate</text></g><!--entity Rank--><g id="elem_Rank"><rect fill="#F0FFDD" height="31.1813" rx="2" ry="2" style="stroke:#000000;stroke-width:0.4000000000000001;" width="96" x="674.8" y="622.3906"/><text fill="#000000" font-family="sans-serif" font-size="11.2" font-style="italic" lengthAdjust="spacing" textLength="80" x="682.8" y="635.6188">&#171;Value Object&#187;</text><text fill="#000000" font-family="sans-serif" font-size="11.2" lengthAdjust="spacing" textLength="27.2" x="709.2" y="648.8094">Rank</text></g><!--class JobRequirementsSpecification--><g id="elem_JobRequirementsSpecification"><rect codeLine="101" fill="#F0FFFF" height="50.2031" id="JobRequirementsSpecification" rx="2" ry="2" style="stroke:#000000;stroke-width:0.4000000000000001;" width="188.8" x="18.4" y="63.9906"/><ellipse cx="30.4" cy="85.8922" fill="#ADD1B2" rx="8.8" ry="8.8" style="stroke:#181818;stroke-width:0.8000000000000002;"/><path d="M33.6914,90.6922 L27.5156,90.6922 L27.5156,80.7777 L33.6914,80.7777 L33.6914,82.5043 L29.4746,82.5043 L29.4746,84.6426 L33.293,84.6426 L33.293,86.3691 L29.4746,86.3691 L29.4746,88.9656 L33.6914,88.9656 Z " fill="#000000"/><text fill="#000000" font-family="sans-serif" font-size="9.6" font-style="italic" lengthAdjust="spacing" textLength="34.4" x="106" y="77.2719">&#171;entity&#187;</text><text fill="#000000" font-family="sans-serif" font-size="9.6" font-style="italic" lengthAdjust="spacing" textLength="28" x="109.2" y="88.5781">&#171;root&#187;</text><text fill="#000000" font-family="sans-serif" font-size="11.2" lengthAdjust="spacing" textLength="163.2" x="41.6" y="101.4313">JobRequirementsSpecification</text><line style="stroke:#000000;stroke-width:0.4000000000000001;" x1="19.2" x2="206.4" y1="107.7938" y2="107.7938"/></g><!--class Requirements--><g id="elem_Requirements"><rect codeLine="103" fill="#F0FFFF" height="38.8969" id="Requirements" rx="2" ry="2" style="stroke:#000000;stroke-width:0.4000000000000001;" width="101.6" x="310.4" y="69.5906"/><ellipse cx="322.4" cy="85.8391" fill="#ADD1B2" rx="8.8" ry="8.8" style="stroke:#181818;stroke-width:0.8000000000000002;"/><path d="M325.6914,90.6391 L319.5156,90.6391 L319.5156,80.7246 L325.6914,80.7246 L325.6914,82.4512 L321.4746,82.4512 L321.4746,84.5895 L325.293,84.5895 L325.293,86.316 L321.4746,86.316 L321.4746,88.9125 L325.6914,88.9125 Z " fill="#000000"/><text fill="#000000" font-family="sans-serif" font-size="9.6" font-style="italic" lengthAdjust="spacing" textLength="34.4" x="354.4" y="82.8719">&#171;entity&#187;</text><text fill="#000000" font-family="sans-serif" font-size="11.2" lengthAdjust="spacing" textLength="76" x="333.6" y="95.725">Requirements</text><line style="stroke:#000000;stroke-width:0.4000000000000001;" x1="311.2" x2="411.2" y1="102.0875" y2="102.0875"/></g><!--class Candidate--><g id="elem_Candidate"><rect codeLine="110" fill="#F0FFFF" height="50.2031" id="Candidate" rx="2" ry="2" style="stroke:#000000;stroke-width:0.4000000000000001;" width="81.6" x="682" y="891.9906"/><ellipse cx="694" cy="913.8922" fill="#ADD1B2" rx="8.8" ry="8.8" style="stroke:#181818;stroke-width:0.8000000000000002;"/><path d="M697.2914,918.6922 L691.1156,918.6922 L691.1156,908.7777 L697.2914,908.7777 L697.2914,910.5043 L693.0746,910.5043 L693.0746,912.6426 L696.893,912.6426 L696.893,914.3691 L693.0746,914.3691 L693.0746,916.9656 L697.2914,916.9656 Z " fill="#000000"/><text fill="#000000" font-family="sans-serif" font-size="9.6" font-style="italic" lengthAdjust="spacing" textLength="34.4" x="716" y="905.2719">&#171;entity&#187;</text><text fill="#000000" font-family="sans-serif" font-size="9.6" font-style="italic" lengthAdjust="spacing" textLength="28" x="719.2" y="916.5781">&#171;root&#187;</text><text fill="#000000" font-family="sans-serif" font-size="11.2" lengthAdjust="spacing" textLength="56" x="705.2" y="929.4313">Candidate</text><line style="stroke:#000000;stroke-width:0.4000000000000001;" x1="682.8" x2="762.8" y1="935.7938" y2="935.7938"/></g><!--entity Curriculum--><g id="elem_Curriculum"><rect fill="#F0FFDD" height="31.1813" rx="2" ry="2" style="stroke:#000000;stroke-width:0.4000000000000001;" width="96" x="967.6" y="951.1906"/><text fill="#000000" font-family="sans-serif" font-size="11.2" font-style="italic" lengthAdjust="spacing" textLength="80" x="975.6" y="964.4188">&#171;Value Object&#187;</text><text fill="#000000" font-family="sans-serif" font-size="11.2" lengthAdjust="spacing" textLength="61.6" x="984.8" y="977.6094">Curriculum</text></g><!--entity TelephoneNumber--><g id="elem_TelephoneNumber"><rect fill="#F0FFDD" height="31.1813" rx="2" ry="2" style="stroke:#000000;stroke-width:0.4000000000000001;" width="118.4" x="956.4" y="891.9906"/><text fill="#000000" font-family="sans-serif" font-size="11.2" font-style="italic" lengthAdjust="spacing" textLength="80" x="975.6" y="905.2188">&#171;Value Object&#187;</text><text fill="#000000" font-family="sans-serif" font-size="11.2" lengthAdjust="spacing" textLength="102.4" x="964.4" y="918.4094">TelephoneNumber</text></g><!--link JobOpening to JobReference--><g id="link_JobOpening_JobReference"><path codeLine="42" d="M376.12,393.8786 C394.976,425.9826 431.072,481.1986 474.4,516.3906 C480.824,521.6066 484.0435,523.9631 491.5715,527.8351 " fill="none" id="JobOpening-to-JobReference" style="stroke:#808080;stroke-width:0.8000000000000002;"/><polygon fill="#808080" points="495.84,530.0306,490.9009,523.8918,492.2829,528.2011,487.9736,529.5831,495.84,530.0306" style="stroke:#808080;stroke-width:0.8000000000000002;"/></g><!--link JobOpening to TitleOrFunction--><g id="link_JobOpening_TitleOrFunction"><path codeLine="43" d="M390.48,393.8546 C412.44,412.7426 444.088,438.3586 474.4,457.1906 C482.344,462.1266 486.918,464.7106 495.446,468.8306 " fill="none" id="JobOpening-to-TitleOrFunction" style="stroke:#808080;stroke-width:0.8000000000000002;"/><polygon fill="#808080" points="499.768,470.9186,494.677,464.9052,496.1663,469.1786,491.8929,470.6679,499.768,470.9186" style="stroke:#808080;stroke-width:0.8000000000000002;"/></g><!--link JobOpening to ContractType--><g id="link_JobOpening_ContractType"><path codeLine="44" d="M406.792,383.5586 C432.176,392.1586 459.3734,401.3716 485.1334,410.0916 " fill="none" id="JobOpening-to-ContractType" style="stroke:#808080;stroke-width:0.8000000000000002;"/><polygon fill="#808080" points="489.68,411.6306,483.8862,406.291,485.8912,410.3481,481.8341,412.3531,489.68,411.6306" style="stroke:#808080;stroke-width:0.8000000000000002;"/></g><!--link JobOpening to Mode--><g id="link_JobOpening_Mode"><path codeLine="45" d="M406.792,368.3906 C432.08,368.3906 458.864,368.3906 484.576,368.3906 " fill="none" id="JobOpening-to-Mode" style="stroke:#808080;stroke-width:0.8000000000000002;"/><polygon fill="#808080" points="489.376,368.3906,482.176,365.1906,485.376,368.3906,482.176,371.5906,489.376,368.3906" style="stroke:#808080;stroke-width:0.8000000000000002;"/></g><!--link JobOpening to Address--><g id="link_JobOpening_Address"><path codeLine="46" d="M406.792,353.2226 C432.176,344.6226 459.3734,335.4097 485.1334,326.6897 " fill="none" id="JobOpening-to-Address" style="stroke:#808080;stroke-width:0.8000000000000002;"/><polygon fill="#808080" points="489.68,325.1506,481.8341,324.4282,485.8912,326.4332,483.8862,330.4903,489.68,325.1506" style="stroke:#808080;stroke-width:0.8000000000000002;"/></g><!--link JobOpening to VacanciesNumber--><g id="link_JobOpening_VacanciesNumber"><path codeLine="47" d="M390.48,342.9266 C412.44,324.0386 444.088,298.4226 474.4,279.5906 C482.344,274.6546 486.918,272.0707 495.446,267.9507 " fill="none" id="JobOpening-to-VacanciesNumber" style="stroke:#808080;stroke-width:0.8000000000000002;"/><polygon fill="#808080" points="499.768,265.8626,491.8929,266.1133,496.1663,267.6027,494.677,271.8761,499.768,265.8626" style="stroke:#808080;stroke-width:0.8000000000000002;"/></g><!--link JobOpening to Description--><g id="link_JobOpening_Description"><path codeLine="48" d="M376.12,342.9026 C394.976,310.7986 431.072,255.5826 474.4,220.3906 C480.824,215.1746 484.0435,212.8181 491.5715,208.9461 " fill="none" id="JobOpening-to-Description" style="stroke:#808080;stroke-width:0.8000000000000002;"/><polygon fill="#808080" points="495.84,206.7506,487.9736,207.1982,492.2829,208.5802,490.9009,212.8895,495.84,206.7506" style="stroke:#808080;stroke-width:0.8000000000000002;"/></g><!--link Application to ApplicationFiles--><g id="link_Application_ApplicationFiles"><path codeLine="77" d="M580.192,752.3666 C599.08,763.4066 621.896,776.0466 643.2,785.9906 C653.592,790.8466 660.5374,793.7966 671.3934,797.9246 " fill="none" id="Application-to-ApplicationFiles" style="stroke:#808080;stroke-width:0.8000000000000002;"/><polygon fill="#808080" points="675.88,799.6306,670.2875,794.0805,672.1412,798.2089,668.0128,800.0626,675.88,799.6306" style="stroke:#808080;stroke-width:0.8000000000000002;"/></g><!--link Application to Status--><g id="link_Application_Status"><path codeLine="78" d="M581.912,733.8066 C609.8,738.3026 641.2613,743.3702 669.8773,747.9862 " fill="none" id="Application-to-Status" style="stroke:#808080;stroke-width:0.8000000000000002;"/><polygon fill="#808080" points="674.616,748.7506,668.0175,744.4449,670.667,748.1136,666.9983,750.7632,674.616,748.7506" style="stroke:#808080;stroke-width:0.8000000000000002;"/></g><!--link Application to SubmissionDate--><g id="link_Application_SubmissionDate"><path codeLine="79" d="M581.912,719.7746 C608.528,715.4866 637.9732,710.7384 665.9172,706.2344 " fill="none" id="Application-to-SubmissionDate" style="stroke:#808080;stroke-width:0.8000000000000002;"/><polygon fill="#808080" points="670.656,705.4706,663.0385,703.4571,666.707,706.1071,664.0569,709.7756,670.656,705.4706" style="stroke:#808080;stroke-width:0.8000000000000002;"/></g><!--link Application to Rank--><g id="link_Application_Rank"><path codeLine="80" d="M580.192,701.2146 C599.08,690.1746 621.896,677.5346 643.2,667.5906 C653.592,662.7346 660.5374,659.7847 671.3934,655.6567 " fill="none" id="Application-to-Rank" style="stroke:#808080;stroke-width:0.8000000000000002;"/><polygon fill="#808080" points="675.88,653.9506,668.0128,653.5186,672.1412,655.3723,670.2875,659.5007,675.88,653.9506" style="stroke:#808080;stroke-width:0.8000000000000002;"/></g><!--link JobRequirementsSpecification to Requirements--><g id="link_JobRequirementsSpecification_Requirements"><path codeLine="105" d="M207.256,89.1906 C242.168,89.1906 275.648,89.1906 305.208,89.1906 " fill="none" id="JobRequirementsSpecification-to-Requirements" style="stroke:#808080;stroke-width:0.8000000000000002;"/><polygon fill="#808080" points="310.008,89.1906,302.808,85.9906,306.008,89.1906,302.808,92.3906,310.008,89.1906" style="stroke:#808080;stroke-width:0.8000000000000002;"/></g><!--link Candidate to Curriculum--><g id="link_Candidate_Curriculum"><path codeLine="117" d="M763.784,924.0386 C816.992,933.0946 905.9322,948.2486 962.5722,957.8966 " fill="none" id="Candidate-to-Curriculum" style="stroke:#808080;stroke-width:0.8000000000000002;"/><polygon fill="#808080" points="967.304,958.7026,960.7436,954.339,963.3608,958.0309,959.6689,960.6482,967.304,958.7026" style="stroke:#808080;stroke-width:0.8000000000000002;"/></g><!--link Candidate to TelephoneNumber--><g id="link_Candidate_TelephoneNumber"><path codeLine="118" d="M763.784,915.8626 C813.632,914.2226 894.2186,911.5644 951.3786,909.6844 " fill="none" id="Candidate-to-TelephoneNumber" style="stroke:#808080;stroke-width:0.8000000000000002;"/><polygon fill="#808080" points="956.176,909.5266,948.8747,906.565,952.1782,909.6581,949.0851,912.9616,956.176,909.5266" style="stroke:#808080;stroke-width:0.8000000000000002;"/></g><!--reverse link JobOpening to Application--><g id="link_JobOpening_Application"><path codeLine="122" d="M376.5362,398.1928 C408.6722,464.0808 492.12,635.1826 524.312,701.1906 " fill="none" id="JobOpening-backto-Application" style="stroke:#808080;stroke-width:0.8000000000000002;"/><polygon fill="#808080" points="374.432,393.8786,374.7122,401.7527,376.1855,397.4738,380.4644,398.9471,374.432,393.8786" style="stroke:#808080;stroke-width:0.8000000000000002;"/><text fill="#000000" font-family="sans-serif" font-size="10.4" lengthAdjust="spacing" textLength="17.6" x="438.4" y="524.0453">has</text><text fill="#000000" font-family="sans-serif" font-size="10.4" lengthAdjust="spacing" textLength="6.4" x="369.8817" y="409.78">1</text><text fill="#000000" font-family="sans-serif" font-size="10.4" lengthAdjust="spacing" textLength="8" x="509.3934" y="693.0679">N</text></g><!--reverse link JobRequirementsSpecification to JobOpening--><g id="link_JobRequirementsSpecification_JobOpening"><path codeLine="123" d="M139.3388,118.3072 C186.2748,171.4112 290.832,289.6866 337.808,342.8306 " fill="none" id="JobRequirementsSpecification-backto-JobOpening" style="stroke:#808080;stroke-width:0.8000000000000002;"/><polygon fill="#808080" points="136.16,114.7106,138.5305,122.2247,138.809,117.7077,143.3259,117.9862,136.16,114.7106" style="stroke:#808080;stroke-width:0.8000000000000002;"/><text fill="#000000" font-family="sans-serif" font-size="10.4" lengthAdjust="spacing" textLength="53.6" x="232" y="226.4453">associated</text><text fill="#000000" font-family="sans-serif" font-size="10.4" lengthAdjust="spacing" textLength="6.4" x="133.477" y="130.6179">1</text><text fill="#000000" font-family="sans-serif" font-size="10.4" lengthAdjust="spacing" textLength="8" x="324.1584" y="334.422">N</text></g><!--link Application to Candidate--><g id="link_Application_Candidate"><path codeLine="124" d="M559.8,752.2066 C580.512,776.4706 613.112,813.7586 643.2,844.3906 C659.256,860.7346 674.5062,874.9693 689.7222,888.6813 " fill="none" id="Application-to-Candidate" style="stroke:#808080;stroke-width:0.8000000000000002;"/><polygon fill="#808080" points="693.288,891.8946,690.0816,884.6975,690.3165,889.2169,685.7972,889.4518,693.288,891.8946" style="stroke:#808080;stroke-width:0.8000000000000002;"/><text fill="#000000" font-family="sans-serif" font-size="10.4" lengthAdjust="spacing" textLength="8" x="555.2694" y="768.2924">N</text><text fill="#000000" font-family="sans-serif" font-size="10.4" lengthAdjust="spacing" textLength="6.4" x="680.1412" y="883.5404">1</text></g><!--SRC=[fLPBJ-Cm4BxdLuoovqgxLrHLAgsAMB4K0SlTjIU9juwTTHon5UA_xpZfmmdk0v4BrFFDunlFmuKK22MwmeWwKPWvS0Qip0i7GbhaJXgT9C_IAOHqRaecDVmo0XMCu7Ub31CmOrf8mHp28_vjIAb4xUeqIUgrr1Mph0IkM5t3MmBqtSaCxwJ6QsC5sfbHniASsVMrQh0FO7oTMzDeqO6c3mztjxFfy-toliKDvTyMtnVqjRAfjUQrEyujRZfyu72bI3bv3sEiw8Jb-EGsHDKpPpfNs6F1h3X1uiOYwgypcC-737nsRc8ihdSijh53-jEiO5cXbZg7QKxKSxgNz2sX6v5k0oJUISVZxcmo6O-jCMuoILhxBKd2FMA65ZL7GhumkXjOhlvGLYQJRGhU3_2sF9PsqUYsNYxGc1djBEFkULDTui1Nt0MmgH0MgT3E8ryOPvfBhE-RSeNs0eqvrjpAwZI_za-GvD5eqijbJ3v8NWmIPYicz-c9dM_p4HCD4X2318mxOjfGZtUpmMGVW_8VpG9O8HYD7k8AXCmePLx9vjKUD8AiKMhaP8d16VMOEvoX5gs_cESztSjTadsQIzvUS59iLbQAyCJeMhfX065_JQjAISxQAeZqLoW-sM01S24LVYpP3_Ntv9XhBi4rgrBMDHcU-v5y5l_8zFeegfj40QcsgWQnHq5Tk75HBy8en0SLk_d0wYUghVOEdKCHLXlTBy624yOvLdsGGAveZ8kp5HbDoISYTFZFGKQQy2fTqU8ujPVVepizfDMhmXRow8oM039UTB-OS_G_2h_2Oofdl7p94Er_jWkL1RT9RmEgi-q3uKHZ-SKLFX_WgK8kinEzrixLWq8VVwpvjhezJmViVduVDznMPo3jipWyXI817uGdHyEiiLRoHZNb9PiN5LO5bTUHFTPhv4C0xLBP-ua81tOzoU6AI7-aC1wD8Bs7jDV0Lr2m-dmc3_ffQFOAwAbek6IxLWnDUwmFp-lk0qwI_m00]--></g></svg>