<?xml version="1.0" encoding="us-ascii" standalone="no"?><svg xmlns="http://www.w3.org/2000/svg" xmlns:xlink="http://www.w3.org/1999/xlink" contentStyleType="text/css" height="813px" preserveAspectRatio="none" style="width:1756px;height:813px;background:#FFFFFF;" version="1.1" viewBox="0 0 1756 813" width="1756.2px" zoomAndPan="magnify"><defs/><g><rect fill="#FFFFFF" height="688.8797" style="stroke:#181818;stroke-width:0.6;" width="6" x="20.4" y="56.3859"/><rect fill="#FFFFFF" height="167.4633" style="stroke:#181818;stroke-width:0.6;" width="6" x="261" y="69.1723"/><rect fill="#FFFFFF" height="157.677" style="stroke:#181818;stroke-width:0.6;" width="6" x="261" y="254.2219"/><rect fill="#FFFFFF" height="17.5863" style="stroke:#181818;stroke-width:0.6;" width="6" x="261" y="429.4852"/><rect fill="#FFFFFF" height="280.6078" style="stroke:#181818;stroke-width:0.6;" width="6" x="261" y="464.6578"/><rect fill="#FFFFFF" height="123.1043" style="stroke:#181818;stroke-width:0.6;" width="6" x="444.9" y="86.7586"/><rect fill="#FFFFFF" height="87.9316" style="stroke:#181818;stroke-width:0.6;" width="6" x="616.2" y="104.3449"/><rect fill="#FFFFFF" height="52.759" style="stroke:#181818;stroke-width:0.6;" width="6" x="721.5" y="121.9312"/><rect fill="#FFFFFF" height="17.5863" style="stroke:#181818;stroke-width:0.6;" width="6" x="818.4" y="139.5176"/><rect fill="#FFFFFF" height="113.318" style="stroke:#181818;stroke-width:0.6;" width="6" x="954.3" y="271.8082"/><rect fill="#FFFFFF" height="73.3453" style="stroke:#181818;stroke-width:0.6;" width="6" x="957.3" y="294.1945"/><rect fill="#FFFFFF" height="52.759" style="stroke:#181818;stroke-width:0.6;" width="6" x="1144.5" y="314.7809"/><rect fill="#FFFFFF" height="87.5449" style="stroke:#181818;stroke-width:0.6;" width="6" x="1278.3" y="482.2441"/><rect fill="#FFFFFF" height="140.3039" style="stroke:#181818;stroke-width:0.6;" width="6" x="1278.3" y="587.3754"/><rect fill="#FFFFFF" height="17.5863" style="stroke:#181818;stroke-width:0.6;" width="6" x="1417.2" y="332.3672"/><rect fill="#FFFFFF" height="17.5863" style="stroke:#181818;stroke-width:0.6;" width="6" x="1417.2" y="692.5066"/><rect fill="#FFFFFF" height="17.5863" style="stroke:#181818;stroke-width:0.6;" width="6" x="1515.9" y="534.6164"/><rect fill="#FFFFFF" height="28.7859" style="stroke:#181818;stroke-width:0.6;" width="6" x="1624.5" y="610.9617"/><rect fill="#FFFFFF" height="17.5863" style="stroke:#181818;stroke-width:0.6;" width="6" x="1718.7" y="657.334"/><line style="stroke:#181818;stroke-width:0.3;stroke-dasharray:5.0,5.0;" x1="23.4" x2="23.4" y1="50.3859" y2="756.0656"/><line style="stroke:#181818;stroke-width:0.3;stroke-dasharray:5.0,5.0;" x1="264" x2="264" y1="50.3859" y2="756.0656"/><line style="stroke:#181818;stroke-width:0.3;stroke-dasharray:5.0,5.0;" x1="447.6" x2="447.6" y1="50.3859" y2="756.0656"/><line style="stroke:#181818;stroke-width:0.3;stroke-dasharray:5.0,5.0;" x1="619.2" x2="619.2" y1="50.3859" y2="756.0656"/><line style="stroke:#181818;stroke-width:0.3;stroke-dasharray:5.0,5.0;" x1="724.2" x2="724.2" y1="50.3859" y2="756.0656"/><line style="stroke:#181818;stroke-width:0.3;stroke-dasharray:5.0,5.0;" x1="821.4" x2="821.4" y1="50.3859" y2="756.0656"/><line style="stroke:#181818;stroke-width:0.3;stroke-dasharray:5.0,5.0;" x1="957" x2="957" y1="50.3859" y2="756.0656"/><line style="stroke:#181818;stroke-width:0.3;stroke-dasharray:5.0,5.0;" x1="1147.5" x2="1147.5" y1="50.3859" y2="756.0656"/><line style="stroke:#181818;stroke-width:0.3;stroke-dasharray:5.0,5.0;" x1="1281.3" x2="1281.3" y1="50.3859" y2="756.0656"/><line style="stroke:#181818;stroke-width:0.3;stroke-dasharray:5.0,5.0;" x1="1419.9" x2="1419.9" y1="50.3859" y2="756.0656"/><line style="stroke:#181818;stroke-width:0.3;stroke-dasharray:5.0,5.0;" x1="1518.9" x2="1518.9" y1="510.4371" y2="756.0656"/><line style="stroke:#181818;stroke-width:0.3;stroke-dasharray:5.0,5.0;" x1="1627.5" x2="1627.5" y1="615.5684" y2="756.0656"/><line style="stroke:#181818;stroke-width:0.3;stroke-dasharray:5.0,5.0;" x1="1721.7" x2="1721.7" y1="50.3859" y2="756.0656"/><text fill="#000000" font-family="sans-serif" font-size="8.4" lengthAdjust="spacing" textLength="37.2" x="3" y="48.6141">Operator</text><ellipse cx="23.4" cy="9.593" fill="#E2E2F0" rx="4.8" ry="4.8" style="stroke:#181818;stroke-width:0.3;"/><path d="M23.4,14.393 L23.4,30.593 M15.6,19.193 L31.2,19.193 M23.4,30.593 L15.6,39.593 M23.4,30.593 L31.2,39.593 " fill="none" style="stroke:#181818;stroke-width:0.3;"/><text fill="#000000" font-family="sans-serif" font-size="8.4" lengthAdjust="spacing" textLength="37.2" x="3" y="763.5867">Operator</text><ellipse cx="23.4" cy="770.4586" fill="#E2E2F0" rx="4.8" ry="4.8" style="stroke:#181818;stroke-width:0.3;"/><path d="M23.4,775.2586 L23.4,791.4586 M15.6,780.0586 L31.2,780.0586 M23.4,791.4586 L15.6,800.4586 M23.4,791.4586 L31.2,800.4586 " fill="none" style="stroke:#181818;stroke-width:0.3;"/><rect fill="#E2E2F0" height="28.1859" rx="1.5" ry="1.5" style="stroke:#181818;stroke-width:0.3;" width="138" x="195" y="21.6"/><text fill="#000000" font-family="sans-serif" font-size="8.4" font-style="italic" lengthAdjust="spacing" textLength="60.6" x="233.7" y="33.9211">&#171;presentation&#187;</text><text fill="#000000" font-family="sans-serif" font-size="8.4" lengthAdjust="spacing" textLength="129.6" x="199.2" y="43.8141">UploadRequirementsAnswersUI</text><rect fill="#E2E2F0" height="28.1859" rx="1.5" ry="1.5" style="stroke:#181818;stroke-width:0.3;" width="138" x="195" y="755.4656"/><text fill="#000000" font-family="sans-serif" font-size="8.4" font-style="italic" lengthAdjust="spacing" textLength="60.6" x="233.7" y="767.7867">&#171;presentation&#187;</text><text fill="#000000" font-family="sans-serif" font-size="8.4" lengthAdjust="spacing" textLength="129.6" x="199.2" y="777.6797">UploadRequirementsAnswersUI</text><rect fill="#E2E2F0" height="28.1859" rx="1.5" ry="1.5" style="stroke:#181818;stroke-width:0.3;" width="217.8" x="339" y="21.6"/><text fill="#000000" font-family="sans-serif" font-size="8.4" font-style="italic" lengthAdjust="spacing" textLength="48.6" x="423.6" y="33.9211">&#171;controller&#187;</text><text fill="#000000" font-family="sans-serif" font-size="8.4" lengthAdjust="spacing" textLength="209.4" x="343.2" y="43.8141">GenerateRequirementsAnswersTemplateController</text><rect fill="#E2E2F0" height="28.1859" rx="1.5" ry="1.5" style="stroke:#181818;stroke-width:0.3;" width="217.8" x="339" y="755.4656"/><text fill="#000000" font-family="sans-serif" font-size="8.4" font-style="italic" lengthAdjust="spacing" textLength="48.6" x="423.6" y="767.7867">&#171;controller&#187;</text><text fill="#000000" font-family="sans-serif" font-size="8.4" lengthAdjust="spacing" textLength="209.4" x="343.2" y="777.6797">GenerateRequirementsAnswersTemplateController</text><rect fill="#E2E2F0" height="28.1859" rx="1.5" ry="1.5" style="stroke:#181818;stroke-width:0.3;" width="112.8" x="562.8" y="21.6"/><text fill="#000000" font-family="sans-serif" font-size="8.4" font-style="italic" lengthAdjust="spacing" textLength="48.6" x="594.9" y="33.9211">&#171;controller&#187;</text><text fill="#000000" font-family="sans-serif" font-size="8.4" lengthAdjust="spacing" textLength="104.4" x="567" y="43.8141">ListJobOpeningController</text><rect fill="#E2E2F0" height="28.1859" rx="1.5" ry="1.5" style="stroke:#181818;stroke-width:0.3;" width="112.8" x="562.8" y="755.4656"/><text fill="#000000" font-family="sans-serif" font-size="8.4" font-style="italic" lengthAdjust="spacing" textLength="48.6" x="594.9" y="767.7867">&#171;controller&#187;</text><text fill="#000000" font-family="sans-serif" font-size="8.4" lengthAdjust="spacing" textLength="104.4" x="567" y="777.6797">ListJobOpeningController</text><rect fill="#E2E2F0" height="28.1859" rx="1.5" ry="1.5" style="stroke:#181818;stroke-width:0.3;" width="85.8" x="681.6" y="21.6"/><text fill="#000000" font-family="sans-serif" font-size="8.4" font-style="italic" lengthAdjust="spacing" textLength="36.6" x="706.2" y="33.9211">&#171;service&#187;</text><text fill="#000000" font-family="sans-serif" font-size="8.4" lengthAdjust="spacing" textLength="77.4" x="685.8" y="43.8141">JobOpeningService</text><rect fill="#E2E2F0" height="28.1859" rx="1.5" ry="1.5" style="stroke:#181818;stroke-width:0.3;" width="85.8" x="681.6" y="755.4656"/><text fill="#000000" font-family="sans-serif" font-size="8.4" font-style="italic" lengthAdjust="spacing" textLength="36.6" x="706.2" y="767.7867">&#171;service&#187;</text><text fill="#000000" font-family="sans-serif" font-size="8.4" lengthAdjust="spacing" textLength="77.4" x="685.8" y="777.6797">JobOpeningService</text><text fill="#000000" font-family="sans-serif" font-size="8.4" font-style="italic" lengthAdjust="spacing" textLength="50.4" x="794.4" y="38.7211">&#171;repository&#187;</text><text fill="#000000" font-family="sans-serif" font-size="8.4" lengthAdjust="spacing" textLength="92.4" x="773.4" y="48.6141">JobOpeningRepository</text><path d="M810.6,9 C810.6,3 821.4,3 821.4,3 C821.4,3 832.2,3 832.2,9 L832.2,24.6 C832.2,30.6 821.4,30.6 821.4,30.6 C821.4,30.6 810.6,30.6 810.6,24.6 L810.6,9 " fill="#E2E2F0" style="stroke:#181818;stroke-width:0.8999999999999999;"/><path d="M810.6,9 C810.6,15 821.4,15 821.4,15 C821.4,15 832.2,15 832.2,9 " fill="none" style="stroke:#181818;stroke-width:0.8999999999999999;"/><text fill="#000000" font-family="sans-serif" font-size="8.4" font-style="italic" lengthAdjust="spacing" textLength="50.4" x="794.4" y="763.5867">&#171;repository&#187;</text><text fill="#000000" font-family="sans-serif" font-size="8.4" lengthAdjust="spacing" textLength="92.4" x="773.4" y="773.4797">JobOpeningRepository</text><path d="M810.6,781.2516 C810.6,775.2516 821.4,775.2516 821.4,775.2516 C821.4,775.2516 832.2,775.2516 832.2,781.2516 L832.2,796.8516 C832.2,802.8516 821.4,802.8516 821.4,802.8516 C821.4,802.8516 810.6,802.8516 810.6,796.8516 L810.6,781.2516 " fill="#E2E2F0" style="stroke:#181818;stroke-width:0.8999999999999999;"/><path d="M810.6,781.2516 C810.6,787.2516 821.4,787.2516 821.4,787.2516 C821.4,787.2516 832.2,787.2516 832.2,781.2516 " fill="none" style="stroke:#181818;stroke-width:0.8999999999999999;"/><rect fill="#E2E2F0" height="28.1859" rx="1.5" ry="1.5" style="stroke:#181818;stroke-width:0.3;" width="163.8" x="875.4" y="21.6"/><text fill="#000000" font-family="sans-serif" font-size="8.4" font-style="italic" lengthAdjust="spacing" textLength="48.6" x="933" y="33.9211">&#171;controller&#187;</text><text fill="#000000" font-family="sans-serif" font-size="8.4" lengthAdjust="spacing" textLength="155.4" x="879.6" y="43.8141">ListJobOpeningApplicationsController</text><rect fill="#E2E2F0" height="28.1859" rx="1.5" ry="1.5" style="stroke:#181818;stroke-width:0.3;" width="163.8" x="875.4" y="755.4656"/><text fill="#000000" font-family="sans-serif" font-size="8.4" font-style="italic" lengthAdjust="spacing" textLength="48.6" x="933" y="767.7867">&#171;controller&#187;</text><text fill="#000000" font-family="sans-serif" font-size="8.4" lengthAdjust="spacing" textLength="155.4" x="879.6" y="777.6797">ListJobOpeningApplicationsController</text><rect fill="#E2E2F0" height="28.1859" rx="1.5" ry="1.5" style="stroke:#181818;stroke-width:0.3;" width="84" x="1105.5" y="21.6"/><text fill="#000000" font-family="sans-serif" font-size="8.4" font-style="italic" lengthAdjust="spacing" textLength="36.6" x="1129.2" y="33.9211">&#171;service&#187;</text><text fill="#000000" font-family="sans-serif" font-size="8.4" lengthAdjust="spacing" textLength="75.6" x="1109.7" y="43.8141">ApplicationService</text><rect fill="#E2E2F0" height="28.1859" rx="1.5" ry="1.5" style="stroke:#181818;stroke-width:0.3;" width="84" x="1105.5" y="755.4656"/><text fill="#000000" font-family="sans-serif" font-size="8.4" font-style="italic" lengthAdjust="spacing" textLength="36.6" x="1129.2" y="767.7867">&#171;service&#187;</text><text fill="#000000" font-family="sans-serif" font-size="8.4" lengthAdjust="spacing" textLength="75.6" x="1109.7" y="777.6797">ApplicationService</text><rect fill="#E2E2F0" height="28.1859" rx="1.5" ry="1.5" style="stroke:#181818;stroke-width:0.3;" width="171.6" x="1195.5" y="21.6"/><text fill="#000000" font-family="sans-serif" font-size="8.4" font-style="italic" lengthAdjust="spacing" textLength="48.6" x="1257" y="33.9211">&#171;controller&#187;</text><text fill="#000000" font-family="sans-serif" font-size="8.4" lengthAdjust="spacing" textLength="163.2" x="1199.7" y="43.8141">UploadRequirementsAnswersController</text><rect fill="#E2E2F0" height="28.1859" rx="1.5" ry="1.5" style="stroke:#181818;stroke-width:0.3;" width="171.6" x="1195.5" y="755.4656"/><text fill="#000000" font-family="sans-serif" font-size="8.4" font-style="italic" lengthAdjust="spacing" textLength="48.6" x="1257" y="767.7867">&#171;controller&#187;</text><text fill="#000000" font-family="sans-serif" font-size="8.4" lengthAdjust="spacing" textLength="163.2" x="1199.7" y="777.6797">UploadRequirementsAnswersController</text><text fill="#000000" font-family="sans-serif" font-size="8.4" font-style="italic" lengthAdjust="spacing" textLength="50.4" x="1393.2" y="38.7211">&#171;repository&#187;</text><text fill="#000000" font-family="sans-serif" font-size="8.4" lengthAdjust="spacing" textLength="90.6" x="1373.1" y="48.6141">ApplicationRepository</text><path d="M1409.4,9 C1409.4,3 1420.2,3 1420.2,3 C1420.2,3 1431,3 1431,9 L1431,24.6 C1431,30.6 1420.2,30.6 1420.2,30.6 C1420.2,30.6 1409.4,30.6 1409.4,24.6 L1409.4,9 " fill="#E2E2F0" style="stroke:#181818;stroke-width:0.8999999999999999;"/><path d="M1409.4,9 C1409.4,15 1420.2,15 1420.2,15 C1420.2,15 1431,15 1431,9 " fill="none" style="stroke:#181818;stroke-width:0.8999999999999999;"/><text fill="#000000" font-family="sans-serif" font-size="8.4" font-style="italic" lengthAdjust="spacing" textLength="50.4" x="1393.2" y="763.5867">&#171;repository&#187;</text><text fill="#000000" font-family="sans-serif" font-size="8.4" lengthAdjust="spacing" textLength="90.6" x="1373.1" y="773.4797">ApplicationRepository</text><path d="M1409.4,781.2516 C1409.4,775.2516 1420.2,775.2516 1420.2,775.2516 C1420.2,775.2516 1431,775.2516 1431,781.2516 L1431,796.8516 C1431,802.8516 1420.2,802.8516 1420.2,802.8516 C1420.2,802.8516 1409.4,802.8516 1409.4,796.8516 L1409.4,781.2516 " fill="#E2E2F0" style="stroke:#181818;stroke-width:0.8999999999999999;"/><path d="M1409.4,781.2516 C1409.4,787.2516 1420.2,787.2516 1420.2,787.2516 C1420.2,787.2516 1431,787.2516 1431,781.2516 " fill="none" style="stroke:#181818;stroke-width:0.8999999999999999;"/><rect fill="#E2E2F0" height="28.1859" rx="1.5" ry="1.5" style="stroke:#181818;stroke-width:0.3;" width="91.2" x="1473.3" y="755.4656"/><text fill="#000000" font-family="sans-serif" font-size="8.4" font-style="italic" lengthAdjust="spacing" textLength="34.8" x="1501.5" y="767.7867">&#171;plugin&#187;</text><text fill="#000000" font-family="sans-serif" font-size="8.4" lengthAdjust="spacing" textLength="82.8" x="1477.5" y="777.6797">RequirementsPlugin</text><rect fill="#E2E2F0" height="28.1859" rx="1.5" ry="1.5" style="stroke:#181818;stroke-width:0.3;" width="114" x="1570.5" y="755.4656"/><text fill="#000000" font-family="sans-serif" font-size="8.4" font-style="italic" lengthAdjust="spacing" textLength="105.6" x="1574.7" y="767.7867">&#171;candidateRequirements&#187;</text><text fill="#000000" font-family="sans-serif" font-size="8.4" lengthAdjust="spacing" textLength="99" x="1578" y="777.6797">CandidateRequirements</text><rect fill="#E2E2F0" height="28.1859" rx="1.5" ry="1.5" style="stroke:#181818;stroke-width:0.3;" width="62.4" x="1690.5" y="21.6"/><text fill="#000000" font-family="sans-serif" font-size="8.4" font-style="italic" lengthAdjust="spacing" textLength="54" x="1694.7" y="33.9211">&#171;application&#187;</text><text fill="#000000" font-family="sans-serif" font-size="8.4" lengthAdjust="spacing" textLength="46.8" x="1698.3" y="43.8141">Application</text><rect fill="#E2E2F0" height="28.1859" rx="1.5" ry="1.5" style="stroke:#181818;stroke-width:0.3;" width="62.4" x="1690.5" y="755.4656"/><text fill="#000000" font-family="sans-serif" font-size="8.4" font-style="italic" lengthAdjust="spacing" textLength="54" x="1694.7" y="767.7867">&#171;application&#187;</text><text fill="#000000" font-family="sans-serif" font-size="8.4" lengthAdjust="spacing" textLength="46.8" x="1698.3" y="777.6797">Application</text><rect fill="#FFFFFF" height="688.8797" style="stroke:#181818;stroke-width:0.6;" width="6" x="20.4" y="56.3859"/><rect fill="#FFFFFF" height="167.4633" style="stroke:#181818;stroke-width:0.6;" width="6" x="261" y="69.1723"/><rect fill="#FFFFFF" height="157.677" style="stroke:#181818;stroke-width:0.6;" width="6" x="261" y="254.2219"/><rect fill="#FFFFFF" height="17.5863" style="stroke:#181818;stroke-width:0.6;" width="6" x="261" y="429.4852"/><rect fill="#FFFFFF" height="280.6078" style="stroke:#181818;stroke-width:0.6;" width="6" x="261" y="464.6578"/><rect fill="#FFFFFF" height="123.1043" style="stroke:#181818;stroke-width:0.6;" width="6" x="444.9" y="86.7586"/><rect fill="#FFFFFF" height="87.9316" style="stroke:#181818;stroke-width:0.6;" width="6" x="616.2" y="104.3449"/><rect fill="#FFFFFF" height="52.759" style="stroke:#181818;stroke-width:0.6;" width="6" x="721.5" y="121.9312"/><rect fill="#FFFFFF" height="17.5863" style="stroke:#181818;stroke-width:0.6;" width="6" x="818.4" y="139.5176"/><rect fill="#FFFFFF" height="113.318" style="stroke:#181818;stroke-width:0.6;" width="6" x="954.3" y="271.8082"/><rect fill="#FFFFFF" height="73.3453" style="stroke:#181818;stroke-width:0.6;" width="6" x="957.3" y="294.1945"/><rect fill="#FFFFFF" height="52.759" style="stroke:#181818;stroke-width:0.6;" width="6" x="1144.5" y="314.7809"/><rect fill="#FFFFFF" height="87.5449" style="stroke:#181818;stroke-width:0.6;" width="6" x="1278.3" y="482.2441"/><rect fill="#FFFFFF" height="140.3039" style="stroke:#181818;stroke-width:0.6;" width="6" x="1278.3" y="587.3754"/><rect fill="#FFFFFF" height="17.5863" style="stroke:#181818;stroke-width:0.6;" width="6" x="1417.2" y="332.3672"/><rect fill="#FFFFFF" height="17.5863" style="stroke:#181818;stroke-width:0.6;" width="6" x="1417.2" y="692.5066"/><rect fill="#FFFFFF" height="17.5863" style="stroke:#181818;stroke-width:0.6;" width="6" x="1515.9" y="534.6164"/><rect fill="#FFFFFF" height="28.7859" style="stroke:#181818;stroke-width:0.6;" width="6" x="1624.5" y="610.9617"/><rect fill="#FFFFFF" height="17.5863" style="stroke:#181818;stroke-width:0.6;" width="6" x="1718.7" y="657.334"/><polygon fill="#181818" points="253.8,66.7723,259.8,69.1723,253.8,71.5723,256.2,69.1723" style="stroke:#181818;stroke-width:0.6;"/><line style="stroke:#181818;stroke-width:0.6;" x1="26.4" x2="257.4" y1="69.1723" y2="69.1723"/><text fill="#000000" font-family="sans-serif" font-size="7.8" font-weight="bold" lengthAdjust="spacing" textLength="5.4" x="30.6" y="66.327">1</text><text fill="#000000" font-family="sans-serif" font-size="7.8" lengthAdjust="spacing" textLength="187.8" x="38.4" y="66.327">asks to upload the requirements of and candidate</text><polygon fill="#181818" points="437.7,84.3586,443.7,86.7586,437.7,89.1586,440.1,86.7586" style="stroke:#181818;stroke-width:0.6;"/><line style="stroke:#181818;stroke-width:0.6;" x1="267" x2="441.3" y1="86.7586" y2="86.7586"/><text fill="#000000" font-family="sans-serif" font-size="7.8" font-weight="bold" lengthAdjust="spacing" textLength="5.4" x="271.2" y="83.9133">2</text><text fill="#000000" font-family="sans-serif" font-size="7.8" lengthAdjust="spacing" textLength="158.4" x="279" y="83.9133">findAllJobOpeningsWithJobRequirements()</text><polygon fill="#181818" points="609,101.9449,615,104.3449,609,106.7449,611.4,104.3449" style="stroke:#181818;stroke-width:0.6;"/><line style="stroke:#181818;stroke-width:0.6;" x1="450.9" x2="612.6" y1="104.3449" y2="104.3449"/><text fill="#000000" font-family="sans-serif" font-size="7.8" font-weight="bold" lengthAdjust="spacing" textLength="5.4" x="455.1" y="101.4996">3</text><text fill="#000000" font-family="sans-serif" font-size="7.8" lengthAdjust="spacing" textLength="61.8" x="462.9" y="101.4996">allJobOpenings()</text><polygon fill="#181818" points="714.3,119.5313,720.3,121.9312,714.3,124.3313,716.7,121.9312" style="stroke:#181818;stroke-width:0.6;"/><line style="stroke:#181818;stroke-width:0.6;" x1="622.2" x2="717.9" y1="121.9312" y2="121.9312"/><text fill="#000000" font-family="sans-serif" font-size="7.8" font-weight="bold" lengthAdjust="spacing" textLength="5.4" x="626.4" y="119.0859">4</text><text fill="#000000" font-family="sans-serif" font-size="7.8" lengthAdjust="spacing" textLength="61.8" x="634.2" y="119.0859">allJobOpenings()</text><polygon fill="#181818" points="811.2,137.1176,817.2,139.5176,811.2,141.9176,813.6,139.5176" style="stroke:#181818;stroke-width:0.6;"/><line style="stroke:#181818;stroke-width:0.6;" x1="727.5" x2="814.8" y1="139.5176" y2="139.5176"/><text fill="#000000" font-family="sans-serif" font-size="7.8" font-weight="bold" lengthAdjust="spacing" textLength="5.4" x="731.7" y="136.6723">5</text><text fill="#000000" font-family="sans-serif" font-size="7.8" lengthAdjust="spacing" textLength="30" x="739.5" y="136.6723">findAll()</text><polygon fill="#181818" points="734.1,154.7039,728.1,157.1039,734.1,159.5039,731.7,157.1039" style="stroke:#181818;stroke-width:0.6;"/><line style="stroke:#181818;stroke-width:0.6;stroke-dasharray:2.0,2.0;" x1="730.5" x2="820.8" y1="157.1039" y2="157.1039"/><text fill="#000000" font-family="sans-serif" font-size="7.8" font-weight="bold" lengthAdjust="spacing" textLength="5.4" x="737.7" y="154.2586">6</text><text fill="#000000" font-family="sans-serif" font-size="7.8" lengthAdjust="spacing" textLength="61.8" x="745.5" y="154.2586">all Job Openings</text><polygon fill="#181818" points="628.8,172.2902,622.8,174.6902,628.8,177.0902,626.4,174.6902" style="stroke:#181818;stroke-width:0.6;"/><line style="stroke:#181818;stroke-width:0.6;stroke-dasharray:2.0,2.0;" x1="625.2" x2="723.9" y1="174.6902" y2="174.6902"/><text fill="#000000" font-family="sans-serif" font-size="7.8" font-weight="bold" lengthAdjust="spacing" textLength="5.4" x="632.4" y="171.8449">7</text><text fill="#000000" font-family="sans-serif" font-size="7.8" lengthAdjust="spacing" textLength="61.8" x="640.2" y="171.8449">all Job Openings</text><polygon fill="#181818" points="457.5,189.8766,451.5,192.2766,457.5,194.6766,455.1,192.2766" style="stroke:#181818;stroke-width:0.6;"/><line style="stroke:#181818;stroke-width:0.6;" x1="453.9" x2="618.6" y1="192.2766" y2="192.2766"/><text fill="#000000" font-family="sans-serif" font-size="7.8" font-weight="bold" lengthAdjust="spacing" textLength="5.4" x="461.1" y="189.4313">8</text><text fill="#000000" font-family="sans-serif" font-size="7.8" lengthAdjust="spacing" textLength="61.8" x="468.9" y="189.4313">all Job Openings</text><polygon fill="#181818" points="273.6,207.4629,267.6,209.8629,273.6,212.2629,271.2,209.8629" style="stroke:#181818;stroke-width:0.6;"/><line style="stroke:#181818;stroke-width:0.6;stroke-dasharray:2.0,2.0;" x1="270" x2="447.3" y1="209.8629" y2="209.8629"/><text fill="#000000" font-family="sans-serif" font-size="7.8" font-weight="bold" lengthAdjust="spacing" textLength="5.4" x="277.2" y="207.0176">9</text><text fill="#000000" font-family="sans-serif" font-size="7.8" lengthAdjust="spacing" textLength="123.6" x="285" y="207.0176">job Openings With Requirements</text><polygon fill="#181818" points="33,234.2355,27,236.6355,33,239.0355,30.6,236.6355" style="stroke:#181818;stroke-width:0.6;"/><line style="stroke:#181818;stroke-width:0.6;stroke-dasharray:2.0,2.0;" x1="29.4" x2="263.4" y1="236.6355" y2="236.6355"/><text fill="#000000" font-family="sans-serif" font-size="7.8" font-weight="bold" lengthAdjust="spacing" textLength="10.8" x="36.6" y="229.1971">10</text><text fill="#000000" font-family="sans-serif" font-size="7.8" lengthAdjust="spacing" textLength="138.6" x="49.8" y="224.6039">lists job openings with requirements</text><text fill="#000000" font-family="sans-serif" font-size="7.8" lengthAdjust="spacing" textLength="84.6" x="52.2" y="233.7902">and asks to select one</text><polygon fill="#181818" points="253.8,251.8219,259.8,254.2219,253.8,256.6219,256.2,254.2219" style="stroke:#181818;stroke-width:0.6;"/><line style="stroke:#181818;stroke-width:0.6;" x1="26.4" x2="257.4" y1="254.2219" y2="254.2219"/><text fill="#000000" font-family="sans-serif" font-size="7.8" font-weight="bold" lengthAdjust="spacing" textLength="10.8" x="30.6" y="251.3766">11</text><text fill="#000000" font-family="sans-serif" font-size="7.8" lengthAdjust="spacing" textLength="75" x="43.8" y="251.3766">selects job Opening</text><polygon fill="#181818" points="947.1,269.4082,953.1,271.8082,947.1,274.2082,949.5,271.8082" style="stroke:#181818;stroke-width:0.6;"/><line style="stroke:#181818;stroke-width:0.6;" x1="267" x2="950.7" y1="271.8082" y2="271.8082"/><text fill="#000000" font-family="sans-serif" font-size="7.8" font-weight="bold" lengthAdjust="spacing" textLength="10.8" x="271.2" y="268.9629">12</text><text fill="#000000" font-family="sans-serif" font-size="7.8" lengthAdjust="spacing" textLength="173.4" x="284.4" y="268.9629">showApplicationsOfJobOpening(jobReference)</text><line style="stroke:#181818;stroke-width:0.6;" x1="960.3" x2="988.5" y1="286.3945" y2="286.3945"/><line style="stroke:#181818;stroke-width:0.6;" x1="988.5" x2="988.5" y1="286.3945" y2="294.1945"/><line style="stroke:#181818;stroke-width:0.6;" x1="963.9" x2="988.5" y1="294.1945" y2="294.1945"/><polygon fill="#181818" points="969.9,291.7945,963.9,294.1945,969.9,296.5945,967.5,294.1945" style="stroke:#181818;stroke-width:0.6;"/><text fill="#000000" font-family="sans-serif" font-size="7.8" font-weight="bold" lengthAdjust="spacing" textLength="10.8" x="967.5" y="283.5492">13</text><text fill="#000000" font-family="sans-serif" font-size="7.8" lengthAdjust="spacing" textLength="162.6" x="980.7" y="283.5492">allApplicationsOfJobOpening(jobReference)</text><polygon fill="#181818" points="1137.3,312.3809,1143.3,314.7809,1137.3,317.1809,1139.7,314.7809" style="stroke:#181818;stroke-width:0.6;"/><line style="stroke:#181818;stroke-width:0.6;" x1="963.3" x2="1140.9" y1="314.7809" y2="314.7809"/><text fill="#000000" font-family="sans-serif" font-size="7.8" font-weight="bold" lengthAdjust="spacing" textLength="10.8" x="967.5" y="311.9355">14</text><text fill="#000000" font-family="sans-serif" font-size="7.8" lengthAdjust="spacing" textLength="61.2" x="980.7" y="311.9355">allApplications()</text><polygon fill="#181818" points="1410,329.9672,1416,332.3672,1410,334.7672,1412.4,332.3672" style="stroke:#181818;stroke-width:0.6;"/><line style="stroke:#181818;stroke-width:0.6;" x1="1150.5" x2="1413.6" y1="332.3672" y2="332.3672"/><text fill="#000000" font-family="sans-serif" font-size="7.8" font-weight="bold" lengthAdjust="spacing" textLength="10.8" x="1154.7" y="329.5219">15</text><text fill="#000000" font-family="sans-serif" font-size="7.8" lengthAdjust="spacing" textLength="61.2" x="1167.9" y="329.5219">allApplications()</text><polygon fill="#181818" points="1157.1,347.5535,1151.1,349.9535,1157.1,352.3535,1154.7,349.9535" style="stroke:#181818;stroke-width:0.6;"/><line style="stroke:#181818;stroke-width:0.6;stroke-dasharray:2.0,2.0;" x1="1153.5" x2="1419.6" y1="349.9535" y2="349.9535"/><text fill="#000000" font-family="sans-serif" font-size="7.8" font-weight="bold" lengthAdjust="spacing" textLength="10.8" x="1160.7" y="347.1082">16</text><text fill="#000000" font-family="sans-serif" font-size="7.8" lengthAdjust="spacing" textLength="56.4" x="1173.9" y="347.1082">allApplications</text><polygon fill="#181818" points="966.9,365.1398,960.9,367.5398,966.9,369.9398,964.5,367.5398" style="stroke:#181818;stroke-width:0.6;"/><line style="stroke:#181818;stroke-width:0.6;stroke-dasharray:2.0,2.0;" x1="963.3" x2="1146.9" y1="367.5398" y2="367.5398"/><text fill="#000000" font-family="sans-serif" font-size="7.8" font-weight="bold" lengthAdjust="spacing" textLength="10.8" x="970.5" y="364.6945">17</text><text fill="#000000" font-family="sans-serif" font-size="7.8" lengthAdjust="spacing" textLength="118.8" x="983.7" y="364.6945">all Applications Of Job Opening</text><polygon fill="#181818" points="273.6,382.7262,267.6,385.1262,273.6,387.5262,271.2,385.1262" style="stroke:#181818;stroke-width:0.6;"/><line style="stroke:#181818;stroke-width:0.6;stroke-dasharray:2.0,2.0;" x1="270" x2="956.7" y1="385.1262" y2="385.1262"/><text fill="#000000" font-family="sans-serif" font-size="7.8" font-weight="bold" lengthAdjust="spacing" textLength="10.8" x="277.2" y="382.2809">18</text><text fill="#000000" font-family="sans-serif" font-size="7.8" lengthAdjust="spacing" textLength="106.2" x="290.4" y="382.2809">applications Of Job Opening</text><polygon fill="#181818" points="33,409.4988,27,411.8988,33,414.2988,30.6,411.8988" style="stroke:#181818;stroke-width:0.6;"/><line style="stroke:#181818;stroke-width:0.6;stroke-dasharray:2.0,2.0;" x1="29.4" x2="263.4" y1="411.8988" y2="411.8988"/><text fill="#000000" font-family="sans-serif" font-size="7.8" font-weight="bold" lengthAdjust="spacing" textLength="10.8" x="36.6" y="404.4604">19</text><text fill="#000000" font-family="sans-serif" font-size="7.8" lengthAdjust="spacing" textLength="139.8" x="49.8" y="399.8672">lists applications of that job opening</text><text fill="#000000" font-family="sans-serif" font-size="7.8" lengthAdjust="spacing" textLength="84.6" x="52.2" y="409.0535">and asks to select one</text><polygon fill="#181818" points="253.8,427.0852,259.8,429.4852,253.8,431.8852,256.2,429.4852" style="stroke:#181818;stroke-width:0.6;"/><line style="stroke:#181818;stroke-width:0.6;" x1="26.4" x2="257.4" y1="429.4852" y2="429.4852"/><text fill="#000000" font-family="sans-serif" font-size="7.8" font-weight="bold" lengthAdjust="spacing" textLength="10.8" x="30.6" y="426.6398">20</text><text fill="#000000" font-family="sans-serif" font-size="7.8" lengthAdjust="spacing" textLength="70.8" x="43.8" y="426.6398">selects application</text><polygon fill="#181818" points="33,444.6715,27,447.0715,33,449.4715,30.6,447.0715" style="stroke:#181818;stroke-width:0.6;"/><line style="stroke:#181818;stroke-width:0.6;stroke-dasharray:2.0,2.0;" x1="29.4" x2="263.4" y1="447.0715" y2="447.0715"/><text fill="#000000" font-family="sans-serif" font-size="7.8" font-weight="bold" lengthAdjust="spacing" textLength="10.8" x="36.6" y="444.2262">21</text><text fill="#000000" font-family="sans-serif" font-size="7.8" lengthAdjust="spacing" textLength="207" x="49.8" y="444.2262">asks to enter the path to the file with the requirements</text><polygon fill="#181818" points="253.8,462.2578,259.8,464.6578,253.8,467.0578,256.2,464.6578" style="stroke:#181818;stroke-width:0.6;"/><line style="stroke:#181818;stroke-width:0.6;" x1="26.4" x2="257.4" y1="464.6578" y2="464.6578"/><text fill="#000000" font-family="sans-serif" font-size="7.8" font-weight="bold" lengthAdjust="spacing" textLength="10.8" x="30.6" y="461.8125">22</text><text fill="#000000" font-family="sans-serif" font-size="7.8" lengthAdjust="spacing" textLength="57" x="43.8" y="461.8125">enters the path</text><polygon fill="#181818" points="1271.1,479.8441,1277.1,482.2441,1271.1,484.6441,1273.5,482.2441" style="stroke:#181818;stroke-width:0.6;"/><line style="stroke:#181818;stroke-width:0.6;" x1="267" x2="1274.7" y1="482.2441" y2="482.2441"/><text fill="#000000" font-family="sans-serif" font-size="7.8" font-weight="bold" lengthAdjust="spacing" textLength="10.8" x="271.2" y="479.3988">23</text><text fill="#000000" font-family="sans-serif" font-size="7.8" lengthAdjust="spacing" textLength="137.4" x="284.4" y="479.3988">retrieveResponseRequirements(path)</text><polygon fill="#181818" points="1466.1,497.4305,1472.1,499.8305,1466.1,502.2305,1468.5,499.8305" style="stroke:#181818;stroke-width:0.6;"/><line style="stroke:#181818;stroke-width:0.6;" x1="1284.3" x2="1469.7" y1="499.8305" y2="499.8305"/><text fill="#000000" font-family="sans-serif" font-size="7.8" font-weight="bold" lengthAdjust="spacing" textLength="10.8" x="1288.5" y="496.9852">24</text><text fill="#000000" font-family="sans-serif" font-size="7.8" lengthAdjust="spacing" textLength="22.8" x="1301.7" y="496.9852">create</text><rect fill="#E2E2F0" height="28.1859" rx="1.5" ry="1.5" style="stroke:#181818;stroke-width:0.3;" width="91.2" x="1473.3" y="487.0441"/><text fill="#000000" font-family="sans-serif" font-size="8.4" font-style="italic" lengthAdjust="spacing" textLength="34.8" x="1501.5" y="499.3652">&#171;plugin&#187;</text><text fill="#000000" font-family="sans-serif" font-size="8.4" lengthAdjust="spacing" textLength="82.8" x="1477.5" y="509.2582">RequirementsPlugin</text><polygon fill="#181818" points="1508.7,532.2164,1514.7,534.6164,1508.7,537.0164,1511.1,534.6164" style="stroke:#181818;stroke-width:0.6;"/><line style="stroke:#181818;stroke-width:0.6;" x1="1284.3" x2="1512.3" y1="534.6164" y2="534.6164"/><text fill="#000000" font-family="sans-serif" font-size="7.8" font-weight="bold" lengthAdjust="spacing" textLength="10.8" x="1288.5" y="531.7711">25</text><text fill="#000000" font-family="sans-serif" font-size="7.8" lengthAdjust="spacing" textLength="133.2" x="1301.7" y="531.7711">retrieveAnswersRequirements(path)</text><polygon fill="#181818" points="1290.9,549.8027,1284.9,552.2027,1290.9,554.6027,1288.5,552.2027" style="stroke:#181818;stroke-width:0.6;"/><line style="stroke:#181818;stroke-width:0.6;stroke-dasharray:2.0,2.0;" x1="1287.3" x2="1518.3" y1="552.2027" y2="552.2027"/><text fill="#000000" font-family="sans-serif" font-size="7.8" font-weight="bold" lengthAdjust="spacing" textLength="10.8" x="1294.5" y="549.3574">26</text><text fill="#000000" font-family="sans-serif" font-size="7.8" lengthAdjust="spacing" textLength="138.6" x="1307.7" y="549.3574">List&lt;String&gt; candidateRequirements</text><polygon fill="#181818" points="273.6,567.3891,267.6,569.7891,273.6,572.1891,271.2,569.7891" style="stroke:#181818;stroke-width:0.6;"/><line style="stroke:#181818;stroke-width:0.6;stroke-dasharray:2.0,2.0;" x1="270" x2="1280.7" y1="569.7891" y2="569.7891"/><text fill="#000000" font-family="sans-serif" font-size="7.8" font-weight="bold" lengthAdjust="spacing" textLength="10.8" x="277.2" y="566.9438">27</text><text fill="#000000" font-family="sans-serif" font-size="7.8" lengthAdjust="spacing" textLength="138.6" x="290.4" y="566.9438">List&lt;String&gt; candidateRequirements</text><polygon fill="#181818" points="1271.1,584.9754,1277.1,587.3754,1271.1,589.7754,1273.5,587.3754" style="stroke:#181818;stroke-width:0.6;"/><line style="stroke:#181818;stroke-width:0.6;" x1="267" x2="1274.7" y1="587.3754" y2="587.3754"/><text fill="#000000" font-family="sans-serif" font-size="7.8" font-weight="bold" lengthAdjust="spacing" textLength="10.8" x="271.2" y="584.5301">28</text><text fill="#000000" font-family="sans-serif" font-size="7.8" lengthAdjust="spacing" textLength="217.2" x="284.4" y="584.5301">uploadRequirements(candidateRequirements, application)</text><polygon fill="#181818" points="1563.3,602.5617,1569.3,604.9617,1563.3,607.3617,1565.7,604.9617" style="stroke:#181818;stroke-width:0.6;"/><line style="stroke:#181818;stroke-width:0.6;" x1="1284.3" x2="1566.9" y1="604.9617" y2="604.9617"/><text fill="#000000" font-family="sans-serif" font-size="7.8" font-weight="bold" lengthAdjust="spacing" textLength="10.8" x="1288.5" y="602.1164">29</text><text fill="#000000" font-family="sans-serif" font-size="7.8" lengthAdjust="spacing" textLength="161.4" x="1301.7" y="602.1164">new CandidateRequirements(requirements)</text><rect fill="#E2E2F0" height="28.1859" rx="1.5" ry="1.5" style="stroke:#181818;stroke-width:0.3;" width="114" x="1570.5" y="592.1754"/><text fill="#000000" font-family="sans-serif" font-size="8.4" font-style="italic" lengthAdjust="spacing" textLength="105.6" x="1574.7" y="604.4965">&#171;candidateRequirements&#187;</text><text fill="#000000" font-family="sans-serif" font-size="8.4" lengthAdjust="spacing" textLength="99" x="1578" y="614.3895">CandidateRequirements</text><polygon fill="#181818" points="1290.9,637.3477,1284.9,639.7477,1290.9,642.1477,1288.5,639.7477" style="stroke:#181818;stroke-width:0.6;"/><line style="stroke:#181818;stroke-width:0.6;stroke-dasharray:2.0,2.0;" x1="1287.3" x2="1626.9" y1="639.7477" y2="639.7477"/><text fill="#000000" font-family="sans-serif" font-size="7.8" font-weight="bold" lengthAdjust="spacing" textLength="10.8" x="1294.5" y="636.9023">30</text><text fill="#000000" font-family="sans-serif" font-size="7.8" lengthAdjust="spacing" textLength="90.6" x="1307.7" y="636.9023">candidate Requirements</text><polygon fill="#181818" points="1711.5,654.934,1717.5,657.334,1711.5,659.734,1713.9,657.334" style="stroke:#181818;stroke-width:0.6;"/><line style="stroke:#181818;stroke-width:0.6;" x1="1284.3" x2="1715.1" y1="657.334" y2="657.334"/><text fill="#000000" font-family="sans-serif" font-size="7.8" font-weight="bold" lengthAdjust="spacing" textLength="10.8" x="1288.5" y="654.4887">31</text><text fill="#000000" font-family="sans-serif" font-size="7.8" lengthAdjust="spacing" textLength="208.2" x="1301.7" y="654.4887">uploadCandidateRequirements(candidateRequirements)</text><polygon fill="#181818" points="1290.9,672.5203,1284.9,674.9203,1290.9,677.3203,1288.5,674.9203" style="stroke:#181818;stroke-width:0.6;"/><line style="stroke:#181818;stroke-width:0.6;stroke-dasharray:2.0,2.0;" x1="1287.3" x2="1721.1" y1="674.9203" y2="674.9203"/><text fill="#000000" font-family="sans-serif" font-size="7.8" font-weight="bold" lengthAdjust="spacing" textLength="10.8" x="1294.5" y="672.075">32</text><text fill="#000000" font-family="sans-serif" font-size="7.8" lengthAdjust="spacing" textLength="42" x="1307.7" y="672.075">application</text><polygon fill="#181818" points="1410,690.1066,1416,692.5066,1410,694.9066,1412.4,692.5066" style="stroke:#181818;stroke-width:0.6;"/><line style="stroke:#181818;stroke-width:0.6;" x1="1284.3" x2="1413.6" y1="692.5066" y2="692.5066"/><text fill="#000000" font-family="sans-serif" font-size="7.8" font-weight="bold" lengthAdjust="spacing" textLength="10.8" x="1288.5" y="689.6613">33</text><text fill="#000000" font-family="sans-serif" font-size="7.8" lengthAdjust="spacing" textLength="63.6" x="1301.7" y="689.6613">save(application)</text><polygon fill="#181818" points="1290.9,707.693,1284.9,710.093,1290.9,712.493,1288.5,710.093" style="stroke:#181818;stroke-width:0.6;"/><line style="stroke:#181818;stroke-width:0.6;stroke-dasharray:2.0,2.0;" x1="1287.3" x2="1419.6" y1="710.093" y2="710.093"/><text fill="#000000" font-family="sans-serif" font-size="7.8" font-weight="bold" lengthAdjust="spacing" textLength="10.8" x="1294.5" y="707.2477">34</text><text fill="#000000" font-family="sans-serif" font-size="7.8" lengthAdjust="spacing" textLength="15" x="1307.7" y="707.2477">true</text><polygon fill="#181818" points="273.6,725.2793,267.6,727.6793,273.6,730.0793,271.2,727.6793" style="stroke:#181818;stroke-width:0.6;"/><line style="stroke:#181818;stroke-width:0.6;stroke-dasharray:2.0,2.0;" x1="270" x2="1280.7" y1="727.6793" y2="727.6793"/><text fill="#000000" font-family="sans-serif" font-size="7.8" font-weight="bold" lengthAdjust="spacing" textLength="10.8" x="277.2" y="724.834">35</text><text fill="#000000" font-family="sans-serif" font-size="7.8" lengthAdjust="spacing" textLength="42" x="290.4" y="724.834">application</text><polygon fill="#181818" points="30,742.8656,24,745.2656,30,747.6656,27.6,745.2656" style="stroke:#181818;stroke-width:0.6;"/><line style="stroke:#181818;stroke-width:0.6;stroke-dasharray:2.0,2.0;" x1="26.4" x2="263.4" y1="745.2656" y2="745.2656"/><text fill="#000000" font-family="sans-serif" font-size="7.8" font-weight="bold" lengthAdjust="spacing" textLength="10.8" x="33.6" y="742.4203">36</text><text fill="#000000" font-family="sans-serif" font-size="7.8" lengthAdjust="spacing" textLength="102" x="46.8" y="742.4203">displays operation success</text><!--SRC=[nPZDRjim3CVlVWeTis9vWQ08KFGmR1YGeLsnoowgpJJgNDcJv0Hz-r7ER4knP5Dfklda3udyaQB-fiqRKydcvH5Kbl7SL8fjQb0SJxAivig8NDHS6lPGbnKlxk1t8nIyW3JwHke3AFtmcLrVrmeqtkD6L7AzzYP-0cdjGM3gTtYfItnqMqcZgh84XQRo_kB4q5UXpPVg4V6aa4-qESFuUr1xaGCEriSp75bmmn-v1eR7CF8EwaeBJC0h3bRznIJDJLsN8c_3rpGoPqO8ZPJwkAS-CiSDBIxNpRUoUHBIBczxSZBobij252ShQq52zt5kB7oSmeShEz0MejYZ1QSMxHfrLsovdgp75UFwbsQcOaqxYfaTCELILbk6bAn7RSttNYTi7q7iCGM0V6bbls9R8OkRiXnAIlyGPeUNhe75Xzvz3vlaQC2tHneZ1XNTWfXnZzq1zM1Z1dmkUqHT8SPuLy_uznX6iyVEVK7ed7YUdTtKBrx0QyJpC3liFAf8otZuzZxh4X2qMi0PA84yp5R2D4eG8xeMKuMGkiacqHmiMfacRfzPqNfso9ZT_PuOPm7EC_V-f7GXPg-pArPY9dHBLdLa1qlcgUbFsQff9xeQIiWDg-HHLXtUMM6bA_pHYNQJTdaH9xtaaMLN7To7c-qmQV5i9NmB2cGE0VcckF3BZWH5XySzaSZ-HlwK609TqeXuIkl7yyCY5_3ZU_VaVXuW1a7H_R3N9J4RSyAV01DAIb9TkHOqssnTxSreZDsgaOJwShjdli4aH7OsPx8-UpJOsveTDwve_rU5Tk0khT1-BhheS12keUtvQuwlAhnZpxUYXEExw_Hhu1rpqABedkNoRoZAj-4AepLAm1xx15rZYNZzmiA21LvC1Cl-pgAW8F7u0_Fg2X5p1Trts9iDEX7_dJ4Hi1VqsDPO6WF-bkILi49mVOziycdDWb_ACQcRGoDbQxPW4_WeEoPPtQXvR4QZ5a7QZwxy_CCg3_uSQGjTmY7yTE5gKgG-WnF79Hh-DKElqZwLZ5AP12XYrjo_GjqQXtCLNEn8qXohurIvBka9EdsdJJSnRys5rtngleT5iAZFQJhZpIOj4KOra9tVQbv6j4AhyIxgvFSRXT3uYVsgRPUbZXMacpm7dTPHEEFwtvr_0000]--></g></svg>