<?xml version="1.0" encoding="us-ascii" standalone="no"?><svg xmlns="http://www.w3.org/2000/svg" xmlns:xlink="http://www.w3.org/1999/xlink" contentStyleType="text/css" height="1238px" preserveAspectRatio="none" style="width:2932px;height:1238px;background:#FFFFFF;" version="1.1" viewBox="0 0 2932 1238" width="2932px" zoomAndPan="magnify"><defs/><g><rect fill="#FFFFFF" height="1031.5352" style="stroke:#181818;stroke-width:1.0;" width="10" x="34" y="93.9766"/><rect fill="#FFFFFF" height="279.1055" style="stroke:#181818;stroke-width:1.0;" width="10" x="435" y="115.2871"/><rect fill="#FFFFFF" height="262.7949" style="stroke:#181818;stroke-width:1.0;" width="10" x="435" y="423.7031"/><rect fill="#FFFFFF" height="29.3105" style="stroke:#181818;stroke-width:1.0;" width="10" x="435" y="715.8086"/><rect fill="#FFFFFF" height="351.082" style="stroke:#181818;stroke-width:1.0;" width="10" x="435" y="774.4297"/><rect fill="#FFFFFF" height="205.1738" style="stroke:#181818;stroke-width:1.0;" width="10" x="741.5" y="144.5977"/><rect fill="#FFFFFF" height="146.5527" style="stroke:#181818;stroke-width:1.0;" width="10" x="1027" y="173.9082"/><rect fill="#FFFFFF" height="87.9316" style="stroke:#181818;stroke-width:1.0;" width="10" x="1202.5" y="203.2188"/><rect fill="#FFFFFF" height="29.3105" style="stroke:#181818;stroke-width:1.0;" width="10" x="1364" y="232.5293"/><rect fill="#FFFFFF" height="188.8633" style="stroke:#181818;stroke-width:1.0;" width="10" x="1590.5" y="453.0137"/><rect fill="#FFFFFF" height="122.2422" style="stroke:#181818;stroke-width:1.0;" width="10" x="1595.5" y="490.3242"/><rect fill="#FFFFFF" height="87.9316" style="stroke:#181818;stroke-width:1.0;" width="10" x="1907.5" y="524.6348"/><rect fill="#FFFFFF" height="29.3105" style="stroke:#181818;stroke-width:1.0;" width="10" x="2130.5" y="803.7402"/><rect fill="#FFFFFF" height="233.8398" style="stroke:#181818;stroke-width:1.0;" width="10" x="2130.5" y="862.3613"/><rect fill="#FFFFFF" height="47.9766" style="stroke:#181818;stroke-width:1.0;" width="10" x="2545.5" y="901.6719"/><rect fill="#FFFFFF" height="29.3105" style="stroke:#181818;stroke-width:1.0;" width="10" x="2729" y="553.9453"/><rect fill="#FFFFFF" height="29.3105" style="stroke:#181818;stroke-width:1.0;" width="10" x="2729" y="1037.5801"/><rect fill="#FFFFFF" height="29.3105" style="stroke:#181818;stroke-width:1.0;" width="10" x="2869.5" y="978.959"/><line style="stroke:#181818;stroke-width:0.5;stroke-dasharray:5.0,5.0;" x1="39" x2="39" y1="83.9766" y2="1143.5117"/><line style="stroke:#181818;stroke-width:0.5;stroke-dasharray:5.0,5.0;" x1="440" x2="440" y1="83.9766" y2="1143.5117"/><line style="stroke:#181818;stroke-width:0.5;stroke-dasharray:5.0,5.0;" x1="746" x2="746" y1="83.9766" y2="1143.5117"/><line style="stroke:#181818;stroke-width:0.5;stroke-dasharray:5.0,5.0;" x1="1032" x2="1032" y1="83.9766" y2="1143.5117"/><line style="stroke:#181818;stroke-width:0.5;stroke-dasharray:5.0,5.0;" x1="1207" x2="1207" y1="83.9766" y2="1143.5117"/><line style="stroke:#181818;stroke-width:0.5;stroke-dasharray:5.0,5.0;" x1="1369" x2="1369" y1="83.9766" y2="1143.5117"/><line style="stroke:#181818;stroke-width:0.5;stroke-dasharray:5.0,5.0;" x1="1595" x2="1595" y1="83.9766" y2="1143.5117"/><line style="stroke:#181818;stroke-width:0.5;stroke-dasharray:5.0,5.0;" x1="1912.5" x2="1912.5" y1="83.9766" y2="1143.5117"/><line style="stroke:#181818;stroke-width:0.5;stroke-dasharray:5.0,5.0;" x1="2135.5" x2="2135.5" y1="83.9766" y2="1143.5117"/><line style="stroke:#181818;stroke-width:0.5;stroke-dasharray:5.0,5.0;" x1="2550.5" x2="2550.5" y1="909.3496" y2="1143.5117"/><line style="stroke:#181818;stroke-width:0.5;stroke-dasharray:5.0,5.0;" x1="2733.5" x2="2733.5" y1="83.9766" y2="1143.5117"/><line style="stroke:#181818;stroke-width:0.5;stroke-dasharray:5.0,5.0;" x1="2874.5" x2="2874.5" y1="83.9766" y2="1143.5117"/><text fill="#000000" font-family="sans-serif" font-size="14" lengthAdjust="spacing" textLength="62" x="5" y="81.0234">Operator</text><ellipse cx="39" cy="15.9883" fill="#E2E2F0" rx="8" ry="8" style="stroke:#181818;stroke-width:0.5;"/><path d="M39,23.9883 L39,50.9883 M26,31.9883 L52,31.9883 M39,50.9883 L26,65.9883 M39,50.9883 L52,65.9883 " fill="none" style="stroke:#181818;stroke-width:0.5;"/><text fill="#000000" font-family="sans-serif" font-size="14" lengthAdjust="spacing" textLength="62" x="5" y="1156.0469">Operator</text><ellipse cx="39" cy="1167.5" fill="#E2E2F0" rx="8" ry="8" style="stroke:#181818;stroke-width:0.5;"/><path d="M39,1175.5 L39,1202.5 M26,1183.5 L52,1183.5 M39,1202.5 L26,1217.5 M39,1202.5 L52,1217.5 " fill="none" style="stroke:#181818;stroke-width:0.5;"/><rect fill="#E2E2F0" height="46.9766" rx="2.5" ry="2.5" style="stroke:#181818;stroke-width:0.5;" width="230" x="325" y="36"/><text fill="#000000" font-family="sans-serif" font-size="14" font-style="italic" lengthAdjust="spacing" textLength="101" x="389.5" y="56.5352">&#171;presentation&#187;</text><text fill="#000000" font-family="sans-serif" font-size="14" lengthAdjust="spacing" textLength="216" x="332" y="73.0234">UploadRequirementsAnswersUI</text><rect fill="#E2E2F0" height="46.9766" rx="2.5" ry="2.5" style="stroke:#181818;stroke-width:0.5;" width="230" x="325" y="1142.5117"/><text fill="#000000" font-family="sans-serif" font-size="14" font-style="italic" lengthAdjust="spacing" textLength="101" x="389.5" y="1163.0469">&#171;presentation&#187;</text><text fill="#000000" font-family="sans-serif" font-size="14" lengthAdjust="spacing" textLength="216" x="332" y="1179.5352">UploadRequirementsAnswersUI</text><rect fill="#E2E2F0" height="46.9766" rx="2.5" ry="2.5" style="stroke:#181818;stroke-width:0.5;" width="363" x="565" y="36"/><text fill="#000000" font-family="sans-serif" font-size="14" font-style="italic" lengthAdjust="spacing" textLength="81" x="706" y="56.5352">&#171;controller&#187;</text><text fill="#000000" font-family="sans-serif" font-size="14" lengthAdjust="spacing" textLength="349" x="572" y="73.0234">GenerateRequirementsAnswersTemplateController</text><rect fill="#E2E2F0" height="46.9766" rx="2.5" ry="2.5" style="stroke:#181818;stroke-width:0.5;" width="363" x="565" y="1142.5117"/><text fill="#000000" font-family="sans-serif" font-size="14" font-style="italic" lengthAdjust="spacing" textLength="81" x="706" y="1163.0469">&#171;controller&#187;</text><text fill="#000000" font-family="sans-serif" font-size="14" lengthAdjust="spacing" textLength="349" x="572" y="1179.5352">GenerateRequirementsAnswersTemplateController</text><rect fill="#E2E2F0" height="46.9766" rx="2.5" ry="2.5" style="stroke:#181818;stroke-width:0.5;" width="188" x="938" y="36"/><text fill="#000000" font-family="sans-serif" font-size="14" font-style="italic" lengthAdjust="spacing" textLength="81" x="991.5" y="56.5352">&#171;controller&#187;</text><text fill="#000000" font-family="sans-serif" font-size="14" lengthAdjust="spacing" textLength="174" x="945" y="73.0234">ListJobOpeningController</text><rect fill="#E2E2F0" height="46.9766" rx="2.5" ry="2.5" style="stroke:#181818;stroke-width:0.5;" width="188" x="938" y="1142.5117"/><text fill="#000000" font-family="sans-serif" font-size="14" font-style="italic" lengthAdjust="spacing" textLength="81" x="991.5" y="1163.0469">&#171;controller&#187;</text><text fill="#000000" font-family="sans-serif" font-size="14" lengthAdjust="spacing" textLength="174" x="945" y="1179.5352">ListJobOpeningController</text><rect fill="#E2E2F0" height="46.9766" rx="2.5" ry="2.5" style="stroke:#181818;stroke-width:0.5;" width="143" x="1136" y="36"/><text fill="#000000" font-family="sans-serif" font-size="14" font-style="italic" lengthAdjust="spacing" textLength="61" x="1177" y="56.5352">&#171;service&#187;</text><text fill="#000000" font-family="sans-serif" font-size="14" lengthAdjust="spacing" textLength="129" x="1143" y="73.0234">JobOpeningService</text><rect fill="#E2E2F0" height="46.9766" rx="2.5" ry="2.5" style="stroke:#181818;stroke-width:0.5;" width="143" x="1136" y="1142.5117"/><text fill="#000000" font-family="sans-serif" font-size="14" font-style="italic" lengthAdjust="spacing" textLength="61" x="1177" y="1163.0469">&#171;service&#187;</text><text fill="#000000" font-family="sans-serif" font-size="14" lengthAdjust="spacing" textLength="129" x="1143" y="1179.5352">JobOpeningService</text><text fill="#000000" font-family="sans-serif" font-size="14" font-style="italic" lengthAdjust="spacing" textLength="84" x="1324" y="64.5352">&#171;repository&#187;</text><text fill="#000000" font-family="sans-serif" font-size="14" lengthAdjust="spacing" textLength="154" x="1289" y="81.0234">JobOpeningRepository</text><path d="M1351,15 C1351,5 1369,5 1369,5 C1369,5 1387,5 1387,15 L1387,41 C1387,51 1369,51 1369,51 C1369,51 1351,51 1351,41 L1351,15 " fill="#E2E2F0" style="stroke:#181818;stroke-width:1.5;"/><path d="M1351,15 C1351,25 1369,25 1369,25 C1369,25 1387,25 1387,15 " fill="none" style="stroke:#181818;stroke-width:1.5;"/><text fill="#000000" font-family="sans-serif" font-size="14" font-style="italic" lengthAdjust="spacing" textLength="84" x="1324" y="1156.0469">&#171;repository&#187;</text><text fill="#000000" font-family="sans-serif" font-size="14" lengthAdjust="spacing" textLength="154" x="1289" y="1172.5352">JobOpeningRepository</text><path d="M1351,1185.4883 C1351,1175.4883 1369,1175.4883 1369,1175.4883 C1369,1175.4883 1387,1175.4883 1387,1185.4883 L1387,1211.4883 C1387,1221.4883 1369,1221.4883 1369,1221.4883 C1369,1221.4883 1351,1221.4883 1351,1211.4883 L1351,1185.4883 " fill="#E2E2F0" style="stroke:#181818;stroke-width:1.5;"/><path d="M1351,1185.4883 C1351,1195.4883 1369,1195.4883 1369,1195.4883 C1369,1195.4883 1387,1195.4883 1387,1185.4883 " fill="none" style="stroke:#181818;stroke-width:1.5;"/><rect fill="#E2E2F0" height="46.9766" rx="2.5" ry="2.5" style="stroke:#181818;stroke-width:0.5;" width="273" x="1459" y="36"/><text fill="#000000" font-family="sans-serif" font-size="14" font-style="italic" lengthAdjust="spacing" textLength="81" x="1555" y="56.5352">&#171;controller&#187;</text><text fill="#000000" font-family="sans-serif" font-size="14" lengthAdjust="spacing" textLength="259" x="1466" y="73.0234">ListJobOpeningApplicationsController</text><rect fill="#E2E2F0" height="46.9766" rx="2.5" ry="2.5" style="stroke:#181818;stroke-width:0.5;" width="273" x="1459" y="1142.5117"/><text fill="#000000" font-family="sans-serif" font-size="14" font-style="italic" lengthAdjust="spacing" textLength="81" x="1555" y="1163.0469">&#171;controller&#187;</text><text fill="#000000" font-family="sans-serif" font-size="14" lengthAdjust="spacing" textLength="259" x="1466" y="1179.5352">ListJobOpeningApplicationsController</text><rect fill="#E2E2F0" height="46.9766" rx="2.5" ry="2.5" style="stroke:#181818;stroke-width:0.5;" width="140" x="1842.5" y="36"/><text fill="#000000" font-family="sans-serif" font-size="14" font-style="italic" lengthAdjust="spacing" textLength="61" x="1882" y="56.5352">&#171;service&#187;</text><text fill="#000000" font-family="sans-serif" font-size="14" lengthAdjust="spacing" textLength="126" x="1849.5" y="73.0234">ApplicationService</text><rect fill="#E2E2F0" height="46.9766" rx="2.5" ry="2.5" style="stroke:#181818;stroke-width:0.5;" width="140" x="1842.5" y="1142.5117"/><text fill="#000000" font-family="sans-serif" font-size="14" font-style="italic" lengthAdjust="spacing" textLength="61" x="1882" y="1163.0469">&#171;service&#187;</text><text fill="#000000" font-family="sans-serif" font-size="14" lengthAdjust="spacing" textLength="126" x="1849.5" y="1179.5352">ApplicationService</text><rect fill="#E2E2F0" height="46.9766" rx="2.5" ry="2.5" style="stroke:#181818;stroke-width:0.5;" width="286" x="1992.5" y="36"/><text fill="#000000" font-family="sans-serif" font-size="14" font-style="italic" lengthAdjust="spacing" textLength="81" x="2095" y="56.5352">&#171;controller&#187;</text><text fill="#000000" font-family="sans-serif" font-size="14" lengthAdjust="spacing" textLength="272" x="1999.5" y="73.0234">UploadRequirementsAnswersController</text><rect fill="#E2E2F0" height="46.9766" rx="2.5" ry="2.5" style="stroke:#181818;stroke-width:0.5;" width="286" x="1992.5" y="1142.5117"/><text fill="#000000" font-family="sans-serif" font-size="14" font-style="italic" lengthAdjust="spacing" textLength="81" x="2095" y="1163.0469">&#171;controller&#187;</text><text fill="#000000" font-family="sans-serif" font-size="14" lengthAdjust="spacing" textLength="272" x="1999.5" y="1179.5352">UploadRequirementsAnswersController</text><rect fill="#E2E2F0" height="46.9766" rx="2.5" ry="2.5" style="stroke:#181818;stroke-width:0.5;" width="190" x="2455.5" y="1142.5117"/><text fill="#000000" font-family="sans-serif" font-size="14" font-style="italic" lengthAdjust="spacing" textLength="176" x="2462.5" y="1163.0469">&#171;candidateRequirements&#187;</text><text fill="#000000" font-family="sans-serif" font-size="14" lengthAdjust="spacing" textLength="165" x="2468" y="1179.5352">CandidateRequirements</text><text fill="#000000" font-family="sans-serif" font-size="14" font-style="italic" lengthAdjust="spacing" textLength="84" x="2689" y="64.5352">&#171;repository&#187;</text><text fill="#000000" font-family="sans-serif" font-size="14" lengthAdjust="spacing" textLength="151" x="2655.5" y="81.0234">ApplicationRepository</text><path d="M2716,15 C2716,5 2734,5 2734,5 C2734,5 2752,5 2752,15 L2752,41 C2752,51 2734,51 2734,51 C2734,51 2716,51 2716,41 L2716,15 " fill="#E2E2F0" style="stroke:#181818;stroke-width:1.5;"/><path d="M2716,15 C2716,25 2734,25 2734,25 C2734,25 2752,25 2752,15 " fill="none" style="stroke:#181818;stroke-width:1.5;"/><text fill="#000000" font-family="sans-serif" font-size="14" font-style="italic" lengthAdjust="spacing" textLength="84" x="2689" y="1156.0469">&#171;repository&#187;</text><text fill="#000000" font-family="sans-serif" font-size="14" lengthAdjust="spacing" textLength="151" x="2655.5" y="1172.5352">ApplicationRepository</text><path d="M2716,1185.4883 C2716,1175.4883 2734,1175.4883 2734,1175.4883 C2734,1175.4883 2752,1175.4883 2752,1185.4883 L2752,1211.4883 C2752,1221.4883 2734,1221.4883 2734,1221.4883 C2734,1221.4883 2716,1221.4883 2716,1211.4883 L2716,1185.4883 " fill="#E2E2F0" style="stroke:#181818;stroke-width:1.5;"/><path d="M2716,1185.4883 C2716,1195.4883 2734,1195.4883 2734,1195.4883 C2734,1195.4883 2752,1195.4883 2752,1185.4883 " fill="none" style="stroke:#181818;stroke-width:1.5;"/><rect fill="#E2E2F0" height="46.9766" rx="2.5" ry="2.5" style="stroke:#181818;stroke-width:0.5;" width="104" x="2822.5" y="36"/><text fill="#000000" font-family="sans-serif" font-size="14" font-style="italic" lengthAdjust="spacing" textLength="90" x="2829.5" y="56.5352">&#171;application&#187;</text><text fill="#000000" font-family="sans-serif" font-size="14" lengthAdjust="spacing" textLength="78" x="2835.5" y="73.0234">Application</text><rect fill="#E2E2F0" height="46.9766" rx="2.5" ry="2.5" style="stroke:#181818;stroke-width:0.5;" width="104" x="2822.5" y="1142.5117"/><text fill="#000000" font-family="sans-serif" font-size="14" font-style="italic" lengthAdjust="spacing" textLength="90" x="2829.5" y="1163.0469">&#171;application&#187;</text><text fill="#000000" font-family="sans-serif" font-size="14" lengthAdjust="spacing" textLength="78" x="2835.5" y="1179.5352">Application</text><rect fill="#FFFFFF" height="1031.5352" style="stroke:#181818;stroke-width:1.0;" width="10" x="34" y="93.9766"/><rect fill="#FFFFFF" height="279.1055" style="stroke:#181818;stroke-width:1.0;" width="10" x="435" y="115.2871"/><rect fill="#FFFFFF" height="262.7949" style="stroke:#181818;stroke-width:1.0;" width="10" x="435" y="423.7031"/><rect fill="#FFFFFF" height="29.3105" style="stroke:#181818;stroke-width:1.0;" width="10" x="435" y="715.8086"/><rect fill="#FFFFFF" height="351.082" style="stroke:#181818;stroke-width:1.0;" width="10" x="435" y="774.4297"/><rect fill="#FFFFFF" height="205.1738" style="stroke:#181818;stroke-width:1.0;" width="10" x="741.5" y="144.5977"/><rect fill="#FFFFFF" height="146.5527" style="stroke:#181818;stroke-width:1.0;" width="10" x="1027" y="173.9082"/><rect fill="#FFFFFF" height="87.9316" style="stroke:#181818;stroke-width:1.0;" width="10" x="1202.5" y="203.2188"/><rect fill="#FFFFFF" height="29.3105" style="stroke:#181818;stroke-width:1.0;" width="10" x="1364" y="232.5293"/><rect fill="#FFFFFF" height="188.8633" style="stroke:#181818;stroke-width:1.0;" width="10" x="1590.5" y="453.0137"/><rect fill="#FFFFFF" height="122.2422" style="stroke:#181818;stroke-width:1.0;" width="10" x="1595.5" y="490.3242"/><rect fill="#FFFFFF" height="87.9316" style="stroke:#181818;stroke-width:1.0;" width="10" x="1907.5" y="524.6348"/><rect fill="#FFFFFF" height="29.3105" style="stroke:#181818;stroke-width:1.0;" width="10" x="2130.5" y="803.7402"/><rect fill="#FFFFFF" height="233.8398" style="stroke:#181818;stroke-width:1.0;" width="10" x="2130.5" y="862.3613"/><rect fill="#FFFFFF" height="47.9766" style="stroke:#181818;stroke-width:1.0;" width="10" x="2545.5" y="901.6719"/><rect fill="#FFFFFF" height="29.3105" style="stroke:#181818;stroke-width:1.0;" width="10" x="2729" y="553.9453"/><rect fill="#FFFFFF" height="29.3105" style="stroke:#181818;stroke-width:1.0;" width="10" x="2729" y="1037.5801"/><rect fill="#FFFFFF" height="29.3105" style="stroke:#181818;stroke-width:1.0;" width="10" x="2869.5" y="978.959"/><polygon fill="#181818" points="423,111.2871,433,115.2871,423,119.2871,427,115.2871" style="stroke:#181818;stroke-width:1.0;"/><line style="stroke:#181818;stroke-width:1.0;" x1="44" x2="429" y1="115.2871" y2="115.2871"/><text fill="#000000" font-family="sans-serif" font-size="13" font-weight="bold" lengthAdjust="spacing" textLength="9" x="51" y="110.5449">1</text><text fill="#000000" font-family="sans-serif" font-size="13" lengthAdjust="spacing" textLength="313" x="64" y="110.5449">asks to upload the requirements of and candidate</text><polygon fill="#181818" points="729.5,140.5977,739.5,144.5977,729.5,148.5977,733.5,144.5977" style="stroke:#181818;stroke-width:1.0;"/><line style="stroke:#181818;stroke-width:1.0;" x1="445" x2="735.5" y1="144.5977" y2="144.5977"/><text fill="#000000" font-family="sans-serif" font-size="13" font-weight="bold" lengthAdjust="spacing" textLength="9" x="452" y="139.8555">2</text><text fill="#000000" font-family="sans-serif" font-size="13" lengthAdjust="spacing" textLength="264" x="465" y="139.8555">findAllJobOpeningsWithJobRequirements()</text><polygon fill="#181818" points="1015,169.9082,1025,173.9082,1015,177.9082,1019,173.9082" style="stroke:#181818;stroke-width:1.0;"/><line style="stroke:#181818;stroke-width:1.0;" x1="751.5" x2="1021" y1="173.9082" y2="173.9082"/><text fill="#000000" font-family="sans-serif" font-size="13" font-weight="bold" lengthAdjust="spacing" textLength="9" x="758.5" y="169.166">3</text><text fill="#000000" font-family="sans-serif" font-size="13" lengthAdjust="spacing" textLength="103" x="771.5" y="169.166">allJobOpenings()</text><polygon fill="#181818" points="1190.5,199.2188,1200.5,203.2188,1190.5,207.2188,1194.5,203.2188" style="stroke:#181818;stroke-width:1.0;"/><line style="stroke:#181818;stroke-width:1.0;" x1="1037" x2="1196.5" y1="203.2188" y2="203.2188"/><text fill="#000000" font-family="sans-serif" font-size="13" font-weight="bold" lengthAdjust="spacing" textLength="9" x="1044" y="198.4766">4</text><text fill="#000000" font-family="sans-serif" font-size="13" lengthAdjust="spacing" textLength="103" x="1057" y="198.4766">allJobOpenings()</text><polygon fill="#181818" points="1352,228.5293,1362,232.5293,1352,236.5293,1356,232.5293" style="stroke:#181818;stroke-width:1.0;"/><line style="stroke:#181818;stroke-width:1.0;" x1="1212.5" x2="1358" y1="232.5293" y2="232.5293"/><text fill="#000000" font-family="sans-serif" font-size="13" font-weight="bold" lengthAdjust="spacing" textLength="9" x="1219.5" y="227.7871">5</text><text fill="#000000" font-family="sans-serif" font-size="13" lengthAdjust="spacing" textLength="50" x="1232.5" y="227.7871">findAll()</text><polygon fill="#181818" points="1223.5,257.8398,1213.5,261.8398,1223.5,265.8398,1219.5,261.8398" style="stroke:#181818;stroke-width:1.0;"/><line style="stroke:#181818;stroke-width:1.0;stroke-dasharray:2.0,2.0;" x1="1217.5" x2="1368" y1="261.8398" y2="261.8398"/><text fill="#000000" font-family="sans-serif" font-size="13" font-weight="bold" lengthAdjust="spacing" textLength="9" x="1229.5" y="257.0977">6</text><text fill="#000000" font-family="sans-serif" font-size="13" lengthAdjust="spacing" textLength="103" x="1242.5" y="257.0977">all Job Openings</text><polygon fill="#181818" points="1048,287.1504,1038,291.1504,1048,295.1504,1044,291.1504" style="stroke:#181818;stroke-width:1.0;"/><line style="stroke:#181818;stroke-width:1.0;stroke-dasharray:2.0,2.0;" x1="1042" x2="1206.5" y1="291.1504" y2="291.1504"/><text fill="#000000" font-family="sans-serif" font-size="13" font-weight="bold" lengthAdjust="spacing" textLength="9" x="1054" y="286.4082">7</text><text fill="#000000" font-family="sans-serif" font-size="13" lengthAdjust="spacing" textLength="103" x="1067" y="286.4082">all Job Openings</text><polygon fill="#181818" points="762.5,316.4609,752.5,320.4609,762.5,324.4609,758.5,320.4609" style="stroke:#181818;stroke-width:1.0;"/><line style="stroke:#181818;stroke-width:1.0;" x1="756.5" x2="1031" y1="320.4609" y2="320.4609"/><text fill="#000000" font-family="sans-serif" font-size="13" font-weight="bold" lengthAdjust="spacing" textLength="9" x="768.5" y="315.7188">8</text><text fill="#000000" font-family="sans-serif" font-size="13" lengthAdjust="spacing" textLength="103" x="781.5" y="315.7188">all Job Openings</text><polygon fill="#181818" points="456,345.7715,446,349.7715,456,353.7715,452,349.7715" style="stroke:#181818;stroke-width:1.0;"/><line style="stroke:#181818;stroke-width:1.0;stroke-dasharray:2.0,2.0;" x1="450" x2="745.5" y1="349.7715" y2="349.7715"/><text fill="#000000" font-family="sans-serif" font-size="13" font-weight="bold" lengthAdjust="spacing" textLength="9" x="462" y="345.0293">9</text><text fill="#000000" font-family="sans-serif" font-size="13" lengthAdjust="spacing" textLength="206" x="475" y="345.0293">job Openings With Requirements</text><polygon fill="#181818" points="55,390.3926,45,394.3926,55,398.3926,51,394.3926" style="stroke:#181818;stroke-width:1.0;"/><line style="stroke:#181818;stroke-width:1.0;stroke-dasharray:2.0,2.0;" x1="49" x2="439" y1="394.3926" y2="394.3926"/><text fill="#000000" font-family="sans-serif" font-size="13" font-weight="bold" lengthAdjust="spacing" textLength="18" x="61" y="381.9951">10</text><text fill="#000000" font-family="sans-serif" font-size="13" lengthAdjust="spacing" textLength="231" x="83" y="374.3398">lists job openings with requirements</text><text fill="#000000" font-family="sans-serif" font-size="13" lengthAdjust="spacing" textLength="141" x="87" y="389.6504">and asks to select one</text><polygon fill="#181818" points="423,419.7031,433,423.7031,423,427.7031,427,423.7031" style="stroke:#181818;stroke-width:1.0;"/><line style="stroke:#181818;stroke-width:1.0;" x1="44" x2="429" y1="423.7031" y2="423.7031"/><text fill="#000000" font-family="sans-serif" font-size="13" font-weight="bold" lengthAdjust="spacing" textLength="18" x="51" y="418.9609">11</text><text fill="#000000" font-family="sans-serif" font-size="13" lengthAdjust="spacing" textLength="125" x="73" y="418.9609">selects job Opening</text><polygon fill="#181818" points="1578.5,449.0137,1588.5,453.0137,1578.5,457.0137,1582.5,453.0137" style="stroke:#181818;stroke-width:1.0;"/><line style="stroke:#181818;stroke-width:1.0;" x1="445" x2="1584.5" y1="453.0137" y2="453.0137"/><text fill="#000000" font-family="sans-serif" font-size="13" font-weight="bold" lengthAdjust="spacing" textLength="18" x="452" y="448.2715">12</text><text fill="#000000" font-family="sans-serif" font-size="13" lengthAdjust="spacing" textLength="289" x="474" y="448.2715">showApplicationsOfJobOpening(jobReference)</text><line style="stroke:#181818;stroke-width:1.0;" x1="1600.5" x2="1647.5" y1="477.3242" y2="477.3242"/><line style="stroke:#181818;stroke-width:1.0;" x1="1647.5" x2="1647.5" y1="477.3242" y2="490.3242"/><line style="stroke:#181818;stroke-width:1.0;" x1="1606.5" x2="1647.5" y1="490.3242" y2="490.3242"/><polygon fill="#181818" points="1616.5,486.3242,1606.5,490.3242,1616.5,494.3242,1612.5,490.3242" style="stroke:#181818;stroke-width:1.0;"/><text fill="#000000" font-family="sans-serif" font-size="13" font-weight="bold" lengthAdjust="spacing" textLength="18" x="1612.5" y="472.582">13</text><text fill="#000000" font-family="sans-serif" font-size="13" lengthAdjust="spacing" textLength="271" x="1634.5" y="472.582">allApplicationsOfJobOpening(jobReference)</text><polygon fill="#181818" points="1895.5,520.6348,1905.5,524.6348,1895.5,528.6348,1899.5,524.6348" style="stroke:#181818;stroke-width:1.0;"/><line style="stroke:#181818;stroke-width:1.0;" x1="1605.5" x2="1901.5" y1="524.6348" y2="524.6348"/><text fill="#000000" font-family="sans-serif" font-size="13" font-weight="bold" lengthAdjust="spacing" textLength="18" x="1612.5" y="519.8926">14</text><text fill="#000000" font-family="sans-serif" font-size="13" lengthAdjust="spacing" textLength="102" x="1634.5" y="519.8926">allApplications()</text><polygon fill="#181818" points="2717,549.9453,2727,553.9453,2717,557.9453,2721,553.9453" style="stroke:#181818;stroke-width:1.0;"/><line style="stroke:#181818;stroke-width:1.0;" x1="1917.5" x2="2723" y1="553.9453" y2="553.9453"/><text fill="#000000" font-family="sans-serif" font-size="13" font-weight="bold" lengthAdjust="spacing" textLength="18" x="1924.5" y="549.2031">15</text><text fill="#000000" font-family="sans-serif" font-size="13" lengthAdjust="spacing" textLength="102" x="1946.5" y="549.2031">allApplications()</text><polygon fill="#181818" points="1928.5,579.2559,1918.5,583.2559,1928.5,587.2559,1924.5,583.2559" style="stroke:#181818;stroke-width:1.0;"/><line style="stroke:#181818;stroke-width:1.0;stroke-dasharray:2.0,2.0;" x1="1922.5" x2="2733" y1="583.2559" y2="583.2559"/><text fill="#000000" font-family="sans-serif" font-size="13" font-weight="bold" lengthAdjust="spacing" textLength="18" x="1934.5" y="578.5137">16</text><text fill="#000000" font-family="sans-serif" font-size="13" lengthAdjust="spacing" textLength="94" x="1956.5" y="578.5137">allApplications</text><polygon fill="#181818" points="1611.5,608.5664,1601.5,612.5664,1611.5,616.5664,1607.5,612.5664" style="stroke:#181818;stroke-width:1.0;"/><line style="stroke:#181818;stroke-width:1.0;stroke-dasharray:2.0,2.0;" x1="1605.5" x2="1911.5" y1="612.5664" y2="612.5664"/><text fill="#000000" font-family="sans-serif" font-size="13" font-weight="bold" lengthAdjust="spacing" textLength="18" x="1617.5" y="607.8242">17</text><text fill="#000000" font-family="sans-serif" font-size="13" lengthAdjust="spacing" textLength="198" x="1639.5" y="607.8242">all Applications Of Job Opening</text><polygon fill="#181818" points="456,637.877,446,641.877,456,645.877,452,641.877" style="stroke:#181818;stroke-width:1.0;"/><line style="stroke:#181818;stroke-width:1.0;stroke-dasharray:2.0,2.0;" x1="450" x2="1594.5" y1="641.877" y2="641.877"/><text fill="#000000" font-family="sans-serif" font-size="13" font-weight="bold" lengthAdjust="spacing" textLength="18" x="462" y="637.1348">18</text><text fill="#000000" font-family="sans-serif" font-size="13" lengthAdjust="spacing" textLength="177" x="484" y="637.1348">applications Of Job Opening</text><polygon fill="#181818" points="55,682.498,45,686.498,55,690.498,51,686.498" style="stroke:#181818;stroke-width:1.0;"/><line style="stroke:#181818;stroke-width:1.0;stroke-dasharray:2.0,2.0;" x1="49" x2="439" y1="686.498" y2="686.498"/><text fill="#000000" font-family="sans-serif" font-size="13" font-weight="bold" lengthAdjust="spacing" textLength="18" x="61" y="674.1006">19</text><text fill="#000000" font-family="sans-serif" font-size="13" lengthAdjust="spacing" textLength="233" x="83" y="666.4453">lists applications of that job opening</text><text fill="#000000" font-family="sans-serif" font-size="13" lengthAdjust="spacing" textLength="141" x="87" y="681.7559">and asks to select one</text><polygon fill="#181818" points="423,711.8086,433,715.8086,423,719.8086,427,715.8086" style="stroke:#181818;stroke-width:1.0;"/><line style="stroke:#181818;stroke-width:1.0;" x1="44" x2="429" y1="715.8086" y2="715.8086"/><text fill="#000000" font-family="sans-serif" font-size="13" font-weight="bold" lengthAdjust="spacing" textLength="18" x="51" y="711.0664">20</text><text fill="#000000" font-family="sans-serif" font-size="13" lengthAdjust="spacing" textLength="118" x="73" y="711.0664">selects application</text><polygon fill="#181818" points="55,741.1191,45,745.1191,55,749.1191,51,745.1191" style="stroke:#181818;stroke-width:1.0;"/><line style="stroke:#181818;stroke-width:1.0;stroke-dasharray:2.0,2.0;" x1="49" x2="439" y1="745.1191" y2="745.1191"/><text fill="#000000" font-family="sans-serif" font-size="13" font-weight="bold" lengthAdjust="spacing" textLength="18" x="61" y="740.377">21</text><text fill="#000000" font-family="sans-serif" font-size="13" lengthAdjust="spacing" textLength="345" x="83" y="740.377">asks to enter the path to the file with the requirements</text><polygon fill="#181818" points="423,770.4297,433,774.4297,423,778.4297,427,774.4297" style="stroke:#181818;stroke-width:1.0;"/><line style="stroke:#181818;stroke-width:1.0;" x1="44" x2="429" y1="774.4297" y2="774.4297"/><text fill="#000000" font-family="sans-serif" font-size="13" font-weight="bold" lengthAdjust="spacing" textLength="18" x="51" y="769.6875">22</text><text fill="#000000" font-family="sans-serif" font-size="13" lengthAdjust="spacing" textLength="95" x="73" y="769.6875">enters the path</text><polygon fill="#181818" points="2118.5,799.7402,2128.5,803.7402,2118.5,807.7402,2122.5,803.7402" style="stroke:#181818;stroke-width:1.0;"/><line style="stroke:#181818;stroke-width:1.0;" x1="445" x2="2124.5" y1="803.7402" y2="803.7402"/><text fill="#000000" font-family="sans-serif" font-size="13" font-weight="bold" lengthAdjust="spacing" textLength="18" x="452" y="798.998">23</text><text fill="#000000" font-family="sans-serif" font-size="13" lengthAdjust="spacing" textLength="85" x="474" y="798.998">readFile(path)</text><polygon fill="#181818" points="456,829.0508,446,833.0508,456,837.0508,452,833.0508" style="stroke:#181818;stroke-width:1.0;"/><line style="stroke:#181818;stroke-width:1.0;stroke-dasharray:2.0,2.0;" x1="450" x2="2134.5" y1="833.0508" y2="833.0508"/><text fill="#000000" font-family="sans-serif" font-size="13" font-weight="bold" lengthAdjust="spacing" textLength="18" x="462" y="828.3086">24</text><text fill="#000000" font-family="sans-serif" font-size="13" lengthAdjust="spacing" textLength="129" x="484" y="828.3086">list Of Requirements</text><polygon fill="#181818" points="2118.5,858.3613,2128.5,862.3613,2118.5,866.3613,2122.5,862.3613" style="stroke:#181818;stroke-width:1.0;"/><line style="stroke:#181818;stroke-width:1.0;" x1="445" x2="2124.5" y1="862.3613" y2="862.3613"/><text fill="#000000" font-family="sans-serif" font-size="13" font-weight="bold" lengthAdjust="spacing" textLength="18" x="452" y="857.6191">25</text><text fill="#000000" font-family="sans-serif" font-size="13" lengthAdjust="spacing" textLength="362" x="474" y="857.6191">uploadRequirements(candidateRequirements, application)</text><polygon fill="#181818" points="2443.5,887.6719,2453.5,891.6719,2443.5,895.6719,2447.5,891.6719" style="stroke:#181818;stroke-width:1.0;"/><line style="stroke:#181818;stroke-width:1.0;" x1="2140.5" x2="2449.5" y1="891.6719" y2="891.6719"/><text fill="#000000" font-family="sans-serif" font-size="13" font-weight="bold" lengthAdjust="spacing" textLength="18" x="2147.5" y="886.9297">26</text><text fill="#000000" font-family="sans-serif" font-size="13" lengthAdjust="spacing" textLength="269" x="2169.5" y="886.9297">new CandidateRequirements(requirements)</text><rect fill="#E2E2F0" height="46.9766" rx="2.5" ry="2.5" style="stroke:#181818;stroke-width:0.5;" width="190" x="2455.5" y="870.3613"/><text fill="#000000" font-family="sans-serif" font-size="14" font-style="italic" lengthAdjust="spacing" textLength="176" x="2462.5" y="890.8965">&#171;candidateRequirements&#187;</text><text fill="#000000" font-family="sans-serif" font-size="14" lengthAdjust="spacing" textLength="165" x="2468" y="907.3848">CandidateRequirements</text><polygon fill="#181818" points="2151.5,945.6484,2141.5,949.6484,2151.5,953.6484,2147.5,949.6484" style="stroke:#181818;stroke-width:1.0;"/><line style="stroke:#181818;stroke-width:1.0;stroke-dasharray:2.0,2.0;" x1="2145.5" x2="2549.5" y1="949.6484" y2="949.6484"/><text fill="#000000" font-family="sans-serif" font-size="13" font-weight="bold" lengthAdjust="spacing" textLength="18" x="2157.5" y="944.9063">27</text><text fill="#000000" font-family="sans-serif" font-size="13" lengthAdjust="spacing" textLength="151" x="2179.5" y="944.9063">candidate Requirements</text><polygon fill="#181818" points="2857.5,974.959,2867.5,978.959,2857.5,982.959,2861.5,978.959" style="stroke:#181818;stroke-width:1.0;"/><line style="stroke:#181818;stroke-width:1.0;" x1="2140.5" x2="2863.5" y1="978.959" y2="978.959"/><text fill="#000000" font-family="sans-serif" font-size="13" font-weight="bold" lengthAdjust="spacing" textLength="18" x="2147.5" y="974.2168">28</text><text fill="#000000" font-family="sans-serif" font-size="13" lengthAdjust="spacing" textLength="347" x="2169.5" y="974.2168">uploadCandidateRequirements(candidateRequirements)</text><polygon fill="#181818" points="2151.5,1004.2695,2141.5,1008.2695,2151.5,1012.2695,2147.5,1008.2695" style="stroke:#181818;stroke-width:1.0;"/><line style="stroke:#181818;stroke-width:1.0;stroke-dasharray:2.0,2.0;" x1="2145.5" x2="2873.5" y1="1008.2695" y2="1008.2695"/><text fill="#000000" font-family="sans-serif" font-size="13" font-weight="bold" lengthAdjust="spacing" textLength="18" x="2157.5" y="1003.5273">29</text><text fill="#000000" font-family="sans-serif" font-size="13" lengthAdjust="spacing" textLength="70" x="2179.5" y="1003.5273">application</text><polygon fill="#181818" points="2717,1033.5801,2727,1037.5801,2717,1041.5801,2721,1037.5801" style="stroke:#181818;stroke-width:1.0;"/><line style="stroke:#181818;stroke-width:1.0;" x1="2140.5" x2="2723" y1="1037.5801" y2="1037.5801"/><text fill="#000000" font-family="sans-serif" font-size="13" font-weight="bold" lengthAdjust="spacing" textLength="18" x="2147.5" y="1032.8379">30</text><text fill="#000000" font-family="sans-serif" font-size="13" lengthAdjust="spacing" textLength="106" x="2169.5" y="1032.8379">save(application)</text><polygon fill="#181818" points="2151.5,1062.8906,2141.5,1066.8906,2151.5,1070.8906,2147.5,1066.8906" style="stroke:#181818;stroke-width:1.0;"/><line style="stroke:#181818;stroke-width:1.0;stroke-dasharray:2.0,2.0;" x1="2145.5" x2="2733" y1="1066.8906" y2="1066.8906"/><text fill="#000000" font-family="sans-serif" font-size="13" font-weight="bold" lengthAdjust="spacing" textLength="18" x="2157.5" y="1062.1484">31</text><text fill="#000000" font-family="sans-serif" font-size="13" lengthAdjust="spacing" textLength="25" x="2179.5" y="1062.1484">true</text><polygon fill="#181818" points="456,1092.2012,446,1096.2012,456,1100.2012,452,1096.2012" style="stroke:#181818;stroke-width:1.0;"/><line style="stroke:#181818;stroke-width:1.0;stroke-dasharray:2.0,2.0;" x1="450" x2="2134.5" y1="1096.2012" y2="1096.2012"/><text fill="#000000" font-family="sans-serif" font-size="13" font-weight="bold" lengthAdjust="spacing" textLength="18" x="462" y="1091.459">32</text><text fill="#000000" font-family="sans-serif" font-size="13" lengthAdjust="spacing" textLength="70" x="484" y="1091.459">application</text><polygon fill="#181818" points="50,1121.5117,40,1125.5117,50,1129.5117,46,1125.5117" style="stroke:#181818;stroke-width:1.0;"/><line style="stroke:#181818;stroke-width:1.0;stroke-dasharray:2.0,2.0;" x1="44" x2="439" y1="1125.5117" y2="1125.5117"/><text fill="#000000" font-family="sans-serif" font-size="13" font-weight="bold" lengthAdjust="spacing" textLength="18" x="56" y="1120.7695">33</text><text fill="#000000" font-family="sans-serif" font-size="13" lengthAdjust="spacing" textLength="170" x="78" y="1120.7695">displays operation success</text><!--SRC=[nPZ1ZjiW48RlVWgEwQfvWMWLALgfLLUL8csxwgKNOayQjWwuW1FjstT8P1lYmSRPREjJx03ppS_mWyrhgsIztu3ECfvRfTcw0itnHvPLN5kHYufBovwhKl7Y2VxKGiCUf3KhQOwWpVCNTdzVQJ3uZ5kXv78PTFmCqeq7HDVliAzA_Ej1IQjLMOB6eVBsvcAWhyBOHxL1F2dahxG-NVjle0yY1sniph-mPS4jtt033A-kvHDKoWWKu1KRw_Pca6PLLQN8J-cRD3Al1uMM97rQf0Sk2r5Sp83hG3ttLV4Guvh4ai9slBjp3LrvYGF6yohCAT_SiVboiCeMZ9lVXbd5wbChPdV0j9-JsZBCYRM9dOPlemwCVGPnrn00yaqhvWNR2bcioh8h5FD3s1tU-WFCFhJXMzX9WJfyTqrZnAIY2miL3zWzq00sDa38vQveACJehzMH-053htS_UBZCco11PA_EsyaZeaOYTxtfu56VcSVJTyzP8m0vQW5Ne10wZ5R2C0g94PsBeKAOkiW6qJoij3ATk7n6JUl58sDkzJE_PKPmNhds1wqBCLkVNR0IbJ0dCjMG7HrPuAO_vSbD6zCrK49kcP9dM_LuHuqrtU7FGOmlskrDF6dhHfQTElf_hhTTfzcBi_0jQ90v4FQT4Y8ikoIeT7XS4nFPtyW_9GVYxDCZ7lBwVd_Qv8WuOVJ0xiS1OX0flaz7dIUgCMRy4s0eKIRLbJ-2OUkjxxrP6cCpQqb6VRlLCtx0JCZiQix9_XpGuDdMxhZrJVk_EhG7Tsk73hLeiiD6E8Vkp5zntAhmYVkz5IMSzwxBju5trE24ObgMs-zGAMzy2yoM5vym_vc383QXX572LPGITdmHkU9rYsVic3C9xoQ2rRrMC_8b-ADVtVzCs2NzfdvtX-GIZlI_Cx_a8vivsR6_ET3V2UR9whPIqZD_CVi9K8cg-HyTcZccjI8dEoAQDsfVAZzaka2NbZcyHxvLY-1iO_W1PcHHNtEcYPzbqeImkeRi-fFCRMoAcertSQTmEok4mJUuL-CsSNsk85FdEPXf6vRNhlsQzXS0]--></g></svg>