<?xml version="1.0" encoding="us-ascii" standalone="no"?><svg xmlns="http://www.w3.org/2000/svg" xmlns:xlink="http://www.w3.org/1999/xlink" contentStyleType="text/css" height="1224px" preserveAspectRatio="none" style="width:2822px;height:1224px;background:#FFFFFF;" version="1.1" viewBox="0 0 2822 1224" width="2822.4px" zoomAndPan="magnify"><defs/><g><rect fill="#FFFFFF" height="1059.1969" style="stroke:#181818;stroke-width:0.8000000000000002;" width="8" x="27.2" y="75.1813"/><rect fill="#FFFFFF" height="223.2844" style="stroke:#181818;stroke-width:0.8000000000000002;" width="8" x="348" y="92.2297"/><rect fill="#FFFFFF" height="257.1328" style="stroke:#181818;stroke-width:0.8000000000000002;" width="8" x="348" y="338.9625"/><rect fill="#FFFFFF" height="23.4484" style="stroke:#181818;stroke-width:0.8000000000000002;" width="8" x="348" y="619.5438"/><rect fill="#FFFFFF" height="467.9375" style="stroke:#181818;stroke-width:0.8000000000000002;" width="8" x="348" y="666.4406"/><rect fill="#FFFFFF" height="164.1391" style="stroke:#181818;stroke-width:0.8000000000000002;" width="8" x="678.4" y="115.6781"/><rect fill="#FFFFFF" height="197.9875" style="stroke:#181818;stroke-width:0.8000000000000002;" width="8" x="678.4" y="362.4109"/><rect fill="#FFFFFF" height="116.7266" style="stroke:#181818;stroke-width:0.8000000000000002;" width="8" x="678.4" y="689.8891"/><rect fill="#FFFFFF" height="280.8656" style="stroke:#181818;stroke-width:0.8000000000000002;" width="8" x="678.4" y="830.0641"/><rect fill="#FFFFFF" height="117.2422" style="stroke:#181818;stroke-width:0.8000000000000002;" width="8" x="946" y="139.1266"/><rect fill="#FFFFFF" height="70.3453" style="stroke:#181818;stroke-width:0.8000000000000002;" width="8" x="1174.8" y="162.575"/><rect fill="#FFFFFF" height="23.4484" style="stroke:#181818;stroke-width:0.8000000000000002;" width="8" x="1403.6" y="186.0234"/><rect fill="#FFFFFF" height="151.0906" style="stroke:#181818;stroke-width:0.8000000000000002;" width="8" x="1584.8" y="385.8594"/><rect fill="#FFFFFF" height="97.7938" style="stroke:#181818;stroke-width:0.8000000000000002;" width="8" x="1588.8" y="415.7078"/><rect fill="#FFFFFF" height="70.3453" style="stroke:#181818;stroke-width:0.8000000000000002;" width="8" x="1880" y="443.1563"/><rect fill="#FFFFFF" height="70.3453" style="stroke:#181818;stroke-width:0.8000000000000002;" width="8" x="1880" y="970.2391"/><rect fill="#FFFFFF" height="23.4484" style="stroke:#181818;stroke-width:0.8000000000000002;" width="8" x="2114.4" y="466.6047"/><rect fill="#FFFFFF" height="23.4484" style="stroke:#181818;stroke-width:0.8000000000000002;" width="8" x="2114.4" y="1064.0328"/><rect fill="#FFFFFF" height="23.4484" style="stroke:#181818;stroke-width:0.8000000000000002;" width="8" x="2246" y="759.7188"/><rect fill="#FFFFFF" height="93.2781" style="stroke:#181818;stroke-width:0.8000000000000002;" width="8" x="2405.6" y="853.5125"/><rect fill="#FFFFFF" height="23.4484" style="stroke:#181818;stroke-width:0.8000000000000002;" width="8" x="2546" y="993.6875"/><rect fill="#FFFFFF" height="38.3813" style="stroke:#181818;stroke-width:0.8000000000000002;" width="8" x="2737.6" y="884.9609"/><line style="stroke:#181818;stroke-width:0.4000000000000001;stroke-dasharray:5.0,5.0;" x1="31.2" x2="31.2" y1="67.1813" y2="1148.7781"/><line style="stroke:#181818;stroke-width:0.4000000000000001;stroke-dasharray:5.0,5.0;" x1="352" x2="352" y1="67.1813" y2="1148.7781"/><line style="stroke:#181818;stroke-width:0.4000000000000001;stroke-dasharray:5.0,5.0;" x1="682.4" x2="682.4" y1="67.1813" y2="1148.7781"/><line style="stroke:#181818;stroke-width:0.4000000000000001;stroke-dasharray:5.0,5.0;" x1="949.6" x2="949.6" y1="67.1813" y2="1148.7781"/><line style="stroke:#181818;stroke-width:0.4000000000000001;stroke-dasharray:5.0,5.0;" x1="1178.4" x2="1178.4" y1="67.1813" y2="1148.7781"/><line style="stroke:#181818;stroke-width:0.4000000000000001;stroke-dasharray:5.0,5.0;" x1="1407.6" x2="1407.6" y1="67.1813" y2="1148.7781"/><line style="stroke:#181818;stroke-width:0.4000000000000001;stroke-dasharray:5.0,5.0;" x1="1588.4" x2="1588.4" y1="67.1813" y2="1148.7781"/><line style="stroke:#181818;stroke-width:0.4000000000000001;stroke-dasharray:5.0,5.0;" x1="1884" x2="1884" y1="67.1813" y2="1148.7781"/><line style="stroke:#181818;stroke-width:0.4000000000000001;stroke-dasharray:5.0,5.0;" x1="2118" x2="2118" y1="67.1813" y2="1148.7781"/><line style="stroke:#181818;stroke-width:0.4000000000000001;stroke-dasharray:5.0,5.0;" x1="2250" x2="2250" y1="727.4797" y2="1148.7781"/><line style="stroke:#181818;stroke-width:0.4000000000000001;stroke-dasharray:5.0,5.0;" x1="2409.2" x2="2409.2" y1="67.1813" y2="1148.7781"/><line style="stroke:#181818;stroke-width:0.4000000000000001;stroke-dasharray:5.0,5.0;" x1="2550" x2="2550" y1="67.1813" y2="1148.7781"/><line style="stroke:#181818;stroke-width:0.4000000000000001;stroke-dasharray:5.0,5.0;" x1="2741.6" x2="2741.6" y1="891.1031" y2="1148.7781"/><text fill="#000000" font-family="sans-serif" font-size="11.2" lengthAdjust="spacing" textLength="49.6" x="4" y="64.8188">Operator</text><ellipse cx="31.2" cy="12.7906" fill="#E2E2F0" rx="6.4" ry="6.4" style="stroke:#181818;stroke-width:0.4000000000000001;"/><path d="M31.2,19.1906 L31.2,40.7906 M20.8,25.5906 L41.6,25.5906 M31.2,40.7906 L20.8,52.7906 M31.2,40.7906 L41.6,52.7906 " fill="none" style="stroke:#181818;stroke-width:0.4000000000000001;"/><text fill="#000000" font-family="sans-serif" font-size="11.2" lengthAdjust="spacing" textLength="49.6" x="4" y="1158.8063">Operator</text><ellipse cx="31.2" cy="1167.9688" fill="#E2E2F0" rx="6.4" ry="6.4" style="stroke:#181818;stroke-width:0.4000000000000001;"/><path d="M31.2,1174.3688 L31.2,1195.9688 M20.8,1180.7688 L41.6,1180.7688 M31.2,1195.9688 L20.8,1207.9688 M31.2,1195.9688 L41.6,1207.9688 " fill="none" style="stroke:#181818;stroke-width:0.4000000000000001;"/><rect fill="#E2E2F0" height="37.5813" rx="2" ry="2" style="stroke:#181818;stroke-width:0.4000000000000001;" width="184" x="260" y="28.8"/><text fill="#000000" font-family="sans-serif" font-size="11.2" font-style="italic" lengthAdjust="spacing" textLength="80.8" x="311.6" y="45.2281">&#171;presentation&#187;</text><text fill="#000000" font-family="sans-serif" font-size="11.2" lengthAdjust="spacing" textLength="172.8" x="265.6" y="58.4188">UploadRequirementsAnswersUI</text><rect fill="#E2E2F0" height="37.5813" rx="2" ry="2" style="stroke:#181818;stroke-width:0.4000000000000001;" width="184" x="260" y="1147.9781"/><text fill="#000000" font-family="sans-serif" font-size="11.2" font-style="italic" lengthAdjust="spacing" textLength="80.8" x="311.6" y="1164.4063">&#171;presentation&#187;</text><text fill="#000000" font-family="sans-serif" font-size="11.2" lengthAdjust="spacing" textLength="172.8" x="265.6" y="1177.5969">UploadRequirementsAnswersUI</text><rect fill="#E2E2F0" height="37.5813" rx="2" ry="2" style="stroke:#181818;stroke-width:0.4000000000000001;" width="228.8" x="568" y="28.8"/><text fill="#000000" font-family="sans-serif" font-size="11.2" font-style="italic" lengthAdjust="spacing" textLength="64.8" x="650" y="45.2281">&#171;controller&#187;</text><text fill="#000000" font-family="sans-serif" font-size="11.2" lengthAdjust="spacing" textLength="217.6" x="573.6" y="58.4188">UploadRequirementsAnswersController</text><rect fill="#E2E2F0" height="37.5813" rx="2" ry="2" style="stroke:#181818;stroke-width:0.4000000000000001;" width="228.8" x="568" y="1147.9781"/><text fill="#000000" font-family="sans-serif" font-size="11.2" font-style="italic" lengthAdjust="spacing" textLength="64.8" x="650" y="1164.4063">&#171;controller&#187;</text><text fill="#000000" font-family="sans-serif" font-size="11.2" lengthAdjust="spacing" textLength="217.6" x="573.6" y="1177.5969">UploadRequirementsAnswersController</text><rect fill="#E2E2F0" height="37.5813" rx="2" ry="2" style="stroke:#181818;stroke-width:0.4000000000000001;" width="290.4" x="804.8" y="28.8"/><text fill="#000000" font-family="sans-serif" font-size="11.2" font-style="italic" lengthAdjust="spacing" textLength="64.8" x="917.6" y="45.2281">&#171;controller&#187;</text><text fill="#000000" font-family="sans-serif" font-size="11.2" lengthAdjust="spacing" textLength="279.2" x="810.4" y="58.4188">GenerateRequirementsAnswersTemplateController</text><rect fill="#E2E2F0" height="37.5813" rx="2" ry="2" style="stroke:#181818;stroke-width:0.4000000000000001;" width="290.4" x="804.8" y="1147.9781"/><text fill="#000000" font-family="sans-serif" font-size="11.2" font-style="italic" lengthAdjust="spacing" textLength="64.8" x="917.6" y="1164.4063">&#171;controller&#187;</text><text fill="#000000" font-family="sans-serif" font-size="11.2" lengthAdjust="spacing" textLength="279.2" x="810.4" y="1177.5969">GenerateRequirementsAnswersTemplateController</text><rect fill="#E2E2F0" height="37.5813" rx="2" ry="2" style="stroke:#181818;stroke-width:0.4000000000000001;" width="114.4" x="1121.6" y="28.8"/><text fill="#000000" font-family="sans-serif" font-size="11.2" font-style="italic" lengthAdjust="spacing" textLength="48.8" x="1154.4" y="45.2281">&#171;service&#187;</text><text fill="#000000" font-family="sans-serif" font-size="11.2" lengthAdjust="spacing" textLength="103.2" x="1127.2" y="58.4188">JobOpeningService</text><rect fill="#E2E2F0" height="37.5813" rx="2" ry="2" style="stroke:#181818;stroke-width:0.4000000000000001;" width="114.4" x="1121.6" y="1147.9781"/><text fill="#000000" font-family="sans-serif" font-size="11.2" font-style="italic" lengthAdjust="spacing" textLength="48.8" x="1154.4" y="1164.4063">&#171;service&#187;</text><text fill="#000000" font-family="sans-serif" font-size="11.2" lengthAdjust="spacing" textLength="103.2" x="1127.2" y="1177.5969">JobOpeningService</text><text fill="#000000" font-family="sans-serif" font-size="11.2" font-style="italic" lengthAdjust="spacing" textLength="67.2" x="1371.6" y="51.6281">&#171;repository&#187;</text><text fill="#000000" font-family="sans-serif" font-size="11.2" lengthAdjust="spacing" textLength="123.2" x="1343.6" y="64.8188">JobOpeningRepository</text><path d="M1393.2,12 C1393.2,4 1407.6,4 1407.6,4 C1407.6,4 1422,4 1422,12 L1422,32.8 C1422,40.8 1407.6,40.8 1407.6,40.8 C1407.6,40.8 1393.2,40.8 1393.2,32.8 L1393.2,12 " fill="#E2E2F0" style="stroke:#181818;stroke-width:1.2000000000000002;"/><path d="M1393.2,12 C1393.2,20 1407.6,20 1407.6,20 C1407.6,20 1422,20 1422,12 " fill="none" style="stroke:#181818;stroke-width:1.2000000000000002;"/><text fill="#000000" font-family="sans-serif" font-size="11.2" font-style="italic" lengthAdjust="spacing" textLength="67.2" x="1371.6" y="1158.8063">&#171;repository&#187;</text><text fill="#000000" font-family="sans-serif" font-size="11.2" lengthAdjust="spacing" textLength="123.2" x="1343.6" y="1171.9969">JobOpeningRepository</text><path d="M1393.2,1182.3594 C1393.2,1174.3594 1407.6,1174.3594 1407.6,1174.3594 C1407.6,1174.3594 1422,1174.3594 1422,1182.3594 L1422,1203.1594 C1422,1211.1594 1407.6,1211.1594 1407.6,1211.1594 C1407.6,1211.1594 1393.2,1211.1594 1393.2,1203.1594 L1393.2,1182.3594 " fill="#E2E2F0" style="stroke:#181818;stroke-width:1.2000000000000002;"/><path d="M1393.2,1182.3594 C1393.2,1190.3594 1407.6,1190.3594 1407.6,1190.3594 C1407.6,1190.3594 1422,1190.3594 1422,1182.3594 " fill="none" style="stroke:#181818;stroke-width:1.2000000000000002;"/><rect fill="#E2E2F0" height="37.5813" rx="2" ry="2" style="stroke:#181818;stroke-width:0.4000000000000001;" width="218.4" x="1479.6" y="28.8"/><text fill="#000000" font-family="sans-serif" font-size="11.2" font-style="italic" lengthAdjust="spacing" textLength="64.8" x="1556.4" y="45.2281">&#171;controller&#187;</text><text fill="#000000" font-family="sans-serif" font-size="11.2" lengthAdjust="spacing" textLength="207.2" x="1485.2" y="58.4188">ListJobOpeningApplicationsController</text><rect fill="#E2E2F0" height="37.5813" rx="2" ry="2" style="stroke:#181818;stroke-width:0.4000000000000001;" width="218.4" x="1479.6" y="1147.9781"/><text fill="#000000" font-family="sans-serif" font-size="11.2" font-style="italic" lengthAdjust="spacing" textLength="64.8" x="1556.4" y="1164.4063">&#171;controller&#187;</text><text fill="#000000" font-family="sans-serif" font-size="11.2" lengthAdjust="spacing" textLength="207.2" x="1485.2" y="1177.5969">ListJobOpeningApplicationsController</text><rect fill="#E2E2F0" height="37.5813" rx="2" ry="2" style="stroke:#181818;stroke-width:0.4000000000000001;" width="112" x="1828" y="28.8"/><text fill="#000000" font-family="sans-serif" font-size="11.2" font-style="italic" lengthAdjust="spacing" textLength="48.8" x="1859.6" y="45.2281">&#171;service&#187;</text><text fill="#000000" font-family="sans-serif" font-size="11.2" lengthAdjust="spacing" textLength="100.8" x="1833.6" y="58.4188">ApplicationService</text><rect fill="#E2E2F0" height="37.5813" rx="2" ry="2" style="stroke:#181818;stroke-width:0.4000000000000001;" width="112" x="1828" y="1147.9781"/><text fill="#000000" font-family="sans-serif" font-size="11.2" font-style="italic" lengthAdjust="spacing" textLength="48.8" x="1859.6" y="1164.4063">&#171;service&#187;</text><text fill="#000000" font-family="sans-serif" font-size="11.2" lengthAdjust="spacing" textLength="100.8" x="1833.6" y="1177.5969">ApplicationService</text><text fill="#000000" font-family="sans-serif" font-size="11.2" font-style="italic" lengthAdjust="spacing" textLength="67.2" x="2082.4" y="51.6281">&#171;repository&#187;</text><text fill="#000000" font-family="sans-serif" font-size="11.2" lengthAdjust="spacing" textLength="120.8" x="2055.6" y="64.8188">ApplicationRepository</text><path d="M2104,12 C2104,4 2118.4,4 2118.4,4 C2118.4,4 2132.8,4 2132.8,12 L2132.8,32.8 C2132.8,40.8 2118.4,40.8 2118.4,40.8 C2118.4,40.8 2104,40.8 2104,32.8 L2104,12 " fill="#E2E2F0" style="stroke:#181818;stroke-width:1.2000000000000002;"/><path d="M2104,12 C2104,20 2118.4,20 2118.4,20 C2118.4,20 2132.8,20 2132.8,12 " fill="none" style="stroke:#181818;stroke-width:1.2000000000000002;"/><text fill="#000000" font-family="sans-serif" font-size="11.2" font-style="italic" lengthAdjust="spacing" textLength="67.2" x="2082.4" y="1158.8063">&#171;repository&#187;</text><text fill="#000000" font-family="sans-serif" font-size="11.2" lengthAdjust="spacing" textLength="120.8" x="2055.6" y="1171.9969">ApplicationRepository</text><path d="M2104,1182.3594 C2104,1174.3594 2118.4,1174.3594 2118.4,1174.3594 C2118.4,1174.3594 2132.8,1174.3594 2132.8,1182.3594 L2132.8,1203.1594 C2132.8,1211.1594 2118.4,1211.1594 2118.4,1211.1594 C2118.4,1211.1594 2104,1211.1594 2104,1203.1594 L2104,1182.3594 " fill="#E2E2F0" style="stroke:#181818;stroke-width:1.2000000000000002;"/><path d="M2104,1182.3594 C2104,1190.3594 2118.4,1190.3594 2118.4,1190.3594 C2118.4,1190.3594 2132.8,1190.3594 2132.8,1182.3594 " fill="none" style="stroke:#181818;stroke-width:1.2000000000000002;"/><rect fill="#E2E2F0" height="37.5813" rx="2" ry="2" style="stroke:#181818;stroke-width:0.4000000000000001;" width="121.6" x="2189.2" y="1147.9781"/><text fill="#000000" font-family="sans-serif" font-size="11.2" font-style="italic" lengthAdjust="spacing" textLength="46.4" x="2226.8" y="1164.4063">&#171;plugin&#187;</text><text fill="#000000" font-family="sans-serif" font-size="11.2" lengthAdjust="spacing" textLength="110.4" x="2194.8" y="1177.5969">RequirementsPlugin</text><rect fill="#E2E2F0" height="37.5813" rx="2" ry="2" style="stroke:#181818;stroke-width:0.4000000000000001;" width="181.6" x="2318.8" y="28.8"/><text fill="#000000" font-family="sans-serif" font-size="11.2" font-style="italic" lengthAdjust="spacing" textLength="48.8" x="2385.2" y="45.2281">&#171;service&#187;</text><text fill="#000000" font-family="sans-serif" font-size="11.2" lengthAdjust="spacing" textLength="170.4" x="2324.4" y="58.4188">CandidateRequirementsService</text><rect fill="#E2E2F0" height="37.5813" rx="2" ry="2" style="stroke:#181818;stroke-width:0.4000000000000001;" width="181.6" x="2318.8" y="1147.9781"/><text fill="#000000" font-family="sans-serif" font-size="11.2" font-style="italic" lengthAdjust="spacing" textLength="48.8" x="2385.2" y="1164.4063">&#171;service&#187;</text><text fill="#000000" font-family="sans-serif" font-size="11.2" lengthAdjust="spacing" textLength="170.4" x="2324.4" y="1177.5969">CandidateRequirementsService</text><rect fill="#E2E2F0" height="37.5813" rx="2" ry="2" style="stroke:#181818;stroke-width:0.4000000000000001;" width="83.2" x="2508.4" y="28.8"/><text fill="#000000" font-family="sans-serif" font-size="11.2" font-style="italic" lengthAdjust="spacing" textLength="72" x="2514" y="45.2281">&#171;application&#187;</text><text fill="#000000" font-family="sans-serif" font-size="11.2" lengthAdjust="spacing" textLength="62.4" x="2518.8" y="58.4188">Application</text><rect fill="#E2E2F0" height="37.5813" rx="2" ry="2" style="stroke:#181818;stroke-width:0.4000000000000001;" width="83.2" x="2508.4" y="1147.9781"/><text fill="#000000" font-family="sans-serif" font-size="11.2" font-style="italic" lengthAdjust="spacing" textLength="72" x="2514" y="1164.4063">&#171;application&#187;</text><text fill="#000000" font-family="sans-serif" font-size="11.2" lengthAdjust="spacing" textLength="62.4" x="2518.8" y="1177.5969">Application</text><rect fill="#E2E2F0" height="37.5813" rx="2" ry="2" style="stroke:#181818;stroke-width:0.4000000000000001;" width="152" x="2665.6" y="1147.9781"/><text fill="#000000" font-family="sans-serif" font-size="11.2" font-style="italic" lengthAdjust="spacing" textLength="140.8" x="2671.2" y="1164.4063">&#171;candidateRequirements&#187;</text><text fill="#000000" font-family="sans-serif" font-size="11.2" lengthAdjust="spacing" textLength="132" x="2675.6" y="1177.5969">CandidateRequirements</text><rect fill="#FFFFFF" height="1059.1969" style="stroke:#181818;stroke-width:0.8000000000000002;" width="8" x="27.2" y="75.1813"/><rect fill="#FFFFFF" height="223.2844" style="stroke:#181818;stroke-width:0.8000000000000002;" width="8" x="348" y="92.2297"/><rect fill="#FFFFFF" height="257.1328" style="stroke:#181818;stroke-width:0.8000000000000002;" width="8" x="348" y="338.9625"/><rect fill="#FFFFFF" height="23.4484" style="stroke:#181818;stroke-width:0.8000000000000002;" width="8" x="348" y="619.5438"/><rect fill="#FFFFFF" height="467.9375" style="stroke:#181818;stroke-width:0.8000000000000002;" width="8" x="348" y="666.4406"/><rect fill="#FFFFFF" height="164.1391" style="stroke:#181818;stroke-width:0.8000000000000002;" width="8" x="678.4" y="115.6781"/><rect fill="#FFFFFF" height="197.9875" style="stroke:#181818;stroke-width:0.8000000000000002;" width="8" x="678.4" y="362.4109"/><rect fill="#FFFFFF" height="116.7266" style="stroke:#181818;stroke-width:0.8000000000000002;" width="8" x="678.4" y="689.8891"/><rect fill="#FFFFFF" height="280.8656" style="stroke:#181818;stroke-width:0.8000000000000002;" width="8" x="678.4" y="830.0641"/><rect fill="#FFFFFF" height="117.2422" style="stroke:#181818;stroke-width:0.8000000000000002;" width="8" x="946" y="139.1266"/><rect fill="#FFFFFF" height="70.3453" style="stroke:#181818;stroke-width:0.8000000000000002;" width="8" x="1174.8" y="162.575"/><rect fill="#FFFFFF" height="23.4484" style="stroke:#181818;stroke-width:0.8000000000000002;" width="8" x="1403.6" y="186.0234"/><rect fill="#FFFFFF" height="151.0906" style="stroke:#181818;stroke-width:0.8000000000000002;" width="8" x="1584.8" y="385.8594"/><rect fill="#FFFFFF" height="97.7938" style="stroke:#181818;stroke-width:0.8000000000000002;" width="8" x="1588.8" y="415.7078"/><rect fill="#FFFFFF" height="70.3453" style="stroke:#181818;stroke-width:0.8000000000000002;" width="8" x="1880" y="443.1563"/><rect fill="#FFFFFF" height="70.3453" style="stroke:#181818;stroke-width:0.8000000000000002;" width="8" x="1880" y="970.2391"/><rect fill="#FFFFFF" height="23.4484" style="stroke:#181818;stroke-width:0.8000000000000002;" width="8" x="2114.4" y="466.6047"/><rect fill="#FFFFFF" height="23.4484" style="stroke:#181818;stroke-width:0.8000000000000002;" width="8" x="2114.4" y="1064.0328"/><rect fill="#FFFFFF" height="23.4484" style="stroke:#181818;stroke-width:0.8000000000000002;" width="8" x="2246" y="759.7188"/><rect fill="#FFFFFF" height="93.2781" style="stroke:#181818;stroke-width:0.8000000000000002;" width="8" x="2405.6" y="853.5125"/><rect fill="#FFFFFF" height="23.4484" style="stroke:#181818;stroke-width:0.8000000000000002;" width="8" x="2546" y="993.6875"/><rect fill="#FFFFFF" height="38.3813" style="stroke:#181818;stroke-width:0.8000000000000002;" width="8" x="2737.6" y="884.9609"/><polygon fill="#181818" points="338.4,89.0297,346.4,92.2297,338.4,95.4297,341.6,92.2297" style="stroke:#181818;stroke-width:0.8000000000000002;"/><line style="stroke:#181818;stroke-width:0.8000000000000002;" x1="35.2" x2="343.2" y1="92.2297" y2="92.2297"/><text fill="#000000" font-family="sans-serif" font-size="10.4" font-weight="bold" lengthAdjust="spacing" textLength="7.2" x="40.8" y="88.4359">1</text><text fill="#000000" font-family="sans-serif" font-size="10.4" lengthAdjust="spacing" textLength="250.4" x="51.2" y="88.4359">asks to upload the requirements of and candidate</text><polygon fill="#181818" points="668.8,112.4781,676.8,115.6781,668.8,118.8781,672,115.6781" style="stroke:#181818;stroke-width:0.8000000000000002;"/><line style="stroke:#181818;stroke-width:0.8000000000000002;" x1="356" x2="673.6" y1="115.6781" y2="115.6781"/><text fill="#000000" font-family="sans-serif" font-size="10.4" font-weight="bold" lengthAdjust="spacing" textLength="7.2" x="361.6" y="111.8844">2</text><text fill="#000000" font-family="sans-serif" font-size="10.4" lengthAdjust="spacing" textLength="211.2" x="372" y="111.8844">findAllJobOpeningsWithJobRequirements()</text><polygon fill="#181818" points="936.4,135.9266,944.4,139.1266,936.4,142.3266,939.6,139.1266" style="stroke:#181818;stroke-width:0.8000000000000002;"/><line style="stroke:#181818;stroke-width:0.8000000000000002;" x1="686.4" x2="941.2" y1="139.1266" y2="139.1266"/><text fill="#000000" font-family="sans-serif" font-size="10.4" font-weight="bold" lengthAdjust="spacing" textLength="7.2" x="692" y="135.3328">3</text><text fill="#000000" font-family="sans-serif" font-size="10.4" lengthAdjust="spacing" textLength="211.2" x="702.4" y="135.3328">findAllJobOpeningsWithJobRequirements()</text><polygon fill="#181818" points="1165.2,159.375,1173.2,162.575,1165.2,165.775,1168.4,162.575" style="stroke:#181818;stroke-width:0.8000000000000002;"/><line style="stroke:#181818;stroke-width:0.8000000000000002;" x1="954" x2="1170" y1="162.575" y2="162.575"/><text fill="#000000" font-family="sans-serif" font-size="10.4" font-weight="bold" lengthAdjust="spacing" textLength="7.2" x="959.6" y="158.7813">4</text><text fill="#000000" font-family="sans-serif" font-size="10.4" lengthAdjust="spacing" textLength="82.4" x="970" y="158.7813">allJobOpenings()</text><polygon fill="#181818" points="1394,182.8234,1402,186.0234,1394,189.2234,1397.2,186.0234" style="stroke:#181818;stroke-width:0.8000000000000002;"/><line style="stroke:#181818;stroke-width:0.8000000000000002;" x1="1182.8" x2="1398.8" y1="186.0234" y2="186.0234"/><text fill="#000000" font-family="sans-serif" font-size="10.4" font-weight="bold" lengthAdjust="spacing" textLength="7.2" x="1188.4" y="182.2297">5</text><text fill="#000000" font-family="sans-serif" font-size="10.4" lengthAdjust="spacing" textLength="40" x="1198.8" y="182.2297">findAll()</text><polygon fill="#181818" points="1191.6,206.2719,1183.6,209.4719,1191.6,212.6719,1188.4,209.4719" style="stroke:#181818;stroke-width:0.8000000000000002;"/><line style="stroke:#181818;stroke-width:0.8000000000000002;stroke-dasharray:2.0,2.0;" x1="1186.8" x2="1406.8" y1="209.4719" y2="209.4719"/><text fill="#000000" font-family="sans-serif" font-size="10.4" font-weight="bold" lengthAdjust="spacing" textLength="7.2" x="1196.4" y="205.6781">6</text><text fill="#000000" font-family="sans-serif" font-size="10.4" lengthAdjust="spacing" textLength="191.2" x="1206.8" y="205.6781">Iterable&lt;JobOpening&gt; allJobOpenings</text><polygon fill="#181818" points="962.8,229.7203,954.8,232.9203,962.8,236.1203,959.6,232.9203" style="stroke:#181818;stroke-width:0.8000000000000002;"/><line style="stroke:#181818;stroke-width:0.8000000000000002;stroke-dasharray:2.0,2.0;" x1="958" x2="1178" y1="232.9203" y2="232.9203"/><text fill="#000000" font-family="sans-serif" font-size="10.4" font-weight="bold" lengthAdjust="spacing" textLength="7.2" x="967.6" y="229.1266">7</text><text fill="#000000" font-family="sans-serif" font-size="10.4" lengthAdjust="spacing" textLength="191.2" x="978" y="229.1266">Iterable&lt;JobOpening&gt; allJobOpenings</text><polygon fill="#181818" points="695.2,253.1688,687.2,256.3688,695.2,259.5688,692,256.3688" style="stroke:#181818;stroke-width:0.8000000000000002;"/><line style="stroke:#181818;stroke-width:0.8000000000000002;stroke-dasharray:2.0,2.0;" x1="690.4" x2="949.2" y1="256.3688" y2="256.3688"/><text fill="#000000" font-family="sans-serif" font-size="10.4" font-weight="bold" lengthAdjust="spacing" textLength="7.2" x="700" y="252.575">8</text><text fill="#000000" font-family="sans-serif" font-size="10.4" lengthAdjust="spacing" textLength="162.4" x="710.4" y="252.575">List&lt;JobOpening&gt; requirements</text><polygon fill="#181818" points="364.8,276.6172,356.8,279.8172,364.8,283.0172,361.6,279.8172" style="stroke:#181818;stroke-width:0.8000000000000002;"/><line style="stroke:#181818;stroke-width:0.8000000000000002;stroke-dasharray:2.0,2.0;" x1="360" x2="681.6" y1="279.8172" y2="279.8172"/><text fill="#000000" font-family="sans-serif" font-size="10.4" font-weight="bold" lengthAdjust="spacing" textLength="7.2" x="369.6" y="276.0234">9</text><text fill="#000000" font-family="sans-serif" font-size="10.4" lengthAdjust="spacing" textLength="162.4" x="380" y="276.0234">List&lt;JobOpening&gt; requirements</text><polygon fill="#181818" points="44,312.3141,36,315.5141,44,318.7141,40.8,315.5141" style="stroke:#181818;stroke-width:0.8000000000000002;"/><line style="stroke:#181818;stroke-width:0.8000000000000002;stroke-dasharray:2.0,2.0;" x1="39.2" x2="351.2" y1="315.5141" y2="315.5141"/><text fill="#000000" font-family="sans-serif" font-size="10.4" font-weight="bold" lengthAdjust="spacing" textLength="14.4" x="48.8" y="305.5961">10</text><text fill="#000000" font-family="sans-serif" font-size="10.4" lengthAdjust="spacing" textLength="184.8" x="66.4" y="299.4719">lists job openings with requirements</text><text fill="#000000" font-family="sans-serif" font-size="10.4" lengthAdjust="spacing" textLength="112.8" x="69.6" y="311.7203">and asks to select one</text><polygon fill="#181818" points="338.4,335.7625,346.4,338.9625,338.4,342.1625,341.6,338.9625" style="stroke:#181818;stroke-width:0.8000000000000002;"/><line style="stroke:#181818;stroke-width:0.8000000000000002;" x1="35.2" x2="343.2" y1="338.9625" y2="338.9625"/><text fill="#000000" font-family="sans-serif" font-size="10.4" font-weight="bold" lengthAdjust="spacing" textLength="14.4" x="40.8" y="335.1688">11</text><text fill="#000000" font-family="sans-serif" font-size="10.4" lengthAdjust="spacing" textLength="100" x="58.4" y="335.1688">selects job Opening</text><polygon fill="#181818" points="668.8,359.2109,676.8,362.4109,668.8,365.6109,672,362.4109" style="stroke:#181818;stroke-width:0.8000000000000002;"/><line style="stroke:#181818;stroke-width:0.8000000000000002;" x1="356" x2="673.6" y1="362.4109" y2="362.4109"/><text fill="#000000" font-family="sans-serif" font-size="10.4" font-weight="bold" lengthAdjust="spacing" textLength="14.4" x="361.6" y="358.6172">12</text><text fill="#000000" font-family="sans-serif" font-size="10.4" lengthAdjust="spacing" textLength="231.2" x="379.2" y="358.6172">showApplicationsOfJobOpening(jobReference)</text><polygon fill="#181818" points="1575.2,382.6594,1583.2,385.8594,1575.2,389.0594,1578.4,385.8594" style="stroke:#181818;stroke-width:0.8000000000000002;"/><line style="stroke:#181818;stroke-width:0.8000000000000002;" x1="686.4" x2="1580" y1="385.8594" y2="385.8594"/><text fill="#000000" font-family="sans-serif" font-size="10.4" font-weight="bold" lengthAdjust="spacing" textLength="14.4" x="692" y="382.0656">13</text><text fill="#000000" font-family="sans-serif" font-size="10.4" lengthAdjust="spacing" textLength="231.2" x="709.6" y="382.0656">showApplicationsOfJobOpening(jobReference)</text><line style="stroke:#181818;stroke-width:0.8000000000000002;" x1="1592.8" x2="1630.4" y1="405.3078" y2="405.3078"/><line style="stroke:#181818;stroke-width:0.8000000000000002;" x1="1630.4" x2="1630.4" y1="405.3078" y2="415.7078"/><line style="stroke:#181818;stroke-width:0.8000000000000002;" x1="1597.6" x2="1630.4" y1="415.7078" y2="415.7078"/><polygon fill="#181818" points="1605.6,412.5078,1597.6,415.7078,1605.6,418.9078,1602.4,415.7078" style="stroke:#181818;stroke-width:0.8000000000000002;"/><text fill="#000000" font-family="sans-serif" font-size="10.4" font-weight="bold" lengthAdjust="spacing" textLength="14.4" x="1602.4" y="401.5141">14</text><text fill="#000000" font-family="sans-serif" font-size="10.4" lengthAdjust="spacing" textLength="216.8" x="1620" y="401.5141">allApplicationsOfJobOpening(jobReference)</text><polygon fill="#181818" points="1870.4,439.9563,1878.4,443.1563,1870.4,446.3563,1873.6,443.1563" style="stroke:#181818;stroke-width:0.8000000000000002;"/><line style="stroke:#181818;stroke-width:0.8000000000000002;" x1="1596.8" x2="1875.2" y1="443.1563" y2="443.1563"/><text fill="#000000" font-family="sans-serif" font-size="10.4" font-weight="bold" lengthAdjust="spacing" textLength="14.4" x="1602.4" y="439.3625">15</text><text fill="#000000" font-family="sans-serif" font-size="10.4" lengthAdjust="spacing" textLength="81.6" x="1620" y="439.3625">allApplications()</text><polygon fill="#181818" points="2104.8,463.4047,2112.8,466.6047,2104.8,469.8047,2108,466.6047" style="stroke:#181818;stroke-width:0.8000000000000002;"/><line style="stroke:#181818;stroke-width:0.8000000000000002;" x1="1888" x2="2109.6" y1="466.6047" y2="466.6047"/><text fill="#000000" font-family="sans-serif" font-size="10.4" font-weight="bold" lengthAdjust="spacing" textLength="14.4" x="1893.6" y="462.8109">16</text><text fill="#000000" font-family="sans-serif" font-size="10.4" lengthAdjust="spacing" textLength="81.6" x="1911.2" y="462.8109">allApplications()</text><polygon fill="#181818" points="1896.8,486.8531,1888.8,490.0531,1896.8,493.2531,1893.6,490.0531" style="stroke:#181818;stroke-width:0.8000000000000002;"/><line style="stroke:#181818;stroke-width:0.8000000000000002;stroke-dasharray:2.0,2.0;" x1="1892" x2="2117.6" y1="490.0531" y2="490.0531"/><text fill="#000000" font-family="sans-serif" font-size="10.4" font-weight="bold" lengthAdjust="spacing" textLength="14.4" x="1901.6" y="486.2594">17</text><text fill="#000000" font-family="sans-serif" font-size="10.4" lengthAdjust="spacing" textLength="189.6" x="1919.2" y="486.2594">Iterable&lt;Application&gt; allApplications</text><polygon fill="#181818" points="1601.6,510.3016,1593.6,513.5016,1601.6,516.7016,1598.4,513.5016" style="stroke:#181818;stroke-width:0.8000000000000002;"/><line style="stroke:#181818;stroke-width:0.8000000000000002;stroke-dasharray:2.0,2.0;" x1="1596.8" x2="1883.2" y1="513.5016" y2="513.5016"/><text fill="#000000" font-family="sans-serif" font-size="10.4" font-weight="bold" lengthAdjust="spacing" textLength="14.4" x="1606.4" y="509.7078">18</text><text fill="#000000" font-family="sans-serif" font-size="10.4" lengthAdjust="spacing" textLength="246.4" x="1624" y="509.7078">Iterable&lt;Application&gt; applicationsOfJobOpening</text><polygon fill="#181818" points="695.2,533.75,687.2,536.95,695.2,540.15,692,536.95" style="stroke:#181818;stroke-width:0.8000000000000002;"/><line style="stroke:#181818;stroke-width:0.8000000000000002;stroke-dasharray:2.0,2.0;" x1="690.4" x2="1588" y1="536.95" y2="536.95"/><text fill="#000000" font-family="sans-serif" font-size="10.4" font-weight="bold" lengthAdjust="spacing" textLength="14.4" x="700" y="533.1563">19</text><text fill="#000000" font-family="sans-serif" font-size="10.4" lengthAdjust="spacing" textLength="246.4" x="717.6" y="533.1563">Iterable&lt;Application&gt; applicationsOfJobOpening</text><polygon fill="#181818" points="364.8,557.1984,356.8,560.3984,364.8,563.5984,361.6,560.3984" style="stroke:#181818;stroke-width:0.8000000000000002;"/><line style="stroke:#181818;stroke-width:0.8000000000000002;stroke-dasharray:2.0,2.0;" x1="360" x2="681.6" y1="560.3984" y2="560.3984"/><text fill="#000000" font-family="sans-serif" font-size="10.4" font-weight="bold" lengthAdjust="spacing" textLength="14.4" x="369.6" y="556.6047">20</text><text fill="#000000" font-family="sans-serif" font-size="10.4" lengthAdjust="spacing" textLength="246.4" x="387.2" y="556.6047">Iterable&lt;Application&gt; applicationsOfJobOpening</text><polygon fill="#181818" points="44,592.8953,36,596.0953,44,599.2953,40.8,596.0953" style="stroke:#181818;stroke-width:0.8000000000000002;"/><line style="stroke:#181818;stroke-width:0.8000000000000002;stroke-dasharray:2.0,2.0;" x1="39.2" x2="351.2" y1="596.0953" y2="596.0953"/><text fill="#000000" font-family="sans-serif" font-size="10.4" font-weight="bold" lengthAdjust="spacing" textLength="14.4" x="48.8" y="586.1773">21</text><text fill="#000000" font-family="sans-serif" font-size="10.4" lengthAdjust="spacing" textLength="186.4" x="66.4" y="580.0531">lists applications of that job opening</text><text fill="#000000" font-family="sans-serif" font-size="10.4" lengthAdjust="spacing" textLength="112.8" x="69.6" y="592.3016">and asks to select one</text><polygon fill="#181818" points="338.4,616.3438,346.4,619.5438,338.4,622.7438,341.6,619.5438" style="stroke:#181818;stroke-width:0.8000000000000002;"/><line style="stroke:#181818;stroke-width:0.8000000000000002;" x1="35.2" x2="343.2" y1="619.5438" y2="619.5438"/><text fill="#000000" font-family="sans-serif" font-size="10.4" font-weight="bold" lengthAdjust="spacing" textLength="14.4" x="40.8" y="615.75">22</text><text fill="#000000" font-family="sans-serif" font-size="10.4" lengthAdjust="spacing" textLength="94.4" x="58.4" y="615.75">selects application</text><polygon fill="#181818" points="44,639.7922,36,642.9922,44,646.1922,40.8,642.9922" style="stroke:#181818;stroke-width:0.8000000000000002;"/><line style="stroke:#181818;stroke-width:0.8000000000000002;stroke-dasharray:2.0,2.0;" x1="39.2" x2="351.2" y1="642.9922" y2="642.9922"/><text fill="#000000" font-family="sans-serif" font-size="10.4" font-weight="bold" lengthAdjust="spacing" textLength="14.4" x="48.8" y="639.1984">23</text><text fill="#000000" font-family="sans-serif" font-size="10.4" lengthAdjust="spacing" textLength="276" x="66.4" y="639.1984">asks to enter the path to the file with the requirements</text><polygon fill="#181818" points="338.4,663.2406,346.4,666.4406,338.4,669.6406,341.6,666.4406" style="stroke:#181818;stroke-width:0.8000000000000002;"/><line style="stroke:#181818;stroke-width:0.8000000000000002;" x1="35.2" x2="343.2" y1="666.4406" y2="666.4406"/><text fill="#000000" font-family="sans-serif" font-size="10.4" font-weight="bold" lengthAdjust="spacing" textLength="14.4" x="40.8" y="662.6469">24</text><text fill="#000000" font-family="sans-serif" font-size="10.4" lengthAdjust="spacing" textLength="76" x="58.4" y="662.6469">enters the path</text><polygon fill="#181818" points="668.8,686.6891,676.8,689.8891,668.8,693.0891,672,689.8891" style="stroke:#181818;stroke-width:0.8000000000000002;"/><line style="stroke:#181818;stroke-width:0.8000000000000002;" x1="356" x2="673.6" y1="689.8891" y2="689.8891"/><text fill="#000000" font-family="sans-serif" font-size="10.4" font-weight="bold" lengthAdjust="spacing" textLength="14.4" x="361.6" y="686.0953">25</text><text fill="#000000" font-family="sans-serif" font-size="10.4" lengthAdjust="spacing" textLength="183.2" x="379.2" y="686.0953">retrieveResponseRequirements(path)</text><polygon fill="#181818" points="2179.6,710.1375,2187.6,713.3375,2179.6,716.5375,2182.8,713.3375" style="stroke:#181818;stroke-width:0.8000000000000002;"/><line style="stroke:#181818;stroke-width:0.8000000000000002;" x1="686.4" x2="2184.4" y1="713.3375" y2="713.3375"/><text fill="#000000" font-family="sans-serif" font-size="10.4" font-weight="bold" lengthAdjust="spacing" textLength="14.4" x="692" y="709.5438">26</text><text fill="#000000" font-family="sans-serif" font-size="10.4" lengthAdjust="spacing" textLength="30.4" x="709.6" y="709.5438">create</text><rect fill="#E2E2F0" height="37.5813" rx="2" ry="2" style="stroke:#181818;stroke-width:0.4000000000000001;" width="121.6" x="2189.2" y="696.2891"/><text fill="#000000" font-family="sans-serif" font-size="11.2" font-style="italic" lengthAdjust="spacing" textLength="46.4" x="2226.8" y="712.7172">&#171;plugin&#187;</text><text fill="#000000" font-family="sans-serif" font-size="11.2" lengthAdjust="spacing" textLength="110.4" x="2194.8" y="725.9078">RequirementsPlugin</text><polygon fill="#181818" points="2236.4,756.5188,2244.4,759.7188,2236.4,762.9188,2239.6,759.7188" style="stroke:#181818;stroke-width:0.8000000000000002;"/><line style="stroke:#181818;stroke-width:0.8000000000000002;" x1="686.4" x2="2241.2" y1="759.7188" y2="759.7188"/><text fill="#000000" font-family="sans-serif" font-size="10.4" font-weight="bold" lengthAdjust="spacing" textLength="14.4" x="692" y="755.925">27</text><text fill="#000000" font-family="sans-serif" font-size="10.4" lengthAdjust="spacing" textLength="177.6" x="709.6" y="755.925">retrieveAnswersRequirements(path)</text><polygon fill="#181818" points="695.2,779.9672,687.2,783.1672,695.2,786.3672,692,783.1672" style="stroke:#181818;stroke-width:0.8000000000000002;"/><line style="stroke:#181818;stroke-width:0.8000000000000002;stroke-dasharray:2.0,2.0;" x1="690.4" x2="2249.2" y1="783.1672" y2="783.1672"/><text fill="#000000" font-family="sans-serif" font-size="10.4" font-weight="bold" lengthAdjust="spacing" textLength="14.4" x="700" y="779.3734">28</text><text fill="#000000" font-family="sans-serif" font-size="10.4" lengthAdjust="spacing" textLength="184.8" x="717.6" y="779.3734">List&lt;String&gt; candidateRequirements</text><polygon fill="#181818" points="364.8,803.4156,356.8,806.6156,364.8,809.8156,361.6,806.6156" style="stroke:#181818;stroke-width:0.8000000000000002;"/><line style="stroke:#181818;stroke-width:0.8000000000000002;stroke-dasharray:2.0,2.0;" x1="360" x2="681.6" y1="806.6156" y2="806.6156"/><text fill="#000000" font-family="sans-serif" font-size="10.4" font-weight="bold" lengthAdjust="spacing" textLength="14.4" x="369.6" y="802.8219">29</text><text fill="#000000" font-family="sans-serif" font-size="10.4" lengthAdjust="spacing" textLength="184.8" x="387.2" y="802.8219">List&lt;String&gt; candidateRequirements</text><polygon fill="#181818" points="668.8,826.8641,676.8,830.0641,668.8,833.2641,672,830.0641" style="stroke:#181818;stroke-width:0.8000000000000002;"/><line style="stroke:#181818;stroke-width:0.8000000000000002;" x1="356" x2="673.6" y1="830.0641" y2="830.0641"/><text fill="#000000" font-family="sans-serif" font-size="10.4" font-weight="bold" lengthAdjust="spacing" textLength="14.4" x="361.6" y="826.2703">30</text><text fill="#000000" font-family="sans-serif" font-size="10.4" lengthAdjust="spacing" textLength="289.6" x="379.2" y="826.2703">uploadRequirements(candidateRequirements, application)</text><polygon fill="#181818" points="2396,850.3125,2404,853.5125,2396,856.7125,2399.2,853.5125" style="stroke:#181818;stroke-width:0.8000000000000002;"/><line style="stroke:#181818;stroke-width:0.8000000000000002;" x1="686.4" x2="2400.8" y1="853.5125" y2="853.5125"/><text fill="#000000" font-family="sans-serif" font-size="10.4" font-weight="bold" lengthAdjust="spacing" textLength="14.4" x="692" y="849.7188">31</text><text fill="#000000" font-family="sans-serif" font-size="10.4" lengthAdjust="spacing" textLength="230.4" x="709.6" y="849.7188">registerCandidateRequirements(requirements)</text><polygon fill="#181818" points="2656,873.7609,2664,876.9609,2656,880.1609,2659.2,876.9609" style="stroke:#181818;stroke-width:0.8000000000000002;"/><line style="stroke:#181818;stroke-width:0.8000000000000002;" x1="2413.6" x2="2660.8" y1="876.9609" y2="876.9609"/><text fill="#000000" font-family="sans-serif" font-size="10.4" font-weight="bold" lengthAdjust="spacing" textLength="14.4" x="2419.2" y="873.1672">32</text><text fill="#000000" font-family="sans-serif" font-size="10.4" lengthAdjust="spacing" textLength="215.2" x="2436.8" y="873.1672">new CandidateRequirements(requirements)</text><rect fill="#E2E2F0" height="37.5813" rx="2" ry="2" style="stroke:#181818;stroke-width:0.4000000000000001;" width="152" x="2665.6" y="859.9125"/><text fill="#000000" font-family="sans-serif" font-size="11.2" font-style="italic" lengthAdjust="spacing" textLength="140.8" x="2671.2" y="876.3406">&#171;candidateRequirements&#187;</text><text fill="#000000" font-family="sans-serif" font-size="11.2" lengthAdjust="spacing" textLength="132" x="2675.6" y="889.5313">CandidateRequirements</text><polygon fill="#181818" points="2422.4,920.1422,2414.4,923.3422,2422.4,926.5422,2419.2,923.3422" style="stroke:#181818;stroke-width:0.8000000000000002;"/><line style="stroke:#181818;stroke-width:0.8000000000000002;stroke-dasharray:2.0,2.0;" x1="2417.6" x2="2740.8" y1="923.3422" y2="923.3422"/><text fill="#000000" font-family="sans-serif" font-size="10.4" font-weight="bold" lengthAdjust="spacing" textLength="14.4" x="2427.2" y="919.5484">33</text><text fill="#000000" font-family="sans-serif" font-size="10.4" lengthAdjust="spacing" textLength="118.4" x="2444.8" y="919.5484">candidate requirements</text><polygon fill="#181818" points="695.2,943.5906,687.2,946.7906,695.2,949.9906,692,946.7906" style="stroke:#181818;stroke-width:0.8000000000000002;"/><line style="stroke:#181818;stroke-width:0.8000000000000002;stroke-dasharray:2.0,2.0;" x1="690.4" x2="2408.8" y1="946.7906" y2="946.7906"/><text fill="#000000" font-family="sans-serif" font-size="10.4" font-weight="bold" lengthAdjust="spacing" textLength="14.4" x="700" y="942.9969">34</text><text fill="#000000" font-family="sans-serif" font-size="10.4" lengthAdjust="spacing" textLength="118.4" x="717.6" y="942.9969">candidate requirements</text><polygon fill="#181818" points="1870.4,967.0391,1878.4,970.2391,1870.4,973.4391,1873.6,970.2391" style="stroke:#181818;stroke-width:0.8000000000000002;"/><line style="stroke:#181818;stroke-width:0.8000000000000002;" x1="686.4" x2="1875.2" y1="970.2391" y2="970.2391"/><text fill="#000000" font-family="sans-serif" font-size="10.4" font-weight="bold" lengthAdjust="spacing" textLength="14.4" x="692" y="966.4453">35</text><text fill="#000000" font-family="sans-serif" font-size="10.4" lengthAdjust="spacing" textLength="340" x="709.6" y="966.4453">uploadCandidateRequirements(application, candidateRequirements)</text><polygon fill="#181818" points="2536.4,990.4875,2544.4,993.6875,2536.4,996.8875,2539.6,993.6875" style="stroke:#181818;stroke-width:0.8000000000000002;"/><line style="stroke:#181818;stroke-width:0.8000000000000002;" x1="1888" x2="2541.2" y1="993.6875" y2="993.6875"/><text fill="#000000" font-family="sans-serif" font-size="10.4" font-weight="bold" lengthAdjust="spacing" textLength="14.4" x="1893.6" y="989.8938">36</text><text fill="#000000" font-family="sans-serif" font-size="10.4" lengthAdjust="spacing" textLength="277.6" x="1911.2" y="989.8938">uploadCandidateRequirements(candidateRequirements)</text><polygon fill="#181818" points="1896.8,1013.9359,1888.8,1017.1359,1896.8,1020.3359,1893.6,1017.1359" style="stroke:#181818;stroke-width:0.8000000000000002;"/><line style="stroke:#181818;stroke-width:0.8000000000000002;stroke-dasharray:2.0,2.0;" x1="1892" x2="2549.2" y1="1017.1359" y2="1017.1359"/><text fill="#000000" font-family="sans-serif" font-size="10.4" font-weight="bold" lengthAdjust="spacing" textLength="14.4" x="1901.6" y="1013.3422">37</text><text fill="#000000" font-family="sans-serif" font-size="10.4" lengthAdjust="spacing" textLength="20" x="1919.2" y="1013.3422">true</text><polygon fill="#181818" points="695.2,1037.3844,687.2,1040.5844,695.2,1043.7844,692,1040.5844" style="stroke:#181818;stroke-width:0.8000000000000002;"/><line style="stroke:#181818;stroke-width:0.8000000000000002;stroke-dasharray:2.0,2.0;" x1="690.4" x2="1883.2" y1="1040.5844" y2="1040.5844"/><text fill="#000000" font-family="sans-serif" font-size="10.4" font-weight="bold" lengthAdjust="spacing" textLength="14.4" x="700" y="1036.7906">38</text><text fill="#000000" font-family="sans-serif" font-size="10.4" lengthAdjust="spacing" textLength="20" x="717.6" y="1036.7906">true</text><polygon fill="#181818" points="2104.8,1060.8328,2112.8,1064.0328,2104.8,1067.2328,2108,1064.0328" style="stroke:#181818;stroke-width:0.8000000000000002;"/><line style="stroke:#181818;stroke-width:0.8000000000000002;" x1="686.4" x2="2109.6" y1="1064.0328" y2="1064.0328"/><text fill="#000000" font-family="sans-serif" font-size="10.4" font-weight="bold" lengthAdjust="spacing" textLength="14.4" x="692" y="1060.2391">39</text><text fill="#000000" font-family="sans-serif" font-size="10.4" lengthAdjust="spacing" textLength="84.8" x="709.6" y="1060.2391">save(application)</text><polygon fill="#181818" points="695.2,1084.2813,687.2,1087.4813,695.2,1090.6813,692,1087.4813" style="stroke:#181818;stroke-width:0.8000000000000002;"/><line style="stroke:#181818;stroke-width:0.8000000000000002;stroke-dasharray:2.0,2.0;" x1="690.4" x2="2117.6" y1="1087.4813" y2="1087.4813"/><text fill="#000000" font-family="sans-serif" font-size="10.4" font-weight="bold" lengthAdjust="spacing" textLength="14.4" x="700" y="1083.6875">40</text><text fill="#000000" font-family="sans-serif" font-size="10.4" lengthAdjust="spacing" textLength="20" x="717.6" y="1083.6875">true</text><polygon fill="#181818" points="364.8,1107.7297,356.8,1110.9297,364.8,1114.1297,361.6,1110.9297" style="stroke:#181818;stroke-width:0.8000000000000002;"/><line style="stroke:#181818;stroke-width:0.8000000000000002;stroke-dasharray:2.0,2.0;" x1="360" x2="681.6" y1="1110.9297" y2="1110.9297"/><text fill="#000000" font-family="sans-serif" font-size="10.4" font-weight="bold" lengthAdjust="spacing" textLength="14.4" x="369.6" y="1107.1359">41</text><text fill="#000000" font-family="sans-serif" font-size="10.4" lengthAdjust="spacing" textLength="56" x="387.2" y="1107.1359">application</text><polygon fill="#181818" points="40,1131.1781,32,1134.3781,40,1137.5781,36.8,1134.3781" style="stroke:#181818;stroke-width:0.8000000000000002;"/><line style="stroke:#181818;stroke-width:0.8000000000000002;stroke-dasharray:2.0,2.0;" x1="35.2" x2="351.2" y1="1134.3781" y2="1134.3781"/><text fill="#000000" font-family="sans-serif" font-size="10.4" font-weight="bold" lengthAdjust="spacing" textLength="14.4" x="44.8" y="1130.5844">42</text><text fill="#000000" font-family="sans-serif" font-size="10.4" lengthAdjust="spacing" textLength="136" x="62.4" y="1130.5844">displays operation success</text><!--SRC=[nPdDRkCW483lUGgEsQfzWQgALFMmsjLANRLRxMKln9aqT5tm0axKjz_1hcsm0MCdJNFo3p3V3CFyEBJKWfUlQv2B1SsqaEI-04dnOh4egDGiOmNbcZmLkQ2R1_XNCWclmBMwvUe0KZrz8pStXGI5pwXcWgzMQHFl1DTIv3b8N21hRthJlm8tEE1Pu1Uy5Zc-IblekrYZPfpnvqUGUvO13bRr5OxSK4tNL071NpVo0GgX6DhY3GVBzgQtyW-cT3VdjYXobbMMI5JHcX55iyQbWTas-vcNpuoRhQekUYFlAD-mJS_CFfW0DuwXtLtAuiOWlkSujt94jiSNbY-QZMdkoDKgwe_NXAg_YcX1oceKqJiWqXOkjWI5avQWMhwL6bcx1Z6_642Cp_A9Qx9bV7ERvvttgDzCx_3MdhZyqWeTH-oMxr2Zk1OFOayxRjCLS9IO9CnLn_ociQ9omn20dkB0zqWTsi7i8P4RFHeXZcJhvBRMyqWDIEvc-uK7mzTLGFrl6asupk6cUxdgsSGhQ0Cpw3occU5oSv2zkC5jdEXOoQVT90g7sev9Ym3l4OSawSp7Osagj0KyAJH5eoYYjI7_ckG8eiYBM1FnlitaWB763Un_U1NOc_Yl88TC4y7h29z2sSJuz6HJ2wdHtgtqMVb4xSJ1Ba3kjztEBLzCLDw219x16LDAKdaq2zt1Jn4pFEf9SEbAO1YQeSC9z9YYYwVU792FfQJX6k64v97dKZWvCGqa19EI87jClIpfjKwRSwotgpvgKA0LTYQY-aoNxeq1we23BjBHcosFZFx8uvWS3eymm56gd23npgS_MogsIKn7fNTKs_dvKvEn1NVgPEpQej4E1-6kcawpe5YLu1DplMKvr6LAlmVzG1jKAAfb-QnYH8AM3FPOkQe2NSIfO9S6x8n5oF1JoCK58cOIckx_w0KjZTzdH1Hsb1wkDOoC7daJ6uz7P3Frk_UpIoZsZQ6T9j9DuFkGw9Pgnt8mQkcblRJ3pnczFFePpxZdCneQf7VOqWvE0KUDhJzqsIXDYBOwbXmEP2haEAY_pF9_dRmQjsQxy-4slkUmYLHnkoKxQmBV69jtQnDzqLj7rmV8lxNMaRdq1u60LwRq8gCzo0XS0a-8oUzsjkXWsw5b6Isoer82lKEQymmannk18nt4QG0LtSFI6p_dD7tXHk-aXWWXd2O_zelPCvNv6wQAdBufKz3BsbLLcMMWfXMlrhZs_vp_]--></g></svg>