<?xml version="1.0" encoding="us-ascii" standalone="no"?><svg xmlns="http://www.w3.org/2000/svg" xmlns:xlink="http://www.w3.org/1999/xlink" contentStyleType="text/css" height="898px" preserveAspectRatio="none" style="width:893px;height:898px;background:#FFFFFF;" version="1.1" viewBox="0 0 893 898" width="893px" zoomAndPan="magnify"><defs><filter height="300%" id="f1ac71hw9yiumw" width="300%" x="-1" y="-1"><feGaussianBlur result="blurOut" stdDeviation="2.0"/><feColorMatrix in="blurOut" result="blurOut2" type="matrix" values="0 0 0 0 0 0 0 0 0 0 0 0 0 0 0 0 0 0 .4 0"/><feOffset dx="4.0" dy="4.0" in="blurOut2" result="blurOut3"/><feBlend in="SourceGraphic" in2="blurOut3" mode="normal"/></filter></defs><g><text fill="#000000" font-family="sans-serif" font-size="14" font-weight="bold" lengthAdjust="spacing" textLength="160" x="359.75" y="23.5352">Project Domain Model</text><!--class User--><g id="elem_User"><rect codeLine="21" fill="#F0FFFF" filter="url(#f1ac71hw9yiumw)" height="166.3945" id="User" rx="2.5" ry="2.5" style="stroke:#00008B;stroke-width:0.5;" width="227" x="243" y="44.4883"/><text fill="#000000" font-family="sans-serif" font-size="14" lengthAdjust="spacing" textLength="31" x="341" y="63.0234">User</text><line style="stroke:#00008B;stroke-width:0.5;" x1="244" x2="469" y1="70.9766" y2="70.9766"/><text fill="#000000" font-family="sans-serif" font-size="14" lengthAdjust="spacing" textLength="70" x="249" y="88.5117">UserName</text><text fill="#000000" font-family="sans-serif" font-size="14" lengthAdjust="spacing" textLength="79" x="249" y="105">DateOfBirth</text><text fill="#000000" font-family="sans-serif" font-size="14" lengthAdjust="spacing" textLength="119" x="249" y="121.4883">DateOfAdmission</text><text fill="#000000" font-family="sans-serif" font-size="14" lengthAdjust="spacing" textLength="56" x="249" y="137.9766">Address</text><text fill="#000000" font-family="sans-serif" font-size="14" lengthAdjust="spacing" textLength="98" x="249" y="154.4648">PhoneNumber</text><text fill="#000000" font-family="sans-serif" font-size="14" lengthAdjust="spacing" textLength="37" x="249" y="170.9531">Email</text><text fill="#000000" font-family="sans-serif" font-size="14" lengthAdjust="spacing" textLength="215" x="249" y="187.4414">IdentificationDocumentNumber</text><text fill="#000000" font-family="sans-serif" font-size="14" lengthAdjust="spacing" textLength="118" x="249" y="203.9297">TaxPayerNumber</text></g><!--class UserType--><g id="elem_UserType"><rect codeLine="32" fill="#F0FFFF" filter="url(#f1ac71hw9yiumw)" height="50.9766" id="UserType" rx="2.5" ry="2.5" style="stroke:#00008B;stroke-width:0.5;" width="115" x="7" y="295.4883"/><text fill="#000000" font-family="sans-serif" font-size="14" lengthAdjust="spacing" textLength="64" x="32.5" y="314.0234">UserType</text><line style="stroke:#00008B;stroke-width:0.5;" x1="8" x2="121" y1="321.9766" y2="321.9766"/><text fill="#000000" font-family="sans-serif" font-size="14" lengthAdjust="spacing" textLength="103" x="13" y="339.5117">UserTypeName</text></g><!--class UserPortal--><g id="elem_UserPortal"><rect codeLine="36" fill="#F0FFFF" filter="url(#f1ac71hw9yiumw)" height="34.4883" id="UserPortal" rx="2.5" ry="2.5" style="stroke:#00008B;stroke-width:0.5;" width="77" x="280" y="303.9883"/><text fill="#000000" font-family="sans-serif" font-size="14" lengthAdjust="spacing" textLength="71" x="283" y="322.5234">UserPortal</text><line style="stroke:#00008B;stroke-width:0.5;" x1="281" x2="356" y1="330.4766" y2="330.4766"/></g><!--class Feedback--><g id="elem_Feedback"><rect codeLine="39" fill="#F0FFFF" filter="url(#f1ac71hw9yiumw)" height="67.4648" id="Feedback" rx="2.5" ry="2.5" style="stroke:#00008B;stroke-width:0.5;" width="79" x="197" y="431.4883"/><text fill="#000000" font-family="sans-serif" font-size="14" lengthAdjust="spacing" textLength="65" x="204" y="450.0234">Feedback</text><line style="stroke:#00008B;stroke-width:0.5;" x1="198" x2="275" y1="457.9766" y2="457.9766"/><text fill="#000000" font-family="sans-serif" font-size="14" lengthAdjust="spacing" textLength="67" x="203" y="475.5117">Comment</text><text fill="#000000" font-family="sans-serif" font-size="14" lengthAdjust="spacing" textLength="46" x="203" y="492">Report</text></g><!--class Job--><g id="elem_Job"><rect codeLine="44" fill="#F0FFFF" filter="url(#f1ac71hw9yiumw)" height="67.4648" id="Job" rx="2.5" ry="2.5" style="stroke:#00008B;stroke-width:0.5;" width="90" x="473.5" y="287.4883"/><text fill="#000000" font-family="sans-serif" font-size="14" lengthAdjust="spacing" textLength="22" x="507.5" y="306.0234">Job</text><line style="stroke:#00008B;stroke-width:0.5;" x1="474.5" x2="562.5" y1="313.9766" y2="313.9766"/><text fill="#000000" font-family="sans-serif" font-size="14" lengthAdjust="spacing" textLength="61" x="479.5" y="331.5117">JobName</text><text fill="#000000" font-family="sans-serif" font-size="14" lengthAdjust="spacing" textLength="78" x="479.5" y="348">Description</text></g><!--class Task--><g id="elem_Task"><rect codeLine="49" fill="#F0FFFF" filter="url(#f1ac71hw9yiumw)" height="50.9766" id="Task" rx="2.5" ry="2.5" style="stroke:#00008B;stroke-width:0.5;" width="122" x="465.5" y="439.4883"/><text fill="#000000" font-family="sans-serif" font-size="14" lengthAdjust="spacing" textLength="32" x="510.5" y="458.0234">Task</text><line style="stroke:#00008B;stroke-width:0.5;" x1="466.5" x2="586.5" y1="465.9766" y2="465.9766"/><text fill="#000000" font-family="sans-serif" font-size="14" lengthAdjust="spacing" textLength="110" x="471.5" y="483.5117">TaskDescription</text></g><!--class Skill--><g id="elem_Skill"><rect codeLine="54" fill="#F0FFFF" filter="url(#f1ac71hw9yiumw)" height="50.9766" id="Skill" rx="2.5" ry="2.5" style="stroke:#00008B;stroke-width:0.5;" width="79" x="599" y="295.4883"/><text fill="#000000" font-family="sans-serif" font-size="14" lengthAdjust="spacing" textLength="28" x="624.5" y="314.0234">Skill</text><line style="stroke:#00008B;stroke-width:0.5;" x1="600" x2="677" y1="321.9766" y2="321.9766"/><text fill="#000000" font-family="sans-serif" font-size="14" lengthAdjust="spacing" textLength="67" x="605" y="339.5117">SkillName</text></g><!--class Team--><g id="elem_Team"><rect codeLine="58" fill="#F0FFFF" filter="url(#f1ac71hw9yiumw)" height="34.4883" id="Team" rx="2.5" ry="2.5" style="stroke:#00008B;stroke-width:0.5;" width="44" x="392.5" y="303.9883"/><text fill="#000000" font-family="sans-serif" font-size="14" lengthAdjust="spacing" textLength="38" x="395.5" y="322.5234">Team</text><line style="stroke:#00008B;stroke-width:0.5;" x1="393.5" x2="435.5" y1="330.4766" y2="330.4766"/></g><!--class Entry--><g id="elem_Entry"><rect codeLine="61" fill="#F0FFFF" filter="url(#f1ac71hw9yiumw)" height="50.9766" id="Entry" rx="2.5" ry="2.5" style="stroke:#00008B;stroke-width:0.5;" width="43" x="348" y="641.4883"/><text fill="#000000" font-family="sans-serif" font-size="14" lengthAdjust="spacing" textLength="35" x="352" y="660.0234">Entry</text><line style="stroke:#00008B;stroke-width:0.5;" x1="349" x2="390" y1="667.9766" y2="667.9766"/><text fill="#000000" font-family="sans-serif" font-size="14" lengthAdjust="spacing" textLength="31" x="354" y="685.5117">Date</text></g><!--class Vehicle--><g id="elem_Vehicle"><rect codeLine="65" fill="#F0FFFF" filter="url(#f1ac71hw9yiumw)" height="182.8828" id="Vehicle" rx="2.5" ry="2.5" style="stroke:#00008B;stroke-width:0.5;" width="231" x="549" y="575.4883"/><text fill="#000000" font-family="sans-serif" font-size="14" lengthAdjust="spacing" textLength="49" x="640" y="594.0234">Vehicle</text><line style="stroke:#00008B;stroke-width:0.5;" x1="550" x2="779" y1="601.9766" y2="601.9766"/><text fill="#000000" font-family="sans-serif" font-size="14" lengthAdjust="spacing" textLength="40" x="555" y="619.5117">Brand</text><text fill="#000000" font-family="sans-serif" font-size="14" lengthAdjust="spacing" textLength="42" x="555" y="636">Model</text><text fill="#000000" font-family="sans-serif" font-size="14" lengthAdjust="spacing" textLength="33" x="555" y="652.4883">Type</text><text fill="#000000" font-family="sans-serif" font-size="14" lengthAdjust="spacing" textLength="31" x="555" y="668.9766">Tare</text><text fill="#000000" font-family="sans-serif" font-size="14" lengthAdjust="spacing" textLength="90" x="555" y="685.4648">Gross Weight</text><text fill="#000000" font-family="sans-serif" font-size="14" lengthAdjust="spacing" textLength="79" x="555" y="701.9531">Current Km</text><text fill="#000000" font-family="sans-serif" font-size="14" lengthAdjust="spacing" textLength="91" x="555" y="718.4414">Register Date</text><text fill="#000000" font-family="sans-serif" font-size="14" lengthAdjust="spacing" textLength="112" x="555" y="734.9297">Acquisition Date</text><text fill="#000000" font-family="sans-serif" font-size="14" lengthAdjust="spacing" textLength="219" x="555" y="751.418">MaintenanceCheckUpFrequency</text></g><!--class Machines--><g id="elem_Machines"><rect codeLine="76" fill="#F0FFFF" filter="url(#f1ac71hw9yiumw)" height="50.9766" id="Machines" rx="2.5" ry="2.5" style="stroke:#00008B;stroke-width:0.5;" width="102" x="489.5" y="835.4883"/><text fill="#000000" font-family="sans-serif" font-size="14" lengthAdjust="spacing" textLength="64" x="508.5" y="854.0234">Machines</text><line style="stroke:#00008B;stroke-width:0.5;" x1="490.5" x2="590.5" y1="861.9766" y2="861.9766"/><text fill="#000000" font-family="sans-serif" font-size="14" lengthAdjust="spacing" textLength="90" x="495.5" y="879.5117">MachineType</text></g><!--class Equipment--><g id="elem_Equipment"><rect codeLine="79" fill="#F0FFFF" filter="url(#f1ac71hw9yiumw)" height="50.9766" id="Equipment" rx="2.5" ry="2.5" style="stroke:#00008B;stroke-width:0.5;" width="119" x="654" y="835.4883"/><text fill="#000000" font-family="sans-serif" font-size="14" lengthAdjust="spacing" textLength="74" x="676.5" y="854.0234">Equipment</text><line style="stroke:#00008B;stroke-width:0.5;" x1="655" x2="772" y1="861.9766" y2="861.9766"/><text fill="#000000" font-family="sans-serif" font-size="14" lengthAdjust="spacing" textLength="107" x="660" y="879.5117">EquipmentType</text></g><!--class GreenSpace--><g id="elem_GreenSpace"><rect codeLine="82" fill="#F0FFFF" filter="url(#f1ac71hw9yiumw)" height="50.9766" id="GreenSpace" rx="2.5" ry="2.5" style="stroke:#00008B;stroke-width:0.5;" width="126" x="203.5" y="835.4883"/><text fill="#000000" font-family="sans-serif" font-size="14" lengthAdjust="spacing" textLength="81" x="226" y="854.0234">GreenSpace</text><line style="stroke:#00008B;stroke-width:0.5;" x1="204.5" x2="328.5" y1="861.9766" y2="861.9766"/><text fill="#000000" font-family="sans-serif" font-size="14" lengthAdjust="spacing" textLength="114" x="209.5" y="879.5117">GreenSpaceType</text></g><!--class Diary--><g id="elem_Diary"><rect fill="#F0FFFF" filter="url(#f1ac71hw9yiumw)" height="34.4883" id="Diary" rx="2.5" ry="2.5" style="stroke:#00008B;stroke-width:0.5;" width="41" x="365" y="843.9883"/><text fill="#000000" font-family="sans-serif" font-size="14" lengthAdjust="spacing" textLength="35" x="368" y="862.5234">Diary</text><line style="stroke:#00008B;stroke-width:0.5;" x1="366" x2="405" y1="870.4766" y2="870.4766"/></g><!--link User to Team--><g id="link_User_Team"><path codeLine="86" d="M381.34,210.7283 C386.04,226.2583 390.92,242.3783 395.5,257.4883 C400.24,273.1183 405.66,290.9383 409.49,303.5383 " fill="none" id="User-Team" style="stroke:#1E90FF;stroke-width:1.0;"/><polygon fill="#000000" points="399.0487,244.3588,398.8617,253.8675,404.4865,252.1615,399.0487,244.3588" style="stroke:#000000;stroke-width:1.0;"/><text fill="#000000" font-family="sans-serif" font-size="13" lengthAdjust="spacing" textLength="67" x="409.5" y="254.0566">belongs to</text><text fill="#000000" font-family="sans-serif" font-size="13" lengthAdjust="spacing" textLength="6" x="377.2851" y="231.3744">*</text><text fill="#000000" font-family="sans-serif" font-size="13" lengthAdjust="spacing" textLength="8" x="398.6181" y="293.1255">1</text></g><!--link User to UserType--><g id="link_User_UserType"><path codeLine="87" d="M242.64,173.0483 C204.58,190.8683 163.29,213.6083 129.5,240.4883 C110.1,255.9183 92.61,278.0283 80.67,295.0183 " fill="none" id="User-UserType" style="stroke:#1E90FF;stroke-width:1.0;"/><polygon fill="#000000" points="130.5058,252.1513,139.4993,249.0579,135.9634,244.3625,130.5058,252.1513" style="stroke:#000000;stroke-width:1.0;"/><text fill="#000000" font-family="sans-serif" font-size="13" lengthAdjust="spacing" textLength="22" x="143.5" y="254.0566">has</text><text fill="#000000" font-family="sans-serif" font-size="13" lengthAdjust="spacing" textLength="6" x="229.1537" y="173.0522">*</text><text fill="#000000" font-family="sans-serif" font-size="13" lengthAdjust="spacing" textLength="8" x="75.4843" y="284.8853">1</text></g><!--link User to UserPortal--><g id="link_User_UserPortal"><path codeLine="88" d="M319.33,210.9083 C316.13,220.7183 313.39,230.7183 311.5,240.4883 C310.07,247.9083 311.08,249.9483 311.5,257.4883 C312.38,273.1883 314.48,290.9983 316.16,303.5783 " fill="none" id="User-UserPortal" style="stroke:#1E90FF;stroke-width:1.0;"/><polygon fill="#000000" points="316.3291,254.1406,319.5755,245.2013,313.7011,245.0004,316.3291,254.1406" style="stroke:#000000;stroke-width:1.0;"/><text fill="#000000" font-family="sans-serif" font-size="13" lengthAdjust="spacing" textLength="29" x="325.5" y="254.0566">uses</text><text fill="#000000" font-family="sans-serif" font-size="13" lengthAdjust="spacing" textLength="6" x="309.7524" y="231.5705">*</text><text fill="#000000" font-family="sans-serif" font-size="13" lengthAdjust="spacing" textLength="8" x="306.1391" y="293.1783">1</text></g><!--link User to Skill--><g id="link_User_Skill"><path codeLine="89" d="M470.33,190.5183 C496.28,205.9383 523.33,223.0783 547.5,240.4883 C570.82,257.2883 595.24,278.8683 612.91,295.3083 " fill="none" id="User-Skill" style="stroke:#1E90FF;stroke-width:1.0;"/><polygon fill="#000000" points="577.5289,252.1046,571.981,244.3799,568.5001,249.1161,577.5289,252.1046" style="stroke:#000000;stroke-width:1.0;"/><text fill="#000000" font-family="sans-serif" font-size="13" lengthAdjust="spacing" textLength="22" x="582.5" y="254.0566">has</text><text fill="#000000" font-family="sans-serif" font-size="13" lengthAdjust="spacing" textLength="6" x="478.1795" y="191.8147">*</text><text fill="#000000" font-family="sans-serif" font-size="13" lengthAdjust="spacing" textLength="6" x="599.9412" y="284.8297">*</text></g><!--link User to Job--><g id="link_User_Job"><path codeLine="90" d="M456.3,210.8383 C465.36,220.3483 473.95,230.3083 481.5,240.4883 C491.93,254.5483 500.45,272.0283 506.68,286.9983 " fill="none" id="User-Job" style="stroke:#1E90FF;stroke-width:1.0;"/><polygon fill="#000000" points="499.2586,253.3137,496.7194,244.1484,491.8171,247.3913,499.2586,253.3137" style="stroke:#000000;stroke-width:1.0;"/><text fill="#000000" font-family="sans-serif" font-size="13" lengthAdjust="spacing" textLength="33" x="505.5" y="254.0566">has a</text><text fill="#000000" font-family="sans-serif" font-size="13" lengthAdjust="spacing" textLength="6" x="458.9213" y="231.4942">*</text><text fill="#000000" font-family="sans-serif" font-size="13" lengthAdjust="spacing" textLength="8" x="495.6643" y="276.6429">1</text></g><!--link User to Feedback--><g id="link_User_Feedback"><path codeLine="91" d="M260.17,210.5783 C239.95,233.2183 221.45,259.3783 210.5,287.4883 C191.95,335.1083 208.11,394.6683 221.95,430.9883 " fill="none" id="User-Feedback" style="stroke:#1E90FF;stroke-width:1.0;"/><polygon fill="#000000" points="214.6457,326.07,219.0868,317.6601,213.2954,316.6558,214.6457,326.07" style="stroke:#000000;stroke-width:1.0;"/><text fill="#000000" font-family="sans-serif" font-size="13" lengthAdjust="spacing" textLength="37" x="224.5" y="326.0566">sends</text><text fill="#000000" font-family="sans-serif" font-size="13" lengthAdjust="spacing" textLength="8" x="242.9208" y="231.494">1</text><text fill="#000000" font-family="sans-serif" font-size="13" lengthAdjust="spacing" textLength="6" x="212.6045" y="420.631">*</text></g><!--link UserPortal to Feedback--><g id="link_UserPortal_Feedback"><path codeLine="93" d="M309.09,338.2783 C296.09,360.7883 272.34,401.9183 255.56,430.9883 " fill="none" id="UserPortal-Feedback" style="stroke:#1E90FF;stroke-width:1.0;"/><polygon fill="#000000" points="282.9999,397.4736,290.0678,391.11,284.9775,388.1709,282.9999,397.4736" style="stroke:#000000;stroke-width:1.0;"/><text fill="#000000" font-family="sans-serif" font-size="13" lengthAdjust="spacing" textLength="51" x="294.5" y="398.0566">receives</text><text fill="#000000" font-family="sans-serif" font-size="13" lengthAdjust="spacing" textLength="8" x="296.6479" y="359.0289">1</text><text fill="#000000" font-family="sans-serif" font-size="13" lengthAdjust="spacing" textLength="6" x="252.6214" y="420.631">*</text></g><!--link Skill to Task--><g id="link_Skill_Task"><path codeLine="94" d="M618.99,346.7183 C598.56,372.6283 566.65,413.0883 546.16,439.0583 " fill="none" id="Skill-Task" style="stroke:#1E90FF;stroke-width:1.0;"/><polygon fill="#000000" points="593.5964,389.2177,585.6874,394.4996,590.3025,398.1397,593.5964,389.2177" style="stroke:#000000;stroke-width:1.0;"/><text fill="#000000" font-family="sans-serif" font-size="13" lengthAdjust="spacing" textLength="51" x="599.5" y="398.0566">requires</text><text fill="#000000" font-family="sans-serif" font-size="13" lengthAdjust="spacing" textLength="6" x="607.7846" y="367.0097">*</text><text fill="#000000" font-family="sans-serif" font-size="13" lengthAdjust="spacing" textLength="6" x="544.0126" y="428.9346">*</text></g><!--link Job to Task--><g id="link_Job_Task"><path codeLine="95" d="M520.36,354.9183 C521.8,380.6483 523.79,415.8383 525.1,439.2083 " fill="none" id="Job-Task" style="stroke:#1E90FF;stroke-width:1.0;"/><polygon fill="#000000" points="527.7807,398.1357,530.2072,388.9398,524.3386,389.2699,527.7807,398.1357" style="stroke:#000000;stroke-width:1.0;"/><text fill="#000000" font-family="sans-serif" font-size="13" lengthAdjust="spacing" textLength="22" x="536.5" y="398.0566">has</text><text fill="#000000" font-family="sans-serif" font-size="13" lengthAdjust="spacing" textLength="8" x="511.9387" y="375.628">1</text><text fill="#000000" font-family="sans-serif" font-size="13" lengthAdjust="spacing" textLength="6" x="518.0275" y="428.7053">*</text></g><!--link Team to Task--><g id="link_Team_Task"><path codeLine="96" d="M417.04,338.2483 C420.35,355.3283 427.46,382.3183 441.5,401.4883 C452.32,416.2683 467.66,429.0383 482.33,439.1083 " fill="none" id="Team-Task" style="stroke:#1E90FF;stroke-width:1.0;"/><polygon fill="#000000" points="449.2171,397.3409,446.769,388.1508,441.8347,391.3449,449.2171,397.3409" style="stroke:#000000;stroke-width:1.0;"/><text fill="#000000" font-family="sans-serif" font-size="13" lengthAdjust="spacing" textLength="57" x="455.5" y="398.0566">performs</text><text fill="#000000" font-family="sans-serif" font-size="13" lengthAdjust="spacing" textLength="8" x="408.5564" y="358.989">1</text><text fill="#000000" font-family="sans-serif" font-size="13" lengthAdjust="spacing" textLength="6" x="464.8323" y="428.581">*</text></g><!--link Entry to Diary--><g id="link_Entry_Diary"><path codeLine="98" d="M371.56,692.6983 C374.88,732.4983 381.31,809.7583 384.13,843.5283 " fill="none" id="Entry-Diary" style="stroke:#1E90FF;stroke-width:1.0;"/><polygon fill="#000000" points="386.0847,792.1608,383.9072,801.4187,389.7647,800.9306,386.0847,792.1608" style="stroke:#000000;stroke-width:1.0;"/><text fill="#000000" font-family="sans-serif" font-size="13" lengthAdjust="spacing" textLength="22" x="395.5" y="802.0566">has</text><text fill="#000000" font-family="sans-serif" font-size="13" lengthAdjust="spacing" textLength="6" x="365.3426" y="712.9851">*</text><text fill="#000000" font-family="sans-serif" font-size="13" lengthAdjust="spacing" textLength="8" x="374.4183" y="833.1123">1</text></g><!--link Entry to GreenSpace--><g id="link_Entry_GreenSpace"><path codeLine="99" d="M356.25,692.6983 C336.52,729.4583 299.65,798.1883 279.87,835.0683 " fill="none" id="Entry-GreenSpace" style="stroke:#1E90FF;stroke-width:1.0;"/><polygon fill="#000000" points="306.1362,801.5495,313.0021,794.9684,307.8226,792.1897,306.1362,801.5495" style="stroke:#000000;stroke-width:1.0;"/><text fill="#000000" font-family="sans-serif" font-size="13" lengthAdjust="spacing" textLength="46" x="317.5" y="802.0566">located</text><text fill="#000000" font-family="sans-serif" font-size="13" lengthAdjust="spacing" textLength="8" x="344.2609" y="712.9851">1</text><text fill="#000000" font-family="sans-serif" font-size="13" lengthAdjust="spacing" textLength="8" x="274.0368" y="824.9469">1</text></g><!--link Task to Entry--><g id="link_Task_Entry"><path codeLine="100" d="M465,475.0483 C432.49,483.2683 395.13,498.8783 374.5,528.4883 C351.29,561.8083 356.7,611.5083 362.95,641.1383 " fill="none" id="Task-Entry" style="stroke:#1E90FF;stroke-width:1.0;"/><polygon fill="#000000" points="382.1175,532.8834,374.8783,539.0515,379.8864,542.1286,382.1175,532.8834" style="stroke:#000000;stroke-width:1.0;"/><text fill="#000000" font-family="sans-serif" font-size="13" lengthAdjust="spacing" textLength="46" x="388.5" y="542.0566">defines</text><text fill="#000000" font-family="sans-serif" font-size="13" lengthAdjust="spacing" textLength="8" x="449.4266" y="472.9319">1</text><text fill="#000000" font-family="sans-serif" font-size="13" lengthAdjust="spacing" textLength="8" x="352.3784" y="630.6183">1</text></g><!--link Task to Vehicle--><g id="link_Task_Vehicle"><path codeLine="101" d="M543.7,490.9183 C558.44,512.2783 580.61,544.4083 601.95,575.3383 " fill="none" id="Task-Vehicle" style="stroke:#1E90FF;stroke-width:1.0;"/><polygon fill="#000000" points="586.3396,541.259,583.6217,532.145,578.7837,535.4832,586.3396,541.259" style="stroke:#000000;stroke-width:1.0;"/><text fill="#000000" font-family="sans-serif" font-size="13" lengthAdjust="spacing" textLength="37" x="592.5" y="542.0566">needs</text><text fill="#000000" font-family="sans-serif" font-size="13" lengthAdjust="spacing" textLength="8" x="538.5875" y="510.836">1</text><text fill="#000000" font-family="sans-serif" font-size="13" lengthAdjust="spacing" textLength="6" x="590.5216" y="564.7135">*</text></g><!--link Task to Machines--><g id="link_Task_Machines"><path codeLine="102" d="M512.44,490.6983 C501.01,512.2883 485.79,544.8883 479.5,575.4883 C463.12,655.1583 457.76,680.1183 479.5,758.4883 C487.41,787.0183 505.72,815.5683 520.23,835.0883 " fill="none" id="Task-Machines" style="stroke:#1E90FF;stroke-width:1.0;"/><polygon fill="#000000" points="484.6131,672.1423,487.3467,663.033,481.4704,663.166,484.6131,672.1423" style="stroke:#000000;stroke-width:1.0;"/><text fill="#000000" font-family="sans-serif" font-size="13" lengthAdjust="spacing" textLength="37" x="493.5" y="672.0566">needs</text><text fill="#000000" font-family="sans-serif" font-size="13" lengthAdjust="spacing" textLength="8" x="500.2636" y="510.9851">1</text><text fill="#000000" font-family="sans-serif" font-size="13" lengthAdjust="spacing" textLength="6" x="508.5579" y="824.5561">*</text></g><!--link Task to Equipment--><g id="link_Task_Equipment"><path codeLine="103" d="M587.72,471.4283 C652.24,480.8083 750.82,506.2883 797.5,575.4883 C854.73,660.3283 842.56,719.8683 786.5,805.4883 C778.96,816.9983 768.12,826.9783 757.08,835.1483 " fill="none" id="Task-Equipment" style="stroke:#1E90FF;stroke-width:1.0;"/><polygon fill="#000000" points="841.6106,671.6763,840.4568,662.2359,835.1282,664.7171,841.6106,671.6763" style="stroke:#000000;stroke-width:1.0;"/><text fill="#000000" font-family="sans-serif" font-size="13" lengthAdjust="spacing" textLength="37" x="848.5" y="672.0566">needs</text><text fill="#000000" font-family="sans-serif" font-size="13" lengthAdjust="spacing" textLength="8" x="595.6687" y="468.8878">1</text><text fill="#000000" font-family="sans-serif" font-size="13" lengthAdjust="spacing" textLength="6" x="760.9714" y="824.6307">*</text></g><!--link Vehicle to Machines--><g id="link_Vehicle_Machines"><path codeLine="105" d="M605.77,758.9283 C587.61,787.0383 569.09,815.7283 556.43,835.3183 " fill="none" id="Vehicle-Machines" style="stroke:#1E90FF;stroke-width:1.0;"/><polygon fill="#000000" points="585.7872,801.3436,593.1635,795.3402,588.226,792.1511,585.7872,801.3436" style="stroke:#000000;stroke-width:1.0;"/><text fill="#000000" font-family="sans-serif" font-size="13" lengthAdjust="spacing" textLength="65" x="597.5" y="802.0566">transports</text></g><!--link Vehicle to Equipment--><g id="link_Vehicle_Equipment"><path codeLine="106" d="M687.71,758.9283 C694.88,787.0383 702.2,815.7283 707.2,835.3183 " fill="none" id="Vehicle-Equipment" style="stroke:#1E90FF;stroke-width:1.0;"/><polygon fill="#000000" points="704.7361,801.9884,705.3477,792.4975,699.6523,793.9506,704.7361,801.9884" style="stroke:#000000;stroke-width:1.0;"/><text fill="#000000" font-family="sans-serif" font-size="13" lengthAdjust="spacing" textLength="65" x="712.5" y="802.0566">transports</text></g><!--SRC=[VLJBRjim4BppAmZt4A10WUGQ50NyY0EtUHYrqvvfSYsnbaXbIJLrZVnxbnGjqNdK5o-vmzdPvL1kfqqZKDIyjiRA4cqDV2ig1yprgKR8dIXWvVSLS0JfXIcg7E1AeUoJDWNts08x6pALDk3t3N2BlhJih8Ajvzvor4NfkTA1JLkJSSbAE3Vs7lMczR2GrgpqN-3dhDGAkDGegNICQo1AvTZBm_p0EFrkz1PkgFp4eWASsieYdmdSJIgIU0AWzWgqhL4TQBnStYocu_NY_YxYNkO_pC_dz8kvCQ9zIjnM5O0z-vjbdnbZNdiQunBjB-gTJjL26tvh5LICTVeV761g8eHtekuePyB3_NQYQPJPUgngxLmOOXIa589pCLwMri1TMsy0u_gAIbKnMYWmNc-r567wColRcZOow5hyMOezrUwsddDfwt2VWxomZ19FG4kwS54HZBQxtJc0sj0eqz6fhKFD67-7Xk03mLUxIIYAXlR1ITHDz4iFNGktEoJ9RfT31ingfwkg0yNmLEqQH9t9l38UzuT-lWFk1vIQl9U4JL0O5QFkwg82caIIWbrmZPPE_eJWzgxh5f6wvj_gr7YXdGViIiNxau-jTZfqC6pUaaKy664aJ4kGkuTcZl3OWf7xNlUja2MPsHtIYRYAYlhEYBa9C-yW_V84T8q0PaKl7WwfW-CwmLXqv-ZZY7_wn4SNepW_Via_ymrKrXIEdlShJ6-RI_w5byAz2KYM2P3MmGiC_SMxUvSXU2Rbk4ZPY_viRxu0SM32PoEh-HwIFa-WVvEMhdOc9hWjTXqkWZvZZWK16Ky2T6BZZDvADe1RYpMfYRxB6vffGHkXH618wOi-FLnC9AeilMLGB39diEvSO56m3VuuHL2vewy3Yw7cNoEErleFf3TJXc57PiASK7XwEowyU9T3JYao3Fi7]--></g></svg>