<?xml version="1.0" encoding="us-ascii" standalone="no"?><svg xmlns="http://www.w3.org/2000/svg" xmlns:xlink="http://www.w3.org/1999/xlink" contentStyleType="text/css" height="757.6px" preserveAspectRatio="none" style="width:1758px;height:757px;background:#FFFFFF;" version="1.1" viewBox="0 0 1758 757" width="1758.4px" zoomAndPan="magnify"><defs/><g><rect fill="#FFFFFF" height="585.8203" style="stroke:#181818;stroke-width:0.8000000000000002;" width="8" x="25.2" y="78.5938"/><rect fill="#FFFFFF" height="38.8656" style="stroke:#181818;stroke-width:0.8000000000000002;" width="8" x="325.2" y="97.2266"/><rect fill="#FFFFFF" height="503.2891" style="stroke:#181818;stroke-width:0.8000000000000002;" width="8" x="325.2" y="161.125"/><rect fill="#FFFFFF" height="439.3906" style="stroke:#181818;stroke-width:0.8000000000000002;" width="8" x="576.4" y="199.9906"/><rect fill="#FFFFFF" height="25.0328" style="stroke:#181818;stroke-width:0.8000000000000002;" width="8" x="836.4" y="225.0234"/><rect fill="#FFFFFF" height="25.0328" style="stroke:#181818;stroke-width:0.8000000000000002;" width="8" x="964.8" y="275.0891"/><rect fill="#FFFFFF" height="138.9969" style="stroke:#181818;stroke-width:0.8000000000000002;" width="8" x="1104.8" y="325.1547"/><rect fill="#FFFFFF" height="125.1641" style="stroke:#181818;stroke-width:0.8000000000000002;" width="8" x="1232" y="489.1844"/><rect fill="#FFFFFF" height="25.0328" style="stroke:#181818;stroke-width:0.8000000000000002;" width="8" x="1343.6" y="364.0203"/><rect fill="#FFFFFF" height="25.0328" style="stroke:#181818;stroke-width:0.8000000000000002;" width="8" x="1495.2" y="514.2172"/><rect fill="#FFFFFF" height="25.0328" style="stroke:#181818;stroke-width:0.8000000000000002;" width="8" x="1593.6" y="414.0859"/><rect fill="#FFFFFF" height="25.0328" style="stroke:#181818;stroke-width:0.8000000000000002;" width="8" x="1698.4" y="564.2828"/><line style="stroke:#181818;stroke-width:0.4000000000000001;stroke-dasharray:5.0,5.0;" x1="28.8" x2="28.8" y1="70.5938" y2="678.8141"/><line style="stroke:#181818;stroke-width:0.4000000000000001;stroke-dasharray:5.0,5.0;" x1="329.2" x2="329.2" y1="70.5938" y2="678.8141"/><line style="stroke:#181818;stroke-width:0.4000000000000001;stroke-dasharray:5.0,5.0;" x1="580.4" x2="580.4" y1="70.5938" y2="678.8141"/><line style="stroke:#181818;stroke-width:0.4000000000000001;stroke-dasharray:5.0,5.0;" x1="840" x2="840" y1="70.5938" y2="678.8141"/><line style="stroke:#181818;stroke-width:0.4000000000000001;stroke-dasharray:5.0,5.0;" x1="968.8" x2="968.8" y1="70.5938" y2="678.8141"/><line style="stroke:#181818;stroke-width:0.4000000000000001;stroke-dasharray:5.0,5.0;" x1="1108.8" x2="1108.8" y1="70.5938" y2="678.8141"/><line style="stroke:#181818;stroke-width:0.4000000000000001;stroke-dasharray:5.0,5.0;" x1="1236" x2="1236" y1="70.5938" y2="678.8141"/><line style="stroke:#181818;stroke-width:0.4000000000000001;stroke-dasharray:5.0,5.0;" x1="1347.2" x2="1347.2" y1="70.5938" y2="678.8141"/><line style="stroke:#181818;stroke-width:0.4000000000000001;stroke-dasharray:5.0,5.0;" x1="1498.8" x2="1498.8" y1="70.5938" y2="678.8141"/><line style="stroke:#181818;stroke-width:0.4000000000000001;stroke-dasharray:5.0,5.0;" x1="1597.2" x2="1597.2" y1="70.5938" y2="678.8141"/><line style="stroke:#181818;stroke-width:0.4000000000000001;stroke-dasharray:5.0,5.0;" x1="1702" x2="1702" y1="70.5938" y2="678.8141"/><text fill="#000000" font-family="sans-serif" font-size="11.2" lengthAdjust="spacing" textLength="45.6" x="4" y="67.7828">Operator</text><ellipse cx="29.2" cy="14.4969" fill="#E2E2F0" rx="6.4" ry="6.4" style="stroke:#181818;stroke-width:0.4000000000000001;"/><path d="M29.2,20.8969 L29.2,42.4969 M18.8,27.2969 L39.6,27.2969 M29.2,42.4969 L18.8,54.4969 M29.2,42.4969 L39.6,54.4969 " fill="none" style="stroke:#181818;stroke-width:0.4000000000000001;"/><text fill="#000000" font-family="sans-serif" font-size="11.2" lengthAdjust="spacing" textLength="45.6" x="4" y="690.1">Operator</text><ellipse cx="29.2" cy="699.7109" fill="#E2E2F0" rx="6.4" ry="6.4" style="stroke:#181818;stroke-width:0.4000000000000001;"/><path d="M29.2,706.1109 L29.2,727.7109 M18.8,712.5109 L39.6,712.5109 M29.2,727.7109 L18.8,739.7109 M29.2,727.7109 L39.6,739.7109 " fill="none" style="stroke:#181818;stroke-width:0.4000000000000001;"/><rect fill="#E2E2F0" height="40.9938" rx="2" ry="2" style="stroke:#181818;stroke-width:0.4000000000000001;" width="115.2" x="271.6" y="28.8"/><text fill="#000000" font-family="sans-serif" font-size="11.2" font-style="italic" lengthAdjust="spacing" textLength="76" x="291.2" y="46.4859">&#171;presentation&#187;</text><text fill="#000000" font-family="sans-serif" font-size="11.2" lengthAdjust="spacing" textLength="104" x="277.2" y="61.3828">RegisterCandidateUI</text><rect fill="#E2E2F0" height="40.9938" rx="2" ry="2" style="stroke:#181818;stroke-width:0.4000000000000001;" width="115.2" x="271.6" y="678.0141"/><text fill="#000000" font-family="sans-serif" font-size="11.2" font-style="italic" lengthAdjust="spacing" textLength="76" x="291.2" y="695.7">&#171;presentation&#187;</text><text fill="#000000" font-family="sans-serif" font-size="11.2" lengthAdjust="spacing" textLength="104" x="277.2" y="710.5969">RegisterCandidateUI</text><rect fill="#E2E2F0" height="40.9938" rx="2" ry="2" style="stroke:#181818;stroke-width:0.4000000000000001;" width="155.2" x="502.8" y="28.8"/><text fill="#000000" font-family="sans-serif" font-size="11.2" font-style="italic" lengthAdjust="spacing" textLength="60" x="550.4" y="46.4859">&#171;controller&#187;</text><text fill="#000000" font-family="sans-serif" font-size="11.2" lengthAdjust="spacing" textLength="144" x="508.4" y="61.3828">RegisterCandidateController</text><rect fill="#E2E2F0" height="40.9938" rx="2" ry="2" style="stroke:#181818;stroke-width:0.4000000000000001;" width="155.2" x="502.8" y="678.0141"/><text fill="#000000" font-family="sans-serif" font-size="11.2" font-style="italic" lengthAdjust="spacing" textLength="60" x="550.4" y="695.7">&#171;controller&#187;</text><text fill="#000000" font-family="sans-serif" font-size="11.2" lengthAdjust="spacing" textLength="144" x="508.4" y="710.5969">RegisterCandidateController</text><rect fill="#E2E2F0" height="40.9938" rx="2" ry="2" style="stroke:#181818;stroke-width:0.4000000000000001;" width="114.4" x="783.2" y="28.8"/><text fill="#000000" font-family="sans-serif" font-size="11.2" font-style="italic" lengthAdjust="spacing" textLength="48" x="816.4" y="46.4859">&#171;service&#187;</text><text fill="#000000" font-family="sans-serif" font-size="11.2" lengthAdjust="spacing" textLength="103.2" x="788.8" y="61.3828">AuthorizationService</text><rect fill="#E2E2F0" height="40.9938" rx="2" ry="2" style="stroke:#181818;stroke-width:0.4000000000000001;" width="114.4" x="783.2" y="678.0141"/><text fill="#000000" font-family="sans-serif" font-size="11.2" font-style="italic" lengthAdjust="spacing" textLength="48" x="816.4" y="695.7">&#171;service&#187;</text><text fill="#000000" font-family="sans-serif" font-size="11.2" lengthAdjust="spacing" textLength="103.2" x="788.8" y="710.5969">AuthorizationService</text><rect fill="#E2E2F0" height="40.9938" rx="2" ry="2" style="stroke:#181818;stroke-width:0.4000000000000001;" width="126.4" x="905.6" y="28.8"/><text fill="#000000" font-family="sans-serif" font-size="11.2" font-style="italic" lengthAdjust="spacing" textLength="41.6" x="948" y="46.4859">&#171;policy&#187;</text><text fill="#000000" font-family="sans-serif" font-size="11.2" lengthAdjust="spacing" textLength="115.2" x="911.2" y="61.3828">Jobs4UPasswordPolicy</text><rect fill="#E2E2F0" height="40.9938" rx="2" ry="2" style="stroke:#181818;stroke-width:0.4000000000000001;" width="126.4" x="905.6" y="678.0141"/><text fill="#000000" font-family="sans-serif" font-size="11.2" font-style="italic" lengthAdjust="spacing" textLength="41.6" x="948" y="695.7">&#171;policy&#187;</text><text fill="#000000" font-family="sans-serif" font-size="11.2" lengthAdjust="spacing" textLength="115.2" x="911.2" y="710.5969">Jobs4UPasswordPolicy</text><rect fill="#E2E2F0" height="40.9938" rx="2" ry="2" style="stroke:#181818;stroke-width:0.4000000000000001;" width="137.6" x="1040" y="28.8"/><text fill="#000000" font-family="sans-serif" font-size="11.2" font-style="italic" lengthAdjust="spacing" textLength="48" x="1084.8" y="46.4859">&#171;service&#187;</text><text fill="#000000" font-family="sans-serif" font-size="11.2" lengthAdjust="spacing" textLength="126.4" x="1045.6" y="61.3828">UserManagementService</text><rect fill="#E2E2F0" height="40.9938" rx="2" ry="2" style="stroke:#181818;stroke-width:0.4000000000000001;" width="137.6" x="1040" y="678.0141"/><text fill="#000000" font-family="sans-serif" font-size="11.2" font-style="italic" lengthAdjust="spacing" textLength="48" x="1084.8" y="695.7">&#171;service&#187;</text><text fill="#000000" font-family="sans-serif" font-size="11.2" lengthAdjust="spacing" textLength="126.4" x="1045.6" y="710.5969">UserManagementService</text><rect fill="#E2E2F0" height="40.9938" rx="2" ry="2" style="stroke:#181818;stroke-width:0.4000000000000001;" width="100.8" x="1185.6" y="28.8"/><text fill="#000000" font-family="sans-serif" font-size="11.2" font-style="italic" lengthAdjust="spacing" textLength="48" x="1212" y="46.4859">&#171;service&#187;</text><text fill="#000000" font-family="sans-serif" font-size="11.2" lengthAdjust="spacing" textLength="89.6" x="1191.2" y="61.3828">CandidateService</text><rect fill="#E2E2F0" height="40.9938" rx="2" ry="2" style="stroke:#181818;stroke-width:0.4000000000000001;" width="100.8" x="1185.6" y="678.0141"/><text fill="#000000" font-family="sans-serif" font-size="11.2" font-style="italic" lengthAdjust="spacing" textLength="48" x="1212" y="695.7">&#171;service&#187;</text><text fill="#000000" font-family="sans-serif" font-size="11.2" lengthAdjust="spacing" textLength="89.6" x="1191.2" y="710.5969">CandidateService</text><rect fill="#E2E2F0" height="40.9938" rx="2" ry="2" style="stroke:#181818;stroke-width:0.4000000000000001;" width="106.4" x="1294.4" y="28.8"/><text fill="#000000" font-family="sans-serif" font-size="11.2" font-style="italic" lengthAdjust="spacing" textLength="47.2" x="1324" y="46.4859">&#171;builder&#187;</text><text fill="#000000" font-family="sans-serif" font-size="11.2" lengthAdjust="spacing" textLength="95.2" x="1300" y="61.3828">SystemUserBuilder</text><rect fill="#E2E2F0" height="40.9938" rx="2" ry="2" style="stroke:#181818;stroke-width:0.4000000000000001;" width="106.4" x="1294.4" y="678.0141"/><text fill="#000000" font-family="sans-serif" font-size="11.2" font-style="italic" lengthAdjust="spacing" textLength="47.2" x="1324" y="695.7">&#171;builder&#187;</text><text fill="#000000" font-family="sans-serif" font-size="11.2" lengthAdjust="spacing" textLength="95.2" x="1300" y="710.5969">SystemUserBuilder</text><rect fill="#E2E2F0" height="40.9938" rx="2" ry="2" style="stroke:#181818;stroke-width:0.4000000000000001;" width="98.4" x="1450" y="28.8"/><text fill="#000000" font-family="sans-serif" font-size="11.2" font-style="italic" lengthAdjust="spacing" textLength="47.2" x="1475.6" y="46.4859">&#171;builder&#187;</text><text fill="#000000" font-family="sans-serif" font-size="11.2" lengthAdjust="spacing" textLength="87.2" x="1455.6" y="61.3828">CandidateBuilder</text><rect fill="#E2E2F0" height="40.9938" rx="2" ry="2" style="stroke:#181818;stroke-width:0.4000000000000001;" width="98.4" x="1450" y="678.0141"/><text fill="#000000" font-family="sans-serif" font-size="11.2" font-style="italic" lengthAdjust="spacing" textLength="47.2" x="1475.6" y="695.7">&#171;builder&#187;</text><text fill="#000000" font-family="sans-serif" font-size="11.2" lengthAdjust="spacing" textLength="87.2" x="1455.6" y="710.5969">CandidateBuilder</text><text fill="#000000" font-family="sans-serif" font-size="11.2" font-style="italic" lengthAdjust="spacing" textLength="63.2" x="1563.6" y="52.8859">&#171;repository&#187;</text><text fill="#000000" font-family="sans-serif" font-size="11.2" lengthAdjust="spacing" textLength="77.6" x="1556.4" y="67.7828">UserRepository</text><path d="M1583.2,12 C1583.2,4 1597.6,4 1597.6,4 C1597.6,4 1612,4 1612,12 L1612,32.8 C1612,40.8 1597.6,40.8 1597.6,40.8 C1597.6,40.8 1583.2,40.8 1583.2,32.8 L1583.2,12 " fill="#E2E2F0" style="stroke:#181818;stroke-width:1.2000000000000002;"/><path d="M1583.2,12 C1583.2,20 1597.6,20 1597.6,20 C1597.6,20 1612,20 1612,12 " fill="none" style="stroke:#181818;stroke-width:1.2000000000000002;"/><text fill="#000000" font-family="sans-serif" font-size="11.2" font-style="italic" lengthAdjust="spacing" textLength="63.2" x="1563.6" y="690.1">&#171;repository&#187;</text><text fill="#000000" font-family="sans-serif" font-size="11.2" lengthAdjust="spacing" textLength="77.6" x="1556.4" y="704.9969">UserRepository</text><path d="M1583.2,715.8078 C1583.2,707.8078 1597.6,707.8078 1597.6,707.8078 C1597.6,707.8078 1612,707.8078 1612,715.8078 L1612,736.6078 C1612,744.6078 1597.6,744.6078 1597.6,744.6078 C1597.6,744.6078 1583.2,744.6078 1583.2,736.6078 L1583.2,715.8078 " fill="#E2E2F0" style="stroke:#181818;stroke-width:1.2000000000000002;"/><path d="M1583.2,715.8078 C1583.2,723.8078 1597.6,723.8078 1597.6,723.8078 C1597.6,723.8078 1612,723.8078 1612,715.8078 " fill="none" style="stroke:#181818;stroke-width:1.2000000000000002;"/><text fill="#000000" font-family="sans-serif" font-size="11.2" font-style="italic" lengthAdjust="spacing" textLength="63.2" x="1668.4" y="52.8859">&#171;repository&#187;</text><text fill="#000000" font-family="sans-serif" font-size="11.2" lengthAdjust="spacing" textLength="106.4" x="1646.8" y="67.7828">CandidateRepository</text><path d="M1688,12 C1688,4 1702.4,4 1702.4,4 C1702.4,4 1716.8,4 1716.8,12 L1716.8,32.8 C1716.8,40.8 1702.4,40.8 1702.4,40.8 C1702.4,40.8 1688,40.8 1688,32.8 L1688,12 " fill="#E2E2F0" style="stroke:#181818;stroke-width:1.2000000000000002;"/><path d="M1688,12 C1688,20 1702.4,20 1702.4,20 C1702.4,20 1716.8,20 1716.8,12 " fill="none" style="stroke:#181818;stroke-width:1.2000000000000002;"/><text fill="#000000" font-family="sans-serif" font-size="11.2" font-style="italic" lengthAdjust="spacing" textLength="63.2" x="1668.4" y="690.1">&#171;repository&#187;</text><text fill="#000000" font-family="sans-serif" font-size="11.2" lengthAdjust="spacing" textLength="106.4" x="1646.8" y="704.9969">CandidateRepository</text><path d="M1688,715.8078 C1688,707.8078 1702.4,707.8078 1702.4,707.8078 C1702.4,707.8078 1716.8,707.8078 1716.8,715.8078 L1716.8,736.6078 C1716.8,744.6078 1702.4,744.6078 1702.4,744.6078 C1702.4,744.6078 1688,744.6078 1688,736.6078 L1688,715.8078 " fill="#E2E2F0" style="stroke:#181818;stroke-width:1.2000000000000002;"/><path d="M1688,715.8078 C1688,723.8078 1702.4,723.8078 1702.4,723.8078 C1702.4,723.8078 1716.8,723.8078 1716.8,715.8078 " fill="none" style="stroke:#181818;stroke-width:1.2000000000000002;"/><rect fill="#FFFFFF" height="585.8203" style="stroke:#181818;stroke-width:0.8000000000000002;" width="8" x="25.2" y="78.5938"/><rect fill="#FFFFFF" height="38.8656" style="stroke:#181818;stroke-width:0.8000000000000002;" width="8" x="325.2" y="97.2266"/><rect fill="#FFFFFF" height="503.2891" style="stroke:#181818;stroke-width:0.8000000000000002;" width="8" x="325.2" y="161.125"/><rect fill="#FFFFFF" height="439.3906" style="stroke:#181818;stroke-width:0.8000000000000002;" width="8" x="576.4" y="199.9906"/><rect fill="#FFFFFF" height="25.0328" style="stroke:#181818;stroke-width:0.8000000000000002;" width="8" x="836.4" y="225.0234"/><rect fill="#FFFFFF" height="25.0328" style="stroke:#181818;stroke-width:0.8000000000000002;" width="8" x="964.8" y="275.0891"/><rect fill="#FFFFFF" height="138.9969" style="stroke:#181818;stroke-width:0.8000000000000002;" width="8" x="1104.8" y="325.1547"/><rect fill="#FFFFFF" height="125.1641" style="stroke:#181818;stroke-width:0.8000000000000002;" width="8" x="1232" y="489.1844"/><rect fill="#FFFFFF" height="25.0328" style="stroke:#181818;stroke-width:0.8000000000000002;" width="8" x="1343.6" y="364.0203"/><rect fill="#FFFFFF" height="25.0328" style="stroke:#181818;stroke-width:0.8000000000000002;" width="8" x="1495.2" y="514.2172"/><rect fill="#FFFFFF" height="25.0328" style="stroke:#181818;stroke-width:0.8000000000000002;" width="8" x="1593.6" y="414.0859"/><rect fill="#FFFFFF" height="25.0328" style="stroke:#181818;stroke-width:0.8000000000000002;" width="8" x="1698.4" y="564.2828"/><polygon fill="#181818" points="315.6,94.0266,323.6,97.2266,315.6,100.4266,318.8,97.2266" style="stroke:#181818;stroke-width:0.8000000000000002;"/><line style="stroke:#181818;stroke-width:0.8000000000000002;" x1="33.2" x2="320.4" y1="97.2266" y2="97.2266"/><text fill="#000000" font-family="sans-serif" font-size="10.4" font-weight="bold" lengthAdjust="spacing" textLength="5.6" x="38.8" y="93.0164">1</text><text fill="#000000" font-family="sans-serif" font-size="10.4" lengthAdjust="spacing" textLength="150.4" x="47.6" y="93.0164">asks to register a new candidate</text><polygon fill="#181818" points="42,132.8922,34,136.0922,42,139.2922,38.8,136.0922" style="stroke:#181818;stroke-width:0.8000000000000002;"/><line style="stroke:#181818;stroke-width:0.8000000000000002;stroke-dasharray:2.0,2.0;" x1="37.2" x2="328.4" y1="136.0922" y2="136.0922"/><text fill="#000000" font-family="sans-serif" font-size="10.4" font-weight="bold" lengthAdjust="spacing" textLength="5.6" x="46.8" y="124.9656">2</text><text fill="#000000" font-family="sans-serif" font-size="10.4" lengthAdjust="spacing" textLength="264" x="55.6" y="118.0492">requests account opening details (FirstName, LastName,</text><text fill="#000000" font-family="sans-serif" font-size="10.4" lengthAdjust="spacing" textLength="175.2" x="58.8" y="131.882">Email, TelephoneNumber, Curriculum)</text><polygon fill="#181818" points="315.6,157.925,323.6,161.125,315.6,164.325,318.8,161.125" style="stroke:#181818;stroke-width:0.8000000000000002;"/><line style="stroke:#181818;stroke-width:0.8000000000000002;" x1="33.2" x2="320.4" y1="161.125" y2="161.125"/><text fill="#000000" font-family="sans-serif" font-size="10.4" font-weight="bold" lengthAdjust="spacing" textLength="5.6" x="38.8" y="156.9148">3</text><text fill="#000000" font-family="sans-serif" font-size="10.4" lengthAdjust="spacing" textLength="150.4" x="47.6" y="156.9148">provides account opening details</text><polygon fill="#181818" points="566.8,196.7906,574.8,199.9906,566.8,203.1906,570,199.9906" style="stroke:#181818;stroke-width:0.8000000000000002;"/><line style="stroke:#181818;stroke-width:0.8000000000000002;stroke-dasharray:2.0,2.0;" x1="333.2" x2="571.6" y1="199.9906" y2="199.9906"/><text fill="#000000" font-family="sans-serif" font-size="10.4" font-weight="bold" lengthAdjust="spacing" textLength="5.6" x="338.8" y="188.8641">4</text><text fill="#000000" font-family="sans-serif" font-size="10.4" lengthAdjust="spacing" textLength="212.8" x="347.6" y="181.9477">registerCandidate(firstName, lastName, email,</text><text fill="#000000" font-family="sans-serif" font-size="10.4" lengthAdjust="spacing" textLength="216" x="350.8" y="195.7805">role, createdOn, telephoneNumber, curriculum)</text><polygon fill="#181818" points="826.8,221.8234,834.8,225.0234,826.8,228.2234,830,225.0234" style="stroke:#181818;stroke-width:0.8000000000000002;"/><line style="stroke:#181818;stroke-width:0.8000000000000002;" x1="584.4" x2="831.6" y1="225.0234" y2="225.0234"/><text fill="#000000" font-family="sans-serif" font-size="10.4" font-weight="bold" lengthAdjust="spacing" textLength="5.6" x="590" y="220.8133">5</text><text fill="#000000" font-family="sans-serif" font-size="10.4" lengthAdjust="spacing" textLength="228" x="598.8" y="220.8133">ensureAuthenticatedUserHasAnyOf(OPERATOR)</text><polygon fill="#181818" points="593.2,246.8563,585.2,250.0563,593.2,253.2563,590,250.0563" style="stroke:#181818;stroke-width:0.8000000000000002;"/><line style="stroke:#181818;stroke-width:0.8000000000000002;stroke-dasharray:2.0,2.0;" x1="588.4" x2="839.6" y1="250.0563" y2="250.0563"/><text fill="#000000" font-family="sans-serif" font-size="10.4" font-weight="bold" lengthAdjust="spacing" textLength="5.6" x="598" y="245.8461">6</text><text fill="#000000" font-family="sans-serif" font-size="10.4" lengthAdjust="spacing" textLength="52.8" x="606.8" y="245.8461">returns true</text><polygon fill="#181818" points="955.2,271.8891,963.2,275.0891,955.2,278.2891,958.4,275.0891" style="stroke:#181818;stroke-width:0.8000000000000002;"/><line style="stroke:#181818;stroke-width:0.8000000000000002;" x1="584.4" x2="960" y1="275.0891" y2="275.0891"/><text fill="#000000" font-family="sans-serif" font-size="10.4" font-weight="bold" lengthAdjust="spacing" textLength="5.6" x="590" y="270.8789">7</text><text fill="#000000" font-family="sans-serif" font-size="10.4" lengthAdjust="spacing" textLength="140" x="598.8" y="270.8789">passwordGenerator(firstName)</text><polygon fill="#181818" points="593.2,296.9219,585.2,300.1219,593.2,303.3219,590,300.1219" style="stroke:#181818;stroke-width:0.8000000000000002;"/><line style="stroke:#181818;stroke-width:0.8000000000000002;stroke-dasharray:2.0,2.0;" x1="588.4" x2="968" y1="300.1219" y2="300.1219"/><text fill="#000000" font-family="sans-serif" font-size="10.4" font-weight="bold" lengthAdjust="spacing" textLength="5.6" x="598" y="295.9117">8</text><text fill="#000000" font-family="sans-serif" font-size="10.4" lengthAdjust="spacing" textLength="79.2" x="606.8" y="295.9117">returns password</text><polygon fill="#181818" points="1095.2,321.9547,1103.2,325.1547,1095.2,328.3547,1098.4,325.1547" style="stroke:#181818;stroke-width:0.8000000000000002;"/><line style="stroke:#181818;stroke-width:0.8000000000000002;" x1="584.4" x2="1100" y1="325.1547" y2="325.1547"/><text fill="#000000" font-family="sans-serif" font-size="10.4" font-weight="bold" lengthAdjust="spacing" textLength="5.6" x="590" y="320.9445">9</text><text fill="#000000" font-family="sans-serif" font-size="10.4" lengthAdjust="spacing" textLength="372.8" x="598.8" y="320.9445">registerNewUser(email, password, firstName, lastName, email, roles, createdOn)</text><polygon fill="#181818" points="1334,360.8203,1342,364.0203,1334,367.2203,1337.2,364.0203" style="stroke:#181818;stroke-width:0.8000000000000002;"/><line style="stroke:#181818;stroke-width:0.8000000000000002;" x1="1112.8" x2="1338.8" y1="364.0203" y2="364.0203"/><text fill="#000000" font-family="sans-serif" font-size="10.4" font-weight="bold" lengthAdjust="spacing" textLength="11.2" x="1118.4" y="352.8938">10</text><text fill="#000000" font-family="sans-serif" font-size="10.4" lengthAdjust="spacing" textLength="153.6" x="1132.8" y="345.9773">build(firstName, lastName, email,</text><text fill="#000000" font-family="sans-serif" font-size="10.4" lengthAdjust="spacing" textLength="130.4" x="1136" y="359.8102">password, roles, createdOn)</text><polygon fill="#181818" points="1121.6,385.8531,1113.6,389.0531,1121.6,392.2531,1118.4,389.0531" style="stroke:#181818;stroke-width:0.8000000000000002;"/><line style="stroke:#181818;stroke-width:0.8000000000000002;stroke-dasharray:2.0,2.0;" x1="1116.8" x2="1346.8" y1="389.0531" y2="389.0531"/><text fill="#000000" font-family="sans-serif" font-size="10.4" font-weight="bold" lengthAdjust="spacing" textLength="11.2" x="1126.4" y="384.843">11</text><text fill="#000000" font-family="sans-serif" font-size="10.4" lengthAdjust="spacing" textLength="91.2" x="1140.8" y="384.843">returns systemUser</text><polygon fill="#181818" points="1584,410.8859,1592,414.0859,1584,417.2859,1587.2,414.0859" style="stroke:#181818;stroke-width:0.8000000000000002;"/><line style="stroke:#181818;stroke-width:0.8000000000000002;" x1="1112.8" x2="1588.8" y1="414.0859" y2="414.0859"/><text fill="#000000" font-family="sans-serif" font-size="10.4" font-weight="bold" lengthAdjust="spacing" textLength="11.2" x="1118.4" y="409.8758">12</text><text fill="#000000" font-family="sans-serif" font-size="10.4" lengthAdjust="spacing" textLength="83.2" x="1132.8" y="409.8758">save(systemUser)</text><polygon fill="#181818" points="1121.6,435.9188,1113.6,439.1188,1121.6,442.3188,1118.4,439.1188" style="stroke:#181818;stroke-width:0.8000000000000002;"/><line style="stroke:#181818;stroke-width:0.8000000000000002;stroke-dasharray:2.0,2.0;" x1="1116.8" x2="1596.8" y1="439.1188" y2="439.1188"/><text fill="#000000" font-family="sans-serif" font-size="10.4" font-weight="bold" lengthAdjust="spacing" textLength="11.2" x="1126.4" y="434.9086">13</text><text fill="#000000" font-family="sans-serif" font-size="10.4" lengthAdjust="spacing" textLength="91.2" x="1140.8" y="434.9086">returns systemUser</text><polygon fill="#181818" points="593.2,460.9516,585.2,464.1516,593.2,467.3516,590,464.1516" style="stroke:#181818;stroke-width:0.8000000000000002;"/><line style="stroke:#181818;stroke-width:0.8000000000000002;stroke-dasharray:2.0,2.0;" x1="588.4" x2="1108" y1="464.1516" y2="464.1516"/><text fill="#000000" font-family="sans-serif" font-size="10.4" font-weight="bold" lengthAdjust="spacing" textLength="11.2" x="598" y="459.9414">14</text><text fill="#000000" font-family="sans-serif" font-size="10.4" lengthAdjust="spacing" textLength="91.2" x="612.4" y="459.9414">returns systemUser</text><polygon fill="#181818" points="1222.4,485.9844,1230.4,489.1844,1222.4,492.3844,1225.6,489.1844" style="stroke:#181818;stroke-width:0.8000000000000002;"/><line style="stroke:#181818;stroke-width:0.8000000000000002;" x1="584.4" x2="1227.2" y1="489.1844" y2="489.1844"/><text fill="#000000" font-family="sans-serif" font-size="10.4" font-weight="bold" lengthAdjust="spacing" textLength="11.2" x="590" y="484.9742">15</text><text fill="#000000" font-family="sans-serif" font-size="10.4" lengthAdjust="spacing" textLength="284.8" x="604.4" y="484.9742">registerCandidate(systemUser, telephoneNumber, curriculum)</text><polygon fill="#181818" points="1485.6,511.0172,1493.6,514.2172,1485.6,517.4172,1488.8,514.2172" style="stroke:#181818;stroke-width:0.8000000000000002;"/><line style="stroke:#181818;stroke-width:0.8000000000000002;" x1="1240" x2="1490.4" y1="514.2172" y2="514.2172"/><text fill="#000000" font-family="sans-serif" font-size="10.4" font-weight="bold" lengthAdjust="spacing" textLength="11.2" x="1245.6" y="510.007">16</text><text fill="#000000" font-family="sans-serif" font-size="10.4" lengthAdjust="spacing" textLength="225.6" x="1260" y="510.007">build(systemUser, telephoneNumber, curriculum)</text><polygon fill="#181818" points="1248.8,536.05,1240.8,539.25,1248.8,542.45,1245.6,539.25" style="stroke:#181818;stroke-width:0.8000000000000002;"/><line style="stroke:#181818;stroke-width:0.8000000000000002;stroke-dasharray:2.0,2.0;" x1="1244" x2="1498.4" y1="539.25" y2="539.25"/><text fill="#000000" font-family="sans-serif" font-size="10.4" font-weight="bold" lengthAdjust="spacing" textLength="11.2" x="1253.6" y="535.0398">17</text><text fill="#000000" font-family="sans-serif" font-size="10.4" lengthAdjust="spacing" textLength="80" x="1268" y="535.0398">returns candidate</text><polygon fill="#181818" points="1688.8,561.0828,1696.8,564.2828,1688.8,567.4828,1692,564.2828" style="stroke:#181818;stroke-width:0.8000000000000002;"/><line style="stroke:#181818;stroke-width:0.8000000000000002;" x1="1240" x2="1693.6" y1="564.2828" y2="564.2828"/><text fill="#000000" font-family="sans-serif" font-size="10.4" font-weight="bold" lengthAdjust="spacing" textLength="11.2" x="1245.6" y="560.0727">18</text><text fill="#000000" font-family="sans-serif" font-size="10.4" lengthAdjust="spacing" textLength="72" x="1260" y="560.0727">save(candidate)</text><polygon fill="#181818" points="1248.8,586.1156,1240.8,589.3156,1248.8,592.5156,1245.6,589.3156" style="stroke:#181818;stroke-width:0.8000000000000002;"/><line style="stroke:#181818;stroke-width:0.8000000000000002;stroke-dasharray:2.0,2.0;" x1="1244" x2="1701.6" y1="589.3156" y2="589.3156"/><text fill="#000000" font-family="sans-serif" font-size="10.4" font-weight="bold" lengthAdjust="spacing" textLength="11.2" x="1253.6" y="585.1055">19</text><text fill="#000000" font-family="sans-serif" font-size="10.4" lengthAdjust="spacing" textLength="80" x="1268" y="585.1055">returns candidate</text><polygon fill="#181818" points="593.2,611.1484,585.2,614.3484,593.2,617.5484,590,614.3484" style="stroke:#181818;stroke-width:0.8000000000000002;"/><line style="stroke:#181818;stroke-width:0.8000000000000002;stroke-dasharray:2.0,2.0;" x1="588.4" x2="1235.2" y1="614.3484" y2="614.3484"/><text fill="#000000" font-family="sans-serif" font-size="10.4" font-weight="bold" lengthAdjust="spacing" textLength="11.2" x="598" y="610.1383">20</text><text fill="#000000" font-family="sans-serif" font-size="10.4" lengthAdjust="spacing" textLength="80" x="612.4" y="610.1383">returns candidate</text><polygon fill="#181818" points="342,636.1813,334,639.3813,342,642.5813,338.8,639.3813" style="stroke:#181818;stroke-width:0.8000000000000002;"/><line style="stroke:#181818;stroke-width:0.8000000000000002;stroke-dasharray:2.0,2.0;" x1="337.2" x2="579.6" y1="639.3813" y2="639.3813"/><text fill="#000000" font-family="sans-serif" font-size="10.4" font-weight="bold" lengthAdjust="spacing" textLength="11.2" x="346.8" y="635.1711">21</text><text fill="#000000" font-family="sans-serif" font-size="10.4" lengthAdjust="spacing" textLength="80" x="361.2" y="635.1711">returns candidate</text><polygon fill="#181818" points="38,661.2141,30,664.4141,38,667.6141,34.8,664.4141" style="stroke:#181818;stroke-width:0.8000000000000002;"/><line style="stroke:#181818;stroke-width:0.8000000000000002;stroke-dasharray:2.0,2.0;" x1="33.2" x2="328.4" y1="664.4141" y2="664.4141"/><text fill="#000000" font-family="sans-serif" font-size="10.4" font-weight="bold" lengthAdjust="spacing" textLength="11.2" x="42.8" y="660.2039">22</text><text fill="#000000" font-family="sans-serif" font-size="10.4" lengthAdjust="spacing" textLength="180" x="57.2" y="660.2039">confirms registration and shows details</text><!--SRC=[hPTDZzem48Rl_8eviXBSUa8h98gsNse1iSkj5vFCBbOJExKT4FtrdIJWVDXEejNcvE3np3FlU6B3SYD5dXvHJIOiCbB1DaF5Q32PP4mP7l6C2GDxVEFQe5ep4VEO6JnyXyV7JA56OPZXKYoN_GlMKXWbamGLBOpi2orhhLlbvYGL_rVwV4PrvX7I0bsDEa5-oAF-TDWnhIzInJkPyEXQO9M3hkS3-VZ517l3b9Y7N5jkds7BylbAUQQ5zyyvJ-8olsCr2ldq6KveWXsPnX9qZvdKdCfGvAFi2zbPC-ijR5kKb9_9f55LeEV-1lEbjx8BOFgF1YD1tMQ1WS0BH7UZqetrxl4ngIBHumimfy0MOa5H_kQeZIQFaSn9APcXuE8DOZIC9ngcNxZIPiDIdC5FTXlz5l2KqlGCNZ31x2G5RigjF8DrhXIFyYHF7qgC6FjPnucIANdcCGOnHuWoe4bVroniCUpizBMM9RdB0bYAGkhGGdgD599fl1KpC5sTeevElVmrYyqZa4s3cfBojlG2KEXSOJ59xSYZWh7O-T-ONedhzdMwtJtjLo_R_KCxcENpkUs0qUCDFaPgaoj1BQ1oRFjiRAKH10FIU3zWjD5kFtn5KUt9kj0XDNoUN3MyySQhSUSAAZA2Oa0H_rUwtliRl1GcqsgJMw8PzBH2sGYwqGaX4Rt1NHNzZ0Jl7WKBAB_m0urQPp50seHrWhcWnUCopNjbhYgjxIh7QQFS8n22MdLEkGLeTiPf7RSdy_PIVzeTzn-Nyr3mGCAZUon4qK4OsgO3RUPSRtodIuqoxkZebAaRmzNAeMYITLleVJHUeDw6SG3c8RsgWhNlH86I3OVkrS9j51jrJBv3pUAByw5Pzm6uYO_kbG24Z-0TNHAy1mR3zrqpFRUd4JTZ-gD4HqUgRzsfogi6a3teaxperirpu9BRcBR_1lu3]--></g></svg>