<?xml version="1.0" encoding="us-ascii" standalone="no"?><svg xmlns="http://www.w3.org/2000/svg" xmlns:xlink="http://www.w3.org/1999/xlink" contentStyleType="text/css" height="530px" preserveAspectRatio="none" style="width:576px;height:530px;background:#FFFFFF;" version="1.1" viewBox="0 0 576 530" width="576px" zoomAndPan="magnify"><defs/><g><text fill="#000000" font-family="sans-serif" font-size="14" font-weight="bold" lengthAdjust="spacing" textLength="281" x="140.5" y="25.1074">Resgistering a Candidate Domain Model</text><!--cluster Candidate Aggregate--><g id="cluster_Candidate Aggregate"><rect fill="none" height="123" rx="2.5" ry="2.5" style="stroke:#000000;stroke-width:1.5;" width="324" x="20" y="46.6211"/><text fill="#000000" font-family="sans-serif" font-size="14" font-weight="bold" lengthAdjust="spacing" textLength="148" x="108" y="63.7285">Candidate Aggregate</text></g><!--cluster User Aggregate--><g id="cluster_User Aggregate"><rect fill="none" height="331" rx="2.5" ry="2.5" style="stroke:#000000;stroke-width:1.5;" width="352" x="218" y="193.6211"/><text fill="#000000" font-family="sans-serif" font-size="14" font-weight="bold" lengthAdjust="spacing" textLength="110" x="339" y="210.7285">User Aggregate</text></g><!--cluster Operator Aggregate--><g id="cluster_Operator Aggregate"><rect fill="none" height="123" rx="2.5" ry="2.5" style="stroke:#000000;stroke-width:1.5;" width="156" x="7" y="258.6211"/><text fill="#000000" font-family="sans-serif" font-size="14" font-weight="bold" lengthAdjust="spacing" textLength="140" x="15" y="275.7285">Operator Aggregate</text></g><!--class Candidate--><g id="elem_Candidate"><rect codeLine="25" fill="#F0FFFF" height="68.543" id="Candidate" rx="2.5" ry="2.5" style="stroke:#000000;stroke-width:0.5;" width="97" x="36" y="84.1211"/><ellipse cx="51" cy="114.3926" fill="#ADD1B2" rx="11" ry="11" style="stroke:#181818;stroke-width:1.0;"/><path d="M49.8594,115.1895 L49.8594,117.6895 L54.1875,117.6895 L54.1875,116.7676 Q54.1875,116.1582 54.4219,115.8926 Q54.6719,115.627 55.0469,115.627 Q55.4219,115.627 55.6563,115.8926 Q55.8906,116.1582 55.8906,116.7676 L55.8906,119.3926 L47.8906,119.3926 Q47.2656,119.3926 47,119.1582 Q46.75,118.9238 46.75,118.5332 Q46.75,118.1582 47.0156,117.9238 Q47.2813,117.6895 47.8906,117.6895 L48.1563,117.6895 L48.1563,111.0332 L47.8906,111.0332 Q47.2656,111.0332 47,110.7988 Q46.75,110.5645 46.75,110.1738 Q46.75,109.7988 47,109.5645 Q47.2656,109.3301 47.8906,109.3301 L55.5156,109.3301 L55.5156,111.9238 Q55.5156,112.5332 55.2813,112.7988 Q55.0625,113.0488 54.6719,113.0488 Q54.2969,113.0488 54.0625,112.7988 Q53.8281,112.5332 53.8281,111.9238 L53.8281,111.0332 L49.8594,111.0332 L49.8594,113.4863 L51.3438,113.4863 Q51.3438,112.8301 51.4688,112.6426 Q51.7344,112.2363 52.2031,112.2363 Q52.5781,112.2363 52.8125,112.502 Q53.0469,112.752 53.0469,113.3613 L53.0469,115.3301 Q53.0469,115.877 52.9219,116.0645 Q52.6563,116.4551 52.2031,116.4551 Q51.7344,116.4551 51.4688,116.0488 Q51.3438,115.8613 51.3438,115.1895 L49.8594,115.1895 Z " fill="#000000"/><text fill="#000000" font-family="sans-serif" font-size="12" font-style="italic" lengthAdjust="spacing" textLength="43" x="76" y="102.0703">&#171;entity&#187;</text><text fill="#000000" font-family="sans-serif" font-size="12" font-style="italic" lengthAdjust="spacing" textLength="35" x="80" y="118.0313">&#171;root&#187;</text><text fill="#000000" font-family="sans-serif" font-size="14" lengthAdjust="spacing" textLength="65" x="65" y="136.1504">Candidate</text><line style="stroke:#000000;stroke-width:0.5;" x1="37" x2="132" y1="144.6641" y2="144.6641"/></g><!--entity Curriculum--><g id="elem_Curriculum"><rect fill="#F0FFDD" height="43.2422" rx="2.5" ry="2.5" style="stroke:#000000;stroke-width:0.5;" width="117" x="211" y="97.1211"/><text fill="#000000" font-family="sans-serif" font-size="14" font-style="italic" lengthAdjust="spacing" textLength="97" x="221" y="115.2285">&#171;Value Object&#187;</text><text fill="#000000" font-family="sans-serif" font-size="14" lengthAdjust="spacing" textLength="68" x="235.5" y="133.8496">Curriculum</text></g><!--class User--><g id="elem_User"><rect codeLine="35" fill="#F0FFFF" height="68.543" id="User" rx="2.5" ry="2.5" style="stroke:#000000;stroke-width:0.5;" width="71" x="234" y="296.1211"/><ellipse cx="249" cy="326.3926" fill="#ADD1B2" rx="11" ry="11" style="stroke:#181818;stroke-width:1.0;"/><path d="M247.8594,327.1895 L247.8594,329.6895 L252.1875,329.6895 L252.1875,328.7676 Q252.1875,328.1582 252.4219,327.8926 Q252.6719,327.627 253.0469,327.627 Q253.4219,327.627 253.6563,327.8926 Q253.8906,328.1582 253.8906,328.7676 L253.8906,331.3926 L245.8906,331.3926 Q245.2656,331.3926 245,331.1582 Q244.75,330.9238 244.75,330.5332 Q244.75,330.1582 245.0156,329.9238 Q245.2813,329.6895 245.8906,329.6895 L246.1563,329.6895 L246.1563,323.0332 L245.8906,323.0332 Q245.2656,323.0332 245,322.7988 Q244.75,322.5645 244.75,322.1738 Q244.75,321.7988 245,321.5645 Q245.2656,321.3301 245.8906,321.3301 L253.5156,321.3301 L253.5156,323.9238 Q253.5156,324.5332 253.2813,324.7988 Q253.0625,325.0488 252.6719,325.0488 Q252.2969,325.0488 252.0625,324.7988 Q251.8281,324.5332 251.8281,323.9238 L251.8281,323.0332 L247.8594,323.0332 L247.8594,325.4863 L249.3438,325.4863 Q249.3438,324.8301 249.4688,324.6426 Q249.7344,324.2363 250.2031,324.2363 Q250.5781,324.2363 250.8125,324.502 Q251.0469,324.752 251.0469,325.3613 L251.0469,327.3301 Q251.0469,327.877 250.9219,328.0645 Q250.6563,328.4551 250.2031,328.4551 Q249.7344,328.4551 249.4688,328.0488 Q249.3438,327.8613 249.3438,327.1895 L247.8594,327.1895 Z " fill="#000000"/><text fill="#000000" font-family="sans-serif" font-size="12" font-style="italic" lengthAdjust="spacing" textLength="43" x="261" y="314.0703">&#171;entity&#187;</text><text fill="#000000" font-family="sans-serif" font-size="12" font-style="italic" lengthAdjust="spacing" textLength="35" x="265" y="330.0313">&#171;root&#187;</text><text fill="#000000" font-family="sans-serif" font-size="14" lengthAdjust="spacing" textLength="29" x="268" y="348.1504">User</text><line style="stroke:#000000;stroke-width:0.5;" x1="235" x2="304" y1="356.6641" y2="356.6641"/></g><!--entity UserEmail--><g id="elem_UserEmail"><rect fill="#F0FFDD" height="43.2422" rx="2.5" ry="2.5" style="stroke:#000000;stroke-width:0.5;" width="117" x="412.5" y="465.1211"/><text fill="#000000" font-family="sans-serif" font-size="14" font-style="italic" lengthAdjust="spacing" textLength="97" x="422.5" y="483.2285">&#171;Value Object&#187;</text><text fill="#000000" font-family="sans-serif" font-size="14" lengthAdjust="spacing" textLength="63" x="439.5" y="501.8496">UserEmail</text></g><!--entity UserName--><g id="elem_UserName"><rect fill="#F0FFDD" height="43.2422" rx="2.5" ry="2.5" style="stroke:#000000;stroke-width:0.5;" width="117" x="412.5" y="387.1211"/><text fill="#000000" font-family="sans-serif" font-size="14" font-style="italic" lengthAdjust="spacing" textLength="97" x="422.5" y="405.2285">&#171;Value Object&#187;</text><text fill="#000000" font-family="sans-serif" font-size="14" lengthAdjust="spacing" textLength="65" x="438.5" y="423.8496">UserName</text></g><!--entity UserPassword--><g id="elem_UserPassword"><rect fill="#F0FFDD" height="43.2422" rx="2.5" ry="2.5" style="stroke:#000000;stroke-width:0.5;" width="117" x="412.5" y="309.1211"/><text fill="#000000" font-family="sans-serif" font-size="14" font-style="italic" lengthAdjust="spacing" textLength="97" x="422.5" y="327.2285">&#171;Value Object&#187;</text><text fill="#000000" font-family="sans-serif" font-size="14" lengthAdjust="spacing" textLength="90" x="426" y="345.8496">UserPassword</text></g><!--entity UserTelephoneNumber--><g id="elem_UserTelephoneNumber"><rect fill="#F0FFDD" height="43.2422" rx="2.5" ry="2.5" style="stroke:#000000;stroke-width:0.5;" width="166" x="388" y="231.1211"/><text fill="#000000" font-family="sans-serif" font-size="14" font-style="italic" lengthAdjust="spacing" textLength="97" x="422.5" y="249.2285">&#171;Value Object&#187;</text><text fill="#000000" font-family="sans-serif" font-size="14" lengthAdjust="spacing" textLength="146" x="398" y="267.8496">UserTelephoneNumber</text></g><!--class Operator--><g id="elem_Operator"><rect codeLine="54" fill="#F0FFFF" height="68.543" id="Operator" rx="2.5" ry="2.5" style="stroke:#000000;stroke-width:0.5;" width="89" x="40" y="296.1211"/><ellipse cx="55" cy="326.3926" fill="#ADD1B2" rx="11" ry="11" style="stroke:#181818;stroke-width:1.0;"/><path d="M53.8594,327.1895 L53.8594,329.6895 L58.1875,329.6895 L58.1875,328.7676 Q58.1875,328.1582 58.4219,327.8926 Q58.6719,327.627 59.0469,327.627 Q59.4219,327.627 59.6563,327.8926 Q59.8906,328.1582 59.8906,328.7676 L59.8906,331.3926 L51.8906,331.3926 Q51.2656,331.3926 51,331.1582 Q50.75,330.9238 50.75,330.5332 Q50.75,330.1582 51.0156,329.9238 Q51.2813,329.6895 51.8906,329.6895 L52.1563,329.6895 L52.1563,323.0332 L51.8906,323.0332 Q51.2656,323.0332 51,322.7988 Q50.75,322.5645 50.75,322.1738 Q50.75,321.7988 51,321.5645 Q51.2656,321.3301 51.8906,321.3301 L59.5156,321.3301 L59.5156,323.9238 Q59.5156,324.5332 59.2813,324.7988 Q59.0625,325.0488 58.6719,325.0488 Q58.2969,325.0488 58.0625,324.7988 Q57.8281,324.5332 57.8281,323.9238 L57.8281,323.0332 L53.8594,323.0332 L53.8594,325.4863 L55.3438,325.4863 Q55.3438,324.8301 55.4688,324.6426 Q55.7344,324.2363 56.2031,324.2363 Q56.5781,324.2363 56.8125,324.502 Q57.0469,324.752 57.0469,325.3613 L57.0469,327.3301 Q57.0469,327.877 56.9219,328.0645 Q56.6563,328.4551 56.2031,328.4551 Q55.7344,328.4551 55.4688,328.0488 Q55.3438,327.8613 55.3438,327.1895 L53.8594,327.1895 Z " fill="#000000"/><text fill="#000000" font-family="sans-serif" font-size="12" font-style="italic" lengthAdjust="spacing" textLength="43" x="76" y="314.0703">&#171;entity&#187;</text><text fill="#000000" font-family="sans-serif" font-size="12" font-style="italic" lengthAdjust="spacing" textLength="35" x="80" y="330.0313">&#171;root&#187;</text><text fill="#000000" font-family="sans-serif" font-size="14" lengthAdjust="spacing" textLength="57" x="69" y="348.1504">Operator</text><line style="stroke:#000000;stroke-width:0.5;" x1="41" x2="128" y1="356.6641" y2="356.6641"/></g><!--link Candidate to Curriculum--><g id="link_Candidate_Curriculum"><path codeLine="30" d="M133.1,118.6211 C156.83,118.6211 179.71,118.6211 204.69,118.6211 " fill="none" id="Candidate-to-Curriculum" style="stroke:#808080;stroke-width:1.0;"/><polygon fill="#808080" points="210.69,118.6211,201.69,114.6211,205.69,118.6211,201.69,122.6211,210.69,118.6211" style="stroke:#808080;stroke-width:1.0;"/></g><!--link User to UserEmail--><g id="link_User_UserEmail"><path codeLine="46" d="M299.53,365.2911 C321.85,390.4211 354.46,424.0011 388,447.6211 C397.15,454.0611 402.1645,457.2457 412.3945,462.3657 " fill="none" id="User-to-UserEmail" style="stroke:#808080;stroke-width:1.0;"/><polygon fill="#808080" points="417.76,465.0511,411.502,457.446,413.2887,462.8133,407.9215,464.6,417.76,465.0511" style="stroke:#808080;stroke-width:1.0;"/></g><!--link User to UserName--><g id="link_User_UserName"><path codeLine="47" d="M305.25,344.2111 C335.5,356.0411 374.3016,371.207 409.3816,384.917 " fill="none" id="User-to-UserName" style="stroke:#808080;stroke-width:1.0;"/><polygon fill="#808080" points="414.97,387.1011,408.0435,380.0994,410.313,385.281,405.1314,387.5506,414.97,387.1011" style="stroke:#808080;stroke-width:1.0;"/></g><!--link User to UserTelephoneNumber--><g id="link_User_UserTelephoneNumber"><path codeLine="48" d="M305.25,317.0311 C335.5,305.2011 374.3016,290.0351 409.3816,276.3251 " fill="none" id="User-to-UserTelephoneNumber" style="stroke:#808080;stroke-width:1.0;"/><polygon fill="#808080" points="414.97,274.1411,405.1314,273.6916,410.313,275.9611,408.0435,281.1428,414.97,274.1411" style="stroke:#808080;stroke-width:1.0;"/></g><!--link User to UserPassword--><g id="link_User_UserPassword"><path codeLine="49" d="M305.25,330.6211 C334.72,330.6211 371.6,330.6211 406.23,330.6211 " fill="none" id="User-to-UserPassword" style="stroke:#808080;stroke-width:1.0;"/><polygon fill="#808080" points="412.23,330.6211,403.23,326.6211,407.23,330.6211,403.23,334.6211,412.23,330.6211" style="stroke:#808080;stroke-width:1.0;"/></g><!--link Operator to User--><g id="link_Operator_User"><path codeLine="57" d="M129.33,330.6211 C161.37,330.6211 198.23,330.6211 227.88,330.6211 " fill="none" id="Operator-to-User" style="stroke:#808080;stroke-width:1.0;"/><polygon fill="#808080" points="233.88,330.6211,224.88,326.6211,228.88,330.6211,224.88,334.6211,233.88,330.6211" style="stroke:#808080;stroke-width:1.0;"/></g><!--link Candidate to User--><g id="link_Candidate_User"><path codeLine="58" d="M115.31,153.1511 C149.34,192.5811 200.7599,252.1388 234.7799,291.5588 " fill="none" id="Candidate-to-User" style="stroke:#808080;stroke-width:1.0;"/><polygon fill="#808080" points="238.7,296.1011,235.8481,286.6742,235.4333,292.3158,229.7916,291.901,238.7,296.1011" style="stroke:#808080;stroke-width:1.0;"/></g><!--SRC=[fP9VQy8m5CNVyob2zopi0vH2RQS8JcLpUu_DDSrCatAR8Y9-zwL_r5Ox4PQdSdBIdD-vIIK7ce5D3I-8Wgsbrb2K8hMKIuJ4IgC9MKkhW7eVK0XPM42f1MKqOffBpYpGs6HCQlfkE2YFa68dTSwGPJHHh2ZeaL2tvd8BSwbXR903HaOPf373tLYLq3UmP2VGb9etfd2rci-YS3rRBchVxVxBv7NYLhqN8ffz8mk4G-FlNBXHxZ0vTJFcJc42Fkt1CLR8J0i5FGg6_074507q_mdY-9QWQcSwH34-KxJPgNUTHIWSk71Vtf60jj8UEeFo_KOA0jz7OsmGaFhdDM5K8igaL6NcVD_CZOKkDp-ka21ewK-D-_g_qIZe72EzI5y5u52QMdyOf7AykHUb_ixHyovO1azQL-uzxbsJJzhNe21FZOP5cMtgs8zwgScgIYu0ztALzLwzkUVUSCxThtYP0p9h-ZLNPzkgB_i3TRUPBvRpJGCJhkLV]--></g></svg>