<?xml version="1.0" encoding="us-ascii" standalone="no"?><svg xmlns="http://www.w3.org/2000/svg" xmlns:xlink="http://www.w3.org/1999/xlink" contentStyleType="text/css" height="1333px" preserveAspectRatio="none" style="width:2126px;height:1333px;background:#FFFFFF;" version="1.1" viewBox="0 0 2126 1333" width="2126px" zoomAndPan="magnify"><defs/><g><text fill="#000000" font-family="sans-serif" font-size="14" font-weight="bold" lengthAdjust="spacing" textLength="257" x="927.5" y="25.1074">Class Diagram - Register a candidate</text><!--cluster presentation--><g id="cluster_presentation"><path d="M669.5,45.6348 L760.5,45.6348 A3.75,3.75 0 0 1 763,48.1348 L770,70.2559 L858.5,70.2559 A2.5,2.5 0 0 1 861,72.7559 L861,181.1348 A2.5,2.5 0 0 1 858.5,183.6348 L669.5,183.6348 A2.5,2.5 0 0 1 667,181.1348 L667,48.1348 A2.5,2.5 0 0 1 669.5,45.6348 " fill="none" style="stroke:#000000;stroke-width:1.5;"/><line style="stroke:#000000;stroke-width:1.5;" x1="667" x2="770" y1="70.2559" y2="70.2559"/><text fill="#000000" font-family="sans-serif" font-size="14" font-weight="bold" lengthAdjust="spacing" textLength="90" x="671" y="62.7422">presentation</text></g><!--cluster candidate--><g id="cluster_candidate"><path d="M8.5,207.6348 L78.5,207.6348 A3.75,3.75 0 0 1 81,210.1348 L88,232.2559 L2116.5,232.2559 A2.5,2.5 0 0 1 2119,234.7559 L2119,1324.1348 A2.5,2.5 0 0 1 2116.5,1326.6348 L8.5,1326.6348 A2.5,2.5 0 0 1 6,1324.1348 L6,210.1348 A2.5,2.5 0 0 1 8.5,207.6348 " fill="none" style="stroke:#000000;stroke-width:1.5;"/><line style="stroke:#000000;stroke-width:1.5;" x1="6" x2="88" y1="232.2559" y2="232.2559"/><text fill="#000000" font-family="sans-serif" font-size="14" font-weight="bold" lengthAdjust="spacing" textLength="69" x="10" y="224.7422">candidate</text></g><!--cluster application--><g id="cluster_application"><path d="M442.5,289.6348 L520.5,289.6348 A3.75,3.75 0 0 1 523,292.1348 L530,314.2559 L1085.5,314.2559 A2.5,2.5 0 0 1 1088,316.7559 L1088,444.1348 A2.5,2.5 0 0 1 1085.5,446.6348 L442.5,446.6348 A2.5,2.5 0 0 1 440,444.1348 L440,292.1348 A2.5,2.5 0 0 1 442.5,289.6348 " fill="none" style="stroke:#000000;stroke-width:1.5;"/><line style="stroke:#000000;stroke-width:1.5;" x1="440" x2="530" y1="314.2559" y2="314.2559"/><text fill="#000000" font-family="sans-serif" font-size="14" font-weight="bold" lengthAdjust="spacing" textLength="77" x="444" y="306.7422">application</text></g><!--cluster authorization--><g id="cluster_authorization"><path d="M32.5,252.6348 L125.5,252.6348 A3.75,3.75 0 0 1 128,255.1348 L135,277.2559 L413.5,277.2559 A2.5,2.5 0 0 1 416,279.7559 L416,481.1348 A2.5,2.5 0 0 1 413.5,483.6348 L32.5,483.6348 A2.5,2.5 0 0 1 30,481.1348 L30,255.1348 A2.5,2.5 0 0 1 32.5,252.6348 " fill="none" style="stroke:#000000;stroke-width:1.5;"/><line style="stroke:#000000;stroke-width:1.5;" x1="30" x2="135" y1="277.2559" y2="277.2559"/><text fill="#000000" font-family="sans-serif" font-size="14" font-weight="bold" lengthAdjust="spacing" textLength="92" x="34" y="269.7422">authorization</text></g><!--cluster user--><g id="cluster_user"><path d="M32.5,507.6348 L65.5,507.6348 A3.75,3.75 0 0 1 68,510.1348 L75,532.2559 L1223.5,532.2559 A2.5,2.5 0 0 1 1226,534.7559 L1226,1015.1348 A2.5,2.5 0 0 1 1223.5,1017.6348 L32.5,1017.6348 A2.5,2.5 0 0 1 30,1015.1348 L30,510.1348 A2.5,2.5 0 0 1 32.5,507.6348 " fill="none" style="stroke:#000000;stroke-width:1.5;"/><line style="stroke:#000000;stroke-width:1.5;" x1="30" x2="75" y1="532.2559" y2="532.2559"/><text fill="#000000" font-family="sans-serif" font-size="14" font-weight="bold" lengthAdjust="spacing" textLength="32" x="34" y="524.7422">user</text></g><!--cluster services--><g id="cluster_services"><path d="M1312.5,507.6348 L1374.5,507.6348 A3.75,3.75 0 0 1 1377,510.1348 L1384,532.2559 L1755.5,532.2559 A2.5,2.5 0 0 1 1758,534.7559 L1758,680.1348 A2.5,2.5 0 0 1 1755.5,682.6348 L1312.5,682.6348 A2.5,2.5 0 0 1 1310,680.1348 L1310,510.1348 A2.5,2.5 0 0 1 1312.5,507.6348 " fill="none" style="stroke:#000000;stroke-width:1.5;"/><line style="stroke:#000000;stroke-width:1.5;" x1="1310" x2="1384" y1="532.2559" y2="532.2559"/><text fill="#000000" font-family="sans-serif" font-size="14" font-weight="bold" lengthAdjust="spacing" textLength="61" x="1314" y="524.7422">services</text></g><!--cluster domain--><g id="cluster_domain"><path d="M1659.5,706.6348 L1711.5,706.6348 A3.75,3.75 0 0 1 1714,709.1348 L1721,731.2559 L2092.5,731.2559 A2.5,2.5 0 0 1 2095,733.7559 L2095,1300.1348 A2.5,2.5 0 0 1 2092.5,1302.6348 L1659.5,1302.6348 A2.5,2.5 0 0 1 1657,1300.1348 L1657,709.1348 A2.5,2.5 0 0 1 1659.5,706.6348 " fill="none" style="stroke:#000000;stroke-width:1.5;"/><line style="stroke:#000000;stroke-width:1.5;" x1="1657" x2="1721" y1="731.2559" y2="731.2559"/><text fill="#000000" font-family="sans-serif" font-size="14" font-weight="bold" lengthAdjust="spacing" textLength="51" x="1661" y="723.7422">domain</text></g><!--cluster repositories--><g id="cluster_repositories"><path d="M1252.5,715.6348 L1339.5,715.6348 A3.75,3.75 0 0 1 1342,718.1348 L1349,740.2559 L1630.5,740.2559 A2.5,2.5 0 0 1 1633,742.7559 L1633,833.1348 A2.5,2.5 0 0 1 1630.5,835.6348 L1252.5,835.6348 A2.5,2.5 0 0 1 1250,833.1348 L1250,718.1348 A2.5,2.5 0 0 1 1252.5,715.6348 " fill="none" style="stroke:#000000;stroke-width:1.5;"/><line style="stroke:#000000;stroke-width:1.5;" x1="1250" x2="1349" y1="740.2559" y2="740.2559"/><text fill="#000000" font-family="sans-serif" font-size="14" font-weight="bold" lengthAdjust="spacing" textLength="86" x="1254" y="732.7422">repositories</text></g><!--class RegisterCandidateUI--><g id="elem_RegisterCandidateUI"><rect codeLine="12" fill="#FFFFFF" height="85.2422" id="RegisterCandidateUI" rx="2.5" ry="2.5" style="stroke:#000000;stroke-width:0.5;" width="162" x="683" y="82.6348"/><ellipse cx="698" cy="98.6348" fill="#ADD1B2" rx="11" ry="11" style="stroke:#181818;stroke-width:1.0;"/><path d="M700.7656,94.5098 Q700.9219,94.291 701.1094,94.1816 Q701.2969,94.0723 701.5156,94.0723 Q701.8906,94.0723 702.125,94.3379 Q702.3594,94.5879 702.3594,95.1973 L702.3594,96.6504 Q702.3594,97.2598 702.125,97.5254 Q701.8906,97.791 701.5156,97.791 Q701.1719,97.791 700.9688,97.5879 Q700.7656,97.4004 700.6563,96.8848 Q700.6094,96.5254 700.4219,96.3379 Q700.0938,95.9629 699.4844,95.7441 Q698.875,95.5254 698.25,95.5254 Q697.4844,95.5254 696.8438,95.8535 Q696.2188,96.1816 695.7188,96.9316 Q695.2344,97.6816 695.2344,98.7129 L695.2344,99.8066 Q695.2344,101.041 696.125,101.8691 Q697.0156,102.6816 698.6094,102.6816 Q699.5469,102.6816 700.2031,102.4316 Q700.5938,102.2754 701.0156,101.8379 Q701.2813,101.5723 701.4219,101.4941 Q701.5781,101.416 701.7813,101.416 Q702.1094,101.416 702.3594,101.6816 Q702.625,101.9316 702.625,102.2754 Q702.625,102.6191 702.2813,103.0254 Q701.7813,103.6035 700.9844,103.9316 Q699.9063,104.3848 698.6094,104.3848 Q697.0938,104.3848 695.8906,103.7598 Q694.9063,103.2598 694.2188,102.1973 Q693.5313,101.1191 693.5313,99.8379 L693.5313,98.6816 Q693.5313,97.3535 694.1406,96.2129 Q694.7656,95.0566 695.8594,94.4473 Q696.9531,93.8223 698.1875,93.8223 Q698.9219,93.8223 699.5625,93.9941 Q700.2188,94.1504 700.7656,94.5098 Z " fill="#000000"/><text fill="#000000" font-family="sans-serif" font-size="14" lengthAdjust="spacing" textLength="130" x="712" y="104.4316">RegisterCandidateUI</text><line style="stroke:#000000;stroke-width:0.5;" x1="684" x2="844" y1="114.6348" y2="114.6348"/><line style="stroke:#000000;stroke-width:0.5;" x1="684" x2="844" y1="122.6348" y2="122.6348"/><ellipse cx="694" cy="137.4453" fill="#84BE84" rx="3" ry="3" style="stroke:#038048;stroke-width:1.0;"/><text fill="#000000" font-family="sans-serif" font-size="14" lengthAdjust="spacing" textLength="60" x="703" y="141.7422">doShow()</text><ellipse cx="694" cy="156.0664" fill="#84BE84" rx="3" ry="3" style="stroke:#038048;stroke-width:1.0;"/><text fill="#000000" font-family="sans-serif" font-size="14" lengthAdjust="spacing" textLength="64" x="703" y="160.3633">headline()</text></g><!--class RegisterCandidateController--><g id="elem_RegisterCandidateController"><rect codeLine="20" fill="#FFFFFF" height="103.8633" id="RegisterCandidateController" rx="2.5" ry="2.5" style="stroke:#000000;stroke-width:0.5;" width="615" x="456.5" y="326.6348"/><ellipse cx="669.75" cy="342.6348" fill="#ADD1B2" rx="11" ry="11" style="stroke:#181818;stroke-width:1.0;"/><path d="M672.5156,338.5098 Q672.6719,338.291 672.8594,338.1816 Q673.0469,338.0723 673.2656,338.0723 Q673.6406,338.0723 673.875,338.3379 Q674.1094,338.5879 674.1094,339.1973 L674.1094,340.6504 Q674.1094,341.2598 673.875,341.5254 Q673.6406,341.791 673.2656,341.791 Q672.9219,341.791 672.7188,341.5879 Q672.5156,341.4004 672.4063,340.8848 Q672.3594,340.5254 672.1719,340.3379 Q671.8438,339.9629 671.2344,339.7441 Q670.625,339.5254 670,339.5254 Q669.2344,339.5254 668.5938,339.8535 Q667.9688,340.1816 667.4688,340.9316 Q666.9844,341.6816 666.9844,342.7129 L666.9844,343.8066 Q666.9844,345.041 667.875,345.8691 Q668.7656,346.6816 670.3594,346.6816 Q671.2969,346.6816 671.9531,346.4316 Q672.3438,346.2754 672.7656,345.8379 Q673.0313,345.5723 673.1719,345.4941 Q673.3281,345.416 673.5313,345.416 Q673.8594,345.416 674.1094,345.6816 Q674.375,345.9316 674.375,346.2754 Q674.375,346.6191 674.0313,347.0254 Q673.5313,347.6035 672.7344,347.9316 Q671.6563,348.3848 670.3594,348.3848 Q668.8438,348.3848 667.6406,347.7598 Q666.6563,347.2598 665.9688,346.1973 Q665.2813,345.1191 665.2813,343.8379 L665.2813,342.6816 Q665.2813,341.3535 665.8906,340.2129 Q666.5156,339.0566 667.6094,338.4473 Q668.7031,337.8223 669.9375,337.8223 Q670.6719,337.8223 671.3125,337.9941 Q671.9688,338.1504 672.5156,338.5098 Z " fill="#000000"/><text fill="#000000" font-family="sans-serif" font-size="14" lengthAdjust="spacing" textLength="180" x="690.25" y="348.4316">RegisterCandidateController</text><line style="stroke:#000000;stroke-width:0.5;" x1="457.5" x2="1070.5" y1="358.6348" y2="358.6348"/><line style="stroke:#000000;stroke-width:0.5;" x1="457.5" x2="1070.5" y1="366.6348" y2="366.6348"/><ellipse cx="467.5" cy="381.4453" fill="#84BE84" rx="3" ry="3" style="stroke:#038048;stroke-width:1.0;"/><text fill="#000000" font-family="sans-serif" font-size="14" lengthAdjust="spacing" textLength="589" x="476.5" y="385.7422">registerCandidate(firstName, lastName, email, role, createdOn, telephoneNumber, curriculum)</text><rect fill="#F24D5C" height="6" style="stroke:#C82930;stroke-width:1.0;" width="6" x="464.5" y="397.0664"/><text fill="#000000" font-family="sans-serif" font-size="14" lengthAdjust="spacing" textLength="398" x="476.5" y="404.3633">createSystemUser(firstName, lastName, email, role, createdOn)</text><rect fill="#F24D5C" height="6" style="stroke:#C82930;stroke-width:1.0;" width="6" x="464.5" y="415.6875"/><text fill="#000000" font-family="sans-serif" font-size="14" lengthAdjust="spacing" textLength="336" x="476.5" y="422.9844">createCandidate(user, telephoneNumber, curriculum)</text></g><!--class AuthorizationService--><g id="elem_AuthorizationService"><rect codeLine="28" fill="#FFFFFF" height="178.3477" id="AuthorizationService" rx="2.5" ry="2.5" style="stroke:#000000;stroke-width:0.5;" width="354" x="46" y="289.6348"/><ellipse cx="154.25" cy="305.6348" fill="#ADD1B2" rx="11" ry="11" style="stroke:#181818;stroke-width:1.0;"/><path d="M157.0156,301.5098 Q157.1719,301.291 157.3594,301.1816 Q157.5469,301.0723 157.7656,301.0723 Q158.1406,301.0723 158.375,301.3379 Q158.6094,301.5879 158.6094,302.1973 L158.6094,303.6504 Q158.6094,304.2598 158.375,304.5254 Q158.1406,304.791 157.7656,304.791 Q157.4219,304.791 157.2188,304.5879 Q157.0156,304.4004 156.9063,303.8848 Q156.8594,303.5254 156.6719,303.3379 Q156.3438,302.9629 155.7344,302.7441 Q155.125,302.5254 154.5,302.5254 Q153.7344,302.5254 153.0938,302.8535 Q152.4688,303.1816 151.9688,303.9316 Q151.4844,304.6816 151.4844,305.7129 L151.4844,306.8066 Q151.4844,308.041 152.375,308.8691 Q153.2656,309.6816 154.8594,309.6816 Q155.7969,309.6816 156.4531,309.4316 Q156.8438,309.2754 157.2656,308.8379 Q157.5313,308.5723 157.6719,308.4941 Q157.8281,308.416 158.0313,308.416 Q158.3594,308.416 158.6094,308.6816 Q158.875,308.9316 158.875,309.2754 Q158.875,309.6191 158.5313,310.0254 Q158.0313,310.6035 157.2344,310.9316 Q156.1563,311.3848 154.8594,311.3848 Q153.3438,311.3848 152.1406,310.7598 Q151.1563,310.2598 150.4688,309.1973 Q149.7813,308.1191 149.7813,306.8379 L149.7813,305.6816 Q149.7813,304.3535 150.3906,303.2129 Q151.0156,302.0566 152.1094,301.4473 Q153.2031,300.8223 154.4375,300.8223 Q155.1719,300.8223 155.8125,300.9941 Q156.4688,301.1504 157.0156,301.5098 Z " fill="#000000"/><text fill="#000000" font-family="sans-serif" font-size="14" lengthAdjust="spacing" textLength="129" x="174.75" y="311.4316">AuthorizationService</text><line style="stroke:#000000;stroke-width:0.5;" x1="47" x2="399" y1="321.6348" y2="321.6348"/><line style="stroke:#000000;stroke-width:0.5;" x1="47" x2="399" y1="329.6348" y2="329.6348"/><ellipse cx="57" cy="344.4453" fill="#84BE84" rx="3" ry="3" style="stroke:#038048;stroke-width:1.0;"/><text fill="#000000" font-family="sans-serif" font-size="14" lengthAdjust="spacing" textLength="281" x="66" y="348.7422">authenticate(username, rawPassword, roles)</text><ellipse cx="57" cy="363.0664" fill="#84BE84" rx="3" ry="3" style="stroke:#038048;stroke-width:1.0;"/><text fill="#000000" font-family="sans-serif" font-size="14" lengthAdjust="spacing" textLength="328" x="66" y="367.3633">changePassword(user, oldPassword, newPassword)</text><ellipse cx="57" cy="381.6875" fill="#84BE84" rx="3" ry="3" style="stroke:#038048;stroke-width:1.0;"/><text fill="#000000" font-family="sans-serif" font-size="14" lengthAdjust="spacing" textLength="292" x="66" y="385.9844">changePassword(oldPassword, newPassword)</text><ellipse cx="57" cy="400.3086" fill="#84BE84" rx="3" ry="3" style="stroke:#038048;stroke-width:1.0;"/><text fill="#000000" font-family="sans-serif" font-size="14" lengthAdjust="spacing" textLength="131" x="66" y="404.6055">resetPassword(user)</text><ellipse cx="57" cy="418.9297" fill="#84BE84" rx="3" ry="3" style="stroke:#038048;stroke-width:1.0;"/><text fill="#000000" font-family="sans-serif" font-size="14" lengthAdjust="spacing" textLength="289" x="66" y="423.2266">confirmResetPassword(user, token, newPass)</text><rect fill="#F24D5C" height="6" style="stroke:#C82930;stroke-width:1.0;" width="6" x="54" y="434.5508"/><text fill="#000000" font-family="sans-serif" font-size="14" lengthAdjust="spacing" textLength="197" x="66" y="441.8477">noActionRightsToValidate(role)</text><rect fill="#F24D5C" height="6" style="stroke:#C82930;stroke-width:1.0;" width="6" x="54" y="453.1719"/><text fill="#000000" font-family="sans-serif" font-size="14" lengthAdjust="spacing" textLength="150" x="66" y="460.4688">retrieveUser(username)</text></g><!--class UserManagementService--><g id="elem_UserManagementService"><rect codeLine="41" fill="#FFFFFF" height="48" id="UserManagementService" rx="2.5" ry="2.5" style="stroke:#000000;stroke-width:0.5;" width="190" x="513" y="581.6348"/><ellipse cx="528" cy="597.6348" fill="#ADD1B2" rx="11" ry="11" style="stroke:#181818;stroke-width:1.0;"/><path d="M530.7656,593.5098 Q530.9219,593.291 531.1094,593.1816 Q531.2969,593.0723 531.5156,593.0723 Q531.8906,593.0723 532.125,593.3379 Q532.3594,593.5879 532.3594,594.1973 L532.3594,595.6504 Q532.3594,596.2598 532.125,596.5254 Q531.8906,596.791 531.5156,596.791 Q531.1719,596.791 530.9688,596.5879 Q530.7656,596.4004 530.6563,595.8848 Q530.6094,595.5254 530.4219,595.3379 Q530.0938,594.9629 529.4844,594.7441 Q528.875,594.5254 528.25,594.5254 Q527.4844,594.5254 526.8438,594.8535 Q526.2188,595.1816 525.7188,595.9316 Q525.2344,596.6816 525.2344,597.7129 L525.2344,598.8066 Q525.2344,600.041 526.125,600.8691 Q527.0156,601.6816 528.6094,601.6816 Q529.5469,601.6816 530.2031,601.4316 Q530.5938,601.2754 531.0156,600.8379 Q531.2813,600.5723 531.4219,600.4941 Q531.5781,600.416 531.7813,600.416 Q532.1094,600.416 532.3594,600.6816 Q532.625,600.9316 532.625,601.2754 Q532.625,601.6191 532.2813,602.0254 Q531.7813,602.6035 530.9844,602.9316 Q529.9063,603.3848 528.6094,603.3848 Q527.0938,603.3848 525.8906,602.7598 Q524.9063,602.2598 524.2188,601.1973 Q523.5313,600.1191 523.5313,598.8379 L523.5313,597.6816 Q523.5313,596.3535 524.1406,595.2129 Q524.7656,594.0566 525.8594,593.4473 Q526.9531,592.8223 528.1875,592.8223 Q528.9219,592.8223 529.5625,592.9941 Q530.2188,593.1504 530.7656,593.5098 Z " fill="#000000"/><text fill="#000000" font-family="sans-serif" font-size="14" lengthAdjust="spacing" textLength="158" x="542" y="603.4316">UserManagementService</text><line style="stroke:#000000;stroke-width:0.5;" x1="514" x2="702" y1="613.6348" y2="613.6348"/><line style="stroke:#000000;stroke-width:0.5;" x1="514" x2="702" y1="621.6348" y2="621.6348"/></g><!--class SystemyUserBuilder--><g id="elem_SystemyUserBuilder"><rect codeLine="43" fill="#FFFFFF" height="48" id="SystemyUserBuilder" rx="2.5" ry="2.5" style="stroke:#000000;stroke-width:0.5;" width="158" x="666" y="762.1348"/><ellipse cx="681" cy="778.1348" fill="#ADD1B2" rx="11" ry="11" style="stroke:#181818;stroke-width:1.0;"/><path d="M683.7656,774.0098 Q683.9219,773.791 684.1094,773.6816 Q684.2969,773.5723 684.5156,773.5723 Q684.8906,773.5723 685.125,773.8379 Q685.3594,774.0879 685.3594,774.6973 L685.3594,776.1504 Q685.3594,776.7598 685.125,777.0254 Q684.8906,777.291 684.5156,777.291 Q684.1719,777.291 683.9688,777.0879 Q683.7656,776.9004 683.6563,776.3848 Q683.6094,776.0254 683.4219,775.8379 Q683.0938,775.4629 682.4844,775.2441 Q681.875,775.0254 681.25,775.0254 Q680.4844,775.0254 679.8438,775.3535 Q679.2188,775.6816 678.7188,776.4316 Q678.2344,777.1816 678.2344,778.2129 L678.2344,779.3066 Q678.2344,780.541 679.125,781.3691 Q680.0156,782.1816 681.6094,782.1816 Q682.5469,782.1816 683.2031,781.9316 Q683.5938,781.7754 684.0156,781.3379 Q684.2813,781.0723 684.4219,780.9941 Q684.5781,780.916 684.7813,780.916 Q685.1094,780.916 685.3594,781.1816 Q685.625,781.4316 685.625,781.7754 Q685.625,782.1191 685.2813,782.5254 Q684.7813,783.1035 683.9844,783.4316 Q682.9063,783.8848 681.6094,783.8848 Q680.0938,783.8848 678.8906,783.2598 Q677.9063,782.7598 677.2188,781.6973 Q676.5313,780.6191 676.5313,779.3379 L676.5313,778.1816 Q676.5313,776.8535 677.1406,775.7129 Q677.7656,774.5566 678.8594,773.9473 Q679.9531,773.3223 681.1875,773.3223 Q681.9219,773.3223 682.5625,773.4941 Q683.2188,773.6504 683.7656,774.0098 Z " fill="#000000"/><text fill="#000000" font-family="sans-serif" font-size="14" lengthAdjust="spacing" textLength="126" x="695" y="783.9316">SystemyUserBuilder</text><line style="stroke:#000000;stroke-width:0.5;" x1="667" x2="823" y1="794.1348" y2="794.1348"/><line style="stroke:#000000;stroke-width:0.5;" x1="667" x2="823" y1="802.1348" y2="802.1348"/></g><!--class SystemUser--><g id="elem_SystemUser"><rect codeLine="45" fill="#FFFFFF" height="48" id="SystemUser" rx="2.5" ry="2.5" style="stroke:#000000;stroke-width:0.5;" width="107" x="965.5" y="953.6348"/><ellipse cx="980.5" cy="969.6348" fill="#ADD1B2" rx="11" ry="11" style="stroke:#181818;stroke-width:1.0;"/><path d="M983.2656,965.5098 Q983.4219,965.291 983.6094,965.1816 Q983.7969,965.0723 984.0156,965.0723 Q984.3906,965.0723 984.625,965.3379 Q984.8594,965.5879 984.8594,966.1973 L984.8594,967.6504 Q984.8594,968.2598 984.625,968.5254 Q984.3906,968.791 984.0156,968.791 Q983.6719,968.791 983.4688,968.5879 Q983.2656,968.4004 983.1563,967.8848 Q983.1094,967.5254 982.9219,967.3379 Q982.5938,966.9629 981.9844,966.7441 Q981.375,966.5254 980.75,966.5254 Q979.9844,966.5254 979.3438,966.8535 Q978.7188,967.1816 978.2188,967.9316 Q977.7344,968.6816 977.7344,969.7129 L977.7344,970.8066 Q977.7344,972.041 978.625,972.8691 Q979.5156,973.6816 981.1094,973.6816 Q982.0469,973.6816 982.7031,973.4316 Q983.0938,973.2754 983.5156,972.8379 Q983.7813,972.5723 983.9219,972.4941 Q984.0781,972.416 984.2813,972.416 Q984.6094,972.416 984.8594,972.6816 Q985.125,972.9316 985.125,973.2754 Q985.125,973.6191 984.7813,974.0254 Q984.2813,974.6035 983.4844,974.9316 Q982.4063,975.3848 981.1094,975.3848 Q979.5938,975.3848 978.3906,974.7598 Q977.4063,974.2598 976.7188,973.1973 Q976.0313,972.1191 976.0313,970.8379 L976.0313,969.6816 Q976.0313,968.3535 976.6406,967.2129 Q977.2656,966.0566 978.3594,965.4473 Q979.4531,964.8223 980.6875,964.8223 Q981.4219,964.8223 982.0625,964.9941 Q982.7188,965.1504 983.2656,965.5098 Z " fill="#000000"/><text fill="#000000" font-family="sans-serif" font-size="14" lengthAdjust="spacing" textLength="75" x="994.5" y="975.4316">SystemUser</text><line style="stroke:#000000;stroke-width:0.5;" x1="966.5" x2="1071.5" y1="985.6348" y2="985.6348"/><line style="stroke:#000000;stroke-width:0.5;" x1="966.5" x2="1071.5" y1="993.6348" y2="993.6348"/></g><g id="elem_GMN13"><path d="M738,574.6348 L738,601.6348 L703.07,605.6348 L738,609.6348 L738,636.5078 A0,0 0 0 0 738,636.5078 L1210,636.5078 A0,0 0 0 0 1210,636.5078 L1210,584.6348 L1200,574.6348 L738,574.6348 A0,0 0 0 0 738,574.6348 " fill="#FEFFDD" style="stroke:#181818;stroke-width:0.5;"/><path d="M1200,574.6348 L1200,584.6348 L1210,584.6348 L1200,574.6348 " fill="#FEFFDD" style="stroke:#181818;stroke-width:0.5;"/><text fill="#000000" font-family="sans-serif" font-size="13" lengthAdjust="spacing" textLength="451" x="744" y="593.6631">- UserManagementService, SystemUser and SystemyUserBuilder are classes</text><text fill="#000000" font-family="sans-serif" font-size="13" lengthAdjust="spacing" textLength="358" x="744" y="610.9541">from the eapli framework so their methods are not represented</text><text fill="#000000" font-family="sans-serif" font-size="13" lengthAdjust="spacing" textLength="417" x="744" y="628.2451">because it doesn't make sense to represent the framework infrastructure</text></g><!--class Jobs4UPasswordPolicy--><g id="elem_Jobs4UPasswordPolicy"><rect codeLine="53" fill="#FFFFFF" height="122.4844" id="Jobs4UPasswordPolicy" rx="2.5" ry="2.5" style="stroke:#000000;stroke-width:0.5;" width="431" x="46.5" y="544.6348"/><ellipse cx="185.75" cy="560.6348" fill="#ADD1B2" rx="11" ry="11" style="stroke:#181818;stroke-width:1.0;"/><path d="M188.5156,556.5098 Q188.6719,556.291 188.8594,556.1816 Q189.0469,556.0723 189.2656,556.0723 Q189.6406,556.0723 189.875,556.3379 Q190.1094,556.5879 190.1094,557.1973 L190.1094,558.6504 Q190.1094,559.2598 189.875,559.5254 Q189.6406,559.791 189.2656,559.791 Q188.9219,559.791 188.7188,559.5879 Q188.5156,559.4004 188.4063,558.8848 Q188.3594,558.5254 188.1719,558.3379 Q187.8438,557.9629 187.2344,557.7441 Q186.625,557.5254 186,557.5254 Q185.2344,557.5254 184.5938,557.8535 Q183.9688,558.1816 183.4688,558.9316 Q182.9844,559.6816 182.9844,560.7129 L182.9844,561.8066 Q182.9844,563.041 183.875,563.8691 Q184.7656,564.6816 186.3594,564.6816 Q187.2969,564.6816 187.9531,564.4316 Q188.3438,564.2754 188.7656,563.8379 Q189.0313,563.5723 189.1719,563.4941 Q189.3281,563.416 189.5313,563.416 Q189.8594,563.416 190.1094,563.6816 Q190.375,563.9316 190.375,564.2754 Q190.375,564.6191 190.0313,565.0254 Q189.5313,565.6035 188.7344,565.9316 Q187.6563,566.3848 186.3594,566.3848 Q184.8438,566.3848 183.6406,565.7598 Q182.6563,565.2598 181.9688,564.1973 Q181.2813,563.1191 181.2813,561.8379 L181.2813,560.6816 Q181.2813,559.3535 181.8906,558.2129 Q182.5156,557.0566 183.6094,556.4473 Q184.7031,555.8223 185.9375,555.8223 Q186.6719,555.8223 187.3125,555.9941 Q187.9688,556.1504 188.5156,556.5098 Z " fill="#000000"/><text fill="#000000" font-family="sans-serif" font-size="14" lengthAdjust="spacing" textLength="144" x="206.25" y="566.4316">Jobs4UPasswordPolicy</text><line style="stroke:#000000;stroke-width:0.5;" x1="47.5" x2="476.5" y1="576.6348" y2="576.6348"/><ellipse cx="57.5" cy="591.4453" fill="none" rx="3" ry="3" style="stroke:#038048;stroke-width:1.0;"/><text fill="#000000" font-family="sans-serif" font-size="14" lengthAdjust="spacing" textLength="405" x="66.5" y="595.7422">enum PasswordStrength {INVALID, WEAK, GOOD, EXCELLENT}</text><line style="stroke:#000000;stroke-width:0.5;" x1="47.5" x2="476.5" y1="603.2559" y2="603.2559"/><ellipse cx="57.5" cy="618.0664" fill="#84BE84" rx="3" ry="3" style="stroke:#038048;stroke-width:1.0;"/><text fill="#000000" font-family="sans-serif" font-size="14" lengthAdjust="spacing" textLength="150" x="66.5" y="622.3633">isSatisfiedBy(password)</text><ellipse cx="57.5" cy="636.6875" fill="#84BE84" rx="3" ry="3" style="stroke:#038048;stroke-width:1.0;"/><text fill="#000000" font-family="sans-serif" font-size="14" lengthAdjust="spacing" textLength="170" x="66.5" y="640.9844">passwordGenerator(name)</text><ellipse cx="57.5" cy="655.3086" fill="#84BE84" rx="3" ry="3" style="stroke:#038048;stroke-width:1.0;"/><text fill="#000000" font-family="sans-serif" font-size="14" lengthAdjust="spacing" textLength="122" x="66.5" y="659.6055">strength(password)</text></g><!--class CandidateService--><g id="elem_CandidateService"><rect codeLine="62" fill="#FFFFFF" height="122.4844" id="CandidateService" rx="2.5" ry="2.5" style="stroke:#000000;stroke-width:0.5;" width="415" x="1326.5" y="544.6348"/><ellipse cx="1473.75" cy="560.6348" fill="#ADD1B2" rx="11" ry="11" style="stroke:#181818;stroke-width:1.0;"/><path d="M1476.5156,556.5098 Q1476.6719,556.291 1476.8594,556.1816 Q1477.0469,556.0723 1477.2656,556.0723 Q1477.6406,556.0723 1477.875,556.3379 Q1478.1094,556.5879 1478.1094,557.1973 L1478.1094,558.6504 Q1478.1094,559.2598 1477.875,559.5254 Q1477.6406,559.791 1477.2656,559.791 Q1476.9219,559.791 1476.7188,559.5879 Q1476.5156,559.4004 1476.4063,558.8848 Q1476.3594,558.5254 1476.1719,558.3379 Q1475.8438,557.9629 1475.2344,557.7441 Q1474.625,557.5254 1474,557.5254 Q1473.2344,557.5254 1472.5938,557.8535 Q1471.9688,558.1816 1471.4688,558.9316 Q1470.9844,559.6816 1470.9844,560.7129 L1470.9844,561.8066 Q1470.9844,563.041 1471.875,563.8691 Q1472.7656,564.6816 1474.3594,564.6816 Q1475.2969,564.6816 1475.9531,564.4316 Q1476.3438,564.2754 1476.7656,563.8379 Q1477.0313,563.5723 1477.1719,563.4941 Q1477.3281,563.416 1477.5313,563.416 Q1477.8594,563.416 1478.1094,563.6816 Q1478.375,563.9316 1478.375,564.2754 Q1478.375,564.6191 1478.0313,565.0254 Q1477.5313,565.6035 1476.7344,565.9316 Q1475.6563,566.3848 1474.3594,566.3848 Q1472.8438,566.3848 1471.6406,565.7598 Q1470.6563,565.2598 1469.9688,564.1973 Q1469.2813,563.1191 1469.2813,561.8379 L1469.2813,560.6816 Q1469.2813,559.3535 1469.8906,558.2129 Q1470.5156,557.0566 1471.6094,556.4473 Q1472.7031,555.8223 1473.9375,555.8223 Q1474.6719,555.8223 1475.3125,555.9941 Q1475.9688,556.1504 1476.5156,556.5098 Z " fill="#000000"/><text fill="#000000" font-family="sans-serif" font-size="14" lengthAdjust="spacing" textLength="112" x="1494.25" y="566.4316">CandidateService</text><line style="stroke:#000000;stroke-width:0.5;" x1="1327.5" x2="1740.5" y1="576.6348" y2="576.6348"/><line style="stroke:#000000;stroke-width:0.5;" x1="1327.5" x2="1740.5" y1="584.6348" y2="584.6348"/><ellipse cx="1337.5" cy="599.4453" fill="#84BE84" rx="3" ry="3" style="stroke:#038048;stroke-width:1.0;"/><text fill="#000000" font-family="sans-serif" font-size="14" lengthAdjust="spacing" textLength="389" x="1346.5" y="603.7422">registerCandidate(systemUser, telephoneNumber, curriculum)</text><ellipse cx="1337.5" cy="618.0664" fill="#84BE84" rx="3" ry="3" style="stroke:#038048;stroke-width:1.0;"/><text fill="#000000" font-family="sans-serif" font-size="14" lengthAdjust="spacing" textLength="381" x="1346.5" y="622.3633">createCandidate(systemUser, telephoneNumber, curriculum)</text><ellipse cx="1337.5" cy="636.6875" fill="#84BE84" rx="3" ry="3" style="stroke:#038048;stroke-width:1.0;"/><text fill="#000000" font-family="sans-serif" font-size="14" lengthAdjust="spacing" textLength="210" x="1346.5" y="640.9844">findCandidate(telephoneNumber)</text><ellipse cx="1337.5" cy="655.3086" fill="#84BE84" rx="3" ry="3" style="stroke:#038048;stroke-width:1.0;"/><text fill="#000000" font-family="sans-serif" font-size="14" lengthAdjust="spacing" textLength="96" x="1346.5" y="659.6055">allCandidates()</text></g><!--class CandidateBuilder--><g id="elem_CandidateBuilder"><rect codeLine="71" fill="#FFFFFF" height="85.2422" id="CandidateBuilder" rx="2.5" ry="2.5" style="stroke:#000000;stroke-width:0.5;" width="341" x="1679.5" y="743.6348"/><ellipse cx="1791.25" cy="759.6348" fill="#ADD1B2" rx="11" ry="11" style="stroke:#181818;stroke-width:1.0;"/><path d="M1794.0156,755.5098 Q1794.1719,755.291 1794.3594,755.1816 Q1794.5469,755.0723 1794.7656,755.0723 Q1795.1406,755.0723 1795.375,755.3379 Q1795.6094,755.5879 1795.6094,756.1973 L1795.6094,757.6504 Q1795.6094,758.2598 1795.375,758.5254 Q1795.1406,758.791 1794.7656,758.791 Q1794.4219,758.791 1794.2188,758.5879 Q1794.0156,758.4004 1793.9063,757.8848 Q1793.8594,757.5254 1793.6719,757.3379 Q1793.3438,756.9629 1792.7344,756.7441 Q1792.125,756.5254 1791.5,756.5254 Q1790.7344,756.5254 1790.0938,756.8535 Q1789.4688,757.1816 1788.9688,757.9316 Q1788.4844,758.6816 1788.4844,759.7129 L1788.4844,760.8066 Q1788.4844,762.041 1789.375,762.8691 Q1790.2656,763.6816 1791.8594,763.6816 Q1792.7969,763.6816 1793.4531,763.4316 Q1793.8438,763.2754 1794.2656,762.8379 Q1794.5313,762.5723 1794.6719,762.4941 Q1794.8281,762.416 1795.0313,762.416 Q1795.3594,762.416 1795.6094,762.6816 Q1795.875,762.9316 1795.875,763.2754 Q1795.875,763.6191 1795.5313,764.0254 Q1795.0313,764.6035 1794.2344,764.9316 Q1793.1563,765.3848 1791.8594,765.3848 Q1790.3438,765.3848 1789.1406,764.7598 Q1788.1563,764.2598 1787.4688,763.1973 Q1786.7813,762.1191 1786.7813,760.8379 L1786.7813,759.6816 Q1786.7813,758.3535 1787.3906,757.2129 Q1788.0156,756.0566 1789.1094,755.4473 Q1790.2031,754.8223 1791.4375,754.8223 Q1792.1719,754.8223 1792.8125,754.9941 Q1793.4688,755.1504 1794.0156,755.5098 Z " fill="#000000"/><text fill="#000000" font-family="sans-serif" font-size="14" lengthAdjust="spacing" textLength="109" x="1811.75" y="765.4316">CandidateBuilder</text><line style="stroke:#000000;stroke-width:0.5;" x1="1680.5" x2="2019.5" y1="775.6348" y2="775.6348"/><line style="stroke:#000000;stroke-width:0.5;" x1="1680.5" x2="2019.5" y1="783.6348" y2="783.6348"/><ellipse cx="1690.5" cy="798.4453" fill="#84BE84" rx="3" ry="3" style="stroke:#038048;stroke-width:1.0;"/><text fill="#000000" font-family="sans-serif" font-size="14" lengthAdjust="spacing" textLength="315" x="1699.5" y="802.7422">withAll(systemUser, telephoneNumber, curriculum)</text><ellipse cx="1690.5" cy="817.0664" fill="#84BE84" rx="3" ry="3" style="stroke:#038048;stroke-width:1.0;"/><text fill="#000000" font-family="sans-serif" font-size="14" lengthAdjust="spacing" textLength="40" x="1699.5" y="821.3633">build()</text></g><!--class Candidate--><g id="elem_Candidate"><rect codeLine="76" fill="#FFFFFF" height="178.3477" id="Candidate" rx="2.5" ry="2.5" style="stroke:#000000;stroke-width:0.5;" width="367" x="1673.5" y="888.6348"/><ellipse cx="1820.25" cy="904.6348" fill="#ADD1B2" rx="11" ry="11" style="stroke:#181818;stroke-width:1.0;"/><path d="M1823.0156,900.5098 Q1823.1719,900.291 1823.3594,900.1816 Q1823.5469,900.0723 1823.7656,900.0723 Q1824.1406,900.0723 1824.375,900.3379 Q1824.6094,900.5879 1824.6094,901.1973 L1824.6094,902.6504 Q1824.6094,903.2598 1824.375,903.5254 Q1824.1406,903.791 1823.7656,903.791 Q1823.4219,903.791 1823.2188,903.5879 Q1823.0156,903.4004 1822.9063,902.8848 Q1822.8594,902.5254 1822.6719,902.3379 Q1822.3438,901.9629 1821.7344,901.7441 Q1821.125,901.5254 1820.5,901.5254 Q1819.7344,901.5254 1819.0938,901.8535 Q1818.4688,902.1816 1817.9688,902.9316 Q1817.4844,903.6816 1817.4844,904.7129 L1817.4844,905.8066 Q1817.4844,907.041 1818.375,907.8691 Q1819.2656,908.6816 1820.8594,908.6816 Q1821.7969,908.6816 1822.4531,908.4316 Q1822.8438,908.2754 1823.2656,907.8379 Q1823.5313,907.5723 1823.6719,907.4941 Q1823.8281,907.416 1824.0313,907.416 Q1824.3594,907.416 1824.6094,907.6816 Q1824.875,907.9316 1824.875,908.2754 Q1824.875,908.6191 1824.5313,909.0254 Q1824.0313,909.6035 1823.2344,909.9316 Q1822.1563,910.3848 1820.8594,910.3848 Q1819.3438,910.3848 1818.1406,909.7598 Q1817.1563,909.2598 1816.4688,908.1973 Q1815.7813,907.1191 1815.7813,905.8379 L1815.7813,904.6816 Q1815.7813,903.3535 1816.3906,902.2129 Q1817.0156,901.0566 1818.1094,900.4473 Q1819.2031,899.8223 1820.4375,899.8223 Q1821.1719,899.8223 1821.8125,899.9941 Q1822.4688,900.1504 1823.0156,900.5098 Z " fill="#000000"/><text fill="#000000" font-family="sans-serif" font-size="14" lengthAdjust="spacing" textLength="65" x="1840.75" y="910.4316">Candidate</text><line style="stroke:#000000;stroke-width:0.5;" x1="1674.5" x2="2039.5" y1="920.6348" y2="920.6348"/><line style="stroke:#000000;stroke-width:0.5;" x1="1674.5" x2="2039.5" y1="928.6348" y2="928.6348"/><ellipse cx="1684.5" cy="943.4453" fill="#84BE84" rx="3" ry="3" style="stroke:#038048;stroke-width:1.0;"/><text fill="#000000" font-family="sans-serif" font-size="14" lengthAdjust="spacing" textLength="341" x="1693.5" y="947.7422">Candidate(systemUser, telephoneNumber, curriculum)</text><ellipse cx="1684.5" cy="962.0664" fill="#84BE84" rx="3" ry="3" style="stroke:#038048;stroke-width:1.0;"/><text fill="#000000" font-family="sans-serif" font-size="14" lengthAdjust="spacing" textLength="38" x="1693.5" y="966.3633">user()</text><ellipse cx="1684.5" cy="980.6875" fill="#84BE84" rx="3" ry="3" style="stroke:#038048;stroke-width:1.0;"/><text fill="#000000" font-family="sans-serif" font-size="14" lengthAdjust="spacing" textLength="75" x="1693.5" y="984.9844">curriculum()</text><ellipse cx="1684.5" cy="999.3086" fill="#84BE84" rx="3" ry="3" style="stroke:#038048;stroke-width:1.0;"/><text fill="#000000" font-family="sans-serif" font-size="14" lengthAdjust="spacing" textLength="55" x="1693.5" y="1003.6055">identity()</text><ellipse cx="1684.5" cy="1017.9297" fill="#84BE84" rx="3" ry="3" style="stroke:#038048;stroke-width:1.0;"/><text fill="#000000" font-family="sans-serif" font-size="14" lengthAdjust="spacing" textLength="98" x="1693.5" y="1022.2266">sameAs(object)</text><ellipse cx="1684.5" cy="1036.5508" fill="#84BE84" rx="3" ry="3" style="stroke:#038048;stroke-width:1.0;"/><text fill="#000000" font-family="sans-serif" font-size="14" lengthAdjust="spacing" textLength="90" x="1693.5" y="1040.8477">equals(object)</text><ellipse cx="1684.5" cy="1055.1719" fill="#84BE84" rx="3" ry="3" style="stroke:#038048;stroke-width:1.0;"/><text fill="#000000" font-family="sans-serif" font-size="14" lengthAdjust="spacing" textLength="59" x="1693.5" y="1059.4688">toString()</text></g><!--class TelephoneNumber--><g id="elem_TelephoneNumber"><rect codeLine="86" fill="#FFFFFF" height="159.7266" id="TelephoneNumber" rx="2.5" ry="2.5" style="stroke:#000000;stroke-width:0.5;" width="201" x="1673.5" y="1126.6348"/><ellipse cx="1711.9" cy="1142.6348" fill="#ADD1B2" rx="11" ry="11" style="stroke:#181818;stroke-width:1.0;"/><path d="M1714.6656,1138.5098 Q1714.8219,1138.291 1715.0094,1138.1816 Q1715.1969,1138.0723 1715.4156,1138.0723 Q1715.7906,1138.0723 1716.025,1138.3379 Q1716.2594,1138.5879 1716.2594,1139.1973 L1716.2594,1140.6504 Q1716.2594,1141.2598 1716.025,1141.5254 Q1715.7906,1141.791 1715.4156,1141.791 Q1715.0719,1141.791 1714.8688,1141.5879 Q1714.6656,1141.4004 1714.5563,1140.8848 Q1714.5094,1140.5254 1714.3219,1140.3379 Q1713.9938,1139.9629 1713.3844,1139.7441 Q1712.775,1139.5254 1712.15,1139.5254 Q1711.3844,1139.5254 1710.7438,1139.8535 Q1710.1188,1140.1816 1709.6188,1140.9316 Q1709.1344,1141.6816 1709.1344,1142.7129 L1709.1344,1143.8066 Q1709.1344,1145.041 1710.025,1145.8691 Q1710.9156,1146.6816 1712.5094,1146.6816 Q1713.4469,1146.6816 1714.1031,1146.4316 Q1714.4938,1146.2754 1714.9156,1145.8379 Q1715.1813,1145.5723 1715.3219,1145.4941 Q1715.4781,1145.416 1715.6813,1145.416 Q1716.0094,1145.416 1716.2594,1145.6816 Q1716.525,1145.9316 1716.525,1146.2754 Q1716.525,1146.6191 1716.1813,1147.0254 Q1715.6813,1147.6035 1714.8844,1147.9316 Q1713.8063,1148.3848 1712.5094,1148.3848 Q1710.9938,1148.3848 1709.7906,1147.7598 Q1708.8063,1147.2598 1708.1188,1146.1973 Q1707.4313,1145.1191 1707.4313,1143.8379 L1707.4313,1142.6816 Q1707.4313,1141.3535 1708.0406,1140.2129 Q1708.6656,1139.0566 1709.7594,1138.4473 Q1710.8531,1137.8223 1712.0875,1137.8223 Q1712.8219,1137.8223 1713.4625,1137.9941 Q1714.1188,1138.1504 1714.6656,1138.5098 Z " fill="#000000"/><text fill="#000000" font-family="sans-serif" font-size="14" lengthAdjust="spacing" textLength="117" x="1731.1" y="1148.4316">TelephoneNumber</text><line style="stroke:#000000;stroke-width:0.5;" x1="1674.5" x2="1873.5" y1="1158.6348" y2="1158.6348"/><line style="stroke:#000000;stroke-width:0.5;" x1="1674.5" x2="1873.5" y1="1166.6348" y2="1166.6348"/><ellipse cx="1684.5" cy="1181.4453" fill="#84BE84" rx="3" ry="3" style="stroke:#038048;stroke-width:1.0;"/><text fill="#000000" font-family="sans-serif" font-size="14" lengthAdjust="spacing" textLength="175" x="1693.5" y="1185.7422">TelephoneNumber(number)</text><ellipse cx="1684.5" cy="1200.0664" fill="#84BE84" rx="3" ry="3" style="stroke:#038048;stroke-width:1.0;"/><text fill="#000000" font-family="sans-serif" font-size="14" lengthAdjust="spacing" textLength="107" x="1693.5" y="1204.3633">valueOf(number)</text><ellipse cx="1684.5" cy="1218.6875" fill="#84BE84" rx="3" ry="3" style="stroke:#038048;stroke-width:1.0;"/><text fill="#000000" font-family="sans-serif" font-size="14" lengthAdjust="spacing" textLength="98" x="1693.5" y="1222.9844">sameAs(object)</text><ellipse cx="1684.5" cy="1237.3086" fill="#84BE84" rx="3" ry="3" style="stroke:#038048;stroke-width:1.0;"/><text fill="#000000" font-family="sans-serif" font-size="14" lengthAdjust="spacing" textLength="75" x="1693.5" y="1241.6055">hashCode()</text><ellipse cx="1684.5" cy="1255.9297" fill="#84BE84" rx="3" ry="3" style="stroke:#038048;stroke-width:1.0;"/><text fill="#000000" font-family="sans-serif" font-size="14" lengthAdjust="spacing" textLength="90" x="1693.5" y="1260.2266">equals(object)</text><ellipse cx="1684.5" cy="1274.5508" fill="#84BE84" rx="3" ry="3" style="stroke:#038048;stroke-width:1.0;"/><text fill="#000000" font-family="sans-serif" font-size="14" lengthAdjust="spacing" textLength="59" x="1693.5" y="1278.8477">toString()</text></g><!--class Curriculum--><g id="elem_Curriculum"><rect codeLine="95" fill="#FFFFFF" height="159.7266" id="Curriculum" rx="2.5" ry="2.5" style="stroke:#000000;stroke-width:0.5;" width="169" x="1909.5" y="1126.6348"/><ellipse cx="1955.75" cy="1142.6348" fill="#ADD1B2" rx="11" ry="11" style="stroke:#181818;stroke-width:1.0;"/><path d="M1958.5156,1138.5098 Q1958.6719,1138.291 1958.8594,1138.1816 Q1959.0469,1138.0723 1959.2656,1138.0723 Q1959.6406,1138.0723 1959.875,1138.3379 Q1960.1094,1138.5879 1960.1094,1139.1973 L1960.1094,1140.6504 Q1960.1094,1141.2598 1959.875,1141.5254 Q1959.6406,1141.791 1959.2656,1141.791 Q1958.9219,1141.791 1958.7188,1141.5879 Q1958.5156,1141.4004 1958.4063,1140.8848 Q1958.3594,1140.5254 1958.1719,1140.3379 Q1957.8438,1139.9629 1957.2344,1139.7441 Q1956.625,1139.5254 1956,1139.5254 Q1955.2344,1139.5254 1954.5938,1139.8535 Q1953.9688,1140.1816 1953.4688,1140.9316 Q1952.9844,1141.6816 1952.9844,1142.7129 L1952.9844,1143.8066 Q1952.9844,1145.041 1953.875,1145.8691 Q1954.7656,1146.6816 1956.3594,1146.6816 Q1957.2969,1146.6816 1957.9531,1146.4316 Q1958.3438,1146.2754 1958.7656,1145.8379 Q1959.0313,1145.5723 1959.1719,1145.4941 Q1959.3281,1145.416 1959.5313,1145.416 Q1959.8594,1145.416 1960.1094,1145.6816 Q1960.375,1145.9316 1960.375,1146.2754 Q1960.375,1146.6191 1960.0313,1147.0254 Q1959.5313,1147.6035 1958.7344,1147.9316 Q1957.6563,1148.3848 1956.3594,1148.3848 Q1954.8438,1148.3848 1953.6406,1147.7598 Q1952.6563,1147.2598 1951.9688,1146.1973 Q1951.2813,1145.1191 1951.2813,1143.8379 L1951.2813,1142.6816 Q1951.2813,1141.3535 1951.8906,1140.2129 Q1952.5156,1139.0566 1953.6094,1138.4473 Q1954.7031,1137.8223 1955.9375,1137.8223 Q1956.6719,1137.8223 1957.3125,1137.9941 Q1957.9688,1138.1504 1958.5156,1138.5098 Z " fill="#000000"/><text fill="#000000" font-family="sans-serif" font-size="14" lengthAdjust="spacing" textLength="68" x="1976.25" y="1148.4316">Curriculum</text><line style="stroke:#000000;stroke-width:0.5;" x1="1910.5" x2="2077.5" y1="1158.6348" y2="1158.6348"/><line style="stroke:#000000;stroke-width:0.5;" x1="1910.5" x2="2077.5" y1="1166.6348" y2="1166.6348"/><ellipse cx="1920.5" cy="1181.4453" fill="#84BE84" rx="3" ry="3" style="stroke:#038048;stroke-width:1.0;"/><text fill="#000000" font-family="sans-serif" font-size="14" lengthAdjust="spacing" textLength="143" x="1929.5" y="1185.7422">Curriculum(curriculum)</text><ellipse cx="1920.5" cy="1200.0664" fill="#84BE84" rx="3" ry="3" style="stroke:#038048;stroke-width:1.0;"/><text fill="#000000" font-family="sans-serif" font-size="14" lengthAdjust="spacing" textLength="124" x="1929.5" y="1204.3633">valueOf(curriculum)</text><ellipse cx="1920.5" cy="1218.6875" fill="#84BE84" rx="3" ry="3" style="stroke:#038048;stroke-width:1.0;"/><text fill="#000000" font-family="sans-serif" font-size="14" lengthAdjust="spacing" textLength="98" x="1929.5" y="1222.9844">sameAs(object)</text><ellipse cx="1920.5" cy="1237.3086" fill="#84BE84" rx="3" ry="3" style="stroke:#038048;stroke-width:1.0;"/><text fill="#000000" font-family="sans-serif" font-size="14" lengthAdjust="spacing" textLength="75" x="1929.5" y="1241.6055">hashCode()</text><ellipse cx="1920.5" cy="1255.9297" fill="#84BE84" rx="3" ry="3" style="stroke:#038048;stroke-width:1.0;"/><text fill="#000000" font-family="sans-serif" font-size="14" lengthAdjust="spacing" textLength="90" x="1929.5" y="1260.2266">equals(object)</text><ellipse cx="1920.5" cy="1274.5508" fill="#84BE84" rx="3" ry="3" style="stroke:#038048;stroke-width:1.0;"/><text fill="#000000" font-family="sans-serif" font-size="14" lengthAdjust="spacing" textLength="59" x="1929.5" y="1278.8477">toString()</text></g><!--class UserRepository--><g id="elem_UserRepository"><rect codeLine="106" fill="#FFFFFF" height="66.6211" id="UserRepository" rx="2.5" ry="2.5" style="stroke:#000000;stroke-width:0.5;" width="150" x="1266" y="752.6348"/><ellipse cx="1290" cy="768.6348" fill="#B4A7E5" rx="11" ry="11" style="stroke:#181818;stroke-width:1.0;"/><path d="M1290.9531,765.2754 L1290.9531,771.9316 L1292.6719,771.9316 Q1293.2813,771.9316 1293.5469,772.166 Q1293.8125,772.4004 1293.8125,772.791 Q1293.8125,773.166 1293.5469,773.4004 Q1293.2813,773.6348 1292.6719,773.6348 L1287.5313,773.6348 Q1286.9219,773.6348 1286.6563,773.4004 Q1286.3906,773.166 1286.3906,772.7754 Q1286.3906,772.4004 1286.6563,772.166 Q1286.9219,771.9316 1287.5313,771.9316 L1289.25,771.9316 L1289.25,765.2754 L1287.5313,765.2754 Q1286.9219,765.2754 1286.6563,765.041 Q1286.3906,764.8066 1286.3906,764.416 Q1286.3906,764.041 1286.6563,763.8066 Q1286.9219,763.5723 1287.5313,763.5723 L1292.6719,763.5723 Q1293.2813,763.5723 1293.5469,763.8066 Q1293.8125,764.041 1293.8125,764.416 Q1293.8125,764.8066 1293.5469,765.041 Q1293.2813,765.2754 1292.6719,765.2754 L1290.9531,765.2754 Z " fill="#000000"/><text fill="#000000" font-family="sans-serif" font-size="14" font-style="italic" lengthAdjust="spacing" textLength="98" x="1306" y="774.4316">UserRepository</text><line style="stroke:#000000;stroke-width:0.5;" x1="1267" x2="1415" y1="784.6348" y2="784.6348"/><line style="stroke:#000000;stroke-width:0.5;" x1="1267" x2="1415" y1="792.6348" y2="792.6348"/><ellipse cx="1277" cy="807.4453" fill="#84BE84" rx="3" ry="3" style="stroke:#038048;stroke-width:1.0;"/><text fill="#000000" font-family="sans-serif" font-size="14" lengthAdjust="spacing" textLength="124" x="1286" y="811.7422">findByActive(active)</text></g><!--class CandidateRepository--><g id="elem_CandidateRepository"><rect codeLine="110" fill="#FFFFFF" height="66.6211" id="CandidateRepository" rx="2.5" ry="2.5" style="stroke:#000000;stroke-width:0.5;" width="165" x="1451.5" y="752.6348"/><ellipse cx="1466.5" cy="768.6348" fill="#B4A7E5" rx="11" ry="11" style="stroke:#181818;stroke-width:1.0;"/><path d="M1467.4531,765.2754 L1467.4531,771.9316 L1469.1719,771.9316 Q1469.7813,771.9316 1470.0469,772.166 Q1470.3125,772.4004 1470.3125,772.791 Q1470.3125,773.166 1470.0469,773.4004 Q1469.7813,773.6348 1469.1719,773.6348 L1464.0313,773.6348 Q1463.4219,773.6348 1463.1563,773.4004 Q1462.8906,773.166 1462.8906,772.7754 Q1462.8906,772.4004 1463.1563,772.166 Q1463.4219,771.9316 1464.0313,771.9316 L1465.75,771.9316 L1465.75,765.2754 L1464.0313,765.2754 Q1463.4219,765.2754 1463.1563,765.041 Q1462.8906,764.8066 1462.8906,764.416 Q1462.8906,764.041 1463.1563,763.8066 Q1463.4219,763.5723 1464.0313,763.5723 L1469.1719,763.5723 Q1469.7813,763.5723 1470.0469,763.8066 Q1470.3125,764.041 1470.3125,764.416 Q1470.3125,764.8066 1470.0469,765.041 Q1469.7813,765.2754 1469.1719,765.2754 L1467.4531,765.2754 Z " fill="#000000"/><text fill="#000000" font-family="sans-serif" font-size="14" font-style="italic" lengthAdjust="spacing" textLength="133" x="1480.5" y="774.4316">CandidateRepository</text><line style="stroke:#000000;stroke-width:0.5;" x1="1452.5" x2="1615.5" y1="784.6348" y2="784.6348"/><line style="stroke:#000000;stroke-width:0.5;" x1="1452.5" x2="1615.5" y1="792.6348" y2="792.6348"/><ellipse cx="1462.5" cy="807.4453" fill="#84BE84" rx="3" ry="3" style="stroke:#038048;stroke-width:1.0;"/><text fill="#000000" font-family="sans-serif" font-size="14" lengthAdjust="spacing" textLength="96" x="1471.5" y="811.7422">allCandidates()</text></g><!--link RegisterCandidateUI to RegisterCandidateController--><g id="link_RegisterCandidateUI_RegisterCandidateController"><path codeLine="116" d="M764,167.6648 C764,211.1948 764,273.6448 764,320.4748 " fill="none" id="RegisterCandidateUI-to-RegisterCandidateController" style="stroke:#000000;stroke-width:1.0;"/><polygon fill="#000000" points="764,326.4748,768,317.4748,764,321.4748,760,317.4748,764,326.4748" style="stroke:#000000;stroke-width:1.0;"/></g><!--link RegisterCandidateController to AuthorizationService--><g id="link_RegisterCandidateController_AuthorizationService"><path codeLine="118" d="M456.38,378.6348 C437.67,378.6348 424.96,378.6348 406.25,378.6348 " fill="none" id="RegisterCandidateController-to-AuthorizationService" style="stroke:#000000;stroke-width:1.0;"/><polygon fill="#000000" points="400.25,378.6348,409.25,382.6348,405.25,378.6348,409.25,374.6348,400.25,378.6348" style="stroke:#000000;stroke-width:1.0;"/></g><!--link RegisterCandidateController to Jobs4UPasswordPolicy--><g id="link_RegisterCandidateController_Jobs4UPasswordPolicy"><path codeLine="119" d="M649.88,430.7048 C602.3,452.0048 546.47,477.0148 496,499.6348 C463.6,514.1548 434.1439,527.3679 401.4139,542.0579 " fill="none" id="RegisterCandidateController-to-Jobs4UPasswordPolicy" style="stroke:#000000;stroke-width:1.0;"/><polygon fill="#000000" points="395.94,544.5148,405.7888,544.4788,400.5016,542.4674,402.513,537.1802,395.94,544.5148" style="stroke:#000000;stroke-width:1.0;"/></g><!--link RegisterCandidateController to UserManagementService--><g id="link_RegisterCandidateController_UserManagementService"><path codeLine="120" d="M728.6,430.6948 C695.79,478.0148 651.8889,541.3341 627.4189,576.6241 " fill="none" id="RegisterCandidateController-to-UserManagementService" style="stroke:#000000;stroke-width:1.0;"/><polygon fill="#000000" points="624,581.5548,632.4154,576.4381,626.8491,577.4459,625.8412,571.8795,624,581.5548" style="stroke:#000000;stroke-width:1.0;"/></g><!--link RegisterCandidateController to CandidateService--><g id="link_RegisterCandidateController_CandidateService"><path codeLine="121" d="M973.92,430.6448 C1053.26,450.8448 1144.14,475.0848 1226,499.6348 C1271.46,513.2648 1314.5604,527.3204 1359.6004,542.6604 " fill="none" id="RegisterCandidateController-to-CandidateService" style="stroke:#000000;stroke-width:1.0;"/><polygon fill="#000000" points="1365.28,544.5948,1358.0502,537.9068,1360.547,542.9828,1355.471,545.4796,1365.28,544.5948" style="stroke:#000000;stroke-width:1.0;"/></g><!--link UserManagementService to SystemyUserBuilder--><g id="link_UserManagementService_SystemyUserBuilder"><path codeLine="123" d="M625.91,629.9748 C652.24,664.2748 697.4471,723.1749 723.6471,757.3149 " fill="none" id="UserManagementService-to-SystemyUserBuilder" style="stroke:#000000;stroke-width:1.0;"/><polygon fill="#000000" points="727.3,762.0748,724.994,752.4997,724.2559,758.1082,718.6474,757.3702,727.3,762.0748" style="stroke:#000000;stroke-width:1.0;"/></g><!--link UserManagementService to UserRepository--><g id="link_UserManagementService_UserRepository"><path codeLine="124" d="M630.14,629.8548 C651.27,650.2248 685.13,678.4448 721,690.6348 C774.13,708.6848 1172.92,680.4348 1226,698.6348 C1257.67,709.4948 1283.2666,728.6309 1304.6966,748.2709 " fill="none" id="UserManagementService-to-UserRepository" style="stroke:#000000;stroke-width:1.0;"/><polygon fill="#000000" points="1309.12,752.3248,1305.1876,743.295,1305.4339,748.9465,1299.7824,749.1928,1309.12,752.3248" style="stroke:#000000;stroke-width:1.0;"/></g><!--link SystemyUserBuilder to SystemUser--><g id="link_SystemyUserBuilder_SystemUser"><path codeLine="125" d="M778.32,810.1848 C830.95,846.5748 927.7951,913.562 980.5451,950.042 " fill="none" id="SystemyUserBuilder-to-SystemUser" style="stroke:#000000;stroke-width:1.0;"/><polygon fill="#000000" points="985.48,953.4548,980.3529,945.0457,981.3676,950.6108,975.8025,951.6255,985.48,953.4548" style="stroke:#000000;stroke-width:1.0;"/></g><!--link CandidateService to CandidateBuilder--><g id="link_CandidateService_CandidateBuilder"><path codeLine="127" d="M1640.54,666.8148 C1685.16,692.0148 1730.6956,717.7442 1771.0656,740.5442 " fill="none" id="CandidateService-to-CandidateBuilder" style="stroke:#000000;stroke-width:1.0;"/><polygon fill="#000000" points="1776.29,743.4948,1770.4205,735.586,1771.9364,741.0359,1766.4864,742.5518,1776.29,743.4948" style="stroke:#000000;stroke-width:1.0;"/></g><!--link CandidateService to CandidateRepository--><g id="link_CandidateService_CandidateRepository"><path codeLine="128" d="M1534,667.0648 C1534,695.6848 1534,722.7448 1534,746.5848 " fill="none" id="CandidateService-to-CandidateRepository" style="stroke:#000000;stroke-width:1.0;"/><polygon fill="#000000" points="1534,752.5848,1538,743.5848,1534,747.5848,1530,743.5848,1534,752.5848" style="stroke:#000000;stroke-width:1.0;"/></g><!--link CandidateBuilder to Candidate--><g id="link_CandidateBuilder_Candidate"><path codeLine="129" d="M1851.54,828.7248 C1852.19,846.3748 1852.7457,861.669 1853.5257,882.519 " fill="none" id="CandidateBuilder-to-Candidate" style="stroke:#000000;stroke-width:1.0;"/><polygon fill="#000000" points="1853.75,888.5148,1857.4107,879.3715,1853.5631,883.5183,1849.4163,879.6706,1853.75,888.5148" style="stroke:#000000;stroke-width:1.0;"/></g><!--link Candidate to SystemUser--><g id="link_Candidate_SystemUser"><path codeLine="130" d="M1673.16,977.6348 C1472.97,977.6348 1278.79,977.6348 1078.6,977.6348 " fill="none" id="Candidate-to-SystemUser" style="stroke:#000000;stroke-width:1.0;"/><polygon fill="#000000" points="1072.6,977.6348,1081.6,981.6348,1077.6,977.6348,1081.6,973.6348,1072.6,977.6348" style="stroke:#000000;stroke-width:1.0;"/></g><!--link Candidate to TelephoneNumber--><g id="link_Candidate_TelephoneNumber"><path codeLine="131" d="M1824.79,1066.7248 C1817.59,1086.4148 1812.0612,1101.5499 1805.0012,1120.8499 " fill="none" id="Candidate-to-TelephoneNumber" style="stroke:#000000;stroke-width:1.0;"/><polygon fill="#000000" points="1802.94,1126.4848,1809.7884,1119.4067,1804.6577,1121.7891,1802.2753,1116.6584,1802.94,1126.4848" style="stroke:#000000;stroke-width:1.0;"/></g><!--link Candidate to Curriculum--><g id="link_Candidate_Curriculum"><path codeLine="132" d="M1910.16,1066.7248 C1922.05,1086.4148 1931.4793,1102.048 1943.1293,1121.348 " fill="none" id="Candidate-to-Curriculum" style="stroke:#000000;stroke-width:1.0;"/><polygon fill="#000000" points="1946.23,1126.4848,1945.0035,1116.7126,1943.6461,1122.2042,1938.1545,1120.8468,1946.23,1126.4848" style="stroke:#000000;stroke-width:1.0;"/></g><!--SRC=[lLPBSzem4BxxLsXogJCbXyxad1aWQIPj2Xd8erTXBrX5bgWamv1C_djN-8Kj6PAqKox0xhVlrIVf9HChgcXA8awr9Yy1mS-0Hik5afc8Xv9BHPuIPc2dwIibDxbmm16LmwMAGRMbNwKmFjcKFGFvSXwy1i4zCnp8oN0N-fBHXKtaZ4nWmRG1HIY9g8XPJ0sS1C4AlT05ubSAD0X33PFYf4WvJx-q79Pc3pU5tdu-arXE4xa9J_T42T2OCm65yDNcLKMgmnTkAWrThJYB6YaSI6E8TIl9ETPKO_FugeqDvqnfCw8fz0XwAtv1IXdl4NI2Vo8528p7eaSCS5WbKi0eIsUWK9SfnQACP-bf8z9POJNTOhJqGODwJo2_hphdJDlORqhcjUXpgv-PIQHYpnqTxU-hfw3MB0AdbTO7xeKTIvwHs5MawEOEVMnmI_Ewz6dBC4geM409AegHFAxD15G-ZXY_rSpki6c4T1nBWHDA9muG6osN82htxU48sOzidoPiaHXzBnyfpwTaYs-35HZ5O0sxZIYRjZyjxxWiq9sIzV632aIaE8TgJ8LnZSjtS6lXWupns1wB3f35D9H26Y3ALaRat1yngAlpwdlxld65VVbG1NaUe2jtSoLJWYj6WEBXnx_OAHpAacXfnKoH571DOxspnaInkGLNGLnvcK54iNs46QGZqEAJ8IbT0a4OIesiZNQnwYXCu6zjL1QPJDL50XPWczBktpSvq-SFvUBSIQIhhNDac9xYaT9p1l5W6wuwThMKNuC0HOrKOND9SXIc1c9Xaaut8BAKb0bD2pHvkHazzczlBdlawQh_lKUknsFyVVLpU7LxUpMwVpr273gVgNQtiMAdBhvmgLTNU_4EPltiiE47tSmPNhYLavPX6qmvhx0wF4QliKHQ5mTwL9t3LfWDCqcVyu-MDBDkGuTEF0auaV-wdPQZGcTK5TnHiTXU7cRhA3GkUr-7SlOB8kCizU-CyYwbaRZcJ2mETU2-MP7JXvO-5DvrM5EUmNZUeJrOGK9rCfGnXF-yj67LR7UwzHow9rWMrOtuNuNvpXJojDGCsP0rsOSXtQivHSAnApifKIxvslC-sDgxUWqXtNrvcraxhCx40Q_7Y04T-vx9PsSNXzwj7gEzHotQ-bveXstGo7T77JNot_d7hDgtGH3uNoiMwxu7ki0NhHa7dgT4xT5AWy2vbnhfbG4Fe_OYEXJU0DPgqanZJuwA5icqjFLX3Vu0]--></g></svg>