<?xml version="1.0" encoding="us-ascii" standalone="no"?><svg xmlns="http://www.w3.org/2000/svg" xmlns:xlink="http://www.w3.org/1999/xlink" contentStyleType="text/css" height="947px" preserveAspectRatio="none" style="width:2198px;height:947px;background:#FFFFFF;" version="1.1" viewBox="0 0 2198 947" width="2198px" zoomAndPan="magnify"><defs/><g><rect fill="#FFFFFF" height="732.2754" style="stroke:#181818;stroke-width:1.0;" width="10" x="31.5" y="98.2422"/><rect fill="#FFFFFF" height="48.582" style="stroke:#181818;stroke-width:1.0;" width="10" x="406.5" y="121.5332"/><rect fill="#FFFFFF" height="629.1113" style="stroke:#181818;stroke-width:1.0;" width="10" x="406.5" y="201.4063"/><rect fill="#FFFFFF" height="549.2383" style="stroke:#181818;stroke-width:1.0;" width="10" x="720.5" y="249.9883"/><rect fill="#FFFFFF" height="31.291" style="stroke:#181818;stroke-width:1.0;" width="10" x="1045.5" y="281.2793"/><rect fill="#FFFFFF" height="31.291" style="stroke:#181818;stroke-width:1.0;" width="10" x="1206" y="343.8613"/><rect fill="#FFFFFF" height="173.7461" style="stroke:#181818;stroke-width:1.0;" width="10" x="1381" y="406.4434"/><rect fill="#FFFFFF" height="156.4551" style="stroke:#181818;stroke-width:1.0;" width="10" x="1540" y="611.4805"/><rect fill="#FFFFFF" height="31.291" style="stroke:#181818;stroke-width:1.0;" width="10" x="1679.5" y="455.0254"/><rect fill="#FFFFFF" height="31.291" style="stroke:#181818;stroke-width:1.0;" width="10" x="1869" y="642.7715"/><rect fill="#FFFFFF" height="31.291" style="stroke:#181818;stroke-width:1.0;" width="10" x="1992" y="517.6074"/><rect fill="#FFFFFF" height="31.291" style="stroke:#181818;stroke-width:1.0;" width="10" x="2123" y="705.3535"/><line style="stroke:#181818;stroke-width:0.5;stroke-dasharray:5.0,5.0;" x1="36" x2="36" y1="88.2422" y2="848.5176"/><line style="stroke:#181818;stroke-width:0.5;stroke-dasharray:5.0,5.0;" x1="411.5" x2="411.5" y1="88.2422" y2="848.5176"/><line style="stroke:#181818;stroke-width:0.5;stroke-dasharray:5.0,5.0;" x1="725.5" x2="725.5" y1="88.2422" y2="848.5176"/><line style="stroke:#181818;stroke-width:0.5;stroke-dasharray:5.0,5.0;" x1="1050" x2="1050" y1="88.2422" y2="848.5176"/><line style="stroke:#181818;stroke-width:0.5;stroke-dasharray:5.0,5.0;" x1="1211" x2="1211" y1="88.2422" y2="848.5176"/><line style="stroke:#181818;stroke-width:0.5;stroke-dasharray:5.0,5.0;" x1="1386" x2="1386" y1="88.2422" y2="848.5176"/><line style="stroke:#181818;stroke-width:0.5;stroke-dasharray:5.0,5.0;" x1="1545" x2="1545" y1="88.2422" y2="848.5176"/><line style="stroke:#181818;stroke-width:0.5;stroke-dasharray:5.0,5.0;" x1="1684" x2="1684" y1="88.2422" y2="848.5176"/><line style="stroke:#181818;stroke-width:0.5;stroke-dasharray:5.0,5.0;" x1="1873.5" x2="1873.5" y1="88.2422" y2="848.5176"/><line style="stroke:#181818;stroke-width:0.5;stroke-dasharray:5.0,5.0;" x1="1996.5" x2="1996.5" y1="88.2422" y2="848.5176"/><line style="stroke:#181818;stroke-width:0.5;stroke-dasharray:5.0,5.0;" x1="2127.5" x2="2127.5" y1="88.2422" y2="848.5176"/><text fill="#000000" font-family="sans-serif" font-size="14" lengthAdjust="spacing" textLength="57" x="5" y="84.7285">Operator</text><ellipse cx="36.5" cy="18.1211" fill="#E2E2F0" rx="8" ry="8" style="stroke:#181818;stroke-width:0.5;"/><path d="M36.5,26.1211 L36.5,53.1211 M23.5,34.1211 L49.5,34.1211 M36.5,53.1211 L23.5,68.1211 M36.5,53.1211 L49.5,68.1211 " fill="none" style="stroke:#181818;stroke-width:0.5;"/><text fill="#000000" font-family="sans-serif" font-size="14" lengthAdjust="spacing" textLength="57" x="5" y="862.625">Operator</text><ellipse cx="36.5" cy="874.6387" fill="#E2E2F0" rx="8" ry="8" style="stroke:#181818;stroke-width:0.5;"/><path d="M36.5,882.6387 L36.5,909.6387 M23.5,890.6387 L49.5,890.6387 M36.5,909.6387 L23.5,924.6387 M36.5,909.6387 L49.5,924.6387 " fill="none" style="stroke:#181818;stroke-width:0.5;"/><rect fill="#E2E2F0" height="51.2422" rx="2.5" ry="2.5" style="stroke:#181818;stroke-width:0.5;" width="144" x="339.5" y="36"/><text fill="#000000" font-family="sans-serif" font-size="14" font-style="italic" lengthAdjust="spacing" textLength="95" x="364" y="58.1074">&#171;presentation&#187;</text><text fill="#000000" font-family="sans-serif" font-size="14" lengthAdjust="spacing" textLength="130" x="346.5" y="76.7285">RegisterCandidateUI</text><rect fill="#E2E2F0" height="51.2422" rx="2.5" ry="2.5" style="stroke:#181818;stroke-width:0.5;" width="144" x="339.5" y="847.5176"/><text fill="#000000" font-family="sans-serif" font-size="14" font-style="italic" lengthAdjust="spacing" textLength="95" x="364" y="869.625">&#171;presentation&#187;</text><text fill="#000000" font-family="sans-serif" font-size="14" lengthAdjust="spacing" textLength="130" x="346.5" y="888.2461">RegisterCandidateUI</text><rect fill="#E2E2F0" height="51.2422" rx="2.5" ry="2.5" style="stroke:#181818;stroke-width:0.5;" width="194" x="628.5" y="36"/><text fill="#000000" font-family="sans-serif" font-size="14" font-style="italic" lengthAdjust="spacing" textLength="75" x="688" y="58.1074">&#171;controller&#187;</text><text fill="#000000" font-family="sans-serif" font-size="14" lengthAdjust="spacing" textLength="180" x="635.5" y="76.7285">RegisterCandidateController</text><rect fill="#E2E2F0" height="51.2422" rx="2.5" ry="2.5" style="stroke:#181818;stroke-width:0.5;" width="194" x="628.5" y="847.5176"/><text fill="#000000" font-family="sans-serif" font-size="14" font-style="italic" lengthAdjust="spacing" textLength="75" x="688" y="869.625">&#171;controller&#187;</text><text fill="#000000" font-family="sans-serif" font-size="14" lengthAdjust="spacing" textLength="180" x="635.5" y="888.2461">RegisterCandidateController</text><rect fill="#E2E2F0" height="51.2422" rx="2.5" ry="2.5" style="stroke:#181818;stroke-width:0.5;" width="143" x="979" y="36"/><text fill="#000000" font-family="sans-serif" font-size="14" font-style="italic" lengthAdjust="spacing" textLength="60" x="1020.5" y="58.1074">&#171;service&#187;</text><text fill="#000000" font-family="sans-serif" font-size="14" lengthAdjust="spacing" textLength="129" x="986" y="76.7285">AuthorizationService</text><rect fill="#E2E2F0" height="51.2422" rx="2.5" ry="2.5" style="stroke:#181818;stroke-width:0.5;" width="143" x="979" y="847.5176"/><text fill="#000000" font-family="sans-serif" font-size="14" font-style="italic" lengthAdjust="spacing" textLength="60" x="1020.5" y="869.625">&#171;service&#187;</text><text fill="#000000" font-family="sans-serif" font-size="14" lengthAdjust="spacing" textLength="129" x="986" y="888.2461">AuthorizationService</text><rect fill="#E2E2F0" height="51.2422" rx="2.5" ry="2.5" style="stroke:#181818;stroke-width:0.5;" width="158" x="1132" y="36"/><text fill="#000000" font-family="sans-serif" font-size="14" font-style="italic" lengthAdjust="spacing" textLength="52" x="1185" y="58.1074">&#171;policy&#187;</text><text fill="#000000" font-family="sans-serif" font-size="14" lengthAdjust="spacing" textLength="144" x="1139" y="76.7285">Jobs4UPasswordPolicy</text><rect fill="#E2E2F0" height="51.2422" rx="2.5" ry="2.5" style="stroke:#181818;stroke-width:0.5;" width="158" x="1132" y="847.5176"/><text fill="#000000" font-family="sans-serif" font-size="14" font-style="italic" lengthAdjust="spacing" textLength="52" x="1185" y="869.625">&#171;policy&#187;</text><text fill="#000000" font-family="sans-serif" font-size="14" lengthAdjust="spacing" textLength="144" x="1139" y="888.2461">Jobs4UPasswordPolicy</text><rect fill="#E2E2F0" height="51.2422" rx="2.5" ry="2.5" style="stroke:#181818;stroke-width:0.5;" width="172" x="1300" y="36"/><text fill="#000000" font-family="sans-serif" font-size="14" font-style="italic" lengthAdjust="spacing" textLength="60" x="1356" y="58.1074">&#171;service&#187;</text><text fill="#000000" font-family="sans-serif" font-size="14" lengthAdjust="spacing" textLength="158" x="1307" y="76.7285">UserManagementService</text><rect fill="#E2E2F0" height="51.2422" rx="2.5" ry="2.5" style="stroke:#181818;stroke-width:0.5;" width="172" x="1300" y="847.5176"/><text fill="#000000" font-family="sans-serif" font-size="14" font-style="italic" lengthAdjust="spacing" textLength="60" x="1356" y="869.625">&#171;service&#187;</text><text fill="#000000" font-family="sans-serif" font-size="14" lengthAdjust="spacing" textLength="158" x="1307" y="888.2461">UserManagementService</text><rect fill="#E2E2F0" height="51.2422" rx="2.5" ry="2.5" style="stroke:#181818;stroke-width:0.5;" width="126" x="1482" y="36"/><text fill="#000000" font-family="sans-serif" font-size="14" font-style="italic" lengthAdjust="spacing" textLength="60" x="1515" y="58.1074">&#171;service&#187;</text><text fill="#000000" font-family="sans-serif" font-size="14" lengthAdjust="spacing" textLength="112" x="1489" y="76.7285">CandidateService</text><rect fill="#E2E2F0" height="51.2422" rx="2.5" ry="2.5" style="stroke:#181818;stroke-width:0.5;" width="126" x="1482" y="847.5176"/><text fill="#000000" font-family="sans-serif" font-size="14" font-style="italic" lengthAdjust="spacing" textLength="60" x="1515" y="869.625">&#171;service&#187;</text><text fill="#000000" font-family="sans-serif" font-size="14" lengthAdjust="spacing" textLength="112" x="1489" y="888.2461">CandidateService</text><rect fill="#E2E2F0" height="51.2422" rx="2.5" ry="2.5" style="stroke:#181818;stroke-width:0.5;" width="133" x="1618" y="36"/><text fill="#000000" font-family="sans-serif" font-size="14" font-style="italic" lengthAdjust="spacing" textLength="59" x="1655" y="58.1074">&#171;builder&#187;</text><text fill="#000000" font-family="sans-serif" font-size="14" lengthAdjust="spacing" textLength="119" x="1625" y="76.7285">SystemUserBuilder</text><rect fill="#E2E2F0" height="51.2422" rx="2.5" ry="2.5" style="stroke:#181818;stroke-width:0.5;" width="133" x="1618" y="847.5176"/><text fill="#000000" font-family="sans-serif" font-size="14" font-style="italic" lengthAdjust="spacing" textLength="59" x="1655" y="869.625">&#171;builder&#187;</text><text fill="#000000" font-family="sans-serif" font-size="14" lengthAdjust="spacing" textLength="119" x="1625" y="888.2461">SystemUserBuilder</text><rect fill="#E2E2F0" height="51.2422" rx="2.5" ry="2.5" style="stroke:#181818;stroke-width:0.5;" width="123" x="1812.5" y="36"/><text fill="#000000" font-family="sans-serif" font-size="14" font-style="italic" lengthAdjust="spacing" textLength="59" x="1844.5" y="58.1074">&#171;builder&#187;</text><text fill="#000000" font-family="sans-serif" font-size="14" lengthAdjust="spacing" textLength="109" x="1819.5" y="76.7285">CandidateBuilder</text><rect fill="#E2E2F0" height="51.2422" rx="2.5" ry="2.5" style="stroke:#181818;stroke-width:0.5;" width="123" x="1812.5" y="847.5176"/><text fill="#000000" font-family="sans-serif" font-size="14" font-style="italic" lengthAdjust="spacing" textLength="59" x="1844.5" y="869.625">&#171;builder&#187;</text><text fill="#000000" font-family="sans-serif" font-size="14" lengthAdjust="spacing" textLength="109" x="1819.5" y="888.2461">CandidateBuilder</text><text fill="#000000" font-family="sans-serif" font-size="14" font-style="italic" lengthAdjust="spacing" textLength="79" x="1954.5" y="66.1074">&#171;repository&#187;</text><text fill="#000000" font-family="sans-serif" font-size="14" lengthAdjust="spacing" textLength="97" x="1945.5" y="84.7285">UserRepository</text><path d="M1979,15 C1979,5 1997,5 1997,5 C1997,5 2015,5 2015,15 L2015,41 C2015,51 1997,51 1997,51 C1997,51 1979,51 1979,41 L1979,15 " fill="#E2E2F0" style="stroke:#181818;stroke-width:1.5;"/><path d="M1979,15 C1979,25 1997,25 1997,25 C1997,25 2015,25 2015,15 " fill="none" style="stroke:#181818;stroke-width:1.5;"/><text fill="#000000" font-family="sans-serif" font-size="14" font-style="italic" lengthAdjust="spacing" textLength="79" x="1954.5" y="862.625">&#171;repository&#187;</text><text fill="#000000" font-family="sans-serif" font-size="14" lengthAdjust="spacing" textLength="97" x="1945.5" y="881.2461">UserRepository</text><path d="M1979,894.7598 C1979,884.7598 1997,884.7598 1997,884.7598 C1997,884.7598 2015,884.7598 2015,894.7598 L2015,920.7598 C2015,930.7598 1997,930.7598 1997,930.7598 C1997,930.7598 1979,930.7598 1979,920.7598 L1979,894.7598 " fill="#E2E2F0" style="stroke:#181818;stroke-width:1.5;"/><path d="M1979,894.7598 C1979,904.7598 1997,904.7598 1997,904.7598 C1997,904.7598 2015,904.7598 2015,894.7598 " fill="none" style="stroke:#181818;stroke-width:1.5;"/><text fill="#000000" font-family="sans-serif" font-size="14" font-style="italic" lengthAdjust="spacing" textLength="79" x="2085.5" y="66.1074">&#171;repository&#187;</text><text fill="#000000" font-family="sans-serif" font-size="14" lengthAdjust="spacing" textLength="133" x="2058.5" y="84.7285">CandidateRepository</text><path d="M2110,15 C2110,5 2128,5 2128,5 C2128,5 2146,5 2146,15 L2146,41 C2146,51 2128,51 2128,51 C2128,51 2110,51 2110,41 L2110,15 " fill="#E2E2F0" style="stroke:#181818;stroke-width:1.5;"/><path d="M2110,15 C2110,25 2128,25 2128,25 C2128,25 2146,25 2146,15 " fill="none" style="stroke:#181818;stroke-width:1.5;"/><text fill="#000000" font-family="sans-serif" font-size="14" font-style="italic" lengthAdjust="spacing" textLength="79" x="2085.5" y="862.625">&#171;repository&#187;</text><text fill="#000000" font-family="sans-serif" font-size="14" lengthAdjust="spacing" textLength="133" x="2058.5" y="881.2461">CandidateRepository</text><path d="M2110,894.7598 C2110,884.7598 2128,884.7598 2128,884.7598 C2128,884.7598 2146,884.7598 2146,894.7598 L2146,920.7598 C2146,930.7598 2128,930.7598 2128,930.7598 C2128,930.7598 2110,930.7598 2110,920.7598 L2110,894.7598 " fill="#E2E2F0" style="stroke:#181818;stroke-width:1.5;"/><path d="M2110,894.7598 C2110,904.7598 2128,904.7598 2128,904.7598 C2128,904.7598 2146,904.7598 2146,894.7598 " fill="none" style="stroke:#181818;stroke-width:1.5;"/><rect fill="#FFFFFF" height="732.2754" style="stroke:#181818;stroke-width:1.0;" width="10" x="31.5" y="98.2422"/><rect fill="#FFFFFF" height="48.582" style="stroke:#181818;stroke-width:1.0;" width="10" x="406.5" y="121.5332"/><rect fill="#FFFFFF" height="629.1113" style="stroke:#181818;stroke-width:1.0;" width="10" x="406.5" y="201.4063"/><rect fill="#FFFFFF" height="549.2383" style="stroke:#181818;stroke-width:1.0;" width="10" x="720.5" y="249.9883"/><rect fill="#FFFFFF" height="31.291" style="stroke:#181818;stroke-width:1.0;" width="10" x="1045.5" y="281.2793"/><rect fill="#FFFFFF" height="31.291" style="stroke:#181818;stroke-width:1.0;" width="10" x="1206" y="343.8613"/><rect fill="#FFFFFF" height="173.7461" style="stroke:#181818;stroke-width:1.0;" width="10" x="1381" y="406.4434"/><rect fill="#FFFFFF" height="156.4551" style="stroke:#181818;stroke-width:1.0;" width="10" x="1540" y="611.4805"/><rect fill="#FFFFFF" height="31.291" style="stroke:#181818;stroke-width:1.0;" width="10" x="1679.5" y="455.0254"/><rect fill="#FFFFFF" height="31.291" style="stroke:#181818;stroke-width:1.0;" width="10" x="1869" y="642.7715"/><rect fill="#FFFFFF" height="31.291" style="stroke:#181818;stroke-width:1.0;" width="10" x="1992" y="517.6074"/><rect fill="#FFFFFF" height="31.291" style="stroke:#181818;stroke-width:1.0;" width="10" x="2123" y="705.3535"/><polygon fill="#181818" points="394.5,117.5332,404.5,121.5332,394.5,125.5332,398.5,121.5332" style="stroke:#181818;stroke-width:1.0;"/><line style="stroke:#181818;stroke-width:1.0;" x1="41.5" x2="400.5" y1="121.5332" y2="121.5332"/><text fill="#000000" font-family="sans-serif" font-size="13" font-weight="bold" lengthAdjust="spacing" textLength="7" x="48.5" y="116.2705">1</text><text fill="#000000" font-family="sans-serif" font-size="13" lengthAdjust="spacing" textLength="188" x="59.5" y="116.2705">asks to register a new candidate</text><polygon fill="#181818" points="52.5,166.1152,42.5,170.1152,52.5,174.1152,48.5,170.1152" style="stroke:#181818;stroke-width:1.0;"/><line style="stroke:#181818;stroke-width:1.0;stroke-dasharray:2.0,2.0;" x1="46.5" x2="410.5" y1="170.1152" y2="170.1152"/><text fill="#000000" font-family="sans-serif" font-size="13" font-weight="bold" lengthAdjust="spacing" textLength="7" x="58.5" y="156.207">2</text><text fill="#000000" font-family="sans-serif" font-size="13" lengthAdjust="spacing" textLength="330" x="69.5" y="147.5615">requests account opening details (FirstName, LastName,</text><text fill="#000000" font-family="sans-serif" font-size="13" lengthAdjust="spacing" textLength="219" x="73.5" y="164.8525">Email, TelephoneNumber, Curriculum)</text><polygon fill="#181818" points="394.5,197.4063,404.5,201.4063,394.5,205.4063,398.5,201.4063" style="stroke:#181818;stroke-width:1.0;"/><line style="stroke:#181818;stroke-width:1.0;" x1="41.5" x2="400.5" y1="201.4063" y2="201.4063"/><text fill="#000000" font-family="sans-serif" font-size="13" font-weight="bold" lengthAdjust="spacing" textLength="7" x="48.5" y="196.1436">3</text><text fill="#000000" font-family="sans-serif" font-size="13" lengthAdjust="spacing" textLength="188" x="59.5" y="196.1436">provides account opening details</text><polygon fill="#181818" points="708.5,245.9883,718.5,249.9883,708.5,253.9883,712.5,249.9883" style="stroke:#181818;stroke-width:1.0;"/><line style="stroke:#181818;stroke-width:1.0;" x1="416.5" x2="714.5" y1="249.9883" y2="249.9883"/><text fill="#000000" font-family="sans-serif" font-size="13" font-weight="bold" lengthAdjust="spacing" textLength="7" x="423.5" y="236.0801">4</text><text fill="#000000" font-family="sans-serif" font-size="13" lengthAdjust="spacing" textLength="266" x="434.5" y="227.4346">registerCandidate(firstName, lastName, email,</text><text fill="#000000" font-family="sans-serif" font-size="13" lengthAdjust="spacing" textLength="270" x="438.5" y="244.7256">role, createdOn, telephoneNumber, curriculum)</text><polygon fill="#181818" points="1033.5,277.2793,1043.5,281.2793,1033.5,285.2793,1037.5,281.2793" style="stroke:#181818;stroke-width:1.0;"/><line style="stroke:#181818;stroke-width:1.0;" x1="730.5" x2="1039.5" y1="281.2793" y2="281.2793"/><text fill="#000000" font-family="sans-serif" font-size="13" font-weight="bold" lengthAdjust="spacing" textLength="7" x="737.5" y="276.0166">5</text><text fill="#000000" font-family="sans-serif" font-size="13" lengthAdjust="spacing" textLength="285" x="748.5" y="276.0166">ensureAuthenticatedUserHasAnyOf(OPERATOR)</text><polygon fill="#181818" points="741.5,308.5703,731.5,312.5703,741.5,316.5703,737.5,312.5703" style="stroke:#181818;stroke-width:1.0;"/><line style="stroke:#181818;stroke-width:1.0;stroke-dasharray:2.0,2.0;" x1="735.5" x2="1049.5" y1="312.5703" y2="312.5703"/><text fill="#000000" font-family="sans-serif" font-size="13" font-weight="bold" lengthAdjust="spacing" textLength="7" x="747.5" y="307.3076">6</text><text fill="#000000" font-family="sans-serif" font-size="13" lengthAdjust="spacing" textLength="66" x="758.5" y="307.3076">returns true</text><polygon fill="#181818" points="1194,339.8613,1204,343.8613,1194,347.8613,1198,343.8613" style="stroke:#181818;stroke-width:1.0;"/><line style="stroke:#181818;stroke-width:1.0;" x1="730.5" x2="1200" y1="343.8613" y2="343.8613"/><text fill="#000000" font-family="sans-serif" font-size="13" font-weight="bold" lengthAdjust="spacing" textLength="7" x="737.5" y="338.5986">7</text><text fill="#000000" font-family="sans-serif" font-size="13" lengthAdjust="spacing" textLength="175" x="748.5" y="338.5986">passwordGenerator(firstName)</text><polygon fill="#181818" points="741.5,371.1523,731.5,375.1523,741.5,379.1523,737.5,375.1523" style="stroke:#181818;stroke-width:1.0;"/><line style="stroke:#181818;stroke-width:1.0;stroke-dasharray:2.0,2.0;" x1="735.5" x2="1210" y1="375.1523" y2="375.1523"/><text fill="#000000" font-family="sans-serif" font-size="13" font-weight="bold" lengthAdjust="spacing" textLength="7" x="747.5" y="369.8896">8</text><text fill="#000000" font-family="sans-serif" font-size="13" lengthAdjust="spacing" textLength="99" x="758.5" y="369.8896">returns password</text><polygon fill="#181818" points="1369,402.4434,1379,406.4434,1369,410.4434,1373,406.4434" style="stroke:#181818;stroke-width:1.0;"/><line style="stroke:#181818;stroke-width:1.0;" x1="730.5" x2="1375" y1="406.4434" y2="406.4434"/><text fill="#000000" font-family="sans-serif" font-size="13" font-weight="bold" lengthAdjust="spacing" textLength="7" x="737.5" y="401.1807">9</text><text fill="#000000" font-family="sans-serif" font-size="13" lengthAdjust="spacing" textLength="466" x="748.5" y="401.1807">registerNewUser(email, password, firstName, lastName, email, roles, createdOn)</text><polygon fill="#181818" points="1667.5,451.0254,1677.5,455.0254,1667.5,459.0254,1671.5,455.0254" style="stroke:#181818;stroke-width:1.0;"/><line style="stroke:#181818;stroke-width:1.0;" x1="1391" x2="1673.5" y1="455.0254" y2="455.0254"/><text fill="#000000" font-family="sans-serif" font-size="13" font-weight="bold" lengthAdjust="spacing" textLength="14" x="1398" y="441.1172">10</text><text fill="#000000" font-family="sans-serif" font-size="13" lengthAdjust="spacing" textLength="192" x="1416" y="432.4717">build(firstName, lastName, email,</text><text fill="#000000" font-family="sans-serif" font-size="13" lengthAdjust="spacing" textLength="163" x="1420" y="449.7627">password, roles, createdOn)</text><polygon fill="#181818" points="1402,482.3164,1392,486.3164,1402,490.3164,1398,486.3164" style="stroke:#181818;stroke-width:1.0;"/><line style="stroke:#181818;stroke-width:1.0;stroke-dasharray:2.0,2.0;" x1="1396" x2="1683.5" y1="486.3164" y2="486.3164"/><text fill="#000000" font-family="sans-serif" font-size="13" font-weight="bold" lengthAdjust="spacing" textLength="14" x="1408" y="481.0537">11</text><text fill="#000000" font-family="sans-serif" font-size="13" lengthAdjust="spacing" textLength="114" x="1426" y="481.0537">returns systemUser</text><polygon fill="#181818" points="1980,513.6074,1990,517.6074,1980,521.6074,1984,517.6074" style="stroke:#181818;stroke-width:1.0;"/><line style="stroke:#181818;stroke-width:1.0;" x1="1391" x2="1986" y1="517.6074" y2="517.6074"/><text fill="#000000" font-family="sans-serif" font-size="13" font-weight="bold" lengthAdjust="spacing" textLength="14" x="1398" y="512.3447">12</text><text fill="#000000" font-family="sans-serif" font-size="13" lengthAdjust="spacing" textLength="104" x="1416" y="512.3447">save(systemUser)</text><polygon fill="#181818" points="1402,544.8984,1392,548.8984,1402,552.8984,1398,548.8984" style="stroke:#181818;stroke-width:1.0;"/><line style="stroke:#181818;stroke-width:1.0;stroke-dasharray:2.0,2.0;" x1="1396" x2="1996" y1="548.8984" y2="548.8984"/><text fill="#000000" font-family="sans-serif" font-size="13" font-weight="bold" lengthAdjust="spacing" textLength="14" x="1408" y="543.6357">13</text><text fill="#000000" font-family="sans-serif" font-size="13" lengthAdjust="spacing" textLength="114" x="1426" y="543.6357">returns systemUser</text><polygon fill="#181818" points="741.5,576.1895,731.5,580.1895,741.5,584.1895,737.5,580.1895" style="stroke:#181818;stroke-width:1.0;"/><line style="stroke:#181818;stroke-width:1.0;stroke-dasharray:2.0,2.0;" x1="735.5" x2="1385" y1="580.1895" y2="580.1895"/><text fill="#000000" font-family="sans-serif" font-size="13" font-weight="bold" lengthAdjust="spacing" textLength="14" x="747.5" y="574.9268">14</text><text fill="#000000" font-family="sans-serif" font-size="13" lengthAdjust="spacing" textLength="114" x="765.5" y="574.9268">returns systemUser</text><polygon fill="#181818" points="1528,607.4805,1538,611.4805,1528,615.4805,1532,611.4805" style="stroke:#181818;stroke-width:1.0;"/><line style="stroke:#181818;stroke-width:1.0;" x1="730.5" x2="1534" y1="611.4805" y2="611.4805"/><text fill="#000000" font-family="sans-serif" font-size="13" font-weight="bold" lengthAdjust="spacing" textLength="14" x="737.5" y="606.2178">15</text><text fill="#000000" font-family="sans-serif" font-size="13" lengthAdjust="spacing" textLength="356" x="755.5" y="606.2178">registerCandidate(systemUser, telephoneNumber, curriculum)</text><polygon fill="#181818" points="1857,638.7715,1867,642.7715,1857,646.7715,1861,642.7715" style="stroke:#181818;stroke-width:1.0;"/><line style="stroke:#181818;stroke-width:1.0;" x1="1550" x2="1863" y1="642.7715" y2="642.7715"/><text fill="#000000" font-family="sans-serif" font-size="13" font-weight="bold" lengthAdjust="spacing" textLength="14" x="1557" y="637.5088">16</text><text fill="#000000" font-family="sans-serif" font-size="13" lengthAdjust="spacing" textLength="282" x="1575" y="637.5088">build(systemUser, telephoneNumber, curriculum)</text><polygon fill="#181818" points="1561,670.0625,1551,674.0625,1561,678.0625,1557,674.0625" style="stroke:#181818;stroke-width:1.0;"/><line style="stroke:#181818;stroke-width:1.0;stroke-dasharray:2.0,2.0;" x1="1555" x2="1873" y1="674.0625" y2="674.0625"/><text fill="#000000" font-family="sans-serif" font-size="13" font-weight="bold" lengthAdjust="spacing" textLength="14" x="1567" y="668.7998">17</text><text fill="#000000" font-family="sans-serif" font-size="13" lengthAdjust="spacing" textLength="100" x="1585" y="668.7998">returns candidate</text><polygon fill="#181818" points="2111,701.3535,2121,705.3535,2111,709.3535,2115,705.3535" style="stroke:#181818;stroke-width:1.0;"/><line style="stroke:#181818;stroke-width:1.0;" x1="1550" x2="2117" y1="705.3535" y2="705.3535"/><text fill="#000000" font-family="sans-serif" font-size="13" font-weight="bold" lengthAdjust="spacing" textLength="14" x="1557" y="700.0908">18</text><text fill="#000000" font-family="sans-serif" font-size="13" lengthAdjust="spacing" textLength="90" x="1575" y="700.0908">save(candidate)</text><polygon fill="#181818" points="1561,732.6445,1551,736.6445,1561,740.6445,1557,736.6445" style="stroke:#181818;stroke-width:1.0;"/><line style="stroke:#181818;stroke-width:1.0;stroke-dasharray:2.0,2.0;" x1="1555" x2="2127" y1="736.6445" y2="736.6445"/><text fill="#000000" font-family="sans-serif" font-size="13" font-weight="bold" lengthAdjust="spacing" textLength="14" x="1567" y="731.3818">19</text><text fill="#000000" font-family="sans-serif" font-size="13" lengthAdjust="spacing" textLength="100" x="1585" y="731.3818">returns candidate</text><polygon fill="#181818" points="741.5,763.9355,731.5,767.9355,741.5,771.9355,737.5,767.9355" style="stroke:#181818;stroke-width:1.0;"/><line style="stroke:#181818;stroke-width:1.0;stroke-dasharray:2.0,2.0;" x1="735.5" x2="1544" y1="767.9355" y2="767.9355"/><text fill="#000000" font-family="sans-serif" font-size="13" font-weight="bold" lengthAdjust="spacing" textLength="14" x="747.5" y="762.6729">20</text><text fill="#000000" font-family="sans-serif" font-size="13" lengthAdjust="spacing" textLength="100" x="765.5" y="762.6729">returns candidate</text><polygon fill="#181818" points="427.5,795.2266,417.5,799.2266,427.5,803.2266,423.5,799.2266" style="stroke:#181818;stroke-width:1.0;"/><line style="stroke:#181818;stroke-width:1.0;stroke-dasharray:2.0,2.0;" x1="421.5" x2="724.5" y1="799.2266" y2="799.2266"/><text fill="#000000" font-family="sans-serif" font-size="13" font-weight="bold" lengthAdjust="spacing" textLength="14" x="433.5" y="793.9639">21</text><text fill="#000000" font-family="sans-serif" font-size="13" lengthAdjust="spacing" textLength="100" x="451.5" y="793.9639">returns candidate</text><polygon fill="#181818" points="47.5,826.5176,37.5,830.5176,47.5,834.5176,43.5,830.5176" style="stroke:#181818;stroke-width:1.0;"/><line style="stroke:#181818;stroke-width:1.0;stroke-dasharray:2.0,2.0;" x1="41.5" x2="410.5" y1="830.5176" y2="830.5176"/><text fill="#000000" font-family="sans-serif" font-size="13" font-weight="bold" lengthAdjust="spacing" textLength="14" x="53.5" y="825.2549">22</text><text fill="#000000" font-family="sans-serif" font-size="13" lengthAdjust="spacing" textLength="225" x="71.5" y="825.2549">confirms registration and shows details</text><!--SRC=[hPTDZzem48Rl_8eviXBSUa8h98gsNse1iSkj5vFCBbOJExKT4FtrdIJWVDXEejNcvE3np3FlU6B3SYD5dXvHJIOiCbB1DaF5Q32PP4mP7l6C2GDxVEFQe5ep4VEO6JnyXyV7JA56OPZXKYoN_GlMKXWbamGLBOpi2orhhLlbvYGL_rVwV4PrvX7I0bsDEa5-oAF-TDWnhIzInJkPyEXQO9M3hkS3-VZ517l3b9Y7N5jkds7BylbAUQQ5zyyvJ-8olsCr2ldq6KveWXsPnX9qZvdKdCfGvAFi2zbPC-ijR5kKb9_9f55LeEV-1lEbjx8BOFgF1YD1tMQ1WS0BH7UZqetrxl4ngIBHumimfy0MOa5H_kQeZIQFaSn9APcXuE8DOZIC9ngcNxZIPiDIdC5FTXlz5l2KqlGCNZ31x2G5RigjF8DrhXIFyYHF7qgC6FjPnucIANdcCGOnHuZIfycojsaMjXPsTlfQgvBSLG4iDI5nQ26zHWh9DDwA6PYkJ557fbxyciMc4KYcGKr9UJjw0IXqhh2Of6xaKS5ORFnlJA_4TViwtUwUzgkNxVwX7Spo-TnsmEZn1f-FaDhaIb07g1pRFXixQGJ1W3JUxnVjiziFNr5KMx8kT4WDdoTN3M-yyMhSkOAAZA0OKCJ_aQxt_WOlXScqskIMQ0OzhL0sWcvqGaX4Rt1NHJyZmRidmGBA3_n0ezPP390sOPrWBcZnk4ppNfchIckxod7QAFS8XA1MdKDk0PgTSLh7xScylTIVTiVzn-Ky53oGyEWU2r5q48QswK2RERSRt-bIeumxEZfbwiPmjN8eccJT5deVZHUejs4SW7b8hwfWxIjHe6J3eNkrS1l5HXsJxr2p-E9yQDPz06xYetib0E4ZU4UN1A-1mV1zjqpFxMd4nPZ-9z7HaUfRTwhogW5a3_eaBxfryHouupQcxP-1_m00]--></g></svg>