<?xml version="1.0" encoding="us-ascii" standalone="no"?><svg xmlns="http://www.w3.org/2000/svg" xmlns:xlink="http://www.w3.org/1999/xlink" contentStyleType="text/css" height="572px" preserveAspectRatio="none" style="width:632px;height:572px;background:#FFFFFF;" version="1.1" viewBox="0 0 632 572" width="632px" zoomAndPan="magnify"><defs/><g><text fill="#000000" font-family="sans-serif" font-size="14" font-weight="bold" lengthAdjust="spacing" textLength="105" x="256.5" y="23.5352">Domain Model</text><!--cluster Customer  Manager Aggregate--><g id="cluster_Customer  Manager Aggregate"><rect fill="none" height="113" rx="2.5" ry="2.5" style="stroke:#000000;stroke-width:1.5;" width="371" x="7" y="44.4883"/><text fill="#000000" font-family="sans-serif" font-size="14" font-weight="bold" lengthAdjust="spacing" textLength="219" x="83" y="60.0234">Customer  Manager Aggregate</text></g><!--cluster Candidate Aggregate--><g id="cluster_Candidate Aggregate"><rect fill="none" height="385" rx="2.5" ry="2.5" style="stroke:#000000;stroke-width:1.5;" width="391" x="235" y="181.4883"/><text fill="#000000" font-family="sans-serif" font-size="14" font-weight="bold" lengthAdjust="spacing" textLength="150" x="355.5" y="197.0234">Candidate Aggregate</text></g><!--class CustomerManager--><g id="elem_CustomerManager"><rect codeLine="27" fill="#F0FFFF" height="62.7539" id="CustomerManager" rx="2.5" ry="2.5" style="stroke:#000000;stroke-width:0.5;" width="159" x="23" y="79.1083"/><ellipse cx="38" cy="106.4852" fill="#ADD1B2" rx="11" ry="11" style="stroke:#181818;stroke-width:1.0;"/><path d="M42.1143,112.4852 L34.3945,112.4852 L34.3945,100.0922 L42.1143,100.0922 L42.1143,102.2504 L36.8433,102.2504 L36.8433,104.9232 L41.6162,104.9232 L41.6162,107.0814 L36.8433,107.0814 L36.8433,110.327 L42.1143,110.327 Z " fill="#000000"/><text fill="#000000" font-family="sans-serif" font-size="12" font-style="italic" lengthAdjust="spacing" textLength="43" x="94" y="95.7098">&#171;entity&#187;</text><text fill="#000000" font-family="sans-serif" font-size="12" font-style="italic" lengthAdjust="spacing" textLength="35" x="98" y="109.8427">&#171;root&#187;</text><text fill="#000000" font-family="sans-serif" font-size="14" lengthAdjust="spacing" textLength="127" x="52" y="125.9091">CustomerManager</text><line style="stroke:#000000;stroke-width:0.5;" x1="24" x2="181" y1="133.8622" y2="133.8622"/></g><!--entity LoginManager--><g id="elem_LoginManager"><rect fill="#F0FFDD" height="38.9766" rx="2.5" ry="2.5" style="stroke:#000000;stroke-width:0.5;" width="120" x="242" y="90.9983"/><text fill="#000000" font-family="sans-serif" font-size="14" font-style="italic" lengthAdjust="spacing" textLength="100" x="252" y="107.5334">&#171;Value Object&#187;</text><text fill="#000000" font-family="sans-serif" font-size="14" lengthAdjust="spacing" textLength="98" x="253" y="124.0217">LoginManager</text></g><!--class Candidate--><g id="elem_Candidate"><rect codeLine="36" fill="#F0FFFF" height="62.7539" id="Candidate" rx="2.5" ry="2.5" style="stroke:#000000;stroke-width:0.5;" width="102" x="251" y="315.1083"/><ellipse cx="266" cy="342.4852" fill="#ADD1B2" rx="11" ry="11" style="stroke:#181818;stroke-width:1.0;"/><path d="M270.1143,348.4852 L262.3945,348.4852 L262.3945,336.0922 L270.1143,336.0922 L270.1143,338.2504 L264.8433,338.2504 L264.8433,340.9232 L269.6162,340.9232 L269.6162,343.0814 L264.8433,343.0814 L264.8433,346.327 L270.1143,346.327 Z " fill="#000000"/><text fill="#000000" font-family="sans-serif" font-size="12" font-style="italic" lengthAdjust="spacing" textLength="43" x="293.5" y="331.7098">&#171;entity&#187;</text><text fill="#000000" font-family="sans-serif" font-size="12" font-style="italic" lengthAdjust="spacing" textLength="35" x="297.5" y="345.8427">&#171;root&#187;</text><text fill="#000000" font-family="sans-serif" font-size="14" lengthAdjust="spacing" textLength="70" x="280" y="361.9091">Candidate</text><line style="stroke:#000000;stroke-width:0.5;" x1="252" x2="352" y1="369.8622" y2="369.8622"/></g><!--entity CandidateName--><g id="elem_CandidateName"><rect fill="#F0FFDD" height="38.9766" rx="2.5" ry="2.5" style="stroke:#000000;stroke-width:0.5;" width="129" x="451.5" y="511.9983"/><text fill="#000000" font-family="sans-serif" font-size="14" font-style="italic" lengthAdjust="spacing" textLength="100" x="466" y="528.5334">&#171;Value Object&#187;</text><text fill="#000000" font-family="sans-serif" font-size="14" lengthAdjust="spacing" textLength="109" x="461.5" y="545.0217">CandidateName</text></g><!--entity CandidateEmail--><g id="elem_CandidateEmail"><rect fill="#F0FFDD" height="38.9766" rx="2.5" ry="2.5" style="stroke:#000000;stroke-width:0.5;" width="127" x="452.5" y="437.9983"/><text fill="#000000" font-family="sans-serif" font-size="14" font-style="italic" lengthAdjust="spacing" textLength="100" x="466" y="454.5334">&#171;Value Object&#187;</text><text fill="#000000" font-family="sans-serif" font-size="14" lengthAdjust="spacing" textLength="107" x="462.5" y="471.0217">CandidateEmail</text></g><!--entity CandidatePhoneNumber--><g id="elem_CandidatePhoneNumber"><rect fill="#F0FFDD" height="38.9766" rx="2.5" ry="2.5" style="stroke:#000000;stroke-width:0.5;" width="188" x="422" y="363.9983"/><text fill="#000000" font-family="sans-serif" font-size="14" font-style="italic" lengthAdjust="spacing" textLength="100" x="466" y="380.5334">&#171;Value Object&#187;</text><text fill="#000000" font-family="sans-serif" font-size="14" lengthAdjust="spacing" textLength="168" x="432" y="397.0217">CandidatePhoneNumber</text></g><!--entity CandidatePassword--><g id="elem_CandidatePassword"><rect fill="#F0FFDD" height="38.9766" rx="2.5" ry="2.5" style="stroke:#000000;stroke-width:0.5;" width="155" x="438.5" y="289.9983"/><text fill="#000000" font-family="sans-serif" font-size="14" font-style="italic" lengthAdjust="spacing" textLength="100" x="466" y="306.5334">&#171;Value Object&#187;</text><text fill="#000000" font-family="sans-serif" font-size="14" lengthAdjust="spacing" textLength="135" x="448.5" y="323.0217">CandidatePassword</text></g><!--entity Curriculum--><g id="elem_Curriculum"><rect fill="#F0FFDD" height="38.9766" rx="2.5" ry="2.5" style="stroke:#000000;stroke-width:0.5;" width="120" x="456" y="215.9983"/><text fill="#000000" font-family="sans-serif" font-size="14" font-style="italic" lengthAdjust="spacing" textLength="100" x="466" y="232.5334">&#171;Value Object&#187;</text><text fill="#000000" font-family="sans-serif" font-size="14" lengthAdjust="spacing" textLength="77" x="477.5" y="249.0217">Curriculum</text></g><!--link CustomerManager to LoginManager--><g id="link_CustomerManager_LoginManager"><path codeLine="32" d="M182.41,110.4883 C202.18,110.4883 217.05,110.4883 235.69,110.4883 " fill="none" id="CustomerManager-to-LoginManager" style="stroke:#808080;stroke-width:1.0;"/><polygon fill="#808080" points="241.69,110.4883,232.69,106.4883,236.69,110.4883,232.69,114.4883,241.69,110.4883" style="stroke:#808080;stroke-width:1.0;"/></g><!--link Candidate to CandidateEmail--><g id="link_Candidate_CandidateEmail"><path codeLine="49" d="M349.65,378.1783 C371.17,392.0883 397.35,408.0483 422,420.4883 C434.1,426.5983 441.8964,430.1719 454.6264,435.3119 " fill="none" id="Candidate-to-CandidateEmail" style="stroke:#808080;stroke-width:1.0;"/><polygon fill="#808080" points="460.19,437.5583,453.3422,430.4796,455.5537,435.6863,450.347,437.8977,460.19,437.5583" style="stroke:#808080;stroke-width:1.0;"/></g><!--link Candidate to CandidateName--><g id="link_Candidate_CandidateName"><path codeLine="50" d="M321.59,378.2483 C342.35,411.2883 378.77,462.5583 422,494.4883 C431.09,501.1983 436.0781,504.427 446.6381,509.177 " fill="none" id="Candidate-to-CandidateName" style="stroke:#808080;stroke-width:1.0;"/><polygon fill="#808080" points="452.11,511.6383,445.543,504.2983,447.5501,509.5872,442.2612,511.5942,452.11,511.6383" style="stroke:#808080;stroke-width:1.0;"/></g><!--link Candidate to CandidatePhoneNumber--><g id="link_Candidate_CandidatePhoneNumber"><path codeLine="51" d="M353.24,355.2583 C373.81,358.8483 392.3892,362.0873 416.0092,366.2073 " fill="none" id="Candidate-to-CandidatePhoneNumber" style="stroke:#808080;stroke-width:1.0;"/><polygon fill="#808080" points="421.92,367.2383,413.7412,361.7513,416.9944,366.3791,412.3665,369.6323,421.92,367.2383" style="stroke:#808080;stroke-width:1.0;"/></g><!--link Candidate to CandidatePassword--><g id="link_Candidate_CandidatePassword"><path codeLine="52" d="M353.24,337.7183 C378.59,333.2983 403.9694,328.8704 432.2594,323.9304 " fill="none" id="Candidate-to-CandidatePassword" style="stroke:#808080;stroke-width:1.0;"/><polygon fill="#808080" points="438.17,322.8983,428.6161,320.5061,433.2445,323.7584,429.9922,328.3868,438.17,322.8983" style="stroke:#808080;stroke-width:1.0;"/></g><!--link Candidate to Curriculum--><g id="link_Candidate_Curriculum"><path codeLine="53" d="M349.65,314.7983 C371.17,300.8883 397.35,284.9283 422,272.4883 C434.1,266.3783 441.8964,262.8047 454.6264,257.6647 " fill="none" id="Candidate-to-Curriculum" style="stroke:#808080;stroke-width:1.0;"/><polygon fill="#808080" points="460.19,255.4183,450.347,255.0788,455.5537,257.2903,453.3422,262.497,460.19,255.4183" style="stroke:#808080;stroke-width:1.0;"/></g><!--link CustomerManager to Candidate--><g id="link_CustomerManager_Candidate"><path codeLine="58" d="M130.14,142.3183 C167.94,187.4883 232.8795,265.0868 270.6195,310.1868 " fill="none" id="CustomerManager-to-Candidate" style="stroke:#808080;stroke-width:1.0;"/><polygon fill="#808080" points="274.47,314.7883,271.7618,305.3191,271.2612,310.9537,265.6266,310.4531,274.47,314.7883" style="stroke:#808080;stroke-width:1.0;"/></g><!--SRC=[fP9VRu8m5CNV-oaQzh0datq0Gg8oZGd-IMRsNkcrT9RMN4eCCNxt5L0KXx9bFFR-3Ztdz2QI0qt19ePdHC7MKcieIf5OoYL2RANHv3NRIRrdo5Agf0PRx84QT1f2rj8ge5veKYOrdHiEoYFaoiUAPHaz4kg-I6uXSlgHGGuuDieW3HdkHYg7Di3YdK2JQrv3mzKgces7wzboKN7tyvV9syHzrMo8Q0xriK0eQlxcmeroOdAwzRXt9qp0XorSb38pqq91AmL3_YJ4507q_nE4uNs2ifrfLuhH9GKvcwVUEC-iIG4fdJFjJjobmZKWc0NlI41RQGjwWIw8xzU38F1zDCO60QdkgW97HaXz9J-PUoUwt7ovXeBWNCUfvk__EnW4BNbfzUgKQIwvyzNfi1a-zTPW2vR2OtC_-NUtgEelWbLYD2poTFEiX0wPs_k3Ux7VQ7946USgJtjQhffk-YaxRiVgWygk-fYRkBteEU8ZhebLBIhfsf56GKhc6m00]--></g></svg>