<?xml version="1.0" encoding="us-ascii" standalone="no"?><svg xmlns="http://www.w3.org/2000/svg" xmlns:xlink="http://www.w3.org/1999/xlink" contentStyleType="text/css" height="864px" preserveAspectRatio="none" style="width:781px;height:864px;background:#FFFFFF;" version="1.1" viewBox="0 0 781 864" width="781.2px" zoomAndPan="magnify"><defs/><g><text fill="#000000" font-family="sans-serif" font-size="8.4" font-weight="bold" lengthAdjust="spacing" textLength="160.8" x="306" y="14.1211">Domain Model - Ranking Candidates</text><!--cluster Job Opening Aggregate--><g id="cluster_Job Opening Aggregate"><rect fill="none" height="319.8" rx="1.5" ry="1.5" style="stroke:#000000;stroke-width:0.8999999999999999;" width="364.8" x="4.2" y="138.893"/><text fill="#000000" font-family="sans-serif" font-size="8.4" font-weight="bold" lengthAdjust="spacing" textLength="100.8" x="136.2" y="148.2141">Job Opening Aggregate</text></g><!--cluster JobInterview Aggregate--><g id="cluster_JobInterview Aggregate"><rect fill="none" height="186.6" rx="1.5" ry="1.5" style="stroke:#000000;stroke-width:0.8999999999999999;" width="297.6" x="397.2" y="674.093"/><text fill="#000000" font-family="sans-serif" font-size="8.4" font-weight="bold" lengthAdjust="spacing" textLength="101.4" x="495.3" y="683.4141">JobInterview Aggregate</text></g><!--cluster Application Aggregate--><g id="cluster_Application Aggregate"><rect fill="none" height="186.6" rx="1.5" ry="1.5" style="stroke:#000000;stroke-width:0.8999999999999999;" width="520.5" x="257.1" y="473.093"/><text fill="#000000" font-family="sans-serif" font-size="8.4" font-weight="bold" lengthAdjust="spacing" textLength="96" x="469.35" y="482.4141">Application Aggregate</text></g><!--cluster Candidate Aggregate--><g id="cluster_Candidate Aggregate"><rect fill="none" height="97.8" rx="1.5" ry="1.5" style="stroke:#000000;stroke-width:0.8999999999999999;" width="236.1" x="259.5" y="26.693"/><text fill="#000000" font-family="sans-serif" font-size="8.4" font-weight="bold" lengthAdjust="spacing" textLength="90" x="332.55" y="36.0141">Candidate Aggregate</text></g><!--cluster User Aggregate--><g id="cluster_User Aggregate"><rect fill="none" height="186.6" rx="1.5" ry="1.5" style="stroke:#000000;stroke-width:0.8999999999999999;" width="280.8" x="410.7" y="138.893"/><text fill="#000000" font-family="sans-serif" font-size="8.4" font-weight="bold" lengthAdjust="spacing" textLength="66" x="518.1" y="148.2141">User Aggregate</text></g><!--class JobOpening--><g id="elem_JobOpening"><rect codeLine="25" fill="#F0FFFF" height="37.6523" id="JobOpening" rx="1.5" ry="1.5" style="stroke:#000000;stroke-width:0.3;" width="67.8" x="13.8" y="307.865"/><ellipse cx="22.8" cy="324.2911" fill="#ADD1B2" rx="6.6" ry="6.6" style="stroke:#181818;stroke-width:0.6;"/><path d="M25.2686,327.8911 L20.6367,327.8911 L20.6367,320.4553 L25.2686,320.4553 L25.2686,321.7502 L22.106,321.7502 L22.106,323.3539 L24.9697,323.3539 L24.9697,324.6489 L22.106,324.6489 L22.106,326.5962 L25.2686,326.5962 Z " fill="#000000"/><text fill="#000000" font-family="sans-serif" font-size="7.2" font-style="italic" lengthAdjust="spacing" textLength="25.8" x="42.6" y="317.8259">&#171;entity&#187;</text><text fill="#000000" font-family="sans-serif" font-size="7.2" font-style="italic" lengthAdjust="spacing" textLength="21" x="45" y="326.3056">&#171;root&#187;</text><text fill="#000000" font-family="sans-serif" font-size="8.4" lengthAdjust="spacing" textLength="48.6" x="31.2" y="335.9454">JobOpening</text><line style="stroke:#000000;stroke-width:0.3;" x1="14.4" x2="81" y1="340.7173" y2="340.7173"/></g><g id="elem_GMN18"><path d="M240,338.111 L240,349.913 L197.04,350.447 L240,354.713 L240,371.67 A0,0 0 0 0 240,371.67 L359.4,371.67 A0,0 0 0 0 359.4,371.67 L359.4,344.111 L353.4,338.111 L240,338.111 A0,0 0 0 0 240,338.111 " fill="#FEFFDD" style="stroke:#181818;stroke-width:0.3;"/><path d="M353.4,338.111 L353.4,344.111 L359.4,344.111 L353.4,338.111 " fill="#FEFFDD" style="stroke:#181818;stroke-width:0.3;"/><text fill="#000000" font-family="sans-serif" font-size="7.8" lengthAdjust="spacing" textLength="106.8" x="243.6" y="348.652">Can be one of the following:</text><text fill="#000000" font-family="sans-serif" font-size="7.8" lengthAdjust="spacing" textLength="41.4" x="243.6" y="357.8383">- full-time</text><text fill="#000000" font-family="sans-serif" font-size="7.8" lengthAdjust="spacing" textLength="43.8" x="243.6" y="367.0246">- part-time</text></g><g id="elem_GMN21"><path d="M240,274.121 L240,296.963 L197.04,302.165 L240,301.763 L240,316.8663 A0,0 0 0 0 240,316.8663 L359.4,316.8663 A0,0 0 0 0 359.4,316.8663 L359.4,280.121 L353.4,274.121 L240,274.121 A0,0 0 0 0 240,274.121 " fill="#FEFFDD" style="stroke:#181818;stroke-width:0.3;"/><path d="M353.4,274.121 L353.4,280.121 L359.4,280.121 L353.4,274.121 " fill="#FEFFDD" style="stroke:#181818;stroke-width:0.3;"/><text fill="#000000" font-family="sans-serif" font-size="7.8" lengthAdjust="spacing" textLength="106.8" x="243.6" y="284.662">Can be one of the following:</text><text fill="#000000" font-family="sans-serif" font-size="7.8" lengthAdjust="spacing" textLength="33.6" x="243.6" y="293.8483">- remote</text><text fill="#000000" font-family="sans-serif" font-size="7.8" lengthAdjust="spacing" textLength="31.2" x="243.6" y="303.0346">- hybrid</text><text fill="#000000" font-family="sans-serif" font-size="7.8" lengthAdjust="spacing" textLength="30.6" x="243.6" y="312.221">- onsite</text></g><!--entity JobReference--><g id="elem_JobReference"><rect fill="#F0FFDD" height="23.3859" rx="1.5" ry="1.5" style="stroke:#000000;stroke-width:0.3;" width="72" x="124.8" y="425.999"/><text fill="#000000" font-family="sans-serif" font-size="8.4" font-style="italic" lengthAdjust="spacing" textLength="60" x="130.8" y="435.9201">&#171;Value Object&#187;</text><text fill="#000000" font-family="sans-serif" font-size="8.4" lengthAdjust="spacing" textLength="54" x="133.8" y="445.813">JobReference</text></g><!--entity TitleOrFunction--><g id="elem_TitleOrFunction"><rect fill="#F0FFDD" height="23.3859" rx="1.5" ry="1.5" style="stroke:#000000;stroke-width:0.3;" width="76.2" x="122.7" y="381.599"/><text fill="#000000" font-family="sans-serif" font-size="8.4" font-style="italic" lengthAdjust="spacing" textLength="60" x="130.8" y="391.5201">&#171;Value Object&#187;</text><text fill="#000000" font-family="sans-serif" font-size="8.4" lengthAdjust="spacing" textLength="64.2" x="128.7" y="401.413">TitleOrFunction</text></g><!--entity ContractType--><g id="elem_ContractType"><rect fill="#F0FFDD" height="23.3859" rx="1.5" ry="1.5" style="stroke:#000000;stroke-width:0.3;" width="72" x="124.8" y="337.199"/><text fill="#000000" font-family="sans-serif" font-size="8.4" font-style="italic" lengthAdjust="spacing" textLength="60" x="130.8" y="347.1201">&#171;Value Object&#187;</text><text fill="#000000" font-family="sans-serif" font-size="8.4" lengthAdjust="spacing" textLength="55.2" x="133.2" y="357.013">ContractType</text></g><!--entity Mode--><g id="elem_Mode"><rect fill="#F0FFDD" height="23.3859" rx="1.5" ry="1.5" style="stroke:#000000;stroke-width:0.3;" width="72" x="124.8" y="292.799"/><text fill="#000000" font-family="sans-serif" font-size="8.4" font-style="italic" lengthAdjust="spacing" textLength="60" x="130.8" y="302.7201">&#171;Value Object&#187;</text><text fill="#000000" font-family="sans-serif" font-size="8.4" lengthAdjust="spacing" textLength="22.8" x="149.4" y="312.613">Mode</text></g><!--entity Address--><g id="elem_Address"><rect fill="#F0FFDD" height="23.3859" rx="1.5" ry="1.5" style="stroke:#000000;stroke-width:0.3;" width="72" x="124.8" y="248.399"/><text fill="#000000" font-family="sans-serif" font-size="8.4" font-style="italic" lengthAdjust="spacing" textLength="60" x="130.8" y="258.3201">&#171;Value Object&#187;</text><text fill="#000000" font-family="sans-serif" font-size="8.4" lengthAdjust="spacing" textLength="33.6" x="144" y="268.213">Address</text></g><!--entity VacanciesNumber--><g id="elem_VacanciesNumber"><rect fill="#F0FFDD" height="23.3859" rx="1.5" ry="1.5" style="stroke:#000000;stroke-width:0.3;" width="85.2" x="118.2" y="203.999"/><text fill="#000000" font-family="sans-serif" font-size="8.4" font-style="italic" lengthAdjust="spacing" textLength="60" x="130.8" y="213.9201">&#171;Value Object&#187;</text><text fill="#000000" font-family="sans-serif" font-size="8.4" lengthAdjust="spacing" textLength="73.2" x="124.2" y="223.813">VacanciesNumber</text></g><!--entity Description--><g id="elem_Description"><rect fill="#F0FFDD" height="23.3859" rx="1.5" ry="1.5" style="stroke:#000000;stroke-width:0.3;" width="72" x="124.8" y="159.599"/><text fill="#000000" font-family="sans-serif" font-size="8.4" font-style="italic" lengthAdjust="spacing" textLength="60" x="130.8" y="169.5201">&#171;Value Object&#187;</text><text fill="#000000" font-family="sans-serif" font-size="8.4" lengthAdjust="spacing" textLength="46.8" x="137.4" y="179.413">Description</text></g><!--class JobInterview--><g id="elem_JobInterview"><rect codeLine="68" fill="#F0FFFF" height="37.6523" id="JobInterview" rx="1.5" ry="1.5" style="stroke:#000000;stroke-width:0.3;" width="69.6" x="406.8" y="732.065"/><ellipse cx="415.8" cy="748.4911" fill="#ADD1B2" rx="6.6" ry="6.6" style="stroke:#181818;stroke-width:0.6;"/><path d="M418.2686,752.0911 L413.6367,752.0911 L413.6367,744.6553 L418.2686,744.6553 L418.2686,745.9502 L415.106,745.9502 L415.106,747.5539 L417.9697,747.5539 L417.9697,748.8489 L415.106,748.8489 L415.106,750.7962 L418.2686,750.7962 Z " fill="#000000"/><text fill="#000000" font-family="sans-serif" font-size="7.2" font-style="italic" lengthAdjust="spacing" textLength="25.8" x="436.5" y="742.0259">&#171;entity&#187;</text><text fill="#000000" font-family="sans-serif" font-size="7.2" font-style="italic" lengthAdjust="spacing" textLength="21" x="438.9" y="750.5056">&#171;root&#187;</text><text fill="#000000" font-family="sans-serif" font-size="8.4" lengthAdjust="spacing" textLength="50.4" x="424.2" y="760.1454">JobInterview</text><line style="stroke:#000000;stroke-width:0.3;" x1="407.4" x2="475.8" y1="764.9173" y2="764.9173"/></g><!--entity InterviewResults--><g id="elem_InterviewResults"><rect fill="#F0FFDD" height="23.3859" rx="1.5" ry="1.5" style="stroke:#000000;stroke-width:0.3;" width="78.6" x="606.6" y="827.999"/><text fill="#000000" font-family="sans-serif" font-size="8.4" font-style="italic" lengthAdjust="spacing" textLength="60" x="615.9" y="837.9201">&#171;Value Object&#187;</text><text fill="#000000" font-family="sans-serif" font-size="8.4" lengthAdjust="spacing" textLength="66.6" x="612.6" y="847.813">InterviewResults</text></g><!--entity Score--><g id="elem_Score"><rect fill="#F0FFDD" height="23.3859" rx="1.5" ry="1.5" style="stroke:#000000;stroke-width:0.3;" width="72" x="609.9" y="783.599"/><text fill="#000000" font-family="sans-serif" font-size="8.4" font-style="italic" lengthAdjust="spacing" textLength="60" x="615.9" y="793.5201">&#171;Value Object&#187;</text><text fill="#000000" font-family="sans-serif" font-size="8.4" lengthAdjust="spacing" textLength="22.8" x="634.5" y="803.413">Score</text></g><!--entity InterviewTime--><g id="elem_InterviewTime"><rect fill="#F0FFDD" height="23.3859" rx="1.5" ry="1.5" style="stroke:#000000;stroke-width:0.3;" width="72" x="609.9" y="739.199"/><text fill="#000000" font-family="sans-serif" font-size="8.4" font-style="italic" lengthAdjust="spacing" textLength="60" x="615.9" y="749.1201">&#171;Value Object&#187;</text><text fill="#000000" font-family="sans-serif" font-size="8.4" lengthAdjust="spacing" textLength="57.6" x="617.1" y="759.013">InterviewTime</text></g><!--entity InterviewDate--><g id="elem_InterviewDate"><rect fill="#F0FFDD" height="23.3859" rx="1.5" ry="1.5" style="stroke:#000000;stroke-width:0.3;" width="72" x="609.9" y="694.799"/><text fill="#000000" font-family="sans-serif" font-size="8.4" font-style="italic" lengthAdjust="spacing" textLength="60" x="615.9" y="704.7201">&#171;Value Object&#187;</text><text fill="#000000" font-family="sans-serif" font-size="8.4" lengthAdjust="spacing" textLength="55.8" x="618" y="714.613">InterviewDate</text></g><!--class Application--><g id="elem_Application"><rect codeLine="87" fill="#F0FFFF" height="37.6523" id="Application" rx="1.5" ry="1.5" style="stroke:#000000;stroke-width:0.3;" width="66" x="266.7" y="531.065"/><ellipse cx="275.7" cy="547.4911" fill="#ADD1B2" rx="6.6" ry="6.6" style="stroke:#181818;stroke-width:0.6;"/><path d="M278.1686,551.0911 L273.5367,551.0911 L273.5367,543.6553 L278.1686,543.6553 L278.1686,544.9502 L275.006,544.9502 L275.006,546.5539 L277.8697,546.5539 L277.8697,547.8489 L275.006,547.8489 L275.006,549.7962 L278.1686,549.7962 Z " fill="#000000"/><text fill="#000000" font-family="sans-serif" font-size="7.2" font-style="italic" lengthAdjust="spacing" textLength="25.8" x="294.6" y="541.0259">&#171;entity&#187;</text><text fill="#000000" font-family="sans-serif" font-size="7.2" font-style="italic" lengthAdjust="spacing" textLength="21" x="297" y="549.5056">&#171;root&#187;</text><text fill="#000000" font-family="sans-serif" font-size="8.4" lengthAdjust="spacing" textLength="46.8" x="284.1" y="559.1454">Application</text><line style="stroke:#000000;stroke-width:0.3;" x1="267.3" x2="332.1" y1="563.9173" y2="563.9173"/></g><g id="elem_GMN44"><path d="M586.2,525.125 L586.2,561.305 L477.81,586.721 L586.2,566.105 L586.2,577.0566 A0,0 0 0 0 586.2,577.0566 L705.6,577.0566 A0,0 0 0 0 705.6,577.0566 L705.6,531.125 L699.6,525.125 L586.2,525.125 A0,0 0 0 0 586.2,525.125 " fill="#FEFFDD" style="stroke:#181818;stroke-width:0.3;"/><path d="M699.6,525.125 L699.6,531.125 L705.6,531.125 L699.6,525.125 " fill="#FEFFDD" style="stroke:#181818;stroke-width:0.3;"/><text fill="#000000" font-family="sans-serif" font-size="7.8" lengthAdjust="spacing" textLength="106.8" x="589.8" y="535.666">Can be one of the following:</text><text fill="#000000" font-family="sans-serif" font-size="7.8" lengthAdjust="spacing" textLength="45.6" x="589.8" y="544.8523">- submitted</text><text fill="#000000" font-family="sans-serif" font-size="7.8" lengthAdjust="spacing" textLength="37.8" x="589.8" y="554.0386">- pending</text><text fill="#000000" font-family="sans-serif" font-size="7.8" lengthAdjust="spacing" textLength="40.8" x="589.8" y="563.225">- accepted</text><text fill="#000000" font-family="sans-serif" font-size="7.8" lengthAdjust="spacing" textLength="39" x="589.8" y="572.4113">- declined</text></g><g id="elem_GMN47"><path d="M523.8,598.325 L523.8,630.527 L480.402,635.987 L523.8,635.327 L523.8,650.2566 A0,0 0 0 0 523.8,650.2566 L768,650.2566 A0,0 0 0 0 768,650.2566 L768,604.325 L762,598.325 L523.8,598.325 A0,0 0 0 0 523.8,598.325 " fill="#FEFFDD" style="stroke:#181818;stroke-width:0.3;"/><path d="M762,598.325 L762,604.325 L768,604.325 L762,598.325 " fill="#FEFFDD" style="stroke:#181818;stroke-width:0.3;"/><text fill="#000000" font-family="sans-serif" font-size="7.8" lengthAdjust="spacing" textLength="106.8" x="527.4" y="608.866">Can be one of the following:</text><text fill="#000000" font-family="sans-serif" font-size="7.8" lengthAdjust="spacing" textLength="152.4" x="527.4" y="618.0523">- text file with the contents of the email</text><text fill="#000000" font-family="sans-serif" font-size="7.8" lengthAdjust="spacing" textLength="148.8" x="527.4" y="627.2386">- file for each file attached to the email</text><text fill="#000000" font-family="sans-serif" font-size="7.8" lengthAdjust="spacing" textLength="231.6" x="527.4" y="636.425">- text file with the contents of each file attached to the email</text><text fill="#000000" font-family="sans-serif" font-size="7.8" lengthAdjust="spacing" textLength="212.4" x="527.4" y="645.6113">- text file with the data of the application and candidate</text></g><!--entity ApplicationFiles--><g id="elem_ApplicationFiles"><rect fill="#F0FFDD" height="23.3859" rx="1.5" ry="1.5" style="stroke:#000000;stroke-width:0.3;" width="77.4" x="402.9" y="626.999"/><text fill="#000000" font-family="sans-serif" font-size="8.4" font-style="italic" lengthAdjust="spacing" textLength="60" x="411.6" y="636.9201">&#171;Value Object&#187;</text><text fill="#000000" font-family="sans-serif" font-size="8.4" lengthAdjust="spacing" textLength="65.4" x="408.9" y="646.813">ApplicationFiles</text></g><!--entity Status--><g id="elem_Status"><rect fill="#F0FFDD" height="23.3859" rx="1.5" ry="1.5" style="stroke:#000000;stroke-width:0.3;" width="72" x="405.6" y="582.599"/><text fill="#000000" font-family="sans-serif" font-size="8.4" font-style="italic" lengthAdjust="spacing" textLength="60" x="411.6" y="592.5201">&#171;Value Object&#187;</text><text fill="#000000" font-family="sans-serif" font-size="8.4" lengthAdjust="spacing" textLength="25.2" x="429" y="602.413">Status</text></g><!--entity SubmissionDate--><g id="elem_SubmissionDate"><rect fill="#F0FFDD" height="23.3859" rx="1.5" ry="1.5" style="stroke:#000000;stroke-width:0.3;" width="78" x="402.6" y="538.199"/><text fill="#000000" font-family="sans-serif" font-size="8.4" font-style="italic" lengthAdjust="spacing" textLength="60" x="411.6" y="548.1201">&#171;Value Object&#187;</text><text fill="#000000" font-family="sans-serif" font-size="8.4" lengthAdjust="spacing" textLength="66" x="408.6" y="558.013">SubmissionDate</text></g><!--entity Rank--><g id="elem_Rank"><rect fill="#F0FFDD" height="23.3859" rx="1.5" ry="1.5" style="stroke:#000000;stroke-width:0.3;" width="72" x="405.6" y="493.799"/><text fill="#000000" font-family="sans-serif" font-size="8.4" font-style="italic" lengthAdjust="spacing" textLength="60" x="411.6" y="503.7201">&#171;Value Object&#187;</text><text fill="#000000" font-family="sans-serif" font-size="8.4" lengthAdjust="spacing" textLength="20.4" x="431.4" y="513.613">Rank</text></g><!--class Candidate--><g id="elem_Candidate"><rect codeLine="134" fill="#F0FFFF" height="37.6523" id="Candidate" rx="1.5" ry="1.5" style="stroke:#000000;stroke-width:0.3;" width="61.2" x="269.1" y="77.465"/><ellipse cx="278.1" cy="93.8911" fill="#ADD1B2" rx="6.6" ry="6.6" style="stroke:#181818;stroke-width:0.6;"/><path d="M280.5686,97.4911 L275.9367,97.4911 L275.9367,90.0553 L280.5686,90.0553 L280.5686,91.3502 L277.406,91.3502 L277.406,92.9539 L280.2697,92.9539 L280.2697,94.2489 L277.406,94.2489 L277.406,96.1962 L280.5686,96.1962 Z " fill="#000000"/><text fill="#000000" font-family="sans-serif" font-size="7.2" font-style="italic" lengthAdjust="spacing" textLength="25.8" x="294.6" y="87.4259">&#171;entity&#187;</text><text fill="#000000" font-family="sans-serif" font-size="7.2" font-style="italic" lengthAdjust="spacing" textLength="21" x="297" y="95.9056">&#171;root&#187;</text><text fill="#000000" font-family="sans-serif" font-size="8.4" lengthAdjust="spacing" textLength="42" x="286.5" y="105.5454">Candidate</text><line style="stroke:#000000;stroke-width:0.3;" x1="269.7" x2="329.7" y1="110.3173" y2="110.3173"/></g><!--entity Curriculum--><g id="elem_Curriculum"><rect fill="#F0FFDD" height="23.3859" rx="1.5" ry="1.5" style="stroke:#000000;stroke-width:0.3;" width="72" x="405.6" y="91.799"/><text fill="#000000" font-family="sans-serif" font-size="8.4" font-style="italic" lengthAdjust="spacing" textLength="60" x="411.6" y="101.7201">&#171;Value Object&#187;</text><text fill="#000000" font-family="sans-serif" font-size="8.4" lengthAdjust="spacing" textLength="46.2" x="418.5" y="111.613">Curriculum</text></g><!--entity TelephoneNumber--><g id="elem_TelephoneNumber"><rect fill="#F0FFDD" height="23.3859" rx="1.5" ry="1.5" style="stroke:#000000;stroke-width:0.3;" width="88.8" x="397.2" y="47.399"/><text fill="#000000" font-family="sans-serif" font-size="8.4" font-style="italic" lengthAdjust="spacing" textLength="60" x="411.6" y="57.3201">&#171;Value Object&#187;</text><text fill="#000000" font-family="sans-serif" font-size="8.4" lengthAdjust="spacing" textLength="76.8" x="403.2" y="67.213">TelephoneNumber</text></g><!--class User--><g id="elem_User"><rect codeLine="145" fill="#F0FFFF" height="37.6523" id="User" rx="1.5" ry="1.5" style="stroke:#000000;stroke-width:0.3;" width="42.6" x="420.3" y="196.865"/><ellipse cx="429.3" cy="213.2911" fill="#ADD1B2" rx="6.6" ry="6.6" style="stroke:#181818;stroke-width:0.6;"/><path d="M431.7686,216.8911 L427.1367,216.8911 L427.1367,209.4553 L431.7686,209.4553 L431.7686,210.7502 L428.606,210.7502 L428.606,212.3539 L431.4697,212.3539 L431.4697,213.6489 L428.606,213.6489 L428.606,215.5962 L431.7686,215.5962 Z " fill="#000000"/><text fill="#000000" font-family="sans-serif" font-size="7.2" font-style="italic" lengthAdjust="spacing" textLength="25.8" x="436.5" y="206.8259">&#171;entity&#187;</text><text fill="#000000" font-family="sans-serif" font-size="7.2" font-style="italic" lengthAdjust="spacing" textLength="21" x="438.9" y="215.3056">&#171;root&#187;</text><text fill="#000000" font-family="sans-serif" font-size="8.4" lengthAdjust="spacing" textLength="18.6" x="440.1" y="224.9454">User</text><line style="stroke:#000000;stroke-width:0.3;" x1="420.9" x2="462.3" y1="229.7173" y2="229.7173"/></g><!--entity UserEmail--><g id="elem_UserEmail"><rect fill="#F0FFDD" height="23.3859" rx="1.5" ry="1.5" style="stroke:#000000;stroke-width:0.3;" width="72" x="609.9" y="292.799"/><text fill="#000000" font-family="sans-serif" font-size="8.4" font-style="italic" lengthAdjust="spacing" textLength="60" x="615.9" y="302.7201">&#171;Value Object&#187;</text><text fill="#000000" font-family="sans-serif" font-size="8.4" lengthAdjust="spacing" textLength="40.8" x="625.5" y="312.613">UserEmail</text></g><!--entity UserName--><g id="elem_UserName"><rect fill="#F0FFDD" height="23.3859" rx="1.5" ry="1.5" style="stroke:#000000;stroke-width:0.3;" width="72" x="609.9" y="248.399"/><text fill="#000000" font-family="sans-serif" font-size="8.4" font-style="italic" lengthAdjust="spacing" textLength="60" x="615.9" y="258.3201">&#171;Value Object&#187;</text><text fill="#000000" font-family="sans-serif" font-size="8.4" lengthAdjust="spacing" textLength="42" x="624.9" y="268.213">UserName</text></g><!--entity UserPassword--><g id="elem_UserPassword"><rect fill="#F0FFDD" height="23.3859" rx="1.5" ry="1.5" style="stroke:#000000;stroke-width:0.3;" width="72" x="609.9" y="203.999"/><text fill="#000000" font-family="sans-serif" font-size="8.4" font-style="italic" lengthAdjust="spacing" textLength="60" x="615.9" y="213.9201">&#171;Value Object&#187;</text><text fill="#000000" font-family="sans-serif" font-size="8.4" lengthAdjust="spacing" textLength="57.6" x="617.1" y="223.813">UserPassword</text></g><!--entity Username--><g id="elem_Username"><rect fill="#F0FFDD" height="23.3859" rx="1.5" ry="1.5" style="stroke:#000000;stroke-width:0.3;" width="72" x="609.9" y="159.599"/><text fill="#000000" font-family="sans-serif" font-size="8.4" font-style="italic" lengthAdjust="spacing" textLength="60" x="615.9" y="169.5201">&#171;Value Object&#187;</text><text fill="#000000" font-family="sans-serif" font-size="8.4" lengthAdjust="spacing" textLength="41.4" x="625.2" y="179.413">Username</text></g><!--link JobOpening to JobReference--><g id="link_JobOpening_JobReference"><path codeLine="42" d="M59.892,345.767 C72.414,365.171 93.864,395.201 118.2,415.493 C122.826,419.351 125.0789,421.065 130.4369,424.041 " fill="none" id="JobOpening-to-JobReference" style="stroke:#808080;stroke-width:0.6;"/><polygon fill="#808080" points="133.584,425.789,130.0286,421.0689,130.9614,424.3323,127.698,425.265,133.584,425.789" style="stroke:#808080;stroke-width:0.6;"/></g><!--link JobOpening to TitleOrFunction--><g id="link_JobOpening_TitleOrFunction"><path codeLine="43" d="M77.232,345.797 C89.694,353.837 104.526,363.155 118.2,371.093 C124.194,374.573 127.5882,376.4709 133.7322,379.7229 " fill="none" id="JobOpening-to-TitleOrFunction" style="stroke:#808080;stroke-width:0.6;"/><polygon fill="#808080" points="136.914,381.407,133.2641,376.7596,134.2625,380.0035,131.0186,381.002,136.914,381.407" style="stroke:#808080;stroke-width:0.6;"/></g><!--link JobOpening to ContractType--><g id="link_JobOpening_ContractType"><path codeLine="44" d="M81.876,333.353 C95.328,336.023 107.3189,338.4 120.9809,341.112 " fill="none" id="JobOpening-to-ContractType" style="stroke:#808080;stroke-width:0.6;"/><polygon fill="#808080" points="124.512,341.813,119.6826,338.4075,121.5694,341.2288,118.7481,343.1156,124.512,341.813" style="stroke:#808080;stroke-width:0.6;"/></g><!--link JobOpening to Mode--><g id="link_JobOpening_Mode"><path codeLine="45" d="M81.876,320.033 C95.328,317.363 107.3189,314.9859 120.9809,312.2739 " fill="none" id="JobOpening-to-Mode" style="stroke:#808080;stroke-width:0.6;"/><polygon fill="#808080" points="124.512,311.573,118.7481,310.2703,121.5694,312.1571,119.6826,314.9785,124.512,311.573" style="stroke:#808080;stroke-width:0.6;"/></g><!--link JobOpening to Address--><g id="link_JobOpening_Address"><path codeLine="46" d="M77.232,307.589 C89.694,299.549 104.526,290.231 118.2,282.293 C124.194,278.813 127.5882,276.9151 133.7322,273.6631 " fill="none" id="JobOpening-to-Address" style="stroke:#808080;stroke-width:0.6;"/><polygon fill="#808080" points="136.914,271.979,131.0186,272.3839,134.2625,273.3824,133.2641,276.6263,136.914,271.979" style="stroke:#808080;stroke-width:0.6;"/></g><!--link JobOpening to VacanciesNumber--><g id="link_JobOpening_VacanciesNumber"><path codeLine="47" d="M59.892,307.619 C72.414,288.215 93.864,258.185 118.2,237.893 C122.826,234.035 125.0789,232.321 130.4369,229.345 " fill="none" id="JobOpening-to-VacanciesNumber" style="stroke:#808080;stroke-width:0.6;"/><polygon fill="#808080" points="133.584,227.597,127.698,228.1209,130.9614,229.0536,130.0286,232.3171,133.584,227.597" style="stroke:#808080;stroke-width:0.6;"/></g><!--link JobOpening to Description--><g id="link_JobOpening_Description"><path codeLine="48" d="M54.192,307.715 C63.702,279.695 84.828,226.967 118.2,193.493 C122.16,189.521 123.8706,187.9127 128.8146,185.0207 " fill="none" id="JobOpening-to-Description" style="stroke:#808080;stroke-width:0.6;"/><polygon fill="#808080" points="131.922,183.203,126.0491,183.8579,129.3325,184.7177,128.4727,188.0011,131.922,183.203" style="stroke:#808080;stroke-width:0.6;"/></g><!--link JobInterview to InterviewResults--><g id="link_JobInterview_InterviewResults"><path codeLine="79" d="M459.93,769.931 C475.32,785.243 498.978,806.033 523.8,817.493 C549.786,829.493 578.1309,834.6505 602.7369,837.1825 " fill="none" id="JobInterview-to-InterviewResults" style="stroke:#808080;stroke-width:0.6;"/><polygon fill="#808080" points="606.318,837.551,601.192,834.6108,603.3338,837.2439,600.7007,839.3856,606.318,837.551" style="stroke:#808080;stroke-width:0.6;"/></g><!--link JobInterview to Score--><g id="link_JobInterview_Score"><path codeLine="80" d="M476.58,760.943 C491.082,764.999 508.194,769.553 523.8,773.093 C552.552,779.621 581.9178,784.9404 606.2358,789.0264 " fill="none" id="JobInterview-to-Score" style="stroke:#808080;stroke-width:0.6;"/><polygon fill="#808080" points="609.786,789.623,604.8583,786.3614,606.8275,789.1259,604.063,791.095,609.786,789.623" style="stroke:#808080;stroke-width:0.6;"/></g><!--link JobInterview to InterviewTime--><g id="link_JobInterview_InterviewTime"><path codeLine="81" d="M476.652,750.893 C513.66,750.893 568.59,750.893 606.054,750.893 " fill="none" id="JobInterview-to-InterviewTime" style="stroke:#808080;stroke-width:0.6;"/><polygon fill="#808080" points="609.654,750.893,604.254,748.493,606.654,750.893,604.254,753.293,609.654,750.893" style="stroke:#808080;stroke-width:0.6;"/></g><!--link JobInterview to InterviewDate--><g id="link_JobInterview_InterviewDate"><path codeLine="82" d="M476.58,740.843 C491.082,736.787 508.194,732.233 523.8,728.693 C552.552,722.165 581.9178,716.8455 606.2358,712.7595 " fill="none" id="JobInterview-to-InterviewDate" style="stroke:#808080;stroke-width:0.6;"/><polygon fill="#808080" points="609.786,712.163,604.063,710.6909,606.8275,712.6601,604.8583,715.4246,609.786,712.163" style="stroke:#808080;stroke-width:0.6;"/></g><!--link Application to ApplicationFiles--><g id="link_Application_ApplicationFiles"><path codeLine="98" d="M323.85,568.919 C341.952,583.043 367.932,602.243 392.4,616.493 C398.652,620.135 402.3403,622.1 408.9883,625.184 " fill="none" id="Application-to-ApplicationFiles" style="stroke:#808080;stroke-width:0.6;"/><polygon fill="#808080" points="412.254,626.699,408.3654,622.2494,409.5326,625.4365,406.3455,626.6037,412.254,626.699" style="stroke:#808080;stroke-width:0.6;"/></g><!--link Application to Status--><g id="link_Application_Status"><path codeLine="99" d="M332.934,560.189 C354.606,567.029 379.6308,574.9279 401.9028,581.9539 " fill="none" id="Application-to-Status" style="stroke:#808080;stroke-width:0.6;"/><polygon fill="#808080" points="405.336,583.037,400.9082,579.1236,402.475,582.1344,399.4641,583.7012,405.336,583.037" style="stroke:#808080;stroke-width:0.6;"/></g><!--link Application to SubmissionDate--><g id="link_Application_SubmissionDate"><path codeLine="100" d="M332.934,549.893 C353.718,549.893 377.13,549.893 398.952,549.893 " fill="none" id="Application-to-SubmissionDate" style="stroke:#808080;stroke-width:0.6;"/><polygon fill="#808080" points="402.552,549.893,397.152,547.493,399.552,549.893,397.152,552.293,402.552,549.893" style="stroke:#808080;stroke-width:0.6;"/></g><!--link Application to Rank--><g id="link_Application_Rank"><path codeLine="101" d="M332.934,539.597 C354.606,532.757 379.6308,524.858 401.9028,517.832 " fill="none" id="Application-to-Rank" style="stroke:#808080;stroke-width:0.6;"/><polygon fill="#808080" points="405.336,516.749,399.4641,516.0847,402.475,517.6515,400.9082,520.6624,405.336,516.749" style="stroke:#808080;stroke-width:0.6;"/></g><!--link Candidate to Curriculum--><g id="link_Candidate_Curriculum"><path codeLine="129" d="M330.486,104.249 C352.446,106.901 378.666,108.5567 401.796,108.4427 " fill="none" id="Candidate-to-Curriculum" style="stroke:#808080;stroke-width:0.6;"/><polygon fill="#808080" points="405.396,108.425,399.9842,106.0516,402.396,108.4398,400.0079,110.8516,405.396,108.425" style="stroke:#808080;stroke-width:0.6;"/></g><!--link Candidate to Curriculum--><g id="link_Candidate_Curriculum"><path codeLine="141" d="M330.486,91.049 C352.446,90.557 378.6879,91.5646 401.8179,94.1266 " fill="none" id="Candidate-to-Curriculum-1" style="stroke:#808080;stroke-width:0.6;"/><polygon fill="#808080" points="405.396,94.523,400.293,91.5431,402.4142,94.1927,399.7646,96.3139,405.396,94.523" style="stroke:#808080;stroke-width:0.6;"/></g><!--link Candidate to TelephoneNumber--><g id="link_Candidate_TelephoneNumber"><path codeLine="130" d="M330.486,94.727 C356.646,89.627 390.563,80.7857 414.431,72.2777 " fill="none" id="Candidate-to-TelephoneNumber" style="stroke:#808080;stroke-width:0.6;"/><polygon fill="#808080" points="417.822,71.069,411.9297,70.6214,414.9962,72.0763,413.5413,75.1428,417.822,71.069" style="stroke:#808080;stroke-width:0.6;"/></g><!--link Candidate to TelephoneNumber--><g id="link_Candidate_TelephoneNumber"><path codeLine="142" d="M330.486,81.521 C349.86,74.969 371.8458,68.7482 393.4638,63.9422 " fill="none" id="Candidate-to-TelephoneNumber-1" style="stroke:#808080;stroke-width:0.6;"/><polygon fill="#808080" points="396.978,63.161,391.1859,61.9901,394.0495,63.812,392.2275,66.6757,396.978,63.161" style="stroke:#808080;stroke-width:0.6;"/></g><!--link User to UserEmail--><g id="link_User_UserEmail"><path codeLine="156" d="M459.93,234.731 C475.32,250.043 498.978,270.833 523.8,282.293 C551.052,294.881 581.2539,300.0032 606.2739,302.3612 " fill="none" id="User-to-UserEmail" style="stroke:#808080;stroke-width:0.6;"/><polygon fill="#808080" points="609.858,302.699,604.707,299.8029,606.8712,302.4175,604.2566,304.5817,609.858,302.699" style="stroke:#808080;stroke-width:0.6;"/></g><!--link User to UserName--><g id="link_User_UserName"><path codeLine="157" d="M463.044,221.891 C479.454,226.643 502.968,233.165 523.8,237.893 C552.552,244.421 581.9178,249.7404 606.2358,253.8264 " fill="none" id="User-to-UserName" style="stroke:#808080;stroke-width:0.6;"/><polygon fill="#808080" points="609.786,254.423,604.8583,251.1614,606.8275,253.9259,604.063,255.895,609.786,254.423" style="stroke:#808080;stroke-width:0.6;"/></g><!--link User to Username--><g id="link_User_Username"><path codeLine="158" d="M463.044,209.495 C479.454,204.743 502.968,198.221 523.8,193.493 C552.552,186.965 581.9178,181.6455 606.2358,177.5595 " fill="none" id="User-to-Username" style="stroke:#808080;stroke-width:0.6;"/><polygon fill="#808080" points="609.786,176.963,604.063,175.4909,606.8275,177.4601,604.8583,180.2246,609.786,176.963" style="stroke:#808080;stroke-width:0.6;"/></g><!--link User to UserPassword--><g id="link_User_UserPassword"><path codeLine="159" d="M463.17,215.693 C497.784,215.693 563.646,215.693 606.072,215.693 " fill="none" id="User-to-UserPassword" style="stroke:#808080;stroke-width:0.6;"/><polygon fill="#808080" points="609.672,215.693,604.272,213.293,606.672,215.693,604.272,218.093,609.672,215.693" style="stroke:#808080;stroke-width:0.6;"/></g><!--link Application to JobInterview--><g id="link_Application_JobInterview"><path codeLine="167" d="M313.662,568.985 C340.554,607.397 398.8432,690.674 425.6632,728.978 " fill="none" id="Application-to-JobInterview" style="stroke:#808080;stroke-width:0.6;"/><polygon fill="#808080" points="427.728,731.927,426.5967,726.1269,426.0073,729.4695,422.6648,728.8801,427.728,731.927" style="stroke:#808080;stroke-width:0.6;"/><text fill="#000000" font-family="sans-serif" font-size="7.8" lengthAdjust="spacing" textLength="4.8" x="311.066" y="581.0413">1</text><text fill="#000000" font-family="sans-serif" font-size="7.8" lengthAdjust="spacing" textLength="4.8" x="419.5719" y="725.6477">1</text></g><!--reverse link JobOpening to Application--><g id="link_JobOpening_Application"><path codeLine="168" d="M53.9577,349.1767 C62.2857,379.2847 81.384,434.657 118.2,470.093 C160.488,510.803 226.998,532.733 266.502,542.807 " fill="none" id="JobOpening-backto-Application" style="stroke:#808080;stroke-width:0.6;"/><polygon fill="#808080" points="52.998,345.707,52.1245,351.5514,53.7978,348.5984,56.7507,350.2717,52.998,345.707" style="stroke:#808080;stroke-width:0.6;"/><text fill="#000000" font-family="sans-serif" font-size="7.8" lengthAdjust="spacing" textLength="13.2" x="154.2" y="468.034">has</text><text fill="#000000" font-family="sans-serif" font-size="7.8" lengthAdjust="spacing" textLength="4.8" x="48.7685" y="357.896">1</text><text fill="#000000" font-family="sans-serif" font-size="7.8" lengthAdjust="spacing" textLength="6" x="253.5441" y="550.0444">N</text></g><!--link Application to Candidate--><g id="link_Application_Candidate"><path codeLine="169" d="M278.766,530.873 C259.722,512.033 232.926,481.277 221.7,448.193 C201.18,387.713 194.502,218.579 221.7,160.793 C231.468,140.045 248.5082,125.6239 265.8482,114.5719 " fill="none" id="Application-to-Candidate" style="stroke:#808080;stroke-width:0.6;"/><polygon fill="#808080" points="268.884,112.637,263.0404,113.5155,266.3542,114.2494,265.6203,117.5632,268.884,112.637" style="stroke:#808080;stroke-width:0.6;"/><text fill="#000000" font-family="sans-serif" font-size="7.8" lengthAdjust="spacing" textLength="6" x="267.8296" y="524.5826">N</text><text fill="#000000" font-family="sans-serif" font-size="7.8" lengthAdjust="spacing" textLength="4.8" x="259.413" y="123.1225">1</text></g><!--link Candidate to User--><g id="link_Candidate_User"><path codeLine="170" d="M328.038,115.301 C342.102,125.273 359.238,137.963 373.8,150.293 C391.194,165.023 407.1369,180.6311 420.3069,194.0771 " fill="none" id="Candidate-to-User" style="stroke:#808080;stroke-width:0.6;"/><polygon fill="#808080" points="422.826,196.649,420.762,191.1118,420.7268,194.5058,417.3329,194.4706,422.826,196.649" style="stroke:#808080;stroke-width:0.6;"/></g><!--SRC=[vLVVRzem47xFNs5bpv6srmeXKHXLfmwgblNTs4VYrR4Znnb3LV_tdHC8JZ2Gge_ZXNBt-NpV_V8r4nn83ZRJl8maR2oncXYHPfPmOO1PeLKKhOILGEAPpgbGvAVc84b2dgXw5IebKwguuDH26KTHYQA26feJ9cbPahU8uET1RE11ABZLXeEPQgaDcL7pUYihw08eUqsDhXHlG9F7nuVxwMHrlrpKkBx-o_ph73-rRcACtZRYrC2kmNiNhYKUZjvz7mkKq1IUxGxvERfKfH8wBAZX5qZS6G3rUGQpMP-1YyvTYCNjWSNUTnB_q6koB42vN4nIf9vYBkAt29GLTaTGVT2EHeriF1wDZDPsF8vg-pL9n3t11Wme1eXyePWRibp_ngYCn_iGl1_XTKqipRnITP4CE37LoXhAx6fN3Bd0bTa0s8Hp0rXerv4lb57519IBAb-36N1Y1YKpehZCh_xoWfmauquiG_fUy48GFreXlGjFIBwFHqZL2q08uZ5kY2bjOJyGzERKAVV1_YTh85g1WzWCo4PBgRTeywO59MHJIPbOaOCdmnwpHnaeNjyNkhcbE_nAj6yWT_OyIRPR6y5zYLQbi7q7CAtT3hjN5imV0TipBNRKdskofgHQt1EKbRHdwtPVXisXPwOD34AsvbSOr8-Tc26b2oUQxmvJLp1zFcTWDODh9bPjSPp7E2-ZplYR58KKZDPD6iYDhxuu_ppWN4WupSp9U7Ysr5P3SDKw5sM9XeCnFi6xX_KigdaeF59rq_Ty3u8QTyEgZeT1Y7Cgr9YUrGyCWz9TQ2rmVnXW-o7Car36eEY2E329hoo_EZ228Vc0XnR-MhB1asGhR5RZ64u_BA3oS0vm7PB-X7Fe3RxHG5dM_ABMuj_0tLeLEdBbbayPmfMC7bobNZPnNSCws-ziftElRQnshmkrrL5viQccbJ62LRBAXwmK8A78C35d7kXE2nmTg5_Bzfw0icVtVo7PSlnLuZq1UhNy8ZE7-EugRG0nXrtG70P27_6_WotkjGFX2YrVNi5gDYuIhTEdOkVVgLG5fGS7zyj05FaJCVuMrq3txJzMaRTFETqeIH8IBqZScQSt9ADbrzu2xJNcshH6tGGxdz2BVm00]--></g></svg>