<?xml version="1.0" encoding="us-ascii" standalone="no"?><svg xmlns="http://www.w3.org/2000/svg" xmlns:xlink="http://www.w3.org/1999/xlink" contentStyleType="text/css" height="630px" preserveAspectRatio="none" style="width:1649px;height:630px;background:#FFFFFF;" version="1.1" viewBox="0 0 1649 630" width="1649.4px" zoomAndPan="magnify"><defs/><g><rect fill="#FFFFFF" height="511.8035" style="stroke:#181818;stroke-width:0.6;" width="6" x="39.9" y="56.3859"/><rect fill="#FFFFFF" height="158.277" style="stroke:#181818;stroke-width:0.6;" width="6" x="224.1" y="69.1723"/><rect fill="#FFFFFF" height="323.1539" style="stroke:#181818;stroke-width:0.6;" width="6" x="224.1" y="245.0355"/><rect fill="#FFFFFF" height="141.8906" style="stroke:#181818;stroke-width:0.6;" width="6" x="389.1" y="368.1398"/><rect fill="#FFFFFF" height="17.5863" style="stroke:#181818;stroke-width:0.6;" width="6" x="389.1" y="527.6168"/><rect fill="#FFFFFF" height="123.1043" style="stroke:#181818;stroke-width:0.6;" width="6" x="533.7" y="86.7586"/><rect fill="#FFFFFF" height="87.9316" style="stroke:#181818;stroke-width:0.6;" width="6" x="683.1" y="262.6219"/><rect fill="#FFFFFF" height="92.1316" style="stroke:#181818;stroke-width:0.6;" width="6" x="853.8" y="400.3125"/><rect fill="#FFFFFF" height="17.5863" style="stroke:#181818;stroke-width:0.6;" width="6" x="999" y="104.3449"/><rect fill="#FFFFFF" height="52.759" style="stroke:#181818;stroke-width:0.6;" width="6" x="1104.3" y="139.5176"/><rect fill="#FFFFFF" height="52.759" style="stroke:#181818;stroke-width:0.6;" width="6" x="1195.2" y="280.2082"/><rect fill="#FFFFFF" height="52.759" style="stroke:#181818;stroke-width:0.6;" width="6" x="1287" y="417.8988"/><rect fill="#FFFFFF" height="17.5863" style="stroke:#181818;stroke-width:0.6;" width="6" x="1384.8" y="157.1039"/><rect fill="#FFFFFF" height="17.5863" style="stroke:#181818;stroke-width:0.6;" width="6" x="1485.9" y="297.7945"/><rect fill="#FFFFFF" height="17.5863" style="stroke:#181818;stroke-width:0.6;" width="6" x="1587.9" y="435.4852"/><rect fill="none" height="98.318" style="stroke:#000000;stroke-width:0.8999999999999999;" width="1336.8" x="309" y="377.1398"/><line style="stroke:#181818;stroke-width:0.3;stroke-dasharray:5.0,5.0;" x1="42.6" x2="42.6" y1="50.3859" y2="573.5895"/><line style="stroke:#181818;stroke-width:0.3;stroke-dasharray:5.0,5.0;" x1="226.8" x2="226.8" y1="50.3859" y2="573.5895"/><line style="stroke:#181818;stroke-width:0.3;stroke-dasharray:5.0,5.0;" x1="391.8" x2="391.8" y1="50.3859" y2="573.5895"/><line style="stroke:#181818;stroke-width:0.3;stroke-dasharray:5.0,5.0;" x1="536.4" x2="536.4" y1="50.3859" y2="573.5895"/><line style="stroke:#181818;stroke-width:0.3;stroke-dasharray:5.0,5.0;" x1="685.8" x2="685.8" y1="50.3859" y2="573.5895"/><line style="stroke:#181818;stroke-width:0.3;stroke-dasharray:5.0,5.0;" x1="856.8" x2="856.8" y1="50.3859" y2="573.5895"/><line style="stroke:#181818;stroke-width:0.3;stroke-dasharray:5.0,5.0;" x1="1002" x2="1002" y1="50.3859" y2="573.5895"/><line style="stroke:#181818;stroke-width:0.3;stroke-dasharray:5.0,5.0;" x1="1107" x2="1107" y1="50.3859" y2="573.5895"/><line style="stroke:#181818;stroke-width:0.3;stroke-dasharray:5.0,5.0;" x1="1198.2" x2="1198.2" y1="50.3859" y2="573.5895"/><line style="stroke:#181818;stroke-width:0.3;stroke-dasharray:5.0,5.0;" x1="1290" x2="1290" y1="50.3859" y2="573.5895"/><line style="stroke:#181818;stroke-width:0.3;stroke-dasharray:5.0,5.0;" x1="1387.8" x2="1387.8" y1="50.3859" y2="573.5895"/><line style="stroke:#181818;stroke-width:0.3;stroke-dasharray:5.0,5.0;" x1="1488.6" x2="1488.6" y1="50.3859" y2="573.5895"/><line style="stroke:#181818;stroke-width:0.3;stroke-dasharray:5.0,5.0;" x1="1590.6" x2="1590.6" y1="50.3859" y2="573.5895"/><text fill="#000000" font-family="sans-serif" font-size="8.4" lengthAdjust="spacing" textLength="76.2" x="3" y="48.6141">CustomerManager</text><ellipse cx="42.9" cy="9.593" fill="#E2E2F0" rx="4.8" ry="4.8" style="stroke:#181818;stroke-width:0.3;"/><path d="M42.9,14.393 L42.9,30.593 M35.1,19.193 L50.7,19.193 M42.9,30.593 L35.1,39.593 M42.9,30.593 L50.7,39.593 " fill="none" style="stroke:#181818;stroke-width:0.3;"/><text fill="#000000" font-family="sans-serif" font-size="8.4" lengthAdjust="spacing" textLength="76.2" x="3" y="581.1105">CustomerManager</text><ellipse cx="42.9" cy="587.9824" fill="#E2E2F0" rx="4.8" ry="4.8" style="stroke:#181818;stroke-width:0.3;"/><path d="M42.9,592.7824 L42.9,608.9824 M35.1,597.5824 L50.7,597.5824 M42.9,608.9824 L35.1,617.9824 M42.9,608.9824 L50.7,617.9824 " fill="none" style="stroke:#181818;stroke-width:0.3;"/><rect fill="#E2E2F0" height="28.1859" rx="1.5" ry="1.5" style="stroke:#181818;stroke-width:0.3;" width="120.6" x="166.8" y="21.6"/><text fill="#000000" font-family="sans-serif" font-size="8.4" font-style="italic" lengthAdjust="spacing" textLength="60.6" x="196.8" y="33.9211">&#171;presentation&#187;</text><text fill="#000000" font-family="sans-serif" font-size="8.4" lengthAdjust="spacing" textLength="112.2" x="171" y="43.8141">OrderedListOfCandidatesUI</text><rect fill="#E2E2F0" height="28.1859" rx="1.5" ry="1.5" style="stroke:#181818;stroke-width:0.3;" width="120.6" x="166.8" y="572.9895"/><text fill="#000000" font-family="sans-serif" font-size="8.4" font-style="italic" lengthAdjust="spacing" textLength="60.6" x="196.8" y="585.3105">&#171;presentation&#187;</text><text fill="#000000" font-family="sans-serif" font-size="8.4" lengthAdjust="spacing" textLength="112.2" x="171" y="595.2035">OrderedListOfCandidatesUI</text><rect fill="#E2E2F0" height="28.1859" rx="1.5" ry="1.5" style="stroke:#181818;stroke-width:0.3;" width="154.2" x="315" y="21.6"/><text fill="#000000" font-family="sans-serif" font-size="8.4" font-style="italic" lengthAdjust="spacing" textLength="48.6" x="367.8" y="33.9211">&#171;controller&#187;</text><text fill="#000000" font-family="sans-serif" font-size="8.4" lengthAdjust="spacing" textLength="145.8" x="319.2" y="43.8141">OrderedListOfCandidatesController</text><rect fill="#E2E2F0" height="28.1859" rx="1.5" ry="1.5" style="stroke:#181818;stroke-width:0.3;" width="154.2" x="315" y="572.9895"/><text fill="#000000" font-family="sans-serif" font-size="8.4" font-style="italic" lengthAdjust="spacing" textLength="48.6" x="367.8" y="585.3105">&#171;controller&#187;</text><text fill="#000000" font-family="sans-serif" font-size="8.4" lengthAdjust="spacing" textLength="145.8" x="319.2" y="595.2035">OrderedListOfCandidatesController</text><rect fill="#E2E2F0" height="28.1859" rx="1.5" ry="1.5" style="stroke:#181818;stroke-width:0.3;" width="123" x="475.2" y="21.6"/><text fill="#000000" font-family="sans-serif" font-size="8.4" font-style="italic" lengthAdjust="spacing" textLength="48.6" x="512.4" y="33.9211">&#171;controller&#187;</text><text fill="#000000" font-family="sans-serif" font-size="8.4" lengthAdjust="spacing" textLength="114.6" x="479.4" y="43.8141">SelectJobOpeningController</text><rect fill="#E2E2F0" height="28.1859" rx="1.5" ry="1.5" style="stroke:#181818;stroke-width:0.3;" width="123" x="475.2" y="572.9895"/><text fill="#000000" font-family="sans-serif" font-size="8.4" font-style="italic" lengthAdjust="spacing" textLength="48.6" x="512.4" y="585.3105">&#171;controller&#187;</text><text fill="#000000" font-family="sans-serif" font-size="8.4" lengthAdjust="spacing" textLength="114.6" x="479.4" y="595.2035">SelectJobOpeningController</text><rect fill="#E2E2F0" height="28.1859" rx="1.5" ry="1.5" style="stroke:#181818;stroke-width:0.3;" width="163.8" x="604.2" y="21.6"/><text fill="#000000" font-family="sans-serif" font-size="8.4" font-style="italic" lengthAdjust="spacing" textLength="48.6" x="661.8" y="33.9211">&#171;controller&#187;</text><text fill="#000000" font-family="sans-serif" font-size="8.4" lengthAdjust="spacing" textLength="155.4" x="608.4" y="43.8141">ListJobOpeningApplicationsController</text><rect fill="#E2E2F0" height="28.1859" rx="1.5" ry="1.5" style="stroke:#181818;stroke-width:0.3;" width="163.8" x="604.2" y="572.9895"/><text fill="#000000" font-family="sans-serif" font-size="8.4" font-style="italic" lengthAdjust="spacing" textLength="48.6" x="661.8" y="585.3105">&#171;controller&#187;</text><text fill="#000000" font-family="sans-serif" font-size="8.4" lengthAdjust="spacing" textLength="155.4" x="608.4" y="595.2035">ListJobOpeningApplicationsController</text><rect fill="#E2E2F0" height="28.1859" rx="1.5" ry="1.5" style="stroke:#181818;stroke-width:0.3;" width="165.6" x="774" y="21.6"/><text fill="#000000" font-family="sans-serif" font-size="8.4" font-style="italic" lengthAdjust="spacing" textLength="48.6" x="832.5" y="33.9211">&#171;controller&#187;</text><text fill="#000000" font-family="sans-serif" font-size="8.4" lengthAdjust="spacing" textLength="157.2" x="778.2" y="43.8141">ListJobInterviewsApplicationController</text><rect fill="#E2E2F0" height="28.1859" rx="1.5" ry="1.5" style="stroke:#181818;stroke-width:0.3;" width="165.6" x="774" y="572.9895"/><text fill="#000000" font-family="sans-serif" font-size="8.4" font-style="italic" lengthAdjust="spacing" textLength="48.6" x="832.5" y="585.3105">&#171;controller&#187;</text><text fill="#000000" font-family="sans-serif" font-size="8.4" lengthAdjust="spacing" textLength="157.2" x="778.2" y="595.2035">ListJobInterviewsApplicationController</text><rect fill="#E2E2F0" height="28.1859" rx="1.5" ry="1.5" style="stroke:#181818;stroke-width:0.3;" width="112.8" x="945.6" y="21.6"/><text fill="#000000" font-family="sans-serif" font-size="8.4" font-style="italic" lengthAdjust="spacing" textLength="48.6" x="977.7" y="33.9211">&#171;controller&#187;</text><text fill="#000000" font-family="sans-serif" font-size="8.4" lengthAdjust="spacing" textLength="104.4" x="949.8" y="43.8141">ListJobOpeningController</text><rect fill="#E2E2F0" height="28.1859" rx="1.5" ry="1.5" style="stroke:#181818;stroke-width:0.3;" width="112.8" x="945.6" y="572.9895"/><text fill="#000000" font-family="sans-serif" font-size="8.4" font-style="italic" lengthAdjust="spacing" textLength="48.6" x="977.7" y="585.3105">&#171;controller&#187;</text><text fill="#000000" font-family="sans-serif" font-size="8.4" lengthAdjust="spacing" textLength="104.4" x="949.8" y="595.2035">ListJobOpeningController</text><rect fill="#E2E2F0" height="28.1859" rx="1.5" ry="1.5" style="stroke:#181818;stroke-width:0.3;" width="85.8" x="1064.4" y="21.6"/><text fill="#000000" font-family="sans-serif" font-size="8.4" font-style="italic" lengthAdjust="spacing" textLength="36.6" x="1089" y="33.9211">&#171;service&#187;</text><text fill="#000000" font-family="sans-serif" font-size="8.4" lengthAdjust="spacing" textLength="77.4" x="1068.6" y="43.8141">JobOpeningService</text><rect fill="#E2E2F0" height="28.1859" rx="1.5" ry="1.5" style="stroke:#181818;stroke-width:0.3;" width="85.8" x="1064.4" y="572.9895"/><text fill="#000000" font-family="sans-serif" font-size="8.4" font-style="italic" lengthAdjust="spacing" textLength="36.6" x="1089" y="585.3105">&#171;service&#187;</text><text fill="#000000" font-family="sans-serif" font-size="8.4" lengthAdjust="spacing" textLength="77.4" x="1068.6" y="595.2035">JobOpeningService</text><rect fill="#E2E2F0" height="28.1859" rx="1.5" ry="1.5" style="stroke:#181818;stroke-width:0.3;" width="84" x="1156.2" y="21.6"/><text fill="#000000" font-family="sans-serif" font-size="8.4" font-style="italic" lengthAdjust="spacing" textLength="36.6" x="1179.9" y="33.9211">&#171;service&#187;</text><text fill="#000000" font-family="sans-serif" font-size="8.4" lengthAdjust="spacing" textLength="75.6" x="1160.4" y="43.8141">ApplicationService</text><rect fill="#E2E2F0" height="28.1859" rx="1.5" ry="1.5" style="stroke:#181818;stroke-width:0.3;" width="84" x="1156.2" y="572.9895"/><text fill="#000000" font-family="sans-serif" font-size="8.4" font-style="italic" lengthAdjust="spacing" textLength="36.6" x="1179.9" y="585.3105">&#171;service&#187;</text><text fill="#000000" font-family="sans-serif" font-size="8.4" lengthAdjust="spacing" textLength="75.6" x="1160.4" y="595.2035">ApplicationService</text><rect fill="#E2E2F0" height="28.1859" rx="1.5" ry="1.5" style="stroke:#181818;stroke-width:0.3;" width="87.6" x="1246.2" y="21.6"/><text fill="#000000" font-family="sans-serif" font-size="8.4" font-style="italic" lengthAdjust="spacing" textLength="36.6" x="1271.7" y="33.9211">&#171;service&#187;</text><text fill="#000000" font-family="sans-serif" font-size="8.4" lengthAdjust="spacing" textLength="79.2" x="1250.4" y="43.8141">JobInterviewService</text><rect fill="#E2E2F0" height="28.1859" rx="1.5" ry="1.5" style="stroke:#181818;stroke-width:0.3;" width="87.6" x="1246.2" y="572.9895"/><text fill="#000000" font-family="sans-serif" font-size="8.4" font-style="italic" lengthAdjust="spacing" textLength="36.6" x="1271.7" y="585.3105">&#171;service&#187;</text><text fill="#000000" font-family="sans-serif" font-size="8.4" lengthAdjust="spacing" textLength="79.2" x="1250.4" y="595.2035">JobInterviewService</text><text fill="#000000" font-family="sans-serif" font-size="8.4" font-style="italic" lengthAdjust="spacing" textLength="50.4" x="1360.8" y="38.7211">&#171;repository&#187;</text><text fill="#000000" font-family="sans-serif" font-size="8.4" lengthAdjust="spacing" textLength="92.4" x="1339.8" y="48.6141">JobOpeningRepository</text><path d="M1377,9 C1377,3 1387.8,3 1387.8,3 C1387.8,3 1398.6,3 1398.6,9 L1398.6,24.6 C1398.6,30.6 1387.8,30.6 1387.8,30.6 C1387.8,30.6 1377,30.6 1377,24.6 L1377,9 " fill="#E2E2F0" style="stroke:#181818;stroke-width:0.8999999999999999;"/><path d="M1377,9 C1377,15 1387.8,15 1387.8,15 C1387.8,15 1398.6,15 1398.6,9 " fill="none" style="stroke:#181818;stroke-width:0.8999999999999999;"/><text fill="#000000" font-family="sans-serif" font-size="8.4" font-style="italic" lengthAdjust="spacing" textLength="50.4" x="1360.8" y="581.1105">&#171;repository&#187;</text><text fill="#000000" font-family="sans-serif" font-size="8.4" lengthAdjust="spacing" textLength="92.4" x="1339.8" y="591.0035">JobOpeningRepository</text><path d="M1377,598.7754 C1377,592.7754 1387.8,592.7754 1387.8,592.7754 C1387.8,592.7754 1398.6,592.7754 1398.6,598.7754 L1398.6,614.3754 C1398.6,620.3754 1387.8,620.3754 1387.8,620.3754 C1387.8,620.3754 1377,620.3754 1377,614.3754 L1377,598.7754 " fill="#E2E2F0" style="stroke:#181818;stroke-width:0.8999999999999999;"/><path d="M1377,598.7754 C1377,604.7754 1387.8,604.7754 1387.8,604.7754 C1387.8,604.7754 1398.6,604.7754 1398.6,598.7754 " fill="none" style="stroke:#181818;stroke-width:0.8999999999999999;"/><text fill="#000000" font-family="sans-serif" font-size="8.4" font-style="italic" lengthAdjust="spacing" textLength="50.4" x="1461.9" y="38.7211">&#171;repository&#187;</text><text fill="#000000" font-family="sans-serif" font-size="8.4" lengthAdjust="spacing" textLength="90.6" x="1441.8" y="48.6141">ApplicationRepository</text><path d="M1478.1,9 C1478.1,3 1488.9,3 1488.9,3 C1488.9,3 1499.7,3 1499.7,9 L1499.7,24.6 C1499.7,30.6 1488.9,30.6 1488.9,30.6 C1488.9,30.6 1478.1,30.6 1478.1,24.6 L1478.1,9 " fill="#E2E2F0" style="stroke:#181818;stroke-width:0.8999999999999999;"/><path d="M1478.1,9 C1478.1,15 1488.9,15 1488.9,15 C1488.9,15 1499.7,15 1499.7,9 " fill="none" style="stroke:#181818;stroke-width:0.8999999999999999;"/><text fill="#000000" font-family="sans-serif" font-size="8.4" font-style="italic" lengthAdjust="spacing" textLength="50.4" x="1461.9" y="581.1105">&#171;repository&#187;</text><text fill="#000000" font-family="sans-serif" font-size="8.4" lengthAdjust="spacing" textLength="90.6" x="1441.8" y="591.0035">ApplicationRepository</text><path d="M1478.1,598.7754 C1478.1,592.7754 1488.9,592.7754 1488.9,592.7754 C1488.9,592.7754 1499.7,592.7754 1499.7,598.7754 L1499.7,614.3754 C1499.7,620.3754 1488.9,620.3754 1488.9,620.3754 C1488.9,620.3754 1478.1,620.3754 1478.1,614.3754 L1478.1,598.7754 " fill="#E2E2F0" style="stroke:#181818;stroke-width:0.8999999999999999;"/><path d="M1478.1,598.7754 C1478.1,604.7754 1488.9,604.7754 1488.9,604.7754 C1488.9,604.7754 1499.7,604.7754 1499.7,598.7754 " fill="none" style="stroke:#181818;stroke-width:0.8999999999999999;"/><text fill="#000000" font-family="sans-serif" font-size="8.4" font-style="italic" lengthAdjust="spacing" textLength="50.4" x="1563.9" y="38.7211">&#171;repository&#187;</text><text fill="#000000" font-family="sans-serif" font-size="8.4" lengthAdjust="spacing" textLength="94.2" x="1542" y="48.6141">JobInterviewRepository</text><path d="M1580.1,9 C1580.1,3 1590.9,3 1590.9,3 C1590.9,3 1601.7,3 1601.7,9 L1601.7,24.6 C1601.7,30.6 1590.9,30.6 1590.9,30.6 C1590.9,30.6 1580.1,30.6 1580.1,24.6 L1580.1,9 " fill="#E2E2F0" style="stroke:#181818;stroke-width:0.8999999999999999;"/><path d="M1580.1,9 C1580.1,15 1590.9,15 1590.9,15 C1590.9,15 1601.7,15 1601.7,9 " fill="none" style="stroke:#181818;stroke-width:0.8999999999999999;"/><text fill="#000000" font-family="sans-serif" font-size="8.4" font-style="italic" lengthAdjust="spacing" textLength="50.4" x="1563.9" y="581.1105">&#171;repository&#187;</text><text fill="#000000" font-family="sans-serif" font-size="8.4" lengthAdjust="spacing" textLength="94.2" x="1542" y="591.0035">JobInterviewRepository</text><path d="M1580.1,598.7754 C1580.1,592.7754 1590.9,592.7754 1590.9,592.7754 C1590.9,592.7754 1601.7,592.7754 1601.7,598.7754 L1601.7,614.3754 C1601.7,620.3754 1590.9,620.3754 1590.9,620.3754 C1590.9,620.3754 1580.1,620.3754 1580.1,614.3754 L1580.1,598.7754 " fill="#E2E2F0" style="stroke:#181818;stroke-width:0.8999999999999999;"/><path d="M1580.1,598.7754 C1580.1,604.7754 1590.9,604.7754 1590.9,604.7754 C1590.9,604.7754 1601.7,604.7754 1601.7,598.7754 " fill="none" style="stroke:#181818;stroke-width:0.8999999999999999;"/><rect fill="#FFFFFF" height="511.8035" style="stroke:#181818;stroke-width:0.6;" width="6" x="39.9" y="56.3859"/><rect fill="#FFFFFF" height="158.277" style="stroke:#181818;stroke-width:0.6;" width="6" x="224.1" y="69.1723"/><rect fill="#FFFFFF" height="323.1539" style="stroke:#181818;stroke-width:0.6;" width="6" x="224.1" y="245.0355"/><rect fill="#FFFFFF" height="141.8906" style="stroke:#181818;stroke-width:0.6;" width="6" x="389.1" y="368.1398"/><rect fill="#FFFFFF" height="17.5863" style="stroke:#181818;stroke-width:0.6;" width="6" x="389.1" y="527.6168"/><rect fill="#FFFFFF" height="123.1043" style="stroke:#181818;stroke-width:0.6;" width="6" x="533.7" y="86.7586"/><rect fill="#FFFFFF" height="87.9316" style="stroke:#181818;stroke-width:0.6;" width="6" x="683.1" y="262.6219"/><rect fill="#FFFFFF" height="92.1316" style="stroke:#181818;stroke-width:0.6;" width="6" x="853.8" y="400.3125"/><rect fill="#FFFFFF" height="17.5863" style="stroke:#181818;stroke-width:0.6;" width="6" x="999" y="104.3449"/><rect fill="#FFFFFF" height="52.759" style="stroke:#181818;stroke-width:0.6;" width="6" x="1104.3" y="139.5176"/><rect fill="#FFFFFF" height="52.759" style="stroke:#181818;stroke-width:0.6;" width="6" x="1195.2" y="280.2082"/><rect fill="#FFFFFF" height="52.759" style="stroke:#181818;stroke-width:0.6;" width="6" x="1287" y="417.8988"/><rect fill="#FFFFFF" height="17.5863" style="stroke:#181818;stroke-width:0.6;" width="6" x="1384.8" y="157.1039"/><rect fill="#FFFFFF" height="17.5863" style="stroke:#181818;stroke-width:0.6;" width="6" x="1485.9" y="297.7945"/><rect fill="#FFFFFF" height="17.5863" style="stroke:#181818;stroke-width:0.6;" width="6" x="1587.9" y="435.4852"/><polygon fill="#181818" points="216.9,66.7723,222.9,69.1723,216.9,71.5723,219.3,69.1723" style="stroke:#181818;stroke-width:0.6;"/><line style="stroke:#181818;stroke-width:0.6;" x1="45.9" x2="220.5" y1="69.1723" y2="69.1723"/><text fill="#000000" font-family="sans-serif" font-size="7.8" font-weight="bold" lengthAdjust="spacing" textLength="5.4" x="50.1" y="66.327">1</text><text fill="#000000" font-family="sans-serif" font-size="7.8" lengthAdjust="spacing" textLength="124.2" x="57.9" y="66.327">asks to list candidates by grades</text><polygon fill="#181818" points="526.5,84.3586,532.5,86.7586,526.5,89.1586,528.9,86.7586" style="stroke:#181818;stroke-width:0.6;"/><line style="stroke:#181818;stroke-width:0.6;" x1="230.1" x2="530.1" y1="86.7586" y2="86.7586"/><text fill="#000000" font-family="sans-serif" font-size="7.8" font-weight="bold" lengthAdjust="spacing" textLength="5.4" x="234.3" y="83.9133">2</text><text fill="#000000" font-family="sans-serif" font-size="7.8" lengthAdjust="spacing" textLength="80.4" x="242.1" y="83.9133">selects a job opening</text><polygon fill="#181818" points="991.8,101.9449,997.8,104.3449,991.8,106.7449,994.2,104.3449" style="stroke:#181818;stroke-width:0.6;"/><line style="stroke:#181818;stroke-width:0.6;" x1="539.7" x2="995.4" y1="104.3449" y2="104.3449"/><text fill="#000000" font-family="sans-serif" font-size="7.8" font-weight="bold" lengthAdjust="spacing" textLength="5.4" x="543.9" y="101.4996">3</text><text fill="#000000" font-family="sans-serif" font-size="7.8" lengthAdjust="spacing" textLength="70.8" x="551.7" y="101.4996">selectJobOpening()</text><polygon fill="#181818" points="546.3,119.5313,540.3,121.9312,546.3,124.3313,543.9,121.9312" style="stroke:#181818;stroke-width:0.6;"/><line style="stroke:#181818;stroke-width:0.6;stroke-dasharray:2.0,2.0;" x1="542.7" x2="1001.4" y1="121.9312" y2="121.9312"/><text fill="#000000" font-family="sans-serif" font-size="7.8" font-weight="bold" lengthAdjust="spacing" textLength="5.4" x="549.9" y="119.0859">4</text><text fill="#000000" font-family="sans-serif" font-size="7.8" lengthAdjust="spacing" textLength="72.6" x="557.7" y="119.0859">showJobOpenings()</text><polygon fill="#181818" points="1097.1,137.1176,1103.1,139.5176,1097.1,141.9176,1099.5,139.5176" style="stroke:#181818;stroke-width:0.6;"/><line style="stroke:#181818;stroke-width:0.6;stroke-dasharray:2.0,2.0;" x1="539.7" x2="1100.7" y1="139.5176" y2="139.5176"/><text fill="#000000" font-family="sans-serif" font-size="7.8" font-weight="bold" lengthAdjust="spacing" textLength="5.4" x="543.9" y="136.6723">5</text><text fill="#000000" font-family="sans-serif" font-size="7.8" lengthAdjust="spacing" textLength="61.8" x="551.7" y="136.6723">allJobOpenings()</text><polygon fill="#181818" points="1377.6,154.7039,1383.6,157.1039,1377.6,159.5039,1380,157.1039" style="stroke:#181818;stroke-width:0.6;"/><line style="stroke:#181818;stroke-width:0.6;" x1="1110.3" x2="1381.2" y1="157.1039" y2="157.1039"/><text fill="#000000" font-family="sans-serif" font-size="7.8" font-weight="bold" lengthAdjust="spacing" textLength="5.4" x="1114.5" y="154.2586">6</text><text fill="#000000" font-family="sans-serif" font-size="7.8" lengthAdjust="spacing" textLength="61.8" x="1122.3" y="154.2586">allJobOpenings()</text><polygon fill="#181818" points="1116.9,172.2902,1110.9,174.6902,1116.9,177.0902,1114.5,174.6902" style="stroke:#181818;stroke-width:0.6;"/><line style="stroke:#181818;stroke-width:0.6;stroke-dasharray:2.0,2.0;" x1="1113.3" x2="1387.2" y1="174.6902" y2="174.6902"/><text fill="#000000" font-family="sans-serif" font-size="7.8" font-weight="bold" lengthAdjust="spacing" textLength="5.4" x="1120.5" y="171.8449">7</text><text fill="#000000" font-family="sans-serif" font-size="7.8" lengthAdjust="spacing" textLength="85.2" x="1128.3" y="171.8449">list of all job openings</text><polygon fill="#181818" points="546.3,189.8766,540.3,192.2766,546.3,194.6766,543.9,192.2766" style="stroke:#181818;stroke-width:0.6;"/><line style="stroke:#181818;stroke-width:0.6;stroke-dasharray:2.0,2.0;" x1="542.7" x2="1106.7" y1="192.2766" y2="192.2766"/><text fill="#000000" font-family="sans-serif" font-size="7.8" font-weight="bold" lengthAdjust="spacing" textLength="5.4" x="549.9" y="189.4313">8</text><text fill="#000000" font-family="sans-serif" font-size="7.8" lengthAdjust="spacing" textLength="85.2" x="557.7" y="189.4313">list of all job openings</text><polygon fill="#181818" points="236.7,207.4629,230.7,209.8629,236.7,212.2629,234.3,209.8629" style="stroke:#181818;stroke-width:0.6;"/><line style="stroke:#181818;stroke-width:0.6;stroke-dasharray:2.0,2.0;" x1="233.1" x2="536.1" y1="209.8629" y2="209.8629"/><text fill="#000000" font-family="sans-serif" font-size="7.8" font-weight="bold" lengthAdjust="spacing" textLength="5.4" x="240.3" y="207.0176">9</text><text fill="#000000" font-family="sans-serif" font-size="7.8" lengthAdjust="spacing" textLength="85.2" x="248.1" y="207.0176">list of all job openings</text><polygon fill="#181818" points="52.5,225.0492,46.5,227.4492,52.5,229.8492,50.1,227.4492" style="stroke:#181818;stroke-width:0.6;"/><line style="stroke:#181818;stroke-width:0.6;" x1="48.9" x2="226.5" y1="227.4492" y2="227.4492"/><text fill="#000000" font-family="sans-serif" font-size="7.8" font-weight="bold" lengthAdjust="spacing" textLength="10.8" x="56.1" y="224.6039">10</text><text fill="#000000" font-family="sans-serif" font-size="7.8" lengthAdjust="spacing" textLength="150.6" x="69.3" y="224.6039">lists job opening and asks to select one</text><polygon fill="#181818" points="216.9,242.6355,222.9,245.0355,216.9,247.4355,219.3,245.0355" style="stroke:#181818;stroke-width:0.6;"/><line style="stroke:#181818;stroke-width:0.6;" x1="45.9" x2="220.5" y1="245.0355" y2="245.0355"/><text fill="#000000" font-family="sans-serif" font-size="7.8" font-weight="bold" lengthAdjust="spacing" textLength="10.8" x="50.1" y="242.1902">11</text><text fill="#000000" font-family="sans-serif" font-size="7.8" lengthAdjust="spacing" textLength="73.8" x="63.3" y="242.1902">selects job opening</text><polygon fill="#181818" points="675.9,260.2219,681.9,262.6219,675.9,265.0219,678.3,262.6219" style="stroke:#181818;stroke-width:0.6;"/><line style="stroke:#181818;stroke-width:0.6;" x1="230.1" x2="679.5" y1="262.6219" y2="262.6219"/><text fill="#000000" font-family="sans-serif" font-size="7.8" font-weight="bold" lengthAdjust="spacing" textLength="10.8" x="234.3" y="259.7766">12</text><text fill="#000000" font-family="sans-serif" font-size="7.8" lengthAdjust="spacing" textLength="211.2" x="247.5" y="259.7766">allApplicationsOfJobOpening(jobOpening.jobReference()</text><polygon fill="#181818" points="1188,277.8082,1194,280.2082,1188,282.6082,1190.4,280.2082" style="stroke:#181818;stroke-width:0.6;"/><line style="stroke:#181818;stroke-width:0.6;" x1="689.1" x2="1191.6" y1="280.2082" y2="280.2082"/><text fill="#000000" font-family="sans-serif" font-size="7.8" font-weight="bold" lengthAdjust="spacing" textLength="10.8" x="693.3" y="277.3629">13</text><text fill="#000000" font-family="sans-serif" font-size="7.8" lengthAdjust="spacing" textLength="61.2" x="706.5" y="277.3629">allApplications()</text><polygon fill="#181818" points="1478.7,295.3945,1484.7,297.7945,1478.7,300.1945,1481.1,297.7945" style="stroke:#181818;stroke-width:0.6;"/><line style="stroke:#181818;stroke-width:0.6;" x1="1201.2" x2="1482.3" y1="297.7945" y2="297.7945"/><text fill="#000000" font-family="sans-serif" font-size="7.8" font-weight="bold" lengthAdjust="spacing" textLength="10.8" x="1205.4" y="294.9492">14</text><text fill="#000000" font-family="sans-serif" font-size="7.8" lengthAdjust="spacing" textLength="61.2" x="1218.6" y="294.9492">allApplications()</text><polygon fill="#181818" points="1207.8,312.9809,1201.8,315.3809,1207.8,317.7809,1205.4,315.3809" style="stroke:#181818;stroke-width:0.6;"/><line style="stroke:#181818;stroke-width:0.6;stroke-dasharray:2.0,2.0;" x1="1204.2" x2="1488.3" y1="315.3809" y2="315.3809"/><text fill="#000000" font-family="sans-serif" font-size="7.8" font-weight="bold" lengthAdjust="spacing" textLength="10.8" x="1211.4" y="312.5355">15</text><text fill="#000000" font-family="sans-serif" font-size="7.8" lengthAdjust="spacing" textLength="142.2" x="1224.6" y="312.5355">Iterable&lt;Application&gt; allApplications</text><polygon fill="#181818" points="695.7,330.5672,689.7,332.9672,695.7,335.3672,693.3,332.9672" style="stroke:#181818;stroke-width:0.6;"/><line style="stroke:#181818;stroke-width:0.6;stroke-dasharray:2.0,2.0;" x1="692.1" x2="1197.6" y1="332.9672" y2="332.9672"/><text fill="#000000" font-family="sans-serif" font-size="7.8" font-weight="bold" lengthAdjust="spacing" textLength="10.8" x="699.3" y="330.1219">16</text><text fill="#000000" font-family="sans-serif" font-size="7.8" lengthAdjust="spacing" textLength="142.2" x="712.5" y="330.1219">Iterable&lt;Application&gt; allApplications</text><polygon fill="#181818" points="236.7,348.1535,230.7,350.5535,236.7,352.9535,234.3,350.5535" style="stroke:#181818;stroke-width:0.6;"/><line style="stroke:#181818;stroke-width:0.6;stroke-dasharray:2.0,2.0;" x1="233.1" x2="685.5" y1="350.5535" y2="350.5535"/><text fill="#000000" font-family="sans-serif" font-size="7.8" font-weight="bold" lengthAdjust="spacing" textLength="10.8" x="240.3" y="347.7082">17</text><text fill="#000000" font-family="sans-serif" font-size="7.8" lengthAdjust="spacing" textLength="141.6" x="253.5" y="347.7082">Iterable&lt;Application&gt; applicationList</text><polygon fill="#181818" points="381.9,365.7398,387.9,368.1398,381.9,370.5398,384.3,368.1398" style="stroke:#181818;stroke-width:0.6;"/><line style="stroke:#181818;stroke-width:0.6;" x1="230.1" x2="385.5" y1="368.1398" y2="368.1398"/><text fill="#000000" font-family="sans-serif" font-size="7.8" font-weight="bold" lengthAdjust="spacing" textLength="10.8" x="234.3" y="365.2945">18</text><text fill="#000000" font-family="sans-serif" font-size="7.8" lengthAdjust="spacing" textLength="103.2" x="247.5" y="365.2945">orderedList(applicationList)</text><path d="M309,377.1398 L353.4,377.1398 L353.4,381.5262 L347.4,387.5262 L309,387.5262 L309,377.1398 " fill="#EEEEEE" style="stroke:#000000;stroke-width:0.8999999999999999;"/><rect fill="none" height="98.318" style="stroke:#000000;stroke-width:0.8999999999999999;" width="1336.8" x="309" y="377.1398"/><text fill="#000000" font-family="sans-serif" font-size="7.8" font-weight="bold" lengthAdjust="spacing" textLength="17.4" x="318" y="385.2809">loop</text><text fill="#000000" font-family="sans-serif" font-size="6.6" font-weight="bold" lengthAdjust="spacing" textLength="132.6" x="362.4" y="384.7207">[for each application in applicationList]</text><polygon fill="#181818" points="846.6,397.9125,852.6,400.3125,846.6,402.7125,849,400.3125" style="stroke:#181818;stroke-width:0.6;"/><line style="stroke:#181818;stroke-width:0.6;" x1="395.1" x2="850.2" y1="400.3125" y2="400.3125"/><text fill="#000000" font-family="sans-serif" font-size="7.8" font-weight="bold" lengthAdjust="spacing" textLength="10.8" x="399.3" y="397.4672">19</text><text fill="#000000" font-family="sans-serif" font-size="7.8" lengthAdjust="spacing" textLength="158.4" x="412.5" y="397.4672">allJobInterviewsOfApplication(application)</text><polygon fill="#181818" points="1279.8,415.4988,1285.8,417.8988,1279.8,420.2988,1282.2,417.8988" style="stroke:#181818;stroke-width:0.6;"/><line style="stroke:#181818;stroke-width:0.6;" x1="859.8" x2="1283.4" y1="417.8988" y2="417.8988"/><text fill="#000000" font-family="sans-serif" font-size="7.8" font-weight="bold" lengthAdjust="spacing" textLength="10.8" x="864" y="415.0535">20</text><text fill="#000000" font-family="sans-serif" font-size="7.8" lengthAdjust="spacing" textLength="64.2" x="877.2" y="415.0535">allJobInterviews()</text><polygon fill="#181818" points="1580.7,433.0852,1586.7,435.4852,1580.7,437.8852,1583.1,435.4852" style="stroke:#181818;stroke-width:0.6;"/><line style="stroke:#181818;stroke-width:0.6;" x1="1293" x2="1584.3" y1="435.4852" y2="435.4852"/><text fill="#000000" font-family="sans-serif" font-size="7.8" font-weight="bold" lengthAdjust="spacing" textLength="10.8" x="1297.2" y="432.6398">21</text><text fill="#000000" font-family="sans-serif" font-size="7.8" lengthAdjust="spacing" textLength="64.2" x="1310.4" y="432.6398">allJobInterviews()</text><polygon fill="#181818" points="1299.6,450.6715,1293.6,453.0715,1299.6,455.4715,1297.2,453.0715" style="stroke:#181818;stroke-width:0.6;"/><line style="stroke:#181818;stroke-width:0.6;stroke-dasharray:2.0,2.0;" x1="1296" x2="1590.3" y1="453.0715" y2="453.0715"/><text fill="#000000" font-family="sans-serif" font-size="7.8" font-weight="bold" lengthAdjust="spacing" textLength="10.8" x="1303.2" y="450.2262">22</text><text fill="#000000" font-family="sans-serif" font-size="7.8" lengthAdjust="spacing" textLength="64.2" x="1316.4" y="450.2262">all Job Interviews</text><polygon fill="#181818" points="866.4,468.2578,860.4,470.6578,866.4,473.0578,864,470.6578" style="stroke:#181818;stroke-width:0.6;"/><line style="stroke:#181818;stroke-width:0.6;stroke-dasharray:2.0,2.0;" x1="862.8" x2="1289.4" y1="470.6578" y2="470.6578"/><text fill="#000000" font-family="sans-serif" font-size="7.8" font-weight="bold" lengthAdjust="spacing" textLength="10.8" x="870" y="467.8125">23</text><text fill="#000000" font-family="sans-serif" font-size="7.8" lengthAdjust="spacing" textLength="102.6" x="883.2" y="467.8125">allJobInterviewsApplication</text><polygon fill="#181818" points="401.7,490.0441,395.7,492.4441,401.7,494.8441,399.3,492.4441" style="stroke:#181818;stroke-width:0.6;"/><line style="stroke:#181818;stroke-width:0.6;stroke-dasharray:2.0,2.0;" x1="398.1" x2="856.2" y1="492.4441" y2="492.4441"/><text fill="#000000" font-family="sans-serif" font-size="7.8" font-weight="bold" lengthAdjust="spacing" textLength="10.8" x="405.3" y="489.5988">24</text><text fill="#000000" font-family="sans-serif" font-size="7.8" lengthAdjust="spacing" textLength="131.4" x="418.5" y="489.5988">Iterable&lt;JobInterview&gt; orderedList</text><polygon fill="#181818" points="236.7,507.6305,230.7,510.0305,236.7,512.4305,234.3,510.0305" style="stroke:#181818;stroke-width:0.6;"/><line style="stroke:#181818;stroke-width:0.6;stroke-dasharray:2.0,2.0;" x1="233.1" x2="391.5" y1="510.0305" y2="510.0305"/><text fill="#000000" font-family="sans-serif" font-size="7.8" font-weight="bold" lengthAdjust="spacing" textLength="10.8" x="240.3" y="507.1852">25</text><text fill="#000000" font-family="sans-serif" font-size="7.8" lengthAdjust="spacing" textLength="131.4" x="253.5" y="507.1852">Iterable&lt;JobInterview&gt; orderedList</text><polygon fill="#181818" points="381.9,525.2168,387.9,527.6168,381.9,530.0168,384.3,527.6168" style="stroke:#181818;stroke-width:0.6;"/><line style="stroke:#181818;stroke-width:0.6;" x1="230.1" x2="385.5" y1="527.6168" y2="527.6168"/><text fill="#000000" font-family="sans-serif" font-size="7.8" font-weight="bold" lengthAdjust="spacing" textLength="10.8" x="234.3" y="524.7715">26</text><text fill="#000000" font-family="sans-serif" font-size="7.8" lengthAdjust="spacing" textLength="103.2" x="247.5" y="524.7715">applicationList(orderedList)</text><polygon fill="#181818" points="236.7,542.8031,230.7,545.2031,236.7,547.6031,234.3,545.2031" style="stroke:#181818;stroke-width:0.6;"/><line style="stroke:#181818;stroke-width:0.6;stroke-dasharray:2.0,2.0;" x1="233.1" x2="391.5" y1="545.2031" y2="545.2031"/><text fill="#000000" font-family="sans-serif" font-size="7.8" font-weight="bold" lengthAdjust="spacing" textLength="10.8" x="240.3" y="542.3578">27</text><text fill="#000000" font-family="sans-serif" font-size="7.8" lengthAdjust="spacing" textLength="60" x="253.5" y="542.3578">applicationsList</text><polygon fill="#181818" points="52.5,560.3895,46.5,562.7895,52.5,565.1895,50.1,562.7895" style="stroke:#181818;stroke-width:0.6;"/><line style="stroke:#181818;stroke-width:0.6;stroke-dasharray:2.0,2.0;" x1="48.9" x2="223.5" y1="562.7895" y2="562.7895"/><text fill="#000000" font-family="sans-serif" font-size="7.8" font-weight="bold" lengthAdjust="spacing" textLength="10.8" x="56.1" y="559.9441">28</text><text fill="#000000" font-family="sans-serif" font-size="7.8" lengthAdjust="spacing" textLength="72" x="69.3" y="559.9441">display orderedList</text><!--SRC=[lLTBRjim4Dth55ow2_S0Xc6WyCf52mC9UW1AeXoc2YcGT0BVlfHLaoF-PGVHIZ9dvhqPpZpI-AmuEx_LH5GLRXGNQ7-MYhyHyHipV1f_7h1GjA43PWeTHKi4QNzHgOxT7hEMjbWH-UU0jjj144cOmefojjkLkEqvKuBtFH7QlJ4VZlCpwKcZVlBwE116sQdCQyIoFZ-6eQVDbPfSv7zWYeXtIZua274FWxXFDI-nTNaUaHkYxUNqvW00HZbJc4d8jjBxWMii2O1_8WENLBV4HPiAyw6jZJ5WK60DISJDnpQaxxez_4v4-d5-HEjTeYat2Ck_4YcEUhs86hE6wWiw2TmIUGrg8AEX9l3nYQDfAebUtI1vNPG8erTU8pvPcBY6Gpo69J4-2IpD9DfzDnvsSVLj5jSGYOMOqnYVADWwMvCN_c6NfAOo2zwIXMnIHT5S_E7IBTBt4GO6stEpDdx46GpeyuL8rZC41kA6yz9mrvxdtGWBEqxQUA2yfS0cozpEtedk5JYpewdXNqIXPEoIi-ygquGl8JBIBaQIfZ54dFrF5d39oD123Rpf3bITpvMzeiFsslzmxTW13Nerhz_rwnFfD1fh2D2cY1A4qUQgKCHFvn4uKJtMCRNqVNsT3CIVexfoaG2EWOV6DyB14P5WzWTzOEEw9rkmkdEfUK2WboFKgbnTojkgZ68Xn-3UbVLFPWmZDEt7w1MKfhA6dr5EZcl-Ehv1tDgi78wXSoiRigfwpWVKwNyOEh4Nc3UYB5w6H3B12q_kmduxXQtTiGEMC5VdBk9kHmOfs44vTjDHxbtLVTAh6Bc0-zmo5D-13LnQ5YB7H2Y2iaxbFQuWYn-z82x5XqfJt3rkDO1P4J6p9KJV1CQ9-FeMAn40e5Omv0xAGkwcleXymOYdvFKXlWNQXJvHMXsfMm6ApcYXUoa-MivnyC0furVlWVAbwXUyHRTK3Zs-pBRo7m00]--></g></svg>