<?xml version="1.0" encoding="us-ascii" standalone="no"?><svg xmlns="http://www.w3.org/2000/svg" xmlns:xlink="http://www.w3.org/1999/xlink" contentStyleType="text/css" height="554.4px" preserveAspectRatio="none" style="width:1209px;height:554px;background:#FFFFFF;" version="1.1" viewBox="0 0 1209 554" width="1209.2px" zoomAndPan="magnify"><defs/><g><rect fill="#FFFFFF" height="475.3688" style="stroke:#181818;stroke-width:0.4000000000000001;" width="4" x="26.6" y="37.5906"/><rect fill="#FFFFFF" height="216.2359" style="stroke:#181818;stroke-width:0.4000000000000001;" width="4" x="162.2" y="46.1148"/><rect fill="#FFFFFF" height="238.8844" style="stroke:#181818;stroke-width:0.4000000000000001;" width="4" x="162.2" y="274.075"/><rect fill="#FFFFFF" height="192.7875" style="stroke:#181818;stroke-width:0.4000000000000001;" width="4" x="323.4" y="57.8391"/><rect fill="#FFFFFF" height="82.0695" style="stroke:#181818;stroke-width:0.4000000000000001;" width="4" x="323.4" y="285.7992"/><rect fill="#FFFFFF" height="94.5938" style="stroke:#181818;stroke-width:0.4000000000000001;" width="4" x="323.4" y="379.593"/><rect fill="#FFFFFF" height="11.7242" style="stroke:#181818;stroke-width:0.4000000000000001;" width="4" x="323.4" y="485.9109"/><rect fill="#FFFFFF" height="169.3391" style="stroke:#181818;stroke-width:0.4000000000000001;" width="4" x="419.8" y="69.5633"/><rect fill="#FFFFFF" height="58.6211" style="stroke:#181818;stroke-width:0.4000000000000001;" width="4" x="527" y="297.5234"/><rect fill="#FFFFFF" height="61.4211" style="stroke:#181818;stroke-width:0.4000000000000001;" width="4" x="640.8" y="401.0414"/><rect fill="#FFFFFF" height="58.6211" style="stroke:#181818;stroke-width:0.4000000000000001;" width="4" x="737.6" y="81.2875"/><rect fill="#FFFFFF" height="58.6211" style="stroke:#181818;stroke-width:0.4000000000000001;" width="4" x="737.6" y="168.557"/><rect fill="#FFFFFF" height="35.1727" style="stroke:#181818;stroke-width:0.4000000000000001;" width="4" x="846" y="93.0117"/><rect fill="#FFFFFF" height="35.1727" style="stroke:#181818;stroke-width:0.4000000000000001;" width="4" x="846" y="180.2813"/><rect fill="#FFFFFF" height="35.1727" style="stroke:#181818;stroke-width:0.4000000000000001;" width="4" x="906.6" y="309.2477"/><rect fill="#FFFFFF" height="35.1727" style="stroke:#181818;stroke-width:0.4000000000000001;" width="4" x="967.8" y="412.7656"/><rect fill="#FFFFFF" height="11.7242" style="stroke:#181818;stroke-width:0.4000000000000001;" width="4" x="1033" y="104.7359"/><rect fill="#FFFFFF" height="11.7242" style="stroke:#181818;stroke-width:0.4000000000000001;" width="4" x="1033" y="192.0055"/><rect fill="#FFFFFF" height="11.7242" style="stroke:#181818;stroke-width:0.4000000000000001;" width="4" x="1100.4" y="320.9719"/><rect fill="#FFFFFF" height="11.7242" style="stroke:#181818;stroke-width:0.4000000000000001;" width="4" x="1168.4" y="424.4898"/><rect fill="none" height="65.5453" style="stroke:#000000;stroke-width:0.6000000000000001;" width="937" x="270" y="385.593"/><line style="stroke:#181818;stroke-width:0.20000000000000004;stroke-dasharray:5.0,5.0;" x1="28.4" x2="28.4" y1="33.5906" y2="516.5594"/><line style="stroke:#181818;stroke-width:0.20000000000000004;stroke-dasharray:5.0,5.0;" x1="164" x2="164" y1="33.5906" y2="516.5594"/><line style="stroke:#181818;stroke-width:0.20000000000000004;stroke-dasharray:5.0,5.0;" x1="325.2" x2="325.2" y1="33.5906" y2="516.5594"/><line style="stroke:#181818;stroke-width:0.20000000000000004;stroke-dasharray:5.0,5.0;" x1="421.6" x2="421.6" y1="33.5906" y2="516.5594"/><line style="stroke:#181818;stroke-width:0.20000000000000004;stroke-dasharray:5.0,5.0;" x1="528.8" x2="528.8" y1="33.5906" y2="516.5594"/><line style="stroke:#181818;stroke-width:0.20000000000000004;stroke-dasharray:5.0,5.0;" x1="642.8" x2="642.8" y1="33.5906" y2="516.5594"/><line style="stroke:#181818;stroke-width:0.20000000000000004;stroke-dasharray:5.0,5.0;" x1="739.6" x2="739.6" y1="33.5906" y2="516.5594"/><line style="stroke:#181818;stroke-width:0.20000000000000004;stroke-dasharray:5.0,5.0;" x1="847.8" x2="847.8" y1="33.5906" y2="516.5594"/><line style="stroke:#181818;stroke-width:0.20000000000000004;stroke-dasharray:5.0,5.0;" x1="908.6" x2="908.6" y1="33.5906" y2="516.5594"/><line style="stroke:#181818;stroke-width:0.20000000000000004;stroke-dasharray:5.0,5.0;" x1="969.8" x2="969.8" y1="33.5906" y2="516.5594"/><line style="stroke:#181818;stroke-width:0.20000000000000004;stroke-dasharray:5.0,5.0;" x1="1035" x2="1035" y1="33.5906" y2="516.5594"/><line style="stroke:#181818;stroke-width:0.20000000000000004;stroke-dasharray:5.0,5.0;" x1="1102.2" x2="1102.2" y1="33.5906" y2="516.5594"/><line style="stroke:#181818;stroke-width:0.20000000000000004;stroke-dasharray:5.0,5.0;" x1="1170.2" x2="1170.2" y1="33.5906" y2="516.5594"/><text fill="#000000" font-family="sans-serif" font-size="5.6" lengthAdjust="spacing" textLength="50.8" x="2" y="32.4094">CustomerManager</text><ellipse cx="28.6" cy="6.3953" fill="#E2E2F0" rx="3.2" ry="3.2" style="stroke:#181818;stroke-width:0.20000000000000004;"/><path d="M28.6,9.5953 L28.6,20.3953 M23.4,12.7953 L33.8,12.7953 M28.6,20.3953 L23.4,26.3953 M28.6,20.3953 L33.8,26.3953 " fill="none" style="stroke:#181818;stroke-width:0.20000000000000004;"/><text fill="#000000" font-family="sans-serif" font-size="5.6" lengthAdjust="spacing" textLength="50.8" x="2" y="521.5734">CustomerManager</text><ellipse cx="28.6" cy="526.1547" fill="#E2E2F0" rx="3.2" ry="3.2" style="stroke:#181818;stroke-width:0.20000000000000004;"/><path d="M28.6,529.3547 L28.6,540.1547 M23.4,532.5547 L33.8,532.5547 M28.6,540.1547 L23.4,546.1547 M28.6,540.1547 L33.8,546.1547 " fill="none" style="stroke:#181818;stroke-width:0.20000000000000004;"/><rect fill="#E2E2F0" height="18.7906" rx="1" ry="1" style="stroke:#181818;stroke-width:0.20000000000000004;" width="80.4" x="124" y="14.4"/><text fill="#000000" font-family="sans-serif" font-size="5.6" font-style="italic" lengthAdjust="spacing" textLength="40.4" x="144" y="22.6141">&#171;presentation&#187;</text><text fill="#000000" font-family="sans-serif" font-size="5.6" lengthAdjust="spacing" textLength="74.8" x="126.8" y="29.2094">OrderedListOfCandidatesUI</text><rect fill="#E2E2F0" height="18.7906" rx="1" ry="1" style="stroke:#181818;stroke-width:0.20000000000000004;" width="80.4" x="124" y="516.1594"/><text fill="#000000" font-family="sans-serif" font-size="5.6" font-style="italic" lengthAdjust="spacing" textLength="40.4" x="144" y="524.3734">&#171;presentation&#187;</text><text fill="#000000" font-family="sans-serif" font-size="5.6" lengthAdjust="spacing" textLength="74.8" x="126.8" y="530.9688">OrderedListOfCandidatesUI</text><rect fill="#E2E2F0" height="18.7906" rx="1" ry="1" style="stroke:#181818;stroke-width:0.20000000000000004;" width="102.8" x="274" y="14.4"/><text fill="#000000" font-family="sans-serif" font-size="5.6" font-style="italic" lengthAdjust="spacing" textLength="32.4" x="309.2" y="22.6141">&#171;controller&#187;</text><text fill="#000000" font-family="sans-serif" font-size="5.6" lengthAdjust="spacing" textLength="97.2" x="276.8" y="29.2094">OrderedListOfCandidatesController</text><rect fill="#E2E2F0" height="18.7906" rx="1" ry="1" style="stroke:#181818;stroke-width:0.20000000000000004;" width="102.8" x="274" y="516.1594"/><text fill="#000000" font-family="sans-serif" font-size="5.6" font-style="italic" lengthAdjust="spacing" textLength="32.4" x="309.2" y="524.3734">&#171;controller&#187;</text><text fill="#000000" font-family="sans-serif" font-size="5.6" lengthAdjust="spacing" textLength="97.2" x="276.8" y="530.9688">OrderedListOfCandidatesController</text><rect fill="#E2E2F0" height="18.7906" rx="1" ry="1" style="stroke:#181818;stroke-width:0.20000000000000004;" width="82" x="380.8" y="14.4"/><text fill="#000000" font-family="sans-serif" font-size="5.6" font-style="italic" lengthAdjust="spacing" textLength="32.4" x="405.6" y="22.6141">&#171;controller&#187;</text><text fill="#000000" font-family="sans-serif" font-size="5.6" lengthAdjust="spacing" textLength="76.4" x="383.6" y="29.2094">SelectJobOpeningController</text><rect fill="#E2E2F0" height="18.7906" rx="1" ry="1" style="stroke:#181818;stroke-width:0.20000000000000004;" width="82" x="380.8" y="516.1594"/><text fill="#000000" font-family="sans-serif" font-size="5.6" font-style="italic" lengthAdjust="spacing" textLength="32.4" x="405.6" y="524.3734">&#171;controller&#187;</text><text fill="#000000" font-family="sans-serif" font-size="5.6" lengthAdjust="spacing" textLength="76.4" x="383.6" y="530.9688">SelectJobOpeningController</text><rect fill="#E2E2F0" height="18.7906" rx="1" ry="1" style="stroke:#181818;stroke-width:0.20000000000000004;" width="109.2" x="474.4" y="14.4"/><text fill="#000000" font-family="sans-serif" font-size="5.6" font-style="italic" lengthAdjust="spacing" textLength="32.4" x="512.8" y="22.6141">&#171;controller&#187;</text><text fill="#000000" font-family="sans-serif" font-size="5.6" lengthAdjust="spacing" textLength="103.6" x="477.2" y="29.2094">ListJobOpeningApplicationsController</text><rect fill="#E2E2F0" height="18.7906" rx="1" ry="1" style="stroke:#181818;stroke-width:0.20000000000000004;" width="109.2" x="474.4" y="516.1594"/><text fill="#000000" font-family="sans-serif" font-size="5.6" font-style="italic" lengthAdjust="spacing" textLength="32.4" x="512.8" y="524.3734">&#171;controller&#187;</text><text fill="#000000" font-family="sans-serif" font-size="5.6" lengthAdjust="spacing" textLength="103.6" x="477.2" y="530.9688">ListJobOpeningApplicationsController</text><rect fill="#E2E2F0" height="18.7906" rx="1" ry="1" style="stroke:#181818;stroke-width:0.20000000000000004;" width="110.4" x="587.6" y="14.4"/><text fill="#000000" font-family="sans-serif" font-size="5.6" font-style="italic" lengthAdjust="spacing" textLength="32.4" x="626.6" y="22.6141">&#171;controller&#187;</text><text fill="#000000" font-family="sans-serif" font-size="5.6" lengthAdjust="spacing" textLength="104.8" x="590.4" y="29.2094">ListJobInterviewsApplicationController</text><rect fill="#E2E2F0" height="18.7906" rx="1" ry="1" style="stroke:#181818;stroke-width:0.20000000000000004;" width="110.4" x="587.6" y="516.1594"/><text fill="#000000" font-family="sans-serif" font-size="5.6" font-style="italic" lengthAdjust="spacing" textLength="32.4" x="626.6" y="524.3734">&#171;controller&#187;</text><text fill="#000000" font-family="sans-serif" font-size="5.6" lengthAdjust="spacing" textLength="104.8" x="590.4" y="530.9688">ListJobInterviewsApplicationController</text><rect fill="#E2E2F0" height="18.7906" rx="1" ry="1" style="stroke:#181818;stroke-width:0.20000000000000004;" width="75.2" x="702" y="14.4"/><text fill="#000000" font-family="sans-serif" font-size="5.6" font-style="italic" lengthAdjust="spacing" textLength="32.4" x="723.4" y="22.6141">&#171;controller&#187;</text><text fill="#000000" font-family="sans-serif" font-size="5.6" lengthAdjust="spacing" textLength="69.6" x="704.8" y="29.2094">ListJobOpeningController</text><rect fill="#E2E2F0" height="18.7906" rx="1" ry="1" style="stroke:#181818;stroke-width:0.20000000000000004;" width="75.2" x="702" y="516.1594"/><text fill="#000000" font-family="sans-serif" font-size="5.6" font-style="italic" lengthAdjust="spacing" textLength="32.4" x="723.4" y="524.3734">&#171;controller&#187;</text><text fill="#000000" font-family="sans-serif" font-size="5.6" lengthAdjust="spacing" textLength="69.6" x="704.8" y="530.9688">ListJobOpeningController</text><rect fill="#E2E2F0" height="18.7906" rx="1" ry="1" style="stroke:#181818;stroke-width:0.20000000000000004;" width="57.2" x="819.4" y="14.4"/><text fill="#000000" font-family="sans-serif" font-size="5.6" font-style="italic" lengthAdjust="spacing" textLength="24.4" x="835.8" y="22.6141">&#171;service&#187;</text><text fill="#000000" font-family="sans-serif" font-size="5.6" lengthAdjust="spacing" textLength="51.6" x="822.2" y="29.2094">JobOpeningService</text><rect fill="#E2E2F0" height="18.7906" rx="1" ry="1" style="stroke:#181818;stroke-width:0.20000000000000004;" width="57.2" x="819.4" y="516.1594"/><text fill="#000000" font-family="sans-serif" font-size="5.6" font-style="italic" lengthAdjust="spacing" textLength="24.4" x="835.8" y="524.3734">&#171;service&#187;</text><text fill="#000000" font-family="sans-serif" font-size="5.6" lengthAdjust="spacing" textLength="51.6" x="822.2" y="530.9688">JobOpeningService</text><rect fill="#E2E2F0" height="18.7906" rx="1" ry="1" style="stroke:#181818;stroke-width:0.20000000000000004;" width="56" x="880.6" y="14.4"/><text fill="#000000" font-family="sans-serif" font-size="5.6" font-style="italic" lengthAdjust="spacing" textLength="24.4" x="896.4" y="22.6141">&#171;service&#187;</text><text fill="#000000" font-family="sans-serif" font-size="5.6" lengthAdjust="spacing" textLength="50.4" x="883.4" y="29.2094">ApplicationService</text><rect fill="#E2E2F0" height="18.7906" rx="1" ry="1" style="stroke:#181818;stroke-width:0.20000000000000004;" width="56" x="880.6" y="516.1594"/><text fill="#000000" font-family="sans-serif" font-size="5.6" font-style="italic" lengthAdjust="spacing" textLength="24.4" x="896.4" y="524.3734">&#171;service&#187;</text><text fill="#000000" font-family="sans-serif" font-size="5.6" lengthAdjust="spacing" textLength="50.4" x="883.4" y="530.9688">ApplicationService</text><rect fill="#E2E2F0" height="18.7906" rx="1" ry="1" style="stroke:#181818;stroke-width:0.20000000000000004;" width="58.4" x="940.6" y="14.4"/><text fill="#000000" font-family="sans-serif" font-size="5.6" font-style="italic" lengthAdjust="spacing" textLength="24.4" x="957.6" y="22.6141">&#171;service&#187;</text><text fill="#000000" font-family="sans-serif" font-size="5.6" lengthAdjust="spacing" textLength="52.8" x="943.4" y="29.2094">JobInterviewService</text><rect fill="#E2E2F0" height="18.7906" rx="1" ry="1" style="stroke:#181818;stroke-width:0.20000000000000004;" width="58.4" x="940.6" y="516.1594"/><text fill="#000000" font-family="sans-serif" font-size="5.6" font-style="italic" lengthAdjust="spacing" textLength="24.4" x="957.6" y="524.3734">&#171;service&#187;</text><text fill="#000000" font-family="sans-serif" font-size="5.6" lengthAdjust="spacing" textLength="52.8" x="943.4" y="530.9688">JobInterviewService</text><text fill="#000000" font-family="sans-serif" font-size="5.6" font-style="italic" lengthAdjust="spacing" textLength="33.6" x="1017" y="25.8141">&#171;repository&#187;</text><text fill="#000000" font-family="sans-serif" font-size="5.6" lengthAdjust="spacing" textLength="61.6" x="1003" y="32.4094">JobOpeningRepository</text><path d="M1027.8,6 C1027.8,2 1035,2 1035,2 C1035,2 1042.2,2 1042.2,6 L1042.2,16.4 C1042.2,20.4 1035,20.4 1035,20.4 C1035,20.4 1027.8,20.4 1027.8,16.4 L1027.8,6 " fill="#E2E2F0" style="stroke:#181818;stroke-width:0.6000000000000001;"/><path d="M1027.8,6 C1027.8,10 1035,10 1035,10 C1035,10 1042.2,10 1042.2,6 " fill="none" style="stroke:#181818;stroke-width:0.6000000000000001;"/><text fill="#000000" font-family="sans-serif" font-size="5.6" font-style="italic" lengthAdjust="spacing" textLength="33.6" x="1017" y="521.5734">&#171;repository&#187;</text><text fill="#000000" font-family="sans-serif" font-size="5.6" lengthAdjust="spacing" textLength="61.6" x="1003" y="528.1688">JobOpeningRepository</text><path d="M1027.8,533.35 C1027.8,529.35 1035,529.35 1035,529.35 C1035,529.35 1042.2,529.35 1042.2,533.35 L1042.2,543.75 C1042.2,547.75 1035,547.75 1035,547.75 C1035,547.75 1027.8,547.75 1027.8,543.75 L1027.8,533.35 " fill="#E2E2F0" style="stroke:#181818;stroke-width:0.6000000000000001;"/><path d="M1027.8,533.35 C1027.8,537.35 1035,537.35 1035,537.35 C1035,537.35 1042.2,537.35 1042.2,533.35 " fill="none" style="stroke:#181818;stroke-width:0.6000000000000001;"/><text fill="#000000" font-family="sans-serif" font-size="5.6" font-style="italic" lengthAdjust="spacing" textLength="33.6" x="1084.4" y="25.8141">&#171;repository&#187;</text><text fill="#000000" font-family="sans-serif" font-size="5.6" lengthAdjust="spacing" textLength="60.4" x="1071" y="32.4094">ApplicationRepository</text><path d="M1095.2,6 C1095.2,2 1102.4,2 1102.4,2 C1102.4,2 1109.6,2 1109.6,6 L1109.6,16.4 C1109.6,20.4 1102.4,20.4 1102.4,20.4 C1102.4,20.4 1095.2,20.4 1095.2,16.4 L1095.2,6 " fill="#E2E2F0" style="stroke:#181818;stroke-width:0.6000000000000001;"/><path d="M1095.2,6 C1095.2,10 1102.4,10 1102.4,10 C1102.4,10 1109.6,10 1109.6,6 " fill="none" style="stroke:#181818;stroke-width:0.6000000000000001;"/><text fill="#000000" font-family="sans-serif" font-size="5.6" font-style="italic" lengthAdjust="spacing" textLength="33.6" x="1084.4" y="521.5734">&#171;repository&#187;</text><text fill="#000000" font-family="sans-serif" font-size="5.6" lengthAdjust="spacing" textLength="60.4" x="1071" y="528.1688">ApplicationRepository</text><path d="M1095.2,533.35 C1095.2,529.35 1102.4,529.35 1102.4,529.35 C1102.4,529.35 1109.6,529.35 1109.6,533.35 L1109.6,543.75 C1109.6,547.75 1102.4,547.75 1102.4,547.75 C1102.4,547.75 1095.2,547.75 1095.2,543.75 L1095.2,533.35 " fill="#E2E2F0" style="stroke:#181818;stroke-width:0.6000000000000001;"/><path d="M1095.2,533.35 C1095.2,537.35 1102.4,537.35 1102.4,537.35 C1102.4,537.35 1109.6,537.35 1109.6,533.35 " fill="none" style="stroke:#181818;stroke-width:0.6000000000000001;"/><text fill="#000000" font-family="sans-serif" font-size="5.6" font-style="italic" lengthAdjust="spacing" textLength="33.6" x="1152.4" y="25.8141">&#171;repository&#187;</text><text fill="#000000" font-family="sans-serif" font-size="5.6" lengthAdjust="spacing" textLength="62.8" x="1137.8" y="32.4094">JobInterviewRepository</text><path d="M1163.2,6 C1163.2,2 1170.4,2 1170.4,2 C1170.4,2 1177.6,2 1177.6,6 L1177.6,16.4 C1177.6,20.4 1170.4,20.4 1170.4,20.4 C1170.4,20.4 1163.2,20.4 1163.2,16.4 L1163.2,6 " fill="#E2E2F0" style="stroke:#181818;stroke-width:0.6000000000000001;"/><path d="M1163.2,6 C1163.2,10 1170.4,10 1170.4,10 C1170.4,10 1177.6,10 1177.6,6 " fill="none" style="stroke:#181818;stroke-width:0.6000000000000001;"/><text fill="#000000" font-family="sans-serif" font-size="5.6" font-style="italic" lengthAdjust="spacing" textLength="33.6" x="1152.4" y="521.5734">&#171;repository&#187;</text><text fill="#000000" font-family="sans-serif" font-size="5.6" lengthAdjust="spacing" textLength="62.8" x="1137.8" y="528.1688">JobInterviewRepository</text><path d="M1163.2,533.35 C1163.2,529.35 1170.4,529.35 1170.4,529.35 C1170.4,529.35 1177.6,529.35 1177.6,533.35 L1177.6,543.75 C1177.6,547.75 1170.4,547.75 1170.4,547.75 C1170.4,547.75 1163.2,547.75 1163.2,543.75 L1163.2,533.35 " fill="#E2E2F0" style="stroke:#181818;stroke-width:0.6000000000000001;"/><path d="M1163.2,533.35 C1163.2,537.35 1170.4,537.35 1170.4,537.35 C1170.4,537.35 1177.6,537.35 1177.6,533.35 " fill="none" style="stroke:#181818;stroke-width:0.6000000000000001;"/><rect fill="#FFFFFF" height="475.3688" style="stroke:#181818;stroke-width:0.4000000000000001;" width="4" x="26.6" y="37.5906"/><rect fill="#FFFFFF" height="216.2359" style="stroke:#181818;stroke-width:0.4000000000000001;" width="4" x="162.2" y="46.1148"/><rect fill="#FFFFFF" height="238.8844" style="stroke:#181818;stroke-width:0.4000000000000001;" width="4" x="162.2" y="274.075"/><rect fill="#FFFFFF" height="192.7875" style="stroke:#181818;stroke-width:0.4000000000000001;" width="4" x="323.4" y="57.8391"/><rect fill="#FFFFFF" height="82.0695" style="stroke:#181818;stroke-width:0.4000000000000001;" width="4" x="323.4" y="285.7992"/><rect fill="#FFFFFF" height="94.5938" style="stroke:#181818;stroke-width:0.4000000000000001;" width="4" x="323.4" y="379.593"/><rect fill="#FFFFFF" height="11.7242" style="stroke:#181818;stroke-width:0.4000000000000001;" width="4" x="323.4" y="485.9109"/><rect fill="#FFFFFF" height="169.3391" style="stroke:#181818;stroke-width:0.4000000000000001;" width="4" x="419.8" y="69.5633"/><rect fill="#FFFFFF" height="58.6211" style="stroke:#181818;stroke-width:0.4000000000000001;" width="4" x="527" y="297.5234"/><rect fill="#FFFFFF" height="61.4211" style="stroke:#181818;stroke-width:0.4000000000000001;" width="4" x="640.8" y="401.0414"/><rect fill="#FFFFFF" height="58.6211" style="stroke:#181818;stroke-width:0.4000000000000001;" width="4" x="737.6" y="81.2875"/><rect fill="#FFFFFF" height="58.6211" style="stroke:#181818;stroke-width:0.4000000000000001;" width="4" x="737.6" y="168.557"/><rect fill="#FFFFFF" height="35.1727" style="stroke:#181818;stroke-width:0.4000000000000001;" width="4" x="846" y="93.0117"/><rect fill="#FFFFFF" height="35.1727" style="stroke:#181818;stroke-width:0.4000000000000001;" width="4" x="846" y="180.2813"/><rect fill="#FFFFFF" height="35.1727" style="stroke:#181818;stroke-width:0.4000000000000001;" width="4" x="906.6" y="309.2477"/><rect fill="#FFFFFF" height="35.1727" style="stroke:#181818;stroke-width:0.4000000000000001;" width="4" x="967.8" y="412.7656"/><rect fill="#FFFFFF" height="11.7242" style="stroke:#181818;stroke-width:0.4000000000000001;" width="4" x="1033" y="104.7359"/><rect fill="#FFFFFF" height="11.7242" style="stroke:#181818;stroke-width:0.4000000000000001;" width="4" x="1033" y="192.0055"/><rect fill="#FFFFFF" height="11.7242" style="stroke:#181818;stroke-width:0.4000000000000001;" width="4" x="1100.4" y="320.9719"/><rect fill="#FFFFFF" height="11.7242" style="stroke:#181818;stroke-width:0.4000000000000001;" width="4" x="1168.4" y="424.4898"/><polygon fill="#181818" points="157.4,44.5148,161.4,46.1148,157.4,47.7148,159,46.1148" style="stroke:#181818;stroke-width:0.4000000000000001;"/><line style="stroke:#181818;stroke-width:0.4000000000000001;" x1="30.6" x2="159.8" y1="46.1148" y2="46.1148"/><text fill="#000000" font-family="sans-serif" font-size="5.2" font-weight="bold" lengthAdjust="spacing" textLength="3.6" x="33.4" y="44.218">1</text><text fill="#000000" font-family="sans-serif" font-size="5.2" lengthAdjust="spacing" textLength="114.4" x="38.6" y="44.218">asks to order the candidates of a job opening</text><polygon fill="#181818" points="318.6,56.2391,322.6,57.8391,318.6,59.4391,320.2,57.8391" style="stroke:#181818;stroke-width:0.4000000000000001;"/><line style="stroke:#181818;stroke-width:0.4000000000000001;" x1="166.2" x2="321" y1="57.8391" y2="57.8391"/><text fill="#000000" font-family="sans-serif" font-size="5.2" font-weight="bold" lengthAdjust="spacing" textLength="3.6" x="169" y="55.9422">2</text><text fill="#000000" font-family="sans-serif" font-size="5.2" lengthAdjust="spacing" textLength="47.2" x="174.2" y="55.9422">selectJobOpening()</text><polygon fill="#181818" points="415,67.9633,419,69.5633,415,71.1633,416.6,69.5633" style="stroke:#181818;stroke-width:0.4000000000000001;"/><line style="stroke:#181818;stroke-width:0.4000000000000001;" x1="327.4" x2="417.4" y1="69.5633" y2="69.5633"/><text fill="#000000" font-family="sans-serif" font-size="5.2" font-weight="bold" lengthAdjust="spacing" textLength="3.6" x="330.2" y="67.6664">3</text><text fill="#000000" font-family="sans-serif" font-size="5.2" lengthAdjust="spacing" textLength="47.2" x="335.4" y="67.6664">selectJobOpening()</text><polygon fill="#181818" points="732.8,79.6875,736.8,81.2875,732.8,82.8875,734.4,81.2875" style="stroke:#181818;stroke-width:0.4000000000000001;"/><line style="stroke:#181818;stroke-width:0.4000000000000001;" x1="423.8" x2="735.2" y1="81.2875" y2="81.2875"/><text fill="#000000" font-family="sans-serif" font-size="5.2" font-weight="bold" lengthAdjust="spacing" textLength="3.6" x="426.6" y="79.3906">4</text><text fill="#000000" font-family="sans-serif" font-size="5.2" lengthAdjust="spacing" textLength="48.4" x="431.8" y="79.3906">showJobOpenings()</text><polygon fill="#181818" points="841.2,91.4117,845.2,93.0117,841.2,94.6117,842.8,93.0117" style="stroke:#181818;stroke-width:0.4000000000000001;"/><line style="stroke:#181818;stroke-width:0.4000000000000001;" x1="741.6" x2="843.6" y1="93.0117" y2="93.0117"/><text fill="#000000" font-family="sans-serif" font-size="5.2" font-weight="bold" lengthAdjust="spacing" textLength="3.6" x="744.4" y="91.1148">5</text><text fill="#000000" font-family="sans-serif" font-size="5.2" lengthAdjust="spacing" textLength="41.2" x="749.6" y="91.1148">allJobOpenings()</text><polygon fill="#181818" points="1028.2,103.1359,1032.2,104.7359,1028.2,106.3359,1029.8,104.7359" style="stroke:#181818;stroke-width:0.4000000000000001;"/><line style="stroke:#181818;stroke-width:0.4000000000000001;" x1="850" x2="1030.6" y1="104.7359" y2="104.7359"/><text fill="#000000" font-family="sans-serif" font-size="5.2" font-weight="bold" lengthAdjust="spacing" textLength="3.6" x="852.8" y="102.8391">6</text><text fill="#000000" font-family="sans-serif" font-size="5.2" lengthAdjust="spacing" textLength="20" x="858" y="102.8391">findAll()</text><polygon fill="#181818" points="854.4,114.8602,850.4,116.4602,854.4,118.0602,852.8,116.4602" style="stroke:#181818;stroke-width:0.4000000000000001;"/><line style="stroke:#181818;stroke-width:0.4000000000000001;stroke-dasharray:2.0,2.0;" x1="852" x2="1034.6" y1="116.4602" y2="116.4602"/><text fill="#000000" font-family="sans-serif" font-size="5.2" font-weight="bold" lengthAdjust="spacing" textLength="3.6" x="856.8" y="114.5633">7</text><text fill="#000000" font-family="sans-serif" font-size="5.2" lengthAdjust="spacing" textLength="89.6" x="862" y="114.5633">Iterable&lt;JobOpening&gt; jobOpenings</text><polygon fill="#181818" points="746,126.5844,742,128.1844,746,129.7844,744.4,128.1844" style="stroke:#181818;stroke-width:0.4000000000000001;"/><line style="stroke:#181818;stroke-width:0.4000000000000001;stroke-dasharray:2.0,2.0;" x1="743.6" x2="847.6" y1="128.1844" y2="128.1844"/><text fill="#000000" font-family="sans-serif" font-size="5.2" font-weight="bold" lengthAdjust="spacing" textLength="3.6" x="748.4" y="126.2875">8</text><text fill="#000000" font-family="sans-serif" font-size="5.2" lengthAdjust="spacing" textLength="89.6" x="753.6" y="126.2875">Iterable&lt;JobOpening&gt; jobOpenings</text><polygon fill="#181818" points="428.2,138.3086,424.2,139.9086,428.2,141.5086,426.6,139.9086" style="stroke:#181818;stroke-width:0.4000000000000001;"/><line style="stroke:#181818;stroke-width:0.4000000000000001;stroke-dasharray:2.0,2.0;" x1="425.8" x2="739.2" y1="139.9086" y2="139.9086"/><text fill="#000000" font-family="sans-serif" font-size="5.2" font-weight="bold" lengthAdjust="spacing" textLength="3.6" x="430.6" y="138.0117">9</text><text fill="#000000" font-family="sans-serif" font-size="5.2" lengthAdjust="spacing" textLength="89.6" x="435.8" y="138.0117">Iterable&lt;JobOpening&gt; jobOpenings</text><line style="stroke:#181818;stroke-width:0.4000000000000001;" x1="423.8" x2="440.6" y1="151.6328" y2="151.6328"/><line style="stroke:#181818;stroke-width:0.4000000000000001;" x1="440.6" x2="440.6" y1="151.6328" y2="156.8328"/><line style="stroke:#181818;stroke-width:0.4000000000000001;" x1="424.2" x2="440.6" y1="156.8328" y2="156.8328"/><polygon fill="#181818" points="428.2,155.2328,424.2,156.8328,428.2,158.4328,426.6,156.8328" style="stroke:#181818;stroke-width:0.4000000000000001;"/><text fill="#000000" font-family="sans-serif" font-size="5.2" font-weight="bold" lengthAdjust="spacing" textLength="7.2" x="426.6" y="149.7359">10</text><text fill="#000000" font-family="sans-serif" font-size="5.2" lengthAdjust="spacing" textLength="88.8" x="435.4" y="149.7359">selectorPart(List&lt;JobOpening&gt; list)</text><polygon fill="#181818" points="732.8,166.957,736.8,168.557,732.8,170.157,734.4,168.557" style="stroke:#181818;stroke-width:0.4000000000000001;"/><line style="stroke:#181818;stroke-width:0.4000000000000001;" x1="423.8" x2="735.2" y1="168.557" y2="168.557"/><text fill="#000000" font-family="sans-serif" font-size="5.2" font-weight="bold" lengthAdjust="spacing" textLength="7.2" x="426.6" y="166.6602">11</text><text fill="#000000" font-family="sans-serif" font-size="5.2" lengthAdjust="spacing" textLength="112.8" x="435.4" y="166.6602">findJobOpeningByJobReference(jobReference)</text><polygon fill="#181818" points="841.2,178.6813,845.2,180.2813,841.2,181.8813,842.8,180.2813" style="stroke:#181818;stroke-width:0.4000000000000001;"/><line style="stroke:#181818;stroke-width:0.4000000000000001;" x1="741.6" x2="843.6" y1="180.2813" y2="180.2813"/><text fill="#000000" font-family="sans-serif" font-size="5.2" font-weight="bold" lengthAdjust="spacing" textLength="7.2" x="744.4" y="178.3844">12</text><text fill="#000000" font-family="sans-serif" font-size="5.2" lengthAdjust="spacing" textLength="74.8" x="753.2" y="178.3844">findJobOpening(jobReference)</text><polygon fill="#181818" points="1028.2,190.4055,1032.2,192.0055,1028.2,193.6055,1029.8,192.0055" style="stroke:#181818;stroke-width:0.4000000000000001;"/><line style="stroke:#181818;stroke-width:0.4000000000000001;" x1="850" x2="1030.6" y1="192.0055" y2="192.0055"/><text fill="#000000" font-family="sans-serif" font-size="5.2" font-weight="bold" lengthAdjust="spacing" textLength="7.2" x="852.8" y="190.1086">13</text><text fill="#000000" font-family="sans-serif" font-size="5.2" lengthAdjust="spacing" textLength="20" x="861.6" y="190.1086">findAll()</text><polygon fill="#181818" points="854.4,202.1297,850.4,203.7297,854.4,205.3297,852.8,203.7297" style="stroke:#181818;stroke-width:0.4000000000000001;"/><line style="stroke:#181818;stroke-width:0.4000000000000001;stroke-dasharray:2.0,2.0;" x1="852" x2="1034.6" y1="203.7297" y2="203.7297"/><text fill="#000000" font-family="sans-serif" font-size="5.2" font-weight="bold" lengthAdjust="spacing" textLength="7.2" x="856.8" y="201.8328">14</text><text fill="#000000" font-family="sans-serif" font-size="5.2" lengthAdjust="spacing" textLength="89.6" x="865.6" y="201.8328">Iterable&lt;JobOpening&gt; jobOpenings</text><polygon fill="#181818" points="746,213.8539,742,215.4539,746,217.0539,744.4,215.4539" style="stroke:#181818;stroke-width:0.4000000000000001;"/><line style="stroke:#181818;stroke-width:0.4000000000000001;stroke-dasharray:2.0,2.0;" x1="743.6" x2="847.6" y1="215.4539" y2="215.4539"/><text fill="#000000" font-family="sans-serif" font-size="5.2" font-weight="bold" lengthAdjust="spacing" textLength="7.2" x="748.4" y="213.557">15</text><text fill="#000000" font-family="sans-serif" font-size="5.2" lengthAdjust="spacing" textLength="30" x="757.2" y="213.557">job opening</text><polygon fill="#181818" points="428.2,225.5781,424.2,227.1781,428.2,228.7781,426.6,227.1781" style="stroke:#181818;stroke-width:0.4000000000000001;"/><line style="stroke:#181818;stroke-width:0.4000000000000001;stroke-dasharray:2.0,2.0;" x1="425.8" x2="739.2" y1="227.1781" y2="227.1781"/><text fill="#000000" font-family="sans-serif" font-size="5.2" font-weight="bold" lengthAdjust="spacing" textLength="7.2" x="430.6" y="225.2813">16</text><text fill="#000000" font-family="sans-serif" font-size="5.2" lengthAdjust="spacing" textLength="30" x="439.4" y="225.2813">job opening</text><polygon fill="#181818" points="331.8,237.3023,327.8,238.9023,331.8,240.5023,330.2,238.9023" style="stroke:#181818;stroke-width:0.4000000000000001;"/><line style="stroke:#181818;stroke-width:0.4000000000000001;stroke-dasharray:2.0,2.0;" x1="329.4" x2="421.4" y1="238.9023" y2="238.9023"/><text fill="#000000" font-family="sans-serif" font-size="5.2" font-weight="bold" lengthAdjust="spacing" textLength="7.2" x="334.2" y="237.0055">17</text><text fill="#000000" font-family="sans-serif" font-size="5.2" lengthAdjust="spacing" textLength="30" x="343" y="237.0055">job opening</text><polygon fill="#181818" points="170.6,249.0266,166.6,250.6266,170.6,252.2266,169,250.6266" style="stroke:#181818;stroke-width:0.4000000000000001;"/><line style="stroke:#181818;stroke-width:0.4000000000000001;stroke-dasharray:2.0,2.0;" x1="168.2" x2="325" y1="250.6266" y2="250.6266"/><text fill="#000000" font-family="sans-serif" font-size="5.2" font-weight="bold" lengthAdjust="spacing" textLength="7.2" x="173" y="248.7297">18</text><text fill="#000000" font-family="sans-serif" font-size="5.2" lengthAdjust="spacing" textLength="30" x="181.8" y="248.7297">job opening</text><polygon fill="#181818" points="35,260.7508,31,262.3508,35,263.9508,33.4,262.3508" style="stroke:#181818;stroke-width:0.4000000000000001;"/><line style="stroke:#181818;stroke-width:0.4000000000000001;" x1="32.6" x2="163.8" y1="262.3508" y2="262.3508"/><text fill="#000000" font-family="sans-serif" font-size="5.2" font-weight="bold" lengthAdjust="spacing" textLength="7.2" x="37.4" y="260.4539">19</text><text fill="#000000" font-family="sans-serif" font-size="5.2" lengthAdjust="spacing" textLength="113.2" x="46.2" y="260.4539">shows all job opening and asks to select one</text><polygon fill="#181818" points="157.4,272.475,161.4,274.075,157.4,275.675,159,274.075" style="stroke:#181818;stroke-width:0.4000000000000001;"/><line style="stroke:#181818;stroke-width:0.4000000000000001;" x1="30.6" x2="159.8" y1="274.075" y2="274.075"/><text fill="#000000" font-family="sans-serif" font-size="5.2" font-weight="bold" lengthAdjust="spacing" textLength="7.2" x="33.4" y="272.1781">20</text><text fill="#000000" font-family="sans-serif" font-size="5.2" lengthAdjust="spacing" textLength="49.2" x="42.2" y="272.1781">selects job opening</text><polygon fill="#181818" points="318.6,284.1992,322.6,285.7992,318.6,287.3992,320.2,285.7992" style="stroke:#181818;stroke-width:0.4000000000000001;"/><line style="stroke:#181818;stroke-width:0.4000000000000001;" x1="166.2" x2="321" y1="285.7992" y2="285.7992"/><text fill="#000000" font-family="sans-serif" font-size="5.2" font-weight="bold" lengthAdjust="spacing" textLength="7.2" x="169" y="283.9023">21</text><text fill="#000000" font-family="sans-serif" font-size="5.2" lengthAdjust="spacing" textLength="140.8" x="177.8" y="283.9023">allApplicationsOfJobOpening(jobOpening.jobReference()</text><polygon fill="#181818" points="522.2,295.9234,526.2,297.5234,522.2,299.1234,523.8,297.5234" style="stroke:#181818;stroke-width:0.4000000000000001;"/><line style="stroke:#181818;stroke-width:0.4000000000000001;" x1="327.4" x2="524.6" y1="297.5234" y2="297.5234"/><text fill="#000000" font-family="sans-serif" font-size="5.2" font-weight="bold" lengthAdjust="spacing" textLength="7.2" x="330.2" y="295.6266">22</text><text fill="#000000" font-family="sans-serif" font-size="5.2" lengthAdjust="spacing" textLength="40.8" x="339" y="295.6266">allApplications()</text><polygon fill="#181818" points="901.8,307.6477,905.8,309.2477,901.8,310.8477,903.4,309.2477" style="stroke:#181818;stroke-width:0.4000000000000001;"/><line style="stroke:#181818;stroke-width:0.4000000000000001;" x1="531" x2="904.2" y1="309.2477" y2="309.2477"/><text fill="#000000" font-family="sans-serif" font-size="5.2" font-weight="bold" lengthAdjust="spacing" textLength="7.2" x="533.8" y="307.3508">23</text><text fill="#000000" font-family="sans-serif" font-size="5.2" lengthAdjust="spacing" textLength="40.8" x="542.6" y="307.3508">allApplications()</text><polygon fill="#181818" points="1095.6,319.3719,1099.6,320.9719,1095.6,322.5719,1097.2,320.9719" style="stroke:#181818;stroke-width:0.4000000000000001;"/><line style="stroke:#181818;stroke-width:0.4000000000000001;" x1="910.6" x2="1098" y1="320.9719" y2="320.9719"/><text fill="#000000" font-family="sans-serif" font-size="5.2" font-weight="bold" lengthAdjust="spacing" textLength="7.2" x="913.4" y="319.075">24</text><text fill="#000000" font-family="sans-serif" font-size="5.2" lengthAdjust="spacing" textLength="40.8" x="922.2" y="319.075">allApplications()</text><polygon fill="#181818" points="915,331.0961,911,332.6961,915,334.2961,913.4,332.6961" style="stroke:#181818;stroke-width:0.4000000000000001;"/><line style="stroke:#181818;stroke-width:0.4000000000000001;stroke-dasharray:2.0,2.0;" x1="912.6" x2="1102" y1="332.6961" y2="332.6961"/><text fill="#000000" font-family="sans-serif" font-size="5.2" font-weight="bold" lengthAdjust="spacing" textLength="7.2" x="917.4" y="330.7992">25</text><text fill="#000000" font-family="sans-serif" font-size="5.2" lengthAdjust="spacing" textLength="94.8" x="926.2" y="330.7992">Iterable&lt;Application&gt; allApplications</text><polygon fill="#181818" points="535.4,342.8203,531.4,344.4203,535.4,346.0203,533.8,344.4203" style="stroke:#181818;stroke-width:0.4000000000000001;"/><line style="stroke:#181818;stroke-width:0.4000000000000001;stroke-dasharray:2.0,2.0;" x1="533" x2="908.2" y1="344.4203" y2="344.4203"/><text fill="#000000" font-family="sans-serif" font-size="5.2" font-weight="bold" lengthAdjust="spacing" textLength="7.2" x="537.8" y="342.5234">26</text><text fill="#000000" font-family="sans-serif" font-size="5.2" lengthAdjust="spacing" textLength="94.8" x="546.6" y="342.5234">Iterable&lt;Application&gt; allApplications</text><polygon fill="#181818" points="331.8,354.5445,327.8,356.1445,331.8,357.7445,330.2,356.1445" style="stroke:#181818;stroke-width:0.4000000000000001;"/><line style="stroke:#181818;stroke-width:0.4000000000000001;stroke-dasharray:2.0,2.0;" x1="329.4" x2="528.6" y1="356.1445" y2="356.1445"/><text fill="#000000" font-family="sans-serif" font-size="5.2" font-weight="bold" lengthAdjust="spacing" textLength="7.2" x="334.2" y="354.2477">27</text><text fill="#000000" font-family="sans-serif" font-size="5.2" lengthAdjust="spacing" textLength="94.4" x="343" y="354.2477">Iterable&lt;Application&gt; applicationList</text><polygon fill="#181818" points="170.6,366.2688,166.6,367.8688,170.6,369.4688,169,367.8688" style="stroke:#181818;stroke-width:0.4000000000000001;"/><line style="stroke:#181818;stroke-width:0.4000000000000001;stroke-dasharray:2.0,2.0;" x1="168.2" x2="325" y1="367.8688" y2="367.8688"/><text fill="#000000" font-family="sans-serif" font-size="5.2" font-weight="bold" lengthAdjust="spacing" textLength="7.2" x="173" y="365.9719">28</text><text fill="#000000" font-family="sans-serif" font-size="5.2" lengthAdjust="spacing" textLength="94.4" x="181.8" y="365.9719">Iterable&lt;Application&gt; applicationList</text><polygon fill="#181818" points="318.6,377.993,322.6,379.593,318.6,381.193,320.2,379.593" style="stroke:#181818;stroke-width:0.4000000000000001;"/><line style="stroke:#181818;stroke-width:0.4000000000000001;" x1="166.2" x2="321" y1="379.593" y2="379.593"/><text fill="#000000" font-family="sans-serif" font-size="5.2" font-weight="bold" lengthAdjust="spacing" textLength="7.2" x="169" y="377.6961">29</text><text fill="#000000" font-family="sans-serif" font-size="5.2" lengthAdjust="spacing" textLength="68.8" x="177.8" y="377.6961">orderedList(applicationList)</text><path d="M270,385.593 L299.6,385.593 L299.6,388.5172 L295.6,392.5172 L270,392.5172 L270,385.593 " fill="#EEEEEE" style="stroke:#000000;stroke-width:0.6000000000000001;"/><rect fill="none" height="65.5453" style="stroke:#000000;stroke-width:0.6000000000000001;" width="937" x="270" y="385.593"/><text fill="#000000" font-family="sans-serif" font-size="5.2" font-weight="bold" lengthAdjust="spacing" textLength="11.6" x="276" y="391.0203">loop</text><text fill="#000000" font-family="sans-serif" font-size="4.4" font-weight="bold" lengthAdjust="spacing" textLength="88.4" x="305.6" y="390.6469">[for each application in applicationList]</text><polygon fill="#181818" points="636,399.4414,640,401.0414,636,402.6414,637.6,401.0414" style="stroke:#181818;stroke-width:0.4000000000000001;"/><line style="stroke:#181818;stroke-width:0.4000000000000001;" x1="327.4" x2="638.4" y1="401.0414" y2="401.0414"/><text fill="#000000" font-family="sans-serif" font-size="5.2" font-weight="bold" lengthAdjust="spacing" textLength="7.2" x="330.2" y="399.1445">30</text><text fill="#000000" font-family="sans-serif" font-size="5.2" lengthAdjust="spacing" textLength="105.6" x="339" y="399.1445">allJobInterviewsOfApplication(application)</text><polygon fill="#181818" points="963,411.1656,967,412.7656,963,414.3656,964.6,412.7656" style="stroke:#181818;stroke-width:0.4000000000000001;"/><line style="stroke:#181818;stroke-width:0.4000000000000001;" x1="644.8" x2="965.4" y1="412.7656" y2="412.7656"/><text fill="#000000" font-family="sans-serif" font-size="5.2" font-weight="bold" lengthAdjust="spacing" textLength="7.2" x="647.6" y="410.8688">31</text><text fill="#000000" font-family="sans-serif" font-size="5.2" lengthAdjust="spacing" textLength="42.8" x="656.4" y="410.8688">allJobInterviews()</text><polygon fill="#181818" points="1163.6,422.8898,1167.6,424.4898,1163.6,426.0898,1165.2,424.4898" style="stroke:#181818;stroke-width:0.4000000000000001;"/><line style="stroke:#181818;stroke-width:0.4000000000000001;" x1="971.8" x2="1166" y1="424.4898" y2="424.4898"/><text fill="#000000" font-family="sans-serif" font-size="5.2" font-weight="bold" lengthAdjust="spacing" textLength="7.2" x="974.6" y="422.593">32</text><text fill="#000000" font-family="sans-serif" font-size="5.2" lengthAdjust="spacing" textLength="42.8" x="983.4" y="422.593">allJobInterviews()</text><polygon fill="#181818" points="976.2,434.6141,972.2,436.2141,976.2,437.8141,974.6,436.2141" style="stroke:#181818;stroke-width:0.4000000000000001;"/><line style="stroke:#181818;stroke-width:0.4000000000000001;stroke-dasharray:2.0,2.0;" x1="973.8" x2="1170" y1="436.2141" y2="436.2141"/><text fill="#000000" font-family="sans-serif" font-size="5.2" font-weight="bold" lengthAdjust="spacing" textLength="7.2" x="978.6" y="434.3172">33</text><text fill="#000000" font-family="sans-serif" font-size="5.2" lengthAdjust="spacing" textLength="72.8" x="987.4" y="434.3172">all JobInterviews' Application</text><polygon fill="#181818" points="649.2,446.3383,645.2,447.9383,649.2,449.5383,647.6,447.9383" style="stroke:#181818;stroke-width:0.4000000000000001;"/><line style="stroke:#181818;stroke-width:0.4000000000000001;stroke-dasharray:2.0,2.0;" x1="646.8" x2="969.4" y1="447.9383" y2="447.9383"/><text fill="#000000" font-family="sans-serif" font-size="5.2" font-weight="bold" lengthAdjust="spacing" textLength="7.2" x="651.6" y="446.0414">34</text><text fill="#000000" font-family="sans-serif" font-size="5.2" lengthAdjust="spacing" textLength="72.8" x="660.4" y="446.0414">all JobInterviews' Application</text><polygon fill="#181818" points="331.8,460.8625,327.8,462.4625,331.8,464.0625,330.2,462.4625" style="stroke:#181818;stroke-width:0.4000000000000001;"/><line style="stroke:#181818;stroke-width:0.4000000000000001;stroke-dasharray:2.0,2.0;" x1="329.4" x2="642.4" y1="462.4625" y2="462.4625"/><text fill="#000000" font-family="sans-serif" font-size="5.2" font-weight="bold" lengthAdjust="spacing" textLength="7.2" x="334.2" y="460.5656">35</text><text fill="#000000" font-family="sans-serif" font-size="5.2" lengthAdjust="spacing" textLength="87.6" x="343" y="460.5656">Iterable&lt;JobInterview&gt; orderedList</text><polygon fill="#181818" points="170.6,472.5867,166.6,474.1867,170.6,475.7867,169,474.1867" style="stroke:#181818;stroke-width:0.4000000000000001;"/><line style="stroke:#181818;stroke-width:0.4000000000000001;stroke-dasharray:2.0,2.0;" x1="168.2" x2="325" y1="474.1867" y2="474.1867"/><text fill="#000000" font-family="sans-serif" font-size="5.2" font-weight="bold" lengthAdjust="spacing" textLength="7.2" x="173" y="472.2898">36</text><text fill="#000000" font-family="sans-serif" font-size="5.2" lengthAdjust="spacing" textLength="87.6" x="181.8" y="472.2898">Iterable&lt;JobInterview&gt; orderedList</text><polygon fill="#181818" points="318.6,484.3109,322.6,485.9109,318.6,487.5109,320.2,485.9109" style="stroke:#181818;stroke-width:0.4000000000000001;"/><line style="stroke:#181818;stroke-width:0.4000000000000001;" x1="166.2" x2="321" y1="485.9109" y2="485.9109"/><text fill="#000000" font-family="sans-serif" font-size="5.2" font-weight="bold" lengthAdjust="spacing" textLength="7.2" x="169" y="484.0141">37</text><text fill="#000000" font-family="sans-serif" font-size="5.2" lengthAdjust="spacing" textLength="68.8" x="177.8" y="484.0141">applicationList(orderedList)</text><polygon fill="#181818" points="170.6,496.0352,166.6,497.6352,170.6,499.2352,169,497.6352" style="stroke:#181818;stroke-width:0.4000000000000001;"/><line style="stroke:#181818;stroke-width:0.4000000000000001;stroke-dasharray:2.0,2.0;" x1="168.2" x2="325" y1="497.6352" y2="497.6352"/><text fill="#000000" font-family="sans-serif" font-size="5.2" font-weight="bold" lengthAdjust="spacing" textLength="7.2" x="173" y="495.7383">38</text><text fill="#000000" font-family="sans-serif" font-size="5.2" lengthAdjust="spacing" textLength="40" x="181.8" y="495.7383">applicationsList</text><polygon fill="#181818" points="35,507.7594,31,509.3594,35,510.9594,33.4,509.3594" style="stroke:#181818;stroke-width:0.4000000000000001;"/><line style="stroke:#181818;stroke-width:0.4000000000000001;stroke-dasharray:2.0,2.0;" x1="32.6" x2="161.8" y1="509.3594" y2="509.3594"/><text fill="#000000" font-family="sans-serif" font-size="5.2" font-weight="bold" lengthAdjust="spacing" textLength="7.2" x="37.4" y="507.4625">39</text><text fill="#000000" font-family="sans-serif" font-size="5.2" lengthAdjust="spacing" textLength="48" x="46.2" y="507.4625">display orderedList</text><!--SRC=[lPZDRjmW4CVlF0MtRWxR1uYYbTASKhNQAb4VWBLnGkg01IHHthvGT-t1vjDsujDwFSFym3D_1fCNBVZByubAX4YbXSGtBqgBPof_4auUxDyTaPfLh2DSuwEigQJr3wRqiRaXl6OrqLJzliLNLvsaYd9DD1FySCXnkn5SIz6sL1htQhYPED_JbbRwkpWTEyePVyZpih56d-kkQrdr3qqL-TzoJUKhesyA3B648Eo3t2KUNUvjv8eQUzN_cWG0H2bJE1EVBJBlWvo8eY3y7Us4OYObtesf76wCzM0C23Ai8KJOtAOXUpNfCSz4t5-J__7-4CdBIqpK7uMrmCBQOFr8SJKOOD5WWf_42Oj-qkSOzXf0WgEVhQ6NlS8uOLQG89TOJN9-Tp4DaO8RXmj1Ha01Ym6E560EgKCR7Yk6QQy8XM4C5fiXV1HluoFb1tGWGuEb4EqL136Gyz8ssTcsMN0Eu6oW739xpGaSB52LbxXXlBvkspXI06iSA9VCfGCW-y32tHeb8QUMNeqF3xQIpqkP2bZJJRWzAnfFnpNSNkQ250WdPwhCbr83ugLL5I_y374IyfVP2dSsleFVcZykSfPjiVJO4XeVVNitl-zeOnINLtJt16xoodwDBYtH9XS_7tWRhVemlTfKipvTjpRKhaNw5MYMFaAkrabM9kW7ArHcmvU01P3BEgYCHY_HHaS80TtYRZJQCayx_hwfKxPvWbpOk0tjVg_zM72AYb1DLuyMd3BwSCfP9fHvYa2RdHlCWi2Zxh5nvVl_pwzGoO5U5hn5L7I2o3gCp-WD6KhiWVwX40ehI22uWVGSftr8tbraxejcLUWPtutgx6RnmA7WO0_mYfK_sZuq-s6l0ayFKpGK4Qi06agjItxEv25cCdhVNLx-P1Pe07UyiTvk_E06bPFywtM_aBXeBq1RVZCHeyrkWkSJaWowLeWEDq9YCwT7E6NCUFoTbQXYwXFZ-Hl1Q7TiW2MSwmL2iOD38f8txLDqVPSx-xWuXzw5u3pkhgLl_4dOgNIMHmufPo3AFZPlvudw0XKcMDgbB50gYp9fBTpmYgXfjco5V7xAvGY2Uz0QXZn0cKZfR17yIgLTnLkcjAkbTY9zEu0uAJMy5763ZGjGgldghLY-sFfv3oirKrrBtfrN-HS0]--></g></svg>