<?xml version="1.0" encoding="us-ascii" standalone="no"?><svg xmlns="http://www.w3.org/2000/svg" xmlns:xlink="http://www.w3.org/1999/xlink" contentStyleType="text/css" height="450px" preserveAspectRatio="none" style="width:871px;height:450px;background:#FFFFFF;" version="1.1" viewBox="0 0 871 450" width="871px" zoomAndPan="magnify"><defs/><g><!--class GenerateRequirementsSpecificationUI--><g id="elem_GenerateRequirementsSpecificationUI"><rect codeLine="4" fill="#F1F1F1" height="80.9766" id="GenerateRequirementsSpecificationUI" rx="2.5" ry="2.5" style="stroke:#181818;stroke-width:0.5;" width="290" x="7" y="39.98"/><ellipse cx="22" cy="55.98" fill="#ADD1B2" rx="11" ry="11" style="stroke:#181818;stroke-width:1.0;"/><path d="M24.9731,61.6231 Q24.3921,61.9219 23.7529,62.0713 Q23.1138,62.2207 22.4082,62.2207 Q19.9014,62.2207 18.5815,60.5689 Q17.2617,58.917 17.2617,55.7959 Q17.2617,52.6665 18.5815,51.0147 Q19.9014,49.3628 22.4082,49.3628 Q23.1138,49.3628 23.7612,49.5122 Q24.4087,49.6616 24.9731,49.9605 L24.9731,52.6831 Q24.3423,52.1021 23.7488,51.8323 Q23.1553,51.5625 22.5244,51.5625 Q21.1797,51.5625 20.4949,52.6292 Q19.8101,53.6958 19.8101,55.7959 Q19.8101,57.8877 20.4949,58.9544 Q21.1797,60.021 22.5244,60.021 Q23.1553,60.021 23.7488,59.7512 Q24.3423,59.4815 24.9731,58.9004 Z " fill="#000000"/><text fill="#000000" font-family="sans-serif" font-size="14" lengthAdjust="spacing" textLength="258" x="36" y="61.271">GenerateRequirementsSpecificationUI</text><line style="stroke:#181818;stroke-width:0.5;" x1="8" x2="296" y1="71.98" y2="71.98"/><line style="stroke:#181818;stroke-width:0.5;" x1="8" x2="296" y1="79.98" y2="79.98"/><text fill="#000000" font-family="sans-serif" font-size="14" lengthAdjust="spacing" textLength="76" x="13" y="97.5152">+doShow()</text><text fill="#000000" font-family="sans-serif" font-size="14" lengthAdjust="spacing" textLength="80" x="13" y="114.0034">+headline()</text></g><!--class GenerateRequirementsSpecificationController--><g id="elem_GenerateRequirementsSpecificationController"><rect codeLine="10" fill="#F1F1F1" height="146.9297" id="GenerateRequirementsSpecificationController" rx="2.5" ry="2.5" style="stroke:#181818;stroke-width:0.5;" width="465" x="331.5" y="7"/><ellipse cx="402.75" cy="23" fill="#ADD1B2" rx="11" ry="11" style="stroke:#181818;stroke-width:1.0;"/><path d="M405.7231,28.6431 Q405.1421,28.9419 404.5029,29.0913 Q403.8638,29.2407 403.1582,29.2407 Q400.6514,29.2407 399.3315,27.5889 Q398.0117,25.937 398.0117,22.8159 Q398.0117,19.6865 399.3315,18.0347 Q400.6514,16.3828 403.1582,16.3828 Q403.8638,16.3828 404.5112,16.5322 Q405.1587,16.6816 405.7231,16.9805 L405.7231,19.7031 Q405.0923,19.1221 404.4988,18.8523 Q403.9053,18.5825 403.2744,18.5825 Q401.9297,18.5825 401.2449,19.6492 Q400.5601,20.7158 400.5601,22.8159 Q400.5601,24.9077 401.2449,25.9744 Q401.9297,27.041 403.2744,27.041 Q403.9053,27.041 404.4988,26.7712 Q405.0923,26.5015 405.7231,25.9204 Z " fill="#000000"/><text fill="#000000" font-family="sans-serif" font-size="14" lengthAdjust="spacing" textLength="314" x="423.25" y="28.291">GenerateRequirementsSpecificationController</text><line style="stroke:#181818;stroke-width:0.5;" x1="332.5" x2="795.5" y1="39" y2="39"/><line style="stroke:#181818;stroke-width:0.5;" x1="332.5" x2="795.5" y1="47" y2="47"/><text fill="#000000" font-family="sans-serif" font-size="14" lengthAdjust="spacing" textLength="158" x="337.5" y="64.5352">+getAcademicDegree()</text><text fill="#000000" font-family="sans-serif" font-size="14" lengthAdjust="spacing" textLength="184" x="337.5" y="81.0234">+displayAcademicDegree()</text><text fill="#000000" font-family="sans-serif" font-size="14" lengthAdjust="spacing" textLength="211" x="337.5" y="97.5117">+getProgrammingLanguages()</text><text fill="#000000" font-family="sans-serif" font-size="14" lengthAdjust="spacing" textLength="237" x="337.5" y="114">+displayProgrammingLanguages()</text><text fill="#000000" font-family="sans-serif" font-size="14" lengthAdjust="spacing" textLength="453" x="337.5" y="130.4883">+writeListToFile(List&lt;String&gt; requirementsForFile, String filePath)</text><text fill="#000000" font-family="sans-serif" font-size="14" lengthAdjust="spacing" textLength="300" x="337.5" y="146.9766">+readAndProcessProgrammingLanguages()</text></g><!--class JobRequirementsSpecification--><g id="elem_JobRequirementsSpecification"><rect codeLine="21" fill="#F1F1F1" height="229.3711" id="JobRequirementsSpecification" rx="2.5" ry="2.5" style="stroke:#181818;stroke-width:0.5;" width="601" x="263.5" y="213.93"/><ellipse cx="457.75" cy="229.93" fill="#ADD1B2" rx="11" ry="11" style="stroke:#181818;stroke-width:1.0;"/><path d="M460.7231,235.5731 Q460.1421,235.8719 459.5029,236.0213 Q458.8638,236.1707 458.1582,236.1707 Q455.6514,236.1707 454.3315,234.5189 Q453.0117,232.867 453.0117,229.7459 Q453.0117,226.6165 454.3315,224.9647 Q455.6514,223.3128 458.1582,223.3128 Q458.8638,223.3128 459.5112,223.4622 Q460.1587,223.6116 460.7231,223.9105 L460.7231,226.6331 Q460.0923,226.0521 459.4988,225.7823 Q458.9053,225.5125 458.2744,225.5125 Q456.9297,225.5125 456.2449,226.5792 Q455.5601,227.6458 455.5601,229.7459 Q455.5601,231.8377 456.2449,232.9044 Q456.9297,233.971 458.2744,233.971 Q458.9053,233.971 459.4988,233.7012 Q460.0923,233.4315 460.7231,232.8504 Z " fill="#000000"/><text fill="#000000" font-family="sans-serif" font-size="14" lengthAdjust="spacing" textLength="204" x="478.25" y="235.221">JobRequirementsSpecification</text><line style="stroke:#181818;stroke-width:0.5;" x1="264.5" x2="863.5" y1="245.93" y2="245.93"/><text fill="#000000" font-family="sans-serif" font-size="14" lengthAdjust="spacing" textLength="169" x="269.5" y="263.4652">-Integer idRequirements</text><text fill="#000000" font-family="sans-serif" font-size="14" lengthAdjust="spacing" textLength="199" x="269.5" y="279.9534">-Requirements requirements</text><line style="stroke:#181818;stroke-width:0.5;" x1="264.5" x2="863.5" y1="286.9066" y2="286.9066"/><text fill="#000000" font-family="sans-serif" font-size="14" lengthAdjust="spacing" textLength="589" x="269.5" y="304.4417">+JobRequirementsSpecification(Requirements requirements , Integer idRequirements)</text><text fill="#000000" font-family="sans-serif" font-size="14" lengthAdjust="spacing" textLength="225" x="269.5" y="320.93">+JobRequirementsSpecification()</text><text fill="#000000" font-family="sans-serif" font-size="14" lengthAdjust="spacing" textLength="123" x="269.5" y="337.4183">+equals(Object o)</text><text fill="#000000" font-family="sans-serif" font-size="14" lengthAdjust="spacing" textLength="90" x="269.5" y="353.9066">+hashCode()</text><text fill="#000000" font-family="sans-serif" font-size="14" lengthAdjust="spacing" textLength="159" x="269.5" y="370.3948">+sameAs(Object other)</text><text fill="#000000" font-family="sans-serif" font-size="14" lengthAdjust="spacing" textLength="189" x="269.5" y="386.8831">+compareTo(Integer other)</text><text fill="#000000" font-family="sans-serif" font-size="14" lengthAdjust="spacing" textLength="113" x="269.5" y="403.3714">+requirements()</text><text fill="#000000" font-family="sans-serif" font-size="14" lengthAdjust="spacing" textLength="72" x="269.5" y="419.8597">+identity()</text><text fill="#000000" font-family="sans-serif" font-size="14" lengthAdjust="spacing" textLength="257" x="269.5" y="436.348">+hasIdentity(Integer idRequirements)</text></g><!--link GenerateRequirementsSpecificationUI to GenerateRequirementsSpecificationController--><g id="link_GenerateRequirementsSpecificationUI_GenerateRequirementsSpecificationController"><path codeLine="37" d="M297.25,80.46 C308.53,80.46 313.82,80.46 325.11,80.46 " fill="none" id="GenerateRequirementsSpecificationUI-to-GenerateRequirementsSpecificationController" style="stroke:#181818;stroke-width:1.0;"/><polygon fill="#181818" points="331.11,80.46,322.11,76.46,326.11,80.46,322.11,84.46,331.11,80.46" style="stroke:#181818;stroke-width:1.0;"/></g><!--link GenerateRequirementsSpecificationController to JobRequirementsSpecification--><g id="link_GenerateRequirementsSpecificationController_JobRequirementsSpecification"><path codeLine="39" d="M564,154.32 C564,173.03 564,187.61 564,207.86 " fill="none" id="GenerateRequirementsSpecificationController-to-JobRequirementsSpecification" style="stroke:#181818;stroke-width:1.0;"/><polygon fill="#181818" points="564,213.86,568,204.86,564,208.86,560,204.86,564,213.86" style="stroke:#181818;stroke-width:1.0;"/></g><!--SRC=[bLBHJiCm37plL_Yn4vl41w19rT3Gq2GcEZuWJKngQEEIU9h6nB-JTemLYOxnPlVEP-TwuPLSexogGLSgX4p4Kx4HN6XsERqZN2V23GX3mI9SWo6FMeXTadGJS8SElH9ynBTDn6fq4l86DJsJLYtnQR5FaYimd9UyJKUnB56PYXp6vkDYcHaxyLnLw3ivYv9fPR0cVOlM8tRAXa9JgTqlIEIlFDluqfgSNIfdDyfYw4yDubjFWaiAikOvLPYsvKqUdN9s2hvty9nzInZ30OJdsAoKbAs8Zu_Ed8bBD8OmiElanpqNWrRiamaidA153sJwj0Zqsn_7jQwTKqq79s4yi6xqbsHBYA2gGlfGlCJW07S1KA6SiJdycQ1gp4wubEZRpvhh64nSSthS_GtrR-iaoCIIP9T-YI-E_T3PqURaWk32P0h_IUO5eYSoJABwEVUIJm00]--></g></svg>