<?xml version="1.0" encoding="us-ascii" standalone="no"?><svg xmlns="http://www.w3.org/2000/svg" xmlns:xlink="http://www.w3.org/1999/xlink" contentStyleType="text/css" height="619px" preserveAspectRatio="none" style="width:1222px;height:619px;background:#FFFFFF;" version="1.1" viewBox="0 0 1222 619" width="1222px" zoomAndPan="magnify"><defs/><g><text fill="#000000" font-family="sans-serif" font-size="14" font-weight="bold" lengthAdjust="spacing" textLength="341" x="433.5" y="25.1074">Class Diagram - Authentication and Authorization</text><!--cluster presentation--><g id="cluster_presentation"><path d="M38.5,45.6348 L129.5,45.6348 A3.75,3.75 0 0 1 132,48.1348 L139,70.2559 L291.5,70.2559 A2.5,2.5 0 0 1 294,72.7559 L294,200.1348 A2.5,2.5 0 0 1 291.5,202.6348 L38.5,202.6348 A2.5,2.5 0 0 1 36,200.1348 L36,48.1348 A2.5,2.5 0 0 1 38.5,45.6348 " fill="none" style="stroke:#000000;stroke-width:1.5;"/><line style="stroke:#000000;stroke-width:1.5;" x1="36" x2="139" y1="70.2559" y2="70.2559"/><text fill="#000000" font-family="sans-serif" font-size="14" font-weight="bold" lengthAdjust="spacing" textLength="90" x="40" y="62.7422">presentation</text></g><!--cluster authz--><g id="cluster_authz"><path d="M8.5,235.6348 L47.5,235.6348 A3.75,3.75 0 0 1 50,238.1348 L57,260.2559 L1006.5,260.2559 A2.5,2.5 0 0 1 1009,262.7559 L1009,610.1348 A2.5,2.5 0 0 1 1006.5,612.6348 L8.5,612.6348 A2.5,2.5 0 0 1 6,610.1348 L6,238.1348 A2.5,2.5 0 0 1 8.5,235.6348 " fill="none" style="stroke:#000000;stroke-width:1.5;"/><line style="stroke:#000000;stroke-width:1.5;" x1="6" x2="57" y1="260.2559" y2="260.2559"/><text fill="#000000" font-family="sans-serif" font-size="14" font-weight="bold" lengthAdjust="spacing" textLength="38" x="10" y="252.7422">authz</text></g><!--cluster repositories--><g id="cluster_repositories"><path d="M1035.5,291.1348 L1122.5,291.1348 A3.75,3.75 0 0 1 1125,293.6348 L1132,315.7559 L1212.5,315.7559 A2.5,2.5 0 0 1 1215,318.2559 L1215,408.6348 A2.5,2.5 0 0 1 1212.5,411.1348 L1035.5,411.1348 A2.5,2.5 0 0 1 1033,408.6348 L1033,293.6348 A2.5,2.5 0 0 1 1035.5,291.1348 " fill="none" style="stroke:#000000;stroke-width:1.5;"/><line style="stroke:#000000;stroke-width:1.5;" x1="1033" x2="1132" y1="315.7559" y2="315.7559"/><text fill="#000000" font-family="sans-serif" font-size="14" font-weight="bold" lengthAdjust="spacing" textLength="86" x="1037" y="308.2422">repositories</text></g><!--class LoginUI--><g id="elem_LoginUI"><rect codeLine="12" fill="#FFFFFF" height="103.8633" id="LoginUI" rx="2.5" ry="2.5" style="stroke:#000000;stroke-width:0.5;" width="226" x="52" y="82.6348"/><ellipse cx="137.25" cy="98.6348" fill="#ADD1B2" rx="11" ry="11" style="stroke:#181818;stroke-width:1.0;"/><path d="M140.0156,94.5098 Q140.1719,94.291 140.3594,94.1816 Q140.5469,94.0723 140.7656,94.0723 Q141.1406,94.0723 141.375,94.3379 Q141.6094,94.5879 141.6094,95.1973 L141.6094,96.6504 Q141.6094,97.2598 141.375,97.5254 Q141.1406,97.791 140.7656,97.791 Q140.4219,97.791 140.2188,97.5879 Q140.0156,97.4004 139.9063,96.8848 Q139.8594,96.5254 139.6719,96.3379 Q139.3438,95.9629 138.7344,95.7441 Q138.125,95.5254 137.5,95.5254 Q136.7344,95.5254 136.0938,95.8535 Q135.4688,96.1816 134.9688,96.9316 Q134.4844,97.6816 134.4844,98.7129 L134.4844,99.8066 Q134.4844,101.041 135.375,101.8691 Q136.2656,102.6816 137.8594,102.6816 Q138.7969,102.6816 139.4531,102.4316 Q139.8438,102.2754 140.2656,101.8379 Q140.5313,101.5723 140.6719,101.4941 Q140.8281,101.416 141.0313,101.416 Q141.3594,101.416 141.6094,101.6816 Q141.875,101.9316 141.875,102.2754 Q141.875,102.6191 141.5313,103.0254 Q141.0313,103.6035 140.2344,103.9316 Q139.1563,104.3848 137.8594,104.3848 Q136.3438,104.3848 135.1406,103.7598 Q134.1563,103.2598 133.4688,102.1973 Q132.7813,101.1191 132.7813,99.8379 L132.7813,98.6816 Q132.7813,97.3535 133.3906,96.2129 Q134.0156,95.0566 135.1094,94.4473 Q136.2031,93.8223 137.4375,93.8223 Q138.1719,93.8223 138.8125,93.9941 Q139.4688,94.1504 140.0156,94.5098 Z " fill="#000000"/><text fill="#000000" font-family="sans-serif" font-size="14" lengthAdjust="spacing" textLength="47" x="157.75" y="104.4316">LoginUI</text><line style="stroke:#000000;stroke-width:0.5;" x1="53" x2="277" y1="114.6348" y2="114.6348"/><line style="stroke:#000000;stroke-width:0.5;" x1="53" x2="277" y1="122.6348" y2="122.6348"/><ellipse cx="63" cy="137.4453" fill="#84BE84" rx="3" ry="3" style="stroke:#038048;stroke-width:1.0;"/><text fill="#000000" font-family="sans-serif" font-size="14" lengthAdjust="spacing" textLength="200" x="72" y="141.7422">LoginUI(credentialHandler, role)</text><rect fill="#F24D5C" height="6" style="stroke:#C82930;stroke-width:1.0;" width="6" x="60" y="153.0664"/><text fill="#000000" font-family="sans-serif" font-size="14" lengthAdjust="spacing" textLength="60" x="72" y="160.3633">doShow()</text><rect fill="#F24D5C" height="6" style="stroke:#C82930;stroke-width:1.0;" width="6" x="60" y="171.6875"/><text fill="#000000" font-family="sans-serif" font-size="14" lengthAdjust="spacing" textLength="64" x="72" y="178.9844">headline()</text></g><!--class AuthenticationCredentialHandler--><g id="elem_AuthenticationCredentialHandler"><rect codeLine="20" fill="#FFFFFF" height="66.6211" id="AuthenticationCredentialHandler" rx="2.5" ry="2.5" style="stroke:#000000;stroke-width:0.5;" width="285" x="22.5" y="328.1348"/><ellipse cx="59.55" cy="344.1348" fill="#ADD1B2" rx="11" ry="11" style="stroke:#181818;stroke-width:1.0;"/><path d="M62.3156,340.0098 Q62.4719,339.791 62.6594,339.6816 Q62.8469,339.5723 63.0656,339.5723 Q63.4406,339.5723 63.675,339.8379 Q63.9094,340.0879 63.9094,340.6973 L63.9094,342.1504 Q63.9094,342.7598 63.675,343.0254 Q63.4406,343.291 63.0656,343.291 Q62.7219,343.291 62.5188,343.0879 Q62.3156,342.9004 62.2063,342.3848 Q62.1594,342.0254 61.9719,341.8379 Q61.6438,341.4629 61.0344,341.2441 Q60.425,341.0254 59.8,341.0254 Q59.0344,341.0254 58.3938,341.3535 Q57.7688,341.6816 57.2688,342.4316 Q56.7844,343.1816 56.7844,344.2129 L56.7844,345.3066 Q56.7844,346.541 57.675,347.3691 Q58.5656,348.1816 60.1594,348.1816 Q61.0969,348.1816 61.7531,347.9316 Q62.1438,347.7754 62.5656,347.3379 Q62.8313,347.0723 62.9719,346.9941 Q63.1281,346.916 63.3313,346.916 Q63.6594,346.916 63.9094,347.1816 Q64.175,347.4316 64.175,347.7754 Q64.175,348.1191 63.8313,348.5254 Q63.3313,349.1035 62.5344,349.4316 Q61.4563,349.8848 60.1594,349.8848 Q58.6438,349.8848 57.4406,349.2598 Q56.4563,348.7598 55.7688,347.6973 Q55.0813,346.6191 55.0813,345.3379 L55.0813,344.1816 Q55.0813,342.8535 55.6906,341.7129 Q56.3156,340.5566 57.4094,339.9473 Q58.5031,339.3223 59.7375,339.3223 Q60.4719,339.3223 61.1125,339.4941 Q61.7688,339.6504 62.3156,340.0098 Z " fill="#000000"/><text fill="#000000" font-family="sans-serif" font-size="14" lengthAdjust="spacing" textLength="204" x="78.45" y="349.9316">AuthenticationCredentialHandler</text><line style="stroke:#000000;stroke-width:0.5;" x1="23.5" x2="306.5" y1="360.1348" y2="360.1348"/><line style="stroke:#000000;stroke-width:0.5;" x1="23.5" x2="306.5" y1="368.1348" y2="368.1348"/><ellipse cx="33.5" cy="382.9453" fill="#84BE84" rx="3" ry="3" style="stroke:#038048;stroke-width:1.0;"/><text fill="#000000" font-family="sans-serif" font-size="14" lengthAdjust="spacing" textLength="259" x="42.5" y="387.2422">authenticated(username, password, role)</text></g><!--class AuthzRegistry--><g id="elem_AuthzRegistry"><rect codeLine="24" fill="#FFFFFF" height="122.4844" id="AuthzRegistry" rx="2.5" ry="2.5" style="stroke:#000000;stroke-width:0.5;" width="261" x="342.5" y="300.6348"/><ellipse cx="425.25" cy="316.6348" fill="#ADD1B2" rx="11" ry="11" style="stroke:#181818;stroke-width:1.0;"/><path d="M428.0156,312.5098 Q428.1719,312.291 428.3594,312.1816 Q428.5469,312.0723 428.7656,312.0723 Q429.1406,312.0723 429.375,312.3379 Q429.6094,312.5879 429.6094,313.1973 L429.6094,314.6504 Q429.6094,315.2598 429.375,315.5254 Q429.1406,315.791 428.7656,315.791 Q428.4219,315.791 428.2188,315.5879 Q428.0156,315.4004 427.9063,314.8848 Q427.8594,314.5254 427.6719,314.3379 Q427.3438,313.9629 426.7344,313.7441 Q426.125,313.5254 425.5,313.5254 Q424.7344,313.5254 424.0938,313.8535 Q423.4688,314.1816 422.9688,314.9316 Q422.4844,315.6816 422.4844,316.7129 L422.4844,317.8066 Q422.4844,319.041 423.375,319.8691 Q424.2656,320.6816 425.8594,320.6816 Q426.7969,320.6816 427.4531,320.4316 Q427.8438,320.2754 428.2656,319.8379 Q428.5313,319.5723 428.6719,319.4941 Q428.8281,319.416 429.0313,319.416 Q429.3594,319.416 429.6094,319.6816 Q429.875,319.9316 429.875,320.2754 Q429.875,320.6191 429.5313,321.0254 Q429.0313,321.6035 428.2344,321.9316 Q427.1563,322.3848 425.8594,322.3848 Q424.3438,322.3848 423.1406,321.7598 Q422.1563,321.2598 421.4688,320.1973 Q420.7813,319.1191 420.7813,317.8379 L420.7813,316.6816 Q420.7813,315.3535 421.3906,314.2129 Q422.0156,313.0566 423.1094,312.4473 Q424.2031,311.8223 425.4375,311.8223 Q426.1719,311.8223 426.8125,311.9941 Q427.4688,312.1504 428.0156,312.5098 Z " fill="#000000"/><text fill="#000000" font-family="sans-serif" font-size="14" lengthAdjust="spacing" textLength="87" x="445.75" y="322.4316">AuthzRegistry</text><line style="stroke:#000000;stroke-width:0.5;" x1="343.5" x2="602.5" y1="332.6348" y2="332.6348"/><line style="stroke:#000000;stroke-width:0.5;" x1="343.5" x2="602.5" y1="340.6348" y2="340.6348"/><ellipse cx="353.5" cy="355.4453" fill="#84BE84" rx="3" ry="3" style="stroke:#038048;stroke-width:1.0;"/><text fill="#000000" font-family="sans-serif" font-size="14" lengthAdjust="spacing" textLength="235" x="362.5" y="359.7422">configure(userRepo, policy, encoder)</text><ellipse cx="353.5" cy="374.0664" fill="#84BE84" rx="3" ry="3" style="stroke:#038048;stroke-width:1.0;"/><text fill="#000000" font-family="sans-serif" font-size="14" lengthAdjust="spacing" textLength="85" x="362.5" y="378.3633">userService()</text><ellipse cx="353.5" cy="392.6875" fill="#84BE84" rx="3" ry="3" style="stroke:#038048;stroke-width:1.0;"/><text fill="#000000" font-family="sans-serif" font-size="14" lengthAdjust="spacing" textLength="146" x="362.5" y="396.9844">authenticationService()</text><ellipse cx="353.5" cy="411.3086" fill="#84BE84" rx="3" ry="3" style="stroke:#038048;stroke-width:1.0;"/><text fill="#000000" font-family="sans-serif" font-size="14" lengthAdjust="spacing" textLength="138" x="362.5" y="415.6055">authorizationService()</text></g><!--class AuthorizationService--><g id="elem_AuthorizationService"><rect codeLine="31" fill="#FFFFFF" height="178.3477" id="AuthorizationService" rx="2.5" ry="2.5" style="stroke:#000000;stroke-width:0.5;" width="354" x="639" y="272.6348"/><ellipse cx="747.25" cy="288.6348" fill="#ADD1B2" rx="11" ry="11" style="stroke:#181818;stroke-width:1.0;"/><path d="M750.0156,284.5098 Q750.1719,284.291 750.3594,284.1816 Q750.5469,284.0723 750.7656,284.0723 Q751.1406,284.0723 751.375,284.3379 Q751.6094,284.5879 751.6094,285.1973 L751.6094,286.6504 Q751.6094,287.2598 751.375,287.5254 Q751.1406,287.791 750.7656,287.791 Q750.4219,287.791 750.2188,287.5879 Q750.0156,287.4004 749.9063,286.8848 Q749.8594,286.5254 749.6719,286.3379 Q749.3438,285.9629 748.7344,285.7441 Q748.125,285.5254 747.5,285.5254 Q746.7344,285.5254 746.0938,285.8535 Q745.4688,286.1816 744.9688,286.9316 Q744.4844,287.6816 744.4844,288.7129 L744.4844,289.8066 Q744.4844,291.041 745.375,291.8691 Q746.2656,292.6816 747.8594,292.6816 Q748.7969,292.6816 749.4531,292.4316 Q749.8438,292.2754 750.2656,291.8379 Q750.5313,291.5723 750.6719,291.4941 Q750.8281,291.416 751.0313,291.416 Q751.3594,291.416 751.6094,291.6816 Q751.875,291.9316 751.875,292.2754 Q751.875,292.6191 751.5313,293.0254 Q751.0313,293.6035 750.2344,293.9316 Q749.1563,294.3848 747.8594,294.3848 Q746.3438,294.3848 745.1406,293.7598 Q744.1563,293.2598 743.4688,292.1973 Q742.7813,291.1191 742.7813,289.8379 L742.7813,288.6816 Q742.7813,287.3535 743.3906,286.2129 Q744.0156,285.0566 745.1094,284.4473 Q746.2031,283.8223 747.4375,283.8223 Q748.1719,283.8223 748.8125,283.9941 Q749.4688,284.1504 750.0156,284.5098 Z " fill="#000000"/><text fill="#000000" font-family="sans-serif" font-size="14" lengthAdjust="spacing" textLength="129" x="767.75" y="294.4316">AuthorizationService</text><line style="stroke:#000000;stroke-width:0.5;" x1="640" x2="992" y1="304.6348" y2="304.6348"/><line style="stroke:#000000;stroke-width:0.5;" x1="640" x2="992" y1="312.6348" y2="312.6348"/><ellipse cx="650" cy="327.4453" fill="#84BE84" rx="3" ry="3" style="stroke:#038048;stroke-width:1.0;"/><text fill="#000000" font-family="sans-serif" font-size="14" lengthAdjust="spacing" textLength="281" x="659" y="331.7422">authenticate(username, rawPassword, roles)</text><ellipse cx="650" cy="346.0664" fill="#84BE84" rx="3" ry="3" style="stroke:#038048;stroke-width:1.0;"/><text fill="#000000" font-family="sans-serif" font-size="14" lengthAdjust="spacing" textLength="328" x="659" y="350.3633">changePassword(user, oldPassword, newPassword)</text><ellipse cx="650" cy="364.6875" fill="#84BE84" rx="3" ry="3" style="stroke:#038048;stroke-width:1.0;"/><text fill="#000000" font-family="sans-serif" font-size="14" lengthAdjust="spacing" textLength="292" x="659" y="368.9844">changePassword(oldPassword, newPassword)</text><ellipse cx="650" cy="383.3086" fill="#84BE84" rx="3" ry="3" style="stroke:#038048;stroke-width:1.0;"/><text fill="#000000" font-family="sans-serif" font-size="14" lengthAdjust="spacing" textLength="131" x="659" y="387.6055">resetPassword(user)</text><ellipse cx="650" cy="401.9297" fill="#84BE84" rx="3" ry="3" style="stroke:#038048;stroke-width:1.0;"/><text fill="#000000" font-family="sans-serif" font-size="14" lengthAdjust="spacing" textLength="289" x="659" y="406.2266">confirmResetPassword(user, token, newPass)</text><rect fill="#F24D5C" height="6" style="stroke:#C82930;stroke-width:1.0;" width="6" x="647" y="417.5508"/><text fill="#000000" font-family="sans-serif" font-size="14" lengthAdjust="spacing" textLength="197" x="659" y="424.8477">noActionRightsToValidate(role)</text><rect fill="#F24D5C" height="6" style="stroke:#C82930;stroke-width:1.0;" width="6" x="647" y="436.1719"/><text fill="#000000" font-family="sans-serif" font-size="14" lengthAdjust="spacing" textLength="150" x="659" y="443.4688">retrieveUser(username)</text></g><!--class Authenticator--><g id="elem_Authenticator"><rect codeLine="41" fill="#FFFFFF" height="66.6211" id="Authenticator" rx="2.5" ry="2.5" style="stroke:#000000;stroke-width:0.5;" width="277" x="677.5" y="529.6348"/><ellipse cx="769.75" cy="545.6348" fill="#B4A7E5" rx="11" ry="11" style="stroke:#181818;stroke-width:1.0;"/><path d="M770.7031,542.2754 L770.7031,548.9316 L772.4219,548.9316 Q773.0313,548.9316 773.2969,549.166 Q773.5625,549.4004 773.5625,549.791 Q773.5625,550.166 773.2969,550.4004 Q773.0313,550.6348 772.4219,550.6348 L767.2813,550.6348 Q766.6719,550.6348 766.4063,550.4004 Q766.1406,550.166 766.1406,549.7754 Q766.1406,549.4004 766.4063,549.166 Q766.6719,548.9316 767.2813,548.9316 L769,548.9316 L769,542.2754 L767.2813,542.2754 Q766.6719,542.2754 766.4063,542.041 Q766.1406,541.8066 766.1406,541.416 Q766.1406,541.041 766.4063,540.8066 Q766.6719,540.5723 767.2813,540.5723 L772.4219,540.5723 Q773.0313,540.5723 773.2969,540.8066 Q773.5625,541.041 773.5625,541.416 Q773.5625,541.8066 773.2969,542.041 Q773.0313,542.2754 772.4219,542.2754 L770.7031,542.2754 Z " fill="#000000"/><text fill="#000000" font-family="sans-serif" font-size="14" font-style="italic" lengthAdjust="spacing" textLength="84" x="790.25" y="551.4316">Authenticator</text><line style="stroke:#000000;stroke-width:0.5;" x1="678.5" x2="953.5" y1="561.6348" y2="561.6348"/><line style="stroke:#000000;stroke-width:0.5;" x1="678.5" x2="953.5" y1="569.6348" y2="569.6348"/><ellipse cx="688.5" cy="584.4453" fill="#84BE84" rx="3" ry="3" style="stroke:#038048;stroke-width:1.0;"/><text fill="#000000" font-family="sans-serif" font-size="14" lengthAdjust="spacing" textLength="251" x="697.5" y="588.7422">authenticate(username, password, role)</text></g><!--class UserRepository--><g id="elem_UserRepository"><rect codeLine="47" fill="#FFFFFF" height="66.6211" id="UserRepository" rx="2.5" ry="2.5" style="stroke:#000000;stroke-width:0.5;" width="150" x="1049" y="328.1348"/><ellipse cx="1073" cy="344.1348" fill="#B4A7E5" rx="11" ry="11" style="stroke:#181818;stroke-width:1.0;"/><path d="M1073.9531,340.7754 L1073.9531,347.4316 L1075.6719,347.4316 Q1076.2813,347.4316 1076.5469,347.666 Q1076.8125,347.9004 1076.8125,348.291 Q1076.8125,348.666 1076.5469,348.9004 Q1076.2813,349.1348 1075.6719,349.1348 L1070.5313,349.1348 Q1069.9219,349.1348 1069.6563,348.9004 Q1069.3906,348.666 1069.3906,348.2754 Q1069.3906,347.9004 1069.6563,347.666 Q1069.9219,347.4316 1070.5313,347.4316 L1072.25,347.4316 L1072.25,340.7754 L1070.5313,340.7754 Q1069.9219,340.7754 1069.6563,340.541 Q1069.3906,340.3066 1069.3906,339.916 Q1069.3906,339.541 1069.6563,339.3066 Q1069.9219,339.0723 1070.5313,339.0723 L1075.6719,339.0723 Q1076.2813,339.0723 1076.5469,339.3066 Q1076.8125,339.541 1076.8125,339.916 Q1076.8125,340.3066 1076.5469,340.541 Q1076.2813,340.7754 1075.6719,340.7754 L1073.9531,340.7754 Z " fill="#000000"/><text fill="#000000" font-family="sans-serif" font-size="14" font-style="italic" lengthAdjust="spacing" textLength="98" x="1089" y="349.9316">UserRepository</text><line style="stroke:#000000;stroke-width:0.5;" x1="1050" x2="1198" y1="360.1348" y2="360.1348"/><line style="stroke:#000000;stroke-width:0.5;" x1="1050" x2="1198" y1="368.1348" y2="368.1348"/><ellipse cx="1060" cy="382.9453" fill="#84BE84" rx="3" ry="3" style="stroke:#038048;stroke-width:1.0;"/><text fill="#000000" font-family="sans-serif" font-size="14" lengthAdjust="spacing" textLength="124" x="1069" y="387.2422">findByActive(active)</text></g><!--link LoginUI to AuthenticationCredentialHandler--><g id="link_LoginUI_AuthenticationCredentialHandler"><path codeLine="52" d="M165,186.6948 C165,229.9948 165,284.8248 165,321.8848 " fill="none" id="LoginUI-to-AuthenticationCredentialHandler" style="stroke:#000000;stroke-width:1.0;"/><polygon fill="#000000" points="165,327.8848,169,318.8848,165,322.8848,161,318.8848,165,327.8848" style="stroke:#000000;stroke-width:1.0;"/></g><!--link AuthenticationCredentialHandler to AuthzRegistry--><g id="link_AuthenticationCredentialHandler_AuthzRegistry"><path codeLine="53" d="M307.57,361.6348 C319.2,361.6348 324.83,361.6348 336.47,361.6348 " fill="none" id="AuthenticationCredentialHandler-to-AuthzRegistry" style="stroke:#000000;stroke-width:1.0;"/><polygon fill="#000000" points="342.47,361.6348,333.47,357.6348,337.47,361.6348,333.47,365.6348,342.47,361.6348" style="stroke:#000000;stroke-width:1.0;"/></g><!--link AuthzRegistry to AuthorizationService--><g id="link_AuthzRegistry_AuthorizationService"><path codeLine="54" d="M603.63,361.6348 C615.39,361.6348 621.14,361.6348 632.89,361.6348 " fill="none" id="AuthzRegistry-to-AuthorizationService" style="stroke:#000000;stroke-width:1.0;"/><polygon fill="#000000" points="638.89,361.6348,629.89,357.6348,633.89,361.6348,629.89,365.6348,638.89,361.6348" style="stroke:#000000;stroke-width:1.0;"/></g><!--link AuthorizationService to UserRepository--><g id="link_AuthorizationService_UserRepository"><path codeLine="55" d="M993.16,426.8748 C1021.61,423.1648 1044.9398,415.7527 1073.3898,398.3727 " fill="none" id="AuthorizationService-to-UserRepository" style="stroke:#000000;stroke-width:1.0;"/><polygon fill="#000000" points="1078.51,395.2448,1068.7445,396.5232,1074.2432,397.8513,1072.915,403.3501,1078.51,395.2448" style="stroke:#000000;stroke-width:1.0;"/></g><!--link AuthorizationService to Authenticator--><g id="link_AuthorizationService_Authenticator"><path codeLine="56" d="M816,450.7148 C816,478.6948 816,501.9048 816,523.4048 " fill="none" id="AuthorizationService-to-Authenticator" style="stroke:#000000;stroke-width:1.0;"/><polygon fill="#000000" points="816,529.4048,820,520.4048,816,524.4048,812,520.4048,816,529.4048" style="stroke:#000000;stroke-width:1.0;"/><text fill="#000000" font-family="sans-serif" font-size="13" lengthAdjust="spacing" textLength="67" x="817" y="495.6631">implements</text></g><!--SRC=[ZLJ1Zjf03BtdAqPx2YeSAlNKGoMWgbgfXmgMzZoQCOd5P1nv1X1K- -zrGWYPB7Gt5wINvsVxvPcmGrzhrfKoJeUW_cPAdeKsku9fx-sI7B7wKsA4zisScOuNSE64TQ4JM-0n-eryl8UjyGpguwVi9SkUCJfGJykszLVKHJF8JCttiGGVqUY8v9NsjeM8yTmYJrbMYw8kfBPc2CAzuDtubrL-Ke5-ywF3ckV35SiDWsqwQFTTr1tmL34vcFJKcRAqBkcO3w4Ij7NeeGDVcXNwGRHCU4udIFTOZdica-aR5so-3y1ULp1LjGWTnT_XWD8sRN9UGO4XyYcHDEItMEmPMhaLr2HovD2SfWgy8Vbcam6z8Qs13sWWdzoVJBPunEW_JafuDUgOzz24WGUiZxyI6yAmkocrB-1AQCkcYfozbNZew_zJ-9wI9cmnQJKP6yxLwXLfgYBjmFUomr1vcfl6ZnKMPGpFz5ixjCt-uq0oH4Oum4O4UtCIbz57uAqMKmV98twFnVTZDiWtItm2YXh2zL_YrcxJvQibf27SehUBKxFY0NBT_WpKhpSwctrvwrgojwwfa-Xl8KiletizpbzsDvH2JdTwG4l75gi_Awng1vKW8Vi7]--></g></svg>