<?xml version="1.0" encoding="us-ascii" standalone="no"?><svg xmlns="http://www.w3.org/2000/svg" xmlns:xlink="http://www.w3.org/1999/xlink" contentStyleType="text/css" height="377px" preserveAspectRatio="none" style="width:1067px;height:377px;background:#FFFFFF;" version="1.1" viewBox="0 0 1067 377" width="1067px" zoomAndPan="magnify"><defs/><g><!--cluster ui--><g id="cluster_ui"><path d="M8.5,131 L23.5,131 A3.75,3.75 0 0 1 26,133.5 L33,153.4883 L182.5,153.4883 A2.5,2.5 0 0 1 185,155.9883 L185,261.5 A2.5,2.5 0 0 1 182.5,264 L8.5,264 A2.5,2.5 0 0 1 6,261.5 L6,133.5 A2.5,2.5 0 0 1 8.5,131 " fill="none" style="stroke:#000000;stroke-width:1.5;"/><line style="stroke:#000000;stroke-width:1.5;" x1="6" x2="33" y1="153.4883" y2="153.4883"/><text fill="#000000" font-family="sans-serif" font-size="14" font-weight="bold" lengthAdjust="spacing" textLength="14" x="10" y="146.5352">ui</text></g><!--cluster authz--><g id="cluster_authz"><path d="M252.5,6 L293.5,6 A3.75,3.75 0 0 1 296,8.5 L303,28.4883 L1057.5,28.4883 A2.5,2.5 0 0 1 1060,30.9883 L1060,367.5 A2.5,2.5 0 0 1 1057.5,370 L252.5,370 A2.5,2.5 0 0 1 250,367.5 L250,8.5 A2.5,2.5 0 0 1 252.5,6 " fill="none" style="stroke:#000000;stroke-width:1.5;"/><line style="stroke:#000000;stroke-width:1.5;" x1="250" x2="303" y1="28.4883" y2="28.4883"/><text fill="#000000" font-family="sans-serif" font-size="14" font-weight="bold" lengthAdjust="spacing" textLength="40" x="254" y="21.5352">authz</text></g><!--cluster application--><g id="cluster_application"><path d="M276.5,131 L357.5,131 A3.75,3.75 0 0 1 360,133.5 L367,153.4883 L517.5,153.4883 A2.5,2.5 0 0 1 520,155.9883 L520,261.5 A2.5,2.5 0 0 1 517.5,264 L276.5,264 A2.5,2.5 0 0 1 274,261.5 L274,133.5 A2.5,2.5 0 0 1 276.5,131 " fill="none" style="stroke:#000000;stroke-width:1.5;"/><line style="stroke:#000000;stroke-width:1.5;" x1="274" x2="367" y1="153.4883" y2="153.4883"/><text fill="#000000" font-family="sans-serif" font-size="14" font-weight="bold" lengthAdjust="spacing" textLength="80" x="278" y="146.5352">application</text></g><!--cluster user--><g id="cluster_user"><path d="M611.5,49 L643.5,49 A3.75,3.75 0 0 1 646,51.5 L653,71.4883 L1033.5,71.4883 A2.5,2.5 0 0 1 1036,73.9883 L1036,343.5 A2.5,2.5 0 0 1 1033.5,346 L611.5,346 A2.5,2.5 0 0 1 609,343.5 L609,51.5 A2.5,2.5 0 0 1 611.5,49 " fill="none" style="stroke:#000000;stroke-width:1.5;"/><line style="stroke:#000000;stroke-width:1.5;" x1="609" x2="653" y1="71.4883" y2="71.4883"/><text fill="#000000" font-family="sans-serif" font-size="14" font-weight="bold" lengthAdjust="spacing" textLength="31" x="613" y="64.5352">user</text></g><!--class DeactivateUserUI--><g id="elem_DeactivateUserUI"><rect codeLine="5" fill="#F1F1F1" height="80.9766" id="DeactivateUserUI" rx="2.5" ry="2.5" style="stroke:#181818;stroke-width:0.5;" width="147" x="22" y="166.5"/><ellipse cx="37" cy="182.5" fill="#ADD1B2" rx="11" ry="11" style="stroke:#181818;stroke-width:1.0;"/><path d="M39.9731,188.1431 Q39.3921,188.4419 38.7529,188.5913 Q38.1138,188.7407 37.4082,188.7407 Q34.9014,188.7407 33.5815,187.0889 Q32.2617,185.437 32.2617,182.3159 Q32.2617,179.1865 33.5815,177.5347 Q34.9014,175.8828 37.4082,175.8828 Q38.1138,175.8828 38.7612,176.0322 Q39.4087,176.1816 39.9731,176.4805 L39.9731,179.2031 Q39.3423,178.6221 38.7488,178.3523 Q38.1553,178.0825 37.5244,178.0825 Q36.1797,178.0825 35.4949,179.1492 Q34.8101,180.2158 34.8101,182.3159 Q34.8101,184.4077 35.4949,185.4744 Q36.1797,186.541 37.5244,186.541 Q38.1553,186.541 38.7488,186.2712 Q39.3423,186.0015 39.9731,185.4204 Z " fill="#000000"/><text fill="#000000" font-family="sans-serif" font-size="14" lengthAdjust="spacing" textLength="115" x="51" y="187.791">DeactivateUserUI</text><line style="stroke:#181818;stroke-width:0.5;" x1="23" x2="168" y1="198.5" y2="198.5"/><line style="stroke:#181818;stroke-width:0.5;" x1="23" x2="168" y1="206.5" y2="206.5"/><ellipse cx="33" cy="220.2441" fill="#84BE84" rx="3" ry="3" style="stroke:#038048;stroke-width:1.0;"/><text fill="#000000" font-family="sans-serif" font-size="14" lengthAdjust="spacing" textLength="65" x="42" y="224.0352">doShow()</text><ellipse cx="33" cy="236.7324" fill="#84BE84" rx="3" ry="3" style="stroke:#038048;stroke-width:1.0;"/><text fill="#000000" font-family="sans-serif" font-size="14" lengthAdjust="spacing" textLength="69" x="42" y="240.5234">headline()</text></g><!--class DeactivateController--><g id="elem_DeactivateController"><rect codeLine="13" fill="#F1F1F1" height="80.9766" id="DeactivateController" rx="2.5" ry="2.5" style="stroke:#181818;stroke-width:0.5;" width="214" x="290" y="166.5"/><ellipse cx="323.9" cy="182.5" fill="#ADD1B2" rx="11" ry="11" style="stroke:#181818;stroke-width:1.0;"/><path d="M326.8731,188.1431 Q326.2921,188.4419 325.6529,188.5913 Q325.0138,188.7407 324.3082,188.7407 Q321.8014,188.7407 320.4815,187.0889 Q319.1617,185.437 319.1617,182.3159 Q319.1617,179.1865 320.4815,177.5347 Q321.8014,175.8828 324.3082,175.8828 Q325.0138,175.8828 325.6612,176.0322 Q326.3087,176.1816 326.8731,176.4805 L326.8731,179.2031 Q326.2423,178.6221 325.6488,178.3523 Q325.0553,178.0825 324.4244,178.0825 Q323.0797,178.0825 322.3949,179.1492 Q321.7101,180.2158 321.7101,182.3159 Q321.7101,184.4077 322.3949,185.4744 Q323.0797,186.541 324.4244,186.541 Q325.0553,186.541 325.6488,186.2712 Q326.2423,186.0015 326.8731,185.4204 Z " fill="#000000"/><text fill="#000000" font-family="sans-serif" font-size="14" lengthAdjust="spacing" textLength="140" x="342.1" y="187.791">DeactivateController</text><line style="stroke:#181818;stroke-width:0.5;" x1="291" x2="503" y1="198.5" y2="198.5"/><line style="stroke:#181818;stroke-width:0.5;" x1="291" x2="503" y1="206.5" y2="206.5"/><ellipse cx="301" cy="220.2441" fill="#84BE84" rx="3" ry="3" style="stroke:#038048;stroke-width:1.0;"/><text fill="#000000" font-family="sans-serif" font-size="14" lengthAdjust="spacing" textLength="87" x="310" y="224.0352">activeUsers()</text><ellipse cx="301" cy="236.7324" fill="#84BE84" rx="3" ry="3" style="stroke:#038048;stroke-width:1.0;"/><text fill="#000000" font-family="sans-serif" font-size="14" lengthAdjust="spacing" textLength="188" x="310" y="240.5234">deactivateUser(systemUser)</text></g><!--class UserManagementService--><g id="elem_UserManagementService"><rect codeLine="20" fill="#F1F1F1" height="245.8594" id="UserManagementService" rx="2.5" ry="2.5" style="stroke:#181818;stroke-width:0.5;" width="395" x="625" y="84"/><ellipse cx="734.25" cy="100" fill="#ADD1B2" rx="11" ry="11" style="stroke:#181818;stroke-width:1.0;"/><path d="M737.2231,105.6431 Q736.6421,105.9419 736.0029,106.0913 Q735.3638,106.2407 734.6582,106.2407 Q732.1514,106.2407 730.8315,104.5889 Q729.5117,102.937 729.5117,99.8159 Q729.5117,96.6865 730.8315,95.0347 Q732.1514,93.3828 734.6582,93.3828 Q735.3638,93.3828 736.0112,93.5322 Q736.6587,93.6816 737.2231,93.9805 L737.2231,96.7031 Q736.5923,96.1221 735.9988,95.8523 Q735.4053,95.5825 734.7744,95.5825 Q733.4297,95.5825 732.7449,96.6492 Q732.0601,97.7158 732.0601,99.8159 Q732.0601,101.9077 732.7449,102.9744 Q733.4297,104.041 734.7744,104.041 Q735.4053,104.041 735.9988,103.7712 Q736.5923,103.5015 737.2231,102.9204 Z " fill="#000000"/><text fill="#000000" font-family="sans-serif" font-size="14" lengthAdjust="spacing" textLength="168" x="754.75" y="105.291">UserManagementService</text><line style="stroke:#181818;stroke-width:0.5;" x1="626" x2="1019" y1="116" y2="116"/><line style="stroke:#181818;stroke-width:0.5;" x1="626" x2="1019" y1="124" y2="124"/><ellipse cx="636" cy="137.7441" fill="#84BE84" rx="3" ry="3" style="stroke:#038048;stroke-width:1.0;"/><text fill="#000000" font-family="sans-serif" font-size="14" lengthAdjust="spacing" textLength="355" x="645" y="141.5352">UserManagementService(userRepo, policy, encoder)</text><ellipse cx="636" cy="154.2324" fill="#84BE84" rx="3" ry="3" style="stroke:#038048;stroke-width:1.0;"/><text fill="#000000" font-family="sans-serif" font-size="14" lengthAdjust="spacing" textLength="296" x="645" y="158.0234">registerNewUser( username,  rawPassword,</text><text fill="#000000" font-family="sans-serif" font-size="14" lengthAdjust="spacing" textLength="316" x="645" y="174.5117">firstName,  lastName,  email, roles, createdOn)</text><ellipse cx="636" cy="187.209" fill="#84BE84" rx="3" ry="3" style="stroke:#038048;stroke-width:1.0;"/><text fill="#000000" font-family="sans-serif" font-size="14" lengthAdjust="spacing" textLength="296" x="645" y="191">registerNewUser( username,  rawPassword,</text><text fill="#000000" font-family="sans-serif" font-size="14" lengthAdjust="spacing" textLength="237" x="645" y="207.4883">firstName,  lastName,  email, roles)</text><ellipse cx="636" cy="220.1855" fill="#84BE84" rx="3" ry="3" style="stroke:#038048;stroke-width:1.0;"/><text fill="#000000" font-family="sans-serif" font-size="14" lengthAdjust="spacing" textLength="369" x="645" y="223.9766">registerUser(username, password, name, email, roles)</text><ellipse cx="636" cy="236.6738" fill="#84BE84" rx="3" ry="3" style="stroke:#038048;stroke-width:1.0;"/><text fill="#000000" font-family="sans-serif" font-size="14" lengthAdjust="spacing" textLength="87" x="645" y="240.4648">activeUsers()</text><ellipse cx="636" cy="253.1621" fill="#84BE84" rx="3" ry="3" style="stroke:#038048;stroke-width:1.0;"/><text fill="#000000" font-family="sans-serif" font-size="14" lengthAdjust="spacing" textLength="126" x="645" y="256.9531">deactivatedUsers()</text><ellipse cx="636" cy="269.6504" fill="#84BE84" rx="3" ry="3" style="stroke:#038048;stroke-width:1.0;"/><text fill="#000000" font-family="sans-serif" font-size="14" lengthAdjust="spacing" textLength="64" x="645" y="273.4414">allUsers()</text><ellipse cx="636" cy="286.1387" fill="#84BE84" rx="3" ry="3" style="stroke:#038048;stroke-width:1.0;"/><text fill="#000000" font-family="sans-serif" font-size="14" lengthAdjust="spacing" textLength="120" x="645" y="289.9297">userOfIdentity(id)</text><ellipse cx="636" cy="302.627" fill="#84BE84" rx="3" ry="3" style="stroke:#038048;stroke-width:1.0;"/><text fill="#000000" font-family="sans-serif" font-size="14" lengthAdjust="spacing" textLength="140" x="645" y="306.418">deactivateUser(user)</text><ellipse cx="636" cy="319.1152" fill="#84BE84" rx="3" ry="3" style="stroke:#038048;stroke-width:1.0;"/><text fill="#000000" font-family="sans-serif" font-size="14" lengthAdjust="spacing" textLength="123" x="645" y="322.9063">activateUser(user)</text></g><!--link DeactivateUserUI to DeactivateController--><g id="link_DeactivateUserUI_DeactivateController"><path codeLine="37" d="M169.38,207 C205.48,207 243.76,207 283.57,207 " fill="none" id="DeactivateUserUI-to-DeactivateController" style="stroke:#181818;stroke-width:1.0;"/><polygon fill="#181818" points="289.57,207,280.57,203,284.57,207,280.57,211,289.57,207" style="stroke:#181818;stroke-width:1.0;"/></g><!--link DeactivateController to UserManagementService--><g id="link_DeactivateController_UserManagementService"><path codeLine="39" d="M504.32,207 C540.95,207 577.23,207 618.74,207 " fill="none" id="DeactivateController-to-UserManagementService" style="stroke:#181818;stroke-width:1.0;"/><polygon fill="#181818" points="624.74,207,615.74,203,619.74,207,615.74,211,624.74,207" style="stroke:#181818;stroke-width:1.0;"/></g><!--SRC=[jPBFRiCW3CRlUGehbsLQyWgxR9SUrawh-W0Mk0qg0MH8ewpgkm-IDVspRBSb5_1dVp-3UV1xPHmoDg2LeT0x0ikXjfccRO1WWTMk3Y0LamZAcYnpAFQu8yXRbSCn4ngzXrV2A1ymqCOJRnPHWFWzWRJhsdR5u_Us9fG950Ed-5_Ci0trPtwy2ZYdbS34dCEyM1FOQaqyeGPfuFk99s_wAdpl0pLfUSzlOoo72PHItj14gI4JriG79MWYpQf5ilWWPqjmDhRUbq16M9bOOndJJaK-BwaRke5KOR2X4e2nUu_Wph8iX_IjOX-MenXREY-fGQLBY4SdNu9WYaUJA_DVY7lVmVJYwSv-CExdIlyUYxmLKElRG6AjjWiPxrc5lb3obycs_dBFCy9f7FUFPrfLrVFigxhElNfhG_xi-BFi2m00]--></g></svg>