<?xml version="1.0" encoding="us-ascii" standalone="no"?><svg xmlns="http://www.w3.org/2000/svg" xmlns:xlink="http://www.w3.org/1999/xlink" contentStyleType="text/css" height="270px" preserveAspectRatio="none" style="width:887px;height:270px;background:#FFFFFF;" version="1.1" viewBox="0 0 887 270" width="887.4px" zoomAndPan="magnify"><defs/><g><!--class DeactivateUserUI--><g id="elem_DeactivateUserUI"><rect codeLine="4" fill="#F1F1F1" height="48.5859" id="DeactivateUserUI" rx="1.5" ry="1.5" style="stroke:#181818;stroke-width:0.3;" width="88.2" x="4.2" y="147"/><ellipse cx="13.2" cy="156.6" fill="#ADD1B2" rx="6.6" ry="6.6" style="stroke:#181818;stroke-width:0.6;"/><path d="M14.9839,159.9858 Q14.6353,160.1651 14.2518,160.2548 Q13.8683,160.3444 13.4449,160.3444 Q11.9408,160.3444 11.1489,159.3533 Q10.357,158.3622 10.357,156.4896 Q10.357,154.6119 11.1489,153.6208 Q11.9408,152.6297 13.4449,152.6297 Q13.8683,152.6297 14.2567,152.7193 Q14.6452,152.809 14.9839,152.9883 L14.9839,154.6219 Q14.6054,154.2732 14.2493,154.1114 Q13.8932,153.9495 13.5146,153.9495 Q12.7078,153.9495 12.2969,154.5895 Q11.886,155.2295 11.886,156.4896 Q11.886,157.7446 12.2969,158.3846 Q12.7078,159.0246 13.5146,159.0246 Q13.8932,159.0246 14.2493,158.8627 Q14.6054,158.7009 14.9839,158.3522 Z " fill="#000000"/><text fill="#000000" font-family="sans-serif" font-size="8.4" lengthAdjust="spacing" textLength="69" x="21.6" y="159.7746">DeactivateUserUI</text><line style="stroke:#181818;stroke-width:0.3;" x1="4.8" x2="91.8" y1="166.2" y2="166.2"/><line style="stroke:#181818;stroke-width:0.3;" x1="4.8" x2="91.8" y1="171" y2="171"/><ellipse cx="10.8" cy="179.2465" fill="#84BE84" rx="1.8" ry="1.8" style="stroke:#038048;stroke-width:0.6;"/><text fill="#000000" font-family="sans-serif" font-size="8.4" lengthAdjust="spacing" textLength="39" x="16.2" y="181.5211">doShow()</text><ellipse cx="10.8" cy="189.1395" fill="#84BE84" rx="1.8" ry="1.8" style="stroke:#038048;stroke-width:0.6;"/><text fill="#000000" font-family="sans-serif" font-size="8.4" lengthAdjust="spacing" textLength="41.4" x="16.2" y="191.4141">headline()</text></g><!--class DeactivateController--><g id="elem_DeactivateController"><rect codeLine="9" fill="#F1F1F1" height="48.5859" id="DeactivateController" rx="1.5" ry="1.5" style="stroke:#181818;stroke-width:0.3;" width="128.4" x="165" y="147"/><ellipse cx="185.34" cy="156.6" fill="#ADD1B2" rx="6.6" ry="6.6" style="stroke:#181818;stroke-width:0.6;"/><path d="M187.1239,159.9858 Q186.7753,160.1651 186.3918,160.2548 Q186.0083,160.3444 185.5849,160.3444 Q184.0808,160.3444 183.2889,159.3533 Q182.497,158.3622 182.497,156.4896 Q182.497,154.6119 183.2889,153.6208 Q184.0808,152.6297 185.5849,152.6297 Q186.0083,152.6297 186.3967,152.7193 Q186.7852,152.809 187.1239,152.9883 L187.1239,154.6219 Q186.7454,154.2732 186.3893,154.1114 Q186.0332,153.9495 185.6546,153.9495 Q184.8478,153.9495 184.4369,154.5895 Q184.026,155.2295 184.026,156.4896 Q184.026,157.7446 184.4369,158.3846 Q184.8478,159.0246 185.6546,159.0246 Q186.0332,159.0246 186.3893,158.8627 Q186.7454,158.7009 187.1239,158.3522 Z " fill="#000000"/><text fill="#000000" font-family="sans-serif" font-size="8.4" lengthAdjust="spacing" textLength="84" x="196.26" y="159.7746">DeactivateController</text><line style="stroke:#181818;stroke-width:0.3;" x1="165.6" x2="292.8" y1="166.2" y2="166.2"/><line style="stroke:#181818;stroke-width:0.3;" x1="165.6" x2="292.8" y1="171" y2="171"/><ellipse cx="171.6" cy="179.2465" fill="#84BE84" rx="1.8" ry="1.8" style="stroke:#038048;stroke-width:0.6;"/><text fill="#000000" font-family="sans-serif" font-size="8.4" lengthAdjust="spacing" textLength="52.2" x="177" y="181.5211">activeUsers()</text><ellipse cx="171.6" cy="189.1395" fill="#84BE84" rx="1.8" ry="1.8" style="stroke:#038048;stroke-width:0.6;"/><text fill="#000000" font-family="sans-serif" font-size="8.4" lengthAdjust="spacing" textLength="112.8" x="177" y="191.4141">deactivateUser(systemUser)</text></g><!--class RepositoryFactory--><g id="elem_RepositoryFactory"><rect codeLine="14" fill="#F1F1F1" height="137.6227" id="RepositoryFactory" rx="1.5" ry="1.5" style="stroke:#181818;stroke-width:0.3;" width="207.6" x="675.6" y="4.2"/><ellipse cx="739.95" cy="13.8" fill="#B4A7E5" rx="6.6" ry="6.6" style="stroke:#181818;stroke-width:0.6;"/><path d="M737.5066,11.2591 L737.5066,9.9642 L741.9343,9.9642 L741.9343,11.2591 L740.4551,11.2591 L740.4551,16.1051 L741.9343,16.1051 L741.9343,17.4 L737.5066,17.4 L737.5066,16.1051 L738.9858,16.1051 L738.9858,11.2591 Z " fill="#000000"/><text fill="#000000" font-family="sans-serif" font-size="8.4" font-style="italic" lengthAdjust="spacing" textLength="73.8" x="752.25" y="16.9746">RepositoryFactory</text><line style="stroke:#181818;stroke-width:0.3;" x1="676.2" x2="882.6" y1="23.4" y2="23.4"/><line style="stroke:#181818;stroke-width:0.3;" x1="676.2" x2="882.6" y1="28.2" y2="28.2"/><ellipse cx="682.2" cy="36.4465" fill="#84BE84" rx="1.8" ry="1.8" style="stroke:#038048;stroke-width:0.6;"/><text fill="#000000" font-family="sans-serif" font-size="8.4" lengthAdjust="spacing" textLength="111.6" x="687.6" y="38.7211">newTransactionalContext()</text><ellipse cx="682.2" cy="46.3395" fill="#84BE84" rx="1.8" ry="1.8" style="stroke:#038048;stroke-width:0.6;"/><text fill="#000000" font-family="sans-serif" font-size="8.4" lengthAdjust="spacing" textLength="148.8" x="687.6" y="48.6141">users(TransactionalContext autoTx)</text><ellipse cx="682.2" cy="56.2324" fill="#84BE84" rx="1.8" ry="1.8" style="stroke:#038048;stroke-width:0.6;"/><text fill="#000000" font-family="sans-serif" font-size="8.4" lengthAdjust="spacing" textLength="28.2" x="687.6" y="58.507">users()</text><ellipse cx="682.2" cy="66.1254" fill="#84BE84" rx="1.8" ry="1.8" style="stroke:#038048;stroke-width:0.6;"/><text fill="#000000" font-family="sans-serif" font-size="8.4" lengthAdjust="spacing" textLength="187.8" x="687.6" y="68.4">customerUsers(TransactionalContext autoTx)</text><ellipse cx="682.2" cy="76.0184" fill="#84BE84" rx="1.8" ry="1.8" style="stroke:#038048;stroke-width:0.6;"/><text fill="#000000" font-family="sans-serif" font-size="8.4" lengthAdjust="spacing" textLength="67.2" x="687.6" y="78.293">customerUsers()</text><ellipse cx="682.2" cy="85.9113" fill="#84BE84" rx="1.8" ry="1.8" style="stroke:#038048;stroke-width:0.6;"/><text fill="#000000" font-family="sans-serif" font-size="8.4" lengthAdjust="spacing" textLength="192" x="687.6" y="88.1859">signupRequests(TransactionalContext autoTx)</text><ellipse cx="682.2" cy="95.8043" fill="#84BE84" rx="1.8" ry="1.8" style="stroke:#038048;stroke-width:0.6;"/><text fill="#000000" font-family="sans-serif" font-size="8.4" lengthAdjust="spacing" textLength="71.4" x="687.6" y="98.0789">signupRequests()</text><ellipse cx="682.2" cy="105.6973" fill="#84BE84" rx="1.8" ry="1.8" style="stroke:#038048;stroke-width:0.6;"/><text fill="#000000" font-family="sans-serif" font-size="8.4" lengthAdjust="spacing" textLength="179.4" x="687.6" y="107.9719">jobOpenings(TransactionalContext autoTx)</text><ellipse cx="682.2" cy="115.5902" fill="#84BE84" rx="1.8" ry="1.8" style="stroke:#038048;stroke-width:0.6;"/><text fill="#000000" font-family="sans-serif" font-size="8.4" lengthAdjust="spacing" textLength="58.8" x="687.6" y="117.8648">jobOpenings()</text><ellipse cx="682.2" cy="125.4832" fill="#84BE84" rx="1.8" ry="1.8" style="stroke:#038048;stroke-width:0.6;"/><text fill="#000000" font-family="sans-serif" font-size="8.4" lengthAdjust="spacing" textLength="176.4" x="687.6" y="127.7578">applications(TransactionalContext autoTx)</text><ellipse cx="682.2" cy="135.3762" fill="#84BE84" rx="1.8" ry="1.8" style="stroke:#038048;stroke-width:0.6;"/><text fill="#000000" font-family="sans-serif" font-size="8.4" lengthAdjust="spacing" textLength="55.8" x="687.6" y="137.6508">applications()</text></g><!--class PersistenceContext--><g id="elem_PersistenceContext"><rect codeLine="28" fill="#F1F1F1" height="48.5859" id="PersistenceContext" rx="1.5" ry="1.5" style="stroke:#181818;stroke-width:0.3;" width="100.8" x="434.1" y="48.6"/><ellipse cx="444.18" cy="58.2" fill="#ADD1B2" rx="6.6" ry="6.6" style="stroke:#181818;stroke-width:0.6;"/><path d="M445.9639,61.5858 Q445.6153,61.7651 445.2318,61.8548 Q444.8483,61.9444 444.4249,61.9444 Q442.9208,61.9444 442.1289,60.9533 Q441.337,59.9622 441.337,58.0896 Q441.337,56.2119 442.1289,55.2208 Q442.9208,54.2297 444.4249,54.2297 Q444.8483,54.2297 445.2367,54.3193 Q445.6252,54.409 445.9639,54.5883 L445.9639,56.2219 Q445.5854,55.8732 445.2293,55.7114 Q444.8732,55.5495 444.4946,55.5495 Q443.6878,55.5495 443.2769,56.1895 Q442.866,56.8295 442.866,58.0896 Q442.866,59.3446 443.2769,59.9846 Q443.6878,60.6246 444.4946,60.6246 Q444.8732,60.6246 445.2293,60.4627 Q445.5854,60.3009 445.9639,59.9522 Z " fill="#000000"/><text fill="#000000" font-family="sans-serif" font-size="8.4" lengthAdjust="spacing" textLength="79.2" x="452.82" y="61.3746">PersistenceContext</text><line style="stroke:#181818;stroke-width:0.3;" x1="434.7" x2="534.3" y1="67.8" y2="67.8"/><line style="stroke:#181818;stroke-width:0.3;" x1="434.7" x2="534.3" y1="72.6" y2="72.6"/><ellipse cx="440.7" cy="80.8465" fill="#84BE84" rx="1.8" ry="1.8" style="stroke:#038048;stroke-width:0.6;"/><text fill="#000000" font-family="sans-serif" font-size="8.4" lengthAdjust="spacing" textLength="55.2" x="446.1" y="83.1211">repositories()</text><ellipse cx="440.7" cy="90.7395" fill="#84BE84" rx="1.8" ry="1.8" style="stroke:#038048;stroke-width:0.6;"/><text fill="#000000" font-family="sans-serif" font-size="8.4" lengthAdjust="spacing" textLength="85.2" x="446.1" y="93.0141">PersistenceContext()</text></g><!--class UserManagementService--><g id="elem_UserManagementService"><rect codeLine="33" fill="#F1F1F1" height="147.5156" id="UserManagementService" rx="1.5" ry="1.5" style="stroke:#181818;stroke-width:0.3;" width="237" x="366" y="118.5"/><ellipse cx="431.55" cy="128.1" fill="#ADD1B2" rx="6.6" ry="6.6" style="stroke:#181818;stroke-width:0.6;"/><path d="M433.3339,131.4858 Q432.9853,131.6651 432.6018,131.7548 Q432.2183,131.8444 431.7949,131.8444 Q430.2908,131.8444 429.4989,130.8533 Q428.707,129.8622 428.707,127.9896 Q428.707,126.1119 429.4989,125.1208 Q430.2908,124.1297 431.7949,124.1297 Q432.2183,124.1297 432.6067,124.2193 Q432.9952,124.309 433.3339,124.4883 L433.3339,126.1219 Q432.9554,125.7732 432.5993,125.6114 Q432.2432,125.4495 431.8646,125.4495 Q431.0578,125.4495 430.6469,126.0895 Q430.236,126.7295 430.236,127.9896 Q430.236,129.2446 430.6469,129.8846 Q431.0578,130.5246 431.8646,130.5246 Q432.2432,130.5246 432.5993,130.3627 Q432.9554,130.2009 433.3339,129.8522 Z " fill="#000000"/><text fill="#000000" font-family="sans-serif" font-size="8.4" lengthAdjust="spacing" textLength="100.8" x="443.85" y="131.2746">UserManagementService</text><line style="stroke:#181818;stroke-width:0.3;" x1="366.6" x2="602.4" y1="137.7" y2="137.7"/><line style="stroke:#181818;stroke-width:0.3;" x1="366.6" x2="602.4" y1="142.5" y2="142.5"/><ellipse cx="372.6" cy="150.7465" fill="#84BE84" rx="1.8" ry="1.8" style="stroke:#038048;stroke-width:0.6;"/><text fill="#000000" font-family="sans-serif" font-size="8.4" lengthAdjust="spacing" textLength="213" x="378" y="153.0211">UserManagementService(userRepo, policy, encoder)</text><ellipse cx="372.6" cy="160.6395" fill="#84BE84" rx="1.8" ry="1.8" style="stroke:#038048;stroke-width:0.6;"/><text fill="#000000" font-family="sans-serif" font-size="8.4" lengthAdjust="spacing" textLength="177.6" x="378" y="162.9141">registerNewUser( username,  rawPassword,</text><text fill="#000000" font-family="sans-serif" font-size="8.4" lengthAdjust="spacing" textLength="189.6" x="378" y="172.807">firstName,  lastName,  email, roles, createdOn)</text><ellipse cx="372.6" cy="180.4254" fill="#84BE84" rx="1.8" ry="1.8" style="stroke:#038048;stroke-width:0.6;"/><text fill="#000000" font-family="sans-serif" font-size="8.4" lengthAdjust="spacing" textLength="177.6" x="378" y="182.7">registerNewUser( username,  rawPassword,</text><text fill="#000000" font-family="sans-serif" font-size="8.4" lengthAdjust="spacing" textLength="142.2" x="378" y="192.593">firstName,  lastName,  email, roles)</text><ellipse cx="372.6" cy="200.2113" fill="#84BE84" rx="1.8" ry="1.8" style="stroke:#038048;stroke-width:0.6;"/><text fill="#000000" font-family="sans-serif" font-size="8.4" lengthAdjust="spacing" textLength="221.4" x="378" y="202.4859">registerUser(username, password, name, email, roles)</text><ellipse cx="372.6" cy="210.1043" fill="#84BE84" rx="1.8" ry="1.8" style="stroke:#038048;stroke-width:0.6;"/><text fill="#000000" font-family="sans-serif" font-size="8.4" lengthAdjust="spacing" textLength="52.2" x="378" y="212.3789">activeUsers()</text><ellipse cx="372.6" cy="219.9973" fill="#84BE84" rx="1.8" ry="1.8" style="stroke:#038048;stroke-width:0.6;"/><text fill="#000000" font-family="sans-serif" font-size="8.4" lengthAdjust="spacing" textLength="75.6" x="378" y="222.2719">deactivatedUsers()</text><ellipse cx="372.6" cy="229.8902" fill="#84BE84" rx="1.8" ry="1.8" style="stroke:#038048;stroke-width:0.6;"/><text fill="#000000" font-family="sans-serif" font-size="8.4" lengthAdjust="spacing" textLength="38.4" x="378" y="232.1648">allUsers()</text><ellipse cx="372.6" cy="239.7832" fill="#84BE84" rx="1.8" ry="1.8" style="stroke:#038048;stroke-width:0.6;"/><text fill="#000000" font-family="sans-serif" font-size="8.4" lengthAdjust="spacing" textLength="72" x="378" y="242.0578">userOfIdentity(id)</text><ellipse cx="372.6" cy="249.6762" fill="#84BE84" rx="1.8" ry="1.8" style="stroke:#038048;stroke-width:0.6;"/><text fill="#000000" font-family="sans-serif" font-size="8.4" lengthAdjust="spacing" textLength="84" x="378" y="251.9508">deactivateUser(user)</text><ellipse cx="372.6" cy="259.5691" fill="#84BE84" rx="1.8" ry="1.8" style="stroke:#038048;stroke-width:0.6;"/><text fill="#000000" font-family="sans-serif" font-size="8.4" lengthAdjust="spacing" textLength="73.8" x="378" y="261.8438">activateUser(user)</text></g><!--link DeactivateUserUI to DeactivateController--><g id="link_DeactivateUserUI_DeactivateController"><path codeLine="48" d="M92.628,171.3 C114.288,171.3 137.256,171.3 161.142,171.3 " fill="none" id="DeactivateUserUI-to-DeactivateController" style="stroke:#181818;stroke-width:0.6;"/><polygon fill="#181818" points="164.742,171.3,159.342,168.9,161.742,171.3,159.342,173.7,164.742,171.3" style="stroke:#181818;stroke-width:0.6;"/></g><!--link DeactivateController to UserManagementService--><g id="link_DeactivateController_UserManagementService"><path codeLine="50" d="M293.592,176.574 C315.57,178.386 337.3502,180.1895 362.2562,182.2475 " fill="none" id="DeactivateController-to-UserManagementService" style="stroke:#181818;stroke-width:0.6;"/><polygon fill="#181818" points="365.844,182.544,360.66,179.7075,362.8542,182.2969,360.2647,184.4912,365.844,182.544" style="stroke:#181818;stroke-width:0.6;"/></g><!--link DeactivateController to PersistenceContext--><g id="link_DeactivateController_PersistenceContext"><path codeLine="52" d="M278.412,146.772 C304.086,134.346 336.342,119.55 366,108.3 C387.984,99.966 409.3814,93.248 430.5854,87.17 " fill="none" id="DeactivateController-to-PersistenceContext" style="stroke:#181818;stroke-width:0.6;"/><polygon fill="#181818" points="434.046,86.178,428.1937,85.3589,431.1621,87.0046,429.5164,89.973,434.046,86.178" style="stroke:#181818;stroke-width:0.6;"/></g><!--link PersistenceContext to RepositoryFactory--><g id="link_PersistenceContext_RepositoryFactory"><path codeLine="55" d="M535.086,72.9 C573.444,72.9 624.12,72.9 671.718,72.9 " fill="none" id="PersistenceContext-to-RepositoryFactory" style="stroke:#181818;stroke-width:0.6;"/><polygon fill="#181818" points="675.318,72.9,669.918,70.5,672.318,72.9,669.918,75.3,675.318,72.9" style="stroke:#181818;stroke-width:0.6;"/></g><!--SRC=[jLJBSjmW4BphA-QMJKNx2xdObIeVx7NvyG5ZCQibGK1WP5dbohzdm65NicJNNgABO6Qw6-Y1B_6NjXu3Tc2q9HuzWGjyS9MXFGCx2BezC2WTg67jR5Kr1cE4IqAPFoFJOwJmU0Ml5SZt3PIxFxXXy_NVz42e4hC4_Yon5yvoSCPGEE9pAfF68ucQYMtY69cwDCoasZA5FJO4T-HTrEp2-4C0yZkoMXeU0jg8UHDeaZ2zy56Xptfh9O0zkuUNUM6PDNraryd-puNF0IKQTMjxVqU_Uufy5iyxH0d_T4yxJrRRzYoMQNc9eVT6DvXWPt7CwYSctye6jVXa6oh0OaOeDcawwIxhfspflAxHOaiTMRwdyAp5xqAucjqagr97rE2TB76iGSYTIbrJrj4cnN13G-whRAx5Zcg0WCEj20ykg3gNxtM8VFEMb2ML8NMeJGtIn1HhQ099awgT_LyIxtapwOdJ5pvucwz1FxzWQfv0O-Q1fBNRNoavPytZHgiFxcWVJ-UyaX1Z5o_8ThlzllesJ6idBqQkNxN-Cy2opwggMcdMNBnuKAg_]--></g></svg>