<?xml version="1.0" encoding="us-ascii" standalone="no"?><svg xmlns="http://www.w3.org/2000/svg" xmlns:xlink="http://www.w3.org/1999/xlink" contentStyleType="text/css" height="1313.4px" preserveAspectRatio="none" style="width:1076px;height:1313px;background:#FFFFFF;" version="1.1" viewBox="0 0 1076 1313" width="1076.4px" zoomAndPan="magnify"><defs/><g><text fill="#000000" font-family="sans-serif" font-size="8.4" font-weight="bold" lengthAdjust="spacing" textLength="63" x="502.5" y="14.1211">Domain Model</text><!--cluster Customer Aggregate--><g id="cluster_Customer Aggregate"><rect fill="none" height="187.8" rx="1.5" ry="1.5" style="stroke:#000000;stroke-width:0.8999999999999999;" width="243.3" x="386.7" y="534.293"/><text fill="#000000" font-family="sans-serif" font-size="8.4" font-weight="bold" lengthAdjust="spacing" textLength="88.8" x="463.95" y="543.6141">Customer Aggregate</text></g><!--cluster Candidate Aggregate--><g id="cluster_Candidate Aggregate"><rect fill="none" height="232.2" rx="1.5" ry="1.5" style="stroke:#000000;stroke-width:0.8999999999999999;" width="263.4" x="524.7" y="1077.893"/><text fill="#000000" font-family="sans-serif" font-size="8.4" font-weight="bold" lengthAdjust="spacing" textLength="90" x="611.4" y="1087.2141">Candidate Aggregate</text></g><!--cluster Job Requirements Specification Aggregate--><g id="cluster_Job Requirements Specification Aggregate"><rect fill="none" height="69" rx="1.5" ry="1.5" style="stroke:#000000;stroke-width:0.8999999999999999;" width="310.2" x="4.2" y="26.693"/><text fill="#000000" font-family="sans-serif" font-size="8.4" font-weight="bold" lengthAdjust="spacing" textLength="182.4" x="68.1" y="36.0141">Job Requirements Specification Aggregate</text></g><!--cluster Job Opening Aggregate--><g id="cluster_Job Opening Aggregate"><rect fill="none" height="409.8" rx="1.5" ry="1.5" style="stroke:#000000;stroke-width:0.8999999999999999;" width="408.9" x="225.3" y="110.093"/><text fill="#000000" font-family="sans-serif" font-size="8.4" font-weight="bold" lengthAdjust="spacing" textLength="100.8" x="379.35" y="119.4141">Job Opening Aggregate</text></g><!--cluster Application Aggregate--><g id="cluster_Application Aggregate"><rect fill="none" height="327" rx="1.5" ry="1.5" style="stroke:#000000;stroke-width:0.8999999999999999;" width="689.4" x="383.4" y="736.493"/><text fill="#000000" font-family="sans-serif" font-size="8.4" font-weight="bold" lengthAdjust="spacing" textLength="96" x="680.1" y="745.8141">Application Aggregate</text></g><!--class Customer--><g id="elem_Customer"><rect codeLine="27" fill="#F0FFFF" height="37.6523" id="Customer" rx="1.5" ry="1.5" style="stroke:#000000;stroke-width:0.3;" width="59.4" x="396.3" y="592.793"/><ellipse cx="405.3" cy="609.2191" fill="#ADD1B2" rx="6.6" ry="6.6" style="stroke:#181818;stroke-width:0.6;"/><path d="M407.7686,612.8191 L403.1367,612.8191 L403.1367,605.3833 L407.7686,605.3833 L407.7686,606.6782 L404.606,606.6782 L404.606,608.2819 L407.4697,608.2819 L407.4697,609.5769 L404.606,609.5769 L404.606,611.5242 L407.7686,611.5242 Z " fill="#000000"/><text fill="#000000" font-family="sans-serif" font-size="7.2" font-style="italic" lengthAdjust="spacing" textLength="25.8" x="420.9" y="602.7539">&#171;entity&#187;</text><text fill="#000000" font-family="sans-serif" font-size="7.2" font-style="italic" lengthAdjust="spacing" textLength="21" x="423.3" y="611.2336">&#171;root&#187;</text><text fill="#000000" font-family="sans-serif" font-size="8.4" lengthAdjust="spacing" textLength="40.2" x="413.7" y="620.8734">Customer</text><line style="stroke:#000000;stroke-width:0.3;" x1="396.9" x2="455.1" y1="625.6453" y2="625.6453"/></g><!--entity CustomerName--><g id="elem_CustomerName"><rect fill="#F0FFDD" height="23.3859" rx="1.5" ry="1.5" style="stroke:#000000;stroke-width:0.3;" width="75.6" x="527.1" y="688.793"/><text fill="#000000" font-family="sans-serif" font-size="8.4" font-style="italic" lengthAdjust="spacing" textLength="60" x="534.9" y="698.7141">&#171;Value Object&#187;</text><text fill="#000000" font-family="sans-serif" font-size="8.4" lengthAdjust="spacing" textLength="63.6" x="533.1" y="708.607">CustomerName</text></g><!--entity CustomerEmail--><g id="elem_CustomerEmail"><rect fill="#F0FFDD" height="23.3859" rx="1.5" ry="1.5" style="stroke:#000000;stroke-width:0.3;" width="74.4" x="527.7" y="644.393"/><text fill="#000000" font-family="sans-serif" font-size="8.4" font-style="italic" lengthAdjust="spacing" textLength="60" x="534.9" y="654.3141">&#171;Value Object&#187;</text><text fill="#000000" font-family="sans-serif" font-size="8.4" lengthAdjust="spacing" textLength="62.4" x="533.7" y="664.207">CustomerEmail</text></g><!--entity CustomerPhoneNumber--><g id="elem_CustomerPhoneNumber"><rect fill="#F0FFDD" height="23.3859" rx="1.5" ry="1.5" style="stroke:#000000;stroke-width:0.3;" width="111" x="509.4" y="599.993"/><text fill="#000000" font-family="sans-serif" font-size="8.4" font-style="italic" lengthAdjust="spacing" textLength="60" x="534.9" y="609.9141">&#171;Value Object&#187;</text><text fill="#000000" font-family="sans-serif" font-size="8.4" lengthAdjust="spacing" textLength="99" x="515.4" y="619.807">CustomerPhoneNumber</text></g><!--entity CustomerPassword--><g id="elem_CustomerPassword"><rect fill="#F0FFDD" height="23.3859" rx="1.5" ry="1.5" style="stroke:#000000;stroke-width:0.3;" width="91.2" x="519.3" y="555.593"/><text fill="#000000" font-family="sans-serif" font-size="8.4" font-style="italic" lengthAdjust="spacing" textLength="60" x="534.9" y="565.5141">&#171;Value Object&#187;</text><text fill="#000000" font-family="sans-serif" font-size="8.4" lengthAdjust="spacing" textLength="79.2" x="525.3" y="575.407">CustomerPassword</text></g><!--class Candidate--><g id="elem_Candidate"><rect codeLine="45" fill="#F0FFFF" height="37.6523" id="Candidate" rx="1.5" ry="1.5" style="stroke:#000000;stroke-width:0.3;" width="61.2" x="534.3" y="1158.593"/><ellipse cx="543.3" cy="1175.0191" fill="#ADD1B2" rx="6.6" ry="6.6" style="stroke:#181818;stroke-width:0.6;"/><path d="M545.7686,1178.6191 L541.1367,1178.6191 L541.1367,1171.1833 L545.7686,1171.1833 L545.7686,1172.4782 L542.606,1172.4782 L542.606,1174.0819 L545.4697,1174.0819 L545.4697,1175.3769 L542.606,1175.3769 L542.606,1177.3242 L545.7686,1177.3242 Z " fill="#000000"/><text fill="#000000" font-family="sans-serif" font-size="7.2" font-style="italic" lengthAdjust="spacing" textLength="25.8" x="559.8" y="1168.5539">&#171;entity&#187;</text><text fill="#000000" font-family="sans-serif" font-size="7.2" font-style="italic" lengthAdjust="spacing" textLength="21" x="562.2" y="1177.0336">&#171;root&#187;</text><text fill="#000000" font-family="sans-serif" font-size="8.4" lengthAdjust="spacing" textLength="42" x="551.7" y="1186.6734">Candidate</text><line style="stroke:#000000;stroke-width:0.3;" x1="534.9" x2="594.9" y1="1191.4453" y2="1191.4453"/></g><!--entity CandidateName--><g id="elem_CandidateName"><rect fill="#F0FFDD" height="23.3859" rx="1.5" ry="1.5" style="stroke:#000000;stroke-width:0.3;" width="77.4" x="683.4" y="1276.793"/><text fill="#000000" font-family="sans-serif" font-size="8.4" font-style="italic" lengthAdjust="spacing" textLength="60" x="692.1" y="1286.7141">&#171;Value Object&#187;</text><text fill="#000000" font-family="sans-serif" font-size="8.4" lengthAdjust="spacing" textLength="65.4" x="689.4" y="1296.607">CandidateName</text></g><!--entity CandidateEmail--><g id="elem_CandidateEmail"><rect fill="#F0FFDD" height="23.3859" rx="1.5" ry="1.5" style="stroke:#000000;stroke-width:0.3;" width="76.2" x="684" y="1232.393"/><text fill="#000000" font-family="sans-serif" font-size="8.4" font-style="italic" lengthAdjust="spacing" textLength="60" x="692.1" y="1242.3141">&#171;Value Object&#187;</text><text fill="#000000" font-family="sans-serif" font-size="8.4" lengthAdjust="spacing" textLength="64.2" x="690" y="1252.207">CandidateEmail</text></g><!--entity CandidatePhoneNumber--><g id="elem_CandidatePhoneNumber"><rect fill="#F0FFDD" height="23.3859" rx="1.5" ry="1.5" style="stroke:#000000;stroke-width:0.3;" width="112.8" x="665.7" y="1187.993"/><text fill="#000000" font-family="sans-serif" font-size="8.4" font-style="italic" lengthAdjust="spacing" textLength="60" x="692.1" y="1197.9141">&#171;Value Object&#187;</text><text fill="#000000" font-family="sans-serif" font-size="8.4" lengthAdjust="spacing" textLength="100.8" x="671.7" y="1207.807">CandidatePhoneNumber</text></g><!--entity CandidatePassword--><g id="elem_CandidatePassword"><rect fill="#F0FFDD" height="23.3859" rx="1.5" ry="1.5" style="stroke:#000000;stroke-width:0.3;" width="93" x="675.6" y="1143.593"/><text fill="#000000" font-family="sans-serif" font-size="8.4" font-style="italic" lengthAdjust="spacing" textLength="60" x="692.1" y="1153.5141">&#171;Value Object&#187;</text><text fill="#000000" font-family="sans-serif" font-size="8.4" lengthAdjust="spacing" textLength="81" x="681.6" y="1163.407">CandidatePassword</text></g><!--entity Curriculum--><g id="elem_Curriculum"><rect fill="#F0FFDD" height="23.3859" rx="1.5" ry="1.5" style="stroke:#000000;stroke-width:0.3;" width="72" x="686.1" y="1099.193"/><text fill="#000000" font-family="sans-serif" font-size="8.4" font-style="italic" lengthAdjust="spacing" textLength="60" x="692.1" y="1109.1141">&#171;Value Object&#187;</text><text fill="#000000" font-family="sans-serif" font-size="8.4" lengthAdjust="spacing" textLength="46.2" x="699" y="1119.007">Curriculum</text></g><!--class JobRequirementsSpecification--><g id="elem_JobRequirementsSpecification"><rect codeLine="67" fill="#F0FFFF" height="37.6523" id="JobRequirementsSpecification" rx="1.5" ry="1.5" style="stroke:#000000;stroke-width:0.3;" width="141.6" x="13.8" y="47.993"/><ellipse cx="22.8" cy="64.4191" fill="#ADD1B2" rx="6.6" ry="6.6" style="stroke:#181818;stroke-width:0.6;"/><path d="M25.2686,68.0191 L20.6367,68.0191 L20.6367,60.5833 L25.2686,60.5833 L25.2686,61.8782 L22.106,61.8782 L22.106,63.4819 L24.9697,63.4819 L24.9697,64.7769 L22.106,64.7769 L22.106,66.7242 L25.2686,66.7242 Z " fill="#000000"/><text fill="#000000" font-family="sans-serif" font-size="7.2" font-style="italic" lengthAdjust="spacing" textLength="25.8" x="79.5" y="57.9539">&#171;entity&#187;</text><text fill="#000000" font-family="sans-serif" font-size="7.2" font-style="italic" lengthAdjust="spacing" textLength="21" x="81.9" y="66.4336">&#171;root&#187;</text><text fill="#000000" font-family="sans-serif" font-size="8.4" lengthAdjust="spacing" textLength="122.4" x="31.2" y="76.0734">JobRequirementsSpecification</text><line style="stroke:#000000;stroke-width:0.3;" x1="14.4" x2="154.8" y1="80.8453" y2="80.8453"/></g><!--entity Requirements--><g id="elem_Requirements"><rect fill="#F0FFDD" height="23.3859" rx="1.5" ry="1.5" style="stroke:#000000;stroke-width:0.3;" width="72" x="232.8" y="55.193"/><text fill="#000000" font-family="sans-serif" font-size="8.4" font-style="italic" lengthAdjust="spacing" textLength="60" x="238.8" y="65.1141">&#171;Value Object&#187;</text><text fill="#000000" font-family="sans-serif" font-size="8.4" lengthAdjust="spacing" textLength="57" x="240.3" y="75.007">Requirements</text></g><!--class JobOpening--><g id="elem_JobOpening"><rect codeLine="77" fill="#F0FFFF" height="37.6523" id="JobOpening" rx="1.5" ry="1.5" style="stroke:#000000;stroke-width:0.3;" width="67.8" x="234.9" y="323.993"/><ellipse cx="243.9" cy="340.4191" fill="#ADD1B2" rx="6.6" ry="6.6" style="stroke:#181818;stroke-width:0.6;"/><path d="M246.3686,344.0191 L241.7367,344.0191 L241.7367,336.5833 L246.3686,336.5833 L246.3686,337.8782 L243.206,337.8782 L243.206,339.4819 L246.0697,339.4819 L246.0697,340.7769 L243.206,340.7769 L243.206,342.7242 L246.3686,342.7242 Z " fill="#000000"/><text fill="#000000" font-family="sans-serif" font-size="7.2" font-style="italic" lengthAdjust="spacing" textLength="25.8" x="263.7" y="333.9539">&#171;entity&#187;</text><text fill="#000000" font-family="sans-serif" font-size="7.2" font-style="italic" lengthAdjust="spacing" textLength="21" x="266.1" y="342.4336">&#171;root&#187;</text><text fill="#000000" font-family="sans-serif" font-size="8.4" lengthAdjust="spacing" textLength="48.6" x="252.3" y="352.0734">JobOpening</text><line style="stroke:#000000;stroke-width:0.3;" x1="235.5" x2="302.1" y1="356.8453" y2="356.8453"/></g><g id="elem_GMN48"><path d="M505.2,403.493 L505.2,413.249 L462.24,412.289 L505.2,418.049 L505.2,437.052 A0,0 0 0 0 505.2,437.052 L624.6,437.052 A0,0 0 0 0 624.6,437.052 L624.6,409.493 L618.6,403.493 L505.2,403.493 A0,0 0 0 0 505.2,403.493 " fill="#FEFFDD" style="stroke:#181818;stroke-width:0.3;"/><path d="M618.6,403.493 L618.6,409.493 L624.6,409.493 L618.6,403.493 " fill="#FEFFDD" style="stroke:#181818;stroke-width:0.3;"/><text fill="#000000" font-family="sans-serif" font-size="7.8" lengthAdjust="spacing" textLength="106.8" x="508.8" y="414.034">Can be one of the following:</text><text fill="#000000" font-family="sans-serif" font-size="7.8" lengthAdjust="spacing" textLength="41.4" x="508.8" y="423.2203">- full-time</text><text fill="#000000" font-family="sans-serif" font-size="7.8" lengthAdjust="spacing" textLength="43.8" x="508.8" y="432.4066">- part-time</text></g><g id="elem_GMN51"><path d="M505.2,339.593 L505.2,360.299 L462.24,364.007 L505.2,365.099 L505.2,382.3383 A0,0 0 0 0 505.2,382.3383 L624.6,382.3383 A0,0 0 0 0 624.6,382.3383 L624.6,345.593 L618.6,339.593 L505.2,339.593 A0,0 0 0 0 505.2,339.593 " fill="#FEFFDD" style="stroke:#181818;stroke-width:0.3;"/><path d="M618.6,339.593 L618.6,345.593 L624.6,345.593 L618.6,339.593 " fill="#FEFFDD" style="stroke:#181818;stroke-width:0.3;"/><text fill="#000000" font-family="sans-serif" font-size="7.8" lengthAdjust="spacing" textLength="106.8" x="508.8" y="350.134">Can be one of the following:</text><text fill="#000000" font-family="sans-serif" font-size="7.8" lengthAdjust="spacing" textLength="33.6" x="508.8" y="359.3203">- remote</text><text fill="#000000" font-family="sans-serif" font-size="7.8" lengthAdjust="spacing" textLength="31.2" x="508.8" y="368.5066">- hybrid</text><text fill="#000000" font-family="sans-serif" font-size="7.8" lengthAdjust="spacing" textLength="30.6" x="508.8" y="377.693">- onsite</text></g><g id="elem_GMN54"><path d="M505.2,131.093 L505.2,151.289 L462.24,147.905 L505.2,156.089 L505.2,192.2109 A0,0 0 0 0 505.2,192.2109 L624.6,192.2109 A0,0 0 0 0 624.6,192.2109 L624.6,137.093 L618.6,131.093 L505.2,131.093 A0,0 0 0 0 505.2,131.093 " fill="#FEFFDD" style="stroke:#181818;stroke-width:0.3;"/><path d="M618.6,131.093 L618.6,137.093 L624.6,137.093 L618.6,131.093 " fill="#FEFFDD" style="stroke:#181818;stroke-width:0.3;"/><text fill="#000000" font-family="sans-serif" font-size="7.8" lengthAdjust="spacing" textLength="106.8" x="508.8" y="141.634">Can be one of the following:</text><text fill="#000000" font-family="sans-serif" font-size="7.8" lengthAdjust="spacing" textLength="50.4" x="508.8" y="150.8203">- Application</text><text fill="#000000" font-family="sans-serif" font-size="7.8" lengthAdjust="spacing" textLength="43.8" x="508.8" y="160.0066">- Screening</text><text fill="#000000" font-family="sans-serif" font-size="7.8" lengthAdjust="spacing" textLength="45.6" x="508.8" y="169.193">- Interviews</text><text fill="#000000" font-family="sans-serif" font-size="7.8" lengthAdjust="spacing" textLength="39" x="508.8" y="178.3793">- Analysis</text><text fill="#000000" font-family="sans-serif" font-size="7.8" lengthAdjust="spacing" textLength="30.6" x="508.8" y="187.5656">- Result</text></g><!--entity JobReference--><g id="elem_JobReference"><rect fill="#F0FFDD" height="23.3859" rx="1.5" ry="1.5" style="stroke:#000000;stroke-width:0.3;" width="72" x="390" y="486.593"/><text fill="#000000" font-family="sans-serif" font-size="8.4" font-style="italic" lengthAdjust="spacing" textLength="60" x="396" y="496.5141">&#171;Value Object&#187;</text><text fill="#000000" font-family="sans-serif" font-size="8.4" lengthAdjust="spacing" textLength="54" x="399" y="506.407">JobReference</text></g><!--entity TitleOrFunction--><g id="elem_TitleOrFunction"><rect fill="#F0FFDD" height="23.3859" rx="1.5" ry="1.5" style="stroke:#000000;stroke-width:0.3;" width="76.2" x="387.9" y="442.193"/><text fill="#000000" font-family="sans-serif" font-size="8.4" font-style="italic" lengthAdjust="spacing" textLength="60" x="396" y="452.1141">&#171;Value Object&#187;</text><text fill="#000000" font-family="sans-serif" font-size="8.4" lengthAdjust="spacing" textLength="64.2" x="393.9" y="462.007">TitleOrFunction</text></g><!--entity ContractType--><g id="elem_ContractType"><rect fill="#F0FFDD" height="23.3859" rx="1.5" ry="1.5" style="stroke:#000000;stroke-width:0.3;" width="72" x="390" y="397.793"/><text fill="#000000" font-family="sans-serif" font-size="8.4" font-style="italic" lengthAdjust="spacing" textLength="60" x="396" y="407.7141">&#171;Value Object&#187;</text><text fill="#000000" font-family="sans-serif" font-size="8.4" lengthAdjust="spacing" textLength="55.2" x="398.4" y="417.607">ContractType</text></g><!--entity Mode--><g id="elem_Mode"><rect fill="#F0FFDD" height="23.3859" rx="1.5" ry="1.5" style="stroke:#000000;stroke-width:0.3;" width="72" x="390" y="353.393"/><text fill="#000000" font-family="sans-serif" font-size="8.4" font-style="italic" lengthAdjust="spacing" textLength="60" x="396" y="363.3141">&#171;Value Object&#187;</text><text fill="#000000" font-family="sans-serif" font-size="8.4" lengthAdjust="spacing" textLength="22.8" x="414.6" y="373.207">Mode</text></g><!--entity Address--><g id="elem_Address"><rect fill="#F0FFDD" height="23.3859" rx="1.5" ry="1.5" style="stroke:#000000;stroke-width:0.3;" width="72" x="390" y="308.993"/><text fill="#000000" font-family="sans-serif" font-size="8.4" font-style="italic" lengthAdjust="spacing" textLength="60" x="396" y="318.9141">&#171;Value Object&#187;</text><text fill="#000000" font-family="sans-serif" font-size="8.4" lengthAdjust="spacing" textLength="33.6" x="409.2" y="328.807">Address</text></g><!--entity Company--><g id="elem_Company"><rect fill="#F0FFDD" height="23.3859" rx="1.5" ry="1.5" style="stroke:#000000;stroke-width:0.3;" width="72" x="390" y="264.593"/><text fill="#000000" font-family="sans-serif" font-size="8.4" font-style="italic" lengthAdjust="spacing" textLength="60" x="396" y="274.5141">&#171;Value Object&#187;</text><text fill="#000000" font-family="sans-serif" font-size="8.4" lengthAdjust="spacing" textLength="39" x="406.5" y="284.407">Company</text></g><!--entity VacanciesNumber--><g id="elem_VacanciesNumber"><rect fill="#F0FFDD" height="23.3859" rx="1.5" ry="1.5" style="stroke:#000000;stroke-width:0.3;" width="85.2" x="383.4" y="220.193"/><text fill="#000000" font-family="sans-serif" font-size="8.4" font-style="italic" lengthAdjust="spacing" textLength="60" x="396" y="230.1141">&#171;Value Object&#187;</text><text fill="#000000" font-family="sans-serif" font-size="8.4" lengthAdjust="spacing" textLength="73.2" x="389.4" y="240.007">VacanciesNumber</text></g><!--entity Description--><g id="elem_Description"><rect fill="#F0FFDD" height="23.3859" rx="1.5" ry="1.5" style="stroke:#000000;stroke-width:0.3;" width="72" x="390" y="175.793"/><text fill="#000000" font-family="sans-serif" font-size="8.4" font-style="italic" lengthAdjust="spacing" textLength="60" x="396" y="185.7141">&#171;Value Object&#187;</text><text fill="#000000" font-family="sans-serif" font-size="8.4" lengthAdjust="spacing" textLength="46.8" x="402.6" y="195.607">Description</text></g><!--entity ProcessState--><g id="elem_ProcessState"><rect fill="#F0FFDD" height="23.3859" rx="1.5" ry="1.5" style="stroke:#000000;stroke-width:0.3;" width="72" x="390" y="131.393"/><text fill="#000000" font-family="sans-serif" font-size="8.4" font-style="italic" lengthAdjust="spacing" textLength="60" x="396" y="141.3141">&#171;Value Object&#187;</text><text fill="#000000" font-family="sans-serif" font-size="8.4" lengthAdjust="spacing" textLength="51.6" x="400.2" y="151.207">ProcessState</text></g><!--class Application--><g id="elem_Application"><rect codeLine="131" fill="#F0FFFF" height="37.6523" id="Application" rx="1.5" ry="1.5" style="stroke:#000000;stroke-width:0.3;" width="66" x="393" y="883.793"/><ellipse cx="402" cy="900.2191" fill="#ADD1B2" rx="6.6" ry="6.6" style="stroke:#181818;stroke-width:0.6;"/><path d="M404.4686,903.8191 L399.8367,903.8191 L399.8367,896.3833 L404.4686,896.3833 L404.4686,897.6782 L401.306,897.6782 L401.306,899.2819 L404.1697,899.2819 L404.1697,900.5769 L401.306,900.5769 L401.306,902.5242 L404.4686,902.5242 Z " fill="#000000"/><text fill="#000000" font-family="sans-serif" font-size="7.2" font-style="italic" lengthAdjust="spacing" textLength="25.8" x="420.9" y="893.7539">&#171;entity&#187;</text><text fill="#000000" font-family="sans-serif" font-size="7.2" font-style="italic" lengthAdjust="spacing" textLength="21" x="423.3" y="902.2336">&#171;root&#187;</text><text fill="#000000" font-family="sans-serif" font-size="8.4" lengthAdjust="spacing" textLength="46.8" x="410.4" y="911.8734">Application</text><line style="stroke:#000000;stroke-width:0.3;" x1="393.6" x2="458.4" y1="916.6453" y2="916.6453"/></g><g id="elem_GMN71"><path d="M662.4,787.793 L662.4,811.493 L601.092,813.893 L662.4,816.293 L662.4,839.7246 A0,0 0 0 0 662.4,839.7246 L781.8,839.7246 A0,0 0 0 0 781.8,839.7246 L781.8,793.793 L775.8,787.793 L662.4,787.793 A0,0 0 0 0 662.4,787.793 " fill="#FEFFDD" style="stroke:#181818;stroke-width:0.3;"/><path d="M775.8,787.793 L775.8,793.793 L781.8,793.793 L775.8,787.793 " fill="#FEFFDD" style="stroke:#181818;stroke-width:0.3;"/><text fill="#000000" font-family="sans-serif" font-size="7.8" lengthAdjust="spacing" textLength="106.8" x="666" y="798.334">Can be one of the following:</text><text fill="#000000" font-family="sans-serif" font-size="7.8" lengthAdjust="spacing" textLength="45.6" x="666" y="807.5203">- submitted</text><text fill="#000000" font-family="sans-serif" font-size="7.8" lengthAdjust="spacing" textLength="37.8" x="666" y="816.7066">- pending</text><text fill="#000000" font-family="sans-serif" font-size="7.8" lengthAdjust="spacing" textLength="40.8" x="666" y="825.893">- accepted</text><text fill="#000000" font-family="sans-serif" font-size="7.8" lengthAdjust="spacing" textLength="39" x="666" y="835.0793">- declined</text></g><!--class JobInterview--><g id="elem_JobInterview"><rect codeLine="161" fill="#F0FFFF" height="29.1727" id="JobInterview" rx="1.5" ry="1.5" style="stroke:#000000;stroke-width:0.3;" width="69.6" x="530.1" y="1024.193"/><ellipse cx="539.1" cy="1036.3793" fill="#ADD1B2" rx="6.6" ry="6.6" style="stroke:#181818;stroke-width:0.6;"/><path d="M541.5686,1039.9793 L536.9367,1039.9793 L536.9367,1032.5435 L541.5686,1032.5435 L541.5686,1033.8384 L538.406,1033.8384 L538.406,1035.4421 L541.2697,1035.4421 L541.2697,1036.737 L538.406,1036.737 L538.406,1038.6844 L541.5686,1038.6844 Z " fill="#000000"/><text fill="#000000" font-family="sans-serif" font-size="7.2" font-style="italic" lengthAdjust="spacing" textLength="25.8" x="559.8" y="1034.1539">&#171;entity&#187;</text><text fill="#000000" font-family="sans-serif" font-size="8.4" lengthAdjust="spacing" textLength="50.4" x="547.5" y="1043.7938">JobInterview</text><line style="stroke:#000000;stroke-width:0.3;" x1="530.7" x2="599.1" y1="1048.5656" y2="1048.5656"/></g><g id="elem_GMN81"><path d="M818.4,955.793 L818.4,1022.489 L759.594,1034.585 L818.4,1027.289 L818.4,1053.6563 A0,0 0 0 0 818.4,1053.6563 L1063.2,1053.6563 A0,0 0 0 0 1063.2,1053.6563 L1063.2,961.793 L1057.2,955.793 L818.4,955.793 A0,0 0 0 0 818.4,955.793 " fill="#FEFFDD" style="stroke:#181818;stroke-width:0.3;"/><path d="M1057.2,955.793 L1057.2,961.793 L1063.2,961.793 L1057.2,955.793 " fill="#FEFFDD" style="stroke:#181818;stroke-width:0.3;"/><text fill="#000000" font-family="sans-serif" font-size="7.8" lengthAdjust="spacing" textLength="232.2" x="822" y="966.334">At least the following type of questions should be supported:</text><text fill="#000000" font-family="sans-serif" font-size="7.8" lengthAdjust="spacing" textLength="44.4" x="822" y="975.5203">- true/false</text><text fill="#000000" font-family="sans-serif" font-size="7.8" lengthAdjust="spacing" textLength="73.2" x="822" y="984.7066">- short text answer</text><text fill="#000000" font-family="sans-serif" font-size="7.8" lengthAdjust="spacing" textLength="90.6" x="822" y="993.893">- choice (single answer)</text><text fill="#000000" font-family="sans-serif" font-size="7.8" lengthAdjust="spacing" textLength="99" x="822" y="1003.0793">- choice (multiple answer)</text><text fill="#000000" font-family="sans-serif" font-size="7.8" lengthAdjust="spacing" textLength="64.8" x="822" y="1012.2656">- integer number</text><text fill="#000000" font-family="sans-serif" font-size="7.8" lengthAdjust="spacing" textLength="67.8" x="822" y="1021.452">- decimal number</text><text fill="#000000" font-family="sans-serif" font-size="7.8" lengthAdjust="spacing" textLength="23.4" x="822" y="1030.6383">- date</text><text fill="#000000" font-family="sans-serif" font-size="7.8" lengthAdjust="spacing" textLength="24" x="822" y="1039.8246">- time</text><text fill="#000000" font-family="sans-serif" font-size="7.8" lengthAdjust="spacing" textLength="59.4" x="822" y="1049.0109">- numeric scale</text></g><!--entity EmailContentFile--><g id="elem_EmailContentFile"><rect fill="#F0FFDD" height="23.3859" rx="1.5" ry="1.5" style="stroke:#000000;stroke-width:0.3;" width="81.6" x="524.1" y="979.793"/><text fill="#000000" font-family="sans-serif" font-size="8.4" font-style="italic" lengthAdjust="spacing" textLength="60" x="534.9" y="989.7141">&#171;Value Object&#187;</text><text fill="#000000" font-family="sans-serif" font-size="8.4" lengthAdjust="spacing" textLength="69.6" x="530.1" y="999.607">EmailContentFile</text></g><!--entity EmailFilesAttached--><g id="elem_EmailFilesAttached"><rect fill="#F0FFDD" height="23.3859" rx="1.5" ry="1.5" style="stroke:#000000;stroke-width:0.3;" width="89.4" x="520.2" y="935.393"/><text fill="#000000" font-family="sans-serif" font-size="8.4" font-style="italic" lengthAdjust="spacing" textLength="60" x="534.9" y="945.3141">&#171;Value Object&#187;</text><text fill="#000000" font-family="sans-serif" font-size="8.4" lengthAdjust="spacing" textLength="77.4" x="526.2" y="955.207">EmailFilesAttached</text></g><!--entity FilesAttachedContent--><g id="elem_FilesAttachedContent"><rect fill="#F0FFDD" height="23.3859" rx="1.5" ry="1.5" style="stroke:#000000;stroke-width:0.3;" width="100.2" x="514.8" y="890.993"/><text fill="#000000" font-family="sans-serif" font-size="8.4" font-style="italic" lengthAdjust="spacing" textLength="60" x="534.9" y="900.9141">&#171;Value Object&#187;</text><text fill="#000000" font-family="sans-serif" font-size="8.4" lengthAdjust="spacing" textLength="88.2" x="520.8" y="910.807">FilesAttachedContent</text></g><!--entity ApplicationDataFile--><g id="elem_ApplicationDataFile"><rect fill="#F0FFDD" height="23.3859" rx="1.5" ry="1.5" style="stroke:#000000;stroke-width:0.3;" width="91.8" x="519" y="846.593"/><text fill="#000000" font-family="sans-serif" font-size="8.4" font-style="italic" lengthAdjust="spacing" textLength="60" x="534.9" y="856.5141">&#171;Value Object&#187;</text><text fill="#000000" font-family="sans-serif" font-size="8.4" lengthAdjust="spacing" textLength="79.8" x="525" y="866.407">ApplicationDataFile</text></g><!--entity Status--><g id="elem_Status"><rect fill="#F0FFDD" height="23.3859" rx="1.5" ry="1.5" style="stroke:#000000;stroke-width:0.3;" width="72" x="528.9" y="802.193"/><text fill="#000000" font-family="sans-serif" font-size="8.4" font-style="italic" lengthAdjust="spacing" textLength="60" x="534.9" y="812.1141">&#171;Value Object&#187;</text><text fill="#000000" font-family="sans-serif" font-size="8.4" lengthAdjust="spacing" textLength="25.2" x="552.3" y="822.007">Status</text></g><!--entity SubmissionDate--><g id="elem_SubmissionDate"><rect fill="#F0FFDD" height="23.3859" rx="1.5" ry="1.5" style="stroke:#000000;stroke-width:0.3;" width="78" x="525.9" y="757.793"/><text fill="#000000" font-family="sans-serif" font-size="8.4" font-style="italic" lengthAdjust="spacing" textLength="60" x="534.9" y="767.7141">&#171;Value Object&#187;</text><text fill="#000000" font-family="sans-serif" font-size="8.4" lengthAdjust="spacing" textLength="66" x="531.9" y="777.607">SubmissionDate</text></g><!--entity InterviewModel--><g id="elem_InterviewModel"><rect fill="#F0FFDD" height="23.3859" rx="1.5" ry="1.5" style="stroke:#000000;stroke-width:0.3;" width="74.4" x="684.9" y="1028.993"/><text fill="#000000" font-family="sans-serif" font-size="8.4" font-style="italic" lengthAdjust="spacing" textLength="60" x="692.1" y="1038.9141">&#171;Value Object&#187;</text><text fill="#000000" font-family="sans-serif" font-size="8.4" lengthAdjust="spacing" textLength="62.4" x="690.9" y="1048.807">InterviewModel</text></g><!--entity Result--><g id="elem_Result"><rect fill="#F0FFDD" height="23.3859" rx="1.5" ry="1.5" style="stroke:#000000;stroke-width:0.3;" width="72" x="686.1" y="984.593"/><text fill="#000000" font-family="sans-serif" font-size="8.4" font-style="italic" lengthAdjust="spacing" textLength="60" x="692.1" y="994.5141">&#171;Value Object&#187;</text><text fill="#000000" font-family="sans-serif" font-size="8.4" lengthAdjust="spacing" textLength="25.2" x="709.5" y="1004.407">Result</text></g><!--entity InterviewTime--><g id="elem_InterviewTime"><rect fill="#F0FFDD" height="23.3859" rx="1.5" ry="1.5" style="stroke:#000000;stroke-width:0.3;" width="72" x="686.1" y="940.193"/><text fill="#000000" font-family="sans-serif" font-size="8.4" font-style="italic" lengthAdjust="spacing" textLength="60" x="692.1" y="950.1141">&#171;Value Object&#187;</text><text fill="#000000" font-family="sans-serif" font-size="8.4" lengthAdjust="spacing" textLength="57.6" x="693.3" y="960.007">InterviewTime</text></g><!--link Customer to CustomerEmail--><g id="link_Customer_CustomerEmail"><path codeLine="38" d="M455.97,621.161 C476.904,627.911 501.7618,635.9259 524.1778,643.1559 " fill="none" id="Customer-to-CustomerEmail" style="stroke:#808080;stroke-width:0.6;"/><polygon fill="#808080" points="527.604,644.261,523.2014,640.3192,524.7488,643.3401,521.728,644.8875,527.604,644.261" style="stroke:#808080;stroke-width:0.6;"/></g><!--link Customer to CustomerName--><g id="link_Customer_CustomerName"><path codeLine="39" d="M445.35,630.839 C460.44,645.401 482.76,665.111 505.2,678.293 C511.908,682.235 516.1002,684.3632 523.4862,687.3092 " fill="none" id="Customer-to-CustomerName" style="stroke:#808080;stroke-width:0.6;"/><polygon fill="#808080" points="526.83,688.643,522.7034,684.4132,524.0435,687.5315,520.9251,688.8716,526.83,688.643" style="stroke:#808080;stroke-width:0.6;"/></g><!--link Customer to CustomerPhoneNumber--><g id="link_Customer_CustomerPhoneNumber"><path codeLine="40" d="M455.97,611.693 C471.45,611.693 487.356,611.693 505.536,611.693 " fill="none" id="Customer-to-CustomerPhoneNumber" style="stroke:#808080;stroke-width:0.6;"/><polygon fill="#808080" points="509.136,611.693,503.736,609.293,506.136,611.693,503.736,614.093,509.136,611.693" style="stroke:#808080;stroke-width:0.6;"/></g><!--link Customer to CustomerPassword--><g id="link_Customer_CustomerPassword"><path codeLine="41" d="M455.97,602.225 C476.742,595.523 501.3359,587.5985 523.6679,580.3925 " fill="none" id="Customer-to-CustomerPassword" style="stroke:#808080;stroke-width:0.6;"/><polygon fill="#808080" points="527.094,579.287,521.2179,578.6612,524.239,580.2082,522.6919,583.2293,527.094,579.287" style="stroke:#808080;stroke-width:0.6;"/></g><!--link Candidate to CandidateEmail--><g id="link_Candidate_CandidateEmail"><path codeLine="58" d="M595.59,1191.941 C614.604,1200.905 639.762,1212.467 662.4,1221.893 C670.746,1225.367 676.485,1227.6382 684.993,1230.8422 " fill="none" id="Candidate-to-CandidateEmail" style="stroke:#808080;stroke-width:0.6;"/><polygon fill="#808080" points="688.362,1232.111,684.1543,1227.9619,685.5545,1231.0537,682.4626,1232.4539,688.362,1232.111" style="stroke:#808080;stroke-width:0.6;"/></g><!--link Candidate to CandidateName--><g id="link_Candidate_CandidateName"><path codeLine="59" d="M582.192,1196.615 C600.276,1216.343 630.798,1246.895 662.4,1266.293 C668.796,1270.223 672.6671,1272.2811 679.7951,1275.1791 " fill="none" id="Candidate-to-CandidateName" style="stroke:#808080;stroke-width:0.6;"/><polygon fill="#808080" points="683.13,1276.535,679.0315,1272.2779,680.3509,1275.4051,677.2237,1276.7245,683.13,1276.535" style="stroke:#808080;stroke-width:0.6;"/></g><!--link Candidate to CandidatePhoneNumber--><g id="link_Candidate_CandidatePhoneNumber"><path codeLine="60" d="M595.764,1181.801 C615.522,1184.609 638.3578,1187.8643 661.8658,1191.2063 " fill="none" id="Candidate-to-CandidatePhoneNumber" style="stroke:#808080;stroke-width:0.6;"/><polygon fill="#808080" points="665.43,1191.713,660.4216,1188.5768,662.4599,1191.2907,659.746,1193.329,665.43,1191.713" style="stroke:#808080;stroke-width:0.6;"/></g><!--link Candidate to CandidatePassword--><g id="link_Candidate_CandidatePassword"><path codeLine="61" d="M595.764,1173.185 C618.36,1169.969 646.0678,1166.0235 671.7778,1162.3695 " fill="none" id="Candidate-to-CandidatePassword" style="stroke:#808080;stroke-width:0.6;"/><polygon fill="#808080" points="675.342,1161.863,669.658,1160.2467,672.3718,1162.2851,670.3334,1164.9989,675.342,1161.863" style="stroke:#808080;stroke-width:0.6;"/></g><!--link Candidate to Curriculum--><g id="link_Candidate_Curriculum"><path codeLine="62" d="M595.59,1163.045 C614.604,1154.081 639.762,1142.519 662.4,1133.093 C670.746,1129.619 676.485,1127.3477 684.993,1124.1437 " fill="none" id="Candidate-to-Curriculum" style="stroke:#808080;stroke-width:0.6;"/><polygon fill="#808080" points="688.362,1122.875,682.4626,1122.532,685.5545,1123.9322,684.1543,1127.0241,688.362,1122.875" style="stroke:#808080;stroke-width:0.6;"/></g><!--link JobRequirementsSpecification to Requirements--><g id="link_JobRequirementsSpecification_Requirements"><path codeLine="72" d="M155.688,66.893 C181.968,66.893 207.096,66.893 228.942,66.893 " fill="none" id="JobRequirementsSpecification-to-Requirements" style="stroke:#808080;stroke-width:0.6;"/><polygon fill="#808080" points="232.542,66.893,227.142,64.493,229.542,66.893,227.142,69.293,232.542,66.893" style="stroke:#808080;stroke-width:0.6;"/></g><!--link JobOpening to JobReference--><g id="link_JobOpening_JobReference"><path codeLine="98" d="M280.068,362.057 C290.262,379.607 306.606,405.869 324,426.293 C345.294,451.295 351.33,457.787 378.6,476.093 C384.198,479.855 387.2997,481.736 393.4617,484.748 " fill="none" id="JobOpening-to-JobReference" style="stroke:#808080;stroke-width:0.6;"/><polygon fill="#808080" points="396.696,486.329,392.8985,481.8014,394.0008,485.0115,390.7906,486.1138,396.696,486.329" style="stroke:#808080;stroke-width:0.6;"/></g><!--link JobOpening to TitleOrFunction--><g id="link_JobOpening_TitleOrFunction"><path codeLine="99" d="M289.806,362.009 C310.932,381.173 345.432,410.765 378.6,431.693 C384.456,435.389 387.786,437.2997 394.104,440.3597 " fill="none" id="JobOpening-to-TitleOrFunction" style="stroke:#808080;stroke-width:0.6;"/><polygon fill="#808080" points="397.344,441.929,393.5302,437.4151,394.644,440.6213,391.4379,441.7351,397.344,441.929" style="stroke:#808080;stroke-width:0.6;"/></g><!--link JobOpening to ContractType--><g id="link_JobOpening_ContractType"><path codeLine="100" d="M302.868,357.179 C331.068,369.221 367.639,384.8358 394.153,396.1518 " fill="none" id="JobOpening-to-ContractType" style="stroke:#808080;stroke-width:0.6;"/><polygon fill="#808080" points="397.464,397.565,393.4395,393.2379,394.7048,396.3874,391.5553,397.6526,397.464,397.565" style="stroke:#808080;stroke-width:0.6;"/></g><!--link JobOpening to Mode--><g id="link_JobOpening_Mode"><path codeLine="101" d="M302.868,347.657 C328.47,351.299 360.1379,355.8081 386.2559,359.5221 " fill="none" id="JobOpening-to-Mode" style="stroke:#808080;stroke-width:0.6;"/><polygon fill="#808080" points="389.82,360.029,384.8117,356.8926,386.8499,359.6066,384.1359,361.6448,389.82,360.029" style="stroke:#808080;stroke-width:0.6;"/></g><!--link JobOpening to Address--><g id="link_JobOpening_Address"><path codeLine="102" d="M302.868,338.129 C328.47,334.487 360.1379,329.9778 386.2559,326.2638 " fill="none" id="JobOpening-to-Address" style="stroke:#808080;stroke-width:0.6;"/><polygon fill="#808080" points="389.82,325.757,384.1359,324.1411,386.8499,326.1793,384.8117,328.8933,389.82,325.757" style="stroke:#808080;stroke-width:0.6;"/></g><!--link JobOpening to Company--><g id="link_JobOpening_Company"><path codeLine="103" d="M302.868,328.607 C331.068,316.565 367.639,300.9501 394.153,289.6341 " fill="none" id="JobOpening-to-Company" style="stroke:#808080;stroke-width:0.6;"/><polygon fill="#808080" points="397.464,288.221,391.5553,288.1333,394.7048,289.3986,393.4395,292.548,397.464,288.221" style="stroke:#808080;stroke-width:0.6;"/></g><!--link JobOpening to VacanciesNumber--><g id="link_JobOpening_VacanciesNumber"><path codeLine="104" d="M289.806,323.777 C310.932,304.613 345.432,275.021 378.6,254.093 C384.456,250.397 387.786,248.4862 394.104,245.4262 " fill="none" id="JobOpening-to-VacanciesNumber" style="stroke:#808080;stroke-width:0.6;"/><polygon fill="#808080" points="397.344,243.857,391.4379,244.0508,394.644,245.1647,393.5302,248.3708,397.344,243.857" style="stroke:#808080;stroke-width:0.6;"/></g><!--link JobOpening to Description--><g id="link_JobOpening_Description"><path codeLine="105" d="M280.968,323.777 C298.854,295.583 335.658,242.639 378.6,209.693 C383.664,205.805 386.3067,203.9902 392.1267,201.0502 " fill="none" id="JobOpening-to-Description" style="stroke:#808080;stroke-width:0.6;"/><polygon fill="#808080" points="395.34,199.427,389.4379,199.7196,392.6623,200.7796,391.6022,204.004,395.34,199.427" style="stroke:#808080;stroke-width:0.6;"/></g><!--link JobOpening to ProcessState--><g id="link_JobOpening_ProcessState"><path codeLine="106" d="M276.12,323.903 C289.806,287.867 324.3,209.243 378.6,165.293 C383.424,161.387 385.8454,159.627 391.4854,156.723 " fill="none" id="JobOpening-to-ProcessState" style="stroke:#808080;stroke-width:0.6;"/><polygon fill="#808080" points="394.686,155.075,388.7864,155.4132,392.0188,156.4483,390.9837,159.6807,394.686,155.075" style="stroke:#808080;stroke-width:0.6;"/></g><!--link Application to EmailContentFile--><g id="link_Application_EmailContentFile"><path codeLine="146" d="M445.35,921.839 C460.44,936.401 482.76,956.111 505.2,969.293 C511.818,973.181 515.8919,975.263 523.1759,978.179 " fill="none" id="Application-to-EmailContentFile" style="stroke:#808080;stroke-width:0.6;"/><polygon fill="#808080" points="526.518,979.517,522.3968,975.2819,523.7329,978.402,520.6128,979.7381,526.518,979.517" style="stroke:#808080;stroke-width:0.6;"/></g><!--link Application to EmailFilesAttached--><g id="link_Application_EmailFilesAttached"><path codeLine="147" d="M459.234,913.217 C479.67,919.805 502.6379,927.2077 523.8599,934.0537 " fill="none" id="Application-to-EmailFilesAttached" style="stroke:#808080;stroke-width:0.6;"/><polygon fill="#808080" points="527.286,935.159,522.8836,931.217,524.4309,934.2379,521.41,935.7852,527.286,935.159" style="stroke:#808080;stroke-width:0.6;"/></g><!--link Application to FilesAttachedContent--><g id="link_Application_FilesAttachedContent"><path codeLine="148" d="M459.234,902.693 C475.776,902.693 492.618,902.693 511.062,902.693 " fill="none" id="Application-to-FilesAttachedContent" style="stroke:#808080;stroke-width:0.6;"/><polygon fill="#808080" points="514.662,902.693,509.262,900.293,511.662,902.693,509.262,905.093,514.662,902.693" style="stroke:#808080;stroke-width:0.6;"/></g><!--link Application to ApplicationDataFile--><g id="link_Application_ApplicationDataFile"><path codeLine="149" d="M459.234,892.169 C479.67,885.581 502.6379,878.1782 523.8599,871.3322 " fill="none" id="Application-to-ApplicationDataFile" style="stroke:#808080;stroke-width:0.6;"/><polygon fill="#808080" points="527.286,870.227,521.41,869.6007,524.4309,871.148,522.8836,874.1689,527.286,870.227" style="stroke:#808080;stroke-width:0.6;"/></g><!--link Application to Status--><g id="link_Application_Status"><path codeLine="150" d="M445.35,883.547 C460.44,868.985 482.76,849.275 505.2,836.093 C512.478,831.821 517.3669,829.4121 525.3409,826.3101 " fill="none" id="Application-to-Status" style="stroke:#808080;stroke-width:0.6;"/><polygon fill="#808080" points="528.696,825.005,522.7933,824.726,525.9001,826.0926,524.5335,829.1994,528.696,825.005" style="stroke:#808080;stroke-width:0.6;"/></g><!--link Application to SubmissionDate--><g id="link_Application_SubmissionDate"><path codeLine="151" d="M435.612,883.547 C448.044,859.049 472.668,816.785 505.2,791.693 C511.278,787.007 515.128,784.619 522.34,781.595 " fill="none" id="Application-to-SubmissionDate" style="stroke:#808080;stroke-width:0.6;"/><polygon fill="#808080" points="525.66,780.203,519.752,780.0778,522.8934,781.363,521.6081,784.5044,525.66,780.203" style="stroke:#808080;stroke-width:0.6;"/></g><!--link JobInterview to InterviewModel--><g id="link_JobInterview_InterviewModel"><path codeLine="170" d="M599.928,1039.289 C625.05,1039.583 655.4582,1039.9317 681.1142,1040.2257 " fill="none" id="JobInterview-to-InterviewModel" style="stroke:#808080;stroke-width:0.6;"/><polygon fill="#808080" points="684.714,1040.267,679.3419,1037.8053,681.7142,1040.2326,679.2869,1042.6049,684.714,1040.267" style="stroke:#808080;stroke-width:0.6;"/></g><!--link JobInterview to Result--><g id="link_JobInterview_Result"><path codeLine="171" d="M599.928,1029.491 C625.41,1022.531 656.5571,1014.0292 682.3331,1006.9912 " fill="none" id="JobInterview-to-Result" style="stroke:#808080;stroke-width:0.6;"/><polygon fill="#808080" points="685.806,1006.043,679.9645,1005.1501,682.9119,1006.8332,681.2289,1009.7806,685.806,1006.043" style="stroke:#808080;stroke-width:0.6;"/></g><!--link JobInterview to InterviewTime--><g id="link_JobInterview_InterviewTime"><path codeLine="172" d="M599.838,1032.485 C613.134,1028.711 627.81,1022.813 639,1013.693 C654.846,1000.781 646.74,987.233 662.4,974.093 C669.198,968.387 674.2605,965.371 682.5825,962.137 " fill="none" id="JobInterview-to-InterviewTime" style="stroke:#808080;stroke-width:0.6;"/><polygon fill="#808080" points="685.938,960.833,680.0354,960.5519,683.1417,961.9196,681.774,965.026,685.938,960.833" style="stroke:#808080;stroke-width:0.6;"/></g><!--reverse link JobOpening to Application--><g id="link_JobOpening_Application"><path codeLine="188" d="M274.8575,365.3078 C283.9895,402.6338 304.368,484.883 324,556.493 C358.362,681.821 403.638,831.431 419.562,883.619 " fill="none" id="JobOpening-backto-Application" style="stroke:#808080;stroke-width:0.6;"/><polygon fill="#808080" points="274.002,361.811,272.954,367.6266,274.7149,364.725,277.6165,366.4859,274.002,361.811" style="stroke:#808080;stroke-width:0.6;"/><text fill="#000000" font-family="sans-serif" font-size="7.8" lengthAdjust="spacing" textLength="13.2" x="338.1" y="554.434">has</text><text fill="#000000" font-family="sans-serif" font-size="7.8" lengthAdjust="spacing" textLength="6" x="408.9679" y="877.3323">N</text></g><!--link JobOpening to Customer--><g id="link_JobOpening_Customer"><path codeLine="189" d="M275.022,362.051 C283.506,389.543 301.056,441.281 324,481.493 C348.42,524.297 383.3902,565.6805 405.2902,589.9865 " fill="none" id="JobOpening-to-Customer" style="stroke:#808080;stroke-width:0.6;"/><polygon fill="#808080" points="407.7,592.661,405.8684,587.0427,405.6919,590.4322,402.3023,590.2557,407.7,592.661" style="stroke:#808080;stroke-width:0.6;"/><text fill="#000000" font-family="sans-serif" font-size="7.8" lengthAdjust="spacing" textLength="40.2" x="324.6" y="479.434">associated</text></g><!--link Application to Candidate--><g id="link_Application_Candidate"><path codeLine="191" d="M435.774,921.827 C450.288,952.031 479.556,1012.565 505.2,1063.493 C522.096,1097.045 540.6767,1132.6305 552.5507,1155.2145 " fill="none" id="Application-to-Candidate" style="stroke:#808080;stroke-width:0.6;"/><polygon fill="#808080" points="554.226,1158.401,553.8373,1152.5045,552.8299,1155.7456,549.5887,1154.7382,554.226,1158.401" style="stroke:#808080;stroke-width:0.6;"/></g><!--link Application to JobInterview--><g id="link_Application_JobInterview"><path codeLine="192" d="M435.894,921.833 C448.548,946.127 473.316,987.971 505.2,1013.693 C512.448,1019.543 517.9506,1022.8268 526.5306,1026.5288 " fill="none" id="Application-to-JobInterview" style="stroke:#808080;stroke-width:0.6;"/><polygon fill="#808080" points="529.836,1027.955,525.8286,1023.612,527.0815,1026.7665,523.927,1028.0193,529.836,1027.955" style="stroke:#808080;stroke-width:0.6;"/></g><!--reverse link JobRequirementsSpecification to JobOpening--><g id="link_JobRequirementsSpecification_JobOpening"><path codeLine="197" d="M99.9094,89.0813 C133.4674,139.6913 222.102,273.365 255.564,323.831 " fill="none" id="JobRequirementsSpecification-backto-JobOpening" style="stroke:#808080;stroke-width:0.6;"/><polygon fill="#808080" points="97.92,86.081,98.9039,91.9078,99.5779,88.5813,102.9044,89.2552,97.92,86.081" style="stroke:#808080;stroke-width:0.6;"/><text fill="#000000" font-family="sans-serif" font-size="7.8" lengthAdjust="spacing" textLength="40.2" x="174" y="202.834">associated</text></g><!--SRC=[fLV1RkCs4BthAmZtqFOWTC-1OS29cqMAD0asmTvfSYnnGv5QagfhBFRVEvHicPGfMK5zCS1vGywRDnoEIi61LE1ApMqcOUU8qyI8edI42mFC2QsoN-sxK3Krj29IA7276eWsw9DbRy9988kDhgXGv6_DGIwox8ndabfBVcG4VuzY1u_eVwiD1tEdfJPaGytxhMmW1b3sNXZTADw1rYylZmztwxU7vwSMDxJ_Sl_f7d-jRMsCtdVBXO53XmyEt4fqpdw6CTQuGWjuTGUauZbJLKY8M5339qXyDW3g_pFOR8OCV7O-frZSdbXan-39ugwnJbU0PnL8lA0E5ZyoK4wu0-bjosMtibejbqPhjrfbxTujmHFgYLQ0oAyKTI7Fss-OaTNgIF_d9VnFb5v-0FzIQWLFJRLjuvdjXNMqnmoCkxH__jUppVDL7EKqnFEUHWIXNm4Ue_KIdHMYYWkEmYGbwetJ6frWSqKwuMUhT7Bue4ozsrMT0ccD4QoHJJL7r3u_RPuZMjT0iR1fJ5BQ4UX9t15SJokBvFzBRyaN-DvWMwrGOKjUQs1Y9nZrJJPL4-WHEiJuoJA9pXaczoAta-TuIg7rajHp3KgeOeJ1oJePRnl13WmeDgUgsrVdsTmtYXrpSRNMj7A6ClVctwxhSF-GpO2jEJTWxQppgvggmmpaLygeOWBixBkt0SkCg6TcuiLeXZ6_kgxNJDsxG3rV1Q58AVj0bHGab25bztbFhHyJdTwopMpAD4Xb2XBaBcKEazNbH6bCMpSWwTqbdsCx85kSa1HuY2k1xBIKUe-RtlIWdEmQANCdWjQKuoXYt7aD56_FIvtSPsh-aRW_tc6_Nx1I7hP6y715AolS883BywFCaE0tBvJsf7LTosER6LXUcH-fq6Mm_g0Sc7y4xErmAqNbmOhXyXUmZNJzOiydR6515AaM5fedUrZx5Fc2GCoza7FwH-lYiNRj76KbyD5ctVj4yEDnrxq25XlgQ3A-2oSlRcDdu9fj9QpjzeRfzoPCfxzXmwoDWoBYILWgDKbW8Xj9N9U0j2dYdBgXWVC7keBr-pe7FEmAMBVXNSW9PGpg6CI1-OypdkWSvyUulpz1AP_dW5RC7j9-p8qLyRa2Wfd3txKFEFGdlOdnMVPoL3bpy3h4uOxZ1frWV1yVJ4hEaOFMZaYWriMAakuRUKU-Ds1zpLXYIzr8xal0DdMDdy_0GzsTQU2F7PKsV0xGn-3EyAyZLDbzC9hcX9LQuB3qcnN-Q_Le_pq1g92tg9CGWPmAd35KFFUsnIGgAXE6iDrZrF7pXN30sPTOHkNW1RaSAPPvJXPFP15ThHjIqlGpV_hCkY4uVcicg2__vDNin_6aDLG-yx-h4x0FD8Wc2k0_]--></g></svg>