<?xml version="1.0" encoding="us-ascii" standalone="no"?><svg xmlns="http://www.w3.org/2000/svg" xmlns:xlink="http://www.w3.org/1999/xlink" contentStyleType="text/css" height="1462px" preserveAspectRatio="none" style="width:3837px;height:1462px;background:#FFFFFF;" version="1.1" viewBox="0 0 3837 1462" width="3837px" zoomAndPan="magnify"><defs/><g><text fill="#000000" font-family="sans-serif" font-size="14" font-weight="bold" lengthAdjust="spacing" textLength="252" x="1785.5" y="25.1074">CD - List Job Openings by Customer</text><!--cluster presentation--><g id="cluster_presentation"><path d="M544.5,45.6348 L635.5,45.6348 A3.75,3.75 0 0 1 638,48.1348 L645,70.2559 L819.5,70.2559 A2.5,2.5 0 0 1 822,72.7559 L822,200.1348 A2.5,2.5 0 0 1 819.5,202.6348 L544.5,202.6348 A2.5,2.5 0 0 1 542,200.1348 L542,48.1348 A2.5,2.5 0 0 1 544.5,45.6348 " fill="none" style="stroke:#000000;stroke-width:1.5;"/><line style="stroke:#000000;stroke-width:1.5;" x1="542" x2="645" y1="70.2559" y2="70.2559"/><text fill="#000000" font-family="sans-serif" font-size="14" font-weight="bold" lengthAdjust="spacing" textLength="90" x="546" y="62.7422">presentation</text></g><!--cluster application--><g id="cluster_application"><path d="M472.5,226.6348 L550.5,226.6348 A3.75,3.75 0 0 1 553,229.1348 L560,251.2559 L891.5,251.2559 A2.5,2.5 0 0 1 894,253.7559 L894,344.1348 A2.5,2.5 0 0 1 891.5,346.6348 L472.5,346.6348 A2.5,2.5 0 0 1 470,344.1348 L470,229.1348 A2.5,2.5 0 0 1 472.5,226.6348 " fill="none" style="stroke:#000000;stroke-width:1.5;"/><line style="stroke:#000000;stroke-width:1.5;" x1="470" x2="560" y1="251.2559" y2="251.2559"/><text fill="#000000" font-family="sans-serif" font-size="14" font-weight="bold" lengthAdjust="spacing" textLength="77" x="474" y="243.7422">application</text></g><!--cluster customer--><g id="cluster_customer"><path d="M8.5,372.1348 L75.5,372.1348 A3.75,3.75 0 0 1 78,374.6348 L85,396.7559 L1424.5,396.7559 A2.5,2.5 0 0 1 1427,399.2559 L1427,1453.1348 A2.5,2.5 0 0 1 1424.5,1455.6348 L8.5,1455.6348 A2.5,2.5 0 0 1 6,1453.1348 L6,374.6348 A2.5,2.5 0 0 1 8.5,372.1348 " fill="none" style="stroke:#000000;stroke-width:1.5;"/><line style="stroke:#000000;stroke-width:1.5;" x1="6" x2="85" y1="396.7559" y2="396.7559"/><text fill="#000000" font-family="sans-serif" font-size="14" font-weight="bold" lengthAdjust="spacing" textLength="66" x="10" y="389.2422">customer</text></g><!--cluster domain--><g id="cluster_domain"><path d="M394.5,1088.6348 L446.5,1088.6348 A3.75,3.75 0 0 1 449,1091.1348 L456,1113.2559 L1400.5,1113.2559 A2.5,2.5 0 0 1 1403,1115.7559 L1403,1429.1348 A2.5,2.5 0 0 1 1400.5,1431.6348 L394.5,1431.6348 A2.5,2.5 0 0 1 392,1429.1348 L392,1091.1348 A2.5,2.5 0 0 1 394.5,1088.6348 " fill="none" style="stroke:#000000;stroke-width:1.5;"/><line style="stroke:#000000;stroke-width:1.5;" x1="392" x2="456" y1="1113.2559" y2="1113.2559"/><text fill="#000000" font-family="sans-serif" font-size="14" font-weight="bold" lengthAdjust="spacing" textLength="51" x="396" y="1105.7422">domain</text></g><!--cluster service--><g id="cluster_service"><path d="M370.5,417.1348 L424.5,417.1348 A3.75,3.75 0 0 1 427,419.6348 L434,441.7559 L923.5,441.7559 A2.5,2.5 0 0 1 926,444.2559 L926,930.1348 A2.5,2.5 0 0 1 923.5,932.6348 L370.5,932.6348 A2.5,2.5 0 0 1 368,930.1348 L368,419.6348 A2.5,2.5 0 0 1 370.5,417.1348 " fill="none" style="stroke:#000000;stroke-width:1.5;"/><line style="stroke:#000000;stroke-width:1.5;" x1="368" x2="434" y1="441.7559" y2="441.7559"/><text fill="#000000" font-family="sans-serif" font-size="14" font-weight="bold" lengthAdjust="spacing" textLength="53" x="372" y="434.2422">service</text></g><!--cluster repository--><g id="cluster_repository"><path d="M32.5,1191.1348 L105.5,1191.1348 A3.75,3.75 0 0 1 108,1193.6348 L115,1215.7559 L365.5,1215.7559 A2.5,2.5 0 0 1 368,1218.2559 L368,1326.6348 A2.5,2.5 0 0 1 365.5,1329.1348 L32.5,1329.1348 A2.5,2.5 0 0 1 30,1326.6348 L30,1193.6348 A2.5,2.5 0 0 1 32.5,1191.1348 " fill="none" style="stroke:#000000;stroke-width:1.5;"/><line style="stroke:#000000;stroke-width:1.5;" x1="30" x2="115" y1="1215.7559" y2="1215.7559"/><text fill="#000000" font-family="sans-serif" font-size="14" font-weight="bold" lengthAdjust="spacing" textLength="72" x="34" y="1208.2422">repository</text></g><!--cluster jobOpening--><g id="cluster_jobOpening"><path d="M1453.5,370.6348 L1536.5,370.6348 A3.75,3.75 0 0 1 1539,373.1348 L1546,395.2559 L3827.5,395.2559 A2.5,2.5 0 0 1 3830,397.7559 L3830,1443.6348 A2.5,2.5 0 0 1 3827.5,1446.1348 L1453.5,1446.1348 A2.5,2.5 0 0 1 1451,1443.6348 L1451,373.1348 A2.5,2.5 0 0 1 1453.5,370.6348 " fill="none" style="stroke:#000000;stroke-width:1.5;"/><line style="stroke:#000000;stroke-width:1.5;" x1="1451" x2="1546" y1="395.2559" y2="395.2559"/><text fill="#000000" font-family="sans-serif" font-size="14" font-weight="bold" lengthAdjust="spacing" textLength="82" x="1455" y="387.7422">jobOpening</text></g><!--cluster domain--><g id="cluster_domain"><path d="M1477.5,608.6348 L1529.5,608.6348 A3.75,3.75 0 0 1 1532,611.1348 L1539,633.2559 L3487.5,633.2559 A2.5,2.5 0 0 1 3490,635.7559 L3490,1419.6348 A2.5,2.5 0 0 1 3487.5,1422.1348 L1477.5,1422.1348 A2.5,2.5 0 0 1 1475,1419.6348 L1475,611.1348 A2.5,2.5 0 0 1 1477.5,608.6348 " fill="none" style="stroke:#000000;stroke-width:1.5;"/><line style="stroke:#000000;stroke-width:1.5;" x1="1475" x2="1539" y1="633.2559" y2="633.2559"/><text fill="#000000" font-family="sans-serif" font-size="14" font-weight="bold" lengthAdjust="spacing" textLength="51" x="1479" y="625.7422">domain</text></g><!--cluster repositories--><g id="cluster_repositories"><path d="M3516.5,776.1348 L3603.5,776.1348 A3.75,3.75 0 0 1 3606,778.6348 L3613,800.7559 L3803.5,800.7559 A2.5,2.5 0 0 1 3806,803.2559 L3806,911.6348 A2.5,2.5 0 0 1 3803.5,914.1348 L3516.5,914.1348 A2.5,2.5 0 0 1 3514,911.6348 L3514,778.6348 A2.5,2.5 0 0 1 3516.5,776.1348 " fill="none" style="stroke:#000000;stroke-width:1.5;"/><line style="stroke:#000000;stroke-width:1.5;" x1="3514" x2="3613" y1="800.7559" y2="800.7559"/><text fill="#000000" font-family="sans-serif" font-size="14" font-weight="bold" lengthAdjust="spacing" textLength="86" x="3518" y="793.2422">repositories</text></g><!--class ListCustomerJobOpeningsUI--><g id="elem_ListCustomerJobOpeningsUI"><rect codeLine="15" fill="#FFFFFF" height="103.8633" id="ListCustomerJobOpeningsUI" rx="2.5" ry="2.5" style="stroke:#000000;stroke-width:0.5;" width="247" x="558.5" y="82.6348"/><ellipse cx="590.15" cy="98.6348" fill="#ADD1B2" rx="11" ry="11" style="stroke:#181818;stroke-width:1.0;"/><path d="M592.9156,94.5098 Q593.0719,94.291 593.2594,94.1816 Q593.4469,94.0723 593.6656,94.0723 Q594.0406,94.0723 594.275,94.3379 Q594.5094,94.5879 594.5094,95.1973 L594.5094,96.6504 Q594.5094,97.2598 594.275,97.5254 Q594.0406,97.791 593.6656,97.791 Q593.3219,97.791 593.1188,97.5879 Q592.9156,97.4004 592.8063,96.8848 Q592.7594,96.5254 592.5719,96.3379 Q592.2438,95.9629 591.6344,95.7441 Q591.025,95.5254 590.4,95.5254 Q589.6344,95.5254 588.9938,95.8535 Q588.3688,96.1816 587.8688,96.9316 Q587.3844,97.6816 587.3844,98.7129 L587.3844,99.8066 Q587.3844,101.041 588.275,101.8691 Q589.1656,102.6816 590.7594,102.6816 Q591.6969,102.6816 592.3531,102.4316 Q592.7438,102.2754 593.1656,101.8379 Q593.4313,101.5723 593.5719,101.4941 Q593.7281,101.416 593.9313,101.416 Q594.2594,101.416 594.5094,101.6816 Q594.775,101.9316 594.775,102.2754 Q594.775,102.6191 594.4313,103.0254 Q593.9313,103.6035 593.1344,103.9316 Q592.0563,104.3848 590.7594,104.3848 Q589.2438,104.3848 588.0406,103.7598 Q587.0563,103.2598 586.3688,102.1973 Q585.6813,101.1191 585.6813,99.8379 L585.6813,98.6816 Q585.6813,97.3535 586.2906,96.2129 Q586.9156,95.0566 588.0094,94.4473 Q589.1031,93.8223 590.3375,93.8223 Q591.0719,93.8223 591.7125,93.9941 Q592.3688,94.1504 592.9156,94.5098 Z " fill="#000000"/><text fill="#000000" font-family="sans-serif" font-size="14" lengthAdjust="spacing" textLength="178" x="607.85" y="104.4316">ListCustomerJobOpeningsUI</text><line style="stroke:#000000;stroke-width:0.5;" x1="559.5" x2="804.5" y1="114.6348" y2="114.6348"/><line style="stroke:#000000;stroke-width:0.5;" x1="559.5" x2="804.5" y1="122.6348" y2="122.6348"/><ellipse cx="569.5" cy="137.4453" fill="#84BE84" rx="3" ry="3" style="stroke:#038048;stroke-width:1.0;"/><text fill="#000000" font-family="sans-serif" font-size="14" lengthAdjust="spacing" textLength="221" x="578.5" y="141.7422">ListCustomerJobOpeningsUI(email)</text><ellipse cx="569.5" cy="156.0664" fill="#84BE84" rx="3" ry="3" style="stroke:#038048;stroke-width:1.0;"/><text fill="#000000" font-family="sans-serif" font-size="14" lengthAdjust="spacing" textLength="123" x="578.5" y="160.3633">doShow() : boolean</text><ellipse cx="569.5" cy="174.6875" fill="#84BE84" rx="3" ry="3" style="stroke:#038048;stroke-width:1.0;"/><text fill="#000000" font-family="sans-serif" font-size="14" lengthAdjust="spacing" textLength="113" x="578.5" y="178.9844">headline() : String</text></g><!--class ListCustomerJobOpeningsController--><g id="elem_ListCustomerJobOpeningsController"><rect codeLine="23" fill="#FFFFFF" height="66.6211" id="ListCustomerJobOpeningsController" rx="2.5" ry="2.5" style="stroke:#000000;stroke-width:0.5;" width="392" x="486" y="263.6348"/><ellipse cx="563.75" cy="279.6348" fill="#ADD1B2" rx="11" ry="11" style="stroke:#181818;stroke-width:1.0;"/><path d="M566.5156,275.5098 Q566.6719,275.291 566.8594,275.1816 Q567.0469,275.0723 567.2656,275.0723 Q567.6406,275.0723 567.875,275.3379 Q568.1094,275.5879 568.1094,276.1973 L568.1094,277.6504 Q568.1094,278.2598 567.875,278.5254 Q567.6406,278.791 567.2656,278.791 Q566.9219,278.791 566.7188,278.5879 Q566.5156,278.4004 566.4063,277.8848 Q566.3594,277.5254 566.1719,277.3379 Q565.8438,276.9629 565.2344,276.7441 Q564.625,276.5254 564,276.5254 Q563.2344,276.5254 562.5938,276.8535 Q561.9688,277.1816 561.4688,277.9316 Q560.9844,278.6816 560.9844,279.7129 L560.9844,280.8066 Q560.9844,282.041 561.875,282.8691 Q562.7656,283.6816 564.3594,283.6816 Q565.2969,283.6816 565.9531,283.4316 Q566.3438,283.2754 566.7656,282.8379 Q567.0313,282.5723 567.1719,282.4941 Q567.3281,282.416 567.5313,282.416 Q567.8594,282.416 568.1094,282.6816 Q568.375,282.9316 568.375,283.2754 Q568.375,283.6191 568.0313,284.0254 Q567.5313,284.6035 566.7344,284.9316 Q565.6563,285.3848 564.3594,285.3848 Q562.8438,285.3848 561.6406,284.7598 Q560.6563,284.2598 559.9688,283.1973 Q559.2813,282.1191 559.2813,280.8379 L559.2813,279.6816 Q559.2813,278.3535 559.8906,277.2129 Q560.5156,276.0566 561.6094,275.4473 Q562.7031,274.8223 563.9375,274.8223 Q564.6719,274.8223 565.3125,274.9941 Q565.9688,275.1504 566.5156,275.5098 Z " fill="#000000"/><text fill="#000000" font-family="sans-serif" font-size="14" lengthAdjust="spacing" textLength="228" x="584.25" y="285.4316">ListCustomerJobOpeningsController</text><line style="stroke:#000000;stroke-width:0.5;" x1="487" x2="877" y1="295.6348" y2="295.6348"/><line style="stroke:#000000;stroke-width:0.5;" x1="487" x2="877" y1="303.6348" y2="303.6348"/><ellipse cx="497" cy="318.4453" fill="#84BE84" rx="3" ry="3" style="stroke:#038048;stroke-width:1.0;"/><text fill="#000000" font-family="sans-serif" font-size="14" lengthAdjust="spacing" textLength="366" x="506" y="322.7422">sendJobOpeningsRequest(email) : List&lt;JobOpeningDTO&gt;</text></g><!--class Customer--><g id="elem_Customer"><rect codeLine="30" fill="#FFFFFF" height="290.0742" id="Customer" rx="2.5" ry="2.5" style="stroke:#000000;stroke-width:0.5;" width="478" x="408" y="1125.6348"/><ellipse cx="612.25" cy="1141.6348" fill="#ADD1B2" rx="11" ry="11" style="stroke:#181818;stroke-width:1.0;"/><path d="M615.0156,1137.5098 Q615.1719,1137.291 615.3594,1137.1816 Q615.5469,1137.0723 615.7656,1137.0723 Q616.1406,1137.0723 616.375,1137.3379 Q616.6094,1137.5879 616.6094,1138.1973 L616.6094,1139.6504 Q616.6094,1140.2598 616.375,1140.5254 Q616.1406,1140.791 615.7656,1140.791 Q615.4219,1140.791 615.2188,1140.5879 Q615.0156,1140.4004 614.9063,1139.8848 Q614.8594,1139.5254 614.6719,1139.3379 Q614.3438,1138.9629 613.7344,1138.7441 Q613.125,1138.5254 612.5,1138.5254 Q611.7344,1138.5254 611.0938,1138.8535 Q610.4688,1139.1816 609.9688,1139.9316 Q609.4844,1140.6816 609.4844,1141.7129 L609.4844,1142.8066 Q609.4844,1144.041 610.375,1144.8691 Q611.2656,1145.6816 612.8594,1145.6816 Q613.7969,1145.6816 614.4531,1145.4316 Q614.8438,1145.2754 615.2656,1144.8379 Q615.5313,1144.5723 615.6719,1144.4941 Q615.8281,1144.416 616.0313,1144.416 Q616.3594,1144.416 616.6094,1144.6816 Q616.875,1144.9316 616.875,1145.2754 Q616.875,1145.6191 616.5313,1146.0254 Q616.0313,1146.6035 615.2344,1146.9316 Q614.1563,1147.3848 612.8594,1147.3848 Q611.3438,1147.3848 610.1406,1146.7598 Q609.1563,1146.2598 608.4688,1145.1973 Q607.7813,1144.1191 607.7813,1142.8379 L607.7813,1141.6816 Q607.7813,1140.3535 608.3906,1139.2129 Q609.0156,1138.0566 610.1094,1137.4473 Q611.2031,1136.8223 612.4375,1136.8223 Q613.1719,1136.8223 613.8125,1136.9941 Q614.4688,1137.1504 615.0156,1137.5098 Z " fill="#000000"/><text fill="#000000" font-family="sans-serif" font-size="14" lengthAdjust="spacing" textLength="61" x="632.75" y="1147.4316">Customer</text><line style="stroke:#000000;stroke-width:0.5;" x1="409" x2="885" y1="1157.6348" y2="1157.6348"/><rect fill="none" height="6" style="stroke:#C82930;stroke-width:1.0;" width="6" x="416" y="1169.4453"/><text fill="#000000" font-family="sans-serif" font-size="14" lengthAdjust="spacing" textLength="183" x="428" y="1176.7422">emailAddress : EmailAddress</text><rect fill="none" height="6" style="stroke:#C82930;stroke-width:1.0;" width="6" x="416" y="1188.0664"/><text fill="#000000" font-family="sans-serif" font-size="14" lengthAdjust="spacing" textLength="201" x="428" y="1195.3633">customerManager : SystemUser</text><rect fill="none" height="6" style="stroke:#C82930;stroke-width:1.0;" width="6" x="416" y="1206.6875"/><text fill="#000000" font-family="sans-serif" font-size="14" lengthAdjust="spacing" textLength="129" x="428" y="1213.9844">company : Company</text><line style="stroke:#000000;stroke-width:0.5;" x1="409" x2="885" y1="1221.498" y2="1221.498"/><ellipse cx="419" cy="1236.3086" fill="#84BE84" rx="3" ry="3" style="stroke:#038048;stroke-width:1.0;"/><text fill="#000000" font-family="sans-serif" font-size="14" lengthAdjust="spacing" textLength="452" x="428" y="1240.6055">Customer(user, emailAddress, customerManager, company) : Customer</text><text fill="#000000" font-family="sans-serif" font-size="14" lengthAdjust="spacing" textLength="71" x="428" y="1259.2266">Customer()</text><ellipse cx="419" cy="1273.5508" fill="#84BE84" rx="3" ry="3" style="stroke:#038048;stroke-width:1.0;"/><text fill="#000000" font-family="sans-serif" font-size="14" lengthAdjust="spacing" textLength="125" x="428" y="1277.8477">user() : SystemUser</text><ellipse cx="419" cy="1292.1719" fill="#84BE84" rx="3" ry="3" style="stroke:#038048;stroke-width:1.0;"/><text fill="#000000" font-family="sans-serif" font-size="14" lengthAdjust="spacing" textLength="139" x="428" y="1296.4688">company() : Company</text><ellipse cx="419" cy="1310.793" fill="#84BE84" rx="3" ry="3" style="stroke:#038048;stroke-width:1.0;"/><text fill="#000000" font-family="sans-serif" font-size="14" lengthAdjust="spacing" textLength="211" x="428" y="1315.0898">customerManager() : SystemUser</text><ellipse cx="419" cy="1329.4141" fill="#84BE84" rx="3" ry="3" style="stroke:#038048;stroke-width:1.0;"/><text fill="#000000" font-family="sans-serif" font-size="14" lengthAdjust="spacing" textLength="153" x="428" y="1333.7109">identity() : EmailAddress</text><ellipse cx="419" cy="1348.0352" fill="#84BE84" rx="3" ry="3" style="stroke:#038048;stroke-width:1.0;"/><text fill="#000000" font-family="sans-serif" font-size="14" lengthAdjust="spacing" textLength="189" x="428" y="1352.332">equals(otherObject) : boolean</text><ellipse cx="419" cy="1366.6563" fill="#84BE84" rx="3" ry="3" style="stroke:#038048;stroke-width:1.0;"/><text fill="#000000" font-family="sans-serif" font-size="14" lengthAdjust="spacing" textLength="197" x="428" y="1370.9531">sameAs(otherObject) : boolean</text><ellipse cx="419" cy="1385.2773" fill="#84BE84" rx="3" ry="3" style="stroke:#038048;stroke-width:1.0;"/><text fill="#000000" font-family="sans-serif" font-size="14" lengthAdjust="spacing" textLength="102" x="428" y="1389.5742">hashCode() : int</text><ellipse cx="419" cy="1403.8984" fill="#84BE84" rx="3" ry="3" style="stroke:#038048;stroke-width:1.0;"/><text fill="#000000" font-family="sans-serif" font-size="14" lengthAdjust="spacing" textLength="108" x="428" y="1408.1953">toString() : String</text></g><g id="elem_GMN9"><path d="M921.5,1248.1348 L921.5,1266.6348 L886.02,1270.6348 L921.5,1274.6348 L921.5,1292.7168 A0,0 0 0 0 921.5,1292.7168 L1386.5,1292.7168 A0,0 0 0 0 1386.5,1292.7168 L1386.5,1258.1348 L1376.5,1248.1348 L921.5,1248.1348 A0,0 0 0 0 921.5,1248.1348 " fill="#FEFFDD" style="stroke:#181818;stroke-width:0.5;"/><path d="M1376.5,1248.1348 L1376.5,1258.1348 L1386.5,1258.1348 L1376.5,1248.1348 " fill="#FEFFDD" style="stroke:#181818;stroke-width:0.5;"/><text fill="#000000" font-family="sans-serif" font-size="13" lengthAdjust="spacing" textLength="444" x="927.5" y="1267.1631">- The SystemUser and EmailAddress classes are provided by the framework,</text><text fill="#000000" font-family="sans-serif" font-size="13" lengthAdjust="spacing" textLength="254" x="927.5" y="1284.4541">so that there's no need in representing them</text></g><!--class CustomerService--><g id="elem_CustomerService"><rect codeLine="52" fill="#FFFFFF" height="122.4844" id="CustomerService" rx="2.5" ry="2.5" style="stroke:#000000;stroke-width:0.5;" width="526" x="384" y="794.6348"/><ellipse cx="588.75" cy="810.6348" fill="#ADD1B2" rx="11" ry="11" style="stroke:#181818;stroke-width:1.0;"/><path d="M591.5156,806.5098 Q591.6719,806.291 591.8594,806.1816 Q592.0469,806.0723 592.2656,806.0723 Q592.6406,806.0723 592.875,806.3379 Q593.1094,806.5879 593.1094,807.1973 L593.1094,808.6504 Q593.1094,809.2598 592.875,809.5254 Q592.6406,809.791 592.2656,809.791 Q591.9219,809.791 591.7188,809.5879 Q591.5156,809.4004 591.4063,808.8848 Q591.3594,808.5254 591.1719,808.3379 Q590.8438,807.9629 590.2344,807.7441 Q589.625,807.5254 589,807.5254 Q588.2344,807.5254 587.5938,807.8535 Q586.9688,808.1816 586.4688,808.9316 Q585.9844,809.6816 585.9844,810.7129 L585.9844,811.8066 Q585.9844,813.041 586.875,813.8691 Q587.7656,814.6816 589.3594,814.6816 Q590.2969,814.6816 590.9531,814.4316 Q591.3438,814.2754 591.7656,813.8379 Q592.0313,813.5723 592.1719,813.4941 Q592.3281,813.416 592.5313,813.416 Q592.8594,813.416 593.1094,813.6816 Q593.375,813.9316 593.375,814.2754 Q593.375,814.6191 593.0313,815.0254 Q592.5313,815.6035 591.7344,815.9316 Q590.6563,816.3848 589.3594,816.3848 Q587.8438,816.3848 586.6406,815.7598 Q585.6563,815.2598 584.9688,814.1973 Q584.2813,813.1191 584.2813,811.8379 L584.2813,810.6816 Q584.2813,809.3535 584.8906,808.2129 Q585.5156,807.0566 586.6094,806.4473 Q587.7031,805.8223 588.9375,805.8223 Q589.6719,805.8223 590.3125,805.9941 Q590.9688,806.1504 591.5156,806.5098 Z " fill="#000000"/><text fill="#000000" font-family="sans-serif" font-size="14" lengthAdjust="spacing" textLength="108" x="609.25" y="816.4316">CustomerService</text><line style="stroke:#000000;stroke-width:0.5;" x1="385" x2="909" y1="826.6348" y2="826.6348"/><line style="stroke:#000000;stroke-width:0.5;" x1="385" x2="909" y1="834.6348" y2="834.6348"/><ellipse cx="395" cy="849.4453" fill="#84BE84" rx="3" ry="3" style="stroke:#038048;stroke-width:1.0;"/><text fill="#000000" font-family="sans-serif" font-size="14" lengthAdjust="spacing" textLength="500" x="404" y="853.7422">registerCustomer(user, emailAddress, customerManager, company) : Customer</text><ellipse cx="395" cy="868.0664" fill="#84BE84" rx="3" ry="3" style="stroke:#038048;stroke-width:1.0;"/><text fill="#000000" font-family="sans-serif" font-size="14" lengthAdjust="spacing" textLength="228" x="404" y="872.3633">allCustomers() : Iterable&lt;Customer&gt;</text><ellipse cx="395" cy="886.6875" fill="#84BE84" rx="3" ry="3" style="stroke:#038048;stroke-width:1.0;"/><text fill="#000000" font-family="sans-serif" font-size="14" lengthAdjust="spacing" textLength="252" x="404" y="890.9844">findCustomer(emailAddress) : Customer</text><ellipse cx="395" cy="905.3086" fill="#84BE84" rx="3" ry="3" style="stroke:#038048;stroke-width:1.0;"/><text fill="#000000" font-family="sans-serif" font-size="14" lengthAdjust="spacing" textLength="240" x="404" y="909.6055">findCustomerByUser(user) : Customer</text></g><!--class CustomerJobOpeningsService--><g id="elem_CustomerJobOpeningsService"><rect codeLine="59" fill="#FFFFFF" height="85.2422" id="CustomerJobOpeningsService" rx="2.5" ry="2.5" style="stroke:#000000;stroke-width:0.5;" width="384" x="490" y="454.1348"/><ellipse cx="582.25" cy="470.1348" fill="#ADD1B2" rx="11" ry="11" style="stroke:#181818;stroke-width:1.0;"/><path d="M585.0156,466.0098 Q585.1719,465.791 585.3594,465.6816 Q585.5469,465.5723 585.7656,465.5723 Q586.1406,465.5723 586.375,465.8379 Q586.6094,466.0879 586.6094,466.6973 L586.6094,468.1504 Q586.6094,468.7598 586.375,469.0254 Q586.1406,469.291 585.7656,469.291 Q585.4219,469.291 585.2188,469.0879 Q585.0156,468.9004 584.9063,468.3848 Q584.8594,468.0254 584.6719,467.8379 Q584.3438,467.4629 583.7344,467.2441 Q583.125,467.0254 582.5,467.0254 Q581.7344,467.0254 581.0938,467.3535 Q580.4688,467.6816 579.9688,468.4316 Q579.4844,469.1816 579.4844,470.2129 L579.4844,471.3066 Q579.4844,472.541 580.375,473.3691 Q581.2656,474.1816 582.8594,474.1816 Q583.7969,474.1816 584.4531,473.9316 Q584.8438,473.7754 585.2656,473.3379 Q585.5313,473.0723 585.6719,472.9941 Q585.8281,472.916 586.0313,472.916 Q586.3594,472.916 586.6094,473.1816 Q586.875,473.4316 586.875,473.7754 Q586.875,474.1191 586.5313,474.5254 Q586.0313,475.1035 585.2344,475.4316 Q584.1563,475.8848 582.8594,475.8848 Q581.3438,475.8848 580.1406,475.2598 Q579.1563,474.7598 578.4688,473.6973 Q577.7813,472.6191 577.7813,471.3379 L577.7813,470.1816 Q577.7813,468.8535 578.3906,467.7129 Q579.0156,466.5566 580.1094,465.9473 Q581.2031,465.3223 582.4375,465.3223 Q583.1719,465.3223 583.8125,465.4941 Q584.4688,465.6504 585.0156,466.0098 Z " fill="#000000"/><text fill="#000000" font-family="sans-serif" font-size="14" lengthAdjust="spacing" textLength="191" x="602.75" y="475.9316">CustomerJobOpeningsService</text><line style="stroke:#000000;stroke-width:0.5;" x1="491" x2="873" y1="486.1348" y2="486.1348"/><line style="stroke:#000000;stroke-width:0.5;" x1="491" x2="873" y1="494.1348" y2="494.1348"/><ellipse cx="501" cy="508.9453" fill="#84BE84" rx="3" ry="3" style="stroke:#038048;stroke-width:1.0;"/><text fill="#000000" font-family="sans-serif" font-size="14" lengthAdjust="spacing" textLength="330" x="510" y="513.2422">requestJobOpenings(email) : List&lt;JobOpeningDTO&gt;</text><ellipse cx="501" cy="527.5664" fill="#84BE84" rx="3" ry="3" style="stroke:#038048;stroke-width:1.0;"/><text fill="#000000" font-family="sans-serif" font-size="14" lengthAdjust="spacing" textLength="358" x="510" y="531.8633">jobOpeningDTOS(jobOpenings) : List&lt;JobOpeningDTO&gt;</text></g><!--class CustomerRepository--><g id="elem_CustomerRepository"><rect codeLine="67" fill="#FFFFFF" height="85.2422" id="CustomerRepository" rx="2.5" ry="2.5" style="stroke:#000000;stroke-width:0.5;" width="305" x="46.5" y="1228.1348"/><ellipse cx="130.25" cy="1244.1348" fill="#B4A7E5" rx="11" ry="11" style="stroke:#181818;stroke-width:1.0;"/><path d="M131.2031,1240.7754 L131.2031,1247.4316 L132.9219,1247.4316 Q133.5313,1247.4316 133.7969,1247.666 Q134.0625,1247.9004 134.0625,1248.291 Q134.0625,1248.666 133.7969,1248.9004 Q133.5313,1249.1348 132.9219,1249.1348 L127.7813,1249.1348 Q127.1719,1249.1348 126.9063,1248.9004 Q126.6406,1248.666 126.6406,1248.2754 Q126.6406,1247.9004 126.9063,1247.666 Q127.1719,1247.4316 127.7813,1247.4316 L129.5,1247.4316 L129.5,1240.7754 L127.7813,1240.7754 Q127.1719,1240.7754 126.9063,1240.541 Q126.6406,1240.3066 126.6406,1239.916 Q126.6406,1239.541 126.9063,1239.3066 Q127.1719,1239.0723 127.7813,1239.0723 L132.9219,1239.0723 Q133.5313,1239.0723 133.7969,1239.3066 Q134.0625,1239.541 134.0625,1239.916 Q134.0625,1240.3066 133.7969,1240.541 Q133.5313,1240.7754 132.9219,1240.7754 L131.2031,1240.7754 Z " fill="#000000"/><text fill="#000000" font-family="sans-serif" font-size="14" font-style="italic" lengthAdjust="spacing" textLength="129" x="150.75" y="1249.9316">CustomerRepository</text><line style="stroke:#000000;stroke-width:0.5;" x1="47.5" x2="350.5" y1="1260.1348" y2="1260.1348"/><line style="stroke:#000000;stroke-width:0.5;" x1="47.5" x2="350.5" y1="1268.1348" y2="1268.1348"/><text fill="#000000" font-family="sans-serif" font-size="14" lengthAdjust="spacing" textLength="222" x="52.5" y="1287.2422">findAllActive() : Iterable&lt;Customer&gt;</text><text fill="#000000" font-family="sans-serif" font-size="14" lengthAdjust="spacing" textLength="293" x="52.5" y="1305.8633">findByEmailAddress(emailAddress) : Customer</text></g><!--class JobOpeningService--><g id="elem_JobOpeningService"><rect codeLine="169" fill="#FFFFFF" height="178.3477" id="JobOpeningService" rx="2.5" ry="2.5" style="stroke:#000000;stroke-width:0.5;" width="890" x="1790" y="407.6348"/><ellipse cx="2169.25" cy="423.6348" fill="#ADD1B2" rx="11" ry="11" style="stroke:#181818;stroke-width:1.0;"/><path d="M2172.0156,419.5098 Q2172.1719,419.291 2172.3594,419.1816 Q2172.5469,419.0723 2172.7656,419.0723 Q2173.1406,419.0723 2173.375,419.3379 Q2173.6094,419.5879 2173.6094,420.1973 L2173.6094,421.6504 Q2173.6094,422.2598 2173.375,422.5254 Q2173.1406,422.791 2172.7656,422.791 Q2172.4219,422.791 2172.2188,422.5879 Q2172.0156,422.4004 2171.9063,421.8848 Q2171.8594,421.5254 2171.6719,421.3379 Q2171.3438,420.9629 2170.7344,420.7441 Q2170.125,420.5254 2169.5,420.5254 Q2168.7344,420.5254 2168.0938,420.8535 Q2167.4688,421.1816 2166.9688,421.9316 Q2166.4844,422.6816 2166.4844,423.7129 L2166.4844,424.8066 Q2166.4844,426.041 2167.375,426.8691 Q2168.2656,427.6816 2169.8594,427.6816 Q2170.7969,427.6816 2171.4531,427.4316 Q2171.8438,427.2754 2172.2656,426.8379 Q2172.5313,426.5723 2172.6719,426.4941 Q2172.8281,426.416 2173.0313,426.416 Q2173.3594,426.416 2173.6094,426.6816 Q2173.875,426.9316 2173.875,427.2754 Q2173.875,427.6191 2173.5313,428.0254 Q2173.0313,428.6035 2172.2344,428.9316 Q2171.1563,429.3848 2169.8594,429.3848 Q2168.3438,429.3848 2167.1406,428.7598 Q2166.1563,428.2598 2165.4688,427.1973 Q2164.7813,426.1191 2164.7813,424.8379 L2164.7813,423.6816 Q2164.7813,422.3535 2165.3906,421.2129 Q2166.0156,420.0566 2167.1094,419.4473 Q2168.2031,418.8223 2169.4375,418.8223 Q2170.1719,418.8223 2170.8125,418.9941 Q2171.4688,419.1504 2172.0156,419.5098 Z " fill="#000000"/><text fill="#000000" font-family="sans-serif" font-size="14" lengthAdjust="spacing" textLength="123" x="2189.75" y="429.4316">JobOpeningService</text><line style="stroke:#000000;stroke-width:0.5;" x1="1791" x2="2679" y1="439.6348" y2="439.6348"/><line style="stroke:#000000;stroke-width:0.5;" x1="1791" x2="2679" y1="447.6348" y2="447.6348"/><ellipse cx="1801" cy="462.4453" fill="#84BE84" rx="3" ry="3" style="stroke:#038048;stroke-width:1.0;"/><text fill="#000000" font-family="sans-serif" font-size="14" lengthAdjust="spacing" textLength="864" x="1810" y="466.7422">registerJobOpening(jobReference, description, vacanciesNumber, address, mode, contractType, titleOrFunction, customer) : JobOpening</text><ellipse cx="1801" cy="481.0664" fill="#84BE84" rx="3" ry="3" style="stroke:#038048;stroke-width:1.0;"/><text fill="#000000" font-family="sans-serif" font-size="14" lengthAdjust="spacing" textLength="282" x="1810" y="485.3633">findJobOpening(jobReference) : JobOpening</text><ellipse cx="1801" cy="499.6875" fill="#84BE84" rx="3" ry="3" style="stroke:#038048;stroke-width:1.0;"/><text fill="#000000" font-family="sans-serif" font-size="14" lengthAdjust="spacing" textLength="498" x="1810" y="503.9844">updateJobOpening(jobReference, jobRequirementsSpecification) : JobOpening</text><ellipse cx="1801" cy="518.3086" fill="#84BE84" rx="3" ry="3" style="stroke:#038048;stroke-width:1.0;"/><text fill="#000000" font-family="sans-serif" font-size="14" lengthAdjust="spacing" textLength="421" x="1810" y="522.6055">updateInterviewModel(jobReference, interviewModel) : JobOpening</text><ellipse cx="1801" cy="536.9297" fill="#84BE84" rx="3" ry="3" style="stroke:#038048;stroke-width:1.0;"/><text fill="#000000" font-family="sans-serif" font-size="14" lengthAdjust="spacing" textLength="268" x="1810" y="541.2266">verifyJobOpening(jobReference) : boolean</text><ellipse cx="1801" cy="555.5508" fill="#84BE84" rx="3" ry="3" style="stroke:#038048;stroke-width:1.0;"/><text fill="#000000" font-family="sans-serif" font-size="14" lengthAdjust="spacing" textLength="294" x="1810" y="559.8477">findByCustomer(customer) : List&lt;JobOpening&gt;</text><ellipse cx="1801" cy="574.1719" fill="#84BE84" rx="3" ry="3" style="stroke:#038048;stroke-width:1.0;"/><text fill="#000000" font-family="sans-serif" font-size="14" lengthAdjust="spacing" textLength="258" x="1810" y="578.4688">allJobOpenings() : Iterable&lt;JobOpening&gt;</text></g><!--class JobOpening--><g id="elem_JobOpening"><rect codeLine="79" fill="#FFFFFF" height="420.4219" id="JobOpening" rx="2.5" ry="2.5" style="stroke:#000000;stroke-width:0.5;" width="1196" x="1637" y="645.6348"/><ellipse cx="2192.75" cy="661.6348" fill="#ADD1B2" rx="11" ry="11" style="stroke:#181818;stroke-width:1.0;"/><path d="M2195.5156,657.5098 Q2195.6719,657.291 2195.8594,657.1816 Q2196.0469,657.0723 2196.2656,657.0723 Q2196.6406,657.0723 2196.875,657.3379 Q2197.1094,657.5879 2197.1094,658.1973 L2197.1094,659.6504 Q2197.1094,660.2598 2196.875,660.5254 Q2196.6406,660.791 2196.2656,660.791 Q2195.9219,660.791 2195.7188,660.5879 Q2195.5156,660.4004 2195.4063,659.8848 Q2195.3594,659.5254 2195.1719,659.3379 Q2194.8438,658.9629 2194.2344,658.7441 Q2193.625,658.5254 2193,658.5254 Q2192.2344,658.5254 2191.5938,658.8535 Q2190.9688,659.1816 2190.4688,659.9316 Q2189.9844,660.6816 2189.9844,661.7129 L2189.9844,662.8066 Q2189.9844,664.041 2190.875,664.8691 Q2191.7656,665.6816 2193.3594,665.6816 Q2194.2969,665.6816 2194.9531,665.4316 Q2195.3438,665.2754 2195.7656,664.8379 Q2196.0313,664.5723 2196.1719,664.4941 Q2196.3281,664.416 2196.5313,664.416 Q2196.8594,664.416 2197.1094,664.6816 Q2197.375,664.9316 2197.375,665.2754 Q2197.375,665.6191 2197.0313,666.0254 Q2196.5313,666.6035 2195.7344,666.9316 Q2194.6563,667.3848 2193.3594,667.3848 Q2191.8438,667.3848 2190.6406,666.7598 Q2189.6563,666.2598 2188.9688,665.1973 Q2188.2813,664.1191 2188.2813,662.8379 L2188.2813,661.6816 Q2188.2813,660.3535 2188.8906,659.2129 Q2189.5156,658.0566 2190.6094,657.4473 Q2191.7031,656.8223 2192.9375,656.8223 Q2193.6719,656.8223 2194.3125,656.9941 Q2194.9688,657.1504 2195.5156,657.5098 Z " fill="#000000"/><text fill="#000000" font-family="sans-serif" font-size="14" lengthAdjust="spacing" textLength="76" x="2213.25" y="667.4316">JobOpening</text><line style="stroke:#000000;stroke-width:0.5;" x1="1638" x2="2832" y1="677.6348" y2="677.6348"/><line style="stroke:#000000;stroke-width:0.5;" x1="1638" x2="2832" y1="685.6348" y2="685.6348"/><ellipse cx="1648" cy="700.4453" fill="#84BE84" rx="3" ry="3" style="stroke:#038048;stroke-width:1.0;"/><text fill="#000000" font-family="sans-serif" font-size="14" lengthAdjust="spacing" textLength="1170" x="1657" y="704.7422">JobOpening(jobReference, description, vacanciesNumber, address, mode, contractType, titleOrFunction, customer, jobRequirementsSpecification, process, interviewModel) : JobOpening</text><text fill="#000000" font-family="sans-serif" font-size="14" lengthAdjust="spacing" textLength="86" x="1657" y="723.3633">JobOpening()</text><ellipse cx="1648" cy="737.6875" fill="#84BE84" rx="3" ry="3" style="stroke:#038048;stroke-width:1.0;"/><text fill="#000000" font-family="sans-serif" font-size="14" lengthAdjust="spacing" textLength="155" x="1657" y="741.9844">identity() : JobReference</text><ellipse cx="1648" cy="756.3086" fill="#84BE84" rx="3" ry="3" style="stroke:#038048;stroke-width:1.0;"/><text fill="#000000" font-family="sans-serif" font-size="14" lengthAdjust="spacing" textLength="189" x="1657" y="760.6055">equals(otherObject) : boolean</text><ellipse cx="1648" cy="774.9297" fill="#84BE84" rx="3" ry="3" style="stroke:#038048;stroke-width:1.0;"/><text fill="#000000" font-family="sans-serif" font-size="14" lengthAdjust="spacing" textLength="197" x="1657" y="779.2266">sameAs(otherObject) : boolean</text><ellipse cx="1648" cy="793.5508" fill="#84BE84" rx="3" ry="3" style="stroke:#038048;stroke-width:1.0;"/><text fill="#000000" font-family="sans-serif" font-size="14" lengthAdjust="spacing" textLength="195" x="1657" y="797.8477">jobReference() : JobReference</text><ellipse cx="1648" cy="812.1719" fill="#84BE84" rx="3" ry="3" style="stroke:#038048;stroke-width:1.0;"/><text fill="#000000" font-family="sans-serif" font-size="14" lengthAdjust="spacing" textLength="162" x="1657" y="816.4688">description() : Description</text><ellipse cx="1648" cy="830.793" fill="#84BE84" rx="3" ry="3" style="stroke:#038048;stroke-width:1.0;"/><text fill="#000000" font-family="sans-serif" font-size="14" lengthAdjust="spacing" textLength="248" x="1657" y="835.0898">vacanciesNumber() : VacanciesNumber</text><ellipse cx="1648" cy="849.4141" fill="#84BE84" rx="3" ry="3" style="stroke:#038048;stroke-width:1.0;"/><text fill="#000000" font-family="sans-serif" font-size="14" lengthAdjust="spacing" textLength="125" x="1657" y="853.7109">address() : Address</text><ellipse cx="1648" cy="868.0352" fill="#84BE84" rx="3" ry="3" style="stroke:#038048;stroke-width:1.0;"/><text fill="#000000" font-family="sans-serif" font-size="14" lengthAdjust="spacing" textLength="96" x="1657" y="872.332">mode() :  Mode</text><ellipse cx="1648" cy="886.6563" fill="#84BE84" rx="3" ry="3" style="stroke:#038048;stroke-width:1.0;"/><text fill="#000000" font-family="sans-serif" font-size="14" lengthAdjust="spacing" textLength="191" x="1657" y="890.9531">contractType() : ContractType</text><ellipse cx="1648" cy="905.2773" fill="#84BE84" rx="3" ry="3" style="stroke:#038048;stroke-width:1.0;"/><text fill="#000000" font-family="sans-serif" font-size="14" lengthAdjust="spacing" textLength="213" x="1657" y="909.5742">titleOrFunction() : TitleOrFunction</text><ellipse cx="1648" cy="923.8984" fill="#84BE84" rx="3" ry="3" style="stroke:#038048;stroke-width:1.0;"/><text fill="#000000" font-family="sans-serif" font-size="14" lengthAdjust="spacing" textLength="141" x="1657" y="928.1953">customer() : Customer</text><ellipse cx="1648" cy="942.5195" fill="#84BE84" rx="3" ry="3" style="stroke:#038048;stroke-width:1.0;"/><text fill="#000000" font-family="sans-serif" font-size="14" lengthAdjust="spacing" textLength="399" x="1657" y="946.8164">jobRequirementsSpecification() : JobRequirementsSpecification</text><ellipse cx="1648" cy="961.1406" fill="#84BE84" rx="3" ry="3" style="stroke:#038048;stroke-width:1.0;"/><text fill="#000000" font-family="sans-serif" font-size="14" lengthAdjust="spacing" textLength="123" x="1657" y="965.4375">process() : Process</text><ellipse cx="1648" cy="979.7617" fill="#84BE84" rx="3" ry="3" style="stroke:#038048;stroke-width:1.0;"/><text fill="#000000" font-family="sans-serif" font-size="14" lengthAdjust="spacing" textLength="226" x="1657" y="984.0586">myInterviewModel() : InterviewModel</text><ellipse cx="1648" cy="998.3828" fill="#84BE84" rx="3" ry="3" style="stroke:#038048;stroke-width:1.0;"/><text fill="#000000" font-family="sans-serif" font-size="14" lengthAdjust="spacing" textLength="351" x="1657" y="1002.6797">updateJobRequirements(jobRequirementsSpecification)</text><ellipse cx="1648" cy="1017.0039" fill="#84BE84" rx="3" ry="3" style="stroke:#038048;stroke-width:1.0;"/><text fill="#000000" font-family="sans-serif" font-size="14" lengthAdjust="spacing" textLength="240" x="1657" y="1021.3008">updateInterviewModel(interviewModel)</text><ellipse cx="1648" cy="1035.625" fill="#84BE84" rx="3" ry="3" style="stroke:#038048;stroke-width:1.0;"/><text fill="#000000" font-family="sans-serif" font-size="14" lengthAdjust="spacing" textLength="258" x="1657" y="1039.9219">sameReference(jobReference) : boolean</text><ellipse cx="1648" cy="1054.2461" fill="#84BE84" rx="3" ry="3" style="stroke:#038048;stroke-width:1.0;"/><text fill="#000000" font-family="sans-serif" font-size="14" lengthAdjust="spacing" textLength="108" x="1657" y="1058.543">toString() : String</text></g><!--class Address--><g id="elem_Address"><rect codeLine="102" fill="#FFFFFF" height="178.3477" id="Address" rx="2.5" ry="2.5" style="stroke:#000000;stroke-width:0.5;" width="215" x="1491.5" y="1181.6348"/><ellipse cx="1568.75" cy="1197.6348" fill="#ADD1B2" rx="11" ry="11" style="stroke:#181818;stroke-width:1.0;"/><path d="M1571.5156,1193.5098 Q1571.6719,1193.291 1571.8594,1193.1816 Q1572.0469,1193.0723 1572.2656,1193.0723 Q1572.6406,1193.0723 1572.875,1193.3379 Q1573.1094,1193.5879 1573.1094,1194.1973 L1573.1094,1195.6504 Q1573.1094,1196.2598 1572.875,1196.5254 Q1572.6406,1196.791 1572.2656,1196.791 Q1571.9219,1196.791 1571.7188,1196.5879 Q1571.5156,1196.4004 1571.4063,1195.8848 Q1571.3594,1195.5254 1571.1719,1195.3379 Q1570.8438,1194.9629 1570.2344,1194.7441 Q1569.625,1194.5254 1569,1194.5254 Q1568.2344,1194.5254 1567.5938,1194.8535 Q1566.9688,1195.1816 1566.4688,1195.9316 Q1565.9844,1196.6816 1565.9844,1197.7129 L1565.9844,1198.8066 Q1565.9844,1200.041 1566.875,1200.8691 Q1567.7656,1201.6816 1569.3594,1201.6816 Q1570.2969,1201.6816 1570.9531,1201.4316 Q1571.3438,1201.2754 1571.7656,1200.8379 Q1572.0313,1200.5723 1572.1719,1200.4941 Q1572.3281,1200.416 1572.5313,1200.416 Q1572.8594,1200.416 1573.1094,1200.6816 Q1573.375,1200.9316 1573.375,1201.2754 Q1573.375,1201.6191 1573.0313,1202.0254 Q1572.5313,1202.6035 1571.7344,1202.9316 Q1570.6563,1203.3848 1569.3594,1203.3848 Q1567.8438,1203.3848 1566.6406,1202.7598 Q1565.6563,1202.2598 1564.9688,1201.1973 Q1564.2813,1200.1191 1564.2813,1198.8379 L1564.2813,1197.6816 Q1564.2813,1196.3535 1564.8906,1195.2129 Q1565.5156,1194.0566 1566.6094,1193.4473 Q1567.7031,1192.8223 1568.9375,1192.8223 Q1569.6719,1192.8223 1570.3125,1192.9941 Q1570.9688,1193.1504 1571.5156,1193.5098 Z " fill="#000000"/><text fill="#000000" font-family="sans-serif" font-size="14" lengthAdjust="spacing" textLength="52" x="1589.25" y="1203.4316">Address</text><line style="stroke:#000000;stroke-width:0.5;" x1="1492.5" x2="1705.5" y1="1213.6348" y2="1213.6348"/><rect fill="none" height="6" style="stroke:#C82930;stroke-width:1.0;" width="6" x="1499.5" y="1225.4453"/><text fill="#000000" font-family="sans-serif" font-size="14" lengthAdjust="spacing" textLength="100" x="1511.5" y="1232.7422">address : String</text><line style="stroke:#000000;stroke-width:0.5;" x1="1492.5" x2="1705.5" y1="1240.2559" y2="1240.2559"/><ellipse cx="1502.5" cy="1255.0664" fill="#84BE84" rx="3" ry="3" style="stroke:#038048;stroke-width:1.0;"/><text fill="#000000" font-family="sans-serif" font-size="14" lengthAdjust="spacing" textLength="177" x="1511.5" y="1259.3633">Address(address) : Address</text><text fill="#000000" font-family="sans-serif" font-size="14" lengthAdjust="spacing" textLength="62" x="1511.5" y="1277.9844">Address()</text><ellipse cx="1502.5" cy="1292.3086" fill="#84BE84" rx="3" ry="3" style="stroke:#038048;stroke-width:1.0;"/><text fill="#000000" font-family="sans-serif" font-size="14" lengthAdjust="spacing" textLength="174" x="1511.5" y="1296.6055">valueOf(address) : Address</text><ellipse cx="1502.5" cy="1310.9297" fill="#84BE84" rx="3" ry="3" style="stroke:#038048;stroke-width:1.0;"/><text fill="#000000" font-family="sans-serif" font-size="14" lengthAdjust="spacing" textLength="189" x="1511.5" y="1315.2266">equals(otherObject) : boolean</text><ellipse cx="1502.5" cy="1329.5508" fill="#84BE84" rx="3" ry="3" style="stroke:#038048;stroke-width:1.0;"/><text fill="#000000" font-family="sans-serif" font-size="14" lengthAdjust="spacing" textLength="102" x="1511.5" y="1333.8477">hashCode() : int</text><ellipse cx="1502.5" cy="1348.1719" fill="#84BE84" rx="3" ry="3" style="stroke:#038048;stroke-width:1.0;"/><text fill="#000000" font-family="sans-serif" font-size="14" lengthAdjust="spacing" textLength="108" x="1511.5" y="1352.4688">toString() : String</text></g><!--class ContractType--><g id="elem_ContractType"><rect codeLine="112" fill="#FFFFFF" height="85.2422" id="ContractType" rx="2.5" ry="2.5" style="stroke:#000000;stroke-width:0.5;" width="118" x="1742" y="1228.1348"/><ellipse cx="1757" cy="1244.1348" fill="#EB937F" rx="11" ry="11" style="stroke:#181818;stroke-width:1.0;"/><path d="M1755.8594,1244.9316 L1755.8594,1247.4316 L1760.1875,1247.4316 L1760.1875,1246.5098 Q1760.1875,1245.9004 1760.4219,1245.6348 Q1760.6719,1245.3691 1761.0469,1245.3691 Q1761.4219,1245.3691 1761.6563,1245.6348 Q1761.8906,1245.9004 1761.8906,1246.5098 L1761.8906,1249.1348 L1753.8906,1249.1348 Q1753.2656,1249.1348 1753,1248.9004 Q1752.75,1248.666 1752.75,1248.2754 Q1752.75,1247.9004 1753.0156,1247.666 Q1753.2813,1247.4316 1753.8906,1247.4316 L1754.1563,1247.4316 L1754.1563,1240.7754 L1753.8906,1240.7754 Q1753.2656,1240.7754 1753,1240.541 Q1752.75,1240.3066 1752.75,1239.916 Q1752.75,1239.541 1753,1239.3066 Q1753.2656,1239.0723 1753.8906,1239.0723 L1761.5156,1239.0723 L1761.5156,1241.666 Q1761.5156,1242.2754 1761.2813,1242.541 Q1761.0625,1242.791 1760.6719,1242.791 Q1760.2969,1242.791 1760.0625,1242.541 Q1759.8281,1242.2754 1759.8281,1241.666 L1759.8281,1240.7754 L1755.8594,1240.7754 L1755.8594,1243.2285 L1757.3438,1243.2285 Q1757.3438,1242.5723 1757.4688,1242.3848 Q1757.7344,1241.9785 1758.2031,1241.9785 Q1758.5781,1241.9785 1758.8125,1242.2441 Q1759.0469,1242.4941 1759.0469,1243.1035 L1759.0469,1245.0723 Q1759.0469,1245.6191 1758.9219,1245.8066 Q1758.6563,1246.1973 1758.2031,1246.1973 Q1757.7344,1246.1973 1757.4688,1245.791 Q1757.3438,1245.6035 1757.3438,1244.9316 L1755.8594,1244.9316 Z " fill="#000000"/><text fill="#000000" font-family="sans-serif" font-size="14" lengthAdjust="spacing" textLength="86" x="1771" y="1249.9316">ContractType</text><line style="stroke:#000000;stroke-width:0.5;" x1="1743" x2="1859" y1="1260.1348" y2="1260.1348"/><text fill="#000000" font-family="sans-serif" font-size="14" lengthAdjust="spacing" textLength="74" x="1748" y="1279.2422">FULL_TIME</text><text fill="#000000" font-family="sans-serif" font-size="14" lengthAdjust="spacing" textLength="77" x="1748" y="1297.8633">PART_TIME</text><line style="stroke:#000000;stroke-width:0.5;" x1="1743" x2="1859" y1="1305.377" y2="1305.377"/></g><!--class Description--><g id="elem_Description"><rect codeLine="117" fill="#FFFFFF" height="178.3477" id="Description" rx="2.5" ry="2.5" style="stroke:#000000;stroke-width:0.5;" width="259" x="1895.5" y="1181.6348"/><ellipse cx="1985.25" cy="1197.6348" fill="#ADD1B2" rx="11" ry="11" style="stroke:#181818;stroke-width:1.0;"/><path d="M1988.0156,1193.5098 Q1988.1719,1193.291 1988.3594,1193.1816 Q1988.5469,1193.0723 1988.7656,1193.0723 Q1989.1406,1193.0723 1989.375,1193.3379 Q1989.6094,1193.5879 1989.6094,1194.1973 L1989.6094,1195.6504 Q1989.6094,1196.2598 1989.375,1196.5254 Q1989.1406,1196.791 1988.7656,1196.791 Q1988.4219,1196.791 1988.2188,1196.5879 Q1988.0156,1196.4004 1987.9063,1195.8848 Q1987.8594,1195.5254 1987.6719,1195.3379 Q1987.3438,1194.9629 1986.7344,1194.7441 Q1986.125,1194.5254 1985.5,1194.5254 Q1984.7344,1194.5254 1984.0938,1194.8535 Q1983.4688,1195.1816 1982.9688,1195.9316 Q1982.4844,1196.6816 1982.4844,1197.7129 L1982.4844,1198.8066 Q1982.4844,1200.041 1983.375,1200.8691 Q1984.2656,1201.6816 1985.8594,1201.6816 Q1986.7969,1201.6816 1987.4531,1201.4316 Q1987.8438,1201.2754 1988.2656,1200.8379 Q1988.5313,1200.5723 1988.6719,1200.4941 Q1988.8281,1200.416 1989.0313,1200.416 Q1989.3594,1200.416 1989.6094,1200.6816 Q1989.875,1200.9316 1989.875,1201.2754 Q1989.875,1201.6191 1989.5313,1202.0254 Q1989.0313,1202.6035 1988.2344,1202.9316 Q1987.1563,1203.3848 1985.8594,1203.3848 Q1984.3438,1203.3848 1983.1406,1202.7598 Q1982.1563,1202.2598 1981.4688,1201.1973 Q1980.7813,1200.1191 1980.7813,1198.8379 L1980.7813,1197.6816 Q1980.7813,1196.3535 1981.3906,1195.2129 Q1982.0156,1194.0566 1983.1094,1193.4473 Q1984.2031,1192.8223 1985.4375,1192.8223 Q1986.1719,1192.8223 1986.8125,1192.9941 Q1987.4688,1193.1504 1988.0156,1193.5098 Z " fill="#000000"/><text fill="#000000" font-family="sans-serif" font-size="14" lengthAdjust="spacing" textLength="71" x="2005.75" y="1203.4316">Description</text><line style="stroke:#000000;stroke-width:0.5;" x1="1896.5" x2="2153.5" y1="1213.6348" y2="1213.6348"/><rect fill="none" height="6" style="stroke:#C82930;stroke-width:1.0;" width="6" x="1903.5" y="1225.4453"/><text fill="#000000" font-family="sans-serif" font-size="14" lengthAdjust="spacing" textLength="118" x="1915.5" y="1232.7422">description : String</text><line style="stroke:#000000;stroke-width:0.5;" x1="1896.5" x2="2153.5" y1="1240.2559" y2="1240.2559"/><ellipse cx="1906.5" cy="1255.0664" fill="#84BE84" rx="3" ry="3" style="stroke:#038048;stroke-width:1.0;"/><text fill="#000000" font-family="sans-serif" font-size="14" lengthAdjust="spacing" textLength="233" x="1915.5" y="1259.3633">Description(description) : Description</text><text fill="#000000" font-family="sans-serif" font-size="14" lengthAdjust="spacing" textLength="81" x="1915.5" y="1277.9844">Description()</text><ellipse cx="1906.5" cy="1292.3086" fill="#84BE84" rx="3" ry="3" style="stroke:#038048;stroke-width:1.0;"/><text fill="#000000" font-family="sans-serif" font-size="14" lengthAdjust="spacing" textLength="211" x="1915.5" y="1296.6055">valueOf(description) : Description</text><ellipse cx="1906.5" cy="1310.9297" fill="#84BE84" rx="3" ry="3" style="stroke:#038048;stroke-width:1.0;"/><text fill="#000000" font-family="sans-serif" font-size="14" lengthAdjust="spacing" textLength="189" x="1915.5" y="1315.2266">equals(otherObject) : boolean</text><ellipse cx="1906.5" cy="1329.5508" fill="#84BE84" rx="3" ry="3" style="stroke:#038048;stroke-width:1.0;"/><text fill="#000000" font-family="sans-serif" font-size="14" lengthAdjust="spacing" textLength="102" x="1915.5" y="1333.8477">hashCode() : int</text><ellipse cx="1906.5" cy="1348.1719" fill="#84BE84" rx="3" ry="3" style="stroke:#038048;stroke-width:1.0;"/><text fill="#000000" font-family="sans-serif" font-size="14" lengthAdjust="spacing" textLength="108" x="1915.5" y="1352.4688">toString() : String</text></g><!--class JobReference--><g id="elem_JobReference"><rect codeLine="127" fill="#FFFFFF" height="271.4531" id="JobReference" rx="2.5" ry="2.5" style="stroke:#000000;stroke-width:0.5;" width="382" x="2190" y="1135.1348"/><ellipse cx="2332.75" cy="1151.1348" fill="#ADD1B2" rx="11" ry="11" style="stroke:#181818;stroke-width:1.0;"/><path d="M2335.5156,1147.0098 Q2335.6719,1146.791 2335.8594,1146.6816 Q2336.0469,1146.5723 2336.2656,1146.5723 Q2336.6406,1146.5723 2336.875,1146.8379 Q2337.1094,1147.0879 2337.1094,1147.6973 L2337.1094,1149.1504 Q2337.1094,1149.7598 2336.875,1150.0254 Q2336.6406,1150.291 2336.2656,1150.291 Q2335.9219,1150.291 2335.7188,1150.0879 Q2335.5156,1149.9004 2335.4063,1149.3848 Q2335.3594,1149.0254 2335.1719,1148.8379 Q2334.8438,1148.4629 2334.2344,1148.2441 Q2333.625,1148.0254 2333,1148.0254 Q2332.2344,1148.0254 2331.5938,1148.3535 Q2330.9688,1148.6816 2330.4688,1149.4316 Q2329.9844,1150.1816 2329.9844,1151.2129 L2329.9844,1152.3066 Q2329.9844,1153.541 2330.875,1154.3691 Q2331.7656,1155.1816 2333.3594,1155.1816 Q2334.2969,1155.1816 2334.9531,1154.9316 Q2335.3438,1154.7754 2335.7656,1154.3379 Q2336.0313,1154.0723 2336.1719,1153.9941 Q2336.3281,1153.916 2336.5313,1153.916 Q2336.8594,1153.916 2337.1094,1154.1816 Q2337.375,1154.4316 2337.375,1154.7754 Q2337.375,1155.1191 2337.0313,1155.5254 Q2336.5313,1156.1035 2335.7344,1156.4316 Q2334.6563,1156.8848 2333.3594,1156.8848 Q2331.8438,1156.8848 2330.6406,1156.2598 Q2329.6563,1155.7598 2328.9688,1154.6973 Q2328.2813,1153.6191 2328.2813,1152.3379 L2328.2813,1151.1816 Q2328.2813,1149.8535 2328.8906,1148.7129 Q2329.5156,1147.5566 2330.6094,1146.9473 Q2331.7031,1146.3223 2332.9375,1146.3223 Q2333.6719,1146.3223 2334.3125,1146.4941 Q2334.9688,1146.6504 2335.5156,1147.0098 Z " fill="#000000"/><text fill="#000000" font-family="sans-serif" font-size="14" lengthAdjust="spacing" textLength="88" x="2353.25" y="1156.9316">JobReference</text><line style="stroke:#000000;stroke-width:0.5;" x1="2191" x2="2571" y1="1167.1348" y2="1167.1348"/><rect fill="none" height="6" style="stroke:#C82930;stroke-width:1.0;" width="6" x="2198" y="1178.9453"/><text fill="#000000" font-family="sans-serif" font-size="14" lengthAdjust="spacing" textLength="181" x="2210" y="1186.2422">private jobReference : String</text><rect fill="none" height="6" style="stroke:#C82930;stroke-width:1.0;" width="6" x="2198" y="1197.5664"/><text fill="#000000" font-family="sans-serif" font-size="14" lengthAdjust="spacing" textLength="212" x="2210" y="1204.8633">private lastSequentialNumber : int</text><line style="stroke:#000000;stroke-width:0.5;" x1="2191" x2="2571" y1="1212.377" y2="1212.377"/><text fill="#000000" font-family="sans-serif" font-size="14" lengthAdjust="spacing" textLength="98" x="2210" y="1231.4844">JobReference()</text><ellipse cx="2201" cy="1245.8086" fill="#84BE84" rx="3" ry="3" style="stroke:#038048;stroke-width:1.0;"/><text fill="#000000" font-family="sans-serif" font-size="14" lengthAdjust="spacing" textLength="356" x="2210" y="1250.1055">JobReference(companyName, generate) : JobReference</text><rect fill="#F24D5C" height="6" style="stroke:#C82930;stroke-width:1.0;" width="6" x="2198" y="1261.4297"/><text fill="#000000" font-family="sans-serif" font-size="14" lengthAdjust="spacing" textLength="308" x="2210" y="1268.7266">buildCompanyReference(companyName) : String</text><ellipse cx="2201" cy="1283.0508" fill="#84BE84" rx="3" ry="3" style="stroke:#038048;stroke-width:1.0;"/><text fill="#000000" font-family="sans-serif" font-size="14" lengthAdjust="spacing" textLength="278" x="2210" y="1287.3477">buildReference(companyReference) : String</text><ellipse cx="2201" cy="1301.6719" fill="#84BE84" rx="3" ry="3" style="stroke:#038048;stroke-width:1.0;"/><text fill="#000000" font-family="sans-serif" font-size="14" lengthAdjust="spacing" textLength="244" x="2210" y="1305.9688">valueOf(jobReference) : JobReference</text><ellipse cx="2201" cy="1320.293" fill="#84BE84" rx="3" ry="3" style="stroke:#038048;stroke-width:1.0;"/><text fill="#000000" font-family="sans-serif" font-size="14" lengthAdjust="spacing" textLength="335" x="2210" y="1324.5898">stringToJobReference(jobReference) : JobReference</text><ellipse cx="2201" cy="1338.9141" fill="#84BE84" rx="3" ry="3" style="stroke:#038048;stroke-width:1.0;"/><text fill="#000000" font-family="sans-serif" font-size="14" lengthAdjust="spacing" textLength="108" x="2210" y="1343.2109">toString() : String</text><ellipse cx="2201" cy="1357.5352" fill="#84BE84" rx="3" ry="3" style="stroke:#038048;stroke-width:1.0;"/><text fill="#000000" font-family="sans-serif" font-size="14" lengthAdjust="spacing" textLength="183" x="2210" y="1361.832">compareTo(otherObject) : int</text><ellipse cx="2201" cy="1376.1563" fill="#84BE84" rx="3" ry="3" style="stroke:#038048;stroke-width:1.0;"/><text fill="#000000" font-family="sans-serif" font-size="14" lengthAdjust="spacing" textLength="102" x="2210" y="1380.4531">hashCode() : int</text><ellipse cx="2201" cy="1394.7773" fill="#84BE84" rx="3" ry="3" style="stroke:#038048;stroke-width:1.0;"/><text fill="#000000" font-family="sans-serif" font-size="14" lengthAdjust="spacing" textLength="189" x="2210" y="1399.0742">equals(otherObject) : boolean</text></g><!--class Mode--><g id="elem_Mode"><rect codeLine="142" fill="#FFFFFF" height="103.8633" id="Mode" rx="2.5" ry="2.5" style="stroke:#000000;stroke-width:0.5;" width="71" x="2607.5" y="1218.6348"/><ellipse cx="2624.3" cy="1234.6348" fill="#EB937F" rx="11" ry="11" style="stroke:#181818;stroke-width:1.0;"/><path d="M2623.1594,1235.4316 L2623.1594,1237.9316 L2627.4875,1237.9316 L2627.4875,1237.0098 Q2627.4875,1236.4004 2627.7219,1236.1348 Q2627.9719,1235.8691 2628.3469,1235.8691 Q2628.7219,1235.8691 2628.9563,1236.1348 Q2629.1906,1236.4004 2629.1906,1237.0098 L2629.1906,1239.6348 L2621.1906,1239.6348 Q2620.5656,1239.6348 2620.3,1239.4004 Q2620.05,1239.166 2620.05,1238.7754 Q2620.05,1238.4004 2620.3156,1238.166 Q2620.5813,1237.9316 2621.1906,1237.9316 L2621.4563,1237.9316 L2621.4563,1231.2754 L2621.1906,1231.2754 Q2620.5656,1231.2754 2620.3,1231.041 Q2620.05,1230.8066 2620.05,1230.416 Q2620.05,1230.041 2620.3,1229.8066 Q2620.5656,1229.5723 2621.1906,1229.5723 L2628.8156,1229.5723 L2628.8156,1232.166 Q2628.8156,1232.7754 2628.5813,1233.041 Q2628.3625,1233.291 2627.9719,1233.291 Q2627.5969,1233.291 2627.3625,1233.041 Q2627.1281,1232.7754 2627.1281,1232.166 L2627.1281,1231.2754 L2623.1594,1231.2754 L2623.1594,1233.7285 L2624.6438,1233.7285 Q2624.6438,1233.0723 2624.7688,1232.8848 Q2625.0344,1232.4785 2625.5031,1232.4785 Q2625.8781,1232.4785 2626.1125,1232.7441 Q2626.3469,1232.9941 2626.3469,1233.6035 L2626.3469,1235.5723 Q2626.3469,1236.1191 2626.2219,1236.3066 Q2625.9563,1236.6973 2625.5031,1236.6973 Q2625.0344,1236.6973 2624.7688,1236.291 Q2624.6438,1236.1035 2624.6438,1235.4316 L2623.1594,1235.4316 Z " fill="#000000"/><text fill="#000000" font-family="sans-serif" font-size="14" lengthAdjust="spacing" textLength="35" x="2638.7" y="1240.4316">Mode</text><line style="stroke:#000000;stroke-width:0.5;" x1="2608.5" x2="2677.5" y1="1250.6348" y2="1250.6348"/><text fill="#000000" font-family="sans-serif" font-size="14" lengthAdjust="spacing" textLength="59" x="2613.5" y="1269.7422">REMOTE</text><text fill="#000000" font-family="sans-serif" font-size="14" lengthAdjust="spacing" textLength="50" x="2613.5" y="1288.3633">HYBRID</text><text fill="#000000" font-family="sans-serif" font-size="14" lengthAdjust="spacing" textLength="58" x="2613.5" y="1306.9844">ON_SITE</text><line style="stroke:#000000;stroke-width:0.5;" x1="2608.5" x2="2677.5" y1="1314.498" y2="1314.498"/></g><!--class TitleOrFunction--><g id="elem_TitleOrFunction"><rect codeLine="148" fill="#FFFFFF" height="178.3477" id="TitleOrFunction" rx="2.5" ry="2.5" style="stroke:#000000;stroke-width:0.5;" width="337" x="2713.5" y="1181.6348"/><ellipse cx="2828.75" cy="1197.6348" fill="#ADD1B2" rx="11" ry="11" style="stroke:#181818;stroke-width:1.0;"/><path d="M2831.5156,1193.5098 Q2831.6719,1193.291 2831.8594,1193.1816 Q2832.0469,1193.0723 2832.2656,1193.0723 Q2832.6406,1193.0723 2832.875,1193.3379 Q2833.1094,1193.5879 2833.1094,1194.1973 L2833.1094,1195.6504 Q2833.1094,1196.2598 2832.875,1196.5254 Q2832.6406,1196.791 2832.2656,1196.791 Q2831.9219,1196.791 2831.7188,1196.5879 Q2831.5156,1196.4004 2831.4063,1195.8848 Q2831.3594,1195.5254 2831.1719,1195.3379 Q2830.8438,1194.9629 2830.2344,1194.7441 Q2829.625,1194.5254 2829,1194.5254 Q2828.2344,1194.5254 2827.5938,1194.8535 Q2826.9688,1195.1816 2826.4688,1195.9316 Q2825.9844,1196.6816 2825.9844,1197.7129 L2825.9844,1198.8066 Q2825.9844,1200.041 2826.875,1200.8691 Q2827.7656,1201.6816 2829.3594,1201.6816 Q2830.2969,1201.6816 2830.9531,1201.4316 Q2831.3438,1201.2754 2831.7656,1200.8379 Q2832.0313,1200.5723 2832.1719,1200.4941 Q2832.3281,1200.416 2832.5313,1200.416 Q2832.8594,1200.416 2833.1094,1200.6816 Q2833.375,1200.9316 2833.375,1201.2754 Q2833.375,1201.6191 2833.0313,1202.0254 Q2832.5313,1202.6035 2831.7344,1202.9316 Q2830.6563,1203.3848 2829.3594,1203.3848 Q2827.8438,1203.3848 2826.6406,1202.7598 Q2825.6563,1202.2598 2824.9688,1201.1973 Q2824.2813,1200.1191 2824.2813,1198.8379 L2824.2813,1197.6816 Q2824.2813,1196.3535 2824.8906,1195.2129 Q2825.5156,1194.0566 2826.6094,1193.4473 Q2827.7031,1192.8223 2828.9375,1192.8223 Q2829.6719,1192.8223 2830.3125,1192.9941 Q2830.9688,1193.1504 2831.5156,1193.5098 Z " fill="#000000"/><text fill="#000000" font-family="sans-serif" font-size="14" lengthAdjust="spacing" textLength="98" x="2849.25" y="1203.4316">TitleOrFunction</text><line style="stroke:#000000;stroke-width:0.5;" x1="2714.5" x2="3049.5" y1="1213.6348" y2="1213.6348"/><rect fill="none" height="6" style="stroke:#C82930;stroke-width:1.0;" width="6" x="2721.5" y="1225.4453"/><text fill="#000000" font-family="sans-serif" font-size="14" lengthAdjust="spacing" textLength="142" x="2733.5" y="1232.7422">titleOrFunction : String</text><line style="stroke:#000000;stroke-width:0.5;" x1="2714.5" x2="3049.5" y1="1240.2559" y2="1240.2559"/><ellipse cx="2724.5" cy="1255.0664" fill="#84BE84" rx="3" ry="3" style="stroke:#038048;stroke-width:1.0;"/><text fill="#000000" font-family="sans-serif" font-size="14" lengthAdjust="spacing" textLength="311" x="2733.5" y="1259.3633">TitleOrFunction(titleOrFunction) : TitleOrFunction</text><text fill="#000000" font-family="sans-serif" font-size="14" lengthAdjust="spacing" textLength="108" x="2733.5" y="1277.9844">TitleOrFunction()</text><ellipse cx="2724.5" cy="1292.3086" fill="#84BE84" rx="3" ry="3" style="stroke:#038048;stroke-width:1.0;"/><text fill="#000000" font-family="sans-serif" font-size="14" lengthAdjust="spacing" textLength="262" x="2733.5" y="1296.6055">valueOf(titleOrFunction) : TitleOrFunction</text><ellipse cx="2724.5" cy="1310.9297" fill="#84BE84" rx="3" ry="3" style="stroke:#038048;stroke-width:1.0;"/><text fill="#000000" font-family="sans-serif" font-size="14" lengthAdjust="spacing" textLength="189" x="2733.5" y="1315.2266">equals(otherObject) : boolean</text><ellipse cx="2724.5" cy="1329.5508" fill="#84BE84" rx="3" ry="3" style="stroke:#038048;stroke-width:1.0;"/><text fill="#000000" font-family="sans-serif" font-size="14" lengthAdjust="spacing" textLength="102" x="2733.5" y="1333.8477">hashCode() : int</text><ellipse cx="2724.5" cy="1348.1719" fill="#84BE84" rx="3" ry="3" style="stroke:#038048;stroke-width:1.0;"/><text fill="#000000" font-family="sans-serif" font-size="14" lengthAdjust="spacing" textLength="108" x="2733.5" y="1352.4688">toString() : String</text></g><!--class VacanciesNumber--><g id="elem_VacanciesNumber"><rect codeLine="158" fill="#FFFFFF" height="178.3477" id="VacanciesNumber" rx="2.5" ry="2.5" style="stroke:#000000;stroke-width:0.5;" width="388" x="3086" y="1181.6348"/><ellipse cx="3218.75" cy="1197.6348" fill="#ADD1B2" rx="11" ry="11" style="stroke:#181818;stroke-width:1.0;"/><path d="M3221.5156,1193.5098 Q3221.6719,1193.291 3221.8594,1193.1816 Q3222.0469,1193.0723 3222.2656,1193.0723 Q3222.6406,1193.0723 3222.875,1193.3379 Q3223.1094,1193.5879 3223.1094,1194.1973 L3223.1094,1195.6504 Q3223.1094,1196.2598 3222.875,1196.5254 Q3222.6406,1196.791 3222.2656,1196.791 Q3221.9219,1196.791 3221.7188,1196.5879 Q3221.5156,1196.4004 3221.4063,1195.8848 Q3221.3594,1195.5254 3221.1719,1195.3379 Q3220.8438,1194.9629 3220.2344,1194.7441 Q3219.625,1194.5254 3219,1194.5254 Q3218.2344,1194.5254 3217.5938,1194.8535 Q3216.9688,1195.1816 3216.4688,1195.9316 Q3215.9844,1196.6816 3215.9844,1197.7129 L3215.9844,1198.8066 Q3215.9844,1200.041 3216.875,1200.8691 Q3217.7656,1201.6816 3219.3594,1201.6816 Q3220.2969,1201.6816 3220.9531,1201.4316 Q3221.3438,1201.2754 3221.7656,1200.8379 Q3222.0313,1200.5723 3222.1719,1200.4941 Q3222.3281,1200.416 3222.5313,1200.416 Q3222.8594,1200.416 3223.1094,1200.6816 Q3223.375,1200.9316 3223.375,1201.2754 Q3223.375,1201.6191 3223.0313,1202.0254 Q3222.5313,1202.6035 3221.7344,1202.9316 Q3220.6563,1203.3848 3219.3594,1203.3848 Q3217.8438,1203.3848 3216.6406,1202.7598 Q3215.6563,1202.2598 3214.9688,1201.1973 Q3214.2813,1200.1191 3214.2813,1198.8379 L3214.2813,1197.6816 Q3214.2813,1196.3535 3214.8906,1195.2129 Q3215.5156,1194.0566 3216.6094,1193.4473 Q3217.7031,1192.8223 3218.9375,1192.8223 Q3219.6719,1192.8223 3220.3125,1192.9941 Q3220.9688,1193.1504 3221.5156,1193.5098 Z " fill="#000000"/><text fill="#000000" font-family="sans-serif" font-size="14" lengthAdjust="spacing" textLength="114" x="3239.25" y="1203.4316">VacanciesNumber</text><line style="stroke:#000000;stroke-width:0.5;" x1="3087" x2="3473" y1="1213.6348" y2="1213.6348"/><rect fill="none" height="6" style="stroke:#C82930;stroke-width:1.0;" width="6" x="3094" y="1225.4453"/><text fill="#000000" font-family="sans-serif" font-size="14" lengthAdjust="spacing" textLength="139" x="3106" y="1232.7422">vacanciesNumber : int</text><line style="stroke:#000000;stroke-width:0.5;" x1="3087" x2="3473" y1="1240.2559" y2="1240.2559"/><ellipse cx="3097" cy="1255.0664" fill="#84BE84" rx="3" ry="3" style="stroke:#038048;stroke-width:1.0;"/><text fill="#000000" font-family="sans-serif" font-size="14" lengthAdjust="spacing" textLength="362" x="3106" y="1259.3633">VacanciesNumber(vacanciesNumber) : VacanciesNumber</text><text fill="#000000" font-family="sans-serif" font-size="14" lengthAdjust="spacing" textLength="124" x="3106" y="1277.9844">VacanciesNumber()</text><ellipse cx="3097" cy="1292.3086" fill="#84BE84" rx="3" ry="3" style="stroke:#038048;stroke-width:1.0;"/><text fill="#000000" font-family="sans-serif" font-size="14" lengthAdjust="spacing" textLength="297" x="3106" y="1296.6055">valueOf(vacanciesNumber) : VacanciesNumber</text><ellipse cx="3097" cy="1310.9297" fill="#84BE84" rx="3" ry="3" style="stroke:#038048;stroke-width:1.0;"/><text fill="#000000" font-family="sans-serif" font-size="14" lengthAdjust="spacing" textLength="189" x="3106" y="1315.2266">equals(otherObject) : boolean</text><ellipse cx="3097" cy="1329.5508" fill="#84BE84" rx="3" ry="3" style="stroke:#038048;stroke-width:1.0;"/><text fill="#000000" font-family="sans-serif" font-size="14" lengthAdjust="spacing" textLength="102" x="3106" y="1333.8477">hashCode() : int</text><ellipse cx="3097" cy="1348.1719" fill="#84BE84" rx="3" ry="3" style="stroke:#038048;stroke-width:1.0;"/><text fill="#000000" font-family="sans-serif" font-size="14" lengthAdjust="spacing" textLength="108" x="3106" y="1352.4688">toString() : String</text></g><!--class JobOpeningRepository--><g id="elem_JobOpeningRepository"><rect codeLine="180" fill="#FFFFFF" height="85.2422" id="JobOpeningRepository" rx="2.5" ry="2.5" style="stroke:#000000;stroke-width:0.5;" width="259" x="3530.5" y="813.1348"/><ellipse cx="3583.25" cy="829.1348" fill="#B4A7E5" rx="11" ry="11" style="stroke:#181818;stroke-width:1.0;"/><path d="M3584.2031,825.7754 L3584.2031,832.4316 L3585.9219,832.4316 Q3586.5313,832.4316 3586.7969,832.666 Q3587.0625,832.9004 3587.0625,833.291 Q3587.0625,833.666 3586.7969,833.9004 Q3586.5313,834.1348 3585.9219,834.1348 L3580.7813,834.1348 Q3580.1719,834.1348 3579.9063,833.9004 Q3579.6406,833.666 3579.6406,833.2754 Q3579.6406,832.9004 3579.9063,832.666 Q3580.1719,832.4316 3580.7813,832.4316 L3582.5,832.4316 L3582.5,825.7754 L3580.7813,825.7754 Q3580.1719,825.7754 3579.9063,825.541 Q3579.6406,825.3066 3579.6406,824.916 Q3579.6406,824.541 3579.9063,824.3066 Q3580.1719,824.0723 3580.7813,824.0723 L3585.9219,824.0723 Q3586.5313,824.0723 3586.7969,824.3066 Q3587.0625,824.541 3587.0625,824.916 Q3587.0625,825.3066 3586.7969,825.541 Q3586.5313,825.7754 3585.9219,825.7754 L3584.2031,825.7754 Z " fill="#000000"/><text fill="#000000" font-family="sans-serif" font-size="14" font-style="italic" lengthAdjust="spacing" textLength="145" x="3603.75" y="834.9316">JobOpeningRepository</text><line style="stroke:#000000;stroke-width:0.5;" x1="3531.5" x2="3788.5" y1="845.1348" y2="845.1348"/><line style="stroke:#000000;stroke-width:0.5;" x1="3531.5" x2="3788.5" y1="853.1348" y2="853.1348"/><ellipse cx="3541.5" cy="867.9453" fill="#84BE84" rx="3" ry="3" style="stroke:#038048;stroke-width:1.0;"/><text fill="#000000" font-family="sans-serif" font-size="14" lengthAdjust="spacing" textLength="233" x="3550.5" y="872.2422">allJobOpenings() : List&lt;JobOpening&gt;</text><ellipse cx="3541.5" cy="886.5664" fill="#84BE84" rx="3" ry="3" style="stroke:#038048;stroke-width:1.0;"/><text fill="#000000" font-family="sans-serif" font-size="14" lengthAdjust="spacing" textLength="166" x="3550.5" y="890.8633">ofIdentity(id) : JobOpening</text></g><!--link ListCustomerJobOpeningsUI to ListCustomerJobOpeningsController--><g id="link_ListCustomerJobOpeningsUI_ListCustomerJobOpeningsController"><path codeLine="188" d="M682,186.9448 C682,211.9948 682,235.2648 682,257.3448 " fill="none" id="ListCustomerJobOpeningsUI-to-ListCustomerJobOpeningsController" style="stroke:#000000;stroke-width:1.0;"/><polygon fill="#000000" points="682,263.3448,686,254.3448,682,258.3448,678,254.3448,682,263.3448" style="stroke:#000000;stroke-width:1.0;"/></g><!--link ListCustomerJobOpeningsController to CustomerJobOpeningsService--><g id="link_ListCustomerJobOpeningsController_CustomerJobOpeningsService"><path codeLine="190" d="M682,330.9748 C682,364.8848 682,411.1748 682,447.9248 " fill="none" id="ListCustomerJobOpeningsController-to-CustomerJobOpeningsService" style="stroke:#000000;stroke-width:1.0;"/><polygon fill="#000000" points="682,453.9248,686,444.9248,682,448.9248,678,444.9248,682,453.9248" style="stroke:#000000;stroke-width:1.0;"/></g><!--link CustomerJobOpeningsService to CustomerService--><g id="link_CustomerJobOpeningsService_CustomerService"><path codeLine="192" d="M682,539.2248 C682,602.5648 682,715.8848 682,788.5248 " fill="none" id="CustomerJobOpeningsService-to-CustomerService" style="stroke:#000000;stroke-width:1.0;"/><polygon fill="#000000" points="682,794.5248,686,785.5248,682,789.5248,678,785.5248,682,794.5248" style="stroke:#000000;stroke-width:1.0;"/></g><!--link CustomerJobOpeningsService to JobOpeningService--><g id="link_CustomerJobOpeningsService_JobOpeningService"><path codeLine="193" d="M874.38,496.6348 C1101.61,496.6348 1480.98,496.6348 1783.71,496.6348 " fill="none" id="CustomerJobOpeningsService-to-JobOpeningService" style="stroke:#000000;stroke-width:1.0;"/><polygon fill="#000000" points="1789.71,496.6348,1780.71,492.6348,1784.71,496.6348,1780.71,500.6348,1789.71,496.6348" style="stroke:#000000;stroke-width:1.0;"/></g><!--link CustomerService to Customer--><g id="link_CustomerService_Customer"><path codeLine="195" d="M647,916.8648 C647,971.5448 647,1047.7848 647,1119.2148 " fill="none" id="CustomerService-to-Customer" style="stroke:#000000;stroke-width:1.0;"/><polygon fill="#000000" points="647,1125.2148,651,1116.2148,647,1120.2148,643,1116.2148,647,1125.2148" style="stroke:#000000;stroke-width:1.0;"/></g><!--link CustomerService to CustomerRepository--><g id="link_CustomerService_CustomerRepository"><path codeLine="196" d="M396,916.8648 C396,1032.3048 396,1270.6348 396,1270.6348 C396,1270.6348 383.48,1270.6348 357.79,1270.6348 " fill="none" id="CustomerService-to-CustomerRepository" style="stroke:#000000;stroke-width:1.0;"/><polygon fill="#000000" points="351.79,1270.6348,360.79,1274.6348,356.79,1270.6348,360.79,1266.6348,351.79,1270.6348" style="stroke:#000000;stroke-width:1.0;"/></g><!--link JobOpening to Address--><g id="link_JobOpening_Address"><path codeLine="198" d="M1683.33,1065.8748 C1683.33,1106.6448 1683.33,1141.2748 1683.33,1175.4648 " fill="none" id="JobOpening-to-Address" style="stroke:#000000;stroke-width:1.0;"/><polygon fill="#000000" points="1683.33,1181.4648,1687.33,1172.4648,1683.33,1176.4648,1679.33,1172.4648,1683.33,1181.4648" style="stroke:#000000;stroke-width:1.0;"/></g><!--link JobOpening to Mode--><g id="link_JobOpening_Mode"><path codeLine="199" d="M2643,1065.8748 C2643,1122.7048 2643,1173.2748 2643,1212.5048 " fill="none" id="JobOpening-to-Mode" style="stroke:#000000;stroke-width:1.0;"/><polygon fill="#000000" points="2643,1218.5048,2647,1209.5048,2643,1213.5048,2639,1209.5048,2643,1218.5048" style="stroke:#000000;stroke-width:1.0;"/></g><!--link JobOpening to ContractType--><g id="link_JobOpening_ContractType"><path codeLine="200" d="M1801,1065.8748 C1801,1127.5248 1801,1182.8648 1801,1222.0948 " fill="none" id="JobOpening-to-ContractType" style="stroke:#000000;stroke-width:1.0;"/><polygon fill="#000000" points="1801,1228.0948,1805,1219.0948,1801,1223.0948,1797,1219.0948,1801,1228.0948" style="stroke:#000000;stroke-width:1.0;"/></g><!--link JobOpening to Description--><g id="link_JobOpening_Description"><path codeLine="201" d="M2025,1065.8748 C2025,1106.6448 2025,1141.2748 2025,1175.4648 " fill="none" id="JobOpening-to-Description" style="stroke:#000000;stroke-width:1.0;"/><polygon fill="#000000" points="2025,1181.4648,2029,1172.4648,2025,1176.4648,2021,1172.4648,2025,1181.4648" style="stroke:#000000;stroke-width:1.0;"/></g><!--link JobOpening to JobReference--><g id="link_JobOpening_JobReference"><path codeLine="202" d="M2381,1065.8748 C2381,1089.3648 2381,1106.8248 2381,1129.0148 " fill="none" id="JobOpening-to-JobReference" style="stroke:#000000;stroke-width:1.0;"/><polygon fill="#000000" points="2381,1135.0148,2385,1126.0148,2381,1130.0148,2377,1126.0148,2381,1135.0148" style="stroke:#000000;stroke-width:1.0;"/></g><!--link JobOpening to TitleOrFunction--><g id="link_JobOpening_TitleOrFunction"><path codeLine="203" d="M2773.25,1065.8748 C2773.25,1106.6448 2773.25,1141.2748 2773.25,1175.4648 " fill="none" id="JobOpening-to-TitleOrFunction" style="stroke:#000000;stroke-width:1.0;"/><polygon fill="#000000" points="2773.25,1181.4648,2777.25,1172.4648,2773.25,1176.4648,2769.25,1172.4648,2773.25,1181.4648" style="stroke:#000000;stroke-width:1.0;"/></g><!--link JobOpening to VacanciesNumber--><g id="link_JobOpening_VacanciesNumber"><path codeLine="204" d="M2833.04,982.6348 C3066.82,982.6348 3280,982.6348 3280,982.6348 C3280,982.6348 3280,1090.8948 3280,1175.4848 " fill="none" id="JobOpening-to-VacanciesNumber" style="stroke:#000000;stroke-width:1.0;"/><polygon fill="#000000" points="3280,1181.4848,3284,1172.4848,3280,1176.4848,3276,1172.4848,3280,1181.4848" style="stroke:#000000;stroke-width:1.0;"/></g><!--link JobOpening to Customer--><g id="link_JobOpening_Customer"><path codeLine="205" d="M1660.17,1065.8148 C1660.17,1103.2748 1660.17,1130.6348 1660.17,1130.6348 C1660.17,1130.6348 1191.7,1130.6348 892.14,1130.6348 " fill="none" id="JobOpening-to-Customer" style="stroke:#000000;stroke-width:1.0;"/><polygon fill="#000000" points="886.14,1130.6348,895.14,1134.6348,891.14,1130.6348,895.14,1126.6348,886.14,1130.6348" style="stroke:#000000;stroke-width:1.0;"/></g><!--link JobOpeningService to JobOpening--><g id="link_JobOpeningService_JobOpening"><path codeLine="207" d="M2235,585.8348 C2235,604.3148 2235,618.5248 2235,639.3048 " fill="none" id="JobOpeningService-to-JobOpening" style="stroke:#000000;stroke-width:1.0;"/><polygon fill="#000000" points="2235,645.3048,2239,636.3048,2235,640.3048,2231,636.3048,2235,645.3048" style="stroke:#000000;stroke-width:1.0;"/></g><!--link JobOpeningService to JobOpeningRepository--><g id="link_JobOpeningService_JobOpeningRepository"><path codeLine="208" d="M2680.02,496.6348 C3098.13,496.6348 3660,496.6348 3660,496.6348 C3660,496.6348 3660,711.9448 3660,807.0448 " fill="none" id="JobOpeningService-to-JobOpeningRepository" style="stroke:#000000;stroke-width:1.0;"/><polygon fill="#000000" points="3660,813.0448,3664,804.0448,3660,808.0448,3656,804.0448,3660,813.0448" style="stroke:#000000;stroke-width:1.0;"/></g><!--SRC=[nLbBRziu4BxhLn2vr8QTmm9xMXG1OYV1EaZgmdPsiQU2bcYRZIog9Et0M-I_TwWdEHObUR5eTOb5pelVV9mX5VNAavHAkYSnJvW-fOm8gNSY-12pZIPQ4CctEqqYBbcekKY2G5KgOKoL8jy30i-4XgzRAGv9D1MnaEJl7TSicxcLKhpbWvCOf79n8ICcyUY3I7JJs9B_oyXllmVlGQ2vZXcPtf5hyiIL9ezYJUOfItYoLMHz8jE3qcBFP12aO85k6RbA9LCiqTI4VrM4cuTkB9GAOAYqyp8hfCmpyaiDs9xoU6Y9HcAv4s-38Vc3h8M86KsioHsZaK4vcrvg2KQosNUphYfQcgOn3_i7EmLyf8XZ9fsWOSMH9RLWtmvCwI9Yy6-iVQm5xbRpcuPWmiBVLMww6ey4s4ckQeTrc6M8xXoaAtDz6qMG3GK1t5klMBHq-qmJS2SDN2UbsVv5GMAnhDYdD3c1p3J_vGgCge061z0UEs6CiQTnQSv0L569k4zbS8XT6GzvTZtXZahxcPGdO1HJXq4U0RUvpYtwGHqHO02DrK3e7PFpzLVOpaqqBUb3z-osh_2EgjrKH3cnUQBnl1Ovsp7no-VTUKk4PaNL4Hjl4Ym6h7RCmeVG979mo7d95A6IaLIA8o0McL81QoCRg6FiJSZNiTU14Y19jH6Nx8E2-4Z2m09FY6H5RO4LcVbzin7OYjcgWdh1rSzgIq7eHnworZsrp6LSaH64iONT3ENqVsNwYD0uBcTKbhiPEA7hc7qiXs-GneP3_I-ZiFstUB5r9YUJmYn-huO5tZb2LidpWfLLGakmkoZMsb_joUMWVbLzzAtGcoW0T1AAQo5FY0Mp183Vq91LwrnKej_FE6S0lOtZM-ZNHzOdRwNIv6JlctxvUxTM16iAhEPHWzFPFl8ariZXfDKp1l85sy1MJ48s9X5JeUIfwPPZSgGXJKBErAV3VcqeJaloxw4w6SP3gwIXNi4nPqooayHSFXoIC5SlTyYOP3w-7U3CiuVDhPOf2_ccQCfZKqF2p2etQJbozlOCvZC2rN4w2x327mOjvVlHMblmNwlt9SLxH6muksAmmCv4x-ft98aoaKd_vOxXMbEGpaWsDR1HbiDicXYu0znMwzGMlRKUGB8eyPduoXqBcZloeAMCjN6c1jOZW6mL3ClKFkU_CHYdcKE-V9ixGqZZa4PKCnJ4e2tgOQC5v1VjWGOcrlIokUPdPDjfmQgQUSaegEBMY-kIJSt7ZL6fDQ1rSMlYN2asF6DtV63pJPVwPPkszH3L6vNxvB1tkEyYy_3ozFHbDNk-TqO_tovMxkWPpjPMnrXRLS67jwKziCJRQeYjuiE_fwbVaOUgeLM4nx2baXzXEpa5k1c_MXQCwgKvlq3Be75UHnkYV7Hg-dahhIUBC-0dsAPZicK971CqQ-q2rsHzu75KN5qQBGrzDCWqprISaj2eL-ORru-MLgKoEolXhFO2_QuhIt6HasmbCAtEETD1gNxin9lSr5kNKulxv_dAtTb__ZDPpEwSeVcdBylPgcMherQ8UOkwfmyUP6M0rBfwBbRtbO0BpVwwKe1EFnXLT61gz8TC391ErnaBg_iWlT3iJuIqhSuMv-l6Ir_pRVcdtYbQBWVdjs5FPBrjL4UzvlMrdlakyu4EWwwVtjSZn4Cc-URKWa7ZLwWp42UdwaE4dGHqHRzfiKBZsFvAu5oakooWZnJ-gpumwyhFLbvT_6k7zTMV-1MzA-Yz_jo2sCpA2ogFUgRmlGqH-EF_wdvzVTFzcTjhmFeIRWpvFma5WN_EKItbEyJFoa_jeCbgwsITtI2exMOYvHq33MUtOJJct7xHd7rCHbFEWGZDuRQAfd6Bm05L_vOv0mj1s2bW8_G3]--></g></svg>