<?xml version="1.0" encoding="us-ascii" standalone="no"?><svg xmlns="http://www.w3.org/2000/svg" xmlns:xlink="http://www.w3.org/1999/xlink" contentStyleType="text/css" height="1529px" preserveAspectRatio="none" style="width:1508px;height:1529px;background:#FFFFFF;" version="1.1" viewBox="0 0 1508 1529" width="1508px" zoomAndPan="magnify"><defs/><g><text fill="#000000" font-family="sans-serif" font-size="14" font-weight="bold" lengthAdjust="spacing" textLength="100" x="697" y="25.1074">Domain Model</text><!--cluster Job Requirements Specification Aggregate--><g id="cluster_Job Requirements Specification Aggregate"><rect fill="none" height="123" rx="2.5" ry="2.5" style="stroke:#000000;stroke-width:1.5;" width="435" x="7" y="325.6211"/><text fill="#000000" font-family="sans-serif" font-size="14" font-weight="bold" lengthAdjust="spacing" textLength="301" x="74" y="342.7285">Job Requirements Specification Aggregate</text></g><!--cluster Job Opening Aggregate--><g id="cluster_Job Opening Aggregate"><rect fill="none" height="565" rx="2.5" ry="2.5" style="stroke:#000000;stroke-width:1.5;" width="598" x="475" y="46.6211"/><text fill="#000000" font-family="sans-serif" font-size="14" font-weight="bold" lengthAdjust="spacing" textLength="167" x="690.5" y="63.7285">Job Opening Aggregate</text></g><!--cluster Application Aggregate--><g id="cluster_Application Aggregate"><rect fill="none" height="331" rx="2.5" ry="2.5" style="stroke:#000000;stroke-width:1.5;" width="819.5" x="682.5" y="635.6211"/><text fill="#000000" font-family="sans-serif" font-size="14" font-weight="bold" lengthAdjust="spacing" textLength="155" x="1014.75" y="652.7285">Application Aggregate</text></g><!--cluster Customer Aggregate--><g id="cluster_Customer Aggregate"><rect fill="none" height="123" rx="2.5" ry="2.5" style="stroke:#000000;stroke-width:1.5;" width="473" x="904.5" y="1400.6211"/><text fill="#000000" font-family="sans-serif" font-size="14" font-weight="bold" lengthAdjust="spacing" textLength="145" x="1068.5" y="1417.7285">Customer Aggregate</text></g><!--cluster Process Aggregate--><g id="cluster_Process Aggregate"><rect fill="none" height="386" rx="2.5" ry="2.5" style="stroke:#000000;stroke-width:1.5;" width="717.5" x="691.5" y="990.6211"/><text fill="#000000" font-family="sans-serif" font-size="14" font-weight="bold" lengthAdjust="spacing" textLength="134" x="983.25" y="1007.7285">Process Aggregate</text></g><!--class JobRequirementsSpecification--><g id="elem_JobRequirementsSpecification"><rect codeLine="26" fill="#F0FFFF" height="68.543" id="JobRequirementsSpecification" rx="2.5" ry="2.5" style="stroke:#000000;stroke-width:0.5;" width="222" x="23" y="363.1211"/><ellipse cx="38" cy="393.3926" fill="#ADD1B2" rx="11" ry="11" style="stroke:#181818;stroke-width:1.0;"/><path d="M36.8594,394.1895 L36.8594,396.6895 L41.1875,396.6895 L41.1875,395.7676 Q41.1875,395.1582 41.4219,394.8926 Q41.6719,394.627 42.0469,394.627 Q42.4219,394.627 42.6563,394.8926 Q42.8906,395.1582 42.8906,395.7676 L42.8906,398.3926 L34.8906,398.3926 Q34.2656,398.3926 34,398.1582 Q33.75,397.9238 33.75,397.5332 Q33.75,397.1582 34.0156,396.9238 Q34.2813,396.6895 34.8906,396.6895 L35.1563,396.6895 L35.1563,390.0332 L34.8906,390.0332 Q34.2656,390.0332 34,389.7988 Q33.75,389.5645 33.75,389.1738 Q33.75,388.7988 34,388.5645 Q34.2656,388.3301 34.8906,388.3301 L42.5156,388.3301 L42.5156,390.9238 Q42.5156,391.5332 42.2813,391.7988 Q42.0625,392.0488 41.6719,392.0488 Q41.2969,392.0488 41.0625,391.7988 Q40.8281,391.5332 40.8281,390.9238 L40.8281,390.0332 L36.8594,390.0332 L36.8594,392.4863 L38.3438,392.4863 Q38.3438,391.8301 38.4688,391.6426 Q38.7344,391.2363 39.2031,391.2363 Q39.5781,391.2363 39.8125,391.502 Q40.0469,391.752 40.0469,392.3613 L40.0469,394.3301 Q40.0469,394.877 39.9219,395.0645 Q39.6563,395.4551 39.2031,395.4551 Q38.7344,395.4551 38.4688,395.0488 Q38.3438,394.8613 38.3438,394.1895 L36.8594,394.1895 Z " fill="#000000"/><text fill="#000000" font-family="sans-serif" font-size="12" font-style="italic" lengthAdjust="spacing" textLength="43" x="125.5" y="381.0703">&#171;entity&#187;</text><text fill="#000000" font-family="sans-serif" font-size="12" font-style="italic" lengthAdjust="spacing" textLength="35" x="129.5" y="397.0313">&#171;root&#187;</text><text fill="#000000" font-family="sans-serif" font-size="14" lengthAdjust="spacing" textLength="190" x="52" y="415.1504">JobRequirementsSpecification</text><line style="stroke:#000000;stroke-width:0.5;" x1="24" x2="244" y1="423.6641" y2="423.6641"/></g><!--class Requirements--><g id="elem_Requirements"><rect codeLine="28" fill="#F0FFFF" height="52.582" id="Requirements" rx="2.5" ry="2.5" style="stroke:#000000;stroke-width:0.5;" width="120" x="306" y="367.1211"/><ellipse cx="321" cy="389.4121" fill="#ADD1B2" rx="11" ry="11" style="stroke:#181818;stroke-width:1.0;"/><path d="M319.8594,390.209 L319.8594,392.709 L324.1875,392.709 L324.1875,391.7871 Q324.1875,391.1777 324.4219,390.9121 Q324.6719,390.6465 325.0469,390.6465 Q325.4219,390.6465 325.6563,390.9121 Q325.8906,391.1777 325.8906,391.7871 L325.8906,394.4121 L317.8906,394.4121 Q317.2656,394.4121 317,394.1777 Q316.75,393.9434 316.75,393.5527 Q316.75,393.1777 317.0156,392.9434 Q317.2813,392.709 317.8906,392.709 L318.1563,392.709 L318.1563,386.0527 L317.8906,386.0527 Q317.2656,386.0527 317,385.8184 Q316.75,385.584 316.75,385.1934 Q316.75,384.8184 317,384.584 Q317.2656,384.3496 317.8906,384.3496 L325.5156,384.3496 L325.5156,386.9434 Q325.5156,387.5527 325.2813,387.8184 Q325.0625,388.0684 324.6719,388.0684 Q324.2969,388.0684 324.0625,387.8184 Q323.8281,387.5527 323.8281,386.9434 L323.8281,386.0527 L319.8594,386.0527 L319.8594,388.5059 L321.3438,388.5059 Q321.3438,387.8496 321.4688,387.6621 Q321.7344,387.2559 322.2031,387.2559 Q322.5781,387.2559 322.8125,387.5215 Q323.0469,387.7715 323.0469,388.3809 L323.0469,390.3496 Q323.0469,390.8965 322.9219,391.084 Q322.6563,391.4746 322.2031,391.4746 Q321.7344,391.4746 321.4688,391.0684 Q321.3438,390.8809 321.3438,390.209 L319.8594,390.209 Z " fill="#000000"/><text fill="#000000" font-family="sans-serif" font-size="12" font-style="italic" lengthAdjust="spacing" textLength="43" x="357.5" y="385.0703">&#171;entity&#187;</text><text fill="#000000" font-family="sans-serif" font-size="14" lengthAdjust="spacing" textLength="88" x="335" y="403.1895">Requirements</text><line style="stroke:#000000;stroke-width:0.5;" x1="307" x2="425" y1="411.7031" y2="411.7031"/></g><!--class JobOpening--><g id="elem_JobOpening"><rect codeLine="35" fill="#F0FFFF" height="68.543" id="JobOpening" rx="2.5" ry="2.5" style="stroke:#000000;stroke-width:0.5;" width="108" x="491" y="440.1211"/><ellipse cx="506" cy="470.3926" fill="#ADD1B2" rx="11" ry="11" style="stroke:#181818;stroke-width:1.0;"/><path d="M504.8594,471.1895 L504.8594,473.6895 L509.1875,473.6895 L509.1875,472.7676 Q509.1875,472.1582 509.4219,471.8926 Q509.6719,471.627 510.0469,471.627 Q510.4219,471.627 510.6563,471.8926 Q510.8906,472.1582 510.8906,472.7676 L510.8906,475.3926 L502.8906,475.3926 Q502.2656,475.3926 502,475.1582 Q501.75,474.9238 501.75,474.5332 Q501.75,474.1582 502.0156,473.9238 Q502.2813,473.6895 502.8906,473.6895 L503.1563,473.6895 L503.1563,467.0332 L502.8906,467.0332 Q502.2656,467.0332 502,466.7988 Q501.75,466.5645 501.75,466.1738 Q501.75,465.7988 502,465.5645 Q502.2656,465.3301 502.8906,465.3301 L510.5156,465.3301 L510.5156,467.9238 Q510.5156,468.5332 510.2813,468.7988 Q510.0625,469.0488 509.6719,469.0488 Q509.2969,469.0488 509.0625,468.7988 Q508.8281,468.5332 508.8281,467.9238 L508.8281,467.0332 L504.8594,467.0332 L504.8594,469.4863 L506.3438,469.4863 Q506.3438,468.8301 506.4688,468.6426 Q506.7344,468.2363 507.2031,468.2363 Q507.5781,468.2363 507.8125,468.502 Q508.0469,468.752 508.0469,469.3613 L508.0469,471.3301 Q508.0469,471.877 507.9219,472.0645 Q507.6563,472.4551 507.2031,472.4551 Q506.7344,472.4551 506.4688,472.0488 Q506.3438,471.8613 506.3438,471.1895 L504.8594,471.1895 Z " fill="#000000"/><text fill="#000000" font-family="sans-serif" font-size="12" font-style="italic" lengthAdjust="spacing" textLength="43" x="536.5" y="458.0703">&#171;entity&#187;</text><text fill="#000000" font-family="sans-serif" font-size="12" font-style="italic" lengthAdjust="spacing" textLength="35" x="540.5" y="474.0313">&#171;root&#187;</text><text fill="#000000" font-family="sans-serif" font-size="14" lengthAdjust="spacing" textLength="76" x="520" y="492.1504">JobOpening</text><line style="stroke:#000000;stroke-width:0.5;" x1="492" x2="598" y1="500.6641" y2="500.6641"/></g><g id="elem_GMN22"><path d="M877,397.6211 L877,420.0811 L807.6,420.5511 L877,428.0811 L877,459.4941 A0,0 0 0 0 877,459.4941 L1057,459.4941 A0,0 0 0 0 1057,459.4941 L1057,407.6211 L1047,397.6211 L877,397.6211 A0,0 0 0 0 877,397.6211 " fill="#FEFFDD" style="stroke:#181818;stroke-width:0.5;"/><path d="M1047,397.6211 L1047,407.6211 L1057,407.6211 L1047,397.6211 " fill="#FEFFDD" style="stroke:#181818;stroke-width:0.5;"/><text fill="#000000" font-family="sans-serif" font-size="13" lengthAdjust="spacing" textLength="159" x="883" y="416.6494">Can be one of the following:</text><text fill="#000000" font-family="sans-serif" font-size="13" lengthAdjust="spacing" textLength="53" x="883" y="433.9404">- full-time</text><text fill="#000000" font-family="sans-serif" font-size="13" lengthAdjust="spacing" textLength="59" x="883" y="451.2314">- part-time</text></g><g id="elem_GMN25"><path d="M877,283.1211 L877,325.6411 L807.6,335.0911 L877,333.6411 L877,362.2852 A0,0 0 0 0 877,362.2852 L1057,362.2852 A0,0 0 0 0 1057,362.2852 L1057,293.1211 L1047,283.1211 L877,283.1211 A0,0 0 0 0 877,283.1211 " fill="#FEFFDD" style="stroke:#181818;stroke-width:0.5;"/><path d="M1047,283.1211 L1047,293.1211 L1057,293.1211 L1047,283.1211 " fill="#FEFFDD" style="stroke:#181818;stroke-width:0.5;"/><text fill="#000000" font-family="sans-serif" font-size="13" lengthAdjust="spacing" textLength="159" x="883" y="302.1494">Can be one of the following:</text><text fill="#000000" font-family="sans-serif" font-size="13" lengthAdjust="spacing" textLength="48" x="883" y="319.4404">- remote</text><text fill="#000000" font-family="sans-serif" font-size="13" lengthAdjust="spacing" textLength="43" x="883" y="336.7314">- hybrid</text><text fill="#000000" font-family="sans-serif" font-size="13" lengthAdjust="spacing" textLength="43" x="883" y="354.0225">- onsite</text></g><!--entity JobReference--><g id="elem_JobReference"><rect fill="#F0FFDD" height="43.2422" rx="2.5" ry="2.5" style="stroke:#000000;stroke-width:0.5;" width="117" x="690.5" y="552.1211"/><text fill="#000000" font-family="sans-serif" font-size="14" font-style="italic" lengthAdjust="spacing" textLength="97" x="700.5" y="570.2285">&#171;Value Object&#187;</text><text fill="#000000" font-family="sans-serif" font-size="14" lengthAdjust="spacing" textLength="88" x="705" y="588.8496">JobReference</text></g><!--entity TitleOrFunction--><g id="elem_TitleOrFunction"><rect fill="#F0FFDD" height="43.2422" rx="2.5" ry="2.5" style="stroke:#000000;stroke-width:0.5;" width="118" x="690" y="474.1211"/><text fill="#000000" font-family="sans-serif" font-size="14" font-style="italic" lengthAdjust="spacing" textLength="97" x="700.5" y="492.2285">&#171;Value Object&#187;</text><text fill="#000000" font-family="sans-serif" font-size="14" lengthAdjust="spacing" textLength="98" x="700" y="510.8496">TitleOrFunction</text></g><!--entity ContractType--><g id="elem_ContractType"><rect fill="#F0FFDD" height="43.2422" rx="2.5" ry="2.5" style="stroke:#000000;stroke-width:0.5;" width="117" x="690.5" y="396.1211"/><text fill="#000000" font-family="sans-serif" font-size="14" font-style="italic" lengthAdjust="spacing" textLength="97" x="700.5" y="414.2285">&#171;Value Object&#187;</text><text fill="#000000" font-family="sans-serif" font-size="14" lengthAdjust="spacing" textLength="86" x="706" y="432.8496">ContractType</text></g><!--entity Mode--><g id="elem_Mode"><rect fill="#F0FFDD" height="43.2422" rx="2.5" ry="2.5" style="stroke:#000000;stroke-width:0.5;" width="117" x="690.5" y="318.1211"/><text fill="#000000" font-family="sans-serif" font-size="14" font-style="italic" lengthAdjust="spacing" textLength="97" x="700.5" y="336.2285">&#171;Value Object&#187;</text><text fill="#000000" font-family="sans-serif" font-size="14" lengthAdjust="spacing" textLength="35" x="731.5" y="354.8496">Mode</text></g><!--entity Address--><g id="elem_Address"><rect fill="#F0FFDD" height="43.2422" rx="2.5" ry="2.5" style="stroke:#000000;stroke-width:0.5;" width="117" x="690.5" y="240.1211"/><text fill="#000000" font-family="sans-serif" font-size="14" font-style="italic" lengthAdjust="spacing" textLength="97" x="700.5" y="258.2285">&#171;Value Object&#187;</text><text fill="#000000" font-family="sans-serif" font-size="14" lengthAdjust="spacing" textLength="52" x="723" y="276.8496">Address</text></g><!--entity VacanciesNumber--><g id="elem_VacanciesNumber"><rect fill="#F0FFDD" height="43.2422" rx="2.5" ry="2.5" style="stroke:#000000;stroke-width:0.5;" width="134" x="682" y="162.1211"/><text fill="#000000" font-family="sans-serif" font-size="14" font-style="italic" lengthAdjust="spacing" textLength="97" x="700.5" y="180.2285">&#171;Value Object&#187;</text><text fill="#000000" font-family="sans-serif" font-size="14" lengthAdjust="spacing" textLength="114" x="692" y="198.8496">VacanciesNumber</text></g><!--entity Description--><g id="elem_Description"><rect fill="#F0FFDD" height="43.2422" rx="2.5" ry="2.5" style="stroke:#000000;stroke-width:0.5;" width="117" x="690.5" y="84.1211"/><text fill="#000000" font-family="sans-serif" font-size="14" font-style="italic" lengthAdjust="spacing" textLength="97" x="700.5" y="102.2285">&#171;Value Object&#187;</text><text fill="#000000" font-family="sans-serif" font-size="14" lengthAdjust="spacing" textLength="71" x="713.5" y="120.8496">Description</text></g><!--class Application--><g id="elem_Application"><rect codeLine="76" fill="#F0FFFF" height="68.543" id="Application" rx="2.5" ry="2.5" style="stroke:#000000;stroke-width:0.5;" width="101" x="698.5" y="738.1211"/><ellipse cx="713.5" cy="768.3926" fill="#ADD1B2" rx="11" ry="11" style="stroke:#181818;stroke-width:1.0;"/><path d="M712.3594,769.1895 L712.3594,771.6895 L716.6875,771.6895 L716.6875,770.7676 Q716.6875,770.1582 716.9219,769.8926 Q717.1719,769.627 717.5469,769.627 Q717.9219,769.627 718.1563,769.8926 Q718.3906,770.1582 718.3906,770.7676 L718.3906,773.3926 L710.3906,773.3926 Q709.7656,773.3926 709.5,773.1582 Q709.25,772.9238 709.25,772.5332 Q709.25,772.1582 709.5156,771.9238 Q709.7813,771.6895 710.3906,771.6895 L710.6563,771.6895 L710.6563,765.0332 L710.3906,765.0332 Q709.7656,765.0332 709.5,764.7988 Q709.25,764.5645 709.25,764.1738 Q709.25,763.7988 709.5,763.5645 Q709.7656,763.3301 710.3906,763.3301 L718.0156,763.3301 L718.0156,765.9238 Q718.0156,766.5332 717.7813,766.7988 Q717.5625,767.0488 717.1719,767.0488 Q716.7969,767.0488 716.5625,766.7988 Q716.3281,766.5332 716.3281,765.9238 L716.3281,765.0332 L712.3594,765.0332 L712.3594,767.4863 L713.8438,767.4863 Q713.8438,766.8301 713.9688,766.6426 Q714.2344,766.2363 714.7031,766.2363 Q715.0781,766.2363 715.3125,766.502 Q715.5469,766.752 715.5469,767.3613 L715.5469,769.3301 Q715.5469,769.877 715.4219,770.0645 Q715.1563,770.4551 714.7031,770.4551 Q714.2344,770.4551 713.9688,770.0488 Q713.8438,769.8613 713.8438,769.1895 L712.3594,769.1895 Z " fill="#000000"/><text fill="#000000" font-family="sans-serif" font-size="12" font-style="italic" lengthAdjust="spacing" textLength="43" x="740.5" y="756.0703">&#171;entity&#187;</text><text fill="#000000" font-family="sans-serif" font-size="12" font-style="italic" lengthAdjust="spacing" textLength="35" x="744.5" y="772.0313">&#171;root&#187;</text><text fill="#000000" font-family="sans-serif" font-size="14" lengthAdjust="spacing" textLength="69" x="727.5" y="790.1504">Application</text><line style="stroke:#000000;stroke-width:0.5;" x1="699.5" x2="798.5" y1="798.6641" y2="798.6641"/></g><g id="elem_GMN38"><path d="M1213,723.6211 L1213,788.7011 L1025.8,836.9511 L1213,796.7011 L1213,820.0762 A0,0 0 0 0 1213,820.0762 L1393,820.0762 A0,0 0 0 0 1393,820.0762 L1393,733.6211 L1383,723.6211 L1213,723.6211 A0,0 0 0 0 1213,723.6211 " fill="#FEFFDD" style="stroke:#181818;stroke-width:0.5;"/><path d="M1383,723.6211 L1383,733.6211 L1393,733.6211 L1383,723.6211 " fill="#FEFFDD" style="stroke:#181818;stroke-width:0.5;"/><text fill="#000000" font-family="sans-serif" font-size="13" lengthAdjust="spacing" textLength="159" x="1219" y="742.6494">Can be one of the following:</text><text fill="#000000" font-family="sans-serif" font-size="13" lengthAdjust="spacing" textLength="65" x="1219" y="759.9404">- submitted</text><text fill="#000000" font-family="sans-serif" font-size="13" lengthAdjust="spacing" textLength="53" x="1219" y="777.2314">- pending</text><text fill="#000000" font-family="sans-serif" font-size="13" lengthAdjust="spacing" textLength="61" x="1219" y="794.5225">- accepted</text><text fill="#000000" font-family="sans-serif" font-size="13" lengthAdjust="spacing" textLength="56" x="1219" y="811.8135">- declined</text></g><g id="elem_GMN41"><path d="M1120,854.6211 L1120,912.7911 L1026.56,924.0611 L1120,920.7911 L1120,951.0762 A0,0 0 0 0 1120,951.0762 L1486,951.0762 A0,0 0 0 0 1486,951.0762 L1486,864.6211 L1476,854.6211 L1120,854.6211 A0,0 0 0 0 1120,854.6211 " fill="#FEFFDD" style="stroke:#181818;stroke-width:0.5;"/><path d="M1476,854.6211 L1476,864.6211 L1486,864.6211 L1476,854.6211 " fill="#FEFFDD" style="stroke:#181818;stroke-width:0.5;"/><text fill="#000000" font-family="sans-serif" font-size="13" lengthAdjust="spacing" textLength="159" x="1126" y="873.6494">Can be one of the following:</text><text fill="#000000" font-family="sans-serif" font-size="13" lengthAdjust="spacing" textLength="224" x="1126" y="890.9404">- text file with the contents of the email</text><text fill="#000000" font-family="sans-serif" font-size="13" lengthAdjust="spacing" textLength="220" x="1126" y="908.2314">- file for each file attached to the email</text><text fill="#000000" font-family="sans-serif" font-size="13" lengthAdjust="spacing" textLength="345" x="1126" y="925.5225">- text file with the contents of each file attached to the email</text><text fill="#000000" font-family="sans-serif" font-size="13" lengthAdjust="spacing" textLength="315" x="1126" y="942.8135">- text file with the data of the application and candidate</text></g><!--entity ApplicationFiles--><g id="elem_ApplicationFiles"><rect fill="#F0FFDD" height="43.2422" rx="2.5" ry="2.5" style="stroke:#000000;stroke-width:0.5;" width="119" x="907.5" y="907.1211"/><text fill="#000000" font-family="sans-serif" font-size="14" font-style="italic" lengthAdjust="spacing" textLength="97" x="918.5" y="925.2285">&#171;Value Object&#187;</text><text fill="#000000" font-family="sans-serif" font-size="14" lengthAdjust="spacing" textLength="99" x="917.5" y="943.8496">ApplicationFiles</text></g><!--entity Status--><g id="elem_Status"><rect fill="#F0FFDD" height="43.2422" rx="2.5" ry="2.5" style="stroke:#000000;stroke-width:0.5;" width="117" x="908.5" y="829.1211"/><text fill="#000000" font-family="sans-serif" font-size="14" font-style="italic" lengthAdjust="spacing" textLength="97" x="918.5" y="847.2285">&#171;Value Object&#187;</text><text fill="#000000" font-family="sans-serif" font-size="14" lengthAdjust="spacing" textLength="40" x="947" y="865.8496">Status</text></g><!--entity SubmissionDate--><g id="elem_SubmissionDate"><rect fill="#F0FFDD" height="43.2422" rx="2.5" ry="2.5" style="stroke:#000000;stroke-width:0.5;" width="122" x="906" y="751.1211"/><text fill="#000000" font-family="sans-serif" font-size="14" font-style="italic" lengthAdjust="spacing" textLength="97" x="918.5" y="769.2285">&#171;Value Object&#187;</text><text fill="#000000" font-family="sans-serif" font-size="14" lengthAdjust="spacing" textLength="102" x="916" y="787.8496">SubmissionDate</text></g><!--entity Rank--><g id="elem_Rank"><rect fill="#F0FFDD" height="43.2422" rx="2.5" ry="2.5" style="stroke:#000000;stroke-width:0.5;" width="117" x="908.5" y="673.1211"/><text fill="#000000" font-family="sans-serif" font-size="14" font-style="italic" lengthAdjust="spacing" textLength="97" x="918.5" y="691.2285">&#171;Value Object&#187;</text><text fill="#000000" font-family="sans-serif" font-size="14" lengthAdjust="spacing" textLength="33" x="950.5" y="709.8496">Rank</text></g><!--class Customer--><g id="elem_Customer"><rect codeLine="111" fill="#F0FFFF" height="68.543" id="Customer" rx="2.5" ry="2.5" style="stroke:#000000;stroke-width:0.5;" width="93" x="920.5" y="1438.1211"/><ellipse cx="935.5" cy="1468.3926" fill="#ADD1B2" rx="11" ry="11" style="stroke:#181818;stroke-width:1.0;"/><path d="M934.3594,1469.1895 L934.3594,1471.6895 L938.6875,1471.6895 L938.6875,1470.7676 Q938.6875,1470.1582 938.9219,1469.8926 Q939.1719,1469.627 939.5469,1469.627 Q939.9219,1469.627 940.1563,1469.8926 Q940.3906,1470.1582 940.3906,1470.7676 L940.3906,1473.3926 L932.3906,1473.3926 Q931.7656,1473.3926 931.5,1473.1582 Q931.25,1472.9238 931.25,1472.5332 Q931.25,1472.1582 931.5156,1471.9238 Q931.7813,1471.6895 932.3906,1471.6895 L932.6563,1471.6895 L932.6563,1465.0332 L932.3906,1465.0332 Q931.7656,1465.0332 931.5,1464.7988 Q931.25,1464.5645 931.25,1464.1738 Q931.25,1463.7988 931.5,1463.5645 Q931.7656,1463.3301 932.3906,1463.3301 L940.0156,1463.3301 L940.0156,1465.9238 Q940.0156,1466.5332 939.7813,1466.7988 Q939.5625,1467.0488 939.1719,1467.0488 Q938.7969,1467.0488 938.5625,1466.7988 Q938.3281,1466.5332 938.3281,1465.9238 L938.3281,1465.0332 L934.3594,1465.0332 L934.3594,1467.4863 L935.8438,1467.4863 Q935.8438,1466.8301 935.9688,1466.6426 Q936.2344,1466.2363 936.7031,1466.2363 Q937.0781,1466.2363 937.3125,1466.502 Q937.5469,1466.752 937.5469,1467.3613 L937.5469,1469.3301 Q937.5469,1469.877 937.4219,1470.0645 Q937.1563,1470.4551 936.7031,1470.4551 Q936.2344,1470.4551 935.9688,1470.0488 Q935.8438,1469.8613 935.8438,1469.1895 L934.3594,1469.1895 Z " fill="#000000"/><text fill="#000000" font-family="sans-serif" font-size="12" font-style="italic" lengthAdjust="spacing" textLength="43" x="958.5" y="1456.0703">&#171;entity&#187;</text><text fill="#000000" font-family="sans-serif" font-size="12" font-style="italic" lengthAdjust="spacing" textLength="35" x="962.5" y="1472.0313">&#171;root&#187;</text><text fill="#000000" font-family="sans-serif" font-size="14" lengthAdjust="spacing" textLength="61" x="949.5" y="1490.1504">Customer</text><line style="stroke:#000000;stroke-width:0.5;" x1="921.5" x2="1012.5" y1="1498.6641" y2="1498.6641"/></g><!--entity EmailAddress--><g id="elem_EmailAddress"><rect fill="#F0FFDD" height="43.2422" rx="2.5" ry="2.5" style="stroke:#000000;stroke-width:0.5;" width="117" x="1244.5" y="1451.1211"/><text fill="#000000" font-family="sans-serif" font-size="14" font-style="italic" lengthAdjust="spacing" textLength="97" x="1254.5" y="1469.2285">&#171;Value Object&#187;</text><text fill="#000000" font-family="sans-serif" font-size="14" lengthAdjust="spacing" textLength="86" x="1260" y="1487.8496">EmailAddress</text></g><!--class Process--><g id="elem_Process"><rect codeLine="120" fill="#F0FFFF" height="68.543" id="Process" rx="2.5" ry="2.5" style="stroke:#000000;stroke-width:0.5;" width="83" x="707.5" y="1085.1211"/><ellipse cx="722.5" cy="1115.3926" fill="#ADD1B2" rx="11" ry="11" style="stroke:#181818;stroke-width:1.0;"/><path d="M721.3594,1116.1895 L721.3594,1118.6895 L725.6875,1118.6895 L725.6875,1117.7676 Q725.6875,1117.1582 725.9219,1116.8926 Q726.1719,1116.627 726.5469,1116.627 Q726.9219,1116.627 727.1563,1116.8926 Q727.3906,1117.1582 727.3906,1117.7676 L727.3906,1120.3926 L719.3906,1120.3926 Q718.7656,1120.3926 718.5,1120.1582 Q718.25,1119.9238 718.25,1119.5332 Q718.25,1119.1582 718.5156,1118.9238 Q718.7813,1118.6895 719.3906,1118.6895 L719.6563,1118.6895 L719.6563,1112.0332 L719.3906,1112.0332 Q718.7656,1112.0332 718.5,1111.7988 Q718.25,1111.5645 718.25,1111.1738 Q718.25,1110.7988 718.5,1110.5645 Q718.7656,1110.3301 719.3906,1110.3301 L727.0156,1110.3301 L727.0156,1112.9238 Q727.0156,1113.5332 726.7813,1113.7988 Q726.5625,1114.0488 726.1719,1114.0488 Q725.7969,1114.0488 725.5625,1113.7988 Q725.3281,1113.5332 725.3281,1112.9238 L725.3281,1112.0332 L721.3594,1112.0332 L721.3594,1114.4863 L722.8438,1114.4863 Q722.8438,1113.8301 722.9688,1113.6426 Q723.2344,1113.2363 723.7031,1113.2363 Q724.0781,1113.2363 724.3125,1113.502 Q724.5469,1113.752 724.5469,1114.3613 L724.5469,1116.3301 Q724.5469,1116.877 724.4219,1117.0645 Q724.1563,1117.4551 723.7031,1117.4551 Q723.2344,1117.4551 722.9688,1117.0488 Q722.8438,1116.8613 722.8438,1116.1895 L721.3594,1116.1895 Z " fill="#000000"/><text fill="#000000" font-family="sans-serif" font-size="12" font-style="italic" lengthAdjust="spacing" textLength="43" x="740.5" y="1103.0703">&#171;entity&#187;</text><text fill="#000000" font-family="sans-serif" font-size="12" font-style="italic" lengthAdjust="spacing" textLength="35" x="744.5" y="1119.0313">&#171;root&#187;</text><text fill="#000000" font-family="sans-serif" font-size="14" lengthAdjust="spacing" textLength="51" x="736.5" y="1137.1504">Process</text><line style="stroke:#000000;stroke-width:0.5;" x1="708.5" x2="789.5" y1="1145.6641" y2="1145.6641"/></g><g id="elem_GMN54"><path d="M1213,1028.1211 L1213,1115.6211 L1025.8,1119.6211 L1213,1123.6211 L1213,1211.0313 A0,0 0 0 0 1213,1211.0313 L1393,1211.0313 A0,0 0 0 0 1393,1211.0313 L1393,1038.1211 L1383,1028.1211 L1213,1028.1211 A0,0 0 0 0 1213,1028.1211 " fill="#FEFFDD" style="stroke:#181818;stroke-width:0.5;"/><path d="M1383,1028.1211 L1383,1038.1211 L1393,1038.1211 L1383,1028.1211 " fill="#FEFFDD" style="stroke:#181818;stroke-width:0.5;"/><text fill="#000000" font-family="sans-serif" font-size="13" lengthAdjust="spacing" textLength="159" x="1219" y="1047.1494">Can be one of the following:</text><text fill="#000000" font-family="sans-serif" font-size="13" lengthAdjust="spacing" textLength="125" x="1219" y="1064.4404">- applicationStartDate</text><text fill="#000000" font-family="sans-serif" font-size="13" lengthAdjust="spacing" textLength="120" x="1219" y="1081.7314">- applicationEndDate</text><text fill="#000000" font-family="sans-serif" font-size="13" lengthAdjust="spacing" textLength="121" x="1219" y="1099.0225">- ScreeningStartDate</text><text fill="#000000" font-family="sans-serif" font-size="13" lengthAdjust="spacing" textLength="116" x="1219" y="1116.3135">- ScreeningEndDate</text><text fill="#000000" font-family="sans-serif" font-size="13" lengthAdjust="spacing" textLength="119" x="1219" y="1133.6045">- InterviewsStartDate</text><text fill="#000000" font-family="sans-serif" font-size="13" lengthAdjust="spacing" textLength="114" x="1219" y="1150.8955">- InterviewsEndDate</text><text fill="#000000" font-family="sans-serif" font-size="13" lengthAdjust="spacing" textLength="113" x="1219" y="1168.1865">- AnalysisStartDate</text><text fill="#000000" font-family="sans-serif" font-size="13" lengthAdjust="spacing" textLength="108" x="1219" y="1185.4775">- AnalysisEndDate</text><text fill="#000000" font-family="sans-serif" font-size="13" lengthAdjust="spacing" textLength="72" x="1219" y="1202.7686">- ResultDate</text></g><g id="elem_GMN57"><path d="M1213,1246.6211 L1213,1285.4811 L1025.8,1259.7911 L1213,1293.4811 L1213,1360.3672 A0,0 0 0 0 1213,1360.3672 L1393,1360.3672 A0,0 0 0 0 1393,1360.3672 L1393,1256.6211 L1383,1246.6211 L1213,1246.6211 A0,0 0 0 0 1213,1246.6211 " fill="#FEFFDD" style="stroke:#181818;stroke-width:0.5;"/><path d="M1383,1246.6211 L1383,1256.6211 L1393,1256.6211 L1383,1246.6211 " fill="#FEFFDD" style="stroke:#181818;stroke-width:0.5;"/><text fill="#000000" font-family="sans-serif" font-size="13" lengthAdjust="spacing" textLength="159" x="1219" y="1265.6494">Can be one of the following:</text><text fill="#000000" font-family="sans-serif" font-size="13" lengthAdjust="spacing" textLength="72" x="1219" y="1282.9404">- Application</text><text fill="#000000" font-family="sans-serif" font-size="13" lengthAdjust="spacing" textLength="66" x="1219" y="1300.2314">- Screening</text><text fill="#000000" font-family="sans-serif" font-size="13" lengthAdjust="spacing" textLength="64" x="1219" y="1317.5225">- Interviews</text><text fill="#000000" font-family="sans-serif" font-size="13" lengthAdjust="spacing" textLength="58" x="1219" y="1334.8135">- Analysis</text><text fill="#000000" font-family="sans-serif" font-size="13" lengthAdjust="spacing" textLength="45" x="1219" y="1352.1045">- Result</text></g><!--entity ProcessState--><g id="elem_ProcessState"><rect fill="#F0FFDD" height="43.2422" rx="2.5" ry="2.5" style="stroke:#000000;stroke-width:0.5;" width="117" x="908.5" y="1229.1211"/><text fill="#000000" font-family="sans-serif" font-size="14" font-style="italic" lengthAdjust="spacing" textLength="97" x="918.5" y="1247.2285">&#171;Value Object&#187;</text><text fill="#000000" font-family="sans-serif" font-size="14" lengthAdjust="spacing" textLength="84" x="925" y="1265.8496">ProcessState</text></g><!--entity ProcessDate--><g id="elem_ProcessDate"><rect fill="#F0FFDD" height="43.2422" rx="2.5" ry="2.5" style="stroke:#000000;stroke-width:0.5;" width="117" x="908.5" y="1098.1211"/><text fill="#000000" font-family="sans-serif" font-size="14" font-style="italic" lengthAdjust="spacing" textLength="97" x="918.5" y="1116.2285">&#171;Value Object&#187;</text><text fill="#000000" font-family="sans-serif" font-size="14" lengthAdjust="spacing" textLength="81" x="926.5" y="1134.8496">ProcessDate</text></g><!--link JobRequirementsSpecification to Requirements--><g id="link_JobRequirementsSpecification_Requirements"><path codeLine="30" d="M245.28,395.7011 C266.15,395.3411 281.2309,395.0747 299.7509,394.7547 " fill="none" id="JobRequirementsSpecification-to-Requirements" style="stroke:#808080;stroke-width:1.0;"/><polygon fill="#808080" points="305.75,394.6511,296.6822,390.8072,300.7507,394.7375,296.8204,398.806,305.75,394.6511" style="stroke:#808080;stroke-width:1.0;"/></g><!--link JobOpening to JobReference--><g id="link_JobOpening_JobReference"><path codeLine="52" d="M599.07,500.6311 C631.69,516.6111 667.5923,534.2105 698.4223,549.3205 " fill="none" id="JobOpening-to-JobReference" style="stroke:#808080;stroke-width:1.0;"/><polygon fill="#808080" points="703.81,551.9611,697.4888,544.4084,699.3202,549.7606,693.9681,551.5921,703.81,551.9611" style="stroke:#808080;stroke-width:1.0;"/></g><!--link JobOpening to TitleOrFunction--><g id="link_JobOpening_TitleOrFunction"><path codeLine="53" d="M599.07,480.1411 C627.01,483.0411 655.3522,485.9901 683.9922,488.9701 " fill="none" id="JobOpening-to-TitleOrFunction" style="stroke:#808080;stroke-width:1.0;"/><polygon fill="#808080" points="689.96,489.5911,681.4223,484.6811,684.9868,489.0736,680.5944,492.6382,689.96,489.5911" style="stroke:#808080;stroke-width:1.0;"/></g><!--link JobOpening to ContractType--><g id="link_JobOpening_ContractType"><path codeLine="54" d="M599.07,459.6411 C627.13,451.7311 655.8253,443.6298 684.5453,435.5298 " fill="none" id="JobOpening-to-ContractType" style="stroke:#808080;stroke-width:1.0;"/><polygon fill="#808080" points="690.32,433.9011,680.5721,432.4943,685.5077,435.2583,682.7437,440.1939,690.32,433.9011" style="stroke:#808080;stroke-width:1.0;"/></g><!--link JobOpening to Mode--><g id="link_JobOpening_Mode"><path codeLine="55" d="M588.83,440.0211 C613.27,420.9511 644.86,397.4011 674.5,378.6211 C684.02,372.5911 689.2713,369.4447 699.3313,364.0547 " fill="none" id="JobOpening-to-Mode" style="stroke:#808080;stroke-width:1.0;"/><polygon fill="#808080" points="704.62,361.2211,694.7978,361.9457,700.2127,363.5824,698.576,368.9973,704.62,361.2211" style="stroke:#808080;stroke-width:1.0;"/></g><!--link JobOpening to Address--><g id="link_JobOpening_Address"><path codeLine="56" d="M565.17,439.9711 C587.51,402.0311 627.42,341.1911 674.5,300.6211 C682.05,294.1111 685.6573,291.2522 694.5173,286.2022 " fill="none" id="JobOpening-to-Address" style="stroke:#808080;stroke-width:1.0;"/><polygon fill="#808080" points="699.73,283.2311,689.9302,284.2126,695.3861,285.707,693.8917,291.1629,699.73,283.2311" style="stroke:#808080;stroke-width:1.0;"/></g><!--link JobOpening to VacanciesNumber--><g id="link_JobOpening_VacanciesNumber"><path codeLine="57" d="M556.15,440.0311 C573.1,387.3811 611.64,286.5111 674.5,222.6211 C681.09,215.9311 683.9123,213.2035 692.1623,208.2635 " fill="none" id="JobOpening-to-VacanciesNumber" style="stroke:#808080;stroke-width:1.0;"/><polygon fill="#808080" points="697.31,205.1811,687.5335,206.3729,693.0202,207.7497,691.6434,213.2365,697.31,205.1811" style="stroke:#808080;stroke-width:1.0;"/></g><!--link JobOpening to Description--><g id="link_JobOpening_Description"><path codeLine="58" d="M551.13,439.9711 C562.43,374.7311 595.05,232.3411 674.5,144.6211 C680.61,137.8711 683.0547,135.2432 690.9747,130.3532 " fill="none" id="JobOpening-to-Description" style="stroke:#808080;stroke-width:1.0;"/><polygon fill="#808080" points="696.08,127.2011,686.3206,128.5258,691.8256,129.8279,690.5235,135.3328,696.08,127.2011" style="stroke:#808080;stroke-width:1.0;"/></g><!--link Application to ApplicationFiles--><g id="link_Application_ApplicationFiles"><path codeLine="87" d="M781.41,807.1811 C805.69,832.4111 841.11,866.1711 877,889.6211 C886.89,896.0811 892.5763,899.3979 903.5363,904.4779 " fill="none" id="Application-to-ApplicationFiles" style="stroke:#808080;stroke-width:1.0;"/><polygon fill="#808080" points="908.98,907.0011,902.4966,899.5872,904.4436,904.8985,899.1324,906.8455,908.98,907.0011" style="stroke:#808080;stroke-width:1.0;"/></g><!--link Application to Status--><g id="link_Application_Status"><path codeLine="88" d="M799.55,790.5111 C831.94,802.2111 868.7064,815.494 902.6164,827.734 " fill="none" id="Application-to-Status" style="stroke:#808080;stroke-width:1.0;"/><polygon fill="#808080" points="908.26,829.7711,901.1527,822.9531,903.557,828.0735,898.4365,830.4779,908.26,829.7711" style="stroke:#808080;stroke-width:1.0;"/></g><!--link Application to SubmissionDate--><g id="link_Application_SubmissionDate"><path codeLine="89" d="M799.55,772.6211 C831.19,772.6211 866.4,772.6211 899.9,772.6211 " fill="none" id="Application-to-SubmissionDate" style="stroke:#808080;stroke-width:1.0;"/><polygon fill="#808080" points="905.9,772.6211,896.9,768.6211,900.9,772.6211,896.9,776.6211,905.9,772.6211" style="stroke:#808080;stroke-width:1.0;"/></g><!--link Application to Rank--><g id="link_Application_Rank"><path codeLine="90" d="M799.55,754.7311 C831.94,743.0311 868.7064,729.7482 902.6164,717.5082 " fill="none" id="Application-to-Rank" style="stroke:#808080;stroke-width:1.0;"/><polygon fill="#808080" points="908.26,715.4711,898.4365,714.7643,903.557,717.1687,901.1527,722.2891,908.26,715.4711" style="stroke:#808080;stroke-width:1.0;"/></g><!--link Customer to EmailAddress--><g id="link_Customer_EmailAddress"><path codeLine="116" d="M1013.74,1472.6211 C1073.68,1472.6211 1172.84,1472.6211 1238.22,1472.6211 " fill="none" id="Customer-to-EmailAddress" style="stroke:#808080;stroke-width:1.0;"/><polygon fill="#808080" points="1244.22,1472.6211,1235.22,1468.6211,1239.22,1472.6211,1235.22,1476.6211,1244.22,1472.6211" style="stroke:#808080;stroke-width:1.0;"/></g><!--link Process to ProcessState--><g id="link_Process_ProcessState"><path codeLine="127" d="M790.63,1144.2611 C830.83,1168.6411 886.6499,1202.4994 925.0799,1225.8094 " fill="none" id="Process-to-ProcessState" style="stroke:#808080;stroke-width:1.0;"/><polygon fill="#808080" points="930.21,1228.9211,924.5894,1220.8335,925.935,1226.328,920.4405,1227.6736,930.21,1228.9211" style="stroke:#808080;stroke-width:1.0;"/></g><!--link Process to ProcessDate--><g id="link_Process_ProcessDate"><path codeLine="128" d="M790.63,1119.6211 C823.87,1119.6211 865.29,1119.6211 902.44,1119.6211 " fill="none" id="Process-to-ProcessDate" style="stroke:#808080;stroke-width:1.0;"/><polygon fill="#808080" points="908.44,1119.6211,899.44,1115.6211,903.44,1119.6211,899.44,1123.6211,908.44,1119.6211" style="stroke:#808080;stroke-width:1.0;"/></g><!--reverse link JobOpening to Application--><g id="link_JobOpening_Application"><path codeLine="154" d="M572.9364,514.3577 C611.8564,571.7777 685.76,680.8011 724.58,738.0711 " fill="none" id="JobOpening-backto-Application" style="stroke:#808080;stroke-width:1.0;"/><polygon fill="#808080" points="569.57,509.3911,571.3086,519.0853,572.3754,513.5299,577.9307,514.5967,569.57,509.3911" style="stroke:#808080;stroke-width:1.0;"/><text fill="#000000" font-family="sans-serif" font-size="13" lengthAdjust="spacing" textLength="21" x="630" y="602.6494">has</text><text fill="#000000" font-family="sans-serif" font-size="13" lengthAdjust="spacing" textLength="7" x="566.0597" y="530.648">1</text><text fill="#000000" font-family="sans-serif" font-size="13" lengthAdjust="spacing" textLength="9" x="705.6859" y="726.9643">N</text></g><!--link JobOpening to Customer--><g id="link_JobOpening_Customer"><path codeLine="155" d="M545.9,509.3611 C546.18,660.7011 554.92,1260.8011 674.5,1395.6211 C736.93,1466.0111 849.4102,1475.5646 914.4402,1474.9846 " fill="none" id="JobOpening-to-Customer" style="stroke:#808080;stroke-width:1.0;"/><polygon fill="#808080" points="920.44,1474.9311,911.4047,1471.0115,915.4402,1474.9757,911.476,1479.0112,920.44,1474.9311" style="stroke:#808080;stroke-width:1.0;"/><text fill="#000000" font-family="sans-serif" font-size="13" lengthAdjust="spacing" textLength="63" x="717.5" y="1391.6494">associated</text><text fill="#000000" font-family="sans-serif" font-size="13" lengthAdjust="spacing" textLength="9" x="536.3037" y="530.613">N</text><text fill="#000000" font-family="sans-serif" font-size="13" lengthAdjust="spacing" textLength="7" x="905.4617" y="1490.7419">1</text></g><!--link JobOpening to Process--><g id="link_JobOpening_Process"><path codeLine="157" d="M552.66,509.3111 C568.8,590.7011 613.23,799.6211 674.5,966.6211 C689.88,1008.5311 709.9922,1049.1186 726.1322,1079.5986 " fill="none" id="JobOpening-to-Process" style="stroke:#808080;stroke-width:1.0;"/><polygon fill="#808080" points="728.94,1084.9011,728.2633,1075.0755,726.6002,1080.4824,721.1933,1078.8193,728.94,1084.9011" style="stroke:#808080;stroke-width:1.0;"/></g><!--reverse link JobRequirementsSpecification to JobOpening--><g id="link_JobRequirementsSpecification_JobOpening"><path codeLine="160" d="M226.8798,434.1827 C253.6498,443.6027 277.86,450.8011 306,456.6211 C368.7,469.5811 442.4,473.4511 490.99,474.4911 " fill="none" id="JobRequirementsSpecification-backto-JobOpening" style="stroke:#808080;stroke-width:1.0;"/><polygon fill="#808080" points="221.22,432.1911,228.382,438.9517,225.9365,433.8508,231.0375,431.4053,221.22,432.1911" style="stroke:#808080;stroke-width:1.0;"/><text fill="#000000" font-family="sans-serif" font-size="13" lengthAdjust="spacing" textLength="63" x="334.5" y="452.6494">associated</text><text fill="#000000" font-family="sans-serif" font-size="13" lengthAdjust="spacing" textLength="7" x="228.6094" y="453.6864">1</text><text fill="#000000" font-family="sans-serif" font-size="13" lengthAdjust="spacing" textLength="9" x="474.1277" y="489.6944">N</text></g><!--SRC=[fLVVRzem47xFNs5b3tj2sbuhX4IXL9qwg4grTsDVmCFOcUsCeQh_-yv908UO06fU0DztTz_zT5W93cG3RgMvJIHaZZXDZ5Yk7E7207D2g-IhNGkLKqCtH0e5RfS3qGPrakHDE0aa7UiD5Ohyr1nacYH7F9FKMlAU47oUHGRFg7-l3GSpqb8RCgPcVIyBQ08eMo-DBXIlGCENb-UdqV3jQJOjSQVoBvDl4tnAsT0OlQsEbmPs5Jvmk92ed7o477CyeKkOkns6ucEcQYcX4GKrl2E8HmEWFX_1U7mQWS_EOooA-tqKDNUI_j0ByWf_2YpQ1fIpP9u34vbWr9UG39UOZILraBudA1PkHr0ZL6ZY-_qADHZq-qPhDnWa9ObQj-7fYAqmdOPxlK53Esb5CSj12RKyGtalFKUmB5N980C3YW4YVr7iC39R_CRQ3WPr8J-EyBA9PsPIA5O7VqbZf9KpbBatFmgNuNukhe0DEJTWxHN8NvHHnGJOQR5PWBb2OmoM6P5tnxSltpx9lbXXBcFoa-J5866sOdAVdjXvdO-Ow2G1CKWGSHMOqWxgtQQpDYd_ZAWY2rnk2Zp4hO1aMagzHPjt1r2FP8MKFISs49pXfd37Cr2yz1VpV0ZtUfTe7-V5smjELhk54JmyqSeATqeWdAzXdikEbH2AEmSi04w4X7RBjlflxgWhhi4LYusm5WsFaTfb_2jLwxEeQfy6GPLTTS8z2ghenaKDXb689nMhV63rXcwptg5pmCDkm_eYB3YXZ47U175W_hxc5piocf8R63huvqY6ccGhtAh4CHolydQezG1V46GuGXwTuLK6bAsgNzGv_0xSluB4L2vu-PGXJXtTKwL1DIbc3JSD5vns3jQei4vlS1D7fkeWwnof1q_ot0tGQEY3FTzgeLg3qOlHp9kA4DgBEldK8D-orznTDNpSYIu_zjuz-z39EM4vPP6c3SKtzcjGONHjNCD6G_oW-8bmplpR7XgCQHw4RRqdx5JpLy3MnXIFqhRcK56vioAgjvUrjLx15l88xnh_LXLkI6MmEc9vY8OOuTyYtfwru7fFlwUat-kHT4hInlAz8ojg6yXfYhs4pUHL3eDpH_1VYMQ2-dqPmiE-Iqh9-JVPcaIlz17OQ1Z_3m00]--></g></svg>