<?xml version="1.0" encoding="us-ascii" standalone="no"?><svg xmlns="http://www.w3.org/2000/svg" xmlns:xlink="http://www.w3.org/1999/xlink" contentStyleType="text/css" height="1781px" preserveAspectRatio="none" style="width:1631px;height:1781px;background:#FFFFFF;" version="1.1" viewBox="0 0 1631 1781" width="1631px" zoomAndPan="magnify"><defs/><g><text fill="#000000" font-family="sans-serif" font-size="14" font-weight="bold" lengthAdjust="spacing" textLength="100" x="758.5" y="25.1074">Domain Model</text><!--cluster Job Requirements Specification Aggregate--><g id="cluster_Job Requirements Specification Aggregate"><rect fill="none" height="123" rx="2.5" ry="2.5" style="stroke:#000000;stroke-width:1.5;" width="499" x="195" y="46.6211"/><text fill="#000000" font-family="sans-serif" font-size="14" font-weight="bold" lengthAdjust="spacing" textLength="301" x="294" y="63.7285">Job Requirements Specification Aggregate</text></g><!--cluster Job Opening Aggregate--><g id="cluster_Job Opening Aggregate"><rect fill="none" height="643" rx="2.5" ry="2.5" style="stroke:#000000;stroke-width:1.5;" width="648" x="548" y="193.6211"/><text fill="#000000" font-family="sans-serif" font-size="14" font-weight="bold" lengthAdjust="spacing" textLength="167" x="788.5" y="210.7285">Job Opening Aggregate</text></g><!--cluster Application Aggregate--><g id="cluster_Application Aggregate"><rect fill="none" height="331" rx="2.5" ry="2.5" style="stroke:#000000;stroke-width:1.5;" width="819.5" x="805.5" y="860.6211"/><text fill="#000000" font-family="sans-serif" font-size="14" font-weight="bold" lengthAdjust="spacing" textLength="155" x="1137.75" y="877.7285">Application Aggregate</text></g><!--cluster Customer Aggregate--><g id="cluster_Customer Aggregate"><rect fill="none" height="123" rx="2.5" ry="2.5" style="stroke:#000000;stroke-width:1.5;" width="355" x="809.5" y="1215.6211"/><text fill="#000000" font-family="sans-serif" font-size="14" font-weight="bold" lengthAdjust="spacing" textLength="145" x="914.5" y="1232.7285">Customer Aggregate</text></g><!--cluster Process Aggregate--><g id="cluster_Process Aggregate"><rect fill="none" height="413" rx="2.5" ry="2.5" style="stroke:#000000;stroke-width:1.5;" width="717.5" x="814.5" y="1362.6211"/><text fill="#000000" font-family="sans-serif" font-size="14" font-weight="bold" lengthAdjust="spacing" textLength="134" x="1106.25" y="1379.7285">Process Aggregate</text></g><!--cluster Interview Model Aggregate--><g id="cluster_Interview Model Aggregate"><rect fill="none" height="123" rx="2.5" ry="2.5" style="stroke:#000000;stroke-width:1.5;" width="389.5" x="7" y="465.6211"/><text fill="#000000" font-family="sans-serif" font-size="14" font-weight="bold" lengthAdjust="spacing" textLength="191" x="106.25" y="482.7285">Interview Model Aggregate</text></g><!--class JobRequirementsSpecification--><g id="elem_JobRequirementsSpecification"><rect codeLine="26" fill="#F0FFFF" height="68.543" id="JobRequirementsSpecification" rx="2.5" ry="2.5" style="stroke:#000000;stroke-width:0.5;" width="222" x="211" y="84.1211"/><ellipse cx="226" cy="114.3926" fill="#ADD1B2" rx="11" ry="11" style="stroke:#181818;stroke-width:1.0;"/><path d="M224.8594,115.1895 L224.8594,117.6895 L229.1875,117.6895 L229.1875,116.7676 Q229.1875,116.1582 229.4219,115.8926 Q229.6719,115.627 230.0469,115.627 Q230.4219,115.627 230.6563,115.8926 Q230.8906,116.1582 230.8906,116.7676 L230.8906,119.3926 L222.8906,119.3926 Q222.2656,119.3926 222,119.1582 Q221.75,118.9238 221.75,118.5332 Q221.75,118.1582 222.0156,117.9238 Q222.2813,117.6895 222.8906,117.6895 L223.1563,117.6895 L223.1563,111.0332 L222.8906,111.0332 Q222.2656,111.0332 222,110.7988 Q221.75,110.5645 221.75,110.1738 Q221.75,109.7988 222,109.5645 Q222.2656,109.3301 222.8906,109.3301 L230.5156,109.3301 L230.5156,111.9238 Q230.5156,112.5332 230.2813,112.7988 Q230.0625,113.0488 229.6719,113.0488 Q229.2969,113.0488 229.0625,112.7988 Q228.8281,112.5332 228.8281,111.9238 L228.8281,111.0332 L224.8594,111.0332 L224.8594,113.4863 L226.3438,113.4863 Q226.3438,112.8301 226.4688,112.6426 Q226.7344,112.2363 227.2031,112.2363 Q227.5781,112.2363 227.8125,112.502 Q228.0469,112.752 228.0469,113.3613 L228.0469,115.3301 Q228.0469,115.877 227.9219,116.0645 Q227.6563,116.4551 227.2031,116.4551 Q226.7344,116.4551 226.4688,116.0488 Q226.3438,115.8613 226.3438,115.1895 L224.8594,115.1895 Z " fill="#000000"/><text fill="#000000" font-family="sans-serif" font-size="12" font-style="italic" lengthAdjust="spacing" textLength="43" x="313.5" y="102.0703">&#171;entity&#187;</text><text fill="#000000" font-family="sans-serif" font-size="12" font-style="italic" lengthAdjust="spacing" textLength="35" x="317.5" y="118.0313">&#171;root&#187;</text><text fill="#000000" font-family="sans-serif" font-size="14" lengthAdjust="spacing" textLength="190" x="240" y="136.1504">JobRequirementsSpecification</text><line style="stroke:#000000;stroke-width:0.5;" x1="212" x2="432" y1="144.6641" y2="144.6641"/></g><!--class Requirements--><g id="elem_Requirements"><rect codeLine="28" fill="#F0FFFF" height="52.582" id="Requirements" rx="2.5" ry="2.5" style="stroke:#000000;stroke-width:0.5;" width="120" x="558" y="92.1211"/><ellipse cx="573" cy="114.4121" fill="#ADD1B2" rx="11" ry="11" style="stroke:#181818;stroke-width:1.0;"/><path d="M571.8594,115.209 L571.8594,117.709 L576.1875,117.709 L576.1875,116.7871 Q576.1875,116.1777 576.4219,115.9121 Q576.6719,115.6465 577.0469,115.6465 Q577.4219,115.6465 577.6563,115.9121 Q577.8906,116.1777 577.8906,116.7871 L577.8906,119.4121 L569.8906,119.4121 Q569.2656,119.4121 569,119.1777 Q568.75,118.9434 568.75,118.5527 Q568.75,118.1777 569.0156,117.9434 Q569.2813,117.709 569.8906,117.709 L570.1563,117.709 L570.1563,111.0527 L569.8906,111.0527 Q569.2656,111.0527 569,110.8184 Q568.75,110.584 568.75,110.1934 Q568.75,109.8184 569,109.584 Q569.2656,109.3496 569.8906,109.3496 L577.5156,109.3496 L577.5156,111.9434 Q577.5156,112.5527 577.2813,112.8184 Q577.0625,113.0684 576.6719,113.0684 Q576.2969,113.0684 576.0625,112.8184 Q575.8281,112.5527 575.8281,111.9434 L575.8281,111.0527 L571.8594,111.0527 L571.8594,113.5059 L573.3438,113.5059 Q573.3438,112.8496 573.4688,112.6621 Q573.7344,112.2559 574.2031,112.2559 Q574.5781,112.2559 574.8125,112.5215 Q575.0469,112.7715 575.0469,113.3809 L575.0469,115.3496 Q575.0469,115.8965 574.9219,116.084 Q574.6563,116.4746 574.2031,116.4746 Q573.7344,116.4746 573.4688,116.0684 Q573.3438,115.8809 573.3438,115.209 L571.8594,115.209 Z " fill="#000000"/><text fill="#000000" font-family="sans-serif" font-size="12" font-style="italic" lengthAdjust="spacing" textLength="43" x="609.5" y="110.0703">&#171;entity&#187;</text><text fill="#000000" font-family="sans-serif" font-size="14" lengthAdjust="spacing" textLength="88" x="587" y="128.1895">Requirements</text><line style="stroke:#000000;stroke-width:0.5;" x1="559" x2="677" y1="136.7031" y2="136.7031"/></g><!--class JobOpening--><g id="elem_JobOpening"><rect codeLine="35" fill="#F0FFFF" height="68.543" id="JobOpening" rx="2.5" ry="2.5" style="stroke:#000000;stroke-width:0.5;" width="108" x="564" y="569.1211"/><ellipse cx="579" cy="599.3926" fill="#ADD1B2" rx="11" ry="11" style="stroke:#181818;stroke-width:1.0;"/><path d="M577.8594,600.1895 L577.8594,602.6895 L582.1875,602.6895 L582.1875,601.7676 Q582.1875,601.1582 582.4219,600.8926 Q582.6719,600.627 583.0469,600.627 Q583.4219,600.627 583.6563,600.8926 Q583.8906,601.1582 583.8906,601.7676 L583.8906,604.3926 L575.8906,604.3926 Q575.2656,604.3926 575,604.1582 Q574.75,603.9238 574.75,603.5332 Q574.75,603.1582 575.0156,602.9238 Q575.2813,602.6895 575.8906,602.6895 L576.1563,602.6895 L576.1563,596.0332 L575.8906,596.0332 Q575.2656,596.0332 575,595.7988 Q574.75,595.5645 574.75,595.1738 Q574.75,594.7988 575,594.5645 Q575.2656,594.3301 575.8906,594.3301 L583.5156,594.3301 L583.5156,596.9238 Q583.5156,597.5332 583.2813,597.7988 Q583.0625,598.0488 582.6719,598.0488 Q582.2969,598.0488 582.0625,597.7988 Q581.8281,597.5332 581.8281,596.9238 L581.8281,596.0332 L577.8594,596.0332 L577.8594,598.4863 L579.3438,598.4863 Q579.3438,597.8301 579.4688,597.6426 Q579.7344,597.2363 580.2031,597.2363 Q580.5781,597.2363 580.8125,597.502 Q581.0469,597.752 581.0469,598.3613 L581.0469,600.3301 Q581.0469,600.877 580.9219,601.0645 Q580.6563,601.4551 580.2031,601.4551 Q579.7344,601.4551 579.4688,601.0488 Q579.3438,600.8613 579.3438,600.1895 L577.8594,600.1895 Z " fill="#000000"/><text fill="#000000" font-family="sans-serif" font-size="12" font-style="italic" lengthAdjust="spacing" textLength="43" x="609.5" y="587.0703">&#171;entity&#187;</text><text fill="#000000" font-family="sans-serif" font-size="12" font-style="italic" lengthAdjust="spacing" textLength="35" x="613.5" y="603.0313">&#171;root&#187;</text><text fill="#000000" font-family="sans-serif" font-size="14" lengthAdjust="spacing" textLength="76" x="593" y="621.1504">JobOpening</text><line style="stroke:#000000;stroke-width:0.5;" x1="565" x2="671" y1="629.6641" y2="629.6641"/></g><g id="elem_GMN24"><path d="M1000,622.6211 L1000,645.0811 L930.6,645.5511 L1000,653.0811 L1000,684.4941 A0,0 0 0 0 1000,684.4941 L1180,684.4941 A0,0 0 0 0 1180,684.4941 L1180,632.6211 L1170,622.6211 L1000,622.6211 A0,0 0 0 0 1000,622.6211 " fill="#FEFFDD" style="stroke:#181818;stroke-width:0.5;"/><path d="M1170,622.6211 L1170,632.6211 L1180,632.6211 L1170,622.6211 " fill="#FEFFDD" style="stroke:#181818;stroke-width:0.5;"/><text fill="#000000" font-family="sans-serif" font-size="13" lengthAdjust="spacing" textLength="159" x="1006" y="641.6494">Can be one of the following:</text><text fill="#000000" font-family="sans-serif" font-size="13" lengthAdjust="spacing" textLength="53" x="1006" y="658.9404">- full-time</text><text fill="#000000" font-family="sans-serif" font-size="13" lengthAdjust="spacing" textLength="59" x="1006" y="676.2314">- part-time</text></g><g id="elem_GMN27"><path d="M1000,508.1211 L1000,550.6411 L930.6,560.0911 L1000,558.6411 L1000,587.2852 A0,0 0 0 0 1000,587.2852 L1180,587.2852 A0,0 0 0 0 1180,587.2852 L1180,518.1211 L1170,508.1211 L1000,508.1211 A0,0 0 0 0 1000,508.1211 " fill="#FEFFDD" style="stroke:#181818;stroke-width:0.5;"/><path d="M1170,508.1211 L1170,518.1211 L1180,518.1211 L1170,508.1211 " fill="#FEFFDD" style="stroke:#181818;stroke-width:0.5;"/><text fill="#000000" font-family="sans-serif" font-size="13" lengthAdjust="spacing" textLength="159" x="1006" y="527.1494">Can be one of the following:</text><text fill="#000000" font-family="sans-serif" font-size="13" lengthAdjust="spacing" textLength="48" x="1006" y="544.4404">- remote</text><text fill="#000000" font-family="sans-serif" font-size="13" lengthAdjust="spacing" textLength="43" x="1006" y="561.7314">- hybrid</text><text fill="#000000" font-family="sans-serif" font-size="13" lengthAdjust="spacing" textLength="43" x="1006" y="579.0225">- onsite</text></g><!--entity JobReference--><g id="elem_JobReference"><rect fill="#F0FFDD" height="43.2422" rx="2.5" ry="2.5" style="stroke:#000000;stroke-width:0.5;" width="117" x="813.5" y="777.1211"/><text fill="#000000" font-family="sans-serif" font-size="14" font-style="italic" lengthAdjust="spacing" textLength="97" x="823.5" y="795.2285">&#171;Value Object&#187;</text><text fill="#000000" font-family="sans-serif" font-size="14" lengthAdjust="spacing" textLength="88" x="828" y="813.8496">JobReference</text></g><!--entity TitleOrFunction--><g id="elem_TitleOrFunction"><rect fill="#F0FFDD" height="43.2422" rx="2.5" ry="2.5" style="stroke:#000000;stroke-width:0.5;" width="118" x="813" y="699.1211"/><text fill="#000000" font-family="sans-serif" font-size="14" font-style="italic" lengthAdjust="spacing" textLength="97" x="823.5" y="717.2285">&#171;Value Object&#187;</text><text fill="#000000" font-family="sans-serif" font-size="14" lengthAdjust="spacing" textLength="98" x="823" y="735.8496">TitleOrFunction</text></g><!--entity ContractType--><g id="elem_ContractType"><rect fill="#F0FFDD" height="43.2422" rx="2.5" ry="2.5" style="stroke:#000000;stroke-width:0.5;" width="117" x="813.5" y="621.1211"/><text fill="#000000" font-family="sans-serif" font-size="14" font-style="italic" lengthAdjust="spacing" textLength="97" x="823.5" y="639.2285">&#171;Value Object&#187;</text><text fill="#000000" font-family="sans-serif" font-size="14" lengthAdjust="spacing" textLength="86" x="829" y="657.8496">ContractType</text></g><!--entity Mode--><g id="elem_Mode"><rect fill="#F0FFDD" height="43.2422" rx="2.5" ry="2.5" style="stroke:#000000;stroke-width:0.5;" width="117" x="813.5" y="543.1211"/><text fill="#000000" font-family="sans-serif" font-size="14" font-style="italic" lengthAdjust="spacing" textLength="97" x="823.5" y="561.2285">&#171;Value Object&#187;</text><text fill="#000000" font-family="sans-serif" font-size="14" lengthAdjust="spacing" textLength="35" x="854.5" y="579.8496">Mode</text></g><!--entity Address--><g id="elem_Address"><rect fill="#F0FFDD" height="43.2422" rx="2.5" ry="2.5" style="stroke:#000000;stroke-width:0.5;" width="117" x="813.5" y="465.1211"/><text fill="#000000" font-family="sans-serif" font-size="14" font-style="italic" lengthAdjust="spacing" textLength="97" x="823.5" y="483.2285">&#171;Value Object&#187;</text><text fill="#000000" font-family="sans-serif" font-size="14" lengthAdjust="spacing" textLength="52" x="846" y="501.8496">Address</text></g><!--entity VacanciesNumber--><g id="elem_VacanciesNumber"><rect fill="#F0FFDD" height="43.2422" rx="2.5" ry="2.5" style="stroke:#000000;stroke-width:0.5;" width="134" x="805" y="387.1211"/><text fill="#000000" font-family="sans-serif" font-size="14" font-style="italic" lengthAdjust="spacing" textLength="97" x="823.5" y="405.2285">&#171;Value Object&#187;</text><text fill="#000000" font-family="sans-serif" font-size="14" lengthAdjust="spacing" textLength="114" x="815" y="423.8496">VacanciesNumber</text></g><!--entity Description--><g id="elem_Description"><rect fill="#F0FFDD" height="43.2422" rx="2.5" ry="2.5" style="stroke:#000000;stroke-width:0.5;" width="117" x="813.5" y="309.1211"/><text fill="#000000" font-family="sans-serif" font-size="14" font-style="italic" lengthAdjust="spacing" textLength="97" x="823.5" y="327.2285">&#171;Value Object&#187;</text><text fill="#000000" font-family="sans-serif" font-size="14" lengthAdjust="spacing" textLength="71" x="836.5" y="345.8496">Description</text></g><!--entity ActiveSince--><g id="elem_ActiveSince"><rect fill="#F0FFDD" height="43.2422" rx="2.5" ry="2.5" style="stroke:#000000;stroke-width:0.5;" width="117" x="813.5" y="231.1211"/><text fill="#000000" font-family="sans-serif" font-size="14" font-style="italic" lengthAdjust="spacing" textLength="97" x="823.5" y="249.2285">&#171;Value Object&#187;</text><text fill="#000000" font-family="sans-serif" font-size="14" lengthAdjust="spacing" textLength="73" x="835.5" y="267.8496">ActiveSince</text></g><!--class Application--><g id="elem_Application"><rect codeLine="79" fill="#F0FFFF" height="68.543" id="Application" rx="2.5" ry="2.5" style="stroke:#000000;stroke-width:0.5;" width="101" x="821.5" y="963.1211"/><ellipse cx="836.5" cy="993.3926" fill="#ADD1B2" rx="11" ry="11" style="stroke:#181818;stroke-width:1.0;"/><path d="M835.3594,994.1895 L835.3594,996.6895 L839.6875,996.6895 L839.6875,995.7676 Q839.6875,995.1582 839.9219,994.8926 Q840.1719,994.627 840.5469,994.627 Q840.9219,994.627 841.1563,994.8926 Q841.3906,995.1582 841.3906,995.7676 L841.3906,998.3926 L833.3906,998.3926 Q832.7656,998.3926 832.5,998.1582 Q832.25,997.9238 832.25,997.5332 Q832.25,997.1582 832.5156,996.9238 Q832.7813,996.6895 833.3906,996.6895 L833.6563,996.6895 L833.6563,990.0332 L833.3906,990.0332 Q832.7656,990.0332 832.5,989.7988 Q832.25,989.5645 832.25,989.1738 Q832.25,988.7988 832.5,988.5645 Q832.7656,988.3301 833.3906,988.3301 L841.0156,988.3301 L841.0156,990.9238 Q841.0156,991.5332 840.7813,991.7988 Q840.5625,992.0488 840.1719,992.0488 Q839.7969,992.0488 839.5625,991.7988 Q839.3281,991.5332 839.3281,990.9238 L839.3281,990.0332 L835.3594,990.0332 L835.3594,992.4863 L836.8438,992.4863 Q836.8438,991.8301 836.9688,991.6426 Q837.2344,991.2363 837.7031,991.2363 Q838.0781,991.2363 838.3125,991.502 Q838.5469,991.752 838.5469,992.3613 L838.5469,994.3301 Q838.5469,994.877 838.4219,995.0645 Q838.1563,995.4551 837.7031,995.4551 Q837.2344,995.4551 836.9688,995.0488 Q836.8438,994.8613 836.8438,994.1895 L835.3594,994.1895 Z " fill="#000000"/><text fill="#000000" font-family="sans-serif" font-size="12" font-style="italic" lengthAdjust="spacing" textLength="43" x="863.5" y="981.0703">&#171;entity&#187;</text><text fill="#000000" font-family="sans-serif" font-size="12" font-style="italic" lengthAdjust="spacing" textLength="35" x="867.5" y="997.0313">&#171;root&#187;</text><text fill="#000000" font-family="sans-serif" font-size="14" lengthAdjust="spacing" textLength="69" x="850.5" y="1015.1504">Application</text><line style="stroke:#000000;stroke-width:0.5;" x1="822.5" x2="921.5" y1="1023.6641" y2="1023.6641"/></g><g id="elem_GMN40"><path d="M1336,948.6211 L1336,1013.7011 L1148.8,1061.9511 L1336,1021.7011 L1336,1045.0762 A0,0 0 0 0 1336,1045.0762 L1516,1045.0762 A0,0 0 0 0 1516,1045.0762 L1516,958.6211 L1506,948.6211 L1336,948.6211 A0,0 0 0 0 1336,948.6211 " fill="#FEFFDD" style="stroke:#181818;stroke-width:0.5;"/><path d="M1506,948.6211 L1506,958.6211 L1516,958.6211 L1506,948.6211 " fill="#FEFFDD" style="stroke:#181818;stroke-width:0.5;"/><text fill="#000000" font-family="sans-serif" font-size="13" lengthAdjust="spacing" textLength="159" x="1342" y="967.6494">Can be one of the following:</text><text fill="#000000" font-family="sans-serif" font-size="13" lengthAdjust="spacing" textLength="65" x="1342" y="984.9404">- submitted</text><text fill="#000000" font-family="sans-serif" font-size="13" lengthAdjust="spacing" textLength="53" x="1342" y="1002.2314">- pending</text><text fill="#000000" font-family="sans-serif" font-size="13" lengthAdjust="spacing" textLength="61" x="1342" y="1019.5225">- accepted</text><text fill="#000000" font-family="sans-serif" font-size="13" lengthAdjust="spacing" textLength="56" x="1342" y="1036.8135">- declined</text></g><g id="elem_GMN43"><path d="M1243,1079.6211 L1243,1137.7911 L1149.56,1149.0611 L1243,1145.7911 L1243,1176.0762 A0,0 0 0 0 1243,1176.0762 L1609,1176.0762 A0,0 0 0 0 1609,1176.0762 L1609,1089.6211 L1599,1079.6211 L1243,1079.6211 A0,0 0 0 0 1243,1079.6211 " fill="#FEFFDD" style="stroke:#181818;stroke-width:0.5;"/><path d="M1599,1079.6211 L1599,1089.6211 L1609,1089.6211 L1599,1079.6211 " fill="#FEFFDD" style="stroke:#181818;stroke-width:0.5;"/><text fill="#000000" font-family="sans-serif" font-size="13" lengthAdjust="spacing" textLength="159" x="1249" y="1098.6494">Can be one of the following:</text><text fill="#000000" font-family="sans-serif" font-size="13" lengthAdjust="spacing" textLength="224" x="1249" y="1115.9404">- text file with the contents of the email</text><text fill="#000000" font-family="sans-serif" font-size="13" lengthAdjust="spacing" textLength="220" x="1249" y="1133.2314">- file for each file attached to the email</text><text fill="#000000" font-family="sans-serif" font-size="13" lengthAdjust="spacing" textLength="345" x="1249" y="1150.5225">- text file with the contents of each file attached to the email</text><text fill="#000000" font-family="sans-serif" font-size="13" lengthAdjust="spacing" textLength="315" x="1249" y="1167.8135">- text file with the data of the application and candidate</text></g><!--entity ApplicationFiles--><g id="elem_ApplicationFiles"><rect fill="#F0FFDD" height="43.2422" rx="2.5" ry="2.5" style="stroke:#000000;stroke-width:0.5;" width="119" x="1030.5" y="1132.1211"/><text fill="#000000" font-family="sans-serif" font-size="14" font-style="italic" lengthAdjust="spacing" textLength="97" x="1041.5" y="1150.2285">&#171;Value Object&#187;</text><text fill="#000000" font-family="sans-serif" font-size="14" lengthAdjust="spacing" textLength="99" x="1040.5" y="1168.8496">ApplicationFiles</text></g><!--entity Status--><g id="elem_Status"><rect fill="#F0FFDD" height="43.2422" rx="2.5" ry="2.5" style="stroke:#000000;stroke-width:0.5;" width="117" x="1031.5" y="1054.1211"/><text fill="#000000" font-family="sans-serif" font-size="14" font-style="italic" lengthAdjust="spacing" textLength="97" x="1041.5" y="1072.2285">&#171;Value Object&#187;</text><text fill="#000000" font-family="sans-serif" font-size="14" lengthAdjust="spacing" textLength="40" x="1070" y="1090.8496">Status</text></g><!--entity SubmissionDate--><g id="elem_SubmissionDate"><rect fill="#F0FFDD" height="43.2422" rx="2.5" ry="2.5" style="stroke:#000000;stroke-width:0.5;" width="122" x="1029" y="976.1211"/><text fill="#000000" font-family="sans-serif" font-size="14" font-style="italic" lengthAdjust="spacing" textLength="97" x="1041.5" y="994.2285">&#171;Value Object&#187;</text><text fill="#000000" font-family="sans-serif" font-size="14" lengthAdjust="spacing" textLength="102" x="1039" y="1012.8496">SubmissionDate</text></g><!--entity Rank--><g id="elem_Rank"><rect fill="#F0FFDD" height="43.2422" rx="2.5" ry="2.5" style="stroke:#000000;stroke-width:0.5;" width="117" x="1031.5" y="898.1211"/><text fill="#000000" font-family="sans-serif" font-size="14" font-style="italic" lengthAdjust="spacing" textLength="97" x="1041.5" y="916.2285">&#171;Value Object&#187;</text><text fill="#000000" font-family="sans-serif" font-size="14" lengthAdjust="spacing" textLength="33" x="1073.5" y="934.8496">Rank</text></g><!--class Customer--><g id="elem_Customer"><rect codeLine="114" fill="#F0FFFF" height="68.543" id="Customer" rx="2.5" ry="2.5" style="stroke:#000000;stroke-width:0.5;" width="93" x="825.5" y="1253.1211"/><ellipse cx="840.5" cy="1283.3926" fill="#ADD1B2" rx="11" ry="11" style="stroke:#181818;stroke-width:1.0;"/><path d="M839.3594,1284.1895 L839.3594,1286.6895 L843.6875,1286.6895 L843.6875,1285.7676 Q843.6875,1285.1582 843.9219,1284.8926 Q844.1719,1284.627 844.5469,1284.627 Q844.9219,1284.627 845.1563,1284.8926 Q845.3906,1285.1582 845.3906,1285.7676 L845.3906,1288.3926 L837.3906,1288.3926 Q836.7656,1288.3926 836.5,1288.1582 Q836.25,1287.9238 836.25,1287.5332 Q836.25,1287.1582 836.5156,1286.9238 Q836.7813,1286.6895 837.3906,1286.6895 L837.6563,1286.6895 L837.6563,1280.0332 L837.3906,1280.0332 Q836.7656,1280.0332 836.5,1279.7988 Q836.25,1279.5645 836.25,1279.1738 Q836.25,1278.7988 836.5,1278.5645 Q836.7656,1278.3301 837.3906,1278.3301 L845.0156,1278.3301 L845.0156,1280.9238 Q845.0156,1281.5332 844.7813,1281.7988 Q844.5625,1282.0488 844.1719,1282.0488 Q843.7969,1282.0488 843.5625,1281.7988 Q843.3281,1281.5332 843.3281,1280.9238 L843.3281,1280.0332 L839.3594,1280.0332 L839.3594,1282.4863 L840.8438,1282.4863 Q840.8438,1281.8301 840.9688,1281.6426 Q841.2344,1281.2363 841.7031,1281.2363 Q842.0781,1281.2363 842.3125,1281.502 Q842.5469,1281.752 842.5469,1282.3613 L842.5469,1284.3301 Q842.5469,1284.877 842.4219,1285.0645 Q842.1563,1285.4551 841.7031,1285.4551 Q841.2344,1285.4551 840.9688,1285.0488 Q840.8438,1284.8613 840.8438,1284.1895 L839.3594,1284.1895 Z " fill="#000000"/><text fill="#000000" font-family="sans-serif" font-size="12" font-style="italic" lengthAdjust="spacing" textLength="43" x="863.5" y="1271.0703">&#171;entity&#187;</text><text fill="#000000" font-family="sans-serif" font-size="12" font-style="italic" lengthAdjust="spacing" textLength="35" x="867.5" y="1287.0313">&#171;root&#187;</text><text fill="#000000" font-family="sans-serif" font-size="14" lengthAdjust="spacing" textLength="61" x="854.5" y="1305.1504">Customer</text><line style="stroke:#000000;stroke-width:0.5;" x1="826.5" x2="917.5" y1="1313.6641" y2="1313.6641"/></g><!--entity EmailAddress--><g id="elem_EmailAddress"><rect fill="#F0FFDD" height="43.2422" rx="2.5" ry="2.5" style="stroke:#000000;stroke-width:0.5;" width="117" x="1031.5" y="1266.1211"/><text fill="#000000" font-family="sans-serif" font-size="14" font-style="italic" lengthAdjust="spacing" textLength="97" x="1041.5" y="1284.2285">&#171;Value Object&#187;</text><text fill="#000000" font-family="sans-serif" font-size="14" lengthAdjust="spacing" textLength="86" x="1047" y="1302.8496">EmailAddress</text></g><!--class Process--><g id="elem_Process"><rect codeLine="123" fill="#F0FFFF" height="68.543" id="Process" rx="2.5" ry="2.5" style="stroke:#000000;stroke-width:0.5;" width="83" x="830.5" y="1433.1211"/><ellipse cx="845.5" cy="1463.3926" fill="#ADD1B2" rx="11" ry="11" style="stroke:#181818;stroke-width:1.0;"/><path d="M844.3594,1464.1895 L844.3594,1466.6895 L848.6875,1466.6895 L848.6875,1465.7676 Q848.6875,1465.1582 848.9219,1464.8926 Q849.1719,1464.627 849.5469,1464.627 Q849.9219,1464.627 850.1563,1464.8926 Q850.3906,1465.1582 850.3906,1465.7676 L850.3906,1468.3926 L842.3906,1468.3926 Q841.7656,1468.3926 841.5,1468.1582 Q841.25,1467.9238 841.25,1467.5332 Q841.25,1467.1582 841.5156,1466.9238 Q841.7813,1466.6895 842.3906,1466.6895 L842.6563,1466.6895 L842.6563,1460.0332 L842.3906,1460.0332 Q841.7656,1460.0332 841.5,1459.7988 Q841.25,1459.5645 841.25,1459.1738 Q841.25,1458.7988 841.5,1458.5645 Q841.7656,1458.3301 842.3906,1458.3301 L850.0156,1458.3301 L850.0156,1460.9238 Q850.0156,1461.5332 849.7813,1461.7988 Q849.5625,1462.0488 849.1719,1462.0488 Q848.7969,1462.0488 848.5625,1461.7988 Q848.3281,1461.5332 848.3281,1460.9238 L848.3281,1460.0332 L844.3594,1460.0332 L844.3594,1462.4863 L845.8438,1462.4863 Q845.8438,1461.8301 845.9688,1461.6426 Q846.2344,1461.2363 846.7031,1461.2363 Q847.0781,1461.2363 847.3125,1461.502 Q847.5469,1461.752 847.5469,1462.3613 L847.5469,1464.3301 Q847.5469,1464.877 847.4219,1465.0645 Q847.1563,1465.4551 846.7031,1465.4551 Q846.2344,1465.4551 845.9688,1465.0488 Q845.8438,1464.8613 845.8438,1464.1895 L844.3594,1464.1895 Z " fill="#000000"/><text fill="#000000" font-family="sans-serif" font-size="12" font-style="italic" lengthAdjust="spacing" textLength="43" x="863.5" y="1451.0703">&#171;entity&#187;</text><text fill="#000000" font-family="sans-serif" font-size="12" font-style="italic" lengthAdjust="spacing" textLength="35" x="867.5" y="1467.0313">&#171;root&#187;</text><text fill="#000000" font-family="sans-serif" font-size="14" lengthAdjust="spacing" textLength="51" x="859.5" y="1485.1504">Process</text><line style="stroke:#000000;stroke-width:0.5;" x1="831.5" x2="912.5" y1="1493.6641" y2="1493.6641"/></g><g id="elem_GMN58"><path d="M1336,1496.6211 L1336,1546.6911 L1148.8,1544.5211 L1336,1554.6911 L1336,1610.3672 A0,0 0 0 0 1336,1610.3672 L1516,1610.3672 A0,0 0 0 0 1516,1610.3672 L1516,1506.6211 L1506,1496.6211 L1336,1496.6211 A0,0 0 0 0 1336,1496.6211 " fill="#FEFFDD" style="stroke:#181818;stroke-width:0.5;"/><path d="M1506,1496.6211 L1506,1506.6211 L1516,1506.6211 L1506,1496.6211 " fill="#FEFFDD" style="stroke:#181818;stroke-width:0.5;"/><text fill="#000000" font-family="sans-serif" font-size="13" lengthAdjust="spacing" textLength="159" x="1342" y="1515.6494">Can be one of the following:</text><text fill="#000000" font-family="sans-serif" font-size="13" lengthAdjust="spacing" textLength="125" x="1342" y="1532.9404">- applicationStartDate</text><text fill="#000000" font-family="sans-serif" font-size="13" lengthAdjust="spacing" textLength="121" x="1342" y="1550.2314">- ScreeningStartDate</text><text fill="#000000" font-family="sans-serif" font-size="13" lengthAdjust="spacing" textLength="119" x="1342" y="1567.5225">- InterviewsStartDate</text><text fill="#000000" font-family="sans-serif" font-size="13" lengthAdjust="spacing" textLength="113" x="1342" y="1584.8135">- AnalysisStartDate</text><text fill="#000000" font-family="sans-serif" font-size="13" lengthAdjust="spacing" textLength="100" x="1342" y="1602.1045">- ResultStartDate</text></g><g id="elem_GMN61"><path d="M1336,1645.6211 L1336,1692.2211 L1148.8,1682.7711 L1336,1700.2211 L1336,1759.3672 A0,0 0 0 0 1336,1759.3672 L1516,1759.3672 A0,0 0 0 0 1516,1759.3672 L1516,1655.6211 L1506,1645.6211 L1336,1645.6211 A0,0 0 0 0 1336,1645.6211 " fill="#FEFFDD" style="stroke:#181818;stroke-width:0.5;"/><path d="M1506,1645.6211 L1506,1655.6211 L1516,1655.6211 L1506,1645.6211 " fill="#FEFFDD" style="stroke:#181818;stroke-width:0.5;"/><text fill="#000000" font-family="sans-serif" font-size="13" lengthAdjust="spacing" textLength="159" x="1342" y="1664.6494">Can be one of the following:</text><text fill="#000000" font-family="sans-serif" font-size="13" lengthAdjust="spacing" textLength="72" x="1342" y="1681.9404">- Application</text><text fill="#000000" font-family="sans-serif" font-size="13" lengthAdjust="spacing" textLength="66" x="1342" y="1699.2314">- Screening</text><text fill="#000000" font-family="sans-serif" font-size="13" lengthAdjust="spacing" textLength="64" x="1342" y="1716.5225">- Interviews</text><text fill="#000000" font-family="sans-serif" font-size="13" lengthAdjust="spacing" textLength="58" x="1342" y="1733.8135">- Analysis</text><text fill="#000000" font-family="sans-serif" font-size="13" lengthAdjust="spacing" textLength="45" x="1342" y="1751.1045">- Result</text></g><g id="elem_GMN64"><path d="M1336,1399.6211 L1336,1429.8211 L1148.8,1440.5411 L1336,1437.8211 L1336,1461.4941 A0,0 0 0 0 1336,1461.4941 L1516,1461.4941 A0,0 0 0 0 1516,1461.4941 L1516,1409.6211 L1506,1399.6211 L1336,1399.6211 A0,0 0 0 0 1336,1399.6211 " fill="#FEFFDD" style="stroke:#181818;stroke-width:0.5;"/><path d="M1506,1399.6211 L1506,1409.6211 L1516,1409.6211 L1506,1399.6211 " fill="#FEFFDD" style="stroke:#181818;stroke-width:0.5;"/><text fill="#000000" font-family="sans-serif" font-size="13" lengthAdjust="spacing" textLength="159" x="1342" y="1418.6494">Can be one of the following:</text><text fill="#000000" font-family="sans-serif" font-size="13" lengthAdjust="spacing" textLength="39" x="1342" y="1435.9404">- Open</text><text fill="#000000" font-family="sans-serif" font-size="13" lengthAdjust="spacing" textLength="41" x="1342" y="1453.2314">- Close</text></g><!--entity ProcessState--><g id="elem_ProcessState"><rect fill="#F0FFDD" height="43.2422" rx="2.5" ry="2.5" style="stroke:#000000;stroke-width:0.5;" width="117" x="1031.5" y="1657.1211"/><text fill="#000000" font-family="sans-serif" font-size="14" font-style="italic" lengthAdjust="spacing" textLength="97" x="1041.5" y="1675.2285">&#171;Value Object&#187;</text><text fill="#000000" font-family="sans-serif" font-size="14" lengthAdjust="spacing" textLength="84" x="1048" y="1693.8496">ProcessState</text></g><!--entity ProcessDate--><g id="elem_ProcessDate"><rect fill="#F0FFDD" height="43.2422" rx="2.5" ry="2.5" style="stroke:#000000;stroke-width:0.5;" width="117" x="1031.5" y="1521.1211"/><text fill="#000000" font-family="sans-serif" font-size="14" font-style="italic" lengthAdjust="spacing" textLength="97" x="1041.5" y="1539.2285">&#171;Value Object&#187;</text><text fill="#000000" font-family="sans-serif" font-size="14" lengthAdjust="spacing" textLength="81" x="1049.5" y="1557.8496">ProcessDate</text></g><!--entity ProcessStatus--><g id="elem_ProcessStatus"><rect fill="#F0FFDD" height="43.2422" rx="2.5" ry="2.5" style="stroke:#000000;stroke-width:0.5;" width="117" x="1031.5" y="1421.1211"/><text fill="#000000" font-family="sans-serif" font-size="14" font-style="italic" lengthAdjust="spacing" textLength="97" x="1041.5" y="1439.2285">&#171;Value Object&#187;</text><text fill="#000000" font-family="sans-serif" font-size="14" lengthAdjust="spacing" textLength="91" x="1044.5" y="1457.8496">ProcessStatus</text></g><!--class InterviewModel--><g id="elem_InterviewModel"><rect codeLine="162" fill="#F0FFFF" height="68.543" id="InterviewModel" rx="2.5" ry="2.5" style="stroke:#000000;stroke-width:0.5;" width="125" x="23" y="503.1211"/><ellipse cx="38" cy="533.3926" fill="#ADD1B2" rx="11" ry="11" style="stroke:#181818;stroke-width:1.0;"/><path d="M36.8594,534.1895 L36.8594,536.6895 L41.1875,536.6895 L41.1875,535.7676 Q41.1875,535.1582 41.4219,534.8926 Q41.6719,534.627 42.0469,534.627 Q42.4219,534.627 42.6563,534.8926 Q42.8906,535.1582 42.8906,535.7676 L42.8906,538.3926 L34.8906,538.3926 Q34.2656,538.3926 34,538.1582 Q33.75,537.9238 33.75,537.5332 Q33.75,537.1582 34.0156,536.9238 Q34.2813,536.6895 34.8906,536.6895 L35.1563,536.6895 L35.1563,530.0332 L34.8906,530.0332 Q34.2656,530.0332 34,529.7988 Q33.75,529.5645 33.75,529.1738 Q33.75,528.7988 34,528.5645 Q34.2656,528.3301 34.8906,528.3301 L42.5156,528.3301 L42.5156,530.9238 Q42.5156,531.5332 42.2813,531.7988 Q42.0625,532.0488 41.6719,532.0488 Q41.2969,532.0488 41.0625,531.7988 Q40.8281,531.5332 40.8281,530.9238 L40.8281,530.0332 L36.8594,530.0332 L36.8594,532.4863 L38.3438,532.4863 Q38.3438,531.8301 38.4688,531.6426 Q38.7344,531.2363 39.2031,531.2363 Q39.5781,531.2363 39.8125,531.502 Q40.0469,531.752 40.0469,532.3613 L40.0469,534.3301 Q40.0469,534.877 39.9219,535.0645 Q39.6563,535.4551 39.2031,535.4551 Q38.7344,535.4551 38.4688,535.0488 Q38.3438,534.8613 38.3438,534.1895 L36.8594,534.1895 Z " fill="#000000"/><text fill="#000000" font-family="sans-serif" font-size="12" font-style="italic" lengthAdjust="spacing" textLength="43" x="77" y="521.0703">&#171;entity&#187;</text><text fill="#000000" font-family="sans-serif" font-size="12" font-style="italic" lengthAdjust="spacing" textLength="35" x="81" y="537.0313">&#171;root&#187;</text><text fill="#000000" font-family="sans-serif" font-size="14" lengthAdjust="spacing" textLength="93" x="52" y="555.1504">InterviewModel</text><line style="stroke:#000000;stroke-width:0.5;" x1="24" x2="147" y1="563.6641" y2="563.6641"/></g><!--entity Plugin--><g id="elem_Plugin"><rect fill="#F0FFDD" height="43.2422" rx="2.5" ry="2.5" style="stroke:#000000;stroke-width:0.5;" width="117" x="263.5" y="506.1211"/><text fill="#000000" font-family="sans-serif" font-size="14" font-style="italic" lengthAdjust="spacing" textLength="97" x="273.5" y="524.2285">&#171;Value Object&#187;</text><text fill="#000000" font-family="sans-serif" font-size="14" lengthAdjust="spacing" textLength="39" x="302.5" y="542.8496">Plugin</text></g><!--link JobRequirementsSpecification to Requirements--><g id="link_JobRequirementsSpecification_Requirements"><path codeLine="30" d="M433.31,118.6211 C475.51,118.6211 516.02,118.6211 551.68,118.6211 " fill="none" id="JobRequirementsSpecification-to-Requirements" style="stroke:#808080;stroke-width:1.0;"/><polygon fill="#808080" points="557.68,118.6211,548.68,114.6211,552.68,118.6211,548.68,122.6211,557.68,118.6211" style="stroke:#808080;stroke-width:1.0;"/></g><!--link JobOpening to JobReference--><g id="link_JobOpening_JobReference"><path codeLine="54" d="M653.5,638.2811 C688.01,671.8411 743.6,722.8811 797.5,759.6211 C806.57,765.8011 811.4646,768.8927 821.2646,774.2027 " fill="none" id="JobOpening-to-JobReference" style="stroke:#808080;stroke-width:1.0;"/><polygon fill="#808080" points="826.54,777.0611,820.5325,769.2566,822.1439,774.6791,816.7213,776.2904,826.54,777.0611" style="stroke:#808080;stroke-width:1.0;"/></g><!--link JobOpening to TitleOrFunction--><g id="link_JobOpening_TitleOrFunction"><path codeLine="55" d="M672.13,628.2911 C717.19,649.2111 775.7379,676.3944 818.8579,696.4144 " fill="none" id="JobOpening-to-TitleOrFunction" style="stroke:#808080;stroke-width:1.0;"/><polygon fill="#808080" points="824.3,698.9411,817.8214,691.5231,819.765,696.8355,814.4525,698.7791,824.3,698.9411" style="stroke:#808080;stroke-width:1.0;"/></g><!--link JobOpening to ContractType--><g id="link_JobOpening_ContractType"><path codeLine="56" d="M672.13,611.8411 C713.43,618.2311 764.7206,626.1736 807.1806,632.7436 " fill="none" id="JobOpening-to-ContractType" style="stroke:#808080;stroke-width:1.0;"/><polygon fill="#808080" points="813.11,633.6611,804.8275,628.3319,808.1688,632.8965,803.6042,636.2378,813.11,633.6611" style="stroke:#808080;stroke-width:1.0;"/></g><!--link JobOpening to Mode--><g id="link_JobOpening_Mode"><path codeLine="57" d="M672.13,595.4011 C713.43,589.0111 764.7206,581.0686 807.1806,574.4986 " fill="none" id="JobOpening-to-Mode" style="stroke:#808080;stroke-width:1.0;"/><polygon fill="#808080" points="813.11,573.5811,803.6042,571.0044,808.1688,574.3457,804.8275,578.9103,813.11,573.5811" style="stroke:#808080;stroke-width:1.0;"/></g><!--link JobOpening to Address--><g id="link_JobOpening_Address"><path codeLine="58" d="M672.13,578.9511 C717.19,558.0311 775.7379,530.8478 818.8579,510.8278 " fill="none" id="JobOpening-to-Address" style="stroke:#808080;stroke-width:1.0;"/><polygon fill="#808080" points="824.3,508.3011,814.4525,508.4631,819.765,510.4067,817.8214,515.7191,824.3,508.3011" style="stroke:#808080;stroke-width:1.0;"/></g><!--link JobOpening to VacanciesNumber--><g id="link_JobOpening_VacanciesNumber"><path codeLine="59" d="M653.57,569.0711 C688.15,535.6011 743.77,484.6211 797.5,447.6211 C806.42,441.4811 811.1581,438.4458 820.8381,433.1858 " fill="none" id="JobOpening-to-VacanciesNumber" style="stroke:#808080;stroke-width:1.0;"/><polygon fill="#808080" points="826.11,430.3211,816.2923,431.1035,821.7167,432.7084,820.1119,438.1328,826.11,430.3211" style="stroke:#808080;stroke-width:1.0;"/></g><!--link JobOpening to Description--><g id="link_JobOpening_Description"><path codeLine="60" d="M638.74,568.8311 C668.14,519.4611 727.54,428.5311 797.5,369.6211 C805.23,363.1111 809.0188,360.1973 818.0088,355.1073 " fill="none" id="JobOpening-to-Description" style="stroke:#808080;stroke-width:1.0;"/><polygon fill="#808080" points="823.23,352.1511,813.4274,353.1045,818.879,354.6146,817.369,360.0662,823.23,352.1511" style="stroke:#808080;stroke-width:1.0;"/></g><!--link JobOpening to ActiveSince--><g id="link_JobOpening_ActiveSince"><path codeLine="61" d="M630.38,568.7311 C652.71,505.3011 708.05,370.4011 797.5,291.6211 C804.87,285.1311 808.3075,282.3201 817.0275,277.3101 " fill="none" id="JobOpening-to-ActiveSince" style="stroke:#808080;stroke-width:1.0;"/><polygon fill="#808080" points="822.23,274.3211,812.4336,275.3363,817.8946,276.812,816.419,282.273,822.23,274.3211" style="stroke:#808080;stroke-width:1.0;"/></g><!--link Application to ApplicationFiles--><g id="link_Application_ApplicationFiles"><path codeLine="90" d="M904.41,1032.1811 C928.69,1057.4111 964.11,1091.1711 1000,1114.6211 C1009.89,1121.0811 1015.5763,1124.3979 1026.5363,1129.4779 " fill="none" id="Application-to-ApplicationFiles" style="stroke:#808080;stroke-width:1.0;"/><polygon fill="#808080" points="1031.98,1132.0011,1025.4966,1124.5872,1027.4436,1129.8985,1022.1324,1131.8455,1031.98,1132.0011" style="stroke:#808080;stroke-width:1.0;"/></g><!--link Application to Status--><g id="link_Application_Status"><path codeLine="91" d="M922.55,1015.5111 C954.94,1027.2111 991.7064,1040.494 1025.6164,1052.734 " fill="none" id="Application-to-Status" style="stroke:#808080;stroke-width:1.0;"/><polygon fill="#808080" points="1031.26,1054.7711,1024.1527,1047.9531,1026.557,1053.0735,1021.4365,1055.4779,1031.26,1054.7711" style="stroke:#808080;stroke-width:1.0;"/></g><!--link Application to SubmissionDate--><g id="link_Application_SubmissionDate"><path codeLine="92" d="M922.55,997.6211 C954.19,997.6211 989.4,997.6211 1022.9,997.6211 " fill="none" id="Application-to-SubmissionDate" style="stroke:#808080;stroke-width:1.0;"/><polygon fill="#808080" points="1028.9,997.6211,1019.9,993.6211,1023.9,997.6211,1019.9,1001.6211,1028.9,997.6211" style="stroke:#808080;stroke-width:1.0;"/></g><!--link Application to Rank--><g id="link_Application_Rank"><path codeLine="93" d="M922.55,979.7311 C954.94,968.0311 991.7064,954.7482 1025.6164,942.5082 " fill="none" id="Application-to-Rank" style="stroke:#808080;stroke-width:1.0;"/><polygon fill="#808080" points="1031.26,940.4711,1021.4365,939.7643,1026.557,942.1687,1024.1527,947.2891,1031.26,940.4711" style="stroke:#808080;stroke-width:1.0;"/></g><!--link Customer to EmailAddress--><g id="link_Customer_EmailAddress"><path codeLine="119" d="M918.54,1287.6211 C951.34,1287.6211 989.85,1287.6211 1025.17,1287.6211 " fill="none" id="Customer-to-EmailAddress" style="stroke:#808080;stroke-width:1.0;"/><polygon fill="#808080" points="1031.17,1287.6211,1022.17,1283.6211,1026.17,1287.6211,1022.17,1291.6211,1031.17,1287.6211" style="stroke:#808080;stroke-width:1.0;"/></g><!--link Process to ProcessState--><g id="link_Process_ProcessState"><path codeLine="132" d="M908.67,1502.4611 C953.6,1546.3611 1025.1577,1616.2587 1062.5377,1652.7687 " fill="none" id="Process-to-ProcessState" style="stroke:#808080;stroke-width:1.0;"/><polygon fill="#808080" points="1066.83,1656.9611,1063.1865,1647.811,1063.2531,1653.4674,1057.5966,1653.534,1066.83,1656.9611" style="stroke:#808080;stroke-width:1.0;"/></g><!--link Process to ProcessDate--><g id="link_Process_ProcessDate"><path codeLine="133" d="M913.63,1481.7311 C946.87,1493.2711 988.622,1507.7629 1025.772,1520.6629 " fill="none" id="Process-to-ProcessDate" style="stroke:#808080;stroke-width:1.0;"/><polygon fill="#808080" points="1031.44,1522.6311,1024.2501,1515.9002,1026.7167,1520.991,1021.6259,1523.4575,1031.44,1522.6311" style="stroke:#808080;stroke-width:1.0;"/></g><!--link Process to ProcessStatus--><g id="link_Process_ProcessStatus"><path codeLine="134" d="M913.63,1462.9211 C946.87,1459.0711 988.3298,1454.271 1025.4798,1449.971 " fill="none" id="Process-to-ProcessStatus" style="stroke:#808080;stroke-width:1.0;"/><polygon fill="#808080" points="1031.44,1449.2811,1022.0398,1446.3424,1026.4732,1449.856,1022.9596,1454.2894,1031.44,1449.2811" style="stroke:#808080;stroke-width:1.0;"/></g><!--link InterviewModel to Plugin--><g id="link_InterviewModel_Plugin"><path codeLine="167" d="M148.11,534.9911 C183.8,533.4711 222.4454,531.8264 257.4254,530.3364 " fill="none" id="InterviewModel-to-Plugin" style="stroke:#808080;stroke-width:1.0;"/><polygon fill="#808080" points="263.42,530.0811,254.2579,526.4677,258.4245,530.2939,254.5984,534.4605,263.42,530.0811" style="stroke:#808080;stroke-width:1.0;"/></g><!--reverse link JobOpening to Application--><g id="link_JobOpening_Application"><path codeLine="172" d="M639.5298,643.6935 C657.1398,677.5335 682.61,724.7811 710,768.6211 C754.42,839.7211 812.08,918.9811 844.96,963.1211 " fill="none" id="JobOpening-backto-Application" style="stroke:#808080;stroke-width:1.0;"/><polygon fill="#808080" points="636.76,638.3711,637.3663,648.2013,639.0681,642.8065,644.4629,644.5083,636.76,638.3711" style="stroke:#808080;stroke-width:1.0;"/><text fill="#000000" font-family="sans-serif" font-size="13" lengthAdjust="spacing" textLength="21" x="732" y="764.6494">has</text><text fill="#000000" font-family="sans-serif" font-size="13" lengthAdjust="spacing" textLength="7" x="632.2874" y="659.6246">1</text><text fill="#000000" font-family="sans-serif" font-size="13" lengthAdjust="spacing" textLength="9" x="825.3568" y="951.7574">N</text></g><!--link JobOpening to Customer--><g id="link_JobOpening_Customer"><path codeLine="173" d="M625.03,638.4111 C642.2,731.9611 696.68,995.1411 797.5,1191.6211 C808.71,1213.4711 821.1991,1230.7833 835.6091,1248.1533 " fill="none" id="JobOpening-to-Customer" style="stroke:#808080;stroke-width:1.0;"/><polygon fill="#808080" points="839.44,1252.7711,836.7722,1243.2904,836.2476,1248.9229,830.6151,1248.3983,839.44,1252.7711" style="stroke:#808080;stroke-width:1.0;"/><text fill="#000000" font-family="sans-serif" font-size="13" lengthAdjust="spacing" textLength="63" x="711" y="985.6494">associated</text><text fill="#000000" font-family="sans-serif" font-size="13" lengthAdjust="spacing" textLength="9" x="616.449" y="659.6713">N</text><text fill="#000000" font-family="sans-serif" font-size="13" lengthAdjust="spacing" textLength="7" x="825.7914" y="1241.8757">1</text></g><!--link JobOpening to Process--><g id="link_JobOpening_Process"><path codeLine="174" d="M621.9,638.1511 C629.76,724.3211 654.72,955.1811 710,1139.6211 C737.74,1232.1711 754.08,1252.3111 797.5,1338.6211 C813.95,1371.3211 831.6919,1402.2748 846.9719,1427.9548 " fill="none" id="JobOpening-to-Process" style="stroke:#808080;stroke-width:1.0;"/><polygon fill="#808080" points="850.04,1433.1111,848.8754,1423.3313,847.4833,1428.8142,842.0004,1427.4221,850.04,1433.1111" style="stroke:#808080;stroke-width:1.0;"/><text fill="#000000" font-family="sans-serif" font-size="13" lengthAdjust="spacing" textLength="7" x="623.1719" y="659.6395">1</text><text fill="#000000" font-family="sans-serif" font-size="13" lengthAdjust="spacing" textLength="7" x="838.0276" y="1421.7455">1</text></g><!--reverse link JobRequirementsSpecification to JobOpening--><g id="link_JobRequirementsSpecification_JobOpening"><path codeLine="176" d="M347.2504,158.6319 C401.5004,248.1219 542.01,479.9211 596.05,569.0611 " fill="none" id="JobRequirementsSpecification-backto-JobOpening" style="stroke:#808080;stroke-width:1.0;"/><polygon fill="#808080" points="344.14,153.5011,345.385,163.2709,346.732,157.7768,352.2261,159.1238,344.14,153.5011" style="stroke:#808080;stroke-width:1.0;"/><text fill="#000000" font-family="sans-serif" font-size="13" lengthAdjust="spacing" textLength="63" x="464" y="357.6494">associated</text><text fill="#000000" font-family="sans-serif" font-size="13" lengthAdjust="spacing" textLength="7" x="340.2272" y="174.7762">1</text><text fill="#000000" font-family="sans-serif" font-size="13" lengthAdjust="spacing" textLength="9" x="582.008" y="557.9524">N</text></g><!--reverse link InterviewModel to JobOpening--><g id="link_InterviewModel_JobOpening"><path codeLine="178" d="M153.5193,574.206 C166.0693,579.806 173.96,582.3811 187,585.6211 C319.33,618.5211 481.52,613.6611 563.74,608.1611 " fill="none" id="InterviewModel-backto-JobOpening" style="stroke:#808080;stroke-width:1.0;"/><polygon fill="#808080" points="148.04,571.7611,154.6289,579.0813,152.6061,573.7985,157.8888,571.7756,148.04,571.7611" style="stroke:#808080;stroke-width:1.0;"/><text fill="#000000" font-family="sans-serif" font-size="13" lengthAdjust="spacing" textLength="28" x="308" y="581.6494">uses</text><text fill="#000000" font-family="sans-serif" font-size="13" lengthAdjust="spacing" textLength="7" x="151.9255" y="593.7201">1</text><text fill="#000000" font-family="sans-serif" font-size="13" lengthAdjust="spacing" textLength="9" x="546.8441" y="623.9919">N</text></g><!--SRC=[fLVFRziW5Bxxhq3UOQT8sxMA8gN9MdNgsggfTYVmxB0Iy02lYwRzxtjWEy4kSHBDbyIyxps-znEy4Hp85jn6Svj9A1nncXXHRXpXmW1pGglietqLggA6ReaK2jok0g8DwcJPYt0IIBxKMoeK-QOvo3pB3dWcgRNaJqRmkHS5tAF-jJOSp49BRSYIcjThMKCVGDbhQNIjU0EQFptTtotcBtUF3m4tb7-u-NI3Jv3DZT5lpN9fODVWemtN4fMplp772bTe2IktGrUyprIL4dfUKCD7dBWr0Eh_FLWkXnxuwDoclBZkl6Yva_ohNfDd-5bZqhQWd2Mh2fWe1AC-XMHUOZHAwY3_aw5Ok1r1ZLYXZvzE6zHiDfqQhTribWKIhMvlfmEsmOmQdancFUtidHUF5IYXoYEKE-anWY5LWK411XG3H7wdM67aSVq3SpkRjOdyUu278duqDxLYhVEdD1PQEKEPU_6jS1hk- -8Cs9np0zQUWVnE6LLCW7sejsimPsWimJ8ZgZFzcsCWVi5AfEBNWRjSTndncOq3dv8F8fs2nA5DoNqiK-jjy5AYGRHIa2WyIUE7U3H-A-sWdPEwUC_PFmkgo1e7fG8FSHiWXPPIlw7DgpreGefQoeaJMuZMSEgumnee7lPBxRoFnlbRedtiFMylMjdiraRmU4KhAzoGGDohywgI8-Cb5eysQmIy4HBiqOBRQwmSTVKvk7gz5TQYuILIEur_fkfrlDnZfq9T3BWdGGtTjAZ7C0dnf5APZwnUK6tMR-WSyBZQCBy8YrOeOr3rGHoOF_lvoOfCXkG2XWv-ErAW9daJRXDm3Dihd3Ij7k1bGyOjvD457ej0sQPveyxXV-3-EfDIER7BVndYrD6EAesoIJ5gE8Yuu7IqiHQrTNgBKptHLNlPQ4jzyIIFdIQzWjxRywKMg_KOFHdDlAa4eKuqogS5-P8zvnniuSkBq2U6GlZfo7fdOqx7XCiHMTj_YGuOAbzG_56ve7tZUZOcPCNyJHDrKi8xB5_pIy2RJKddYigT5KdPCzXQkhvahCNVXUu23wFna78iwK_2ZNViBo5z-TZqTu7eTI6r7OGfRfSzy-Q3ADKsUqY36EyUMPTYvDOMVWO6Gw46lJ1RikW-at_EoNGo8Va3oNkdpHNPKDj3FkJ1aDVO3uehWbzqcWdgpuS8750TkWrssFVujy21IHvVk7exP0F7Mfs4KctniFa7]--></g></svg>