<?xml version="1.0" encoding="us-ascii" standalone="no"?><svg xmlns="http://www.w3.org/2000/svg" xmlns:xlink="http://www.w3.org/1999/xlink" contentStyleType="text/css" height="944px" preserveAspectRatio="none" style="width:1756px;height:944px;background:#FFFFFF;" version="1.1" viewBox="0 0 1756 944" width="1756px" zoomAndPan="magnify"><defs/><g><text fill="#000000" font-family="sans-serif" font-size="14" font-weight="bold" lengthAdjust="spacing" textLength="219" x="770" y="30.1074">List Job Openings by Customer</text><rect fill="#FFFFFF" height="698.6934" style="stroke:#181818;stroke-width:1.0;" width="10" x="33.5" y="137.8633"/><rect fill="#FFFFFF" height="675.4023" style="stroke:#181818;stroke-width:1.0;" width="10" x="279.5" y="161.1543"/><rect fill="#FFFFFF" height="586.5293" style="stroke:#181818;stroke-width:1.0;" width="10" x="595.5" y="192.4453"/><rect fill="#FFFFFF" height="523.9473" style="stroke:#181818;stroke-width:1.0;" width="10" x="911.5" y="223.7363"/><rect fill="#FFFFFF" height="93.873" style="stroke:#181818;stroke-width:1.0;" width="10" x="1092.5" y="334.9004"/><rect fill="#FFFFFF" height="31.291" style="stroke:#181818;stroke-width:1.0;" width="10" x="1254.5" y="486.3555"/><rect fill="#FFFFFF" height="31.291" style="stroke:#181818;stroke-width:1.0;" width="10" x="1254.5" y="671.1016"/><rect fill="#FFFFFF" height="31.291" style="stroke:#181818;stroke-width:1.0;" width="10" x="1408" y="582.2285"/><rect fill="#FFFFFF" height="48.582" style="stroke:#181818;stroke-width:1.0;" width="10" x="1534" y="255.0273"/><rect fill="#FFFFFF" height="31.291" style="stroke:#181818;stroke-width:1.0;" width="10" x="1675" y="366.1914"/><rect fill="none" height="81.873" style="stroke:#000000;stroke-width:1.5;" width="549" x="804" y="443.7734"/><rect fill="none" height="177.7461" style="stroke:#000000;stroke-width:1.5;" width="689" x="794" y="539.6465"/><rect fill="none" height="81.873" style="stroke:#000000;stroke-width:1.5;" width="549" x="804" y="628.5195"/><line style="stroke:#181818;stroke-width:0.5;stroke-dasharray:5.0,5.0;" x1="38" x2="38" y1="127.8633" y2="845.5566"/><line style="stroke:#181818;stroke-width:0.5;stroke-dasharray:5.0,5.0;" x1="284.5" x2="284.5" y1="127.8633" y2="845.5566"/><line style="stroke:#181818;stroke-width:0.5;stroke-dasharray:5.0,5.0;" x1="600.5" x2="600.5" y1="127.8633" y2="845.5566"/><line style="stroke:#181818;stroke-width:0.5;stroke-dasharray:5.0,5.0;" x1="916" x2="916" y1="127.8633" y2="845.5566"/><line style="stroke:#181818;stroke-width:0.5;stroke-dasharray:5.0,5.0;" x1="1097" x2="1097" y1="127.8633" y2="845.5566"/><line style="stroke:#181818;stroke-width:0.5;stroke-dasharray:5.0,5.0;" x1="1259" x2="1259" y1="127.8633" y2="845.5566"/><line style="stroke:#181818;stroke-width:0.5;stroke-dasharray:5.0,5.0;" x1="1413" x2="1413" y1="127.8633" y2="845.5566"/><line style="stroke:#181818;stroke-width:0.5;stroke-dasharray:5.0,5.0;" x1="1539" x2="1539" y1="127.8633" y2="845.5566"/><line style="stroke:#181818;stroke-width:0.5;stroke-dasharray:5.0,5.0;" x1="1680" x2="1680" y1="127.8633" y2="845.5566"/><text fill="#000000" font-family="sans-serif" font-size="14" lengthAdjust="spacing" textLength="61" x="5" y="124.3496">Customer</text><ellipse cx="38.5" cy="57.7422" fill="#E2E2F0" rx="8" ry="8" style="stroke:#181818;stroke-width:0.5;"/><path d="M38.5,65.7422 L38.5,92.7422 M25.5,73.7422 L51.5,73.7422 M38.5,92.7422 L25.5,107.7422 M38.5,92.7422 L51.5,107.7422 " fill="none" style="stroke:#181818;stroke-width:0.5;"/><text fill="#000000" font-family="sans-serif" font-size="14" lengthAdjust="spacing" textLength="61" x="5" y="859.6641">Customer</text><ellipse cx="38.5" cy="871.6777" fill="#E2E2F0" rx="8" ry="8" style="stroke:#181818;stroke-width:0.5;"/><path d="M38.5,879.6777 L38.5,906.6777 M25.5,887.6777 L51.5,887.6777 M38.5,906.6777 L25.5,921.6777 M38.5,906.6777 L51.5,921.6777 " fill="none" style="stroke:#181818;stroke-width:0.5;"/><rect fill="#E2E2F0" height="51.2422" rx="2.5" ry="2.5" style="stroke:#181818;stroke-width:0.5;" width="192" x="188.5" y="75.6211"/><text fill="#000000" font-family="sans-serif" font-size="14" font-style="italic" lengthAdjust="spacing" textLength="95" x="237" y="97.7285">&#171;presentation&#187;</text><text fill="#000000" font-family="sans-serif" font-size="14" lengthAdjust="spacing" textLength="178" x="195.5" y="116.3496">ListCustomerJobOpeningsUI</text><rect fill="#E2E2F0" height="51.2422" rx="2.5" ry="2.5" style="stroke:#181818;stroke-width:0.5;" width="192" x="188.5" y="844.5566"/><text fill="#000000" font-family="sans-serif" font-size="14" font-style="italic" lengthAdjust="spacing" textLength="95" x="237" y="866.6641">&#171;presentation&#187;</text><text fill="#000000" font-family="sans-serif" font-size="14" lengthAdjust="spacing" textLength="178" x="195.5" y="885.2852">ListCustomerJobOpeningsUI</text><rect fill="#E2E2F0" height="51.2422" rx="2.5" ry="2.5" style="stroke:#181818;stroke-width:0.5;" width="242" x="479.5" y="75.6211"/><text fill="#000000" font-family="sans-serif" font-size="14" font-style="italic" lengthAdjust="spacing" textLength="75" x="563" y="97.7285">&#171;controller&#187;</text><text fill="#000000" font-family="sans-serif" font-size="14" lengthAdjust="spacing" textLength="228" x="486.5" y="116.3496">ListCustomerJobOpeningsController</text><rect fill="#E2E2F0" height="51.2422" rx="2.5" ry="2.5" style="stroke:#181818;stroke-width:0.5;" width="242" x="479.5" y="844.5566"/><text fill="#000000" font-family="sans-serif" font-size="14" font-style="italic" lengthAdjust="spacing" textLength="75" x="563" y="866.6641">&#171;controller&#187;</text><text fill="#000000" font-family="sans-serif" font-size="14" lengthAdjust="spacing" textLength="228" x="486.5" y="885.2852">ListCustomerJobOpeningsController</text><rect fill="#E2E2F0" height="51.2422" rx="2.5" ry="2.5" style="stroke:#181818;stroke-width:0.5;" width="205" x="814" y="75.6211"/><text fill="#000000" font-family="sans-serif" font-size="14" font-style="italic" lengthAdjust="spacing" textLength="60" x="886.5" y="97.7285">&#171;service&#187;</text><text fill="#000000" font-family="sans-serif" font-size="14" lengthAdjust="spacing" textLength="191" x="821" y="116.3496">CustomerJobOpeningsService</text><rect fill="#E2E2F0" height="51.2422" rx="2.5" ry="2.5" style="stroke:#181818;stroke-width:0.5;" width="205" x="814" y="844.5566"/><text fill="#000000" font-family="sans-serif" font-size="14" font-style="italic" lengthAdjust="spacing" textLength="60" x="886.5" y="866.6641">&#171;service&#187;</text><text fill="#000000" font-family="sans-serif" font-size="14" lengthAdjust="spacing" textLength="191" x="821" y="885.2852">CustomerJobOpeningsService</text><rect fill="#E2E2F0" height="51.2422" rx="2.5" ry="2.5" style="stroke:#181818;stroke-width:0.5;" width="137" x="1029" y="75.6211"/><text fill="#000000" font-family="sans-serif" font-size="14" font-style="italic" lengthAdjust="spacing" textLength="60" x="1067.5" y="97.7285">&#171;service&#187;</text><text fill="#000000" font-family="sans-serif" font-size="14" lengthAdjust="spacing" textLength="123" x="1036" y="116.3496">JobOpeningService</text><rect fill="#E2E2F0" height="51.2422" rx="2.5" ry="2.5" style="stroke:#181818;stroke-width:0.5;" width="137" x="1029" y="844.5566"/><text fill="#000000" font-family="sans-serif" font-size="14" font-style="italic" lengthAdjust="spacing" textLength="60" x="1067.5" y="866.6641">&#171;service&#187;</text><text fill="#000000" font-family="sans-serif" font-size="14" lengthAdjust="spacing" textLength="123" x="1036" y="885.2852">JobOpeningService</text><rect fill="#E2E2F0" height="51.2422" rx="2.5" ry="2.5" style="stroke:#181818;stroke-width:0.5;" width="167" x="1176" y="75.6211"/><text fill="#000000" font-family="sans-serif" font-size="14" font-style="italic" lengthAdjust="spacing" textLength="60" x="1229.5" y="97.7285">&#171;service&#187;</text><text fill="#000000" font-family="sans-serif" font-size="14" lengthAdjust="spacing" textLength="153" x="1183" y="116.3496">JobOpeningDTOService</text><rect fill="#E2E2F0" height="51.2422" rx="2.5" ry="2.5" style="stroke:#181818;stroke-width:0.5;" width="167" x="1176" y="844.5566"/><text fill="#000000" font-family="sans-serif" font-size="14" font-style="italic" lengthAdjust="spacing" textLength="60" x="1229.5" y="866.6641">&#171;service&#187;</text><text fill="#000000" font-family="sans-serif" font-size="14" lengthAdjust="spacing" textLength="153" x="1183" y="885.2852">JobOpeningDTOService</text><rect fill="#E2E2F0" height="51.2422" rx="2.5" ry="2.5" style="stroke:#181818;stroke-width:0.5;" width="120" x="1353" y="75.6211"/><text fill="#000000" font-family="sans-serif" font-size="14" font-style="italic" lengthAdjust="spacing" textLength="46" x="1390" y="97.7285">&#171;DTO&#187;</text><text fill="#000000" font-family="sans-serif" font-size="14" lengthAdjust="spacing" textLength="106" x="1360" y="116.3496">JobOpeningDTO</text><rect fill="#E2E2F0" height="51.2422" rx="2.5" ry="2.5" style="stroke:#181818;stroke-width:0.5;" width="120" x="1353" y="844.5566"/><text fill="#000000" font-family="sans-serif" font-size="14" font-style="italic" lengthAdjust="spacing" textLength="46" x="1390" y="866.6641">&#171;DTO&#187;</text><text fill="#000000" font-family="sans-serif" font-size="14" lengthAdjust="spacing" textLength="106" x="1360" y="885.2852">JobOpeningDTO</text><rect fill="#E2E2F0" height="51.2422" rx="2.5" ry="2.5" style="stroke:#181818;stroke-width:0.5;" width="112" x="1483" y="75.6211"/><text fill="#000000" font-family="sans-serif" font-size="14" font-style="italic" lengthAdjust="spacing" textLength="67" x="1505.5" y="97.7285">&#171;protocol&#187;</text><text fill="#000000" font-family="sans-serif" font-size="14" lengthAdjust="spacing" textLength="98" x="1490" y="116.3496">Jobs4UProtocol</text><rect fill="#E2E2F0" height="51.2422" rx="2.5" ry="2.5" style="stroke:#181818;stroke-width:0.5;" width="112" x="1483" y="844.5566"/><text fill="#000000" font-family="sans-serif" font-size="14" font-style="italic" lengthAdjust="spacing" textLength="67" x="1505.5" y="866.6641">&#171;protocol&#187;</text><text fill="#000000" font-family="sans-serif" font-size="14" lengthAdjust="spacing" textLength="98" x="1490" y="885.2852">Jobs4UProtocol</text><text fill="#000000" font-family="sans-serif" font-size="14" font-style="italic" lengthAdjust="spacing" textLength="79" x="1637.5" y="105.7285">&#171;repository&#187;</text><text fill="#000000" font-family="sans-serif" font-size="14" lengthAdjust="spacing" textLength="144" x="1605" y="124.3496">JobOpeningRepository</text><path d="M1662,54.6211 C1662,44.6211 1680,44.6211 1680,44.6211 C1680,44.6211 1698,44.6211 1698,54.6211 L1698,80.6211 C1698,90.6211 1680,90.6211 1680,90.6211 C1680,90.6211 1662,90.6211 1662,80.6211 L1662,54.6211 " fill="#E2E2F0" style="stroke:#181818;stroke-width:1.5;"/><path d="M1662,54.6211 C1662,64.6211 1680,64.6211 1680,64.6211 C1680,64.6211 1698,64.6211 1698,54.6211 " fill="none" style="stroke:#181818;stroke-width:1.5;"/><text fill="#000000" font-family="sans-serif" font-size="14" font-style="italic" lengthAdjust="spacing" textLength="79" x="1637.5" y="859.6641">&#171;repository&#187;</text><text fill="#000000" font-family="sans-serif" font-size="14" lengthAdjust="spacing" textLength="144" x="1605" y="878.2852">JobOpeningRepository</text><path d="M1662,891.7988 C1662,881.7988 1680,881.7988 1680,881.7988 C1680,881.7988 1698,881.7988 1698,891.7988 L1698,917.7988 C1698,927.7988 1680,927.7988 1680,927.7988 C1680,927.7988 1662,927.7988 1662,917.7988 L1662,891.7988 " fill="#E2E2F0" style="stroke:#181818;stroke-width:1.5;"/><path d="M1662,891.7988 C1662,901.7988 1680,901.7988 1680,901.7988 C1680,901.7988 1698,901.7988 1698,891.7988 " fill="none" style="stroke:#181818;stroke-width:1.5;"/><rect fill="#FFFFFF" height="698.6934" style="stroke:#181818;stroke-width:1.0;" width="10" x="33.5" y="137.8633"/><rect fill="#FFFFFF" height="675.4023" style="stroke:#181818;stroke-width:1.0;" width="10" x="279.5" y="161.1543"/><rect fill="#FFFFFF" height="586.5293" style="stroke:#181818;stroke-width:1.0;" width="10" x="595.5" y="192.4453"/><rect fill="#FFFFFF" height="523.9473" style="stroke:#181818;stroke-width:1.0;" width="10" x="911.5" y="223.7363"/><rect fill="#FFFFFF" height="93.873" style="stroke:#181818;stroke-width:1.0;" width="10" x="1092.5" y="334.9004"/><rect fill="#FFFFFF" height="31.291" style="stroke:#181818;stroke-width:1.0;" width="10" x="1254.5" y="486.3555"/><rect fill="#FFFFFF" height="31.291" style="stroke:#181818;stroke-width:1.0;" width="10" x="1254.5" y="671.1016"/><rect fill="#FFFFFF" height="31.291" style="stroke:#181818;stroke-width:1.0;" width="10" x="1408" y="582.2285"/><rect fill="#FFFFFF" height="48.582" style="stroke:#181818;stroke-width:1.0;" width="10" x="1534" y="255.0273"/><rect fill="#FFFFFF" height="31.291" style="stroke:#181818;stroke-width:1.0;" width="10" x="1675" y="366.1914"/><polygon fill="#181818" points="267.5,157.1543,277.5,161.1543,267.5,165.1543,271.5,161.1543" style="stroke:#181818;stroke-width:1.0;"/><line style="stroke:#181818;stroke-width:1.0;" x1="43.5" x2="273.5" y1="161.1543" y2="161.1543"/><text fill="#000000" font-family="sans-serif" font-size="13" font-weight="bold" lengthAdjust="spacing" textLength="7" x="50.5" y="155.8916">1</text><text fill="#000000" font-family="sans-serif" font-size="13" lengthAdjust="spacing" textLength="193" x="61.5" y="155.8916">asks to list all of his job openings</text><polygon fill="#181818" points="583.5,188.4453,593.5,192.4453,583.5,196.4453,587.5,192.4453" style="stroke:#181818;stroke-width:1.0;"/><line style="stroke:#181818;stroke-width:1.0;" x1="289.5" x2="589.5" y1="192.4453" y2="192.4453"/><text fill="#000000" font-family="sans-serif" font-size="13" font-weight="bold" lengthAdjust="spacing" textLength="7" x="296.5" y="187.1826">2</text><text fill="#000000" font-family="sans-serif" font-size="13" lengthAdjust="spacing" textLength="198" x="307.5" y="187.1826">sendCustomerJobOpenings(email)</text><polygon fill="#181818" points="899.5,219.7363,909.5,223.7363,899.5,227.7363,903.5,223.7363" style="stroke:#181818;stroke-width:1.0;"/><line style="stroke:#181818;stroke-width:1.0;" x1="605.5" x2="905.5" y1="223.7363" y2="223.7363"/><text fill="#000000" font-family="sans-serif" font-size="13" font-weight="bold" lengthAdjust="spacing" textLength="7" x="612.5" y="218.4736">3</text><text fill="#000000" font-family="sans-serif" font-size="13" lengthAdjust="spacing" textLength="157" x="623.5" y="218.4736">requestJobOpenings(email)</text><polygon fill="#181818" points="1522,251.0273,1532,255.0273,1522,259.0273,1526,255.0273" style="stroke:#181818;stroke-width:1.0;"/><line style="stroke:#181818;stroke-width:1.0;" x1="921.5" x2="1528" y1="255.0273" y2="255.0273"/><text fill="#000000" font-family="sans-serif" font-size="13" font-weight="bold" lengthAdjust="spacing" textLength="7" x="928.5" y="249.7646">4</text><text fill="#000000" font-family="sans-serif" font-size="13" lengthAdjust="spacing" textLength="142" x="939.5" y="249.7646">sendJobOpenings(email)</text><polygon fill="#181818" points="932.5,299.6094,922.5,303.6094,932.5,307.6094,928.5,303.6094" style="stroke:#181818;stroke-width:1.0;"/><line style="stroke:#181818;stroke-width:1.0;stroke-dasharray:2.0,2.0;" x1="926.5" x2="1538" y1="303.6094" y2="303.6094"/><text fill="#000000" font-family="sans-serif" font-size="13" font-weight="bold" lengthAdjust="spacing" textLength="7" x="938.5" y="289.7012">5</text><text fill="#000000" font-family="sans-serif" font-size="13" lengthAdjust="spacing" textLength="208" x="949.5" y="281.0557">list of all job openings of a customer</text><text fill="#000000" font-family="sans-serif" font-size="13" lengthAdjust="spacing" textLength="131" x="953.5" y="298.3467">and operation success</text><polygon fill="#181818" points="1080.5,330.9004,1090.5,334.9004,1080.5,338.9004,1084.5,334.9004" style="stroke:#181818;stroke-width:1.0;"/><line style="stroke:#181818;stroke-width:1.0;" x1="921.5" x2="1086.5" y1="334.9004" y2="334.9004"/><text fill="#000000" font-family="sans-serif" font-size="13" font-weight="bold" lengthAdjust="spacing" textLength="7" x="928.5" y="329.6377">6</text><text fill="#000000" font-family="sans-serif" font-size="13" lengthAdjust="spacing" textLength="96" x="939.5" y="329.6377">allJobOpenings()</text><polygon fill="#181818" points="1663,362.1914,1673,366.1914,1663,370.1914,1667,366.1914" style="stroke:#181818;stroke-width:1.0;"/><line style="stroke:#181818;stroke-width:1.0;" x1="1102.5" x2="1669" y1="366.1914" y2="366.1914"/><text fill="#000000" font-family="sans-serif" font-size="13" font-weight="bold" lengthAdjust="spacing" textLength="7" x="1109.5" y="360.9287">7</text><text fill="#000000" font-family="sans-serif" font-size="13" lengthAdjust="spacing" textLength="96" x="1120.5" y="360.9287">allJobOpenings()</text><polygon fill="#181818" points="1113.5,393.4824,1103.5,397.4824,1113.5,401.4824,1109.5,397.4824" style="stroke:#181818;stroke-width:1.0;"/><line style="stroke:#181818;stroke-width:1.0;stroke-dasharray:2.0,2.0;" x1="1107.5" x2="1679" y1="397.4824" y2="397.4824"/><text fill="#000000" font-family="sans-serif" font-size="13" font-weight="bold" lengthAdjust="spacing" textLength="7" x="1119.5" y="392.2197">8</text><text fill="#000000" font-family="sans-serif" font-size="13" lengthAdjust="spacing" textLength="90" x="1130.5" y="392.2197">all job openings</text><polygon fill="#181818" points="932.5,424.7734,922.5,428.7734,932.5,432.7734,928.5,428.7734" style="stroke:#181818;stroke-width:1.0;"/><line style="stroke:#181818;stroke-width:1.0;stroke-dasharray:2.0,2.0;" x1="926.5" x2="1096.5" y1="428.7734" y2="428.7734"/><text fill="#000000" font-family="sans-serif" font-size="13" font-weight="bold" lengthAdjust="spacing" textLength="7" x="938.5" y="423.5107">9</text><text fill="#000000" font-family="sans-serif" font-size="13" lengthAdjust="spacing" textLength="90" x="949.5" y="423.5107">all job openings</text><path d="M804,443.7734 L877,443.7734 L877,453.0645 L867,463.0645 L804,463.0645 L804,443.7734 " fill="#EEEEEE" style="stroke:#000000;stroke-width:1.5;"/><rect fill="none" height="81.873" style="stroke:#000000;stroke-width:1.5;" width="549" x="804" y="443.7734"/><text fill="#000000" font-family="sans-serif" font-size="13" font-weight="bold" lengthAdjust="spacing" textLength="28" x="819" y="458.8018">loop</text><text fill="#000000" font-family="sans-serif" font-size="11" font-weight="bold" lengthAdjust="spacing" textLength="179" x="892" y="457.6436">[for each job opening on the list]</text><polygon fill="#181818" points="1242.5,482.3555,1252.5,486.3555,1242.5,490.3555,1246.5,486.3555" style="stroke:#181818;stroke-width:1.0;"/><line style="stroke:#181818;stroke-width:1.0;" x1="921.5" x2="1248.5" y1="486.3555" y2="486.3555"/><text fill="#000000" font-family="sans-serif" font-size="13" font-weight="bold" lengthAdjust="spacing" textLength="14" x="928.5" y="481.0928">10</text><text fill="#000000" font-family="sans-serif" font-size="13" lengthAdjust="spacing" textLength="110" x="946.5" y="481.0928">toDTO(jobOpening)</text><polygon fill="#181818" points="932.5,513.6465,922.5,517.6465,932.5,521.6465,928.5,517.6465" style="stroke:#181818;stroke-width:1.0;"/><line style="stroke:#181818;stroke-width:1.0;stroke-dasharray:2.0,2.0;" x1="926.5" x2="1258.5" y1="517.6465" y2="517.6465"/><text fill="#000000" font-family="sans-serif" font-size="13" font-weight="bold" lengthAdjust="spacing" textLength="14" x="938.5" y="512.3838">11</text><text fill="#000000" font-family="sans-serif" font-size="13" lengthAdjust="spacing" textLength="94" x="956.5" y="512.3838">JobOpeningDTO</text><path d="M794,539.6465 L867,539.6465 L867,548.9375 L857,558.9375 L794,558.9375 L794,539.6465 " fill="#EEEEEE" style="stroke:#000000;stroke-width:1.5;"/><rect fill="none" height="177.7461" style="stroke:#000000;stroke-width:1.5;" width="689" x="794" y="539.6465"/><text fill="#000000" font-family="sans-serif" font-size="13" font-weight="bold" lengthAdjust="spacing" textLength="28" x="809" y="554.6748">loop</text><text fill="#000000" font-family="sans-serif" font-size="11" font-weight="bold" lengthAdjust="spacing" textLength="200" x="882" y="553.5166">[for each job opening dto on the list]</text><polygon fill="#181818" points="1396,578.2285,1406,582.2285,1396,586.2285,1400,582.2285" style="stroke:#181818;stroke-width:1.0;"/><line style="stroke:#181818;stroke-width:1.0;" x1="921.5" x2="1402" y1="582.2285" y2="582.2285"/><text fill="#000000" font-family="sans-serif" font-size="13" font-weight="bold" lengthAdjust="spacing" textLength="14" x="928.5" y="576.9658">12</text><text fill="#000000" font-family="sans-serif" font-size="13" lengthAdjust="spacing" textLength="50" x="946.5" y="576.9658">identity()</text><polygon fill="#181818" points="932.5,609.5195,922.5,613.5195,932.5,617.5195,928.5,613.5195" style="stroke:#181818;stroke-width:1.0;"/><line style="stroke:#181818;stroke-width:1.0;stroke-dasharray:2.0,2.0;" x1="926.5" x2="1412" y1="613.5195" y2="613.5195"/><text fill="#000000" font-family="sans-serif" font-size="13" font-weight="bold" lengthAdjust="spacing" textLength="14" x="938.5" y="608.2568">13</text><text fill="#000000" font-family="sans-serif" font-size="13" lengthAdjust="spacing" textLength="75" x="956.5" y="608.2568">jobReference</text><path d="M804,628.5195 L865,628.5195 L865,637.8105 L855,647.8105 L804,647.8105 L804,628.5195 " fill="#EEEEEE" style="stroke:#000000;stroke-width:1.5;"/><rect fill="none" height="81.873" style="stroke:#000000;stroke-width:1.5;" width="549" x="804" y="628.5195"/><text fill="#000000" font-family="sans-serif" font-size="13" font-weight="bold" lengthAdjust="spacing" textLength="16" x="819" y="643.5479">alt</text><text fill="#000000" font-family="sans-serif" font-size="11" font-weight="bold" lengthAdjust="spacing" textLength="141" x="880" y="642.3896">[identity == jobReference]</text><polygon fill="#181818" points="1242.5,667.1016,1252.5,671.1016,1242.5,675.1016,1246.5,671.1016" style="stroke:#181818;stroke-width:1.0;"/><line style="stroke:#181818;stroke-width:1.0;" x1="921.5" x2="1248.5" y1="671.1016" y2="671.1016"/><text fill="#000000" font-family="sans-serif" font-size="13" font-weight="bold" lengthAdjust="spacing" textLength="14" x="928.5" y="665.8389">14</text><text fill="#000000" font-family="sans-serif" font-size="13" lengthAdjust="spacing" textLength="129" x="946.5" y="665.8389">findById(jobReference)</text><polygon fill="#181818" points="932.5,698.3926,922.5,702.3926,932.5,706.3926,928.5,702.3926" style="stroke:#181818;stroke-width:1.0;"/><line style="stroke:#181818;stroke-width:1.0;stroke-dasharray:2.0,2.0;" x1="926.5" x2="1258.5" y1="702.3926" y2="702.3926"/><text fill="#000000" font-family="sans-serif" font-size="13" font-weight="bold" lengthAdjust="spacing" textLength="14" x="938.5" y="697.1299">15</text><text fill="#000000" font-family="sans-serif" font-size="13" lengthAdjust="spacing" textLength="94" x="956.5" y="697.1299">JobOpeningDTO</text><polygon fill="#181818" points="616.5,743.6836,606.5,747.6836,616.5,751.6836,612.5,747.6836" style="stroke:#181818;stroke-width:1.0;"/><line style="stroke:#181818;stroke-width:1.0;stroke-dasharray:2.0,2.0;" x1="610.5" x2="915.5" y1="747.6836" y2="747.6836"/><text fill="#000000" font-family="sans-serif" font-size="13" font-weight="bold" lengthAdjust="spacing" textLength="14" x="622.5" y="742.4209">16</text><text fill="#000000" font-family="sans-serif" font-size="13" lengthAdjust="spacing" textLength="264" x="640.5" y="742.4209">List&lt;JobOpeningDTO&gt; customerJobOpenings</text><polygon fill="#181818" points="300.5,774.9746,290.5,778.9746,300.5,782.9746,296.5,778.9746" style="stroke:#181818;stroke-width:1.0;"/><line style="stroke:#181818;stroke-width:1.0;stroke-dasharray:2.0,2.0;" x1="294.5" x2="599.5" y1="778.9746" y2="778.9746"/><text fill="#000000" font-family="sans-serif" font-size="13" font-weight="bold" lengthAdjust="spacing" textLength="14" x="306.5" y="773.7119">17</text><text fill="#000000" font-family="sans-serif" font-size="13" lengthAdjust="spacing" textLength="264" x="324.5" y="773.7119">List&lt;JobOpeningDTO&gt; customerJobOpenings</text><polygon fill="#181818" points="54.5,823.5566,44.5,827.5566,54.5,831.5566,50.5,827.5566" style="stroke:#181818;stroke-width:1.0;"/><line style="stroke:#181818;stroke-width:1.0;stroke-dasharray:2.0,2.0;" x1="48.5" x2="278.5" y1="827.5566" y2="827.5566"/><text fill="#000000" font-family="sans-serif" font-size="13" font-weight="bold" lengthAdjust="spacing" textLength="14" x="60.5" y="813.6484">18</text><text fill="#000000" font-family="sans-serif" font-size="13" lengthAdjust="spacing" textLength="190" x="78.5" y="805.0029">lists all job openings of customer</text><text fill="#000000" font-family="sans-serif" font-size="13" lengthAdjust="spacing" textLength="183" x="82.5" y="822.2939">and displays operation success</text><!--SRC=[pLMnSjim3Dtr5HYTmLiddUEXwP9Uxz9BcwqBBS4rKvfKI2Xt-lj2SYn1h2ZfF7NHYHBU0nuV2AgQdAtF1_HPHfeCmZST2Bww0pnLQBNz7U3Gm4CTo9tR85MGys9TAK-wq9Mor46lVvZXIl3o2BjTvJ6W9KNQsVr-5Ux1MVBE6FICB_f5Z9v0_a3_hWjaMBYyCKP2Xj3raLz-Faq5nz7XqyjtxyWLpdIgBwyJWGCjn_7ptyHfgbAHEgY0WkSPAnSqUzDmhEyNRNJhcNvNXCAswnjizpEsvQ32dm3amBHTeOm1TuIJ3l3A3U8-0WV-95EMfPEaAn0Da0DtJpaHiy6pqkOkMonY84iM8_9nKJDzbOF7jne3pHQI9XZsVuASKqVcNyJFvXeZiYnYs2xfwVnbRrkBfRVTDoYktVBBWh9b-zTt9nb2NHGO0hSa9cjPr1gTnRojGggDX8x3EwqHmuXMd8oLp0D2aWkURRhkySc8jcMMloz-oQkLMVhzCSvLSEIfpL4dYGGsa4xOcR_U9Z48SnuDlDoyzZ-dDtI0IC62Q57p29KGBBFmUPaJNl98krKyLwDBlieqDPkat4Zdia2kxXcFwD6svQVqSJf3VNguluzmDtburBRyt3oM6ydrNndPFUQqhRn3sfZTAC- -dsq2CofhReglk4SMxjTRAhhzWcjlMs7GnzmFarC_dlcb3fLHJPWO_dy1]--></g></svg>