<?xml version="1.0" encoding="UTF-8" standalone="no"?><svg xmlns="http://www.w3.org/2000/svg" xmlns:xlink="http://www.w3.org/1999/xlink" contentStyleType="text/css" height="961px" preserveAspectRatio="none" style="width:947px;height:961px;background:#FFFFFF;" version="1.1" viewBox="0 0 947 961" width="947px" zoomAndPan="magnify"><defs/><g><text fill="#000000" font-family="sans-serif" font-size="14" font-weight="bold" lengthAdjust="spacing" textLength="100" x="416.5" y="24.5332">Domain Model</text><!--cluster Customer Manager Aggregate--><g id="cluster_Customer Manager Aggregate"><rect fill="none" height="118" rx="2.5" ry="2.5" style="stroke:#000000;stroke-width:1.5;" width="459.5" x="43.5" y="45.6094"/><text fill="#000000" font-family="sans-serif" font-size="14" font-weight="bold" lengthAdjust="spacing" textLength="211" x="167.75" y="62.1426">Customer Manager Aggregate</text></g><!--cluster Job Requirements Specification Aggregate--><g id="cluster_Job Requirements Specification Aggregate"><rect fill="none" height="118" rx="2.5" ry="2.5" style="stroke:#000000;stroke-width:1.5;" width="496" x="7" y="837.6094"/><text fill="#000000" font-family="sans-serif" font-size="14" font-weight="bold" lengthAdjust="spacing" textLength="301" x="104.5" y="854.1426">Job Requirements Specification Aggregate</text></g><!--cluster Job Opening Aggregate--><g id="cluster_Job Opening Aggregate"><rect fill="none" height="626" rx="2.5" ry="2.5" style="stroke:#000000;stroke-width:1.5;" width="582.5" x="358.5" y="187.6094"/><text fill="#000000" font-family="sans-serif" font-size="14" font-weight="bold" lengthAdjust="spacing" textLength="167" x="566.25" y="204.1426">Job Opening Aggregate</text></g><!--class CustomerManager--><g id="elem_CustomerManager"><rect codeLine="27" fill="#F0FFFF" height="65.7969" id="CustomerManager" rx="2.5" ry="2.5" style="stroke:#000000;stroke-width:0.5;" width="149" x="59.5" y="81.6094"/><ellipse cx="74.5" cy="110.5078" fill="#ADD1B2" rx="11" ry="11" style="stroke:#181818;stroke-width:1.0;"/><path d="M73.3594,111.3047 L73.3594,113.8047 L77.6875,113.8047 L77.6875,112.8828 Q77.6875,112.2734 77.9219,112.0078 Q78.1719,111.7422 78.5469,111.7422 Q78.9219,111.7422 79.1563,112.0078 Q79.3906,112.2734 79.3906,112.8828 L79.3906,115.5078 L71.3906,115.5078 Q70.7656,115.5078 70.5,115.2734 Q70.25,115.0391 70.25,114.6484 Q70.25,114.2734 70.5156,114.0391 Q70.7813,113.8047 71.3906,113.8047 L71.6563,113.8047 L71.6563,107.1484 L71.3906,107.1484 Q70.7656,107.1484 70.5,106.9141 Q70.25,106.6797 70.25,106.2891 Q70.25,105.9141 70.5,105.6797 Q70.7656,105.4453 71.3906,105.4453 L79.0156,105.4453 L79.0156,108.0391 Q79.0156,108.6484 78.7813,108.9141 Q78.5625,109.1641 78.1719,109.1641 Q77.7969,109.1641 77.5625,108.9141 Q77.3281,108.6484 77.3281,108.0391 L77.3281,107.1484 L73.3594,107.1484 L73.3594,109.6016 L74.8438,109.6016 Q74.8438,108.9453 74.9688,108.7578 Q75.2344,108.3516 75.7031,108.3516 Q76.0781,108.3516 76.3125,108.6172 Q76.5469,108.8672 76.5469,109.4766 L76.5469,111.4453 Q76.5469,111.9922 76.4219,112.1797 Q76.1563,112.5703 75.7031,112.5703 Q75.2344,112.5703 74.9688,112.1641 Q74.8438,111.9766 74.8438,111.3047 L73.3594,111.3047 Z " fill="#000000"/><text fill="#000000" font-family="sans-serif" font-size="12" font-style="italic" lengthAdjust="spacing" textLength="43" x="125.5" y="99.0664">«entity»</text><text fill="#000000" font-family="sans-serif" font-size="12" font-style="italic" lengthAdjust="spacing" textLength="35" x="129.5" y="114.1602">«root»</text><text fill="#000000" font-family="sans-serif" font-size="14" lengthAdjust="spacing" textLength="117" x="88.5" y="131.3301">CustomerManager</text><line style="stroke:#000000;stroke-width:0.5;" x1="60.5" x2="207.5" y1="139.4063" y2="139.4063"/></g><!--entity loginManager--><g id="elem_loginManager"><rect fill="#F0FFDD" height="41.2188" rx="2.5" ry="2.5" style="stroke:#000000;stroke-width:0.5;" width="117" x="370" y="94.1094"/><text fill="#000000" font-family="sans-serif" font-size="14" font-style="italic" lengthAdjust="spacing" textLength="97" x="380" y="111.6426">«Value Object»</text><text fill="#000000" font-family="sans-serif" font-size="14" lengthAdjust="spacing" textLength="86" x="385.5" y="129.252">loginManager</text></g><!--class JobRequirementsSpecification--><g id="elem_JobRequirementsSpecification"><rect codeLine="36" fill="#F0FFFF" height="65.7969" id="JobRequirementsSpecification" rx="2.5" ry="2.5" style="stroke:#000000;stroke-width:0.5;" width="222" x="23" y="873.6094"/><ellipse cx="38" cy="902.5078" fill="#ADD1B2" rx="11" ry="11" style="stroke:#181818;stroke-width:1.0;"/><path d="M36.8594,903.3047 L36.8594,905.8047 L41.1875,905.8047 L41.1875,904.8828 Q41.1875,904.2734 41.4219,904.0078 Q41.6719,903.7422 42.0469,903.7422 Q42.4219,903.7422 42.6563,904.0078 Q42.8906,904.2734 42.8906,904.8828 L42.8906,907.5078 L34.8906,907.5078 Q34.2656,907.5078 34,907.2734 Q33.75,907.0391 33.75,906.6484 Q33.75,906.2734 34.0156,906.0391 Q34.2813,905.8047 34.8906,905.8047 L35.1563,905.8047 L35.1563,899.1484 L34.8906,899.1484 Q34.2656,899.1484 34,898.9141 Q33.75,898.6797 33.75,898.2891 Q33.75,897.9141 34,897.6797 Q34.2656,897.4453 34.8906,897.4453 L42.5156,897.4453 L42.5156,900.0391 Q42.5156,900.6484 42.2813,900.9141 Q42.0625,901.1641 41.6719,901.1641 Q41.2969,901.1641 41.0625,900.9141 Q40.8281,900.6484 40.8281,900.0391 L40.8281,899.1484 L36.8594,899.1484 L36.8594,901.6016 L38.3438,901.6016 Q38.3438,900.9453 38.4688,900.7578 Q38.7344,900.3516 39.2031,900.3516 Q39.5781,900.3516 39.8125,900.6172 Q40.0469,900.8672 40.0469,901.4766 L40.0469,903.4453 Q40.0469,903.9922 39.9219,904.1797 Q39.6563,904.5703 39.2031,904.5703 Q38.7344,904.5703 38.4688,904.1641 Q38.3438,903.9766 38.3438,903.3047 L36.8594,903.3047 Z " fill="#000000"/><text fill="#000000" font-family="sans-serif" font-size="12" font-style="italic" lengthAdjust="spacing" textLength="43" x="125.5" y="891.0664">«entity»</text><text fill="#000000" font-family="sans-serif" font-size="12" font-style="italic" lengthAdjust="spacing" textLength="35" x="129.5" y="906.1602">«root»</text><text fill="#000000" font-family="sans-serif" font-size="14" lengthAdjust="spacing" textLength="190" x="52" y="923.3301">JobRequirementsSpecification</text><line style="stroke:#000000;stroke-width:0.5;" x1="24" x2="244" y1="931.4063" y2="931.4063"/></g><!--entity Requirements--><g id="elem_Requirements"><rect fill="#F0FFDD" height="41.2188" rx="2.5" ry="2.5" style="stroke:#000000;stroke-width:0.5;" width="117" x="370" y="886.1094"/><text fill="#000000" font-family="sans-serif" font-size="14" font-style="italic" lengthAdjust="spacing" textLength="97" x="380" y="903.6426">«Value Object»</text><text fill="#000000" font-family="sans-serif" font-size="14" lengthAdjust="spacing" textLength="88" x="384.5" y="921.252">Requirements</text></g><!--class JobOpening--><g id="elem_JobOpening"><rect codeLine="46" fill="#F0FFFF" height="65.7969" id="JobOpening" rx="2.5" ry="2.5" style="stroke:#000000;stroke-width:0.5;" width="108" x="374.5" y="478.6094"/><ellipse cx="389.5" cy="507.5078" fill="#ADD1B2" rx="11" ry="11" style="stroke:#181818;stroke-width:1.0;"/><path d="M388.3594,508.3047 L388.3594,510.8047 L392.6875,510.8047 L392.6875,509.8828 Q392.6875,509.2734 392.9219,509.0078 Q393.1719,508.7422 393.5469,508.7422 Q393.9219,508.7422 394.1563,509.0078 Q394.3906,509.2734 394.3906,509.8828 L394.3906,512.5078 L386.3906,512.5078 Q385.7656,512.5078 385.5,512.2734 Q385.25,512.0391 385.25,511.6484 Q385.25,511.2734 385.5156,511.0391 Q385.7813,510.8047 386.3906,510.8047 L386.6563,510.8047 L386.6563,504.1484 L386.3906,504.1484 Q385.7656,504.1484 385.5,503.9141 Q385.25,503.6797 385.25,503.2891 Q385.25,502.9141 385.5,502.6797 Q385.7656,502.4453 386.3906,502.4453 L394.0156,502.4453 L394.0156,505.0391 Q394.0156,505.6484 393.7813,505.9141 Q393.5625,506.1641 393.1719,506.1641 Q392.7969,506.1641 392.5625,505.9141 Q392.3281,505.6484 392.3281,505.0391 L392.3281,504.1484 L388.3594,504.1484 L388.3594,506.6016 L389.8438,506.6016 Q389.8438,505.9453 389.9688,505.7578 Q390.2344,505.3516 390.7031,505.3516 Q391.0781,505.3516 391.3125,505.6172 Q391.5469,505.8672 391.5469,506.4766 L391.5469,508.4453 Q391.5469,508.9922 391.4219,509.1797 Q391.1563,509.5703 390.7031,509.5703 Q390.2344,509.5703 389.9688,509.1641 Q389.8438,508.9766 389.8438,508.3047 L388.3594,508.3047 Z " fill="#000000"/><text fill="#000000" font-family="sans-serif" font-size="12" font-style="italic" lengthAdjust="spacing" textLength="43" x="420" y="496.0664">«entity»</text><text fill="#000000" font-family="sans-serif" font-size="12" font-style="italic" lengthAdjust="spacing" textLength="35" x="424" y="511.1602">«root»</text><text fill="#000000" font-family="sans-serif" font-size="14" lengthAdjust="spacing" textLength="76" x="403.5" y="528.3301">JobOpening</text><line style="stroke:#000000;stroke-width:0.5;" x1="375.5" x2="481.5" y1="536.4063" y2="536.4063"/></g><g id="elem_GMN28"><path d="M745,614.1094 L745,673.1641 L925,673.1641 L925,624.1094 L915,614.1094 L745,614.1094 " fill="#FEFFDD" style="stroke:#181818;stroke-width:0.5;"/><path d="M915,614.1094 L915,624.1094 L925,624.1094 L915,614.1094 " fill="#FEFFDD" style="stroke:#181818;stroke-width:1.0;"/><text fill="#000000" font-family="sans-serif" font-size="13" lengthAdjust="spacing" textLength="159" x="751" y="632.6045">Can be one of the following:</text><text fill="#000000" font-family="sans-serif" font-size="13" lengthAdjust="spacing" textLength="53" x="751" y="648.9561">- full-time</text><text fill="#000000" font-family="sans-serif" font-size="13" lengthAdjust="spacing" textLength="59" x="751" y="665.3076">- part-time</text></g><g id="elem_GMN31"><path d="M745,504.1094 L745,579.5156 L925,579.5156 L925,514.1094 L915,504.1094 L745,504.1094 " fill="#FEFFDD" style="stroke:#181818;stroke-width:0.5;"/><path d="M915,504.1094 L915,514.1094 L925,514.1094 L915,504.1094 " fill="#FEFFDD" style="stroke:#181818;stroke-width:1.0;"/><text fill="#000000" font-family="sans-serif" font-size="13" lengthAdjust="spacing" textLength="159" x="751" y="522.6045">Can be one of the following:</text><text fill="#000000" font-family="sans-serif" font-size="13" lengthAdjust="spacing" textLength="48" x="751" y="538.9561">- remote</text><text fill="#000000" font-family="sans-serif" font-size="13" lengthAdjust="spacing" textLength="43" x="751" y="555.3076">- hybrid</text><text fill="#000000" font-family="sans-serif" font-size="13" lengthAdjust="spacing" textLength="43" x="751" y="571.6592">- onsite</text></g><g id="elem_GMN34"><path d="M745,223.6094 L745,331.7188 L925,331.7188 L925,233.6094 L915,223.6094 L745,223.6094 " fill="#FEFFDD" style="stroke:#181818;stroke-width:0.5;"/><path d="M915,223.6094 L915,233.6094 L925,233.6094 L915,223.6094 " fill="#FEFFDD" style="stroke:#181818;stroke-width:1.0;"/><text fill="#000000" font-family="sans-serif" font-size="13" lengthAdjust="spacing" textLength="159" x="751" y="242.1045">Can be one of the following:</text><text fill="#000000" font-family="sans-serif" font-size="13" lengthAdjust="spacing" textLength="72" x="751" y="258.4561">- Application</text><text fill="#000000" font-family="sans-serif" font-size="13" lengthAdjust="spacing" textLength="66" x="751" y="274.8076">- Screening</text><text fill="#000000" font-family="sans-serif" font-size="13" lengthAdjust="spacing" textLength="64" x="751" y="291.1592">- Interviews</text><text fill="#000000" font-family="sans-serif" font-size="13" lengthAdjust="spacing" textLength="58" x="751" y="307.5107">- Analysis</text><text fill="#000000" font-family="sans-serif" font-size="13" lengthAdjust="spacing" textLength="45" x="751" y="323.8623">- Result</text></g><!--entity JobReference--><g id="elem_JobReference"><rect fill="#F0FFDD" height="41.2188" rx="2.5" ry="2.5" style="stroke:#000000;stroke-width:0.5;" width="117" x="558.5" y="756.1094"/><text fill="#000000" font-family="sans-serif" font-size="14" font-style="italic" lengthAdjust="spacing" textLength="97" x="568.5" y="773.6426">«Value Object»</text><text fill="#000000" font-family="sans-serif" font-size="14" lengthAdjust="spacing" textLength="88" x="573" y="791.252">JobReference</text></g><!--entity TitleOrFunction--><g id="elem_TitleOrFunction"><rect fill="#F0FFDD" height="41.2188" rx="2.5" ry="2.5" style="stroke:#000000;stroke-width:0.5;" width="118" x="558" y="680.1094"/><text fill="#000000" font-family="sans-serif" font-size="14" font-style="italic" lengthAdjust="spacing" textLength="97" x="568.5" y="697.6426">«Value Object»</text><text fill="#000000" font-family="sans-serif" font-size="14" lengthAdjust="spacing" textLength="98" x="568" y="715.252">TitleOrFunction</text></g><!--entity ContractType--><g id="elem_ContractType"><rect fill="#F0FFDD" height="41.2188" rx="2.5" ry="2.5" style="stroke:#000000;stroke-width:0.5;" width="117" x="558.5" y="604.1094"/><text fill="#000000" font-family="sans-serif" font-size="14" font-style="italic" lengthAdjust="spacing" textLength="97" x="568.5" y="621.6426">«Value Object»</text><text fill="#000000" font-family="sans-serif" font-size="14" lengthAdjust="spacing" textLength="86" x="574" y="639.252">ContractType</text></g><!--entity Mode--><g id="elem_Mode"><rect fill="#F0FFDD" height="41.2188" rx="2.5" ry="2.5" style="stroke:#000000;stroke-width:0.5;" width="117" x="558.5" y="528.1094"/><text fill="#000000" font-family="sans-serif" font-size="14" font-style="italic" lengthAdjust="spacing" textLength="97" x="568.5" y="545.6426">«Value Object»</text><text fill="#000000" font-family="sans-serif" font-size="14" lengthAdjust="spacing" textLength="35" x="599.5" y="563.252">Mode</text></g><!--entity Address--><g id="elem_Address"><rect fill="#F0FFDD" height="41.2188" rx="2.5" ry="2.5" style="stroke:#000000;stroke-width:0.5;" width="117" x="558.5" y="452.1094"/><text fill="#000000" font-family="sans-serif" font-size="14" font-style="italic" lengthAdjust="spacing" textLength="97" x="568.5" y="469.6426">«Value Object»</text><text fill="#000000" font-family="sans-serif" font-size="14" lengthAdjust="spacing" textLength="52" x="591" y="487.252">Address</text></g><!--entity VacanciesNumber--><g id="elem_VacanciesNumber"><rect fill="#F0FFDD" height="41.2188" rx="2.5" ry="2.5" style="stroke:#000000;stroke-width:0.5;" width="134" x="550" y="376.1094"/><text fill="#000000" font-family="sans-serif" font-size="14" font-style="italic" lengthAdjust="spacing" textLength="97" x="568.5" y="393.6426">«Value Object»</text><text fill="#000000" font-family="sans-serif" font-size="14" lengthAdjust="spacing" textLength="114" x="560" y="411.252">VacanciesNumber</text></g><!--entity Description--><g id="elem_Description"><rect fill="#F0FFDD" height="41.2188" rx="2.5" ry="2.5" style="stroke:#000000;stroke-width:0.5;" width="117" x="558.5" y="300.1094"/><text fill="#000000" font-family="sans-serif" font-size="14" font-style="italic" lengthAdjust="spacing" textLength="97" x="568.5" y="317.6426">«Value Object»</text><text fill="#000000" font-family="sans-serif" font-size="14" lengthAdjust="spacing" textLength="71" x="581.5" y="335.252">Description</text></g><!--entity ProcessState--><g id="elem_ProcessState"><rect fill="#F0FFDD" height="41.2188" rx="2.5" ry="2.5" style="stroke:#000000;stroke-width:0.5;" width="117" x="558.5" y="224.1094"/><text fill="#000000" font-family="sans-serif" font-size="14" font-style="italic" lengthAdjust="spacing" textLength="97" x="568.5" y="241.6426">«Value Object»</text><text fill="#000000" font-family="sans-serif" font-size="14" lengthAdjust="spacing" textLength="84" x="575" y="259.252">ProcessState</text></g><!--link CustomerManager to loginManager--><g id="link_CustomerManager_loginManager"><path codeLine="32" d="M208.81,114.6094 C256.88,114.6094 318.93,114.6094 364.64,114.6094 " fill="none" id="CustomerManager-to-loginManager" style="stroke:#808080;stroke-width:1.0;"/><polygon fill="#808080" points="369.85,114.6094,360.85,110.6094,364.85,114.6094,360.85,118.6094,369.85,114.6094" style="stroke:#808080;stroke-width:1.0;"/></g><!--link JobRequirementsSpecification to Requirements--><g id="link_JobRequirementsSpecification_Requirements"><path codeLine="41" d="M245.16,906.6094 C285.61,906.6094 329.97,906.6094 364.81,906.6094 " fill="none" id="JobRequirementsSpecification-to-Requirements" style="stroke:#808080;stroke-width:1.0;"/><polygon fill="#808080" points="369.88,906.6094,360.88,902.6094,364.88,906.6094,360.88,910.6094,369.88,906.6094" style="stroke:#808080;stroke-width:1.0;"/></g><!--link JobOpening to JobReference--><g id="link_JobOpening_JobReference"><path codeLine="65" d="M440.44,544.8794 C457.5,592.5794 494.35,681.0094 550,738.6094 C555.15,743.9394 561.21,748.7594 567.53,753.0294 " fill="none" id="JobOpening-to-JobReference" style="stroke:#808080;stroke-width:1.0;"/><polygon fill="#808080" points="571.95,755.9094,566.582,747.652,567.7571,753.1854,562.2237,754.3606,571.95,755.9094" style="stroke:#808080;stroke-width:1.0;"/></g><!--link JobOpening to TitleOrFunction--><g id="link_JobOpening_TitleOrFunction"><path codeLine="66" d="M450.46,544.6294 C472.4,577.3994 509.3,627.6394 550,662.6094 C556.15,667.8894 563.13,672.8194 570.2,677.2594 " fill="none" id="JobOpening-to-TitleOrFunction" style="stroke:#808080;stroke-width:1.0;"/><polygon fill="#808080" points="574.61,679.9694,569.0217,671.8594,570.3454,677.3592,564.8455,678.6828,574.61,679.9694" style="stroke:#808080;stroke-width:1.0;"/></g><!--link JobOpening to ContractType--><g id="link_JobOpening_ContractType"><path codeLine="67" d="M481.75,544.6794 C502.85,557.8794 527.49,573.1294 550,586.6094 C558.04,591.4194 566.69,596.4894 574.99,601.2894 " fill="none" id="JobOpening-to-ContractType" style="stroke:#808080;stroke-width:1.0;"/><polygon fill="#808080" points="579.56,603.9294,573.767,595.9644,575.2303,601.4287,569.7659,602.892,579.56,603.9294" style="stroke:#808080;stroke-width:1.0;"/></g><!--link JobOpening to Mode--><g id="link_JobOpening_Mode"><path codeLine="68" d="M482.69,522.1594 C504.71,526.5294 530.41,531.6294 553.34,536.1794 " fill="none" id="JobOpening-to-Mode" style="stroke:#808080;stroke-width:1.0;"/><polygon fill="#808080" points="558.49,537.1994,550.4397,531.5255,553.5855,536.227,548.884,539.3728,558.49,537.1994" style="stroke:#808080;stroke-width:1.0;"/></g><!--link JobOpening to Address--><g id="link_JobOpening_Address"><path codeLine="69" d="M482.69,500.4894 C504.71,495.8794 530.41,490.5094 553.34,485.7094 " fill="none" id="JobOpening-to-Address" style="stroke:#808080;stroke-width:1.0;"/><polygon fill="#808080" points="558.49,484.6394,548.859,482.5793,553.5973,485.6694,550.5071,490.4077,558.49,484.6394" style="stroke:#808080;stroke-width:1.0;"/></g><!--link JobOpening to VacanciesNumber--><g id="link_JobOpening_VacanciesNumber"><path codeLine="70" d="M480.18,478.4894 C501.59,464.6894 526.87,448.6494 550,434.6094 C558.01,429.7494 566.64,424.6694 574.94,419.8594 " fill="none" id="JobOpening-to-VacanciesNumber" style="stroke:#808080;stroke-width:1.0;"/><polygon fill="#808080" points="579.51,417.2194,569.7159,418.2568,575.1803,419.72,573.717,425.1844,579.51,417.2194" style="stroke:#808080;stroke-width:1.0;"/></g><!--link JobOpening to Description--><g id="link_JobOpening_Description"><path codeLine="71" d="M450.16,478.4394 C472.01,445.2294 508.95,394.1094 550,358.6094 C556.13,353.3094 563.1,348.3694 570.17,343.9194 " fill="none" id="JobOpening-to-Description" style="stroke:#808080;stroke-width:1.0;"/><polygon fill="#808080" points="574.58,341.2194,564.8175,342.5205,570.3193,343.8359,569.0039,349.3377,574.58,341.2194" style="stroke:#808080;stroke-width:1.0;"/></g><!--link JobOpening to ProcessState--><g id="link_JobOpening_ProcessState"><path codeLine="72" d="M440.23,478.4494 C457.13,430.4094 493.92,340.8694 550,282.6094 C555.14,277.2694 561.2,272.4494 567.52,268.1694 " fill="none" id="JobOpening-to-ProcessState" style="stroke:#808080;stroke-width:1.0;"/><polygon fill="#808080" points="571.93,265.2994,562.2061,266.8633,567.7414,268.0298,566.5749,273.5651,571.93,265.2994" style="stroke:#808080;stroke-width:1.0;"/></g><!--link ContractType to GMN28--><g id="link_ContractType_GMN28"><path d="M675.6,629.6794 C696.85,631.5494 721.45,633.7094 744.83,635.7694 " fill="none" id="ContractType-GMN28" style="stroke:#808080;stroke-width:1.0;stroke-dasharray:7.0,7.0;"/></g><!--link Mode to GMN31--><g id="link_Mode_GMN31"><path d="M675.6,546.7394 C696.85,546.0494 721.45,545.2594 744.83,544.4994 " fill="none" id="Mode-GMN31" style="stroke:#808080;stroke-width:1.0;stroke-dasharray:7.0,7.0;"/></g><!--link ProcessState to GMN34--><g id="link_ProcessState_GMN34"><path d="M675.6,253.4094 C696.85,256.6594 721.45,260.4094 744.83,263.9894 " fill="none" id="ProcessState-GMN34" style="stroke:#808080;stroke-width:1.0;stroke-dasharray:7.0,7.0;"/></g><!--link CustomerManager to JobOpening--><g id="link_CustomerManager_JobOpening"><path codeLine="96" d="M159.44,147.7794 C213.59,221.2794 343.4,397.4694 400.16,474.4994 " fill="none" id="CustomerManager-to-JobOpening" style="stroke:#808080;stroke-width:1.0;"/><polygon fill="#808080" points="403.13,478.5394,401.0289,468.9172,400.1713,474.5087,394.5799,473.6511,403.13,478.5394" style="stroke:#808080;stroke-width:1.0;"/><text fill="#000000" font-family="sans-serif" font-size="13" lengthAdjust="spacing" textLength="50" x="282.5" y="310.1045">registers</text><text fill="#000000" font-family="sans-serif" font-size="13" lengthAdjust="spacing" textLength="7" x="156.4852" y="168.9163">1</text><text fill="#000000" font-family="sans-serif" font-size="13" lengthAdjust="spacing" textLength="9" x="387.9693" y="467.621">N</text></g><!--reverse link JobRequirementsSpecification to JobOpening--><g id="link_JobRequirementsSpecification_JobOpening"><path codeLine="97" d="M162.67,869.2394 C219.57,792.4094 348.88,617.7794 402.98,544.7194 " fill="none" id="JobRequirementsSpecification-backto-JobOpening" style="stroke:#808080;stroke-width:1.0;"/><polygon fill="#808080" points="159.69,873.2694,168.2707,868.435,162.674,869.2574,161.8516,863.6607,159.69,873.2694" style="stroke:#808080;stroke-width:1.0;"/><text fill="#000000" font-family="sans-serif" font-size="13" lengthAdjust="spacing" textLength="63" x="276" y="636.1045">associated</text><text fill="#000000" font-family="sans-serif" font-size="13" lengthAdjust="spacing" textLength="7" x="157.0587" y="862.6803">1</text><text fill="#000000" font-family="sans-serif" font-size="13" lengthAdjust="spacing" textLength="9" x="388.4451" y="565.8453">N</text></g><!--SRC=[fLLDRzim3BthLmZUOIS3sxK83AG9KdH8cw8fUfTbsj4YIvuahp2A_lTHTkBAZfC6c8xauyTxegYTo82Mu7OwiqH2xgZJr8XYvsWc370dj2BVxLweYXbMKYaKkAO2gWt64F8Yd0GQBNN9XA8FEWCP4VA9vv9PIzy9nRCMEQmn_bQR3Cn2IsteafdzhQnX261yNnXTgwm3pP-UrlUB-Slzvh75ZVtVLZzMU5hVt1ZzrfaB0qs73mgc4eF9HzXZXHPMmDOrICLpPggGC631J7Q1n9q1KF_FOBaSC_3gt4snk3so88VcQRIehTCb6Fh051gmPe425Cn1z4v0EU4QUiGS8RDPvqYIsSnexPA4jALQlb8NGdqYNnbU4zsalr6W93ceyT7XntdZE1c44sorR_INJkap_Abnl4eiR-cs0YvomPaVjgcsCI8C6E8lSXZK6NCOKF3dOXtFAVHwJaDIcmgKKCKP1aVlnNxR3d8me3YSrxo7jwzlOrQruWSjlefOQEKCu-x5l-6luVv1Nm6RPva1Qwz0lZBE51TW7-iolJHNVSGIB3UYkfBVaz4SEzawbF-BeGtknDzjAFsKVwJr52GKTyhlrPoo7-IRSetqce840asvGqKwuagZDjsEr_bfq-s3PegckEGLU8ZR0SsrbFeDazxqe9ZcjPIn4oK4DjoOxjC6AclhJLNkvRY-9ER7v-Vp1PPTangHXHQjh72Z1axh3vIXmRckbRRIlAhaOKECF5lkVmKC6TdlbGFpLy2R7QTIJ3PMZCtFO6lfUcFFvypgZNv6xRL7Zr4u2JUeMo4ibkx7xFogypbcSNoQ0_zopGNAbP5_]--></g></svg>