<?xml version="1.0" encoding="us-ascii" standalone="no"?><svg xmlns="http://www.w3.org/2000/svg" xmlns:xlink="http://www.w3.org/1999/xlink" contentStyleType="text/css" height="383px" preserveAspectRatio="none" style="width:1052px;height:383px;background:#FFFFFF;" version="1.1" viewBox="0 0 1052 383" width="1052px" zoomAndPan="magnify"><defs/><g><text fill="#000000" font-family="sans-serif" font-size="14" font-weight="bold" lengthAdjust="spacing" textLength="145" x="446.5" y="25.1074">Domain Model - 1001</text><!--cluster Customer Manager Aggregate--><g id="cluster_Customer Manager Aggregate"><rect fill="none" height="123" rx="2.5" ry="2.5" style="stroke:#000000;stroke-width:1.5;" width="227" x="7" y="149.6211"/><text fill="#000000" font-family="sans-serif" font-size="14" font-weight="bold" lengthAdjust="spacing" textLength="211" x="15" y="166.7285">Customer Manager Aggregate</text></g><!--cluster Customer Aggregate--><g id="cluster_Customer Aggregate"><rect fill="none" height="123" rx="2.5" ry="2.5" style="stroke:#000000;stroke-width:1.5;" width="303" x="380" y="71.6211"/><text fill="#000000" font-family="sans-serif" font-size="14" font-weight="bold" lengthAdjust="spacing" textLength="145" x="459" y="88.7285">Customer Aggregate</text></g><!--cluster User Aggregate--><g id="cluster_User Aggregate"><rect fill="none" height="331" rx="2.5" ry="2.5" style="stroke:#000000;stroke-width:1.5;" width="330" x="716" y="46.6211"/><text fill="#000000" font-family="sans-serif" font-size="14" font-weight="bold" lengthAdjust="spacing" textLength="110" x="826" y="63.7285">User Aggregate</text></g><!--class CustomerManager--><g id="elem_CustomerManager"><rect codeLine="27" fill="#F0FFFF" height="68.543" id="CustomerManager" rx="2.5" ry="2.5" style="stroke:#000000;stroke-width:0.5;" width="149" x="46" y="187.1211"/><ellipse cx="61" cy="217.3926" fill="#ADD1B2" rx="11" ry="11" style="stroke:#181818;stroke-width:1.0;"/><path d="M59.8594,218.1895 L59.8594,220.6895 L64.1875,220.6895 L64.1875,219.7676 Q64.1875,219.1582 64.4219,218.8926 Q64.6719,218.627 65.0469,218.627 Q65.4219,218.627 65.6563,218.8926 Q65.8906,219.1582 65.8906,219.7676 L65.8906,222.3926 L57.8906,222.3926 Q57.2656,222.3926 57,222.1582 Q56.75,221.9238 56.75,221.5332 Q56.75,221.1582 57.0156,220.9238 Q57.2813,220.6895 57.8906,220.6895 L58.1563,220.6895 L58.1563,214.0332 L57.8906,214.0332 Q57.2656,214.0332 57,213.7988 Q56.75,213.5645 56.75,213.1738 Q56.75,212.7988 57,212.5645 Q57.2656,212.3301 57.8906,212.3301 L65.5156,212.3301 L65.5156,214.9238 Q65.5156,215.5332 65.2813,215.7988 Q65.0625,216.0488 64.6719,216.0488 Q64.2969,216.0488 64.0625,215.7988 Q63.8281,215.5332 63.8281,214.9238 L63.8281,214.0332 L59.8594,214.0332 L59.8594,216.4863 L61.3438,216.4863 Q61.3438,215.8301 61.4688,215.6426 Q61.7344,215.2363 62.2031,215.2363 Q62.5781,215.2363 62.8125,215.502 Q63.0469,215.752 63.0469,216.3613 L63.0469,218.3301 Q63.0469,218.877 62.9219,219.0645 Q62.6563,219.4551 62.2031,219.4551 Q61.7344,219.4551 61.4688,219.0488 Q61.3438,218.8613 61.3438,218.1895 L59.8594,218.1895 Z " fill="#000000"/><text fill="#000000" font-family="sans-serif" font-size="12" font-style="italic" lengthAdjust="spacing" textLength="43" x="112" y="205.0703">&#171;entity&#187;</text><text fill="#000000" font-family="sans-serif" font-size="12" font-style="italic" lengthAdjust="spacing" textLength="35" x="116" y="221.0313">&#171;root&#187;</text><text fill="#000000" font-family="sans-serif" font-size="14" lengthAdjust="spacing" textLength="117" x="75" y="239.1504">CustomerManager</text><line style="stroke:#000000;stroke-width:0.5;" x1="47" x2="194" y1="247.6641" y2="247.6641"/></g><!--class Customer--><g id="elem_Customer"><rect codeLine="31" fill="#F0FFFF" height="68.543" id="Customer" rx="2.5" ry="2.5" style="stroke:#000000;stroke-width:0.5;" width="93" x="396" y="109.1211"/><ellipse cx="411" cy="139.3926" fill="#ADD1B2" rx="11" ry="11" style="stroke:#181818;stroke-width:1.0;"/><path d="M409.8594,140.1895 L409.8594,142.6895 L414.1875,142.6895 L414.1875,141.7676 Q414.1875,141.1582 414.4219,140.8926 Q414.6719,140.627 415.0469,140.627 Q415.4219,140.627 415.6563,140.8926 Q415.8906,141.1582 415.8906,141.7676 L415.8906,144.3926 L407.8906,144.3926 Q407.2656,144.3926 407,144.1582 Q406.75,143.9238 406.75,143.5332 Q406.75,143.1582 407.0156,142.9238 Q407.2813,142.6895 407.8906,142.6895 L408.1563,142.6895 L408.1563,136.0332 L407.8906,136.0332 Q407.2656,136.0332 407,135.7988 Q406.75,135.5645 406.75,135.1738 Q406.75,134.7988 407,134.5645 Q407.2656,134.3301 407.8906,134.3301 L415.5156,134.3301 L415.5156,136.9238 Q415.5156,137.5332 415.2813,137.7988 Q415.0625,138.0488 414.6719,138.0488 Q414.2969,138.0488 414.0625,137.7988 Q413.8281,137.5332 413.8281,136.9238 L413.8281,136.0332 L409.8594,136.0332 L409.8594,138.4863 L411.3438,138.4863 Q411.3438,137.8301 411.4688,137.6426 Q411.7344,137.2363 412.2031,137.2363 Q412.5781,137.2363 412.8125,137.502 Q413.0469,137.752 413.0469,138.3613 L413.0469,140.3301 Q413.0469,140.877 412.9219,141.0645 Q412.6563,141.4551 412.2031,141.4551 Q411.7344,141.4551 411.4688,141.0488 Q411.3438,140.8613 411.3438,140.1895 L409.8594,140.1895 Z " fill="#000000"/><text fill="#000000" font-family="sans-serif" font-size="12" font-style="italic" lengthAdjust="spacing" textLength="43" x="434" y="127.0703">&#171;entity&#187;</text><text fill="#000000" font-family="sans-serif" font-size="12" font-style="italic" lengthAdjust="spacing" textLength="35" x="438" y="143.0313">&#171;root&#187;</text><text fill="#000000" font-family="sans-serif" font-size="14" lengthAdjust="spacing" textLength="61" x="425" y="161.1504">Customer</text><line style="stroke:#000000;stroke-width:0.5;" x1="397" x2="488" y1="169.6641" y2="169.6641"/></g><!--entity Company--><g id="elem_Company"><rect fill="#F0FFDD" height="43.2422" rx="2.5" ry="2.5" style="stroke:#000000;stroke-width:0.5;" width="117" x="550" y="109.1211"/><text fill="#000000" font-family="sans-serif" font-size="14" font-style="italic" lengthAdjust="spacing" textLength="97" x="560" y="127.2285">&#171;Value Object&#187;</text><text fill="#000000" font-family="sans-serif" font-size="14" lengthAdjust="spacing" textLength="60" x="578.5" y="145.8496">Company</text></g><!--class User--><g id="elem_User"><rect codeLine="41" fill="#F0FFFF" height="68.543" id="User" rx="2.5" ry="2.5" style="stroke:#000000;stroke-width:0.5;" width="71" x="732" y="206.1211"/><ellipse cx="747" cy="236.3926" fill="#ADD1B2" rx="11" ry="11" style="stroke:#181818;stroke-width:1.0;"/><path d="M745.8594,237.1895 L745.8594,239.6895 L750.1875,239.6895 L750.1875,238.7676 Q750.1875,238.1582 750.4219,237.8926 Q750.6719,237.627 751.0469,237.627 Q751.4219,237.627 751.6563,237.8926 Q751.8906,238.1582 751.8906,238.7676 L751.8906,241.3926 L743.8906,241.3926 Q743.2656,241.3926 743,241.1582 Q742.75,240.9238 742.75,240.5332 Q742.75,240.1582 743.0156,239.9238 Q743.2813,239.6895 743.8906,239.6895 L744.1563,239.6895 L744.1563,233.0332 L743.8906,233.0332 Q743.2656,233.0332 743,232.7988 Q742.75,232.5645 742.75,232.1738 Q742.75,231.7988 743,231.5645 Q743.2656,231.3301 743.8906,231.3301 L751.5156,231.3301 L751.5156,233.9238 Q751.5156,234.5332 751.2813,234.7988 Q751.0625,235.0488 750.6719,235.0488 Q750.2969,235.0488 750.0625,234.7988 Q749.8281,234.5332 749.8281,233.9238 L749.8281,233.0332 L745.8594,233.0332 L745.8594,235.4863 L747.3438,235.4863 Q747.3438,234.8301 747.4688,234.6426 Q747.7344,234.2363 748.2031,234.2363 Q748.5781,234.2363 748.8125,234.502 Q749.0469,234.752 749.0469,235.3613 L749.0469,237.3301 Q749.0469,237.877 748.9219,238.0645 Q748.6563,238.4551 748.2031,238.4551 Q747.7344,238.4551 747.4688,238.0488 Q747.3438,237.8613 747.3438,237.1895 L745.8594,237.1895 Z " fill="#000000"/><text fill="#000000" font-family="sans-serif" font-size="12" font-style="italic" lengthAdjust="spacing" textLength="43" x="759" y="224.0703">&#171;entity&#187;</text><text fill="#000000" font-family="sans-serif" font-size="12" font-style="italic" lengthAdjust="spacing" textLength="35" x="763" y="240.0313">&#171;root&#187;</text><text fill="#000000" font-family="sans-serif" font-size="14" lengthAdjust="spacing" textLength="29" x="766" y="258.1504">User</text><line style="stroke:#000000;stroke-width:0.5;" x1="733" x2="802" y1="266.6641" y2="266.6641"/></g><!--entity UserEmail--><g id="elem_UserEmail"><rect fill="#F0FFDD" height="43.2422" rx="2.5" ry="2.5" style="stroke:#000000;stroke-width:0.5;" width="117" x="888.5" y="318.1211"/><text fill="#000000" font-family="sans-serif" font-size="14" font-style="italic" lengthAdjust="spacing" textLength="97" x="898.5" y="336.2285">&#171;Value Object&#187;</text><text fill="#000000" font-family="sans-serif" font-size="14" lengthAdjust="spacing" textLength="63" x="915.5" y="354.8496">UserEmail</text></g><!--entity UserName--><g id="elem_UserName"><rect fill="#F0FFDD" height="43.2422" rx="2.5" ry="2.5" style="stroke:#000000;stroke-width:0.5;" width="117" x="888.5" y="240.1211"/><text fill="#000000" font-family="sans-serif" font-size="14" font-style="italic" lengthAdjust="spacing" textLength="97" x="898.5" y="258.2285">&#171;Value Object&#187;</text><text fill="#000000" font-family="sans-serif" font-size="14" lengthAdjust="spacing" textLength="65" x="914.5" y="276.8496">UserName</text></g><!--entity UserPassword--><g id="elem_UserPassword"><rect fill="#F0FFDD" height="43.2422" rx="2.5" ry="2.5" style="stroke:#000000;stroke-width:0.5;" width="117" x="888.5" y="162.1211"/><text fill="#000000" font-family="sans-serif" font-size="14" font-style="italic" lengthAdjust="spacing" textLength="97" x="898.5" y="180.2285">&#171;Value Object&#187;</text><text fill="#000000" font-family="sans-serif" font-size="14" lengthAdjust="spacing" textLength="90" x="902" y="198.8496">UserPassword</text></g><!--entity UserTelephoneNumber--><g id="elem_UserTelephoneNumber"><rect fill="#F0FFDD" height="43.2422" rx="2.5" ry="2.5" style="stroke:#000000;stroke-width:0.5;" width="166" x="864" y="84.1211"/><text fill="#000000" font-family="sans-serif" font-size="14" font-style="italic" lengthAdjust="spacing" textLength="97" x="898.5" y="102.2285">&#171;Value Object&#187;</text><text fill="#000000" font-family="sans-serif" font-size="14" lengthAdjust="spacing" textLength="146" x="874" y="120.8496">UserTelephoneNumber</text></g><!--link Customer to Company--><g id="link_Customer_Company"><path codeLine="36" d="M489.18,140.0011 C507.95,138.5111 523.9187,137.2439 543.7787,135.6739 " fill="none" id="Customer-to-Company" style="stroke:#808080;stroke-width:1.0;"/><polygon fill="#808080" points="549.76,135.2011,540.4728,131.9228,544.7756,135.5951,541.1032,139.8979,549.76,135.2011" style="stroke:#808080;stroke-width:1.0;"/></g><!--link User to UserEmail--><g id="link_User_UserEmail"><path codeLine="52" d="M803.29,263.8511 C821.14,275.4111 843.41,289.3011 864,300.6211 C874.91,306.6211 881.4885,310.0397 892.8485,315.4797 " fill="none" id="User-to-UserEmail" style="stroke:#808080;stroke-width:1.0;"/><polygon fill="#808080" points="898.26,318.0711,891.8703,310.5763,893.7504,315.9116,888.4151,317.7916,898.26,318.0711" style="stroke:#808080;stroke-width:1.0;"/></g><!--link User to UserName--><g id="link_User_UserName"><path codeLine="53" d="M803.15,244.7211 C827.36,247.5811 854.3014,250.7778 882.4314,254.0978 " fill="none" id="User-to-UserName" style="stroke:#808080;stroke-width:1.0;"/><polygon fill="#808080" points="888.39,254.8011,879.9209,249.7738,883.4245,254.215,878.9832,257.7186,888.39,254.8011" style="stroke:#808080;stroke-width:1.0;"/></g><!--link User to UserTelephoneNumber--><g id="link_User_UserTelephoneNumber"><path codeLine="54" d="M797.41,206.1211 C815.19,186.3811 839.25,162.1411 864,144.6211 C873.14,138.1511 878.1445,134.9565 888.3745,129.8365 " fill="none" id="User-to-UserTelephoneNumber" style="stroke:#808080;stroke-width:1.0;"/><polygon fill="#808080" points="893.74,127.1511,883.9015,127.6022,889.2687,129.3889,887.482,134.7562,893.74,127.1511" style="stroke:#808080;stroke-width:1.0;"/></g><!--link User to UserPassword--><g id="link_User_UserPassword"><path codeLine="55" d="M803.15,229.4911 C827.36,221.7211 854.5471,212.985 882.6771,203.955 " fill="none" id="User-to-UserPassword" style="stroke:#808080;stroke-width:1.0;"/><polygon fill="#808080" points="888.39,202.1211,878.5981,201.0633,883.6293,203.6493,881.0433,208.6805,888.39,202.1211" style="stroke:#808080;stroke-width:1.0;"/></g><!--link CustomerManager to User--><g id="link_CustomerManager_User"><path codeLine="59" d="M195.42,254.2511 C228.57,266.0911 268.56,276.6211 306,276.6211 C306,276.6211 306,276.6211 609.5,276.6211 C652.43,276.6211 694.6214,265.5589 726.0914,255.1889 " fill="none" id="CustomerManager-to-User" style="stroke:#808080;stroke-width:1.0;"/><polygon fill="#808080" points="731.79,253.3111,721.9903,252.3287,727.0412,254.8759,724.494,259.9268,731.79,253.3111" style="stroke:#808080;stroke-width:1.0;"/></g><!--link CustomerManager to Customer--><g id="link_CustomerManager_Customer"><path codeLine="60" d="M195.32,203.6311 C257.15,188.5611 337.6308,168.9424 389.9208,156.1924 " fill="none" id="CustomerManager-to-Customer" style="stroke:#808080;stroke-width:1.0;"/><polygon fill="#808080" points="395.75,154.7711,386.0586,153.017,390.8923,155.9556,387.9537,160.7893,395.75,154.7711" style="stroke:#808080;stroke-width:1.0;"/><text fill="#000000" font-family="sans-serif" font-size="13" lengthAdjust="spacing" textLength="50" x="282" y="166.6494">registers</text><text fill="#000000" font-family="sans-serif" font-size="13" lengthAdjust="spacing" textLength="7" x="203.0296" y="216.7621">1</text><text fill="#000000" font-family="sans-serif" font-size="13" lengthAdjust="spacing" textLength="9" x="378.9023" y="171.8656">N</text></g><!--link Customer to User--><g id="link_Customer_User"><path codeLine="61" d="M489.09,157.3111 C554.3,176.9011 667.0534,210.7557 725.8034,228.3957 " fill="none" id="Customer-to-User" style="stroke:#808080;stroke-width:1.0;"/><polygon fill="#808080" points="731.55,230.1211,724.0805,223.7019,726.7612,228.6832,721.7799,231.364,731.55,230.1211" style="stroke:#808080;stroke-width:1.0;"/></g><!--SRC=[fLDDQy904BtlhnZIGq-2Nai8-555q2ZKzhwQCMxTx8R9YeJYV-yaCNv4Aq9pd7dpvhqtcusA419q6njbGkFQWRD0AjuuY1JXoYbhn6ksLIQL91FGog3BKmHBF2F4GZcDu0ri8fM1gOrGGmiwxNR74-8yjj8oo-1707yJjSO9q_GiHKXzgot1GDAsftTu3P2hRKnsPw8Ar9tF9-D-Tp6UXIMksNyPjeVybRqkaTrNvPWmh_0N2vUQXyNXKcFA5HdZXylPKM5TcbZZbGj9qGCJ8q8q_tSm63GT5EcCxhderIx4KJnu_LtcR884Kscum3jZ3Y2M3hrAEHgdN0urheRvVjK80jydQrqG5Botj9Tq3Qfx7ENAChU-JL9fSWPzIRuqp9RVd74G70CzLD0JLwiLr2FYIibdTbz5MN-ee42yyplLVskumeOomIUXStxUUpxCa_05Qamtrc2uIvQbx4UPbCwAF4u6Rik5rjjgOyyjeDPTHdoPV_qiMZNoRjVhU1N22xtpwTxuxubLvf2ovarhiby0]--></g></svg>