<?xml version="1.0" encoding="us-ascii" standalone="no"?><svg xmlns="http://www.w3.org/2000/svg" xmlns:xlink="http://www.w3.org/1999/xlink" contentStyleType="text/css" height="526px" preserveAspectRatio="none" style="width:617px;height:526px;background:#FFFFFF;" version="1.1" viewBox="0 0 617 526" width="617px" zoomAndPan="magnify"><defs/><g><text fill="#000000" font-family="sans-serif" font-size="14" font-weight="bold" lengthAdjust="spacing" textLength="273" x="173.25" y="30.1074">System Sequence Diagram (SSD) - 1001</text><rect fill="#FFFFFF" height="301.25" style="stroke:#181818;stroke-width:1.0;" width="10" x="78.5" y="133.2422"/><rect fill="#FFFFFF" height="31.291" style="stroke:#181818;stroke-width:1.0;" width="10" x="561.5" y="156.5332"/><rect fill="#FFFFFF" height="57.582" style="stroke:#181818;stroke-width:1.0;" width="10" x="561.5" y="219.1152"/><rect fill="#FFFFFF" height="47.9219" style="stroke:#181818;stroke-width:1.0;" width="10" x="561.5" y="307.9883"/><rect fill="#FFFFFF" height="38.291" style="stroke:#181818;stroke-width:1.0;" width="10" x="561.5" y="387.2012"/><rect fill="none" height="161.0859" style="stroke:#000000;stroke-width:1.5;" width="600.5" x="10" y="234.1152"/><line style="stroke:#181818;stroke-width:0.5;stroke-dasharray:5.0,5.0;" x1="83" x2="83" y1="123.2422" y2="443.4922"/><line style="stroke:#181818;stroke-width:0.5;stroke-dasharray:5.0,5.0;" x1="566.5" x2="566.5" y1="123.2422" y2="443.4922"/><text fill="#000000" font-family="sans-serif" font-size="14" lengthAdjust="spacing" textLength="121" x="20" y="119.7285">Customer Manager</text><ellipse cx="83.5" cy="53.1211" fill="#E3E3E3" rx="8" ry="8" style="stroke:#181818;stroke-width:0.5;"/><path d="M83.5,61.1211 L83.5,88.1211 M70.5,69.1211 L96.5,69.1211 M83.5,88.1211 L70.5,103.1211 M83.5,88.1211 L96.5,103.1211 " fill="none" style="stroke:#181818;stroke-width:0.5;"/><text fill="#000000" font-family="sans-serif" font-size="14" lengthAdjust="spacing" textLength="121" x="20" y="457.5996">Customer Manager</text><ellipse cx="83.5" cy="469.6133" fill="#E3E3E3" rx="8" ry="8" style="stroke:#181818;stroke-width:0.5;"/><path d="M83.5,477.6133 L83.5,504.6133 M70.5,485.6133 L96.5,485.6133 M83.5,504.6133 L70.5,519.6133 M83.5,504.6133 L96.5,519.6133 " fill="none" style="stroke:#181818;stroke-width:0.5;"/><rect fill="#E3E3E3" height="32.6211" rx="2.5" ry="2.5" style="stroke:#181818;stroke-width:0.5;" width="68" x="532.5" y="89.6211"/><text fill="#000000" font-family="sans-serif" font-size="14" lengthAdjust="spacing" textLength="54" x="539.5" y="111.7285">: System</text><rect fill="#E3E3E3" height="32.6211" rx="2.5" ry="2.5" style="stroke:#181818;stroke-width:0.5;" width="68" x="532.5" y="442.4922"/><text fill="#000000" font-family="sans-serif" font-size="14" lengthAdjust="spacing" textLength="54" x="539.5" y="464.5996">: System</text><rect fill="#FFFFFF" height="301.25" style="stroke:#181818;stroke-width:1.0;" width="10" x="78.5" y="133.2422"/><rect fill="#FFFFFF" height="31.291" style="stroke:#181818;stroke-width:1.0;" width="10" x="561.5" y="156.5332"/><rect fill="#FFFFFF" height="57.582" style="stroke:#181818;stroke-width:1.0;" width="10" x="561.5" y="219.1152"/><rect fill="#FFFFFF" height="47.9219" style="stroke:#181818;stroke-width:1.0;" width="10" x="561.5" y="307.9883"/><rect fill="#FFFFFF" height="38.291" style="stroke:#181818;stroke-width:1.0;" width="10" x="561.5" y="387.2012"/><polygon fill="#181818" points="549.5,152.5332,559.5,156.5332,549.5,160.5332,553.5,156.5332" style="stroke:#181818;stroke-width:1.0;"/><line style="stroke:#181818;stroke-width:1.0;" x1="88.5" x2="555.5" y1="156.5332" y2="156.5332"/><text fill="#000000" font-family="sans-serif" font-size="13" font-weight="bold" lengthAdjust="spacing" textLength="7" x="95.5" y="151.2705">1</text><text fill="#000000" font-family="sans-serif" font-size="13" lengthAdjust="spacing" textLength="163" x="106.5" y="151.2705">Asks to register a Customer</text><polygon fill="#181818" points="99.5,183.8242,89.5,187.8242,99.5,191.8242,95.5,187.8242" style="stroke:#181818;stroke-width:1.0;"/><line style="stroke:#181818;stroke-width:1.0;stroke-dasharray:2.0,2.0;" x1="93.5" x2="565.5" y1="187.8242" y2="187.8242"/><text fill="#000000" font-family="sans-serif" font-size="13" font-weight="bold" lengthAdjust="spacing" textLength="7" x="105.5" y="182.5615">2</text><text fill="#000000" font-family="sans-serif" font-size="13" lengthAdjust="spacing" textLength="204" x="116.5" y="182.5615">Asks for the customer's information</text><polygon fill="#181818" points="549.5,215.1152,559.5,219.1152,549.5,223.1152,553.5,219.1152" style="stroke:#181818;stroke-width:1.0;"/><line style="stroke:#181818;stroke-width:1.0;" x1="88.5" x2="555.5" y1="219.1152" y2="219.1152"/><text fill="#000000" font-family="sans-serif" font-size="13" font-weight="bold" lengthAdjust="spacing" textLength="7" x="95.5" y="213.8525">3</text><text fill="#000000" font-family="sans-serif" font-size="13" lengthAdjust="spacing" textLength="443" x="106.5" y="213.8525">firstName, lastName, email, chooseToCreateOrToSelectAnExistentCompany</text><path d="M10,234.1152 L75,234.1152 L75,243.4063 L65,253.4063 L10,253.4063 L10,234.1152 " fill="#EEEEEE" style="stroke:#000000;stroke-width:1.5;"/><rect fill="none" height="161.0859" style="stroke:#000000;stroke-width:1.5;" width="600.5" x="10" y="234.1152"/><text fill="#000000" font-family="sans-serif" font-size="13" font-weight="bold" lengthAdjust="spacing" textLength="20" x="25" y="249.1436">opt</text><text fill="#000000" font-family="sans-serif" font-size="11" font-weight="bold" lengthAdjust="spacing" textLength="162" x="90" y="247.9854">[choose to select a company]</text><polygon fill="#181818" points="99.5,272.6973,89.5,276.6973,99.5,280.6973,95.5,276.6973" style="stroke:#181818;stroke-width:1.0;"/><line style="stroke:#181818;stroke-width:1.0;stroke-dasharray:2.0,2.0;" x1="93.5" x2="565.5" y1="276.6973" y2="276.6973"/><text fill="#000000" font-family="sans-serif" font-size="13" font-weight="bold" lengthAdjust="spacing" textLength="7" x="105.5" y="271.4346">4</text><text fill="#000000" font-family="sans-serif" font-size="13" lengthAdjust="spacing" textLength="164" x="116.5" y="271.4346">asks to select one company</text><polygon fill="#181818" points="549.5,303.9883,559.5,307.9883,549.5,311.9883,553.5,307.9883" style="stroke:#181818;stroke-width:1.0;"/><line style="stroke:#181818;stroke-width:1.0;" x1="88.5" x2="555.5" y1="307.9883" y2="307.9883"/><text fill="#000000" font-family="sans-serif" font-size="13" font-weight="bold" lengthAdjust="spacing" textLength="7" x="95.5" y="302.7256">5</text><text fill="#000000" font-family="sans-serif" font-size="13" lengthAdjust="spacing" textLength="124" x="106.5" y="302.7256">selects one company</text><line style="stroke:#000000;stroke-width:1.0;stroke-dasharray:2.0,2.0;" x1="10" x2="610.5" y1="316.9883" y2="316.9883"/><text fill="#000000" font-family="sans-serif" font-size="11" font-weight="bold" lengthAdjust="spacing" textLength="163" x="15" y="328.8584">[choose to create a company]</text><polygon fill="#181818" points="99.5,351.9102,89.5,355.9102,99.5,359.9102,95.5,355.9102" style="stroke:#181818;stroke-width:1.0;"/><line style="stroke:#181818;stroke-width:1.0;stroke-dasharray:2.0,2.0;" x1="93.5" x2="565.5" y1="355.9102" y2="355.9102"/><text fill="#000000" font-family="sans-serif" font-size="13" font-weight="bold" lengthAdjust="spacing" textLength="7" x="105.5" y="350.6475">6</text><text fill="#000000" font-family="sans-serif" font-size="13" lengthAdjust="spacing" textLength="170" x="116.5" y="350.6475">asks for the company's name</text><polygon fill="#181818" points="549.5,383.2012,559.5,387.2012,549.5,391.2012,553.5,387.2012" style="stroke:#181818;stroke-width:1.0;"/><line style="stroke:#181818;stroke-width:1.0;" x1="88.5" x2="555.5" y1="387.2012" y2="387.2012"/><text fill="#000000" font-family="sans-serif" font-size="13" font-weight="bold" lengthAdjust="spacing" textLength="7" x="95.5" y="381.9385">7</text><text fill="#000000" font-family="sans-serif" font-size="13" lengthAdjust="spacing" textLength="87" x="106.5" y="381.9385">companyName</text><polygon fill="#181818" points="99.5,421.4922,89.5,425.4922,99.5,429.4922,95.5,425.4922" style="stroke:#181818;stroke-width:1.0;"/><line style="stroke:#181818;stroke-width:1.0;stroke-dasharray:2.0,2.0;" x1="93.5" x2="565.5" y1="425.4922" y2="425.4922"/><text fill="#000000" font-family="sans-serif" font-size="13" font-weight="bold" lengthAdjust="spacing" textLength="7" x="105.5" y="420.2295">8</text><text fill="#000000" font-family="sans-serif" font-size="13" lengthAdjust="spacing" textLength="156" x="116.5" y="420.2295">shows operation's success</text><!--SRC=[bLB1Ri8m3BtdAomkswGXmPN395HsX1tA3tZ1j15DqiNk67y_Km9Yh4XR3fMLlFVydbtUkT1YGWy-XcZh53s1f8uCNrvQj3kig9H3Gv382eQgkGPmZPkuTw62BJPCneWJXPO75l9GqaT7mH8i75P7-6DPBfvW3DF9P6eCTX93vzyfQMqb9XWL7OlwIB34e8tJ292XM1hj9iww5eF0Q9Rr-yTJsGkuJnHIDEWnvlZLUlnoTZE3EUyO96gIokbL0eHpmnv-qJYBGZvPOQnYAfc5jcfOQWAR9HuOND1BZ-9YwBaR6fIyiRLrYMM5dfwXmND57btp3BQEaMaTYqIgyfRMiQH65p4Fhr_7346Aw7KiX_i1OYjPvfYTUxecjvbdXW9YdbH6nq0_yNyBTcBpRphfltBboVRXRZqDTXWqUjd4YQwB23h3_pZDpDM5DaYYi1bsmNNSQyoMKhzxDS2TjSHypyCt]--></g></svg>