<?xml version="1.0" encoding="us-ascii" standalone="no"?><svg xmlns="http://www.w3.org/2000/svg" xmlns:xlink="http://www.w3.org/1999/xlink" contentStyleType="text/css" height="1385px" preserveAspectRatio="none" style="width:495px;height:1385px;background:#FFFFFF;" version="1.1" viewBox="0 0 495 1385" width="495px" zoomAndPan="magnify"><defs/><g><!--class DisplayCandidateDataUI--><g id="elem_DisplayCandidateDataUI"><rect codeLine="4" fill="#F1F1F1" height="163.418" id="DisplayCandidateDataUI" rx="2.5" ry="2.5" style="stroke:#181818;stroke-width:0.5;" width="196" x="157.5" y="7"/><ellipse cx="172.5" cy="23" fill="#ADD1B2" rx="11" ry="11" style="stroke:#181818;stroke-width:1.0;"/><path d="M175.4731,28.6431 Q174.8921,28.9419 174.2529,29.0913 Q173.6138,29.2407 172.9082,29.2407 Q170.4014,29.2407 169.0815,27.5889 Q167.7617,25.937 167.7617,22.8159 Q167.7617,19.6865 169.0815,18.0347 Q170.4014,16.3828 172.9082,16.3828 Q173.6138,16.3828 174.2612,16.5322 Q174.9087,16.6816 175.4731,16.9805 L175.4731,19.7031 Q174.8423,19.1221 174.2488,18.8523 Q173.6553,18.5825 173.0244,18.5825 Q171.6797,18.5825 170.9949,19.6492 Q170.3101,20.7158 170.3101,22.8159 Q170.3101,24.9077 170.9949,25.9744 Q171.6797,27.041 173.0244,27.041 Q173.6553,27.041 174.2488,26.7712 Q174.8423,26.5015 175.4731,25.9204 Z " fill="#000000"/><text fill="#000000" font-family="sans-serif" font-size="14" lengthAdjust="spacing" textLength="164" x="186.5" y="28.291">DisplayCandidateDataUI</text><line style="stroke:#181818;stroke-width:0.5;" x1="158.5" x2="352.5" y1="39" y2="39"/><line style="stroke:#181818;stroke-width:0.5;" x1="158.5" x2="352.5" y1="47" y2="47"/><ellipse cx="168.5" cy="60.7441" fill="#84BE84" rx="3" ry="3" style="stroke:#038048;stroke-width:1.0;"/><text fill="#000000" font-family="sans-serif" font-size="14" lengthAdjust="spacing" textLength="69" x="177.5" y="64.5352">headline()</text><ellipse cx="168.5" cy="77.2324" fill="#84BE84" rx="3" ry="3" style="stroke:#038048;stroke-width:1.0;"/><text fill="#000000" font-family="sans-serif" font-size="14" lengthAdjust="spacing" textLength="111" x="177.5" y="81.0234">emptyMessage()</text><ellipse cx="168.5" cy="93.7207" fill="#84BE84" rx="3" ry="3" style="stroke:#038048;stroke-width:1.0;"/><text fill="#000000" font-family="sans-serif" font-size="14" lengthAdjust="spacing" textLength="72" x="177.5" y="97.5117">elements()</text><ellipse cx="168.5" cy="110.209" fill="#84BE84" rx="3" ry="3" style="stroke:#038048;stroke-width:1.0;"/><text fill="#000000" font-family="sans-serif" font-size="14" lengthAdjust="spacing" textLength="111" x="177.5" y="114">elementPrinter()</text><ellipse cx="168.5" cy="126.6973" fill="#84BE84" rx="3" ry="3" style="stroke:#038048;stroke-width:1.0;"/><text fill="#000000" font-family="sans-serif" font-size="14" lengthAdjust="spacing" textLength="104" x="177.5" y="130.4883">elementName()</text><ellipse cx="168.5" cy="143.1855" fill="#84BE84" rx="3" ry="3" style="stroke:#038048;stroke-width:1.0;"/><text fill="#000000" font-family="sans-serif" font-size="14" lengthAdjust="spacing" textLength="79" x="177.5" y="146.9766">listHeader()</text><ellipse cx="168.5" cy="159.6738" fill="#84BE84" rx="3" ry="3" style="stroke:#038048;stroke-width:1.0;"/><text fill="#000000" font-family="sans-serif" font-size="14" lengthAdjust="spacing" textLength="65" x="177.5" y="163.4648">doShow()</text></g><!--class DisplayCandidateDataController--><g id="elem_DisplayCandidateDataController"><rect codeLine="15" fill="#F1F1F1" height="64.4883" id="DisplayCandidateDataController" rx="2.5" ry="2.5" style="stroke:#181818;stroke-width:0.5;" width="252" x="129.5" y="205.46"/><ellipse cx="144.5" cy="221.46" fill="#ADD1B2" rx="11" ry="11" style="stroke:#181818;stroke-width:1.0;"/><path d="M147.4731,227.1031 Q146.8921,227.4019 146.2529,227.5513 Q145.6138,227.7007 144.9082,227.7007 Q142.4014,227.7007 141.0815,226.0489 Q139.7617,224.397 139.7617,221.2759 Q139.7617,218.1465 141.0815,216.4947 Q142.4014,214.8428 144.9082,214.8428 Q145.6138,214.8428 146.2612,214.9922 Q146.9087,215.1416 147.4731,215.4405 L147.4731,218.1631 Q146.8423,217.5821 146.2488,217.3123 Q145.6553,217.0425 145.0244,217.0425 Q143.6797,217.0425 142.9949,218.1092 Q142.3101,219.1758 142.3101,221.2759 Q142.3101,223.3677 142.9949,224.4344 Q143.6797,225.501 145.0244,225.501 Q145.6553,225.501 146.2488,225.2312 Q146.8423,224.9615 147.4731,224.3804 Z " fill="#000000"/><text fill="#000000" font-family="sans-serif" font-size="14" lengthAdjust="spacing" textLength="220" x="158.5" y="226.751">DisplayCandidateDataController</text><line style="stroke:#181818;stroke-width:0.5;" x1="130.5" x2="380.5" y1="237.46" y2="237.46"/><line style="stroke:#181818;stroke-width:0.5;" x1="130.5" x2="380.5" y1="245.46" y2="245.46"/><ellipse cx="140.5" cy="259.2041" fill="#84BE84" rx="3" ry="3" style="stroke:#038048;stroke-width:1.0;"/><text fill="#000000" font-family="sans-serif" font-size="14" lengthAdjust="spacing" textLength="103" x="149.5" y="262.9952">allCandidates()</text></g><!--class Candidate--><g id="elem_Candidate"><rect codeLine="19" fill="#F1F1F1" height="229.3711" id="Candidate" rx="2.5" ry="2.5" style="stroke:#181818;stroke-width:0.5;" width="354" x="78.5" y="637.02"/><ellipse cx="216.25" cy="653.02" fill="#ADD1B2" rx="11" ry="11" style="stroke:#181818;stroke-width:1.0;"/><path d="M219.2231,658.6631 Q218.6421,658.9619 218.0029,659.1113 Q217.3638,659.2607 216.6582,659.2607 Q214.1514,659.2607 212.8315,657.6089 Q211.5117,655.957 211.5117,652.8359 Q211.5117,649.7065 212.8315,648.0547 Q214.1514,646.4028 216.6582,646.4028 Q217.3638,646.4028 218.0112,646.5522 Q218.6587,646.7016 219.2231,647.0005 L219.2231,649.7231 Q218.5923,649.1421 217.9988,648.8723 Q217.4053,648.6025 216.7744,648.6025 Q215.4297,648.6025 214.7449,649.6692 Q214.0601,650.7358 214.0601,652.8359 Q214.0601,654.9277 214.7449,655.9944 Q215.4297,657.061 216.7744,657.061 Q217.4053,657.061 217.9988,656.7912 Q218.5923,656.5215 219.2231,655.9404 Z " fill="#000000"/><text fill="#000000" font-family="sans-serif" font-size="14" lengthAdjust="spacing" textLength="70" x="236.75" y="658.311">Candidate</text><line style="stroke:#181818;stroke-width:0.5;" x1="79.5" x2="431.5" y1="669.02" y2="669.02"/><rect fill="none" height="6" style="stroke:#C82930;stroke-width:1.0;" width="6" x="86.5" y="679.7641"/><text fill="#000000" font-family="sans-serif" font-size="14" lengthAdjust="spacing" textLength="75" x="98.5" y="686.5552">String user</text><rect fill="none" height="6" style="stroke:#C82930;stroke-width:1.0;" width="6" x="86.5" y="696.2524"/><text fill="#000000" font-family="sans-serif" font-size="14" lengthAdjust="spacing" textLength="119" x="98.5" y="703.0434">String curriculum</text><rect fill="none" height="6" style="stroke:#C82930;stroke-width:1.0;" width="6" x="86.5" y="712.7407"/><text fill="#000000" font-family="sans-serif" font-size="14" lengthAdjust="spacing" textLength="169" x="98.5" y="719.5317">String telephoneNumber</text><line style="stroke:#181818;stroke-width:0.5;" x1="79.5" x2="431.5" y1="726.4848" y2="726.4848"/><ellipse cx="89.5" cy="740.229" fill="#84BE84" rx="3" ry="3" style="stroke:#038048;stroke-width:1.0;"/><text fill="#000000" font-family="sans-serif" font-size="14" lengthAdjust="spacing" textLength="328" x="98.5" y="744.02">Candidate( user, telephoneNumber, curriculum)</text><ellipse cx="89.5" cy="756.7173" fill="#84BE84" rx="3" ry="3" style="stroke:#038048;stroke-width:1.0;"/><text fill="#000000" font-family="sans-serif" font-size="14" lengthAdjust="spacing" textLength="80" x="98.5" y="760.5083">Candidate()</text><ellipse cx="89.5" cy="773.2055" fill="#84BE84" rx="3" ry="3" style="stroke:#038048;stroke-width:1.0;"/><text fill="#000000" font-family="sans-serif" font-size="14" lengthAdjust="spacing" textLength="40" x="98.5" y="776.9966">user()</text><ellipse cx="89.5" cy="789.6938" fill="#84BE84" rx="3" ry="3" style="stroke:#038048;stroke-width:1.0;"/><text fill="#000000" font-family="sans-serif" font-size="14" lengthAdjust="spacing" textLength="84" x="98.5" y="793.4848">curriculum()</text><ellipse cx="89.5" cy="806.1821" fill="#84BE84" rx="3" ry="3" style="stroke:#038048;stroke-width:1.0;"/><text fill="#000000" font-family="sans-serif" font-size="14" lengthAdjust="spacing" textLength="61" x="98.5" y="809.9731">identity()</text><ellipse cx="89.5" cy="822.6704" fill="#84BE84" rx="3" ry="3" style="stroke:#038048;stroke-width:1.0;"/><text fill="#000000" font-family="sans-serif" font-size="14" lengthAdjust="spacing" textLength="104" x="98.5" y="826.4614">sameAs (other)</text><ellipse cx="89.5" cy="839.1587" fill="#84BE84" rx="3" ry="3" style="stroke:#038048;stroke-width:1.0;"/><text fill="#000000" font-family="sans-serif" font-size="14" lengthAdjust="spacing" textLength="64" x="98.5" y="842.9497">equals(o)</text><ellipse cx="89.5" cy="855.647" fill="#84BE84" rx="3" ry="3" style="stroke:#038048;stroke-width:1.0;"/><text fill="#000000" font-family="sans-serif" font-size="14" lengthAdjust="spacing" textLength="65" x="98.5" y="859.438">toString()</text></g><!--class CandidateRepository--><g id="elem_CandidateRepository"><rect codeLine="35" fill="#F1F1F1" height="64.4883" id="CandidateRepository" rx="2.5" ry="2.5" style="stroke:#181818;stroke-width:0.5;" width="175" x="168" y="421.46"/><ellipse cx="183" cy="437.46" fill="#ADD1B2" rx="11" ry="11" style="stroke:#181818;stroke-width:1.0;"/><path d="M185.9731,443.1031 Q185.3921,443.4019 184.7529,443.5513 Q184.1138,443.7007 183.4082,443.7007 Q180.9014,443.7007 179.5815,442.0489 Q178.2617,440.397 178.2617,437.2759 Q178.2617,434.1465 179.5815,432.4947 Q180.9014,430.8428 183.4082,430.8428 Q184.1138,430.8428 184.7612,430.9922 Q185.4087,431.1416 185.9731,431.4405 L185.9731,434.1631 Q185.3423,433.5821 184.7488,433.3123 Q184.1553,433.0425 183.5244,433.0425 Q182.1797,433.0425 181.4949,434.1092 Q180.8101,435.1758 180.8101,437.2759 Q180.8101,439.3677 181.4949,440.4344 Q182.1797,441.501 183.5244,441.501 Q184.1553,441.501 184.7488,441.2312 Q185.3423,440.9615 185.9731,440.3804 Z " fill="#000000"/><text fill="#000000" font-family="sans-serif" font-size="14" lengthAdjust="spacing" textLength="143" x="197" y="442.751">CandidateRepository</text><line style="stroke:#181818;stroke-width:0.5;" x1="169" x2="342" y1="453.46" y2="453.46"/><line style="stroke:#181818;stroke-width:0.5;" x1="169" x2="342" y1="461.46" y2="461.46"/><ellipse cx="179" cy="475.2041" fill="#84BE84" rx="3" ry="3" style="stroke:#038048;stroke-width:1.0;"/><text fill="#000000" font-family="sans-serif" font-size="14" lengthAdjust="spacing" textLength="103" x="188" y="478.9952">allCandidates()</text></g><!--class CandidateService--><g id="elem_CandidateService"><rect codeLine="39" fill="#F1F1F1" height="80.9766" id="CandidateService" rx="2.5" ry="2.5" style="stroke:#181818;stroke-width:0.5;" width="257" x="127" y="305.22"/><ellipse cx="192.25" cy="321.22" fill="#ADD1B2" rx="11" ry="11" style="stroke:#181818;stroke-width:1.0;"/><path d="M195.2231,326.8631 Q194.6421,327.1619 194.0029,327.3113 Q193.3638,327.4607 192.6582,327.4607 Q190.1514,327.4607 188.8315,325.8089 Q187.5117,324.157 187.5117,321.0359 Q187.5117,317.9065 188.8315,316.2547 Q190.1514,314.6028 192.6582,314.6028 Q193.3638,314.6028 194.0112,314.7522 Q194.6587,314.9016 195.2231,315.2005 L195.2231,317.9231 Q194.5923,317.3421 193.9988,317.0723 Q193.4053,316.8025 192.7744,316.8025 Q191.4297,316.8025 190.7449,317.8692 Q190.0601,318.9358 190.0601,321.0359 Q190.0601,323.1277 190.7449,324.1944 Q191.4297,325.261 192.7744,325.261 Q193.4053,325.261 193.9988,324.9912 Q194.5923,324.7215 195.2231,324.1404 Z " fill="#000000"/><text fill="#000000" font-family="sans-serif" font-size="14" lengthAdjust="spacing" textLength="118" x="212.75" y="326.511">CandidateService</text><line style="stroke:#181818;stroke-width:0.5;" x1="128" x2="383" y1="337.22" y2="337.22"/><line style="stroke:#181818;stroke-width:0.5;" x1="128" x2="383" y1="345.22" y2="345.22"/><ellipse cx="138" cy="358.9641" fill="#84BE84" rx="3" ry="3" style="stroke:#038048;stroke-width:1.0;"/><text fill="#000000" font-family="sans-serif" font-size="14" lengthAdjust="spacing" textLength="231" x="147" y="362.7552">findCandidate(telephoneNumber)</text><ellipse cx="138" cy="375.4524" fill="#84BE84" rx="3" ry="3" style="stroke:#038048;stroke-width:1.0;"/><text fill="#000000" font-family="sans-serif" font-size="14" lengthAdjust="spacing" textLength="103" x="147" y="379.2434">allCandidates()</text></g><!--class CandidateBuilder--><g id="elem_CandidateBuilder"><rect codeLine="45" fill="#F1F1F1" height="80.9766" id="CandidateBuilder" rx="2.5" ry="2.5" style="stroke:#181818;stroke-width:0.5;" width="375" x="68" y="521.22"/><ellipse cx="192.25" cy="537.22" fill="#ADD1B2" rx="11" ry="11" style="stroke:#181818;stroke-width:1.0;"/><path d="M195.2231,542.8631 Q194.6421,543.1619 194.0029,543.3113 Q193.3638,543.4607 192.6582,543.4607 Q190.1514,543.4607 188.8315,541.8089 Q187.5117,540.157 187.5117,537.0359 Q187.5117,533.9065 188.8315,532.2547 Q190.1514,530.6028 192.6582,530.6028 Q193.3638,530.6028 194.0112,530.7522 Q194.6587,530.9016 195.2231,531.2005 L195.2231,533.9231 Q194.5923,533.3421 193.9988,533.0723 Q193.4053,532.8025 192.7744,532.8025 Q191.4297,532.8025 190.7449,533.8692 Q190.0601,534.9358 190.0601,537.0359 Q190.0601,539.1277 190.7449,540.1944 Q191.4297,541.261 192.7744,541.261 Q193.4053,541.261 193.9988,540.9912 Q194.5923,540.7215 195.2231,540.1404 Z " fill="#000000"/><text fill="#000000" font-family="sans-serif" font-size="14" lengthAdjust="spacing" textLength="118" x="212.75" y="542.511">CandidateBuilder</text><line style="stroke:#181818;stroke-width:0.5;" x1="69" x2="442" y1="553.22" y2="553.22"/><line style="stroke:#181818;stroke-width:0.5;" x1="69" x2="442" y1="561.22" y2="561.22"/><ellipse cx="79" cy="574.9641" fill="#84BE84" rx="3" ry="3" style="stroke:#038048;stroke-width:1.0;"/><text fill="#000000" font-family="sans-serif" font-size="14" lengthAdjust="spacing" textLength="349" x="88" y="578.7552">withAll(systemUser, telephoneNumber, curriculum)</text><ellipse cx="79" cy="591.4524" fill="#84BE84" rx="3" ry="3" style="stroke:#038048;stroke-width:1.0;"/><text fill="#000000" font-family="sans-serif" font-size="14" lengthAdjust="spacing" textLength="45" x="88" y="595.2434">build()</text></g><!--class AuthorizationService--><g id="elem_AuthorizationService"><rect codeLine="50" fill="#F1F1F1" height="97.4648" id="AuthorizationService" rx="2.5" ry="2.5" style="stroke:#181818;stroke-width:0.5;" width="465" x="23" y="900.97"/><ellipse cx="179.75" cy="916.97" fill="#ADD1B2" rx="11" ry="11" style="stroke:#181818;stroke-width:1.0;"/><path d="M182.7231,922.6131 Q182.1421,922.9119 181.5029,923.0613 Q180.8638,923.2107 180.1582,923.2107 Q177.6514,923.2107 176.3315,921.5589 Q175.0117,919.907 175.0117,916.7859 Q175.0117,913.6565 176.3315,912.0047 Q177.6514,910.3528 180.1582,910.3528 Q180.8638,910.3528 181.5112,910.5022 Q182.1587,910.6516 182.7231,910.9505 L182.7231,913.6731 Q182.0923,913.0921 181.4988,912.8223 Q180.9053,912.5525 180.2744,912.5525 Q178.9297,912.5525 178.2449,913.6192 Q177.5601,914.6858 177.5601,916.7859 Q177.5601,918.8777 178.2449,919.9444 Q178.9297,921.011 180.2744,921.011 Q180.9053,921.011 181.4988,920.7412 Q182.0923,920.4715 182.7231,919.8904 Z " fill="#000000"/><text fill="#000000" font-family="sans-serif" font-size="14" lengthAdjust="spacing" textLength="143" x="200.25" y="922.261">AuthorizationService</text><line style="stroke:#181818;stroke-width:0.5;" x1="24" x2="487" y1="932.97" y2="932.97"/><line style="stroke:#181818;stroke-width:0.5;" x1="24" x2="487" y1="940.97" y2="940.97"/><ellipse cx="34" cy="954.7141" fill="#84BE84" rx="3" ry="3" style="stroke:#038048;stroke-width:1.0;"/><text fill="#000000" font-family="sans-serif" font-size="14" lengthAdjust="spacing" textLength="151" x="43" y="958.5052">authorizationService()</text><ellipse cx="34" cy="979.4466" fill="#84BE84" rx="3" ry="3" style="stroke:#038048;stroke-width:1.0;"/><text fill="#000000" font-family="sans-serif" font-size="14" lengthAdjust="spacing" textLength="241" x="43" y="974.9934">ensureAuthenticatedUserHasAnyOf</text><text fill="#000000" font-family="sans-serif" font-size="14" lengthAdjust="spacing" textLength="439" x="43" y="991.4817">(Jobs4URoles.CUSTOMER_MANAGER, Jobs4URoles.POWER_USER)</text></g><!--class PersistenceContext--><g id="elem_PersistenceContext"><rect codeLine="56" fill="#F1F1F1" height="80.9766" id="PersistenceContext" rx="2.5" ry="2.5" style="stroke:#181818;stroke-width:0.5;" width="168" x="171.5" y="1033.22"/><ellipse cx="188.3" cy="1049.22" fill="#ADD1B2" rx="11" ry="11" style="stroke:#181818;stroke-width:1.0;"/><path d="M191.2731,1054.8631 Q190.6921,1055.1619 190.0529,1055.3113 Q189.4138,1055.4607 188.7082,1055.4607 Q186.2014,1055.4607 184.8815,1053.8089 Q183.5617,1052.157 183.5617,1049.0359 Q183.5617,1045.9065 184.8815,1044.2547 Q186.2014,1042.6028 188.7082,1042.6028 Q189.4138,1042.6028 190.0612,1042.7522 Q190.7087,1042.9016 191.2731,1043.2005 L191.2731,1045.9231 Q190.6423,1045.3421 190.0488,1045.0723 Q189.4553,1044.8025 188.8244,1044.8025 Q187.4797,1044.8025 186.7949,1045.8692 Q186.1101,1046.9358 186.1101,1049.0359 Q186.1101,1051.1277 186.7949,1052.1944 Q187.4797,1053.261 188.8244,1053.261 Q189.4553,1053.261 190.0488,1052.9912 Q190.6423,1052.7215 191.2731,1052.1404 Z " fill="#000000"/><text fill="#000000" font-family="sans-serif" font-size="14" lengthAdjust="spacing" textLength="132" x="202.7" y="1054.511">PersistenceContext</text><line style="stroke:#181818;stroke-width:0.5;" x1="172.5" x2="338.5" y1="1065.22" y2="1065.22"/><line style="stroke:#181818;stroke-width:0.5;" x1="172.5" x2="338.5" y1="1073.22" y2="1073.22"/><ellipse cx="182.5" cy="1086.9641" fill="#84BE84" rx="3" ry="3" style="stroke:#038048;stroke-width:1.0;"/><text fill="#000000" font-family="sans-serif" font-size="14" lengthAdjust="spacing" textLength="92" x="191.5" y="1090.7552">repositories()</text><ellipse cx="182.5" cy="1103.4524" fill="#84BE84" rx="3" ry="3" style="stroke:#038048;stroke-width:1.0;"/><text fill="#000000" font-family="sans-serif" font-size="14" lengthAdjust="spacing" textLength="142" x="191.5" y="1107.2434">PersistenceContext()</text></g><!--class RepositoryFactory--><g id="elem_RepositoryFactory"><rect codeLine="61" fill="#F1F1F1" height="229.3711" id="RepositoryFactory" rx="2.5" ry="2.5" style="stroke:#181818;stroke-width:0.5;" width="346" x="82.5" y="1149.02"/><ellipse cx="189.75" cy="1165.02" fill="#ADD1B2" rx="11" ry="11" style="stroke:#181818;stroke-width:1.0;"/><path d="M192.7231,1170.6631 Q192.1421,1170.9619 191.5029,1171.1113 Q190.8638,1171.2607 190.1582,1171.2607 Q187.6514,1171.2607 186.3315,1169.6089 Q185.0117,1167.957 185.0117,1164.8359 Q185.0117,1161.7065 186.3315,1160.0547 Q187.6514,1158.4028 190.1582,1158.4028 Q190.8638,1158.4028 191.5112,1158.5522 Q192.1587,1158.7016 192.7231,1159.0005 L192.7231,1161.7231 Q192.0923,1161.1421 191.4988,1160.8723 Q190.9053,1160.6025 190.2744,1160.6025 Q188.9297,1160.6025 188.2449,1161.6692 Q187.5601,1162.7358 187.5601,1164.8359 Q187.5601,1166.9277 188.2449,1167.9944 Q188.9297,1169.061 190.2744,1169.061 Q190.9053,1169.061 191.4988,1168.7912 Q192.0923,1168.5215 192.7231,1167.9404 Z " fill="#000000"/><text fill="#000000" font-family="sans-serif" font-size="14" lengthAdjust="spacing" textLength="123" x="210.25" y="1170.311">RepositoryFactory</text><line style="stroke:#181818;stroke-width:0.5;" x1="83.5" x2="427.5" y1="1181.02" y2="1181.02"/><line style="stroke:#181818;stroke-width:0.5;" x1="83.5" x2="427.5" y1="1189.02" y2="1189.02"/><ellipse cx="93.5" cy="1202.7641" fill="#84BE84" rx="3" ry="3" style="stroke:#038048;stroke-width:1.0;"/><text fill="#000000" font-family="sans-serif" font-size="14" lengthAdjust="spacing" textLength="186" x="102.5" y="1206.5552">newTransactionalContext()</text><ellipse cx="93.5" cy="1219.2524" fill="#84BE84" rx="3" ry="3" style="stroke:#038048;stroke-width:1.0;"/><text fill="#000000" font-family="sans-serif" font-size="14" lengthAdjust="spacing" textLength="248" x="102.5" y="1223.0434">users(TransactionalContext autoTx)</text><ellipse cx="93.5" cy="1235.7407" fill="#84BE84" rx="3" ry="3" style="stroke:#038048;stroke-width:1.0;"/><text fill="#000000" font-family="sans-serif" font-size="14" lengthAdjust="spacing" textLength="47" x="102.5" y="1239.5317">users()</text><ellipse cx="93.5" cy="1252.229" fill="#84BE84" rx="3" ry="3" style="stroke:#038048;stroke-width:1.0;"/><text fill="#000000" font-family="sans-serif" font-size="14" lengthAdjust="spacing" textLength="313" x="102.5" y="1256.02">customerUsers(TransactionalContext autoTx)</text><ellipse cx="93.5" cy="1268.7173" fill="#84BE84" rx="3" ry="3" style="stroke:#038048;stroke-width:1.0;"/><text fill="#000000" font-family="sans-serif" font-size="14" lengthAdjust="spacing" textLength="112" x="102.5" y="1272.5083">customerUsers()</text><ellipse cx="93.5" cy="1285.2055" fill="#84BE84" rx="3" ry="3" style="stroke:#038048;stroke-width:1.0;"/><text fill="#000000" font-family="sans-serif" font-size="14" lengthAdjust="spacing" textLength="320" x="102.5" y="1288.9966">signupRequests(TransactionalContext autoTx)</text><ellipse cx="93.5" cy="1301.6938" fill="#84BE84" rx="3" ry="3" style="stroke:#038048;stroke-width:1.0;"/><text fill="#000000" font-family="sans-serif" font-size="14" lengthAdjust="spacing" textLength="119" x="102.5" y="1305.4848">signupRequests()</text><ellipse cx="93.5" cy="1318.1821" fill="#84BE84" rx="3" ry="3" style="stroke:#038048;stroke-width:1.0;"/><text fill="#000000" font-family="sans-serif" font-size="14" lengthAdjust="spacing" textLength="299" x="102.5" y="1321.9731">jobOpenings(TransactionalContext autoTx)</text><ellipse cx="93.5" cy="1334.6704" fill="#84BE84" rx="3" ry="3" style="stroke:#038048;stroke-width:1.0;"/><text fill="#000000" font-family="sans-serif" font-size="14" lengthAdjust="spacing" textLength="98" x="102.5" y="1338.4614">jobOpenings()</text><ellipse cx="93.5" cy="1351.1587" fill="#84BE84" rx="3" ry="3" style="stroke:#038048;stroke-width:1.0;"/><text fill="#000000" font-family="sans-serif" font-size="14" lengthAdjust="spacing" textLength="294" x="102.5" y="1354.9497">applications(TransactionalContext autoTx)</text><ellipse cx="93.5" cy="1367.647" fill="#84BE84" rx="3" ry="3" style="stroke:#038048;stroke-width:1.0;"/><text fill="#000000" font-family="sans-serif" font-size="14" lengthAdjust="spacing" textLength="93" x="102.5" y="1371.438">applications()</text></g><!--link DisplayCandidateDataUI to DisplayCandidateDataController--><g id="link_DisplayCandidateDataUI_DisplayCandidateDataController"><path codeLine="85" d="M256,170.61 C256,182.79 256,188.69 256,199.01 " fill="none" id="DisplayCandidateDataUI-to-DisplayCandidateDataController" style="stroke:#181818;stroke-width:1.0;"/><polygon fill="#181818" points="256,205.01,260,196.01,256,200.01,252,196.01,256,205.01" style="stroke:#181818;stroke-width:1.0;"/></g><!--link DisplayCandidateDataController to PersistenceContext--><g id="link_DisplayCandidateDataController_PersistenceContext"><path codeLine="86" d="M129.29,237.7 C67.4,237.7 6,237.7 6,237.7 C6,237.7 6,1073.7 6,1073.7 C6,1073.7 92.65,1073.7 165.03,1073.7 " fill="none" id="DisplayCandidateDataController-to-PersistenceContext" style="stroke:#181818;stroke-width:1.0;"/><polygon fill="#181818" points="171.03,1073.7,162.03,1069.7,166.03,1073.7,162.03,1077.7,171.03,1073.7" style="stroke:#181818;stroke-width:1.0;"/></g><!--link PersistenceContext to RepositoryFactory--><g id="link_PersistenceContext_RepositoryFactory"><path codeLine="87" d="M256,1114.46 C256,1124.82 256,1130.48 256,1142.59 " fill="none" id="PersistenceContext-to-RepositoryFactory" style="stroke:#181818;stroke-width:1.0;"/><polygon fill="#181818" points="256,1148.59,260,1139.59,256,1143.59,252,1139.59,256,1148.59" style="stroke:#181818;stroke-width:1.0;"/></g><!--link DisplayCandidateDataController to AuthorizationService--><g id="link_DisplayCandidateDataController_AuthorizationService"><path codeLine="88" d="M381.9,237.7 C426.6,237.7 466,237.7 466,237.7 C466,237.7 466,733.32 466,894.48 " fill="none" id="DisplayCandidateDataController-to-AuthorizationService" style="stroke:#181818;stroke-width:1.0;"/><polygon fill="#181818" points="466,900.48,470,891.48,466,895.48,462,891.48,466,900.48" style="stroke:#181818;stroke-width:1.0;"/></g><!--link DisplayCandidateDataController to CandidateService--><g id="link_DisplayCandidateDataController_CandidateService"><path codeLine="89" d="M256,270.4 C256,281.33 256,287.64 256,299.1 " fill="none" id="DisplayCandidateDataController-to-CandidateService" style="stroke:#181818;stroke-width:1.0;"/><polygon fill="#181818" points="256,305.1,260,296.1,256,300.1,252,296.1,256,305.1" style="stroke:#181818;stroke-width:1.0;"/></g><!--link CandidateService to CandidateBuilder--><g id="link_CandidateService_CandidateBuilder"><path codeLine="90" d="M364,386.59 C364,425.11 364,476.52 364,514.99 " fill="none" id="CandidateService-to-CandidateBuilder" style="stroke:#181818;stroke-width:1.0;"/><polygon fill="#181818" points="364,520.99,368,511.99,364,515.99,360,511.99,364,520.99" style="stroke:#181818;stroke-width:1.0;"/></g><!--link CandidateBuilder to Candidate--><g id="link_CandidateBuilder_Candidate"><path codeLine="91" d="M256,602.46 C256,612.82 256,618.48 256,630.59 " fill="none" id="CandidateBuilder-to-Candidate" style="stroke:#181818;stroke-width:1.0;"/><polygon fill="#181818" points="256,636.59,260,627.59,256,631.59,252,627.59,256,636.59" style="stroke:#181818;stroke-width:1.0;"/></g><!--link CandidateService to CandidateRepository--><g id="link_CandidateService_CandidateRepository"><path codeLine="92" d="M256,386.53 C256,398 256,404.32 256,415.23 " fill="none" id="CandidateService-to-CandidateRepository" style="stroke:#181818;stroke-width:1.0;"/><polygon fill="#181818" points="256,421.23,260,412.23,256,416.23,252,412.23,256,421.23" style="stroke:#181818;stroke-width:1.0;"/></g><!--SRC=[ZLHDZvim4BtpAtmaQhQddYlHRDhTIlaG2UgbKkN09BWrDlKCpTAg_xts9c0WT1TkVlFUOpn-DluGgkI65qmA1LINmBIXN0SIZiH8CoDEER5C64X9Q1K4gUI8x5vWANczu2eJ6IUuvyIJnpy1izyRbWFFd5yukm9Gb5Il096VEg240XJX4DWQeGZC45xpmckbG7gmV-dGChtBzTak_mOlTRdGYeoM4apJBPUoPU15Vv6tw8LvntPaMpkn2i7qaRGoHgILh8e-JhRtCjSArbLniABh7rlZyDbhFkJDEuQp6qs3E6cxy88M4fcTcg2w1T1EC48MQih1jDFzMN69eMxMf2-zMzN8968eDGhIffu-lHsONoA5Hd0KAlER6UnyzX_N4TiFbP2PFyMpe3oICiGQ2OfaubWFpgJRTLJPz1lncxkq3phd8pMVKeML0ITtKqzjWvbhue5ZfEhDyQiAF-i3lajYBG7VBfBTVhDQnjzMqJhwj8pdh5lTRhxOKh9RnjsTRy6WZJse55o8uObOqvbfZaM0lqwt_Ev6_Kb-v6dtG1MSzuOhvCyNdaklzR73S8pY1gJtJtsY3oYIBi0aK-LzGPjXSL9L6TlK0j8adu6YWR_hmwO4PPC-oQLBRqDQbjATj9LDykZnB-zK-uq_gEpk_IkFMF1osHdSvY0OYP8btaHYWldOVPaW6puEmH3eaQvNFHW2FTADHRVejnRy0m00]--></g></svg>