<?xml version="1.0" encoding="us-ascii" standalone="no"?><svg xmlns="http://www.w3.org/2000/svg" xmlns:xlink="http://www.w3.org/1999/xlink" contentStyleType="text/css" height="267px" preserveAspectRatio="none" style="width:2882px;height:267px;background:#FFFFFF;" version="1.1" viewBox="0 0 2882 267" width="2882px" zoomAndPan="magnify"><defs/><g><!--class DisplayCandidateDataUI--><g id="elem_DisplayCandidateDataUI"><rect codeLine="4" fill="#F1F1F1" height="163.418" id="DisplayCandidateDataUI" rx="2.5" ry="2.5" style="stroke:#181818;stroke-width:0.5;" width="196" x="7" y="39.98"/><ellipse cx="22" cy="55.98" fill="#ADD1B2" rx="11" ry="11" style="stroke:#181818;stroke-width:1.0;"/><path d="M24.9731,61.6231 Q24.3921,61.9219 23.7529,62.0713 Q23.1138,62.2207 22.4082,62.2207 Q19.9014,62.2207 18.5815,60.5689 Q17.2617,58.917 17.2617,55.7959 Q17.2617,52.6665 18.5815,51.0147 Q19.9014,49.3628 22.4082,49.3628 Q23.1138,49.3628 23.7612,49.5122 Q24.4087,49.6616 24.9731,49.9605 L24.9731,52.6831 Q24.3423,52.1021 23.7488,51.8323 Q23.1553,51.5625 22.5244,51.5625 Q21.1797,51.5625 20.4949,52.6292 Q19.8101,53.6958 19.8101,55.7959 Q19.8101,57.8877 20.4949,58.9544 Q21.1797,60.021 22.5244,60.021 Q23.1553,60.021 23.7488,59.7512 Q24.3423,59.4815 24.9731,58.9004 Z " fill="#000000"/><text fill="#000000" font-family="sans-serif" font-size="14" lengthAdjust="spacing" textLength="164" x="36" y="61.271">DisplayCandidateDataUI</text><line style="stroke:#181818;stroke-width:0.5;" x1="8" x2="202" y1="71.98" y2="71.98"/><line style="stroke:#181818;stroke-width:0.5;" x1="8" x2="202" y1="79.98" y2="79.98"/><ellipse cx="18" cy="93.7241" fill="#84BE84" rx="3" ry="3" style="stroke:#038048;stroke-width:1.0;"/><text fill="#000000" font-family="sans-serif" font-size="14" lengthAdjust="spacing" textLength="69" x="27" y="97.5152">headline()</text><ellipse cx="18" cy="110.2124" fill="#84BE84" rx="3" ry="3" style="stroke:#038048;stroke-width:1.0;"/><text fill="#000000" font-family="sans-serif" font-size="14" lengthAdjust="spacing" textLength="111" x="27" y="114.0034">emptyMessage()</text><ellipse cx="18" cy="126.7007" fill="#84BE84" rx="3" ry="3" style="stroke:#038048;stroke-width:1.0;"/><text fill="#000000" font-family="sans-serif" font-size="14" lengthAdjust="spacing" textLength="72" x="27" y="130.4917">elements()</text><ellipse cx="18" cy="143.189" fill="#84BE84" rx="3" ry="3" style="stroke:#038048;stroke-width:1.0;"/><text fill="#000000" font-family="sans-serif" font-size="14" lengthAdjust="spacing" textLength="111" x="27" y="146.98">elementPrinter()</text><ellipse cx="18" cy="159.6773" fill="#84BE84" rx="3" ry="3" style="stroke:#038048;stroke-width:1.0;"/><text fill="#000000" font-family="sans-serif" font-size="14" lengthAdjust="spacing" textLength="104" x="27" y="163.4683">elementName()</text><ellipse cx="18" cy="176.1655" fill="#84BE84" rx="3" ry="3" style="stroke:#038048;stroke-width:1.0;"/><text fill="#000000" font-family="sans-serif" font-size="14" lengthAdjust="spacing" textLength="79" x="27" y="179.9566">listHeader()</text><ellipse cx="18" cy="192.6538" fill="#84BE84" rx="3" ry="3" style="stroke:#038048;stroke-width:1.0;"/><text fill="#000000" font-family="sans-serif" font-size="14" lengthAdjust="spacing" textLength="65" x="27" y="196.4448">doShow()</text></g><!--class DisplayCandidateDataController--><g id="elem_DisplayCandidateDataController"><rect codeLine="15" fill="#F1F1F1" height="64.4883" id="DisplayCandidateDataController" rx="2.5" ry="2.5" style="stroke:#181818;stroke-width:0.5;" width="252" x="238" y="89.44"/><ellipse cx="253" cy="105.44" fill="#ADD1B2" rx="11" ry="11" style="stroke:#181818;stroke-width:1.0;"/><path d="M255.9731,111.0831 Q255.3921,111.3819 254.7529,111.5313 Q254.1138,111.6807 253.4082,111.6807 Q250.9014,111.6807 249.5815,110.0289 Q248.2617,108.377 248.2617,105.2559 Q248.2617,102.1265 249.5815,100.4747 Q250.9014,98.8228 253.4082,98.8228 Q254.1138,98.8228 254.7612,98.9722 Q255.4087,99.1216 255.9731,99.4205 L255.9731,102.1431 Q255.3423,101.5621 254.7488,101.2923 Q254.1553,101.0225 253.5244,101.0225 Q252.1797,101.0225 251.4949,102.0892 Q250.8101,103.1558 250.8101,105.2559 Q250.8101,107.3477 251.4949,108.4144 Q252.1797,109.481 253.5244,109.481 Q254.1553,109.481 254.7488,109.2112 Q255.3423,108.9415 255.9731,108.3604 Z " fill="#000000"/><text fill="#000000" font-family="sans-serif" font-size="14" lengthAdjust="spacing" textLength="220" x="267" y="110.731">DisplayCandidateDataController</text><line style="stroke:#181818;stroke-width:0.5;" x1="239" x2="489" y1="121.44" y2="121.44"/><line style="stroke:#181818;stroke-width:0.5;" x1="239" x2="489" y1="129.44" y2="129.44"/><ellipse cx="249" cy="143.1841" fill="#84BE84" rx="3" ry="3" style="stroke:#038048;stroke-width:1.0;"/><text fill="#000000" font-family="sans-serif" font-size="14" lengthAdjust="spacing" textLength="103" x="258" y="146.9752">allCandidates()</text></g><!--class Candidate--><g id="elem_Candidate"><rect codeLine="19" fill="#F1F1F1" height="229.3711" id="Candidate" rx="2.5" ry="2.5" style="stroke:#181818;stroke-width:0.5;" width="354" x="1437" y="7"/><ellipse cx="1574.75" cy="23" fill="#ADD1B2" rx="11" ry="11" style="stroke:#181818;stroke-width:1.0;"/><path d="M1577.7231,28.6431 Q1577.1421,28.9419 1576.5029,29.0913 Q1575.8638,29.2407 1575.1582,29.2407 Q1572.6514,29.2407 1571.3315,27.5889 Q1570.0117,25.937 1570.0117,22.8159 Q1570.0117,19.6865 1571.3315,18.0347 Q1572.6514,16.3828 1575.1582,16.3828 Q1575.8638,16.3828 1576.5112,16.5322 Q1577.1587,16.6816 1577.7231,16.9805 L1577.7231,19.7031 Q1577.0923,19.1221 1576.4988,18.8523 Q1575.9053,18.5825 1575.2744,18.5825 Q1573.9297,18.5825 1573.2449,19.6492 Q1572.5601,20.7158 1572.5601,22.8159 Q1572.5601,24.9077 1573.2449,25.9744 Q1573.9297,27.041 1575.2744,27.041 Q1575.9053,27.041 1576.4988,26.7712 Q1577.0923,26.5015 1577.7231,25.9204 Z " fill="#000000"/><text fill="#000000" font-family="sans-serif" font-size="14" lengthAdjust="spacing" textLength="70" x="1595.25" y="28.291">Candidate</text><line style="stroke:#181818;stroke-width:0.5;" x1="1438" x2="1790" y1="39" y2="39"/><rect fill="none" height="6" style="stroke:#C82930;stroke-width:1.0;" width="6" x="1445" y="49.7441"/><text fill="#000000" font-family="sans-serif" font-size="14" lengthAdjust="spacing" textLength="75" x="1457" y="56.5352">String user</text><rect fill="none" height="6" style="stroke:#C82930;stroke-width:1.0;" width="6" x="1445" y="66.2324"/><text fill="#000000" font-family="sans-serif" font-size="14" lengthAdjust="spacing" textLength="119" x="1457" y="73.0234">String curriculum</text><rect fill="none" height="6" style="stroke:#C82930;stroke-width:1.0;" width="6" x="1445" y="82.7207"/><text fill="#000000" font-family="sans-serif" font-size="14" lengthAdjust="spacing" textLength="169" x="1457" y="89.5117">String telephoneNumber</text><line style="stroke:#181818;stroke-width:0.5;" x1="1438" x2="1790" y1="96.4648" y2="96.4648"/><ellipse cx="1448" cy="110.209" fill="#84BE84" rx="3" ry="3" style="stroke:#038048;stroke-width:1.0;"/><text fill="#000000" font-family="sans-serif" font-size="14" lengthAdjust="spacing" textLength="328" x="1457" y="114">Candidate( user, telephoneNumber, curriculum)</text><ellipse cx="1448" cy="126.6973" fill="#84BE84" rx="3" ry="3" style="stroke:#038048;stroke-width:1.0;"/><text fill="#000000" font-family="sans-serif" font-size="14" lengthAdjust="spacing" textLength="80" x="1457" y="130.4883">Candidate()</text><ellipse cx="1448" cy="143.1855" fill="#84BE84" rx="3" ry="3" style="stroke:#038048;stroke-width:1.0;"/><text fill="#000000" font-family="sans-serif" font-size="14" lengthAdjust="spacing" textLength="40" x="1457" y="146.9766">user()</text><ellipse cx="1448" cy="159.6738" fill="#84BE84" rx="3" ry="3" style="stroke:#038048;stroke-width:1.0;"/><text fill="#000000" font-family="sans-serif" font-size="14" lengthAdjust="spacing" textLength="84" x="1457" y="163.4648">curriculum()</text><ellipse cx="1448" cy="176.1621" fill="#84BE84" rx="3" ry="3" style="stroke:#038048;stroke-width:1.0;"/><text fill="#000000" font-family="sans-serif" font-size="14" lengthAdjust="spacing" textLength="61" x="1457" y="179.9531">identity()</text><ellipse cx="1448" cy="192.6504" fill="#84BE84" rx="3" ry="3" style="stroke:#038048;stroke-width:1.0;"/><text fill="#000000" font-family="sans-serif" font-size="14" lengthAdjust="spacing" textLength="104" x="1457" y="196.4414">sameAs (other)</text><ellipse cx="1448" cy="209.1387" fill="#84BE84" rx="3" ry="3" style="stroke:#038048;stroke-width:1.0;"/><text fill="#000000" font-family="sans-serif" font-size="14" lengthAdjust="spacing" textLength="64" x="1457" y="212.9297">equals(o)</text><ellipse cx="1448" cy="225.627" fill="#84BE84" rx="3" ry="3" style="stroke:#038048;stroke-width:1.0;"/><text fill="#000000" font-family="sans-serif" font-size="14" lengthAdjust="spacing" textLength="65" x="1457" y="229.418">toString()</text></g><!--class CandidateRepository--><g id="elem_CandidateRepository"><rect codeLine="35" fill="#F1F1F1" height="64.4883" id="CandidateRepository" rx="2.5" ry="2.5" style="stroke:#181818;stroke-width:0.5;" width="175" x="816.5" y="89.44"/><ellipse cx="831.5" cy="105.44" fill="#ADD1B2" rx="11" ry="11" style="stroke:#181818;stroke-width:1.0;"/><path d="M834.4731,111.0831 Q833.8921,111.3819 833.2529,111.5313 Q832.6138,111.6807 831.9082,111.6807 Q829.4014,111.6807 828.0815,110.0289 Q826.7617,108.377 826.7617,105.2559 Q826.7617,102.1265 828.0815,100.4747 Q829.4014,98.8228 831.9082,98.8228 Q832.6138,98.8228 833.2612,98.9722 Q833.9087,99.1216 834.4731,99.4205 L834.4731,102.1431 Q833.8423,101.5621 833.2488,101.2923 Q832.6553,101.0225 832.0244,101.0225 Q830.6797,101.0225 829.9949,102.0892 Q829.3101,103.1558 829.3101,105.2559 Q829.3101,107.3477 829.9949,108.4144 Q830.6797,109.481 832.0244,109.481 Q832.6553,109.481 833.2488,109.2112 Q833.8423,108.9415 834.4731,108.3604 Z " fill="#000000"/><text fill="#000000" font-family="sans-serif" font-size="14" lengthAdjust="spacing" textLength="143" x="845.5" y="110.731">CandidateRepository</text><line style="stroke:#181818;stroke-width:0.5;" x1="817.5" x2="990.5" y1="121.44" y2="121.44"/><line style="stroke:#181818;stroke-width:0.5;" x1="817.5" x2="990.5" y1="129.44" y2="129.44"/><ellipse cx="827.5" cy="143.1841" fill="#84BE84" rx="3" ry="3" style="stroke:#038048;stroke-width:1.0;"/><text fill="#000000" font-family="sans-serif" font-size="14" lengthAdjust="spacing" textLength="103" x="836.5" y="146.9752">allCandidates()</text></g><!--class CandidateService--><g id="elem_CandidateService"><rect codeLine="39" fill="#F1F1F1" height="80.9766" id="CandidateService" rx="2.5" ry="2.5" style="stroke:#181818;stroke-width:0.5;" width="257" x="524.5" y="81.2"/><ellipse cx="589.75" cy="97.2" fill="#ADD1B2" rx="11" ry="11" style="stroke:#181818;stroke-width:1.0;"/><path d="M592.7231,102.8431 Q592.1421,103.1419 591.5029,103.2913 Q590.8638,103.4407 590.1582,103.4407 Q587.6514,103.4407 586.3315,101.7889 Q585.0117,100.137 585.0117,97.0159 Q585.0117,93.8865 586.3315,92.2347 Q587.6514,90.5828 590.1582,90.5828 Q590.8638,90.5828 591.5112,90.7322 Q592.1587,90.8816 592.7231,91.1805 L592.7231,93.9031 Q592.0923,93.3221 591.4988,93.0523 Q590.9053,92.7825 590.2744,92.7825 Q588.9297,92.7825 588.2449,93.8492 Q587.5601,94.9158 587.5601,97.0159 Q587.5601,99.1077 588.2449,100.1744 Q588.9297,101.241 590.2744,101.241 Q590.9053,101.241 591.4988,100.9712 Q592.0923,100.7015 592.7231,100.1204 Z " fill="#000000"/><text fill="#000000" font-family="sans-serif" font-size="14" lengthAdjust="spacing" textLength="118" x="610.25" y="102.491">CandidateService</text><line style="stroke:#181818;stroke-width:0.5;" x1="525.5" x2="780.5" y1="113.2" y2="113.2"/><line style="stroke:#181818;stroke-width:0.5;" x1="525.5" x2="780.5" y1="121.2" y2="121.2"/><ellipse cx="535.5" cy="134.9441" fill="#84BE84" rx="3" ry="3" style="stroke:#038048;stroke-width:1.0;"/><text fill="#000000" font-family="sans-serif" font-size="14" lengthAdjust="spacing" textLength="231" x="544.5" y="138.7352">findCandidate(telephoneNumber)</text><ellipse cx="535.5" cy="151.4324" fill="#84BE84" rx="3" ry="3" style="stroke:#038048;stroke-width:1.0;"/><text fill="#000000" font-family="sans-serif" font-size="14" lengthAdjust="spacing" textLength="103" x="544.5" y="155.2234">allCandidates()</text></g><!--class CandidateBuilder--><g id="elem_CandidateBuilder"><rect codeLine="45" fill="#F1F1F1" height="80.9766" id="CandidateBuilder" rx="2.5" ry="2.5" style="stroke:#181818;stroke-width:0.5;" width="375" x="1026.5" y="81.2"/><ellipse cx="1150.75" cy="97.2" fill="#ADD1B2" rx="11" ry="11" style="stroke:#181818;stroke-width:1.0;"/><path d="M1153.7231,102.8431 Q1153.1421,103.1419 1152.5029,103.2913 Q1151.8638,103.4407 1151.1582,103.4407 Q1148.6514,103.4407 1147.3315,101.7889 Q1146.0117,100.137 1146.0117,97.0159 Q1146.0117,93.8865 1147.3315,92.2347 Q1148.6514,90.5828 1151.1582,90.5828 Q1151.8638,90.5828 1152.5112,90.7322 Q1153.1587,90.8816 1153.7231,91.1805 L1153.7231,93.9031 Q1153.0923,93.3221 1152.4988,93.0523 Q1151.9053,92.7825 1151.2744,92.7825 Q1149.9297,92.7825 1149.2449,93.8492 Q1148.5601,94.9158 1148.5601,97.0159 Q1148.5601,99.1077 1149.2449,100.1744 Q1149.9297,101.241 1151.2744,101.241 Q1151.9053,101.241 1152.4988,100.9712 Q1153.0923,100.7015 1153.7231,100.1204 Z " fill="#000000"/><text fill="#000000" font-family="sans-serif" font-size="14" lengthAdjust="spacing" textLength="118" x="1171.25" y="102.491">CandidateBuilder</text><line style="stroke:#181818;stroke-width:0.5;" x1="1027.5" x2="1400.5" y1="113.2" y2="113.2"/><line style="stroke:#181818;stroke-width:0.5;" x1="1027.5" x2="1400.5" y1="121.2" y2="121.2"/><ellipse cx="1037.5" cy="134.9441" fill="#84BE84" rx="3" ry="3" style="stroke:#038048;stroke-width:1.0;"/><text fill="#000000" font-family="sans-serif" font-size="14" lengthAdjust="spacing" textLength="349" x="1046.5" y="138.7352">withAll(systemUser, telephoneNumber, curriculum)</text><ellipse cx="1037.5" cy="151.4324" fill="#84BE84" rx="3" ry="3" style="stroke:#038048;stroke-width:1.0;"/><text fill="#000000" font-family="sans-serif" font-size="14" lengthAdjust="spacing" textLength="45" x="1046.5" y="155.2234">build()</text></g><!--class AuthorizationService--><g id="elem_AuthorizationService"><rect codeLine="50" fill="#F1F1F1" height="97.4648" id="AuthorizationService" rx="2.5" ry="2.5" style="stroke:#181818;stroke-width:0.5;" width="465" x="1826.5" y="72.95"/><ellipse cx="1983.25" cy="88.95" fill="#ADD1B2" rx="11" ry="11" style="stroke:#181818;stroke-width:1.0;"/><path d="M1986.2231,94.5931 Q1985.6421,94.8919 1985.0029,95.0413 Q1984.3638,95.1907 1983.6582,95.1907 Q1981.1514,95.1907 1979.8315,93.5389 Q1978.5117,91.887 1978.5117,88.7659 Q1978.5117,85.6365 1979.8315,83.9847 Q1981.1514,82.3328 1983.6582,82.3328 Q1984.3638,82.3328 1985.0112,82.4822 Q1985.6587,82.6316 1986.2231,82.9305 L1986.2231,85.6531 Q1985.5923,85.0721 1984.9988,84.8023 Q1984.4053,84.5325 1983.7744,84.5325 Q1982.4297,84.5325 1981.7449,85.5992 Q1981.0601,86.6658 1981.0601,88.7659 Q1981.0601,90.8577 1981.7449,91.9244 Q1982.4297,92.991 1983.7744,92.991 Q1984.4053,92.991 1984.9988,92.7212 Q1985.5923,92.4515 1986.2231,91.8704 Z " fill="#000000"/><text fill="#000000" font-family="sans-serif" font-size="14" lengthAdjust="spacing" textLength="143" x="2003.75" y="94.241">AuthorizationService</text><line style="stroke:#181818;stroke-width:0.5;" x1="1827.5" x2="2290.5" y1="104.95" y2="104.95"/><line style="stroke:#181818;stroke-width:0.5;" x1="1827.5" x2="2290.5" y1="112.95" y2="112.95"/><ellipse cx="1837.5" cy="126.6941" fill="#84BE84" rx="3" ry="3" style="stroke:#038048;stroke-width:1.0;"/><text fill="#000000" font-family="sans-serif" font-size="14" lengthAdjust="spacing" textLength="151" x="1846.5" y="130.4852">authorizationService()</text><ellipse cx="1837.5" cy="151.4266" fill="#84BE84" rx="3" ry="3" style="stroke:#038048;stroke-width:1.0;"/><text fill="#000000" font-family="sans-serif" font-size="14" lengthAdjust="spacing" textLength="241" x="1846.5" y="146.9734">ensureAuthenticatedUserHasAnyOf</text><text fill="#000000" font-family="sans-serif" font-size="14" lengthAdjust="spacing" textLength="439" x="1846.5" y="163.4617">(Jobs4URoles.CUSTOMER_MANAGER, Jobs4URoles.POWER_USER)</text></g><!--class PersistenceContext--><g id="elem_PersistenceContext"><rect codeLine="56" fill="#F1F1F1" height="80.9766" id="PersistenceContext" rx="2.5" ry="2.5" style="stroke:#181818;stroke-width:0.5;" width="168" x="2326" y="81.2"/><ellipse cx="2342.8" cy="97.2" fill="#ADD1B2" rx="11" ry="11" style="stroke:#181818;stroke-width:1.0;"/><path d="M2345.7731,102.8431 Q2345.1921,103.1419 2344.5529,103.2913 Q2343.9138,103.4407 2343.2082,103.4407 Q2340.7014,103.4407 2339.3815,101.7889 Q2338.0617,100.137 2338.0617,97.0159 Q2338.0617,93.8865 2339.3815,92.2347 Q2340.7014,90.5828 2343.2082,90.5828 Q2343.9138,90.5828 2344.5612,90.7322 Q2345.2087,90.8816 2345.7731,91.1805 L2345.7731,93.9031 Q2345.1423,93.3221 2344.5488,93.0523 Q2343.9553,92.7825 2343.3244,92.7825 Q2341.9797,92.7825 2341.2949,93.8492 Q2340.6101,94.9158 2340.6101,97.0159 Q2340.6101,99.1077 2341.2949,100.1744 Q2341.9797,101.241 2343.3244,101.241 Q2343.9553,101.241 2344.5488,100.9712 Q2345.1423,100.7015 2345.7731,100.1204 Z " fill="#000000"/><text fill="#000000" font-family="sans-serif" font-size="14" lengthAdjust="spacing" textLength="132" x="2357.2" y="102.491">PersistenceContext</text><line style="stroke:#181818;stroke-width:0.5;" x1="2327" x2="2493" y1="113.2" y2="113.2"/><line style="stroke:#181818;stroke-width:0.5;" x1="2327" x2="2493" y1="121.2" y2="121.2"/><ellipse cx="2337" cy="134.9441" fill="#84BE84" rx="3" ry="3" style="stroke:#038048;stroke-width:1.0;"/><text fill="#000000" font-family="sans-serif" font-size="14" lengthAdjust="spacing" textLength="92" x="2346" y="138.7352">repositories()</text><ellipse cx="2337" cy="151.4324" fill="#84BE84" rx="3" ry="3" style="stroke:#038048;stroke-width:1.0;"/><text fill="#000000" font-family="sans-serif" font-size="14" lengthAdjust="spacing" textLength="142" x="2346" y="155.2234">PersistenceContext()</text></g><!--class RepositoryFactory--><g id="elem_RepositoryFactory"><rect codeLine="61" fill="#F1F1F1" height="229.3711" id="RepositoryFactory" rx="2.5" ry="2.5" style="stroke:#181818;stroke-width:0.5;" width="346" x="2529" y="7"/><ellipse cx="2636.25" cy="23" fill="#ADD1B2" rx="11" ry="11" style="stroke:#181818;stroke-width:1.0;"/><path d="M2639.2231,28.6431 Q2638.6421,28.9419 2638.0029,29.0913 Q2637.3638,29.2407 2636.6582,29.2407 Q2634.1514,29.2407 2632.8315,27.5889 Q2631.5117,25.937 2631.5117,22.8159 Q2631.5117,19.6865 2632.8315,18.0347 Q2634.1514,16.3828 2636.6582,16.3828 Q2637.3638,16.3828 2638.0112,16.5322 Q2638.6587,16.6816 2639.2231,16.9805 L2639.2231,19.7031 Q2638.5923,19.1221 2637.9988,18.8523 Q2637.4053,18.5825 2636.7744,18.5825 Q2635.4297,18.5825 2634.7449,19.6492 Q2634.0601,20.7158 2634.0601,22.8159 Q2634.0601,24.9077 2634.7449,25.9744 Q2635.4297,27.041 2636.7744,27.041 Q2637.4053,27.041 2637.9988,26.7712 Q2638.5923,26.5015 2639.2231,25.9204 Z " fill="#000000"/><text fill="#000000" font-family="sans-serif" font-size="14" lengthAdjust="spacing" textLength="123" x="2656.75" y="28.291">RepositoryFactory</text><line style="stroke:#181818;stroke-width:0.5;" x1="2530" x2="2874" y1="39" y2="39"/><line style="stroke:#181818;stroke-width:0.5;" x1="2530" x2="2874" y1="47" y2="47"/><ellipse cx="2540" cy="60.7441" fill="#84BE84" rx="3" ry="3" style="stroke:#038048;stroke-width:1.0;"/><text fill="#000000" font-family="sans-serif" font-size="14" lengthAdjust="spacing" textLength="186" x="2549" y="64.5352">newTransactionalContext()</text><ellipse cx="2540" cy="77.2324" fill="#84BE84" rx="3" ry="3" style="stroke:#038048;stroke-width:1.0;"/><text fill="#000000" font-family="sans-serif" font-size="14" lengthAdjust="spacing" textLength="248" x="2549" y="81.0234">users(TransactionalContext autoTx)</text><ellipse cx="2540" cy="93.7207" fill="#84BE84" rx="3" ry="3" style="stroke:#038048;stroke-width:1.0;"/><text fill="#000000" font-family="sans-serif" font-size="14" lengthAdjust="spacing" textLength="47" x="2549" y="97.5117">users()</text><ellipse cx="2540" cy="110.209" fill="#84BE84" rx="3" ry="3" style="stroke:#038048;stroke-width:1.0;"/><text fill="#000000" font-family="sans-serif" font-size="14" lengthAdjust="spacing" textLength="313" x="2549" y="114">customerUsers(TransactionalContext autoTx)</text><ellipse cx="2540" cy="126.6973" fill="#84BE84" rx="3" ry="3" style="stroke:#038048;stroke-width:1.0;"/><text fill="#000000" font-family="sans-serif" font-size="14" lengthAdjust="spacing" textLength="112" x="2549" y="130.4883">customerUsers()</text><ellipse cx="2540" cy="143.1855" fill="#84BE84" rx="3" ry="3" style="stroke:#038048;stroke-width:1.0;"/><text fill="#000000" font-family="sans-serif" font-size="14" lengthAdjust="spacing" textLength="320" x="2549" y="146.9766">signupRequests(TransactionalContext autoTx)</text><ellipse cx="2540" cy="159.6738" fill="#84BE84" rx="3" ry="3" style="stroke:#038048;stroke-width:1.0;"/><text fill="#000000" font-family="sans-serif" font-size="14" lengthAdjust="spacing" textLength="119" x="2549" y="163.4648">signupRequests()</text><ellipse cx="2540" cy="176.1621" fill="#84BE84" rx="3" ry="3" style="stroke:#038048;stroke-width:1.0;"/><text fill="#000000" font-family="sans-serif" font-size="14" lengthAdjust="spacing" textLength="299" x="2549" y="179.9531">jobOpenings(TransactionalContext autoTx)</text><ellipse cx="2540" cy="192.6504" fill="#84BE84" rx="3" ry="3" style="stroke:#038048;stroke-width:1.0;"/><text fill="#000000" font-family="sans-serif" font-size="14" lengthAdjust="spacing" textLength="98" x="2549" y="196.4414">jobOpenings()</text><ellipse cx="2540" cy="209.1387" fill="#84BE84" rx="3" ry="3" style="stroke:#038048;stroke-width:1.0;"/><text fill="#000000" font-family="sans-serif" font-size="14" lengthAdjust="spacing" textLength="294" x="2549" y="212.9297">applications(TransactionalContext autoTx)</text><ellipse cx="2540" cy="225.627" fill="#84BE84" rx="3" ry="3" style="stroke:#038048;stroke-width:1.0;"/><text fill="#000000" font-family="sans-serif" font-size="14" lengthAdjust="spacing" textLength="93" x="2549" y="229.418">applications()</text></g><!--link DisplayCandidateDataUI to DisplayCandidateDataController--><g id="link_DisplayCandidateDataUI_DisplayCandidateDataController"><path codeLine="85" d="M203.29,122.37 C214.59,122.37 220.23,122.37 231.84,122.37 " fill="none" id="DisplayCandidateDataUI-to-DisplayCandidateDataController" style="stroke:#181818;stroke-width:1.0;"/><polygon fill="#181818" points="237.84,122.37,228.84,118.37,232.84,122.37,228.84,126.37,237.84,122.37" style="stroke:#181818;stroke-width:1.0;"/></g><!--link DisplayCandidateDataController to PersistenceContext--><g id="link_DisplayCandidateDataController_PersistenceContext"><path codeLine="86" d="M322,154.2 C322,195.19 322,260.37 322,260.37 C322,260.37 2410,260.37 2410,260.37 C2410,260.37 2410,209.45 2410,168.54 " fill="none" id="DisplayCandidateDataController-to-PersistenceContext" style="stroke:#181818;stroke-width:1.0;"/><polygon fill="#181818" points="2410,162.54,2406,171.54,2410,167.54,2414,171.54,2410,162.54" style="stroke:#181818;stroke-width:1.0;"/></g><!--link PersistenceContext to RepositoryFactory--><g id="link_PersistenceContext_RepositoryFactory"><path codeLine="87" d="M2494.46,122.37 C2505.41,122.37 2510.92,122.37 2522.68,122.37 " fill="none" id="PersistenceContext-to-RepositoryFactory" style="stroke:#181818;stroke-width:1.0;"/><polygon fill="#181818" points="2528.68,122.37,2519.68,118.37,2523.68,122.37,2519.68,126.37,2528.68,122.37" style="stroke:#181818;stroke-width:1.0;"/></g><!--link DisplayCandidateDataController to AuthorizationService--><g id="link_DisplayCandidateDataController_AuthorizationService"><path codeLine="88" d="M406,154.38 C406,191.62 406,247.37 406,247.37 C406,247.37 2059,247.37 2059,247.37 C2059,247.37 2059,211.93 2059,176.64 " fill="none" id="DisplayCandidateDataController-to-AuthorizationService" style="stroke:#181818;stroke-width:1.0;"/><polygon fill="#181818" points="2059,170.64,2055,179.64,2059,175.64,2063,179.64,2059,170.64" style="stroke:#181818;stroke-width:1.0;"/></g><!--link DisplayCandidateDataController to CandidateService--><g id="link_DisplayCandidateDataController_CandidateService"><path codeLine="89" d="M490.34,122.37 C501.58,122.37 506.97,122.37 518.23,122.37 " fill="none" id="DisplayCandidateDataController-to-CandidateService" style="stroke:#181818;stroke-width:1.0;"/><polygon fill="#181818" points="524.23,122.37,515.23,118.37,519.23,122.37,515.23,126.37,524.23,122.37" style="stroke:#181818;stroke-width:1.0;"/></g><!--link CandidateService to CandidateBuilder--><g id="link_CandidateService_CandidateBuilder"><path codeLine="90" d="M781.7,158.37 C854.09,158.37 939.76,158.37 1020.05,158.37 " fill="none" id="CandidateService-to-CandidateBuilder" style="stroke:#181818;stroke-width:1.0;"/><polygon fill="#181818" points="1026.05,158.37,1017.05,154.37,1021.05,158.37,1017.05,162.37,1026.05,158.37" style="stroke:#181818;stroke-width:1.0;"/></g><!--link CandidateBuilder to Candidate--><g id="link_CandidateBuilder_Candidate"><path codeLine="91" d="M1401.99,122.37 C1413.55,122.37 1419.17,122.37 1430.68,122.37 " fill="none" id="CandidateBuilder-to-Candidate" style="stroke:#181818;stroke-width:1.0;"/><polygon fill="#181818" points="1436.68,122.37,1427.68,118.37,1431.68,122.37,1427.68,126.37,1436.68,122.37" style="stroke:#181818;stroke-width:1.0;"/></g><!--link CandidateService to CandidateRepository--><g id="link_CandidateService_CandidateRepository"><path codeLine="92" d="M781.81,122.37 C793.48,122.37 799.12,122.37 810.32,122.37 " fill="none" id="CandidateService-to-CandidateRepository" style="stroke:#181818;stroke-width:1.0;"/><polygon fill="#181818" points="816.32,122.37,807.32,118.37,811.32,122.37,807.32,126.37,816.32,122.37" style="stroke:#181818;stroke-width:1.0;"/></g><!--SRC=[ZLHDZvim4BtpAtmaQhQddYlHRDfjfNo81FLIgN9WDhWrjkiPcgLL_tlD4Z0GkeMRtxpt68-VZT-5CjpoWacXW2e3J5lATK3QCDBif8bqmJ9X8IMXLH2aaYEoUu56ych5LIOoJd3FYISVVmVCVQzO3Zoh_SB55O32KBK1H7xkWH8AK8HZO6-58h1ZUCiBhvK2wS7zfKVBz27N5xVy4xpKvKehibfAi6stNCgEWOs-aNTemxnZ1tAjdLc9O8T8MbehqbAMnH0drxl9jO9jMPoSwFh7pZXyzbgEUSkUuU96qoArj5juGGU9p4rDKDK1w2OO8GirvM2xwVuekSHGjslIJUzEDJ6968n6GTfMywTt0FjJfD0A7eNA_6P6Er_ymtN2zbqfPEPFyI8eZwGCiKA28favrbDjqkywAbtwhVZ5wxIFEkSJDPzIXQM5MbvFFNKDPdKJ3nmZLUqUlwZmapxXcoJM4l3rAZaSTvjr_7KJRQCFwtZ9-jNzxhCh9OTrtD_v7Yows8DAeGunF15hExFjiGZmr-cMtz-eFydtFEqVg8BBqNA5_Fd2S-crFdOOJb7g0UdZqv3e0uhk9G6Rp9KF1Ls6nLcL9dQf1QHPFYD52t_Jfvq1vP8-owLFxq9gZAnFsibcUGpupJlLVTCFAhjx-vz7B7YvN1lSvY2OY98ZtaHYXldKVPaX6pyEmHWOaAvNFHW30zADHR_ejnRy1G00]--></g></svg>