<?xml version="1.0" encoding="us-ascii" standalone="no"?><svg xmlns="http://www.w3.org/2000/svg" xmlns:xlink="http://www.w3.org/1999/xlink" contentStyleType="text/css" height="690px" preserveAspectRatio="none" style="width:1367px;height:690px;background:#FFFFFF;" version="1.1" viewBox="0 0 1367 690" width="1367px" zoomAndPan="magnify"><defs/><g><!--class DisplayCandidateDataUI--><g id="elem_DisplayCandidateDataUI"><rect codeLine="4" fill="#F1F1F1" height="163.418" id="DisplayCandidateDataUI" rx="2.5" ry="2.5" style="stroke:#181818;stroke-width:0.5;" width="196" x="7" y="39.98"/><ellipse cx="22" cy="55.98" fill="#ADD1B2" rx="11" ry="11" style="stroke:#181818;stroke-width:1.0;"/><path d="M24.9731,61.6231 Q24.3921,61.9219 23.7529,62.0713 Q23.1138,62.2207 22.4082,62.2207 Q19.9014,62.2207 18.5815,60.5689 Q17.2617,58.917 17.2617,55.7959 Q17.2617,52.6665 18.5815,51.0147 Q19.9014,49.3628 22.4082,49.3628 Q23.1138,49.3628 23.7612,49.5122 Q24.4087,49.6616 24.9731,49.9605 L24.9731,52.6831 Q24.3423,52.1021 23.7488,51.8323 Q23.1553,51.5625 22.5244,51.5625 Q21.1797,51.5625 20.4949,52.6292 Q19.8101,53.6958 19.8101,55.7959 Q19.8101,57.8877 20.4949,58.9544 Q21.1797,60.021 22.5244,60.021 Q23.1553,60.021 23.7488,59.7512 Q24.3423,59.4815 24.9731,58.9004 Z " fill="#000000"/><text fill="#000000" font-family="sans-serif" font-size="14" lengthAdjust="spacing" textLength="164" x="36" y="61.271">DisplayCandidateDataUI</text><line style="stroke:#181818;stroke-width:0.5;" x1="8" x2="202" y1="71.98" y2="71.98"/><line style="stroke:#181818;stroke-width:0.5;" x1="8" x2="202" y1="79.98" y2="79.98"/><ellipse cx="18" cy="93.7241" fill="#84BE84" rx="3" ry="3" style="stroke:#038048;stroke-width:1.0;"/><text fill="#000000" font-family="sans-serif" font-size="14" lengthAdjust="spacing" textLength="69" x="27" y="97.5152">headline()</text><ellipse cx="18" cy="110.2124" fill="#84BE84" rx="3" ry="3" style="stroke:#038048;stroke-width:1.0;"/><text fill="#000000" font-family="sans-serif" font-size="14" lengthAdjust="spacing" textLength="111" x="27" y="114.0034">emptyMessage()</text><ellipse cx="18" cy="126.7007" fill="#84BE84" rx="3" ry="3" style="stroke:#038048;stroke-width:1.0;"/><text fill="#000000" font-family="sans-serif" font-size="14" lengthAdjust="spacing" textLength="72" x="27" y="130.4917">elements()</text><ellipse cx="18" cy="143.189" fill="#84BE84" rx="3" ry="3" style="stroke:#038048;stroke-width:1.0;"/><text fill="#000000" font-family="sans-serif" font-size="14" lengthAdjust="spacing" textLength="111" x="27" y="146.98">elementPrinter()</text><ellipse cx="18" cy="159.6773" fill="#84BE84" rx="3" ry="3" style="stroke:#038048;stroke-width:1.0;"/><text fill="#000000" font-family="sans-serif" font-size="14" lengthAdjust="spacing" textLength="104" x="27" y="163.4683">elementName()</text><ellipse cx="18" cy="176.1655" fill="#84BE84" rx="3" ry="3" style="stroke:#038048;stroke-width:1.0;"/><text fill="#000000" font-family="sans-serif" font-size="14" lengthAdjust="spacing" textLength="79" x="27" y="179.9566">listHeader()</text><ellipse cx="18" cy="192.6538" fill="#84BE84" rx="3" ry="3" style="stroke:#038048;stroke-width:1.0;"/><text fill="#000000" font-family="sans-serif" font-size="14" lengthAdjust="spacing" textLength="65" x="27" y="196.4448">doShow()</text></g><!--class DisplayCandidateDataController--><g id="elem_DisplayCandidateDataController"><rect codeLine="15" fill="#F1F1F1" height="64.4883" id="DisplayCandidateDataController" rx="2.5" ry="2.5" style="stroke:#181818;stroke-width:0.5;" width="252" x="238" y="89.44"/><ellipse cx="253" cy="105.44" fill="#ADD1B2" rx="11" ry="11" style="stroke:#181818;stroke-width:1.0;"/><path d="M255.9731,111.0831 Q255.3921,111.3819 254.7529,111.5313 Q254.1138,111.6807 253.4082,111.6807 Q250.9014,111.6807 249.5815,110.0289 Q248.2617,108.377 248.2617,105.2559 Q248.2617,102.1265 249.5815,100.4747 Q250.9014,98.8228 253.4082,98.8228 Q254.1138,98.8228 254.7612,98.9722 Q255.4087,99.1216 255.9731,99.4205 L255.9731,102.1431 Q255.3423,101.5621 254.7488,101.2923 Q254.1553,101.0225 253.5244,101.0225 Q252.1797,101.0225 251.4949,102.0892 Q250.8101,103.1558 250.8101,105.2559 Q250.8101,107.3477 251.4949,108.4144 Q252.1797,109.481 253.5244,109.481 Q254.1553,109.481 254.7488,109.2112 Q255.3423,108.9415 255.9731,108.3604 Z " fill="#000000"/><text fill="#000000" font-family="sans-serif" font-size="14" lengthAdjust="spacing" textLength="220" x="267" y="110.731">DisplayCandidateDataController</text><line style="stroke:#181818;stroke-width:0.5;" x1="239" x2="489" y1="121.44" y2="121.44"/><line style="stroke:#181818;stroke-width:0.5;" x1="239" x2="489" y1="129.44" y2="129.44"/><ellipse cx="249" cy="143.1841" fill="#84BE84" rx="3" ry="3" style="stroke:#038048;stroke-width:1.0;"/><text fill="#000000" font-family="sans-serif" font-size="14" lengthAdjust="spacing" textLength="103" x="258" y="146.9752">allCandidates()</text></g><!--class Candidate--><g id="elem_Candidate"><rect codeLine="19" fill="#F1F1F1" height="229.3711" id="Candidate" rx="2.5" ry="2.5" style="stroke:#181818;stroke-width:0.5;" width="354" x="1006" y="453.84"/><ellipse cx="1143.75" cy="469.84" fill="#ADD1B2" rx="11" ry="11" style="stroke:#181818;stroke-width:1.0;"/><path d="M1146.7231,475.4831 Q1146.1421,475.7819 1145.5029,475.9313 Q1144.8638,476.0807 1144.1582,476.0807 Q1141.6514,476.0807 1140.3315,474.4289 Q1139.0117,472.777 1139.0117,469.6559 Q1139.0117,466.5265 1140.3315,464.8747 Q1141.6514,463.2228 1144.1582,463.2228 Q1144.8638,463.2228 1145.5112,463.3722 Q1146.1587,463.5216 1146.7231,463.8205 L1146.7231,466.5431 Q1146.0923,465.9621 1145.4988,465.6923 Q1144.9053,465.4225 1144.2744,465.4225 Q1142.9297,465.4225 1142.2449,466.4892 Q1141.5601,467.5558 1141.5601,469.6559 Q1141.5601,471.7477 1142.2449,472.8144 Q1142.9297,473.881 1144.2744,473.881 Q1144.9053,473.881 1145.4988,473.6112 Q1146.0923,473.3415 1146.7231,472.7604 Z " fill="#000000"/><text fill="#000000" font-family="sans-serif" font-size="14" lengthAdjust="spacing" textLength="70" x="1164.25" y="475.131">Candidate</text><line style="stroke:#181818;stroke-width:0.5;" x1="1007" x2="1359" y1="485.84" y2="485.84"/><rect fill="none" height="6" style="stroke:#C82930;stroke-width:1.0;" width="6" x="1014" y="496.5841"/><text fill="#000000" font-family="sans-serif" font-size="14" lengthAdjust="spacing" textLength="65" x="1026" y="503.3752">User user</text><rect fill="none" height="6" style="stroke:#C82930;stroke-width:1.0;" width="6" x="1014" y="513.0724"/><text fill="#000000" font-family="sans-serif" font-size="14" lengthAdjust="spacing" textLength="155" x="1026" y="519.8634">Curriculum curriculum</text><rect fill="none" height="6" style="stroke:#C82930;stroke-width:1.0;" width="6" x="1014" y="529.5607"/><text fill="#000000" font-family="sans-serif" font-size="14" lengthAdjust="spacing" textLength="256" x="1026" y="536.3517">TelephoneNumber telephoneNumber</text><line style="stroke:#181818;stroke-width:0.5;" x1="1007" x2="1359" y1="543.3048" y2="543.3048"/><ellipse cx="1017" cy="557.049" fill="#84BE84" rx="3" ry="3" style="stroke:#038048;stroke-width:1.0;"/><text fill="#000000" font-family="sans-serif" font-size="14" lengthAdjust="spacing" textLength="328" x="1026" y="560.84">Candidate( user, telephoneNumber, curriculum)</text><ellipse cx="1017" cy="573.5373" fill="#84BE84" rx="3" ry="3" style="stroke:#038048;stroke-width:1.0;"/><text fill="#000000" font-family="sans-serif" font-size="14" lengthAdjust="spacing" textLength="80" x="1026" y="577.3283">Candidate()</text><ellipse cx="1017" cy="590.0255" fill="#84BE84" rx="3" ry="3" style="stroke:#038048;stroke-width:1.0;"/><text fill="#000000" font-family="sans-serif" font-size="14" lengthAdjust="spacing" textLength="40" x="1026" y="593.8166">user()</text><ellipse cx="1017" cy="606.5138" fill="#84BE84" rx="3" ry="3" style="stroke:#038048;stroke-width:1.0;"/><text fill="#000000" font-family="sans-serif" font-size="14" lengthAdjust="spacing" textLength="84" x="1026" y="610.3048">curriculum()</text><ellipse cx="1017" cy="623.0021" fill="#84BE84" rx="3" ry="3" style="stroke:#038048;stroke-width:1.0;"/><text fill="#000000" font-family="sans-serif" font-size="14" lengthAdjust="spacing" textLength="61" x="1026" y="626.7931">identity()</text><ellipse cx="1017" cy="639.4904" fill="#84BE84" rx="3" ry="3" style="stroke:#038048;stroke-width:1.0;"/><text fill="#000000" font-family="sans-serif" font-size="14" lengthAdjust="spacing" textLength="104" x="1026" y="643.2814">sameAs (other)</text><ellipse cx="1017" cy="655.9787" fill="#84BE84" rx="3" ry="3" style="stroke:#038048;stroke-width:1.0;"/><text fill="#000000" font-family="sans-serif" font-size="14" lengthAdjust="spacing" textLength="64" x="1026" y="659.7697">equals(o)</text><ellipse cx="1017" cy="672.467" fill="#84BE84" rx="3" ry="3" style="stroke:#038048;stroke-width:1.0;"/><text fill="#000000" font-family="sans-serif" font-size="14" lengthAdjust="spacing" textLength="65" x="1026" y="676.258">toString()</text></g><!--class CandidateRepository--><g id="elem_CandidateRepository"><rect codeLine="35" fill="#F1F1F1" height="64.4883" id="CandidateRepository" rx="2.5" ry="2.5" style="stroke:#181818;stroke-width:0.5;" width="175" x="385.5" y="536.28"/><ellipse cx="400.5" cy="552.28" fill="#ADD1B2" rx="11" ry="11" style="stroke:#181818;stroke-width:1.0;"/><path d="M403.4731,557.9231 Q402.8921,558.2219 402.2529,558.3713 Q401.6138,558.5207 400.9082,558.5207 Q398.4014,558.5207 397.0815,556.8689 Q395.7617,555.217 395.7617,552.0959 Q395.7617,548.9665 397.0815,547.3147 Q398.4014,545.6628 400.9082,545.6628 Q401.6138,545.6628 402.2612,545.8122 Q402.9087,545.9616 403.4731,546.2605 L403.4731,548.9831 Q402.8423,548.4021 402.2488,548.1323 Q401.6553,547.8625 401.0244,547.8625 Q399.6797,547.8625 398.9949,548.9292 Q398.3101,549.9958 398.3101,552.0959 Q398.3101,554.1877 398.9949,555.2544 Q399.6797,556.321 401.0244,556.321 Q401.6553,556.321 402.2488,556.0512 Q402.8423,555.7815 403.4731,555.2004 Z " fill="#000000"/><text fill="#000000" font-family="sans-serif" font-size="14" lengthAdjust="spacing" textLength="143" x="414.5" y="557.571">CandidateRepository</text><line style="stroke:#181818;stroke-width:0.5;" x1="386.5" x2="559.5" y1="568.28" y2="568.28"/><line style="stroke:#181818;stroke-width:0.5;" x1="386.5" x2="559.5" y1="576.28" y2="576.28"/><ellipse cx="396.5" cy="590.0241" fill="#84BE84" rx="3" ry="3" style="stroke:#038048;stroke-width:1.0;"/><text fill="#000000" font-family="sans-serif" font-size="14" lengthAdjust="spacing" textLength="103" x="405.5" y="593.8152">allCandidates()</text></g><!--class CandidateService--><g id="elem_CandidateService"><rect codeLine="39" fill="#F1F1F1" height="80.9766" id="CandidateService" rx="2.5" ry="2.5" style="stroke:#181818;stroke-width:0.5;" width="257" x="93.5" y="528.04"/><ellipse cx="158.75" cy="544.04" fill="#ADD1B2" rx="11" ry="11" style="stroke:#181818;stroke-width:1.0;"/><path d="M161.7231,549.6831 Q161.1421,549.9819 160.5029,550.1313 Q159.8638,550.2807 159.1582,550.2807 Q156.6514,550.2807 155.3315,548.6289 Q154.0117,546.977 154.0117,543.8559 Q154.0117,540.7265 155.3315,539.0747 Q156.6514,537.4228 159.1582,537.4228 Q159.8638,537.4228 160.5112,537.5722 Q161.1587,537.7216 161.7231,538.0205 L161.7231,540.7431 Q161.0923,540.1621 160.4988,539.8923 Q159.9053,539.6225 159.2744,539.6225 Q157.9297,539.6225 157.2449,540.6892 Q156.5601,541.7558 156.5601,543.8559 Q156.5601,545.9477 157.2449,547.0144 Q157.9297,548.081 159.2744,548.081 Q159.9053,548.081 160.4988,547.8112 Q161.0923,547.5415 161.7231,546.9604 Z " fill="#000000"/><text fill="#000000" font-family="sans-serif" font-size="14" lengthAdjust="spacing" textLength="118" x="179.25" y="549.331">CandidateService</text><line style="stroke:#181818;stroke-width:0.5;" x1="94.5" x2="349.5" y1="560.04" y2="560.04"/><line style="stroke:#181818;stroke-width:0.5;" x1="94.5" x2="349.5" y1="568.04" y2="568.04"/><ellipse cx="104.5" cy="581.7841" fill="#84BE84" rx="3" ry="3" style="stroke:#038048;stroke-width:1.0;"/><text fill="#000000" font-family="sans-serif" font-size="14" lengthAdjust="spacing" textLength="231" x="113.5" y="585.5752">findCandidate(telephoneNumber)</text><ellipse cx="104.5" cy="598.2724" fill="#84BE84" rx="3" ry="3" style="stroke:#038048;stroke-width:1.0;"/><text fill="#000000" font-family="sans-serif" font-size="14" lengthAdjust="spacing" textLength="103" x="113.5" y="602.0634">allCandidates()</text></g><!--class CandidateBuilder--><g id="elem_CandidateBuilder"><rect codeLine="45" fill="#F1F1F1" height="80.9766" id="CandidateBuilder" rx="2.5" ry="2.5" style="stroke:#181818;stroke-width:0.5;" width="375" x="595.5" y="528.04"/><ellipse cx="719.75" cy="544.04" fill="#ADD1B2" rx="11" ry="11" style="stroke:#181818;stroke-width:1.0;"/><path d="M722.7231,549.6831 Q722.1421,549.9819 721.5029,550.1313 Q720.8638,550.2807 720.1582,550.2807 Q717.6514,550.2807 716.3315,548.6289 Q715.0117,546.977 715.0117,543.8559 Q715.0117,540.7265 716.3315,539.0747 Q717.6514,537.4228 720.1582,537.4228 Q720.8638,537.4228 721.5112,537.5722 Q722.1587,537.7216 722.7231,538.0205 L722.7231,540.7431 Q722.0923,540.1621 721.4988,539.8923 Q720.9053,539.6225 720.2744,539.6225 Q718.9297,539.6225 718.2449,540.6892 Q717.5601,541.7558 717.5601,543.8559 Q717.5601,545.9477 718.2449,547.0144 Q718.9297,548.081 720.2744,548.081 Q720.9053,548.081 721.4988,547.8112 Q722.0923,547.5415 722.7231,546.9604 Z " fill="#000000"/><text fill="#000000" font-family="sans-serif" font-size="14" lengthAdjust="spacing" textLength="118" x="740.25" y="549.331">CandidateBuilder</text><line style="stroke:#181818;stroke-width:0.5;" x1="596.5" x2="969.5" y1="560.04" y2="560.04"/><line style="stroke:#181818;stroke-width:0.5;" x1="596.5" x2="969.5" y1="568.04" y2="568.04"/><ellipse cx="606.5" cy="581.7841" fill="#84BE84" rx="3" ry="3" style="stroke:#038048;stroke-width:1.0;"/><text fill="#000000" font-family="sans-serif" font-size="14" lengthAdjust="spacing" textLength="349" x="615.5" y="585.5752">withAll(systemUser, telephoneNumber, curriculum)</text><ellipse cx="606.5" cy="598.2724" fill="#84BE84" rx="3" ry="3" style="stroke:#038048;stroke-width:1.0;"/><text fill="#000000" font-family="sans-serif" font-size="14" lengthAdjust="spacing" textLength="45" x="615.5" y="602.0634">build()</text></g><!--class AuthorizationService--><g id="elem_AuthorizationService"><rect codeLine="50" fill="#F1F1F1" height="97.4648" id="AuthorizationService" rx="2.5" ry="2.5" style="stroke:#181818;stroke-width:0.5;" width="465" x="274.5" y="296.37"/><ellipse cx="431.25" cy="312.37" fill="#ADD1B2" rx="11" ry="11" style="stroke:#181818;stroke-width:1.0;"/><path d="M434.2231,318.0131 Q433.6421,318.3119 433.0029,318.4613 Q432.3638,318.6107 431.6582,318.6107 Q429.1514,318.6107 427.8315,316.9589 Q426.5117,315.307 426.5117,312.1859 Q426.5117,309.0565 427.8315,307.4047 Q429.1514,305.7528 431.6582,305.7528 Q432.3638,305.7528 433.0112,305.9022 Q433.6587,306.0516 434.2231,306.3505 L434.2231,309.0731 Q433.5923,308.4921 432.9988,308.2223 Q432.4053,307.9525 431.7744,307.9525 Q430.4297,307.9525 429.7449,309.0192 Q429.0601,310.0858 429.0601,312.1859 Q429.0601,314.2777 429.7449,315.3444 Q430.4297,316.411 431.7744,316.411 Q432.4053,316.411 432.9988,316.1412 Q433.5923,315.8715 434.2231,315.2904 Z " fill="#000000"/><text fill="#000000" font-family="sans-serif" font-size="14" lengthAdjust="spacing" textLength="143" x="451.75" y="317.661">AuthorizationService</text><line style="stroke:#181818;stroke-width:0.5;" x1="275.5" x2="738.5" y1="328.37" y2="328.37"/><line style="stroke:#181818;stroke-width:0.5;" x1="275.5" x2="738.5" y1="336.37" y2="336.37"/><ellipse cx="285.5" cy="350.1141" fill="#84BE84" rx="3" ry="3" style="stroke:#038048;stroke-width:1.0;"/><text fill="#000000" font-family="sans-serif" font-size="14" lengthAdjust="spacing" textLength="151" x="294.5" y="353.9052">authorizationService()</text><ellipse cx="285.5" cy="374.8466" fill="#84BE84" rx="3" ry="3" style="stroke:#038048;stroke-width:1.0;"/><text fill="#000000" font-family="sans-serif" font-size="14" lengthAdjust="spacing" textLength="241" x="294.5" y="370.3934">ensureAuthenticatedUserHasAnyOf</text><text fill="#000000" font-family="sans-serif" font-size="14" lengthAdjust="spacing" textLength="439" x="294.5" y="386.8817">(Jobs4URoles.CUSTOMER_MANAGER, Jobs4URoles.POWER_USER)</text></g><!--class PersistenceContext--><g id="elem_PersistenceContext"><rect codeLine="56" fill="#F1F1F1" height="80.9766" id="PersistenceContext" rx="2.5" ry="2.5" style="stroke:#181818;stroke-width:0.5;" width="168" x="525" y="81.2"/><ellipse cx="541.8" cy="97.2" fill="#ADD1B2" rx="11" ry="11" style="stroke:#181818;stroke-width:1.0;"/><path d="M544.7731,102.8431 Q544.1921,103.1419 543.5529,103.2913 Q542.9138,103.4407 542.2082,103.4407 Q539.7014,103.4407 538.3815,101.7889 Q537.0617,100.137 537.0617,97.0159 Q537.0617,93.8865 538.3815,92.2347 Q539.7014,90.5828 542.2082,90.5828 Q542.9138,90.5828 543.5612,90.7322 Q544.2087,90.8816 544.7731,91.1805 L544.7731,93.9031 Q544.1423,93.3221 543.5488,93.0523 Q542.9553,92.7825 542.3244,92.7825 Q540.9797,92.7825 540.2949,93.8492 Q539.6101,94.9158 539.6101,97.0159 Q539.6101,99.1077 540.2949,100.1744 Q540.9797,101.241 542.3244,101.241 Q542.9553,101.241 543.5488,100.9712 Q544.1423,100.7015 544.7731,100.1204 Z " fill="#000000"/><text fill="#000000" font-family="sans-serif" font-size="14" lengthAdjust="spacing" textLength="132" x="556.2" y="102.491">PersistenceContext</text><line style="stroke:#181818;stroke-width:0.5;" x1="526" x2="692" y1="113.2" y2="113.2"/><line style="stroke:#181818;stroke-width:0.5;" x1="526" x2="692" y1="121.2" y2="121.2"/><ellipse cx="536" cy="134.9441" fill="#84BE84" rx="3" ry="3" style="stroke:#038048;stroke-width:1.0;"/><text fill="#000000" font-family="sans-serif" font-size="14" lengthAdjust="spacing" textLength="92" x="545" y="138.7352">repositories()</text><ellipse cx="536" cy="151.4324" fill="#84BE84" rx="3" ry="3" style="stroke:#038048;stroke-width:1.0;"/><text fill="#000000" font-family="sans-serif" font-size="14" lengthAdjust="spacing" textLength="142" x="545" y="155.2234">PersistenceContext()</text></g><!--class RepositoryFactory--><g id="elem_RepositoryFactory"><rect codeLine="61" fill="#F1F1F1" height="229.3711" id="RepositoryFactory" rx="2.5" ry="2.5" style="stroke:#181818;stroke-width:0.5;" width="346" x="728" y="7"/><ellipse cx="835.25" cy="23" fill="#ADD1B2" rx="11" ry="11" style="stroke:#181818;stroke-width:1.0;"/><path d="M838.2231,28.6431 Q837.6421,28.9419 837.0029,29.0913 Q836.3638,29.2407 835.6582,29.2407 Q833.1514,29.2407 831.8315,27.5889 Q830.5117,25.937 830.5117,22.8159 Q830.5117,19.6865 831.8315,18.0347 Q833.1514,16.3828 835.6582,16.3828 Q836.3638,16.3828 837.0112,16.5322 Q837.6587,16.6816 838.2231,16.9805 L838.2231,19.7031 Q837.5923,19.1221 836.9988,18.8523 Q836.4053,18.5825 835.7744,18.5825 Q834.4297,18.5825 833.7449,19.6492 Q833.0601,20.7158 833.0601,22.8159 Q833.0601,24.9077 833.7449,25.9744 Q834.4297,27.041 835.7744,27.041 Q836.4053,27.041 836.9988,26.7712 Q837.5923,26.5015 838.2231,25.9204 Z " fill="#000000"/><text fill="#000000" font-family="sans-serif" font-size="14" lengthAdjust="spacing" textLength="123" x="855.75" y="28.291">RepositoryFactory</text><line style="stroke:#181818;stroke-width:0.5;" x1="729" x2="1073" y1="39" y2="39"/><line style="stroke:#181818;stroke-width:0.5;" x1="729" x2="1073" y1="47" y2="47"/><ellipse cx="739" cy="60.7441" fill="#84BE84" rx="3" ry="3" style="stroke:#038048;stroke-width:1.0;"/><text fill="#000000" font-family="sans-serif" font-size="14" lengthAdjust="spacing" textLength="186" x="748" y="64.5352">newTransactionalContext()</text><ellipse cx="739" cy="77.2324" fill="#84BE84" rx="3" ry="3" style="stroke:#038048;stroke-width:1.0;"/><text fill="#000000" font-family="sans-serif" font-size="14" lengthAdjust="spacing" textLength="248" x="748" y="81.0234">users(TransactionalContext autoTx)</text><ellipse cx="739" cy="93.7207" fill="#84BE84" rx="3" ry="3" style="stroke:#038048;stroke-width:1.0;"/><text fill="#000000" font-family="sans-serif" font-size="14" lengthAdjust="spacing" textLength="47" x="748" y="97.5117">users()</text><ellipse cx="739" cy="110.209" fill="#84BE84" rx="3" ry="3" style="stroke:#038048;stroke-width:1.0;"/><text fill="#000000" font-family="sans-serif" font-size="14" lengthAdjust="spacing" textLength="313" x="748" y="114">customerUsers(TransactionalContext autoTx)</text><ellipse cx="739" cy="126.6973" fill="#84BE84" rx="3" ry="3" style="stroke:#038048;stroke-width:1.0;"/><text fill="#000000" font-family="sans-serif" font-size="14" lengthAdjust="spacing" textLength="112" x="748" y="130.4883">customerUsers()</text><ellipse cx="739" cy="143.1855" fill="#84BE84" rx="3" ry="3" style="stroke:#038048;stroke-width:1.0;"/><text fill="#000000" font-family="sans-serif" font-size="14" lengthAdjust="spacing" textLength="320" x="748" y="146.9766">signupRequests(TransactionalContext autoTx)</text><ellipse cx="739" cy="159.6738" fill="#84BE84" rx="3" ry="3" style="stroke:#038048;stroke-width:1.0;"/><text fill="#000000" font-family="sans-serif" font-size="14" lengthAdjust="spacing" textLength="119" x="748" y="163.4648">signupRequests()</text><ellipse cx="739" cy="176.1621" fill="#84BE84" rx="3" ry="3" style="stroke:#038048;stroke-width:1.0;"/><text fill="#000000" font-family="sans-serif" font-size="14" lengthAdjust="spacing" textLength="299" x="748" y="179.9531">jobOpenings(TransactionalContext autoTx)</text><ellipse cx="739" cy="192.6504" fill="#84BE84" rx="3" ry="3" style="stroke:#038048;stroke-width:1.0;"/><text fill="#000000" font-family="sans-serif" font-size="14" lengthAdjust="spacing" textLength="98" x="748" y="196.4414">jobOpenings()</text><ellipse cx="739" cy="209.1387" fill="#84BE84" rx="3" ry="3" style="stroke:#038048;stroke-width:1.0;"/><text fill="#000000" font-family="sans-serif" font-size="14" lengthAdjust="spacing" textLength="294" x="748" y="212.9297">applications(TransactionalContext autoTx)</text><ellipse cx="739" cy="225.627" fill="#84BE84" rx="3" ry="3" style="stroke:#038048;stroke-width:1.0;"/><text fill="#000000" font-family="sans-serif" font-size="14" lengthAdjust="spacing" textLength="93" x="748" y="229.418">applications()</text></g><!--link DisplayCandidateDataUI to DisplayCandidateDataController--><g id="link_DisplayCandidateDataUI_DisplayCandidateDataController"><path codeLine="85" d="M203.29,122.21 C214.59,122.21 220.23,122.21 231.84,122.21 " fill="none" id="DisplayCandidateDataUI-to-DisplayCandidateDataController" style="stroke:#181818;stroke-width:1.0;"/><polygon fill="#181818" points="237.84,122.21,228.84,118.21,232.84,122.21,228.84,126.21,237.84,122.21" style="stroke:#181818;stroke-width:1.0;"/></g><!--link DisplayCandidateDataController to PersistenceContext--><g id="link_DisplayCandidateDataController_PersistenceContext"><path codeLine="86" d="M490.45,122.21 C502.03,122.21 507.57,122.21 518.64,122.21 " fill="none" id="DisplayCandidateDataController-to-PersistenceContext" style="stroke:#181818;stroke-width:1.0;"/><polygon fill="#181818" points="524.64,122.21,515.64,118.21,519.64,122.21,515.64,126.21,524.64,122.21" style="stroke:#181818;stroke-width:1.0;"/></g><!--link PersistenceContext to RepositoryFactory--><g id="link_PersistenceContext_RepositoryFactory"><path codeLine="87" d="M693.46,122.21 C704.41,122.21 709.92,122.21 721.68,122.21 " fill="none" id="PersistenceContext-to-RepositoryFactory" style="stroke:#181818;stroke-width:1.0;"/><polygon fill="#181818" points="727.68,122.21,718.68,118.21,722.68,122.21,718.68,126.21,727.68,122.21" style="stroke:#181818;stroke-width:1.0;"/></g><!--link DisplayCandidateDataController to AuthorizationService--><g id="link_DisplayCandidateDataController_AuthorizationService"><path codeLine="88" d="M382.25,154.18 C382.25,191.45 382.25,246.97 382.25,290.08 " fill="none" id="DisplayCandidateDataController-to-AuthorizationService" style="stroke:#181818;stroke-width:1.0;"/><polygon fill="#181818" points="382.25,296.08,386.25,287.08,382.25,291.08,378.25,287.08,382.25,296.08" style="stroke:#181818;stroke-width:1.0;"/></g><!--link DisplayCandidateDataController to CandidateService--><g id="link_DisplayCandidateDataController_CandidateService"><path codeLine="89" d="M256.25,154.18 C256.25,234.01 256.25,433.63 256.25,521.6 " fill="none" id="DisplayCandidateDataController-to-CandidateService" style="stroke:#181818;stroke-width:1.0;"/><polygon fill="#181818" points="256.25,527.6,260.25,518.6,256.25,522.6,252.25,518.6,256.25,527.6" style="stroke:#181818;stroke-width:1.0;"/></g><!--link CandidateService to CandidateBuilder--><g id="link_CandidateService_CandidateBuilder"><path codeLine="90" d="M350.7,532.21 C423.09,532.21 508.76,532.21 589.05,532.21 " fill="none" id="CandidateService-to-CandidateBuilder" style="stroke:#181818;stroke-width:1.0;"/><polygon fill="#181818" points="595.05,532.21,586.05,528.21,590.05,532.21,586.05,536.21,595.05,532.21" style="stroke:#181818;stroke-width:1.0;"/></g><!--link CandidateBuilder to Candidate--><g id="link_CandidateBuilder_Candidate"><path codeLine="91" d="M970.99,569.21 C982.55,569.21 988.17,569.21 999.68,569.21 " fill="none" id="CandidateBuilder-to-Candidate" style="stroke:#181818;stroke-width:1.0;"/><polygon fill="#181818" points="1005.68,569.21,996.68,565.21,1000.68,569.21,996.68,573.21,1005.68,569.21" style="stroke:#181818;stroke-width:1.0;"/></g><!--link CandidateService to CandidateRepository--><g id="link_CandidateService_CandidateRepository"><path codeLine="92" d="M350.81,569.21 C362.48,569.21 368.12,569.21 379.32,569.21 " fill="none" id="CandidateService-to-CandidateRepository" style="stroke:#181818;stroke-width:1.0;"/><polygon fill="#181818" points="385.32,569.21,376.32,565.21,380.32,569.21,376.32,573.21,385.32,569.21" style="stroke:#181818;stroke-width:1.0;"/></g><!--SRC=[ZLHDZvim4BtpAtmaQhQddYlHRBRRIlaG2UgbKkN0R71hREePcgLL_tlD1en3w0OEKJpptlDu_CRuGwYI6rumAHHGNGBJXd8Ta2uPQNRGHBfWcJ2Gaj0g25B94Tczm5BoUi5L9Z9ESC-99v_-1Cn-RrWEF6lqmbaRWAAaUWM8_EW59HIW28U1hH6Am0p3QrxqN2cG7kqk7YpJkroVxF9ly5gL2wt8Q2d1TDLoAHq2p_mptKNFo3kM81XMsPzslQYC4MabguAbxc-RszkoormhM5V5mTBeSXsqcxizmXVX-H0tzvHdLvmkqb3TeYUuaCXi0mNLBe2scH6oK5CEnZNwPyKbXhfRazwHlOkZPOqq9OPIeo1jwkcDt87v9LBe24z2PVrX1YUV_KTrHFP39MJMN-X9K1v96MAD14KoiQs7HiIlEghi81ZncpV67rJEHtAzOHLM1Xfwq_NK5fWrHJnoZ5IzUVggmi_wWE-IM4l0jujajz-ibl6tLRIEFYxZEVEpsyqNcqfsozW_-HOCsWa0bKBZPtWcrbLckciHq4_MDTu_Q7-J3pprBrJ1QM-uGluo-rpstDvs68v1cWRf_VCbi3SesaS5J3ALVabm7XP7LPMnTIqWJT8PCBhmTttObA2iqoUf-71dqhAKpKrRsYID2_pvoNBV-DlAxjxVUC-2rzEDmBKFWX4hMU2L9MwAMzBOmDpcMUBmVGY60UQ3scaFXe4Bq9M4d-nF5_m3]--></g></svg>