<?xml version="1.0" encoding="us-ascii" standalone="no"?><svg xmlns="http://www.w3.org/2000/svg" xmlns:xlink="http://www.w3.org/1999/xlink" contentStyleType="text/css" height="1018.2px" preserveAspectRatio="none" style="width:1727px;height:1018px;background:#FFFFFF;" version="1.1" viewBox="0 0 1727 1018" width="1727.4px" zoomAndPan="magnify"><defs/><g><text fill="#000000" font-family="sans-serif" font-size="8.4" font-weight="bold" lengthAdjust="spacing" textLength="152.4" x="783.3" y="15.0645">Class Diagram - Register a customer</text><!--cluster ui--><g id="cluster_ui"><path d="M1095.3,27.3809 L1103.7,27.3809 A2.25,2.25 0 0 1 1105.2,28.8809 L1109.4,42.1535 L1223.1,42.1535 A1.5,1.5 0 0 1 1224.6,43.6535 L1224.6,153.6809 A1.5,1.5 0 0 1 1223.1,155.1809 L1095.3,155.1809 A1.5,1.5 0 0 1 1093.8,153.6809 L1093.8,28.8809 A1.5,1.5 0 0 1 1095.3,27.3809 " fill="none" style="stroke:#000000;stroke-width:0.8999999999999999;"/><line style="stroke:#000000;stroke-width:0.8999999999999999;" x1="1093.8" x2="1109.4" y1="42.1535" y2="42.1535"/><text fill="#000000" font-family="sans-serif" font-size="8.4" font-weight="bold" lengthAdjust="spacing" textLength="7.8" x="1096.2" y="37.6453">ui</text></g><!--cluster customer--><g id="cluster_customer"><path d="M619.5,169.5809 L659.7,169.5809 A2.25,2.25 0 0 1 661.2,171.0809 L665.4,184.3535 L1350.9,184.3535 A1.5,1.5 0 0 1 1352.4,185.8535 L1352.4,858.6809 A1.5,1.5 0 0 1 1350.9,860.1809 L619.5,860.1809 A1.5,1.5 0 0 1 618,858.6809 L618,171.0809 A1.5,1.5 0 0 1 619.5,169.5809 " fill="none" style="stroke:#000000;stroke-width:0.8999999999999999;"/><line style="stroke:#000000;stroke-width:0.8999999999999999;" x1="618" x2="665.4" y1="184.3535" y2="184.3535"/><text fill="#000000" font-family="sans-serif" font-size="8.4" font-weight="bold" lengthAdjust="spacing" textLength="39.6" x="620.4" y="179.8453">customer</text></g><!--cluster application--><g id="cluster_application"><path d="M675.3,196.5809 L722.1,196.5809 A2.25,2.25 0 0 1 723.6,198.0809 L727.8,211.3535 L1294.5,211.3535 A1.5,1.5 0 0 1 1296,212.8535 L1296,289.2809 A1.5,1.5 0 0 1 1294.5,290.7809 L675.3,290.7809 A1.5,1.5 0 0 1 673.8,289.2809 L673.8,198.0809 A1.5,1.5 0 0 1 675.3,196.5809 " fill="none" style="stroke:#000000;stroke-width:0.8999999999999999;"/><line style="stroke:#000000;stroke-width:0.8999999999999999;" x1="673.8" x2="727.8" y1="211.3535" y2="211.3535"/><text fill="#000000" font-family="sans-serif" font-size="8.4" font-weight="bold" lengthAdjust="spacing" textLength="46.2" x="676.2" y="206.8453">application</text></g><!--cluster domain--><g id="cluster_domain"><path d="M633.9,462.9809 L665.1,462.9809 A2.25,2.25 0 0 1 666.6,464.4809 L670.8,477.7535 L1158.9,477.7535 A1.5,1.5 0 0 1 1160.4,479.2535 L1160.4,844.2809 A1.5,1.5 0 0 1 1158.9,845.7809 L633.9,845.7809 A1.5,1.5 0 0 1 632.4,844.2809 L632.4,464.4809 A1.5,1.5 0 0 1 633.9,462.9809 " fill="none" style="stroke:#000000;stroke-width:0.8999999999999999;"/><line style="stroke:#000000;stroke-width:0.8999999999999999;" x1="632.4" x2="670.8" y1="477.7535" y2="477.7535"/><text fill="#000000" font-family="sans-serif" font-size="8.4" font-weight="bold" lengthAdjust="spacing" textLength="30.6" x="634.8" y="473.2453">domain</text></g><!--cluster repositories--><g id="cluster_repositories"><path d="M1176.3,502.2809 L1228.5,502.2809 A2.25,2.25 0 0 1 1230,503.7809 L1234.2,517.0535 L1336.5,517.0535 A1.5,1.5 0 0 1 1338,518.5535 L1338,583.5809 A1.5,1.5 0 0 1 1336.5,585.0809 L1176.3,585.0809 A1.5,1.5 0 0 1 1174.8,583.5809 L1174.8,503.7809 A1.5,1.5 0 0 1 1176.3,502.2809 " fill="none" style="stroke:#000000;stroke-width:0.8999999999999999;"/><line style="stroke:#000000;stroke-width:0.8999999999999999;" x1="1174.8" x2="1234.2" y1="517.0535" y2="517.0535"/><text fill="#000000" font-family="sans-serif" font-size="8.4" font-weight="bold" lengthAdjust="spacing" textLength="51.6" x="1177.2" y="512.5453">repositories</text></g><!--cluster services--><g id="cluster_services"><path d="M709.5,348.9809 L746.7,348.9809 A2.25,2.25 0 0 1 748.2,350.4809 L752.4,363.7535 L1020.9,363.7535 A1.5,1.5 0 0 1 1022.4,365.2535 L1022.4,430.2809 A1.5,1.5 0 0 1 1020.9,431.7809 L709.5,431.7809 A1.5,1.5 0 0 1 708,430.2809 L708,350.4809 A1.5,1.5 0 0 1 709.5,348.9809 " fill="none" style="stroke:#000000;stroke-width:0.8999999999999999;"/><line style="stroke:#000000;stroke-width:0.8999999999999999;" x1="708" x2="752.4" y1="363.7535" y2="363.7535"/><text fill="#000000" font-family="sans-serif" font-size="8.4" font-weight="bold" lengthAdjust="spacing" textLength="36.6" x="710.4" y="359.2453">services</text></g><!--cluster company--><g id="cluster_company"><path d="M1368.3,175.2809 L1406.1,175.2809 A2.25,2.25 0 0 1 1407.6,176.7809 L1411.8,190.0535 L1721.7,190.0535 A1.5,1.5 0 0 1 1723.2,191.5535 L1723.2,1012.8809 A1.5,1.5 0 0 1 1721.7,1014.3809 L1368.3,1014.3809 A1.5,1.5 0 0 1 1366.8,1012.8809 L1366.8,176.7809 A1.5,1.5 0 0 1 1368.3,175.2809 " fill="none" style="stroke:#000000;stroke-width:0.8999999999999999;"/><line style="stroke:#000000;stroke-width:0.8999999999999999;" x1="1366.8" x2="1411.8" y1="190.0535" y2="190.0535"/><text fill="#000000" font-family="sans-serif" font-size="8.4" font-weight="bold" lengthAdjust="spacing" textLength="37.2" x="1369.2" y="185.5453">company</text></g><!--cluster application--><g id="cluster_application"><path d="M1382.7,202.2809 L1429.5,202.2809 A2.25,2.25 0 0 1 1431,203.7809 L1435.2,217.0535 L1676.1,217.0535 A1.5,1.5 0 0 1 1677.6,218.5535 L1677.6,283.5809 A1.5,1.5 0 0 1 1676.1,285.0809 L1382.7,285.0809 A1.5,1.5 0 0 1 1381.2,283.5809 L1381.2,203.7809 A1.5,1.5 0 0 1 1382.7,202.2809 " fill="none" style="stroke:#000000;stroke-width:0.8999999999999999;"/><line style="stroke:#000000;stroke-width:0.8999999999999999;" x1="1381.2" x2="1435.2" y1="217.0535" y2="217.0535"/><text fill="#000000" font-family="sans-serif" font-size="8.4" font-weight="bold" lengthAdjust="spacing" textLength="46.2" x="1383.6" y="212.5453">application</text></g><!--cluster domain--><g id="cluster_domain"><path d="M1382.7,485.4809 L1413.9,485.4809 A2.25,2.25 0 0 1 1415.4,486.9809 L1419.6,500.2535 L1577.7,500.2535 A1.5,1.5 0 0 1 1579.2,501.7535 L1579.2,998.4809 A1.5,1.5 0 0 1 1577.7,999.9809 L1382.7,999.9809 A1.5,1.5 0 0 1 1381.2,998.4809 L1381.2,486.9809 A1.5,1.5 0 0 1 1382.7,485.4809 " fill="none" style="stroke:#000000;stroke-width:0.8999999999999999;"/><line style="stroke:#000000;stroke-width:0.8999999999999999;" x1="1381.2" x2="1419.6" y1="500.2535" y2="500.2535"/><text fill="#000000" font-family="sans-serif" font-size="8.4" font-weight="bold" lengthAdjust="spacing" textLength="30.6" x="1383.6" y="495.7453">domain</text></g><!--cluster repositories--><g id="cluster_repositories"><path d="M1595.1,502.2809 L1647.3,502.2809 A2.25,2.25 0 0 1 1648.8,503.7809 L1653,517.0535 L1707.3,517.0535 A1.5,1.5 0 0 1 1708.8,518.5535 L1708.8,583.5809 A1.5,1.5 0 0 1 1707.3,585.0809 L1595.1,585.0809 A1.5,1.5 0 0 1 1593.6,583.5809 L1593.6,503.7809 A1.5,1.5 0 0 1 1595.1,502.2809 " fill="none" style="stroke:#000000;stroke-width:0.8999999999999999;"/><line style="stroke:#000000;stroke-width:0.8999999999999999;" x1="1593.6" x2="1653" y1="517.0535" y2="517.0535"/><text fill="#000000" font-family="sans-serif" font-size="8.4" font-weight="bold" lengthAdjust="spacing" textLength="51.6" x="1596" y="512.5453">repositories</text></g><!--cluster services--><g id="cluster_services"><path d="M1388.1,343.2809 L1425.3,343.2809 A2.25,2.25 0 0 1 1426.8,344.7809 L1431,358.0535 L1543.5,358.0535 A1.5,1.5 0 0 1 1545,359.5535 L1545,435.9809 A1.5,1.5 0 0 1 1543.5,437.4809 L1388.1,437.4809 A1.5,1.5 0 0 1 1386.6,435.9809 L1386.6,344.7809 A1.5,1.5 0 0 1 1388.1,343.2809 " fill="none" style="stroke:#000000;stroke-width:0.8999999999999999;"/><line style="stroke:#000000;stroke-width:0.8999999999999999;" x1="1386.6" x2="1431" y1="358.0535" y2="358.0535"/><text fill="#000000" font-family="sans-serif" font-size="8.4" font-weight="bold" lengthAdjust="spacing" textLength="36.6" x="1389" y="353.5453">services</text></g><!--cluster user--><g id="cluster_user"><path d="M5.1,305.1809 L24.9,305.1809 A2.25,2.25 0 0 1 26.4,306.6809 L30.6,319.9535 L602.1,319.9535 A1.5,1.5 0 0 1 603.6,321.4535 L603.6,603.6809 A1.5,1.5 0 0 1 602.1,605.1809 L5.1,605.1809 A1.5,1.5 0 0 1 3.6,603.6809 L3.6,306.6809 A1.5,1.5 0 0 1 5.1,305.1809 " fill="none" style="stroke:#000000;stroke-width:0.8999999999999999;"/><line style="stroke:#000000;stroke-width:0.8999999999999999;" x1="3.6" x2="30.6" y1="319.9535" y2="319.9535"/><text fill="#000000" font-family="sans-serif" font-size="8.4" font-weight="bold" lengthAdjust="spacing" textLength="19.2" x="6" y="315.4453">user</text></g><!--cluster application--><g id="cluster_application"><path d="M19.5,332.1809 L66.3,332.1809 A2.25,2.25 0 0 1 67.8,333.6809 L72,346.9535 L587.7,346.9535 A1.5,1.5 0 0 1 589.2,348.4535 L589.2,447.0809 A1.5,1.5 0 0 1 587.7,448.5809 L19.5,448.5809 A1.5,1.5 0 0 1 18,447.0809 L18,333.6809 A1.5,1.5 0 0 1 19.5,332.1809 " fill="none" style="stroke:#000000;stroke-width:0.8999999999999999;"/><line style="stroke:#000000;stroke-width:0.8999999999999999;" x1="18" x2="72" y1="346.9535" y2="346.9535"/><text fill="#000000" font-family="sans-serif" font-size="8.4" font-weight="bold" lengthAdjust="spacing" textLength="46.2" x="20.4" y="342.4453">application</text></g><!--cluster domain--><g id="cluster_domain"><path d="M100.5,496.5809 L131.7,496.5809 A2.25,2.25 0 0 1 133.2,498.0809 L137.4,511.3535 L233.1,511.3535 A1.5,1.5 0 0 1 234.6,512.8535 L234.6,589.2809 A1.5,1.5 0 0 1 233.1,590.7809 L100.5,590.7809 A1.5,1.5 0 0 1 99,589.2809 L99,498.0809 A1.5,1.5 0 0 1 100.5,496.5809 " fill="none" style="stroke:#000000;stroke-width:0.8999999999999999;"/><line style="stroke:#000000;stroke-width:0.8999999999999999;" x1="99" x2="137.4" y1="511.3535" y2="511.3535"/><text fill="#000000" font-family="sans-serif" font-size="8.4" font-weight="bold" lengthAdjust="spacing" textLength="30.6" x="101.4" y="506.8453">domain</text></g><!--class RegisterCustomerUI--><g id="elem_RegisterCustomerUI"><rect codeLine="7" fill="#F1F1F1" height="95.8359" id="RegisterCustomerUI" rx="1.5" ry="1.5" style="stroke:#181818;stroke-width:0.3;" width="111.6" x="1103.4" y="49.5809"/><ellipse cx="1119.96" cy="59.1809" fill="#ADD1B2" rx="6.6" ry="6.6" style="stroke:#181818;stroke-width:0.6;"/><path d="M1121.6194,56.7059 Q1121.7131,56.5746 1121.8256,56.509 Q1121.9381,56.4434 1122.0694,56.4434 Q1122.2944,56.4434 1122.435,56.6027 Q1122.5756,56.7527 1122.5756,57.1184 L1122.5756,57.9902 Q1122.5756,58.3559 1122.435,58.5152 Q1122.2944,58.6746 1122.0694,58.6746 Q1121.8631,58.6746 1121.7412,58.5527 Q1121.6194,58.4402 1121.5537,58.1309 Q1121.5256,57.9152 1121.4131,57.8027 Q1121.2163,57.5777 1120.8506,57.4465 Q1120.485,57.3152 1120.11,57.3152 Q1119.6506,57.3152 1119.2663,57.5121 Q1118.8913,57.709 1118.5913,58.159 Q1118.3006,58.609 1118.3006,59.2277 L1118.3006,59.884 Q1118.3006,60.6246 1118.835,61.1215 Q1119.3694,61.609 1120.3256,61.609 Q1120.8881,61.609 1121.2819,61.459 Q1121.5163,61.3652 1121.7694,61.1027 Q1121.9287,60.9434 1122.0131,60.8965 Q1122.1069,60.8496 1122.2288,60.8496 Q1122.4256,60.8496 1122.5756,61.009 Q1122.735,61.159 1122.735,61.3652 Q1122.735,61.5715 1122.5288,61.8152 Q1122.2288,62.1621 1121.7506,62.359 Q1121.1038,62.6309 1120.3256,62.6309 Q1119.4163,62.6309 1118.6944,62.2559 Q1118.1038,61.9559 1117.6912,61.3184 Q1117.2788,60.6715 1117.2788,59.9027 L1117.2788,59.209 Q1117.2788,58.4121 1117.6444,57.7277 Q1118.0194,57.034 1118.6756,56.6684 Q1119.3319,56.2934 1120.0725,56.2934 Q1120.5131,56.2934 1120.8975,56.3965 Q1121.2913,56.4902 1121.6194,56.7059 Z " fill="#000000"/><text fill="#000000" font-family="sans-serif" font-size="8.4" lengthAdjust="spacing" textLength="75.6" x="1130.04" y="62.659">RegisterCustomerUI</text><line style="stroke:#181818;stroke-width:0.3;" x1="1104" x2="1214.4" y1="68.7809" y2="68.7809"/><line style="stroke:#181818;stroke-width:0.3;" x1="1104" x2="1214.4" y1="73.5809" y2="73.5809"/><text fill="#000000" font-family="sans-serif" font-size="8.4" lengthAdjust="spacing" textLength="40.8" x="1107" y="85.0453">+doShow()</text><text fill="#000000" font-family="sans-serif" font-size="8.4" lengthAdjust="spacing" textLength="104.4" x="1107" y="96.218">+selectOrCreateCompany()</text><text fill="#000000" font-family="sans-serif" font-size="8.4" lengthAdjust="spacing" textLength="72.6" x="1107" y="107.3906">+showCompanies()</text><text fill="#000000" font-family="sans-serif" font-size="8.4" lengthAdjust="spacing" textLength="69" x="1107" y="118.5633">+selectCompany()</text><text fill="#000000" font-family="sans-serif" font-size="8.4" lengthAdjust="spacing" textLength="86.4" x="1107" y="129.7359">+createNewCompany()</text><text fill="#000000" font-family="sans-serif" font-size="8.4" lengthAdjust="spacing" textLength="43.2" x="1107" y="140.9086">+headline()</text></g><!--class AddCustomerController--><g id="elem_AddCustomerController"><rect codeLine="21" fill="#F1F1F1" height="62.318" id="AddCustomerController" rx="1.5" ry="1.5" style="stroke:#181818;stroke-width:0.3;" width="363.6" x="683.4" y="218.7809"/><ellipse cx="818.25" cy="228.3809" fill="#ADD1B2" rx="6.6" ry="6.6" style="stroke:#181818;stroke-width:0.6;"/><path d="M819.9094,225.9059 Q820.0031,225.7746 820.1156,225.709 Q820.2281,225.6434 820.3594,225.6434 Q820.5844,225.6434 820.725,225.8027 Q820.8656,225.9527 820.8656,226.3184 L820.8656,227.1902 Q820.8656,227.5559 820.725,227.7152 Q820.5844,227.8746 820.3594,227.8746 Q820.1531,227.8746 820.0313,227.7527 Q819.9094,227.6402 819.8438,227.3309 Q819.8156,227.1152 819.7031,227.0027 Q819.5063,226.7777 819.1406,226.6465 Q818.775,226.5152 818.4,226.5152 Q817.9406,226.5152 817.5563,226.7121 Q817.1813,226.909 816.8813,227.359 Q816.5906,227.809 816.5906,228.4277 L816.5906,229.084 Q816.5906,229.8246 817.125,230.3215 Q817.6594,230.809 818.6156,230.809 Q819.1781,230.809 819.5719,230.659 Q819.8063,230.5652 820.0594,230.3027 Q820.2188,230.1434 820.3031,230.0965 Q820.3969,230.0496 820.5188,230.0496 Q820.7156,230.0496 820.8656,230.209 Q821.025,230.359 821.025,230.5652 Q821.025,230.7715 820.8188,231.0152 Q820.5188,231.3621 820.0406,231.559 Q819.3938,231.8309 818.6156,231.8309 Q817.7063,231.8309 816.9844,231.4559 Q816.3938,231.1559 815.9812,230.5184 Q815.5688,229.8715 815.5688,229.1027 L815.5688,228.409 Q815.5688,227.6121 815.9344,226.9277 Q816.3094,226.234 816.9656,225.8684 Q817.6219,225.4934 818.3625,225.4934 Q818.8031,225.4934 819.1875,225.5965 Q819.5813,225.6902 819.9094,225.9059 Z " fill="#000000"/><text fill="#000000" font-family="sans-serif" font-size="8.4" lengthAdjust="spacing" textLength="88.8" x="830.55" y="231.859">AddCustomerController</text><line style="stroke:#181818;stroke-width:0.3;" x1="684" x2="1046.4" y1="237.9809" y2="237.9809"/><line style="stroke:#181818;stroke-width:0.3;" x1="684" x2="1046.4" y1="242.7809" y2="242.7809"/><text fill="#000000" font-family="sans-serif" font-size="8.4" lengthAdjust="spacing" textLength="356.4" x="687" y="254.2453">+registerCustomer(firstName, lastName, email, roles, createdOn, company, customerManager)</text><text fill="#000000" font-family="sans-serif" font-size="8.4" lengthAdjust="spacing" textLength="247.8" x="687" y="265.418">+createSystemUser(firstName, lastName, email, roles, createdOn)</text><text fill="#000000" font-family="sans-serif" font-size="8.4" lengthAdjust="spacing" textLength="271.8" x="687" y="276.5906">+createCustomer(newUser, emailAddress, company, customerManager)</text></g><g id="elem_GMN7"><path d="M1068.3,231.3809 L1068.3,247.5809 L1047.096,249.9809 L1068.3,252.3809 L1068.3,268.5047 A0,0 0 0 0 1068.3,268.5047 L1286.1,268.5047 A0,0 0 0 0 1286.1,268.5047 L1286.1,237.3809 L1280.1,231.3809 L1068.3,231.3809 A0,0 0 0 0 1068.3,231.3809 " fill="#FEFFDD" style="stroke:#181818;stroke-width:0.3;"/><path d="M1280.1,231.3809 L1280.1,237.3809 L1286.1,237.3809 L1280.1,231.3809 " fill="#FEFFDD" style="stroke:#181818;stroke-width:0.3;"/><text fill="#000000" font-family="sans-serif" font-size="7.8" lengthAdjust="spacing" textLength="184.8" x="1071.9" y="242.7979">- Some used methods are provided by the framework,</text><text fill="#000000" font-family="sans-serif" font-size="7.8" lengthAdjust="spacing" textLength="205.2" x="1071.9" y="253.1725">they are not being represented because there's no sense in</text><text fill="#000000" font-family="sans-serif" font-size="7.8" lengthAdjust="spacing" textLength="141" x="1071.9" y="263.5471">representing the framework infrastructure</text></g><!--class Customer--><g id="elem_Customer"><rect codeLine="37" fill="#F1F1F1" height="185.2172" id="Customer" rx="1.5" ry="1.5" style="stroke:#181818;stroke-width:0.3;" width="239.4" x="642.3" y="650.7809"/><ellipse cx="741.15" cy="660.3809" fill="#ADD1B2" rx="6.6" ry="6.6" style="stroke:#181818;stroke-width:0.6;"/><path d="M742.8094,657.9059 Q742.9031,657.7746 743.0156,657.709 Q743.1281,657.6434 743.2594,657.6434 Q743.4844,657.6434 743.625,657.8027 Q743.7656,657.9527 743.7656,658.3184 L743.7656,659.1902 Q743.7656,659.5559 743.625,659.7152 Q743.4844,659.8746 743.2594,659.8746 Q743.0531,659.8746 742.9313,659.7527 Q742.8094,659.6402 742.7438,659.3309 Q742.7156,659.1152 742.6031,659.0027 Q742.4063,658.7777 742.0406,658.6465 Q741.675,658.5152 741.3,658.5152 Q740.8406,658.5152 740.4563,658.7121 Q740.0813,658.909 739.7813,659.359 Q739.4906,659.809 739.4906,660.4277 L739.4906,661.084 Q739.4906,661.8246 740.025,662.3215 Q740.5594,662.809 741.5156,662.809 Q742.0781,662.809 742.4719,662.659 Q742.7063,662.5652 742.9594,662.3027 Q743.1188,662.1434 743.2031,662.0965 Q743.2969,662.0496 743.4187,662.0496 Q743.6156,662.0496 743.7656,662.209 Q743.925,662.359 743.925,662.5652 Q743.925,662.7715 743.7188,663.0152 Q743.4187,663.3621 742.9406,663.559 Q742.2937,663.8309 741.5156,663.8309 Q740.6062,663.8309 739.8844,663.4559 Q739.2937,663.1559 738.8813,662.5184 Q738.4688,661.8715 738.4688,661.1027 L738.4688,660.409 Q738.4688,659.6121 738.8344,658.9277 Q739.2094,658.234 739.8656,657.8684 Q740.5219,657.4934 741.2625,657.4934 Q741.7031,657.4934 742.0875,657.5965 Q742.4812,657.6902 742.8094,657.9059 Z " fill="#000000"/><text fill="#000000" font-family="sans-serif" font-size="8.4" lengthAdjust="spacing" textLength="36.6" x="753.45" y="663.859">Customer</text><line style="stroke:#181818;stroke-width:0.3;" x1="642.9" x2="881.1" y1="669.9809" y2="669.9809"/><text fill="#000000" font-family="sans-serif" font-size="8.4" lengthAdjust="spacing" textLength="108" x="645.9" y="681.4453">-EmailAddress emailAddress</text><text fill="#000000" font-family="sans-serif" font-size="8.4" lengthAdjust="spacing" textLength="118.8" x="645.9" y="692.618">-SystemUser customerManager</text><text fill="#000000" font-family="sans-serif" font-size="8.4" lengthAdjust="spacing" textLength="94.2" x="645.9" y="703.7906">-SystemUser systemUser</text><text fill="#000000" font-family="sans-serif" font-size="8.4" lengthAdjust="spacing" textLength="75.6" x="645.9" y="714.9633">-Company company</text><line style="stroke:#181818;stroke-width:0.3;" x1="642.9" x2="881.1" y1="719.4715" y2="719.4715"/><text fill="#000000" font-family="sans-serif" font-size="8.4" lengthAdjust="spacing" textLength="232.2" x="645.9" y="730.9359">+Customer(user, emailAddress, company, customerManager)</text><text fill="#000000" font-family="sans-serif" font-size="8.4" lengthAdjust="spacing" textLength="47.4" x="645.9" y="742.1086">+Customer()</text><text fill="#000000" font-family="sans-serif" font-size="8.4" lengthAdjust="spacing" textLength="27.6" x="645.9" y="753.2813">+user()</text><text fill="#000000" font-family="sans-serif" font-size="8.4" lengthAdjust="spacing" textLength="45" x="645.9" y="764.4539">+company()</text><text fill="#000000" font-family="sans-serif" font-size="8.4" lengthAdjust="spacing" textLength="79.2" x="645.9" y="775.6266">+customerManager()</text><text fill="#000000" font-family="sans-serif" font-size="8.4" lengthAdjust="spacing" textLength="92.4" x="645.9" y="786.7992">+equals(otherCustomer)</text><text fill="#000000" font-family="sans-serif" font-size="8.4" lengthAdjust="spacing" textLength="49.8" x="645.9" y="797.9719">+hashCode()</text><text fill="#000000" font-family="sans-serif" font-size="8.4" lengthAdjust="spacing" textLength="97.2" x="645.9" y="809.1445">+sameAs(otherCustomer)</text><text fill="#000000" font-family="sans-serif" font-size="8.4" lengthAdjust="spacing" textLength="37.8" x="645.9" y="820.3172">+identity()</text><text fill="#000000" font-family="sans-serif" font-size="8.4" lengthAdjust="spacing" textLength="40.2" x="645.9" y="831.4898">+toString()</text></g><g id="elem_GMN12"><path d="M902.7,724.8809 L902.7,741.0809 L881.898,743.4809 L902.7,745.8809 L902.7,762.0047 A0,0 0 0 0 902.7,762.0047 L1150.5,762.0047 A0,0 0 0 0 1150.5,762.0047 L1150.5,730.8809 L1144.5,724.8809 L902.7,724.8809 A0,0 0 0 0 902.7,724.8809 " fill="#FEFFDD" style="stroke:#181818;stroke-width:0.3;"/><path d="M1144.5,724.8809 L1144.5,730.8809 L1150.5,730.8809 L1144.5,724.8809 " fill="#FEFFDD" style="stroke:#181818;stroke-width:0.3;"/><text fill="#000000" font-family="sans-serif" font-size="7.8" lengthAdjust="spacing" textLength="235.2" x="906.3" y="736.2979">The EmailAddress and SystemUser are classes from the framework</text><text fill="#000000" font-family="sans-serif" font-size="7.8" lengthAdjust="spacing" textLength="189" x="906.3" y="746.6725">so that they are simplified because there's no sense in</text><text fill="#000000" font-family="sans-serif" font-size="7.8" lengthAdjust="spacing" textLength="148.8" x="906.3" y="757.0471">representing the framework implementation</text></g><!--class CustomerBuilder--><g id="elem_CustomerBuilder"><rect codeLine="62" fill="#F1F1F1" height="129.3539" id="CustomerBuilder" rx="1.5" ry="1.5" style="stroke:#181818;stroke-width:0.3;" width="171" x="710.7" y="485.1809"/><ellipse cx="762.15" cy="494.7809" fill="#ADD1B2" rx="6.6" ry="6.6" style="stroke:#181818;stroke-width:0.6;"/><path d="M763.8094,492.3059 Q763.9031,492.1746 764.0156,492.109 Q764.1281,492.0434 764.2594,492.0434 Q764.4844,492.0434 764.625,492.2027 Q764.7656,492.3527 764.7656,492.7184 L764.7656,493.5902 Q764.7656,493.9559 764.625,494.1152 Q764.4844,494.2746 764.2594,494.2746 Q764.0531,494.2746 763.9313,494.1527 Q763.8094,494.0402 763.7438,493.7309 Q763.7156,493.5152 763.6031,493.4027 Q763.4063,493.1777 763.0406,493.0465 Q762.675,492.9152 762.3,492.9152 Q761.8406,492.9152 761.4563,493.1121 Q761.0813,493.309 760.7813,493.759 Q760.4906,494.209 760.4906,494.8277 L760.4906,495.484 Q760.4906,496.2246 761.025,496.7215 Q761.5594,497.209 762.5156,497.209 Q763.0781,497.209 763.4719,497.059 Q763.7063,496.9652 763.9594,496.7027 Q764.1188,496.5434 764.2031,496.4965 Q764.2969,496.4496 764.4187,496.4496 Q764.6156,496.4496 764.7656,496.609 Q764.925,496.759 764.925,496.9652 Q764.925,497.1715 764.7188,497.4152 Q764.4187,497.7621 763.9406,497.959 Q763.2937,498.2309 762.5156,498.2309 Q761.6062,498.2309 760.8844,497.8559 Q760.2937,497.5559 759.8813,496.9184 Q759.4688,496.2715 759.4688,495.5027 L759.4688,494.809 Q759.4688,494.0121 759.8344,493.3277 Q760.2094,492.634 760.8656,492.2684 Q761.5219,491.8934 762.2625,491.8934 Q762.7031,491.8934 763.0875,491.9965 Q763.4812,492.0902 763.8094,492.3059 Z " fill="#000000"/><text fill="#000000" font-family="sans-serif" font-size="8.4" lengthAdjust="spacing" textLength="63" x="774.45" y="498.259">CustomerBuilder</text><line style="stroke:#181818;stroke-width:0.3;" x1="711.3" x2="881.1" y1="504.3809" y2="504.3809"/><text fill="#000000" font-family="sans-serif" font-size="8.4" lengthAdjust="spacing" textLength="108" x="714.3" y="515.8453">-EmailAddress emailAddress</text><text fill="#000000" font-family="sans-serif" font-size="8.4" lengthAdjust="spacing" textLength="118.8" x="714.3" y="527.018">-SystemUser customerManager</text><text fill="#000000" font-family="sans-serif" font-size="8.4" lengthAdjust="spacing" textLength="94.2" x="714.3" y="538.1906">-SystemUser systemUser</text><text fill="#000000" font-family="sans-serif" font-size="8.4" lengthAdjust="spacing" textLength="75.6" x="714.3" y="549.3633">-Company company</text><line style="stroke:#181818;stroke-width:0.3;" x1="711.3" x2="881.1" y1="553.8715" y2="553.8715"/><text fill="#000000" font-family="sans-serif" font-size="8.4" lengthAdjust="spacing" textLength="86.4" x="714.3" y="565.3359">+withUser(systemUser)</text><text fill="#000000" font-family="sans-serif" font-size="8.4" lengthAdjust="spacing" textLength="95.4" x="714.3" y="576.5086">+withCompany(company)</text><text fill="#000000" font-family="sans-serif" font-size="8.4" lengthAdjust="spacing" textLength="163.8" x="714.3" y="587.6813">+withCustomerManager(customerManager)</text><text fill="#000000" font-family="sans-serif" font-size="8.4" lengthAdjust="spacing" textLength="127.8" x="714.3" y="598.8539">+withEmailAddress(emailAddress)</text><text fill="#000000" font-family="sans-serif" font-size="8.4" lengthAdjust="spacing" textLength="28.8" x="714.3" y="610.0266">+build()</text></g><g id="elem_GMN16"><path d="M902.7,531.3809 L902.7,547.5809 L881.928,549.9809 L902.7,552.3809 L902.7,568.5047 A0,0 0 0 0 902.7,568.5047 L1150.5,568.5047 A0,0 0 0 0 1150.5,568.5047 L1150.5,537.3809 L1144.5,531.3809 L902.7,531.3809 A0,0 0 0 0 902.7,531.3809 " fill="#FEFFDD" style="stroke:#181818;stroke-width:0.3;"/><path d="M1144.5,531.3809 L1144.5,537.3809 L1150.5,537.3809 L1144.5,531.3809 " fill="#FEFFDD" style="stroke:#181818;stroke-width:0.3;"/><text fill="#000000" font-family="sans-serif" font-size="7.8" lengthAdjust="spacing" textLength="235.2" x="906.3" y="542.7979">The EmailAddress and SystemUser are classes from the framework</text><text fill="#000000" font-family="sans-serif" font-size="7.8" lengthAdjust="spacing" textLength="189" x="906.3" y="553.1725">so that they are simplified because there's no sense in</text><text fill="#000000" font-family="sans-serif" font-size="7.8" lengthAdjust="spacing" textLength="148.8" x="906.3" y="563.5471">representing the framework implementation</text></g><!--class CustomerRepository--><g id="elem_CustomerRepository"><rect codeLine="83" fill="#F1F1F1" height="51.1453" id="CustomerRepository" rx="1.5" ry="1.5" style="stroke:#181818;stroke-width:0.3;" width="144" x="1184.4" y="524.4809"/><ellipse cx="1215.15" cy="534.0809" fill="#B4A7E5" rx="6.6" ry="6.6" style="stroke:#181818;stroke-width:0.6;"/><path d="M1215.7219,532.0652 L1215.7219,536.059 L1216.7531,536.059 Q1217.1187,536.059 1217.2781,536.1996 Q1217.4375,536.3402 1217.4375,536.5746 Q1217.4375,536.7996 1217.2781,536.9402 Q1217.1187,537.0809 1216.7531,537.0809 L1213.6688,537.0809 Q1213.3031,537.0809 1213.1438,536.9402 Q1212.9844,536.7996 1212.9844,536.5652 Q1212.9844,536.3402 1213.1438,536.1996 Q1213.3031,536.059 1213.6688,536.059 L1214.7,536.059 L1214.7,532.0652 L1213.6688,532.0652 Q1213.3031,532.0652 1213.1438,531.9246 Q1212.9844,531.784 1212.9844,531.5496 Q1212.9844,531.3246 1213.1438,531.184 Q1213.3031,531.0434 1213.6688,531.0434 L1216.7531,531.0434 Q1217.1187,531.0434 1217.2781,531.184 Q1217.4375,531.3246 1217.4375,531.5496 Q1217.4375,531.784 1217.2781,531.9246 Q1217.1187,532.0652 1216.7531,532.0652 L1215.7219,532.0652 Z " fill="#000000"/><text fill="#000000" font-family="sans-serif" font-size="8.4" font-style="italic" lengthAdjust="spacing" textLength="77.4" x="1227.45" y="537.559">CustomerRepository</text><line style="stroke:#181818;stroke-width:0.3;" x1="1185" x2="1327.8" y1="543.6809" y2="543.6809"/><line style="stroke:#181818;stroke-width:0.3;" x1="1185" x2="1327.8" y1="548.4809" y2="548.4809"/><text fill="#000000" font-family="sans-serif" font-size="8.4" lengthAdjust="spacing" textLength="136.8" x="1188" y="559.9453">+findByEmailAddress(emailAddress)</text><text fill="#000000" font-family="sans-serif" font-size="8.4" lengthAdjust="spacing" textLength="56.4" x="1188" y="571.118">+findAllActive()</text></g><!--class CustomerService--><g id="elem_CustomerService"><rect codeLine="92" fill="#F1F1F1" height="51.1453" id="CustomerService" rx="1.5" ry="1.5" style="stroke:#181818;stroke-width:0.3;" width="295.2" x="717.6" y="371.1809"/><ellipse cx="830.25" cy="380.7809" fill="#ADD1B2" rx="6.6" ry="6.6" style="stroke:#181818;stroke-width:0.6;"/><path d="M831.9094,378.3059 Q832.0031,378.1746 832.1156,378.109 Q832.2281,378.0434 832.3594,378.0434 Q832.5844,378.0434 832.725,378.2027 Q832.8656,378.3527 832.8656,378.7184 L832.8656,379.5902 Q832.8656,379.9559 832.725,380.1152 Q832.5844,380.2746 832.3594,380.2746 Q832.1531,380.2746 832.0313,380.1527 Q831.9094,380.0402 831.8438,379.7309 Q831.8156,379.5152 831.7031,379.4027 Q831.5063,379.1777 831.1406,379.0465 Q830.775,378.9152 830.4,378.9152 Q829.9406,378.9152 829.5563,379.1121 Q829.1813,379.309 828.8813,379.759 Q828.5906,380.209 828.5906,380.8277 L828.5906,381.484 Q828.5906,382.2246 829.125,382.7215 Q829.6594,383.209 830.6156,383.209 Q831.1781,383.209 831.5719,383.059 Q831.8063,382.9652 832.0594,382.7027 Q832.2188,382.5434 832.3031,382.4965 Q832.3969,382.4496 832.5188,382.4496 Q832.7156,382.4496 832.8656,382.609 Q833.025,382.759 833.025,382.9652 Q833.025,383.1715 832.8188,383.4152 Q832.5188,383.7621 832.0406,383.959 Q831.3938,384.2309 830.6156,384.2309 Q829.7063,384.2309 828.9844,383.8559 Q828.3938,383.5559 827.9812,382.9184 Q827.5688,382.2715 827.5688,381.5027 L827.5688,380.809 Q827.5688,380.0121 827.9344,379.3277 Q828.3094,378.634 828.9656,378.2684 Q829.6219,377.8934 830.3625,377.8934 Q830.8031,377.8934 831.1875,377.9965 Q831.5813,378.0902 831.9094,378.3059 Z " fill="#000000"/><text fill="#000000" font-family="sans-serif" font-size="8.4" lengthAdjust="spacing" textLength="64.8" x="842.55" y="384.259">CustomerService</text><line style="stroke:#181818;stroke-width:0.3;" x1="718.2" x2="1012.2" y1="390.3809" y2="390.3809"/><line style="stroke:#181818;stroke-width:0.3;" x1="718.2" x2="1012.2" y1="395.1809" y2="395.1809"/><text fill="#000000" font-family="sans-serif" font-size="8.4" lengthAdjust="spacing" textLength="288" x="721.2" y="406.6453">+registerCustomer(systemUser, company, customerManager, emailAddress)</text><text fill="#000000" font-family="sans-serif" font-size="8.4" lengthAdjust="spacing" textLength="60" x="721.2" y="417.818">+allCustomers()</text></g><!--class ListCompaniesController--><g id="elem_ListCompaniesController"><rect codeLine="104" fill="#F1F1F1" height="51.1453" id="ListCompaniesController" rx="1.5" ry="1.5" style="stroke:#181818;stroke-width:0.3;" width="131.4" x="1536.3" y="224.4809"/><ellipse cx="1553.94" cy="234.0809" fill="#ADD1B2" rx="6.6" ry="6.6" style="stroke:#181818;stroke-width:0.6;"/><path d="M1555.5994,231.6059 Q1555.6931,231.4746 1555.8056,231.409 Q1555.9181,231.3434 1556.0494,231.3434 Q1556.2744,231.3434 1556.415,231.5027 Q1556.5556,231.6527 1556.5556,232.0184 L1556.5556,232.8902 Q1556.5556,233.2559 1556.415,233.4152 Q1556.2744,233.5746 1556.0494,233.5746 Q1555.8431,233.5746 1555.7213,233.4527 Q1555.5994,233.3402 1555.5338,233.0309 Q1555.5056,232.8152 1555.3931,232.7027 Q1555.1963,232.4777 1554.8306,232.3465 Q1554.465,232.2152 1554.09,232.2152 Q1553.6306,232.2152 1553.2463,232.4121 Q1552.8713,232.609 1552.5713,233.059 Q1552.2806,233.509 1552.2806,234.1277 L1552.2806,234.784 Q1552.2806,235.5246 1552.815,236.0215 Q1553.3494,236.509 1554.3056,236.509 Q1554.8681,236.509 1555.2619,236.359 Q1555.4963,236.2652 1555.7494,236.0027 Q1555.9088,235.8434 1555.9931,235.7965 Q1556.0869,235.7496 1556.2088,235.7496 Q1556.4056,235.7496 1556.5556,235.909 Q1556.715,236.059 1556.715,236.2652 Q1556.715,236.4715 1556.5088,236.7152 Q1556.2088,237.0621 1555.7306,237.259 Q1555.0838,237.5309 1554.3056,237.5309 Q1553.3963,237.5309 1552.6744,237.1559 Q1552.0838,236.8559 1551.6713,236.2184 Q1551.2588,235.5715 1551.2588,234.8027 L1551.2588,234.109 Q1551.2588,233.3121 1551.6244,232.6277 Q1551.9994,231.934 1552.6556,231.5684 Q1553.3119,231.1934 1554.0525,231.1934 Q1554.4931,231.1934 1554.8775,231.2965 Q1555.2713,231.3902 1555.5994,231.6059 Z " fill="#000000"/><text fill="#000000" font-family="sans-serif" font-size="8.4" lengthAdjust="spacing" textLength="93" x="1564.26" y="237.559">ListCompaniesController</text><line style="stroke:#181818;stroke-width:0.3;" x1="1536.9" x2="1667.1" y1="243.6809" y2="243.6809"/><line style="stroke:#181818;stroke-width:0.3;" x1="1536.9" x2="1667.1" y1="248.4809" y2="248.4809"/><text fill="#000000" font-family="sans-serif" font-size="8.4" lengthAdjust="spacing" textLength="124.2" x="1539.9" y="259.9453">+findCompany(companyNumber)</text><text fill="#000000" font-family="sans-serif" font-size="8.4" lengthAdjust="spacing" textLength="61.8" x="1539.9" y="271.118">+allCompanies()</text></g><!--class AddCompanyController--><g id="elem_AddCompanyController"><rect codeLine="109" fill="#F1F1F1" height="39.9727" id="AddCompanyController" rx="1.5" ry="1.5" style="stroke:#181818;stroke-width:0.3;" width="124.2" x="1391.1" y="229.8809"/><ellipse cx="1407.66" cy="239.4809" fill="#ADD1B2" rx="6.6" ry="6.6" style="stroke:#181818;stroke-width:0.6;"/><path d="M1409.3194,237.0059 Q1409.4131,236.8746 1409.5256,236.809 Q1409.6381,236.7434 1409.7694,236.7434 Q1409.9944,236.7434 1410.135,236.9027 Q1410.2756,237.0527 1410.2756,237.4184 L1410.2756,238.2902 Q1410.2756,238.6559 1410.135,238.8152 Q1409.9944,238.9746 1409.7694,238.9746 Q1409.5631,238.9746 1409.4412,238.8527 Q1409.3194,238.7402 1409.2537,238.4309 Q1409.2256,238.2152 1409.1131,238.1027 Q1408.9163,237.8777 1408.5506,237.7465 Q1408.185,237.6152 1407.81,237.6152 Q1407.3506,237.6152 1406.9663,237.8121 Q1406.5913,238.009 1406.2913,238.459 Q1406.0006,238.909 1406.0006,239.5277 L1406.0006,240.184 Q1406.0006,240.9246 1406.535,241.4215 Q1407.0694,241.909 1408.0256,241.909 Q1408.5881,241.909 1408.9819,241.759 Q1409.2163,241.6652 1409.4694,241.4027 Q1409.6287,241.2434 1409.7131,241.1965 Q1409.8069,241.1496 1409.9287,241.1496 Q1410.1256,241.1496 1410.2756,241.309 Q1410.435,241.459 1410.435,241.6652 Q1410.435,241.8715 1410.2288,242.1152 Q1409.9287,242.4621 1409.4506,242.659 Q1408.8037,242.9309 1408.0256,242.9309 Q1407.1162,242.9309 1406.3944,242.5559 Q1405.8037,242.2559 1405.3913,241.6184 Q1404.9788,240.9715 1404.9788,240.2027 L1404.9788,239.509 Q1404.9788,238.7121 1405.3444,238.0277 Q1405.7194,237.334 1406.3756,236.9684 Q1407.0319,236.5934 1407.7725,236.5934 Q1408.2131,236.5934 1408.5975,236.6965 Q1408.9912,236.7902 1409.3194,237.0059 Z " fill="#000000"/><text fill="#000000" font-family="sans-serif" font-size="8.4" lengthAdjust="spacing" textLength="88.2" x="1417.74" y="242.959">AddCompanyController</text><line style="stroke:#181818;stroke-width:0.3;" x1="1391.7" x2="1514.7" y1="249.0809" y2="249.0809"/><line style="stroke:#181818;stroke-width:0.3;" x1="1391.7" x2="1514.7" y1="253.8809" y2="253.8809"/><text fill="#000000" font-family="sans-serif" font-size="8.4" lengthAdjust="spacing" textLength="117" x="1394.7" y="265.3453">+addCompany(companyName)</text></g><!--class CompanyBuilder--><g id="elem_CompanyBuilder"><rect codeLine="116" fill="#F1F1F1" height="84.6633" id="CompanyBuilder" rx="1.5" ry="1.5" style="stroke:#181818;stroke-width:0.3;" width="161.4" x="1395.3" y="507.6809"/><ellipse cx="1442.25" cy="517.2809" fill="#ADD1B2" rx="6.6" ry="6.6" style="stroke:#181818;stroke-width:0.6;"/><path d="M1443.9094,514.8059 Q1444.0031,514.6746 1444.1156,514.609 Q1444.2281,514.5434 1444.3594,514.5434 Q1444.5844,514.5434 1444.725,514.7027 Q1444.8656,514.8527 1444.8656,515.2184 L1444.8656,516.0902 Q1444.8656,516.4559 1444.725,516.6152 Q1444.5844,516.7746 1444.3594,516.7746 Q1444.1531,516.7746 1444.0313,516.6527 Q1443.9094,516.5402 1443.8438,516.2309 Q1443.8156,516.0152 1443.7031,515.9027 Q1443.5063,515.6777 1443.1406,515.5465 Q1442.775,515.4152 1442.4,515.4152 Q1441.9406,515.4152 1441.5562,515.6121 Q1441.1812,515.809 1440.8813,516.259 Q1440.5906,516.709 1440.5906,517.3277 L1440.5906,517.984 Q1440.5906,518.7246 1441.125,519.2215 Q1441.6594,519.709 1442.6156,519.709 Q1443.1781,519.709 1443.5719,519.559 Q1443.8062,519.4652 1444.0594,519.2027 Q1444.2188,519.0434 1444.3031,518.9965 Q1444.3969,518.9496 1444.5188,518.9496 Q1444.7156,518.9496 1444.8656,519.109 Q1445.025,519.259 1445.025,519.4652 Q1445.025,519.6715 1444.8188,519.9152 Q1444.5188,520.2621 1444.0406,520.459 Q1443.3938,520.7309 1442.6156,520.7309 Q1441.7063,520.7309 1440.9844,520.3559 Q1440.3938,520.0559 1439.9813,519.4184 Q1439.5688,518.7715 1439.5688,518.0027 L1439.5688,517.309 Q1439.5688,516.5121 1439.9344,515.8277 Q1440.3094,515.134 1440.9656,514.7684 Q1441.6219,514.3934 1442.3625,514.3934 Q1442.8031,514.3934 1443.1875,514.4965 Q1443.5813,514.5902 1443.9094,514.8059 Z " fill="#000000"/><text fill="#000000" font-family="sans-serif" font-size="8.4" lengthAdjust="spacing" textLength="62.4" x="1454.55" y="520.759">CompanyBuilder</text><line style="stroke:#181818;stroke-width:0.3;" x1="1395.9" x2="1556.1" y1="526.8809" y2="526.8809"/><text fill="#000000" font-family="sans-serif" font-size="8.4" lengthAdjust="spacing" textLength="78" x="1398.9" y="538.3453">-int companyNumber</text><text fill="#000000" font-family="sans-serif" font-size="8.4" lengthAdjust="spacing" textLength="118.8" x="1398.9" y="549.518">-CompanyName companyName</text><line style="stroke:#181818;stroke-width:0.3;" x1="1395.9" x2="1556.1" y1="554.0262" y2="554.0262"/><text fill="#000000" font-family="sans-serif" font-size="8.4" lengthAdjust="spacing" textLength="154.2" x="1398.9" y="565.4906">+withCompanyNumber(companyNumber)</text><text fill="#000000" font-family="sans-serif" font-size="8.4" lengthAdjust="spacing" textLength="138.6" x="1398.9" y="576.6633">+withCompanyName(companyName)</text><text fill="#000000" font-family="sans-serif" font-size="8.4" lengthAdjust="spacing" textLength="28.8" x="1398.9" y="587.8359">+build()</text></g><!--class CompanyName--><g id="elem_CompanyName"><rect codeLine="124" fill="#F1F1F1" height="118.1812" id="CompanyName" rx="1.5" ry="1.5" style="stroke:#181818;stroke-width:0.3;" width="138.6" x="1410.9" y="872.1809"/><ellipse cx="1448.85" cy="881.7809" fill="#ADD1B2" rx="6.6" ry="6.6" style="stroke:#181818;stroke-width:0.6;"/><path d="M1450.5094,879.3059 Q1450.6031,879.1746 1450.7156,879.109 Q1450.8281,879.0434 1450.9594,879.0434 Q1451.1844,879.0434 1451.325,879.2027 Q1451.4656,879.3527 1451.4656,879.7184 L1451.4656,880.5902 Q1451.4656,880.9559 1451.325,881.1152 Q1451.1844,881.2746 1450.9594,881.2746 Q1450.7531,881.2746 1450.6313,881.1527 Q1450.5094,881.0402 1450.4438,880.7309 Q1450.4156,880.5152 1450.3031,880.4027 Q1450.1063,880.1777 1449.7406,880.0465 Q1449.375,879.9152 1449,879.9152 Q1448.5406,879.9152 1448.1563,880.1121 Q1447.7813,880.309 1447.4813,880.759 Q1447.1906,881.209 1447.1906,881.8277 L1447.1906,882.484 Q1447.1906,883.2246 1447.725,883.7215 Q1448.2594,884.209 1449.2156,884.209 Q1449.7781,884.209 1450.1719,884.059 Q1450.4063,883.9652 1450.6594,883.7027 Q1450.8188,883.5434 1450.9031,883.4965 Q1450.9969,883.4496 1451.1187,883.4496 Q1451.3156,883.4496 1451.4656,883.609 Q1451.625,883.759 1451.625,883.9652 Q1451.625,884.1715 1451.4188,884.4152 Q1451.1187,884.7621 1450.6406,884.959 Q1449.9937,885.2309 1449.2156,885.2309 Q1448.3062,885.2309 1447.5844,884.8559 Q1446.9937,884.5559 1446.5813,883.9184 Q1446.1688,883.2715 1446.1688,882.5027 L1446.1688,881.809 Q1446.1688,881.0121 1446.5344,880.3277 Q1446.9094,879.634 1447.5656,879.2684 Q1448.2219,878.8934 1448.9625,878.8934 Q1449.4031,878.8934 1449.7875,878.9965 Q1450.1812,879.0902 1450.5094,879.3059 Z " fill="#000000"/><text fill="#000000" font-family="sans-serif" font-size="8.4" lengthAdjust="spacing" textLength="57.6" x="1461.15" y="885.259">CompanyName</text><line style="stroke:#181818;stroke-width:0.3;" x1="1411.5" x2="1548.9" y1="891.3809" y2="891.3809"/><text fill="#000000" font-family="sans-serif" font-size="8.4" lengthAdjust="spacing" textLength="76.2" x="1414.5" y="902.8453">-String : designation</text><line style="stroke:#181818;stroke-width:0.3;" x1="1411.5" x2="1548.9" y1="907.3535" y2="907.3535"/><text fill="#000000" font-family="sans-serif" font-size="8.4" lengthAdjust="spacing" textLength="110.4" x="1414.5" y="918.818">+companyName(designation)</text><text fill="#000000" font-family="sans-serif" font-size="8.4" lengthAdjust="spacing" textLength="84" x="1414.5" y="929.9906">+valueOf(designation)</text><text fill="#000000" font-family="sans-serif" font-size="8.4" lengthAdjust="spacing" textLength="40.2" x="1414.5" y="941.1633">+toString()</text><text fill="#000000" font-family="sans-serif" font-size="8.4" lengthAdjust="spacing" textLength="54.6" x="1414.5" y="952.3359">+designation()</text><text fill="#000000" font-family="sans-serif" font-size="8.4" lengthAdjust="spacing" textLength="113.4" x="1414.5" y="963.5086">+equals(otherCompanyName)</text><text fill="#000000" font-family="sans-serif" font-size="8.4" lengthAdjust="spacing" textLength="49.8" x="1414.5" y="974.6813">+hashCode()</text><text fill="#000000" font-family="sans-serif" font-size="8.4" lengthAdjust="spacing" textLength="131.4" x="1414.5" y="985.8539">+compareTo(otherCompanyName)</text></g><!--class Company--><g id="elem_Company"><rect codeLine="135" fill="#F1F1F1" height="151.6992" id="Company" rx="1.5" ry="1.5" style="stroke:#181818;stroke-width:0.3;" width="178.2" x="1391.1" y="667.5809"/><ellipse cx="1459.65" cy="677.1809" fill="#ADD1B2" rx="6.6" ry="6.6" style="stroke:#181818;stroke-width:0.6;"/><path d="M1461.3094,674.7059 Q1461.4031,674.5746 1461.5156,674.509 Q1461.6281,674.4434 1461.7594,674.4434 Q1461.9844,674.4434 1462.125,674.6027 Q1462.2656,674.7527 1462.2656,675.1184 L1462.2656,675.9902 Q1462.2656,676.3559 1462.125,676.5152 Q1461.9844,676.6746 1461.7594,676.6746 Q1461.5531,676.6746 1461.4312,676.5527 Q1461.3094,676.4402 1461.2437,676.1309 Q1461.2156,675.9152 1461.1031,675.8027 Q1460.9063,675.5777 1460.5406,675.4465 Q1460.175,675.3152 1459.8,675.3152 Q1459.3406,675.3152 1458.9563,675.5121 Q1458.5813,675.709 1458.2813,676.159 Q1457.9906,676.609 1457.9906,677.2277 L1457.9906,677.884 Q1457.9906,678.6246 1458.525,679.1215 Q1459.0594,679.609 1460.0156,679.609 Q1460.5781,679.609 1460.9719,679.459 Q1461.2063,679.3652 1461.4594,679.1027 Q1461.6187,678.9434 1461.7031,678.8965 Q1461.7969,678.8496 1461.9188,678.8496 Q1462.1156,678.8496 1462.2656,679.009 Q1462.425,679.159 1462.425,679.3652 Q1462.425,679.5715 1462.2188,679.8152 Q1461.9188,680.1621 1461.4406,680.359 Q1460.7938,680.6309 1460.0156,680.6309 Q1459.1063,680.6309 1458.3844,680.2559 Q1457.7938,679.9559 1457.3813,679.3184 Q1456.9688,678.6715 1456.9688,677.9027 L1456.9688,677.209 Q1456.9688,676.4121 1457.3344,675.7277 Q1457.7094,675.034 1458.3656,674.6684 Q1459.0219,674.2934 1459.7625,674.2934 Q1460.2031,674.2934 1460.5875,674.3965 Q1460.9813,674.4902 1461.3094,674.7059 Z " fill="#000000"/><text fill="#000000" font-family="sans-serif" font-size="8.4" lengthAdjust="spacing" textLength="36" x="1471.95" y="680.659">Company</text><line style="stroke:#181818;stroke-width:0.3;" x1="1391.7" x2="1568.7" y1="686.7809" y2="686.7809"/><text fill="#000000" font-family="sans-serif" font-size="8.4" lengthAdjust="spacing" textLength="78" x="1394.7" y="698.2453">-int companyNumber</text><text fill="#000000" font-family="sans-serif" font-size="8.4" lengthAdjust="spacing" textLength="118.8" x="1394.7" y="709.418">-CompanyName companyName</text><line style="stroke:#181818;stroke-width:0.3;" x1="1391.7" x2="1568.7" y1="713.9262" y2="713.9262"/><text fill="#000000" font-family="sans-serif" font-size="8.4" lengthAdjust="spacing" textLength="171" x="1394.7" y="725.3906">+Company(companyName, companyNumber)</text><text fill="#000000" font-family="sans-serif" font-size="8.4" lengthAdjust="spacing" textLength="46.8" x="1394.7" y="736.5633">+Company()</text><text fill="#000000" font-family="sans-serif" font-size="8.4" lengthAdjust="spacing" textLength="91.8" x="1394.7" y="747.7359">+equals(otherCompany)</text><text fill="#000000" font-family="sans-serif" font-size="8.4" lengthAdjust="spacing" textLength="49.8" x="1394.7" y="758.9086">+hashCode()</text><text fill="#000000" font-family="sans-serif" font-size="8.4" lengthAdjust="spacing" textLength="66.6" x="1394.7" y="770.0813">+companyName()</text><text fill="#000000" font-family="sans-serif" font-size="8.4" lengthAdjust="spacing" textLength="96.6" x="1394.7" y="781.2539">+sameAs(otherCompany)</text><text fill="#000000" font-family="sans-serif" font-size="8.4" lengthAdjust="spacing" textLength="139.2" x="1394.7" y="792.4266">+compareTo(otherCompanyNumber)</text><text fill="#000000" font-family="sans-serif" font-size="8.4" lengthAdjust="spacing" textLength="37.8" x="1394.7" y="803.5992">+identity()</text><text fill="#000000" font-family="sans-serif" font-size="8.4" lengthAdjust="spacing" textLength="40.2" x="1394.7" y="814.7719">+toString()</text></g><!--class CompanyRepository--><g id="elem_CompanyRepository"><rect codeLine="152" fill="#F1F1F1" height="51.1453" id="CompanyRepository" rx="1.5" ry="1.5" style="stroke:#181818;stroke-width:0.3;" width="96" x="1603.2" y="524.4809"/><ellipse cx="1612.2" cy="534.0809" fill="#B4A7E5" rx="6.6" ry="6.6" style="stroke:#181818;stroke-width:0.6;"/><path d="M1612.7719,532.0652 L1612.7719,536.059 L1613.8031,536.059 Q1614.1688,536.059 1614.3281,536.1996 Q1614.4875,536.3402 1614.4875,536.5746 Q1614.4875,536.7996 1614.3281,536.9402 Q1614.1688,537.0809 1613.8031,537.0809 L1610.7188,537.0809 Q1610.3531,537.0809 1610.1938,536.9402 Q1610.0344,536.7996 1610.0344,536.5652 Q1610.0344,536.3402 1610.1938,536.1996 Q1610.3531,536.059 1610.7188,536.059 L1611.75,536.059 L1611.75,532.0652 L1610.7188,532.0652 Q1610.3531,532.0652 1610.1938,531.9246 Q1610.0344,531.784 1610.0344,531.5496 Q1610.0344,531.3246 1610.1938,531.184 Q1610.3531,531.0434 1610.7188,531.0434 L1613.8031,531.0434 Q1614.1688,531.0434 1614.3281,531.184 Q1614.4875,531.3246 1614.4875,531.5496 Q1614.4875,531.784 1614.3281,531.9246 Q1614.1688,532.0652 1613.8031,532.0652 L1612.7719,532.0652 Z " fill="#000000"/><text fill="#000000" font-family="sans-serif" font-size="8.4" font-style="italic" lengthAdjust="spacing" textLength="76.8" x="1620.6" y="537.559">CompanyRepository</text><line style="stroke:#181818;stroke-width:0.3;" x1="1603.8" x2="1698.6" y1="543.6809" y2="543.6809"/><line style="stroke:#181818;stroke-width:0.3;" x1="1603.8" x2="1698.6" y1="548.4809" y2="548.4809"/><text fill="#000000" font-family="sans-serif" font-size="8.4" lengthAdjust="spacing" textLength="84.6" x="1606.8" y="559.9453">+findByCompanyID(id)</text><text fill="#000000" font-family="sans-serif" font-size="8.4" lengthAdjust="spacing" textLength="61.8" x="1606.8" y="571.118">+allCompanies()</text></g><!--class CompanyService--><g id="elem_CompanyService"><rect codeLine="160" fill="#F1F1F1" height="62.318" id="CompanyService" rx="1.5" ry="1.5" style="stroke:#181818;stroke-width:0.3;" width="138.6" x="1396.5" y="365.4809"/><ellipse cx="1431.15" cy="375.0809" fill="#ADD1B2" rx="6.6" ry="6.6" style="stroke:#181818;stroke-width:0.6;"/><path d="M1432.8094,372.6059 Q1432.9031,372.4746 1433.0156,372.409 Q1433.1281,372.3434 1433.2594,372.3434 Q1433.4844,372.3434 1433.625,372.5027 Q1433.7656,372.6527 1433.7656,373.0184 L1433.7656,373.8902 Q1433.7656,374.2559 1433.625,374.4152 Q1433.4844,374.5746 1433.2594,374.5746 Q1433.0531,374.5746 1432.9312,374.4527 Q1432.8094,374.3402 1432.7437,374.0309 Q1432.7156,373.8152 1432.6031,373.7027 Q1432.4063,373.4777 1432.0406,373.3465 Q1431.675,373.2152 1431.3,373.2152 Q1430.8406,373.2152 1430.4563,373.4121 Q1430.0813,373.609 1429.7813,374.059 Q1429.4906,374.509 1429.4906,375.1277 L1429.4906,375.784 Q1429.4906,376.5246 1430.025,377.0215 Q1430.5594,377.509 1431.5156,377.509 Q1432.0781,377.509 1432.4719,377.359 Q1432.7063,377.2652 1432.9594,377.0027 Q1433.1187,376.8434 1433.2031,376.7965 Q1433.2969,376.7496 1433.4188,376.7496 Q1433.6156,376.7496 1433.7656,376.909 Q1433.925,377.059 1433.925,377.2652 Q1433.925,377.4715 1433.7188,377.7152 Q1433.4188,378.0621 1432.9406,378.259 Q1432.2938,378.5309 1431.5156,378.5309 Q1430.6063,378.5309 1429.8844,378.1559 Q1429.2938,377.8559 1428.8813,377.2184 Q1428.4688,376.5715 1428.4688,375.8027 L1428.4688,375.109 Q1428.4688,374.3121 1428.8344,373.6277 Q1429.2094,372.934 1429.8656,372.5684 Q1430.5219,372.1934 1431.2625,372.1934 Q1431.7031,372.1934 1432.0875,372.2965 Q1432.4813,372.3902 1432.8094,372.6059 Z " fill="#000000"/><text fill="#000000" font-family="sans-serif" font-size="8.4" lengthAdjust="spacing" textLength="64.2" x="1443.45" y="378.559">CompanyService</text><line style="stroke:#181818;stroke-width:0.3;" x1="1397.1" x2="1534.5" y1="384.6809" y2="384.6809"/><line style="stroke:#181818;stroke-width:0.3;" x1="1397.1" x2="1534.5" y1="389.4809" y2="389.4809"/><text fill="#000000" font-family="sans-serif" font-size="8.4" lengthAdjust="spacing" textLength="131.4" x="1400.1" y="400.9453">+registerCompany(companyName)</text><text fill="#000000" font-family="sans-serif" font-size="8.4" lengthAdjust="spacing" textLength="124.2" x="1400.1" y="412.118">+findCompany(companyNumber)</text><text fill="#000000" font-family="sans-serif" font-size="8.4" lengthAdjust="spacing" textLength="61.8" x="1400.1" y="423.2906">+allCompanies()</text></g><!--class AddUserController--><g id="elem_AddUserController"><rect codeLine="172" fill="#F1F1F1" height="84.6633" id="AddUserController" rx="1.5" ry="1.5" style="stroke:#181818;stroke-width:0.3;" width="277.8" x="27.9" y="354.3809"/><ellipse cx="129.45" cy="363.9809" fill="#ADD1B2" rx="6.6" ry="6.6" style="stroke:#181818;stroke-width:0.6;"/><path d="M131.1094,361.5059 Q131.2031,361.3746 131.3156,361.309 Q131.4281,361.2434 131.5594,361.2434 Q131.7844,361.2434 131.925,361.4027 Q132.0656,361.5527 132.0656,361.9184 L132.0656,362.7902 Q132.0656,363.1559 131.925,363.3152 Q131.7844,363.4746 131.5594,363.4746 Q131.3531,363.4746 131.2313,363.3527 Q131.1094,363.2402 131.0438,362.9309 Q131.0156,362.7152 130.9031,362.6027 Q130.7062,362.3777 130.3406,362.2465 Q129.975,362.1152 129.6,362.1152 Q129.1406,362.1152 128.7563,362.3121 Q128.3813,362.509 128.0812,362.959 Q127.7906,363.409 127.7906,364.0277 L127.7906,364.684 Q127.7906,365.4246 128.325,365.9215 Q128.8594,366.409 129.8156,366.409 Q130.3781,366.409 130.7719,366.259 Q131.0063,366.1652 131.2594,365.9027 Q131.4188,365.7434 131.5031,365.6965 Q131.5969,365.6496 131.7188,365.6496 Q131.9156,365.6496 132.0656,365.809 Q132.225,365.959 132.225,366.1652 Q132.225,366.3715 132.0187,366.6152 Q131.7188,366.9621 131.2406,367.159 Q130.5938,367.4309 129.8156,367.4309 Q128.9063,367.4309 128.1844,367.0559 Q127.5938,366.7559 127.1812,366.1184 Q126.7688,365.4715 126.7688,364.7027 L126.7688,364.009 Q126.7688,363.2121 127.1344,362.5277 Q127.5094,361.834 128.1656,361.4684 Q128.8219,361.0934 129.5625,361.0934 Q130.0031,361.0934 130.3875,361.1965 Q130.7813,361.2902 131.1094,361.5059 Z " fill="#000000"/><text fill="#000000" font-family="sans-serif" font-size="8.4" lengthAdjust="spacing" textLength="69.6" x="141.75" y="367.459">AddUserController</text><line style="stroke:#181818;stroke-width:0.3;" x1="28.5" x2="305.1" y1="373.5809" y2="373.5809"/><line style="stroke:#181818;stroke-width:0.3;" x1="28.5" x2="305.1" y1="378.3809" y2="378.3809"/><text fill="#000000" font-family="sans-serif" font-size="8.4" lengthAdjust="spacing" textLength="53.4" x="31.5" y="389.8453">+getAllRoles()</text><text fill="#000000" font-family="sans-serif" font-size="8.4" lengthAdjust="spacing" textLength="106.8" x="31.5" y="401.018">+passwordGenerator(name)</text><text fill="#000000" font-family="sans-serif" font-size="8.4" lengthAdjust="spacing" textLength="75.6" x="31.5" y="412.1906">+getLoggedInUser()</text><text fill="#000000" font-family="sans-serif" font-size="8.4" lengthAdjust="spacing" textLength="270.6" x="31.5" y="423.3633">+addUser(username, password, firstName, lastName, email, createdOn)</text><text fill="#000000" font-family="sans-serif" font-size="8.4" lengthAdjust="spacing" textLength="225.6" x="31.5" y="434.5359">+addUser(username, password, firstName, lastName, email)</text></g><g id="elem_GMN38"><path d="M326.7,378.0809 L326.7,394.2809 L305.706,396.6809 L326.7,399.0809 L326.7,415.2047 A0,0 0 0 0 326.7,415.2047 L579.3,415.2047 A0,0 0 0 0 579.3,415.2047 L579.3,384.0809 L573.3,378.0809 L326.7,378.0809 A0,0 0 0 0 326.7,378.0809 " fill="#FEFFDD" style="stroke:#181818;stroke-width:0.3;"/><path d="M573.3,378.0809 L573.3,384.0809 L579.3,384.0809 L573.3,378.0809 " fill="#FEFFDD" style="stroke:#181818;stroke-width:0.3;"/><text fill="#000000" font-family="sans-serif" font-size="7.8" lengthAdjust="spacing" textLength="240" x="330.3" y="389.4979">- Methods such as getAllRoles(), getLoggedInUser and other services</text><text fill="#000000" font-family="sans-serif" font-size="7.8" lengthAdjust="spacing" textLength="180" x="330.3" y="399.8725">and repositories used are provided by the framework</text><text fill="#000000" font-family="sans-serif" font-size="7.8" lengthAdjust="spacing" textLength="162.6" x="330.3" y="410.2471">(no sense in representing framework's classes)</text></g><!--class Jobs4UPasswordPolicy--><g id="elem_Jobs4UPasswordPolicy"><rect codeLine="188" fill="#F1F1F1" height="62.318" id="Jobs4UPasswordPolicy" rx="1.5" ry="1.5" style="stroke:#181818;stroke-width:0.3;" width="115.8" x="108.9" y="518.7809"/><ellipse cx="122.49" cy="528.3809" fill="#ADD1B2" rx="6.6" ry="6.6" style="stroke:#181818;stroke-width:0.6;"/><path d="M124.1494,525.9059 Q124.2431,525.7746 124.3556,525.709 Q124.4681,525.6434 124.5994,525.6434 Q124.8244,525.6434 124.965,525.8027 Q125.1056,525.9527 125.1056,526.3184 L125.1056,527.1902 Q125.1056,527.5559 124.965,527.7152 Q124.8244,527.8746 124.5994,527.8746 Q124.3931,527.8746 124.2713,527.7527 Q124.1494,527.6402 124.0838,527.3309 Q124.0556,527.1152 123.9431,527.0027 Q123.7463,526.7777 123.3806,526.6465 Q123.015,526.5152 122.64,526.5152 Q122.1806,526.5152 121.7963,526.7121 Q121.4213,526.909 121.1213,527.359 Q120.8306,527.809 120.8306,528.4277 L120.8306,529.084 Q120.8306,529.8246 121.365,530.3215 Q121.8994,530.809 122.8556,530.809 Q123.4181,530.809 123.8119,530.659 Q124.0463,530.5652 124.2994,530.3027 Q124.4588,530.1434 124.5431,530.0965 Q124.6369,530.0496 124.7587,530.0496 Q124.9556,530.0496 125.1056,530.209 Q125.265,530.359 125.265,530.5652 Q125.265,530.7715 125.0588,531.0152 Q124.7587,531.3621 124.2806,531.559 Q123.6337,531.8309 122.8556,531.8309 Q121.9462,531.8309 121.2244,531.4559 Q120.6337,531.1559 120.2213,530.5184 Q119.8088,529.8715 119.8088,529.1027 L119.8088,528.409 Q119.8088,527.6121 120.1744,526.9277 Q120.5494,526.234 121.2056,525.8684 Q121.8619,525.4934 122.6025,525.4934 Q123.0431,525.4934 123.4275,525.5965 Q123.8212,525.6902 124.1494,525.9059 Z " fill="#000000"/><text fill="#000000" font-family="sans-serif" font-size="8.4" lengthAdjust="spacing" textLength="86.4" x="131.91" y="531.859">Jobs4UPasswordPolicy</text><line style="stroke:#181818;stroke-width:0.3;" x1="109.5" x2="224.1" y1="537.9809" y2="537.9809"/><line style="stroke:#181818;stroke-width:0.3;" x1="109.5" x2="224.1" y1="542.7809" y2="542.7809"/><text fill="#000000" font-family="sans-serif" font-size="8.4" lengthAdjust="spacing" textLength="108.6" x="112.5" y="554.2453">+isSatisfiedBy(rawPassword)</text><text fill="#000000" font-family="sans-serif" font-size="8.4" lengthAdjust="spacing" textLength="106.8" x="112.5" y="565.418">+passwordGenerator(name)</text><text fill="#000000" font-family="sans-serif" font-size="8.4" lengthAdjust="spacing" textLength="91.8" x="112.5" y="576.5906">+strength(rawPassword)</text></g><!--link RegisterCustomerUI to AddCustomerController--><g id="link_RegisterCustomerUI_AddCustomerController"><path codeLine="197" d="M1103.382,126.8849 C1052.34,153.1409 980.2535,190.2125 928.0415,217.0625 " fill="none" id="RegisterCustomerUI-to-AddCustomerController" style="stroke:#181818;stroke-width:0.6;"/><polygon fill="#181818" points="924.84,218.7089,930.7398,218.3736,927.5079,217.3369,928.5447,214.105,924.84,218.7089" style="stroke:#181818;stroke-width:0.6;"/></g><!--link RegisterCustomerUI to AddCompanyController--><g id="link_RegisterCustomerUI_AddCompanyController"><path codeLine="198" d="M1215.03,124.7309 C1239.93,136.7309 1269.552,151.2329 1296,164.7809 C1338.204,186.3989 1382.9585,210.6639 1414.6745,228.0819 " fill="none" id="RegisterCustomerUI-to-AddCompanyController" style="stroke:#181818;stroke-width:0.6;"/><polygon fill="#181818" points="1417.83,229.8149,1414.2521,225.1118,1415.2004,228.3707,1411.9415,229.3191,1417.83,229.8149" style="stroke:#181818;stroke-width:0.6;"/></g><!--link RegisterCustomerUI to ListCompaniesController--><g id="link_RegisterCustomerUI_ListCompaniesController"><path codeLine="199" d="M1215.012,103.8629 C1303.998,113.6609 1473.33,135.5249 1525.8,164.7809 C1551.264,178.9829 1570.6213,201.9524 1584.1993,221.3744 " fill="none" id="RegisterCustomerUI-to-ListCompaniesController" style="stroke:#181818;stroke-width:0.6;"/><polygon fill="#181818" points="1586.262,224.3249,1585.1349,218.524,1584.5431,221.8661,1581.201,221.2743,1586.262,224.3249" style="stroke:#181818;stroke-width:0.6;"/></g><!--link RegisterCustomerUI to AddUserController--><g id="link_RegisterCustomerUI_AddUserController"><path codeLine="200" d="M1103.274,101.7329 C1012.128,108.4349 826.398,125.9129 673.8,164.7809 C509.082,206.7329 468.048,223.9949 316.2,300.3809 C285.174,315.9869 255.49,334.4089 228.634,352.3789 " fill="none" id="RegisterCustomerUI-to-AddUserController" style="stroke:#181818;stroke-width:0.6;"/><polygon fill="#181818" points="225.642,354.3809,231.4646,353.3725,228.1353,352.7125,228.7953,349.3832,225.642,354.3809" style="stroke:#181818;stroke-width:0.6;"/></g><!--link AddUserController to Jobs4UPasswordPolicy--><g id="link_AddUserController_Jobs4UPasswordPolicy"><path codeLine="202" d="M166.8,439.0469 C166.8,464.1989 166.8,492.0749 166.8,514.9649 " fill="none" id="AddUserController-to-Jobs4UPasswordPolicy" style="stroke:#181818;stroke-width:0.6;"/><polygon fill="#181818" points="166.8,518.5649,169.2,513.1649,166.8,515.5649,164.4,513.1649,166.8,518.5649" style="stroke:#181818;stroke-width:0.6;"/></g><!--link AddCustomerController to AddUserController--><g id="link_AddCustomerController_AddUserController"><path codeLine="204" d="M683.322,269.6789 C596.886,278.3489 492.084,288.2729 397.8,295.5809 C379.692,296.9849 333.474,294.7649 316.2,300.3809 C280.536,311.9729 247.9087,332.0582 220.4467,352.1642 " fill="none" id="AddCustomerController-to-AddUserController" style="stroke:#181818;stroke-width:0.6;"/><polygon fill="#181818" points="217.542,354.2909,223.3168,353.0374,219.9626,352.5186,220.4813,349.1644,217.542,354.2909" style="stroke:#181818;stroke-width:0.6;"/></g><!--link AddCustomerController to CustomerService--><g id="link_AddCustomerController_CustomerService"><path codeLine="205" d="M865.2,281.2589 C865.2,307.9409 865.2,342.5189 865.2,367.4069 " fill="none" id="AddCustomerController-to-CustomerService" style="stroke:#181818;stroke-width:0.6;"/><polygon fill="#181818" points="865.2,371.0069,867.6,365.6069,865.2,368.0069,862.8,365.6069,865.2,371.0069" style="stroke:#181818;stroke-width:0.6;"/></g><!--link CustomerService to CustomerRepository--><g id="link_CustomerService_CustomerRepository"><path codeLine="207" d="M1012.932,411.2969 C1061.862,420.1589 1115.298,434.6069 1160.4,458.1809 C1191.366,474.3689 1217.0854,500.7269 1234.7554,521.7149 " fill="none" id="CustomerService-to-CustomerRepository" style="stroke:#181818;stroke-width:0.6;"/><polygon fill="#181818" points="1237.074,524.4689,1235.4321,518.7922,1235.1419,522.1739,1231.7602,521.8837,1237.074,524.4689" style="stroke:#181818;stroke-width:0.6;"/></g><!--link CustomerService to CustomerBuilder--><g id="link_CustomerService_CustomerBuilder"><path codeLine="208" d="M853.884,422.2289 C846.12,439.3349 836.9331,459.5884 826.8771,481.7584 " fill="none" id="CustomerService-to-CustomerBuilder" style="stroke:#181818;stroke-width:0.6;"/><polygon fill="#181818" points="825.39,485.0369,829.8063,481.1105,826.6292,482.3048,825.435,479.1277,825.39,485.0369" style="stroke:#181818;stroke-width:0.6;"/></g><!--link CustomerBuilder to Customer--><g id="link_CustomerBuilder_Customer"><path codeLine="210" d="M784.764,614.8829 C782.718,626.4029 781.1776,635.0627 779.0176,647.1827 " fill="none" id="CustomerBuilder-to-Customer" style="stroke:#181818;stroke-width:0.6;"/><polygon fill="#181818" points="778.386,650.7269,781.6962,645.8317,778.9124,647.7734,776.9707,644.9895,778.386,650.7269" style="stroke:#181818;stroke-width:0.6;"/></g><!--link ListCompaniesController to CompanyService--><g id="link_ListCompaniesController_CompanyService"><path codeLine="212" d="M1578.588,275.5949 C1555.314,300.4589 1522.032,336.0085 1497.042,362.7085 " fill="none" id="ListCompaniesController-to-CompanyService" style="stroke:#181818;stroke-width:0.6;"/><polygon fill="#181818" points="1494.582,365.3369,1500.0243,363.0343,1496.632,363.1466,1496.5198,359.7543,1494.582,365.3369" style="stroke:#181818;stroke-width:0.6;"/></g><!--link CompanyService to CustomerRepository--><g id="link_CompanyService_CustomerRepository"><path codeLine="214" d="M1423.152,427.8929 C1409.712,437.5589 1394.826,448.2989 1381.2,458.1809 C1350.462,480.4769 1318.4821,503.8614 1293.4201,522.2214 " fill="none" id="CompanyService-to-CustomerRepository" style="stroke:#181818;stroke-width:0.6;"/><polygon fill="#181818" points="1290.516,524.3489,1296.2905,523.0937,1292.9361,522.5759,1293.4538,519.2216,1290.516,524.3489" style="stroke:#181818;stroke-width:0.6;"/></g><!--link CompanyService to CustomerBuilder--><g id="link_CompanyService_CustomerBuilder"><path codeLine="215" d="M1396.494,407.9909 C1309.404,421.0049 1155.222,442.5509 1022.4,453.3809 C1007.97,454.5569 905.544,452.5649 892.2,458.1809 C877.26,464.4689 865.9838,471.8437 853.5518,482.6617 " fill="none" id="CompanyService-to-CustomerBuilder" style="stroke:#181818;stroke-width:0.6;"/><polygon fill="#181818" points="850.836,485.0249,856.4851,483.2906,853.0991,483.0555,853.3342,479.6696,850.836,485.0249" style="stroke:#181818;stroke-width:0.6;"/></g><!--link CompanyService to CompanyRepository--><g id="link_CompanyService_CompanyRepository"><path codeLine="216" d="M1533.768,427.9349 C1549.488,436.5689 1565.586,446.7689 1579.2,458.1809 C1602,477.2969 1620.4283,501.6707 1633.6463,521.4287 " fill="none" id="CompanyService-to-CompanyRepository" style="stroke:#181818;stroke-width:0.6;"/><polygon fill="#181818" points="1635.648,524.4209,1634.6402,518.5981,1633.9799,521.9274,1630.6506,521.2671,1635.648,524.4209" style="stroke:#181818;stroke-width:0.6;"/></g><!--link CompanyService to CompanyBuilder--><g id="link_CompanyService_CompanyBuilder"><path codeLine="217" d="M1467.864,428.0609 C1469.394,450.8909 1471.259,478.6849 1472.945,503.8129 " fill="none" id="CompanyService-to-CompanyBuilder" style="stroke:#181818;stroke-width:0.6;"/><polygon fill="#181818" points="1473.186,507.4049,1475.2191,501.8563,1472.9852,504.4116,1470.4299,502.1776,1473.186,507.4049" style="stroke:#181818;stroke-width:0.6;"/></g><!--link CompanyBuilder to Company--><g id="link_CompanyBuilder_Company"><path codeLine="219" d="M1476.912,592.3049 C1477.392,614.2889 1477.9195,638.3317 1478.4775,663.9097 " fill="none" id="CompanyBuilder-to-Company" style="stroke:#181818;stroke-width:0.6;"/><polygon fill="#181818" points="1478.556,667.5089,1480.8377,662.0578,1478.4906,664.5096,1476.0388,662.1625,1478.556,667.5089" style="stroke:#181818;stroke-width:0.6;"/></g><!--link Company to CompanyName--><g id="link_Company_CompanyName"><path codeLine="221" d="M1480.2,819.4409 C1480.2,836.9369 1480.2,851.7149 1480.2,868.3709 " fill="none" id="Company-to-CompanyName" style="stroke:#181818;stroke-width:0.6;"/><polygon fill="#181818" points="1480.2,871.9709,1482.6,866.5709,1480.2,868.9709,1477.8,866.5709,1480.2,871.9709" style="stroke:#181818;stroke-width:0.6;"/></g><!--link AddCompanyController to CompanyService--><g id="link_AddCompanyController_CompanyService"><path codeLine="223" d="M1454.898,270.2009 C1457.016,294.6389 1460.341,333.0643 1462.831,361.7803 " fill="none" id="AddCompanyController-to-CompanyService" style="stroke:#181818;stroke-width:0.6;"/><polygon fill="#181818" points="1463.142,365.3669,1465.0665,359.7797,1462.8828,362.3781,1460.2845,360.1944,1463.142,365.3669" style="stroke:#181818;stroke-width:0.6;"/></g><!--SRC=[jLXBR-Cs4BxhLn2vr45iO0yzzL0WyHQ55xl98av-02sDPI8IwP9K33VmV-zGBvCIIJ-QDN9Gn6y-pWpd9QetnhTKqfAa1LNgNcl9LfM6HIhualqBv4kIl31T0BcP6m3vocXku3Fo33bJ6YIX9AsK5YN8coH9jZHzepdYAtRpaH3pgwbx_Bm5loxQPVEx8vbORiHkSck_Kr10gf_aN0BLC1VbblBz0892pG83vPFsIgKruIFilAiRe5d1E7Hl3yd1igitzYEfb_i5kjqMBAMQ2Twj7Qs_pxBEyBdWMegY06aveDzS3jmqMJEfz2CjOKgGgNs2ah9YIf06rBGr9tlY-DWODEtFv0Vbg9syzMpLY2ttk5tvgYxSAapOQyvXPsXR2lI01ANEKV5mz1uN6eXa-KOJiVPxSQJ8Z2mHGIe56Ib1RqIc29L0jbAyimnVhlP4Ru2iCP1X9-JRT4I1o_jQ1lSdAs0ynuFPelx0jI60b2AzWKduJI4AeutZ2yP7LBsS8N6sHJG-AoshL5SIHfBc1pohVT1uv308kKoWPptHrZdfmylP-EWlwr2S4uh876DbU7Zd2Qd-CO9lSxABao3ohZTpKbqLPX726CXi5WMauw8onhXAHR7mJqKBDH4csZeDO_WDLPkvo21AgZ08xoyWnSJ14DPngxHOOWFXkGTavRG_jpibHh0Np1adM2dcX1LK9athi0U5kILADyb6T4eWWEfZYYjMOk5Uiq_CQoI44fVgPf24Sthi4pT_7ofMP94qlYABhqdY2tFux1I-8pkcDtNhERBUnj5TnswfJw47QNPkBMYaRUTERET6v5RcoFvF_BTd7iooNvGMlofDFYzjWcdawuouZL1C2ubZeTqV5zY_vPgcqFlxkKFkVUFOcl7iONz183GYzqLndshsRjVWWx-7urczizJLqgq2omPnrhHupADm1tGxfSy4MXGTet8iQ0rmvk5cbyl6uU-eTJ-snmTYuyv1qZzMvSe_qXh5FLy31zyutd35DwVPQ6-CLez7pXlB6efWLPzX0cdY69a4YwjHX5XA9T5wsR2TTg0jWgH-g-FLRb3f7DCDZy_kPcmWVv0C5Ckvlm3SsUPEBAHFitTQLF2qFWMBJ2ntjZBUTMSmYpigCfErPabu4IUeOfxrpmZdHDHbKTKEokEac98JmULAXjOzFWr1JyovRhY4CCuS7DylS4nHSq-CpIT6vYixMwFOEOsjXIw-JbXsKJszi9CrsvpJo6BLzdERWcs8tT3CzvrjmgcEvdGLqtdZBIK7ZTF1ixbEyHQ3BJBXE9Jz3HmanUERy80JaEcxo7F85lpL_qrQDx1wpHZ5wopj-ASaTjqJlUUvZZHQoqRtFAuZFItZHtkpewfqGwXo_JeTEgUUZkkq9LsOZZWDnCwkvWOfUdCqufXOix0xw_OoE32tSxdh4MUU7RXeF5gCe- -RMAdVNt-s9_5JOApkFs9Vz6g9iQpCHF-mdqYwwqHZN_ZdHgTLOBK4dkjDU8U3RJ7-ZM-AoMpsP-3oBm8U3dWXR60OZL0FWZCPlQg1lWEfiMCp0iHXxE3R84a6BnpGiHD4OTsNPp9uuO2I9E2k1kKKUcHo_Wyg5KPrElaWmpON0HrDS_wt8VsQ_R8UWH9VC7dD_Gy0]--></g></svg>