<?xml version="1.0" encoding="us-ascii" standalone="no"?><svg xmlns="http://www.w3.org/2000/svg" xmlns:xlink="http://www.w3.org/1999/xlink" contentStyleType="text/css" height="606px" preserveAspectRatio="none" style="width:451px;height:606px;background:#FFFFFF;" version="1.1" viewBox="0 0 451 606" width="451px" zoomAndPan="magnify"><defs/><g><text fill="#000000" font-family="sans-serif" font-size="14" font-weight="bold" lengthAdjust="spacing" textLength="183" x="135.25" y="30.1074">SSD - Register a customer</text><rect fill="#FFFFFF" height="381.123" style="stroke:#181818;stroke-width:1.0;" width="10" x="78.5" y="133.2422"/><rect fill="#FFFFFF" height="31.291" style="stroke:#181818;stroke-width:1.0;" width="10" x="395.5" y="156.5332"/><rect fill="#FFFFFF" height="48.582" style="stroke:#181818;stroke-width:1.0;" width="10" x="395.5" y="219.1152"/><rect fill="#FFFFFF" height="57.582" style="stroke:#181818;stroke-width:1.0;" width="10" x="395.5" y="298.9883"/><rect fill="#FFFFFF" height="47.9219" style="stroke:#181818;stroke-width:1.0;" width="10" x="395.5" y="387.8613"/><rect fill="#FFFFFF" height="38.291" style="stroke:#181818;stroke-width:1.0;" width="10" x="395.5" y="467.0742"/><rect fill="none" height="161.0859" style="stroke:#000000;stroke-width:1.5;" width="434.5" x="10" y="313.9883"/><line style="stroke:#181818;stroke-width:0.5;stroke-dasharray:5.0,5.0;" x1="83" x2="83" y1="123.2422" y2="523.3652"/><line style="stroke:#181818;stroke-width:0.5;stroke-dasharray:5.0,5.0;" x1="400.5" x2="400.5" y1="123.2422" y2="523.3652"/><text fill="#000000" font-family="sans-serif" font-size="14" lengthAdjust="spacing" textLength="121" x="20" y="119.7285">Customer Manager</text><ellipse cx="83.5" cy="53.1211" fill="#E3E3E3" rx="8" ry="8" style="stroke:#181818;stroke-width:0.5;"/><path d="M83.5,61.1211 L83.5,88.1211 M70.5,69.1211 L96.5,69.1211 M83.5,88.1211 L70.5,103.1211 M83.5,88.1211 L96.5,103.1211 " fill="none" style="stroke:#181818;stroke-width:0.5;"/><text fill="#000000" font-family="sans-serif" font-size="14" lengthAdjust="spacing" textLength="121" x="20" y="537.4727">Customer Manager</text><ellipse cx="83.5" cy="549.4863" fill="#E3E3E3" rx="8" ry="8" style="stroke:#181818;stroke-width:0.5;"/><path d="M83.5,557.4863 L83.5,584.4863 M70.5,565.4863 L96.5,565.4863 M83.5,584.4863 L70.5,599.4863 M83.5,584.4863 L96.5,599.4863 " fill="none" style="stroke:#181818;stroke-width:0.5;"/><rect fill="#E3E3E3" height="32.6211" rx="2.5" ry="2.5" style="stroke:#181818;stroke-width:0.5;" width="68" x="366.5" y="89.6211"/><text fill="#000000" font-family="sans-serif" font-size="14" lengthAdjust="spacing" textLength="54" x="373.5" y="111.7285">: System</text><rect fill="#E3E3E3" height="32.6211" rx="2.5" ry="2.5" style="stroke:#181818;stroke-width:0.5;" width="68" x="366.5" y="522.3652"/><text fill="#000000" font-family="sans-serif" font-size="14" lengthAdjust="spacing" textLength="54" x="373.5" y="544.4727">: System</text><rect fill="#FFFFFF" height="381.123" style="stroke:#181818;stroke-width:1.0;" width="10" x="78.5" y="133.2422"/><rect fill="#FFFFFF" height="31.291" style="stroke:#181818;stroke-width:1.0;" width="10" x="395.5" y="156.5332"/><rect fill="#FFFFFF" height="48.582" style="stroke:#181818;stroke-width:1.0;" width="10" x="395.5" y="219.1152"/><rect fill="#FFFFFF" height="57.582" style="stroke:#181818;stroke-width:1.0;" width="10" x="395.5" y="298.9883"/><rect fill="#FFFFFF" height="47.9219" style="stroke:#181818;stroke-width:1.0;" width="10" x="395.5" y="387.8613"/><rect fill="#FFFFFF" height="38.291" style="stroke:#181818;stroke-width:1.0;" width="10" x="395.5" y="467.0742"/><polygon fill="#181818" points="383.5,152.5332,393.5,156.5332,383.5,160.5332,387.5,156.5332" style="stroke:#181818;stroke-width:1.0;"/><line style="stroke:#181818;stroke-width:1.0;" x1="88.5" x2="389.5" y1="156.5332" y2="156.5332"/><text fill="#000000" font-family="sans-serif" font-size="13" font-weight="bold" lengthAdjust="spacing" textLength="7" x="95.5" y="151.2705">1</text><text fill="#000000" font-family="sans-serif" font-size="13" lengthAdjust="spacing" textLength="163" x="106.5" y="151.2705">Asks to register a Customer</text><polygon fill="#181818" points="99.5,183.8242,89.5,187.8242,99.5,191.8242,95.5,187.8242" style="stroke:#181818;stroke-width:1.0;"/><line style="stroke:#181818;stroke-width:1.0;stroke-dasharray:2.0,2.0;" x1="93.5" x2="399.5" y1="187.8242" y2="187.8242"/><text fill="#000000" font-family="sans-serif" font-size="13" font-weight="bold" lengthAdjust="spacing" textLength="7" x="105.5" y="182.5615">2</text><text fill="#000000" font-family="sans-serif" font-size="13" lengthAdjust="spacing" textLength="204" x="116.5" y="182.5615">Asks for the customer's information</text><polygon fill="#181818" points="383.5,215.1152,393.5,219.1152,383.5,223.1152,387.5,219.1152" style="stroke:#181818;stroke-width:1.0;"/><line style="stroke:#181818;stroke-width:1.0;" x1="88.5" x2="389.5" y1="219.1152" y2="219.1152"/><text fill="#000000" font-family="sans-serif" font-size="13" font-weight="bold" lengthAdjust="spacing" textLength="7" x="95.5" y="213.8525">3</text><text fill="#000000" font-family="sans-serif" font-size="13" lengthAdjust="spacing" textLength="277" x="106.5" y="213.8525">provides firstName, lastName and emailAddress</text><polygon fill="#181818" points="99.5,263.6973,89.5,267.6973,99.5,271.6973,95.5,267.6973" style="stroke:#181818;stroke-width:1.0;"/><line style="stroke:#181818;stroke-width:1.0;stroke-dasharray:2.0,2.0;" x1="93.5" x2="399.5" y1="267.6973" y2="267.6973"/><text fill="#000000" font-family="sans-serif" font-size="13" font-weight="bold" lengthAdjust="spacing" textLength="7" x="105.5" y="253.7891">4</text><text fill="#000000" font-family="sans-serif" font-size="13" lengthAdjust="spacing" textLength="239" x="116.5" y="245.1436">shows the list of all companies registered</text><text fill="#000000" font-family="sans-serif" font-size="13" lengthAdjust="spacing" textLength="265" x="120.5" y="262.4346">and asks to select one or to create a new one</text><polygon fill="#181818" points="383.5,294.9883,393.5,298.9883,383.5,302.9883,387.5,298.9883" style="stroke:#181818;stroke-width:1.0;"/><line style="stroke:#181818;stroke-width:1.0;" x1="88.5" x2="389.5" y1="298.9883" y2="298.9883"/><text fill="#000000" font-family="sans-serif" font-size="13" font-weight="bold" lengthAdjust="spacing" textLength="7" x="95.5" y="293.7256">5</text><text fill="#000000" font-family="sans-serif" font-size="13" lengthAdjust="spacing" textLength="103" x="106.5" y="293.7256">makes the choice</text><path d="M10,313.9883 L75,313.9883 L75,323.2793 L65,333.2793 L10,333.2793 L10,313.9883 " fill="#EEEEEE" style="stroke:#000000;stroke-width:1.5;"/><rect fill="none" height="161.0859" style="stroke:#000000;stroke-width:1.5;" width="434.5" x="10" y="313.9883"/><text fill="#000000" font-family="sans-serif" font-size="13" font-weight="bold" lengthAdjust="spacing" textLength="20" x="25" y="329.0166">opt</text><text fill="#000000" font-family="sans-serif" font-size="11" font-weight="bold" lengthAdjust="spacing" textLength="162" x="90" y="327.8584">[choose to select a company]</text><polygon fill="#181818" points="99.5,352.5703,89.5,356.5703,99.5,360.5703,95.5,356.5703" style="stroke:#181818;stroke-width:1.0;"/><line style="stroke:#181818;stroke-width:1.0;stroke-dasharray:2.0,2.0;" x1="93.5" x2="399.5" y1="356.5703" y2="356.5703"/><text fill="#000000" font-family="sans-serif" font-size="13" font-weight="bold" lengthAdjust="spacing" textLength="7" x="105.5" y="351.3076">6</text><text fill="#000000" font-family="sans-serif" font-size="13" lengthAdjust="spacing" textLength="227" x="116.5" y="351.3076">asks for the desired company's number</text><polygon fill="#181818" points="383.5,383.8613,393.5,387.8613,383.5,391.8613,387.5,387.8613" style="stroke:#181818;stroke-width:1.0;"/><line style="stroke:#181818;stroke-width:1.0;" x1="88.5" x2="389.5" y1="387.8613" y2="387.8613"/><text fill="#000000" font-family="sans-serif" font-size="13" font-weight="bold" lengthAdjust="spacing" textLength="7" x="95.5" y="382.5986">7</text><text fill="#000000" font-family="sans-serif" font-size="13" lengthAdjust="spacing" textLength="163" x="106.5" y="382.5986">inserts the companyNumber</text><line style="stroke:#000000;stroke-width:1.0;stroke-dasharray:2.0,2.0;" x1="10" x2="444.5" y1="396.8613" y2="396.8613"/><text fill="#000000" font-family="sans-serif" font-size="11" font-weight="bold" lengthAdjust="spacing" textLength="163" x="15" y="408.7314">[choose to create a company]</text><polygon fill="#181818" points="99.5,431.7832,89.5,435.7832,99.5,439.7832,95.5,435.7832" style="stroke:#181818;stroke-width:1.0;"/><line style="stroke:#181818;stroke-width:1.0;stroke-dasharray:2.0,2.0;" x1="93.5" x2="399.5" y1="435.7832" y2="435.7832"/><text fill="#000000" font-family="sans-serif" font-size="13" font-weight="bold" lengthAdjust="spacing" textLength="7" x="105.5" y="430.5205">8</text><text fill="#000000" font-family="sans-serif" font-size="13" lengthAdjust="spacing" textLength="197" x="116.5" y="430.5205">asks for the new company's name</text><polygon fill="#181818" points="383.5,463.0742,393.5,467.0742,383.5,471.0742,387.5,467.0742" style="stroke:#181818;stroke-width:1.0;"/><line style="stroke:#181818;stroke-width:1.0;" x1="88.5" x2="389.5" y1="467.0742" y2="467.0742"/><text fill="#000000" font-family="sans-serif" font-size="13" font-weight="bold" lengthAdjust="spacing" textLength="7" x="95.5" y="461.8115">9</text><text fill="#000000" font-family="sans-serif" font-size="13" lengthAdjust="spacing" textLength="160" x="106.5" y="461.8115">provides the companyName</text><polygon fill="#181818" points="99.5,501.3652,89.5,505.3652,99.5,509.3652,95.5,505.3652" style="stroke:#181818;stroke-width:1.0;"/><line style="stroke:#181818;stroke-width:1.0;stroke-dasharray:2.0,2.0;" x1="93.5" x2="399.5" y1="505.3652" y2="505.3652"/><text fill="#000000" font-family="sans-serif" font-size="13" font-weight="bold" lengthAdjust="spacing" textLength="14" x="105.5" y="500.1025">10</text><text fill="#000000" font-family="sans-serif" font-size="13" lengthAdjust="spacing" textLength="156" x="123.5" y="500.1025">shows operation's success</text><!--SRC=[dPB1Ri8m38RlUGgBooxZ1NQOXDWL3kEwYvSQ6f74LUo2UFkvfQtADBIn7YehSNv_jdyvXjnWmGI9C_kwS2BGqfAJwQP1VyG3xVGI2GfvnNo8ymIfiU9po0VOOnHoJeDQwcxt1ajufqCGfG88lXKr_U8SjigvJPzzx9KBBDR39MmmMxMo01HORvoLqE13WrbXyGAxYucb_l8QzWBXX4gM3VOvr_qjNhuEAV02ApaAA1l-H3CMxDCdZL4KXczGM9gOIGv2UmFMcgQ6dWH2jiE46ZZtRolwKV8RLbFu52eonL14jvZe6I9U8y1S0IKCSLLLXKGU0vMQpz9JHkiOU0yO8tXEDibW5ST9KFMH-r8uZ4Wesew1Cq7N9eClr1L4o7JkZjq33IOyqfN2rnoylRtV1JVQPR7G30C7vClzJd6-4Xjci9x6LxQPqMT_XmvPgEY0VTNPpaJ8F3u3dSPp0_hdFTtGTnEUaPiBt7_SD0UVD7vKe5pzPY5kgFI-DY9flU-SU0Vg2m00]--></g></svg>