<?xml version="1.0" encoding="us-ascii" standalone="no"?><svg xmlns="http://www.w3.org/2000/svg" xmlns:xlink="http://www.w3.org/1999/xlink" contentStyleType="text/css" height="757.6px" preserveAspectRatio="none" style="width:1208px;height:757px;background:#FFFFFF;" version="1.1" viewBox="0 0 1208 757" width="1208px" zoomAndPan="magnify"><defs/><g><text fill="#000000" font-family="sans-serif" font-size="11.2" font-weight="bold" lengthAdjust="spacing" textLength="216.8" x="490" y="18.8281">Class Diagram - Register a candidate</text><!--cluster presentation--><g id="cluster_presentation"><path d="M285.2,34.7906 L358.8,34.7906 A3,3 0 0 1 360.8,36.7906 L366.4,52.7813 L575.6,52.7813 A2,2 0 0 1 577.6,54.7813 L577.6,177.5906 A2,2 0 0 1 575.6,179.5906 L285.2,179.5906 A2,2 0 0 1 283.2,177.5906 L283.2,36.7906 A2,2 0 0 1 285.2,34.7906 " fill="none" style="stroke:#000000;stroke-width:1.2000000000000002;"/><line style="stroke:#000000;stroke-width:1.2000000000000002;" x1="283.2" x2="366.4" y1="52.7813" y2="52.7813"/><text fill="#000000" font-family="sans-serif" font-size="11.2" font-weight="bold" lengthAdjust="spacing" textLength="72.8" x="286.4" y="47.2188">presentation</text></g><!--cluster application--><g id="cluster_application"><path d="M84.4,251.5906 L149.2,251.5906 A3,3 0 0 1 151.2,253.5906 L156.8,269.5813 L866,269.5813 A2,2 0 0 1 868,271.5813 L868,559.9906 A2,2 0 0 1 866,561.9906 L84.4,561.9906 A2,2 0 0 1 82.4,559.9906 L82.4,253.5906 A2,2 0 0 1 84.4,251.5906 " fill="none" style="stroke:#000000;stroke-width:1.2000000000000002;"/><line style="stroke:#000000;stroke-width:1.2000000000000002;" x1="82.4" x2="156.8" y1="269.5813" y2="269.5813"/><text fill="#000000" font-family="sans-serif" font-size="11.2" font-weight="bold" lengthAdjust="spacing" textLength="64" x="85.6" y="264.0188">application</text></g><!--cluster repositories--><g id="cluster_repositories"><path d="M478.8,613.9906 L549.2,613.9906 A3,3 0 0 1 551.2,615.9906 L556.8,631.9813 L811.6,631.9813 A2,2 0 0 1 813.6,633.9813 L813.6,717.5906 A2,2 0 0 1 811.6,719.5906 L478.8,719.5906 A2,2 0 0 1 476.8,717.5906 L476.8,615.9906 A2,2 0 0 1 478.8,613.9906 " fill="none" style="stroke:#000000;stroke-width:1.2000000000000002;"/><line style="stroke:#000000;stroke-width:1.2000000000000002;" x1="476.8" x2="556.8" y1="631.9813" y2="631.9813"/><text fill="#000000" font-family="sans-serif" font-size="11.2" font-weight="bold" lengthAdjust="spacing" textLength="69.6" x="480" y="626.4188">repositories</text></g><!--cluster domain--><g id="cluster_domain"><path d="M889.2,198.7906 L933.2,198.7906 A3,3 0 0 1 935.2,200.7906 L940.8,216.7813 L1200.4,216.7813 A2,2 0 0 1 1202.4,218.7813 L1202.4,420.7906 A2,2 0 0 1 1200.4,422.7906 L889.2,422.7906 A2,2 0 0 1 887.2,420.7906 L887.2,200.7906 A2,2 0 0 1 889.2,198.7906 " fill="none" style="stroke:#000000;stroke-width:1.2000000000000002;"/><line style="stroke:#000000;stroke-width:1.2000000000000002;" x1="887.2" x2="940.8" y1="216.7813" y2="216.7813"/><text fill="#000000" font-family="sans-serif" font-size="11.2" font-weight="bold" lengthAdjust="spacing" textLength="43.2" x="890.4" y="211.2188">domain</text></g><!--cluster services--><g id="cluster_services"><path d="M6.8,581.1906 L54,581.1906 A3,3 0 0 1 56,583.1906 L61.6,599.1813 L455.6,599.1813 A2,2 0 0 1 457.6,601.1813 L457.6,750.3906 A2,2 0 0 1 455.6,752.3906 L6.8,752.3906 A2,2 0 0 1 4.8,750.3906 L4.8,583.1906 A2,2 0 0 1 6.8,581.1906 " fill="none" style="stroke:#000000;stroke-width:1.2000000000000002;"/><line style="stroke:#000000;stroke-width:1.2000000000000002;" x1="4.8" x2="61.6" y1="599.1813" y2="599.1813"/><text fill="#000000" font-family="sans-serif" font-size="11.2" font-weight="bold" lengthAdjust="spacing" textLength="46.4" x="8" y="593.6188">services</text></g><!--class ChangeProcessStatusUI--><g id="elem_ChangeProcessStatusUI"><rect codeLine="12" fill="#FFFFFF" height="104.3531" id="ChangeProcessStatusUI" rx="2" ry="2" style="stroke:#000000;stroke-width:0.4000000000000001;" width="268.8" x="296" y="62.7906"/><ellipse cx="362.6" cy="75.5906" fill="#ADD1B2" rx="8.8" ry="8.8" style="stroke:#181818;stroke-width:0.8000000000000002;"/><path d="M364.9785,80.1051 Q364.5137,80.3441 364.0023,80.4637 Q363.491,80.5832 362.9266,80.5832 Q360.9211,80.5832 359.8652,79.2617 Q358.8094,77.9402 358.8094,75.4434 Q358.8094,72.9398 359.8652,71.6184 Q360.9211,70.2969 362.9266,70.2969 Q363.491,70.2969 364.009,70.4164 Q364.527,70.5359 364.9785,70.775 L364.9785,72.9531 Q364.4738,72.4883 363.999,72.2725 Q363.5242,72.0566 363.0195,72.0566 Q361.9438,72.0566 361.3959,72.91 Q360.848,73.7633 360.848,75.4434 Q360.848,77.1168 361.3959,77.9701 Q361.9438,78.8234 363.0195,78.8234 Q363.5242,78.8234 363.999,78.6076 Q364.4738,78.3918 364.9785,77.927 Z " fill="#000000"/><text fill="#000000" font-family="sans-serif" font-size="11.2" lengthAdjust="spacing" textLength="128.8" x="379" y="79.8234">ChangeProcessStatusUI</text><line style="stroke:#000000;stroke-width:0.4000000000000001;" x1="296.8" x2="564" y1="88.3906" y2="88.3906"/><line style="stroke:#000000;stroke-width:0.4000000000000001;" x1="296.8" x2="564" y1="94.7906" y2="94.7906"/><ellipse cx="304.8" cy="105.7859" fill="#84BE84" rx="2.4" ry="2.4" style="stroke:#038048;stroke-width:0.8000000000000002;"/><text fill="#000000" font-family="sans-serif" font-size="11.2" lengthAdjust="spacing" textLength="52" x="312" y="108.8188">doShow()</text><ellipse cx="304.8" cy="118.9766" fill="#84BE84" rx="2.4" ry="2.4" style="stroke:#038048;stroke-width:0.8000000000000002;"/><text fill="#000000" font-family="sans-serif" font-size="11.2" lengthAdjust="spacing" textLength="55.2" x="312" y="122.0094">headline()</text><ellipse cx="304.8" cy="132.1672" fill="#84BE84" rx="2.4" ry="2.4" style="stroke:#038048;stroke-width:0.8000000000000002;"/><text fill="#000000" font-family="sans-serif" font-size="11.2" lengthAdjust="spacing" textLength="72.8" x="312" y="135.2">selectStatus()</text><ellipse cx="304.8" cy="145.3578" fill="#84BE84" rx="2.4" ry="2.4" style="stroke:#038048;stroke-width:0.8000000000000002;"/><text fill="#000000" font-family="sans-serif" font-size="11.2" lengthAdjust="spacing" textLength="248" x="312" y="148.3906">changeProcessStatus(processStatus ,process)</text><ellipse cx="304.8" cy="158.5484" fill="#84BE84" rx="2.4" ry="2.4" style="stroke:#038048;stroke-width:0.8000000000000002;"/><text fill="#000000" font-family="sans-serif" font-size="11.2" lengthAdjust="spacing" textLength="235.2" x="312" y="161.5813">changeProcessState(processState ,process)</text></g><!--class ChangeProcessStatusController--><g id="elem_ChangeProcessStatusController"><rect codeLine="22" fill="#FFFFFF" height="51.5906" id="ChangeProcessStatusController" rx="2" ry="2" style="stroke:#000000;stroke-width:0.4000000000000001;" width="268.8" x="586.4" y="292.7906"/><ellipse cx="630.6" cy="305.5906" fill="#ADD1B2" rx="8.8" ry="8.8" style="stroke:#181818;stroke-width:0.8000000000000002;"/><path d="M632.9785,310.1051 Q632.5137,310.3441 632.0023,310.4637 Q631.491,310.5832 630.9266,310.5832 Q628.9211,310.5832 627.8652,309.2617 Q626.8094,307.9402 626.8094,305.4434 Q626.8094,302.9398 627.8652,301.6184 Q628.9211,300.2969 630.9266,300.2969 Q631.491,300.2969 632.009,300.4164 Q632.527,300.5359 632.9785,300.775 L632.9785,302.9531 Q632.4738,302.4883 631.999,302.2725 Q631.5242,302.0566 631.0195,302.0566 Q629.9438,302.0566 629.3959,302.91 Q628.848,303.7633 628.848,305.4434 Q628.848,307.1168 629.3959,307.9701 Q629.9438,308.8234 631.0195,308.8234 Q631.5242,308.8234 631.999,308.6076 Q632.4738,308.3918 632.9785,307.927 Z " fill="#000000"/><text fill="#000000" font-family="sans-serif" font-size="11.2" lengthAdjust="spacing" textLength="173.6" x="647" y="309.8234">ChangeProcessStatusController</text><line style="stroke:#000000;stroke-width:0.4000000000000001;" x1="587.2" x2="854.4" y1="318.3906" y2="318.3906"/><line style="stroke:#000000;stroke-width:0.4000000000000001;" x1="587.2" x2="854.4" y1="324.7906" y2="324.7906"/><ellipse cx="595.2" cy="335.7859" fill="#84BE84" rx="2.4" ry="2.4" style="stroke:#038048;stroke-width:0.8000000000000002;"/><text fill="#000000" font-family="sans-serif" font-size="11.2" lengthAdjust="spacing" textLength="248" x="602.4" y="338.8188">changeProcessStatus(processStatus ,process)</text></g><!--class ChangeProcessStateController--><g id="elem_ChangeProcessStateController"><rect codeLine="25" fill="#FFFFFF" height="51.5906" id="ChangeProcessStateController" rx="2" ry="2" style="stroke:#000000;stroke-width:0.4000000000000001;" width="256" x="302.4" y="292.7906"/><ellipse cx="343.4" cy="305.5906" fill="#ADD1B2" rx="8.8" ry="8.8" style="stroke:#181818;stroke-width:0.8000000000000002;"/><path d="M345.7785,310.1051 Q345.3137,310.3441 344.8023,310.4637 Q344.291,310.5832 343.7266,310.5832 Q341.7211,310.5832 340.6652,309.2617 Q339.6094,307.9402 339.6094,305.4434 Q339.6094,302.9398 340.6652,301.6184 Q341.7211,300.2969 343.7266,300.2969 Q344.291,300.2969 344.809,300.4164 Q345.327,300.5359 345.7785,300.775 L345.7785,302.9531 Q345.2738,302.4883 344.799,302.2725 Q344.3242,302.0566 343.8195,302.0566 Q342.7438,302.0566 342.1959,302.91 Q341.648,303.7633 341.648,305.4434 Q341.648,307.1168 342.1959,307.9701 Q342.7438,308.8234 343.8195,308.8234 Q344.3242,308.8234 344.799,308.6076 Q345.2738,308.3918 345.7785,307.927 Z " fill="#000000"/><text fill="#000000" font-family="sans-serif" font-size="11.2" lengthAdjust="spacing" textLength="167.2" x="359.8" y="309.8234">ChangeProcessStateController</text><line style="stroke:#000000;stroke-width:0.4000000000000001;" x1="303.2" x2="557.6" y1="318.3906" y2="318.3906"/><line style="stroke:#000000;stroke-width:0.4000000000000001;" x1="303.2" x2="557.6" y1="324.7906" y2="324.7906"/><ellipse cx="311.2" cy="335.7859" fill="#84BE84" rx="2.4" ry="2.4" style="stroke:#038048;stroke-width:0.8000000000000002;"/><text fill="#000000" font-family="sans-serif" font-size="11.2" lengthAdjust="spacing" textLength="235.2" x="318.4" y="338.8188">changeProcessState(processState ,process)</text></g><!--class SelectJobOpeningController--><g id="elem_SelectJobOpeningController"><rect codeLine="28" fill="#FFFFFF" height="77.9719" id="SelectJobOpeningController" rx="2" ry="2" style="stroke:#000000;stroke-width:0.4000000000000001;" width="178.4" x="95.6" y="279.5906"/><ellipse cx="107.6" cy="292.3906" fill="#ADD1B2" rx="8.8" ry="8.8" style="stroke:#181818;stroke-width:0.8000000000000002;"/><path d="M109.9785,296.9051 Q109.5137,297.1441 109.0023,297.2637 Q108.491,297.3832 107.9266,297.3832 Q105.9211,297.3832 104.8652,296.0617 Q103.8094,294.7402 103.8094,292.2434 Q103.8094,289.7398 104.8652,288.4184 Q105.9211,287.0969 107.9266,287.0969 Q108.491,287.0969 109.009,287.2164 Q109.527,287.3359 109.9785,287.575 L109.9785,289.7531 Q109.4738,289.2883 108.999,289.0725 Q108.5242,288.8566 108.0195,288.8566 Q106.9438,288.8566 106.3959,289.71 Q105.848,290.5633 105.848,292.2434 Q105.848,293.9168 106.3959,294.7701 Q106.9438,295.6234 108.0195,295.6234 Q108.5242,295.6234 108.999,295.4076 Q109.4738,295.1918 109.9785,294.727 Z " fill="#000000"/><text fill="#000000" font-family="sans-serif" font-size="11.2" lengthAdjust="spacing" textLength="152.8" x="118.8" y="296.6234">SelectJobOpeningController</text><line style="stroke:#000000;stroke-width:0.4000000000000001;" x1="96.4" x2="273.2" y1="305.1906" y2="305.1906"/><line style="stroke:#000000;stroke-width:0.4000000000000001;" x1="96.4" x2="273.2" y1="311.5906" y2="311.5906"/><ellipse cx="104.4" cy="322.5859" fill="#84BE84" rx="2.4" ry="2.4" style="stroke:#038048;stroke-width:0.8000000000000002;"/><text fill="#000000" font-family="sans-serif" font-size="11.2" lengthAdjust="spacing" textLength="104" x="111.6" y="325.6188">selectJobOpening()</text><ellipse cx="104.4" cy="335.7766" fill="#84BE84" rx="2.4" ry="2.4" style="stroke:#038048;stroke-width:0.8000000000000002;"/><text fill="#000000" font-family="sans-serif" font-size="11.2" lengthAdjust="spacing" textLength="148.8" x="111.6" y="338.8094">selectJobOpeningAnalysis()</text><ellipse cx="104.4" cy="348.9672" fill="#84BE84" rx="2.4" ry="2.4" style="stroke:#038048;stroke-width:0.8000000000000002;"/><text fill="#000000" font-family="sans-serif" font-size="11.2" lengthAdjust="spacing" textLength="88.8" x="111.6" y="352">selectorPart(list)</text></g><!--class ListJobOpeningController--><g id="elem_ListJobOpeningController"><rect codeLine="33" fill="#FFFFFF" height="91.1625" id="ListJobOpeningController" rx="2" ry="2" style="stroke:#000000;stroke-width:0.4000000000000001;" width="271.2" x="95.6" y="457.9906"/><ellipse cx="158.2" cy="470.7906" fill="#ADD1B2" rx="8.8" ry="8.8" style="stroke:#181818;stroke-width:0.8000000000000002;"/><path d="M160.5785,475.3051 Q160.1137,475.5441 159.6023,475.6637 Q159.091,475.7832 158.5266,475.7832 Q156.5211,475.7832 155.4652,474.4617 Q154.4094,473.1402 154.4094,470.6434 Q154.4094,468.1398 155.4652,466.8184 Q156.5211,465.4969 158.5266,465.4969 Q159.091,465.4969 159.609,465.6164 Q160.127,465.7359 160.5785,465.975 L160.5785,468.1531 Q160.0738,467.6883 159.599,467.4725 Q159.1242,467.2566 158.6195,467.2566 Q157.5438,467.2566 156.9959,468.11 Q156.448,468.9633 156.448,470.6434 Q156.448,472.3168 156.9959,473.1701 Q157.5438,474.0234 158.6195,474.0234 Q159.1242,474.0234 159.599,473.8076 Q160.0738,473.5918 160.5785,473.127 Z " fill="#000000"/><text fill="#000000" font-family="sans-serif" font-size="11.2" lengthAdjust="spacing" textLength="139.2" x="174.6" y="475.0234">ListJobOpeningController</text><line style="stroke:#000000;stroke-width:0.4000000000000001;" x1="96.4" x2="366" y1="483.5906" y2="483.5906"/><line style="stroke:#000000;stroke-width:0.4000000000000001;" x1="96.4" x2="366" y1="489.9906" y2="489.9906"/><ellipse cx="104.4" cy="500.9859" fill="#84BE84" rx="2.4" ry="2.4" style="stroke:#038048;stroke-width:0.8000000000000002;"/><text fill="#000000" font-family="sans-serif" font-size="11.2" lengthAdjust="spacing" textLength="107.2" x="111.6" y="504.0188">showJobOpenings()</text><ellipse cx="104.4" cy="514.1766" fill="#84BE84" rx="2.4" ry="2.4" style="stroke:#038048;stroke-width:0.8000000000000002;"/><text fill="#000000" font-family="sans-serif" font-size="11.2" lengthAdjust="spacing" textLength="152" x="111.6" y="517.2094">showJobOpeningsAnalysis()</text><ellipse cx="104.4" cy="527.3672" fill="#84BE84" rx="2.4" ry="2.4" style="stroke:#038048;stroke-width:0.8000000000000002;"/><text fill="#000000" font-family="sans-serif" font-size="11.2" lengthAdjust="spacing" textLength="91.2" x="111.6" y="530.4">allJobOpenings()</text><ellipse cx="104.4" cy="540.5578" fill="#84BE84" rx="2.4" ry="2.4" style="stroke:#038048;stroke-width:0.8000000000000002;"/><text fill="#000000" font-family="sans-serif" font-size="11.2" lengthAdjust="spacing" textLength="250.4" x="111.6" y="543.5906">findJobOpeningByJobReference(jobReference)</text></g><!--class JobOpeningRepository--><g id="elem_JobOpeningRepository"><rect codeLine="42" fill="#FFFFFF" height="51.5906" id="JobOpeningRepository" rx="2" ry="2" style="stroke:#000000;stroke-width:0.4000000000000001;" width="148.8" x="652" y="648.7906"/><ellipse cx="664" cy="661.5906" fill="#B4A7E5" rx="8.8" ry="8.8" style="stroke:#181818;stroke-width:0.8000000000000002;"/><path d="M660.7422,658.2027 L660.7422,656.4762 L666.6457,656.4762 L666.6457,658.2027 L664.6734,658.2027 L664.6734,664.6641 L666.6457,664.6641 L666.6457,666.3906 L660.7422,666.3906 L660.7422,664.6641 L662.7145,664.6641 L662.7145,658.2027 Z " fill="#000000"/><text fill="#000000" font-family="sans-serif" font-size="11.2" font-style="italic" lengthAdjust="spacing" textLength="123.2" x="675.2" y="665.8234">JobOpeningRepository</text><line style="stroke:#000000;stroke-width:0.4000000000000001;" x1="652.8" x2="800" y1="674.3906" y2="674.3906"/><line style="stroke:#000000;stroke-width:0.4000000000000001;" x1="652.8" x2="800" y1="680.7906" y2="680.7906"/><ellipse cx="660.8" cy="691.7859" fill="#84BE84" rx="2.4" ry="2.4" style="stroke:#038048;stroke-width:0.8000000000000002;"/><text fill="#000000" font-family="sans-serif" font-size="11.2" lengthAdjust="spacing" textLength="91.2" x="668" y="694.8188">allJobOpenings()</text></g><!--class ProcessRepository--><g id="elem_ProcessRepository"><rect codeLine="46" fill="#FFFFFF" height="64.7813" id="ProcessRepository" rx="2" ry="2" style="stroke:#000000;stroke-width:0.4000000000000001;" width="133.6" x="490" y="641.9906"/><ellipse cx="505.6" cy="654.7906" fill="#B4A7E5" rx="8.8" ry="8.8" style="stroke:#181818;stroke-width:0.8000000000000002;"/><path d="M502.3422,651.4027 L502.3422,649.6762 L508.2457,649.6762 L508.2457,651.4027 L506.2734,651.4027 L506.2734,657.8641 L508.2457,657.8641 L508.2457,659.5906 L502.3422,659.5906 L502.3422,657.8641 L504.3145,657.8641 L504.3145,651.4027 Z " fill="#000000"/><text fill="#000000" font-family="sans-serif" font-size="11.2" font-style="italic" lengthAdjust="spacing" textLength="100" x="517.6" y="659.0234">ProcessRepository</text><line style="stroke:#000000;stroke-width:0.4000000000000001;" x1="490.8" x2="622.8" y1="667.5906" y2="667.5906"/><line style="stroke:#000000;stroke-width:0.4000000000000001;" x1="490.8" x2="622.8" y1="673.9906" y2="673.9906"/><ellipse cx="498.8" cy="684.9859" fill="#84BE84" rx="2.4" ry="2.4" style="stroke:#038048;stroke-width:0.8000000000000002;"/><text fill="#000000" font-family="sans-serif" font-size="11.2" lengthAdjust="spacing" textLength="74.4" x="506" y="688.0188">allProcesses()</text><ellipse cx="498.8" cy="698.1766" fill="#84BE84" rx="2.4" ry="2.4" style="stroke:#038048;stroke-width:0.8000000000000002;"/><text fill="#000000" font-family="sans-serif" font-size="11.2" lengthAdjust="spacing" textLength="112.8" x="506" y="701.2094">ofIdentity(Integer id)</text></g><!--class Process--><g id="elem_Process"><rect codeLine="53" fill="#FFFFFF" height="183.4969" id="Process" rx="2" ry="2" style="stroke:#000000;stroke-width:0.4000000000000001;" width="289.6" x="900" y="226.7906"/><ellipse cx="1020.6" cy="239.5906" fill="#ADD1B2" rx="8.8" ry="8.8" style="stroke:#181818;stroke-width:0.8000000000000002;"/><path d="M1022.9785,244.1051 Q1022.5137,244.3441 1022.0023,244.4637 Q1021.491,244.5832 1020.9266,244.5832 Q1018.9211,244.5832 1017.8652,243.2617 Q1016.8094,241.9402 1016.8094,239.4434 Q1016.8094,236.9398 1017.8652,235.6184 Q1018.9211,234.2969 1020.9266,234.2969 Q1021.491,234.2969 1022.009,234.4164 Q1022.527,234.5359 1022.9785,234.775 L1022.9785,236.9531 Q1022.4738,236.4883 1021.999,236.2725 Q1021.5242,236.0566 1021.0195,236.0566 Q1019.9438,236.0566 1019.3959,236.91 Q1018.848,237.7633 1018.848,239.4434 Q1018.848,241.1168 1019.3959,241.9701 Q1019.9438,242.8234 1021.0195,242.8234 Q1021.5242,242.8234 1021.999,242.6076 Q1022.4738,242.3918 1022.9785,241.927 Z " fill="#000000"/><text fill="#000000" font-family="sans-serif" font-size="11.2" lengthAdjust="spacing" textLength="41.6" x="1037" y="243.8234">Process</text><line style="stroke:#000000;stroke-width:0.4000000000000001;" x1="900.8" x2="1188.8" y1="252.3906" y2="252.3906"/><line style="stroke:#000000;stroke-width:0.4000000000000001;" x1="900.8" x2="1188.8" y1="258.7906" y2="258.7906"/><ellipse cx="908.8" cy="269.7859" fill="#84BE84" rx="2.4" ry="2.4" style="stroke:#038048;stroke-width:0.8000000000000002;"/><text fill="#000000" font-family="sans-serif" font-size="11.2" lengthAdjust="spacing" textLength="268.8" x="916" y="272.8188">Process(processState,processDate,processStatus)</text><ellipse cx="908.8" cy="282.9766" fill="#84BE84" rx="2.4" ry="2.4" style="stroke:#038048;stroke-width:0.8000000000000002;"/><text fill="#000000" font-family="sans-serif" font-size="11.2" lengthAdjust="spacing" textLength="49.6" x="916" y="286.0094">Process()</text><ellipse cx="908.8" cy="296.1672" fill="#84BE84" rx="2.4" ry="2.4" style="stroke:#038048;stroke-width:0.8000000000000002;"/><text fill="#000000" font-family="sans-serif" font-size="11.2" lengthAdjust="spacing" textLength="80" x="916" y="299.2">sameAs(other)</text><ellipse cx="908.8" cy="309.3578" fill="#84BE84" rx="2.4" ry="2.4" style="stroke:#038048;stroke-width:0.8000000000000002;"/><text fill="#000000" font-family="sans-serif" font-size="11.2" lengthAdjust="spacing" textLength="100" x="916" y="312.3906">compareTo(other)</text><ellipse cx="908.8" cy="322.5484" fill="#84BE84" rx="2.4" ry="2.4" style="stroke:#038048;stroke-width:0.8000000000000002;"/><text fill="#000000" font-family="sans-serif" font-size="11.2" lengthAdjust="spacing" textLength="48.8" x="916" y="325.5813">identity()</text><ellipse cx="908.8" cy="335.7391" fill="#84BE84" rx="2.4" ry="2.4" style="stroke:#038048;stroke-width:0.8000000000000002;"/><text fill="#000000" font-family="sans-serif" font-size="11.2" lengthAdjust="spacing" textLength="77.6" x="916" y="338.7719">processState()</text><ellipse cx="908.8" cy="348.9297" fill="#84BE84" rx="2.4" ry="2.4" style="stroke:#038048;stroke-width:0.8000000000000002;"/><text fill="#000000" font-family="sans-serif" font-size="11.2" lengthAdjust="spacing" textLength="84" x="916" y="351.9625">processStatus()</text><ellipse cx="908.8" cy="362.1203" fill="#84BE84" rx="2.4" ry="2.4" style="stroke:#038048;stroke-width:0.8000000000000002;"/><text fill="#000000" font-family="sans-serif" font-size="11.2" lengthAdjust="spacing" textLength="75.2" x="916" y="365.1531">processDate()</text><ellipse cx="908.8" cy="375.3109" fill="#84BE84" rx="2.4" ry="2.4" style="stroke:#038048;stroke-width:0.8000000000000002;"/><text fill="#000000" font-family="sans-serif" font-size="11.2" lengthAdjust="spacing" textLength="199.2" x="916" y="378.3438">changeProcessStatus(processStatus)</text><ellipse cx="908.8" cy="388.5016" fill="#84BE84" rx="2.4" ry="2.4" style="stroke:#038048;stroke-width:0.8000000000000002;"/><text fill="#000000" font-family="sans-serif" font-size="11.2" lengthAdjust="spacing" textLength="186.4" x="916" y="391.5344">changeProcessState(processState)</text><ellipse cx="908.8" cy="401.6922" fill="#84BE84" rx="2.4" ry="2.4" style="stroke:#038048;stroke-width:0.8000000000000002;"/><text fill="#000000" font-family="sans-serif" font-size="11.2" lengthAdjust="spacing" textLength="52" x="916" y="404.725">toString()</text></g><!--class JobOpeningService--><g id="elem_JobOpeningService"><rect codeLine="69" fill="#FFFFFF" height="130.7344" id="JobOpeningService" rx="2" ry="2" style="stroke:#000000;stroke-width:0.4000000000000001;" width="427.2" x="17.6" y="609.1906"/><ellipse cx="176.2" cy="621.9906" fill="#ADD1B2" rx="8.8" ry="8.8" style="stroke:#181818;stroke-width:0.8000000000000002;"/><path d="M178.5785,626.5051 Q178.1137,626.7441 177.6023,626.8637 Q177.091,626.9832 176.5266,626.9832 Q174.5211,626.9832 173.4652,625.6617 Q172.4094,624.3402 172.4094,621.8434 Q172.4094,619.3398 173.4652,618.0184 Q174.5211,616.6969 176.5266,616.6969 Q177.091,616.6969 177.609,616.8164 Q178.127,616.9359 178.5785,617.175 L178.5785,619.3531 Q178.0738,618.8883 177.599,618.6725 Q177.1242,618.4566 176.6195,618.4566 Q175.5438,618.4566 174.9959,619.31 Q174.448,620.1633 174.448,621.8434 Q174.448,623.5168 174.9959,624.3701 Q175.5438,625.2234 176.6195,625.2234 Q177.1242,625.2234 177.599,625.0076 Q178.0738,624.7918 178.5785,624.327 Z " fill="#000000"/><text fill="#000000" font-family="sans-serif" font-size="11.2" lengthAdjust="spacing" textLength="103.2" x="192.6" y="626.2234">JobOpeningService</text><line style="stroke:#000000;stroke-width:0.4000000000000001;" x1="18.4" x2="444" y1="634.7906" y2="634.7906"/><line style="stroke:#000000;stroke-width:0.4000000000000001;" x1="18.4" x2="444" y1="641.1906" y2="641.1906"/><ellipse cx="26.4" cy="652.1859" fill="#84BE84" rx="2.4" ry="2.4" style="stroke:#038048;stroke-width:0.8000000000000002;"/><text fill="#000000" font-family="sans-serif" font-size="11.2" lengthAdjust="spacing" textLength="406.4" x="33.6" y="655.2188">registerJobOpening(jobReference, description, vacanciesNumber, address,</text><text fill="#000000" font-family="sans-serif" font-size="11.2" lengthAdjust="spacing" textLength="257.6" x="33.6" y="668.4094">mode, contractType, titleOrFunction, company)</text><text fill="#000000" font-family="sans-serif" font-size="11.2" lengthAdjust="spacing" textLength="3.2" x="33.6" y="681.6">&#160;</text><ellipse cx="26.4" cy="691.7578" fill="#84BE84" rx="2.4" ry="2.4" style="stroke:#038048;stroke-width:0.8000000000000002;"/><text fill="#000000" font-family="sans-serif" font-size="11.2" lengthAdjust="spacing" textLength="166.4" x="33.6" y="694.7906">findJobOpening(jobReference)</text><ellipse cx="26.4" cy="704.9484" fill="#84BE84" rx="2.4" ry="2.4" style="stroke:#038048;stroke-width:0.8000000000000002;"/><text fill="#000000" font-family="sans-serif" font-size="11.2" lengthAdjust="spacing" textLength="381.6" x="33.6" y="707.9813">updateJobRequirements(jobReference, jobRequirementsSpecification)</text><ellipse cx="26.4" cy="718.1391" fill="#84BE84" rx="2.4" ry="2.4" style="stroke:#038048;stroke-width:0.8000000000000002;"/><text fill="#000000" font-family="sans-serif" font-size="11.2" lengthAdjust="spacing" textLength="181.6" x="33.6" y="721.1719">verifyJobReference(jobReference)</text><ellipse cx="26.4" cy="731.3297" fill="#84BE84" rx="2.4" ry="2.4" style="stroke:#038048;stroke-width:0.8000000000000002;"/><text fill="#000000" font-family="sans-serif" font-size="11.2" lengthAdjust="spacing" textLength="91.2" x="33.6" y="734.3625">allJobOpenings()</text></g><!--link ChangeProcessStatusUI to ChangeProcessStatusController--><g id="link_ChangeProcessStatusUI_ChangeProcessStatusController"><path codeLine="81" d="M532.296,167.1826 C546.184,175.1826 560.032,183.6866 572.8,192.3906 C618.264,223.3906 662.513,262.5895 691.089,289.2295 " fill="none" id="ChangeProcessStatusUI-to-ChangeProcessStatusController" style="stroke:#000000;stroke-width:0.8000000000000002;"/><polygon fill="#000000" points="694.6,292.5026,691.5156,285.2523,691.6742,289.775,687.1515,289.9336,694.6,292.5026" style="stroke:#000000;stroke-width:0.8000000000000002;"/></g><!--link ChangeProcessStatusUI to ChangeProcessStateController--><g id="link_ChangeProcessStatusUI_ChangeProcessStateController"><path codeLine="82" d="M430.4,167.0866 C430.4,207.2946 430.4,256.6146 430.4,287.7986 " fill="none" id="ChangeProcessStatusUI-to-ChangeProcessStateController" style="stroke:#000000;stroke-width:0.8000000000000002;"/><polygon fill="#000000" points="430.4,292.5986,433.6,285.3986,430.4,288.5986,427.2,285.3986,430.4,292.5986" style="stroke:#000000;stroke-width:0.8000000000000002;"/></g><!--link ChangeProcessStatusUI to SelectJobOpeningController--><g id="link_ChangeProcessStatusUI_SelectJobOpeningController"><path codeLine="83" d="M323.992,166.9586 C311.376,174.7746 299.064,183.2946 288,192.3906 C257.536,217.4306 232.3259,248.6264 213.1979,275.2904 " fill="none" id="ChangeProcessStatusUI-to-SelectJobOpeningController" style="stroke:#000000;stroke-width:0.8000000000000002;"/><polygon fill="#000000" points="210.4,279.1906,217.197,275.2056,212.7316,275.9404,211.9967,271.475,210.4,279.1906" style="stroke:#000000;stroke-width:0.8000000000000002;"/></g><!--link SelectJobOpeningController to ListJobOpeningController--><g id="link_SelectJobOpeningController_ListJobOpeningController"><path codeLine="85" d="M194.472,357.4546 C201.856,386.6706 210.8719,422.3529 218.6479,453.1209 " fill="none" id="SelectJobOpeningController-to-ListJobOpeningController" style="stroke:#000000;stroke-width:0.8000000000000002;"/><polygon fill="#000000" points="219.824,457.7746,221.1623,450.01,218.8439,453.8966,214.9574,451.5782,219.824,457.7746" style="stroke:#000000;stroke-width:0.8000000000000002;"/></g><!--link ListJobOpeningController to JobOpeningService--><g id="link_ListJobOpeningController_JobOpeningService"><path codeLine="87" d="M231.2,549.5106 C231.2,567.7186 231.2,584.2706 231.2,604.0866 " fill="none" id="ListJobOpeningController-to-JobOpeningService" style="stroke:#000000;stroke-width:0.8000000000000002;"/><polygon fill="#000000" points="231.2,608.8866,234.4,601.6866,231.2,604.8866,228,601.6866,231.2,608.8866" style="stroke:#000000;stroke-width:0.8000000000000002;"/></g><!--link JobOpeningService to JobOpeningRepository--><g id="link_JobOpeningService_JobOpeningRepository"><path codeLine="89" d="M357.768,608.8546 C398.992,591.7586 445.76,576.6706 490.8,571.5906 C520.128,568.2786 594.272,568.2786 623.6,571.5906 C665.984,576.3746 694.8446,615.4608 711.1726,644.3248 " fill="none" id="JobOpeningService-to-JobOpeningRepository" style="stroke:#000000;stroke-width:0.8000000000000002;"/><polygon fill="#000000" points="713.536,648.5026,712.7762,640.6603,711.5665,645.0211,707.2057,643.8114,713.536,648.5026" style="stroke:#000000;stroke-width:0.8000000000000002;"/></g><!--link ChangeProcessStateController to ProcessRepository--><g id="link_ChangeProcessStateController_ProcessRepository"><path codeLine="90" d="M439.288,344.1106 C461.712,406.9746 518.9396,567.4296 543.8196,637.1896 " fill="none" id="ChangeProcessStateController-to-ProcessRepository" style="stroke:#000000;stroke-width:0.8000000000000002;"/><polygon fill="#000000" points="545.432,641.7106,546.0274,633.8541,544.0883,637.9431,539.9993,636.004,545.432,641.7106" style="stroke:#000000;stroke-width:0.8000000000000002;"/></g><!--link ChangeProcessStatusController to ProcessRepository--><g id="link_ChangeProcessStatusController_ProcessRepository"><path codeLine="91" d="M709.264,344.1106 C680.176,406.9746 605.8478,567.5944 573.5678,637.3544 " fill="none" id="ChangeProcessStatusController-to-ProcessRepository" style="stroke:#000000;stroke-width:0.8000000000000002;"/><polygon fill="#000000" points="571.552,641.7106,577.4798,636.5201,573.2318,638.0804,571.6715,633.8324,571.552,641.7106" style="stroke:#000000;stroke-width:0.8000000000000002;"/></g><!--link ChangeProcessStateController to Process--><g id="link_ChangeProcessStateController_Process"><path codeLine="93" d="M452.288,292.4226 C478.104,263.5266 523.76,217.5826 572.8,192.3906 C578.48,189.4706 580.456,189.9026 586.8,189.1906 C616.304,185.8626 824.496,185.8626 854,189.1906 C887.096,192.9266 914.8453,205.2334 942.6213,223.7374 " fill="none" id="ChangeProcessStateController-to-Process" style="stroke:#000000;stroke-width:0.8000000000000002;"/><polygon fill="#000000" points="946.616,226.3986,942.3981,219.7436,943.2871,224.1809,938.8498,225.0699,946.616,226.3986" style="stroke:#000000;stroke-width:0.8000000000000002;"/></g><!--link ChangeProcessStatusController to Process--><g id="link_ChangeProcessStatusController_Process"><path codeLine="94" d="M855.592,318.3906 C870.368,318.3906 880.352,318.3906 895.136,318.3906 " fill="none" id="ChangeProcessStatusController-to-Process" style="stroke:#000000;stroke-width:0.8000000000000002;"/><polygon fill="#000000" points="899.936,318.3906,892.736,315.1906,895.936,318.3906,892.736,321.5906,899.936,318.3906" style="stroke:#000000;stroke-width:0.8000000000000002;"/></g><!--SRC=[fLLBZzem4BxxLrYSG8L3fPuh0QkLgAhkYb3rxBKdONOTExKTLdJ5Vwz30edpuA7DAPxvvkcPp_ODLSOCIocNp5hwGQZ_5eo_9KRdIYorr8R-sQA3esPkZ7ulXGlfKILS6m6cBNtKolN98lm7zEitSY1aWqu27IsFeH-G9KKYCxg61Aq3GndbJ0aKpC68aCnxOOd7PmOiACSSQZMgKYxJNswPIk3PQ0xMHXwHsz-h2b5yNwZGqLQ_ZoSDqHQOaAWW45gGm5tf8b3mReXnrZpHQNMyQ0LD8sZP78hcdCjbMIQHtrRjqZVOQ2bzypu-aVJXKXIuDSYL6kiGqR7PF_JBKmOALJ8GmBPWFHTMA-UAoRr5smFIvfaPDvP-oBgv_FJIwvdu6Qf1hHYXhZSF9kMGUOnArBh5tl-l8GO3YiFujN7e6nK3cRRe2qImfrb1vLSfPXnexNPzmks3idhJylv3DzKD3_ke010MfkELy5kBRZzUUL-9RocAlYA4JXcsHhro6KIgPC6GdMRieV5VJlYanpAuDfR2t8wrsu89DbUddY1XexigFDNJ53Qp6LAqAAMHytrKSmV3DA5EHyxK-nDstuBP8Q_7f-n_FHPHgGzkmbI4tLZDvgHEgG3B3MO5XKtfZdbMvtv2V-Nf2vWfPK9uHhVJiyVYIxNmXhpOFyRTPf_vaolUYoVpc2jUkZfUZjfFoE02zQnC2SkpubavRjVV70sa_YvjA-tNK1jbm36kgBZfQmS6uskREh1YzHNqFrwpsVVBH7-F7TnaDap7X5oWwi9qY3q96UJLmgmpNeHq9ox0rUn3BZvGXVSEOP7BBsU_pPKuPvDhpclWVm00]--></g></svg>