<?xml version="1.0" encoding="us-ascii" standalone="no"?><svg xmlns="http://www.w3.org/2000/svg" xmlns:xlink="http://www.w3.org/1999/xlink" contentStyleType="text/css" height="558px" preserveAspectRatio="none" style="width:906px;height:558px;background:#FFFFFF;" version="1.1" viewBox="0 0 906 558" width="906px" zoomAndPan="magnify"><defs/><g><text fill="#000000" font-family="sans-serif" font-size="8.4" font-weight="bold" lengthAdjust="spacing" textLength="162.6" x="367.5" y="14.1211">Class Diagram - Register a candidate</text><!--cluster presentation--><g id="cluster_presentation"><path d="M213.9,26.093 L269.1,26.093 A2.25,2.25 0 0 1 270.6,27.593 L274.8,39.5859 L431.7,39.5859 A1.5,1.5 0 0 1 433.2,41.0859 L433.2,133.193 A1.5,1.5 0 0 1 431.7,134.693 L213.9,134.693 A1.5,1.5 0 0 1 212.4,133.193 L212.4,27.593 A1.5,1.5 0 0 1 213.9,26.093 " fill="none" style="stroke:#000000;stroke-width:0.8999999999999999;"/><line style="stroke:#000000;stroke-width:0.8999999999999999;" x1="212.4" x2="274.8" y1="39.5859" y2="39.5859"/><text fill="#000000" font-family="sans-serif" font-size="8.4" font-weight="bold" lengthAdjust="spacing" textLength="54.6" x="214.8" y="35.4141">presentation</text></g><!--cluster application--><g id="cluster_application"><path d="M63.3,188.693 L111.9,188.693 A2.25,2.25 0 0 1 113.4,190.193 L117.6,202.1859 L649.5,202.1859 A1.5,1.5 0 0 1 651,203.6859 L651,409.793 A1.5,1.5 0 0 1 649.5,411.293 L63.3,411.293 A1.5,1.5 0 0 1 61.8,409.793 L61.8,190.193 A1.5,1.5 0 0 1 63.3,188.693 " fill="none" style="stroke:#000000;stroke-width:0.8999999999999999;"/><line style="stroke:#000000;stroke-width:0.8999999999999999;" x1="61.8" x2="117.6" y1="202.1859" y2="202.1859"/><text fill="#000000" font-family="sans-serif" font-size="8.4" font-weight="bold" lengthAdjust="spacing" textLength="48" x="64.2" y="198.0141">application</text></g><!--cluster repositories--><g id="cluster_repositories"><path d="M359.1,450.293 L411.9,450.293 A2.25,2.25 0 0 1 413.4,451.793 L417.6,463.7859 L608.7,463.7859 A1.5,1.5 0 0 1 610.2,465.2859 L610.2,527.993 A1.5,1.5 0 0 1 608.7,529.493 L359.1,529.493 A1.5,1.5 0 0 1 357.6,527.993 L357.6,451.793 A1.5,1.5 0 0 1 359.1,450.293 " fill="none" style="stroke:#000000;stroke-width:0.8999999999999999;"/><line style="stroke:#000000;stroke-width:0.8999999999999999;" x1="357.6" x2="417.6" y1="463.7859" y2="463.7859"/><text fill="#000000" font-family="sans-serif" font-size="8.4" font-weight="bold" lengthAdjust="spacing" textLength="52.2" x="360" y="459.6141">repositories</text></g><!--cluster domain--><g id="cluster_domain"><path d="M666.9,149.093 L699.9,149.093 A2.25,2.25 0 0 1 701.4,150.593 L705.6,162.5859 L900.3,162.5859 A1.5,1.5 0 0 1 901.8,164.0859 L901.8,315.593 A1.5,1.5 0 0 1 900.3,317.093 L666.9,317.093 A1.5,1.5 0 0 1 665.4,315.593 L665.4,150.593 A1.5,1.5 0 0 1 666.9,149.093 " fill="none" style="stroke:#000000;stroke-width:0.8999999999999999;"/><line style="stroke:#000000;stroke-width:0.8999999999999999;" x1="665.4" x2="705.6" y1="162.5859" y2="162.5859"/><text fill="#000000" font-family="sans-serif" font-size="8.4" font-weight="bold" lengthAdjust="spacing" textLength="32.4" x="667.8" y="158.4141">domain</text></g><!--cluster services--><g id="cluster_services"><path d="M5.1,425.693 L40.5,425.693 A2.25,2.25 0 0 1 42,427.193 L46.2,439.1859 L341.7,439.1859 A1.5,1.5 0 0 1 343.2,440.6859 L343.2,552.593 A1.5,1.5 0 0 1 341.7,554.093 L5.1,554.093 A1.5,1.5 0 0 1 3.6,552.593 L3.6,427.193 A1.5,1.5 0 0 1 5.1,425.693 " fill="none" style="stroke:#000000;stroke-width:0.8999999999999999;"/><line style="stroke:#000000;stroke-width:0.8999999999999999;" x1="3.6" x2="46.2" y1="439.1859" y2="439.1859"/><text fill="#000000" font-family="sans-serif" font-size="8.4" font-weight="bold" lengthAdjust="spacing" textLength="34.8" x="6" y="435.0141">services</text></g><!--class ChangeProcessStatusUI--><g id="elem_ChangeProcessStatusUI"><rect codeLine="12" fill="#FFFFFF" height="78.2648" id="ChangeProcessStatusUI" rx="1.5" ry="1.5" style="stroke:#000000;stroke-width:0.3;" width="201.6" x="222" y="47.093"/><ellipse cx="271.95" cy="56.693" fill="#ADD1B2" rx="6.6" ry="6.6" style="stroke:#181818;stroke-width:0.6;"/><path d="M273.7339,60.0788 Q273.3853,60.2581 273.0018,60.3478 Q272.6183,60.4374 272.1949,60.4374 Q270.6908,60.4374 269.8989,59.4463 Q269.107,58.4552 269.107,56.5825 Q269.107,54.7049 269.8989,53.7138 Q270.6908,52.7227 272.1949,52.7227 Q272.6183,52.7227 273.0067,52.8123 Q273.3952,52.902 273.7339,53.0813 L273.7339,54.7148 Q273.3554,54.3662 272.9993,54.2043 Q272.6432,54.0425 272.2646,54.0425 Q271.4578,54.0425 271.0469,54.6825 Q270.636,55.3225 270.636,56.5825 Q270.636,57.8376 271.0469,58.4776 Q271.4578,59.1176 272.2646,59.1176 Q272.6432,59.1176 272.9993,58.9557 Q273.3554,58.7938 273.7339,58.4452 Z " fill="#000000"/><text fill="#000000" font-family="sans-serif" font-size="8.4" lengthAdjust="spacing" textLength="96.6" x="284.25" y="59.8676">ChangeProcessStatusUI</text><line style="stroke:#000000;stroke-width:0.3;" x1="222.6" x2="423" y1="66.293" y2="66.293"/><line style="stroke:#000000;stroke-width:0.3;" x1="222.6" x2="423" y1="71.093" y2="71.093"/><ellipse cx="228.6" cy="79.3395" fill="#84BE84" rx="1.8" ry="1.8" style="stroke:#038048;stroke-width:0.6;"/><text fill="#000000" font-family="sans-serif" font-size="8.4" lengthAdjust="spacing" textLength="39" x="234" y="81.6141">doShow()</text><ellipse cx="228.6" cy="89.2324" fill="#84BE84" rx="1.8" ry="1.8" style="stroke:#038048;stroke-width:0.6;"/><text fill="#000000" font-family="sans-serif" font-size="8.4" lengthAdjust="spacing" textLength="41.4" x="234" y="91.507">headline()</text><ellipse cx="228.6" cy="99.1254" fill="#84BE84" rx="1.8" ry="1.8" style="stroke:#038048;stroke-width:0.6;"/><text fill="#000000" font-family="sans-serif" font-size="8.4" lengthAdjust="spacing" textLength="54.6" x="234" y="101.4">selectStatus()</text><ellipse cx="228.6" cy="109.0184" fill="#84BE84" rx="1.8" ry="1.8" style="stroke:#038048;stroke-width:0.6;"/><text fill="#000000" font-family="sans-serif" font-size="8.4" lengthAdjust="spacing" textLength="186" x="234" y="111.293">changeProcessStatus(processStatus ,process)</text><ellipse cx="228.6" cy="118.9113" fill="#84BE84" rx="1.8" ry="1.8" style="stroke:#038048;stroke-width:0.6;"/><text fill="#000000" font-family="sans-serif" font-size="8.4" lengthAdjust="spacing" textLength="176.4" x="234" y="121.1859">changeProcessState(processState ,process)</text></g><!--class ChangeProcessStatusController--><g id="elem_ChangeProcessStatusController"><rect codeLine="22" fill="#FFFFFF" height="38.693" id="ChangeProcessStatusController" rx="1.5" ry="1.5" style="stroke:#000000;stroke-width:0.3;" width="201.6" x="439.8" y="219.593"/><ellipse cx="472.95" cy="229.193" fill="#ADD1B2" rx="6.6" ry="6.6" style="stroke:#181818;stroke-width:0.6;"/><path d="M474.7339,232.5788 Q474.3853,232.7581 474.0018,232.8478 Q473.6183,232.9374 473.1949,232.9374 Q471.6908,232.9374 470.8989,231.9463 Q470.107,230.9552 470.107,229.0825 Q470.107,227.2049 470.8989,226.2138 Q471.6908,225.2227 473.1949,225.2227 Q473.6183,225.2227 474.0067,225.3123 Q474.3952,225.402 474.7339,225.5812 L474.7339,227.2148 Q474.3554,226.8662 473.9993,226.7043 Q473.6432,226.5425 473.2646,226.5425 Q472.4578,226.5425 472.0469,227.1825 Q471.636,227.8225 471.636,229.0825 Q471.636,230.3376 472.0469,230.9776 Q472.4578,231.6176 473.2646,231.6176 Q473.6432,231.6176 473.9993,231.4557 Q474.3554,231.2938 474.7339,230.9452 Z " fill="#000000"/><text fill="#000000" font-family="sans-serif" font-size="8.4" lengthAdjust="spacing" textLength="130.2" x="485.25" y="232.3676">ChangeProcessStatusController</text><line style="stroke:#000000;stroke-width:0.3;" x1="440.4" x2="640.8" y1="238.793" y2="238.793"/><line style="stroke:#000000;stroke-width:0.3;" x1="440.4" x2="640.8" y1="243.593" y2="243.593"/><ellipse cx="446.4" cy="251.8395" fill="#84BE84" rx="1.8" ry="1.8" style="stroke:#038048;stroke-width:0.6;"/><text fill="#000000" font-family="sans-serif" font-size="8.4" lengthAdjust="spacing" textLength="186" x="451.8" y="254.1141">changeProcessStatus(processStatus ,process)</text></g><!--class ChangeProcessStateController--><g id="elem_ChangeProcessStateController"><rect codeLine="25" fill="#FFFFFF" height="38.693" id="ChangeProcessStateController" rx="1.5" ry="1.5" style="stroke:#000000;stroke-width:0.3;" width="192" x="226.8" y="219.593"/><ellipse cx="257.55" cy="229.193" fill="#ADD1B2" rx="6.6" ry="6.6" style="stroke:#181818;stroke-width:0.6;"/><path d="M259.3339,232.5788 Q258.9853,232.7581 258.6018,232.8478 Q258.2183,232.9374 257.7949,232.9374 Q256.2908,232.9374 255.4989,231.9463 Q254.707,230.9552 254.707,229.0825 Q254.707,227.2049 255.4989,226.2138 Q256.2908,225.2227 257.7949,225.2227 Q258.2183,225.2227 258.6067,225.3123 Q258.9952,225.402 259.3339,225.5812 L259.3339,227.2148 Q258.9554,226.8662 258.5993,226.7043 Q258.2432,226.5425 257.8646,226.5425 Q257.0578,226.5425 256.6469,227.1825 Q256.236,227.8225 256.236,229.0825 Q256.236,230.3376 256.6469,230.9776 Q257.0578,231.6176 257.8646,231.6176 Q258.2432,231.6176 258.5993,231.4557 Q258.9554,231.2938 259.3339,230.9452 Z " fill="#000000"/><text fill="#000000" font-family="sans-serif" font-size="8.4" lengthAdjust="spacing" textLength="125.4" x="269.85" y="232.3676">ChangeProcessStateController</text><line style="stroke:#000000;stroke-width:0.3;" x1="227.4" x2="418.2" y1="238.793" y2="238.793"/><line style="stroke:#000000;stroke-width:0.3;" x1="227.4" x2="418.2" y1="243.593" y2="243.593"/><ellipse cx="233.4" cy="251.8395" fill="#84BE84" rx="1.8" ry="1.8" style="stroke:#038048;stroke-width:0.6;"/><text fill="#000000" font-family="sans-serif" font-size="8.4" lengthAdjust="spacing" textLength="176.4" x="238.8" y="254.1141">changeProcessState(processState ,process)</text></g><!--class SelectJobOpeningController--><g id="elem_SelectJobOpeningController"><rect codeLine="28" fill="#FFFFFF" height="58.4789" id="SelectJobOpeningController" rx="1.5" ry="1.5" style="stroke:#000000;stroke-width:0.3;" width="133.8" x="71.7" y="209.693"/><ellipse cx="80.7" cy="219.293" fill="#ADD1B2" rx="6.6" ry="6.6" style="stroke:#181818;stroke-width:0.6;"/><path d="M82.4839,222.6788 Q82.1353,222.8581 81.7518,222.9478 Q81.3683,223.0374 80.9449,223.0374 Q79.4408,223.0374 78.6489,222.0463 Q77.857,221.0552 77.857,219.1825 Q77.857,217.3049 78.6489,216.3138 Q79.4408,215.3227 80.9449,215.3227 Q81.3683,215.3227 81.7567,215.4123 Q82.1452,215.502 82.4839,215.6813 L82.4839,217.3148 Q82.1054,216.9662 81.7493,216.8043 Q81.3932,216.6425 81.0146,216.6425 Q80.2078,216.6425 79.7969,217.2825 Q79.386,217.9225 79.386,219.1825 Q79.386,220.4376 79.7969,221.0776 Q80.2078,221.7176 81.0146,221.7176 Q81.3932,221.7176 81.7493,221.5557 Q82.1054,221.3938 82.4839,221.0452 Z " fill="#000000"/><text fill="#000000" font-family="sans-serif" font-size="8.4" lengthAdjust="spacing" textLength="114.6" x="89.1" y="222.4676">SelectJobOpeningController</text><line style="stroke:#000000;stroke-width:0.3;" x1="72.3" x2="204.9" y1="228.893" y2="228.893"/><line style="stroke:#000000;stroke-width:0.3;" x1="72.3" x2="204.9" y1="233.693" y2="233.693"/><ellipse cx="78.3" cy="241.9395" fill="#84BE84" rx="1.8" ry="1.8" style="stroke:#038048;stroke-width:0.6;"/><text fill="#000000" font-family="sans-serif" font-size="8.4" lengthAdjust="spacing" textLength="78" x="83.7" y="244.2141">selectJobOpening()</text><ellipse cx="78.3" cy="251.8324" fill="#84BE84" rx="1.8" ry="1.8" style="stroke:#038048;stroke-width:0.6;"/><text fill="#000000" font-family="sans-serif" font-size="8.4" lengthAdjust="spacing" textLength="111.6" x="83.7" y="254.107">selectJobOpeningAnalysis()</text><ellipse cx="78.3" cy="261.7254" fill="#84BE84" rx="1.8" ry="1.8" style="stroke:#038048;stroke-width:0.6;"/><text fill="#000000" font-family="sans-serif" font-size="8.4" lengthAdjust="spacing" textLength="66.6" x="83.7" y="264">selectorPart(list)</text></g><!--class ListJobOpeningController--><g id="elem_ListJobOpeningController"><rect codeLine="33" fill="#FFFFFF" height="58.4789" id="ListJobOpeningController" rx="1.5" ry="1.5" style="stroke:#000000;stroke-width:0.3;" width="203.4" x="71.7" y="343.493"/><ellipse cx="118.65" cy="353.093" fill="#ADD1B2" rx="6.6" ry="6.6" style="stroke:#181818;stroke-width:0.6;"/><path d="M120.4339,356.4788 Q120.0853,356.6581 119.7018,356.7478 Q119.3183,356.8374 118.8949,356.8374 Q117.3908,356.8374 116.5989,355.8463 Q115.807,354.8552 115.807,352.9825 Q115.807,351.1049 116.5989,350.1138 Q117.3908,349.1227 118.8949,349.1227 Q119.3183,349.1227 119.7067,349.2123 Q120.0952,349.302 120.4339,349.4813 L120.4339,351.1148 Q120.0554,350.7662 119.6993,350.6043 Q119.3432,350.4425 118.9646,350.4425 Q118.1578,350.4425 117.7469,351.0825 Q117.336,351.7225 117.336,352.9825 Q117.336,354.2376 117.7469,354.8776 Q118.1578,355.5176 118.9646,355.5176 Q119.3432,355.5176 119.6993,355.3557 Q120.0554,355.1938 120.4339,354.8452 Z " fill="#000000"/><text fill="#000000" font-family="sans-serif" font-size="8.4" lengthAdjust="spacing" textLength="104.4" x="130.95" y="356.2676">ListJobOpeningController</text><line style="stroke:#000000;stroke-width:0.3;" x1="72.3" x2="274.5" y1="362.693" y2="362.693"/><line style="stroke:#000000;stroke-width:0.3;" x1="72.3" x2="274.5" y1="367.493" y2="367.493"/><ellipse cx="78.3" cy="375.7395" fill="#84BE84" rx="1.8" ry="1.8" style="stroke:#038048;stroke-width:0.6;"/><text fill="#000000" font-family="sans-serif" font-size="8.4" lengthAdjust="spacing" textLength="80.4" x="83.7" y="378.0141">showJobOpenings()</text><ellipse cx="78.3" cy="385.6324" fill="#84BE84" rx="1.8" ry="1.8" style="stroke:#038048;stroke-width:0.6;"/><text fill="#000000" font-family="sans-serif" font-size="8.4" lengthAdjust="spacing" textLength="68.4" x="83.7" y="387.907">allJobOpenings()</text><ellipse cx="78.3" cy="395.5254" fill="#84BE84" rx="1.8" ry="1.8" style="stroke:#038048;stroke-width:0.6;"/><text fill="#000000" font-family="sans-serif" font-size="8.4" lengthAdjust="spacing" textLength="187.8" x="83.7" y="397.8">findJobOpeningByJobReference(jobReference)</text></g><!--class JobOpeningRepository--><g id="elem_JobOpeningRepository"><rect codeLine="41" fill="#FFFFFF" height="38.693" id="JobOpeningRepository" rx="1.5" ry="1.5" style="stroke:#000000;stroke-width:0.3;" width="111.6" x="489" y="476.393"/><ellipse cx="498" cy="485.993" fill="#B4A7E5" rx="6.6" ry="6.6" style="stroke:#181818;stroke-width:0.6;"/><path d="M495.5566,483.4521 L495.5566,482.1571 L499.9843,482.1571 L499.9843,483.4521 L498.5051,483.4521 L498.5051,488.298 L499.9843,488.298 L499.9843,489.593 L495.5566,489.593 L495.5566,488.298 L497.0358,488.298 L497.0358,483.4521 Z " fill="#000000"/><text fill="#000000" font-family="sans-serif" font-size="8.4" font-style="italic" lengthAdjust="spacing" textLength="92.4" x="506.4" y="489.1676">JobOpeningRepository</text><line style="stroke:#000000;stroke-width:0.3;" x1="489.6" x2="600" y1="495.593" y2="495.593"/><line style="stroke:#000000;stroke-width:0.3;" x1="489.6" x2="600" y1="500.393" y2="500.393"/><ellipse cx="495.6" cy="508.6395" fill="#84BE84" rx="1.8" ry="1.8" style="stroke:#038048;stroke-width:0.6;"/><text fill="#000000" font-family="sans-serif" font-size="8.4" lengthAdjust="spacing" textLength="68.4" x="501" y="510.9141">allJobOpenings()</text></g><!--class ProcessRepository--><g id="elem_ProcessRepository"><rect codeLine="45" fill="#FFFFFF" height="48.5859" id="ProcessRepository" rx="1.5" ry="1.5" style="stroke:#000000;stroke-width:0.3;" width="100.2" x="367.5" y="471.293"/><ellipse cx="379.2" cy="480.893" fill="#B4A7E5" rx="6.6" ry="6.6" style="stroke:#181818;stroke-width:0.6;"/><path d="M376.7566,478.3521 L376.7566,477.0571 L381.1843,477.0571 L381.1843,478.3521 L379.7051,478.3521 L379.7051,483.198 L381.1843,483.198 L381.1843,484.493 L376.7566,484.493 L376.7566,483.198 L378.2358,483.198 L378.2358,478.3521 Z " fill="#000000"/><text fill="#000000" font-family="sans-serif" font-size="8.4" font-style="italic" lengthAdjust="spacing" textLength="75" x="388.2" y="484.0676">ProcessRepository</text><line style="stroke:#000000;stroke-width:0.3;" x1="368.1" x2="467.1" y1="490.493" y2="490.493"/><line style="stroke:#000000;stroke-width:0.3;" x1="368.1" x2="467.1" y1="495.293" y2="495.293"/><ellipse cx="374.1" cy="503.5395" fill="#84BE84" rx="1.8" ry="1.8" style="stroke:#038048;stroke-width:0.6;"/><text fill="#000000" font-family="sans-serif" font-size="8.4" lengthAdjust="spacing" textLength="55.8" x="379.5" y="505.8141">allProcesses()</text><ellipse cx="374.1" cy="513.4324" fill="#84BE84" rx="1.8" ry="1.8" style="stroke:#038048;stroke-width:0.6;"/><text fill="#000000" font-family="sans-serif" font-size="8.4" lengthAdjust="spacing" textLength="84.6" x="379.5" y="515.707">ofIdentity(Integer id)</text></g><!--class Process--><g id="elem_Process"><rect codeLine="52" fill="#FFFFFF" height="137.6227" id="Process" rx="1.5" ry="1.5" style="stroke:#000000;stroke-width:0.3;" width="217.2" x="675" y="170.093"/><ellipse cx="765.45" cy="179.693" fill="#ADD1B2" rx="6.6" ry="6.6" style="stroke:#181818;stroke-width:0.6;"/><path d="M767.2339,183.0788 Q766.8853,183.2581 766.5018,183.3478 Q766.1183,183.4374 765.6949,183.4374 Q764.1908,183.4374 763.3989,182.4463 Q762.607,181.4552 762.607,179.5825 Q762.607,177.7049 763.3989,176.7138 Q764.1908,175.7227 765.6949,175.7227 Q766.1183,175.7227 766.5067,175.8123 Q766.8952,175.902 767.2339,176.0812 L767.2339,177.7148 Q766.8554,177.3662 766.4993,177.2043 Q766.1432,177.0425 765.7646,177.0425 Q764.9578,177.0425 764.5469,177.6825 Q764.136,178.3225 764.136,179.5825 Q764.136,180.8376 764.5469,181.4776 Q764.9578,182.1176 765.7646,182.1176 Q766.1432,182.1176 766.4993,181.9557 Q766.8554,181.7938 767.2339,181.4452 Z " fill="#000000"/><text fill="#000000" font-family="sans-serif" font-size="8.4" lengthAdjust="spacing" textLength="31.2" x="777.75" y="182.8676">Process</text><line style="stroke:#000000;stroke-width:0.3;" x1="675.6" x2="891.6" y1="189.293" y2="189.293"/><line style="stroke:#000000;stroke-width:0.3;" x1="675.6" x2="891.6" y1="194.093" y2="194.093"/><ellipse cx="681.6" cy="202.3395" fill="#84BE84" rx="1.8" ry="1.8" style="stroke:#038048;stroke-width:0.6;"/><text fill="#000000" font-family="sans-serif" font-size="8.4" lengthAdjust="spacing" textLength="201.6" x="687" y="204.6141">Process(processState,processDate,processStatus)</text><ellipse cx="681.6" cy="212.2324" fill="#84BE84" rx="1.8" ry="1.8" style="stroke:#038048;stroke-width:0.6;"/><text fill="#000000" font-family="sans-serif" font-size="8.4" lengthAdjust="spacing" textLength="37.2" x="687" y="214.507">Process()</text><ellipse cx="681.6" cy="222.1254" fill="#84BE84" rx="1.8" ry="1.8" style="stroke:#038048;stroke-width:0.6;"/><text fill="#000000" font-family="sans-serif" font-size="8.4" lengthAdjust="spacing" textLength="60" x="687" y="224.4">sameAs(other)</text><ellipse cx="681.6" cy="232.0184" fill="#84BE84" rx="1.8" ry="1.8" style="stroke:#038048;stroke-width:0.6;"/><text fill="#000000" font-family="sans-serif" font-size="8.4" lengthAdjust="spacing" textLength="75" x="687" y="234.293">compareTo(other)</text><ellipse cx="681.6" cy="241.9113" fill="#84BE84" rx="1.8" ry="1.8" style="stroke:#038048;stroke-width:0.6;"/><text fill="#000000" font-family="sans-serif" font-size="8.4" lengthAdjust="spacing" textLength="36.6" x="687" y="244.1859">identity()</text><ellipse cx="681.6" cy="251.8043" fill="#84BE84" rx="1.8" ry="1.8" style="stroke:#038048;stroke-width:0.6;"/><text fill="#000000" font-family="sans-serif" font-size="8.4" lengthAdjust="spacing" textLength="58.2" x="687" y="254.0789">processState()</text><ellipse cx="681.6" cy="261.6973" fill="#84BE84" rx="1.8" ry="1.8" style="stroke:#038048;stroke-width:0.6;"/><text fill="#000000" font-family="sans-serif" font-size="8.4" lengthAdjust="spacing" textLength="63" x="687" y="263.9719">processStatus()</text><ellipse cx="681.6" cy="271.5902" fill="#84BE84" rx="1.8" ry="1.8" style="stroke:#038048;stroke-width:0.6;"/><text fill="#000000" font-family="sans-serif" font-size="8.4" lengthAdjust="spacing" textLength="56.4" x="687" y="273.8648">processDate()</text><ellipse cx="681.6" cy="281.4832" fill="#84BE84" rx="1.8" ry="1.8" style="stroke:#038048;stroke-width:0.6;"/><text fill="#000000" font-family="sans-serif" font-size="8.4" lengthAdjust="spacing" textLength="149.4" x="687" y="283.7578">changeProcessStatus(processStatus)</text><ellipse cx="681.6" cy="291.3762" fill="#84BE84" rx="1.8" ry="1.8" style="stroke:#038048;stroke-width:0.6;"/><text fill="#000000" font-family="sans-serif" font-size="8.4" lengthAdjust="spacing" textLength="139.8" x="687" y="293.6508">changeProcessState(processState)</text><ellipse cx="681.6" cy="301.2691" fill="#84BE84" rx="1.8" ry="1.8" style="stroke:#038048;stroke-width:0.6;"/><text fill="#000000" font-family="sans-serif" font-size="8.4" lengthAdjust="spacing" textLength="39" x="687" y="303.5438">toString()</text></g><!--class JobOpeningService--><g id="elem_JobOpeningService"><rect codeLine="68" fill="#FFFFFF" height="98.0508" id="JobOpeningService" rx="1.5" ry="1.5" style="stroke:#000000;stroke-width:0.3;" width="320.4" x="13.2" y="446.693"/><ellipse cx="132.15" cy="456.293" fill="#ADD1B2" rx="6.6" ry="6.6" style="stroke:#181818;stroke-width:0.6;"/><path d="M133.9339,459.6788 Q133.5853,459.8581 133.2018,459.9478 Q132.8183,460.0374 132.3949,460.0374 Q130.8908,460.0374 130.0989,459.0463 Q129.307,458.0552 129.307,456.1825 Q129.307,454.3049 130.0989,453.3138 Q130.8908,452.3227 132.3949,452.3227 Q132.8183,452.3227 133.2067,452.4123 Q133.5952,452.502 133.9339,452.6813 L133.9339,454.3148 Q133.5554,453.9662 133.1993,453.8043 Q132.8432,453.6425 132.4646,453.6425 Q131.6578,453.6425 131.2469,454.2825 Q130.836,454.9225 130.836,456.1825 Q130.836,457.4376 131.2469,458.0776 Q131.6578,458.7176 132.4646,458.7176 Q132.8432,458.7176 133.1993,458.5557 Q133.5554,458.3938 133.9339,458.0452 Z " fill="#000000"/><text fill="#000000" font-family="sans-serif" font-size="8.4" lengthAdjust="spacing" textLength="77.4" x="144.45" y="459.4676">JobOpeningService</text><line style="stroke:#000000;stroke-width:0.3;" x1="13.8" x2="333" y1="465.893" y2="465.893"/><line style="stroke:#000000;stroke-width:0.3;" x1="13.8" x2="333" y1="470.693" y2="470.693"/><ellipse cx="19.8" cy="478.9395" fill="#84BE84" rx="1.8" ry="1.8" style="stroke:#038048;stroke-width:0.6;"/><text fill="#000000" font-family="sans-serif" font-size="8.4" lengthAdjust="spacing" textLength="304.8" x="25.2" y="481.2141">registerJobOpening(jobReference, description, vacanciesNumber, address,</text><text fill="#000000" font-family="sans-serif" font-size="8.4" lengthAdjust="spacing" textLength="193.2" x="25.2" y="491.107">mode, contractType, titleOrFunction, company)</text><text fill="#000000" font-family="sans-serif" font-size="8.4" lengthAdjust="spacing" textLength="2.4" x="25.2" y="501">&#160;</text><ellipse cx="19.8" cy="508.6184" fill="#84BE84" rx="1.8" ry="1.8" style="stroke:#038048;stroke-width:0.6;"/><text fill="#000000" font-family="sans-serif" font-size="8.4" lengthAdjust="spacing" textLength="124.8" x="25.2" y="510.893">findJobOpening(jobReference)</text><ellipse cx="19.8" cy="518.5113" fill="#84BE84" rx="1.8" ry="1.8" style="stroke:#038048;stroke-width:0.6;"/><text fill="#000000" font-family="sans-serif" font-size="8.4" lengthAdjust="spacing" textLength="286.2" x="25.2" y="520.7859">updateJobRequirements(jobReference, jobRequirementsSpecification)</text><ellipse cx="19.8" cy="528.4043" fill="#84BE84" rx="1.8" ry="1.8" style="stroke:#038048;stroke-width:0.6;"/><text fill="#000000" font-family="sans-serif" font-size="8.4" lengthAdjust="spacing" textLength="136.2" x="25.2" y="530.6789">verifyJobReference(jobReference)</text><ellipse cx="19.8" cy="538.2973" fill="#84BE84" rx="1.8" ry="1.8" style="stroke:#038048;stroke-width:0.6;"/><text fill="#000000" font-family="sans-serif" font-size="8.4" lengthAdjust="spacing" textLength="68.4" x="25.2" y="540.5719">allJobOpenings()</text></g><!--link ChangeProcessStatusUI to ChangeProcessStatusController--><g id="link_ChangeProcessStatusUI_ChangeProcessStatusController"><path codeLine="80" d="M399.222,125.387 C409.638,131.387 420.024,137.765 429.6,144.293 C463.698,167.543 496.8848,196.9421 518.3168,216.9221 " fill="none" id="ChangeProcessStatusUI-to-ChangeProcessStatusController" style="stroke:#000000;stroke-width:0.6;"/><polygon fill="#000000" points="520.95,219.377,518.6367,213.9393,518.7556,217.3313,515.3636,217.4502,520.95,219.377" style="stroke:#000000;stroke-width:0.6;"/></g><!--link ChangeProcessStatusUI to ChangeProcessStateController--><g id="link_ChangeProcessStatusUI_ChangeProcessStateController"><path codeLine="81" d="M322.8,125.315 C322.8,155.471 322.8,192.461 322.8,215.849 " fill="none" id="ChangeProcessStatusUI-to-ChangeProcessStateController" style="stroke:#000000;stroke-width:0.6;"/><polygon fill="#000000" points="322.8,219.449,325.2,214.049,322.8,216.449,320.4,214.049,322.8,219.449" style="stroke:#000000;stroke-width:0.6;"/></g><!--link ChangeProcessStatusUI to SelectJobOpeningController--><g id="link_ChangeProcessStatusUI_SelectJobOpeningController"><path codeLine="82" d="M242.994,125.219 C233.532,131.081 224.298,137.471 216,144.293 C193.152,163.073 174.2444,186.4698 159.8984,206.4678 " fill="none" id="ChangeProcessStatusUI-to-SelectJobOpeningController" style="stroke:#000000;stroke-width:0.6;"/><polygon fill="#000000" points="157.8,209.393,162.8978,206.4042,159.5487,206.9553,158.9975,203.6063,157.8,209.393" style="stroke:#000000;stroke-width:0.6;"/></g><!--link SelectJobOpeningController to ListJobOpeningController--><g id="link_SelectJobOpeningController_ListJobOpeningController"><path codeLine="84" d="M146.154,268.163 C151.986,290.405 159.1185,317.5648 164.9505,339.7948 " fill="none" id="SelectJobOpeningController-to-ListJobOpeningController" style="stroke:#000000;stroke-width:0.6;"/><polygon fill="#000000" points="165.864,343.277,166.8151,337.4447,165.1027,340.3752,162.1723,338.6628,165.864,343.277" style="stroke:#000000;stroke-width:0.6;"/></g><!--link ListJobOpeningController to JobOpeningService--><g id="link_ListJobOpeningController_JobOpeningService"><path codeLine="86" d="M173.4,401.903 C173.4,415.199 173.4,427.757 173.4,442.865 " fill="none" id="ListJobOpeningController-to-JobOpeningService" style="stroke:#000000;stroke-width:0.6;"/><polygon fill="#000000" points="173.4,446.465,175.8,441.065,173.4,443.465,171,441.065,173.4,446.465" style="stroke:#000000;stroke-width:0.6;"/></g><!--link JobOpeningService to JobOpeningRepository--><g id="link_JobOpeningService_JobOpeningRepository"><path codeLine="88" d="M268.326,446.441 C299.244,433.619 334.32,422.303 368.1,418.493 C390.096,416.009 445.704,416.009 467.7,418.493 C499.488,422.081 521.1335,451.3956 533.3795,473.0436 " fill="none" id="JobOpeningService-to-JobOpeningRepository" style="stroke:#000000;stroke-width:0.6;"/><polygon fill="#000000" points="535.152,476.177,534.5821,470.2952,533.6749,473.5658,530.4043,472.6586,535.152,476.177" style="stroke:#000000;stroke-width:0.6;"/></g><!--link ChangeProcessStateController to ProcessRepository--><g id="link_ChangeProcessStateController_ProcessRepository"><path codeLine="89" d="M329.772,258.185 C346.704,303.845 388.73,417.1577 407.474,467.6897 " fill="none" id="ChangeProcessStateController-to-ProcessRepository" style="stroke:#000000;stroke-width:0.6;"/><polygon fill="#000000" points="408.726,471.065,409.0982,465.1674,407.6827,468.2522,404.5978,466.8367,408.726,471.065" style="stroke:#000000;stroke-width:0.6;"/></g><!--link ChangeProcessStatusController to ProcessRepository--><g id="link_ChangeProcessStatusController_ProcessRepository"><path codeLine="90" d="M531.558,258.185 C509.586,303.845 454.9931,417.2891 430.6751,467.8211 " fill="none" id="ChangeProcessStatusController-to-ProcessRepository" style="stroke:#000000;stroke-width:0.6;"/><polygon fill="#000000" points="429.114,471.065,433.6183,467.2398,430.4149,468.3617,429.293,465.1584,429.114,471.065" style="stroke:#000000;stroke-width:0.6;"/></g><!--link ChangeProcessStateController to Process--><g id="link_ChangeProcessStateController_Process"><path codeLine="92" d="M339.216,219.317 C358.578,197.645 392.82,163.187 429.6,144.293 C433.86,142.103 435.342,142.427 440.1,141.893 C462.228,139.397 618.372,139.397 640.5,141.893 C665.322,144.695 686.134,153.925 706.966,167.803 " fill="none" id="ChangeProcessStateController-to-Process" style="stroke:#000000;stroke-width:0.6;"/><polygon fill="#000000" points="709.962,169.799,706.7985,164.8077,707.4653,168.1357,704.1373,168.8024,709.962,169.799" style="stroke:#000000;stroke-width:0.6;"/></g><!--link ChangeProcessStatusController to Process--><g id="link_ChangeProcessStatusController_Process"><path codeLine="93" d="M641.694,238.793 C652.776,238.793 660.264,238.793 671.352,238.793 " fill="none" id="ChangeProcessStatusController-to-Process" style="stroke:#000000;stroke-width:0.6;"/><polygon fill="#000000" points="674.952,238.793,669.552,236.393,671.952,238.793,669.552,241.193,674.952,238.793" style="stroke:#000000;stroke-width:0.6;"/></g><!--SRC=[fLLBZzem4BxxLrYSWWg7IZrN0bOhKLNT5Q7gsMiFONOTExKTLkcA_rw711AJX8SsftZccuVdyTc-eSgOOIdbabbBFmZrtvpnjyJeN8c5bjhGFrjqSD3CZD7lbN0kFQg2QoF0d4iVjN9ziXZ_0VtwZUm9MQEJG4UBG-W7P4cPo9Ik847hm516ELC21NCm8YJpNbZYyPa12yenXrgDwfIhz1TRfX9uDfg3jR57vFRtiaQKtnSgTBpLxz6u9Te24n8L148B4hYhN0GAtWqHPUqJdTJ7YrRGDe8pctrPdDDrMPP9vBVTTk4BRBIKldWVdqXwVoaAt1haoXsR4F6Xs3_qorC62bKo4C2UmNeQrYXdYid2ekq1QVFCZ8ka7x9kBZ-zz7ecVeOQK1Y3IJcasg0IZMvU-FyLRC20uX2zjWvzOs0WqnPzyWZsE0Ue_9fi60VQk5qTSKMGSczQtd_efkxUi8yQ0E75z6Of_4QYAwAbzvNuSg7ekuJGASEpCQvT1f5gMJ10n_bvQFrNqplkiGpQpbAOsKYxBPXWAtNgoG_Mkgl2uttQmdOsGuepkcZbV1-DtC4URQZJiJFDReJLjs1so9lngUhVZ4LSwODEc9gCMslNdjG95M2vmQoafmdTCS_Ot4_ehpnz0JEXJ0ZFrdPoybX-gHRUa9UxnRXR5va_kV8jU3AFkUALgqDpL34cWmlKip8LBC_A9-EmNNzpD93wNjgpj5z3RPm1nqrDisrVEp2ukRQf0olMjA3_OPfElrycyNliu2QpOQebv08DbwP3p4Z886UMPftn8gGxSG6kOHzoyV4flNS8Yrn-5VjjhiGvcLnptW3_0m00]--></g></svg>