<?xml version="1.0" encoding="us-ascii" standalone="no"?><svg xmlns="http://www.w3.org/2000/svg" xmlns:xlink="http://www.w3.org/1999/xlink" contentStyleType="text/css" height="594px" preserveAspectRatio="none" style="width:759px;height:594px;background:#FFFFFF;" version="1.1" viewBox="0 0 759 594" width="759px" zoomAndPan="magnify"><defs/><g><text fill="#000000" font-family="sans-serif" font-size="8.4" font-weight="bold" lengthAdjust="spacing" textLength="160.8" x="294.9" y="14.1211">Domain Model - Ranking Candidates</text><!--cluster Job Opening Aggregate--><g id="cluster_Job Opening Aggregate"><rect fill="none" height="321" rx="1.5" ry="1.5" style="stroke:#000000;stroke-width:0.8999999999999999;" width="364.8" x="233.4" y="26.693"/><text fill="#000000" font-family="sans-serif" font-size="8.4" font-weight="bold" lengthAdjust="spacing" textLength="100.8" x="365.4" y="36.0141">Job Opening Aggregate</text></g><!--cluster Process Aggregate--><g id="cluster_Process Aggregate"><rect fill="none" height="228.6" rx="1.5" ry="1.5" style="stroke:#000000;stroke-width:0.8999999999999999;" width="400.2" x="355.2" y="362.093"/><text fill="#000000" font-family="sans-serif" font-size="8.4" font-weight="bold" lengthAdjust="spacing" textLength="79.8" x="515.4" y="371.4141">Process Aggregate</text></g><!--cluster Customer Manager Aggregate--><g id="cluster_Customer Manager Aggregate"><rect fill="none" height="69" rx="1.5" ry="1.5" style="stroke:#000000;stroke-width:0.8999999999999999;" width="138" x="4.2" y="174.893"/><text fill="#000000" font-family="sans-serif" font-size="8.4" font-weight="bold" lengthAdjust="spacing" textLength="128.4" x="9" y="184.2141">Customer Manager Aggregate</text></g><!--class JobOpening--><g id="elem_JobOpening"><rect codeLine="25" fill="#F0FFFF" height="37.6523" id="JobOpening" rx="1.5" ry="1.5" style="stroke:#000000;stroke-width:0.3;" width="67.8" x="243" y="196.193"/><ellipse cx="252" cy="212.6191" fill="#ADD1B2" rx="6.6" ry="6.6" style="stroke:#181818;stroke-width:0.6;"/><path d="M254.4686,216.2191 L249.8367,216.2191 L249.8367,208.7833 L254.4686,208.7833 L254.4686,210.0782 L251.306,210.0782 L251.306,211.6819 L254.1697,211.6819 L254.1697,212.9769 L251.306,212.9769 L251.306,214.9242 L254.4686,214.9242 Z " fill="#000000"/><text fill="#000000" font-family="sans-serif" font-size="7.2" font-style="italic" lengthAdjust="spacing" textLength="25.8" x="271.8" y="206.1539">&#171;entity&#187;</text><text fill="#000000" font-family="sans-serif" font-size="7.2" font-style="italic" lengthAdjust="spacing" textLength="21" x="274.2" y="214.6336">&#171;root&#187;</text><text fill="#000000" font-family="sans-serif" font-size="8.4" lengthAdjust="spacing" textLength="48.6" x="260.4" y="224.2734">JobOpening</text><line style="stroke:#000000;stroke-width:0.3;" x1="243.6" x2="310.2" y1="229.0453" y2="229.0453"/></g><g id="elem_GMN18"><path d="M469.2,226.493 L469.2,238.313 L426.24,238.847 L469.2,243.113 L469.2,260.052 A0,0 0 0 0 469.2,260.052 L588.6,260.052 A0,0 0 0 0 588.6,260.052 L588.6,232.493 L582.6,226.493 L469.2,226.493 A0,0 0 0 0 469.2,226.493 " fill="#FEFFDD" style="stroke:#181818;stroke-width:0.3;"/><path d="M582.6,226.493 L582.6,232.493 L588.6,232.493 L582.6,226.493 " fill="#FEFFDD" style="stroke:#181818;stroke-width:0.3;"/><text fill="#000000" font-family="sans-serif" font-size="7.8" lengthAdjust="spacing" textLength="106.8" x="472.8" y="237.034">Can be one of the following:</text><text fill="#000000" font-family="sans-serif" font-size="7.8" lengthAdjust="spacing" textLength="41.4" x="472.8" y="246.2203">- full-time</text><text fill="#000000" font-family="sans-serif" font-size="7.8" lengthAdjust="spacing" textLength="43.8" x="472.8" y="255.4066">- part-time</text></g><g id="elem_GMN21"><path d="M469.2,162.593 L469.2,185.363 L426.24,190.565 L469.2,190.163 L469.2,205.3383 A0,0 0 0 0 469.2,205.3383 L588.6,205.3383 A0,0 0 0 0 588.6,205.3383 L588.6,168.593 L582.6,162.593 L469.2,162.593 A0,0 0 0 0 469.2,162.593 " fill="#FEFFDD" style="stroke:#181818;stroke-width:0.3;"/><path d="M582.6,162.593 L582.6,168.593 L588.6,168.593 L582.6,162.593 " fill="#FEFFDD" style="stroke:#181818;stroke-width:0.3;"/><text fill="#000000" font-family="sans-serif" font-size="7.8" lengthAdjust="spacing" textLength="106.8" x="472.8" y="173.134">Can be one of the following:</text><text fill="#000000" font-family="sans-serif" font-size="7.8" lengthAdjust="spacing" textLength="33.6" x="472.8" y="182.3203">- remote</text><text fill="#000000" font-family="sans-serif" font-size="7.8" lengthAdjust="spacing" textLength="31.2" x="472.8" y="191.5066">- hybrid</text><text fill="#000000" font-family="sans-serif" font-size="7.8" lengthAdjust="spacing" textLength="30.6" x="472.8" y="200.693">- onsite</text></g><!--entity JobReference--><g id="elem_JobReference"><rect fill="#F0FFDD" height="23.3859" rx="1.5" ry="1.5" style="stroke:#000000;stroke-width:0.3;" width="72" x="354" y="314.393"/><text fill="#000000" font-family="sans-serif" font-size="8.4" font-style="italic" lengthAdjust="spacing" textLength="60" x="360" y="324.3141">&#171;Value Object&#187;</text><text fill="#000000" font-family="sans-serif" font-size="8.4" lengthAdjust="spacing" textLength="54" x="363" y="334.207">JobReference</text></g><!--entity TitleOrFunction--><g id="elem_TitleOrFunction"><rect fill="#F0FFDD" height="23.3859" rx="1.5" ry="1.5" style="stroke:#000000;stroke-width:0.3;" width="76.2" x="351.9" y="269.993"/><text fill="#000000" font-family="sans-serif" font-size="8.4" font-style="italic" lengthAdjust="spacing" textLength="60" x="360" y="279.9141">&#171;Value Object&#187;</text><text fill="#000000" font-family="sans-serif" font-size="8.4" lengthAdjust="spacing" textLength="64.2" x="357.9" y="289.807">TitleOrFunction</text></g><!--entity ContractType--><g id="elem_ContractType"><rect fill="#F0FFDD" height="23.3859" rx="1.5" ry="1.5" style="stroke:#000000;stroke-width:0.3;" width="72" x="354" y="225.593"/><text fill="#000000" font-family="sans-serif" font-size="8.4" font-style="italic" lengthAdjust="spacing" textLength="60" x="360" y="235.5141">&#171;Value Object&#187;</text><text fill="#000000" font-family="sans-serif" font-size="8.4" lengthAdjust="spacing" textLength="55.2" x="362.4" y="245.407">ContractType</text></g><!--entity Mode--><g id="elem_Mode"><rect fill="#F0FFDD" height="23.3859" rx="1.5" ry="1.5" style="stroke:#000000;stroke-width:0.3;" width="72" x="354" y="181.193"/><text fill="#000000" font-family="sans-serif" font-size="8.4" font-style="italic" lengthAdjust="spacing" textLength="60" x="360" y="191.1141">&#171;Value Object&#187;</text><text fill="#000000" font-family="sans-serif" font-size="8.4" lengthAdjust="spacing" textLength="22.8" x="378.6" y="201.007">Mode</text></g><!--entity Address--><g id="elem_Address"><rect fill="#F0FFDD" height="23.3859" rx="1.5" ry="1.5" style="stroke:#000000;stroke-width:0.3;" width="72" x="354" y="136.793"/><text fill="#000000" font-family="sans-serif" font-size="8.4" font-style="italic" lengthAdjust="spacing" textLength="60" x="360" y="146.7141">&#171;Value Object&#187;</text><text fill="#000000" font-family="sans-serif" font-size="8.4" lengthAdjust="spacing" textLength="33.6" x="373.2" y="156.607">Address</text></g><!--entity VacanciesNumber--><g id="elem_VacanciesNumber"><rect fill="#F0FFDD" height="23.3859" rx="1.5" ry="1.5" style="stroke:#000000;stroke-width:0.3;" width="85.2" x="347.4" y="92.393"/><text fill="#000000" font-family="sans-serif" font-size="8.4" font-style="italic" lengthAdjust="spacing" textLength="60" x="360" y="102.3141">&#171;Value Object&#187;</text><text fill="#000000" font-family="sans-serif" font-size="8.4" lengthAdjust="spacing" textLength="73.2" x="353.4" y="112.207">VacanciesNumber</text></g><!--entity Description--><g id="elem_Description"><rect fill="#F0FFDD" height="23.3859" rx="1.5" ry="1.5" style="stroke:#000000;stroke-width:0.3;" width="72" x="354" y="47.993"/><text fill="#000000" font-family="sans-serif" font-size="8.4" font-style="italic" lengthAdjust="spacing" textLength="60" x="360" y="57.9141">&#171;Value Object&#187;</text><text fill="#000000" font-family="sans-serif" font-size="8.4" lengthAdjust="spacing" textLength="46.8" x="366.6" y="67.807">Description</text></g><!--class Process--><g id="elem_Process"><rect codeLine="66" fill="#F0FFFF" height="37.6523" id="Process" rx="1.5" ry="1.5" style="stroke:#000000;stroke-width:0.3;" width="50.4" x="364.8" y="412.193"/><ellipse cx="373.8" cy="428.6191" fill="#ADD1B2" rx="6.6" ry="6.6" style="stroke:#181818;stroke-width:0.6;"/><path d="M376.2686,432.2191 L371.6367,432.2191 L371.6367,424.7833 L376.2686,424.7833 L376.2686,426.0782 L373.106,426.0782 L373.106,427.6819 L375.9697,427.6819 L375.9697,428.9769 L373.106,428.9769 L373.106,430.9242 L376.2686,430.9242 Z " fill="#000000"/><text fill="#000000" font-family="sans-serif" font-size="7.2" font-style="italic" lengthAdjust="spacing" textLength="25.8" x="384.9" y="422.1539">&#171;entity&#187;</text><text fill="#000000" font-family="sans-serif" font-size="7.2" font-style="italic" lengthAdjust="spacing" textLength="21" x="387.3" y="430.6336">&#171;root&#187;</text><text fill="#000000" font-family="sans-serif" font-size="8.4" lengthAdjust="spacing" textLength="31.2" x="382.2" y="440.2734">Process</text><line style="stroke:#000000;stroke-width:0.3;" x1="365.4" x2="414.6" y1="445.0453" y2="445.0453"/></g><g id="elem_GMN32"><path d="M626.4,437.693 L626.4,462.473 L565.092,461.345 L626.4,467.273 L626.4,498.8109 A0,0 0 0 0 626.4,498.8109 L745.8,498.8109 A0,0 0 0 0 745.8,498.8109 L745.8,443.693 L739.8,437.693 L626.4,437.693 A0,0 0 0 0 626.4,437.693 " fill="#FEFFDD" style="stroke:#181818;stroke-width:0.3;"/><path d="M739.8,437.693 L739.8,443.693 L745.8,443.693 L739.8,437.693 " fill="#FEFFDD" style="stroke:#181818;stroke-width:0.3;"/><text fill="#000000" font-family="sans-serif" font-size="7.8" lengthAdjust="spacing" textLength="106.8" x="630" y="448.234">Can be one of the following:</text><text fill="#000000" font-family="sans-serif" font-size="7.8" lengthAdjust="spacing" textLength="84" x="630" y="457.4203">- applicationStartDate</text><text fill="#000000" font-family="sans-serif" font-size="7.8" lengthAdjust="spacing" textLength="78.6" x="630" y="466.6066">- ScreeningStartDate</text><text fill="#000000" font-family="sans-serif" font-size="7.8" lengthAdjust="spacing" textLength="80.4" x="630" y="475.793">- InterviewsStartDate</text><text fill="#000000" font-family="sans-serif" font-size="7.8" lengthAdjust="spacing" textLength="73.8" x="630" y="484.9793">- AnalysisStartDate</text><text fill="#000000" font-family="sans-serif" font-size="7.8" lengthAdjust="spacing" textLength="65.4" x="630" y="494.1656">- ResultStartDate</text></g><g id="elem_GMN35"><path d="M626.4,519.893 L626.4,535.775 L565.092,525.485 L626.4,540.575 L626.4,581.0109 A0,0 0 0 0 626.4,581.0109 L745.8,581.0109 A0,0 0 0 0 745.8,581.0109 L745.8,525.893 L739.8,519.893 L626.4,519.893 A0,0 0 0 0 626.4,519.893 " fill="#FEFFDD" style="stroke:#181818;stroke-width:0.3;"/><path d="M739.8,519.893 L739.8,525.893 L745.8,525.893 L739.8,519.893 " fill="#FEFFDD" style="stroke:#181818;stroke-width:0.3;"/><text fill="#000000" font-family="sans-serif" font-size="7.8" lengthAdjust="spacing" textLength="106.8" x="630" y="530.434">Can be one of the following:</text><text fill="#000000" font-family="sans-serif" font-size="7.8" lengthAdjust="spacing" textLength="50.4" x="630" y="539.6203">- Application</text><text fill="#000000" font-family="sans-serif" font-size="7.8" lengthAdjust="spacing" textLength="43.8" x="630" y="548.8066">- Screening</text><text fill="#000000" font-family="sans-serif" font-size="7.8" lengthAdjust="spacing" textLength="45.6" x="630" y="557.993">- Interviews</text><text fill="#000000" font-family="sans-serif" font-size="7.8" lengthAdjust="spacing" textLength="39" x="630" y="567.1793">- Analysis</text><text fill="#000000" font-family="sans-serif" font-size="7.8" lengthAdjust="spacing" textLength="30.6" x="630" y="576.3656">- Result</text></g><g id="elem_GMN38"><path d="M626.4,383.093 L626.4,398.633 L565.092,402.209 L626.4,403.433 L626.4,416.652 A0,0 0 0 0 626.4,416.652 L745.8,416.652 A0,0 0 0 0 745.8,416.652 L745.8,389.093 L739.8,383.093 L626.4,383.093 A0,0 0 0 0 626.4,383.093 " fill="#FEFFDD" style="stroke:#181818;stroke-width:0.3;"/><path d="M739.8,383.093 L739.8,389.093 L745.8,389.093 L739.8,383.093 " fill="#FEFFDD" style="stroke:#181818;stroke-width:0.3;"/><text fill="#000000" font-family="sans-serif" font-size="7.8" lengthAdjust="spacing" textLength="106.8" x="630" y="393.634">Can be one of the following:</text><text fill="#000000" font-family="sans-serif" font-size="7.8" lengthAdjust="spacing" textLength="27" x="630" y="402.8203">- Open</text><text fill="#000000" font-family="sans-serif" font-size="7.8" lengthAdjust="spacing" textLength="28.2" x="630" y="412.0066">- Close</text></g><!--entity ProcessState--><g id="elem_ProcessState"><rect fill="#F0FFDD" height="23.3859" rx="1.5" ry="1.5" style="stroke:#000000;stroke-width:0.3;" width="72" x="492.9" y="506.393"/><text fill="#000000" font-family="sans-serif" font-size="8.4" font-style="italic" lengthAdjust="spacing" textLength="60" x="498.9" y="516.3141">&#171;Value Object&#187;</text><text fill="#000000" font-family="sans-serif" font-size="8.4" lengthAdjust="spacing" textLength="51.6" x="503.1" y="526.207">ProcessState</text></g><!--entity ProcessDate--><g id="elem_ProcessDate"><rect fill="#F0FFDD" height="23.3859" rx="1.5" ry="1.5" style="stroke:#000000;stroke-width:0.3;" width="72" x="492.9" y="447.593"/><text fill="#000000" font-family="sans-serif" font-size="8.4" font-style="italic" lengthAdjust="spacing" textLength="60" x="498.9" y="457.5141">&#171;Value Object&#187;</text><text fill="#000000" font-family="sans-serif" font-size="8.4" lengthAdjust="spacing" textLength="49.8" x="504" y="467.407">ProcessDate</text></g><!--entity ProcessStatus--><g id="elem_ProcessStatus"><rect fill="#F0FFDD" height="23.3859" rx="1.5" ry="1.5" style="stroke:#000000;stroke-width:0.3;" width="72" x="492.9" y="391.193"/><text fill="#000000" font-family="sans-serif" font-size="8.4" font-style="italic" lengthAdjust="spacing" textLength="60" x="498.9" y="401.1141">&#171;Value Object&#187;</text><text fill="#000000" font-family="sans-serif" font-size="8.4" lengthAdjust="spacing" textLength="56.4" x="500.7" y="411.007">ProcessStatus</text></g><!--class CustomerManager--><g id="elem_CustomerManager"><rect codeLine="105" fill="#F0FFFF" height="37.6523" id="CustomerManager" rx="1.5" ry="1.5" style="stroke:#000000;stroke-width:0.3;" width="95.4" x="25.2" y="196.193"/><ellipse cx="34.2" cy="212.6191" fill="#ADD1B2" rx="6.6" ry="6.6" style="stroke:#181818;stroke-width:0.6;"/><path d="M36.6686,216.2191 L32.0367,216.2191 L32.0367,208.7833 L36.6686,208.7833 L36.6686,210.0782 L33.506,210.0782 L33.506,211.6819 L36.3697,211.6819 L36.3697,212.9769 L33.506,212.9769 L33.506,214.9242 L36.6686,214.9242 Z " fill="#000000"/><text fill="#000000" font-family="sans-serif" font-size="7.2" font-style="italic" lengthAdjust="spacing" textLength="25.8" x="67.8" y="206.1539">&#171;entity&#187;</text><text fill="#000000" font-family="sans-serif" font-size="7.2" font-style="italic" lengthAdjust="spacing" textLength="21" x="70.2" y="214.6336">&#171;root&#187;</text><text fill="#000000" font-family="sans-serif" font-size="8.4" lengthAdjust="spacing" textLength="76.2" x="42.6" y="224.2734">CustomerManager</text><line style="stroke:#000000;stroke-width:0.3;" x1="25.8" x2="120" y1="229.0453" y2="229.0453"/></g><!--link JobOpening to JobReference--><g id="link_JobOpening_JobReference"><path codeLine="42" d="M289.092,234.167 C301.614,253.571 323.064,283.601 347.4,303.893 C352.026,307.751 354.2789,309.465 359.6369,312.441 " fill="none" id="JobOpening-to-JobReference" style="stroke:#808080;stroke-width:0.6;"/><polygon fill="#808080" points="362.784,314.189,359.2286,309.4689,360.1614,312.7323,356.898,313.665,362.784,314.189" style="stroke:#808080;stroke-width:0.6;"/></g><!--link JobOpening to TitleOrFunction--><g id="link_JobOpening_TitleOrFunction"><path codeLine="43" d="M306.432,234.197 C318.894,242.237 333.726,251.555 347.4,259.493 C353.394,262.973 356.7882,264.8709 362.9322,268.1229 " fill="none" id="JobOpening-to-TitleOrFunction" style="stroke:#808080;stroke-width:0.6;"/><polygon fill="#808080" points="366.114,269.807,362.4641,265.1596,363.4625,268.4035,360.2186,269.402,366.114,269.807" style="stroke:#808080;stroke-width:0.6;"/></g><!--link JobOpening to ContractType--><g id="link_JobOpening_ContractType"><path codeLine="44" d="M311.076,221.753 C324.528,224.423 336.5189,226.8 350.1809,229.512 " fill="none" id="JobOpening-to-ContractType" style="stroke:#808080;stroke-width:0.6;"/><polygon fill="#808080" points="353.712,230.213,348.8826,226.8075,350.7694,229.6288,347.9481,231.5156,353.712,230.213" style="stroke:#808080;stroke-width:0.6;"/></g><!--link JobOpening to Mode--><g id="link_JobOpening_Mode"><path codeLine="45" d="M311.076,208.433 C324.528,205.763 336.5189,203.3859 350.1809,200.6739 " fill="none" id="JobOpening-to-Mode" style="stroke:#808080;stroke-width:0.6;"/><polygon fill="#808080" points="353.712,199.973,347.9481,198.6703,350.7694,200.5571,348.8826,203.3785,353.712,199.973" style="stroke:#808080;stroke-width:0.6;"/></g><!--link JobOpening to Address--><g id="link_JobOpening_Address"><path codeLine="46" d="M306.432,195.989 C318.894,187.949 333.726,178.631 347.4,170.693 C353.394,167.213 356.7882,165.3151 362.9322,162.0631 " fill="none" id="JobOpening-to-Address" style="stroke:#808080;stroke-width:0.6;"/><polygon fill="#808080" points="366.114,160.379,360.2186,160.7839,363.4625,161.7824,362.4641,165.0263,366.114,160.379" style="stroke:#808080;stroke-width:0.6;"/></g><!--link JobOpening to VacanciesNumber--><g id="link_JobOpening_VacanciesNumber"><path codeLine="47" d="M289.092,196.019 C301.614,176.615 323.064,146.585 347.4,126.293 C352.026,122.435 354.2789,120.721 359.6369,117.745 " fill="none" id="JobOpening-to-VacanciesNumber" style="stroke:#808080;stroke-width:0.6;"/><polygon fill="#808080" points="362.784,115.997,356.898,116.5209,360.1614,117.4536,359.2286,120.7171,362.784,115.997" style="stroke:#808080;stroke-width:0.6;"/></g><!--link JobOpening to Description--><g id="link_JobOpening_Description"><path codeLine="48" d="M283.392,196.115 C292.902,168.095 314.028,115.367 347.4,81.893 C351.36,77.921 353.0706,76.3127 358.0146,73.4207 " fill="none" id="JobOpening-to-Description" style="stroke:#808080;stroke-width:0.6;"/><polygon fill="#808080" points="361.122,71.603,355.2491,72.2579,358.5325,73.1177,357.6727,76.4011,361.122,71.603" style="stroke:#808080;stroke-width:0.6;"/></g><!--link Process to ProcessState--><g id="link_Process_ProcessState"><path codeLine="75" d="M415.494,447.197 C430.92,457.139 451.164,470.129 469.2,481.493 C482.37,489.791 494.2087,497.1371 505.7527,504.2471 " fill="none" id="Process-to-ProcessState" style="stroke:#808080;stroke-width:0.6;"/><polygon fill="#808080" points="508.818,506.135,505.4787,501.2596,506.2636,504.5617,502.9615,505.3466,508.818,506.135" style="stroke:#808080;stroke-width:0.6;"/></g><!--link Process to ProcessDate--><g id="link_Process_ProcessDate"><path codeLine="76" d="M415.38,436.169 C436.98,440.591 465.0433,446.3364 489.3193,451.3104 " fill="none" id="Process-to-ProcessDate" style="stroke:#808080;stroke-width:0.6;"/><polygon fill="#808080" points="492.846,452.033,488.0376,448.5979,489.9071,451.4308,487.0742,453.3002,492.846,452.033" style="stroke:#808080;stroke-width:0.6;"/></g><!--link Process to ProcessStatus--><g id="link_Process_ProcessStatus"><path codeLine="77" d="M415.38,426.017 C436.98,421.595 465.0433,415.8496 489.3193,410.8756 " fill="none" id="Process-to-ProcessStatus" style="stroke:#808080;stroke-width:0.6;"/><polygon fill="#808080" points="492.846,410.153,487.0742,408.8857,489.9071,410.7551,488.0376,413.588,492.846,410.153" style="stroke:#808080;stroke-width:0.6;"/></g><!--link JobOpening to Process--><g id="link_JobOpening_Process"><path codeLine="109" d="M287.43,234.263 C308.664,275.249 356.6219,367.8185 377.8379,408.7685 " fill="none" id="JobOpening-to-Process" style="stroke:#808080;stroke-width:0.6;"/><polygon fill="#808080" points="379.494,411.965,379.1409,406.0662,378.1139,409.3012,374.8789,408.2743,379.494,411.965" style="stroke:#808080;stroke-width:0.6;"/></g><!--link CustomerManager to JobOpening--><g id="link_CustomerManager_JobOpening"><path codeLine="110" d="M120.792,215.093 C158.184,215.093 205.866,215.093 239.142,215.093 " fill="none" id="CustomerManager-to-JobOpening" style="stroke:#808080;stroke-width:0.6;"/><polygon fill="#808080" points="242.742,215.093,237.342,212.693,239.742,215.093,237.342,217.493,242.742,215.093" style="stroke:#808080;stroke-width:0.6;"/><text fill="#000000" font-family="sans-serif" font-size="7.8" lengthAdjust="spacing" textLength="33.6" x="171" y="213.034">manages</text><text fill="#000000" font-family="sans-serif" font-size="7.8" lengthAdjust="spacing" textLength="4.8" x="125.4283" y="223.0642">1</text><text fill="#000000" font-family="sans-serif" font-size="7.8" lengthAdjust="spacing" textLength="6" x="232.2134" y="223.2028">N</text></g><!--SRC=[fLJ1Rk8m4BtdAwpi6MdtMg58AL4hLcr1jEhTn4FmujZHsDagglhlEmwXDS7BWZONnBmtutdFCzvA0Qm6jpN29WesZZd3K5PRnuH4A9qqEabUf5F0qiBKN6hsQ0GeDc4hhdTILsp6jP22Ex1fabWADHnvpKh5hMNl2QFlGMxWGMguDIW0PqOPP0N7tQrguPZ0ors5fjLYJygNouVvB7-PBvvwtXZ_TlVzZhuUon7DspvS8NHxVd3WMb5oyX7ss524L_3iEjBdvN9TAJXImL6S4N6F0Fh_5HJ5M85tvpwculQWOkYTfJ_DcYqQqFukyegaLtGNwNi2sadNCO8Fw7IwZsNPT8h6k2nB-lgzIEAjO0C8kWHYldAw6xPO_o9NicomuEEBti_40kzQtG_91HapentoqhrqpIK7-36xW9OBWK23zc_cAo-vBYNOfxPU0rwGKO0jKJRdzVK_WScJINRaPGmVcHUZX6x5S6zFB3xu4OD61iGeWUAzC6qS30-2sPmsvJ_QVxO6PZHuYji2snYbp1lLlFaaJTYcLMhYP0r1Z7RCVSL0Y_wysCcVSYy_akeZrBvU4DbsQvGYZ1XjfHit4ExN4atf9oooMmVex68Df6T7gHSCtK0lhcBxuktf4XpDwA5PVyzXJty3YpFO_hpOHOsJhvWGtZHAbjmF7zL7TrHZmfvB_zXIJWoSQmVuMyARZQ6vvggpCegjmBRA7IFd9l74kYiKvbyAOyAYUY8oJhg_fkdMNjkrVo22lpDbxCYcS5rchNMcflVraMiAO6nl3fm39RO_fozhE80zDYwJ_aY9GwJqAGqJRrZTCspo1m00]--></g></svg>