<?xml version="1.0" encoding="us-ascii" standalone="no"?><svg xmlns="http://www.w3.org/2000/svg" xmlns:xlink="http://www.w3.org/1999/xlink" contentStyleType="text/css" height="506.4px" preserveAspectRatio="none" style="width:506px;height:506px;background:#FFFFFF;" version="1.1" viewBox="0 0 506 506" width="506px" zoomAndPan="magnify"><defs/><g><text fill="#000000" font-family="sans-serif" font-size="5.6" font-weight="bold" lengthAdjust="spacing" textLength="107.2" x="196.6" y="9.4141">Domain Model - Ranking Candidates</text><!--cluster Job Opening Aggregate--><g id="cluster_Job Opening Aggregate"><rect fill="none" height="214" rx="1" ry="1" style="stroke:#000000;stroke-width:0.6000000000000001;" width="243.2" x="155.6" y="155.3953"/><text fill="#000000" font-family="sans-serif" font-size="5.6" font-weight="bold" lengthAdjust="spacing" textLength="67.2" x="243.6" y="161.6094">Job Opening Aggregate</text></g><!--cluster User Aggregate--><g id="cluster_User Aggregate"><rect fill="none" height="125.2" rx="1" ry="1" style="stroke:#000000;stroke-width:0.6000000000000001;" width="126.4" x="164" y="378.9953"/><text fill="#000000" font-family="sans-serif" font-size="5.6" font-weight="bold" lengthAdjust="spacing" textLength="44" x="205.2" y="385.2094">User Aggregate</text></g><!--cluster Process Aggregate--><g id="cluster_Process Aggregate"><rect fill="none" height="128" rx="1" ry="1" style="stroke:#000000;stroke-width:0.6000000000000001;" width="266.8" x="236.8" y="17.7953"/><text fill="#000000" font-family="sans-serif" font-size="5.6" font-weight="bold" lengthAdjust="spacing" textLength="53.2" x="343.6" y="24.0094">Process Aggregate</text></g><!--cluster Customer Manager Aggregate--><g id="cluster_Customer Manager Aggregate"><rect fill="none" height="46" rx="1" ry="1" style="stroke:#000000;stroke-width:0.6000000000000001;" width="92" x="2.8" y="305.3953"/><text fill="#000000" font-family="sans-serif" font-size="5.6" font-weight="bold" lengthAdjust="spacing" textLength="85.6" x="6" y="311.6094">Customer Manager Aggregate</text></g><!--class JobOpening--><g id="elem_JobOpening"><rect codeLine="25" fill="#F0FFFF" height="25.1016" id="JobOpening" rx="1" ry="1" style="stroke:#000000;stroke-width:0.20000000000000004;" width="45.2" x="162" y="253.5953"/><ellipse cx="168" cy="264.5461" fill="#ADD1B2" rx="4.4" ry="4.4" style="stroke:#181818;stroke-width:0.4000000000000001;"/><path d="M169.6457,266.9461 L166.5578,266.9461 L166.5578,261.9889 L169.6457,261.9889 L169.6457,262.8521 L167.5373,262.8521 L167.5373,263.9213 L169.4465,263.9213 L169.4465,264.7846 L167.5373,264.7846 L167.5373,266.0828 L169.6457,266.0828 Z " fill="#000000"/><text fill="#000000" font-family="sans-serif" font-size="4.8" font-style="italic" lengthAdjust="spacing" textLength="17.2" x="181.2" y="260.2359">&#171;entity&#187;</text><text fill="#000000" font-family="sans-serif" font-size="4.8" font-style="italic" lengthAdjust="spacing" textLength="14" x="182.8" y="265.8891">&#171;root&#187;</text><text fill="#000000" font-family="sans-serif" font-size="5.6" lengthAdjust="spacing" textLength="32.4" x="173.6" y="272.3156">JobOpening</text><line style="stroke:#000000;stroke-width:0.20000000000000004;" x1="162.4" x2="206.8" y1="275.4969" y2="275.4969"/></g><g id="elem_GMN18"><path d="M312.8,288.5953 L312.8,296.4753 L284.16,296.8313 L312.8,299.6753 L312.8,310.968 A0,0 0 0 0 312.8,310.968 L392.4,310.968 A0,0 0 0 0 392.4,310.968 L392.4,292.5953 L388.4,288.5953 L312.8,288.5953 A0,0 0 0 0 312.8,288.5953 " fill="#FEFFDD" style="stroke:#181818;stroke-width:0.20000000000000004;"/><path d="M388.4,288.5953 L388.4,292.5953 L392.4,292.5953 L388.4,288.5953 " fill="#FEFFDD" style="stroke:#181818;stroke-width:0.20000000000000004;"/><text fill="#000000" font-family="sans-serif" font-size="5.2" lengthAdjust="spacing" textLength="71.2" x="315.2" y="295.6227">Can be one of the following:</text><text fill="#000000" font-family="sans-serif" font-size="5.2" lengthAdjust="spacing" textLength="27.6" x="315.2" y="301.7469">- full-time</text><text fill="#000000" font-family="sans-serif" font-size="5.2" lengthAdjust="spacing" textLength="29.2" x="315.2" y="307.8711">- part-time</text></g><g id="elem_GMN21"><path d="M312.8,245.9953 L312.8,261.1753 L284.16,264.6433 L312.8,264.3753 L312.8,274.4922 A0,0 0 0 0 312.8,274.4922 L392.4,274.4922 A0,0 0 0 0 392.4,274.4922 L392.4,249.9953 L388.4,245.9953 L312.8,245.9953 A0,0 0 0 0 312.8,245.9953 " fill="#FEFFDD" style="stroke:#181818;stroke-width:0.20000000000000004;"/><path d="M388.4,245.9953 L388.4,249.9953 L392.4,249.9953 L388.4,245.9953 " fill="#FEFFDD" style="stroke:#181818;stroke-width:0.20000000000000004;"/><text fill="#000000" font-family="sans-serif" font-size="5.2" lengthAdjust="spacing" textLength="71.2" x="315.2" y="253.0227">Can be one of the following:</text><text fill="#000000" font-family="sans-serif" font-size="5.2" lengthAdjust="spacing" textLength="22.4" x="315.2" y="259.1469">- remote</text><text fill="#000000" font-family="sans-serif" font-size="5.2" lengthAdjust="spacing" textLength="20.8" x="315.2" y="265.2711">- hybrid</text><text fill="#000000" font-family="sans-serif" font-size="5.2" lengthAdjust="spacing" textLength="20.4" x="315.2" y="271.3953">- onsite</text></g><!--entity JobReference--><g id="elem_JobReference"><rect fill="#F0FFDD" height="15.5906" rx="1" ry="1" style="stroke:#000000;stroke-width:0.20000000000000004;" width="48" x="236" y="347.1953"/><text fill="#000000" font-family="sans-serif" font-size="5.6" font-style="italic" lengthAdjust="spacing" textLength="40" x="240" y="353.8094">&#171;Value Object&#187;</text><text fill="#000000" font-family="sans-serif" font-size="5.6" lengthAdjust="spacing" textLength="36" x="242" y="360.4047">JobReference</text></g><!--entity TitleOrFunction--><g id="elem_TitleOrFunction"><rect fill="#F0FFDD" height="15.5906" rx="1" ry="1" style="stroke:#000000;stroke-width:0.20000000000000004;" width="50.8" x="234.6" y="317.5953"/><text fill="#000000" font-family="sans-serif" font-size="5.6" font-style="italic" lengthAdjust="spacing" textLength="40" x="240" y="324.2094">&#171;Value Object&#187;</text><text fill="#000000" font-family="sans-serif" font-size="5.6" lengthAdjust="spacing" textLength="42.8" x="238.6" y="330.8047">TitleOrFunction</text></g><!--entity ContractType--><g id="elem_ContractType"><rect fill="#F0FFDD" height="15.5906" rx="1" ry="1" style="stroke:#000000;stroke-width:0.20000000000000004;" width="48" x="236" y="287.9953"/><text fill="#000000" font-family="sans-serif" font-size="5.6" font-style="italic" lengthAdjust="spacing" textLength="40" x="240" y="294.6094">&#171;Value Object&#187;</text><text fill="#000000" font-family="sans-serif" font-size="5.6" lengthAdjust="spacing" textLength="36.8" x="241.6" y="301.2047">ContractType</text></g><!--entity Mode--><g id="elem_Mode"><rect fill="#F0FFDD" height="15.5906" rx="1" ry="1" style="stroke:#000000;stroke-width:0.20000000000000004;" width="48" x="236" y="258.3953"/><text fill="#000000" font-family="sans-serif" font-size="5.6" font-style="italic" lengthAdjust="spacing" textLength="40" x="240" y="265.0094">&#171;Value Object&#187;</text><text fill="#000000" font-family="sans-serif" font-size="5.6" lengthAdjust="spacing" textLength="15.2" x="252.4" y="271.6047">Mode</text></g><!--entity Address--><g id="elem_Address"><rect fill="#F0FFDD" height="15.5906" rx="1" ry="1" style="stroke:#000000;stroke-width:0.20000000000000004;" width="48" x="236" y="228.7953"/><text fill="#000000" font-family="sans-serif" font-size="5.6" font-style="italic" lengthAdjust="spacing" textLength="40" x="240" y="235.4094">&#171;Value Object&#187;</text><text fill="#000000" font-family="sans-serif" font-size="5.6" lengthAdjust="spacing" textLength="22.4" x="248.8" y="242.0047">Address</text></g><!--entity VacanciesNumber--><g id="elem_VacanciesNumber"><rect fill="#F0FFDD" height="15.5906" rx="1" ry="1" style="stroke:#000000;stroke-width:0.20000000000000004;" width="56.8" x="231.6" y="199.1953"/><text fill="#000000" font-family="sans-serif" font-size="5.6" font-style="italic" lengthAdjust="spacing" textLength="40" x="240" y="205.8094">&#171;Value Object&#187;</text><text fill="#000000" font-family="sans-serif" font-size="5.6" lengthAdjust="spacing" textLength="48.8" x="235.6" y="212.4047">VacanciesNumber</text></g><!--entity Description--><g id="elem_Description"><rect fill="#F0FFDD" height="15.5906" rx="1" ry="1" style="stroke:#000000;stroke-width:0.20000000000000004;" width="48" x="236" y="169.5953"/><text fill="#000000" font-family="sans-serif" font-size="5.6" font-style="italic" lengthAdjust="spacing" textLength="40" x="240" y="176.2094">&#171;Value Object&#187;</text><text fill="#000000" font-family="sans-serif" font-size="5.6" lengthAdjust="spacing" textLength="31.2" x="244.4" y="182.8047">Description</text></g><!--class User--><g id="elem_User"><rect codeLine="66" fill="#F0FFFF" height="25.1016" id="User" rx="1" ry="1" style="stroke:#000000;stroke-width:0.20000000000000004;" width="28.4" x="170.4" y="417.9953"/><ellipse cx="176.4" cy="428.9461" fill="#ADD1B2" rx="4.4" ry="4.4" style="stroke:#181818;stroke-width:0.4000000000000001;"/><path d="M178.0457,431.3461 L174.9578,431.3461 L174.9578,426.3889 L178.0457,426.3889 L178.0457,427.2521 L175.9373,427.2521 L175.9373,428.3213 L177.8465,428.3213 L177.8465,429.1846 L175.9373,429.1846 L175.9373,430.4828 L178.0457,430.4828 Z " fill="#000000"/><text fill="#000000" font-family="sans-serif" font-size="4.8" font-style="italic" lengthAdjust="spacing" textLength="17.2" x="181.2" y="424.6359">&#171;entity&#187;</text><text fill="#000000" font-family="sans-serif" font-size="4.8" font-style="italic" lengthAdjust="spacing" textLength="14" x="182.8" y="430.2891">&#171;root&#187;</text><text fill="#000000" font-family="sans-serif" font-size="5.6" lengthAdjust="spacing" textLength="12.4" x="183.6" y="436.7156">User</text><line style="stroke:#000000;stroke-width:0.20000000000000004;" x1="170.8" x2="198.4" y1="439.8969" y2="439.8969"/></g><!--entity UserEmail--><g id="elem_UserEmail"><rect fill="#F0FFDD" height="15.5906" rx="1" ry="1" style="stroke:#000000;stroke-width:0.20000000000000004;" width="48" x="236" y="481.9953"/><text fill="#000000" font-family="sans-serif" font-size="5.6" font-style="italic" lengthAdjust="spacing" textLength="40" x="240" y="488.6094">&#171;Value Object&#187;</text><text fill="#000000" font-family="sans-serif" font-size="5.6" lengthAdjust="spacing" textLength="27.2" x="246.4" y="495.2047">UserEmail</text></g><!--entity UserName--><g id="elem_UserName"><rect fill="#F0FFDD" height="15.5906" rx="1" ry="1" style="stroke:#000000;stroke-width:0.20000000000000004;" width="48" x="236" y="452.3953"/><text fill="#000000" font-family="sans-serif" font-size="5.6" font-style="italic" lengthAdjust="spacing" textLength="40" x="240" y="459.0094">&#171;Value Object&#187;</text><text fill="#000000" font-family="sans-serif" font-size="5.6" lengthAdjust="spacing" textLength="28" x="246" y="465.6047">UserName</text></g><!--entity UserPassword--><g id="elem_UserPassword"><rect fill="#F0FFDD" height="15.5906" rx="1" ry="1" style="stroke:#000000;stroke-width:0.20000000000000004;" width="48" x="236" y="422.7953"/><text fill="#000000" font-family="sans-serif" font-size="5.6" font-style="italic" lengthAdjust="spacing" textLength="40" x="240" y="429.4094">&#171;Value Object&#187;</text><text fill="#000000" font-family="sans-serif" font-size="5.6" lengthAdjust="spacing" textLength="38.4" x="240.8" y="436.0047">UserPassword</text></g><!--entity Username--><g id="elem_Username"><rect fill="#F0FFDD" height="15.5906" rx="1" ry="1" style="stroke:#000000;stroke-width:0.20000000000000004;" width="48" x="236" y="393.1953"/><text fill="#000000" font-family="sans-serif" font-size="5.6" font-style="italic" lengthAdjust="spacing" textLength="40" x="240" y="399.8094">&#171;Value Object&#187;</text><text fill="#000000" font-family="sans-serif" font-size="5.6" lengthAdjust="spacing" textLength="27.6" x="246.2" y="406.4047">Username</text></g><!--class Process--><g id="elem_Process"><rect codeLine="85" fill="#F0FFFF" height="25.1016" id="Process" rx="1" ry="1" style="stroke:#000000;stroke-width:0.20000000000000004;" width="33.6" x="243.2" y="106.3953"/><ellipse cx="249.2" cy="117.3461" fill="#ADD1B2" rx="4.4" ry="4.4" style="stroke:#181818;stroke-width:0.4000000000000001;"/><path d="M250.8457,119.7461 L247.7578,119.7461 L247.7578,114.7889 L250.8457,114.7889 L250.8457,115.6521 L248.7373,115.6521 L248.7373,116.7213 L250.6465,116.7213 L250.6465,117.5846 L248.7373,117.5846 L248.7373,118.8828 L250.8457,118.8828 Z " fill="#000000"/><text fill="#000000" font-family="sans-serif" font-size="4.8" font-style="italic" lengthAdjust="spacing" textLength="17.2" x="256.6" y="113.0359">&#171;entity&#187;</text><text fill="#000000" font-family="sans-serif" font-size="4.8" font-style="italic" lengthAdjust="spacing" textLength="14" x="258.2" y="118.6891">&#171;root&#187;</text><text fill="#000000" font-family="sans-serif" font-size="5.6" lengthAdjust="spacing" textLength="20.8" x="254.8" y="125.1156">Process</text><line style="stroke:#000000;stroke-width:0.20000000000000004;" x1="243.6" x2="276.4" y1="128.2969" y2="128.2969"/></g><g id="elem_GMN40"><path d="M417.6,31.7953 L417.6,62.5233 L376.728,70.2353 L417.6,65.7233 L417.6,84.7891 A0,0 0 0 0 417.6,84.7891 L497.2,84.7891 A0,0 0 0 0 497.2,84.7891 L497.2,35.7953 L493.2,31.7953 L417.6,31.7953 A0,0 0 0 0 417.6,31.7953 " fill="#FEFFDD" style="stroke:#181818;stroke-width:0.20000000000000004;"/><path d="M493.2,31.7953 L493.2,35.7953 L497.2,35.7953 L493.2,31.7953 " fill="#FEFFDD" style="stroke:#181818;stroke-width:0.20000000000000004;"/><text fill="#000000" font-family="sans-serif" font-size="5.2" lengthAdjust="spacing" textLength="71.2" x="420" y="38.8227">Can be one of the following:</text><text fill="#000000" font-family="sans-serif" font-size="5.2" lengthAdjust="spacing" textLength="52.4" x="420" y="44.9469">- ScreeningStartDate</text><text fill="#000000" font-family="sans-serif" font-size="5.2" lengthAdjust="spacing" textLength="50" x="420" y="51.0711">- ScreeningEndDate</text><text fill="#000000" font-family="sans-serif" font-size="5.2" lengthAdjust="spacing" textLength="53.6" x="420" y="57.1953">- InterviewsStartDate</text><text fill="#000000" font-family="sans-serif" font-size="5.2" lengthAdjust="spacing" textLength="51.2" x="420" y="63.3195">- InterviewsEndDate</text><text fill="#000000" font-family="sans-serif" font-size="5.2" lengthAdjust="spacing" textLength="49.2" x="420" y="69.4438">- AnalysisStartDate</text><text fill="#000000" font-family="sans-serif" font-size="5.2" lengthAdjust="spacing" textLength="46.8" x="420" y="75.568">- AnalysisEndDate</text><text fill="#000000" font-family="sans-serif" font-size="5.2" lengthAdjust="spacing" textLength="32" x="420" y="81.6922">- ResultDate</text></g><g id="elem_GMN43"><path d="M417.6,98.5953 L417.6,117.3953 L376.728,118.9953 L417.6,120.5953 L417.6,139.3406 A0,0 0 0 0 417.6,139.3406 L497.2,139.3406 A0,0 0 0 0 497.2,139.3406 L497.2,102.5953 L493.2,98.5953 L417.6,98.5953 A0,0 0 0 0 417.6,98.5953 " fill="#FEFFDD" style="stroke:#181818;stroke-width:0.20000000000000004;"/><path d="M493.2,98.5953 L493.2,102.5953 L497.2,102.5953 L493.2,98.5953 " fill="#FEFFDD" style="stroke:#181818;stroke-width:0.20000000000000004;"/><text fill="#000000" font-family="sans-serif" font-size="5.2" lengthAdjust="spacing" textLength="71.2" x="420" y="105.6227">Can be one of the following:</text><text fill="#000000" font-family="sans-serif" font-size="5.2" lengthAdjust="spacing" textLength="33.6" x="420" y="111.7469">- Application</text><text fill="#000000" font-family="sans-serif" font-size="5.2" lengthAdjust="spacing" textLength="29.2" x="420" y="117.8711">- Screening</text><text fill="#000000" font-family="sans-serif" font-size="5.2" lengthAdjust="spacing" textLength="30.4" x="420" y="123.9953">- Interviews</text><text fill="#000000" font-family="sans-serif" font-size="5.2" lengthAdjust="spacing" textLength="26" x="420" y="130.1195">- Analysis</text><text fill="#000000" font-family="sans-serif" font-size="5.2" lengthAdjust="spacing" textLength="20.4" x="420" y="136.2438">- Result</text></g><!--entity ProcessState--><g id="elem_ProcessState"><rect fill="#F0FFDD" height="15.5906" rx="1" ry="1" style="stroke:#000000;stroke-width:0.20000000000000004;" width="48" x="328.6" y="111.1953"/><text fill="#000000" font-family="sans-serif" font-size="5.6" font-style="italic" lengthAdjust="spacing" textLength="40" x="332.6" y="117.8094">&#171;Value Object&#187;</text><text fill="#000000" font-family="sans-serif" font-size="5.6" lengthAdjust="spacing" textLength="34.4" x="335.4" y="124.4047">ProcessState</text></g><!--entity ProcessDate--><g id="elem_ProcessDate"><rect fill="#F0FFDD" height="15.5906" rx="1" ry="1" style="stroke:#000000;stroke-width:0.20000000000000004;" width="48" x="328.6" y="65.9953"/><text fill="#000000" font-family="sans-serif" font-size="5.6" font-style="italic" lengthAdjust="spacing" textLength="40" x="332.6" y="72.6094">&#171;Value Object&#187;</text><text fill="#000000" font-family="sans-serif" font-size="5.6" lengthAdjust="spacing" textLength="33.2" x="336" y="79.2047">ProcessDate</text></g><!--class CustomerManager--><g id="elem_CustomerManager"><rect codeLine="118" fill="#F0FFFF" height="25.1016" id="CustomerManager" rx="1" ry="1" style="stroke:#000000;stroke-width:0.20000000000000004;" width="63.6" x="16.8" y="319.5953"/><ellipse cx="22.8" cy="330.5461" fill="#ADD1B2" rx="4.4" ry="4.4" style="stroke:#181818;stroke-width:0.4000000000000001;"/><path d="M24.4457,332.9461 L21.3578,332.9461 L21.3578,327.9889 L24.4457,327.9889 L24.4457,328.8521 L22.3373,328.8521 L22.3373,329.9213 L24.2465,329.9213 L24.2465,330.7846 L22.3373,330.7846 L22.3373,332.0828 L24.4457,332.0828 Z " fill="#000000"/><text fill="#000000" font-family="sans-serif" font-size="4.8" font-style="italic" lengthAdjust="spacing" textLength="17.2" x="45.2" y="326.2359">&#171;entity&#187;</text><text fill="#000000" font-family="sans-serif" font-size="4.8" font-style="italic" lengthAdjust="spacing" textLength="14" x="46.8" y="331.8891">&#171;root&#187;</text><text fill="#000000" font-family="sans-serif" font-size="5.6" lengthAdjust="spacing" textLength="50.8" x="28.4" y="338.3156">CustomerManager</text><line style="stroke:#000000;stroke-width:0.20000000000000004;" x1="17.2" x2="80" y1="341.4969" y2="341.4969"/></g><!--link JobOpening to JobReference--><g id="link_JobOpening_JobReference"><path codeLine="42" d="M190.508,278.9953 C197.912,294.9833 212.392,322.3913 231.6,340.1953 C234.424,342.8113 235.7134,343.9105 239.1214,345.8625 " fill="none" id="JobOpening-to-JobReference" style="stroke:#808080;stroke-width:0.4000000000000001;"/><polygon fill="#808080" points="241.204,347.0553,238.8754,343.8777,239.4685,346.0613,237.2849,346.6544,241.204,347.0553" style="stroke:#808080;stroke-width:0.4000000000000001;"/></g><!--link JobOpening to TitleOrFunction--><g id="link_JobOpening_TitleOrFunction"><path codeLine="43" d="M196.452,278.8593 C205.428,288.3233 218.54,301.1953 231.6,310.5953 C235.036,313.0673 236.8294,314.2488 240.6054,316.2928 " fill="none" id="JobOpening-to-TitleOrFunction" style="stroke:#808080;stroke-width:0.4000000000000001;"/><polygon fill="#808080" points="242.716,317.4353,240.3117,314.3145,240.9572,316.4832,238.7884,317.1286,242.716,317.4353" style="stroke:#808080;stroke-width:0.4000000000000001;"/></g><!--link JobOpening to ContractType--><g id="link_JobOpening_ContractType"><path codeLine="44" d="M207.384,275.0753 C217.596,279.1273 227.3692,283.0062 237.2892,286.9422 " fill="none" id="JobOpening-to-ContractType" style="stroke:#808080;stroke-width:0.4000000000000001;"/><polygon fill="#808080" points="239.52,287.8273,236.7639,285.0124,237.661,287.0897,235.5837,287.9868,239.52,287.8273" style="stroke:#808080;stroke-width:0.4000000000000001;"/></g><!--link JobOpening to Mode--><g id="link_JobOpening_Mode"><path codeLine="45" d="M207.384,266.1953 C216.352,266.1953 224.3,266.1953 233.408,266.1953 " fill="none" id="JobOpening-to-Mode" style="stroke:#808080;stroke-width:0.4000000000000001;"/><polygon fill="#808080" points="235.808,266.1953,232.208,264.5953,233.808,266.1953,232.208,267.7953,235.808,266.1953" style="stroke:#808080;stroke-width:0.4000000000000001;"/></g><!--link JobOpening to Address--><g id="link_JobOpening_Address"><path codeLine="46" d="M207.384,257.3153 C217.596,253.2633 227.3692,249.3844 237.2892,245.4484 " fill="none" id="JobOpening-to-Address" style="stroke:#808080;stroke-width:0.4000000000000001;"/><polygon fill="#808080" points="239.52,244.5633,235.5837,244.4038,237.661,245.3009,236.7639,247.3782,239.52,244.5633" style="stroke:#808080;stroke-width:0.4000000000000001;"/></g><!--link JobOpening to VacanciesNumber--><g id="link_JobOpening_VacanciesNumber"><path codeLine="47" d="M196.452,253.5313 C205.428,244.0673 218.54,231.1953 231.6,221.7953 C235.036,219.3233 236.8294,218.1418 240.6054,216.0978 " fill="none" id="JobOpening-to-VacanciesNumber" style="stroke:#808080;stroke-width:0.4000000000000001;"/><polygon fill="#808080" points="242.716,214.9553,238.7884,215.262,240.9572,215.9074,240.3117,218.0761,242.716,214.9553" style="stroke:#808080;stroke-width:0.4000000000000001;"/></g><!--link JobOpening to Description--><g id="link_JobOpening_Description"><path codeLine="48" d="M190.508,253.3953 C197.912,237.4073 212.392,209.9993 231.6,192.1953 C234.424,189.5793 235.7134,188.4802 239.1214,186.5282 " fill="none" id="JobOpening-to-Description" style="stroke:#808080;stroke-width:0.4000000000000001;"/><polygon fill="#808080" points="241.204,185.3353,237.2849,185.7362,239.4685,186.3293,238.8754,188.513,241.204,185.3353" style="stroke:#808080;stroke-width:0.4000000000000001;"/></g><!--link User to UserEmail--><g id="link_User_UserEmail"><path codeLine="77" d="M196.452,443.2593 C205.428,452.7233 218.54,465.5953 231.6,474.9953 C235.036,477.4673 236.8294,478.6488 240.6054,480.6928 " fill="none" id="User-to-UserEmail" style="stroke:#808080;stroke-width:0.4000000000000001;"/><polygon fill="#808080" points="242.716,481.8353,240.3117,478.7145,240.9572,480.8832,238.7884,481.5286,242.716,481.8353" style="stroke:#808080;stroke-width:0.4000000000000001;"/></g><!--link User to UserName--><g id="link_User_UserName"><path codeLine="78" d="M198.856,436.0953 C210.276,440.6233 224.3933,446.226 237.2533,451.33 " fill="none" id="User-to-UserName" style="stroke:#808080;stroke-width:0.4000000000000001;"/><polygon fill="#808080" points="239.484,452.2153,236.7281,449.4001,237.6251,451.4775,235.5477,452.3744,239.484,452.2153" style="stroke:#808080;stroke-width:0.4000000000000001;"/></g><!--link User to Username--><g id="link_User_Username"><path codeLine="79" d="M198.856,425.0953 C210.276,420.5673 224.3933,414.9647 237.2533,409.8607 " fill="none" id="User-to-Username" style="stroke:#808080;stroke-width:0.4000000000000001;"/><polygon fill="#808080" points="239.484,408.9753,235.5477,408.8162,237.6251,409.7131,236.7281,411.7905,239.484,408.9753" style="stroke:#808080;stroke-width:0.4000000000000001;"/></g><!--link User to UserPassword--><g id="link_User_UserPassword"><path codeLine="80" d="M198.856,430.5953 C209.224,430.5953 221.248,430.5953 233.444,430.5953 " fill="none" id="User-to-UserPassword" style="stroke:#808080;stroke-width:0.4000000000000001;"/><polygon fill="#808080" points="235.844,430.5953,232.244,428.9953,233.844,430.5953,232.244,432.1953,235.844,430.5953" style="stroke:#808080;stroke-width:0.4000000000000001;"/></g><!--link Process to ProcessState--><g id="link_Process_ProcessState"><path codeLine="92" d="M276.92,118.9953 C291.32,118.9953 309.98,118.9953 326.164,118.9953 " fill="none" id="Process-to-ProcessState" style="stroke:#808080;stroke-width:0.4000000000000001;"/><polygon fill="#808080" points="328.564,118.9953,324.964,117.3953,326.564,118.9953,324.964,120.5953,328.564,118.9953" style="stroke:#808080;stroke-width:0.4000000000000001;"/></g><!--link Process to ProcessDate--><g id="link_Process_ProcessDate"><path codeLine="93" d="M276.92,110.8633 C293.644,102.6273 317.1949,91.0315 333.8149,82.8475 " fill="none" id="Process-to-ProcessDate" style="stroke:#808080;stroke-width:0.4000000000000001;"/><polygon fill="#808080" points="335.968,81.7873,332.0315,81.9423,334.1737,82.6708,333.4452,84.8131,335.968,81.7873" style="stroke:#808080;stroke-width:0.4000000000000001;"/></g><!--link JobOpening to Process--><g id="link_JobOpening_Process"><path codeLine="122" d="M190.036,253.5273 C198.032,233.7793 214.496,194.6433 231.6,162.9953 C237.456,152.1633 243.6565,142.4134 249.4325,133.7894 " fill="none" id="JobOpening-to-Process" style="stroke:#808080;stroke-width:0.4000000000000001;"/><polygon fill="#808080" points="250.768,131.7953,247.4353,133.8961,249.655,133.457,250.0941,135.6768,250.768,131.7953" style="stroke:#808080;stroke-width:0.4000000000000001;"/></g><!--link CustomerManager to JobOpening--><g id="link_CustomerManager_JobOpening"><path codeLine="123" d="M75.068,319.4713 C100.276,307.1633 135.9032,289.772 159.7512,278.132 " fill="none" id="CustomerManager-to-JobOpening" style="stroke:#808080;stroke-width:0.4000000000000001;"/><polygon fill="#808080" points="161.908,277.0793,157.971,277.2205,160.1107,277.9566,159.3746,280.0963,161.908,277.0793" style="stroke:#808080;stroke-width:0.4000000000000001;"/><text fill="#000000" font-family="sans-serif" font-size="5.2" lengthAdjust="spacing" textLength="22.4" x="114" y="288.4227">manages</text><text fill="#000000" font-family="sans-serif" font-size="5.2" lengthAdjust="spacing" textLength="3.2" x="76.997" y="315.2785">1</text><text fill="#000000" font-family="sans-serif" font-size="5.2" lengthAdjust="spacing" textLength="4" x="154.7443" y="283.8998">N</text></g><!--link CustomerManager to User--><g id="link_CustomerManager_User"><path codeLine="124" d="M66.536,344.9593 C93.76,364.7713 143.6835,401.1071 168.4395,419.1231 " fill="none" id="CustomerManager-to-User" style="stroke:#808080;stroke-width:0.4000000000000001;"/><polygon fill="#808080" points="170.38,420.5353,168.4107,417.1233,168.7629,419.3585,166.5277,419.7107,170.38,420.5353" style="stroke:#808080;stroke-width:0.4000000000000001;"/></g><!--SRC=[fLN1Rjim3BtxAmJl762x5e41DscB3cqIj5tlYiKuMcN9aEG5GT5_7wN4YMAhdelvOe3lKUHx9kKjPq0gi5l5J29WOubLHFDoQmdZ6WhBbKoI5su5a7IkAiebULGC19cG9ohVk2p9Z4h66RLWqYGn6AgffXKf13M6l2S4dmU-WGSkuLff1dgcXD9aJlNRjMZWaa2BjrAhHh83AL-j7kvd-SlzSk5vNVpRxVTRV3oMQwrsXt2fON_W1mNN0fEJZx376YEqX6UxHtrEBfMbW0iLLBC14NSQGFw_Wlcygy2vSnTJSTsgEFPEqfzgJPOrIFSjyXAbb_WjqlS4fELsJn1kqUdq4CkowLGhPRCiyUTxaSXxWWrea0KWyvNYjo7BzMzq9SkE5doSwNucblgsaNv8HcJCbBIQ5lPbNuyfuCPi12rdJ0CEsh-PhxIWik1W5asr1ZqYOmwcqBmUrkTVWScJINRXPGplc1UZX6x5S6TFB7xq8mPr38XH0iK7OL9PE5u8QjDloZsu_sGDH4bm5Bi5ib52g1sUUNKYJSYc4M9YUGL137VCdcCWcQyNgtoIExuadg-XSkS5aUr-hJaB8qeQRhiDXFlro-2mH1RBnmTNoZ5kyCuK8sRDSHUqWf7K5LwkExmMHj8bdZmymLwD6u5Jq_smwwyVbT5es-2bbokj2hUj4JjRQD3H8-dPOke8wKVwV93jNsrrrtvOv3FG7HcRqn3-ue8y5-vdWa4ihEt52G5u8ra7kfSMz1yEEnDBFAFzp5nIiJSycjTY_QmdC8ququUsjkVa5-p8wrhmWfxknuuFKOcH_dkD3spwh35MLJZ4ZrHY8BhrBQUbnCQr_rC8HyTZtMFI7oboa9GkqZ3nYbIU4S-QjDkM_0K0]--></g></svg>