<?xml version="1.0" encoding="us-ascii" standalone="no"?><svg xmlns="http://www.w3.org/2000/svg" xmlns:xlink="http://www.w3.org/1999/xlink" contentStyleType="text/css" height="975px" preserveAspectRatio="none" style="width:2044px;height:975px;background:#FFFFFF;" version="1.1" viewBox="0 0 2044 975" width="2044px" zoomAndPan="magnify"><defs/><g><rect fill="#FFFFFF" height="768.3848" style="stroke:#181818;stroke-width:1.0;" width="10" x="66.5" y="93.9766"/><rect fill="#FFFFFF" height="321.416" style="stroke:#181818;stroke-width:1.0;" width="10" x="355.5" y="130.5977"/><rect fill="#FFFFFF" height="381.0371" style="stroke:#181818;stroke-width:1.0;" width="10" x="355.5" y="481.3242"/><rect fill="#FFFFFF" height="247.4844" style="stroke:#181818;stroke-width:1.0;" width="10" x="555.5" y="159.9082"/><rect fill="#FFFFFF" height="146.5527" style="stroke:#181818;stroke-width:1.0;" width="10" x="814.5" y="189.2188"/><rect fill="#FFFFFF" height="87.9316" style="stroke:#181818;stroke-width:1.0;" width="10" x="990" y="218.5293"/><rect fill="#FFFFFF" height="29.3105" style="stroke:#181818;stroke-width:1.0;" width="10" x="1151.5" y="247.8398"/><rect fill="#FFFFFF" height="146.5527" style="stroke:#181818;stroke-width:1.0;" width="10" x="1357" y="510.6348"/><rect fill="#FFFFFF" height="146.5527" style="stroke:#181818;stroke-width:1.0;" width="10" x="1594" y="686.498"/><rect fill="#FFFFFF" height="29.3105" style="stroke:#181818;stroke-width:1.0;" width="10" x="1857" y="539.9453"/><rect fill="#FFFFFF" height="29.3105" style="stroke:#181818;stroke-width:1.0;" width="10" x="1857" y="715.8086"/><rect fill="#FFFFFF" height="29.3105" style="stroke:#181818;stroke-width:1.0;" width="10" x="1973" y="598.5664"/><rect fill="#FFFFFF" height="29.3105" style="stroke:#181818;stroke-width:1.0;" width="10" x="1973" y="774.4297"/><line style="stroke:#181818;stroke-width:0.5;stroke-dasharray:5.0,5.0;" x1="71" x2="71" y1="83.9766" y2="880.3613"/><line style="stroke:#181818;stroke-width:0.5;stroke-dasharray:5.0,5.0;" x1="360" x2="360" y1="83.9766" y2="880.3613"/><line style="stroke:#181818;stroke-width:0.5;stroke-dasharray:5.0,5.0;" x1="560" x2="560" y1="83.9766" y2="880.3613"/><line style="stroke:#181818;stroke-width:0.5;stroke-dasharray:5.0,5.0;" x1="819.5" x2="819.5" y1="83.9766" y2="880.3613"/><line style="stroke:#181818;stroke-width:0.5;stroke-dasharray:5.0,5.0;" x1="994.5" x2="994.5" y1="83.9766" y2="880.3613"/><line style="stroke:#181818;stroke-width:0.5;stroke-dasharray:5.0,5.0;" x1="1156.5" x2="1156.5" y1="83.9766" y2="880.3613"/><line style="stroke:#181818;stroke-width:0.5;stroke-dasharray:5.0,5.0;" x1="1361.5" x2="1361.5" y1="83.9766" y2="880.3613"/><line style="stroke:#181818;stroke-width:0.5;stroke-dasharray:5.0,5.0;" x1="1598.5" x2="1598.5" y1="83.9766" y2="880.3613"/><line style="stroke:#181818;stroke-width:0.5;stroke-dasharray:5.0,5.0;" x1="1861.5" x2="1861.5" y1="83.9766" y2="880.3613"/><line style="stroke:#181818;stroke-width:0.5;stroke-dasharray:5.0,5.0;" x1="1977.5" x2="1977.5" y1="83.9766" y2="880.3613"/><text fill="#000000" font-family="sans-serif" font-size="14" lengthAdjust="spacing" textLength="127" x="5" y="81.0234">CustomerManager</text><ellipse cx="71.5" cy="15.9883" fill="#E2E2F0" rx="8" ry="8" style="stroke:#181818;stroke-width:0.5;"/><path d="M71.5,23.9883 L71.5,50.9883 M58.5,31.9883 L84.5,31.9883 M71.5,50.9883 L58.5,65.9883 M71.5,50.9883 L84.5,65.9883 " fill="none" style="stroke:#181818;stroke-width:0.5;"/><text fill="#000000" font-family="sans-serif" font-size="14" lengthAdjust="spacing" textLength="127" x="5" y="892.8965">CustomerManager</text><ellipse cx="71.5" cy="904.3496" fill="#E2E2F0" rx="8" ry="8" style="stroke:#181818;stroke-width:0.5;"/><path d="M71.5,912.3496 L71.5,939.3496 M58.5,920.3496 L84.5,920.3496 M71.5,939.3496 L58.5,954.3496 M71.5,939.3496 L84.5,954.3496 " fill="none" style="stroke:#181818;stroke-width:0.5;"/><rect fill="#E2E2F0" height="46.9766" rx="2.5" ry="2.5" style="stroke:#181818;stroke-width:0.5;" width="175" x="273" y="36"/><text fill="#000000" font-family="sans-serif" font-size="14" font-style="italic" lengthAdjust="spacing" textLength="101" x="310" y="56.5352">&#171;presentation&#187;</text><text fill="#000000" font-family="sans-serif" font-size="14" lengthAdjust="spacing" textLength="161" x="280" y="73.0234">ChangeProcessStatusUI</text><rect fill="#E2E2F0" height="46.9766" rx="2.5" ry="2.5" style="stroke:#181818;stroke-width:0.5;" width="175" x="273" y="879.3613"/><text fill="#000000" font-family="sans-serif" font-size="14" font-style="italic" lengthAdjust="spacing" textLength="101" x="310" y="899.8965">&#171;presentation&#187;</text><text fill="#000000" font-family="sans-serif" font-size="14" lengthAdjust="spacing" textLength="161" x="280" y="916.3848">ChangeProcessStatusUI</text><rect fill="#E2E2F0" height="46.9766" rx="2.5" ry="2.5" style="stroke:#181818;stroke-width:0.5;" width="205" x="458" y="36"/><text fill="#000000" font-family="sans-serif" font-size="14" font-style="italic" lengthAdjust="spacing" textLength="81" x="520" y="56.5352">&#171;controller&#187;</text><text fill="#000000" font-family="sans-serif" font-size="14" lengthAdjust="spacing" textLength="191" x="465" y="73.0234">SelectJobOpeningController</text><rect fill="#E2E2F0" height="46.9766" rx="2.5" ry="2.5" style="stroke:#181818;stroke-width:0.5;" width="205" x="458" y="879.3613"/><text fill="#000000" font-family="sans-serif" font-size="14" font-style="italic" lengthAdjust="spacing" textLength="81" x="520" y="899.8965">&#171;controller&#187;</text><text fill="#000000" font-family="sans-serif" font-size="14" lengthAdjust="spacing" textLength="191" x="465" y="916.3848">SelectJobOpeningController</text><rect fill="#E2E2F0" height="46.9766" rx="2.5" ry="2.5" style="stroke:#181818;stroke-width:0.5;" width="188" x="725.5" y="36"/><text fill="#000000" font-family="sans-serif" font-size="14" font-style="italic" lengthAdjust="spacing" textLength="81" x="779" y="56.5352">&#171;controller&#187;</text><text fill="#000000" font-family="sans-serif" font-size="14" lengthAdjust="spacing" textLength="174" x="732.5" y="73.0234">ListJobOpeningController</text><rect fill="#E2E2F0" height="46.9766" rx="2.5" ry="2.5" style="stroke:#181818;stroke-width:0.5;" width="188" x="725.5" y="879.3613"/><text fill="#000000" font-family="sans-serif" font-size="14" font-style="italic" lengthAdjust="spacing" textLength="81" x="779" y="899.8965">&#171;controller&#187;</text><text fill="#000000" font-family="sans-serif" font-size="14" lengthAdjust="spacing" textLength="174" x="732.5" y="916.3848">ListJobOpeningController</text><rect fill="#E2E2F0" height="46.9766" rx="2.5" ry="2.5" style="stroke:#181818;stroke-width:0.5;" width="143" x="923.5" y="36"/><text fill="#000000" font-family="sans-serif" font-size="14" font-style="italic" lengthAdjust="spacing" textLength="61" x="964.5" y="56.5352">&#171;service&#187;</text><text fill="#000000" font-family="sans-serif" font-size="14" lengthAdjust="spacing" textLength="129" x="930.5" y="73.0234">JobOpeningService</text><rect fill="#E2E2F0" height="46.9766" rx="2.5" ry="2.5" style="stroke:#181818;stroke-width:0.5;" width="143" x="923.5" y="879.3613"/><text fill="#000000" font-family="sans-serif" font-size="14" font-style="italic" lengthAdjust="spacing" textLength="61" x="964.5" y="899.8965">&#171;service&#187;</text><text fill="#000000" font-family="sans-serif" font-size="14" lengthAdjust="spacing" textLength="129" x="930.5" y="916.3848">JobOpeningService</text><text fill="#000000" font-family="sans-serif" font-size="14" font-style="italic" lengthAdjust="spacing" textLength="84" x="1111.5" y="64.5352">&#171;repository&#187;</text><text fill="#000000" font-family="sans-serif" font-size="14" lengthAdjust="spacing" textLength="154" x="1076.5" y="81.0234">JobOpeningRepository</text><path d="M1138.5,15 C1138.5,5 1156.5,5 1156.5,5 C1156.5,5 1174.5,5 1174.5,15 L1174.5,41 C1174.5,51 1156.5,51 1156.5,51 C1156.5,51 1138.5,51 1138.5,41 L1138.5,15 " fill="#E2E2F0" style="stroke:#181818;stroke-width:1.5;"/><path d="M1138.5,15 C1138.5,25 1156.5,25 1156.5,25 C1156.5,25 1174.5,25 1174.5,15 " fill="none" style="stroke:#181818;stroke-width:1.5;"/><text fill="#000000" font-family="sans-serif" font-size="14" font-style="italic" lengthAdjust="spacing" textLength="84" x="1111.5" y="892.8965">&#171;repository&#187;</text><text fill="#000000" font-family="sans-serif" font-size="14" lengthAdjust="spacing" textLength="154" x="1076.5" y="909.3848">JobOpeningRepository</text><path d="M1138.5,922.3379 C1138.5,912.3379 1156.5,912.3379 1156.5,912.3379 C1156.5,912.3379 1174.5,912.3379 1174.5,922.3379 L1174.5,948.3379 C1174.5,958.3379 1156.5,958.3379 1156.5,958.3379 C1156.5,958.3379 1138.5,958.3379 1138.5,948.3379 L1138.5,922.3379 " fill="#E2E2F0" style="stroke:#181818;stroke-width:1.5;"/><path d="M1138.5,922.3379 C1138.5,932.3379 1156.5,932.3379 1156.5,932.3379 C1156.5,932.3379 1174.5,932.3379 1174.5,922.3379 " fill="none" style="stroke:#181818;stroke-width:1.5;"/><rect fill="#E2E2F0" height="46.9766" rx="2.5" ry="2.5" style="stroke:#181818;stroke-width:0.5;" width="231" x="1246.5" y="36"/><text fill="#000000" font-family="sans-serif" font-size="14" font-style="italic" lengthAdjust="spacing" textLength="81" x="1321.5" y="56.5352">&#171;controller&#187;</text><text fill="#000000" font-family="sans-serif" font-size="14" lengthAdjust="spacing" textLength="217" x="1253.5" y="73.0234">ChangeProcessStatusController</text><rect fill="#E2E2F0" height="46.9766" rx="2.5" ry="2.5" style="stroke:#181818;stroke-width:0.5;" width="231" x="1246.5" y="879.3613"/><text fill="#000000" font-family="sans-serif" font-size="14" font-style="italic" lengthAdjust="spacing" textLength="81" x="1321.5" y="899.8965">&#171;controller&#187;</text><text fill="#000000" font-family="sans-serif" font-size="14" lengthAdjust="spacing" textLength="217" x="1253.5" y="916.3848">ChangeProcessStatusController</text><rect fill="#E2E2F0" height="46.9766" rx="2.5" ry="2.5" style="stroke:#181818;stroke-width:0.5;" width="223" x="1487.5" y="36"/><text fill="#000000" font-family="sans-serif" font-size="14" font-style="italic" lengthAdjust="spacing" textLength="81" x="1558.5" y="56.5352">&#171;controller&#187;</text><text fill="#000000" font-family="sans-serif" font-size="14" lengthAdjust="spacing" textLength="209" x="1494.5" y="73.0234">ChangeProcessStateController</text><rect fill="#E2E2F0" height="46.9766" rx="2.5" ry="2.5" style="stroke:#181818;stroke-width:0.5;" width="223" x="1487.5" y="879.3613"/><text fill="#000000" font-family="sans-serif" font-size="14" font-style="italic" lengthAdjust="spacing" textLength="81" x="1558.5" y="899.8965">&#171;controller&#187;</text><text fill="#000000" font-family="sans-serif" font-size="14" lengthAdjust="spacing" textLength="209" x="1494.5" y="916.3848">ChangeProcessStateController</text><rect fill="#E2E2F0" height="46.9766" rx="2.5" ry="2.5" style="stroke:#181818;stroke-width:0.5;" width="81" x="1821.5" y="36"/><text fill="#000000" font-family="sans-serif" font-size="14" font-style="italic" lengthAdjust="spacing" textLength="67" x="1828.5" y="56.5352">&#171;process&#187;</text><text fill="#000000" font-family="sans-serif" font-size="14" lengthAdjust="spacing" textLength="52" x="1836" y="73.0234">Process</text><rect fill="#E2E2F0" height="46.9766" rx="2.5" ry="2.5" style="stroke:#181818;stroke-width:0.5;" width="81" x="1821.5" y="879.3613"/><text fill="#000000" font-family="sans-serif" font-size="14" font-style="italic" lengthAdjust="spacing" textLength="67" x="1828.5" y="899.8965">&#171;process&#187;</text><text fill="#000000" font-family="sans-serif" font-size="14" lengthAdjust="spacing" textLength="52" x="1836" y="916.3848">Process</text><text fill="#000000" font-family="sans-serif" font-size="14" font-style="italic" lengthAdjust="spacing" textLength="84" x="1933" y="64.5352">&#171;repository&#187;</text><text fill="#000000" font-family="sans-serif" font-size="14" lengthAdjust="spacing" textLength="125" x="1912.5" y="81.0234">ProcessRepository</text><path d="M1960,15 C1960,5 1978,5 1978,5 C1978,5 1996,5 1996,15 L1996,41 C1996,51 1978,51 1978,51 C1978,51 1960,51 1960,41 L1960,15 " fill="#E2E2F0" style="stroke:#181818;stroke-width:1.5;"/><path d="M1960,15 C1960,25 1978,25 1978,25 C1978,25 1996,25 1996,15 " fill="none" style="stroke:#181818;stroke-width:1.5;"/><text fill="#000000" font-family="sans-serif" font-size="14" font-style="italic" lengthAdjust="spacing" textLength="84" x="1933" y="892.8965">&#171;repository&#187;</text><text fill="#000000" font-family="sans-serif" font-size="14" lengthAdjust="spacing" textLength="125" x="1912.5" y="909.3848">ProcessRepository</text><path d="M1960,922.3379 C1960,912.3379 1978,912.3379 1978,912.3379 C1978,912.3379 1996,912.3379 1996,922.3379 L1996,948.3379 C1996,958.3379 1978,958.3379 1978,958.3379 C1978,958.3379 1960,958.3379 1960,948.3379 L1960,922.3379 " fill="#E2E2F0" style="stroke:#181818;stroke-width:1.5;"/><path d="M1960,922.3379 C1960,932.3379 1978,932.3379 1978,932.3379 C1978,932.3379 1996,932.3379 1996,922.3379 " fill="none" style="stroke:#181818;stroke-width:1.5;"/><rect fill="#FFFFFF" height="768.3848" style="stroke:#181818;stroke-width:1.0;" width="10" x="66.5" y="93.9766"/><rect fill="#FFFFFF" height="321.416" style="stroke:#181818;stroke-width:1.0;" width="10" x="355.5" y="130.5977"/><rect fill="#FFFFFF" height="381.0371" style="stroke:#181818;stroke-width:1.0;" width="10" x="355.5" y="481.3242"/><rect fill="#FFFFFF" height="247.4844" style="stroke:#181818;stroke-width:1.0;" width="10" x="555.5" y="159.9082"/><rect fill="#FFFFFF" height="146.5527" style="stroke:#181818;stroke-width:1.0;" width="10" x="814.5" y="189.2188"/><rect fill="#FFFFFF" height="87.9316" style="stroke:#181818;stroke-width:1.0;" width="10" x="990" y="218.5293"/><rect fill="#FFFFFF" height="29.3105" style="stroke:#181818;stroke-width:1.0;" width="10" x="1151.5" y="247.8398"/><rect fill="#FFFFFF" height="146.5527" style="stroke:#181818;stroke-width:1.0;" width="10" x="1357" y="510.6348"/><rect fill="#FFFFFF" height="146.5527" style="stroke:#181818;stroke-width:1.0;" width="10" x="1594" y="686.498"/><rect fill="#FFFFFF" height="29.3105" style="stroke:#181818;stroke-width:1.0;" width="10" x="1857" y="539.9453"/><rect fill="#FFFFFF" height="29.3105" style="stroke:#181818;stroke-width:1.0;" width="10" x="1857" y="715.8086"/><rect fill="#FFFFFF" height="29.3105" style="stroke:#181818;stroke-width:1.0;" width="10" x="1973" y="598.5664"/><rect fill="#FFFFFF" height="29.3105" style="stroke:#181818;stroke-width:1.0;" width="10" x="1973" y="774.4297"/><polygon fill="#181818" points="343.5,126.5977,353.5,130.5977,343.5,134.5977,347.5,130.5977" style="stroke:#181818;stroke-width:1.0;"/><line style="stroke:#181818;stroke-width:1.0;" x1="76.5" x2="349.5" y1="130.5977" y2="130.5977"/><text fill="#000000" font-family="sans-serif" font-size="13" font-weight="bold" lengthAdjust="spacing" textLength="9" x="83.5" y="118.2002">1</text><text fill="#000000" font-family="sans-serif" font-size="13" lengthAdjust="spacing" textLength="136" x="96.5" y="110.5449">asks to change phase</text><text fill="#000000" font-family="sans-serif" font-size="13" lengthAdjust="spacing" textLength="146" x="96.5" y="125.8555">status of a job opening</text><polygon fill="#181818" points="543.5,155.9082,553.5,159.9082,543.5,163.9082,547.5,159.9082" style="stroke:#181818;stroke-width:1.0;"/><line style="stroke:#181818;stroke-width:1.0;" x1="365.5" x2="549.5" y1="159.9082" y2="159.9082"/><text fill="#000000" font-family="sans-serif" font-size="13" font-weight="bold" lengthAdjust="spacing" textLength="9" x="372.5" y="155.166">2</text><text fill="#000000" font-family="sans-serif" font-size="13" lengthAdjust="spacing" textLength="118" x="385.5" y="155.166">selectJobOpening()</text><polygon fill="#181818" points="802.5,185.2188,812.5,189.2188,802.5,193.2188,806.5,189.2188" style="stroke:#181818;stroke-width:1.0;"/><line style="stroke:#181818;stroke-width:1.0;" x1="565.5" x2="808.5" y1="189.2188" y2="189.2188"/><text fill="#000000" font-family="sans-serif" font-size="13" font-weight="bold" lengthAdjust="spacing" textLength="9" x="572.5" y="184.4766">3</text><text fill="#000000" font-family="sans-serif" font-size="13" lengthAdjust="spacing" textLength="121" x="585.5" y="184.4766">showJobOpenings()</text><polygon fill="#181818" points="978,214.5293,988,218.5293,978,222.5293,982,218.5293" style="stroke:#181818;stroke-width:1.0;"/><line style="stroke:#181818;stroke-width:1.0;" x1="824.5" x2="984" y1="218.5293" y2="218.5293"/><text fill="#000000" font-family="sans-serif" font-size="13" font-weight="bold" lengthAdjust="spacing" textLength="9" x="831.5" y="213.7871">4</text><text fill="#000000" font-family="sans-serif" font-size="13" lengthAdjust="spacing" textLength="103" x="844.5" y="213.7871">allJobOpenings()</text><polygon fill="#181818" points="1139.5,243.8398,1149.5,247.8398,1139.5,251.8398,1143.5,247.8398" style="stroke:#181818;stroke-width:1.0;"/><line style="stroke:#181818;stroke-width:1.0;" x1="1000" x2="1145.5" y1="247.8398" y2="247.8398"/><text fill="#000000" font-family="sans-serif" font-size="13" font-weight="bold" lengthAdjust="spacing" textLength="9" x="1007" y="243.0977">5</text><text fill="#000000" font-family="sans-serif" font-size="13" lengthAdjust="spacing" textLength="50" x="1020" y="243.0977">findAll()</text><polygon fill="#181818" points="1011,273.1504,1001,277.1504,1011,281.1504,1007,277.1504" style="stroke:#181818;stroke-width:1.0;"/><line style="stroke:#181818;stroke-width:1.0;stroke-dasharray:2.0,2.0;" x1="1005" x2="1155.5" y1="277.1504" y2="277.1504"/><text fill="#000000" font-family="sans-serif" font-size="13" font-weight="bold" lengthAdjust="spacing" textLength="9" x="1017" y="272.4082">6</text><text fill="#000000" font-family="sans-serif" font-size="13" lengthAdjust="spacing" textLength="80" x="1030" y="272.4082">jobOpenings</text><polygon fill="#181818" points="835.5,302.4609,825.5,306.4609,835.5,310.4609,831.5,306.4609" style="stroke:#181818;stroke-width:1.0;"/><line style="stroke:#181818;stroke-width:1.0;stroke-dasharray:2.0,2.0;" x1="829.5" x2="994" y1="306.4609" y2="306.4609"/><text fill="#000000" font-family="sans-serif" font-size="13" font-weight="bold" lengthAdjust="spacing" textLength="9" x="841.5" y="301.7188">7</text><text fill="#000000" font-family="sans-serif" font-size="13" lengthAdjust="spacing" textLength="80" x="854.5" y="301.7188">jobOpenings</text><polygon fill="#181818" points="576.5,331.7715,566.5,335.7715,576.5,339.7715,572.5,335.7715" style="stroke:#181818;stroke-width:1.0;"/><line style="stroke:#181818;stroke-width:1.0;stroke-dasharray:2.0,2.0;" x1="570.5" x2="818.5" y1="335.7715" y2="335.7715"/><text fill="#000000" font-family="sans-serif" font-size="13" font-weight="bold" lengthAdjust="spacing" textLength="9" x="582.5" y="331.0293">8</text><text fill="#000000" font-family="sans-serif" font-size="13" lengthAdjust="spacing" textLength="80" x="595.5" y="331.0293">jobOpenings</text><line style="stroke:#181818;stroke-width:1.0;" x1="565.5" x2="607.5" y1="365.082" y2="365.082"/><line style="stroke:#181818;stroke-width:1.0;" x1="607.5" x2="607.5" y1="365.082" y2="378.082"/><line style="stroke:#181818;stroke-width:1.0;" x1="566.5" x2="607.5" y1="378.082" y2="378.082"/><polygon fill="#181818" points="576.5,374.082,566.5,378.082,576.5,382.082,572.5,378.082" style="stroke:#181818;stroke-width:1.0;"/><text fill="#000000" font-family="sans-serif" font-size="13" font-weight="bold" lengthAdjust="spacing" textLength="9" x="572.5" y="360.3398">9</text><text fill="#000000" font-family="sans-serif" font-size="13" lengthAdjust="spacing" textLength="222" x="585.5" y="360.3398">selectorPart(List&lt;JobOpening&gt; list)</text><polygon fill="#181818" points="376.5,403.3926,366.5,407.3926,376.5,411.3926,372.5,407.3926" style="stroke:#181818;stroke-width:1.0;"/><line style="stroke:#181818;stroke-width:1.0;stroke-dasharray:2.0,2.0;" x1="370.5" x2="559.5" y1="407.3926" y2="407.3926"/><text fill="#000000" font-family="sans-serif" font-size="13" font-weight="bold" lengthAdjust="spacing" textLength="18" x="382.5" y="402.6504">10</text><text fill="#000000" font-family="sans-serif" font-size="13" lengthAdjust="spacing" textLength="73" x="404.5" y="402.6504">jobOpening</text><polygon fill="#181818" points="87.5,448.0137,77.5,452.0137,87.5,456.0137,83.5,452.0137" style="stroke:#181818;stroke-width:1.0;"/><line style="stroke:#181818;stroke-width:1.0;" x1="81.5" x2="359.5" y1="452.0137" y2="452.0137"/><text fill="#000000" font-family="sans-serif" font-size="13" font-weight="bold" lengthAdjust="spacing" textLength="18" x="93.5" y="439.6162">11</text><text fill="#000000" font-family="sans-serif" font-size="13" lengthAdjust="spacing" textLength="162" x="115.5" y="431.9609">shows job opening status</text><text fill="#000000" font-family="sans-serif" font-size="13" lengthAdjust="spacing" textLength="176" x="115.5" y="447.2715">and asks if wants to change</text><polygon fill="#181818" points="343.5,477.3242,353.5,481.3242,343.5,485.3242,347.5,481.3242" style="stroke:#181818;stroke-width:1.0;"/><line style="stroke:#181818;stroke-width:1.0;" x1="76.5" x2="349.5" y1="481.3242" y2="481.3242"/><text fill="#000000" font-family="sans-serif" font-size="13" font-weight="bold" lengthAdjust="spacing" textLength="18" x="83.5" y="476.582">12</text><text fill="#000000" font-family="sans-serif" font-size="13" lengthAdjust="spacing" textLength="238" x="105.5" y="476.582">selects if wants to go back or forward</text><polygon fill="#181818" points="1345,506.6348,1355,510.6348,1345,514.6348,1349,510.6348" style="stroke:#181818;stroke-width:1.0;"/><line style="stroke:#181818;stroke-width:1.0;" x1="365.5" x2="1351" y1="510.6348" y2="510.6348"/><text fill="#000000" font-family="sans-serif" font-size="13" font-weight="bold" lengthAdjust="spacing" textLength="18" x="372.5" y="505.8926">13</text><text fill="#000000" font-family="sans-serif" font-size="13" lengthAdjust="spacing" textLength="285" x="394.5" y="505.8926">changeProcessStatus(processStatus,process);</text><polygon fill="#181818" points="1845,535.9453,1855,539.9453,1845,543.9453,1849,539.9453" style="stroke:#181818;stroke-width:1.0;"/><line style="stroke:#181818;stroke-width:1.0;" x1="1367" x2="1851" y1="539.9453" y2="539.9453"/><text fill="#000000" font-family="sans-serif" font-size="13" font-weight="bold" lengthAdjust="spacing" textLength="18" x="1374" y="535.2031">14</text><text fill="#000000" font-family="sans-serif" font-size="13" lengthAdjust="spacing" textLength="228" x="1396" y="535.2031">changeProcessStatus(processStatus)</text><polygon fill="#181818" points="1378,565.2559,1368,569.2559,1378,573.2559,1374,569.2559" style="stroke:#181818;stroke-width:1.0;"/><line style="stroke:#181818;stroke-width:1.0;stroke-dasharray:2.0,2.0;" x1="1372" x2="1861" y1="569.2559" y2="569.2559"/><text fill="#000000" font-family="sans-serif" font-size="13" font-weight="bold" lengthAdjust="spacing" textLength="18" x="1384" y="564.5137">15</text><text fill="#000000" font-family="sans-serif" font-size="13" lengthAdjust="spacing" textLength="25" x="1406" y="564.5137">true</text><polygon fill="#181818" points="1961,594.5664,1971,598.5664,1961,602.5664,1965,598.5664" style="stroke:#181818;stroke-width:1.0;"/><line style="stroke:#181818;stroke-width:1.0;" x1="1367" x2="1967" y1="598.5664" y2="598.5664"/><text fill="#000000" font-family="sans-serif" font-size="13" font-weight="bold" lengthAdjust="spacing" textLength="18" x="1374" y="593.8242">16</text><text fill="#000000" font-family="sans-serif" font-size="13" lengthAdjust="spacing" textLength="85" x="1396" y="593.8242">save(process)</text><polygon fill="#181818" points="1378,623.877,1368,627.877,1378,631.877,1374,627.877" style="stroke:#181818;stroke-width:1.0;"/><line style="stroke:#181818;stroke-width:1.0;stroke-dasharray:2.0,2.0;" x1="1372" x2="1977" y1="627.877" y2="627.877"/><text fill="#000000" font-family="sans-serif" font-size="13" font-weight="bold" lengthAdjust="spacing" textLength="18" x="1384" y="623.1348">17</text><text fill="#000000" font-family="sans-serif" font-size="13" lengthAdjust="spacing" textLength="25" x="1406" y="623.1348">true</text><polygon fill="#181818" points="376.5,653.1875,366.5,657.1875,376.5,661.1875,372.5,657.1875" style="stroke:#181818;stroke-width:1.0;"/><line style="stroke:#181818;stroke-width:1.0;stroke-dasharray:2.0,2.0;" x1="370.5" x2="1361" y1="657.1875" y2="657.1875"/><text fill="#000000" font-family="sans-serif" font-size="13" font-weight="bold" lengthAdjust="spacing" textLength="18" x="382.5" y="652.4453">18</text><text fill="#000000" font-family="sans-serif" font-size="13" lengthAdjust="spacing" textLength="139" x="404.5" y="652.4453">process status altered</text><polygon fill="#181818" points="1582,682.498,1592,686.498,1582,690.498,1586,686.498" style="stroke:#181818;stroke-width:1.0;"/><line style="stroke:#181818;stroke-width:1.0;" x1="365.5" x2="1588" y1="686.498" y2="686.498"/><text fill="#000000" font-family="sans-serif" font-size="13" font-weight="bold" lengthAdjust="spacing" textLength="18" x="372.5" y="681.7559">19</text><text fill="#000000" font-family="sans-serif" font-size="13" lengthAdjust="spacing" textLength="265" x="394.5" y="681.7559">changeProcessState(processState,process)</text><polygon fill="#181818" points="1845,711.8086,1855,715.8086,1845,719.8086,1849,715.8086" style="stroke:#181818;stroke-width:1.0;"/><line style="stroke:#181818;stroke-width:1.0;" x1="1604" x2="1851" y1="715.8086" y2="715.8086"/><text fill="#000000" font-family="sans-serif" font-size="13" font-weight="bold" lengthAdjust="spacing" textLength="18" x="1611" y="711.0664">20</text><text fill="#000000" font-family="sans-serif" font-size="13" lengthAdjust="spacing" textLength="212" x="1633" y="711.0664">changeProcessState(processState)</text><polygon fill="#181818" points="1615,741.1191,1605,745.1191,1615,749.1191,1611,745.1191" style="stroke:#181818;stroke-width:1.0;"/><line style="stroke:#181818;stroke-width:1.0;stroke-dasharray:2.0,2.0;" x1="1609" x2="1861" y1="745.1191" y2="745.1191"/><text fill="#000000" font-family="sans-serif" font-size="13" font-weight="bold" lengthAdjust="spacing" textLength="18" x="1621" y="740.377">21</text><text fill="#000000" font-family="sans-serif" font-size="13" lengthAdjust="spacing" textLength="25" x="1643" y="740.377">true</text><polygon fill="#181818" points="1961,770.4297,1971,774.4297,1961,778.4297,1965,774.4297" style="stroke:#181818;stroke-width:1.0;"/><line style="stroke:#181818;stroke-width:1.0;" x1="1604" x2="1967" y1="774.4297" y2="774.4297"/><text fill="#000000" font-family="sans-serif" font-size="13" font-weight="bold" lengthAdjust="spacing" textLength="18" x="1611" y="769.6875">22</text><text fill="#000000" font-family="sans-serif" font-size="13" lengthAdjust="spacing" textLength="85" x="1633" y="769.6875">save(process)</text><polygon fill="#181818" points="1615,799.7402,1605,803.7402,1615,807.7402,1611,803.7402" style="stroke:#181818;stroke-width:1.0;"/><line style="stroke:#181818;stroke-width:1.0;stroke-dasharray:2.0,2.0;" x1="1609" x2="1977" y1="803.7402" y2="803.7402"/><text fill="#000000" font-family="sans-serif" font-size="13" font-weight="bold" lengthAdjust="spacing" textLength="18" x="1621" y="798.998">23</text><text fill="#000000" font-family="sans-serif" font-size="13" lengthAdjust="spacing" textLength="25" x="1643" y="798.998">true</text><polygon fill="#181818" points="376.5,829.0508,366.5,833.0508,376.5,837.0508,372.5,833.0508" style="stroke:#181818;stroke-width:1.0;"/><line style="stroke:#181818;stroke-width:1.0;stroke-dasharray:2.0,2.0;" x1="370.5" x2="1598" y1="833.0508" y2="833.0508"/><text fill="#000000" font-family="sans-serif" font-size="13" font-weight="bold" lengthAdjust="spacing" textLength="18" x="382.5" y="828.3086">24</text><text fill="#000000" font-family="sans-serif" font-size="13" lengthAdjust="spacing" textLength="131" x="404.5" y="828.3086">process state altered</text><polygon fill="#181818" points="82.5,858.3613,72.5,862.3613,82.5,866.3613,78.5,862.3613" style="stroke:#181818;stroke-width:1.0;"/><line style="stroke:#181818;stroke-width:1.0;stroke-dasharray:2.0,2.0;" x1="76.5" x2="359.5" y1="862.3613" y2="862.3613"/><text fill="#000000" font-family="sans-serif" font-size="13" font-weight="bold" lengthAdjust="spacing" textLength="18" x="88.5" y="857.6191">25</text><text fill="#000000" font-family="sans-serif" font-size="13" lengthAdjust="spacing" textLength="173" x="110.5" y="857.6191">operation success message</text><!--SRC=[pLTDZzem4BtdLymHfEKFK8HKSMhLggkYtlPYaW6o6-p8Ta3zzvryGEpuOysAbPe3mh5dtXlxpRF26YruSzgXp3AMQo5XqoWjJYX_CiuExUkQILtcPSsuXisHyGC-Iv6ZKblDTAF-V8FLgfQeaDEu57ozjaAsM66klulThnfvoGyRmRKKLOMIulBRO1BrerHtnuphjoZFPOwqMFN_Q6N1DDinXSQotrWBLLBHVscbl0qcQJqrf_5n0Z4jReZejhNxPx8V9iFKktCipuJc7YNGCta9YtNWL9V0r9i2BI3lvg4-jWHUkEfMWDW3WrUn0z7lPfTznFRbx1bqBBoGn2KYboMeoUHiVaju0mud6D7R9m94D8Bw8n97SHcdbC71uX7AOBDedo0MyN0rJSTILM5yYuCJxOAtZmjY8HjQMyA-vCNNglAW1f37Q3-uJS30MWJAVnrhzoOiy0CiF5iGLq6CXPT1y0J2n_zUEuGu6FXfAeptGa9B2lbC1ZPhqLRZmZLKz6AUZXNneh7Mp5DcIjC7BMVgY7sBAzFROF2y5yvuqVjYkOSBkRLXaDc4LCG2xp3XVeDjl8E07SlVWAxhlP0N9el7c6_ygbiETLhpizeSFGsZ-HVNcAF9ROt4UH3HwnMPG2bWpqE4suxNr8k4_T2omL3dUG5I2xCiLx4pNckALnDpEJVpWoeCWRvJQqJoGwtNfcELHec5h-yJDPKkU8ph7KrjuPDpA65YcAnrJ9QwpUQXGiS7wnp_CvdZfwaSFo1ol4lZZfG2ylPURNIXoUup3LIJTmHEz4EJMPPuVvah9XyO_m00]--></g></svg>