<?xml version="1.0" encoding="us-ascii" standalone="no"?><svg xmlns="http://www.w3.org/2000/svg" xmlns:xlink="http://www.w3.org/1999/xlink" contentStyleType="text/css" height="390px" preserveAspectRatio="none" style="width:817px;height:390px;background:#FFFFFF;" version="1.1" viewBox="0 0 817 390" width="817.6px" zoomAndPan="magnify"><defs/><g><rect fill="#FFFFFF" height="307.3539" style="stroke:#181818;stroke-width:0.4000000000000001;" width="4" x="26.6" y="37.5906"/><rect fill="#FFFFFF" height="128.5664" style="stroke:#181818;stroke-width:0.4000000000000001;" width="4" x="142.2" y="52.2391"/><rect fill="#FFFFFF" height="152.4148" style="stroke:#181818;stroke-width:0.4000000000000001;" width="4" x="142.2" y="192.5297"/><rect fill="#FFFFFF" height="98.9938" style="stroke:#181818;stroke-width:0.4000000000000001;" width="4" x="222.2" y="63.9633"/><rect fill="#FFFFFF" height="58.6211" style="stroke:#181818;stroke-width:0.4000000000000001;" width="4" x="325.8" y="75.6875"/><rect fill="#FFFFFF" height="35.1727" style="stroke:#181818;stroke-width:0.4000000000000001;" width="4" x="396" y="87.4117"/><rect fill="#FFFFFF" height="11.7242" style="stroke:#181818;stroke-width:0.4000000000000001;" width="4" x="460.6" y="99.1359"/><rect fill="#FFFFFF" height="58.6211" style="stroke:#181818;stroke-width:0.4000000000000001;" width="4" x="542.8" y="204.2539"/><rect fill="#FFFFFF" height="58.6211" style="stroke:#181818;stroke-width:0.4000000000000001;" width="4" x="637.6" y="274.5992"/><rect fill="#FFFFFF" height="11.7242" style="stroke:#181818;stroke-width:0.4000000000000001;" width="4" x="742.8" y="215.9781"/><rect fill="#FFFFFF" height="11.7242" style="stroke:#181818;stroke-width:0.4000000000000001;" width="4" x="742.8" y="286.3234"/><rect fill="#FFFFFF" height="11.7242" style="stroke:#181818;stroke-width:0.4000000000000001;" width="4" x="789.2" y="239.4266"/><rect fill="#FFFFFF" height="11.7242" style="stroke:#181818;stroke-width:0.4000000000000001;" width="4" x="789.2" y="309.7719"/><line style="stroke:#181818;stroke-width:0.20000000000000004;stroke-dasharray:5.0,5.0;" x1="28.4" x2="28.4" y1="33.5906" y2="352.1445"/><line style="stroke:#181818;stroke-width:0.20000000000000004;stroke-dasharray:5.0,5.0;" x1="144" x2="144" y1="33.5906" y2="352.1445"/><line style="stroke:#181818;stroke-width:0.20000000000000004;stroke-dasharray:5.0,5.0;" x1="224" x2="224" y1="33.5906" y2="352.1445"/><line style="stroke:#181818;stroke-width:0.20000000000000004;stroke-dasharray:5.0,5.0;" x1="327.8" x2="327.8" y1="33.5906" y2="352.1445"/><line style="stroke:#181818;stroke-width:0.20000000000000004;stroke-dasharray:5.0,5.0;" x1="397.8" x2="397.8" y1="33.5906" y2="352.1445"/><line style="stroke:#181818;stroke-width:0.20000000000000004;stroke-dasharray:5.0,5.0;" x1="462.6" x2="462.6" y1="33.5906" y2="352.1445"/><line style="stroke:#181818;stroke-width:0.20000000000000004;stroke-dasharray:5.0,5.0;" x1="544.6" x2="544.6" y1="33.5906" y2="352.1445"/><line style="stroke:#181818;stroke-width:0.20000000000000004;stroke-dasharray:5.0,5.0;" x1="639.4" x2="639.4" y1="33.5906" y2="352.1445"/><line style="stroke:#181818;stroke-width:0.20000000000000004;stroke-dasharray:5.0,5.0;" x1="744.6" x2="744.6" y1="33.5906" y2="352.1445"/><line style="stroke:#181818;stroke-width:0.20000000000000004;stroke-dasharray:5.0,5.0;" x1="791" x2="791" y1="33.5906" y2="352.1445"/><text fill="#000000" font-family="sans-serif" font-size="5.6" lengthAdjust="spacing" textLength="50.8" x="2" y="32.4094">CustomerManager</text><ellipse cx="28.6" cy="6.3953" fill="#E2E2F0" rx="3.2" ry="3.2" style="stroke:#181818;stroke-width:0.20000000000000004;"/><path d="M28.6,9.5953 L28.6,20.3953 M23.4,12.7953 L33.8,12.7953 M28.6,20.3953 L23.4,26.3953 M28.6,20.3953 L33.8,26.3953 " fill="none" style="stroke:#181818;stroke-width:0.20000000000000004;"/><text fill="#000000" font-family="sans-serif" font-size="5.6" lengthAdjust="spacing" textLength="50.8" x="2" y="357.1586">CustomerManager</text><ellipse cx="28.6" cy="361.7398" fill="#E2E2F0" rx="3.2" ry="3.2" style="stroke:#181818;stroke-width:0.20000000000000004;"/><path d="M28.6,364.9398 L28.6,375.7398 M23.4,368.1398 L33.8,368.1398 M28.6,375.7398 L23.4,381.7398 M28.6,375.7398 L33.8,381.7398 " fill="none" style="stroke:#181818;stroke-width:0.20000000000000004;"/><rect fill="#E2E2F0" height="18.7906" rx="1" ry="1" style="stroke:#181818;stroke-width:0.20000000000000004;" width="70" x="109.2" y="14.4"/><text fill="#000000" font-family="sans-serif" font-size="5.6" font-style="italic" lengthAdjust="spacing" textLength="40.4" x="124" y="22.6141">&#171;presentation&#187;</text><text fill="#000000" font-family="sans-serif" font-size="5.6" lengthAdjust="spacing" textLength="64.4" x="112" y="29.2094">ChangeProcessStatusUI</text><rect fill="#E2E2F0" height="18.7906" rx="1" ry="1" style="stroke:#181818;stroke-width:0.20000000000000004;" width="70" x="109.2" y="351.7445"/><text fill="#000000" font-family="sans-serif" font-size="5.6" font-style="italic" lengthAdjust="spacing" textLength="40.4" x="124" y="359.9586">&#171;presentation&#187;</text><text fill="#000000" font-family="sans-serif" font-size="5.6" lengthAdjust="spacing" textLength="64.4" x="112" y="366.5539">ChangeProcessStatusUI</text><rect fill="#E2E2F0" height="18.7906" rx="1" ry="1" style="stroke:#181818;stroke-width:0.20000000000000004;" width="82" x="183.2" y="14.4"/><text fill="#000000" font-family="sans-serif" font-size="5.6" font-style="italic" lengthAdjust="spacing" textLength="32.4" x="208" y="22.6141">&#171;controller&#187;</text><text fill="#000000" font-family="sans-serif" font-size="5.6" lengthAdjust="spacing" textLength="76.4" x="186" y="29.2094">SelectJobOpeningController</text><rect fill="#E2E2F0" height="18.7906" rx="1" ry="1" style="stroke:#181818;stroke-width:0.20000000000000004;" width="82" x="183.2" y="351.7445"/><text fill="#000000" font-family="sans-serif" font-size="5.6" font-style="italic" lengthAdjust="spacing" textLength="32.4" x="208" y="359.9586">&#171;controller&#187;</text><text fill="#000000" font-family="sans-serif" font-size="5.6" lengthAdjust="spacing" textLength="76.4" x="186" y="366.5539">SelectJobOpeningController</text><rect fill="#E2E2F0" height="18.7906" rx="1" ry="1" style="stroke:#181818;stroke-width:0.20000000000000004;" width="75.2" x="290.2" y="14.4"/><text fill="#000000" font-family="sans-serif" font-size="5.6" font-style="italic" lengthAdjust="spacing" textLength="32.4" x="311.6" y="22.6141">&#171;controller&#187;</text><text fill="#000000" font-family="sans-serif" font-size="5.6" lengthAdjust="spacing" textLength="69.6" x="293" y="29.2094">ListJobOpeningController</text><rect fill="#E2E2F0" height="18.7906" rx="1" ry="1" style="stroke:#181818;stroke-width:0.20000000000000004;" width="75.2" x="290.2" y="351.7445"/><text fill="#000000" font-family="sans-serif" font-size="5.6" font-style="italic" lengthAdjust="spacing" textLength="32.4" x="311.6" y="359.9586">&#171;controller&#187;</text><text fill="#000000" font-family="sans-serif" font-size="5.6" lengthAdjust="spacing" textLength="69.6" x="293" y="366.5539">ListJobOpeningController</text><rect fill="#E2E2F0" height="18.7906" rx="1" ry="1" style="stroke:#181818;stroke-width:0.20000000000000004;" width="57.2" x="369.4" y="14.4"/><text fill="#000000" font-family="sans-serif" font-size="5.6" font-style="italic" lengthAdjust="spacing" textLength="24.4" x="385.8" y="22.6141">&#171;service&#187;</text><text fill="#000000" font-family="sans-serif" font-size="5.6" lengthAdjust="spacing" textLength="51.6" x="372.2" y="29.2094">JobOpeningService</text><rect fill="#E2E2F0" height="18.7906" rx="1" ry="1" style="stroke:#181818;stroke-width:0.20000000000000004;" width="57.2" x="369.4" y="351.7445"/><text fill="#000000" font-family="sans-serif" font-size="5.6" font-style="italic" lengthAdjust="spacing" textLength="24.4" x="385.8" y="359.9586">&#171;service&#187;</text><text fill="#000000" font-family="sans-serif" font-size="5.6" lengthAdjust="spacing" textLength="51.6" x="372.2" y="366.5539">JobOpeningService</text><text fill="#000000" font-family="sans-serif" font-size="5.6" font-style="italic" lengthAdjust="spacing" textLength="33.6" x="444.6" y="25.8141">&#171;repository&#187;</text><text fill="#000000" font-family="sans-serif" font-size="5.6" lengthAdjust="spacing" textLength="61.6" x="430.6" y="32.4094">JobOpeningRepository</text><path d="M455.4,6 C455.4,2 462.6,2 462.6,2 C462.6,2 469.8,2 469.8,6 L469.8,16.4 C469.8,20.4 462.6,20.4 462.6,20.4 C462.6,20.4 455.4,20.4 455.4,16.4 L455.4,6 " fill="#E2E2F0" style="stroke:#181818;stroke-width:0.6000000000000001;"/><path d="M455.4,6 C455.4,10 462.6,10 462.6,10 C462.6,10 469.8,10 469.8,6 " fill="none" style="stroke:#181818;stroke-width:0.6000000000000001;"/><text fill="#000000" font-family="sans-serif" font-size="5.6" font-style="italic" lengthAdjust="spacing" textLength="33.6" x="444.6" y="357.1586">&#171;repository&#187;</text><text fill="#000000" font-family="sans-serif" font-size="5.6" lengthAdjust="spacing" textLength="61.6" x="430.6" y="363.7539">JobOpeningRepository</text><path d="M455.4,368.9352 C455.4,364.9352 462.6,364.9352 462.6,364.9352 C462.6,364.9352 469.8,364.9352 469.8,368.9352 L469.8,379.3352 C469.8,383.3352 462.6,383.3352 462.6,383.3352 C462.6,383.3352 455.4,383.3352 455.4,379.3352 L455.4,368.9352 " fill="#E2E2F0" style="stroke:#181818;stroke-width:0.6000000000000001;"/><path d="M455.4,368.9352 C455.4,372.9352 462.6,372.9352 462.6,372.9352 C462.6,372.9352 469.8,372.9352 469.8,368.9352 " fill="none" style="stroke:#181818;stroke-width:0.6000000000000001;"/><rect fill="#E2E2F0" height="18.7906" rx="1" ry="1" style="stroke:#181818;stroke-width:0.20000000000000004;" width="92.4" x="498.6" y="14.4"/><text fill="#000000" font-family="sans-serif" font-size="5.6" font-style="italic" lengthAdjust="spacing" textLength="32.4" x="528.6" y="22.6141">&#171;controller&#187;</text><text fill="#000000" font-family="sans-serif" font-size="5.6" lengthAdjust="spacing" textLength="86.8" x="501.4" y="29.2094">ChangeProcessStatusController</text><rect fill="#E2E2F0" height="18.7906" rx="1" ry="1" style="stroke:#181818;stroke-width:0.20000000000000004;" width="92.4" x="498.6" y="351.7445"/><text fill="#000000" font-family="sans-serif" font-size="5.6" font-style="italic" lengthAdjust="spacing" textLength="32.4" x="528.6" y="359.9586">&#171;controller&#187;</text><text fill="#000000" font-family="sans-serif" font-size="5.6" lengthAdjust="spacing" textLength="86.8" x="501.4" y="366.5539">ChangeProcessStatusController</text><rect fill="#E2E2F0" height="18.7906" rx="1" ry="1" style="stroke:#181818;stroke-width:0.20000000000000004;" width="89.2" x="595" y="14.4"/><text fill="#000000" font-family="sans-serif" font-size="5.6" font-style="italic" lengthAdjust="spacing" textLength="32.4" x="623.4" y="22.6141">&#171;controller&#187;</text><text fill="#000000" font-family="sans-serif" font-size="5.6" lengthAdjust="spacing" textLength="83.6" x="597.8" y="29.2094">ChangeProcessStateController</text><rect fill="#E2E2F0" height="18.7906" rx="1" ry="1" style="stroke:#181818;stroke-width:0.20000000000000004;" width="89.2" x="595" y="351.7445"/><text fill="#000000" font-family="sans-serif" font-size="5.6" font-style="italic" lengthAdjust="spacing" textLength="32.4" x="623.4" y="359.9586">&#171;controller&#187;</text><text fill="#000000" font-family="sans-serif" font-size="5.6" lengthAdjust="spacing" textLength="83.6" x="597.8" y="366.5539">ChangeProcessStateController</text><rect fill="#E2E2F0" height="18.7906" rx="1" ry="1" style="stroke:#181818;stroke-width:0.20000000000000004;" width="32.4" x="728.6" y="14.4"/><text fill="#000000" font-family="sans-serif" font-size="5.6" font-style="italic" lengthAdjust="spacing" textLength="26.8" x="731.4" y="22.6141">&#171;process&#187;</text><text fill="#000000" font-family="sans-serif" font-size="5.6" lengthAdjust="spacing" textLength="20.8" x="734.4" y="29.2094">Process</text><rect fill="#E2E2F0" height="18.7906" rx="1" ry="1" style="stroke:#181818;stroke-width:0.20000000000000004;" width="32.4" x="728.6" y="351.7445"/><text fill="#000000" font-family="sans-serif" font-size="5.6" font-style="italic" lengthAdjust="spacing" textLength="26.8" x="731.4" y="359.9586">&#171;process&#187;</text><text fill="#000000" font-family="sans-serif" font-size="5.6" lengthAdjust="spacing" textLength="20.8" x="734.4" y="366.5539">Process</text><text fill="#000000" font-family="sans-serif" font-size="5.6" font-style="italic" lengthAdjust="spacing" textLength="33.6" x="773.2" y="25.8141">&#171;repository&#187;</text><text fill="#000000" font-family="sans-serif" font-size="5.6" lengthAdjust="spacing" textLength="50" x="765" y="32.4094">ProcessRepository</text><path d="M784,6 C784,2 791.2,2 791.2,2 C791.2,2 798.4,2 798.4,6 L798.4,16.4 C798.4,20.4 791.2,20.4 791.2,20.4 C791.2,20.4 784,20.4 784,16.4 L784,6 " fill="#E2E2F0" style="stroke:#181818;stroke-width:0.6000000000000001;"/><path d="M784,6 C784,10 791.2,10 791.2,10 C791.2,10 798.4,10 798.4,6 " fill="none" style="stroke:#181818;stroke-width:0.6000000000000001;"/><text fill="#000000" font-family="sans-serif" font-size="5.6" font-style="italic" lengthAdjust="spacing" textLength="33.6" x="773.2" y="357.1586">&#171;repository&#187;</text><text fill="#000000" font-family="sans-serif" font-size="5.6" lengthAdjust="spacing" textLength="50" x="765" y="363.7539">ProcessRepository</text><path d="M784,368.9352 C784,364.9352 791.2,364.9352 791.2,364.9352 C791.2,364.9352 798.4,364.9352 798.4,368.9352 L798.4,379.3352 C798.4,383.3352 791.2,383.3352 791.2,383.3352 C791.2,383.3352 784,383.3352 784,379.3352 L784,368.9352 " fill="#E2E2F0" style="stroke:#181818;stroke-width:0.6000000000000001;"/><path d="M784,368.9352 C784,372.9352 791.2,372.9352 791.2,372.9352 C791.2,372.9352 798.4,372.9352 798.4,368.9352 " fill="none" style="stroke:#181818;stroke-width:0.6000000000000001;"/><rect fill="#FFFFFF" height="307.3539" style="stroke:#181818;stroke-width:0.4000000000000001;" width="4" x="26.6" y="37.5906"/><rect fill="#FFFFFF" height="128.5664" style="stroke:#181818;stroke-width:0.4000000000000001;" width="4" x="142.2" y="52.2391"/><rect fill="#FFFFFF" height="152.4148" style="stroke:#181818;stroke-width:0.4000000000000001;" width="4" x="142.2" y="192.5297"/><rect fill="#FFFFFF" height="98.9938" style="stroke:#181818;stroke-width:0.4000000000000001;" width="4" x="222.2" y="63.9633"/><rect fill="#FFFFFF" height="58.6211" style="stroke:#181818;stroke-width:0.4000000000000001;" width="4" x="325.8" y="75.6875"/><rect fill="#FFFFFF" height="35.1727" style="stroke:#181818;stroke-width:0.4000000000000001;" width="4" x="396" y="87.4117"/><rect fill="#FFFFFF" height="11.7242" style="stroke:#181818;stroke-width:0.4000000000000001;" width="4" x="460.6" y="99.1359"/><rect fill="#FFFFFF" height="58.6211" style="stroke:#181818;stroke-width:0.4000000000000001;" width="4" x="542.8" y="204.2539"/><rect fill="#FFFFFF" height="58.6211" style="stroke:#181818;stroke-width:0.4000000000000001;" width="4" x="637.6" y="274.5992"/><rect fill="#FFFFFF" height="11.7242" style="stroke:#181818;stroke-width:0.4000000000000001;" width="4" x="742.8" y="215.9781"/><rect fill="#FFFFFF" height="11.7242" style="stroke:#181818;stroke-width:0.4000000000000001;" width="4" x="742.8" y="286.3234"/><rect fill="#FFFFFF" height="11.7242" style="stroke:#181818;stroke-width:0.4000000000000001;" width="4" x="789.2" y="239.4266"/><rect fill="#FFFFFF" height="11.7242" style="stroke:#181818;stroke-width:0.4000000000000001;" width="4" x="789.2" y="309.7719"/><polygon fill="#181818" points="137.4,50.6391,141.4,52.2391,137.4,53.8391,139,52.2391" style="stroke:#181818;stroke-width:0.4000000000000001;"/><line style="stroke:#181818;stroke-width:0.4000000000000001;" x1="30.6" x2="139.8" y1="52.2391" y2="52.2391"/><text fill="#000000" font-family="sans-serif" font-size="5.2" font-weight="bold" lengthAdjust="spacing" textLength="3.6" x="33.4" y="47.2801">1</text><text fill="#000000" font-family="sans-serif" font-size="5.2" lengthAdjust="spacing" textLength="54.4" x="38.6" y="44.218">asks to change phase</text><text fill="#000000" font-family="sans-serif" font-size="5.2" lengthAdjust="spacing" textLength="58.4" x="38.6" y="50.3422">status of a job opening</text><polygon fill="#181818" points="217.4,62.3633,221.4,63.9633,217.4,65.5633,219,63.9633" style="stroke:#181818;stroke-width:0.4000000000000001;"/><line style="stroke:#181818;stroke-width:0.4000000000000001;" x1="146.2" x2="219.8" y1="63.9633" y2="63.9633"/><text fill="#000000" font-family="sans-serif" font-size="5.2" font-weight="bold" lengthAdjust="spacing" textLength="3.6" x="149" y="62.0664">2</text><text fill="#000000" font-family="sans-serif" font-size="5.2" lengthAdjust="spacing" textLength="47.2" x="154.2" y="62.0664">selectJobOpening()</text><polygon fill="#181818" points="321,74.0875,325,75.6875,321,77.2875,322.6,75.6875" style="stroke:#181818;stroke-width:0.4000000000000001;"/><line style="stroke:#181818;stroke-width:0.4000000000000001;" x1="226.2" x2="323.4" y1="75.6875" y2="75.6875"/><text fill="#000000" font-family="sans-serif" font-size="5.2" font-weight="bold" lengthAdjust="spacing" textLength="3.6" x="229" y="73.7906">3</text><text fill="#000000" font-family="sans-serif" font-size="5.2" lengthAdjust="spacing" textLength="48.4" x="234.2" y="73.7906">showJobOpenings()</text><polygon fill="#181818" points="391.2,85.8117,395.2,87.4117,391.2,89.0117,392.8,87.4117" style="stroke:#181818;stroke-width:0.4000000000000001;"/><line style="stroke:#181818;stroke-width:0.4000000000000001;" x1="329.8" x2="393.6" y1="87.4117" y2="87.4117"/><text fill="#000000" font-family="sans-serif" font-size="5.2" font-weight="bold" lengthAdjust="spacing" textLength="3.6" x="332.6" y="85.5148">4</text><text fill="#000000" font-family="sans-serif" font-size="5.2" lengthAdjust="spacing" textLength="41.2" x="337.8" y="85.5148">allJobOpenings()</text><polygon fill="#181818" points="455.8,97.5359,459.8,99.1359,455.8,100.7359,457.4,99.1359" style="stroke:#181818;stroke-width:0.4000000000000001;"/><line style="stroke:#181818;stroke-width:0.4000000000000001;" x1="400" x2="458.2" y1="99.1359" y2="99.1359"/><text fill="#000000" font-family="sans-serif" font-size="5.2" font-weight="bold" lengthAdjust="spacing" textLength="3.6" x="402.8" y="97.2391">5</text><text fill="#000000" font-family="sans-serif" font-size="5.2" lengthAdjust="spacing" textLength="20" x="408" y="97.2391">findAll()</text><polygon fill="#181818" points="404.4,109.2602,400.4,110.8602,404.4,112.4602,402.8,110.8602" style="stroke:#181818;stroke-width:0.4000000000000001;"/><line style="stroke:#181818;stroke-width:0.4000000000000001;stroke-dasharray:2.0,2.0;" x1="402" x2="462.2" y1="110.8602" y2="110.8602"/><text fill="#000000" font-family="sans-serif" font-size="5.2" font-weight="bold" lengthAdjust="spacing" textLength="3.6" x="406.8" y="108.9633">6</text><text fill="#000000" font-family="sans-serif" font-size="5.2" lengthAdjust="spacing" textLength="32" x="412" y="108.9633">jobOpenings</text><polygon fill="#181818" points="334.2,120.9844,330.2,122.5844,334.2,124.1844,332.6,122.5844" style="stroke:#181818;stroke-width:0.4000000000000001;"/><line style="stroke:#181818;stroke-width:0.4000000000000001;stroke-dasharray:2.0,2.0;" x1="331.8" x2="397.6" y1="122.5844" y2="122.5844"/><text fill="#000000" font-family="sans-serif" font-size="5.2" font-weight="bold" lengthAdjust="spacing" textLength="3.6" x="336.6" y="120.6875">7</text><text fill="#000000" font-family="sans-serif" font-size="5.2" lengthAdjust="spacing" textLength="32" x="341.8" y="120.6875">jobOpenings</text><polygon fill="#181818" points="230.6,132.7086,226.6,134.3086,230.6,135.9086,229,134.3086" style="stroke:#181818;stroke-width:0.4000000000000001;"/><line style="stroke:#181818;stroke-width:0.4000000000000001;stroke-dasharray:2.0,2.0;" x1="228.2" x2="327.4" y1="134.3086" y2="134.3086"/><text fill="#000000" font-family="sans-serif" font-size="5.2" font-weight="bold" lengthAdjust="spacing" textLength="3.6" x="233" y="132.4117">8</text><text fill="#000000" font-family="sans-serif" font-size="5.2" lengthAdjust="spacing" textLength="32" x="238.2" y="132.4117">jobOpenings</text><line style="stroke:#181818;stroke-width:0.4000000000000001;stroke-dasharray:2.0,2.0;" x1="226.2" x2="243" y1="146.0328" y2="146.0328"/><line style="stroke:#181818;stroke-width:0.4000000000000001;stroke-dasharray:2.0,2.0;" x1="243" x2="243" y1="146.0328" y2="151.2328"/><line style="stroke:#181818;stroke-width:0.4000000000000001;stroke-dasharray:2.0,2.0;" x1="226.6" x2="243" y1="151.2328" y2="151.2328"/><polygon fill="#181818" points="230.6,149.6328,226.6,151.2328,230.6,152.8328,229,151.2328" style="stroke:#181818;stroke-width:0.4000000000000001;"/><text fill="#000000" font-family="sans-serif" font-size="5.2" font-weight="bold" lengthAdjust="spacing" textLength="3.6" x="229" y="144.1359">9</text><text fill="#000000" font-family="sans-serif" font-size="5.2" lengthAdjust="spacing" textLength="88.8" x="234.2" y="144.1359">selectorPart(List&lt;JobOpening&gt; list)</text><polygon fill="#181818" points="150.6,161.357,146.6,162.957,150.6,164.557,149,162.957" style="stroke:#181818;stroke-width:0.4000000000000001;"/><line style="stroke:#181818;stroke-width:0.4000000000000001;stroke-dasharray:2.0,2.0;" x1="148.2" x2="223.8" y1="162.957" y2="162.957"/><text fill="#000000" font-family="sans-serif" font-size="5.2" font-weight="bold" lengthAdjust="spacing" textLength="7.2" x="153" y="161.0602">10</text><text fill="#000000" font-family="sans-serif" font-size="5.2" lengthAdjust="spacing" textLength="29.2" x="161.8" y="161.0602">jobOpening</text><polygon fill="#181818" points="35,179.2055,31,180.8055,35,182.4055,33.4,180.8055" style="stroke:#181818;stroke-width:0.4000000000000001;"/><line style="stroke:#181818;stroke-width:0.4000000000000001;" x1="32.6" x2="143.8" y1="180.8055" y2="180.8055"/><text fill="#000000" font-family="sans-serif" font-size="5.2" font-weight="bold" lengthAdjust="spacing" textLength="7.2" x="37.4" y="175.8465">11</text><text fill="#000000" font-family="sans-serif" font-size="5.2" lengthAdjust="spacing" textLength="64.8" x="46.2" y="172.7844">shows job opening status</text><text fill="#000000" font-family="sans-serif" font-size="5.2" lengthAdjust="spacing" textLength="70.4" x="46.2" y="178.9086">and asks if wants to change</text><polygon fill="#181818" points="137.4,190.9297,141.4,192.5297,137.4,194.1297,139,192.5297" style="stroke:#181818;stroke-width:0.4000000000000001;"/><line style="stroke:#181818;stroke-width:0.4000000000000001;" x1="30.6" x2="139.8" y1="192.5297" y2="192.5297"/><text fill="#000000" font-family="sans-serif" font-size="5.2" font-weight="bold" lengthAdjust="spacing" textLength="7.2" x="33.4" y="190.6328">12</text><text fill="#000000" font-family="sans-serif" font-size="5.2" lengthAdjust="spacing" textLength="95.2" x="42.2" y="190.6328">selects if wants to go back or forward</text><polygon fill="#181818" points="538,202.6539,542,204.2539,538,205.8539,539.6,204.2539" style="stroke:#181818;stroke-width:0.4000000000000001;"/><line style="stroke:#181818;stroke-width:0.4000000000000001;" x1="146.2" x2="540.4" y1="204.2539" y2="204.2539"/><text fill="#000000" font-family="sans-serif" font-size="5.2" font-weight="bold" lengthAdjust="spacing" textLength="7.2" x="149" y="202.357">13</text><text fill="#000000" font-family="sans-serif" font-size="5.2" lengthAdjust="spacing" textLength="114" x="157.8" y="202.357">changeProcessStatus(processStatus,process);</text><polygon fill="#181818" points="738,214.3781,742,215.9781,738,217.5781,739.6,215.9781" style="stroke:#181818;stroke-width:0.4000000000000001;"/><line style="stroke:#181818;stroke-width:0.4000000000000001;" x1="546.8" x2="740.4" y1="215.9781" y2="215.9781"/><text fill="#000000" font-family="sans-serif" font-size="5.2" font-weight="bold" lengthAdjust="spacing" textLength="7.2" x="549.6" y="214.0813">14</text><text fill="#000000" font-family="sans-serif" font-size="5.2" lengthAdjust="spacing" textLength="91.2" x="558.4" y="214.0813">changeProcessStatus(processStatus)</text><polygon fill="#181818" points="551.2,226.1023,547.2,227.7023,551.2,229.3023,549.6,227.7023" style="stroke:#181818;stroke-width:0.4000000000000001;"/><line style="stroke:#181818;stroke-width:0.4000000000000001;stroke-dasharray:2.0,2.0;" x1="548.8" x2="744.4" y1="227.7023" y2="227.7023"/><text fill="#000000" font-family="sans-serif" font-size="5.2" font-weight="bold" lengthAdjust="spacing" textLength="7.2" x="553.6" y="225.8055">15</text><text fill="#000000" font-family="sans-serif" font-size="5.2" lengthAdjust="spacing" textLength="10" x="562.4" y="225.8055">true</text><polygon fill="#181818" points="784.4,237.8266,788.4,239.4266,784.4,241.0266,786,239.4266" style="stroke:#181818;stroke-width:0.4000000000000001;"/><line style="stroke:#181818;stroke-width:0.4000000000000001;" x1="546.8" x2="786.8" y1="239.4266" y2="239.4266"/><text fill="#000000" font-family="sans-serif" font-size="5.2" font-weight="bold" lengthAdjust="spacing" textLength="7.2" x="549.6" y="237.5297">16</text><text fill="#000000" font-family="sans-serif" font-size="5.2" lengthAdjust="spacing" textLength="34" x="558.4" y="237.5297">save(process)</text><polygon fill="#181818" points="551.2,249.5508,547.2,251.1508,551.2,252.7508,549.6,251.1508" style="stroke:#181818;stroke-width:0.4000000000000001;"/><line style="stroke:#181818;stroke-width:0.4000000000000001;stroke-dasharray:2.0,2.0;" x1="548.8" x2="790.8" y1="251.1508" y2="251.1508"/><text fill="#000000" font-family="sans-serif" font-size="5.2" font-weight="bold" lengthAdjust="spacing" textLength="7.2" x="553.6" y="249.2539">17</text><text fill="#000000" font-family="sans-serif" font-size="5.2" lengthAdjust="spacing" textLength="10" x="562.4" y="249.2539">true</text><polygon fill="#181818" points="150.6,261.275,146.6,262.875,150.6,264.475,149,262.875" style="stroke:#181818;stroke-width:0.4000000000000001;"/><line style="stroke:#181818;stroke-width:0.4000000000000001;stroke-dasharray:2.0,2.0;" x1="148.2" x2="544.4" y1="262.875" y2="262.875"/><text fill="#000000" font-family="sans-serif" font-size="5.2" font-weight="bold" lengthAdjust="spacing" textLength="7.2" x="153" y="260.9781">18</text><text fill="#000000" font-family="sans-serif" font-size="5.2" lengthAdjust="spacing" textLength="55.6" x="161.8" y="260.9781">process status altered</text><polygon fill="#181818" points="632.8,272.9992,636.8,274.5992,632.8,276.1992,634.4,274.5992" style="stroke:#181818;stroke-width:0.4000000000000001;"/><line style="stroke:#181818;stroke-width:0.4000000000000001;" x1="146.2" x2="635.2" y1="274.5992" y2="274.5992"/><text fill="#000000" font-family="sans-serif" font-size="5.2" font-weight="bold" lengthAdjust="spacing" textLength="7.2" x="149" y="272.7023">19</text><text fill="#000000" font-family="sans-serif" font-size="5.2" lengthAdjust="spacing" textLength="106" x="157.8" y="272.7023">changeProcessState(processState,process)</text><polygon fill="#181818" points="738,284.7234,742,286.3234,738,287.9234,739.6,286.3234" style="stroke:#181818;stroke-width:0.4000000000000001;"/><line style="stroke:#181818;stroke-width:0.4000000000000001;" x1="641.6" x2="740.4" y1="286.3234" y2="286.3234"/><text fill="#000000" font-family="sans-serif" font-size="5.2" font-weight="bold" lengthAdjust="spacing" textLength="7.2" x="644.4" y="284.4266">20</text><text fill="#000000" font-family="sans-serif" font-size="5.2" lengthAdjust="spacing" textLength="84.8" x="653.2" y="284.4266">changeProcessState(processState)</text><polygon fill="#181818" points="646,296.4477,642,298.0477,646,299.6477,644.4,298.0477" style="stroke:#181818;stroke-width:0.4000000000000001;"/><line style="stroke:#181818;stroke-width:0.4000000000000001;stroke-dasharray:2.0,2.0;" x1="643.6" x2="744.4" y1="298.0477" y2="298.0477"/><text fill="#000000" font-family="sans-serif" font-size="5.2" font-weight="bold" lengthAdjust="spacing" textLength="7.2" x="648.4" y="296.1508">21</text><text fill="#000000" font-family="sans-serif" font-size="5.2" lengthAdjust="spacing" textLength="10" x="657.2" y="296.1508">true</text><polygon fill="#181818" points="784.4,308.1719,788.4,309.7719,784.4,311.3719,786,309.7719" style="stroke:#181818;stroke-width:0.4000000000000001;"/><line style="stroke:#181818;stroke-width:0.4000000000000001;" x1="641.6" x2="786.8" y1="309.7719" y2="309.7719"/><text fill="#000000" font-family="sans-serif" font-size="5.2" font-weight="bold" lengthAdjust="spacing" textLength="7.2" x="644.4" y="307.875">22</text><text fill="#000000" font-family="sans-serif" font-size="5.2" lengthAdjust="spacing" textLength="34" x="653.2" y="307.875">save(process)</text><polygon fill="#181818" points="646,319.8961,642,321.4961,646,323.0961,644.4,321.4961" style="stroke:#181818;stroke-width:0.4000000000000001;"/><line style="stroke:#181818;stroke-width:0.4000000000000001;stroke-dasharray:2.0,2.0;" x1="643.6" x2="790.8" y1="321.4961" y2="321.4961"/><text fill="#000000" font-family="sans-serif" font-size="5.2" font-weight="bold" lengthAdjust="spacing" textLength="7.2" x="648.4" y="319.5992">23</text><text fill="#000000" font-family="sans-serif" font-size="5.2" lengthAdjust="spacing" textLength="10" x="657.2" y="319.5992">true</text><polygon fill="#181818" points="150.6,331.6203,146.6,333.2203,150.6,334.8203,149,333.2203" style="stroke:#181818;stroke-width:0.4000000000000001;"/><line style="stroke:#181818;stroke-width:0.4000000000000001;stroke-dasharray:2.0,2.0;" x1="148.2" x2="639.2" y1="333.2203" y2="333.2203"/><text fill="#000000" font-family="sans-serif" font-size="5.2" font-weight="bold" lengthAdjust="spacing" textLength="7.2" x="153" y="331.3234">24</text><text fill="#000000" font-family="sans-serif" font-size="5.2" lengthAdjust="spacing" textLength="52.4" x="161.8" y="331.3234">process state altered</text><polygon fill="#181818" points="33,343.3445,29,344.9445,33,346.5445,31.4,344.9445" style="stroke:#181818;stroke-width:0.4000000000000001;"/><line style="stroke:#181818;stroke-width:0.4000000000000001;stroke-dasharray:2.0,2.0;" x1="30.6" x2="143.8" y1="344.9445" y2="344.9445"/><text fill="#000000" font-family="sans-serif" font-size="5.2" font-weight="bold" lengthAdjust="spacing" textLength="7.2" x="35.4" y="343.0477">25</text><text fill="#000000" font-family="sans-serif" font-size="5.2" lengthAdjust="spacing" textLength="69.2" x="44.2" y="343.0477">operation success message</text><!--SRC=[pLTDZziW4BtxLymnaJP_88qYLJcrQjNLHdlR2xOdYNSTi00dwh_l-2CnsC3YDeToi8oPcVS6tWmogxNWzJb5cIGiqqB2hbPQd57-P9mTcyyLaxh8Yefn3RiJuqTybY93fVQQwLgzVeFDffAeaDEy47oxjLpsM6AclulqLuMyuCUTu5gAiaH9VjbzClBwKQZPFeFz7kMbo92CLVT6bZdJB6KA3RCNh8GgAEdVP2dlar5OHyvnV2QE6EVNUxJRshwPxFj5F_Ns78iBeKsF4cYCFi9gwpdLDJ3reK0BoDfrg4uDWJUkMWiG1s3mBb8GtMwsqGTiLyoEGSl22KbS0d9PWnejBfRtW7TWVu01lHa18ABXrH-HE8dhiAGC3XOFNmIRHJEyMCHZgcawbhBquriS9jvJy6PCGInaGsjhE1Gy_rgM3bGFyk3j1hS965WhJ_hlG-xEW3d-1Gl75eHL46BXPE0z0V_nVrOEFWu6VfmAGxKGLvD2FbC7MpHmcy5m2oLzMCu2ypMZ8Td4aMTCrNjxphWbTZMkpEO6VTDxuupdNMCi3d2bTcrqo6H4Aj03PtJXReDjlAE0b6KVGFVrGSWha_bZkc_uhbltULhhYygSFVMpvPTfPmu6jpKIva54RtTa12LFV-uzflLu2xsAs0yjQ_ILdXCWDZ6hvofsmLjEuMn2RMuQ-K4P-a0_oJKW-JxNMz6nKgF4t5NtaPgA5po6zOwcjl1fSYX-OXYjTOoMkitceKB71-iS_pEPup-el36OaMsaq76MpaqvtUoJWDITrnnTRhBzPmDLPosHCpreCKaYxpBJOlItyGS0]--></g></svg>