<?xml version="1.0" encoding="us-ascii" standalone="no"?><svg xmlns="http://www.w3.org/2000/svg" xmlns:xlink="http://www.w3.org/1999/xlink" contentStyleType="text/css" height="485px" preserveAspectRatio="none" style="width:448px;height:485px;background:#FFFFFF;" version="1.1" viewBox="0 0 448 485" width="448px" zoomAndPan="magnify"><defs/><g><text fill="#000000" font-family="sans-serif" font-size="14" font-weight="bold" lengthAdjust="spacing" textLength="391" x="27.75" y="28.5352">System Sequence Diagram (SSD) - Ranking candidates</text><rect fill="#FFFFFF" height="257.1055" style="stroke:#181818;stroke-width:1.0;" width="10" x="68.5" y="128.9766"/><rect fill="#FFFFFF" height="29.3105" style="stroke:#181818;stroke-width:1.0;" width="10" x="404.5" y="150.2871"/><rect fill="#FFFFFF" height="44.6211" style="stroke:#181818;stroke-width:1.0;" width="10" x="404.5" y="208.9082"/><rect fill="#FFFFFF" height="44.6211" style="stroke:#181818;stroke-width:1.0;" width="10" x="404.5" y="282.8398"/><rect fill="#FFFFFF" height="29.3105" style="stroke:#181818;stroke-width:1.0;" width="10" x="404.5" y="356.7715"/><line style="stroke:#181818;stroke-width:0.5;stroke-dasharray:5.0,5.0;" x1="73" x2="73" y1="118.9766" y2="404.082"/><line style="stroke:#181818;stroke-width:0.5;stroke-dasharray:5.0,5.0;" x1="409.5" x2="409.5" y1="118.9766" y2="404.082"/><text fill="#000000" font-family="sans-serif" font-size="14" lengthAdjust="spacing" textLength="131" x="5" y="116.0234">Customer Manager</text><ellipse cx="73.5" cy="50.9883" fill="#E3E3E3" rx="8" ry="8" style="stroke:#181818;stroke-width:0.5;"/><path d="M73.5,58.9883 L73.5,85.9883 M60.5,66.9883 L86.5,66.9883 M73.5,85.9883 L60.5,100.9883 M73.5,85.9883 L86.5,100.9883 " fill="none" style="stroke:#181818;stroke-width:0.5;"/><text fill="#000000" font-family="sans-serif" font-size="14" lengthAdjust="spacing" textLength="131" x="5" y="416.6172">Customer Manager</text><ellipse cx="73.5" cy="428.0703" fill="#E3E3E3" rx="8" ry="8" style="stroke:#181818;stroke-width:0.5;"/><path d="M73.5,436.0703 L73.5,463.0703 M60.5,444.0703 L86.5,444.0703 M73.5,463.0703 L60.5,478.0703 M73.5,463.0703 L86.5,478.0703 " fill="none" style="stroke:#181818;stroke-width:0.5;"/><rect fill="#E3E3E3" height="30.4883" rx="2.5" ry="2.5" style="stroke:#181818;stroke-width:0.5;" width="66" x="376.5" y="87.4883"/><text fill="#000000" font-family="sans-serif" font-size="14" lengthAdjust="spacing" textLength="52" x="383.5" y="108.0234">:System</text><rect fill="#E3E3E3" height="30.4883" rx="2.5" ry="2.5" style="stroke:#181818;stroke-width:0.5;" width="66" x="376.5" y="403.082"/><text fill="#000000" font-family="sans-serif" font-size="14" lengthAdjust="spacing" textLength="52" x="383.5" y="423.6172">:System</text><rect fill="#FFFFFF" height="257.1055" style="stroke:#181818;stroke-width:1.0;" width="10" x="68.5" y="128.9766"/><rect fill="#FFFFFF" height="29.3105" style="stroke:#181818;stroke-width:1.0;" width="10" x="404.5" y="150.2871"/><rect fill="#FFFFFF" height="44.6211" style="stroke:#181818;stroke-width:1.0;" width="10" x="404.5" y="208.9082"/><rect fill="#FFFFFF" height="44.6211" style="stroke:#181818;stroke-width:1.0;" width="10" x="404.5" y="282.8398"/><rect fill="#FFFFFF" height="29.3105" style="stroke:#181818;stroke-width:1.0;" width="10" x="404.5" y="356.7715"/><polygon fill="#181818" points="392.5,146.2871,402.5,150.2871,392.5,154.2871,396.5,150.2871" style="stroke:#181818;stroke-width:1.0;"/><line style="stroke:#181818;stroke-width:1.0;" x1="78.5" x2="398.5" y1="150.2871" y2="150.2871"/><text fill="#000000" font-family="sans-serif" font-size="13" font-weight="bold" lengthAdjust="spacing" textLength="9" x="85.5" y="145.5449">1</text><text fill="#000000" font-family="sans-serif" font-size="13" lengthAdjust="spacing" textLength="294" x="98.5" y="145.5449">asks to open or close a phase of a job opening</text><polygon fill="#181818" points="89.5,175.5977,79.5,179.5977,89.5,183.5977,85.5,179.5977" style="stroke:#181818;stroke-width:1.0;"/><line style="stroke:#181818;stroke-width:1.0;stroke-dasharray:2.0,2.0;" x1="83.5" x2="408.5" y1="179.5977" y2="179.5977"/><text fill="#000000" font-family="sans-serif" font-size="13" font-weight="bold" lengthAdjust="spacing" textLength="9" x="95.5" y="174.8555">2</text><text fill="#000000" font-family="sans-serif" font-size="13" lengthAdjust="spacing" textLength="251" x="108.5" y="174.8555">lists job opening and asks to select one</text><polygon fill="#181818" points="392.5,204.9082,402.5,208.9082,392.5,212.9082,396.5,208.9082" style="stroke:#181818;stroke-width:1.0;"/><line style="stroke:#181818;stroke-width:1.0;" x1="78.5" x2="398.5" y1="208.9082" y2="208.9082"/><text fill="#000000" font-family="sans-serif" font-size="13" font-weight="bold" lengthAdjust="spacing" textLength="9" x="85.5" y="204.166">3</text><text fill="#000000" font-family="sans-serif" font-size="13" lengthAdjust="spacing" textLength="123" x="98.5" y="204.166">selects job opening</text><polygon fill="#181818" points="89.5,249.5293,79.5,253.5293,89.5,257.5293,85.5,253.5293" style="stroke:#181818;stroke-width:1.0;"/><line style="stroke:#181818;stroke-width:1.0;stroke-dasharray:2.0,2.0;" x1="83.5" x2="408.5" y1="253.5293" y2="253.5293"/><text fill="#000000" font-family="sans-serif" font-size="13" font-weight="bold" lengthAdjust="spacing" textLength="9" x="95.5" y="241.1318">4</text><text fill="#000000" font-family="sans-serif" font-size="13" lengthAdjust="spacing" textLength="256" x="108.5" y="233.4766">lists phases for the selected job opening</text><text fill="#000000" font-family="sans-serif" font-size="13" lengthAdjust="spacing" textLength="141" x="108.5" y="248.7871">and asks to select one</text><polygon fill="#181818" points="392.5,278.8398,402.5,282.8398,392.5,286.8398,396.5,282.8398" style="stroke:#181818;stroke-width:1.0;"/><line style="stroke:#181818;stroke-width:1.0;" x1="78.5" x2="398.5" y1="282.8398" y2="282.8398"/><text fill="#000000" font-family="sans-serif" font-size="13" font-weight="bold" lengthAdjust="spacing" textLength="9" x="85.5" y="278.0977">5</text><text fill="#000000" font-family="sans-serif" font-size="13" lengthAdjust="spacing" textLength="85" x="98.5" y="278.0977">selects phase</text><polygon fill="#181818" points="89.5,323.4609,79.5,327.4609,89.5,331.4609,85.5,327.4609" style="stroke:#181818;stroke-width:1.0;"/><line style="stroke:#181818;stroke-width:1.0;stroke-dasharray:2.0,2.0;" x1="83.5" x2="408.5" y1="327.4609" y2="327.4609"/><text fill="#000000" font-family="sans-serif" font-size="13" font-weight="bold" lengthAdjust="spacing" textLength="9" x="95.5" y="315.0635">6</text><text fill="#000000" font-family="sans-serif" font-size="13" lengthAdjust="spacing" textLength="284" x="108.5" y="307.4082">shows status update options for the selected</text><text fill="#000000" font-family="sans-serif" font-size="13" lengthAdjust="spacing" textLength="182" x="108.5" y="322.7188">phase and asks to select one</text><polygon fill="#181818" points="392.5,352.7715,402.5,356.7715,392.5,360.7715,396.5,356.7715" style="stroke:#181818;stroke-width:1.0;"/><line style="stroke:#181818;stroke-width:1.0;" x1="78.5" x2="398.5" y1="356.7715" y2="356.7715"/><text fill="#000000" font-family="sans-serif" font-size="13" font-weight="bold" lengthAdjust="spacing" textLength="9" x="85.5" y="352.0293">7</text><text fill="#000000" font-family="sans-serif" font-size="13" lengthAdjust="spacing" textLength="179" x="98.5" y="352.0293">selects status update option</text><polygon fill="#181818" points="84.5,382.082,74.5,386.082,84.5,390.082,80.5,386.082" style="stroke:#181818;stroke-width:1.0;"/><line style="stroke:#181818;stroke-width:1.0;stroke-dasharray:2.0,2.0;" x1="78.5" x2="408.5" y1="386.082" y2="386.082"/><text fill="#000000" font-family="sans-serif" font-size="13" font-weight="bold" lengthAdjust="spacing" textLength="9" x="90.5" y="381.3398">8</text><text fill="#000000" font-family="sans-serif" font-size="13" lengthAdjust="spacing" textLength="229" x="103.5" y="381.3398">displays operation success message</text><!--SRC=[hPAnSi8m38PtFuMEgHru0OOkiB8qQnVXYCHD8gUMN8wth-80Hw-qFUxmuEWiwVy_Ev8ky8W91nWYHz-cE11eokJaaXdHTzXGfSUU895NvAQ_Bf0MwtW8tC0UUo7dDAYLLaTH6g2YZqpi2JO1cwdygQespx24L-HkQlB8TQXHIPp3h97piADaiTUOOB7EeaQLO8ji66a1AB3UElFMuCE8hB1OpMObDuUbFtoQx5JimDPw2ykNCzRAIZi1ZH17OZ0dtqSXG1XRj6_SM_WUToLjc4NX8ddsAAUsJg9BqpUN5VH1LAxRmIvvSHJgxHaXCfN-cdxeti2Tc-H_9lYJgTnEO6yNrfPEgbH_OttZXz4Mk_iufOq70L7KB937QJACJ4Fa6zXlFF-kXm7VyhsFlmuozdYKwJaJJlqWsNiIWS4sc-7ViAwER6Q_0000]--></g></svg>