<?xml version="1.0" encoding="us-ascii" standalone="no"?><svg xmlns="http://www.w3.org/2000/svg" xmlns:xlink="http://www.w3.org/1999/xlink" contentStyleType="text/css" height="426px" preserveAspectRatio="none" style="width:468px;height:426px;background:#FFFFFF;" version="1.1" viewBox="0 0 468 426" width="468px" zoomAndPan="magnify"><defs/><g><text fill="#000000" font-family="sans-serif" font-size="14" font-weight="bold" lengthAdjust="spacing" textLength="391" x="37.75" y="28.5352">System Sequence Diagram (SSD) - Ranking candidates</text><rect fill="#FFFFFF" height="198.4844" style="stroke:#181818;stroke-width:1.0;" width="10" x="68.5" y="128.9766"/><rect fill="#FFFFFF" height="29.3105" style="stroke:#181818;stroke-width:1.0;" width="10" x="424.5" y="150.2871"/><rect fill="#FFFFFF" height="44.6211" style="stroke:#181818;stroke-width:1.0;" width="10" x="424.5" y="208.9082"/><rect fill="#FFFFFF" height="44.6211" style="stroke:#181818;stroke-width:1.0;" width="10" x="424.5" y="282.8398"/><line style="stroke:#181818;stroke-width:0.5;stroke-dasharray:5.0,5.0;" x1="73" x2="73" y1="118.9766" y2="345.4609"/><line style="stroke:#181818;stroke-width:0.5;stroke-dasharray:5.0,5.0;" x1="429.5" x2="429.5" y1="118.9766" y2="345.4609"/><text fill="#000000" font-family="sans-serif" font-size="14" lengthAdjust="spacing" textLength="131" x="5" y="116.0234">Customer Manager</text><ellipse cx="73.5" cy="50.9883" fill="#E3E3E3" rx="8" ry="8" style="stroke:#181818;stroke-width:0.5;"/><path d="M73.5,58.9883 L73.5,85.9883 M60.5,66.9883 L86.5,66.9883 M73.5,85.9883 L60.5,100.9883 M73.5,85.9883 L86.5,100.9883 " fill="none" style="stroke:#181818;stroke-width:0.5;"/><text fill="#000000" font-family="sans-serif" font-size="14" lengthAdjust="spacing" textLength="131" x="5" y="357.9961">Customer Manager</text><ellipse cx="73.5" cy="369.4492" fill="#E3E3E3" rx="8" ry="8" style="stroke:#181818;stroke-width:0.5;"/><path d="M73.5,377.4492 L73.5,404.4492 M60.5,385.4492 L86.5,385.4492 M73.5,404.4492 L60.5,419.4492 M73.5,404.4492 L86.5,419.4492 " fill="none" style="stroke:#181818;stroke-width:0.5;"/><rect fill="#E3E3E3" height="30.4883" rx="2.5" ry="2.5" style="stroke:#181818;stroke-width:0.5;" width="66" x="396.5" y="87.4883"/><text fill="#000000" font-family="sans-serif" font-size="14" lengthAdjust="spacing" textLength="52" x="403.5" y="108.0234">:System</text><rect fill="#E3E3E3" height="30.4883" rx="2.5" ry="2.5" style="stroke:#181818;stroke-width:0.5;" width="66" x="396.5" y="344.4609"/><text fill="#000000" font-family="sans-serif" font-size="14" lengthAdjust="spacing" textLength="52" x="403.5" y="364.9961">:System</text><rect fill="#FFFFFF" height="198.4844" style="stroke:#181818;stroke-width:1.0;" width="10" x="68.5" y="128.9766"/><rect fill="#FFFFFF" height="29.3105" style="stroke:#181818;stroke-width:1.0;" width="10" x="424.5" y="150.2871"/><rect fill="#FFFFFF" height="44.6211" style="stroke:#181818;stroke-width:1.0;" width="10" x="424.5" y="208.9082"/><rect fill="#FFFFFF" height="44.6211" style="stroke:#181818;stroke-width:1.0;" width="10" x="424.5" y="282.8398"/><polygon fill="#181818" points="412.5,146.2871,422.5,150.2871,412.5,154.2871,416.5,150.2871" style="stroke:#181818;stroke-width:1.0;"/><line style="stroke:#181818;stroke-width:1.0;" x1="78.5" x2="418.5" y1="150.2871" y2="150.2871"/><text fill="#000000" font-family="sans-serif" font-size="13" font-weight="bold" lengthAdjust="spacing" textLength="9" x="85.5" y="145.5449">1</text><text fill="#000000" font-family="sans-serif" font-size="13" lengthAdjust="spacing" textLength="314" x="98.5" y="145.5449">asks to change status of a phase of a job opening</text><polygon fill="#181818" points="89.5,175.5977,79.5,179.5977,89.5,183.5977,85.5,179.5977" style="stroke:#181818;stroke-width:1.0;"/><line style="stroke:#181818;stroke-width:1.0;stroke-dasharray:2.0,2.0;" x1="83.5" x2="428.5" y1="179.5977" y2="179.5977"/><text fill="#000000" font-family="sans-serif" font-size="13" font-weight="bold" lengthAdjust="spacing" textLength="9" x="95.5" y="174.8555">2</text><text fill="#000000" font-family="sans-serif" font-size="13" lengthAdjust="spacing" textLength="251" x="108.5" y="174.8555">lists job opening and asks to select one</text><polygon fill="#181818" points="412.5,204.9082,422.5,208.9082,412.5,212.9082,416.5,208.9082" style="stroke:#181818;stroke-width:1.0;"/><line style="stroke:#181818;stroke-width:1.0;" x1="78.5" x2="418.5" y1="208.9082" y2="208.9082"/><text fill="#000000" font-family="sans-serif" font-size="13" font-weight="bold" lengthAdjust="spacing" textLength="9" x="85.5" y="204.166">3</text><text fill="#000000" font-family="sans-serif" font-size="13" lengthAdjust="spacing" textLength="123" x="98.5" y="204.166">selects job opening</text><polygon fill="#181818" points="89.5,249.5293,79.5,253.5293,89.5,257.5293,85.5,253.5293" style="stroke:#181818;stroke-width:1.0;"/><line style="stroke:#181818;stroke-width:1.0;stroke-dasharray:2.0,2.0;" x1="83.5" x2="428.5" y1="253.5293" y2="253.5293"/><text fill="#000000" font-family="sans-serif" font-size="13" font-weight="bold" lengthAdjust="spacing" textLength="9" x="95.5" y="241.1318">4</text><text fill="#000000" font-family="sans-serif" font-size="13" lengthAdjust="spacing" textLength="298" x="108.5" y="233.4766">lists current phase for the selected job opening</text><text fill="#000000" font-family="sans-serif" font-size="13" lengthAdjust="spacing" textLength="233" x="112.5" y="248.7871">and asks to move back actor forward</text><polygon fill="#181818" points="412.5,278.8398,422.5,282.8398,412.5,286.8398,416.5,282.8398" style="stroke:#181818;stroke-width:1.0;"/><line style="stroke:#181818;stroke-width:1.0;" x1="78.5" x2="418.5" y1="282.8398" y2="282.8398"/><text fill="#000000" font-family="sans-serif" font-size="13" font-weight="bold" lengthAdjust="spacing" textLength="9" x="85.5" y="278.0977">5</text><text fill="#000000" font-family="sans-serif" font-size="13" lengthAdjust="spacing" textLength="89" x="98.5" y="278.0977">selects option</text><polygon fill="#181818" points="84.5,323.4609,74.5,327.4609,84.5,331.4609,80.5,327.4609" style="stroke:#181818;stroke-width:1.0;"/><line style="stroke:#181818;stroke-width:1.0;stroke-dasharray:2.0,2.0;" x1="78.5" x2="428.5" y1="327.4609" y2="327.4609"/><text fill="#000000" font-family="sans-serif" font-size="13" font-weight="bold" lengthAdjust="spacing" textLength="9" x="90.5" y="315.0635">6</text><text fill="#000000" font-family="sans-serif" font-size="13" lengthAdjust="spacing" textLength="273" x="103.5" y="307.4082">displays updated phase for the job opening</text><text fill="#000000" font-family="sans-serif" font-size="13" lengthAdjust="spacing" textLength="134" x="107.5" y="322.7188">and operation sucess</text><!--SRC=[dPAzTi8m38NtF8KEKplm0WnTO6LfrYx25ecRn78j6GvlNoK13lJtj9uKMxhtaoBfGaoOSO218xisyq2WkL0brvU4hiE6QZtr19cSOcpwsmHfqVCnn0Rss0jLbGQrrFeaIWFKz5OeEe9Dm6PCVwZhpICiuHbZDnOvZ3vuL9Agmg8Sox2ZRB5Jph1O5r6Zoh35Q1Xv0IYmtbRchS65X55XiPhDfhSvdEh3mMJ7v0hihBUmVBfWhIor4r06rrf31AAeHO3tW91Q59h3Lzu19uf6EebSLIysqwsTi-xIBCne1NqGbTjoi3wlfaAzJH8uqbJlwPFk5yHpaVpE13yokP8psTJcBlSsP6tfB4x-3labtb4FV23OsJx0_7EizeZP_wC5JXeu_etU1qazdWHA6jV5VsZW2sxxp3WQWHH78j-1tbpPihm3]--></g></svg>