<?xml version="1.0" encoding="us-ascii" standalone="no"?><svg xmlns="http://www.w3.org/2000/svg" xmlns:xlink="http://www.w3.org/1999/xlink" contentStyleType="text/css" height="535px" preserveAspectRatio="none" style="width:831px;height:535px;background:#FFFFFF;" version="1.1" viewBox="0 0 831 535" width="831px" zoomAndPan="magnify"><defs/><g><!--class CustomerManager--><g id="elem_CustomerManager"><rect codeLine="4" fill="#F1F1F1" height="80.9766" id="CustomerManager" rx="2.5" ry="2.5" style="stroke:#181818;stroke-width:0.5;" width="192" x="42.9109" y="389.3801"/><ellipse cx="72.7609" cy="405.3801" fill="#ADD1B2" rx="11" ry="11" style="stroke:#181818;stroke-width:1.0;"/><path d="M75.7341,411.0232 Q75.153,411.322 74.5139,411.4714 Q73.8747,411.6208 73.1691,411.6208 Q70.6623,411.6208 69.3425,409.969 Q68.0227,408.3171 68.0227,405.196 Q68.0227,402.0666 69.3425,400.4148 Q70.6623,398.7629 73.1691,398.7629 Q73.8747,398.7629 74.5222,398.9123 Q75.1696,399.0617 75.7341,399.3606 L75.7341,402.0832 Q75.1032,401.5022 74.5097,401.2324 Q73.9162,400.9626 73.2854,400.9626 Q71.9406,400.9626 71.2558,402.0293 Q70.571,403.0959 70.571,405.196 Q70.571,407.2878 71.2558,408.3545 Q71.9406,409.4211 73.2854,409.4211 Q73.9162,409.4211 74.5097,409.1513 Q75.1032,408.8816 75.7341,408.3005 Z " fill="#000000"/><text fill="#000000" font-family="sans-serif" font-size="14" lengthAdjust="spacing" textLength="127" x="90.0609" y="410.6711">CustomerManager</text><line style="stroke:#181818;stroke-width:0.5;" x1="43.9109" x2="233.9109" y1="421.3801" y2="421.3801"/><rect fill="none" height="6" style="stroke:#C82930;stroke-width:1.0;" width="6" x="50.9109" y="432.1242"/><text fill="#000000" font-family="sans-serif" font-size="14" lengthAdjust="spacing" textLength="166" x="62.9109" y="438.9153">CustomerManagerName</text><rect fill="none" height="6" style="stroke:#C82930;stroke-width:1.0;" width="6" x="50.9109" y="448.6125"/><text fill="#000000" font-family="sans-serif" font-size="14" lengthAdjust="spacing" textLength="164" x="62.9109" y="455.4035">CustomerManagerEmail</text><line style="stroke:#181818;stroke-width:0.5;" x1="43.9109" x2="233.9109" y1="462.3567" y2="462.3567"/></g><!--class CustomerManagerRepository--><g id="elem_CustomerManagerRepository"><rect codeLine="9" fill="#F1F1F1" height="48" id="CustomerManagerRepository" rx="2.5" ry="2.5" style="stroke:#181818;stroke-width:0.5;" width="232" x="22.9109" y="223.8801"/><ellipse cx="37.9109" cy="239.8801" fill="#ADD1B2" rx="11" ry="11" style="stroke:#181818;stroke-width:1.0;"/><path d="M40.8841,245.5232 Q40.303,245.822 39.6639,245.9714 Q39.0247,246.1208 38.3191,246.1208 Q35.8123,246.1208 34.4925,244.469 Q33.1727,242.8171 33.1727,239.696 Q33.1727,236.5666 34.4925,234.9148 Q35.8123,233.2629 38.3191,233.2629 Q39.0247,233.2629 39.6722,233.4123 Q40.3196,233.5617 40.8841,233.8606 L40.8841,236.5832 Q40.2532,236.0022 39.6597,235.7324 Q39.0662,235.4626 38.4354,235.4626 Q37.0906,235.4626 36.4058,236.5293 Q35.721,237.5959 35.721,239.696 Q35.721,241.7878 36.4058,242.8545 Q37.0906,243.9211 38.4354,243.9211 Q39.0662,243.9211 39.6597,243.6513 Q40.2532,243.3816 40.8841,242.8005 Z " fill="#000000"/><text fill="#000000" font-family="sans-serif" font-size="14" lengthAdjust="spacing" textLength="200" x="51.9109" y="245.1711">CustomerManagerRepository</text><line style="stroke:#181818;stroke-width:0.5;" x1="23.9109" x2="253.9109" y1="255.8801" y2="255.8801"/><line style="stroke:#181818;stroke-width:0.5;" x1="23.9109" x2="253.9109" y1="263.8801" y2="263.8801"/></g><!--class JobRequirementsSpecification--><g id="elem_JobRequirementsSpecification"><rect codeLine="12" fill="#F1F1F1" height="64.4883" id="JobRequirementsSpecification" rx="2.5" ry="2.5" style="stroke:#181818;stroke-width:0.5;" width="236" x="326.9109" y="397.8801"/><ellipse cx="341.9109" cy="413.8801" fill="#ADD1B2" rx="11" ry="11" style="stroke:#181818;stroke-width:1.0;"/><path d="M344.8841,419.5232 Q344.303,419.822 343.6639,419.9714 Q343.0247,420.1208 342.3191,420.1208 Q339.8123,420.1208 338.4925,418.469 Q337.1727,416.8171 337.1727,413.696 Q337.1727,410.5666 338.4925,408.9148 Q339.8123,407.2629 342.3191,407.2629 Q343.0247,407.2629 343.6722,407.4123 Q344.3196,407.5617 344.8841,407.8606 L344.8841,410.5832 Q344.2532,410.0022 343.6597,409.7324 Q343.0662,409.4626 342.4354,409.4626 Q341.0906,409.4626 340.4058,410.5293 Q339.721,411.5959 339.721,413.696 Q339.721,415.7878 340.4058,416.8545 Q341.0906,417.9211 342.4354,417.9211 Q343.0662,417.9211 343.6597,417.6513 Q344.2532,417.3816 344.8841,416.8005 Z " fill="#000000"/><text fill="#000000" font-family="sans-serif" font-size="14" lengthAdjust="spacing" textLength="204" x="355.9109" y="419.1711">JobRequirementsSpecification</text><line style="stroke:#181818;stroke-width:0.5;" x1="327.9109" x2="561.9109" y1="429.8801" y2="429.8801"/><rect fill="none" height="6" style="stroke:#C82930;stroke-width:1.0;" width="6" x="334.9109" y="440.6242"/><text fill="#000000" font-family="sans-serif" font-size="14" lengthAdjust="spacing" textLength="140" x="346.9109" y="447.4153">String Requirements</text><line style="stroke:#181818;stroke-width:0.5;" x1="327.9109" x2="561.9109" y1="454.3684" y2="454.3684"/></g><!--class JobRequirementsSpecificationRepository--><g id="elem_JobRequirementsSpecificationRepository"><rect codeLine="15" fill="#F1F1F1" height="48" id="JobRequirementsSpecificationRepository" rx="2.5" ry="2.5" style="stroke:#181818;stroke-width:0.5;" width="309" x="290.4109" y="223.8801"/><ellipse cx="305.4109" cy="239.8801" fill="#ADD1B2" rx="11" ry="11" style="stroke:#181818;stroke-width:1.0;"/><path d="M308.3841,245.5232 Q307.803,245.822 307.1639,245.9714 Q306.5247,246.1208 305.8191,246.1208 Q303.3123,246.1208 301.9925,244.469 Q300.6727,242.8171 300.6727,239.696 Q300.6727,236.5666 301.9925,234.9148 Q303.3123,233.2629 305.8191,233.2629 Q306.5247,233.2629 307.1722,233.4123 Q307.8196,233.5617 308.3841,233.8606 L308.3841,236.5832 Q307.7532,236.0022 307.1597,235.7324 Q306.5662,235.4626 305.9354,235.4626 Q304.5906,235.4626 303.9058,236.5293 Q303.221,237.5959 303.221,239.696 Q303.221,241.7878 303.9058,242.8545 Q304.5906,243.9211 305.9354,243.9211 Q306.5662,243.9211 307.1597,243.6513 Q307.7532,243.3816 308.3841,242.8005 Z " fill="#000000"/><text fill="#000000" font-family="sans-serif" font-size="14" lengthAdjust="spacing" textLength="277" x="319.4109" y="245.1711">JobRequirementsSpecificationRepository</text><line style="stroke:#181818;stroke-width:0.5;" x1="291.4109" x2="598.4109" y1="255.8801" y2="255.8801"/><line style="stroke:#181818;stroke-width:0.5;" x1="291.4109" x2="598.4109" y1="263.8801" y2="263.8801"/></g><!--class JobOpening--><g id="elem_JobOpening"><rect codeLine="18" fill="#F1F1F1" height="196.3945" id="JobOpening" rx="2.5" ry="2.5" style="stroke:#181818;stroke-width:0.5;" width="193" x="631.4109" y="331.8801"/><ellipse cx="683.1609" cy="347.8801" fill="#ADD1B2" rx="11" ry="11" style="stroke:#181818;stroke-width:1.0;"/><path d="M686.1341,353.5232 Q685.553,353.822 684.9139,353.9714 Q684.2747,354.1208 683.5691,354.1208 Q681.0623,354.1208 679.7425,352.469 Q678.4227,350.8171 678.4227,347.696 Q678.4227,344.5666 679.7425,342.9148 Q681.0623,341.2629 683.5691,341.2629 Q684.2747,341.2629 684.9222,341.4123 Q685.5696,341.5617 686.1341,341.8606 L686.1341,344.5832 Q685.5032,344.0022 684.9097,343.7324 Q684.3162,343.4626 683.6854,343.4626 Q682.3406,343.4626 681.6558,344.5293 Q680.971,345.5959 680.971,347.696 Q680.971,349.7878 681.6558,350.8545 Q682.3406,351.9211 683.6854,351.9211 Q684.3162,351.9211 684.9097,351.6513 Q685.5032,351.3816 686.1341,350.8005 Z " fill="#000000"/><text fill="#000000" font-family="sans-serif" font-size="14" lengthAdjust="spacing" textLength="81" x="703.6609" y="353.1711">JobOpening</text><line style="stroke:#181818;stroke-width:0.5;" x1="632.4109" x2="823.4109" y1="363.8801" y2="363.8801"/><rect fill="none" height="6" style="stroke:#C82930;stroke-width:1.0;" width="6" x="639.4109" y="374.6242"/><text fill="#000000" font-family="sans-serif" font-size="14" lengthAdjust="spacing" textLength="128" x="651.4109" y="381.4153">String ProcessDate</text><rect fill="none" height="6" style="stroke:#C82930;stroke-width:1.0;" width="6" x="639.4109" y="391.1125"/><text fill="#000000" font-family="sans-serif" font-size="14" lengthAdjust="spacing" textLength="131" x="651.4109" y="397.9035">String ProcessState</text><rect fill="none" height="6" style="stroke:#C82930;stroke-width:1.0;" width="6" x="639.4109" y="407.6008"/><text fill="#000000" font-family="sans-serif" font-size="14" lengthAdjust="spacing" textLength="123" x="651.4109" y="414.3918">String Description</text><rect fill="none" height="6" style="stroke:#C82930;stroke-width:1.0;" width="6" x="639.4109" y="424.0891"/><text fill="#000000" font-family="sans-serif" font-size="14" lengthAdjust="spacing" textLength="167" x="651.4109" y="430.8801">String VacanciesNumber</text><rect fill="none" height="6" style="stroke:#C82930;stroke-width:1.0;" width="6" x="639.4109" y="440.5774"/><text fill="#000000" font-family="sans-serif" font-size="14" lengthAdjust="spacing" textLength="101" x="651.4109" y="447.3684">String Address</text><rect fill="none" height="6" style="stroke:#C82930;stroke-width:1.0;" width="6" x="639.4109" y="457.0656"/><text fill="#000000" font-family="sans-serif" font-size="14" lengthAdjust="spacing" textLength="38" x="651.4109" y="463.8567">Mode</text><rect fill="none" height="6" style="stroke:#C82930;stroke-width:1.0;" width="6" x="639.4109" y="473.5539"/><text fill="#000000" font-family="sans-serif" font-size="14" lengthAdjust="spacing" textLength="92" x="651.4109" y="480.3449">ContractType</text><rect fill="none" height="6" style="stroke:#C82930;stroke-width:1.0;" width="6" x="639.4109" y="490.0422"/><text fill="#000000" font-family="sans-serif" font-size="14" lengthAdjust="spacing" textLength="107" x="651.4109" y="496.8332">TitleOrFunction</text><rect fill="none" height="6" style="stroke:#C82930;stroke-width:1.0;" width="6" x="639.4109" y="506.5305"/><text fill="#000000" font-family="sans-serif" font-size="14" lengthAdjust="spacing" textLength="90" x="651.4109" y="513.3215">JobReference</text><line style="stroke:#181818;stroke-width:0.5;" x1="632.4109" x2="823.4109" y1="520.2746" y2="520.2746"/></g><!--class JobOpeningRepository--><g id="elem_JobOpeningRepository"><rect codeLine="29" fill="#F1F1F1" height="48" id="JobOpeningRepository" rx="2.5" ry="2.5" style="stroke:#181818;stroke-width:0.5;" width="186" x="634.9109" y="223.8801"/><ellipse cx="649.9109" cy="239.8801" fill="#ADD1B2" rx="11" ry="11" style="stroke:#181818;stroke-width:1.0;"/><path d="M652.8841,245.5232 Q652.303,245.822 651.6639,245.9714 Q651.0247,246.1208 650.3191,246.1208 Q647.8123,246.1208 646.4925,244.469 Q645.1727,242.8171 645.1727,239.696 Q645.1727,236.5666 646.4925,234.9148 Q647.8123,233.2629 650.3191,233.2629 Q651.0247,233.2629 651.6722,233.4123 Q652.3196,233.5617 652.8841,233.8606 L652.8841,236.5832 Q652.2532,236.0022 651.6597,235.7324 Q651.0662,235.4626 650.4354,235.4626 Q649.0906,235.4626 648.4058,236.5293 Q647.721,237.5959 647.721,239.696 Q647.721,241.7878 648.4058,242.8545 Q649.0906,243.9211 650.4354,243.9211 Q651.0662,243.9211 651.6597,243.6513 Q652.2532,243.3816 652.8841,242.8005 Z " fill="#000000"/><text fill="#000000" font-family="sans-serif" font-size="14" lengthAdjust="spacing" textLength="154" x="663.9109" y="245.1711">JobOpeningRepository</text><line style="stroke:#181818;stroke-width:0.5;" x1="635.9109" x2="819.9109" y1="255.8801" y2="255.8801"/><line style="stroke:#181818;stroke-width:0.5;" x1="635.9109" x2="819.9109" y1="263.8801" y2="263.8801"/></g><!--class Repositories--><g id="elem_Repositories"><rect fill="#F1F1F1" height="48" id="Repositories" rx="2.5" ry="2.5" style="stroke:#181818;stroke-width:0.5;" width="117" x="386.4109" y="54.8801"/><ellipse cx="401.4109" cy="70.8801" fill="#ADD1B2" rx="11" ry="11" style="stroke:#181818;stroke-width:1.0;"/><path d="M404.3841,76.5232 Q403.803,76.822 403.1639,76.9714 Q402.5247,77.1208 401.8191,77.1208 Q399.3123,77.1208 397.9925,75.469 Q396.6727,73.8171 396.6727,70.696 Q396.6727,67.5666 397.9925,65.9148 Q399.3123,64.2629 401.8191,64.2629 Q402.5247,64.2629 403.1722,64.4123 Q403.8196,64.5617 404.3841,64.8606 L404.3841,67.5832 Q403.7532,67.0022 403.1597,66.7324 Q402.5662,66.4626 401.9354,66.4626 Q400.5906,66.4626 399.9058,67.5293 Q399.221,68.5959 399.221,70.696 Q399.221,72.7878 399.9058,73.8545 Q400.5906,74.9211 401.9354,74.9211 Q402.5662,74.9211 403.1597,74.6513 Q403.7532,74.3816 404.3841,73.8005 Z " fill="#000000"/><text fill="#000000" font-family="sans-serif" font-size="14" lengthAdjust="spacing" textLength="85" x="415.4109" y="76.1711">Repositories</text><line style="stroke:#181818;stroke-width:0.5;" x1="387.4109" x2="502.4109" y1="86.8801" y2="86.8801"/><line style="stroke:#181818;stroke-width:0.5;" x1="387.4109" x2="502.4109" y1="94.8801" y2="94.8801"/></g><!--link Repositories to CustomerManagerRepository--><g id="link_Repositories_CustomerManagerRepository"><path codeLine="35" d="M402.0409,103.2801 C343.6509,135.1401 244.9978,188.9861 186.7578,220.7661 " fill="none" id="Repositories-to-CustomerManagerRepository" style="stroke:#181818;stroke-width:1.0;"/><polygon fill="#181818" points="181.4909,223.6401,191.3073,222.8404,185.88,221.2451,187.4753,215.8178,181.4909,223.6401" style="stroke:#181818;stroke-width:1.0;"/><text fill="#000000" font-family="sans-serif" font-size="13" lengthAdjust="spacing" textLength="4" x="153.2499" y="121.9291">&#160;</text><text fill="#000000" font-family="sans-serif" font-size="13" lengthAdjust="spacing" textLength="181" x="153.2499" y="137.2397">CustomerManagerRepository</text><text fill="#000000" font-family="sans-serif" font-size="13" lengthAdjust="spacing" textLength="8" x="183.3771" y="213.1149">1</text></g><!--link Repositories to JobOpeningRepository--><g id="link_Repositories_JobOpeningRepository"><path codeLine="36" d="M484.5609,103.2801 C538.5609,135.1401 629.5034,188.811 683.3634,220.591 " fill="none" id="Repositories-to-JobOpeningRepository" style="stroke:#181818;stroke-width:1.0;"/><polygon fill="#181818" points="688.5309,223.6401,682.8124,215.6215,684.2247,221.0992,678.747,222.5115,688.5309,223.6401" style="stroke:#181818;stroke-width:1.0;"/><text fill="#000000" font-family="sans-serif" font-size="13" lengthAdjust="spacing" textLength="4" x="579.2881" y="19.8105">&#160;</text><text fill="#000000" font-family="sans-serif" font-size="13" lengthAdjust="spacing" textLength="4" x="579.2881" y="35.1211">&#160;</text><text fill="#000000" font-family="sans-serif" font-size="13" lengthAdjust="spacing" textLength="4" x="579.2881" y="50.4316">&#160;</text><text fill="#000000" font-family="sans-serif" font-size="13" lengthAdjust="spacing" textLength="4" x="579.2881" y="65.7422">&#160;</text><text fill="#000000" font-family="sans-serif" font-size="13" lengthAdjust="spacing" textLength="4" x="579.2881" y="81.0527">&#160;</text><text fill="#000000" font-family="sans-serif" font-size="13" lengthAdjust="spacing" textLength="140" x="511.2881" y="96.3633">JobOpeningRepository</text><text fill="#000000" font-family="sans-serif" font-size="13" lengthAdjust="spacing" textLength="8" x="669.4148" y="213.1149">1</text></g><!--link Repositories to JobRequirementsSpecificationRepository--><g id="link_Repositories_JobRequirementsSpecificationRepository"><path codeLine="37" d="M444.9109,103.1001 C444.9109,134.9201 444.9109,185.7301 444.9109,217.5901 " fill="none" id="Repositories-to-JobRequirementsSpecificationRepository" style="stroke:#181818;stroke-width:1.0;"/><polygon fill="#181818" points="444.9109,223.5901,448.9109,214.5901,444.9109,218.5901,440.9109,214.5901,444.9109,223.5901" style="stroke:#181818;stroke-width:1.0;"/><text fill="#000000" font-family="sans-serif" font-size="13" lengthAdjust="spacing" textLength="4" x="501.7078" y="123.3413">&#160;</text><text fill="#000000" font-family="sans-serif" font-size="13" lengthAdjust="spacing" textLength="4" x="501.7078" y="138.6518">&#160;</text><text fill="#000000" font-family="sans-serif" font-size="13" lengthAdjust="spacing" textLength="4" x="501.7078" y="153.9624">&#160;</text><text fill="#000000" font-family="sans-serif" font-size="13" lengthAdjust="spacing" textLength="106" x="450.7078" y="169.2729">JobRequirements</text><text fill="#000000" font-family="sans-serif" font-size="13" lengthAdjust="spacing" textLength="81" x="463.2078" y="184.5835">Specification</text><text fill="#000000" font-family="sans-serif" font-size="13" lengthAdjust="spacing" textLength="67" x="470.2078" y="199.894">Repository</text><text fill="#000000" font-family="sans-serif" font-size="13" lengthAdjust="spacing" textLength="8" x="435.8859" y="213.0521">1</text></g><!--link CustomerManagerRepository to CustomerManager--><g id="link_CustomerManagerRepository_CustomerManager"><path codeLine="39" d="M138.9109,272.0401 C138.9109,301.5701 138.9109,347.1001 138.9109,383.0001 " fill="none" id="CustomerManagerRepository-to-CustomerManager" style="stroke:#181818;stroke-width:1.0;"/><polygon fill="#181818" points="138.9109,389.0001,142.9109,380.0001,138.9109,384.0001,134.9109,380.0001,138.9109,389.0001" style="stroke:#181818;stroke-width:1.0;"/><text fill="#000000" font-family="sans-serif" font-size="13" lengthAdjust="spacing" textLength="4" x="64.5" y="292.3792">&#160;</text><text fill="#000000" font-family="sans-serif" font-size="13" lengthAdjust="spacing" textLength="121" x="6" y="307.6898">CustomerManagers</text><text fill="#000000" font-family="sans-serif" font-size="13" lengthAdjust="spacing" textLength="6" x="132.4141" y="378.5832">*</text></g><!--link JobOpeningRepository to JobOpening--><g id="link_JobOpeningRepository_JobOpening"><path codeLine="40" d="M727.9109,272.0401 C727.9109,287.6201 727.9109,303.3001 727.9109,325.5901 " fill="none" id="JobOpeningRepository-to-JobOpening" style="stroke:#181818;stroke-width:1.0;"/><polygon fill="#181818" points="727.9109,331.5901,731.9109,322.5901,727.9109,326.5901,723.9109,322.5901,727.9109,331.5901" style="stroke:#181818;stroke-width:1.0;"/><text fill="#000000" font-family="sans-serif" font-size="13" lengthAdjust="spacing" textLength="4" x="678.0359" y="292.3792">&#160;</text><text fill="#000000" font-family="sans-serif" font-size="13" lengthAdjust="spacing" textLength="80" x="640.0359" y="307.6898">JobOpenings</text><text fill="#000000" font-family="sans-serif" font-size="13" lengthAdjust="spacing" textLength="6" x="721.6813" y="321.0557">*</text></g><!--link JobRequirementsSpecificationRepository to JobRequirementsSpecification--><g id="link_JobRequirementsSpecificationRepository_JobRequirementsSpecification"><path codeLine="41" d="M444.9109,272.0401 C444.9109,304.0401 444.9109,355.8601 444.9109,391.6501 " fill="none" id="JobRequirementsSpecificationRepository-to-JobRequirementsSpecification" style="stroke:#181818;stroke-width:1.0;"/><polygon fill="#181818" points="444.9109,397.6501,448.9109,388.6501,444.9109,392.6501,440.9109,388.6501,444.9109,397.6501" style="stroke:#181818;stroke-width:1.0;"/><text fill="#000000" font-family="sans-serif" font-size="13" lengthAdjust="spacing" textLength="4" x="339.1771" y="292.4766">&#160;</text><text fill="#000000" font-family="sans-serif" font-size="13" lengthAdjust="spacing" textLength="187" x="247.6771" y="307.7871">JobRequirementsSpecification</text><text fill="#000000" font-family="sans-serif" font-size="13" lengthAdjust="spacing" textLength="6" x="438.2922" y="387.0058">*</text></g><!--SRC=[ZPB1Ri8m38RlUOge5wH9FUm59asm7IO14qKxzH9I0zPQftFS0vhsxak1GLiQ3UVss_dY_FR4VoBLXasbIoIGGmtQiUoTcfIm5IrEC-xseWjai8AEbBAbyLvF6o-k0fuRCZjW_QrqY7IeBqm5uvcNoc2fVYAy5TJEepW-1FAbwCrjLl3LX5ug8F5P3HQtQ4tRsAc3L6V2I3lThGk0_-z7NrpMG2snptzdPy7xcH4OqpCP9cRWBMDzzB2hVnXho2BuHLDjW7kvvwBW03jfSrUSYLD7miRAEephfAnHIbZoQqFs-i3njrjW80jT2yuV6duun4KAxUWaB-D3kKQYqpHzqibZ4f_X44n_PwoR3d0iFSeQ33QdtcXpYj7ls0QbuYw4rmT9t_83_k763JNgVDBre7FvAgexbpQvSQ5NsKD7guvRy0i0]--></g></svg>