<?xml version="1.0" encoding="us-ascii" standalone="no"?><svg xmlns="http://www.w3.org/2000/svg" xmlns:xlink="http://www.w3.org/1999/xlink" contentStyleType="text/css" height="469px" preserveAspectRatio="none" style="width:612px;height:469px;background:#FFFFFF;" version="1.1" viewBox="0 0 612 469" width="612px" zoomAndPan="magnify"><defs/><g><text fill="#000000" font-family="sans-serif" font-size="14" font-weight="bold" lengthAdjust="spacing" textLength="363" x="123.75" y="28.5352">System Sequence Diagram (SSD) - Alternative One</text><rect fill="#FFFFFF" height="250.7949" style="stroke:#181818;stroke-width:1.0;" width="10" x="68.5" y="128.9766"/><rect fill="#FFFFFF" height="44.6211" style="stroke:#181818;stroke-width:1.0;" width="10" x="566.5" y="150.2871"/><rect fill="#FFFFFF" height="29.3105" style="stroke:#181818;stroke-width:1.0;" width="10" x="566.5" y="224.2188"/><rect fill="#FFFFFF" height="29.3105" style="stroke:#181818;stroke-width:1.0;" width="10" x="566.5" y="282.8398"/><rect fill="#FFFFFF" height="29.3105" style="stroke:#181818;stroke-width:1.0;" width="10" x="566.5" y="341.4609"/><line style="stroke:#181818;stroke-width:0.5;stroke-dasharray:5.0,5.0;" x1="73" x2="73" y1="118.9766" y2="388.7715"/><line style="stroke:#181818;stroke-width:0.5;stroke-dasharray:5.0,5.0;" x1="571.5" x2="571.5" y1="118.9766" y2="388.7715"/><text fill="#000000" font-family="sans-serif" font-size="14" lengthAdjust="spacing" textLength="131" x="5" y="116.0234">Customer Manager</text><ellipse cx="73.5" cy="50.9883" fill="#E3E3E3" rx="8" ry="8" style="stroke:#181818;stroke-width:0.5;"/><path d="M73.5,58.9883 L73.5,85.9883 M60.5,66.9883 L86.5,66.9883 M73.5,85.9883 L60.5,100.9883 M73.5,85.9883 L86.5,100.9883 " fill="none" style="stroke:#181818;stroke-width:0.5;"/><text fill="#000000" font-family="sans-serif" font-size="14" lengthAdjust="spacing" textLength="131" x="5" y="401.3066">Customer Manager</text><ellipse cx="73.5" cy="412.7598" fill="#E3E3E3" rx="8" ry="8" style="stroke:#181818;stroke-width:0.5;"/><path d="M73.5,420.7598 L73.5,447.7598 M60.5,428.7598 L86.5,428.7598 M73.5,447.7598 L60.5,462.7598 M73.5,447.7598 L86.5,462.7598 " fill="none" style="stroke:#181818;stroke-width:0.5;"/><rect fill="#E3E3E3" height="30.4883" rx="2.5" ry="2.5" style="stroke:#181818;stroke-width:0.5;" width="70" x="536.5" y="87.4883"/><text fill="#000000" font-family="sans-serif" font-size="14" lengthAdjust="spacing" textLength="56" x="543.5" y="108.0234">: System</text><rect fill="#E3E3E3" height="30.4883" rx="2.5" ry="2.5" style="stroke:#181818;stroke-width:0.5;" width="70" x="536.5" y="387.7715"/><text fill="#000000" font-family="sans-serif" font-size="14" lengthAdjust="spacing" textLength="56" x="543.5" y="408.3066">: System</text><rect fill="#FFFFFF" height="250.7949" style="stroke:#181818;stroke-width:1.0;" width="10" x="68.5" y="128.9766"/><rect fill="#FFFFFF" height="44.6211" style="stroke:#181818;stroke-width:1.0;" width="10" x="566.5" y="150.2871"/><rect fill="#FFFFFF" height="29.3105" style="stroke:#181818;stroke-width:1.0;" width="10" x="566.5" y="224.2188"/><rect fill="#FFFFFF" height="29.3105" style="stroke:#181818;stroke-width:1.0;" width="10" x="566.5" y="282.8398"/><rect fill="#FFFFFF" height="29.3105" style="stroke:#181818;stroke-width:1.0;" width="10" x="566.5" y="341.4609"/><polygon fill="#181818" points="554.5,146.2871,564.5,150.2871,554.5,154.2871,558.5,150.2871" style="stroke:#181818;stroke-width:1.0;"/><line style="stroke:#181818;stroke-width:1.0;" x1="78.5" x2="560.5" y1="150.2871" y2="150.2871"/><text fill="#000000" font-family="sans-serif" font-size="13" font-weight="bold" lengthAdjust="spacing" textLength="9" x="85.5" y="145.5449">1</text><text fill="#000000" font-family="sans-serif" font-size="13" lengthAdjust="spacing" textLength="219" x="98.5" y="145.5449">asks to register a new Job Opening</text><polygon fill="#181818" points="89.5,190.9082,79.5,194.9082,89.5,198.9082,85.5,194.9082" style="stroke:#181818;stroke-width:1.0;"/><line style="stroke:#181818;stroke-width:1.0;stroke-dasharray:2.0,2.0;" x1="83.5" x2="570.5" y1="194.9082" y2="194.9082"/><text fill="#000000" font-family="sans-serif" font-size="13" font-weight="bold" lengthAdjust="spacing" textLength="9" x="95.5" y="182.5107">2</text><text fill="#000000" font-family="sans-serif" font-size="13" lengthAdjust="spacing" textLength="451" x="108.5" y="174.8555">requests job opening details (Description, VacanciesNumber, Company,</text><text fill="#000000" font-family="sans-serif" font-size="13" lengthAdjust="spacing" textLength="384" x="112.5" y="190.166">Address, Mode, ContractType, TitleOrFunction, JobReference)</text><polygon fill="#181818" points="554.5,220.2188,564.5,224.2188,554.5,228.2188,558.5,224.2188" style="stroke:#181818;stroke-width:1.0;"/><line style="stroke:#181818;stroke-width:1.0;" x1="78.5" x2="560.5" y1="224.2188" y2="224.2188"/><text fill="#000000" font-family="sans-serif" font-size="13" font-weight="bold" lengthAdjust="spacing" textLength="9" x="85.5" y="219.4766">3</text><text fill="#000000" font-family="sans-serif" font-size="13" lengthAdjust="spacing" textLength="178" x="98.5" y="219.4766">submits Job Opening details</text><polygon fill="#181818" points="89.5,249.5293,79.5,253.5293,89.5,257.5293,85.5,253.5293" style="stroke:#181818;stroke-width:1.0;"/><line style="stroke:#181818;stroke-width:1.0;stroke-dasharray:2.0,2.0;" x1="83.5" x2="570.5" y1="253.5293" y2="253.5293"/><text fill="#000000" font-family="sans-serif" font-size="13" font-weight="bold" lengthAdjust="spacing" textLength="9" x="95.5" y="248.7871">4</text><text fill="#000000" font-family="sans-serif" font-size="13" lengthAdjust="spacing" textLength="381" x="108.5" y="248.7871">requests list of requirements (JobRequirementsSpecification)</text><polygon fill="#181818" points="554.5,278.8398,564.5,282.8398,554.5,286.8398,558.5,282.8398" style="stroke:#181818;stroke-width:1.0;"/><line style="stroke:#181818;stroke-width:1.0;" x1="78.5" x2="560.5" y1="282.8398" y2="282.8398"/><text fill="#000000" font-family="sans-serif" font-size="13" font-weight="bold" lengthAdjust="spacing" textLength="9" x="85.5" y="278.0977">5</text><text fill="#000000" font-family="sans-serif" font-size="13" lengthAdjust="spacing" textLength="242" x="98.5" y="278.0977">submits JobRequirementsSpecification</text><polygon fill="#181818" points="89.5,308.1504,79.5,312.1504,89.5,316.1504,85.5,312.1504" style="stroke:#181818;stroke-width:1.0;"/><line style="stroke:#181818;stroke-width:1.0;stroke-dasharray:2.0,2.0;" x1="83.5" x2="570.5" y1="312.1504" y2="312.1504"/><text fill="#000000" font-family="sans-serif" font-size="13" font-weight="bold" lengthAdjust="spacing" textLength="9" x="95.5" y="307.4082">6</text><text fill="#000000" font-family="sans-serif" font-size="13" lengthAdjust="spacing" textLength="440" x="108.5" y="307.4082">shows all details for the new job opening request and asks to confirm</text><polygon fill="#181818" points="554.5,337.4609,564.5,341.4609,554.5,345.4609,558.5,341.4609" style="stroke:#181818;stroke-width:1.0;"/><line style="stroke:#181818;stroke-width:1.0;" x1="78.5" x2="560.5" y1="341.4609" y2="341.4609"/><text fill="#000000" font-family="sans-serif" font-size="13" font-weight="bold" lengthAdjust="spacing" textLength="9" x="85.5" y="336.7188">7</text><text fill="#000000" font-family="sans-serif" font-size="13" lengthAdjust="spacing" textLength="130" x="98.5" y="336.7188">confirms all the data</text><polygon fill="#181818" points="89.5,366.7715,79.5,370.7715,89.5,374.7715,85.5,370.7715" style="stroke:#181818;stroke-width:1.0;"/><line style="stroke:#181818;stroke-width:1.0;stroke-dasharray:2.0,2.0;" x1="83.5" x2="570.5" y1="370.7715" y2="370.7715"/><text fill="#000000" font-family="sans-serif" font-size="13" font-weight="bold" lengthAdjust="spacing" textLength="9" x="95.5" y="366.0293">8</text><text fill="#000000" font-family="sans-serif" font-size="13" lengthAdjust="spacing" textLength="170" x="108.5" y="366.0293">displays operation success</text><!--SRC=[dPB1Zjf038RlUGgB4ol12t1OQGNgeH95QbPxwiLCdE2IUDAnioXlNoU15BNTIdGEqSHZ__x-6UkPfSM43JHHOZYbs11OwYZJ-QJ5SCQASkjhWaJ1KAhwFa5FMCGBImKbrafPPcoUclTgr41EFpgIGB1Zh8RqPPxldc0DBxLH4ZH-9pY8bs5dKRhcICdtmMA2nRPJSwG4UnHdI0j0XUq-yyR6WLiKWyNcsceydBQZ0B-ZaMU3homRlhvVFz_0Dfv-Lh3efYhsK084eGjyZaSuj2JkQAoQfMxQCAshpjebNNZZCkvKJU6x2yH900eov5fXkICDYLlZA2jumu0IcFJBw7S5szYucNxrJU2bA1Afhc0V2nfEn98ZlFQj_xqELtj8dpe9avB3VgMIqd35JoDPGNy5_isxTiU6dVNEx8trdwO_Tbtx7K8inm0dQaWyk1pvVWNobWAN772W_q_U3_KU0zTJl2XWNSzlLFh8sOd68RX_mwj5G2dccGbHIaxD0mwk5LFBeKs1XeyX5wnjZRqEP6cqxFSIWa_BNF8doqy0]--></g></svg>