<?xml version="1.0" encoding="us-ascii" standalone="no"?><svg xmlns="http://www.w3.org/2000/svg" xmlns:xlink="http://www.w3.org/1999/xlink" contentStyleType="text/css" height="1218px" preserveAspectRatio="none" style="width:1126px;height:1218px;background:#FFFFFF;" version="1.1" viewBox="0 0 1126 1218" width="1126px" zoomAndPan="magnify"><defs/><g><!--class CreateJobOpeningUI--><g id="elem_CreateJobOpeningUI"><rect codeLine="4" fill="#F1F1F1" height="163.418" id="CreateJobOpeningUI" rx="2.5" ry="2.5" style="stroke:#181818;stroke-width:0.5;" width="374" x="173" y="7"/><ellipse cx="285.75" cy="23" fill="#ADD1B2" rx="11" ry="11" style="stroke:#181818;stroke-width:1.0;"/><path d="M288.7231,28.6431 Q288.1421,28.9419 287.5029,29.0913 Q286.8638,29.2407 286.1582,29.2407 Q283.6514,29.2407 282.3315,27.5889 Q281.0117,25.937 281.0117,22.8159 Q281.0117,19.6865 282.3315,18.0347 Q283.6514,16.3828 286.1582,16.3828 Q286.8638,16.3828 287.5112,16.5322 Q288.1587,16.6816 288.7231,16.9805 L288.7231,19.7031 Q288.0923,19.1221 287.4988,18.8523 Q286.9053,18.5825 286.2744,18.5825 Q284.9297,18.5825 284.2449,19.6492 Q283.5601,20.7158 283.5601,22.8159 Q283.5601,24.9077 284.2449,25.9744 Q284.9297,27.041 286.2744,27.041 Q286.9053,27.041 287.4988,26.7712 Q288.0923,26.5015 288.7231,25.9204 Z " fill="#000000"/><text fill="#000000" font-family="sans-serif" font-size="14" lengthAdjust="spacing" textLength="140" x="306.25" y="28.291">CreateJobOpeningUI</text><line style="stroke:#181818;stroke-width:0.5;" x1="174" x2="546" y1="39" y2="39"/><line style="stroke:#181818;stroke-width:0.5;" x1="174" x2="546" y1="47" y2="47"/><ellipse cx="184" cy="60.7441" fill="#84BE84" rx="3" ry="3" style="stroke:#038048;stroke-width:1.0;"/><text fill="#000000" font-family="sans-serif" font-size="14" lengthAdjust="spacing" textLength="65" x="193" y="64.5352">doShow()</text><ellipse cx="184" cy="77.2324" fill="#84BE84" rx="3" ry="3" style="stroke:#038048;stroke-width:1.0;"/><text fill="#000000" font-family="sans-serif" font-size="14" lengthAdjust="spacing" textLength="91" x="193" y="81.0234">showModes()</text><ellipse cx="184" cy="93.7207" fill="#84BE84" rx="3" ry="3" style="stroke:#038048;stroke-width:1.0;"/><text fill="#000000" font-family="sans-serif" font-size="14" lengthAdjust="spacing" textLength="145" x="193" y="97.5117">showContractTypes()</text><ellipse cx="184" cy="110.209" fill="#84BE84" rx="3" ry="3" style="stroke:#038048;stroke-width:1.0;"/><text fill="#000000" font-family="sans-serif" font-size="14" lengthAdjust="spacing" textLength="291" x="193" y="114">addJobOpening(jobReference, description,</text><text fill="#000000" font-family="sans-serif" font-size="14" lengthAdjust="spacing" textLength="344" x="193" y="130.4883">vacanciesNumber, address, modes, contractTypes,</text><text fill="#000000" font-family="sans-serif" font-size="14" lengthAdjust="spacing" textLength="108" x="193" y="146.9766">titleOrFunction)</text><ellipse cx="184" cy="159.6738" fill="#84BE84" rx="3" ry="3" style="stroke:#038048;stroke-width:1.0;"/><text fill="#000000" font-family="sans-serif" font-size="14" lengthAdjust="spacing" textLength="69" x="193" y="163.4648">headline()</text></g><!--class CreateJobOpeningController--><g id="elem_CreateJobOpeningController"><rect codeLine="13" fill="#F1F1F1" height="146.9297" id="CreateJobOpeningController" rx="2.5" ry="2.5" style="stroke:#181818;stroke-width:0.5;" width="374" x="173" y="205"/><ellipse cx="257.75" cy="221" fill="#ADD1B2" rx="11" ry="11" style="stroke:#181818;stroke-width:1.0;"/><path d="M260.7231,226.6431 Q260.1421,226.9419 259.5029,227.0913 Q258.8638,227.2407 258.1582,227.2407 Q255.6514,227.2407 254.3315,225.5889 Q253.0117,223.937 253.0117,220.8159 Q253.0117,217.6865 254.3315,216.0347 Q255.6514,214.3828 258.1582,214.3828 Q258.8638,214.3828 259.5112,214.5322 Q260.1587,214.6816 260.7231,214.9805 L260.7231,217.7031 Q260.0923,217.1221 259.4988,216.8523 Q258.9053,216.5825 258.2744,216.5825 Q256.9297,216.5825 256.2449,217.6492 Q255.5601,218.7158 255.5601,220.8159 Q255.5601,222.9077 256.2449,223.9744 Q256.9297,225.041 258.2744,225.041 Q258.9053,225.041 259.4988,224.7712 Q260.0923,224.5015 260.7231,223.9204 Z " fill="#000000"/><text fill="#000000" font-family="sans-serif" font-size="14" lengthAdjust="spacing" textLength="196" x="278.25" y="226.291">CreateJobOpeningController</text><line style="stroke:#181818;stroke-width:0.5;" x1="174" x2="546" y1="237" y2="237"/><line style="stroke:#181818;stroke-width:0.5;" x1="174" x2="546" y1="245" y2="245"/><ellipse cx="184" cy="258.7441" fill="#84BE84" rx="3" ry="3" style="stroke:#038048;stroke-width:1.0;"/><text fill="#000000" font-family="sans-serif" font-size="14" lengthAdjust="spacing" textLength="92" x="193" y="262.5352">repositories()</text><ellipse cx="184" cy="275.2324" fill="#84BE84" rx="3" ry="3" style="stroke:#038048;stroke-width:1.0;"/><text fill="#000000" font-family="sans-serif" font-size="14" lengthAdjust="spacing" textLength="84" x="193" y="279.0234">companies()</text><ellipse cx="184" cy="291.7207" fill="#84BE84" rx="3" ry="3" style="stroke:#038048;stroke-width:1.0;"/><text fill="#000000" font-family="sans-serif" font-size="14" lengthAdjust="spacing" textLength="254" x="193" y="295.5117">findCompanyByCode(companyName)</text><ellipse cx="184" cy="308.209" fill="#84BE84" rx="3" ry="3" style="stroke:#038048;stroke-width:1.0;"/><text fill="#000000" font-family="sans-serif" font-size="14" lengthAdjust="spacing" textLength="291" x="193" y="312">addJobOpening(jobReference, description,</text><text fill="#000000" font-family="sans-serif" font-size="14" lengthAdjust="spacing" textLength="344" x="193" y="328.4883">vacanciesNumber, address, modes, contractTypes,</text><text fill="#000000" font-family="sans-serif" font-size="14" lengthAdjust="spacing" textLength="108" x="193" y="344.9766">titleOrFunction)</text></g><!--class JobOpening--><g id="elem_JobOpening"><rect codeLine="21" fill="#F1F1F1" height="361.2773" id="JobOpening" rx="2.5" ry="2.5" style="stroke:#181818;stroke-width:0.5;" width="374" x="173" y="751"/><ellipse cx="315.25" cy="767" fill="#ADD1B2" rx="11" ry="11" style="stroke:#181818;stroke-width:1.0;"/><path d="M318.2231,772.6431 Q317.6421,772.9419 317.0029,773.0913 Q316.3638,773.2407 315.6582,773.2407 Q313.1514,773.2407 311.8315,771.5889 Q310.5117,769.937 310.5117,766.8159 Q310.5117,763.6865 311.8315,762.0347 Q313.1514,760.3828 315.6582,760.3828 Q316.3638,760.3828 317.0112,760.5322 Q317.6587,760.6816 318.2231,760.9805 L318.2231,763.7031 Q317.5923,763.1221 316.9988,762.8523 Q316.4053,762.5825 315.7744,762.5825 Q314.4297,762.5825 313.7449,763.6492 Q313.0601,764.7158 313.0601,766.8159 Q313.0601,768.9077 313.7449,769.9744 Q314.4297,771.041 315.7744,771.041 Q316.4053,771.041 316.9988,770.7712 Q317.5923,770.5015 318.2231,769.9204 Z " fill="#000000"/><text fill="#000000" font-family="sans-serif" font-size="14" lengthAdjust="spacing" textLength="81" x="335.75" y="772.291">JobOpening</text><line style="stroke:#181818;stroke-width:0.5;" x1="174" x2="546" y1="783" y2="783"/><rect fill="none" height="6" style="stroke:#C82930;stroke-width:1.0;" width="6" x="181" y="793.7441"/><text fill="#000000" font-family="sans-serif" font-size="14" lengthAdjust="spacing" textLength="123" x="193" y="800.5352">String Description</text><rect fill="none" height="6" style="stroke:#C82930;stroke-width:1.0;" width="6" x="181" y="810.2324"/><text fill="#000000" font-family="sans-serif" font-size="14" lengthAdjust="spacing" textLength="167" x="193" y="817.0234">String VacanciesNumber</text><rect fill="none" height="6" style="stroke:#C82930;stroke-width:1.0;" width="6" x="181" y="826.7207"/><text fill="#000000" font-family="sans-serif" font-size="14" lengthAdjust="spacing" textLength="101" x="193" y="833.5117">String Address</text><rect fill="none" height="6" style="stroke:#C82930;stroke-width:1.0;" width="6" x="181" y="843.209"/><text fill="#000000" font-family="sans-serif" font-size="14" lengthAdjust="spacing" textLength="38" x="193" y="850">Mode</text><rect fill="none" height="6" style="stroke:#C82930;stroke-width:1.0;" width="6" x="181" y="859.6973"/><text fill="#000000" font-family="sans-serif" font-size="14" lengthAdjust="spacing" textLength="92" x="193" y="866.4883">ContractType</text><rect fill="none" height="6" style="stroke:#C82930;stroke-width:1.0;" width="6" x="181" y="876.1855"/><text fill="#000000" font-family="sans-serif" font-size="14" lengthAdjust="spacing" textLength="107" x="193" y="882.9766">TitleOrFunction</text><rect fill="none" height="6" style="stroke:#C82930;stroke-width:1.0;" width="6" x="181" y="892.6738"/><text fill="#000000" font-family="sans-serif" font-size="14" lengthAdjust="spacing" textLength="90" x="193" y="899.4648">JobReference</text><line style="stroke:#181818;stroke-width:0.5;" x1="174" x2="546" y1="906.418" y2="906.418"/><ellipse cx="184" cy="920.1621" fill="#84BE84" rx="3" ry="3" style="stroke:#038048;stroke-width:1.0;"/><text fill="#000000" font-family="sans-serif" font-size="14" lengthAdjust="spacing" textLength="265" x="193" y="923.9531">JobOpening(jobReference, description,</text><text fill="#000000" font-family="sans-serif" font-size="14" lengthAdjust="spacing" textLength="344" x="193" y="940.4414">vacanciesNumber, address, modes, contractTypes,</text><text fill="#000000" font-family="sans-serif" font-size="14" lengthAdjust="spacing" textLength="108" x="193" y="956.9297">titleOrFunction)</text><ellipse cx="184" cy="969.627" fill="#84BE84" rx="3" ry="3" style="stroke:#038048;stroke-width:1.0;"/><text fill="#000000" font-family="sans-serif" font-size="14" lengthAdjust="spacing" textLength="61" x="193" y="973.418">identity()</text><ellipse cx="184" cy="986.1152" fill="#84BE84" rx="3" ry="3" style="stroke:#038048;stroke-width:1.0;"/><text fill="#000000" font-family="sans-serif" font-size="14" lengthAdjust="spacing" textLength="105" x="193" y="989.9063">sameAs(object)</text><ellipse cx="184" cy="1002.6035" fill="#84BE84" rx="3" ry="3" style="stroke:#038048;stroke-width:1.0;"/><text fill="#000000" font-family="sans-serif" font-size="14" lengthAdjust="spacing" textLength="100" x="193" y="1006.3945">jobReference()</text><ellipse cx="184" cy="1019.0918" fill="#84BE84" rx="3" ry="3" style="stroke:#038048;stroke-width:1.0;"/><text fill="#000000" font-family="sans-serif" font-size="14" lengthAdjust="spacing" textLength="87" x="193" y="1022.8828">description()</text><ellipse cx="184" cy="1035.5801" fill="#84BE84" rx="3" ry="3" style="stroke:#038048;stroke-width:1.0;"/><text fill="#000000" font-family="sans-serif" font-size="14" lengthAdjust="spacing" textLength="130" x="193" y="1039.3711">vacanciesNumber()</text><ellipse cx="184" cy="1052.0684" fill="#84BE84" rx="3" ry="3" style="stroke:#038048;stroke-width:1.0;"/><text fill="#000000" font-family="sans-serif" font-size="14" lengthAdjust="spacing" textLength="64" x="193" y="1055.8594">address()</text><ellipse cx="184" cy="1068.5566" fill="#84BE84" rx="3" ry="3" style="stroke:#038048;stroke-width:1.0;"/><text fill="#000000" font-family="sans-serif" font-size="14" lengthAdjust="spacing" textLength="49" x="193" y="1072.3477">mode()</text><ellipse cx="184" cy="1085.0449" fill="#84BE84" rx="3" ry="3" style="stroke:#038048;stroke-width:1.0;"/><text fill="#000000" font-family="sans-serif" font-size="14" lengthAdjust="spacing" textLength="99" x="193" y="1088.8359">contractType()</text><ellipse cx="184" cy="1101.5332" fill="#84BE84" rx="3" ry="3" style="stroke:#038048;stroke-width:1.0;"/><text fill="#000000" font-family="sans-serif" font-size="14" lengthAdjust="spacing" textLength="113" x="193" y="1105.3242">titleOrFunction()</text></g><!--class JobOpeningRepository--><g id="elem_JobOpeningRepository"><rect codeLine="43" fill="#F1F1F1" height="64.4883" id="JobOpeningRepository" rx="2.5" ry="2.5" style="stroke:#181818;stroke-width:0.5;" width="186" x="267" y="1147.5"/><ellipse cx="282" cy="1163.5" fill="#ADD1B2" rx="11" ry="11" style="stroke:#181818;stroke-width:1.0;"/><path d="M284.9731,1169.1431 Q284.3921,1169.4419 283.7529,1169.5913 Q283.1138,1169.7407 282.4082,1169.7407 Q279.9014,1169.7407 278.5815,1168.0889 Q277.2617,1166.437 277.2617,1163.3159 Q277.2617,1160.1865 278.5815,1158.5347 Q279.9014,1156.8828 282.4082,1156.8828 Q283.1138,1156.8828 283.7612,1157.0322 Q284.4087,1157.1816 284.9731,1157.4805 L284.9731,1160.2031 Q284.3423,1159.6221 283.7488,1159.3523 Q283.1553,1159.0825 282.5244,1159.0825 Q281.1797,1159.0825 280.4949,1160.1492 Q279.8101,1161.2158 279.8101,1163.3159 Q279.8101,1165.4077 280.4949,1166.4744 Q281.1797,1167.541 282.5244,1167.541 Q283.1553,1167.541 283.7488,1167.2712 Q284.3423,1167.0015 284.9731,1166.4204 Z " fill="#000000"/><text fill="#000000" font-family="sans-serif" font-size="14" lengthAdjust="spacing" textLength="154" x="296" y="1168.791">JobOpeningRepository</text><line style="stroke:#181818;stroke-width:0.5;" x1="268" x2="452" y1="1179.5" y2="1179.5"/><line style="stroke:#181818;stroke-width:0.5;" x1="268" x2="452" y1="1187.5" y2="1187.5"/><ellipse cx="278" cy="1201.2441" fill="#84BE84" rx="3" ry="3" style="stroke:#038048;stroke-width:1.0;"/><text fill="#000000" font-family="sans-serif" font-size="14" lengthAdjust="spacing" textLength="114" x="287" y="1205.0352">allJobOpenings()</text></g><!--class JobOpeningService--><g id="elem_JobOpeningService"><rect codeLine="47" fill="#F1F1F1" height="97.4648" id="JobOpeningService" rx="2.5" ry="2.5" style="stroke:#181818;stroke-width:0.5;" width="472" x="124" y="503"/><ellipse cx="291.25" cy="519" fill="#ADD1B2" rx="11" ry="11" style="stroke:#181818;stroke-width:1.0;"/><path d="M294.2231,524.6431 Q293.6421,524.9419 293.0029,525.0913 Q292.3638,525.2407 291.6582,525.2407 Q289.1514,525.2407 287.8315,523.5889 Q286.5117,521.937 286.5117,518.8159 Q286.5117,515.6865 287.8315,514.0347 Q289.1514,512.3828 291.6582,512.3828 Q292.3638,512.3828 293.0112,512.5322 Q293.6587,512.6816 294.2231,512.9805 L294.2231,515.7031 Q293.5923,515.1221 292.9988,514.8523 Q292.4053,514.5825 291.7744,514.5825 Q290.4297,514.5825 289.7449,515.6492 Q289.0601,516.7158 289.0601,518.8159 Q289.0601,520.9077 289.7449,521.9744 Q290.4297,523.041 291.7744,523.041 Q292.4053,523.041 292.9988,522.7712 Q293.5923,522.5015 294.2231,521.9204 Z " fill="#000000"/><text fill="#000000" font-family="sans-serif" font-size="14" lengthAdjust="spacing" textLength="129" x="311.75" y="524.291">JobOpeningService</text><line style="stroke:#181818;stroke-width:0.5;" x1="125" x2="595" y1="535" y2="535"/><line style="stroke:#181818;stroke-width:0.5;" x1="125" x2="595" y1="543" y2="543"/><ellipse cx="135" cy="556.7441" fill="#84BE84" rx="3" ry="3" style="stroke:#038048;stroke-width:1.0;"/><text fill="#000000" font-family="sans-serif" font-size="14" lengthAdjust="spacing" textLength="446" x="144" y="560.5352">registerJobOpening(jobReference, description, vacanciesNumber,</text><text fill="#000000" font-family="sans-serif" font-size="14" lengthAdjust="spacing" textLength="318" x="144" y="577.0234">address, mode, contractType, titleOrFunction);</text><ellipse cx="135" cy="589.7207" fill="#84BE84" rx="3" ry="3" style="stroke:#038048;stroke-width:1.0;"/><text fill="#000000" font-family="sans-serif" font-size="14" lengthAdjust="spacing" textLength="114" x="144" y="593.5117">allJobOpenings()</text></g><!--class JobOpeningBuilder--><g id="elem_JobOpeningBuilder"><rect codeLine="53" fill="#F1F1F1" height="80.9766" id="JobOpeningBuilder" rx="2.5" ry="2.5" style="stroke:#181818;stroke-width:0.5;" width="703" x="8.5" y="635"/><ellipse cx="291.25" cy="651" fill="#ADD1B2" rx="11" ry="11" style="stroke:#181818;stroke-width:1.0;"/><path d="M294.2231,656.6431 Q293.6421,656.9419 293.0029,657.0913 Q292.3638,657.2407 291.6582,657.2407 Q289.1514,657.2407 287.8315,655.5889 Q286.5117,653.937 286.5117,650.8159 Q286.5117,647.6865 287.8315,646.0347 Q289.1514,644.3828 291.6582,644.3828 Q292.3638,644.3828 293.0112,644.5322 Q293.6587,644.6816 294.2231,644.9805 L294.2231,647.7031 Q293.5923,647.1221 292.9988,646.8523 Q292.4053,646.5825 291.7744,646.5825 Q290.4297,646.5825 289.7449,647.6492 Q289.0601,648.7158 289.0601,650.8159 Q289.0601,652.9077 289.7449,653.9744 Q290.4297,655.041 291.7744,655.041 Q292.4053,655.041 292.9988,654.7712 Q293.5923,654.5015 294.2231,653.9204 Z " fill="#000000"/><text fill="#000000" font-family="sans-serif" font-size="14" lengthAdjust="spacing" textLength="129" x="311.75" y="656.291">JobOpeningBuilder</text><line style="stroke:#181818;stroke-width:0.5;" x1="9.5" x2="710.5" y1="667" y2="667"/><line style="stroke:#181818;stroke-width:0.5;" x1="9.5" x2="710.5" y1="675" y2="675"/><ellipse cx="19.5" cy="688.7441" fill="#84BE84" rx="3" ry="3" style="stroke:#038048;stroke-width:1.0;"/><text fill="#000000" font-family="sans-serif" font-size="14" lengthAdjust="spacing" textLength="677" x="28.5" y="692.5352">withAll(jobReference, description, vacanciesNumber, address, mode, contractType, titleOrFunction)</text><ellipse cx="19.5" cy="705.2324" fill="#84BE84" rx="3" ry="3" style="stroke:#038048;stroke-width:1.0;"/><text fill="#000000" font-family="sans-serif" font-size="14" lengthAdjust="spacing" textLength="45" x="28.5" y="709.0234">build()</text></g><!--class AuthorizationService--><g id="elem_AuthorizationService"><rect codeLine="58" fill="#F1F1F1" height="80.9766" id="AuthorizationService" rx="2.5" ry="2.5" style="stroke:#181818;stroke-width:0.5;" width="706" x="7" y="387"/><ellipse cx="284.25" cy="403" fill="#ADD1B2" rx="11" ry="11" style="stroke:#181818;stroke-width:1.0;"/><path d="M287.2231,408.6431 Q286.6421,408.9419 286.0029,409.0913 Q285.3638,409.2407 284.6582,409.2407 Q282.1514,409.2407 280.8315,407.5889 Q279.5117,405.937 279.5117,402.8159 Q279.5117,399.6865 280.8315,398.0347 Q282.1514,396.3828 284.6582,396.3828 Q285.3638,396.3828 286.0112,396.5322 Q286.6587,396.6816 287.2231,396.9805 L287.2231,399.7031 Q286.5923,399.1221 285.9988,398.8523 Q285.4053,398.5825 284.7744,398.5825 Q283.4297,398.5825 282.7449,399.6492 Q282.0601,400.7158 282.0601,402.8159 Q282.0601,404.9077 282.7449,405.9744 Q283.4297,407.041 284.7744,407.041 Q285.4053,407.041 285.9988,406.7712 Q286.5923,406.5015 287.2231,405.9204 Z " fill="#000000"/><text fill="#000000" font-family="sans-serif" font-size="14" lengthAdjust="spacing" textLength="143" x="304.75" y="408.291">AuthorizationService</text><line style="stroke:#181818;stroke-width:0.5;" x1="8" x2="712" y1="419" y2="419"/><line style="stroke:#181818;stroke-width:0.5;" x1="8" x2="712" y1="427" y2="427"/><ellipse cx="18" cy="440.7441" fill="#84BE84" rx="3" ry="3" style="stroke:#038048;stroke-width:1.0;"/><text fill="#000000" font-family="sans-serif" font-size="14" lengthAdjust="spacing" textLength="151" x="27" y="444.5352">authorizationService()</text><ellipse cx="18" cy="457.2324" fill="#84BE84" rx="3" ry="3" style="stroke:#038048;stroke-width:1.0;"/><text fill="#000000" font-family="sans-serif" font-size="14" lengthAdjust="spacing" textLength="680" x="27" y="461.0234">ensureAuthenticatedUserHasAnyOf(Jobs4URoles.CUSTOMER_MANAGER, Jobs4URoles.POWER_USER)</text></g><!--class PersistenceContext--><g id="elem_PersistenceContext"><rect codeLine="63" fill="#F1F1F1" height="80.9766" id="PersistenceContext" rx="2.5" ry="2.5" style="stroke:#181818;stroke-width:0.5;" width="168" x="862" y="238"/><ellipse cx="878.8" cy="254" fill="#ADD1B2" rx="11" ry="11" style="stroke:#181818;stroke-width:1.0;"/><path d="M881.7731,259.6431 Q881.1921,259.9419 880.5529,260.0913 Q879.9138,260.2407 879.2082,260.2407 Q876.7014,260.2407 875.3815,258.5889 Q874.0617,256.937 874.0617,253.8159 Q874.0617,250.6865 875.3815,249.0347 Q876.7014,247.3828 879.2082,247.3828 Q879.9138,247.3828 880.5612,247.5322 Q881.2087,247.6816 881.7731,247.9805 L881.7731,250.7031 Q881.1423,250.1221 880.5488,249.8523 Q879.9553,249.5825 879.3244,249.5825 Q877.9797,249.5825 877.2949,250.6492 Q876.6101,251.7158 876.6101,253.8159 Q876.6101,255.9077 877.2949,256.9744 Q877.9797,258.041 879.3244,258.041 Q879.9553,258.041 880.5488,257.7712 Q881.1423,257.5015 881.7731,256.9204 Z " fill="#000000"/><text fill="#000000" font-family="sans-serif" font-size="14" lengthAdjust="spacing" textLength="132" x="893.2" y="259.291">PersistenceContext</text><line style="stroke:#181818;stroke-width:0.5;" x1="863" x2="1029" y1="270" y2="270"/><line style="stroke:#181818;stroke-width:0.5;" x1="863" x2="1029" y1="278" y2="278"/><ellipse cx="873" cy="291.7441" fill="#84BE84" rx="3" ry="3" style="stroke:#038048;stroke-width:1.0;"/><text fill="#000000" font-family="sans-serif" font-size="14" lengthAdjust="spacing" textLength="92" x="882" y="295.5352">repositories()</text><ellipse cx="873" cy="308.2324" fill="#84BE84" rx="3" ry="3" style="stroke:#038048;stroke-width:1.0;"/><text fill="#000000" font-family="sans-serif" font-size="14" lengthAdjust="spacing" textLength="142" x="882" y="312.0234">PersistenceContext()</text></g><!--class RepositoryFactory--><g id="elem_RepositoryFactory"><rect codeLine="68" fill="#F1F1F1" height="229.3711" id="RepositoryFactory" rx="2.5" ry="2.5" style="stroke:#181818;stroke-width:0.5;" width="346" x="773" y="354"/><ellipse cx="880.25" cy="370" fill="#ADD1B2" rx="11" ry="11" style="stroke:#181818;stroke-width:1.0;"/><path d="M883.2231,375.6431 Q882.6421,375.9419 882.0029,376.0913 Q881.3638,376.2407 880.6582,376.2407 Q878.1514,376.2407 876.8315,374.5889 Q875.5117,372.937 875.5117,369.8159 Q875.5117,366.6865 876.8315,365.0347 Q878.1514,363.3828 880.6582,363.3828 Q881.3638,363.3828 882.0112,363.5322 Q882.6587,363.6816 883.2231,363.9805 L883.2231,366.7031 Q882.5923,366.1221 881.9988,365.8523 Q881.4053,365.5825 880.7744,365.5825 Q879.4297,365.5825 878.7449,366.6492 Q878.0601,367.7158 878.0601,369.8159 Q878.0601,371.9077 878.7449,372.9744 Q879.4297,374.041 880.7744,374.041 Q881.4053,374.041 881.9988,373.7712 Q882.5923,373.5015 883.2231,372.9204 Z " fill="#000000"/><text fill="#000000" font-family="sans-serif" font-size="14" lengthAdjust="spacing" textLength="123" x="900.75" y="375.291">RepositoryFactory</text><line style="stroke:#181818;stroke-width:0.5;" x1="774" x2="1118" y1="386" y2="386"/><line style="stroke:#181818;stroke-width:0.5;" x1="774" x2="1118" y1="394" y2="394"/><ellipse cx="784" cy="407.7441" fill="#84BE84" rx="3" ry="3" style="stroke:#038048;stroke-width:1.0;"/><text fill="#000000" font-family="sans-serif" font-size="14" lengthAdjust="spacing" textLength="186" x="793" y="411.5352">newTransactionalContext()</text><ellipse cx="784" cy="424.2324" fill="#84BE84" rx="3" ry="3" style="stroke:#038048;stroke-width:1.0;"/><text fill="#000000" font-family="sans-serif" font-size="14" lengthAdjust="spacing" textLength="248" x="793" y="428.0234">users(TransactionalContext autoTx)</text><ellipse cx="784" cy="440.7207" fill="#84BE84" rx="3" ry="3" style="stroke:#038048;stroke-width:1.0;"/><text fill="#000000" font-family="sans-serif" font-size="14" lengthAdjust="spacing" textLength="47" x="793" y="444.5117">users()</text><ellipse cx="784" cy="457.209" fill="#84BE84" rx="3" ry="3" style="stroke:#038048;stroke-width:1.0;"/><text fill="#000000" font-family="sans-serif" font-size="14" lengthAdjust="spacing" textLength="313" x="793" y="461">customerUsers(TransactionalContext autoTx)</text><ellipse cx="784" cy="473.6973" fill="#84BE84" rx="3" ry="3" style="stroke:#038048;stroke-width:1.0;"/><text fill="#000000" font-family="sans-serif" font-size="14" lengthAdjust="spacing" textLength="112" x="793" y="477.4883">customerUsers()</text><ellipse cx="784" cy="490.1855" fill="#84BE84" rx="3" ry="3" style="stroke:#038048;stroke-width:1.0;"/><text fill="#000000" font-family="sans-serif" font-size="14" lengthAdjust="spacing" textLength="320" x="793" y="493.9766">signupRequests(TransactionalContext autoTx)</text><ellipse cx="784" cy="506.6738" fill="#84BE84" rx="3" ry="3" style="stroke:#038048;stroke-width:1.0;"/><text fill="#000000" font-family="sans-serif" font-size="14" lengthAdjust="spacing" textLength="119" x="793" y="510.4648">signupRequests()</text><ellipse cx="784" cy="523.1621" fill="#84BE84" rx="3" ry="3" style="stroke:#038048;stroke-width:1.0;"/><text fill="#000000" font-family="sans-serif" font-size="14" lengthAdjust="spacing" textLength="299" x="793" y="526.9531">jobOpenings(TransactionalContext autoTx)</text><ellipse cx="784" cy="539.6504" fill="#84BE84" rx="3" ry="3" style="stroke:#038048;stroke-width:1.0;"/><text fill="#000000" font-family="sans-serif" font-size="14" lengthAdjust="spacing" textLength="98" x="793" y="543.4414">jobOpenings()</text><ellipse cx="784" cy="556.1387" fill="#84BE84" rx="3" ry="3" style="stroke:#038048;stroke-width:1.0;"/><text fill="#000000" font-family="sans-serif" font-size="14" lengthAdjust="spacing" textLength="294" x="793" y="559.9297">applications(TransactionalContext autoTx)</text><ellipse cx="784" cy="572.627" fill="#84BE84" rx="3" ry="3" style="stroke:#038048;stroke-width:1.0;"/><text fill="#000000" font-family="sans-serif" font-size="14" lengthAdjust="spacing" textLength="93" x="793" y="576.418">applications()</text></g><!--link CreateJobOpeningUI to CreateJobOpeningController--><g id="link_CreateJobOpeningUI_CreateJobOpeningController"><path codeLine="83" d="M360,170.46 C360,181.8 360,187.41 360,198.6 " fill="none" id="CreateJobOpeningUI-to-CreateJobOpeningController" style="stroke:#181818;stroke-width:1.0;"/><polygon fill="#181818" points="360,204.6,364,195.6,360,199.6,356,195.6,360,204.6" style="stroke:#181818;stroke-width:1.0;"/></g><!--link CreateJobOpeningController to PersistenceContext--><g id="link_CreateJobOpeningController_PersistenceContext"><path codeLine="85" d="M547.43,278.5 C653.08,278.5 773.87,278.5 855.63,278.5 " fill="none" id="CreateJobOpeningController-to-PersistenceContext" style="stroke:#181818;stroke-width:1.0;"/><polygon fill="#181818" points="861.63,278.5,852.63,274.5,856.63,278.5,852.63,282.5,861.63,278.5" style="stroke:#181818;stroke-width:1.0;"/></g><!--link CreateJobOpeningController to JobOpeningService--><g id="link_CreateJobOpeningController_JobOpeningService"><path codeLine="87" d="M547.29,335.5 C648.51,335.5 753,335.5 753,335.5 C753,335.5 753,543 753,543 C753,543 685.61,543 602.26,543 " fill="none" id="CreateJobOpeningController-to-JobOpeningService" style="stroke:#181818;stroke-width:1.0;"/><polygon fill="#181818" points="596.26,543,605.26,547,601.26,543,605.26,539,596.26,543" style="stroke:#181818;stroke-width:1.0;"/></g><!--link CreateJobOpeningController to AuthorizationService--><g id="link_CreateJobOpeningController_AuthorizationService"><path codeLine="89" d="M360,352.13 C360,364 360,369.91 360,380.64 " fill="none" id="CreateJobOpeningController-to-AuthorizationService" style="stroke:#181818;stroke-width:1.0;"/><polygon fill="#181818" points="360,386.64,364,377.64,360,381.64,356,377.64,360,386.64" style="stroke:#181818;stroke-width:1.0;"/></g><!--link JobOpeningService to JobOpeningRepository--><g id="link_JobOpeningService_JobOpeningRepository"><path codeLine="91" d="M596.49,591.5 C670.4,591.5 733,591.5 733,591.5 C733,591.5 733,1179.5 733,1179.5 C733,1179.5 569.64,1179.5 459.16,1179.5 " fill="none" id="JobOpeningService-to-JobOpeningRepository" style="stroke:#181818;stroke-width:1.0;"/><polygon fill="#181818" points="453.16,1179.5,462.16,1183.5,458.16,1179.5,462.16,1175.5,453.16,1179.5" style="stroke:#181818;stroke-width:1.0;"/></g><!--link JobOpeningService to JobOpeningBuilder--><g id="link_JobOpeningService_JobOpeningBuilder"><path codeLine="93" d="M360,600.15 C360,611.55 360,617.58 360,628.6 " fill="none" id="JobOpeningService-to-JobOpeningBuilder" style="stroke:#181818;stroke-width:1.0;"/><polygon fill="#181818" points="360,634.6,364,625.6,360,629.6,356,625.6,360,634.6" style="stroke:#181818;stroke-width:1.0;"/></g><!--link JobOpeningBuilder to JobOpening--><g id="link_JobOpeningBuilder_JobOpening"><path codeLine="95" d="M360,716.35 C360,726.58 360,732.23 360,744.69 " fill="none" id="JobOpeningBuilder-to-JobOpening" style="stroke:#181818;stroke-width:1.0;"/><polygon fill="#181818" points="360,750.69,364,741.69,360,745.69,356,741.69,360,750.69" style="stroke:#181818;stroke-width:1.0;"/></g><!--link PersistenceContext to RepositoryFactory--><g id="link_PersistenceContext_RepositoryFactory"><path codeLine="97" d="M946,319.26 C946,329.73 946,335.52 946,347.76 " fill="none" id="PersistenceContext-to-RepositoryFactory" style="stroke:#181818;stroke-width:1.0;"/><polygon fill="#181818" points="946,353.76,950,344.76,946,348.76,942,344.76,946,353.76" style="stroke:#181818;stroke-width:1.0;"/></g><!--SRC=[nLLBZzCm4BxdL_YOrQQSk26jb2rTOAMsgxI12n9oasdhujZ1ThOR4FyTEq-x2TrMGYAdU9xVp7mUo- -4vLZW3572G9Kv82xKddiKjWefZWJPxHLAYO144SuyBw5OIZGLW1Kyyiqo1qROBlw4Vdb8VxSevQizF_etpL7gmvod81t9b3CbSABMEcElmMdQX_GFV1F15WIm10Aa8oI2v0P4K9a_umIpX81S5Da6H62y1KWPeCoa2r1YvmZGLwQ8eh0K3mMhQccoxW6dfdYDulVVoglWSaf1T6KAoBaaYWjY5P3mBCVCbcm9IwULjBmlfngONzkK2vp1_wgxgxFFMjSrGIibpEbzdzMHVtQJExgmnb7BpCZhFtlKjMJjugc5ZrRLdbUrvUAU_1igt2AIWj6KVdEMUaQXzFdceDdVo6mahPs5fnMTG6h53R3sQE2r_pR6LdO2qnyTNTGoiUp8YIdjzNBSRGNYcIHW4Nf7f09nKTS7BQ-2E6rtknwSrdBpxWgizmMXgNNvZaJjGqgl0NWTk2RFnkIr8OM5New2_CJ6whI3U4JPBG9WiX1W_0t74hrUqbY2-8XboChbrjV5ohTnn2d8DzDujLxEPz6tURW8FyoY0DdQf-KNhOfNiyW2zWH2cl7fHfWB1o_g_AOQsjjbzfHwq2socSNWk1QOILpr2TFUkTONkYRfZvcOzl3rYslOBSv2Afw1Y2zrTnswfuNiM957yAC0gIwAS-BHYWyM8o-8Sd08tB0XpwcPitQxA8PZNyt26tbb9tTd7gUXX_LmJRJhSEhdNUw6- -8rXx4Rudd3jUF4xldsgccp2coxTZiuTfutSYMqnO3QtXy0]--></g></svg>