<?xml version="1.0" encoding="us-ascii" standalone="no"?><svg xmlns="http://www.w3.org/2000/svg" xmlns:xlink="http://www.w3.org/1999/xlink" contentStyleType="text/css" height="636.6px" preserveAspectRatio="none" style="width:636px;height:636px;background:#FFFFFF;" version="1.1" viewBox="0 0 636 636" width="636.6px" zoomAndPan="magnify"><defs/><g><text fill="#000000" font-family="sans-serif" font-size="8.4" font-weight="bold" lengthAdjust="spacing" textLength="63" x="282.6" y="14.1211">Domain Model</text><!--cluster Job Requirements Specification Aggregate--><g id="cluster_Job Requirements Specification Aggregate"><rect fill="none" height="69" rx="1.5" ry="1.5" style="stroke:#000000;stroke-width:0.8999999999999999;" width="330" x="4.2" y="26.693"/><text fill="#000000" font-family="sans-serif" font-size="8.4" font-weight="bold" lengthAdjust="spacing" textLength="182.4" x="78" y="36.0141">Job Requirements Specification Aggregate</text></g><!--cluster Job Opening Aggregate--><g id="cluster_Job Opening Aggregate"><rect fill="none" height="409.8" rx="1.5" ry="1.5" style="stroke:#000000;stroke-width:0.8999999999999999;" width="387.9" x="245.1" y="110.093"/><text fill="#000000" font-family="sans-serif" font-size="8.4" font-weight="bold" lengthAdjust="spacing" textLength="100.8" x="388.65" y="119.4141">Job Opening Aggregate</text></g><!--cluster Customer Manager Aggregate--><g id="cluster_Customer Manager Aggregate"><rect fill="none" height="99" rx="1.5" ry="1.5" style="stroke:#000000;stroke-width:0.8999999999999999;" width="326.7" x="27.3" y="534.293"/><text fill="#000000" font-family="sans-serif" font-size="8.4" font-weight="bold" lengthAdjust="spacing" textLength="128.4" x="126.45" y="543.6141">Customer Manager Aggregate</text></g><!--class JobRequirementsSpecification--><g id="elem_JobRequirementsSpecification"><rect codeLine="27" fill="#F0FFFF" height="37.6523" id="JobRequirementsSpecification" rx="1.5" ry="1.5" style="stroke:#000000;stroke-width:0.3;" width="141.6" x="13.8" y="47.993"/><ellipse cx="22.8" cy="64.4191" fill="#ADD1B2" rx="6.6" ry="6.6" style="stroke:#181818;stroke-width:0.6;"/><path d="M25.2686,68.0191 L20.6367,68.0191 L20.6367,60.5833 L25.2686,60.5833 L25.2686,61.8782 L22.106,61.8782 L22.106,63.4819 L24.9697,63.4819 L24.9697,64.7769 L22.106,64.7769 L22.106,66.7242 L25.2686,66.7242 Z " fill="#000000"/><text fill="#000000" font-family="sans-serif" font-size="7.2" font-style="italic" lengthAdjust="spacing" textLength="25.8" x="79.5" y="57.9539">&#171;entity&#187;</text><text fill="#000000" font-family="sans-serif" font-size="7.2" font-style="italic" lengthAdjust="spacing" textLength="21" x="81.9" y="66.4336">&#171;root&#187;</text><text fill="#000000" font-family="sans-serif" font-size="8.4" lengthAdjust="spacing" textLength="122.4" x="31.2" y="76.0734">JobRequirementsSpecification</text><line style="stroke:#000000;stroke-width:0.3;" x1="14.4" x2="154.8" y1="80.8453" y2="80.8453"/></g><!--entity Requirements--><g id="elem_Requirements"><rect fill="#F0FFDD" height="23.3859" rx="1.5" ry="1.5" style="stroke:#000000;stroke-width:0.3;" width="72" x="252.6" y="55.193"/><text fill="#000000" font-family="sans-serif" font-size="8.4" font-style="italic" lengthAdjust="spacing" textLength="60" x="258.6" y="65.1141">&#171;Value Object&#187;</text><text fill="#000000" font-family="sans-serif" font-size="8.4" lengthAdjust="spacing" textLength="57" x="260.1" y="75.007">Requirements</text></g><!--class JobOpening--><g id="elem_JobOpening"><rect codeLine="37" fill="#F0FFFF" height="37.6523" id="JobOpening" rx="1.5" ry="1.5" style="stroke:#000000;stroke-width:0.3;" width="67.8" x="254.7" y="301.793"/><ellipse cx="263.7" cy="318.2191" fill="#ADD1B2" rx="6.6" ry="6.6" style="stroke:#181818;stroke-width:0.6;"/><path d="M266.1686,321.8191 L261.5367,321.8191 L261.5367,314.3833 L266.1686,314.3833 L266.1686,315.6782 L263.006,315.6782 L263.006,317.2819 L265.8697,317.2819 L265.8697,318.5769 L263.006,318.5769 L263.006,320.5242 L266.1686,320.5242 Z " fill="#000000"/><text fill="#000000" font-family="sans-serif" font-size="7.2" font-style="italic" lengthAdjust="spacing" textLength="25.8" x="283.5" y="311.7539">&#171;entity&#187;</text><text fill="#000000" font-family="sans-serif" font-size="7.2" font-style="italic" lengthAdjust="spacing" textLength="21" x="285.9" y="320.2336">&#171;root&#187;</text><text fill="#000000" font-family="sans-serif" font-size="8.4" lengthAdjust="spacing" textLength="48.6" x="272.1" y="329.8734">JobOpening</text><line style="stroke:#000000;stroke-width:0.3;" x1="255.3" x2="321.9" y1="334.6453" y2="334.6453"/></g><g id="elem_GMN26"><path d="M504,403.493 L504,413.249 L461.04,412.289 L504,418.049 L504,437.052 A0,0 0 0 0 504,437.052 L623.4,437.052 A0,0 0 0 0 623.4,437.052 L623.4,409.493 L617.4,403.493 L504,403.493 A0,0 0 0 0 504,403.493 " fill="#FEFFDD" style="stroke:#181818;stroke-width:0.3;"/><path d="M617.4,403.493 L617.4,409.493 L623.4,409.493 L617.4,403.493 " fill="#FEFFDD" style="stroke:#181818;stroke-width:0.3;"/><text fill="#000000" font-family="sans-serif" font-size="7.8" lengthAdjust="spacing" textLength="106.8" x="507.6" y="414.034">Can be one of the following:</text><text fill="#000000" font-family="sans-serif" font-size="7.8" lengthAdjust="spacing" textLength="41.4" x="507.6" y="423.2203">- full-time</text><text fill="#000000" font-family="sans-serif" font-size="7.8" lengthAdjust="spacing" textLength="43.8" x="507.6" y="432.4066">- part-time</text></g><g id="elem_GMN29"><path d="M504,339.593 L504,360.299 L461.04,364.007 L504,365.099 L504,382.3383 A0,0 0 0 0 504,382.3383 L623.4,382.3383 A0,0 0 0 0 623.4,382.3383 L623.4,345.593 L617.4,339.593 L504,339.593 A0,0 0 0 0 504,339.593 " fill="#FEFFDD" style="stroke:#181818;stroke-width:0.3;"/><path d="M617.4,339.593 L617.4,345.593 L623.4,345.593 L617.4,339.593 " fill="#FEFFDD" style="stroke:#181818;stroke-width:0.3;"/><text fill="#000000" font-family="sans-serif" font-size="7.8" lengthAdjust="spacing" textLength="106.8" x="507.6" y="350.134">Can be one of the following:</text><text fill="#000000" font-family="sans-serif" font-size="7.8" lengthAdjust="spacing" textLength="33.6" x="507.6" y="359.3203">- remote</text><text fill="#000000" font-family="sans-serif" font-size="7.8" lengthAdjust="spacing" textLength="31.2" x="507.6" y="368.5066">- hybrid</text><text fill="#000000" font-family="sans-serif" font-size="7.8" lengthAdjust="spacing" textLength="30.6" x="507.6" y="377.693">- onsite</text></g><g id="elem_GMN32"><path d="M504,131.093 L504,156.419 L461.04,150.239 L504,161.219 L504,210.5836 A0,0 0 0 0 504,210.5836 L623.4,210.5836 A0,0 0 0 0 623.4,210.5836 L623.4,137.093 L617.4,131.093 L504,131.093 A0,0 0 0 0 504,131.093 " fill="#FEFFDD" style="stroke:#181818;stroke-width:0.3;"/><path d="M617.4,131.093 L617.4,137.093 L623.4,137.093 L617.4,131.093 " fill="#FEFFDD" style="stroke:#181818;stroke-width:0.3;"/><text fill="#000000" font-family="sans-serif" font-size="7.8" lengthAdjust="spacing" textLength="106.8" x="507.6" y="141.634">Can be one of the following:</text><text fill="#000000" font-family="sans-serif" font-size="7.8" lengthAdjust="spacing" textLength="78.6" x="507.6" y="150.8203">- ScreeningStartDate</text><text fill="#000000" font-family="sans-serif" font-size="7.8" lengthAdjust="spacing" textLength="75" x="507.6" y="160.0066">- ScreeningEndDate</text><text fill="#000000" font-family="sans-serif" font-size="7.8" lengthAdjust="spacing" textLength="80.4" x="507.6" y="169.193">- InterviewsStartDate</text><text fill="#000000" font-family="sans-serif" font-size="7.8" lengthAdjust="spacing" textLength="76.8" x="507.6" y="178.3793">- InterviewsEndDate</text><text fill="#000000" font-family="sans-serif" font-size="7.8" lengthAdjust="spacing" textLength="73.8" x="507.6" y="187.5656">- AnalysisStartDate</text><text fill="#000000" font-family="sans-serif" font-size="7.8" lengthAdjust="spacing" textLength="70.2" x="507.6" y="196.752">- AnalysisEndDate</text><text fill="#000000" font-family="sans-serif" font-size="7.8" lengthAdjust="spacing" textLength="48" x="507.6" y="205.9383">- ResultDate</text></g><g id="elem_GMN35"><path d="M504,231.293 L504,292.4109 L623.4,292.4109 L623.4,237.293 L617.4,231.293 L504,231.293 " fill="#FEFFDD" style="stroke:#181818;stroke-width:0.3;"/><path d="M617.4,231.293 L617.4,237.293 L623.4,237.293 L617.4,231.293 " fill="#FEFFDD" style="stroke:#181818;stroke-width:0.6;"/><text fill="#000000" font-family="sans-serif" font-size="7.8" lengthAdjust="spacing" textLength="106.8" x="507.6" y="241.834">Can be one of the following:</text><text fill="#000000" font-family="sans-serif" font-size="7.8" lengthAdjust="spacing" textLength="50.4" x="507.6" y="251.0203">- Application</text><text fill="#000000" font-family="sans-serif" font-size="7.8" lengthAdjust="spacing" textLength="43.8" x="507.6" y="260.2066">- Screening</text><text fill="#000000" font-family="sans-serif" font-size="7.8" lengthAdjust="spacing" textLength="45.6" x="507.6" y="269.393">- Interviews</text><text fill="#000000" font-family="sans-serif" font-size="7.8" lengthAdjust="spacing" textLength="39" x="507.6" y="278.5793">- Analysis</text><text fill="#000000" font-family="sans-serif" font-size="7.8" lengthAdjust="spacing" textLength="30.6" x="507.6" y="287.7656">- Result</text></g><!--entity JobReference--><g id="elem_JobReference"><rect fill="#F0FFDD" height="23.3859" rx="1.5" ry="1.5" style="stroke:#000000;stroke-width:0.3;" width="72" x="388.8" y="486.593"/><text fill="#000000" font-family="sans-serif" font-size="8.4" font-style="italic" lengthAdjust="spacing" textLength="60" x="394.8" y="496.5141">&#171;Value Object&#187;</text><text fill="#000000" font-family="sans-serif" font-size="8.4" lengthAdjust="spacing" textLength="54" x="397.8" y="506.407">JobReference</text></g><!--entity TitleOrFunction--><g id="elem_TitleOrFunction"><rect fill="#F0FFDD" height="23.3859" rx="1.5" ry="1.5" style="stroke:#000000;stroke-width:0.3;" width="76.2" x="386.7" y="442.193"/><text fill="#000000" font-family="sans-serif" font-size="8.4" font-style="italic" lengthAdjust="spacing" textLength="60" x="394.8" y="452.1141">&#171;Value Object&#187;</text><text fill="#000000" font-family="sans-serif" font-size="8.4" lengthAdjust="spacing" textLength="64.2" x="392.7" y="462.007">TitleOrFunction</text></g><!--entity ContractType--><g id="elem_ContractType"><rect fill="#F0FFDD" height="23.3859" rx="1.5" ry="1.5" style="stroke:#000000;stroke-width:0.3;" width="72" x="388.8" y="397.793"/><text fill="#000000" font-family="sans-serif" font-size="8.4" font-style="italic" lengthAdjust="spacing" textLength="60" x="394.8" y="407.7141">&#171;Value Object&#187;</text><text fill="#000000" font-family="sans-serif" font-size="8.4" lengthAdjust="spacing" textLength="55.2" x="397.2" y="417.607">ContractType</text></g><!--entity Mode--><g id="elem_Mode"><rect fill="#F0FFDD" height="23.3859" rx="1.5" ry="1.5" style="stroke:#000000;stroke-width:0.3;" width="72" x="388.8" y="353.393"/><text fill="#000000" font-family="sans-serif" font-size="8.4" font-style="italic" lengthAdjust="spacing" textLength="60" x="394.8" y="363.3141">&#171;Value Object&#187;</text><text fill="#000000" font-family="sans-serif" font-size="8.4" lengthAdjust="spacing" textLength="22.8" x="413.4" y="373.207">Mode</text></g><!--entity Address--><g id="elem_Address"><rect fill="#F0FFDD" height="23.3859" rx="1.5" ry="1.5" style="stroke:#000000;stroke-width:0.3;" width="72" x="388.8" y="308.993"/><text fill="#000000" font-family="sans-serif" font-size="8.4" font-style="italic" lengthAdjust="spacing" textLength="60" x="394.8" y="318.9141">&#171;Value Object&#187;</text><text fill="#000000" font-family="sans-serif" font-size="8.4" lengthAdjust="spacing" textLength="33.6" x="408" y="328.807">Address</text></g><!--entity VacanciesNumber--><g id="elem_VacanciesNumber"><rect fill="#F0FFDD" height="23.3859" rx="1.5" ry="1.5" style="stroke:#000000;stroke-width:0.3;" width="85.2" x="382.2" y="264.593"/><text fill="#000000" font-family="sans-serif" font-size="8.4" font-style="italic" lengthAdjust="spacing" textLength="60" x="394.8" y="274.5141">&#171;Value Object&#187;</text><text fill="#000000" font-family="sans-serif" font-size="8.4" lengthAdjust="spacing" textLength="73.2" x="388.2" y="284.407">VacanciesNumber</text></g><!--entity Description--><g id="elem_Description"><rect fill="#F0FFDD" height="23.3859" rx="1.5" ry="1.5" style="stroke:#000000;stroke-width:0.3;" width="72" x="388.8" y="220.193"/><text fill="#000000" font-family="sans-serif" font-size="8.4" font-style="italic" lengthAdjust="spacing" textLength="60" x="394.8" y="230.1141">&#171;Value Object&#187;</text><text fill="#000000" font-family="sans-serif" font-size="8.4" lengthAdjust="spacing" textLength="46.8" x="401.4" y="240.007">Description</text></g><!--entity ProcessState--><g id="elem_ProcessState"><rect fill="#F0FFDD" height="23.3859" rx="1.5" ry="1.5" style="stroke:#000000;stroke-width:0.3;" width="72" x="388.8" y="175.793"/><text fill="#000000" font-family="sans-serif" font-size="8.4" font-style="italic" lengthAdjust="spacing" textLength="60" x="394.8" y="185.7141">&#171;Value Object&#187;</text><text fill="#000000" font-family="sans-serif" font-size="8.4" lengthAdjust="spacing" textLength="51.6" x="399" y="195.607">ProcessState</text></g><!--entity ProcessDate--><g id="elem_ProcessDate"><rect fill="#F0FFDD" height="23.3859" rx="1.5" ry="1.5" style="stroke:#000000;stroke-width:0.3;" width="72" x="388.8" y="131.393"/><text fill="#000000" font-family="sans-serif" font-size="8.4" font-style="italic" lengthAdjust="spacing" textLength="60" x="394.8" y="141.3141">&#171;Value Object&#187;</text><text fill="#000000" font-family="sans-serif" font-size="8.4" lengthAdjust="spacing" textLength="49.8" x="399.9" y="151.207">ProcessDate</text></g><!--class CustomerManager--><g id="elem_CustomerManager"><rect codeLine="104" fill="#F0FFFF" height="37.6523" id="CustomerManager" rx="1.5" ry="1.5" style="stroke:#000000;stroke-width:0.3;" width="95.4" x="36.9" y="555.593"/><ellipse cx="45.9" cy="572.0191" fill="#ADD1B2" rx="6.6" ry="6.6" style="stroke:#181818;stroke-width:0.6;"/><path d="M48.3686,575.6191 L43.7367,575.6191 L43.7367,568.1833 L48.3686,568.1833 L48.3686,569.4782 L45.206,569.4782 L45.206,571.0819 L48.0697,571.0819 L48.0697,572.3769 L45.206,572.3769 L45.206,574.3242 L48.3686,574.3242 Z " fill="#000000"/><text fill="#000000" font-family="sans-serif" font-size="7.2" font-style="italic" lengthAdjust="spacing" textLength="25.8" x="79.5" y="565.5539">&#171;entity&#187;</text><text fill="#000000" font-family="sans-serif" font-size="7.2" font-style="italic" lengthAdjust="spacing" textLength="21" x="81.9" y="574.0336">&#171;root&#187;</text><text fill="#000000" font-family="sans-serif" font-size="8.4" lengthAdjust="spacing" textLength="76.2" x="54.3" y="583.6734">CustomerManager</text><line style="stroke:#000000;stroke-width:0.3;" x1="37.5" x2="131.7" y1="588.4453" y2="588.4453"/></g><!--entity CustomerManagerEmail--><g id="elem_CustomerManagerEmail"><rect fill="#F0FFDD" height="23.3859" rx="1.5" ry="1.5" style="stroke:#000000;stroke-width:0.3;" width="110.4" x="233.4" y="599.993"/><text fill="#000000" font-family="sans-serif" font-size="8.4" font-style="italic" lengthAdjust="spacing" textLength="60" x="258.6" y="609.9141">&#171;Value Object&#187;</text><text fill="#000000" font-family="sans-serif" font-size="8.4" lengthAdjust="spacing" textLength="98.4" x="239.4" y="619.807">CustomerManagerEmail</text></g><!--entity CustomerManagerName--><g id="elem_CustomerManagerName"><rect fill="#F0FFDD" height="23.3859" rx="1.5" ry="1.5" style="stroke:#000000;stroke-width:0.3;" width="111.6" x="232.8" y="555.593"/><text fill="#000000" font-family="sans-serif" font-size="8.4" font-style="italic" lengthAdjust="spacing" textLength="60" x="258.6" y="565.5141">&#171;Value Object&#187;</text><text fill="#000000" font-family="sans-serif" font-size="8.4" lengthAdjust="spacing" textLength="99.6" x="238.8" y="575.407">CustomerManagerName</text></g><!--link JobRequirementsSpecification to Requirements--><g id="link_JobRequirementsSpecification_Requirements"><path codeLine="32" d="M155.562,66.893 C188.28,66.893 222.168,66.893 248.892,66.893 " fill="none" id="JobRequirementsSpecification-to-Requirements" style="stroke:#808080;stroke-width:0.6;"/><polygon fill="#808080" points="252.492,66.893,247.092,64.493,249.492,66.893,247.092,69.293,252.492,66.893" style="stroke:#808080;stroke-width:0.6;"/></g><!--link JobOpening to JobReference--><g id="link_JobOpening_JobReference"><path codeLine="58" d="M296.526,339.659 C309.576,371.363 339.54,435.635 382.2,476.093 C386.328,480.011 388.1657,481.6261 393.1997,484.5301 " fill="none" id="JobOpening-to-JobReference" style="stroke:#808080;stroke-width:0.6;"/><polygon fill="#808080" points="396.318,486.329,392.8398,481.5517,393.7194,484.8299,390.4412,485.7095,396.318,486.329" style="stroke:#808080;stroke-width:0.6;"/></g><!--link JobOpening to TitleOrFunction--><g id="link_JobOpening_TitleOrFunction"><path codeLine="59" d="M301.662,339.713 C317.97,363.509 348.474,404.429 382.2,431.693 C386.946,435.527 389.3081,437.2615 394.7441,440.2615 " fill="none" id="JobOpening-to-TitleOrFunction" style="stroke:#808080;stroke-width:0.6;"/><polygon fill="#808080" points="397.896,442.001,394.3278,437.2905,395.2694,440.5514,392.0086,441.4931,397.896,442.001" style="stroke:#808080;stroke-width:0.6;"/></g><!--link JobOpening to ContractType--><g id="link_JobOpening_ContractType"><path codeLine="60" d="M314.028,339.875 C332.406,353.723 358.302,372.515 382.2,387.293 C387.954,390.851 391.1451,392.7233 397.1571,395.9093 " fill="none" id="JobOpening-to-ContractType" style="stroke:#808080;stroke-width:0.6;"/><polygon fill="#808080" points="400.338,397.595,396.6904,392.9458,397.6872,396.1902,394.4428,397.187,400.338,397.595" style="stroke:#808080;stroke-width:0.6;"/></g><!--link JobOpening to Mode--><g id="link_JobOpening_Mode"><path codeLine="61" d="M322.746,331.727 C342.816,338.327 364.878,345.5847 385.284,352.2927 " fill="none" id="JobOpening-to-Mode" style="stroke:#808080;stroke-width:0.6;"/><polygon fill="#808080" points="388.704,353.417,384.3236,349.4507,385.854,352.4801,382.8246,354.0106,388.704,353.417" style="stroke:#808080;stroke-width:0.6;"/></g><!--link JobOpening to Address--><g id="link_JobOpening_Address"><path codeLine="62" d="M322.746,320.693 C342.816,320.693 364.698,320.693 385.104,320.693 " fill="none" id="JobOpening-to-Address" style="stroke:#808080;stroke-width:0.6;"/><polygon fill="#808080" points="388.704,320.693,383.304,318.293,385.704,320.693,383.304,323.093,388.704,320.693" style="stroke:#808080;stroke-width:0.6;"/></g><!--link JobOpening to VacanciesNumber--><g id="link_JobOpening_VacanciesNumber"><path codeLine="63" d="M322.746,309.659 C342.498,303.161 364.0863,296.066 384.3303,289.406 " fill="none" id="JobOpening-to-VacanciesNumber" style="stroke:#808080;stroke-width:0.6;"/><polygon fill="#808080" points="387.75,288.281,381.8704,287.6887,384.9003,289.2185,383.3705,292.2483,387.75,288.281" style="stroke:#808080;stroke-width:0.6;"/></g><!--link JobOpening to Description--><g id="link_JobOpening_Description"><path codeLine="64" d="M314.028,301.511 C332.406,287.663 358.302,268.871 382.2,254.093 C387.954,250.535 391.1451,248.6627 397.1571,245.4767 " fill="none" id="JobOpening-to-Description" style="stroke:#808080;stroke-width:0.6;"/><polygon fill="#808080" points="400.338,243.791,394.4428,244.1989,397.6872,245.1957,396.6904,248.4402,400.338,243.791" style="stroke:#808080;stroke-width:0.6;"/></g><!--link JobOpening to ProcessState--><g id="link_JobOpening_ProcessState"><path codeLine="65" d="M301.662,301.673 C317.97,277.877 348.474,236.957 382.2,209.693 C386.946,205.859 389.3081,204.1244 394.7441,201.1244 " fill="none" id="JobOpening-to-ProcessState" style="stroke:#808080;stroke-width:0.6;"/><polygon fill="#808080" points="397.896,199.385,392.0086,199.8929,395.2694,200.8345,394.3278,204.0954,397.896,199.385" style="stroke:#808080;stroke-width:0.6;"/></g><!--link JobOpening to ProcessDate--><g id="link_JobOpening_ProcessDate"><path codeLine="66" d="M296.526,301.727 C309.576,270.023 339.54,205.751 382.2,165.293 C386.328,161.375 388.1657,159.7599 393.1997,156.8559 " fill="none" id="JobOpening-to-ProcessDate" style="stroke:#808080;stroke-width:0.6;"/><polygon fill="#808080" points="396.318,155.057,390.4412,155.6764,393.7194,156.556,392.8398,159.8342,396.318,155.057" style="stroke:#808080;stroke-width:0.6;"/></g><!--link ProcessState to GMN35--><g id="link_ProcessState_GMN35"><path d="M448.098,199.421 C454.362,202.733 461.154,206.339 467.4,209.693 C480.156,216.545 493.836,223.961 506.742,230.993 " fill="none" id="ProcessState-GMN35" style="stroke:#808080;stroke-width:0.6;stroke-dasharray:7.0,7.0;"/></g><!--link CustomerManager to CustomerManagerEmail--><g id="link_CustomerManager_CustomerManagerEmail"><path codeLine="111" d="M132.492,583.169 C162.63,588.695 198.2451,595.2271 229.7271,601.0051 " fill="none" id="CustomerManager-to-CustomerManagerEmail" style="stroke:#808080;stroke-width:0.6;"/><polygon fill="#808080" points="233.268,601.655,228.39,598.3196,230.3173,601.1134,227.5235,603.0407,233.268,601.655" style="stroke:#808080;stroke-width:0.6;"/></g><!--link CustomerManager to CustomerManagerName--><g id="link_CustomerManager_CustomerManagerName"><path codeLine="112" d="M132.492,572.813 C162.396,571.751 197.5823,570.505 228.9383,569.389 " fill="none" id="CustomerManager-to-CustomerManagerName" style="stroke:#808080;stroke-width:0.6;"/><polygon fill="#808080" points="232.536,569.261,227.0541,567.0546,229.5379,569.3677,227.2248,571.8515,232.536,569.261" style="stroke:#808080;stroke-width:0.6;"/></g><!--reverse link JobRequirementsSpecification to JobOpening--><g id="link_JobRequirementsSpecification_JobOpening"><path codeLine="115" d="M102.6873,88.7794 C140.3193,135.8734 235.05,254.429 272.718,301.571 " fill="none" id="JobRequirementsSpecification-backto-JobOpening" style="stroke:#808080;stroke-width:0.6;"/><polygon fill="#808080" points="100.44,85.967,101.9361,91.6838,102.3128,88.3106,105.6859,88.6873,100.44,85.967" style="stroke:#808080;stroke-width:0.6;"/><text fill="#000000" font-family="sans-serif" font-size="7.8" lengthAdjust="spacing" textLength="40.2" x="174" y="177.034">associated</text><text fill="#000000" font-family="sans-serif" font-size="7.8" lengthAdjust="spacing" textLength="4.8" x="98.202" y="98.0336">1</text><text fill="#000000" font-family="sans-serif" font-size="7.8" lengthAdjust="spacing" textLength="6" x="262.8236" y="295.2744">N</text></g><!--link CustomerManager to JobOpening--><g id="link_CustomerManager_JobOpening"><path codeLine="117" d="M100.44,555.419 C138.072,508.325 232.8028,389.7694 270.4708,342.6274 " fill="none" id="CustomerManager-to-JobOpening" style="stroke:#808080;stroke-width:0.6;"/><polygon fill="#808080" points="272.718,339.815,267.4722,342.5355,270.8453,342.1587,271.2221,345.5318,272.718,339.815" style="stroke:#808080;stroke-width:0.6;"/><text fill="#000000" font-family="sans-serif" font-size="7.8" lengthAdjust="spacing" textLength="33.6" x="177.3" y="415.834">manages</text><text fill="#000000" font-family="sans-serif" font-size="7.8" lengthAdjust="spacing" textLength="4.8" x="98.412" y="549.1323">1</text><text fill="#000000" font-family="sans-serif" font-size="7.8" lengthAdjust="spacing" textLength="6" x="263.2366" y="351.7421">N</text></g><!--SRC=[fLPDRzim3BthLmZUOQS0sxKm3AH9MtHeaw8fTbTanj4gIvuahmYA_lTHTjp8YU9uc8xauyTxb2blHGwq1BVLkIKIDeuwJOqejexcmW1tGYlorRuALJ73IYg50hUhW6g3COIy22U19dDTCg7eeyv19eGSy5moQ-axeNWUn0OUCFvQcnpCJ4jjw9oPrsjPGn_0-6jXTAto5ZHzUdgudqrVxfUB1dVi_tBxxHPFuviQezzQSs5Wr-A3Wck9mUGZxB522ojWvNP8nNDcgf3GOy5CFa3YpW2e_sSmdnypyEhSnLXSTop8ldcQ_D1h-Wo_QvnQ2SfPkgg0YutWpC-GJWkKes0EadU2Rk5s52F2W3u-JLjKbgMfqTfb6McwQAJerKdJdmmdI9VhNwXTbhKwVRHmVmRhJ2PPBntnh7gabXKeeOep33hlOBzD1nime3YSz4kxXZ_XpQLUcjjQyRqMbo9cMZd3k7lndyPbkFzEHi2cUMx0sX78dumpnGNOHLskmOo8c8FbHbGZ-JqPpR6JbKFvnyFdWsYolnlT1FrD20SLynzD9WO9Hn7pU-rZzhtOCTUHkZ5886VC7UetuFU2jReeZTArUrXlJZdvCsEAhd4HA_0GjmMwqLBgDynvzGcQq4qjvSI94W8RRZLti87ActgnofzgZI-9-V5RrWv2otQtDY8FBLfPuIut42f3JywuXeAgA-vtDRfn5CQToHh0RbH-5dIl79W_0jxiSB83RYZRL36vi-92hWurbEaPR2qFAKQeUxYN_omijbHLSh_DoHaLoJb1I9mTYH7ga-czVRFQEbtYtdja2WqczbPqc0uo-60SWM_mxqQEUGRwOGjMNjf_nrqr6onIV2pOboI7tNh-tKs-9pITJ6YoIC9bT4NnVqrpWTBbyGvze2zy4bWs04l-0W00]--></g></svg>