<?xml version="1.0" encoding="us-ascii" standalone="no"?><svg xmlns="http://www.w3.org/2000/svg" xmlns:xlink="http://www.w3.org/1999/xlink" contentStyleType="text/css" height="680px" preserveAspectRatio="none" style="width:1466px;height:680px;background:#FFFFFF;" version="1.1" viewBox="0 0 1466 680" width="1466.4px" zoomAndPan="magnify"><defs/><g><rect fill="#FFFFFF" height="514.7625" style="stroke:#181818;stroke-width:0.8000000000000002;" width="8" x="54.8" y="75.1813"/><rect fill="#FFFFFF" height="23.4484" style="stroke:#181818;stroke-width:0.8000000000000002;" width="8" x="413.2" y="92.2297"/><rect fill="#FFFFFF" height="438.5688" style="stroke:#181818;stroke-width:0.8000000000000002;" width="8" x="413.2" y="151.375"/><rect fill="#FFFFFF" height="367.175" style="stroke:#181818;stroke-width:0.8000000000000002;" width="8" x="697.2" y="199.3203"/><rect fill="#FFFFFF" height="23.4484" style="stroke:#181818;stroke-width:0.8000000000000002;" width="8" x="847.6" y="222.7688"/><rect fill="#FFFFFF" height="23.4484" style="stroke:#181818;stroke-width:0.8000000000000002;" width="8" x="968.8" y="269.6656"/><rect fill="#FFFFFF" height="23.4484" style="stroke:#181818;stroke-width:0.8000000000000002;" width="8" x="1090" y="336.0109"/><rect fill="#FFFFFF" height="23.4484" style="stroke:#181818;stroke-width:0.8000000000000002;" width="8" x="1193.6" y="407.9563"/><rect fill="#FFFFFF" height="23.4484" style="stroke:#181818;stroke-width:0.8000000000000002;" width="8" x="1282.4" y="472.7016"/><rect fill="#FFFFFF" height="23.4484" style="stroke:#181818;stroke-width:0.8000000000000002;" width="8" x="1398" y="519.5984"/><rect fill="none" height="60.7453" style="stroke:#000000;stroke-width:1.2000000000000002;" width="551.2" x="609.2" y="305.1141"/><rect fill="none" height="60.7453" style="stroke:#000000;stroke-width:1.2000000000000002;" width="633.6" x="609.2" y="377.0594"/><line style="stroke:#181818;stroke-width:0.4000000000000001;stroke-dasharray:5.0,5.0;" x1="58.4" x2="58.4" y1="67.1813" y2="604.3438"/><line style="stroke:#181818;stroke-width:0.4000000000000001;stroke-dasharray:5.0,5.0;" x1="417.2" x2="417.2" y1="67.1813" y2="604.3438"/><line style="stroke:#181818;stroke-width:0.4000000000000001;stroke-dasharray:5.0,5.0;" x1="701.2" x2="701.2" y1="67.1813" y2="604.3438"/><line style="stroke:#181818;stroke-width:0.4000000000000001;stroke-dasharray:5.0,5.0;" x1="851.6" x2="851.6" y1="67.1813" y2="604.3438"/><line style="stroke:#181818;stroke-width:0.4000000000000001;stroke-dasharray:5.0,5.0;" x1="972.4" x2="972.4" y1="67.1813" y2="604.3438"/><line style="stroke:#181818;stroke-width:0.4000000000000001;stroke-dasharray:5.0,5.0;" x1="1094" x2="1094" y1="67.1813" y2="604.3438"/><line style="stroke:#181818;stroke-width:0.4000000000000001;stroke-dasharray:5.0,5.0;" x1="1197.2" x2="1197.2" y1="67.1813" y2="604.3438"/><line style="stroke:#181818;stroke-width:0.4000000000000001;stroke-dasharray:5.0,5.0;" x1="1286" x2="1286" y1="67.1813" y2="604.3438"/><line style="stroke:#181818;stroke-width:0.4000000000000001;stroke-dasharray:5.0,5.0;" x1="1402" x2="1402" y1="67.1813" y2="604.3438"/><text fill="#000000" font-family="sans-serif" font-size="11.2" lengthAdjust="spacing" textLength="104.8" x="4" y="64.8188">Customer Manager</text><ellipse cx="58.8" cy="12.7906" fill="#E2E2F0" rx="6.4" ry="6.4" style="stroke:#181818;stroke-width:0.4000000000000001;"/><path d="M58.8,19.1906 L58.8,40.7906 M48.4,25.5906 L69.2,25.5906 M58.8,40.7906 L48.4,52.7906 M58.8,40.7906 L69.2,52.7906 " fill="none" style="stroke:#181818;stroke-width:0.4000000000000001;"/><text fill="#000000" font-family="sans-serif" font-size="11.2" lengthAdjust="spacing" textLength="104.8" x="4" y="614.3719">Customer Manager</text><ellipse cx="58.8" cy="623.5344" fill="#E2E2F0" rx="6.4" ry="6.4" style="stroke:#181818;stroke-width:0.4000000000000001;"/><path d="M58.8,629.9344 L58.8,651.5344 M48.4,636.3344 L69.2,636.3344 M58.8,651.5344 L48.4,663.5344 M58.8,651.5344 L69.2,663.5344 " fill="none" style="stroke:#181818;stroke-width:0.4000000000000001;"/><rect fill="#E2E2F0" height="37.5813" rx="2" ry="2" style="stroke:#181818;stroke-width:0.4000000000000001;" width="123.2" x="355.6" y="28.8"/><text fill="#000000" font-family="sans-serif" font-size="11.2" font-style="italic" lengthAdjust="spacing" textLength="80.8" x="376.8" y="45.2281">&#171;presentation&#187;</text><text fill="#000000" font-family="sans-serif" font-size="11.2" lengthAdjust="spacing" textLength="112" x="361.2" y="58.4188">CreateJobOpeningUI</text><rect fill="#E2E2F0" height="37.5813" rx="2" ry="2" style="stroke:#181818;stroke-width:0.4000000000000001;" width="123.2" x="355.6" y="603.5438"/><text fill="#000000" font-family="sans-serif" font-size="11.2" font-style="italic" lengthAdjust="spacing" textLength="80.8" x="376.8" y="619.9719">&#171;presentation&#187;</text><text fill="#000000" font-family="sans-serif" font-size="11.2" lengthAdjust="spacing" textLength="112" x="361.2" y="633.1625">CreateJobOpeningUI</text><rect fill="#E2E2F0" height="37.5813" rx="2" ry="2" style="stroke:#181818;stroke-width:0.4000000000000001;" width="168" x="617.2" y="28.8"/><text fill="#000000" font-family="sans-serif" font-size="11.2" font-style="italic" lengthAdjust="spacing" textLength="72" x="665.2" y="45.2281">&#171;application&#187;</text><text fill="#000000" font-family="sans-serif" font-size="11.2" lengthAdjust="spacing" textLength="156.8" x="622.8" y="58.4188">CreateJobOpeningController</text><rect fill="#E2E2F0" height="37.5813" rx="2" ry="2" style="stroke:#181818;stroke-width:0.4000000000000001;" width="168" x="617.2" y="603.5438"/><text fill="#000000" font-family="sans-serif" font-size="11.2" font-style="italic" lengthAdjust="spacing" textLength="72" x="665.2" y="619.9719">&#171;application&#187;</text><text fill="#000000" font-family="sans-serif" font-size="11.2" lengthAdjust="spacing" textLength="156.8" x="622.8" y="633.1625">CreateJobOpeningController</text><rect fill="#E2E2F0" height="37.5813" rx="2" ry="2" style="stroke:#181818;stroke-width:0.4000000000000001;" width="116.8" x="793.2" y="28.8"/><text fill="#000000" font-family="sans-serif" font-size="11.2" font-style="italic" lengthAdjust="spacing" textLength="73.6" x="814.8" y="45.2281">&#171;persistence&#187;</text><text fill="#000000" font-family="sans-serif" font-size="11.2" lengthAdjust="spacing" textLength="105.6" x="798.8" y="58.4188">PersistenceContext</text><rect fill="#E2E2F0" height="37.5813" rx="2" ry="2" style="stroke:#181818;stroke-width:0.4000000000000001;" width="116.8" x="793.2" y="603.5438"/><text fill="#000000" font-family="sans-serif" font-size="11.2" font-style="italic" lengthAdjust="spacing" textLength="73.6" x="814.8" y="619.9719">&#171;persistence&#187;</text><text fill="#000000" font-family="sans-serif" font-size="11.2" lengthAdjust="spacing" textLength="105.6" x="798.8" y="633.1625">PersistenceContext</text><rect fill="#E2E2F0" height="37.5813" rx="2" ry="2" style="stroke:#181818;stroke-width:0.4000000000000001;" width="109.6" x="918" y="28.8"/><text fill="#000000" font-family="sans-serif" font-size="11.2" font-style="italic" lengthAdjust="spacing" textLength="48.8" x="948.4" y="45.2281">&#171;factory&#187;</text><text fill="#000000" font-family="sans-serif" font-size="11.2" lengthAdjust="spacing" textLength="98.4" x="923.6" y="58.4188">RepositoryFactory</text><rect fill="#E2E2F0" height="37.5813" rx="2" ry="2" style="stroke:#181818;stroke-width:0.4000000000000001;" width="109.6" x="918" y="603.5438"/><text fill="#000000" font-family="sans-serif" font-size="11.2" font-style="italic" lengthAdjust="spacing" textLength="48.8" x="948.4" y="619.9719">&#171;factory&#187;</text><text fill="#000000" font-family="sans-serif" font-size="11.2" lengthAdjust="spacing" textLength="98.4" x="923.6" y="633.1625">RepositoryFactory</text><text fill="#000000" font-family="sans-serif" font-size="11.2" font-style="italic" lengthAdjust="spacing" textLength="67.2" x="1058" y="51.6281">&#171;repository&#187;</text><text fill="#000000" font-family="sans-serif" font-size="11.2" lengthAdjust="spacing" textLength="112" x="1035.6" y="64.8188">CustomerRepository</text><path d="M1079.6,12 C1079.6,4 1094,4 1094,4 C1094,4 1108.4,4 1108.4,12 L1108.4,32.8 C1108.4,40.8 1094,40.8 1094,40.8 C1094,40.8 1079.6,40.8 1079.6,32.8 L1079.6,12 " fill="#E2E2F0" style="stroke:#181818;stroke-width:1.2000000000000002;"/><path d="M1079.6,12 C1079.6,20 1094,20 1094,20 C1094,20 1108.4,20 1108.4,12 " fill="none" style="stroke:#181818;stroke-width:1.2000000000000002;"/><text fill="#000000" font-family="sans-serif" font-size="11.2" font-style="italic" lengthAdjust="spacing" textLength="67.2" x="1058" y="614.3719">&#171;repository&#187;</text><text fill="#000000" font-family="sans-serif" font-size="11.2" lengthAdjust="spacing" textLength="112" x="1035.6" y="627.5625">CustomerRepository</text><path d="M1079.6,637.925 C1079.6,629.925 1094,629.925 1094,629.925 C1094,629.925 1108.4,629.925 1108.4,637.925 L1108.4,658.725 C1108.4,666.725 1094,666.725 1094,666.725 C1094,666.725 1079.6,666.725 1079.6,658.725 L1079.6,637.925 " fill="#E2E2F0" style="stroke:#181818;stroke-width:1.2000000000000002;"/><path d="M1079.6,637.925 C1079.6,645.925 1094,645.925 1094,645.925 C1094,645.925 1108.4,645.925 1108.4,637.925 " fill="none" style="stroke:#181818;stroke-width:1.2000000000000002;"/><rect fill="#E2E2F0" height="37.5813" rx="2" ry="2" style="stroke:#181818;stroke-width:0.4000000000000001;" width="74.4" x="1160.4" y="28.8"/><text fill="#000000" font-family="sans-serif" font-size="11.2" font-style="italic" lengthAdjust="spacing" textLength="63.2" x="1166" y="45.2281">&#171;Company&#187;</text><text fill="#000000" font-family="sans-serif" font-size="11.2" lengthAdjust="spacing" textLength="53.6" x="1170.8" y="58.4188">Customer</text><rect fill="#E2E2F0" height="37.5813" rx="2" ry="2" style="stroke:#181818;stroke-width:0.4000000000000001;" width="74.4" x="1160.4" y="603.5438"/><text fill="#000000" font-family="sans-serif" font-size="11.2" font-style="italic" lengthAdjust="spacing" textLength="63.2" x="1166" y="619.9719">&#171;Company&#187;</text><text fill="#000000" font-family="sans-serif" font-size="11.2" lengthAdjust="spacing" textLength="53.6" x="1170.8" y="633.1625">Customer</text><rect fill="#E2E2F0" height="37.5813" rx="2" ry="2" style="stroke:#181818;stroke-width:0.4000000000000001;" width="87.2" x="1242.8" y="28.8"/><text fill="#000000" font-family="sans-serif" font-size="11.2" font-style="italic" lengthAdjust="spacing" textLength="76" x="1248.4" y="45.2281">&#171;JobOpening&#187;</text><text fill="#000000" font-family="sans-serif" font-size="11.2" lengthAdjust="spacing" textLength="64.8" x="1254" y="58.4188">JobOpening</text><rect fill="#E2E2F0" height="37.5813" rx="2" ry="2" style="stroke:#181818;stroke-width:0.4000000000000001;" width="87.2" x="1242.8" y="603.5438"/><text fill="#000000" font-family="sans-serif" font-size="11.2" font-style="italic" lengthAdjust="spacing" textLength="76" x="1248.4" y="619.9719">&#171;JobOpening&#187;</text><text fill="#000000" font-family="sans-serif" font-size="11.2" lengthAdjust="spacing" textLength="64.8" x="1254" y="633.1625">JobOpening</text><text fill="#000000" font-family="sans-serif" font-size="11.2" font-style="italic" lengthAdjust="spacing" textLength="67.2" x="1366" y="51.6281">&#171;repository&#187;</text><text fill="#000000" font-family="sans-serif" font-size="11.2" lengthAdjust="spacing" textLength="123.2" x="1338" y="64.8188">JobOpeningRepository</text><path d="M1387.6,12 C1387.6,4 1402,4 1402,4 C1402,4 1416.4,4 1416.4,12 L1416.4,32.8 C1416.4,40.8 1402,40.8 1402,40.8 C1402,40.8 1387.6,40.8 1387.6,32.8 L1387.6,12 " fill="#E2E2F0" style="stroke:#181818;stroke-width:1.2000000000000002;"/><path d="M1387.6,12 C1387.6,20 1402,20 1402,20 C1402,20 1416.4,20 1416.4,12 " fill="none" style="stroke:#181818;stroke-width:1.2000000000000002;"/><text fill="#000000" font-family="sans-serif" font-size="11.2" font-style="italic" lengthAdjust="spacing" textLength="67.2" x="1366" y="614.3719">&#171;repository&#187;</text><text fill="#000000" font-family="sans-serif" font-size="11.2" lengthAdjust="spacing" textLength="123.2" x="1338" y="627.5625">JobOpeningRepository</text><path d="M1387.6,637.925 C1387.6,629.925 1402,629.925 1402,629.925 C1402,629.925 1416.4,629.925 1416.4,637.925 L1416.4,658.725 C1416.4,666.725 1402,666.725 1402,666.725 C1402,666.725 1387.6,666.725 1387.6,658.725 L1387.6,637.925 " fill="#E2E2F0" style="stroke:#181818;stroke-width:1.2000000000000002;"/><path d="M1387.6,637.925 C1387.6,645.925 1402,645.925 1402,645.925 C1402,645.925 1416.4,645.925 1416.4,637.925 " fill="none" style="stroke:#181818;stroke-width:1.2000000000000002;"/><rect fill="#FFFFFF" height="514.7625" style="stroke:#181818;stroke-width:0.8000000000000002;" width="8" x="54.8" y="75.1813"/><rect fill="#FFFFFF" height="23.4484" style="stroke:#181818;stroke-width:0.8000000000000002;" width="8" x="413.2" y="92.2297"/><rect fill="#FFFFFF" height="438.5688" style="stroke:#181818;stroke-width:0.8000000000000002;" width="8" x="413.2" y="151.375"/><rect fill="#FFFFFF" height="367.175" style="stroke:#181818;stroke-width:0.8000000000000002;" width="8" x="697.2" y="199.3203"/><rect fill="#FFFFFF" height="23.4484" style="stroke:#181818;stroke-width:0.8000000000000002;" width="8" x="847.6" y="222.7688"/><rect fill="#FFFFFF" height="23.4484" style="stroke:#181818;stroke-width:0.8000000000000002;" width="8" x="968.8" y="269.6656"/><rect fill="#FFFFFF" height="23.4484" style="stroke:#181818;stroke-width:0.8000000000000002;" width="8" x="1090" y="336.0109"/><rect fill="#FFFFFF" height="23.4484" style="stroke:#181818;stroke-width:0.8000000000000002;" width="8" x="1193.6" y="407.9563"/><rect fill="#FFFFFF" height="23.4484" style="stroke:#181818;stroke-width:0.8000000000000002;" width="8" x="1282.4" y="472.7016"/><rect fill="#FFFFFF" height="23.4484" style="stroke:#181818;stroke-width:0.8000000000000002;" width="8" x="1398" y="519.5984"/><polygon fill="#181818" points="403.6,89.0297,411.6,92.2297,403.6,95.4297,406.8,92.2297" style="stroke:#181818;stroke-width:0.8000000000000002;"/><line style="stroke:#181818;stroke-width:0.8000000000000002;" x1="62.8" x2="408.4" y1="92.2297" y2="92.2297"/><text fill="#000000" font-family="sans-serif" font-size="10.4" font-weight="bold" lengthAdjust="spacing" textLength="7.2" x="68.4" y="88.4359">1</text><text fill="#000000" font-family="sans-serif" font-size="10.4" lengthAdjust="spacing" textLength="115.2" x="78.8" y="88.4359">create new JobOpening</text><polygon fill="#181818" points="71.6,112.4781,63.6,115.6781,71.6,118.8781,68.4,115.6781" style="stroke:#181818;stroke-width:0.8000000000000002;"/><line style="stroke:#181818;stroke-width:0.8000000000000002;stroke-dasharray:2.0,2.0;" x1="66.8" x2="416.4" y1="115.6781" y2="115.6781"/><text fill="#000000" font-family="sans-serif" font-size="10.4" font-weight="bold" lengthAdjust="spacing" textLength="7.2" x="76.4" y="111.8844">2</text><text fill="#000000" font-family="sans-serif" font-size="10.4" lengthAdjust="spacing" textLength="192" x="86.8" y="111.8844">asks for the JobOpening's information</text><polygon fill="#181818" points="403.6,148.175,411.6,151.375,403.6,154.575,406.8,151.375" style="stroke:#181818;stroke-width:0.8000000000000002;"/><line style="stroke:#181818;stroke-width:0.8000000000000002;" x1="62.8" x2="408.4" y1="151.375" y2="151.375"/><text fill="#000000" font-family="sans-serif" font-size="10.4" font-weight="bold" lengthAdjust="spacing" textLength="7.2" x="68.4" y="141.457">3</text><text fill="#000000" font-family="sans-serif" font-size="10.4" lengthAdjust="spacing" textLength="204.8" x="78.8" y="135.3328">Description, VacanciesNumber, Address,</text><text fill="#000000" font-family="sans-serif" font-size="10.4" lengthAdjust="spacing" textLength="324.8" x="78.8" y="147.5813">Mode, ContractType, TitleOrFunction, JobReference, ProcessDate</text><polygon fill="#181818" points="687.6,196.1203,695.6,199.3203,687.6,202.5203,690.8,199.3203" style="stroke:#181818;stroke-width:0.8000000000000002;"/><line style="stroke:#181818;stroke-width:0.8000000000000002;" x1="421.2" x2="692.4" y1="199.3203" y2="199.3203"/><text fill="#000000" font-family="sans-serif" font-size="10.4" font-weight="bold" lengthAdjust="spacing" textLength="7.2" x="426.8" y="183.2781">4</text><text fill="#000000" font-family="sans-serif" font-size="10.4" lengthAdjust="spacing" textLength="247.2" x="437.2" y="171.0297">createJobOpening(description, vacanciesNumber,</text><text fill="#000000" font-family="sans-serif" font-size="10.4" lengthAdjust="spacing" textLength="231.2" x="440.4" y="183.2781">address, mode, contractType, titleOrFunction,</text><text fill="#000000" font-family="sans-serif" font-size="10.4" lengthAdjust="spacing" textLength="136.8" x="440.4" y="195.5266">jobReference, processDate)</text><polygon fill="#181818" points="838,219.5688,846,222.7688,838,225.9688,841.2,222.7688" style="stroke:#181818;stroke-width:0.8000000000000002;"/><line style="stroke:#181818;stroke-width:0.8000000000000002;" x1="705.2" x2="842.8" y1="222.7688" y2="222.7688"/><text fill="#000000" font-family="sans-serif" font-size="10.4" font-weight="bold" lengthAdjust="spacing" textLength="7.2" x="710.8" y="218.975">5</text><text fill="#000000" font-family="sans-serif" font-size="10.4" lengthAdjust="spacing" textLength="66.4" x="721.2" y="218.975">repositories()</text><polygon fill="#181818" points="714,243.0172,706,246.2172,714,249.4172,710.8,246.2172" style="stroke:#181818;stroke-width:0.8000000000000002;"/><line style="stroke:#181818;stroke-width:0.8000000000000002;stroke-dasharray:2.0,2.0;" x1="709.2" x2="850.8" y1="246.2172" y2="246.2172"/><text fill="#000000" font-family="sans-serif" font-size="10.4" font-weight="bold" lengthAdjust="spacing" textLength="7.2" x="718.8" y="242.4234">6</text><text fill="#000000" font-family="sans-serif" font-size="10.4" lengthAdjust="spacing" textLength="35.2" x="729.2" y="242.4234">factory</text><polygon fill="#181818" points="959.2,266.4656,967.2,269.6656,959.2,272.8656,962.4,269.6656" style="stroke:#181818;stroke-width:0.8000000000000002;"/><line style="stroke:#181818;stroke-width:0.8000000000000002;" x1="705.2" x2="964" y1="269.6656" y2="269.6656"/><text fill="#000000" font-family="sans-serif" font-size="10.4" font-weight="bold" lengthAdjust="spacing" textLength="7.2" x="710.8" y="265.8719">7</text><text fill="#000000" font-family="sans-serif" font-size="10.4" lengthAdjust="spacing" textLength="60.8" x="721.2" y="265.8719">companies()</text><polygon fill="#181818" points="714,289.9141,706,293.1141,714,296.3141,710.8,293.1141" style="stroke:#181818;stroke-width:0.8000000000000002;"/><line style="stroke:#181818;stroke-width:0.8000000000000002;stroke-dasharray:2.0,2.0;" x1="709.2" x2="972" y1="293.1141" y2="293.1141"/><text fill="#000000" font-family="sans-serif" font-size="10.4" font-weight="bold" lengthAdjust="spacing" textLength="7.2" x="718.8" y="289.3203">8</text><text fill="#000000" font-family="sans-serif" font-size="10.4" lengthAdjust="spacing" textLength="54.4" x="729.2" y="289.3203">companies</text><path d="M609.2,305.1141 L658.8,305.1141 L658.8,310.9625 L650.8,318.9625 L609.2,318.9625 L609.2,305.1141 " fill="#EEEEEE" style="stroke:#000000;stroke-width:1.2000000000000002;"/><rect fill="none" height="60.7453" style="stroke:#000000;stroke-width:1.2000000000000002;" width="551.2" x="609.2" y="305.1141"/><text fill="#000000" font-family="sans-serif" font-size="10.4" font-weight="bold" lengthAdjust="spacing" textLength="13.6" x="621.2" y="315.9688">alt</text><text fill="#000000" font-family="sans-serif" font-size="8.8" font-weight="bold" lengthAdjust="spacing" textLength="130.4" x="670.8" y="315.2219">[companyExists() return true]</text><polygon fill="#181818" points="1080.4,332.8109,1088.4,336.0109,1080.4,339.2109,1083.6,336.0109" style="stroke:#181818;stroke-width:0.8000000000000002;"/><line style="stroke:#181818;stroke-width:0.8000000000000002;" x1="705.2" x2="1085.2" y1="336.0109" y2="336.0109"/><text fill="#000000" font-family="sans-serif" font-size="10.4" font-weight="bold" lengthAdjust="spacing" textLength="7.2" x="710.8" y="332.2172">9</text><text fill="#000000" font-family="sans-serif" font-size="10.4" lengthAdjust="spacing" textLength="184.8" x="721.2" y="332.2172">findCompanyByCode(companyName)</text><polygon fill="#181818" points="714,356.2594,706,359.4594,714,362.6594,710.8,359.4594" style="stroke:#181818;stroke-width:0.8000000000000002;"/><line style="stroke:#181818;stroke-width:0.8000000000000002;stroke-dasharray:2.0,2.0;" x1="709.2" x2="1093.2" y1="359.4594" y2="359.4594"/><text fill="#000000" font-family="sans-serif" font-size="10.4" font-weight="bold" lengthAdjust="spacing" textLength="14.4" x="718.8" y="355.6656">10</text><text fill="#000000" font-family="sans-serif" font-size="10.4" lengthAdjust="spacing" textLength="45.6" x="736.4" y="355.6656">company</text><path d="M609.2,377.0594 L658.8,377.0594 L658.8,382.9078 L650.8,390.9078 L609.2,390.9078 L609.2,377.0594 " fill="#EEEEEE" style="stroke:#000000;stroke-width:1.2000000000000002;"/><rect fill="none" height="60.7453" style="stroke:#000000;stroke-width:1.2000000000000002;" width="633.6" x="609.2" y="377.0594"/><text fill="#000000" font-family="sans-serif" font-size="10.4" font-weight="bold" lengthAdjust="spacing" textLength="13.6" x="621.2" y="387.9141">alt</text><text fill="#000000" font-family="sans-serif" font-size="8.8" font-weight="bold" lengthAdjust="spacing" textLength="134.4" x="670.8" y="387.1672">[companyExists() return false]</text><polygon fill="#181818" points="1184,404.7563,1192,407.9563,1184,411.1563,1187.2,407.9563" style="stroke:#181818;stroke-width:0.8000000000000002;"/><line style="stroke:#181818;stroke-width:0.8000000000000002;" x1="705.2" x2="1188.8" y1="407.9563" y2="407.9563"/><text fill="#000000" font-family="sans-serif" font-size="10.4" font-weight="bold" lengthAdjust="spacing" textLength="14.4" x="710.8" y="404.1625">11</text><text fill="#000000" font-family="sans-serif" font-size="10.4" lengthAdjust="spacing" textLength="94.4" x="728.4" y="404.1625">create(code, name)</text><polygon fill="#181818" points="714,428.2047,706,431.4047,714,434.6047,710.8,431.4047" style="stroke:#181818;stroke-width:0.8000000000000002;"/><line style="stroke:#181818;stroke-width:0.8000000000000002;stroke-dasharray:2.0,2.0;" x1="709.2" x2="1196.8" y1="431.4047" y2="431.4047"/><text fill="#000000" font-family="sans-serif" font-size="10.4" font-weight="bold" lengthAdjust="spacing" textLength="14.4" x="718.8" y="427.6109">12</text><text fill="#000000" font-family="sans-serif" font-size="10.4" lengthAdjust="spacing" textLength="45.6" x="736.4" y="427.6109">company</text><polygon fill="#181818" points="1272.8,469.5016,1280.8,472.7016,1272.8,475.9016,1276,472.7016" style="stroke:#181818;stroke-width:0.8000000000000002;"/><line style="stroke:#181818;stroke-width:0.8000000000000002;" x1="705.2" x2="1277.6" y1="472.7016" y2="472.7016"/><text fill="#000000" font-family="sans-serif" font-size="10.4" font-weight="bold" lengthAdjust="spacing" textLength="14.4" x="710.8" y="462.7836">13</text><text fill="#000000" font-family="sans-serif" font-size="10.4" lengthAdjust="spacing" textLength="423.2" x="728.4" y="456.6594">create(description, vacanciesNumber, address, mode, contractType, titleOrFunction,</text><text fill="#000000" font-family="sans-serif" font-size="10.4" lengthAdjust="spacing" textLength="188.8" x="731.6" y="468.9078">jobReference, processDate, company)</text><polygon fill="#181818" points="714,492.95,706,496.15,714,499.35,710.8,496.15" style="stroke:#181818;stroke-width:0.8000000000000002;"/><line style="stroke:#181818;stroke-width:0.8000000000000002;stroke-dasharray:2.0,2.0;" x1="709.2" x2="1285.6" y1="496.15" y2="496.15"/><text fill="#000000" font-family="sans-serif" font-size="10.4" font-weight="bold" lengthAdjust="spacing" textLength="14.4" x="718.8" y="492.3563">14</text><text fill="#000000" font-family="sans-serif" font-size="10.4" lengthAdjust="spacing" textLength="58.4" x="736.4" y="492.3563">jobOpening</text><polygon fill="#181818" points="1388.4,516.3984,1396.4,519.5984,1388.4,522.7984,1391.6,519.5984" style="stroke:#181818;stroke-width:0.8000000000000002;"/><line style="stroke:#181818;stroke-width:0.8000000000000002;" x1="705.2" x2="1393.2" y1="519.5984" y2="519.5984"/><text fill="#000000" font-family="sans-serif" font-size="10.4" font-weight="bold" lengthAdjust="spacing" textLength="14.4" x="710.8" y="515.8047">15</text><text fill="#000000" font-family="sans-serif" font-size="10.4" lengthAdjust="spacing" textLength="87.2" x="728.4" y="515.8047">save(JobOpening)</text><polygon fill="#181818" points="714,539.8469,706,543.0469,714,546.2469,710.8,543.0469" style="stroke:#181818;stroke-width:0.8000000000000002;"/><line style="stroke:#181818;stroke-width:0.8000000000000002;stroke-dasharray:2.0,2.0;" x1="709.2" x2="1401.2" y1="543.0469" y2="543.0469"/><text fill="#000000" font-family="sans-serif" font-size="10.4" font-weight="bold" lengthAdjust="spacing" textLength="14.4" x="718.8" y="539.2531">16</text><text fill="#000000" font-family="sans-serif" font-size="10.4" lengthAdjust="spacing" textLength="73.6" x="736.4" y="539.2531">return success</text><polygon fill="#181818" points="430,563.2953,422,566.4953,430,569.6953,426.8,566.4953" style="stroke:#181818;stroke-width:0.8000000000000002;"/><line style="stroke:#181818;stroke-width:0.8000000000000002;stroke-dasharray:2.0,2.0;" x1="425.2" x2="700.4" y1="566.4953" y2="566.4953"/><text fill="#000000" font-family="sans-serif" font-size="10.4" font-weight="bold" lengthAdjust="spacing" textLength="14.4" x="434.8" y="562.7016">17</text><text fill="#000000" font-family="sans-serif" font-size="10.4" lengthAdjust="spacing" textLength="58.4" x="452.4" y="562.7016">JobOpening</text><polygon fill="#181818" points="67.6,586.7438,59.6,589.9438,67.6,593.1438,64.4,589.9438" style="stroke:#181818;stroke-width:0.8000000000000002;"/><line style="stroke:#181818;stroke-width:0.8000000000000002;stroke-dasharray:2.0,2.0;" x1="62.8" x2="416.4" y1="589.9438" y2="589.9438"/><text fill="#000000" font-family="sans-serif" font-size="10.4" font-weight="bold" lengthAdjust="spacing" textLength="14.4" x="72.4" y="586.15">18</text><text fill="#000000" font-family="sans-serif" font-size="10.4" lengthAdjust="spacing" textLength="134.4" x="90" y="586.15">shows operation's success</text><!--SRC=[hPPHRvim4CVV-HIdlYoJo1U8KAIDhj8gqLPLjwU-EERIkWCRsIOjttu7WPY0WLGRJy7StT-_lyzsM6cLBFCTwY086BTAmrLS6gjor90moLvGNm4p42T1mRGLN1HCMeWrCektQdTVe1JovTTFYA92eq5fcHLARhUpyR6ILgii8vKeOaMH2UvBUq1jXB4eETOP-65h6JSu27_4GXb14DLDmr9HzFxuYo9JPjcE6OGEq8LJd3wz3AVUsH55iSffQ1ZWg2Z4lVGLtUYqPcs_E91BjTT10FJ42Qot7gytm9inaFZUgtrCgXzNQfJRLXwltxgMIZQqs7yCxAaHx6j_ubyC24d3URDEJYh5PR493DZ0DHgkHL6N3E4tuqnoWUQkwSWGlgKfjPG9uLacAiKGchOXlQUgeBSdOJEyrpUbvCS2LFmHzwZhrWZXGIjEsTUa-e_ER6VwjriBzssLzg4EGwXd2QpZoXigVaPbXrIKy7O6LZYmhnUGkRdw2NjxaKWzMsu3fqObZfLFSvnr3F9KMy_QIMBjZlMss9JEFDFuNA1LQ_Ro5CyeunWpBhH8SzBnydXqM6RRfEh71x7I1Cb_Mse9LfTu2Q_dW2DRXKpR0-nx5LFZhLgLEvPJ7utRQ5IabHuNlz24odjeZ6LGfa0k1BDUx5bcy1DUTFkKgEiz9-UXpr4N02_YSrJBStRZfrdFdod_xq09EnRVhXXUDRsRRycXDyyjrNDfMFbIVyuwtB03hjotUO9XMtjhBb6rlMXANlktG3RQI3ECK_VbxRoDdptwJzT-xTwhUZUWwDzLSyFJVJ-7DNLz3iEIu2y0]--></g></svg>