<?xml version="1.0" encoding="us-ascii" standalone="no"?><svg xmlns="http://www.w3.org/2000/svg" xmlns:xlink="http://www.w3.org/1999/xlink" contentStyleType="text/css" height="685px" preserveAspectRatio="none" style="width:2100px;height:685px;background:#FFFFFF;" version="1.1" viewBox="0 0 2100 685" width="2100px" zoomAndPan="magnify"><defs/><g><rect fill="#FFFFFF" height="478.9004" style="stroke:#181818;stroke-width:1.0;" width="10" x="68.5" y="93.9766"/><rect fill="#FFFFFF" height="29.3105" style="stroke:#181818;stroke-width:1.0;" width="10" x="516.5" y="115.2871"/><rect fill="#FFFFFF" height="383.6582" style="stroke:#181818;stroke-width:1.0;" width="10" x="516.5" y="189.2188"/><rect fill="#FFFFFF" height="294.416" style="stroke:#181818;stroke-width:1.0;" width="10" x="856.5" y="249.1504"/><rect fill="#FFFFFF" height="220.4844" style="stroke:#181818;stroke-width:1.0;" width="10" x="1310.5" y="293.7715"/><rect fill="#FFFFFF" height="103.2422" style="stroke:#181818;stroke-width:1.0;" width="10" x="1463.5" y="323.082"/><rect fill="#FFFFFF" height="29.3105" style="stroke:#181818;stroke-width:1.0;" width="10" x="1869.5" y="367.7031"/><rect fill="#FFFFFF" height="29.3105" style="stroke:#181818;stroke-width:1.0;" width="10" x="2014" y="455.6348"/><line style="stroke:#181818;stroke-width:0.5;stroke-dasharray:5.0,5.0;" x1="73" x2="73" y1="83.9766" y2="590.877"/><line style="stroke:#181818;stroke-width:0.5;stroke-dasharray:5.0,5.0;" x1="521" x2="521" y1="83.9766" y2="590.877"/><line style="stroke:#181818;stroke-width:0.5;stroke-dasharray:5.0,5.0;" x1="861" x2="861" y1="83.9766" y2="590.877"/><line style="stroke:#181818;stroke-width:0.5;stroke-dasharray:5.0,5.0;" x1="1315" x2="1315" y1="83.9766" y2="590.877"/><line style="stroke:#181818;stroke-width:0.5;stroke-dasharray:5.0,5.0;" x1="1468" x2="1468" y1="83.9766" y2="590.877"/><line style="stroke:#181818;stroke-width:0.5;stroke-dasharray:5.0,5.0;" x1="1874" x2="1874" y1="83.9766" y2="590.877"/><line style="stroke:#181818;stroke-width:0.5;stroke-dasharray:5.0,5.0;" x1="2019" x2="2019" y1="83.9766" y2="590.877"/><text fill="#000000" font-family="sans-serif" font-size="14" lengthAdjust="spacing" textLength="131" x="5" y="81.0234">Customer Manager</text><ellipse cx="73.5" cy="15.9883" fill="#E2E2F0" rx="8" ry="8" style="stroke:#181818;stroke-width:0.5;"/><path d="M73.5,23.9883 L73.5,50.9883 M60.5,31.9883 L86.5,31.9883 M73.5,50.9883 L60.5,65.9883 M73.5,50.9883 L86.5,65.9883 " fill="none" style="stroke:#181818;stroke-width:0.5;"/><text fill="#000000" font-family="sans-serif" font-size="14" lengthAdjust="spacing" textLength="131" x="5" y="603.4121">Customer Manager</text><ellipse cx="73.5" cy="614.8652" fill="#E2E2F0" rx="8" ry="8" style="stroke:#181818;stroke-width:0.5;"/><path d="M73.5,622.8652 L73.5,649.8652 M60.5,630.8652 L86.5,630.8652 M73.5,649.8652 L60.5,664.8652 M73.5,649.8652 L86.5,664.8652 " fill="none" style="stroke:#181818;stroke-width:0.5;"/><rect fill="#E2E2F0" height="46.9766" rx="2.5" ry="2.5" style="stroke:#181818;stroke-width:0.5;" width="137" x="453" y="36"/><text fill="#000000" font-family="sans-serif" font-size="14" font-style="italic" lengthAdjust="spacing" textLength="101" x="471" y="56.5352">&#171;presentation&#187;</text><text fill="#000000" font-family="sans-serif" font-size="14" lengthAdjust="spacing" textLength="123" x="460" y="73.0234">AddJobOpeningUI</text><rect fill="#E2E2F0" height="46.9766" rx="2.5" ry="2.5" style="stroke:#181818;stroke-width:0.5;" width="137" x="453" y="589.877"/><text fill="#000000" font-family="sans-serif" font-size="14" font-style="italic" lengthAdjust="spacing" textLength="101" x="471" y="610.4121">&#171;presentation&#187;</text><text fill="#000000" font-family="sans-serif" font-size="14" lengthAdjust="spacing" textLength="123" x="460" y="626.9004">AddJobOpeningUI</text><rect fill="#E2E2F0" height="46.9766" rx="2.5" ry="2.5" style="stroke:#181818;stroke-width:0.5;" width="193" x="765" y="36"/><text fill="#000000" font-family="sans-serif" font-size="14" font-style="italic" lengthAdjust="spacing" textLength="90" x="816.5" y="56.5352">&#171;application&#187;</text><text fill="#000000" font-family="sans-serif" font-size="14" lengthAdjust="spacing" textLength="179" x="772" y="73.0234">AddJobOpeningController</text><rect fill="#E2E2F0" height="46.9766" rx="2.5" ry="2.5" style="stroke:#181818;stroke-width:0.5;" width="193" x="765" y="589.877"/><text fill="#000000" font-family="sans-serif" font-size="14" font-style="italic" lengthAdjust="spacing" textLength="90" x="816.5" y="610.4121">&#171;application&#187;</text><text fill="#000000" font-family="sans-serif" font-size="14" lengthAdjust="spacing" textLength="179" x="772" y="626.9004">AddJobOpeningController</text><rect fill="#E2E2F0" height="46.9766" rx="2.5" ry="2.5" style="stroke:#181818;stroke-width:0.5;" width="143" x="1244" y="36"/><text fill="#000000" font-family="sans-serif" font-size="14" font-style="italic" lengthAdjust="spacing" textLength="61" x="1285" y="56.5352">&#171;service&#187;</text><text fill="#000000" font-family="sans-serif" font-size="14" lengthAdjust="spacing" textLength="129" x="1251" y="73.0234">JobOpeningService</text><rect fill="#E2E2F0" height="46.9766" rx="2.5" ry="2.5" style="stroke:#181818;stroke-width:0.5;" width="143" x="1244" y="589.877"/><text fill="#000000" font-family="sans-serif" font-size="14" font-style="italic" lengthAdjust="spacing" textLength="61" x="1285" y="610.4121">&#171;service&#187;</text><text fill="#000000" font-family="sans-serif" font-size="14" lengthAdjust="spacing" textLength="129" x="1251" y="626.9004">JobOpeningService</text><rect fill="#E2E2F0" height="46.9766" rx="2.5" ry="2.5" style="stroke:#181818;stroke-width:0.5;" width="143" x="1397" y="36"/><text fill="#000000" font-family="sans-serif" font-size="14" font-style="italic" lengthAdjust="spacing" textLength="63" x="1437" y="56.5352">&#171;builder&#187;</text><text fill="#000000" font-family="sans-serif" font-size="14" lengthAdjust="spacing" textLength="129" x="1404" y="73.0234">JobOpeningBuilder</text><rect fill="#E2E2F0" height="46.9766" rx="2.5" ry="2.5" style="stroke:#181818;stroke-width:0.5;" width="143" x="1397" y="589.877"/><text fill="#000000" font-family="sans-serif" font-size="14" font-style="italic" lengthAdjust="spacing" textLength="63" x="1437" y="610.4121">&#171;builder&#187;</text><text fill="#000000" font-family="sans-serif" font-size="14" lengthAdjust="spacing" textLength="129" x="1404" y="626.9004">JobOpeningBuilder</text><rect fill="#E2E2F0" height="46.9766" rx="2.5" ry="2.5" style="stroke:#181818;stroke-width:0.5;" width="109" x="1820" y="36"/><text fill="#000000" font-family="sans-serif" font-size="14" font-style="italic" lengthAdjust="spacing" textLength="95" x="1827" y="56.5352">&#171;JobOpening&#187;</text><text fill="#000000" font-family="sans-serif" font-size="14" lengthAdjust="spacing" textLength="81" x="1834" y="73.0234">JobOpening</text><rect fill="#E2E2F0" height="46.9766" rx="2.5" ry="2.5" style="stroke:#181818;stroke-width:0.5;" width="109" x="1820" y="589.877"/><text fill="#000000" font-family="sans-serif" font-size="14" font-style="italic" lengthAdjust="spacing" textLength="95" x="1827" y="610.4121">&#171;JobOpening&#187;</text><text fill="#000000" font-family="sans-serif" font-size="14" lengthAdjust="spacing" textLength="81" x="1834" y="626.9004">JobOpening</text><text fill="#000000" font-family="sans-serif" font-size="14" font-style="italic" lengthAdjust="spacing" textLength="84" x="1974" y="64.5352">&#171;repository&#187;</text><text fill="#000000" font-family="sans-serif" font-size="14" lengthAdjust="spacing" textLength="154" x="1939" y="81.0234">JobOpeningRepository</text><path d="M2001,15 C2001,5 2019,5 2019,5 C2019,5 2037,5 2037,15 L2037,41 C2037,51 2019,51 2019,51 C2019,51 2001,51 2001,41 L2001,15 " fill="#E2E2F0" style="stroke:#181818;stroke-width:1.5;"/><path d="M2001,15 C2001,25 2019,25 2019,25 C2019,25 2037,25 2037,15 " fill="none" style="stroke:#181818;stroke-width:1.5;"/><text fill="#000000" font-family="sans-serif" font-size="14" font-style="italic" lengthAdjust="spacing" textLength="84" x="1974" y="603.4121">&#171;repository&#187;</text><text fill="#000000" font-family="sans-serif" font-size="14" lengthAdjust="spacing" textLength="154" x="1939" y="619.9004">JobOpeningRepository</text><path d="M2001,632.8535 C2001,622.8535 2019,622.8535 2019,622.8535 C2019,622.8535 2037,622.8535 2037,632.8535 L2037,658.8535 C2037,668.8535 2019,668.8535 2019,668.8535 C2019,668.8535 2001,668.8535 2001,658.8535 L2001,632.8535 " fill="#E2E2F0" style="stroke:#181818;stroke-width:1.5;"/><path d="M2001,632.8535 C2001,642.8535 2019,642.8535 2019,642.8535 C2019,642.8535 2037,642.8535 2037,632.8535 " fill="none" style="stroke:#181818;stroke-width:1.5;"/><rect fill="#FFFFFF" height="478.9004" style="stroke:#181818;stroke-width:1.0;" width="10" x="68.5" y="93.9766"/><rect fill="#FFFFFF" height="29.3105" style="stroke:#181818;stroke-width:1.0;" width="10" x="516.5" y="115.2871"/><rect fill="#FFFFFF" height="383.6582" style="stroke:#181818;stroke-width:1.0;" width="10" x="516.5" y="189.2188"/><rect fill="#FFFFFF" height="294.416" style="stroke:#181818;stroke-width:1.0;" width="10" x="856.5" y="249.1504"/><rect fill="#FFFFFF" height="220.4844" style="stroke:#181818;stroke-width:1.0;" width="10" x="1310.5" y="293.7715"/><rect fill="#FFFFFF" height="103.2422" style="stroke:#181818;stroke-width:1.0;" width="10" x="1463.5" y="323.082"/><rect fill="#FFFFFF" height="29.3105" style="stroke:#181818;stroke-width:1.0;" width="10" x="1869.5" y="367.7031"/><rect fill="#FFFFFF" height="29.3105" style="stroke:#181818;stroke-width:1.0;" width="10" x="2014" y="455.6348"/><polygon fill="#181818" points="504.5,111.2871,514.5,115.2871,504.5,119.2871,508.5,115.2871" style="stroke:#181818;stroke-width:1.0;"/><line style="stroke:#181818;stroke-width:1.0;" x1="78.5" x2="510.5" y1="115.2871" y2="115.2871"/><text fill="#000000" font-family="sans-serif" font-size="13" font-weight="bold" lengthAdjust="spacing" textLength="9" x="85.5" y="110.5449">1</text><text fill="#000000" font-family="sans-serif" font-size="13" lengthAdjust="spacing" textLength="129" x="98.5" y="110.5449">add new JobOpening</text><polygon fill="#181818" points="89.5,140.5977,79.5,144.5977,89.5,148.5977,85.5,144.5977" style="stroke:#181818;stroke-width:1.0;"/><line style="stroke:#181818;stroke-width:1.0;stroke-dasharray:2.0,2.0;" x1="83.5" x2="520.5" y1="144.5977" y2="144.5977"/><text fill="#000000" font-family="sans-serif" font-size="13" font-weight="bold" lengthAdjust="spacing" textLength="9" x="95.5" y="139.8555">2</text><text fill="#000000" font-family="sans-serif" font-size="13" lengthAdjust="spacing" textLength="240" x="108.5" y="139.8555">asks for the JobOpening's information</text><polygon fill="#181818" points="504.5,185.2188,514.5,189.2188,504.5,193.2188,508.5,189.2188" style="stroke:#181818;stroke-width:1.0;"/><line style="stroke:#181818;stroke-width:1.0;" x1="78.5" x2="510.5" y1="189.2188" y2="189.2188"/><text fill="#000000" font-family="sans-serif" font-size="13" font-weight="bold" lengthAdjust="spacing" textLength="9" x="85.5" y="176.8213">3</text><text fill="#000000" font-family="sans-serif" font-size="13" lengthAdjust="spacing" textLength="256" x="98.5" y="169.166">Description, VacanciesNumber, Address,</text><text fill="#000000" font-family="sans-serif" font-size="13" lengthAdjust="spacing" textLength="406" x="98.5" y="184.4766">Mode, ContractType, TitleOrFunction, JobReference, ProcessDate</text><polygon fill="#181818" points="844.5,245.1504,854.5,249.1504,844.5,253.1504,848.5,249.1504" style="stroke:#181818;stroke-width:1.0;"/><line style="stroke:#181818;stroke-width:1.0;" x1="526.5" x2="850.5" y1="249.1504" y2="249.1504"/><text fill="#000000" font-family="sans-serif" font-size="13" font-weight="bold" lengthAdjust="spacing" textLength="9" x="533.5" y="229.0977">4</text><text fill="#000000" font-family="sans-serif" font-size="13" lengthAdjust="spacing" textLength="294" x="546.5" y="213.7871">addJobOpening(description, vacanciesNumber,</text><text fill="#000000" font-family="sans-serif" font-size="13" lengthAdjust="spacing" textLength="289" x="550.5" y="229.0977">address, mode, contractType, titleOrFunction,</text><text fill="#000000" font-family="sans-serif" font-size="13" lengthAdjust="spacing" textLength="171" x="550.5" y="244.4082">jobReference, processDate)</text><polygon fill="#181818" points="1298.5,289.7715,1308.5,293.7715,1298.5,297.7715,1302.5,293.7715" style="stroke:#181818;stroke-width:1.0;"/><line style="stroke:#181818;stroke-width:1.0;" x1="866.5" x2="1304.5" y1="293.7715" y2="293.7715"/><text fill="#000000" font-family="sans-serif" font-size="13" font-weight="bold" lengthAdjust="spacing" textLength="9" x="873.5" y="281.374">5</text><text fill="#000000" font-family="sans-serif" font-size="13" lengthAdjust="spacing" textLength="408" x="886.5" y="273.7188">registerJobOpening(jobReference, description, vacanciesNumber,</text><text fill="#000000" font-family="sans-serif" font-size="13" lengthAdjust="spacing" textLength="289" x="890.5" y="289.0293">address, mode, contractType, titleOrFunction)</text><polygon fill="#181818" points="1451.5,319.082,1461.5,323.082,1451.5,327.082,1455.5,323.082" style="stroke:#181818;stroke-width:1.0;"/><line style="stroke:#181818;stroke-width:1.0;" x1="1320.5" x2="1457.5" y1="323.082" y2="323.082"/><text fill="#000000" font-family="sans-serif" font-size="13" font-weight="bold" lengthAdjust="spacing" textLength="9" x="1327.5" y="318.3398">6</text><text fill="#000000" font-family="sans-serif" font-size="13" lengthAdjust="spacing" textLength="40" x="1340.5" y="318.3398">build()</text><polygon fill="#181818" points="1857.5,363.7031,1867.5,367.7031,1857.5,371.7031,1861.5,367.7031" style="stroke:#181818;stroke-width:1.0;"/><line style="stroke:#181818;stroke-width:1.0;" x1="1473.5" x2="1863.5" y1="367.7031" y2="367.7031"/><text fill="#000000" font-family="sans-serif" font-size="13" font-weight="bold" lengthAdjust="spacing" textLength="9" x="1480.5" y="355.3057">7</text><text fill="#000000" font-family="sans-serif" font-size="13" lengthAdjust="spacing" textLength="360" x="1493.5" y="347.6504">JobOpening(jobReference, description, vacanciesNumber,</text><text fill="#000000" font-family="sans-serif" font-size="13" lengthAdjust="spacing" textLength="289" x="1497.5" y="362.9609">address, mode, contractType, titleOrFunction)</text><polygon fill="#181818" points="1484.5,393.0137,1474.5,397.0137,1484.5,401.0137,1480.5,397.0137" style="stroke:#181818;stroke-width:1.0;"/><line style="stroke:#181818;stroke-width:1.0;stroke-dasharray:2.0,2.0;" x1="1478.5" x2="1873.5" y1="397.0137" y2="397.0137"/><text fill="#000000" font-family="sans-serif" font-size="13" font-weight="bold" lengthAdjust="spacing" textLength="9" x="1490.5" y="392.2715">8</text><text fill="#000000" font-family="sans-serif" font-size="13" lengthAdjust="spacing" textLength="73" x="1503.5" y="392.2715">jobOpening</text><polygon fill="#181818" points="1331.5,422.3242,1321.5,426.3242,1331.5,430.3242,1327.5,426.3242" style="stroke:#181818;stroke-width:1.0;"/><line style="stroke:#181818;stroke-width:1.0;stroke-dasharray:2.0,2.0;" x1="1325.5" x2="1467.5" y1="426.3242" y2="426.3242"/><text fill="#000000" font-family="sans-serif" font-size="13" font-weight="bold" lengthAdjust="spacing" textLength="9" x="1337.5" y="421.582">9</text><text fill="#000000" font-family="sans-serif" font-size="13" lengthAdjust="spacing" textLength="73" x="1350.5" y="421.582">jobOpening</text><polygon fill="#181818" points="2002,451.6348,2012,455.6348,2002,459.6348,2006,455.6348" style="stroke:#181818;stroke-width:1.0;"/><line style="stroke:#181818;stroke-width:1.0;" x1="1320.5" x2="2008" y1="455.6348" y2="455.6348"/><text fill="#000000" font-family="sans-serif" font-size="13" font-weight="bold" lengthAdjust="spacing" textLength="18" x="1327.5" y="450.8926">10</text><text fill="#000000" font-family="sans-serif" font-size="13" lengthAdjust="spacing" textLength="109" x="1349.5" y="450.8926">save(JobOpening)</text><polygon fill="#181818" points="1331.5,480.9453,1321.5,484.9453,1331.5,488.9453,1327.5,484.9453" style="stroke:#181818;stroke-width:1.0;"/><line style="stroke:#181818;stroke-width:1.0;stroke-dasharray:2.0,2.0;" x1="1325.5" x2="2018" y1="484.9453" y2="484.9453"/><text fill="#000000" font-family="sans-serif" font-size="13" font-weight="bold" lengthAdjust="spacing" textLength="18" x="1337.5" y="480.2031">11</text><text fill="#000000" font-family="sans-serif" font-size="13" lengthAdjust="spacing" textLength="67" x="1359.5" y="480.2031">return true</text><polygon fill="#181818" points="877.5,510.2559,867.5,514.2559,877.5,518.2559,873.5,514.2559" style="stroke:#181818;stroke-width:1.0;"/><line style="stroke:#181818;stroke-width:1.0;stroke-dasharray:2.0,2.0;" x1="871.5" x2="1314.5" y1="514.2559" y2="514.2559"/><text fill="#000000" font-family="sans-serif" font-size="13" font-weight="bold" lengthAdjust="spacing" textLength="18" x="883.5" y="509.5137">12</text><text fill="#000000" font-family="sans-serif" font-size="13" lengthAdjust="spacing" textLength="73" x="905.5" y="509.5137">jobOpening</text><polygon fill="#181818" points="537.5,539.5664,527.5,543.5664,537.5,547.5664,533.5,543.5664" style="stroke:#181818;stroke-width:1.0;"/><line style="stroke:#181818;stroke-width:1.0;stroke-dasharray:2.0,2.0;" x1="531.5" x2="860.5" y1="543.5664" y2="543.5664"/><text fill="#000000" font-family="sans-serif" font-size="13" font-weight="bold" lengthAdjust="spacing" textLength="18" x="543.5" y="538.8242">13</text><text fill="#000000" font-family="sans-serif" font-size="13" lengthAdjust="spacing" textLength="73" x="565.5" y="538.8242">JobOpening</text><polygon fill="#181818" points="84.5,568.877,74.5,572.877,84.5,576.877,80.5,572.877" style="stroke:#181818;stroke-width:1.0;"/><line style="stroke:#181818;stroke-width:1.0;stroke-dasharray:2.0,2.0;" x1="78.5" x2="520.5" y1="572.877" y2="572.877"/><text fill="#000000" font-family="sans-serif" font-size="13" font-weight="bold" lengthAdjust="spacing" textLength="18" x="90.5" y="568.1348">14</text><text fill="#000000" font-family="sans-serif" font-size="13" lengthAdjust="spacing" textLength="168" x="112.5" y="568.1348">shows operation's success</text><!--SRC=[pLN1JkCm4BtdAqPSw4hj3qHL9JO8QP6oh83T4nVN7eeXjItRAUBlT-AmSPB6eK8SDgUaVlDctlFCbDLUgtg_HPjb6UDUMpWhQkVr7YsKJB4TsZDW3eeoCynwoQLXoiE54DTwUsDGIRNx_GFMQsFHeVBCIwqscpIuqCfRNLN4lrupOoh9fs9Ym1tQW-H8QDU-9P7VQrc9mBjjtv98WiGFGWdcsPOvx45kqMWdoP0t0jlkWy2DJ_B0F3QcP1dGKvImsenDoO490GfVUwmjl7awab5KYnZxkoBweYH6z-BWaMx9F_MBFNSW5Vsy3rR690BdqqpM3JbSekDMcePi2NyOPufBT3z3eomRF5ssMyA3AhN09OGxfKptRuQ-xgMlyCPUrOgt14H-YuzeKN4w_cKrf-XBAkhJRcnIFHKyZmSBqHTo60jvK0syrR8FIlX0YHyheO3dWHWJnNpxI4siSa9LRomQUKVjduF5dNGURK_Ti9OlrJgbvgYe5dCygWC1xrEPGnZAnJpnEtXC_6-o1yJKf_-35-DQmwnEo7-UM0Az-KmJTkAd- -9ateItavSMjryEZXrm4O_ctOY1upozXRfATRYlhG9lQ_n0IZfBfsPkHvnisQ3FK_EwcboXr_CvJjyCtVOdKlUaNnreWpOiUbhxhkRD0ZfzvOymuI_iBm00]--></g></svg>