<?xml version="1.0" encoding="UTF-8" standalone="no"?><svg xmlns="http://www.w3.org/2000/svg" xmlns:xlink="http://www.w3.org/1999/xlink" contentStyleType="text/css" height="792px" preserveAspectRatio="none" style="width:496px;height:792px;background:#FFFFFF;" version="1.1" viewBox="0 0 496 792" width="496px" zoomAndPan="magnify"><defs/><g><!--cluster backoffice--><g id="cluster_backoffice"><rect fill="none" height="348" rx="2.5" ry="2.5" style="stroke:#000000;stroke-width:1.0;" width="301" x="189" y="391"/><text fill="#000000" font-family="sans-serif" font-size="14" font-weight="bold" lengthAdjust="spacing" textLength="74" x="302.5" y="407.5332">Backoffice</text></g><!--cluster candidateApp--><g id="cluster_candidateApp"><rect fill="none" height="90" rx="2.5" ry="2.5" style="stroke:#000000;stroke-width:1.0;" width="197" x="241" y="241"/><text fill="#000000" font-family="sans-serif" font-size="14" font-weight="bold" lengthAdjust="spacing" textLength="102" x="288.5" y="257.5332">Candidate App</text></g><!--cluster customerApp--><g id="cluster_customerApp"><rect fill="none" height="92" rx="2.5" ry="2.5" style="stroke:#000000;stroke-width:1.0;" width="206" x="236.5" y="125"/><text fill="#000000" font-family="sans-serif" font-size="14" font-weight="bold" lengthAdjust="spacing" textLength="99" x="290" y="141.5332">Customer App</text></g><!--cluster ApplicationsFileBotApp--><g id="cluster_ApplicationsFileBotApp"><rect fill="none" height="94" rx="2.5" ry="2.5" style="stroke:#000000;stroke-width:1.0;" width="219" x="230" y="7"/><text fill="#000000" font-family="sans-serif" font-size="14" font-weight="bold" lengthAdjust="spacing" textLength="144" x="267.5" y="23.5332">Applications File Bot</text></g><g id="elem_Manage Customers and its Managers"><ellipse cx="339.5829" cy="456.8166" fill="#F1F1F1" rx="134.5829" ry="29.3166" style="stroke:#181818;stroke-width:0.5;"/><text fill="#000000" font-family="sans-serif" font-size="14" lengthAdjust="spacing" textLength="236" x="221.5829" y="460.5451">Manage Customers and its Managers</text></g><g id="elem_Register Application"><ellipse cx="339.3478" cy="540.8696" fill="#F1F1F1" rx="84.8478" ry="19.3696" style="stroke:#181818;stroke-width:0.5;"/><text fill="#000000" font-family="sans-serif" font-size="14" lengthAdjust="spacing" textLength="126" x="276.3478" y="544.5981">Register Application</text></g><g id="elem_Manage Job Openings"><ellipse cx="339.6965" cy="616.2393" fill="#F1F1F1" rx="91.6965" ry="20.7393" style="stroke:#181818;stroke-width:0.5;"/><text fill="#000000" font-family="sans-serif" font-size="14" lengthAdjust="spacing" textLength="142" x="268.6965" y="619.9678">Manage Job Openings</text></g><g id="elem_Deploy and Configure Terminal"><ellipse cx="339.3945" cy="697.1789" fill="#F1F1F1" rx="116.3945" ry="25.6789" style="stroke:#181818;stroke-width:0.5;"/><text fill="#000000" font-family="sans-serif" font-size="14" lengthAdjust="spacing" textLength="197" x="240.8945" y="700.9074">Deploy and Configure Terminal</text></g><g id="elem_Follow Applications"><ellipse cx="339.3351" cy="295.867" fill="#F1F1F1" rx="82.3351" ry="18.867" style="stroke:#181818;stroke-width:0.5;"/><text fill="#000000" font-family="sans-serif" font-size="14" lengthAdjust="spacing" textLength="120" x="279.3351" y="299.5955">Follow Applications</text></g><g id="elem_Follow Job Openings"><ellipse cx="339.4661" cy="180.7932" fill="#F1F1F1" rx="86.9661" ry="19.7932" style="stroke:#181818;stroke-width:0.5;"/><text fill="#000000" font-family="sans-serif" font-size="14" lengthAdjust="spacing" textLength="131" x="273.9661" y="184.5217">Follow Job Openings</text></g><g id="elem_Import Application Files"><ellipse cx="339.4382" cy="64.0876" fill="#F1F1F1" rx="93.4382" ry="21.0876" style="stroke:#181818;stroke-width:0.5;"/><text fill="#000000" font-family="sans-serif" font-size="14" lengthAdjust="spacing" textLength="146" x="266.4382" y="67.8162">Import Application Files</text></g><!--entity admin--><g id="elem_admin"><ellipse cx="75.5" cy="378.5" fill="#F1F1F1" rx="8" ry="8" style="stroke:#181818;stroke-width:0.5;"/><path d="M75.5,386.5 L75.5,413.5 M62.5,394.5 L88.5,394.5 M75.5,413.5 L62.5,428.5 M75.5,413.5 L88.5,428.5 " fill="none" style="stroke:#181818;stroke-width:0.5;"/><text fill="#000000" font-family="sans-serif" font-size="14" lengthAdjust="spacing" textLength="39" x="56" y="444.5332">Admin</text></g><!--entity operator--><g id="elem_operator"><ellipse cx="75.5" cy="491.5" fill="#F1F1F1" rx="8" ry="8" style="stroke:#181818;stroke-width:0.5;"/><path d="M75.5,499.5 L75.5,526.5 M62.5,507.5 L88.5,507.5 M75.5,526.5 L62.5,541.5 M75.5,526.5 L88.5,541.5 " fill="none" style="stroke:#181818;stroke-width:0.5;"/><text fill="#000000" font-family="sans-serif" font-size="14" lengthAdjust="spacing" textLength="57" x="47" y="557.5332">Operator</text></g><!--entity customerManager--><g id="elem_customerManager"><ellipse cx="75.5" cy="604.5" fill="#F1F1F1" rx="8" ry="8" style="stroke:#181818;stroke-width:0.5;"/><path d="M75.5,612.5 L75.5,639.5 M62.5,620.5 L88.5,620.5 M75.5,639.5 L62.5,654.5 M75.5,639.5 L88.5,654.5 " fill="none" style="stroke:#181818;stroke-width:0.5;"/><text fill="#000000" font-family="sans-serif" font-size="14" lengthAdjust="spacing" textLength="121" x="15" y="670.5332">Customer Manager</text></g><!--entity languageEngineer--><g id="elem_languageEngineer"><ellipse cx="75.5" cy="717.5" fill="#F1F1F1" rx="8" ry="8" style="stroke:#181818;stroke-width:0.5;"/><path d="M75.5,725.5 L75.5,752.5 M62.5,733.5 L88.5,733.5 M75.5,752.5 L62.5,767.5 M75.5,752.5 L88.5,767.5 " fill="none" style="stroke:#181818;stroke-width:0.5;"/><text fill="#000000" font-family="sans-serif" font-size="14" lengthAdjust="spacing" textLength="125" x="13" y="783.5332">Language Engineer</text></g><!--entity candidate--><g id="elem_candidate"><ellipse cx="75.5" cy="265.5" fill="#F1F1F1" rx="8" ry="8" style="stroke:#181818;stroke-width:0.5;"/><path d="M75.5,273.5 L75.5,300.5 M62.5,281.5 L88.5,281.5 M75.5,300.5 L62.5,315.5 M75.5,300.5 L88.5,315.5 " fill="none" style="stroke:#181818;stroke-width:0.5;"/><text fill="#000000" font-family="sans-serif" font-size="14" lengthAdjust="spacing" textLength="65" x="43" y="331.5332">Candidate</text></g><!--entity customer--><g id="elem_customer"><ellipse cx="75.5" cy="150.5" fill="#F1F1F1" rx="8" ry="8" style="stroke:#181818;stroke-width:0.5;"/><path d="M75.5,158.5 L75.5,185.5 M62.5,166.5 L88.5,166.5 M75.5,185.5 L62.5,200.5 M75.5,185.5 L88.5,200.5 " fill="none" style="stroke:#181818;stroke-width:0.5;"/><text fill="#000000" font-family="sans-serif" font-size="14" lengthAdjust="spacing" textLength="61" x="45" y="216.5332">Customer</text></g><!--entity applicationEmailBot--><g id="elem_applicationEmailBot"><ellipse cx="75.5" cy="33.5" fill="#F1F1F1" rx="8" ry="8" style="stroke:#181818;stroke-width:0.5;"/><path d="M75.5,41.5 L75.5,68.5 M62.5,49.5 L88.5,49.5 M75.5,68.5 L62.5,83.5 M75.5,68.5 L88.5,83.5 " fill="none" style="stroke:#181818;stroke-width:0.5;"/><text fill="#000000" font-family="sans-serif" font-size="14" lengthAdjust="spacing" textLength="139" x="6" y="99.5332">Applications Email Bot</text></g><!--link admin to Manage Customers and its Managers--><g id="link_admin_Manage Customers and its Managers"><path d="M95.34,412.45 C123.76,417.66 179.7,427.91 230.77,437.26 " fill="none" id="admin-to-Manage Customers and its Managers" style="stroke:#181818;stroke-width:1.0;"/><polygon fill="#181818" points="235.69,438.16,227.5578,432.6041,230.7718,437.2593,226.1167,440.4733,235.69,438.16" style="stroke:#181818;stroke-width:1.0;"/></g><!--link operator to Register Application--><g id="link_operator_Register Application"><path d="M104.04,524 C139.1,526.54 201.3,531.05 252.82,534.79 " fill="none" id="operator-to-Register Application" style="stroke:#181818;stroke-width:1.0;"/><polygon fill="#181818" points="258.09,535.17,249.3988,530.5372,253.1028,534.8127,248.8272,538.5167,258.09,535.17" style="stroke:#181818;stroke-width:1.0;"/></g><!--link customerManager to Manage Job Openings--><g id="link_customerManager_Manage Job Openings"><path d="M136.28,630.66 C168.96,628.3 210.13,625.31 246.78,622.65 " fill="none" id="customerManager-to-Manage Job Openings" style="stroke:#181818;stroke-width:1.0;"/><polygon fill="#181818" points="252.15,622.26,242.8872,618.9133,247.1628,622.6173,243.4588,626.8928,252.15,622.26" style="stroke:#181818;stroke-width:1.0;"/></g><!--link languageEngineer to Deploy and Configure Terminal--><g id="link_languageEngineer_Deploy and Configure Terminal"><path d="M138.26,735.98 C170.56,729.69 210.74,721.87 246.61,714.89 " fill="none" id="languageEngineer-to-Deploy and Configure Terminal" style="stroke:#181818;stroke-width:1.0;"/><polygon fill="#181818" points="251.87,713.86,242.2713,711.6544,246.9622,714.8159,243.8007,719.5068,251.87,713.86" style="stroke:#181818;stroke-width:1.0;"/></g><!--link candidate to Follow Applications--><g id="link_candidate_Follow Applications"><path d="M108.1,296 C143.5,296 202.38,296 251.76,296 " fill="none" id="candidate-to-Follow Applications" style="stroke:#181818;stroke-width:1.0;"/><polygon fill="#181818" points="256.81,296,247.81,292,251.81,296,247.81,300,256.81,296" style="stroke:#181818;stroke-width:1.0;"/></g><!--link customer to Follow Job Openings--><g id="link_customer_Follow Job Openings"><path d="M106.05,181 C140.14,181 197.85,181 247.24,181 " fill="none" id="customer-to-Follow Job Openings" style="stroke:#181818;stroke-width:1.0;"/><polygon fill="#181818" points="252.3,181,243.3,177,247.3,181,243.3,185,252.3,181" style="stroke:#181818;stroke-width:1.0;"/></g><!--link applicationEmailBot to Import Application Files--><g id="link_applicationEmailBot_Import Application Files"><path d="M145.34,64 C174.55,64 209.14,64 240.91,64 " fill="none" id="applicationEmailBot-to-Import Application Files" style="stroke:#181818;stroke-width:1.0;"/><polygon fill="#181818" points="245.98,64,236.98,60,240.98,64,236.98,68,245.98,64" style="stroke:#181818;stroke-width:1.0;"/></g><!--SRC=[ZLBRJiCm37tFLrXzuObVG8814WY41Fo0rxfTH1fNIQffGljttARfch89-jGS7_iSNwxybxOTEcoXPSlbpd5B45nFwXJfiFp2XZx2mH0uAWFQnf2wEZ7y3YlUQzj0ZSQJMYJF_6y5yjsngyXjsB23hP72wgYKeJf0O72wsGMez92ZsIg5PH1USLkrsXQ07d3uI_1RHmxbRupmz4Z1JU-3zEBW5QsOZwHo0YSiSL_4O2y0FDX6Mvh8Pa8JE5T6M-aA0yMIwRKMpWJdJhhEw1A7xZmyjAYDJ2J4rawXCI2uKlFqeBYJON5TwpBgRkSdnCdsdahqGepDGV8XbMq5ElWq2L_a_7Tgj0yogOMvucp9Pzw23DtAejT5xgapV1YbDcnhtVIEu9ESh0jDeKRok3oulhxvjyUqr9XqsUXghvd6RzFhnKRw7nqSisNCDp1uoUz0WDL27jaOtYzT-saYSrAqS9Qu4avdFUjEm4NPlFziN9bgpijLixDzr0Abgrr6Xe3WlvqyjHsxiEIEHPATCvSVdLtEEweV]--></g></svg>