<?xml version="1.0" encoding="us-ascii" standalone="no"?><svg xmlns="http://www.w3.org/2000/svg" xmlns:xlink="http://www.w3.org/1999/xlink" contentStyleType="text/css" height="551.2px" preserveAspectRatio="none" style="width:743px;height:551px;background:#FFFFFF;" version="1.1" viewBox="0 0 743 551" width="743.6px" zoomAndPan="magnify"><defs/><g><text fill="#000000" font-family="sans-serif" font-size="5.6" font-weight="bold" lengthAdjust="spacing" textLength="120.4" x="308.8" y="9.4141">Class Diagram - Notify the rank by email</text><!--cluster presentation--><g id="cluster_presentation"><path d="M187.4,17.3953 L224.2,17.3953 A1.5,1.5 0 0 1 225.2,18.3953 L228,26.3906 L308.6,26.3906 A1,1 0 0 1 309.6,27.3906 L309.6,88.9713 A1,1 0 0 1 308.6,89.9713 L187.4,89.9713 A1,1 0 0 1 186.4,88.9713 L186.4,18.3953 A1,1 0 0 1 187.4,17.3953 " fill="none" style="stroke:#000000;stroke-width:0.6000000000000001;"/><line style="stroke:#000000;stroke-width:0.6000000000000001;" x1="186.4" x2="228" y1="26.3906" y2="26.3906"/><text fill="#000000" font-family="sans-serif" font-size="5.6" font-weight="bold" lengthAdjust="spacing" textLength="36.4" x="188" y="23.6094">presentation</text></g><!--cluster application--><g id="cluster_application"><path d="M75.8,103.1713 L108.2,103.1713 A1.5,1.5 0 0 1 109.2,104.1713 L112,112.1666 L635.4,112.1666 A1,1 0 0 1 636.4,113.1666 L636.4,181.3433 A1,1 0 0 1 635.4,182.3433 L75.8,182.3433 A1,1 0 0 1 74.8,181.3433 L74.8,104.1713 A1,1 0 0 1 75.8,103.1713 " fill="none" style="stroke:#000000;stroke-width:0.6000000000000001;"/><line style="stroke:#000000;stroke-width:0.6000000000000001;" x1="74.8" x2="112" y1="112.1666" y2="112.1666"/><text fill="#000000" font-family="sans-serif" font-size="5.6" font-weight="bold" lengthAdjust="spacing" textLength="32" x="76.4" y="109.3854">application</text></g><!--cluster services--><g id="cluster_services"><path d="M3.4,195.5433 L27,195.5433 A1.5,1.5 0 0 1 28,196.5433 L30.8,204.5386 L739.8,204.5386 A1,1 0 0 1 740.8,205.5386 L740.8,273.7153 A1,1 0 0 1 739.8,274.7153 L3.4,274.7153 A1,1 0 0 1 2.4,273.7153 L2.4,196.5433 A1,1 0 0 1 3.4,195.5433 " fill="none" style="stroke:#000000;stroke-width:0.6000000000000001;"/><line style="stroke:#000000;stroke-width:0.6000000000000001;" x1="2.4" x2="30.8" y1="204.5386" y2="204.5386"/><text fill="#000000" font-family="sans-serif" font-size="5.6" font-weight="bold" lengthAdjust="spacing" textLength="23.2" x="4" y="201.7574">services</text></g><!--cluster repositories--><g id="cluster_repositories"><path d="M279,337.5153 L314.2,337.5153 A1.5,1.5 0 0 1 315.2,338.5153 L318,346.5106 L456.6,346.5106 A1,1 0 0 1 457.6,347.5106 L457.6,389.3073 A1,1 0 0 1 456.6,390.3073 L279,390.3073 A1,1 0 0 1 278,389.3073 L278,338.5153 A1,1 0 0 1 279,337.5153 " fill="none" style="stroke:#000000;stroke-width:0.6000000000000001;"/><line style="stroke:#000000;stroke-width:0.6000000000000001;" x1="278" x2="318" y1="346.5106" y2="346.5106"/><text fill="#000000" font-family="sans-serif" font-size="5.6" font-weight="bold" lengthAdjust="spacing" textLength="34.8" x="279.6" y="343.7294">repositories</text></g><!--cluster domain--><g id="cluster_domain"><path d="M90.2,409.9073 L112.2,409.9073 A1.5,1.5 0 0 1 113.2,410.9073 L116,418.9026 L671,418.9026 A1,1 0 0 1 672,419.9026 L672,547.4353 A1,1 0 0 1 671,548.4353 L90.2,548.4353 A1,1 0 0 1 89.2,547.4353 L89.2,410.9073 A1,1 0 0 1 90.2,409.9073 " fill="none" style="stroke:#000000;stroke-width:0.6000000000000001;"/><line style="stroke:#000000;stroke-width:0.6000000000000001;" x1="89.2" x2="116" y1="418.9026" y2="418.9026"/><text fill="#000000" font-family="sans-serif" font-size="5.6" font-weight="bold" lengthAdjust="spacing" textLength="21.6" x="90.8" y="416.1214">domain</text></g><!--class NotifyResultOfRankCandidatesUI--><g id="elem_NotifyResultOfRankCandidatesUI"><rect codeLine="12" fill="#FFFFFF" height="52.1766" id="NotifyResultOfRankCandidatesUI" rx="1" ry="1" style="stroke:#000000;stroke-width:0.20000000000000004;" width="110.8" x="192.6" y="31.3953"/><ellipse cx="202.56" cy="37.7953" fill="#ADD1B2" rx="4.4" ry="4.4" style="stroke:#181818;stroke-width:0.4000000000000001;"/><path d="M203.7493,40.0525 Q203.5168,40.1721 203.2612,40.2318 Q203.0055,40.2916 202.7233,40.2916 Q201.7205,40.2916 201.1926,39.6309 Q200.6647,38.9701 200.6647,37.7217 Q200.6647,36.4699 201.1926,35.8092 Q201.7205,35.1484 202.7233,35.1484 Q203.0055,35.1484 203.2645,35.2082 Q203.5235,35.268 203.7493,35.3875 L203.7493,36.4766 Q203.4969,36.2441 203.2595,36.1362 Q203.0221,36.0283 202.7698,36.0283 Q202.2319,36.0283 201.9579,36.455 Q201.684,36.8816 201.684,37.7217 Q201.684,38.5584 201.9579,38.9851 Q202.2319,39.4117 202.7698,39.4117 Q203.0221,39.4117 203.2595,39.3038 Q203.4969,39.1959 203.7493,38.9635 Z " fill="#000000"/><text fill="#000000" font-family="sans-serif" font-size="5.6" lengthAdjust="spacing" textLength="89.2" x="209.04" y="39.9117">NotifyResultOfRankCandidatesUI</text><line style="stroke:#000000;stroke-width:0.20000000000000004;" x1="193" x2="303" y1="44.1953" y2="44.1953"/><line style="stroke:#000000;stroke-width:0.20000000000000004;" x1="193" x2="303" y1="47.3953" y2="47.3953"/><ellipse cx="197" cy="52.893" fill="#84BE84" rx="1.2" ry="1.2" style="stroke:#038048;stroke-width:0.4000000000000001;"/><text fill="#000000" font-family="sans-serif" font-size="5.6" lengthAdjust="spacing" textLength="26" x="200.6" y="54.4094">doShow()</text><ellipse cx="197" cy="59.4883" fill="#84BE84" rx="1.2" ry="1.2" style="stroke:#038048;stroke-width:0.4000000000000001;"/><text fill="#000000" font-family="sans-serif" font-size="5.6" lengthAdjust="spacing" textLength="68.4" x="200.6" y="61.0047">buildSubject(application)</text><ellipse cx="197" cy="66.0836" fill="#84BE84" rx="1.2" ry="1.2" style="stroke:#038048;stroke-width:0.4000000000000001;"/><text fill="#000000" font-family="sans-serif" font-size="5.6" lengthAdjust="spacing" textLength="100.4" x="200.6" y="67.6">buildBody1(application, rank, status)</text><ellipse cx="197" cy="72.6789" fill="#84BE84" rx="1.2" ry="1.2" style="stroke:#038048;stroke-width:0.4000000000000001;"/><text fill="#000000" font-family="sans-serif" font-size="5.6" lengthAdjust="spacing" textLength="61.6" x="200.6" y="74.1953">buildBody2(candidate)</text><ellipse cx="197" cy="79.2742" fill="#84BE84" rx="1.2" ry="1.2" style="stroke:#038048;stroke-width:0.4000000000000001;"/><text fill="#000000" font-family="sans-serif" font-size="5.6" lengthAdjust="spacing" textLength="77.6" x="200.6" y="80.7906">buildSubject1(jobReference)</text></g><!--class NotifyCandidatesController--><g id="elem_NotifyCandidatesController"><rect codeLine="24" fill="#FFFFFF" height="58.7719" id="NotifyCandidatesController" rx="1" ry="1" style="stroke:#000000;stroke-width:0.20000000000000004;" width="127.2" x="184.4" y="117.1713"/><ellipse cx="208.9" cy="123.5713" fill="#ADD1B2" rx="4.4" ry="4.4" style="stroke:#181818;stroke-width:0.4000000000000001;"/><path d="M210.0893,125.8285 Q209.8568,125.9481 209.6012,126.0078 Q209.3455,126.0676 209.0633,126.0676 Q208.0605,126.0676 207.5326,125.4069 Q207.0047,124.7461 207.0047,123.4977 Q207.0047,122.2459 207.5326,121.5852 Q208.0605,120.9244 209.0633,120.9244 Q209.3455,120.9244 209.6045,120.9842 Q209.8635,121.044 210.0893,121.1635 L210.0893,122.2526 Q209.8369,122.0201 209.5995,121.9122 Q209.3621,121.8043 209.1098,121.8043 Q208.5719,121.8043 208.2979,122.231 Q208.024,122.6576 208.024,123.4977 Q208.024,124.3344 208.2979,124.7611 Q208.5719,125.1877 209.1098,125.1877 Q209.3621,125.1877 209.5995,125.0798 Q209.8369,124.9719 210.0893,124.7395 Z " fill="#000000"/><text fill="#000000" font-family="sans-serif" font-size="5.6" lengthAdjust="spacing" textLength="74.8" x="217.1" y="125.6877">NotifyCandidatesController</text><line style="stroke:#000000;stroke-width:0.20000000000000004;" x1="184.8" x2="311.2" y1="129.9713" y2="129.9713"/><line style="stroke:#000000;stroke-width:0.20000000000000004;" x1="184.8" x2="311.2" y1="133.1713" y2="133.1713"/><ellipse cx="188.8" cy="138.669" fill="#84BE84" rx="1.2" ry="1.2" style="stroke:#038048;stroke-width:0.4000000000000001;"/><text fill="#000000" font-family="sans-serif" font-size="5.6" lengthAdjust="spacing" textLength="72" x="192.4" y="140.1854">findApplicationsToNotify()</text><ellipse cx="188.8" cy="145.2643" fill="#84BE84" rx="1.2" ry="1.2" style="stroke:#038048;stroke-width:0.4000000000000001;"/><text fill="#000000" font-family="sans-serif" font-size="5.6" lengthAdjust="spacing" textLength="88" x="192.4" y="146.7807">findCandidateEmail(application)</text><ellipse cx="188.8" cy="151.8596" fill="#84BE84" rx="1.2" ry="1.2" style="stroke:#038048;stroke-width:0.4000000000000001;"/><text fill="#000000" font-family="sans-serif" font-size="5.6" lengthAdjust="spacing" textLength="98" x="192.4" y="153.376">checkApplicationStatus(application)</text><ellipse cx="188.8" cy="158.4549" fill="#84BE84" rx="1.2" ry="1.2" style="stroke:#038048;stroke-width:0.4000000000000001;"/><text fill="#000000" font-family="sans-serif" font-size="5.6" lengthAdjust="spacing" textLength="116.8" x="192.4" y="159.9713">createEmail(candidateEmail, subject, body)</text><ellipse cx="188.8" cy="165.0502" fill="#84BE84" rx="1.2" ry="1.2" style="stroke:#038048;stroke-width:0.4000000000000001;"/><text fill="#000000" font-family="sans-serif" font-size="5.6" lengthAdjust="spacing" textLength="73.2" x="192.4" y="166.5666">sendEmails(emailsToSend)</text><ellipse cx="188.8" cy="171.6455" fill="#84BE84" rx="1.2" ry="1.2" style="stroke:#038048;stroke-width:0.4000000000000001;"/><text fill="#000000" font-family="sans-serif" font-size="5.6" lengthAdjust="spacing" textLength="113.6" x="192.4" y="173.1619">sendEmailCostumer(Email emailsToSend)</text></g><!--class SelectJobOpeningController--><g id="elem_SelectJobOpeningController"><rect codeLine="33" fill="#FFFFFF" height="38.9859" id="SelectJobOpeningController" rx="1" ry="1" style="stroke:#000000;stroke-width:0.20000000000000004;" width="89.2" x="81" y="127.0633"/><ellipse cx="87" cy="133.4633" fill="#ADD1B2" rx="4.4" ry="4.4" style="stroke:#181818;stroke-width:0.4000000000000001;"/><path d="M88.1893,135.7205 Q87.9568,135.8401 87.7012,135.8998 Q87.4455,135.9596 87.1633,135.9596 Q86.1605,135.9596 85.6326,135.2989 Q85.1047,134.6381 85.1047,133.3897 Q85.1047,132.1379 85.6326,131.4772 Q86.1605,130.8164 87.1633,130.8164 Q87.4455,130.8164 87.7045,130.8762 Q87.9635,130.936 88.1893,131.0555 L88.1893,132.1446 Q87.9369,131.9121 87.6995,131.8042 Q87.4621,131.6963 87.2098,131.6963 Q86.6719,131.6963 86.3979,132.123 Q86.124,132.5496 86.124,133.3897 Q86.124,134.2264 86.3979,134.6531 Q86.6719,135.0797 87.2098,135.0797 Q87.4621,135.0797 87.6995,134.9718 Q87.9369,134.8639 88.1893,134.6315 Z " fill="#000000"/><text fill="#000000" font-family="sans-serif" font-size="5.6" lengthAdjust="spacing" textLength="76.4" x="92.6" y="135.5797">SelectJobOpeningController</text><line style="stroke:#000000;stroke-width:0.20000000000000004;" x1="81.4" x2="169.8" y1="139.8633" y2="139.8633"/><line style="stroke:#000000;stroke-width:0.20000000000000004;" x1="81.4" x2="169.8" y1="143.0633" y2="143.0633"/><ellipse cx="85.4" cy="148.561" fill="#84BE84" rx="1.2" ry="1.2" style="stroke:#038048;stroke-width:0.4000000000000001;"/><text fill="#000000" font-family="sans-serif" font-size="5.6" lengthAdjust="spacing" textLength="52" x="89" y="150.0774">selectJobOpening()</text><ellipse cx="85.4" cy="155.1563" fill="#84BE84" rx="1.2" ry="1.2" style="stroke:#038048;stroke-width:0.4000000000000001;"/><text fill="#000000" font-family="sans-serif" font-size="5.6" lengthAdjust="spacing" textLength="74.4" x="89" y="156.6727">selectJobOpeningAnalysis()</text><ellipse cx="85.4" cy="161.7516" fill="#84BE84" rx="1.2" ry="1.2" style="stroke:#038048;stroke-width:0.4000000000000001;"/><text fill="#000000" font-family="sans-serif" font-size="5.6" lengthAdjust="spacing" textLength="44.4" x="89" y="163.268">selectorPart(list)</text></g><!--class ListJobOpeningApplicationsController--><g id="elem_ListJobOpeningApplicationsController"><rect codeLine="39" fill="#FFFFFF" height="58.7719" id="ListJobOpeningApplicationsController" rx="1" ry="1" style="stroke:#000000;stroke-width:0.20000000000000004;" width="154.8" x="325.8" y="117.1713"/><ellipse cx="349.7" cy="123.5713" fill="#ADD1B2" rx="4.4" ry="4.4" style="stroke:#181818;stroke-width:0.4000000000000001;"/><path d="M350.8893,125.8285 Q350.6568,125.9481 350.4012,126.0078 Q350.1455,126.0676 349.8633,126.0676 Q348.8605,126.0676 348.3326,125.4069 Q347.8047,124.7461 347.8047,123.4977 Q347.8047,122.2459 348.3326,121.5852 Q348.8605,120.9244 349.8633,120.9244 Q350.1455,120.9244 350.4045,120.9842 Q350.6635,121.044 350.8893,121.1635 L350.8893,122.2526 Q350.6369,122.0201 350.3995,121.9122 Q350.1621,121.8043 349.9098,121.8043 Q349.3719,121.8043 349.0979,122.231 Q348.824,122.6576 348.824,123.4977 Q348.824,124.3344 349.0979,124.7611 Q349.3719,125.1877 349.9098,125.1877 Q350.1621,125.1877 350.3995,125.0798 Q350.6369,124.9719 350.8893,124.7395 Z " fill="#000000"/><text fill="#000000" font-family="sans-serif" font-size="5.6" lengthAdjust="spacing" textLength="103.6" x="357.9" y="125.6877">ListJobOpeningApplicationsController</text><line style="stroke:#000000;stroke-width:0.20000000000000004;" x1="326.2" x2="480.2" y1="129.9713" y2="129.9713"/><line style="stroke:#000000;stroke-width:0.20000000000000004;" x1="326.2" x2="480.2" y1="133.1713" y2="133.1713"/><ellipse cx="330.2" cy="138.669" fill="#84BE84" rx="1.2" ry="1.2" style="stroke:#038048;stroke-width:0.4000000000000001;"/><text fill="#000000" font-family="sans-serif" font-size="5.6" lengthAdjust="spacing" textLength="119.2" x="333.8" y="140.1854">allApplicationsOfJobOpening(jobReference)</text><ellipse cx="330.2" cy="145.2643" fill="#84BE84" rx="1.2" ry="1.2" style="stroke:#038048;stroke-width:0.4000000000000001;"/><text fill="#000000" font-family="sans-serif" font-size="5.6" lengthAdjust="spacing" textLength="144.4" x="333.8" y="146.7807">allApplicationsOfJobOpeningAccepted(jobReference)</text><ellipse cx="330.2" cy="151.8596" fill="#84BE84" rx="1.2" ry="1.2" style="stroke:#038048;stroke-width:0.4000000000000001;"/><text fill="#000000" font-family="sans-serif" font-size="5.6" lengthAdjust="spacing" textLength="127.2" x="333.8" y="153.376">showApplicationsOfJobOpening(jobReference)</text><ellipse cx="330.2" cy="158.4549" fill="#84BE84" rx="1.2" ry="1.2" style="stroke:#038048;stroke-width:0.4000000000000001;"/><text fill="#000000" font-family="sans-serif" font-size="5.6" lengthAdjust="spacing" textLength="50.8" x="333.8" y="159.9713">selectApplication()</text><ellipse cx="330.2" cy="165.0502" fill="#84BE84" rx="1.2" ry="1.2" style="stroke:#038048;stroke-width:0.4000000000000001;"/><text fill="#000000" font-family="sans-serif" font-size="5.6" lengthAdjust="spacing" textLength="83.2" x="333.8" y="166.5666">findJobOpening(jobReference)</text><ellipse cx="330.2" cy="171.6455" fill="#84BE84" rx="1.2" ry="1.2" style="stroke:#038048;stroke-width:0.4000000000000001;"/><text fill="#000000" font-family="sans-serif" font-size="5.6" lengthAdjust="spacing" textLength="62.8" x="333.8" y="173.1619">findApplicationByID(id)</text></g><!--class ListJobOpeningController--><g id="elem_ListJobOpeningController"><rect codeLine="48" fill="#FFFFFF" height="45.5813" id="ListJobOpeningController" rx="1" ry="1" style="stroke:#000000;stroke-width:0.20000000000000004;" width="135.6" x="494.6" y="123.7673"/><ellipse cx="525.9" cy="130.1673" fill="#ADD1B2" rx="4.4" ry="4.4" style="stroke:#181818;stroke-width:0.4000000000000001;"/><path d="M527.0893,132.4245 Q526.8568,132.5441 526.6012,132.6038 Q526.3455,132.6636 526.0633,132.6636 Q525.0605,132.6636 524.5326,132.0029 Q524.0047,131.3421 524.0047,130.0937 Q524.0047,128.8419 524.5326,128.1812 Q525.0605,127.5204 526.0633,127.5204 Q526.3455,127.5204 526.6045,127.5802 Q526.8635,127.64 527.0893,127.7595 L527.0893,128.8486 Q526.8369,128.6161 526.5995,128.5082 Q526.3621,128.4003 526.1098,128.4003 Q525.5719,128.4003 525.2979,128.827 Q525.024,129.2536 525.024,130.0937 Q525.024,130.9304 525.2979,131.3571 Q525.5719,131.7837 526.1098,131.7837 Q526.3621,131.7837 526.5995,131.6758 Q526.8369,131.5679 527.0893,131.3355 Z " fill="#000000"/><text fill="#000000" font-family="sans-serif" font-size="5.6" lengthAdjust="spacing" textLength="69.6" x="534.1" y="132.2837">ListJobOpeningController</text><line style="stroke:#000000;stroke-width:0.20000000000000004;" x1="495" x2="629.8" y1="136.5673" y2="136.5673"/><line style="stroke:#000000;stroke-width:0.20000000000000004;" x1="495" x2="629.8" y1="139.7673" y2="139.7673"/><ellipse cx="499" cy="145.265" fill="#84BE84" rx="1.2" ry="1.2" style="stroke:#038048;stroke-width:0.4000000000000001;"/><text fill="#000000" font-family="sans-serif" font-size="5.6" lengthAdjust="spacing" textLength="53.6" x="502.6" y="146.7814">showJobOpenings()</text><ellipse cx="499" cy="151.8603" fill="#84BE84" rx="1.2" ry="1.2" style="stroke:#038048;stroke-width:0.4000000000000001;"/><text fill="#000000" font-family="sans-serif" font-size="5.6" lengthAdjust="spacing" textLength="76" x="502.6" y="153.3767">showJobOpeningsAnalysis()</text><ellipse cx="499" cy="158.4556" fill="#84BE84" rx="1.2" ry="1.2" style="stroke:#038048;stroke-width:0.4000000000000001;"/><text fill="#000000" font-family="sans-serif" font-size="5.6" lengthAdjust="spacing" textLength="45.6" x="502.6" y="159.972">allJobOpenings()</text><ellipse cx="499" cy="165.0509" fill="#84BE84" rx="1.2" ry="1.2" style="stroke:#038048;stroke-width:0.4000000000000001;"/><text fill="#000000" font-family="sans-serif" font-size="5.6" lengthAdjust="spacing" textLength="125.2" x="502.6" y="166.5673">findJobOpeningByJobReference(jobReference)</text></g><!--class ApplicationService--><g id="elem_ApplicationService"><rect codeLine="58" fill="#FFFFFF" height="58.7719" id="ApplicationService" rx="1" ry="1" style="stroke:#000000;stroke-width:0.20000000000000004;" width="221.6" x="154.8" y="209.5433"/><ellipse cx="238.7" cy="215.9433" fill="#ADD1B2" rx="4.4" ry="4.4" style="stroke:#181818;stroke-width:0.4000000000000001;"/><path d="M239.8893,218.2005 Q239.6568,218.3201 239.4012,218.3798 Q239.1455,218.4396 238.8633,218.4396 Q237.8605,218.4396 237.3326,217.7789 Q236.8047,217.1181 236.8047,215.8697 Q236.8047,214.6179 237.3326,213.9572 Q237.8605,213.2964 238.8633,213.2964 Q239.1455,213.2964 239.4045,213.3562 Q239.6635,213.416 239.8893,213.5355 L239.8893,214.6246 Q239.6369,214.3921 239.3995,214.2842 Q239.1621,214.1763 238.9098,214.1763 Q238.3719,214.1763 238.0979,214.603 Q237.824,215.0296 237.824,215.8697 Q237.824,216.7064 238.0979,217.1331 Q238.3719,217.5597 238.9098,217.5597 Q239.1621,217.5597 239.3995,217.4518 Q239.6369,217.3439 239.8893,217.1115 Z " fill="#000000"/><text fill="#000000" font-family="sans-serif" font-size="5.6" lengthAdjust="spacing" textLength="50.4" x="246.9" y="218.0597">ApplicationService</text><line style="stroke:#000000;stroke-width:0.20000000000000004;" x1="155.2" x2="376" y1="222.3433" y2="222.3433"/><line style="stroke:#000000;stroke-width:0.20000000000000004;" x1="155.2" x2="376" y1="225.5433" y2="225.5433"/><ellipse cx="159.2" cy="231.041" fill="#84BE84" rx="1.2" ry="1.2" style="stroke:#038048;stroke-width:0.4000000000000001;"/><text fill="#000000" font-family="sans-serif" font-size="5.6" lengthAdjust="spacing" textLength="211.2" x="162.8" y="232.5574">registerApplication(rank, applicationFiles, jobReference, candidate, operator)</text><ellipse cx="159.2" cy="237.6363" fill="#84BE84" rx="1.2" ry="1.2" style="stroke:#038048;stroke-width:0.4000000000000001;"/><text fill="#000000" font-family="sans-serif" font-size="5.6" lengthAdjust="spacing" textLength="93.2" x="162.8" y="239.1527">findApplicationById(applicationID)</text><ellipse cx="159.2" cy="244.2316" fill="#84BE84" rx="1.2" ry="1.2" style="stroke:#038048;stroke-width:0.4000000000000001;"/><text fill="#000000" font-family="sans-serif" font-size="5.6" lengthAdjust="spacing" textLength="44.4" x="162.8" y="245.748">allApplications()</text><ellipse cx="159.2" cy="250.8269" fill="#84BE84" rx="1.2" ry="1.2" style="stroke:#038048;stroke-width:0.4000000000000001;"/><text fill="#000000" font-family="sans-serif" font-size="5.6" lengthAdjust="spacing" textLength="122.8" x="162.8" y="252.3433">findApplicationsForJobOpening(jobOpening)</text><ellipse cx="159.2" cy="257.4222" fill="#84BE84" rx="1.2" ry="1.2" style="stroke:#038048;stroke-width:0.4000000000000001;"/><text fill="#000000" font-family="sans-serif" font-size="5.6" lengthAdjust="spacing" textLength="82.8" x="162.8" y="258.9386">updateRank(rank, application)</text><ellipse cx="159.2" cy="264.0175" fill="#84BE84" rx="1.2" ry="1.2" style="stroke:#038048;stroke-width:0.4000000000000001;"/><text fill="#000000" font-family="sans-serif" font-size="5.6" lengthAdjust="spacing" textLength="60" x="162.8" y="265.5339">applicationsByCM(cm)</text></g><!--class JobOpeningService--><g id="elem_JobOpeningService"><rect codeLine="67" fill="#FFFFFF" height="52.1766" id="JobOpeningService" rx="1" ry="1" style="stroke:#000000;stroke-width:0.20000000000000004;" width="344" x="390.4" y="212.8393"/><ellipse cx="534.9" cy="219.2393" fill="#ADD1B2" rx="4.4" ry="4.4" style="stroke:#181818;stroke-width:0.4000000000000001;"/><path d="M536.0893,221.4965 Q535.8568,221.6161 535.6012,221.6758 Q535.3455,221.7356 535.0633,221.7356 Q534.0605,221.7356 533.5326,221.0749 Q533.0047,220.4141 533.0047,219.1657 Q533.0047,217.9139 533.5326,217.2532 Q534.0605,216.5924 535.0633,216.5924 Q535.3455,216.5924 535.6045,216.6522 Q535.8635,216.712 536.0893,216.8315 L536.0893,217.9206 Q535.8369,217.6881 535.5995,217.5802 Q535.3621,217.4723 535.1098,217.4723 Q534.5719,217.4723 534.2979,217.899 Q534.024,218.3256 534.024,219.1657 Q534.024,220.0024 534.2979,220.4291 Q534.5719,220.8557 535.1098,220.8557 Q535.3621,220.8557 535.5995,220.7478 Q535.8369,220.6399 536.0893,220.4075 Z " fill="#000000"/><text fill="#000000" font-family="sans-serif" font-size="5.6" lengthAdjust="spacing" textLength="51.6" x="543.1" y="221.3557">JobOpeningService</text><line style="stroke:#000000;stroke-width:0.20000000000000004;" x1="390.8" x2="734" y1="225.6393" y2="225.6393"/><line style="stroke:#000000;stroke-width:0.20000000000000004;" x1="390.8" x2="734" y1="228.8393" y2="228.8393"/><ellipse cx="394.8" cy="234.337" fill="#84BE84" rx="1.2" ry="1.2" style="stroke:#038048;stroke-width:0.4000000000000001;"/><text fill="#000000" font-family="sans-serif" font-size="5.6" lengthAdjust="spacing" textLength="333.6" x="398.4" y="235.8534">registerJobOpening(jobReference, description, vacanciesNumber, address, mode, contractType, titleOrFunction, company)</text><ellipse cx="394.8" cy="240.9323" fill="#84BE84" rx="1.2" ry="1.2" style="stroke:#038048;stroke-width:0.4000000000000001;"/><text fill="#000000" font-family="sans-serif" font-size="5.6" lengthAdjust="spacing" textLength="83.2" x="398.4" y="242.4487">findJobOpening(jobReference)</text><ellipse cx="394.8" cy="247.5276" fill="#84BE84" rx="1.2" ry="1.2" style="stroke:#038048;stroke-width:0.4000000000000001;"/><text fill="#000000" font-family="sans-serif" font-size="5.6" lengthAdjust="spacing" textLength="190.8" x="398.4" y="249.044">updateJobRequirements(jobReference, jobRequirementsSpecification)</text><ellipse cx="394.8" cy="254.1229" fill="#84BE84" rx="1.2" ry="1.2" style="stroke:#038048;stroke-width:0.4000000000000001;"/><text fill="#000000" font-family="sans-serif" font-size="5.6" lengthAdjust="spacing" textLength="90.8" x="398.4" y="255.6393">verifyJobReference(jobReference)</text><ellipse cx="394.8" cy="260.7182" fill="#84BE84" rx="1.2" ry="1.2" style="stroke:#038048;stroke-width:0.4000000000000001;"/><text fill="#000000" font-family="sans-serif" font-size="5.6" lengthAdjust="spacing" textLength="45.6" x="398.4" y="262.2346">allJobOpenings()</text></g><!--class EmailService--><g id="elem_EmailService"><rect codeLine="74" fill="#FFFFFF" height="38.9859" id="EmailService" rx="1" ry="1" style="stroke:#000000;stroke-width:0.20000000000000004;" width="132" x="8.8" y="219.4353"/><ellipse cx="56.1" cy="225.8353" fill="#ADD1B2" rx="4.4" ry="4.4" style="stroke:#181818;stroke-width:0.4000000000000001;"/><path d="M57.2893,228.0925 Q57.0568,228.2121 56.8012,228.2718 Q56.5455,228.3316 56.2633,228.3316 Q55.2605,228.3316 54.7326,227.6709 Q54.2047,227.0101 54.2047,225.7617 Q54.2047,224.5099 54.7326,223.8492 Q55.2605,223.1884 56.2633,223.1884 Q56.5455,223.1884 56.8045,223.2482 Q57.0635,223.308 57.2893,223.4275 L57.2893,224.5166 Q57.0369,224.2841 56.7995,224.1762 Q56.5621,224.0683 56.3098,224.0683 Q55.7719,224.0683 55.4979,224.495 Q55.224,224.9216 55.224,225.7617 Q55.224,226.5984 55.4979,227.0251 Q55.7719,227.4517 56.3098,227.4517 Q56.5621,227.4517 56.7995,227.3438 Q57.0369,227.2359 57.2893,227.0035 Z " fill="#000000"/><text fill="#000000" font-family="sans-serif" font-size="5.6" lengthAdjust="spacing" textLength="34" x="64.3" y="227.9517">EmailService</text><line style="stroke:#000000;stroke-width:0.20000000000000004;" x1="9.2" x2="140.4" y1="232.2353" y2="232.2353"/><line style="stroke:#000000;stroke-width:0.20000000000000004;" x1="9.2" x2="140.4" y1="235.4353" y2="235.4353"/><ellipse cx="13.2" cy="240.933" fill="#84BE84" rx="1.2" ry="1.2" style="stroke:#038048;stroke-width:0.4000000000000001;"/><text fill="#000000" font-family="sans-serif" font-size="5.6" lengthAdjust="spacing" textLength="121.6" x="16.8" y="242.4494">createEmail( candidateEmail,  subject,  body)</text><ellipse cx="13.2" cy="247.5283" fill="#84BE84" rx="1.2" ry="1.2" style="stroke:#038048;stroke-width:0.4000000000000001;"/><text fill="#000000" font-family="sans-serif" font-size="5.6" lengthAdjust="spacing" textLength="80.4" x="16.8" y="249.0447">sendAllEmails(emailsToSend)</text><ellipse cx="13.2" cy="254.1236" fill="#84BE84" rx="1.2" ry="1.2" style="stroke:#038048;stroke-width:0.4000000000000001;"/><text fill="#000000" font-family="sans-serif" font-size="5.6" lengthAdjust="spacing" textLength="97.2" x="16.8" y="255.64">sendEmailCostumer(emailsToSend)</text></g><!--class ApplicationRepository--><g id="elem_ApplicationRepository"><rect codeLine="82" fill="#FFFFFF" height="32.3906" id="ApplicationRepository" rx="1" ry="1" style="stroke:#000000;stroke-width:0.20000000000000004;" width="76" x="284.4" y="351.5153"/><ellipse cx="291.66" cy="357.9153" fill="#B4A7E5" rx="4.4" ry="4.4" style="stroke:#181818;stroke-width:0.4000000000000001;"/><path d="M290.0311,356.2214 L290.0311,355.3581 L292.9829,355.3581 L292.9829,356.2214 L291.9967,356.2214 L291.9967,359.452 L292.9829,359.452 L292.9829,360.3153 L290.0311,360.3153 L290.0311,359.452 L291.0172,359.452 L291.0172,356.2214 Z " fill="#000000"/><text fill="#000000" font-family="sans-serif" font-size="5.6" font-style="italic" lengthAdjust="spacing" textLength="60.4" x="297.54" y="360.0317">ApplicationRepository</text><line style="stroke:#000000;stroke-width:0.20000000000000004;" x1="284.8" x2="360" y1="364.3153" y2="364.3153"/><line style="stroke:#000000;stroke-width:0.20000000000000004;" x1="284.8" x2="360" y1="367.5153" y2="367.5153"/><ellipse cx="288.8" cy="373.013" fill="#84BE84" rx="1.2" ry="1.2" style="stroke:#038048;stroke-width:0.4000000000000001;"/><text fill="#000000" font-family="sans-serif" font-size="5.6" lengthAdjust="spacing" textLength="44.4" x="292.4" y="374.5294">allApplications()</text><ellipse cx="288.8" cy="379.6083" fill="#84BE84" rx="1.2" ry="1.2" style="stroke:#038048;stroke-width:0.4000000000000001;"/><text fill="#000000" font-family="sans-serif" font-size="5.6" lengthAdjust="spacing" textLength="65.6" x="292.4" y="381.1247">ofIdentity(applicationId)</text></g><!--class JobOpeningRepository--><g id="elem_JobOpeningRepository"><rect codeLine="87" fill="#FFFFFF" height="32.3906" id="JobOpeningRepository" rx="1" ry="1" style="stroke:#000000;stroke-width:0.20000000000000004;" width="76.4" x="374.6" y="351.5153"/><ellipse cx="381.5" cy="357.9153" fill="#B4A7E5" rx="4.4" ry="4.4" style="stroke:#181818;stroke-width:0.4000000000000001;"/><path d="M379.8711,356.2214 L379.8711,355.3581 L382.8229,355.3581 L382.8229,356.2214 L381.8367,356.2214 L381.8367,359.452 L382.8229,359.452 L382.8229,360.3153 L379.8711,360.3153 L379.8711,359.452 L380.8572,359.452 L380.8572,356.2214 Z " fill="#000000"/><text fill="#000000" font-family="sans-serif" font-size="5.6" font-style="italic" lengthAdjust="spacing" textLength="61.6" x="387.3" y="360.0317">JobOpeningRepository</text><line style="stroke:#000000;stroke-width:0.20000000000000004;" x1="375" x2="450.6" y1="364.3153" y2="364.3153"/><line style="stroke:#000000;stroke-width:0.20000000000000004;" x1="375" x2="450.6" y1="367.5153" y2="367.5153"/><ellipse cx="379" cy="373.013" fill="#84BE84" rx="1.2" ry="1.2" style="stroke:#038048;stroke-width:0.4000000000000001;"/><text fill="#000000" font-family="sans-serif" font-size="5.6" lengthAdjust="spacing" textLength="45.6" x="382.6" y="374.5294">allJobOpenings()</text><ellipse cx="379" cy="379.6083" fill="#84BE84" rx="1.2" ry="1.2" style="stroke:#038048;stroke-width:0.4000000000000001;"/><text fill="#000000" font-family="sans-serif" font-size="5.6" lengthAdjust="spacing" textLength="66" x="382.6" y="381.1247">ofIdentity(jobReference)</text></g><!--class Application--><g id="elem_Application"><rect codeLine="95" fill="#FFFFFF" height="118.1297" id="Application" rx="1" ry="1" style="stroke:#000000;stroke-width:0.20000000000000004;" width="232" x="95.6" y="423.9073"/><ellipse cx="194.3" cy="430.3073" fill="#ADD1B2" rx="4.4" ry="4.4" style="stroke:#181818;stroke-width:0.4000000000000001;"/><path d="M195.4893,432.5645 Q195.2568,432.6841 195.0012,432.7438 Q194.7455,432.8036 194.4633,432.8036 Q193.4605,432.8036 192.9326,432.1429 Q192.4047,431.4821 192.4047,430.2337 Q192.4047,428.9819 192.9326,428.3212 Q193.4605,427.6604 194.4633,427.6604 Q194.7455,427.6604 195.0045,427.7202 Q195.2635,427.78 195.4893,427.8995 L195.4893,428.9886 Q195.2369,428.7561 194.9995,428.6482 Q194.7621,428.5403 194.5098,428.5403 Q193.9719,428.5403 193.6979,428.967 Q193.424,429.3936 193.424,430.2337 Q193.424,431.0704 193.6979,431.4971 Q193.9719,431.9237 194.5098,431.9237 Q194.7621,431.9237 194.9995,431.8158 Q195.2369,431.7079 195.4893,431.4755 Z " fill="#000000"/><text fill="#000000" font-family="sans-serif" font-size="5.6" lengthAdjust="spacing" textLength="31.2" x="202.5" y="432.4237">Application</text><line style="stroke:#000000;stroke-width:0.20000000000000004;" x1="96" x2="327.2" y1="436.7073" y2="436.7073"/><line style="stroke:#000000;stroke-width:0.20000000000000004;" x1="96" x2="327.2" y1="439.9073" y2="439.9073"/><ellipse cx="100" cy="445.405" fill="#84BE84" rx="1.2" ry="1.2" style="stroke:#038048;stroke-width:0.4000000000000001;"/><text fill="#000000" font-family="sans-serif" font-size="5.6" lengthAdjust="spacing" textLength="221.6" x="103.6" y="446.9214">Application(rank, createdOn, applicationFiles, jobReference, candidate, operator)</text><ellipse cx="100" cy="452.0003" fill="#84BE84" rx="1.2" ry="1.2" style="stroke:#038048;stroke-width:0.4000000000000001;"/><text fill="#000000" font-family="sans-serif" font-size="5.6" lengthAdjust="spacing" textLength="71.2" x="103.6" y="453.5167">sameAs(otherApplication)</text><ellipse cx="100" cy="458.5956" fill="#84BE84" rx="1.2" ry="1.2" style="stroke:#038048;stroke-width:0.4000000000000001;"/><text fill="#000000" font-family="sans-serif" font-size="5.6" lengthAdjust="spacing" textLength="68" x="103.6" y="460.112">equals(otherApplication)</text><ellipse cx="100" cy="465.1909" fill="#84BE84" rx="1.2" ry="1.2" style="stroke:#038048;stroke-width:0.4000000000000001;"/><text fill="#000000" font-family="sans-serif" font-size="5.6" lengthAdjust="spacing" textLength="31.6" x="103.6" y="466.7073">hashCode()</text><ellipse cx="100" cy="471.7862" fill="#84BE84" rx="1.2" ry="1.2" style="stroke:#038048;stroke-width:0.4000000000000001;"/><text fill="#000000" font-family="sans-serif" font-size="5.6" lengthAdjust="spacing" textLength="81.2" x="103.6" y="473.3026">compareTo(otherApplication)</text><ellipse cx="100" cy="478.3815" fill="#84BE84" rx="1.2" ry="1.2" style="stroke:#038048;stroke-width:0.4000000000000001;"/><text fill="#000000" font-family="sans-serif" font-size="5.6" lengthAdjust="spacing" textLength="24.4" x="103.6" y="479.8979">identity()</text><ellipse cx="100" cy="484.9768" fill="#84BE84" rx="1.2" ry="1.2" style="stroke:#038048;stroke-width:0.4000000000000001;"/><text fill="#000000" font-family="sans-serif" font-size="5.6" lengthAdjust="spacing" textLength="16.4" x="103.6" y="486.4933">rank()</text><ellipse cx="100" cy="491.5722" fill="#84BE84" rx="1.2" ry="1.2" style="stroke:#038048;stroke-width:0.4000000000000001;"/><text fill="#000000" font-family="sans-serif" font-size="5.6" lengthAdjust="spacing" textLength="47.6" x="103.6" y="493.0886">submissionDate()</text><ellipse cx="100" cy="498.1675" fill="#84BE84" rx="1.2" ry="1.2" style="stroke:#038048;stroke-width:0.4000000000000001;"/><text fill="#000000" font-family="sans-serif" font-size="5.6" lengthAdjust="spacing" textLength="20.4" x="103.6" y="499.6839">status()</text><ellipse cx="100" cy="504.7628" fill="#84BE84" rx="1.2" ry="1.2" style="stroke:#038048;stroke-width:0.4000000000000001;"/><text fill="#000000" font-family="sans-serif" font-size="5.6" lengthAdjust="spacing" textLength="25.6" x="103.6" y="506.2792">dataFile()</text><ellipse cx="100" cy="511.3581" fill="#84BE84" rx="1.2" ry="1.2" style="stroke:#038048;stroke-width:0.4000000000000001;"/><text fill="#000000" font-family="sans-serif" font-size="5.6" lengthAdjust="spacing" textLength="28" x="103.6" y="512.8745">operator()</text><ellipse cx="100" cy="517.9534" fill="#84BE84" rx="1.2" ry="1.2" style="stroke:#038048;stroke-width:0.4000000000000001;"/><text fill="#000000" font-family="sans-serif" font-size="5.6" lengthAdjust="spacing" textLength="30.8" x="103.6" y="519.4698">candidate()</text><ellipse cx="100" cy="524.5487" fill="#84BE84" rx="1.2" ry="1.2" style="stroke:#038048;stroke-width:0.4000000000000001;"/><text fill="#000000" font-family="sans-serif" font-size="5.6" lengthAdjust="spacing" textLength="40" x="103.6" y="526.0651">jobReference()</text><ellipse cx="100" cy="531.144" fill="#84BE84" rx="1.2" ry="1.2" style="stroke:#038048;stroke-width:0.4000000000000001;"/><text fill="#000000" font-family="sans-serif" font-size="5.6" lengthAdjust="spacing" textLength="49.2" x="103.6" y="532.6604">updateRank(rank)</text><ellipse cx="100" cy="537.7393" fill="#84BE84" rx="1.2" ry="1.2" style="stroke:#038048;stroke-width:0.4000000000000001;"/><text fill="#000000" font-family="sans-serif" font-size="5.6" lengthAdjust="spacing" textLength="26" x="103.6" y="539.2558">toString()</text></g><!--class JobOpening--><g id="elem_JobOpening"><rect codeLine="113" fill="#FFFFFF" height="91.7484" id="JobOpening" rx="1" ry="1" style="stroke:#000000;stroke-width:0.20000000000000004;" width="324" x="341.6" y="437.0953"/><ellipse cx="485.7" cy="443.4953" fill="#ADD1B2" rx="4.4" ry="4.4" style="stroke:#181818;stroke-width:0.4000000000000001;"/><path d="M486.8893,445.7525 Q486.6568,445.8721 486.4012,445.9318 Q486.1455,445.9916 485.8633,445.9916 Q484.8605,445.9916 484.3326,445.3309 Q483.8047,444.6701 483.8047,443.4217 Q483.8047,442.1699 484.3326,441.5092 Q484.8605,440.8484 485.8633,440.8484 Q486.1455,440.8484 486.4045,440.9082 Q486.6635,440.968 486.8893,441.0875 L486.8893,442.1766 Q486.6369,441.9441 486.3995,441.8362 Q486.1621,441.7283 485.9098,441.7283 Q485.3719,441.7283 485.0979,442.155 Q484.824,442.5816 484.824,443.4217 Q484.824,444.2584 485.0979,444.6851 Q485.3719,445.1117 485.9098,445.1117 Q486.1621,445.1117 486.3995,445.0038 Q486.6369,444.8959 486.8893,444.6635 Z " fill="#000000"/><text fill="#000000" font-family="sans-serif" font-size="5.6" lengthAdjust="spacing" textLength="32.4" x="493.9" y="445.6117">JobOpening</text><line style="stroke:#000000;stroke-width:0.20000000000000004;" x1="342" x2="665.2" y1="449.8953" y2="449.8953"/><line style="stroke:#000000;stroke-width:0.20000000000000004;" x1="342" x2="665.2" y1="453.0953" y2="453.0953"/><ellipse cx="346" cy="458.593" fill="#84BE84" rx="1.2" ry="1.2" style="stroke:#038048;stroke-width:0.4000000000000001;"/><text fill="#000000" font-family="sans-serif" font-size="5.6" lengthAdjust="spacing" textLength="313.6" x="349.6" y="460.1094">JobOpening(jobReference, description, vacanciesNumber, address, mode, contractType, titleOrFunction, Company)</text><ellipse cx="346" cy="465.1883" fill="#84BE84" rx="1.2" ry="1.2" style="stroke:#038048;stroke-width:0.4000000000000001;"/><text fill="#000000" font-family="sans-serif" font-size="5.6" lengthAdjust="spacing" textLength="24.4" x="349.6" y="466.7047">identity()</text><ellipse cx="346" cy="471.7836" fill="#84BE84" rx="1.2" ry="1.2" style="stroke:#038048;stroke-width:0.4000000000000001;"/><text fill="#000000" font-family="sans-serif" font-size="5.6" lengthAdjust="spacing" textLength="72.4" x="349.6" y="473.3">sameAs(otherJobOpening)</text><ellipse cx="346" cy="478.3789" fill="#84BE84" rx="1.2" ry="1.2" style="stroke:#038048;stroke-width:0.4000000000000001;"/><text fill="#000000" font-family="sans-serif" font-size="5.6" lengthAdjust="spacing" textLength="40" x="349.6" y="479.8953">jobReference()</text><ellipse cx="346" cy="484.9742" fill="#84BE84" rx="1.2" ry="1.2" style="stroke:#038048;stroke-width:0.4000000000000001;"/><text fill="#000000" font-family="sans-serif" font-size="5.6" lengthAdjust="spacing" textLength="34.8" x="349.6" y="486.4906">description()</text><ellipse cx="346" cy="491.5695" fill="#84BE84" rx="1.2" ry="1.2" style="stroke:#038048;stroke-width:0.4000000000000001;"/><text fill="#000000" font-family="sans-serif" font-size="5.6" lengthAdjust="spacing" textLength="52" x="349.6" y="493.0859">vacanciesNumber()</text><ellipse cx="346" cy="498.1648" fill="#84BE84" rx="1.2" ry="1.2" style="stroke:#038048;stroke-width:0.4000000000000001;"/><text fill="#000000" font-family="sans-serif" font-size="5.6" lengthAdjust="spacing" textLength="25.6" x="349.6" y="499.6813">address()</text><ellipse cx="346" cy="504.7602" fill="#84BE84" rx="1.2" ry="1.2" style="stroke:#038048;stroke-width:0.4000000000000001;"/><text fill="#000000" font-family="sans-serif" font-size="5.6" lengthAdjust="spacing" textLength="19.6" x="349.6" y="506.2766">mode()</text><ellipse cx="346" cy="511.3555" fill="#84BE84" rx="1.2" ry="1.2" style="stroke:#038048;stroke-width:0.4000000000000001;"/><text fill="#000000" font-family="sans-serif" font-size="5.6" lengthAdjust="spacing" textLength="39.6" x="349.6" y="512.8719">contractType()</text><ellipse cx="346" cy="517.9508" fill="#84BE84" rx="1.2" ry="1.2" style="stroke:#038048;stroke-width:0.4000000000000001;"/><text fill="#000000" font-family="sans-serif" font-size="5.6" lengthAdjust="spacing" textLength="45.2" x="349.6" y="519.4672">titleOrFunction()</text><ellipse cx="346" cy="524.5461" fill="#84BE84" rx="1.2" ry="1.2" style="stroke:#038048;stroke-width:0.4000000000000001;"/><text fill="#000000" font-family="sans-serif" font-size="5.6" lengthAdjust="spacing" textLength="28.8" x="349.6" y="526.0625">company()</text></g><!--link NotifyResultOfRankCandidatesUI to SelectJobOpeningController--><g id="link_NotifyResultOfRankCandidatesUI_SelectJobOpeningController"><path codeLine="129" d="M201.652,83.6753 C193.328,88.7993 184.864,94.3433 177.2,99.9713 C166.104,108.1153 156.364,116.5793 147.052,125.2553 " fill="none" id="NotifyResultOfRankCandidatesUI-to-SelectJobOpeningController" style="stroke:#000000;stroke-width:0.4000000000000001;"/><polygon fill="#000000" points="145.296,126.8913,149.0206,125.6079,146.7593,125.528,146.8393,123.2666,145.296,126.8913" style="stroke:#000000;stroke-width:0.4000000000000001;"/></g><!--link SelectJobOpeningController to ListJobOpeningController--><g id="link_SelectJobOpeningController_ListJobOpeningController"><path codeLine="130" d="M140.124,126.9913 C150.704,114.8073 166.28,100.6913 184.2,96.5713 C200.248,92.8793 464.552,92.8793 480.6,96.5713 C500.468,101.1393 518.1094,111.3739 533.1334,122.2739 " fill="none" id="SelectJobOpeningController-to-ListJobOpeningController" style="stroke:#000000;stroke-width:0.4000000000000001;"/><polygon fill="#000000" points="535.076,123.6833,533.1017,120.2742,533.4572,122.5088,531.2225,122.8643,535.076,123.6833" style="stroke:#000000;stroke-width:0.4000000000000001;"/></g><!--link NotifyResultOfRankCandidatesUI to ListJobOpeningApplicationsController--><g id="link_NotifyResultOfRankCandidatesUI_ListJobOpeningApplicationsController"><path codeLine="131" d="M293.412,83.7113 C311.752,94.1433 330.9179,105.0447 349.8139,115.7927 " fill="none" id="NotifyResultOfRankCandidatesUI-to-ListJobOpeningApplicationsController" style="stroke:#000000;stroke-width:0.4000000000000001;"/><polygon fill="#000000" points="351.9,116.9793,349.5618,113.8087,350.1615,115.9905,347.9797,116.5902,351.9,116.9793" style="stroke:#000000;stroke-width:0.4000000000000001;"/></g><!--link NotifyResultOfRankCandidatesUI to NotifyCandidatesController--><g id="link_NotifyResultOfRankCandidatesUI_NotifyCandidatesController"><path codeLine="132" d="M248,83.6513 C248,94.1353 248,103.9033 248,114.6993 " fill="none" id="NotifyResultOfRankCandidatesUI-to-NotifyCandidatesController" style="stroke:#000000;stroke-width:0.4000000000000001;"/><polygon fill="#000000" points="248,117.0993,249.6,113.4993,248,115.0993,246.4,113.4993,248,117.0993" style="stroke:#000000;stroke-width:0.4000000000000001;"/></g><!--link JobOpeningService to JobOpeningRepository--><g id="link_JobOpeningService_JobOpeningRepository"><path codeLine="134" d="M532.308,265.0753 C502.144,290.8753 458.4876,328.223 433.2196,349.843 " fill="none" id="JobOpeningService-to-JobOpeningRepository" style="stroke:#000000;stroke-width:0.4000000000000001;"/><polygon fill="#000000" points="431.396,351.4033,435.1716,350.2786,432.9157,350.1031,433.0912,347.8471,431.396,351.4033" style="stroke:#000000;stroke-width:0.4000000000000001;"/></g><!--link ApplicationService to ApplicationRepository--><g id="link_ApplicationService_ApplicationRepository"><path codeLine="135" d="M278.488,268.3713 C289.912,294.1073 305.1904,328.5336 314.3824,349.2456 " fill="none" id="ApplicationService-to-ApplicationRepository" style="stroke:#000000;stroke-width:0.4000000000000001;"/><polygon fill="#000000" points="315.356,351.4393,315.3581,347.4998,314.5447,349.6113,312.4332,348.7978,315.356,351.4393" style="stroke:#000000;stroke-width:0.4000000000000001;"/></g><!--link ApplicationRepository to Application--><g id="link_ApplicationRepository_Application"><path codeLine="137" d="M306.992,384.0273 C296.796,394.5593 284.3973,407.371 270.1933,422.043 " fill="none" id="ApplicationRepository-to-Application" style="stroke:#000000;stroke-width:0.4000000000000001;"/><polygon fill="#000000" points="268.524,423.7673,272.1776,422.2937,269.9151,422.3304,269.8784,420.0679,268.524,423.7673" style="stroke:#000000;stroke-width:0.4000000000000001;"/><text fill="#000000" font-family="sans-serif" font-size="5.2" lengthAdjust="spacing" textLength="15.6" x="292.8" y="402.1347">stores</text></g><!--link JobOpeningRepository to JobOpening--><g id="link_JobOpeningRepository_JobOpening"><path codeLine="138" d="M425.424,384.0273 C436.292,397.7233 451.0324,416.3031 465.8924,435.0351 " fill="none" id="JobOpeningRepository-to-JobOpening" style="stroke:#000000;stroke-width:0.4000000000000001;"/><polygon fill="#000000" points="467.384,436.9153,466.4001,433.1006,466.141,435.3485,463.8932,435.0894,467.384,436.9153" style="stroke:#000000;stroke-width:0.4000000000000001;"/><text fill="#000000" font-family="sans-serif" font-size="5.2" lengthAdjust="spacing" textLength="15.6" x="440" y="402.1347">stores</text></g><!--link ListJobOpeningApplicationsController to JobOpeningService--><g id="link_ListJobOpeningApplicationsController_JobOpeningService"><path codeLine="140" d="M453.9,176.1193 C474.336,187.8753 495.6275,200.1228 515.4355,211.5148 " fill="none" id="ListJobOpeningApplicationsController-to-JobOpeningService" style="stroke:#000000;stroke-width:0.4000000000000001;"/><polygon fill="#000000" points="517.516,212.7113,515.193,209.5296,515.7823,211.7142,513.5976,212.3035,517.516,212.7113" style="stroke:#000000;stroke-width:0.4000000000000001;"/></g><!--link ListJobOpeningApplicationsController to ApplicationService--><g id="link_ListJobOpeningApplicationsController_ApplicationService"><path codeLine="141" d="M359.472,176.0553 C343.5,186.6873 327.4342,197.382 311.4462,208.018 " fill="none" id="ListJobOpeningApplicationsController-to-ApplicationService" style="stroke:#000000;stroke-width:0.4000000000000001;"/><polygon fill="#000000" points="309.448,209.3473,313.3316,208.6855,311.1132,208.2395,311.5591,206.0212,309.448,209.3473" style="stroke:#000000;stroke-width:0.4000000000000001;"/></g><!--link ListJobOpeningController to JobOpeningService--><g id="link_ListJobOpeningController_JobOpeningService"><path codeLine="143" d="M562.4,169.4753 C562.4,182.5553 562.4,196.6873 562.4,210.2953 " fill="none" id="ListJobOpeningController-to-JobOpeningService" style="stroke:#000000;stroke-width:0.4000000000000001;"/><polygon fill="#000000" points="562.4,212.6953,564,209.0953,562.4,210.6953,560.8,209.0953,562.4,212.6953" style="stroke:#000000;stroke-width:0.4000000000000001;"/></g><!--link NotifyCandidatesController to EmailService--><g id="link_NotifyCandidatesController_EmailService"><path codeLine="145" d="M198.516,176.0913 C191.5,179.5793 184.264,182.8513 177.2,185.5433 C164.748,190.2873 160.296,187.2033 148,192.3433 C131.292,199.3233 116.073,208.6066 102.549,217.9146 " fill="none" id="NotifyCandidatesController-to-EmailService" style="stroke:#000000;stroke-width:0.4000000000000001;"/><polygon fill="#000000" points="100.572,219.2753,104.4446,218.5523,102.2195,218.1414,102.6304,215.9163,100.572,219.2753" style="stroke:#000000;stroke-width:0.4000000000000001;"/></g><!--link NotifyCandidatesController to ApplicationService--><g id="link_NotifyCandidatesController_ApplicationService"><path codeLine="146" d="M253.592,176.0553 C255.636,186.6873 257.4951,196.3544 259.5391,206.9904 " fill="none" id="NotifyCandidatesController-to-ApplicationService" style="stroke:#000000;stroke-width:0.4000000000000001;"/><polygon fill="#000000" points="259.992,209.3473,260.8838,205.51,259.6146,207.3833,257.7413,206.114,259.992,209.3473" style="stroke:#000000;stroke-width:0.4000000000000001;"/></g><!--SRC=[lLTDR-Cs4BthLn0vALZxaCMUUYXWEmsGO7TTn2bwficnpOGILPBAGblaltVqOOiKALb5WHe849Cpv7jllcZp9lA2QfeH9ganvE-4u6TDsTjHgpBd6oML9d-UX8LcPwMr-j4khYLQjUPASz33rGULszZQJlm4SlSb-KYI5s4ba9jDS_MzeCSQo99yLrOSAc9FG3JDtyY-8f1H8M-IfC2Jw15z2Wq6SakjKFbD1xkbq7e_WocbtHwUyO0DpRdWr8Bvux4phJ-V25Uxa_gHtZfB-r98lYlthy1iIej22jRS4TYi5Q_kN8j50tP1388gJTJ-SyhEKCRkl4jVrVuP3g0XPvtLHwrLJzsvisOUKE_fRb1khQG4xR8-Y9ol-ZFCYshzF1rgeyj1lzNgZwd1Ji3UdFDs3VzHQmsN0vbtFYhNIh0WUzJATS98yyR6f4qY8EGTBaLDDihOCWETDjz8QF_XAhO3YJS-gVssW5panrunBr7Cm2ozdTXSvLHMHfY8aTA_KsrJAOoDWFcAoyunJeX6O54fNQljmK4Ofj5LdnLZK5ZWexu6g-LVNzWoTzo2F9jno21drzNZVIhuLGsZkdL4UYitKk5c99ojZAC7-9pMrPD3QeHXJQBZSQbp0_fTC30tBlOBKRVYMiE1MOj5mn4L0Utgt_Offq0VX0Ip82wq1RbKvuAe0ZJ5vBsDN116Xhkr_tWVSneaOJhZOFEWj9yetRyntxAeWTUzFoGRnUFSiwustrAM-MPTRFmGz73cH60aonU4Ws5Q5EqCUQUeEnDWlfVP7ZGYvnn77KOdKxoEIftHbDcNgi1ljXwWM_rGvgnrPoehQ5wDwNcrqeOIDgdxLoaqP3XjpG3vgx-xAu29muJCxw1npimfXnbrraGb34hJziVZCHX1P3Y3-Y4qc4B4dpKhAISd4faQJUCk7-UETka26Wfb11QV23k1o36l3XI9EeNoV7Qeekauf_JKuP5ZG8Mjl5BcapNHW-a3TXtBU703AEEfqkU1zr3Y2dKUl0uTxjue3VjZcoPyc__7Lea9G3DOcLJXWzRjmwu9LX6LqoOdQauRx07U-6pgNSEBcdGLPmdTnPgb_qGfzvam1dtlaOg_rRxft2MaIsinlCKpUn_ZMHrlrLNGsnZqRdVBgftL_VFB6_nz8dbn_L-wxcROTKSaTnFXAJB09bHnu7hh0-JUNaV2Myl23EgfUHi3bc7QvPKJ1_oxyiDhkVnruhcTJBp4qN7iMJVdqZdFwZddZF-wIfBmAR1SrZwnLfX4dcwjTRIB9qcykGySo2zOfGhZdKJRhm-cDqvc_UZmlJlGyrr3miDx_MY7LoNZujSExj2_OXh1yWy0]--></g></svg>