<?xml version="1.0" encoding="us-ascii" standalone="no"?><svg xmlns="http://www.w3.org/2000/svg" xmlns:xlink="http://www.w3.org/1999/xlink" contentStyleType="text/css" height="824.4px" preserveAspectRatio="none" style="width:1120px;height:824px;background:#FFFFFF;" version="1.1" viewBox="0 0 1120 824" width="1120.2px" zoomAndPan="magnify"><defs/><g><text fill="#000000" font-family="sans-serif" font-size="8.4" font-weight="bold" lengthAdjust="spacing" textLength="63" x="524.4" y="14.1211">Domain Model</text><!--cluster Candidate Aggregate--><g id="cluster_Candidate Aggregate"><rect fill="none" height="97.8" rx="1.5" ry="1.5" style="stroke:#000000;stroke-width:0.8999999999999999;" width="313.8" x="725.1" y="143.693"/><text fill="#000000" font-family="sans-serif" font-size="8.4" font-weight="bold" lengthAdjust="spacing" textLength="90" x="837" y="153.0141">Candidate Aggregate</text></g><!--cluster Job Opening Aggregate--><g id="cluster_Job Opening Aggregate"><rect fill="none" height="364.2" rx="1.5" ry="1.5" style="stroke:#000000;stroke-width:0.8999999999999999;" width="383.4" x="451.2" y="456.893"/><text fill="#000000" font-family="sans-serif" font-size="8.4" font-weight="bold" lengthAdjust="spacing" textLength="100.8" x="592.5" y="466.2141">Job Opening Aggregate</text></g><!--cluster Application Aggregate--><g id="cluster_Application Aggregate"><rect fill="none" height="186.6" rx="1.5" ry="1.5" style="stroke:#000000;stroke-width:0.8999999999999999;" width="532.8" x="583.8" y="255.893"/><text fill="#000000" font-family="sans-serif" font-size="8.4" font-weight="bold" lengthAdjust="spacing" textLength="96" x="802.2" y="265.2141">Application Aggregate</text></g><!--cluster Customer Aggregate--><g id="cluster_Customer Aggregate"><rect fill="none" height="67.8" rx="1.5" ry="1.5" style="stroke:#000000;stroke-width:0.8999999999999999;" width="187.2" x="4.2" y="500.093"/><text fill="#000000" font-family="sans-serif" font-size="8.4" font-weight="bold" lengthAdjust="spacing" textLength="88.8" x="53.4" y="509.4141">Customer Aggregate</text></g><!--cluster User Aggregate--><g id="cluster_User Aggregate"><rect fill="none" height="186.6" rx="1.5" ry="1.5" style="stroke:#000000;stroke-width:0.8999999999999999;" width="288.3" x="252" y="26.693"/><text fill="#000000" font-family="sans-serif" font-size="8.4" font-weight="bold" lengthAdjust="spacing" textLength="66" x="363.15" y="36.0141">User Aggregate</text></g><!--class Candidate--><g id="elem_Candidate"><rect codeLine="26" fill="#F0FFFF" height="37.6523" id="Candidate" rx="1.5" ry="1.5" style="stroke:#000000;stroke-width:0.3;" width="61.2" x="734.7" y="194.465"/><ellipse cx="743.7" cy="210.8911" fill="#ADD1B2" rx="6.6" ry="6.6" style="stroke:#181818;stroke-width:0.6;"/><path d="M746.1686,214.4911 L741.5367,214.4911 L741.5367,207.0553 L746.1686,207.0553 L746.1686,208.3502 L743.006,208.3502 L743.006,209.9539 L745.8697,209.9539 L745.8697,211.2489 L743.006,211.2489 L743.006,213.1962 L746.1686,213.1962 Z " fill="#000000"/><text fill="#000000" font-family="sans-serif" font-size="7.2" font-style="italic" lengthAdjust="spacing" textLength="25.8" x="760.2" y="204.4259">&#171;entity&#187;</text><text fill="#000000" font-family="sans-serif" font-size="7.2" font-style="italic" lengthAdjust="spacing" textLength="21" x="762.6" y="212.9056">&#171;root&#187;</text><text fill="#000000" font-family="sans-serif" font-size="8.4" lengthAdjust="spacing" textLength="42" x="752.1" y="222.5454">Candidate</text><line style="stroke:#000000;stroke-width:0.3;" x1="735.3" x2="795.3" y1="227.3173" y2="227.3173"/></g><!--entity Curriculum--><g id="elem_Curriculum"><rect fill="#F0FFDD" height="23.3859" rx="1.5" ry="1.5" style="stroke:#000000;stroke-width:0.3;" width="72" x="948.9" y="208.799"/><text fill="#000000" font-family="sans-serif" font-size="8.4" font-style="italic" lengthAdjust="spacing" textLength="60" x="954.9" y="218.7201">&#171;Value Object&#187;</text><text fill="#000000" font-family="sans-serif" font-size="8.4" lengthAdjust="spacing" textLength="46.2" x="961.8" y="228.613">Curriculum</text></g><!--entity TelephoneNumber--><g id="elem_TelephoneNumber"><rect fill="#F0FFDD" height="23.3859" rx="1.5" ry="1.5" style="stroke:#000000;stroke-width:0.3;" width="88.8" x="940.5" y="164.399"/><text fill="#000000" font-family="sans-serif" font-size="8.4" font-style="italic" lengthAdjust="spacing" textLength="60" x="954.9" y="174.3201">&#171;Value Object&#187;</text><text fill="#000000" font-family="sans-serif" font-size="8.4" lengthAdjust="spacing" textLength="76.8" x="946.5" y="184.213">TelephoneNumber</text></g><!--class JobOpening--><g id="elem_JobOpening"><rect codeLine="38" fill="#F0FFFF" height="37.6523" id="JobOpening" rx="1.5" ry="1.5" style="stroke:#000000;stroke-width:0.3;" width="67.8" x="460.8" y="559.265"/><ellipse cx="469.8" cy="575.6911" fill="#ADD1B2" rx="6.6" ry="6.6" style="stroke:#181818;stroke-width:0.6;"/><path d="M472.2686,579.2911 L467.6367,579.2911 L467.6367,571.8553 L472.2686,571.8553 L472.2686,573.1502 L469.106,573.1502 L469.106,574.7539 L471.9697,574.7539 L471.9697,576.0489 L469.106,576.0489 L469.106,577.9962 L472.2686,577.9962 Z " fill="#000000"/><text fill="#000000" font-family="sans-serif" font-size="7.2" font-style="italic" lengthAdjust="spacing" textLength="25.8" x="489.6" y="569.2259">&#171;entity&#187;</text><text fill="#000000" font-family="sans-serif" font-size="7.2" font-style="italic" lengthAdjust="spacing" textLength="21" x="492" y="577.7056">&#171;root&#187;</text><text fill="#000000" font-family="sans-serif" font-size="8.4" lengthAdjust="spacing" textLength="48.6" x="478.2" y="587.3454">JobOpening</text><line style="stroke:#000000;stroke-width:0.3;" x1="461.4" x2="528" y1="592.1173" y2="592.1173"/></g><g id="elem_GMN26"><path d="M705.6,700.511 L705.6,712.313 L662.64,712.847 L705.6,717.113 L705.6,734.07 A0,0 0 0 0 705.6,734.07 L825,734.07 A0,0 0 0 0 825,734.07 L825,706.511 L819,700.511 L705.6,700.511 A0,0 0 0 0 705.6,700.511 " fill="#FEFFDD" style="stroke:#181818;stroke-width:0.3;"/><path d="M819,700.511 L819,706.511 L825,706.511 L819,700.511 " fill="#FEFFDD" style="stroke:#181818;stroke-width:0.3;"/><text fill="#000000" font-family="sans-serif" font-size="7.8" lengthAdjust="spacing" textLength="106.8" x="709.2" y="711.052">Can be one of the following:</text><text fill="#000000" font-family="sans-serif" font-size="7.8" lengthAdjust="spacing" textLength="41.4" x="709.2" y="720.2383">- full-time</text><text fill="#000000" font-family="sans-serif" font-size="7.8" lengthAdjust="spacing" textLength="43.8" x="709.2" y="729.4246">- part-time</text></g><g id="elem_GMN29"><path d="M705.6,636.521 L705.6,659.363 L662.64,664.565 L705.6,664.163 L705.6,679.2663 A0,0 0 0 0 705.6,679.2663 L825,679.2663 A0,0 0 0 0 825,679.2663 L825,642.521 L819,636.521 L705.6,636.521 A0,0 0 0 0 705.6,636.521 " fill="#FEFFDD" style="stroke:#181818;stroke-width:0.3;"/><path d="M819,636.521 L819,642.521 L825,642.521 L819,636.521 " fill="#FEFFDD" style="stroke:#181818;stroke-width:0.3;"/><text fill="#000000" font-family="sans-serif" font-size="7.8" lengthAdjust="spacing" textLength="106.8" x="709.2" y="647.062">Can be one of the following:</text><text fill="#000000" font-family="sans-serif" font-size="7.8" lengthAdjust="spacing" textLength="33.6" x="709.2" y="656.2483">- remote</text><text fill="#000000" font-family="sans-serif" font-size="7.8" lengthAdjust="spacing" textLength="31.2" x="709.2" y="665.4346">- hybrid</text><text fill="#000000" font-family="sans-serif" font-size="7.8" lengthAdjust="spacing" textLength="30.6" x="709.2" y="674.621">- onsite</text></g><!--entity JobReference--><g id="elem_JobReference"><rect fill="#F0FFDD" height="23.3859" rx="1.5" ry="1.5" style="stroke:#000000;stroke-width:0.3;" width="72" x="590.4" y="788.399"/><text fill="#000000" font-family="sans-serif" font-size="8.4" font-style="italic" lengthAdjust="spacing" textLength="60" x="596.4" y="798.3201">&#171;Value Object&#187;</text><text fill="#000000" font-family="sans-serif" font-size="8.4" lengthAdjust="spacing" textLength="54" x="599.4" y="808.213">JobReference</text></g><!--entity TitleOrFunction--><g id="elem_TitleOrFunction"><rect fill="#F0FFDD" height="23.3859" rx="1.5" ry="1.5" style="stroke:#000000;stroke-width:0.3;" width="76.2" x="588.3" y="743.999"/><text fill="#000000" font-family="sans-serif" font-size="8.4" font-style="italic" lengthAdjust="spacing" textLength="60" x="596.4" y="753.9201">&#171;Value Object&#187;</text><text fill="#000000" font-family="sans-serif" font-size="8.4" lengthAdjust="spacing" textLength="64.2" x="594.3" y="763.813">TitleOrFunction</text></g><!--entity ContractType--><g id="elem_ContractType"><rect fill="#F0FFDD" height="23.3859" rx="1.5" ry="1.5" style="stroke:#000000;stroke-width:0.3;" width="72" x="590.4" y="699.599"/><text fill="#000000" font-family="sans-serif" font-size="8.4" font-style="italic" lengthAdjust="spacing" textLength="60" x="596.4" y="709.5201">&#171;Value Object&#187;</text><text fill="#000000" font-family="sans-serif" font-size="8.4" lengthAdjust="spacing" textLength="55.2" x="598.8" y="719.413">ContractType</text></g><!--entity Mode--><g id="elem_Mode"><rect fill="#F0FFDD" height="23.3859" rx="1.5" ry="1.5" style="stroke:#000000;stroke-width:0.3;" width="72" x="590.4" y="655.199"/><text fill="#000000" font-family="sans-serif" font-size="8.4" font-style="italic" lengthAdjust="spacing" textLength="60" x="596.4" y="665.1201">&#171;Value Object&#187;</text><text fill="#000000" font-family="sans-serif" font-size="8.4" lengthAdjust="spacing" textLength="22.8" x="615" y="675.013">Mode</text></g><!--entity Address--><g id="elem_Address"><rect fill="#F0FFDD" height="23.3859" rx="1.5" ry="1.5" style="stroke:#000000;stroke-width:0.3;" width="72" x="590.4" y="610.799"/><text fill="#000000" font-family="sans-serif" font-size="8.4" font-style="italic" lengthAdjust="spacing" textLength="60" x="596.4" y="620.7201">&#171;Value Object&#187;</text><text fill="#000000" font-family="sans-serif" font-size="8.4" lengthAdjust="spacing" textLength="33.6" x="609.6" y="630.613">Address</text></g><!--entity VacanciesNumber--><g id="elem_VacanciesNumber"><rect fill="#F0FFDD" height="23.3859" rx="1.5" ry="1.5" style="stroke:#000000;stroke-width:0.3;" width="85.2" x="583.8" y="566.399"/><text fill="#000000" font-family="sans-serif" font-size="8.4" font-style="italic" lengthAdjust="spacing" textLength="60" x="596.4" y="576.3201">&#171;Value Object&#187;</text><text fill="#000000" font-family="sans-serif" font-size="8.4" lengthAdjust="spacing" textLength="73.2" x="589.8" y="586.213">VacanciesNumber</text></g><!--entity Description--><g id="elem_Description"><rect fill="#F0FFDD" height="23.3859" rx="1.5" ry="1.5" style="stroke:#000000;stroke-width:0.3;" width="72" x="590.4" y="521.999"/><text fill="#000000" font-family="sans-serif" font-size="8.4" font-style="italic" lengthAdjust="spacing" textLength="60" x="596.4" y="531.9201">&#171;Value Object&#187;</text><text fill="#000000" font-family="sans-serif" font-size="8.4" lengthAdjust="spacing" textLength="46.8" x="603" y="541.813">Description</text></g><!--entity ActiveSince--><g id="elem_ActiveSince"><rect fill="#F0FFDD" height="23.3859" rx="1.5" ry="1.5" style="stroke:#000000;stroke-width:0.3;" width="72" x="590.4" y="477.599"/><text fill="#000000" font-family="sans-serif" font-size="8.4" font-style="italic" lengthAdjust="spacing" textLength="60" x="596.4" y="487.5201">&#171;Value Object&#187;</text><text fill="#000000" font-family="sans-serif" font-size="8.4" lengthAdjust="spacing" textLength="46.2" x="603.3" y="497.413">ActiveSince</text></g><!--class Application--><g id="elem_Application"><rect codeLine="82" fill="#F0FFFF" height="37.6523" id="Application" rx="1.5" ry="1.5" style="stroke:#000000;stroke-width:0.3;" width="66" x="593.4" y="313.865"/><ellipse cx="602.4" cy="330.2911" fill="#ADD1B2" rx="6.6" ry="6.6" style="stroke:#181818;stroke-width:0.6;"/><path d="M604.8686,333.8911 L600.2367,333.8911 L600.2367,326.4553 L604.8686,326.4553 L604.8686,327.7502 L601.706,327.7502 L601.706,329.3539 L604.5697,329.3539 L604.5697,330.6489 L601.706,330.6489 L601.706,332.5962 L604.8686,332.5962 Z " fill="#000000"/><text fill="#000000" font-family="sans-serif" font-size="7.2" font-style="italic" lengthAdjust="spacing" textLength="25.8" x="621.3" y="323.8259">&#171;entity&#187;</text><text fill="#000000" font-family="sans-serif" font-size="7.2" font-style="italic" lengthAdjust="spacing" textLength="21" x="623.7" y="332.3056">&#171;root&#187;</text><text fill="#000000" font-family="sans-serif" font-size="8.4" lengthAdjust="spacing" textLength="46.8" x="610.8" y="341.9454">Application</text><line style="stroke:#000000;stroke-width:0.3;" x1="594" x2="658.8" y1="346.7173" y2="346.7173"/></g><g id="elem_GMN42"><path d="M925.2,307.925 L925.2,343.211 L801.474,370.055 L925.2,348.011 L925.2,359.8566 A0,0 0 0 0 925.2,359.8566 L1044.6,359.8566 A0,0 0 0 0 1044.6,359.8566 L1044.6,313.925 L1038.6,307.925 L925.2,307.925 A0,0 0 0 0 925.2,307.925 " fill="#FEFFDD" style="stroke:#181818;stroke-width:0.3;"/><path d="M1038.6,307.925 L1038.6,313.925 L1044.6,313.925 L1038.6,307.925 " fill="#FEFFDD" style="stroke:#181818;stroke-width:0.3;"/><text fill="#000000" font-family="sans-serif" font-size="7.8" lengthAdjust="spacing" textLength="106.8" x="928.8" y="318.466">Can be one of the following:</text><text fill="#000000" font-family="sans-serif" font-size="7.8" lengthAdjust="spacing" textLength="45.6" x="928.8" y="327.6523">- submitted</text><text fill="#000000" font-family="sans-serif" font-size="7.8" lengthAdjust="spacing" textLength="37.8" x="928.8" y="336.8386">- pending</text><text fill="#000000" font-family="sans-serif" font-size="7.8" lengthAdjust="spacing" textLength="40.8" x="928.8" y="346.025">- accepted</text><text fill="#000000" font-family="sans-serif" font-size="7.8" lengthAdjust="spacing" textLength="39" x="928.8" y="355.2113">- declined</text></g><g id="elem_GMN45"><path d="M862.8,381.125 L862.8,412.709 L804.192,418.967 L862.8,417.509 L862.8,433.0566 A0,0 0 0 0 862.8,433.0566 L1107,433.0566 A0,0 0 0 0 1107,433.0566 L1107,387.125 L1101,381.125 L862.8,381.125 A0,0 0 0 0 862.8,381.125 " fill="#FEFFDD" style="stroke:#181818;stroke-width:0.3;"/><path d="M1101,381.125 L1101,387.125 L1107,387.125 L1101,381.125 " fill="#FEFFDD" style="stroke:#181818;stroke-width:0.3;"/><text fill="#000000" font-family="sans-serif" font-size="7.8" lengthAdjust="spacing" textLength="106.8" x="866.4" y="391.666">Can be one of the following:</text><text fill="#000000" font-family="sans-serif" font-size="7.8" lengthAdjust="spacing" textLength="152.4" x="866.4" y="400.8523">- text file with the contents of the email</text><text fill="#000000" font-family="sans-serif" font-size="7.8" lengthAdjust="spacing" textLength="148.8" x="866.4" y="410.0386">- file for each file attached to the email</text><text fill="#000000" font-family="sans-serif" font-size="7.8" lengthAdjust="spacing" textLength="231.6" x="866.4" y="419.225">- text file with the contents of each file attached to the email</text><text fill="#000000" font-family="sans-serif" font-size="7.8" lengthAdjust="spacing" textLength="212.4" x="866.4" y="428.4113">- text file with the data of the application and candidate</text></g><!--entity ApplicationFiles--><g id="elem_ApplicationFiles"><rect fill="#F0FFDD" height="23.3859" rx="1.5" ry="1.5" style="stroke:#000000;stroke-width:0.3;" width="77.4" x="726.6" y="409.799"/><text fill="#000000" font-family="sans-serif" font-size="8.4" font-style="italic" lengthAdjust="spacing" textLength="60" x="735.3" y="419.7201">&#171;Value Object&#187;</text><text fill="#000000" font-family="sans-serif" font-size="8.4" lengthAdjust="spacing" textLength="65.4" x="732.6" y="429.613">ApplicationFiles</text></g><!--entity Status--><g id="elem_Status"><rect fill="#F0FFDD" height="23.3859" rx="1.5" ry="1.5" style="stroke:#000000;stroke-width:0.3;" width="72" x="729.3" y="365.399"/><text fill="#000000" font-family="sans-serif" font-size="8.4" font-style="italic" lengthAdjust="spacing" textLength="60" x="735.3" y="375.3201">&#171;Value Object&#187;</text><text fill="#000000" font-family="sans-serif" font-size="8.4" lengthAdjust="spacing" textLength="25.2" x="752.7" y="385.213">Status</text></g><!--entity SubmissionDate--><g id="elem_SubmissionDate"><rect fill="#F0FFDD" height="23.3859" rx="1.5" ry="1.5" style="stroke:#000000;stroke-width:0.3;" width="78" x="726.3" y="320.999"/><text fill="#000000" font-family="sans-serif" font-size="8.4" font-style="italic" lengthAdjust="spacing" textLength="60" x="735.3" y="330.9201">&#171;Value Object&#187;</text><text fill="#000000" font-family="sans-serif" font-size="8.4" lengthAdjust="spacing" textLength="66" x="732.3" y="340.813">SubmissionDate</text></g><!--entity Rank--><g id="elem_Rank"><rect fill="#F0FFDD" height="23.3859" rx="1.5" ry="1.5" style="stroke:#000000;stroke-width:0.3;" width="72" x="729.3" y="276.599"/><text fill="#000000" font-family="sans-serif" font-size="8.4" font-style="italic" lengthAdjust="spacing" textLength="60" x="735.3" y="286.5201">&#171;Value Object&#187;</text><text fill="#000000" font-family="sans-serif" font-size="8.4" lengthAdjust="spacing" textLength="20.4" x="755.1" y="296.413">Rank</text></g><!--class Customer--><g id="elem_Customer"><rect codeLine="117" fill="#F0FFFF" height="37.6523" id="Customer" rx="1.5" ry="1.5" style="stroke:#000000;stroke-width:0.3;" width="59.4" x="13.8" y="520.865"/><ellipse cx="22.8" cy="537.2911" fill="#ADD1B2" rx="6.6" ry="6.6" style="stroke:#181818;stroke-width:0.6;"/><path d="M25.2686,540.8911 L20.6367,540.8911 L20.6367,533.4553 L25.2686,533.4553 L25.2686,534.7502 L22.106,534.7502 L22.106,536.3539 L24.9697,536.3539 L24.9697,537.6489 L22.106,537.6489 L22.106,539.5962 L25.2686,539.5962 Z " fill="#000000"/><text fill="#000000" font-family="sans-serif" font-size="7.2" font-style="italic" lengthAdjust="spacing" textLength="25.8" x="38.4" y="530.8259">&#171;entity&#187;</text><text fill="#000000" font-family="sans-serif" font-size="7.2" font-style="italic" lengthAdjust="spacing" textLength="21" x="40.8" y="539.3056">&#171;root&#187;</text><text fill="#000000" font-family="sans-serif" font-size="8.4" lengthAdjust="spacing" textLength="40.2" x="31.2" y="548.9454">Customer</text><line style="stroke:#000000;stroke-width:0.3;" x1="14.4" x2="72.6" y1="553.7173" y2="553.7173"/></g><!--entity EmailAddress--><g id="elem_EmailAddress"><rect fill="#F0FFDD" height="23.3859" rx="1.5" ry="1.5" style="stroke:#000000;stroke-width:0.3;" width="72" x="109.8" y="535.199"/><text fill="#000000" font-family="sans-serif" font-size="8.4" font-style="italic" lengthAdjust="spacing" textLength="60" x="115.8" y="545.1201">&#171;Value Object&#187;</text><text fill="#000000" font-family="sans-serif" font-size="8.4" lengthAdjust="spacing" textLength="55.8" x="117.9" y="555.013">EmailAddress</text></g><!--class User--><g id="elem_User"><rect codeLine="126" fill="#F0FFFF" height="37.6523" id="User" rx="1.5" ry="1.5" style="stroke:#000000;stroke-width:0.3;" width="42.6" x="261.6" y="166.265"/><ellipse cx="270.6" cy="182.6911" fill="#ADD1B2" rx="6.6" ry="6.6" style="stroke:#181818;stroke-width:0.6;"/><path d="M273.0686,186.2911 L268.4367,186.2911 L268.4367,178.8553 L273.0686,178.8553 L273.0686,180.1502 L269.906,180.1502 L269.906,181.7539 L272.7697,181.7539 L272.7697,183.0489 L269.906,183.0489 L269.906,184.9962 L273.0686,184.9962 Z " fill="#000000"/><text fill="#000000" font-family="sans-serif" font-size="7.2" font-style="italic" lengthAdjust="spacing" textLength="25.8" x="277.8" y="176.2259">&#171;entity&#187;</text><text fill="#000000" font-family="sans-serif" font-size="7.2" font-style="italic" lengthAdjust="spacing" textLength="21" x="280.2" y="184.7056">&#171;root&#187;</text><text fill="#000000" font-family="sans-serif" font-size="8.4" lengthAdjust="spacing" textLength="18.6" x="281.4" y="194.3454">User</text><line style="stroke:#000000;stroke-width:0.3;" x1="262.2" x2="303.6" y1="199.1173" y2="199.1173"/></g><!--entity UserEmail--><g id="elem_UserEmail"><rect fill="#F0FFDD" height="23.3859" rx="1.5" ry="1.5" style="stroke:#000000;stroke-width:0.3;" width="72" x="458.7" y="180.599"/><text fill="#000000" font-family="sans-serif" font-size="8.4" font-style="italic" lengthAdjust="spacing" textLength="60" x="464.7" y="190.5201">&#171;Value Object&#187;</text><text fill="#000000" font-family="sans-serif" font-size="8.4" lengthAdjust="spacing" textLength="40.8" x="474.3" y="200.413">UserEmail</text></g><!--entity UserName--><g id="elem_UserName"><rect fill="#F0FFDD" height="23.3859" rx="1.5" ry="1.5" style="stroke:#000000;stroke-width:0.3;" width="72" x="458.7" y="136.199"/><text fill="#000000" font-family="sans-serif" font-size="8.4" font-style="italic" lengthAdjust="spacing" textLength="60" x="464.7" y="146.1201">&#171;Value Object&#187;</text><text fill="#000000" font-family="sans-serif" font-size="8.4" lengthAdjust="spacing" textLength="42" x="473.7" y="156.013">UserName</text></g><!--entity UserPassword--><g id="elem_UserPassword"><rect fill="#F0FFDD" height="23.3859" rx="1.5" ry="1.5" style="stroke:#000000;stroke-width:0.3;" width="72" x="458.7" y="91.799"/><text fill="#000000" font-family="sans-serif" font-size="8.4" font-style="italic" lengthAdjust="spacing" textLength="60" x="464.7" y="101.7201">&#171;Value Object&#187;</text><text fill="#000000" font-family="sans-serif" font-size="8.4" lengthAdjust="spacing" textLength="57.6" x="465.9" y="111.613">UserPassword</text></g><!--entity Username--><g id="elem_Username"><rect fill="#F0FFDD" height="23.3859" rx="1.5" ry="1.5" style="stroke:#000000;stroke-width:0.3;" width="72" x="458.7" y="47.399"/><text fill="#000000" font-family="sans-serif" font-size="8.4" font-style="italic" lengthAdjust="spacing" textLength="60" x="464.7" y="57.3201">&#171;Value Object&#187;</text><text fill="#000000" font-family="sans-serif" font-size="8.4" lengthAdjust="spacing" textLength="41.4" x="474" y="67.213">Username</text></g><!--link Candidate to Curriculum--><g id="link_Candidate_Curriculum"><path codeLine="33" d="M796.038,214.289 C835.944,215.603 902.5999,217.8006 945.0799,219.1986 " fill="none" id="Candidate-to-Curriculum" style="stroke:#808080;stroke-width:0.6;"/><polygon fill="#808080" points="948.678,219.317,943.3599,216.7407,945.6796,219.2183,943.202,221.5381,948.678,219.317" style="stroke:#808080;stroke-width:0.6;"/></g><!--link Candidate to TelephoneNumber--><g id="link_Candidate_TelephoneNumber"><path codeLine="34" d="M796.038,208.157 C833.424,201.791 893.9131,191.4874 936.7831,184.1854 " fill="none" id="Candidate-to-TelephoneNumber" style="stroke:#808080;stroke-width:0.6;"/><polygon fill="#808080" points="940.332,183.581,934.6057,182.1218,937.3746,184.0847,935.4117,186.8536,940.332,183.581" style="stroke:#808080;stroke-width:0.6;"/></g><!--link JobOpening to JobReference--><g id="link_JobOpening_JobReference"><path codeLine="57" d="M498.276,597.005 C505.35,635.933 526.644,725.741 579,777.893 C583.08,781.955 584.8885,783.6385 590.0425,786.4765 " fill="none" id="JobOpening-to-JobReference" style="stroke:#808080;stroke-width:0.6;"/><polygon fill="#808080" points="593.196,788.213,589.6234,783.5059,590.5681,786.7659,587.3081,787.7106,593.196,788.213" style="stroke:#808080;stroke-width:0.6;"/></g><!--link JobOpening to TitleOrFunction--><g id="link_JobOpening_TitleOrFunction"><path codeLine="58" d="M501.126,597.017 C511.806,628.949 537.348,693.917 579,733.493 C583.236,737.519 585.1773,739.217 590.4333,742.067 " fill="none" id="JobOpening-to-TitleOrFunction" style="stroke:#808080;stroke-width:0.6;"/><polygon fill="#808080" points="593.598,743.783,589.995,739.0991,590.9608,742.353,587.7069,743.3187,593.598,743.783" style="stroke:#808080;stroke-width:0.6;"/></g><!--link JobOpening to ContractType--><g id="link_JobOpening_ContractType"><path codeLine="59" d="M505.782,597.215 C519.786,621.299 546.636,662.717 579,689.093 C583.812,693.011 586.2274,694.783 591.8674,697.687 " fill="none" id="JobOpening-to-ContractType" style="stroke:#808080;stroke-width:0.6;"/><polygon fill="#808080" points="595.068,699.335,591.3657,694.7292,592.4008,697.9616,589.1684,698.9967,595.068,699.335" style="stroke:#808080;stroke-width:0.6;"/></g><!--link JobOpening to Mode--><g id="link_JobOpening_Mode"><path codeLine="60" d="M516.486,597.203 C532.824,611.375 556.386,630.593 579,644.693 C584.952,648.407 588.3813,650.3534 594.7773,653.4374 " fill="none" id="JobOpening-to-Mode" style="stroke:#808080;stroke-width:0.6;"/><polygon fill="#808080" points="598.02,655.001,594.1983,650.4938,595.3177,653.698,592.1135,654.8174,598.02,655.001" style="stroke:#808080;stroke-width:0.6;"/></g><!--link JobOpening to Address--><g id="link_JobOpening_Address"><path codeLine="61" d="M528.738,589.469 C547.692,595.919 567.9837,602.8238 587.2137,609.3638 " fill="none" id="JobOpening-to-Address" style="stroke:#808080;stroke-width:0.6;"/><polygon fill="#808080" points="590.622,610.523,586.2823,606.5121,587.7818,609.557,584.7368,611.0565,590.622,610.523" style="stroke:#808080;stroke-width:0.6;"/></g><!--link JobOpening to VacanciesNumber--><g id="link_JobOpening_VacanciesNumber"><path codeLine="62" d="M528.738,578.093 C545.43,578.093 562.194,578.093 579.954,578.093 " fill="none" id="JobOpening-to-VacanciesNumber" style="stroke:#808080;stroke-width:0.6;"/><polygon fill="#808080" points="583.554,578.093,578.154,575.693,580.554,578.093,578.154,580.493,583.554,578.093" style="stroke:#808080;stroke-width:0.6;"/></g><!--link JobOpening to Description--><g id="link_JobOpening_Description"><path codeLine="63" d="M528.738,566.717 C547.692,560.267 567.9837,553.3621 587.2137,546.8221 " fill="none" id="JobOpening-to-Description" style="stroke:#808080;stroke-width:0.6;"/><polygon fill="#808080" points="590.622,545.663,584.7368,545.1295,587.7818,546.6289,586.2823,549.6739,590.622,545.663" style="stroke:#808080;stroke-width:0.6;"/></g><!--link JobOpening to ActiveSince--><g id="link_JobOpening_ActiveSince"><path codeLine="64" d="M516.486,558.983 C532.824,544.811 556.386,525.593 579,511.493 C584.952,507.779 588.3813,505.8325 594.7773,502.7485 " fill="none" id="JobOpening-to-ActiveSince" style="stroke:#808080;stroke-width:0.6;"/><polygon fill="#808080" points="598.02,501.185,592.1135,501.3685,595.3177,502.4879,594.1983,505.6921,598.02,501.185" style="stroke:#808080;stroke-width:0.6;"/></g><!--link Application to ApplicationFiles--><g id="link_Application_ApplicationFiles"><path codeLine="93" d="M645.594,351.689 C660.684,366.263 683.082,386.069 705.6,399.293 C712.218,403.181 716.2919,405.263 723.5759,408.179 " fill="none" id="Application-to-ApplicationFiles" style="stroke:#808080;stroke-width:0.6;"/><polygon fill="#808080" points="726.918,409.517,722.7968,405.2819,724.1329,408.402,721.0128,409.7381,726.918,409.517" style="stroke:#808080;stroke-width:0.6;"/></g><!--link Application to Status--><g id="link_Application_Status"><path codeLine="94" d="M659.634,343.217 C680.55,349.961 704.2736,357.6105 725.7356,364.5285 " fill="none" id="Application-to-Status" style="stroke:#808080;stroke-width:0.6;"/><polygon fill="#808080" points="729.162,365.633,724.7587,361.692,726.3067,364.7126,723.2861,366.2606,729.162,365.633" style="stroke:#808080;stroke-width:0.6;"/></g><!--link Application to SubmissionDate--><g id="link_Application_SubmissionDate"><path codeLine="95" d="M659.634,332.693 C679.596,332.693 701.634,332.693 722.592,332.693 " fill="none" id="Application-to-SubmissionDate" style="stroke:#808080;stroke-width:0.6;"/><polygon fill="#808080" points="726.192,332.693,720.792,330.293,723.192,332.693,720.792,335.093,726.192,332.693" style="stroke:#808080;stroke-width:0.6;"/></g><!--link Application to Rank--><g id="link_Application_Rank"><path codeLine="96" d="M659.634,322.169 C680.55,315.425 704.2736,307.7754 725.7356,300.8574 " fill="none" id="Application-to-Rank" style="stroke:#808080;stroke-width:0.6;"/><polygon fill="#808080" points="729.162,299.753,723.2861,299.1254,726.3067,300.6733,724.7587,303.6939,729.162,299.753" style="stroke:#808080;stroke-width:0.6;"/></g><!--link Customer to EmailAddress--><g id="link_Customer_EmailAddress"><path codeLine="122" d="M73.344,541.775 C84.654,542.579 94.1191,543.2527 105.9751,544.0987 " fill="none" id="Customer-to-EmailAddress" style="stroke:#808080;stroke-width:0.6;"/><polygon fill="#808080" points="109.566,544.355,104.3505,541.5767,106.5736,544.1414,104.0089,546.3645,109.566,544.355" style="stroke:#808080;stroke-width:0.6;"/></g><!--link User to UserEmail--><g id="link_User_UserEmail"><path codeLine="137" d="M304.464,185.807 C340.464,187.043 410.8101,189.4458 454.9761,190.9578 " fill="none" id="User-to-UserEmail" style="stroke:#808080;stroke-width:0.6;"/><polygon fill="#808080" points="458.574,191.081,453.2593,188.4976,455.5758,190.9783,453.095,193.2948,458.574,191.081" style="stroke:#808080;stroke-width:0.6;"/></g><!--link User to UserName--><g id="link_User_UserName"><path codeLine="138" d="M304.464,181.391 C340.464,175.031 410.8629,162.5951 455.0289,154.7951 " fill="none" id="User-to-UserName" style="stroke:#808080;stroke-width:0.6;"/><polygon fill="#808080" points="458.574,154.169,452.8389,152.7447,455.6197,154.6907,453.6737,157.4715,458.574,154.169" style="stroke:#808080;stroke-width:0.6;"/></g><!--link User to Username--><g id="link_User_Username"><path codeLine="139" d="M295.332,166.199 C302.232,156.359 311.64,144.701 322.2,136.493 C364.062,103.955 418.3607,82.7251 455.1047,70.6951 " fill="none" id="User-to-Username" style="stroke:#808080;stroke-width:0.6;"/><polygon fill="#808080" points="458.526,69.575,452.6473,68.9743,455.6749,70.5084,454.1408,73.536,458.526,69.575" style="stroke:#808080;stroke-width:0.6;"/></g><!--link User to UserPassword--><g id="link_User_UserPassword"><path codeLine="140" d="M304.416,172.145 C310.074,168.905 316.278,165.587 322.2,162.893 C367.902,142.115 419.6951,125.2612 454.9991,114.6952 " fill="none" id="User-to-UserPassword" style="stroke:#808080;stroke-width:0.6;"/><polygon fill="#808080" points="458.448,113.663,452.5866,112.912,455.574,114.5231,453.9629,117.5105,458.448,113.663" style="stroke:#808080;stroke-width:0.6;"/></g><!--reverse link JobOpening to Application--><g id="link_JobOpening_Application"><path codeLine="144" d="M507.1241,555.8644 C531.4661,510.0844 591.336,397.499 615.672,351.731 " fill="none" id="JobOpening-backto-Application" style="stroke:#808080;stroke-width:0.6;"/><polygon fill="#808080" points="505.434,559.043,510.0882,555.4018,506.8424,556.3941,505.8501,553.1483,505.434,559.043" style="stroke:#808080;stroke-width:0.6;"/><text fill="#000000" font-family="sans-serif" font-size="7.8" lengthAdjust="spacing" textLength="13.2" x="552" y="446.434">has</text><text fill="#000000" font-family="sans-serif" font-size="7.8" lengthAdjust="spacing" textLength="4.8" x="502.3529" y="552.7464">1</text><text fill="#000000" font-family="sans-serif" font-size="7.8" lengthAdjust="spacing" textLength="6" x="604.3331" y="363.9247">N</text></g><!--link JobOpening to Customer--><g id="link_JobOpening_Customer"><path codeLine="145" d="M460.506,567.713 C393.792,548.369 239.826,510.041 109.8,524.693 C97.764,526.049 88.2235,527.908 76.9555,530.656 " fill="none" id="JobOpening-to-Customer" style="stroke:#808080;stroke-width:0.6;"/><polygon fill="#808080" points="73.458,531.509,79.2729,532.5612,76.3726,530.7982,78.1356,527.8979,73.458,531.509" style="stroke:#808080;stroke-width:0.6;"/><text fill="#000000" font-family="sans-serif" font-size="7.8" lengthAdjust="spacing" textLength="40.2" x="201.6" y="520.234">associated</text><text fill="#000000" font-family="sans-serif" font-size="7.8" lengthAdjust="spacing" textLength="6" x="449.973" y="574.5489">N</text><text fill="#000000" font-family="sans-serif" font-size="7.8" lengthAdjust="spacing" textLength="4.8" x="78.0083" y="538.5453">1</text></g><!--link Application to Candidate--><g id="link_Application_Candidate"><path codeLine="147" d="M648.972,313.643 C674.712,291.323 714.3822,256.9255 740.0862,234.6355 " fill="none" id="Application-to-Candidate" style="stroke:#808080;stroke-width:0.6;"/><polygon fill="#808080" points="742.806,232.277,737.154,234.0016,740.5395,234.2424,740.2987,237.628,742.806,232.277" style="stroke:#808080;stroke-width:0.6;"/><text fill="#000000" font-family="sans-serif" font-size="7.8" lengthAdjust="spacing" textLength="6" x="647.0087" y="307.3464">N</text><text fill="#000000" font-family="sans-serif" font-size="7.8" lengthAdjust="spacing" textLength="4.8" x="733.105" y="244.4601">1</text></g><!--link User to JobOpening--><g id="link_User_JobOpening"><path codeLine="149" d="M286.2,204.059 C290.784,232.661 301.644,288.035 322.2,330.893 C359.724,409.139 389.28,416.285 438,488.093 C454.284,512.087 469.9097,537.5361 480.9557,555.9441 " fill="none" id="User-to-JobOpening" style="stroke:#808080;stroke-width:0.6;"/><polygon fill="#808080" points="482.808,559.031,482.0874,553.1658,481.2644,556.4586,477.9716,555.6355,482.808,559.031" style="stroke:#808080;stroke-width:0.6;"/><polygon fill="#000000" points="326.6527,328.5109,325.5675,322.9087,322.4819,324.6165,326.6527,328.5109" style="stroke:#000000;stroke-width:0.6;"/><text fill="#000000" font-family="sans-serif" font-size="7.8" lengthAdjust="spacing" textLength="106.8" x="330.6" y="328.834">Customer Manager manages</text><text fill="#000000" font-family="sans-serif" font-size="7.8" lengthAdjust="spacing" textLength="4.8" x="281.5772" y="216.2386">1</text><text fill="#000000" font-family="sans-serif" font-size="7.8" lengthAdjust="spacing" textLength="6" x="473.7365" y="552.7319">N</text></g><!--link User to Application--><g id="link_User_Application"><path codeLine="150" d="M290.07,204.209 C296.148,219.113 306.618,239.213 322.2,251.093 C405.204,314.387 530.0331,328.4641 589.6911,331.6321 " fill="none" id="User-to-Application" style="stroke:#808080;stroke-width:0.6;"/><polygon fill="#808080" points="593.286,331.823,588.0209,329.14,590.2902,331.6639,587.7663,333.9332,593.286,331.823" style="stroke:#808080;stroke-width:0.6;"/><polygon fill="#000000" points="461.7607,306.6602,457.4566,302.9136,456.0764,306.159,461.7607,306.6602" style="stroke:#000000;stroke-width:0.6;"/><text fill="#000000" font-family="sans-serif" font-size="7.8" lengthAdjust="spacing" textLength="68.4" x="464.4" y="308.434">Operator registers</text><text fill="#000000" font-family="sans-serif" font-size="7.8" lengthAdjust="spacing" textLength="4.8" x="291.8943" y="216.2699">1</text><text fill="#000000" font-family="sans-serif" font-size="7.8" lengthAdjust="spacing" textLength="6" x="582.6589" y="339.8412">N</text></g><!--link Customer to User--><g id="link_Customer_User"><path codeLine="152" d="M56.904,520.631 C98.316,458.987 226.2746,268.4933 267.5666,207.0233 " fill="none" id="Customer-to-User" style="stroke:#808080;stroke-width:0.6;"/><polygon fill="#808080" points="269.574,204.035,264.5706,207.1792,267.9012,206.5253,268.5551,209.8558,269.574,204.035" style="stroke:#808080;stroke-width:0.6;"/></g><!--link Candidate to User--><g id="link_Candidate_User"><path codeLine="154" d="M734.58,215.015 C678.012,217.895 552.054,222.611 446.4,214.493 C390.708,210.215 376.878,206.693 322.2,195.293 C316.416,194.087 313.6933,193.4739 307.9753,191.9679 " fill="none" id="Candidate-to-User" style="stroke:#808080;stroke-width:0.6;"/><polygon fill="#808080" points="304.494,191.051,309.1047,194.7472,307.3951,191.815,310.3272,190.1055,304.494,191.051" style="stroke:#808080;stroke-width:0.6;"/></g><!--SRC=[fLPBZzem4BxdLrZfeIUazeeG4WjbjTKkh7PfxoQU41V7Zcod5AtsltViy730G5QRIs3cc_4thumBpe2KO0l5J28WjyGgelcgi8Hn3PdbIYPVpPhBYcfQ4i4bs6q5H6cqIP85jm98Eb4bvP8yAGOYJP8ZFXFK6FAM47mUUGwFQ7-dD0CzLa9fCg5wVITgQ0DejbvfLKlMW4RFpuyFuz7YOJxpk5Fzb-ctAJvUDz9QRHhnIiEsmGS7BWKQ9-yXnmebT0MlTekXk9YfN0beHK4rknB4lGQGduzWCZcDm6NdFXR5tJwA7NUIZgbad54BPBJ2m5VuAtrBG5fkj-Ie70mQqN0u66Ybx72OUES-md6jDSzgKPU8-qsnB6I-_8C96GvtqRyVmGiGK1LAmgmkbw3FBFO6_dKaqEiDWtCYoXE_hI1_gYMPLo2vNCN2HFLUUpLEnBr03Xfa1bqYTJq-rzDQ-d7eO35MqcgQsOMRbDjmDpOTO2F6DE0qtKR-fXcL6GTpeJRd5XCmcUPLn_X6c8Y_yCfZ-MlLFQY8gssO-9Z-9DCnI9ZQcDxbCYRV9I-cEibM31Aa9-hyc8ycRgcmcvlFgChFEU-wdYpnEoh1GMm195T2g0twx1z0FPBNGlGiBo6GuKV97cKWcJylTl8X6zsFHFyQIkSla1JRfUOib2Xfk3qb4CxggAe4pwZlgCYiXkghmne0fro0kTXm1ujNIstT1LSlIsuCEfuqdyOR-1SgrzVRFGpAzyK9zoYeeHjNjHX68OvKhFA1rmzqct47MWiix3QiBy822SqogDeW1fcx6h2R7HbDoGSOMlXdIOwMPCDjuN4PZXSsaDdR0Tv5H3X23ftZrWIQ5Sq_QYt-1kPkEp6J6wTyoX5kEhgdIeDguXR4FjkjmYk3DQwDLIL-rMEBVg-xEb8_7CbBswIzj_V-NAk5PYr6lqoSZPTVPU8Gtcs7fUEmCrf2H-WpNZmtU6Ng29Ve-IBIltmqBWy7qkTYn-zSAgFIFK5VtN2ZfDzJCkZrI3eZQMlU-wIWfWsTfTwVCpdKga_GiyeuTIEQj3oqy8TUIpml9-jv9OA2C_f7pqzKOi4rAVtRa674iaqOdMXgSVQmDxYne9rH4hJLBXcnQs8ZJ_u3]--></g></svg>