<?xml version="1.0" encoding="us-ascii" standalone="no"?><svg xmlns="http://www.w3.org/2000/svg" xmlns:xlink="http://www.w3.org/1999/xlink" contentStyleType="text/css" height="397px" preserveAspectRatio="none" style="width:530px;height:397px;background:#FFFFFF;" version="1.1" viewBox="0 0 530 397" width="530px" zoomAndPan="magnify"><defs/><g><text fill="#000000" font-family="sans-serif" font-size="14" font-weight="bold" lengthAdjust="spacing" textLength="434" x="49.75" y="28.5352">System Sequence Diagram (SSD) - Notify rank of candidates</text><rect fill="#FFFFFF" height="169.8633" style="stroke:#181818;stroke-width:1.0;" width="10" x="83.5" y="128.9766"/><rect fill="#FFFFFF" height="29.3105" style="stroke:#181818;stroke-width:1.0;" width="10" x="476.5" y="150.2871"/><rect fill="#FFFFFF" height="89.9316" style="stroke:#181818;stroke-width:1.0;" width="10" x="476.5" y="208.9082"/><rect fill="none" height="46.6211" style="stroke:#000000;stroke-width:1.5;" width="514.5" x="10" y="223.9082"/><line style="stroke:#181818;stroke-width:0.5;stroke-dasharray:5.0,5.0;" x1="88" x2="88" y1="118.9766" y2="316.8398"/><line style="stroke:#181818;stroke-width:0.5;stroke-dasharray:5.0,5.0;" x1="481.5" x2="481.5" y1="118.9766" y2="316.8398"/><text fill="#000000" font-family="sans-serif" font-size="14" lengthAdjust="spacing" textLength="131" x="20" y="116.0234">Customer Manager</text><ellipse cx="88.5" cy="50.9883" fill="#E3E3E3" rx="8" ry="8" style="stroke:#181818;stroke-width:0.5;"/><path d="M88.5,58.9883 L88.5,85.9883 M75.5,66.9883 L101.5,66.9883 M88.5,85.9883 L75.5,100.9883 M88.5,85.9883 L101.5,100.9883 " fill="none" style="stroke:#181818;stroke-width:0.5;"/><text fill="#000000" font-family="sans-serif" font-size="14" lengthAdjust="spacing" textLength="131" x="20" y="329.375">Customer Manager</text><ellipse cx="88.5" cy="340.8281" fill="#E3E3E3" rx="8" ry="8" style="stroke:#181818;stroke-width:0.5;"/><path d="M88.5,348.8281 L88.5,375.8281 M75.5,356.8281 L101.5,356.8281 M88.5,375.8281 L75.5,390.8281 M88.5,375.8281 L101.5,390.8281 " fill="none" style="stroke:#181818;stroke-width:0.5;"/><rect fill="#E3E3E3" height="30.4883" rx="2.5" ry="2.5" style="stroke:#181818;stroke-width:0.5;" width="66" x="448.5" y="87.4883"/><text fill="#000000" font-family="sans-serif" font-size="14" lengthAdjust="spacing" textLength="52" x="455.5" y="108.0234">:System</text><rect fill="#E3E3E3" height="30.4883" rx="2.5" ry="2.5" style="stroke:#181818;stroke-width:0.5;" width="66" x="448.5" y="315.8398"/><text fill="#000000" font-family="sans-serif" font-size="14" lengthAdjust="spacing" textLength="52" x="455.5" y="336.375">:System</text><rect fill="#FFFFFF" height="169.8633" style="stroke:#181818;stroke-width:1.0;" width="10" x="83.5" y="128.9766"/><rect fill="#FFFFFF" height="29.3105" style="stroke:#181818;stroke-width:1.0;" width="10" x="476.5" y="150.2871"/><rect fill="#FFFFFF" height="89.9316" style="stroke:#181818;stroke-width:1.0;" width="10" x="476.5" y="208.9082"/><polygon fill="#181818" points="464.5,146.2871,474.5,150.2871,464.5,154.2871,468.5,150.2871" style="stroke:#181818;stroke-width:1.0;"/><line style="stroke:#181818;stroke-width:1.0;" x1="93.5" x2="470.5" y1="150.2871" y2="150.2871"/><text fill="#000000" font-family="sans-serif" font-size="13" font-weight="bold" lengthAdjust="spacing" textLength="9" x="100.5" y="145.5449">1</text><text fill="#000000" font-family="sans-serif" font-size="13" lengthAdjust="spacing" textLength="351" x="113.5" y="145.5449">asks to order the candidates of a job opening by grades</text><polygon fill="#181818" points="104.5,175.5977,94.5,179.5977,104.5,183.5977,100.5,179.5977" style="stroke:#181818;stroke-width:1.0;"/><line style="stroke:#181818;stroke-width:1.0;stroke-dasharray:2.0,2.0;" x1="98.5" x2="480.5" y1="179.5977" y2="179.5977"/><text fill="#000000" font-family="sans-serif" font-size="13" font-weight="bold" lengthAdjust="spacing" textLength="9" x="110.5" y="174.8555">2</text><text fill="#000000" font-family="sans-serif" font-size="13" lengthAdjust="spacing" textLength="258" x="123.5" y="174.8555">lists job openings and asks to select one</text><polygon fill="#181818" points="464.5,204.9082,474.5,208.9082,464.5,212.9082,468.5,208.9082" style="stroke:#181818;stroke-width:1.0;"/><line style="stroke:#181818;stroke-width:1.0;" x1="93.5" x2="470.5" y1="208.9082" y2="208.9082"/><text fill="#000000" font-family="sans-serif" font-size="13" font-weight="bold" lengthAdjust="spacing" textLength="9" x="100.5" y="204.166">3</text><text fill="#000000" font-family="sans-serif" font-size="13" lengthAdjust="spacing" textLength="123" x="113.5" y="204.166">selects job opening</text><path d="M10,223.9082 L84,223.9082 L84,231.2188 L74,241.2188 L10,241.2188 L10,223.9082 " fill="#EEEEEE" style="stroke:#000000;stroke-width:1.5;"/><rect fill="none" height="46.6211" style="stroke:#000000;stroke-width:1.5;" width="514.5" x="10" y="223.9082"/><text fill="#000000" font-family="sans-serif" font-size="13" font-weight="bold" lengthAdjust="spacing" textLength="29" x="25" y="237.4766">loop</text><text fill="#000000" font-family="sans-serif" font-size="11" font-weight="bold" lengthAdjust="spacing" textLength="187" x="99" y="236.543">[application with status accepted]</text><polygon fill="#181818" points="104.5,258.5293,94.5,262.5293,104.5,266.5293,100.5,262.5293" style="stroke:#181818;stroke-width:1.0;"/><line style="stroke:#181818;stroke-width:1.0;stroke-dasharray:2.0,2.0;" x1="98.5" x2="475.5" y1="262.5293" y2="262.5293"/><text fill="#000000" font-family="sans-serif" font-size="13" font-weight="bold" lengthAdjust="spacing" textLength="9" x="110.5" y="257.7871">4</text><text fill="#000000" font-family="sans-serif" font-size="13" lengthAdjust="spacing" textLength="247" x="123.5" y="257.7871">notify the candidate by email the result</text><polygon fill="#181818" points="99.5,294.8398,89.5,298.8398,99.5,302.8398,95.5,298.8398" style="stroke:#181818;stroke-width:1.0;"/><line style="stroke:#181818;stroke-width:1.0;stroke-dasharray:2.0,2.0;" x1="93.5" x2="480.5" y1="298.8398" y2="298.8398"/><text fill="#000000" font-family="sans-serif" font-size="13" font-weight="bold" lengthAdjust="spacing" textLength="9" x="105.5" y="294.0977">5</text><text fill="#000000" font-family="sans-serif" font-size="13" lengthAdjust="spacing" textLength="338" x="118.5" y="294.0977">notify the costumer of the list of candidates accepted</text><!--SRC=[VP6nTiCW34Ltla8dKpla1p9qITPqyHSeeDZK656Gc-E_hx2Rr3b9omH2l7TvAhsF2JCEC71assKU22IFPChj9g7jiQL6fa2GoGh6DgmRIeUEBpwsSCPGo1ZnegtDL8G6QEXpf6W93XxRslxID8TNsC8xYpzFa37sm6Um69rtA5ICmL4uZiE9ikwjS8RDVYoYS1cE69KcRm0Bx8z64SHRdp0AR7QBvtotREVt_ajbQxC1NViZRD-kT3jjxGi80sUdwjBHYgHo8Npm2JXHh3yyJQ2VS0fPfMxQLxEvgkj7VQj6QhU3u8kKjL01DRbv5mgQAt2aMS3HW_0JyENHdUfpgC2S05CAtg9uZd3nqa4Hb54nhAKavAxa3-Xn6TDTC3K66j27kPofZ44CHRTm_gV0HSOwHGssdcikzyF_1VehYbL9H_eD]--></g></svg>