<?xml version="1.0" encoding="us-ascii" standalone="no"?><svg xmlns="http://www.w3.org/2000/svg" xmlns:xlink="http://www.w3.org/1999/xlink" contentStyleType="text/css" height="397px" preserveAspectRatio="none" style="width:550px;height:397px;background:#FFFFFF;" version="1.1" viewBox="0 0 550 397" width="550px" zoomAndPan="magnify"><defs/><g><text fill="#000000" font-family="sans-serif" font-size="14" font-weight="bold" lengthAdjust="spacing" textLength="434" x="59.75" y="28.5352">System Sequence Diagram (SSD) - Notify rank of candidates</text><rect fill="#FFFFFF" height="169.8633" style="stroke:#181818;stroke-width:1.0;" width="10" x="83.5" y="128.9766"/><rect fill="#FFFFFF" height="29.3105" style="stroke:#181818;stroke-width:1.0;" width="10" x="496.5" y="150.2871"/><rect fill="#FFFFFF" height="89.9316" style="stroke:#181818;stroke-width:1.0;" width="10" x="496.5" y="208.9082"/><rect fill="none" height="46.6211" style="stroke:#000000;stroke-width:1.5;" width="534.5" x="10" y="223.9082"/><line style="stroke:#181818;stroke-width:0.5;stroke-dasharray:5.0,5.0;" x1="88" x2="88" y1="118.9766" y2="316.8398"/><line style="stroke:#181818;stroke-width:0.5;stroke-dasharray:5.0,5.0;" x1="501.5" x2="501.5" y1="118.9766" y2="316.8398"/><text fill="#000000" font-family="sans-serif" font-size="14" lengthAdjust="spacing" textLength="131" x="20" y="116.0234">Customer Manager</text><ellipse cx="88.5" cy="50.9883" fill="#E3E3E3" rx="8" ry="8" style="stroke:#181818;stroke-width:0.5;"/><path d="M88.5,58.9883 L88.5,85.9883 M75.5,66.9883 L101.5,66.9883 M88.5,85.9883 L75.5,100.9883 M88.5,85.9883 L101.5,100.9883 " fill="none" style="stroke:#181818;stroke-width:0.5;"/><text fill="#000000" font-family="sans-serif" font-size="14" lengthAdjust="spacing" textLength="131" x="20" y="329.375">Customer Manager</text><ellipse cx="88.5" cy="340.8281" fill="#E3E3E3" rx="8" ry="8" style="stroke:#181818;stroke-width:0.5;"/><path d="M88.5,348.8281 L88.5,375.8281 M75.5,356.8281 L101.5,356.8281 M88.5,375.8281 L75.5,390.8281 M88.5,375.8281 L101.5,390.8281 " fill="none" style="stroke:#181818;stroke-width:0.5;"/><rect fill="#E3E3E3" height="30.4883" rx="2.5" ry="2.5" style="stroke:#181818;stroke-width:0.5;" width="66" x="468.5" y="87.4883"/><text fill="#000000" font-family="sans-serif" font-size="14" lengthAdjust="spacing" textLength="52" x="475.5" y="108.0234">:System</text><rect fill="#E3E3E3" height="30.4883" rx="2.5" ry="2.5" style="stroke:#181818;stroke-width:0.5;" width="66" x="468.5" y="315.8398"/><text fill="#000000" font-family="sans-serif" font-size="14" lengthAdjust="spacing" textLength="52" x="475.5" y="336.375">:System</text><rect fill="#FFFFFF" height="169.8633" style="stroke:#181818;stroke-width:1.0;" width="10" x="83.5" y="128.9766"/><rect fill="#FFFFFF" height="29.3105" style="stroke:#181818;stroke-width:1.0;" width="10" x="496.5" y="150.2871"/><rect fill="#FFFFFF" height="89.9316" style="stroke:#181818;stroke-width:1.0;" width="10" x="496.5" y="208.9082"/><polygon fill="#181818" points="484.5,146.2871,494.5,150.2871,484.5,154.2871,488.5,150.2871" style="stroke:#181818;stroke-width:1.0;"/><line style="stroke:#181818;stroke-width:1.0;" x1="93.5" x2="490.5" y1="150.2871" y2="150.2871"/><text fill="#000000" font-family="sans-serif" font-size="13" font-weight="bold" lengthAdjust="spacing" textLength="9" x="100.5" y="145.5449">1</text><text fill="#000000" font-family="sans-serif" font-size="13" lengthAdjust="spacing" textLength="351" x="113.5" y="145.5449">asks to order the candidates of a job opening by grades</text><polygon fill="#181818" points="104.5,175.5977,94.5,179.5977,104.5,183.5977,100.5,179.5977" style="stroke:#181818;stroke-width:1.0;"/><line style="stroke:#181818;stroke-width:1.0;stroke-dasharray:2.0,2.0;" x1="98.5" x2="500.5" y1="179.5977" y2="179.5977"/><text fill="#000000" font-family="sans-serif" font-size="13" font-weight="bold" lengthAdjust="spacing" textLength="9" x="110.5" y="174.8555">2</text><text fill="#000000" font-family="sans-serif" font-size="13" lengthAdjust="spacing" textLength="258" x="123.5" y="174.8555">lists job openings and asks to select one</text><polygon fill="#181818" points="484.5,204.9082,494.5,208.9082,484.5,212.9082,488.5,208.9082" style="stroke:#181818;stroke-width:1.0;"/><line style="stroke:#181818;stroke-width:1.0;" x1="93.5" x2="490.5" y1="208.9082" y2="208.9082"/><text fill="#000000" font-family="sans-serif" font-size="13" font-weight="bold" lengthAdjust="spacing" textLength="9" x="100.5" y="204.166">3</text><text fill="#000000" font-family="sans-serif" font-size="13" lengthAdjust="spacing" textLength="123" x="113.5" y="204.166">selects job opening</text><path d="M10,223.9082 L84,223.9082 L84,231.2188 L74,241.2188 L10,241.2188 L10,223.9082 " fill="#EEEEEE" style="stroke:#000000;stroke-width:1.5;"/><rect fill="none" height="46.6211" style="stroke:#000000;stroke-width:1.5;" width="534.5" x="10" y="223.9082"/><text fill="#000000" font-family="sans-serif" font-size="13" font-weight="bold" lengthAdjust="spacing" textLength="29" x="25" y="237.4766">loop</text><text fill="#000000" font-family="sans-serif" font-size="11" font-weight="bold" lengthAdjust="spacing" textLength="187" x="99" y="236.543">[application with status accepted]</text><polygon fill="#181818" points="104.5,258.5293,94.5,262.5293,104.5,266.5293,100.5,262.5293" style="stroke:#181818;stroke-width:1.0;"/><line style="stroke:#181818;stroke-width:1.0;stroke-dasharray:2.0,2.0;" x1="98.5" x2="495.5" y1="262.5293" y2="262.5293"/><text fill="#000000" font-family="sans-serif" font-size="13" font-weight="bold" lengthAdjust="spacing" textLength="9" x="110.5" y="257.7871">4</text><text fill="#000000" font-family="sans-serif" font-size="13" lengthAdjust="spacing" textLength="366" x="123.5" y="257.7871">show the result of notifications of the email to candidates</text><polygon fill="#181818" points="99.5,294.8398,89.5,298.8398,99.5,302.8398,95.5,298.8398" style="stroke:#181818;stroke-width:1.0;"/><line style="stroke:#181818;stroke-width:1.0;stroke-dasharray:2.0,2.0;" x1="93.5" x2="500.5" y1="298.8398" y2="298.8398"/><text fill="#000000" font-family="sans-serif" font-size="13" font-weight="bold" lengthAdjust="spacing" textLength="9" x="105.5" y="294.0977">5</text><text fill="#000000" font-family="sans-serif" font-size="13" lengthAdjust="spacing" textLength="350" x="118.5" y="294.0977">show the result of notification of the email to costumer</text><!--SRC=[XP91Si8m34NtEOM6LRlW0YowWItTv0J24OaRnqejkKnkNpa19eLswfN7alz_-hRqFewOS8218xikyK2WALCbzyg8hiUMQfq2GIAd6DkmRf0E6xxusC8PWr1LgLThhITH6g2cpqpH4HmyjgNzfQuFhx25TrP_dY1Xx87Fu30sla4bgIhCoZ4F9qgsTye9DliiQd09ZXYD9cq01VR7oX3KEpzYLDZi5i-vjcpd-_xBP4jp1RRsHzY-tUXsrjeBA0EdnjIrenL9uKBuu1FmIB5CU9h0XcWCiaZTjMzcywcjg_hMZCnk1y6Bobf8m4pktaB1SWMED0iqz2Jy2_XowOVgxr21UGGSn-0TgkS85wyTYA9cmt2EHgNcHlw8BXrVvbGIIGvQ4edbuQvQSqIbJ0FwK6PPlIF5PY5_ZECVqMTD5ir3-Gr_nBCwicV-1W00]--></g></svg>