<?xml version="1.0" encoding="us-ascii" standalone="no"?><svg xmlns="http://www.w3.org/2000/svg" xmlns:xlink="http://www.w3.org/1999/xlink" contentStyleType="text/css" height="450px" preserveAspectRatio="none" style="width:520px;height:450px;background:#FFFFFF;" version="1.1" viewBox="0 0 520 450" width="520px" zoomAndPan="magnify"><defs/><g><text fill="#000000" font-family="sans-serif" font-size="14" font-weight="bold" lengthAdjust="spacing" textLength="414" x="54.25" y="30.1074">System Sequence Diagram (SSD) - Candidate Sign-Up/Login</text><rect fill="#FFFFFF" height="215.668" style="stroke:#181818;stroke-width:1.0;" width="10" x="50.5" y="133.2422"/><rect fill="#FFFFFF" height="122.7949" style="stroke:#181818;stroke-width:1.0;" width="10" x="466.5" y="156.5332"/><rect fill="#FFFFFF" height="31.291" style="stroke:#181818;stroke-width:1.0;" width="10" x="466.5" y="317.6191"/><rect fill="none" height="115.7949" style="stroke:#000000;stroke-width:1.5;" width="503.5" x="10" y="171.5332"/><line style="stroke:#181818;stroke-width:0.5;stroke-dasharray:5.0,5.0;" x1="55" x2="55" y1="123.2422" y2="366.9102"/><line style="stroke:#181818;stroke-width:0.5;stroke-dasharray:5.0,5.0;" x1="471.5" x2="471.5" y1="123.2422" y2="366.9102"/><text fill="#000000" font-family="sans-serif" font-size="14" lengthAdjust="spacing" textLength="65" x="20" y="119.7285">Candidate</text><ellipse cx="55.5" cy="53.1211" fill="#E3E3E3" rx="8" ry="8" style="stroke:#181818;stroke-width:0.5;"/><path d="M55.5,61.1211 L55.5,88.1211 M42.5,69.1211 L68.5,69.1211 M55.5,88.1211 L42.5,103.1211 M55.5,88.1211 L68.5,103.1211 " fill="none" style="stroke:#181818;stroke-width:0.5;"/><text fill="#000000" font-family="sans-serif" font-size="14" lengthAdjust="spacing" textLength="65" x="20" y="381.0176">Candidate</text><ellipse cx="55.5" cy="393.0313" fill="#E3E3E3" rx="8" ry="8" style="stroke:#181818;stroke-width:0.5;"/><path d="M55.5,401.0313 L55.5,428.0313 M42.5,409.0313 L68.5,409.0313 M55.5,428.0313 L42.5,443.0313 M55.5,428.0313 L68.5,443.0313 " fill="none" style="stroke:#181818;stroke-width:0.5;"/><rect fill="#E3E3E3" height="32.6211" rx="2.5" ry="2.5" style="stroke:#181818;stroke-width:0.5;" width="64" x="439.5" y="89.6211"/><text fill="#000000" font-family="sans-serif" font-size="14" lengthAdjust="spacing" textLength="50" x="446.5" y="111.7285">:System</text><rect fill="#E3E3E3" height="32.6211" rx="2.5" ry="2.5" style="stroke:#181818;stroke-width:0.5;" width="64" x="439.5" y="365.9102"/><text fill="#000000" font-family="sans-serif" font-size="14" lengthAdjust="spacing" textLength="50" x="446.5" y="388.0176">:System</text><rect fill="#FFFFFF" height="215.668" style="stroke:#181818;stroke-width:1.0;" width="10" x="50.5" y="133.2422"/><rect fill="#FFFFFF" height="122.7949" style="stroke:#181818;stroke-width:1.0;" width="10" x="466.5" y="156.5332"/><rect fill="#FFFFFF" height="31.291" style="stroke:#181818;stroke-width:1.0;" width="10" x="466.5" y="317.6191"/><polygon fill="#181818" points="454.5,152.5332,464.5,156.5332,454.5,160.5332,458.5,156.5332" style="stroke:#181818;stroke-width:1.0;"/><line style="stroke:#181818;stroke-width:1.0;" x1="60.5" x2="460.5" y1="156.5332" y2="156.5332"/><text fill="#000000" font-family="sans-serif" font-size="13" font-weight="bold" lengthAdjust="spacing" textLength="7" x="67.5" y="151.2705">1</text><text fill="#000000" font-family="sans-serif" font-size="13" lengthAdjust="spacing" textLength="209" x="78.5" y="151.2705">asks to sign-up/login as a candidate</text><path d="M10,171.5332 L71,171.5332 L71,180.8242 L61,190.8242 L10,190.8242 L10,171.5332 " fill="#EEEEEE" style="stroke:#000000;stroke-width:1.5;"/><rect fill="none" height="115.7949" style="stroke:#000000;stroke-width:1.5;" width="503.5" x="10" y="171.5332"/><text fill="#000000" font-family="sans-serif" font-size="13" font-weight="bold" lengthAdjust="spacing" textLength="16" x="25" y="186.5615">alt</text><text fill="#000000" font-family="sans-serif" font-size="11" font-weight="bold" lengthAdjust="spacing" textLength="152" x="86" y="185.4033">[Sign-Up option is selected]</text><polygon fill="#181818" points="71.5,227.4063,61.5,231.4063,71.5,235.4063,67.5,231.4063" style="stroke:#181818;stroke-width:1.0;"/><line style="stroke:#181818;stroke-width:1.0;stroke-dasharray:2.0,2.0;" x1="65.5" x2="465.5" y1="231.4063" y2="231.4063"/><text fill="#000000" font-family="sans-serif" font-size="13" font-weight="bold" lengthAdjust="spacing" textLength="7" x="77.5" y="217.498">2</text><text fill="#000000" font-family="sans-serif" font-size="13" lengthAdjust="spacing" textLength="371" x="88.5" y="208.8525">requests account opening details (FirstName, LastName, Email,</text><text fill="#000000" font-family="sans-serif" font-size="13" lengthAdjust="spacing" textLength="156" x="92.5" y="226.1436">PhoneNumber, Curriculum)</text><line style="stroke:#000000;stroke-width:1.0;stroke-dasharray:2.0,2.0;" x1="10" x2="513.5" y1="240.4063" y2="240.4063"/><text fill="#000000" font-family="sans-serif" font-size="11" font-weight="bold" lengthAdjust="spacing" textLength="141" x="15" y="252.2764">[Login option is selected]</text><polygon fill="#181818" points="71.5,275.3281,61.5,279.3281,71.5,283.3281,67.5,279.3281" style="stroke:#181818;stroke-width:1.0;"/><line style="stroke:#181818;stroke-width:1.0;stroke-dasharray:2.0,2.0;" x1="65.5" x2="470.5" y1="279.3281" y2="279.3281"/><text fill="#000000" font-family="sans-serif" font-size="13" font-weight="bold" lengthAdjust="spacing" textLength="7" x="77.5" y="274.0654">3</text><text fill="#000000" font-family="sans-serif" font-size="13" lengthAdjust="spacing" textLength="283" x="88.5" y="274.0654">requests account login details (Email, Password)</text><polygon fill="#181818" points="454.5,313.6191,464.5,317.6191,454.5,321.6191,458.5,317.6191" style="stroke:#181818;stroke-width:1.0;"/><line style="stroke:#181818;stroke-width:1.0;" x1="60.5" x2="460.5" y1="317.6191" y2="317.6191"/><text fill="#000000" font-family="sans-serif" font-size="13" font-weight="bold" lengthAdjust="spacing" textLength="7" x="67.5" y="312.3564">4</text><text fill="#000000" font-family="sans-serif" font-size="13" lengthAdjust="spacing" textLength="142" x="78.5" y="312.3564">inserts requested details</text><polygon fill="#181818" points="66.5,344.9102,56.5,348.9102,66.5,352.9102,62.5,348.9102" style="stroke:#181818;stroke-width:1.0;"/><line style="stroke:#181818;stroke-width:1.0;stroke-dasharray:2.0,2.0;" x1="60.5" x2="470.5" y1="348.9102" y2="348.9102"/><text fill="#000000" font-family="sans-serif" font-size="13" font-weight="bold" lengthAdjust="spacing" textLength="7" x="72.5" y="343.6475">5</text><text fill="#000000" font-family="sans-serif" font-size="13" lengthAdjust="spacing" textLength="158" x="83.5" y="343.6475">displays operation success</text><!--SRC=[ZP91QyCm38Nl-HMYfmvQUkzXCDeD1gCCijrsqMmj5NNip99N-k_dE4qw1YlpIR6V_3uzHmxiEupOGXjyCFiOMWADYIgPJZeq1soerfCZY6GKVUD-2cIFDXpPD_21JgYgb3LBwvCejL3JPo9l2BQCJI-Vr_Ns1fQmGM_PecObDtxvsgsUGiE-gZ1fyAbzfvXheo72RDBE00KsTxlju_RkvRxA0Cg6E_GAi_NWM2H3MVhvg_Uuz5IGr_G9ozkHT9qR3m8QG7gWrArS3zHVXs16Wj8-NJlwb4sduoWGEkNWWGM4NCwCR97aTJPRPjyBn3e7csCIpLR6X9J72HtvFbDBYkm4vWySHNVOqWAUSApkstouUFFml0-UTYMr1MnIZ6oII-tDW4RvNQ34UuNitsX3B1FOm03FA78CqPujBVqEgO1uU-q1s0l5x7Is93kw_9tw5N3BqZayIPzbn3As96D8v0_2wiVMvOVv1W00]--></g></svg>