<?xml version="1.0" encoding="us-ascii" standalone="no"?><svg xmlns="http://www.w3.org/2000/svg" xmlns:xlink="http://www.w3.org/1999/xlink" contentStyleType="text/css" height="851px" preserveAspectRatio="none" style="width:968px;height:851px;background:#FFFFFF;" version="1.1" viewBox="0 0 968 851" width="968px" zoomAndPan="magnify"><defs/><g><rect fill="#FFFFFF" height="636.4023" style="stroke:#181818;stroke-width:1.0;" width="10" x="17.5" y="98.2422"/><rect fill="#FFFFFF" height="48.582" style="stroke:#181818;stroke-width:1.0;" width="10" x="242.5" y="158.8242"/><rect fill="#FFFFFF" height="495.9473" style="stroke:#181818;stroke-width:1.0;" width="10" x="242.5" y="238.6973"/><rect fill="#FFFFFF" height="433.3652" style="stroke:#181818;stroke-width:1.0;" width="10" x="442.5" y="269.9883"/><rect fill="#FFFFFF" height="31.291" style="stroke:#181818;stroke-width:1.0;" width="10" x="657.5" y="301.2793"/><rect fill="#FFFFFF" height="31.291" style="stroke:#181818;stroke-width:1.0;" width="10" x="798" y="381.1523"/><rect fill="#FFFFFF" height="31.291" style="stroke:#181818;stroke-width:1.0;" width="10" x="911" y="443.7344"/><rect fill="#FFFFFF" height="103.1641" style="stroke:#181818;stroke-width:1.0;" width="10" x="911" y="506.3164"/><rect fill="#FFFFFF" height="31.291" style="stroke:#181818;stroke-width:1.0;" width="10" x="911" y="640.7715"/><line style="stroke:#181818;stroke-width:0.5;stroke-dasharray:5.0,5.0;" x1="22" x2="22" y1="88.2422" y2="752.6445"/><line style="stroke:#181818;stroke-width:0.5;stroke-dasharray:5.0,5.0;" x1="247" x2="247" y1="88.2422" y2="752.6445"/><line style="stroke:#181818;stroke-width:0.5;stroke-dasharray:5.0,5.0;" x1="447" x2="447" y1="88.2422" y2="752.6445"/><line style="stroke:#181818;stroke-width:0.5;stroke-dasharray:5.0,5.0;" x1="662.5" x2="662.5" y1="88.2422" y2="752.6445"/><line style="stroke:#181818;stroke-width:0.5;stroke-dasharray:5.0,5.0;" x1="802.5" x2="802.5" y1="88.2422" y2="752.6445"/><line style="stroke:#181818;stroke-width:0.5;stroke-dasharray:5.0,5.0;" x1="915.5" x2="915.5" y1="88.2422" y2="752.6445"/><text fill="#000000" font-family="sans-serif" font-size="14" lengthAdjust="spacing" textLength="29" x="5" y="84.7285">User</text><ellipse cx="22.5" cy="18.1211" fill="#E2E2F0" rx="8" ry="8" style="stroke:#181818;stroke-width:0.5;"/><path d="M22.5,26.1211 L22.5,53.1211 M9.5,34.1211 L35.5,34.1211 M22.5,53.1211 L9.5,68.1211 M22.5,53.1211 L35.5,68.1211 " fill="none" style="stroke:#181818;stroke-width:0.5;"/><text fill="#000000" font-family="sans-serif" font-size="14" lengthAdjust="spacing" textLength="29" x="5" y="766.752">User</text><ellipse cx="22.5" cy="778.7656" fill="#E2E2F0" rx="8" ry="8" style="stroke:#181818;stroke-width:0.5;"/><path d="M22.5,786.7656 L22.5,813.7656 M9.5,794.7656 L35.5,794.7656 M22.5,813.7656 L9.5,828.7656 M22.5,813.7656 L35.5,828.7656 " fill="none" style="stroke:#181818;stroke-width:0.5;"/><rect fill="#E2E2F0" height="51.2422" rx="2.5" ry="2.5" style="stroke:#181818;stroke-width:0.5;" width="109" x="193" y="36"/><text fill="#000000" font-family="sans-serif" font-size="14" font-style="italic" lengthAdjust="spacing" textLength="95" x="200" y="58.1074">&#171;presentation&#187;</text><text fill="#000000" font-family="sans-serif" font-size="14" lengthAdjust="spacing" textLength="57" x="219" y="76.7285">SignUpUI</text><rect fill="#E2E2F0" height="51.2422" rx="2.5" ry="2.5" style="stroke:#181818;stroke-width:0.5;" width="109" x="193" y="751.6445"/><text fill="#000000" font-family="sans-serif" font-size="14" font-style="italic" lengthAdjust="spacing" textLength="95" x="200" y="773.752">&#171;presentation&#187;</text><text fill="#000000" font-family="sans-serif" font-size="14" lengthAdjust="spacing" textLength="57" x="219" y="792.373">SignUpUI</text><rect fill="#E2E2F0" height="51.2422" rx="2.5" ry="2.5" style="stroke:#181818;stroke-width:0.5;" width="121" x="387" y="36"/><text fill="#000000" font-family="sans-serif" font-size="14" font-style="italic" lengthAdjust="spacing" textLength="75" x="410" y="58.1074">&#171;controller&#187;</text><text fill="#000000" font-family="sans-serif" font-size="14" lengthAdjust="spacing" textLength="107" x="394" y="76.7285">SignUpController</text><rect fill="#E2E2F0" height="51.2422" rx="2.5" ry="2.5" style="stroke:#181818;stroke-width:0.5;" width="121" x="387" y="751.6445"/><text fill="#000000" font-family="sans-serif" font-size="14" font-style="italic" lengthAdjust="spacing" textLength="75" x="410" y="773.752">&#171;controller&#187;</text><text fill="#000000" font-family="sans-serif" font-size="14" lengthAdjust="spacing" textLength="107" x="394" y="792.373">SignUpController</text><rect fill="#E2E2F0" height="51.2422" rx="2.5" ry="2.5" style="stroke:#181818;stroke-width:0.5;" width="158" x="583.5" y="36"/><text fill="#000000" font-family="sans-serif" font-size="14" font-style="italic" lengthAdjust="spacing" textLength="52" x="636.5" y="58.1074">&#171;policy&#187;</text><text fill="#000000" font-family="sans-serif" font-size="14" lengthAdjust="spacing" textLength="144" x="590.5" y="76.7285">Jobs4UPasswordPolicy</text><rect fill="#E2E2F0" height="51.2422" rx="2.5" ry="2.5" style="stroke:#181818;stroke-width:0.5;" width="158" x="583.5" y="751.6445"/><text fill="#000000" font-family="sans-serif" font-size="14" font-style="italic" lengthAdjust="spacing" textLength="52" x="636.5" y="773.752">&#171;policy&#187;</text><text fill="#000000" font-family="sans-serif" font-size="14" lengthAdjust="spacing" textLength="144" x="590.5" y="792.373">Jobs4UPasswordPolicy</text><rect fill="#E2E2F0" height="51.2422" rx="2.5" ry="2.5" style="stroke:#181818;stroke-width:0.5;" width="103" x="751.5" y="36"/><text fill="#000000" font-family="sans-serif" font-size="14" font-style="italic" lengthAdjust="spacing" textLength="59" x="773.5" y="58.1074">&#171;builder&#187;</text><text fill="#000000" font-family="sans-serif" font-size="14" lengthAdjust="spacing" textLength="89" x="758.5" y="76.7285">SignUpBuilder</text><rect fill="#E2E2F0" height="51.2422" rx="2.5" ry="2.5" style="stroke:#181818;stroke-width:0.5;" width="103" x="751.5" y="751.6445"/><text fill="#000000" font-family="sans-serif" font-size="14" font-style="italic" lengthAdjust="spacing" textLength="59" x="773.5" y="773.752">&#171;builder&#187;</text><text fill="#000000" font-family="sans-serif" font-size="14" lengthAdjust="spacing" textLength="89" x="758.5" y="792.373">SignUpBuilder</text><text fill="#000000" font-family="sans-serif" font-size="14" font-style="italic" lengthAdjust="spacing" textLength="79" x="873.5" y="66.1074">&#171;repository&#187;</text><text fill="#000000" font-family="sans-serif" font-size="14" lengthAdjust="spacing" textLength="97" x="864.5" y="84.7285">UserRepository</text><path d="M898,15 C898,5 916,5 916,5 C916,5 934,5 934,15 L934,41 C934,51 916,51 916,51 C916,51 898,51 898,41 L898,15 " fill="#E2E2F0" style="stroke:#181818;stroke-width:1.5;"/><path d="M898,15 C898,25 916,25 916,25 C916,25 934,25 934,15 " fill="none" style="stroke:#181818;stroke-width:1.5;"/><text fill="#000000" font-family="sans-serif" font-size="14" font-style="italic" lengthAdjust="spacing" textLength="79" x="873.5" y="766.752">&#171;repository&#187;</text><text fill="#000000" font-family="sans-serif" font-size="14" lengthAdjust="spacing" textLength="97" x="864.5" y="785.373">UserRepository</text><path d="M898,798.8867 C898,788.8867 916,788.8867 916,788.8867 C916,788.8867 934,788.8867 934,798.8867 L934,824.8867 C934,834.8867 916,834.8867 916,834.8867 C916,834.8867 898,834.8867 898,824.8867 L898,798.8867 " fill="#E2E2F0" style="stroke:#181818;stroke-width:1.5;"/><path d="M898,798.8867 C898,808.8867 916,808.8867 916,808.8867 C916,808.8867 934,808.8867 934,798.8867 " fill="none" style="stroke:#181818;stroke-width:1.5;"/><rect fill="#FFFFFF" height="636.4023" style="stroke:#181818;stroke-width:1.0;" width="10" x="17.5" y="98.2422"/><rect fill="#FFFFFF" height="48.582" style="stroke:#181818;stroke-width:1.0;" width="10" x="242.5" y="158.8242"/><rect fill="#FFFFFF" height="495.9473" style="stroke:#181818;stroke-width:1.0;" width="10" x="242.5" y="238.6973"/><rect fill="#FFFFFF" height="433.3652" style="stroke:#181818;stroke-width:1.0;" width="10" x="442.5" y="269.9883"/><rect fill="#FFFFFF" height="31.291" style="stroke:#181818;stroke-width:1.0;" width="10" x="657.5" y="301.2793"/><rect fill="#FFFFFF" height="31.291" style="stroke:#181818;stroke-width:1.0;" width="10" x="798" y="381.1523"/><rect fill="#FFFFFF" height="31.291" style="stroke:#181818;stroke-width:1.0;" width="10" x="911" y="443.7344"/><rect fill="#FFFFFF" height="103.1641" style="stroke:#181818;stroke-width:1.0;" width="10" x="911" y="506.3164"/><rect fill="#FFFFFF" height="31.291" style="stroke:#181818;stroke-width:1.0;" width="10" x="911" y="640.7715"/><path d="M32,103.2422 L32,130.2422 L317,130.2422 L317,113.2422 L307,103.2422 L32,103.2422 " fill="#FEFFDD" style="stroke:#181818;stroke-width:0.5;"/><path d="M307,103.2422 L307,113.2422 L317,113.2422 L307,103.2422 " fill="#FEFFDD" style="stroke:#181818;stroke-width:0.5;"/><text fill="#000000" font-family="sans-serif" font-size="13" lengthAdjust="spacing" textLength="264" x="38" y="122.2705">The user role depends on the app he is using.</text><polygon fill="#181818" points="230.5,154.8242,240.5,158.8242,230.5,162.8242,234.5,158.8242" style="stroke:#181818;stroke-width:1.0;"/><line style="stroke:#181818;stroke-width:1.0;" x1="27.5" x2="236.5" y1="158.8242" y2="158.8242"/><text fill="#000000" font-family="sans-serif" font-size="13" font-weight="bold" lengthAdjust="spacing" textLength="7" x="34.5" y="153.5615">1</text><text fill="#000000" font-family="sans-serif" font-size="13" lengthAdjust="spacing" textLength="89" x="45.5" y="153.5615">asks to sign-up</text><polygon fill="#181818" points="38.5,203.4063,28.5,207.4063,38.5,211.4063,34.5,207.4063" style="stroke:#181818;stroke-width:1.0;"/><line style="stroke:#181818;stroke-width:1.0;stroke-dasharray:2.0,2.0;" x1="32.5" x2="246.5" y1="207.4063" y2="207.4063"/><text fill="#000000" font-family="sans-serif" font-size="13" font-weight="bold" lengthAdjust="spacing" textLength="7" x="44.5" y="193.498">2</text><text fill="#000000" font-family="sans-serif" font-size="13" lengthAdjust="spacing" textLength="176" x="55.5" y="184.8525">asks for first name, last name,</text><text fill="#000000" font-family="sans-serif" font-size="13" lengthAdjust="spacing" textLength="163" x="55.5" y="202.1436">email and telephone number</text><polygon fill="#181818" points="230.5,234.6973,240.5,238.6973,230.5,242.6973,234.5,238.6973" style="stroke:#181818;stroke-width:1.0;"/><line style="stroke:#181818;stroke-width:1.0;" x1="27.5" x2="236.5" y1="238.6973" y2="238.6973"/><text fill="#000000" font-family="sans-serif" font-size="13" font-weight="bold" lengthAdjust="spacing" textLength="7" x="34.5" y="233.4346">3</text><text fill="#000000" font-family="sans-serif" font-size="13" lengthAdjust="spacing" textLength="89" x="45.5" y="233.4346">provides details</text><polygon fill="#181818" points="430.5,265.9883,440.5,269.9883,430.5,273.9883,434.5,269.9883" style="stroke:#181818;stroke-width:1.0;"/><line style="stroke:#181818;stroke-width:1.0;" x1="252.5" x2="436.5" y1="269.9883" y2="269.9883"/><text fill="#000000" font-family="sans-serif" font-size="13" font-weight="bold" lengthAdjust="spacing" textLength="7" x="259.5" y="264.7256">4</text><text fill="#000000" font-family="sans-serif" font-size="13" lengthAdjust="spacing" textLength="66" x="270.5" y="264.7256">...SignUpUI</text><polygon fill="#181818" points="645.5,297.2793,655.5,301.2793,645.5,305.2793,649.5,301.2793" style="stroke:#181818;stroke-width:1.0;"/><line style="stroke:#181818;stroke-width:1.0;" x1="452.5" x2="651.5" y1="301.2793" y2="301.2793"/><text fill="#000000" font-family="sans-serif" font-size="13" font-weight="bold" lengthAdjust="spacing" textLength="7" x="459.5" y="296.0166">5</text><text fill="#000000" font-family="sans-serif" font-size="13" lengthAdjust="spacing" textLength="175" x="470.5" y="296.0166">passwordGenerator(firstName)</text><polygon fill="#181818" points="463.5,328.5703,453.5,332.5703,463.5,336.5703,459.5,332.5703" style="stroke:#181818;stroke-width:1.0;"/><line style="stroke:#181818;stroke-width:1.0;stroke-dasharray:2.0,2.0;" x1="457.5" x2="661.5" y1="332.5703" y2="332.5703"/><text fill="#000000" font-family="sans-serif" font-size="13" font-weight="bold" lengthAdjust="spacing" textLength="7" x="469.5" y="327.3076">6</text><text fill="#000000" font-family="sans-serif" font-size="13" lengthAdjust="spacing" textLength="99" x="480.5" y="327.3076">returns password</text><polygon fill="#181818" points="786,377.1523,796,381.1523,786,385.1523,790,381.1523" style="stroke:#181818;stroke-width:1.0;"/><line style="stroke:#181818;stroke-width:1.0;" x1="452.5" x2="792" y1="381.1523" y2="381.1523"/><text fill="#000000" font-family="sans-serif" font-size="13" font-weight="bold" lengthAdjust="spacing" textLength="7" x="459.5" y="367.2441">7</text><text fill="#000000" font-family="sans-serif" font-size="13" lengthAdjust="spacing" textLength="245" x="470.5" y="358.5986">signUpBuilder(firstName, lastName, email,</text><text fill="#000000" font-family="sans-serif" font-size="13" lengthAdjust="spacing" textLength="168" x="470.5" y="375.8896">telephoneNumber, password)</text><polygon fill="#181818" points="463.5,408.4434,453.5,412.4434,463.5,416.4434,459.5,412.4434" style="stroke:#181818;stroke-width:1.0;"/><line style="stroke:#181818;stroke-width:1.0;stroke-dasharray:2.0,2.0;" x1="457.5" x2="802" y1="412.4434" y2="412.4434"/><text fill="#000000" font-family="sans-serif" font-size="13" font-weight="bold" lengthAdjust="spacing" textLength="7" x="469.5" y="407.1807">8</text><text fill="#000000" font-family="sans-serif" font-size="13" lengthAdjust="spacing" textLength="125" x="480.5" y="407.1807">returns signedUpUser</text><polygon fill="#181818" points="899,439.7344,909,443.7344,899,447.7344,903,443.7344" style="stroke:#181818;stroke-width:1.0;"/><line style="stroke:#181818;stroke-width:1.0;" x1="452.5" x2="905" y1="443.7344" y2="443.7344"/><text fill="#000000" font-family="sans-serif" font-size="13" font-weight="bold" lengthAdjust="spacing" textLength="7" x="459.5" y="438.4717">9</text><text fill="#000000" font-family="sans-serif" font-size="13" lengthAdjust="spacing" textLength="18" x="470.5" y="438.4717">get</text><polygon fill="#181818" points="463.5,471.0254,453.5,475.0254,463.5,479.0254,459.5,475.0254" style="stroke:#181818;stroke-width:1.0;"/><line style="stroke:#181818;stroke-width:1.0;stroke-dasharray:2.0,2.0;" x1="457.5" x2="915" y1="475.0254" y2="475.0254"/><text fill="#000000" font-family="sans-serif" font-size="13" font-weight="bold" lengthAdjust="spacing" textLength="14" x="469.5" y="469.7627">10</text><text fill="#000000" font-family="sans-serif" font-size="13" lengthAdjust="spacing" textLength="131" x="487.5" y="469.7627">returns userRepository</text><polygon fill="#181818" points="899,502.3164,909,506.3164,899,510.3164,903,506.3164" style="stroke:#181818;stroke-width:1.0;"/><line style="stroke:#181818;stroke-width:1.0;" x1="452.5" x2="905" y1="506.3164" y2="506.3164"/><text fill="#000000" font-family="sans-serif" font-size="13" font-weight="bold" lengthAdjust="spacing" textLength="14" x="459.5" y="501.0537">11</text><text fill="#000000" font-family="sans-serif" font-size="13" lengthAdjust="spacing" textLength="59" x="477.5" y="501.0537">find(email)</text><path d="M773,519.3164 L773,580.3164 L906,580.3164 L906,529.3164 L896,519.3164 L773,519.3164 " fill="#FEFFDD" style="stroke:#181818;stroke-width:0.5;"/><path d="M896,519.3164 L896,529.3164 L906,529.3164 L896,519.3164 " fill="#FEFFDD" style="stroke:#181818;stroke-width:0.5;"/><text fill="#000000" font-family="sans-serif" font-size="13" lengthAdjust="spacing" textLength="81" x="779" y="538.3447">returns false if</text><text fill="#000000" font-family="sans-serif" font-size="13" lengthAdjust="spacing" textLength="108" x="779" y="555.6357">email doesn't exist</text><text fill="#000000" font-family="sans-serif" font-size="13" lengthAdjust="spacing" textLength="79" x="779" y="572.9268">in the system</text><polygon fill="#181818" points="463.5,605.4805,453.5,609.4805,463.5,613.4805,459.5,609.4805" style="stroke:#181818;stroke-width:1.0;"/><line style="stroke:#181818;stroke-width:1.0;stroke-dasharray:2.0,2.0;" x1="457.5" x2="915" y1="609.4805" y2="609.4805"/><text fill="#000000" font-family="sans-serif" font-size="13" font-weight="bold" lengthAdjust="spacing" textLength="14" x="469.5" y="604.2178">12</text><text fill="#000000" font-family="sans-serif" font-size="13" lengthAdjust="spacing" textLength="71" x="487.5" y="604.2178">returns false</text><polygon fill="#181818" points="899,636.7715,909,640.7715,899,644.7715,903,640.7715" style="stroke:#181818;stroke-width:1.0;"/><line style="stroke:#181818;stroke-width:1.0;" x1="452.5" x2="905" y1="640.7715" y2="640.7715"/><text fill="#000000" font-family="sans-serif" font-size="13" font-weight="bold" lengthAdjust="spacing" textLength="14" x="459.5" y="635.5088">13</text><text fill="#000000" font-family="sans-serif" font-size="13" lengthAdjust="spacing" textLength="115" x="477.5" y="635.5088">save(signedUpUser)</text><polygon fill="#181818" points="463.5,668.0625,453.5,672.0625,463.5,676.0625,459.5,672.0625" style="stroke:#181818;stroke-width:1.0;"/><line style="stroke:#181818;stroke-width:1.0;stroke-dasharray:2.0,2.0;" x1="457.5" x2="915" y1="672.0625" y2="672.0625"/><text fill="#000000" font-family="sans-serif" font-size="13" font-weight="bold" lengthAdjust="spacing" textLength="14" x="469.5" y="666.7998">14</text><text fill="#000000" font-family="sans-serif" font-size="13" lengthAdjust="spacing" textLength="148" x="487.5" y="666.7998">user created successfully</text><polygon fill="#181818" points="263.5,699.3535,253.5,703.3535,263.5,707.3535,259.5,703.3535" style="stroke:#181818;stroke-width:1.0;"/><line style="stroke:#181818;stroke-width:1.0;stroke-dasharray:2.0,2.0;" x1="257.5" x2="446.5" y1="703.3535" y2="703.3535"/><text fill="#000000" font-family="sans-serif" font-size="13" font-weight="bold" lengthAdjust="spacing" textLength="14" x="269.5" y="698.0908">15</text><text fill="#000000" font-family="sans-serif" font-size="13" lengthAdjust="spacing" textLength="148" x="287.5" y="698.0908">user created successfully</text><polygon fill="#181818" points="33.5,730.6445,23.5,734.6445,33.5,738.6445,29.5,734.6445" style="stroke:#181818;stroke-width:1.0;"/><line style="stroke:#181818;stroke-width:1.0;" x1="27.5" x2="246.5" y1="734.6445" y2="734.6445"/><text fill="#000000" font-family="sans-serif" font-size="13" font-weight="bold" lengthAdjust="spacing" textLength="14" x="39.5" y="729.3818">16</text><text fill="#000000" font-family="sans-serif" font-size="13" lengthAdjust="spacing" textLength="105" x="57.5" y="729.3818">shows home page</text><!--SRC=[jLKzRzim4DtrAswh3SIUCXc1XtOesY48qdhhGeidcoXD4ZpAQVvzZvHDIJRLVA3HOf9-VFVUtUaasc1DUzYYhofH1-jXGt7jX0-gLawO03_KpcpSvXlStJcFX2Q8eAnPhmkeBzO4RxL6p-WwRowmt-sMRZSFWkZ9UlbWjQgV8tjQ57a_jqhBHBhjLeoI8eYj84oI7z5PKcmW4lcyOLZqfOuYTBWA-36MTrxjzW5iqn_7v-SUeUK3OE484XqQIM0D1Fv3E0VyeuWXokoMwHO34c7QH2vOh7FELY3eDq6mG7ooQ5sLO5dI6LTb0JdR2wQ9T2UAXclJA4y1Z3ZW3MYHbxyC7eJI85X9G8rkRmt2gQoHK-94m6kvpjkZaaXy9p0dlLxk-he5Lh1SBlETyvKBjXxVi_RC0pQEK6mS5dqw-8e6lU2wprAcxZaxyn5d3bqY6eUFJp7SekpKOsYzeQnbH3OemCkHIyR7Ry4gTLFUzswxjkXMgITYS-IMk4yTSPCbJkHc5EiwAMCfBsGZwaJ9vH- -OyMMBCOhfUBYRL_13aFPo1XvxUI2gMIbTzAEoIQy_2lagymqoiXPAjtyVQRIRDFOvD4s8VhydFqrGlCeLGqKKTs0aHR9V0g0VnGFdo9GTPEIdYdWuGencfLlBCMWgvBM3oi1YIFEXeqx_x3sucZfOrDxP4O9rDOr4ZMjrl-fnGR3_Jt1faVqSF1tdodQsoU2lJqWJvWTJdzvBinKVm40]--></g></svg>