<?xml version="1.0" encoding="us-ascii" standalone="no"?><svg xmlns="http://www.w3.org/2000/svg" xmlns:xlink="http://www.w3.org/1999/xlink" contentStyleType="text/css" height="705px" preserveAspectRatio="none" style="width:683px;height:705px;background:#FFFFFF;" version="1.1" viewBox="0 0 683 705" width="683px" zoomAndPan="magnify"><defs/><g><text fill="#000000" font-family="sans-serif" font-size="14" font-weight="bold" lengthAdjust="spacing" textLength="655" x="10" y="25.1074">G007 - Support and apply authentication and authorization for all the users and functionalities</text><!--cluster candidateApp--><g id="cluster_candidateApp"><rect fill="none" height="97" rx="2.5" ry="2.5" style="stroke:#181818;stroke-width:1.0;" width="228" x="315" y="602.6211"/><text fill="#000000" font-family="sans-serif" font-size="14" font-weight="bold" lengthAdjust="spacing" textLength="102" x="378" y="619.7285">Candidate App</text></g><!--cluster customerApp--><g id="cluster_customerApp"><rect fill="none" height="97" rx="2.5" ry="2.5" style="stroke:#181818;stroke-width:1.0;" width="224" x="317" y="481.6211"/><text fill="#000000" font-family="sans-serif" font-size="14" font-weight="bold" lengthAdjust="spacing" textLength="99" x="379.5" y="498.7285">Customer App</text></g><!--cluster backoffice--><g id="cluster_backoffice"><rect fill="none" height="93" rx="2.5" ry="2.5" style="stroke:#181818;stroke-width:1.0;" width="204" x="327" y="198.6211"/><text fill="#000000" font-family="sans-serif" font-size="14" font-weight="bold" lengthAdjust="spacing" textLength="74" x="392" y="215.7285">Backoffice</text></g><g id="elem_Log in to Candidate App"><ellipse cx="428.7971" cy="661.5805" fill="#F1F1F1" rx="97.7971" ry="21.9594" style="stroke:#181818;stroke-width:0.5;"/><text fill="#000000" font-family="sans-serif" font-size="14" lengthAdjust="spacing" textLength="153" x="350.519" y="666.0076">Log in to Candidate App</text></g><g id="elem_Log in to Customer App"><ellipse cx="429.1072" cy="540.7425" fill="#F1F1F1" rx="96.1072" ry="21.6214" style="stroke:#181818;stroke-width:0.5;"/><text fill="#000000" font-family="sans-serif" font-size="14" lengthAdjust="spacing" textLength="149" x="352.2836" y="545.343">Log in to Customer App</text></g><g id="elem_Log in to Backoffice"><ellipse cx="428.9832" cy="255.7177" fill="#F1F1F1" rx="85.9832" ry="19.5966" style="stroke:#181818;stroke-width:0.5;"/><text fill="#000000" font-family="sans-serif" font-size="14" lengthAdjust="spacing" textLength="124" x="363.9832" y="260.5214">Log in to Backoffice</text></g><!--entity CANDIDATE--><g id="elem_CANDIDATE"><ellipse cx="208.5" cy="630.6211" fill="#F1F1F1" rx="8" ry="8" style="stroke:#181818;stroke-width:0.5;"/><path d="M208.5,638.6211 L208.5,665.6211 M195.5,646.6211 L221.5,646.6211 M208.5,665.6211 L195.5,680.6211 M208.5,665.6211 L221.5,680.6211 " fill="none" style="stroke:#181818;stroke-width:0.5;"/><text fill="#000000" font-family="sans-serif" font-size="14" lengthAdjust="spacing" textLength="65" x="176" y="697.2285">Candidate</text></g><!--entity CUSTOMER--><g id="elem_CUSTOMER"><ellipse cx="208.5" cy="509.6211" fill="#F1F1F1" rx="8" ry="8" style="stroke:#181818;stroke-width:0.5;"/><path d="M208.5,517.6211 L208.5,544.6211 M195.5,525.6211 L221.5,525.6211 M208.5,544.6211 L195.5,559.6211 M208.5,544.6211 L221.5,559.6211 " fill="none" style="stroke:#181818;stroke-width:0.5;"/><text fill="#000000" font-family="sans-serif" font-size="14" lengthAdjust="spacing" textLength="61" x="178" y="576.2285">Customer</text></g><!--entity ADMIN--><g id="elem_ADMIN"><ellipse cx="208.5" cy="53.6211" fill="#F1F1F1" rx="8" ry="8" style="stroke:#181818;stroke-width:0.5;"/><path d="M208.5,61.6211 L208.5,88.6211 M195.5,69.6211 L221.5,69.6211 M208.5,88.6211 L195.5,103.6211 M208.5,88.6211 L221.5,103.6211 " fill="none" style="stroke:#181818;stroke-width:0.5;"/><text fill="#000000" font-family="sans-serif" font-size="14" lengthAdjust="spacing" textLength="39" x="189" y="120.2285">Admin</text></g><!--entity OPERATOR--><g id="elem_OPERATOR"><ellipse cx="208.5" cy="167.6211" fill="#F1F1F1" rx="8" ry="8" style="stroke:#181818;stroke-width:0.5;"/><path d="M208.5,175.6211 L208.5,202.6211 M195.5,183.6211 L221.5,183.6211 M208.5,202.6211 L195.5,217.6211 M208.5,202.6211 L221.5,217.6211 " fill="none" style="stroke:#181818;stroke-width:0.5;"/><text fill="#000000" font-family="sans-serif" font-size="14" lengthAdjust="spacing" textLength="57" x="180" y="234.2285">Operator</text></g><!--entity CUSTOMER_MANAGER--><g id="elem_CUSTOMER_MANAGER"><ellipse cx="208.5" cy="281.6211" fill="#F1F1F1" rx="8" ry="8" style="stroke:#181818;stroke-width:0.5;"/><path d="M208.5,289.6211 L208.5,316.6211 M195.5,297.6211 L221.5,297.6211 M208.5,316.6211 L195.5,331.6211 M208.5,316.6211 L221.5,331.6211 " fill="none" style="stroke:#181818;stroke-width:0.5;"/><text fill="#000000" font-family="sans-serif" font-size="14" lengthAdjust="spacing" textLength="121" x="148" y="348.2285">Customer Manager</text></g><!--entity LANGUAGE_ENGINEER--><g id="elem_LANGUAGE_ENGINEER"><ellipse cx="208.5" cy="395.6211" fill="#F1F1F1" rx="8" ry="8" style="stroke:#181818;stroke-width:0.5;"/><path d="M208.5,403.6211 L208.5,430.6211 M195.5,411.6211 L221.5,411.6211 M208.5,430.6211 L195.5,445.6211 M208.5,430.6211 L221.5,445.6211 " fill="none" style="stroke:#181818;stroke-width:0.5;"/><text fill="#000000" font-family="sans-serif" font-size="14" lengthAdjust="spacing" textLength="125" x="146" y="462.2285">Language Engineer</text></g><!--link CANDIDATE to Log in to Candidate App--><g id="link_CANDIDATE_Log in to Candidate App"><path d="M241.27,661.6211 C264.94,661.6211 292.61,661.6211 324.86,661.6211 " fill="none" id="CANDIDATE-to-Log in to Candidate App" style="stroke:#181818;stroke-width:1.0;"/><polygon fill="#181818" points="330.86,661.6211,321.86,657.6211,325.86,661.6211,321.86,665.6211,330.86,661.6211" style="stroke:#181818;stroke-width:1.0;"/></g><!--link CUSTOMER to Log in to Customer App--><g id="link_CUSTOMER_Log in to Customer App"><path d="M239.42,540.6211 C263.62,540.6211 293.07,540.6211 326.73,540.6211 " fill="none" id="CUSTOMER-to-Log in to Customer App" style="stroke:#181818;stroke-width:1.0;"/><polygon fill="#181818" points="332.73,540.6211,323.73,536.6211,327.73,540.6211,323.73,544.6211,332.73,540.6211" style="stroke:#181818;stroke-width:1.0;"/></g><!--link ADMIN to Log in to Backoffice--><g id="link_ADMIN_Log in to Backoffice"><path d="M228.13,99.2011 C267.66,130.1311 355.1649,198.6233 399.1349,233.0333 " fill="none" id="ADMIN-to-Log in to Backoffice" style="stroke:#181818;stroke-width:1.0;"/><polygon fill="#181818" points="403.86,236.7311,399.2375,228.0344,399.9224,233.6496,394.3072,234.3345,403.86,236.7311" style="stroke:#181818;stroke-width:1.0;"/></g><!--link CUSTOMER_MANAGER to Log in to Backoffice--><g id="link_CUSTOMER_MANAGER_Log in to Backoffice"><path d="M269.21,297.0411 C301.17,288.7111 334.5143,280.0058 365.9443,271.8058 " fill="none" id="CUSTOMER_MANAGER-to-Log in to Backoffice" style="stroke:#181818;stroke-width:1.0;"/><polygon fill="#181818" points="371.75,270.2911,362.0317,268.6927,366.9119,271.5533,364.0513,276.4336,371.75,270.2911" style="stroke:#181818;stroke-width:1.0;"/></g><!--link LANGUAGE_ENGINEER to Log in to Backoffice--><g id="link_LANGUAGE_ENGINEER_Log in to Backoffice"><path d="M260.18,386.9611 C305.44,351.5411 365.0152,304.9193 399.3952,278.0093 " fill="none" id="LANGUAGE_ENGINEER-to-Log in to Backoffice" style="stroke:#181818;stroke-width:1.0;"/><polygon fill="#181818" points="404.12,274.3111,394.5674,276.7085,400.1827,277.3929,399.4983,283.0082,404.12,274.3111" style="stroke:#181818;stroke-width:1.0;"/></g><!--link OPERATOR to Log in to Backoffice--><g id="link_OPERATOR_Log in to Backoffice"><path d="M237.17,205.8411 C270.82,214.6211 322.6444,228.1361 365.7944,239.3961 " fill="none" id="OPERATOR-to-Log in to Backoffice" style="stroke:#181818;stroke-width:1.0;"/><polygon fill="#181818" points="371.6,240.9111,363.9016,234.7682,366.762,239.6486,361.8816,242.509,371.6,240.9111" style="stroke:#181818;stroke-width:1.0;"/></g><!--SRC=[XP9DZu8m48Rl_HKJxoRUzhP9Lman4J1-dCqi56oiRLFAmTtuttVu36XMES6yp_HzEuENNWa85uiFcCE-ijOu3wWpG6lL3R3oPw6zJD5Berk1IiR9dxQI6mUe5106LIbSsJ1vfTDQHYMz52LZIkGUl04dYxE7J3hHwAoyI6tHuHKifXSinDxVA4yjeowKO0nJJnQp9HqhC_HY1bZ2aiUhzOeVWa6kIc-kmhNgSNz8ec37XcwUNQLkDBwArd5VJgnmI6-Daco37JyakySZ8K9DmQP7do8Uyp0Ou0sbhOY2G1TIYuxUy3Wy4dOAud0T1tMYuMQZAm6tjk7Jla85-6L03yqqnPBeZIb0wdg6qpxMOCD0O3x_V07VfmdwAmu1ki9h_t5NPz-DvSbzWaxDlsZX9izbsgxqU_ZyttdKqlesstmq7LFZSFtEtl5FMtlNqFyvhxWx-mC0]--></g></svg>