<?xml version="1.0" encoding="us-ascii" standalone="no"?><svg xmlns="http://www.w3.org/2000/svg" xmlns:xlink="http://www.w3.org/1999/xlink" contentStyleType="text/css" height="450px" preserveAspectRatio="none" style="width:477px;height:450px;background:#FFFFFF;" version="1.1" viewBox="0 0 477 450" width="477px" zoomAndPan="magnify"><defs/><g><text fill="#000000" font-family="sans-serif" font-size="14" font-weight="bold" lengthAdjust="spacing" textLength="411" x="34.25" y="30.1074">System Sequence Diagram (SSD) - Customer Sign-Up/Login</text><rect fill="#FFFFFF" height="215.668" style="stroke:#181818;stroke-width:1.0;" width="10" x="48.5" y="133.2422"/><rect fill="#FFFFFF" height="122.7949" style="stroke:#181818;stroke-width:1.0;" width="10" x="423.5" y="156.5332"/><rect fill="#FFFFFF" height="31.291" style="stroke:#181818;stroke-width:1.0;" width="10" x="423.5" y="317.6191"/><rect fill="none" height="115.7949" style="stroke:#000000;stroke-width:1.5;" width="460.5" x="10" y="171.5332"/><line style="stroke:#181818;stroke-width:0.5;stroke-dasharray:5.0,5.0;" x1="53" x2="53" y1="123.2422" y2="366.9102"/><line style="stroke:#181818;stroke-width:0.5;stroke-dasharray:5.0,5.0;" x1="428.5" x2="428.5" y1="123.2422" y2="366.9102"/><text fill="#000000" font-family="sans-serif" font-size="14" lengthAdjust="spacing" textLength="61" x="20" y="119.7285">Customer</text><ellipse cx="53.5" cy="53.1211" fill="#E3E3E3" rx="8" ry="8" style="stroke:#181818;stroke-width:0.5;"/><path d="M53.5,61.1211 L53.5,88.1211 M40.5,69.1211 L66.5,69.1211 M53.5,88.1211 L40.5,103.1211 M53.5,88.1211 L66.5,103.1211 " fill="none" style="stroke:#181818;stroke-width:0.5;"/><text fill="#000000" font-family="sans-serif" font-size="14" lengthAdjust="spacing" textLength="61" x="20" y="381.0176">Customer</text><ellipse cx="53.5" cy="393.0313" fill="#E3E3E3" rx="8" ry="8" style="stroke:#181818;stroke-width:0.5;"/><path d="M53.5,401.0313 L53.5,428.0313 M40.5,409.0313 L66.5,409.0313 M53.5,428.0313 L40.5,443.0313 M53.5,428.0313 L66.5,443.0313 " fill="none" style="stroke:#181818;stroke-width:0.5;"/><rect fill="#E3E3E3" height="32.6211" rx="2.5" ry="2.5" style="stroke:#181818;stroke-width:0.5;" width="64" x="396.5" y="89.6211"/><text fill="#000000" font-family="sans-serif" font-size="14" lengthAdjust="spacing" textLength="50" x="403.5" y="111.7285">:System</text><rect fill="#E3E3E3" height="32.6211" rx="2.5" ry="2.5" style="stroke:#181818;stroke-width:0.5;" width="64" x="396.5" y="365.9102"/><text fill="#000000" font-family="sans-serif" font-size="14" lengthAdjust="spacing" textLength="50" x="403.5" y="388.0176">:System</text><rect fill="#FFFFFF" height="215.668" style="stroke:#181818;stroke-width:1.0;" width="10" x="48.5" y="133.2422"/><rect fill="#FFFFFF" height="122.7949" style="stroke:#181818;stroke-width:1.0;" width="10" x="423.5" y="156.5332"/><rect fill="#FFFFFF" height="31.291" style="stroke:#181818;stroke-width:1.0;" width="10" x="423.5" y="317.6191"/><polygon fill="#181818" points="411.5,152.5332,421.5,156.5332,411.5,160.5332,415.5,156.5332" style="stroke:#181818;stroke-width:1.0;"/><line style="stroke:#181818;stroke-width:1.0;" x1="58.5" x2="417.5" y1="156.5332" y2="156.5332"/><text fill="#000000" font-family="sans-serif" font-size="13" font-weight="bold" lengthAdjust="spacing" textLength="7" x="65.5" y="151.2705">1</text><text fill="#000000" font-family="sans-serif" font-size="13" lengthAdjust="spacing" textLength="207" x="76.5" y="151.2705">asks to sign-up/login as a customer</text><path d="M10,171.5332 L71,171.5332 L71,180.8242 L61,190.8242 L10,190.8242 L10,171.5332 " fill="#EEEEEE" style="stroke:#000000;stroke-width:1.5;"/><rect fill="none" height="115.7949" style="stroke:#000000;stroke-width:1.5;" width="460.5" x="10" y="171.5332"/><text fill="#000000" font-family="sans-serif" font-size="13" font-weight="bold" lengthAdjust="spacing" textLength="16" x="25" y="186.5615">alt</text><text fill="#000000" font-family="sans-serif" font-size="11" font-weight="bold" lengthAdjust="spacing" textLength="152" x="86" y="185.4033">[Sign-Up option is selected]</text><polygon fill="#181818" points="69.5,227.4063,59.5,231.4063,69.5,235.4063,65.5,231.4063" style="stroke:#181818;stroke-width:1.0;"/><line style="stroke:#181818;stroke-width:1.0;stroke-dasharray:2.0,2.0;" x1="63.5" x2="422.5" y1="231.4063" y2="231.4063"/><text fill="#000000" font-family="sans-serif" font-size="13" font-weight="bold" lengthAdjust="spacing" textLength="7" x="75.5" y="217.498">2</text><text fill="#000000" font-family="sans-serif" font-size="13" lengthAdjust="spacing" textLength="330" x="86.5" y="208.8525">requests account opening details (FirstName, LastName,</text><text fill="#000000" font-family="sans-serif" font-size="13" lengthAdjust="spacing" textLength="192" x="90.5" y="226.1436">Password, Email, PhoneNumber)</text><line style="stroke:#000000;stroke-width:1.0;stroke-dasharray:2.0,2.0;" x1="10" x2="470.5" y1="240.4063" y2="240.4063"/><text fill="#000000" font-family="sans-serif" font-size="11" font-weight="bold" lengthAdjust="spacing" textLength="141" x="15" y="252.2764">[Login option is selected]</text><polygon fill="#181818" points="69.5,275.3281,59.5,279.3281,69.5,283.3281,65.5,279.3281" style="stroke:#181818;stroke-width:1.0;"/><line style="stroke:#181818;stroke-width:1.0;stroke-dasharray:2.0,2.0;" x1="63.5" x2="427.5" y1="279.3281" y2="279.3281"/><text fill="#000000" font-family="sans-serif" font-size="13" font-weight="bold" lengthAdjust="spacing" textLength="7" x="75.5" y="274.0654">3</text><text fill="#000000" font-family="sans-serif" font-size="13" lengthAdjust="spacing" textLength="283" x="86.5" y="274.0654">requests account login details (Email, Password)</text><polygon fill="#181818" points="411.5,313.6191,421.5,317.6191,411.5,321.6191,415.5,317.6191" style="stroke:#181818;stroke-width:1.0;"/><line style="stroke:#181818;stroke-width:1.0;" x1="58.5" x2="417.5" y1="317.6191" y2="317.6191"/><text fill="#000000" font-family="sans-serif" font-size="13" font-weight="bold" lengthAdjust="spacing" textLength="7" x="65.5" y="312.3564">4</text><text fill="#000000" font-family="sans-serif" font-size="13" lengthAdjust="spacing" textLength="142" x="76.5" y="312.3564">inserts requested details</text><polygon fill="#181818" points="64.5,344.9102,54.5,348.9102,64.5,352.9102,60.5,348.9102" style="stroke:#181818;stroke-width:1.0;"/><line style="stroke:#181818;stroke-width:1.0;stroke-dasharray:2.0,2.0;" x1="58.5" x2="427.5" y1="348.9102" y2="348.9102"/><text fill="#000000" font-family="sans-serif" font-size="13" font-weight="bold" lengthAdjust="spacing" textLength="7" x="70.5" y="343.6475">5</text><text fill="#000000" font-family="sans-serif" font-size="13" lengthAdjust="spacing" textLength="158" x="81.5" y="343.6475">displays operation success</text><!--SRC=[ZP8nRy8m48Nt_8eJ4qX4x0nTW4ujHKtPkbpjQx1mxDHtBkBVrp59YYg1wkdilFFtxiLyDAx5W0qqtdbr2BuXa12fuF5BY-g8DLLojWI1bA2hxRM03wZzoRWQFj4o5OKOITBgp48DLFGLoIc2jS6waq-hQZs34bQH9U42LAPsvRvTFFdQkAB0ADx5veD2gfNu09D1EW5aMEshjvVdpMkHw6AKQT49J9ONN5PSojnjlb7ejwM0j8OTb0-3oMLgEpA81-xCn7PXEpFTPGYgf-VcySu1aW-j35E0RyLu1uQ1oQQqI6T9MZshJDZHmZ8bcl9XII2bV4oZ-9PS5wOcGMCPfeyci6oneJayOL-zEzWXyya7FOTDauHps1syesrERdRnHUbtG8xrZgt_-heaCheQeBsBdgZfRq3PXzDteZUEAIHGJoGzG6u7VjksDjnQF7CNOy0yCqUbYFc6l-BgQ7mdFm00]--></g></svg>