<?xml version="1.0" encoding="us-ascii" standalone="no"?><svg xmlns="http://www.w3.org/2000/svg" xmlns:xlink="http://www.w3.org/1999/xlink" contentStyleType="text/css" height="820px" preserveAspectRatio="none" style="width:1204px;height:820px;background:#FFFFFF;" version="1.1" viewBox="0 0 1204 820" width="1204px" zoomAndPan="magnify"><defs/><g><rect fill="#FFFFFF" height="604.5293" style="stroke:#181818;stroke-width:1.0;" width="10" x="17.5" y="98.2422"/><rect fill="#FFFFFF" height="31.291" style="stroke:#181818;stroke-width:1.0;" width="10" x="227.5" y="158.8242"/><rect fill="#FFFFFF" height="481.3652" style="stroke:#181818;stroke-width:1.0;" width="10" x="227.5" y="221.4063"/><rect fill="#FFFFFF" height="418.7832" style="stroke:#181818;stroke-width:1.0;" width="10" x="476.5" y="252.6973"/><rect fill="#FFFFFF" height="356.2012" style="stroke:#181818;stroke-width:1.0;" width="10" x="718.5" y="283.9883"/><rect fill="#FFFFFF" height="31.291" style="stroke:#181818;stroke-width:1.0;" width="10" x="884.5" y="315.2793"/><rect fill="#FFFFFF" height="68.582" style="stroke:#181818;stroke-width:1.0;" width="10" x="1025.5" y="540.3164"/><rect fill="#FFFFFF" height="31.291" style="stroke:#181818;stroke-width:1.0;" width="10" x="1146.5" y="377.8613"/><rect fill="#FFFFFF" height="68.582" style="stroke:#181818;stroke-width:1.0;" width="10" x="1146.5" y="440.4434"/><line style="stroke:#181818;stroke-width:0.5;stroke-dasharray:5.0,5.0;" x1="22" x2="22" y1="88.2422" y2="720.7715"/><line style="stroke:#181818;stroke-width:0.5;stroke-dasharray:5.0,5.0;" x1="232" x2="232" y1="88.2422" y2="720.7715"/><line style="stroke:#181818;stroke-width:0.5;stroke-dasharray:5.0,5.0;" x1="481.5" x2="481.5" y1="88.2422" y2="720.7715"/><line style="stroke:#181818;stroke-width:0.5;stroke-dasharray:5.0,5.0;" x1="723" x2="723" y1="88.2422" y2="720.7715"/><line style="stroke:#181818;stroke-width:0.5;stroke-dasharray:5.0,5.0;" x1="889" x2="889" y1="88.2422" y2="720.7715"/><line style="stroke:#181818;stroke-width:0.5;stroke-dasharray:5.0,5.0;" x1="1030" x2="1030" y1="88.2422" y2="720.7715"/><line style="stroke:#181818;stroke-width:0.5;stroke-dasharray:5.0,5.0;" x1="1151" x2="1151" y1="88.2422" y2="720.7715"/><text fill="#000000" font-family="sans-serif" font-size="14" lengthAdjust="spacing" textLength="29" x="5" y="84.7285">User</text><ellipse cx="22.5" cy="18.1211" fill="#E2E2F0" rx="8" ry="8" style="stroke:#181818;stroke-width:0.5;"/><path d="M22.5,26.1211 L22.5,53.1211 M9.5,34.1211 L35.5,34.1211 M22.5,53.1211 L9.5,68.1211 M22.5,53.1211 L35.5,68.1211 " fill="none" style="stroke:#181818;stroke-width:0.5;"/><text fill="#000000" font-family="sans-serif" font-size="14" lengthAdjust="spacing" textLength="29" x="5" y="734.8789">User</text><ellipse cx="22.5" cy="746.8926" fill="#E2E2F0" rx="8" ry="8" style="stroke:#181818;stroke-width:0.5;"/><path d="M22.5,754.8926 L22.5,781.8926 M9.5,762.8926 L35.5,762.8926 M22.5,781.8926 L9.5,796.8926 M22.5,781.8926 L35.5,796.8926 " fill="none" style="stroke:#181818;stroke-width:0.5;"/><rect fill="#E2E2F0" height="51.2422" rx="2.5" ry="2.5" style="stroke:#181818;stroke-width:0.5;" width="109" x="178" y="36"/><text fill="#000000" font-family="sans-serif" font-size="14" font-style="italic" lengthAdjust="spacing" textLength="95" x="185" y="58.1074">&#171;presentation&#187;</text><text fill="#000000" font-family="sans-serif" font-size="14" lengthAdjust="spacing" textLength="47" x="209" y="76.7285">LoginUI</text><rect fill="#E2E2F0" height="51.2422" rx="2.5" ry="2.5" style="stroke:#181818;stroke-width:0.5;" width="109" x="178" y="719.7715"/><text fill="#000000" font-family="sans-serif" font-size="14" font-style="italic" lengthAdjust="spacing" textLength="95" x="185" y="741.8789">&#171;presentation&#187;</text><text fill="#000000" font-family="sans-serif" font-size="14" lengthAdjust="spacing" textLength="47" x="209" y="760.5">LoginUI</text><rect fill="#E2E2F0" height="51.2422" rx="2.5" ry="2.5" style="stroke:#181818;stroke-width:0.5;" width="218" x="372.5" y="36"/><text fill="#000000" font-family="sans-serif" font-size="14" font-style="italic" lengthAdjust="spacing" textLength="105" x="429" y="58.1074">&#171;authentication&#187;</text><text fill="#000000" font-family="sans-serif" font-size="14" lengthAdjust="spacing" textLength="204" x="379.5" y="76.7285">AuthenticationCredentialHandler</text><rect fill="#E2E2F0" height="51.2422" rx="2.5" ry="2.5" style="stroke:#181818;stroke-width:0.5;" width="218" x="372.5" y="719.7715"/><text fill="#000000" font-family="sans-serif" font-size="14" font-style="italic" lengthAdjust="spacing" textLength="105" x="429" y="741.8789">&#171;authentication&#187;</text><text fill="#000000" font-family="sans-serif" font-size="14" lengthAdjust="spacing" textLength="204" x="379.5" y="760.5">AuthenticationCredentialHandler</text><rect fill="#E2E2F0" height="51.2422" rx="2.5" ry="2.5" style="stroke:#181818;stroke-width:0.5;" width="119" x="664" y="36"/><text fill="#000000" font-family="sans-serif" font-size="14" font-style="italic" lengthAdjust="spacing" textLength="105" x="671" y="58.1074">&#171;authentication&#187;</text><text fill="#000000" font-family="sans-serif" font-size="14" lengthAdjust="spacing" textLength="87" x="680" y="76.7285">AuthzRegistry</text><rect fill="#E2E2F0" height="51.2422" rx="2.5" ry="2.5" style="stroke:#181818;stroke-width:0.5;" width="119" x="664" y="719.7715"/><text fill="#000000" font-family="sans-serif" font-size="14" font-style="italic" lengthAdjust="spacing" textLength="105" x="671" y="741.8789">&#171;authentication&#187;</text><text fill="#000000" font-family="sans-serif" font-size="14" lengthAdjust="spacing" textLength="87" x="680" y="760.5">AuthzRegistry</text><rect fill="#E2E2F0" height="51.2422" rx="2.5" ry="2.5" style="stroke:#181818;stroke-width:0.5;" width="143" x="818" y="36"/><text fill="#000000" font-family="sans-serif" font-size="14" font-style="italic" lengthAdjust="spacing" textLength="105" x="837" y="58.1074">&#171;authentication&#187;</text><text fill="#000000" font-family="sans-serif" font-size="14" lengthAdjust="spacing" textLength="129" x="825" y="76.7285">AuthorizationService</text><rect fill="#E2E2F0" height="51.2422" rx="2.5" ry="2.5" style="stroke:#181818;stroke-width:0.5;" width="143" x="818" y="719.7715"/><text fill="#000000" font-family="sans-serif" font-size="14" font-style="italic" lengthAdjust="spacing" textLength="105" x="837" y="741.8789">&#171;authentication&#187;</text><text fill="#000000" font-family="sans-serif" font-size="14" lengthAdjust="spacing" textLength="129" x="825" y="760.5">AuthorizationService</text><rect fill="#E2E2F0" height="51.2422" rx="2.5" ry="2.5" style="stroke:#181818;stroke-width:0.5;" width="119" x="971" y="36"/><text fill="#000000" font-family="sans-serif" font-size="14" font-style="italic" lengthAdjust="spacing" textLength="105" x="978" y="58.1074">&#171;authentication&#187;</text><text fill="#000000" font-family="sans-serif" font-size="14" lengthAdjust="spacing" textLength="84" x="988.5" y="76.7285">Authenticator</text><rect fill="#E2E2F0" height="51.2422" rx="2.5" ry="2.5" style="stroke:#181818;stroke-width:0.5;" width="119" x="971" y="719.7715"/><text fill="#000000" font-family="sans-serif" font-size="14" font-style="italic" lengthAdjust="spacing" textLength="105" x="978" y="741.8789">&#171;authentication&#187;</text><text fill="#000000" font-family="sans-serif" font-size="14" lengthAdjust="spacing" textLength="84" x="988.5" y="760.5">Authenticator</text><text fill="#000000" font-family="sans-serif" font-size="14" font-style="italic" lengthAdjust="spacing" textLength="79" x="1109" y="66.1074">&#171;repository&#187;</text><text fill="#000000" font-family="sans-serif" font-size="14" lengthAdjust="spacing" textLength="97" x="1100" y="84.7285">UserRepository</text><path d="M1133.5,15 C1133.5,5 1151.5,5 1151.5,5 C1151.5,5 1169.5,5 1169.5,15 L1169.5,41 C1169.5,51 1151.5,51 1151.5,51 C1151.5,51 1133.5,51 1133.5,41 L1133.5,15 " fill="#E2E2F0" style="stroke:#181818;stroke-width:1.5;"/><path d="M1133.5,15 C1133.5,25 1151.5,25 1151.5,25 C1151.5,25 1169.5,25 1169.5,15 " fill="none" style="stroke:#181818;stroke-width:1.5;"/><text fill="#000000" font-family="sans-serif" font-size="14" font-style="italic" lengthAdjust="spacing" textLength="79" x="1109" y="734.8789">&#171;repository&#187;</text><text fill="#000000" font-family="sans-serif" font-size="14" lengthAdjust="spacing" textLength="97" x="1100" y="753.5">UserRepository</text><path d="M1133.5,767.0137 C1133.5,757.0137 1151.5,757.0137 1151.5,757.0137 C1151.5,757.0137 1169.5,757.0137 1169.5,767.0137 L1169.5,793.0137 C1169.5,803.0137 1151.5,803.0137 1151.5,803.0137 C1151.5,803.0137 1133.5,803.0137 1133.5,793.0137 L1133.5,767.0137 " fill="#E2E2F0" style="stroke:#181818;stroke-width:1.5;"/><path d="M1133.5,767.0137 C1133.5,777.0137 1151.5,777.0137 1151.5,777.0137 C1151.5,777.0137 1169.5,777.0137 1169.5,767.0137 " fill="none" style="stroke:#181818;stroke-width:1.5;"/><rect fill="#FFFFFF" height="604.5293" style="stroke:#181818;stroke-width:1.0;" width="10" x="17.5" y="98.2422"/><rect fill="#FFFFFF" height="31.291" style="stroke:#181818;stroke-width:1.0;" width="10" x="227.5" y="158.8242"/><rect fill="#FFFFFF" height="481.3652" style="stroke:#181818;stroke-width:1.0;" width="10" x="227.5" y="221.4063"/><rect fill="#FFFFFF" height="418.7832" style="stroke:#181818;stroke-width:1.0;" width="10" x="476.5" y="252.6973"/><rect fill="#FFFFFF" height="356.2012" style="stroke:#181818;stroke-width:1.0;" width="10" x="718.5" y="283.9883"/><rect fill="#FFFFFF" height="31.291" style="stroke:#181818;stroke-width:1.0;" width="10" x="884.5" y="315.2793"/><rect fill="#FFFFFF" height="68.582" style="stroke:#181818;stroke-width:1.0;" width="10" x="1025.5" y="540.3164"/><rect fill="#FFFFFF" height="31.291" style="stroke:#181818;stroke-width:1.0;" width="10" x="1146.5" y="377.8613"/><rect fill="#FFFFFF" height="68.582" style="stroke:#181818;stroke-width:1.0;" width="10" x="1146.5" y="440.4434"/><path d="M32,103.2422 L32,130.2422 L317,130.2422 L317,113.2422 L307,103.2422 L32,103.2422 " fill="#FEFFDD" style="stroke:#181818;stroke-width:0.5;"/><path d="M307,103.2422 L307,113.2422 L317,113.2422 L307,103.2422 " fill="#FEFFDD" style="stroke:#181818;stroke-width:0.5;"/><text fill="#000000" font-family="sans-serif" font-size="13" lengthAdjust="spacing" textLength="264" x="38" y="122.2705">The user role depends on the app he is using.</text><polygon fill="#181818" points="215.5,154.8242,225.5,158.8242,215.5,162.8242,219.5,158.8242" style="stroke:#181818;stroke-width:1.0;"/><line style="stroke:#181818;stroke-width:1.0;" x1="27.5" x2="221.5" y1="158.8242" y2="158.8242"/><text fill="#000000" font-family="sans-serif" font-size="13" font-weight="bold" lengthAdjust="spacing" textLength="7" x="34.5" y="153.5615">1</text><text fill="#000000" font-family="sans-serif" font-size="13" lengthAdjust="spacing" textLength="74" x="45.5" y="153.5615">asks to login</text><polygon fill="#181818" points="38.5,186.1152,28.5,190.1152,38.5,194.1152,34.5,190.1152" style="stroke:#181818;stroke-width:1.0;"/><line style="stroke:#181818;stroke-width:1.0;stroke-dasharray:2.0,2.0;" x1="32.5" x2="231.5" y1="190.1152" y2="190.1152"/><text fill="#000000" font-family="sans-serif" font-size="13" font-weight="bold" lengthAdjust="spacing" textLength="7" x="44.5" y="184.8525">2</text><text fill="#000000" font-family="sans-serif" font-size="13" lengthAdjust="spacing" textLength="165" x="55.5" y="184.8525">asks for email and password</text><polygon fill="#181818" points="215.5,217.4063,225.5,221.4063,215.5,225.4063,219.5,221.4063" style="stroke:#181818;stroke-width:1.0;"/><line style="stroke:#181818;stroke-width:1.0;" x1="27.5" x2="221.5" y1="221.4063" y2="221.4063"/><text fill="#000000" font-family="sans-serif" font-size="13" font-weight="bold" lengthAdjust="spacing" textLength="7" x="34.5" y="216.1436">3</text><text fill="#000000" font-family="sans-serif" font-size="13" lengthAdjust="spacing" textLength="89" x="45.5" y="216.1436">provides details</text><polygon fill="#181818" points="464.5,248.6973,474.5,252.6973,464.5,256.6973,468.5,252.6973" style="stroke:#181818;stroke-width:1.0;"/><line style="stroke:#181818;stroke-width:1.0;" x1="237.5" x2="470.5" y1="252.6973" y2="252.6973"/><text fill="#000000" font-family="sans-serif" font-size="13" font-weight="bold" lengthAdjust="spacing" textLength="7" x="244.5" y="247.4346">4</text><text fill="#000000" font-family="sans-serif" font-size="13" lengthAdjust="spacing" textLength="209" x="255.5" y="247.4346">authenticated(email, password, role)</text><polygon fill="#181818" points="706.5,279.9883,716.5,283.9883,706.5,287.9883,710.5,283.9883" style="stroke:#181818;stroke-width:1.0;"/><line style="stroke:#181818;stroke-width:1.0;" x1="486.5" x2="712.5" y1="283.9883" y2="283.9883"/><text fill="#000000" font-family="sans-serif" font-size="13" font-weight="bold" lengthAdjust="spacing" textLength="7" x="493.5" y="278.7256">5</text><text fill="#000000" font-family="sans-serif" font-size="13" lengthAdjust="spacing" textLength="202" x="504.5" y="278.7256">authenticate(email, password, role)</text><polygon fill="#181818" points="872.5,311.2793,882.5,315.2793,872.5,319.2793,876.5,315.2793" style="stroke:#181818;stroke-width:1.0;"/><line style="stroke:#181818;stroke-width:1.0;" x1="728.5" x2="878.5" y1="315.2793" y2="315.2793"/><text fill="#000000" font-family="sans-serif" font-size="13" font-weight="bold" lengthAdjust="spacing" textLength="7" x="735.5" y="310.0166">6</text><text fill="#000000" font-family="sans-serif" font-size="13" lengthAdjust="spacing" textLength="126" x="746.5" y="310.0166">AuthorizationService()</text><polygon fill="#181818" points="739.5,342.5703,729.5,346.5703,739.5,350.5703,735.5,346.5703" style="stroke:#181818;stroke-width:1.0;"/><line style="stroke:#181818;stroke-width:1.0;stroke-dasharray:2.0,2.0;" x1="733.5" x2="888.5" y1="346.5703" y2="346.5703"/><text fill="#000000" font-family="sans-serif" font-size="13" font-weight="bold" lengthAdjust="spacing" textLength="7" x="745.5" y="341.3076">7</text><text fill="#000000" font-family="sans-serif" font-size="13" lengthAdjust="spacing" textLength="93" x="756.5" y="341.3076">returns instance</text><polygon fill="#181818" points="1134.5,373.8613,1144.5,377.8613,1134.5,381.8613,1138.5,377.8613" style="stroke:#181818;stroke-width:1.0;"/><line style="stroke:#181818;stroke-width:1.0;" x1="728.5" x2="1140.5" y1="377.8613" y2="377.8613"/><text fill="#000000" font-family="sans-serif" font-size="13" font-weight="bold" lengthAdjust="spacing" textLength="7" x="735.5" y="372.5986">8</text><text fill="#000000" font-family="sans-serif" font-size="13" lengthAdjust="spacing" textLength="18" x="746.5" y="372.5986">get</text><polygon fill="#181818" points="739.5,405.1523,729.5,409.1523,739.5,413.1523,735.5,409.1523" style="stroke:#181818;stroke-width:1.0;"/><line style="stroke:#181818;stroke-width:1.0;stroke-dasharray:2.0,2.0;" x1="733.5" x2="1150.5" y1="409.1523" y2="409.1523"/><text fill="#000000" font-family="sans-serif" font-size="13" font-weight="bold" lengthAdjust="spacing" textLength="7" x="745.5" y="403.8896">9</text><text fill="#000000" font-family="sans-serif" font-size="13" lengthAdjust="spacing" textLength="131" x="756.5" y="403.8896">returns userRepository</text><polygon fill="#181818" points="1134.5,436.4434,1144.5,440.4434,1134.5,444.4434,1138.5,440.4434" style="stroke:#181818;stroke-width:1.0;"/><line style="stroke:#181818;stroke-width:1.0;" x1="728.5" x2="1140.5" y1="440.4434" y2="440.4434"/><text fill="#000000" font-family="sans-serif" font-size="13" font-weight="bold" lengthAdjust="spacing" textLength="14" x="735.5" y="435.1807">10</text><text fill="#000000" font-family="sans-serif" font-size="13" lengthAdjust="spacing" textLength="117" x="753.5" y="435.1807">findByIdentity(email)</text><path d="M733,453.4434 L733,480.4434 L927,480.4434 L927,463.4434 L917,453.4434 L733,453.4434 " fill="#FEFFDD" style="stroke:#181818;stroke-width:0.5;"/><path d="M917,453.4434 L917,463.4434 L927,463.4434 L917,453.4434 " fill="#FEFFDD" style="stroke:#181818;stroke-width:0.5;"/><text fill="#000000" font-family="sans-serif" font-size="13" lengthAdjust="spacing" textLength="173" x="739" y="472.4717">Will return true if user is found</text><polygon fill="#181818" points="739.5,505.0254,729.5,509.0254,739.5,513.0254,735.5,509.0254" style="stroke:#181818;stroke-width:1.0;"/><line style="stroke:#181818;stroke-width:1.0;stroke-dasharray:2.0,2.0;" x1="733.5" x2="1150.5" y1="509.0254" y2="509.0254"/><text fill="#000000" font-family="sans-serif" font-size="13" font-weight="bold" lengthAdjust="spacing" textLength="14" x="745.5" y="503.7627">11</text><text fill="#000000" font-family="sans-serif" font-size="13" lengthAdjust="spacing" textLength="66" x="763.5" y="503.7627">returns true</text><polygon fill="#181818" points="1013.5,536.3164,1023.5,540.3164,1013.5,544.3164,1017.5,540.3164" style="stroke:#181818;stroke-width:1.0;"/><line style="stroke:#181818;stroke-width:1.0;" x1="728.5" x2="1019.5" y1="540.3164" y2="540.3164"/><text fill="#000000" font-family="sans-serif" font-size="13" font-weight="bold" lengthAdjust="spacing" textLength="14" x="735.5" y="535.0537">12</text><text fill="#000000" font-family="sans-serif" font-size="13" lengthAdjust="spacing" textLength="202" x="753.5" y="535.0537">authenticate(email, password, role)</text><path d="M733,553.3164 L733,580.3164 L986,580.3164 L986,563.3164 L976,553.3164 L733,553.3164 " fill="#FEFFDD" style="stroke:#181818;stroke-width:0.5;"/><path d="M976,553.3164 L976,563.3164 L986,563.3164 L976,553.3164 " fill="#FEFFDD" style="stroke:#181818;stroke-width:0.5;"/><text fill="#000000" font-family="sans-serif" font-size="13" lengthAdjust="spacing" textLength="232" x="739" y="572.3447">Will return true if user details are correct</text><polygon fill="#181818" points="739.5,604.8984,729.5,608.8984,739.5,612.8984,735.5,608.8984" style="stroke:#181818;stroke-width:1.0;"/><line style="stroke:#181818;stroke-width:1.0;stroke-dasharray:2.0,2.0;" x1="733.5" x2="1029.5" y1="608.8984" y2="608.8984"/><text fill="#000000" font-family="sans-serif" font-size="13" font-weight="bold" lengthAdjust="spacing" textLength="14" x="745.5" y="603.6357">13</text><text fill="#000000" font-family="sans-serif" font-size="13" lengthAdjust="spacing" textLength="66" x="763.5" y="603.6357">returns true</text><polygon fill="#181818" points="497.5,636.1895,487.5,640.1895,497.5,644.1895,493.5,640.1895" style="stroke:#181818;stroke-width:1.0;"/><line style="stroke:#181818;stroke-width:1.0;stroke-dasharray:2.0,2.0;" x1="491.5" x2="722.5" y1="640.1895" y2="640.1895"/><text fill="#000000" font-family="sans-serif" font-size="13" font-weight="bold" lengthAdjust="spacing" textLength="14" x="503.5" y="634.9268">14</text><text fill="#000000" font-family="sans-serif" font-size="13" lengthAdjust="spacing" textLength="66" x="521.5" y="634.9268">returns true</text><polygon fill="#181818" points="248.5,667.4805,238.5,671.4805,248.5,675.4805,244.5,671.4805" style="stroke:#181818;stroke-width:1.0;"/><line style="stroke:#181818;stroke-width:1.0;stroke-dasharray:2.0,2.0;" x1="242.5" x2="480.5" y1="671.4805" y2="671.4805"/><text fill="#000000" font-family="sans-serif" font-size="13" font-weight="bold" lengthAdjust="spacing" textLength="14" x="254.5" y="666.2178">15</text><text fill="#000000" font-family="sans-serif" font-size="13" lengthAdjust="spacing" textLength="66" x="272.5" y="666.2178">returns true</text><polygon fill="#181818" points="33.5,698.7715,23.5,702.7715,33.5,706.7715,29.5,702.7715" style="stroke:#181818;stroke-width:1.0;"/><line style="stroke:#181818;stroke-width:1.0;" x1="27.5" x2="231.5" y1="702.7715" y2="702.7715"/><text fill="#000000" font-family="sans-serif" font-size="13" font-weight="bold" lengthAdjust="spacing" textLength="14" x="39.5" y="697.5088">16</text><text fill="#000000" font-family="sans-serif" font-size="13" lengthAdjust="spacing" textLength="105" x="57.5" y="697.5088">shows home page</text><!--SRC=[lLNDRjim3BxxANXiWMOF41G1jbrMOAUkHS-gnTZ274cWw1JfqqzI72Uo5TjOk_cII28_VlmNBHlTxbwHYaAKR0YUNVXl1R4gbHMQuQUfb7v-WFjxI-XGis1bz6QJ27rjkVPFgeoFtmbbE8dcXz2oGVBA8f78gBy_OgKSqs69i27r7jz-8UrLYKjqkaUJPIC5YrVXC0RW4Qrnoai6BjGVl5Y8ajeBFieLu3zj_8bKLJEOxVawV4yrGkilW4o38D6YbWwC1cySXBNWVvJp8afNNwAM5uY0yH2mOBKvPM0Dmlrsm0QQS554cPvF9rJqnazvMtc4WDIfRxt_k1Eg0PyQiCAvDqCoQadCeuruM39x9T5v3VP8ReP9mcOpLokUvra0vKqaUzSplOl1l4t0UzCpq2cbyCtLRKUthysKt19k8tuzrfZDYT6v5Jhxmt9VPszlRhE8YVMXJfx4YSYepLRZW11oIzg1qew5BZ4BU55QorcCGf7svXegv6cFKuNhlWwQViBBDaMSyNM9_LaljqhBRuU7M9byEDPSFjFfA4gBxPhhBwffEk-0gVK3QNkSMIhCYbRBh6Oof_vZ-0F3VnBqP47yNPT_UWQwwGg244f3X2L_81c9XzDjVzwK7qp50fk3J2pP3vCC1jOdfktixBzSULTjvhsTtpuN2_6udLrjtXpKPeU-qYgykf47bLxy0G00]--></g></svg>