<?xml version="1.0" encoding="us-ascii" standalone="no"?><svg xmlns="http://www.w3.org/2000/svg" xmlns:xlink="http://www.w3.org/1999/xlink" contentStyleType="text/css" height="670px" preserveAspectRatio="none" style="width:1507px;height:670px;background:#FFFFFF;" version="1.1" viewBox="0 0 1507 670" width="1507px" zoomAndPan="magnify"><defs/><g><text fill="#000000" font-family="sans-serif" font-size="14" font-weight="bold" lengthAdjust="spacing" textLength="143" x="675" y="25.1074">Login Domain Model</text><!--cluster Customer Aggregate--><g id="cluster_Customer Aggregate"><rect fill="none" height="123" rx="2.5" ry="2.5" style="stroke:#000000;stroke-width:1.5;" width="371" x="717" y="387.6211"/><text fill="#000000" font-family="sans-serif" font-size="14" font-weight="bold" lengthAdjust="spacing" textLength="145" x="830" y="404.7285">Customer Aggregate</text></g><!--cluster Candidate Aggregate--><g id="cluster_Candidate Aggregate"><rect fill="none" height="123" rx="2.5" ry="2.5" style="stroke:#000000;stroke-width:1.5;" width="323" x="949" y="46.6211"/><text fill="#000000" font-family="sans-serif" font-size="14" font-weight="bold" lengthAdjust="spacing" textLength="148" x="1036.5" y="63.7285">Candidate Aggregate</text></g><!--cluster User Aggregate--><g id="cluster_User Aggregate"><rect fill="none" height="331" rx="2.5" ry="2.5" style="stroke:#000000;stroke-width:1.5;" width="355" x="1146" y="315.6211"/><text fill="#000000" font-family="sans-serif" font-size="14" font-weight="bold" lengthAdjust="spacing" textLength="110" x="1268.5" y="332.7285">User Aggregate</text></g><!--cluster Language Engineer Aggregate--><g id="cluster_Language Engineer Aggregate"><rect fill="none" height="123" rx="2.5" ry="2.5" style="stroke:#000000;stroke-width:1.5;" width="230" x="665" y="240.6211"/><text fill="#000000" font-family="sans-serif" font-size="14" font-weight="bold" lengthAdjust="spacing" textLength="214" x="673" y="257.7285">Language Engineer Aggregate</text></g><!--cluster Admin Aggregate--><g id="cluster_Admin Aggregate"><rect fill="none" height="123" rx="2.5" ry="2.5" style="stroke:#000000;stroke-width:1.5;" width="136" x="7" y="493.6211"/><text fill="#000000" font-family="sans-serif" font-size="14" font-weight="bold" lengthAdjust="spacing" textLength="120" x="15" y="510.7285">Admin Aggregate</text></g><!--cluster Customer Manager Aggregate--><g id="cluster_Customer Manager Aggregate"><rect fill="none" height="123" rx="2.5" ry="2.5" style="stroke:#000000;stroke-width:1.5;" width="227" x="292" y="493.6211"/><text fill="#000000" font-family="sans-serif" font-size="14" font-weight="bold" lengthAdjust="spacing" textLength="211" x="300" y="510.7285">Customer Manager Aggregate</text></g><!--cluster Operator Aggregate--><g id="cluster_Operator Aggregate"><rect fill="none" height="123" rx="2.5" ry="2.5" style="stroke:#000000;stroke-width:1.5;" width="156" x="936" y="193.6211"/><text fill="#000000" font-family="sans-serif" font-size="14" font-weight="bold" lengthAdjust="spacing" textLength="140" x="944" y="210.7285">Operator Aggregate</text></g><!--class Customer--><g id="elem_Customer"><rect codeLine="25" fill="#F0FFFF" height="68.543" id="Customer" rx="2.5" ry="2.5" style="stroke:#000000;stroke-width:0.5;" width="93" x="733" y="425.1211"/><ellipse cx="748" cy="455.3926" fill="#ADD1B2" rx="11" ry="11" style="stroke:#181818;stroke-width:1.0;"/><path d="M746.8594,456.1895 L746.8594,458.6895 L751.1875,458.6895 L751.1875,457.7676 Q751.1875,457.1582 751.4219,456.8926 Q751.6719,456.627 752.0469,456.627 Q752.4219,456.627 752.6563,456.8926 Q752.8906,457.1582 752.8906,457.7676 L752.8906,460.3926 L744.8906,460.3926 Q744.2656,460.3926 744,460.1582 Q743.75,459.9238 743.75,459.5332 Q743.75,459.1582 744.0156,458.9238 Q744.2813,458.6895 744.8906,458.6895 L745.1563,458.6895 L745.1563,452.0332 L744.8906,452.0332 Q744.2656,452.0332 744,451.7988 Q743.75,451.5645 743.75,451.1738 Q743.75,450.7988 744,450.5645 Q744.2656,450.3301 744.8906,450.3301 L752.5156,450.3301 L752.5156,452.9238 Q752.5156,453.5332 752.2813,453.7988 Q752.0625,454.0488 751.6719,454.0488 Q751.2969,454.0488 751.0625,453.7988 Q750.8281,453.5332 750.8281,452.9238 L750.8281,452.0332 L746.8594,452.0332 L746.8594,454.4863 L748.3438,454.4863 Q748.3438,453.8301 748.4688,453.6426 Q748.7344,453.2363 749.2031,453.2363 Q749.5781,453.2363 749.8125,453.502 Q750.0469,453.752 750.0469,454.3613 L750.0469,456.3301 Q750.0469,456.877 749.9219,457.0645 Q749.6563,457.4551 749.2031,457.4551 Q748.7344,457.4551 748.4688,457.0488 Q748.3438,456.8613 748.3438,456.1895 L746.8594,456.1895 Z " fill="#000000"/><text fill="#000000" font-family="sans-serif" font-size="12" font-style="italic" lengthAdjust="spacing" textLength="43" x="771" y="443.0703">&#171;entity&#187;</text><text fill="#000000" font-family="sans-serif" font-size="12" font-style="italic" lengthAdjust="spacing" textLength="35" x="775" y="459.0313">&#171;root&#187;</text><text fill="#000000" font-family="sans-serif" font-size="14" lengthAdjust="spacing" textLength="61" x="762" y="477.1504">Customer</text><line style="stroke:#000000;stroke-width:0.5;" x1="734" x2="825" y1="485.6641" y2="485.6641"/></g><!--entity Company--><g id="elem_Company"><rect fill="#F0FFDD" height="43.2422" rx="2.5" ry="2.5" style="stroke:#000000;stroke-width:0.5;" width="117" x="955" y="425.1211"/><text fill="#000000" font-family="sans-serif" font-size="14" font-style="italic" lengthAdjust="spacing" textLength="97" x="965" y="443.2285">&#171;Value Object&#187;</text><text fill="#000000" font-family="sans-serif" font-size="14" lengthAdjust="spacing" textLength="60" x="983.5" y="461.8496">Company</text></g><!--class Candidate--><g id="elem_Candidate"><rect codeLine="35" fill="#F0FFFF" height="68.543" id="Candidate" rx="2.5" ry="2.5" style="stroke:#000000;stroke-width:0.5;" width="97" x="965" y="84.1211"/><ellipse cx="980" cy="114.3926" fill="#ADD1B2" rx="11" ry="11" style="stroke:#181818;stroke-width:1.0;"/><path d="M978.8594,115.1895 L978.8594,117.6895 L983.1875,117.6895 L983.1875,116.7676 Q983.1875,116.1582 983.4219,115.8926 Q983.6719,115.627 984.0469,115.627 Q984.4219,115.627 984.6563,115.8926 Q984.8906,116.1582 984.8906,116.7676 L984.8906,119.3926 L976.8906,119.3926 Q976.2656,119.3926 976,119.1582 Q975.75,118.9238 975.75,118.5332 Q975.75,118.1582 976.0156,117.9238 Q976.2813,117.6895 976.8906,117.6895 L977.1563,117.6895 L977.1563,111.0332 L976.8906,111.0332 Q976.2656,111.0332 976,110.7988 Q975.75,110.5645 975.75,110.1738 Q975.75,109.7988 976,109.5645 Q976.2656,109.3301 976.8906,109.3301 L984.5156,109.3301 L984.5156,111.9238 Q984.5156,112.5332 984.2813,112.7988 Q984.0625,113.0488 983.6719,113.0488 Q983.2969,113.0488 983.0625,112.7988 Q982.8281,112.5332 982.8281,111.9238 L982.8281,111.0332 L978.8594,111.0332 L978.8594,113.4863 L980.3438,113.4863 Q980.3438,112.8301 980.4688,112.6426 Q980.7344,112.2363 981.2031,112.2363 Q981.5781,112.2363 981.8125,112.502 Q982.0469,112.752 982.0469,113.3613 L982.0469,115.3301 Q982.0469,115.877 981.9219,116.0645 Q981.6563,116.4551 981.2031,116.4551 Q980.7344,116.4551 980.4688,116.0488 Q980.3438,115.8613 980.3438,115.1895 L978.8594,115.1895 Z " fill="#000000"/><text fill="#000000" font-family="sans-serif" font-size="12" font-style="italic" lengthAdjust="spacing" textLength="43" x="1005" y="102.0703">&#171;entity&#187;</text><text fill="#000000" font-family="sans-serif" font-size="12" font-style="italic" lengthAdjust="spacing" textLength="35" x="1009" y="118.0313">&#171;root&#187;</text><text fill="#000000" font-family="sans-serif" font-size="14" lengthAdjust="spacing" textLength="65" x="994" y="136.1504">Candidate</text><line style="stroke:#000000;stroke-width:0.5;" x1="966" x2="1061" y1="144.6641" y2="144.6641"/></g><!--entity Curriculum--><g id="elem_Curriculum"><rect fill="#F0FFDD" height="43.2422" rx="2.5" ry="2.5" style="stroke:#000000;stroke-width:0.5;" width="117" x="1139" y="97.1211"/><text fill="#000000" font-family="sans-serif" font-size="14" font-style="italic" lengthAdjust="spacing" textLength="97" x="1149" y="115.2285">&#171;Value Object&#187;</text><text fill="#000000" font-family="sans-serif" font-size="14" lengthAdjust="spacing" textLength="68" x="1163.5" y="133.8496">Curriculum</text></g><!--class User--><g id="elem_User"><rect codeLine="45" fill="#F0FFFF" height="68.543" id="User" rx="2.5" ry="2.5" style="stroke:#000000;stroke-width:0.5;" width="71" x="1162" y="457.1211"/><ellipse cx="1177" cy="487.3926" fill="#ADD1B2" rx="11" ry="11" style="stroke:#181818;stroke-width:1.0;"/><path d="M1175.8594,488.1895 L1175.8594,490.6895 L1180.1875,490.6895 L1180.1875,489.7676 Q1180.1875,489.1582 1180.4219,488.8926 Q1180.6719,488.627 1181.0469,488.627 Q1181.4219,488.627 1181.6563,488.8926 Q1181.8906,489.1582 1181.8906,489.7676 L1181.8906,492.3926 L1173.8906,492.3926 Q1173.2656,492.3926 1173,492.1582 Q1172.75,491.9238 1172.75,491.5332 Q1172.75,491.1582 1173.0156,490.9238 Q1173.2813,490.6895 1173.8906,490.6895 L1174.1563,490.6895 L1174.1563,484.0332 L1173.8906,484.0332 Q1173.2656,484.0332 1173,483.7988 Q1172.75,483.5645 1172.75,483.1738 Q1172.75,482.7988 1173,482.5645 Q1173.2656,482.3301 1173.8906,482.3301 L1181.5156,482.3301 L1181.5156,484.9238 Q1181.5156,485.5332 1181.2813,485.7988 Q1181.0625,486.0488 1180.6719,486.0488 Q1180.2969,486.0488 1180.0625,485.7988 Q1179.8281,485.5332 1179.8281,484.9238 L1179.8281,484.0332 L1175.8594,484.0332 L1175.8594,486.4863 L1177.3438,486.4863 Q1177.3438,485.8301 1177.4688,485.6426 Q1177.7344,485.2363 1178.2031,485.2363 Q1178.5781,485.2363 1178.8125,485.502 Q1179.0469,485.752 1179.0469,486.3613 L1179.0469,488.3301 Q1179.0469,488.877 1178.9219,489.0645 Q1178.6563,489.4551 1178.2031,489.4551 Q1177.7344,489.4551 1177.4688,489.0488 Q1177.3438,488.8613 1177.3438,488.1895 L1175.8594,488.1895 Z " fill="#000000"/><text fill="#000000" font-family="sans-serif" font-size="12" font-style="italic" lengthAdjust="spacing" textLength="43" x="1189" y="475.0703">&#171;entity&#187;</text><text fill="#000000" font-family="sans-serif" font-size="12" font-style="italic" lengthAdjust="spacing" textLength="35" x="1193" y="491.0313">&#171;root&#187;</text><text fill="#000000" font-family="sans-serif" font-size="14" lengthAdjust="spacing" textLength="29" x="1196" y="509.1504">User</text><line style="stroke:#000000;stroke-width:0.5;" x1="1163" x2="1232" y1="517.6641" y2="517.6641"/></g><!--entity UserEmail--><g id="elem_UserEmail"><rect fill="#F0FFDD" height="43.2422" rx="2.5" ry="2.5" style="stroke:#000000;stroke-width:0.5;" width="117" x="1343.5" y="587.1211"/><text fill="#000000" font-family="sans-serif" font-size="14" font-style="italic" lengthAdjust="spacing" textLength="97" x="1353.5" y="605.2285">&#171;Value Object&#187;</text><text fill="#000000" font-family="sans-serif" font-size="14" lengthAdjust="spacing" textLength="63" x="1370.5" y="623.8496">UserEmail</text></g><!--entity UserName--><g id="elem_UserName"><rect fill="#F0FFDD" height="43.2422" rx="2.5" ry="2.5" style="stroke:#000000;stroke-width:0.5;" width="117" x="1343.5" y="509.1211"/><text fill="#000000" font-family="sans-serif" font-size="14" font-style="italic" lengthAdjust="spacing" textLength="97" x="1353.5" y="527.2285">&#171;Value Object&#187;</text><text fill="#000000" font-family="sans-serif" font-size="14" lengthAdjust="spacing" textLength="65" x="1369.5" y="545.8496">UserName</text></g><!--entity UserPassword--><g id="elem_UserPassword"><rect fill="#F0FFDD" height="43.2422" rx="2.5" ry="2.5" style="stroke:#000000;stroke-width:0.5;" width="117" x="1343.5" y="431.1211"/><text fill="#000000" font-family="sans-serif" font-size="14" font-style="italic" lengthAdjust="spacing" textLength="97" x="1353.5" y="449.2285">&#171;Value Object&#187;</text><text fill="#000000" font-family="sans-serif" font-size="14" lengthAdjust="spacing" textLength="90" x="1357" y="467.8496">UserPassword</text></g><!--entity UserTelephoneNumber--><g id="elem_UserTelephoneNumber"><rect fill="#F0FFDD" height="43.2422" rx="2.5" ry="2.5" style="stroke:#000000;stroke-width:0.5;" width="166" x="1319" y="353.1211"/><text fill="#000000" font-family="sans-serif" font-size="14" font-style="italic" lengthAdjust="spacing" textLength="97" x="1353.5" y="371.2285">&#171;Value Object&#187;</text><text fill="#000000" font-family="sans-serif" font-size="14" lengthAdjust="spacing" textLength="146" x="1329" y="389.8496">UserTelephoneNumber</text></g><!--class LanguageEngineer--><g id="elem_LanguageEngineer"><rect codeLine="64" fill="#F0FFFF" height="68.543" id="LanguageEngineer" rx="2.5" ry="2.5" style="stroke:#000000;stroke-width:0.5;" width="153" x="703" y="278.1211"/><ellipse cx="718" cy="308.3926" fill="#ADD1B2" rx="11" ry="11" style="stroke:#181818;stroke-width:1.0;"/><path d="M716.8594,309.1895 L716.8594,311.6895 L721.1875,311.6895 L721.1875,310.7676 Q721.1875,310.1582 721.4219,309.8926 Q721.6719,309.627 722.0469,309.627 Q722.4219,309.627 722.6563,309.8926 Q722.8906,310.1582 722.8906,310.7676 L722.8906,313.3926 L714.8906,313.3926 Q714.2656,313.3926 714,313.1582 Q713.75,312.9238 713.75,312.5332 Q713.75,312.1582 714.0156,311.9238 Q714.2813,311.6895 714.8906,311.6895 L715.1563,311.6895 L715.1563,305.0332 L714.8906,305.0332 Q714.2656,305.0332 714,304.7988 Q713.75,304.5645 713.75,304.1738 Q713.75,303.7988 714,303.5645 Q714.2656,303.3301 714.8906,303.3301 L722.5156,303.3301 L722.5156,305.9238 Q722.5156,306.5332 722.2813,306.7988 Q722.0625,307.0488 721.6719,307.0488 Q721.2969,307.0488 721.0625,306.7988 Q720.8281,306.5332 720.8281,305.9238 L720.8281,305.0332 L716.8594,305.0332 L716.8594,307.4863 L718.3438,307.4863 Q718.3438,306.8301 718.4688,306.6426 Q718.7344,306.2363 719.2031,306.2363 Q719.5781,306.2363 719.8125,306.502 Q720.0469,306.752 720.0469,307.3613 L720.0469,309.3301 Q720.0469,309.877 719.9219,310.0645 Q719.6563,310.4551 719.2031,310.4551 Q718.7344,310.4551 718.4688,310.0488 Q718.3438,309.8613 718.3438,309.1895 L716.8594,309.1895 Z " fill="#000000"/><text fill="#000000" font-family="sans-serif" font-size="12" font-style="italic" lengthAdjust="spacing" textLength="43" x="771" y="296.0703">&#171;entity&#187;</text><text fill="#000000" font-family="sans-serif" font-size="12" font-style="italic" lengthAdjust="spacing" textLength="35" x="775" y="312.0313">&#171;root&#187;</text><text fill="#000000" font-family="sans-serif" font-size="14" lengthAdjust="spacing" textLength="121" x="732" y="330.1504">LanguageEngineer</text><line style="stroke:#000000;stroke-width:0.5;" x1="704" x2="855" y1="338.6641" y2="338.6641"/></g><!--class Admin--><g id="elem_Admin"><rect codeLine="68" fill="#F0FFFF" height="68.543" id="Admin" rx="2.5" ry="2.5" style="stroke:#000000;stroke-width:0.5;" width="71" x="39" y="531.1211"/><ellipse cx="54" cy="561.3926" fill="#ADD1B2" rx="11" ry="11" style="stroke:#181818;stroke-width:1.0;"/><path d="M52.8594,562.1895 L52.8594,564.6895 L57.1875,564.6895 L57.1875,563.7676 Q57.1875,563.1582 57.4219,562.8926 Q57.6719,562.627 58.0469,562.627 Q58.4219,562.627 58.6563,562.8926 Q58.8906,563.1582 58.8906,563.7676 L58.8906,566.3926 L50.8906,566.3926 Q50.2656,566.3926 50,566.1582 Q49.75,565.9238 49.75,565.5332 Q49.75,565.1582 50.0156,564.9238 Q50.2813,564.6895 50.8906,564.6895 L51.1563,564.6895 L51.1563,558.0332 L50.8906,558.0332 Q50.2656,558.0332 50,557.7988 Q49.75,557.5645 49.75,557.1738 Q49.75,556.7988 50,556.5645 Q50.2656,556.3301 50.8906,556.3301 L58.5156,556.3301 L58.5156,558.9238 Q58.5156,559.5332 58.2813,559.7988 Q58.0625,560.0488 57.6719,560.0488 Q57.2969,560.0488 57.0625,559.7988 Q56.8281,559.5332 56.8281,558.9238 L56.8281,558.0332 L52.8594,558.0332 L52.8594,560.4863 L54.3438,560.4863 Q54.3438,559.8301 54.4688,559.6426 Q54.7344,559.2363 55.2031,559.2363 Q55.5781,559.2363 55.8125,559.502 Q56.0469,559.752 56.0469,560.3613 L56.0469,562.3301 Q56.0469,562.877 55.9219,563.0645 Q55.6563,563.4551 55.2031,563.4551 Q54.7344,563.4551 54.4688,563.0488 Q54.3438,562.8613 54.3438,562.1895 L52.8594,562.1895 Z " fill="#000000"/><text fill="#000000" font-family="sans-serif" font-size="12" font-style="italic" lengthAdjust="spacing" textLength="43" x="66" y="549.0703">&#171;entity&#187;</text><text fill="#000000" font-family="sans-serif" font-size="12" font-style="italic" lengthAdjust="spacing" textLength="35" x="70" y="565.0313">&#171;root&#187;</text><text fill="#000000" font-family="sans-serif" font-size="14" lengthAdjust="spacing" textLength="39" x="68" y="583.1504">Admin</text><line style="stroke:#000000;stroke-width:0.5;" x1="40" x2="109" y1="591.6641" y2="591.6641"/></g><!--class CustomerManager--><g id="elem_CustomerManager"><rect codeLine="72" fill="#F0FFFF" height="68.543" id="CustomerManager" rx="2.5" ry="2.5" style="stroke:#000000;stroke-width:0.5;" width="149" x="331" y="531.1211"/><ellipse cx="346" cy="561.3926" fill="#ADD1B2" rx="11" ry="11" style="stroke:#181818;stroke-width:1.0;"/><path d="M344.8594,562.1895 L344.8594,564.6895 L349.1875,564.6895 L349.1875,563.7676 Q349.1875,563.1582 349.4219,562.8926 Q349.6719,562.627 350.0469,562.627 Q350.4219,562.627 350.6563,562.8926 Q350.8906,563.1582 350.8906,563.7676 L350.8906,566.3926 L342.8906,566.3926 Q342.2656,566.3926 342,566.1582 Q341.75,565.9238 341.75,565.5332 Q341.75,565.1582 342.0156,564.9238 Q342.2813,564.6895 342.8906,564.6895 L343.1563,564.6895 L343.1563,558.0332 L342.8906,558.0332 Q342.2656,558.0332 342,557.7988 Q341.75,557.5645 341.75,557.1738 Q341.75,556.7988 342,556.5645 Q342.2656,556.3301 342.8906,556.3301 L350.5156,556.3301 L350.5156,558.9238 Q350.5156,559.5332 350.2813,559.7988 Q350.0625,560.0488 349.6719,560.0488 Q349.2969,560.0488 349.0625,559.7988 Q348.8281,559.5332 348.8281,558.9238 L348.8281,558.0332 L344.8594,558.0332 L344.8594,560.4863 L346.3438,560.4863 Q346.3438,559.8301 346.4688,559.6426 Q346.7344,559.2363 347.2031,559.2363 Q347.5781,559.2363 347.8125,559.502 Q348.0469,559.752 348.0469,560.3613 L348.0469,562.3301 Q348.0469,562.877 347.9219,563.0645 Q347.6563,563.4551 347.2031,563.4551 Q346.7344,563.4551 346.4688,563.0488 Q346.3438,562.8613 346.3438,562.1895 L344.8594,562.1895 Z " fill="#000000"/><text fill="#000000" font-family="sans-serif" font-size="12" font-style="italic" lengthAdjust="spacing" textLength="43" x="397" y="549.0703">&#171;entity&#187;</text><text fill="#000000" font-family="sans-serif" font-size="12" font-style="italic" lengthAdjust="spacing" textLength="35" x="401" y="565.0313">&#171;root&#187;</text><text fill="#000000" font-family="sans-serif" font-size="14" lengthAdjust="spacing" textLength="117" x="360" y="583.1504">CustomerManager</text><line style="stroke:#000000;stroke-width:0.5;" x1="332" x2="479" y1="591.6641" y2="591.6641"/></g><!--class Operator--><g id="elem_Operator"><rect codeLine="76" fill="#F0FFFF" height="68.543" id="Operator" rx="2.5" ry="2.5" style="stroke:#000000;stroke-width:0.5;" width="89" x="969" y="231.1211"/><ellipse cx="984" cy="261.3926" fill="#ADD1B2" rx="11" ry="11" style="stroke:#181818;stroke-width:1.0;"/><path d="M982.8594,262.1895 L982.8594,264.6895 L987.1875,264.6895 L987.1875,263.7676 Q987.1875,263.1582 987.4219,262.8926 Q987.6719,262.627 988.0469,262.627 Q988.4219,262.627 988.6563,262.8926 Q988.8906,263.1582 988.8906,263.7676 L988.8906,266.3926 L980.8906,266.3926 Q980.2656,266.3926 980,266.1582 Q979.75,265.9238 979.75,265.5332 Q979.75,265.1582 980.0156,264.9238 Q980.2813,264.6895 980.8906,264.6895 L981.1563,264.6895 L981.1563,258.0332 L980.8906,258.0332 Q980.2656,258.0332 980,257.7988 Q979.75,257.5645 979.75,257.1738 Q979.75,256.7988 980,256.5645 Q980.2656,256.3301 980.8906,256.3301 L988.5156,256.3301 L988.5156,258.9238 Q988.5156,259.5332 988.2813,259.7988 Q988.0625,260.0488 987.6719,260.0488 Q987.2969,260.0488 987.0625,259.7988 Q986.8281,259.5332 986.8281,258.9238 L986.8281,258.0332 L982.8594,258.0332 L982.8594,260.4863 L984.3438,260.4863 Q984.3438,259.8301 984.4688,259.6426 Q984.7344,259.2363 985.2031,259.2363 Q985.5781,259.2363 985.8125,259.502 Q986.0469,259.752 986.0469,260.3613 L986.0469,262.3301 Q986.0469,262.877 985.9219,263.0645 Q985.6563,263.4551 985.2031,263.4551 Q984.7344,263.4551 984.4688,263.0488 Q984.3438,262.8613 984.3438,262.1895 L982.8594,262.1895 Z " fill="#000000"/><text fill="#000000" font-family="sans-serif" font-size="12" font-style="italic" lengthAdjust="spacing" textLength="43" x="1005" y="249.0703">&#171;entity&#187;</text><text fill="#000000" font-family="sans-serif" font-size="12" font-style="italic" lengthAdjust="spacing" textLength="35" x="1009" y="265.0313">&#171;root&#187;</text><text fill="#000000" font-family="sans-serif" font-size="14" lengthAdjust="spacing" textLength="57" x="998" y="283.1504">Operator</text><line style="stroke:#000000;stroke-width:0.5;" x1="970" x2="1057" y1="291.6641" y2="291.6641"/></g><!--link Customer to Company--><g id="link_Customer_Company"><path codeLine="30" d="M826.06,457.0711 C862.88,455.0011 908.9394,452.4272 948.6894,450.1972 " fill="none" id="Customer-to-Company" style="stroke:#808080;stroke-width:1.0;"/><polygon fill="#808080" points="954.68,449.8611,945.4701,446.3715,949.6878,450.1412,945.9182,454.3589,954.68,449.8611" style="stroke:#808080;stroke-width:1.0;"/></g><!--link Candidate to Curriculum--><g id="link_Candidate_Curriculum"><path codeLine="40" d="M1062.32,118.6211 C1085.8,118.6211 1108.29,118.6211 1132.96,118.6211 " fill="none" id="Candidate-to-Curriculum" style="stroke:#808080;stroke-width:1.0;"/><polygon fill="#808080" points="1138.96,118.6211,1129.96,114.6211,1133.96,118.6211,1129.96,122.6211,1138.96,118.6211" style="stroke:#808080;stroke-width:1.0;"/></g><!--link User to UserEmail--><g id="link_User_UserEmail"><path codeLine="56" d="M1233.08,515.7211 C1256.78,531.8111 1289.19,552.9811 1319,569.6211 C1329.74,575.6111 1336.1308,578.9849 1347.3608,584.3749 " fill="none" id="User-to-UserEmail" style="stroke:#808080;stroke-width:1.0;"/><polygon fill="#808080" points="1352.77,586.9711,1346.387,579.4706,1348.2623,584.8076,1342.9254,586.6829,1352.77,586.9711" style="stroke:#808080;stroke-width:1.0;"/></g><!--link User to UserName--><g id="link_User_UserName"><path codeLine="57" d="M1233.31,498.3211 C1263.5,504.1411 1301.9184,511.5356 1337.4084,518.3756 " fill="none" id="User-to-UserName" style="stroke:#808080;stroke-width:1.0;"/><polygon fill="#808080" points="1343.3,519.5111,1335.2196,513.8801,1338.3904,518.5649,1333.7056,521.7356,1343.3,519.5111" style="stroke:#808080;stroke-width:1.0;"/></g><!--link User to UserTelephoneNumber--><g id="link_User_UserTelephoneNumber"><path codeLine="58" d="M1233.08,467.5211 C1256.78,451.4311 1289.19,430.2611 1319,413.6211 C1329.74,407.6311 1336.1308,404.2573 1347.3608,398.8673 " fill="none" id="User-to-UserTelephoneNumber" style="stroke:#808080;stroke-width:1.0;"/><polygon fill="#808080" points="1352.77,396.2711,1342.9254,396.5593,1348.2623,398.4346,1346.387,403.7716,1352.77,396.2711" style="stroke:#808080;stroke-width:1.0;"/></g><!--link User to UserPassword--><g id="link_User_UserPassword"><path codeLine="59" d="M1233.31,484.9211 C1263.5,479.1011 1301.9184,471.7066 1337.4084,464.8666 " fill="none" id="User-to-UserPassword" style="stroke:#808080;stroke-width:1.0;"/><polygon fill="#808080" points="1343.3,463.7311,1333.7056,461.5066,1338.3904,464.6773,1335.2196,469.362,1343.3,463.7311" style="stroke:#808080;stroke-width:1.0;"/></g><!--link Admin to User--><g id="link_Admin_User"><path codeLine="79" d="M103.2,600.1711 C129.16,628.3911 170.74,663.6211 216.5,663.6211 C216.5,663.6211 216.5,663.6211 1014.5,663.6211 C1093.62,663.6211 1149.3686,581.9648 1176.6386,531.7048 " fill="none" id="Admin-to-User" style="stroke:#808080;stroke-width:1.0;"/><polygon fill="#808080" points="1179.5,526.4311,1171.6921,532.4341,1177.1155,530.8259,1178.7237,536.2493,1179.5,526.4311" style="stroke:#808080;stroke-width:1.0;"/></g><!--link CustomerManager to User--><g id="link_CustomerManager_User"><path codeLine="80" d="M480.2,581.4011 C513.83,587.3111 554.26,592.6211 591,592.6211 C591,592.6211 591,592.6211 1014.5,592.6211 C1071.42,592.6211 1122.6251,558.2849 1157.1151,528.8649 " fill="none" id="CustomerManager-to-User" style="stroke:#808080;stroke-width:1.0;"/><polygon fill="#808080" points="1161.68,524.9711,1152.2368,527.7686,1157.8759,528.216,1157.4286,533.8551,1161.68,524.9711" style="stroke:#808080;stroke-width:1.0;"/></g><!--link Operator to User--><g id="link_Operator_User"><path codeLine="81" d="M1058.4,288.1411 C1075.66,298.4911 1094.71,311.9711 1109,327.6211 C1144.15,366.1011 1167.5517,415.7262 1181.6817,451.2362 " fill="none" id="Operator-to-User" style="stroke:#808080;stroke-width:1.0;"/><polygon fill="#808080" points="1183.9,456.8111,1184.2891,446.9699,1182.0514,452.1654,1176.8559,449.9277,1183.9,456.8111" style="stroke:#808080;stroke-width:1.0;"/></g><!--link LanguageEngineer to User--><g id="link_LanguageEngineer_User"><path codeLine="82" d="M856.3,326.0611 C923.34,340.0711 1022.28,366.0511 1100,408.6211 C1123.26,421.3611 1141.5594,436.2592 1159.0694,452.8892 " fill="none" id="LanguageEngineer-to-User" style="stroke:#808080;stroke-width:1.0;"/><polygon fill="#808080" points="1163.42,457.0211,1159.6488,447.9229,1159.7945,453.5778,1154.1396,453.7236,1163.42,457.0211" style="stroke:#808080;stroke-width:1.0;"/></g><!--link Customer to User--><g id="link_Customer_User"><path codeLine="83" d="M826.1,469.5111 C855.12,475.3411 893.58,482.2211 928,485.6211 C1011.52,493.8711 1104.331,493.5922 1155.641,492.6422 " fill="none" id="Customer-to-User" style="stroke:#808080;stroke-width:1.0;"/><polygon fill="#808080" points="1161.64,492.5311,1152.5675,488.6984,1156.6409,492.6237,1152.7156,496.697,1161.64,492.5311" style="stroke:#808080;stroke-width:1.0;"/></g><!--link Candidate to User--><g id="link_Candidate_User"><path codeLine="84" d="M1051.47,153.3311 C1068.1,170.5011 1086.88,192.3011 1100,214.6211 C1147.36,295.1811 1175.0393,396.7274 1187.6993,451.0974 " fill="none" id="Candidate-to-User" style="stroke:#808080;stroke-width:1.0;"/><polygon fill="#808080" points="1189.06,456.9411,1190.9147,447.2685,1187.9261,452.0714,1183.1232,449.0827,1189.06,456.9411" style="stroke:#808080;stroke-width:1.0;"/></g><!--link Admin to Customer--><g id="link_Admin_Customer"><path codeLine="85" d="M92.98,531.0211 C115.63,491.6211 159.13,432.6211 216.5,432.6211 C216.5,432.6211 216.5,432.6211 593,432.6211 C641,432.6211 689.3903,440.3856 726.7703,447.9856 " fill="none" id="Admin-to-Customer" style="stroke:#808080;stroke-width:1.0;"/><polygon fill="#808080" points="732.65,449.1811,724.6274,443.4681,727.7502,448.1849,723.0335,451.3077,732.65,449.1811" style="stroke:#808080;stroke-width:1.0;"/><text fill="#000000" font-family="sans-serif" font-size="13" lengthAdjust="spacing" textLength="53" x="379" y="428.6494">manages</text><text fill="#000000" font-family="sans-serif" font-size="13" lengthAdjust="spacing" textLength="7" x="88.8356" y="519.9048">1</text><text fill="#000000" font-family="sans-serif" font-size="13" lengthAdjust="spacing" textLength="9" x="716.108" y="462.9794">N</text></g><!--link Admin to CustomerManager--><g id="link_Admin_CustomerManager"><path codeLine="86" d="M110.09,565.6211 C162.14,565.6211 255.83,565.6211 324.69,565.6211 " fill="none" id="Admin-to-CustomerManager" style="stroke:#808080;stroke-width:1.0;"/><polygon fill="#808080" points="330.69,565.6211,321.69,561.6211,325.69,565.6211,321.69,569.6211,330.69,565.6211" style="stroke:#808080;stroke-width:1.0;"/><text fill="#000000" font-family="sans-serif" font-size="13" lengthAdjust="spacing" textLength="53" x="191" y="561.6494">manages</text><text fill="#000000" font-family="sans-serif" font-size="13" lengthAdjust="spacing" textLength="7" x="118.1523" y="581.4797">1</text><text fill="#000000" font-family="sans-serif" font-size="13" lengthAdjust="spacing" textLength="9" x="313.8829" y="580.523">N</text></g><!--link CustomerManager to Customer--><g id="link_CustomerManager_Customer"><path codeLine="87" d="M480.44,544.5511 C555.66,523.1211 664.0899,492.2259 727.0599,474.2759 " fill="none" id="CustomerManager-to-Customer" style="stroke:#808080;stroke-width:1.0;"/><polygon fill="#808080" points="732.83,472.6311,723.0782,471.2516,728.0215,474.0018,725.2713,478.9451,732.83,472.6311" style="stroke:#808080;stroke-width:1.0;"/><text fill="#000000" font-family="sans-serif" font-size="13" lengthAdjust="spacing" textLength="50" x="567" y="501.6494">registers</text><text fill="#000000" font-family="sans-serif" font-size="13" lengthAdjust="spacing" textLength="7" x="487.9163" y="557.417">1</text><text fill="#000000" font-family="sans-serif" font-size="13" lengthAdjust="spacing" textLength="9" x="715.9946" y="490.0104">N</text></g><!--SRC=[fLHDQ-Cm5BphLmZlER1xNO8X7sqfk4bWitjNebT76tqOIQQ4ql- -ptAiZHmxATGNctcZqSpOya5me0hymN179BnwwWsreZnuoeM5lHT64x8LNWBD2bCAJPT6CRoz60uo8yGTXQwOPOhk9NEElXEALo5UeH0QviPoi0iZZQLBPezpMKDAOFjZQKsjUKkQRJR5ysAsVLwl0gy___Ru_H6lC9jPQzvQkBHmQlaN6-uaBYOVbnuhH5W9l_m90pNvc2ub92cOvJT2F5a0_VK4osK_GTFEqr2AUPVYx9rcYzfvem2tAZ5toJnaxmIq5_v4usmwRP4ydqwjCJxFIP0E-HP6LKoVaFI7uHkXwzrVx2BFpy4_MchKcapoRWb9dJ3D1KS3WrRYyBQNsbgnhsMjxjc9Ui5FN9PQ-ks6YmduJICDum6_RJdk8-6kc89FKZTuCjxmdNwIlWK9rS5eMDLg5spVwYKaQog90QxXnkirsjldcj3vJYikyD3KpTE3nXy2zFfkHCwTTyJ86-Z_KdZ65VvPHiJQuHs5-Cc-C8t0gBEErz7koAuhiCoRKRau7zO9HptOdtJD9WUiSv5EesY2NdKwBDc7axCJuTPKzYDhwTag-o_mawfWozrZTkxJ1Vtfs2POft0Uh2F_0000]--></g></svg>