<?xml version="1.0" encoding="us-ascii" standalone="no"?><svg xmlns="http://www.w3.org/2000/svg" xmlns:xlink="http://www.w3.org/1999/xlink" contentStyleType="text/css" height="572px" preserveAspectRatio="none" style="width:1061px;height:572px;background:#FFFFFF;" version="1.1" viewBox="0 0 1061 572" width="1061px" zoomAndPan="magnify"><defs/><g><!--class LoginUI--><g id="elem_LoginUI"><rect codeLine="3" fill="#F1F1F1" height="103.8633" id="LoginUI" rx="2.5" ry="2.5" style="stroke:#181818;stroke-width:0.5;" width="226" x="7" y="7"/><ellipse cx="92.25" cy="23" fill="#ADD1B2" rx="11" ry="11" style="stroke:#181818;stroke-width:1.0;"/><path d="M95.0156,18.875 Q95.1719,18.6563 95.3594,18.5469 Q95.5469,18.4375 95.7656,18.4375 Q96.1406,18.4375 96.375,18.7031 Q96.6094,18.9531 96.6094,19.5625 L96.6094,21.0156 Q96.6094,21.625 96.375,21.8906 Q96.1406,22.1563 95.7656,22.1563 Q95.4219,22.1563 95.2188,21.9531 Q95.0156,21.7656 94.9063,21.25 Q94.8594,20.8906 94.6719,20.7031 Q94.3438,20.3281 93.7344,20.1094 Q93.125,19.8906 92.5,19.8906 Q91.7344,19.8906 91.0938,20.2188 Q90.4688,20.5469 89.9688,21.2969 Q89.4844,22.0469 89.4844,23.0781 L89.4844,24.1719 Q89.4844,25.4063 90.375,26.2344 Q91.2656,27.0469 92.8594,27.0469 Q93.7969,27.0469 94.4531,26.7969 Q94.8438,26.6406 95.2656,26.2031 Q95.5313,25.9375 95.6719,25.8594 Q95.8281,25.7813 96.0313,25.7813 Q96.3594,25.7813 96.6094,26.0469 Q96.875,26.2969 96.875,26.6406 Q96.875,26.9844 96.5313,27.3906 Q96.0313,27.9688 95.2344,28.2969 Q94.1563,28.75 92.8594,28.75 Q91.3438,28.75 90.1406,28.125 Q89.1563,27.625 88.4688,26.5625 Q87.7813,25.4844 87.7813,24.2031 L87.7813,23.0469 Q87.7813,21.7188 88.3906,20.5781 Q89.0156,19.4219 90.1094,18.8125 Q91.2031,18.1875 92.4375,18.1875 Q93.1719,18.1875 93.8125,18.3594 Q94.4688,18.5156 95.0156,18.875 Z " fill="#000000"/><text fill="#000000" font-family="sans-serif" font-size="14" lengthAdjust="spacing" textLength="47" x="112.75" y="28.7969">LoginUI</text><line style="stroke:#181818;stroke-width:0.5;" x1="8" x2="232" y1="39" y2="39"/><line style="stroke:#181818;stroke-width:0.5;" x1="8" x2="232" y1="47" y2="47"/><ellipse cx="18" cy="61.8105" fill="#84BE84" rx="3" ry="3" style="stroke:#038048;stroke-width:1.0;"/><text fill="#000000" font-family="sans-serif" font-size="14" lengthAdjust="spacing" textLength="200" x="27" y="66.1074">LoginUI(credentialHandler, role)</text><rect fill="#F24D5C" height="6" style="stroke:#C82930;stroke-width:1.0;" width="6" x="15" y="77.4316"/><text fill="#000000" font-family="sans-serif" font-size="14" lengthAdjust="spacing" textLength="60" x="27" y="84.7285">doShow()</text><rect fill="#F24D5C" height="6" style="stroke:#C82930;stroke-width:1.0;" width="6" x="15" y="96.0527"/><text fill="#000000" font-family="sans-serif" font-size="14" lengthAdjust="spacing" textLength="64" x="27" y="103.3496">headline()</text></g><!--class AuthenticationCredentialHandler--><g id="elem_AuthenticationCredentialHandler"><rect codeLine="9" fill="#F1F1F1" height="66.6211" id="AuthenticationCredentialHandler" rx="2.5" ry="2.5" style="stroke:#181818;stroke-width:0.5;" width="285" x="328.5" y="25.5"/><ellipse cx="365.55" cy="41.5" fill="#ADD1B2" rx="11" ry="11" style="stroke:#181818;stroke-width:1.0;"/><path d="M368.3156,37.375 Q368.4719,37.1563 368.6594,37.0469 Q368.8469,36.9375 369.0656,36.9375 Q369.4406,36.9375 369.675,37.2031 Q369.9094,37.4531 369.9094,38.0625 L369.9094,39.5156 Q369.9094,40.125 369.675,40.3906 Q369.4406,40.6563 369.0656,40.6563 Q368.7219,40.6563 368.5188,40.4531 Q368.3156,40.2656 368.2063,39.75 Q368.1594,39.3906 367.9719,39.2031 Q367.6438,38.8281 367.0344,38.6094 Q366.425,38.3906 365.8,38.3906 Q365.0344,38.3906 364.3938,38.7188 Q363.7688,39.0469 363.2688,39.7969 Q362.7844,40.5469 362.7844,41.5781 L362.7844,42.6719 Q362.7844,43.9063 363.675,44.7344 Q364.5656,45.5469 366.1594,45.5469 Q367.0969,45.5469 367.7531,45.2969 Q368.1438,45.1406 368.5656,44.7031 Q368.8313,44.4375 368.9719,44.3594 Q369.1281,44.2813 369.3313,44.2813 Q369.6594,44.2813 369.9094,44.5469 Q370.175,44.7969 370.175,45.1406 Q370.175,45.4844 369.8313,45.8906 Q369.3313,46.4688 368.5344,46.7969 Q367.4563,47.25 366.1594,47.25 Q364.6438,47.25 363.4406,46.625 Q362.4563,46.125 361.7688,45.0625 Q361.0813,43.9844 361.0813,42.7031 L361.0813,41.5469 Q361.0813,40.2188 361.6906,39.0781 Q362.3156,37.9219 363.4094,37.3125 Q364.5031,36.6875 365.7375,36.6875 Q366.4719,36.6875 367.1125,36.8594 Q367.7688,37.0156 368.3156,37.375 Z " fill="#000000"/><text fill="#000000" font-family="sans-serif" font-size="14" lengthAdjust="spacing" textLength="204" x="384.45" y="47.2969">AuthenticationCredentialHandler</text><line style="stroke:#181818;stroke-width:0.5;" x1="329.5" x2="612.5" y1="57.5" y2="57.5"/><line style="stroke:#181818;stroke-width:0.5;" x1="329.5" x2="612.5" y1="65.5" y2="65.5"/><ellipse cx="339.5" cy="80.3105" fill="#84BE84" rx="3" ry="3" style="stroke:#038048;stroke-width:1.0;"/><text fill="#000000" font-family="sans-serif" font-size="14" lengthAdjust="spacing" textLength="259" x="348.5" y="84.6074">authenticated(username, password, role)</text></g><!--class AuthzRegistry--><g id="elem_AuthzRegistry"><rect codeLine="13" fill="#F1F1F1" height="122.4844" id="AuthzRegistry" rx="2.5" ry="2.5" style="stroke:#181818;stroke-width:0.5;" width="261" x="340.5" y="128"/><ellipse cx="423.25" cy="144" fill="#ADD1B2" rx="11" ry="11" style="stroke:#181818;stroke-width:1.0;"/><path d="M426.0156,139.875 Q426.1719,139.6563 426.3594,139.5469 Q426.5469,139.4375 426.7656,139.4375 Q427.1406,139.4375 427.375,139.7031 Q427.6094,139.9531 427.6094,140.5625 L427.6094,142.0156 Q427.6094,142.625 427.375,142.8906 Q427.1406,143.1563 426.7656,143.1563 Q426.4219,143.1563 426.2188,142.9531 Q426.0156,142.7656 425.9063,142.25 Q425.8594,141.8906 425.6719,141.7031 Q425.3438,141.3281 424.7344,141.1094 Q424.125,140.8906 423.5,140.8906 Q422.7344,140.8906 422.0938,141.2188 Q421.4688,141.5469 420.9688,142.2969 Q420.4844,143.0469 420.4844,144.0781 L420.4844,145.1719 Q420.4844,146.4063 421.375,147.2344 Q422.2656,148.0469 423.8594,148.0469 Q424.7969,148.0469 425.4531,147.7969 Q425.8438,147.6406 426.2656,147.2031 Q426.5313,146.9375 426.6719,146.8594 Q426.8281,146.7813 427.0313,146.7813 Q427.3594,146.7813 427.6094,147.0469 Q427.875,147.2969 427.875,147.6406 Q427.875,147.9844 427.5313,148.3906 Q427.0313,148.9688 426.2344,149.2969 Q425.1563,149.75 423.8594,149.75 Q422.3438,149.75 421.1406,149.125 Q420.1563,148.625 419.4688,147.5625 Q418.7813,146.4844 418.7813,145.2031 L418.7813,144.0469 Q418.7813,142.7188 419.3906,141.5781 Q420.0156,140.4219 421.1094,139.8125 Q422.2031,139.1875 423.4375,139.1875 Q424.1719,139.1875 424.8125,139.3594 Q425.4688,139.5156 426.0156,139.875 Z " fill="#000000"/><text fill="#000000" font-family="sans-serif" font-size="14" lengthAdjust="spacing" textLength="87" x="443.75" y="149.7969">AuthzRegistry</text><line style="stroke:#181818;stroke-width:0.5;" x1="341.5" x2="600.5" y1="160" y2="160"/><line style="stroke:#181818;stroke-width:0.5;" x1="341.5" x2="600.5" y1="168" y2="168"/><ellipse cx="351.5" cy="182.8105" fill="#84BE84" rx="3" ry="3" style="stroke:#038048;stroke-width:1.0;"/><text fill="#000000" font-family="sans-serif" font-size="14" lengthAdjust="spacing" textLength="235" x="360.5" y="187.1074">configure(userRepo, policy, encoder)</text><ellipse cx="351.5" cy="201.4316" fill="#84BE84" rx="3" ry="3" style="stroke:#038048;stroke-width:1.0;"/><text fill="#000000" font-family="sans-serif" font-size="14" lengthAdjust="spacing" textLength="85" x="360.5" y="205.7285">userService()</text><ellipse cx="351.5" cy="220.0527" fill="#84BE84" rx="3" ry="3" style="stroke:#038048;stroke-width:1.0;"/><text fill="#000000" font-family="sans-serif" font-size="14" lengthAdjust="spacing" textLength="146" x="360.5" y="224.3496">authenticationService()</text><ellipse cx="351.5" cy="238.6738" fill="#84BE84" rx="3" ry="3" style="stroke:#038048;stroke-width:1.0;"/><text fill="#000000" font-family="sans-serif" font-size="14" lengthAdjust="spacing" textLength="138" x="360.5" y="242.9707">authorizationService()</text></g><!--class AuthorizationService--><g id="elem_AuthorizationService"><rect codeLine="20" fill="#F1F1F1" height="178.3477" id="AuthorizationService" rx="2.5" ry="2.5" style="stroke:#181818;stroke-width:0.5;" width="354" x="294" y="285"/><ellipse cx="402.25" cy="301" fill="#ADD1B2" rx="11" ry="11" style="stroke:#181818;stroke-width:1.0;"/><path d="M405.0156,296.875 Q405.1719,296.6563 405.3594,296.5469 Q405.5469,296.4375 405.7656,296.4375 Q406.1406,296.4375 406.375,296.7031 Q406.6094,296.9531 406.6094,297.5625 L406.6094,299.0156 Q406.6094,299.625 406.375,299.8906 Q406.1406,300.1563 405.7656,300.1563 Q405.4219,300.1563 405.2188,299.9531 Q405.0156,299.7656 404.9063,299.25 Q404.8594,298.8906 404.6719,298.7031 Q404.3438,298.3281 403.7344,298.1094 Q403.125,297.8906 402.5,297.8906 Q401.7344,297.8906 401.0938,298.2188 Q400.4688,298.5469 399.9688,299.2969 Q399.4844,300.0469 399.4844,301.0781 L399.4844,302.1719 Q399.4844,303.4063 400.375,304.2344 Q401.2656,305.0469 402.8594,305.0469 Q403.7969,305.0469 404.4531,304.7969 Q404.8438,304.6406 405.2656,304.2031 Q405.5313,303.9375 405.6719,303.8594 Q405.8281,303.7813 406.0313,303.7813 Q406.3594,303.7813 406.6094,304.0469 Q406.875,304.2969 406.875,304.6406 Q406.875,304.9844 406.5313,305.3906 Q406.0313,305.9688 405.2344,306.2969 Q404.1563,306.75 402.8594,306.75 Q401.3438,306.75 400.1406,306.125 Q399.1563,305.625 398.4688,304.5625 Q397.7813,303.4844 397.7813,302.2031 L397.7813,301.0469 Q397.7813,299.7188 398.3906,298.5781 Q399.0156,297.4219 400.1094,296.8125 Q401.2031,296.1875 402.4375,296.1875 Q403.1719,296.1875 403.8125,296.3594 Q404.4688,296.5156 405.0156,296.875 Z " fill="#000000"/><text fill="#000000" font-family="sans-serif" font-size="14" lengthAdjust="spacing" textLength="129" x="422.75" y="306.7969">AuthorizationService</text><line style="stroke:#181818;stroke-width:0.5;" x1="295" x2="647" y1="317" y2="317"/><line style="stroke:#181818;stroke-width:0.5;" x1="295" x2="647" y1="325" y2="325"/><ellipse cx="305" cy="339.8105" fill="#84BE84" rx="3" ry="3" style="stroke:#038048;stroke-width:1.0;"/><text fill="#000000" font-family="sans-serif" font-size="14" lengthAdjust="spacing" textLength="281" x="314" y="344.1074">authenticate(username, rawPassword, roles)</text><ellipse cx="305" cy="358.4316" fill="#84BE84" rx="3" ry="3" style="stroke:#038048;stroke-width:1.0;"/><text fill="#000000" font-family="sans-serif" font-size="14" lengthAdjust="spacing" textLength="328" x="314" y="362.7285">changePassword(user, oldPassword, newPassword)</text><ellipse cx="305" cy="377.0527" fill="#84BE84" rx="3" ry="3" style="stroke:#038048;stroke-width:1.0;"/><text fill="#000000" font-family="sans-serif" font-size="14" lengthAdjust="spacing" textLength="292" x="314" y="381.3496">changePassword(oldPassword, newPassword)</text><ellipse cx="305" cy="395.6738" fill="#84BE84" rx="3" ry="3" style="stroke:#038048;stroke-width:1.0;"/><text fill="#000000" font-family="sans-serif" font-size="14" lengthAdjust="spacing" textLength="131" x="314" y="399.9707">resetPassword(user)</text><ellipse cx="305" cy="414.2949" fill="#84BE84" rx="3" ry="3" style="stroke:#038048;stroke-width:1.0;"/><text fill="#000000" font-family="sans-serif" font-size="14" lengthAdjust="spacing" textLength="289" x="314" y="418.5918">confirmResetPassword(user, token, newPass)</text><rect fill="#F24D5C" height="6" style="stroke:#C82930;stroke-width:1.0;" width="6" x="302" y="429.916"/><text fill="#000000" font-family="sans-serif" font-size="14" lengthAdjust="spacing" textLength="197" x="314" y="437.2129">noActionRightsToValidate(role)</text><rect fill="#F24D5C" height="6" style="stroke:#C82930;stroke-width:1.0;" width="6" x="302" y="448.5371"/><text fill="#000000" font-family="sans-serif" font-size="14" lengthAdjust="spacing" textLength="150" x="314" y="455.834">retrieveUser(username)</text></g><!--class Authenticator--><g id="elem_Authenticator"><rect codeLine="30" fill="#F1F1F1" height="66.6211" id="Authenticator" rx="2.5" ry="2.5" style="stroke:#181818;stroke-width:0.5;" width="277" x="777" y="340.5"/><ellipse cx="869.25" cy="356.5" fill="#B4A7E5" rx="11" ry="11" style="stroke:#181818;stroke-width:1.0;"/><path d="M870.2031,353.1406 L870.2031,359.7969 L871.9219,359.7969 Q872.5313,359.7969 872.7969,360.0313 Q873.0625,360.2656 873.0625,360.6563 Q873.0625,361.0313 872.7969,361.2656 Q872.5313,361.5 871.9219,361.5 L866.7813,361.5 Q866.1719,361.5 865.9063,361.2656 Q865.6406,361.0313 865.6406,360.6406 Q865.6406,360.2656 865.9063,360.0313 Q866.1719,359.7969 866.7813,359.7969 L868.5,359.7969 L868.5,353.1406 L866.7813,353.1406 Q866.1719,353.1406 865.9063,352.9063 Q865.6406,352.6719 865.6406,352.2813 Q865.6406,351.9063 865.9063,351.6719 Q866.1719,351.4375 866.7813,351.4375 L871.9219,351.4375 Q872.5313,351.4375 872.7969,351.6719 Q873.0625,351.9063 873.0625,352.2813 Q873.0625,352.6719 872.7969,352.9063 Q872.5313,353.1406 871.9219,353.1406 L870.2031,353.1406 Z " fill="#000000"/><text fill="#000000" font-family="sans-serif" font-size="14" font-style="italic" lengthAdjust="spacing" textLength="84" x="889.75" y="362.2969">Authenticator</text><line style="stroke:#181818;stroke-width:0.5;" x1="778" x2="1053" y1="372.5" y2="372.5"/><line style="stroke:#181818;stroke-width:0.5;" x1="778" x2="1053" y1="380.5" y2="380.5"/><ellipse cx="788" cy="395.3105" fill="#84BE84" rx="3" ry="3" style="stroke:#038048;stroke-width:1.0;"/><text fill="#000000" font-family="sans-serif" font-size="14" lengthAdjust="spacing" textLength="251" x="797" y="399.6074">authenticate(username, password, role)</text></g><!--class UserRepository--><g id="elem_UserRepository"><rect codeLine="34" fill="#F1F1F1" height="66.6211" id="UserRepository" rx="2.5" ry="2.5" style="stroke:#181818;stroke-width:0.5;" width="150" x="396" y="498.5"/><ellipse cx="420" cy="514.5" fill="#B4A7E5" rx="11" ry="11" style="stroke:#181818;stroke-width:1.0;"/><path d="M420.9531,511.1406 L420.9531,517.7969 L422.6719,517.7969 Q423.2813,517.7969 423.5469,518.0313 Q423.8125,518.2656 423.8125,518.6563 Q423.8125,519.0313 423.5469,519.2656 Q423.2813,519.5 422.6719,519.5 L417.5313,519.5 Q416.9219,519.5 416.6563,519.2656 Q416.3906,519.0313 416.3906,518.6406 Q416.3906,518.2656 416.6563,518.0313 Q416.9219,517.7969 417.5313,517.7969 L419.25,517.7969 L419.25,511.1406 L417.5313,511.1406 Q416.9219,511.1406 416.6563,510.9063 Q416.3906,510.6719 416.3906,510.2813 Q416.3906,509.9063 416.6563,509.6719 Q416.9219,509.4375 417.5313,509.4375 L422.6719,509.4375 Q423.2813,509.4375 423.5469,509.6719 Q423.8125,509.9063 423.8125,510.2813 Q423.8125,510.6719 423.5469,510.9063 Q423.2813,511.1406 422.6719,511.1406 L420.9531,511.1406 Z " fill="#000000"/><text fill="#000000" font-family="sans-serif" font-size="14" font-style="italic" lengthAdjust="spacing" textLength="98" x="436" y="520.2969">UserRepository</text><line style="stroke:#181818;stroke-width:0.5;" x1="397" x2="545" y1="530.5" y2="530.5"/><line style="stroke:#181818;stroke-width:0.5;" x1="397" x2="545" y1="538.5" y2="538.5"/><ellipse cx="407" cy="553.3105" fill="#84BE84" rx="3" ry="3" style="stroke:#038048;stroke-width:1.0;"/><text fill="#000000" font-family="sans-serif" font-size="14" lengthAdjust="spacing" textLength="124" x="416" y="557.6074">findByActive(active)</text></g><!--link LoginUI to AuthenticationCredentialHandler--><g id="link_LoginUI_AuthenticationCredentialHandler"><path codeLine="38" d="M233.35,59 C263.64,59 290.8,59 322.46,59 " fill="none" id="LoginUI-to-AuthenticationCredentialHandler" style="stroke:#181818;stroke-width:1.0;"/><polygon fill="#181818" points="328.46,59,319.46,55,323.46,59,319.46,63,328.46,59" style="stroke:#181818;stroke-width:1.0;"/></g><!--link AuthenticationCredentialHandler to AuthzRegistry--><g id="link_AuthenticationCredentialHandler_AuthzRegistry"><path codeLine="39" d="M471,92.6 C471,104.33 471,110.07 471,121.81 " fill="none" id="AuthenticationCredentialHandler-to-AuthzRegistry" style="stroke:#181818;stroke-width:1.0;"/><polygon fill="#181818" points="471,127.81,475,118.81,471,122.81,467,118.81,471,127.81" style="stroke:#181818;stroke-width:1.0;"/></g><!--link AuthzRegistry to AuthorizationService--><g id="link_AuthzRegistry_AuthorizationService"><path codeLine="40" d="M471,250.34 C471,261.81 471,267.28 471,278.75 " fill="none" id="AuthzRegistry-to-AuthorizationService" style="stroke:#181818;stroke-width:1.0;"/><polygon fill="#181818" points="471,284.75,475,275.75,471,279.75,467,275.75,471,284.75" style="stroke:#181818;stroke-width:1.0;"/></g><!--link AuthorizationService to UserRepository--><g id="link_AuthorizationService_UserRepository"><path codeLine="41" d="M471,463.39 C471,475.05 471,480.7 471,492.36 " fill="none" id="AuthorizationService-to-UserRepository" style="stroke:#181818;stroke-width:1.0;"/><polygon fill="#181818" points="471,498.36,475,489.36,471,493.36,467,489.36,471,498.36" style="stroke:#181818;stroke-width:1.0;"/></g><!--link AuthorizationService to Authenticator--><g id="link_AuthorizationService_Authenticator"><path codeLine="42" d="M648.16,374 C690.94,374 730.07,374 770.78,374 " fill="none" id="AuthorizationService-to-Authenticator" style="stroke:#181818;stroke-width:1.0;"/><polygon fill="#181818" points="776.78,374,767.78,370,771.78,374,767.78,378,776.78,374" style="stroke:#181818;stroke-width:1.0;"/><text fill="#000000" font-family="sans-serif" font-size="13" lengthAdjust="spacing" textLength="67" x="679" y="370.0283">implements</text></g><!--SRC=[XPFBReCm44NtV8MNe98VwA9IsaqhTL6HfdlB7c1Kuud6JgAawh_N8CmhL663xBbpvy71GEc59y5OrLveP50UoIQ9Cj8vyKuLslsR-4b4U1xYELKC6gn7QLwbrGOu5qm6iaws4PfsDPtJUAn1QeCMmiLlTDuUVTqwADdMUrdw3HNbg0ET7XsmbGtauX1CpiGw5fuPNmkeq7c-33QAR8dLaQ6pAE10mO8Cgaikm2hIm5alRGKxu1CgIBFRBaAtQr5Yl2w2ivQMyTK19_EnF7_CHdIncggbhI06kvHSaD6ZtCAG-q_IFJc30pyhaKqNoKrn8yW3HjzW1xluyIrjEwIAbZ3tIL_Ie6vddGB3u1dX1FjWD2oXso1Q3rpAiB09CSJtrhU2n-Yqxn5m69n6Hagq-ldITdk2L7QlBZ7-19lDqpriatjOznO3eCaSrpwyX2LP9IY8vvFy8vkt7NRtAB0v66Z2ZKl-0000]--></g></svg>