<?xml version="1.0" encoding="us-ascii" standalone="no"?><svg xmlns="http://www.w3.org/2000/svg" xmlns:xlink="http://www.w3.org/1999/xlink" contentStyleType="text/css" height="401px" preserveAspectRatio="none" style="width:373px;height:401px;background:#FFFFFF;" version="1.1" viewBox="0 0 373 401" width="373px" zoomAndPan="magnify"><defs/><g><text fill="#000000" font-family="sans-serif" font-size="14" font-weight="bold" lengthAdjust="spacing" textLength="281" x="47.5" y="30.1074">Diagrama de Componentes e Intera&#231;&#245;es</text><rect fill="#FFFFFF" height="257.3281" style="stroke:#181818;stroke-width:1.0;" width="10" x="68.5" y="88.2422"/><rect fill="#FFFFFF" height="31.291" style="stroke:#181818;stroke-width:1.0;" width="10" x="241.5" y="111.5332"/><rect fill="#FFFFFF" height="31.291" style="stroke:#181818;stroke-width:1.0;" width="10" x="318.5" y="275.9883"/><rect fill="none" height="113.1641" style="stroke:#000000;stroke-width:1.5;" width="357" x="10" y="202.1152"/><line style="stroke:#181818;stroke-width:0.5;stroke-dasharray:5.0,5.0;" x1="73" x2="73" y1="78.2422" y2="363.5703"/><line style="stroke:#181818;stroke-width:0.5;stroke-dasharray:5.0,5.0;" x1="246" x2="246" y1="78.2422" y2="363.5703"/><line style="stroke:#181818;stroke-width:0.5;stroke-dasharray:5.0,5.0;" x1="323" x2="323" y1="78.2422" y2="363.5703"/><rect fill="#E2E2F0" height="32.6211" rx="2.5" ry="2.5" style="stroke:#181818;stroke-width:0.5;" width="107" x="20" y="44.6211"/><text fill="#000000" font-family="sans-serif" font-size="14" lengthAdjust="spacing" textLength="93" x="27" y="66.7285">ParentProcess</text><rect fill="#E2E2F0" height="32.6211" rx="2.5" ry="2.5" style="stroke:#181818;stroke-width:0.5;" width="107" x="20" y="362.5703"/><text fill="#000000" font-family="sans-serif" font-size="14" lengthAdjust="spacing" textLength="93" x="27" y="384.6777">ParentProcess</text><rect fill="#E2E2F0" height="32.6211" rx="2.5" ry="2.5" style="stroke:#181818;stroke-width:0.5;" width="67" x="213" y="44.6211"/><text fill="#000000" font-family="sans-serif" font-size="14" lengthAdjust="spacing" textLength="53" x="220" y="66.7285">Watcher</text><rect fill="#E2E2F0" height="32.6211" rx="2.5" ry="2.5" style="stroke:#181818;stroke-width:0.5;" width="67" x="213" y="362.5703"/><text fill="#000000" font-family="sans-serif" font-size="14" lengthAdjust="spacing" textLength="53" x="220" y="384.6777">Watcher</text><rect fill="#E2E2F0" height="32.6211" rx="2.5" ry="2.5" style="stroke:#181818;stroke-width:0.5;" width="67" x="290" y="44.6211"/><text fill="#000000" font-family="sans-serif" font-size="14" lengthAdjust="spacing" textLength="53" x="297" y="66.7285">Workers</text><rect fill="#E2E2F0" height="32.6211" rx="2.5" ry="2.5" style="stroke:#181818;stroke-width:0.5;" width="67" x="290" y="362.5703"/><text fill="#000000" font-family="sans-serif" font-size="14" lengthAdjust="spacing" textLength="53" x="297" y="384.6777">Workers</text><rect fill="#FFFFFF" height="257.3281" style="stroke:#181818;stroke-width:1.0;" width="10" x="68.5" y="88.2422"/><rect fill="#FFFFFF" height="31.291" style="stroke:#181818;stroke-width:1.0;" width="10" x="241.5" y="111.5332"/><rect fill="#FFFFFF" height="31.291" style="stroke:#181818;stroke-width:1.0;" width="10" x="318.5" y="275.9883"/><polygon fill="#181818" points="229.5,107.5332,239.5,111.5332,229.5,115.5332,233.5,111.5332" style="stroke:#181818;stroke-width:1.0;"/><line style="stroke:#181818;stroke-width:1.0;" x1="78.5" x2="235.5" y1="111.5332" y2="111.5332"/><text fill="#000000" font-family="sans-serif" font-size="13" font-weight="bold" lengthAdjust="spacing" textLength="7" x="85.5" y="106.2705">1</text><text fill="#000000" font-family="sans-serif" font-size="13" lengthAdjust="spacing" textLength="93" x="96.5" y="106.2705">createWatcher()</text><polygon fill="#181818" points="89.5,138.8242,79.5,142.8242,89.5,146.8242,85.5,142.8242" style="stroke:#181818;stroke-width:1.0;"/><line style="stroke:#181818;stroke-width:1.0;stroke-dasharray:2.0,2.0;" x1="83.5" x2="245.5" y1="142.8242" y2="142.8242"/><text fill="#000000" font-family="sans-serif" font-size="13" font-weight="bold" lengthAdjust="spacing" textLength="7" x="95.5" y="137.5615">2</text><text fill="#000000" font-family="sans-serif" font-size="13" lengthAdjust="spacing" textLength="128" x="106.5" y="137.5615">directory&#180;s information</text><line style="stroke:#181818;stroke-width:1.0;" x1="78.5" x2="120.5" y1="174.1152" y2="174.1152"/><line style="stroke:#181818;stroke-width:1.0;" x1="120.5" x2="120.5" y1="174.1152" y2="187.1152"/><line style="stroke:#181818;stroke-width:1.0;" x1="79.5" x2="120.5" y1="187.1152" y2="187.1152"/><polygon fill="#181818" points="89.5,183.1152,79.5,187.1152,89.5,191.1152,85.5,187.1152" style="stroke:#181818;stroke-width:1.0;"/><text fill="#000000" font-family="sans-serif" font-size="13" font-weight="bold" lengthAdjust="spacing" textLength="7" x="85.5" y="168.8525">3</text><text fill="#000000" font-family="sans-serif" font-size="13" lengthAdjust="spacing" textLength="93" x="96.5" y="168.8525">createWorkers()</text><path d="M10,202.1152 L83,202.1152 L83,211.4063 L73,221.4063 L10,221.4063 L10,202.1152 " fill="#EEEEEE" style="stroke:#000000;stroke-width:1.5;"/><rect fill="none" height="113.1641" style="stroke:#000000;stroke-width:1.5;" width="357" x="10" y="202.1152"/><text fill="#000000" font-family="sans-serif" font-size="13" font-weight="bold" lengthAdjust="spacing" textLength="28" x="25" y="217.1436">loop</text><text fill="#000000" font-family="sans-serif" font-size="11" font-weight="bold" lengthAdjust="spacing" textLength="201" x="98" y="215.9854">[until parent process receive Ctrl+C]</text><polygon fill="#181818" points="89.5,240.6973,79.5,244.6973,89.5,248.6973,85.5,244.6973" style="stroke:#181818;stroke-width:1.0;"/><line style="stroke:#181818;stroke-width:1.0;" x1="83.5" x2="245.5" y1="244.6973" y2="244.6973"/><text fill="#000000" font-family="sans-serif" font-size="13" font-weight="bold" lengthAdjust="spacing" textLength="7" x="95.5" y="239.4346">4</text><text fill="#000000" font-family="sans-serif" font-size="13" lengthAdjust="spacing" textLength="85" x="106.5" y="239.4346">notifyNewFile()</text><polygon fill="#181818" points="306.5,271.9883,316.5,275.9883,306.5,279.9883,310.5,275.9883" style="stroke:#181818;stroke-width:1.0;"/><line style="stroke:#181818;stroke-width:1.0;" x1="78.5" x2="312.5" y1="275.9883" y2="275.9883"/><text fill="#000000" font-family="sans-serif" font-size="13" font-weight="bold" lengthAdjust="spacing" textLength="7" x="85.5" y="270.7256">5</text><text fill="#000000" font-family="sans-serif" font-size="13" lengthAdjust="spacing" textLength="57" x="96.5" y="270.7256">sendFile()</text><polygon fill="#181818" points="89.5,303.2793,79.5,307.2793,89.5,311.2793,85.5,307.2793" style="stroke:#181818;stroke-width:1.0;"/><line style="stroke:#181818;stroke-width:1.0;stroke-dasharray:2.0,2.0;" x1="83.5" x2="322.5" y1="307.2793" y2="307.2793"/><text fill="#000000" font-family="sans-serif" font-size="13" font-weight="bold" lengthAdjust="spacing" textLength="7" x="95.5" y="302.0166">6</text><text fill="#000000" font-family="sans-serif" font-size="13" lengthAdjust="spacing" textLength="86" x="106.5" y="302.0166">fileProcessed()</text><polygon fill="#181818" points="234.5,341.5703,244.5,345.5703,234.5,349.5703,238.5,345.5703" style="stroke:#181818;stroke-width:1.0;"/><line style="stroke:#181818;stroke-width:1.0;stroke-dasharray:2.0,2.0;" x1="73.5" x2="240.5" y1="345.5703" y2="345.5703"/><text fill="#000000" font-family="sans-serif" font-size="13" font-weight="bold" lengthAdjust="spacing" textLength="7" x="80.5" y="340.3076">7</text><text fill="#000000" font-family="sans-serif" font-size="13" lengthAdjust="spacing" textLength="78" x="91.5" y="340.3076">endWatcher()</text><!--SRC=[RP51JWCn34NtEONL5GZr0bsmAK9YWxgenDfaNB2OIKQEfwWduW9m0NenF6q2amxPH9xvVj_vna5Z6Bfd4kUsh2t1uexnHR13Q0ZMiUjZeA2KWE31Ri7Zn_6BqiAv7aNPSuz1OODYger4JobLVvvG_QlXgszHtaYIS-YLzwXqqU-g4fQtXG8hy4BMaEkhwmcZEBaYNbfZJLf1mq9Ueno-FnDms4NfK3a6vngQasPpNEBoDEVtZDEqCVOm1EKM-fCM-YmsN-AzPQhItgmTsFaTT0uEKNbtUAJtUsvf18_wUIndOzCd2asMZig_fvIeJtvP_bymEslE5JN5S9f90PdHB9XgGoQOh6U2g9Vy0m00]--></g></svg>