<?xml version="1.0" encoding="us-ascii" standalone="no"?><svg xmlns="http://www.w3.org/2000/svg" xmlns:xlink="http://www.w3.org/1999/xlink" contentStyleType="text/css" height="813px" preserveAspectRatio="none" style="width:991px;height:813px;background:#FFFFFF;" version="1.1" viewBox="0 0 991 813" width="991px" zoomAndPan="magnify"><defs/><g><!--cluster ui--><g id="cluster_ui"><path d="M8.5,131.44 L23.5,131.44 A3.75,3.75 0 0 1 26,133.94 L33,153.9283 L247.5,153.9283 A2.5,2.5 0 0 1 250,156.4283 L250,260.92 A2.5,2.5 0 0 1 247.5,263.42 L8.5,263.42 A2.5,2.5 0 0 1 6,260.92 L6,133.94 A2.5,2.5 0 0 1 8.5,131.44 " fill="none" style="stroke:#000000;stroke-width:1.5;"/><line style="stroke:#000000;stroke-width:1.5;" x1="6" x2="33" y1="153.9283" y2="153.9283"/><text fill="#000000" font-family="sans-serif" font-size="14" font-weight="bold" lengthAdjust="spacing" textLength="14" x="10" y="146.9752">ui</text></g><!--cluster customerManager--><g id="cluster_customerManager"><path d="M276.5,6 L405.5,6 A3.75,3.75 0 0 1 408,8.5 L415,28.4883 L981.5,28.4883 A2.5,2.5 0 0 1 984,30.9883 L984,803.64 A2.5,2.5 0 0 1 981.5,806.14 L276.5,806.14 A2.5,2.5 0 0 1 274,803.64 L274,8.5 A2.5,2.5 0 0 1 276.5,6 " fill="none" style="stroke:#000000;stroke-width:1.5;"/><line style="stroke:#000000;stroke-width:1.5;" x1="274" x2="415" y1="28.4883" y2="28.4883"/><text fill="#000000" font-family="sans-serif" font-size="14" font-weight="bold" lengthAdjust="spacing" textLength="128" x="278" y="21.5352">customerManager</text></g><!--cluster application--><g id="cluster_application"><path d="M300.5,49 L381.5,49 A3.75,3.75 0 0 1 384,51.5 L391,71.4883 L957.5,71.4883 A2.5,2.5 0 0 1 960,73.9883 L960,343.36 A2.5,2.5 0 0 1 957.5,345.86 L300.5,345.86 A2.5,2.5 0 0 1 298,343.36 L298,51.5 A2.5,2.5 0 0 1 300.5,49 " fill="none" style="stroke:#000000;stroke-width:1.5;"/><line style="stroke:#000000;stroke-width:1.5;" x1="298" x2="391" y1="71.4883" y2="71.4883"/><text fill="#000000" font-family="sans-serif" font-size="14" font-weight="bold" lengthAdjust="spacing" textLength="80" x="302" y="64.5352">application</text></g><!--cluster domain--><g id="cluster_domain"><path d="M334.5,369.86 L389.5,369.86 A3.75,3.75 0 0 1 392,372.36 L399,392.3483 L923.5,392.3483 A2.5,2.5 0 0 1 926,394.8483 L926,779.64 A2.5,2.5 0 0 1 923.5,782.14 L334.5,782.14 A2.5,2.5 0 0 1 332,779.64 L332,372.36 A2.5,2.5 0 0 1 334.5,369.86 " fill="none" style="stroke:#000000;stroke-width:1.5;"/><line style="stroke:#000000;stroke-width:1.5;" x1="332" x2="399" y1="392.3483" y2="392.3483"/><text fill="#000000" font-family="sans-serif" font-size="14" font-weight="bold" lengthAdjust="spacing" textLength="54" x="336" y="385.3952">domain</text></g><!--class GenerateInterviewModelUI--><g id="elem_GenerateInterviewModelUI"><rect codeLine="6" fill="#F1F1F1" height="80.9766" id="GenerateInterviewModelUI" rx="2.5" ry="2.5" style="stroke:#181818;stroke-width:0.5;" width="212" x="22" y="166.44"/><ellipse cx="37" cy="182.44" fill="#ADD1B2" rx="11" ry="11" style="stroke:#181818;stroke-width:1.0;"/><path d="M39.9731,188.0831 Q39.3921,188.3819 38.7529,188.5313 Q38.1138,188.6807 37.4082,188.6807 Q34.9014,188.6807 33.5815,187.0289 Q32.2617,185.377 32.2617,182.2559 Q32.2617,179.1265 33.5815,177.4747 Q34.9014,175.8228 37.4082,175.8228 Q38.1138,175.8228 38.7612,175.9722 Q39.4087,176.1216 39.9731,176.4205 L39.9731,179.1431 Q39.3423,178.5621 38.7488,178.2923 Q38.1553,178.0225 37.5244,178.0225 Q36.1797,178.0225 35.4949,179.0892 Q34.8101,180.1558 34.8101,182.2559 Q34.8101,184.3477 35.4949,185.4144 Q36.1797,186.481 37.5244,186.481 Q38.1553,186.481 38.7488,186.2112 Q39.3423,185.9415 39.9731,185.3604 Z " fill="#000000"/><text fill="#000000" font-family="sans-serif" font-size="14" lengthAdjust="spacing" textLength="180" x="51" y="187.731">GenerateInterviewModelUI</text><line style="stroke:#181818;stroke-width:0.5;" x1="23" x2="233" y1="198.44" y2="198.44"/><line style="stroke:#181818;stroke-width:0.5;" x1="23" x2="233" y1="206.44" y2="206.44"/><text fill="#000000" font-family="sans-serif" font-size="14" lengthAdjust="spacing" textLength="76" x="28" y="223.9752">+doShow()</text><text fill="#000000" font-family="sans-serif" font-size="14" lengthAdjust="spacing" textLength="80" x="28" y="240.4634">+headline()</text></g><!--class GenerateInterviewModelController--><g id="elem_GenerateInterviewModelController"><rect codeLine="17" fill="#F1F1F1" height="245.8594" id="GenerateInterviewModelController" rx="2.5" ry="2.5" style="stroke:#181818;stroke-width:0.5;" width="630" x="314" y="84"/><ellipse cx="506.75" cy="100" fill="#ADD1B2" rx="11" ry="11" style="stroke:#181818;stroke-width:1.0;"/><path d="M509.7231,105.6431 Q509.1421,105.9419 508.5029,106.0913 Q507.8638,106.2407 507.1582,106.2407 Q504.6514,106.2407 503.3315,104.5889 Q502.0117,102.937 502.0117,99.8159 Q502.0117,96.6865 503.3315,95.0347 Q504.6514,93.3828 507.1582,93.3828 Q507.8638,93.3828 508.5112,93.5322 Q509.1587,93.6816 509.7231,93.9805 L509.7231,96.7031 Q509.0923,96.1221 508.4988,95.8523 Q507.9053,95.5825 507.2744,95.5825 Q505.9297,95.5825 505.2449,96.6492 Q504.5601,97.7158 504.5601,99.8159 Q504.5601,101.9077 505.2449,102.9744 Q505.9297,104.041 507.2744,104.041 Q507.9053,104.041 508.4988,103.7712 Q509.0923,103.5015 509.7231,102.9204 Z " fill="#000000"/><text fill="#000000" font-family="sans-serif" font-size="14" lengthAdjust="spacing" textLength="236" x="527.25" y="105.291">GenerateInterviewModelController</text><line style="stroke:#181818;stroke-width:0.5;" x1="315" x2="943" y1="116" y2="116"/><line style="stroke:#181818;stroke-width:0.5;" x1="315" x2="943" y1="124" y2="124"/><text fill="#000000" font-family="sans-serif" font-size="14" lengthAdjust="spacing" textLength="145" x="320" y="141.5352">+getQuestionTypes()</text><text fill="#000000" font-family="sans-serif" font-size="14" lengthAdjust="spacing" textLength="171" x="320" y="158.0234">+displayQuestionTypes()</text><text fill="#000000" font-family="sans-serif" font-size="14" lengthAdjust="spacing" textLength="421" x="320" y="174.5117">+writeListToFile(List&lt;String&gt; questionForFile, String filePath)</text><text fill="#000000" font-family="sans-serif" font-size="14" lengthAdjust="spacing" textLength="447" x="320" y="191">+dateAnswer(String answer, String errorColor, String resetColor)</text><text fill="#000000" font-family="sans-serif" font-size="14" lengthAdjust="spacing" textLength="525" x="320" y="207.4883">+decimalNumberAnswer(String answer, String errorColor, String resetColor)</text><text fill="#000000" font-family="sans-serif" font-size="14" lengthAdjust="spacing" textLength="521" x="320" y="223.9766">+integerNumberAnswer(String answer, String errorColor, String resetColor)</text><text fill="#000000" font-family="sans-serif" font-size="14" lengthAdjust="spacing" textLength="531" x="320" y="240.4648">+multipleChoiceAnswer(String question, String errorColor, String resetColor)</text><text fill="#000000" font-family="sans-serif" font-size="14" lengthAdjust="spacing" textLength="516" x="320" y="256.9531">+numericRangeAnswer(String answer, String errorColor, String resetColor)</text><text fill="#000000" font-family="sans-serif" font-size="14" lengthAdjust="spacing" textLength="618" x="320" y="273.4414">+singleChoiceAnswer(String question, String answer, String errorColor, String resetColor)</text><text fill="#000000" font-family="sans-serif" font-size="14" lengthAdjust="spacing" textLength="484" x="320" y="289.9297">+shortTextAnswer(String answer, String errorColor, String resetColor)</text><text fill="#000000" font-family="sans-serif" font-size="14" lengthAdjust="spacing" textLength="447" x="320" y="306.418">+timeAnswer(String answer, String errorColor, String resetColor)</text><text fill="#000000" font-family="sans-serif" font-size="14" lengthAdjust="spacing" textLength="480" x="320" y="322.9063">+trueFalseAnswer(String answer, String errorColor, String resetColor)</text></g><!--class Jobinterview--><g id="elem_Jobinterview"><rect codeLine="36" fill="#F1F1F1" height="361.2773" id="Jobinterview" rx="2.5" ry="2.5" style="stroke:#181818;stroke-width:0.5;" width="563" x="347.5" y="404.86"/><ellipse cx="582.75" cy="420.86" fill="#ADD1B2" rx="11" ry="11" style="stroke:#181818;stroke-width:1.0;"/><path d="M585.7231,426.5031 Q585.1421,426.8019 584.5029,426.9513 Q583.8638,427.1007 583.1582,427.1007 Q580.6514,427.1007 579.3315,425.4489 Q578.0117,423.797 578.0117,420.6759 Q578.0117,417.5465 579.3315,415.8947 Q580.6514,414.2428 583.1582,414.2428 Q583.8638,414.2428 584.5112,414.3922 Q585.1587,414.5416 585.7231,414.8405 L585.7231,417.5631 Q585.0923,416.9821 584.4988,416.7123 Q583.9053,416.4425 583.2744,416.4425 Q581.9297,416.4425 581.2449,417.5092 Q580.5601,418.5758 580.5601,420.6759 Q580.5601,422.7677 581.2449,423.8344 Q581.9297,424.901 583.2744,424.901 Q583.9053,424.901 584.4988,424.6312 Q585.0923,424.3615 585.7231,423.7804 Z " fill="#000000"/><text fill="#000000" font-family="sans-serif" font-size="14" lengthAdjust="spacing" textLength="84" x="603.25" y="426.151">Jobinterview</text><line style="stroke:#181818;stroke-width:0.5;" x1="348.5" x2="909.5" y1="436.86" y2="436.86"/><text fill="#000000" font-family="sans-serif" font-size="14" lengthAdjust="spacing" textLength="43" x="353.5" y="454.3952">-int id</text><text fill="#000000" font-family="sans-serif" font-size="14" lengthAdjust="spacing" textLength="145" x="353.5" y="470.8834">-Calendar createdOn</text><text fill="#000000" font-family="sans-serif" font-size="14" lengthAdjust="spacing" textLength="76" x="353.5" y="487.3717">-Time time</text><text fill="#000000" font-family="sans-serif" font-size="14" lengthAdjust="spacing" textLength="87" x="353.5" y="503.86">-Score score</text><text fill="#000000" font-family="sans-serif" font-size="14" lengthAdjust="spacing" textLength="93" x="353.5" y="520.3483">-Result result</text><text fill="#000000" font-family="sans-serif" font-size="14" lengthAdjust="spacing" textLength="166" x="353.5" y="536.8366">-Application application</text><text fill="#000000" font-family="sans-serif" font-size="14" lengthAdjust="spacing" textLength="220" x="353.5" y="553.3248">-InterviewModel interviewModel</text><line style="stroke:#181818;stroke-width:0.5;" x1="348.5" x2="909.5" y1="560.278" y2="560.278"/><text fill="#000000" font-family="sans-serif" font-size="14" lengthAdjust="spacing" textLength="551" x="353.5" y="577.8131">+JobInterview( id,  createdOn,  time,  score,  result,  application,  interviewModel)</text><text fill="#000000" font-family="sans-serif" font-size="14" lengthAdjust="spacing" textLength="105" x="353.5" y="594.3014">+JobInterview()</text><text fill="#000000" font-family="sans-serif" font-size="14" lengthAdjust="spacing" textLength="72" x="353.5" y="610.7897">+identity()</text><text fill="#000000" font-family="sans-serif" font-size="14" lengthAdjust="spacing" textLength="92" x="353.5" y="627.278">+createdOn()</text><text fill="#000000" font-family="sans-serif" font-size="14" lengthAdjust="spacing" textLength="51" x="353.5" y="643.7663">+time()</text><text fill="#000000" font-family="sans-serif" font-size="14" lengthAdjust="spacing" textLength="97" x="353.5" y="660.2545">+application()</text><text fill="#000000" font-family="sans-serif" font-size="14" lengthAdjust="spacing" textLength="125" x="353.5" y="676.7428">+interviewModel()</text><text fill="#000000" font-family="sans-serif" font-size="14" lengthAdjust="spacing" textLength="283" x="353.5" y="693.2311">+changeInterviewModel( interviewModel)</text><text fill="#000000" font-family="sans-serif" font-size="14" lengthAdjust="spacing" textLength="123" x="353.5" y="709.7194">+equals(Object o)</text><text fill="#000000" font-family="sans-serif" font-size="14" lengthAdjust="spacing" textLength="90" x="353.5" y="726.2077">+hashCode()</text><text fill="#000000" font-family="sans-serif" font-size="14" lengthAdjust="spacing" textLength="111" x="353.5" y="742.6959">+sameAs(other)</text><text fill="#000000" font-family="sans-serif" font-size="14" lengthAdjust="spacing" textLength="140" x="353.5" y="759.1842">+compareTo( other)</text></g><!--link GenerateInterviewModelUI to GenerateInterviewModelController--><g id="link_GenerateInterviewModelUI_GenerateInterviewModelController"><path codeLine="64" d="M234.17,206.93 C260.65,206.93 281.12,206.93 307.6,206.93 " fill="none" id="GenerateInterviewModelUI-to-GenerateInterviewModelController" style="stroke:#181818;stroke-width:1.0;"/><polygon fill="#181818" points="313.6,206.93,304.6,202.93,308.6,206.93,304.6,210.93,313.6,206.93" style="stroke:#181818;stroke-width:1.0;"/></g><!--link GenerateInterviewModelController to Jobinterview--><g id="link_GenerateInterviewModelController_Jobinterview"><path codeLine="65" d="M629,330.19 C629,353.92 629,373.26 629,398.4 " fill="none" id="GenerateInterviewModelController-to-Jobinterview" style="stroke:#181818;stroke-width:1.0;"/><polygon fill="#181818" points="629,404.4,633,395.4,629,399.4,625,395.4,629,404.4" style="stroke:#181818;stroke-width:1.0;"/></g><!--SRC=[hLJRRXCn47ttLupoj5KRYGz0bQ98GKMKGXC-mF4EsQ5UpzQU9OI8VsViD5SkBGhIQZqN-vpnN9mUA7GssXQSjocDH2BDUy4Rns5Atn5U6U4EX67E8jn2JH6T40TZEkiUx09XqDDWRKm1W3SOC5e528BnA-7obclqdsxMvX9gdZQyh2vKRD3MdWAgOdwKRuVc-gH466zjK3rcw9tFTfqdPpE_sl_6EEOWaRt7gESlOO7oiSUK3yvM7QOIH4sfytRrgsCPIV0T9PdnX3nMMNmzrTI4nJKyFcsVSCpEAzWuuBCg7wmq1LdZ6OMqn5WzUMtHTfinHevZzhmtHKmenLGGq55h_Vk-dMCy3ueqCPh8_m7LzbweypXkcDp93RTvUJbQwBNCvEvjM9oPhQIc5qRrpz0DHvdXDpalGg7sp3jAx75YVJeBvcJMQcujXG5iP-ajpsaxHcippAq3LAimjXv3RIEuYDhRzLrGuqplL2wcyjHnH4Zvhzez9ksKpAoBwgFztCB13AldU6g1ZjGykHhIRa-bmLp1FWQLCxqkXLZN3QCA1oog7SDUdCAMAQan2CcgA3k6Qbkx8Xo0Ljl9siDkJZQvcuzlLVs67nzxhMLrD_-YpobmDa5ZKpFM3GKeMMsOLB4qMChlkDM76cTSmPDjKqpzcJyzkZ2yVlPvDCzjWA6Y73Q6oRG_0G00]--></g></svg>