<?xml version="1.0" encoding="us-ascii" standalone="no"?><svg xmlns="http://www.w3.org/2000/svg" xmlns:xlink="http://www.w3.org/1999/xlink" contentStyleType="text/css" height="900px" preserveAspectRatio="none" style="width:893px;height:900px;background:#FFFFFF;" version="1.1" viewBox="0 0 893 900" width="893px" zoomAndPan="magnify"><defs/><g><rect fill="#FFFFFF" height="710.4531" style="stroke:#181818;stroke-width:1.0;" width="10" x="81.5" y="91.4883"/><rect fill="#FFFFFF" height="29.3105" style="stroke:#181818;stroke-width:1.0;" width="10" x="363.5" y="112.7988"/><rect fill="#FFFFFF" height="29.3105" style="stroke:#181818;stroke-width:1.0;" width="10" x="363.5" y="171.4199"/><rect fill="#FFFFFF" height="170.8633" style="stroke:#181818;stroke-width:1.0;" width="10" x="363.5" y="230.041"/><rect fill="#FFFFFF" height="29.3105" style="stroke:#181818;stroke-width:1.0;" width="10" x="363.5" y="430.2148"/><rect fill="#FFFFFF" height="29.3105" style="stroke:#181818;stroke-width:1.0;" width="10" x="363.5" y="488.8359"/><rect fill="#FFFFFF" height="130.2422" style="stroke:#181818;stroke-width:1.0;" width="10" x="363.5" y="547.457"/><rect fill="#FFFFFF" height="94.9316" style="stroke:#181818;stroke-width:1.0;" width="10" x="363.5" y="707.0098"/><rect fill="#FFFFFF" height="87.9316" style="stroke:#181818;stroke-width:1.0;" width="10" x="628.5" y="283.6621"/><rect fill="#FFFFFF" height="71.6211" style="stroke:#181818;stroke-width:1.0;" width="10" x="628.5" y="576.7676"/><rect fill="#FFFFFF" height="29.3105" style="stroke:#181818;stroke-width:1.0;" width="10" x="628.5" y="743.3203"/><rect fill="#FFFFFF" height="29.3105" style="stroke:#181818;stroke-width:1.0;" width="10" x="818" y="312.9727"/><rect fill="none" height="469.9688" style="stroke:#000000;stroke-width:1.5;" width="877.5" x="10" y="245.041"/><line style="stroke:#181818;stroke-width:0.5;stroke-dasharray:5.0,5.0;" x1="86" x2="86" y1="81.4883" y2="819.9414"/><line style="stroke:#181818;stroke-width:0.5;stroke-dasharray:5.0,5.0;" x1="368.5" x2="368.5" y1="81.4883" y2="819.9414"/><line style="stroke:#181818;stroke-width:0.5;stroke-dasharray:5.0,5.0;" x1="633.5" x2="633.5" y1="81.4883" y2="819.9414"/><line style="stroke:#181818;stroke-width:0.5;stroke-dasharray:5.0,5.0;" x1="822.5" x2="822.5" y1="81.4883" y2="819.9414"/><text fill="#000000" font-family="sans-serif" font-size="14" lengthAdjust="spacing" textLength="127" x="20" y="78.5352">CustomerManager</text><ellipse cx="86.5" cy="13.5" fill="#E2E2F0" rx="8" ry="8" style="stroke:#181818;stroke-width:0.5;"/><path d="M86.5,21.5 L86.5,48.5 M73.5,29.5 L99.5,29.5 M86.5,48.5 L73.5,63.5 M86.5,48.5 L99.5,63.5 " fill="none" style="stroke:#181818;stroke-width:0.5;"/><text fill="#000000" font-family="sans-serif" font-size="14" lengthAdjust="spacing" textLength="127" x="20" y="832.4766">CustomerManager</text><ellipse cx="86.5" cy="843.9297" fill="#E2E2F0" rx="8" ry="8" style="stroke:#181818;stroke-width:0.5;"/><path d="M86.5,851.9297 L86.5,878.9297 M73.5,859.9297 L99.5,859.9297 M86.5,878.9297 L73.5,893.9297 M86.5,878.9297 L99.5,893.9297 " fill="none" style="stroke:#181818;stroke-width:0.5;"/><rect fill="#E2E2F0" height="46.9766" rx="2.5" ry="2.5" style="stroke:#181818;stroke-width:0.5;" width="194" x="271.5" y="33.5117"/><text fill="#000000" font-family="sans-serif" font-size="14" font-style="italic" lengthAdjust="spacing" textLength="101" x="318" y="54.0469">&#171;presentation&#187;</text><text fill="#000000" font-family="sans-serif" font-size="14" lengthAdjust="spacing" textLength="180" x="278.5" y="70.5352">GenerateInterviewModelUI</text><rect fill="#E2E2F0" height="46.9766" rx="2.5" ry="2.5" style="stroke:#181818;stroke-width:0.5;" width="194" x="271.5" y="818.9414"/><text fill="#000000" font-family="sans-serif" font-size="14" font-style="italic" lengthAdjust="spacing" textLength="101" x="318" y="839.4766">&#171;presentation&#187;</text><text fill="#000000" font-family="sans-serif" font-size="14" lengthAdjust="spacing" textLength="180" x="278.5" y="855.9648">GenerateInterviewModelUI</text><rect fill="#E2E2F0" height="46.9766" rx="2.5" ry="2.5" style="stroke:#181818;stroke-width:0.5;" width="250" x="508.5" y="33.5117"/><text fill="#000000" font-family="sans-serif" font-size="14" font-style="italic" lengthAdjust="spacing" textLength="81" x="593" y="54.0469">&#171;controller&#187;</text><text fill="#000000" font-family="sans-serif" font-size="14" lengthAdjust="spacing" textLength="236" x="515.5" y="70.5352">GenerateInterviewModelController</text><rect fill="#E2E2F0" height="46.9766" rx="2.5" ry="2.5" style="stroke:#181818;stroke-width:0.5;" width="250" x="508.5" y="818.9414"/><text fill="#000000" font-family="sans-serif" font-size="14" font-style="italic" lengthAdjust="spacing" textLength="81" x="593" y="839.4766">&#171;controller&#187;</text><text fill="#000000" font-family="sans-serif" font-size="14" lengthAdjust="spacing" textLength="236" x="515.5" y="855.9648">GenerateInterviewModelController</text><rect fill="#E2E2F0" height="46.9766" rx="2.5" ry="2.5" style="stroke:#181818;stroke-width:0.5;" width="109" x="768.5" y="33.5117"/><text fill="#000000" font-family="sans-serif" font-size="14" font-style="italic" lengthAdjust="spacing" textLength="53" x="796.5" y="54.0469">&#171;enum&#187;</text><text fill="#000000" font-family="sans-serif" font-size="14" lengthAdjust="spacing" textLength="95" x="775.5" y="70.5352">QuestionType</text><rect fill="#E2E2F0" height="46.9766" rx="2.5" ry="2.5" style="stroke:#181818;stroke-width:0.5;" width="109" x="768.5" y="818.9414"/><text fill="#000000" font-family="sans-serif" font-size="14" font-style="italic" lengthAdjust="spacing" textLength="53" x="796.5" y="839.4766">&#171;enum&#187;</text><text fill="#000000" font-family="sans-serif" font-size="14" lengthAdjust="spacing" textLength="95" x="775.5" y="855.9648">QuestionType</text><rect fill="#FFFFFF" height="710.4531" style="stroke:#181818;stroke-width:1.0;" width="10" x="81.5" y="91.4883"/><rect fill="#FFFFFF" height="29.3105" style="stroke:#181818;stroke-width:1.0;" width="10" x="363.5" y="112.7988"/><rect fill="#FFFFFF" height="29.3105" style="stroke:#181818;stroke-width:1.0;" width="10" x="363.5" y="171.4199"/><rect fill="#FFFFFF" height="170.8633" style="stroke:#181818;stroke-width:1.0;" width="10" x="363.5" y="230.041"/><rect fill="#FFFFFF" height="29.3105" style="stroke:#181818;stroke-width:1.0;" width="10" x="363.5" y="430.2148"/><rect fill="#FFFFFF" height="29.3105" style="stroke:#181818;stroke-width:1.0;" width="10" x="363.5" y="488.8359"/><rect fill="#FFFFFF" height="130.2422" style="stroke:#181818;stroke-width:1.0;" width="10" x="363.5" y="547.457"/><rect fill="#FFFFFF" height="94.9316" style="stroke:#181818;stroke-width:1.0;" width="10" x="363.5" y="707.0098"/><rect fill="#FFFFFF" height="87.9316" style="stroke:#181818;stroke-width:1.0;" width="10" x="628.5" y="283.6621"/><rect fill="#FFFFFF" height="71.6211" style="stroke:#181818;stroke-width:1.0;" width="10" x="628.5" y="576.7676"/><rect fill="#FFFFFF" height="29.3105" style="stroke:#181818;stroke-width:1.0;" width="10" x="628.5" y="743.3203"/><rect fill="#FFFFFF" height="29.3105" style="stroke:#181818;stroke-width:1.0;" width="10" x="818" y="312.9727"/><polygon fill="#181818" points="351.5,108.7988,361.5,112.7988,351.5,116.7988,355.5,112.7988" style="stroke:#181818;stroke-width:1.0;"/><line style="stroke:#181818;stroke-width:1.0;" x1="91.5" x2="357.5" y1="112.7988" y2="112.7988"/><text fill="#000000" font-family="sans-serif" font-size="13" font-weight="bold" lengthAdjust="spacing" textLength="9" x="98.5" y="108.0566">1</text><text fill="#000000" font-family="sans-serif" font-size="13" lengthAdjust="spacing" textLength="208" x="111.5" y="108.0566">asks to generate interview model</text><polygon fill="#181818" points="102.5,138.1094,92.5,142.1094,102.5,146.1094,98.5,142.1094" style="stroke:#181818;stroke-width:1.0;"/><line style="stroke:#181818;stroke-width:1.0;stroke-dasharray:2.0,2.0;" x1="96.5" x2="367.5" y1="142.1094" y2="142.1094"/><text fill="#000000" font-family="sans-serif" font-size="13" font-weight="bold" lengthAdjust="spacing" textLength="9" x="108.5" y="137.3672">2</text><text fill="#000000" font-family="sans-serif" font-size="13" lengthAdjust="spacing" textLength="235" x="121.5" y="137.3672">requests candidate telephoneNumber</text><polygon fill="#181818" points="351.5,167.4199,361.5,171.4199,351.5,175.4199,355.5,171.4199" style="stroke:#181818;stroke-width:1.0;"/><line style="stroke:#181818;stroke-width:1.0;" x1="91.5" x2="357.5" y1="171.4199" y2="171.4199"/><text fill="#000000" font-family="sans-serif" font-size="13" font-weight="bold" lengthAdjust="spacing" textLength="9" x="98.5" y="166.6777">3</text><text fill="#000000" font-family="sans-serif" font-size="13" lengthAdjust="spacing" textLength="170" x="111.5" y="166.6777">provides telephoneNumber</text><polygon fill="#181818" points="102.5,196.7305,92.5,200.7305,102.5,204.7305,98.5,200.7305" style="stroke:#181818;stroke-width:1.0;"/><line style="stroke:#181818;stroke-width:1.0;stroke-dasharray:2.0,2.0;" x1="96.5" x2="367.5" y1="200.7305" y2="200.7305"/><text fill="#000000" font-family="sans-serif" font-size="13" font-weight="bold" lengthAdjust="spacing" textLength="9" x="108.5" y="195.9883">4</text><text fill="#000000" font-family="sans-serif" font-size="13" lengthAdjust="spacing" textLength="185" x="121.5" y="195.9883">requests numberOfQuestions</text><polygon fill="#181818" points="351.5,226.041,361.5,230.041,351.5,234.041,355.5,230.041" style="stroke:#181818;stroke-width:1.0;"/><line style="stroke:#181818;stroke-width:1.0;" x1="91.5" x2="357.5" y1="230.041" y2="230.041"/><text fill="#000000" font-family="sans-serif" font-size="13" font-weight="bold" lengthAdjust="spacing" textLength="9" x="98.5" y="225.2988">5</text><text fill="#000000" font-family="sans-serif" font-size="13" lengthAdjust="spacing" textLength="185" x="111.5" y="225.2988">provides numberOfQuestions</text><path d="M10,245.041 L84,245.041 L84,252.3516 L74,262.3516 L10,262.3516 L10,245.041 " fill="#EEEEEE" style="stroke:#000000;stroke-width:1.5;"/><rect fill="none" height="469.9688" style="stroke:#000000;stroke-width:1.5;" width="877.5" x="10" y="245.041"/><text fill="#000000" font-family="sans-serif" font-size="13" font-weight="bold" lengthAdjust="spacing" textLength="29" x="25" y="258.6094">loop</text><text fill="#000000" font-family="sans-serif" font-size="11" font-weight="bold" lengthAdjust="spacing" textLength="156" x="99" y="257.6758">[numberOfQuestions times]</text><polygon fill="#181818" points="616.5,279.6621,626.5,283.6621,616.5,287.6621,620.5,283.6621" style="stroke:#181818;stroke-width:1.0;"/><line style="stroke:#181818;stroke-width:1.0;" x1="373.5" x2="622.5" y1="283.6621" y2="283.6621"/><text fill="#000000" font-family="sans-serif" font-size="13" font-weight="bold" lengthAdjust="spacing" textLength="9" x="380.5" y="278.9199">6</text><text fill="#000000" font-family="sans-serif" font-size="13" lengthAdjust="spacing" textLength="147" x="393.5" y="278.9199">displayQuestionTypes()</text><polygon fill="#181818" points="806,308.9727,816,312.9727,806,316.9727,810,312.9727" style="stroke:#181818;stroke-width:1.0;"/><line style="stroke:#181818;stroke-width:1.0;" x1="638.5" x2="812" y1="312.9727" y2="312.9727"/><text fill="#000000" font-family="sans-serif" font-size="13" font-weight="bold" lengthAdjust="spacing" textLength="9" x="645.5" y="308.2305">7</text><text fill="#000000" font-family="sans-serif" font-size="13" lengthAdjust="spacing" textLength="48" x="658.5" y="308.2305">values()</text><polygon fill="#181818" points="649.5,338.2832,639.5,342.2832,649.5,346.2832,645.5,342.2832" style="stroke:#181818;stroke-width:1.0;"/><line style="stroke:#181818;stroke-width:1.0;stroke-dasharray:2.0,2.0;" x1="643.5" x2="822" y1="342.2832" y2="342.2832"/><text fill="#000000" font-family="sans-serif" font-size="13" font-weight="bold" lengthAdjust="spacing" textLength="9" x="655.5" y="337.541">8</text><text fill="#000000" font-family="sans-serif" font-size="13" lengthAdjust="spacing" textLength="134" x="668.5" y="337.541">return questionTypes</text><polygon fill="#181818" points="384.5,367.5938,374.5,371.5938,384.5,375.5938,380.5,371.5938" style="stroke:#181818;stroke-width:1.0;"/><line style="stroke:#181818;stroke-width:1.0;stroke-dasharray:2.0,2.0;" x1="378.5" x2="632.5" y1="371.5938" y2="371.5938"/><text fill="#000000" font-family="sans-serif" font-size="13" font-weight="bold" lengthAdjust="spacing" textLength="9" x="390.5" y="366.8516">9</text><text fill="#000000" font-family="sans-serif" font-size="13" lengthAdjust="spacing" textLength="148" x="403.5" y="366.8516">displays questionTypes</text><polygon fill="#181818" points="102.5,396.9043,92.5,400.9043,102.5,404.9043,98.5,400.9043" style="stroke:#181818;stroke-width:1.0;"/><line style="stroke:#181818;stroke-width:1.0;stroke-dasharray:2.0,2.0;" x1="96.5" x2="367.5" y1="400.9043" y2="400.9043"/><text fill="#000000" font-family="sans-serif" font-size="13" font-weight="bold" lengthAdjust="spacing" textLength="18" x="108.5" y="396.1621">10</text><text fill="#000000" font-family="sans-serif" font-size="13" lengthAdjust="spacing" textLength="212" x="130.5" y="396.1621">requests to select a questionType</text><polygon fill="#181818" points="351.5,426.2148,361.5,430.2148,351.5,434.2148,355.5,430.2148" style="stroke:#181818;stroke-width:1.0;"/><line style="stroke:#181818;stroke-width:1.0;" x1="91.5" x2="357.5" y1="430.2148" y2="430.2148"/><text fill="#000000" font-family="sans-serif" font-size="13" font-weight="bold" lengthAdjust="spacing" textLength="18" x="98.5" y="425.4727">11</text><text fill="#000000" font-family="sans-serif" font-size="13" lengthAdjust="spacing" textLength="143" x="120.5" y="425.4727">provides questionType</text><polygon fill="#181818" points="102.5,455.5254,92.5,459.5254,102.5,463.5254,98.5,459.5254" style="stroke:#181818;stroke-width:1.0;"/><line style="stroke:#181818;stroke-width:1.0;stroke-dasharray:2.0,2.0;" x1="96.5" x2="367.5" y1="459.5254" y2="459.5254"/><text fill="#000000" font-family="sans-serif" font-size="13" font-weight="bold" lengthAdjust="spacing" textLength="18" x="108.5" y="454.7832">12</text><text fill="#000000" font-family="sans-serif" font-size="13" lengthAdjust="spacing" textLength="113" x="130.5" y="454.7832">requests question</text><polygon fill="#181818" points="351.5,484.8359,361.5,488.8359,351.5,492.8359,355.5,488.8359" style="stroke:#181818;stroke-width:1.0;"/><line style="stroke:#181818;stroke-width:1.0;" x1="91.5" x2="357.5" y1="488.8359" y2="488.8359"/><text fill="#000000" font-family="sans-serif" font-size="13" font-weight="bold" lengthAdjust="spacing" textLength="18" x="98.5" y="484.0938">13</text><text fill="#000000" font-family="sans-serif" font-size="13" lengthAdjust="spacing" textLength="113" x="120.5" y="484.0938">provides question</text><polygon fill="#181818" points="102.5,514.1465,92.5,518.1465,102.5,522.1465,98.5,518.1465" style="stroke:#181818;stroke-width:1.0;"/><line style="stroke:#181818;stroke-width:1.0;stroke-dasharray:2.0,2.0;" x1="96.5" x2="367.5" y1="518.1465" y2="518.1465"/><text fill="#000000" font-family="sans-serif" font-size="13" font-weight="bold" lengthAdjust="spacing" textLength="18" x="108.5" y="513.4043">14</text><text fill="#000000" font-family="sans-serif" font-size="13" lengthAdjust="spacing" textLength="102" x="130.5" y="513.4043">requests answer</text><polygon fill="#181818" points="351.5,543.457,361.5,547.457,351.5,551.457,355.5,547.457" style="stroke:#181818;stroke-width:1.0;"/><line style="stroke:#181818;stroke-width:1.0;" x1="91.5" x2="357.5" y1="547.457" y2="547.457"/><text fill="#000000" font-family="sans-serif" font-size="13" font-weight="bold" lengthAdjust="spacing" textLength="18" x="98.5" y="542.7148">15</text><text fill="#000000" font-family="sans-serif" font-size="13" lengthAdjust="spacing" textLength="102" x="120.5" y="542.7148">provides answer</text><polygon fill="#181818" points="616.5,572.7676,626.5,576.7676,616.5,580.7676,620.5,576.7676" style="stroke:#181818;stroke-width:1.0;"/><line style="stroke:#181818;stroke-width:1.0;" x1="373.5" x2="622.5" y1="576.7676" y2="576.7676"/><text fill="#000000" font-family="sans-serif" font-size="13" font-weight="bold" lengthAdjust="spacing" textLength="18" x="380.5" y="572.0254">16</text><text fill="#000000" font-family="sans-serif" font-size="13" lengthAdjust="spacing" textLength="83" x="402.5" y="572.0254">verify answer</text><line style="stroke:#181818;stroke-width:1.0;" x1="638.5" x2="680.5" y1="606.0781" y2="606.0781"/><line style="stroke:#181818;stroke-width:1.0;" x1="680.5" x2="680.5" y1="606.0781" y2="619.0781"/><line style="stroke:#181818;stroke-width:1.0;" x1="639.5" x2="680.5" y1="619.0781" y2="619.0781"/><polygon fill="#181818" points="649.5,615.0781,639.5,619.0781,649.5,623.0781,645.5,619.0781" style="stroke:#181818;stroke-width:1.0;"/><text fill="#000000" font-family="sans-serif" font-size="13" font-weight="bold" lengthAdjust="spacing" textLength="18" x="645.5" y="601.3359">17</text><text fill="#000000" font-family="sans-serif" font-size="13" lengthAdjust="spacing" textLength="85" x="667.5" y="601.3359">check answer</text><polygon fill="#181818" points="384.5,644.3887,374.5,648.3887,384.5,652.3887,380.5,648.3887" style="stroke:#181818;stroke-width:1.0;"/><line style="stroke:#181818;stroke-width:1.0;stroke-dasharray:2.0,2.0;" x1="378.5" x2="632.5" y1="648.3887" y2="648.3887"/><text fill="#000000" font-family="sans-serif" font-size="13" font-weight="bold" lengthAdjust="spacing" textLength="18" x="390.5" y="643.6465">18</text><text fill="#000000" font-family="sans-serif" font-size="13" lengthAdjust="spacing" textLength="92" x="412.5" y="643.6465">return success</text><polygon fill="#181818" points="102.5,673.6992,92.5,677.6992,102.5,681.6992,98.5,677.6992" style="stroke:#181818;stroke-width:1.0;"/><line style="stroke:#181818;stroke-width:1.0;stroke-dasharray:2.0,2.0;" x1="96.5" x2="367.5" y1="677.6992" y2="677.6992"/><text fill="#000000" font-family="sans-serif" font-size="13" font-weight="bold" lengthAdjust="spacing" textLength="18" x="108.5" y="672.957">19</text><text fill="#000000" font-family="sans-serif" font-size="13" lengthAdjust="spacing" textLength="92" x="130.5" y="672.957">requests score</text><polygon fill="#181818" points="351.5,703.0098,361.5,707.0098,351.5,711.0098,355.5,707.0098" style="stroke:#181818;stroke-width:1.0;"/><line style="stroke:#181818;stroke-width:1.0;" x1="91.5" x2="357.5" y1="707.0098" y2="707.0098"/><text fill="#000000" font-family="sans-serif" font-size="13" font-weight="bold" lengthAdjust="spacing" textLength="18" x="98.5" y="702.2676">20</text><text fill="#000000" font-family="sans-serif" font-size="13" lengthAdjust="spacing" textLength="92" x="120.5" y="702.2676">provides score</text><polygon fill="#181818" points="616.5,739.3203,626.5,743.3203,616.5,747.3203,620.5,743.3203" style="stroke:#181818;stroke-width:1.0;"/><line style="stroke:#181818;stroke-width:1.0;" x1="373.5" x2="622.5" y1="743.3203" y2="743.3203"/><text fill="#000000" font-family="sans-serif" font-size="13" font-weight="bold" lengthAdjust="spacing" textLength="18" x="380.5" y="738.5781">21</text><text fill="#000000" font-family="sans-serif" font-size="13" lengthAdjust="spacing" textLength="214" x="402.5" y="738.5781">writeListToFile(questionList, path)</text><polygon fill="#181818" points="384.5,768.6309,374.5,772.6309,384.5,776.6309,380.5,772.6309" style="stroke:#181818;stroke-width:1.0;"/><line style="stroke:#181818;stroke-width:1.0;stroke-dasharray:2.0,2.0;" x1="378.5" x2="632.5" y1="772.6309" y2="772.6309"/><text fill="#000000" font-family="sans-serif" font-size="13" font-weight="bold" lengthAdjust="spacing" textLength="18" x="390.5" y="767.8887">22</text><text fill="#000000" font-family="sans-serif" font-size="13" lengthAdjust="spacing" textLength="92" x="412.5" y="767.8887">return success</text><polygon fill="#181818" points="97.5,797.9414,87.5,801.9414,97.5,805.9414,93.5,801.9414" style="stroke:#181818;stroke-width:1.0;"/><line style="stroke:#181818;stroke-width:1.0;stroke-dasharray:2.0,2.0;" x1="91.5" x2="367.5" y1="801.9414" y2="801.9414"/><text fill="#000000" font-family="sans-serif" font-size="13" font-weight="bold" lengthAdjust="spacing" textLength="18" x="103.5" y="797.1992">23</text><text fill="#000000" font-family="sans-serif" font-size="13" lengthAdjust="spacing" textLength="174" x="125.5" y="797.1992">confirms operation success</text><!--SRC=[pLRRJiCm37tdA_m84lk12Uq52OJ4HKZm0I7rM4IR1DljjBydORUsMrc0AP2tHlQv9BORLOkpTVM2T7AYj3Y2ovh5LKXtoghNkEqLYT76AojmZHP92TvOGMeCpkzSWUNp3LnSU496AqgCivD9GjQbiqAkB952jjvyz78VQ-G8-RJm6E8mY0qHKQjf0kIkN0YhjmcZoR3oCIX-On07hwiGCEiOg6BG9-I6S0XeoHpN8DKewEXB6mFXU_J8e9KjJ14v14lqCsVnVdar4RN0H0dVC-_9DQP0tikPmVIo-1wcwtlcB6RtioPmbixvtMmGKo6d7CRaS3ECeJ3iIxLebpwVdctG3yZSGcq53Ojg4GTndMuRGwFAkaFTeMy7TwdYwa2DqemJIaqMtjl6Ey2jkXXcFspqwofP7JyFw3XOc_ikuAVj4SOIXyRK0geZ9qkNx11cc0Thpgm6SvbJbkUPndcBwYZ6algtGJBJHPlx5_CgTMObwD8pr6zzMSSQ5wkXnRNMo7yq9bWxoZCJjam9F6WBY7_CenNOd8pWhM5vSbUcnDDr0yUjS_1APXb-a_-s7C8ZUcgeOd0-feLpwSX8AerMKFzf_G40]--></g></svg>