<?xml version="1.0" encoding="us-ascii" standalone="no"?><svg xmlns="http://www.w3.org/2000/svg" xmlns:xlink="http://www.w3.org/1999/xlink" contentStyleType="text/css" height="661px" preserveAspectRatio="none" style="width:462px;height:661px;background:#FFFFFF;" version="1.1" viewBox="0 0 462 661" width="462px" zoomAndPan="magnify"><defs/><g><text fill="#000000" font-family="sans-serif" font-size="14" font-weight="bold" lengthAdjust="spacing" textLength="434" x="10.25" y="28.5352">System Sequence Diagram (SSD) - Generate Interview Model</text><rect fill="#FFFFFF" height="433.6582" style="stroke:#181818;stroke-width:1.0;" width="10" x="83.5" y="128.9766"/><rect fill="#FFFFFF" height="29.3105" style="stroke:#181818;stroke-width:1.0;" width="10" x="397.5" y="150.2871"/><rect fill="#FFFFFF" height="29.3105" style="stroke:#181818;stroke-width:1.0;" width="10" x="397.5" y="208.9082"/><rect fill="#FFFFFF" height="53.6211" style="stroke:#181818;stroke-width:1.0;" width="10" x="397.5" y="267.5293"/><rect fill="#FFFFFF" height="29.3105" style="stroke:#181818;stroke-width:1.0;" width="10" x="397.5" y="350.4609"/><rect fill="#FFFFFF" height="29.3105" style="stroke:#181818;stroke-width:1.0;" width="10" x="397.5" y="409.082"/><rect fill="#FFFFFF" height="29.3105" style="stroke:#181818;stroke-width:1.0;" width="10" x="397.5" y="467.7031"/><rect fill="#FFFFFF" height="36.3105" style="stroke:#181818;stroke-width:1.0;" width="10" x="397.5" y="526.3242"/><rect fill="none" height="251.7949" style="stroke:#000000;stroke-width:1.5;" width="435.5" x="10" y="282.5293"/><line style="stroke:#181818;stroke-width:0.5;stroke-dasharray:5.0,5.0;" x1="88" x2="88" y1="118.9766" y2="580.6348"/><line style="stroke:#181818;stroke-width:0.5;stroke-dasharray:5.0,5.0;" x1="402.5" x2="402.5" y1="118.9766" y2="580.6348"/><text fill="#000000" font-family="sans-serif" font-size="14" lengthAdjust="spacing" textLength="131" x="20" y="116.0234">Customer Manager</text><ellipse cx="88.5" cy="50.9883" fill="#E3E3E3" rx="8" ry="8" style="stroke:#181818;stroke-width:0.5;"/><path d="M88.5,58.9883 L88.5,85.9883 M75.5,66.9883 L101.5,66.9883 M88.5,85.9883 L75.5,100.9883 M88.5,85.9883 L101.5,100.9883 " fill="none" style="stroke:#181818;stroke-width:0.5;"/><text fill="#000000" font-family="sans-serif" font-size="14" lengthAdjust="spacing" textLength="131" x="20" y="593.1699">Customer Manager</text><ellipse cx="88.5" cy="604.623" fill="#E3E3E3" rx="8" ry="8" style="stroke:#181818;stroke-width:0.5;"/><path d="M88.5,612.623 L88.5,639.623 M75.5,620.623 L101.5,620.623 M88.5,639.623 L75.5,654.623 M88.5,639.623 L101.5,654.623 " fill="none" style="stroke:#181818;stroke-width:0.5;"/><rect fill="#E3E3E3" height="30.4883" rx="2.5" ry="2.5" style="stroke:#181818;stroke-width:0.5;" width="66" x="369.5" y="87.4883"/><text fill="#000000" font-family="sans-serif" font-size="14" lengthAdjust="spacing" textLength="52" x="376.5" y="108.0234">:System</text><rect fill="#E3E3E3" height="30.4883" rx="2.5" ry="2.5" style="stroke:#181818;stroke-width:0.5;" width="66" x="369.5" y="579.6348"/><text fill="#000000" font-family="sans-serif" font-size="14" lengthAdjust="spacing" textLength="52" x="376.5" y="600.1699">:System</text><rect fill="#FFFFFF" height="433.6582" style="stroke:#181818;stroke-width:1.0;" width="10" x="83.5" y="128.9766"/><rect fill="#FFFFFF" height="29.3105" style="stroke:#181818;stroke-width:1.0;" width="10" x="397.5" y="150.2871"/><rect fill="#FFFFFF" height="29.3105" style="stroke:#181818;stroke-width:1.0;" width="10" x="397.5" y="208.9082"/><rect fill="#FFFFFF" height="53.6211" style="stroke:#181818;stroke-width:1.0;" width="10" x="397.5" y="267.5293"/><rect fill="#FFFFFF" height="29.3105" style="stroke:#181818;stroke-width:1.0;" width="10" x="397.5" y="350.4609"/><rect fill="#FFFFFF" height="29.3105" style="stroke:#181818;stroke-width:1.0;" width="10" x="397.5" y="409.082"/><rect fill="#FFFFFF" height="29.3105" style="stroke:#181818;stroke-width:1.0;" width="10" x="397.5" y="467.7031"/><rect fill="#FFFFFF" height="36.3105" style="stroke:#181818;stroke-width:1.0;" width="10" x="397.5" y="526.3242"/><polygon fill="#181818" points="385.5,146.2871,395.5,150.2871,385.5,154.2871,389.5,150.2871" style="stroke:#181818;stroke-width:1.0;"/><line style="stroke:#181818;stroke-width:1.0;" x1="93.5" x2="391.5" y1="150.2871" y2="150.2871"/><text fill="#000000" font-family="sans-serif" font-size="13" font-weight="bold" lengthAdjust="spacing" textLength="9" x="100.5" y="145.5449">1</text><text fill="#000000" font-family="sans-serif" font-size="13" lengthAdjust="spacing" textLength="208" x="113.5" y="145.5449">asks to generate interview model</text><polygon fill="#181818" points="104.5,175.5977,94.5,179.5977,104.5,183.5977,100.5,179.5977" style="stroke:#181818;stroke-width:1.0;"/><line style="stroke:#181818;stroke-width:1.0;stroke-dasharray:2.0,2.0;" x1="98.5" x2="401.5" y1="179.5977" y2="179.5977"/><text fill="#000000" font-family="sans-serif" font-size="13" font-weight="bold" lengthAdjust="spacing" textLength="9" x="110.5" y="174.8555">2</text><text fill="#000000" font-family="sans-serif" font-size="13" lengthAdjust="spacing" textLength="235" x="123.5" y="174.8555">requests candidate telephoneNumber</text><polygon fill="#181818" points="385.5,204.9082,395.5,208.9082,385.5,212.9082,389.5,208.9082" style="stroke:#181818;stroke-width:1.0;"/><line style="stroke:#181818;stroke-width:1.0;" x1="93.5" x2="391.5" y1="208.9082" y2="208.9082"/><text fill="#000000" font-family="sans-serif" font-size="13" font-weight="bold" lengthAdjust="spacing" textLength="9" x="100.5" y="204.166">3</text><text fill="#000000" font-family="sans-serif" font-size="13" lengthAdjust="spacing" textLength="235" x="113.5" y="204.166">provides candidate telephoneNumber</text><polygon fill="#181818" points="104.5,234.2188,94.5,238.2188,104.5,242.2188,100.5,238.2188" style="stroke:#181818;stroke-width:1.0;"/><line style="stroke:#181818;stroke-width:1.0;stroke-dasharray:2.0,2.0;" x1="98.5" x2="401.5" y1="238.2188" y2="238.2188"/><text fill="#000000" font-family="sans-serif" font-size="13" font-weight="bold" lengthAdjust="spacing" textLength="9" x="110.5" y="233.4766">4</text><text fill="#000000" font-family="sans-serif" font-size="13" lengthAdjust="spacing" textLength="189" x="123.5" y="233.4766">requests number of questions</text><polygon fill="#181818" points="385.5,263.5293,395.5,267.5293,385.5,271.5293,389.5,267.5293" style="stroke:#181818;stroke-width:1.0;"/><line style="stroke:#181818;stroke-width:1.0;" x1="93.5" x2="391.5" y1="267.5293" y2="267.5293"/><text fill="#000000" font-family="sans-serif" font-size="13" font-weight="bold" lengthAdjust="spacing" textLength="9" x="100.5" y="262.7871">5</text><text fill="#000000" font-family="sans-serif" font-size="13" lengthAdjust="spacing" textLength="189" x="113.5" y="262.7871">provides number of questions</text><path d="M10,282.5293 L84,282.5293 L84,289.8398 L74,299.8398 L10,299.8398 L10,282.5293 " fill="#EEEEEE" style="stroke:#000000;stroke-width:1.5;"/><rect fill="none" height="251.7949" style="stroke:#000000;stroke-width:1.5;" width="435.5" x="10" y="282.5293"/><text fill="#000000" font-family="sans-serif" font-size="13" font-weight="bold" lengthAdjust="spacing" textLength="29" x="25" y="296.0977">loop</text><text fill="#000000" font-family="sans-serif" font-size="11" font-weight="bold" lengthAdjust="spacing" textLength="127" x="99" y="295.1641">[while (questions left)]</text><polygon fill="#181818" points="104.5,317.1504,94.5,321.1504,104.5,325.1504,100.5,321.1504" style="stroke:#181818;stroke-width:1.0;"/><line style="stroke:#181818;stroke-width:1.0;stroke-dasharray:2.0,2.0;" x1="98.5" x2="401.5" y1="321.1504" y2="321.1504"/><text fill="#000000" font-family="sans-serif" font-size="13" font-weight="bold" lengthAdjust="spacing" textLength="9" x="110.5" y="316.4082">6</text><text fill="#000000" font-family="sans-serif" font-size="13" lengthAdjust="spacing" textLength="143" x="123.5" y="316.4082">requests questionType</text><polygon fill="#181818" points="385.5,346.4609,395.5,350.4609,385.5,354.4609,389.5,350.4609" style="stroke:#181818;stroke-width:1.0;"/><line style="stroke:#181818;stroke-width:1.0;" x1="93.5" x2="391.5" y1="350.4609" y2="350.4609"/><text fill="#000000" font-family="sans-serif" font-size="13" font-weight="bold" lengthAdjust="spacing" textLength="9" x="100.5" y="345.7188">7</text><text fill="#000000" font-family="sans-serif" font-size="13" lengthAdjust="spacing" textLength="143" x="113.5" y="345.7188">provides questionType</text><polygon fill="#181818" points="104.5,375.7715,94.5,379.7715,104.5,383.7715,100.5,379.7715" style="stroke:#181818;stroke-width:1.0;"/><line style="stroke:#181818;stroke-width:1.0;stroke-dasharray:2.0,2.0;" x1="98.5" x2="401.5" y1="379.7715" y2="379.7715"/><text fill="#000000" font-family="sans-serif" font-size="13" font-weight="bold" lengthAdjust="spacing" textLength="9" x="110.5" y="375.0293">8</text><text fill="#000000" font-family="sans-serif" font-size="13" lengthAdjust="spacing" textLength="113" x="123.5" y="375.0293">requests question</text><polygon fill="#181818" points="385.5,405.082,395.5,409.082,385.5,413.082,389.5,409.082" style="stroke:#181818;stroke-width:1.0;"/><line style="stroke:#181818;stroke-width:1.0;" x1="93.5" x2="391.5" y1="409.082" y2="409.082"/><text fill="#000000" font-family="sans-serif" font-size="13" font-weight="bold" lengthAdjust="spacing" textLength="9" x="100.5" y="404.3398">9</text><text fill="#000000" font-family="sans-serif" font-size="13" lengthAdjust="spacing" textLength="113" x="113.5" y="404.3398">provides question</text><polygon fill="#181818" points="104.5,434.3926,94.5,438.3926,104.5,442.3926,100.5,438.3926" style="stroke:#181818;stroke-width:1.0;"/><line style="stroke:#181818;stroke-width:1.0;stroke-dasharray:2.0,2.0;" x1="98.5" x2="401.5" y1="438.3926" y2="438.3926"/><text fill="#000000" font-family="sans-serif" font-size="13" font-weight="bold" lengthAdjust="spacing" textLength="18" x="110.5" y="433.6504">10</text><text fill="#000000" font-family="sans-serif" font-size="13" lengthAdjust="spacing" textLength="102" x="132.5" y="433.6504">requests answer</text><polygon fill="#181818" points="385.5,463.7031,395.5,467.7031,385.5,471.7031,389.5,467.7031" style="stroke:#181818;stroke-width:1.0;"/><line style="stroke:#181818;stroke-width:1.0;" x1="93.5" x2="391.5" y1="467.7031" y2="467.7031"/><text fill="#000000" font-family="sans-serif" font-size="13" font-weight="bold" lengthAdjust="spacing" textLength="18" x="100.5" y="462.9609">11</text><text fill="#000000" font-family="sans-serif" font-size="13" lengthAdjust="spacing" textLength="102" x="122.5" y="462.9609">provides answer</text><polygon fill="#181818" points="104.5,493.0137,94.5,497.0137,104.5,501.0137,100.5,497.0137" style="stroke:#181818;stroke-width:1.0;"/><line style="stroke:#181818;stroke-width:1.0;stroke-dasharray:2.0,2.0;" x1="98.5" x2="401.5" y1="497.0137" y2="497.0137"/><text fill="#000000" font-family="sans-serif" font-size="13" font-weight="bold" lengthAdjust="spacing" textLength="18" x="110.5" y="492.2715">12</text><text fill="#000000" font-family="sans-serif" font-size="13" lengthAdjust="spacing" textLength="151" x="132.5" y="492.2715">requests question score</text><polygon fill="#181818" points="385.5,522.3242,395.5,526.3242,385.5,530.3242,389.5,526.3242" style="stroke:#181818;stroke-width:1.0;"/><line style="stroke:#181818;stroke-width:1.0;" x1="93.5" x2="391.5" y1="526.3242" y2="526.3242"/><text fill="#000000" font-family="sans-serif" font-size="13" font-weight="bold" lengthAdjust="spacing" textLength="18" x="100.5" y="521.582">13</text><text fill="#000000" font-family="sans-serif" font-size="13" lengthAdjust="spacing" textLength="151" x="122.5" y="521.582">provides question score</text><polygon fill="#181818" points="99.5,558.6348,89.5,562.6348,99.5,566.6348,95.5,562.6348" style="stroke:#181818;stroke-width:1.0;"/><line style="stroke:#181818;stroke-width:1.0;stroke-dasharray:2.0,2.0;" x1="93.5" x2="401.5" y1="562.6348" y2="562.6348"/><text fill="#000000" font-family="sans-serif" font-size="13" font-weight="bold" lengthAdjust="spacing" textLength="18" x="105.5" y="557.8926">14</text><text fill="#000000" font-family="sans-serif" font-size="13" lengthAdjust="spacing" textLength="258" x="127.5" y="557.8926">creates file and shows operation success</text><!--SRC=[fPJ1ReCm38RlUGghf_RG5-XXbrQQTc0NzW9PC10LuYmsHNtx9L0GwbfjOZb5YV_VNumDdwtpEkWMMd9awa0jWeGE5SytNfkphZ2NQuCGq8XsLRCCu5eNr5jNGQaRHgN4IWpDhopOGevV7Jg3SBAwIk7RF3_jO0-lw31eGNXpWk5YiOUC2coKqfsGwzfF375lX09iZXrBP0kGQHTXmWOqmp5JaK2iiLuxWSrXJ3dSZTj1RoyfImnM4DSnW_tB17U8eMS68QWc6ZlJj0DDqimcaolSrirc7nsZxo6M9pwMXS5eLzWYIGGRz3KvV1zVb6G5FdIyG_E1BhR0typ-1hTW6qiBLC9mOCdn6gf7DWsHXxwsyVDlvrDei9JToa9EBXzNZsieV-ZN8_md_ShKsd6_hcSMolKl1ZOK_bNsXSEz7bq1gL-UyvY0CPwXJFqKPo3-QQXd89ycTJ3lZ45-shsBepJzIdq3]--></g></svg>