<?xml version="1.0" encoding="us-ascii" standalone="no"?><svg xmlns="http://www.w3.org/2000/svg" xmlns:xlink="http://www.w3.org/1999/xlink" contentStyleType="text/css" height="1746px" preserveAspectRatio="none" style="width:2306px;height:1746px;background:#FFFFFF;" version="1.1" viewBox="0 0 2306 1746" width="2306px" zoomAndPan="magnify"><defs/><g><!--class ListJobOpeningApplicationsUI--><g id="elem_ListJobOpeningApplicationsUI"><rect codeLine="4" fill="#F1F1F1" height="179.9063" id="ListJobOpeningApplicationsUI" rx="2.5" ry="2.5" style="stroke:#181818;stroke-width:0.5;" width="235" x="718.5" y="7"/><ellipse cx="733.5" cy="23" fill="#ADD1B2" rx="11" ry="11" style="stroke:#181818;stroke-width:1.0;"/><path d="M736.4731,28.6431 Q735.8921,28.9419 735.2529,29.0913 Q734.6138,29.2407 733.9082,29.2407 Q731.4014,29.2407 730.0815,27.5889 Q728.7617,25.937 728.7617,22.8159 Q728.7617,19.6865 730.0815,18.0347 Q731.4014,16.3828 733.9082,16.3828 Q734.6138,16.3828 735.2612,16.5322 Q735.9087,16.6816 736.4731,16.9805 L736.4731,19.7031 Q735.8423,19.1221 735.2488,18.8523 Q734.6553,18.5825 734.0244,18.5825 Q732.6797,18.5825 731.9949,19.6492 Q731.3101,20.7158 731.3101,22.8159 Q731.3101,24.9077 731.9949,25.9744 Q732.6797,27.041 734.0244,27.041 Q734.6553,27.041 735.2488,26.7712 Q735.8423,26.5015 736.4731,25.9204 Z " fill="#000000"/><text fill="#000000" font-family="sans-serif" font-size="14" lengthAdjust="spacing" textLength="203" x="747.5" y="28.291">ListJobOpeningApplicationsUI</text><line style="stroke:#181818;stroke-width:0.5;" x1="719.5" x2="952.5" y1="39" y2="39"/><line style="stroke:#181818;stroke-width:0.5;" x1="719.5" x2="952.5" y1="47" y2="47"/><ellipse cx="729.5" cy="60.7441" fill="#84BE84" rx="3" ry="3" style="stroke:#038048;stroke-width:1.0;"/><text fill="#000000" font-family="sans-serif" font-size="14" lengthAdjust="spacing" textLength="69" x="738.5" y="64.5352">headline()</text><ellipse cx="729.5" cy="77.2324" fill="#84BE84" rx="3" ry="3" style="stroke:#038048;stroke-width:1.0;"/><text fill="#000000" font-family="sans-serif" font-size="14" lengthAdjust="spacing" textLength="111" x="738.5" y="81.0234">emptyMessage()</text><ellipse cx="729.5" cy="93.7207" fill="#84BE84" rx="3" ry="3" style="stroke:#038048;stroke-width:1.0;"/><text fill="#000000" font-family="sans-serif" font-size="14" lengthAdjust="spacing" textLength="100" x="738.5" y="97.5117">elementsApp()</text><ellipse cx="729.5" cy="110.209" fill="#84BE84" rx="3" ry="3" style="stroke:#038048;stroke-width:1.0;"/><text fill="#000000" font-family="sans-serif" font-size="14" lengthAdjust="spacing" textLength="72" x="738.5" y="114">elements()</text><ellipse cx="729.5" cy="126.6973" fill="#84BE84" rx="3" ry="3" style="stroke:#038048;stroke-width:1.0;"/><text fill="#000000" font-family="sans-serif" font-size="14" lengthAdjust="spacing" textLength="111" x="738.5" y="130.4883">elementPrinter()</text><ellipse cx="729.5" cy="143.1855" fill="#84BE84" rx="3" ry="3" style="stroke:#038048;stroke-width:1.0;"/><text fill="#000000" font-family="sans-serif" font-size="14" lengthAdjust="spacing" textLength="104" x="738.5" y="146.9766">elementName()</text><ellipse cx="729.5" cy="159.6738" fill="#84BE84" rx="3" ry="3" style="stroke:#038048;stroke-width:1.0;"/><text fill="#000000" font-family="sans-serif" font-size="14" lengthAdjust="spacing" textLength="79" x="738.5" y="163.4648">listHeader()</text><ellipse cx="729.5" cy="176.1621" fill="#84BE84" rx="3" ry="3" style="stroke:#038048;stroke-width:1.0;"/><text fill="#000000" font-family="sans-serif" font-size="14" lengthAdjust="spacing" textLength="65" x="738.5" y="179.9531">doShow()</text></g><!--class ListJobOpeningController--><g id="elem_ListJobOpeningController"><rect codeLine="16" fill="#F1F1F1" height="64.4883" id="ListJobOpeningController" rx="2.5" ry="2.5" style="stroke:#181818;stroke-width:0.5;" width="206" x="841" y="457.12"/><ellipse cx="856" cy="473.12" fill="#ADD1B2" rx="11" ry="11" style="stroke:#181818;stroke-width:1.0;"/><path d="M858.9731,478.7631 Q858.3921,479.0619 857.7529,479.2113 Q857.1138,479.3607 856.4082,479.3607 Q853.9014,479.3607 852.5815,477.7089 Q851.2617,476.057 851.2617,472.9359 Q851.2617,469.8065 852.5815,468.1547 Q853.9014,466.5028 856.4082,466.5028 Q857.1138,466.5028 857.7612,466.6522 Q858.4087,466.8016 858.9731,467.1005 L858.9731,469.8231 Q858.3423,469.2421 857.7488,468.9723 Q857.1553,468.7025 856.5244,468.7025 Q855.1797,468.7025 854.4949,469.7692 Q853.8101,470.8358 853.8101,472.9359 Q853.8101,475.0277 854.4949,476.0944 Q855.1797,477.161 856.5244,477.161 Q857.1553,477.161 857.7488,476.8912 Q858.3423,476.6215 858.9731,476.0404 Z " fill="#000000"/><text fill="#000000" font-family="sans-serif" font-size="14" lengthAdjust="spacing" textLength="174" x="870" y="478.411">ListJobOpeningController</text><line style="stroke:#181818;stroke-width:0.5;" x1="842" x2="1046" y1="489.12" y2="489.12"/><line style="stroke:#181818;stroke-width:0.5;" x1="842" x2="1046" y1="497.12" y2="497.12"/><ellipse cx="852" cy="510.8641" fill="#84BE84" rx="3" ry="3" style="stroke:#038048;stroke-width:1.0;"/><text fill="#000000" font-family="sans-serif" font-size="14" lengthAdjust="spacing" textLength="107" x="861" y="514.6552">allJobOpening()</text></g><!--class ListJobOpeningApplicationsController--><g id="elem_ListJobOpeningApplicationsController"><rect codeLine="20" fill="#F1F1F1" height="80.9766" id="ListJobOpeningApplicationsController" rx="2.5" ry="2.5" style="stroke:#181818;stroke-width:0.5;" width="324" x="567" y="307.9"/><ellipse cx="596.85" cy="323.9" fill="#ADD1B2" rx="11" ry="11" style="stroke:#181818;stroke-width:1.0;"/><path d="M599.8231,329.5431 Q599.2421,329.8419 598.6029,329.9913 Q597.9638,330.1407 597.2582,330.1407 Q594.7514,330.1407 593.4315,328.4889 Q592.1117,326.837 592.1117,323.7159 Q592.1117,320.5865 593.4315,318.9347 Q594.7514,317.2828 597.2582,317.2828 Q597.9638,317.2828 598.6112,317.4322 Q599.2587,317.5816 599.8231,317.8805 L599.8231,320.6031 Q599.1923,320.0221 598.5988,319.7523 Q598.0053,319.4825 597.3744,319.4825 Q596.0297,319.4825 595.3449,320.5492 Q594.6601,321.6158 594.6601,323.7159 Q594.6601,325.8077 595.3449,326.8744 Q596.0297,327.941 597.3744,327.941 Q598.0053,327.941 598.5988,327.6712 Q599.1923,327.4015 599.8231,326.8204 Z " fill="#000000"/><text fill="#000000" font-family="sans-serif" font-size="14" lengthAdjust="spacing" textLength="259" x="614.15" y="329.191">ListJobOpeningApplicationsController</text><line style="stroke:#181818;stroke-width:0.5;" x1="568" x2="890" y1="339.9" y2="339.9"/><line style="stroke:#181818;stroke-width:0.5;" x1="568" x2="890" y1="347.9" y2="347.9"/><ellipse cx="578" cy="361.6441" fill="#84BE84" rx="3" ry="3" style="stroke:#038048;stroke-width:1.0;"/><text fill="#000000" font-family="sans-serif" font-size="14" lengthAdjust="spacing" textLength="298" x="587" y="365.4352">allApplicationsOfJobOpening(jobReference)</text><ellipse cx="578" cy="378.1324" fill="#84BE84" rx="3" ry="3" style="stroke:#038048;stroke-width:1.0;"/><text fill="#000000" font-family="sans-serif" font-size="14" lengthAdjust="spacing" textLength="208" x="587" y="381.9234">findJobOpening(jobReference)</text></g><!--class JobOpening--><g id="elem_JobOpening"><rect codeLine="25" fill="#F1F1F1" height="394.2539" id="JobOpening" rx="2.5" ry="2.5" style="stroke:#181818;stroke-width:0.5;" width="374" x="1739" y="1220.53"/><ellipse cx="1881.25" cy="1236.53" fill="#ADD1B2" rx="11" ry="11" style="stroke:#181818;stroke-width:1.0;"/><path d="M1884.2231,1242.1731 Q1883.6421,1242.4719 1883.0029,1242.6213 Q1882.3638,1242.7707 1881.6582,1242.7707 Q1879.1514,1242.7707 1877.8315,1241.1189 Q1876.5117,1239.467 1876.5117,1236.3459 Q1876.5117,1233.2165 1877.8315,1231.5647 Q1879.1514,1229.9128 1881.6582,1229.9128 Q1882.3638,1229.9128 1883.0112,1230.0622 Q1883.6587,1230.2116 1884.2231,1230.5105 L1884.2231,1233.2331 Q1883.5923,1232.6521 1882.9988,1232.3823 Q1882.4053,1232.1125 1881.7744,1232.1125 Q1880.4297,1232.1125 1879.7449,1233.1792 Q1879.0601,1234.2458 1879.0601,1236.3459 Q1879.0601,1238.4377 1879.7449,1239.5044 Q1880.4297,1240.571 1881.7744,1240.571 Q1882.4053,1240.571 1882.9988,1240.3012 Q1883.5923,1240.0315 1884.2231,1239.4504 Z " fill="#000000"/><text fill="#000000" font-family="sans-serif" font-size="14" lengthAdjust="spacing" textLength="81" x="1901.75" y="1241.821">JobOpening</text><line style="stroke:#181818;stroke-width:0.5;" x1="1740" x2="2112" y1="1252.53" y2="1252.53"/><rect fill="none" height="6" style="stroke:#C82930;stroke-width:1.0;" width="6" x="1747" y="1263.2741"/><text fill="#000000" font-family="sans-serif" font-size="14" lengthAdjust="spacing" textLength="159" x="1759" y="1270.0652">Description description</text><rect fill="none" height="6" style="stroke:#C82930;stroke-width:1.0;" width="6" x="1747" y="1279.7624"/><text fill="#000000" font-family="sans-serif" font-size="14" lengthAdjust="spacing" textLength="246" x="1759" y="1286.5534">VacanciesNumber vacanciesNumber</text><rect fill="none" height="6" style="stroke:#C82930;stroke-width:1.0;" width="6" x="1747" y="1296.2507"/><text fill="#000000" font-family="sans-serif" font-size="14" lengthAdjust="spacing" textLength="114" x="1759" y="1303.0417">Address address</text><rect fill="none" height="6" style="stroke:#C82930;stroke-width:1.0;" width="6" x="1747" y="1312.739"/><text fill="#000000" font-family="sans-serif" font-size="14" lengthAdjust="spacing" textLength="81" x="1759" y="1319.53">Mode mode</text><rect fill="none" height="6" style="stroke:#C82930;stroke-width:1.0;" width="6" x="1747" y="1329.2273"/><text fill="#000000" font-family="sans-serif" font-size="14" lengthAdjust="spacing" textLength="185" x="1759" y="1336.0183">ContractType contractType</text><rect fill="none" height="6" style="stroke:#C82930;stroke-width:1.0;" width="6" x="1747" y="1345.7155"/><text fill="#000000" font-family="sans-serif" font-size="14" lengthAdjust="spacing" textLength="214" x="1759" y="1352.5066">TitleOrFunction titleOrFunction</text><rect fill="none" height="6" style="stroke:#C82930;stroke-width:1.0;" width="6" x="1747" y="1362.2038"/><text fill="#000000" font-family="sans-serif" font-size="14" lengthAdjust="spacing" textLength="184" x="1759" y="1368.9948">JobReference jobReference</text><rect fill="none" height="6" style="stroke:#C82930;stroke-width:1.0;" width="6" x="1747" y="1378.6921"/><text fill="#000000" font-family="sans-serif" font-size="14" lengthAdjust="spacing" textLength="131" x="1759" y="1385.4831">Company company</text><line style="stroke:#181818;stroke-width:0.5;" x1="1740" x2="2112" y1="1392.4363" y2="1392.4363"/><ellipse cx="1750" cy="1406.1804" fill="#84BE84" rx="3" ry="3" style="stroke:#038048;stroke-width:1.0;"/><text fill="#000000" font-family="sans-serif" font-size="14" lengthAdjust="spacing" textLength="265" x="1759" y="1409.9714">JobOpening(jobReference, description,</text><text fill="#000000" font-family="sans-serif" font-size="14" lengthAdjust="spacing" textLength="344" x="1759" y="1426.4597">vacanciesNumber, address, modes, contractTypes,</text><text fill="#000000" font-family="sans-serif" font-size="14" lengthAdjust="spacing" textLength="182" x="1763" y="1442.948">titleOrFunction , company)</text><ellipse cx="1750" cy="1455.6452" fill="#84BE84" rx="3" ry="3" style="stroke:#038048;stroke-width:1.0;"/><text fill="#000000" font-family="sans-serif" font-size="14" lengthAdjust="spacing" textLength="61" x="1759" y="1459.4363">identity()</text><ellipse cx="1750" cy="1472.1335" fill="#84BE84" rx="3" ry="3" style="stroke:#038048;stroke-width:1.0;"/><text fill="#000000" font-family="sans-serif" font-size="14" lengthAdjust="spacing" textLength="105" x="1759" y="1475.9245">sameAs(object)</text><ellipse cx="1750" cy="1488.6218" fill="#84BE84" rx="3" ry="3" style="stroke:#038048;stroke-width:1.0;"/><text fill="#000000" font-family="sans-serif" font-size="14" lengthAdjust="spacing" textLength="100" x="1759" y="1492.4128">jobReference()</text><ellipse cx="1750" cy="1505.1101" fill="#84BE84" rx="3" ry="3" style="stroke:#038048;stroke-width:1.0;"/><text fill="#000000" font-family="sans-serif" font-size="14" lengthAdjust="spacing" textLength="87" x="1759" y="1508.9011">description()</text><ellipse cx="1750" cy="1521.5984" fill="#84BE84" rx="3" ry="3" style="stroke:#038048;stroke-width:1.0;"/><text fill="#000000" font-family="sans-serif" font-size="14" lengthAdjust="spacing" textLength="130" x="1759" y="1525.3894">vacanciesNumber()</text><ellipse cx="1750" cy="1538.0866" fill="#84BE84" rx="3" ry="3" style="stroke:#038048;stroke-width:1.0;"/><text fill="#000000" font-family="sans-serif" font-size="14" lengthAdjust="spacing" textLength="64" x="1759" y="1541.8777">address()</text><ellipse cx="1750" cy="1554.5749" fill="#84BE84" rx="3" ry="3" style="stroke:#038048;stroke-width:1.0;"/><text fill="#000000" font-family="sans-serif" font-size="14" lengthAdjust="spacing" textLength="49" x="1759" y="1558.3659">mode()</text><ellipse cx="1750" cy="1571.0632" fill="#84BE84" rx="3" ry="3" style="stroke:#038048;stroke-width:1.0;"/><text fill="#000000" font-family="sans-serif" font-size="14" lengthAdjust="spacing" textLength="99" x="1759" y="1574.8542">contractType()</text><ellipse cx="1750" cy="1587.5515" fill="#84BE84" rx="3" ry="3" style="stroke:#038048;stroke-width:1.0;"/><text fill="#000000" font-family="sans-serif" font-size="14" lengthAdjust="spacing" textLength="113" x="1759" y="1591.3425">titleOrFunction()</text><ellipse cx="1750" cy="1604.0398" fill="#84BE84" rx="3" ry="3" style="stroke:#038048;stroke-width:1.0;"/><text fill="#000000" font-family="sans-serif" font-size="14" lengthAdjust="spacing" textLength="72" x="1759" y="1607.8308">company()</text></g><!--class JobOpeningRepository--><g id="elem_JobOpeningRepository"><rect codeLine="49" fill="#F1F1F1" height="64.4883" id="JobOpeningRepository" rx="2.5" ry="2.5" style="stroke:#181818;stroke-width:0.5;" width="186" x="559" y="1674.78"/><ellipse cx="574" cy="1690.78" fill="#ADD1B2" rx="11" ry="11" style="stroke:#181818;stroke-width:1.0;"/><path d="M576.9731,1696.4231 Q576.3921,1696.7219 575.7529,1696.8713 Q575.1138,1697.0207 574.4082,1697.0207 Q571.9014,1697.0207 570.5815,1695.3689 Q569.2617,1693.717 569.2617,1690.5959 Q569.2617,1687.4665 570.5815,1685.8147 Q571.9014,1684.1628 574.4082,1684.1628 Q575.1138,1684.1628 575.7612,1684.3122 Q576.4087,1684.4616 576.9731,1684.7605 L576.9731,1687.4831 Q576.3423,1686.9021 575.7488,1686.6323 Q575.1553,1686.3625 574.5244,1686.3625 Q573.1797,1686.3625 572.4949,1687.4292 Q571.8101,1688.4958 571.8101,1690.5959 Q571.8101,1692.6877 572.4949,1693.7544 Q573.1797,1694.821 574.5244,1694.821 Q575.1553,1694.821 575.7488,1694.5512 Q576.3423,1694.2815 576.9731,1693.7004 Z " fill="#000000"/><text fill="#000000" font-family="sans-serif" font-size="14" lengthAdjust="spacing" textLength="154" x="588" y="1696.071">JobOpeningRepository</text><line style="stroke:#181818;stroke-width:0.5;" x1="560" x2="744" y1="1706.78" y2="1706.78"/><line style="stroke:#181818;stroke-width:0.5;" x1="560" x2="744" y1="1714.78" y2="1714.78"/><ellipse cx="570" cy="1728.5241" fill="#84BE84" rx="3" ry="3" style="stroke:#038048;stroke-width:1.0;"/><text fill="#000000" font-family="sans-serif" font-size="14" lengthAdjust="spacing" textLength="114" x="579" y="1732.3152">allJobOpenings()</text></g><!--class JobOpeningService--><g id="elem_JobOpeningService"><rect codeLine="53" fill="#F1F1F1" height="97.4648" id="JobOpeningService" rx="2.5" ry="2.5" style="stroke:#181818;stroke-width:0.5;" width="472" x="416" y="1368.92"/><ellipse cx="583.25" cy="1384.92" fill="#ADD1B2" rx="11" ry="11" style="stroke:#181818;stroke-width:1.0;"/><path d="M586.2231,1390.5631 Q585.6421,1390.8619 585.0029,1391.0113 Q584.3638,1391.1607 583.6582,1391.1607 Q581.1514,1391.1607 579.8315,1389.5089 Q578.5117,1387.857 578.5117,1384.7359 Q578.5117,1381.6065 579.8315,1379.9547 Q581.1514,1378.3028 583.6582,1378.3028 Q584.3638,1378.3028 585.0112,1378.4522 Q585.6587,1378.6016 586.2231,1378.9005 L586.2231,1381.6231 Q585.5923,1381.0421 584.9988,1380.7723 Q584.4053,1380.5025 583.7744,1380.5025 Q582.4297,1380.5025 581.7449,1381.5692 Q581.0601,1382.6358 581.0601,1384.7359 Q581.0601,1386.8277 581.7449,1387.8944 Q582.4297,1388.961 583.7744,1388.961 Q584.4053,1388.961 584.9988,1388.6912 Q585.5923,1388.4215 586.2231,1387.8404 Z " fill="#000000"/><text fill="#000000" font-family="sans-serif" font-size="14" lengthAdjust="spacing" textLength="129" x="603.75" y="1390.211">JobOpeningService</text><line style="stroke:#181818;stroke-width:0.5;" x1="417" x2="887" y1="1400.92" y2="1400.92"/><line style="stroke:#181818;stroke-width:0.5;" x1="417" x2="887" y1="1408.92" y2="1408.92"/><ellipse cx="427" cy="1422.6641" fill="#84BE84" rx="3" ry="3" style="stroke:#038048;stroke-width:1.0;"/><text fill="#000000" font-family="sans-serif" font-size="14" lengthAdjust="spacing" textLength="446" x="436" y="1426.4552">registerJobOpening(jobReference, description, vacanciesNumber,</text><text fill="#000000" font-family="sans-serif" font-size="14" lengthAdjust="spacing" textLength="388" x="436" y="1442.9434">address, mode, contractType, titleOrFunction, company);</text><ellipse cx="427" cy="1455.6407" fill="#84BE84" rx="3" ry="3" style="stroke:#038048;stroke-width:1.0;"/><text fill="#000000" font-family="sans-serif" font-size="14" lengthAdjust="spacing" textLength="114" x="436" y="1459.4317">allJobOpenings()</text></g><!--class JobOpeningBuilder--><g id="elem_JobOpeningBuilder"><rect codeLine="59" fill="#F1F1F1" height="80.9766" id="JobOpeningBuilder" rx="2.5" ry="2.5" style="stroke:#181818;stroke-width:0.5;" width="781" x="923.5" y="1377.17"/><ellipse cx="1245.25" cy="1393.17" fill="#ADD1B2" rx="11" ry="11" style="stroke:#181818;stroke-width:1.0;"/><path d="M1248.2231,1398.8131 Q1247.6421,1399.1119 1247.0029,1399.2613 Q1246.3638,1399.4107 1245.6582,1399.4107 Q1243.1514,1399.4107 1241.8315,1397.7589 Q1240.5117,1396.107 1240.5117,1392.9859 Q1240.5117,1389.8565 1241.8315,1388.2047 Q1243.1514,1386.5528 1245.6582,1386.5528 Q1246.3638,1386.5528 1247.0112,1386.7022 Q1247.6587,1386.8516 1248.2231,1387.1505 L1248.2231,1389.8731 Q1247.5923,1389.2921 1246.9988,1389.0223 Q1246.4053,1388.7525 1245.7744,1388.7525 Q1244.4297,1388.7525 1243.7449,1389.8192 Q1243.0601,1390.8858 1243.0601,1392.9859 Q1243.0601,1395.0777 1243.7449,1396.1444 Q1244.4297,1397.211 1245.7744,1397.211 Q1246.4053,1397.211 1246.9988,1396.9412 Q1247.5923,1396.6715 1248.2231,1396.0904 Z " fill="#000000"/><text fill="#000000" font-family="sans-serif" font-size="14" lengthAdjust="spacing" textLength="129" x="1265.75" y="1398.461">JobOpeningBuilder</text><line style="stroke:#181818;stroke-width:0.5;" x1="924.5" x2="1703.5" y1="1409.17" y2="1409.17"/><line style="stroke:#181818;stroke-width:0.5;" x1="924.5" x2="1703.5" y1="1417.17" y2="1417.17"/><ellipse cx="934.5" cy="1430.9141" fill="#84BE84" rx="3" ry="3" style="stroke:#038048;stroke-width:1.0;"/><text fill="#000000" font-family="sans-serif" font-size="14" lengthAdjust="spacing" textLength="755" x="943.5" y="1434.7052">withAll(jobReference, description, vacanciesNumber, address, mode, contractType, titleOrFunction , company )</text><ellipse cx="934.5" cy="1447.4024" fill="#84BE84" rx="3" ry="3" style="stroke:#038048;stroke-width:1.0;"/><text fill="#000000" font-family="sans-serif" font-size="14" lengthAdjust="spacing" textLength="45" x="943.5" y="1451.1934">build()</text></g><!--class Application--><g id="elem_Application"><rect codeLine="64" fill="#F1F1F1" height="509.6719" id="Application" rx="2.5" ry="2.5" style="stroke:#181818;stroke-width:0.5;" width="586" x="1403" y="589.86"/><ellipse cx="1652.75" cy="605.86" fill="#ADD1B2" rx="11" ry="11" style="stroke:#181818;stroke-width:1.0;"/><path d="M1655.7231,611.5031 Q1655.1421,611.8019 1654.5029,611.9513 Q1653.8638,612.1007 1653.1582,612.1007 Q1650.6514,612.1007 1649.3315,610.4489 Q1648.0117,608.797 1648.0117,605.6759 Q1648.0117,602.5465 1649.3315,600.8947 Q1650.6514,599.2428 1653.1582,599.2428 Q1653.8638,599.2428 1654.5112,599.3922 Q1655.1587,599.5416 1655.7231,599.8405 L1655.7231,602.5631 Q1655.0923,601.9821 1654.4988,601.7123 Q1653.9053,601.4425 1653.2744,601.4425 Q1651.9297,601.4425 1651.2449,602.5092 Q1650.5601,603.5758 1650.5601,605.6759 Q1650.5601,607.7677 1651.2449,608.8344 Q1651.9297,609.901 1653.2744,609.901 Q1653.9053,609.901 1654.4988,609.6312 Q1655.0923,609.3615 1655.7231,608.7804 Z " fill="#000000"/><text fill="#000000" font-family="sans-serif" font-size="14" lengthAdjust="spacing" textLength="78" x="1673.25" y="611.151">Application</text><line style="stroke:#181818;stroke-width:0.5;" x1="1404" x2="1988" y1="621.86" y2="621.86"/><rect fill="none" height="6" style="stroke:#C82930;stroke-width:1.0;" width="6" x="1411" y="632.6041"/><text fill="#000000" font-family="sans-serif" font-size="14" lengthAdjust="spacing" textLength="186" x="1423" y="639.3952">IdApplication idApplication</text><rect fill="none" height="6" style="stroke:#C82930;stroke-width:1.0;" width="6" x="1411" y="649.0924"/><text fill="#000000" font-family="sans-serif" font-size="14" lengthAdjust="spacing" textLength="69" x="1423" y="655.8834">Rank rank</text><rect fill="none" height="6" style="stroke:#C82930;stroke-width:1.0;" width="6" x="1411" y="665.5807"/><text fill="#000000" font-family="sans-serif" font-size="14" lengthAdjust="spacing" textLength="223" x="1423" y="672.3717">SubmissionDate submissionDate</text><rect fill="none" height="6" style="stroke:#C82930;stroke-width:1.0;" width="6" x="1411" y="682.069"/><text fill="#000000" font-family="sans-serif" font-size="14" lengthAdjust="spacing" textLength="87" x="1423" y="688.86">Status status</text><rect fill="none" height="6" style="stroke:#C82930;stroke-width:1.0;" width="6" x="1411" y="698.5573"/><text fill="#000000" font-family="sans-serif" font-size="14" lengthAdjust="spacing" textLength="268" x="1423" y="705.3483">ApplicationDataFile applicationDataFile</text><rect fill="none" height="6" style="stroke:#C82930;stroke-width:1.0;" width="6" x="1411" y="715.0455"/><text fill="#000000" font-family="sans-serif" font-size="14" lengthAdjust="spacing" textLength="295" x="1423" y="721.8366">FilesAttachedContent filesAttachedContent</text><rect fill="none" height="6" style="stroke:#C82930;stroke-width:1.0;" width="6" x="1411" y="731.5338"/><text fill="#000000" font-family="sans-serif" font-size="14" lengthAdjust="spacing" textLength="276" x="1423" y="738.3248">EmailsFilesAttached emailsFilesAttached</text><rect fill="none" height="6" style="stroke:#C82930;stroke-width:1.0;" width="6" x="1411" y="748.0221"/><text fill="#000000" font-family="sans-serif" font-size="14" lengthAdjust="spacing" textLength="236" x="1423" y="754.8131">EmailContentFile emailContentFile</text><rect fill="none" height="6" style="stroke:#C82930;stroke-width:1.0;" width="6" x="1411" y="764.5104"/><text fill="#000000" font-family="sans-serif" font-size="14" lengthAdjust="spacing" textLength="184" x="1423" y="771.3014">JobReference jobReference</text><rect fill="none" height="6" style="stroke:#C82930;stroke-width:1.0;" width="6" x="1411" y="780.9987"/><text fill="#000000" font-family="sans-serif" font-size="14" lengthAdjust="spacing" textLength="256" x="1423" y="787.7897">TelephoneNumber telephoneNumber</text><line style="stroke:#181818;stroke-width:0.5;" x1="1404" x2="1988" y1="794.7428" y2="794.7428"/><ellipse cx="1414" cy="824.9752" fill="#84BE84" rx="3" ry="3" style="stroke:#038048;stroke-width:1.0;"/><text fill="#000000" font-family="sans-serif" font-size="14" lengthAdjust="spacing" textLength="395" x="1423" y="812.278">Application(idApplication,  rank,  submissionDate,  status,</text><text fill="#000000" font-family="sans-serif" font-size="14" lengthAdjust="spacing" textLength="556" x="1427" y="828.7662">applicationDataFile,  filesAttachedContent, emailFilesAttached,  emailContentFile,</text><text fill="#000000" font-family="sans-serif" font-size="14" lengthAdjust="spacing" textLength="231" x="1431" y="845.2545">jobReference,  telephoneNumber)</text><ellipse cx="1414" cy="857.9518" fill="#84BE84" rx="3" ry="3" style="stroke:#038048;stroke-width:1.0;"/><text fill="#000000" font-family="sans-serif" font-size="14" lengthAdjust="spacing" textLength="100" x="1423" y="861.7428">sameAs(other)</text><ellipse cx="1414" cy="874.4401" fill="#84BE84" rx="3" ry="3" style="stroke:#038048;stroke-width:1.0;"/><text fill="#000000" font-family="sans-serif" font-size="14" lengthAdjust="spacing" textLength="125" x="1423" y="878.2311">compareTo(other)</text><ellipse cx="1414" cy="890.9284" fill="#84BE84" rx="3" ry="3" style="stroke:#038048;stroke-width:1.0;"/><text fill="#000000" font-family="sans-serif" font-size="14" lengthAdjust="spacing" textLength="61" x="1423" y="894.7194">identity()</text><ellipse cx="1414" cy="907.4166" fill="#84BE84" rx="3" ry="3" style="stroke:#038048;stroke-width:1.0;"/><text fill="#000000" font-family="sans-serif" font-size="14" lengthAdjust="spacing" textLength="102" x="1423" y="911.2077">hasIdentity (id)</text><ellipse cx="1414" cy="923.9049" fill="#84BE84" rx="3" ry="3" style="stroke:#038048;stroke-width:1.0;"/><text fill="#000000" font-family="sans-serif" font-size="14" lengthAdjust="spacing" textLength="134" x="1423" y="927.6959">telephoneNumber()</text><ellipse cx="1414" cy="940.3932" fill="#84BE84" rx="3" ry="3" style="stroke:#038048;stroke-width:1.0;"/><text fill="#000000" font-family="sans-serif" font-size="14" lengthAdjust="spacing" textLength="101" x="1423" y="944.1842">idApplication()</text><ellipse cx="1414" cy="956.8815" fill="#84BE84" rx="3" ry="3" style="stroke:#038048;stroke-width:1.0;"/><text fill="#000000" font-family="sans-serif" font-size="14" lengthAdjust="spacing" textLength="41" x="1423" y="960.6725">rank()</text><ellipse cx="1414" cy="973.3698" fill="#84BE84" rx="3" ry="3" style="stroke:#038048;stroke-width:1.0;"/><text fill="#000000" font-family="sans-serif" font-size="14" lengthAdjust="spacing" textLength="119" x="1423" y="977.1608">submissionDate()</text><ellipse cx="1414" cy="989.858" fill="#84BE84" rx="3" ry="3" style="stroke:#038048;stroke-width:1.0;"/><text fill="#000000" font-family="sans-serif" font-size="14" lengthAdjust="spacing" textLength="51" x="1423" y="993.6491">status()</text><ellipse cx="1414" cy="1006.3463" fill="#84BE84" rx="3" ry="3" style="stroke:#038048;stroke-width:1.0;"/><text fill="#000000" font-family="sans-serif" font-size="14" lengthAdjust="spacing" textLength="141" x="1423" y="1010.1373">applicationDataFile()</text><ellipse cx="1414" cy="1022.8346" fill="#84BE84" rx="3" ry="3" style="stroke:#038048;stroke-width:1.0;"/><text fill="#000000" font-family="sans-serif" font-size="14" lengthAdjust="spacing" textLength="154" x="1423" y="1026.6256">filesAttachedContent()</text><ellipse cx="1414" cy="1039.3229" fill="#84BE84" rx="3" ry="3" style="stroke:#038048;stroke-width:1.0;"/><text fill="#000000" font-family="sans-serif" font-size="14" lengthAdjust="spacing" textLength="139" x="1423" y="1043.1139">emailFilesAttached()</text><ellipse cx="1414" cy="1055.8112" fill="#84BE84" rx="3" ry="3" style="stroke:#038048;stroke-width:1.0;"/><text fill="#000000" font-family="sans-serif" font-size="14" lengthAdjust="spacing" textLength="126" x="1423" y="1059.6022">emailContentFile()</text><ellipse cx="1414" cy="1072.2995" fill="#84BE84" rx="3" ry="3" style="stroke:#038048;stroke-width:1.0;"/><text fill="#000000" font-family="sans-serif" font-size="14" lengthAdjust="spacing" textLength="100" x="1423" y="1076.0905">jobReference()</text><ellipse cx="1414" cy="1088.7877" fill="#84BE84" rx="3" ry="3" style="stroke:#038048;stroke-width:1.0;"/><text fill="#000000" font-family="sans-serif" font-size="14" lengthAdjust="spacing" textLength="65" x="1423" y="1092.5788">toString()</text></g><!--class ApplicationBuilder--><g id="elem_ApplicationBuilder"><rect codeLine="95" fill="#F1F1F1" height="80.9766" id="ApplicationBuilder" rx="2.5" ry="2.5" style="stroke:#181818;stroke-width:0.5;" width="1214" x="1085" y="448.88"/><ellipse cx="1624.75" cy="464.88" fill="#ADD1B2" rx="11" ry="11" style="stroke:#181818;stroke-width:1.0;"/><path d="M1627.7231,470.5231 Q1627.1421,470.8219 1626.5029,470.9713 Q1625.8638,471.1207 1625.1582,471.1207 Q1622.6514,471.1207 1621.3315,469.4689 Q1620.0117,467.817 1620.0117,464.6959 Q1620.0117,461.5665 1621.3315,459.9147 Q1622.6514,458.2628 1625.1582,458.2628 Q1625.8638,458.2628 1626.5112,458.4122 Q1627.1587,458.5616 1627.7231,458.8605 L1627.7231,461.5831 Q1627.0923,461.0021 1626.4988,460.7323 Q1625.9053,460.4625 1625.2744,460.4625 Q1623.9297,460.4625 1623.2449,461.5292 Q1622.5601,462.5958 1622.5601,464.6959 Q1622.5601,466.7877 1623.2449,467.8544 Q1623.9297,468.921 1625.2744,468.921 Q1625.9053,468.921 1626.4988,468.6512 Q1627.0923,468.3815 1627.7231,467.8004 Z " fill="#000000"/><text fill="#000000" font-family="sans-serif" font-size="14" lengthAdjust="spacing" textLength="126" x="1645.25" y="470.171">ApplicationBuilder</text><line style="stroke:#181818;stroke-width:0.5;" x1="1086" x2="2298" y1="480.88" y2="480.88"/><line style="stroke:#181818;stroke-width:0.5;" x1="1086" x2="2298" y1="488.88" y2="488.88"/><ellipse cx="1096" cy="502.6241" fill="#84BE84" rx="3" ry="3" style="stroke:#038048;stroke-width:1.0;"/><text fill="#000000" font-family="sans-serif" font-size="14" lengthAdjust="spacing" textLength="1188" x="1105" y="506.4152">withAll( idApplication,  rank,  submissionDate,  status,  applicationDataFile,  filesAttachedContent,  emailFilesAttached,  emailContentFile,  jobReference ,  telephoneNumber) {</text><ellipse cx="1096" cy="519.1124" fill="#84BE84" rx="3" ry="3" style="stroke:#038048;stroke-width:1.0;"/><text fill="#000000" font-family="sans-serif" font-size="14" lengthAdjust="spacing" textLength="45" x="1105" y="522.9034">build()</text></g><!--class ApplicationRepository--><g id="elem_ApplicationRepository"><rect codeLine="101" fill="#F1F1F1" height="64.4883" id="ApplicationRepository" rx="2.5" ry="2.5" style="stroke:#181818;stroke-width:0.5;" width="183" x="1497.5" y="316.15"/><ellipse cx="1512.5" cy="332.15" fill="#ADD1B2" rx="11" ry="11" style="stroke:#181818;stroke-width:1.0;"/><path d="M1515.4731,337.7931 Q1514.8921,338.0919 1514.2529,338.2413 Q1513.6138,338.3907 1512.9082,338.3907 Q1510.4014,338.3907 1509.0815,336.7389 Q1507.7617,335.087 1507.7617,331.9659 Q1507.7617,328.8365 1509.0815,327.1847 Q1510.4014,325.5328 1512.9082,325.5328 Q1513.6138,325.5328 1514.2612,325.6822 Q1514.9087,325.8316 1515.4731,326.1305 L1515.4731,328.8531 Q1514.8423,328.2721 1514.2488,328.0023 Q1513.6553,327.7325 1513.0244,327.7325 Q1511.6797,327.7325 1510.9949,328.7992 Q1510.3101,329.8658 1510.3101,331.9659 Q1510.3101,334.0577 1510.9949,335.1244 Q1511.6797,336.191 1513.0244,336.191 Q1513.6553,336.191 1514.2488,335.9212 Q1514.8423,335.6515 1515.4731,335.0704 Z " fill="#000000"/><text fill="#000000" font-family="sans-serif" font-size="14" lengthAdjust="spacing" textLength="151" x="1526.5" y="337.441">ApplicationRepository</text><line style="stroke:#181818;stroke-width:0.5;" x1="1498.5" x2="1679.5" y1="348.15" y2="348.15"/><line style="stroke:#181818;stroke-width:0.5;" x1="1498.5" x2="1679.5" y1="356.15" y2="356.15"/><ellipse cx="1508.5" cy="369.8941" fill="#84BE84" rx="3" ry="3" style="stroke:#038048;stroke-width:1.0;"/><text fill="#000000" font-family="sans-serif" font-size="14" lengthAdjust="spacing" textLength="111" x="1517.5" y="373.6852">allApplications()</text></g><!--class ApplicationService--><g id="elem_ApplicationService"><rect codeLine="107" fill="#F1F1F1" height="64.4883" id="ApplicationService" rx="2.5" ry="2.5" style="stroke:#181818;stroke-width:0.5;" width="158" x="1305" y="316.15"/><ellipse cx="1320" cy="332.15" fill="#ADD1B2" rx="11" ry="11" style="stroke:#181818;stroke-width:1.0;"/><path d="M1322.9731,337.7931 Q1322.3921,338.0919 1321.7529,338.2413 Q1321.1138,338.3907 1320.4082,338.3907 Q1317.9014,338.3907 1316.5815,336.7389 Q1315.2617,335.087 1315.2617,331.9659 Q1315.2617,328.8365 1316.5815,327.1847 Q1317.9014,325.5328 1320.4082,325.5328 Q1321.1138,325.5328 1321.7612,325.6822 Q1322.4087,325.8316 1322.9731,326.1305 L1322.9731,328.8531 Q1322.3423,328.2721 1321.7488,328.0023 Q1321.1553,327.7325 1320.5244,327.7325 Q1319.1797,327.7325 1318.4949,328.7992 Q1317.8101,329.8658 1317.8101,331.9659 Q1317.8101,334.0577 1318.4949,335.1244 Q1319.1797,336.191 1320.5244,336.191 Q1321.1553,336.191 1321.7488,335.9212 Q1322.3423,335.6515 1322.9731,335.0704 Z " fill="#000000"/><text fill="#000000" font-family="sans-serif" font-size="14" lengthAdjust="spacing" textLength="126" x="1334" y="337.441">ApplicationService</text><line style="stroke:#181818;stroke-width:0.5;" x1="1306" x2="1462" y1="348.15" y2="348.15"/><line style="stroke:#181818;stroke-width:0.5;" x1="1306" x2="1462" y1="356.15" y2="356.15"/><ellipse cx="1316" cy="369.8941" fill="#84BE84" rx="3" ry="3" style="stroke:#038048;stroke-width:1.0;"/><text fill="#000000" font-family="sans-serif" font-size="14" lengthAdjust="spacing" textLength="104" x="1325" y="373.6852">allApplication()</text></g><!--class AuthorizationService--><g id="elem_AuthorizationService"><rect codeLine="117" fill="#F1F1F1" height="80.9766" id="AuthorizationService" rx="2.5" ry="2.5" style="stroke:#181818;stroke-width:0.5;" width="706" x="591" y="804.2"/><ellipse cx="868.25" cy="820.2" fill="#ADD1B2" rx="11" ry="11" style="stroke:#181818;stroke-width:1.0;"/><path d="M871.2231,825.8431 Q870.6421,826.1419 870.0029,826.2913 Q869.3638,826.4407 868.6582,826.4407 Q866.1514,826.4407 864.8315,824.7889 Q863.5117,823.137 863.5117,820.0159 Q863.5117,816.8865 864.8315,815.2347 Q866.1514,813.5828 868.6582,813.5828 Q869.3638,813.5828 870.0112,813.7322 Q870.6587,813.8816 871.2231,814.1805 L871.2231,816.9031 Q870.5923,816.3221 869.9988,816.0523 Q869.4053,815.7825 868.7744,815.7825 Q867.4297,815.7825 866.7449,816.8492 Q866.0601,817.9158 866.0601,820.0159 Q866.0601,822.1077 866.7449,823.1744 Q867.4297,824.241 868.7744,824.241 Q869.4053,824.241 869.9988,823.9712 Q870.5923,823.7015 871.2231,823.1204 Z " fill="#000000"/><text fill="#000000" font-family="sans-serif" font-size="14" lengthAdjust="spacing" textLength="143" x="888.75" y="825.491">AuthorizationService</text><line style="stroke:#181818;stroke-width:0.5;" x1="592" x2="1296" y1="836.2" y2="836.2"/><line style="stroke:#181818;stroke-width:0.5;" x1="592" x2="1296" y1="844.2" y2="844.2"/><ellipse cx="602" cy="857.9441" fill="#84BE84" rx="3" ry="3" style="stroke:#038048;stroke-width:1.0;"/><text fill="#000000" font-family="sans-serif" font-size="14" lengthAdjust="spacing" textLength="151" x="611" y="861.7352">authorizationService()</text><ellipse cx="602" cy="874.4324" fill="#84BE84" rx="3" ry="3" style="stroke:#038048;stroke-width:1.0;"/><text fill="#000000" font-family="sans-serif" font-size="14" lengthAdjust="spacing" textLength="680" x="611" y="878.2234">ensureAuthenticatedUserHasAnyOf(Jobs4URoles.CUSTOMER_MANAGER, Jobs4URoles.POWER_USER)</text></g><!--class PersistenceContext--><g id="elem_PersistenceContext"><rect codeLine="128" fill="#F1F1F1" height="80.9766" id="PersistenceContext" rx="2.5" ry="2.5" style="stroke:#181818;stroke-width:0.5;" width="168" x="7" y="804.2"/><ellipse cx="23.8" cy="820.2" fill="#ADD1B2" rx="11" ry="11" style="stroke:#181818;stroke-width:1.0;"/><path d="M26.7731,825.8431 Q26.1921,826.1419 25.5529,826.2913 Q24.9138,826.4407 24.2082,826.4407 Q21.7014,826.4407 20.3815,824.7889 Q19.0617,823.137 19.0617,820.0159 Q19.0617,816.8865 20.3815,815.2347 Q21.7014,813.5828 24.2082,813.5828 Q24.9138,813.5828 25.5612,813.7322 Q26.2087,813.8816 26.7731,814.1805 L26.7731,816.9031 Q26.1423,816.3221 25.5488,816.0523 Q24.9553,815.7825 24.3244,815.7825 Q22.9797,815.7825 22.2949,816.8492 Q21.6101,817.9158 21.6101,820.0159 Q21.6101,822.1077 22.2949,823.1744 Q22.9797,824.241 24.3244,824.241 Q24.9553,824.241 25.5488,823.9712 Q26.1423,823.7015 26.7731,823.1204 Z " fill="#000000"/><text fill="#000000" font-family="sans-serif" font-size="14" lengthAdjust="spacing" textLength="132" x="38.2" y="825.491">PersistenceContext</text><line style="stroke:#181818;stroke-width:0.5;" x1="8" x2="174" y1="836.2" y2="836.2"/><line style="stroke:#181818;stroke-width:0.5;" x1="8" x2="174" y1="844.2" y2="844.2"/><ellipse cx="18" cy="857.9441" fill="#84BE84" rx="3" ry="3" style="stroke:#038048;stroke-width:1.0;"/><text fill="#000000" font-family="sans-serif" font-size="14" lengthAdjust="spacing" textLength="92" x="27" y="861.7352">repositories()</text><ellipse cx="18" cy="874.4324" fill="#84BE84" rx="3" ry="3" style="stroke:#038048;stroke-width:1.0;"/><text fill="#000000" font-family="sans-serif" font-size="14" lengthAdjust="spacing" textLength="142" x="27" y="878.2234">PersistenceContext()</text></g><!--class RepositoryFactory--><g id="elem_RepositoryFactory"><rect codeLine="133" fill="#F1F1F1" height="229.3711" id="RepositoryFactory" rx="2.5" ry="2.5" style="stroke:#181818;stroke-width:0.5;" width="346" x="210" y="730.01"/><ellipse cx="317.25" cy="746.01" fill="#ADD1B2" rx="11" ry="11" style="stroke:#181818;stroke-width:1.0;"/><path d="M320.2231,751.6531 Q319.6421,751.9519 319.0029,752.1013 Q318.3638,752.2507 317.6582,752.2507 Q315.1514,752.2507 313.8315,750.5989 Q312.5117,748.947 312.5117,745.8259 Q312.5117,742.6965 313.8315,741.0447 Q315.1514,739.3928 317.6582,739.3928 Q318.3638,739.3928 319.0112,739.5422 Q319.6587,739.6916 320.2231,739.9905 L320.2231,742.7131 Q319.5923,742.1321 318.9988,741.8623 Q318.4053,741.5925 317.7744,741.5925 Q316.4297,741.5925 315.7449,742.6592 Q315.0601,743.7258 315.0601,745.8259 Q315.0601,747.9177 315.7449,748.9844 Q316.4297,750.051 317.7744,750.051 Q318.4053,750.051 318.9988,749.7812 Q319.5923,749.5115 320.2231,748.9304 Z " fill="#000000"/><text fill="#000000" font-family="sans-serif" font-size="14" lengthAdjust="spacing" textLength="123" x="337.75" y="751.301">RepositoryFactory</text><line style="stroke:#181818;stroke-width:0.5;" x1="211" x2="555" y1="762.01" y2="762.01"/><line style="stroke:#181818;stroke-width:0.5;" x1="211" x2="555" y1="770.01" y2="770.01"/><ellipse cx="221" cy="783.7541" fill="#84BE84" rx="3" ry="3" style="stroke:#038048;stroke-width:1.0;"/><text fill="#000000" font-family="sans-serif" font-size="14" lengthAdjust="spacing" textLength="186" x="230" y="787.5452">newTransactionalContext()</text><ellipse cx="221" cy="800.2424" fill="#84BE84" rx="3" ry="3" style="stroke:#038048;stroke-width:1.0;"/><text fill="#000000" font-family="sans-serif" font-size="14" lengthAdjust="spacing" textLength="248" x="230" y="804.0334">users(TransactionalContext autoTx)</text><ellipse cx="221" cy="816.7307" fill="#84BE84" rx="3" ry="3" style="stroke:#038048;stroke-width:1.0;"/><text fill="#000000" font-family="sans-serif" font-size="14" lengthAdjust="spacing" textLength="47" x="230" y="820.5217">users()</text><ellipse cx="221" cy="833.219" fill="#84BE84" rx="3" ry="3" style="stroke:#038048;stroke-width:1.0;"/><text fill="#000000" font-family="sans-serif" font-size="14" lengthAdjust="spacing" textLength="313" x="230" y="837.01">customerUsers(TransactionalContext autoTx)</text><ellipse cx="221" cy="849.7073" fill="#84BE84" rx="3" ry="3" style="stroke:#038048;stroke-width:1.0;"/><text fill="#000000" font-family="sans-serif" font-size="14" lengthAdjust="spacing" textLength="112" x="230" y="853.4983">customerUsers()</text><ellipse cx="221" cy="866.1955" fill="#84BE84" rx="3" ry="3" style="stroke:#038048;stroke-width:1.0;"/><text fill="#000000" font-family="sans-serif" font-size="14" lengthAdjust="spacing" textLength="320" x="230" y="869.9866">signupRequests(TransactionalContext autoTx)</text><ellipse cx="221" cy="882.6838" fill="#84BE84" rx="3" ry="3" style="stroke:#038048;stroke-width:1.0;"/><text fill="#000000" font-family="sans-serif" font-size="14" lengthAdjust="spacing" textLength="119" x="230" y="886.4748">signupRequests()</text><ellipse cx="221" cy="899.1721" fill="#84BE84" rx="3" ry="3" style="stroke:#038048;stroke-width:1.0;"/><text fill="#000000" font-family="sans-serif" font-size="14" lengthAdjust="spacing" textLength="299" x="230" y="902.9631">jobOpenings(TransactionalContext autoTx)</text><ellipse cx="221" cy="915.6604" fill="#84BE84" rx="3" ry="3" style="stroke:#038048;stroke-width:1.0;"/><text fill="#000000" font-family="sans-serif" font-size="14" lengthAdjust="spacing" textLength="98" x="230" y="919.4514">jobOpenings()</text><ellipse cx="221" cy="932.1487" fill="#84BE84" rx="3" ry="3" style="stroke:#038048;stroke-width:1.0;"/><text fill="#000000" font-family="sans-serif" font-size="14" lengthAdjust="spacing" textLength="294" x="230" y="935.9397">applications(TransactionalContext autoTx)</text><ellipse cx="221" cy="948.637" fill="#84BE84" rx="3" ry="3" style="stroke:#038048;stroke-width:1.0;"/><text fill="#000000" font-family="sans-serif" font-size="14" lengthAdjust="spacing" textLength="93" x="230" y="952.428">applications()</text></g><!--link ListJobOpeningApplicationsUI to ListJobOpeningApplicationsController--><g id="link_ListJobOpeningApplicationsUI_ListJobOpeningApplicationsController"><path codeLine="147" d="M804.75,187.37 C804.75,228.48 804.75,269.07 804.75,301.52 " fill="none" id="ListJobOpeningApplicationsUI-to-ListJobOpeningApplicationsController" style="stroke:#181818;stroke-width:1.0;"/><polygon fill="#181818" points="804.75,307.52,808.75,298.52,804.75,302.52,800.75,298.52,804.75,307.52" style="stroke:#181818;stroke-width:1.0;"/></g><!--link ListJobOpeningApplicationsUI to ListJobOpeningController--><g id="link_ListJobOpeningApplicationsUI_ListJobOpeningController"><path codeLine="148" d="M922.25,186.98 C922.25,273.19 922.25,392.54 922.25,451.04 " fill="none" id="ListJobOpeningApplicationsUI-to-ListJobOpeningController" style="stroke:#181818;stroke-width:1.0;"/><polygon fill="#181818" points="922.25,457.04,926.25,448.04,922.25,452.04,918.25,448.04,922.25,457.04" style="stroke:#181818;stroke-width:1.0;"/></g><!--link ListJobOpeningApplicationsController to AuthorizationService--><g id="link_ListJobOpeningApplicationsController_AuthorizationService"><path codeLine="149" d="M716,389.01 C716,482.19 716,704.48 716,797.86 " fill="none" id="ListJobOpeningApplicationsController-to-AuthorizationService" style="stroke:#181818;stroke-width:1.0;"/><polygon fill="#181818" points="716,803.86,720,794.86,716,798.86,712,794.86,716,803.86" style="stroke:#181818;stroke-width:1.0;"/></g><!--link ListJobOpeningApplicationsController to PersistenceContext--><g id="link_ListJobOpeningApplicationsController_PersistenceContext"><path codeLine="150" d="M566.5,349.27 C369.35,349.27 63,349.27 63,349.27 C63,349.27 63,679.03 63,797.73 " fill="none" id="ListJobOpeningApplicationsController-to-PersistenceContext" style="stroke:#181818;stroke-width:1.0;"/><polygon fill="#181818" points="63,803.73,67,794.73,63,798.73,59,794.73,63,803.73" style="stroke:#181818;stroke-width:1.0;"/></g><!--link PersistenceContext to RepositoryFactory--><g id="link_PersistenceContext_RepositoryFactory"><path codeLine="151" d="M175.46,845.27 C186.41,845.27 191.92,845.27 203.68,845.27 " fill="none" id="PersistenceContext-to-RepositoryFactory" style="stroke:#181818;stroke-width:1.0;"/><polygon fill="#181818" points="209.68,845.27,200.68,841.27,204.68,845.27,200.68,849.27,209.68,845.27" style="stroke:#181818;stroke-width:1.0;"/></g><!--link ListJobOpeningController to JobOpeningService--><g id="link_ListJobOpeningController_JobOpeningService"><path codeLine="153" d="M840.55,500.27 C733.88,500.27 583,500.27 583,500.27 C583,500.27 583,1172.55 583,1362.66 " fill="none" id="ListJobOpeningController-to-JobOpeningService" style="stroke:#181818;stroke-width:1.0;"/><polygon fill="#181818" points="583,1368.66,587,1359.66,583,1363.66,579,1359.66,583,1368.66" style="stroke:#181818;stroke-width:1.0;"/></g><!--link ListJobOpeningController to AuthorizationService--><g id="link_ListJobOpeningController_AuthorizationService"><path codeLine="154" d="M944,521.84 C944,586.77 944,726.48 944,797.8 " fill="none" id="ListJobOpeningController-to-AuthorizationService" style="stroke:#181818;stroke-width:1.0;"/><polygon fill="#181818" points="944,803.8,948,794.8,944,798.8,940,794.8,944,803.8" style="stroke:#181818;stroke-width:1.0;"/></g><!--link ListJobOpeningController to PersistenceContext--><g id="link_ListJobOpeningController_PersistenceContext"><path codeLine="155" d="M840.77,479.27 C619.4,479.27 119,479.27 119,479.27 C119,479.27 119,702.48 119,797.84 " fill="none" id="ListJobOpeningController-to-PersistenceContext" style="stroke:#181818;stroke-width:1.0;"/><polygon fill="#181818" points="119,803.84,123,794.84,119,798.84,115,794.84,119,803.84" style="stroke:#181818;stroke-width:1.0;"/></g><!--link ListJobOpeningApplicationsController to JobOpeningService--><g id="link_ListJobOpeningApplicationsController_JobOpeningService"><path codeLine="158" d="M575,389.33 C575,556.54 575,1181.44 575,1362.69 " fill="none" id="ListJobOpeningApplicationsController-to-JobOpeningService" style="stroke:#181818;stroke-width:1.0;"/><polygon fill="#181818" points="575,1368.69,579,1359.69,575,1363.69,571,1359.69,575,1368.69" style="stroke:#181818;stroke-width:1.0;"/></g><!--link JobOpeningService to JobOpeningRepository--><g id="link_JobOpeningService_JobOpeningRepository"><path codeLine="159" d="M652,1466.74 C652,1525.92 652,1617.72 652,1668.37 " fill="none" id="JobOpeningService-to-JobOpeningRepository" style="stroke:#181818;stroke-width:1.0;"/><polygon fill="#181818" points="652,1674.37,656,1665.37,652,1669.37,648,1665.37,652,1674.37" style="stroke:#181818;stroke-width:1.0;"/></g><!--link JobOpeningService to JobOpeningBuilder--><g id="link_JobOpeningService_JobOpeningBuilder"><path codeLine="160" d="M888.19,1418.27 C899.7,1418.27 905.38,1418.27 917.17,1418.27 " fill="none" id="JobOpeningService-to-JobOpeningBuilder" style="stroke:#181818;stroke-width:1.0;"/><polygon fill="#181818" points="923.17,1418.27,914.17,1414.27,918.17,1418.27,914.17,1422.27,923.17,1418.27" style="stroke:#181818;stroke-width:1.0;"/></g><!--link JobOpeningBuilder to JobOpening--><g id="link_JobOpeningBuilder_JobOpening"><path codeLine="161" d="M1704.62,1418.27 C1716.12,1418.27 1721.44,1418.27 1732.52,1418.27 " fill="none" id="JobOpeningBuilder-to-JobOpening" style="stroke:#181818;stroke-width:1.0;"/><polygon fill="#181818" points="1738.52,1418.27,1729.52,1414.27,1733.52,1418.27,1729.52,1422.27,1738.52,1418.27" style="stroke:#181818;stroke-width:1.0;"/></g><!--link ListJobOpeningApplicationsController to ApplicationService--><g id="link_ListJobOpeningApplicationsController_ApplicationService"><path codeLine="163" d="M891.33,349.27 C1022.98,349.27 1196.88,349.27 1298.88,349.27 " fill="none" id="ListJobOpeningApplicationsController-to-ApplicationService" style="stroke:#181818;stroke-width:1.0;"/><polygon fill="#181818" points="1304.88,349.27,1295.88,345.27,1299.88,349.27,1295.88,353.27,1304.88,349.27" style="stroke:#181818;stroke-width:1.0;"/></g><!--link ApplicationService to ApplicationRepository--><g id="link_ApplicationService_ApplicationRepository"><path codeLine="164" d="M1463.26,349.27 C1474.41,349.27 1479.95,349.27 1491.32,349.27 " fill="none" id="ApplicationService-to-ApplicationRepository" style="stroke:#181818;stroke-width:1.0;"/><polygon fill="#181818" points="1497.32,349.27,1488.32,345.27,1492.32,349.27,1488.32,353.27,1497.32,349.27" style="stroke:#181818;stroke-width:1.0;"/></g><!--link ApplicationService to ApplicationBuilder--><g id="link_ApplicationService_ApplicationBuilder"><path codeLine="165" d="M1384,381.09 C1384,401.18 1384,421.09 1384,442.52 " fill="none" id="ApplicationService-to-ApplicationBuilder" style="stroke:#181818;stroke-width:1.0;"/><polygon fill="#181818" points="1384,448.52,1388,439.52,1384,443.52,1380,439.52,1384,448.52" style="stroke:#181818;stroke-width:1.0;"/></g><!--link ApplicationBuilder to Application--><g id="link_ApplicationBuilder_Application"><path codeLine="166" d="M1696,530.13 C1696,546.63 1696,561.12 1696,583.68 " fill="none" id="ApplicationBuilder-to-Application" style="stroke:#181818;stroke-width:1.0;"/><polygon fill="#181818" points="1696,589.68,1700,580.68,1696,584.68,1692,580.68,1696,589.68" style="stroke:#181818;stroke-width:1.0;"/></g><!--SRC=[bLTDSzis4BtpL-18J-cUSikCPzJ4RfofBOy-cajdEX2vjk2G00k0STHC_tiN943YWtOe7KHXyNRvzc6nWDHNnbigQKDgna6VMY12wgF8j6Y95kGWj1ODgPY4KZF1iwoigLBa3wRqPt5Ojy0PVrgrRSrAQW1gV_iZ8_ZvXHo1LYPgVc4DqBJwT0TAqIVFM4C3N2kCaTXYmuDaN8ECpVUqcUBLoEmJljc3LM9x52yu_2-Rv_z1S2r5NOCaZZojwsb-SFrPvbCKBuWFM3zw8P_5OGEF886Nu8W-Cbwz2XaPJ8Y1xINv2AgKh3Kl8TNqUvZyavQKbmpKVTSSCCDluNW0hQfAui8GEZm7uvseW3JuDGpx_6YfTwPAIcymJE-Ohc4jRphULmhHuNW0VVPI8dv-xXLDI_a9e_VFBEjbUKMImi-rCD0ejSAbK_HPuCDdZSE_4fQaSE- -6DxDAYmmfa-v7IkijPNAnU4PDuIr-QGSpgFcJ14xPxOStT0mTRzzkiuM4PwWFUjyjausq0h5j92d-VfMysvRaDyOhfFpaV24nGzoqNeaYz472HOaN8yYJcrQYlTdaFwjOtNbRUGNfe-hkZw7wLaifueXRXiV30MVdTS41bgNvBRoZ5XbtiWYDfH_9HA_x7ZR7Hgc508-KWr41KE7qLHtYgZ-OMrUP4JI6rO3eQdDeirFjTAQbaUep8x7yiU-b1ej_hgXh5Q15_RvnEQZRO2U24G6YtkpJPXUWvs_FGeEjgVfS9pPXV1IpmE92z8hYuzGHcFejUjxmunA29WJenWI2L96Q9nTWK59M8WnTLT3hi_eusJhwqp2JeJci4MPWvUgMsiZcBSpHs_A9tzV9sSr-eo3KAN9t6ir3cVqogUZBLNDknZ4ueLJdeJZHDfqJOfYg-LmOC_kFjiSVcHHSo3dLiTPjR6mECBI83ErCJQrjphCrEp7DADxo6lgs7x_YflroiOxrAh3Yw9a__g-q_aoCpajAbUT1EDlgXJ3GxLN83zHjUAdzMEEsr-zssy42lRhX_rsjxwxtlnzjxfV_NwzAOW_-x3-WbFxxVNcmf5pz1v0AdDSePQzoj-rTv1PYR3dZwHIl2_mfEeDdWIzk8CRXvSTLekY_Mb0wybtcEymCPNFGOn6OlSz18vxlLDuyGQvN-eUEemxb3tnhjt0FnqelIXEvE5jj_7SNH3bEJYca_QmA0ODInQNugr_7UJoychHvVndKT8uYtoz_n0cmjpcMEgDxcanPZFrZC2aBcELmiZeaTpltd9Ob4ZaCSCzEoFrb5zw8mrnamPpqAlqSfYbryK0jfJkrKptp59J1FJepc53i6ESccAawNp_0m00]--></g></svg>