<?xml version="1.0" encoding="us-ascii" standalone="no"?><svg xmlns="http://www.w3.org/2000/svg" xmlns:xlink="http://www.w3.org/1999/xlink" contentStyleType="text/css" height="843px" preserveAspectRatio="none" style="width:2044px;height:843px;background:#FFFFFF;" version="1.1" viewBox="0 0 2044 843" width="2044px" zoomAndPan="magnify"><defs/><g><rect fill="#FFFFFF" height="636.832" style="stroke:#181818;stroke-width:1.0;" width="10" x="68.5" y="93.9766"/><rect fill="#FFFFFF" height="263.7949" style="stroke:#181818;stroke-width:1.0;" width="10" x="432.5" y="115.2871"/><rect fill="#FFFFFF" height="331.416" style="stroke:#181818;stroke-width:1.0;" width="10" x="432.5" y="408.3926"/><rect fill="#FFFFFF" height="205.1738" style="stroke:#181818;stroke-width:1.0;" width="10" x="803.5" y="144.5977"/><rect fill="#FFFFFF" height="263.7949" style="stroke:#181818;stroke-width:1.0;" width="10" x="803.5" y="437.7031"/><rect fill="#FFFFFF" height="29.3105" style="stroke:#181818;stroke-width:1.0;" width="10" x="1079.5" y="173.9082"/><rect fill="#FFFFFF" height="87.9316" style="stroke:#181818;stroke-width:1.0;" width="10" x="1239.5" y="232.5293"/><rect fill="#FFFFFF" height="87.9316" style="stroke:#181818;stroke-width:1.0;" width="10" x="1239.5" y="467.0137"/><rect fill="#FFFFFF" height="29.3105" style="stroke:#181818;stroke-width:1.0;" width="10" x="1477.5" y="261.8398"/><rect fill="#FFFFFF" height="29.3105" style="stroke:#181818;stroke-width:1.0;" width="10" x="1477.5" y="496.3242"/><rect fill="#FFFFFF" height="87.9316" style="stroke:#181818;stroke-width:1.0;" width="10" x="1637.5" y="584.2559"/><rect fill="#FFFFFF" height="29.3105" style="stroke:#181818;stroke-width:1.0;" width="10" x="1959.5" y="613.5664"/><line style="stroke:#181818;stroke-width:0.5;stroke-dasharray:5.0,5.0;" x1="73" x2="73" y1="83.9766" y2="748.8086"/><line style="stroke:#181818;stroke-width:0.5;stroke-dasharray:5.0,5.0;" x1="437" x2="437" y1="83.9766" y2="748.8086"/><line style="stroke:#181818;stroke-width:0.5;stroke-dasharray:5.0,5.0;" x1="808" x2="808" y1="83.9766" y2="748.8086"/><line style="stroke:#181818;stroke-width:0.5;stroke-dasharray:5.0,5.0;" x1="1084" x2="1084" y1="83.9766" y2="748.8086"/><line style="stroke:#181818;stroke-width:0.5;stroke-dasharray:5.0,5.0;" x1="1244" x2="1244" y1="83.9766" y2="748.8086"/><line style="stroke:#181818;stroke-width:0.5;stroke-dasharray:5.0,5.0;" x1="1482.5" x2="1482.5" y1="83.9766" y2="748.8086"/><line style="stroke:#181818;stroke-width:0.5;stroke-dasharray:5.0,5.0;" x1="1642.5" x2="1642.5" y1="83.9766" y2="748.8086"/><line style="stroke:#181818;stroke-width:0.5;stroke-dasharray:5.0,5.0;" x1="1964" x2="1964" y1="83.9766" y2="748.8086"/><text fill="#000000" font-family="sans-serif" font-size="14" lengthAdjust="spacing" textLength="131" x="5" y="81.0234">Customer Manager</text><ellipse cx="73.5" cy="15.9883" fill="#E3E3E3" rx="8" ry="8" style="stroke:#181818;stroke-width:0.5;"/><path d="M73.5,23.9883 L73.5,50.9883 M60.5,31.9883 L86.5,31.9883 M73.5,50.9883 L60.5,65.9883 M73.5,50.9883 L86.5,65.9883 " fill="none" style="stroke:#181818;stroke-width:0.5;"/><text fill="#000000" font-family="sans-serif" font-size="14" lengthAdjust="spacing" textLength="131" x="5" y="761.3438">Customer Manager</text><ellipse cx="73.5" cy="772.7969" fill="#E3E3E3" rx="8" ry="8" style="stroke:#181818;stroke-width:0.5;"/><path d="M73.5,780.7969 L73.5,807.7969 M60.5,788.7969 L86.5,788.7969 M73.5,807.7969 L60.5,822.7969 M73.5,807.7969 L86.5,822.7969 " fill="none" style="stroke:#181818;stroke-width:0.5;"/><rect fill="#E3E3E3" height="46.9766" rx="2.5" ry="2.5" style="stroke:#181818;stroke-width:0.5;" width="217" x="329" y="36"/><text fill="#000000" font-family="sans-serif" font-size="14" font-style="italic" lengthAdjust="spacing" textLength="101" x="387" y="56.5352">&#171;presentation&#187;</text><text fill="#000000" font-family="sans-serif" font-size="14" lengthAdjust="spacing" textLength="203" x="336" y="73.0234">ListJobOpeningApplicationsUI</text><rect fill="#E3E3E3" height="46.9766" rx="2.5" ry="2.5" style="stroke:#181818;stroke-width:0.5;" width="217" x="329" y="747.8086"/><text fill="#000000" font-family="sans-serif" font-size="14" font-style="italic" lengthAdjust="spacing" textLength="101" x="387" y="768.3438">&#171;presentation&#187;</text><text fill="#000000" font-family="sans-serif" font-size="14" lengthAdjust="spacing" textLength="203" x="336" y="784.832">ListJobOpeningApplicationsUI</text><rect fill="#E3E3E3" height="46.9766" rx="2.5" ry="2.5" style="stroke:#181818;stroke-width:0.5;" width="273" x="672" y="36"/><text fill="#000000" font-family="sans-serif" font-size="14" font-style="italic" lengthAdjust="spacing" textLength="81" x="768" y="56.5352">&#171;controller&#187;</text><text fill="#000000" font-family="sans-serif" font-size="14" lengthAdjust="spacing" textLength="259" x="679" y="73.0234">ListJobOpeningApplicationsController</text><rect fill="#E3E3E3" height="46.9766" rx="2.5" ry="2.5" style="stroke:#181818;stroke-width:0.5;" width="273" x="672" y="747.8086"/><text fill="#000000" font-family="sans-serif" font-size="14" font-style="italic" lengthAdjust="spacing" textLength="81" x="768" y="768.3438">&#171;controller&#187;</text><text fill="#000000" font-family="sans-serif" font-size="14" lengthAdjust="spacing" textLength="259" x="679" y="784.832">ListJobOpeningApplicationsController</text><rect fill="#E3E3E3" height="46.9766" rx="2.5" ry="2.5" style="stroke:#181818;stroke-width:0.5;" width="157" x="1006" y="36"/><text fill="#000000" font-family="sans-serif" font-size="14" font-style="italic" lengthAdjust="spacing" textLength="61" x="1054" y="56.5352">&#171;service&#187;</text><text fill="#000000" font-family="sans-serif" font-size="14" lengthAdjust="spacing" textLength="143" x="1013" y="73.0234">AuthorizationService</text><rect fill="#E3E3E3" height="46.9766" rx="2.5" ry="2.5" style="stroke:#181818;stroke-width:0.5;" width="157" x="1006" y="747.8086"/><text fill="#000000" font-family="sans-serif" font-size="14" font-style="italic" lengthAdjust="spacing" textLength="61" x="1054" y="768.3438">&#171;service&#187;</text><text fill="#000000" font-family="sans-serif" font-size="14" lengthAdjust="spacing" textLength="143" x="1013" y="784.832">AuthorizationService</text><rect fill="#E3E3E3" height="46.9766" rx="2.5" ry="2.5" style="stroke:#181818;stroke-width:0.5;" width="143" x="1173" y="36"/><text fill="#000000" font-family="sans-serif" font-size="14" font-style="italic" lengthAdjust="spacing" textLength="61" x="1214" y="56.5352">&#171;service&#187;</text><text fill="#000000" font-family="sans-serif" font-size="14" lengthAdjust="spacing" textLength="129" x="1180" y="73.0234">JobOpeningService</text><rect fill="#E3E3E3" height="46.9766" rx="2.5" ry="2.5" style="stroke:#181818;stroke-width:0.5;" width="143" x="1173" y="747.8086"/><text fill="#000000" font-family="sans-serif" font-size="14" font-style="italic" lengthAdjust="spacing" textLength="61" x="1214" y="768.3438">&#171;service&#187;</text><text fill="#000000" font-family="sans-serif" font-size="14" lengthAdjust="spacing" textLength="129" x="1180" y="784.832">JobOpeningService</text><text fill="#000000" font-family="sans-serif" font-size="14" font-style="italic" lengthAdjust="spacing" textLength="84" x="1437.5" y="64.5352">&#171;repository&#187;</text><text fill="#000000" font-family="sans-serif" font-size="14" lengthAdjust="spacing" textLength="154" x="1402.5" y="81.0234">JobOpeningRepository</text><path d="M1464.5,15 C1464.5,5 1482.5,5 1482.5,5 C1482.5,5 1500.5,5 1500.5,15 L1500.5,41 C1500.5,51 1482.5,51 1482.5,51 C1482.5,51 1464.5,51 1464.5,41 L1464.5,15 " fill="#E3E3E3" style="stroke:#181818;stroke-width:1.5;"/><path d="M1464.5,15 C1464.5,25 1482.5,25 1482.5,25 C1482.5,25 1500.5,25 1500.5,15 " fill="none" style="stroke:#181818;stroke-width:1.5;"/><text fill="#000000" font-family="sans-serif" font-size="14" font-style="italic" lengthAdjust="spacing" textLength="84" x="1437.5" y="761.3438">&#171;repository&#187;</text><text fill="#000000" font-family="sans-serif" font-size="14" lengthAdjust="spacing" textLength="154" x="1402.5" y="777.832">JobOpeningRepository</text><path d="M1464.5,790.7852 C1464.5,780.7852 1482.5,780.7852 1482.5,780.7852 C1482.5,780.7852 1500.5,780.7852 1500.5,790.7852 L1500.5,816.7852 C1500.5,826.7852 1482.5,826.7852 1482.5,826.7852 C1482.5,826.7852 1464.5,826.7852 1464.5,816.7852 L1464.5,790.7852 " fill="#E3E3E3" style="stroke:#181818;stroke-width:1.5;"/><path d="M1464.5,790.7852 C1464.5,800.7852 1482.5,800.7852 1482.5,800.7852 C1482.5,800.7852 1500.5,800.7852 1500.5,790.7852 " fill="none" style="stroke:#181818;stroke-width:1.5;"/><rect fill="#E3E3E3" height="46.9766" rx="2.5" ry="2.5" style="stroke:#181818;stroke-width:0.5;" width="140" x="1572.5" y="36"/><text fill="#000000" font-family="sans-serif" font-size="14" font-style="italic" lengthAdjust="spacing" textLength="61" x="1612" y="56.5352">&#171;service&#187;</text><text fill="#000000" font-family="sans-serif" font-size="14" lengthAdjust="spacing" textLength="126" x="1579.5" y="73.0234">ApplicationService</text><rect fill="#E3E3E3" height="46.9766" rx="2.5" ry="2.5" style="stroke:#181818;stroke-width:0.5;" width="140" x="1572.5" y="747.8086"/><text fill="#000000" font-family="sans-serif" font-size="14" font-style="italic" lengthAdjust="spacing" textLength="61" x="1612" y="768.3438">&#171;service&#187;</text><text fill="#000000" font-family="sans-serif" font-size="14" lengthAdjust="spacing" textLength="126" x="1579.5" y="784.832">ApplicationService</text><text fill="#000000" font-family="sans-serif" font-size="14" font-style="italic" lengthAdjust="spacing" textLength="84" x="1919.5" y="64.5352">&#171;repository&#187;</text><text fill="#000000" font-family="sans-serif" font-size="14" lengthAdjust="spacing" textLength="151" x="1886" y="81.0234">ApplicationRepository</text><path d="M1946.5,15 C1946.5,5 1964.5,5 1964.5,5 C1964.5,5 1982.5,5 1982.5,15 L1982.5,41 C1982.5,51 1964.5,51 1964.5,51 C1964.5,51 1946.5,51 1946.5,41 L1946.5,15 " fill="#E3E3E3" style="stroke:#181818;stroke-width:1.5;"/><path d="M1946.5,15 C1946.5,25 1964.5,25 1964.5,25 C1964.5,25 1982.5,25 1982.5,15 " fill="none" style="stroke:#181818;stroke-width:1.5;"/><text fill="#000000" font-family="sans-serif" font-size="14" font-style="italic" lengthAdjust="spacing" textLength="84" x="1919.5" y="761.3438">&#171;repository&#187;</text><text fill="#000000" font-family="sans-serif" font-size="14" lengthAdjust="spacing" textLength="151" x="1886" y="777.832">ApplicationRepository</text><path d="M1946.5,790.7852 C1946.5,780.7852 1964.5,780.7852 1964.5,780.7852 C1964.5,780.7852 1982.5,780.7852 1982.5,790.7852 L1982.5,816.7852 C1982.5,826.7852 1964.5,826.7852 1964.5,826.7852 C1964.5,826.7852 1946.5,826.7852 1946.5,816.7852 L1946.5,790.7852 " fill="#E3E3E3" style="stroke:#181818;stroke-width:1.5;"/><path d="M1946.5,790.7852 C1946.5,800.7852 1964.5,800.7852 1964.5,800.7852 C1964.5,800.7852 1982.5,800.7852 1982.5,790.7852 " fill="none" style="stroke:#181818;stroke-width:1.5;"/><rect fill="#FFFFFF" height="636.832" style="stroke:#181818;stroke-width:1.0;" width="10" x="68.5" y="93.9766"/><rect fill="#FFFFFF" height="263.7949" style="stroke:#181818;stroke-width:1.0;" width="10" x="432.5" y="115.2871"/><rect fill="#FFFFFF" height="331.416" style="stroke:#181818;stroke-width:1.0;" width="10" x="432.5" y="408.3926"/><rect fill="#FFFFFF" height="205.1738" style="stroke:#181818;stroke-width:1.0;" width="10" x="803.5" y="144.5977"/><rect fill="#FFFFFF" height="263.7949" style="stroke:#181818;stroke-width:1.0;" width="10" x="803.5" y="437.7031"/><rect fill="#FFFFFF" height="29.3105" style="stroke:#181818;stroke-width:1.0;" width="10" x="1079.5" y="173.9082"/><rect fill="#FFFFFF" height="87.9316" style="stroke:#181818;stroke-width:1.0;" width="10" x="1239.5" y="232.5293"/><rect fill="#FFFFFF" height="87.9316" style="stroke:#181818;stroke-width:1.0;" width="10" x="1239.5" y="467.0137"/><rect fill="#FFFFFF" height="29.3105" style="stroke:#181818;stroke-width:1.0;" width="10" x="1477.5" y="261.8398"/><rect fill="#FFFFFF" height="29.3105" style="stroke:#181818;stroke-width:1.0;" width="10" x="1477.5" y="496.3242"/><rect fill="#FFFFFF" height="87.9316" style="stroke:#181818;stroke-width:1.0;" width="10" x="1637.5" y="584.2559"/><rect fill="#FFFFFF" height="29.3105" style="stroke:#181818;stroke-width:1.0;" width="10" x="1959.5" y="613.5664"/><polygon fill="#181818" points="420.5,111.2871,430.5,115.2871,420.5,119.2871,424.5,115.2871" style="stroke:#181818;stroke-width:1.0;"/><line style="stroke:#181818;stroke-width:1.0;" x1="78.5" x2="426.5" y1="115.2871" y2="115.2871"/><text fill="#000000" font-family="sans-serif" font-size="13" font-weight="bold" lengthAdjust="spacing" textLength="9" x="85.5" y="110.5449">1</text><text fill="#000000" font-family="sans-serif" font-size="13" lengthAdjust="spacing" textLength="227" x="98.5" y="110.5449">list all applications of a job opening</text><polygon fill="#181818" points="791.5,140.5977,801.5,144.5977,791.5,148.5977,795.5,144.5977" style="stroke:#181818;stroke-width:1.0;"/><line style="stroke:#181818;stroke-width:1.0;" x1="442.5" x2="797.5" y1="144.5977" y2="144.5977"/><text fill="#000000" font-family="sans-serif" font-size="13" font-weight="bold" lengthAdjust="spacing" textLength="9" x="449.5" y="139.8555">2</text><text fill="#000000" font-family="sans-serif" font-size="13" lengthAdjust="spacing" textLength="134" x="462.5" y="139.8555">selects a job opening</text><polygon fill="#181818" points="1067.5,169.9082,1077.5,173.9082,1067.5,177.9082,1071.5,173.9082" style="stroke:#181818;stroke-width:1.0;"/><line style="stroke:#181818;stroke-width:1.0;" x1="813.5" x2="1073.5" y1="173.9082" y2="173.9082"/><text fill="#000000" font-family="sans-serif" font-size="13" font-weight="bold" lengthAdjust="spacing" textLength="9" x="820.5" y="169.166">3</text><text fill="#000000" font-family="sans-serif" font-size="13" lengthAdjust="spacing" textLength="234" x="833.5" y="169.166">ensureAuthenticationUserHasAnyOf()</text><polygon fill="#181818" points="824.5,199.2188,814.5,203.2188,824.5,207.2188,820.5,203.2188" style="stroke:#181818;stroke-width:1.0;"/><line style="stroke:#181818;stroke-width:1.0;stroke-dasharray:2.0,2.0;" x1="818.5" x2="1083.5" y1="203.2188" y2="203.2188"/><text fill="#000000" font-family="sans-serif" font-size="13" font-weight="bold" lengthAdjust="spacing" textLength="9" x="830.5" y="198.4766">4</text><text fill="#000000" font-family="sans-serif" font-size="13" lengthAdjust="spacing" textLength="67" x="843.5" y="198.4766">return true</text><polygon fill="#181818" points="1227.5,228.5293,1237.5,232.5293,1227.5,236.5293,1231.5,232.5293" style="stroke:#181818;stroke-width:1.0;"/><line style="stroke:#181818;stroke-width:1.0;" x1="813.5" x2="1233.5" y1="232.5293" y2="232.5293"/><text fill="#000000" font-family="sans-serif" font-size="13" font-weight="bold" lengthAdjust="spacing" textLength="9" x="820.5" y="227.7871">5</text><text fill="#000000" font-family="sans-serif" font-size="13" lengthAdjust="spacing" textLength="96" x="833.5" y="227.7871">allJobOpening()</text><polygon fill="#181818" points="1465.5,257.8398,1475.5,261.8398,1465.5,265.8398,1469.5,261.8398" style="stroke:#181818;stroke-width:1.0;"/><line style="stroke:#181818;stroke-width:1.0;" x1="1249.5" x2="1471.5" y1="261.8398" y2="261.8398"/><text fill="#000000" font-family="sans-serif" font-size="13" font-weight="bold" lengthAdjust="spacing" textLength="9" x="1256.5" y="257.0977">6</text><text fill="#000000" font-family="sans-serif" font-size="13" lengthAdjust="spacing" textLength="96" x="1269.5" y="257.0977">allJobOpening()</text><polygon fill="#181818" points="1260.5,287.1504,1250.5,291.1504,1260.5,295.1504,1256.5,291.1504" style="stroke:#181818;stroke-width:1.0;"/><line style="stroke:#181818;stroke-width:1.0;stroke-dasharray:2.0,2.0;" x1="1254.5" x2="1481.5" y1="291.1504" y2="291.1504"/><text fill="#000000" font-family="sans-serif" font-size="13" font-weight="bold" lengthAdjust="spacing" textLength="9" x="1266.5" y="286.4082">7</text><text fill="#000000" font-family="sans-serif" font-size="13" lengthAdjust="spacing" textLength="117" x="1279.5" y="286.4082">listAllJobOpenings</text><polygon fill="#181818" points="824.5,316.4609,814.5,320.4609,824.5,324.4609,820.5,320.4609" style="stroke:#181818;stroke-width:1.0;"/><line style="stroke:#181818;stroke-width:1.0;stroke-dasharray:2.0,2.0;" x1="818.5" x2="1243.5" y1="320.4609" y2="320.4609"/><text fill="#000000" font-family="sans-serif" font-size="13" font-weight="bold" lengthAdjust="spacing" textLength="9" x="830.5" y="315.7188">8</text><text fill="#000000" font-family="sans-serif" font-size="13" lengthAdjust="spacing" textLength="117" x="843.5" y="315.7188">listAllJobOpenings</text><polygon fill="#181818" points="453.5,345.7715,443.5,349.7715,453.5,353.7715,449.5,349.7715" style="stroke:#181818;stroke-width:1.0;"/><line style="stroke:#181818;stroke-width:1.0;stroke-dasharray:2.0,2.0;" x1="447.5" x2="807.5" y1="349.7715" y2="349.7715"/><text fill="#000000" font-family="sans-serif" font-size="13" font-weight="bold" lengthAdjust="spacing" textLength="9" x="459.5" y="345.0293">9</text><text fill="#000000" font-family="sans-serif" font-size="13" lengthAdjust="spacing" textLength="117" x="472.5" y="345.0293">listAllJobOpenings</text><polygon fill="#181818" points="89.5,375.082,79.5,379.082,89.5,383.082,85.5,379.082" style="stroke:#181818;stroke-width:1.0;"/><line style="stroke:#181818;stroke-width:1.0;stroke-dasharray:2.0,2.0;" x1="83.5" x2="436.5" y1="379.082" y2="379.082"/><text fill="#000000" font-family="sans-serif" font-size="13" font-weight="bold" lengthAdjust="spacing" textLength="18" x="95.5" y="374.3398">10</text><text fill="#000000" font-family="sans-serif" font-size="13" lengthAdjust="spacing" textLength="177" x="117.5" y="374.3398">asks to select a job opening</text><polygon fill="#181818" points="420.5,404.3926,430.5,408.3926,420.5,412.3926,424.5,408.3926" style="stroke:#181818;stroke-width:1.0;"/><line style="stroke:#181818;stroke-width:1.0;" x1="78.5" x2="426.5" y1="408.3926" y2="408.3926"/><text fill="#000000" font-family="sans-serif" font-size="13" font-weight="bold" lengthAdjust="spacing" textLength="18" x="85.5" y="403.6504">11</text><text fill="#000000" font-family="sans-serif" font-size="13" lengthAdjust="spacing" textLength="134" x="107.5" y="403.6504">selects a job opening</text><polygon fill="#181818" points="791.5,433.7031,801.5,437.7031,791.5,441.7031,795.5,437.7031" style="stroke:#181818;stroke-width:1.0;"/><line style="stroke:#181818;stroke-width:1.0;" x1="442.5" x2="797.5" y1="437.7031" y2="437.7031"/><text fill="#000000" font-family="sans-serif" font-size="13" font-weight="bold" lengthAdjust="spacing" textLength="18" x="449.5" y="432.9609">12</text><text fill="#000000" font-family="sans-serif" font-size="13" lengthAdjust="spacing" textLength="320" x="471.5" y="432.9609">selects all applications of the selected job opening</text><polygon fill="#181818" points="1227.5,463.0137,1237.5,467.0137,1227.5,471.0137,1231.5,467.0137" style="stroke:#181818;stroke-width:1.0;"/><line style="stroke:#181818;stroke-width:1.0;" x1="813.5" x2="1233.5" y1="467.0137" y2="467.0137"/><text fill="#000000" font-family="sans-serif" font-size="13" font-weight="bold" lengthAdjust="spacing" textLength="18" x="820.5" y="462.2715">13</text><text fill="#000000" font-family="sans-serif" font-size="13" lengthAdjust="spacing" textLength="187" x="842.5" y="462.2715">findJobOpening(jobReference)</text><polygon fill="#181818" points="1465.5,492.3242,1475.5,496.3242,1465.5,500.3242,1469.5,496.3242" style="stroke:#181818;stroke-width:1.0;"/><line style="stroke:#181818;stroke-width:1.0;" x1="1249.5" x2="1471.5" y1="496.3242" y2="496.3242"/><text fill="#000000" font-family="sans-serif" font-size="13" font-weight="bold" lengthAdjust="spacing" textLength="18" x="1256.5" y="491.582">14</text><text fill="#000000" font-family="sans-serif" font-size="13" lengthAdjust="spacing" textLength="187" x="1278.5" y="491.582">findJobOpening(jobReference)</text><polygon fill="#181818" points="1260.5,521.6348,1250.5,525.6348,1260.5,529.6348,1256.5,525.6348" style="stroke:#181818;stroke-width:1.0;"/><line style="stroke:#181818;stroke-width:1.0;stroke-dasharray:2.0,2.0;" x1="1254.5" x2="1481.5" y1="525.6348" y2="525.6348"/><text fill="#000000" font-family="sans-serif" font-size="13" font-weight="bold" lengthAdjust="spacing" textLength="18" x="1266.5" y="520.8926">15</text><text fill="#000000" font-family="sans-serif" font-size="13" lengthAdjust="spacing" textLength="145" x="1288.5" y="520.8926">jobOpeningApplication</text><polygon fill="#181818" points="824.5,550.9453,814.5,554.9453,824.5,558.9453,820.5,554.9453" style="stroke:#181818;stroke-width:1.0;"/><line style="stroke:#181818;stroke-width:1.0;stroke-dasharray:2.0,2.0;" x1="818.5" x2="1243.5" y1="554.9453" y2="554.9453"/><text fill="#000000" font-family="sans-serif" font-size="13" font-weight="bold" lengthAdjust="spacing" textLength="18" x="830.5" y="550.2031">16</text><text fill="#000000" font-family="sans-serif" font-size="13" lengthAdjust="spacing" textLength="145" x="852.5" y="550.2031">jobOpeningApplication</text><polygon fill="#181818" points="1625.5,580.2559,1635.5,584.2559,1625.5,588.2559,1629.5,584.2559" style="stroke:#181818;stroke-width:1.0;"/><line style="stroke:#181818;stroke-width:1.0;" x1="813.5" x2="1631.5" y1="584.2559" y2="584.2559"/><text fill="#000000" font-family="sans-serif" font-size="13" font-weight="bold" lengthAdjust="spacing" textLength="18" x="820.5" y="579.5137">17</text><text fill="#000000" font-family="sans-serif" font-size="13" lengthAdjust="spacing" textLength="271" x="842.5" y="579.5137">allApplicationsOfJobOpening(jobReference)</text><polygon fill="#181818" points="1947.5,609.5664,1957.5,613.5664,1947.5,617.5664,1951.5,613.5664" style="stroke:#181818;stroke-width:1.0;"/><line style="stroke:#181818;stroke-width:1.0;" x1="1647.5" x2="1953.5" y1="613.5664" y2="613.5664"/><text fill="#000000" font-family="sans-serif" font-size="13" font-weight="bold" lengthAdjust="spacing" textLength="18" x="1654.5" y="608.8242">18</text><text fill="#000000" font-family="sans-serif" font-size="13" lengthAdjust="spacing" textLength="271" x="1676.5" y="608.8242">allApplicationsOfJobOpening(jobReference)</text><polygon fill="#181818" points="1658.5,638.877,1648.5,642.877,1658.5,646.877,1654.5,642.877" style="stroke:#181818;stroke-width:1.0;"/><line style="stroke:#181818;stroke-width:1.0;stroke-dasharray:2.0,2.0;" x1="1652.5" x2="1963.5" y1="642.877" y2="642.877"/><text fill="#000000" font-family="sans-serif" font-size="13" font-weight="bold" lengthAdjust="spacing" textLength="18" x="1664.5" y="638.1348">19</text><text fill="#000000" font-family="sans-serif" font-size="13" lengthAdjust="spacing" textLength="189" x="1686.5" y="638.1348">listAllJobOpeningsApplication</text><polygon fill="#181818" points="824.5,668.1875,814.5,672.1875,824.5,676.1875,820.5,672.1875" style="stroke:#181818;stroke-width:1.0;"/><line style="stroke:#181818;stroke-width:1.0;stroke-dasharray:2.0,2.0;" x1="818.5" x2="1641.5" y1="672.1875" y2="672.1875"/><text fill="#000000" font-family="sans-serif" font-size="13" font-weight="bold" lengthAdjust="spacing" textLength="18" x="830.5" y="667.4453">20</text><text fill="#000000" font-family="sans-serif" font-size="13" lengthAdjust="spacing" textLength="189" x="852.5" y="667.4453">listAllJobOpeningsApplication</text><polygon fill="#181818" points="453.5,697.498,443.5,701.498,453.5,705.498,449.5,701.498" style="stroke:#181818;stroke-width:1.0;"/><line style="stroke:#181818;stroke-width:1.0;stroke-dasharray:2.0,2.0;" x1="447.5" x2="807.5" y1="701.498" y2="701.498"/><text fill="#000000" font-family="sans-serif" font-size="13" font-weight="bold" lengthAdjust="spacing" textLength="18" x="459.5" y="696.7559">21</text><text fill="#000000" font-family="sans-serif" font-size="13" lengthAdjust="spacing" textLength="189" x="481.5" y="696.7559">listAllJobOpeningsApplication</text><polygon fill="#181818" points="84.5,726.8086,74.5,730.8086,84.5,734.8086,80.5,730.8086" style="stroke:#181818;stroke-width:1.0;"/><line style="stroke:#181818;stroke-width:1.0;stroke-dasharray:2.0,2.0;" x1="78.5" x2="431.5" y1="730.8086" y2="730.8086"/><text fill="#000000" font-family="sans-serif" font-size="13" font-weight="bold" lengthAdjust="spacing" textLength="18" x="90.5" y="726.0664">22</text><text fill="#000000" font-family="sans-serif" font-size="13" lengthAdjust="spacing" textLength="308" x="112.5" y="726.0664">display all applications of a selected job opening</text><!--SRC=[nLR1Zjem4BtdAqPxQNlW1n12GbpQQX7IhlO39ia4l1WxifrjwTTt0YZn4fDrmjBwbCGpxxtCsC-sEw5ADBY7lLOwsngz9t2ceiGsCoLcEzpGipj80aEPGxMHVe3TOgv_2RM10gMb9C7AQLNjKp99ycKhSe92QvVgtmbcJXjuM5RMCPE15Ig6DW-05fQhXF6So4I9oi6ZiEwdJjSbAOPUbAKK6JgXbNtv0RDPQSYISiSlytbavb8hPxIKp3oRPStBHVwYSbjjn9zZpZEPDv4HnzlJqqLmInIApD5XYfQyi2SgjHLSXWD7ckRbKaEhkXVNYxiEp8CBBzxGKLtb1CvZkOB9lB_GKv0y3IWbe3S3kW24Lvs2FgMre0rJ7suRtilUgyvhvXGiILwPzWPHBLoCE8-SHGPNp1H8sSfGFSahzPpvmatyZdQX3klYwxU0mX1M6nPaciJNoP2hZ3fjyGOqfqZss7fqDyMqNaBjv-2VTxBQc2xWEnPlwGyZQXD3N1xivCfVrRjZuHFQO5bZ6KTqTB22fhW3snfd5H5IFciFrWR1ejZ5kEbsPy7fimzSiu4e4RuxHJdaxTvpJqCCE3VxqNcUyl_Ybw6TL0YLU_kMPJrHGOPKHdSqYz6iDpl7QwXE_zeyneWOVIe4xZH7j_OpriM0RdG1lOEoI_PUmkMPyHagGlq9KnwR52n8rqG_QasyW3FBJQVB03KZLygOW-OZLVSuSt9XIuc7AvVZiC7MmvF5j_6_]--></g></svg>