<?xml version="1.0" encoding="us-ascii" standalone="no"?><svg xmlns="http://www.w3.org/2000/svg" xmlns:xlink="http://www.w3.org/1999/xlink" contentStyleType="text/css" height="1076.8px" preserveAspectRatio="none" style="width:960px;height:1076px;background:#FFFFFF;" version="1.1" viewBox="0 0 960 1076" width="960px" zoomAndPan="magnify"><defs/><g><text fill="#000000" font-family="sans-serif" font-size="11.2" font-weight="bold" lengthAdjust="spacing" textLength="116" x="416.4" y="20.0859">Domain Model - 1009</text><!--cluster User Aggregate--><g id="cluster_User Aggregate"><rect fill="none" height="264.8" rx="2" ry="2" style="stroke:#000000;stroke-width:1.2000000000000002;" width="294.8" x="460.4" y="37.2969"/><text fill="#000000" font-family="sans-serif" font-size="11.2" font-weight="bold" lengthAdjust="spacing" textLength="88" x="563.8" y="50.9828">User Aggregate</text></g><!--cluster Customer Manager Aggregate--><g id="cluster_Customer Manager Aggregate"><rect fill="none" height="98.4" rx="2" ry="2" style="stroke:#000000;stroke-width:1.2000000000000002;" width="181.6" x="16.4" y="281.2969"/><text fill="#000000" font-family="sans-serif" font-size="11.2" font-weight="bold" lengthAdjust="spacing" textLength="168.8" x="22.8" y="294.9828">Customer Manager Aggregate</text></g><!--cluster Job Opening Aggregate--><g id="cluster_Job Opening Aggregate"><rect fill="none" height="452" rx="2" ry="2" style="stroke:#000000;stroke-width:1.2000000000000002;" width="466" x="294.8" y="321.2969"/><text fill="#000000" font-family="sans-serif" font-size="11.2" font-weight="bold" lengthAdjust="spacing" textLength="133.6" x="461" y="334.9828">Job Opening Aggregate</text></g><!--cluster Process Aggregate--><g id="cluster_Process Aggregate"><rect fill="none" height="280" rx="2" ry="2" style="stroke:#000000;stroke-width:1.2000000000000002;" width="499.6" x="455.6" y="792.4969"/><text fill="#000000" font-family="sans-serif" font-size="11.2" font-weight="bold" lengthAdjust="spacing" textLength="107.2" x="651.8" y="806.1828">Process Aggregate</text></g><!--cluster Job Requirements Specification Aggregate--><g id="cluster_Job Requirements Specification Aggregate"><rect fill="none" height="98.4" rx="2" ry="2" style="stroke:#000000;stroke-width:1.2000000000000002;" width="404.8" x="5.6" y="792.4969"/><text fill="#000000" font-family="sans-serif" font-size="11.2" font-weight="bold" lengthAdjust="spacing" textLength="240.8" x="87.6" y="806.1828">Job Requirements Specification Aggregate</text></g><!--class User--><g id="elem_User"><rect codeLine="26" fill="#F0FFFF" height="54.8344" id="User" rx="2" ry="2" style="stroke:#000000;stroke-width:0.4000000000000001;" width="56.8" x="473.2" y="181.6969"/><ellipse cx="485.2" cy="205.9141" fill="#ADD1B2" rx="8.8" ry="8.8" style="stroke:#181818;stroke-width:0.8000000000000002;"/><path d="M484.2875,206.5516 L484.2875,208.5516 L487.75,208.5516 L487.75,207.8141 Q487.75,207.3266 487.9375,207.1141 Q488.1375,206.9016 488.4375,206.9016 Q488.7375,206.9016 488.925,207.1141 Q489.1125,207.3266 489.1125,207.8141 L489.1125,209.9141 L482.7125,209.9141 Q482.2125,209.9141 482,209.7266 Q481.8,209.5391 481.8,209.2266 Q481.8,208.9266 482.0125,208.7391 Q482.225,208.5516 482.7125,208.5516 L482.925,208.5516 L482.925,203.2266 L482.7125,203.2266 Q482.2125,203.2266 482,203.0391 Q481.8,202.8516 481.8,202.5391 Q481.8,202.2391 482,202.0516 Q482.2125,201.8641 482.7125,201.8641 L488.8125,201.8641 L488.8125,203.9391 Q488.8125,204.4266 488.625,204.6391 Q488.45,204.8391 488.1375,204.8391 Q487.8375,204.8391 487.65,204.6391 Q487.4625,204.4266 487.4625,203.9391 L487.4625,203.2266 L484.2875,203.2266 L484.2875,205.1891 L485.475,205.1891 Q485.475,204.6641 485.575,204.5141 Q485.7875,204.1891 486.1625,204.1891 Q486.4625,204.1891 486.65,204.4016 Q486.8375,204.6016 486.8375,205.0891 L486.8375,206.6641 Q486.8375,207.1016 486.7375,207.2516 Q486.525,207.5641 486.1625,207.5641 Q485.7875,207.5641 485.575,207.2391 Q485.475,207.0891 485.475,206.5516 L484.2875,206.5516 Z " fill="#000000"/><text fill="#000000" font-family="sans-serif" font-size="9.6" font-style="italic" lengthAdjust="spacing" textLength="34.4" x="494.8" y="196.0563">&#171;entity&#187;</text><text fill="#000000" font-family="sans-serif" font-size="9.6" font-style="italic" lengthAdjust="spacing" textLength="28" x="498" y="208.825">&#171;root&#187;</text><text fill="#000000" font-family="sans-serif" font-size="11.2" lengthAdjust="spacing" textLength="23.2" x="500.4" y="223.3203">User</text><line style="stroke:#000000;stroke-width:0.4000000000000001;" x1="474" x2="529.2" y1="230.1313" y2="230.1313"/></g><!--entity UserEmail--><g id="elem_UserEmail"><rect fill="#F0FFDD" height="34.5938" rx="2" ry="2" style="stroke:#000000;stroke-width:0.4000000000000001;" width="93.6" x="629.2" y="254.4969"/><text fill="#000000" font-family="sans-serif" font-size="11.2" font-style="italic" lengthAdjust="spacing" textLength="77.6" x="637.2" y="268.9828">&#171;Value Object&#187;</text><text fill="#000000" font-family="sans-serif" font-size="11.2" lengthAdjust="spacing" textLength="50.4" x="650.8" y="283.8797">UserEmail</text></g><!--entity UserName--><g id="elem_UserName"><rect fill="#F0FFDD" height="34.5938" rx="2" ry="2" style="stroke:#000000;stroke-width:0.4000000000000001;" width="93.6" x="629.2" y="192.0969"/><text fill="#000000" font-family="sans-serif" font-size="11.2" font-style="italic" lengthAdjust="spacing" textLength="77.6" x="637.2" y="206.5828">&#171;Value Object&#187;</text><text fill="#000000" font-family="sans-serif" font-size="11.2" lengthAdjust="spacing" textLength="52" x="650" y="221.4797">UserName</text></g><!--entity UserPassword--><g id="elem_UserPassword"><rect fill="#F0FFDD" height="34.5938" rx="2" ry="2" style="stroke:#000000;stroke-width:0.4000000000000001;" width="93.6" x="629.2" y="129.6969"/><text fill="#000000" font-family="sans-serif" font-size="11.2" font-style="italic" lengthAdjust="spacing" textLength="77.6" x="637.2" y="144.1828">&#171;Value Object&#187;</text><text fill="#000000" font-family="sans-serif" font-size="11.2" lengthAdjust="spacing" textLength="72" x="640" y="159.0797">UserPassword</text></g><!--entity UserTelephoneNumber--><g id="elem_UserTelephoneNumber"><rect fill="#F0FFDD" height="34.5938" rx="2" ry="2" style="stroke:#000000;stroke-width:0.4000000000000001;" width="132.8" x="609.6" y="67.2969"/><text fill="#000000" font-family="sans-serif" font-size="11.2" font-style="italic" lengthAdjust="spacing" textLength="77.6" x="637.2" y="81.7828">&#171;Value Object&#187;</text><text fill="#000000" font-family="sans-serif" font-size="11.2" lengthAdjust="spacing" textLength="116.8" x="617.6" y="96.6797">UserTelephoneNumber</text></g><!--class CustomerManager--><g id="elem_CustomerManager"><rect codeLine="45" fill="#F0FFFF" height="54.8344" id="CustomerManager" rx="2" ry="2" style="stroke:#000000;stroke-width:0.4000000000000001;" width="119.2" x="47.6" y="311.2969"/><ellipse cx="59.6" cy="335.5141" fill="#ADD1B2" rx="8.8" ry="8.8" style="stroke:#181818;stroke-width:0.8000000000000002;"/><path d="M58.6875,336.1516 L58.6875,338.1516 L62.15,338.1516 L62.15,337.4141 Q62.15,336.9266 62.3375,336.7141 Q62.5375,336.5016 62.8375,336.5016 Q63.1375,336.5016 63.325,336.7141 Q63.5125,336.9266 63.5125,337.4141 L63.5125,339.5141 L57.1125,339.5141 Q56.6125,339.5141 56.4,339.3266 Q56.2,339.1391 56.2,338.8266 Q56.2,338.5266 56.4125,338.3391 Q56.625,338.1516 57.1125,338.1516 L57.325,338.1516 L57.325,332.8266 L57.1125,332.8266 Q56.6125,332.8266 56.4,332.6391 Q56.2,332.4516 56.2,332.1391 Q56.2,331.8391 56.4,331.6516 Q56.6125,331.4641 57.1125,331.4641 L63.2125,331.4641 L63.2125,333.5391 Q63.2125,334.0266 63.025,334.2391 Q62.85,334.4391 62.5375,334.4391 Q62.2375,334.4391 62.05,334.2391 Q61.8625,334.0266 61.8625,333.5391 L61.8625,332.8266 L58.6875,332.8266 L58.6875,334.7891 L59.875,334.7891 Q59.875,334.2641 59.975,334.1141 Q60.1875,333.7891 60.5625,333.7891 Q60.8625,333.7891 61.05,334.0016 Q61.2375,334.2016 61.2375,334.6891 L61.2375,336.2641 Q61.2375,336.7016 61.1375,336.8516 Q60.925,337.1641 60.5625,337.1641 Q60.1875,337.1641 59.975,336.8391 Q59.875,336.6891 59.875,336.1516 L58.6875,336.1516 Z " fill="#000000"/><text fill="#000000" font-family="sans-serif" font-size="9.6" font-style="italic" lengthAdjust="spacing" textLength="34.4" x="100.4" y="325.6563">&#171;entity&#187;</text><text fill="#000000" font-family="sans-serif" font-size="9.6" font-style="italic" lengthAdjust="spacing" textLength="28" x="103.6" y="338.425">&#171;root&#187;</text><text fill="#000000" font-family="sans-serif" font-size="11.2" lengthAdjust="spacing" textLength="93.6" x="70.8" y="352.9203">CustomerManager</text><line style="stroke:#000000;stroke-width:0.4000000000000001;" x1="48.4" x2="166" y1="359.7313" y2="359.7313"/></g><!--class JobOpening--><g id="elem_JobOpening"><rect codeLine="50" fill="#F0FFFF" height="54.8344" id="JobOpening" rx="2" ry="2" style="stroke:#000000;stroke-width:0.4000000000000001;" width="86.4" x="307.6" y="559.2969"/><ellipse cx="319.6" cy="583.5141" fill="#ADD1B2" rx="8.8" ry="8.8" style="stroke:#181818;stroke-width:0.8000000000000002;"/><path d="M318.6875,584.1516 L318.6875,586.1516 L322.15,586.1516 L322.15,585.4141 Q322.15,584.9266 322.3375,584.7141 Q322.5375,584.5016 322.8375,584.5016 Q323.1375,584.5016 323.325,584.7141 Q323.5125,584.9266 323.5125,585.4141 L323.5125,587.5141 L317.1125,587.5141 Q316.6125,587.5141 316.4,587.3266 Q316.2,587.1391 316.2,586.8266 Q316.2,586.5266 316.4125,586.3391 Q316.625,586.1516 317.1125,586.1516 L317.325,586.1516 L317.325,580.8266 L317.1125,580.8266 Q316.6125,580.8266 316.4,580.6391 Q316.2,580.4516 316.2,580.1391 Q316.2,579.8391 316.4,579.6516 Q316.6125,579.4641 317.1125,579.4641 L323.2125,579.4641 L323.2125,581.5391 Q323.2125,582.0266 323.025,582.2391 Q322.85,582.4391 322.5375,582.4391 Q322.2375,582.4391 322.05,582.2391 Q321.8625,582.0266 321.8625,581.5391 L321.8625,580.8266 L318.6875,580.8266 L318.6875,582.7891 L319.875,582.7891 Q319.875,582.2641 319.975,582.1141 Q320.1875,581.7891 320.5625,581.7891 Q320.8625,581.7891 321.05,582.0016 Q321.2375,582.2016 321.2375,582.6891 L321.2375,584.2641 Q321.2375,584.7016 321.1375,584.8516 Q320.925,585.1641 320.5625,585.1641 Q320.1875,585.1641 319.975,584.8391 Q319.875,584.6891 319.875,584.1516 L318.6875,584.1516 Z " fill="#000000"/><text fill="#000000" font-family="sans-serif" font-size="9.6" font-style="italic" lengthAdjust="spacing" textLength="34.4" x="344" y="573.6563">&#171;entity&#187;</text><text fill="#000000" font-family="sans-serif" font-size="9.6" font-style="italic" lengthAdjust="spacing" textLength="28" x="347.2" y="586.425">&#171;root&#187;</text><text fill="#000000" font-family="sans-serif" font-size="11.2" lengthAdjust="spacing" textLength="60.8" x="330.8" y="600.9203">JobOpening</text><line style="stroke:#000000;stroke-width:0.4000000000000001;" x1="308.4" x2="393.2" y1="607.7313" y2="607.7313"/></g><g id="elem_GMN30"><path d="M604,602.0969 L604,620.0649 L548.48,620.4409 L604,626.4649 L604,651.5953 A0,0 0 0 0 604,651.5953 L748,651.5953 A0,0 0 0 0 748,651.5953 L748,610.0969 L740,602.0969 L604,602.0969 A0,0 0 0 0 604,602.0969 " fill="#FEFFDD" style="stroke:#181818;stroke-width:0.4000000000000001;"/><path d="M740,602.0969 L740,610.0969 L748,610.0969 L740,602.0969 " fill="#FEFFDD" style="stroke:#181818;stroke-width:0.4000000000000001;"/><text fill="#000000" font-family="sans-serif" font-size="10.4" lengthAdjust="spacing" textLength="127.2" x="608.8" y="617.3195">Can be one of the following:</text><text fill="#000000" font-family="sans-serif" font-size="10.4" lengthAdjust="spacing" textLength="42.4" x="608.8" y="631.1523">- full-time</text><text fill="#000000" font-family="sans-serif" font-size="10.4" lengthAdjust="spacing" textLength="47.2" x="608.8" y="644.9852">- part-time</text></g><g id="elem_GMN33"><path d="M604,510.4969 L604,544.5129 L548.48,552.0729 L604,550.9129 L604,573.8281 A0,0 0 0 0 604,573.8281 L748,573.8281 A0,0 0 0 0 748,573.8281 L748,518.4969 L740,510.4969 L604,510.4969 A0,0 0 0 0 604,510.4969 " fill="#FEFFDD" style="stroke:#181818;stroke-width:0.4000000000000001;"/><path d="M740,510.4969 L740,518.4969 L748,518.4969 L740,510.4969 " fill="#FEFFDD" style="stroke:#181818;stroke-width:0.4000000000000001;"/><text fill="#000000" font-family="sans-serif" font-size="10.4" lengthAdjust="spacing" textLength="127.2" x="608.8" y="525.7195">Can be one of the following:</text><text fill="#000000" font-family="sans-serif" font-size="10.4" lengthAdjust="spacing" textLength="38.4" x="608.8" y="539.5523">- remote</text><text fill="#000000" font-family="sans-serif" font-size="10.4" lengthAdjust="spacing" textLength="34.4" x="608.8" y="553.3852">- hybrid</text><text fill="#000000" font-family="sans-serif" font-size="10.4" lengthAdjust="spacing" textLength="34.4" x="608.8" y="567.218">- onsite</text></g><!--entity JobReference--><g id="elem_JobReference"><rect fill="#F0FFDD" height="34.5938" rx="2" ry="2" style="stroke:#000000;stroke-width:0.4000000000000001;" width="93.6" x="454.8" y="725.6969"/><text fill="#000000" font-family="sans-serif" font-size="11.2" font-style="italic" lengthAdjust="spacing" textLength="77.6" x="462.8" y="740.1828">&#171;Value Object&#187;</text><text fill="#000000" font-family="sans-serif" font-size="11.2" lengthAdjust="spacing" textLength="70.4" x="466.4" y="755.0797">JobReference</text></g><!--entity TitleOrFunction--><g id="elem_TitleOrFunction"><rect fill="#F0FFDD" height="34.5938" rx="2" ry="2" style="stroke:#000000;stroke-width:0.4000000000000001;" width="94.4" x="454.4" y="663.2969"/><text fill="#000000" font-family="sans-serif" font-size="11.2" font-style="italic" lengthAdjust="spacing" textLength="77.6" x="462.8" y="677.7828">&#171;Value Object&#187;</text><text fill="#000000" font-family="sans-serif" font-size="11.2" lengthAdjust="spacing" textLength="78.4" x="462.4" y="692.6797">TitleOrFunction</text></g><!--entity ContractType--><g id="elem_ContractType"><rect fill="#F0FFDD" height="34.5938" rx="2" ry="2" style="stroke:#000000;stroke-width:0.4000000000000001;" width="93.6" x="454.8" y="600.8969"/><text fill="#000000" font-family="sans-serif" font-size="11.2" font-style="italic" lengthAdjust="spacing" textLength="77.6" x="462.8" y="615.3828">&#171;Value Object&#187;</text><text fill="#000000" font-family="sans-serif" font-size="11.2" lengthAdjust="spacing" textLength="68.8" x="467.2" y="630.2797">ContractType</text></g><!--entity Mode--><g id="elem_Mode"><rect fill="#F0FFDD" height="34.5938" rx="2" ry="2" style="stroke:#000000;stroke-width:0.4000000000000001;" width="93.6" x="454.8" y="538.4969"/><text fill="#000000" font-family="sans-serif" font-size="11.2" font-style="italic" lengthAdjust="spacing" textLength="77.6" x="462.8" y="552.9828">&#171;Value Object&#187;</text><text fill="#000000" font-family="sans-serif" font-size="11.2" lengthAdjust="spacing" textLength="28" x="487.6" y="567.8797">Mode</text></g><!--entity Address--><g id="elem_Address"><rect fill="#F0FFDD" height="34.5938" rx="2" ry="2" style="stroke:#000000;stroke-width:0.4000000000000001;" width="93.6" x="454.8" y="476.0969"/><text fill="#000000" font-family="sans-serif" font-size="11.2" font-style="italic" lengthAdjust="spacing" textLength="77.6" x="462.8" y="490.5828">&#171;Value Object&#187;</text><text fill="#000000" font-family="sans-serif" font-size="11.2" lengthAdjust="spacing" textLength="41.6" x="480.8" y="505.4797">Address</text></g><!--entity VacanciesNumber--><g id="elem_VacanciesNumber"><rect fill="#F0FFDD" height="34.5938" rx="2" ry="2" style="stroke:#000000;stroke-width:0.4000000000000001;" width="107.2" x="448" y="413.6969"/><text fill="#000000" font-family="sans-serif" font-size="11.2" font-style="italic" lengthAdjust="spacing" textLength="77.6" x="462.8" y="428.1828">&#171;Value Object&#187;</text><text fill="#000000" font-family="sans-serif" font-size="11.2" lengthAdjust="spacing" textLength="91.2" x="456" y="443.0797">VacanciesNumber</text></g><!--entity Description--><g id="elem_Description"><rect fill="#F0FFDD" height="34.5938" rx="2" ry="2" style="stroke:#000000;stroke-width:0.4000000000000001;" width="93.6" x="454.8" y="351.2969"/><text fill="#000000" font-family="sans-serif" font-size="11.2" font-style="italic" lengthAdjust="spacing" textLength="77.6" x="462.8" y="365.7828">&#171;Value Object&#187;</text><text fill="#000000" font-family="sans-serif" font-size="11.2" lengthAdjust="spacing" textLength="56.8" x="473.2" y="380.6797">Description</text></g><!--class Process--><g id="elem_Process"><rect codeLine="91" fill="#F0FFFF" height="54.8344" id="Process" rx="2" ry="2" style="stroke:#000000;stroke-width:0.4000000000000001;" width="66.4" x="468.4" y="853.6969"/><ellipse cx="480.4" cy="877.9141" fill="#ADD1B2" rx="8.8" ry="8.8" style="stroke:#181818;stroke-width:0.8000000000000002;"/><path d="M479.4875,878.5516 L479.4875,880.5516 L482.95,880.5516 L482.95,879.8141 Q482.95,879.3266 483.1375,879.1141 Q483.3375,878.9016 483.6375,878.9016 Q483.9375,878.9016 484.125,879.1141 Q484.3125,879.3266 484.3125,879.8141 L484.3125,881.9141 L477.9125,881.9141 Q477.4125,881.9141 477.2,881.7266 Q477,881.5391 477,881.2266 Q477,880.9266 477.2125,880.7391 Q477.425,880.5516 477.9125,880.5516 L478.125,880.5516 L478.125,875.2266 L477.9125,875.2266 Q477.4125,875.2266 477.2,875.0391 Q477,874.8516 477,874.5391 Q477,874.2391 477.2,874.0516 Q477.4125,873.8641 477.9125,873.8641 L484.0125,873.8641 L484.0125,875.9391 Q484.0125,876.4266 483.825,876.6391 Q483.65,876.8391 483.3375,876.8391 Q483.0375,876.8391 482.85,876.6391 Q482.6625,876.4266 482.6625,875.9391 L482.6625,875.2266 L479.4875,875.2266 L479.4875,877.1891 L480.675,877.1891 Q480.675,876.6641 480.775,876.5141 Q480.9875,876.1891 481.3625,876.1891 Q481.6625,876.1891 481.85,876.4016 Q482.0375,876.6016 482.0375,877.0891 L482.0375,878.6641 Q482.0375,879.1016 481.9375,879.2516 Q481.725,879.5641 481.3625,879.5641 Q480.9875,879.5641 480.775,879.2391 Q480.675,879.0891 480.675,878.5516 L479.4875,878.5516 Z " fill="#000000"/><text fill="#000000" font-family="sans-serif" font-size="9.6" font-style="italic" lengthAdjust="spacing" textLength="34.4" x="494.8" y="868.0563">&#171;entity&#187;</text><text fill="#000000" font-family="sans-serif" font-size="9.6" font-style="italic" lengthAdjust="spacing" textLength="28" x="498" y="880.825">&#171;root&#187;</text><text fill="#000000" font-family="sans-serif" font-size="11.2" lengthAdjust="spacing" textLength="40.8" x="491.6" y="895.3203">Process</text><line style="stroke:#000000;stroke-width:0.4000000000000001;" x1="469.2" x2="534" y1="902.1313" y2="902.1313"/></g><g id="elem_GMN42"><path d="M798.4,822.0969 L798.4,878.0969 L722.984,881.2969 L798.4,884.4969 L798.4,940.7594 A0,0 0 0 0 798.4,940.7594 L942.4,940.7594 A0,0 0 0 0 942.4,940.7594 L942.4,830.0969 L934.4,822.0969 L798.4,822.0969 A0,0 0 0 0 798.4,822.0969 " fill="#FEFFDD" style="stroke:#181818;stroke-width:0.4000000000000001;"/><path d="M934.4,822.0969 L934.4,830.0969 L942.4,830.0969 L934.4,822.0969 " fill="#FEFFDD" style="stroke:#181818;stroke-width:0.4000000000000001;"/><text fill="#000000" font-family="sans-serif" font-size="10.4" lengthAdjust="spacing" textLength="127.2" x="803.2" y="837.3195">Can be one of the following:</text><text fill="#000000" font-family="sans-serif" font-size="10.4" lengthAdjust="spacing" textLength="96.8" x="803.2" y="851.1523">- ScreeningStartDate</text><text fill="#000000" font-family="sans-serif" font-size="10.4" lengthAdjust="spacing" textLength="92.8" x="803.2" y="864.9852">- ScreeningEndDate</text><text fill="#000000" font-family="sans-serif" font-size="10.4" lengthAdjust="spacing" textLength="95.2" x="803.2" y="878.818">- InterviewsStartDate</text><text fill="#000000" font-family="sans-serif" font-size="10.4" lengthAdjust="spacing" textLength="91.2" x="803.2" y="892.6508">- InterviewsEndDate</text><text fill="#000000" font-family="sans-serif" font-size="10.4" lengthAdjust="spacing" textLength="90.4" x="803.2" y="906.4836">- AnalysisStartDate</text><text fill="#000000" font-family="sans-serif" font-size="10.4" lengthAdjust="spacing" textLength="86.4" x="803.2" y="920.3164">- AnalysisEndDate</text><text fill="#000000" font-family="sans-serif" font-size="10.4" lengthAdjust="spacing" textLength="57.6" x="803.2" y="934.1492">- ResultDate</text></g><g id="elem_GMN45"><path d="M798.4,968.4969 L798.4,991.3369 L722.984,973.9449 L798.4,997.7369 L798.4,1059.4938 A0,0 0 0 0 798.4,1059.4938 L942.4,1059.4938 A0,0 0 0 0 942.4,1059.4938 L942.4,976.4969 L934.4,968.4969 L798.4,968.4969 A0,0 0 0 0 798.4,968.4969 " fill="#FEFFDD" style="stroke:#181818;stroke-width:0.4000000000000001;"/><path d="M934.4,968.4969 L934.4,976.4969 L942.4,976.4969 L934.4,968.4969 " fill="#FEFFDD" style="stroke:#181818;stroke-width:0.4000000000000001;"/><text fill="#000000" font-family="sans-serif" font-size="10.4" lengthAdjust="spacing" textLength="127.2" x="803.2" y="983.7195">Can be one of the following:</text><text fill="#000000" font-family="sans-serif" font-size="10.4" lengthAdjust="spacing" textLength="57.6" x="803.2" y="997.5523">- Application</text><text fill="#000000" font-family="sans-serif" font-size="10.4" lengthAdjust="spacing" textLength="52.8" x="803.2" y="1011.3852">- Screening</text><text fill="#000000" font-family="sans-serif" font-size="10.4" lengthAdjust="spacing" textLength="51.2" x="803.2" y="1025.218">- Interviews</text><text fill="#000000" font-family="sans-serif" font-size="10.4" lengthAdjust="spacing" textLength="46.4" x="803.2" y="1039.0508">- Analysis</text><text fill="#000000" font-family="sans-serif" font-size="10.4" lengthAdjust="spacing" textLength="36" x="803.2" y="1052.8836">- Result</text></g><!--entity ProcessState--><g id="elem_ProcessState"><rect fill="#F0FFDD" height="34.5938" rx="2" ry="2" style="stroke:#000000;stroke-width:0.4000000000000001;" width="93.6" x="629.2" y="944.0969"/><text fill="#000000" font-family="sans-serif" font-size="11.2" font-style="italic" lengthAdjust="spacing" textLength="77.6" x="637.2" y="958.5828">&#171;Value Object&#187;</text><text fill="#000000" font-family="sans-serif" font-size="11.2" lengthAdjust="spacing" textLength="67.2" x="642.4" y="973.4797">ProcessState</text></g><!--entity ProcessDate--><g id="elem_ProcessDate"><rect fill="#F0FFDD" height="34.5938" rx="2" ry="2" style="stroke:#000000;stroke-width:0.4000000000000001;" width="93.6" x="629.2" y="864.0969"/><text fill="#000000" font-family="sans-serif" font-size="11.2" font-style="italic" lengthAdjust="spacing" textLength="77.6" x="637.2" y="878.5828">&#171;Value Object&#187;</text><text fill="#000000" font-family="sans-serif" font-size="11.2" lengthAdjust="spacing" textLength="64.8" x="643.6" y="893.4797">ProcessDate</text></g><!--class JobRequirementsSpecification--><g id="elem_JobRequirementsSpecification"><rect codeLine="124" fill="#F0FFFF" height="54.8344" id="JobRequirementsSpecification" rx="2" ry="2" style="stroke:#000000;stroke-width:0.4000000000000001;" width="177.6" x="18.4" y="822.4969"/><ellipse cx="30.4" cy="846.7141" fill="#ADD1B2" rx="8.8" ry="8.8" style="stroke:#181818;stroke-width:0.8000000000000002;"/><path d="M29.4875,847.3516 L29.4875,849.3516 L32.95,849.3516 L32.95,848.6141 Q32.95,848.1266 33.1375,847.9141 Q33.3375,847.7016 33.6375,847.7016 Q33.9375,847.7016 34.125,847.9141 Q34.3125,848.1266 34.3125,848.6141 L34.3125,850.7141 L27.9125,850.7141 Q27.4125,850.7141 27.2,850.5266 Q27,850.3391 27,850.0266 Q27,849.7266 27.2125,849.5391 Q27.425,849.3516 27.9125,849.3516 L28.125,849.3516 L28.125,844.0266 L27.9125,844.0266 Q27.4125,844.0266 27.2,843.8391 Q27,843.6516 27,843.3391 Q27,843.0391 27.2,842.8516 Q27.4125,842.6641 27.9125,842.6641 L34.0125,842.6641 L34.0125,844.7391 Q34.0125,845.2266 33.825,845.4391 Q33.65,845.6391 33.3375,845.6391 Q33.0375,845.6391 32.85,845.4391 Q32.6625,845.2266 32.6625,844.7391 L32.6625,844.0266 L29.4875,844.0266 L29.4875,845.9891 L30.675,845.9891 Q30.675,845.4641 30.775,845.3141 Q30.9875,844.9891 31.3625,844.9891 Q31.6625,844.9891 31.85,845.2016 Q32.0375,845.4016 32.0375,845.8891 L32.0375,847.4641 Q32.0375,847.9016 31.9375,848.0516 Q31.725,848.3641 31.3625,848.3641 Q30.9875,848.3641 30.775,848.0391 Q30.675,847.8891 30.675,847.3516 L29.4875,847.3516 Z " fill="#000000"/><text fill="#000000" font-family="sans-serif" font-size="9.6" font-style="italic" lengthAdjust="spacing" textLength="34.4" x="100.4" y="836.8563">&#171;entity&#187;</text><text fill="#000000" font-family="sans-serif" font-size="9.6" font-style="italic" lengthAdjust="spacing" textLength="28" x="103.6" y="849.625">&#171;root&#187;</text><text fill="#000000" font-family="sans-serif" font-size="11.2" lengthAdjust="spacing" textLength="152" x="41.6" y="864.1203">JobRequirementsSpecification</text><line style="stroke:#000000;stroke-width:0.4000000000000001;" x1="19.2" x2="195.2" y1="870.9313" y2="870.9313"/></g><!--entity Requirements--><g id="elem_Requirements"><rect fill="#F0FFDD" height="34.5938" rx="2" ry="2" style="stroke:#000000;stroke-width:0.4000000000000001;" width="93.6" x="304" y="832.8969"/><text fill="#000000" font-family="sans-serif" font-size="11.2" font-style="italic" lengthAdjust="spacing" textLength="77.6" x="312" y="847.3828">&#171;Value Object&#187;</text><text fill="#000000" font-family="sans-serif" font-size="11.2" lengthAdjust="spacing" textLength="70.4" x="315.6" y="862.2797">Requirements</text></g><!--link User to UserEmail--><g id="link_User_UserEmail"><path codeLine="37" d="M530.16,219.3209 C556.784,228.9369 592.9412,241.995 624.4532,253.371 " fill="none" id="User-to-UserEmail" style="stroke:#808080;stroke-width:0.8000000000000002;"/><polygon fill="#808080" points="628.968,255.0009,623.2824,249.5462,625.2057,253.6426,621.1092,255.5659,628.968,255.0009" style="stroke:#808080;stroke-width:0.8000000000000002;"/></g><!--link User to UserName--><g id="link_User_UserName"><path codeLine="38" d="M530.16,209.2969 C556.784,209.2969 592.656,209.2969 624.168,209.2969 " fill="none" id="User-to-UserName" style="stroke:#808080;stroke-width:0.8000000000000002;"/><polygon fill="#808080" points="628.968,209.2969,621.768,206.0969,624.968,209.2969,621.768,212.4969,628.968,209.2969" style="stroke:#808080;stroke-width:0.8000000000000002;"/></g><!--link User to UserTelephoneNumber--><g id="link_User_UserTelephoneNumber"><path codeLine="39" d="M527.528,181.6489 C546.952,161.4649 575.288,134.4569 604,115.6969 C611.912,110.5289 616.4611,107.8754 625.2291,103.8114 " fill="none" id="User-to-UserTelephoneNumber" style="stroke:#808080;stroke-width:0.8000000000000002;"/><polygon fill="#808080" points="629.584,101.7929,621.7059,101.9174,625.9549,103.475,624.3973,107.724,629.584,101.7929" style="stroke:#808080;stroke-width:0.8000000000000002;"/></g><!--link User to UserPassword--><g id="link_User_UserPassword"><path codeLine="40" d="M530.16,199.2729 C556.784,189.6569 592.9412,176.5987 624.4532,165.2227 " fill="none" id="User-to-UserPassword" style="stroke:#808080;stroke-width:0.8000000000000002;"/><polygon fill="#808080" points="628.968,163.5929,621.1092,163.0278,625.2057,164.9511,623.2824,169.0476,628.968,163.5929" style="stroke:#808080;stroke-width:0.8000000000000002;"/></g><!--link JobOpening to JobReference--><g id="link_JobOpening_JobReference"><path codeLine="67" d="M368.576,614.6569 C386.088,641.7209 415.368,682.8809 448,711.6969 C453.744,716.7689 456.36,718.9283 463.008,723.0483 " fill="none" id="JobOpening-to-JobReference" style="stroke:#808080;stroke-width:0.8000000000000002;"/><polygon fill="#808080" points="467.088,725.5769,462.6537,719.0641,463.688,723.4698,459.2823,724.5041,467.088,725.5769" style="stroke:#808080;stroke-width:0.8000000000000002;"/></g><!--link JobOpening to TitleOrFunction--><g id="link_JobOpening_TitleOrFunction"><path codeLine="68" d="M393.592,614.6089 C410.416,625.5689 430.032,638.1769 448,649.2969 C455.424,653.8889 459.3807,656.3011 466.9407,660.7731 " fill="none" id="JobOpening-to-TitleOrFunction" style="stroke:#808080;stroke-width:0.8000000000000002;"/><polygon fill="#808080" points="471.072,663.2169,466.5042,656.7969,467.6292,661.1804,463.2458,662.3054,471.072,663.2169" style="stroke:#808080;stroke-width:0.8000000000000002;"/></g><!--link JobOpening to ContractType--><g id="link_JobOpening_ContractType"><path codeLine="69" d="M394.152,595.7929 C413.104,599.7609 430.7575,603.4512 450.0935,607.4912 " fill="none" id="JobOpening-to-ContractType" style="stroke:#808080;stroke-width:0.8000000000000002;"/><polygon fill="#808080" points="454.792,608.4729,448.3987,603.868,450.8766,607.6548,447.0897,610.1327,454.792,608.4729" style="stroke:#808080;stroke-width:0.8000000000000002;"/></g><!--link JobOpening to Mode--><g id="link_JobOpening_Mode"><path codeLine="70" d="M394.152,578.0009 C413.104,574.0329 430.7575,570.3426 450.0935,566.3026 " fill="none" id="JobOpening-to-Mode" style="stroke:#808080;stroke-width:0.8000000000000002;"/><polygon fill="#808080" points="454.792,565.3209,447.0897,563.6611,450.8766,566.139,448.3987,569.9258,454.792,565.3209" style="stroke:#808080;stroke-width:0.8000000000000002;"/></g><!--link JobOpening to Address--><g id="link_JobOpening_Address"><path codeLine="71" d="M393.592,559.1849 C410.416,548.2249 430.032,535.6169 448,524.4969 C455.424,519.9049 459.3807,517.4927 466.9407,513.0207 " fill="none" id="JobOpening-to-Address" style="stroke:#808080;stroke-width:0.8000000000000002;"/><polygon fill="#808080" points="471.072,510.5769,463.2458,511.4884,467.6292,512.6134,466.5042,516.9968,471.072,510.5769" style="stroke:#808080;stroke-width:0.8000000000000002;"/></g><!--link JobOpening to VacanciesNumber--><g id="link_JobOpening_VacanciesNumber"><path codeLine="72" d="M368.576,559.1369 C386.088,532.0729 415.368,490.9129 448,462.0969 C453.744,457.0249 456.36,454.8654 463.008,450.7454 " fill="none" id="JobOpening-to-VacanciesNumber" style="stroke:#808080;stroke-width:0.8000000000000002;"/><polygon fill="#808080" points="467.088,448.2169,459.2823,449.2897,463.688,450.324,462.6537,454.7297,467.088,448.2169" style="stroke:#808080;stroke-width:0.8000000000000002;"/></g><!--link JobOpening to Description--><g id="link_JobOpening_Description"><path codeLine="73" d="M360.328,559.1929 C373.856,519.8489 403.096,447.2889 448,399.6969 C452.968,394.4329 454.9938,392.3681 461.2018,388.3521 " fill="none" id="JobOpening-to-Description" style="stroke:#808080;stroke-width:0.8000000000000002;"/><polygon fill="#808080" points="465.232,385.7449,457.4486,386.9688,461.8735,387.9175,460.9248,392.3424,465.232,385.7449" style="stroke:#808080;stroke-width:0.8000000000000002;"/></g><!--link Process to ProcessState--><g id="link_Process_ProcessState"><path codeLine="98" d="M534.904,896.3449 C564.232,909.9209 603.0044,927.8718 633.6844,942.0798 " fill="none" id="Process-to-ProcessState" style="stroke:#808080;stroke-width:0.8000000000000002;"/><polygon fill="#808080" points="638.04,944.0969,632.8513,938.1675,634.4103,942.416,630.1619,943.975,638.04,944.0969" style="stroke:#808080;stroke-width:0.8000000000000002;"/></g><!--link Process to ProcessDate--><g id="link_Process_ProcessDate"><path codeLine="99" d="M534.904,881.2969 C561.496,881.2969 594.632,881.2969 624.352,881.2969 " fill="none" id="Process-to-ProcessDate" style="stroke:#808080;stroke-width:0.8000000000000002;"/><polygon fill="#808080" points="629.152,881.2969,621.952,878.0969,625.152,881.2969,621.952,884.4969,629.152,881.2969" style="stroke:#808080;stroke-width:0.8000000000000002;"/></g><!--link JobRequirementsSpecification to Requirements--><g id="link_JobRequirementsSpecification_Requirements"><path codeLine="129" d="M196.056,850.0969 C232.544,850.0969 268.56,850.0969 298.992,850.0969 " fill="none" id="JobRequirementsSpecification-to-Requirements" style="stroke:#808080;stroke-width:0.8000000000000002;"/><polygon fill="#808080" points="303.792,850.0969,296.592,846.8969,299.792,850.0969,296.592,853.2969,303.792,850.0969" style="stroke:#808080;stroke-width:0.8000000000000002;"/></g><!--reverse link JobRequirementsSpecification to JobOpening--><g id="link_JobRequirementsSpecification_JobOpening"><path codeLine="133" d="M136.6891,818.8917 C183.1691,768.3477 278.04,665.1609 324.536,614.5929 " fill="none" id="JobRequirementsSpecification-backto-JobOpening" style="stroke:#808080;stroke-width:0.8000000000000002;"/><polygon fill="#808080" points="133.44,822.4249,140.6691,819.2912,136.1476,819.4806,135.9582,814.959,133.44,822.4249" style="stroke:#808080;stroke-width:0.8000000000000002;"/><text fill="#000000" font-family="sans-serif" font-size="10.4" lengthAdjust="spacing" textLength="50.4" x="228.8" y="662.1195">associated</text><text fill="#000000" font-family="sans-serif" font-size="10.4" lengthAdjust="spacing" textLength="5.6" x="132.3083" y="813.5333">1</text><text fill="#000000" font-family="sans-serif" font-size="10.4" lengthAdjust="spacing" textLength="7.2" x="312.2031" y="631.796">N</text></g><!--link CustomerManager to JobOpening--><g id="link_CustomerManager_JobOpening"><path codeLine="135" d="M135.056,366.6249 C181.552,414.2729 272.7598,507.7413 319.3918,555.5333 " fill="none" id="CustomerManager-to-JobOpening" style="stroke:#808080;stroke-width:0.8000000000000002;"/><polygon fill="#808080" points="322.744,558.9689,320.0061,551.5808,319.9505,556.1059,315.4254,556.0503,322.744,558.9689" style="stroke:#808080;stroke-width:0.8000000000000002;"/><text fill="#000000" font-family="sans-serif" font-size="10.4" lengthAdjust="spacing" textLength="42.4" x="232.8" y="459.7195">manages</text><text fill="#000000" font-family="sans-serif" font-size="10.4" lengthAdjust="spacing" textLength="5.6" x="133.7625" y="383.8335">1</text><text fill="#000000" font-family="sans-serif" font-size="10.4" lengthAdjust="spacing" textLength="7.2" x="309.7074" y="550.2437">N</text></g><!--link CustomerManager to User--><g id="link_CustomerManager_User"><path codeLine="136" d="M166.808,319.4969 C252.84,291.1049 405.1136,240.8646 468.5296,219.9446 " fill="none" id="CustomerManager-to-User" style="stroke:#808080;stroke-width:0.8000000000000002;"/><polygon fill="#808080" points="473.088,218.4409,465.2479,217.6576,469.2894,219.694,467.2529,223.7354,473.088,218.4409" style="stroke:#808080;stroke-width:0.8000000000000002;"/></g><!--link JobOpening to Process--><g id="link_JobOpening_Process"><path codeLine="138" d="M365.64,614.5929 C394.112,670.7769 456.1902,793.2713 484.6302,849.3913 " fill="none" id="JobOpening-to-Process" style="stroke:#808080;stroke-width:0.8000000000000002;"/><polygon fill="#808080" points="486.8,853.6729,486.3997,845.804,484.9918,850.1049,480.6909,848.697,486.8,853.6729" style="stroke:#808080;stroke-width:0.8000000000000002;"/></g><!--SRC=[fLR1Rjim3BtxAmJli9E1zhWY290cRT6XJO8cwrsnQKUhB7col20e-k-Z53kHRSLDiLoCak-HV1H5TSiI83dehKpAW4EgYPP4iMohIS8Kn9f94NmltvWegA8vuKo0tXT0f49E4AoPva32cSmf4-HP9i19HAwlhdw4GN2YnPoM9NaF2FwUM0fF6EPMgWJKL7Afo8ogjrjUGHj0uxTCoKea1z1akNnwd4xMZukvnNNzt-wlxl5dVHEbvEvWpXJi3tWduOOZEVXmQopGGZDOwJqgCjAfo3YqL52L38XuK03Y_nNCPbq5fZiFFXMtZOgwTXB-AW7JPAWvenh2zm24PdfFh7qqElmr7ez6Iaez7WSsfDLb47TuYXnXhnJFWYmslx4But4j-QEDdTCSBeGkyV1tMFQ5y3LmABPImBpADxRiCopxiSgYQ7mIq3URMllMJfu-eAaxQBLuMfLQvWXxfW8DtdOtc0RYwxmRywVSa4K1WedC5mxTZNVm317t0Yae4F4bPsClxqBTLyBUymiOKocqeh5UcnNmETpiWmjWaoHHWFlXS-GhZQc86PIVZSQHCOCoLgmOrcS_JfFD0BYzzFaxpVD1t6xv_AOzFdlT3v-hqm0Vn55y42QaXdgdoxHVbFbDgI0RNEe234HlWQIISxd3c3T7K4JIYlD8inmS6wv6VRA1I6m-N-QZtCjJOdm5kOddMBRxZMA9Qv6YPBfRW7k_bah6Pi8yTwjn3Lwi6hJIIBrWw6huR11jFqrsSt1kadDE4zBNMzVznKDTnURTGYCcLheLmN7UYQJZUXGQr5y6kz97F7dxp8cWV5yoBw_nzLalK5Ry11-Qj5udlz2EIL5m5jFZdUxqmIlHKt-ly87fDDl_1VvK-0zNZaDOabK1CKlhAiuy22wXZH-Sv5QUxcosHhDUBUVpcB5qlLRK82Ey3iaeYaWu3zsjTKFmePKnGudurdRVJaCogNgat0BA7Y5gtczRZRiQwxa8_W40]--></g></svg>