<?xml version="1.0" encoding="us-ascii" standalone="no"?><svg xmlns="http://www.w3.org/2000/svg" xmlns:xlink="http://www.w3.org/1999/xlink" contentStyleType="text/css" height="1143px" preserveAspectRatio="none" style="width:2266px;height:1143px;background:#FFFFFF;" version="1.1" viewBox="0 0 2266 1143" width="2266px" zoomAndPan="magnify"><defs/><g><text fill="#000000" font-family="sans-serif" font-size="14" font-weight="bold" lengthAdjust="spacing" textLength="346" x="953" y="25.1074">Class Diagram - Select Requirement Specification</text><!--cluster ui--><g id="cluster_ui"><path d="M1045.5,45.6348 L1059.5,45.6348 A3.75,3.75 0 0 1 1062,48.1348 L1069,70.2559 L1324.5,70.2559 A2.5,2.5 0 0 1 1327,72.7559 L1327,218.1348 A2.5,2.5 0 0 1 1324.5,220.6348 L1045.5,220.6348 A2.5,2.5 0 0 1 1043,218.1348 L1043,48.1348 A2.5,2.5 0 0 1 1045.5,45.6348 " fill="none" style="stroke:#000000;stroke-width:1.5;"/><line style="stroke:#000000;stroke-width:1.5;" x1="1043" x2="1069" y1="70.2559" y2="70.2559"/><text fill="#000000" font-family="sans-serif" font-size="14" font-weight="bold" lengthAdjust="spacing" textLength="13" x="1047" y="62.7422">ui</text></g><!--cluster Job Requirements Specifications--><g id="cluster_Job Requirements Specifications"><path d="M8.5,244.6348 L241.5,244.6348 A3.75,3.75 0 0 1 244,247.1348 L251,269.2559 L1356.5,269.2559 A2.5,2.5 0 0 1 1359,271.7559 L1359,1134.1348 A2.5,2.5 0 0 1 1356.5,1136.6348 L8.5,1136.6348 A2.5,2.5 0 0 1 6,1134.1348 L6,247.1348 A2.5,2.5 0 0 1 8.5,244.6348 " fill="none" style="stroke:#000000;stroke-width:1.5;"/><line style="stroke:#000000;stroke-width:1.5;" x1="6" x2="251" y1="269.2559" y2="269.2559"/><text fill="#000000" font-family="sans-serif" font-size="14" font-weight="bold" lengthAdjust="spacing" textLength="232" x="10" y="261.7422">Job Requirements Specifications</text></g><!--cluster application--><g id="cluster_application"><path d="M32.5,289.6348 L110.5,289.6348 A3.75,3.75 0 0 1 113,292.1348 L120,314.2559 L836.5,314.2559 A2.5,2.5 0 0 1 839,316.7559 L839,948.1348 A2.5,2.5 0 0 1 836.5,950.6348 L32.5,950.6348 A2.5,2.5 0 0 1 30,948.1348 L30,292.1348 A2.5,2.5 0 0 1 32.5,289.6348 " fill="none" style="stroke:#000000;stroke-width:1.5;"/><line style="stroke:#000000;stroke-width:1.5;" x1="30" x2="120" y1="314.2559" y2="314.2559"/><text fill="#000000" font-family="sans-serif" font-size="14" font-weight="bold" lengthAdjust="spacing" textLength="77" x="34" y="306.7422">application</text></g><!--cluster domain--><g id="cluster_domain"><path d="M56.5,527.6348 L108.5,527.6348 A3.75,3.75 0 0 1 111,530.1348 L118,552.2559 L581.5,552.2559 A2.5,2.5 0 0 1 584,554.7559 L584,924.1348 A2.5,2.5 0 0 1 581.5,926.6348 L56.5,926.6348 A2.5,2.5 0 0 1 54,924.1348 L54,530.1348 A2.5,2.5 0 0 1 56.5,527.6348 " fill="none" style="stroke:#000000;stroke-width:1.5;"/><line style="stroke:#000000;stroke-width:1.5;" x1="54" x2="118" y1="552.2559" y2="552.2559"/><text fill="#000000" font-family="sans-serif" font-size="14" font-weight="bold" lengthAdjust="spacing" textLength="51" x="58" y="544.7422">domain</text></g><!--cluster services--><g id="cluster_services"><path d="M865.5,639.6348 L927.5,639.6348 A3.75,3.75 0 0 1 930,642.1348 L937,664.2559 L1332.5,664.2559 A2.5,2.5 0 0 1 1335,666.7559 L1335,812.1348 A2.5,2.5 0 0 1 1332.5,814.6348 L865.5,814.6348 A2.5,2.5 0 0 1 863,812.1348 L863,642.1348 A2.5,2.5 0 0 1 865.5,639.6348 " fill="none" style="stroke:#000000;stroke-width:1.5;"/><line style="stroke:#000000;stroke-width:1.5;" x1="863" x2="937" y1="664.2559" y2="664.2559"/><text fill="#000000" font-family="sans-serif" font-size="14" font-weight="bold" lengthAdjust="spacing" textLength="61" x="867" y="656.7422">services</text></g><!--cluster repositories--><g id="cluster_repositories"><path d="M939.5,974.6348 L1026.5,974.6348 A3.75,3.75 0 0 1 1029,977.1348 L1036,999.2559 L1258.5,999.2559 A2.5,2.5 0 0 1 1261,1001.7559 L1261,1110.1348 A2.5,2.5 0 0 1 1258.5,1112.6348 L939.5,1112.6348 A2.5,2.5 0 0 1 937,1110.1348 L937,977.1348 A2.5,2.5 0 0 1 939.5,974.6348 " fill="none" style="stroke:#000000;stroke-width:1.5;"/><line style="stroke:#000000;stroke-width:1.5;" x1="937" x2="1036" y1="999.2559" y2="999.2559"/><text fill="#000000" font-family="sans-serif" font-size="14" font-weight="bold" lengthAdjust="spacing" textLength="86" x="941" y="991.7422">repositories</text></g><!--cluster Job Opening--><g id="cluster_Job Opening"><path d="M1385.5,291.1348 L1476.5,291.1348 A3.75,3.75 0 0 1 1479,293.6348 L1486,315.7559 L2256.5,315.7559 A2.5,2.5 0 0 1 2259,318.2559 L2259,1134.1348 A2.5,2.5 0 0 1 2256.5,1136.6348 L1385.5,1136.6348 A2.5,2.5 0 0 1 1383,1134.1348 L1383,293.6348 A2.5,2.5 0 0 1 1385.5,291.1348 " fill="none" style="stroke:#000000;stroke-width:1.5;"/><line style="stroke:#000000;stroke-width:1.5;" x1="1383" x2="1486" y1="315.7559" y2="315.7559"/><text fill="#000000" font-family="sans-serif" font-size="14" font-weight="bold" lengthAdjust="spacing" textLength="90" x="1387" y="308.2422">Job Opening</text></g><!--cluster application--><g id="cluster_application"><path d="M1528.5,336.1348 L1606.5,336.1348 A3.75,3.75 0 0 1 1609,338.6348 L1616,360.7559 L1873.5,360.7559 A2.5,2.5 0 0 1 1876,363.2559 L1876,471.6348 A2.5,2.5 0 0 1 1873.5,474.1348 L1528.5,474.1348 A2.5,2.5 0 0 1 1526,471.6348 L1526,338.6348 A2.5,2.5 0 0 1 1528.5,336.1348 " fill="none" style="stroke:#000000;stroke-width:1.5;"/><line style="stroke:#000000;stroke-width:1.5;" x1="1526" x2="1616" y1="360.7559" y2="360.7559"/><text fill="#000000" font-family="sans-serif" font-size="14" font-weight="bold" lengthAdjust="spacing" textLength="77" x="1530" y="353.2422">application</text></g><!--cluster services--><g id="cluster_services"><path d="M1409.5,639.6348 L1471.5,639.6348 A3.75,3.75 0 0 1 1474,642.1348 L1481,664.2559 L2232.5,664.2559 A2.5,2.5 0 0 1 2235,666.7559 L2235,812.1348 A2.5,2.5 0 0 1 2232.5,814.6348 L1409.5,814.6348 A2.5,2.5 0 0 1 1407,812.1348 L1407,642.1348 A2.5,2.5 0 0 1 1409.5,639.6348 " fill="none" style="stroke:#000000;stroke-width:1.5;"/><line style="stroke:#000000;stroke-width:1.5;" x1="1407" x2="1481" y1="664.2559" y2="664.2559"/><text fill="#000000" font-family="sans-serif" font-size="14" font-weight="bold" lengthAdjust="spacing" textLength="61" x="1411" y="656.7422">services</text></g><!--cluster repositories--><g id="cluster_repositories"><path d="M1718.5,974.6348 L1805.5,974.6348 A3.75,3.75 0 0 1 1808,977.1348 L1815,999.2559 L1923.5,999.2559 A2.5,2.5 0 0 1 1926,1001.7559 L1926,1110.1348 A2.5,2.5 0 0 1 1923.5,1112.6348 L1718.5,1112.6348 A2.5,2.5 0 0 1 1716,1110.1348 L1716,977.1348 A2.5,2.5 0 0 1 1718.5,974.6348 " fill="none" style="stroke:#000000;stroke-width:1.5;"/><line style="stroke:#000000;stroke-width:1.5;" x1="1716" x2="1815" y1="999.2559" y2="999.2559"/><text fill="#000000" font-family="sans-serif" font-size="14" font-weight="bold" lengthAdjust="spacing" textLength="86" x="1720" y="991.7422">repositories</text></g><!--class SelectRequirementsSpecificationUI--><g id="elem_SelectRequirementsSpecificationUI"><rect codeLine="6" fill="#F1F1F1" height="122.4844" id="SelectRequirementsSpecificationUI" rx="2.5" ry="2.5" style="stroke:#181818;stroke-width:0.5;" width="251" x="1059.5" y="82.6348"/><ellipse cx="1074.5" cy="98.6348" fill="#ADD1B2" rx="11" ry="11" style="stroke:#181818;stroke-width:1.0;"/><path d="M1077.2656,94.5098 Q1077.4219,94.291 1077.6094,94.1816 Q1077.7969,94.0723 1078.0156,94.0723 Q1078.3906,94.0723 1078.625,94.3379 Q1078.8594,94.5879 1078.8594,95.1973 L1078.8594,96.6504 Q1078.8594,97.2598 1078.625,97.5254 Q1078.3906,97.791 1078.0156,97.791 Q1077.6719,97.791 1077.4688,97.5879 Q1077.2656,97.4004 1077.1563,96.8848 Q1077.1094,96.5254 1076.9219,96.3379 Q1076.5938,95.9629 1075.9844,95.7441 Q1075.375,95.5254 1074.75,95.5254 Q1073.9844,95.5254 1073.3438,95.8535 Q1072.7188,96.1816 1072.2188,96.9316 Q1071.7344,97.6816 1071.7344,98.7129 L1071.7344,99.8066 Q1071.7344,101.041 1072.625,101.8691 Q1073.5156,102.6816 1075.1094,102.6816 Q1076.0469,102.6816 1076.7031,102.4316 Q1077.0938,102.2754 1077.5156,101.8379 Q1077.7813,101.5723 1077.9219,101.4941 Q1078.0781,101.416 1078.2813,101.416 Q1078.6094,101.416 1078.8594,101.6816 Q1079.125,101.9316 1079.125,102.2754 Q1079.125,102.6191 1078.7813,103.0254 Q1078.2813,103.6035 1077.4844,103.9316 Q1076.4063,104.3848 1075.1094,104.3848 Q1073.5938,104.3848 1072.3906,103.7598 Q1071.4063,103.2598 1070.7188,102.1973 Q1070.0313,101.1191 1070.0313,99.8379 L1070.0313,98.6816 Q1070.0313,97.3535 1070.6406,96.2129 Q1071.2656,95.0566 1072.3594,94.4473 Q1073.4531,93.8223 1074.6875,93.8223 Q1075.4219,93.8223 1076.0625,93.9941 Q1076.7188,94.1504 1077.2656,94.5098 Z " fill="#000000"/><text fill="#000000" font-family="sans-serif" font-size="14" lengthAdjust="spacing" textLength="219" x="1088.5" y="104.4316">SelectRequirementsSpecificationUI</text><line style="stroke:#181818;stroke-width:0.5;" x1="1060.5" x2="1309.5" y1="114.6348" y2="114.6348"/><line style="stroke:#181818;stroke-width:0.5;" x1="1060.5" x2="1309.5" y1="122.6348" y2="122.6348"/><text fill="#000000" font-family="sans-serif" font-size="14" lengthAdjust="spacing" textLength="68" x="1065.5" y="141.7422">+doShow()</text><text fill="#000000" font-family="sans-serif" font-size="14" lengthAdjust="spacing" textLength="133" x="1065.5" y="160.3633">+showJobOpenings()</text><text fill="#000000" font-family="sans-serif" font-size="14" lengthAdjust="spacing" textLength="78" x="1065.5" y="178.9844">+selectFile()</text><text fill="#000000" font-family="sans-serif" font-size="14" lengthAdjust="spacing" textLength="131" x="1065.5" y="197.6055">+selectJobOpening()</text></g><!--class ListJobRequirementsSpecificationController--><g id="elem_ListJobRequirementsSpecificationController"><rect codeLine="16" fill="#F1F1F1" height="122.4844" id="ListJobRequirementsSpecificationController" rx="2.5" ry="2.5" style="stroke:#181818;stroke-width:0.5;" width="306" x="517" y="354.6348"/><ellipse cx="532" cy="370.6348" fill="#ADD1B2" rx="11" ry="11" style="stroke:#181818;stroke-width:1.0;"/><path d="M534.7656,366.5098 Q534.9219,366.291 535.1094,366.1816 Q535.2969,366.0723 535.5156,366.0723 Q535.8906,366.0723 536.125,366.3379 Q536.3594,366.5879 536.3594,367.1973 L536.3594,368.6504 Q536.3594,369.2598 536.125,369.5254 Q535.8906,369.791 535.5156,369.791 Q535.1719,369.791 534.9688,369.5879 Q534.7656,369.4004 534.6563,368.8848 Q534.6094,368.5254 534.4219,368.3379 Q534.0938,367.9629 533.4844,367.7441 Q532.875,367.5254 532.25,367.5254 Q531.4844,367.5254 530.8438,367.8535 Q530.2188,368.1816 529.7188,368.9316 Q529.2344,369.6816 529.2344,370.7129 L529.2344,371.8066 Q529.2344,373.041 530.125,373.8691 Q531.0156,374.6816 532.6094,374.6816 Q533.5469,374.6816 534.2031,374.4316 Q534.5938,374.2754 535.0156,373.8379 Q535.2813,373.5723 535.4219,373.4941 Q535.5781,373.416 535.7813,373.416 Q536.1094,373.416 536.3594,373.6816 Q536.625,373.9316 536.625,374.2754 Q536.625,374.6191 536.2813,375.0254 Q535.7813,375.6035 534.9844,375.9316 Q533.9063,376.3848 532.6094,376.3848 Q531.0938,376.3848 529.8906,375.7598 Q528.9063,375.2598 528.2188,374.1973 Q527.5313,373.1191 527.5313,371.8379 L527.5313,370.6816 Q527.5313,369.3535 528.1406,368.2129 Q528.7656,367.0566 529.8594,366.4473 Q530.9531,365.8223 532.1875,365.8223 Q532.9219,365.8223 533.5625,365.9941 Q534.2188,366.1504 534.7656,366.5098 Z " fill="#000000"/><text fill="#000000" font-family="sans-serif" font-size="14" lengthAdjust="spacing" textLength="274" x="546" y="376.4316">ListJobRequirementsSpecificationController</text><line style="stroke:#181818;stroke-width:0.5;" x1="518" x2="822" y1="386.6348" y2="386.6348"/><line style="stroke:#181818;stroke-width:0.5;" x1="518" x2="822" y1="394.6348" y2="394.6348"/><text fill="#000000" font-family="sans-serif" font-size="14" lengthAdjust="spacing" textLength="222" x="523" y="413.7422">+allJobRequirementsSpecification()</text><text fill="#000000" font-family="sans-serif" font-size="14" lengthAdjust="spacing" textLength="235" x="523" y="432.3633">+findJobRequirementSpecification(id)</text><text fill="#000000" font-family="sans-serif" font-size="14" lengthAdjust="spacing" textLength="253" x="523" y="450.9844">+importRequirementsSpecification(path)</text><text fill="#000000" font-family="sans-serif" font-size="14" lengthAdjust="spacing" textLength="224" x="523" y="469.6055">+extractSpecificationFromFile(data)</text></g><!--class JobRequirementsSpecificationBuilder--><g id="elem_JobRequirementsSpecificationBuilder"><rect codeLine="43" fill="#F1F1F1" height="178.3477" id="JobRequirementsSpecificationBuilder" rx="2.5" ry="2.5" style="stroke:#181818;stroke-width:0.5;" width="435" x="46.5" y="326.6348"/><ellipse cx="142.75" cy="342.6348" fill="#ADD1B2" rx="11" ry="11" style="stroke:#181818;stroke-width:1.0;"/><path d="M145.5156,338.5098 Q145.6719,338.291 145.8594,338.1816 Q146.0469,338.0723 146.2656,338.0723 Q146.6406,338.0723 146.875,338.3379 Q147.1094,338.5879 147.1094,339.1973 L147.1094,340.6504 Q147.1094,341.2598 146.875,341.5254 Q146.6406,341.791 146.2656,341.791 Q145.9219,341.791 145.7188,341.5879 Q145.5156,341.4004 145.4063,340.8848 Q145.3594,340.5254 145.1719,340.3379 Q144.8438,339.9629 144.2344,339.7441 Q143.625,339.5254 143,339.5254 Q142.2344,339.5254 141.5938,339.8535 Q140.9688,340.1816 140.4688,340.9316 Q139.9844,341.6816 139.9844,342.7129 L139.9844,343.8066 Q139.9844,345.041 140.875,345.8691 Q141.7656,346.6816 143.3594,346.6816 Q144.2969,346.6816 144.9531,346.4316 Q145.3438,346.2754 145.7656,345.8379 Q146.0313,345.5723 146.1719,345.4941 Q146.3281,345.416 146.5313,345.416 Q146.8594,345.416 147.1094,345.6816 Q147.375,345.9316 147.375,346.2754 Q147.375,346.6191 147.0313,347.0254 Q146.5313,347.6035 145.7344,347.9316 Q144.6563,348.3848 143.3594,348.3848 Q141.8438,348.3848 140.6406,347.7598 Q139.6563,347.2598 138.9688,346.1973 Q138.2813,345.1191 138.2813,343.8379 L138.2813,342.6816 Q138.2813,341.3535 138.8906,340.2129 Q139.5156,339.0566 140.6094,338.4473 Q141.7031,337.8223 142.9375,337.8223 Q143.6719,337.8223 144.3125,337.9941 Q144.9688,338.1504 145.5156,338.5098 Z " fill="#000000"/><text fill="#000000" font-family="sans-serif" font-size="14" lengthAdjust="spacing" textLength="234" x="163.25" y="348.4316">JobRequirementsSpecificationBuilder</text><line style="stroke:#181818;stroke-width:0.5;" x1="47.5" x2="480.5" y1="358.6348" y2="358.6348"/><text fill="#000000" font-family="sans-serif" font-size="14" lengthAdjust="spacing" textLength="104" x="52.5" y="377.7422">-idRequirements</text><text fill="#000000" font-family="sans-serif" font-size="14" lengthAdjust="spacing" textLength="112" x="52.5" y="396.3633">-academicDegree</text><text fill="#000000" font-family="sans-serif" font-size="14" lengthAdjust="spacing" textLength="74" x="52.5" y="414.9844">-experience</text><text fill="#000000" font-family="sans-serif" font-size="14" lengthAdjust="spacing" textLength="72" x="52.5" y="433.6055">-knowledge</text><line style="stroke:#181818;stroke-width:0.5;" x1="47.5" x2="480.5" y1="441.1191" y2="441.1191"/><text fill="#000000" font-family="sans-serif" font-size="14" lengthAdjust="spacing" textLength="423" x="52.5" y="460.2266">+withAll(idRequirements, academicDegree, experience, knowledge)</text><text fill="#000000" font-family="sans-serif" font-size="14" lengthAdjust="spacing" textLength="332" x="52.5" y="478.8477">+withoutId(academicDegree, experience, knowledge)</text><text fill="#000000" font-family="sans-serif" font-size="14" lengthAdjust="spacing" textLength="48" x="52.5" y="497.4688">+build()</text></g><!--class JobRequirementsSpecification--><g id="elem_JobRequirementsSpecification"><rect codeLine="23" fill="#F1F1F1" height="345.9375" id="JobRequirementsSpecification" rx="2.5" ry="2.5" style="stroke:#181818;stroke-width:0.5;" width="498" x="70" y="564.6348"/><ellipse cx="219.75" cy="580.6348" fill="#ADD1B2" rx="11" ry="11" style="stroke:#181818;stroke-width:1.0;"/><path d="M222.5156,576.5098 Q222.6719,576.291 222.8594,576.1816 Q223.0469,576.0723 223.2656,576.0723 Q223.6406,576.0723 223.875,576.3379 Q224.1094,576.5879 224.1094,577.1973 L224.1094,578.6504 Q224.1094,579.2598 223.875,579.5254 Q223.6406,579.791 223.2656,579.791 Q222.9219,579.791 222.7188,579.5879 Q222.5156,579.4004 222.4063,578.8848 Q222.3594,578.5254 222.1719,578.3379 Q221.8438,577.9629 221.2344,577.7441 Q220.625,577.5254 220,577.5254 Q219.2344,577.5254 218.5938,577.8535 Q217.9688,578.1816 217.4688,578.9316 Q216.9844,579.6816 216.9844,580.7129 L216.9844,581.8066 Q216.9844,583.041 217.875,583.8691 Q218.7656,584.6816 220.3594,584.6816 Q221.2969,584.6816 221.9531,584.4316 Q222.3438,584.2754 222.7656,583.8379 Q223.0313,583.5723 223.1719,583.4941 Q223.3281,583.416 223.5313,583.416 Q223.8594,583.416 224.1094,583.6816 Q224.375,583.9316 224.375,584.2754 Q224.375,584.6191 224.0313,585.0254 Q223.5313,585.6035 222.7344,585.9316 Q221.6563,586.3848 220.3594,586.3848 Q218.8438,586.3848 217.6406,585.7598 Q216.6563,585.2598 215.9688,584.1973 Q215.2813,583.1191 215.2813,581.8379 L215.2813,580.6816 Q215.2813,579.3535 215.8906,578.2129 Q216.5156,577.0566 217.6094,576.4473 Q218.7031,575.8223 219.9375,575.8223 Q220.6719,575.8223 221.3125,575.9941 Q221.9688,576.1504 222.5156,576.5098 Z " fill="#000000"/><text fill="#000000" font-family="sans-serif" font-size="14" lengthAdjust="spacing" textLength="190" x="240.25" y="586.4316">JobRequirementsSpecification</text><line style="stroke:#181818;stroke-width:0.5;" x1="71" x2="567" y1="596.6348" y2="596.6348"/><text fill="#000000" font-family="sans-serif" font-size="14" lengthAdjust="spacing" textLength="104" x="76" y="615.7422">-idRequirements</text><text fill="#000000" font-family="sans-serif" font-size="14" lengthAdjust="spacing" textLength="112" x="76" y="634.3633">-academicDegree</text><text fill="#000000" font-family="sans-serif" font-size="14" lengthAdjust="spacing" textLength="74" x="76" y="652.9844">-experience</text><text fill="#000000" font-family="sans-serif" font-size="14" lengthAdjust="spacing" textLength="72" x="76" y="671.6055">-knowledge</text><text fill="#000000" font-family="sans-serif" font-size="14" lengthAdjust="spacing" textLength="70" x="76" y="690.2266">+hashcode</text><line style="stroke:#181818;stroke-width:0.5;" x1="71" x2="567" y1="697.7402" y2="697.7402"/><text fill="#000000" font-family="sans-serif" font-size="14" lengthAdjust="spacing" textLength="486" x="76" y="716.8477">+JobRequirementsSpecification(id, academicDegree, experience, knowledge)</text><text fill="#000000" font-family="sans-serif" font-size="14" lengthAdjust="spacing" textLength="467" x="76" y="735.4688">+JobRequirementsSpecification(academicDegree, experience, knowledge)</text><text fill="#000000" font-family="sans-serif" font-size="14" lengthAdjust="spacing" textLength="200" x="76" y="754.0898">JobRequirementsSpecification()</text><text fill="#000000" font-family="sans-serif" font-size="14" lengthAdjust="spacing" textLength="60" x="76" y="772.7109">+equals()</text><text fill="#000000" font-family="sans-serif" font-size="14" lengthAdjust="spacing" textLength="68" x="76" y="791.332">+sameAs()</text><text fill="#000000" font-family="sans-serif" font-size="14" lengthAdjust="spacing" textLength="90" x="76" y="809.9531">+compareTo()</text><text fill="#000000" font-family="sans-serif" font-size="14" lengthAdjust="spacing" textLength="125" x="76" y="828.5742">+academicDegree()</text><text fill="#000000" font-family="sans-serif" font-size="14" lengthAdjust="spacing" textLength="85" x="76" y="847.1953">+knowledge()</text><text fill="#000000" font-family="sans-serif" font-size="14" lengthAdjust="spacing" textLength="87" x="76" y="865.8164">+experience()</text><text fill="#000000" font-family="sans-serif" font-size="14" lengthAdjust="spacing" textLength="63" x="76" y="884.4375">+identity()</text><text fill="#000000" font-family="sans-serif" font-size="14" lengthAdjust="spacing" textLength="67" x="76" y="903.0586">+toString()</text></g><!--class JobRequirementsService--><g id="elem_JobRequirementsService"><rect codeLine="55" fill="#F1F1F1" height="122.4844" id="JobRequirementsService" rx="2.5" ry="2.5" style="stroke:#181818;stroke-width:0.5;" width="440" x="879" y="676.6348"/><ellipse cx="1016.25" cy="692.6348" fill="#ADD1B2" rx="11" ry="11" style="stroke:#181818;stroke-width:1.0;"/><path d="M1019.0156,688.5098 Q1019.1719,688.291 1019.3594,688.1816 Q1019.5469,688.0723 1019.7656,688.0723 Q1020.1406,688.0723 1020.375,688.3379 Q1020.6094,688.5879 1020.6094,689.1973 L1020.6094,690.6504 Q1020.6094,691.2598 1020.375,691.5254 Q1020.1406,691.791 1019.7656,691.791 Q1019.4219,691.791 1019.2188,691.5879 Q1019.0156,691.4004 1018.9063,690.8848 Q1018.8594,690.5254 1018.6719,690.3379 Q1018.3438,689.9629 1017.7344,689.7441 Q1017.125,689.5254 1016.5,689.5254 Q1015.7344,689.5254 1015.0938,689.8535 Q1014.4688,690.1816 1013.9688,690.9316 Q1013.4844,691.6816 1013.4844,692.7129 L1013.4844,693.8066 Q1013.4844,695.041 1014.375,695.8691 Q1015.2656,696.6816 1016.8594,696.6816 Q1017.7969,696.6816 1018.4531,696.4316 Q1018.8438,696.2754 1019.2656,695.8379 Q1019.5313,695.5723 1019.6719,695.4941 Q1019.8281,695.416 1020.0313,695.416 Q1020.3594,695.416 1020.6094,695.6816 Q1020.875,695.9316 1020.875,696.2754 Q1020.875,696.6191 1020.5313,697.0254 Q1020.0313,697.6035 1019.2344,697.9316 Q1018.1563,698.3848 1016.8594,698.3848 Q1015.3438,698.3848 1014.1406,697.7598 Q1013.1563,697.2598 1012.4688,696.1973 Q1011.7813,695.1191 1011.7813,693.8379 L1011.7813,692.6816 Q1011.7813,691.3535 1012.3906,690.2129 Q1013.0156,689.0566 1014.1094,688.4473 Q1015.2031,687.8223 1016.4375,687.8223 Q1017.1719,687.8223 1017.8125,687.9941 Q1018.4688,688.1504 1019.0156,688.5098 Z " fill="#000000"/><text fill="#000000" font-family="sans-serif" font-size="14" lengthAdjust="spacing" textLength="157" x="1036.75" y="698.4316">JobRequirementsService</text><line style="stroke:#181818;stroke-width:0.5;" x1="880" x2="1318" y1="708.6348" y2="708.6348"/><line style="stroke:#181818;stroke-width:0.5;" x1="880" x2="1318" y1="716.6348" y2="716.6348"/><text fill="#000000" font-family="sans-serif" font-size="14" lengthAdjust="spacing" textLength="428" x="885" y="735.7422">+registerJobRequirement(academicDegree, knowledge, experience)</text><text fill="#000000" font-family="sans-serif" font-size="14" lengthAdjust="spacing" textLength="222" x="885" y="754.3633">+allJobRequirementsSpecification()</text><text fill="#000000" font-family="sans-serif" font-size="14" lengthAdjust="spacing" textLength="235" x="885" y="772.9844">+findJobRequirementSpecification(id)</text><text fill="#000000" font-family="sans-serif" font-size="14" lengthAdjust="spacing" textLength="422" x="885" y="791.6055">+verifyJobRequirementsSpecification(jobRequirementSpecification)</text></g><!--class JobRequirementsSpecificationRepository--><g id="elem_JobRequirementsSpecificationRepository"><rect codeLine="64" fill="#F1F1F1" height="85.2422" id="JobRequirementsSpecificationRepository" rx="2.5" ry="2.5" style="stroke:#181818;stroke-width:0.5;" width="291" x="953.5" y="1011.6348"/><ellipse cx="968.5" cy="1027.6348" fill="#B4A7E5" rx="11" ry="11" style="stroke:#181818;stroke-width:1.0;"/><path d="M969.4531,1024.2754 L969.4531,1030.9316 L971.1719,1030.9316 Q971.7813,1030.9316 972.0469,1031.166 Q972.3125,1031.4004 972.3125,1031.791 Q972.3125,1032.166 972.0469,1032.4004 Q971.7813,1032.6348 971.1719,1032.6348 L966.0313,1032.6348 Q965.4219,1032.6348 965.1563,1032.4004 Q964.8906,1032.166 964.8906,1031.7754 Q964.8906,1031.4004 965.1563,1031.166 Q965.4219,1030.9316 966.0313,1030.9316 L967.75,1030.9316 L967.75,1024.2754 L966.0313,1024.2754 Q965.4219,1024.2754 965.1563,1024.041 Q964.8906,1023.8066 964.8906,1023.416 Q964.8906,1023.041 965.1563,1022.8066 Q965.4219,1022.5723 966.0313,1022.5723 L971.1719,1022.5723 Q971.7813,1022.5723 972.0469,1022.8066 Q972.3125,1023.041 972.3125,1023.416 Q972.3125,1023.8066 972.0469,1024.041 Q971.7813,1024.2754 971.1719,1024.2754 L969.4531,1024.2754 Z " fill="#000000"/><text fill="#000000" font-family="sans-serif" font-size="14" font-style="italic" lengthAdjust="spacing" textLength="259" x="982.5" y="1033.4316">JobRequirementsSpecificationRepository</text><line style="stroke:#181818;stroke-width:0.5;" x1="954.5" x2="1243.5" y1="1043.6348" y2="1043.6348"/><line style="stroke:#181818;stroke-width:0.5;" x1="954.5" x2="1243.5" y1="1051.6348" y2="1051.6348"/><text fill="#000000" font-family="sans-serif" font-size="14" lengthAdjust="spacing" textLength="214" x="959.5" y="1070.7422">allJobRequirementsSpecification()</text><text fill="#000000" font-family="sans-serif" font-size="14" lengthAdjust="spacing" textLength="78" x="959.5" y="1089.3633">ofIdentity(id)</text></g><!--class ListJobOpeningController--><g id="elem_ListJobOpeningController"><rect codeLine="73" fill="#F1F1F1" height="85.2422" id="ListJobOpeningController" rx="2.5" ry="2.5" style="stroke:#181818;stroke-width:0.5;" width="318" x="1542" y="373.1348"/><ellipse cx="1616.75" cy="389.1348" fill="#ADD1B2" rx="11" ry="11" style="stroke:#181818;stroke-width:1.0;"/><path d="M1619.5156,385.0098 Q1619.6719,384.791 1619.8594,384.6816 Q1620.0469,384.5723 1620.2656,384.5723 Q1620.6406,384.5723 1620.875,384.8379 Q1621.1094,385.0879 1621.1094,385.6973 L1621.1094,387.1504 Q1621.1094,387.7598 1620.875,388.0254 Q1620.6406,388.291 1620.2656,388.291 Q1619.9219,388.291 1619.7188,388.0879 Q1619.5156,387.9004 1619.4063,387.3848 Q1619.3594,387.0254 1619.1719,386.8379 Q1618.8438,386.4629 1618.2344,386.2441 Q1617.625,386.0254 1617,386.0254 Q1616.2344,386.0254 1615.5938,386.3535 Q1614.9688,386.6816 1614.4688,387.4316 Q1613.9844,388.1816 1613.9844,389.2129 L1613.9844,390.3066 Q1613.9844,391.541 1614.875,392.3691 Q1615.7656,393.1816 1617.3594,393.1816 Q1618.2969,393.1816 1618.9531,392.9316 Q1619.3438,392.7754 1619.7656,392.3379 Q1620.0313,392.0723 1620.1719,391.9941 Q1620.3281,391.916 1620.5313,391.916 Q1620.8594,391.916 1621.1094,392.1816 Q1621.375,392.4316 1621.375,392.7754 Q1621.375,393.1191 1621.0313,393.5254 Q1620.5313,394.1035 1619.7344,394.4316 Q1618.6563,394.8848 1617.3594,394.8848 Q1615.8438,394.8848 1614.6406,394.2598 Q1613.6563,393.7598 1612.9688,392.6973 Q1612.2813,391.6191 1612.2813,390.3379 L1612.2813,389.1816 Q1612.2813,387.8535 1612.8906,386.7129 Q1613.5156,385.5566 1614.6094,384.9473 Q1615.7031,384.3223 1616.9375,384.3223 Q1617.6719,384.3223 1618.3125,384.4941 Q1618.9688,384.6504 1619.5156,385.0098 Z " fill="#000000"/><text fill="#000000" font-family="sans-serif" font-size="14" lengthAdjust="spacing" textLength="160" x="1637.25" y="394.9316">ListJobOpeningController</text><line style="stroke:#181818;stroke-width:0.5;" x1="1543" x2="1859" y1="405.1348" y2="405.1348"/><line style="stroke:#181818;stroke-width:0.5;" x1="1543" x2="1859" y1="413.1348" y2="413.1348"/><text fill="#000000" font-family="sans-serif" font-size="14" lengthAdjust="spacing" textLength="115" x="1548" y="432.2422">+allJobOpenings()</text><text fill="#000000" font-family="sans-serif" font-size="14" lengthAdjust="spacing" textLength="306" x="1548" y="450.8633">+findJobOpeningByJobReference(jobReference)</text></g><!--class JobOpeningService--><g id="elem_JobOpeningService"><rect codeLine="80" fill="#F1F1F1" height="122.4844" id="JobOpeningService" rx="2.5" ry="2.5" style="stroke:#181818;stroke-width:0.5;" width="795" x="1423.5" y="676.6348"/><ellipse cx="1755.25" cy="692.6348" fill="#ADD1B2" rx="11" ry="11" style="stroke:#181818;stroke-width:1.0;"/><path d="M1758.0156,688.5098 Q1758.1719,688.291 1758.3594,688.1816 Q1758.5469,688.0723 1758.7656,688.0723 Q1759.1406,688.0723 1759.375,688.3379 Q1759.6094,688.5879 1759.6094,689.1973 L1759.6094,690.6504 Q1759.6094,691.2598 1759.375,691.5254 Q1759.1406,691.791 1758.7656,691.791 Q1758.4219,691.791 1758.2188,691.5879 Q1758.0156,691.4004 1757.9063,690.8848 Q1757.8594,690.5254 1757.6719,690.3379 Q1757.3438,689.9629 1756.7344,689.7441 Q1756.125,689.5254 1755.5,689.5254 Q1754.7344,689.5254 1754.0938,689.8535 Q1753.4688,690.1816 1752.9688,690.9316 Q1752.4844,691.6816 1752.4844,692.7129 L1752.4844,693.8066 Q1752.4844,695.041 1753.375,695.8691 Q1754.2656,696.6816 1755.8594,696.6816 Q1756.7969,696.6816 1757.4531,696.4316 Q1757.8438,696.2754 1758.2656,695.8379 Q1758.5313,695.5723 1758.6719,695.4941 Q1758.8281,695.416 1759.0313,695.416 Q1759.3594,695.416 1759.6094,695.6816 Q1759.875,695.9316 1759.875,696.2754 Q1759.875,696.6191 1759.5313,697.0254 Q1759.0313,697.6035 1758.2344,697.9316 Q1757.1563,698.3848 1755.8594,698.3848 Q1754.3438,698.3848 1753.1406,697.7598 Q1752.1563,697.2598 1751.4688,696.1973 Q1750.7813,695.1191 1750.7813,693.8379 L1750.7813,692.6816 Q1750.7813,691.3535 1751.3906,690.2129 Q1752.0156,689.0566 1753.1094,688.4473 Q1754.2031,687.8223 1755.4375,687.8223 Q1756.1719,687.8223 1756.8125,687.9941 Q1757.4688,688.1504 1758.0156,688.5098 Z " fill="#000000"/><text fill="#000000" font-family="sans-serif" font-size="14" lengthAdjust="spacing" textLength="123" x="1775.75" y="698.4316">JobOpeningService</text><line style="stroke:#181818;stroke-width:0.5;" x1="1424.5" x2="2217.5" y1="708.6348" y2="708.6348"/><line style="stroke:#181818;stroke-width:0.5;" x1="1424.5" x2="2217.5" y1="716.6348" y2="716.6348"/><text fill="#000000" font-family="sans-serif" font-size="14" lengthAdjust="spacing" textLength="783" x="1429.5" y="735.7422">+registerJobOpening(jobReference, description, vacanciesNumber, address, mode, contractType, titleOrFunction, company)</text><text fill="#000000" font-family="sans-serif" font-size="14" lengthAdjust="spacing" textLength="202" x="1429.5" y="754.3633">+findJobOpening(jobReference)</text><text fill="#000000" font-family="sans-serif" font-size="14" lengthAdjust="spacing" textLength="225" x="1429.5" y="772.9844">+verifyJobReference(jobReference)</text><text fill="#000000" font-family="sans-serif" font-size="14" lengthAdjust="spacing" textLength="116" x="1429.5" y="791.6055">+AllJobOpenings()</text></g><!--class JobOpeningRepository--><g id="elem_JobOpeningRepository"><rect codeLine="89" fill="#F1F1F1" height="85.2422" id="JobOpeningRepository" rx="2.5" ry="2.5" style="stroke:#181818;stroke-width:0.5;" width="177" x="1732.5" y="1011.6348"/><ellipse cx="1747.5" cy="1027.6348" fill="#B4A7E5" rx="11" ry="11" style="stroke:#181818;stroke-width:1.0;"/><path d="M1748.4531,1024.2754 L1748.4531,1030.9316 L1750.1719,1030.9316 Q1750.7813,1030.9316 1751.0469,1031.166 Q1751.3125,1031.4004 1751.3125,1031.791 Q1751.3125,1032.166 1751.0469,1032.4004 Q1750.7813,1032.6348 1750.1719,1032.6348 L1745.0313,1032.6348 Q1744.4219,1032.6348 1744.1563,1032.4004 Q1743.8906,1032.166 1743.8906,1031.7754 Q1743.8906,1031.4004 1744.1563,1031.166 Q1744.4219,1030.9316 1745.0313,1030.9316 L1746.75,1030.9316 L1746.75,1024.2754 L1745.0313,1024.2754 Q1744.4219,1024.2754 1744.1563,1024.041 Q1743.8906,1023.8066 1743.8906,1023.416 Q1743.8906,1023.041 1744.1563,1022.8066 Q1744.4219,1022.5723 1745.0313,1022.5723 L1750.1719,1022.5723 Q1750.7813,1022.5723 1751.0469,1022.8066 Q1751.3125,1023.041 1751.3125,1023.416 Q1751.3125,1023.8066 1751.0469,1024.041 Q1750.7813,1024.2754 1750.1719,1024.2754 L1748.4531,1024.2754 Z " fill="#000000"/><text fill="#000000" font-family="sans-serif" font-size="14" font-style="italic" lengthAdjust="spacing" textLength="145" x="1761.5" y="1033.4316">JobOpeningRepository</text><line style="stroke:#181818;stroke-width:0.5;" x1="1733.5" x2="1908.5" y1="1043.6348" y2="1043.6348"/><line style="stroke:#181818;stroke-width:0.5;" x1="1733.5" x2="1908.5" y1="1051.6348" y2="1051.6348"/><text fill="#000000" font-family="sans-serif" font-size="14" lengthAdjust="spacing" textLength="78" x="1738.5" y="1070.7422">ofIdentity(id)</text><text fill="#000000" font-family="sans-serif" font-size="14" lengthAdjust="spacing" textLength="107" x="1738.5" y="1089.3633">allJobOpenings()</text></g><!--link SelectRequirementsSpecificationUI to ListJobRequirementsSpecificationController--><g id="link_SelectRequirementsSpecificationUI_ListJobRequirementsSpecificationController"><path codeLine="96" d="M1070.39,204.7248 C985.32,249.3248 875.1341,307.0891 790.0341,351.6991 " fill="none" id="SelectRequirementsSpecificationUI-to-ListJobRequirementsSpecificationController" style="stroke:#181818;stroke-width:1.0;"/><polygon fill="#181818" points="784.72,354.4848,794.5483,353.849,789.1484,352.1634,790.834,346.7635,784.72,354.4848" style="stroke:#181818;stroke-width:1.0;"/></g><!--link SelectRequirementsSpecificationUI to ListJobOpeningController--><g id="link_SelectRequirementsSpecificationUI_ListJobOpeningController"><path codeLine="97" d="M1299.84,204.7248 C1397.54,255.8448 1530.0037,325.1633 1616.0137,370.1633 " fill="none" id="SelectRequirementsSpecificationUI-to-ListJobOpeningController" style="stroke:#181818;stroke-width:1.0;"/><polygon fill="#181818" points="1621.33,372.9448,1615.2098,365.2283,1616.8997,370.6269,1611.5012,372.3168,1621.33,372.9448" style="stroke:#181818;stroke-width:1.0;"/></g><!--link ListJobRequirementsSpecificationController to JobRequirementsService--><g id="link_ListJobRequirementsSpecificationController_JobRequirementsService"><path codeLine="99" d="M750.44,476.6348 C826.99,533.7348 936.7408,615.597 1013.4008,672.787 " fill="none" id="ListJobRequirementsSpecificationController-to-JobRequirementsService" style="stroke:#181818;stroke-width:1.0;"/><polygon fill="#181818" points="1018.21,676.3748,1013.3881,667.787,1014.2024,673.385,1008.6044,674.1993,1018.21,676.3748" style="stroke:#181818;stroke-width:1.0;"/></g><!--link JobRequirementsService to JobRequirementsSpecificationRepository--><g id="link_JobRequirementsService_JobRequirementsSpecificationRepository"><path codeLine="101" d="M1099,798.9048 C1099,861.3248 1099,951.2048 1099,1005.6348 " fill="none" id="JobRequirementsService-to-JobRequirementsSpecificationRepository" style="stroke:#181818;stroke-width:1.0;"/><polygon fill="#181818" points="1099,1011.6348,1103,1002.6348,1099,1006.6348,1095,1002.6348,1099,1011.6348" style="stroke:#181818;stroke-width:1.0;"/></g><!--link JobRequirementsService to JobRequirementsSpecificationBuilder--><g id="link_JobRequirementsService_JobRequirementsSpecificationBuilder"><path codeLine="102" d="M977.98,676.5848 C875.36,627.8848 723.09,560.7948 584,519.6348 C547.64,508.8748 536.58,514.6348 500,504.6348 C493.99,502.9948 493.6754,502.9503 487.5654,501.1503 " fill="none" id="JobRequirementsService-to-JobRequirementsSpecificationBuilder" style="stroke:#181818;stroke-width:1.0;"/><polygon fill="#181818" points="481.81,499.4548,489.3128,505.835,486.6062,500.8677,491.5735,498.1611,481.81,499.4548" style="stroke:#181818;stroke-width:1.0;"/></g><!--link JobRequirementsSpecificationBuilder to JobRequirementsSpecification--><g id="link_JobRequirementsSpecificationBuilder_JobRequirementsSpecification"><path codeLine="104" d="M279.17,504.9248 C282.39,523.6048 284.8638,538.0214 288.4038,558.6214 " fill="none" id="JobRequirementsSpecificationBuilder-to-JobRequirementsSpecification" style="stroke:#181818;stroke-width:1.0;"/><polygon fill="#181818" points="289.42,564.5348,291.838,554.9873,288.5732,559.607,283.9535,556.3422,289.42,564.5348" style="stroke:#181818;stroke-width:1.0;"/></g><!--link ListJobOpeningController to JobOpeningService--><g id="link_ListJobOpeningController_JobOpeningService"><path codeLine="106" d="M1716.56,458.1448 C1737.4,513.6948 1772.3833,606.9868 1796.2933,670.7468 " fill="none" id="ListJobOpeningController-to-JobOpeningService" style="stroke:#181818;stroke-width:1.0;"/><polygon fill="#181818" points="1798.4,676.3648,1798.9852,666.5333,1796.6444,671.6831,1791.4946,669.3423,1798.4,676.3648" style="stroke:#181818;stroke-width:1.0;"/></g><!--link JobOpeningService to JobOpeningRepository--><g id="link_JobOpeningService_JobOpeningRepository"><path codeLine="108" d="M1821,798.9048 C1821,861.3248 1821,951.2048 1821,1005.6348 " fill="none" id="JobOpeningService-to-JobOpeningRepository" style="stroke:#181818;stroke-width:1.0;"/><polygon fill="#181818" points="1821,1011.6348,1825,1002.6348,1821,1006.6348,1817,1002.6348,1821,1011.6348" style="stroke:#181818;stroke-width:1.0;"/></g><!--SRC=[lLPBRjim4Dth54HM3c83FK419q405qK3nEa1Q79iJqAHAaabSGlVlTJ7aaXQSgG2zSha_9_UpD2yeioefYbXWXgpj5RZ9hUmOagkyJUGBqdoZ5O0kReh5CWzqbsXlY1h4C0iUO9VEMf8GLgope3X5XcrgEHLacIKlTATiytnwaz2tA-CKfjsB8rd-NDLATyGhjPxzJwxhe_67RwfpMC64kNEjFUblmSK45orohNWc1mxQJbnDt_Z5s3gd1jrccNYL5mbQalwZgQ8rblJdP9MAo50jvPLfbI88SCwyLP_YvBx1hu-yj02qqpfVhXd6RNxq0O-hARCT_sWLLg2pAcbhS7HHuchb68Cq52DFYGBWhoh6WWfennIPFUmqm2143uoq0YIXO9NgTu5y1q4TGv2ZtmUX9jt8inRfzTZl4xmE8eWJf4A4rtlgTapnKC034rX6MipbRgv0CygalZfH-AcWZYlfiv8XDoLXVOG2QnQkudKjAzFkUhV29xTvYXus87_bMxlQFTB8MP-o8aiAvoftAxuR9Bvfa1Z5lPn3MZJpWRq6p8m5nkwqckrReY6dPkAe7tDADacmMxUrycK2JbkEjwGDnTjUnXq_jBlx19q6Z9bq2fNKHU-bNIOR2c3GQu-dOmFFbt7hGkrNPrQgrlviMSPrijomkAhBI-jkM1rHz-jbjzMtsGBkXmNBvt3l_2rzXvHDQBhwT7G3Jmd70pJc1KmpCcRex5axil-oDCDQDV2d6imhfTJDsJdRe3ASeC-7p9tiiKRwb4_v99LvkLybOTX67eAZxWxZ5Eblkp3VpftQsTzJEtXNalYWMHSEXSVYMIn-3hYtJNEOSJd9FbygDBH-VcO9EVlpvgSdmTJFTJRByxWZD95PmqS4L0dKx_PogZ-LQ3OAV0l]--></g></svg>