<?xml version="1.0" encoding="us-ascii" standalone="no"?><svg xmlns="http://www.w3.org/2000/svg" xmlns:xlink="http://www.w3.org/1999/xlink" contentStyleType="text/css" height="973.8px" preserveAspectRatio="none" style="width:805px;height:973px;background:#FFFFFF;" version="1.1" viewBox="0 0 805 973" width="805.2px" zoomAndPan="magnify"><defs/><g><text fill="#000000" font-family="sans-serif" font-size="8.4" font-weight="bold" lengthAdjust="spacing" textLength="213" x="291.9" y="15.0645">Domain Model - Select Requirements Specification</text><!--cluster Job Requirements Specification Aggregate--><g id="cluster_Job Requirements Specification Aggregate"><rect fill="none" height="151.8" rx="1.5" ry="1.5" style="stroke:#000000;stroke-width:0.8999999999999999;" width="388.8" x="4.2" y="27.9727"/><text fill="#000000" font-family="sans-serif" font-size="8.4" font-weight="bold" lengthAdjust="spacing" textLength="180.6" x="108.3" y="38.2371">Job Requirements Specification Aggregate</text></g><!--cluster Job Opening Aggregate--><g id="cluster_Job Opening Aggregate"><rect fill="none" height="339" rx="1.5" ry="1.5" style="stroke:#000000;stroke-width:0.8999999999999999;" width="357" x="298.8" y="194.1727"/><text fill="#000000" font-family="sans-serif" font-size="8.4" font-weight="bold" lengthAdjust="spacing" textLength="100.2" x="427.2" y="204.4371">Job Opening Aggregate</text></g><!--cluster User Aggregate--><g id="cluster_User Aggregate"><rect fill="none" height="198.6" rx="1.5" ry="1.5" style="stroke:#000000;stroke-width:0.8999999999999999;" width="196.2" x="309.9" y="771.9727"/><text fill="#000000" font-family="sans-serif" font-size="8.4" font-weight="bold" lengthAdjust="spacing" textLength="66" x="375" y="782.2371">User Aggregate</text></g><!--cluster Process Aggregate--><g id="cluster_Process Aggregate"><rect fill="none" height="210" rx="1.5" ry="1.5" style="stroke:#000000;stroke-width:0.8999999999999999;" width="374.7" x="426.9" y="547.5727"/><text fill="#000000" font-family="sans-serif" font-size="8.4" font-weight="bold" lengthAdjust="spacing" textLength="80.4" x="574.05" y="557.8371">Process Aggregate</text></g><!--cluster Customer Manager Aggregate--><g id="cluster_Customer Manager Aggregate"><rect fill="none" height="73.8" rx="1.5" ry="1.5" style="stroke:#000000;stroke-width:0.8999999999999999;" width="136.2" x="12.3" y="527.7727"/><text fill="#000000" font-family="sans-serif" font-size="8.4" font-weight="bold" lengthAdjust="spacing" textLength="126.6" x="17.1" y="538.0371">Customer Manager Aggregate</text></g><!--class JobRequirementsSpecification--><g id="elem_JobRequirementsSpecification"><rect codeLine="26" fill="#F0FFFF" height="41.1258" id="JobRequirementsSpecification" rx="1.5" ry="1.5" style="stroke:#000000;stroke-width:0.3;" width="133.2" x="13.8" y="109.2727"/><ellipse cx="22.8" cy="127.4355" fill="#ADD1B2" rx="6.6" ry="6.6" style="stroke:#181818;stroke-width:0.6;"/><path d="M22.1156,127.9137 L22.1156,129.4137 L24.7125,129.4137 L24.7125,128.8605 Q24.7125,128.4949 24.8531,128.3355 Q25.0031,128.1762 25.2281,128.1762 Q25.4531,128.1762 25.5938,128.3355 Q25.7344,128.4949 25.7344,128.8605 L25.7344,130.4355 L20.9344,130.4355 Q20.5594,130.4355 20.4,130.2949 Q20.25,130.1543 20.25,129.9199 Q20.25,129.6949 20.4094,129.5543 Q20.5687,129.4137 20.9344,129.4137 L21.0938,129.4137 L21.0938,125.4199 L20.9344,125.4199 Q20.5594,125.4199 20.4,125.2793 Q20.25,125.1387 20.25,124.9043 Q20.25,124.6793 20.4,124.5387 Q20.5594,124.398 20.9344,124.398 L25.5094,124.398 L25.5094,125.9543 Q25.5094,126.3199 25.3688,126.4793 Q25.2375,126.6293 25.0031,126.6293 Q24.7781,126.6293 24.6375,126.4793 Q24.4969,126.3199 24.4969,125.9543 L24.4969,125.4199 L22.1156,125.4199 L22.1156,126.8918 L23.0062,126.8918 Q23.0062,126.498 23.0813,126.3855 Q23.2406,126.1418 23.5219,126.1418 Q23.7469,126.1418 23.8875,126.3012 Q24.0281,126.4512 24.0281,126.8168 L24.0281,127.998 Q24.0281,128.3262 23.9531,128.4387 Q23.7938,128.673 23.5219,128.673 Q23.2406,128.673 23.0813,128.4293 Q23.0062,128.3168 23.0062,127.9137 L22.1156,127.9137 Z " fill="#000000"/><text fill="#000000" font-family="sans-serif" font-size="7.2" font-style="italic" lengthAdjust="spacing" textLength="25.8" x="75.3" y="120.0422">&#171;entity&#187;</text><text fill="#000000" font-family="sans-serif" font-size="7.2" font-style="italic" lengthAdjust="spacing" textLength="21" x="77.7" y="129.6188">&#171;root&#187;</text><text fill="#000000" font-family="sans-serif" font-size="8.4" lengthAdjust="spacing" textLength="114" x="31.2" y="140.4902">JobRequirementsSpecification</text><line style="stroke:#000000;stroke-width:0.3;" x1="14.4" x2="146.4" y1="145.5984" y2="145.5984"/></g><!--class Requirements--><g id="elem_Requirements"><rect codeLine="28" fill="#F0FFFF" height="31.5492" id="Requirements" rx="1.5" ry="1.5" style="stroke:#000000;stroke-width:0.3;" width="72" x="189.6" y="102.0727"/><ellipse cx="198.6" cy="115.4473" fill="#ADD1B2" rx="6.6" ry="6.6" style="stroke:#181818;stroke-width:0.6;"/><path d="M197.9156,115.9254 L197.9156,117.4254 L200.5125,117.4254 L200.5125,116.8723 Q200.5125,116.5066 200.6531,116.3473 Q200.8031,116.1879 201.0281,116.1879 Q201.2531,116.1879 201.3937,116.3473 Q201.5344,116.5066 201.5344,116.8723 L201.5344,118.4473 L196.7344,118.4473 Q196.3594,118.4473 196.2,118.3066 Q196.05,118.166 196.05,117.9316 Q196.05,117.7066 196.2094,117.566 Q196.3688,117.4254 196.7344,117.4254 L196.8937,117.4254 L196.8937,113.4316 L196.7344,113.4316 Q196.3594,113.4316 196.2,113.291 Q196.05,113.1504 196.05,112.916 Q196.05,112.691 196.2,112.5504 Q196.3594,112.4098 196.7344,112.4098 L201.3094,112.4098 L201.3094,113.966 Q201.3094,114.3316 201.1688,114.491 Q201.0375,114.641 200.8031,114.641 Q200.5781,114.641 200.4375,114.491 Q200.2969,114.3316 200.2969,113.966 L200.2969,113.4316 L197.9156,113.4316 L197.9156,114.9035 L198.8063,114.9035 Q198.8063,114.5098 198.8813,114.3973 Q199.0406,114.1535 199.3219,114.1535 Q199.5469,114.1535 199.6875,114.3129 Q199.8281,114.4629 199.8281,114.8285 L199.8281,116.0098 Q199.8281,116.3379 199.7531,116.4504 Q199.5938,116.6848 199.3219,116.6848 Q199.0406,116.6848 198.8813,116.441 Q198.8063,116.3285 198.8063,115.9254 L197.9156,115.9254 Z " fill="#000000"/><text fill="#000000" font-family="sans-serif" font-size="7.2" font-style="italic" lengthAdjust="spacing" textLength="25.8" x="220.5" y="112.8422">&#171;entity&#187;</text><text fill="#000000" font-family="sans-serif" font-size="8.4" lengthAdjust="spacing" textLength="52.8" x="207" y="123.7137">Requirements</text><line style="stroke:#000000;stroke-width:0.3;" x1="190.2" x2="261" y1="128.8219" y2="128.8219"/></g><!--entity YearsOfExperience--><g id="elem_YearsOfExperience"><rect fill="#F0FFDD" height="25.9453" rx="1.5" ry="1.5" style="stroke:#000000;stroke-width:0.3;" width="85.2" x="298.2" y="144.0727"/><text fill="#000000" font-family="sans-serif" font-size="8.4" font-style="italic" lengthAdjust="spacing" textLength="55.8" x="312.9" y="154.9371">&#171;ValueObject&#187;</text><text fill="#000000" font-family="sans-serif" font-size="8.4" lengthAdjust="spacing" textLength="73.2" x="304.2" y="166.1098">YearsOfExperience</text></g><!--entity AcademicDegree--><g id="elem_AcademicDegree"><rect fill="#F0FFDD" height="25.9453" rx="1.5" ry="1.5" style="stroke:#000000;stroke-width:0.3;" width="76.8" x="302.4" y="97.2727"/><text fill="#000000" font-family="sans-serif" font-size="8.4" font-style="italic" lengthAdjust="spacing" textLength="55.8" x="312.9" y="108.1371">&#171;ValueObject&#187;</text><text fill="#000000" font-family="sans-serif" font-size="8.4" lengthAdjust="spacing" textLength="64.8" x="308.4" y="119.3098">AcademicDegree</text></g><!--entity Skills--><g id="elem_Skills"><rect fill="#F0FFDD" height="25.9453" rx="1.5" ry="1.5" style="stroke:#000000;stroke-width:0.3;" width="67.8" x="306.9" y="50.4727"/><text fill="#000000" font-family="sans-serif" font-size="8.4" font-style="italic" lengthAdjust="spacing" textLength="55.8" x="312.9" y="61.3371">&#171;ValueObject&#187;</text><text fill="#000000" font-family="sans-serif" font-size="8.4" lengthAdjust="spacing" textLength="19.2" x="331.2" y="72.5098">Skills</text></g><!--class JobOpening--><g id="elem_JobOpening"><rect codeLine="46" fill="#F0FFFF" height="41.1258" id="JobOpening" rx="1.5" ry="1.5" style="stroke:#000000;stroke-width:0.3;" width="64.8" x="308.4" y="372.6727"/><ellipse cx="317.4" cy="390.8355" fill="#ADD1B2" rx="6.6" ry="6.6" style="stroke:#181818;stroke-width:0.6;"/><path d="M316.7156,391.3137 L316.7156,392.8137 L319.3125,392.8137 L319.3125,392.2605 Q319.3125,391.8949 319.4531,391.7355 Q319.6031,391.5762 319.8281,391.5762 Q320.0531,391.5762 320.1937,391.7355 Q320.3344,391.8949 320.3344,392.2605 L320.3344,393.8355 L315.5344,393.8355 Q315.1594,393.8355 315,393.6949 Q314.85,393.5543 314.85,393.3199 Q314.85,393.0949 315.0094,392.9543 Q315.1688,392.8137 315.5344,392.8137 L315.6937,392.8137 L315.6937,388.8199 L315.5344,388.8199 Q315.1594,388.8199 315,388.6793 Q314.85,388.5387 314.85,388.3043 Q314.85,388.0793 315,387.9387 Q315.1594,387.798 315.5344,387.798 L320.1094,387.798 L320.1094,389.3543 Q320.1094,389.7199 319.9688,389.8793 Q319.8375,390.0293 319.6031,390.0293 Q319.3781,390.0293 319.2375,389.8793 Q319.0969,389.7199 319.0969,389.3543 L319.0969,388.8199 L316.7156,388.8199 L316.7156,390.2918 L317.6063,390.2918 Q317.6063,389.898 317.6813,389.7855 Q317.8406,389.5418 318.1219,389.5418 Q318.3469,389.5418 318.4875,389.7012 Q318.6281,389.8512 318.6281,390.2168 L318.6281,391.398 Q318.6281,391.7262 318.5531,391.8387 Q318.3938,392.073 318.1219,392.073 Q317.8406,392.073 317.6813,391.8293 Q317.6063,391.7168 317.6063,391.3137 L316.7156,391.3137 Z " fill="#000000"/><text fill="#000000" font-family="sans-serif" font-size="7.2" font-style="italic" lengthAdjust="spacing" textLength="25.8" x="335.7" y="383.4422">&#171;entity&#187;</text><text fill="#000000" font-family="sans-serif" font-size="7.2" font-style="italic" lengthAdjust="spacing" textLength="21" x="338.1" y="393.0188">&#171;root&#187;</text><text fill="#000000" font-family="sans-serif" font-size="8.4" lengthAdjust="spacing" textLength="45.6" x="325.8" y="403.8902">JobOpening</text><line style="stroke:#000000;stroke-width:0.3;" x1="309" x2="372.6" y1="408.9984" y2="408.9984"/></g><g id="elem_GMN28"><path d="M538.2,404.7727 L538.2,418.2487 L496.56,418.5307 L538.2,423.0487 L538.2,441.8965 A0,0 0 0 0 538.2,441.8965 L646.2,441.8965 A0,0 0 0 0 646.2,441.8965 L646.2,410.7727 L640.2,404.7727 L538.2,404.7727 A0,0 0 0 0 538.2,404.7727 " fill="#FEFFDD" style="stroke:#181818;stroke-width:0.3;"/><path d="M640.2,404.7727 L640.2,410.7727 L646.2,410.7727 L640.2,404.7727 " fill="#FEFFDD" style="stroke:#181818;stroke-width:0.3;"/><text fill="#000000" font-family="sans-serif" font-size="7.8" lengthAdjust="spacing" textLength="95.4" x="541.8" y="416.1896">Can be one of the following:</text><text fill="#000000" font-family="sans-serif" font-size="7.8" lengthAdjust="spacing" textLength="31.8" x="541.8" y="426.5643">- full-time</text><text fill="#000000" font-family="sans-serif" font-size="7.8" lengthAdjust="spacing" textLength="35.4" x="541.8" y="436.9389">- part-time</text></g><g id="elem_GMN31"><path d="M538.2,336.0727 L538.2,361.5847 L496.56,367.2547 L538.2,366.3847 L538.2,383.5711 A0,0 0 0 0 538.2,383.5711 L646.2,383.5711 A0,0 0 0 0 646.2,383.5711 L646.2,342.0727 L640.2,336.0727 L538.2,336.0727 A0,0 0 0 0 538.2,336.0727 " fill="#FEFFDD" style="stroke:#181818;stroke-width:0.3;"/><path d="M640.2,336.0727 L640.2,342.0727 L646.2,342.0727 L640.2,336.0727 " fill="#FEFFDD" style="stroke:#181818;stroke-width:0.3;"/><text fill="#000000" font-family="sans-serif" font-size="7.8" lengthAdjust="spacing" textLength="95.4" x="541.8" y="347.4896">Can be one of the following:</text><text fill="#000000" font-family="sans-serif" font-size="7.8" lengthAdjust="spacing" textLength="28.8" x="541.8" y="357.8643">- remote</text><text fill="#000000" font-family="sans-serif" font-size="7.8" lengthAdjust="spacing" textLength="25.8" x="541.8" y="368.2389">- hybrid</text><text fill="#000000" font-family="sans-serif" font-size="7.8" lengthAdjust="spacing" textLength="25.8" x="541.8" y="378.6135">- onsite</text></g><!--entity JobReference--><g id="elem_JobReference"><rect fill="#F0FFDD" height="25.9453" rx="1.5" ry="1.5" style="stroke:#000000;stroke-width:0.3;" width="70.2" x="426.3" y="497.4727"/><text fill="#000000" font-family="sans-serif" font-size="8.4" font-style="italic" lengthAdjust="spacing" textLength="58.2" x="432.3" y="508.3371">&#171;Value Object&#187;</text><text fill="#000000" font-family="sans-serif" font-size="8.4" lengthAdjust="spacing" textLength="52.8" x="435" y="519.5098">JobReference</text></g><!--entity TitleOrFunction--><g id="elem_TitleOrFunction"><rect fill="#F0FFDD" height="25.9453" rx="1.5" ry="1.5" style="stroke:#000000;stroke-width:0.3;" width="70.8" x="426" y="450.6727"/><text fill="#000000" font-family="sans-serif" font-size="8.4" font-style="italic" lengthAdjust="spacing" textLength="58.2" x="432.3" y="461.5371">&#171;Value Object&#187;</text><text fill="#000000" font-family="sans-serif" font-size="8.4" lengthAdjust="spacing" textLength="58.8" x="432" y="472.7098">TitleOrFunction</text></g><!--entity ContractType--><g id="elem_ContractType"><rect fill="#F0FFDD" height="25.9453" rx="1.5" ry="1.5" style="stroke:#000000;stroke-width:0.3;" width="70.2" x="426.3" y="403.8727"/><text fill="#000000" font-family="sans-serif" font-size="8.4" font-style="italic" lengthAdjust="spacing" textLength="58.2" x="432.3" y="414.7371">&#171;Value Object&#187;</text><text fill="#000000" font-family="sans-serif" font-size="8.4" lengthAdjust="spacing" textLength="51.6" x="435.6" y="425.9098">ContractType</text></g><!--entity Mode--><g id="elem_Mode"><rect fill="#F0FFDD" height="25.9453" rx="1.5" ry="1.5" style="stroke:#000000;stroke-width:0.3;" width="70.2" x="426.3" y="357.0727"/><text fill="#000000" font-family="sans-serif" font-size="8.4" font-style="italic" lengthAdjust="spacing" textLength="58.2" x="432.3" y="367.9371">&#171;Value Object&#187;</text><text fill="#000000" font-family="sans-serif" font-size="8.4" lengthAdjust="spacing" textLength="21" x="450.9" y="379.1098">Mode</text></g><!--entity Address--><g id="elem_Address"><rect fill="#F0FFDD" height="25.9453" rx="1.5" ry="1.5" style="stroke:#000000;stroke-width:0.3;" width="70.2" x="426.3" y="310.2727"/><text fill="#000000" font-family="sans-serif" font-size="8.4" font-style="italic" lengthAdjust="spacing" textLength="58.2" x="432.3" y="321.1371">&#171;Value Object&#187;</text><text fill="#000000" font-family="sans-serif" font-size="8.4" lengthAdjust="spacing" textLength="31.2" x="445.8" y="332.3098">Address</text></g><!--entity VacanciesNumber--><g id="elem_VacanciesNumber"><rect fill="#F0FFDD" height="25.9453" rx="1.5" ry="1.5" style="stroke:#000000;stroke-width:0.3;" width="80.4" x="421.2" y="263.4727"/><text fill="#000000" font-family="sans-serif" font-size="8.4" font-style="italic" lengthAdjust="spacing" textLength="58.2" x="432.3" y="274.3371">&#171;Value Object&#187;</text><text fill="#000000" font-family="sans-serif" font-size="8.4" lengthAdjust="spacing" textLength="68.4" x="427.2" y="285.5098">VacanciesNumber</text></g><!--entity Description--><g id="elem_Description"><rect fill="#F0FFDD" height="25.9453" rx="1.5" ry="1.5" style="stroke:#000000;stroke-width:0.3;" width="70.2" x="426.3" y="216.6727"/><text fill="#000000" font-family="sans-serif" font-size="8.4" font-style="italic" lengthAdjust="spacing" textLength="58.2" x="432.3" y="227.5371">&#171;Value Object&#187;</text><text fill="#000000" font-family="sans-serif" font-size="8.4" lengthAdjust="spacing" textLength="42.6" x="440.1" y="238.7098">Description</text></g><!--class User--><g id="elem_User"><rect codeLine="87" fill="#F0FFFF" height="41.1258" id="User" rx="1.5" ry="1.5" style="stroke:#000000;stroke-width:0.3;" width="42.6" x="319.5" y="833.4727"/><ellipse cx="328.5" cy="851.6355" fill="#ADD1B2" rx="6.6" ry="6.6" style="stroke:#181818;stroke-width:0.6;"/><path d="M327.8156,852.1137 L327.8156,853.6137 L330.4125,853.6137 L330.4125,853.0605 Q330.4125,852.6949 330.5531,852.5355 Q330.7031,852.3762 330.9281,852.3762 Q331.1531,852.3762 331.2938,852.5355 Q331.4344,852.6949 331.4344,853.0605 L331.4344,854.6355 L326.6344,854.6355 Q326.2594,854.6355 326.1,854.4949 Q325.95,854.3543 325.95,854.1199 Q325.95,853.8949 326.1094,853.7543 Q326.2688,853.6137 326.6344,853.6137 L326.7938,853.6137 L326.7938,849.6199 L326.6344,849.6199 Q326.2594,849.6199 326.1,849.4793 Q325.95,849.3387 325.95,849.1043 Q325.95,848.8793 326.1,848.7387 Q326.2594,848.598 326.6344,848.598 L331.2094,848.598 L331.2094,850.1543 Q331.2094,850.5199 331.0687,850.6793 Q330.9375,850.8293 330.7031,850.8293 Q330.4781,850.8293 330.3375,850.6793 Q330.1969,850.5199 330.1969,850.1543 L330.1969,849.6199 L327.8156,849.6199 L327.8156,851.0918 L328.7063,851.0918 Q328.7063,850.698 328.7813,850.5855 Q328.9406,850.3418 329.2219,850.3418 Q329.4469,850.3418 329.5875,850.5012 Q329.7281,850.6512 329.7281,851.0168 L329.7281,852.198 Q329.7281,852.5262 329.6531,852.6387 Q329.4938,852.873 329.2219,852.873 Q328.9406,852.873 328.7813,852.6293 Q328.7063,852.5168 328.7063,852.1137 L327.8156,852.1137 Z " fill="#000000"/><text fill="#000000" font-family="sans-serif" font-size="7.2" font-style="italic" lengthAdjust="spacing" textLength="25.8" x="335.7" y="844.2422">&#171;entity&#187;</text><text fill="#000000" font-family="sans-serif" font-size="7.2" font-style="italic" lengthAdjust="spacing" textLength="21" x="338.1" y="853.8188">&#171;root&#187;</text><text fill="#000000" font-family="sans-serif" font-size="8.4" lengthAdjust="spacing" textLength="17.4" x="339.9" y="864.6902">User</text><line style="stroke:#000000;stroke-width:0.3;" x1="320.1" x2="361.5" y1="869.7984" y2="869.7984"/></g><!--entity UserEmail--><g id="elem_UserEmail"><rect fill="#F0FFDD" height="25.9453" rx="1.5" ry="1.5" style="stroke:#000000;stroke-width:0.3;" width="70.2" x="426.3" y="934.8727"/><text fill="#000000" font-family="sans-serif" font-size="8.4" font-style="italic" lengthAdjust="spacing" textLength="58.2" x="432.3" y="945.7371">&#171;Value Object&#187;</text><text fill="#000000" font-family="sans-serif" font-size="8.4" lengthAdjust="spacing" textLength="37.8" x="442.5" y="956.9098">UserEmail</text></g><!--entity UserName--><g id="elem_UserName"><rect fill="#F0FFDD" height="25.9453" rx="1.5" ry="1.5" style="stroke:#000000;stroke-width:0.3;" width="70.2" x="426.3" y="888.0727"/><text fill="#000000" font-family="sans-serif" font-size="8.4" font-style="italic" lengthAdjust="spacing" textLength="58.2" x="432.3" y="898.9371">&#171;Value Object&#187;</text><text fill="#000000" font-family="sans-serif" font-size="8.4" lengthAdjust="spacing" textLength="39" x="441.9" y="910.1098">UserName</text></g><!--entity UserPassword--><g id="elem_UserPassword"><rect fill="#F0FFDD" height="25.9453" rx="1.5" ry="1.5" style="stroke:#000000;stroke-width:0.3;" width="70.2" x="426.3" y="841.2727"/><text fill="#000000" font-family="sans-serif" font-size="8.4" font-style="italic" lengthAdjust="spacing" textLength="58.2" x="432.3" y="852.1371">&#171;Value Object&#187;</text><text fill="#000000" font-family="sans-serif" font-size="8.4" lengthAdjust="spacing" textLength="54" x="434.4" y="863.3098">UserPassword</text></g><!--entity Username--><g id="elem_Username"><rect fill="#F0FFDD" height="25.9453" rx="1.5" ry="1.5" style="stroke:#000000;stroke-width:0.3;" width="70.2" x="426.3" y="794.4727"/><text fill="#000000" font-family="sans-serif" font-size="8.4" font-style="italic" lengthAdjust="spacing" textLength="58.2" x="432.3" y="805.3371">&#171;Value Object&#187;</text><text fill="#000000" font-family="sans-serif" font-size="8.4" lengthAdjust="spacing" textLength="38.4" x="442.2" y="816.5098">Username</text></g><!--class Process--><g id="elem_Process"><rect codeLine="106" fill="#F0FFFF" height="41.1258" id="Process" rx="1.5" ry="1.5" style="stroke:#000000;stroke-width:0.3;" width="49.8" x="436.5" y="593.4727"/><ellipse cx="445.5" cy="611.6355" fill="#ADD1B2" rx="6.6" ry="6.6" style="stroke:#181818;stroke-width:0.6;"/><path d="M444.8156,612.1137 L444.8156,613.6137 L447.4125,613.6137 L447.4125,613.0605 Q447.4125,612.6949 447.5531,612.5355 Q447.7031,612.3762 447.9281,612.3762 Q448.1531,612.3762 448.2938,612.5355 Q448.4344,612.6949 448.4344,613.0605 L448.4344,614.6355 L443.6344,614.6355 Q443.2594,614.6355 443.1,614.4949 Q442.95,614.3543 442.95,614.1199 Q442.95,613.8949 443.1094,613.7543 Q443.2688,613.6137 443.6344,613.6137 L443.7938,613.6137 L443.7938,609.6199 L443.6344,609.6199 Q443.2594,609.6199 443.1,609.4793 Q442.95,609.3387 442.95,609.1043 Q442.95,608.8793 443.1,608.7387 Q443.2594,608.598 443.6344,608.598 L448.2094,608.598 L448.2094,610.1543 Q448.2094,610.5199 448.0687,610.6793 Q447.9375,610.8293 447.7031,610.8293 Q447.4781,610.8293 447.3375,610.6793 Q447.1969,610.5199 447.1969,610.1543 L447.1969,609.6199 L444.8156,609.6199 L444.8156,611.0918 L445.7063,611.0918 Q445.7063,610.698 445.7813,610.5855 Q445.9406,610.3418 446.2219,610.3418 Q446.4469,610.3418 446.5875,610.5012 Q446.7281,610.6512 446.7281,611.0168 L446.7281,612.198 Q446.7281,612.5262 446.6531,612.6387 Q446.4938,612.873 446.2219,612.873 Q445.9406,612.873 445.7813,612.6293 Q445.7063,612.5168 445.7063,612.1137 L444.8156,612.1137 Z " fill="#000000"/><text fill="#000000" font-family="sans-serif" font-size="7.2" font-style="italic" lengthAdjust="spacing" textLength="25.8" x="456.3" y="604.2422">&#171;entity&#187;</text><text fill="#000000" font-family="sans-serif" font-size="7.2" font-style="italic" lengthAdjust="spacing" textLength="21" x="458.7" y="613.8188">&#171;root&#187;</text><text fill="#000000" font-family="sans-serif" font-size="8.4" lengthAdjust="spacing" textLength="30.6" x="453.9" y="624.6902">Process</text><line style="stroke:#000000;stroke-width:0.3;" x1="437.1" x2="485.7" y1="629.7984" y2="629.7984"/></g><g id="elem_GMN50"><path d="M684,569.7727 L684,611.7727 L627.438,614.1727 L684,616.5727 L684,658.7695 A0,0 0 0 0 684,658.7695 L792,658.7695 A0,0 0 0 0 792,658.7695 L792,575.7727 L786,569.7727 L684,569.7727 A0,0 0 0 0 684,569.7727 " fill="#FEFFDD" style="stroke:#181818;stroke-width:0.3;"/><path d="M786,569.7727 L786,575.7727 L792,575.7727 L786,569.7727 " fill="#FEFFDD" style="stroke:#181818;stroke-width:0.3;"/><text fill="#000000" font-family="sans-serif" font-size="7.8" lengthAdjust="spacing" textLength="95.4" x="687.6" y="581.1896">Can be one of the following:</text><text fill="#000000" font-family="sans-serif" font-size="7.8" lengthAdjust="spacing" textLength="72.6" x="687.6" y="591.5643">- ScreeningStartDate</text><text fill="#000000" font-family="sans-serif" font-size="7.8" lengthAdjust="spacing" textLength="69.6" x="687.6" y="601.9389">- ScreeningEndDate</text><text fill="#000000" font-family="sans-serif" font-size="7.8" lengthAdjust="spacing" textLength="71.4" x="687.6" y="612.3135">- InterviewsStartDate</text><text fill="#000000" font-family="sans-serif" font-size="7.8" lengthAdjust="spacing" textLength="68.4" x="687.6" y="622.6881">- InterviewsEndDate</text><text fill="#000000" font-family="sans-serif" font-size="7.8" lengthAdjust="spacing" textLength="67.8" x="687.6" y="633.0627">- AnalysisStartDate</text><text fill="#000000" font-family="sans-serif" font-size="7.8" lengthAdjust="spacing" textLength="64.8" x="687.6" y="643.4373">- AnalysisEndDate</text><text fill="#000000" font-family="sans-serif" font-size="7.8" lengthAdjust="spacing" textLength="43.2" x="687.6" y="653.8119">- ResultDate</text></g><g id="elem_GMN53"><path d="M684,679.5727 L684,696.7027 L627.438,683.6587 L684,701.5027 L684,747.8203 A0,0 0 0 0 684,747.8203 L792,747.8203 A0,0 0 0 0 792,747.8203 L792,685.5727 L786,679.5727 L684,679.5727 A0,0 0 0 0 684,679.5727 " fill="#FEFFDD" style="stroke:#181818;stroke-width:0.3;"/><path d="M786,679.5727 L786,685.5727 L792,685.5727 L786,679.5727 " fill="#FEFFDD" style="stroke:#181818;stroke-width:0.3;"/><text fill="#000000" font-family="sans-serif" font-size="7.8" lengthAdjust="spacing" textLength="95.4" x="687.6" y="690.9896">Can be one of the following:</text><text fill="#000000" font-family="sans-serif" font-size="7.8" lengthAdjust="spacing" textLength="43.2" x="687.6" y="701.3643">- Application</text><text fill="#000000" font-family="sans-serif" font-size="7.8" lengthAdjust="spacing" textLength="39.6" x="687.6" y="711.7389">- Screening</text><text fill="#000000" font-family="sans-serif" font-size="7.8" lengthAdjust="spacing" textLength="38.4" x="687.6" y="722.1135">- Interviews</text><text fill="#000000" font-family="sans-serif" font-size="7.8" lengthAdjust="spacing" textLength="34.8" x="687.6" y="732.4881">- Analysis</text><text fill="#000000" font-family="sans-serif" font-size="7.8" lengthAdjust="spacing" textLength="27" x="687.6" y="742.8627">- Result</text></g><!--entity ProcessState--><g id="elem_ProcessState"><rect fill="#F0FFDD" height="25.9453" rx="1.5" ry="1.5" style="stroke:#000000;stroke-width:0.3;" width="70.2" x="557.1" y="661.2727"/><text fill="#000000" font-family="sans-serif" font-size="8.4" font-style="italic" lengthAdjust="spacing" textLength="58.2" x="563.1" y="672.1371">&#171;Value Object&#187;</text><text fill="#000000" font-family="sans-serif" font-size="8.4" lengthAdjust="spacing" textLength="50.4" x="567" y="683.3098">ProcessState</text></g><!--entity ProcessDate--><g id="elem_ProcessDate"><rect fill="#F0FFDD" height="25.9453" rx="1.5" ry="1.5" style="stroke:#000000;stroke-width:0.3;" width="70.2" x="557.1" y="601.2727"/><text fill="#000000" font-family="sans-serif" font-size="8.4" font-style="italic" lengthAdjust="spacing" textLength="58.2" x="563.1" y="612.1371">&#171;Value Object&#187;</text><text fill="#000000" font-family="sans-serif" font-size="8.4" lengthAdjust="spacing" textLength="48.6" x="567.9" y="623.3098">ProcessDate</text></g><!--class CustomerManager--><g id="elem_CustomerManager"><rect codeLine="139" fill="#F0FFFF" height="41.1258" id="CustomerManager" rx="1.5" ry="1.5" style="stroke:#000000;stroke-width:0.3;" width="89.4" x="35.7" y="550.2727"/><ellipse cx="44.7" cy="568.4355" fill="#ADD1B2" rx="6.6" ry="6.6" style="stroke:#181818;stroke-width:0.6;"/><path d="M44.0156,568.9137 L44.0156,570.4137 L46.6125,570.4137 L46.6125,569.8605 Q46.6125,569.4949 46.7531,569.3355 Q46.9031,569.1762 47.1281,569.1762 Q47.3531,569.1762 47.4938,569.3355 Q47.6344,569.4949 47.6344,569.8605 L47.6344,571.4355 L42.8344,571.4355 Q42.4594,571.4355 42.3,571.2949 Q42.15,571.1543 42.15,570.9199 Q42.15,570.6949 42.3094,570.5543 Q42.4688,570.4137 42.8344,570.4137 L42.9938,570.4137 L42.9938,566.4199 L42.8344,566.4199 Q42.4594,566.4199 42.3,566.2793 Q42.15,566.1387 42.15,565.9043 Q42.15,565.6793 42.3,565.5387 Q42.4594,565.398 42.8344,565.398 L47.4094,565.398 L47.4094,566.9543 Q47.4094,567.3199 47.2688,567.4793 Q47.1375,567.6293 46.9031,567.6293 Q46.6781,567.6293 46.5375,567.4793 Q46.3969,567.3199 46.3969,566.9543 L46.3969,566.4199 L44.0156,566.4199 L44.0156,567.8918 L44.9063,567.8918 Q44.9063,567.498 44.9812,567.3855 Q45.1406,567.1418 45.4219,567.1418 Q45.6469,567.1418 45.7875,567.3012 Q45.9281,567.4512 45.9281,567.8168 L45.9281,568.998 Q45.9281,569.3262 45.8531,569.4387 Q45.6938,569.673 45.4219,569.673 Q45.1406,569.673 44.9812,569.4293 Q44.9063,569.3168 44.9063,568.9137 L44.0156,568.9137 Z " fill="#000000"/><text fill="#000000" font-family="sans-serif" font-size="7.2" font-style="italic" lengthAdjust="spacing" textLength="25.8" x="75.3" y="561.0422">&#171;entity&#187;</text><text fill="#000000" font-family="sans-serif" font-size="7.2" font-style="italic" lengthAdjust="spacing" textLength="21" x="77.7" y="570.6188">&#171;root&#187;</text><text fill="#000000" font-family="sans-serif" font-size="8.4" lengthAdjust="spacing" textLength="70.2" x="53.1" y="581.4902">CustomerManager</text><line style="stroke:#000000;stroke-width:0.3;" x1="36.3" x2="124.5" y1="586.5984" y2="586.5984"/></g><!--link Requirements to YearsOfExperience--><g id="link_Requirements_YearsOfExperience"><path codeLine="37" d="M261.648,130.0987 C274.584,134.5267 285.8597,138.3837 298.9997,142.8777 " fill="none" id="Requirements-to-YearsOfExperience" style="stroke:#808080;stroke-width:0.6;"/><polygon fill="#808080" points="302.406,144.0427,298.0732,140.0243,299.5674,143.0718,296.5199,144.566,302.406,144.0427" style="stroke:#808080;stroke-width:0.6;"/></g><!--link Requirements to AcademicDegree--><g id="link_Requirements_AcademicDegree"><path codeLine="38" d="M261.648,115.5487 C274.524,114.6667 285.5245,113.9176 298.6165,113.0176 " fill="none" id="Requirements-to-AcademicDegree" style="stroke:#808080;stroke-width:0.6;"/><polygon fill="#808080" points="302.208,112.7707,296.6561,110.7467,299.2151,112.9764,296.9853,115.5354,302.208,112.7707" style="stroke:#808080;stroke-width:0.6;"/></g><!--link Requirements to Skills--><g id="link_Requirements_Skills"><path codeLine="39" d="M259.482,102.0307 C276.57,93.8467 293.8669,85.5612 309.9589,77.8572 " fill="none" id="Requirements-to-Skills" style="stroke:#808080;stroke-width:0.6;"/><polygon fill="#808080" points="313.206,76.3027,307.299,76.4697,310.5001,77.5981,309.3717,80.7992,313.206,76.3027" style="stroke:#808080;stroke-width:0.6;"/></g><!--link JobRequirementsSpecification to Requirements--><g id="link_JobRequirementsSpecification_Requirements"><path codeLine="41" d="M147.102,124.4647 C161.736,123.2467 173.1185,122.2985 185.9705,121.2245 " fill="none" id="JobRequirementsSpecification-to-Requirements" style="stroke:#808080;stroke-width:0.6;"/><polygon fill="#808080" points="189.558,120.9247,183.9769,118.9827,186.5684,121.1745,184.3766,123.766,189.558,120.9247" style="stroke:#808080;stroke-width:0.6;"/></g><!--link JobOpening to JobReference--><g id="link_JobOpening_JobReference"><path codeLine="63" d="M355.896,414.0907 C370.722,434.3047 395.214,465.1207 421.2,486.9727 C425.664,490.7227 427.7318,492.3556 432.7958,495.4636 " fill="none" id="JobOpening-to-JobReference" style="stroke:#808080;stroke-width:0.6;"/><polygon fill="#808080" points="435.864,497.3467,432.5171,492.4765,433.3072,495.7774,430.0063,496.5675,435.864,497.3467" style="stroke:#808080;stroke-width:0.6;"/></g><!--link JobOpening to TitleOrFunction--><g id="link_JobOpening_TitleOrFunction"><path codeLine="64" d="M373.242,412.0927 C393.966,424.2787 417.3584,438.0365 435.7544,448.8485 " fill="none" id="JobOpening-to-TitleOrFunction" style="stroke:#808080;stroke-width:0.6;"/><polygon fill="#808080" points="438.858,450.6727,435.4186,445.8674,436.2716,449.1526,432.9865,450.0056,438.858,450.6727" style="stroke:#808080;stroke-width:0.6;"/></g><!--link JobOpening to ContractType--><g id="link_JobOpening_ContractType"><path codeLine="65" d="M373.242,399.6127 C389.544,402.8107 405.8892,406.0126 422.5812,409.2826 " fill="none" id="JobOpening-to-ContractType" style="stroke:#808080;stroke-width:0.6;"/><polygon fill="#808080" points="426.114,409.9747,421.2761,406.5813,423.17,409.3979,420.3533,411.2917,426.114,409.9747" style="stroke:#808080;stroke-width:0.6;"/></g><!--link JobOpening to Mode--><g id="link_JobOpening_Mode"><path codeLine="66" d="M373.242,387.1327 C389.544,383.9347 405.8892,380.7327 422.5812,377.4627 " fill="none" id="JobOpening-to-Mode" style="stroke:#808080;stroke-width:0.6;"/><polygon fill="#808080" points="426.114,376.7707,420.3533,375.4536,423.17,377.3474,421.2761,380.164,426.114,376.7707" style="stroke:#808080;stroke-width:0.6;"/></g><!--link JobOpening to Address--><g id="link_JobOpening_Address"><path codeLine="67" d="M373.242,374.6527 C393.966,362.4667 417.3584,348.7088 435.7544,337.8968 " fill="none" id="JobOpening-to-Address" style="stroke:#808080;stroke-width:0.6;"/><polygon fill="#808080" points="438.858,336.0727,432.9865,336.7397,436.2716,337.5928,435.4186,340.8779,438.858,336.0727" style="stroke:#808080;stroke-width:0.6;"/></g><!--link JobOpening to VacanciesNumber--><g id="link_JobOpening_VacanciesNumber"><path codeLine="68" d="M355.896,372.6547 C370.722,352.4407 395.214,321.6247 421.2,299.7727 C425.664,296.0227 427.7318,294.3898 432.7958,291.2818 " fill="none" id="JobOpening-to-VacanciesNumber" style="stroke:#808080;stroke-width:0.6;"/><polygon fill="#808080" points="435.864,289.3987,430.0063,290.1778,433.3072,290.9679,432.5171,294.2688,435.864,289.3987" style="stroke:#808080;stroke-width:0.6;"/></g><!--link JobOpening to Description--><g id="link_JobOpening_Description"><path codeLine="69" d="M349.164,372.6187 C361.02,343.1407 386.016,288.7567 421.2,252.9727 C425.064,249.0427 426.6857,247.4699 431.4317,244.4399 " fill="none" id="JobOpening-to-Description" style="stroke:#808080;stroke-width:0.6;"/><polygon fill="#808080" points="434.466,242.5027,428.623,243.3856,431.9374,244.117,431.206,247.4314,434.466,242.5027" style="stroke:#808080;stroke-width:0.6;"/></g><!--link User to UserEmail--><g id="link_User_UserEmail"><path codeLine="98" d="M362.16,874.3867 C377.76,889.0687 399.99,908.9887 421.2,924.3727 C426.24,928.0327 428.7963,929.785 434.2143,933.025 " fill="none" id="User-to-UserEmail" style="stroke:#808080;stroke-width:0.6;"/><polygon fill="#808080" points="437.304,934.8727,433.9012,930.0414,434.7293,933.3329,431.4377,934.161,437.304,934.8727" style="stroke:#808080;stroke-width:0.6;"/></g><!--link User to UserName--><g id="link_User_UserName"><path codeLine="99" d="M362.196,862.3267 C380.304,869.4247 403.5141,878.5213 424.5081,886.7473 " fill="none" id="User-to-UserName" style="stroke:#808080;stroke-width:0.6;"/><polygon fill="#808080" points="427.86,888.0607,423.7077,883.856,425.0668,886.9662,421.9566,888.3252,427.86,888.0607" style="stroke:#808080;stroke-width:0.6;"/></g><!--link User to Username--><g id="link_User_Username"><path codeLine="100" d="M362.196,846.0187 C380.304,838.9207 403.5141,829.824 424.5081,821.598 " fill="none" id="User-to-Username" style="stroke:#808080;stroke-width:0.6;"/><polygon fill="#808080" points="427.86,820.2847,421.9566,820.0201,425.0668,821.3791,423.7077,824.4893,427.86,820.2847" style="stroke:#808080;stroke-width:0.6;"/></g><!--link User to UserPassword--><g id="link_User_UserPassword"><path codeLine="101" d="M362.196,854.1727 C379.836,854.1727 401.898,854.1727 422.622,854.1727 " fill="none" id="User-to-UserPassword" style="stroke:#808080;stroke-width:0.6;"/><polygon fill="#808080" points="426.222,854.1727,420.822,851.7727,423.222,854.1727,420.822,856.5727,426.222,854.1727" style="stroke:#808080;stroke-width:0.6;"/></g><!--link Process to ProcessState--><g id="link_Process_ProcessState"><path codeLine="113" d="M486.378,625.4587 C508.374,635.6407 537.4533,649.1038 560.4633,659.7598 " fill="none" id="Process-to-ProcessState" style="stroke:#808080;stroke-width:0.6;"/><polygon fill="#808080" points="563.73,661.2727,559.8385,656.8256,561.0077,660.012,557.8214,661.1812,563.73,661.2727" style="stroke:#808080;stroke-width:0.6;"/></g><!--link Process to ProcessDate--><g id="link_Process_ProcessDate"><path codeLine="114" d="M486.378,614.1727 C506.322,614.1727 531.174,614.1727 553.464,614.1727 " fill="none" id="Process-to-ProcessDate" style="stroke:#808080;stroke-width:0.6;"/><polygon fill="#808080" points="557.064,614.1727,551.664,611.7727,554.064,614.1727,551.664,616.5727,557.064,614.1727" style="stroke:#808080;stroke-width:0.6;"/></g><!--link CustomerManager to User--><g id="link_CustomerManager_User"><path codeLine="143" d="M100.062,591.7987 C147.996,644.1667 270.7194,778.2571 318.6834,830.6611 " fill="none" id="CustomerManager-to-User" style="stroke:#808080;stroke-width:0.6;"/><polygon fill="#808080" points="321.114,833.3167,319.2385,827.7129,319.0885,831.1037,315.6977,830.9537,321.114,833.3167" style="stroke:#808080;stroke-width:0.6;"/></g><!--reverse link JobRequirementsSpecification to JobOpening--><g id="link_JobRequirementsSpecification_JobOpening"><path codeLine="145" d="M104.0809,153.4248 C152.6329,202.7688 271.446,323.5027 319.824,372.6667 " fill="none" id="JobRequirementsSpecification-backto-JobOpening" style="stroke:#808080;stroke-width:0.6;"/><polygon fill="#808080" points="101.556,150.8587,103.6326,156.3911,103.6601,152.9971,107.0541,153.0245,101.556,150.8587" style="stroke:#808080;stroke-width:0.6;"/><text fill="#000000" font-family="sans-serif" font-size="7.8" lengthAdjust="spacing" textLength="37.8" x="206.7" y="238.5896">associated</text><text fill="#000000" font-family="sans-serif" font-size="7.8" lengthAdjust="spacing" textLength="4.2" x="100.5121" y="163.6167">1</text><text fill="#000000" font-family="sans-serif" font-size="7.8" lengthAdjust="spacing" textLength="5.4" x="309.7628" y="365.8473">N</text></g><!--link JobOpening to Process--><g id="link_JobOpening_Process"><path codeLine="147" d="M352.632,414.1447 C375.42,456.2827 425.1214,548.1981 447.8854,590.2881 " fill="none" id="JobOpening-to-Process" style="stroke:#808080;stroke-width:0.6;"/><polygon fill="#808080" points="449.598,593.4547,449.1401,587.5631,448.1708,590.8159,444.9181,589.8466,449.598,593.4547" style="stroke:#808080;stroke-width:0.6;"/></g><!--link CustomerManager to JobOpening--><g id="link_CustomerManager_JobOpening"><path codeLine="149" d="M111.24,550.2547 C161.118,516.0787 257.1003,450.3136 306.9843,416.1316 " fill="none" id="CustomerManager-to-JobOpening" style="stroke:#808080;stroke-width:0.6;"/><polygon fill="#808080" points="309.954,414.0967,304.1428,415.1692,307.4793,415.7924,306.8561,419.1288,309.954,414.0967" style="stroke:#808080;stroke-width:0.6;"/><text fill="#000000" font-family="sans-serif" font-size="7.8" lengthAdjust="spacing" textLength="31.8" x="209.7" y="445.5896">manages</text><text fill="#000000" font-family="sans-serif" font-size="7.8" lengthAdjust="spacing" textLength="4.2" x="112.5186" y="543.5929">1</text><text fill="#000000" font-family="sans-serif" font-size="7.8" lengthAdjust="spacing" textLength="5.4" x="298.7883" y="426.9907">N</text></g><!--SRC=[fLPDRzim3BtxLmZUOQS0sxK80hX9MtHeaw3f1koesBIZHPOyILuN5Ftle_oHoB7YkfWlBSX7yl69bB9Z2P0Sp4ucEk2G6c8aKIpR6P8m1R5XKWIVzPw9WYgQ4yu4c4C1H2gC2O9dPZYGS25poWHvb0bmCY4Ru1XAdk1tYKbo44QJJG4nIrbCRSem24uvOqwr9gy1mU-1fV20DQwbIa3D9PUABAZQN_CIkW0QxpCbIv7Ke6YzVhYVHy_tgsM5E_T_klroYr_bYvIIBxKvKt2eyKx1BSVWuCtbMA25Ph0n1spNwa95ng7J1LN9G1Dt2a3yVmUBnNa7LfqxNnVNRHSDTn9-azk1Co5HXcfar43u6g2RcGF123UWYvzEQzHiDfqgASri5bGacjXEfHEsnjYlKkmdKALNwStV0XG34GD2Vr0yxTNs5yeycxqUyM_To2Yc2UGiNW3I7X-ssJFEzH3y-6-dWybarYTx6TfbTnbNqwbh3gfjmQutw1tjgW31H7RX75llfLEhnAaOfA3SWo2jHirqlvtWrVQlr6qfucOYtekOIs4KZSsplKFUXziBPGGiIX85Mez0_g0n5J43lIppBQWH4GlGiMB5S7_jyRKYsyDojVJvpyJpGLorV7uhZy_UwE5pdGdWWpWTruq9QQ1v56JQ9sM_EHLaYw-200inEo2fv5o-OCwh8sX2qfBpYM4vE3QyFit91YAfwlag7ziTNnBpuxxOV8vbTzWgbhWMAJGpvmJS_VgkSLWyYrNP1rVA8cxmTUGZPirYbpI7aT0rlfilUEEFX0lCF3p1LJTs18wa-sRBhsyLNcjBiAlbMidORgj7pjOrg6W3sXWC7T5w0ryCegi_RNLBtorooMbJ-kRKTNzmGJQn_Ps0HYoiJ2U3uxmHoPdhNXXGVnYyQ5_WoTkFZ0Jb1ysySQsl7_K4kkGd-D3MzfJyW1nHKV3c0VJfu6tHmxz7V63JvwKsCiSXVgG23TwjRp4jn3UkcFCSDcdt8WW6d_hmQqYc22RXCdGlvok2-oHZXboIAaNhS8UoNzQcgqhtqkKL0aF-0G00]--></g></svg>