<?xml version="1.0" encoding="us-ascii" standalone="no"?><svg xmlns="http://www.w3.org/2000/svg" xmlns:xlink="http://www.w3.org/1999/xlink" contentStyleType="text/css" height="848px" preserveAspectRatio="none" style="width:1999px;height:848px;background:#FFFFFF;" version="1.1" viewBox="0 0 1999 848" width="1999.2px" zoomAndPan="magnify"><defs/><g><text fill="#000000" font-family="sans-serif" font-size="11.2" font-weight="bold" lengthAdjust="spacing" textLength="247.2" x="875.4" y="24.0859">SD - Select the Requirements Specifications</text><rect fill="#FFFFFF" height="644.4531" style="stroke:#181818;stroke-width:0.8000000000000002;" width="8" x="49.2" y="110.2906"/><rect fill="#FFFFFF" height="175.2297" style="stroke:#181818;stroke-width:0.8000000000000002;" width="8" x="492.4" y="128.9234"/><rect fill="#FFFFFF" height="75.0984" style="stroke:#181818;stroke-width:0.8000000000000002;" width="8" x="492.4" y="329.1859"/><rect fill="#FFFFFF" height="325.4266" style="stroke:#181818;stroke-width:0.8000000000000002;" width="8" x="492.4" y="429.3172"/><rect fill="#FFFFFF" height="25.0328" style="stroke:#181818;stroke-width:0.8000000000000002;" width="8" x="832.4" y="354.2188"/><rect fill="#FFFFFF" height="175.2297" style="stroke:#181818;stroke-width:0.8000000000000002;" width="8" x="832.4" y="454.35"/><rect fill="#FFFFFF" height="75.0984" style="stroke:#181818;stroke-width:0.8000000000000002;" width="8" x="832.4" y="654.6125"/><rect fill="#FFFFFF" height="125.1641" style="stroke:#181818;stroke-width:0.8000000000000002;" width="8" x="1025.2" y="153.9563"/><rect fill="#FFFFFF" height="75.0984" style="stroke:#181818;stroke-width:0.8000000000000002;" width="8" x="1157.6" y="178.9891"/><rect fill="#FFFFFF" height="125.1641" style="stroke:#181818;stroke-width:0.8000000000000002;" width="8" x="1288.8" y="479.3828"/><rect fill="#FFFFFF" height="25.0328" style="stroke:#181818;stroke-width:0.8000000000000002;" width="8" x="1425.2" y="204.0219"/><rect fill="#FFFFFF" height="25.0328" style="stroke:#181818;stroke-width:0.8000000000000002;" width="8" x="1598.8" y="554.4813"/><rect fill="#FFFFFF" height="25.0328" style="stroke:#181818;stroke-width:0.8000000000000002;" width="8" x="1811.6" y="504.4156"/><rect fill="#FFFFFF" height="25.0328" style="stroke:#181818;stroke-width:0.8000000000000002;" width="8" x="1954.8" y="679.6453"/><line style="stroke:#181818;stroke-width:0.4000000000000001;stroke-dasharray:5.0,5.0;" x1="52.8" x2="52.8" y1="102.2906" y2="769.1438"/><line style="stroke:#181818;stroke-width:0.4000000000000001;stroke-dasharray:5.0,5.0;" x1="496" x2="496" y1="102.2906" y2="769.1438"/><line style="stroke:#181818;stroke-width:0.4000000000000001;stroke-dasharray:5.0,5.0;" x1="836.4" x2="836.4" y1="102.2906" y2="769.1438"/><line style="stroke:#181818;stroke-width:0.4000000000000001;stroke-dasharray:5.0,5.0;" x1="1029.2" x2="1029.2" y1="102.2906" y2="769.1438"/><line style="stroke:#181818;stroke-width:0.4000000000000001;stroke-dasharray:5.0,5.0;" x1="1161.2" x2="1161.2" y1="102.2906" y2="769.1438"/><line style="stroke:#181818;stroke-width:0.4000000000000001;stroke-dasharray:5.0,5.0;" x1="1292.4" x2="1292.4" y1="102.2906" y2="769.1438"/><line style="stroke:#181818;stroke-width:0.4000000000000001;stroke-dasharray:5.0,5.0;" x1="1429.2" x2="1429.2" y1="102.2906" y2="769.1438"/><line style="stroke:#181818;stroke-width:0.4000000000000001;stroke-dasharray:5.0,5.0;" x1="1602.8" x2="1602.8" y1="102.2906" y2="769.1438"/><line style="stroke:#181818;stroke-width:0.4000000000000001;stroke-dasharray:5.0,5.0;" x1="1815.6" x2="1815.6" y1="102.2906" y2="769.1438"/><line style="stroke:#181818;stroke-width:0.4000000000000001;stroke-dasharray:5.0,5.0;" x1="1958.8" x2="1958.8" y1="102.2906" y2="769.1438"/><text fill="#000000" font-family="sans-serif" font-size="11.2" lengthAdjust="spacing" textLength="93.6" x="4" y="99.4797">CustomerManager</text><ellipse cx="53.2" cy="46.1938" fill="#E3E3E3" rx="6.4" ry="6.4" style="stroke:#181818;stroke-width:0.4000000000000001;"/><path d="M53.2,52.5938 L53.2,74.1938 M42.8,58.9938 L63.6,58.9938 M53.2,74.1938 L42.8,86.1938 M53.2,74.1938 L63.6,86.1938 " fill="none" style="stroke:#181818;stroke-width:0.4000000000000001;"/><text fill="#000000" font-family="sans-serif" font-size="11.2" lengthAdjust="spacing" textLength="93.6" x="4" y="780.4297">CustomerManager</text><ellipse cx="53.2" cy="790.0406" fill="#E3E3E3" rx="6.4" ry="6.4" style="stroke:#181818;stroke-width:0.4000000000000001;"/><path d="M53.2,796.4406 L53.2,818.0406 M42.8,802.8406 L63.6,802.8406 M53.2,818.0406 L42.8,830.0406 M53.2,818.0406 L63.6,830.0406 " fill="none" style="stroke:#181818;stroke-width:0.4000000000000001;"/><rect fill="#E3E3E3" height="40.9938" rx="2" ry="2" style="stroke:#181818;stroke-width:0.4000000000000001;" width="186.4" x="403.2" y="60.4969"/><text fill="#000000" font-family="sans-serif" font-size="11.2" font-style="italic" lengthAdjust="spacing" textLength="76" x="458.4" y="78.1828">&#171;presentation&#187;</text><text fill="#000000" font-family="sans-serif" font-size="11.2" lengthAdjust="spacing" textLength="175.2" x="408.8" y="93.0797">SelectRequirementsSpecificationUI</text><rect fill="#E3E3E3" height="40.9938" rx="2" ry="2" style="stroke:#181818;stroke-width:0.4000000000000001;" width="186.4" x="403.2" y="768.3438"/><text fill="#000000" font-family="sans-serif" font-size="11.2" font-style="italic" lengthAdjust="spacing" textLength="76" x="458.4" y="786.0297">&#171;presentation&#187;</text><text fill="#000000" font-family="sans-serif" font-size="11.2" lengthAdjust="spacing" textLength="175.2" x="408.8" y="800.9266">SelectRequirementsSpecificationUI</text><rect fill="#E3E3E3" height="40.9938" rx="2" ry="2" style="stroke:#181818;stroke-width:0.4000000000000001;" width="230.4" x="721.2" y="60.4969"/><text fill="#000000" font-family="sans-serif" font-size="11.2" font-style="italic" lengthAdjust="spacing" textLength="67.2" x="802.8" y="78.1828">&#171;application&#187;</text><text fill="#000000" font-family="sans-serif" font-size="11.2" lengthAdjust="spacing" textLength="219.2" x="726.8" y="93.0797">ListJobRequirementsSpecificationController</text><rect fill="#E3E3E3" height="40.9938" rx="2" ry="2" style="stroke:#181818;stroke-width:0.4000000000000001;" width="230.4" x="721.2" y="768.3438"/><text fill="#000000" font-family="sans-serif" font-size="11.2" font-style="italic" lengthAdjust="spacing" textLength="67.2" x="802.8" y="786.0297">&#171;application&#187;</text><text fill="#000000" font-family="sans-serif" font-size="11.2" lengthAdjust="spacing" textLength="219.2" x="726.8" y="800.9266">ListJobRequirementsSpecificationController</text><rect fill="#E3E3E3" height="40.9938" rx="2" ry="2" style="stroke:#181818;stroke-width:0.4000000000000001;" width="139.2" x="959.6" y="60.4969"/><text fill="#000000" font-family="sans-serif" font-size="11.2" font-style="italic" lengthAdjust="spacing" textLength="67.2" x="995.6" y="78.1828">&#171;application&#187;</text><text fill="#000000" font-family="sans-serif" font-size="11.2" lengthAdjust="spacing" textLength="128" x="965.2" y="93.0797">ListJobOpeningController</text><rect fill="#E3E3E3" height="40.9938" rx="2" ry="2" style="stroke:#181818;stroke-width:0.4000000000000001;" width="139.2" x="959.6" y="768.3438"/><text fill="#000000" font-family="sans-serif" font-size="11.2" font-style="italic" lengthAdjust="spacing" textLength="67.2" x="995.6" y="786.0297">&#171;application&#187;</text><text fill="#000000" font-family="sans-serif" font-size="11.2" lengthAdjust="spacing" textLength="128" x="965.2" y="800.9266">ListJobOpeningController</text><rect fill="#E3E3E3" height="40.9938" rx="2" ry="2" style="stroke:#181818;stroke-width:0.4000000000000001;" width="109.6" x="1106.8" y="60.4969"/><text fill="#000000" font-family="sans-serif" font-size="11.2" font-style="italic" lengthAdjust="spacing" textLength="48" x="1137.6" y="78.1828">&#171;service&#187;</text><text fill="#000000" font-family="sans-serif" font-size="11.2" lengthAdjust="spacing" textLength="98.4" x="1112.4" y="93.0797">JobOpeningService</text><rect fill="#E3E3E3" height="40.9938" rx="2" ry="2" style="stroke:#181818;stroke-width:0.4000000000000001;" width="109.6" x="1106.8" y="768.3438"/><text fill="#000000" font-family="sans-serif" font-size="11.2" font-style="italic" lengthAdjust="spacing" textLength="48" x="1137.6" y="786.0297">&#171;service&#187;</text><text fill="#000000" font-family="sans-serif" font-size="11.2" lengthAdjust="spacing" textLength="98.4" x="1112.4" y="800.9266">JobOpeningService</text><rect fill="#E3E3E3" height="40.9938" rx="2" ry="2" style="stroke:#181818;stroke-width:0.4000000000000001;" width="136.8" x="1224.4" y="60.4969"/><text fill="#000000" font-family="sans-serif" font-size="11.2" font-style="italic" lengthAdjust="spacing" textLength="48" x="1268.8" y="78.1828">&#171;service&#187;</text><text fill="#000000" font-family="sans-serif" font-size="11.2" lengthAdjust="spacing" textLength="125.6" x="1230" y="93.0797">JobRequirementsService</text><rect fill="#E3E3E3" height="40.9938" rx="2" ry="2" style="stroke:#181818;stroke-width:0.4000000000000001;" width="136.8" x="1224.4" y="768.3438"/><text fill="#000000" font-family="sans-serif" font-size="11.2" font-style="italic" lengthAdjust="spacing" textLength="48" x="1268.8" y="786.0297">&#171;service&#187;</text><text fill="#000000" font-family="sans-serif" font-size="11.2" lengthAdjust="spacing" textLength="125.6" x="1230" y="800.9266">JobRequirementsService</text><text fill="#000000" font-family="sans-serif" font-size="11.2" font-style="italic" lengthAdjust="spacing" textLength="63.2" x="1395.2" y="84.5828">&#171;repository&#187;</text><text fill="#000000" font-family="sans-serif" font-size="11.2" lengthAdjust="spacing" textLength="115.2" x="1369.2" y="99.4797">JobOpeningRepository</text><path d="M1414.8,43.6969 C1414.8,35.6969 1429.2,35.6969 1429.2,35.6969 C1429.2,35.6969 1443.6,35.6969 1443.6,43.6969 L1443.6,64.4969 C1443.6,72.4969 1429.2,72.4969 1429.2,72.4969 C1429.2,72.4969 1414.8,72.4969 1414.8,64.4969 L1414.8,43.6969 " fill="#E3E3E3" style="stroke:#181818;stroke-width:1.2000000000000002;"/><path d="M1414.8,43.6969 C1414.8,51.6969 1429.2,51.6969 1429.2,51.6969 C1429.2,51.6969 1443.6,51.6969 1443.6,43.6969 " fill="none" style="stroke:#181818;stroke-width:1.2000000000000002;"/><text fill="#000000" font-family="sans-serif" font-size="11.2" font-style="italic" lengthAdjust="spacing" textLength="63.2" x="1395.2" y="780.4297">&#171;repository&#187;</text><text fill="#000000" font-family="sans-serif" font-size="11.2" lengthAdjust="spacing" textLength="115.2" x="1369.2" y="795.3266">JobOpeningRepository</text><path d="M1414.8,806.1375 C1414.8,798.1375 1429.2,798.1375 1429.2,798.1375 C1429.2,798.1375 1443.6,798.1375 1443.6,806.1375 L1443.6,826.9375 C1443.6,834.9375 1429.2,834.9375 1429.2,834.9375 C1429.2,834.9375 1414.8,834.9375 1414.8,826.9375 L1414.8,806.1375 " fill="#E3E3E3" style="stroke:#181818;stroke-width:1.2000000000000002;"/><path d="M1414.8,806.1375 C1414.8,814.1375 1429.2,814.1375 1429.2,814.1375 C1429.2,814.1375 1443.6,814.1375 1443.6,806.1375 " fill="none" style="stroke:#181818;stroke-width:1.2000000000000002;"/><text fill="#000000" font-family="sans-serif" font-size="11.2" font-style="italic" lengthAdjust="spacing" textLength="63.2" x="1568.8" y="84.5828">&#171;repository&#187;</text><text fill="#000000" font-family="sans-serif" font-size="11.2" lengthAdjust="spacing" textLength="206.4" x="1497.2" y="99.4797">JobRequirementsSpecificationRepository</text><path d="M1588.4,43.6969 C1588.4,35.6969 1602.8,35.6969 1602.8,35.6969 C1602.8,35.6969 1617.2,35.6969 1617.2,43.6969 L1617.2,64.4969 C1617.2,72.4969 1602.8,72.4969 1602.8,72.4969 C1602.8,72.4969 1588.4,72.4969 1588.4,64.4969 L1588.4,43.6969 " fill="#E3E3E3" style="stroke:#181818;stroke-width:1.2000000000000002;"/><path d="M1588.4,43.6969 C1588.4,51.6969 1602.8,51.6969 1602.8,51.6969 C1602.8,51.6969 1617.2,51.6969 1617.2,43.6969 " fill="none" style="stroke:#181818;stroke-width:1.2000000000000002;"/><text fill="#000000" font-family="sans-serif" font-size="11.2" font-style="italic" lengthAdjust="spacing" textLength="63.2" x="1568.8" y="780.4297">&#171;repository&#187;</text><text fill="#000000" font-family="sans-serif" font-size="11.2" lengthAdjust="spacing" textLength="206.4" x="1497.2" y="795.3266">JobRequirementsSpecificationRepository</text><path d="M1588.4,806.1375 C1588.4,798.1375 1602.8,798.1375 1602.8,798.1375 C1602.8,798.1375 1617.2,798.1375 1617.2,806.1375 L1617.2,826.9375 C1617.2,834.9375 1602.8,834.9375 1602.8,834.9375 C1602.8,834.9375 1588.4,834.9375 1588.4,826.9375 L1588.4,806.1375 " fill="#E3E3E3" style="stroke:#181818;stroke-width:1.2000000000000002;"/><path d="M1588.4,806.1375 C1588.4,814.1375 1602.8,814.1375 1602.8,814.1375 C1602.8,814.1375 1617.2,814.1375 1617.2,806.1375 " fill="none" style="stroke:#181818;stroke-width:1.2000000000000002;"/><rect fill="#E3E3E3" height="40.9938" rx="2" ry="2" style="stroke:#181818;stroke-width:0.4000000000000001;" width="198.4" x="1716.4" y="60.4969"/><text fill="#000000" font-family="sans-serif" font-size="11.2" font-style="italic" lengthAdjust="spacing" textLength="47.2" x="1792" y="78.1828">&#171;builder&#187;</text><text fill="#000000" font-family="sans-serif" font-size="11.2" lengthAdjust="spacing" textLength="187.2" x="1722" y="93.0797">JobRequirementsSpecificationBuilder</text><rect fill="#E3E3E3" height="40.9938" rx="2" ry="2" style="stroke:#181818;stroke-width:0.4000000000000001;" width="198.4" x="1716.4" y="768.3438"/><text fill="#000000" font-family="sans-serif" font-size="11.2" font-style="italic" lengthAdjust="spacing" textLength="47.2" x="1792" y="786.0297">&#171;builder&#187;</text><text fill="#000000" font-family="sans-serif" font-size="11.2" lengthAdjust="spacing" textLength="187.2" x="1722" y="800.9266">JobRequirementsSpecificationBuilder</text><rect fill="#E3E3E3" height="40.9938" rx="2" ry="2" style="stroke:#181818;stroke-width:0.4000000000000001;" width="72" x="1922.8" y="60.4969"/><text fill="#000000" font-family="sans-serif" font-size="11.2" font-style="italic" lengthAdjust="spacing" textLength="49.6" x="1934" y="78.1828">&#171;domain&#187;</text><text fill="#000000" font-family="sans-serif" font-size="11.2" lengthAdjust="spacing" textLength="60.8" x="1928.4" y="93.0797">JobOpening</text><rect fill="#E3E3E3" height="40.9938" rx="2" ry="2" style="stroke:#181818;stroke-width:0.4000000000000001;" width="72" x="1922.8" y="768.3438"/><text fill="#000000" font-family="sans-serif" font-size="11.2" font-style="italic" lengthAdjust="spacing" textLength="49.6" x="1934" y="786.0297">&#171;domain&#187;</text><text fill="#000000" font-family="sans-serif" font-size="11.2" lengthAdjust="spacing" textLength="60.8" x="1928.4" y="800.9266">JobOpening</text><rect fill="#FFFFFF" height="644.4531" style="stroke:#181818;stroke-width:0.8000000000000002;" width="8" x="49.2" y="110.2906"/><rect fill="#FFFFFF" height="175.2297" style="stroke:#181818;stroke-width:0.8000000000000002;" width="8" x="492.4" y="128.9234"/><rect fill="#FFFFFF" height="75.0984" style="stroke:#181818;stroke-width:0.8000000000000002;" width="8" x="492.4" y="329.1859"/><rect fill="#FFFFFF" height="325.4266" style="stroke:#181818;stroke-width:0.8000000000000002;" width="8" x="492.4" y="429.3172"/><rect fill="#FFFFFF" height="25.0328" style="stroke:#181818;stroke-width:0.8000000000000002;" width="8" x="832.4" y="354.2188"/><rect fill="#FFFFFF" height="175.2297" style="stroke:#181818;stroke-width:0.8000000000000002;" width="8" x="832.4" y="454.35"/><rect fill="#FFFFFF" height="75.0984" style="stroke:#181818;stroke-width:0.8000000000000002;" width="8" x="832.4" y="654.6125"/><rect fill="#FFFFFF" height="125.1641" style="stroke:#181818;stroke-width:0.8000000000000002;" width="8" x="1025.2" y="153.9563"/><rect fill="#FFFFFF" height="75.0984" style="stroke:#181818;stroke-width:0.8000000000000002;" width="8" x="1157.6" y="178.9891"/><rect fill="#FFFFFF" height="125.1641" style="stroke:#181818;stroke-width:0.8000000000000002;" width="8" x="1288.8" y="479.3828"/><rect fill="#FFFFFF" height="25.0328" style="stroke:#181818;stroke-width:0.8000000000000002;" width="8" x="1425.2" y="204.0219"/><rect fill="#FFFFFF" height="25.0328" style="stroke:#181818;stroke-width:0.8000000000000002;" width="8" x="1598.8" y="554.4813"/><rect fill="#FFFFFF" height="25.0328" style="stroke:#181818;stroke-width:0.8000000000000002;" width="8" x="1811.6" y="504.4156"/><rect fill="#FFFFFF" height="25.0328" style="stroke:#181818;stroke-width:0.8000000000000002;" width="8" x="1954.8" y="679.6453"/><polygon fill="#181818" points="482.8,125.7234,490.8,128.9234,482.8,132.1234,486,128.9234" style="stroke:#181818;stroke-width:0.8000000000000002;"/><line style="stroke:#181818;stroke-width:0.8000000000000002;" x1="57.2" x2="487.6" y1="128.9234" y2="128.9234"/><text fill="#000000" font-family="sans-serif" font-size="10.4" font-weight="bold" lengthAdjust="spacing" textLength="5.6" x="62.8" y="124.7133">1</text><text fill="#000000" font-family="sans-serif" font-size="10.4" lengthAdjust="spacing" textLength="220" x="71.6" y="124.7133">Requests to select a requirements specification</text><polygon fill="#181818" points="1015.6,150.7563,1023.6,153.9563,1015.6,157.1563,1018.8,153.9563" style="stroke:#181818;stroke-width:0.8000000000000002;"/><line style="stroke:#181818;stroke-width:0.8000000000000002;" x1="500.4" x2="1020.4" y1="153.9563" y2="153.9563"/><text fill="#000000" font-family="sans-serif" font-size="10.4" font-weight="bold" lengthAdjust="spacing" textLength="5.6" x="506" y="149.7461">2</text><text fill="#000000" font-family="sans-serif" font-size="10.4" lengthAdjust="spacing" textLength="76.8" x="514.8" y="149.7461">allJobOpenings()</text><polygon fill="#181818" points="1148,175.7891,1156,178.9891,1148,182.1891,1151.2,178.9891" style="stroke:#181818;stroke-width:0.8000000000000002;"/><line style="stroke:#181818;stroke-width:0.8000000000000002;" x1="1033.2" x2="1152.8" y1="178.9891" y2="178.9891"/><text fill="#000000" font-family="sans-serif" font-size="10.4" font-weight="bold" lengthAdjust="spacing" textLength="5.6" x="1038.8" y="174.7789">3</text><text fill="#000000" font-family="sans-serif" font-size="10.4" lengthAdjust="spacing" textLength="76.8" x="1047.6" y="174.7789">allJobOpenings()</text><polygon fill="#181818" points="1415.6,200.8219,1423.6,204.0219,1415.6,207.2219,1418.8,204.0219" style="stroke:#181818;stroke-width:0.8000000000000002;"/><line style="stroke:#181818;stroke-width:0.8000000000000002;" x1="1165.6" x2="1420.4" y1="204.0219" y2="204.0219"/><text fill="#000000" font-family="sans-serif" font-size="10.4" font-weight="bold" lengthAdjust="spacing" textLength="5.6" x="1171.2" y="199.8117">4</text><text fill="#000000" font-family="sans-serif" font-size="10.4" lengthAdjust="spacing" textLength="34.4" x="1180" y="199.8117">findAll()</text><polygon fill="#181818" points="1174.4,225.8547,1166.4,229.0547,1174.4,232.2547,1171.2,229.0547" style="stroke:#181818;stroke-width:0.8000000000000002;"/><line style="stroke:#181818;stroke-width:0.8000000000000002;stroke-dasharray:2.0,2.0;" x1="1169.6" x2="1428.4" y1="229.0547" y2="229.0547"/><text fill="#000000" font-family="sans-serif" font-size="10.4" font-weight="bold" lengthAdjust="spacing" textLength="5.6" x="1179.2" y="224.8445">5</text><text fill="#000000" font-family="sans-serif" font-size="10.4" lengthAdjust="spacing" textLength="57.6" x="1188" y="224.8445">jobOpenings</text><polygon fill="#181818" points="1042,250.8875,1034,254.0875,1042,257.2875,1038.8,254.0875" style="stroke:#181818;stroke-width:0.8000000000000002;"/><line style="stroke:#181818;stroke-width:0.8000000000000002;stroke-dasharray:2.0,2.0;" x1="1037.2" x2="1160.8" y1="254.0875" y2="254.0875"/><text fill="#000000" font-family="sans-serif" font-size="10.4" font-weight="bold" lengthAdjust="spacing" textLength="5.6" x="1046.8" y="249.8773">6</text><text fill="#000000" font-family="sans-serif" font-size="10.4" lengthAdjust="spacing" textLength="57.6" x="1055.6" y="249.8773">jobOpenings</text><polygon fill="#181818" points="509.2,275.9203,501.2,279.1203,509.2,282.3203,506,279.1203" style="stroke:#181818;stroke-width:0.8000000000000002;"/><line style="stroke:#181818;stroke-width:0.8000000000000002;stroke-dasharray:2.0,2.0;" x1="504.4" x2="1028.4" y1="279.1203" y2="279.1203"/><text fill="#000000" font-family="sans-serif" font-size="10.4" font-weight="bold" lengthAdjust="spacing" textLength="5.6" x="514" y="274.9102">7</text><text fill="#000000" font-family="sans-serif" font-size="10.4" lengthAdjust="spacing" textLength="57.6" x="522.8" y="274.9102">jobOpenings</text><polygon fill="#181818" points="66,300.9531,58,304.1531,66,307.3531,62.8,304.1531" style="stroke:#181818;stroke-width:0.8000000000000002;"/><line style="stroke:#181818;stroke-width:0.8000000000000002;stroke-dasharray:2.0,2.0;" x1="61.2" x2="495.6" y1="304.1531" y2="304.1531"/><text fill="#000000" font-family="sans-serif" font-size="10.4" font-weight="bold" lengthAdjust="spacing" textLength="5.6" x="70.8" y="299.943">8</text><text fill="#000000" font-family="sans-serif" font-size="10.4" lengthAdjust="spacing" textLength="339.2" x="79.6" y="299.943">Displays all job openings registered in the system and asks to select one</text><polygon fill="#181818" points="482.8,325.9859,490.8,329.1859,482.8,332.3859,486,329.1859" style="stroke:#181818;stroke-width:0.8000000000000002;"/><line style="stroke:#181818;stroke-width:0.8000000000000002;" x1="57.2" x2="487.6" y1="329.1859" y2="329.1859"/><text fill="#000000" font-family="sans-serif" font-size="10.4" font-weight="bold" lengthAdjust="spacing" textLength="5.6" x="62.8" y="324.9758">9</text><text fill="#000000" font-family="sans-serif" font-size="10.4" lengthAdjust="spacing" textLength="108.8" x="71.6" y="324.9758">Selects the job opening</text><polygon fill="#181818" points="822.8,351.0188,830.8,354.2188,822.8,357.4188,826,354.2188" style="stroke:#181818;stroke-width:0.8000000000000002;"/><line style="stroke:#181818;stroke-width:0.8000000000000002;" x1="500.4" x2="827.6" y1="354.2188" y2="354.2188"/><text fill="#000000" font-family="sans-serif" font-size="10.4" font-weight="bold" lengthAdjust="spacing" textLength="11.2" x="506" y="350.0086">10</text><text fill="#000000" font-family="sans-serif" font-size="10.4" lengthAdjust="spacing" textLength="184" x="520.4" y="350.0086">importRequirementsSpecifications(path)</text><polygon fill="#181818" points="509.2,376.0516,501.2,379.2516,509.2,382.4516,506,379.2516" style="stroke:#181818;stroke-width:0.8000000000000002;"/><line style="stroke:#181818;stroke-width:0.8000000000000002;stroke-dasharray:2.0,2.0;" x1="504.4" x2="835.6" y1="379.2516" y2="379.2516"/><text fill="#000000" font-family="sans-serif" font-size="10.4" font-weight="bold" lengthAdjust="spacing" textLength="11.2" x="514" y="375.0414">11</text><text fill="#000000" font-family="sans-serif" font-size="10.4" lengthAdjust="spacing" textLength="119.2" x="528.4" y="375.0414">requirementSpecifications</text><polygon fill="#181818" points="66,401.0844,58,404.2844,66,407.4844,62.8,404.2844" style="stroke:#181818;stroke-width:0.8000000000000002;"/><line style="stroke:#181818;stroke-width:0.8000000000000002;stroke-dasharray:2.0,2.0;" x1="61.2" x2="495.6" y1="404.2844" y2="404.2844"/><text fill="#000000" font-family="sans-serif" font-size="10.4" font-weight="bold" lengthAdjust="spacing" textLength="11.2" x="70.8" y="400.0742">12</text><text fill="#000000" font-family="sans-serif" font-size="10.4" lengthAdjust="spacing" textLength="401.6" x="85.2" y="400.0742">Displays all requirement specifications registered in the system and asks to select one</text><polygon fill="#181818" points="482.8,426.1172,490.8,429.3172,482.8,432.5172,486,429.3172" style="stroke:#181818;stroke-width:0.8000000000000002;"/><line style="stroke:#181818;stroke-width:0.8000000000000002;" x1="57.2" x2="487.6" y1="429.3172" y2="429.3172"/><text fill="#000000" font-family="sans-serif" font-size="10.4" font-weight="bold" lengthAdjust="spacing" textLength="11.2" x="62.8" y="425.107">13</text><text fill="#000000" font-family="sans-serif" font-size="10.4" lengthAdjust="spacing" textLength="171.2" x="77.2" y="425.107">Selects the requirement specification</text><polygon fill="#181818" points="822.8,451.15,830.8,454.35,822.8,457.55,826,454.35" style="stroke:#181818;stroke-width:0.8000000000000002;"/><line style="stroke:#181818;stroke-width:0.8000000000000002;" x1="500.4" x2="827.6" y1="454.35" y2="454.35"/><text fill="#000000" font-family="sans-serif" font-size="10.4" font-weight="bold" lengthAdjust="spacing" textLength="11.2" x="506" y="450.1398">14</text><text fill="#000000" font-family="sans-serif" font-size="10.4" lengthAdjust="spacing" textLength="158.4" x="520.4" y="450.1398">extractSpecificationFromFile(data)</text><polygon fill="#181818" points="1279.2,476.1828,1287.2,479.3828,1279.2,482.5828,1282.4,479.3828" style="stroke:#181818;stroke-width:0.8000000000000002;"/><line style="stroke:#181818;stroke-width:0.8000000000000002;" x1="840.4" x2="1284" y1="479.3828" y2="479.3828"/><text fill="#000000" font-family="sans-serif" font-size="10.4" font-weight="bold" lengthAdjust="spacing" textLength="11.2" x="846" y="475.1727">15</text><text fill="#000000" font-family="sans-serif" font-size="10.4" lengthAdjust="spacing" textLength="304.8" x="860.4" y="475.1727">registerJobRequirement(academicDegree, knowledge, experience)</text><polygon fill="#181818" points="1802,501.2156,1810,504.4156,1802,507.6156,1805.2,504.4156" style="stroke:#181818;stroke-width:0.8000000000000002;"/><line style="stroke:#181818;stroke-width:0.8000000000000002;" x1="1296.8" x2="1806.8" y1="504.4156" y2="504.4156"/><text fill="#000000" font-family="sans-serif" font-size="10.4" font-weight="bold" lengthAdjust="spacing" textLength="11.2" x="1302.4" y="500.2055">16</text><text fill="#000000" font-family="sans-serif" font-size="10.4" lengthAdjust="spacing" textLength="28" x="1316.8" y="500.2055">build()</text><polygon fill="#181818" points="1305.6,526.2484,1297.6,529.4484,1305.6,532.6484,1302.4,529.4484" style="stroke:#181818;stroke-width:0.8000000000000002;"/><line style="stroke:#181818;stroke-width:0.8000000000000002;stroke-dasharray:2.0,2.0;" x1="1300.8" x2="1814.8" y1="529.4484" y2="529.4484"/><text fill="#000000" font-family="sans-serif" font-size="10.4" font-weight="bold" lengthAdjust="spacing" textLength="11.2" x="1310.4" y="525.2383">17</text><text fill="#000000" font-family="sans-serif" font-size="10.4" lengthAdjust="spacing" textLength="131.2" x="1324.8" y="525.2383">jobRequirementSpecification</text><polygon fill="#181818" points="1589.2,551.2813,1597.2,554.4813,1589.2,557.6813,1592.4,554.4813" style="stroke:#181818;stroke-width:0.8000000000000002;"/><line style="stroke:#181818;stroke-width:0.8000000000000002;" x1="1296.8" x2="1594" y1="554.4813" y2="554.4813"/><text fill="#000000" font-family="sans-serif" font-size="10.4" font-weight="bold" lengthAdjust="spacing" textLength="11.2" x="1302.4" y="550.2711">18</text><text fill="#000000" font-family="sans-serif" font-size="10.4" lengthAdjust="spacing" textLength="158.4" x="1316.8" y="550.2711">save(jobRequirementSpecification)</text><polygon fill="#181818" points="1305.6,576.3141,1297.6,579.5141,1305.6,582.7141,1302.4,579.5141" style="stroke:#181818;stroke-width:0.8000000000000002;"/><line style="stroke:#181818;stroke-width:0.8000000000000002;stroke-dasharray:2.0,2.0;" x1="1300.8" x2="1602" y1="579.5141" y2="579.5141"/><text fill="#000000" font-family="sans-serif" font-size="10.4" font-weight="bold" lengthAdjust="spacing" textLength="11.2" x="1310.4" y="575.3039">19</text><text fill="#000000" font-family="sans-serif" font-size="10.4" lengthAdjust="spacing" textLength="17.6" x="1324.8" y="575.3039">true</text><polygon fill="#181818" points="849.2,601.3469,841.2,604.5469,849.2,607.7469,846,604.5469" style="stroke:#181818;stroke-width:0.8000000000000002;"/><line style="stroke:#181818;stroke-width:0.8000000000000002;stroke-dasharray:2.0,2.0;" x1="844.4" x2="1292" y1="604.5469" y2="604.5469"/><text fill="#000000" font-family="sans-serif" font-size="10.4" font-weight="bold" lengthAdjust="spacing" textLength="11.2" x="854" y="600.3367">20</text><text fill="#000000" font-family="sans-serif" font-size="10.4" lengthAdjust="spacing" textLength="131.2" x="868.4" y="600.3367">jobRequirementSpecification</text><polygon fill="#181818" points="509.2,626.3797,501.2,629.5797,509.2,632.7797,506,629.5797" style="stroke:#181818;stroke-width:0.8000000000000002;"/><line style="stroke:#181818;stroke-width:0.8000000000000002;stroke-dasharray:2.0,2.0;" x1="504.4" x2="835.6" y1="629.5797" y2="629.5797"/><text fill="#000000" font-family="sans-serif" font-size="10.4" font-weight="bold" lengthAdjust="spacing" textLength="11.2" x="514" y="625.3695">21</text><text fill="#000000" font-family="sans-serif" font-size="10.4" lengthAdjust="spacing" textLength="131.2" x="528.4" y="625.3695">jobRequirementSpecification</text><polygon fill="#181818" points="822.8,651.4125,830.8,654.6125,822.8,657.8125,826,654.6125" style="stroke:#181818;stroke-width:0.8000000000000002;"/><line style="stroke:#181818;stroke-width:0.8000000000000002;" x1="500.4" x2="827.6" y1="654.6125" y2="654.6125"/><text fill="#000000" font-family="sans-serif" font-size="10.4" font-weight="bold" lengthAdjust="spacing" textLength="11.2" x="506" y="650.4023">22</text><text fill="#000000" font-family="sans-serif" font-size="10.4" lengthAdjust="spacing" textLength="302.4" x="520.4" y="650.4023">updateJobRequirementSpecification(jobRequirementSpecification)</text><polygon fill="#181818" points="1945.2,676.4453,1953.2,679.6453,1945.2,682.8453,1948.4,679.6453" style="stroke:#181818;stroke-width:0.8000000000000002;"/><line style="stroke:#181818;stroke-width:0.8000000000000002;" x1="840.4" x2="1950" y1="679.6453" y2="679.6453"/><text fill="#000000" font-family="sans-serif" font-size="10.4" font-weight="bold" lengthAdjust="spacing" textLength="11.2" x="846" y="675.4352">23</text><text fill="#000000" font-family="sans-serif" font-size="10.4" lengthAdjust="spacing" textLength="302.4" x="860.4" y="675.4352">updateJobRequirementSpecification(jobRequirementSpecification)</text><polygon fill="#181818" points="849.2,701.4781,841.2,704.6781,849.2,707.8781,846,704.6781" style="stroke:#181818;stroke-width:0.8000000000000002;"/><line style="stroke:#181818;stroke-width:0.8000000000000002;stroke-dasharray:2.0,2.0;" x1="844.4" x2="1958" y1="704.6781" y2="704.6781"/><text fill="#000000" font-family="sans-serif" font-size="10.4" font-weight="bold" lengthAdjust="spacing" textLength="11.2" x="854" y="700.468">24</text><text fill="#000000" font-family="sans-serif" font-size="10.4" lengthAdjust="spacing" textLength="52" x="868.4" y="700.468">jobOpening</text><polygon fill="#181818" points="509.2,726.5109,501.2,729.7109,509.2,732.9109,506,729.7109" style="stroke:#181818;stroke-width:0.8000000000000002;"/><line style="stroke:#181818;stroke-width:0.8000000000000002;stroke-dasharray:2.0,2.0;" x1="504.4" x2="835.6" y1="729.7109" y2="729.7109"/><text fill="#000000" font-family="sans-serif" font-size="10.4" font-weight="bold" lengthAdjust="spacing" textLength="11.2" x="514" y="725.5008">25</text><text fill="#000000" font-family="sans-serif" font-size="10.4" lengthAdjust="spacing" textLength="54.4" x="528.4" y="725.5008">JobOpening</text><polygon fill="#181818" points="62,751.5438,54,754.7438,62,757.9438,58.8,754.7438" style="stroke:#181818;stroke-width:0.8000000000000002;"/><line style="stroke:#181818;stroke-width:0.8000000000000002;stroke-dasharray:2.0,2.0;" x1="57.2" x2="495.6" y1="754.7438" y2="754.7438"/><text fill="#000000" font-family="sans-serif" font-size="10.4" font-weight="bold" lengthAdjust="spacing" textLength="11.2" x="66.8" y="750.5336">26</text><text fill="#000000" font-family="sans-serif" font-size="10.4" lengthAdjust="spacing" textLength="135.2" x="81.2" y="750.5336">Displays operation's success</text><!--SRC=[rLTRRjim4FpdAVWN5wWl80G6sWG16hGe4AC7M5Dhcp55iYILnBVlHavbwa65JfqM_PEbtPdnShXS-ftK5XnKl3BQYAqp5VBWQcI-_M91x623ox1No1sA07gZuW2_XT8yIhtXQr0U6OCw65rNAtIC1HaeRNdDvto9Yh9vs2A_mv-rT5YX3fulBGgvbWA2DDepTh6L9VArCM5bdWXD1EFuLUq3YNFVG9CO0YRk88MqeCCBSWpQmVpnXLzUMeUUlZGl5ejk_bVfmwrP9G6kZ0xEA8MEWC1QzVAUS4PWlblKL8s9f4xMCME9xa4Af71_UEhXzoMEXBCI0gp0OmHxXzPuIKNSKwXhVr1q79pyy-dqIN4nnETQghAfm-hmbAu1nPIc0jcKYPPUFa30uUhtNl3v8iC4HUCxzEIvOBW_s178qv4PVPmJANWLdR7N1P3Af4SA3aeTl_ZPXuWzbSLO4e-uXiwQ91c4CpP4wC16rYZuMkhoar89o6DeZ1e1p1E2xuzg6TaRix5RnTDLx-2FmhVLIDSwqtufhlJovfYAoFlReU3Nqbi5U_-yuC-ytBmGazqtH8SEIovrqutzddvN77J9mU_YpM4qTeHcx88txin3Z6_qH7BVRmVcDFk2oyeQbqRqCmjXEx9JCz1RF-KeoNLOrClwn-hGRraYpsB0I5Qtm_uFTaoA_zVcnAVWI44du8P6k1kfSFPyjlyDOovIOqdHBcqtO0O2IgoakCQDG_p8TzeyAYmtz8XF5fr4BR1tYemGDBr-Z7X4qjWmKl1c69bDCOta3Md7mETJTRdlV5XsBTKzWavNarU4pidjuG5d4w9oAzGxXtF89-lKN4Ho2p95Ffm4yZROMnUgDp2Siy7dIZfpYp-nSBMbzeEtQQsvTdlNhlNxod56lKVKU1Hza_DQdD6Xz5tCTJlEUieY_FcyG9EVQq8lw3PM2u7UdtheHz7zc-Cl]--></g></svg>