<?xml version="1.0" encoding="us-ascii" standalone="no"?><svg xmlns="http://www.w3.org/2000/svg" xmlns:xlink="http://www.w3.org/1999/xlink" contentStyleType="text/css" height="414px" preserveAspectRatio="none" style="width:655px;height:414px;background:#FFFFFF;" version="1.1" viewBox="0 0 655 414" width="655px" zoomAndPan="magnify"><defs/><g><text fill="#000000" font-family="sans-serif" font-size="14" font-weight="bold" lengthAdjust="spacing" textLength="483" x="85.25" y="30.1074">System Sequence Diagram (SSD) - Select Requirements Specification</text><rect fill="#FFFFFF" height="188.7461" style="stroke:#181818;stroke-width:1.0;" width="10" x="63.5" y="133.2422"/><rect fill="#FFFFFF" height="31.291" style="stroke:#181818;stroke-width:1.0;" width="10" x="610.5" y="156.5332"/><rect fill="#FFFFFF" height="31.291" style="stroke:#181818;stroke-width:1.0;" width="10" x="610.5" y="219.1152"/><rect fill="#FFFFFF" height="31.291" style="stroke:#181818;stroke-width:1.0;" width="10" x="610.5" y="281.6973"/><line style="stroke:#181818;stroke-width:0.5;stroke-dasharray:5.0,5.0;" x1="68" x2="68" y1="123.2422" y2="330.9883"/><line style="stroke:#181818;stroke-width:0.5;stroke-dasharray:5.0,5.0;" x1="615.5" x2="615.5" y1="123.2422" y2="330.9883"/><text fill="#000000" font-family="sans-serif" font-size="14" lengthAdjust="spacing" textLength="121" x="5" y="119.7285">Customer Manager</text><ellipse cx="68.5" cy="53.1211" fill="#E3E3E3" rx="8" ry="8" style="stroke:#181818;stroke-width:0.5;"/><path d="M68.5,61.1211 L68.5,88.1211 M55.5,69.1211 L81.5,69.1211 M68.5,88.1211 L55.5,103.1211 M68.5,88.1211 L81.5,103.1211 " fill="none" style="stroke:#181818;stroke-width:0.5;"/><text fill="#000000" font-family="sans-serif" font-size="14" lengthAdjust="spacing" textLength="121" x="5" y="345.0957">Customer Manager</text><ellipse cx="68.5" cy="357.1094" fill="#E3E3E3" rx="8" ry="8" style="stroke:#181818;stroke-width:0.5;"/><path d="M68.5,365.1094 L68.5,392.1094 M55.5,373.1094 L81.5,373.1094 M68.5,392.1094 L55.5,407.1094 M68.5,392.1094 L81.5,407.1094 " fill="none" style="stroke:#181818;stroke-width:0.5;"/><rect fill="#E3E3E3" height="32.6211" rx="2.5" ry="2.5" style="stroke:#181818;stroke-width:0.5;" width="68" x="581.5" y="89.6211"/><text fill="#000000" font-family="sans-serif" font-size="14" lengthAdjust="spacing" textLength="54" x="588.5" y="111.7285">: System</text><rect fill="#E3E3E3" height="32.6211" rx="2.5" ry="2.5" style="stroke:#181818;stroke-width:0.5;" width="68" x="581.5" y="329.9883"/><text fill="#000000" font-family="sans-serif" font-size="14" lengthAdjust="spacing" textLength="54" x="588.5" y="352.0957">: System</text><rect fill="#FFFFFF" height="188.7461" style="stroke:#181818;stroke-width:1.0;" width="10" x="63.5" y="133.2422"/><rect fill="#FFFFFF" height="31.291" style="stroke:#181818;stroke-width:1.0;" width="10" x="610.5" y="156.5332"/><rect fill="#FFFFFF" height="31.291" style="stroke:#181818;stroke-width:1.0;" width="10" x="610.5" y="219.1152"/><rect fill="#FFFFFF" height="31.291" style="stroke:#181818;stroke-width:1.0;" width="10" x="610.5" y="281.6973"/><polygon fill="#181818" points="598.5,152.5332,608.5,156.5332,598.5,160.5332,602.5,156.5332" style="stroke:#181818;stroke-width:1.0;"/><line style="stroke:#181818;stroke-width:1.0;" x1="73.5" x2="604.5" y1="156.5332" y2="156.5332"/><text fill="#000000" font-family="sans-serif" font-size="13" font-weight="bold" lengthAdjust="spacing" textLength="7" x="80.5" y="151.2705">1</text><text fill="#000000" font-family="sans-serif" font-size="13" lengthAdjust="spacing" textLength="275" x="91.5" y="151.2705">Requests to select a requirements specification</text><polygon fill="#181818" points="84.5,183.8242,74.5,187.8242,84.5,191.8242,80.5,187.8242" style="stroke:#181818;stroke-width:1.0;"/><line style="stroke:#181818;stroke-width:1.0;stroke-dasharray:2.0,2.0;" x1="78.5" x2="614.5" y1="187.8242" y2="187.8242"/><text fill="#000000" font-family="sans-serif" font-size="13" font-weight="bold" lengthAdjust="spacing" textLength="7" x="90.5" y="182.5615">2</text><text fill="#000000" font-family="sans-serif" font-size="13" lengthAdjust="spacing" textLength="424" x="101.5" y="182.5615">Displays all job openings registered in the system and asks to select one</text><polygon fill="#181818" points="598.5,215.1152,608.5,219.1152,598.5,223.1152,602.5,219.1152" style="stroke:#181818;stroke-width:1.0;"/><line style="stroke:#181818;stroke-width:1.0;" x1="73.5" x2="604.5" y1="219.1152" y2="219.1152"/><text fill="#000000" font-family="sans-serif" font-size="13" font-weight="bold" lengthAdjust="spacing" textLength="7" x="80.5" y="213.8525">3</text><text fill="#000000" font-family="sans-serif" font-size="13" lengthAdjust="spacing" textLength="136" x="91.5" y="213.8525">Selects the job opening</text><polygon fill="#181818" points="84.5,246.4063,74.5,250.4063,84.5,254.4063,80.5,250.4063" style="stroke:#181818;stroke-width:1.0;"/><line style="stroke:#181818;stroke-width:1.0;stroke-dasharray:2.0,2.0;" x1="78.5" x2="614.5" y1="250.4063" y2="250.4063"/><text fill="#000000" font-family="sans-serif" font-size="13" font-weight="bold" lengthAdjust="spacing" textLength="7" x="90.5" y="245.1436">4</text><text fill="#000000" font-family="sans-serif" font-size="13" lengthAdjust="spacing" textLength="502" x="101.5" y="245.1436">Displays all requirement specifications registered in the system and asks to select one</text><polygon fill="#181818" points="598.5,277.6973,608.5,281.6973,598.5,285.6973,602.5,281.6973" style="stroke:#181818;stroke-width:1.0;"/><line style="stroke:#181818;stroke-width:1.0;" x1="73.5" x2="604.5" y1="281.6973" y2="281.6973"/><text fill="#000000" font-family="sans-serif" font-size="13" font-weight="bold" lengthAdjust="spacing" textLength="7" x="80.5" y="276.4346">5</text><text fill="#000000" font-family="sans-serif" font-size="13" lengthAdjust="spacing" textLength="214" x="91.5" y="276.4346">Selects the requirement specification</text><polygon fill="#181818" points="84.5,308.9883,74.5,312.9883,84.5,316.9883,80.5,312.9883" style="stroke:#181818;stroke-width:1.0;"/><line style="stroke:#181818;stroke-width:1.0;stroke-dasharray:2.0,2.0;" x1="78.5" x2="614.5" y1="312.9883" y2="312.9883"/><text fill="#000000" font-family="sans-serif" font-size="13" font-weight="bold" lengthAdjust="spacing" textLength="7" x="90.5" y="307.7256">6</text><text fill="#000000" font-family="sans-serif" font-size="13" lengthAdjust="spacing" textLength="169" x="101.5" y="307.7256">Displays operation's success</text><!--SRC=[lP4nRiCm34LtdOB8qdR81JnqITOizGaOcR7Lo9GhqYro-pAoapf5ixH0DGW2-Ft_uxSS0m-OiOS-SV9TJZs1vf6SN2S3-YEsLEif4cJoYjp6fK0wRD97u1OE68MSqw0chK-Yr4DDRoEn9zW6RC_onxhUFi7Q1j7CuCNc8LDFh0BrG3uSWaSDYPt3KHEF_PwolRsc3AlDA6gG6NR8HfLNW0ARdJCK3JuCo0ghQWulm-bP3C8xAfaQx3XtlkszVhwWLWM6n40qWKnyQ3il2EM6y6nnzRq4mNncrxK5M4nb1SWGyII0CS9hsaCQYAqsiOGsc3PJ0u51EmAPlaLkR8NZaYSnbOI6VWp-jj1KiXJFHMIH_e5-KSbj8_-rors0hyr-jvqLb8lHW_thqNiIkOFu2G00]--></g></svg>