<?xml version="1.0" encoding="us-ascii" standalone="no"?><svg xmlns="http://www.w3.org/2000/svg" xmlns:xlink="http://www.w3.org/1999/xlink" contentStyleType="text/css" height="562.8px" preserveAspectRatio="none" style="width:734px;height:562px;background:#FFFFFF;" version="1.1" viewBox="0 0 734 562" width="734.4px" zoomAndPan="magnify"><defs/><g><text fill="#000000" font-family="sans-serif" font-size="16.8" font-weight="bold" lengthAdjust="spacing" textLength="435.6" x="148.5" y="34.2422">System Sequence Diagram (SSD) - Alternative One</text><rect fill="#FFFFFF" height="300.9539" style="stroke:#181818;stroke-width:1.2;" width="12" x="82.2" y="154.7719"/><rect fill="#FFFFFF" height="53.5453" style="stroke:#181818;stroke-width:1.2;" width="12" x="679.8" y="180.3445"/><rect fill="#FFFFFF" height="35.1727" style="stroke:#181818;stroke-width:1.2;" width="12" x="679.8" y="269.0625"/><rect fill="#FFFFFF" height="35.1727" style="stroke:#181818;stroke-width:1.2;" width="12" x="679.8" y="339.4078"/><rect fill="#FFFFFF" height="35.1727" style="stroke:#181818;stroke-width:1.2;" width="12" x="679.8" y="409.7531"/><line style="stroke:#181818;stroke-width:0.6;stroke-dasharray:5.0,5.0;" x1="87.6" x2="87.6" y1="142.7719" y2="466.5258"/><line style="stroke:#181818;stroke-width:0.6;stroke-dasharray:5.0,5.0;" x1="685.8" x2="685.8" y1="142.7719" y2="466.5258"/><text fill="#000000" font-family="sans-serif" font-size="16.8" lengthAdjust="spacing" textLength="157.2" x="6" y="139.2281">Customer Manager</text><ellipse cx="88.2" cy="61.1859" fill="#E3E3E3" rx="9.6" ry="9.6" style="stroke:#181818;stroke-width:0.6;"/><path d="M88.2,70.7859 L88.2,103.1859 M72.6,80.3859 L103.8,80.3859 M88.2,103.1859 L72.6,121.1859 M88.2,103.1859 L103.8,121.1859 " fill="none" style="stroke:#181818;stroke-width:0.6;"/><text fill="#000000" font-family="sans-serif" font-size="16.8" lengthAdjust="spacing" textLength="157.2" x="6" y="481.568">Customer Manager</text><ellipse cx="88.2" cy="495.3117" fill="#E3E3E3" rx="9.6" ry="9.6" style="stroke:#181818;stroke-width:0.6;"/><path d="M88.2,504.9117 L88.2,537.3117 M72.6,514.5117 L103.8,514.5117 M88.2,537.3117 L72.6,555.3117 M88.2,537.3117 L103.8,555.3117 " fill="none" style="stroke:#181818;stroke-width:0.6;"/><rect fill="#E3E3E3" height="36.5859" rx="3" ry="3" style="stroke:#181818;stroke-width:0.6;" width="84" x="643.8" y="104.9859"/><text fill="#000000" font-family="sans-serif" font-size="16.8" lengthAdjust="spacing" textLength="67.2" x="652.2" y="129.6281">: System</text><rect fill="#E3E3E3" height="36.5859" rx="3" ry="3" style="stroke:#181818;stroke-width:0.6;" width="84" x="643.8" y="465.3258"/><text fill="#000000" font-family="sans-serif" font-size="16.8" lengthAdjust="spacing" textLength="67.2" x="652.2" y="489.968">: System</text><rect fill="#FFFFFF" height="300.9539" style="stroke:#181818;stroke-width:1.2;" width="12" x="82.2" y="154.7719"/><rect fill="#FFFFFF" height="53.5453" style="stroke:#181818;stroke-width:1.2;" width="12" x="679.8" y="180.3445"/><rect fill="#FFFFFF" height="35.1727" style="stroke:#181818;stroke-width:1.2;" width="12" x="679.8" y="269.0625"/><rect fill="#FFFFFF" height="35.1727" style="stroke:#181818;stroke-width:1.2;" width="12" x="679.8" y="339.4078"/><rect fill="#FFFFFF" height="35.1727" style="stroke:#181818;stroke-width:1.2;" width="12" x="679.8" y="409.7531"/><polygon fill="#181818" points="665.4,175.5445,677.4,180.3445,665.4,185.1445,670.2,180.3445" style="stroke:#181818;stroke-width:1.2;"/><line style="stroke:#181818;stroke-width:1.2;" x1="94.2" x2="672.6" y1="180.3445" y2="180.3445"/><text fill="#000000" font-family="sans-serif" font-size="15.6" font-weight="bold" lengthAdjust="spacing" textLength="10.8" x="102.6" y="174.6539">1</text><text fill="#000000" font-family="sans-serif" font-size="15.6" lengthAdjust="spacing" textLength="262.8" x="118.2" y="174.6539">asks to register a new Job Opening</text><polygon fill="#181818" points="107.4,229.0898,95.4,233.8898,107.4,238.6898,102.6,233.8898" style="stroke:#181818;stroke-width:1.2;"/><line style="stroke:#181818;stroke-width:1.2;stroke-dasharray:2.0,2.0;" x1="100.2" x2="684.6" y1="233.8898" y2="233.8898"/><text fill="#000000" font-family="sans-serif" font-size="15.6" font-weight="bold" lengthAdjust="spacing" textLength="10.8" x="114.6" y="219.0129">2</text><text fill="#000000" font-family="sans-serif" font-size="15.6" lengthAdjust="spacing" textLength="541.2" x="130.2" y="209.8266">requests job opening details (Description, VacanciesNumber, Company,</text><text fill="#000000" font-family="sans-serif" font-size="15.6" lengthAdjust="spacing" textLength="460.8" x="135" y="228.1992">Address, Mode, ContractType, TitleOrFunction, JobReference)</text><polygon fill="#181818" points="665.4,264.2625,677.4,269.0625,665.4,273.8625,670.2,269.0625" style="stroke:#181818;stroke-width:1.2;"/><line style="stroke:#181818;stroke-width:1.2;" x1="94.2" x2="672.6" y1="269.0625" y2="269.0625"/><text fill="#000000" font-family="sans-serif" font-size="15.6" font-weight="bold" lengthAdjust="spacing" textLength="10.8" x="102.6" y="263.3719">3</text><text fill="#000000" font-family="sans-serif" font-size="15.6" lengthAdjust="spacing" textLength="213.6" x="118.2" y="263.3719">submits Job Opening details</text><polygon fill="#181818" points="107.4,299.4352,95.4,304.2352,107.4,309.0352,102.6,304.2352" style="stroke:#181818;stroke-width:1.2;"/><line style="stroke:#181818;stroke-width:1.2;stroke-dasharray:2.0,2.0;" x1="100.2" x2="684.6" y1="304.2352" y2="304.2352"/><text fill="#000000" font-family="sans-serif" font-size="15.6" font-weight="bold" lengthAdjust="spacing" textLength="10.8" x="114.6" y="298.5445">4</text><text fill="#000000" font-family="sans-serif" font-size="15.6" lengthAdjust="spacing" textLength="457.2" x="130.2" y="298.5445">requests list of requirements (JobRequirementsSpecification)</text><polygon fill="#181818" points="665.4,334.6078,677.4,339.4078,665.4,344.2078,670.2,339.4078" style="stroke:#181818;stroke-width:1.2;"/><line style="stroke:#181818;stroke-width:1.2;" x1="94.2" x2="672.6" y1="339.4078" y2="339.4078"/><text fill="#000000" font-family="sans-serif" font-size="15.6" font-weight="bold" lengthAdjust="spacing" textLength="10.8" x="102.6" y="333.7172">5</text><text fill="#000000" font-family="sans-serif" font-size="15.6" lengthAdjust="spacing" textLength="290.4" x="118.2" y="333.7172">submits JobRequirementsSpecification</text><polygon fill="#181818" points="107.4,369.7805,95.4,374.5805,107.4,379.3805,102.6,374.5805" style="stroke:#181818;stroke-width:1.2;"/><line style="stroke:#181818;stroke-width:1.2;stroke-dasharray:2.0,2.0;" x1="100.2" x2="684.6" y1="374.5805" y2="374.5805"/><text fill="#000000" font-family="sans-serif" font-size="15.6" font-weight="bold" lengthAdjust="spacing" textLength="10.8" x="114.6" y="368.8898">6</text><text fill="#000000" font-family="sans-serif" font-size="15.6" lengthAdjust="spacing" textLength="528" x="130.2" y="368.8898">shows all details for the new job opening request and asks to confirm</text><polygon fill="#181818" points="665.4,404.9531,677.4,409.7531,665.4,414.5531,670.2,409.7531" style="stroke:#181818;stroke-width:1.2;"/><line style="stroke:#181818;stroke-width:1.2;" x1="94.2" x2="672.6" y1="409.7531" y2="409.7531"/><text fill="#000000" font-family="sans-serif" font-size="15.6" font-weight="bold" lengthAdjust="spacing" textLength="10.8" x="102.6" y="404.0625">7</text><text fill="#000000" font-family="sans-serif" font-size="15.6" lengthAdjust="spacing" textLength="156" x="118.2" y="404.0625">confirms all the data</text><polygon fill="#181818" points="107.4,440.1258,95.4,444.9258,107.4,449.7258,102.6,444.9258" style="stroke:#181818;stroke-width:1.2;"/><line style="stroke:#181818;stroke-width:1.2;stroke-dasharray:2.0,2.0;" x1="100.2" x2="684.6" y1="444.9258" y2="444.9258"/><text fill="#000000" font-family="sans-serif" font-size="15.6" font-weight="bold" lengthAdjust="spacing" textLength="10.8" x="114.6" y="439.2352">8</text><text fill="#000000" font-family="sans-serif" font-size="15.6" lengthAdjust="spacing" textLength="204" x="130.2" y="439.2352">displays operation success</text><!--SRC=[dPB1Zjf038RlUGgB4ol12t1OQGNgeH95QbPxwiLCdE2IUDAnioXlNoU15BNTIdGEqSHZ__x-6UkPfSM43JHHOZYbs11OwYZJ-QJ5SCQASkjhWaJ1KAhwFa5FMCGBImKbrafPPcoUclTgr41EFpgIGB1Zh8RqPPxldc0DBxLH4ZH-9pY8bs5dKRhcICdtmMA2nRPJSwG4UnHdI0j0XUq-yyR6WLiKWyNcsceydBQZ0B-ZaMU3homRlhvVFz_0Dfv-Lh3efYhsK084eGjyZaSuj2JkQAoQfMxQCAshpjebNNZZCkvKJU6x2yH900eov5fXkICDYLlZA2jumu0IcFJBw7S5szYucNxrJU2bA1Afhc0V2nfEn98ZlFQj_xqELtj8dpe9avB3VgMIqd35JoDPGNy5_isxTiU6dVNEx8trdwO_Tbtx7K8inm0dQaWyk1pvVWNobWAN772W_q_U3_KU0zTJl2XWNSzlLFh8sOd68RX_mwj5G2dccGbHIaxD0mwk5LFBeKs1XeyX5wnjZRqEP6cqxFSIWa_BNF8doqy0]--></g></svg>